<svg xmlns="http://www.w3.org/2000/svg" width="256" height="256" viewBox="0 0 256 256"><path data-band="1" fill="#fde68a" fill-opacity="0.35" d="M250.29 40.68L247.41 29.46L237.08 26.48L229.65 34.70L232.53 45.91L242.85 48.90ZM254.85 21.24L251.97 10.02L241.64 7.04L234.20 15.26L237.08 26.48L247.41 29.46ZM263.50 54.88L260.62 43.66L250.29 40.68L242.85 48.90L245.74 60.11L256.06 63.10ZM219.32 31.72L216.44 20.51L206.11 17.53L198.68 25.76L201.57 36.96L211.89 39.94ZM201.57 36.96L198.68 25.76L188.36 22.78L180.94 31.01L183.83 42.21L194.14 45.19ZM223.87 12.28L220.98 1.07L210.66 -1.91L203.22 6.32L206.11 17.53L216.44 20.51ZM206.11 17.53L203.22 6.32L192.90 3.34L185.47 11.57L188.36 22.78L198.68 25.76ZM232.53 45.91L229.65 34.70L219.32 31.72L211.89 39.94L214.78 51.15L225.10 54.13ZM214.78 51.15L211.89 39.94L201.57 36.96L194.14 45.19L197.03 56.39L207.35 59.37ZM237.08 26.48L234.20 15.26L223.87 12.28L216.44 20.51L219.32 31.72L229.65 34.70ZM228.42 -7.16L225.53 -18.38L215.20 -21.36L207.77 -13.13L210.66 -1.91L220.98 1.07ZM241.64 7.04L238.75 -4.18L228.42 -7.16L220.98 1.07L223.87 12.28L234.20 15.26ZM272.14 88.50L269.26 77.30L258.94 74.30L251.50 82.52L254.38 93.72L264.70 96.72ZM241.18 79.53L238.30 68.33L227.98 65.34L220.55 73.56L223.44 84.76L233.75 87.75ZM223.44 84.76L220.55 73.56L210.24 70.57L202.81 78.79L205.70 89.99L216.01 92.98ZM245.74 60.11L242.85 48.90L232.53 45.91L225.10 54.13L227.98 65.34L238.30 68.33ZM227.98 65.34L225.10 54.13L214.78 51.15L207.35 59.37L210.24 70.57L220.55 73.56ZM254.38 93.72L251.50 82.52L241.18 79.53L233.75 87.75L236.64 98.95L246.95 101.94ZM236.64 98.95L233.75 87.75L223.44 84.76L216.01 92.98L218.89 104.17L229.21 107.16ZM258.94 74.30L256.06 63.10L245.74 60.11L238.30 68.33L241.18 79.53L251.50 82.52ZM46.89 -7.52L43.98 -18.71L33.67 -21.66L26.28 -13.41L29.19 -2.23L39.49 0.72ZM73.31 20.77L70.41 9.58L60.10 6.63L52.71 14.86L55.61 26.05L65.92 29.01ZM55.61 26.05L52.71 14.86L42.40 11.91L35.01 20.15L37.92 31.33L48.22 34.28ZM77.81 1.35L74.90 -9.85L64.59 -12.80L57.19 -4.56L60.10 6.63L70.41 9.58ZM60.10 6.63L57.19 -4.56L46.89 -7.52L39.49 0.72L42.40 11.91L52.71 14.86ZM86.52 34.92L83.62 23.73L73.31 20.77L65.92 29.01L68.82 40.19L79.12 43.15ZM68.82 40.19L65.92 29.01L55.61 26.05L48.22 34.28L51.13 45.47L61.43 48.42ZM24.71 17.20L21.80 6.01L11.50 3.07L4.12 11.31L7.03 22.49L17.33 25.43ZM29.19 -2.23L26.28 -13.41L15.98 -16.36L8.59 -8.12L11.50 3.07L21.80 6.01ZM37.92 31.33L35.01 20.15L24.71 17.20L17.33 25.43L20.24 36.62L30.53 39.57ZM20.24 36.62L17.33 25.43L7.03 22.49L-0.35 30.72L2.56 41.90L12.86 44.85ZM42.40 11.91L39.49 0.72L29.19 -2.23L21.80 6.01L24.71 17.20L35.01 20.15ZM95.52 -3.93L92.62 -15.13L82.31 -18.09L74.90 -9.85L77.81 1.35L88.12 4.30ZM77.53 73.75L74.63 62.57L64.33 59.61L56.94 67.83L59.85 79.01L70.14 81.97ZM99.73 49.07L96.83 37.88L86.52 34.92L79.12 43.15L82.03 54.34L92.33 57.30ZM82.03 54.34L79.12 43.15L68.82 40.19L61.43 48.42L64.33 59.61L74.63 62.57ZM170.62 28.03L167.73 16.83L157.41 13.86L149.99 22.09L152.88 33.29L163.20 36.26ZM175.15 8.60L172.26 -2.61L161.93 -5.58L154.51 2.66L157.41 13.86L167.73 16.83ZM183.83 42.21L180.94 31.01L170.62 28.03L163.20 36.26L166.09 47.46L176.41 50.44ZM166.09 47.46L163.20 36.26L152.88 33.29L145.47 41.52L148.36 52.71L158.67 55.69ZM188.36 22.78L185.47 11.57L175.15 8.60L167.73 16.83L170.62 28.03L180.94 31.01ZM192.50 75.81L189.61 64.61L179.30 61.64L171.88 69.86L174.77 81.05L185.08 84.03ZM197.03 56.39L194.14 45.19L183.83 42.21L176.41 50.44L179.30 61.64L189.61 64.61ZM179.30 61.64L176.41 50.44L166.09 47.46L158.67 55.69L161.57 66.88L171.88 69.86ZM205.70 89.99L202.81 78.79L192.50 75.81L185.08 84.03L187.97 95.23L198.28 98.21ZM210.24 70.57L207.35 59.37L197.03 56.39L189.61 64.61L192.50 75.81L202.81 78.79ZM20.03 108.95L17.12 97.77L6.83 94.83L-0.54 103.05L2.37 114.21L12.65 117.16ZM2.37 114.21L-0.54 103.05L-10.82 100.10L-18.19 108.32L-15.28 119.49L-5.00 122.43ZM24.50 89.55L21.59 78.38L11.30 75.43L3.92 83.65L6.83 94.83L17.12 97.77ZM6.83 94.83L3.92 83.65L-6.36 80.71L-13.74 88.93L-10.82 100.10L-0.54 103.05ZM33.22 123.07L30.31 111.90L20.03 108.95L12.65 117.16L15.56 128.33L25.84 131.28ZM15.56 128.33L12.65 117.16L2.37 114.21L-5.00 122.43L-2.09 133.60L8.19 136.55ZM37.69 103.68L34.78 92.50L24.50 89.55L17.12 97.77L20.03 108.95L30.31 111.90ZM46.65 64.88L43.74 53.70L33.44 50.75L26.06 58.98L28.97 70.15L39.26 73.11ZM28.97 70.15L26.06 58.98L15.77 56.03L8.39 64.25L11.30 75.43L21.59 78.38ZM51.13 45.47L48.22 34.28L37.92 31.33L30.53 39.57L33.44 50.75L43.74 53.70ZM33.44 50.75L30.53 39.57L20.24 36.62L12.86 44.85L15.77 56.03L26.06 58.98ZM59.85 79.01L56.94 67.83L46.65 64.88L39.26 73.11L42.17 84.28L52.46 87.24ZM42.17 84.28L39.26 73.11L28.97 70.15L21.59 78.38L24.50 89.55L34.78 92.50ZM64.33 59.61L61.43 48.42L51.13 45.47L43.74 53.70L46.65 64.88L56.94 67.83ZM2.56 41.90L-0.35 30.72L-10.64 27.78L-18.02 36.01L-15.10 47.19L-4.81 50.13ZM11.30 75.43L8.39 64.25L-1.90 61.31L-9.28 69.54L-6.36 80.71L3.92 83.65ZM15.77 56.03L12.86 44.85L2.56 41.90L-4.81 50.13L-1.90 61.31L8.39 64.25ZM41.93 156.57L39.03 145.41L28.75 142.45L21.37 150.66L24.28 161.83L34.56 164.78ZM24.28 161.83L21.37 150.66L11.10 147.71L3.73 155.92L6.63 167.08L16.91 170.03ZM46.41 137.19L43.50 126.02L33.22 123.07L25.84 131.28L28.75 142.45L39.03 145.41ZM28.75 142.45L25.84 131.28L15.56 128.33L8.19 136.55L11.10 147.71L21.37 150.66ZM37.46 175.94L34.56 164.78L24.28 161.83L16.91 170.03L19.81 181.19L30.09 184.15ZM6.63 167.08L3.73 155.92L-6.55 152.97L-13.91 161.18L-11.00 172.34L-0.73 175.29ZM11.10 147.71L8.19 136.55L-2.09 133.60L-9.46 141.81L-6.55 152.97L3.73 155.92ZM50.88 117.81L47.98 106.63L37.69 103.68L30.31 111.90L33.22 123.07L43.50 126.02ZM73.04 93.15L70.14 81.97L59.85 79.01L52.46 87.24L55.36 98.41L65.65 101.37ZM55.36 98.41L52.46 87.24L42.17 84.28L34.78 92.50L37.69 103.68L47.98 106.63ZM210.66 -1.91L207.77 -13.13L197.44 -16.10L190.01 -7.87L192.90 3.34L203.22 6.32ZM192.90 3.34L190.01 -7.87L179.68 -10.84L172.26 -2.61L175.15 8.60L185.47 11.57ZM161.93 -5.58L159.04 -16.79L148.72 -19.76L141.30 -11.52L144.19 -0.31L154.51 2.66ZM144.19 -0.31L141.30 -11.52L130.98 -14.48L123.56 -6.25L126.46 4.95L136.78 7.92ZM231.21 263.01L228.33 251.83L218.04 248.84L210.63 257.02L213.51 268.20L223.80 271.19ZM213.51 268.20L210.63 257.02L200.35 254.03L192.94 262.22L195.82 273.39L206.11 276.38ZM235.74 243.65L232.87 232.47L222.57 229.47L215.16 237.66L218.04 248.84L228.33 251.83ZM218.04 248.84L215.16 237.66L204.87 234.67L197.47 242.86L200.35 254.03L210.63 257.02ZM248.91 257.82L246.03 246.64L235.74 243.65L228.33 251.83L231.21 263.01L241.49 266.00ZM236.19 171.34L233.31 160.15L223.00 157.16L215.58 165.36L218.47 176.55L228.77 179.54ZM218.47 176.55L215.58 165.36L205.28 162.37L197.87 170.57L200.75 181.76L211.05 184.75ZM240.73 151.94L237.85 140.75L227.55 137.76L220.12 145.97L223.00 157.16L233.31 160.15ZM223.00 157.16L220.12 145.97L209.82 142.98L202.40 151.19L205.28 162.37L215.58 165.36ZM249.37 185.52L246.49 174.33L236.19 171.34L228.77 179.54L231.65 190.72L241.95 193.72ZM231.65 190.72L228.77 179.54L218.47 176.55L211.05 184.75L213.93 195.93L224.23 198.92ZM253.92 166.13L251.04 154.94L240.73 151.94L233.31 160.15L236.19 171.34L246.49 174.33ZM263.02 127.33L260.14 116.13L249.83 113.14L242.40 121.35L245.28 132.55L255.59 135.54ZM245.28 132.55L242.40 121.35L232.09 118.36L224.66 126.57L227.55 137.76L237.85 140.75ZM276.21 141.53L273.34 130.33L263.02 127.33L255.59 135.54L258.47 146.73L268.78 149.73ZM258.47 146.73L255.59 135.54L245.28 132.55L237.85 140.75L240.73 151.94L251.04 154.94ZM214.36 123.58L211.47 112.39L201.16 109.40L193.74 117.61L196.63 128.81L206.93 131.79ZM218.89 104.17L216.01 92.98L205.70 89.99L198.28 98.21L201.16 109.40L211.47 112.39ZM227.55 137.76L224.66 126.57L214.36 123.58L206.93 131.79L209.82 142.98L220.12 145.97ZM232.09 118.36L229.21 107.16L218.89 104.17L211.47 112.39L214.36 123.58L224.66 126.57ZM258.00 219.08L255.12 207.90L244.82 204.90L237.40 213.09L240.28 224.28L250.58 227.27ZM240.28 224.28L237.40 213.09L227.11 210.10L219.69 218.29L222.57 229.47L232.87 232.47ZM262.55 199.70L259.67 188.51L249.37 185.52L241.95 193.72L244.82 204.90L255.12 207.90ZM244.82 204.90L241.95 193.72L231.65 190.72L224.23 198.92L227.11 210.10L237.40 213.09ZM271.17 233.27L268.30 222.08L258.00 219.08L250.58 227.27L253.45 238.46L263.75 241.45ZM253.45 238.46L250.58 227.27L240.28 224.28L232.87 232.47L235.74 243.65L246.03 246.64ZM275.72 213.89L272.85 202.70L262.55 199.70L255.12 207.90L258.00 219.08L268.30 222.08ZM209.40 215.30L206.52 204.12L196.23 201.14L188.82 209.33L191.70 220.51L201.99 223.50ZM213.93 195.93L211.05 184.75L200.75 181.76L193.34 189.96L196.23 201.14L206.52 204.12ZM222.57 229.47L219.69 218.29L209.40 215.30L201.99 223.50L204.87 234.67L215.16 237.66ZM204.87 234.67L201.99 223.50L191.70 220.51L184.30 228.70L187.18 239.87L197.47 242.86ZM227.11 210.10L224.23 198.92L213.93 195.93L206.52 204.12L209.40 215.30L219.69 218.29ZM267.10 180.32L264.22 169.13L253.92 166.13L246.49 174.33L249.37 185.52L259.67 188.51ZM271.65 160.93L268.78 149.73L258.47 146.73L251.04 154.94L253.92 166.13L264.22 169.13ZM46.16 209.43L43.26 198.27L32.99 195.31L25.62 203.51L28.52 214.67L38.79 217.62ZM59.34 223.55L56.44 212.39L46.16 209.43L38.79 217.62L41.69 228.78L51.96 231.74ZM266.62 252.64L263.75 241.45L253.45 238.46L246.03 246.64L248.91 257.82L259.20 260.82ZM1.98 258.60L-0.92 247.45L-11.18 244.50L-18.53 252.69L-15.63 263.83L-5.37 266.79ZM6.44 239.26L3.53 228.11L-6.73 225.15L-14.09 233.35L-11.18 244.50L-0.92 247.45ZM15.35 200.55L12.45 189.40L2.18 186.45L-5.19 194.65L-2.28 205.80L7.99 208.76ZM19.81 181.19L16.91 170.03L6.63 167.08L-0.73 175.29L2.18 186.45L12.45 189.40ZM2.18 186.45L-0.73 175.29L-11.00 172.34L-18.36 180.55L-15.45 191.70L-5.19 194.65ZM28.52 214.67L25.62 203.51L15.35 200.55L7.99 208.76L10.89 219.91L21.16 222.86ZM10.89 219.91L7.99 208.76L-2.28 205.80L-9.64 214.00L-6.73 225.15L3.53 228.11ZM32.99 195.31L30.09 184.15L19.81 181.19L12.45 189.40L15.35 200.55L25.62 203.51ZM37.23 248.13L34.33 236.97L24.06 234.02L16.70 242.21L19.60 253.36L29.86 256.32ZM19.60 253.36L16.70 242.21L6.44 239.26L-0.92 247.45L1.98 258.60L12.24 261.55ZM41.69 228.78L38.79 217.62L28.52 214.67L21.16 222.86L24.06 234.02L34.33 236.97ZM24.06 234.02L21.16 222.86L10.89 219.91L3.53 228.11L6.44 239.26L16.70 242.21ZM50.39 262.24L47.49 251.09L37.23 248.13L29.86 256.32L32.76 267.47L43.03 270.43ZM32.76 267.47L29.86 256.32L19.60 253.36L12.24 261.55L15.14 272.70L25.40 275.65ZM54.86 242.90L51.96 231.74L41.69 228.78L34.33 236.97L37.23 248.13L47.49 251.09Z"/><path data-band="2" fill="#f97316" fill-opacity="0.35" d="M91.02 15.50L88.12 4.30L77.81 1.35L70.41 9.58L73.31 20.77L83.62 23.73ZM143.85 72.13L140.95 60.94L130.64 57.97L123.24 66.19L126.13 77.38L136.44 80.35ZM126.13 77.38L123.24 66.19L112.93 63.23L105.53 71.45L108.43 82.64L118.73 85.60ZM148.36 52.71L145.47 41.52L135.16 38.55L127.75 46.78L130.64 57.97L140.95 60.94ZM130.64 57.97L127.75 46.78L117.44 43.81L110.03 52.04L112.93 63.23L123.24 66.19ZM157.05 86.30L154.15 75.10L143.85 72.13L136.44 80.35L139.33 91.54L149.64 94.51ZM139.33 91.54L136.44 80.35L126.13 77.38L118.73 85.60L121.63 96.79L131.93 99.76ZM161.57 66.88L158.67 55.69L148.36 52.71L140.95 60.94L143.85 72.13L154.15 75.10ZM95.23 68.49L92.33 57.30L82.03 54.34L74.63 62.57L77.53 73.75L87.83 76.71ZM108.43 82.64L105.53 71.45L95.23 68.49L87.83 76.71L90.73 87.89L101.03 90.86ZM90.73 87.89L87.83 76.71L77.53 73.75L70.14 81.97L73.04 93.15L83.34 96.11ZM112.93 63.23L110.03 52.04L99.73 49.07L92.33 57.30L95.23 68.49L105.53 71.45ZM152.88 33.29L149.99 22.09L139.67 19.12L132.26 27.35L135.16 38.55L145.47 41.52ZM157.41 13.86L154.51 2.66L144.19 -0.31L136.78 7.92L139.67 19.12L149.99 22.09ZM121.95 24.39L119.05 13.19L108.74 10.22L101.33 18.46L104.23 29.65L114.54 32.62ZM104.23 29.65L101.33 18.46L91.02 15.50L83.62 23.73L86.52 34.92L96.83 37.88ZM126.46 4.95L123.56 -6.25L113.25 -9.21L105.84 -0.97L108.74 10.22L119.05 13.19ZM108.74 10.22L105.84 -0.97L95.52 -3.93L88.12 4.30L91.02 15.50L101.33 18.46ZM135.16 38.55L132.26 27.35L121.95 24.39L114.54 32.62L117.44 43.81L127.75 46.78ZM117.44 43.81L114.54 32.62L104.23 29.65L96.83 37.88L99.73 49.07L110.03 52.04ZM139.67 19.12L136.78 7.92L126.46 4.95L119.05 13.19L121.95 24.39L132.26 27.35ZM165.72 119.87L162.83 108.68L152.53 105.70L145.12 113.92L148.01 125.10L158.31 128.08ZM148.01 125.10L145.12 113.92L134.82 110.95L127.42 119.16L130.31 130.34L140.61 133.31ZM170.24 100.46L167.35 89.27L157.05 86.30L149.64 94.51L152.53 105.70L162.83 108.68ZM152.53 105.70L149.64 94.51L139.33 91.54L131.93 99.76L134.82 110.95L145.12 113.92ZM178.91 134.03L176.02 122.84L165.72 119.87L158.31 128.08L161.20 139.26L171.50 142.24ZM161.20 139.26L158.31 128.08L148.01 125.10L140.61 133.31L143.50 144.50L153.80 147.47ZM183.44 114.63L180.55 103.44L170.24 100.46L162.83 108.68L165.72 119.87L176.02 122.84ZM117.12 116.19L114.23 105.01L103.93 102.04L96.53 110.26L99.43 121.44L109.72 124.40ZM99.43 121.44L96.53 110.26L86.24 107.29L78.85 115.51L81.75 126.69L92.04 129.65ZM121.63 96.79L118.73 85.60L108.43 82.64L101.03 90.86L103.93 102.04L114.23 105.01ZM103.93 102.04L101.03 90.86L90.73 87.89L83.34 96.11L86.24 107.29L96.53 110.26ZM130.31 130.34L127.42 119.16L117.12 116.19L109.72 124.40L112.62 135.58L122.91 138.55ZM112.62 135.58L109.72 124.40L99.43 121.44L92.04 129.65L94.94 140.83L105.23 143.79ZM134.82 110.95L131.93 99.76L121.63 96.79L114.23 105.01L117.12 116.19L127.42 119.16ZM174.77 81.05L171.88 69.86L161.57 66.88L154.15 75.10L157.05 86.30L167.35 89.27ZM187.97 95.23L185.08 84.03L174.77 81.05L167.35 89.27L170.24 100.46L180.55 103.44ZM55.11 170.70L52.21 159.53L41.93 156.57L34.56 164.78L37.46 175.94L47.74 178.90ZM59.59 151.32L56.69 140.15L46.41 137.19L39.03 145.41L41.93 156.57L52.21 159.53ZM68.56 112.55L65.65 101.37L55.36 98.41L47.98 106.63L50.88 117.81L61.17 120.77ZM81.75 126.69L78.85 115.51L68.56 112.55L61.17 120.77L64.07 131.94L74.36 134.90ZM64.07 131.94L61.17 120.77L50.88 117.81L43.50 126.02L46.41 137.19L56.69 140.15ZM86.24 107.29L83.34 96.11L73.04 93.15L65.65 101.37L68.56 112.55L78.85 115.51ZM182.66 259.23L179.78 248.06L169.49 245.08L162.10 253.27L164.98 264.43L175.26 267.42ZM164.98 264.43L162.10 253.27L151.82 250.29L144.43 258.47L147.31 269.64L157.59 272.62ZM187.18 239.87L184.30 228.70L174.01 225.72L166.61 233.91L169.49 245.08L179.78 248.06ZM169.49 245.08L166.61 233.91L156.33 230.93L148.93 239.12L151.82 250.29L162.10 253.27ZM200.35 254.03L197.47 242.86L187.18 239.87L179.78 248.06L182.66 259.23L192.94 262.22ZM187.57 167.59L184.69 156.41L174.39 153.43L166.98 161.63L169.87 172.81L180.16 175.79ZM169.87 172.81L166.98 161.63L156.69 158.65L149.28 166.86L152.17 178.03L162.46 181.01ZM192.10 148.20L189.21 137.01L178.91 134.03L171.50 142.24L174.39 153.43L184.69 156.41ZM174.39 153.43L171.50 142.24L161.20 139.26L153.80 147.47L156.69 158.65L166.98 161.63ZM200.75 181.76L197.87 170.57L187.57 167.59L180.16 175.79L183.05 186.97L193.34 189.96ZM183.05 186.97L180.16 175.79L169.87 172.81L162.46 181.01L165.35 192.19L175.64 195.17ZM205.28 162.37L202.40 151.19L192.10 148.20L184.69 156.41L187.57 167.59L197.87 170.57ZM267.58 107.92L264.70 96.72L254.38 93.72L246.95 101.94L249.83 113.14L260.14 116.13ZM249.83 113.14L246.95 101.94L236.64 98.95L229.21 107.16L232.09 118.36L242.40 121.35ZM196.63 128.81L193.74 117.61L183.44 114.63L176.02 122.84L178.91 134.03L189.21 137.01ZM201.16 109.40L198.28 98.21L187.97 95.23L180.55 103.44L183.44 114.63L193.74 117.61ZM209.82 142.98L206.93 131.79L196.63 128.81L189.21 137.01L192.10 148.20L202.40 151.19ZM191.70 220.51L188.82 209.33L178.53 206.35L171.12 214.54L174.01 225.72L184.30 228.70ZM196.23 201.14L193.34 189.96L183.05 186.97L175.64 195.17L178.53 206.35L188.82 209.33ZM112.31 207.86L109.41 196.69L99.13 193.72L91.75 201.92L94.64 213.08L104.92 216.05ZM94.64 213.08L91.75 201.92L81.47 198.95L74.09 207.15L76.99 218.31L87.26 221.28ZM116.80 188.49L113.91 177.32L103.63 174.35L96.24 182.55L99.13 193.72L109.41 196.69ZM99.13 193.72L96.24 182.55L85.95 179.58L78.57 187.79L81.47 198.95L91.75 201.92ZM125.48 222.00L122.59 210.83L112.31 207.86L104.92 216.05L107.81 227.22L118.09 230.19ZM107.81 227.22L104.92 216.05L94.64 213.08L87.26 221.28L90.16 232.44L100.43 235.41ZM129.98 202.63L127.09 191.46L116.80 188.49L109.41 196.69L112.31 207.86L122.59 210.83ZM63.81 204.19L60.91 193.02L50.64 190.06L43.26 198.27L46.16 209.43L56.44 212.39ZM68.29 184.82L65.39 173.66L55.11 170.70L47.74 178.90L50.64 190.06L60.91 193.02ZM50.64 190.06L47.74 178.90L37.46 175.94L30.09 184.15L32.99 195.31L43.26 198.27ZM76.99 218.31L74.09 207.15L63.81 204.19L56.44 212.39L59.34 223.55L69.61 226.51ZM81.47 198.95L78.57 187.79L68.29 184.82L60.91 193.02L63.81 204.19L74.09 207.15ZM138.99 163.88L136.10 152.70L125.81 149.73L118.41 157.94L121.30 169.11L131.59 172.09ZM121.30 169.11L118.41 157.94L108.12 154.97L100.73 163.17L103.63 174.35L113.91 177.32ZM143.50 144.50L140.61 133.31L130.31 130.34L122.91 138.55L125.81 149.73L136.10 152.70ZM125.81 149.73L122.91 138.55L112.62 135.58L105.23 143.79L108.12 154.97L118.41 157.94ZM152.17 178.03L149.28 166.86L138.99 163.88L131.59 172.09L134.48 183.26L144.77 186.24ZM134.48 183.26L131.59 172.09L121.30 169.11L113.91 177.32L116.80 188.49L127.09 191.46ZM156.69 158.65L153.80 147.47L143.50 144.50L136.10 152.70L138.99 163.88L149.28 166.86ZM90.44 160.21L87.55 149.04L77.26 146.07L69.87 154.28L72.77 165.45L83.06 168.41ZM72.77 165.45L69.87 154.28L59.59 151.32L52.21 159.53L55.11 170.70L65.39 173.66ZM94.94 140.83L92.04 129.65L81.75 126.69L74.36 134.90L77.26 146.07L87.55 149.04ZM77.26 146.07L74.36 134.90L64.07 131.94L56.69 140.15L59.59 151.32L69.87 154.28ZM103.63 174.35L100.73 163.17L90.44 160.21L83.06 168.41L85.95 179.58L96.24 182.55ZM85.95 179.58L83.06 168.41L72.77 165.45L65.39 173.66L68.29 184.82L78.57 187.79ZM108.12 154.97L105.23 143.79L94.94 140.83L87.55 149.04L90.44 160.21L100.73 163.17ZM134.15 255.49L131.26 244.33L120.98 241.35L113.60 249.54L116.49 260.71L126.76 263.68ZM116.49 260.71L113.60 249.54L103.32 246.57L95.94 254.76L98.83 265.92L109.11 268.89ZM138.65 236.14L135.76 224.97L125.48 222.00L118.09 230.19L120.98 241.35L131.26 244.33ZM120.98 241.35L118.09 230.19L107.81 227.22L100.43 235.41L103.32 246.57L113.60 249.54ZM147.31 269.64L144.43 258.47L134.15 255.49L126.76 263.68L129.65 274.84L139.92 277.82ZM151.82 250.29L148.93 239.12L138.65 236.14L131.26 244.33L134.15 255.49L144.43 258.47ZM85.67 251.79L82.78 240.63L72.50 237.67L65.13 245.86L68.03 257.01L78.30 259.98ZM68.03 257.01L65.13 245.86L54.86 242.90L47.49 251.09L50.39 262.24L60.66 265.20ZM90.16 232.44L87.26 221.28L76.99 218.31L69.61 226.51L72.50 237.67L82.78 240.63ZM72.50 237.67L69.61 226.51L59.34 223.55L51.96 231.74L54.86 242.90L65.13 245.86ZM98.83 265.92L95.94 254.76L85.67 251.79L78.30 259.98L81.19 271.14L91.46 274.11ZM103.32 246.57L100.43 235.41L90.16 232.44L82.78 240.63L85.67 251.79L95.94 254.76ZM160.84 211.56L157.95 200.39L147.66 197.41L140.27 205.61L143.15 216.78L153.44 219.76ZM143.15 216.78L140.27 205.61L129.98 202.63L122.59 210.83L125.48 222.00L135.76 224.97ZM165.35 192.19L162.46 181.01L152.17 178.03L144.77 186.24L147.66 197.41L157.95 200.39ZM147.66 197.41L144.77 186.24L134.48 183.26L127.09 191.46L129.98 202.63L140.27 205.61ZM174.01 225.72L171.12 214.54L160.84 211.56L153.44 219.76L156.33 230.93L166.61 233.91ZM156.33 230.93L153.44 219.76L143.15 216.78L135.76 224.97L138.65 236.14L148.93 239.12ZM178.53 206.35L175.64 195.17L165.35 192.19L157.95 200.39L160.84 211.56L171.12 214.54Z"/></svg>
