<svg xmlns="http://www.w3.org/2000/svg" width="256" height="256" viewBox="0 0 256 256"><path data-band="1" fill="#fde68a" fill-opacity="0.35" d="M170.26 176.16L167.41 165.10L157.23 162.09L149.91 170.15L152.77 181.21L162.94 184.22ZM152.77 181.21L149.91 170.15L139.74 167.14L132.42 175.20L135.28 186.26L145.45 189.26ZM174.73 157.04L171.87 145.97L161.69 142.96L154.37 151.02L157.23 162.09L167.41 165.10ZM157.23 162.09L154.37 151.02L144.19 148.02L136.88 156.08L139.74 167.14L149.91 170.15ZM183.29 190.24L180.44 179.17L170.26 176.16L162.94 184.22L165.80 195.28L175.97 198.29ZM165.80 195.28L162.94 184.22L152.77 181.21L145.45 189.26L148.31 200.32L158.48 203.33ZM187.76 171.12L184.91 160.05L174.73 157.04L167.41 165.10L170.26 176.16L180.44 179.17ZM122.25 172.19L119.39 161.13L109.22 158.13L101.91 166.19L104.77 177.25L114.94 180.25ZM126.70 153.07L123.84 142.01L113.67 139.01L106.36 147.07L109.22 158.13L119.39 161.13ZM109.22 158.13L106.36 147.07L96.18 144.08L88.88 152.14L91.74 163.20L101.91 166.19ZM135.28 186.26L132.42 175.20L122.25 172.19L114.94 180.25L117.80 191.31L127.97 194.31ZM139.74 167.14L136.88 156.08L126.70 153.07L119.39 161.13L122.25 172.19L132.42 175.20ZM196.72 132.85L193.86 121.78L183.68 118.77L176.35 126.83L179.20 137.91L189.39 140.92ZM179.20 137.91L176.35 126.83L166.16 123.82L158.84 131.89L161.69 142.96L171.87 145.97ZM201.20 113.71L198.34 102.63L188.15 99.62L180.82 107.69L183.68 118.77L193.86 121.78ZM183.68 118.77L180.82 107.69L170.63 104.68L163.30 112.75L166.16 123.82L176.35 126.83ZM209.75 146.94L206.90 135.87L196.72 132.85L189.39 140.92L192.24 151.99L202.42 155.00ZM192.24 151.99L189.39 140.92L179.20 137.91L171.87 145.97L174.73 157.04L184.91 160.05ZM214.24 127.81L211.39 116.73L201.20 113.71L193.86 121.78L196.72 132.85L206.90 135.87ZM148.66 128.88L145.80 117.81L135.61 114.81L128.30 122.88L131.16 133.95L141.34 136.95ZM131.16 133.95L128.30 122.88L118.12 119.88L110.80 127.95L113.67 139.01L123.84 142.01ZM153.12 109.75L150.26 98.67L140.08 95.67L132.75 103.74L135.61 114.81L145.80 117.81ZM135.61 114.81L132.75 103.74L122.57 100.74L115.25 108.81L118.12 119.88L128.30 122.88ZM161.69 142.96L158.84 131.89L148.66 128.88L141.34 136.95L144.19 148.02L154.37 151.02ZM144.19 148.02L141.34 136.95L131.16 133.95L123.84 142.01L126.70 153.07L136.88 156.08ZM166.16 123.82L163.30 112.75L153.12 109.75L145.80 117.81L148.66 128.88L158.84 131.89ZM156.87 233.49L154.02 222.44L143.85 219.43L136.54 227.48L139.40 238.53L149.56 241.54ZM218.30 180.16L215.46 169.09L205.27 166.08L197.94 174.13L200.79 185.20L210.97 188.22ZM200.79 185.20L197.94 174.13L187.76 171.12L180.44 179.17L183.29 190.24L193.47 193.25ZM222.79 161.04L219.94 149.96L209.75 146.94L202.42 155.00L205.27 166.08L215.46 169.09ZM205.27 166.08L202.42 155.00L192.24 151.99L184.91 160.05L187.76 171.12L197.94 174.13ZM231.33 194.26L228.49 183.18L218.30 180.16L210.97 188.22L213.82 199.29L224.00 202.31ZM235.82 175.13L232.98 164.06L222.79 161.04L215.46 169.09L218.30 180.16L228.49 183.18ZM113.36 210.42L110.50 199.36L100.33 196.36L93.03 204.42L95.89 215.47L106.05 218.47ZM201.60 42.14L198.75 31.05L188.54 28.05L181.20 36.13L184.06 47.22L194.26 50.22ZM184.06 47.22L181.20 36.13L171.00 33.12L163.67 41.20L166.53 52.29L176.72 55.29ZM206.09 22.97L203.23 11.88L193.03 8.87L185.69 16.95L188.54 28.05L198.75 31.05ZM188.54 28.05L185.69 16.95L175.48 13.95L168.14 22.03L171.00 33.12L181.20 36.13ZM214.66 56.25L211.80 45.16L201.60 42.14L194.26 50.22L197.12 61.31L207.31 64.32ZM197.12 61.31L194.26 50.22L184.06 47.22L176.72 55.29L179.58 66.38L189.78 69.39ZM219.15 37.08L216.30 25.98L206.09 22.97L198.75 31.05L201.60 42.14L211.80 45.16ZM157.94 19.03L155.08 7.94L144.88 4.94L137.55 13.03L140.41 24.12L150.61 27.12ZM140.41 24.12L137.55 13.03L127.35 10.03L120.03 18.12L122.89 29.20L133.08 32.20ZM166.53 52.29L163.67 41.20L153.47 38.20L146.14 46.28L149.00 57.36L159.20 60.37ZM171.00 33.12L168.14 22.03L157.94 19.03L150.61 27.12L153.47 38.20L163.67 41.20ZM228.15 -1.28L225.29 -12.38L215.08 -15.40L207.73 -7.31L210.58 3.79L220.79 6.80ZM210.58 3.79L207.73 -7.31L197.52 -10.31L190.17 -2.23L193.03 8.87L203.23 11.88ZM241.21 12.83L238.36 1.73L228.15 -1.28L220.79 6.80L223.65 17.90L233.85 20.91ZM223.65 17.90L220.79 6.80L210.58 3.79L203.23 11.88L206.09 22.97L216.30 25.98ZM245.71 -6.36L242.86 -17.46L232.65 -20.47L225.29 -12.38L228.15 -1.28L238.36 1.73ZM179.96 -5.23L177.10 -16.33L166.90 -19.33L159.56 -11.24L162.42 -0.15L172.62 2.86ZM162.42 -0.15L159.56 -11.24L149.35 -14.24L142.02 -6.15L144.88 4.94L155.08 7.94ZM193.03 8.87L190.17 -2.23L179.96 -5.23L172.62 2.86L175.48 13.95L185.69 16.95ZM175.48 13.95L172.62 2.86L162.42 -0.15L155.08 7.94L157.94 19.03L168.14 22.03ZM223.22 89.51L220.37 78.42L210.17 75.41L202.83 83.48L205.68 94.56L215.88 97.58ZM205.68 94.56L202.83 83.48L192.63 80.47L185.30 88.54L188.15 99.62L198.34 102.63ZM227.71 70.35L224.86 59.26L214.66 56.25L207.31 64.32L210.17 75.41L220.37 78.42ZM210.17 75.41L207.31 64.32L197.12 61.31L189.78 69.39L192.63 80.47L202.83 83.48ZM236.26 103.61L233.41 92.53L223.22 89.51L215.88 97.58L218.73 108.66L228.92 111.68ZM218.73 108.66L215.88 97.58L205.68 94.56L198.34 102.63L201.20 113.71L211.39 116.73ZM240.76 84.46L237.91 73.37L227.71 70.35L220.37 78.42L223.22 89.51L233.41 92.53ZM175.11 85.53L172.25 74.45L162.06 71.45L154.73 79.52L157.59 90.60L167.77 93.61ZM157.59 90.60L154.73 79.52L144.54 76.52L137.21 84.59L140.08 95.67L150.26 98.67ZM179.58 66.38L176.72 55.29L166.53 52.29L159.20 60.37L162.06 71.45L172.25 74.45ZM162.06 71.45L159.20 60.37L149.00 57.36L141.68 65.44L144.54 76.52L154.73 79.52ZM188.15 99.62L185.30 88.54L175.11 85.53L167.77 93.61L170.63 104.68L180.82 107.69ZM170.63 104.68L167.77 93.61L157.59 90.60L150.26 98.67L153.12 109.75L163.30 112.75ZM192.63 80.47L189.78 69.39L179.58 66.38L172.25 74.45L175.11 85.53L185.30 88.54ZM249.77 46.12L246.91 35.03L236.71 32.01L229.36 40.09L232.21 51.18L242.41 54.20ZM232.21 51.18L229.36 40.09L219.15 37.08L211.80 45.16L214.66 56.25L224.86 59.26ZM254.27 26.95L251.42 15.85L241.21 12.83L233.85 20.91L236.71 32.01L246.91 35.03ZM236.71 32.01L233.85 20.91L223.65 17.90L216.30 25.98L219.15 37.08L229.36 40.09ZM262.82 60.24L259.97 49.14L249.77 46.12L242.41 54.20L245.26 65.29L255.47 68.31ZM245.26 65.29L242.41 54.20L232.21 51.18L224.86 59.26L227.71 70.35L237.91 73.37ZM267.33 41.07L264.48 29.97L254.27 26.95L246.91 35.03L249.77 46.12L259.97 49.14ZM30.97 73.82L28.10 62.76L17.92 59.78L10.63 67.86L13.50 78.92L23.67 81.90ZM17.92 59.78L15.04 48.71L4.87 45.74L-2.43 53.82L0.45 64.88L10.63 67.86ZM44.02 87.87L41.15 76.81L30.97 73.82L23.67 81.90L26.55 92.96L36.72 95.94ZM109.83 15.13L106.96 4.04L96.77 1.05L89.45 9.14L92.32 20.22L102.51 23.21ZM92.32 20.22L89.45 9.14L79.26 6.15L71.94 14.24L74.81 25.32L85.00 28.31ZM122.89 29.20L120.03 18.12L109.83 15.13L102.51 23.21L105.38 34.29L115.57 37.29ZM57.31 30.42L54.44 19.35L44.26 16.36L36.95 24.45L39.83 35.52L50.01 38.51ZM61.75 11.26L58.88 0.18L48.69 -2.80L41.38 5.29L44.26 16.36L54.44 19.35ZM44.26 16.36L41.38 5.29L31.19 2.31L23.89 10.40L26.77 21.47L36.95 24.45ZM70.37 44.48L67.50 33.41L57.31 30.42L50.01 38.51L52.88 49.58L63.06 52.56ZM74.81 25.32L71.94 14.24L61.75 11.26L54.44 19.35L57.31 30.42L67.50 33.41ZM113.67 139.01L110.80 127.95L100.63 124.95L93.32 133.02L96.18 144.08L106.36 147.07ZM140.08 95.67L137.21 84.59L127.03 81.59L119.71 89.67L122.57 100.74L132.75 103.74ZM144.54 76.52L141.68 65.44L131.49 62.44L124.16 70.52L127.03 81.59L137.21 84.59ZM248.40 260.66L245.56 249.59L235.38 246.57L228.05 254.61L230.90 265.67L241.07 268.69ZM217.88 251.59L215.04 240.53L204.87 237.51L197.54 245.55L200.39 256.61L210.56 259.63ZM200.39 256.61L197.54 245.55L187.37 242.53L180.06 250.57L182.91 261.63L193.07 264.65ZM230.90 265.67L228.05 254.61L217.88 251.59L210.56 259.63L213.41 270.68L223.57 273.71ZM274.91 217.43L272.07 206.35L261.88 203.33L254.54 211.37L257.38 222.44L267.57 225.47ZM244.36 208.35L241.52 197.28L231.33 194.26L224.00 202.31L226.85 213.37L237.03 216.40ZM226.85 213.37L224.00 202.31L213.82 199.29L206.49 207.33L209.34 218.40L219.52 221.42ZM257.38 222.44L254.54 211.37L244.36 208.35L237.03 216.40L239.87 227.46L250.05 230.49ZM169.89 247.56L167.04 236.51L156.87 233.49L149.56 241.54L152.42 252.59L162.58 255.60ZM182.91 261.63L180.06 250.57L169.89 247.56L162.58 255.60L165.43 266.65L175.59 269.67ZM275.39 145.93L272.55 134.85L262.35 131.82L255.00 139.88L257.85 150.97L268.04 153.99ZM244.81 136.86L241.96 125.78L231.77 122.76L224.43 130.82L227.28 141.90L237.47 144.92ZM227.28 141.90L224.43 130.82L214.24 127.81L206.90 135.87L209.75 146.94L219.94 149.96ZM249.31 117.72L246.46 106.63L236.26 103.61L228.92 111.68L231.77 122.76L241.96 125.78ZM231.77 122.76L228.92 111.68L218.73 108.66L211.39 116.73L214.24 127.81L224.43 130.82ZM257.85 150.97L255.00 139.88L244.81 136.86L237.47 144.92L240.32 156.00L250.50 159.02ZM240.32 156.00L237.47 144.92L227.28 141.90L219.94 149.96L222.79 161.04L232.98 164.06ZM262.35 131.82L259.50 120.74L249.31 117.72L241.96 125.78L244.81 136.86L255.00 139.88ZM271.36 93.52L268.52 82.43L258.31 79.40L250.96 87.47L253.81 98.56L264.01 101.59ZM253.81 98.56L250.96 87.47L240.76 84.46L233.41 92.53L236.26 103.61L246.46 106.63ZM275.87 74.36L273.03 63.26L262.82 60.24L255.47 68.31L258.31 79.40L268.52 82.43ZM258.31 79.40L255.47 68.31L245.26 65.29L237.91 73.37L240.76 84.46L250.96 87.47ZM266.86 112.67L264.01 101.59L253.81 98.56L246.46 106.63L249.31 117.72L259.50 120.74ZM248.85 189.23L246.01 178.15L235.82 175.13L228.49 183.18L231.33 194.26L241.52 197.28ZM270.88 165.07L268.04 153.99L257.85 150.97L250.50 159.02L253.35 170.10L263.54 173.12ZM253.35 170.10L250.50 159.02L240.32 156.00L232.98 164.06L235.82 175.13L246.01 178.15ZM261.88 203.33L259.04 192.25L248.85 189.23L241.52 197.28L244.36 208.35L254.54 211.37ZM0.45 64.88L-2.43 53.82L-12.60 50.85L-19.89 58.93L-17.01 69.99L-6.84 72.96ZM276.36 2.70L273.51 -8.41L263.29 -11.43L255.93 -3.34L258.78 7.76L268.99 10.78ZM258.78 7.76L255.93 -3.34L245.71 -6.36L238.36 1.73L241.21 12.83L251.42 15.85ZM271.84 21.89L268.99 10.78L258.78 7.76L251.42 15.85L254.27 26.95L264.48 29.97ZM114.29 -4.05L111.42 -15.13L101.22 -18.12L93.90 -10.03L96.77 1.05L106.96 4.04ZM144.88 4.94L142.02 -6.15L131.82 -9.14L124.49 -1.05L127.35 10.03L137.55 13.03ZM127.35 10.03L124.49 -1.05L114.29 -4.05L106.96 4.04L109.83 15.13L120.03 18.12ZM66.19 -7.91L63.32 -18.99L53.13 -21.97L45.81 -13.88L48.69 -2.80L58.88 0.18ZM96.77 1.05L93.90 -10.03L83.70 -13.02L76.38 -4.92L79.26 6.15L89.45 9.14ZM79.26 6.15L76.38 -4.92L66.19 -7.91L58.88 0.18L61.75 11.26L71.94 14.24ZM0.64 -6.62L-2.24 -17.69L-12.42 -20.66L-19.72 -12.57L-16.83 -1.50L-6.65 1.47ZM9.29 26.58L6.41 15.52L-3.77 12.54L-11.07 20.63L-8.19 31.70L1.99 34.67ZM13.71 7.43L10.83 -3.65L0.64 -6.62L-6.65 1.47L-3.77 12.54L6.41 15.52ZM22.34 40.63L19.47 29.56L9.29 26.58L1.99 34.67L4.87 45.74L15.04 48.71ZM4.87 45.74L1.99 34.67L-8.19 31.70L-15.48 39.79L-12.60 50.85L-2.43 53.82ZM26.77 21.47L23.89 10.40L13.71 7.43L6.41 15.52L9.29 26.58L19.47 29.56ZM48.69 -2.80L45.81 -13.88L35.62 -16.86L28.32 -8.76L31.19 2.31L41.38 5.29ZM31.19 2.31L28.32 -8.76L18.13 -11.74L10.83 -3.65L13.71 7.43L23.89 10.40Z"/></svg>
