<svg xmlns="http://www.w3.org/2000/svg" width="256" height="256" viewBox="0 0 256 256"><path data-band="1" fill="#fde68a" fill-opacity="0.35" d="M232.89 -0.54L232.25 -3.37L229.65 -4.22L227.69 -2.24L228.33 0.58L230.93 1.44ZM228.33 0.58L227.69 -2.24L225.09 -3.09L223.14 -1.12L223.78 1.71L226.37 2.56ZM220.54 -1.97L219.90 -4.80L217.30 -5.65L215.34 -3.67L215.99 -0.84L218.58 0.01ZM215.99 -0.84L215.34 -3.67L212.75 -4.52L210.79 -2.54L211.43 0.28L214.03 1.13ZM247.16 9.38L246.52 6.56L243.92 5.70L241.96 7.67L242.60 10.50L245.20 11.36ZM242.60 10.50L241.96 7.67L239.36 6.82L237.40 8.79L238.04 11.62L240.64 12.47ZM248.48 4.58L247.84 1.76L245.24 0.90L243.28 2.87L243.92 5.70L246.52 6.56ZM243.92 5.70L243.28 2.87L240.68 2.02L238.72 3.99L239.36 6.82L241.96 7.67ZM250.40 13.07L249.76 10.24L247.16 9.38L245.20 11.36L245.84 14.18L248.44 15.04ZM245.84 14.18L245.20 11.36L242.60 10.50L240.64 12.47L241.28 15.30L243.88 16.15ZM251.72 8.27L251.08 5.44L248.48 4.58L246.52 6.56L247.16 9.38L249.76 10.24ZM234.81 7.94L234.17 5.11L231.57 4.26L229.61 6.23L230.25 9.06L232.85 9.91ZM230.25 9.06L229.61 6.23L227.02 5.38L225.06 7.36L225.70 10.18L228.30 11.03ZM236.13 3.14L235.49 0.31L232.89 -0.54L230.93 1.44L231.57 4.26L234.17 5.11ZM231.57 4.26L230.93 1.44L228.33 0.58L226.37 2.56L227.02 5.38L229.61 6.23ZM238.04 11.62L237.40 8.79L234.81 7.94L232.85 9.91L233.49 12.74L236.09 13.59ZM233.49 12.74L232.85 9.91L230.25 9.06L228.30 11.03L228.94 13.86L231.53 14.71ZM239.36 6.82L238.72 3.99L236.13 3.14L234.17 5.11L234.81 7.94L237.40 8.79ZM254.37 -1.33L253.73 -4.16L251.13 -5.02L249.17 -3.05L249.81 -0.22L252.41 0.64ZM249.81 -0.22L249.17 -3.05L246.57 -3.90L244.61 -1.93L245.24 0.90L247.84 1.76ZM257.61 2.35L256.97 -0.48L254.37 -1.33L252.41 0.64L253.04 3.47L255.64 4.32ZM253.04 3.47L252.41 0.64L249.81 -0.22L247.84 1.76L248.48 4.58L251.08 5.44ZM237.45 -1.66L236.81 -4.49L234.21 -5.34L232.25 -3.37L232.89 -0.54L235.49 0.31ZM245.24 0.90L244.61 -1.93L242.01 -2.78L240.04 -0.81L240.68 2.02L243.28 2.87ZM240.68 2.02L240.04 -0.81L237.45 -1.66L235.49 0.31L236.13 3.14L238.72 3.99ZM252.31 21.55L251.67 18.72L249.07 17.86L247.11 19.83L247.75 22.66L250.35 23.51ZM247.75 22.66L247.11 19.83L244.52 18.98L242.56 20.95L243.20 23.77L245.79 24.63ZM253.63 16.75L252.99 13.92L250.40 13.07L248.44 15.04L249.07 17.86L251.67 18.72ZM249.07 17.86L248.44 15.04L245.84 14.18L243.88 16.15L244.52 18.98L247.11 19.83ZM255.54 25.23L254.91 22.40L252.31 21.55L250.35 23.51L250.98 26.34L253.58 27.20ZM250.98 26.34L250.35 23.51L247.75 22.66L245.79 24.63L246.43 27.45L249.03 28.31ZM256.87 20.43L256.23 17.61L253.63 16.75L251.67 18.72L252.31 21.55L254.91 22.40ZM239.96 20.09L239.32 17.27L236.73 16.42L234.77 18.39L235.41 21.21L238.00 22.06ZM235.41 21.21L234.77 18.39L232.17 17.53L230.22 19.50L230.86 22.33L233.45 23.18ZM241.28 15.30L240.64 12.47L238.04 11.62L236.09 13.59L236.73 16.42L239.32 17.27ZM236.73 16.42L236.09 13.59L233.49 12.74L231.53 14.71L232.17 17.53L234.77 18.39ZM243.20 23.77L242.56 20.95L239.96 20.09L238.00 22.06L238.64 24.89L241.24 25.74ZM238.64 24.89L238.00 22.06L235.41 21.21L233.45 23.18L234.09 26.00L236.69 26.86ZM244.52 18.98L243.88 16.15L241.28 15.30L239.32 17.27L239.96 20.09L242.56 20.95ZM259.52 10.84L258.88 8.01L256.28 7.15L254.32 9.12L254.96 11.95L257.56 12.81ZM254.96 11.95L254.32 9.12L251.72 8.27L249.76 10.24L250.40 13.07L252.99 13.92ZM260.85 6.04L260.21 3.21L257.61 2.35L255.64 4.32L256.28 7.15L258.88 8.01ZM256.28 7.15L255.64 4.32L253.04 3.47L251.08 5.44L251.72 8.27L254.32 9.12ZM258.19 15.64L257.56 12.81L254.96 11.95L252.99 13.92L253.63 16.75L256.23 17.61ZM197.79 3.66L197.15 0.84L194.55 0.00L192.61 1.97L193.25 4.79L195.84 5.64ZM193.25 4.79L192.61 1.97L190.01 1.13L188.06 3.10L188.71 5.92L191.30 6.77ZM201.03 7.33L200.39 4.51L197.79 3.66L195.84 5.64L196.49 8.46L199.08 9.31ZM196.49 8.46L195.84 5.64L193.25 4.79L191.30 6.77L191.95 9.59L194.54 10.43ZM202.34 2.54L201.70 -0.29L199.10 -1.13L197.15 0.84L197.79 3.66L200.39 4.51ZM156.31 0.61L155.66 -2.21L153.07 -3.05L151.13 -1.07L151.78 1.75L154.37 2.59ZM159.55 4.27L158.90 1.45L156.31 0.61L154.37 2.59L155.02 5.40L157.61 6.24ZM151.78 1.75L151.13 -1.07L148.54 -1.91L146.61 0.07L147.26 2.89L149.85 3.73ZM147.26 2.89L146.61 0.07L144.02 -0.77L142.08 1.21L142.73 4.03L145.32 4.87ZM166.03 11.58L165.38 8.77L162.79 7.92L160.85 9.90L161.50 12.72L164.09 13.56ZM161.50 12.72L160.85 9.90L158.26 9.06L156.32 11.04L156.97 13.85L159.56 14.69ZM162.79 7.92L162.14 5.11L159.55 4.27L157.61 6.24L158.26 9.06L160.85 9.90ZM169.27 15.24L168.62 12.42L166.03 11.58L164.09 13.56L164.74 16.37L167.33 17.22ZM164.74 16.37L164.09 13.56L161.50 12.72L159.56 14.69L160.21 17.51L162.80 18.35ZM170.56 10.45L169.92 7.63L167.33 6.79L165.38 8.77L166.03 11.58L168.62 12.42ZM153.74 10.20L153.09 7.38L150.50 6.54L148.56 8.52L149.21 11.33L151.80 12.17ZM149.21 11.33L148.56 8.52L145.97 7.68L144.03 9.66L144.68 12.47L147.27 13.31ZM155.02 5.40L154.37 2.59L151.78 1.75L149.85 3.73L150.50 6.54L153.09 7.38ZM150.50 6.54L149.85 3.73L147.26 2.89L145.32 4.87L145.97 7.68L148.56 8.52ZM156.97 13.85L156.32 11.04L153.74 10.20L151.80 12.17L152.45 14.99L155.03 15.83ZM152.45 14.99L151.80 12.17L149.21 11.33L147.27 13.31L147.92 16.12L150.51 16.96ZM158.26 9.06L157.61 6.24L155.02 5.40L153.09 7.38L153.74 10.20L156.32 11.04ZM257.45 33.70L256.81 30.88L254.22 30.02L252.26 31.99L252.89 34.81L255.49 35.67ZM252.89 34.81L252.26 31.99L249.66 31.13L247.70 33.10L248.34 35.92L250.94 36.78ZM258.77 28.91L258.14 26.09L255.54 25.23L253.58 27.20L254.22 30.02L256.81 30.88ZM254.22 30.02L253.58 27.20L250.98 26.34L249.03 28.31L249.66 31.13L252.26 31.99ZM260.68 37.39L260.05 34.56L257.45 33.70L255.49 35.67L256.13 38.49L258.72 39.35ZM256.13 38.49L255.49 35.67L252.89 34.81L250.94 36.78L251.57 39.60L254.17 40.46ZM260.10 24.12L259.46 21.29L256.87 20.43L254.91 22.40L255.54 25.23L258.14 26.09ZM259.36 42.17L258.72 39.35L256.13 38.49L254.17 40.46L254.80 43.28L257.40 44.14ZM206.14 50.74L205.50 47.92L202.91 47.07L200.96 49.04L201.60 51.85L204.19 52.70ZM201.60 51.85L200.96 49.04L198.37 48.19L196.43 50.16L197.07 52.97L199.66 53.82ZM207.44 45.95L206.80 43.14L204.21 42.29L202.26 44.25L202.91 47.07L205.50 47.92ZM202.91 47.07L202.26 44.25L199.68 43.41L197.73 45.37L198.37 48.19L200.96 49.04ZM209.37 54.40L208.73 51.58L206.14 50.74L204.19 52.70L204.83 55.52L207.42 56.37ZM204.83 55.52L204.19 52.70L201.60 51.85L199.66 53.82L200.30 56.63L202.89 57.48ZM210.67 49.62L210.03 46.80L207.44 45.95L205.50 47.92L206.14 50.74L208.73 51.58ZM193.84 49.31L193.20 46.49L190.61 45.65L188.67 47.62L189.31 50.43L191.90 51.28ZM189.31 50.43L188.67 47.62L186.08 46.77L184.14 48.74L184.78 51.55L187.37 52.40ZM195.14 44.53L194.50 41.71L191.91 40.86L189.97 42.83L190.61 45.65L193.20 46.49ZM190.61 45.65L189.97 42.83L187.38 41.99L185.44 43.96L186.08 46.77L188.67 47.62ZM197.07 52.97L196.43 50.16L193.84 49.31L191.90 51.28L192.54 54.09L195.13 54.94ZM192.54 54.09L191.90 51.28L189.31 50.43L187.37 52.40L188.01 55.21L190.60 56.06ZM198.37 48.19L197.73 45.37L195.14 44.53L193.20 46.49L193.84 49.31L196.43 50.16ZM213.29 40.05L212.65 37.23L210.05 36.38L208.11 38.35L208.75 41.17L211.34 42.02ZM208.75 41.17L208.11 38.35L205.52 37.50L203.57 39.47L204.21 42.29L206.80 43.14ZM214.59 35.26L213.95 32.44L211.36 31.59L209.41 33.56L210.05 36.38L212.65 37.23ZM210.05 36.38L209.41 33.56L206.82 32.71L204.87 34.68L205.52 37.50L208.11 38.35ZM216.52 43.72L215.88 40.90L213.29 40.05L211.34 42.02L211.98 44.84L214.57 45.69ZM211.98 44.84L211.34 42.02L208.75 41.17L206.80 43.14L207.44 45.95L210.03 46.80ZM217.83 38.93L217.19 36.11L214.59 35.26L212.65 37.23L213.29 40.05L215.88 40.90ZM200.98 38.62L200.34 35.80L197.75 34.96L195.80 36.93L196.44 39.74L199.03 40.59ZM196.44 39.74L195.80 36.93L193.21 36.08L191.27 38.05L191.91 40.86L194.50 41.71ZM202.28 33.83L201.64 31.02L199.05 30.17L197.10 32.14L197.75 34.96L200.34 35.80ZM197.75 34.96L197.10 32.14L194.51 31.29L192.57 33.26L193.21 36.08L195.80 36.93ZM204.21 42.29L203.57 39.47L200.98 38.62L199.03 40.59L199.68 43.41L202.26 44.25ZM199.68 43.41L199.03 40.59L196.44 39.74L194.50 41.71L195.14 44.53L197.73 45.37ZM205.52 37.50L204.87 34.68L202.28 33.83L200.34 35.80L200.98 38.62L203.57 39.47ZM206.76 63.96L206.12 61.15L203.53 60.30L201.59 62.26L202.23 65.07L204.81 65.92ZM212.60 58.07L211.95 55.25L209.37 54.40L207.42 56.37L208.06 59.18L210.65 60.03ZM208.06 59.18L207.42 56.37L204.83 55.52L202.89 57.48L203.53 60.30L206.12 61.15ZM199.00 61.41L198.36 58.60L195.77 57.75L193.83 59.72L194.47 62.53L197.06 63.38ZM194.47 62.53L193.83 59.72L191.24 58.87L189.30 60.83L189.95 63.65L192.53 64.49ZM200.30 56.63L199.66 53.82L197.07 52.97L195.13 54.94L195.77 57.75L198.36 58.60ZM195.77 57.75L195.13 54.94L192.54 54.09L190.60 56.06L191.24 58.87L193.83 59.72ZM202.23 65.07L201.59 62.26L199.00 61.41L197.06 63.38L197.70 66.19L200.28 67.04ZM197.70 66.19L197.06 63.38L194.47 62.53L192.53 64.49L193.17 67.31L195.76 68.15ZM203.53 60.30L202.89 57.48L200.30 56.63L198.36 58.60L199.00 61.41L201.59 62.26ZM218.44 52.17L217.80 49.35L215.21 48.50L213.26 50.47L213.90 53.29L216.49 54.14ZM213.90 53.29L213.26 50.47L210.67 49.62L208.73 51.58L209.37 54.40L211.95 55.25ZM219.75 47.39L219.11 44.57L216.52 43.72L214.57 45.69L215.21 48.50L217.80 49.35ZM215.21 48.50L214.57 45.69L211.98 44.84L210.03 46.80L210.67 49.62L213.26 50.47ZM221.67 55.84L221.03 53.02L218.44 52.17L216.49 54.14L217.13 56.95L219.72 57.80ZM217.13 56.95L216.49 54.14L213.90 53.29L211.95 55.25L212.60 58.07L215.18 58.92ZM222.98 51.06L222.34 48.24L219.75 47.39L217.80 49.35L218.44 52.17L221.03 53.02ZM174.44 58.57L173.80 55.76L171.21 54.92L169.28 56.89L169.92 59.70L172.50 60.54ZM169.92 59.70L169.28 56.89L166.69 56.04L164.76 58.01L165.40 60.82L167.99 61.66ZM175.74 53.80L175.09 50.98L172.50 50.14L170.57 52.11L171.21 54.92L173.80 55.76ZM171.21 54.92L170.57 52.11L167.98 51.26L166.05 53.23L166.69 56.04L169.28 56.89ZM177.67 62.23L177.03 59.42L174.44 58.57L172.50 60.54L173.15 63.35L175.73 64.19ZM173.15 63.35L172.50 60.54L169.92 59.70L167.99 61.66L168.63 64.47L171.21 65.31ZM178.96 57.45L178.32 54.64L175.74 53.80L173.80 55.76L174.44 58.57L177.03 59.42ZM162.17 57.17L161.53 54.36L158.94 53.52L157.01 55.48L157.66 58.29L160.24 59.13ZM157.66 58.29L157.01 55.48L154.43 54.64L152.49 56.61L153.14 59.42L155.72 60.26ZM163.46 52.39L162.82 49.58L160.23 48.74L158.30 50.71L158.94 53.52L161.53 54.36ZM158.94 53.52L158.30 50.71L155.71 49.87L153.78 51.83L154.43 54.64L157.01 55.48ZM165.40 60.82L164.76 58.01L162.17 57.17L160.24 59.13L160.89 61.94L163.47 62.79ZM160.89 61.94L160.24 59.13L157.66 58.29L155.72 60.26L156.37 63.07L158.95 63.91ZM166.69 56.04L166.05 53.23L163.46 52.39L161.53 54.36L162.17 57.17L164.76 58.01ZM181.55 47.89L180.91 45.08L178.32 44.23L176.38 46.20L177.03 49.02L179.61 49.86ZM177.03 49.02L176.38 46.20L173.80 45.36L171.86 47.33L172.50 50.14L175.09 50.98ZM182.85 43.11L182.21 40.30L179.62 39.45L177.68 41.42L178.32 44.23L180.91 45.08ZM178.32 44.23L177.68 41.42L175.09 40.58L173.15 42.55L173.80 45.36L176.38 46.20ZM184.78 51.55L184.14 48.74L181.55 47.89L179.61 49.86L180.26 52.67L182.84 53.52ZM180.26 52.67L179.61 49.86L177.03 49.02L175.09 50.98L175.74 53.80L178.32 54.64ZM186.08 46.77L185.44 43.96L182.85 43.11L180.91 45.08L181.55 47.89L184.14 48.74ZM169.27 46.48L168.63 43.67L166.04 42.83L164.10 44.80L164.75 47.61L167.34 48.45ZM164.75 47.61L164.10 44.80L161.52 43.96L159.58 45.93L160.23 48.74L162.82 49.58ZM170.57 41.70L169.92 38.89L167.33 38.05L165.40 40.02L166.04 42.83L168.63 43.67ZM166.04 42.83L165.40 40.02L162.81 39.18L160.87 41.15L161.52 43.96L164.10 44.80ZM172.50 50.14L171.86 47.33L169.27 46.48L167.34 48.45L167.98 51.26L170.57 52.11ZM167.98 51.26L167.34 48.45L164.75 47.61L162.82 49.58L163.46 52.39L166.05 53.23ZM173.80 45.36L173.15 42.55L170.57 41.70L168.63 43.67L169.27 46.48L171.86 47.33ZM180.90 65.88L180.25 63.07L177.67 62.23L175.73 64.19L176.38 67.00L178.96 67.85ZM168.63 64.47L167.99 61.66L165.40 60.82L163.47 62.79L164.11 65.59L166.70 66.44ZM164.11 65.59L163.47 62.79L160.89 61.94L158.95 63.91L159.60 66.72L162.18 67.56ZM186.72 59.99L186.07 57.18L183.49 56.33L181.55 58.30L182.19 61.11L184.78 61.95ZM182.19 61.11L181.55 58.30L178.96 57.45L177.03 59.42L177.67 62.23L180.25 63.07ZM188.01 55.21L187.37 52.40L184.78 51.55L182.84 53.52L183.49 56.33L186.07 57.18ZM183.49 56.33L182.84 53.52L180.26 52.67L178.32 54.64L178.96 57.45L181.55 58.30ZM189.95 63.65L189.30 60.83L186.72 59.99L184.78 61.95L185.42 64.76L188.00 65.61ZM185.42 64.76L184.78 61.95L182.19 61.11L180.25 63.07L180.90 65.88L183.48 66.73ZM191.24 58.87L190.60 56.06L188.01 55.21L186.07 57.18L186.72 59.99L189.30 60.83ZM215.29 17.22L214.65 14.40L212.05 13.55L210.10 15.52L210.74 18.34L213.34 19.19ZM210.74 18.34L210.10 15.52L207.51 14.67L205.56 16.64L206.20 19.47L208.79 20.31ZM216.60 12.42L215.96 9.60L213.36 8.75L211.41 10.73L212.05 13.55L214.65 14.40ZM212.05 13.55L211.41 10.73L208.82 9.88L206.86 11.85L207.51 14.67L210.10 15.52ZM218.52 20.89L217.88 18.07L215.29 17.22L213.34 19.19L213.98 22.01L216.57 22.86ZM213.98 22.01L213.34 19.19L210.74 18.34L208.79 20.31L209.44 23.13L212.03 23.98ZM219.84 16.10L219.20 13.28L216.60 12.42L214.65 14.40L215.29 17.22L217.88 18.07ZM202.96 15.80L202.32 12.98L199.73 12.13L197.78 14.10L198.42 16.92L201.01 17.77ZM198.42 16.92L197.78 14.10L195.19 13.25L193.24 15.23L193.88 18.05L196.47 18.89ZM204.27 11.00L203.63 8.18L201.03 7.33L199.08 9.31L199.73 12.13L202.32 12.98ZM199.73 12.13L199.08 9.31L196.49 8.46L194.54 10.43L195.19 13.25L197.78 14.10ZM206.20 19.47L205.56 16.64L202.96 15.80L201.01 17.77L201.66 20.59L204.25 21.44ZM201.66 20.59L201.01 17.77L198.42 16.92L196.47 18.89L197.12 21.71L199.71 22.56ZM207.51 14.67L206.86 11.85L204.27 11.00L202.32 12.98L202.96 15.80L205.56 16.64ZM222.46 6.51L221.82 3.68L219.22 2.83L217.27 4.80L217.91 7.63L220.51 8.48ZM217.91 7.63L217.27 4.80L214.67 3.95L212.72 5.93L213.36 8.75L215.96 9.60ZM223.78 1.71L223.14 -1.12L220.54 -1.97L218.58 0.01L219.22 2.83L221.82 3.68ZM219.22 2.83L218.58 0.01L215.99 -0.84L214.03 1.13L214.67 3.95L217.27 4.80ZM225.70 10.18L225.06 7.36L222.46 6.51L220.51 8.48L221.15 11.30L223.74 12.15ZM221.15 11.30L220.51 8.48L217.91 7.63L215.96 9.60L216.60 12.42L219.20 13.28ZM227.02 5.38L226.37 2.56L223.78 1.71L221.82 3.68L222.46 6.51L225.06 7.36ZM210.12 5.08L209.48 2.26L206.89 1.41L204.93 3.38L205.58 6.21L208.17 7.05ZM205.58 6.21L204.93 3.38L202.34 2.54L200.39 4.51L201.03 7.33L203.63 8.18ZM211.43 0.28L210.79 -2.54L208.19 -3.39L206.24 -1.42L206.89 1.41L209.48 2.26ZM206.89 1.41L206.24 -1.42L203.65 -2.26L201.70 -0.29L202.34 2.54L204.93 3.38ZM213.36 8.75L212.72 5.93L210.12 5.08L208.17 7.05L208.82 9.88L211.41 10.73ZM208.82 9.88L208.17 7.05L205.58 6.21L203.63 8.18L204.27 11.00L206.86 11.85ZM214.67 3.95L214.03 1.13L211.43 0.28L209.48 2.26L210.12 5.08L212.72 5.93ZM220.45 29.36L219.81 26.53L217.21 25.68L215.26 27.65L215.90 30.47L218.50 31.32ZM215.90 30.47L215.26 27.65L212.67 26.80L210.72 28.77L211.36 31.59L213.95 32.44ZM221.76 24.56L221.12 21.74L218.52 20.89L216.57 22.86L217.21 25.68L219.81 26.53ZM217.21 25.68L216.57 22.86L213.98 22.01L212.03 23.98L212.67 26.80L215.26 27.65ZM223.68 33.03L223.04 30.21L220.45 29.36L218.50 31.32L219.14 34.14L221.73 35.00ZM219.14 34.14L218.50 31.32L215.90 30.47L213.95 32.44L214.59 35.26L217.19 36.11ZM224.99 28.24L224.35 25.42L221.76 24.56L219.81 26.53L220.45 29.36L223.04 30.21ZM208.13 27.92L207.49 25.11L204.89 24.26L202.95 26.23L203.59 29.05L206.18 29.90ZM203.59 29.05L202.95 26.23L200.35 25.38L198.41 27.35L199.05 30.17L201.64 31.02ZM209.44 23.13L208.79 20.31L206.20 19.47L204.25 21.44L204.89 24.26L207.49 25.11ZM204.89 24.26L204.25 21.44L201.66 20.59L199.71 22.56L200.35 25.38L202.95 26.23ZM211.36 31.59L210.72 28.77L208.13 27.92L206.18 29.90L206.82 32.71L209.41 33.56ZM206.82 32.71L206.18 29.90L203.59 29.05L201.64 31.02L202.28 33.83L204.87 34.68ZM212.67 26.80L212.03 23.98L209.44 23.13L207.49 25.11L208.13 27.92L210.72 28.77ZM227.62 18.65L226.98 15.83L224.39 14.98L222.43 16.95L223.07 19.77L225.67 20.62ZM223.07 19.77L222.43 16.95L219.84 16.10L217.88 18.07L218.52 20.89L221.12 21.74ZM228.94 13.86L228.30 11.03L225.70 10.18L223.74 12.15L224.39 14.98L226.98 15.83ZM224.39 14.98L223.74 12.15L221.15 11.30L219.20 13.28L219.84 16.10L222.43 16.95ZM230.86 22.33L230.22 19.50L227.62 18.65L225.67 20.62L226.31 23.45L228.90 24.30ZM226.31 23.45L225.67 20.62L223.07 19.77L221.12 21.74L221.76 24.56L224.35 25.42ZM232.17 17.53L231.53 14.71L228.94 13.86L226.98 15.83L227.62 18.65L230.22 19.50ZM183.51 25.09L182.86 22.27L180.27 21.43L178.33 23.40L178.98 26.22L181.57 27.06ZM178.98 26.22L178.33 23.40L175.74 22.56L173.80 24.53L174.45 27.35L177.04 28.19ZM184.81 20.30L184.16 17.48L181.57 16.64L179.63 18.61L180.27 21.43L182.86 22.27ZM180.27 21.43L179.63 18.61L177.04 17.77L175.10 19.74L175.74 22.56L178.33 23.40ZM186.74 28.75L186.10 25.94L183.51 25.09L181.57 27.06L182.21 29.88L184.80 30.73ZM182.21 29.88L181.57 27.06L178.98 26.22L177.04 28.19L177.68 31.01L180.27 31.85ZM188.04 23.97L187.40 21.15L184.81 20.30L182.86 22.27L183.51 25.09L186.10 25.94ZM171.21 23.69L170.56 20.87L167.98 20.03L166.04 22.01L166.68 24.82L169.27 25.66ZM166.68 24.82L166.04 22.01L163.45 21.16L161.51 23.14L162.16 25.95L164.74 26.79ZM172.51 18.90L171.86 16.08L169.27 15.24L167.33 17.22L167.98 20.03L170.56 20.87ZM167.98 20.03L167.33 17.22L164.74 16.37L162.80 18.35L163.45 21.16L166.04 22.01ZM174.45 27.35L173.80 24.53L171.21 23.69L169.27 25.66L169.92 28.48L172.51 29.32ZM169.92 28.48L169.27 25.66L166.68 24.82L164.74 26.79L165.39 29.61L167.98 30.45ZM175.74 22.56L175.10 19.74L172.51 18.90L170.56 20.87L171.21 23.69L173.80 24.53ZM190.65 14.38L190.00 11.56L187.41 10.72L185.46 12.69L186.11 15.51L188.70 16.36ZM186.11 15.51L185.46 12.69L182.87 11.85L180.93 13.82L181.57 16.64L184.16 17.48ZM191.95 9.59L191.30 6.77L188.71 5.92L186.76 7.90L187.41 10.72L190.00 11.56ZM187.41 10.72L186.76 7.90L184.17 7.05L182.22 9.03L182.87 11.85L185.46 12.69ZM193.88 18.05L193.24 15.23L190.65 14.38L188.70 16.36L189.34 19.17L191.94 20.02ZM189.34 19.17L188.70 16.36L186.11 15.51L184.16 17.48L184.81 20.30L187.40 21.15ZM195.19 13.25L194.54 10.43L191.95 9.59L190.00 11.56L190.65 14.38L193.24 15.23ZM178.34 12.98L177.69 10.16L175.10 9.32L173.15 11.29L173.80 14.11L176.39 14.95ZM173.80 14.11L173.15 11.29L170.56 10.45L168.62 12.42L169.27 15.24L171.86 16.08ZM179.63 8.18L178.99 5.37L176.39 4.52L174.45 6.50L175.10 9.32L177.69 10.16ZM175.10 9.32L174.45 6.50L171.86 5.66L169.92 7.63L170.56 10.45L173.15 11.29ZM181.57 16.64L180.93 13.82L178.34 12.98L176.39 14.95L177.04 17.77L179.63 18.61ZM177.04 17.77L176.39 14.95L173.80 14.11L171.86 16.08L172.51 18.90L175.10 19.74ZM182.87 11.85L182.22 9.03L179.63 8.18L177.69 10.16L178.34 12.98L180.93 13.82ZM188.68 37.20L188.03 34.39L185.45 33.54L183.50 35.51L184.15 38.33L186.74 39.17ZM184.15 38.33L183.50 35.51L180.92 34.67L178.97 36.64L179.62 39.45L182.21 40.30ZM189.98 32.42L189.33 29.60L186.74 28.75L184.80 30.73L185.45 33.54L188.03 34.39ZM185.45 33.54L184.80 30.73L182.21 29.88L180.27 31.85L180.92 34.67L183.50 35.51ZM191.91 40.86L191.27 38.05L188.68 37.20L186.74 39.17L187.38 41.99L189.97 42.83ZM187.38 41.99L186.74 39.17L184.15 38.33L182.21 40.30L182.85 43.11L185.44 43.96ZM193.21 36.08L192.57 33.26L189.98 32.42L188.03 34.39L188.68 37.20L191.27 38.05ZM176.39 35.79L175.74 32.98L173.15 32.13L171.21 34.11L171.86 36.92L174.45 37.76ZM171.86 36.92L171.21 34.11L168.63 33.26L166.69 35.23L167.33 38.05L169.92 38.89ZM177.68 31.01L177.04 28.19L174.45 27.35L172.51 29.32L173.15 32.13L175.74 32.98ZM173.15 32.13L172.51 29.32L169.92 28.48L167.98 30.45L168.63 33.26L171.21 34.11ZM179.62 39.45L178.97 36.64L176.39 35.79L174.45 37.76L175.09 40.58L177.68 41.42ZM175.09 40.58L174.45 37.76L171.86 36.92L169.92 38.89L170.57 41.70L173.15 42.55ZM180.92 34.67L180.27 31.85L177.68 31.01L175.74 32.98L176.39 35.79L178.97 36.64ZM195.82 26.50L195.17 23.69L192.58 22.84L190.63 24.81L191.28 27.63L193.87 28.47ZM191.28 27.63L190.63 24.81L188.04 23.97L186.10 25.94L186.74 28.75L189.33 29.60ZM197.12 21.71L196.47 18.89L193.88 18.05L191.94 20.02L192.58 22.84L195.17 23.69ZM192.58 22.84L191.94 20.02L189.34 19.17L187.40 21.15L188.04 23.97L190.63 24.81ZM199.05 30.17L198.41 27.35L195.82 26.50L193.87 28.47L194.51 31.29L197.10 32.14ZM194.51 31.29L193.87 28.47L191.28 27.63L189.33 29.60L189.98 32.42L192.57 33.26ZM200.35 25.38L199.71 22.56L197.12 21.71L195.17 23.69L195.82 26.50L198.41 27.35ZM237.92 42.93L237.28 40.11L234.69 39.26L232.74 41.23L233.38 44.05L235.97 44.90ZM233.38 44.05L232.74 41.23L230.15 40.37L228.19 42.34L228.83 45.16L231.42 46.01ZM239.24 38.15L238.60 35.32L236.01 34.47L234.05 36.44L234.69 39.26L237.28 40.11ZM234.69 39.26L234.05 36.44L231.46 35.59L229.51 37.55L230.15 40.37L232.74 41.23ZM241.15 46.61L240.52 43.79L237.92 42.93L235.97 44.90L236.61 47.72L239.20 48.58ZM236.61 47.72L235.97 44.90L233.38 44.05L231.42 46.01L232.06 48.83L234.65 49.69ZM242.47 41.82L241.83 39.00L239.24 38.15L237.28 40.11L237.92 42.93L240.52 43.79ZM225.60 41.49L224.96 38.67L222.37 37.82L220.42 39.78L221.06 42.60L223.65 43.45ZM221.06 42.60L220.42 39.78L217.83 38.93L215.88 40.90L216.52 43.72L219.11 44.57ZM226.91 36.70L226.27 33.88L223.68 33.03L221.73 35.00L222.37 37.82L224.96 38.67ZM222.37 37.82L221.73 35.00L219.14 34.14L217.19 36.11L217.83 38.93L220.42 39.78ZM228.83 45.16L228.19 42.34L225.60 41.49L223.65 43.45L224.29 46.27L226.88 47.13ZM224.29 46.27L223.65 43.45L221.06 42.60L219.11 44.57L219.75 47.39L222.34 48.24ZM230.15 40.37L229.51 37.55L226.91 36.70L224.96 38.67L225.60 41.49L228.19 42.34ZM245.11 32.24L244.47 29.42L241.88 28.57L239.92 30.53L240.56 33.36L243.15 34.21ZM240.56 33.36L239.92 30.53L237.32 29.68L235.37 31.65L236.01 34.47L238.60 35.32ZM246.43 27.45L245.79 24.63L243.20 23.77L241.24 25.74L241.88 28.57L244.47 29.42ZM241.88 28.57L241.24 25.74L238.64 24.89L236.69 26.86L237.32 29.68L239.92 30.53ZM248.34 35.92L247.70 33.10L245.11 32.24L243.15 34.21L243.79 37.03L246.38 37.89ZM243.79 37.03L243.15 34.21L240.56 33.36L238.60 35.32L239.24 38.15L241.83 39.00ZM249.66 31.13L249.03 28.31L246.43 27.45L244.47 29.42L245.11 32.24L247.70 33.10ZM232.78 30.80L232.14 27.97L229.54 27.12L227.59 29.09L228.23 31.91L230.82 32.76ZM228.23 31.91L227.59 29.09L224.99 28.24L223.04 30.21L223.68 33.03L226.27 33.88ZM234.09 26.00L233.45 23.18L230.86 22.33L228.90 24.30L229.54 27.12L232.14 27.97ZM229.54 27.12L228.90 24.30L226.31 23.45L224.35 25.42L224.99 28.24L227.59 29.09ZM236.01 34.47L235.37 31.65L232.78 30.80L230.82 32.76L231.46 35.59L234.05 36.44ZM231.46 35.59L230.82 32.76L228.23 31.91L226.27 33.88L226.91 36.70L229.51 37.55ZM237.32 29.68L236.69 26.86L234.09 26.00L232.14 27.97L232.78 30.80L235.37 31.65ZM244.38 50.29L243.75 47.47L241.15 46.61L239.20 48.58L239.84 51.40L242.43 52.25ZM239.84 51.40L239.20 48.58L236.61 47.72L234.65 49.69L235.29 52.51L237.88 53.36ZM230.75 53.62L230.11 50.80L227.52 49.94L225.57 51.91L226.21 54.73L228.80 55.58ZM226.21 54.73L225.57 51.91L222.98 51.06L221.03 53.02L221.67 55.84L224.26 56.69ZM232.06 48.83L231.42 46.01L228.83 45.16L226.88 47.13L227.52 49.94L230.11 50.80ZM227.52 49.94L226.88 47.13L224.29 46.27L222.34 48.24L222.98 51.06L225.57 51.91ZM229.44 58.40L228.80 55.58L226.21 54.73L224.26 56.69L224.90 59.51L227.49 60.36ZM235.29 52.51L234.65 49.69L232.06 48.83L230.11 50.80L230.75 53.62L233.34 54.47ZM250.25 44.39L249.61 41.57L247.02 40.71L245.06 42.68L245.70 45.50L248.29 46.36ZM245.70 45.50L245.06 42.68L242.47 41.82L240.52 43.79L241.15 46.61L243.75 47.47ZM251.57 39.60L250.94 36.78L248.34 35.92L246.38 37.89L247.02 40.71L249.61 41.57ZM247.02 40.71L246.38 37.89L243.79 37.03L241.83 39.00L242.47 41.82L245.06 42.68ZM248.93 49.18L248.29 46.36L245.70 45.50L243.75 47.47L244.38 50.29L246.97 51.14ZM254.80 43.28L254.17 40.46L251.57 39.60L249.61 41.57L250.25 44.39L252.85 45.25ZM35.91 26.83L35.25 24.04L32.68 23.22L30.77 25.19L31.43 27.99L34.01 28.81ZM41.64 20.90L40.98 18.10L38.41 17.28L36.50 19.26L37.16 22.06L39.73 22.88ZM37.16 22.06L36.50 19.26L33.92 18.44L32.01 20.42L32.68 23.22L35.25 24.04ZM42.89 16.12L42.23 13.32L39.65 12.50L37.74 14.48L38.41 17.28L40.98 18.10ZM38.41 17.28L37.74 14.48L35.17 13.66L33.26 15.64L33.92 18.44L36.50 19.26ZM44.88 24.52L44.22 21.72L41.64 20.90L39.73 22.88L40.40 25.68L42.97 26.50ZM40.40 25.68L39.73 22.88L37.16 22.06L35.25 24.04L35.91 26.83L38.49 27.65ZM46.13 19.74L45.47 16.94L42.89 16.12L40.98 18.10L41.64 20.90L44.22 21.72ZM29.44 19.60L28.77 16.80L26.20 15.98L24.29 17.96L24.96 20.76L27.53 21.58ZM24.96 20.76L24.29 17.96L21.72 17.14L19.81 19.13L20.48 21.92L23.05 22.74ZM30.68 14.82L30.02 12.02L27.44 11.20L25.53 13.18L26.20 15.98L28.77 16.80ZM26.20 15.98L25.53 13.18L22.96 12.36L21.05 14.35L21.72 17.14L24.29 17.96ZM32.68 23.22L32.01 20.42L29.44 19.60L27.53 21.58L28.20 24.38L30.77 25.19ZM33.92 18.44L33.26 15.64L30.68 14.82L28.77 16.80L29.44 19.60L32.01 20.42ZM48.12 28.14L47.46 25.34L44.88 24.52L42.97 26.50L43.63 29.30L46.21 30.12ZM43.63 29.30L42.97 26.50L40.40 25.68L38.49 27.65L39.15 30.45L41.72 31.27ZM51.35 31.76L50.69 28.96L48.12 28.14L46.21 30.12L46.87 32.92L49.44 33.74ZM43.40 -1.86L42.73 -4.66L40.16 -5.48L38.24 -3.50L38.91 -0.69L41.49 0.12ZM38.91 -0.69L38.24 -3.50L35.67 -4.32L33.75 -2.33L34.42 0.47L37.00 1.29ZM46.64 1.77L45.98 -1.04L43.40 -1.86L41.49 0.12L42.15 2.93L44.73 3.75ZM42.15 2.93L41.49 0.12L38.91 -0.69L37.00 1.29L37.66 4.09L40.24 4.91ZM34.42 0.47L33.75 -2.33L31.18 -3.15L29.27 -1.17L29.93 1.63L32.51 2.45ZM29.93 1.63L29.27 -1.17L26.69 -1.99L24.78 0.00L25.45 2.80L28.02 3.62ZM48.63 10.18L47.97 7.37L45.39 6.55L43.48 8.53L44.14 11.33L46.72 12.16ZM44.14 11.33L43.48 8.53L40.90 7.71L38.99 9.69L39.65 12.50L42.23 13.32ZM49.88 5.39L49.22 2.59L46.64 1.77L44.73 3.75L45.39 6.55L47.97 7.37ZM45.39 6.55L44.73 3.75L42.15 2.93L40.24 4.91L40.90 7.71L43.48 8.53ZM51.87 13.80L51.21 11.00L48.63 10.18L46.72 12.16L47.38 14.96L49.96 15.78ZM47.38 14.96L46.72 12.16L44.14 11.33L42.23 13.32L42.89 16.12L45.47 16.94ZM53.12 9.02L52.46 6.21L49.88 5.39L47.97 7.37L48.63 10.18L51.21 11.00ZM36.41 8.87L35.75 6.07L33.17 5.25L31.26 7.24L31.93 10.04L34.50 10.86ZM31.93 10.04L31.26 7.24L28.69 6.42L26.78 8.40L27.44 11.20L30.02 12.02ZM37.66 4.09L37.00 1.29L34.42 0.47L32.51 2.45L33.17 5.25L35.75 6.07ZM33.17 5.25L32.51 2.45L29.93 1.63L28.02 3.62L28.69 6.42L31.26 7.24ZM39.65 12.50L38.99 9.69L36.41 8.87L34.50 10.86L35.17 13.66L37.74 14.48ZM35.17 13.66L34.50 10.86L31.93 10.04L30.02 12.02L30.68 14.82L33.26 15.64ZM40.90 7.71L40.24 4.91L37.66 4.09L35.75 6.07L36.41 8.87L38.99 9.69ZM55.63 -0.56L54.97 -3.36L52.39 -4.18L50.47 -2.20L51.13 0.60L53.71 1.43ZM51.13 0.60L50.47 -2.20L47.89 -3.02L45.98 -1.04L46.64 1.77L49.22 2.59ZM58.87 3.07L58.21 0.27L55.63 -0.56L53.71 1.43L54.37 4.23L56.95 5.05ZM54.37 4.23L53.71 1.43L51.13 0.60L49.22 2.59L49.88 5.39L52.46 6.21ZM60.13 -1.72L59.46 -4.52L56.88 -5.34L54.97 -3.36L55.63 -0.56L58.21 0.27ZM12.00 6.30L11.33 3.50L8.76 2.69L6.85 4.67L7.52 7.47L10.10 8.28ZM7.52 7.47L6.85 4.67L4.28 3.86L2.38 5.84L3.05 8.64L5.62 9.45ZM13.24 1.52L12.57 -1.28L10.00 -2.10L8.09 -0.11L8.76 2.69L11.33 3.50ZM8.76 2.69L8.09 -0.11L5.52 -0.93L3.61 1.06L4.28 3.86L6.85 4.67ZM15.24 9.91L14.57 7.12L12.00 6.30L10.10 8.28L10.76 11.08L13.34 11.90ZM10.76 11.08L10.10 8.28L7.52 7.47L5.62 9.45L6.29 12.25L8.86 13.06ZM16.48 5.13L15.81 2.33L13.24 1.52L11.33 3.50L12.00 6.30L14.57 7.12ZM1.04 0.25L0.37 -2.55L-2.20 -3.37L-4.11 -1.38L-3.44 1.42L-0.86 2.23ZM3.05 8.64L2.38 5.84L-0.19 5.03L-2.10 7.01L-1.43 9.81L1.14 10.62ZM4.28 3.86L3.61 1.06L1.04 0.25L-0.86 2.23L-0.19 5.03L2.38 5.84ZM22.20 -0.82L21.54 -3.62L18.96 -4.44L17.05 -2.45L17.72 0.35L20.30 1.17ZM17.72 0.35L17.05 -2.45L14.48 -3.27L12.57 -1.28L13.24 1.52L15.81 2.33ZM5.52 -0.93L4.85 -3.72L2.28 -4.54L0.37 -2.55L1.04 0.25L3.61 1.06ZM17.24 18.31L16.58 15.51L14.00 14.69L12.10 16.68L12.77 19.47L15.34 20.29ZM18.48 13.53L17.81 10.73L15.24 9.91L13.34 11.90L14.00 14.69L16.58 15.51ZM14.00 14.69L13.34 11.90L10.76 11.08L8.86 13.06L9.53 15.86L12.10 16.68ZM20.48 21.92L19.81 19.13L17.24 18.31L15.34 20.29L16.00 23.09L18.57 23.90ZM21.72 17.14L21.05 14.35L18.48 13.53L16.58 15.51L17.24 18.31L19.81 19.13ZM6.29 12.25L5.62 9.45L3.05 8.64L1.14 10.62L1.81 13.42L4.38 14.23ZM1.81 13.42L1.14 10.62L-1.43 9.81L-3.33 11.79L-2.66 14.59L-0.09 15.40ZM24.20 7.58L23.54 4.78L20.96 3.97L19.05 5.95L19.72 8.75L22.30 9.57ZM19.72 8.75L19.05 5.95L16.48 5.13L14.57 7.12L15.24 9.91L17.81 10.73ZM25.45 2.80L24.78 0.00L22.20 -0.82L20.30 1.17L20.96 3.97L23.54 4.78ZM20.96 3.97L20.30 1.17L17.72 0.35L15.81 2.33L16.48 5.13L19.05 5.95ZM27.44 11.20L26.78 8.40L24.20 7.58L22.30 9.57L22.96 12.36L25.53 13.18ZM22.96 12.36L22.30 9.57L19.72 8.75L17.81 10.73L18.48 13.53L21.05 14.35ZM28.69 6.42L28.02 3.62L25.45 2.80L23.54 4.78L24.20 7.58L26.78 8.40ZM66.08 23.52L65.42 20.72L62.84 19.90L60.92 21.87L61.58 24.68L64.16 25.50ZM61.58 24.68L60.92 21.87L58.35 21.05L56.43 23.03L57.09 25.83L59.67 26.65ZM67.33 18.74L66.67 15.94L64.09 15.11L62.18 17.09L62.84 19.90L65.42 20.72ZM62.84 19.90L62.18 17.09L59.60 16.27L57.69 18.25L58.35 21.05L60.92 21.87ZM69.31 27.15L68.65 24.35L66.08 23.52L64.16 25.50L64.82 28.30L67.40 29.13ZM64.82 28.30L64.16 25.50L61.58 24.68L59.67 26.65L60.33 29.45L62.90 30.28ZM70.57 22.37L69.91 19.57L67.33 18.74L65.42 20.72L66.08 23.52L68.65 24.35ZM53.86 22.21L53.19 19.40L50.62 18.58L48.71 20.56L49.37 23.36L51.94 24.18ZM49.37 23.36L48.71 20.56L46.13 19.74L44.22 21.72L44.88 24.52L47.46 25.34ZM55.11 17.42L54.45 14.62L51.87 13.80L49.96 15.78L50.62 18.58L53.19 19.40ZM50.62 18.58L49.96 15.78L47.38 14.96L45.47 16.94L46.13 19.74L48.71 20.56ZM57.09 25.83L56.43 23.03L53.86 22.21L51.94 24.18L52.60 26.98L55.18 27.81ZM52.60 26.98L51.94 24.18L49.37 23.36L47.46 25.34L48.12 28.14L50.69 28.96ZM58.35 21.05L57.69 18.25L55.11 17.42L53.19 19.40L53.86 22.21L56.43 23.03ZM73.09 12.80L72.43 10.00L69.85 9.17L67.93 11.15L68.59 13.96L71.17 14.78ZM68.59 13.96L67.93 11.15L65.35 10.33L63.43 12.31L64.09 15.11L66.67 15.94ZM74.35 8.02L73.69 5.21L71.11 4.39L69.19 6.37L69.85 9.17L72.43 10.00ZM69.85 9.17L69.19 6.37L66.61 5.54L64.69 7.52L65.35 10.33L67.93 11.15ZM76.33 16.44L75.67 13.63L73.09 12.80L71.17 14.78L71.83 17.59L74.41 18.41ZM71.83 17.59L71.17 14.78L68.59 13.96L66.67 15.94L67.33 18.74L69.91 19.57ZM77.59 11.65L76.93 8.84L74.35 8.02L72.43 10.00L73.09 12.80L75.67 13.63ZM60.86 11.49L60.19 8.68L57.62 7.86L55.70 9.84L56.36 12.64L58.94 13.47ZM56.36 12.64L55.70 9.84L53.12 9.02L51.21 11.00L51.87 13.80L54.45 14.62ZM62.11 6.70L61.45 3.90L58.87 3.07L56.95 5.05L57.62 7.86L60.19 8.68ZM57.62 7.86L56.95 5.05L54.37 4.23L52.46 6.21L53.12 9.02L55.70 9.84ZM64.09 15.11L63.43 12.31L60.86 11.49L58.94 13.47L59.60 16.27L62.18 17.09ZM59.60 16.27L58.94 13.47L56.36 12.64L54.45 14.62L55.11 17.42L57.69 18.25ZM65.35 10.33L64.69 7.52L62.11 6.70L60.19 8.68L60.86 11.49L63.43 12.31ZM71.29 35.56L70.63 32.75L68.06 31.93L66.14 33.90L66.80 36.71L69.38 37.53ZM66.80 36.71L66.14 33.90L63.57 33.08L61.65 35.06L62.31 37.86L64.89 38.68ZM72.55 30.78L71.89 27.98L69.31 27.15L67.40 29.13L68.06 31.93L70.63 32.75ZM68.06 31.93L67.40 29.13L64.82 28.30L62.90 30.28L63.57 33.08L66.14 33.90ZM75.78 34.41L75.13 31.61L72.55 30.78L70.63 32.75L71.29 35.56L73.87 36.38ZM59.08 34.23L58.42 31.43L55.84 30.61L53.93 32.58L54.59 35.38L57.16 36.21ZM54.59 35.38L53.93 32.58L51.35 31.76L49.44 33.74L50.10 36.54L52.68 37.36ZM60.33 29.45L59.67 26.65L57.09 25.83L55.18 27.81L55.84 30.61L58.42 31.43ZM55.84 30.61L55.18 27.81L52.60 26.98L50.69 28.96L51.35 31.76L53.93 32.58ZM63.57 33.08L62.90 30.28L60.33 29.45L58.42 31.43L59.08 34.23L61.65 35.06ZM78.30 24.85L77.64 22.04L75.07 21.22L73.15 23.20L73.81 26.00L76.38 26.83ZM73.81 26.00L73.15 23.20L70.57 22.37L68.65 24.35L69.31 27.15L71.89 27.98ZM79.56 20.07L78.91 17.26L76.33 16.44L74.41 18.41L75.07 21.22L77.64 22.04ZM75.07 21.22L74.41 18.41L71.83 17.59L69.91 19.57L70.57 22.37L73.15 23.20ZM81.54 28.48L80.88 25.68L78.30 24.85L76.38 26.83L77.04 29.63L79.62 30.46ZM77.04 29.63L76.38 26.83L73.81 26.00L71.89 27.98L72.55 30.78L75.13 31.61ZM82.80 23.70L82.14 20.89L79.56 20.07L77.64 22.04L78.30 24.85L80.88 25.68ZM110.41 -1.19L109.75 -4.01L107.17 -4.84L105.24 -2.86L105.89 -0.04L108.48 0.79ZM80.11 2.08L79.45 -0.73L76.87 -1.56L74.95 0.42L75.61 3.23L78.19 4.06ZM75.61 3.23L74.95 0.42L72.37 -0.40L70.45 1.58L71.11 4.39L73.69 5.21ZM76.87 -1.56L76.21 -4.37L73.63 -5.19L71.71 -3.21L72.37 -0.40L74.95 0.42ZM83.35 5.71L82.69 2.90L80.11 2.08L78.19 4.06L78.85 6.86L81.43 7.69ZM78.85 6.86L78.19 4.06L75.61 3.23L73.69 5.21L74.35 8.02L76.93 8.84ZM84.62 0.92L83.96 -1.89L81.37 -2.71L79.45 -0.73L80.11 2.08L82.69 2.90ZM67.87 0.76L67.21 -2.05L64.62 -2.87L62.71 -0.89L63.37 1.91L65.95 2.74ZM63.37 1.91L62.71 -0.89L60.13 -1.72L58.21 0.27L58.87 3.07L61.45 3.90ZM71.11 4.39L70.45 1.58L67.87 0.76L65.95 2.74L66.61 5.54L69.19 6.37ZM66.61 5.54L65.95 2.74L63.37 1.91L61.45 3.90L62.11 6.70L64.69 7.52ZM72.37 -0.40L71.71 -3.21L69.12 -4.03L67.21 -2.05L67.87 0.76L70.45 1.58ZM120.22 40.95L119.57 38.14L116.99 37.31L115.06 39.28L115.72 42.08L118.30 42.92ZM115.72 42.08L115.06 39.28L112.48 38.45L110.56 40.42L111.21 43.22L113.79 44.06ZM121.50 36.17L120.85 33.36L118.26 32.52L116.34 34.50L116.99 37.31L119.57 38.14ZM116.99 37.31L116.34 34.50L113.76 33.67L111.83 35.64L112.48 38.45L115.06 39.28ZM123.46 44.59L122.80 41.78L120.22 40.95L118.30 42.92L118.95 45.72L121.53 46.56ZM118.95 45.72L118.30 42.92L115.72 42.08L113.79 44.06L114.45 46.86L117.02 47.70ZM124.73 39.81L124.08 37.00L121.50 36.17L119.57 38.14L120.22 40.95L122.80 41.78ZM107.98 39.59L107.33 36.78L104.75 35.95L102.82 37.92L103.48 40.73L106.06 41.56ZM103.48 40.73L102.82 37.92L100.24 37.09L98.32 39.06L98.98 41.87L101.55 42.70ZM109.25 34.81L108.60 32.00L106.02 31.17L104.09 33.14L104.75 35.95L107.33 36.78ZM104.75 35.95L104.09 33.14L101.51 32.31L99.59 34.28L100.24 37.09L102.82 37.92ZM111.21 43.22L110.56 40.42L107.98 39.59L106.06 41.56L106.71 44.36L109.29 45.20ZM106.71 44.36L106.06 41.56L103.48 40.73L101.55 42.70L102.21 45.50L104.79 46.33ZM112.48 38.45L111.83 35.64L109.25 34.81L107.33 36.78L107.98 39.59L110.56 40.42ZM127.29 30.25L126.63 27.44L124.05 26.60L122.12 28.58L122.77 31.39L125.36 32.22ZM122.77 31.39L122.12 28.58L119.54 27.74L117.61 29.72L118.26 32.52L120.85 33.36ZM128.56 25.46L127.91 22.65L125.33 21.82L123.40 23.79L124.05 26.60L126.63 27.44ZM124.05 26.60L123.40 23.79L120.81 22.96L118.89 24.93L119.54 27.74L122.12 28.58ZM130.52 33.89L129.87 31.08L127.29 30.25L125.36 32.22L126.01 35.03L128.59 35.86ZM126.01 35.03L125.36 32.22L122.77 31.39L120.85 33.36L121.50 36.17L124.08 37.00ZM131.80 29.11L131.15 26.30L128.56 25.46L126.63 27.44L127.29 30.25L129.87 31.08ZM115.03 28.88L114.38 26.08L111.79 25.24L109.87 27.22L110.52 30.03L113.10 30.86ZM110.52 30.03L109.87 27.22L107.29 26.39L105.36 28.36L106.02 31.17L108.60 32.00ZM116.30 24.10L115.65 21.29L113.07 20.46L111.14 22.43L111.79 25.24L114.38 26.08ZM111.79 25.24L111.14 22.43L108.56 21.60L106.63 23.58L107.29 26.39L109.87 27.22ZM118.26 32.52L117.61 29.72L115.03 28.88L113.10 30.86L113.76 33.67L116.34 34.50ZM113.76 33.67L113.10 30.86L110.52 30.03L108.60 32.00L109.25 34.81L111.83 35.64ZM119.54 27.74L118.89 24.93L116.30 24.10L114.38 26.08L115.03 28.88L117.61 29.72ZM125.41 53.01L124.76 50.20L122.18 49.37L120.26 51.34L120.91 54.14L123.49 54.98ZM120.91 54.14L120.26 51.34L117.68 50.50L115.75 52.47L116.40 55.28L118.98 56.11ZM126.69 48.23L126.04 45.42L123.46 44.59L121.53 46.56L122.18 49.37L124.76 50.20ZM122.18 49.37L121.53 46.56L118.95 45.72L117.02 47.70L117.68 50.50L120.26 51.34ZM128.64 56.65L127.99 53.84L125.41 53.01L123.49 54.98L124.14 57.78L126.72 58.62ZM124.14 57.78L123.49 54.98L120.91 54.14L118.98 56.11L119.63 58.91L122.21 59.75ZM129.92 51.87L129.27 49.07L126.69 48.23L124.76 50.20L125.41 53.01L127.99 53.84ZM113.17 51.64L112.52 48.83L109.94 48.00L108.02 49.97L108.67 52.77L111.25 53.61ZM114.45 46.86L113.79 44.06L111.21 43.22L109.29 45.20L109.94 48.00L112.52 48.83ZM109.94 48.00L109.29 45.20L106.71 44.36L104.79 46.33L105.44 49.14L108.02 49.97ZM116.40 55.28L115.75 52.47L113.17 51.64L111.25 53.61L111.90 56.41L114.48 57.25ZM111.90 56.41L111.25 53.61L108.67 52.77L106.75 54.75L107.40 57.55L109.98 58.38ZM117.68 50.50L117.02 47.70L114.45 46.86L112.52 48.83L113.17 51.64L115.75 52.47ZM132.48 42.32L131.82 39.51L129.24 38.67L127.31 40.64L127.97 43.45L130.55 44.29ZM127.97 43.45L127.31 40.64L124.73 39.81L122.80 41.78L123.46 44.59L126.04 45.42ZM133.75 37.54L133.10 34.73L130.52 33.89L128.59 35.86L129.24 38.67L131.82 39.51ZM129.24 38.67L128.59 35.86L126.01 35.03L124.08 37.00L124.73 39.81L127.31 40.64ZM135.71 45.96L135.06 43.15L132.48 42.32L130.55 44.29L131.20 47.10L133.78 47.93ZM131.20 47.10L130.55 44.29L127.97 43.45L126.04 45.42L126.69 48.23L129.27 49.07ZM136.99 41.18L136.34 38.37L133.75 37.54L131.82 39.51L132.48 42.32L135.06 43.15ZM89.98 44.15L89.32 41.35L86.75 40.52L84.83 42.49L85.49 45.30L88.06 46.13ZM77.76 42.81L77.10 40.01L74.53 39.18L72.61 41.16L73.27 43.96L75.84 44.79ZM95.74 38.23L95.09 35.43L92.51 34.60L90.59 36.57L91.24 39.38L93.82 40.21ZM91.24 39.38L90.59 36.57L88.01 35.74L86.09 37.72L86.75 40.52L89.32 41.35ZM97.01 33.45L96.35 30.65L93.77 29.82L91.85 31.79L92.51 34.60L95.09 35.43ZM92.51 34.60L91.85 31.79L89.27 30.97L87.35 32.94L88.01 35.74L90.59 36.57ZM98.98 41.87L98.32 39.06L95.74 38.23L93.82 40.21L94.48 43.01L97.05 43.84ZM94.48 43.01L93.82 40.21L91.24 39.38L89.32 41.35L89.98 44.15L92.56 44.98ZM100.24 37.09L99.59 34.28L97.01 33.45L95.09 35.43L95.74 38.23L98.32 39.06ZM83.51 36.89L82.86 34.09L80.28 33.26L78.36 35.23L79.02 38.04L81.59 38.86ZM79.02 38.04L78.36 35.23L75.78 34.41L73.87 36.38L74.53 39.18L77.10 40.01ZM84.78 32.11L84.12 29.31L81.54 28.48L79.62 30.46L80.28 33.26L82.86 34.09ZM80.28 33.26L79.62 30.46L77.04 29.63L75.13 31.61L75.78 34.41L78.36 35.23ZM86.75 40.52L86.09 37.72L83.51 36.89L81.59 38.86L82.25 41.67L84.83 42.49ZM82.25 41.67L81.59 38.86L79.02 38.04L77.10 40.01L77.76 42.81L80.33 43.64ZM88.01 35.74L87.35 32.94L84.78 32.11L82.86 34.09L83.51 36.89L86.09 37.72ZM100.94 50.28L100.29 47.47L97.71 46.64L95.79 48.62L96.44 51.42L99.02 52.25ZM96.44 51.42L95.79 48.62L93.21 47.79L91.29 49.76L91.95 52.56L94.52 53.39ZM102.21 45.50L101.55 42.70L98.98 41.87L97.05 43.84L97.71 46.64L100.29 47.47ZM97.71 46.64L97.05 43.84L94.48 43.01L92.56 44.98L93.21 47.79L95.79 48.62ZM105.44 49.14L104.79 46.33L102.21 45.50L100.29 47.47L100.94 50.28L103.52 51.11ZM129.16 7.45L128.51 4.64L125.92 3.81L123.99 5.78L124.65 8.60L127.23 9.43ZM124.65 8.60L123.99 5.78L121.41 4.95L119.48 6.93L120.13 9.74L122.71 10.57ZM130.44 2.66L129.79 -0.15L127.20 -0.99L125.27 0.99L125.92 3.81L128.51 4.64ZM125.92 3.81L125.27 0.99L122.68 0.16L120.75 2.14L121.41 4.95L123.99 5.78ZM132.40 11.10L131.75 8.29L129.16 7.45L127.23 9.43L127.88 12.24L130.47 13.08ZM127.88 12.24L127.23 9.43L124.65 8.60L122.71 10.57L123.37 13.39L125.95 14.22ZM133.68 6.31L133.03 3.50L130.44 2.66L128.51 4.64L129.16 7.45L131.75 8.29ZM116.89 6.09L116.24 3.28L113.65 2.45L111.72 4.43L112.38 7.24L114.96 8.07ZM112.38 7.24L111.72 4.43L109.14 3.60L107.21 5.58L107.86 8.39L110.45 9.22ZM118.17 1.30L117.51 -1.51L114.93 -2.34L112.99 -0.36L113.65 2.45L116.24 3.28ZM113.65 2.45L112.99 -0.36L110.41 -1.19L108.48 0.79L109.14 3.60L111.72 4.43ZM120.13 9.74L119.48 6.93L116.89 6.09L114.96 8.07L115.61 10.88L118.20 11.72ZM115.61 10.88L114.96 8.07L112.38 7.24L110.45 9.22L111.10 12.03L113.69 12.86ZM121.41 4.95L120.75 2.14L118.17 1.30L116.24 3.28L116.89 6.09L119.48 6.93ZM139.49 0.38L138.84 -2.44L136.25 -3.28L134.31 -1.30L134.97 1.52L137.55 2.35ZM134.97 1.52L134.31 -1.30L131.73 -2.13L129.79 -0.15L130.44 2.66L133.03 3.50ZM127.20 -0.99L126.55 -3.80L123.96 -4.64L122.03 -2.66L122.68 0.16L125.27 0.99ZM122.68 0.16L122.03 -2.66L119.44 -3.49L117.51 -1.51L118.17 1.30L120.75 2.14ZM134.36 19.54L133.71 16.73L131.12 15.89L129.19 17.87L129.84 20.68L132.43 21.51ZM129.84 20.68L129.19 17.87L126.61 17.03L124.67 19.01L125.33 21.82L127.91 22.65ZM135.64 14.75L134.99 11.94L132.40 11.10L130.47 13.08L131.12 15.89L133.71 16.73ZM131.12 15.89L130.47 13.08L127.88 12.24L125.95 14.22L126.61 17.03L129.19 17.87ZM137.60 23.19L136.95 20.37L134.36 19.54L132.43 21.51L133.08 24.32L135.66 25.16ZM133.08 24.32L132.43 21.51L129.84 20.68L127.91 22.65L128.56 25.46L131.15 26.30ZM138.88 18.40L138.23 15.59L135.64 14.75L133.71 16.73L134.36 19.54L136.95 20.37ZM122.09 18.17L121.44 15.36L118.85 14.53L116.92 16.51L117.58 19.32L120.16 20.15ZM117.58 19.32L116.92 16.51L114.34 15.67L112.41 17.65L113.07 20.46L115.65 21.29ZM123.37 13.39L122.71 10.57L120.13 9.74L118.20 11.72L118.85 14.53L121.44 15.36ZM118.85 14.53L118.20 11.72L115.61 10.88L113.69 12.86L114.34 15.67L116.92 16.51ZM125.33 21.82L124.67 19.01L122.09 18.17L120.16 20.15L120.81 22.96L123.40 23.79ZM120.81 22.96L120.16 20.15L117.58 19.32L115.65 21.29L116.30 24.10L118.89 24.93ZM126.61 17.03L125.95 14.22L123.37 13.39L121.44 15.36L122.09 18.17L124.67 19.01ZM141.45 8.82L140.79 6.01L138.21 5.17L136.27 7.15L136.92 9.96L139.51 10.80ZM136.92 9.96L136.27 7.15L133.68 6.31L131.75 8.29L132.40 11.10L134.99 11.94ZM142.73 4.03L142.08 1.21L139.49 0.38L137.55 2.35L138.21 5.17L140.79 6.01ZM138.21 5.17L137.55 2.35L134.97 1.52L133.03 3.50L133.68 6.31L136.27 7.15ZM144.68 12.47L144.03 9.66L141.45 8.82L139.51 10.80L140.16 13.61L142.75 14.45ZM140.16 13.61L139.51 10.80L136.92 9.96L134.99 11.94L135.64 14.75L138.23 15.59ZM145.97 7.68L145.32 4.87L142.73 4.03L140.79 6.01L141.45 8.82L144.03 9.66ZM97.57 15.47L96.92 12.66L94.34 11.83L92.41 13.81L93.07 16.62L95.65 17.45ZM93.07 16.62L92.41 13.81L89.83 12.98L87.91 14.96L88.57 17.77L91.15 18.60ZM98.84 10.68L98.19 7.87L95.60 7.04L93.68 9.02L94.34 11.83L96.92 12.66ZM94.34 11.83L93.68 9.02L91.10 8.20L89.17 10.17L89.83 12.98L92.41 13.81ZM100.81 19.11L100.16 16.30L97.57 15.47L95.65 17.45L96.31 20.25L98.89 21.08ZM96.31 20.25L95.65 17.45L93.07 16.62L91.15 18.60L91.80 21.40L94.38 22.23ZM102.08 14.32L101.43 11.51L98.84 10.68L96.92 12.66L97.57 15.47L100.16 16.30ZM85.33 14.13L84.67 11.33L82.09 10.50L80.17 12.48L80.83 15.28L83.41 16.11ZM80.83 15.28L80.17 12.48L77.59 11.65L75.67 13.63L76.33 16.44L78.91 17.26ZM86.59 9.35L85.93 6.54L83.35 5.71L81.43 7.69L82.09 10.50L84.67 11.33ZM82.09 10.50L81.43 7.69L78.85 6.86L76.93 8.84L77.59 11.65L80.17 12.48ZM88.57 17.77L87.91 14.96L85.33 14.13L83.41 16.11L84.06 18.92L86.64 19.74ZM84.06 18.92L83.41 16.11L80.83 15.28L78.91 17.26L79.56 20.07L82.14 20.89ZM89.83 12.98L89.17 10.17L86.59 9.35L84.67 11.33L85.33 14.13L87.91 14.96ZM104.62 4.75L103.97 1.94L101.38 1.11L99.46 3.09L100.11 5.90L102.70 6.73ZM100.11 5.90L99.46 3.09L96.87 2.26L94.95 4.24L95.60 7.04L98.19 7.87ZM105.89 -0.04L105.24 -2.86L102.65 -3.69L100.73 -1.71L101.38 1.11L103.97 1.94ZM101.38 1.11L100.73 -1.71L98.14 -2.54L96.21 -0.55L96.87 2.26L99.46 3.09ZM107.86 8.39L107.21 5.58L104.62 4.75L102.70 6.73L103.35 9.54L105.94 10.37ZM103.35 9.54L102.70 6.73L100.11 5.90L98.19 7.87L98.84 10.68L101.43 11.51ZM109.14 3.60L108.48 0.79L105.89 -0.04L103.97 1.94L104.62 4.75L107.21 5.58ZM92.36 3.41L91.71 0.60L89.12 -0.23L87.20 1.75L87.86 4.56L90.44 5.39ZM87.86 4.56L87.20 1.75L84.62 0.92L82.69 2.90L83.35 5.71L85.93 6.54ZM93.63 -1.38L92.97 -4.19L90.39 -5.02L88.46 -3.04L89.12 -0.23L91.71 0.60ZM89.12 -0.23L88.46 -3.04L85.88 -3.87L83.96 -1.89L84.62 0.92L87.20 1.75ZM95.60 7.04L94.95 4.24L92.36 3.41L90.44 5.39L91.10 8.20L93.68 9.02ZM91.10 8.20L90.44 5.39L87.86 4.56L85.93 6.54L86.59 9.35L89.17 10.17ZM96.87 2.26L96.21 -0.55L93.63 -1.38L91.71 0.60L92.36 3.41L94.95 4.24ZM102.78 27.53L102.12 24.72L99.54 23.89L97.62 25.87L98.28 28.67L100.86 29.50ZM98.28 28.67L97.62 25.87L95.04 25.04L93.12 27.01L93.77 29.82L96.35 30.65ZM104.05 22.75L103.39 19.94L100.81 19.11L98.89 21.08L99.54 23.89L102.12 24.72ZM99.54 23.89L98.89 21.08L96.31 20.25L94.38 22.23L95.04 25.04L97.62 25.87ZM106.02 31.17L105.36 28.36L102.78 27.53L100.86 29.50L101.51 32.31L104.09 33.14ZM101.51 32.31L100.86 29.50L98.28 28.67L96.35 30.65L97.01 33.45L99.59 34.28ZM107.29 26.39L106.63 23.58L104.05 22.75L102.12 24.72L102.78 27.53L105.36 28.36ZM90.54 26.18L89.88 23.38L87.30 22.55L85.38 24.53L86.04 27.33L88.62 28.16ZM86.04 27.33L85.38 24.53L82.80 23.70L80.88 25.68L81.54 28.48L84.12 29.31ZM91.80 21.40L91.15 18.60L88.57 17.77L86.64 19.74L87.30 22.55L89.88 23.38ZM87.30 22.55L86.64 19.74L84.06 18.92L82.14 20.89L82.80 23.70L85.38 24.53ZM93.77 29.82L93.12 27.01L90.54 26.18L88.62 28.16L89.27 30.97L91.85 31.79ZM89.27 30.97L88.62 28.16L86.04 27.33L84.12 29.31L84.78 32.11L87.35 32.94ZM95.04 25.04L94.38 22.23L91.80 21.40L89.88 23.38L90.54 26.18L93.12 27.01ZM109.83 16.82L109.17 14.01L106.59 13.18L104.66 15.15L105.32 17.96L107.90 18.79ZM105.32 17.96L104.66 15.15L102.08 14.32L100.16 16.30L100.81 19.11L103.39 19.94ZM111.10 12.03L110.45 9.22L107.86 8.39L105.94 10.37L106.59 13.18L109.17 14.01ZM106.59 13.18L105.94 10.37L103.35 9.54L101.43 11.51L102.08 14.32L104.66 15.15ZM113.07 20.46L112.41 17.65L109.83 16.82L107.90 18.79L108.56 21.60L111.14 22.43ZM108.56 21.60L107.90 18.79L105.32 17.96L103.39 19.94L104.05 22.75L106.63 23.58ZM114.34 15.67L113.69 12.86L111.10 12.03L109.17 14.01L109.83 16.82L112.41 17.65ZM142.84 66.45L142.19 63.64L139.61 62.80L137.68 64.77L138.33 67.57L140.91 68.41ZM144.12 61.67L143.47 58.87L140.89 58.03L138.96 60.00L139.61 62.80L142.19 63.64ZM147.35 65.32L146.70 62.51L144.12 61.67L142.19 63.64L142.84 66.45L145.42 67.29ZM149.91 55.77L149.26 52.96L146.68 52.12L144.75 54.09L145.40 56.90L147.98 57.74ZM145.40 56.90L144.75 54.09L142.17 53.25L140.24 55.22L140.89 58.03L143.47 58.87ZM151.20 50.99L150.55 48.18L147.97 47.35L146.03 49.31L146.68 52.12L149.26 52.96ZM146.68 52.12L146.03 49.31L143.45 48.48L141.52 50.45L142.17 53.25L144.75 54.09ZM153.14 59.42L152.49 56.61L149.91 55.77L147.98 57.74L148.63 60.55L151.21 61.39ZM148.63 60.55L147.98 57.74L145.40 56.90L143.47 58.87L144.12 61.67L146.70 62.51ZM154.43 54.64L153.78 51.83L151.20 50.99L149.26 52.96L149.91 55.77L152.49 56.61ZM137.66 54.38L137.01 51.58L134.43 50.74L132.50 52.71L133.15 55.52L135.73 56.35ZM133.15 55.52L132.50 52.71L129.92 51.87L127.99 53.84L128.64 56.65L131.22 57.48ZM138.94 49.61L138.29 46.80L135.71 45.96L133.78 47.93L134.43 50.74L137.01 51.58ZM134.43 50.74L133.78 47.93L131.20 47.10L129.27 49.07L129.92 51.87L132.50 52.71ZM140.89 58.03L140.24 55.22L137.66 54.38L135.73 56.35L136.38 59.16L138.96 60.00ZM136.38 59.16L135.73 56.35L133.15 55.52L131.22 57.48L131.87 60.29L134.45 61.13ZM142.17 53.25L141.52 50.45L138.94 49.61L137.01 51.58L137.66 54.38L140.24 55.22ZM156.37 63.07L155.72 60.26L153.14 59.42L151.21 61.39L151.86 64.19L154.44 65.03ZM151.86 64.19L151.21 61.39L148.63 60.55L146.70 62.51L147.35 65.32L149.93 66.16ZM159.60 66.72L158.95 63.91L156.37 63.07L154.44 65.03L155.09 67.84L157.67 68.68ZM119.63 58.91L118.98 56.11L116.40 55.28L114.48 57.25L115.13 60.05L117.71 60.88ZM151.82 33.00L151.17 30.19L148.59 29.35L146.65 31.32L147.30 34.13L149.89 34.97ZM147.30 34.13L146.65 31.32L144.07 30.48L142.13 32.46L142.78 35.27L145.37 36.11ZM153.11 28.22L152.46 25.40L149.87 24.56L147.94 26.54L148.59 29.35L151.17 30.19ZM148.59 29.35L147.94 26.54L145.35 25.70L143.42 27.67L144.07 30.48L146.65 31.32ZM155.06 36.65L154.41 33.84L151.82 33.00L149.89 34.97L150.54 37.78L153.12 38.62ZM150.54 37.78L149.89 34.97L147.30 34.13L145.37 36.11L146.02 38.92L148.60 39.76ZM156.34 31.87L155.69 29.06L153.11 28.22L151.17 30.19L151.82 33.00L154.41 33.84ZM139.55 31.62L138.90 28.81L136.32 27.97L134.38 29.95L135.03 32.76L137.62 33.59ZM135.03 32.76L134.38 29.95L131.80 29.11L129.87 31.08L130.52 33.89L133.10 34.73ZM140.83 26.84L140.18 24.02L137.60 23.19L135.66 25.16L136.32 27.97L138.90 28.81ZM136.32 27.97L135.66 25.16L133.08 24.32L131.15 26.30L131.80 29.11L134.38 29.95ZM142.78 35.27L142.13 32.46L139.55 31.62L137.62 33.59L138.27 36.40L140.85 37.24ZM138.27 36.40L137.62 33.59L135.03 32.76L133.10 34.73L133.75 37.54L136.34 38.37ZM144.07 30.48L143.42 27.67L140.83 26.84L138.90 28.81L139.55 31.62L142.13 32.46ZM158.92 22.30L158.27 19.48L155.68 18.64L153.75 20.62L154.40 23.43L156.98 24.27ZM154.40 23.43L153.75 20.62L151.16 19.78L149.22 21.75L149.87 24.56L152.46 25.40ZM160.21 17.51L159.56 14.69L156.97 13.85L155.03 15.83L155.68 18.64L158.27 19.48ZM155.68 18.64L155.03 15.83L152.45 14.99L150.51 16.96L151.16 19.78L153.75 20.62ZM162.16 25.95L161.51 23.14L158.92 22.30L156.98 24.27L157.63 27.08L160.22 27.92ZM157.63 27.08L156.98 24.27L154.40 23.43L152.46 25.40L153.11 28.22L155.69 29.06ZM163.45 21.16L162.80 18.35L160.21 17.51L158.27 19.48L158.92 22.30L161.51 23.14ZM146.64 20.91L145.99 18.10L143.40 17.26L141.46 19.24L142.12 22.05L144.70 22.89ZM142.12 22.05L141.46 19.24L138.88 18.40L136.95 20.37L137.60 23.19L140.18 24.02ZM147.92 16.12L147.27 13.31L144.68 12.47L142.75 14.45L143.40 17.26L145.99 18.10ZM143.40 17.26L142.75 14.45L140.16 13.61L138.23 15.59L138.88 18.40L141.46 19.24ZM149.87 24.56L149.22 21.75L146.64 20.91L144.70 22.89L145.35 25.70L147.94 26.54ZM145.35 25.70L144.70 22.89L142.12 22.05L140.18 24.02L140.83 26.84L143.42 27.67ZM151.16 19.78L150.51 16.96L147.92 16.12L145.99 18.10L146.64 20.91L149.22 21.75ZM157.00 45.09L156.35 42.28L153.77 41.44L151.83 43.41L152.48 46.22L155.07 47.06ZM152.48 46.22L151.83 43.41L149.25 42.57L147.32 44.54L147.97 47.35L150.55 48.18ZM158.29 40.31L157.64 37.49L155.06 36.65L153.12 38.62L153.77 41.44L156.35 42.28ZM153.77 41.44L153.12 38.62L150.54 37.78L148.60 39.76L149.25 42.57L151.83 43.41ZM160.23 48.74L159.58 45.93L157.00 45.09L155.07 47.06L155.71 49.87L158.30 50.71ZM155.71 49.87L155.07 47.06L152.48 46.22L150.55 48.18L151.20 50.99L153.78 51.83ZM161.52 43.96L160.87 41.15L158.29 40.31L156.35 42.28L157.00 45.09L159.58 45.93ZM144.73 43.70L144.08 40.89L141.50 40.05L139.57 42.02L140.22 44.83L142.80 45.67ZM140.22 44.83L139.57 42.02L136.99 41.18L135.06 43.15L135.71 45.96L138.29 46.80ZM146.02 38.92L145.37 36.11L142.78 35.27L140.85 37.24L141.50 40.05L144.08 40.89ZM141.50 40.05L140.85 37.24L138.27 36.40L136.34 38.37L136.99 41.18L139.57 42.02ZM147.97 47.35L147.32 44.54L144.73 43.70L142.80 45.67L143.45 48.48L146.03 49.31ZM143.45 48.48L142.80 45.67L140.22 44.83L138.29 46.80L138.94 49.61L141.52 50.45ZM149.25 42.57L148.60 39.76L146.02 38.92L144.08 40.89L144.73 43.70L147.32 44.54ZM164.10 34.39L163.45 31.58L160.87 30.74L158.93 32.71L159.58 35.52L162.16 36.36ZM159.58 35.52L158.93 32.71L156.34 31.87L154.41 33.84L155.06 36.65L157.64 37.49ZM165.39 29.61L164.74 26.79L162.16 25.95L160.22 27.92L160.87 30.74L163.45 31.58ZM160.87 30.74L160.22 27.92L157.63 27.08L155.69 29.06L156.34 31.87L158.93 32.71ZM167.33 38.05L166.69 35.23L164.10 34.39L162.16 36.36L162.81 39.18L165.40 40.02ZM162.81 39.18L162.16 36.36L159.58 35.52L157.64 37.49L158.29 40.31L160.87 41.15ZM168.63 33.26L167.98 30.45L165.39 29.61L163.45 31.58L164.10 34.39L166.69 35.23Z"/><path data-band="2" fill="#f97316" fill-opacity="0.35" d="M199.10 -1.13L198.46 -3.96L195.86 -4.80L193.91 -2.83L194.55 0.00L197.15 0.84ZM194.55 0.00L193.91 -2.83L191.31 -3.67L189.37 -1.70L190.01 1.13L192.61 1.97ZM185.47 2.26L184.82 -0.56L182.23 -1.41L180.28 0.57L180.93 3.39L183.52 4.23ZM180.93 3.39L180.28 0.57L177.69 -0.27L175.75 1.70L176.39 4.52L178.99 5.37ZM182.23 -1.41L181.58 -4.23L178.99 -5.07L177.04 -3.09L177.69 -0.27L180.28 0.57ZM188.71 5.92L188.06 3.10L185.47 2.26L183.52 4.23L184.17 7.05L186.76 7.90ZM184.17 7.05L183.52 4.23L180.93 3.39L178.99 5.37L179.63 8.18L182.22 9.03ZM190.01 1.13L189.37 -1.70L186.77 -2.54L184.82 -0.56L185.47 2.26L188.06 3.10ZM160.85 -0.53L160.20 -3.35L157.61 -4.19L155.66 -2.21L156.31 0.61L158.90 1.45ZM164.09 3.13L163.44 0.31L160.85 -0.53L158.90 1.45L159.55 4.27L162.14 5.11ZM165.38 -1.67L164.73 -4.48L162.14 -5.32L160.20 -3.35L160.85 -0.53L163.44 0.31ZM148.54 -1.91L147.89 -4.72L145.30 -5.56L143.37 -3.58L144.02 -0.77L146.61 0.07ZM144.02 -0.77L143.37 -3.58L140.78 -4.42L138.84 -2.44L139.49 0.38L142.08 1.21ZM167.33 6.79L166.68 3.97L164.09 3.13L162.14 5.11L162.79 7.92L165.38 8.77ZM173.15 0.86L172.51 -1.96L169.91 -2.80L167.97 -0.82L168.62 1.99L171.21 2.84ZM168.62 1.99L167.97 -0.82L165.38 -1.67L163.44 0.31L164.09 3.13L166.68 3.97ZM176.39 4.52L175.75 1.70L173.15 0.86L171.21 2.84L171.86 5.66L174.45 6.50ZM171.86 5.66L171.21 2.84L168.62 1.99L166.68 3.97L167.33 6.79L169.92 7.63ZM177.69 -0.27L177.04 -3.09L174.45 -3.94L172.51 -1.96L173.15 0.86L175.75 1.70Z"/></svg>
