<svg xmlns="http://www.w3.org/2000/svg" width="256" height="256" viewBox="0 0 256 256"><path data-band="1" fill="#fde68a" fill-opacity="0.35" d="M125.77 252.14L122.88 241.08L112.71 238.13L105.45 246.24L108.35 257.29L118.51 260.24ZM108.35 257.29L105.45 246.24L95.28 243.29L88.02 251.39L90.92 262.44L101.08 265.38ZM138.83 266.14L135.94 255.09L125.77 252.14L118.51 260.24L121.40 271.29L131.57 274.24ZM147.59 227.83L144.69 216.77L134.52 213.82L127.25 221.93L130.15 232.98L140.31 235.94ZM130.15 232.98L127.25 221.93L117.08 218.98L109.81 227.08L112.71 238.13L122.88 241.08ZM151.97 208.67L149.07 197.60L138.90 194.65L131.62 202.76L134.52 213.82L144.69 216.77ZM134.52 213.82L131.62 202.76L121.45 199.81L114.18 207.92L117.08 218.98L127.25 221.93ZM160.65 241.85L157.76 230.79L147.59 227.83L140.31 235.94L143.21 246.99L153.38 249.95ZM143.21 246.99L140.31 235.94L130.15 232.98L122.88 241.08L125.77 252.14L135.94 255.09ZM165.04 222.69L162.15 211.62L151.97 208.67L144.69 216.77L147.59 227.83L157.76 230.79ZM99.65 224.13L96.74 213.08L86.58 210.14L79.32 218.24L82.22 229.29L92.38 232.24ZM104.01 204.97L101.11 193.91L90.94 190.97L83.67 199.08L86.58 210.14L96.74 213.08ZM112.71 238.13L109.81 227.08L99.65 224.13L92.38 232.24L95.28 243.29L105.45 246.24ZM117.08 218.98L114.18 207.92L104.01 204.97L96.74 213.08L99.65 224.13L109.81 227.08ZM156.27 261.00L153.38 249.95L143.21 246.99L135.94 255.09L138.83 266.14L149.00 269.10ZM274.55 100.98L271.66 89.88L261.45 86.91L254.14 95.04L257.02 106.13L267.23 109.10ZM257.02 106.13L254.14 95.04L243.93 92.07L236.62 100.20L239.51 111.29L249.71 114.25ZM261.45 86.91L258.56 75.82L248.36 72.85L241.04 80.98L243.93 92.07L254.14 95.04ZM270.12 120.19L267.23 109.10L257.02 106.13L249.71 114.25L252.60 125.34L262.80 128.31ZM226.42 97.23L223.52 86.14L213.32 83.18L206.02 91.31L208.91 102.40L219.11 105.36ZM208.91 102.40L206.02 91.31L195.82 88.35L188.51 96.48L191.41 107.56L201.61 110.52ZM230.83 78.02L227.94 66.92L217.74 63.96L210.43 72.09L213.32 83.18L223.52 86.14ZM213.32 83.18L210.43 72.09L200.22 69.14L192.92 77.27L195.82 88.35L206.02 91.31ZM239.51 111.29L236.62 100.20L226.42 97.23L219.11 105.36L222.00 116.45L232.20 119.41ZM222.00 116.45L219.11 105.36L208.91 102.40L201.61 110.52L204.50 121.61L214.70 124.57ZM243.93 92.07L241.04 80.98L230.83 78.02L223.52 86.14L226.42 97.23L236.62 100.20ZM252.78 53.62L249.89 42.52L239.68 39.56L232.36 47.69L235.26 58.79L245.47 61.75ZM235.26 58.79L232.36 47.69L222.15 44.73L214.84 52.87L217.74 63.96L227.94 66.92ZM257.22 34.39L254.32 23.28L244.11 20.32L236.79 28.46L239.68 39.56L249.89 42.52ZM239.68 39.56L236.79 28.46L226.57 25.50L219.26 33.64L222.15 44.73L232.36 47.69ZM265.89 67.69L263.00 56.59L252.78 53.62L245.47 61.75L248.36 72.85L258.56 75.82ZM248.36 72.85L245.47 61.75L235.26 58.79L227.94 66.92L230.83 78.02L241.04 80.98ZM270.32 48.46L267.43 37.35L257.22 34.39L249.89 42.52L252.78 53.62L263.00 56.59ZM248.17 144.55L245.29 133.46L235.09 130.50L227.78 138.61L230.67 149.70L240.87 152.66ZM230.67 149.70L227.78 138.61L217.59 135.65L210.29 143.77L213.18 154.85L223.37 157.81ZM252.60 125.34L249.71 114.25L239.51 111.29L232.20 119.41L235.09 130.50L245.29 133.46ZM235.09 130.50L232.20 119.41L222.00 116.45L214.70 124.57L217.59 135.65L227.78 138.61ZM261.26 158.60L258.37 147.52L248.17 144.55L240.87 152.66L243.75 163.74L253.95 166.71ZM243.75 163.74L240.87 152.66L230.67 149.70L223.37 157.81L226.26 168.89L236.45 171.86ZM265.69 139.40L262.80 128.31L252.60 125.34L245.29 133.46L248.17 144.55L258.37 147.52ZM182.72 74.31L179.82 63.22L169.62 60.27L162.32 68.41L165.22 79.49L175.42 82.44ZM156.35 189.49L153.46 178.43L143.28 175.47L136.00 183.59L138.90 194.65L149.07 197.60ZM178.21 165.16L175.32 154.08L165.13 151.13L157.84 159.24L160.74 170.31L170.92 173.27ZM191.29 179.19L188.40 168.11L178.21 165.16L170.92 173.27L173.82 184.34L184.00 187.30ZM112.75 166.63L109.84 155.56L99.67 152.62L92.40 160.74L95.30 171.80L105.47 174.74ZM200.09 140.81L197.20 129.73L187.01 126.77L179.71 134.89L182.61 145.97L192.80 148.92ZM204.50 121.61L201.61 110.52L191.41 107.56L184.11 115.69L187.01 126.77L197.20 129.73ZM213.18 154.85L210.29 143.77L200.09 140.81L192.80 148.92L195.69 160.00L205.88 162.96ZM195.69 160.00L192.80 148.92L182.61 145.97L175.32 154.08L178.21 165.16L188.40 168.11ZM217.59 135.65L214.70 124.57L204.50 121.61L197.20 129.73L200.09 140.81L210.29 143.77ZM261.65 15.14L258.76 4.04L248.54 1.07L241.21 9.22L244.11 20.32L254.32 23.28ZM266.09 -4.11L263.19 -15.22L252.97 -18.18L245.64 -10.03L248.54 1.07L258.76 4.04ZM274.76 29.22L271.87 18.11L261.65 15.14L254.32 23.28L257.22 34.39L267.43 37.35ZM182.83 2.58L179.93 -8.52L169.72 -11.47L162.41 -3.32L165.32 7.77L175.52 10.72ZM165.32 7.77L162.41 -3.32L152.20 -6.27L144.90 1.88L147.81 12.97L158.01 15.91ZM195.94 16.63L193.04 5.53L182.83 2.58L175.52 10.72L178.42 21.81L188.63 24.77ZM178.42 21.81L175.52 10.72L165.32 7.77L158.01 15.91L160.92 27.01L171.12 29.96ZM200.35 -2.62L197.45 -13.72L187.24 -16.67L179.93 -8.52L182.83 2.58L193.04 5.53ZM134.70 -1.07L131.79 -12.16L121.59 -15.10L114.29 -6.95L117.20 4.14L127.40 7.08ZM147.81 12.97L144.90 1.88L134.70 -1.07L127.40 7.08L130.31 18.17L140.51 21.11ZM130.31 18.17L127.40 7.08L117.20 4.14L109.91 12.28L112.82 23.37L123.02 26.31ZM152.20 -6.27L149.30 -17.37L139.09 -20.31L131.79 -12.16L134.70 -1.07L144.90 1.88ZM204.64 49.91L201.74 38.82L191.53 35.86L184.23 44.00L187.12 55.09L197.33 58.05ZM187.12 55.09L184.23 44.00L174.02 41.05L166.72 49.18L169.62 60.27L179.82 63.22ZM209.05 30.68L206.15 19.58L195.94 16.63L188.63 24.77L191.53 35.86L201.74 38.82ZM191.53 35.86L188.63 24.77L178.42 21.81L171.12 29.96L174.02 41.05L184.23 44.00ZM217.74 63.96L214.84 52.87L204.64 49.91L197.33 58.05L200.22 69.14L210.43 72.09ZM200.22 69.14L197.33 58.05L187.12 55.09L179.82 63.22L182.72 74.31L192.92 77.27ZM222.15 44.73L219.26 33.64L209.05 30.68L201.74 38.82L204.64 49.91L214.84 52.87ZM160.92 27.01L158.01 15.91L147.81 12.97L140.51 21.11L143.42 32.20L153.62 35.15ZM143.42 32.20L140.51 21.11L130.31 18.17L123.02 26.31L125.92 37.39L136.12 40.34ZM231.00 6.26L228.10 -4.85L217.89 -7.81L210.57 0.34L213.47 11.44L223.68 14.40ZM213.47 11.44L210.57 0.34L200.35 -2.62L193.04 5.53L195.94 16.63L206.15 19.58ZM217.89 -7.81L214.99 -18.91L204.77 -21.87L197.45 -13.72L200.35 -2.62L210.57 0.34ZM244.11 20.32L241.21 9.22L231.00 6.26L223.68 14.40L226.57 25.50L236.79 28.46ZM226.57 25.50L223.68 14.40L213.47 11.44L206.15 19.58L209.05 30.68L219.26 33.64ZM248.54 1.07L245.64 -10.03L235.42 -12.99L228.10 -4.85L231.00 6.26L241.21 9.22ZM243.58 235.34L240.69 224.26L230.51 221.30L223.21 229.40L226.10 240.46L236.28 243.43ZM226.10 240.46L223.21 229.40L213.03 226.43L205.74 234.53L208.63 245.60L218.81 248.56ZM247.99 216.16L245.11 205.09L234.92 202.12L227.62 210.22L230.51 221.30L240.69 224.26ZM230.51 221.30L227.62 210.22L217.44 207.26L210.15 215.36L213.03 226.43L223.21 229.40ZM256.64 249.38L253.76 238.31L243.58 235.34L236.28 243.43L239.17 254.50L249.35 257.47ZM239.17 254.50L236.28 243.43L226.10 240.46L218.81 248.56L221.70 259.63L231.87 262.60ZM261.06 230.21L258.18 219.14L247.99 216.16L240.69 224.26L243.58 235.34L253.76 238.31ZM195.57 231.57L192.68 220.50L182.50 217.54L175.21 225.64L178.11 236.71L188.28 239.67ZM178.11 236.71L175.21 225.64L165.04 222.69L157.76 230.79L160.65 241.85L170.83 244.81ZM199.97 212.40L197.07 201.33L186.89 198.37L179.61 206.47L182.50 217.54L192.68 220.50ZM182.50 217.54L179.61 206.47L169.43 203.52L162.15 211.62L165.04 222.69L175.21 225.64ZM213.03 226.43L210.15 215.36L199.97 212.40L192.68 220.50L195.57 231.57L205.74 234.53ZM269.91 191.85L267.03 180.77L256.83 177.80L249.53 185.90L252.41 196.98L262.60 199.96ZM252.41 196.98L249.53 185.90L239.34 182.94L232.04 191.04L234.92 202.12L245.11 205.09ZM274.34 172.66L271.46 161.57L261.26 158.60L253.95 166.71L256.83 177.80L267.03 180.77ZM256.83 177.80L253.95 166.71L243.75 163.74L236.45 171.86L239.34 182.94L249.53 185.90ZM265.49 211.03L262.60 199.96L252.41 196.98L245.11 205.09L247.99 216.16L258.18 219.14ZM221.85 188.08L218.96 177.00L208.77 174.04L201.48 182.15L204.37 193.22L214.55 196.18ZM204.37 193.22L201.48 182.15L191.29 179.19L184.00 187.30L186.89 198.37L197.07 201.33ZM226.26 168.89L223.37 157.81L213.18 154.85L205.88 162.96L208.77 174.04L218.96 177.00ZM208.77 174.04L205.88 162.96L195.69 160.00L188.40 168.11L191.29 179.19L201.48 182.15ZM234.92 202.12L232.04 191.04L221.85 188.08L214.55 196.18L217.44 207.26L227.62 210.22ZM217.44 207.26L214.55 196.18L204.37 193.22L197.07 201.33L199.97 212.40L210.15 215.36ZM239.34 182.94L236.45 171.86L226.26 168.89L218.96 177.00L221.85 188.08L232.04 191.04ZM269.71 263.43L266.83 252.35L256.64 249.38L249.35 257.47L252.23 268.54L262.41 271.52ZM252.23 268.54L249.35 257.47L239.17 254.50L231.87 262.60L234.76 273.66L244.93 276.63ZM221.70 259.63L218.81 248.56L208.63 245.60L201.34 253.69L204.23 264.75L214.41 267.72ZM274.13 244.26L271.25 233.19L261.06 230.21L253.76 238.31L256.64 249.38L266.83 252.35Z"/></svg>
