<svg xmlns="http://www.w3.org/2000/svg" width="256" height="256" viewBox="0 0 256 256"><path data-band="1" fill="#fde68a" fill-opacity="0.35" d="M243.05 193.63L240.18 182.59L230.03 179.61L222.75 187.67L225.63 198.70L235.78 201.68ZM273.92 59.78L271.04 48.71L260.87 45.74L253.57 53.82L256.45 64.88L266.63 67.86ZM130.04 119.79L127.15 108.75L117.00 105.80L109.75 113.88L112.64 124.91L122.78 127.86ZM134.40 100.68L131.51 89.64L121.36 86.68L114.10 94.76L117.00 105.80L127.15 108.75ZM125.77 -3.86L122.88 -14.92L112.71 -17.87L105.45 -9.76L108.35 1.29L118.51 4.24ZM108.35 1.29L105.45 -9.76L95.28 -12.71L88.02 -4.61L90.92 6.44L101.08 9.38ZM138.83 10.14L135.94 -0.91L125.77 -3.86L118.51 4.24L121.40 15.29L131.57 18.24ZM143.14 62.43L140.25 51.38L130.09 48.43L122.83 56.52L125.72 67.56L135.88 70.51ZM147.52 43.29L144.62 32.24L134.46 29.29L127.20 37.38L130.09 48.43L140.25 51.38ZM156.19 76.43L153.30 65.39L143.14 62.43L135.88 70.51L138.77 81.56L148.92 84.51ZM138.77 81.56L135.88 70.51L125.72 67.56L118.47 75.64L121.36 86.68L131.51 89.64ZM160.57 57.30L157.68 46.25L147.52 43.29L140.25 51.38L143.14 62.43L153.30 65.39ZM169.33 19.02L166.44 7.96L156.27 5.00L149.00 13.10L151.89 24.15L162.06 27.11ZM151.89 24.15L149.00 13.10L138.83 10.14L131.57 18.24L134.46 29.29L144.62 32.24ZM156.27 5.00L153.38 -6.05L143.21 -9.01L135.94 -0.91L138.83 10.14L149.00 13.10ZM182.39 33.03L179.50 21.98L169.33 19.02L162.06 27.11L164.95 38.16L175.11 41.12ZM164.95 38.16L162.06 27.11L151.89 24.15L144.62 32.24L147.52 43.29L157.68 46.25ZM225.63 198.70L222.75 187.67L212.61 184.69L205.34 192.75L208.22 203.79L218.36 206.76ZM195.32 118.46L192.43 107.41L182.28 104.45L175.01 112.52L177.90 123.56L188.05 126.53ZM199.71 99.34L196.82 88.29L186.66 85.32L179.39 93.40L182.28 104.45L192.43 107.41ZM225.79 127.37L222.91 116.33L212.75 113.35L205.47 121.43L208.36 132.47L218.51 135.44ZM208.36 132.47L205.47 121.43L195.32 118.46L188.05 126.53L190.93 137.57L201.08 140.54ZM164.86 109.56L161.97 98.52L151.81 95.56L144.55 103.63L147.44 114.67L157.59 117.63ZM147.44 114.67L144.55 103.63L134.40 100.68L127.15 108.75L130.04 119.79L140.18 122.75ZM169.23 90.44L166.35 79.39L156.19 76.43L148.92 84.51L151.81 95.56L161.97 98.52ZM151.81 95.56L148.92 84.51L138.77 81.56L131.51 89.64L134.40 100.68L144.55 103.63ZM177.90 123.56L175.01 112.52L164.86 109.56L157.59 117.63L160.48 128.67L170.63 131.64ZM182.28 104.45L179.39 93.40L169.23 90.44L161.97 98.52L164.86 109.56L175.01 112.52ZM243.40 50.85L240.52 39.79L230.35 36.81L223.06 44.90L225.94 55.96L236.11 58.93ZM256.45 64.88L253.57 53.82L243.40 50.85L236.11 58.93L238.99 69.99L249.16 72.96ZM173.62 71.31L170.73 60.26L160.57 57.30L153.30 65.39L156.19 76.43L166.35 79.39ZM178.00 52.17L175.11 41.12L164.95 38.16L157.68 46.25L160.57 57.30L170.73 60.26ZM186.66 85.32L183.78 74.27L173.62 71.31L166.35 79.39L169.23 90.44L179.39 93.40ZM234.42 160.50L231.55 149.46L221.39 146.49L214.12 154.55L217.00 165.59L227.15 168.57ZM217.00 165.59L214.12 154.55L203.97 151.58L196.70 159.65L199.58 170.68L209.73 173.66ZM221.39 146.49L218.51 135.44L208.36 132.47L201.08 140.54L203.97 151.58L214.12 154.55ZM247.45 174.52L244.58 163.48L234.42 160.50L227.15 168.57L230.03 179.61L240.18 182.59ZM230.03 179.61L227.15 168.57L217.00 165.59L209.73 173.66L212.61 184.69L222.75 187.67ZM190.93 137.57L188.05 126.53L177.90 123.56L170.63 131.64L173.52 142.67L183.66 145.64ZM203.97 151.58L201.08 140.54L190.93 137.57L183.66 145.64L186.55 156.68L196.70 159.65ZM256.64 -6.62L253.76 -17.69L243.58 -20.66L236.28 -12.57L239.17 -1.50L249.35 1.47ZM239.17 -1.50L236.28 -12.57L226.10 -15.54L218.81 -7.44L221.70 3.63L231.87 6.60ZM265.29 26.58L262.41 15.52L252.23 12.54L244.93 20.63L247.81 31.70L257.99 34.67ZM247.81 31.70L244.93 20.63L234.76 17.66L227.46 25.75L230.35 36.81L240.52 39.79ZM269.71 7.43L266.83 -3.65L256.64 -6.62L249.35 1.47L252.23 12.54L262.41 15.52ZM252.23 12.54L249.35 1.47L239.17 -1.50L231.87 6.60L234.76 17.66L244.93 20.63ZM260.87 45.74L257.99 34.67L247.81 31.70L240.52 39.79L243.40 50.85L253.57 53.82ZM217.29 22.78L214.41 11.72L204.23 8.75L196.95 16.85L199.84 27.91L210.01 30.87ZM221.70 3.63L218.81 -7.44L208.63 -10.40L201.34 -2.31L204.23 8.75L214.41 11.72ZM230.35 36.81L227.46 25.75L217.29 22.78L210.01 30.87L212.89 41.93L223.06 44.90ZM234.76 17.66L231.87 6.60L221.70 3.63L214.41 11.72L217.29 22.78L227.46 25.75Z"/></svg>
