<svg xmlns="http://www.w3.org/2000/svg" width="256" height="256" viewBox="0 0 256 256"><path data-band="1" fill="#fde68a" fill-opacity="0.35" d="M131.36 207.71L128.82 195.62L117.64 192.09L109.02 200.65L111.57 212.73L122.74 216.26ZM111.57 212.73L109.02 200.65L97.85 197.12L89.24 205.68L91.79 217.76L102.96 221.28ZM137.44 187.07L134.89 174.98L123.72 171.45L115.09 180.01L117.64 192.09L128.82 195.62ZM117.64 192.09L115.09 180.01L103.92 176.48L95.30 185.04L97.85 197.12L109.02 200.65ZM145.08 223.32L142.54 211.24L131.36 207.71L122.74 216.26L125.29 228.34L136.46 231.87ZM125.29 228.34L122.74 216.26L111.57 212.73L102.96 221.28L105.51 233.36L116.67 236.89ZM151.16 202.69L148.62 190.60L137.44 187.07L128.82 195.62L131.36 207.71L142.54 211.24ZM78.07 202.16L75.51 190.08L64.34 186.56L55.73 195.12L58.29 207.20L69.46 210.71ZM84.13 181.52L81.57 169.44L70.40 165.92L61.78 174.48L64.34 186.56L75.51 190.08ZM64.34 186.56L61.78 174.48L50.61 170.97L42.01 179.53L44.57 191.61L55.73 195.12ZM91.79 217.76L89.24 205.68L78.07 202.16L69.46 210.71L72.01 222.79L83.18 226.31ZM97.85 197.12L95.30 185.04L84.13 181.52L75.51 190.08L78.07 202.16L89.24 205.68ZM163.34 161.40L160.79 149.31L149.61 145.77L140.98 154.33L143.52 166.42L154.70 169.96ZM143.52 166.42L140.98 154.33L129.80 150.80L121.17 159.36L123.72 171.45L134.89 174.98ZM169.43 140.75L166.89 128.65L155.70 125.11L147.06 133.68L149.61 145.77L160.79 149.31ZM149.61 145.77L147.06 133.68L135.88 130.15L127.24 138.71L129.80 150.80L140.98 154.33ZM177.07 177.03L174.52 164.94L163.34 161.40L154.70 169.96L157.25 182.05L168.43 185.58ZM157.25 182.05L154.70 169.96L143.52 166.42L134.89 174.98L137.44 187.07L148.62 190.60ZM183.16 156.38L180.62 144.28L169.43 140.75L160.79 149.31L163.34 161.40L174.52 164.94ZM109.99 155.84L107.43 143.75L96.25 140.22L87.63 148.79L90.19 160.87L101.36 164.40ZM90.19 160.87L87.63 148.79L76.46 145.27L67.84 153.84L70.40 165.92L81.57 169.44ZM116.06 135.18L113.51 123.09L102.33 119.56L93.70 128.13L96.25 140.22L107.43 143.75ZM96.25 140.22L93.70 128.13L82.52 124.61L73.90 133.18L76.46 145.27L87.63 148.79ZM123.72 171.45L121.17 159.36L109.99 155.84L101.36 164.40L103.92 176.48L115.09 180.01ZM103.92 176.48L101.36 164.40L90.19 160.87L81.57 169.44L84.13 181.52L95.30 185.04ZM129.80 150.80L127.24 138.71L116.06 135.18L107.43 143.75L109.99 155.84L121.17 159.36ZM152.71 259.56L150.17 247.48L139.00 243.95L130.38 252.49L132.93 264.57L144.09 268.10ZM132.93 264.57L130.38 252.49L119.22 248.96L110.61 257.51L113.15 269.58L124.31 273.11ZM158.80 238.94L156.25 226.86L145.08 223.32L136.46 231.87L139.00 243.95L150.17 247.48ZM139.00 243.95L136.46 231.87L125.29 228.34L116.67 236.89L119.22 248.96L130.38 252.49ZM172.51 254.56L169.97 242.48L158.80 238.94L150.17 247.48L152.71 259.56L163.88 263.10ZM99.44 253.98L96.89 241.91L85.73 238.38L77.12 246.93L79.68 259.00L90.84 262.53ZM79.68 259.00L77.12 246.93L65.96 243.41L57.36 251.96L59.92 264.03L71.07 267.55ZM105.51 233.36L102.96 221.28L91.79 217.76L83.18 226.31L85.73 238.38L96.89 241.91ZM85.73 238.38L83.18 226.31L72.01 222.79L63.41 231.34L65.96 243.41L77.12 246.93ZM113.15 269.58L110.61 257.51L99.44 253.98L90.84 262.53L93.39 274.60L104.54 278.12ZM119.22 248.96L116.67 236.89L105.51 233.36L96.89 241.91L99.44 253.98L110.61 257.51ZM184.69 213.30L182.15 201.21L170.97 197.67L162.34 206.22L164.88 218.31L176.06 221.85ZM164.88 218.31L162.34 206.22L151.16 202.69L142.54 211.24L145.08 223.32L156.25 226.86ZM190.79 192.66L188.25 180.57L177.07 177.03L168.43 185.58L170.97 197.67L182.15 201.21ZM170.97 197.67L168.43 185.58L157.25 182.05L148.62 190.60L151.16 202.69L162.34 206.22ZM198.40 228.93L195.87 216.85L184.69 213.30L176.06 221.85L178.60 233.94L189.77 237.48ZM178.60 233.94L176.06 221.85L164.88 218.31L156.25 226.86L158.80 238.94L169.97 242.48ZM204.51 208.30L201.97 196.21L190.79 192.66L182.15 201.21L184.69 213.30L195.87 216.85ZM259.34 270.87L256.81 258.78L245.64 255.22L236.99 263.76L239.52 275.84L250.70 279.40ZM265.46 250.24L262.93 238.15L251.75 234.60L243.11 243.13L245.64 255.22L256.81 258.78ZM245.64 255.22L243.11 243.13L231.93 239.58L223.29 248.12L225.82 260.21L236.99 263.76ZM206.01 265.19L203.48 253.11L192.31 249.56L183.67 258.10L186.21 270.18L197.38 273.73ZM186.21 270.18L183.67 258.10L172.51 254.56L163.88 263.10L166.42 275.18L177.59 278.72ZM212.11 244.57L209.58 232.48L198.40 228.93L189.77 237.48L192.31 249.56L203.48 253.11ZM192.31 249.56L189.77 237.48L178.60 233.94L169.97 242.48L172.51 254.56L183.67 258.10ZM225.82 260.21L223.29 248.12L212.11 244.57L203.48 253.11L206.01 265.19L217.18 268.74ZM259.61 22.28L257.07 10.16L245.86 6.61L237.18 15.18L239.72 27.31L250.93 30.86ZM239.72 27.31L237.18 15.18L225.97 11.64L217.30 20.22L219.84 32.34L231.05 35.88ZM245.86 6.61L243.32 -5.52L232.10 -9.07L223.43 -0.49L225.97 11.64L237.18 15.18ZM273.36 37.96L270.82 25.84L259.61 22.28L250.93 30.86L253.47 42.98L264.68 46.53ZM253.47 42.98L250.93 30.86L239.72 27.31L231.05 35.88L233.59 48.00L244.80 51.55ZM261.08 79.34L258.54 67.22L247.33 63.67L238.67 72.24L241.20 84.35L252.41 87.90ZM267.21 58.65L264.68 46.53L253.47 42.98L244.80 51.55L247.33 63.67L258.54 67.22ZM274.81 95.01L272.28 82.89L261.08 79.34L252.41 87.90L254.94 100.02L266.14 103.57ZM174.00 63.09L171.45 50.98L160.25 47.45L151.60 56.03L154.15 68.13L165.35 71.67ZM154.15 68.13L151.60 56.03L140.40 52.50L131.76 61.07L134.31 73.18L145.51 76.71ZM180.11 42.41L177.56 30.29L166.35 26.76L157.70 35.34L160.25 47.45L171.45 50.98ZM160.25 47.45L157.70 35.34L146.50 31.81L137.85 40.39L140.40 52.50L151.60 56.03ZM187.74 78.74L185.20 66.63L174.00 63.09L165.35 71.67L167.90 83.77L179.09 87.31ZM167.90 83.77L165.35 71.67L154.15 68.13L145.51 76.71L148.06 88.81L159.25 92.34ZM193.85 58.06L191.31 45.95L180.11 42.41L171.45 50.98L174.00 63.09L185.20 66.63ZM120.56 57.55L118.01 45.44L106.81 41.92L98.17 50.50L100.73 62.60L111.92 66.13ZM100.73 62.60L98.17 50.50L86.98 46.98L78.35 55.57L80.91 67.66L92.10 71.18ZM126.65 36.86L124.09 24.75L112.89 21.23L104.25 29.82L106.81 41.92L118.01 45.44ZM106.81 41.92L104.25 29.82L93.06 26.29L84.42 34.88L86.98 46.98L98.17 50.50ZM134.31 73.18L131.76 61.07L120.56 57.55L111.92 66.13L114.48 78.23L125.67 81.75ZM114.48 78.23L111.92 66.13L100.73 62.60L92.10 71.18L94.66 83.28L105.85 86.80ZM140.40 52.50L137.85 40.39L126.65 36.86L118.01 45.44L120.56 57.55L131.76 61.07ZM206.09 16.67L203.54 4.55L192.33 1.01L183.67 9.60L186.22 21.71L197.42 25.25ZM186.22 21.71L183.67 9.60L172.46 6.06L163.80 14.64L166.35 26.76L177.56 30.29ZM212.21 -4.03L209.67 -16.15L198.45 -19.69L189.79 -11.11L192.33 1.01L203.54 4.55ZM192.33 1.01L189.79 -11.11L178.57 -14.64L169.91 -6.06L172.46 6.06L183.67 9.60ZM219.84 32.34L217.30 20.22L206.09 16.67L197.42 25.25L199.97 37.37L211.18 40.91ZM199.97 37.37L197.42 25.25L186.22 21.71L177.56 30.29L180.11 42.41L191.31 45.95ZM225.97 11.64L223.43 -0.49L212.21 -4.03L203.54 4.55L206.09 16.67L217.30 20.22ZM152.60 11.11L150.04 -1.00L138.84 -4.53L130.19 4.06L132.74 16.17L143.95 19.70ZM132.74 16.17L130.19 4.06L118.98 0.53L110.34 9.12L112.89 21.23L124.09 24.75ZM138.84 -4.53L136.28 -16.65L125.07 -20.17L116.42 -11.58L118.98 0.53L130.19 4.06ZM166.35 26.76L163.80 14.64L152.60 11.11L143.95 19.70L146.50 31.81L157.70 35.34ZM146.50 31.81L143.95 19.70L132.74 16.17L124.09 24.75L126.65 36.86L137.85 40.39ZM172.46 6.06L169.91 -6.06L158.70 -9.59L150.04 -1.00L152.60 11.11L163.80 14.64ZM195.37 115.06L192.83 102.96L181.64 99.42L172.99 107.98L175.53 120.08L186.72 123.62ZM175.53 120.08L172.99 107.98L161.80 104.45L153.15 113.01L155.70 125.11L166.89 128.65ZM201.48 94.39L198.94 82.28L187.74 78.74L179.09 87.31L181.64 99.42L192.83 102.96ZM181.64 99.42L179.09 87.31L167.90 83.77L159.25 92.34L161.80 104.45L172.99 107.98ZM209.11 130.71L206.57 118.60L195.37 115.06L186.72 123.62L189.27 135.72L200.46 139.27ZM189.27 135.72L186.72 123.62L175.53 120.08L166.89 128.65L169.43 140.75L180.62 144.28ZM215.22 110.04L212.68 97.93L201.48 94.39L192.83 102.96L195.37 115.06L206.57 118.60ZM141.96 109.48L139.41 97.38L128.22 93.85L119.59 102.42L122.14 114.52L133.33 118.05ZM122.14 114.52L119.59 102.42L108.40 98.90L99.77 107.47L102.33 119.56L113.51 123.09ZM148.06 88.81L145.51 76.71L134.31 73.18L125.67 81.75L128.22 93.85L139.41 97.38ZM128.22 93.85L125.67 81.75L114.48 78.23L105.85 86.80L108.40 98.90L119.59 102.42ZM155.70 125.11L153.15 113.01L141.96 109.48L133.33 118.05L135.88 130.15L147.06 133.68ZM135.88 130.15L133.33 118.05L122.14 114.52L113.51 123.09L116.06 135.18L127.24 138.71ZM161.80 104.45L159.25 92.34L148.06 88.81L139.41 97.38L141.96 109.48L153.15 113.01ZM227.46 68.69L224.92 56.57L213.72 53.03L205.06 61.60L207.60 73.71L218.80 77.26ZM207.60 73.71L205.06 61.60L193.85 58.06L185.20 66.63L187.74 78.74L198.94 82.28ZM233.59 48.00L231.05 35.88L219.84 32.34L211.18 40.91L213.72 53.03L224.92 56.57ZM213.72 53.03L211.18 40.91L199.97 37.37L191.31 45.95L193.85 58.06L205.06 61.60ZM241.20 84.35L238.67 72.24L227.46 68.69L218.80 77.26L221.34 89.37L232.54 92.92ZM221.34 89.37L218.80 77.26L207.60 73.71L198.94 82.28L201.48 94.39L212.68 97.93ZM247.33 63.67L244.80 51.55L233.59 48.00L224.92 56.57L227.46 68.69L238.67 72.24ZM270.13 172.67L267.60 160.57L256.41 157.01L247.75 165.56L250.28 177.66L261.47 181.22ZM250.28 177.66L247.75 165.56L236.56 162.01L227.91 170.56L230.44 182.66L241.63 186.21ZM276.27 152.02L273.74 139.91L262.54 136.35L253.88 144.90L256.41 157.01L267.60 160.57ZM256.41 157.01L253.88 144.90L242.68 141.35L234.03 149.91L236.56 162.01L247.75 165.56ZM264.00 193.32L261.47 181.22L250.28 177.66L241.63 186.21L244.16 198.31L255.35 201.86ZM216.72 167.01L214.18 154.91L203.00 151.37L194.35 159.92L196.89 172.02L208.07 175.56ZM196.89 172.02L194.35 159.92L183.16 156.38L174.52 164.94L177.07 177.03L188.25 180.57ZM222.84 146.36L220.30 134.25L209.11 130.71L200.46 139.27L203.00 151.37L214.18 154.91ZM203.00 151.37L200.46 139.27L189.27 135.72L180.62 144.28L183.16 156.38L194.35 159.92ZM230.44 182.66L227.91 170.56L216.72 167.01L208.07 175.56L210.61 187.66L221.79 191.21ZM210.61 187.66L208.07 175.56L196.89 172.02L188.25 180.57L190.79 192.66L201.97 196.21ZM236.56 162.01L234.03 149.91L222.84 146.36L214.18 154.91L216.72 167.01L227.91 170.56ZM248.81 120.69L246.28 108.58L235.08 105.03L226.42 113.59L228.95 125.70L240.15 129.24ZM228.95 125.70L226.42 113.59L215.22 110.04L206.57 118.60L209.11 130.71L220.30 134.25ZM254.94 100.02L252.41 87.90L241.20 84.35L232.54 92.92L235.08 105.03L246.28 108.58ZM235.08 105.03L232.54 92.92L221.34 89.37L212.68 97.93L215.22 110.04L226.42 113.59ZM262.54 136.35L260.01 124.24L248.81 120.69L240.15 129.24L242.68 141.35L253.88 144.90ZM242.68 141.35L240.15 129.24L228.95 125.70L220.30 134.25L222.84 146.36L234.03 149.91ZM268.67 115.68L266.14 103.57L254.94 100.02L246.28 108.58L248.81 120.69L260.01 124.24ZM271.59 229.61L269.06 217.52L257.88 213.96L249.22 222.50L251.75 234.60L262.93 238.15ZM277.72 208.98L275.19 196.88L264.00 193.32L255.35 201.86L257.88 213.96L269.06 217.52ZM238.04 218.95L235.51 206.85L224.33 203.30L215.68 211.85L218.22 223.94L229.40 227.49ZM218.22 223.94L215.68 211.85L204.51 208.30L195.87 216.85L198.40 228.93L209.58 232.48ZM244.16 198.31L241.63 186.21L230.44 182.66L221.79 191.21L224.33 203.30L235.51 206.85ZM224.33 203.30L221.79 191.21L210.61 187.66L201.97 196.21L204.51 208.30L215.68 211.85ZM251.75 234.60L249.22 222.50L238.04 218.95L229.40 227.49L231.93 239.58L243.11 243.13ZM231.93 239.58L229.40 227.49L218.22 223.94L209.58 232.48L212.11 244.57L223.29 248.12ZM257.88 213.96L255.35 201.86L244.16 198.31L235.51 206.85L238.04 218.95L249.22 222.50ZM6.06 10.31L3.49 -1.78L-7.70 -5.28L-16.32 3.31L-13.74 15.41L-2.55 18.91ZM35.23 98.47L32.67 86.38L21.49 82.87L12.88 91.45L15.44 103.54L26.62 107.04ZM15.44 103.54L12.88 91.45L1.70 87.95L-6.91 96.53L-4.34 108.61L6.84 112.12ZM41.29 77.80L38.72 65.70L27.53 62.20L18.92 70.78L21.49 82.87L32.67 86.38ZM21.49 82.87L18.92 70.78L7.74 67.28L-0.87 75.86L1.70 87.95L12.88 91.45ZM48.98 114.06L46.42 101.98L35.23 98.47L26.62 107.04L29.19 119.13L40.36 122.64ZM29.19 119.13L26.62 107.04L15.44 103.54L6.84 112.12L9.40 124.20L20.58 127.70ZM55.03 93.40L52.47 81.31L41.29 77.80L32.67 86.38L35.23 98.47L46.42 101.98ZM67.16 52.05L64.59 39.95L53.40 36.44L44.78 45.02L47.34 57.12L58.53 60.63ZM47.34 57.12L44.78 45.02L33.59 41.52L24.97 50.10L27.53 62.20L38.72 65.70ZM73.22 31.36L70.66 19.26L59.46 15.75L50.84 24.34L53.40 36.44L64.59 39.95ZM53.40 36.44L50.84 24.34L39.64 20.83L31.02 29.42L33.59 41.52L44.78 45.02ZM80.91 67.66L78.35 55.57L67.16 52.05L58.53 60.63L61.09 72.73L72.28 76.24ZM61.09 72.73L58.53 60.63L47.34 57.12L38.72 65.70L41.29 77.80L52.47 81.31ZM86.98 46.98L84.42 34.88L73.22 31.36L64.59 39.95L67.16 52.05L78.35 55.57ZM13.78 46.60L11.21 34.50L0.02 31.00L-8.59 39.60L-6.02 51.69L5.16 55.19ZM19.83 25.91L17.26 13.82L6.06 10.31L-2.55 18.91L0.02 31.00L11.21 34.50ZM0.02 31.00L-2.55 18.91L-13.74 15.41L-22.35 24.01L-19.78 36.10L-8.59 39.60ZM27.53 62.20L24.97 50.10L13.78 46.60L5.16 55.19L7.74 67.28L18.92 70.78ZM7.74 67.28L5.16 55.19L-6.02 51.69L-14.63 60.27L-12.06 72.36L-0.87 75.86ZM33.59 41.52L31.02 29.42L19.83 25.91L11.21 34.50L13.78 46.60L24.97 50.10ZM56.66 150.32L54.10 138.24L42.93 134.72L34.32 143.29L36.88 155.37L48.05 158.89ZM36.88 155.37L34.32 143.29L23.14 139.78L14.54 148.36L17.11 160.43L28.27 163.94ZM62.72 129.67L60.16 117.58L48.98 114.06L40.36 122.64L42.93 134.72L54.10 138.24ZM42.93 134.72L40.36 122.64L29.19 119.13L20.58 127.70L23.14 139.78L34.32 143.29ZM70.40 165.92L67.84 153.84L56.66 150.32L48.05 158.89L50.61 170.97L61.78 174.48ZM50.61 170.97L48.05 158.89L36.88 155.37L28.27 163.94L30.84 176.02L42.01 179.53ZM76.46 145.27L73.90 133.18L62.72 129.67L54.10 138.24L56.66 150.32L67.84 153.84ZM88.59 103.95L86.03 91.86L74.84 88.34L66.22 96.91L68.78 109.01L79.96 112.52ZM68.78 109.01L66.22 96.91L55.03 93.40L46.42 101.98L48.98 114.06L60.16 117.58ZM94.66 83.28L92.10 71.18L80.91 67.66L72.28 76.24L74.84 88.34L86.03 91.86ZM74.84 88.34L72.28 76.24L61.09 72.73L52.47 81.31L55.03 93.40L66.22 96.91ZM102.33 119.56L99.77 107.47L88.59 103.95L79.96 112.52L82.52 124.61L93.70 128.13ZM82.52 124.61L79.96 112.52L68.78 109.01L60.16 117.58L62.72 129.67L73.90 133.18ZM108.40 98.90L105.85 86.80L94.66 83.28L86.03 91.86L88.59 103.95L99.77 107.47ZM99.13 5.60L96.57 -6.51L85.37 -10.03L76.73 -1.43L79.30 10.67L90.49 14.19ZM79.30 10.67L76.73 -1.43L65.53 -4.95L56.90 3.64L59.46 15.75L70.66 19.26ZM112.89 21.23L110.34 9.12L99.13 5.60L90.49 14.19L93.06 26.29L104.25 29.82ZM93.06 26.29L90.49 14.19L79.30 10.67L70.66 19.26L73.22 31.36L84.42 34.88ZM118.98 0.53L116.42 -11.58L105.22 -15.10L96.57 -6.51L99.13 5.60L110.34 9.12ZM45.70 0.13L43.13 -11.97L31.93 -15.48L23.31 -6.88L25.88 5.22L37.07 8.73ZM25.88 5.22L23.31 -6.88L12.11 -10.38L3.49 -1.78L6.06 10.31L17.26 13.82ZM59.46 15.75L56.90 3.64L45.70 0.13L37.07 8.73L39.64 20.83L50.84 24.34ZM39.64 20.83L37.07 8.73L25.88 5.22L17.26 13.82L19.83 25.91L31.02 29.42ZM65.53 -4.95L62.97 -17.06L51.77 -20.57L43.13 -11.97L45.70 0.13L56.90 3.64Z"/><path data-band="2" fill="#f97316" fill-opacity="0.35" d="M58.29 207.20L55.73 195.12L44.57 191.61L35.96 200.17L38.52 212.24L49.69 215.75ZM72.01 222.79L69.46 210.71L58.29 207.20L49.69 215.75L52.25 227.82L63.41 231.34ZM6.71 258.53L4.14 246.46L-7.01 242.96L-15.59 251.51L-13.03 263.57L-1.88 267.08ZM12.73 237.91L10.17 225.84L-0.99 222.34L-9.58 230.90L-7.01 242.96L4.14 246.46ZM24.80 196.66L22.24 184.58L11.07 181.07L2.47 189.64L5.04 201.71L16.20 205.22ZM5.04 201.71L2.47 189.64L-8.69 186.13L-17.28 194.70L-14.71 206.77L-3.55 210.27ZM30.84 176.02L28.27 163.94L17.11 160.43L8.50 169.00L11.07 181.07L22.24 184.58ZM11.07 181.07L8.50 169.00L-2.66 165.50L-11.26 174.06L-8.69 186.13L2.47 189.64ZM38.52 212.24L35.96 200.17L24.80 196.66L16.20 205.22L18.76 217.29L29.92 220.80ZM18.76 217.29L16.20 205.22L5.04 201.71L-3.55 210.27L-0.99 222.34L10.17 225.84ZM44.57 191.61L42.01 179.53L30.84 176.02L22.24 184.58L24.80 196.66L35.96 200.17ZM46.20 248.45L43.64 236.38L32.49 232.86L23.89 241.42L26.45 253.48L37.61 257.00ZM26.45 253.48L23.89 241.42L12.73 237.91L4.14 246.46L6.71 258.53L17.86 262.03ZM52.25 227.82L49.69 215.75L38.52 212.24L29.92 220.80L32.49 232.86L43.64 236.38ZM32.49 232.86L29.92 220.80L18.76 217.29L10.17 225.84L12.73 237.91L23.89 241.42ZM59.92 264.03L57.36 251.96L46.20 248.45L37.61 257.00L40.16 269.06L51.32 272.58ZM40.16 269.06L37.61 257.00L26.45 253.48L17.86 262.03L20.42 274.10L31.57 277.61ZM65.96 243.41L63.41 231.34L52.25 227.82L43.64 236.38L46.20 248.45L57.36 251.96ZM1.70 87.95L-0.87 75.86L-12.06 72.36L-20.66 80.95L-18.09 93.03L-6.91 96.53ZM3.37 144.85L0.80 132.77L-10.37 129.27L-18.97 137.85L-16.40 149.92L-5.23 153.42ZM9.40 124.20L6.84 112.12L-4.34 108.61L-12.94 117.19L-10.37 129.27L0.80 132.77ZM17.11 160.43L14.54 148.36L3.37 144.85L-5.23 153.42L-2.66 165.50L8.50 169.00ZM23.14 139.78L20.58 127.70L9.40 124.20L0.80 132.77L3.37 144.85L14.54 148.36Z"/></svg>
