<svg xmlns="http://www.w3.org/2000/svg" width="256" height="256" viewBox="0 0 256 256"><path data-band="1" fill="#fde68a" fill-opacity="0.35" d="M102.62 111.57L100.08 99.51L88.93 95.98L80.34 104.51L82.89 116.56L94.03 120.09ZM108.68 90.98L106.13 78.92L94.98 75.39L86.38 83.92L88.93 95.98L100.08 99.51ZM120.79 49.79L118.25 37.72L107.09 34.19L98.49 42.73L101.03 54.79L112.19 58.32ZM126.86 29.18L124.31 17.11L113.15 13.58L104.54 22.12L107.09 34.19L118.25 37.72ZM107.09 34.19L104.54 22.12L93.39 18.60L84.78 27.14L87.33 39.20L98.49 42.73ZM134.49 65.39L131.95 53.32L120.79 49.79L112.19 58.32L114.73 70.39L125.88 73.92ZM114.73 70.39L112.19 58.32L101.03 54.79L92.43 63.33L94.98 75.39L106.13 78.92ZM140.56 44.79L138.02 32.72L126.86 29.18L118.25 37.72L120.79 49.79L131.95 53.32ZM87.33 39.20L84.78 27.14L73.63 23.62L65.03 32.16L67.58 44.22L78.73 47.74ZM110.26 147.73L107.71 135.67L96.57 132.14L87.98 140.67L90.53 152.72L101.66 156.25ZM116.31 127.15L113.77 115.10L102.62 111.57L94.03 120.09L96.57 132.14L107.71 135.67ZM123.94 163.31L121.40 151.26L110.26 147.73L101.66 156.25L104.21 168.29L115.34 171.83ZM104.21 168.29L101.66 156.25L90.53 152.72L81.94 161.24L84.49 173.28L95.62 176.81ZM129.99 142.74L127.45 130.69L116.31 127.15L107.71 135.67L110.26 147.73L121.40 151.26ZM142.12 101.58L139.58 89.52L128.43 85.98L119.82 94.51L122.37 106.57L133.51 110.11ZM122.37 106.57L119.82 94.51L108.68 90.98L100.08 99.51L102.62 111.57L113.77 115.10ZM148.19 80.99L145.65 68.92L134.49 65.39L125.88 73.92L128.43 85.98L139.58 89.52ZM128.43 85.98L125.88 73.92L114.73 70.39L106.13 78.92L108.68 90.98L119.82 94.51ZM155.81 117.18L153.27 105.12L142.12 101.58L133.51 110.11L136.05 122.17L147.20 125.70ZM136.05 122.17L133.51 110.11L122.37 106.57L113.77 115.10L116.31 127.15L127.45 130.69ZM161.88 96.60L159.34 84.53L148.19 80.99L139.58 89.52L142.12 101.58L153.27 105.12ZM152.71 3.56L150.17 -8.52L139.00 -12.05L130.38 -3.51L132.93 8.57L144.09 12.10ZM132.93 8.57L130.38 -3.51L119.22 -7.04L110.61 1.51L113.15 13.58L124.31 17.11ZM166.42 19.18L163.88 7.10L152.71 3.56L144.09 12.10L146.64 24.18L157.80 27.72ZM146.64 24.18L144.09 12.10L132.93 8.57L124.31 17.11L126.86 29.18L138.02 32.72ZM172.51 -1.44L169.97 -13.52L158.80 -17.06L150.17 -8.52L152.71 3.56L163.88 7.10ZM99.44 -2.02L96.89 -14.09L85.73 -17.62L77.12 -9.07L79.68 3.00L90.84 6.53ZM79.68 3.00L77.12 -9.07L65.96 -12.59L57.36 -4.04L59.92 8.03L71.07 11.55ZM113.15 13.58L110.61 1.51L99.44 -2.02L90.84 6.53L93.39 18.60L104.54 22.12ZM93.39 18.60L90.84 6.53L79.68 3.00L71.07 11.55L73.63 23.62L84.78 27.14ZM119.22 -7.04L116.67 -19.11L105.51 -22.64L96.89 -14.09L99.44 -2.02L110.61 1.51ZM184.69 205.12L182.16 193.07L171.02 189.52L162.42 198.03L164.95 210.08L176.09 213.63ZM164.95 210.08L162.42 198.03L151.29 194.49L142.69 203.00L145.23 215.04L156.36 218.58ZM190.77 184.56L188.24 172.51L177.09 168.96L168.49 177.47L171.02 189.52L182.16 193.07ZM171.02 189.52L168.49 177.47L157.35 173.93L148.75 182.44L151.29 194.49L162.42 198.03ZM198.36 220.72L195.83 208.67L184.69 205.12L176.09 213.63L178.62 225.67L189.75 229.22ZM178.62 225.67L176.09 213.63L164.95 210.08L156.36 218.58L158.89 230.63L170.02 234.17ZM204.44 200.17L201.91 188.11L190.77 184.56L182.16 193.07L184.69 205.12L195.83 208.67ZM131.56 199.46L129.02 187.41L117.88 183.87L109.29 192.39L111.84 204.43L122.97 207.97ZM111.84 204.43L109.29 192.39L98.16 188.85L89.58 197.37L92.12 209.41L103.25 212.94ZM137.61 178.90L135.07 166.85L123.94 163.31L115.34 171.83L117.88 183.87L129.02 187.41ZM117.88 183.87L115.34 171.83L104.21 168.29L95.62 176.81L98.16 188.85L109.29 192.39ZM145.23 215.04L142.69 203.00L131.56 199.46L122.97 207.97L125.50 220.01L136.63 223.55ZM125.50 220.01L122.97 207.97L111.84 204.43L103.25 212.94L105.79 224.98L116.92 228.51ZM151.29 194.49L148.75 182.44L137.61 178.90L129.02 187.41L131.56 199.46L142.69 203.00ZM216.61 159.04L214.08 146.98L202.93 143.42L194.32 151.94L196.85 164.00L207.99 167.55ZM196.85 164.00L194.32 151.94L183.17 148.39L174.56 156.90L177.09 168.96L188.24 172.51ZM222.70 138.46L220.17 126.40L209.02 122.84L200.40 131.36L202.93 143.42L214.08 146.98ZM202.93 143.42L200.40 131.36L189.25 127.81L180.64 136.33L183.17 148.39L194.32 151.94ZM230.28 174.65L227.75 162.59L216.61 159.04L207.99 167.55L210.52 179.61L221.66 183.16ZM210.52 179.61L207.99 167.55L196.85 164.00L188.24 172.51L190.77 184.56L201.91 188.11ZM236.38 154.08L233.85 142.02L222.70 138.46L214.08 146.98L216.61 159.04L227.75 162.59ZM163.42 153.36L160.88 141.30L149.74 137.76L141.13 146.28L143.67 158.33L154.81 161.87ZM143.67 158.33L141.13 146.28L129.99 142.74L121.40 151.26L123.94 163.31L135.07 166.85ZM169.49 132.78L166.95 120.72L155.81 117.18L147.20 125.70L149.74 137.76L160.88 141.30ZM149.74 137.76L147.20 125.70L136.05 122.17L127.45 130.69L129.99 142.74L141.13 146.28ZM177.09 168.96L174.56 156.90L163.42 153.36L154.81 161.87L157.35 173.93L168.49 177.47ZM157.35 173.93L154.81 161.87L143.67 158.33L135.07 166.85L137.61 178.90L148.75 182.44ZM183.17 148.39L180.64 136.33L169.49 132.78L160.88 141.30L163.42 153.36L174.56 156.90ZM205.94 256.87L203.41 244.82L192.28 241.27L183.68 249.77L186.21 261.81L197.34 265.36ZM186.21 261.81L183.68 249.77L172.55 246.22L163.96 254.72L166.49 266.76L177.61 270.30ZM212.02 236.33L209.49 224.27L198.36 220.72L189.75 229.22L192.28 241.27L203.41 244.82ZM192.28 241.27L189.75 229.22L178.62 225.67L170.02 234.17L172.55 246.22L183.68 249.77ZM225.68 251.93L223.15 239.88L212.02 236.33L203.41 244.82L205.94 256.87L217.07 260.42ZM152.83 251.17L150.30 239.13L139.17 235.59L130.58 244.09L133.12 256.13L144.24 259.67ZM133.12 256.13L130.58 244.09L119.46 240.55L110.87 249.06L113.41 261.09L124.53 264.63ZM158.89 230.63L156.36 218.58L145.23 215.04L136.63 223.55L139.17 235.59L150.30 239.13ZM139.17 235.59L136.63 223.55L125.50 220.01L116.92 228.51L119.46 240.55L130.58 244.09ZM166.49 266.76L163.96 254.72L152.83 251.17L144.24 259.67L146.77 271.71L157.90 275.25ZM172.55 246.22L170.02 234.17L158.89 230.63L150.30 239.13L152.83 251.17L163.96 254.72ZM237.85 210.83L235.33 198.78L224.19 195.22L215.57 203.72L218.10 215.78L229.24 219.33ZM218.10 215.78L215.57 203.72L204.44 200.17L195.83 208.67L198.36 220.72L209.49 224.27ZM243.95 190.27L241.43 178.21L230.28 174.65L221.66 183.16L224.19 195.22L235.33 198.78ZM224.19 195.22L221.66 183.16L210.52 179.61L201.91 188.11L204.44 200.17L215.57 203.72ZM251.52 226.45L248.99 214.39L237.85 210.83L229.24 219.33L231.76 231.39L242.90 234.94ZM231.76 231.39L229.24 219.33L218.10 215.78L209.49 224.27L212.02 236.33L223.15 239.88ZM257.61 205.90L255.09 193.83L243.95 190.27L235.33 198.78L237.85 210.83L248.99 214.39ZM99.75 245.52L97.21 233.49L86.09 229.96L77.51 238.46L80.05 250.49L91.17 254.02ZM80.05 250.49L77.51 238.46L66.39 234.93L57.82 243.44L60.37 255.47L71.48 259.00ZM105.79 224.98L103.25 212.94L92.12 209.41L83.54 217.92L86.09 229.96L97.21 233.49ZM113.41 261.09L110.87 249.06L99.75 245.52L91.17 254.02L93.71 266.06L104.83 269.59ZM93.71 266.06L91.17 254.02L80.05 250.49L71.48 259.00L74.03 271.03L85.14 274.56ZM119.46 240.55L116.92 228.51L105.79 224.98L97.21 233.49L99.75 245.52L110.87 249.06ZM227.31 61.06L224.78 48.99L213.61 45.43L204.98 53.96L207.52 66.04L218.68 69.59ZM207.52 66.04L204.98 53.96L193.82 50.42L185.20 58.95L187.73 71.02L198.89 74.57ZM233.42 40.46L230.88 28.37L219.72 24.82L211.08 33.36L213.61 45.43L224.78 48.99ZM213.61 45.43L211.08 33.36L199.92 29.81L191.29 38.34L193.82 50.42L204.98 53.96ZM241.00 76.70L238.47 64.62L227.31 61.06L218.68 69.59L221.21 81.66L232.37 85.22ZM221.21 81.66L218.68 69.59L207.52 66.04L198.89 74.57L201.42 86.64L212.58 90.19ZM247.11 56.09L244.58 44.01L233.42 40.46L224.78 48.99L227.31 61.06L238.47 64.62ZM174.04 55.40L171.50 43.33L160.34 39.79L151.72 48.32L154.26 60.39L165.42 63.93ZM154.26 60.39L151.72 48.32L140.56 44.79L131.95 53.32L134.49 65.39L145.65 68.92ZM180.12 34.80L177.59 22.72L166.42 19.18L157.80 27.72L160.34 39.79L171.50 43.33ZM160.34 39.79L157.80 27.72L146.64 24.18L138.02 32.72L140.56 44.79L151.72 48.32ZM187.73 71.02L185.20 58.95L174.04 55.40L165.42 63.93L167.96 76.00L179.11 79.55ZM167.96 76.00L165.42 63.93L154.26 60.39L145.65 68.92L148.19 80.99L159.34 84.53ZM193.82 50.42L191.29 38.34L180.12 34.80L171.50 43.33L174.04 55.40L185.20 58.95ZM259.34 14.87L256.81 2.78L245.64 -0.78L236.99 7.76L239.52 19.84L250.70 23.40ZM239.52 19.84L236.99 7.76L225.82 4.21L217.18 12.74L219.72 24.82L230.88 28.37ZM265.46 -5.76L262.93 -17.85L251.75 -21.40L243.11 -12.87L245.64 -0.78L256.81 2.78ZM245.64 -0.78L243.11 -12.87L231.93 -16.42L223.29 -7.88L225.82 4.21L236.99 7.76ZM273.04 30.52L270.51 18.43L259.34 14.87L250.70 23.40L253.22 35.48L264.39 39.04ZM253.22 35.48L250.70 23.40L239.52 19.84L230.88 28.37L233.42 40.46L244.58 44.01ZM206.01 9.19L203.48 -2.89L192.31 -6.44L183.67 2.10L186.21 14.18L197.38 17.73ZM186.21 14.18L183.67 2.10L172.51 -1.44L163.88 7.10L166.42 19.18L177.59 22.72ZM192.31 -6.44L189.77 -18.52L178.60 -22.06L169.97 -13.52L172.51 -1.44L183.67 2.10ZM219.72 24.82L217.18 12.74L206.01 9.19L197.38 17.73L199.92 29.81L211.08 33.36ZM199.92 29.81L197.38 17.73L186.21 14.18L177.59 22.72L180.12 34.80L191.29 38.34ZM225.82 4.21L223.29 -7.88L212.11 -11.43L203.48 -2.89L206.01 9.19L217.18 12.74ZM248.58 112.92L246.06 100.85L234.90 97.29L226.27 105.81L228.80 117.88L239.95 121.44ZM228.80 117.88L226.27 105.81L215.11 102.26L206.49 110.78L209.02 122.84L220.17 126.40ZM254.69 92.33L252.16 80.25L241.00 76.70L232.37 85.22L234.90 97.29L246.06 100.85ZM234.90 97.29L232.37 85.22L221.21 81.66L212.58 90.19L215.11 102.26L226.27 105.81ZM262.26 128.55L259.74 116.48L248.58 112.92L239.95 121.44L242.48 133.51L253.63 137.07ZM242.48 133.51L239.95 121.44L228.80 117.88L220.17 126.40L222.70 138.46L233.85 142.02ZM268.37 107.97L265.85 95.89L254.69 92.33L246.06 100.85L248.58 112.92L259.74 116.48ZM195.34 107.23L192.80 95.16L181.65 91.61L173.03 100.14L175.57 112.20L186.72 115.75ZM175.57 112.20L173.03 100.14L161.88 96.60L153.27 105.12L155.81 117.18L166.95 120.72ZM201.42 86.64L198.89 74.57L187.73 71.02L179.11 79.55L181.65 91.61L192.80 95.16ZM181.65 91.61L179.11 79.55L167.96 76.00L159.34 84.53L161.88 96.60L173.03 100.14ZM209.02 122.84L206.49 110.78L195.34 107.23L186.72 115.75L189.25 127.81L200.40 131.36ZM189.25 127.81L186.72 115.75L175.57 112.20L166.95 120.72L169.49 132.78L180.64 136.33ZM215.11 102.26L212.58 90.19L201.42 86.64L192.80 95.16L195.34 107.23L206.49 110.78ZM260.80 71.73L258.28 59.65L247.11 56.09L238.47 64.62L241.00 76.70L252.16 80.25ZM266.92 51.13L264.39 39.04L253.22 35.48L244.58 44.01L247.11 56.09L258.28 59.65ZM274.49 87.37L271.97 75.29L260.80 71.73L252.16 80.25L254.69 92.33L265.85 95.89ZM259.07 262.61L256.56 250.56L245.42 247.00L236.81 255.49L239.33 267.54L250.46 271.10ZM239.33 267.54L236.81 255.49L225.68 251.93L217.07 260.42L219.59 272.47L230.72 276.03ZM265.17 242.07L262.65 230.01L251.52 226.45L242.90 234.94L245.42 247.00L256.56 250.56ZM245.42 247.00L242.90 234.94L231.76 231.39L223.15 239.88L225.68 251.93L236.81 255.49ZM269.83 164.76L267.31 152.70L256.15 149.13L247.53 157.64L250.05 169.71L261.20 173.27ZM250.05 169.71L247.53 157.64L236.38 154.08L227.75 162.59L230.28 174.65L241.43 178.21ZM275.94 144.19L273.42 132.12L262.26 128.55L253.63 137.07L256.15 149.13L267.31 152.70ZM256.15 149.13L253.63 137.07L242.48 133.51L233.85 142.02L236.38 154.08L247.53 157.64ZM263.72 185.33L261.20 173.27L250.05 169.71L241.43 178.21L243.95 190.27L255.09 193.83ZM271.28 221.52L268.76 209.46L257.61 205.90L248.99 214.39L251.52 226.45L262.65 230.01ZM277.38 200.96L274.87 188.90L263.72 185.33L255.09 193.83L257.61 205.90L268.76 209.46Z"/><path data-band="2" fill="#f97316" fill-opacity="0.35" d="M88.93 95.98L86.38 83.92L75.24 80.40L66.64 88.93L69.20 100.99L80.34 104.51ZM69.20 100.99L66.64 88.93L55.50 85.41L46.91 93.95L49.47 106.00L60.61 109.52ZM94.98 75.39L92.43 63.33L81.28 59.80L72.69 68.34L75.24 80.40L86.38 83.92ZM75.24 80.40L72.69 68.34L61.54 64.82L52.95 73.36L55.50 85.41L66.64 88.93ZM82.89 116.56L80.34 104.51L69.20 100.99L60.61 109.52L63.16 121.57L74.30 125.09ZM35.77 90.43L33.22 78.38L22.07 74.86L13.49 83.40L16.05 95.45L27.19 98.96ZM16.05 95.45L13.49 83.40L2.35 79.89L-6.22 88.43L-3.66 100.47L7.48 103.98ZM41.80 69.84L39.25 57.78L28.10 54.27L19.52 62.81L22.07 74.86L33.22 78.38ZM22.07 74.86L19.52 62.81L8.37 59.30L-0.21 67.84L2.35 79.89L13.49 83.40ZM49.47 106.00L46.91 93.95L35.77 90.43L27.19 98.96L29.75 111.01L40.88 114.53ZM29.75 111.01L27.19 98.96L16.05 95.45L7.48 103.98L10.04 116.03L21.17 119.54ZM55.50 85.41L52.95 73.36L41.80 69.84L33.22 78.38L35.77 90.43L46.91 93.95ZM101.03 54.79L98.49 42.73L87.33 39.20L78.73 47.74L81.28 59.80L92.43 63.33ZM67.58 44.22L65.03 32.16L53.87 28.64L45.28 37.18L47.84 49.24L58.98 52.76ZM47.84 49.24L45.28 37.18L34.13 33.67L25.54 42.21L28.10 54.27L39.25 57.78ZM73.63 23.62L71.07 11.55L59.92 8.03L51.32 16.58L53.87 28.64L65.03 32.16ZM53.87 28.64L51.32 16.58L40.16 13.06L31.57 21.61L34.13 33.67L45.28 37.18ZM81.28 59.80L78.73 47.74L67.58 44.22L58.98 52.76L61.54 64.82L72.69 68.34ZM61.54 64.82L58.98 52.76L47.84 49.24L39.25 57.78L41.80 69.84L52.95 73.36ZM90.53 152.72L87.98 140.67L76.85 137.14L68.26 145.66L70.81 157.71L81.94 161.24ZM96.57 132.14L94.03 120.09L82.89 116.56L74.30 125.09L76.85 137.14L87.98 140.67ZM57.13 142.14L54.57 130.09L43.44 126.57L34.86 135.10L37.41 147.15L48.54 150.67ZM37.41 147.15L34.86 135.10L23.73 131.59L15.15 140.11L17.71 152.16L28.84 155.67ZM63.16 121.57L60.61 109.52L49.47 106.00L40.88 114.53L43.44 126.57L54.57 130.09ZM43.44 126.57L40.88 114.53L29.75 111.01L21.17 119.54L23.73 131.59L34.86 135.10ZM70.81 157.71L68.26 145.66L57.13 142.14L48.54 150.67L51.10 162.71L62.23 166.23ZM51.10 162.71L48.54 150.67L37.41 147.15L28.84 155.67L31.39 167.71L42.52 171.23ZM76.85 137.14L74.30 125.09L63.16 121.57L54.57 130.09L57.13 142.14L68.26 145.66ZM2.35 79.89L-0.21 67.84L-11.35 64.33L-19.92 72.88L-17.36 84.92L-6.22 88.43ZM4.02 136.60L1.46 124.56L-9.67 121.05L-18.24 129.58L-15.67 141.62L-4.55 145.13ZM10.04 116.03L7.48 103.98L-3.66 100.47L-12.23 109.01L-9.67 121.05L1.46 124.56ZM17.71 152.16L15.15 140.11L4.02 136.60L-4.55 145.13L-1.99 157.17L9.14 160.68ZM23.73 131.59L21.17 119.54L10.04 116.03L1.46 124.56L4.02 136.60L15.15 140.11ZM6.71 2.53L4.14 -9.54L-7.01 -13.04L-15.59 -4.49L-13.03 7.57L-1.88 11.08ZM14.39 38.70L11.83 26.64L0.69 23.13L-7.90 31.68L-5.33 43.74L5.81 47.25ZM20.42 18.10L17.86 6.03L6.71 2.53L-1.88 11.08L0.69 23.13L11.83 26.64ZM0.69 23.13L-1.88 11.08L-13.03 7.57L-21.61 16.12L-19.04 28.18L-7.90 31.68ZM28.10 54.27L25.54 42.21L14.39 38.70L5.81 47.25L8.37 59.30L19.52 62.81ZM8.37 59.30L5.81 47.25L-5.33 43.74L-13.91 52.28L-11.35 64.33L-0.21 67.84ZM34.13 33.67L31.57 21.61L20.42 18.10L11.83 26.64L14.39 38.70L25.54 42.21ZM46.20 -7.55L43.64 -19.62L32.49 -23.14L23.89 -14.58L26.45 -2.52L37.61 1.00ZM26.45 -2.52L23.89 -14.58L12.73 -18.09L4.14 -9.54L6.71 2.53L17.86 6.03ZM59.92 8.03L57.36 -4.04L46.20 -7.55L37.61 1.00L40.16 13.06L51.32 16.58ZM40.16 13.06L37.61 1.00L26.45 -2.52L17.86 6.03L20.42 18.10L31.57 21.61ZM46.70 239.92L44.15 227.89L33.03 224.37L24.47 232.88L27.02 244.91L38.13 248.43ZM27.02 244.91L24.47 232.88L13.35 229.36L4.79 237.87L7.35 249.90L18.46 253.41ZM52.72 219.38L50.17 207.34L39.05 203.82L30.48 212.34L33.03 224.37L44.15 227.89ZM33.03 224.37L30.48 212.34L19.36 208.82L10.80 217.33L13.35 229.36L24.47 232.88ZM60.37 255.47L57.82 243.44L46.70 239.92L38.13 248.43L40.68 260.45L51.80 263.98ZM40.68 260.45L38.13 248.43L27.02 244.91L18.46 253.41L21.01 265.44L32.12 268.96ZM66.39 234.93L63.84 222.90L52.72 219.38L44.15 227.89L46.70 239.92L57.82 243.44ZM7.35 249.90L4.79 237.87L-6.32 234.36L-14.88 242.87L-12.32 254.90L-1.21 258.41ZM13.35 229.36L10.80 217.33L-0.32 213.82L-8.88 222.34L-6.32 234.36L4.79 237.87ZM78.45 193.84L75.90 181.80L64.78 178.27L56.20 186.79L58.75 198.83L69.87 202.35ZM58.75 198.83L56.20 186.79L45.07 183.27L36.50 191.79L39.05 203.82L50.17 207.34ZM84.49 173.28L81.94 161.24L70.81 157.71L62.23 166.23L64.78 178.27L75.90 181.80ZM64.78 178.27L62.23 166.23L51.10 162.71L42.52 171.23L45.07 183.27L56.20 186.79ZM92.12 209.41L89.58 197.37L78.45 193.84L69.87 202.35L72.42 214.39L83.54 217.92ZM72.42 214.39L69.87 202.35L58.75 198.83L50.17 207.34L52.72 219.38L63.84 222.90ZM98.16 188.85L95.62 176.81L84.49 173.28L75.90 181.80L78.45 193.84L89.58 197.37ZM25.37 188.27L22.82 176.23L11.69 172.72L3.13 181.24L5.69 193.27L16.81 196.79ZM5.69 193.27L3.13 181.24L-7.99 177.73L-16.55 186.25L-13.99 198.28L-2.88 201.79ZM31.39 167.71L28.84 155.67L17.71 152.16L9.14 160.68L11.69 172.72L22.82 176.23ZM11.69 172.72L9.14 160.68L-1.99 157.17L-10.55 165.69L-7.99 177.73L3.13 181.24ZM39.05 203.82L36.50 191.79L25.37 188.27L16.81 196.79L19.36 208.82L30.48 212.34ZM19.36 208.82L16.81 196.79L5.69 193.27L-2.88 201.79L-0.32 213.82L10.80 217.33ZM45.07 183.27L42.52 171.23L31.39 167.71L22.82 176.23L25.37 188.27L36.50 191.79ZM74.03 271.03L71.48 259.00L60.37 255.47L51.80 263.98L54.34 276.00L65.46 279.53ZM21.01 265.44L18.46 253.41L7.35 249.90L-1.21 258.41L1.35 270.43L12.45 273.94ZM1.35 270.43L-1.21 258.41L-12.32 254.90L-20.87 263.41L-18.31 275.42L-7.21 278.93ZM86.09 229.96L83.54 217.92L72.42 214.39L63.84 222.90L66.39 234.93L77.51 238.46Z"/></svg>
