<svg xmlns="http://www.w3.org/2000/svg" width="256" height="256" viewBox="0 0 256 256"><path data-band="1" fill="#fde68a" fill-opacity="0.35" d="M16.22 265.98L13.68 254.04L2.65 250.51L-5.84 258.93L-3.30 270.87L7.72 274.40ZM22.18 245.62L19.64 233.67L8.61 230.14L0.12 238.56L2.65 250.51L13.68 254.04ZM2.65 250.51L0.12 238.56L-10.91 235.03L-19.40 243.46L-16.86 255.40L-5.84 258.93ZM35.74 261.10L33.21 249.15L22.18 245.62L13.68 254.04L16.22 265.98L27.24 269.51ZM47.69 220.35L45.15 208.40L34.12 204.86L25.61 213.29L28.14 225.24L39.18 228.78ZM28.14 225.24L25.61 213.29L14.57 209.76L6.08 218.19L8.61 230.14L19.64 233.67ZM53.66 199.97L51.13 188.01L40.09 184.48L31.58 192.90L34.12 204.86L45.15 208.40ZM34.12 204.86L31.58 192.90L20.54 189.37L12.04 197.80L14.57 209.76L25.61 213.29ZM61.25 235.85L58.72 223.89L47.69 220.35L39.18 228.78L41.71 240.73L52.75 244.26ZM41.71 240.73L39.18 228.78L28.14 225.24L19.64 233.67L22.18 245.62L33.21 249.15ZM67.23 215.47L64.71 203.51L53.66 199.97L45.15 208.40L47.69 220.35L58.72 223.89ZM1.00 194.28L-1.54 182.32L-12.58 178.80L-21.07 187.23L-18.53 199.18L-7.50 202.71ZM8.61 230.14L6.08 218.19L-4.96 214.66L-13.45 223.09L-10.91 235.03L0.12 238.56ZM14.57 209.76L12.04 197.80L1.00 194.28L-7.50 202.71L-4.96 214.66L6.08 218.19ZM74.82 251.34L72.29 239.38L61.25 235.85L52.75 244.26L55.27 256.22L66.31 259.76ZM55.27 256.22L52.75 244.26L41.71 240.73L33.21 249.15L35.74 261.10L46.77 264.63ZM88.38 266.84L85.85 254.88L74.82 251.34L66.31 259.76L68.83 271.71L79.87 275.25ZM58.04 123.27L55.50 111.30L44.45 107.77L35.93 116.21L38.47 128.18L49.52 131.71ZM38.47 128.18L35.93 116.21L24.88 112.68L16.36 121.12L18.90 133.09L29.95 136.62ZM64.03 102.86L61.49 90.88L50.43 87.35L41.91 95.79L44.45 107.77L55.50 111.30ZM44.45 107.77L41.91 95.79L30.86 92.26L22.34 100.71L24.88 112.68L35.93 116.21ZM71.62 138.78L69.09 126.81L58.04 123.27L49.52 131.71L52.05 143.68L63.10 147.22ZM52.05 143.68L49.52 131.71L38.47 128.18L29.95 136.62L32.49 148.58L43.53 152.12ZM77.62 118.37L75.09 106.39L64.03 102.86L55.50 111.30L58.04 123.27L69.09 126.81ZM5.31 117.60L2.77 105.63L-8.28 102.11L-16.79 110.55L-14.24 122.52L-3.20 126.04ZM11.28 97.18L8.74 85.21L-2.31 81.69L-10.82 90.14L-8.28 102.11L2.77 105.63ZM18.90 133.09L16.36 121.12L5.31 117.60L-3.20 126.04L-0.66 138.00L10.39 141.53ZM24.88 112.68L22.34 100.71L11.28 97.18L2.77 105.63L5.31 117.60L16.36 121.12ZM89.62 77.53L87.09 65.55L76.02 62.01L67.49 70.46L70.02 82.44L81.09 85.97ZM70.02 82.44L67.49 70.46L56.43 66.92L47.90 75.37L50.43 87.35L61.49 90.88ZM95.62 57.10L93.09 45.11L82.02 41.57L73.49 50.02L76.02 62.01L87.09 65.55ZM76.02 62.01L73.49 50.02L62.42 46.49L53.89 54.94L56.43 66.92L67.49 70.46ZM103.21 93.05L100.68 81.07L89.62 77.53L81.09 85.97L83.62 97.95L94.68 101.49ZM83.62 97.95L81.09 85.97L70.02 82.44L61.49 90.88L64.03 102.86L75.09 106.39ZM109.22 72.63L106.69 60.64L95.62 57.10L87.09 65.55L89.62 77.53L100.68 81.07ZM36.84 71.84L34.30 59.86L23.24 56.33L14.72 64.79L17.26 76.76L28.32 80.29ZM17.26 76.76L14.72 64.79L3.66 61.26L-4.86 69.72L-2.31 81.69L8.74 85.21ZM42.83 51.41L40.29 39.43L29.22 35.90L20.70 44.35L23.24 56.33L34.30 59.86ZM23.24 56.33L20.70 44.35L9.63 40.83L1.12 49.29L3.66 61.26L14.72 64.79ZM50.43 87.35L47.90 75.37L36.84 71.84L28.32 80.29L30.86 92.26L41.91 95.79ZM30.86 92.26L28.32 80.29L17.26 76.76L8.74 85.21L11.28 97.18L22.34 100.71ZM56.43 66.92L53.89 54.94L42.83 51.41L34.30 59.86L36.84 71.84L47.90 75.37ZM79.21 174.69L76.68 162.72L65.63 159.18L57.12 167.62L59.65 179.58L70.69 183.12ZM59.65 179.58L57.12 167.62L46.07 164.08L37.56 172.51L40.09 184.48L51.13 188.01ZM85.21 154.29L82.68 142.32L71.62 138.78L63.10 147.22L65.63 159.18L76.68 162.72ZM65.63 159.18L63.10 147.22L52.05 143.68L43.53 152.12L46.07 164.08L57.12 167.62ZM92.79 190.20L90.26 178.23L79.21 174.69L70.69 183.12L73.22 195.08L84.27 198.62ZM73.22 195.08L70.69 183.12L59.65 179.58L51.13 188.01L53.66 199.97L64.71 203.51ZM98.78 169.80L96.26 157.83L85.21 154.29L76.68 162.72L79.21 174.69L90.26 178.23ZM26.51 168.98L23.98 157.02L12.93 153.49L4.42 161.93L6.96 173.89L18.00 177.42ZM6.96 173.89L4.42 161.93L-6.62 158.40L-15.12 166.84L-12.58 178.80L-1.54 182.32ZM32.49 148.58L29.95 136.62L18.90 133.09L10.39 141.53L12.93 153.49L23.98 157.02ZM12.93 153.49L10.39 141.53L-0.66 138.00L-9.16 146.44L-6.62 158.40L4.42 161.93ZM40.09 184.48L37.56 172.51L26.51 168.98L18.00 177.42L20.54 189.37L31.58 192.90ZM20.54 189.37L18.00 177.42L6.96 173.89L-1.54 182.32L1.00 194.28L12.04 197.80ZM46.07 164.08L43.53 152.12L32.49 148.58L23.98 157.02L26.51 168.98L37.56 172.51ZM110.79 128.99L108.27 117.02L97.21 113.47L88.67 121.91L91.20 133.89L102.26 137.43ZM91.20 133.89L88.67 121.91L77.62 118.37L69.09 126.81L71.62 138.78L82.68 142.32ZM116.80 108.58L114.28 96.60L103.21 93.05L94.68 101.49L97.21 113.47L108.27 117.02ZM97.21 113.47L94.68 101.49L83.62 97.95L75.09 106.39L77.62 118.37L88.67 121.91ZM124.37 144.52L121.85 132.54L110.79 128.99L102.26 137.43L104.79 149.40L115.84 152.95ZM104.79 149.40L102.26 137.43L91.20 133.89L82.68 142.32L85.21 154.29L96.26 157.83ZM130.39 124.11L127.86 112.13L116.80 108.58L108.27 117.02L110.79 128.99L121.85 132.54ZM153.06 231.88L150.54 219.91L139.50 216.36L130.97 224.77L133.49 236.74L144.53 240.29ZM133.49 236.74L130.97 224.77L119.92 221.22L111.40 229.64L113.92 241.60L124.96 245.15ZM159.08 211.49L156.56 199.52L145.51 195.97L136.98 204.39L139.50 216.36L150.54 219.91ZM139.50 216.36L136.98 204.39L125.93 200.84L117.40 209.26L119.92 221.22L130.97 224.77ZM166.62 247.40L164.11 235.43L153.06 231.88L144.53 240.29L147.05 252.25L158.09 255.81ZM147.05 252.25L144.53 240.29L133.49 236.74L124.96 245.15L127.48 257.11L138.52 260.66ZM172.64 227.02L170.13 215.05L159.08 211.49L150.54 219.91L153.06 231.88L164.11 235.43ZM100.36 226.09L97.84 214.13L86.79 210.59L78.28 219.01L80.80 230.97L91.84 234.51ZM80.80 230.97L78.28 219.01L67.23 215.47L58.72 223.89L61.25 235.85L72.29 239.38ZM106.36 205.71L103.83 193.74L92.79 190.20L84.27 198.62L86.79 210.59L97.84 214.13ZM86.79 210.59L84.27 198.62L73.22 195.08L64.71 203.51L67.23 215.47L78.28 219.01ZM113.92 241.60L111.40 229.64L100.36 226.09L91.84 234.51L94.37 246.47L105.40 250.01ZM94.37 246.47L91.84 234.51L80.80 230.97L72.29 239.38L74.82 251.34L85.85 254.88ZM119.92 221.22L117.40 209.26L106.36 205.71L97.84 214.13L100.36 226.09L111.40 229.64ZM184.69 186.24L182.18 174.26L171.12 170.70L162.58 179.13L165.10 191.10L176.15 194.66ZM165.10 191.10L162.58 179.13L151.53 175.57L142.99 183.99L145.51 195.97L156.56 199.52ZM190.73 165.84L188.21 153.86L177.15 150.30L168.61 158.73L171.12 170.70L182.18 174.26ZM171.12 170.70L168.61 158.73L157.55 155.17L149.01 163.60L151.53 175.57L162.58 179.13ZM198.26 201.78L195.75 189.80L184.69 186.24L176.15 194.66L178.67 206.64L189.72 210.20ZM178.67 206.64L176.15 194.66L165.10 191.10L156.56 199.52L159.08 211.49L170.13 215.05ZM204.30 181.39L201.79 169.40L190.73 165.84L182.18 174.26L184.69 186.24L195.75 189.80ZM131.94 180.44L129.42 168.47L118.36 164.92L109.83 173.35L112.36 185.32L123.41 188.87ZM112.36 185.32L109.83 173.35L98.78 169.80L90.26 178.23L92.79 190.20L103.83 193.74ZM137.95 160.04L135.43 148.07L124.37 144.52L115.84 152.95L118.36 164.92L129.42 168.47ZM118.36 164.92L115.84 152.95L104.79 149.40L96.26 157.83L98.78 169.80L109.83 173.35ZM145.51 195.97L142.99 183.99L131.94 180.44L123.41 188.87L125.93 200.84L136.98 204.39ZM125.93 200.84L123.41 188.87L112.36 185.32L103.83 193.74L106.36 205.71L117.40 209.26ZM151.53 175.57L149.01 163.60L137.95 160.04L129.42 168.47L131.94 180.44L142.99 183.99ZM180.18 262.93L177.67 250.96L166.62 247.40L158.09 255.81L160.60 267.77L171.65 271.33ZM160.60 267.77L158.09 255.81L147.05 252.25L138.52 260.66L141.04 272.62L152.08 276.18ZM127.48 257.11L124.96 245.15L113.92 241.60L105.40 250.01L107.93 261.97L118.96 265.52ZM107.93 261.97L105.40 250.01L94.37 246.47L85.85 254.88L88.38 266.84L99.41 270.38ZM205.79 237.71L203.28 225.73L192.23 222.17L183.69 230.58L186.20 242.55L197.25 246.11ZM186.20 242.55L183.69 230.58L172.64 227.02L164.11 235.43L166.62 247.40L177.67 250.96ZM211.83 217.32L209.32 205.35L198.26 201.78L189.72 210.20L192.23 222.17L203.28 225.73ZM192.23 222.17L189.72 210.20L178.67 206.64L170.13 215.05L172.64 227.02L183.69 230.58ZM219.35 253.25L216.84 241.27L205.79 237.71L197.25 246.11L199.76 258.08L210.80 261.65ZM199.76 258.08L197.25 246.11L186.20 242.55L177.67 250.96L180.18 262.93L191.22 266.49ZM258.81 -2.48L256.30 -14.50L245.20 -18.07L236.62 -9.62L239.14 2.40L250.23 5.96ZM239.14 2.40L236.62 -9.62L225.53 -13.18L216.95 -4.73L219.47 7.28L230.56 10.84ZM252.74 17.97L250.23 5.96L239.14 2.40L230.56 10.84L233.07 22.85L244.16 26.42ZM205.86 -8.29L203.35 -20.30L192.25 -23.86L183.68 -15.41L186.20 -3.40L197.29 0.16ZM186.20 -3.40L183.68 -15.41L172.60 -18.96L164.03 -10.51L166.55 1.50L177.64 5.05ZM219.47 7.28L216.95 -4.73L205.86 -8.29L197.29 0.16L199.81 12.16L210.90 15.72ZM199.81 12.16L197.29 0.16L186.20 -3.40L177.64 5.05L180.16 17.05L191.24 20.61ZM113.67 -4.24L111.14 -16.23L100.06 -19.77L91.51 -11.31L94.04 0.68L105.12 4.22ZM94.04 0.68L91.51 -11.31L80.43 -14.85L71.89 -6.39L74.42 5.60L85.50 9.14ZM41.20 -4.99L38.66 -16.98L27.58 -20.51L19.05 -12.04L21.60 -0.05L32.67 3.47ZM121.25 31.75L118.73 19.76L107.65 16.22L99.10 24.67L101.64 36.66L112.71 40.20ZM101.64 36.66L99.10 24.67L88.03 21.13L79.49 29.58L82.02 41.57L93.09 45.11ZM127.28 11.31L124.75 -0.69L113.67 -4.24L105.12 4.22L107.65 16.22L118.73 19.76ZM107.65 16.22L105.12 4.22L94.04 0.68L85.50 9.14L88.03 21.13L99.10 24.67ZM134.86 47.29L132.33 35.30L121.25 31.75L112.71 40.20L115.24 52.19L126.31 55.74ZM115.24 52.19L112.71 40.20L101.64 36.66L93.09 45.11L95.62 57.10L106.69 60.64ZM140.88 26.85L138.36 14.85L127.28 11.31L118.73 19.76L121.25 31.75L132.33 35.30ZM68.42 26.05L65.88 14.06L54.81 10.53L46.28 18.99L48.82 30.97L59.89 34.50ZM48.82 30.97L46.28 18.99L35.21 15.46L26.68 23.92L29.22 35.90L40.29 39.43ZM74.42 5.60L71.89 -6.39L60.81 -9.92L52.27 -1.46L54.81 10.53L65.88 14.06ZM54.81 10.53L52.27 -1.46L41.20 -4.99L32.67 3.47L35.21 15.46L46.28 18.99ZM82.02 41.57L79.49 29.58L68.42 26.05L59.89 34.50L62.42 46.49L73.49 50.02ZM62.42 46.49L59.89 34.50L48.82 30.97L40.29 39.43L42.83 51.41L53.89 54.94ZM88.03 21.13L85.50 9.14L74.42 5.60L65.88 14.06L68.42 26.05L79.49 29.58ZM166.55 1.50L164.03 -10.51L152.95 -14.06L144.39 -5.60L146.91 6.40L157.99 9.95ZM146.91 6.40L144.39 -5.60L133.30 -9.15L124.75 -0.69L127.28 11.31L138.36 14.85ZM260.26 54.00L257.75 41.99L246.67 38.43L238.09 46.86L240.60 58.87L251.68 62.44ZM266.33 33.56L263.83 21.54L252.74 17.97L244.16 26.42L246.67 38.43L257.75 41.99ZM195.26 89.05L192.75 77.05L181.67 73.49L173.12 81.93L175.64 93.92L186.71 97.48ZM175.64 93.92L173.12 81.93L162.05 78.38L153.50 86.82L156.02 98.80L167.08 102.36ZM201.31 68.61L198.79 56.62L187.71 53.06L179.16 61.50L181.67 73.49L192.75 77.05ZM181.67 73.49L179.16 61.50L168.08 57.94L159.53 66.38L162.05 78.38L173.12 81.93ZM208.85 104.60L206.34 92.61L195.26 89.05L186.71 97.48L189.22 109.47L200.29 113.03ZM189.22 109.47L186.71 97.48L175.64 93.92L167.08 102.36L169.60 114.35L180.67 117.90ZM214.90 84.17L212.39 72.18L201.31 68.61L192.75 77.05L195.26 89.05L206.34 92.61ZM142.43 83.26L139.90 71.28L128.83 67.73L120.29 76.17L122.82 88.16L133.88 91.70ZM122.82 88.16L120.29 76.17L109.22 72.63L100.68 81.07L103.21 93.05L114.28 96.60ZM148.45 62.83L145.93 50.84L134.86 47.29L126.31 55.74L128.83 67.73L139.90 71.28ZM128.83 67.73L126.31 55.74L115.24 52.19L106.69 60.64L109.22 72.63L120.29 76.17ZM156.02 98.80L153.50 86.82L142.43 83.26L133.88 91.70L136.40 103.69L147.47 107.24ZM136.40 103.69L133.88 91.70L122.82 88.16L114.28 96.60L116.80 108.58L127.86 112.13ZM162.05 78.38L159.53 66.38L148.45 62.83L139.90 71.28L142.43 83.26L153.50 86.82ZM227.01 43.30L224.50 31.29L213.41 27.73L204.84 36.17L207.36 48.18L218.44 51.74ZM207.36 48.18L204.84 36.17L193.76 32.61L185.20 41.06L187.71 53.06L198.79 56.62ZM233.07 22.85L230.56 10.84L219.47 7.28L210.90 15.72L213.41 27.73L224.50 31.29ZM213.41 27.73L210.90 15.72L199.81 12.16L191.24 20.61L193.76 32.61L204.84 36.17ZM240.60 58.87L238.09 46.86L227.01 43.30L218.44 51.74L220.95 63.74L232.03 67.30ZM220.95 63.74L218.44 51.74L207.36 48.18L198.79 56.62L201.31 68.61L212.39 72.18ZM246.67 38.43L244.16 26.42L233.07 22.85L224.50 31.29L227.01 43.30L238.09 46.86ZM174.12 37.50L171.60 25.50L160.52 21.95L151.96 30.40L154.48 42.40L165.56 45.95ZM154.48 42.40L151.96 30.40L140.88 26.85L132.33 35.30L134.86 47.29L145.93 50.84ZM180.16 17.05L177.64 5.05L166.55 1.50L157.99 9.95L160.52 21.95L171.60 25.50ZM160.52 21.95L157.99 9.95L146.91 6.40L138.36 14.85L140.88 26.85L151.96 30.40ZM187.71 53.06L185.20 41.06L174.12 37.50L165.56 45.95L168.08 57.94L179.16 61.50ZM168.08 57.94L165.56 45.95L154.48 42.40L145.93 50.84L148.45 62.83L159.53 66.38ZM193.76 32.61L191.24 20.61L180.16 17.05L171.60 25.50L174.12 37.50L185.20 41.06ZM216.38 140.57L213.87 128.58L202.80 125.02L194.25 133.45L196.76 145.44L207.83 149.00ZM196.76 145.44L194.25 133.45L183.18 129.89L174.64 138.32L177.15 150.30L188.21 153.86ZM222.43 120.16L219.92 108.16L208.85 104.60L200.29 113.03L202.80 125.02L213.87 128.58ZM202.80 125.02L200.29 113.03L189.22 109.47L180.67 117.90L183.18 129.89L194.25 133.45ZM229.96 156.13L227.45 144.14L216.38 140.57L207.83 149.00L210.34 160.98L221.40 164.55ZM210.34 160.98L207.83 149.00L196.76 145.44L188.21 153.86L190.73 165.84L201.79 169.40ZM236.01 135.72L233.50 123.72L222.43 120.16L213.87 128.58L216.38 140.57L227.45 144.14ZM163.57 134.76L161.06 122.78L149.99 119.22L141.45 127.66L143.97 139.64L155.03 143.19ZM143.97 139.64L141.45 127.66L130.39 124.11L121.85 132.54L124.37 144.52L135.43 148.07ZM169.60 114.35L167.08 102.36L156.02 98.80L147.47 107.24L149.99 119.22L161.06 122.78ZM149.99 119.22L147.47 107.24L136.40 103.69L127.86 112.13L130.39 124.11L141.45 127.66ZM177.15 150.30L174.64 138.32L163.57 134.76L155.03 143.19L157.55 155.17L168.61 158.73ZM157.55 155.17L155.03 143.19L143.97 139.64L135.43 148.07L137.95 160.04L149.01 163.60ZM183.18 129.89L180.67 117.90L169.60 114.35L161.06 122.78L163.57 134.76L174.64 138.32ZM228.48 99.74L225.97 87.74L214.90 84.17L206.34 92.61L208.85 104.60L219.92 108.16ZM234.54 79.31L232.03 67.30L220.95 63.74L212.39 72.18L214.90 84.17L225.97 87.74ZM242.07 115.30L239.56 103.30L228.48 99.74L219.92 108.16L222.43 120.16L233.50 123.72ZM15.61 20.39L13.07 8.41L2.00 4.89L-6.52 13.35L-3.97 25.33L7.09 28.85ZM21.60 -0.05L19.05 -12.04L7.98 -15.56L-0.54 -7.10L2.00 4.89L13.07 8.41ZM29.22 35.90L26.68 23.92L15.61 20.39L7.09 28.85L9.63 40.83L20.70 44.35ZM9.63 40.83L7.09 28.85L-3.97 25.33L-12.49 33.79L-9.95 45.77L1.12 49.29ZM35.21 15.46L32.67 3.47L21.60 -0.05L13.07 8.41L15.61 20.39L26.68 23.92ZM217.87 196.93L215.36 184.95L204.30 181.39L195.75 189.80L198.26 201.78L209.32 205.35ZM223.91 176.53L221.40 164.55L210.34 160.98L201.79 169.40L204.30 181.39L215.36 184.95Z"/><path data-band="2" fill="#f97316" fill-opacity="0.35" d="M3.66 61.26L1.12 49.29L-9.95 45.77L-18.46 54.22L-15.91 66.20L-4.86 69.72ZM2.00 4.89L-0.54 -7.10L-11.61 -10.62L-20.13 -2.15L-17.59 9.83L-6.52 13.35Z"/></svg>
