<svg xmlns="http://www.w3.org/2000/svg" width="256" height="256" viewBox="0 0 256 256"><path data-band="1" fill="#fde68a" fill-opacity="0.35" d="M4.94 39.29L2.42 27.39L-8.56 23.86L-17.02 32.23L-14.49 44.13L-3.51 47.66ZM17.41 242.66L14.89 230.79L3.94 227.25L-4.49 235.58L-1.97 247.45L8.98 250.99ZM23.33 222.45L20.81 210.57L9.86 207.03L1.42 215.37L3.94 227.25L14.89 230.79ZM3.94 227.25L1.42 215.37L-9.53 211.83L-17.96 220.17L-15.44 232.04L-4.49 235.58ZM30.87 258.08L28.36 246.20L17.41 242.66L8.98 250.99L11.49 262.86L22.44 266.40ZM11.49 262.86L8.98 250.99L-1.97 247.45L-10.40 255.78L-7.88 267.65L3.06 271.19ZM36.80 237.87L34.28 226.00L23.33 222.45L14.89 230.79L17.41 242.66L28.36 246.20ZM91.87 111.71L89.36 99.81L78.38 96.25L69.91 104.61L72.43 116.51L83.40 120.06ZM97.83 91.45L95.32 79.55L84.33 76.00L75.87 84.35L78.38 96.25L89.36 99.81ZM27.63 146.36L25.12 134.47L14.15 130.93L5.70 139.28L8.22 151.16L19.19 154.70ZM8.22 151.16L5.70 139.28L-5.26 135.74L-13.70 144.09L-11.18 155.97L-0.22 159.51ZM33.57 126.12L31.05 114.22L20.08 110.68L11.63 119.03L14.15 130.93L25.12 134.47ZM14.15 130.93L11.63 119.03L0.66 115.50L-7.79 123.85L-5.26 135.74L5.70 139.28ZM41.12 161.79L38.60 149.90L27.63 146.36L19.19 154.70L21.70 166.59L32.67 170.13ZM21.70 166.59L19.19 154.70L8.22 151.16L-0.22 159.51L2.30 171.39L13.26 174.93ZM47.05 141.55L44.54 129.66L33.57 126.12L25.12 134.47L27.63 146.36L38.60 149.90ZM58.94 101.06L56.42 89.16L45.44 85.61L36.99 93.97L39.50 105.87L50.48 109.41ZM39.50 105.87L36.99 93.97L26.01 90.43L17.56 98.79L20.08 110.68L31.05 114.22ZM64.89 80.80L62.37 68.90L51.39 65.35L42.93 73.71L45.44 85.61L56.42 89.16ZM45.44 85.61L42.93 73.71L31.95 70.17L23.49 78.53L26.01 90.43L36.99 93.97ZM72.43 116.51L69.91 104.61L58.94 101.06L50.48 109.41L52.99 121.31L63.96 124.86ZM52.99 121.31L50.48 109.41L39.50 105.87L31.05 114.22L33.57 126.12L44.54 129.66ZM78.38 96.25L75.87 84.35L64.89 80.80L56.42 89.16L58.94 101.06L69.91 104.61ZM6.58 95.25L4.06 83.35L-6.91 79.82L-15.36 88.18L-12.83 100.07L-1.86 103.61ZM12.51 74.99L9.99 63.10L-0.99 59.56L-9.44 67.92L-6.91 79.82L4.06 83.35ZM20.08 110.68L17.56 98.79L6.58 95.25L-1.86 103.61L0.66 115.50L11.63 119.03ZM0.66 115.50L-1.86 103.61L-12.83 100.07L-21.28 108.43L-18.75 120.32L-7.79 123.85ZM26.01 90.43L23.49 78.53L12.51 74.99L4.06 83.35L6.58 95.25L17.56 98.79ZM48.66 197.45L46.14 185.56L35.18 182.02L26.74 190.36L29.25 202.24L40.21 205.78ZM29.25 202.24L26.74 190.36L15.78 186.81L7.34 195.16L9.86 207.03L20.81 210.57ZM54.59 177.22L52.08 165.33L41.12 161.79L32.67 170.13L35.18 182.02L46.14 185.56ZM35.18 182.02L32.67 170.13L21.70 166.59L13.26 174.93L15.78 186.81L26.74 190.36ZM62.13 212.88L59.62 200.99L48.66 197.45L40.21 205.78L42.72 217.66L53.68 221.21ZM42.72 217.66L40.21 205.78L29.25 202.24L20.81 210.57L23.33 222.45L34.28 226.00ZM68.07 192.66L65.56 180.77L54.59 177.22L46.14 185.56L48.66 197.45L59.62 200.99ZM2.30 171.39L-0.22 159.51L-11.18 155.97L-19.62 164.32L-17.09 176.20L-6.14 179.74ZM9.86 207.03L7.34 195.16L-3.62 191.62L-12.05 199.96L-9.53 211.83L1.42 215.37ZM15.78 186.81L13.26 174.93L2.30 171.39L-6.14 179.74L-3.62 191.62L7.34 195.16ZM79.96 152.20L77.45 140.30L66.48 136.75L58.02 145.10L60.53 156.99L71.50 160.54ZM60.53 156.99L58.02 145.10L47.05 141.55L38.60 149.90L41.12 161.79L52.08 165.33ZM85.91 131.96L83.40 120.06L72.43 116.51L63.96 124.86L66.48 136.75L77.45 140.30ZM66.48 136.75L63.96 124.86L52.99 121.31L44.54 129.66L47.05 141.55L58.02 145.10ZM74.01 172.43L71.50 160.54L60.53 156.99L52.08 165.33L54.59 177.22L65.56 180.77ZM99.39 147.41L96.89 135.51L85.91 131.96L77.45 140.30L79.96 152.20L90.93 155.75ZM69.25 4.53L66.73 -7.38L55.74 -10.93L47.26 -2.56L49.78 9.36L60.77 12.90ZM49.78 9.36L47.26 -2.56L36.27 -6.10L27.80 2.28L30.33 14.19L41.31 17.73ZM82.75 19.99L80.24 8.08L69.25 4.53L60.77 12.90L63.29 24.81L74.28 28.36ZM63.29 24.81L60.77 12.90L49.78 9.36L41.31 17.73L43.83 29.64L54.82 33.18ZM88.72 -0.29L86.20 -12.21L75.21 -15.76L66.73 -7.38L69.25 4.53L80.24 8.08ZM16.81 -1.26L14.29 -13.17L3.30 -16.71L-5.16 -8.33L-2.63 3.58L8.35 7.11ZM30.33 14.19L27.80 2.28L16.81 -1.26L8.35 7.11L10.88 19.02L21.86 22.56ZM10.88 19.02L8.35 7.11L-2.63 3.58L-11.09 11.95L-8.56 23.86L2.42 27.39ZM36.27 -6.10L33.75 -18.01L22.76 -21.55L14.29 -13.17L16.81 -1.26L27.80 2.28ZM90.29 55.73L87.78 43.82L76.79 40.27L68.32 48.63L70.84 60.54L81.82 64.09ZM70.84 60.54L68.32 48.63L57.34 45.09L48.87 53.45L51.39 65.35L62.37 68.90ZM96.26 35.46L93.75 23.54L82.75 19.99L74.28 28.36L76.79 40.27L87.78 43.82ZM76.79 40.27L74.28 28.36L63.29 24.81L54.82 33.18L57.34 45.09L68.32 48.63ZM84.33 76.00L81.82 64.09L70.84 60.54L62.37 68.90L64.89 80.80L75.87 84.35ZM109.76 50.93L107.25 39.01L96.26 35.46L87.78 43.82L90.29 55.73L101.28 59.28ZM37.89 49.91L35.37 38.00L24.38 34.46L15.92 42.83L18.45 54.73L29.43 58.27ZM18.45 54.73L15.92 42.83L4.94 39.29L-3.51 47.66L-0.99 59.56L9.99 63.10ZM43.83 29.64L41.31 17.73L30.33 14.19L21.86 22.56L24.38 34.46L35.37 38.00ZM24.38 34.46L21.86 22.56L10.88 19.02L2.42 27.39L4.94 39.29L15.92 42.83ZM51.39 65.35L48.87 53.45L37.89 49.91L29.43 58.27L31.95 70.17L42.93 73.71ZM31.95 70.17L29.43 58.27L18.45 54.73L9.99 63.10L12.51 74.99L23.49 78.53ZM57.34 45.09L54.82 33.18L43.83 29.64L35.37 38.00L37.89 49.91L48.87 53.45ZM121.71 10.37L119.20 -1.55L108.20 -5.11L99.71 3.26L102.23 15.18L113.22 18.73ZM102.23 15.18L99.71 3.26L88.72 -0.29L80.24 8.08L82.75 19.99L93.75 23.54ZM108.20 -5.11L105.69 -17.03L94.69 -20.58L86.20 -12.21L88.72 -0.29L99.71 3.26ZM115.73 30.65L113.22 18.73L102.23 15.18L93.75 23.54L96.26 35.46L107.25 39.01ZM50.26 253.30L47.75 241.42L36.80 237.87L28.36 246.20L30.87 258.08L41.82 261.62ZM75.60 228.31L73.09 216.43L62.13 212.88L53.68 221.21L56.19 233.09L67.15 236.64ZM56.19 233.09L53.68 221.21L42.72 217.66L34.28 226.00L36.80 237.87L47.75 241.42Z"/></svg>
