<svg xmlns="http://www.w3.org/2000/svg" width="256" height="256" viewBox="0 0 256 256"><path data-band="1" fill="#fde68a" fill-opacity="0.35" d="M261.98 243.38L260.58 237.41L255.04 235.81L250.90 240.19L252.30 246.17L257.84 247.76ZM264.72 233.03L263.32 227.05L257.78 225.46L253.64 229.84L255.04 235.81L260.58 237.41ZM245.36 238.60L243.96 232.63L238.42 231.04L234.29 235.42L235.69 241.39L241.22 242.98ZM235.69 241.39L234.29 235.42L228.75 233.83L224.62 238.21L226.02 244.18L231.55 245.77ZM248.10 228.25L246.70 222.27L241.16 220.68L237.02 225.06L238.42 231.04L243.96 232.63ZM238.42 231.04L237.02 225.06L231.48 223.47L227.35 227.85L228.75 233.83L234.29 235.42ZM252.30 246.17L250.90 240.19L245.36 238.60L241.22 242.98L242.63 248.95L248.16 250.55ZM242.63 248.95L241.22 242.98L235.69 241.39L231.55 245.77L232.96 251.74L238.49 253.33ZM255.04 235.81L253.64 229.84L248.10 228.25L243.96 232.63L245.36 238.60L250.90 240.19ZM260.53 215.10L259.13 209.12L253.58 207.53L249.44 211.91L250.84 217.89L256.38 219.48ZM250.84 217.89L249.44 211.91L243.90 210.32L239.76 214.70L241.16 220.68L246.70 222.27ZM263.27 204.73L261.87 198.75L256.32 197.16L252.18 201.55L253.58 207.53L259.13 209.12ZM253.58 207.53L252.18 201.55L246.64 199.95L242.49 204.34L243.90 210.32L249.44 211.91ZM257.78 225.46L256.38 219.48L250.84 217.89L246.70 222.27L248.10 228.25L253.64 229.84ZM259.24 253.74L257.84 247.76L252.30 246.17L248.16 250.55L249.56 256.52L255.10 258.11ZM249.56 256.52L248.16 250.55L242.63 248.95L238.49 253.33L239.89 259.30L245.43 260.89ZM266.17 261.31L264.77 255.33L259.24 253.74L255.10 258.11L256.50 264.08L262.03 265.68ZM203.97 260.11L202.57 254.14L197.04 252.56L192.91 256.94L194.32 262.90L199.85 264.49ZM194.32 262.90L192.91 256.94L187.38 255.36L183.26 259.74L184.67 265.70L190.20 267.28ZM206.69 249.76L205.29 243.80L199.75 242.21L195.63 246.59L197.04 252.56L202.57 254.14ZM197.04 252.56L195.63 246.59L190.10 245.01L185.98 249.39L187.38 255.36L192.91 256.94ZM213.63 257.32L212.22 251.35L206.69 249.76L202.57 254.14L203.97 260.11L209.50 261.70ZM177.74 258.16L176.33 252.19L170.80 250.62L166.68 255.00L168.09 260.96L173.62 262.54ZM168.09 260.96L166.68 255.00L161.16 253.42L157.04 257.80L158.45 263.76L163.98 265.34ZM180.45 247.81L179.04 241.85L173.51 240.27L169.39 244.65L170.80 250.62L176.33 252.19ZM170.80 250.62L169.39 244.65L163.86 243.08L159.74 247.46L161.16 253.42L166.68 255.00ZM187.38 255.36L185.98 249.39L180.45 247.81L176.33 252.19L177.74 258.16L183.26 259.74ZM219.08 236.62L217.68 230.65L212.14 229.06L208.01 233.45L209.41 239.42L214.95 241.00ZM209.41 239.42L208.01 233.45L202.47 231.86L198.35 236.25L199.75 242.21L205.29 243.80ZM221.81 226.27L220.40 220.29L214.86 218.71L210.73 223.09L212.14 229.06L217.68 230.65ZM212.14 229.06L210.73 223.09L205.20 221.51L201.07 225.89L202.47 231.86L208.01 233.45ZM226.02 244.18L224.62 238.21L219.08 236.62L214.95 241.00L216.35 246.97L221.89 248.56ZM216.35 246.97L214.95 241.00L209.41 239.42L205.29 243.80L206.69 249.76L212.22 251.35ZM228.75 233.83L227.35 227.85L221.81 226.27L217.68 230.65L219.08 236.62L224.62 238.21ZM192.81 234.66L191.41 228.70L185.87 227.11L181.75 231.50L183.16 237.46L188.69 239.05ZM183.16 237.46L181.75 231.50L176.22 229.92L172.10 234.31L173.51 240.27L179.04 241.85ZM195.53 224.31L194.12 218.34L188.59 216.76L184.46 221.15L185.87 227.11L191.41 228.70ZM185.87 227.11L184.46 221.15L178.93 219.57L174.81 223.95L176.22 229.92L181.75 231.50ZM199.75 242.21L198.35 236.25L192.81 234.66L188.69 239.05L190.10 245.01L195.63 246.59ZM190.10 245.01L188.69 239.05L183.16 237.46L179.04 241.85L180.45 247.81L185.98 249.39ZM202.47 231.86L201.07 225.89L195.53 224.31L191.41 228.70L192.81 234.66L198.35 236.25ZM230.23 262.08L228.82 256.12L223.29 254.53L219.16 258.91L220.56 264.87L226.10 266.46ZM232.96 251.74L231.55 245.77L226.02 244.18L221.89 248.56L223.29 254.53L228.82 256.12ZM223.29 254.53L221.89 248.56L216.35 246.97L212.22 251.35L213.63 257.32L219.16 258.91ZM239.89 259.30L238.49 253.33L232.96 251.74L228.82 256.12L230.23 262.08L235.76 263.68ZM94.87 234.58L93.45 228.62L87.92 227.06L83.83 231.45L85.25 237.40L90.77 238.97ZM99.13 252.44L97.71 246.48L92.19 244.92L88.09 249.31L89.51 255.26L95.03 256.82ZM89.51 255.26L88.09 249.31L82.57 247.75L78.48 252.13L79.90 258.08L85.42 259.64ZM101.81 242.09L100.39 236.14L94.87 234.58L90.77 238.97L92.19 244.92L97.71 246.48ZM92.19 244.92L90.77 238.97L85.25 237.40L81.15 241.79L82.57 247.75L88.09 249.31ZM106.07 259.95L104.65 254.00L99.13 252.44L95.03 256.82L96.45 262.77L101.97 264.34ZM96.45 262.77L95.03 256.82L89.51 255.26L85.42 259.64L86.84 265.59L92.35 267.16ZM108.75 249.61L107.33 243.66L101.81 242.09L97.71 246.48L99.13 252.44L104.65 254.00ZM79.90 258.08L78.48 252.13L72.96 250.57L68.87 254.96L70.29 260.91L75.81 262.47ZM82.57 247.75L81.15 241.79L75.63 240.23L71.54 244.62L72.96 250.57L78.48 252.13ZM114.12 228.93L112.70 222.97L107.18 221.40L103.07 225.79L104.49 231.75L110.02 233.32ZM104.49 231.75L103.07 225.79L97.55 224.23L93.45 228.62L94.87 234.58L100.39 236.14ZM116.81 218.58L115.39 212.62L109.86 211.05L105.76 215.44L107.18 221.40L112.70 222.97ZM121.06 236.45L119.65 230.49L114.12 228.93L110.02 233.32L111.43 239.27L116.96 240.84ZM111.43 239.27L110.02 233.32L104.49 231.75L100.39 236.14L101.81 242.09L107.33 243.66ZM123.75 226.10L122.34 220.14L116.81 218.58L112.70 222.97L114.12 228.93L119.65 230.49ZM151.52 256.23L150.10 250.27L144.58 248.69L140.47 253.08L141.88 259.04L147.41 260.61ZM141.88 259.04L140.47 253.08L134.94 251.51L130.84 255.89L132.25 261.85L137.77 263.42ZM154.22 245.88L152.80 239.92L147.28 238.35L143.16 242.74L144.58 248.69L150.10 250.27ZM144.58 248.69L143.16 242.74L137.64 241.16L133.53 245.55L134.94 251.51L140.47 253.08ZM161.16 253.42L159.74 247.46L154.22 245.88L150.10 250.27L151.52 256.23L157.04 257.80ZM125.31 254.32L123.90 248.36L118.38 246.80L114.27 251.18L115.69 257.14L121.21 258.70ZM115.69 257.14L114.27 251.18L108.75 249.61L104.65 254.00L106.07 259.95L111.59 261.52ZM128.00 243.98L126.59 238.02L121.06 236.45L116.96 240.84L118.38 246.80L123.90 248.36ZM118.38 246.80L116.96 240.84L111.43 239.27L107.33 243.66L108.75 249.61L114.27 251.18ZM132.25 261.85L130.84 255.89L125.31 254.32L121.21 258.70L122.63 264.66L128.15 266.23ZM134.94 251.51L133.53 245.55L128.00 243.98L123.90 248.36L125.31 254.32L130.84 255.89ZM266.02 194.37L264.62 188.39L259.07 186.79L254.92 191.18L256.32 197.16L261.87 198.75ZM230.00 195.18L228.60 189.21L223.05 187.62L218.92 192.01L220.32 197.98L225.86 199.57ZM232.74 184.82L231.33 178.84L225.79 177.25L221.65 181.64L223.05 187.62L228.60 189.21ZM234.21 213.11L232.81 207.14L227.27 205.55L223.13 209.93L224.54 215.91L230.08 217.50ZM224.54 215.91L223.13 209.93L217.59 208.35L213.46 212.73L214.86 218.71L220.40 220.29ZM236.95 202.75L235.55 196.77L230.00 195.18L225.86 199.57L227.27 205.55L232.81 207.14ZM227.27 205.55L225.86 199.57L220.32 197.98L216.19 202.37L217.59 208.35L223.13 209.93ZM241.16 220.68L239.76 214.70L234.21 213.11L230.08 217.50L231.48 223.47L237.02 225.06ZM231.48 223.47L230.08 217.50L224.54 215.91L220.40 220.29L221.81 226.27L227.35 227.85ZM243.90 210.32L242.49 204.34L236.95 202.75L232.81 207.14L234.21 213.11L239.76 214.70ZM207.92 211.15L206.51 205.18L200.97 203.59L196.84 207.98L198.25 213.95L203.79 215.54ZM198.25 213.95L196.84 207.98L191.31 206.40L187.18 210.79L188.59 216.76L194.12 218.34ZM210.65 200.79L209.24 194.81L203.70 193.23L199.57 197.62L200.97 203.59L206.51 205.18ZM200.97 203.59L199.57 197.62L194.03 196.04L189.90 200.43L191.31 206.40L196.84 207.98ZM214.86 218.71L213.46 212.73L207.92 211.15L203.79 215.54L205.20 221.51L210.73 223.09ZM205.20 221.51L203.79 215.54L198.25 213.95L194.12 218.34L195.53 224.31L201.07 225.89ZM217.59 208.35L216.19 202.37L210.65 200.79L206.51 205.18L207.92 211.15L213.46 212.73ZM249.38 189.59L247.97 183.61L242.43 182.01L238.28 186.40L239.69 192.38L245.23 193.97ZM239.69 192.38L238.28 186.40L232.74 184.82L228.60 189.21L230.00 195.18L235.55 196.77ZM256.32 197.16L254.92 191.18L249.38 189.59L245.23 193.97L246.64 199.95L252.18 201.55ZM246.64 199.95L245.23 193.97L239.69 192.38L235.55 196.77L236.95 202.75L242.49 204.34ZM259.07 186.79L257.67 180.81L252.12 179.22L247.97 183.61L249.38 189.59L254.92 191.18ZM162.33 214.83L160.92 208.87L155.38 207.29L151.27 211.68L152.68 217.65L158.21 219.22ZM152.68 217.65L151.27 211.68L145.73 210.11L141.62 214.50L143.03 220.46L148.56 222.04ZM165.04 204.48L163.62 198.51L158.09 196.93L153.97 201.33L155.38 207.29L160.92 208.87ZM126.45 215.75L125.03 209.79L119.50 208.22L115.39 212.62L116.81 218.58L122.34 220.14ZM166.57 232.73L165.15 226.76L159.62 225.19L155.51 229.57L156.92 235.54L162.45 237.11ZM156.92 235.54L155.51 229.57L149.98 228.00L145.86 232.39L147.28 238.35L152.80 239.92ZM169.27 222.38L167.86 216.41L162.33 214.83L158.21 219.22L159.62 225.19L165.15 226.76ZM159.62 225.19L158.21 219.22L152.68 217.65L148.56 222.04L149.98 228.00L155.51 229.57ZM173.51 240.27L172.10 234.31L166.57 232.73L162.45 237.11L163.86 243.08L169.39 244.65ZM163.86 243.08L162.45 237.11L156.92 235.54L152.80 239.92L154.22 245.88L159.74 247.46ZM176.22 229.92L174.81 223.95L169.27 222.38L165.15 226.76L166.57 232.73L172.10 234.31ZM140.34 230.82L138.92 224.85L133.39 223.28L129.28 227.67L130.70 233.63L136.22 235.20ZM130.70 233.63L129.28 227.67L123.75 226.10L119.65 230.49L121.06 236.45L126.59 238.02ZM143.03 220.46L141.62 214.50L136.09 212.93L131.98 217.32L133.39 223.28L138.92 224.85ZM133.39 223.28L131.98 217.32L126.45 215.75L122.34 220.14L123.75 226.10L129.28 227.67ZM147.28 238.35L145.86 232.39L140.34 230.82L136.22 235.20L137.64 241.16L143.16 242.74ZM137.64 241.16L136.22 235.20L130.70 233.63L126.59 238.02L128.00 243.98L133.53 245.55ZM149.98 228.00L148.56 222.04L143.03 220.46L138.92 224.85L140.34 230.82L145.86 232.39ZM181.64 209.21L180.23 203.24L174.70 201.66L170.57 206.05L171.98 212.02L177.52 213.60ZM171.98 212.02L170.57 206.05L165.04 204.48L160.92 208.87L162.33 214.83L167.86 216.41ZM174.70 201.66L173.28 195.69L167.75 194.12L163.62 198.51L165.04 204.48L170.57 206.05ZM188.59 216.76L187.18 210.79L181.64 209.21L177.52 213.60L178.93 219.57L184.46 221.15ZM178.93 219.57L177.52 213.60L171.98 212.02L167.86 216.41L169.27 222.38L174.81 223.95ZM191.31 206.40L189.90 200.43L184.36 198.85L180.23 203.24L181.64 209.21L187.18 210.79Z"/></svg>
