<svg xmlns="http://www.w3.org/2000/svg" width="256" height="256" viewBox="0 0 256 256"><path data-band="1" fill="#fde68a" fill-opacity="0.35" d="M252.48 57.00L251.08 51.03L245.55 49.44L241.43 53.80L242.82 59.77L248.35 61.36ZM242.82 59.77L241.43 53.80L235.90 52.21L231.77 56.58L233.17 62.54L238.70 64.13ZM255.21 46.67L253.82 40.70L248.29 39.10L244.16 43.47L245.55 49.44L251.08 51.03ZM245.55 49.44L244.16 43.47L238.63 41.88L234.50 46.25L235.90 52.21L241.43 53.80ZM259.40 64.56L258.01 58.59L252.48 57.00L248.35 61.36L249.75 67.32L255.27 68.92ZM249.75 67.32L248.35 61.36L242.82 59.77L238.70 64.13L240.09 70.09L245.62 71.69ZM262.14 54.23L260.74 48.26L255.21 46.67L251.08 51.03L252.48 57.00L258.01 58.59ZM226.25 54.99L224.85 49.03L219.32 47.43L215.20 51.80L216.60 57.76L222.13 59.35ZM216.60 57.76L215.20 51.80L209.68 50.22L205.56 54.58L206.96 60.54L212.48 62.13ZM228.97 44.66L227.57 38.69L222.05 37.10L217.92 41.47L219.32 47.43L224.85 49.03ZM219.32 47.43L217.92 41.47L212.40 39.88L208.27 44.26L209.68 50.22L215.20 51.80ZM233.17 62.54L231.77 56.58L226.25 54.99L222.13 59.35L223.53 65.31L229.05 66.90ZM223.53 65.31L222.13 59.35L216.60 57.76L212.48 62.13L213.88 68.09L219.40 69.68ZM235.90 52.21L234.50 46.25L228.97 44.66L224.85 49.03L226.25 54.99L231.77 56.58ZM257.95 36.33L256.55 30.36L251.02 28.77L246.89 33.14L248.29 39.10L253.82 40.70ZM260.69 25.99L259.29 20.02L253.76 18.43L249.62 22.80L251.02 28.77L256.55 30.36ZM264.88 43.90L263.48 37.93L257.95 36.33L253.82 40.70L255.21 46.67L260.74 48.26ZM241.36 31.54L239.96 25.58L234.43 23.98L230.30 28.36L231.70 34.32L237.23 35.91ZM231.70 34.32L230.30 28.36L224.77 26.77L220.64 31.14L222.05 37.10L227.57 38.69ZM244.09 21.20L242.69 15.24L237.16 13.64L233.03 18.02L234.43 23.98L239.96 25.58ZM234.43 23.98L233.03 18.02L227.50 16.43L223.37 20.80L224.77 26.77L230.30 28.36ZM248.29 39.10L246.89 33.14L241.36 31.54L237.23 35.91L238.63 41.88L244.16 43.47ZM238.63 41.88L237.23 35.91L231.70 34.32L227.57 38.69L228.97 44.66L234.50 46.25ZM251.02 28.77L249.62 22.80L244.09 21.20L239.96 25.58L241.36 31.54L246.89 33.14ZM263.59 82.44L262.19 76.48L256.67 74.88L252.54 79.25L253.93 85.20L259.46 86.80ZM253.93 85.20L252.54 79.25L247.01 77.65L242.89 82.01L244.29 87.97L249.81 89.57ZM266.32 72.12L264.93 66.16L259.40 64.56L255.27 68.92L256.67 74.88L262.19 76.48ZM256.67 74.88L255.27 68.92L249.75 67.32L245.62 71.69L247.01 77.65L252.54 79.25ZM237.37 80.41L235.97 74.46L230.45 72.86L226.33 77.23L227.72 83.18L233.24 84.78ZM227.72 83.18L226.33 77.23L220.80 75.64L216.69 80.00L218.09 85.95L223.60 87.55ZM240.09 70.09L238.70 64.13L233.17 62.54L229.05 66.90L230.45 72.86L235.97 74.46ZM230.45 72.86L229.05 66.90L223.53 65.31L219.40 69.68L220.80 75.64L226.33 77.23ZM234.64 90.73L233.24 84.78L227.72 83.18L223.60 87.55L225.00 93.50L230.52 95.09ZM247.01 77.65L245.62 71.69L240.09 70.09L235.97 74.46L237.37 80.41L242.89 82.01ZM184.98 76.43L183.58 70.47L178.06 68.89L173.95 73.26L175.36 79.21L180.87 80.79ZM175.36 79.21L173.95 73.26L168.44 71.68L164.33 76.05L165.74 81.99L171.25 83.58ZM187.69 66.11L186.28 60.15L180.77 58.57L176.65 62.94L178.06 68.89L183.58 70.47ZM178.06 68.89L176.65 62.94L171.14 61.36L167.03 65.73L168.44 71.68L173.95 73.26ZM191.90 83.96L190.50 78.01L184.98 76.43L180.87 80.79L182.28 86.74L187.79 88.33ZM182.28 86.74L180.87 80.79L175.36 79.21L171.25 83.58L172.66 89.52L178.17 91.11ZM194.61 73.64L193.21 67.69L187.69 66.11L183.58 70.47L184.98 76.43L190.50 78.01ZM158.81 74.47L157.41 68.52L151.89 66.94L147.79 71.31L149.20 77.26L154.71 78.83ZM149.20 77.26L147.79 71.31L142.28 69.73L138.18 74.10L139.59 80.05L145.10 81.63ZM161.51 64.15L160.10 58.20L154.59 56.62L150.48 60.99L151.89 66.94L157.41 68.52ZM151.89 66.94L150.48 60.99L144.97 59.41L140.87 63.79L142.28 69.73L147.79 71.31ZM165.74 81.99L164.33 76.05L158.81 74.47L154.71 78.83L156.12 84.78L161.63 86.36ZM156.12 84.78L154.71 78.83L149.20 77.26L145.10 81.63L146.51 87.57L152.02 89.15ZM168.44 71.68L167.03 65.73L161.51 64.15L157.41 68.52L158.81 74.47L164.33 76.05ZM200.04 53.00L198.63 47.04L193.11 45.45L188.99 49.83L190.40 55.78L195.92 57.37ZM190.40 55.78L188.99 49.83L183.47 48.24L179.36 52.61L180.77 58.57L186.28 60.15ZM202.75 42.67L201.35 36.71L195.82 35.12L191.70 39.50L193.11 45.45L198.63 47.04ZM193.11 45.45L191.70 39.50L186.18 37.91L182.07 42.29L183.47 48.24L188.99 49.83ZM206.96 60.54L205.56 54.58L200.04 53.00L195.92 57.37L197.32 63.32L202.84 64.91ZM197.32 63.32L195.92 57.37L190.40 55.78L186.28 60.15L187.69 66.11L193.21 67.69ZM209.68 50.22L208.27 44.26L202.75 42.67L198.63 47.04L200.04 53.00L205.56 54.58ZM173.84 51.03L172.43 45.08L166.91 43.50L162.80 47.87L164.21 53.82L169.73 55.40ZM164.21 53.82L162.80 47.87L157.28 46.29L153.18 50.67L154.59 56.62L160.10 58.20ZM176.55 40.70L175.14 34.75L169.62 33.17L165.50 37.54L166.91 43.50L172.43 45.08ZM166.91 43.50L165.50 37.54L159.98 35.96L155.87 40.34L157.28 46.29L162.80 47.87ZM180.77 58.57L179.36 52.61L173.84 51.03L169.73 55.40L171.14 61.36L176.65 62.94ZM171.14 61.36L169.73 55.40L164.21 53.82L160.10 58.20L161.51 64.15L167.03 65.73ZM183.47 48.24L182.07 42.29L176.55 40.70L172.43 45.08L173.84 51.03L179.36 52.61ZM196.11 101.81L194.71 95.86L189.20 94.28L185.09 98.64L186.49 104.59L192.00 106.18ZM186.49 104.59L185.09 98.64L179.57 97.06L175.47 101.42L176.87 107.37L182.38 108.95ZM198.82 91.50L197.42 85.55L191.90 83.96L187.79 88.33L189.20 94.28L194.71 95.86ZM189.20 94.28L187.79 88.33L182.28 86.74L178.17 91.11L179.57 97.06L185.09 98.64ZM193.40 112.12L192.00 106.18L186.49 104.59L182.38 108.95L183.79 114.90L189.30 116.48ZM205.74 99.04L204.34 93.09L198.82 91.50L194.71 95.86L196.11 101.81L201.63 103.40ZM169.96 99.84L168.55 93.89L163.04 92.31L158.94 96.67L160.34 102.62L165.85 104.20ZM160.34 102.62L158.94 96.67L153.43 95.09L149.33 99.46L150.73 105.40L156.24 106.98ZM172.66 89.52L171.25 83.58L165.74 81.99L161.63 86.36L163.04 92.31L168.55 93.89ZM163.04 92.31L161.63 86.36L156.12 84.78L152.02 89.15L153.43 95.09L158.94 96.67ZM176.87 107.37L175.47 101.42L169.96 99.84L165.85 104.20L167.26 110.14L172.77 111.73ZM167.26 110.14L165.85 104.20L160.34 102.62L156.24 106.98L157.65 112.93L163.16 114.51ZM179.57 97.06L178.17 91.11L172.66 89.52L168.55 93.89L169.96 99.84L175.47 101.42ZM211.17 78.41L209.77 72.45L204.25 70.87L200.13 75.23L201.53 81.19L207.05 82.77ZM201.53 81.19L200.13 75.23L194.61 73.64L190.50 78.01L191.90 83.96L197.42 85.55ZM213.88 68.09L212.48 62.13L206.96 60.54L202.84 64.91L204.25 70.87L209.77 72.45ZM204.25 70.87L202.84 64.91L197.32 63.32L193.21 67.69L194.61 73.64L200.13 75.23ZM218.09 85.95L216.69 80.00L211.17 78.41L207.05 82.77L208.45 88.73L213.97 90.32ZM208.45 88.73L207.05 82.77L201.53 81.19L197.42 85.55L198.82 91.50L204.34 93.09ZM220.80 75.64L219.40 69.68L213.88 68.09L209.77 72.45L211.17 78.41L216.69 80.00ZM256.50 8.08L255.10 2.11L249.56 0.52L245.43 4.89L246.83 10.86L252.36 12.46ZM246.83 10.86L245.43 4.89L239.89 3.30L235.76 7.68L237.16 13.64L242.69 15.24ZM259.24 -2.26L257.84 -8.24L252.30 -9.83L248.16 -5.45L249.56 0.52L255.10 2.11ZM249.56 0.52L248.16 -5.45L242.63 -7.05L238.49 -2.67L239.89 3.30L245.43 4.89ZM263.43 15.65L262.03 9.68L256.50 8.08L252.36 12.46L253.76 18.43L259.29 20.02ZM253.76 18.43L252.36 12.46L246.83 10.86L242.69 15.24L244.09 21.20L249.62 22.80ZM266.17 5.31L264.77 -0.67L259.24 -2.26L255.10 2.11L256.50 8.08L262.03 9.68ZM203.97 4.11L202.57 -1.86L197.04 -3.44L192.91 0.94L194.32 6.90L199.85 8.49ZM194.32 6.90L192.91 0.94L187.38 -0.64L183.26 3.74L184.67 9.70L190.20 11.28ZM197.04 -3.44L195.63 -9.41L190.10 -10.99L185.98 -6.61L187.38 -0.64L192.91 0.94ZM210.91 11.66L209.50 5.70L203.97 4.11L199.85 8.49L201.25 14.45L206.78 16.04ZM201.25 14.45L199.85 8.49L194.32 6.90L190.20 11.28L191.61 17.24L197.13 18.83ZM213.63 1.32L212.22 -4.65L206.69 -6.24L202.57 -1.86L203.97 4.11L209.50 5.70ZM177.74 2.16L176.33 -3.81L170.80 -5.38L166.68 -1.00L168.09 4.96L173.62 6.54ZM168.09 4.96L166.68 -1.00L161.16 -2.58L157.04 1.80L158.45 7.76L163.98 9.34ZM184.67 9.70L183.26 3.74L177.74 2.16L173.62 6.54L175.03 12.50L180.55 14.08ZM175.03 12.50L173.62 6.54L168.09 4.96L163.98 9.34L165.39 15.30L170.91 16.88ZM187.38 -0.64L185.98 -6.61L180.45 -8.19L176.33 -3.81L177.74 2.16L183.26 3.74ZM215.12 29.55L213.71 23.59L208.19 22.00L204.06 26.38L205.47 32.34L210.99 33.92ZM205.47 32.34L204.06 26.38L198.54 24.79L194.42 29.16L195.82 35.12L201.35 36.71ZM217.84 19.21L216.44 13.25L210.91 11.66L206.78 16.04L208.19 22.00L213.71 23.59ZM208.19 22.00L206.78 16.04L201.25 14.45L197.13 18.83L198.54 24.79L204.06 26.38ZM222.05 37.10L220.64 31.14L215.12 29.55L210.99 33.92L212.40 39.88L217.92 41.47ZM212.40 39.88L210.99 33.92L205.47 32.34L201.35 36.71L202.75 42.67L208.27 44.26ZM224.77 26.77L223.37 20.80L217.84 19.21L213.71 23.59L215.12 29.55L220.64 31.14ZM188.89 27.58L187.49 21.62L181.96 20.04L177.84 24.42L179.25 30.37L184.78 31.96ZM179.25 30.37L177.84 24.42L172.32 22.83L168.21 27.21L169.62 33.17L175.14 34.75ZM191.61 17.24L190.20 11.28L184.67 9.70L180.55 14.08L181.96 20.04L187.49 21.62ZM181.96 20.04L180.55 14.08L175.03 12.50L170.91 16.88L172.32 22.83L177.84 24.42ZM195.82 35.12L194.42 29.16L188.89 27.58L184.78 31.96L186.18 37.91L191.70 39.50ZM186.18 37.91L184.78 31.96L179.25 30.37L175.14 34.75L176.55 40.70L182.07 42.29ZM198.54 24.79L197.13 18.83L191.61 17.24L187.49 21.62L188.89 27.58L194.42 29.16ZM230.23 6.08L228.82 0.12L223.29 -1.47L219.16 2.91L220.56 8.87L226.10 10.46ZM220.56 8.87L219.16 2.91L213.63 1.32L209.50 5.70L210.91 11.66L216.44 13.25ZM232.96 -4.26L231.55 -10.23L226.02 -11.82L221.89 -7.44L223.29 -1.47L228.82 0.12ZM223.29 -1.47L221.89 -7.44L216.35 -9.03L212.22 -4.65L213.63 1.32L219.16 2.91ZM237.16 13.64L235.76 7.68L230.23 6.08L226.10 10.46L227.50 16.43L233.03 18.02ZM227.50 16.43L226.10 10.46L220.56 8.87L216.44 13.25L217.84 19.21L223.37 20.80ZM239.89 3.30L238.49 -2.67L232.96 -4.26L228.82 0.12L230.23 6.08L235.76 7.68ZM225.00 93.50L223.60 87.55L218.09 85.95L213.97 90.32L215.37 96.27L220.89 97.86ZM215.37 96.27L213.97 90.32L208.45 88.73L204.34 93.09L205.74 99.04L211.25 100.63ZM231.92 101.05L230.52 95.09L225.00 93.50L220.89 97.86L222.28 103.82L227.80 105.41ZM69.23 43.40L67.80 37.46L62.30 35.90L58.21 40.28L59.63 46.22L65.14 47.78ZM59.63 46.22L58.21 40.28L52.70 38.72L48.62 43.10L50.05 49.04L55.55 50.60ZM71.89 33.07L70.47 27.13L64.96 25.57L60.87 29.95L62.30 35.90L67.80 37.46ZM62.30 35.90L60.87 29.95L55.36 28.40L51.28 32.78L52.70 38.72L58.21 40.28ZM76.16 50.90L74.73 44.96L69.23 43.40L65.14 47.78L66.56 53.72L72.07 55.28ZM66.56 53.72L65.14 47.78L59.63 46.22L55.55 50.60L56.97 56.54L62.48 58.10ZM78.82 40.58L77.40 34.64L71.89 33.07L67.80 37.46L69.23 43.40L74.73 44.96ZM43.12 41.55L41.69 35.61L36.18 34.05L32.11 38.44L33.53 44.37L39.04 45.93ZM45.77 31.22L44.35 25.28L38.84 23.73L34.76 28.11L36.18 34.05L41.69 35.61ZM50.05 49.04L48.62 43.10L43.12 41.55L39.04 45.93L40.46 51.86L45.97 53.42ZM40.46 51.86L39.04 45.93L33.53 44.37L29.46 48.75L30.88 54.69L36.38 56.24ZM52.70 38.72L51.28 32.78L45.77 31.22L41.69 35.61L43.12 41.55L48.62 43.10ZM84.16 19.93L82.74 13.98L77.23 12.42L73.14 16.80L74.56 22.75L80.07 24.31ZM74.56 22.75L73.14 16.80L67.62 15.24L63.54 19.63L64.96 25.57L70.47 27.13ZM86.84 9.59L85.42 3.64L79.90 2.08L75.81 6.47L77.23 12.42L82.74 13.98ZM77.23 12.42L75.81 6.47L70.29 4.91L66.20 9.30L67.62 15.24L73.14 16.80ZM91.10 27.44L89.68 21.49L84.16 19.93L80.07 24.31L81.49 30.25L87.00 31.82ZM81.49 30.25L80.07 24.31L74.56 22.75L70.47 27.13L71.89 33.07L77.40 34.64ZM93.77 17.11L92.35 11.16L86.84 9.59L82.74 13.98L84.16 19.93L89.68 21.49ZM58.02 18.07L56.60 12.12L51.09 10.57L47.00 14.96L48.43 20.90L53.94 22.45ZM60.69 7.74L59.26 1.79L53.75 0.24L49.66 4.62L51.09 10.57L56.60 12.12ZM64.96 25.57L63.54 19.63L58.02 18.07L53.94 22.45L55.36 28.40L60.87 29.95ZM55.36 28.40L53.94 22.45L48.43 20.90L44.35 25.28L45.77 31.22L51.28 32.78ZM67.62 15.24L66.20 9.30L60.69 7.74L56.60 12.12L58.02 18.07L63.54 19.63ZM80.42 68.72L79.00 62.78L73.49 61.22L69.41 65.59L70.83 71.53L76.33 73.10ZM70.83 71.53L69.41 65.59L63.90 64.03L59.82 68.41L61.24 74.35L66.74 75.91ZM83.08 58.40L81.66 52.46L76.16 50.90L72.07 55.28L73.49 61.22L79.00 62.78ZM73.49 61.22L72.07 55.28L66.56 53.72L62.48 58.10L63.90 64.03L69.41 65.59ZM87.34 76.22L85.92 70.29L80.42 68.72L76.33 73.10L77.75 79.03L83.25 80.60ZM77.75 79.03L76.33 73.10L70.83 71.53L66.74 75.91L68.16 81.84L73.67 83.41ZM90.01 65.91L88.59 59.97L83.08 58.40L79.00 62.78L80.42 68.72L85.92 70.29ZM54.32 66.85L52.89 60.91L47.39 59.36L43.31 63.73L44.74 69.67L50.24 71.23ZM44.74 69.67L43.31 63.73L37.81 62.18L33.73 66.56L35.16 72.49L40.66 74.05ZM56.97 56.54L55.55 50.60L50.05 49.04L45.97 53.42L47.39 59.36L52.89 60.91ZM47.39 59.36L45.97 53.42L40.46 51.86L36.38 56.24L37.81 62.18L43.31 63.73ZM61.24 74.35L59.82 68.41L54.32 66.85L50.24 71.23L51.66 77.16L57.16 78.72ZM51.66 77.16L50.24 71.23L44.74 69.67L40.66 74.05L42.08 79.98L47.58 81.54ZM63.90 64.03L62.48 58.10L56.97 56.54L52.89 60.91L54.32 66.85L59.82 68.41ZM95.35 45.27L93.94 39.33L88.42 37.76L84.33 42.14L85.75 48.09L91.26 49.65ZM85.75 48.09L84.33 42.14L78.82 40.58L74.73 44.96L76.16 50.90L81.66 52.46ZM98.03 34.95L96.61 29.00L91.10 27.44L87.00 31.82L88.42 37.76L93.94 39.33ZM88.42 37.76L87.00 31.82L81.49 30.25L77.40 34.64L78.82 40.58L84.33 42.14ZM102.28 52.78L100.87 46.84L95.35 45.27L91.26 49.65L92.68 55.59L98.19 57.16ZM92.68 55.59L91.26 49.65L85.75 48.09L81.66 52.46L83.08 58.40L88.59 59.97ZM104.96 42.46L103.54 36.51L98.03 34.95L93.94 39.33L95.35 45.27L100.87 46.84ZM20.30 95.92L18.87 89.99L13.38 88.44L9.31 92.82L10.74 98.74L16.23 100.30ZM22.94 85.62L21.52 79.69L16.02 78.14L11.95 82.51L13.38 88.44L18.87 89.99ZM35.16 72.49L33.73 66.56L28.23 65.00L24.16 69.38L25.59 75.31L31.09 76.87ZM25.59 75.31L24.16 69.38L18.66 67.83L14.59 72.21L16.02 78.14L21.52 79.69ZM37.81 62.18L36.38 56.24L30.88 54.69L26.81 59.07L28.23 65.00L33.73 66.56ZM99.13 -3.56L97.71 -9.52L92.19 -11.08L88.09 -6.69L89.51 -0.74L95.03 0.82ZM89.51 -0.74L88.09 -6.69L82.57 -8.25L78.48 -3.87L79.90 2.08L85.42 3.64ZM106.07 3.95L104.65 -2.00L99.13 -3.56L95.03 0.82L96.45 6.77L101.97 8.34ZM96.45 6.77L95.03 0.82L89.51 -0.74L85.42 3.64L86.84 9.59L92.35 11.16ZM79.90 2.08L78.48 -3.87L72.96 -5.43L68.87 -1.04L70.29 4.91L75.81 6.47ZM117.70 95.95L116.28 90.01L110.78 88.44L106.69 92.81L108.10 98.74L113.60 100.32ZM108.10 98.74L106.69 92.81L101.18 91.24L97.09 95.61L98.51 101.54L104.01 103.11ZM120.38 85.64L118.96 79.70L113.45 78.13L109.36 82.50L110.78 88.44L116.28 90.01ZM110.78 88.44L109.36 82.50L103.86 80.93L99.77 85.30L101.18 91.24L106.69 92.81ZM124.61 103.46L123.20 97.52L117.70 95.95L113.60 100.32L115.02 106.25L120.52 107.83ZM115.02 106.25L113.60 100.32L108.10 98.74L104.01 103.11L105.43 109.05L110.93 110.62ZM127.29 93.15L125.88 87.21L120.38 85.64L116.28 90.01L117.70 95.95L123.20 97.52ZM91.59 94.04L90.17 88.10L84.67 86.53L80.59 90.91L82.00 96.84L87.51 98.41ZM82.00 96.84L80.59 90.91L75.08 89.34L71.00 93.71L72.42 99.65L77.92 101.21ZM94.26 83.73L92.84 77.79L87.34 76.22L83.25 80.60L84.67 86.53L90.17 88.10ZM84.67 86.53L83.25 80.60L77.75 79.03L73.67 83.41L75.08 89.34L80.59 90.91ZM98.51 101.54L97.09 95.61L91.59 94.04L87.51 98.41L88.92 104.34L94.42 105.91ZM88.92 104.34L87.51 98.41L82.00 96.84L77.92 101.21L79.34 107.14L84.84 108.71ZM101.18 91.24L99.77 85.30L94.26 83.73L90.17 88.10L91.59 94.04L97.09 95.61ZM132.66 72.53L131.25 66.58L125.74 65.01L121.64 69.38L123.06 75.33L128.57 76.90ZM123.06 75.33L121.64 69.38L116.13 67.81L112.04 72.18L113.45 78.13L118.96 79.70ZM135.35 62.21L133.94 56.26L128.43 54.69L124.33 59.06L125.74 65.01L131.25 66.58ZM125.74 65.01L124.33 59.06L118.82 57.49L114.72 61.87L116.13 67.81L121.64 69.38ZM139.59 80.05L138.18 74.10L132.66 72.53L128.57 76.90L129.98 82.84L135.49 84.42ZM129.98 82.84L128.57 76.90L123.06 75.33L118.96 79.70L120.38 85.64L125.88 87.21ZM142.28 69.73L140.87 63.79L135.35 62.21L131.25 66.58L132.66 72.53L138.18 74.10ZM106.53 70.61L105.12 64.67L99.61 63.10L95.52 67.48L96.93 73.42L102.44 74.99ZM96.93 73.42L95.52 67.48L90.01 65.91L85.92 70.29L87.34 76.22L92.84 77.79ZM109.21 60.30L107.79 54.35L102.28 52.78L98.19 57.16L99.61 63.10L105.12 64.67ZM99.61 63.10L98.19 57.16L92.68 55.59L88.59 59.97L90.01 65.91L95.52 67.48ZM113.45 78.13L112.04 72.18L106.53 70.61L102.44 74.99L103.86 80.93L109.36 82.50ZM103.86 80.93L102.44 74.99L96.93 73.42L92.84 77.79L94.26 83.73L99.77 85.30ZM116.13 67.81L114.72 61.87L109.21 60.30L105.12 64.67L106.53 70.61L112.04 72.18ZM128.85 121.28L127.44 115.34L121.93 113.77L117.84 118.13L119.25 124.07L124.76 125.64ZM119.25 124.07L117.84 118.13L112.34 116.56L108.25 120.92L109.67 126.86L115.17 128.43ZM131.53 110.98L130.12 105.04L124.61 103.46L120.52 107.83L121.93 113.77L127.44 115.34ZM121.93 113.77L120.52 107.83L115.02 106.25L110.93 110.62L112.34 116.56L117.84 118.13ZM135.76 128.79L134.35 122.85L128.85 121.28L124.76 125.64L126.17 131.58L131.67 133.15ZM126.17 131.58L124.76 125.64L119.25 124.07L115.17 128.43L116.58 134.36L122.08 135.94ZM138.44 118.49L137.03 112.55L131.53 110.98L127.44 115.34L128.85 121.28L134.35 122.85ZM102.75 119.35L101.34 113.41L95.84 111.85L91.75 116.21L93.17 122.14L98.67 123.71ZM93.17 122.14L91.75 116.21L86.26 114.64L82.17 119.01L83.59 124.94L89.09 126.51ZM105.43 109.05L104.01 103.11L98.51 101.54L94.42 105.91L95.84 111.85L101.34 113.41ZM95.84 111.85L94.42 105.91L88.92 104.34L84.84 108.71L86.26 114.64L91.75 116.21ZM109.67 126.86L108.25 120.92L102.75 119.35L98.67 123.71L100.08 129.65L105.58 131.22ZM100.08 129.65L98.67 123.71L93.17 122.14L89.09 126.51L90.50 132.44L96.00 134.01ZM112.34 116.56L110.93 110.62L105.43 109.05L101.34 113.41L102.75 119.35L108.25 120.92ZM143.82 97.88L142.41 91.94L136.90 90.36L132.80 94.73L134.21 100.67L139.72 102.25ZM134.21 100.67L132.80 94.73L127.29 93.15L123.20 97.52L124.61 103.46L130.12 105.04ZM146.51 87.57L145.10 81.63L139.59 80.05L135.49 84.42L136.90 90.36L142.41 91.94ZM136.90 90.36L135.49 84.42L129.98 82.84L125.88 87.21L127.29 93.15L132.80 94.73ZM150.73 105.40L149.33 99.46L143.82 97.88L139.72 102.25L141.13 108.19L146.64 109.77ZM141.13 108.19L139.72 102.25L134.21 100.67L130.12 105.04L131.53 110.98L137.03 112.55ZM153.43 95.09L152.02 89.15L146.51 87.57L142.41 91.94L143.82 97.88L149.33 99.46ZM50.62 115.56L49.20 109.63L43.70 108.07L39.63 112.44L41.05 118.37L46.55 119.93ZM41.05 118.37L39.63 112.44L34.14 110.89L30.07 115.26L31.49 121.18L36.98 122.74ZM53.27 105.26L51.85 99.33L46.35 97.77L42.28 102.14L43.70 108.07L49.20 109.63ZM43.70 108.07L42.28 102.14L36.78 100.59L32.71 104.96L34.14 110.89L39.63 112.44ZM57.53 123.05L56.11 117.12L50.62 115.56L46.55 119.93L47.97 125.86L53.46 127.42ZM47.97 125.86L46.55 119.93L41.05 118.37L36.98 122.74L38.41 128.66L43.90 130.22ZM60.19 112.75L58.77 106.82L53.27 105.26L49.20 109.63L50.62 115.56L56.11 117.12ZM24.58 113.70L23.15 107.77L17.66 106.22L13.59 110.59L15.02 116.52L20.51 118.07ZM15.02 116.52L13.59 110.59L8.10 109.04L4.04 113.41L5.47 119.33L10.96 120.89ZM27.22 103.40L25.79 97.48L20.30 95.92L16.23 100.30L17.66 106.22L23.15 107.77ZM17.66 106.22L16.23 100.30L10.74 98.74L6.68 103.12L8.10 109.04L13.59 110.59ZM31.49 121.18L30.07 115.26L24.58 113.70L20.51 118.07L21.94 123.99L27.43 125.55ZM21.94 123.99L20.51 118.07L15.02 116.52L10.96 120.89L12.38 126.81L17.87 128.36ZM34.14 110.89L32.71 104.96L27.22 103.40L23.15 107.77L24.58 113.70L30.07 115.26ZM65.50 92.15L64.08 86.22L58.58 84.66L54.50 89.03L55.93 94.96L61.42 96.52ZM55.93 94.96L54.50 89.03L49.01 87.47L44.93 91.84L46.35 97.77L51.85 99.33ZM68.16 81.84L66.74 75.91L61.24 74.35L57.16 78.72L58.58 84.66L64.08 86.22ZM58.58 84.66L57.16 78.72L51.66 77.16L47.58 81.54L49.01 87.47L54.50 89.03ZM72.42 99.65L71.00 93.71L65.50 92.15L61.42 96.52L62.84 102.45L68.34 104.02ZM62.84 102.45L61.42 96.52L55.93 94.96L51.85 99.33L53.27 105.26L58.77 106.82ZM75.08 89.34L73.67 83.41L68.16 81.84L64.08 86.22L65.50 92.15L71.00 93.71ZM39.43 90.28L38.01 84.35L32.51 82.80L28.44 87.17L29.86 93.10L35.36 94.66ZM29.86 93.10L28.44 87.17L22.94 85.62L18.87 89.99L20.30 95.92L25.79 97.48ZM42.08 79.98L40.66 74.05L35.16 72.49L31.09 76.87L32.51 82.80L38.01 84.35ZM32.51 82.80L31.09 76.87L25.59 75.31L21.52 79.69L22.94 85.62L28.44 87.17ZM46.35 97.77L44.93 91.84L39.43 90.28L35.36 94.66L36.78 100.59L42.28 102.14ZM36.78 100.59L35.36 94.66L29.86 93.10L25.79 97.48L27.22 103.40L32.71 104.96ZM49.01 87.47L47.58 81.54L42.08 79.98L38.01 84.35L39.43 90.28L44.93 91.84ZM61.79 140.83L60.37 134.91L54.88 133.34L50.81 137.71L52.23 143.63L57.72 145.19ZM52.23 143.63L50.81 137.71L45.32 136.15L41.25 140.51L42.67 146.43L48.16 148.00ZM64.45 130.54L63.03 124.61L57.53 123.05L53.46 127.42L54.88 133.34L60.37 134.91ZM54.88 133.34L53.46 127.42L47.97 125.86L43.90 130.22L45.32 136.15L50.81 137.71ZM68.70 148.32L67.28 142.40L61.79 140.83L57.72 145.19L59.14 151.12L64.63 152.68ZM59.14 151.12L57.72 145.19L52.23 143.63L48.16 148.00L49.58 153.92L55.07 155.48ZM71.36 138.03L69.94 132.10L64.45 130.54L60.37 134.91L61.79 140.83L67.28 142.40ZM35.76 138.95L34.34 133.03L28.85 131.47L24.78 135.84L26.21 141.76L31.69 143.32ZM26.21 141.76L24.78 135.84L19.30 134.28L15.23 138.65L16.66 144.57L22.14 146.13ZM38.41 128.66L36.98 122.74L31.49 121.18L27.43 125.55L28.85 131.47L34.34 133.03ZM28.85 131.47L27.43 125.55L21.94 123.99L17.87 128.36L19.30 134.28L24.78 135.84ZM42.67 146.43L41.25 140.51L35.76 138.95L31.69 143.32L33.12 149.24L38.60 150.80ZM33.12 149.24L31.69 143.32L26.21 141.76L22.14 146.13L23.57 152.05L29.05 153.60ZM45.32 136.15L43.90 130.22L38.41 128.66L34.34 133.03L35.76 138.95L41.25 140.51ZM76.68 117.44L75.26 111.51L69.76 109.95L65.68 114.32L67.10 120.25L72.60 121.81ZM67.10 120.25L65.68 114.32L60.19 112.75L56.11 117.12L57.53 123.05L63.03 124.61ZM79.34 107.14L77.92 101.21L72.42 99.65L68.34 104.02L69.76 109.95L75.26 111.51ZM69.76 109.95L68.34 104.02L62.84 102.45L58.77 106.82L60.19 112.75L65.68 114.32ZM83.59 124.94L82.17 119.01L76.68 117.44L72.60 121.81L74.02 127.74L79.51 129.31ZM74.02 127.74L72.60 121.81L67.10 120.25L63.03 124.61L64.45 130.54L69.94 132.10ZM86.26 114.64L84.84 108.71L79.34 107.14L75.26 111.51L76.68 117.44L82.17 119.01ZM136.49 23.71L135.08 17.75L129.56 16.18L125.46 20.56L126.87 26.51L132.39 28.09ZM126.87 26.51L125.46 20.56L119.94 18.99L115.84 23.37L117.25 29.32L122.77 30.89ZM139.19 13.37L137.77 7.42L132.25 5.85L128.15 10.23L129.56 16.18L135.08 17.75ZM129.56 16.18L128.15 10.23L122.63 8.66L118.52 13.04L119.94 18.99L125.46 20.56ZM143.43 31.23L142.01 25.28L136.49 23.71L132.39 28.09L133.80 34.04L139.32 35.61ZM133.80 34.04L132.39 28.09L126.87 26.51L122.77 30.89L124.18 36.84L129.70 38.42ZM146.12 20.90L144.71 14.95L139.19 13.37L135.08 17.75L136.49 23.71L142.01 25.28ZM110.32 21.81L108.90 15.86L103.39 14.29L99.29 18.67L100.71 24.62L106.22 26.19ZM100.71 24.62L99.29 18.67L93.77 17.11L89.68 21.49L91.10 27.44L96.61 29.00ZM113.00 11.47L111.59 5.52L106.07 3.95L101.97 8.34L103.39 14.29L108.90 15.86ZM103.39 14.29L101.97 8.34L96.45 6.77L92.35 11.16L93.77 17.11L99.29 18.67ZM117.25 29.32L115.84 23.37L110.32 21.81L106.22 26.19L107.64 32.13L113.15 33.70ZM107.64 32.13L106.22 26.19L100.71 24.62L96.61 29.00L98.03 34.95L103.54 36.51ZM119.94 18.99L118.52 13.04L113.00 11.47L108.90 15.86L110.32 21.81L115.84 23.37ZM151.52 0.23L150.10 -5.73L144.58 -7.31L140.47 -2.92L141.88 3.04L147.41 4.61ZM141.88 3.04L140.47 -2.92L134.94 -4.49L130.84 -0.11L132.25 5.85L137.77 7.42ZM158.45 7.76L157.04 1.80L151.52 0.23L147.41 4.61L148.82 10.57L154.34 12.14ZM148.82 10.57L147.41 4.61L141.88 3.04L137.77 7.42L139.19 13.37L144.71 14.95ZM161.16 -2.58L159.74 -8.54L154.22 -10.12L150.10 -5.73L151.52 0.23L157.04 1.80ZM125.31 -1.68L123.90 -7.64L118.38 -9.20L114.27 -4.82L115.69 1.14L121.21 2.70ZM115.69 1.14L114.27 -4.82L108.75 -6.39L104.65 -2.00L106.07 3.95L111.59 5.52ZM132.25 5.85L130.84 -0.11L125.31 -1.68L121.21 2.70L122.63 8.66L128.15 10.23ZM122.63 8.66L121.21 2.70L115.69 1.14L111.59 5.52L113.00 11.47L118.52 13.04ZM147.66 49.09L146.25 43.14L140.73 41.56L136.63 45.94L138.04 51.89L143.56 53.46ZM138.04 51.89L136.63 45.94L131.11 44.37L127.01 48.74L128.43 54.69L133.94 56.26ZM150.36 38.76L148.94 32.81L143.43 31.23L139.32 35.61L140.73 41.56L146.25 43.14ZM140.73 41.56L139.32 35.61L133.80 34.04L129.70 38.42L131.11 44.37L136.63 45.94ZM154.59 56.62L153.18 50.67L147.66 49.09L143.56 53.46L144.97 59.41L150.48 60.99ZM144.97 59.41L143.56 53.46L138.04 51.89L133.94 56.26L135.35 62.21L140.87 63.79ZM157.28 46.29L155.87 40.34L150.36 38.76L146.25 43.14L147.66 49.09L153.18 50.67ZM121.50 47.17L120.08 41.22L114.57 39.65L110.47 44.03L111.89 49.98L117.40 51.55ZM111.89 49.98L110.47 44.03L104.96 42.46L100.87 46.84L102.28 52.78L107.79 54.35ZM124.18 36.84L122.77 30.89L117.25 29.32L113.15 33.70L114.57 39.65L120.08 41.22ZM114.57 39.65L113.15 33.70L107.64 32.13L103.54 36.51L104.96 42.46L110.47 44.03ZM128.43 54.69L127.01 48.74L121.50 47.17L117.40 51.55L118.82 57.49L124.33 59.06ZM118.82 57.49L117.40 51.55L111.89 49.98L107.79 54.35L109.21 60.30L114.72 61.87ZM131.11 44.37L129.70 38.42L124.18 36.84L120.08 41.22L121.50 47.17L127.01 48.74ZM162.68 25.63L161.27 19.68L155.75 18.10L151.64 22.48L153.05 28.43L158.57 30.01ZM153.05 28.43L151.64 22.48L146.12 20.90L142.01 25.28L143.43 31.23L148.94 32.81ZM165.39 15.30L163.98 9.34L158.45 7.76L154.34 12.14L155.75 18.10L161.27 19.68ZM155.75 18.10L154.34 12.14L148.82 10.57L144.71 14.95L146.12 20.90L151.64 22.48ZM169.62 33.17L168.21 27.21L162.68 25.63L158.57 30.01L159.98 35.96L165.50 37.54ZM159.98 35.96L158.57 30.01L153.05 28.43L148.94 32.81L150.36 38.76L155.87 40.34ZM172.32 22.83L170.91 16.88L165.39 15.30L161.27 19.68L162.68 25.63L168.21 27.21ZM70.83 242.68L69.41 236.77L63.94 235.20L59.87 239.55L61.29 245.46L66.76 247.03ZM73.48 232.42L72.06 226.51L66.58 224.94L62.52 229.29L63.94 235.20L69.41 236.77ZM77.71 250.16L76.30 244.25L70.83 242.68L66.76 247.03L68.18 252.94L73.65 254.51ZM54.40 237.98L52.98 232.07L47.51 230.51L43.45 234.85L44.87 240.76L50.34 242.33ZM44.87 240.76L43.45 234.85L37.98 233.29L33.92 237.64L35.34 243.55L40.81 245.11ZM57.04 227.72L55.63 221.81L50.15 220.25L46.09 224.59L47.51 230.51L52.98 232.07ZM47.51 230.51L46.09 224.59L40.62 223.03L36.56 227.38L37.98 233.29L43.45 234.85ZM61.29 245.46L59.87 239.55L54.40 237.98L50.34 242.33L51.76 248.24L57.23 249.80ZM51.76 248.24L50.34 242.33L44.87 240.76L40.81 245.11L42.23 251.02L47.70 252.58ZM63.94 235.20L62.52 229.29L57.04 227.72L52.98 232.07L54.40 237.98L59.87 239.55ZM88.34 209.12L86.92 203.20L81.44 201.63L77.37 205.98L78.78 211.90L84.27 213.47ZM69.23 214.68L67.82 208.76L62.34 207.19L58.27 211.55L59.69 217.46L65.17 219.03ZM59.69 217.46L58.27 211.55L52.80 209.98L48.73 214.33L50.15 220.25L55.63 221.81ZM71.89 204.41L70.47 198.49L64.99 196.93L60.92 201.28L62.34 207.19L67.82 208.76ZM62.34 207.19L60.92 201.28L55.44 199.71L51.38 204.07L52.80 209.98L58.27 211.55ZM76.13 222.16L74.72 216.25L69.23 214.68L65.17 219.03L66.58 224.94L72.06 226.51ZM66.58 224.94L65.17 219.03L59.69 217.46L55.63 221.81L57.04 227.72L62.52 229.29ZM78.78 211.90L77.37 205.98L71.89 204.41L67.82 208.76L69.23 214.68L74.72 216.25ZM65.53 263.19L64.12 257.28L58.64 255.71L54.59 260.05L56.00 265.96L61.47 267.53ZM68.18 252.94L66.76 247.03L61.29 245.46L57.23 249.80L58.64 255.71L64.12 257.28ZM58.64 255.71L57.23 249.80L51.76 248.24L47.70 252.58L49.12 258.49L54.59 260.05ZM75.06 260.42L73.65 254.51L68.18 252.94L64.12 257.28L65.53 263.19L71.00 264.76ZM130.40 149.38L128.99 143.45L123.49 141.87L119.40 146.23L120.81 152.16L126.31 153.74ZM133.08 139.09L131.67 133.15L126.17 131.58L122.08 135.94L123.49 141.87L128.99 143.45ZM183.79 114.90L182.38 108.95L176.87 107.37L172.77 111.73L174.17 117.67L179.68 119.26ZM174.17 117.67L172.77 111.73L167.26 110.14L163.16 114.51L164.56 120.45L170.07 122.03ZM154.96 123.23L153.55 117.29L148.04 115.71L143.95 120.07L145.36 126.01L150.86 127.59ZM145.36 126.01L143.95 120.07L138.44 118.49L134.35 122.85L135.76 128.79L141.26 130.37ZM157.65 112.93L156.24 106.98L150.73 105.40L146.64 109.77L148.04 115.71L153.55 117.29ZM148.04 115.71L146.64 109.77L141.13 108.19L137.03 112.55L138.44 118.49L143.95 120.07ZM161.87 130.75L160.46 124.81L154.96 123.23L150.86 127.59L152.27 133.53L157.77 135.11ZM152.27 133.53L150.86 127.59L145.36 126.01L141.26 130.37L142.67 136.31L148.17 137.89ZM98.99 168.02L97.57 162.09L92.08 160.52L88.00 164.87L89.42 170.80L94.91 172.37ZM89.42 170.80L88.00 164.87L82.51 163.31L78.44 167.66L79.85 173.59L85.34 175.16ZM101.65 157.73L100.24 151.80L94.75 150.23L90.67 154.59L92.08 160.52L97.57 162.09ZM92.08 160.52L90.67 154.59L85.18 153.02L81.10 157.38L82.51 163.31L88.00 164.87ZM105.89 175.51L104.48 169.59L98.99 168.02L94.91 172.37L96.32 178.30L101.81 179.87ZM96.32 178.30L94.91 172.37L89.42 170.80L85.34 175.16L86.76 181.08L92.25 182.65ZM108.56 165.23L107.15 159.30L101.65 157.73L97.57 162.09L98.99 168.02L104.48 169.59ZM72.95 166.10L71.53 160.17L66.04 158.61L61.97 162.97L63.39 168.89L68.88 170.45ZM63.39 168.89L61.97 162.97L56.49 161.40L52.42 165.76L53.84 171.68L59.32 173.25ZM75.61 155.81L74.19 149.89L68.70 148.32L64.63 152.68L66.04 158.61L71.53 160.17ZM66.04 158.61L64.63 152.68L59.14 151.12L55.07 155.48L56.49 161.40L61.97 162.97ZM79.85 173.59L78.44 167.66L72.95 166.10L68.88 170.45L70.29 176.38L75.78 177.94ZM70.29 176.38L68.88 170.45L63.39 168.89L59.32 173.25L60.74 179.17L66.23 180.73ZM82.51 163.31L81.10 157.38L75.61 155.81L71.53 160.17L72.95 166.10L78.44 167.66ZM113.90 144.66L112.49 138.72L106.99 137.15L102.91 141.51L104.32 147.44L109.82 149.01ZM104.32 147.44L102.91 141.51L97.41 139.94L93.33 144.30L94.75 150.23L100.24 151.80ZM116.58 134.36L115.17 128.43L109.67 126.86L105.58 131.22L106.99 137.15L112.49 138.72ZM106.99 137.15L105.58 131.22L100.08 129.65L96.00 134.01L97.41 139.94L102.91 141.51ZM120.81 152.16L119.40 146.23L113.90 144.66L109.82 149.01L111.23 154.95L116.73 156.52ZM111.23 154.95L109.82 149.01L104.32 147.44L100.24 151.80L101.65 157.73L107.15 159.30ZM123.49 141.87L122.08 135.94L116.58 134.36L112.49 138.72L113.90 144.66L119.40 146.23ZM87.84 142.73L86.42 136.80L80.93 135.24L76.85 139.60L78.27 145.53L83.76 147.09ZM78.27 145.53L76.85 139.60L71.36 138.03L67.28 142.40L68.70 148.32L74.19 149.89ZM90.50 132.44L89.09 126.51L83.59 124.94L79.51 129.31L80.93 135.24L86.42 136.80ZM80.93 135.24L79.51 129.31L74.02 127.74L69.94 132.10L71.36 138.03L76.85 139.60ZM94.75 150.23L93.33 144.30L87.84 142.73L83.76 147.09L85.18 153.02L90.67 154.59ZM85.18 153.02L83.76 147.09L78.27 145.53L74.19 149.89L75.61 155.81L81.10 157.38ZM97.41 139.94L96.00 134.01L90.50 132.44L86.42 136.80L87.84 142.73L93.33 144.30ZM84.10 191.36L82.68 185.43L77.20 183.87L73.13 188.22L74.54 194.14L80.03 195.71ZM74.54 194.14L73.13 188.22L67.64 186.65L63.57 191.01L64.99 196.93L70.47 198.49ZM86.76 181.08L85.34 175.16L79.85 173.59L75.78 177.94L77.20 183.87L82.68 185.43ZM77.20 183.87L75.78 177.94L70.29 176.38L66.23 180.73L67.64 186.65L73.13 188.22ZM81.44 201.63L80.03 195.71L74.54 194.14L70.47 198.49L71.89 204.41L77.37 205.98ZM93.66 188.57L92.25 182.65L86.76 181.08L82.68 185.43L84.10 191.36L89.58 192.93ZM118.14 162.45L116.73 156.52L111.23 154.95L107.15 159.30L108.56 165.23L114.05 166.81ZM0.87 206.21L-0.55 200.31L-6.03 198.75L-10.08 203.11L-8.65 209.02L-3.18 210.57ZM8.10 109.04L6.68 103.12L1.19 101.57L-2.88 105.94L-1.45 111.86L4.04 113.41ZM1.85 167.94L0.43 162.03L-5.05 160.47L-9.11 164.84L-7.68 170.75L-2.20 172.30ZM4.48 157.66L3.06 151.75L-2.43 150.19L-6.48 154.56L-5.05 160.47L0.43 162.03ZM9.75 137.10L8.32 131.18L2.83 129.62L-1.22 133.99L0.20 139.91L5.69 141.46ZM0.20 139.91L-1.22 133.99L-6.71 132.44L-10.77 136.81L-9.34 142.73L-3.85 144.28ZM12.38 126.81L10.96 120.89L5.47 119.33L1.41 123.70L2.83 129.62L8.32 131.18ZM2.83 129.62L1.41 123.70L-4.08 122.15L-8.14 126.52L-6.71 132.44L-1.22 133.99ZM16.66 144.57L15.23 138.65L9.75 137.10L5.69 141.46L7.11 147.38L12.60 148.94ZM7.11 147.38L5.69 141.46L0.20 139.91L-3.85 144.28L-2.43 150.19L3.06 151.75ZM19.30 134.28L17.87 128.36L12.38 126.81L8.32 131.18L9.75 137.10L15.23 138.65ZM13.67 259.37L12.25 253.46L6.78 251.91L2.74 256.25L4.16 262.15L9.62 263.71ZM4.16 262.15L2.74 256.25L-2.73 254.70L-6.77 259.04L-5.35 264.94L0.11 266.50ZM16.30 249.12L14.88 243.21L9.41 241.65L5.36 246.00L6.78 251.91L12.25 253.46ZM6.78 251.91L5.36 246.00L-0.11 244.45L-4.15 248.79L-2.73 254.70L2.74 256.25ZM23.18 256.58L21.76 250.68L16.30 249.12L12.25 253.46L13.67 259.37L19.14 260.92ZM28.45 236.08L27.03 230.17L21.56 228.61L17.50 232.96L18.93 238.86L24.40 240.42ZM18.93 238.86L17.50 232.96L12.03 231.40L7.98 235.75L9.41 241.65L14.88 243.21ZM31.08 225.82L29.66 219.91L24.19 218.35L20.14 222.70L21.56 228.61L27.03 230.17ZM21.56 228.61L20.14 222.70L14.66 221.14L10.61 225.49L12.03 231.40L17.50 232.96ZM35.34 243.55L33.92 237.64L28.45 236.08L24.40 240.42L25.82 246.33L31.29 247.89ZM25.82 246.33L24.40 240.42L18.93 238.86L14.88 243.21L16.30 249.12L21.76 250.68ZM37.98 233.29L36.56 227.38L31.08 225.82L27.03 230.17L28.45 236.08L33.92 237.64ZM2.52 234.19L1.09 228.29L-4.38 226.73L-8.42 231.09L-7.00 236.99L-1.53 238.54ZM5.14 223.94L3.72 218.03L-1.75 216.48L-5.80 220.83L-4.38 226.73L1.09 228.29ZM9.41 241.65L7.98 235.75L2.52 234.19L-1.53 238.54L-0.11 244.45L5.36 246.00ZM12.03 231.40L10.61 225.49L5.14 223.94L1.09 228.29L2.52 234.19L7.98 235.75ZM39.59 261.27L38.17 255.36L32.70 253.80L28.65 258.14L30.07 264.05L35.54 265.61ZM42.23 251.02L40.81 245.11L35.34 243.55L31.29 247.89L32.70 253.80L38.17 255.36ZM32.70 253.80L31.29 247.89L25.82 246.33L21.76 250.68L23.18 256.58L28.65 258.14ZM49.12 258.49L47.70 252.58L42.23 251.02L38.17 255.36L39.59 261.27L45.06 262.83ZM32.10 187.55L30.68 181.63L25.20 180.08L21.14 184.43L22.56 190.35L28.04 191.91ZM22.56 190.35L21.14 184.43L15.66 182.88L11.60 187.24L13.03 193.15L18.50 194.70ZM34.74 177.28L33.32 171.36L27.84 169.80L23.78 174.16L25.20 180.08L30.68 181.63ZM25.20 180.08L23.78 174.16L18.29 172.60L14.24 176.96L15.66 182.88L21.14 184.43ZM39.00 195.03L37.58 189.11L32.10 187.55L28.04 191.91L29.46 197.82L34.94 199.38ZM29.46 197.82L28.04 191.91L22.56 190.35L18.50 194.70L19.93 200.62L25.40 202.17ZM41.64 184.75L40.22 178.84L34.74 177.28L30.68 181.63L32.10 187.55L37.58 189.11ZM6.13 185.68L4.70 179.77L-0.78 178.22L-4.83 182.57L-3.40 188.49L2.07 190.04ZM8.76 175.41L7.33 169.49L1.85 167.94L-2.20 172.30L-0.78 178.22L4.70 179.77ZM13.03 193.15L11.60 187.24L6.13 185.68L2.07 190.04L3.50 195.95L8.97 197.50ZM3.50 195.95L2.07 190.04L-3.40 188.49L-7.45 192.84L-6.03 198.75L-0.55 200.31ZM15.66 182.88L14.24 176.96L8.76 175.41L4.70 179.77L6.13 185.68L11.60 187.24ZM46.93 164.20L45.51 158.28L40.03 156.72L35.96 161.08L37.38 167.00L42.87 168.56ZM37.38 167.00L35.96 161.08L30.48 159.52L26.41 163.88L27.84 169.80L33.32 171.36ZM49.58 153.92L48.16 148.00L42.67 146.43L38.60 150.80L40.03 156.72L45.51 158.28ZM40.03 156.72L38.60 150.80L33.12 149.24L29.05 153.60L30.48 159.52L35.96 161.08ZM53.84 171.68L52.42 165.76L46.93 164.20L42.87 168.56L44.29 174.48L49.77 176.04ZM44.29 174.48L42.87 168.56L37.38 167.00L33.32 171.36L34.74 177.28L40.22 178.84ZM56.49 161.40L55.07 155.48L49.58 153.92L45.51 158.28L46.93 164.20L52.42 165.76ZM20.93 162.33L19.51 156.41L14.02 154.85L9.96 159.22L11.39 165.13L16.87 166.69ZM11.39 165.13L9.96 159.22L4.48 157.66L0.43 162.03L1.85 167.94L7.33 169.49ZM23.57 152.05L22.14 146.13L16.66 144.57L12.60 148.94L14.02 154.85L19.51 156.41ZM14.02 154.85L12.60 148.94L7.11 147.38L3.06 151.75L4.48 157.66L9.96 159.22ZM27.84 169.80L26.41 163.88L20.93 162.33L16.87 166.69L18.29 172.60L23.78 174.16ZM18.29 172.60L16.87 166.69L11.39 165.13L7.33 169.49L8.76 175.41L14.24 176.96ZM30.48 159.52L29.05 153.60L23.57 152.05L19.51 156.41L20.93 162.33L26.41 163.88ZM43.26 212.77L41.84 206.86L36.36 205.29L32.30 209.65L33.72 215.56L39.20 217.12ZM33.72 215.56L32.30 209.65L26.82 208.09L22.77 212.44L24.19 218.35L29.66 219.91ZM45.90 202.50L44.48 196.59L39.00 195.03L34.94 199.38L36.36 205.29L41.84 206.86ZM36.36 205.29L34.94 199.38L29.46 197.82L25.40 202.17L26.82 208.09L32.30 209.65ZM50.15 220.25L48.73 214.33L43.26 212.77L39.20 217.12L40.62 223.03L46.09 224.59ZM40.62 223.03L39.20 217.12L33.72 215.56L29.66 219.91L31.08 225.82L36.56 227.38ZM52.80 209.98L51.38 204.07L45.90 202.50L41.84 206.86L43.26 212.77L48.73 214.33ZM17.29 210.88L15.87 204.97L10.40 203.41L6.34 207.77L7.77 213.68L13.24 215.23ZM7.77 213.68L6.34 207.77L0.87 206.21L-3.18 210.57L-1.75 216.48L3.72 218.03ZM19.93 200.62L18.50 194.70L13.03 193.15L8.97 197.50L10.40 203.41L15.87 204.97ZM10.40 203.41L8.97 197.50L3.50 195.95L-0.55 200.31L0.87 206.21L6.34 207.77ZM24.19 218.35L22.77 212.44L17.29 210.88L13.24 215.23L14.66 221.14L20.14 222.70ZM14.66 221.14L13.24 215.23L7.77 213.68L3.72 218.03L5.14 223.94L10.61 225.49ZM26.82 208.09L25.40 202.17L19.93 200.62L15.87 204.97L17.29 210.88L22.77 212.44ZM58.09 189.44L56.67 183.52L51.19 181.96L47.12 186.32L48.54 192.23L54.02 193.80ZM48.54 192.23L47.12 186.32L41.64 184.75L37.58 189.11L39.00 195.03L44.48 196.59ZM60.74 179.17L59.32 173.25L53.84 171.68L49.77 176.04L51.19 181.96L56.67 183.52ZM51.19 181.96L49.77 176.04L44.29 174.48L40.22 178.84L41.64 184.75L47.12 186.32ZM64.99 196.93L63.57 191.01L58.09 189.44L54.02 193.80L55.44 199.71L60.92 201.28ZM55.44 199.71L54.02 193.80L48.54 192.23L44.48 196.59L45.90 202.50L51.38 204.07ZM67.64 186.65L66.23 180.73L60.74 179.17L56.67 183.52L58.09 189.44L63.57 191.01Z"/><path data-band="2" fill="#f97316" fill-opacity="0.35" d="M260.85 92.76L259.46 86.80L253.93 85.20L249.81 89.57L251.20 95.52L256.72 97.12ZM244.29 87.97L242.89 82.01L237.37 80.41L233.24 84.78L234.64 90.73L240.16 92.33ZM203.03 109.35L201.63 103.40L196.11 101.81L192.00 106.18L193.40 112.12L198.92 113.71ZM265.03 110.64L263.64 104.68L258.12 103.08L253.99 107.44L255.39 113.39L260.90 114.99ZM233.39 129.21L231.99 123.26L226.48 121.67L222.36 126.03L223.76 131.97L229.27 133.57ZM223.76 131.97L222.36 126.03L216.85 124.43L212.74 128.79L214.14 134.74L219.65 136.33ZM236.11 118.91L234.71 112.96L229.20 111.36L225.08 115.72L226.48 121.67L231.99 123.26ZM226.48 121.67L225.08 115.72L219.57 114.13L215.45 118.48L216.85 124.43L222.36 126.03ZM240.30 136.76L238.90 130.81L233.39 129.21L229.27 133.57L230.67 139.52L236.18 141.11ZM230.67 139.52L229.27 133.57L223.76 131.97L219.65 136.33L221.04 142.28L226.55 143.87ZM243.02 126.46L241.63 120.51L236.11 118.91L231.99 123.26L233.39 129.21L238.90 130.81ZM207.23 127.20L205.83 121.25L200.32 119.66L196.21 124.02L197.61 129.96L203.12 131.55ZM197.61 129.96L196.21 124.02L190.70 122.43L186.59 126.79L187.99 132.73L193.50 134.32ZM209.94 116.89L208.54 110.94L203.03 109.35L198.92 113.71L200.32 119.66L205.83 121.25ZM200.32 119.66L198.92 113.71L193.40 112.12L189.30 116.48L190.70 122.43L196.21 124.02ZM214.14 134.74L212.74 128.79L207.23 127.20L203.12 131.55L204.52 137.50L210.03 139.09ZM204.52 137.50L203.12 131.55L197.61 129.96L193.50 134.32L194.90 140.26L200.41 141.85ZM216.85 124.43L215.45 118.48L209.94 116.89L205.83 121.25L207.23 127.20L212.74 128.79ZM248.47 105.84L247.08 99.88L241.56 98.29L237.44 102.64L238.83 108.60L244.35 110.20ZM238.83 108.60L237.44 102.64L231.92 101.05L227.80 105.41L229.20 111.36L234.71 112.96ZM251.20 95.52L249.81 89.57L244.29 87.97L240.16 92.33L241.56 98.29L247.08 99.88ZM241.56 98.29L240.16 92.33L234.64 90.73L230.52 95.09L231.92 101.05L237.44 102.64ZM255.39 113.39L253.99 107.44L248.47 105.84L244.35 110.20L245.75 116.15L251.26 117.75ZM245.75 116.15L244.35 110.20L238.83 108.60L234.71 112.96L236.11 118.91L241.63 120.51ZM258.12 103.08L256.72 97.12L251.20 95.52L247.08 99.88L248.47 105.84L253.99 107.44ZM222.28 103.82L220.89 97.86L215.37 96.27L211.25 100.63L212.65 106.58L218.17 108.17ZM212.65 106.58L211.25 100.63L205.74 99.04L201.63 103.40L203.03 109.35L208.54 110.94ZM229.20 111.36L227.80 105.41L222.28 103.82L218.17 108.17L219.57 114.13L225.08 115.72ZM219.57 114.13L218.17 108.17L212.65 106.58L208.54 110.94L209.94 116.89L215.45 118.48ZM244.48 154.61L243.09 148.66L237.58 147.06L233.46 151.41L234.86 157.36L240.36 158.96ZM234.86 157.36L233.46 151.41L227.95 149.82L223.84 154.17L225.24 160.11L230.74 161.71ZM247.20 144.31L245.81 138.36L240.30 136.76L236.18 141.11L237.58 147.06L243.09 148.66ZM237.58 147.06L236.18 141.11L230.67 139.52L226.55 143.87L227.95 149.82L233.46 151.41ZM251.38 162.16L249.99 156.21L244.48 154.61L240.36 158.96L241.76 164.90L247.27 166.50ZM241.76 164.90L240.36 158.96L234.86 157.36L230.74 161.71L232.14 167.65L237.64 169.25ZM254.11 151.86L252.72 145.91L247.20 144.31L243.09 148.66L244.48 154.61L249.99 156.21ZM218.33 152.57L216.93 146.63L211.43 145.04L207.32 149.39L208.72 155.33L214.22 156.92ZM208.72 155.33L207.32 149.39L201.81 147.80L197.70 152.15L199.10 158.09L204.61 159.68ZM221.04 142.28L219.65 136.33L214.14 134.74L210.03 139.09L211.43 145.04L216.93 146.63ZM211.43 145.04L210.03 139.09L204.52 137.50L200.41 141.85L201.81 147.80L207.32 149.39ZM225.24 160.11L223.84 154.17L218.33 152.57L214.22 156.92L215.62 162.87L221.12 164.46ZM215.62 162.87L214.22 156.92L208.72 155.33L204.61 159.68L206.01 165.62L211.51 167.22ZM227.95 149.82L226.55 143.87L221.04 142.28L216.93 146.63L218.33 152.57L223.84 154.17ZM259.57 131.26L258.17 125.30L252.66 123.70L248.54 128.06L249.93 134.01L255.44 135.61ZM249.93 134.01L248.54 128.06L243.02 126.46L238.90 130.81L240.30 136.76L245.81 138.36ZM262.30 120.95L260.90 114.99L255.39 113.39L251.26 117.75L252.66 123.70L258.17 125.30ZM252.66 123.70L251.26 117.75L245.75 116.15L241.63 120.51L243.02 126.46L248.54 128.06ZM266.47 138.81L265.08 132.86L259.57 131.26L255.44 135.61L256.84 141.56L262.35 143.16ZM256.84 141.56L255.44 135.61L249.93 134.01L245.81 138.36L247.20 144.31L252.72 145.91ZM262.61 254.02L261.23 248.08L255.73 246.48L251.62 250.81L253.01 256.74L258.51 258.35ZM253.01 256.74L251.62 250.81L246.13 249.21L242.02 253.54L243.41 259.47L248.91 261.07ZM265.34 243.75L263.95 237.81L258.45 236.21L254.34 240.54L255.73 246.48L261.23 248.08ZM255.73 246.48L254.34 240.54L248.84 238.94L244.74 243.27L246.13 249.21L251.62 250.81ZM236.53 251.94L235.14 246.00L229.64 244.40L225.54 248.74L226.93 254.67L232.43 256.27ZM226.93 254.67L225.54 248.74L220.05 247.14L215.95 251.47L217.34 257.40L222.84 259.00ZM239.24 241.67L237.85 235.73L232.35 234.13L228.25 238.47L229.64 244.40L235.14 246.00ZM229.64 244.40L228.25 238.47L222.76 236.87L218.66 241.21L220.05 247.14L225.54 248.74ZM243.41 259.47L242.02 253.54L236.53 251.94L232.43 256.27L233.82 262.20L239.31 263.80ZM233.82 262.20L232.43 256.27L226.93 254.67L222.84 259.00L224.23 264.93L229.72 266.53ZM246.13 249.21L244.74 243.27L239.24 241.67L235.14 246.00L236.53 251.94L242.02 253.54ZM251.56 228.67L250.17 222.73L244.67 221.13L240.57 225.46L241.96 231.40L247.45 233.00ZM241.96 231.40L240.57 225.46L235.07 223.86L230.96 228.20L232.35 234.13L237.85 235.73ZM254.28 218.39L252.89 212.45L247.39 210.85L243.28 215.19L244.67 221.13L250.17 222.73ZM244.67 221.13L243.28 215.19L237.78 213.59L233.68 217.93L235.07 223.86L240.57 225.46ZM258.45 236.21L257.06 230.27L251.56 228.67L247.45 233.00L248.84 238.94L254.34 240.54ZM248.84 238.94L247.45 233.00L241.96 231.40L237.85 235.73L239.24 241.67L244.74 243.27ZM261.17 225.94L259.78 219.99L254.28 218.39L250.17 222.73L251.56 228.67L257.06 230.27ZM255.56 180.00L254.17 174.05L248.66 172.45L244.54 176.79L245.94 182.74L251.44 184.34ZM245.94 182.74L244.54 176.79L239.04 175.20L234.93 179.54L236.32 185.48L241.82 187.08ZM258.28 169.71L256.89 163.76L251.38 162.16L247.27 166.50L248.66 172.45L254.17 174.05ZM248.66 172.45L247.27 166.50L241.76 164.90L237.64 169.25L239.04 175.20L244.54 176.79ZM262.46 187.55L261.07 181.60L255.56 180.00L251.44 184.34L252.83 190.28L258.34 191.89ZM252.83 190.28L251.44 184.34L245.94 182.74L241.82 187.08L243.22 193.03L248.72 194.63ZM265.18 177.26L263.79 171.31L258.28 169.71L254.17 174.05L255.56 180.00L261.07 181.60ZM261.01 159.41L259.62 153.46L254.11 151.86L249.99 156.21L251.38 162.16L256.89 163.76ZM263.74 149.11L262.35 143.16L256.84 141.56L252.72 145.91L254.11 151.86L259.62 153.46ZM266.62 205.38L265.24 199.43L259.73 197.83L255.62 202.17L257.01 208.11L262.51 209.72ZM257.01 208.11L255.62 202.17L250.11 200.57L246.00 204.91L247.39 210.85L252.89 212.45ZM259.73 197.83L258.34 191.89L252.83 190.28L248.72 194.63L250.11 200.57L255.62 202.17ZM263.90 215.66L262.51 209.72L257.01 208.11L252.89 212.45L254.28 218.39L259.78 219.99ZM147.27 220.54L145.87 214.61L140.38 213.03L136.30 217.38L137.70 223.30L143.19 224.88ZM137.70 223.30L136.30 217.38L130.81 215.80L126.73 220.14L128.14 226.06L133.62 227.64ZM149.96 210.27L148.55 204.34L143.06 202.76L138.98 207.11L140.38 213.03L145.87 214.61ZM140.38 213.03L138.98 207.11L133.49 205.53L129.40 209.87L130.81 215.80L136.30 217.38ZM154.17 228.05L152.76 222.12L147.27 220.54L143.19 224.88L144.59 230.81L150.08 232.39ZM144.59 230.81L143.19 224.88L137.70 223.30L133.62 227.64L135.03 233.57L140.51 235.15ZM156.85 217.78L155.45 211.85L149.96 210.27L145.87 214.61L147.27 220.54L152.76 222.12ZM121.24 218.56L119.84 212.64L114.35 211.06L110.27 215.41L111.68 221.33L117.17 222.91ZM111.68 221.33L110.27 215.41L104.79 213.84L100.71 218.18L102.12 224.10L107.61 225.68ZM123.92 208.29L122.51 202.37L117.02 200.79L112.94 205.14L114.35 211.06L119.84 212.64ZM114.35 211.06L112.94 205.14L107.45 203.57L103.38 207.91L104.79 213.84L110.27 215.41ZM128.14 226.06L126.73 220.14L121.24 218.56L117.17 222.91L118.57 228.83L124.06 230.41ZM118.57 228.83L117.17 222.91L111.68 221.33L107.61 225.68L109.02 231.60L114.50 233.17ZM130.81 215.80L129.40 209.87L123.92 208.29L119.84 212.64L121.24 218.56L126.73 220.14ZM162.22 197.23L160.82 191.30L155.32 189.72L151.23 194.06L152.64 199.99L158.13 201.58ZM152.64 199.99L151.23 194.06L145.74 192.48L141.66 196.83L143.06 202.76L148.55 204.34ZM164.91 186.95L163.51 181.02L158.01 179.44L153.92 183.78L155.32 189.72L160.82 191.30ZM155.32 189.72L153.92 183.78L148.42 182.20L144.34 186.55L145.74 192.48L151.23 194.06ZM169.12 204.75L167.72 198.82L162.22 197.23L158.13 201.58L159.54 207.51L165.03 209.09ZM159.54 207.51L158.13 201.58L152.64 199.99L148.55 204.34L149.96 210.27L155.45 211.85ZM171.81 194.47L170.41 188.54L164.91 186.95L160.82 191.30L162.22 197.23L167.72 198.82ZM136.16 195.25L134.76 189.32L129.26 187.74L125.18 192.09L126.59 198.02L132.08 199.60ZM126.59 198.02L125.18 192.09L119.69 190.52L115.61 194.87L117.02 200.79L122.51 202.37ZM138.84 184.97L137.44 179.04L131.94 177.46L127.86 181.82L129.26 187.74L134.76 189.32ZM129.26 187.74L127.86 181.82L122.36 180.24L118.28 184.59L119.69 190.52L125.18 192.09ZM143.06 202.76L141.66 196.83L136.16 195.25L132.08 199.60L133.49 205.53L138.98 207.11ZM133.49 205.53L132.08 199.60L126.59 198.02L122.51 202.37L123.92 208.29L129.40 209.87ZM145.74 192.48L144.34 186.55L138.84 184.97L134.76 189.32L136.16 195.25L141.66 196.83ZM158.37 245.82L156.97 239.90L151.48 238.31L147.40 242.65L148.80 248.58L154.29 250.16ZM148.80 248.58L147.40 242.65L141.92 241.07L137.84 245.41L139.24 251.33L144.72 252.91ZM161.06 235.56L159.65 229.63L154.17 228.05L150.08 232.39L151.48 238.31L156.97 239.90ZM151.48 238.31L150.08 232.39L144.59 230.81L140.51 235.15L141.92 241.07L147.40 242.65ZM165.26 253.33L163.86 247.41L158.37 245.82L154.29 250.16L155.69 256.08L161.17 257.67ZM155.69 256.08L154.29 250.16L148.80 248.58L144.72 252.91L146.13 258.83L151.61 260.42ZM167.94 243.07L166.54 237.15L161.06 235.56L156.97 239.90L158.37 245.82L163.86 247.41ZM132.35 243.83L130.95 237.91L125.47 236.33L121.39 240.67L122.79 246.59L128.28 248.17ZM122.79 246.59L121.39 240.67L115.91 239.09L111.83 243.43L113.24 249.35L118.72 250.93ZM135.03 233.57L133.62 227.64L128.14 226.06L124.06 230.41L125.47 236.33L130.95 237.91ZM125.47 236.33L124.06 230.41L118.57 228.83L114.50 233.17L115.91 239.09L121.39 240.67ZM139.24 251.33L137.84 245.41L132.35 243.83L128.28 248.17L129.68 254.09L135.16 255.67ZM129.68 254.09L128.28 248.17L122.79 246.59L118.72 250.93L120.13 256.85L125.61 258.42ZM141.92 241.07L140.51 235.15L135.03 233.57L130.95 237.91L132.35 243.83L137.84 245.41ZM173.32 222.54L171.92 216.61L166.43 215.02L162.34 219.36L163.74 225.29L169.23 226.88ZM163.74 225.29L162.34 219.36L156.85 217.78L152.76 222.12L154.17 228.05L159.65 229.63ZM176.01 212.27L174.61 206.33L169.12 204.75L165.03 209.09L166.43 215.02L171.92 216.61ZM166.43 215.02L165.03 209.09L159.54 207.51L155.45 211.85L156.85 217.78L162.34 219.36ZM180.21 230.05L178.81 224.13L173.32 222.54L169.23 226.88L170.63 232.81L176.12 234.39ZM170.63 232.81L169.23 226.88L163.74 225.29L159.65 229.63L161.06 235.56L166.54 237.15ZM182.91 219.78L181.51 213.85L176.01 212.27L171.92 216.61L173.32 222.54L178.81 224.13ZM80.37 239.91L78.96 233.99L73.48 232.42L69.41 236.77L70.83 242.68L76.30 244.25ZM83.02 229.65L81.61 223.73L76.13 222.16L72.06 226.51L73.48 232.42L78.96 233.99ZM87.26 247.39L85.85 241.48L80.37 239.91L76.30 244.25L77.71 250.16L83.19 251.74ZM89.91 237.14L88.50 231.22L83.02 229.65L78.96 233.99L80.37 239.91L85.85 241.48ZM95.23 216.61L93.82 210.69L88.34 209.12L84.27 213.47L85.68 219.39L91.16 220.96ZM85.68 219.39L84.27 213.47L78.78 211.90L74.72 216.25L76.13 222.16L81.61 223.73ZM97.89 206.34L96.48 200.42L91.00 198.85L86.92 203.20L88.34 209.12L93.82 210.69ZM102.12 224.10L100.71 218.18L95.23 216.61L91.16 220.96L92.57 226.87L98.05 228.45ZM92.57 226.87L91.16 220.96L85.68 219.39L81.61 223.73L83.02 229.65L88.50 231.22ZM104.79 213.84L103.38 207.91L97.89 206.34L93.82 210.69L95.23 216.61L100.71 218.18ZM94.14 254.88L92.73 248.97L87.26 247.39L83.19 251.74L84.60 257.65L90.08 259.22ZM84.60 257.65L83.19 251.74L77.71 250.16L73.65 254.51L75.06 260.42L80.54 261.99ZM101.03 262.37L99.62 256.45L94.14 254.88L90.08 259.22L91.49 265.13L96.96 266.71ZM106.35 241.86L104.94 235.94L99.46 234.37L95.39 238.71L96.80 244.62L102.28 246.20ZM96.80 244.62L95.39 238.71L89.91 237.14L85.85 241.48L87.26 247.39L92.73 248.97ZM109.02 231.60L107.61 225.68L102.12 224.10L98.05 228.45L99.46 234.37L104.94 235.94ZM99.46 234.37L98.05 228.45L92.57 226.87L88.50 231.22L89.91 237.14L95.39 238.71ZM113.24 249.35L111.83 243.43L106.35 241.86L102.28 246.20L103.69 252.11L109.17 253.69ZM103.69 252.11L102.28 246.20L96.80 244.62L92.73 248.97L94.14 254.88L99.62 256.45ZM115.91 239.09L114.50 233.17L109.02 231.60L104.94 235.94L106.35 241.86L111.83 243.43ZM166.08 148.57L164.68 142.63L159.18 141.05L155.08 145.40L156.49 151.34L161.99 152.92ZM156.49 151.34L155.08 145.40L149.58 143.82L145.48 148.18L146.89 154.12L152.39 155.70ZM168.78 138.27L167.37 132.33L161.87 130.75L157.77 135.11L159.18 141.05L164.68 142.63ZM159.18 141.05L157.77 135.11L152.27 133.53L148.17 137.89L149.58 143.82L155.08 145.40ZM172.99 156.09L171.59 150.15L166.08 148.57L161.99 152.92L163.39 158.86L168.89 160.45ZM163.39 158.86L161.99 152.92L156.49 151.34L152.39 155.70L153.80 161.63L159.30 163.21ZM175.69 145.80L174.28 139.86L168.78 138.27L164.68 142.63L166.08 148.57L171.59 150.15ZM139.98 146.60L138.58 140.67L133.08 139.09L128.99 143.45L130.40 149.38L135.89 150.96ZM142.67 136.31L141.26 130.37L135.76 128.79L131.67 133.15L133.08 139.09L138.58 140.67ZM146.89 154.12L145.48 148.18L139.98 146.60L135.89 150.96L137.30 156.89L142.80 158.47ZM137.30 156.89L135.89 150.96L130.40 149.38L126.31 153.74L127.72 159.67L133.21 161.25ZM149.58 143.82L148.17 137.89L142.67 136.31L138.58 140.67L139.98 146.60L145.48 148.18ZM181.08 125.20L179.68 119.26L174.17 117.67L170.07 122.03L171.47 127.98L176.98 129.56ZM171.47 127.98L170.07 122.03L164.56 120.45L160.46 124.81L161.87 130.75L167.37 132.33ZM187.99 132.73L186.59 126.79L181.08 125.20L176.98 129.56L178.38 135.50L183.89 137.09ZM178.38 135.50L176.98 129.56L171.47 127.98L167.37 132.33L168.78 138.27L174.28 139.86ZM190.70 122.43L189.30 116.48L183.79 114.90L179.68 119.26L181.08 125.20L186.59 126.79ZM164.56 120.45L163.16 114.51L157.65 112.93L153.55 117.29L154.96 123.23L160.46 124.81ZM177.20 173.91L175.79 167.97L170.29 166.38L166.20 170.73L167.60 176.67L173.10 178.25ZM167.60 176.67L166.20 170.73L160.70 169.15L156.61 173.50L158.01 179.44L163.51 181.02ZM179.89 163.62L178.49 157.68L172.99 156.09L168.89 160.45L170.29 166.38L175.79 167.97ZM170.29 166.38L168.89 160.45L163.39 158.86L159.30 163.21L160.70 169.15L166.20 170.73ZM184.10 181.43L182.70 175.49L177.20 173.91L173.10 178.25L174.50 184.19L180.00 185.78ZM174.50 184.19L173.10 178.25L167.60 176.67L163.51 181.02L164.91 186.95L170.41 188.54ZM186.80 171.14L185.40 165.20L179.89 163.62L175.79 167.97L177.20 173.91L182.70 175.49ZM151.11 171.92L149.70 165.99L144.21 164.41L140.12 168.76L141.52 174.69L147.02 176.27ZM141.52 174.69L140.12 168.76L134.62 167.18L130.53 171.53L131.94 177.46L137.44 179.04ZM153.80 161.63L152.39 155.70L146.89 154.12L142.80 158.47L144.21 164.41L149.70 165.99ZM144.21 164.41L142.80 158.47L137.30 156.89L133.21 161.25L134.62 167.18L140.12 168.76ZM158.01 179.44L156.61 173.50L151.11 171.92L147.02 176.27L148.42 182.20L153.92 183.78ZM148.42 182.20L147.02 176.27L141.52 174.69L137.44 179.04L138.84 184.97L144.34 186.55ZM160.70 169.15L159.30 163.21L153.80 161.63L149.70 165.99L151.11 171.92L156.61 173.50ZM192.20 150.56L190.80 144.62L185.29 143.03L181.19 147.38L182.59 153.33L188.10 154.91ZM182.59 153.33L181.19 147.38L175.69 145.80L171.59 150.15L172.99 156.09L178.49 157.68ZM194.90 140.26L193.50 134.32L187.99 132.73L183.89 137.09L185.29 143.03L190.80 144.62ZM185.29 143.03L183.89 137.09L178.38 135.50L174.28 139.86L175.69 145.80L181.19 147.38ZM199.10 158.09L197.70 152.15L192.20 150.56L188.10 154.91L189.50 160.85L195.00 162.44ZM189.50 160.85L188.10 154.91L182.59 153.33L178.49 157.68L179.89 163.62L185.40 165.20ZM201.81 147.80L200.41 141.85L194.90 140.26L190.80 144.62L192.20 150.56L197.70 152.15ZM110.12 193.29L108.71 187.37L103.22 185.79L99.15 190.15L100.56 196.07L106.04 197.64ZM100.56 196.07L99.15 190.15L93.66 188.57L89.58 192.93L91.00 198.85L96.48 200.42ZM112.79 183.02L111.38 177.09L105.89 175.51L101.81 179.87L103.22 185.79L108.71 187.37ZM103.22 185.79L101.81 179.87L96.32 178.30L92.25 182.65L93.66 188.57L99.15 190.15ZM117.02 200.79L115.61 194.87L110.12 193.29L106.04 197.64L107.45 203.57L112.94 205.14ZM107.45 203.57L106.04 197.64L100.56 196.07L96.48 200.42L97.89 206.34L103.38 207.91ZM119.69 190.52L118.28 184.59L112.79 183.02L108.71 187.37L110.12 193.29L115.61 194.87ZM91.00 198.85L89.58 192.93L84.10 191.36L80.03 195.71L81.44 201.63L86.92 203.20ZM125.04 169.96L123.63 164.03L118.14 162.45L114.05 166.81L115.46 172.73L120.96 174.31ZM115.46 172.73L114.05 166.81L108.56 165.23L104.48 169.59L105.89 175.51L111.38 177.09ZM127.72 159.67L126.31 153.74L120.81 152.16L116.73 156.52L118.14 162.45L123.63 164.03ZM131.94 177.46L130.53 171.53L125.04 169.96L120.96 174.31L122.36 180.24L127.86 181.82ZM122.36 180.24L120.96 174.31L115.46 172.73L111.38 177.09L112.79 183.02L118.28 184.59ZM134.62 167.18L133.21 161.25L127.72 159.67L123.63 164.03L125.04 169.96L130.53 171.53ZM198.18 262.88L196.78 256.95L191.29 255.36L187.20 259.69L188.60 265.61L194.09 267.21ZM172.14 260.84L170.74 254.92L165.26 253.33L161.17 257.67L162.57 263.59L168.06 265.18ZM210.46 249.88L209.07 243.95L203.57 242.35L199.48 246.69L200.87 252.61L206.36 254.21ZM200.87 252.61L199.48 246.69L193.99 245.09L189.90 249.43L191.29 255.36L196.78 256.95ZM213.16 239.61L211.77 233.68L206.28 232.08L202.18 236.42L203.57 242.35L209.07 243.95ZM203.57 242.35L202.18 236.42L196.69 234.83L192.59 239.16L193.99 245.09L199.48 246.69ZM217.34 257.40L215.95 251.47L210.46 249.88L206.36 254.21L207.76 260.14L213.25 261.73ZM207.76 260.14L206.36 254.21L200.87 252.61L196.78 256.95L198.18 262.88L203.66 264.47ZM220.05 247.14L218.66 241.21L213.16 239.61L209.07 243.95L210.46 249.88L215.95 251.47ZM184.41 247.84L183.01 241.91L177.52 240.32L173.43 244.66L174.83 250.58L180.32 252.17ZM174.83 250.58L173.43 244.66L167.94 243.07L163.86 247.41L165.26 253.33L170.74 254.92ZM187.10 237.57L185.70 231.64L180.21 230.05L176.12 234.39L177.52 240.32L183.01 241.91ZM177.52 240.32L176.12 234.39L170.63 232.81L166.54 237.15L167.94 243.07L173.43 244.66ZM191.29 255.36L189.90 249.43L184.41 247.84L180.32 252.17L181.72 258.10L187.20 259.69ZM181.72 258.10L180.32 252.17L174.83 250.58L170.74 254.92L172.14 260.84L177.63 262.43ZM193.99 245.09L192.59 239.16L187.10 237.57L183.01 241.91L184.41 247.84L189.90 249.43ZM146.13 258.83L144.72 252.91L139.24 251.33L135.16 255.67L136.57 261.59L142.05 263.17ZM136.57 261.59L135.16 255.67L129.68 254.09L125.61 258.42L127.01 264.34L132.49 265.92ZM120.13 256.85L118.72 250.93L113.24 249.35L109.17 253.69L110.58 259.61L116.05 261.18ZM110.58 259.61L109.17 253.69L103.69 252.11L99.62 256.45L101.03 262.37L106.51 263.94ZM214.39 201.26L212.99 195.32L207.49 193.73L203.39 198.07L204.79 204.01L210.29 205.60ZM204.79 204.01L203.39 198.07L197.89 196.48L193.79 200.82L195.19 206.76L200.69 208.35ZM217.10 190.98L215.70 185.04L210.20 183.45L206.10 187.79L207.49 193.73L212.99 195.32ZM207.49 193.73L206.10 187.79L200.60 186.20L196.50 190.54L197.89 196.48L203.39 198.07ZM221.28 208.79L219.89 202.86L214.39 201.26L210.29 205.60L211.68 211.54L217.18 213.13ZM211.68 211.54L210.29 205.60L204.79 204.01L200.69 208.35L202.09 214.29L207.58 215.88ZM223.99 198.51L222.60 192.57L217.10 190.98L212.99 195.32L214.39 201.26L219.89 202.86ZM188.30 199.23L186.90 193.30L181.40 191.71L177.31 196.06L178.71 201.99L184.20 203.58ZM178.71 201.99L177.31 196.06L171.81 194.47L167.72 198.82L169.12 204.75L174.61 206.33ZM191.00 188.95L189.60 183.02L184.10 181.43L180.00 185.78L181.40 191.71L186.90 193.30ZM181.40 191.71L180.00 185.78L174.50 184.19L170.41 188.54L171.81 194.47L177.31 196.06ZM195.19 206.76L193.79 200.82L188.30 199.23L184.20 203.58L185.60 209.51L191.10 211.10ZM185.60 209.51L184.20 203.58L178.71 201.99L174.61 206.33L176.01 212.27L181.51 213.85ZM197.89 196.48L196.50 190.54L191.00 188.95L186.90 193.30L188.30 199.23L193.79 200.82ZM229.42 177.94L228.03 172.00L222.52 170.40L218.41 174.75L219.81 180.69L225.31 182.29ZM219.81 180.69L218.41 174.75L212.91 173.16L208.80 177.51L210.20 183.45L215.70 185.04ZM232.14 167.65L230.74 161.71L225.24 160.11L221.12 164.46L222.52 170.40L228.03 172.00ZM222.52 170.40L221.12 164.46L215.62 162.87L211.51 167.22L212.91 173.16L218.41 174.75ZM236.32 185.48L234.93 179.54L229.42 177.94L225.31 182.29L226.71 188.23L232.21 189.83ZM226.71 188.23L225.31 182.29L219.81 180.69L215.70 185.04L217.10 190.98L222.60 192.57ZM239.04 175.20L237.64 169.25L232.14 167.65L228.03 172.00L229.42 177.94L234.93 179.54ZM203.30 175.91L201.90 169.97L196.40 168.38L192.30 172.73L193.70 178.67L199.20 180.26ZM193.70 178.67L192.30 172.73L186.80 171.14L182.70 175.49L184.10 181.43L189.60 183.02ZM206.01 165.62L204.61 159.68L199.10 158.09L195.00 162.44L196.40 168.38L201.90 169.97ZM196.40 168.38L195.00 162.44L189.50 160.85L185.40 165.20L186.80 171.14L192.30 172.73ZM210.20 183.45L208.80 177.51L203.30 175.91L199.20 180.26L200.60 186.20L206.10 187.79ZM200.60 186.20L199.20 180.26L193.70 178.67L189.60 183.02L191.00 188.95L196.50 190.54ZM212.91 173.16L211.51 167.22L206.01 165.62L201.90 169.97L203.30 175.91L208.80 177.51ZM225.47 226.60L224.07 220.67L218.58 219.07L214.47 223.41L215.87 229.34L221.36 230.94ZM215.87 229.34L214.47 223.41L208.98 221.81L204.88 226.15L206.28 232.08L211.77 233.68ZM228.18 216.33L226.78 210.39L221.28 208.79L217.18 213.13L218.58 219.07L224.07 220.67ZM218.58 219.07L217.18 213.13L211.68 211.54L207.58 215.88L208.98 221.81L214.47 223.41ZM232.35 234.13L230.96 228.20L225.47 226.60L221.36 230.94L222.76 236.87L228.25 238.47ZM222.76 236.87L221.36 230.94L215.87 229.34L211.77 233.68L213.16 239.61L218.66 241.21ZM235.07 223.86L233.68 217.93L228.18 216.33L224.07 220.67L225.47 226.60L230.96 228.20ZM199.39 224.56L197.99 218.63L192.49 217.03L188.40 221.37L189.80 227.31L195.29 228.90ZM189.80 227.31L188.40 221.37L182.91 219.78L178.81 224.13L180.21 230.05L185.70 231.64ZM202.09 214.29L200.69 208.35L195.19 206.76L191.10 211.10L192.49 217.03L197.99 218.63ZM192.49 217.03L191.10 211.10L185.60 209.51L181.51 213.85L182.91 219.78L188.40 221.37ZM206.28 232.08L204.88 226.15L199.39 224.56L195.29 228.90L196.69 234.83L202.18 236.42ZM196.69 234.83L195.29 228.90L189.80 227.31L185.70 231.64L187.10 237.57L192.59 239.16ZM208.98 221.81L207.58 215.88L202.09 214.29L197.99 218.63L199.39 224.56L204.88 226.15ZM240.50 203.31L239.11 197.37L233.60 195.77L229.50 200.11L230.89 206.05L236.39 207.65ZM230.89 206.05L229.50 200.11L223.99 198.51L219.89 202.86L221.28 208.79L226.78 210.39ZM243.22 193.03L241.82 187.08L236.32 185.48L232.21 189.83L233.60 195.77L239.11 197.37ZM233.60 195.77L232.21 189.83L226.71 188.23L222.60 192.57L223.99 198.51L229.50 200.11ZM247.39 210.85L246.00 204.91L240.50 203.31L236.39 207.65L237.78 213.59L243.28 215.19ZM237.78 213.59L236.39 207.65L230.89 206.05L226.78 210.39L228.18 216.33L233.68 217.93ZM250.11 200.57L248.72 194.63L243.22 193.03L239.11 197.37L240.50 203.31L246.00 204.91Z"/></svg>
