<svg xmlns="http://www.w3.org/2000/svg" width="256" height="256" viewBox="0 0 256 256"><path data-band="1" fill="#fde68a" fill-opacity="0.35" d="M63.47 253.40L62.06 247.53L56.63 245.95L52.60 250.25L54.01 256.12L59.44 257.70ZM66.09 243.23L64.69 237.36L59.26 235.78L55.23 240.08L56.63 245.95L62.06 247.53ZM47.17 248.67L45.77 242.80L40.33 241.23L36.31 245.53L37.72 251.40L43.15 252.97ZM37.72 251.40L36.31 245.53L30.88 243.96L26.86 248.26L28.26 254.13L33.69 255.70ZM49.79 238.50L48.39 232.63L42.95 231.06L38.93 235.36L40.33 241.23L45.77 242.80ZM40.33 241.23L38.93 235.36L33.49 233.79L29.47 238.09L30.88 243.96L36.31 245.53ZM54.01 256.12L52.60 250.25L47.17 248.67L43.15 252.97L44.55 258.84L49.98 260.42ZM44.55 258.84L43.15 252.97L37.72 251.40L33.69 255.70L35.10 261.56L40.53 263.14ZM56.63 245.95L55.23 240.08L49.79 238.50L45.77 242.80L47.17 248.67L52.60 250.25ZM78.19 230.34L76.79 224.46L71.35 222.88L67.32 227.18L68.72 233.06L74.16 234.63ZM61.88 225.60L60.48 219.73L55.04 218.15L51.01 222.45L52.42 228.33L57.85 229.90ZM52.42 228.33L51.01 222.45L45.57 220.88L41.55 225.18L42.95 231.06L48.39 232.63ZM64.51 215.42L63.11 209.55L57.67 207.97L53.63 212.28L55.04 218.15L60.48 219.73ZM55.04 218.15L53.63 212.28L48.20 210.70L44.17 215.01L45.57 220.88L51.01 222.45ZM68.72 233.06L67.32 227.18L61.88 225.60L57.85 229.90L59.26 235.78L64.69 237.36ZM59.26 235.78L57.85 229.90L52.42 228.33L48.39 232.63L49.79 238.50L55.23 240.08ZM71.35 222.88L69.95 217.00L64.51 215.42L60.48 219.73L61.88 225.60L67.32 227.18ZM9.38 259.58L7.97 253.72L2.54 252.15L-1.47 256.45L-0.06 262.31L5.36 263.88ZM21.43 246.69L20.02 240.82L14.59 239.25L10.57 243.55L11.98 249.42L17.41 250.99ZM11.98 249.42L10.57 243.55L5.14 241.99L1.13 246.29L2.54 252.15L7.97 253.72ZM24.04 236.52L22.63 230.65L17.20 229.08L13.18 233.38L14.59 239.25L20.02 240.82ZM14.59 239.25L13.18 233.38L7.75 231.82L3.73 236.12L5.14 241.99L10.57 243.55ZM28.26 254.13L26.86 248.26L21.43 246.69L17.41 250.99L18.82 256.85L24.25 258.42ZM18.82 256.85L17.41 250.99L11.98 249.42L7.97 253.72L9.38 259.58L14.80 261.15ZM30.88 243.96L29.47 238.09L24.04 236.52L20.02 240.82L21.43 246.69L26.86 248.26ZM2.54 252.15L1.13 246.29L-4.30 244.72L-8.31 249.02L-6.90 254.89L-1.47 256.45ZM5.14 241.99L3.73 236.12L-1.70 234.55L-5.71 238.86L-4.30 244.72L1.13 246.29ZM35.10 261.56L33.69 255.70L28.26 254.13L24.25 258.42L25.65 264.29L31.08 265.86ZM43.39 127.17L41.98 121.28L36.53 119.72L32.49 124.04L33.91 129.92L39.36 131.49ZM33.91 129.92L32.49 124.04L27.04 122.47L23.01 126.79L24.42 132.68L29.87 134.24ZM46.02 116.96L44.61 111.07L39.16 109.50L35.12 113.83L36.53 119.72L41.98 121.28ZM36.53 119.72L35.12 113.83L29.67 112.26L25.63 116.58L27.04 122.47L32.49 124.04ZM50.25 134.63L48.84 128.74L43.39 127.17L39.36 131.49L40.77 137.38L46.22 138.95ZM40.77 137.38L39.36 131.49L33.91 129.92L29.87 134.24L31.28 140.13L36.73 141.70ZM52.89 124.42L51.48 118.53L46.02 116.96L41.98 121.28L43.39 127.17L48.84 128.74ZM17.56 125.23L16.15 119.34L10.70 117.78L6.67 122.10L8.08 127.99L13.53 129.55ZM8.08 127.99L6.67 122.10L1.22 120.54L-2.81 124.87L-1.39 130.75L4.05 132.31ZM20.18 115.02L18.77 109.13L13.32 107.57L9.28 111.89L10.70 117.78L16.15 119.34ZM10.70 117.78L9.28 111.89L3.83 110.33L-0.20 114.66L1.22 120.54L6.67 122.10ZM24.42 132.68L23.01 126.79L17.56 125.23L13.53 129.55L14.94 135.43L20.39 137.00ZM14.94 135.43L13.53 129.55L8.08 127.99L4.05 132.31L5.47 138.19L10.91 139.75ZM27.04 122.47L25.63 116.58L20.18 115.02L16.15 119.34L17.56 125.23L23.01 126.79ZM58.15 104.00L56.74 98.10L51.29 96.53L47.24 100.86L48.65 106.75L54.11 108.32ZM48.65 106.75L47.24 100.86L41.79 99.29L37.75 103.61L39.16 109.50L44.61 111.07ZM60.79 93.78L59.38 87.88L53.92 86.31L49.88 90.64L51.29 96.53L56.74 98.10ZM51.29 96.53L49.88 90.64L44.42 89.07L40.38 93.40L41.79 99.29L47.24 100.86ZM65.02 111.46L63.61 105.57L58.15 104.00L54.11 108.32L55.52 114.21L60.97 115.78ZM55.52 114.21L54.11 108.32L48.65 106.75L44.61 111.07L46.02 116.96L51.48 118.53ZM67.66 101.24L66.25 95.35L60.79 93.78L56.74 98.10L58.15 104.00L63.61 105.57ZM32.29 102.05L30.88 96.16L25.43 94.59L21.39 98.92L22.80 104.81L28.25 106.37ZM22.80 104.81L21.39 98.92L15.94 97.36L11.90 101.68L13.32 107.57L18.77 109.13ZM34.92 91.83L33.51 85.94L28.05 84.37L24.01 88.70L25.43 94.59L30.88 96.16ZM25.43 94.59L24.01 88.70L18.56 87.14L14.52 91.47L15.94 97.36L21.39 98.92ZM39.16 109.50L37.75 103.61L32.29 102.05L28.25 106.37L29.67 112.26L35.12 113.83ZM29.67 112.26L28.25 106.37L22.80 104.81L18.77 109.13L20.18 115.02L25.63 116.58ZM41.79 99.29L40.38 93.40L34.92 91.83L30.88 96.16L32.29 102.05L37.75 103.61ZM54.48 152.29L53.07 146.41L47.63 144.84L43.59 149.15L45.00 155.04L50.44 156.61ZM45.00 155.04L43.59 149.15L38.14 147.58L34.11 151.90L35.52 157.78L40.96 159.35ZM57.11 142.09L55.70 136.20L50.25 134.63L46.22 138.95L47.63 144.84L53.07 146.41ZM47.63 144.84L46.22 138.95L40.77 137.38L36.73 141.70L38.14 147.58L43.59 149.15ZM61.34 159.75L59.93 153.86L54.48 152.29L50.44 156.61L51.85 162.49L57.30 164.06ZM51.85 162.49L50.44 156.61L45.00 155.04L40.96 159.35L42.37 165.23L47.82 166.80ZM63.97 149.55L62.56 143.66L57.11 142.09L53.07 146.41L54.48 152.29L59.93 153.86ZM28.66 150.33L27.25 144.45L21.80 142.88L17.77 147.20L19.19 153.08L24.63 154.65ZM19.19 153.08L17.77 147.20L12.33 145.64L8.30 149.95L9.71 155.83L15.16 157.40ZM31.28 140.13L29.87 134.24L24.42 132.68L20.39 137.00L21.80 142.88L27.25 144.45ZM21.80 142.88L20.39 137.00L14.94 135.43L10.91 139.75L12.33 145.64L17.77 147.20ZM35.52 157.78L34.11 151.90L28.66 150.33L24.63 154.65L26.04 160.53L31.48 162.10ZM26.04 160.53L24.63 154.65L19.19 153.08L15.16 157.40L16.57 163.28L22.01 164.84ZM38.14 147.58L36.73 141.70L31.28 140.13L27.25 144.45L28.66 150.33L34.11 151.90ZM69.24 129.14L67.84 123.25L62.38 121.67L58.34 125.99L59.75 131.88L65.20 133.46ZM59.75 131.88L58.34 125.99L52.89 124.42L48.84 128.74L50.25 134.63L55.70 136.20ZM71.88 118.93L70.47 113.03L65.02 111.46L60.97 115.78L62.38 121.67L67.84 123.25ZM62.38 121.67L60.97 115.78L55.52 114.21L51.48 118.53L52.89 124.42L58.34 125.99ZM76.10 136.60L74.70 130.71L69.24 129.14L65.20 133.46L66.61 139.35L72.06 140.92ZM66.61 139.35L65.20 133.46L59.75 131.88L55.70 136.20L57.11 142.09L62.56 143.66ZM78.74 126.40L77.34 120.50L71.88 118.93L67.84 123.25L69.24 129.14L74.70 130.71ZM12.33 145.64L10.91 139.75L5.47 138.19L1.44 142.51L2.86 148.39L8.30 149.95ZM61.84 55.63L60.42 49.73L54.96 48.16L50.91 52.49L52.32 58.39L57.79 59.96ZM52.32 58.39L50.91 52.49L45.45 50.92L41.40 55.26L42.81 61.16L48.27 62.72ZM64.48 45.39L63.07 39.49L57.60 37.92L53.55 42.26L54.96 48.16L60.42 49.73ZM54.96 48.16L53.55 42.26L48.08 40.69L44.03 45.02L45.45 50.92L50.91 52.49ZM68.71 63.10L67.30 57.20L61.84 55.63L57.79 59.96L59.20 65.86L64.66 67.43ZM59.20 65.86L57.79 59.96L52.32 58.39L48.27 62.72L49.69 68.62L55.15 70.19ZM71.36 52.87L69.94 46.96L64.48 45.39L60.42 49.73L61.84 55.63L67.30 57.20ZM35.94 53.69L34.52 47.79L29.06 46.23L25.02 50.57L26.43 56.46L31.89 58.03ZM26.43 56.46L25.02 50.57L19.55 49.00L15.51 53.34L16.93 59.23L22.39 60.80ZM38.57 43.46L37.15 37.56L31.69 35.99L27.64 40.33L29.06 46.23L34.52 47.79ZM29.06 46.23L27.64 40.33L22.18 38.77L18.14 43.11L19.55 49.00L25.02 50.57ZM42.81 61.16L41.40 55.26L35.94 53.69L31.89 58.03L33.31 63.92L38.77 65.49ZM33.31 63.92L31.89 58.03L26.43 56.46L22.39 60.80L23.80 66.69L29.26 68.25ZM45.45 50.92L44.03 45.02L38.57 43.46L34.52 47.79L35.94 53.69L41.40 55.26ZM76.65 32.39L75.24 26.48L69.77 24.91L65.71 29.25L67.12 35.15L72.59 36.72ZM67.12 35.15L65.71 29.25L60.24 27.68L56.19 32.02L57.60 37.92L63.07 39.49ZM69.77 24.91L68.36 19.00L62.89 17.44L58.83 21.77L60.24 27.68L65.71 29.25ZM83.53 39.87L82.12 33.96L76.65 32.39L72.59 36.72L74.00 42.63L79.47 44.20ZM74.00 42.63L72.59 36.72L67.12 35.15L63.07 39.49L64.48 45.39L69.94 46.96ZM86.18 29.63L84.77 23.72L79.30 22.15L75.24 26.48L76.65 32.39L82.12 33.96ZM50.72 30.45L49.31 24.55L43.84 22.98L39.79 27.32L41.20 33.22L46.67 34.79ZM41.20 33.22L39.79 27.32L34.32 25.76L30.27 30.09L31.69 35.99L37.15 37.56ZM53.36 20.21L51.95 14.30L46.48 12.74L42.42 17.08L43.84 22.98L49.31 24.55ZM43.84 22.98L42.42 17.08L36.96 15.51L32.91 19.85L34.32 25.76L39.79 27.32ZM57.60 37.92L56.19 32.02L50.72 30.45L46.67 34.79L48.08 40.69L53.55 42.26ZM48.08 40.69L46.67 34.79L41.20 33.22L37.15 37.56L38.57 43.46L44.03 45.02ZM60.24 27.68L58.83 21.77L53.36 20.21L49.31 24.55L50.72 30.45L56.19 32.02ZM72.94 80.80L71.53 74.90L66.07 73.33L62.02 77.66L63.43 83.55L68.89 85.13ZM63.43 83.55L62.02 77.66L56.56 76.09L52.51 80.41L53.92 86.31L59.38 87.88ZM75.58 70.57L74.18 64.67L68.71 63.10L64.66 67.43L66.07 73.33L71.53 74.90ZM66.07 73.33L64.66 67.43L59.20 65.86L55.15 70.19L56.56 76.09L62.02 77.66ZM79.81 88.27L78.40 82.37L72.94 80.80L68.89 85.13L70.30 91.02L75.76 92.60ZM70.30 91.02L68.89 85.13L63.43 83.55L59.38 87.88L60.79 93.78L66.25 95.35ZM82.46 78.05L81.05 72.15L75.58 70.57L71.53 74.90L72.94 80.80L78.40 82.37ZM47.05 78.85L45.64 72.95L40.18 71.38L36.14 75.71L37.55 81.61L43.01 83.17ZM37.55 81.61L36.14 75.71L30.68 74.15L26.64 78.48L28.05 84.37L33.51 85.94ZM49.69 68.62L48.27 62.72L42.81 61.16L38.77 65.49L40.18 71.38L45.64 72.95ZM40.18 71.38L38.77 65.49L33.31 63.92L29.26 68.25L30.68 74.15L36.14 75.71ZM53.92 86.31L52.51 80.41L47.05 78.85L43.01 83.17L44.42 89.07L49.88 90.64ZM44.42 89.07L43.01 83.17L37.55 81.61L33.51 85.94L34.92 91.83L40.38 93.40ZM56.56 76.09L55.15 70.19L49.69 68.62L45.64 72.95L47.05 78.85L52.51 80.41ZM87.75 57.58L86.35 51.68L80.88 50.11L76.82 54.44L78.23 60.34L83.70 61.91ZM78.23 60.34L76.82 54.44L71.36 52.87L67.30 57.20L68.71 63.10L74.18 64.67ZM90.41 47.35L89.00 41.44L83.53 39.87L79.47 44.20L80.88 50.11L86.35 51.68ZM80.88 50.11L79.47 44.20L74.00 42.63L69.94 46.96L71.36 52.87L76.82 54.44ZM85.10 67.82L83.70 61.91L78.23 60.34L74.18 64.67L75.58 70.57L81.05 72.15ZM4.81 72.23L3.40 66.34L-2.06 64.78L-6.09 69.12L-4.67 75.01L0.78 76.56ZM10.05 51.78L8.64 45.88L3.18 44.32L-0.86 48.66L0.56 54.56L6.01 56.11ZM0.56 54.56L-0.86 48.66L-6.32 47.11L-10.36 51.44L-8.93 57.33L-3.48 58.89ZM12.68 41.55L11.26 35.65L5.80 34.09L1.76 38.43L3.18 44.32L8.64 45.88ZM3.18 44.32L1.76 38.43L-3.70 36.87L-7.74 41.21L-6.32 47.11L-0.86 48.66ZM16.93 59.23L15.51 53.34L10.05 51.78L6.01 56.11L7.43 62.01L12.89 63.57ZM7.43 62.01L6.01 56.11L0.56 54.56L-3.48 58.89L-2.06 64.78L3.40 66.34ZM19.55 49.00L18.14 43.11L12.68 41.55L8.64 45.88L10.05 51.78L15.51 53.34ZM6.45 100.12L5.03 94.23L-0.42 92.67L-4.45 97.00L-3.03 102.89L2.42 104.45ZM9.07 89.90L7.65 84.01L2.20 82.45L-1.84 86.79L-0.42 92.67L5.03 94.23ZM13.32 107.57L11.90 101.68L6.45 100.12L2.42 104.45L3.83 110.33L9.28 111.89ZM15.94 97.36L14.52 91.47L9.07 89.90L5.03 94.23L6.45 100.12L11.90 101.68ZM21.18 76.92L19.76 71.02L14.31 69.46L10.27 73.79L11.69 79.68L17.14 81.25ZM11.69 79.68L10.27 73.79L4.81 72.23L0.78 76.56L2.20 82.45L7.65 84.01ZM23.80 66.69L22.39 60.80L16.93 59.23L12.89 63.57L14.31 69.46L19.76 71.02ZM14.31 69.46L12.89 63.57L7.43 62.01L3.40 66.34L4.81 72.23L10.27 73.79ZM28.05 84.37L26.64 78.48L21.18 76.92L17.14 81.25L18.56 87.14L24.01 88.70ZM18.56 87.14L17.14 81.25L11.69 79.68L7.65 84.01L9.07 89.90L14.52 91.47ZM30.68 74.15L29.26 68.25L23.80 66.69L19.76 71.02L21.18 76.92L26.64 78.48ZM81.89 182.14L80.49 176.25L75.04 174.67L71.00 178.98L72.41 184.87L77.85 186.44ZM84.53 171.94L83.13 166.05L77.68 164.48L73.64 168.79L75.04 174.67L80.49 176.25ZM88.74 189.60L87.34 183.71L81.89 182.14L77.85 186.44L79.26 192.33L84.70 193.91ZM65.56 177.41L64.15 171.52L58.71 169.95L54.67 174.26L56.08 180.14L61.52 181.72ZM56.08 180.14L54.67 174.26L49.22 172.69L45.19 177.00L46.60 182.88L52.04 184.45ZM68.19 167.21L66.78 161.33L61.34 159.75L57.30 164.06L58.71 169.95L64.15 171.52ZM58.71 169.95L57.30 164.06L51.85 162.49L47.82 166.80L49.22 172.69L54.67 174.26ZM72.41 184.87L71.00 178.98L65.56 177.41L61.52 181.72L62.93 187.60L68.37 189.17ZM62.93 187.60L61.52 181.72L56.08 180.14L52.04 184.45L53.45 190.33L58.89 191.91ZM75.04 174.67L73.64 168.79L68.19 167.21L64.15 171.52L65.56 177.41L71.00 178.98ZM80.32 154.28L78.91 148.39L73.46 146.81L69.42 151.12L70.83 157.01L76.28 158.59ZM70.83 157.01L69.42 151.12L63.97 149.55L59.93 153.86L61.34 159.75L66.78 161.33ZM82.96 144.07L81.56 138.18L76.10 136.60L72.06 140.92L73.46 146.81L78.91 148.39ZM73.46 146.81L72.06 140.92L66.61 139.35L62.56 143.66L63.97 149.55L69.42 151.12ZM87.17 161.74L85.77 155.85L80.32 154.28L76.28 158.59L77.68 164.48L83.13 166.05ZM77.68 164.48L76.28 158.59L70.83 157.01L66.78 161.33L68.19 167.21L73.64 168.79ZM89.82 151.54L88.41 145.65L82.96 144.07L78.91 148.39L80.32 154.28L85.77 155.85ZM76.62 202.51L75.22 196.63L69.77 195.06L65.74 199.36L67.14 205.24L72.58 206.82ZM67.14 205.24L65.74 199.36L60.30 197.79L56.26 202.09L57.67 207.97L63.11 209.55ZM79.26 192.33L77.85 186.44L72.41 184.87L68.37 189.17L69.77 195.06L75.22 196.63ZM69.77 195.06L68.37 189.17L62.93 187.60L58.89 191.91L60.30 197.79L65.74 199.36ZM73.99 212.70L72.58 206.82L67.14 205.24L63.11 209.55L64.51 215.42L69.95 217.00ZM25.04 198.54L23.63 192.67L18.19 191.10L14.17 195.41L15.58 201.29L21.01 202.85ZM15.58 201.29L14.17 195.41L8.73 193.85L4.71 198.16L6.12 204.03L11.56 205.59ZM27.66 188.36L26.25 182.48L20.81 180.91L16.78 185.23L18.19 191.10L23.63 192.67ZM18.19 191.10L16.78 185.23L11.34 183.66L7.32 187.97L8.73 193.85L14.17 195.41ZM31.89 205.99L30.48 200.11L25.04 198.54L21.01 202.85L22.42 208.73L27.86 210.29ZM22.42 208.73L21.01 202.85L15.58 201.29L11.56 205.59L12.97 211.47L18.40 213.03ZM34.50 195.81L33.10 189.93L27.66 188.36L23.63 192.67L25.04 198.54L30.48 200.11ZM8.73 193.85L7.32 187.97L1.88 186.41L-2.14 190.72L-0.73 196.59L4.71 198.16ZM39.75 175.43L38.34 169.55L32.90 167.98L28.86 172.29L30.27 178.17L35.72 179.74ZM30.27 178.17L28.86 172.29L23.42 170.72L19.39 175.04L20.81 180.91L26.25 182.48ZM42.37 165.23L40.96 159.35L35.52 157.78L31.48 162.10L32.90 167.98L38.34 169.55ZM32.90 167.98L31.48 162.10L26.04 160.53L22.01 164.84L23.42 170.72L28.86 172.29ZM46.60 182.88L45.19 177.00L39.75 175.43L35.72 179.74L37.13 185.62L42.57 187.19ZM37.13 185.62L35.72 179.74L30.27 178.17L26.25 182.48L27.66 188.36L33.10 189.93ZM49.22 172.69L47.82 166.80L42.37 165.23L38.34 169.55L39.75 175.43L45.19 177.00ZM16.57 163.28L15.16 157.40L9.71 155.83L5.69 160.15L7.10 166.03L12.54 167.59ZM23.42 170.72L22.01 164.84L16.57 163.28L12.54 167.59L13.95 173.47L19.39 175.04ZM36.11 223.61L34.70 217.74L29.27 216.17L25.24 220.47L26.65 226.35L32.09 227.91ZM26.65 226.35L25.24 220.47L19.81 218.90L15.79 223.21L17.20 229.08L22.63 230.65ZM38.73 213.43L37.32 207.56L31.89 205.99L27.86 210.29L29.27 216.17L34.70 217.74ZM29.27 216.17L27.86 210.29L22.42 208.73L18.40 213.03L19.81 218.90L25.24 220.47ZM42.95 231.06L41.55 225.18L36.11 223.61L32.09 227.91L33.49 233.79L38.93 235.36ZM33.49 233.79L32.09 227.91L26.65 226.35L22.63 230.65L24.04 236.52L29.47 238.09ZM45.57 220.88L44.17 215.01L38.73 213.43L34.70 217.74L36.11 223.61L41.55 225.18ZM12.97 211.47L11.56 205.59L6.12 204.03L2.10 208.34L3.51 214.21L8.95 215.77ZM17.20 229.08L15.79 223.21L10.36 221.64L6.34 225.95L7.75 231.82L13.18 233.38ZM19.81 218.90L18.40 213.03L12.97 211.47L8.95 215.77L10.36 221.64L15.79 223.21ZM50.82 200.52L49.41 194.64L43.97 193.07L39.94 197.38L41.35 203.25L46.79 204.82ZM41.35 203.25L39.94 197.38L34.50 195.81L30.48 200.11L31.89 205.99L37.32 207.56ZM53.45 190.33L52.04 184.45L46.60 182.88L42.57 187.19L43.97 193.07L49.41 194.64ZM43.97 193.07L42.57 187.19L37.13 185.62L33.10 189.93L34.50 195.81L39.94 197.38ZM57.67 207.97L56.26 202.09L50.82 200.52L46.79 204.82L48.20 210.70L53.63 212.28ZM48.20 210.70L46.79 204.82L41.35 203.25L37.32 207.56L38.73 213.43L44.17 215.01ZM60.30 197.79L58.89 191.91L53.45 190.33L49.41 194.64L50.82 200.52L56.26 202.09ZM84.03 105.97L82.62 100.07L77.17 98.49L73.12 102.82L74.52 108.71L79.98 110.29ZM74.52 108.71L73.12 102.82L67.66 101.24L63.61 105.57L65.02 111.46L70.47 113.03ZM86.68 95.75L85.27 89.85L79.81 88.27L75.76 92.60L77.17 98.49L82.62 100.07ZM77.17 98.49L75.76 92.60L70.30 91.02L66.25 95.35L67.66 101.24L73.12 102.82ZM81.39 116.18L79.98 110.29L74.52 108.71L70.47 113.03L71.88 118.93L77.34 120.50ZM89.33 85.52L87.92 79.62L82.46 78.05L78.40 82.37L79.81 88.27L85.27 89.85ZM85.60 133.86L84.20 127.97L78.74 126.40L74.70 130.71L76.10 136.60L81.56 138.18ZM88.25 123.65L86.84 117.76L81.39 116.18L77.34 120.50L78.74 126.40L84.20 127.97ZM65.53 7.19L64.12 1.28L58.64 -0.29L54.59 4.05L56.00 9.96L61.47 11.53ZM56.00 9.96L54.59 4.05L49.12 2.49L45.06 6.83L46.48 12.74L51.95 14.30ZM68.18 -3.06L66.76 -8.97L61.29 -10.54L57.23 -6.20L58.64 -0.29L64.12 1.28ZM58.64 -0.29L57.23 -6.20L51.76 -7.76L47.70 -3.42L49.12 2.49L54.59 4.05ZM72.41 14.67L71.00 8.76L65.53 7.19L61.47 11.53L62.89 17.44L68.36 19.00ZM62.89 17.44L61.47 11.53L56.00 9.96L51.95 14.30L53.36 20.21L58.83 21.77ZM75.06 4.42L73.65 -1.49L68.18 -3.06L64.12 1.28L65.53 7.19L71.00 8.76ZM13.67 3.37L12.25 -2.54L6.78 -4.09L2.74 0.25L4.16 6.15L9.62 7.71ZM4.16 6.15L2.74 0.25L-2.73 -1.30L-6.77 3.04L-5.35 8.94L0.11 10.50ZM6.78 -4.09L5.36 -10.00L-0.11 -11.55L-4.15 -7.21L-2.73 -1.30L2.74 0.25ZM20.55 10.83L19.14 4.92L13.67 3.37L9.62 7.71L11.04 13.61L16.51 15.17ZM11.04 13.61L9.62 7.71L4.16 6.15L0.11 10.50L1.54 16.40L7.00 17.95ZM23.18 0.58L21.76 -5.32L16.30 -6.88L12.25 -2.54L13.67 3.37L19.14 4.92ZM24.81 28.53L23.39 22.63L17.93 21.07L13.88 25.41L15.30 31.31L20.76 32.87ZM15.30 31.31L13.88 25.41L8.42 23.85L4.38 28.19L5.80 34.09L11.26 35.65ZM27.44 18.29L26.02 12.39L20.55 10.83L16.51 15.17L17.93 21.07L23.39 22.63ZM17.93 21.07L16.51 15.17L11.04 13.61L7.00 17.95L8.42 23.85L13.88 25.41ZM31.69 35.99L30.27 30.09L24.81 28.53L20.76 32.87L22.18 38.77L27.64 40.33ZM22.18 38.77L20.76 32.87L15.30 31.31L11.26 35.65L12.68 41.55L18.14 43.11ZM34.32 25.76L32.91 19.85L27.44 18.29L23.39 22.63L24.81 28.53L30.27 30.09ZM1.54 16.40L0.11 10.50L-5.35 8.94L-9.39 13.29L-7.97 19.18L-2.51 20.74ZM5.80 34.09L4.38 28.19L-1.08 26.64L-5.12 30.98L-3.70 36.87L1.76 38.43ZM8.42 23.85L7.00 17.95L1.54 16.40L-2.51 20.74L-1.08 26.64L4.38 28.19ZM39.59 5.27L38.17 -0.64L32.70 -2.20L28.65 2.14L30.07 8.05L35.54 9.61ZM30.07 8.05L28.65 2.14L23.18 0.58L19.14 4.92L20.55 10.83L26.02 12.39ZM32.70 -2.20L31.29 -8.11L25.82 -9.67L21.76 -5.32L23.18 0.58L28.65 2.14ZM46.48 12.74L45.06 6.83L39.59 5.27L35.54 9.61L36.96 15.51L42.42 17.08ZM36.96 15.51L35.54 9.61L30.07 8.05L26.02 12.39L27.44 18.29L32.91 19.85ZM49.12 2.49L47.70 -3.42L42.23 -4.98L38.17 -0.64L39.59 5.27L45.06 6.83Z"/><path data-band="2" fill="#f97316" fill-opacity="0.35" d="M139.29 231.71L137.90 225.82L132.45 224.23L128.41 228.53L129.80 234.41L135.24 236.00ZM129.80 234.41L128.41 228.53L122.96 226.94L118.92 231.24L120.31 237.12L125.75 238.71ZM141.95 221.53L140.56 215.64L135.11 214.05L131.06 218.35L132.45 224.23L137.90 225.82ZM132.45 224.23L131.06 218.35L125.61 216.76L121.57 221.06L122.96 226.94L128.41 228.53ZM146.13 239.19L144.74 233.30L139.29 231.71L135.24 236.00L136.64 241.89L142.08 243.48ZM136.64 241.89L135.24 236.00L129.80 234.41L125.75 238.71L127.15 244.59L132.59 246.18ZM148.79 229.00L147.40 223.12L141.95 221.53L137.90 225.82L139.29 231.71L144.74 233.30ZM113.47 229.65L112.08 223.77L106.63 222.18L102.59 226.48L103.99 232.36L109.43 233.95ZM103.99 232.36L102.59 226.48L97.15 224.90L93.11 229.20L94.51 235.08L99.95 236.66ZM116.12 219.47L114.72 213.59L109.28 212.00L105.23 216.30L106.63 222.18L112.08 223.77ZM106.63 222.18L105.23 216.30L99.79 214.72L95.75 219.02L97.15 224.90L102.59 226.48ZM120.31 237.12L118.92 231.24L113.47 229.65L109.43 233.95L110.83 239.83L116.27 241.42ZM110.83 239.83L109.43 233.95L103.99 232.36L99.95 236.66L101.35 242.54L106.79 244.12ZM122.96 226.94L121.57 221.06L116.12 219.47L112.08 223.77L113.47 229.65L118.92 231.24ZM154.12 208.63L152.72 202.74L147.27 201.15L143.22 205.45L144.61 211.34L150.06 212.93ZM144.61 211.34L143.22 205.45L137.77 203.86L133.71 208.16L135.11 214.05L140.56 215.64ZM156.78 198.44L155.39 192.55L149.94 190.96L145.88 195.26L147.27 201.15L152.72 202.74ZM147.27 201.15L145.88 195.26L140.43 193.67L136.37 197.97L137.77 203.86L143.22 205.45ZM160.96 216.12L159.57 210.23L154.12 208.63L150.06 212.93L151.45 218.82L156.90 220.41ZM151.45 218.82L150.06 212.93L144.61 211.34L140.56 215.64L141.95 221.53L147.40 223.12ZM163.63 205.93L162.23 200.03L156.78 198.44L152.72 202.74L154.12 208.63L159.57 210.23ZM128.27 206.57L126.87 200.68L121.42 199.10L117.37 203.40L118.77 209.29L124.22 210.87ZM118.77 209.29L117.37 203.40L111.93 201.81L107.88 206.12L109.28 212.00L114.72 213.59ZM130.92 196.38L129.53 190.49L124.08 188.90L120.02 193.21L121.42 199.10L126.87 200.68ZM121.42 199.10L120.02 193.21L114.58 191.62L110.53 195.93L111.93 201.81L117.37 203.40ZM135.11 214.05L133.71 208.16L128.27 206.57L124.22 210.87L125.61 216.76L131.06 218.35ZM125.61 216.76L124.22 210.87L118.77 209.29L114.72 213.59L116.12 219.47L121.57 221.06ZM137.77 203.86L136.37 197.97L130.92 196.38L126.87 200.68L128.27 206.57L133.71 208.16ZM150.31 256.84L148.92 250.95L143.47 249.36L139.43 253.65L140.82 259.54L146.26 261.13ZM140.82 259.54L139.43 253.65L133.99 252.06L129.94 256.35L131.33 262.23L136.77 263.83ZM152.97 246.66L151.58 240.78L146.13 239.19L142.08 243.48L143.47 249.36L148.92 250.95ZM143.47 249.36L142.08 243.48L136.64 241.89L132.59 246.18L133.99 252.06L139.43 253.65ZM159.80 254.14L158.41 248.26L152.97 246.66L148.92 250.95L150.31 256.84L155.75 258.43ZM124.50 254.77L123.10 248.88L117.66 247.30L113.62 251.59L115.02 257.47L120.46 259.06ZM115.02 257.47L113.62 251.59L108.18 250.00L104.14 254.30L105.54 260.17L110.98 261.76ZM127.15 244.59L125.75 238.71L120.31 237.12L116.27 241.42L117.66 247.30L123.10 248.88ZM117.66 247.30L116.27 241.42L110.83 239.83L106.79 244.12L108.18 250.00L113.62 251.59ZM131.33 262.23L129.94 256.35L124.50 254.77L120.46 259.06L121.85 264.94L127.29 266.52ZM133.99 252.06L132.59 246.18L127.15 244.59L123.10 248.88L124.50 254.77L129.94 256.35ZM165.13 233.79L163.74 227.90L158.29 226.30L154.24 230.60L155.63 236.48L161.08 238.08ZM155.63 236.48L154.24 230.60L148.79 229.00L144.74 233.30L146.13 239.19L151.58 240.78ZM167.80 223.60L166.41 217.71L160.96 216.12L156.90 220.41L158.29 226.30L163.74 227.90ZM158.29 226.30L156.90 220.41L151.45 218.82L147.40 223.12L148.79 229.00L154.24 230.60ZM171.97 241.27L170.58 235.38L165.13 233.79L161.08 238.08L162.47 243.97L167.91 245.56ZM162.47 243.97L161.08 238.08L155.63 236.48L151.58 240.78L152.97 246.66L158.41 248.26ZM174.64 231.09L173.25 225.20L167.80 223.60L163.74 227.90L165.13 233.79L170.58 235.38ZM72.93 250.68L71.53 244.81L66.09 243.23L62.06 247.53L63.47 253.40L68.90 254.98ZM75.56 240.51L74.16 234.63L68.72 233.06L64.69 237.36L66.09 243.23L71.53 244.81ZM79.77 258.14L78.36 252.26L72.93 250.68L68.90 254.98L70.30 260.85L75.73 262.43ZM70.30 260.85L68.90 254.98L63.47 253.40L59.44 257.70L60.84 263.57L66.27 265.14ZM82.40 247.97L81.00 242.09L75.56 240.51L71.53 244.81L72.93 250.68L78.36 252.26ZM87.67 227.62L86.27 221.74L80.83 220.16L76.79 224.46L78.19 230.34L83.63 231.92ZM90.31 217.44L88.91 211.55L83.46 209.97L79.43 214.28L80.83 220.16L86.27 221.74ZM80.83 220.16L79.43 214.28L73.99 212.70L69.95 217.00L71.35 222.88L76.79 224.46ZM94.51 235.08L93.11 229.20L87.67 227.62L83.63 231.92L85.03 237.79L90.47 239.37ZM85.03 237.79L83.63 231.92L78.19 230.34L74.16 234.63L75.56 240.51L81.00 242.09ZM97.15 224.90L95.75 219.02L90.31 217.44L86.27 221.74L87.67 227.62L93.11 229.20ZM98.71 252.71L97.31 246.84L91.87 245.25L87.83 249.55L89.23 255.42L94.67 257.01ZM89.23 255.42L87.83 249.55L82.40 247.97L78.36 252.26L79.77 258.14L85.20 259.72ZM101.35 242.54L99.95 236.66L94.51 235.08L90.47 239.37L91.87 245.25L97.31 246.84ZM91.87 245.25L90.47 239.37L85.03 237.79L81.00 242.09L82.40 247.97L87.83 249.55ZM105.54 260.17L104.14 254.30L98.71 252.71L94.67 257.01L96.07 262.88L101.50 264.47ZM96.07 262.88L94.67 257.01L89.23 255.42L85.20 259.72L86.60 265.59L92.03 267.17ZM108.18 250.00L106.79 244.12L101.35 242.54L97.31 246.84L98.71 252.71L104.14 254.30ZM201.98 261.05L200.59 255.16L195.15 253.56L191.08 257.85L192.47 263.73L197.92 265.34ZM204.66 250.87L203.27 244.98L197.82 243.38L193.76 247.67L195.15 253.56L200.59 255.16ZM195.15 253.56L193.76 247.67L188.31 246.07L184.25 250.36L185.64 256.25L191.08 257.85ZM211.49 258.37L210.11 252.48L204.66 250.87L200.59 255.16L201.98 261.05L207.42 262.66ZM176.14 258.93L174.75 253.05L169.30 251.45L165.25 255.74L166.64 261.62L172.08 263.22ZM166.64 261.62L165.25 255.74L159.80 254.14L155.75 258.43L157.14 264.32L162.58 265.91ZM178.80 248.76L177.42 242.87L171.97 241.27L167.91 245.56L169.30 251.45L174.75 253.05ZM169.30 251.45L167.91 245.56L162.47 243.97L158.41 248.26L159.80 254.14L165.25 255.74ZM185.64 256.25L184.25 250.36L178.80 248.76L174.75 253.05L176.14 258.93L181.58 260.53ZM224.69 141.39L223.30 135.48L217.83 133.88L213.75 138.19L215.14 144.10L220.61 145.70ZM215.14 144.10L213.75 138.19L208.29 136.59L204.21 140.89L205.60 146.80L211.06 148.40ZM227.39 131.17L226.00 125.26L220.53 123.66L216.45 127.97L217.83 133.88L223.30 135.48ZM217.83 133.88L216.45 127.97L210.98 126.37L206.90 130.68L208.29 136.59L213.75 138.19ZM231.54 148.91L230.16 143.00L224.69 141.39L220.61 145.70L222.00 151.61L227.46 153.21ZM222.00 151.61L220.61 145.70L215.14 144.10L211.06 148.40L212.45 154.31L217.92 155.91ZM234.24 138.69L232.86 132.78L227.39 131.17L223.30 135.48L224.69 141.39L230.16 143.00ZM198.74 139.30L197.35 133.39L191.88 131.79L187.81 136.10L189.20 142.01L194.67 143.60ZM189.20 142.01L187.81 136.10L182.34 134.50L178.27 138.81L179.66 144.72L185.13 146.31ZM201.43 129.08L200.04 123.17L194.57 121.57L190.49 125.88L191.88 131.79L197.35 133.39ZM191.88 131.79L190.49 125.88L185.03 124.29L180.95 128.60L182.34 134.50L187.81 136.10ZM205.60 146.80L204.21 140.89L198.74 139.30L194.67 143.60L196.06 149.51L201.52 151.11ZM196.06 149.51L194.67 143.60L189.20 142.01L185.13 146.31L186.52 152.22L191.98 153.82ZM208.29 136.59L206.90 130.68L201.43 129.08L197.35 133.39L198.74 139.30L204.21 140.89ZM239.65 118.25L238.26 112.33L232.79 110.73L228.70 115.04L230.09 120.95L235.56 122.56ZM230.09 120.95L228.70 115.04L223.23 113.44L219.14 117.75L220.53 123.66L226.00 125.26ZM242.35 108.02L240.97 102.10L235.49 100.50L231.40 104.81L232.79 110.73L238.26 112.33ZM232.79 110.73L231.40 104.81L225.92 103.21L221.84 107.52L223.23 113.44L228.70 115.04ZM246.51 125.77L245.12 119.85L239.65 118.25L235.56 122.56L236.94 128.47L242.42 130.08ZM236.94 128.47L235.56 122.56L230.09 120.95L226.00 125.26L227.39 131.17L232.86 132.78ZM249.21 115.55L247.83 109.63L242.35 108.02L238.26 112.33L239.65 118.25L245.12 119.85ZM213.67 116.15L212.28 110.23L206.81 108.63L202.73 112.95L204.12 118.86L209.59 120.46ZM204.12 118.86L202.73 112.95L197.26 111.35L193.18 115.66L194.57 121.57L200.04 123.17ZM216.36 105.92L214.98 100.01L209.50 98.41L205.42 102.72L206.81 108.63L212.28 110.23ZM206.81 108.63L205.42 102.72L199.95 101.12L195.86 105.44L197.26 111.35L202.73 112.95ZM220.53 123.66L219.14 117.75L213.67 116.15L209.59 120.46L210.98 126.37L216.45 127.97ZM210.98 126.37L209.59 120.46L204.12 118.86L200.04 123.17L201.43 129.08L206.90 130.68ZM223.23 113.44L221.84 107.52L216.36 105.92L212.28 110.23L213.67 116.15L219.14 117.75ZM235.70 166.63L234.31 160.73L228.85 159.12L224.77 163.42L226.15 169.33L231.62 170.93ZM226.15 169.33L224.77 163.42L219.30 161.82L215.22 166.12L216.61 172.03L222.07 173.63ZM238.40 156.42L237.01 150.51L231.54 148.91L227.46 153.21L228.85 159.12L234.31 160.73ZM228.85 159.12L227.46 153.21L222.00 151.61L217.92 155.91L219.30 161.82L224.77 163.42ZM242.55 174.15L241.16 168.24L235.70 166.63L231.62 170.93L233.00 176.84L238.47 178.45ZM233.00 176.84L231.62 170.93L226.15 169.33L222.07 173.63L223.46 179.53L228.92 181.14ZM245.25 163.94L243.87 158.03L238.40 156.42L234.31 160.73L235.70 166.63L241.16 168.24ZM209.76 164.52L208.37 158.61L202.91 157.01L198.83 161.32L200.22 167.22L205.69 168.82ZM200.22 167.22L198.83 161.32L193.37 159.72L189.30 164.02L190.69 169.93L196.15 171.52ZM212.45 154.31L211.06 148.40L205.60 146.80L201.52 151.11L202.91 157.01L208.37 158.61ZM202.91 157.01L201.52 151.11L196.06 149.51L191.98 153.82L193.37 159.72L198.83 161.32ZM216.61 172.03L215.22 166.12L209.76 164.52L205.69 168.82L207.07 174.72L212.53 176.33ZM207.07 174.72L205.69 168.82L200.22 167.22L196.15 171.52L197.54 177.43L203.00 179.03ZM219.30 161.82L217.92 155.91L212.45 154.31L208.37 158.61L209.76 164.52L215.22 166.12ZM250.66 143.51L249.27 137.60L243.80 135.99L239.71 140.30L241.10 146.21L246.57 147.82ZM241.10 146.21L239.71 140.30L234.24 138.69L230.16 143.00L231.54 148.91L237.01 150.51ZM253.36 133.29L251.98 127.38L246.51 125.77L242.42 130.08L243.80 135.99L249.27 137.60ZM243.80 135.99L242.42 130.08L236.94 128.47L232.86 132.78L234.24 138.69L239.71 140.30ZM257.51 151.03L256.13 145.12L250.66 143.51L246.57 147.82L247.95 153.73L253.42 155.34ZM247.95 153.73L246.57 147.82L241.10 146.21L237.01 150.51L238.40 156.42L243.87 158.03ZM260.22 140.82L258.84 134.90L253.36 133.29L249.27 137.60L250.66 143.51L256.13 145.12ZM157.93 160.36L156.54 154.46L151.08 152.87L147.02 157.17L148.41 163.07L153.87 164.66ZM148.41 163.07L147.02 157.17L141.56 155.59L137.50 159.89L138.90 165.79L144.35 167.38ZM160.60 150.15L159.21 144.25L153.75 142.66L149.69 146.97L151.08 152.87L156.54 154.46ZM151.08 152.87L149.69 146.97L144.23 145.38L140.16 149.69L141.56 155.59L147.02 157.17ZM164.79 167.85L163.39 161.95L157.93 160.36L153.87 164.66L155.27 170.56L160.72 172.15ZM155.27 170.56L153.87 164.66L148.41 163.07L144.35 167.38L145.75 173.27L151.21 174.86ZM167.46 157.64L166.06 151.74L160.60 150.15L156.54 154.46L157.93 160.36L163.39 161.95ZM132.05 158.31L130.65 152.41L125.19 150.83L121.14 155.14L122.54 161.03L127.99 162.62ZM122.54 161.03L121.14 155.14L115.68 153.55L111.63 157.86L113.03 163.76L118.48 165.34ZM134.71 148.10L133.31 142.20L127.85 140.62L123.79 144.93L125.19 150.83L130.65 152.41ZM125.19 150.83L123.79 144.93L118.34 143.35L114.28 147.66L115.68 153.55L121.14 155.14ZM138.90 165.79L137.50 159.89L132.05 158.31L127.99 162.62L129.39 168.51L134.84 170.10ZM129.39 168.51L127.99 162.62L122.54 161.03L118.48 165.34L119.88 171.23L125.33 172.82ZM141.56 155.59L140.16 149.69L134.71 148.10L130.65 152.41L132.05 158.31L137.50 159.89ZM172.81 137.22L171.41 131.32L165.95 129.72L161.88 134.03L163.28 139.94L168.74 141.53ZM163.28 139.94L161.88 134.03L156.42 132.44L152.35 136.76L153.75 142.66L159.21 144.25ZM175.49 127.00L174.09 121.10L168.63 119.51L164.56 123.82L165.95 129.72L171.41 131.32ZM165.95 129.72L164.56 123.82L159.09 122.23L155.02 126.54L156.42 132.44L161.88 134.03ZM179.66 144.72L178.27 138.81L172.81 137.22L168.74 141.53L170.13 147.43L175.59 149.03ZM170.13 147.43L168.74 141.53L163.28 139.94L159.21 144.25L160.60 150.15L166.06 151.74ZM182.34 134.50L180.95 128.60L175.49 127.00L171.41 131.32L172.81 137.22L178.27 138.81ZM146.89 135.17L145.49 129.27L140.03 127.68L135.97 131.99L137.37 137.89L142.83 139.48ZM137.37 137.89L135.97 131.99L130.51 130.41L126.45 134.72L127.85 140.62L133.31 142.20ZM149.56 124.95L148.16 119.05L142.70 117.46L138.63 121.78L140.03 127.68L145.49 129.27ZM140.03 127.68L138.63 121.78L133.17 120.19L129.11 124.51L130.51 130.41L135.97 131.99ZM153.75 142.66L152.35 136.76L146.89 135.17L142.83 139.48L144.23 145.38L149.69 146.97ZM144.23 145.38L142.83 139.48L137.37 137.89L133.31 142.20L134.71 148.10L140.16 149.69ZM156.42 132.44L155.02 126.54L149.56 124.95L145.49 129.27L146.89 135.17L152.35 136.76ZM168.96 185.54L167.57 179.64L162.12 178.05L158.05 182.35L159.45 188.25L164.90 189.84ZM159.45 188.25L158.05 182.35L152.60 180.76L148.54 185.06L149.94 190.96L155.39 192.55ZM171.64 175.34L170.24 169.44L164.79 167.85L160.72 172.15L162.12 178.05L167.57 179.64ZM162.12 178.05L160.72 172.15L155.27 170.56L151.21 174.86L152.60 180.76L158.05 182.35ZM175.81 193.03L174.42 187.13L168.96 185.54L164.90 189.84L166.29 195.74L171.75 197.33ZM166.29 195.74L164.90 189.84L159.45 188.25L155.39 192.55L156.78 198.44L162.23 200.03ZM178.49 182.83L177.09 176.93L171.64 175.34L167.57 179.64L168.96 185.54L174.42 187.13ZM143.09 183.47L141.69 177.58L136.24 175.99L132.18 180.30L133.58 186.19L139.03 187.78ZM133.58 186.19L132.18 180.30L126.73 178.71L122.68 183.01L124.08 188.90L129.53 190.49ZM145.75 173.27L144.35 167.38L138.90 165.79L134.84 170.10L136.24 175.99L141.69 177.58ZM136.24 175.99L134.84 170.10L129.39 168.51L125.33 172.82L126.73 178.71L132.18 180.30ZM149.94 190.96L148.54 185.06L143.09 183.47L139.03 187.78L140.43 193.67L145.88 195.26ZM140.43 193.67L139.03 187.78L133.58 186.19L129.53 190.49L130.92 196.38L136.37 197.97ZM152.60 180.76L151.21 174.86L145.75 173.27L141.69 177.58L143.09 183.47L148.54 185.06ZM183.84 162.43L182.45 156.52L176.99 154.93L172.92 159.24L174.31 165.14L179.77 166.73ZM174.31 165.14L172.92 159.24L167.46 157.64L163.39 161.95L164.79 167.85L170.24 169.44ZM186.52 152.22L185.13 146.31L179.66 144.72L175.59 149.03L176.99 154.93L182.45 156.52ZM176.99 154.93L175.59 149.03L170.13 147.43L166.06 151.74L167.46 157.64L172.92 159.24ZM190.69 169.93L189.30 164.02L183.84 162.43L179.77 166.73L181.16 172.63L186.62 174.23ZM181.16 172.63L179.77 166.73L174.31 165.14L170.24 169.44L171.64 175.34L177.09 176.93ZM193.37 159.72L191.98 153.82L186.52 152.22L182.45 156.52L183.84 162.43L189.30 164.02ZM243.61 69.79L242.22 63.87L236.74 62.27L232.64 66.58L234.03 72.51L239.51 74.11ZM234.03 72.51L232.64 66.58L227.16 64.98L223.07 69.30L224.46 75.22L229.94 76.82ZM246.32 59.55L244.93 53.62L239.44 52.02L235.35 56.34L236.74 62.27L242.22 63.87ZM236.74 62.27L235.35 56.34L229.87 54.74L225.77 59.06L227.16 64.98L232.64 66.58ZM250.48 77.32L249.09 71.40L243.61 69.79L239.51 74.11L240.90 80.03L246.38 81.64ZM240.90 80.03L239.51 74.11L234.03 72.51L229.94 76.82L231.33 82.74L236.81 84.35ZM253.19 67.08L251.80 61.15L246.32 59.55L242.22 63.87L243.61 69.79L249.09 71.40ZM217.59 67.70L216.20 61.78L210.72 60.18L206.63 64.50L208.02 70.42L213.50 72.02ZM208.02 70.42L206.63 64.50L201.15 62.91L197.07 67.23L198.46 73.15L203.94 74.74ZM220.29 57.46L218.90 51.54L213.42 49.94L209.33 54.26L210.72 60.18L216.20 61.78ZM210.72 60.18L209.33 54.26L203.85 52.67L199.76 56.99L201.15 62.91L206.63 64.50ZM224.46 75.22L223.07 69.30L217.59 67.70L213.50 72.02L214.89 77.94L220.37 79.54ZM214.89 77.94L213.50 72.02L208.02 70.42L203.94 74.74L205.33 80.66L210.80 82.26ZM227.16 64.98L225.77 59.06L220.29 57.46L216.20 61.78L217.59 67.70L223.07 69.30ZM258.62 46.59L257.23 40.66L251.74 39.05L247.64 43.38L249.03 49.30L254.52 50.91ZM249.03 49.30L247.64 43.38L242.15 41.77L238.06 46.10L239.44 52.02L244.93 53.62ZM261.33 36.34L259.95 30.41L254.46 28.80L250.35 33.12L251.74 39.05L257.23 40.66ZM251.74 39.05L250.35 33.12L244.87 31.52L240.77 35.84L242.15 41.77L247.64 43.38ZM265.49 54.12L264.10 48.20L258.62 46.59L254.52 50.91L255.90 56.84L261.39 58.44ZM255.90 56.84L254.52 50.91L249.03 49.30L244.93 53.62L246.32 59.55L251.80 61.15ZM232.57 44.49L231.18 38.57L225.70 36.97L221.60 41.29L222.99 47.22L228.48 48.82ZM222.99 47.22L221.60 41.29L216.12 39.69L212.03 44.02L213.42 49.94L218.90 51.54ZM235.28 34.24L233.89 28.31L228.40 26.71L224.30 31.04L225.70 36.97L231.18 38.57ZM225.70 36.97L224.30 31.04L218.82 29.44L214.72 33.77L216.12 39.69L221.60 41.29ZM239.44 52.02L238.06 46.10L232.57 44.49L228.48 48.82L229.87 54.74L235.35 56.34ZM229.87 54.74L228.48 48.82L222.99 47.22L218.90 51.54L220.29 57.46L225.77 59.06ZM242.15 41.77L240.77 35.84L235.28 34.24L231.18 38.57L232.57 44.49L238.06 46.10ZM254.63 95.09L253.25 89.16L247.77 87.56L243.67 91.87L245.06 97.79L250.54 99.40ZM245.06 97.79L243.67 91.87L238.19 90.27L234.10 94.58L235.49 100.50L240.97 102.10ZM257.34 84.85L255.96 78.93L250.48 77.32L246.38 81.64L247.77 87.56L253.25 89.16ZM247.77 87.56L246.38 81.64L240.90 80.03L236.81 84.35L238.19 90.27L243.67 91.87ZM261.49 102.61L260.11 96.69L254.63 95.09L250.54 99.40L251.92 105.32L257.40 106.93ZM251.92 105.32L250.54 99.40L245.06 97.79L240.97 102.10L242.35 108.02L247.83 109.63ZM264.21 92.38L262.82 86.46L257.34 84.85L253.25 89.16L254.63 95.09L260.11 96.69ZM228.62 92.98L227.24 87.06L221.76 85.46L217.67 89.77L219.06 95.69L224.54 97.29ZM219.06 95.69L217.67 89.77L212.20 88.17L208.11 92.49L209.50 98.41L214.98 100.01ZM231.33 82.74L229.94 76.82L224.46 75.22L220.37 79.54L221.76 85.46L227.24 87.06ZM221.76 85.46L220.37 79.54L214.89 77.94L210.80 82.26L212.20 88.17L217.67 89.77ZM235.49 100.50L234.10 94.58L228.62 92.98L224.54 97.29L225.92 103.21L231.40 104.81ZM225.92 103.21L224.54 97.29L219.06 95.69L214.98 100.01L216.36 105.92L221.84 107.52ZM238.19 90.27L236.81 84.35L231.33 82.74L227.24 87.06L228.62 92.98L234.10 94.58ZM260.06 74.61L258.67 68.69L253.19 67.08L249.09 71.40L250.48 77.32L255.96 78.93ZM262.77 64.37L261.39 58.44L255.90 56.84L251.80 61.15L253.19 67.08L258.67 68.69ZM266.92 82.14L265.54 76.22L260.06 74.61L255.96 78.93L257.34 84.85L262.82 86.46ZM176.66 88.83L175.27 82.92L169.80 81.33L165.72 85.65L167.12 91.56L172.59 93.15ZM167.12 91.56L165.72 85.65L160.25 84.06L156.18 88.38L157.57 94.29L163.04 95.88ZM179.35 78.60L177.95 72.68L172.48 71.09L168.40 75.41L169.80 81.33L175.27 82.92ZM169.80 81.33L168.40 75.41L162.93 73.82L158.85 78.15L160.25 84.06L165.72 85.65ZM183.53 96.34L182.14 90.42L176.66 88.83L172.59 93.15L173.98 99.06L179.45 100.65ZM173.98 99.06L172.59 93.15L167.12 91.56L163.04 95.88L164.44 101.78L169.91 103.38ZM186.21 86.11L184.82 80.19L179.35 78.60L175.27 82.92L176.66 88.83L182.14 90.42ZM150.71 86.79L149.31 80.88L143.84 79.29L139.77 83.62L141.17 89.52L146.64 91.11ZM141.17 89.52L139.77 83.62L134.30 82.03L130.24 86.35L131.64 92.26L137.10 93.84ZM153.38 76.56L151.98 70.65L146.51 69.06L142.44 73.39L143.84 79.29L149.31 80.88ZM143.84 79.29L142.44 73.39L136.97 71.80L132.90 76.12L134.30 82.03L139.77 83.62ZM157.57 94.29L156.18 88.38L150.71 86.79L146.64 91.11L148.04 97.02L153.50 98.60ZM148.04 97.02L146.64 91.11L141.17 89.52L137.10 93.84L138.50 99.75L143.97 101.34ZM160.25 84.06L158.85 78.15L153.38 76.56L149.31 80.88L150.71 86.79L156.18 88.38ZM191.59 65.63L190.20 59.72L184.72 58.12L180.64 62.45L182.03 68.36L187.51 69.96ZM182.03 68.36L180.64 62.45L175.16 60.86L171.08 65.18L172.48 71.09L177.95 72.68ZM194.28 55.39L192.89 49.47L187.41 47.88L183.32 52.21L184.72 58.12L190.20 59.72ZM184.72 58.12L183.32 52.21L177.84 50.61L173.76 54.94L175.16 60.86L180.64 62.45ZM198.46 73.15L197.07 67.23L191.59 65.63L187.51 69.96L188.90 75.87L194.38 77.47ZM188.90 75.87L187.51 69.96L182.03 68.36L177.95 72.68L179.35 78.60L184.82 80.19ZM201.15 62.91L199.76 56.99L194.28 55.39L190.20 59.72L191.59 65.63L197.07 67.23ZM165.61 63.59L164.21 57.67L158.73 56.09L154.66 60.41L156.06 66.32L161.53 67.91ZM156.06 66.32L154.66 60.41L149.18 58.82L145.11 63.15L146.51 69.06L151.98 70.65ZM168.29 53.35L166.89 47.43L161.41 45.84L157.33 50.17L158.73 56.09L164.21 57.67ZM158.73 56.09L157.33 50.17L151.86 48.58L147.78 52.91L149.18 58.82L154.66 60.41ZM172.48 71.09L171.08 65.18L165.61 63.59L161.53 67.91L162.93 73.82L168.40 75.41ZM162.93 73.82L161.53 67.91L156.06 66.32L151.98 70.65L153.38 76.56L158.85 78.15ZM175.16 60.86L173.76 54.94L168.29 53.35L164.21 57.67L165.61 63.59L171.08 65.18ZM187.71 114.07L186.32 108.16L180.85 106.56L176.77 110.88L178.17 116.78L183.63 118.38ZM178.17 116.78L176.77 110.88L171.30 109.28L167.23 113.60L168.63 119.51L174.09 121.10ZM190.39 103.84L189.00 97.93L183.53 96.34L179.45 100.65L180.85 106.56L186.32 108.16ZM180.85 106.56L179.45 100.65L173.98 99.06L169.91 103.38L171.30 109.28L176.77 110.88ZM194.57 121.57L193.18 115.66L187.71 114.07L183.63 118.38L185.03 124.29L190.49 125.88ZM185.03 124.29L183.63 118.38L178.17 116.78L174.09 121.10L175.49 127.00L180.95 128.60ZM197.26 111.35L195.86 105.44L190.39 103.84L186.32 108.16L187.71 114.07L193.18 115.66ZM161.76 112.01L160.37 106.10L154.90 104.51L150.83 108.83L152.23 114.73L157.69 116.32ZM152.23 114.73L150.83 108.83L145.37 107.24L141.30 111.56L142.70 117.46L148.16 119.05ZM164.44 101.78L163.04 95.88L157.57 94.29L153.50 98.60L154.90 104.51L160.37 106.10ZM154.90 104.51L153.50 98.60L148.04 97.02L143.97 101.34L145.37 107.24L150.83 108.83ZM168.63 119.51L167.23 113.60L161.76 112.01L157.69 116.32L159.09 122.23L164.56 123.82ZM159.09 122.23L157.69 116.32L152.23 114.73L148.16 119.05L149.56 124.95L155.02 126.54ZM171.30 109.28L169.91 103.38L164.44 101.78L160.37 106.10L161.76 112.01L167.23 113.60ZM202.64 90.89L201.24 84.98L195.77 83.38L191.69 87.70L193.08 93.61L198.55 95.21ZM193.08 93.61L191.69 87.70L186.21 86.11L182.14 90.42L183.53 96.34L189.00 97.93ZM205.33 80.66L203.94 74.74L198.46 73.15L194.38 77.47L195.77 83.38L201.24 84.98ZM195.77 83.38L194.38 77.47L188.90 75.87L184.82 80.19L186.21 86.11L191.69 87.70ZM209.50 98.41L208.11 92.49L202.64 90.89L198.55 95.21L199.95 101.12L205.42 102.72ZM199.95 101.12L198.55 95.21L193.08 93.61L189.00 97.93L190.39 103.84L195.86 105.44ZM212.20 88.17L210.80 82.26L205.33 80.66L201.24 84.98L202.64 90.89L208.11 92.49ZM263.09 196.70L261.71 190.79L256.24 189.18L252.16 193.48L253.54 199.38L259.00 201.00ZM265.79 186.50L264.41 180.59L258.95 178.98L254.86 183.27L256.24 189.18L261.71 190.79ZM246.69 191.87L245.31 185.96L239.85 184.35L235.77 188.65L237.15 194.55L242.61 196.16ZM237.15 194.55L235.77 188.65L230.31 187.04L226.23 191.34L227.61 197.24L233.07 198.85ZM249.40 181.66L248.01 175.76L242.55 174.15L238.47 178.45L239.85 184.35L245.31 185.96ZM239.85 184.35L238.47 178.45L233.00 176.84L228.92 181.14L230.31 187.04L235.77 188.65ZM253.54 199.38L252.16 193.48L246.69 191.87L242.61 196.16L243.99 202.07L249.46 203.68ZM243.99 202.07L242.61 196.16L237.15 194.55L233.07 198.85L234.46 204.75L239.92 206.36ZM256.24 189.18L254.86 183.27L249.40 181.66L245.31 185.96L246.69 191.87L252.16 193.48ZM261.65 168.77L260.27 162.86L254.80 161.25L250.72 165.55L252.10 171.46L257.57 173.07ZM252.10 171.46L250.72 165.55L245.25 163.94L241.16 168.24L242.55 174.15L248.01 175.76ZM264.36 158.56L262.98 152.65L257.51 151.03L253.42 155.34L254.80 161.25L260.27 162.86ZM254.80 161.25L253.42 155.34L247.95 153.73L243.87 158.03L245.25 163.94L250.72 165.55ZM258.95 178.98L257.57 173.07L252.10 171.46L248.01 175.76L249.40 181.66L254.86 183.27ZM257.68 217.10L256.30 211.19L250.84 209.58L246.76 213.87L248.14 219.77L253.60 221.39ZM248.14 219.77L246.76 213.87L241.30 212.26L237.22 216.56L238.60 222.46L244.06 224.07ZM260.38 206.90L259.00 201.00L253.54 199.38L249.46 203.68L250.84 209.58L256.30 211.19ZM250.84 209.58L249.46 203.68L243.99 202.07L239.92 206.36L241.30 212.26L246.76 213.87ZM264.52 224.61L263.14 218.71L257.68 217.10L253.60 221.39L254.98 227.29L260.43 228.90ZM254.98 227.29L253.60 221.39L248.14 219.77L244.06 224.07L245.44 229.97L250.90 231.58ZM205.86 212.82L204.48 206.92L199.02 205.32L194.95 209.62L196.34 215.51L201.79 217.11ZM196.34 215.51L194.95 209.62L189.50 208.02L185.43 212.31L186.82 218.21L192.28 219.81ZM208.55 202.63L207.16 196.73L201.70 195.13L197.63 199.42L199.02 205.32L204.48 206.92ZM199.02 205.32L197.63 199.42L192.18 197.82L188.11 202.12L189.50 208.02L194.95 209.62ZM212.70 220.32L211.32 214.42L205.86 212.82L201.79 217.11L203.18 223.01L208.63 224.61ZM203.18 223.01L201.79 217.11L196.34 215.51L192.28 219.81L193.66 225.70L199.11 227.30ZM215.39 210.13L214.00 204.23L208.55 202.63L204.48 206.92L205.86 212.82L211.32 214.42ZM179.98 210.72L178.59 204.82L173.14 203.22L169.08 207.52L170.47 213.42L175.92 215.01ZM170.47 213.42L169.08 207.52L163.63 205.93L159.57 210.23L160.96 216.12L166.41 217.71ZM182.66 200.52L181.27 194.63L175.81 193.03L171.75 197.33L173.14 203.22L178.59 204.82ZM173.14 203.22L171.75 197.33L166.29 195.74L162.23 200.03L163.63 205.93L169.08 207.52ZM186.82 218.21L185.43 212.31L179.98 210.72L175.92 215.01L177.31 220.90L182.76 222.50ZM177.31 220.90L175.92 215.01L170.47 213.42L166.41 217.71L167.80 223.60L173.25 225.20ZM189.50 208.02L188.11 202.12L182.66 200.52L178.59 204.82L179.98 210.72L185.43 212.31ZM220.77 189.74L219.38 183.83L213.92 182.23L209.85 186.53L211.23 192.43L216.69 194.03ZM211.23 192.43L209.85 186.53L204.39 184.93L200.32 189.23L201.70 195.13L207.16 196.73ZM223.46 179.53L222.07 173.63L216.61 172.03L212.53 176.33L213.92 182.23L219.38 183.83ZM213.92 182.23L212.53 176.33L207.07 174.72L203.00 179.03L204.39 184.93L209.85 186.53ZM227.61 197.24L226.23 191.34L220.77 189.74L216.69 194.03L218.08 199.93L223.54 201.54ZM218.08 199.93L216.69 194.03L211.23 192.43L207.16 196.73L208.55 202.63L214.00 204.23ZM230.31 187.04L228.92 181.14L223.46 179.53L219.38 183.83L220.77 189.74L226.23 191.34ZM194.86 187.63L193.47 181.73L188.01 180.13L183.94 184.43L185.33 190.33L190.79 191.93ZM185.33 190.33L183.94 184.43L178.49 182.83L174.42 187.13L175.81 193.03L181.27 194.63ZM197.54 177.43L196.15 171.52L190.69 169.93L186.62 174.23L188.01 180.13L193.47 181.73ZM188.01 180.13L186.62 174.23L181.16 172.63L177.09 176.93L178.49 182.83L183.94 184.43ZM201.70 195.13L200.32 189.23L194.86 187.63L190.79 191.93L192.18 197.82L197.63 199.42ZM192.18 197.82L190.79 191.93L185.33 190.33L181.27 194.63L182.66 200.52L188.11 202.12ZM204.39 184.93L203.00 179.03L197.54 177.43L193.47 181.73L194.86 187.63L200.32 189.23ZM216.86 238.01L215.47 232.11L210.02 230.51L205.95 234.80L207.34 240.69L212.79 242.30ZM207.34 240.69L205.95 234.80L200.50 233.20L196.44 237.49L197.82 243.38L203.27 244.98ZM219.54 227.82L218.16 221.93L212.70 220.32L208.63 224.61L210.02 230.51L215.47 232.11ZM210.02 230.51L208.63 224.61L203.18 223.01L199.11 227.30L200.50 233.20L205.95 234.80ZM223.69 245.51L222.31 239.61L216.86 238.01L212.79 242.30L214.17 248.19L219.62 249.80ZM214.17 248.19L212.79 242.30L207.34 240.69L203.27 244.98L204.66 250.87L210.11 252.48ZM226.38 235.33L225.00 229.43L219.54 227.82L215.47 232.11L216.86 238.01L222.31 239.61ZM190.99 235.89L189.60 229.99L184.15 228.39L180.09 232.69L181.48 238.58L186.92 240.18ZM181.48 238.58L180.09 232.69L174.64 231.09L170.58 235.38L171.97 241.27L177.42 242.87ZM193.66 225.70L192.28 219.81L186.82 218.21L182.76 222.50L184.15 228.39L189.60 229.99ZM184.15 228.39L182.76 222.50L177.31 220.90L173.25 225.20L174.64 231.09L180.09 232.69ZM197.82 243.38L196.44 237.49L190.99 235.89L186.92 240.18L188.31 246.07L193.76 247.67ZM188.31 246.07L186.92 240.18L181.48 238.58L177.42 242.87L178.80 248.76L184.25 250.36ZM200.50 233.20L199.11 227.30L193.66 225.70L189.60 229.99L190.99 235.89L196.44 237.49ZM231.76 214.95L230.38 209.05L224.92 207.44L220.85 211.73L222.23 217.63L227.69 219.24ZM222.23 217.63L220.85 211.73L215.39 210.13L211.32 214.42L212.70 220.32L218.16 221.93ZM234.46 204.75L233.07 198.85L227.61 197.24L223.54 201.54L224.92 207.44L230.38 209.05ZM224.92 207.44L223.54 201.54L218.08 199.93L214.00 204.23L215.39 210.13L220.85 211.73ZM238.60 222.46L237.22 216.56L231.76 214.95L227.69 219.24L229.07 225.14L234.53 226.75ZM229.07 225.14L227.69 219.24L222.23 217.63L218.16 221.93L219.54 227.82L225.00 229.43ZM241.30 212.26L239.92 206.36L234.46 204.75L230.38 209.05L231.76 214.95L237.22 216.56ZM265.64 120.37L264.26 114.45L258.78 112.84L254.69 117.15L256.07 123.07L261.55 124.68ZM256.07 123.07L254.69 117.15L249.21 115.55L245.12 119.85L246.51 125.77L251.98 127.38ZM258.78 112.84L257.40 106.93L251.92 105.32L247.83 109.63L249.21 115.55L254.69 117.15ZM262.93 130.60L261.55 124.68L256.07 123.07L251.98 127.38L253.36 133.29L258.84 134.90ZM79.30 22.15L77.89 16.24L72.41 14.67L68.36 19.00L69.77 24.91L75.24 26.48ZM94.63 65.06L93.22 59.16L87.75 57.58L83.70 61.91L85.10 67.82L90.57 69.39ZM97.28 54.83L95.87 48.92L90.41 47.35L86.35 51.68L87.75 57.58L93.22 59.16ZM91.38 179.41L89.98 173.52L84.53 171.94L80.49 176.25L81.89 182.14L87.34 183.71ZM94.03 169.21L92.62 163.32L87.17 161.74L83.13 166.05L84.53 171.94L89.98 173.52ZM98.23 186.87L96.83 180.99L91.38 179.41L87.34 183.71L88.74 189.60L94.19 191.18ZM100.88 176.68L99.48 170.79L94.03 169.21L89.98 173.52L91.38 179.41L96.83 180.99ZM106.17 156.28L104.77 150.39L99.32 148.81L95.27 153.12L96.67 159.01L102.12 160.59ZM96.67 159.01L95.27 153.12L89.82 151.54L85.77 155.85L87.17 161.74L92.62 163.32ZM108.83 146.08L107.42 140.18L101.97 138.60L97.92 142.91L99.32 148.81L104.77 150.39ZM99.32 148.81L97.92 142.91L92.46 141.33L88.41 145.65L89.82 151.54L95.27 153.12ZM113.03 163.76L111.63 157.86L106.17 156.28L102.12 160.59L103.53 166.48L108.98 168.06ZM103.53 166.48L102.12 160.59L96.67 159.01L92.62 163.32L94.03 169.21L99.48 170.79ZM115.68 153.55L114.28 147.66L108.83 146.08L104.77 150.39L106.17 156.28L111.63 157.86ZM102.44 204.53L101.03 198.65L95.59 197.07L91.55 201.37L92.95 207.25L98.39 208.83ZM92.95 207.25L91.55 201.37L86.10 199.79L82.06 204.09L83.46 209.97L88.91 211.55ZM105.08 194.34L103.68 188.46L98.23 186.87L94.19 191.18L95.59 197.07L101.03 198.65ZM95.59 197.07L94.19 191.18L88.74 189.60L84.70 193.91L86.10 199.79L91.55 201.37ZM109.28 212.00L107.88 206.12L102.44 204.53L98.39 208.83L99.79 214.72L105.23 216.30ZM99.79 214.72L98.39 208.83L92.95 207.25L88.91 211.55L90.31 217.44L95.75 219.02ZM111.93 201.81L110.53 195.93L105.08 194.34L101.03 198.65L102.44 204.53L107.88 206.12ZM83.46 209.97L82.06 204.09L76.62 202.51L72.58 206.82L73.99 212.70L79.43 214.28ZM86.10 199.79L84.70 193.91L79.26 192.33L75.22 196.63L76.62 202.51L82.06 204.09ZM117.23 181.43L115.83 175.54L110.38 173.95L106.33 178.26L107.73 184.15L113.18 185.73ZM107.73 184.15L106.33 178.26L100.88 176.68L96.83 180.99L98.23 186.87L103.68 188.46ZM119.88 171.23L118.48 165.34L113.03 163.76L108.98 168.06L110.38 173.95L115.83 175.54ZM110.38 173.95L108.98 168.06L103.53 166.48L99.48 170.79L100.88 176.68L106.33 178.26ZM124.08 188.90L122.68 183.01L117.23 181.43L113.18 185.73L114.58 191.62L120.02 193.21ZM114.58 191.62L113.18 185.73L107.73 184.15L103.68 188.46L105.08 194.34L110.53 195.93ZM126.73 178.71L125.33 172.82L119.88 171.23L115.83 175.54L117.23 181.43L122.68 183.01ZM109.93 107.96L108.52 102.06L103.06 100.48L99.00 104.80L100.41 110.70L105.87 112.28ZM100.41 110.70L99.00 104.80L93.54 103.22L89.49 107.54L90.90 113.44L96.35 115.02ZM112.58 97.74L111.18 91.83L105.71 90.25L101.66 94.58L103.06 100.48L108.52 102.06ZM103.06 100.48L101.66 94.58L96.19 93.00L92.14 97.32L93.54 103.22L99.00 104.80ZM116.79 115.44L115.39 109.54L109.93 107.96L105.87 112.28L107.27 118.18L112.73 119.76ZM107.27 118.18L105.87 112.28L100.41 110.70L96.35 115.02L97.76 120.91L103.22 122.49ZM119.45 105.22L118.04 99.32L112.58 97.74L108.52 102.06L109.93 107.96L115.39 109.54ZM90.90 113.44L89.49 107.54L84.03 105.97L79.98 110.29L81.39 116.18L86.84 117.76ZM93.54 103.22L92.14 97.32L86.68 95.75L82.62 100.07L84.03 105.97L89.49 107.54ZM124.77 84.77L123.37 78.87L117.90 77.28L113.84 81.61L115.24 87.51L120.70 89.09ZM115.24 87.51L113.84 81.61L108.37 80.03L104.31 84.35L105.71 90.25L111.18 91.83ZM127.43 74.54L126.03 68.63L120.56 67.05L116.50 71.38L117.90 77.28L123.37 78.87ZM117.90 77.28L116.50 71.38L111.03 69.80L106.97 74.12L108.37 80.03L113.84 81.61ZM131.64 92.26L130.24 86.35L124.77 84.77L120.70 89.09L122.11 95.00L127.57 96.58ZM122.11 95.00L120.70 89.09L115.24 87.51L111.18 91.83L112.58 97.74L118.04 99.32ZM134.30 82.03L132.90 76.12L127.43 74.54L123.37 78.87L124.77 84.77L130.24 86.35ZM98.85 82.77L97.44 76.87L91.98 75.29L87.92 79.62L89.33 85.52L94.79 87.10ZM101.50 72.55L100.09 66.64L94.63 65.06L90.57 69.39L91.98 75.29L97.44 76.87ZM91.98 75.29L90.57 69.39L85.10 67.82L81.05 72.15L82.46 78.05L87.92 79.62ZM105.71 90.25L104.31 84.35L98.85 82.77L94.79 87.10L96.19 93.00L101.66 94.58ZM96.19 93.00L94.79 87.10L89.33 85.52L85.27 89.85L86.68 95.75L92.14 97.32ZM108.37 80.03L106.97 74.12L101.50 72.55L97.44 76.87L98.85 82.77L104.31 84.35ZM120.99 133.14L119.59 127.24L114.13 125.65L110.08 129.97L111.48 135.87L116.94 137.45ZM111.48 135.87L110.08 129.97L104.62 128.39L100.57 132.71L101.97 138.60L107.42 140.18ZM123.65 122.92L122.25 117.02L116.79 115.44L112.73 119.76L114.13 125.65L119.59 127.24ZM114.13 125.65L112.73 119.76L107.27 118.18L103.22 122.49L104.62 128.39L110.08 129.97ZM127.85 140.62L126.45 134.72L120.99 133.14L116.94 137.45L118.34 143.35L123.79 144.93ZM118.34 143.35L116.94 137.45L111.48 135.87L107.42 140.18L108.83 146.08L114.28 147.66ZM130.51 130.41L129.11 124.51L123.65 122.92L119.59 127.24L120.99 133.14L126.45 134.72ZM95.11 131.13L93.71 125.23L88.25 123.65L84.20 127.97L85.60 133.86L91.06 135.44ZM97.76 120.91L96.35 115.02L90.90 113.44L86.84 117.76L88.25 123.65L93.71 125.23ZM101.97 138.60L100.57 132.71L95.11 131.13L91.06 135.44L92.46 141.33L97.92 142.91ZM92.46 141.33L91.06 135.44L85.60 133.86L81.56 138.18L82.96 144.07L88.41 145.65ZM104.62 128.39L103.22 122.49L97.76 120.91L93.71 125.23L95.11 131.13L100.57 132.71ZM135.84 109.97L134.44 104.07L128.97 102.48L124.91 106.80L126.31 112.70L131.77 114.29ZM126.31 112.70L124.91 106.80L119.45 105.22L115.39 109.54L116.79 115.44L122.25 117.02ZM138.50 99.75L137.10 93.84L131.64 92.26L127.57 96.58L128.97 102.48L134.44 104.07ZM128.97 102.48L127.57 96.58L122.11 95.00L118.04 99.32L119.45 105.22L124.91 106.80ZM142.70 117.46L141.30 111.56L135.84 109.97L131.77 114.29L133.17 120.19L138.63 121.78ZM133.17 120.19L131.77 114.29L126.31 112.70L122.25 117.02L123.65 122.92L129.11 124.51ZM145.37 107.24L143.97 101.34L138.50 99.75L134.44 104.07L135.84 109.97L141.30 111.56ZM256.41 255.17L255.03 249.27L249.58 247.66L245.50 251.95L246.88 257.84L252.33 259.45ZM246.88 257.84L245.50 251.95L240.05 250.34L235.98 254.62L237.36 260.52L242.81 262.13ZM263.24 262.68L261.86 256.79L256.41 255.17L252.33 259.45L253.71 265.35L259.16 266.96ZM227.84 263.19L226.46 257.30L221.01 255.69L216.94 259.98L218.32 265.87L223.77 267.47ZM230.53 253.01L229.14 247.12L223.69 245.51L219.62 249.80L221.01 255.69L226.46 257.30ZM221.01 255.69L219.62 249.80L214.17 248.19L210.11 252.48L211.49 258.37L216.94 259.98ZM237.36 260.52L235.98 254.62L230.53 253.01L226.46 257.30L227.84 263.19L233.29 264.80ZM259.11 244.99L257.73 239.09L252.28 237.48L248.20 241.76L249.58 247.66L255.03 249.27ZM261.81 234.80L260.43 228.90L254.98 227.29L250.90 231.58L252.28 237.48L257.73 239.09ZM265.94 252.50L264.57 246.60L259.11 244.99L255.03 249.27L256.41 255.17L261.86 256.79ZM242.74 240.15L241.36 234.25L235.91 232.64L231.83 236.93L233.22 242.83L238.67 244.44ZM233.22 242.83L231.83 236.93L226.38 235.33L222.31 239.61L223.69 245.51L229.14 247.12ZM245.44 229.97L244.06 224.07L238.60 222.46L234.53 226.75L235.91 232.64L241.36 234.25ZM235.91 232.64L234.53 226.75L229.07 225.14L225.00 229.43L226.38 235.33L231.83 236.93ZM249.58 247.66L248.20 241.76L242.74 240.15L238.67 244.44L240.05 250.34L245.50 251.95ZM240.05 250.34L238.67 244.44L233.22 242.83L229.14 247.12L230.53 253.01L235.98 254.62ZM252.28 237.48L250.90 231.58L245.44 229.97L241.36 234.25L242.74 240.15L248.20 241.76ZM262.61 -1.98L261.23 -7.92L255.73 -9.52L251.62 -5.19L253.01 0.74L258.51 2.35ZM253.01 0.74L251.62 -5.19L246.13 -6.79L242.02 -2.46L243.41 3.47L248.91 5.07ZM259.89 8.28L258.51 2.35L253.01 0.74L248.91 5.07L250.29 11.01L255.79 12.61ZM236.53 -4.06L235.14 -10.00L229.64 -11.60L225.54 -7.26L226.93 -1.33L232.43 0.27ZM226.93 -1.33L225.54 -7.26L220.05 -8.86L215.95 -4.53L217.34 1.40L222.84 3.00ZM243.41 3.47L242.02 -2.46L236.53 -4.06L232.43 0.27L233.82 6.20L239.31 7.80ZM233.82 6.20L232.43 0.27L226.93 -1.33L222.84 3.00L224.23 8.93L229.72 10.53ZM264.05 26.08L262.67 20.15L257.17 18.54L253.07 22.87L254.46 28.80L259.95 30.41ZM266.77 15.82L265.39 9.89L259.89 8.28L255.79 12.61L257.17 18.54L262.67 20.15ZM247.58 21.26L246.19 15.33L240.70 13.73L236.60 18.06L237.99 23.99L243.48 25.59ZM237.99 23.99L236.60 18.06L231.11 16.46L227.01 20.79L228.40 26.71L233.89 28.31ZM250.29 11.01L248.91 5.07L243.41 3.47L239.31 7.80L240.70 13.73L246.19 15.33ZM240.70 13.73L239.31 7.80L233.82 6.20L229.72 10.53L231.11 16.46L236.60 18.06ZM254.46 28.80L253.07 22.87L247.58 21.26L243.48 25.59L244.87 31.52L250.35 33.12ZM244.87 31.52L243.48 25.59L237.99 23.99L233.89 28.31L235.28 34.24L240.77 35.84ZM257.17 18.54L255.79 12.61L250.29 11.01L246.19 15.33L247.58 21.26L253.07 22.87ZM165.26 -2.67L163.86 -8.59L158.37 -10.18L154.29 -5.84L155.69 0.08L161.17 1.67ZM155.69 0.08L154.29 -5.84L148.80 -7.42L144.72 -3.09L146.13 2.83L151.61 4.42ZM129.68 -1.91L128.28 -7.83L122.79 -9.41L118.72 -5.07L120.13 0.85L125.61 2.42ZM91.49 9.13L90.08 3.22L84.60 1.65L80.54 5.99L81.95 11.90L87.42 13.47ZM81.95 11.90L80.54 5.99L75.06 4.42L71.00 8.76L72.41 14.67L77.89 16.24ZM94.14 -1.12L92.73 -7.03L87.26 -8.61L83.19 -4.26L84.60 1.65L90.08 3.22ZM84.60 1.65L83.19 -4.26L77.71 -5.84L73.65 -1.49L75.06 4.42L80.54 5.99ZM98.37 16.62L96.96 10.71L91.49 9.13L87.42 13.47L88.83 19.38L94.31 20.96ZM88.83 19.38L87.42 13.47L81.95 11.90L77.89 16.24L79.30 22.15L84.77 23.72ZM101.03 6.37L99.62 0.45L94.14 -1.12L90.08 3.22L91.49 9.13L96.96 10.71ZM103.69 -3.89L102.28 -9.80L96.80 -11.38L92.73 -7.03L94.14 -1.12L99.62 0.45ZM195.48 17.13L194.09 11.21L188.60 9.61L184.51 13.95L185.91 19.87L191.39 21.46ZM185.91 19.87L184.51 13.95L179.03 12.36L174.94 16.69L176.34 22.61L181.82 24.20ZM198.18 6.88L196.78 0.95L191.29 -0.64L187.20 3.69L188.60 9.61L194.09 11.21ZM188.60 9.61L187.20 3.69L181.72 2.10L177.63 6.43L179.03 12.36L184.51 13.95ZM202.36 24.65L200.97 18.73L195.48 17.13L191.39 21.46L192.79 27.39L198.27 28.98ZM192.79 27.39L191.39 21.46L185.91 19.87L181.82 24.20L183.22 30.12L188.70 31.71ZM205.06 14.40L203.66 8.47L198.18 6.88L194.09 11.21L195.48 17.13L200.97 18.73ZM169.46 15.10L168.06 9.18L162.57 7.59L158.49 11.92L159.89 17.84L165.37 19.43ZM159.89 17.84L158.49 11.92L153.01 10.34L148.93 14.67L150.33 20.59L155.81 22.18ZM172.14 4.84L170.74 -1.08L165.26 -2.67L161.17 1.67L162.57 7.59L168.06 9.18ZM162.57 7.59L161.17 1.67L155.69 0.08L151.61 4.42L153.01 10.34L158.49 11.92ZM176.34 22.61L174.94 16.69L169.46 15.10L165.37 19.43L166.77 25.35L172.25 26.94ZM166.77 25.35L165.37 19.43L159.89 17.84L155.81 22.18L157.21 28.09L162.69 29.68ZM179.03 12.36L177.63 6.43L172.14 4.84L168.06 9.18L169.46 15.10L174.94 16.69ZM200.87 -3.39L199.48 -9.31L193.99 -10.91L189.90 -6.57L191.29 -0.64L196.78 0.95ZM217.34 1.40L215.95 -4.53L210.46 -6.12L206.36 -1.79L207.76 4.14L213.25 5.73ZM207.76 4.14L206.36 -1.79L200.87 -3.39L196.78 0.95L198.18 6.88L203.66 8.47ZM191.29 -0.64L189.90 -6.57L184.41 -8.16L180.32 -3.83L181.72 2.10L187.20 3.69ZM181.72 2.10L180.32 -3.83L174.83 -5.42L170.74 -1.08L172.14 4.84L177.63 6.43ZM206.54 42.42L205.15 36.50L199.67 34.90L195.58 39.23L196.97 45.15L202.45 46.75ZM196.97 45.15L195.58 39.23L190.10 37.63L186.01 41.96L187.41 47.88L192.89 49.47ZM209.24 32.17L207.85 26.25L202.36 24.65L198.27 28.98L199.67 34.90L205.15 36.50ZM199.67 34.90L198.27 28.98L192.79 27.39L188.70 31.71L190.10 37.63L195.58 39.23ZM213.42 49.94L212.03 44.02L206.54 42.42L202.45 46.75L203.85 52.67L209.33 54.26ZM203.85 52.67L202.45 46.75L196.97 45.15L192.89 49.47L194.28 55.39L199.76 56.99ZM216.12 39.69L214.72 33.77L209.24 32.17L205.15 36.50L206.54 42.42L212.03 44.02ZM180.53 40.37L179.13 34.45L173.65 32.86L169.57 37.19L170.97 43.11L176.45 44.70ZM170.97 43.11L169.57 37.19L164.09 35.60L160.01 39.93L161.41 45.84L166.89 47.43ZM183.22 30.12L181.82 24.20L176.34 22.61L172.25 26.94L173.65 32.86L179.13 34.45ZM173.65 32.86L172.25 26.94L166.77 25.35L162.69 29.68L164.09 35.60L169.57 37.19ZM187.41 47.88L186.01 41.96L180.53 40.37L176.45 44.70L177.84 50.61L183.32 52.21ZM177.84 50.61L176.45 44.70L170.97 43.11L166.89 47.43L168.29 53.35L173.76 54.94ZM190.10 37.63L188.70 31.71L183.22 30.12L179.13 34.45L180.53 40.37L186.01 41.96ZM221.52 19.19L220.13 13.26L214.64 11.66L210.55 15.99L211.94 21.92L217.43 23.52ZM211.94 21.92L210.55 15.99L205.06 14.40L200.97 18.73L202.36 24.65L207.85 26.25ZM224.23 8.93L222.84 3.00L217.34 1.40L213.25 5.73L214.64 11.66L220.13 13.26ZM214.64 11.66L213.25 5.73L207.76 4.14L203.66 8.47L205.06 14.40L210.55 15.99ZM228.40 26.71L227.01 20.79L221.52 19.19L217.43 23.52L218.82 29.44L224.30 31.04ZM218.82 29.44L217.43 23.52L211.94 21.92L207.85 26.25L209.24 32.17L214.72 33.77ZM231.11 16.46L229.72 10.53L224.23 8.93L220.13 13.26L221.52 19.19L227.01 20.79ZM128.56 36.34L127.15 30.42L121.68 28.84L117.61 33.17L119.01 39.09L124.48 40.67ZM119.01 39.09L117.61 33.17L112.13 31.60L108.07 35.93L109.47 41.84L114.94 43.42ZM131.22 26.09L129.82 20.17L124.34 18.59L120.27 22.93L121.68 28.84L127.15 30.42ZM121.68 28.84L120.27 22.93L114.80 21.35L110.73 25.68L112.13 31.60L117.61 33.17ZM135.43 43.83L134.03 37.92L128.56 36.34L124.48 40.67L125.89 46.58L131.36 48.16ZM125.89 46.58L124.48 40.67L119.01 39.09L114.94 43.42L116.35 49.33L121.82 50.91ZM138.10 33.59L136.70 27.67L131.22 26.09L127.15 30.42L128.56 36.34L134.03 37.92ZM102.59 34.35L101.19 28.44L95.71 26.87L91.65 31.20L93.06 37.11L98.53 38.68ZM93.06 37.11L91.65 31.20L86.18 29.63L82.12 33.96L83.53 39.87L89.00 41.44ZM105.25 24.11L103.85 18.19L98.37 16.62L94.31 20.96L95.71 26.87L101.19 28.44ZM95.71 26.87L94.31 20.96L88.83 19.38L84.77 23.72L86.18 29.63L91.65 31.20ZM109.47 41.84L108.07 35.93L102.59 34.35L98.53 38.68L99.94 44.59L105.41 46.17ZM99.94 44.59L98.53 38.68L93.06 37.11L89.00 41.44L90.41 47.35L95.87 48.92ZM112.13 31.60L110.73 25.68L105.25 24.11L101.19 28.44L102.59 34.35L108.07 35.93ZM143.45 13.09L142.05 7.17L136.57 5.59L132.49 9.92L133.89 15.84L139.37 17.42ZM133.89 15.84L132.49 9.92L127.01 8.34L122.94 12.68L124.34 18.59L129.82 20.17ZM146.13 2.83L144.72 -3.09L139.24 -4.67L135.16 -0.33L136.57 5.59L142.05 7.17ZM136.57 5.59L135.16 -0.33L129.68 -1.91L125.61 2.42L127.01 8.34L132.49 9.92ZM150.33 20.59L148.93 14.67L143.45 13.09L139.37 17.42L140.78 23.34L146.25 24.92ZM140.78 23.34L139.37 17.42L133.89 15.84L129.82 20.17L131.22 26.09L136.70 27.67ZM153.01 10.34L151.61 4.42L146.13 2.83L142.05 7.17L143.45 13.09L148.93 14.67ZM117.46 11.10L116.05 5.18L110.58 3.61L106.51 7.94L107.91 13.86L113.39 15.44ZM107.91 13.86L106.51 7.94L101.03 6.37L96.96 10.71L98.37 16.62L103.85 18.19ZM120.13 0.85L118.72 -5.07L113.24 -6.65L109.17 -2.31L110.58 3.61L116.05 5.18ZM110.58 3.61L109.17 -2.31L103.69 -3.89L99.62 0.45L101.03 6.37L106.51 7.94ZM124.34 18.59L122.94 12.68L117.46 11.10L113.39 15.44L114.80 21.35L120.27 22.93ZM114.80 21.35L113.39 15.44L107.91 13.86L103.85 18.19L105.25 24.11L110.73 25.68ZM127.01 8.34L125.61 2.42L120.13 0.85L116.05 5.18L117.46 11.10L122.94 12.68ZM139.64 61.57L138.24 55.65L132.76 54.07L128.69 58.40L130.10 64.31L135.57 65.89ZM130.10 64.31L128.69 58.40L123.22 56.82L119.16 61.14L120.56 67.05L126.03 68.63ZM142.31 51.33L140.91 45.41L135.43 43.83L131.36 48.16L132.76 54.07L138.24 55.65ZM132.76 54.07L131.36 48.16L125.89 46.58L121.82 50.91L123.22 56.82L128.69 58.40ZM146.51 69.06L145.11 63.15L139.64 61.57L135.57 65.89L136.97 71.80L142.44 73.39ZM136.97 71.80L135.57 65.89L130.10 64.31L126.03 68.63L127.43 74.54L132.90 76.12ZM149.18 58.82L147.78 52.91L142.31 51.33L138.24 55.65L139.64 61.57L145.11 63.15ZM113.69 59.56L112.28 53.66L106.81 52.08L102.75 56.41L104.16 62.31L109.62 63.89ZM104.16 62.31L102.75 56.41L97.28 54.83L93.22 59.16L94.63 65.06L100.09 66.64ZM116.35 49.33L114.94 43.42L109.47 41.84L105.41 46.17L106.81 52.08L112.28 53.66ZM106.81 52.08L105.41 46.17L99.94 44.59L95.87 48.92L97.28 54.83L102.75 56.41ZM120.56 67.05L119.16 61.14L113.69 59.56L109.62 63.89L111.03 69.80L116.50 71.38ZM111.03 69.80L109.62 63.89L104.16 62.31L100.09 66.64L101.50 72.55L106.97 74.12ZM123.22 56.82L121.82 50.91L116.35 49.33L112.28 53.66L113.69 59.56L119.16 61.14ZM154.53 38.34L153.13 32.42L147.66 30.84L143.58 35.17L144.98 41.08L150.46 42.67ZM144.98 41.08L143.58 35.17L138.10 33.59L134.03 37.92L135.43 43.83L140.91 45.41ZM157.21 28.09L155.81 22.18L150.33 20.59L146.25 24.92L147.66 30.84L153.13 32.42ZM147.66 30.84L146.25 24.92L140.78 23.34L136.70 27.67L138.10 33.59L143.58 35.17ZM161.41 45.84L160.01 39.93L154.53 38.34L150.46 42.67L151.86 48.58L157.33 50.17ZM151.86 48.58L150.46 42.67L144.98 41.08L140.91 45.41L142.31 51.33L147.78 52.91ZM164.09 35.60L162.69 29.68L157.21 28.09L153.13 32.42L154.53 38.34L160.01 39.93Z"/></svg>
