<svg xmlns="http://www.w3.org/2000/svg" width="256" height="256" viewBox="0 0 256 256"><path data-band="2" fill="#f97316" fill-opacity="0.35" d="M3.56 256.25L2.18 250.50L-3.12 248.91L-7.04 253.07L-5.66 258.82L-0.36 260.41ZM0.03 35.68L-1.36 29.90L-6.70 28.32L-10.65 32.52L-9.26 38.30L-3.92 39.88ZM2.59 25.70L1.20 19.91L-4.14 18.33L-8.09 22.53L-6.70 28.32L-1.36 29.90ZM7.72 5.72L6.33 -0.07L0.98 -1.65L-2.97 2.55L-1.58 8.34L3.76 9.93ZM0.98 -1.65L-0.41 -7.44L-5.75 -9.02L-9.70 -4.82L-8.31 0.97L-2.97 2.55ZM14.45 13.10L13.06 7.31L7.72 5.72L3.76 9.93L5.15 15.71L10.49 17.30ZM5.15 15.71L3.76 9.93L-1.58 8.34L-5.53 12.54L-4.14 18.33L1.20 19.91ZM17.02 3.10L15.63 -2.69L10.28 -4.27L6.33 -0.07L7.72 5.72L13.06 7.31ZM4.19 53.03L2.80 47.25L-2.53 45.66L-6.48 49.86L-5.09 55.64L0.24 57.23ZM6.75 43.05L5.37 37.27L0.03 35.68L-3.92 39.88L-2.53 45.66L2.80 47.25ZM10.91 60.40L9.53 54.62L4.19 53.03L0.24 57.23L1.63 63.01L6.97 64.59ZM1.63 63.01L0.24 57.23L-5.09 55.64L-9.03 59.84L-7.65 65.61L-2.31 67.20ZM13.48 50.42L12.09 44.64L6.75 43.05L2.80 47.25L4.19 53.03L9.53 54.62ZM18.61 30.46L17.22 24.67L11.88 23.09L7.93 27.29L9.32 33.07L14.66 34.66ZM9.32 33.07L7.93 27.29L2.59 25.70L-1.36 29.90L0.03 35.68L5.37 37.27ZM21.18 20.47L19.79 14.68L14.45 13.10L10.49 17.30L11.88 23.09L17.22 24.67ZM11.88 23.09L10.49 17.30L5.15 15.71L1.20 19.91L2.59 25.70L7.93 27.29ZM25.34 37.83L23.95 32.05L18.61 30.46L14.66 34.66L16.04 40.44L21.38 42.03ZM16.04 40.44L14.66 34.66L9.32 33.07L5.37 37.27L6.75 43.05L12.09 44.64ZM27.91 27.85L26.52 22.06L21.18 20.47L17.22 24.67L18.61 30.46L23.95 32.05ZM40.36 79.92L38.98 74.13L33.64 72.54L29.69 76.73L31.07 82.51L36.41 84.10ZM31.07 82.51L29.69 76.73L24.35 75.14L20.40 79.33L21.79 85.11L27.12 86.70ZM42.93 69.94L41.55 64.16L36.21 62.57L32.26 66.76L33.64 72.54L38.98 74.13ZM33.64 72.54L32.26 66.76L26.92 65.17L22.97 69.36L24.35 75.14L29.69 76.73ZM47.08 87.29L45.69 81.51L40.36 79.92L36.41 84.10L37.79 89.89L43.12 91.48ZM37.79 89.89L36.41 84.10L31.07 82.51L27.12 86.70L28.50 92.48L33.84 94.07ZM49.65 77.32L48.27 71.54L42.93 69.94L38.98 74.13L40.36 79.92L45.69 81.51ZM15.07 77.74L13.69 71.96L8.35 70.37L4.41 74.56L5.79 80.34L11.12 81.93ZM5.79 80.34L4.41 74.56L-0.93 72.98L-4.87 77.17L-3.48 82.94L1.85 84.53ZM17.63 67.77L16.25 61.99L10.91 60.40L6.97 64.59L8.35 70.37L13.69 71.96ZM8.35 70.37L6.97 64.59L1.63 63.01L-2.31 67.20L-0.93 72.98L4.41 74.56ZM21.79 85.11L20.40 79.33L15.07 77.74L11.12 81.93L12.51 87.71L17.84 89.30ZM12.51 87.71L11.12 81.93L5.79 80.34L1.85 84.53L3.23 90.31L8.56 91.90ZM24.35 75.14L22.97 69.36L17.63 67.77L13.69 71.96L15.07 77.74L20.40 79.33ZM54.80 57.37L53.42 51.58L48.08 49.99L44.12 54.18L45.51 59.97L50.85 61.56ZM45.51 59.97L44.12 54.18L38.78 52.59L34.83 56.78L36.21 62.57L41.55 64.16ZM57.38 47.39L56.00 41.60L50.66 40.01L46.70 44.20L48.08 49.99L53.42 51.58ZM48.08 49.99L46.70 44.20L41.36 42.61L37.40 46.80L38.78 52.59L44.12 54.18ZM61.53 64.76L60.15 58.97L54.80 57.37L50.85 61.56L52.23 67.35L57.57 68.95ZM52.23 67.35L50.85 61.56L45.51 59.97L41.55 64.16L42.93 69.94L48.27 71.54ZM64.11 54.78L62.73 48.99L57.38 47.39L53.42 51.58L54.80 57.37L60.15 58.97ZM29.49 55.19L28.11 49.41L22.77 47.82L18.81 52.01L20.20 57.79L25.54 59.38ZM20.20 57.79L18.81 52.01L13.48 50.42L9.53 54.62L10.91 60.40L16.25 61.99ZM32.06 45.21L30.68 39.43L25.34 37.83L21.38 42.03L22.77 47.82L28.11 49.41ZM22.77 47.82L21.38 42.03L16.04 40.44L12.09 44.64L13.48 50.42L18.81 52.01ZM36.21 62.57L34.83 56.78L29.49 55.19L25.54 59.38L26.92 65.17L32.26 66.76ZM26.92 65.17L25.54 59.38L20.20 57.79L16.25 61.99L17.63 67.77L22.97 69.36ZM38.78 52.59L37.40 46.80L32.06 45.21L28.11 49.41L29.49 55.19L34.83 56.78ZM51.21 104.64L49.84 98.86L44.50 97.26L40.55 101.44L41.93 107.22L47.26 108.82ZM41.93 107.22L40.55 101.44L35.22 99.85L31.27 104.04L32.65 109.81L37.98 111.41ZM53.79 94.67L52.41 88.89L47.08 87.29L43.12 91.48L44.50 97.26L49.84 98.86ZM44.50 97.26L43.12 91.48L37.79 89.89L33.84 94.07L35.22 99.85L40.55 101.44ZM57.93 112.01L56.55 106.23L51.21 104.64L47.26 108.82L48.64 114.60L53.97 116.19ZM48.64 114.60L47.26 108.82L41.93 107.22L37.98 111.41L39.36 117.18L44.69 118.78ZM60.50 102.05L59.12 96.27L53.79 94.67L49.84 98.86L51.21 104.64L56.55 106.23ZM25.94 102.44L24.56 96.67L19.22 95.07L15.28 99.26L16.66 105.04L21.99 106.63ZM16.66 105.04L15.28 99.26L9.95 97.67L6.01 101.86L7.39 107.63L12.72 109.22ZM28.50 92.48L27.12 86.70L21.79 85.11L17.84 89.30L19.22 95.07L24.56 96.67ZM19.22 95.07L17.84 89.30L12.51 87.71L8.56 91.90L9.95 97.67L15.28 99.26ZM32.65 109.81L31.27 104.04L25.94 102.44L21.99 106.63L23.37 112.40L28.70 113.99ZM23.37 112.40L21.99 106.63L16.66 105.04L12.72 109.22L14.10 114.99L19.43 116.59ZM35.22 99.85L33.84 94.07L28.50 92.48L24.56 96.67L25.94 102.44L31.27 104.04ZM65.66 82.11L64.28 76.33L58.95 74.73L54.99 78.92L56.37 84.70L61.70 86.30ZM56.37 84.70L54.99 78.92L49.65 77.32L45.69 81.51L47.08 87.29L52.41 88.89ZM68.24 72.14L66.87 66.35L61.53 64.76L57.57 68.95L58.95 74.73L64.28 76.33ZM58.95 74.73L57.57 68.95L52.23 67.35L48.27 71.54L49.65 77.32L54.99 78.92ZM72.38 89.50L71.00 83.71L65.66 82.11L61.70 86.30L63.08 92.08L68.42 93.68ZM63.08 92.08L61.70 86.30L56.37 84.70L52.41 88.89L53.79 94.67L59.12 96.27ZM74.96 79.53L73.58 73.74L68.24 72.14L64.28 76.33L65.66 82.11L71.00 83.71ZM0.68 100.27L-0.71 94.50L-6.04 92.91L-9.98 97.10L-8.59 102.87L-3.26 104.46ZM3.23 90.31L1.85 84.53L-3.48 82.94L-7.42 87.13L-6.04 92.91L-0.71 94.50ZM7.39 107.63L6.01 101.86L0.68 100.27L-3.26 104.46L-1.88 110.23L3.45 111.82ZM9.95 97.67L8.56 91.90L3.23 90.31L-0.71 94.50L0.68 100.27L6.01 101.86ZM58.40 10.04L57.02 4.24L51.67 2.65L47.71 6.85L49.09 12.64L54.44 14.24ZM49.09 12.64L47.71 6.85L42.36 5.26L38.40 9.46L39.78 15.25L45.13 16.84ZM60.99 0.04L59.61 -5.76L54.26 -7.35L50.29 -3.15L51.67 2.65L57.02 4.24ZM51.67 2.65L50.29 -3.15L44.94 -4.74L40.98 -0.54L42.36 5.26L47.71 6.85ZM65.13 17.43L63.75 11.63L58.40 10.04L54.44 14.24L55.82 20.03L61.17 21.63ZM55.82 20.03L54.44 14.24L49.09 12.64L45.13 16.84L46.51 22.64L51.86 24.23ZM67.72 7.43L66.34 1.64L60.99 0.04L57.02 4.24L58.40 10.04L63.75 11.63ZM33.05 7.87L31.67 2.08L26.32 0.49L22.36 4.69L23.75 10.48L29.09 12.07ZM23.75 10.48L22.36 4.69L17.02 3.10L13.06 7.31L14.45 13.10L19.79 14.68ZM35.63 -2.13L34.24 -7.92L28.89 -9.51L24.93 -5.30L26.32 0.49L31.67 2.08ZM26.32 0.49L24.93 -5.30L19.59 -6.89L15.63 -2.69L17.02 3.10L22.36 4.69ZM39.78 15.25L38.40 9.46L33.05 7.87L29.09 12.07L30.48 17.86L35.82 19.45ZM30.48 17.86L29.09 12.07L23.75 10.48L19.79 14.68L21.18 20.47L26.52 22.06ZM42.36 5.26L40.98 -0.54L35.63 -2.13L31.67 2.08L33.05 7.87L38.40 9.46ZM70.31 -2.56L68.93 -8.36L63.58 -9.96L59.61 -5.76L60.99 0.04L66.34 1.64ZM69.28 34.81L67.90 29.02L62.55 27.42L58.59 31.62L59.97 37.41L65.31 39.00ZM59.97 37.41L58.59 31.62L53.24 30.02L49.28 34.22L50.66 40.01L56.00 41.60ZM71.86 24.82L70.48 19.02L65.13 17.43L61.17 21.63L62.55 27.42L67.90 29.02ZM62.55 27.42L61.17 21.63L55.82 20.03L51.86 24.23L53.24 30.02L58.59 31.62ZM76.00 42.20L74.62 36.41L69.28 34.81L65.31 39.00L66.69 44.79L72.04 46.39ZM66.69 44.79L65.31 39.00L59.97 37.41L56.00 41.60L57.38 47.39L62.73 48.99ZM78.59 32.21L77.21 26.42L71.86 24.82L67.90 29.02L69.28 34.81L74.62 36.41ZM43.93 32.62L42.55 26.83L37.21 25.24L33.25 29.44L34.63 35.23L39.98 36.82ZM34.63 35.23L33.25 29.44L27.91 27.85L23.95 32.05L25.34 37.83L30.68 39.43ZM46.51 22.64L45.13 16.84L39.78 15.25L35.82 19.45L37.21 25.24L42.55 26.83ZM37.21 25.24L35.82 19.45L30.48 17.86L26.52 22.06L27.91 27.85L33.25 29.44ZM50.66 40.01L49.28 34.22L43.93 32.62L39.98 36.82L41.36 42.61L46.70 44.20ZM41.36 42.61L39.98 36.82L34.63 35.23L30.68 39.43L32.06 45.21L37.40 46.80ZM53.24 30.02L51.86 24.23L46.51 22.64L42.55 26.83L43.93 32.62L49.28 34.22ZM83.77 12.23L82.39 6.43L77.04 4.83L73.07 9.03L74.45 14.83L79.80 16.43ZM74.45 14.83L73.07 9.03L67.72 7.43L63.75 11.63L65.13 17.43L70.48 19.02ZM86.37 2.23L84.99 -3.57L79.64 -5.17L75.66 -0.97L77.04 4.83L82.39 6.43ZM77.04 4.83L75.66 -0.97L70.31 -2.56L66.34 1.64L67.72 7.43L73.07 9.03ZM90.50 19.62L89.13 13.83L83.77 12.23L79.80 16.43L81.18 22.22L86.53 23.82ZM81.18 22.22L79.80 16.43L74.45 14.83L70.48 19.02L71.86 24.82L77.21 26.42ZM93.10 9.63L91.72 3.83L86.37 2.23L82.39 6.43L83.77 12.23L89.13 13.83ZM69.28 201.19L67.91 195.42L62.59 193.82L58.65 197.99L60.02 203.75L65.34 205.36ZM60.02 203.75L58.65 197.99L53.33 196.39L49.38 200.55L50.76 206.32L56.08 207.92ZM71.86 191.26L70.49 185.49L65.16 183.88L61.22 188.05L62.59 193.82L67.91 195.42ZM62.59 193.82L61.22 188.05L55.90 186.45L51.95 190.62L53.33 196.39L58.65 197.99ZM75.98 208.56L74.60 202.79L69.28 201.19L65.34 205.36L66.71 211.12L72.03 212.73ZM66.71 211.12L65.34 205.36L60.02 203.75L56.08 207.92L57.45 213.68L62.77 215.28ZM78.55 198.63L77.18 192.86L71.86 191.26L67.91 195.42L69.28 201.19L74.60 202.79ZM44.07 198.95L42.69 193.19L37.37 191.59L33.43 195.76L34.81 201.52L40.13 203.12ZM34.81 201.52L33.43 195.76L28.12 194.16L24.18 198.33L25.56 204.09L30.87 205.69ZM46.63 189.02L45.26 183.25L39.94 181.65L35.99 185.82L37.37 191.59L42.69 193.19ZM37.37 191.59L35.99 185.82L30.68 184.23L26.74 188.40L28.12 194.16L33.43 195.76ZM50.76 206.32L49.38 200.55L44.07 198.95L40.13 203.12L41.50 208.88L46.82 210.48ZM41.50 208.88L40.13 203.12L34.81 201.52L30.87 205.69L32.25 211.45L37.56 213.05ZM53.33 196.39L51.95 190.62L46.63 189.02L42.69 193.19L44.07 198.95L49.38 200.55ZM83.71 178.76L82.34 172.98L77.01 171.38L73.06 175.55L74.44 181.32L79.76 182.92ZM74.44 181.32L73.06 175.55L67.74 173.94L63.79 178.11L65.16 183.88L70.49 185.49ZM86.29 168.81L84.92 163.04L79.59 161.43L75.64 165.60L77.01 171.38L82.34 172.98ZM77.01 171.38L75.64 165.60L70.31 164.00L66.36 168.17L67.74 173.94L73.06 175.55ZM90.41 186.13L89.04 180.36L83.71 178.76L79.76 182.92L81.13 188.69L86.45 190.30ZM81.13 188.69L79.76 182.92L74.44 181.32L70.49 185.49L71.86 191.26L77.18 192.86ZM92.99 176.19L91.62 170.42L86.29 168.81L82.34 172.98L83.71 178.76L89.04 180.36ZM58.47 176.51L57.09 170.74L51.77 169.14L47.82 173.31L49.20 179.08L54.52 180.68ZM49.20 179.08L47.82 173.31L42.50 171.72L38.56 175.89L39.94 181.65L45.26 183.25ZM61.04 166.57L59.66 160.80L54.34 159.20L50.39 163.37L51.77 169.14L57.09 170.74ZM51.77 169.14L50.39 163.37L45.07 161.77L41.12 165.95L42.50 171.72L47.82 173.31ZM65.16 183.88L63.79 178.11L58.47 176.51L54.52 180.68L55.90 186.45L61.22 188.05ZM55.90 186.45L54.52 180.68L49.20 179.08L45.26 183.25L46.63 189.02L51.95 190.62ZM67.74 173.94L66.36 168.17L61.04 166.57L57.09 170.74L58.47 176.51L63.79 178.11ZM80.09 225.86L78.72 220.10L73.40 218.49L69.46 222.65L70.83 228.42L76.14 230.02ZM70.83 228.42L69.46 222.65L64.14 221.05L60.20 225.21L61.57 230.97L66.89 232.58ZM82.67 215.94L81.30 210.17L75.98 208.56L72.03 212.73L73.40 218.49L78.72 220.10ZM73.40 218.49L72.03 212.73L66.71 211.12L62.77 215.28L64.14 221.05L69.46 222.65ZM86.78 233.23L85.41 227.47L80.09 225.86L76.14 230.02L77.52 235.79L82.83 237.39ZM77.52 235.79L76.14 230.02L70.83 228.42L66.89 232.58L68.26 238.34L73.57 239.94ZM89.36 223.31L87.99 217.54L82.67 215.94L78.72 220.10L80.09 225.86L85.41 227.47ZM54.88 223.61L53.51 217.84L48.19 216.24L44.25 220.41L45.63 226.17L50.94 227.77ZM45.63 226.17L44.25 220.41L38.94 218.81L35.00 222.97L36.38 228.73L41.69 230.33ZM57.45 213.68L56.08 207.92L50.76 206.32L46.82 210.48L48.19 216.24L53.51 217.84ZM48.19 216.24L46.82 210.48L41.50 208.88L37.56 213.05L38.94 218.81L44.25 220.41ZM61.57 230.97L60.20 225.21L54.88 223.61L50.94 227.77L52.32 233.53L57.63 235.13ZM52.32 233.53L50.94 227.77L45.63 226.17L41.69 230.33L43.07 236.09L48.38 237.69ZM64.14 221.05L62.77 215.28L57.45 213.68L53.51 217.84L54.88 223.61L60.20 225.21ZM94.52 203.45L93.15 197.68L87.83 196.07L83.87 200.24L85.25 206.01L90.57 207.61ZM85.25 206.01L83.87 200.24L78.55 198.63L74.60 202.79L75.98 208.56L81.30 210.17ZM97.10 193.51L95.73 187.74L90.41 186.13L86.45 190.30L87.83 196.07L93.15 197.68ZM87.83 196.07L86.45 190.30L81.13 188.69L77.18 192.86L78.55 198.63L83.87 200.24ZM101.21 210.83L99.84 205.06L94.52 203.45L90.57 207.61L91.94 213.38L97.26 214.99ZM91.94 213.38L90.57 207.61L85.25 206.01L81.30 210.17L82.67 215.94L87.99 217.54ZM103.80 200.90L102.43 195.12L97.10 193.51L93.15 197.68L94.52 203.45L99.84 205.06ZM4.52 219.16L3.14 213.40L-2.17 211.81L-6.10 215.98L-4.72 221.73L0.59 223.32ZM7.07 209.24L5.69 203.48L0.37 201.89L-3.56 206.05L-2.17 211.81L3.14 213.40ZM11.21 226.51L9.83 220.75L4.52 219.16L0.59 223.32L1.97 229.08L7.28 230.67ZM1.97 229.08L0.59 223.32L-4.72 221.73L-8.65 225.90L-7.26 231.65L-1.96 233.24ZM13.76 216.59L12.38 210.83L7.07 209.24L3.14 213.40L4.52 219.16L9.83 220.75ZM18.86 196.73L17.48 190.97L12.17 189.38L8.24 193.55L9.62 199.31L14.93 200.90ZM9.62 199.31L8.24 193.55L2.92 191.96L-1.01 196.13L0.37 201.89L5.69 203.48ZM21.42 186.80L20.04 181.04L14.72 179.45L10.79 183.62L12.17 189.38L17.48 190.97ZM12.17 189.38L10.79 183.62L5.47 182.03L1.54 186.20L2.92 191.96L8.24 193.55ZM25.56 204.09L24.18 198.33L18.86 196.73L14.93 200.90L16.31 206.66L21.62 208.26ZM16.31 206.66L14.93 200.90L9.62 199.31L5.69 203.48L7.07 209.24L12.38 210.83ZM28.12 194.16L26.74 188.40L21.42 186.80L17.48 190.97L18.86 196.73L24.18 198.33ZM0.37 201.89L-1.01 196.13L-6.32 194.54L-10.25 198.71L-8.87 204.46L-3.56 206.05ZM2.92 191.96L1.54 186.20L-3.77 184.61L-7.70 188.78L-6.32 194.54L-1.01 196.13ZM15.34 243.78L13.96 238.02L8.66 236.43L4.73 240.59L6.11 246.34L11.42 247.93ZM6.11 246.34L4.73 240.59L-0.58 239.00L-4.50 243.16L-3.12 248.91L2.18 250.50ZM17.89 233.86L16.52 228.10L11.21 226.51L7.28 230.67L8.66 236.43L13.96 238.02ZM8.66 236.43L7.28 230.67L1.97 229.08L-1.96 233.24L-0.58 239.00L4.73 240.59ZM22.03 251.13L20.65 245.37L15.34 243.78L11.42 247.93L12.79 253.69L18.10 255.28ZM12.79 253.69L11.42 247.93L6.11 246.34L2.18 250.50L3.56 256.25L8.87 257.85ZM24.58 241.21L23.20 235.46L17.89 233.86L13.96 238.02L15.34 243.78L20.65 245.37ZM29.69 221.37L28.31 215.61L23.00 214.02L19.07 218.18L20.45 223.94L25.76 225.54ZM20.45 223.94L19.07 218.18L13.76 216.59L9.83 220.75L11.21 226.51L16.52 228.10ZM32.25 211.45L30.87 205.69L25.56 204.09L21.62 208.26L23.00 214.02L28.31 215.61ZM23.00 214.02L21.62 208.26L16.31 206.66L12.38 210.83L13.76 216.59L19.07 218.18ZM36.38 228.73L35.00 222.97L29.69 221.37L25.76 225.54L27.14 231.29L32.45 232.89ZM27.14 231.29L25.76 225.54L20.45 223.94L16.52 228.10L17.89 233.86L23.20 235.46ZM38.94 218.81L37.56 213.05L32.25 211.45L28.31 215.61L29.69 221.37L35.00 222.97ZM87.34 131.58L85.97 125.80L80.63 124.19L76.68 128.37L78.05 134.15L83.38 135.75ZM78.05 134.15L76.68 128.37L71.34 126.77L67.39 130.95L68.77 136.73L74.10 138.33ZM89.93 121.62L88.55 115.84L83.22 114.23L79.26 118.41L80.63 124.19L85.97 125.80ZM80.63 124.19L79.26 118.41L73.93 116.81L69.97 120.99L71.34 126.77L76.68 128.37ZM94.05 138.96L92.67 133.18L87.34 131.58L83.38 135.75L84.76 141.53L90.09 143.14ZM84.76 141.53L83.38 135.75L78.05 134.15L74.10 138.33L75.47 144.11L80.80 145.71ZM96.64 129.01L95.26 123.22L89.93 121.62L85.97 125.80L87.34 131.58L92.67 133.18ZM62.06 129.35L60.68 123.57L55.35 121.97L51.40 126.15L52.78 131.93L58.11 133.53ZM52.78 131.93L51.40 126.15L46.07 124.55L42.12 128.73L43.50 134.51L48.83 136.11ZM64.64 119.39L63.26 113.61L57.93 112.01L53.97 116.19L55.35 121.97L60.68 123.57ZM55.35 121.97L53.97 116.19L48.64 114.60L44.69 118.78L46.07 124.55L51.40 126.15ZM68.77 136.73L67.39 130.95L62.06 129.35L58.11 133.53L59.48 139.30L64.81 140.90ZM59.48 139.30L58.11 133.53L52.78 131.93L48.83 136.11L50.21 141.88L55.53 143.48ZM71.34 126.77L69.97 120.99L64.64 119.39L60.68 123.57L62.06 129.35L67.39 130.95ZM101.82 109.08L100.44 103.30L95.11 101.69L91.14 105.87L92.52 111.66L97.85 113.26ZM92.52 111.66L91.14 105.87L85.81 104.27L81.84 108.45L83.22 114.23L88.55 115.84ZM104.41 99.12L103.04 93.33L97.70 91.72L93.73 95.91L95.11 101.69L100.44 103.30ZM95.11 101.69L93.73 95.91L88.39 94.30L84.43 98.49L85.81 104.27L91.14 105.87ZM108.53 116.48L107.16 110.69L101.82 109.08L97.85 113.26L99.23 119.05L104.56 120.65ZM99.23 119.05L97.85 113.26L92.52 111.66L88.55 115.84L89.93 121.62L95.26 123.22ZM111.12 106.51L109.75 100.72L104.41 99.12L100.44 103.30L101.82 109.08L107.16 110.69ZM76.51 106.85L75.13 101.07L69.80 99.47L65.84 103.65L67.22 109.43L72.55 111.03ZM67.22 109.43L65.84 103.65L60.50 102.05L56.55 106.23L57.93 112.01L63.26 113.61ZM79.09 96.88L77.72 91.10L72.38 89.50L68.42 93.68L69.80 99.47L75.13 101.07ZM69.80 99.47L68.42 93.68L63.08 92.08L59.12 96.27L60.50 102.05L65.84 103.65ZM83.22 114.23L81.84 108.45L76.51 106.85L72.55 111.03L73.93 116.81L79.26 118.41ZM73.93 116.81L72.55 111.03L67.22 109.43L63.26 113.61L64.64 119.39L69.97 120.99ZM85.81 104.27L84.43 98.49L79.09 96.88L75.13 101.07L76.51 106.85L81.84 108.45ZM98.16 156.30L96.79 150.52L91.46 148.92L87.50 153.09L88.88 158.87L94.20 160.47ZM88.88 158.87L87.50 153.09L82.17 151.49L78.22 155.66L79.59 161.43L84.92 163.04ZM100.75 146.35L99.38 140.57L94.05 138.96L90.09 143.14L91.46 148.92L96.79 150.52ZM91.46 148.92L90.09 143.14L84.76 141.53L80.80 145.71L82.17 151.49L87.50 153.09ZM104.86 163.69L103.49 157.91L98.16 156.30L94.20 160.47L95.58 166.25L100.90 167.86ZM95.58 166.25L94.20 160.47L88.88 158.87L84.92 163.04L86.29 168.81L91.62 170.42ZM107.45 153.74L106.08 147.96L100.75 146.35L96.79 150.52L98.16 156.30L103.49 157.91ZM72.89 154.06L71.52 148.28L66.19 146.68L62.24 150.85L63.61 156.63L68.94 158.23ZM63.61 156.63L62.24 150.85L56.91 149.25L52.96 153.43L54.34 159.20L59.66 160.80ZM75.47 144.11L74.10 138.33L68.77 136.73L64.81 140.90L66.19 146.68L71.52 148.28ZM66.19 146.68L64.81 140.90L59.48 139.30L55.53 143.48L56.91 149.25L62.24 150.85ZM79.59 161.43L78.22 155.66L72.89 154.06L68.94 158.23L70.31 164.00L75.64 165.60ZM70.31 164.00L68.94 158.23L63.61 156.63L59.66 160.80L61.04 166.57L66.36 168.17ZM82.17 151.49L80.80 145.71L75.47 144.11L71.52 148.28L72.89 154.06L78.22 155.66ZM112.64 133.83L111.27 128.05L105.93 126.44L101.97 130.61L103.34 136.40L108.68 138.00ZM103.34 136.40L101.97 130.61L96.64 129.01L92.67 133.18L94.05 138.96L99.38 140.57ZM115.24 123.87L113.87 118.08L108.53 116.48L104.56 120.65L105.93 126.44L111.27 128.05ZM105.93 126.44L104.56 120.65L99.23 119.05L95.26 123.22L96.64 129.01L101.97 130.61ZM119.34 141.22L117.98 135.44L112.64 133.83L108.68 138.00L110.05 143.79L115.38 145.39ZM110.05 143.79L108.68 138.00L103.34 136.40L99.38 140.57L100.75 146.35L106.08 147.96ZM121.94 131.26L120.57 125.48L115.24 123.87L111.27 128.05L112.64 133.83L117.98 135.44ZM22.40 149.62L21.01 143.85L15.69 142.26L11.75 146.44L13.13 152.21L18.46 153.80ZM13.13 152.21L11.75 146.44L6.43 144.85L2.49 149.03L3.88 154.79L9.20 156.38ZM24.96 139.68L23.58 133.90L18.25 132.31L14.31 136.49L15.69 142.26L21.01 143.85ZM15.69 142.26L14.31 136.49L8.99 134.90L5.05 139.08L6.43 144.85L11.75 146.44ZM29.10 156.99L27.72 151.22L22.40 149.62L18.46 153.80L19.84 159.57L25.16 161.16ZM19.84 159.57L18.46 153.80L13.13 152.21L9.20 156.38L10.58 162.15L15.90 163.74ZM31.66 147.04L30.28 141.27L24.96 139.68L21.01 143.85L22.40 149.62L27.72 151.22ZM3.88 154.79L2.49 149.03L-2.83 147.44L-6.76 151.62L-5.38 157.38L-0.06 158.97ZM6.43 144.85L5.05 139.08L-0.28 137.49L-4.21 141.67L-2.83 147.44L2.49 149.03ZM36.79 127.14L35.41 121.36L30.08 119.77L26.14 123.95L27.52 129.72L32.85 131.32ZM27.52 129.72L26.14 123.95L20.81 122.36L16.87 126.54L18.25 132.31L23.58 133.90ZM39.36 117.18L37.98 111.41L32.65 109.81L28.70 113.99L30.08 119.77L35.41 121.36ZM30.08 119.77L28.70 113.99L23.37 112.40L19.43 116.59L20.81 122.36L26.14 123.95ZM43.50 134.51L42.12 128.73L36.79 127.14L32.85 131.32L34.23 137.09L39.55 138.69ZM34.23 137.09L32.85 131.32L27.52 129.72L23.58 133.90L24.96 139.68L30.28 141.27ZM46.07 124.55L44.69 118.78L39.36 117.18L35.41 121.36L36.79 127.14L42.12 128.73ZM11.54 124.95L10.16 119.18L4.83 117.59L0.89 121.77L2.28 127.54L7.60 129.13ZM2.28 127.54L0.89 121.77L-4.43 120.18L-8.37 124.37L-6.98 130.14L-1.66 131.72ZM14.10 114.99L12.72 109.22L7.39 107.63L3.45 111.82L4.83 117.59L10.16 119.18ZM4.83 117.59L3.45 111.82L-1.88 110.23L-5.82 114.41L-4.43 120.18L0.89 121.77ZM18.25 132.31L16.87 126.54L11.54 124.95L7.60 129.13L8.99 134.90L14.31 136.49ZM8.99 134.90L7.60 129.13L2.28 127.54L-1.66 131.72L-0.28 137.49L5.05 139.08ZM20.81 122.36L19.43 116.59L14.10 114.99L10.16 119.18L11.54 124.95L16.87 126.54ZM33.24 174.29L31.86 168.52L26.54 166.93L22.60 171.10L23.98 176.87L29.30 178.46ZM23.98 176.87L22.60 171.10L17.28 169.51L13.34 173.68L14.72 179.45L20.04 181.04ZM35.80 164.35L34.42 158.58L29.10 156.99L25.16 161.16L26.54 166.93L31.86 168.52ZM26.54 166.93L25.16 161.16L19.84 159.57L15.90 163.74L17.28 169.51L22.60 171.10ZM39.94 181.65L38.56 175.89L33.24 174.29L29.30 178.46L30.68 184.23L35.99 185.82ZM30.68 184.23L29.30 178.46L23.98 176.87L20.04 181.04L21.42 186.80L26.74 188.40ZM42.50 171.72L41.12 165.95L35.80 164.35L31.86 168.52L33.24 174.29L38.56 175.89ZM8.02 172.09L6.64 166.33L1.32 164.73L-2.61 168.91L-1.23 174.67L4.09 176.26ZM10.58 162.15L9.20 156.38L3.88 154.79L-0.06 158.97L1.32 164.73L6.64 166.33ZM1.32 164.73L-0.06 158.97L-5.38 157.38L-9.31 161.56L-7.93 167.32L-2.61 168.91ZM14.72 179.45L13.34 173.68L8.02 172.09L4.09 176.26L5.47 182.03L10.79 183.62ZM5.47 182.03L4.09 176.26L-1.23 174.67L-5.16 178.85L-3.77 184.61L1.54 186.20ZM17.28 169.51L15.90 163.74L10.58 162.15L6.64 166.33L8.02 172.09L13.34 173.68ZM47.64 151.83L46.26 146.06L40.93 144.46L36.99 148.64L38.37 154.41L43.69 156.00ZM38.37 154.41L36.99 148.64L31.66 147.04L27.72 151.22L29.10 156.99L34.42 158.58ZM50.21 141.88L48.83 136.11L43.50 134.51L39.55 138.69L40.93 144.46L46.26 146.06ZM40.93 144.46L39.55 138.69L34.23 137.09L30.28 141.27L31.66 147.04L36.99 148.64ZM54.34 159.20L52.96 153.43L47.64 151.83L43.69 156.00L45.07 161.77L50.39 163.37ZM45.07 161.77L43.69 156.00L38.37 154.41L34.42 158.58L35.80 164.35L41.12 165.95ZM56.91 149.25L55.53 143.48L50.21 141.88L46.26 146.06L47.64 151.83L52.96 153.43ZM116.10 252.82L114.73 247.05L109.41 245.44L105.46 249.59L106.83 255.36L112.15 256.97ZM106.83 255.36L105.46 249.59L100.15 247.98L96.20 252.14L97.57 257.90L102.88 259.51ZM118.69 242.90L117.32 237.13L112.00 235.52L108.05 239.67L109.41 245.44L114.73 247.05ZM109.41 245.44L108.05 239.67L102.73 238.06L98.78 242.22L100.15 247.98L105.46 249.59ZM122.78 260.20L121.41 254.43L116.10 252.82L112.15 256.97L113.51 262.73L118.83 264.35ZM113.51 262.73L112.15 256.97L106.83 255.36L102.88 259.51L104.25 265.27L109.56 266.89ZM125.37 250.28L124.00 244.51L118.69 242.90L114.73 247.05L116.10 252.82L121.41 254.43ZM90.88 250.53L89.52 244.76L84.20 243.16L80.26 247.31L81.63 253.07L86.94 254.68ZM81.63 253.07L80.26 247.31L74.94 245.71L71.00 249.86L72.37 255.62L77.68 257.23ZM93.46 240.61L92.09 234.84L86.78 233.23L82.83 237.39L84.20 243.16L89.52 244.76ZM84.20 243.16L82.83 237.39L77.52 235.79L73.57 239.94L74.94 245.71L80.26 247.31ZM97.57 257.90L96.20 252.14L90.88 250.53L86.94 254.68L88.31 260.44L93.62 262.05ZM88.31 260.44L86.94 254.68L81.63 253.07L77.68 257.23L79.05 262.99L84.36 264.60ZM100.15 247.98L98.78 242.22L93.46 240.61L89.52 244.76L90.88 250.53L96.20 252.14ZM121.27 232.97L119.91 227.20L114.59 225.59L110.63 229.75L112.00 235.52L117.32 237.13ZM123.87 223.05L122.50 217.27L117.18 215.66L113.22 219.82L114.59 225.59L119.91 227.20ZM105.31 228.14L103.95 222.37L98.63 220.76L94.68 224.92L96.04 230.68L101.36 232.29ZM96.04 230.68L94.68 224.92L89.36 223.31L85.41 227.47L86.78 233.23L92.09 234.84ZM107.90 218.21L106.53 212.44L101.21 210.83L97.26 214.99L98.63 220.76L103.95 222.37ZM98.63 220.76L97.26 214.99L91.94 213.38L87.99 217.54L89.36 223.31L94.68 224.92ZM112.00 235.52L110.63 229.75L105.31 228.14L101.36 232.29L102.73 238.06L108.05 239.67ZM102.73 238.06L101.36 232.29L96.04 230.68L92.09 234.84L93.46 240.61L98.78 242.22ZM114.59 225.59L113.22 219.82L107.90 218.21L103.95 222.37L105.31 228.14L110.63 229.75ZM53.87 260.72L52.50 254.96L47.19 253.36L43.26 257.52L44.63 263.28L49.94 264.88ZM44.63 263.28L43.26 257.52L37.95 255.92L34.02 260.08L35.39 265.83L40.70 267.43ZM28.71 258.48L27.33 252.72L22.03 251.13L18.10 255.28L19.48 261.04L24.78 262.63ZM19.48 261.04L18.10 255.28L12.79 253.69L8.87 257.85L10.25 263.60L15.55 265.19ZM65.69 248.26L64.32 242.50L59.00 240.89L55.06 245.05L56.44 250.81L61.75 252.41ZM56.44 250.81L55.06 245.05L49.75 243.45L45.82 247.61L47.19 253.36L52.50 254.96ZM68.26 238.34L66.89 232.58L61.57 230.97L57.63 235.13L59.00 240.89L64.32 242.50ZM59.00 240.89L57.63 235.13L52.32 233.53L48.38 237.69L49.75 243.45L55.06 245.05ZM72.37 255.62L71.00 249.86L65.69 248.26L61.75 252.41L63.12 258.17L68.43 259.78ZM63.12 258.17L61.75 252.41L56.44 250.81L52.50 254.96L53.87 260.72L59.18 262.33ZM74.94 245.71L73.57 239.94L68.26 238.34L64.32 242.50L65.69 248.26L71.00 249.86ZM40.51 246.01L39.13 240.25L33.82 238.65L29.89 242.81L31.27 248.56L36.57 250.16ZM31.27 248.56L29.89 242.81L24.58 241.21L20.65 245.37L22.03 251.13L27.33 252.72ZM43.07 236.09L41.69 230.33L36.38 228.73L32.45 232.89L33.82 238.65L39.13 240.25ZM33.82 238.65L32.45 232.89L27.14 231.29L23.20 235.46L24.58 241.21L29.89 242.81ZM47.19 253.36L45.82 247.61L40.51 246.01L36.57 250.16L37.95 255.92L43.26 257.52ZM37.95 255.92L36.57 250.16L31.27 248.56L27.33 252.72L28.71 258.48L34.02 260.08ZM49.75 243.45L48.38 237.69L43.07 236.09L39.13 240.25L40.51 246.01L45.82 247.61ZM79.05 262.99L77.68 257.23L72.37 255.62L68.43 259.78L69.80 265.53L75.11 267.14ZM134.25 183.30L132.88 177.52L127.55 175.91L123.59 180.07L124.96 185.85L130.28 187.47ZM124.96 185.85L123.59 180.07L118.26 178.46L114.30 182.63L115.67 188.40L120.99 190.02ZM136.85 173.36L135.48 167.58L130.15 165.96L126.19 170.13L127.55 175.91L132.88 177.52ZM127.55 175.91L126.19 170.13L120.85 168.52L116.89 172.68L118.26 178.46L123.59 180.07ZM131.65 193.24L130.28 187.47L124.96 185.85L120.99 190.02L122.36 195.79L127.69 197.40ZM108.97 181.02L107.60 175.24L102.27 173.63L98.32 177.80L99.69 183.58L105.01 185.18ZM99.69 183.58L98.32 177.80L92.99 176.19L89.04 180.36L90.41 186.13L95.73 187.74ZM111.56 171.07L110.19 165.30L104.86 163.69L100.90 167.86L102.27 173.63L107.60 175.24ZM102.27 173.63L100.90 167.86L95.58 166.25L91.62 170.42L92.99 176.19L98.32 177.80ZM115.67 188.40L114.30 182.63L108.97 181.02L105.01 185.18L106.38 190.96L111.71 192.57ZM106.38 190.96L105.01 185.18L99.69 183.58L95.73 187.74L97.10 193.51L102.43 195.12ZM118.26 178.46L116.89 172.68L111.56 171.07L107.60 175.24L108.97 181.02L114.30 182.63ZM148.75 160.86L147.39 155.07L142.05 153.46L138.08 157.63L139.45 163.41L144.78 165.02ZM139.45 163.41L138.08 157.63L132.75 156.01L128.78 160.18L130.15 165.96L135.48 167.58ZM142.05 153.46L140.69 147.67L135.35 146.06L131.38 150.23L132.75 156.01L138.08 157.63ZM146.15 170.81L144.78 165.02L139.45 163.41L135.48 167.58L136.85 173.36L142.18 174.97ZM123.45 158.57L122.08 152.79L116.75 151.18L112.79 155.35L114.15 161.13L119.49 162.74ZM114.15 161.13L112.79 155.35L107.45 153.74L103.49 157.91L104.86 163.69L110.19 165.30ZM126.05 148.62L124.68 142.83L119.34 141.22L115.38 145.39L116.75 151.18L122.08 152.79ZM116.75 151.18L115.38 145.39L110.05 143.79L106.08 147.96L107.45 153.74L112.79 155.35ZM130.15 165.96L128.78 160.18L123.45 158.57L119.49 162.74L120.85 168.52L126.19 170.13ZM120.85 168.52L119.49 162.74L114.15 161.13L110.19 165.30L111.56 171.07L116.89 172.68ZM132.75 156.01L131.38 150.23L126.05 148.62L122.08 152.79L123.45 158.57L128.78 160.18ZM135.75 210.57L134.38 204.80L129.05 203.18L125.09 207.34L126.46 213.11L131.78 214.73ZM138.34 200.63L136.98 194.86L131.65 193.24L127.69 197.40L129.05 203.18L134.38 204.80ZM119.77 205.73L118.40 199.95L113.08 198.34L109.12 202.51L110.49 208.28L115.81 209.89ZM110.49 208.28L109.12 202.51L103.80 200.90L99.84 205.06L101.21 210.83L106.53 212.44ZM122.36 195.79L120.99 190.02L115.67 188.40L111.71 192.57L113.08 198.34L118.40 199.95ZM113.08 198.34L111.71 192.57L106.38 190.96L102.43 195.12L103.80 200.90L109.12 202.51ZM126.46 213.11L125.09 207.34L119.77 205.73L115.81 209.89L117.18 215.66L122.50 217.27ZM117.18 215.66L115.81 209.89L110.49 208.28L106.53 212.44L107.90 218.21L113.22 219.82ZM129.05 203.18L127.69 197.40L122.36 195.79L118.40 199.95L119.77 205.73L125.09 207.34ZM170.81 43.75L169.44 37.95L164.08 36.33L160.09 40.52L161.46 46.33L166.82 47.94ZM161.46 46.33L160.09 40.52L154.74 38.91L150.75 43.10L152.12 48.90L157.47 50.51ZM173.43 33.76L172.06 27.95L166.70 26.34L162.71 30.53L164.08 36.33L169.44 37.95ZM164.08 36.33L162.71 30.53L157.36 28.92L153.37 33.11L154.74 38.91L160.09 40.52ZM168.18 53.75L166.82 47.94L161.46 46.33L157.47 50.51L158.84 56.32L164.20 57.93ZM180.15 41.18L178.79 35.38L173.43 33.76L169.44 37.95L170.81 43.75L176.16 45.37ZM145.40 41.49L144.03 35.69L138.67 34.07L134.69 38.27L136.06 44.07L141.42 45.68ZM136.06 44.07L134.69 38.27L129.34 36.66L125.36 40.85L126.73 46.65L132.08 48.26ZM148.01 31.49L146.64 25.69L141.29 24.08L137.30 28.27L138.67 34.07L144.03 35.69ZM138.67 34.07L137.30 28.27L131.95 26.66L127.97 30.86L129.34 36.66L134.69 38.27ZM152.12 48.90L150.75 43.10L145.40 41.49L141.42 45.68L142.79 51.48L148.14 53.09ZM142.79 51.48L141.42 45.68L136.06 44.07L132.08 48.26L133.45 54.05L138.80 55.66ZM154.74 38.91L153.37 33.11L148.01 31.49L144.03 35.69L145.40 41.49L150.75 43.10ZM185.41 21.19L184.04 15.38L178.68 13.76L174.69 17.96L176.06 23.76L181.42 25.38ZM176.06 23.76L174.69 17.96L169.33 16.34L165.34 20.53L166.70 26.34L172.06 27.95ZM178.68 13.76L177.32 7.95L171.95 6.34L167.96 10.53L169.33 16.34L174.69 17.96ZM182.78 31.19L181.42 25.38L176.06 23.76L172.06 27.95L173.43 33.76L178.79 35.38ZM159.98 18.92L158.61 13.11L153.25 11.50L149.26 15.69L150.63 21.50L155.99 23.11ZM150.63 21.50L149.26 15.69L143.90 14.08L139.92 18.28L141.29 24.08L146.64 25.69ZM162.60 8.92L161.23 3.11L155.87 1.50L151.88 5.69L153.25 11.50L158.61 13.11ZM153.25 11.50L151.88 5.69L146.52 4.08L142.53 8.28L143.90 14.08L149.26 15.69ZM166.70 26.34L165.34 20.53L159.98 18.92L155.99 23.11L157.36 28.92L162.71 30.53ZM157.36 28.92L155.99 23.11L150.63 21.50L146.64 25.69L148.01 31.49L153.37 33.11ZM169.33 16.34L167.96 10.53L162.60 8.92L158.61 13.11L159.98 18.92L165.34 20.53ZM172.28 71.15L170.91 65.35L165.56 63.73L161.58 67.92L162.94 73.72L168.29 75.33ZM174.90 61.16L173.54 55.36L168.18 53.75L164.20 57.93L165.56 63.73L170.91 65.35ZM156.23 66.30L154.86 60.50L149.51 58.89L145.52 63.07L146.89 68.87L152.24 70.49ZM146.89 68.87L145.52 63.07L140.17 61.46L136.19 65.65L137.56 71.44L142.91 73.06ZM158.84 56.32L157.47 50.51L152.12 48.90L148.14 53.09L149.51 58.89L154.86 60.50ZM149.51 58.89L148.14 53.09L142.79 51.48L138.80 55.66L140.17 61.46L145.52 63.07ZM162.94 73.72L161.58 67.92L156.23 66.30L152.24 70.49L153.61 76.28L158.96 77.90ZM153.61 76.28L152.24 70.49L146.89 68.87L142.91 73.06L144.28 78.85L149.63 80.47ZM165.56 63.73L164.20 57.93L158.84 56.32L154.86 60.50L156.23 66.30L161.58 67.92ZM105.48 61.80L104.11 56.00L98.76 54.40L94.79 58.59L96.17 64.38L101.51 65.98ZM96.17 64.38L94.79 58.59L89.45 56.98L85.48 61.17L86.86 66.96L92.20 68.57ZM108.08 51.81L106.71 46.02L101.36 44.41L97.39 48.60L98.76 54.40L104.11 56.00ZM98.76 54.40L97.39 48.60L92.04 47.00L88.07 51.19L89.45 56.98L94.79 58.59ZM112.20 69.19L110.83 63.40L105.48 61.80L101.51 65.98L102.89 71.77L108.23 73.38ZM102.89 71.77L101.51 65.98L96.17 64.38L92.20 68.57L93.57 74.36L98.92 75.96ZM114.80 59.21L113.43 53.42L108.08 51.81L104.11 56.00L105.48 61.80L110.83 63.40ZM80.14 59.57L78.76 53.78L73.41 52.18L69.45 56.37L70.83 62.16L76.17 63.76ZM70.83 62.16L69.45 56.37L64.11 54.78L60.15 58.97L61.53 64.76L66.87 66.35ZM82.72 49.59L81.35 43.80L76.00 42.20L72.04 46.39L73.41 52.18L78.76 53.78ZM73.41 52.18L72.04 46.39L66.69 44.79L62.73 48.99L64.11 54.78L69.45 56.37ZM86.86 66.96L85.48 61.17L80.14 59.57L76.17 63.76L77.55 69.55L82.89 71.15ZM77.55 69.55L76.17 63.76L70.83 62.16L66.87 66.35L68.24 72.14L73.58 73.74ZM89.45 56.98L88.07 51.19L82.72 49.59L78.76 53.78L80.14 59.57L85.48 61.17ZM120.01 39.24L118.64 33.44L113.28 31.84L109.31 36.03L110.68 41.83L116.03 43.43ZM110.68 41.83L109.31 36.03L103.96 34.42L99.98 38.62L101.36 44.41L106.71 46.02ZM122.61 29.25L121.24 23.45L115.89 21.84L111.91 26.04L113.28 31.84L118.64 33.44ZM113.28 31.84L111.91 26.04L106.56 24.43L102.58 28.63L103.96 34.42L109.31 36.03ZM126.73 46.65L125.36 40.85L120.01 39.24L116.03 43.43L117.40 49.23L122.75 50.84ZM117.40 49.23L116.03 43.43L110.68 41.83L106.71 46.02L108.08 51.81L113.43 53.42ZM129.34 36.66L127.97 30.86L122.61 29.25L118.64 33.44L120.01 39.24L125.36 40.85ZM94.63 37.01L93.26 31.22L87.91 29.62L83.94 33.81L85.32 39.61L90.66 41.21ZM85.32 39.61L83.94 33.81L78.59 32.21L74.62 36.41L76.00 42.20L81.35 43.80ZM97.23 27.02L95.85 21.23L90.50 19.62L86.53 23.82L87.91 29.62L93.26 31.22ZM87.91 29.62L86.53 23.82L81.18 22.22L77.21 26.42L78.59 32.21L83.94 33.81ZM101.36 44.41L99.98 38.62L94.63 37.01L90.66 41.21L92.04 47.00L97.39 48.60ZM92.04 47.00L90.66 41.21L85.32 39.61L81.35 43.80L82.72 49.59L88.07 51.19ZM103.96 34.42L102.58 28.63L97.23 27.02L93.26 31.22L94.63 37.01L99.98 38.62ZM116.32 86.57L114.95 80.78L109.60 79.17L105.63 83.36L107.01 89.15L112.35 90.75ZM107.01 89.15L105.63 83.36L100.29 81.75L96.32 85.94L97.70 91.72L103.04 93.33ZM118.92 76.59L117.55 70.80L112.20 69.19L108.23 73.38L109.60 79.17L114.95 80.78ZM109.60 79.17L108.23 73.38L102.89 71.77L98.92 75.96L100.29 81.75L105.63 83.36ZM123.03 93.97L121.66 88.18L116.32 86.57L112.35 90.75L113.72 96.54L119.06 98.15ZM113.72 96.54L112.35 90.75L107.01 89.15L103.04 93.33L104.41 99.12L109.75 100.72ZM125.64 84.00L124.26 78.20L118.92 76.59L114.95 80.78L116.32 86.57L121.66 88.18ZM90.98 84.33L89.61 78.54L84.27 76.94L80.30 81.13L81.68 86.91L87.02 88.52ZM81.68 86.91L80.30 81.13L74.96 79.53L71.00 83.71L72.38 89.50L77.72 91.10ZM93.57 74.36L92.20 68.57L86.86 66.96L82.89 71.15L84.27 76.94L89.61 78.54ZM84.27 76.94L82.89 71.15L77.55 69.55L73.58 73.74L74.96 79.53L80.30 81.13ZM97.70 91.72L96.32 85.94L90.98 84.33L87.02 88.52L88.39 94.30L93.73 95.91ZM88.39 94.30L87.02 88.52L81.68 86.91L77.72 91.10L79.09 96.88L84.43 98.49ZM100.29 81.75L98.92 75.96L93.57 74.36L89.61 78.54L90.98 84.33L96.32 85.94ZM130.85 64.04L129.48 58.24L124.13 56.63L120.15 60.82L121.52 66.62L126.87 68.22ZM121.52 66.62L120.15 60.82L114.80 59.21L110.83 63.40L112.20 69.19L117.55 70.80ZM133.45 54.05L132.08 48.26L126.73 46.65L122.75 50.84L124.13 56.63L129.48 58.24ZM124.13 56.63L122.75 50.84L117.40 49.23L113.43 53.42L114.80 59.21L120.15 60.82ZM137.56 71.44L136.19 65.65L130.85 64.04L126.87 68.22L128.24 74.02L133.59 75.63ZM128.24 74.02L126.87 68.22L121.52 66.62L117.55 70.80L118.92 76.59L124.26 78.20ZM140.17 61.46L138.80 55.66L133.45 54.05L129.48 58.24L130.85 64.04L136.19 65.65ZM190.68 1.18L189.31 -4.63L183.94 -6.25L179.95 -2.05L181.31 3.76L186.68 5.38ZM174.58 -3.67L173.21 -9.48L167.85 -11.10L163.85 -6.90L165.22 -1.09L170.59 0.53ZM165.22 -1.09L163.85 -6.90L158.49 -8.51L154.50 -4.31L155.87 1.50L161.23 3.11ZM181.31 3.76L179.95 -2.05L174.58 -3.67L170.59 0.53L171.95 6.34L177.32 7.95ZM171.95 6.34L170.59 0.53L165.22 -1.09L161.23 3.11L162.60 8.92L167.96 10.53ZM130.44 -0.75L129.07 -6.55L123.71 -8.16L119.73 -3.96L121.10 1.84L126.46 3.45ZM121.10 1.84L119.73 -3.96L114.37 -5.56L110.39 -1.37L111.76 4.44L117.12 6.04ZM105.03 -2.97L103.65 -8.77L98.30 -10.37L94.32 -6.17L95.70 -0.37L101.05 1.23ZM95.70 -0.37L94.32 -6.17L88.96 -7.77L84.99 -3.57L86.37 2.23L91.72 3.83ZM134.56 16.67L133.19 10.86L127.83 9.26L123.85 13.45L125.22 19.25L130.58 20.86ZM125.22 19.25L123.85 13.45L118.49 11.85L114.51 16.04L115.89 21.84L121.24 23.45ZM137.17 6.67L135.80 0.86L130.44 -0.75L126.46 3.45L127.83 9.26L133.19 10.86ZM127.83 9.26L126.46 3.45L121.10 1.84L117.12 6.04L118.49 11.85L123.85 13.45ZM141.29 24.08L139.92 18.28L134.56 16.67L130.58 20.86L131.95 26.66L137.30 28.27ZM131.95 26.66L130.58 20.86L125.22 19.25L121.24 23.45L122.61 29.25L127.97 30.86ZM143.90 14.08L142.53 8.28L137.17 6.67L133.19 10.86L134.56 16.67L139.92 18.28ZM109.16 14.44L107.78 8.64L102.43 7.03L98.45 11.23L99.83 17.03L105.18 18.63ZM99.83 17.03L98.45 11.23L93.10 9.63L89.13 13.83L90.50 19.62L95.85 21.23ZM111.76 4.44L110.39 -1.37L105.03 -2.97L101.05 1.23L102.43 7.03L107.78 8.64ZM102.43 7.03L101.05 1.23L95.70 -0.37L91.72 3.83L93.10 9.63L98.45 11.23ZM115.89 21.84L114.51 16.04L109.16 14.44L105.18 18.63L106.56 24.43L111.91 26.04ZM106.56 24.43L105.18 18.63L99.83 17.03L95.85 21.23L97.23 27.02L102.58 28.63ZM118.49 11.85L117.12 6.04L111.76 4.44L107.78 8.64L109.16 14.44L114.51 16.04ZM139.79 -3.34L138.41 -9.14L133.05 -10.75L129.07 -6.55L130.44 -0.75L135.80 0.86ZM155.87 1.50L154.50 -4.31L149.14 -5.92L145.15 -1.73L146.52 4.08L151.88 5.69ZM146.52 4.08L145.15 -1.73L139.79 -3.34L135.80 0.86L137.17 6.67L142.53 8.28ZM152.48 113.61L151.12 107.82L145.77 106.21L141.80 110.38L143.17 116.17L148.51 117.79ZM143.17 116.17L141.80 110.38L136.46 108.77L132.48 112.95L133.85 118.74L139.19 120.35ZM155.10 103.64L153.73 97.85L148.38 96.24L144.41 100.42L145.77 106.21L151.12 107.82ZM145.77 106.21L144.41 100.42L139.06 98.80L135.09 102.98L136.46 108.77L141.80 110.38ZM159.19 121.02L157.83 115.23L152.48 113.61L148.51 117.79L149.87 123.58L155.22 125.20ZM149.87 123.58L148.51 117.79L143.17 116.17L139.19 120.35L140.56 126.14L145.90 127.75ZM161.81 111.05L160.44 105.26L155.10 103.64L151.12 107.82L152.48 113.61L157.83 115.23ZM127.14 111.34L125.77 105.55L120.43 103.94L116.46 108.12L117.83 113.91L123.17 115.52ZM117.83 113.91L116.46 108.12L111.12 106.51L107.16 110.69L108.53 116.48L113.87 118.08ZM129.75 101.37L128.38 95.58L123.03 93.97L119.06 98.15L120.43 103.94L125.77 105.55ZM120.43 103.94L119.06 98.15L113.72 96.54L109.75 100.72L111.12 106.51L116.46 108.12ZM133.85 118.74L132.48 112.95L127.14 111.34L123.17 115.52L124.54 121.30L129.88 122.91ZM124.54 121.30L123.17 115.52L117.83 113.91L113.87 118.08L115.24 123.87L120.57 125.48ZM136.46 108.77L135.09 102.98L129.75 101.37L125.77 105.55L127.14 111.34L132.48 112.95ZM167.04 91.11L165.67 85.31L160.33 83.69L156.34 87.88L157.71 93.67L163.06 95.29ZM157.71 93.67L156.34 87.88L151.00 86.26L147.02 90.44L148.38 96.24L153.73 97.85ZM169.66 81.13L168.29 75.33L162.94 73.72L158.96 77.90L160.33 83.69L165.67 85.31ZM160.33 83.69L158.96 77.90L153.61 76.28L149.63 80.47L151.00 86.26L156.34 87.88ZM141.67 88.83L140.30 83.03L134.96 81.42L130.98 85.61L132.35 91.40L137.69 93.01ZM132.35 91.40L130.98 85.61L125.64 84.00L121.66 88.18L123.03 93.97L128.38 95.58ZM144.28 78.85L142.91 73.06L137.56 71.44L133.59 75.63L134.96 81.42L140.30 83.03ZM134.96 81.42L133.59 75.63L128.24 74.02L124.26 78.20L125.64 84.00L130.98 85.61ZM148.38 96.24L147.02 90.44L141.67 88.83L137.69 93.01L139.06 98.80L144.41 100.42ZM139.06 98.80L137.69 93.01L132.35 91.40L128.38 95.58L129.75 101.37L135.09 102.98ZM151.00 86.26L149.63 80.47L144.28 78.85L140.30 83.03L141.67 88.83L147.02 90.44ZM153.97 140.95L152.61 135.16L147.27 133.54L143.29 137.71L144.66 143.50L150.00 145.12ZM156.58 130.98L155.22 125.20L149.87 123.58L145.90 127.75L147.27 133.54L152.61 135.16ZM137.95 136.10L136.59 130.31L131.25 128.70L127.28 132.88L128.65 138.66L133.98 140.27ZM128.65 138.66L127.28 132.88L121.94 131.26L117.98 135.44L119.34 141.22L124.68 142.83ZM140.56 126.14L139.19 120.35L133.85 118.74L129.88 122.91L131.25 128.70L136.59 130.31ZM131.25 128.70L129.88 122.91L124.54 121.30L120.57 125.48L121.94 131.26L127.28 132.88ZM144.66 143.50L143.29 137.71L137.95 136.10L133.98 140.27L135.35 146.06L140.69 147.67ZM135.35 146.06L133.98 140.27L128.65 138.66L124.68 142.83L126.05 148.62L131.38 150.23ZM147.27 133.54L145.90 127.75L140.56 126.14L136.59 130.31L137.95 136.10L143.29 137.71Z"/><path data-band="3" fill="#dc2626" fill-opacity="0.35" d="M257.90 75.56L256.55 69.75L251.19 68.12L247.18 72.30L248.54 78.11L253.90 79.74ZM248.54 78.11L247.18 72.30L241.82 70.67L237.82 74.84L239.17 80.65L244.53 82.28ZM260.56 65.57L259.20 59.76L253.84 58.13L249.83 62.31L251.19 68.12L256.55 69.75ZM251.19 68.12L249.83 62.31L244.47 60.68L240.46 64.86L241.82 70.67L247.18 72.30ZM264.62 83.01L263.26 77.19L257.90 75.56L253.90 79.74L255.25 85.55L260.61 87.18ZM255.25 85.55L253.90 79.74L248.54 78.11L244.53 82.28L245.89 88.09L251.24 89.72ZM263.21 55.58L261.86 49.76L256.49 48.13L252.48 52.31L253.84 58.13L259.20 59.76ZM265.87 45.58L264.52 39.77L259.15 38.13L255.14 42.32L256.49 48.13L261.86 49.76ZM259.31 102.97L257.96 97.16L252.60 95.53L248.60 99.70L249.95 105.51L255.31 107.14ZM261.96 92.99L260.61 87.18L255.25 85.55L251.24 89.72L252.60 95.53L257.96 97.16ZM266.02 110.41L264.67 104.60L259.31 102.97L255.31 107.14L256.66 112.95L262.01 114.58ZM130.55 230.43L129.19 224.66L123.87 223.05L119.91 227.20L121.27 232.97L126.60 234.59ZM133.15 220.50L131.78 214.73L126.46 213.11L122.50 217.27L123.87 223.05L129.19 224.66ZM137.24 237.82L135.88 232.05L130.55 230.43L126.60 234.59L127.96 240.36L133.28 241.97ZM127.96 240.36L126.60 234.59L121.27 232.97L117.32 237.13L118.69 242.90L124.00 244.51ZM139.84 227.89L138.47 222.12L133.15 220.50L129.19 224.66L130.55 230.43L135.88 232.05ZM141.33 255.13L139.96 249.36L134.64 247.74L130.69 251.89L132.05 257.66L137.37 259.28ZM132.05 257.66L130.69 251.89L125.37 250.28L121.41 254.43L122.78 260.20L128.10 261.81ZM143.92 245.21L142.56 239.44L137.24 237.82L133.28 241.97L134.64 247.74L139.96 249.36ZM134.64 247.74L133.28 241.97L127.96 240.36L124.00 244.51L125.37 250.28L130.69 251.89ZM148.01 262.52L146.65 256.75L141.33 255.13L137.37 259.28L138.73 265.05L144.05 266.67ZM150.61 252.60L149.24 246.83L143.92 245.21L139.96 249.36L141.33 255.13L146.65 256.75ZM140.94 190.69L139.58 184.92L134.25 183.30L130.28 187.47L131.65 193.24L136.98 194.86ZM143.55 180.75L142.18 174.97L136.85 173.36L132.88 177.52L134.25 183.30L139.58 184.92ZM151.36 150.90L150.00 145.12L144.66 143.50L140.69 147.67L142.05 153.46L147.39 155.07ZM155.45 168.26L154.09 162.47L148.75 160.86L144.78 165.02L146.15 170.81L151.48 172.42ZM158.06 158.30L156.70 152.52L151.36 150.90L147.39 155.07L148.75 160.86L154.09 162.47ZM145.03 208.03L143.67 202.25L138.34 200.63L134.38 204.80L135.75 210.57L141.07 212.19ZM147.64 198.09L146.27 192.31L140.94 190.69L136.98 194.86L138.34 200.63L143.67 202.25ZM151.72 215.42L150.36 209.65L145.03 208.03L141.07 212.19L142.43 217.96L147.76 219.58ZM142.43 217.96L141.07 212.19L135.75 210.57L131.78 214.73L133.15 220.50L138.47 222.12ZM154.33 205.49L152.97 199.71L147.64 198.09L143.67 202.25L145.03 208.03L150.36 209.65ZM159.54 185.60L158.18 179.82L152.85 178.20L148.88 182.37L150.24 188.15L155.57 189.77ZM150.24 188.15L148.88 182.37L143.55 180.75L139.58 184.92L140.94 190.69L146.27 192.31ZM162.15 175.66L160.79 169.87L155.45 168.26L151.48 172.42L152.85 178.20L158.18 179.82ZM152.85 178.20L151.48 172.42L146.15 170.81L142.18 174.97L143.55 180.75L148.88 182.37ZM166.24 193.01L164.87 187.22L159.54 185.60L155.57 189.77L156.93 195.55L162.27 197.17ZM156.93 195.55L155.57 189.77L150.24 188.15L146.27 192.31L147.64 198.09L152.97 199.71ZM168.85 183.06L167.49 177.28L162.15 175.66L158.18 179.82L159.54 185.60L164.87 187.22ZM177.53 51.18L176.16 45.37L170.81 43.75L166.82 47.94L168.18 53.75L173.54 55.36ZM188.04 11.19L186.68 5.38L181.31 3.76L177.32 7.95L178.68 13.76L184.04 15.38ZM192.14 28.62L190.77 22.81L185.41 21.19L181.42 25.38L182.78 31.19L188.14 32.81ZM194.77 18.62L193.41 12.81L188.04 11.19L184.04 15.38L185.41 21.19L190.77 22.81ZM181.62 68.58L180.26 62.78L174.90 61.16L170.91 65.35L172.28 71.15L177.63 72.77ZM184.25 58.60L182.88 52.79L177.53 51.18L173.54 55.36L174.90 61.16L180.26 62.78ZM188.34 76.01L186.97 70.20L181.62 68.58L177.63 72.77L179.00 78.57L184.35 80.19ZM179.00 78.57L177.63 72.77L172.28 71.15L168.29 75.33L169.66 81.13L175.01 82.75ZM190.97 66.02L189.60 60.22L184.25 58.60L180.26 62.78L181.62 68.58L186.97 70.20ZM196.23 46.04L194.86 40.24L189.50 38.62L185.51 42.80L186.88 48.61L192.23 50.23ZM186.88 48.61L185.51 42.80L180.15 41.18L176.16 45.37L177.53 51.18L182.88 52.79ZM198.86 36.05L197.50 30.24L192.14 28.62L188.14 32.81L189.50 38.62L194.86 40.24ZM189.50 38.62L188.14 32.81L182.78 31.19L178.79 35.38L180.15 41.18L185.51 42.80ZM202.95 53.47L201.59 47.66L196.23 46.04L192.23 50.23L193.60 56.03L198.95 57.66ZM193.60 56.03L192.23 50.23L186.88 48.61L182.88 52.79L184.25 58.60L189.60 60.22ZM205.58 43.48L204.22 37.67L198.86 36.05L194.86 40.24L196.23 46.04L201.59 47.66ZM200.04 -1.39L198.68 -7.21L193.31 -8.83L189.31 -4.63L190.68 1.18L196.04 2.80ZM206.77 6.04L205.41 0.23L200.04 -1.39L196.04 2.80L197.41 8.61L202.77 10.24ZM197.41 8.61L196.04 2.80L190.68 1.18L186.68 5.38L188.04 11.19L193.41 12.81ZM209.41 -3.97L208.05 -9.78L202.68 -11.40L198.68 -7.21L200.04 -1.39L205.41 0.23ZM217.82 95.73L216.47 89.93L211.11 88.30L207.12 92.48L208.48 98.28L213.83 99.90ZM208.48 98.28L207.12 92.48L201.77 90.85L197.77 95.03L199.14 100.83L204.49 102.45ZM220.46 85.75L219.10 79.94L213.75 78.32L209.75 82.50L211.11 88.30L216.47 89.93ZM211.11 88.30L209.75 82.50L204.40 80.87L200.41 85.05L201.77 90.85L207.12 92.48ZM224.53 103.16L223.18 97.36L217.82 95.73L213.83 99.90L215.19 105.71L220.54 107.33ZM215.19 105.71L213.83 99.90L208.48 98.28L204.49 102.45L205.85 108.25L211.20 109.88ZM227.17 93.18L225.82 87.38L220.46 85.75L216.47 89.93L217.82 95.73L223.18 97.36ZM192.42 93.41L191.06 87.61L185.71 85.99L181.72 90.17L183.09 95.96L188.44 97.59ZM183.09 95.96L181.72 90.17L176.37 88.55L172.39 92.73L173.75 98.52L179.10 100.14ZM195.05 83.43L193.69 77.63L188.34 76.01L184.35 80.19L185.71 85.99L191.06 87.61ZM185.71 85.99L184.35 80.19L179.00 78.57L175.01 82.75L176.37 88.55L181.72 90.17ZM199.14 100.83L197.77 95.03L192.42 93.41L188.44 97.59L189.80 103.38L195.15 105.01ZM189.80 103.38L188.44 97.59L183.09 95.96L179.10 100.14L180.46 105.94L185.81 107.56ZM201.77 90.85L200.41 85.05L195.05 83.43L191.06 87.61L192.42 93.41L197.77 95.03ZM232.46 73.21L231.10 67.41L225.74 65.78L221.74 69.96L223.10 75.77L228.46 77.39ZM223.10 75.77L221.74 69.96L216.39 68.33L212.39 72.51L213.75 78.32L219.10 79.94ZM235.10 63.23L233.75 57.42L228.39 55.79L224.38 59.97L225.74 65.78L231.10 67.41ZM225.74 65.78L224.38 59.97L219.02 58.34L215.03 62.53L216.39 68.33L221.74 69.96ZM239.17 80.65L237.82 74.84L232.46 73.21L228.46 77.39L229.82 83.20L235.17 84.83ZM229.82 83.20L228.46 77.39L223.10 75.77L219.10 79.94L220.46 85.75L225.82 87.38ZM241.82 70.67L240.46 64.86L235.10 63.23L231.10 67.41L232.46 73.21L237.82 74.84ZM207.03 70.89L205.67 65.08L200.31 63.46L196.32 67.64L197.68 73.45L203.04 75.07ZM197.68 73.45L196.32 67.64L190.97 66.02L186.97 70.20L188.34 76.01L193.69 77.63ZM209.67 60.90L208.31 55.10L202.95 53.47L198.95 57.66L200.31 63.46L205.67 65.08ZM200.31 63.46L198.95 57.66L193.60 56.03L189.60 60.22L190.97 66.02L196.32 67.64ZM213.75 78.32L212.39 72.51L207.03 70.89L203.04 75.07L204.40 80.87L209.75 82.50ZM204.40 80.87L203.04 75.07L197.68 73.45L193.69 77.63L195.05 83.43L200.41 85.05ZM216.39 68.33L215.03 62.53L209.67 60.90L205.67 65.08L207.03 70.89L212.39 72.51ZM228.60 120.56L227.25 114.76L221.90 113.13L217.90 117.31L219.26 123.10L224.61 124.73ZM219.26 123.10L217.90 117.31L212.55 115.68L208.56 119.85L209.92 125.65L215.27 127.28ZM231.24 110.59L229.89 104.79L224.53 103.16L220.54 107.33L221.90 113.13L227.25 114.76ZM221.90 113.13L220.54 107.33L215.19 105.71L211.20 109.88L212.55 115.68L217.90 117.31ZM235.31 127.99L233.95 122.19L228.60 120.56L224.61 124.73L225.97 130.53L231.32 132.16ZM225.97 130.53L224.61 124.73L219.26 123.10L215.27 127.28L216.63 133.07L221.97 134.70ZM237.95 118.02L236.60 112.22L231.24 110.59L227.25 114.76L228.60 120.56L233.95 122.19ZM203.22 118.23L201.86 112.43L196.51 110.80L192.52 114.98L193.88 120.77L199.23 122.40ZM193.88 120.77L192.52 114.98L187.17 113.36L183.19 117.53L184.55 123.32L189.89 124.95ZM205.85 108.25L204.49 102.45L199.14 100.83L195.15 105.01L196.51 110.80L201.86 112.43ZM196.51 110.80L195.15 105.01L189.80 103.38L185.81 107.56L187.17 113.36L192.52 114.98ZM209.92 125.65L208.56 119.85L203.22 118.23L199.23 122.40L200.59 128.19L205.93 129.82ZM200.59 128.19L199.23 122.40L193.88 120.77L189.89 124.95L191.26 130.74L196.60 132.36ZM212.55 115.68L211.20 109.88L205.85 108.25L201.86 112.43L203.22 118.23L208.56 119.85ZM243.24 98.07L241.89 92.27L236.53 90.63L232.53 94.81L233.89 100.61L239.24 102.24ZM233.89 100.61L232.53 94.81L227.17 93.18L223.18 97.36L224.53 103.16L229.89 104.79ZM245.89 88.09L244.53 82.28L239.17 80.65L235.17 84.83L236.53 90.63L241.89 92.27ZM236.53 90.63L235.17 84.83L229.82 83.20L225.82 87.38L227.17 93.18L232.53 94.81ZM249.95 105.51L248.60 99.70L243.24 98.07L239.24 102.24L240.60 108.05L245.95 109.68ZM240.60 108.05L239.24 102.24L233.89 100.61L229.89 104.79L231.24 110.59L236.60 112.22ZM252.60 95.53L251.24 89.72L245.89 88.09L241.89 92.27L243.24 98.07L248.60 99.70ZM173.75 98.52L172.39 92.73L167.04 91.11L163.06 95.29L164.42 101.08L169.77 102.70ZM164.42 101.08L163.06 95.29L157.71 93.67L153.73 97.85L155.10 103.64L160.44 105.26ZM176.37 88.55L175.01 82.75L169.66 81.13L165.67 85.31L167.04 91.11L172.39 92.73ZM163.29 138.39L161.92 132.60L156.58 130.98L152.61 135.16L153.97 140.95L159.31 142.56ZM165.90 128.43L164.54 122.64L159.19 121.02L155.22 125.20L156.58 130.98L161.92 132.60ZM169.99 145.80L168.63 140.01L163.29 138.39L159.31 142.56L160.67 148.35L166.01 149.97ZM160.67 148.35L159.31 142.56L153.97 140.95L150.00 145.12L151.36 150.90L156.70 152.52ZM172.60 135.84L171.24 130.05L165.90 128.43L161.92 132.60L163.29 138.39L168.63 140.01ZM177.84 115.91L176.48 110.11L171.13 108.50L167.15 112.67L168.52 118.46L173.86 120.08ZM168.52 118.46L167.15 112.67L161.81 111.05L157.83 115.23L159.19 121.02L164.54 122.64ZM180.46 105.94L179.10 100.14L173.75 98.52L169.77 102.70L171.13 108.50L176.48 110.11ZM171.13 108.50L169.77 102.70L164.42 101.08L160.44 105.26L161.81 111.05L167.15 112.67ZM184.55 123.32L183.19 117.53L177.84 115.91L173.86 120.08L175.22 125.88L180.57 127.50ZM175.22 125.88L173.86 120.08L168.52 118.46L164.54 122.64L165.90 128.43L171.24 130.05ZM187.17 113.36L185.81 107.56L180.46 105.94L176.48 110.11L177.84 115.91L183.19 117.53ZM236.33 25.80L234.97 19.98L229.60 18.35L225.59 22.54L226.95 28.36L232.32 29.98ZM226.95 28.36L225.59 22.54L220.23 20.92L216.22 25.11L217.58 30.92L222.95 32.54ZM238.98 15.79L237.62 9.97L232.25 8.35L228.24 12.54L229.60 18.35L234.97 19.98ZM229.60 18.35L228.24 12.54L222.87 10.91L218.87 15.10L220.23 20.92L225.59 22.54ZM243.05 33.24L241.69 27.42L236.33 25.80L232.32 29.98L233.68 35.80L239.04 37.43ZM233.68 35.80L232.32 29.98L226.95 28.36L222.95 32.54L224.31 38.36L229.67 39.98ZM245.70 23.24L244.34 17.42L238.98 15.79L234.97 19.98L236.33 25.80L241.69 27.42ZM210.86 23.48L209.50 17.67L204.13 16.05L200.13 20.24L201.50 26.05L206.86 27.67ZM201.50 26.05L200.13 20.24L194.77 18.62L190.77 22.81L192.14 28.62L197.50 30.24ZM213.50 13.48L212.14 7.67L206.77 6.04L202.77 10.24L204.13 16.05L209.50 17.67ZM204.13 16.05L202.77 10.24L197.41 8.61L193.41 12.81L194.77 18.62L200.13 20.24ZM217.58 30.92L216.22 25.11L210.86 23.48L206.86 27.67L208.22 33.48L213.58 35.11ZM208.22 33.48L206.86 27.67L201.50 26.05L197.50 30.24L198.86 36.05L204.22 37.67ZM220.23 20.92L218.87 15.10L213.50 13.48L209.50 17.67L210.86 23.48L216.22 25.11ZM251.01 3.22L249.65 -2.60L244.28 -4.23L240.27 -0.04L241.63 5.78L247.00 7.41ZM241.63 5.78L240.27 -0.04L234.90 -1.66L230.89 2.53L232.25 8.35L237.62 9.97ZM257.74 10.67L256.38 4.85L251.01 3.22L247.00 7.41L248.35 13.23L253.72 14.86ZM248.35 13.23L247.00 7.41L241.63 5.78L237.62 9.97L238.98 15.79L244.34 17.42ZM260.40 0.66L259.04 -5.16L253.67 -6.79L249.65 -2.60L251.01 3.22L256.38 4.85ZM225.52 0.90L224.16 -4.91L218.79 -6.54L214.78 -2.34L216.14 3.47L221.51 5.10ZM216.14 3.47L214.78 -2.34L209.41 -3.97L205.41 0.23L206.77 6.04L212.14 7.67ZM232.25 8.35L230.89 2.53L225.52 0.90L221.51 5.10L222.87 10.91L228.24 12.54ZM222.87 10.91L221.51 5.10L216.14 3.47L212.14 7.67L213.50 13.48L218.87 15.10ZM234.90 -1.66L233.54 -7.48L228.17 -9.11L224.16 -4.91L225.52 0.90L230.89 2.53ZM247.12 50.68L245.76 44.87L240.40 43.24L236.39 47.42L237.75 53.23L243.11 54.86ZM237.75 53.23L236.39 47.42L231.03 45.79L227.03 49.98L228.39 55.79L233.75 57.42ZM249.77 40.68L248.42 34.87L243.05 33.24L239.04 37.43L240.40 43.24L245.76 44.87ZM240.40 43.24L239.04 37.43L233.68 35.80L229.67 39.98L231.03 45.79L236.39 47.42ZM253.84 58.13L252.48 52.31L247.12 50.68L243.11 54.86L244.47 60.68L249.83 62.31ZM244.47 60.68L243.11 54.86L237.75 53.23L233.75 57.42L235.10 63.23L240.46 64.86ZM256.49 48.13L255.14 42.32L249.77 40.68L245.76 44.87L247.12 50.68L252.48 52.31ZM221.67 48.35L220.31 42.54L214.94 40.92L210.94 45.10L212.30 50.91L217.66 52.54ZM212.30 50.91L210.94 45.10L205.58 43.48L201.59 47.66L202.95 53.47L208.31 55.10ZM224.31 38.36L222.95 32.54L217.58 30.92L213.58 35.11L214.94 40.92L220.31 42.54ZM214.94 40.92L213.58 35.11L208.22 33.48L204.22 37.67L205.58 43.48L210.94 45.10ZM228.39 55.79L227.03 49.98L221.67 48.35L217.66 52.54L219.02 58.34L224.38 59.97ZM219.02 58.34L217.66 52.54L212.30 50.91L208.31 55.10L209.67 60.90L215.03 62.53ZM231.03 45.79L229.67 39.98L224.31 38.36L220.31 42.54L221.67 48.35L227.03 49.98ZM261.81 28.13L260.45 22.31L255.08 20.68L251.07 24.87L252.43 30.68L257.79 32.32ZM252.43 30.68L251.07 24.87L245.70 23.24L241.69 27.42L243.05 33.24L248.42 34.87ZM264.47 18.13L263.11 12.31L257.74 10.67L253.72 14.86L255.08 20.68L260.45 22.31ZM255.08 20.68L253.72 14.86L248.35 13.23L244.34 17.42L245.70 23.24L251.07 24.87ZM259.15 38.13L257.79 32.32L252.43 30.68L248.42 34.87L249.77 40.68L255.14 42.32ZM246.26 217.43L244.91 211.64L239.57 210.01L235.58 214.16L236.93 219.95L242.27 221.58ZM236.93 219.95L235.58 214.16L230.25 212.53L226.26 216.68L227.62 222.46L232.95 224.10ZM248.90 207.49L247.55 201.70L242.21 200.06L238.22 204.22L239.57 210.01L244.91 211.64ZM239.57 210.01L238.22 204.22L232.88 202.58L228.89 206.74L230.25 212.53L235.58 214.16ZM252.94 224.85L251.59 219.06L246.26 217.43L242.27 221.58L243.62 227.37L248.96 229.00ZM243.62 227.37L242.27 221.58L236.93 219.95L232.95 224.10L234.30 229.88L239.63 231.52ZM255.58 214.91L254.24 209.12L248.90 207.49L244.91 211.64L246.26 217.43L251.59 219.06ZM220.93 215.05L219.57 209.26L214.24 207.63L210.26 211.79L211.61 217.57L216.95 219.20ZM211.61 217.57L210.26 211.79L204.92 210.16L200.95 214.31L202.30 220.10L207.63 221.72ZM223.56 205.11L222.20 199.32L216.87 197.69L212.88 201.85L214.24 207.63L219.57 209.26ZM214.24 207.63L212.88 201.85L207.55 200.22L203.57 204.37L204.92 210.16L210.26 211.79ZM227.62 222.46L226.26 216.68L220.93 215.05L216.95 219.20L218.30 224.98L223.63 226.62ZM218.30 224.98L216.95 219.20L211.61 217.57L207.63 221.72L208.99 227.51L214.32 229.14ZM230.25 212.53L228.89 206.74L223.56 205.11L219.57 209.26L220.93 215.05L226.26 216.68ZM260.87 195.02L259.52 189.23L254.18 187.59L250.19 191.75L251.54 197.54L256.88 199.18ZM251.54 197.54L250.19 191.75L244.84 190.11L240.86 194.27L242.21 200.06L247.55 201.70ZM263.52 185.07L262.17 179.28L256.82 177.64L252.83 181.80L254.18 187.59L259.52 189.23ZM254.18 187.59L252.83 181.80L247.49 180.16L243.49 184.32L244.84 190.11L250.19 191.75ZM258.23 204.97L256.88 199.18L251.54 197.54L247.55 201.70L248.90 207.49L254.24 209.12ZM235.51 192.64L234.16 186.85L228.82 185.21L224.84 189.37L226.19 195.16L231.53 196.79ZM226.19 195.16L224.84 189.37L219.50 187.74L215.51 191.90L216.87 197.69L222.20 199.32ZM238.15 182.69L236.80 176.90L231.46 175.26L227.47 179.42L228.82 185.21L234.16 186.85ZM228.82 185.21L227.47 179.42L222.13 177.79L218.14 181.95L219.50 187.74L224.84 189.37ZM242.21 200.06L240.86 194.27L235.51 192.64L231.53 196.79L232.88 202.58L238.22 204.22ZM232.88 202.58L231.53 196.79L226.19 195.16L222.20 199.32L223.56 205.11L228.89 206.74ZM244.84 190.11L243.49 184.32L238.15 182.69L234.16 186.85L235.51 192.64L240.86 194.27ZM256.99 242.21L255.64 236.43L250.30 234.79L246.32 238.94L247.67 244.72L253.00 246.36ZM247.67 244.72L246.32 238.94L240.98 237.30L237.00 241.45L238.35 247.23L243.68 248.87ZM259.63 232.28L258.28 226.49L252.94 224.85L248.96 229.00L250.30 234.79L255.64 236.43ZM250.30 234.79L248.96 229.00L243.62 227.37L239.63 231.52L240.98 237.30L246.32 238.94ZM263.67 249.64L262.32 243.85L256.99 242.21L253.00 246.36L254.35 252.14L259.68 253.78ZM254.35 252.14L253.00 246.36L247.67 244.72L243.68 248.87L245.03 254.65L250.36 256.29ZM266.31 239.70L264.96 233.92L259.63 232.28L255.64 236.43L256.99 242.21L262.32 243.85ZM231.67 239.82L230.32 234.03L224.99 232.40L221.01 236.55L222.36 242.33L227.69 243.96ZM222.36 242.33L221.01 236.55L215.67 234.92L211.70 239.07L213.05 244.85L218.38 246.48ZM234.30 229.88L232.95 224.10L227.62 222.46L223.63 226.62L224.99 232.40L230.32 234.03ZM224.99 232.40L223.63 226.62L218.30 224.98L214.32 229.14L215.67 234.92L221.01 236.55ZM238.35 247.23L237.00 241.45L231.67 239.82L227.69 243.96L229.04 249.75L234.37 251.38ZM229.04 249.75L227.69 243.96L222.36 242.33L218.38 246.48L219.73 252.26L225.06 253.89ZM240.98 237.30L239.63 231.52L234.30 229.88L230.32 234.03L231.67 239.82L237.00 241.45ZM262.27 222.34L260.92 216.55L255.58 214.91L251.59 219.06L252.94 224.85L258.28 226.49ZM264.92 212.40L263.57 206.61L258.23 204.97L254.24 209.12L255.58 214.91L260.92 216.55ZM181.08 235.08L179.72 229.31L174.39 227.68L170.43 231.84L171.78 237.61L177.11 239.24ZM171.78 237.61L170.43 231.84L165.10 230.21L161.13 234.37L162.49 240.14L167.82 241.76ZM183.69 225.15L182.34 219.37L177.01 217.75L173.04 221.90L174.39 227.68L179.72 229.31ZM174.39 227.68L173.04 221.90L167.71 220.28L163.74 224.44L165.10 230.21L170.43 231.84ZM187.76 242.49L186.41 236.71L181.08 235.08L177.11 239.24L178.47 245.01L183.79 246.64ZM178.47 245.01L177.11 239.24L171.78 237.61L167.82 241.76L169.18 247.54L174.50 249.16ZM190.38 232.56L189.02 226.78L183.69 225.15L179.72 229.31L181.08 235.08L186.41 236.71ZM155.81 232.75L154.45 226.97L149.12 225.35L145.16 229.51L146.52 235.28L151.85 236.90ZM146.52 235.28L145.16 229.51L139.84 227.89L135.88 232.05L137.24 237.82L142.56 239.44ZM158.41 222.82L157.05 217.04L151.72 215.42L147.76 219.58L149.12 225.35L154.45 226.97ZM149.12 225.35L147.76 219.58L142.43 217.96L138.47 222.12L139.84 227.89L145.16 229.51ZM162.49 240.14L161.13 234.37L155.81 232.75L151.85 236.90L153.21 242.67L158.53 244.29ZM153.21 242.67L151.85 236.90L146.52 235.28L142.56 239.44L143.92 245.21L149.24 246.83ZM165.10 230.21L163.74 224.44L158.41 222.82L154.45 226.97L155.81 232.75L161.13 234.37ZM195.61 212.69L194.26 206.90L188.92 205.28L184.95 209.44L186.31 215.22L191.64 216.84ZM186.31 215.22L184.95 209.44L179.62 207.81L175.65 211.97L177.01 217.75L182.34 219.37ZM198.23 202.75L196.88 196.96L191.54 195.34L187.57 199.50L188.92 205.28L194.26 206.90ZM188.92 205.28L187.57 199.50L182.23 197.87L178.26 202.03L179.62 207.81L184.95 209.44ZM202.30 220.10L200.95 214.31L195.61 212.69L191.64 216.84L193.00 222.62L198.33 224.25ZM193.00 222.62L191.64 216.84L186.31 215.22L182.34 219.37L183.69 225.15L189.02 226.78ZM204.92 210.16L203.57 204.37L198.23 202.75L194.26 206.90L195.61 212.69L200.95 214.31ZM170.32 210.35L168.96 204.57L163.63 202.95L159.66 207.11L161.02 212.88L166.35 214.50ZM161.02 212.88L159.66 207.11L154.33 205.49L150.36 209.65L151.72 215.42L157.05 217.04ZM172.93 200.41L171.57 194.63L166.24 193.01L162.27 197.17L163.63 202.95L168.96 204.57ZM163.63 202.95L162.27 197.17L156.93 195.55L152.97 199.71L154.33 205.49L159.66 207.11ZM177.01 217.75L175.65 211.97L170.32 210.35L166.35 214.50L167.71 220.28L173.04 221.90ZM167.71 220.28L166.35 214.50L161.02 212.88L157.05 217.04L158.41 222.82L163.74 224.44ZM179.62 207.81L178.26 202.03L172.93 200.41L168.96 204.57L170.32 210.35L175.65 211.97ZM191.83 259.81L190.48 254.04L185.15 252.41L181.18 256.56L182.54 262.33L187.86 263.96ZM182.54 262.33L181.18 256.56L175.86 254.93L171.89 259.08L173.25 264.86L178.57 266.48ZM194.45 249.89L193.09 244.11L187.76 242.49L183.79 246.64L185.15 252.41L190.48 254.04ZM185.15 252.41L183.79 246.64L178.47 245.01L174.50 249.16L175.86 254.93L181.18 256.56ZM201.13 257.29L199.77 251.52L194.45 249.89L190.48 254.04L191.83 259.81L197.16 261.44ZM166.57 257.46L165.21 251.69L159.89 250.07L155.93 254.22L157.29 259.99L162.61 261.61ZM157.29 259.99L155.93 254.22L150.61 252.60L146.65 256.75L148.01 262.52L153.33 264.14ZM169.18 247.54L167.82 241.76L162.49 240.14L158.53 244.29L159.89 250.07L165.21 251.69ZM159.89 250.07L158.53 244.29L153.21 242.67L149.24 246.83L150.61 252.60L155.93 254.22ZM175.86 254.93L174.50 249.16L169.18 247.54L165.21 251.69L166.57 257.46L171.89 259.08ZM206.37 237.44L205.01 231.66L199.68 230.03L195.71 234.18L197.06 239.96L202.39 241.59ZM197.06 239.96L195.71 234.18L190.38 232.56L186.41 236.71L187.76 242.49L193.09 244.11ZM208.99 227.51L207.63 221.72L202.30 220.10L198.33 224.25L199.68 230.03L205.01 231.66ZM199.68 230.03L198.33 224.25L193.00 222.62L189.02 226.78L190.38 232.56L195.71 234.18ZM213.05 244.85L211.70 239.07L206.37 237.44L202.39 241.59L203.75 247.37L209.07 249.00ZM203.75 247.37L202.39 241.59L197.06 239.96L193.09 244.11L194.45 249.89L199.77 251.52ZM215.67 234.92L214.32 229.14L208.99 227.51L205.01 231.66L206.37 237.44L211.70 239.07ZM264.77 147.76L263.42 141.96L258.06 140.33L254.07 144.49L255.42 150.29L260.77 151.93ZM255.42 150.29L254.07 144.49L248.72 142.86L244.72 147.02L246.07 152.82L251.42 154.45ZM258.06 140.33L256.71 134.52L251.36 132.89L247.36 137.06L248.72 142.86L254.07 144.49ZM262.12 157.73L260.77 151.93L255.42 150.29L251.42 154.45L252.77 160.25L258.12 161.89ZM239.37 145.39L238.02 139.59L232.67 137.96L228.68 142.13L230.03 147.92L235.38 149.55ZM230.03 147.92L228.68 142.13L223.33 140.50L219.34 144.66L220.70 150.46L226.04 152.09ZM242.01 135.42L240.66 129.62L235.31 127.99L231.32 132.16L232.67 137.96L238.02 139.59ZM232.67 137.96L231.32 132.16L225.97 130.53L221.97 134.70L223.33 140.50L228.68 142.13ZM246.07 152.82L244.72 147.02L239.37 145.39L235.38 149.55L236.73 155.35L242.08 156.98ZM236.73 155.35L235.38 149.55L230.03 147.92L226.04 152.09L227.40 157.88L232.74 159.51ZM248.72 142.86L247.36 137.06L242.01 135.42L238.02 139.59L239.37 145.39L244.72 147.02ZM254.01 122.92L252.66 117.12L247.30 115.48L243.30 119.65L244.66 125.46L250.01 127.09ZM244.66 125.46L243.30 119.65L237.95 118.02L233.95 122.19L235.31 127.99L240.66 129.62ZM256.66 112.95L255.31 107.14L249.95 105.51L245.95 109.68L247.30 115.48L252.66 117.12ZM247.30 115.48L245.95 109.68L240.60 108.05L236.60 112.22L237.95 118.02L243.30 119.65ZM260.71 130.36L259.36 124.55L254.01 122.92L250.01 127.09L251.36 132.89L256.71 134.52ZM251.36 132.89L250.01 127.09L244.66 125.46L240.66 129.62L242.01 135.42L247.36 137.06ZM263.36 120.39L262.01 114.58L256.66 112.95L252.66 117.12L254.01 122.92L259.36 124.55ZM266.16 175.12L264.82 169.32L259.47 167.68L255.47 171.84L256.82 177.64L262.17 179.28ZM250.13 170.21L248.78 164.41L243.43 162.78L239.44 166.94L240.79 172.74L246.13 174.37ZM240.79 172.74L239.44 166.94L234.09 165.31L230.10 169.47L231.46 175.26L236.80 176.90ZM252.77 160.25L251.42 154.45L246.07 152.82L242.08 156.98L243.43 162.78L248.78 164.41ZM243.43 162.78L242.08 156.98L236.73 155.35L232.74 159.51L234.09 165.31L239.44 166.94ZM256.82 177.64L255.47 171.84L250.13 170.21L246.13 174.37L247.49 180.16L252.83 181.80ZM247.49 180.16L246.13 174.37L240.79 172.74L236.80 176.90L238.15 182.69L243.49 184.32ZM259.47 167.68L258.12 161.89L252.77 160.25L248.78 164.41L250.13 170.21L255.47 171.84ZM199.41 165.49L198.05 159.70L192.71 158.08L188.73 162.24L190.09 168.03L195.43 169.66ZM190.09 168.03L188.73 162.24L183.39 160.62L179.41 164.78L180.77 170.57L186.11 172.19ZM202.03 155.54L200.68 149.74L195.33 148.12L191.35 152.29L192.71 158.08L198.05 159.70ZM192.71 158.08L191.35 152.29L186.01 150.66L182.03 154.83L183.39 160.62L188.73 162.24ZM206.11 172.91L204.75 167.12L199.41 165.49L195.43 169.66L196.79 175.44L202.12 177.07ZM196.79 175.44L195.43 169.66L190.09 168.03L186.11 172.19L187.47 177.98L192.81 179.61ZM208.73 162.95L207.38 157.16L202.03 155.54L198.05 159.70L199.41 165.49L204.75 167.12ZM174.07 163.16L172.71 157.38L167.37 155.76L163.40 159.92L164.76 165.71L170.10 167.33ZM164.76 165.71L163.40 159.92L158.06 158.30L154.09 162.47L155.45 168.26L160.79 169.87ZM176.69 153.21L175.33 147.42L169.99 145.80L166.01 149.97L167.37 155.76L172.71 157.38ZM167.37 155.76L166.01 149.97L160.67 148.35L156.70 152.52L158.06 158.30L163.40 159.92ZM180.77 170.57L179.41 164.78L174.07 163.16L170.10 167.33L171.46 173.11L176.80 174.74ZM171.46 173.11L170.10 167.33L164.76 165.71L160.79 169.87L162.15 175.66L167.49 177.28ZM183.39 160.62L182.03 154.83L176.69 153.21L172.71 157.38L174.07 163.16L179.41 164.78ZM213.99 143.04L212.64 137.24L207.29 135.61L203.30 139.78L204.66 145.58L210.01 147.20ZM204.66 145.58L203.30 139.78L197.96 138.16L193.97 142.33L195.33 148.12L200.68 149.74ZM216.63 133.07L215.27 127.28L209.92 125.65L205.93 129.82L207.29 135.61L212.64 137.24ZM207.29 135.61L205.93 129.82L200.59 128.19L196.60 132.36L197.96 138.16L203.30 139.78ZM220.70 150.46L219.34 144.66L213.99 143.04L210.01 147.20L211.36 153.00L216.71 154.62ZM211.36 153.00L210.01 147.20L204.66 145.58L200.68 149.74L202.03 155.54L207.38 157.16ZM223.33 140.50L221.97 134.70L216.63 133.07L212.64 137.24L213.99 143.04L219.34 144.66ZM188.63 140.70L187.27 134.91L181.93 133.29L177.95 137.46L179.31 143.25L184.65 144.87ZM179.31 143.25L177.95 137.46L172.60 135.84L168.63 140.01L169.99 145.80L175.33 147.42ZM191.26 130.74L189.89 124.95L184.55 123.32L180.57 127.50L181.93 133.29L187.27 134.91ZM181.93 133.29L180.57 127.50L175.22 125.88L171.24 130.05L172.60 135.84L177.95 137.46ZM195.33 148.12L193.97 142.33L188.63 140.70L184.65 144.87L186.01 150.66L191.35 152.29ZM186.01 150.66L184.65 144.87L179.31 143.25L175.33 147.42L176.69 153.21L182.03 154.83ZM197.96 138.16L196.60 132.36L191.26 130.74L187.27 134.91L188.63 140.70L193.97 142.33ZM210.17 190.27L208.82 184.48L203.48 182.86L199.50 187.02L200.86 192.80L206.19 194.43ZM200.86 192.80L199.50 187.02L194.16 185.39L190.19 189.55L191.54 195.34L196.88 196.96ZM212.80 180.32L211.45 174.53L206.11 172.91L202.12 177.07L203.48 182.86L208.82 184.48ZM203.48 182.86L202.12 177.07L196.79 175.44L192.81 179.61L194.16 185.39L199.50 187.02ZM216.87 197.69L215.51 191.90L210.17 190.27L206.19 194.43L207.55 200.22L212.88 201.85ZM207.55 200.22L206.19 194.43L200.86 192.80L196.88 196.96L198.23 202.75L203.57 204.37ZM219.50 187.74L218.14 181.95L212.80 180.32L208.82 184.48L210.17 190.27L215.51 191.90ZM184.85 187.93L183.49 182.14L178.16 180.52L174.18 184.68L175.54 190.47L180.87 192.09ZM175.54 190.47L174.18 184.68L168.85 183.06L164.87 187.22L166.24 193.01L171.57 194.63ZM187.47 177.98L186.11 172.19L180.77 170.57L176.80 174.74L178.16 180.52L183.49 182.14ZM178.16 180.52L176.80 174.74L171.46 173.11L167.49 177.28L168.85 183.06L174.18 184.68ZM191.54 195.34L190.19 189.55L184.85 187.93L180.87 192.09L182.23 197.87L187.57 199.50ZM182.23 197.87L180.87 192.09L175.54 190.47L171.57 194.63L172.93 200.41L178.26 202.03ZM194.16 185.39L192.81 179.61L187.47 177.98L183.49 182.14L184.85 187.93L190.19 189.55ZM224.76 167.84L223.41 162.05L218.06 160.42L214.08 164.58L215.43 170.37L220.77 172.00ZM215.43 170.37L214.08 164.58L208.73 162.95L204.75 167.12L206.11 172.91L211.45 174.53ZM227.40 157.88L226.04 152.09L220.70 150.46L216.71 154.62L218.06 160.42L223.41 162.05ZM218.06 160.42L216.71 154.62L211.36 153.00L207.38 157.16L208.73 162.95L214.08 164.58ZM231.46 175.26L230.10 169.47L224.76 167.84L220.77 172.00L222.13 177.79L227.47 179.42ZM222.13 177.79L220.77 172.00L215.43 170.37L211.45 174.53L212.80 180.32L218.14 181.95ZM234.09 165.31L232.74 159.51L227.40 157.88L223.41 162.05L224.76 167.84L230.10 169.47ZM261.03 259.57L259.68 253.78L254.35 252.14L250.36 256.29L251.71 262.07L257.04 263.71ZM245.03 254.65L243.68 248.87L238.35 247.23L234.37 251.38L235.72 257.16L241.05 258.80ZM235.72 257.16L234.37 251.38L229.04 249.75L225.06 253.89L226.41 259.67L231.74 261.31ZM251.71 262.07L250.36 256.29L245.03 254.65L241.05 258.80L242.40 264.58L247.73 266.21ZM217.11 262.18L215.75 256.41L210.43 254.78L206.45 258.92L207.81 264.70L213.13 266.33ZM219.73 252.26L218.38 246.48L213.05 244.85L209.07 249.00L210.43 254.78L215.75 256.41ZM210.43 254.78L209.07 249.00L203.75 247.37L199.77 251.52L201.13 257.29L206.45 258.92ZM226.41 259.67L225.06 253.89L219.73 252.26L215.75 256.41L217.11 262.18L222.43 263.82Z"/></svg>
