<svg xmlns="http://www.w3.org/2000/svg" width="256" height="256" viewBox="0 0 256 256"><path data-band="2" fill="#f97316" fill-opacity="0.35" d="M19.37 14.86L18.00 9.14L12.74 7.54L8.84 11.65L10.21 17.36L15.47 18.96ZM10.21 17.36L8.84 11.65L3.58 10.04L-0.31 14.15L1.06 19.86L6.32 21.47ZM21.90 5.03L20.53 -0.68L15.27 -2.29L11.37 1.82L12.74 7.54L18.00 9.14ZM12.74 7.54L11.37 1.82L6.11 0.22L2.21 4.33L3.58 10.04L8.84 11.65ZM26.00 22.17L24.63 16.46L19.37 14.86L15.47 18.96L16.84 24.67L22.10 26.28ZM16.84 24.67L15.47 18.96L10.21 17.36L6.32 21.47L7.68 27.18L12.94 28.78ZM28.53 12.35L27.16 6.64L21.90 5.03L18.00 9.14L19.37 14.86L24.63 16.46ZM20.93 41.80L19.57 36.09L14.31 34.49L10.42 38.59L11.78 44.30L17.04 45.91ZM23.47 31.99L22.10 26.28L16.84 24.67L12.94 28.78L14.31 34.49L19.57 36.09ZM1.06 19.86L-0.31 14.15L-5.57 12.55L-9.47 16.66L-8.10 22.37L-2.84 23.97ZM3.58 10.04L2.21 4.33L-3.05 2.73L-6.94 6.84L-5.57 12.55L-0.31 14.15ZM0.11 56.61L-1.25 50.90L-6.51 49.30L-10.39 53.40L-9.03 59.10L-3.77 60.71ZM5.16 36.99L3.79 31.28L-1.47 29.68L-5.36 33.78L-3.99 39.49L1.27 41.09ZM7.68 27.18L6.32 21.47L1.06 19.86L-2.84 23.97L-1.47 29.68L3.79 31.28ZM11.78 44.30L10.42 38.59L5.16 36.99L1.27 41.09L2.64 46.80L7.89 48.40ZM2.64 46.80L1.27 41.09L-3.99 39.49L-7.88 43.59L-6.51 49.30L-1.25 50.90ZM14.31 34.49L12.94 28.78L7.68 27.18L3.79 31.28L5.16 36.99L10.42 38.59ZM15.27 -2.29L13.90 -8.00L8.63 -9.60L4.74 -5.49L6.11 0.22L11.37 1.82ZM6.11 0.22L4.74 -5.49L-0.53 -7.09L-4.42 -2.98L-3.05 2.73L2.21 4.33ZM1.69 83.51L0.33 77.81L-4.92 76.21L-8.81 80.30L-7.44 86.00L-2.19 87.61ZM4.21 73.71L2.85 68.01L-2.41 66.41L-6.29 70.51L-4.92 76.21L0.33 77.81ZM15.88 61.42L14.51 55.71L9.26 54.11L5.37 58.21L6.74 63.91L11.99 65.52ZM6.74 63.91L5.37 58.21L0.11 56.61L-3.77 60.71L-2.41 66.41L2.85 68.01ZM9.26 54.11L7.89 48.40L2.64 46.80L-1.25 50.90L0.11 56.61L5.37 58.21ZM13.35 71.22L11.99 65.52L6.74 63.91L2.85 68.01L4.21 73.71L9.47 75.32Z"/><path data-band="3" fill="#dc2626" fill-opacity="0.35" d="M0.45 220.20L-0.91 214.52L-6.14 212.91L-10.00 216.98L-8.64 222.66L-3.41 224.27ZM5.47 200.69L4.11 195.01L-1.12 193.40L-4.99 197.48L-3.63 203.16L1.60 204.77ZM7.99 190.93L6.63 185.25L1.39 183.64L-2.48 187.72L-1.12 193.40L4.11 195.01ZM12.07 207.98L10.71 202.30L5.47 200.69L1.60 204.77L2.96 210.45L8.20 212.06ZM2.96 210.45L1.60 204.77L-3.63 203.16L-7.50 207.23L-6.14 212.91L-0.91 214.52ZM14.58 198.23L13.22 192.54L7.99 190.93L4.11 195.01L5.47 200.69L10.71 202.30ZM2.03 246.98L0.67 241.30L-4.56 239.69L-8.42 243.76L-7.06 249.43L-1.84 251.04ZM4.53 237.23L3.17 231.56L-2.05 229.95L-5.92 234.02L-4.56 239.69L0.67 241.30ZM8.61 254.26L7.25 248.59L2.03 246.98L-1.84 251.04L-0.48 256.72L4.74 258.33ZM11.12 244.52L9.76 238.85L4.53 237.23L0.67 241.30L2.03 246.98L7.25 248.59ZM16.14 225.03L14.79 219.35L9.55 217.74L5.68 221.81L7.04 227.49L12.27 229.10ZM7.04 227.49L5.68 221.81L0.45 220.20L-3.41 224.27L-2.05 229.95L3.17 231.56ZM18.66 215.28L17.30 209.60L12.07 207.98L8.20 212.06L9.55 217.74L14.79 219.35ZM9.55 217.74L8.20 212.06L2.96 210.45L-0.91 214.52L0.45 220.20L5.68 221.81ZM22.73 232.32L21.37 226.64L16.14 225.03L12.27 229.10L13.63 234.78L18.86 236.39ZM13.63 234.78L12.27 229.10L7.04 227.49L3.17 231.56L4.53 237.23L9.76 238.85ZM25.25 222.57L23.89 216.89L18.66 215.28L14.79 219.35L16.14 225.03L21.37 226.64ZM8.93 154.34L7.57 148.65L2.33 147.04L-1.55 151.12L-0.18 156.81L5.06 158.42ZM11.45 144.56L10.09 138.87L4.85 137.26L0.97 141.35L2.33 147.04L7.57 148.65ZM2.33 147.04L0.97 141.35L-4.27 139.74L-8.15 143.83L-6.79 149.52L-1.55 151.12ZM15.54 161.64L14.17 155.95L8.93 154.34L5.06 158.42L6.42 164.11L11.66 165.72ZM6.42 164.11L5.06 158.42L-0.18 156.81L-4.06 160.89L-2.70 166.58L2.54 168.19ZM18.05 151.86L16.69 146.17L11.45 144.56L7.57 148.65L8.93 154.34L14.17 155.95ZM23.10 132.31L21.74 126.61L16.49 125.00L12.61 129.09L13.97 134.79L19.21 136.39ZM13.97 134.79L12.61 129.09L7.36 127.48L3.48 131.57L4.85 137.26L10.09 138.87ZM25.62 122.53L24.26 116.83L19.01 115.22L15.13 119.31L16.49 125.00L21.74 126.61ZM16.49 125.00L15.13 119.31L9.88 117.70L6.00 121.79L7.36 127.48L12.61 129.09ZM29.70 139.61L28.34 133.92L23.10 132.31L19.21 136.39L20.58 142.09L25.82 143.70ZM20.58 142.09L19.21 136.39L13.97 134.79L10.09 138.87L11.45 144.56L16.69 146.17ZM32.23 129.83L30.87 124.14L25.62 122.53L21.74 126.61L23.10 132.31L28.34 133.92ZM0.75 120.18L-0.61 114.49L-5.86 112.88L-9.74 116.97L-8.37 122.67L-3.13 124.27ZM4.85 137.26L3.48 131.57L-1.76 129.96L-5.64 134.05L-4.27 139.74L0.97 141.35ZM7.36 127.48L6.00 121.79L0.75 120.18L-3.13 124.27L-1.76 129.96L3.48 131.57ZM19.62 178.70L18.26 173.02L13.02 171.41L9.14 175.48L10.50 181.17L15.74 182.78ZM10.50 181.17L9.14 175.48L3.90 173.88L0.03 177.96L1.39 183.64L6.63 185.25ZM22.14 168.94L20.78 163.25L15.54 161.64L11.66 165.72L13.02 171.41L18.26 173.02ZM13.02 171.41L11.66 165.72L6.42 164.11L2.54 168.19L3.90 173.88L9.14 175.48ZM26.21 186.00L24.85 180.32L19.62 178.70L15.74 182.78L17.10 188.47L22.33 190.08ZM17.10 188.47L15.74 182.78L10.50 181.17L6.63 185.25L7.99 190.93L13.22 192.54ZM28.73 176.24L27.38 170.55L22.14 168.94L18.26 173.02L19.62 178.70L24.85 180.32ZM1.39 183.64L0.03 177.96L-5.21 176.35L-9.08 180.43L-7.72 186.11L-2.48 187.72ZM3.90 173.88L2.54 168.19L-2.70 166.58L-6.57 170.66L-5.21 176.35L0.03 177.96ZM33.78 156.70L32.42 151.00L27.18 149.39L23.30 153.47L24.66 159.17L29.90 160.78ZM24.66 159.17L23.30 153.47L18.05 151.86L14.17 155.95L15.54 161.64L20.78 163.25ZM36.31 146.92L34.95 141.23L29.70 139.61L25.82 143.70L27.18 149.39L32.42 151.00ZM27.18 149.39L25.82 143.70L20.58 142.09L16.69 146.17L18.05 151.86L23.30 153.47ZM40.38 164.00L39.03 158.31L33.78 156.70L29.90 160.78L31.26 166.47L36.50 168.08ZM31.26 166.47L29.90 160.78L24.66 159.17L20.78 163.25L22.14 168.94L27.38 170.55ZM42.91 154.23L41.55 148.53L36.31 146.92L32.42 151.00L33.78 156.70L39.03 158.31ZM44.33 17.18L42.96 11.46L37.70 9.85L33.80 13.96L35.16 19.68L40.42 21.28ZM35.16 19.68L33.80 13.96L28.53 12.35L24.63 16.46L26.00 22.17L31.26 23.78ZM46.87 7.36L45.50 1.64L40.24 0.03L36.33 4.14L37.70 9.85L42.96 11.46ZM37.70 9.85L36.33 4.14L31.07 2.53L27.16 6.64L28.53 12.35L33.80 13.96ZM50.95 24.50L49.59 18.79L44.33 17.18L40.42 21.28L41.79 27.00L47.05 28.61ZM41.79 27.00L40.42 21.28L35.16 19.68L31.26 23.78L32.62 29.49L37.89 31.10ZM53.50 14.68L52.13 8.97L46.87 7.36L42.96 11.46L44.33 17.18L49.59 18.79ZM49.41 -2.47L48.05 -8.19L42.78 -9.80L38.87 -5.69L40.24 0.03L45.50 1.64ZM65.22 2.36L63.86 -3.36L58.59 -4.97L54.68 -0.86L56.04 4.86L61.31 6.47ZM56.04 4.86L54.68 -0.86L49.41 -2.47L45.50 1.64L46.87 7.36L52.13 8.97ZM40.24 0.03L38.87 -5.69L33.60 -7.30L29.70 -3.19L31.07 2.53L36.33 4.14ZM31.07 2.53L29.70 -3.19L24.43 -4.79L20.53 -0.68L21.90 5.03L27.16 6.64ZM55.04 41.65L53.68 35.93L48.41 34.32L44.51 38.42L45.87 44.14L51.14 45.75ZM45.87 44.14L44.51 38.42L39.25 36.81L35.35 40.92L36.71 46.63L41.98 48.24ZM57.58 31.83L56.22 26.12L50.95 24.50L47.05 28.61L48.41 34.32L53.68 35.93ZM48.41 34.32L47.05 28.61L41.79 27.00L37.89 31.10L39.25 36.81L44.51 38.42ZM61.66 48.97L60.30 43.26L55.04 41.65L51.14 45.75L52.50 51.46L57.76 53.07ZM52.50 51.46L51.14 45.75L45.87 44.14L41.98 48.24L43.34 53.95L48.60 55.56ZM64.21 39.16L62.85 33.44L57.58 31.83L53.68 35.93L55.04 41.65L60.30 43.26ZM30.09 39.31L28.73 33.60L23.47 31.99L19.57 36.09L20.93 41.80L26.19 43.41ZM32.62 29.49L31.26 23.78L26.00 22.17L22.10 26.28L23.47 31.99L28.73 33.60ZM36.71 46.63L35.35 40.92L30.09 39.31L26.19 43.41L27.56 49.12L32.82 50.73ZM27.56 49.12L26.19 43.41L20.93 41.80L17.04 45.91L18.41 51.61L23.66 53.22ZM39.25 36.81L37.89 31.10L32.62 29.49L28.73 33.60L30.09 39.31L35.35 40.92ZM69.30 19.52L67.94 13.80L62.67 12.19L58.76 16.30L60.13 22.01L65.39 23.63ZM60.13 22.01L58.76 16.30L53.50 14.68L49.59 18.79L50.95 24.50L56.22 26.12ZM71.85 9.70L70.49 3.98L65.22 2.36L61.31 6.47L62.67 12.19L67.94 13.80ZM62.67 12.19L61.31 6.47L56.04 4.86L52.13 8.97L53.50 14.68L58.76 16.30ZM75.93 26.86L74.57 21.14L69.30 19.52L65.39 23.63L66.75 29.34L72.02 30.96ZM66.75 29.34L65.39 23.63L60.13 22.01L56.22 26.12L57.58 31.83L62.85 33.44ZM78.48 17.03L77.12 11.31L71.85 9.70L67.94 13.80L69.30 19.52L74.57 21.14ZM90.69 68.48L89.34 62.77L84.07 61.15L80.17 65.25L81.52 70.96L86.78 72.58ZM81.52 70.96L80.17 65.25L74.90 63.63L71.00 67.73L72.36 73.44L77.62 75.05ZM93.25 58.67L91.89 52.96L86.62 51.34L82.72 55.44L84.07 61.15L89.34 62.77ZM84.07 61.15L82.72 55.44L77.45 53.82L73.55 57.92L74.90 63.63L80.17 65.25ZM97.31 75.82L95.96 70.10L90.69 68.48L86.78 72.58L88.14 78.29L93.40 79.91ZM88.14 78.29L86.78 72.58L81.52 70.96L77.62 75.05L78.97 80.76L84.23 82.38ZM99.87 66.01L98.51 60.29L93.25 58.67L89.34 62.77L90.69 68.48L95.96 70.10ZM65.74 66.11L64.38 60.40L59.12 58.78L55.22 62.88L56.58 68.59L61.84 70.21ZM56.58 68.59L55.22 62.88L49.96 61.27L46.06 65.37L47.42 71.07L52.68 72.69ZM68.28 56.30L66.92 50.59L61.66 48.97L57.76 53.07L59.12 58.78L64.38 60.40ZM59.12 58.78L57.76 53.07L52.50 51.46L48.60 55.56L49.96 61.27L55.22 62.88ZM72.36 73.44L71.00 67.73L65.74 66.11L61.84 70.21L63.20 75.91L68.45 77.53ZM63.20 75.91L61.84 70.21L56.58 68.59L52.68 72.69L54.04 78.39L59.30 80.01ZM74.90 63.63L73.55 57.92L68.28 56.30L64.38 60.40L65.74 66.11L71.00 67.73ZM104.98 46.38L103.63 40.67L98.36 39.05L94.45 43.14L95.80 48.86L101.07 50.48ZM95.80 48.86L94.45 43.14L89.18 41.52L85.27 45.62L86.62 51.34L91.89 52.96ZM107.54 36.57L106.19 30.85L100.92 29.23L97.00 33.33L98.36 39.05L103.63 40.67ZM98.36 39.05L97.00 33.33L91.73 31.71L87.82 35.81L89.18 41.52L94.45 43.14ZM111.60 53.73L110.25 48.01L104.98 46.38L101.07 50.48L102.42 56.20L107.69 57.82ZM102.42 56.20L101.07 50.48L95.80 48.86L91.89 52.96L93.25 58.67L98.51 60.29ZM114.17 43.91L112.81 38.19L107.54 36.57L103.63 40.67L104.98 46.38L110.25 48.01ZM80.00 44.01L78.64 38.29L73.38 36.67L69.47 40.77L70.83 46.49L76.09 48.11ZM70.83 46.49L69.47 40.77L64.21 39.16L60.30 43.26L61.66 48.97L66.92 50.59ZM82.55 34.19L81.20 28.47L75.93 26.86L72.02 30.96L73.38 36.67L78.64 38.29ZM73.38 36.67L72.02 30.96L66.75 29.34L62.85 33.44L64.21 39.16L69.47 40.77ZM86.62 51.34L85.27 45.62L80.00 44.01L76.09 48.11L77.45 53.82L82.72 55.44ZM77.45 53.82L76.09 48.11L70.83 46.49L66.92 50.59L68.28 56.30L73.55 57.92ZM89.18 41.52L87.82 35.81L82.55 34.19L78.64 38.29L80.00 44.01L85.27 45.62ZM101.37 92.96L100.02 87.24L94.76 85.62L90.85 89.71L92.20 95.42L97.46 97.04ZM92.20 95.42L90.85 89.71L85.59 88.09L81.69 92.18L83.04 97.89L88.30 99.51ZM103.93 83.15L102.57 77.44L97.31 75.82L93.40 79.91L94.76 85.62L100.02 87.24ZM94.76 85.62L93.40 79.91L88.14 78.29L84.23 82.38L85.59 88.09L90.85 89.71ZM107.98 100.29L106.63 94.58L101.37 92.96L97.46 97.04L98.82 102.75L104.07 104.38ZM98.82 102.75L97.46 97.04L92.20 95.42L88.30 99.51L89.65 105.22L94.91 106.84ZM110.54 90.49L109.19 84.78L103.93 83.15L100.02 87.24L101.37 92.96L106.63 94.58ZM76.43 90.57L75.07 84.86L69.81 83.24L65.91 87.33L67.27 93.04L72.53 94.66ZM67.27 93.04L65.91 87.33L60.65 85.72L56.76 89.81L58.11 95.51L63.37 97.13ZM78.97 80.76L77.62 75.05L72.36 73.44L68.45 77.53L69.81 83.24L75.07 84.86ZM69.81 83.24L68.45 77.53L63.20 75.91L59.30 80.01L60.65 85.72L65.91 87.33ZM83.04 97.89L81.69 92.18L76.43 90.57L72.53 94.66L73.88 100.36L79.14 101.98ZM73.88 100.36L72.53 94.66L67.27 93.04L63.37 97.13L64.73 102.84L69.98 104.45ZM85.59 88.09L84.23 82.38L78.97 80.76L75.07 84.86L76.43 90.57L81.69 92.18ZM115.66 70.88L114.31 65.16L109.04 63.54L105.13 67.63L106.48 73.35L111.75 74.97ZM106.48 73.35L105.13 67.63L99.87 66.01L95.96 70.10L97.31 75.82L102.57 77.44ZM118.22 61.07L116.87 55.35L111.60 53.73L107.69 57.82L109.04 63.54L114.31 65.16ZM109.04 63.54L107.69 57.82L102.42 56.20L98.51 60.29L99.87 66.01L105.13 67.63ZM122.28 78.22L120.93 72.50L115.66 70.88L111.75 74.97L113.10 80.69L118.36 82.31ZM113.10 80.69L111.75 74.97L106.48 73.35L102.57 77.44L103.93 83.15L109.19 84.78ZM124.84 68.41L123.49 62.69L118.22 61.07L114.31 65.16L115.66 70.88L120.93 72.50ZM26.59 85.84L25.23 80.14L19.97 78.53L16.08 82.63L17.45 88.33L22.70 89.94ZM17.45 88.33L16.08 82.63L10.83 81.02L6.94 85.12L8.31 90.82L13.56 92.42ZM29.12 76.04L27.76 70.34L22.50 68.73L18.61 72.83L19.97 78.53L25.23 80.14ZM19.97 78.53L18.61 72.83L13.35 71.22L9.47 75.32L10.83 81.02L16.08 82.63ZM33.20 93.16L31.84 87.45L26.59 85.84L22.70 89.94L24.06 95.64L29.31 97.25ZM24.06 95.64L22.70 89.94L17.45 88.33L13.56 92.42L14.92 98.12L20.17 99.73ZM35.73 83.36L34.37 77.65L29.12 76.04L25.23 80.14L26.59 85.84L31.84 87.45ZM8.31 90.82L6.94 85.12L1.69 83.51L-2.19 87.61L-0.82 93.31L4.42 94.91ZM10.83 81.02L9.47 75.32L4.21 73.71L0.33 77.81L1.69 83.51L6.94 85.12ZM40.80 63.75L39.44 58.05L34.18 56.44L30.29 60.54L31.65 66.24L36.91 67.85ZM31.65 66.24L30.29 60.54L25.03 58.93L21.14 63.03L22.50 68.73L27.76 70.34ZM43.34 53.95L41.98 48.24L36.71 46.63L32.82 50.73L34.18 56.44L39.44 58.05ZM34.18 56.44L32.82 50.73L27.56 49.12L23.66 53.22L25.03 58.93L30.29 60.54ZM47.42 71.07L46.06 65.37L40.80 63.75L36.91 67.85L38.27 73.56L43.52 75.17ZM38.27 73.56L36.91 67.85L31.65 66.24L27.76 70.34L29.12 76.04L34.37 77.65ZM49.96 61.27L48.60 55.56L43.34 53.95L39.44 58.05L40.80 63.75L46.06 65.37ZM18.41 51.61L17.04 45.91L11.78 44.30L7.89 48.40L9.26 54.11L14.51 55.71ZM22.50 68.73L21.14 63.03L15.88 61.42L11.99 65.52L13.35 71.22L18.61 72.83ZM25.03 58.93L23.66 53.22L18.41 51.61L14.51 55.71L15.88 61.42L21.14 63.03ZM37.29 110.26L35.93 104.56L30.68 102.95L26.79 107.04L28.15 112.74L33.40 114.35ZM28.15 112.74L26.79 107.04L21.54 105.43L17.65 109.52L19.01 115.22L24.26 116.83ZM39.82 100.47L38.46 94.77L33.20 93.16L29.31 97.25L30.68 102.95L35.93 104.56ZM30.68 102.95L29.31 97.25L24.06 95.64L20.17 99.73L21.54 105.43L26.79 107.04ZM43.90 117.57L42.54 111.87L37.29 110.26L33.40 114.35L34.76 120.05L40.01 121.66ZM34.76 120.05L33.40 114.35L28.15 112.74L24.26 116.83L25.62 122.53L30.87 124.14ZM46.43 107.78L45.07 102.08L39.82 100.47L35.93 104.56L37.29 110.26L42.54 111.87ZM12.40 107.91L11.04 102.22L5.79 100.61L1.91 104.70L3.27 110.40L8.52 112.00ZM3.27 110.40L1.91 104.70L-3.34 103.10L-7.22 107.19L-5.86 112.88L-0.61 114.49ZM14.92 98.12L13.56 92.42L8.31 90.82L4.42 94.91L5.79 100.61L11.04 102.22ZM5.79 100.61L4.42 94.91L-0.82 93.31L-4.71 97.40L-3.34 103.10L1.91 104.70ZM19.01 115.22L17.65 109.52L12.40 107.91L8.52 112.00L9.88 117.70L15.13 119.31ZM9.88 117.70L8.52 112.00L3.27 110.40L-0.61 114.49L0.75 120.18L6.00 121.79ZM21.54 105.43L20.17 99.73L14.92 98.12L11.04 102.22L12.40 107.91L17.65 109.52ZM51.50 88.19L50.14 82.49L44.88 80.88L40.99 84.97L42.35 90.67L47.60 92.29ZM42.35 90.67L40.99 84.97L35.73 83.36L31.84 87.45L33.20 93.16L38.46 94.77ZM54.04 78.39L52.68 72.69L47.42 71.07L43.52 75.17L44.88 80.88L50.14 82.49ZM44.88 80.88L43.52 75.17L38.27 73.56L34.37 77.65L35.73 83.36L40.99 84.97ZM58.11 95.51L56.76 89.81L51.50 88.19L47.60 92.29L48.96 97.99L54.22 99.60ZM48.96 97.99L47.60 92.29L42.35 90.67L38.46 94.77L39.82 100.47L45.07 102.08ZM60.65 85.72L59.30 80.01L54.04 78.39L50.14 82.49L51.50 88.19L56.76 89.81ZM108.60 -0.26L107.25 -5.98L101.97 -7.60L98.05 -3.49L99.41 2.23L104.68 3.85ZM99.41 2.23L98.05 -3.49L92.78 -5.11L88.86 -1.01L90.22 4.72L95.49 6.34ZM115.23 7.09L113.88 1.37L108.60 -0.26L104.68 3.85L106.04 9.57L111.31 11.20ZM106.04 9.57L104.68 3.85L99.41 2.23L95.49 6.34L96.85 12.06L102.12 13.68ZM117.80 -2.74L116.45 -8.47L111.17 -10.09L107.25 -5.98L108.60 -0.26L113.88 1.37ZM83.59 -2.62L82.23 -8.35L76.95 -9.96L73.04 -5.85L74.40 -0.13L79.67 1.48ZM74.40 -0.13L73.04 -5.85L67.77 -7.47L63.86 -3.36L65.22 2.36L70.49 3.98ZM90.22 4.72L88.86 -1.01L83.59 -2.62L79.67 1.48L81.03 7.21L86.30 8.82ZM81.03 7.21L79.67 1.48L74.40 -0.13L70.49 3.98L71.85 9.70L77.12 11.31ZM119.30 24.27L117.94 18.54L112.67 16.92L108.75 21.02L110.10 26.75L115.38 28.37ZM110.10 26.75L108.75 21.02L103.48 19.40L99.56 23.50L100.92 29.23L106.19 30.85ZM121.86 14.44L120.51 8.71L115.23 7.09L111.31 11.20L112.67 16.92L117.94 18.54ZM112.67 16.92L111.31 11.20L106.04 9.57L102.12 13.68L103.48 19.40L108.75 21.02ZM125.92 31.61L124.57 25.89L119.30 24.27L115.38 28.37L116.73 34.09L122.00 35.71ZM116.73 34.09L115.38 28.37L110.10 26.75L106.19 30.85L107.54 36.57L112.81 38.19ZM128.49 21.79L127.14 16.06L121.86 14.44L117.94 18.54L119.30 24.27L124.57 25.89ZM94.29 21.88L92.93 16.16L87.66 14.55L83.75 18.65L85.11 24.37L90.38 25.99ZM85.11 24.37L83.75 18.65L78.48 17.03L74.57 21.14L75.93 26.86L81.20 28.47ZM96.85 12.06L95.49 6.34L90.22 4.72L86.30 8.82L87.66 14.55L92.93 16.16ZM87.66 14.55L86.30 8.82L81.03 7.21L77.12 11.31L78.48 17.03L83.75 18.65ZM100.92 29.23L99.56 23.50L94.29 21.88L90.38 25.99L91.73 31.71L97.00 33.33ZM91.73 31.71L90.38 25.99L85.11 24.37L81.20 28.47L82.55 34.19L87.82 35.81ZM103.48 19.40L102.12 13.68L96.85 12.06L92.93 16.16L94.29 21.88L99.56 23.50ZM133.64 2.13L132.28 -3.60L127.00 -5.22L123.08 -1.12L124.43 4.61L129.71 6.23ZM124.43 4.61L123.08 -1.12L117.80 -2.74L113.88 1.37L115.23 7.09L120.51 8.71ZM140.27 9.49L138.91 3.76L133.64 2.13L129.71 6.23L131.06 11.96L136.34 13.59ZM131.06 11.96L129.71 6.23L124.43 4.61L120.51 8.71L121.86 14.44L127.14 16.06ZM142.84 -0.35L141.49 -6.08L136.21 -7.70L132.28 -3.60L133.64 2.13L138.91 3.76ZM228.16 259.37L226.83 253.67L221.58 252.02L217.66 256.07L218.99 261.77L224.24 263.42ZM218.99 261.77L217.66 256.07L212.41 254.42L208.49 258.48L209.83 264.18L215.07 265.83ZM203.25 256.83L201.91 251.13L196.67 249.49L192.75 253.54L194.09 259.24L199.34 260.89ZM194.09 259.24L192.75 253.54L187.51 251.90L183.60 255.96L184.94 261.65L190.18 263.30ZM15.19 261.55L13.84 255.88L8.61 254.26L4.74 258.33L6.10 264.00L11.33 265.61ZM51.59 251.76L50.24 246.08L45.01 244.46L41.13 248.53L42.49 254.21L47.72 255.83ZM42.49 254.21L41.13 248.53L35.90 246.91L32.03 250.98L33.39 256.65L38.61 258.27ZM54.12 242.02L52.77 236.33L47.53 234.72L43.66 238.78L45.01 244.46L50.24 246.08ZM45.01 244.46L43.66 238.78L38.42 237.17L34.55 241.23L35.90 246.91L41.13 248.53ZM58.18 259.06L56.82 253.38L51.59 251.76L47.72 255.83L49.07 261.51L54.30 263.12ZM49.07 261.51L47.72 255.83L42.49 254.21L38.61 258.27L39.97 263.95L45.19 265.57ZM60.70 249.32L59.35 243.64L54.12 242.02L50.24 246.08L51.59 251.76L56.82 253.38ZM26.80 249.36L25.45 243.68L20.22 242.07L16.35 246.13L17.70 251.81L22.93 253.42ZM17.70 251.81L16.35 246.13L11.12 244.52L7.25 248.59L8.61 254.26L13.84 255.88ZM29.32 239.62L27.96 233.94L22.73 232.32L18.86 236.39L20.22 242.07L25.45 243.68ZM20.22 242.07L18.86 236.39L13.63 234.78L9.76 238.85L11.12 244.52L16.35 246.13ZM33.39 256.65L32.03 250.98L26.80 249.36L22.93 253.42L24.29 259.10L29.51 260.72ZM24.29 259.10L22.93 253.42L17.70 251.81L13.84 255.88L15.19 261.55L20.42 263.16ZM35.90 246.91L34.55 241.23L29.32 239.62L25.45 243.68L26.80 249.36L32.03 250.98ZM259.50 205.74L258.17 200.02L252.91 198.37L248.98 202.43L250.31 208.14L255.57 209.80ZM262.11 195.96L260.78 190.24L255.51 188.59L251.58 192.65L252.91 198.37L258.17 200.02ZM266.09 213.10L264.76 207.39L259.50 205.74L255.57 209.80L256.90 215.51L262.16 217.16ZM229.34 222.73L228.01 217.02L222.76 215.38L218.84 219.44L220.17 225.14L225.42 226.79ZM220.17 225.14L218.84 219.44L213.58 217.79L209.66 221.85L211.00 227.56L216.25 229.20ZM231.94 212.96L230.61 207.25L225.35 205.61L221.42 209.67L222.76 215.38L228.01 217.02ZM222.76 215.38L221.42 209.67L216.17 208.02L212.25 212.08L213.58 217.79L218.84 219.44ZM235.93 230.09L234.60 224.38L229.34 222.73L225.42 226.79L226.75 232.50L232.01 234.15ZM226.75 232.50L225.42 226.79L220.17 225.14L216.25 229.20L217.58 234.91L222.83 236.56ZM238.52 220.32L237.19 214.61L231.94 212.96L228.01 217.02L229.34 222.73L234.60 224.38ZM204.41 220.21L203.07 214.50L197.82 212.86L193.90 216.92L195.24 222.62L200.49 224.27ZM195.24 222.62L193.90 216.92L188.65 215.28L184.74 219.34L186.08 225.04L191.33 226.68ZM206.99 210.44L205.66 204.73L200.40 203.09L196.48 207.15L197.82 212.86L203.07 214.50ZM197.82 212.86L196.48 207.15L191.23 205.51L187.31 209.57L188.65 215.28L193.90 216.92ZM211.00 227.56L209.66 221.85L204.41 220.21L200.49 224.27L201.83 229.97L207.08 231.61ZM201.83 229.97L200.49 224.27L195.24 222.62L191.33 226.68L192.66 232.39L197.91 234.03ZM213.58 217.79L212.25 212.08L206.99 210.44L203.07 214.50L204.41 220.21L209.66 221.85ZM243.72 200.78L242.39 195.07L237.13 193.42L233.20 197.48L234.53 203.19L239.79 204.84ZM234.53 203.19L233.20 197.48L227.94 195.83L224.02 199.90L225.35 205.61L230.61 207.25ZM246.32 191.00L244.99 185.29L239.73 183.64L235.80 187.70L237.13 193.42L242.39 195.07ZM237.13 193.42L235.80 187.70L230.54 186.05L226.61 190.12L227.94 195.83L233.20 197.48ZM250.31 208.14L248.98 202.43L243.72 200.78L239.79 204.84L241.12 210.55L246.38 212.20ZM241.12 210.55L239.79 204.84L234.53 203.19L230.61 207.25L231.94 212.96L237.19 214.61ZM252.91 198.37L251.58 192.65L246.32 191.00L242.39 195.07L243.72 200.78L248.98 202.43ZM218.76 198.25L217.42 192.54L212.17 190.89L208.24 194.96L209.58 200.67L214.83 202.31ZM209.58 200.67L208.24 194.96L202.99 193.31L199.07 197.38L200.40 203.09L205.66 204.73ZM221.35 188.47L220.01 182.76L214.75 181.11L210.83 185.18L212.17 190.89L217.42 192.54ZM212.17 190.89L210.83 185.18L205.57 183.54L201.65 187.60L202.99 193.31L208.24 194.96ZM225.35 205.61L224.02 199.90L218.76 198.25L214.83 202.31L216.17 208.02L221.42 209.67ZM216.17 208.02L214.83 202.31L209.58 200.67L205.66 204.73L206.99 210.44L212.25 212.08ZM227.94 195.83L226.61 190.12L221.35 188.47L217.42 192.54L218.76 198.25L224.02 199.90ZM239.92 247.21L238.59 241.50L233.34 239.85L229.42 243.91L230.75 249.61L236.00 251.26ZM230.75 249.61L229.42 243.91L224.16 242.26L220.24 246.32L221.58 252.02L226.83 253.67ZM242.51 237.45L241.18 231.74L235.93 230.09L232.01 234.15L233.34 239.85L238.59 241.50ZM233.34 239.85L232.01 234.15L226.75 232.50L222.83 236.56L224.16 242.26L229.42 243.91ZM246.50 254.57L245.17 248.86L239.92 247.21L236.00 251.26L237.33 256.97L242.58 258.62ZM237.33 256.97L236.00 251.26L230.75 249.61L226.83 253.67L228.16 259.37L233.41 261.02ZM249.10 244.81L247.77 239.10L242.51 237.45L238.59 241.50L239.92 247.21L245.17 248.86ZM214.99 244.67L213.66 238.96L208.41 237.32L204.49 241.38L205.83 247.08L211.08 248.72ZM205.83 247.08L204.49 241.38L199.25 239.73L195.33 243.79L196.67 249.49L201.91 251.13ZM217.58 234.91L216.25 229.20L211.00 227.56L207.08 231.61L208.41 237.32L213.66 238.96ZM208.41 237.32L207.08 231.61L201.83 229.97L197.91 234.03L199.25 239.73L204.49 241.38ZM221.58 252.02L220.24 246.32L214.99 244.67L211.08 248.72L212.41 254.42L217.66 256.07ZM212.41 254.42L211.08 248.72L205.83 247.08L201.91 251.13L203.25 256.83L208.49 258.48ZM224.16 242.26L222.83 236.56L217.58 234.91L213.66 238.96L214.99 244.67L220.24 246.32ZM254.30 225.28L252.97 219.57L247.71 217.92L243.78 221.97L245.11 227.68L250.37 229.34ZM245.11 227.68L243.78 221.97L238.52 220.32L234.60 224.38L235.93 230.09L241.18 231.74ZM256.90 215.51L255.57 209.80L250.31 208.14L246.38 212.20L247.71 217.92L252.97 219.57ZM247.71 217.92L246.38 212.20L241.12 210.55L237.19 214.61L238.52 220.32L243.78 221.97ZM260.88 232.64L259.55 226.93L254.30 225.28L250.37 229.34L251.70 235.05L256.95 236.70ZM251.70 235.05L250.37 229.34L245.11 227.68L241.18 231.74L242.51 237.45L247.77 239.10ZM263.48 222.88L262.16 217.16L256.90 215.51L252.97 219.57L254.30 225.28L259.55 226.93ZM247.53 154.28L246.20 148.56L240.93 146.91L237.00 150.98L238.33 156.70L243.60 158.35ZM238.33 156.70L237.00 150.98L231.73 149.33L227.80 153.41L229.13 159.12L234.40 160.77ZM250.13 144.49L248.80 138.76L243.53 137.11L239.60 141.19L240.93 146.91L246.20 148.56ZM240.93 146.91L239.60 141.19L234.33 139.54L230.39 143.61L231.73 149.33L237.00 150.98ZM254.13 161.65L252.80 155.93L247.53 154.28L243.60 158.35L244.93 164.07L250.19 165.72ZM244.93 164.07L243.60 158.35L238.33 156.70L234.40 160.77L235.73 166.49L240.99 168.14ZM256.74 151.86L255.40 146.14L250.13 144.49L246.20 148.56L247.53 154.28L252.80 155.93ZM222.53 151.76L221.20 146.04L215.93 144.40L212.00 148.47L213.34 154.19L218.60 155.83ZM213.34 154.19L212.00 148.47L206.74 146.83L202.81 150.90L204.15 156.62L209.41 158.26ZM225.13 141.97L223.79 136.25L218.52 134.60L214.59 138.68L215.93 144.40L221.20 146.04ZM215.93 144.40L214.59 138.68L209.33 137.04L205.40 141.11L206.74 146.83L212.00 148.47ZM229.13 159.12L227.80 153.41L222.53 151.76L218.60 155.83L219.94 161.55L225.20 163.19ZM219.94 161.55L218.60 155.83L213.34 154.19L209.41 158.26L210.75 163.97L216.01 165.62ZM231.73 149.33L230.39 143.61L225.13 141.97L221.20 146.04L222.53 151.76L227.80 153.41ZM261.95 132.27L260.62 126.54L255.35 124.89L251.41 128.97L252.74 134.69L258.01 136.34ZM252.74 134.69L251.41 128.97L246.14 127.32L242.20 131.39L243.53 137.11L248.80 138.76ZM264.57 122.47L263.23 116.74L257.96 115.09L254.02 119.16L255.35 124.89L260.62 126.54ZM255.35 124.89L254.02 119.16L248.74 117.52L244.80 121.59L246.14 127.32L251.41 128.97ZM259.34 142.07L258.01 136.34L252.74 134.69L248.80 138.76L250.13 144.49L255.40 146.14ZM236.93 129.74L235.59 124.02L230.32 122.37L226.39 126.45L227.72 132.17L232.99 133.82ZM227.72 132.17L226.39 126.45L221.12 124.81L217.19 128.88L218.52 134.60L223.79 136.25ZM239.53 119.94L238.20 114.22L232.92 112.57L228.99 116.65L230.32 122.37L235.59 124.02ZM230.32 122.37L228.99 116.65L223.72 115.01L219.78 119.08L221.12 124.81L226.39 126.45ZM243.53 137.11L242.20 131.39L236.93 129.74L232.99 133.82L234.33 139.54L239.60 141.19ZM234.33 139.54L232.99 133.82L227.72 132.17L223.79 136.25L225.13 141.97L230.39 143.61ZM246.14 127.32L244.80 121.59L239.53 119.94L235.59 124.02L236.93 129.74L242.20 131.39ZM258.12 178.81L256.79 173.09L251.52 171.44L247.59 175.51L248.92 181.22L254.18 182.87ZM248.92 181.22L247.59 175.51L242.33 173.86L238.39 177.92L239.73 183.64L244.99 185.29ZM260.73 169.02L259.40 163.30L254.13 161.65L250.19 165.72L251.52 171.44L256.79 173.09ZM251.52 171.44L250.19 165.72L244.93 164.07L240.99 168.14L242.33 173.86L247.59 175.51ZM264.71 186.18L263.38 180.46L258.12 178.81L254.18 182.87L255.51 188.59L260.78 190.24ZM255.51 188.59L254.18 182.87L248.92 181.22L244.99 185.29L246.32 191.00L251.58 192.65ZM233.13 176.27L231.80 170.56L226.54 168.91L222.61 172.98L223.94 178.69L229.20 180.34ZM223.94 178.69L222.61 172.98L217.34 171.33L213.42 175.40L214.75 181.11L220.01 182.76ZM235.73 166.49L234.40 160.77L229.13 159.12L225.20 163.19L226.54 168.91L231.80 170.56ZM226.54 168.91L225.20 163.19L219.94 161.55L216.01 165.62L217.34 171.33L222.61 172.98ZM239.73 183.64L238.39 177.92L233.13 176.27L229.20 180.34L230.54 186.05L235.80 187.70ZM230.54 186.05L229.20 180.34L223.94 178.69L220.01 182.76L221.35 188.47L226.61 190.12ZM242.33 173.86L240.99 168.14L235.73 166.49L231.80 170.56L233.13 176.27L238.39 177.92ZM263.33 159.23L262.00 153.51L256.74 151.86L252.80 155.93L254.13 161.65L259.40 163.30ZM265.94 149.44L264.61 143.72L259.34 142.07L255.40 146.14L256.74 151.86L262.00 153.51ZM253.08 261.93L251.75 256.22L246.50 254.57L242.58 258.62L243.91 264.32L249.16 265.98ZM264.86 249.77L263.53 244.06L258.28 242.41L254.35 246.46L255.68 252.17L260.93 253.82ZM255.68 252.17L254.35 246.46L249.10 244.81L245.17 248.86L246.50 254.57L251.75 256.22ZM258.28 242.41L256.95 236.70L251.70 235.05L247.77 239.10L249.10 244.81L254.35 246.46ZM262.26 259.53L260.93 253.82L255.68 252.17L251.75 256.22L253.08 261.93L258.33 263.58ZM119.06 188.32L117.72 182.62L112.47 180.99L108.57 185.07L109.92 190.76L115.16 192.39ZM109.92 190.76L108.57 185.07L103.32 183.44L99.42 187.51L100.77 193.21L106.02 194.83ZM121.62 178.55L120.27 172.85L115.02 171.22L111.12 175.29L112.47 180.99L117.72 182.62ZM112.47 180.99L111.12 175.29L105.87 173.67L101.97 177.74L103.32 183.44L108.57 185.07ZM125.66 195.65L124.31 189.95L119.06 188.32L115.16 192.39L116.51 198.09L121.76 199.72ZM116.51 198.09L115.16 192.39L109.92 190.76L106.02 194.83L107.37 200.53L112.61 202.16ZM128.21 185.88L126.87 180.18L121.62 178.55L117.72 182.62L119.06 188.32L124.31 189.95ZM94.18 185.89L92.83 180.19L87.58 178.57L83.69 182.64L85.04 188.34L90.28 189.96ZM85.04 188.34L83.69 182.64L78.44 181.02L74.55 185.09L75.90 190.79L81.15 192.41ZM96.72 176.12L95.37 170.42L90.13 168.79L86.23 172.87L87.58 178.57L92.83 180.19ZM87.58 178.57L86.23 172.87L80.98 171.25L77.09 175.32L78.44 181.02L83.69 182.64ZM100.77 193.21L99.42 187.51L94.18 185.89L90.28 189.96L91.63 195.65L96.88 197.28ZM91.63 195.65L90.28 189.96L85.04 188.34L81.15 192.41L82.50 198.10L87.74 199.73ZM103.32 183.44L101.97 177.74L96.72 176.12L92.83 180.19L94.18 185.89L99.42 187.51ZM133.33 166.33L131.99 160.62L126.73 159.00L122.83 163.07L124.17 168.77L129.43 170.40ZM124.17 168.77L122.83 163.07L117.58 161.44L113.67 165.52L115.02 171.22L120.27 172.85ZM135.89 156.55L134.55 150.84L129.29 149.21L125.39 153.29L126.73 159.00L131.99 160.62ZM126.73 159.00L125.39 153.29L120.13 151.66L116.23 155.74L117.58 161.44L122.83 163.07ZM139.93 173.66L138.59 167.96L133.33 166.33L129.43 170.40L130.77 176.11L136.02 177.74ZM130.77 176.11L129.43 170.40L124.17 168.77L120.27 172.85L121.62 178.55L126.87 180.18ZM142.49 163.89L141.15 158.18L135.89 156.55L131.99 160.62L133.33 166.33L138.59 167.96ZM108.42 163.89L107.07 158.19L101.82 156.57L97.92 160.64L99.27 166.34L104.52 167.97ZM99.27 166.34L97.92 160.64L92.67 159.02L88.77 163.10L90.13 168.79L95.37 170.42ZM110.97 154.11L109.63 148.41L104.37 146.78L100.47 150.86L101.82 156.57L107.07 158.19ZM101.82 156.57L100.47 150.86L95.22 149.24L91.32 153.32L92.67 159.02L97.92 160.64ZM115.02 171.22L113.67 165.52L108.42 163.89L104.52 167.97L105.87 173.67L111.12 175.29ZM105.87 173.67L104.52 167.97L99.27 166.34L95.37 170.42L96.72 176.12L101.97 177.74ZM117.58 161.44L116.23 155.74L110.97 154.11L107.07 158.19L108.42 163.89L113.67 165.52ZM129.69 212.74L128.35 207.05L123.10 205.42L119.20 209.48L120.55 215.18L125.79 216.81ZM120.55 215.18L119.20 209.48L113.96 207.85L110.06 211.92L111.41 217.62L116.65 219.24ZM132.25 202.98L130.90 197.28L125.66 195.65L121.76 199.72L123.10 205.42L128.35 207.05ZM123.10 205.42L121.76 199.72L116.51 198.09L112.61 202.16L113.96 207.85L119.20 209.48ZM136.28 220.07L134.94 214.37L129.69 212.74L125.79 216.81L127.14 222.50L132.38 224.14ZM127.14 222.50L125.79 216.81L120.55 215.18L116.65 219.24L118.00 224.94L123.24 226.57ZM138.84 210.31L137.50 204.61L132.25 202.98L128.35 207.05L129.69 212.74L134.94 214.37ZM104.82 210.29L103.47 204.60L98.23 202.97L94.33 207.04L95.68 212.74L100.92 214.36ZM95.68 212.74L94.33 207.04L89.09 205.42L85.20 209.49L86.55 215.18L91.79 216.80ZM107.37 200.53L106.02 194.83L100.77 193.21L96.88 197.28L98.23 202.97L103.47 204.60ZM98.23 202.97L96.88 197.28L91.63 195.65L87.74 199.73L89.09 205.42L94.33 207.04ZM111.41 217.62L110.06 211.92L104.82 210.29L100.92 214.36L102.27 220.05L107.51 221.68ZM102.27 220.05L100.92 214.36L95.68 212.74L91.79 216.80L93.14 222.49L98.38 224.12ZM113.96 207.85L112.61 202.16L107.37 200.53L103.47 204.60L104.82 210.29L110.06 211.92ZM143.96 190.77L142.62 185.07L137.37 183.44L133.46 187.51L134.81 193.21L140.06 194.84ZM134.81 193.21L133.46 187.51L128.21 185.88L124.31 189.95L125.66 195.65L130.90 197.28ZM146.53 181.00L145.18 175.30L139.93 173.66L136.02 177.74L137.37 183.44L142.62 185.07ZM137.37 183.44L136.02 177.74L130.77 176.11L126.87 180.18L128.21 185.88L133.46 187.51ZM150.56 198.11L149.21 192.41L143.96 190.77L140.06 194.84L141.40 200.54L146.65 202.18ZM141.40 200.54L140.06 194.84L134.81 193.21L130.90 197.28L132.25 202.98L137.50 204.61ZM153.12 188.34L151.78 182.63L146.53 181.00L142.62 185.07L143.96 190.77L149.21 192.41ZM55.11 205.45L53.76 199.77L48.52 198.15L44.64 202.22L46.00 207.91L51.23 209.53ZM46.00 207.91L44.64 202.22L39.40 200.61L35.52 204.68L36.88 210.36L42.11 211.98ZM57.65 195.69L56.29 190.00L51.05 188.39L47.17 192.46L48.52 198.15L53.76 199.77ZM48.52 198.15L47.17 192.46L41.93 190.84L38.05 194.92L39.40 200.61L44.64 202.22ZM61.71 212.76L60.35 207.07L55.11 205.45L51.23 209.53L52.59 215.21L57.82 216.83ZM52.59 215.21L51.23 209.53L46.00 207.91L42.11 211.98L43.47 217.66L48.70 219.28ZM64.24 203.00L62.89 197.31L57.65 195.69L53.76 199.77L55.11 205.45L60.35 207.07ZM30.29 203.06L28.93 197.38L23.69 195.77L19.82 199.84L21.18 205.52L26.41 207.14ZM21.18 205.52L19.82 199.84L14.58 198.23L10.71 202.30L12.07 207.98L17.30 209.60ZM32.81 193.30L31.45 187.62L26.21 186.00L22.33 190.08L23.69 195.77L28.93 197.38ZM23.69 195.77L22.33 190.08L17.10 188.47L13.22 192.54L14.58 198.23L19.82 199.84ZM36.88 210.36L35.52 204.68L30.29 203.06L26.41 207.14L27.77 212.82L33.00 214.43ZM27.77 212.82L26.41 207.14L21.18 205.52L17.30 209.60L18.66 215.28L23.89 216.89ZM39.40 200.61L38.05 194.92L32.81 193.30L28.93 197.38L30.29 203.06L35.52 204.68ZM69.31 183.47L67.95 177.78L62.71 176.16L58.82 180.24L60.18 185.93L65.42 187.55ZM60.18 185.93L58.82 180.24L53.58 178.62L49.69 182.69L51.05 188.39L56.29 190.00ZM71.85 173.70L70.49 168.01L65.25 166.39L61.36 170.47L62.71 176.16L67.95 177.78ZM62.71 176.16L61.36 170.47L56.11 168.85L52.23 172.93L53.58 178.62L58.82 180.24ZM75.90 190.79L74.55 185.09L69.31 183.47L65.42 187.55L66.77 193.24L72.01 194.86ZM66.77 193.24L65.42 187.55L60.18 185.93L56.29 190.00L57.65 195.69L62.89 197.31ZM78.44 181.02L77.09 175.32L71.85 173.70L67.95 177.78L69.31 183.47L74.55 185.09ZM44.45 181.08L43.10 175.39L37.86 173.77L33.97 177.85L35.33 183.54L40.57 185.15ZM35.33 183.54L33.97 177.85L28.73 176.24L24.85 180.32L26.21 186.00L31.45 187.62ZM46.98 171.31L45.63 165.62L40.38 164.00L36.50 168.08L37.86 173.77L43.10 175.39ZM37.86 173.77L36.50 168.08L31.26 166.47L27.38 170.55L28.73 176.24L33.97 177.85ZM51.05 188.39L49.69 182.69L44.45 181.08L40.57 185.15L41.93 190.84L47.17 192.46ZM41.93 190.84L40.57 185.15L35.33 183.54L31.45 187.62L32.81 193.30L38.05 194.92ZM53.58 178.62L52.23 172.93L46.98 171.31L43.10 175.39L44.45 181.08L49.69 182.69ZM65.76 229.82L64.41 224.14L59.18 222.52L55.29 226.58L56.65 232.27L61.88 233.89ZM56.65 232.27L55.29 226.58L50.06 224.97L46.18 229.03L47.53 234.72L52.77 236.33ZM68.30 220.07L66.94 214.38L61.71 212.76L57.82 216.83L59.18 222.52L64.41 224.14ZM59.18 222.52L57.82 216.83L52.59 215.21L48.70 219.28L50.06 224.97L55.29 226.58ZM72.35 237.13L71.00 231.44L65.76 229.82L61.88 233.89L63.23 239.57L68.47 241.19ZM63.23 239.57L61.88 233.89L56.65 232.27L52.77 236.33L54.12 242.02L59.35 243.64ZM74.88 227.38L73.53 221.69L68.30 220.07L64.41 224.14L65.76 229.82L71.00 231.44ZM40.95 227.42L39.59 221.73L34.36 220.12L30.48 224.19L31.84 229.87L37.07 231.48ZM31.84 229.87L30.48 224.19L25.25 222.57L21.37 226.64L22.73 232.32L27.96 233.94ZM43.47 217.66L42.11 211.98L36.88 210.36L33.00 214.43L34.36 220.12L39.59 221.73ZM34.36 220.12L33.00 214.43L27.77 212.82L23.89 216.89L25.25 222.57L30.48 224.19ZM47.53 234.72L46.18 229.03L40.95 227.42L37.07 231.48L38.42 237.17L43.66 238.78ZM38.42 237.17L37.07 231.48L31.84 229.87L27.96 233.94L29.32 239.62L34.55 241.23ZM50.06 224.97L48.70 219.28L43.47 217.66L39.59 221.73L40.95 227.42L46.18 229.03ZM79.96 207.86L78.61 202.17L73.37 200.55L69.48 204.62L70.83 210.31L76.07 211.93ZM70.83 210.31L69.48 204.62L64.24 203.00L60.35 207.07L61.71 212.76L66.94 214.38ZM82.50 198.10L81.15 192.41L75.90 190.79L72.01 194.86L73.37 200.55L78.61 202.17ZM73.37 200.55L72.01 194.86L66.77 193.24L62.89 197.31L64.24 203.00L69.48 204.62ZM86.55 215.18L85.20 209.49L79.96 207.86L76.07 211.93L77.42 217.62L82.66 219.25ZM77.42 217.62L76.07 211.93L70.83 210.31L66.94 214.38L68.30 220.07L73.53 221.69ZM89.09 205.42L87.74 199.73L82.50 198.10L78.61 202.17L79.96 207.86L85.20 209.49ZM136.98 119.85L135.64 114.13L130.38 112.50L126.46 116.59L127.81 122.30L133.07 123.93ZM127.81 122.30L126.46 116.59L121.20 114.96L117.29 119.05L118.64 124.75L123.90 126.38ZM139.55 110.05L138.20 104.34L132.94 102.71L129.03 106.79L130.38 112.50L135.64 114.13ZM130.38 112.50L129.03 106.79L123.77 105.17L119.85 109.25L121.20 114.96L126.46 116.59ZM143.59 127.19L142.24 121.48L136.98 119.85L133.07 123.93L134.42 129.64L139.68 131.27ZM134.42 129.64L133.07 123.93L127.81 122.30L123.90 126.38L125.25 132.09L130.51 133.72ZM146.16 117.39L144.81 111.68L139.55 110.05L135.64 114.13L136.98 119.85L142.24 121.48ZM112.04 117.42L110.69 111.71L105.43 110.09L101.52 114.17L102.87 119.88L108.13 121.50ZM102.87 119.88L101.52 114.17L96.26 112.55L92.36 116.64L93.71 122.34L98.97 123.96ZM114.59 107.63L113.24 101.91L107.98 100.29L104.07 104.38L105.43 110.09L110.69 111.71ZM105.43 110.09L104.07 104.38L98.82 102.75L94.91 106.84L96.26 112.55L101.52 114.17ZM118.64 124.75L117.29 119.05L112.04 117.42L108.13 121.50L109.48 127.21L114.74 128.84ZM109.48 127.21L108.13 121.50L102.87 119.88L98.97 123.96L100.32 129.67L105.57 131.29ZM121.20 114.96L119.85 109.25L114.59 107.63L110.69 111.71L112.04 117.42L117.29 119.05ZM151.30 97.79L149.96 92.08L144.69 90.45L140.77 94.53L142.12 100.25L147.38 101.88ZM142.12 100.25L140.77 94.53L135.51 92.91L131.59 96.99L132.94 102.71L138.20 104.34ZM153.88 87.99L152.53 82.27L147.26 80.64L143.34 84.73L144.69 90.45L149.96 92.08ZM144.69 90.45L143.34 84.73L138.08 83.10L134.16 87.19L135.51 92.91L140.77 94.53ZM157.91 105.14L156.57 99.43L151.30 97.79L147.38 101.88L148.73 107.60L153.99 109.23ZM148.73 107.60L147.38 101.88L142.12 100.25L138.20 104.34L139.55 110.05L144.81 111.68ZM160.49 95.34L159.14 89.62L153.88 87.99L149.96 92.08L151.30 97.79L156.57 99.43ZM126.33 95.37L124.98 89.65L119.71 88.02L115.80 92.11L117.15 97.83L122.42 99.45ZM117.15 97.83L115.80 92.11L110.54 90.49L106.63 94.58L107.98 100.29L113.24 101.91ZM128.89 85.56L127.54 79.85L122.28 78.22L118.36 82.31L119.71 88.02L124.98 89.65ZM119.71 88.02L118.36 82.31L113.10 80.69L109.19 84.78L110.54 90.49L115.80 92.11ZM132.94 102.71L131.59 96.99L126.33 95.37L122.42 99.45L123.77 105.17L129.03 106.79ZM123.77 105.17L122.42 99.45L117.15 97.83L113.24 101.91L114.59 107.63L119.85 109.25ZM135.51 92.91L134.16 87.19L128.89 85.56L124.98 89.65L126.33 95.37L131.59 96.99ZM147.63 144.32L146.28 138.61L141.02 136.98L137.11 141.06L138.46 146.77L143.72 148.40ZM138.46 146.77L137.11 141.06L131.86 139.43L127.95 143.51L129.29 149.21L134.55 150.84ZM150.20 134.53L148.85 128.82L143.59 127.19L139.68 131.27L141.02 136.98L146.28 138.61ZM141.02 136.98L139.68 131.27L134.42 129.64L130.51 133.72L131.86 139.43L137.11 141.06ZM154.23 151.66L152.89 145.95L147.63 144.32L143.72 148.40L145.06 154.10L150.32 155.74ZM145.06 154.10L143.72 148.40L138.46 146.77L134.55 150.84L135.89 156.55L141.15 158.18ZM156.80 141.87L155.46 136.16L150.20 134.53L146.28 138.61L147.63 144.32L152.89 145.95ZM122.69 141.88L121.34 136.17L116.09 134.54L112.18 138.62L113.53 144.33L118.78 145.96ZM113.53 144.33L112.18 138.62L106.93 137.00L103.02 141.08L104.37 146.78L109.63 148.41ZM125.25 132.09L123.90 126.38L118.64 124.75L114.74 128.84L116.09 134.54L121.34 136.17ZM116.09 134.54L114.74 128.84L109.48 127.21L105.57 131.29L106.93 137.00L112.18 138.62ZM129.29 149.21L127.95 143.51L122.69 141.88L118.78 145.96L120.13 151.66L125.39 153.29ZM120.13 151.66L118.78 145.96L113.53 144.33L109.63 148.41L110.97 154.11L116.23 155.74ZM131.86 139.43L130.51 133.72L125.25 132.09L121.34 136.17L122.69 141.88L127.95 143.51ZM161.95 122.29L160.60 116.58L155.34 114.94L151.42 119.02L152.77 124.74L158.03 126.37ZM152.77 124.74L151.42 119.02L146.16 117.39L142.24 121.48L143.59 127.19L148.85 128.82ZM164.52 112.49L163.18 106.78L157.91 105.14L153.99 109.23L155.34 114.94L160.60 116.58ZM155.34 114.94L153.99 109.23L148.73 107.60L144.81 111.68L146.16 117.39L151.42 119.02ZM168.55 129.64L167.21 123.93L161.95 122.29L158.03 126.37L159.37 132.08L164.63 133.72ZM159.37 132.08L158.03 126.37L152.77 124.74L148.85 128.82L150.20 134.53L155.46 136.16ZM171.13 119.84L169.79 114.13L164.52 112.49L160.60 116.58L161.95 122.29L167.21 123.93ZM72.86 137.05L71.51 131.35L66.26 129.74L62.36 133.82L63.72 139.52L68.97 141.14ZM63.72 139.52L62.36 133.82L57.11 132.20L53.22 136.29L54.58 141.98L59.83 143.60ZM75.40 127.27L74.05 121.57L68.80 119.95L64.90 124.03L66.26 129.74L71.51 131.35ZM66.26 129.74L64.90 124.03L59.65 122.42L55.76 126.50L57.11 132.20L62.36 133.82ZM79.47 144.37L78.11 138.67L72.86 137.05L68.97 141.14L70.32 146.84L75.57 148.46ZM70.32 146.84L68.97 141.14L63.72 139.52L59.83 143.60L61.18 149.30L66.43 150.92ZM82.01 134.59L80.66 128.89L75.40 127.27L71.51 131.35L72.86 137.05L78.11 138.67ZM47.97 134.67L46.61 128.97L41.37 127.36L37.48 131.45L38.84 137.14L44.08 138.76ZM38.84 137.14L37.48 131.45L32.23 129.83L28.34 133.92L29.70 139.61L34.95 141.23ZM50.51 124.89L49.15 119.19L43.90 117.57L40.01 121.66L41.37 127.36L46.61 128.97ZM41.37 127.36L40.01 121.66L34.76 120.05L30.87 124.14L32.23 129.83L37.48 131.45ZM54.58 141.98L53.22 136.29L47.97 134.67L44.08 138.76L45.44 144.45L50.69 146.07ZM45.44 144.45L44.08 138.76L38.84 137.14L34.95 141.23L36.31 146.92L41.55 148.53ZM57.11 132.20L55.76 126.50L50.51 124.89L46.61 128.97L47.97 134.67L53.22 136.29ZM87.10 115.01L85.75 109.31L80.49 107.69L76.59 111.78L77.95 117.48L83.20 119.10ZM77.95 117.48L76.59 111.78L71.34 110.16L67.44 114.24L68.80 119.95L74.05 121.57ZM89.65 105.22L88.30 99.51L83.04 97.89L79.14 101.98L80.49 107.69L85.75 109.31ZM80.49 107.69L79.14 101.98L73.88 100.36L69.98 104.45L71.34 110.16L76.59 111.78ZM93.71 122.34L92.36 116.64L87.10 115.01L83.20 119.10L84.56 124.80L89.81 126.43ZM84.56 124.80L83.20 119.10L77.95 117.48L74.05 121.57L75.40 127.27L80.66 128.89ZM96.26 112.55L94.91 106.84L89.65 105.22L85.75 109.31L87.10 115.01L92.36 116.64ZM62.19 112.63L60.83 106.92L55.58 105.31L51.68 109.40L53.04 115.10L58.29 116.71ZM53.04 115.10L51.68 109.40L46.43 107.78L42.54 111.87L43.90 117.57L49.15 119.19ZM64.73 102.84L63.37 97.13L58.11 95.51L54.22 99.60L55.58 105.31L60.83 106.92ZM55.58 105.31L54.22 99.60L48.96 97.99L45.07 102.08L46.43 107.78L51.68 109.40ZM68.80 119.95L67.44 114.24L62.19 112.63L58.29 116.71L59.65 122.42L64.90 124.03ZM59.65 122.42L58.29 116.71L53.04 115.10L49.15 119.19L50.51 124.89L55.76 126.50ZM71.34 110.16L69.98 104.45L64.73 102.84L60.83 106.92L62.19 112.63L67.44 114.24ZM83.53 161.47L82.17 155.78L76.92 154.15L73.03 158.23L74.38 163.93L79.63 165.55ZM74.38 163.93L73.03 158.23L67.78 156.61L63.89 160.69L65.25 166.39L70.49 168.01ZM86.07 151.70L84.72 146.00L79.47 144.37L75.57 148.46L76.92 154.15L82.17 155.78ZM76.92 154.15L75.57 148.46L70.32 146.84L66.43 150.92L67.78 156.61L73.03 158.23ZM90.13 168.79L88.77 163.10L83.53 161.47L79.63 165.55L80.98 171.25L86.23 172.87ZM80.98 171.25L79.63 165.55L74.38 163.93L70.49 168.01L71.85 173.70L77.09 175.32ZM92.67 159.02L91.32 153.32L86.07 151.70L82.17 155.78L83.53 161.47L88.77 163.10ZM58.65 159.08L57.29 153.38L52.04 151.76L48.16 155.84L49.51 161.54L54.76 163.15ZM49.51 161.54L48.16 155.84L42.91 154.23L39.03 158.31L40.38 164.00L45.63 165.62ZM61.18 149.30L59.83 143.60L54.58 141.98L50.69 146.07L52.04 151.76L57.29 153.38ZM52.04 151.76L50.69 146.07L45.44 144.45L41.55 148.53L42.91 154.23L48.16 155.84ZM65.25 166.39L63.89 160.69L58.65 159.08L54.76 163.15L56.11 168.85L61.36 170.47ZM56.11 168.85L54.76 163.15L49.51 161.54L45.63 165.62L46.98 171.31L52.23 172.93ZM67.78 156.61L66.43 150.92L61.18 149.30L57.29 153.38L58.65 159.08L63.89 160.69ZM97.77 139.46L96.42 133.75L91.16 132.13L87.26 136.21L88.62 141.91L93.87 143.54ZM88.62 141.91L87.26 136.21L82.01 134.59L78.11 138.67L79.47 144.37L84.72 146.00ZM100.32 129.67L98.97 123.96L93.71 122.34L89.81 126.43L91.16 132.13L96.42 133.75ZM91.16 132.13L89.81 126.43L84.56 124.80L80.66 128.89L82.01 134.59L87.26 136.21ZM104.37 146.78L103.02 141.08L97.77 139.46L93.87 143.54L95.22 149.24L100.47 150.86ZM95.22 149.24L93.87 143.54L88.62 141.91L84.72 146.00L86.07 151.70L91.32 153.32ZM106.93 137.00L105.57 131.29L100.32 129.67L96.42 133.75L97.77 139.46L103.02 141.08ZM165.19 239.64L163.85 233.94L158.60 232.31L154.70 236.37L156.04 242.06L161.28 243.70ZM156.04 242.06L154.70 236.37L149.46 234.73L145.55 238.79L146.89 244.49L152.14 246.12ZM167.76 229.88L166.42 224.18L161.17 222.55L157.26 226.61L158.60 232.31L163.85 233.94ZM158.60 232.31L157.26 226.61L152.02 224.97L148.11 229.04L149.46 234.73L154.70 236.37ZM171.77 246.98L170.43 241.28L165.19 239.64L161.28 243.70L162.62 249.40L167.87 251.04ZM162.62 249.40L161.28 243.70L156.04 242.06L152.14 246.12L153.48 251.82L158.72 253.45ZM174.34 237.22L173.00 231.52L167.76 229.88L163.85 233.94L165.19 239.64L170.43 241.28ZM140.31 237.16L138.97 231.46L133.72 229.83L129.82 233.89L131.17 239.59L136.41 241.22ZM131.17 239.59L129.82 233.89L124.58 232.26L120.69 236.32L122.03 242.02L127.27 243.65ZM142.87 227.40L141.53 221.70L136.28 220.07L132.38 224.14L133.72 229.83L138.97 231.46ZM133.72 229.83L132.38 224.14L127.14 222.50L123.24 226.57L124.58 232.26L129.82 233.89ZM146.89 244.49L145.55 238.79L140.31 237.16L136.41 241.22L137.75 246.91L142.99 248.55ZM137.75 246.91L136.41 241.22L131.17 239.59L127.27 243.65L128.61 249.34L133.85 250.97ZM149.46 234.73L148.11 229.04L142.87 227.40L138.97 231.46L140.31 237.16L145.55 238.79ZM179.49 217.70L178.15 212.00L172.90 210.36L168.99 214.42L170.33 220.12L175.58 221.76ZM170.33 220.12L168.99 214.42L163.74 212.78L159.83 216.85L161.17 222.55L166.42 224.18ZM182.06 207.93L180.72 202.23L175.47 200.59L171.56 204.65L172.90 210.36L178.15 212.00ZM172.90 210.36L171.56 204.65L166.31 203.02L162.40 207.08L163.74 212.78L168.99 214.42ZM186.08 225.04L184.74 219.34L179.49 217.70L175.58 221.76L176.91 227.46L182.16 229.10ZM176.91 227.46L175.58 221.76L170.33 220.12L166.42 224.18L167.76 229.88L173.00 231.52ZM188.65 215.28L187.31 209.57L182.06 207.93L178.15 212.00L179.49 217.70L184.74 219.34ZM154.58 215.21L153.24 209.51L147.99 207.88L144.09 211.94L145.43 217.64L150.68 219.27ZM145.43 217.64L144.09 211.94L138.84 210.31L134.94 214.37L136.28 220.07L141.53 221.70ZM157.15 205.45L155.81 199.74L150.56 198.11L146.65 202.18L147.99 207.88L153.24 209.51ZM147.99 207.88L146.65 202.18L141.40 200.54L137.50 204.61L138.84 210.31L144.09 211.94ZM161.17 222.55L159.83 216.85L154.58 215.21L150.68 219.27L152.02 224.97L157.26 226.61ZM152.02 224.97L150.68 219.27L145.43 217.64L141.53 221.70L142.87 227.40L148.11 229.04ZM163.74 212.78L162.40 207.08L157.15 205.45L153.24 209.51L154.58 215.21L159.83 216.85ZM178.35 254.31L177.02 248.62L171.77 246.98L167.87 251.04L169.20 256.73L174.45 258.37ZM169.20 256.73L167.87 251.04L162.62 249.40L158.72 253.45L160.06 259.15L165.30 260.79ZM184.94 261.65L183.60 255.96L178.35 254.31L174.45 258.37L175.78 264.07L181.03 265.71ZM150.92 261.57L149.58 255.87L144.33 254.24L140.44 258.30L141.78 263.99L147.02 265.62ZM153.48 251.82L152.14 246.12L146.89 244.49L142.99 248.55L144.33 254.24L149.58 255.87ZM144.33 254.24L142.99 248.55L137.75 246.91L133.85 250.97L135.20 256.66L140.44 258.30ZM160.06 259.15L158.72 253.45L153.48 251.82L149.58 255.87L150.92 261.57L156.16 263.20ZM190.08 242.15L188.75 236.44L183.50 234.80L179.59 238.86L180.93 244.56L186.17 246.20ZM180.93 244.56L179.59 238.86L174.34 237.22L170.43 241.28L171.77 246.98L177.02 248.62ZM192.66 232.39L191.33 226.68L186.08 225.04L182.16 229.10L183.50 234.80L188.75 236.44ZM183.50 234.80L182.16 229.10L176.91 227.46L173.00 231.52L174.34 237.22L179.59 238.86ZM196.67 249.49L195.33 243.79L190.08 242.15L186.17 246.20L187.51 251.90L192.75 253.54ZM187.51 251.90L186.17 246.20L180.93 244.56L177.02 248.62L178.35 254.31L183.60 255.96ZM199.25 239.73L197.91 234.03L192.66 232.39L188.75 236.44L190.08 242.15L195.33 243.79ZM101.22 256.63L99.88 250.94L94.64 249.31L90.75 253.37L92.10 259.06L97.34 260.69ZM92.10 259.06L90.75 253.37L85.52 251.75L81.63 255.81L82.98 261.49L88.22 263.12ZM103.77 246.88L102.42 241.19L97.18 239.56L93.29 243.63L94.64 249.31L99.88 250.94ZM94.64 249.31L93.29 243.63L88.06 242.00L84.17 246.06L85.52 251.75L90.75 253.37ZM110.35 254.20L109.00 248.51L103.77 246.88L99.88 250.94L101.22 256.63L106.46 258.25ZM76.40 254.19L75.05 248.50L69.82 246.88L65.94 250.94L67.29 256.62L72.52 258.25ZM67.29 256.62L65.94 250.94L60.70 249.32L56.82 253.38L58.18 259.06L63.41 260.68ZM78.94 244.44L77.59 238.75L72.35 237.13L68.47 241.19L69.82 246.88L75.05 248.50ZM69.82 246.88L68.47 241.19L63.23 239.57L59.35 243.64L60.70 249.32L65.94 250.94ZM82.98 261.49L81.63 255.81L76.40 254.19L72.52 258.25L73.87 263.93L79.10 265.55ZM85.52 251.75L84.17 246.06L78.94 244.44L75.05 248.50L76.40 254.19L81.63 255.81ZM115.45 234.69L114.10 229.00L108.86 227.37L104.97 231.44L106.31 237.13L111.55 238.76ZM106.31 237.13L104.97 231.44L99.73 229.81L95.84 233.87L97.18 239.56L102.42 241.19ZM118.00 224.94L116.65 219.24L111.41 217.62L107.51 221.68L108.86 227.37L114.10 229.00ZM108.86 227.37L107.51 221.68L102.27 220.05L98.38 224.12L99.73 229.81L104.97 231.44ZM122.03 242.02L120.69 236.32L115.45 234.69L111.55 238.76L112.90 244.45L118.14 246.08ZM112.90 244.45L111.55 238.76L106.31 237.13L102.42 241.19L103.77 246.88L109.00 248.51ZM124.58 232.26L123.24 226.57L118.00 224.94L114.10 229.00L115.45 234.69L120.69 236.32ZM90.60 232.25L89.25 226.56L84.01 224.94L80.12 229.00L81.47 234.69L86.71 236.31ZM81.47 234.69L80.12 229.00L74.88 227.38L71.00 231.44L72.35 237.13L77.59 238.75ZM93.14 222.49L91.79 216.80L86.55 215.18L82.66 219.25L84.01 224.94L89.25 226.56ZM84.01 224.94L82.66 219.25L77.42 217.62L73.53 221.69L74.88 227.38L80.12 229.00ZM97.18 239.56L95.84 233.87L90.60 232.25L86.71 236.31L88.06 242.00L93.29 243.63ZM88.06 242.00L86.71 236.31L81.47 234.69L77.59 238.75L78.94 244.44L84.17 246.06ZM99.73 229.81L98.38 224.12L93.14 222.49L89.25 226.56L90.60 232.25L95.84 233.87ZM126.06 259.09L124.72 253.40L119.48 251.77L115.59 255.83L116.93 261.51L122.17 263.14ZM116.93 261.51L115.59 255.83L110.35 254.20L106.46 258.25L107.80 263.94L113.04 265.57ZM128.61 249.34L127.27 243.65L122.03 242.02L118.14 246.08L119.48 251.77L124.72 253.40ZM119.48 251.77L118.14 246.08L112.90 244.45L109.00 248.51L110.35 254.20L115.59 255.83ZM135.20 256.66L133.85 250.97L128.61 249.34L124.72 253.40L126.06 259.09L131.30 260.72ZM183.20 171.26L181.86 165.55L176.60 163.91L172.69 167.99L174.03 173.69L179.28 175.33ZM174.03 173.69L172.69 167.99L167.43 166.35L163.51 170.42L164.86 176.13L170.11 177.76ZM185.78 161.48L184.44 155.77L179.18 154.13L175.26 158.20L176.60 163.91L181.86 165.55ZM176.60 163.91L175.26 158.20L170.00 156.57L166.09 160.64L167.43 166.35L172.69 167.99ZM189.80 178.61L188.46 172.90L183.20 171.26L179.28 175.33L180.62 181.04L185.88 182.68ZM180.62 181.04L179.28 175.33L174.03 173.69L170.11 177.76L171.45 183.47L176.71 185.11ZM192.38 168.83L191.04 163.12L185.78 161.48L181.86 165.55L183.20 171.26L188.46 172.90ZM158.26 168.79L156.92 163.08L151.66 161.44L147.75 165.52L149.09 171.22L154.35 172.86ZM149.09 171.22L147.75 165.52L142.49 163.89L138.59 167.96L139.93 173.66L145.18 175.30ZM160.83 159.00L159.49 153.30L154.23 151.66L150.32 155.74L151.66 161.44L156.92 163.08ZM151.66 161.44L150.32 155.74L145.06 154.10L141.15 158.18L142.49 163.89L147.75 165.52ZM164.86 176.13L163.51 170.42L158.26 168.79L154.35 172.86L155.69 178.56L160.94 180.20ZM155.69 178.56L154.35 172.86L149.09 171.22L145.18 175.30L146.53 181.00L151.78 182.63ZM167.43 166.35L166.09 160.64L160.83 159.00L156.92 163.08L158.26 168.79L163.51 170.42ZM197.55 149.26L196.21 143.54L190.95 141.90L187.02 145.98L188.36 151.69L193.62 153.33ZM188.36 151.69L187.02 145.98L181.76 144.34L177.84 148.42L179.18 154.13L184.44 155.77ZM200.13 139.47L198.80 133.75L193.53 132.11L189.61 136.19L190.95 141.90L196.21 143.54ZM190.95 141.90L189.61 136.19L184.34 134.55L180.42 138.63L181.76 144.34L187.02 145.98ZM204.15 156.62L202.81 150.90L197.55 149.26L193.62 153.33L194.96 159.05L200.22 160.69ZM194.96 159.05L193.62 153.33L188.36 151.69L184.44 155.77L185.78 161.48L191.04 163.12ZM206.74 146.83L205.40 141.11L200.13 139.47L196.21 143.54L197.55 149.26L202.81 150.90ZM172.58 146.78L171.24 141.07L165.98 139.43L162.06 143.51L163.40 149.22L168.66 150.86ZM163.40 149.22L162.06 143.51L156.80 141.87L152.89 145.95L154.23 151.66L159.49 153.30ZM175.16 136.99L173.82 131.28L168.55 129.64L164.63 133.72L165.98 139.43L171.24 141.07ZM165.98 139.43L164.63 133.72L159.37 132.08L155.46 136.16L156.80 141.87L162.06 143.51ZM179.18 154.13L177.84 148.42L172.58 146.78L168.66 150.86L170.00 156.57L175.26 158.20ZM170.00 156.57L168.66 150.86L163.40 149.22L159.49 153.30L160.83 159.00L166.09 160.64ZM181.76 144.34L180.42 138.63L175.16 136.99L171.24 141.07L172.58 146.78L177.84 148.42ZM193.81 195.74L192.47 190.03L187.22 188.39L183.30 192.46L184.64 198.16L189.89 199.80ZM184.64 198.16L183.30 192.46L178.05 190.82L174.13 194.88L175.47 200.59L180.72 202.23ZM196.39 185.96L195.06 180.25L189.80 178.61L185.88 182.68L187.22 188.39L192.47 190.03ZM187.22 188.39L185.88 182.68L180.62 181.04L176.71 185.11L178.05 190.82L183.30 192.46ZM200.40 203.09L199.07 197.38L193.81 195.74L189.89 199.80L191.23 205.51L196.48 207.15ZM191.23 205.51L189.89 199.80L184.64 198.16L180.72 202.23L182.06 207.93L187.31 209.57ZM202.99 193.31L201.65 187.60L196.39 185.96L192.47 190.03L193.81 195.74L199.07 197.38ZM168.88 193.25L167.54 187.54L162.29 185.90L158.37 189.97L159.72 195.68L164.97 197.31ZM159.72 195.68L158.37 189.97L153.12 188.34L149.21 192.41L150.56 198.11L155.81 199.74ZM171.45 183.47L170.11 177.76L164.86 176.13L160.94 180.20L162.29 185.90L167.54 187.54ZM162.29 185.90L160.94 180.20L155.69 178.56L151.78 182.63L153.12 188.34L158.37 189.97ZM175.47 200.59L174.13 194.88L168.88 193.25L164.97 197.31L166.31 203.02L171.56 204.65ZM166.31 203.02L164.97 197.31L159.72 195.68L155.81 199.74L157.15 205.45L162.40 207.08ZM178.05 190.82L176.71 185.11L171.45 183.47L167.54 187.54L168.88 193.25L174.13 194.88ZM208.16 173.76L206.82 168.04L201.56 166.40L197.64 170.47L198.98 176.18L204.24 177.83ZM198.98 176.18L197.64 170.47L192.38 168.83L188.46 172.90L189.80 178.61L195.06 180.25ZM210.75 163.97L209.41 158.26L204.15 156.62L200.22 160.69L201.56 166.40L206.82 168.04ZM201.56 166.40L200.22 160.69L194.96 159.05L191.04 163.12L192.38 168.83L197.64 170.47ZM214.75 181.11L213.42 175.40L208.16 173.76L204.24 177.83L205.57 183.54L210.83 185.18ZM205.57 183.54L204.24 177.83L198.98 176.18L195.06 180.25L196.39 185.96L201.65 187.60ZM217.34 171.33L216.01 165.62L210.75 163.97L206.82 168.04L208.16 173.76L213.42 175.40ZM219.47 33.99L218.13 28.26L212.85 26.62L208.91 30.71L210.25 36.45L215.53 38.09ZM210.25 36.45L208.91 30.71L203.63 29.07L199.69 33.17L201.03 38.90L206.31 40.54ZM222.08 24.16L220.74 18.43L215.45 16.79L211.51 20.88L212.85 26.62L218.13 28.26ZM212.85 26.62L211.51 20.88L206.22 19.24L202.28 23.34L203.63 29.07L208.91 30.71ZM226.10 41.37L224.76 35.64L219.47 33.99L215.53 38.09L216.87 43.82L222.15 45.46ZM216.87 43.82L215.53 38.09L210.25 36.45L206.31 40.54L207.65 46.27L212.93 47.91ZM228.70 31.54L227.36 25.81L222.08 24.16L218.13 28.26L219.47 33.99L224.76 35.64ZM194.41 31.53L193.06 25.80L187.78 24.16L183.85 28.26L185.19 33.99L190.47 35.63ZM185.19 33.99L183.85 28.26L178.57 26.63L174.63 30.72L175.98 36.45L181.26 38.09ZM197.00 21.70L195.66 15.97L190.37 14.33L186.44 18.43L187.78 24.16L193.06 25.80ZM187.78 24.16L186.44 18.43L181.15 16.80L177.22 20.90L178.57 26.63L183.85 28.26ZM201.03 38.90L199.69 33.17L194.41 31.53L190.47 35.63L191.81 41.36L197.09 43.00ZM191.81 41.36L190.47 35.63L185.19 33.99L181.26 38.09L182.60 43.82L187.88 45.45ZM203.63 29.07L202.28 23.34L197.00 21.70L193.06 25.80L194.41 31.53L199.69 33.17ZM233.92 11.87L232.58 6.13L227.29 4.49L223.34 8.59L224.68 14.33L229.97 15.97ZM224.68 14.33L223.34 8.59L218.06 6.95L214.11 11.05L215.45 16.79L220.74 18.43ZM236.53 2.04L235.19 -3.71L229.90 -5.35L225.95 -1.25L227.29 4.49L232.58 6.13ZM227.29 4.49L225.95 -1.25L220.66 -2.89L216.71 1.21L218.06 6.95L223.34 8.59ZM240.54 19.26L239.21 13.52L233.92 11.87L229.97 15.97L231.31 21.71L236.60 23.35ZM231.31 21.71L229.97 15.97L224.68 14.33L220.74 18.43L222.08 24.16L227.36 25.81ZM243.16 9.42L241.82 3.68L236.53 2.04L232.58 6.13L233.92 11.87L239.21 13.52ZM208.82 9.41L207.48 3.67L202.20 2.03L198.25 6.13L199.60 11.87L204.88 13.51ZM199.60 11.87L198.25 6.13L192.97 4.50L189.03 8.60L190.37 14.33L195.66 15.97ZM211.43 -0.43L210.08 -6.17L204.79 -7.81L200.85 -3.71L202.20 2.03L207.48 3.67ZM202.20 2.03L200.85 -3.71L195.56 -5.34L191.62 -1.24L192.97 4.50L198.25 6.13ZM215.45 16.79L214.11 11.05L208.82 9.41L204.88 13.51L206.22 19.24L211.51 20.88ZM206.22 19.24L204.88 13.51L199.60 11.87L195.66 15.97L197.00 21.70L202.28 23.34ZM218.06 6.95L216.71 1.21L211.43 -0.43L207.48 3.67L208.82 9.41L214.11 11.05ZM230.11 58.57L228.77 52.84L223.49 51.20L219.55 55.29L220.89 61.02L226.17 62.66ZM220.89 61.02L219.55 55.29L214.27 53.65L210.33 57.74L211.67 63.47L216.95 65.11ZM232.72 48.75L231.38 43.01L226.10 41.37L222.15 45.46L223.49 51.20L228.77 52.84ZM223.49 51.20L222.15 45.46L216.87 43.82L212.93 47.91L214.27 53.65L219.55 55.29ZM236.73 65.95L235.39 60.22L230.11 58.57L226.17 62.66L227.51 68.39L232.79 70.04ZM227.51 68.39L226.17 62.66L220.89 61.02L216.95 65.11L218.29 70.84L223.57 72.48ZM239.34 56.13L238.00 50.39L232.72 48.75L228.77 52.84L230.11 58.57L235.39 60.22ZM205.05 56.10L203.71 50.37L198.43 48.73L194.50 52.82L195.84 58.55L201.12 60.19ZM195.84 58.55L194.50 52.82L189.22 51.18L185.29 55.27L186.63 61.00L191.91 62.64ZM207.65 46.27L206.31 40.54L201.03 38.90L197.09 43.00L198.43 48.73L203.71 50.37ZM198.43 48.73L197.09 43.00L191.81 41.36L187.88 45.45L189.22 51.18L194.50 52.82ZM211.67 63.47L210.33 57.74L205.05 56.10L201.12 60.19L202.46 65.91L207.74 67.55ZM202.46 65.91L201.12 60.19L195.84 58.55L191.91 62.64L193.25 68.37L198.53 70.00ZM214.27 53.65L212.93 47.91L207.65 46.27L203.71 50.37L205.05 56.10L210.33 57.74ZM244.56 36.48L243.22 30.74L237.93 29.09L233.99 33.19L235.32 38.92L240.61 40.57ZM235.32 38.92L233.99 33.19L228.70 31.54L224.76 35.64L226.10 41.37L231.38 43.01ZM247.17 26.64L245.83 20.90L240.54 19.26L236.60 23.35L237.93 29.09L243.22 30.74ZM237.93 29.09L236.60 23.35L231.31 21.71L227.36 25.81L228.70 31.54L233.99 33.19ZM251.18 43.86L249.84 38.12L244.56 36.48L240.61 40.57L241.95 46.30L247.23 47.95ZM241.95 46.30L240.61 40.57L235.32 38.92L231.38 43.01L232.72 48.75L238.00 50.39ZM253.79 34.03L252.46 28.29L247.17 26.64L243.22 30.74L244.56 36.48L249.84 38.12ZM154.99 51.20L153.64 45.48L148.37 43.85L144.44 47.94L145.79 53.67L151.06 55.29ZM145.79 53.67L144.44 47.94L139.17 46.31L135.25 50.41L136.60 56.13L141.87 57.76ZM157.57 41.38L156.22 35.65L150.94 34.02L147.02 38.12L148.37 43.85L153.64 45.48ZM148.37 43.85L147.02 38.12L141.74 36.49L137.82 40.59L139.17 46.31L144.44 47.94ZM161.61 58.56L160.26 52.83L154.99 51.20L151.06 55.29L152.41 61.02L157.68 62.65ZM152.41 61.02L151.06 55.29L145.79 53.67L141.87 57.76L143.22 63.48L148.49 65.11ZM164.19 48.74L162.84 43.01L157.57 41.38L153.64 45.48L154.99 51.20L160.26 52.83ZM129.98 48.78L128.63 43.06L123.35 41.44L119.44 45.53L120.79 51.25L126.06 52.88ZM120.79 51.25L119.44 45.53L114.17 43.91L110.25 48.01L111.60 53.73L116.87 55.35ZM132.55 38.96L131.19 33.24L125.92 31.61L122.00 35.71L123.35 41.44L128.63 43.06ZM123.35 41.44L122.00 35.71L116.73 34.09L112.81 38.19L114.17 43.91L119.44 45.53ZM136.60 56.13L135.25 50.41L129.98 48.78L126.06 52.88L127.41 58.60L132.68 60.22ZM127.41 58.60L126.06 52.88L120.79 51.25L116.87 55.35L118.22 61.07L123.49 62.69ZM139.17 46.31L137.82 40.59L132.55 38.96L128.63 43.06L129.98 48.78L135.25 50.41ZM169.35 29.09L168.01 23.36L162.73 21.73L158.80 25.83L160.15 31.56L165.42 33.19ZM160.15 31.56L158.80 25.83L153.52 24.20L149.59 28.30L150.94 34.02L156.22 35.65ZM171.94 19.26L170.59 13.53L165.31 11.90L161.38 16.00L162.73 21.73L168.01 23.36ZM162.73 21.73L161.38 16.00L156.10 14.37L152.17 18.47L153.52 24.20L158.80 25.83ZM175.98 36.45L174.63 30.72L169.35 29.09L165.42 33.19L166.77 38.92L172.05 40.55ZM166.77 38.92L165.42 33.19L160.15 31.56L156.22 35.65L157.57 41.38L162.84 43.01ZM178.57 26.63L177.22 20.90L171.94 19.26L168.01 23.36L169.35 29.09L174.63 30.72ZM144.32 26.67L142.97 20.94L137.69 19.32L133.77 23.42L135.12 29.14L140.39 30.77ZM135.12 29.14L133.77 23.42L128.49 21.79L124.57 25.89L125.92 31.61L131.19 33.24ZM146.89 16.84L145.54 11.11L140.27 9.49L136.34 13.59L137.69 19.32L142.97 20.94ZM137.69 19.32L136.34 13.59L131.06 11.96L127.14 16.06L128.49 21.79L133.77 23.42ZM150.94 34.02L149.59 28.30L144.32 26.67L140.39 30.77L141.74 36.49L147.02 38.12ZM141.74 36.49L140.39 30.77L135.12 29.14L131.19 33.24L132.55 38.96L137.82 40.59ZM153.52 24.20L152.17 18.47L146.89 16.84L142.97 20.94L144.32 26.67L149.59 28.30ZM165.65 75.73L164.30 70.00L159.03 68.37L155.10 72.46L156.45 78.18L161.72 79.81ZM156.45 78.18L155.10 72.46L149.83 70.83L145.91 74.92L147.26 80.64L152.53 82.27ZM168.23 65.91L166.88 60.19L161.61 58.56L157.68 62.65L159.03 68.37L164.30 70.00ZM159.03 68.37L157.68 62.65L152.41 61.02L148.49 65.11L149.83 70.83L155.10 72.46ZM172.26 83.08L170.92 77.36L165.65 75.73L161.72 79.81L163.07 85.54L168.34 87.17ZM163.07 85.54L161.72 79.81L156.45 78.18L152.53 82.27L153.88 87.99L159.14 89.62ZM174.84 73.27L173.50 67.55L168.23 65.91L164.30 70.00L165.65 75.73L170.92 77.36ZM140.65 73.29L139.30 67.57L134.03 65.94L130.11 70.04L131.46 75.76L136.73 77.38ZM131.46 75.76L130.11 70.04L124.84 68.41L120.93 72.50L122.28 78.22L127.54 79.85ZM143.22 63.48L141.87 57.76L136.60 56.13L132.68 60.22L134.03 65.94L139.30 67.57ZM134.03 65.94L132.68 60.22L127.41 58.60L123.49 62.69L124.84 68.41L130.11 70.04ZM147.26 80.64L145.91 74.92L140.65 73.29L136.73 77.38L138.08 83.10L143.34 84.73ZM138.08 83.10L136.73 77.38L131.46 75.76L127.54 79.85L128.89 85.56L134.16 87.19ZM149.83 70.83L148.49 65.11L143.22 63.48L139.30 67.57L140.65 73.29L145.91 74.92ZM180.01 53.64L178.67 47.91L173.39 46.28L169.46 50.37L170.81 56.10L176.08 57.73ZM170.81 56.10L169.46 50.37L164.19 48.74L160.26 52.83L161.61 58.56L166.88 60.19ZM182.60 43.82L181.26 38.09L175.98 36.45L172.05 40.55L173.39 46.28L178.67 47.91ZM173.39 46.28L172.05 40.55L166.77 38.92L162.84 43.01L164.19 48.74L169.46 50.37ZM186.63 61.00L185.29 55.27L180.01 53.64L176.08 57.73L177.43 63.46L182.70 65.09ZM177.43 63.46L176.08 57.73L170.81 56.10L166.88 60.19L168.23 65.91L173.50 67.55ZM189.22 51.18L187.88 45.45L182.60 43.82L178.67 47.91L180.01 53.64L185.29 55.27ZM255.02 -2.87L253.68 -8.62L248.39 -10.26L244.43 -6.16L245.77 -0.42L251.06 1.23ZM245.77 -0.42L244.43 -6.16L239.14 -7.81L235.19 -3.71L236.53 2.04L241.82 3.68ZM220.66 -2.89L219.32 -8.63L214.03 -10.27L210.08 -6.17L211.43 -0.43L216.71 1.21ZM183.75 6.96L182.40 1.23L177.12 -0.41L173.18 3.70L174.53 9.43L179.81 11.06ZM174.53 9.43L173.18 3.70L167.90 2.06L163.96 6.17L165.31 11.90L170.59 13.53ZM186.34 -2.87L184.99 -8.61L179.71 -10.24L175.77 -6.14L177.12 -0.41L182.40 1.23ZM177.12 -0.41L175.77 -6.14L170.48 -7.77L166.55 -3.67L167.90 2.06L173.18 3.70ZM190.37 14.33L189.03 8.60L183.75 6.96L179.81 11.06L181.15 16.80L186.44 18.43ZM181.15 16.80L179.81 11.06L174.53 9.43L170.59 13.53L171.94 19.26L177.22 20.90ZM192.97 4.50L191.62 -1.24L186.34 -2.87L182.40 1.23L183.75 6.96L189.03 8.60ZM158.68 4.54L157.33 -1.20L152.05 -2.82L148.12 1.28L149.47 7.01L154.75 8.64ZM149.47 7.01L148.12 1.28L142.84 -0.35L138.91 3.76L140.27 9.49L145.54 11.11ZM152.05 -2.82L150.70 -8.56L145.42 -10.18L141.49 -6.08L142.84 -0.35L148.12 1.28ZM165.31 11.90L163.96 6.17L158.68 4.54L154.75 8.64L156.10 14.37L161.38 16.00ZM156.10 14.37L154.75 8.64L149.47 7.01L145.54 11.11L146.89 16.84L152.17 18.47ZM167.90 2.06L166.55 -3.67L161.27 -5.30L157.33 -1.20L158.68 4.54L163.96 6.17ZM265.80 85.66L264.47 79.92L259.19 78.27L255.24 82.36L256.57 88.09L261.85 89.74ZM256.57 88.09L255.24 82.36L249.96 80.71L246.02 84.79L247.35 90.52L252.63 92.17ZM259.19 78.27L257.85 72.54L252.57 70.89L248.63 74.98L249.96 80.71L255.24 82.36ZM263.18 95.47L261.85 89.74L256.57 88.09L252.63 92.17L253.96 97.90L259.24 99.55ZM240.74 83.14L239.40 77.41L234.12 75.77L230.18 79.85L231.52 85.58L236.80 87.23ZM231.52 85.58L230.18 79.85L224.91 78.21L220.97 82.29L222.30 88.02L227.58 89.67ZM243.35 73.33L242.01 67.60L236.73 65.95L232.79 70.04L234.12 75.77L239.40 77.41ZM234.12 75.77L232.79 70.04L227.51 68.39L223.57 72.48L224.91 78.21L230.18 79.85ZM247.35 90.52L246.02 84.79L240.74 83.14L236.80 87.23L238.13 92.96L243.41 94.60ZM238.13 92.96L236.80 87.23L231.52 85.58L227.58 89.67L228.92 95.39L234.19 97.04ZM249.96 80.71L248.63 74.98L243.35 73.33L239.40 77.41L240.74 83.14L246.02 84.79ZM255.18 61.07L253.85 55.33L248.57 53.69L244.62 57.78L245.95 63.51L251.24 65.16ZM245.95 63.51L244.62 57.78L239.34 56.13L235.39 60.22L236.73 65.95L242.01 67.60ZM257.80 51.25L256.46 45.51L251.18 43.86L247.23 47.95L248.57 53.69L253.85 55.33ZM248.57 53.69L247.23 47.95L241.95 46.30L238.00 50.39L239.34 56.13L244.62 57.78ZM261.80 68.45L260.47 62.72L255.18 61.07L251.24 65.16L252.57 70.89L257.85 72.54ZM252.57 70.89L251.24 65.16L245.95 63.51L242.01 67.60L243.35 73.33L248.63 74.98ZM264.42 58.63L263.08 52.89L257.80 51.25L253.85 55.33L255.18 61.07L260.47 62.72ZM251.35 107.71L250.02 101.98L244.74 100.33L240.80 104.41L242.14 110.14L247.41 111.79ZM242.14 110.14L240.80 104.41L235.53 102.77L231.59 106.85L232.92 112.57L238.20 114.22ZM253.96 97.90L252.63 92.17L247.35 90.52L243.41 94.60L244.74 100.33L250.02 101.98ZM244.74 100.33L243.41 94.60L238.13 92.96L234.19 97.04L235.53 102.77L240.80 104.41ZM257.96 115.09L256.63 109.36L251.35 107.71L247.41 111.79L248.74 117.52L254.02 119.16ZM248.74 117.52L247.41 111.79L242.14 110.14L238.20 114.22L239.53 119.94L244.80 121.59ZM260.57 105.28L259.24 99.55L253.96 97.90L250.02 101.98L251.35 107.71L256.63 109.36ZM201.30 102.71L199.96 96.99L194.69 95.35L190.76 99.43L192.10 105.16L197.37 106.79ZM192.10 105.16L190.76 99.43L185.49 97.80L181.56 101.88L182.90 107.60L188.17 109.24ZM203.89 92.91L202.55 87.18L197.27 85.54L193.34 89.63L194.69 95.35L199.96 96.99ZM194.69 95.35L193.34 89.63L188.07 87.99L184.14 92.07L185.49 97.80L190.76 99.43ZM207.91 110.08L206.57 104.35L201.30 102.71L197.37 106.79L198.71 112.52L203.97 114.16ZM198.71 112.52L197.37 106.79L192.10 105.16L188.17 109.24L189.51 114.96L194.78 116.60ZM210.50 100.27L209.16 94.55L203.89 92.91L199.96 96.99L201.30 102.71L206.57 104.35ZM176.29 100.24L174.95 94.52L169.68 92.89L165.76 96.97L167.10 102.69L172.37 104.33ZM167.10 102.69L165.76 96.97L160.49 95.34L156.57 99.43L157.91 105.14L163.18 106.78ZM178.87 90.44L177.53 84.72L172.26 83.08L168.34 87.17L169.68 92.89L174.95 94.52ZM169.68 92.89L168.34 87.17L163.07 85.54L159.14 89.62L160.49 95.34L165.76 96.97ZM182.90 107.60L181.56 101.88L176.29 100.24L172.37 104.33L173.71 110.05L178.98 111.68ZM173.71 110.05L172.37 104.33L167.10 102.69L163.18 106.78L164.52 112.49L169.79 114.13ZM185.49 97.80L184.14 92.07L178.87 90.44L174.95 94.52L176.29 100.24L181.56 101.88ZM215.69 80.65L214.35 74.92L209.08 73.28L205.14 77.37L206.48 83.10L211.76 84.74ZM206.48 83.10L205.14 77.37L199.87 75.73L195.93 79.82L197.27 85.54L202.55 87.18ZM218.29 70.84L216.95 65.11L211.67 63.47L207.74 67.55L209.08 73.28L214.35 74.92ZM209.08 73.28L207.74 67.55L202.46 65.91L198.53 70.00L199.87 75.73L205.14 77.37ZM222.30 88.02L220.97 82.29L215.69 80.65L211.76 84.74L213.09 90.46L218.37 92.11ZM213.09 90.46L211.76 84.74L206.48 83.10L202.55 87.18L203.89 92.91L209.16 94.55ZM224.91 78.21L223.57 72.48L218.29 70.84L214.35 74.92L215.69 80.65L220.97 82.29ZM190.66 78.18L189.32 72.45L184.04 70.82L180.12 74.91L181.46 80.63L186.73 82.27ZM181.46 80.63L180.12 74.91L174.84 73.27L170.92 77.36L172.26 83.08L177.53 84.72ZM193.25 68.37L191.91 62.64L186.63 61.00L182.70 65.09L184.04 70.82L189.32 72.45ZM184.04 70.82L182.70 65.09L177.43 63.46L173.50 67.55L174.84 73.27L180.12 74.91ZM197.27 85.54L195.93 79.82L190.66 78.18L186.73 82.27L188.07 87.99L193.34 89.63ZM188.07 87.99L186.73 82.27L181.46 80.63L177.53 84.72L178.87 90.44L184.14 92.07ZM199.87 75.73L198.53 70.00L193.25 68.37L189.32 72.45L190.66 78.18L195.93 79.82ZM211.92 127.24L210.58 121.52L205.31 119.88L201.38 123.96L202.72 129.68L207.99 131.32ZM202.72 129.68L201.38 123.96L196.12 122.32L192.19 126.39L193.53 132.11L198.80 133.75ZM214.51 117.44L213.18 111.72L207.91 110.08L203.97 114.16L205.31 119.88L210.58 121.52ZM205.31 119.88L203.97 114.16L198.71 112.52L194.78 116.60L196.12 122.32L201.38 123.96ZM218.52 134.60L217.19 128.88L211.92 127.24L207.99 131.32L209.33 137.04L214.59 138.68ZM209.33 137.04L207.99 131.32L202.72 129.68L198.80 133.75L200.13 139.47L205.40 141.11ZM221.12 124.81L219.78 119.08L214.51 117.44L210.58 121.52L211.92 127.24L217.19 128.88ZM186.93 124.76L185.58 119.04L180.32 117.40L176.40 121.48L177.74 127.20L183.00 128.83ZM177.74 127.20L176.40 121.48L171.13 119.84L167.21 123.93L168.55 129.64L173.82 131.28ZM189.51 114.96L188.17 109.24L182.90 107.60L178.98 111.68L180.32 117.40L185.58 119.04ZM180.32 117.40L178.98 111.68L173.71 110.05L169.79 114.13L171.13 119.84L176.40 121.48ZM193.53 132.11L192.19 126.39L186.93 124.76L183.00 128.83L184.34 134.55L189.61 136.19ZM184.34 134.55L183.00 128.83L177.74 127.20L173.82 131.28L175.16 136.99L180.42 138.63ZM196.12 122.32L194.78 116.60L189.51 114.96L185.58 119.04L186.93 124.76L192.19 126.39ZM226.32 105.20L224.98 99.48L219.71 97.83L215.77 101.91L217.11 107.64L222.38 109.28ZM217.11 107.64L215.77 101.91L210.50 100.27L206.57 104.35L207.91 110.08L213.18 111.72ZM228.92 95.39L227.58 89.67L222.30 88.02L218.37 92.11L219.71 97.83L224.98 99.48ZM219.71 97.83L218.37 92.11L213.09 90.46L209.16 94.55L210.50 100.27L215.77 101.91ZM232.92 112.57L231.59 106.85L226.32 105.20L222.38 109.28L223.72 115.01L228.99 116.65ZM223.72 115.01L222.38 109.28L217.11 107.64L213.18 111.72L214.51 117.44L219.78 119.08ZM235.53 102.77L234.19 97.04L228.92 95.39L224.98 99.48L226.32 105.20L231.59 106.85ZM259.03 14.36L257.69 8.62L252.40 6.97L248.45 11.07L249.78 16.81L255.07 18.46ZM249.78 16.81L248.45 11.07L243.16 9.42L239.21 13.52L240.54 19.26L245.83 20.90ZM261.65 4.52L260.31 -1.23L255.02 -2.87L251.06 1.23L252.40 6.97L257.69 8.62ZM252.40 6.97L251.06 1.23L245.77 -0.42L241.82 3.68L243.16 9.42L248.45 11.07ZM265.65 21.75L264.32 16.01L259.03 14.36L255.07 18.46L256.41 24.20L261.70 25.85ZM256.41 24.20L255.07 18.46L249.78 16.81L245.83 20.90L247.17 26.64L252.46 28.29ZM260.42 41.42L259.08 35.68L253.79 34.03L249.84 38.12L251.18 43.86L256.46 45.51ZM263.03 31.59L261.70 25.85L256.41 24.20L252.46 28.29L253.79 34.03L259.08 35.68Z"/></svg>
