<svg xmlns="http://www.w3.org/2000/svg" width="256" height="256" viewBox="0 0 256 256"><path data-band="1" fill="#fde68a" fill-opacity="0.35" d="M86.80 252.28L85.47 246.68L80.31 245.04L76.49 249.00L77.82 254.61L82.97 256.25ZM77.82 254.61L76.49 249.00L71.33 247.37L67.51 251.33L68.84 256.94L73.99 258.58ZM89.30 242.71L87.97 237.10L82.81 235.46L78.98 239.43L80.31 245.04L85.47 246.68ZM80.31 245.04L78.98 239.43L73.83 237.79L70.00 241.76L71.33 247.37L76.49 249.00ZM93.28 259.53L91.95 253.92L86.80 252.28L82.97 256.25L84.30 261.86L89.45 263.50ZM84.30 261.86L82.97 256.25L77.82 254.61L73.99 258.58L75.32 264.18L80.47 265.82ZM95.78 249.96L94.46 244.35L89.30 242.71L85.47 246.68L86.80 252.28L91.95 253.92ZM62.35 249.70L61.02 244.09L55.87 242.46L52.05 246.43L53.38 252.03L58.53 253.66ZM53.38 252.03L52.05 246.43L46.89 244.79L43.07 248.76L44.41 254.36L49.56 256.00ZM64.84 240.12L63.51 234.51L58.36 232.88L54.53 236.85L55.87 242.46L61.02 244.09ZM55.87 242.46L54.53 236.85L49.38 235.22L45.56 239.19L46.89 244.79L52.05 246.43ZM68.84 256.94L67.51 251.33L62.35 249.70L58.53 253.66L59.86 259.27L65.01 260.91ZM59.86 259.27L58.53 253.66L53.38 252.03L49.56 256.00L50.89 261.60L56.04 263.23ZM71.33 247.37L70.00 241.76L64.84 240.12L61.02 244.09L62.35 249.70L67.51 251.33ZM100.79 230.80L99.47 225.19L94.30 223.54L90.47 227.52L91.80 233.13L96.96 234.77ZM91.80 233.13L90.47 227.52L85.31 225.88L81.48 229.85L82.81 235.46L87.97 237.10ZM103.30 221.21L101.97 215.60L96.81 213.96L92.98 217.93L94.30 223.54L99.47 225.19ZM94.30 223.54L92.98 217.93L87.81 216.29L83.98 220.26L85.31 225.88L90.47 227.52ZM107.28 238.05L105.95 232.44L100.79 230.80L96.96 234.77L98.29 240.38L103.45 242.02ZM98.29 240.38L96.96 234.77L91.80 233.13L87.97 237.10L89.30 242.71L94.46 244.35ZM109.79 228.47L108.46 222.86L103.30 221.21L99.47 225.19L100.79 230.80L105.95 232.44ZM76.32 228.21L74.99 222.60L69.83 220.96L66.01 224.93L67.34 230.54L72.50 232.18ZM67.34 230.54L66.01 224.93L60.85 223.30L57.02 227.27L58.36 232.88L63.51 234.51ZM78.82 218.63L77.49 213.01L72.33 211.38L68.50 215.35L69.83 220.96L74.99 222.60ZM69.83 220.96L68.50 215.35L63.34 213.72L59.52 217.69L60.85 223.30L66.01 224.93ZM82.81 235.46L81.48 229.85L76.32 228.21L72.50 232.18L73.83 237.79L78.98 239.43ZM73.83 237.79L72.50 232.18L67.34 230.54L63.51 234.51L64.84 240.12L70.00 241.76ZM85.31 225.88L83.98 220.26L78.82 218.63L74.99 222.60L76.32 228.21L81.48 229.85ZM111.26 254.89L109.93 249.28L104.77 247.63L100.94 251.60L102.27 257.21L107.42 258.85ZM102.27 257.21L100.94 251.60L95.78 249.96L91.95 253.92L93.28 259.53L98.44 261.17ZM113.77 245.31L112.44 239.70L107.28 238.05L103.45 242.02L104.77 247.63L109.93 249.28ZM104.77 247.63L103.45 242.02L98.29 240.38L94.46 244.35L95.78 249.96L100.94 251.60ZM117.74 262.14L116.42 256.53L111.26 254.89L107.42 258.85L108.75 264.46L113.91 266.11ZM120.25 252.57L118.93 246.96L113.77 245.31L109.93 249.28L111.26 254.89L116.42 256.53ZM26.48 259.04L25.14 253.44L19.99 251.81L16.18 255.78L17.52 261.37L22.67 263.00ZM17.52 261.37L16.18 255.78L11.04 254.15L7.23 258.12L8.56 263.71L13.71 265.34ZM2.08 256.49L0.74 250.89L-4.40 249.27L-8.21 253.24L-6.87 258.83L-1.73 260.46ZM37.92 247.13L36.59 241.53L31.44 239.89L27.62 243.87L28.96 249.47L34.11 251.10ZM28.96 249.47L27.62 243.87L22.47 242.24L18.66 246.21L19.99 251.81L25.14 253.44ZM40.41 237.55L39.07 231.95L33.92 230.32L30.10 234.29L31.44 239.89L36.59 241.53ZM31.44 239.89L30.10 234.29L24.95 232.66L21.13 236.63L22.47 242.24L27.62 243.87ZM44.41 254.36L43.07 248.76L37.92 247.13L34.11 251.10L35.44 256.70L40.59 258.33ZM35.44 256.70L34.11 251.10L28.96 249.47L25.14 253.44L26.48 259.04L31.63 260.67ZM46.89 244.79L45.56 239.19L40.41 237.55L36.59 241.53L37.92 247.13L43.07 248.76ZM13.51 244.58L12.17 238.98L7.02 237.35L3.21 241.32L4.55 246.92L9.70 248.55ZM4.55 246.92L3.21 241.32L-1.94 239.70L-5.74 243.67L-4.40 249.27L0.74 250.89ZM15.98 235.01L14.65 229.40L9.49 227.78L5.68 231.75L7.02 237.35L12.17 238.98ZM7.02 237.35L5.68 231.75L0.53 230.13L-3.28 234.10L-1.94 239.70L3.21 241.32ZM19.99 251.81L18.66 246.21L13.51 244.58L9.70 248.55L11.04 254.15L16.18 255.78ZM11.04 254.15L9.70 248.55L4.55 246.92L0.74 250.89L2.08 256.49L7.23 258.12ZM22.47 242.24L21.13 236.63L15.98 235.01L12.17 238.98L13.51 244.58L18.66 246.21ZM50.89 261.60L49.56 256.00L44.41 254.36L40.59 258.33L41.92 263.93L47.07 265.57ZM104.34 185.18L103.01 179.56L97.84 177.92L94.00 181.90L95.33 187.52L100.50 189.16ZM95.33 187.52L94.00 181.90L88.83 180.26L85.00 184.24L86.33 189.86L91.49 191.49ZM110.83 192.44L109.50 186.82L104.34 185.18L100.50 189.16L101.82 194.78L106.99 196.42ZM101.82 194.78L100.50 189.16L95.33 187.52L91.49 191.49L92.82 197.11L97.99 198.75ZM79.83 182.60L78.50 176.98L73.33 175.35L69.50 179.33L70.83 184.94L76.00 186.58ZM70.83 184.94L69.50 179.33L64.33 177.69L60.50 181.67L61.84 187.29L67.00 188.92ZM73.33 175.35L72.00 169.73L66.83 168.09L63.00 172.08L64.33 177.69L69.50 179.33ZM86.33 189.86L85.00 184.24L79.83 182.60L76.00 186.58L77.33 192.20L82.49 193.83ZM77.33 192.20L76.00 186.58L70.83 184.94L67.00 188.92L68.33 194.54L73.50 196.17ZM114.81 209.30L113.49 203.68L108.32 202.04L104.48 206.01L105.81 211.63L110.97 213.27ZM105.81 211.63L104.48 206.01L99.32 204.37L95.48 208.34L96.81 213.96L101.97 215.60ZM117.33 199.70L116.00 194.08L110.83 192.44L106.99 196.42L108.32 202.04L113.49 203.68ZM108.32 202.04L106.99 196.42L101.82 194.78L97.99 198.75L99.32 204.37L104.48 206.01ZM121.30 216.56L119.98 210.94L114.81 209.30L110.97 213.27L112.30 218.89L117.46 220.53ZM112.30 218.89L110.97 213.27L105.81 211.63L101.97 215.60L103.30 221.21L108.46 222.86ZM123.82 206.97L122.49 201.35L117.33 199.70L113.49 203.68L114.81 209.30L119.98 210.94ZM90.32 206.70L88.99 201.09L83.82 199.45L79.99 203.43L81.32 209.04L86.48 210.68ZM81.32 209.04L79.99 203.43L74.83 201.79L71.00 205.76L72.33 211.38L77.49 213.01ZM92.82 197.11L91.49 191.49L86.33 189.86L82.49 193.83L83.82 199.45L88.99 201.09ZM83.82 199.45L82.49 193.83L77.33 192.20L73.50 196.17L74.83 201.79L79.99 203.43ZM96.81 213.96L95.48 208.34L90.32 206.70L86.48 210.68L87.81 216.29L92.98 217.93ZM87.81 216.29L86.48 210.68L81.32 209.04L77.49 213.01L78.82 218.63L83.98 220.26ZM99.32 204.37L97.99 198.75L92.82 197.11L88.99 201.09L90.32 206.70L95.48 208.34ZM126.34 197.37L125.01 191.75L119.84 190.11L116.00 194.08L117.33 199.70L122.49 201.35ZM219.43 227.15L218.12 221.52L212.94 219.86L209.08 223.82L210.40 229.45L215.57 231.11ZM210.40 229.45L209.08 223.82L203.91 222.16L200.05 226.13L201.36 231.76L206.54 233.42ZM179.36 219.50L178.04 213.88L172.87 212.22L169.02 216.19L170.34 221.82L175.51 223.47ZM185.85 226.78L184.53 221.16L179.36 219.50L175.51 223.47L176.83 229.09L182.00 230.75ZM223.37 244.03L222.06 238.40L216.88 236.74L213.02 240.70L214.33 246.33L219.51 247.99ZM214.33 246.33L213.02 240.70L207.85 239.04L203.99 243.00L205.31 248.63L210.48 250.29ZM216.88 236.74L215.57 231.11L210.40 229.45L206.54 233.42L207.85 239.04L213.02 240.70ZM229.85 251.32L228.54 245.69L223.37 244.03L219.51 247.99L220.82 253.61L225.99 255.28ZM220.82 253.61L219.51 247.99L214.33 246.33L210.48 250.29L211.79 255.91L216.96 257.57ZM232.40 241.73L231.09 236.10L225.92 234.44L222.06 238.40L223.37 244.03L228.54 245.69ZM198.82 241.34L197.51 235.72L192.34 234.06L188.48 238.03L189.80 243.65L194.97 245.31ZM189.80 243.65L188.48 238.03L183.31 236.37L179.46 240.34L180.78 245.96L185.95 247.61ZM201.36 231.76L200.05 226.13L194.88 224.47L191.02 228.44L192.34 234.06L197.51 235.72ZM192.34 234.06L191.02 228.44L185.85 226.78L182.00 230.75L183.31 236.37L188.48 238.03ZM205.31 248.63L203.99 243.00L198.82 241.34L194.97 245.31L196.28 250.93L201.45 252.59ZM196.28 250.93L194.97 245.31L189.80 243.65L185.95 247.61L187.26 253.23L192.43 254.89ZM207.85 239.04L206.54 233.42L201.36 231.76L197.51 235.72L198.82 241.34L203.99 243.00ZM149.78 236.03L148.46 230.42L143.29 228.77L139.45 232.73L140.77 238.35L145.93 240.00ZM140.77 238.35L139.45 232.73L134.28 231.09L130.44 235.05L131.76 240.67L136.93 242.32ZM152.30 226.45L150.98 220.83L145.81 219.18L141.97 223.15L143.29 228.77L148.46 230.42ZM143.29 228.77L141.97 223.15L136.80 221.50L132.96 225.47L134.28 231.09L139.45 232.73ZM156.26 243.30L154.94 237.69L149.78 236.03L145.93 240.00L147.25 245.62L152.42 247.27ZM147.25 245.62L145.93 240.00L140.77 238.35L136.93 242.32L138.25 247.93L143.41 249.58ZM158.79 233.72L157.47 228.10L152.30 226.45L148.46 230.42L149.78 236.03L154.94 237.69ZM125.28 233.41L123.95 227.79L118.79 226.15L114.95 230.12L116.28 235.73L121.44 237.38ZM116.28 235.73L114.95 230.12L109.79 228.47L105.95 232.44L107.28 238.05L112.44 239.70ZM127.79 223.82L126.47 218.20L121.30 216.56L117.46 220.53L118.79 226.15L123.95 227.79ZM118.79 226.15L117.46 220.53L112.30 218.89L108.46 222.86L109.79 228.47L114.95 230.12ZM131.76 240.67L130.44 235.05L125.28 233.41L121.44 237.38L122.76 242.99L127.93 244.64ZM122.76 242.99L121.44 237.38L116.28 235.73L112.44 239.70L113.77 245.31L118.93 246.96ZM134.28 231.09L132.96 225.47L127.79 223.82L123.95 227.79L125.28 233.41L130.44 235.05ZM163.85 214.54L162.53 208.92L157.36 207.26L153.51 211.24L154.83 216.86L160.00 218.51ZM154.83 216.86L153.51 211.24L148.34 209.59L144.49 213.56L145.81 219.18L150.98 220.83ZM170.34 221.82L169.02 216.19L163.85 214.54L160.00 218.51L161.32 224.13L166.49 225.78ZM161.32 224.13L160.00 218.51L154.83 216.86L150.98 220.83L152.30 226.45L157.47 228.10ZM172.87 212.22L171.55 206.60L166.38 204.94L162.53 208.92L163.85 214.54L169.02 216.19ZM139.32 211.91L138.00 206.29L132.83 204.64L128.99 208.61L130.31 214.23L135.48 215.88ZM130.31 214.23L128.99 208.61L123.82 206.97L119.98 210.94L121.30 216.56L126.47 218.20ZM141.84 202.31L140.52 196.69L135.35 195.04L131.51 199.02L132.83 204.64L138.00 206.29ZM132.83 204.64L131.51 199.02L126.34 197.37L122.49 201.35L123.82 206.97L128.99 208.61ZM145.81 219.18L144.49 213.56L139.32 211.91L135.48 215.88L136.80 221.50L141.97 223.15ZM136.80 221.50L135.48 215.88L130.31 214.23L126.47 218.20L127.79 223.82L132.96 225.47ZM148.34 209.59L147.01 203.96L141.84 202.31L138.00 206.29L139.32 211.91L144.49 213.56ZM160.22 260.15L158.90 254.54L153.74 252.89L149.90 256.85L151.22 262.46L156.38 264.12ZM151.22 262.46L149.90 256.85L144.73 255.20L140.89 259.16L142.21 264.77L147.37 266.42ZM162.75 250.57L161.43 244.96L156.26 243.30L152.42 247.27L153.74 252.89L158.90 254.54ZM153.74 252.89L152.42 247.27L147.25 245.62L143.41 249.58L144.73 255.20L149.90 256.85ZM169.23 257.85L167.91 252.23L162.75 250.57L158.90 254.54L160.22 260.15L165.39 261.81ZM135.73 257.51L134.41 251.90L129.25 250.25L125.41 254.22L126.73 259.83L131.89 261.47ZM126.73 259.83L125.41 254.22L120.25 252.57L116.42 256.53L117.74 262.14L122.90 263.79ZM138.25 247.93L136.93 242.32L131.76 240.67L127.93 244.64L129.25 250.25L134.41 251.90ZM129.25 250.25L127.93 244.64L122.76 242.99L118.93 246.96L120.25 252.57L125.41 254.22ZM144.73 255.20L143.41 249.58L138.25 247.93L134.41 251.90L135.73 257.51L140.89 259.16ZM174.29 238.68L172.97 233.06L167.81 231.41L163.96 235.37L165.28 240.99L170.44 242.65ZM165.28 240.99L163.96 235.37L158.79 233.72L154.94 237.69L156.26 243.30L161.43 244.96ZM176.83 229.09L175.51 223.47L170.34 221.82L166.49 225.78L167.81 231.41L172.97 233.06ZM167.81 231.41L166.49 225.78L161.32 224.13L157.47 228.10L158.79 233.72L163.96 235.37ZM180.78 245.96L179.46 240.34L174.29 238.68L170.44 242.65L171.76 248.26L176.93 249.92ZM171.76 248.26L170.44 242.65L165.28 240.99L161.43 244.96L162.75 250.57L167.91 252.23ZM183.31 236.37L182.00 230.75L176.83 229.09L172.97 233.06L174.29 238.68L179.46 240.34ZM2.38 158.14L1.04 152.53L-4.12 150.91L-7.94 154.90L-6.60 160.51L-1.44 162.13ZM4.86 148.54L3.51 142.93L-1.65 141.31L-5.47 145.30L-4.12 150.91L1.04 152.53ZM6.41 174.97L5.06 169.37L-0.10 167.74L-3.91 171.73L-2.57 177.34L2.59 178.96ZM8.88 165.38L7.54 159.77L2.38 158.14L-1.44 162.13L-0.10 167.74L5.06 169.37ZM12.90 182.21L11.56 176.60L6.41 174.97L2.59 178.96L3.93 184.57L9.09 186.19ZM3.93 184.57L2.59 178.96L-2.57 177.34L-6.38 181.32L-5.04 186.93L0.11 188.55ZM15.38 172.62L14.04 167.00L8.88 165.38L5.06 169.37L6.41 174.97L11.56 176.60ZM20.35 153.42L19.01 147.80L13.84 146.18L10.02 150.17L11.36 155.78L16.52 157.41ZM11.36 155.78L10.02 150.17L4.86 148.54L1.04 152.53L2.38 158.14L7.54 159.77ZM26.85 160.66L25.51 155.04L20.35 153.42L16.52 157.41L17.86 163.02L23.03 164.65ZM17.86 163.02L16.52 157.41L11.36 155.78L7.54 159.77L8.88 165.38L14.04 167.00ZM41.37 201.57L40.04 195.96L34.88 194.33L31.06 198.31L32.39 203.92L37.55 205.55ZM32.39 203.92L31.06 198.31L25.90 196.68L22.08 200.66L23.42 206.27L28.57 207.90ZM43.86 191.98L42.52 186.37L37.36 184.74L33.54 188.72L34.88 194.33L40.04 195.96ZM34.88 194.33L33.54 188.72L28.38 187.09L24.56 191.07L25.90 196.68L31.06 198.31ZM47.87 208.81L46.53 203.20L41.37 201.57L37.55 205.55L38.89 211.16L44.04 212.79ZM38.89 211.16L37.55 205.55L32.39 203.92L28.57 207.90L29.91 213.50L35.07 215.13ZM50.36 199.23L49.02 193.61L43.86 191.98L40.04 195.96L41.37 201.57L46.53 203.20ZM16.92 199.03L15.58 193.43L10.43 191.80L6.61 195.78L7.95 201.39L13.11 203.01ZM7.95 201.39L6.61 195.78L1.46 194.16L-2.36 198.14L-1.02 203.74L4.14 205.37ZM19.40 189.44L18.06 183.84L12.90 182.21L9.09 186.19L10.43 191.80L15.58 193.43ZM10.43 191.80L9.09 186.19L3.93 184.57L0.11 188.55L1.46 194.16L6.61 195.78ZM23.42 206.27L22.08 200.66L16.92 199.03L13.11 203.01L14.44 208.62L19.60 210.25ZM14.44 208.62L13.11 203.01L7.95 201.39L4.14 205.37L5.48 210.97L10.63 212.60ZM25.90 196.68L24.56 191.07L19.40 189.44L15.58 193.43L16.92 199.03L22.08 200.66ZM55.34 180.04L54.00 174.42L48.84 172.79L45.01 176.78L46.35 182.39L51.51 184.02ZM46.35 182.39L45.01 176.78L39.85 175.14L36.03 179.13L37.36 184.74L42.52 186.37ZM57.83 170.44L56.50 164.83L51.33 163.19L47.50 167.18L48.84 172.79L54.00 174.42ZM48.84 172.79L47.50 167.18L42.34 165.55L38.51 169.53L39.85 175.14L45.01 176.78ZM61.84 187.29L60.50 181.67L55.34 180.04L51.51 184.02L52.85 189.63L58.01 191.27ZM52.85 189.63L51.51 184.02L46.35 182.39L42.52 186.37L43.86 191.98L49.02 193.61ZM64.33 177.69L63.00 172.08L57.83 170.44L54.00 174.42L55.34 180.04L60.50 181.67ZM30.86 177.50L29.53 171.89L24.37 170.26L20.54 174.24L21.88 179.85L27.04 181.48ZM21.88 179.85L20.54 174.24L15.38 172.62L11.56 176.60L12.90 182.21L18.06 183.84ZM33.35 167.90L32.01 162.29L26.85 160.66L23.03 164.65L24.37 170.26L29.53 171.89ZM24.37 170.26L23.03 164.65L17.86 163.02L14.04 167.00L15.38 172.62L20.54 174.24ZM37.36 184.74L36.03 179.13L30.86 177.50L27.04 181.48L28.38 187.09L33.54 188.72ZM28.38 187.09L27.04 181.48L21.88 179.85L18.06 183.84L19.40 189.44L24.56 191.07ZM39.85 175.14L38.51 169.53L33.35 167.90L29.53 171.89L30.86 177.50L36.03 179.13ZM51.87 225.64L50.53 220.03L45.38 218.40L41.56 222.37L42.89 227.98L48.05 229.61ZM42.89 227.98L41.56 222.37L36.40 220.74L32.58 224.71L33.92 230.32L39.07 231.95ZM54.36 216.06L53.02 210.45L47.87 208.81L44.04 212.79L45.38 218.40L50.53 220.03ZM45.38 218.40L44.04 212.79L38.89 211.16L35.07 215.13L36.40 220.74L41.56 222.37ZM58.36 232.88L57.02 227.27L51.87 225.64L48.05 229.61L49.38 235.22L54.53 236.85ZM49.38 235.22L48.05 229.61L42.89 227.98L39.07 231.95L40.41 237.55L45.56 239.19ZM60.85 223.30L59.52 217.69L54.36 216.06L50.53 220.03L51.87 225.64L57.02 227.27ZM27.43 223.08L26.09 217.48L20.94 215.85L17.12 219.83L18.46 225.43L23.61 227.06ZM18.46 225.43L17.12 219.83L11.97 218.20L8.16 222.18L9.49 227.78L14.65 229.40ZM29.91 213.50L28.57 207.90L23.42 206.27L19.60 210.25L20.94 215.85L26.09 217.48ZM20.94 215.85L19.60 210.25L14.44 208.62L10.63 212.60L11.97 218.20L17.12 219.83ZM33.92 230.32L32.58 224.71L27.43 223.08L23.61 227.06L24.95 232.66L30.10 234.29ZM24.95 232.66L23.61 227.06L18.46 225.43L14.65 229.40L15.98 235.01L21.13 236.63ZM36.40 220.74L35.07 215.13L29.91 213.50L26.09 217.48L27.43 223.08L32.58 224.71ZM65.84 204.13L64.50 198.52L59.34 196.88L55.52 200.86L56.85 206.47L62.01 208.10ZM56.85 206.47L55.52 200.86L50.36 199.23L46.53 203.20L47.87 208.81L53.02 210.45ZM68.33 194.54L67.00 188.92L61.84 187.29L58.01 191.27L59.34 196.88L64.50 198.52ZM59.34 196.88L58.01 191.27L52.85 189.63L49.02 193.61L50.36 199.23L55.52 200.86ZM72.33 211.38L71.00 205.76L65.84 204.13L62.01 208.10L63.34 213.72L68.50 215.35ZM63.34 213.72L62.01 208.10L56.85 206.47L53.02 210.45L54.36 216.06L59.52 217.69ZM74.83 201.79L73.50 196.17L68.33 194.54L64.50 198.52L65.84 204.13L71.00 205.76ZM1.46 194.16L0.11 188.55L-5.04 186.93L-8.85 190.91L-7.51 196.51L-2.36 198.14ZM3.00 220.55L1.66 214.95L-3.49 213.32L-7.30 217.30L-5.96 222.90L-0.81 224.53ZM5.48 210.97L4.14 205.37L-1.02 203.74L-4.83 207.72L-3.49 213.32L1.66 214.95ZM9.49 227.78L8.16 222.18L3.00 220.55L-0.81 224.53L0.53 230.13L5.68 231.75ZM0.53 230.13L-0.81 224.53L-5.96 222.90L-9.77 226.88L-8.42 232.48L-3.28 234.10ZM11.97 218.20L10.63 212.60L5.48 210.97L1.66 214.95L3.00 220.55L8.16 222.18ZM66.83 168.09L65.50 162.47L60.33 160.84L56.50 164.83L57.83 170.44L63.00 172.08ZM35.84 158.30L34.50 152.69L29.33 151.06L25.51 155.04L26.85 160.66L32.01 162.29ZM260.89 261.32L259.58 255.69L254.41 254.02L250.54 257.98L251.85 263.61L257.02 265.28ZM236.33 258.61L235.02 252.98L229.85 251.32L225.99 255.28L227.30 260.90L232.47 262.57ZM227.30 260.90L225.99 255.28L220.82 253.61L216.96 257.57L218.27 263.20L223.44 264.86ZM247.93 246.73L246.62 241.10L241.44 239.43L237.58 243.39L238.89 249.02L244.06 250.69ZM238.89 249.02L237.58 243.39L232.40 241.73L228.54 245.69L229.85 251.32L235.02 252.98ZM254.41 254.02L253.10 248.40L247.93 246.73L244.06 250.69L245.37 256.32L250.54 257.98ZM245.37 256.32L244.06 250.69L238.89 249.02L235.02 252.98L236.33 258.61L241.50 260.27ZM256.97 244.44L255.66 238.81L250.49 237.14L246.62 241.10L247.93 246.73L253.10 248.40ZM211.79 255.91L210.48 250.29L205.31 248.63L201.45 252.59L202.76 258.21L207.93 259.87ZM202.76 258.21L201.45 252.59L196.28 250.93L192.43 254.89L193.74 260.51L198.91 262.17ZM218.27 263.20L216.96 257.57L211.79 255.91L207.93 259.87L209.25 265.49L214.41 267.15ZM184.73 262.81L183.41 257.20L178.24 255.54L174.40 259.50L175.71 265.12L180.88 266.77ZM187.26 253.23L185.95 247.61L180.78 245.96L176.93 249.92L178.24 255.54L183.41 257.20ZM178.24 255.54L176.93 249.92L171.76 248.26L167.91 252.23L169.23 257.85L174.40 259.50ZM193.74 260.51L192.43 254.89L187.26 253.23L183.41 257.20L184.73 262.81L189.89 264.47Z"/><path data-band="2" fill="#f97316" fill-opacity="0.35" d="M234.56 106.79L233.24 101.14L228.05 99.48L224.17 103.47L225.48 109.12L230.68 110.78ZM225.48 109.12L224.17 103.47L218.97 101.81L215.10 105.80L216.42 111.44L221.61 113.10ZM241.07 114.10L239.75 108.45L234.56 106.79L230.68 110.78L231.99 116.42L237.19 118.09ZM231.99 116.42L230.68 110.78L225.48 109.12L221.61 113.10L222.92 118.75L228.12 120.41ZM30.67 16.16L29.33 10.52L24.14 8.90L20.30 12.91L21.65 18.55L26.83 20.17ZM21.65 18.55L20.30 12.91L15.12 11.29L11.28 15.30L12.63 20.94L17.81 22.56ZM33.17 6.51L31.83 0.87L26.64 -0.76L22.80 3.26L24.14 8.90L29.33 10.52ZM24.14 8.90L22.80 3.26L17.61 1.64L13.77 5.65L15.12 11.29L20.30 12.91ZM37.20 23.42L35.86 17.78L30.67 16.16L26.83 20.17L28.18 25.80L33.36 27.43ZM28.18 25.80L26.83 20.17L21.65 18.55L17.81 22.56L19.16 28.19L24.34 29.82ZM39.70 13.77L38.36 8.13L33.17 6.51L29.33 10.52L30.67 16.16L35.86 17.78ZM6.10 13.68L4.75 8.05L-0.43 6.43L-4.27 10.45L-2.92 16.08L2.26 17.70ZM8.59 4.03L7.24 -1.60L2.05 -3.22L-1.78 0.80L-0.43 6.43L4.75 8.05ZM12.63 20.94L11.28 15.30L6.10 13.68L2.26 17.70L3.61 23.33L8.79 24.95ZM3.61 23.33L2.26 17.70L-2.92 16.08L-6.75 20.09L-5.40 25.72L-0.22 27.34ZM15.12 11.29L13.77 5.65L8.59 4.03L4.75 8.05L6.10 13.68L11.28 15.30ZM17.61 1.64L16.26 -4.00L11.08 -5.62L7.24 -1.60L8.59 4.03L13.77 5.65ZM41.23 40.32L39.89 34.69L34.71 33.06L30.87 37.07L32.21 42.71L37.39 44.33ZM32.21 42.71L30.87 37.07L25.68 35.45L21.85 39.46L23.19 45.09L28.37 46.71ZM43.73 30.68L42.39 25.04L37.20 23.42L33.36 27.43L34.71 33.06L39.89 34.69ZM34.71 33.06L33.36 27.43L28.18 25.80L24.34 29.82L25.68 35.45L30.87 37.07ZM47.76 47.59L46.41 41.95L41.23 40.32L37.39 44.33L38.73 49.96L43.92 51.59ZM38.73 49.96L37.39 44.33L32.21 42.71L28.37 46.71L29.71 52.34L34.89 53.97ZM50.26 37.94L48.92 32.31L43.73 30.68L39.89 34.69L41.23 40.32L46.41 41.95ZM16.67 37.84L15.32 32.20L10.14 30.58L6.30 34.59L7.65 40.22L12.83 41.84ZM7.65 40.22L6.30 34.59L1.12 32.97L-2.71 36.98L-1.36 42.61L3.82 44.23ZM19.16 28.19L17.81 22.56L12.63 20.94L8.79 24.95L10.14 30.58L15.32 32.20ZM10.14 30.58L8.79 24.95L3.61 23.33L-0.22 27.34L1.12 32.97L6.30 34.59ZM23.19 45.09L21.85 39.46L16.67 37.84L12.83 41.84L14.18 47.47L19.36 49.10ZM14.18 47.47L12.83 41.84L7.65 40.22L3.82 44.23L5.17 49.86L10.34 51.48ZM25.68 35.45L24.34 29.82L19.16 28.19L15.32 32.20L16.67 37.84L21.85 39.46ZM55.27 18.65L53.92 13.01L48.74 11.38L44.89 15.39L46.23 21.03L51.42 22.66ZM46.23 21.03L44.89 15.39L39.70 13.77L35.86 17.78L37.20 23.42L42.39 25.04ZM61.79 25.92L60.45 20.28L55.27 18.65L51.42 22.66L52.76 28.30L57.95 29.93ZM52.76 28.30L51.42 22.66L46.23 21.03L42.39 25.04L43.73 30.68L48.92 32.31ZM105.98 50.27L104.64 44.62L99.45 42.99L95.60 46.99L96.93 52.63L102.12 54.27ZM112.50 57.55L111.16 51.90L105.98 50.27L102.12 54.27L103.45 59.91L108.64 61.55ZM150.15 74.69L148.83 69.04L143.64 67.40L139.77 71.39L141.10 77.04L146.29 78.68ZM141.10 77.04L139.77 71.39L134.58 69.75L130.72 73.75L132.05 79.39L137.24 81.03ZM143.64 67.40L142.31 61.75L137.12 60.11L133.25 64.11L134.58 69.75L139.77 71.39ZM156.67 81.97L155.34 76.33L150.15 74.69L146.29 78.68L147.62 84.32L152.81 85.97ZM147.62 84.32L146.29 78.68L141.10 77.04L137.24 81.03L138.57 86.67L143.76 88.32ZM125.54 72.11L124.21 66.47L119.02 64.83L115.16 68.82L116.49 74.46L121.68 76.10ZM116.49 74.46L115.16 68.82L109.97 67.19L106.12 71.18L107.45 76.82L112.64 78.46ZM128.06 62.47L126.73 56.82L121.54 55.18L117.69 59.18L119.02 64.83L124.21 66.47ZM119.02 64.83L117.69 59.18L112.50 57.55L108.64 61.55L109.97 67.19L115.16 68.82ZM132.05 79.39L130.72 73.75L125.54 72.11L121.68 76.10L123.01 81.74L128.20 83.39ZM123.01 81.74L121.68 76.10L116.49 74.46L112.64 78.46L113.97 84.10L119.16 85.74ZM134.58 69.75L133.25 64.11L128.06 62.47L124.21 66.47L125.54 72.11L130.72 73.75ZM76.35 67.01L75.01 61.37L69.83 59.74L65.98 63.74L67.32 69.37L72.50 71.01ZM67.32 69.37L65.98 63.74L60.80 62.11L56.96 66.11L58.30 71.75L63.48 73.38ZM78.86 57.37L77.52 51.73L72.34 50.10L68.49 54.10L69.83 59.74L75.01 61.37ZM69.83 59.74L68.49 54.10L63.31 52.47L59.46 56.48L60.80 62.11L65.98 63.74ZM82.87 74.27L81.53 68.64L76.35 67.01L72.50 71.01L73.84 76.64L79.02 78.27ZM73.84 76.64L72.50 71.01L67.32 69.37L63.48 73.38L64.82 79.01L70.00 80.64ZM85.38 64.64L84.04 59.00L78.86 57.37L75.01 61.37L76.35 67.01L81.53 68.64ZM51.78 64.48L50.44 58.85L45.26 57.22L41.42 61.23L42.76 66.86L47.94 68.49ZM42.76 66.86L41.42 61.23L36.24 59.60L32.40 63.61L33.74 69.23L38.92 70.86ZM54.28 54.85L52.94 49.21L47.76 47.59L43.92 51.59L45.26 57.22L50.44 58.85ZM45.26 57.22L43.92 51.59L38.73 49.96L34.89 53.97L36.24 59.60L41.42 61.23ZM58.30 71.75L56.96 66.11L51.78 64.48L47.94 68.49L49.28 74.12L54.46 75.75ZM49.28 74.12L47.94 68.49L42.76 66.86L38.92 70.86L40.26 76.49L45.44 78.12ZM60.80 62.11L59.46 56.48L54.28 54.85L50.44 58.85L51.78 64.48L56.96 66.11ZM81.37 47.73L80.03 42.09L74.85 40.46L71.00 44.46L72.34 50.10L77.52 51.73ZM83.88 38.08L82.55 32.44L77.36 30.81L73.51 34.82L74.85 40.46L80.03 42.09ZM96.93 52.63L95.60 46.99L90.41 45.36L86.56 49.36L87.89 55.00L93.08 56.63ZM87.89 55.00L86.56 49.36L81.37 47.73L77.52 51.73L78.86 57.37L84.04 59.00ZM65.81 42.83L64.47 37.19L59.29 35.56L55.44 39.57L56.78 45.21L61.97 46.84ZM56.78 45.21L55.44 39.57L50.26 37.94L46.41 41.95L47.76 47.59L52.94 49.21ZM68.32 33.19L66.98 27.55L61.79 25.92L57.95 29.93L59.29 35.56L64.47 37.19ZM59.29 35.56L57.95 29.93L52.76 28.30L48.92 32.31L50.26 37.94L55.44 39.57ZM72.34 50.10L71.00 44.46L65.81 42.83L61.97 46.84L63.31 52.47L68.49 54.10ZM63.31 52.47L61.97 46.84L56.78 45.21L52.94 49.21L54.28 54.85L59.46 56.48ZM74.85 40.46L73.51 34.82L68.32 33.19L64.47 37.19L65.81 42.83L71.00 44.46ZM86.87 91.17L85.54 85.54L80.36 83.91L76.51 87.90L77.85 93.54L83.03 95.17ZM77.85 93.54L76.51 87.90L71.33 86.27L67.49 90.27L68.83 95.90L74.01 97.53ZM89.39 81.54L88.05 75.91L82.87 74.27L79.02 78.27L80.36 83.91L85.54 85.54ZM80.36 83.91L79.02 78.27L73.84 76.64L70.00 80.64L71.33 86.27L76.51 87.90ZM93.39 98.44L92.05 92.81L86.87 91.17L83.03 95.17L84.36 100.80L89.54 102.44ZM84.36 100.80L83.03 95.17L77.85 93.54L74.01 97.53L75.34 103.16L80.52 104.80ZM95.90 88.81L94.57 83.18L89.39 81.54L85.54 85.54L86.87 91.17L92.05 92.81ZM62.31 88.64L60.97 83.01L55.80 81.38L51.96 85.38L53.30 91.00L58.47 92.63ZM53.30 91.00L51.96 85.38L46.78 83.75L42.94 87.75L44.28 93.37L49.46 95.00ZM64.82 79.01L63.48 73.38L58.30 71.75L54.46 75.75L55.80 81.38L60.97 83.01ZM55.80 81.38L54.46 75.75L49.28 74.12L45.44 78.12L46.78 83.75L51.96 85.38ZM68.83 95.90L67.49 90.27L62.31 88.64L58.47 92.63L59.81 98.26L64.99 99.89ZM59.81 98.26L58.47 92.63L53.30 91.00L49.46 95.00L50.80 100.63L55.97 102.26ZM71.33 86.27L70.00 80.64L64.82 79.01L60.97 83.01L62.31 88.64L67.49 90.27ZM100.94 69.55L99.60 63.91L94.42 62.27L90.56 66.27L91.90 71.91L97.08 73.55ZM91.90 71.91L90.56 66.27L85.38 64.64L81.53 68.64L82.87 74.27L88.05 75.91ZM103.45 59.91L102.12 54.27L96.93 52.63L93.08 56.63L94.42 62.27L99.60 63.91ZM94.42 62.27L93.08 56.63L87.89 55.00L84.04 59.00L85.38 64.64L90.56 66.27ZM107.45 76.82L106.12 71.18L100.94 69.55L97.08 73.55L98.42 79.18L103.60 80.82ZM98.42 79.18L97.08 73.55L91.90 71.91L88.05 75.91L89.39 81.54L94.57 83.18ZM109.97 67.19L108.64 61.55L103.45 59.91L99.60 63.91L100.94 69.55L106.12 71.18ZM1.12 32.97L-0.22 27.34L-5.40 25.72L-9.23 29.74L-7.89 35.37L-2.71 36.98ZM2.05 -3.22L0.70 -8.86L-4.48 -10.47L-8.32 -6.46L-6.97 -0.82L-1.78 0.80ZM251.68 201.04L250.37 195.41L245.19 193.74L241.32 197.71L242.63 203.34L247.81 205.01ZM242.63 203.34L241.32 197.71L236.14 196.04L232.27 200.01L233.58 205.65L238.76 207.31ZM254.24 191.44L252.93 185.80L247.75 184.13L243.88 188.10L245.19 193.74L250.37 195.41ZM245.19 193.74L243.88 188.10L238.69 186.44L234.82 190.41L236.14 196.04L241.32 197.71ZM258.17 208.35L256.86 202.71L251.68 201.04L247.81 205.01L249.12 210.64L254.30 212.31ZM249.12 210.64L247.81 205.01L242.63 203.34L238.76 207.31L240.07 212.95L245.25 214.61ZM260.74 198.74L259.43 193.10L254.24 191.44L250.37 195.41L251.68 201.04L256.86 202.71ZM265.87 179.52L264.57 173.88L259.38 172.21L255.50 176.19L256.81 181.83L262.00 183.49ZM256.81 181.83L255.50 176.19L250.31 174.52L246.44 178.49L247.75 184.13L252.93 185.80ZM259.38 172.21L258.07 166.57L252.88 164.90L249.00 168.88L250.31 174.52L255.50 176.19ZM263.31 189.13L262.00 183.49L256.81 181.83L252.93 185.80L254.24 191.44L259.43 193.10ZM262.10 225.25L260.79 219.61L255.61 217.95L251.74 221.91L253.05 227.54L258.22 229.21ZM253.05 227.54L251.74 221.91L246.56 220.24L242.69 224.21L244.00 229.84L249.18 231.51ZM264.66 215.65L263.35 210.01L258.17 208.35L254.30 212.31L255.61 217.95L260.79 219.61ZM255.61 217.95L254.30 212.31L249.12 210.64L245.25 214.61L246.56 220.24L251.74 221.91ZM259.53 234.84L258.22 229.21L253.05 227.54L249.18 231.51L250.49 237.14L255.66 238.81ZM260.59 136.04L259.27 130.39L254.08 128.73L250.20 132.71L251.51 138.35L256.70 140.02ZM263.16 126.41L261.85 120.76L256.65 119.09L252.77 123.08L254.08 128.73L259.27 130.39ZM167.48 168.86L166.16 163.23L160.98 161.57L157.13 165.55L158.45 171.18L163.63 172.83ZM158.45 171.18L157.13 165.55L151.95 163.91L148.10 167.89L149.42 173.51L154.60 175.16ZM170.02 159.25L168.70 153.61L163.52 151.96L159.66 155.94L160.98 161.57L166.16 163.23ZM160.98 161.57L159.66 155.94L154.48 154.29L150.63 158.28L151.95 163.91L157.13 165.55ZM173.98 176.14L172.66 170.51L167.48 168.86L163.63 172.83L164.95 178.46L170.13 180.12ZM164.95 178.46L163.63 172.83L158.45 171.18L154.60 175.16L155.92 180.79L161.09 182.44ZM176.52 166.53L175.20 160.90L170.02 159.25L166.16 163.23L167.48 168.86L172.66 170.51ZM142.92 166.24L141.60 160.61L136.42 158.96L132.57 162.94L133.90 168.57L139.07 170.22ZM133.90 168.57L132.57 162.94L127.40 161.30L123.55 165.28L124.88 170.90L130.05 172.55ZM145.45 156.63L144.12 151.00L138.95 149.35L135.10 153.33L136.42 158.96L141.60 160.61ZM136.42 158.96L135.10 153.33L129.92 151.69L126.07 155.67L127.40 161.30L132.57 162.94ZM149.42 173.51L148.10 167.89L142.92 166.24L139.07 170.22L140.40 175.84L145.57 177.49ZM140.40 175.84L139.07 170.22L133.90 168.57L130.05 172.55L131.38 178.17L136.55 179.82ZM151.95 163.91L150.63 158.28L145.45 156.63L141.60 160.61L142.92 166.24L148.10 167.89ZM181.60 147.30L180.28 141.67L175.10 140.01L171.23 144.00L172.56 149.63L177.74 151.28ZM172.56 149.63L171.23 144.00L166.05 142.35L162.19 146.33L163.52 151.96L168.70 153.61ZM184.14 137.68L182.82 132.05L177.64 130.39L173.77 134.38L175.10 140.01L180.28 141.67ZM175.10 140.01L173.77 134.38L168.59 132.73L164.73 136.71L166.05 142.35L171.23 144.00ZM188.10 154.59L186.78 148.96L181.60 147.30L177.74 151.28L179.06 156.92L184.24 158.57ZM179.06 156.92L177.74 151.28L172.56 149.63L168.70 153.61L170.02 159.25L175.20 160.90ZM190.65 144.98L189.33 139.34L184.14 137.68L180.28 141.67L181.60 147.30L186.78 148.96ZM157.01 144.68L155.69 139.05L150.51 137.40L146.65 141.38L147.98 147.01L153.16 148.66ZM147.98 147.01L146.65 141.38L141.47 139.74L137.62 143.72L138.95 149.35L144.12 151.00ZM159.55 135.06L158.22 129.43L153.04 127.78L149.18 131.76L150.51 137.40L155.69 139.05ZM150.51 137.40L149.18 131.76L144.00 130.12L140.15 134.10L141.47 139.74L146.65 141.38ZM163.52 151.96L162.19 146.33L157.01 144.68L153.16 148.66L154.48 154.29L159.66 155.94ZM154.48 154.29L153.16 148.66L147.98 147.01L144.12 151.00L145.45 156.63L150.63 158.28ZM166.05 142.35L164.73 136.71L159.55 135.06L155.69 139.05L157.01 144.68L162.19 146.33ZM177.94 193.03L176.62 187.40L171.45 185.74L167.59 189.72L168.91 195.35L174.09 197.00ZM168.91 195.35L167.59 189.72L162.42 188.07L158.56 192.04L159.89 197.67L165.06 199.32ZM180.48 183.42L179.16 177.79L173.98 176.14L170.13 180.12L171.45 185.74L176.62 187.40ZM171.45 185.74L170.13 180.12L164.95 178.46L161.09 182.44L162.42 188.07L167.59 189.72ZM184.43 200.31L183.12 194.68L177.94 193.03L174.09 197.00L175.40 202.63L180.58 204.28ZM175.40 202.63L174.09 197.00L168.91 195.35L165.06 199.32L166.38 204.94L171.55 206.60ZM186.97 190.71L185.66 185.08L180.48 183.42L176.62 187.40L177.94 193.03L183.12 194.68ZM153.39 190.39L152.07 184.77L146.89 183.12L143.05 187.09L144.37 192.72L149.54 194.37ZM144.37 192.72L143.05 187.09L137.87 185.45L134.03 189.42L135.35 195.04L140.52 196.69ZM155.92 180.79L154.60 175.16L149.42 173.51L145.57 177.49L146.89 183.12L152.07 184.77ZM146.89 183.12L145.57 177.49L140.40 175.84L136.55 179.82L137.87 185.45L143.05 187.09ZM159.89 197.67L158.56 192.04L153.39 190.39L149.54 194.37L150.86 199.99L156.03 201.64ZM150.86 199.99L149.54 194.37L144.37 192.72L140.52 196.69L141.84 202.31L147.01 203.96ZM162.42 188.07L161.09 182.44L155.92 180.79L152.07 184.77L153.39 190.39L158.56 192.04ZM192.06 171.49L190.74 165.86L185.56 164.21L181.70 168.18L183.02 173.82L188.20 175.47ZM183.02 173.82L181.70 168.18L176.52 166.53L172.66 170.51L173.98 176.14L179.16 177.79ZM194.60 161.88L193.28 156.25L188.10 154.59L184.24 158.57L185.56 164.21L190.74 165.86ZM185.56 164.21L184.24 158.57L179.06 156.92L175.20 160.90L176.52 166.53L181.70 168.18ZM198.56 178.78L197.24 173.15L192.06 171.49L188.20 175.47L189.52 181.10L194.69 182.76ZM189.52 181.10L188.20 175.47L183.02 173.82L179.16 177.79L180.48 183.42L185.66 185.08ZM201.10 169.17L199.79 163.54L194.60 161.88L190.74 165.86L192.06 171.49L197.24 173.15ZM106.85 175.58L105.52 169.96L100.35 168.32L96.51 172.30L97.84 177.92L103.01 179.56ZM97.84 177.92L96.51 172.30L91.34 170.66L87.50 174.64L88.83 180.26L94.00 181.90ZM113.34 182.84L112.02 177.22L106.85 175.58L103.01 179.56L104.34 185.18L109.50 186.82ZM82.33 173.00L81.00 167.38L75.83 165.74L72.00 169.73L73.33 175.35L78.50 176.98ZM88.83 180.26L87.50 174.64L82.33 173.00L78.50 176.98L79.83 182.60L85.00 184.24ZM118.38 163.64L117.05 158.01L111.88 156.37L108.03 160.35L109.36 165.98L114.53 167.62ZM109.36 165.98L108.03 160.35L102.86 158.71L99.02 162.69L100.35 168.32L105.52 169.96ZM120.90 154.03L119.57 148.40L114.39 146.76L110.55 150.74L111.88 156.37L117.05 158.01ZM111.88 156.37L110.55 150.74L105.37 149.10L101.53 153.09L102.86 158.71L108.03 160.35ZM124.88 170.90L123.55 165.28L118.38 163.64L114.53 167.62L115.86 173.24L121.03 174.88ZM115.86 173.24L114.53 167.62L109.36 165.98L105.52 169.96L106.85 175.58L112.02 177.22ZM127.40 161.30L126.07 155.67L120.90 154.03L117.05 158.01L118.38 163.64L123.55 165.28ZM93.85 161.05L92.52 155.43L87.34 153.79L83.51 157.78L84.84 163.40L90.01 165.04ZM84.84 163.40L83.51 157.78L78.34 156.14L74.50 160.13L75.83 165.74L81.00 167.38ZM96.36 151.45L95.03 145.82L89.85 144.18L86.01 148.17L87.34 153.79L92.52 155.43ZM87.34 153.79L86.01 148.17L80.84 146.53L77.00 150.52L78.34 156.14L83.51 157.78ZM100.35 168.32L99.02 162.69L93.85 161.05L90.01 165.04L91.34 170.66L96.51 172.30ZM91.34 170.66L90.01 165.04L84.84 163.40L81.00 167.38L82.33 173.00L87.50 174.64ZM102.86 158.71L101.53 153.09L96.36 151.45L92.52 155.43L93.85 161.05L99.02 162.69ZM128.86 187.78L127.53 182.15L122.36 180.51L118.51 184.49L119.84 190.11L125.01 191.75ZM119.84 190.11L118.51 184.49L113.34 182.84L109.50 186.82L110.83 192.44L116.00 194.08ZM131.38 178.17L130.05 172.55L124.88 170.90L121.03 174.88L122.36 180.51L127.53 182.15ZM122.36 180.51L121.03 174.88L115.86 173.24L112.02 177.22L113.34 182.84L118.51 184.49ZM135.35 195.04L134.03 189.42L128.86 187.78L125.01 191.75L126.34 197.37L131.51 199.02ZM137.87 185.45L136.55 179.82L131.38 178.17L127.53 182.15L128.86 187.78L134.03 189.42ZM185.27 101.51L183.95 95.87L178.76 94.22L174.89 98.21L176.21 103.85L181.40 105.50ZM176.21 103.85L174.89 98.21L169.70 96.56L165.83 100.55L167.16 106.19L172.35 107.84ZM187.82 91.88L186.49 86.23L181.30 84.58L177.43 88.57L178.76 94.22L183.95 95.87ZM178.76 94.22L177.43 88.57L172.24 86.92L168.38 90.91L169.70 96.56L174.89 98.21ZM191.78 108.81L190.46 103.16L185.27 101.51L181.40 105.50L182.72 111.14L187.91 112.79ZM182.72 111.14L181.40 105.50L176.21 103.85L172.35 107.84L173.67 113.48L178.86 115.13ZM194.33 99.17L193.01 93.53L187.82 91.88L183.95 95.87L185.27 101.51L190.46 103.16ZM160.65 98.90L159.32 93.26L154.13 91.61L150.27 95.60L151.60 101.24L156.78 102.89ZM151.60 101.24L150.27 95.60L145.09 93.96L141.23 97.95L142.55 103.59L147.74 105.23ZM163.19 89.26L161.86 83.62L156.67 81.97L152.81 85.97L154.13 91.61L159.32 93.26ZM154.13 91.61L152.81 85.97L147.62 84.32L143.76 88.32L145.09 93.96L150.27 95.60ZM167.16 106.19L165.83 100.55L160.65 98.90L156.78 102.89L158.11 108.53L163.30 110.18ZM158.11 108.53L156.78 102.89L151.60 101.24L147.74 105.23L149.06 110.87L154.25 112.52ZM169.70 96.56L168.38 90.91L163.19 89.26L159.32 93.26L160.65 98.90L165.83 100.55ZM165.73 79.63L164.40 73.98L159.21 72.34L155.34 76.33L156.67 81.97L161.86 83.62ZM172.24 86.92L170.92 81.28L165.73 79.63L161.86 83.62L163.19 89.26L168.38 90.91ZM195.74 125.73L194.42 120.09L189.23 118.44L185.37 122.42L186.69 128.06L191.87 129.72ZM186.69 128.06L185.37 122.42L180.18 120.77L176.31 124.76L177.64 130.39L182.82 132.05ZM198.29 116.10L196.97 110.46L191.78 108.81L187.91 112.79L189.23 118.44L194.42 120.09ZM189.23 118.44L187.91 112.79L182.72 111.14L178.86 115.13L180.18 120.77L185.37 122.42ZM202.25 133.03L200.93 127.39L195.74 125.73L191.87 129.72L193.19 135.36L198.38 137.01ZM193.19 135.36L191.87 129.72L186.69 128.06L182.82 132.05L184.14 137.68L189.33 139.34ZM204.80 123.40L203.48 117.76L198.29 116.10L194.42 120.09L195.74 125.73L200.93 127.39ZM171.13 123.10L169.81 117.47L164.62 115.82L160.76 119.80L162.08 125.44L167.27 127.09ZM162.08 125.44L160.76 119.80L155.57 118.16L151.72 122.14L153.04 127.78L158.22 129.43ZM173.67 113.48L172.35 107.84L167.16 106.19L163.30 110.18L164.62 115.82L169.81 117.47ZM164.62 115.82L163.30 110.18L158.11 108.53L154.25 112.52L155.57 118.16L160.76 119.80ZM177.64 130.39L176.31 124.76L171.13 123.10L167.27 127.09L168.59 132.73L173.77 134.38ZM168.59 132.73L167.27 127.09L162.08 125.44L158.22 129.43L159.55 135.06L164.73 136.71ZM180.18 120.77L178.86 115.13L173.67 113.48L169.81 117.47L171.13 123.10L176.31 124.76ZM209.90 104.14L208.59 98.50L203.39 96.84L199.52 100.83L200.84 106.47L206.03 108.13ZM200.84 106.47L199.52 100.83L194.33 99.17L190.46 103.16L191.78 108.81L196.97 110.46ZM203.39 96.84L202.07 91.19L196.88 89.54L193.01 93.53L194.33 99.17L199.52 100.83ZM216.42 111.44L215.10 105.80L209.90 104.14L206.03 108.13L207.35 113.77L212.54 115.43ZM207.35 113.77L206.03 108.13L200.84 106.47L196.97 110.46L198.29 116.10L203.48 117.76ZM121.95 117.91L120.62 112.27L115.44 110.63L111.59 114.62L112.92 120.25L118.10 121.90ZM112.92 120.25L111.59 114.62L106.41 112.98L102.56 116.97L103.90 122.60L109.07 124.24ZM124.48 108.28L123.15 102.65L117.96 101.01L114.11 105.00L115.44 110.63L120.62 112.27ZM115.44 110.63L114.11 105.00L108.93 103.36L105.08 107.35L106.41 112.98L111.59 114.62ZM128.46 125.18L127.13 119.55L121.95 117.91L118.10 121.90L119.43 127.53L124.61 129.17ZM119.43 127.53L118.10 121.90L112.92 120.25L109.07 124.24L110.40 129.87L115.58 131.51ZM130.99 115.56L129.66 109.93L124.48 108.28L120.62 112.27L121.95 117.91L127.13 119.55ZM97.39 115.33L96.05 109.70L90.87 108.07L87.03 112.06L88.36 117.69L93.54 119.33ZM88.36 117.69L87.03 112.06L81.85 110.42L78.01 114.42L79.35 120.04L84.52 121.68ZM99.90 105.71L98.57 100.08L93.39 98.44L89.54 102.44L90.87 108.07L96.05 109.70ZM90.87 108.07L89.54 102.44L84.36 100.80L80.52 104.80L81.85 110.42L87.03 112.06ZM103.90 122.60L102.56 116.97L97.39 115.33L93.54 119.33L94.87 124.95L100.05 126.59ZM94.87 124.95L93.54 119.33L88.36 117.69L84.52 121.68L85.85 127.31L91.03 128.94ZM106.41 112.98L105.08 107.35L99.90 105.71L96.05 109.70L97.39 115.33L102.56 116.97ZM136.04 96.30L134.71 90.67L129.53 89.02L125.67 93.02L127.00 98.65L132.18 100.30ZM127.00 98.65L125.67 93.02L120.49 91.38L116.63 95.37L117.96 101.01L123.15 102.65ZM138.57 86.67L137.24 81.03L132.05 79.39L128.20 83.39L129.53 89.02L134.71 90.67ZM129.53 89.02L128.20 83.39L123.01 81.74L119.16 85.74L120.49 91.38L125.67 93.02ZM142.55 103.59L141.23 97.95L136.04 96.30L132.18 100.30L133.51 105.93L138.70 107.58ZM133.51 105.93L132.18 100.30L127.00 98.65L123.15 102.65L124.48 108.28L129.66 109.93ZM145.09 93.96L143.76 88.32L138.57 86.67L134.71 90.67L136.04 96.30L141.23 97.95ZM111.45 93.73L110.12 88.09L104.93 86.46L101.08 90.45L102.42 96.09L107.60 97.72ZM102.42 96.09L101.08 90.45L95.90 88.81L92.05 92.81L93.39 98.44L98.57 100.08ZM113.97 84.10L112.64 78.46L107.45 76.82L103.60 80.82L104.93 86.46L110.12 88.09ZM104.93 86.46L103.60 80.82L98.42 79.18L94.57 83.18L95.90 88.81L101.08 90.45ZM117.96 101.01L116.63 95.37L111.45 93.73L107.60 97.72L108.93 103.36L114.11 105.00ZM108.93 103.36L107.60 97.72L102.42 96.09L98.57 100.08L99.90 105.71L105.08 107.35ZM120.49 91.38L119.16 85.74L113.97 84.10L110.12 88.09L111.45 93.73L116.63 95.37ZM132.44 142.08L131.12 136.44L125.94 134.80L122.09 138.79L123.42 144.42L128.59 146.06ZM123.42 144.42L122.09 138.79L116.91 137.14L113.06 141.13L114.39 146.76L119.57 148.40ZM134.97 132.46L133.64 126.83L128.46 125.18L124.61 129.17L125.94 134.80L131.12 136.44ZM125.94 134.80L124.61 129.17L119.43 127.53L115.58 131.51L116.91 137.14L122.09 138.79ZM138.95 149.35L137.62 143.72L132.44 142.08L128.59 146.06L129.92 151.69L135.10 153.33ZM129.92 151.69L128.59 146.06L123.42 144.42L119.57 148.40L120.90 154.03L126.07 155.67ZM141.47 139.74L140.15 134.10L134.97 132.46L131.12 136.44L132.44 142.08L137.62 143.72ZM107.89 139.49L106.56 133.86L101.38 132.22L97.54 136.21L98.87 141.84L104.04 143.48ZM98.87 141.84L97.54 136.21L92.36 134.57L88.52 138.56L89.85 144.18L95.03 145.82ZM110.40 129.87L109.07 124.24L103.90 122.60L100.05 126.59L101.38 132.22L106.56 133.86ZM101.38 132.22L100.05 126.59L94.87 124.95L91.03 128.94L92.36 134.57L97.54 136.21ZM114.39 146.76L113.06 141.13L107.89 139.49L104.04 143.48L105.37 149.10L110.55 150.74ZM105.37 149.10L104.04 143.48L98.87 141.84L95.03 145.82L96.36 151.45L101.53 153.09ZM116.91 137.14L115.58 131.51L110.40 129.87L106.56 133.86L107.89 139.49L113.06 141.13ZM146.53 120.50L145.21 114.86L140.02 113.21L136.17 117.20L137.49 122.84L142.68 124.48ZM137.49 122.84L136.17 117.20L130.99 115.56L127.13 119.55L128.46 125.18L133.64 126.83ZM149.06 110.87L147.74 105.23L142.55 103.59L138.70 107.58L140.02 113.21L145.21 114.86ZM140.02 113.21L138.70 107.58L133.51 105.93L129.66 109.93L130.99 115.56L136.17 117.20ZM153.04 127.78L151.72 122.14L146.53 120.50L142.68 124.48L144.00 130.12L149.18 131.76ZM144.00 130.12L142.68 124.48L137.49 122.84L133.64 126.83L134.97 132.46L140.15 134.10ZM155.57 118.16L154.25 112.52L149.06 110.87L145.21 114.86L146.53 120.50L151.72 122.14ZM212.94 219.86L211.63 214.23L206.45 212.57L202.59 216.54L203.91 222.16L209.08 223.82ZM203.91 222.16L202.59 216.54L197.42 214.88L193.56 218.85L194.88 224.47L200.05 226.13ZM215.49 210.26L214.18 204.63L209.00 202.97L205.14 206.94L206.45 212.57L211.63 214.23ZM206.45 212.57L205.14 206.94L199.96 205.28L196.10 209.25L197.42 214.88L202.59 216.54ZM221.98 217.55L220.67 211.92L215.49 210.26L211.63 214.23L212.94 219.86L218.12 221.52ZM188.39 217.19L187.07 211.56L181.90 209.91L178.04 213.88L179.36 219.50L184.53 221.16ZM190.93 207.59L189.61 201.97L184.43 200.31L180.58 204.28L181.90 209.91L187.07 211.56ZM181.90 209.91L180.58 204.28L175.40 202.63L171.55 206.60L172.87 212.22L178.04 213.88ZM194.88 224.47L193.56 218.85L188.39 217.19L184.53 221.16L185.85 226.78L191.02 228.44ZM197.42 214.88L196.10 209.25L190.93 207.59L187.07 211.56L188.39 217.19L193.56 218.85ZM227.09 198.35L225.77 192.72L220.59 191.06L216.73 195.03L218.04 200.66L223.22 202.32ZM218.04 200.66L216.73 195.03L211.55 193.37L207.68 197.34L209.00 202.97L214.18 204.63ZM229.64 188.75L228.33 183.11L223.15 181.45L219.28 185.42L220.59 191.06L225.77 192.72ZM220.59 191.06L219.28 185.42L214.10 183.76L210.23 187.73L211.55 193.37L216.73 195.03ZM233.58 205.65L232.27 200.01L227.09 198.35L223.22 202.32L224.53 207.95L229.71 209.62ZM224.53 207.95L223.22 202.32L218.04 200.66L214.18 204.63L215.49 210.26L220.67 211.92ZM236.14 196.04L234.82 190.41L229.64 188.75L225.77 192.72L227.09 198.35L232.27 200.01ZM202.51 195.68L201.19 190.05L196.01 188.39L192.15 192.36L193.47 197.99L198.65 199.65ZM193.47 197.99L192.15 192.36L186.97 190.71L183.12 194.68L184.43 200.31L189.61 201.97ZM205.05 186.08L203.74 180.44L198.56 178.78L194.69 182.76L196.01 188.39L201.19 190.05ZM196.01 188.39L194.69 182.76L189.52 181.10L185.66 185.08L186.97 190.71L192.15 192.36ZM209.00 202.97L207.68 197.34L202.51 195.68L198.65 199.65L199.96 205.28L205.14 206.94ZM199.96 205.28L198.65 199.65L193.47 197.99L189.61 201.97L190.93 207.59L196.10 209.25ZM211.55 193.37L210.23 187.73L205.05 186.08L201.19 190.05L202.51 195.68L207.68 197.34ZM225.92 234.44L224.61 228.81L219.43 227.15L215.57 231.11L216.88 236.74L222.06 238.40ZM237.51 222.54L236.20 216.91L231.02 215.25L227.16 219.21L228.47 224.84L233.65 226.51ZM228.47 224.84L227.16 219.21L221.98 217.55L218.12 221.52L219.43 227.15L224.61 228.81ZM240.07 212.95L238.76 207.31L233.58 205.65L229.71 209.62L231.02 215.25L236.20 216.91ZM231.02 215.25L229.71 209.62L224.53 207.95L220.67 211.92L221.98 217.55L227.16 219.21ZM244.00 229.84L242.69 224.21L237.51 222.54L233.65 226.51L234.96 232.14L240.13 233.80ZM234.96 232.14L233.65 226.51L228.47 224.84L224.61 228.81L225.92 234.44L231.09 236.10ZM246.56 220.24L245.25 214.61L240.07 212.95L236.20 216.91L237.51 222.54L242.69 224.21ZM166.38 204.94L165.06 199.32L159.89 197.67L156.03 201.64L157.36 207.26L162.53 208.92ZM157.36 207.26L156.03 201.64L150.86 199.99L147.01 203.96L148.34 209.59L153.51 211.24ZM230.82 152.61L229.50 146.97L224.31 145.30L220.44 149.28L221.76 154.92L226.94 156.58ZM221.76 154.92L220.44 149.28L215.26 147.62L211.39 151.60L212.70 157.24L217.89 158.90ZM233.38 142.99L232.06 137.34L226.87 135.68L223.00 139.66L224.31 145.30L229.50 146.97ZM224.31 145.30L223.00 139.66L217.81 138.00L213.94 141.98L215.26 147.62L220.44 149.28ZM237.32 159.91L236.00 154.27L230.82 152.61L226.94 156.58L228.26 162.22L233.44 163.89ZM228.26 162.22L226.94 156.58L221.76 154.92L217.89 158.90L219.20 164.54L224.39 166.20ZM239.88 150.29L238.57 144.65L233.38 142.99L229.50 146.97L230.82 152.61L236.00 154.27ZM206.20 149.95L204.88 144.31L199.70 142.65L195.83 146.63L197.15 152.27L202.33 153.93ZM197.15 152.27L195.83 146.63L190.65 144.98L186.78 148.96L188.10 154.59L193.28 156.25ZM208.75 140.33L207.43 134.69L202.25 133.03L198.38 137.01L199.70 142.65L204.88 144.31ZM199.70 142.65L198.38 137.01L193.19 135.36L189.33 139.34L190.65 144.98L195.83 146.63ZM212.70 157.24L211.39 151.60L206.20 149.95L202.33 153.93L203.65 159.56L208.83 161.22ZM203.65 159.56L202.33 153.93L197.15 152.27L193.28 156.25L194.60 161.88L199.79 163.54ZM215.26 147.62L213.94 141.98L208.75 140.33L204.88 144.31L206.20 149.95L211.39 151.60ZM245.01 131.04L243.69 125.40L238.50 123.73L234.62 127.72L235.94 133.36L241.13 135.02ZM235.94 133.36L234.62 127.72L229.43 126.05L225.56 130.04L226.87 135.68L232.06 137.34ZM247.57 121.41L246.26 115.77L241.07 114.10L237.19 118.09L238.50 123.73L243.69 125.40ZM238.50 123.73L237.19 118.09L231.99 116.42L228.12 120.41L229.43 126.05L234.62 127.72ZM251.51 138.35L250.20 132.71L245.01 131.04L241.13 135.02L242.44 140.67L247.63 142.33ZM242.44 140.67L241.13 135.02L235.94 133.36L232.06 137.34L233.38 142.99L238.57 144.65ZM254.08 128.73L252.77 123.08L247.57 121.41L243.69 125.40L245.01 131.04L250.20 132.71ZM220.37 128.38L219.05 122.73L213.86 121.08L209.99 125.06L211.30 130.70L216.49 132.36ZM211.30 130.70L209.99 125.06L204.80 123.40L200.93 127.39L202.25 133.03L207.43 134.69ZM222.92 118.75L221.61 113.10L216.42 111.44L212.54 115.43L213.86 121.08L219.05 122.73ZM213.86 121.08L212.54 115.43L207.35 113.77L203.48 117.76L204.80 123.40L209.99 125.06ZM226.87 135.68L225.56 130.04L220.37 128.38L216.49 132.36L217.81 138.00L223.00 139.66ZM217.81 138.00L216.49 132.36L211.30 130.70L207.43 134.69L208.75 140.33L213.94 141.98ZM229.43 126.05L228.12 120.41L222.92 118.75L219.05 122.73L220.37 128.38L225.56 130.04ZM241.25 176.83L239.94 171.19L234.76 169.53L230.88 173.50L232.20 179.14L237.38 180.80ZM232.20 179.14L230.88 173.50L225.70 171.84L221.83 175.81L223.15 181.45L228.33 183.11ZM243.82 167.21L242.50 161.57L237.32 159.91L233.44 163.89L234.76 169.53L239.94 171.19ZM234.76 169.53L233.44 163.89L228.26 162.22L224.39 166.20L225.70 171.84L230.88 173.50ZM247.75 184.13L246.44 178.49L241.25 176.83L237.38 180.80L238.69 186.44L243.88 188.10ZM238.69 186.44L237.38 180.80L232.20 179.14L228.33 183.11L229.64 188.75L234.82 190.41ZM250.31 174.52L249.00 168.88L243.82 167.21L239.94 171.19L241.25 176.83L246.44 178.49ZM216.65 174.15L215.33 168.52L210.15 166.86L206.28 170.83L207.60 176.47L212.78 178.13ZM207.60 176.47L206.28 170.83L201.10 169.17L197.24 173.15L198.56 178.78L203.74 180.44ZM219.20 164.54L217.89 158.90L212.70 157.24L208.83 161.22L210.15 166.86L215.33 168.52ZM210.15 166.86L208.83 161.22L203.65 159.56L199.79 163.54L201.10 169.17L206.28 170.83ZM223.15 181.45L221.83 175.81L216.65 174.15L212.78 178.13L214.10 183.76L219.28 185.42ZM214.10 183.76L212.78 178.13L207.60 176.47L203.74 180.44L205.05 186.08L210.23 187.73ZM225.70 171.84L224.39 166.20L219.20 164.54L215.33 168.52L216.65 174.15L221.83 175.81ZM255.45 155.29L254.14 149.64L248.94 147.98L245.07 151.95L246.38 157.60L251.57 159.26ZM246.38 157.60L245.07 151.95L239.88 150.29L236.00 154.27L237.32 159.91L242.50 161.57ZM258.01 145.66L256.70 140.02L251.51 138.35L247.63 142.33L248.94 147.98L254.14 149.64ZM248.94 147.98L247.63 142.33L242.44 140.67L238.57 144.65L239.88 150.29L245.07 151.95ZM261.95 162.60L260.64 156.95L255.45 155.29L251.57 159.26L252.88 164.90L258.07 166.57ZM252.88 164.90L251.57 159.26L246.38 157.60L242.50 161.57L243.82 167.21L249.00 168.88ZM264.52 152.98L263.21 147.33L258.01 145.66L254.14 149.64L255.45 155.29L260.64 156.95ZM9.82 129.33L8.47 123.71L3.31 122.09L-0.52 126.09L0.83 131.70L5.99 133.32ZM0.83 131.70L-0.52 126.09L-5.68 124.46L-9.50 128.46L-8.16 134.07L-2.99 135.69ZM12.30 119.72L10.95 114.10L5.79 112.48L1.96 116.47L3.31 122.09L8.47 123.71ZM3.31 122.09L1.96 116.47L-3.20 114.85L-7.03 118.85L-5.68 124.46L-0.52 126.09ZM16.32 136.57L14.98 130.96L9.82 129.33L5.99 133.32L7.34 138.94L12.50 140.56ZM7.34 138.94L5.99 133.32L0.83 131.70L-2.99 135.69L-1.65 141.31L3.51 142.93ZM18.81 126.96L17.47 121.34L12.30 119.72L8.47 123.71L9.82 129.33L14.98 130.96ZM22.83 143.81L21.49 138.20L16.32 136.57L12.50 140.56L13.84 146.18L19.01 147.80ZM13.84 146.18L12.50 140.56L7.34 138.94L3.51 142.93L4.86 148.54L10.02 150.17ZM29.33 151.06L28.00 145.44L22.83 143.81L19.01 147.80L20.35 153.42L25.51 155.04ZM13.24 83.62L11.89 77.99L6.72 76.37L2.89 80.37L4.23 86.00L9.41 87.62ZM4.23 86.00L2.89 80.37L-2.28 78.75L-6.11 82.76L-4.76 88.38L0.41 90.00ZM15.72 73.99L14.38 68.36L9.20 66.74L5.37 70.75L6.72 76.37L11.89 77.99ZM6.72 76.37L5.37 70.75L0.20 69.13L-3.63 73.13L-2.28 78.75L2.89 80.37ZM19.75 90.87L18.41 85.24L13.24 83.62L9.41 87.62L10.75 93.24L15.92 94.86ZM10.75 93.24L9.41 87.62L4.23 86.00L0.41 90.00L1.75 95.62L6.92 97.24ZM22.24 81.24L20.90 75.61L15.72 73.99L11.89 77.99L13.24 83.62L18.41 85.24ZM27.22 61.98L25.88 56.35L20.70 54.73L16.87 58.73L18.21 64.36L23.39 65.98ZM18.21 64.36L16.87 58.73L11.69 57.11L7.86 61.12L9.20 66.74L14.38 68.36ZM29.71 52.34L28.37 46.71L23.19 45.09L19.36 49.10L20.70 54.73L25.88 56.35ZM20.70 54.73L19.36 49.10L14.18 47.47L10.34 51.48L11.69 57.11L16.87 58.73ZM33.74 69.23L32.40 63.61L27.22 61.98L23.39 65.98L24.73 71.61L29.91 73.24ZM24.73 71.61L23.39 65.98L18.21 64.36L14.38 68.36L15.72 73.99L20.90 75.61ZM36.24 59.60L34.89 53.97L29.71 52.34L25.88 56.35L27.22 61.98L32.40 63.61ZM2.68 59.50L1.33 53.87L-3.84 52.25L-7.67 56.26L-6.32 61.88L-1.15 63.50ZM5.17 49.86L3.82 44.23L-1.36 42.61L-5.19 46.62L-3.84 52.25L1.33 53.87ZM9.20 66.74L7.86 61.12L2.68 59.50L-1.15 63.50L0.20 69.13L5.37 70.75ZM0.20 69.13L-1.15 63.50L-6.32 61.88L-10.15 65.89L-8.80 71.51L-3.63 73.13ZM11.69 57.11L10.34 51.48L5.17 49.86L1.33 53.87L2.68 59.50L7.86 61.12ZM23.78 107.73L22.44 102.11L17.27 100.49L13.44 104.48L14.78 110.10L19.95 111.73ZM14.78 110.10L13.44 104.48L8.27 102.86L4.44 106.86L5.79 112.48L10.95 114.10ZM26.27 98.11L24.93 92.49L19.75 90.87L15.92 94.86L17.27 100.49L22.44 102.11ZM17.27 100.49L15.92 94.86L10.75 93.24L6.92 97.24L8.27 102.86L13.44 104.48ZM30.29 114.98L28.95 109.36L23.78 107.73L19.95 111.73L21.29 117.35L26.46 118.98ZM21.29 117.35L19.95 111.73L14.78 110.10L10.95 114.10L12.30 119.72L17.47 121.34ZM32.78 105.36L31.44 99.74L26.27 98.11L22.44 102.11L23.78 107.73L28.95 109.36ZM1.75 95.62L0.41 90.00L-4.76 88.38L-8.59 92.38L-7.24 98.00L-2.07 99.62ZM5.79 112.48L4.44 106.86L-0.73 105.24L-4.55 109.23L-3.20 114.85L1.96 116.47ZM8.27 102.86L6.92 97.24L1.75 95.62L-2.07 99.62L-0.73 105.24L4.44 106.86ZM37.77 86.12L36.43 80.49L31.25 78.86L27.42 82.87L28.76 88.49L33.93 90.12ZM28.76 88.49L27.42 82.87L22.24 81.24L18.41 85.24L19.75 90.87L24.93 92.49ZM40.26 76.49L38.92 70.86L33.74 69.23L29.91 73.24L31.25 78.86L36.43 80.49ZM31.25 78.86L29.91 73.24L24.73 71.61L20.90 75.61L22.24 81.24L27.42 82.87ZM44.28 93.37L42.94 87.75L37.77 86.12L33.93 90.12L35.27 95.74L40.45 97.37ZM35.27 95.74L33.93 90.12L28.76 88.49L24.93 92.49L26.27 98.11L31.44 99.74ZM46.78 83.75L45.44 78.12L40.26 76.49L36.43 80.49L37.77 86.12L42.94 87.75ZM58.82 134.37L57.48 128.75L52.31 127.12L48.48 131.11L49.82 136.73L54.99 138.36ZM49.82 136.73L48.48 131.11L43.31 129.48L39.48 133.47L40.82 139.09L45.99 140.72ZM61.32 124.76L59.98 119.14L54.81 117.50L50.98 121.50L52.31 127.12L57.48 128.75ZM52.31 127.12L50.98 121.50L45.80 119.87L41.97 123.86L43.31 129.48L48.48 131.11ZM65.33 141.63L63.99 136.01L58.82 134.37L54.99 138.36L56.32 143.98L61.49 145.62ZM56.32 143.98L54.99 138.36L49.82 136.73L45.99 140.72L47.32 146.34L52.49 147.97ZM67.83 132.02L66.49 126.39L61.32 124.76L57.48 128.75L58.82 134.37L63.99 136.01ZM34.31 131.84L32.97 126.22L27.80 124.60L23.97 128.59L25.32 134.21L30.48 135.83ZM25.32 134.21L23.97 128.59L18.81 126.96L14.98 130.96L16.32 136.57L21.49 138.20ZM36.80 122.23L35.46 116.61L30.29 114.98L26.46 118.98L27.80 124.60L32.97 126.22ZM27.80 124.60L26.46 118.98L21.29 117.35L17.47 121.34L18.81 126.96L23.97 128.59ZM40.82 139.09L39.48 133.47L34.31 131.84L30.48 135.83L31.82 141.45L36.99 143.08ZM31.82 141.45L30.48 135.83L25.32 134.21L21.49 138.20L22.83 143.81L28.00 145.44ZM43.31 129.48L41.97 123.86L36.80 122.23L32.97 126.22L34.31 131.84L39.48 133.47ZM72.84 112.78L71.50 107.16L66.32 105.52L62.48 109.52L63.82 115.14L69.00 116.78ZM63.82 115.14L62.48 109.52L57.31 107.88L53.47 111.88L54.81 117.50L59.98 119.14ZM75.34 103.16L74.01 97.53L68.83 95.90L64.99 99.89L66.32 105.52L71.50 107.16ZM66.32 105.52L64.99 99.89L59.81 98.26L55.97 102.26L57.31 107.88L62.48 109.52ZM79.35 120.04L78.01 114.42L72.84 112.78L69.00 116.78L70.33 122.40L75.51 124.04ZM70.33 122.40L69.00 116.78L63.82 115.14L59.98 119.14L61.32 124.76L66.49 126.39ZM81.85 110.42L80.52 104.80L75.34 103.16L71.50 107.16L72.84 112.78L78.01 114.42ZM48.30 110.25L46.96 104.62L41.79 103.00L37.95 106.99L39.29 112.61L44.47 114.24ZM39.29 112.61L37.95 106.99L32.78 105.36L28.95 109.36L30.29 114.98L35.46 116.61ZM50.80 100.63L49.46 95.00L44.28 93.37L40.45 97.37L41.79 103.00L46.96 104.62ZM41.79 103.00L40.45 97.37L35.27 95.74L31.44 99.74L32.78 105.36L37.95 106.99ZM54.81 117.50L53.47 111.88L48.30 110.25L44.47 114.24L45.80 119.87L50.98 121.50ZM45.80 119.87L44.47 114.24L39.29 112.61L35.46 116.61L36.80 122.23L41.97 123.86ZM57.31 107.88L55.97 102.26L50.80 100.63L46.96 104.62L48.30 110.25L53.47 111.88ZM69.33 158.49L68.00 152.87L62.83 151.24L59.00 155.22L60.33 160.84L65.50 162.47ZM60.33 160.84L59.00 155.22L53.83 153.59L50.00 157.58L51.33 163.19L56.50 164.83ZM71.83 148.88L70.50 143.26L65.33 141.63L61.49 145.62L62.83 151.24L68.00 152.87ZM62.83 151.24L61.49 145.62L56.32 143.98L52.49 147.97L53.83 153.59L59.00 155.22ZM75.83 165.74L74.50 160.13L69.33 158.49L65.50 162.47L66.83 168.09L72.00 169.73ZM78.34 156.14L77.00 150.52L71.83 148.88L68.00 152.87L69.33 158.49L74.50 160.13ZM44.83 155.94L43.49 150.33L38.33 148.70L34.50 152.69L35.84 158.30L41.00 159.93ZM47.32 146.34L45.99 140.72L40.82 139.09L36.99 143.08L38.33 148.70L43.49 150.33ZM38.33 148.70L36.99 143.08L31.82 141.45L28.00 145.44L29.33 151.06L34.50 152.69ZM51.33 163.19L50.00 157.58L44.83 155.94L41.00 159.93L42.34 165.55L47.50 167.18ZM42.34 165.55L41.00 159.93L35.84 158.30L32.01 162.29L33.35 167.90L38.51 169.53ZM53.83 153.59L52.49 147.97L47.32 146.34L43.49 150.33L44.83 155.94L50.00 157.58ZM83.35 136.92L82.01 131.30L76.84 129.66L73.00 133.65L74.34 139.27L79.51 140.91ZM74.34 139.27L73.00 133.65L67.83 132.02L63.99 136.01L65.33 141.63L70.50 143.26ZM85.85 127.31L84.52 121.68L79.35 120.04L75.51 124.04L76.84 129.66L82.01 131.30ZM76.84 129.66L75.51 124.04L70.33 122.40L66.49 126.39L67.83 132.02L73.00 133.65ZM89.85 144.18L88.52 138.56L83.35 136.92L79.51 140.91L80.84 146.53L86.01 148.17ZM80.84 146.53L79.51 140.91L74.34 139.27L70.50 143.26L71.83 148.88L77.00 150.52ZM92.36 134.57L91.03 128.94L85.85 127.31L82.01 131.30L83.35 136.92L88.52 138.56ZM263.45 251.74L262.15 246.11L256.97 244.44L253.10 248.40L254.41 254.02L259.58 255.69ZM266.02 242.15L264.71 236.51L259.53 234.84L255.66 238.81L256.97 244.44L262.15 246.11ZM250.49 237.14L249.18 231.51L244.00 229.84L240.13 233.80L241.44 239.43L246.62 241.10ZM241.44 239.43L240.13 233.80L234.96 232.14L231.09 236.10L232.40 241.73L237.58 243.39Z"/><path data-band="3" fill="#dc2626" fill-opacity="0.35" d="M257.70 19.94L256.38 14.27L251.17 12.61L247.28 16.61L248.60 22.28L253.80 23.94ZM260.28 10.27L258.96 4.60L253.75 2.94L249.85 6.95L251.17 12.61L256.38 14.27ZM264.22 27.27L262.91 21.60L257.70 19.94L253.80 23.94L255.12 29.60L260.33 31.27ZM242.07 14.95L240.75 9.29L235.54 7.63L231.65 11.64L232.97 17.30L238.18 18.96ZM232.97 17.30L231.65 11.64L226.44 9.98L222.55 13.98L223.87 19.64L229.08 21.30ZM244.64 5.29L243.32 -0.38L238.11 -2.04L234.22 1.97L235.54 7.63L240.75 9.29ZM235.54 7.63L234.22 1.97L229.01 0.31L225.12 4.32L226.44 9.98L231.65 11.64ZM248.60 22.28L247.28 16.61L242.07 14.95L238.18 18.96L239.50 24.62L244.70 26.28ZM239.50 24.62L238.18 18.96L232.97 17.30L229.08 21.30L230.40 26.96L235.61 28.62ZM251.17 12.61L249.85 6.95L244.64 5.29L240.75 9.29L242.07 14.95L247.28 16.61ZM262.86 0.60L261.54 -5.07L256.33 -6.73L252.43 -2.72L253.75 2.94L258.96 4.60ZM253.75 2.94L252.43 -2.72L247.22 -4.39L243.32 -0.38L244.64 5.29L249.85 6.95ZM252.54 39.26L251.23 33.60L246.02 31.94L242.13 35.94L243.45 41.60L248.65 43.26ZM243.45 41.60L242.13 35.94L236.92 34.28L233.04 38.28L234.35 43.94L239.56 45.60ZM255.12 29.60L253.80 23.94L248.60 22.28L244.70 26.28L246.02 31.94L251.23 33.60ZM246.02 31.94L244.70 26.28L239.50 24.62L235.61 28.62L236.92 34.28L242.13 35.94ZM259.07 46.59L257.75 40.93L252.54 39.26L248.65 43.26L249.97 48.92L255.17 50.58ZM249.97 48.92L248.65 43.26L243.45 41.60L239.56 45.60L240.88 51.26L246.08 52.92ZM261.64 36.93L260.33 31.27L255.12 29.60L251.23 33.60L252.54 39.26L257.75 40.93ZM203.13 34.00L201.81 28.34L196.61 26.69L192.73 30.69L194.05 36.34L199.25 38.00ZM194.05 36.34L192.73 30.69L187.53 29.04L183.65 33.04L184.98 38.69L190.18 40.35ZM205.69 24.34L204.37 18.68L199.17 17.03L195.29 21.03L196.61 26.69L201.81 28.34ZM196.61 26.69L195.29 21.03L190.08 19.38L186.20 23.38L187.53 29.04L192.73 30.69ZM209.66 41.31L208.34 35.65L203.13 34.00L199.25 38.00L200.58 43.65L205.78 45.31ZM200.58 43.65L199.25 38.00L194.05 36.34L190.18 40.35L191.50 46.00L196.70 47.65ZM212.22 31.65L210.90 25.99L205.69 24.34L201.81 28.34L203.13 34.00L208.34 35.65ZM178.45 31.39L177.13 25.74L171.93 24.09L168.05 28.09L169.38 33.75L174.58 35.39ZM169.38 33.75L168.05 28.09L162.85 26.45L158.98 30.45L160.31 36.10L165.51 37.75ZM181.00 21.73L179.68 16.08L174.47 14.43L170.60 18.44L171.93 24.09L177.13 25.74ZM171.93 24.09L170.60 18.44L165.40 16.79L161.53 20.79L162.85 26.45L168.05 28.09ZM184.98 38.69L183.65 33.04L178.45 31.39L174.58 35.39L175.90 41.05L181.10 42.70ZM175.90 41.05L174.58 35.39L169.38 33.75L165.51 37.75L166.83 43.40L172.03 45.05ZM187.53 29.04L186.20 23.38L181.00 21.73L177.13 25.74L178.45 31.39L183.65 33.04ZM217.35 12.33L216.02 6.67L210.82 5.01L206.93 9.02L208.25 14.68L213.46 16.33ZM208.25 14.68L206.93 9.02L201.72 7.36L197.84 11.37L199.17 17.03L204.37 18.68ZM219.91 2.66L218.59 -3.00L213.38 -4.66L209.49 -0.65L210.82 5.01L216.02 6.67ZM210.82 5.01L209.49 -0.65L204.28 -2.30L200.40 1.70L201.72 7.36L206.93 9.02ZM223.87 19.64L222.55 13.98L217.35 12.33L213.46 16.33L214.78 21.99L219.99 23.65ZM214.78 21.99L213.46 16.33L208.25 14.68L204.37 18.68L205.69 24.34L210.90 25.99ZM226.44 9.98L225.12 4.32L219.91 2.66L216.02 6.67L217.35 12.33L222.55 13.98ZM192.64 9.72L191.31 4.06L186.11 2.41L182.23 6.42L183.55 12.07L188.76 13.72ZM183.55 12.07L182.23 6.42L177.02 4.77L173.15 8.77L174.47 14.43L179.68 16.08ZM195.19 0.05L193.87 -5.61L188.66 -7.26L184.78 -3.25L186.11 2.41L191.31 4.06ZM186.11 2.41L184.78 -3.25L179.58 -4.90L175.70 -0.89L177.02 4.77L182.23 6.42ZM199.17 17.03L197.84 11.37L192.64 9.72L188.76 13.72L190.08 19.38L195.29 21.03ZM190.08 19.38L188.76 13.72L183.55 12.07L179.68 16.08L181.00 21.73L186.20 23.38ZM201.72 7.36L200.40 1.70L195.19 0.05L191.31 4.06L192.64 9.72L197.84 11.37ZM213.62 58.27L212.30 52.62L207.10 50.96L203.22 54.96L204.54 60.61L209.74 62.26ZM204.54 60.61L203.22 54.96L198.02 53.30L194.15 57.30L195.47 62.95L200.66 64.61ZM216.18 48.62L214.86 42.96L209.66 41.31L205.78 45.31L207.10 50.96L212.30 52.62ZM207.10 50.96L205.78 45.31L200.58 43.65L196.70 47.65L198.02 53.30L203.22 54.96ZM220.14 65.58L218.82 59.93L213.62 58.27L209.74 62.26L211.06 67.92L216.26 69.57ZM211.06 67.92L209.74 62.26L204.54 60.61L200.66 64.61L201.99 70.26L207.18 71.91ZM222.70 55.93L221.38 50.27L216.18 48.62L212.30 52.62L213.62 58.27L218.82 59.93ZM188.95 55.65L187.62 50.00L182.43 48.35L178.55 52.35L179.88 58.00L185.07 59.65ZM179.88 58.00L178.55 52.35L173.36 50.70L169.49 54.70L170.81 60.34L176.01 61.99ZM191.50 46.00L190.18 40.35L184.98 38.69L181.10 42.70L182.43 48.35L187.62 50.00ZM182.43 48.35L181.10 42.70L175.90 41.05L172.03 45.05L173.36 50.70L178.55 52.35ZM195.47 62.95L194.15 57.30L188.95 55.65L185.07 59.65L186.40 65.30L191.59 66.95ZM186.40 65.30L185.07 59.65L179.88 58.00L176.01 61.99L177.33 67.64L182.53 69.29ZM198.02 53.30L196.70 47.65L191.50 46.00L187.62 50.00L188.95 55.65L194.15 57.30ZM227.83 36.62L226.51 30.96L221.31 29.30L217.42 33.31L218.74 38.96L223.95 40.62ZM218.74 38.96L217.42 33.31L212.22 31.65L208.34 35.65L209.66 41.31L214.86 42.96ZM230.40 26.96L229.08 21.30L223.87 19.64L219.99 23.65L221.31 29.30L226.51 30.96ZM221.31 29.30L219.99 23.65L214.78 21.99L210.90 25.99L212.22 31.65L217.42 33.31ZM234.35 43.94L233.04 38.28L227.83 36.62L223.95 40.62L225.27 46.28L230.47 47.94ZM225.27 46.28L223.95 40.62L218.74 38.96L214.86 42.96L216.18 48.62L221.38 50.27ZM236.92 34.28L235.61 28.62L230.40 26.96L226.51 30.96L227.83 36.62L233.04 38.28ZM238.11 -2.04L236.79 -7.70L231.58 -9.36L227.69 -5.35L229.01 0.31L234.22 1.97ZM229.01 0.31L227.69 -5.35L222.48 -7.01L218.59 -3.00L219.91 2.66L225.12 4.32ZM204.28 -2.30L202.96 -7.97L197.75 -9.62L193.87 -5.61L195.19 0.05L200.40 1.70ZM248.77 85.19L247.46 79.53L242.26 77.87L238.37 81.86L239.69 87.51L244.89 89.18ZM239.69 87.51L238.37 81.86L233.17 80.20L229.29 84.19L230.61 89.84L235.81 91.50ZM251.34 75.54L250.03 69.89L244.83 68.22L240.94 72.22L242.26 77.87L247.46 79.53ZM242.26 77.87L240.94 72.22L235.74 70.56L231.86 74.55L233.17 80.20L238.37 81.86ZM255.28 92.50L253.97 86.85L248.77 85.19L244.89 89.18L246.20 94.83L251.40 96.49ZM246.20 94.83L244.89 89.18L239.69 87.51L235.81 91.50L237.12 97.15L242.32 98.82ZM257.86 82.86L256.54 77.21L251.34 75.54L247.46 79.53L248.77 85.19L253.97 86.85ZM224.09 82.53L222.78 76.88L217.58 75.22L213.70 79.22L215.02 84.87L220.21 86.53ZM215.02 84.87L213.70 79.22L208.50 77.56L204.63 81.55L205.95 87.20L211.14 88.86ZM226.66 72.89L225.34 67.24L220.14 65.58L216.26 69.57L217.58 75.22L222.78 76.88ZM217.58 75.22L216.26 69.57L211.06 67.92L207.18 71.91L208.50 77.56L213.70 79.22ZM230.61 89.84L229.29 84.19L224.09 82.53L220.21 86.53L221.53 92.17L226.73 93.83ZM221.53 92.17L220.21 86.53L215.02 84.87L211.14 88.86L212.46 94.51L217.66 96.16ZM233.17 80.20L231.86 74.55L226.66 72.89L222.78 76.88L224.09 82.53L229.29 84.19ZM263.01 63.57L261.69 57.91L256.49 56.24L252.60 60.24L253.91 65.89L259.12 67.56ZM253.91 65.89L252.60 60.24L247.40 58.57L243.51 62.57L244.83 68.22L250.03 69.89ZM265.59 53.91L264.27 48.25L259.07 46.59L255.17 50.58L256.49 56.24L261.69 57.91ZM256.49 56.24L255.17 50.58L249.97 48.92L246.08 52.92L247.40 58.57L252.60 60.24ZM260.43 73.22L259.12 67.56L253.91 65.89L250.03 69.89L251.34 75.54L256.54 77.21ZM238.31 60.91L236.99 55.25L231.79 53.59L227.90 57.59L229.22 63.24L234.42 64.90ZM229.22 63.24L227.90 57.59L222.70 55.93L218.82 59.93L220.14 65.58L225.34 67.24ZM240.88 51.26L239.56 45.60L234.35 43.94L230.47 47.94L231.79 53.59L236.99 55.25ZM231.79 53.59L230.47 47.94L225.27 46.28L221.38 50.27L222.70 55.93L227.90 57.59ZM244.83 68.22L243.51 62.57L238.31 60.91L234.42 64.90L235.74 70.56L240.94 72.22ZM235.74 70.56L234.42 64.90L229.22 63.24L225.34 67.24L226.66 72.89L231.86 74.55ZM247.40 58.57L246.08 52.92L240.88 51.26L236.99 55.25L238.31 60.91L243.51 62.57ZM259.22 109.46L257.91 103.81L252.71 102.14L248.83 106.13L250.14 111.78L255.34 113.45ZM250.14 111.78L248.83 106.13L243.63 104.47L239.75 108.45L241.07 114.10L246.26 115.77ZM261.80 99.82L260.48 94.17L255.28 92.50L251.40 96.49L252.71 102.14L257.91 103.81ZM252.71 102.14L251.40 96.49L246.20 94.83L242.32 98.82L243.63 104.47L248.83 106.13ZM265.73 116.78L264.42 111.13L259.22 109.46L255.34 113.45L256.65 119.09L261.85 120.76ZM256.65 119.09L255.34 113.45L250.14 111.78L246.26 115.77L247.57 121.41L252.77 123.08ZM237.12 97.15L235.81 91.50L230.61 89.84L226.73 93.83L228.05 99.48L233.24 101.14ZM228.05 99.48L226.73 93.83L221.53 92.17L217.66 96.16L218.97 101.81L224.17 103.47ZM243.63 104.47L242.32 98.82L237.12 97.15L233.24 101.14L234.56 106.79L239.75 108.45ZM264.37 90.18L263.06 84.53L257.86 82.86L253.97 86.85L255.28 92.50L260.48 94.17ZM93.96 -0.53L92.62 -6.18L87.42 -7.81L83.57 -3.80L84.90 1.85L90.10 3.48ZM84.90 1.85L83.57 -3.80L78.37 -5.43L74.52 -1.41L75.86 4.23L81.05 5.86ZM100.49 6.75L99.15 1.11L93.96 -0.53L90.10 3.48L91.44 9.13L96.63 10.76ZM91.44 9.13L90.10 3.48L84.90 1.85L81.05 5.86L82.39 11.51L87.58 13.14ZM103.01 -2.91L101.68 -8.56L96.48 -10.19L92.62 -6.18L93.96 -0.53L99.15 1.11ZM69.32 -3.04L67.98 -8.69L62.79 -10.32L58.94 -6.30L60.28 -0.66L65.47 0.97ZM60.28 -0.66L58.94 -6.30L53.75 -7.93L49.90 -3.91L51.24 1.73L56.43 3.36ZM75.86 4.23L74.52 -1.41L69.32 -3.04L65.47 0.97L66.81 6.61L72.00 8.24ZM66.81 6.61L65.47 0.97L60.28 -0.66L56.43 3.36L57.77 9.00L62.96 10.63ZM104.49 23.69L103.16 18.04L97.97 16.41L94.11 20.42L95.45 26.06L100.64 27.70ZM95.45 26.06L94.11 20.42L88.92 18.78L85.06 22.79L86.40 28.44L91.59 30.07ZM107.02 14.04L105.68 8.39L100.49 6.75L96.63 10.76L97.97 16.41L103.16 18.04ZM97.97 16.41L96.63 10.76L91.44 9.13L87.58 13.14L88.92 18.78L94.11 20.42ZM111.02 30.97L109.69 25.33L104.49 23.69L100.64 27.70L101.97 33.34L107.16 34.98ZM101.97 33.34L100.64 27.70L95.45 26.06L91.59 30.07L92.93 35.71L98.12 37.35ZM113.55 21.32L112.21 15.67L107.02 14.04L103.16 18.04L104.49 23.69L109.69 25.33ZM79.87 21.16L78.53 15.52L73.34 13.89L69.49 17.90L70.83 23.54L76.02 25.17ZM70.83 23.54L69.49 17.90L64.30 16.27L60.45 20.28L61.79 25.92L66.98 27.55ZM82.39 11.51L81.05 5.86L75.86 4.23L72.00 8.24L73.34 13.89L78.53 15.52ZM73.34 13.89L72.00 8.24L66.81 6.61L62.96 10.63L64.30 16.27L69.49 17.90ZM86.40 28.44L85.06 22.79L79.87 21.16L76.02 25.17L77.36 30.81L82.55 32.44ZM77.36 30.81L76.02 25.17L70.83 23.54L66.98 27.55L68.32 33.19L73.51 34.82ZM88.92 18.78L87.58 13.14L82.39 11.51L78.53 15.52L79.87 21.16L85.06 22.79ZM118.60 2.00L117.27 -3.65L112.07 -5.28L108.21 -1.27L109.54 4.38L114.74 6.01ZM109.54 4.38L108.21 -1.27L103.01 -2.91L99.15 1.11L100.49 6.75L105.68 8.39ZM125.13 9.29L123.80 3.64L118.60 2.00L114.74 6.01L116.07 11.66L121.27 13.30ZM116.07 11.66L114.74 6.01L109.54 4.38L105.68 8.39L107.02 14.04L112.21 15.67ZM127.67 -0.37L126.33 -6.02L121.13 -7.66L117.27 -3.65L118.60 2.00L123.80 3.64ZM35.67 -3.15L34.33 -8.79L29.14 -10.41L25.29 -6.39L26.64 -0.76L31.83 0.87ZM51.24 1.73L49.90 -3.91L44.71 -5.54L40.86 -1.52L42.20 4.12L47.39 5.74ZM42.20 4.12L40.86 -1.52L35.67 -3.15L31.83 0.87L33.17 6.51L38.36 8.13ZM26.64 -0.76L25.29 -6.39L20.10 -8.02L16.26 -4.00L17.61 1.64L22.80 3.26ZM57.77 9.00L56.43 3.36L51.24 1.73L47.39 5.74L48.74 11.38L53.92 13.01ZM48.74 11.38L47.39 5.74L42.20 4.12L38.36 8.13L39.70 13.77L44.89 15.39ZM64.30 16.27L62.96 10.63L57.77 9.00L53.92 13.01L55.27 18.65L60.45 20.28ZM139.65 50.47L138.32 44.82L133.13 43.18L129.26 47.18L130.59 52.82L135.79 54.47ZM130.59 52.82L129.26 47.18L124.07 45.54L120.21 49.54L121.54 55.18L126.73 56.82ZM142.18 40.82L140.85 35.17L135.66 33.53L131.79 37.53L133.13 43.18L138.32 44.82ZM133.13 43.18L131.79 37.53L126.60 35.89L122.74 39.89L124.07 45.54L129.26 47.18ZM146.17 57.75L144.84 52.11L139.65 50.47L135.79 54.47L137.12 60.11L142.31 61.75ZM137.12 60.11L135.79 54.47L130.59 52.82L126.73 56.82L128.06 62.47L133.25 64.11ZM148.71 48.11L147.38 42.46L142.18 40.82L138.32 44.82L139.65 50.47L144.84 52.11ZM115.02 47.90L113.69 42.26L108.50 40.62L104.64 44.62L105.98 50.27L111.16 51.90ZM117.55 38.25L116.21 32.61L111.02 30.97L107.16 34.98L108.50 40.62L113.69 42.26ZM108.50 40.62L107.16 34.98L101.97 33.34L98.12 37.35L99.45 42.99L104.64 44.62ZM121.54 55.18L120.21 49.54L115.02 47.90L111.16 51.90L112.50 57.55L117.69 59.18ZM124.07 45.54L122.74 39.89L117.55 38.25L113.69 42.26L115.02 47.90L120.21 49.54ZM153.78 28.81L152.46 23.15L147.26 21.51L143.39 25.52L144.72 31.17L149.92 32.81ZM144.72 31.17L143.39 25.52L138.19 23.87L134.33 27.88L135.66 33.53L140.85 35.17ZM156.33 19.15L155.00 13.50L149.80 11.85L145.93 15.86L147.26 21.51L152.46 23.15ZM147.26 21.51L145.93 15.86L140.73 14.22L136.86 18.22L138.19 23.87L143.39 25.52ZM160.31 36.10L158.98 30.45L153.78 28.81L149.92 32.81L151.24 38.46L156.44 40.10ZM151.24 38.46L149.92 32.81L144.72 31.17L140.85 35.17L142.18 40.82L147.38 42.46ZM162.85 26.45L161.53 20.79L156.33 19.15L152.46 23.15L153.78 28.81L158.98 30.45ZM129.13 26.24L127.80 20.59L122.60 18.95L118.74 22.96L120.07 28.60L125.27 30.24ZM120.07 28.60L118.74 22.96L113.55 21.32L109.69 25.33L111.02 30.97L116.21 32.61ZM131.66 16.58L130.33 10.93L125.13 9.29L121.27 13.30L122.60 18.95L127.80 20.59ZM122.60 18.95L121.27 13.30L116.07 11.66L112.21 15.67L113.55 21.32L118.74 22.96ZM135.66 33.53L134.33 27.88L129.13 26.24L125.27 30.24L126.60 35.89L131.79 37.53ZM126.60 35.89L125.27 30.24L120.07 28.60L116.21 32.61L117.55 38.25L122.74 39.89ZM138.19 23.87L136.86 18.22L131.66 16.58L127.80 20.59L129.13 26.24L134.33 27.88ZM152.69 65.04L151.36 59.40L146.17 57.75L142.31 61.75L143.64 67.40L148.83 69.04ZM159.21 72.34L157.88 66.69L152.69 65.04L148.83 69.04L150.15 74.69L155.34 76.33ZM164.29 53.05L162.96 47.40L157.77 45.75L153.90 49.75L155.23 55.40L160.42 57.05ZM155.23 55.40L153.90 49.75L148.71 48.11L144.84 52.11L146.17 57.75L151.36 59.40ZM166.83 43.40L165.51 37.75L160.31 36.10L156.44 40.10L157.77 45.75L162.96 47.40ZM157.77 45.75L156.44 40.10L151.24 38.46L147.38 42.46L148.71 48.11L153.90 49.75ZM170.81 60.34L169.49 54.70L164.29 53.05L160.42 57.05L161.75 62.69L166.94 64.34ZM161.75 62.69L160.42 57.05L155.23 55.40L151.36 59.40L152.69 65.04L157.88 66.69ZM173.36 50.70L172.03 45.05L166.83 43.40L162.96 47.40L164.29 53.05L169.49 54.70ZM90.41 45.36L89.07 39.72L83.88 38.08L80.03 42.09L81.37 47.73L86.56 49.36ZM92.93 35.71L91.59 30.07L86.40 28.44L82.55 32.44L83.88 38.08L89.07 39.72ZM99.45 42.99L98.12 37.35L92.93 35.71L89.07 39.72L90.41 45.36L95.60 46.99ZM167.94 7.13L166.62 1.47L161.41 -0.17L157.54 3.83L158.87 9.49L164.07 11.13ZM158.87 9.49L157.54 3.83L152.34 2.19L148.47 6.20L149.80 11.85L155.00 13.50ZM170.49 -2.54L169.16 -8.19L163.96 -9.84L160.08 -5.83L161.41 -0.17L166.62 1.47ZM161.41 -0.17L160.08 -5.83L154.88 -7.48L151.01 -3.46L152.34 2.19L157.54 3.83ZM174.47 14.43L173.15 8.77L167.94 7.13L164.07 11.13L165.40 16.79L170.60 18.44ZM165.40 16.79L164.07 11.13L158.87 9.49L155.00 13.50L156.33 19.15L161.53 20.79ZM177.02 4.77L175.70 -0.89L170.49 -2.54L166.62 1.47L167.94 7.13L173.15 8.77ZM143.27 4.56L141.94 -1.10L136.73 -2.74L132.87 1.27L134.20 6.92L139.40 8.57ZM134.20 6.92L132.87 1.27L127.67 -0.37L123.80 3.64L125.13 9.29L130.33 10.93ZM136.73 -2.74L135.40 -8.39L130.20 -10.03L126.33 -6.02L127.67 -0.37L132.87 1.27ZM149.80 11.85L148.47 6.20L143.27 4.56L139.40 8.57L140.73 14.22L145.93 15.86ZM140.73 14.22L139.40 8.57L134.20 6.92L130.33 10.93L131.66 16.58L136.86 18.22ZM152.34 2.19L151.01 -3.46L145.81 -5.11L141.94 -1.10L143.27 4.56L148.47 6.20ZM199.43 79.90L198.11 74.25L192.92 72.60L189.04 76.59L190.36 82.24L195.56 83.89ZM190.36 82.24L189.04 76.59L183.85 74.94L179.98 78.93L181.30 84.58L186.49 86.23ZM201.99 70.26L200.66 64.61L195.47 62.95L191.59 66.95L192.92 72.60L198.11 74.25ZM192.92 72.60L191.59 66.95L186.40 65.30L182.53 69.29L183.85 74.94L189.04 76.59ZM205.95 87.20L204.63 81.55L199.43 79.90L195.56 83.89L196.88 89.54L202.07 91.19ZM196.88 89.54L195.56 83.89L190.36 82.24L186.49 86.23L187.82 91.88L193.01 93.53ZM208.50 77.56L207.18 71.91L201.99 70.26L198.11 74.25L199.43 79.90L204.63 81.55ZM174.79 77.28L173.46 71.64L168.27 69.99L164.40 73.98L165.73 79.63L170.92 81.28ZM177.33 67.64L176.01 61.99L170.81 60.34L166.94 64.34L168.27 69.99L173.46 71.64ZM168.27 69.99L166.94 64.34L161.75 62.69L157.88 66.69L159.21 72.34L164.40 73.98ZM181.30 84.58L179.98 78.93L174.79 77.28L170.92 81.28L172.24 86.92L177.43 88.57ZM183.85 74.94L182.53 69.29L177.33 67.64L173.46 71.64L174.79 77.28L179.98 78.93ZM212.46 94.51L211.14 88.86L205.95 87.20L202.07 91.19L203.39 96.84L208.59 98.50ZM218.97 101.81L217.66 96.16L212.46 94.51L208.59 98.50L209.90 104.14L215.10 105.80Z"/></svg>
