<svg xmlns="http://www.w3.org/2000/svg" width="256" height="256" viewBox="0 0 256 256"><path data-band="1" fill="#fde68a" fill-opacity="0.35" d="M71.83 53.67L70.50 48.07L65.35 46.43L61.54 50.39L62.87 55.99L68.01 57.62ZM83.29 41.79L81.96 36.19L76.81 34.55L72.99 38.51L74.32 44.11L79.47 45.75ZM74.32 44.11L72.99 38.51L67.84 36.87L64.02 40.83L65.35 46.43L70.50 48.07ZM85.78 32.23L84.46 26.63L79.31 24.99L75.48 28.95L76.81 34.55L81.96 36.19ZM76.81 34.55L75.48 28.95L70.33 27.31L66.51 31.27L67.84 36.87L72.99 38.51ZM89.76 49.04L88.44 43.44L83.29 41.79L79.47 45.75L80.79 51.35L85.94 52.99ZM80.79 51.35L79.47 45.75L74.32 44.11L70.50 48.07L71.83 53.67L76.97 55.31ZM92.26 39.48L90.93 33.88L85.78 32.23L81.96 36.19L83.29 41.79L88.44 43.44ZM58.88 39.20L57.55 33.60L52.40 31.96L48.59 35.92L49.92 41.52L55.06 43.16ZM49.92 41.52L48.59 35.92L43.44 34.29L39.63 38.25L40.96 43.85L46.10 45.48ZM61.37 29.64L60.04 24.04L54.89 22.40L51.07 26.36L52.40 31.96L57.55 33.60ZM52.40 31.96L51.07 26.36L45.92 24.73L42.11 28.69L43.44 34.29L48.59 35.92ZM65.35 46.43L64.02 40.83L58.88 39.20L55.06 43.16L56.39 48.75L61.54 50.39ZM67.84 36.87L66.51 31.27L61.37 29.64L57.55 33.60L58.88 39.20L64.02 40.83ZM96.24 56.28L94.91 50.68L89.76 49.04L85.94 52.99L87.27 58.59L92.41 60.23ZM87.27 58.59L85.94 52.99L80.79 51.35L76.97 55.31L78.30 60.90L83.45 62.55ZM102.71 63.52L101.38 57.92L96.24 56.28L92.41 60.23L93.74 65.83L98.88 67.48ZM86.80 -3.72L85.47 -9.32L80.31 -10.96L76.49 -7.00L77.82 -1.39L82.97 0.25ZM77.82 -1.39L76.49 -7.00L71.33 -8.63L67.51 -4.67L68.84 0.94L73.99 2.58ZM93.28 3.53L91.95 -2.08L86.80 -3.72L82.97 0.25L84.30 5.86L89.45 7.50ZM84.30 5.86L82.97 0.25L77.82 -1.39L73.99 2.58L75.32 8.18L80.47 9.82ZM68.84 0.94L67.51 -4.67L62.35 -6.30L58.53 -2.34L59.86 3.27L65.01 4.91ZM59.86 3.27L58.53 -2.34L53.38 -3.97L49.56 0.00L50.89 5.60L56.04 7.23ZM97.26 20.35L95.93 14.74L90.78 13.10L86.95 17.07L88.28 22.67L93.43 24.31ZM88.28 22.67L86.95 17.07L81.80 15.43L77.98 19.39L79.31 24.99L84.46 26.63ZM99.76 10.78L98.44 5.17L93.28 3.53L89.45 7.50L90.78 13.10L95.93 14.74ZM90.78 13.10L89.45 7.50L84.30 5.86L80.47 9.82L81.80 15.43L86.95 17.07ZM103.74 27.60L102.41 21.99L97.26 20.35L93.43 24.31L94.76 29.92L99.91 31.56ZM94.76 29.92L93.43 24.31L88.28 22.67L84.46 26.63L85.78 32.23L90.93 33.88ZM106.24 18.03L104.92 12.43L99.76 10.78L95.93 14.74L97.26 20.35L102.41 21.99ZM72.83 17.75L71.50 12.15L66.35 10.51L62.52 14.47L63.85 20.07L69.00 21.71ZM63.85 20.07L62.52 14.47L57.37 12.84L53.56 16.80L54.89 22.40L60.04 24.04ZM75.32 8.18L73.99 2.58L68.84 0.94L65.01 4.91L66.35 10.51L71.50 12.15ZM66.35 10.51L65.01 4.91L59.86 3.27L56.04 7.23L57.37 12.84L62.52 14.47ZM79.31 24.99L77.98 19.39L72.83 17.75L69.00 21.71L70.33 27.31L75.48 28.95ZM70.33 27.31L69.00 21.71L63.85 20.07L60.04 24.04L61.37 29.64L66.51 31.27ZM81.80 15.43L80.47 9.82L75.32 8.18L71.50 12.15L72.83 17.75L77.98 19.39ZM111.26 -1.11L109.93 -6.72L104.77 -8.37L100.94 -4.40L102.27 1.21L107.42 2.85ZM102.27 1.21L100.94 -4.40L95.78 -6.04L91.95 -2.08L93.28 3.53L98.44 5.17ZM117.74 6.14L116.42 0.53L111.26 -1.11L107.42 2.85L108.75 8.46L113.91 10.11ZM108.75 8.46L107.42 2.85L102.27 1.21L98.44 5.17L99.76 10.78L104.92 12.43ZM120.25 -3.43L118.93 -9.04L113.77 -10.69L109.93 -6.72L111.26 -1.11L116.42 0.53ZM24.00 12.60L22.67 7.00L17.52 5.37L13.71 9.34L15.05 14.94L20.19 16.57ZM15.05 14.94L13.71 9.34L8.56 7.71L4.76 11.68L6.09 17.28L11.24 18.90ZM26.48 3.04L25.14 -2.56L19.99 -4.19L16.18 -0.22L17.52 5.37L22.67 7.00ZM17.52 5.37L16.18 -0.22L11.04 -1.85L7.23 2.12L8.56 7.71L13.71 9.34ZM30.48 19.83L29.15 14.23L24.00 12.60L20.19 16.57L21.53 22.16L26.67 23.79ZM21.53 22.16L20.19 16.57L15.05 14.94L11.24 18.90L12.57 24.50L17.72 26.13ZM32.96 10.27L31.63 4.67L26.48 3.04L22.67 7.00L24.00 12.60L29.15 14.23ZM2.08 0.49L0.74 -5.11L-4.40 -6.73L-8.21 -2.76L-6.87 2.83L-1.73 4.46ZM6.09 17.28L4.76 11.68L-0.39 10.06L-4.19 14.02L-2.85 19.62L2.29 21.24ZM8.56 7.71L7.23 2.12L2.08 0.49L-1.73 4.46L-0.39 10.06L4.76 11.68ZM44.41 -1.64L43.07 -7.24L37.92 -8.87L34.11 -4.90L35.44 0.70L40.59 2.33ZM35.44 0.70L34.11 -4.90L28.96 -6.53L25.14 -2.56L26.48 3.04L31.63 4.67ZM11.04 -1.85L9.70 -7.45L4.55 -9.08L0.74 -5.11L2.08 0.49L7.23 2.12ZM34.48 36.62L33.15 31.02L28.01 29.39L24.20 33.35L25.53 38.95L30.67 40.58ZM36.96 27.06L35.63 21.46L30.48 19.83L26.67 23.79L28.01 29.39L33.15 31.02ZM28.01 29.39L26.67 23.79L21.53 22.16L17.72 26.13L19.05 31.72L24.20 33.35ZM40.96 43.85L39.63 38.25L34.48 36.62L30.67 40.58L32.01 46.17L37.15 47.81ZM43.44 34.29L42.11 28.69L36.96 27.06L33.15 31.02L34.48 36.62L39.63 38.25ZM12.57 24.50L11.24 18.90L6.09 17.28L2.29 21.24L3.63 26.84L8.77 28.46ZM3.63 26.84L2.29 21.24L-2.85 19.62L-6.66 23.58L-5.32 29.17L-0.18 30.80ZM48.41 15.17L47.07 9.57L41.92 7.93L38.11 11.90L39.44 17.50L44.59 19.13ZM39.44 17.50L38.11 11.90L32.96 10.27L29.15 14.23L30.48 19.83L35.63 21.46ZM50.89 5.60L49.56 0.00L44.41 -1.64L40.59 2.33L41.92 7.93L47.07 9.57ZM41.92 7.93L40.59 2.33L35.44 0.70L31.63 4.67L32.96 10.27L38.11 11.90ZM54.89 22.40L53.56 16.80L48.41 15.17L44.59 19.13L45.92 24.73L51.07 26.36ZM45.92 24.73L44.59 19.13L39.44 17.50L35.63 21.46L36.96 27.06L42.11 28.69ZM57.37 12.84L56.04 7.23L50.89 5.60L47.07 9.57L48.41 15.17L53.56 16.80ZM132.15 47.04L130.83 41.44L125.68 39.79L121.85 43.75L123.17 49.35L128.32 51.00ZM123.17 49.35L121.85 43.75L116.69 42.10L112.86 46.06L114.19 51.66L119.34 53.31ZM134.67 37.48L133.34 31.87L128.19 30.23L124.36 34.18L125.68 39.79L130.83 41.44ZM125.68 39.79L124.36 34.18L119.20 32.54L115.37 36.50L116.69 42.10L121.85 43.75ZM138.63 54.30L137.31 48.70L132.15 47.04L128.32 51.00L129.64 56.60L134.79 58.25ZM129.64 56.60L128.32 51.00L123.17 49.35L119.34 53.31L120.66 58.91L125.81 60.56ZM141.14 44.74L139.82 39.13L134.67 37.48L130.83 41.44L132.15 47.04L137.31 48.70ZM107.71 44.41L106.39 38.81L101.24 37.16L97.41 41.12L98.74 46.72L103.89 48.37ZM98.74 46.72L97.41 41.12L92.26 39.48L88.44 43.44L89.76 49.04L94.91 50.68ZM110.22 34.85L108.89 29.24L103.74 27.60L99.91 31.56L101.24 37.16L106.39 38.81ZM101.24 37.16L99.91 31.56L94.76 29.92L90.93 33.88L92.26 39.48L97.41 41.12ZM114.19 51.66L112.86 46.06L107.71 44.41L103.89 48.37L105.21 53.97L110.36 55.61ZM105.21 53.97L103.89 48.37L98.74 46.72L94.91 50.68L96.24 56.28L101.38 57.92ZM116.69 42.10L115.37 36.50L110.22 34.85L106.39 38.81L107.71 44.41L112.86 46.06ZM146.17 25.61L144.86 20.00L139.70 18.35L135.86 22.31L137.18 27.92L142.34 29.57ZM137.18 27.92L135.86 22.31L130.70 20.66L126.87 24.62L128.19 30.23L133.34 31.87ZM148.69 16.04L147.37 10.42L142.21 8.77L138.38 12.74L139.70 18.35L144.86 20.00ZM139.70 18.35L138.38 12.74L133.22 11.09L129.38 15.05L130.70 20.66L135.86 22.31ZM152.65 32.87L151.33 27.26L146.17 25.61L142.34 29.57L143.66 35.18L148.81 36.83ZM143.66 35.18L142.34 29.57L137.18 27.92L133.34 31.87L134.67 37.48L139.82 39.13ZM155.17 23.30L153.86 17.69L148.69 16.04L144.86 20.00L146.17 25.61L151.33 27.26ZM121.71 22.97L120.39 17.36L115.23 15.72L111.40 19.68L112.72 25.28L117.88 26.93ZM112.72 25.28L111.40 19.68L106.24 18.03L102.41 21.99L103.74 27.60L108.89 29.24ZM124.22 13.40L122.90 7.79L117.74 6.14L113.91 10.11L115.23 15.72L120.39 17.36ZM115.23 15.72L113.91 10.11L108.75 8.46L104.92 12.43L106.24 18.03L111.40 19.68ZM128.19 30.23L126.87 24.62L121.71 22.97L117.88 26.93L119.20 32.54L124.36 34.18ZM119.20 32.54L117.88 26.93L112.72 25.28L108.89 29.24L110.22 34.85L115.37 36.50ZM130.70 20.66L129.38 15.05L124.22 13.40L120.39 17.36L121.71 22.97L126.87 24.62ZM142.58 71.11L141.26 65.51L136.11 63.86L132.28 67.81L133.60 73.41L138.75 75.06ZM133.60 73.41L132.28 67.81L127.13 66.16L123.30 70.11L124.62 75.71L129.77 77.36ZM145.10 61.56L143.78 55.95L138.63 54.30L134.79 58.25L136.11 63.86L141.26 65.51ZM136.11 63.86L134.79 58.25L129.64 56.60L125.81 60.56L127.13 66.16L132.28 67.81ZM151.57 68.81L150.25 63.21L145.10 61.56L141.26 65.51L142.58 71.11L147.73 72.77ZM118.15 68.46L116.83 62.86L111.68 61.22L107.86 65.17L109.18 70.77L114.33 72.42ZM109.18 70.77L107.86 65.17L102.71 63.52L98.88 67.48L100.21 73.07L105.35 74.72ZM120.66 58.91L119.34 53.31L114.19 51.66L110.36 55.61L111.68 61.22L116.83 62.86ZM111.68 61.22L110.36 55.61L105.21 53.97L101.38 57.92L102.71 63.52L107.86 65.17ZM127.13 66.16L125.81 60.56L120.66 58.91L116.83 62.86L118.15 68.46L123.30 70.11ZM156.61 49.70L155.29 44.09L150.13 42.44L146.30 46.39L147.61 52.00L152.77 53.65ZM147.61 52.00L146.30 46.39L141.14 44.74L137.31 48.70L138.63 54.30L143.78 55.95ZM159.13 40.13L157.81 34.52L152.65 32.87L148.81 36.83L150.13 42.44L155.29 44.09ZM150.13 42.44L148.81 36.83L143.66 35.18L139.82 39.13L141.14 44.74L146.30 46.39ZM163.08 56.96L161.76 51.35L156.61 49.70L152.77 53.65L154.09 59.26L159.24 60.91ZM154.09 59.26L152.77 53.65L147.61 52.00L143.78 55.95L145.10 61.56L150.25 63.21ZM165.60 47.40L164.29 41.79L159.13 40.13L155.29 44.09L156.61 49.70L161.76 51.35ZM220.82 -2.39L219.51 -8.01L214.33 -9.67L210.48 -5.71L211.79 -0.09L216.96 1.57ZM160.22 4.15L158.90 -1.46L153.74 -3.11L149.90 0.85L151.22 6.46L156.38 8.12ZM151.22 6.46L149.90 0.85L144.73 -0.80L140.89 3.16L142.21 8.77L147.37 10.42ZM153.74 -3.11L152.42 -8.73L147.25 -10.38L143.41 -6.42L144.73 -0.80L149.90 0.85ZM166.70 11.42L165.39 5.81L160.22 4.15L156.38 8.12L157.70 13.73L162.86 15.38ZM157.70 13.73L156.38 8.12L151.22 6.46L147.37 10.42L148.69 16.04L153.86 17.69ZM169.23 1.85L167.91 -3.77L162.75 -5.43L158.90 -1.46L160.22 4.15L165.39 5.81ZM135.73 1.51L134.41 -4.10L129.25 -5.75L125.41 -1.78L126.73 3.83L131.89 5.47ZM126.73 3.83L125.41 -1.78L120.25 -3.43L116.42 0.53L117.74 6.14L122.90 7.79ZM142.21 8.77L140.89 3.16L135.73 1.51L131.89 5.47L133.22 11.09L138.38 12.74ZM133.22 11.09L131.89 5.47L126.73 3.83L122.90 7.79L124.22 13.40L129.38 15.05ZM144.73 -0.80L143.41 -6.42L138.25 -8.07L134.41 -4.10L135.73 1.51L140.89 3.16ZM240.45 81.89L239.14 76.28L233.98 74.61L230.13 78.56L231.43 84.17L236.59 85.84ZM231.43 84.17L230.13 78.56L224.97 76.89L221.12 80.84L222.43 86.45L227.58 88.11ZM243.00 72.33L241.69 66.72L236.53 65.05L232.67 69.00L233.98 74.61L239.14 76.28ZM233.98 74.61L232.67 69.00L227.51 67.33L223.66 71.28L224.97 76.89L230.13 78.56ZM246.91 89.18L245.61 83.56L240.45 81.89L236.59 85.84L237.90 91.45L243.06 93.12ZM237.90 91.45L236.59 85.84L231.43 84.17L227.58 88.11L228.89 93.72L234.05 95.39ZM249.46 79.62L248.16 74.00L243.00 72.33L239.14 76.28L240.45 81.89L245.61 83.56ZM215.96 79.17L214.65 73.56L209.49 71.90L205.64 75.84L206.95 81.45L212.11 83.12ZM206.95 81.45L205.64 75.84L200.49 74.18L196.64 78.13L197.95 83.74L203.11 85.40ZM218.50 69.61L217.19 64.00L212.03 62.33L208.18 66.28L209.49 71.90L214.65 73.56ZM209.49 71.90L208.18 66.28L203.02 64.62L199.18 68.57L200.49 74.18L205.64 75.84ZM222.43 86.45L221.12 80.84L215.96 79.17L212.11 83.12L213.42 88.73L218.58 90.39ZM213.42 88.73L212.11 83.12L206.95 81.45L203.11 85.40L204.42 91.01L209.57 92.67ZM224.97 76.89L223.66 71.28L218.50 69.61L214.65 73.56L215.96 79.17L221.12 80.84ZM254.57 60.49L253.27 54.87L248.10 53.20L244.24 57.15L245.55 62.77L250.71 64.44ZM245.55 62.77L244.24 57.15L239.08 55.49L235.22 59.43L236.53 65.05L241.69 66.72ZM257.13 50.93L255.82 45.31L250.66 43.64L246.80 47.59L248.10 53.20L253.27 54.87ZM248.10 53.20L246.80 47.59L241.63 45.92L237.77 49.87L239.08 55.49L244.24 57.15ZM261.04 67.78L259.74 62.16L254.57 60.49L250.71 64.44L252.02 70.06L257.18 71.73ZM252.02 70.06L250.71 64.44L245.55 62.77L241.69 66.72L243.00 72.33L248.16 74.00ZM263.60 58.22L262.30 52.60L257.13 50.93L253.27 54.87L254.57 60.49L259.74 62.16ZM230.06 57.77L228.75 52.15L223.59 50.48L219.73 54.44L221.04 60.05L226.20 61.72ZM221.04 60.05L219.73 54.44L214.57 52.77L210.72 56.72L212.03 62.33L217.19 64.00ZM232.61 48.20L231.30 42.58L226.13 40.92L222.28 44.87L223.59 50.48L228.75 52.15ZM223.59 50.48L222.28 44.87L217.11 43.20L213.26 47.16L214.57 52.77L219.73 54.44ZM236.53 65.05L235.22 59.43L230.06 57.77L226.20 61.72L227.51 67.33L232.67 69.00ZM227.51 67.33L226.20 61.72L221.04 60.05L217.19 64.00L218.50 69.61L223.66 71.28ZM239.08 55.49L237.77 49.87L232.61 48.20L228.75 52.15L230.06 57.77L235.22 59.43ZM250.83 106.01L249.52 100.40L244.36 98.73L240.51 102.67L241.82 108.28L246.97 109.95ZM241.82 108.28L240.51 102.67L235.35 101.00L231.50 104.94L232.81 110.55L237.96 112.22ZM253.38 96.46L252.07 90.85L246.91 89.18L243.06 93.12L244.36 98.73L249.52 100.40ZM244.36 98.73L243.06 93.12L237.90 91.45L234.05 95.39L235.35 101.00L240.51 102.67ZM257.29 113.30L255.98 107.68L250.83 106.01L246.97 109.95L248.28 115.56L253.43 117.23ZM248.28 115.56L246.97 109.95L241.82 108.28L237.96 112.22L239.27 117.83L244.42 119.50ZM259.84 103.74L258.54 98.13L253.38 96.46L249.52 100.40L250.83 106.01L255.98 107.68ZM226.35 103.27L225.04 97.67L219.88 96.00L216.04 99.94L217.35 105.55L222.50 107.22ZM228.89 93.72L227.58 88.11L222.43 86.45L218.58 90.39L219.88 96.00L225.04 97.67ZM219.88 96.00L218.58 90.39L213.42 88.73L209.57 92.67L210.88 98.28L216.04 99.94ZM232.81 110.55L231.50 104.94L226.35 103.27L222.50 107.22L223.81 112.82L228.96 114.49ZM223.81 112.82L222.50 107.22L217.35 105.55L213.50 109.49L214.81 115.10L219.96 116.76ZM235.35 101.00L234.05 95.39L228.89 93.72L225.04 97.67L226.35 103.27L231.50 104.94ZM264.95 84.63L263.65 79.02L258.49 77.35L254.63 81.29L255.93 86.90L261.09 88.58ZM255.93 86.90L254.63 81.29L249.46 79.62L245.61 83.56L246.91 89.18L252.07 90.85ZM258.49 77.35L257.18 71.73L252.02 70.06L248.16 74.00L249.46 79.62L254.63 81.29ZM262.39 94.19L261.09 88.58L255.93 86.90L252.07 90.85L253.38 96.46L258.54 98.13ZM179.96 88.31L178.65 82.70L173.49 81.04L169.66 84.99L170.97 90.59L176.12 92.25ZM155.52 85.62L154.20 80.02L149.05 78.37L145.22 82.32L146.54 87.92L151.68 89.57ZM191.49 76.47L190.17 70.86L185.02 69.20L181.17 73.15L182.49 78.75L187.64 80.41ZM182.49 78.75L181.17 73.15L176.02 71.49L172.18 75.44L173.49 81.04L178.65 82.70ZM194.02 66.91L192.71 61.30L187.55 59.64L183.70 63.59L185.02 69.20L190.17 70.86ZM185.02 69.20L183.70 63.59L178.55 61.93L174.71 65.88L176.02 71.49L181.17 73.15ZM197.95 83.74L196.64 78.13L191.49 76.47L187.64 80.41L188.95 86.02L194.11 87.68ZM188.95 86.02L187.64 80.41L182.49 78.75L178.65 82.70L179.96 88.31L185.11 89.97ZM200.49 74.18L199.18 68.57L194.02 66.91L190.17 70.86L191.49 76.47L196.64 78.13ZM167.03 73.78L165.71 68.17L160.56 66.52L156.72 70.47L158.04 76.07L163.19 77.73ZM158.04 76.07L156.72 70.47L151.57 68.81L147.73 72.77L149.05 78.37L154.20 80.02ZM169.55 64.22L168.23 58.62L163.08 56.96L159.24 60.91L160.56 66.52L165.71 68.17ZM160.56 66.52L159.24 60.91L154.09 59.26L150.25 63.21L151.57 68.81L156.72 70.47ZM173.49 81.04L172.18 75.44L167.03 73.78L163.19 77.73L164.50 83.33L169.66 84.99ZM164.50 83.33L163.19 77.73L158.04 76.07L154.20 80.02L155.52 85.62L160.67 87.28ZM176.02 71.49L174.71 65.88L169.55 64.22L165.71 68.17L167.03 73.78L172.18 75.44ZM201.88 100.56L200.57 94.95L195.42 93.29L191.58 97.23L192.89 102.84L198.04 104.50ZM192.89 102.84L191.58 97.23L186.43 95.57L182.59 99.51L183.90 105.12L189.05 106.78ZM204.42 91.01L203.11 85.40L197.95 83.74L194.11 87.68L195.42 93.29L200.57 94.95ZM195.42 93.29L194.11 87.68L188.95 86.02L185.11 89.97L186.43 95.57L191.58 97.23ZM210.88 98.28L209.57 92.67L204.42 91.01L200.57 94.95L201.88 100.56L207.04 102.22ZM258.33 14.91L257.02 9.28L251.85 7.61L247.98 11.57L249.29 17.19L254.46 18.86ZM249.29 17.19L247.98 11.57L242.81 9.90L238.95 13.86L240.26 19.48L245.43 21.15ZM260.89 5.32L259.58 -0.31L254.41 -1.98L250.54 1.98L251.85 7.61L257.02 9.28ZM251.85 7.61L250.54 1.98L245.37 0.32L241.50 4.27L242.81 9.90L247.98 11.57ZM264.81 22.20L263.50 16.58L258.33 14.91L254.46 18.86L255.77 24.49L260.94 26.16ZM255.77 24.49L254.46 18.86L249.29 17.19L245.43 21.15L246.74 26.77L251.91 28.44ZM233.78 12.19L232.47 6.57L227.30 4.90L223.44 8.86L224.75 14.48L229.92 16.15ZM224.75 14.48L223.44 8.86L218.27 7.20L214.41 11.15L215.73 16.78L220.89 18.44ZM236.33 2.61L235.02 -3.02L229.85 -4.68L225.99 -0.72L227.30 4.90L232.47 6.57ZM227.30 4.90L225.99 -0.72L220.82 -2.39L216.96 1.57L218.27 7.20L223.44 8.86ZM240.26 19.48L238.95 13.86L233.78 12.19L229.92 16.15L231.23 21.77L236.40 23.43ZM231.23 21.77L229.92 16.15L224.75 14.48L220.89 18.44L222.20 24.06L227.37 25.72ZM242.81 9.90L241.50 4.27L236.33 2.61L232.47 6.57L233.78 12.19L238.95 13.86ZM254.41 -1.98L253.10 -7.60L247.93 -9.27L244.06 -5.31L245.37 0.32L250.54 1.98ZM245.37 0.32L244.06 -5.31L238.89 -6.98L235.02 -3.02L236.33 2.61L241.50 4.27ZM259.69 41.35L258.38 35.73L253.21 34.06L249.35 38.01L250.66 43.64L255.82 45.31ZM262.25 31.78L260.94 26.16L255.77 24.49L251.91 28.44L253.21 34.06L258.38 35.73ZM266.16 48.65L264.85 43.03L259.69 41.35L255.82 45.31L257.13 50.93L262.30 52.60ZM244.18 36.35L242.87 30.72L237.71 29.06L233.85 33.01L235.16 38.63L240.32 40.30ZM235.16 38.63L233.85 33.01L228.68 31.34L224.82 35.30L226.13 40.92L231.30 42.58ZM246.74 26.77L245.43 21.15L240.26 19.48L236.40 23.43L237.71 29.06L242.87 30.72ZM237.71 29.06L236.40 23.43L231.23 21.77L227.37 25.72L228.68 31.34L233.85 33.01ZM250.66 43.64L249.35 38.01L244.18 36.35L240.32 40.30L241.63 45.92L246.80 47.59ZM241.63 45.92L240.32 40.30L235.16 38.63L231.30 42.58L232.61 48.20L237.77 49.87ZM253.21 34.06L251.91 28.44L246.74 26.77L242.87 30.72L244.18 36.35L249.35 38.01ZM195.15 30.94L193.84 25.32L188.67 23.66L184.82 27.62L186.14 33.24L191.30 34.90ZM186.14 33.24L184.82 27.62L179.66 25.96L175.82 29.92L177.13 35.53L182.29 37.19ZM197.69 21.37L196.37 15.75L191.21 14.09L187.36 18.05L188.67 23.66L193.84 25.32ZM188.67 23.66L187.36 18.05L182.19 16.39L178.35 20.35L179.66 25.96L184.82 27.62ZM201.62 38.22L200.31 32.60L195.15 30.94L191.30 34.90L192.61 40.51L197.77 42.17ZM192.61 40.51L191.30 34.90L186.14 33.24L182.29 37.19L183.61 42.80L188.77 44.46ZM204.16 28.64L202.85 23.03L197.69 21.37L193.84 25.32L195.15 30.94L200.31 32.60ZM170.65 28.26L169.34 22.65L164.18 21.00L160.33 24.96L161.65 30.57L166.81 32.22ZM161.65 30.57L160.33 24.96L155.17 23.30L151.33 27.26L152.65 32.87L157.81 34.52ZM173.18 18.69L171.87 13.08L166.70 11.42L162.86 15.38L164.18 21.00L169.34 22.65ZM164.18 21.00L162.86 15.38L157.70 13.73L153.86 17.69L155.17 23.30L160.33 24.96ZM177.13 35.53L175.82 29.92L170.65 28.26L166.81 32.22L168.13 37.83L173.29 39.49ZM168.13 37.83L166.81 32.22L161.65 30.57L157.81 34.52L159.13 40.13L164.29 41.79ZM179.66 25.96L178.35 20.35L173.18 18.69L169.34 22.65L170.65 28.26L175.82 29.92ZM209.25 9.49L207.93 3.87L202.76 2.21L198.91 6.17L200.22 11.79L205.39 13.45ZM200.22 11.79L198.91 6.17L193.74 4.51L189.89 8.47L191.21 14.09L196.37 15.75ZM211.79 -0.09L210.48 -5.71L205.31 -7.37L201.45 -3.41L202.76 2.21L207.93 3.87ZM202.76 2.21L201.45 -3.41L196.28 -5.07L192.43 -1.11L193.74 4.51L198.91 6.17ZM215.73 16.78L214.41 11.15L209.25 9.49L205.39 13.45L206.70 19.07L211.87 20.73ZM206.70 19.07L205.39 13.45L200.22 11.79L196.37 15.75L197.69 21.37L202.85 23.03ZM218.27 7.20L216.96 1.57L211.79 -0.09L207.93 3.87L209.25 9.49L214.41 11.15ZM184.73 6.81L183.41 1.20L178.24 -0.46L174.40 3.50L175.71 9.12L180.88 10.77ZM175.71 9.12L174.40 3.50L169.23 1.85L165.39 5.81L166.70 11.42L171.87 13.08ZM187.26 -2.77L185.95 -8.39L180.78 -10.04L176.93 -6.08L178.24 -0.46L183.41 1.20ZM178.24 -0.46L176.93 -6.08L171.76 -7.74L167.91 -3.77L169.23 1.85L174.40 3.50ZM191.21 14.09L189.89 8.47L184.73 6.81L180.88 10.77L182.19 16.39L187.36 18.05ZM182.19 16.39L180.88 10.77L175.71 9.12L171.87 13.08L173.18 18.69L178.35 20.35ZM193.74 4.51L192.43 -1.11L187.26 -2.77L183.41 1.20L184.73 6.81L189.89 8.47ZM205.56 55.06L204.25 49.45L199.09 47.78L195.24 51.74L196.55 57.35L201.71 59.01ZM196.55 57.35L195.24 51.74L190.08 50.08L186.23 54.03L187.55 59.64L192.71 61.30ZM208.10 45.49L206.79 39.88L201.62 38.22L197.77 42.17L199.09 47.78L204.25 49.45ZM199.09 47.78L197.77 42.17L192.61 40.51L188.77 44.46L190.08 50.08L195.24 51.74ZM212.03 62.33L210.72 56.72L205.56 55.06L201.71 59.01L203.02 64.62L208.18 66.28ZM203.02 64.62L201.71 59.01L196.55 57.35L192.71 61.30L194.02 66.91L199.18 68.57ZM214.57 52.77L213.26 47.16L208.10 45.49L204.25 49.45L205.56 55.06L210.72 56.72ZM181.08 52.37L179.76 46.76L174.60 45.10L170.76 49.05L172.08 54.66L177.23 56.32ZM172.08 54.66L170.76 49.05L165.60 47.40L161.76 51.35L163.08 56.96L168.23 58.62ZM183.61 42.80L182.29 37.19L177.13 35.53L173.29 39.49L174.60 45.10L179.76 46.76ZM174.60 45.10L173.29 39.49L168.13 37.83L164.29 41.79L165.60 47.40L170.76 49.05ZM187.55 59.64L186.23 54.03L181.08 52.37L177.23 56.32L178.55 61.93L183.70 63.59ZM178.55 61.93L177.23 56.32L172.08 54.66L168.23 58.62L169.55 64.22L174.71 65.88ZM190.08 50.08L188.77 44.46L183.61 42.80L179.76 46.76L181.08 52.37L186.23 54.03ZM219.66 33.63L218.35 28.01L213.18 26.35L209.33 30.31L210.64 35.92L215.80 37.59ZM210.64 35.92L209.33 30.31L204.16 28.64L200.31 32.60L201.62 38.22L206.79 39.88ZM222.20 24.06L220.89 18.44L215.73 16.78L211.87 20.73L213.18 26.35L218.35 28.01ZM213.18 26.35L211.87 20.73L206.70 19.07L202.85 23.03L204.16 28.64L209.33 30.31ZM226.13 40.92L224.82 35.30L219.66 33.63L215.80 37.59L217.11 43.20L222.28 44.87ZM217.11 43.20L215.80 37.59L210.64 35.92L206.79 39.88L208.10 45.49L213.26 47.16ZM228.68 31.34L227.37 25.72L222.20 24.06L218.35 28.01L219.66 33.63L224.82 35.30ZM266.30 111.03L265.00 105.42L259.84 103.74L255.98 107.68L257.29 113.30L262.44 114.97ZM239.27 117.83L237.96 112.22L232.81 110.55L228.96 114.49L230.27 120.10L235.42 121.77Z"/></svg>
