<svg xmlns="http://www.w3.org/2000/svg" width="256" height="256" viewBox="0 0 256 256"><path data-band="1" fill="#fde68a" fill-opacity="0.35" d="M51.31 55.78L50.04 49.75L44.47 47.99L40.17 52.26L41.44 58.28L47.01 60.05ZM54.34 45.49L53.06 39.46L47.49 37.70L43.19 41.96L44.47 47.99L50.04 49.75ZM60.40 24.89L59.12 18.86L53.55 17.10L49.24 21.36L50.52 27.40L56.09 29.16ZM63.43 14.59L62.16 8.56L56.58 6.79L52.27 11.06L53.55 17.10L59.12 18.86ZM53.55 17.10L52.27 11.06L46.69 9.30L42.39 13.57L43.67 19.60L49.24 21.36ZM67.25 32.69L65.98 26.66L60.40 24.89L56.09 29.16L57.37 35.19L62.94 36.96ZM57.37 35.19L56.09 29.16L50.52 27.40L46.22 31.67L47.49 37.70L53.06 39.46ZM70.28 22.39L69.01 16.36L63.43 14.59L59.12 18.86L60.40 24.89L65.98 26.66ZM43.67 19.60L42.39 13.57L36.81 11.81L32.51 16.08L33.79 22.11L39.37 23.87ZM55.13 73.86L53.86 67.84L48.29 66.07L43.99 70.33L45.26 76.36L50.83 78.12ZM58.16 63.58L56.88 57.55L51.31 55.78L47.01 60.05L48.29 66.07L53.86 67.84ZM61.97 81.66L60.70 75.63L55.13 73.86L50.83 78.12L52.10 84.15L57.67 85.91ZM52.10 84.15L50.83 78.12L45.26 76.36L40.97 80.62L42.24 86.64L47.81 88.41ZM65.00 71.37L63.73 65.34L58.16 63.58L53.86 67.84L55.13 73.86L60.70 75.63ZM71.06 50.79L69.79 44.76L64.21 42.99L59.91 47.26L61.18 53.29L66.76 55.05ZM61.18 53.29L59.91 47.26L54.34 45.49L50.04 49.75L51.31 55.78L56.88 57.55ZM74.09 40.50L72.82 34.46L67.25 32.69L62.94 36.96L64.21 42.99L69.79 44.76ZM64.21 42.99L62.94 36.96L57.37 35.19L53.06 39.46L54.34 45.49L59.91 47.26ZM77.90 58.59L76.63 52.56L71.06 50.79L66.76 55.05L68.03 61.08L73.60 62.85ZM68.03 61.08L66.76 55.05L61.18 53.29L56.88 57.55L58.16 63.58L63.73 65.34ZM80.94 48.30L79.67 42.26L74.09 40.50L69.79 44.76L71.06 50.79L76.63 52.56ZM76.36 1.78L75.09 -4.26L69.50 -6.03L65.19 -1.75L66.47 4.28L72.05 6.05ZM66.47 4.28L65.19 -1.75L59.61 -3.52L55.30 0.75L56.58 6.79L62.16 8.56ZM83.21 9.59L81.94 3.55L76.36 1.78L72.05 6.05L73.32 12.09L78.90 13.86ZM73.32 12.09L72.05 6.05L66.47 4.28L62.16 8.56L63.43 14.59L69.01 16.36ZM86.25 -0.72L84.98 -6.76L79.40 -8.53L75.09 -4.26L76.36 1.78L81.94 3.55ZM49.72 -1.01L48.45 -7.05L42.87 -8.81L38.56 -4.53L39.84 1.50L45.42 3.26ZM39.84 1.50L38.56 -4.53L32.98 -6.29L28.68 -2.02L29.96 4.01L35.54 5.77ZM56.58 6.79L55.30 0.75L49.72 -1.01L45.42 3.26L46.69 9.30L52.27 11.06ZM46.69 9.30L45.42 3.26L39.84 1.50L35.54 5.77L36.81 11.81L42.39 13.57ZM59.61 -3.52L58.34 -9.56L52.75 -11.32L48.45 -7.05L49.72 -1.01L55.30 0.75ZM92.35 102.56L91.08 96.53L85.51 94.76L81.21 99.02L82.48 105.04L88.04 106.81ZM82.48 105.04L81.21 99.02L75.64 97.24L71.34 101.50L72.61 107.52L78.18 109.29ZM95.38 92.28L94.12 86.25L88.55 84.48L84.24 88.74L85.51 94.76L91.08 96.53ZM85.51 94.76L84.24 88.74L78.68 86.96L74.37 91.22L75.64 97.24L81.21 99.02ZM99.18 110.36L97.91 104.34L92.35 102.56L88.04 106.81L89.31 112.84L94.88 114.61ZM89.31 112.84L88.04 106.81L82.48 105.04L78.18 109.29L79.45 115.31L85.01 117.09ZM102.22 100.08L100.95 94.06L95.38 92.28L91.08 96.53L92.35 102.56L97.91 104.34ZM65.78 99.73L64.51 93.71L58.94 91.94L54.65 96.19L55.92 102.22L61.48 103.98ZM55.92 102.22L54.65 96.19L49.08 94.43L44.79 98.68L46.06 104.70L51.62 106.47ZM68.81 89.45L67.54 83.42L61.97 81.66L57.67 85.91L58.94 91.94L64.51 93.71ZM58.94 91.94L57.67 85.91L52.10 84.15L47.81 88.41L49.08 94.43L54.65 96.19ZM72.61 107.52L71.34 101.50L65.78 99.73L61.48 103.98L62.75 110.00L68.32 111.77ZM62.75 110.00L61.48 103.98L55.92 102.22L51.62 106.47L52.90 112.49L58.46 114.26ZM75.64 97.24L74.37 91.22L68.81 89.45L64.51 93.71L65.78 99.73L71.34 101.50ZM108.30 79.52L107.04 73.49L101.47 71.71L97.16 75.97L98.42 82.00L104.00 83.77ZM98.42 82.00L97.16 75.97L91.59 74.19L87.28 78.45L88.55 84.48L94.12 86.25ZM111.35 69.23L110.09 63.20L104.51 61.42L100.20 65.68L101.47 71.71L107.04 73.49ZM101.47 71.71L100.20 65.68L94.63 63.91L90.32 68.16L91.59 74.19L97.16 75.97ZM115.14 87.33L113.88 81.30L108.30 79.52L104.00 83.77L105.26 89.80L110.83 91.58ZM105.26 89.80L104.00 83.77L98.42 82.00L94.12 86.25L95.38 92.28L100.95 94.06ZM118.19 77.04L116.93 71.01L111.35 69.23L107.04 73.49L108.30 79.52L113.88 81.30ZM81.71 76.68L80.44 70.65L74.87 68.88L70.57 73.14L71.84 79.17L77.41 80.94ZM71.84 79.17L70.57 73.14L65.00 71.37L60.70 75.63L61.97 81.66L67.54 83.42ZM84.75 66.39L83.48 60.36L77.90 58.59L73.60 62.85L74.87 68.88L80.44 70.65ZM74.87 68.88L73.60 62.85L68.03 61.08L63.73 65.34L65.00 71.37L70.57 73.14ZM88.55 84.48L87.28 78.45L81.71 76.68L77.41 80.94L78.68 86.96L84.24 88.74ZM78.68 86.96L77.41 80.94L71.84 79.17L67.54 83.42L68.81 89.45L74.37 91.22ZM91.59 74.19L90.32 68.16L84.75 66.39L80.44 70.65L81.71 76.68L87.28 78.45ZM102.97 128.43L101.71 122.41L96.14 120.64L91.84 124.88L93.10 130.91L98.67 132.68ZM93.10 130.91L91.84 124.88L86.28 123.11L81.98 127.36L83.24 133.38L88.81 135.15ZM106.01 118.16L104.75 112.14L99.18 110.36L94.88 114.61L96.14 120.64L101.71 122.41ZM96.14 120.64L94.88 114.61L89.31 112.84L85.01 117.09L86.28 123.11L91.84 124.88ZM109.80 136.24L108.53 130.21L102.97 128.43L98.67 132.68L99.93 138.70L105.49 140.48ZM99.93 138.70L98.67 132.68L93.10 130.91L88.81 135.15L90.07 141.17L95.63 142.95ZM112.84 125.97L111.58 119.94L106.01 118.16L101.71 122.41L102.97 128.43L108.53 130.21ZM76.42 125.59L75.15 119.57L69.58 117.79L65.29 122.05L66.56 128.06L72.12 129.84ZM66.56 128.06L65.29 122.05L59.73 120.28L55.44 124.53L56.71 130.55L62.27 132.31ZM79.45 115.31L78.18 109.29L72.61 107.52L68.32 111.77L69.58 117.79L75.15 119.57ZM69.58 117.79L68.32 111.77L62.75 110.00L58.46 114.26L59.73 120.28L65.29 122.05ZM83.24 133.38L81.98 127.36L76.42 125.59L72.12 129.84L73.39 135.85L78.95 137.63ZM73.39 135.85L72.12 129.84L66.56 128.06L62.27 132.31L63.53 138.33L69.09 140.10ZM86.28 123.11L85.01 117.09L79.45 115.31L75.15 119.57L76.42 125.59L81.98 127.36ZM118.93 105.42L117.67 99.39L112.09 97.61L107.79 101.86L109.05 107.89L114.62 109.67ZM109.05 107.89L107.79 101.86L102.22 100.08L97.91 104.34L99.18 110.36L104.75 112.14ZM121.97 95.14L120.71 89.11L115.14 87.33L110.83 91.58L112.09 97.61L117.67 99.39ZM112.09 97.61L110.83 91.58L105.26 89.80L100.95 94.06L102.22 100.08L107.79 101.86ZM125.76 113.22L124.50 107.20L118.93 105.42L114.62 109.67L115.88 115.69L121.45 117.47ZM115.88 115.69L114.62 109.67L109.05 107.89L104.75 112.14L106.01 118.16L111.58 119.94ZM128.81 102.95L127.55 96.92L121.97 95.14L117.67 99.39L118.93 105.42L124.50 107.20ZM40.83 153.55L39.56 147.54L34.00 145.78L29.72 150.03L30.99 156.04L36.54 157.80ZM43.84 143.29L42.57 137.28L37.01 135.51L32.73 139.76L34.00 145.78L39.56 147.54ZM49.88 122.76L48.60 116.74L43.04 114.98L38.75 119.23L40.03 125.25L45.59 127.01ZM40.03 125.25L38.75 119.23L33.19 117.47L28.91 121.72L30.18 127.74L35.74 129.50ZM52.90 112.49L51.62 106.47L46.06 104.70L41.77 108.96L43.04 114.98L48.60 116.74ZM56.71 130.55L55.44 124.53L49.88 122.76L45.59 127.01L46.86 133.03L52.42 134.80ZM46.86 133.03L45.59 127.01L40.03 125.25L35.74 129.50L37.01 135.51L42.57 137.28ZM59.73 120.28L58.46 114.26L52.90 112.49L48.60 116.74L49.88 122.76L55.44 124.53ZM113.66 30.53L112.39 24.49L106.81 22.72L102.49 26.98L103.76 33.02L109.34 34.79ZM103.76 33.02L102.49 26.98L96.91 25.21L92.60 29.47L93.87 35.51L99.45 37.28ZM116.71 20.23L115.44 14.19L109.86 12.41L105.54 16.68L106.81 22.72L112.39 24.49ZM106.81 22.72L105.54 16.68L99.96 14.90L95.64 19.17L96.91 25.21L102.49 26.98ZM120.50 38.35L119.24 32.31L113.66 30.53L109.34 34.79L110.60 40.83L116.18 42.61ZM110.60 40.83L109.34 34.79L103.76 33.02L99.45 37.28L100.71 43.32L106.29 45.09ZM123.56 28.05L122.29 22.01L116.71 20.23L112.39 24.49L113.66 30.53L119.24 32.31ZM87.02 27.70L85.75 21.66L80.17 19.89L75.86 24.16L77.13 30.20L82.71 31.97ZM77.13 30.20L75.86 24.16L70.28 22.39L65.98 26.66L67.25 32.69L72.82 34.46ZM90.06 17.40L88.79 11.36L83.21 9.59L78.90 13.86L80.17 19.89L85.75 21.66ZM80.17 19.89L78.90 13.86L73.32 12.09L69.01 16.36L70.28 22.39L75.86 24.16ZM93.87 35.51L92.60 29.47L87.02 27.70L82.71 31.97L83.98 38.00L89.56 39.77ZM83.98 38.00L82.71 31.97L77.13 30.20L72.82 34.46L74.09 40.50L79.67 42.26ZM96.91 25.21L95.64 19.17L90.06 17.40L85.75 21.66L87.02 27.70L92.60 29.47ZM129.67 7.43L128.41 1.39L122.82 -0.39L118.50 3.88L119.76 9.92L125.35 11.70ZM119.76 9.92L118.50 3.88L112.91 2.10L108.59 6.37L109.86 12.41L115.44 14.19ZM132.73 -2.88L131.47 -8.92L125.88 -10.70L121.55 -6.43L122.82 -0.39L128.41 1.39ZM122.82 -0.39L121.55 -6.43L115.97 -8.21L111.64 -3.94L112.91 2.10L118.50 3.88ZM136.52 15.26L135.26 9.21L129.67 7.43L125.35 11.70L126.61 17.74L132.20 19.52ZM126.61 17.74L125.35 11.70L119.76 9.92L115.44 14.19L116.71 20.23L122.29 22.01ZM139.58 4.95L138.32 -1.10L132.73 -2.88L128.41 1.39L129.67 7.43L135.26 9.21ZM103.01 4.60L101.74 -1.45L96.15 -3.22L91.84 1.05L93.11 7.09L98.69 8.86ZM93.11 7.09L91.84 1.05L86.25 -0.72L81.94 3.55L83.21 9.59L88.79 11.36ZM96.15 -3.22L94.88 -9.26L89.30 -11.03L84.98 -6.76L86.25 -0.72L91.84 1.05ZM109.86 12.41L108.59 6.37L103.01 4.60L98.69 8.86L99.96 14.90L105.54 16.68ZM99.96 14.90L98.69 8.86L93.11 7.09L88.79 11.36L90.06 17.40L95.64 19.17ZM112.91 2.10L111.64 -3.94L106.06 -5.72L101.74 -1.45L103.01 4.60L108.59 6.37ZM124.29 56.46L123.03 50.42L117.45 48.65L113.13 52.91L114.40 58.94L119.98 60.72ZM114.40 58.94L113.13 52.91L107.56 51.13L103.24 55.39L104.51 61.42L110.09 63.20ZM127.34 46.17L126.08 40.13L120.50 38.35L116.18 42.61L117.45 48.65L123.03 50.42ZM117.45 48.65L116.18 42.61L110.60 40.83L106.29 45.09L107.56 51.13L113.13 52.91ZM131.13 64.28L129.87 58.24L124.29 56.46L119.98 60.72L121.24 66.75L126.82 68.53ZM121.24 66.75L119.98 60.72L114.40 58.94L110.09 63.20L111.35 69.23L116.93 71.01ZM134.19 53.98L132.93 47.95L127.34 46.17L123.03 50.42L124.29 56.46L129.87 58.24ZM97.67 53.61L96.40 47.58L90.82 45.81L86.52 50.07L87.78 56.10L93.36 57.87ZM87.78 56.10L86.52 50.07L80.94 48.30L76.63 52.56L77.90 58.59L83.48 60.36ZM100.71 43.32L99.45 37.28L93.87 35.51L89.56 39.77L90.82 45.81L96.40 47.58ZM90.82 45.81L89.56 39.77L83.98 38.00L79.67 42.26L80.94 48.30L86.52 50.07ZM104.51 61.42L103.24 55.39L97.67 53.61L93.36 57.87L94.63 63.91L100.20 65.68ZM94.63 63.91L93.36 57.87L87.78 56.10L83.48 60.36L84.75 66.39L90.32 68.16ZM107.56 51.13L106.29 45.09L100.71 43.32L96.40 47.58L97.67 53.61L103.24 55.39ZM140.31 33.39L139.04 27.34L133.46 25.56L129.14 29.83L130.40 35.87L135.98 37.65ZM130.40 35.87L129.14 29.83L123.56 28.05L119.24 32.31L120.50 38.35L126.08 40.13ZM143.37 23.08L142.11 17.04L136.52 15.26L132.20 19.52L133.46 25.56L139.04 27.34ZM133.46 25.56L132.20 19.52L126.61 17.74L122.29 22.01L123.56 28.05L129.14 29.83ZM147.15 41.21L145.89 35.17L140.31 33.39L135.98 37.65L137.24 43.69L142.83 45.47ZM137.24 43.69L135.98 37.65L130.40 35.87L126.08 40.13L127.34 46.17L132.93 47.95ZM150.21 30.91L148.95 24.87L143.37 23.08L139.04 27.34L140.31 33.39L145.89 35.17ZM118.83 228.94L117.58 222.93L112.02 221.15L107.73 225.38L108.99 231.39L114.54 233.17ZM108.99 231.39L107.73 225.38L102.18 223.60L97.89 227.83L99.15 233.84L104.70 235.61ZM121.87 218.70L120.61 212.69L115.06 210.91L110.77 215.14L112.02 221.15L117.58 222.93ZM112.02 221.15L110.77 215.14L105.21 213.36L100.92 217.59L102.18 223.60L107.73 225.38ZM125.64 236.73L124.38 230.72L118.83 228.94L114.54 233.17L115.80 239.18L121.35 240.96ZM115.80 239.18L114.54 233.17L108.99 231.39L104.70 235.61L105.96 241.62L111.51 243.40ZM128.68 226.49L127.42 220.48L121.87 218.70L117.58 222.93L118.83 228.94L124.38 230.72ZM92.35 226.05L91.09 220.04L85.54 218.27L81.25 222.50L82.51 228.51L88.06 230.28ZM82.51 228.51L81.25 222.50L75.70 220.72L71.42 224.96L72.68 230.96L78.23 232.74ZM95.37 215.81L94.11 209.80L88.56 208.02L84.27 212.26L85.54 218.27L91.09 220.04ZM85.54 218.27L84.27 212.26L78.72 210.48L74.44 214.72L75.70 220.72L81.25 222.50ZM99.15 233.84L97.89 227.83L92.35 226.05L88.06 230.28L89.32 236.29L94.87 238.06ZM89.32 236.29L88.06 230.28L82.51 228.51L78.23 232.74L79.49 238.74L85.04 240.52ZM102.18 223.60L100.92 217.59L95.37 215.81L91.09 220.04L92.35 226.05L97.89 227.83ZM134.76 206.01L133.51 199.99L127.95 198.21L123.65 202.44L124.91 208.46L130.46 210.24ZM124.91 208.46L123.65 202.44L118.10 200.66L113.80 204.89L115.06 210.91L120.61 212.69ZM137.81 195.76L136.55 189.74L130.99 187.96L126.69 192.19L127.95 198.21L133.51 199.99ZM127.95 198.21L126.69 192.19L121.14 190.41L116.84 194.65L118.10 200.66L123.65 202.44ZM141.57 213.81L140.32 207.79L134.76 206.01L130.46 210.24L131.72 216.25L137.27 218.04ZM131.72 216.25L130.46 210.24L124.91 208.46L120.61 212.69L121.87 218.70L127.42 220.48ZM144.62 203.56L143.36 197.55L137.81 195.76L133.51 199.99L134.76 206.01L140.32 207.79ZM108.25 203.11L106.99 197.10L101.43 195.32L97.14 199.56L98.40 205.57L103.95 207.35ZM98.40 205.57L97.14 199.56L91.59 197.78L87.30 202.01L88.56 208.02L94.11 209.80ZM111.28 192.87L110.02 186.85L104.47 185.07L100.17 189.31L101.43 195.32L106.99 197.10ZM101.43 195.32L100.17 189.31L94.62 187.53L90.33 191.77L91.59 197.78L97.14 199.56ZM115.06 210.91L113.80 204.89L108.25 203.11L103.95 207.35L105.21 213.36L110.77 215.14ZM105.21 213.36L103.95 207.35L98.40 205.57L94.11 209.80L95.37 215.81L100.92 217.59ZM118.10 200.66L116.84 194.65L111.28 192.87L106.99 197.10L108.25 203.11L113.80 204.89ZM129.40 254.76L128.15 248.75L122.60 246.97L118.31 251.19L119.57 257.20L125.11 258.98ZM119.57 257.20L118.31 251.19L112.77 249.41L108.48 253.63L109.73 259.64L115.28 261.42ZM132.44 244.53L131.19 238.52L125.64 236.73L121.35 240.96L122.60 246.97L128.15 248.75ZM122.60 246.97L121.35 240.96L115.80 239.18L111.51 243.40L112.77 249.41L118.31 251.19ZM102.93 251.85L101.67 245.85L96.13 244.07L91.84 248.30L93.10 254.30L98.65 256.08ZM93.10 254.30L91.84 248.30L86.30 246.52L82.02 250.75L83.28 256.75L88.82 258.53ZM105.96 241.62L104.70 235.61L99.15 233.84L94.87 238.06L96.13 244.07L101.67 245.85ZM96.13 244.07L94.87 238.06L89.32 236.29L85.04 240.52L86.30 246.52L91.84 248.30ZM109.73 259.64L108.48 253.63L102.93 251.85L98.65 256.08L99.90 262.08L105.45 263.86ZM99.90 262.08L98.65 256.08L93.10 254.30L88.82 258.53L90.08 264.53L95.62 266.31ZM112.77 249.41L111.51 243.40L105.96 241.62L101.67 245.85L102.93 251.85L108.48 253.63ZM145.33 231.85L144.08 225.84L138.53 224.05L134.23 228.28L135.48 234.29L141.03 236.08ZM135.48 234.29L134.23 228.28L128.68 226.49L124.38 230.72L125.64 236.73L131.19 238.52ZM138.53 224.05L137.27 218.04L131.72 216.25L127.42 220.48L128.68 226.49L134.23 228.28ZM142.29 242.09L141.03 236.08L135.48 234.29L131.19 238.52L132.44 244.53L137.99 246.31ZM50.03 246.11L48.76 240.11L43.22 238.34L38.95 242.58L40.21 248.57L45.75 250.34ZM40.21 248.57L38.95 242.58L33.41 240.81L29.14 245.04L30.41 251.04L35.94 252.80ZM53.04 235.88L51.77 229.88L46.23 228.11L41.95 232.34L43.22 238.34L48.76 240.11ZM43.22 238.34L41.95 232.34L36.41 230.58L32.14 234.81L33.41 240.81L38.95 242.58ZM56.83 253.88L55.57 247.88L50.03 246.11L45.75 250.34L47.02 256.34L52.56 258.11ZM47.02 256.34L45.75 250.34L40.21 248.57L35.94 252.80L37.21 258.80L42.75 260.57ZM59.85 243.65L58.58 237.65L53.04 235.88L48.76 240.11L50.03 246.11L55.57 247.88ZM23.60 243.28L22.33 237.28L16.79 235.52L12.52 239.75L13.79 245.75L19.33 247.51ZM13.79 245.75L12.52 239.75L6.98 237.99L2.72 242.22L3.99 248.22L9.53 249.98ZM26.60 233.05L25.33 227.05L19.79 225.28L15.52 229.52L16.79 235.52L22.33 237.28ZM16.79 235.52L15.52 229.52L9.98 227.76L5.71 231.99L6.98 237.99L12.52 239.75ZM30.41 251.04L29.14 245.04L23.60 243.28L19.33 247.51L20.60 253.50L26.14 255.27ZM20.60 253.50L19.33 247.51L13.79 245.75L9.53 249.98L10.80 255.97L16.33 257.74ZM33.41 240.81L32.14 234.81L26.60 233.05L22.33 237.28L23.60 243.28L29.14 245.04ZM65.87 223.18L64.61 217.18L59.06 215.41L54.78 219.64L56.05 225.65L61.59 227.42ZM56.05 225.65L54.78 219.64L49.24 217.87L44.96 222.11L46.23 228.11L51.77 229.88ZM68.89 212.95L67.63 206.94L62.08 205.17L57.80 209.40L59.06 215.41L64.61 217.18ZM59.06 215.41L57.80 209.40L52.25 207.63L47.97 211.87L49.24 217.87L54.78 219.64ZM72.68 230.96L71.42 224.96L65.87 223.18L61.59 227.42L62.86 233.42L68.40 235.19ZM62.86 233.42L61.59 227.42L56.05 225.65L51.77 229.88L53.04 235.88L58.58 237.65ZM75.70 220.72L74.44 214.72L68.89 212.95L64.61 217.18L65.87 223.18L71.42 224.96ZM39.42 220.34L38.15 214.34L32.60 212.57L28.33 216.81L29.60 222.81L35.14 224.58ZM29.60 222.81L28.33 216.81L22.79 215.05L18.51 219.28L19.79 225.28L25.33 227.05ZM42.42 210.10L41.16 204.10L35.61 202.33L31.33 206.57L32.60 212.57L38.15 214.34ZM32.60 212.57L31.33 206.57L25.79 204.81L21.51 209.05L22.79 215.05L28.33 216.81ZM46.23 228.11L44.96 222.11L39.42 220.34L35.14 224.58L36.41 230.58L41.95 232.34ZM36.41 230.58L35.14 224.58L29.60 222.81L25.33 227.05L26.60 233.05L32.14 234.81ZM49.24 217.87L47.97 211.87L42.42 210.10L38.15 214.34L39.42 220.34L44.96 222.11ZM63.64 261.65L62.37 255.65L56.83 253.88L52.56 258.11L53.82 264.11L59.36 265.88ZM37.21 258.80L35.94 252.80L30.41 251.04L26.14 255.27L27.41 261.26L32.94 263.03ZM27.41 261.26L26.14 255.27L20.60 253.50L16.33 257.74L17.60 263.73L23.14 265.49ZM76.47 248.97L75.21 242.97L69.67 241.20L65.39 245.42L66.65 251.43L72.19 253.20ZM66.65 251.43L65.39 245.42L59.85 243.65L55.57 247.88L56.83 253.88L62.37 255.65ZM79.49 238.74L78.23 232.74L72.68 230.96L68.40 235.19L69.67 241.20L75.21 242.97ZM69.67 241.20L68.40 235.19L62.86 233.42L58.58 237.65L59.85 243.65L65.39 245.42ZM83.28 256.75L82.02 250.75L76.47 248.97L72.19 253.20L73.46 259.20L79.00 260.97ZM73.46 259.20L72.19 253.20L66.65 251.43L62.37 255.65L63.64 261.65L69.18 263.43ZM86.30 246.52L85.04 240.52L79.49 238.74L75.21 242.97L76.47 248.97L82.02 250.75ZM140.13 157.19L138.88 151.16L133.31 149.38L129.01 153.62L130.27 159.64L135.83 161.43ZM130.27 159.64L129.01 153.62L123.44 151.84L119.14 156.08L120.40 162.10L125.96 163.88ZM143.19 146.92L141.93 140.90L136.36 139.11L132.05 143.36L133.31 149.38L138.88 151.16ZM133.31 149.38L132.05 143.36L126.49 141.57L122.18 145.82L123.44 151.84L129.01 153.62ZM146.95 165.00L145.70 158.97L140.13 157.19L135.83 161.43L137.08 167.45L142.65 169.23ZM137.08 167.45L135.83 161.43L130.27 159.64L125.96 163.88L127.22 169.90L132.78 171.69ZM150.01 154.74L148.75 148.71L143.19 146.92L138.88 151.16L140.13 157.19L145.70 158.97ZM113.58 154.30L112.32 148.28L106.76 146.50L102.46 150.74L103.72 156.76L109.28 158.54ZM103.72 156.76L102.46 150.74L96.90 148.97L92.60 153.21L93.86 159.23L99.42 161.00ZM116.62 144.04L115.36 138.01L109.80 136.24L105.49 140.48L106.76 146.50L112.32 148.28ZM106.76 146.50L105.49 140.48L99.93 138.70L95.63 142.95L96.90 148.97L102.46 150.74ZM120.40 162.10L119.14 156.08L113.58 154.30L109.28 158.54L110.54 164.56L116.10 166.34ZM110.54 164.56L109.28 158.54L103.72 156.76L99.42 161.00L100.68 167.02L106.24 168.80ZM123.44 151.84L122.18 145.82L116.62 144.04L112.32 148.28L113.58 154.30L119.14 156.08ZM156.12 134.20L154.86 128.17L149.29 126.39L144.98 130.63L146.24 136.66L151.81 138.44ZM146.24 136.66L144.98 130.63L139.41 128.85L135.10 133.09L136.36 139.11L141.93 140.90ZM159.18 123.93L157.92 117.90L152.35 116.11L148.04 120.36L149.29 126.39L154.86 128.17ZM149.29 126.39L148.04 120.36L142.47 118.57L138.16 122.82L139.41 128.85L144.98 130.63ZM162.94 142.02L161.69 135.99L156.12 134.20L151.81 138.44L153.06 144.47L158.63 146.26ZM153.06 144.47L151.81 138.44L146.24 136.66L141.93 140.90L143.19 146.92L148.75 148.71ZM166.00 131.75L164.75 125.72L159.18 123.93L154.86 128.17L156.12 134.20L161.69 135.99ZM129.54 131.31L128.28 125.28L122.71 123.50L118.40 127.74L119.66 133.77L125.23 135.55ZM119.66 133.77L118.40 127.74L112.84 125.97L108.53 130.21L109.80 136.24L115.36 138.01ZM132.59 121.03L131.33 115.01L125.76 113.22L121.45 117.47L122.71 123.50L128.28 125.28ZM122.71 123.50L121.45 117.47L115.88 115.69L111.58 119.94L112.84 125.97L118.40 127.74ZM136.36 139.11L135.10 133.09L129.54 131.31L125.23 135.55L126.49 141.57L132.05 143.36ZM126.49 141.57L125.23 135.55L119.66 133.77L115.36 138.01L116.62 144.04L122.18 145.82ZM139.41 128.85L138.16 122.82L132.59 121.03L128.28 125.28L129.54 131.31L135.10 133.09ZM150.72 183.06L149.46 177.04L143.90 175.26L139.60 179.49L140.85 185.51L146.41 187.30ZM140.85 185.51L139.60 179.49L134.04 177.71L129.74 181.94L130.99 187.96L136.55 189.74ZM153.77 172.81L152.52 166.78L146.95 165.00L142.65 169.23L143.90 175.26L149.46 177.04ZM143.90 175.26L142.65 169.23L137.08 167.45L132.78 171.69L134.04 177.71L139.60 179.49ZM157.53 190.87L156.28 184.85L150.72 183.06L146.41 187.30L147.67 193.32L153.23 195.10ZM147.67 193.32L146.41 187.30L140.85 185.51L136.55 189.74L137.81 195.76L143.36 197.55ZM124.18 180.16L122.92 174.14L117.36 172.36L113.06 176.60L114.32 182.61L119.88 184.39ZM114.32 182.61L113.06 176.60L107.50 174.82L103.21 179.06L104.47 185.07L110.02 186.85ZM127.22 169.90L125.96 163.88L120.40 162.10L116.10 166.34L117.36 172.36L122.92 174.14ZM117.36 172.36L116.10 166.34L110.54 164.56L106.24 168.80L107.50 174.82L113.06 176.60ZM130.99 187.96L129.74 181.94L124.18 180.16L119.88 184.39L121.14 190.41L126.69 192.19ZM121.14 190.41L119.88 184.39L114.32 182.61L110.02 186.85L111.28 192.87L116.84 194.65ZM134.04 177.71L132.78 171.69L127.22 169.90L122.92 174.14L124.18 180.16L129.74 181.94ZM166.70 160.10L165.45 154.07L159.88 152.28L155.57 156.52L156.83 162.55L162.39 164.34ZM156.83 162.55L155.57 156.52L150.01 154.74L145.70 158.97L146.95 165.00L152.52 166.78ZM169.76 149.84L168.51 143.81L162.94 142.02L158.63 146.26L159.88 152.28L165.45 154.07ZM159.88 152.28L158.63 146.26L153.06 144.47L148.75 148.71L150.01 154.74L155.57 156.52ZM71.14 174.42L69.87 168.41L64.32 166.64L60.03 170.88L61.30 176.89L66.85 178.66ZM61.30 176.89L60.03 170.88L54.47 169.11L50.19 173.35L51.46 179.36L57.01 181.13ZM74.16 164.17L72.89 158.15L67.34 156.38L63.05 160.62L64.32 166.64L69.87 168.41ZM64.32 166.64L63.05 160.62L57.49 158.85L53.21 163.10L54.47 169.11L60.03 170.88ZM77.96 182.21L76.69 176.19L71.14 174.42L66.85 178.66L68.12 184.67L73.67 186.44ZM68.12 184.67L66.85 178.66L61.30 176.89L57.01 181.13L58.28 187.14L63.83 188.91ZM80.98 171.95L79.72 165.94L74.16 164.17L69.87 168.41L71.14 174.42L76.69 176.19ZM44.64 171.59L43.37 165.58L37.82 163.81L33.53 168.06L34.81 174.07L40.36 175.83ZM34.81 174.07L33.53 168.06L27.98 166.29L23.70 170.54L24.98 176.55L30.53 178.31ZM47.65 161.33L46.38 155.32L40.83 153.55L36.54 157.80L37.82 163.81L43.37 165.58ZM51.46 179.36L50.19 173.35L44.64 171.59L40.36 175.83L41.63 181.84L47.18 183.61ZM41.63 181.84L40.36 175.83L34.81 174.07L30.53 178.31L31.80 184.32L37.35 186.08ZM54.47 169.11L53.21 163.10L47.65 161.33L43.37 165.58L44.64 171.59L50.19 173.35ZM87.04 151.44L85.77 145.42L80.21 143.64L75.92 147.89L77.19 153.91L82.74 155.68ZM77.19 153.91L75.92 147.89L70.36 146.12L66.07 150.36L67.34 156.38L72.89 158.15ZM90.07 141.17L88.81 135.15L83.24 133.38L78.95 137.63L80.21 143.64L85.77 145.42ZM80.21 143.64L78.95 137.63L73.39 135.85L69.09 140.10L70.36 146.12L75.92 147.89ZM93.86 159.23L92.60 153.21L87.04 151.44L82.74 155.68L84.01 161.70L89.57 163.47ZM84.01 161.70L82.74 155.68L77.19 153.91L72.89 158.15L74.16 164.17L79.72 165.94ZM96.90 148.97L95.63 142.95L90.07 141.17L85.77 145.42L87.04 151.44L92.60 153.21ZM60.51 148.59L59.24 142.58L53.69 140.81L49.40 145.06L50.67 151.07L56.22 152.84ZM50.67 151.07L49.40 145.06L43.84 143.29L39.56 147.54L40.83 153.55L46.38 155.32ZM63.53 138.33L62.27 132.31L56.71 130.55L52.42 134.80L53.69 140.81L59.24 142.58ZM53.69 140.81L52.42 134.80L46.86 133.03L42.57 137.28L43.84 143.29L49.40 145.06ZM67.34 156.38L66.07 150.36L60.51 148.59L56.22 152.84L57.49 158.85L63.05 160.62ZM57.49 158.85L56.22 152.84L50.67 151.07L46.38 155.32L47.65 161.33L53.21 163.10ZM70.36 146.12L69.09 140.10L63.53 138.33L59.24 142.58L60.51 148.59L66.07 150.36ZM81.75 200.24L80.48 194.23L74.93 192.46L70.65 196.69L71.91 202.70L77.46 204.48ZM71.91 202.70L70.65 196.69L65.10 194.92L60.81 199.16L62.08 205.17L67.63 206.94ZM84.77 189.99L83.51 183.98L77.96 182.21L73.67 186.44L74.93 192.46L80.48 194.23ZM74.93 192.46L73.67 186.44L68.12 184.67L63.83 188.91L65.10 194.92L70.65 196.69ZM88.56 208.02L87.30 202.01L81.75 200.24L77.46 204.48L78.72 210.48L84.27 212.26ZM78.72 210.48L77.46 204.48L71.91 202.70L67.63 206.94L68.89 212.95L74.44 214.72ZM91.59 197.78L90.33 191.77L84.77 189.99L80.48 194.23L81.75 200.24L87.30 202.01ZM55.26 197.39L54.00 191.38L48.45 189.61L44.16 193.85L45.43 199.86L50.98 201.63ZM45.43 199.86L44.16 193.85L38.62 192.09L34.34 196.33L35.61 202.33L41.16 204.10ZM58.28 187.14L57.01 181.13L51.46 179.36L47.18 183.61L48.45 189.61L54.00 191.38ZM48.45 189.61L47.18 183.61L41.63 181.84L37.35 186.08L38.62 192.09L44.16 193.85ZM62.08 205.17L60.81 199.16L55.26 197.39L50.98 201.63L52.25 207.63L57.80 209.40ZM52.25 207.63L50.98 201.63L45.43 199.86L41.16 204.10L42.42 210.10L47.97 211.87ZM65.10 194.92L63.83 188.91L58.28 187.14L54.00 191.38L55.26 197.39L60.81 199.16ZM97.65 177.28L96.39 171.26L90.83 169.49L86.54 173.73L87.80 179.74L93.36 181.52ZM87.80 179.74L86.54 173.73L80.98 171.95L76.69 176.19L77.96 182.21L83.51 183.98ZM100.68 167.02L99.42 161.00L93.86 159.23L89.57 163.47L90.83 169.49L96.39 171.26ZM90.83 169.49L89.57 163.47L84.01 161.70L79.72 165.94L80.98 171.95L86.54 173.73ZM104.47 185.07L103.21 179.06L97.65 177.28L93.36 181.52L94.62 187.53L100.17 189.31ZM94.62 187.53L93.36 181.52L87.80 179.74L83.51 183.98L84.77 189.99L90.33 191.77ZM107.50 174.82L106.24 168.80L100.68 167.02L96.39 171.26L97.65 177.28L103.21 179.06ZM151.43 211.37L150.18 205.35L144.62 203.56L140.32 207.79L141.57 213.81L147.13 215.60ZM154.48 201.12L153.23 195.10L147.67 193.32L143.36 197.55L144.62 203.56L150.18 205.35ZM3.99 248.22L2.72 242.22L-2.82 240.46L-7.08 244.70L-5.81 250.69L-0.27 252.45ZM10.80 255.97L9.53 249.98L3.99 248.22L-0.27 252.45L1.00 258.44L6.54 260.20ZM17.60 263.73L16.33 257.74L10.80 255.97L6.54 260.20L7.81 266.20L13.34 267.96ZM15.97 207.28L14.70 201.28L9.15 199.52L4.88 203.76L6.16 209.76L11.70 211.52ZM19.79 225.28L18.51 219.28L12.97 217.52L8.70 221.76L9.98 227.76L15.52 229.52ZM22.79 215.05L21.51 209.05L15.97 207.28L11.70 211.52L12.97 217.52L18.51 219.28ZM28.79 194.56L27.52 188.56L21.97 186.79L17.70 191.04L18.97 197.04L24.52 198.80ZM31.80 184.32L30.53 178.31L24.98 176.55L20.70 180.79L21.97 186.79L27.52 188.56ZM35.61 202.33L34.34 196.33L28.79 194.56L24.52 198.80L25.79 204.81L31.33 206.57ZM25.79 204.81L24.52 198.80L18.97 197.04L14.70 201.28L15.97 207.28L21.51 209.05ZM38.62 192.09L37.35 186.08L31.80 184.32L27.52 188.56L28.79 194.56L34.34 196.33ZM161.54 85.27L160.28 79.23L154.70 77.45L150.38 81.70L151.64 87.73L157.22 89.52ZM151.64 87.73L150.38 81.70L144.81 79.91L140.49 84.16L141.75 90.20L147.32 91.98ZM164.60 74.98L163.35 68.94L157.77 67.16L153.44 71.41L154.70 77.45L160.28 79.23ZM154.70 77.45L153.44 71.41L147.87 69.62L143.55 73.88L144.81 79.91L150.38 81.70ZM168.37 93.09L167.11 87.06L161.54 85.27L157.22 89.52L158.47 95.55L164.05 97.34ZM158.47 95.55L157.22 89.52L151.64 87.73L147.32 91.98L148.58 98.02L154.15 99.80ZM171.44 82.81L170.18 76.77L164.60 74.98L160.28 79.23L161.54 85.27L167.11 87.06ZM134.91 82.38L133.65 76.35L128.08 74.57L123.76 78.82L125.02 84.85L130.60 86.63ZM125.02 84.85L123.76 78.82L118.19 77.04L113.88 81.30L115.14 87.33L120.71 89.11ZM137.97 72.09L136.71 66.06L131.13 64.28L126.82 68.53L128.08 74.57L133.65 76.35ZM128.08 74.57L126.82 68.53L121.24 66.75L116.93 71.01L118.19 77.04L123.76 78.82ZM141.75 90.20L140.49 84.16L134.91 82.38L130.60 86.63L131.86 92.67L137.43 94.45ZM131.86 92.67L130.60 86.63L125.02 84.85L120.71 89.11L121.97 95.14L127.55 96.92ZM144.81 79.91L143.55 73.88L137.97 72.09L133.65 76.35L134.91 82.38L140.49 84.16ZM177.58 62.23L176.32 56.18L170.74 54.39L166.41 58.65L167.67 64.69L173.25 66.48ZM167.67 64.69L166.41 58.65L160.83 56.86L156.51 61.12L157.77 67.16L163.35 68.94ZM180.65 51.93L179.40 45.89L173.81 44.10L169.48 48.35L170.74 54.39L176.32 56.18ZM170.74 54.39L169.48 48.35L163.90 46.57L159.57 50.82L160.83 56.86L166.41 58.65ZM184.41 70.06L183.16 64.02L177.58 62.23L173.25 66.48L174.51 72.52L180.09 74.31ZM174.51 72.52L173.25 66.48L167.67 64.69L163.35 68.94L164.60 74.98L170.18 76.77ZM150.93 59.33L149.67 53.29L144.09 51.51L139.77 55.77L141.03 61.80L146.61 63.59ZM141.03 61.80L139.77 55.77L134.19 53.98L129.87 58.24L131.13 64.28L136.71 66.06ZM153.99 49.04L152.73 42.99L147.15 41.21L142.83 45.47L144.09 51.51L149.67 53.29ZM144.09 51.51L142.83 45.47L137.24 43.69L132.93 47.95L134.19 53.98L139.77 55.77ZM157.77 67.16L156.51 61.12L150.93 59.33L146.61 63.59L147.87 69.62L153.44 71.41ZM147.87 69.62L146.61 63.59L141.03 61.80L136.71 66.06L137.97 72.09L143.55 73.88ZM160.83 56.86L159.57 50.82L153.99 49.04L149.67 53.29L150.93 59.33L156.51 61.12ZM172.13 111.20L170.88 105.16L165.30 103.38L160.98 107.62L162.24 113.65L167.81 115.44ZM162.24 113.65L160.98 107.62L155.41 105.83L151.09 110.08L152.35 116.11L157.92 117.90ZM175.20 100.92L173.95 94.88L168.37 93.09L164.05 97.34L165.30 103.38L170.88 105.16ZM165.30 103.38L164.05 97.34L158.47 95.55L154.15 99.80L155.41 105.83L160.98 107.62ZM169.07 121.47L167.81 115.44L162.24 113.65L157.92 117.90L159.18 123.93L164.75 125.72ZM145.52 108.30L144.26 102.26L138.69 100.48L134.38 104.73L135.64 110.76L141.21 112.54ZM135.64 110.76L134.38 104.73L128.81 102.95L124.50 107.20L125.76 113.22L131.33 115.01ZM148.58 98.02L147.32 91.98L141.75 90.20L137.43 94.45L138.69 100.48L144.26 102.26ZM138.69 100.48L137.43 94.45L131.86 92.67L127.55 96.92L128.81 102.95L134.38 104.73ZM152.35 116.11L151.09 110.08L145.52 108.30L141.21 112.54L142.47 118.57L148.04 120.36ZM142.47 118.57L141.21 112.54L135.64 110.76L131.33 115.01L132.59 121.03L138.16 122.82ZM155.41 105.83L154.15 99.80L148.58 98.02L144.26 102.26L145.52 108.30L151.09 110.08ZM178.27 90.63L177.02 84.60L171.44 82.81L167.11 87.06L168.37 93.09L173.95 94.88ZM181.34 80.35L180.09 74.31L174.51 72.52L170.18 76.77L171.44 82.81L177.02 84.60ZM173.12 15.65L171.86 9.60L166.27 7.82L161.94 12.08L163.20 18.13L168.78 19.91ZM179.96 23.49L178.71 17.44L173.12 15.65L168.78 19.91L170.04 25.96L175.63 27.75ZM156.35 10.30L155.09 4.25L149.50 2.47L145.17 6.73L146.43 12.78L152.02 14.56ZM146.43 12.78L145.17 6.73L139.58 4.95L135.26 9.21L136.52 15.26L142.11 17.04ZM159.42 -0.02L158.16 -6.07L152.57 -7.85L148.24 -3.58L149.50 2.47L155.09 4.25ZM149.50 2.47L148.24 -3.58L142.65 -5.36L138.32 -1.10L139.58 4.95L145.17 6.73ZM163.20 18.13L161.94 12.08L156.35 10.30L152.02 14.56L153.28 20.60L158.87 22.39ZM153.28 20.60L152.02 14.56L146.43 12.78L142.11 17.04L143.37 23.08L148.95 24.87ZM166.27 7.82L165.01 1.77L159.42 -0.02L155.09 4.25L156.35 10.30L161.94 12.08ZM169.34 -2.49L168.08 -8.55L162.49 -10.33L158.16 -6.07L159.42 -0.02L165.01 1.77ZM183.73 41.63L182.47 35.58L176.89 33.80L172.56 38.05L173.81 44.10L179.40 45.89ZM166.97 36.26L165.71 30.22L160.13 28.43L155.80 32.69L157.06 38.74L162.64 40.52ZM157.06 38.74L155.80 32.69L150.21 30.91L145.89 35.17L147.15 41.21L152.73 42.99ZM170.04 25.96L168.78 19.91L163.20 18.13L158.87 22.39L160.13 28.43L165.71 30.22ZM160.13 28.43L158.87 22.39L153.28 20.60L148.95 24.87L150.21 30.91L155.80 32.69ZM173.81 44.10L172.56 38.05L166.97 36.26L162.64 40.52L163.90 46.57L169.48 48.35ZM163.90 46.57L162.64 40.52L157.06 38.74L152.73 42.99L153.99 49.04L159.57 50.82ZM176.89 33.80L175.63 27.75L170.04 25.96L165.71 30.22L166.97 36.26L172.56 38.05Z"/><path data-band="2" fill="#f97316" fill-opacity="0.35" d="M44.47 47.99L43.19 41.96L37.62 40.20L33.32 44.47L34.60 50.49L40.17 52.26ZM34.60 50.49L33.32 44.47L27.75 42.71L23.46 46.97L24.73 53.00L30.30 54.76ZM47.49 37.70L46.22 31.67L40.64 29.90L36.34 34.17L37.62 40.20L43.19 41.96ZM37.62 40.20L36.34 34.17L30.77 32.41L26.47 36.68L27.75 42.71L33.32 44.47ZM41.44 58.28L40.17 52.26L34.60 50.49L30.30 54.76L31.58 60.78L37.15 62.55ZM17.89 45.21L16.61 39.19L11.04 37.43L6.75 41.70L8.03 47.72L13.60 49.48ZM8.03 47.72L6.75 41.70L1.18 39.95L-3.11 44.21L-1.83 50.24L3.74 51.99ZM20.90 34.92L19.62 28.89L14.05 27.13L9.76 31.40L11.04 37.43L16.61 39.19ZM11.04 37.43L9.76 31.40L4.19 29.65L-0.10 33.92L1.18 39.95L6.75 41.70ZM24.73 53.00L23.46 46.97L17.89 45.21L13.60 49.48L14.87 55.51L20.44 57.26ZM14.87 55.51L13.60 49.48L8.03 47.72L3.74 51.99L5.02 58.01L10.58 59.77ZM27.75 42.71L26.47 36.68L20.90 34.92L16.61 39.19L17.89 45.21L23.46 46.97ZM50.52 27.40L49.24 21.36L43.67 19.60L39.37 23.87L40.64 29.90L46.22 31.67ZM33.79 22.11L32.51 16.08L26.94 14.32L22.64 18.59L23.92 24.62L29.49 26.38ZM23.92 24.62L22.64 18.59L17.07 16.83L12.77 21.11L14.05 27.13L19.62 28.89ZM36.81 11.81L35.54 5.77L29.96 4.01L25.66 8.29L26.94 14.32L32.51 16.08ZM26.94 14.32L25.66 8.29L20.08 6.53L15.79 10.80L17.07 16.83L22.64 18.59ZM40.64 29.90L39.37 23.87L33.79 22.11L29.49 26.38L30.77 32.41L36.34 34.17ZM30.77 32.41L29.49 26.38L23.92 24.62L19.62 28.89L20.90 34.92L26.47 36.68ZM45.26 76.36L43.99 70.33L38.42 68.57L34.13 72.83L35.40 78.86L40.97 80.62ZM48.29 66.07L47.01 60.05L41.44 58.28L37.15 62.55L38.42 68.57L43.99 70.33ZM28.56 71.07L27.29 65.05L21.72 63.29L17.43 67.55L18.71 73.57L24.27 75.33ZM18.71 73.57L17.43 67.55L11.86 65.79L7.58 70.06L8.85 76.08L14.42 77.84ZM31.58 60.78L30.30 54.76L24.73 53.00L20.44 57.26L21.72 63.29L27.29 65.05ZM21.72 63.29L20.44 57.26L14.87 55.51L10.58 59.77L11.86 65.79L17.43 67.55ZM35.40 78.86L34.13 72.83L28.56 71.07L24.27 75.33L25.55 81.35L31.11 83.12ZM25.55 81.35L24.27 75.33L18.71 73.57L14.42 77.84L15.70 83.86L21.26 85.61ZM38.42 68.57L37.15 62.55L31.58 60.78L27.29 65.05L28.56 71.07L34.13 72.83ZM1.18 39.95L-0.10 33.92L-5.67 32.17L-9.96 36.44L-8.68 42.46L-3.11 44.21ZM2.01 68.30L0.73 62.28L-4.83 60.53L-9.12 64.79L-7.84 70.81L-2.27 72.57ZM5.02 58.01L3.74 51.99L-1.83 50.24L-6.12 54.51L-4.83 60.53L0.73 62.28ZM8.85 76.08L7.58 70.06L2.01 68.30L-2.27 72.57L-0.99 78.58L4.57 80.34ZM11.86 65.79L10.58 59.77L5.02 58.01L0.73 62.28L2.01 68.30L7.58 70.06ZM3.35 1.26L2.07 -4.77L-3.50 -6.52L-7.80 -2.24L-6.51 3.79L-0.94 5.54ZM7.20 19.35L5.92 13.32L0.34 11.57L-3.95 15.84L-2.67 21.87L2.91 23.62ZM10.21 9.05L8.93 3.02L3.35 1.26L-0.94 5.54L0.34 11.57L5.92 13.32ZM0.34 11.57L-0.94 5.54L-6.51 3.79L-10.80 8.06L-9.52 14.09L-3.95 15.84ZM14.05 27.13L12.77 21.11L7.20 19.35L2.91 23.62L4.19 29.65L9.76 31.40ZM4.19 29.65L2.91 23.62L-2.67 21.87L-6.96 26.14L-5.67 32.17L-0.10 33.92ZM17.07 16.83L15.79 10.80L10.21 9.05L5.92 13.32L7.20 19.35L12.77 21.11ZM23.10 -3.78L21.82 -9.81L16.24 -11.57L11.94 -7.29L13.23 -1.26L18.80 0.50ZM13.23 -1.26L11.94 -7.29L6.37 -9.05L2.07 -4.77L3.35 1.26L8.93 3.02ZM29.96 4.01L28.68 -2.02L23.10 -3.78L18.80 0.50L20.08 6.53L25.66 8.29ZM20.08 6.53L18.80 0.50L13.23 -1.26L8.93 3.02L10.21 9.05L15.79 10.80ZM23.35 119.96L22.08 113.94L16.52 112.18L12.23 116.44L13.51 122.45L19.07 124.21ZM13.51 122.45L12.23 116.44L6.68 114.68L2.40 118.94L3.67 124.95L9.23 126.71ZM26.36 109.69L25.09 103.67L19.52 101.91L15.24 106.17L16.52 112.18L22.08 113.94ZM16.52 112.18L15.24 106.17L9.68 104.41L5.40 108.67L6.68 114.68L12.23 116.44ZM30.18 127.74L28.91 121.72L23.35 119.96L19.07 124.21L20.34 130.23L25.90 131.99ZM20.34 130.23L19.07 124.21L13.51 122.45L9.23 126.71L10.51 132.72L16.06 134.48ZM33.19 117.47L31.92 111.45L26.36 109.69L22.08 113.94L23.35 119.96L28.91 121.72ZM3.67 124.95L2.40 118.94L-3.16 117.18L-7.44 121.44L-6.16 127.45L-0.60 129.20ZM6.68 114.68L5.40 108.67L-0.16 106.91L-4.44 111.17L-3.16 117.18L2.40 118.94ZM39.23 96.92L37.95 90.90L32.39 89.14L28.10 93.39L29.37 99.41L34.94 101.18ZM29.37 99.41L28.10 93.39L22.54 91.63L18.25 95.89L19.52 101.91L25.09 103.67ZM42.24 86.64L40.97 80.62L35.40 78.86L31.11 83.12L32.39 89.14L37.95 90.90ZM32.39 89.14L31.11 83.12L25.55 81.35L21.26 85.61L22.54 91.63L28.10 93.39ZM46.06 104.70L44.79 98.68L39.23 96.92L34.94 101.18L36.21 107.20L41.77 108.96ZM36.21 107.20L34.94 101.18L29.37 99.41L25.09 103.67L26.36 109.69L31.92 111.45ZM49.08 94.43L47.81 88.41L42.24 86.64L37.95 90.90L39.23 96.92L44.79 98.68ZM12.69 94.13L11.41 88.12L5.85 86.36L1.56 90.62L2.84 96.64L8.40 98.39ZM2.84 96.64L1.56 90.62L-4.00 88.86L-8.28 93.13L-7.00 99.14L-1.44 100.90ZM15.70 83.86L14.42 77.84L8.85 76.08L4.57 80.34L5.85 86.36L11.41 88.12ZM5.85 86.36L4.57 80.34L-0.99 78.58L-5.28 82.85L-4.00 88.86L1.56 90.62ZM19.52 101.91L18.25 95.89L12.69 94.13L8.40 98.39L9.68 104.41L15.24 106.17ZM9.68 104.41L8.40 98.39L2.84 96.64L-1.44 100.90L-0.16 106.91L5.40 108.67ZM22.54 91.63L21.26 85.61L15.70 83.86L11.41 88.12L12.69 94.13L18.25 95.89ZM34.00 145.78L32.73 139.76L27.17 138.00L22.89 142.25L24.16 148.26L29.72 150.03ZM24.16 148.26L22.89 142.25L17.34 140.49L13.06 144.74L14.33 150.75L19.88 152.51ZM37.01 135.51L35.74 129.50L30.18 127.74L25.90 131.99L27.17 138.00L32.73 139.76ZM27.17 138.00L25.90 131.99L20.34 130.23L16.06 134.48L17.34 140.49L22.89 142.25ZM30.99 156.04L29.72 150.03L24.16 148.26L19.88 152.51L21.16 158.52L26.71 160.28ZM7.50 142.98L6.23 136.97L0.67 135.21L-3.60 139.47L-2.33 145.48L3.23 147.23ZM10.51 132.72L9.23 126.71L3.67 124.95L-0.60 129.20L0.67 135.21L6.23 136.97ZM0.67 135.21L-0.60 129.20L-6.16 127.45L-10.43 131.70L-9.16 137.71L-3.60 139.47ZM14.33 150.75L13.06 144.74L7.50 142.98L3.23 147.23L4.50 153.24L10.05 155.00ZM4.50 153.24L3.23 147.23L-2.33 145.48L-6.60 149.73L-5.32 155.73L0.23 157.49ZM17.34 140.49L16.06 134.48L10.51 132.72L6.23 136.97L7.50 142.98L13.06 144.74ZM43.04 114.98L41.77 108.96L36.21 107.20L31.92 111.45L33.19 117.47L38.75 119.23ZM37.82 163.81L36.54 157.80L30.99 156.04L26.71 160.28L27.98 166.29L33.53 168.06ZM0.17 230.23L-1.10 224.24L-6.64 222.48L-10.91 226.72L-9.63 232.71L-4.09 234.47ZM6.98 237.99L5.71 231.99L0.17 230.23L-4.09 234.47L-2.82 240.46L2.72 242.22ZM1.00 258.44L-0.27 252.45L-5.81 250.69L-10.07 254.92L-8.79 260.92L-3.26 262.67ZM2.33 191.76L1.06 185.76L-4.49 184.00L-8.75 188.24L-7.48 194.24L-1.93 196.00ZM5.33 181.51L4.06 175.51L-1.49 173.75L-5.76 178.00L-4.49 184.00L1.06 185.76ZM9.15 199.52L7.88 193.52L2.33 191.76L-1.93 196.00L-0.66 202.00L4.88 203.76ZM12.15 189.28L10.88 183.27L5.33 181.51L1.06 185.76L2.33 191.76L7.88 193.52ZM18.15 168.78L16.88 162.77L11.33 161.01L7.05 165.26L8.33 171.26L13.88 173.02ZM8.33 171.26L7.05 165.26L1.50 163.50L-2.77 167.75L-1.49 173.75L4.06 175.51ZM21.16 158.52L19.88 152.51L14.33 150.75L10.05 155.00L11.33 161.01L16.88 162.77ZM11.33 161.01L10.05 155.00L4.50 153.24L0.23 157.49L1.50 163.50L7.05 165.26ZM24.98 176.55L23.70 170.54L18.15 168.78L13.88 173.02L15.15 179.03L20.70 180.79ZM15.15 179.03L13.88 173.02L8.33 171.26L4.06 175.51L5.33 181.51L10.88 183.27ZM27.98 166.29L26.71 160.28L21.16 158.52L16.88 162.77L18.15 168.78L23.70 170.54ZM1.50 163.50L0.23 157.49L-5.32 155.73L-9.59 159.98L-8.32 165.99L-2.77 167.75ZM12.97 217.52L11.70 211.52L6.16 209.76L1.89 214.00L3.16 220.00L8.70 221.76ZM3.16 220.00L1.89 214.00L-3.65 212.24L-7.92 216.48L-6.64 222.48L-1.10 224.24ZM6.16 209.76L4.88 203.76L-0.66 202.00L-4.93 206.24L-3.65 212.24L1.89 214.00ZM9.98 227.76L8.70 221.76L3.16 220.00L-1.10 224.24L0.17 230.23L5.71 231.99ZM18.97 197.04L17.70 191.04L12.15 189.28L7.88 193.52L9.15 199.52L14.70 201.28ZM21.97 186.79L20.70 180.79L15.15 179.03L10.88 183.27L12.15 189.28L17.70 191.04Z"/></svg>
