<svg xmlns="http://www.w3.org/2000/svg" width="256" height="256" viewBox="0 0 256 256"><path data-band="1" fill="#fde68a" fill-opacity="0.35" d="M2.47 19.65L1.21 13.69L-4.28 11.93L-8.51 16.11L-7.25 22.06L-1.76 23.83ZM1.47 207.35L0.22 201.43L-5.24 199.66L-9.45 203.81L-8.19 209.73L-2.73 211.50ZM2.79 141.53L1.53 135.60L-3.94 133.83L-8.15 137.99L-6.89 143.92L-1.42 145.69ZM8.70 121.33L7.45 115.39L1.97 113.62L-2.24 117.79L-0.99 123.73L4.49 125.50ZM11.66 111.23L10.41 105.29L4.93 103.52L0.71 107.69L1.97 113.62L7.45 115.39ZM1.97 113.62L0.71 107.69L-4.76 105.92L-8.98 110.09L-7.72 116.02L-2.24 117.79ZM15.44 129.04L14.18 123.10L8.70 121.33L4.49 125.50L5.75 131.43L11.22 133.20ZM5.75 131.43L4.49 125.50L-0.99 123.73L-5.20 127.89L-3.94 133.83L1.53 135.60ZM18.40 118.94L17.14 113.00L11.66 111.23L7.45 115.39L8.70 121.33L14.18 123.10ZM3.61 169.41L2.35 163.48L-3.12 161.71L-7.33 165.87L-6.07 171.80L-0.60 173.57ZM6.56 159.32L5.30 153.39L-0.17 151.62L-4.38 155.78L-3.12 161.71L2.35 163.48ZM10.33 177.11L9.07 171.18L3.61 169.41L-0.60 173.57L0.65 179.50L6.12 181.27ZM0.65 179.50L-0.60 173.57L-6.07 171.80L-10.27 175.96L-9.02 181.88L-3.55 183.65ZM13.29 167.03L12.03 161.10L6.56 159.32L2.35 163.48L3.61 169.41L9.07 171.18ZM19.20 146.84L17.95 140.91L12.48 139.14L8.26 143.30L9.52 149.23L14.99 151.00ZM9.52 149.23L8.26 143.30L2.79 141.53L-1.42 145.69L-0.17 151.62L5.30 153.39ZM22.17 136.75L20.91 130.81L15.44 129.04L11.22 133.20L12.48 139.14L17.95 140.91ZM12.48 139.14L11.22 133.20L5.75 131.43L1.53 135.60L2.79 141.53L8.26 143.30ZM25.93 154.55L24.68 148.62L19.20 146.84L14.99 151.00L16.24 156.94L21.71 158.71ZM16.24 156.94L14.99 151.00L9.52 149.23L5.30 153.39L6.56 159.32L12.03 161.10ZM14.09 194.90L12.84 188.97L7.38 187.20L3.17 191.35L4.42 197.27L9.89 199.05ZM4.42 197.27L3.17 191.35L-2.30 189.58L-6.50 193.73L-5.24 199.66L0.22 201.43ZM7.38 187.20L6.12 181.27L0.65 179.50L-3.55 183.65L-2.30 189.58L3.17 191.35ZM22.97 164.64L21.71 158.71L16.24 156.94L12.03 161.10L13.29 167.03L18.75 168.80ZM45.93 55.85L44.68 49.90L39.19 48.13L34.96 52.30L36.21 58.25L41.70 60.03ZM48.91 45.73L47.66 39.77L42.17 38.00L37.93 42.18L39.19 48.13L44.68 49.90ZM13.82 73.18L12.56 67.23L7.07 65.46L2.85 69.64L4.11 75.58L9.59 77.35ZM4.11 75.58L2.85 69.64L-2.63 67.87L-6.85 72.05L-5.59 77.99L-0.11 79.76ZM16.78 63.06L15.52 57.11L10.04 55.34L5.81 59.52L7.07 65.46L12.56 67.23ZM7.07 65.46L5.81 59.52L0.33 57.75L-3.89 61.93L-2.63 67.87L2.85 69.64ZM20.56 80.89L19.30 74.95L13.82 73.18L9.59 77.35L10.85 83.29L16.33 85.07ZM10.85 83.29L9.59 77.35L4.11 75.58L-0.11 79.76L1.15 85.70L6.63 87.47ZM23.53 70.78L22.27 64.83L16.78 63.06L12.56 67.23L13.82 73.18L19.30 74.95ZM29.47 50.53L28.21 44.58L22.72 42.81L18.49 46.99L19.75 52.93L25.24 54.71ZM19.75 52.93L18.49 46.99L13.01 45.22L8.78 49.39L10.04 55.34L15.52 57.11ZM32.44 40.40L31.19 34.45L25.69 32.68L21.46 36.86L22.72 42.81L28.21 44.58ZM22.72 42.81L21.46 36.86L15.97 35.09L11.74 39.27L13.01 45.22L18.49 46.99ZM36.21 58.25L34.96 52.30L29.47 50.53L25.24 54.71L26.50 60.65L31.98 62.43ZM26.50 60.65L25.24 54.71L19.75 52.93L15.52 57.11L16.78 63.06L22.27 64.83ZM39.19 48.13L37.93 42.18L32.44 40.40L28.21 44.58L29.47 50.53L34.96 52.30ZM3.29 47.62L2.03 41.68L-3.46 39.91L-7.68 44.09L-6.42 50.04L-0.93 51.80ZM6.26 37.50L5.00 31.55L-0.49 29.78L-4.72 33.96L-3.46 39.91L2.03 41.68ZM10.04 55.34L8.78 49.39L3.29 47.62L-0.93 51.80L0.33 57.75L5.81 59.52ZM0.33 57.75L-0.93 51.80L-6.42 50.04L-10.64 54.22L-9.38 60.16L-3.89 61.93ZM13.01 45.22L11.74 39.27L6.26 37.50L2.03 41.68L3.29 47.62L8.78 49.39ZM24.33 98.72L23.07 92.78L17.59 91.01L13.37 95.18L14.63 101.12L20.11 102.89ZM14.63 101.12L13.37 95.18L7.89 93.41L3.67 97.58L4.93 103.52L10.41 105.29ZM27.30 88.61L26.04 82.67L20.56 80.89L16.33 85.07L17.59 91.01L23.07 92.78ZM17.59 91.01L16.33 85.07L10.85 83.29L6.63 87.47L7.89 93.41L13.37 95.18ZM31.06 106.44L29.81 100.50L24.33 98.72L20.11 102.89L21.36 108.83L26.84 110.61ZM21.36 108.83L20.11 102.89L14.63 101.12L10.41 105.29L11.66 111.23L17.14 113.00ZM34.03 96.33L32.78 90.38L27.30 88.61L23.07 92.78L24.33 98.72L29.81 100.50ZM1.15 85.70L-0.11 79.76L-5.59 77.99L-9.81 82.16L-8.55 88.10L-3.07 89.87ZM4.93 103.52L3.67 97.58L-1.81 95.81L-6.02 99.98L-4.76 105.92L0.71 107.69ZM7.89 93.41L6.63 87.47L1.15 85.70L-3.07 89.87L-1.81 95.81L3.67 97.58ZM39.98 76.10L38.72 70.15L33.24 68.38L29.01 72.55L30.27 78.49L35.75 80.27ZM30.27 78.49L29.01 72.55L23.53 70.78L19.30 74.95L20.56 80.89L26.04 82.67ZM42.96 65.98L41.70 60.03L36.21 58.25L31.98 62.43L33.24 68.38L38.72 70.15ZM33.24 68.38L31.98 62.43L26.50 60.65L22.27 64.83L23.53 70.78L29.01 72.55ZM37.01 86.22L35.75 80.27L30.27 78.49L26.04 82.67L27.30 88.61L32.78 90.38ZM49.70 73.70L48.44 67.75L42.96 65.98L38.72 70.15L39.98 76.10L45.47 77.87ZM34.62 2.27L33.36 -3.69L27.87 -5.46L23.63 -1.28L24.89 4.68L30.39 6.45ZM24.89 4.68L23.63 -1.28L18.14 -3.05L13.90 1.14L15.16 7.09L20.66 8.86ZM41.38 10.00L40.12 4.04L34.62 2.27L30.39 6.45L31.64 12.41L37.14 14.18ZM31.64 12.41L30.39 6.45L24.89 4.68L20.66 8.86L21.92 14.82L27.41 16.59ZM44.36 -0.14L43.10 -6.10L37.60 -7.88L33.36 -3.69L34.62 2.27L40.12 4.04ZM8.41 -0.63L7.14 -6.59L1.65 -8.35L-2.58 -4.16L-1.32 1.79L4.18 3.56ZM15.16 7.09L13.90 1.14L8.41 -0.63L4.18 3.56L5.44 9.51L10.93 11.28ZM5.44 9.51L4.18 3.56L-1.32 1.79L-5.55 5.98L-4.28 11.93L1.21 13.69ZM18.14 -3.05L16.87 -9.01L11.38 -10.77L7.14 -6.59L8.41 -0.63L13.90 1.14ZM45.15 27.87L43.89 21.91L38.40 20.14L34.16 24.32L35.42 30.27L40.91 32.04ZM35.42 30.27L34.16 24.32L28.67 22.54L24.44 26.72L25.69 32.68L31.19 34.45ZM48.13 17.73L46.87 11.77L41.38 10.00L37.14 14.18L38.40 20.14L43.89 21.91ZM38.40 20.14L37.14 14.18L31.64 12.41L27.41 16.59L28.67 22.54L34.16 24.32ZM42.17 38.00L40.91 32.04L35.42 30.27L31.19 34.45L32.44 40.40L37.93 42.18ZM54.88 25.46L53.62 19.51L48.13 17.73L43.89 21.91L45.15 27.87L50.64 29.64ZM18.94 24.95L17.68 19.00L12.19 17.23L7.96 21.41L9.22 27.37L14.71 29.14ZM9.22 27.37L7.96 21.41L2.47 19.65L-1.76 23.83L-0.49 29.78L5.00 31.55ZM21.92 14.82L20.66 8.86L15.16 7.09L10.93 11.28L12.19 17.23L17.68 19.00ZM12.19 17.23L10.93 11.28L5.44 9.51L1.21 13.69L2.47 19.65L7.96 21.41ZM25.69 32.68L24.44 26.72L18.94 24.95L14.71 29.14L15.97 35.09L21.46 36.86ZM15.97 35.09L14.71 29.14L9.22 27.37L5.00 31.55L6.26 37.50L11.74 39.27ZM28.67 22.54L27.41 16.59L21.92 14.82L17.68 19.00L18.94 24.95L24.44 26.72ZM60.85 5.18L59.60 -0.78L54.10 -2.55L49.86 1.63L51.11 7.59L56.61 9.37ZM51.11 7.59L49.86 1.63L44.36 -0.14L40.12 4.04L41.38 10.00L46.87 11.77ZM54.10 -2.55L52.84 -8.51L47.34 -10.29L43.10 -6.10L44.36 -0.14L49.86 1.63ZM57.87 15.33L56.61 9.37L51.11 7.59L46.87 11.77L48.13 17.73L53.62 19.51ZM25.13 126.65L23.87 120.71L18.40 118.94L14.18 123.10L15.44 129.04L20.91 130.81ZM37.80 114.16L36.54 108.21L31.06 106.44L26.84 110.61L28.10 116.55L33.57 118.32ZM28.10 116.55L26.84 110.61L21.36 108.83L17.14 113.00L18.40 118.94L23.87 120.71Z"/></svg>
