<svg xmlns="http://www.w3.org/2000/svg" width="256" height="256" viewBox="0 0 256 256"><path data-band="1" fill="#fde68a" fill-opacity="0.35" d="M192.26 106.02L189.40 94.34L178.60 91.27L170.67 99.87L173.53 111.54L184.33 114.61ZM197.34 85.75L194.48 74.07L183.68 71.00L175.74 79.60L178.60 91.27L189.40 94.34ZM246.85 165.02L244.00 153.35L233.21 150.26L225.27 158.85L228.12 170.51L238.91 173.60ZM228.12 170.51L225.27 158.85L214.48 155.77L206.55 164.35L209.40 176.01L220.19 179.10ZM62.79 69.28L59.91 57.62L49.12 54.57L41.22 63.18L44.10 74.84L54.88 77.89ZM76.45 83.99L73.57 72.33L62.79 69.28L54.88 77.89L57.76 89.54L68.54 92.59ZM81.48 63.72L78.60 52.06L67.82 49.01L59.91 57.62L62.79 69.28L73.57 72.33ZM173.53 111.54L170.67 99.87L159.88 96.80L151.95 105.40L154.82 117.07L165.61 120.13ZM178.60 91.27L175.74 79.60L164.95 76.53L157.02 85.13L159.88 96.80L170.67 99.87ZM153.29 192.54L150.43 180.88L139.65 177.81L131.74 186.40L134.60 198.05L145.38 201.12ZM134.60 198.05L131.74 186.40L120.97 183.33L113.06 191.92L115.93 203.57L126.70 206.63ZM158.35 172.30L155.49 160.64L144.70 157.57L136.79 166.16L139.65 177.81L150.43 180.88ZM166.93 207.26L164.07 195.61L153.29 192.54L145.38 201.12L148.24 212.77L159.01 215.84ZM148.24 212.77L145.38 201.12L134.60 198.05L126.70 206.63L129.56 218.28L140.33 221.34ZM171.99 187.02L169.13 175.37L158.35 172.30L150.43 180.88L153.29 192.54L164.07 195.61ZM83.62 194.38L80.75 182.74L69.98 179.68L62.09 188.27L64.96 199.91L75.72 202.97ZM115.93 203.57L113.06 191.92L102.29 188.86L94.39 197.44L97.26 209.09L108.02 212.15ZM97.26 209.09L94.39 197.44L83.62 194.38L75.72 202.97L78.59 214.61L89.36 217.67ZM195.76 161.27L192.90 149.61L182.12 146.53L174.19 155.12L177.05 166.78L187.83 169.86ZM177.05 166.78L174.19 155.12L163.41 152.05L155.49 160.64L158.35 172.30L169.13 175.37ZM14.03 196.30L11.15 184.67L0.39 181.63L-7.49 190.22L-4.61 201.85L6.15 204.89ZM19.03 176.08L16.15 164.44L5.39 161.40L-2.49 169.99L0.39 181.63L11.15 184.67ZM42.70 150.29L39.82 138.65L29.05 135.60L21.16 144.20L24.04 155.84L34.80 158.89ZM27.66 210.98L24.79 199.35L14.03 196.30L6.15 204.89L9.03 216.52L19.78 219.57ZM36.29 245.88L33.41 234.25L22.66 231.20L14.78 239.78L17.66 251.41L28.41 254.45ZM41.30 225.66L38.42 214.03L27.66 210.98L19.78 219.57L22.66 231.20L33.41 234.25ZM32.67 190.76L29.79 179.12L19.03 176.08L11.15 184.67L14.03 196.30L24.79 199.35ZM56.34 164.99L53.47 153.34L42.70 150.29L34.80 158.89L37.68 170.53L48.45 173.58ZM37.68 170.53L34.80 158.89L24.04 155.84L16.15 164.44L19.03 176.08L29.79 179.12ZM64.96 199.91L62.09 188.27L51.32 185.22L43.43 193.81L46.31 205.45L57.07 208.50ZM188.75 50.72L185.89 39.04L175.09 35.97L167.15 44.58L170.01 56.25L180.81 59.32ZM170.01 56.25L167.15 44.58L156.35 41.51L148.42 50.12L151.28 61.79L162.08 64.86ZM183.68 71.00L180.81 59.32L170.01 56.25L162.08 64.86L164.95 76.53L175.74 79.60ZM156.35 41.51L153.48 29.84L142.68 26.77L134.75 35.39L137.62 47.06L148.42 50.12ZM217.68 4.59L214.82 -7.09L204.00 -10.17L196.05 -1.55L198.92 10.13L209.73 13.21ZM198.92 10.13L196.05 -1.55L185.24 -4.62L177.30 3.99L180.16 15.68L190.97 18.75ZM226.51 245.96L223.66 234.31L212.89 231.23L204.96 239.80L207.81 251.45L218.59 254.53ZM207.81 251.45L204.96 239.80L194.19 236.72L186.27 245.29L189.12 256.94L199.89 260.02ZM231.59 225.74L228.74 214.08L217.96 211.00L210.03 219.57L212.89 231.23L223.66 234.31ZM212.89 231.23L210.03 219.57L199.26 216.49L191.33 225.06L194.19 236.72L204.96 239.80ZM240.14 260.71L237.29 249.05L226.51 245.96L218.59 254.53L221.44 266.18L232.21 269.27ZM221.44 266.18L218.59 254.53L207.81 251.45L199.89 260.02L202.75 271.67L213.52 274.75ZM245.22 240.48L242.37 228.83L231.59 225.74L223.66 234.31L226.51 245.96L237.29 249.05ZM175.50 242.21L172.64 230.56L161.87 227.49L153.96 236.06L156.82 247.71L167.58 250.78ZM156.82 247.71L153.96 236.06L143.19 232.99L135.28 241.57L138.14 253.21L148.91 256.28ZM180.56 221.99L177.70 210.33L166.93 207.26L159.01 215.84L161.87 227.49L172.64 230.56ZM161.87 227.49L159.01 215.84L148.24 212.77L140.33 221.34L143.19 232.99L153.96 236.06ZM189.12 256.94L186.27 245.29L175.50 242.21L167.58 250.78L170.44 262.43L181.21 265.50ZM170.44 262.43L167.58 250.78L156.82 247.71L148.91 256.28L151.77 267.92L162.53 270.99ZM194.19 236.72L191.33 225.06L180.56 221.99L172.64 230.56L175.50 242.21L186.27 245.29ZM255.40 200.02L252.55 188.35L241.76 185.26L233.83 193.84L236.68 205.50L247.46 208.59ZM236.68 205.50L233.83 193.84L223.04 190.76L215.11 199.34L217.96 211.00L228.74 214.08ZM260.49 179.77L257.64 168.10L246.85 165.02L238.91 173.60L241.76 185.26L252.55 188.35ZM241.76 185.26L238.91 173.60L228.12 170.51L220.19 179.10L223.04 190.76L233.83 193.84ZM269.03 214.77L266.19 203.11L255.40 200.02L247.46 208.59L250.31 220.25L261.09 223.35ZM250.31 220.25L247.46 208.59L236.68 205.50L228.74 214.08L231.59 225.74L242.37 228.83ZM274.13 194.53L271.28 182.86L260.49 179.77L252.55 188.35L255.40 200.02L266.19 203.11ZM204.33 196.26L201.47 184.60L190.69 181.52L182.77 190.10L185.62 201.76L196.40 204.83ZM185.62 201.76L182.77 190.10L171.99 187.02L164.07 195.61L166.93 207.26L177.70 210.33ZM209.40 176.01L206.55 164.35L195.76 161.27L187.83 169.86L190.69 181.52L201.47 184.60ZM190.69 181.52L187.83 169.86L177.05 166.78L169.13 175.37L171.99 187.02L182.77 190.10ZM217.96 211.00L215.11 199.34L204.33 196.26L196.40 204.83L199.26 216.49L210.03 219.57ZM199.26 216.49L196.40 204.83L185.62 201.76L177.70 210.33L180.56 221.99L191.33 225.06ZM223.04 190.76L220.19 179.10L209.40 176.01L201.47 184.60L204.33 196.26L215.11 199.34ZM258.85 255.23L256.00 243.57L245.22 240.48L237.29 249.05L240.14 260.71L250.91 263.80ZM263.94 235.01L261.09 223.35L250.31 220.25L242.37 228.83L245.22 240.48L256.00 243.57ZM272.47 269.98L269.62 258.33L258.85 255.23L250.91 263.80L253.76 275.45L264.53 278.54ZM100.82 264.22L97.96 252.58L87.20 249.52L79.31 258.10L82.18 269.73L92.93 272.79ZM82.18 269.73L79.31 258.10L68.55 255.04L60.67 263.61L63.54 275.24L74.29 278.30ZM49.91 260.56L47.04 248.93L36.29 245.88L28.41 254.45L31.28 266.08L42.03 269.13ZM31.28 266.08L28.41 254.45L17.66 251.41L9.79 259.98L12.66 271.61L23.41 274.66ZM124.52 238.50L121.65 226.85L110.89 223.79L102.99 232.37L105.85 244.01L116.62 247.07ZM105.85 244.01L102.99 232.37L92.23 229.31L84.33 237.88L87.20 249.52L97.96 252.58ZM129.56 218.28L126.70 206.63L115.93 203.57L108.02 212.15L110.89 223.79L121.65 226.85ZM110.89 223.79L108.02 212.15L97.26 209.09L89.36 217.67L92.23 229.31L102.99 232.37ZM138.14 253.21L135.28 241.57L124.52 238.50L116.62 247.07L119.48 258.71L130.24 261.78ZM119.48 258.71L116.62 247.07L105.85 244.01L97.96 252.58L100.82 264.22L111.58 267.28ZM143.19 232.99L140.33 221.34L129.56 218.28L121.65 226.85L124.52 238.50L135.28 241.57ZM73.57 234.83L70.70 223.19L59.94 220.14L52.05 228.72L54.93 240.35L65.68 243.40ZM54.93 240.35L52.05 228.72L41.30 225.66L33.41 234.25L36.29 245.88L47.04 248.93ZM78.59 214.61L75.72 202.97L64.96 199.91L57.07 208.50L59.94 220.14L70.70 223.19ZM59.94 220.14L57.07 208.50L46.31 205.45L38.42 214.03L41.30 225.66L52.05 228.72ZM87.20 249.52L84.33 237.88L73.57 234.83L65.68 243.40L68.55 255.04L79.31 258.10ZM68.55 255.04L65.68 243.40L54.93 240.35L47.04 248.93L49.91 260.56L60.67 263.61ZM92.23 229.31L89.36 217.67L78.59 214.61L70.70 223.19L73.57 234.83L84.33 237.88ZM151.77 267.92L148.91 256.28L138.14 253.21L130.24 261.78L133.10 273.42L143.86 276.49Z"/></svg>
