<svg xmlns="http://www.w3.org/2000/svg" width="256" height="256" viewBox="0 0 256 256"><path data-band="1" fill="#fde68a" fill-opacity="0.35" d="M26.62 2.95L23.77 -8.60L13.10 -11.66L5.29 -3.18L8.14 8.37L18.81 11.44ZM85.67 41.44L82.82 29.88L72.15 26.80L64.33 35.28L67.18 46.83L77.84 49.91ZM67.18 46.83L64.33 35.28L53.66 32.20L45.84 40.67L48.69 52.22L59.36 55.30ZM90.65 21.41L87.81 9.85L77.13 6.77L69.31 15.25L72.15 26.80L82.82 29.88ZM99.18 56.07L96.34 44.52L85.67 41.44L77.84 49.91L80.69 61.46L91.35 64.54ZM80.69 61.46L77.84 49.91L67.18 46.83L59.36 55.30L62.20 66.85L72.87 69.92ZM104.17 36.05L101.33 24.49L90.65 21.41L82.82 29.88L85.67 41.44L96.34 44.52ZM48.69 52.22L45.84 40.67L35.18 37.60L27.37 46.08L30.22 57.62L40.88 60.69ZM127.68 10.63L124.84 -0.94L114.16 -4.02L106.32 4.45L109.16 16.01L119.84 19.10ZM109.16 16.01L106.32 4.45L95.64 1.37L87.81 9.85L90.65 21.41L101.33 24.49ZM63.61 -7.86L60.76 -19.42L50.09 -22.50L42.26 -14.01L45.11 -2.46L55.79 0.62ZM45.11 -2.46L42.26 -14.01L31.59 -17.08L23.77 -8.60L26.62 2.95L37.29 6.02ZM107.70 90.72L104.86 79.17L94.20 76.09L86.37 84.55L89.21 96.10L99.88 99.19ZM112.69 70.71L109.85 59.16L99.18 56.07L91.35 64.54L94.20 76.09L104.86 79.17ZM94.20 76.09L91.35 64.54L80.69 61.46L72.87 69.92L75.71 81.47L86.37 84.55ZM62.20 66.85L59.36 55.30L48.69 52.22L40.88 60.69L43.72 72.24L54.39 75.31ZM75.71 81.47L72.87 69.92L62.20 66.85L54.39 75.31L57.23 86.86L67.89 89.94ZM117.68 50.69L114.84 39.13L104.17 36.05L96.34 44.52L99.18 56.07L109.85 59.16ZM122.68 30.66L119.84 19.10L109.16 16.01L101.33 24.49L104.17 36.05L114.84 39.13ZM154.71 39.93L151.88 28.37L141.20 25.28L133.35 33.75L136.19 45.31L146.87 48.40ZM173.65 238.52L170.82 226.99L160.17 223.88L152.35 232.32L155.18 243.85L165.82 246.95ZM192.13 233.20L189.31 221.66L178.65 218.55L170.82 226.99L173.65 238.52L184.30 241.63ZM129.71 140.00L126.87 128.46L116.21 125.37L108.39 133.82L111.23 145.36L121.88 148.45ZM111.23 145.36L108.39 133.82L97.73 130.73L89.91 139.19L92.75 150.72L103.41 153.81ZM116.21 125.37L113.38 113.82L102.71 110.73L94.89 119.19L97.73 130.73L108.39 133.82ZM133.21 194.61L130.38 183.07L119.73 179.98L111.91 188.42L114.75 199.96L125.39 203.05ZM79.26 136.10L76.42 124.56L65.76 121.48L57.95 129.94L60.79 141.47L71.45 144.55ZM97.73 130.73L94.89 119.19L84.23 116.10L76.42 124.56L79.26 136.10L89.91 139.19ZM168.22 54.59L165.39 43.03L154.71 39.93L146.87 48.40L149.70 59.96L160.38 63.06Z"/><path data-band="2" fill="#f97316" fill-opacity="0.35" d="M8.14 8.37L5.29 -3.18L-5.38 -6.24L-13.19 2.24L-10.33 13.79L0.33 16.85ZM72.15 26.80L69.31 15.25L58.64 12.17L50.81 20.65L53.66 32.20L64.33 35.28ZM35.18 37.60L32.33 26.05L21.66 22.98L13.85 31.46L16.70 43.01L27.37 46.08ZM16.70 43.01L13.85 31.46L3.19 28.39L-4.62 36.87L-1.76 48.41L8.90 51.48ZM40.14 17.58L37.29 6.02L26.62 2.95L18.81 11.44L21.66 22.98L32.33 26.05ZM21.66 22.98L18.81 11.44L8.14 8.37L0.33 16.85L3.19 28.39L13.85 31.46ZM30.22 57.62L27.37 46.08L16.70 43.01L8.90 51.48L11.75 63.02L22.41 66.09ZM53.66 32.20L50.81 20.65L40.14 17.58L32.33 26.05L35.18 37.60L45.84 40.67ZM114.16 -4.02L111.31 -15.59L100.63 -18.67L92.80 -10.19L95.64 1.37L106.32 4.45ZM95.64 1.37L92.80 -10.19L82.12 -13.27L74.29 -4.79L77.13 6.77L87.81 9.85ZM77.13 6.77L74.29 -4.79L63.61 -7.86L55.79 0.62L58.64 12.17L69.31 15.25ZM58.64 12.17L55.79 0.62L45.11 -2.46L37.29 6.02L40.14 17.58L50.81 20.65ZM89.21 96.10L86.37 84.55L75.71 81.47L67.89 89.94L70.73 101.48L81.39 104.56ZM121.20 105.36L118.37 93.81L107.70 90.72L99.88 99.19L102.71 110.73L113.38 113.82ZM102.71 110.73L99.88 99.19L89.21 96.10L81.39 104.56L84.23 116.10L94.89 119.19ZM126.20 85.35L123.36 73.80L112.69 70.71L104.86 79.17L107.70 90.72L118.37 93.81ZM57.23 86.86L54.39 75.31L43.72 72.24L35.91 80.70L38.76 92.25L49.42 95.32ZM38.76 92.25L35.91 80.70L25.26 77.63L17.45 86.10L20.30 97.64L30.95 100.71ZM43.72 72.24L40.88 60.69L30.22 57.62L22.41 66.09L25.26 77.63L35.91 80.70ZM70.73 101.48L67.89 89.94L57.23 86.86L49.42 95.32L52.26 106.86L62.92 109.94ZM52.26 106.86L49.42 95.32L38.76 92.25L30.95 100.71L33.80 112.25L44.45 115.32ZM136.19 45.31L133.35 33.75L122.68 30.66L114.84 39.13L117.68 50.69L128.36 53.78ZM141.20 25.28L138.36 13.71L127.68 10.63L119.84 19.10L122.68 30.66L133.35 33.75ZM149.70 59.96L146.87 48.40L136.19 45.31L128.36 53.78L131.19 65.33L141.86 68.43ZM131.19 65.33L128.36 53.78L117.68 50.69L109.85 59.16L112.69 70.71L123.36 73.80ZM3.19 28.39L0.33 16.85L-10.33 13.79L-18.13 22.27L-15.28 33.81L-4.62 36.87ZM6.80 83.03L3.94 71.49L-6.71 68.43L-14.51 76.90L-11.66 88.43L-1.00 91.50ZM11.75 63.02L8.90 51.48L-1.76 48.41L-9.57 56.89L-6.71 68.43L3.94 71.49ZM20.30 97.64L17.45 86.10L6.80 83.03L-1.00 91.50L1.85 103.03L12.50 106.10ZM1.85 103.03L-1.00 91.50L-11.66 88.43L-19.45 96.90L-16.60 108.43L-5.95 111.50ZM25.26 77.63L22.41 66.09L11.75 63.02L3.94 71.49L6.80 83.03L17.45 86.10ZM150.19 263.81L147.36 252.28L136.72 249.18L128.90 257.61L131.73 269.14L142.37 272.24ZM131.73 269.14L128.90 257.61L118.26 254.51L110.45 262.94L113.28 274.47L123.92 277.56ZM99.81 259.85L96.98 248.33L86.34 245.24L78.54 253.67L81.38 265.19L92.01 268.28ZM81.38 265.19L78.54 253.67L67.91 250.58L60.11 259.02L62.95 270.53L73.58 273.62ZM155.18 243.85L152.35 232.32L141.70 229.22L133.89 237.65L136.72 249.18L147.36 252.28ZM178.65 218.55L175.83 207.01L165.17 203.91L157.35 212.35L160.17 223.88L170.82 226.99ZM160.17 223.88L157.35 212.35L146.70 209.25L138.87 217.68L141.70 229.22L152.35 232.32ZM187.12 253.16L184.30 241.63L173.65 238.52L165.82 246.95L168.65 258.48L179.30 261.59ZM168.65 258.48L165.82 246.95L155.18 243.85L147.36 252.28L150.19 263.81L160.83 266.91ZM123.24 234.55L120.41 223.02L109.77 219.93L101.96 228.37L104.79 239.89L115.43 242.99ZM104.79 239.89L101.96 228.37L91.31 225.28L83.51 233.71L86.34 245.24L96.98 248.33ZM128.23 214.59L125.39 203.05L114.75 199.96L106.93 208.40L109.77 219.93L120.41 223.02ZM109.77 219.93L106.93 208.40L96.29 205.31L88.48 213.75L91.31 225.28L101.96 228.37ZM136.72 249.18L133.89 237.65L123.24 234.55L115.43 242.99L118.26 254.51L128.90 257.61ZM118.26 254.51L115.43 242.99L104.79 239.89L96.98 248.33L99.81 259.85L110.45 262.94ZM141.70 229.22L138.87 217.68L128.23 214.59L120.41 223.02L123.24 234.55L133.89 237.65ZM200.59 267.81L197.77 256.27L187.12 253.16L179.30 261.59L182.12 273.12L192.76 276.23ZM49.48 255.93L46.64 244.41L36.00 241.33L28.21 249.77L31.06 261.28L41.69 264.37ZM31.06 261.28L28.21 249.77L17.58 246.69L9.80 255.13L12.64 266.64L23.27 269.72ZM62.95 270.53L60.11 259.02L49.48 255.93L41.69 264.37L44.52 275.88L55.15 278.96ZM12.64 266.64L9.80 255.13L-0.83 252.05L-8.61 260.49L-5.76 272.00L4.86 275.07ZM180.19 143.94L177.36 132.39L166.70 129.29L158.86 137.74L161.69 149.29L172.35 152.39ZM161.69 149.29L158.86 137.74L148.20 134.65L140.37 143.10L143.20 154.64L153.86 157.74ZM185.20 123.94L182.37 112.39L171.70 109.29L163.87 117.74L166.70 129.29L177.36 132.39ZM166.70 129.29L163.87 117.74L153.20 114.64L145.37 123.10L148.20 134.65L158.86 137.74ZM193.68 158.60L190.86 147.05L180.19 143.94L172.35 152.39L175.18 163.94L185.84 167.04ZM175.18 163.94L172.35 152.39L161.69 149.29L153.86 157.74L156.69 169.28L167.35 172.38ZM198.70 138.60L195.87 127.05L185.20 123.94L177.36 132.39L180.19 143.94L190.86 147.05ZM134.70 120.00L131.87 108.45L121.20 105.36L113.38 113.82L116.21 125.37L126.87 128.46ZM143.20 154.64L140.37 143.10L129.71 140.00L121.88 148.45L124.72 159.99L135.37 163.09ZM124.72 159.99L121.88 148.45L111.23 145.36L103.41 153.81L106.24 165.35L116.90 168.44ZM148.20 134.65L145.37 123.10L134.70 120.00L126.87 128.46L129.71 140.00L140.37 143.10ZM208.74 98.58L205.91 87.02L195.24 83.92L187.39 92.37L190.22 103.93L200.89 107.04ZM190.22 103.93L187.39 92.37L176.72 89.27L168.87 97.73L171.70 109.29L182.37 112.39ZM213.77 78.56L210.94 67.00L200.26 63.89L192.41 72.35L195.24 83.92L205.91 87.02ZM195.24 83.92L192.41 72.35L181.73 69.25L173.89 77.71L176.72 89.27L187.39 92.37ZM222.24 113.25L219.42 101.69L208.74 98.58L200.89 107.04L203.72 118.59L214.39 121.70ZM203.72 118.59L200.89 107.04L190.22 103.93L182.37 112.39L185.20 123.94L195.87 127.05ZM227.27 93.23L224.45 81.67L213.77 78.56L205.91 87.02L208.74 98.58L219.42 101.69ZM158.20 94.63L155.37 83.08L144.70 79.98L136.86 88.44L139.70 100.00L150.37 103.09ZM139.70 100.00L136.86 88.44L126.20 85.35L118.37 93.81L121.20 105.36L131.87 108.45ZM163.21 74.62L160.38 63.06L149.70 59.96L141.86 68.43L144.70 79.98L155.37 83.08ZM144.70 79.98L141.86 68.43L131.19 65.33L123.36 73.80L126.20 85.35L136.86 88.44ZM171.70 109.29L168.87 97.73L158.20 94.63L150.37 103.09L153.20 114.64L163.87 117.74ZM153.20 114.64L150.37 103.09L139.70 100.00L131.87 108.45L134.70 120.00L145.37 123.10ZM176.72 89.27L173.89 77.71L163.21 74.62L155.37 83.08L158.20 94.63L168.87 97.73ZM202.15 193.24L199.33 181.70L188.67 178.59L180.83 187.03L183.66 198.57L194.32 201.68ZM183.66 198.57L180.83 187.03L170.18 183.93L162.35 192.37L165.17 203.91L175.83 207.01ZM207.17 173.26L204.35 161.70L193.68 158.60L185.84 167.04L188.67 178.59L199.33 181.70ZM188.67 178.59L185.84 167.04L175.18 163.94L167.35 172.38L170.18 183.93L180.83 187.03ZM215.63 207.90L212.81 196.35L202.15 193.24L194.32 201.68L197.14 213.22L207.80 216.33ZM197.14 213.22L194.32 201.68L183.66 198.57L175.83 207.01L178.65 218.55L189.31 221.66ZM220.65 187.92L217.83 176.37L207.17 173.26L199.33 181.70L202.15 193.24L212.81 196.35ZM151.69 189.27L148.86 177.73L138.21 174.63L130.38 183.07L133.21 194.61L143.87 197.71ZM156.69 169.28L153.86 157.74L143.20 154.64L135.37 163.09L138.21 174.63L148.86 177.73ZM138.21 174.63L135.37 163.09L124.72 159.99L116.90 168.44L119.73 179.98L130.38 183.07ZM165.17 203.91L162.35 192.37L151.69 189.27L143.87 197.71L146.70 209.25L157.35 212.35ZM146.70 209.25L143.87 197.71L133.21 194.61L125.39 203.05L128.23 214.59L138.87 217.68ZM170.18 183.93L167.35 172.38L156.69 169.28L148.86 177.73L151.69 189.27L162.35 192.37ZM230.71 147.93L227.88 136.37L217.21 133.26L209.37 141.71L212.19 153.26L222.86 156.37ZM212.19 153.26L209.37 141.71L198.70 138.60L190.86 147.05L193.68 158.60L204.35 161.70ZM235.74 127.92L232.92 116.36L222.24 113.25L214.39 121.70L217.21 133.26L227.88 136.37ZM217.21 133.26L214.39 121.70L203.72 118.59L195.87 127.05L198.70 138.60L209.37 141.71ZM244.20 162.60L241.38 151.04L230.71 147.93L222.86 156.37L225.68 167.92L236.35 171.04ZM225.68 167.92L222.86 156.37L212.19 153.26L204.35 161.70L207.17 173.26L217.83 176.37ZM249.23 142.60L246.41 131.03L235.74 127.92L227.88 136.37L230.71 147.93L241.38 151.04ZM50.87 181.44L48.03 169.91L37.38 166.83L29.58 175.28L32.43 186.81L43.07 189.89ZM32.43 186.81L29.58 175.28L18.94 172.21L11.15 180.66L13.99 192.18L24.63 195.25ZM55.83 161.46L52.99 149.93L42.34 146.85L34.54 155.30L37.38 166.83L48.03 169.91ZM37.38 166.83L34.54 155.30L23.89 152.23L16.09 160.68L18.94 172.21L29.58 175.28ZM64.35 196.05L61.51 184.52L50.87 181.44L43.07 189.89L45.91 201.41L56.55 204.49ZM45.91 201.41L43.07 189.89L32.43 186.81L24.63 195.25L27.48 206.78L38.11 209.85ZM69.32 176.07L66.48 164.54L55.83 161.46L48.03 169.91L50.87 181.44L61.51 184.52ZM0.51 177.58L-2.34 166.06L-12.98 162.99L-20.77 171.45L-17.92 182.97L-7.28 186.03ZM5.45 157.61L2.60 146.08L-8.04 143.01L-15.83 151.47L-12.98 162.99L-2.34 166.06ZM13.99 192.18L11.15 180.66L0.51 177.58L-7.28 186.03L-4.43 197.55L6.20 200.63ZM18.94 172.21L16.09 160.68L5.45 157.61L-2.34 166.06L0.51 177.58L11.15 180.66ZM60.79 141.47L57.95 129.94L47.30 126.86L39.49 135.32L42.34 146.85L52.99 149.93ZM84.23 116.10L81.39 104.56L70.73 101.48L62.92 109.94L65.76 121.48L76.42 124.56ZM65.76 121.48L62.92 109.94L52.26 106.86L44.45 115.32L47.30 126.86L57.95 129.94ZM92.75 150.72L89.91 139.19L79.26 136.10L71.45 144.55L74.29 156.09L84.94 159.17ZM74.29 156.09L71.45 144.55L60.79 141.47L52.99 149.93L55.83 161.46L66.48 164.54ZM28.84 132.24L26.00 120.71L15.35 117.63L7.55 126.09L10.40 137.62L21.04 140.70ZM10.40 137.62L7.55 126.09L-3.10 123.03L-10.89 131.49L-8.04 143.01L2.60 146.08ZM33.80 112.25L30.95 100.71L20.30 97.64L12.50 106.10L15.35 117.63L26.00 120.71ZM15.35 117.63L12.50 106.10L1.85 103.03L-5.95 111.50L-3.10 123.03L7.55 126.09ZM42.34 146.85L39.49 135.32L28.84 132.24L21.04 140.70L23.89 152.23L34.54 155.30ZM23.89 152.23L21.04 140.70L10.40 137.62L2.60 146.08L5.45 157.61L16.09 160.68ZM47.30 126.86L44.45 115.32L33.80 112.25L26.00 120.71L28.84 132.24L39.49 135.32ZM72.87 230.63L70.03 219.10L59.39 216.02L51.59 224.46L54.43 235.98L65.07 239.06ZM54.43 235.98L51.59 224.46L40.96 221.38L33.16 229.82L36.00 241.33L46.64 244.41ZM77.83 210.66L75.00 199.13L64.35 196.05L56.55 204.49L59.39 216.02L70.03 219.10ZM59.39 216.02L56.55 204.49L45.91 201.41L38.11 209.85L40.96 221.38L51.59 224.46ZM86.34 245.24L83.51 233.71L72.87 230.63L65.07 239.06L67.91 250.58L78.54 253.67ZM67.91 250.58L65.07 239.06L54.43 235.98L46.64 244.41L49.48 255.93L60.11 259.02ZM91.31 225.28L88.48 213.75L77.83 210.66L70.03 219.10L72.87 230.63L83.51 233.71ZM22.53 226.74L19.68 215.22L9.05 212.14L1.26 220.59L4.11 232.10L14.74 235.18ZM4.11 232.10L1.26 220.59L-9.37 217.52L-17.15 225.96L-14.30 237.47L-3.67 240.54ZM27.48 206.78L24.63 195.25L13.99 192.18L6.20 200.63L9.05 212.14L19.68 215.22ZM9.05 212.14L6.20 200.63L-4.43 197.55L-12.22 206.00L-9.37 217.52L1.26 220.59ZM36.00 241.33L33.16 229.82L22.53 226.74L14.74 235.18L17.58 246.69L28.21 249.77ZM17.58 246.69L14.74 235.18L4.11 232.10L-3.67 240.54L-0.83 252.05L9.80 255.13ZM40.96 221.38L38.11 209.85L27.48 206.78L19.68 215.22L22.53 226.74L33.16 229.82ZM101.26 185.33L98.43 173.80L87.78 170.71L79.97 179.16L82.80 190.69L93.45 193.78ZM82.80 190.69L79.97 179.16L69.32 176.07L61.51 184.52L64.35 196.05L75.00 199.13ZM106.24 165.35L103.41 153.81L92.75 150.72L84.94 159.17L87.78 170.71L98.43 173.80ZM87.78 170.71L84.94 159.17L74.29 156.09L66.48 164.54L69.32 176.07L79.97 179.16ZM114.75 199.96L111.91 188.42L101.26 185.33L93.45 193.78L96.29 205.31L106.93 208.40ZM96.29 205.31L93.45 193.78L82.80 190.69L75.00 199.13L77.83 210.66L88.48 213.75ZM119.73 179.98L116.90 168.44L106.24 165.35L98.43 173.80L101.26 185.33L111.91 188.42ZM274.56 246.58L271.75 235.03L261.09 231.91L253.24 240.34L256.06 251.88L266.72 255.00ZM256.06 251.88L253.24 240.34L242.59 237.22L234.74 245.65L237.56 257.19L248.22 260.31ZM261.09 231.91L258.28 220.36L247.61 217.24L239.77 225.67L242.59 237.22L253.24 240.34ZM269.53 266.55L266.72 255.00L256.06 251.88L248.22 260.31L251.03 271.85L261.68 274.97ZM224.09 242.53L221.27 230.99L210.62 227.88L202.78 236.31L205.60 247.85L216.25 250.96ZM205.60 247.85L202.78 236.31L192.13 233.20L184.30 241.63L187.12 253.16L197.77 256.27ZM229.11 222.56L226.29 211.01L215.63 207.90L207.80 216.33L210.62 227.88L221.27 230.99ZM210.62 227.88L207.80 216.33L197.14 213.22L189.31 221.66L192.13 233.20L202.78 236.31ZM237.56 257.19L234.74 245.65L224.09 242.53L216.25 250.96L219.07 262.50L229.72 265.61ZM219.07 262.50L216.25 250.96L205.60 247.85L197.77 256.27L200.59 267.81L211.24 270.92ZM242.59 237.22L239.77 225.67L229.11 222.56L221.27 230.99L224.09 242.53L234.74 245.65ZM252.65 197.26L249.83 185.71L239.16 182.59L231.32 191.03L234.14 202.58L244.80 205.69ZM234.14 202.58L231.32 191.03L220.65 187.92L212.81 196.35L215.63 207.90L226.29 211.01ZM257.68 177.27L254.87 165.71L244.20 162.60L236.35 171.04L239.16 182.59L249.83 185.71ZM239.16 182.59L236.35 171.04L225.68 167.92L217.83 176.37L220.65 187.92L231.32 191.03ZM266.13 211.93L263.31 200.38L252.65 197.26L244.80 205.69L247.61 217.24L258.28 220.36ZM247.61 217.24L244.80 205.69L234.14 202.58L226.29 211.01L229.11 222.56L239.77 225.67ZM271.17 191.94L268.35 180.39L257.68 177.27L249.83 185.71L252.65 197.26L263.31 200.38ZM215.35 3.78L212.52 -7.80L201.83 -10.90L193.97 -2.42L196.80 9.15L207.49 12.25ZM196.80 9.15L193.97 -2.42L183.28 -5.52L175.42 2.95L178.25 14.52L188.94 17.62ZM228.87 18.46L226.04 6.88L215.35 3.78L207.49 12.25L210.31 23.82L221.00 26.93ZM210.31 23.82L207.49 12.25L196.80 9.15L188.94 17.62L191.77 29.19L202.46 32.29ZM233.91 -1.59L231.08 -13.17L220.38 -16.27L212.52 -7.80L215.35 3.78L226.04 6.88ZM164.74 -0.14L161.90 -11.71L151.21 -14.81L143.36 -6.33L146.20 5.24L156.89 8.33ZM146.20 5.24L143.36 -6.33L132.68 -9.42L124.84 -0.94L127.68 10.63L138.36 13.71ZM178.25 14.52L175.42 2.95L164.74 -0.14L156.89 8.33L159.72 19.90L170.40 22.99ZM159.72 19.90L156.89 8.33L146.20 5.24L138.36 13.71L141.20 25.28L151.88 28.37ZM183.28 -5.52L180.44 -17.10L169.75 -20.19L161.90 -11.71L164.74 -0.14L175.42 2.95ZM237.34 53.18L234.52 41.61L223.83 38.50L215.97 46.97L218.80 58.54L229.48 61.64ZM218.80 58.54L215.97 46.97L205.29 43.86L197.43 52.33L200.26 63.89L210.94 67.00ZM242.38 33.14L239.56 21.57L228.87 18.46L221.00 26.93L223.83 38.50L234.52 41.61ZM223.83 38.50L221.00 26.93L210.31 23.82L202.46 32.29L205.29 43.86L215.97 46.97ZM250.85 67.86L248.03 56.29L237.34 53.18L229.48 61.64L232.30 73.21L242.99 76.32ZM232.30 73.21L229.48 61.64L218.80 58.54L210.94 67.00L213.77 78.56L224.45 81.67ZM255.89 47.83L253.07 36.26L242.38 33.14L234.52 41.61L237.34 53.18L248.03 56.29ZM186.75 49.23L183.92 37.66L173.24 34.56L165.39 43.03L168.22 54.59L178.90 57.69ZM191.77 29.19L188.94 17.62L178.25 14.52L170.40 22.99L173.24 34.56L183.92 37.66ZM173.24 34.56L170.40 22.99L159.72 19.90L151.88 28.37L154.71 39.93L165.39 43.03ZM200.26 63.89L197.43 52.33L186.75 49.23L178.90 57.69L181.73 69.25L192.41 72.35ZM181.73 69.25L178.90 57.69L168.22 54.59L160.38 63.06L163.21 74.62L173.89 77.71ZM205.29 43.86L202.46 32.29L191.77 29.19L183.92 37.66L186.75 49.23L197.43 52.33ZM265.99 7.74L263.17 -3.84L252.47 -6.95L244.60 1.52L247.43 13.10L258.12 16.21ZM247.43 13.10L244.60 1.52L233.91 -1.59L226.04 6.88L228.87 18.46L239.56 21.57ZM252.47 -6.95L249.65 -18.53L238.95 -21.64L231.08 -13.17L233.91 -1.59L244.60 1.52ZM260.94 27.79L258.12 16.21L247.43 13.10L239.56 21.57L242.38 33.14L253.07 36.26ZM259.31 102.57L256.49 91.00L245.81 87.89L237.95 96.34L240.77 107.91L251.45 111.02ZM240.77 107.91L237.95 96.34L227.27 93.23L219.42 101.69L222.24 113.25L232.92 116.36ZM264.36 82.55L261.54 70.98L250.85 67.86L242.99 76.32L245.81 87.89L256.49 91.00ZM245.81 87.89L242.99 76.32L232.30 73.21L224.45 81.67L227.27 93.23L237.95 96.34ZM272.81 117.26L269.99 105.69L259.31 102.57L251.45 111.02L254.27 122.59L264.95 125.70ZM254.27 122.59L251.45 111.02L240.77 107.91L232.92 116.36L235.74 127.92L246.41 131.03ZM269.40 62.52L266.58 50.95L255.89 47.83L248.03 56.29L250.85 67.86L261.54 70.98ZM274.46 42.48L271.64 30.91L260.94 27.79L253.07 36.26L255.89 47.83L266.58 50.95ZM262.72 157.27L259.90 145.71L249.23 142.60L241.38 151.04L244.20 162.60L254.87 165.71ZM267.76 137.27L264.95 125.70L254.27 122.59L246.41 131.03L249.23 142.60L259.90 145.71ZM276.21 171.95L273.39 160.39L262.72 157.27L254.87 165.71L257.68 177.27L268.35 180.39Z"/></svg>
