<svg xmlns="http://www.w3.org/2000/svg" width="256" height="256" viewBox="0 0 256 256"><path data-band="2" fill="#f97316" fill-opacity="0.35" d="M145.20 27.76L142.37 16.24L131.73 13.14L123.92 21.56L126.75 33.09L137.38 36.19ZM126.75 33.09L123.92 21.56L113.28 18.47L105.48 26.89L108.31 38.41L118.94 41.51ZM150.19 7.81L147.36 -3.72L136.72 -6.82L128.90 1.61L131.73 13.14L142.37 16.24ZM131.73 13.14L128.90 1.61L118.26 -1.49L110.45 6.94L113.28 18.47L123.92 21.56ZM158.66 42.39L155.84 30.86L145.20 27.76L137.38 36.19L140.21 47.71L150.85 50.81ZM140.21 47.71L137.38 36.19L126.75 33.09L118.94 41.51L121.77 53.03L132.40 56.13ZM163.65 22.44L160.83 10.91L150.19 7.81L142.37 16.24L145.20 27.76L155.84 30.86ZM94.84 23.80L92.01 12.28L81.38 9.19L73.58 17.62L76.41 29.14L87.04 32.23ZM76.41 29.14L73.58 17.62L62.95 14.53L55.15 22.96L57.99 34.48L68.62 37.56ZM99.81 3.85L96.98 -7.67L86.34 -10.76L78.54 -2.33L81.38 9.19L92.01 12.28ZM81.38 9.19L78.54 -2.33L67.91 -5.42L60.11 3.02L62.95 14.53L73.58 17.62ZM108.31 38.41L105.48 26.89L94.84 23.80L87.04 32.23L89.88 43.74L100.51 46.84ZM89.88 43.74L87.04 32.23L76.41 29.14L68.62 37.56L71.45 49.08L82.08 52.17ZM113.28 18.47L110.45 6.94L99.81 3.85L92.01 12.28L94.84 23.80L105.48 26.89ZM187.12 -2.84L184.30 -14.37L173.65 -17.48L165.82 -9.05L168.65 2.48L179.30 5.59ZM168.65 2.48L165.82 -9.05L155.18 -12.15L147.36 -3.72L150.19 7.81L160.83 10.91ZM136.72 -6.82L133.89 -18.35L123.24 -21.45L115.43 -13.01L118.26 -1.49L128.90 1.61ZM118.26 -1.49L115.43 -13.01L104.79 -16.11L96.98 -7.67L99.81 3.85L110.45 6.94ZM167.13 76.96L164.31 65.44L153.67 62.33L145.86 70.75L148.68 82.27L159.32 85.37ZM148.68 82.27L145.86 70.75L135.23 67.65L127.42 76.06L130.25 87.58L140.88 90.68ZM172.12 57.02L169.30 45.50L158.66 42.39L150.85 50.81L153.67 62.33L164.31 65.44ZM153.67 62.33L150.85 50.81L140.21 47.71L132.40 56.13L135.23 67.65L145.86 70.75ZM180.58 91.59L177.76 80.07L167.13 76.96L159.32 85.37L162.14 96.89L172.77 100.00ZM162.14 96.89L159.32 85.37L148.68 82.27L140.88 90.68L143.70 102.20L154.33 105.30ZM185.58 71.65L182.76 60.13L172.12 57.02L164.31 65.44L167.13 76.96L177.76 80.07ZM116.79 72.96L113.97 61.45L103.34 58.35L95.54 66.77L98.37 78.29L109.00 81.38ZM98.37 78.29L95.54 66.77L84.91 63.68L77.12 72.10L79.95 83.61L90.57 86.70ZM121.77 53.03L118.94 41.51L108.31 38.41L100.51 46.84L103.34 58.35L113.97 61.45ZM103.34 58.35L100.51 46.84L89.88 43.74L82.08 52.17L84.91 63.68L95.54 66.77ZM130.25 87.58L127.42 76.06L116.79 72.96L109.00 81.38L111.82 92.89L122.45 95.99ZM111.82 92.89L109.00 81.38L98.37 78.29L90.57 86.70L93.40 98.21L104.03 101.31ZM135.23 67.65L132.40 56.13L121.77 53.03L113.97 61.45L116.79 72.96L127.42 76.06ZM195.58 31.76L192.76 20.23L182.12 17.12L174.30 25.55L177.12 37.08L187.76 40.18ZM177.12 37.08L174.30 25.55L163.65 22.44L155.84 30.86L158.66 42.39L169.30 45.50ZM200.59 11.81L197.77 0.27L187.12 -2.84L179.30 5.59L182.12 17.12L192.76 20.23ZM182.12 17.12L179.30 5.59L168.65 2.48L160.83 10.91L163.65 22.44L174.30 25.55ZM209.05 46.41L206.23 34.88L195.58 31.76L187.76 40.18L190.58 51.71L201.22 54.82ZM190.58 51.71L187.76 40.18L177.12 37.08L169.30 45.50L172.12 57.02L182.76 60.13ZM214.06 26.46L211.24 14.92L200.59 11.81L192.76 20.23L195.58 31.76L206.23 34.88ZM16.23 65.10L13.39 53.59L2.77 50.51L-5.00 58.94L-2.16 70.44L8.46 73.52ZM21.17 45.17L18.33 33.66L7.71 30.58L-0.07 39.01L2.77 50.51L13.39 53.59ZM2.77 50.51L-0.07 39.01L-10.69 35.94L-18.46 44.37L-15.62 55.87L-5.00 58.94ZM29.69 79.68L26.85 68.18L16.23 65.10L8.46 73.52L11.30 85.02L21.91 88.10ZM11.30 85.02L8.46 73.52L-2.16 70.44L-9.93 78.86L-7.09 90.36L3.52 93.44ZM34.63 59.75L31.79 48.25L21.17 45.17L13.39 53.59L16.23 65.10L26.85 68.18ZM44.52 19.88L41.69 8.37L31.06 5.28L23.27 13.72L26.11 25.23L36.74 28.31ZM26.11 25.23L23.27 13.72L12.64 10.64L4.86 19.07L7.71 30.58L18.33 33.66ZM49.48 -0.07L46.64 -11.59L36.00 -14.67L28.21 -6.23L31.06 5.28L41.69 8.37ZM31.06 5.28L28.21 -6.23L17.58 -9.31L9.80 -0.87L12.64 10.64L23.27 13.72ZM57.99 34.48L55.15 22.96L44.52 19.88L36.74 28.31L39.58 39.82L50.20 42.90ZM39.58 39.82L36.74 28.31L26.11 25.23L18.33 33.66L21.17 45.17L31.79 48.25ZM62.95 14.53L60.11 3.02L49.48 -0.07L41.69 8.37L44.52 19.88L55.15 22.96ZM7.71 30.58L4.86 19.07L-5.76 16.00L-13.54 24.43L-10.69 35.94L-0.07 39.01ZM12.64 10.64L9.80 -0.87L-0.83 -3.95L-8.61 4.49L-5.76 16.00L4.86 19.07ZM38.20 114.18L35.36 102.68L24.75 99.60L16.98 108.01L19.81 119.51L30.42 122.59ZM19.81 119.51L16.98 108.01L6.36 104.93L-1.40 113.35L1.44 124.84L12.04 127.92ZM43.14 94.27L40.31 82.76L29.69 79.68L21.91 88.10L24.75 99.60L35.36 102.68ZM24.75 99.60L21.91 88.10L11.30 85.02L3.52 93.44L6.36 104.93L16.98 108.01ZM51.65 128.77L48.81 117.27L38.20 114.18L30.42 122.59L33.26 134.09L43.87 137.18ZM33.26 134.09L30.42 122.59L19.81 119.51L12.04 127.92L14.88 139.42L25.49 142.50ZM56.59 108.85L53.76 97.35L43.14 94.27L35.36 102.68L38.20 114.18L48.81 117.27ZM1.44 124.84L-1.40 113.35L-12.01 110.27L-19.78 118.69L-16.93 130.18L-6.33 133.26ZM6.36 104.93L3.52 93.44L-7.09 90.36L-14.85 98.78L-12.01 110.27L-1.40 113.35ZM66.50 69.01L63.66 57.50L53.04 54.41L45.25 62.84L48.09 74.34L58.71 77.43ZM48.09 74.34L45.25 62.84L34.63 59.75L26.85 68.18L29.69 79.68L40.31 82.76ZM71.45 49.08L68.62 37.56L57.99 34.48L50.20 42.90L53.04 54.41L63.66 57.50ZM53.04 54.41L50.20 42.90L39.58 39.82L31.79 48.25L34.63 59.75L45.25 62.84ZM79.95 83.61L77.12 72.10L66.50 69.01L58.71 77.43L61.54 88.94L72.16 92.03ZM61.54 88.94L58.71 77.43L48.09 74.34L40.31 82.76L43.14 94.27L53.76 97.35ZM84.91 63.68L82.08 52.17L71.45 49.08L63.66 57.50L66.50 69.01L77.12 72.10ZM67.91 -5.42L65.07 -16.94L54.43 -20.02L46.64 -11.59L49.48 -0.07L60.11 3.02ZM239.38 130.21L236.57 118.69L225.93 115.57L218.11 123.97L220.92 135.49L231.55 138.61ZM220.92 135.49L218.11 123.97L207.48 120.86L199.66 129.26L202.48 140.78L213.10 143.89ZM244.39 110.29L241.58 98.76L230.94 95.64L223.12 104.05L225.93 115.57L236.57 118.69ZM225.93 115.57L223.12 104.05L212.48 100.93L204.66 109.34L207.48 120.86L218.11 123.97ZM252.82 144.86L250.01 133.34L239.38 130.21L231.55 138.61L234.36 150.13L245.00 153.26ZM234.36 150.13L231.55 138.61L220.92 135.49L213.10 143.89L215.92 155.41L226.54 158.53ZM257.84 124.94L255.03 113.41L244.39 110.29L236.57 118.69L239.38 130.21L250.01 133.34ZM189.03 126.15L186.22 114.63L175.59 111.52L167.78 119.92L170.60 131.44L181.22 134.55ZM170.60 131.44L167.78 119.92L157.15 116.82L149.35 125.22L152.17 136.73L162.79 139.84ZM194.03 106.22L191.21 94.70L180.58 91.59L172.77 100.00L175.59 111.52L186.22 114.63ZM175.59 111.52L172.77 100.00L162.14 96.89L154.33 105.30L157.15 116.82L167.78 119.92ZM202.48 140.78L199.66 129.26L189.03 126.15L181.22 134.55L184.04 146.06L194.66 149.18ZM184.04 146.06L181.22 134.55L170.60 131.44L162.79 139.84L165.61 151.35L176.23 154.46ZM207.48 120.86L204.66 109.34L194.03 106.22L186.22 114.63L189.03 126.15L199.66 129.26ZM267.89 85.07L265.08 73.54L254.44 70.41L246.60 78.82L249.41 90.35L260.06 93.48ZM249.41 90.35L246.60 78.82L235.96 75.70L228.13 84.11L230.94 95.64L241.58 98.76ZM272.92 65.13L270.11 53.59L259.46 50.47L251.63 58.88L254.44 70.41L265.08 73.54ZM254.44 70.41L251.63 58.88L240.98 55.76L233.15 64.17L235.96 75.70L246.60 78.82ZM262.86 105.01L260.06 93.48L249.41 90.35L241.58 98.76L244.39 110.29L255.03 113.41ZM217.49 81.00L214.68 69.47L204.04 66.35L196.22 74.77L199.03 86.29L209.67 89.40ZM199.03 86.29L196.22 74.77L185.58 71.65L177.76 80.07L180.58 91.59L191.21 94.70ZM222.50 61.05L219.69 49.52L209.05 46.41L201.22 54.82L204.04 66.35L214.68 69.47ZM204.04 66.35L201.22 54.82L190.58 51.71L182.76 60.13L185.58 71.65L196.22 74.77ZM230.94 95.64L228.13 84.11L217.49 81.00L209.67 89.40L212.48 100.93L223.12 104.05ZM212.48 100.93L209.67 89.40L199.03 86.29L191.21 94.70L194.03 106.22L204.66 109.34ZM235.96 75.70L233.15 64.17L222.50 61.05L214.68 69.47L217.49 81.00L228.13 84.11ZM261.24 179.42L258.43 167.90L247.80 164.78L239.98 173.17L242.79 184.68L253.42 187.81ZM242.79 184.68L239.98 173.17L229.35 170.05L221.54 178.44L224.35 189.95L234.97 193.07ZM266.26 159.51L263.45 147.99L252.82 144.86L245.00 153.26L247.80 164.78L258.43 167.90ZM247.80 164.78L245.00 153.26L234.36 150.13L226.54 158.53L229.35 170.05L239.98 173.17ZM274.67 194.07L271.87 182.55L261.24 179.42L253.42 187.81L256.22 199.33L266.85 202.46ZM256.22 199.33L253.42 187.81L242.79 184.68L234.97 193.07L237.78 204.59L248.40 207.71ZM210.91 175.32L208.10 163.81L197.48 160.69L189.67 169.09L192.48 180.60L203.10 183.71ZM192.48 180.60L189.67 169.09L179.05 165.97L171.24 174.37L174.06 185.87L184.68 188.99ZM215.92 155.41L213.10 143.89L202.48 140.78L194.66 149.18L197.48 160.69L208.10 163.81ZM197.48 160.69L194.66 149.18L184.04 146.06L176.23 154.46L179.05 165.97L189.67 169.09ZM224.35 189.95L221.54 178.44L210.91 175.32L203.10 183.71L205.91 195.22L216.54 198.34ZM205.91 195.22L203.10 183.71L192.48 180.60L184.68 188.99L187.49 200.49L198.11 203.61ZM229.35 170.05L226.54 158.53L215.92 155.41L208.10 163.81L210.91 175.32L221.54 178.44ZM271.28 139.59L268.48 128.06L257.84 124.94L250.01 133.34L252.82 144.86L263.45 147.99ZM276.31 119.66L273.51 108.13L262.86 105.01L255.03 113.41L257.84 124.94L268.48 128.06ZM110.37 167.24L107.54 155.74L96.93 152.64L89.14 161.04L91.97 172.54L102.58 175.64ZM91.97 172.54L89.14 161.04L78.53 157.94L70.75 166.35L73.58 177.84L84.19 180.94ZM115.33 147.33L112.51 135.83L101.89 132.73L94.10 141.14L96.93 152.64L107.54 155.74ZM96.93 152.64L94.10 141.14L83.49 138.04L75.70 146.45L78.53 157.94L89.14 161.04ZM123.80 181.84L120.98 170.34L110.37 167.24L102.58 175.64L105.40 187.13L116.01 190.23ZM105.40 187.13L102.58 175.64L91.97 172.54L84.19 180.94L87.01 192.43L97.62 195.53ZM128.77 161.94L125.95 150.43L115.33 147.33L107.54 155.74L110.37 167.24L120.98 170.34ZM60.14 163.25L57.31 151.76L46.70 148.67L38.93 157.08L41.76 168.57L52.37 171.66ZM41.76 168.57L38.93 157.08L28.32 153.99L20.55 162.40L23.39 173.89L33.99 176.97ZM65.09 143.35L62.26 131.86L51.65 128.77L43.87 137.18L46.70 148.67L57.31 151.76ZM46.70 148.67L43.87 137.18L33.26 134.09L25.49 142.50L28.32 153.99L38.93 157.08ZM73.58 177.84L70.75 166.35L60.14 163.25L52.37 171.66L55.20 183.15L65.80 186.24ZM55.20 183.15L52.37 171.66L41.76 168.57L33.99 176.97L36.83 188.46L47.43 191.55ZM78.53 157.94L75.70 146.45L65.09 143.35L57.31 151.76L60.14 163.25L70.75 166.35ZM138.72 122.12L135.90 110.61L125.27 107.50L117.48 115.91L120.30 127.42L130.92 130.52ZM120.30 127.42L117.48 115.91L106.85 112.81L99.06 121.22L101.89 132.73L112.51 135.83ZM143.70 102.20L140.88 90.68L130.25 87.58L122.45 95.99L125.27 107.50L135.90 110.61ZM125.27 107.50L122.45 95.99L111.82 92.89L104.03 101.31L106.85 112.81L117.48 115.91ZM152.17 136.73L149.35 125.22L138.72 122.12L130.92 130.52L133.74 142.03L144.36 145.14ZM133.74 142.03L130.92 130.52L120.30 127.42L112.51 135.83L115.33 147.33L125.95 150.43ZM157.15 116.82L154.33 105.30L143.70 102.20L135.90 110.61L138.72 122.12L149.35 125.22ZM88.44 118.13L85.61 106.62L74.99 103.53L67.21 111.94L70.04 123.45L80.66 126.54ZM70.04 123.45L67.21 111.94L56.59 108.85L48.81 117.27L51.65 128.77L62.26 131.86ZM93.40 98.21L90.57 86.70L79.95 83.61L72.16 92.03L74.99 103.53L85.61 106.62ZM74.99 103.53L72.16 92.03L61.54 88.94L53.76 97.35L56.59 108.85L67.21 111.94ZM101.89 132.73L99.06 121.22L88.44 118.13L80.66 126.54L83.49 138.04L94.10 141.14ZM83.49 138.04L80.66 126.54L70.04 123.45L62.26 131.86L65.09 143.35L75.70 146.45ZM106.85 112.81L104.03 101.31L93.40 98.21L85.61 106.62L88.44 118.13L99.06 121.22ZM132.26 216.33L129.44 204.83L118.84 201.73L111.05 210.12L113.87 221.62L124.48 224.72ZM113.87 221.62L111.05 210.12L100.44 207.02L92.66 215.41L95.49 226.91L106.09 230.01ZM137.23 196.44L134.41 184.94L123.80 181.84L116.01 190.23L118.84 201.73L129.44 204.83ZM118.84 201.73L116.01 190.23L105.40 187.13L97.62 195.53L100.44 207.02L111.05 210.12ZM145.69 230.93L142.87 219.44L132.26 216.33L124.48 224.72L127.30 236.21L137.90 239.32ZM127.30 236.21L124.48 224.72L113.87 221.62L106.09 230.01L108.91 241.50L119.51 244.60ZM150.66 211.05L147.85 199.55L137.23 196.44L129.44 204.83L132.26 216.33L142.87 219.44ZM82.06 212.32L79.23 200.83L68.63 197.73L60.86 206.13L63.69 217.61L74.29 220.71ZM63.69 217.61L60.86 206.13L50.26 203.04L42.49 211.43L45.32 222.92L55.92 226.01ZM87.01 192.43L84.19 180.94L73.58 177.84L65.80 186.24L68.63 197.73L79.23 200.83ZM68.63 197.73L65.80 186.24L55.20 183.15L47.43 191.55L50.26 203.04L60.86 206.13ZM95.49 226.91L92.66 215.41L82.06 212.32L74.29 220.71L77.11 232.20L87.71 235.29ZM77.11 232.20L74.29 220.71L63.69 217.61L55.92 226.01L58.74 237.49L69.34 240.59ZM100.44 207.02L97.62 195.53L87.01 192.43L79.23 200.83L82.06 212.32L92.66 215.41ZM160.62 171.26L157.81 159.75L147.19 156.64L139.39 165.04L142.21 176.55L152.82 179.65ZM142.21 176.55L139.39 165.04L128.77 161.94L120.98 170.34L123.80 181.84L134.41 184.94ZM165.61 151.35L162.79 139.84L152.17 136.73L144.36 145.14L147.19 156.64L157.81 159.75ZM147.19 156.64L144.36 145.14L133.74 142.03L125.95 150.43L128.77 161.94L139.39 165.04ZM174.06 185.87L171.24 174.37L160.62 171.26L152.82 179.65L155.64 191.16L166.26 194.27ZM155.64 191.16L152.82 179.65L142.21 176.55L134.41 184.94L137.23 196.44L147.85 199.55ZM179.05 165.97L176.23 154.46L165.61 151.35L157.81 159.75L160.62 171.26L171.24 174.37ZM256.06 -4.12L253.24 -15.66L242.59 -18.78L234.74 -10.35L237.56 1.19L248.22 4.31ZM269.53 10.55L266.72 -1.00L256.06 -4.12L248.22 4.31L251.03 15.85L261.68 18.97ZM205.60 -8.15L202.78 -19.69L192.13 -22.80L184.30 -14.37L187.12 -2.84L197.77 0.27ZM237.56 1.19L234.74 -10.35L224.09 -13.47L216.25 -5.04L219.07 6.50L229.72 9.61ZM219.07 6.50L216.25 -5.04L205.60 -8.15L197.77 0.27L200.59 11.81L211.24 14.92ZM246.00 35.81L243.19 24.27L232.54 21.15L224.70 29.57L227.52 41.11L238.17 44.22ZM227.52 41.11L224.70 29.57L214.06 26.46L206.23 34.88L209.05 46.41L219.69 49.52ZM251.03 15.85L248.22 4.31L237.56 1.19L229.72 9.61L232.54 21.15L243.19 24.27ZM232.54 21.15L229.72 9.61L219.07 6.50L211.24 14.92L214.06 26.46L224.70 29.57ZM259.46 50.47L256.65 38.93L246.00 35.81L238.17 44.22L240.98 55.76L251.63 58.88ZM240.98 55.76L238.17 44.22L227.52 41.11L219.69 49.52L222.50 61.05L233.15 64.17ZM264.49 30.51L261.68 18.97L251.03 15.85L243.19 24.27L246.00 35.81L256.65 38.93ZM264.63 233.86L261.83 222.35L251.21 219.22L243.39 227.61L246.20 239.11L256.81 242.24ZM269.65 213.97L266.85 202.46L256.22 199.33L248.40 207.71L251.21 219.22L261.83 222.35ZM204.36 269.50L201.55 258.01L190.94 254.89L183.14 263.27L185.95 274.76L196.56 277.88ZM209.35 249.63L206.54 238.12L195.93 235.00L188.13 243.39L190.94 254.89L201.55 258.01ZM190.94 254.89L188.13 243.39L177.52 240.27L169.72 248.65L172.53 260.15L183.14 263.27ZM222.77 264.25L219.96 252.75L209.35 249.63L201.55 258.01L204.36 269.50L214.96 272.63ZM154.14 265.42L151.32 253.92L140.72 250.81L132.93 259.20L135.75 270.68L146.35 273.79ZM159.11 245.54L156.30 234.04L145.69 230.93L137.90 239.32L140.72 250.81L151.32 253.92ZM140.72 250.81L137.90 239.32L127.30 236.21L119.51 244.60L122.33 256.09L132.93 259.20ZM172.53 260.15L169.72 248.65L159.11 245.54L151.32 253.92L154.14 265.42L164.74 268.53ZM232.77 224.48L229.96 212.97L219.34 209.85L211.54 218.24L214.34 229.74L224.96 232.86ZM214.34 229.74L211.54 218.24L200.92 215.12L193.12 223.50L195.93 235.00L206.54 238.12ZM237.78 204.59L234.97 193.07L224.35 189.95L216.54 198.34L219.34 209.85L229.96 212.97ZM219.34 209.85L216.54 198.34L205.91 195.22L198.11 203.61L200.92 215.12L211.54 218.24ZM246.20 239.11L243.39 227.61L232.77 224.48L224.96 232.86L227.77 244.37L238.38 247.49ZM227.77 244.37L224.96 232.86L214.34 229.74L206.54 238.12L209.35 249.63L219.96 252.75ZM251.21 219.22L248.40 207.71L237.78 204.59L229.96 212.97L232.77 224.48L243.39 227.61ZM182.50 220.39L179.69 208.88L169.07 205.77L161.28 214.16L164.09 225.66L174.70 228.77ZM164.09 225.66L161.28 214.16L150.66 211.05L142.87 219.44L145.69 230.93L156.30 234.04ZM187.49 200.49L184.68 188.99L174.06 185.87L166.26 194.27L169.07 205.77L179.69 208.88ZM169.07 205.77L166.26 194.27L155.64 191.16L147.85 199.55L150.66 211.05L161.28 214.16ZM195.93 235.00L193.12 223.50L182.50 220.39L174.70 228.77L177.52 240.27L188.13 243.39ZM177.52 240.27L174.70 228.77L164.09 225.66L156.30 234.04L159.11 245.54L169.72 248.65ZM200.92 215.12L198.11 203.61L187.49 200.49L179.69 208.88L182.50 220.39L193.12 223.50ZM259.62 253.75L256.81 242.24L246.20 239.11L238.38 247.49L241.19 259.00L251.80 262.13ZM241.19 259.00L238.38 247.49L227.77 244.37L219.96 252.75L222.77 264.25L233.38 267.37ZM273.03 268.39L270.23 256.88L259.62 253.75L251.80 262.13L254.60 273.63L265.22 276.76ZM0.10 199.09L-2.73 187.61L-13.33 184.53L-21.08 192.93L-18.24 204.41L-7.65 207.49ZM9.95 159.31L7.11 147.82L-3.49 144.75L-11.25 153.15L-8.41 164.64L2.19 167.72ZM14.88 139.42L12.04 127.92L1.44 124.84L-6.33 133.26L-3.49 144.75L7.11 147.82ZM23.39 173.89L20.55 162.40L9.95 159.31L2.19 167.72L5.03 179.20L15.63 182.29ZM5.03 179.20L2.19 167.72L-8.41 164.64L-16.17 173.05L-13.33 184.53L-2.73 187.61ZM28.32 153.99L25.49 142.50L14.88 139.42L7.11 147.82L9.95 159.31L20.55 162.40ZM3.69 253.39L0.86 241.92L-9.73 238.84L-17.48 247.23L-14.64 258.70L-4.06 261.78ZM8.61 233.53L5.78 222.05L-4.82 218.97L-12.57 227.36L-9.73 238.84L0.86 241.92ZM17.11 267.95L14.28 256.48L3.69 253.39L-4.06 261.78L-1.23 273.25L9.36 276.34ZM22.03 248.09L19.20 236.61L8.61 233.53L0.86 241.92L3.69 253.39L14.28 256.48ZM31.89 208.34L29.06 196.86L18.46 193.77L10.70 202.17L13.53 213.65L24.13 216.74ZM13.53 213.65L10.70 202.17L0.10 199.09L-7.65 207.49L-4.82 218.97L5.78 222.05ZM36.83 188.46L33.99 176.97L23.39 173.89L15.63 182.29L18.46 193.77L29.06 196.86ZM18.46 193.77L15.63 182.29L5.03 179.20L-2.73 187.61L0.10 199.09L10.70 202.17ZM45.32 222.92L42.49 211.43L31.89 208.34L24.13 216.74L26.96 228.22L37.55 231.31ZM26.96 228.22L24.13 216.74L13.53 213.65L5.78 222.05L8.61 233.53L19.20 236.61ZM50.26 203.04L47.43 191.55L36.83 188.46L29.06 196.86L31.89 208.34L42.49 211.43ZM103.96 261.37L101.13 249.88L90.54 246.78L82.76 255.17L85.59 266.65L96.18 269.75ZM85.59 266.65L82.76 255.17L72.17 252.07L64.40 260.45L67.23 271.93L77.82 275.03ZM108.91 241.50L106.09 230.01L95.49 226.91L87.71 235.29L90.54 246.78L101.13 249.88ZM90.54 246.78L87.71 235.29L77.11 232.20L69.34 240.59L72.17 252.07L82.76 255.17ZM122.33 256.09L119.51 244.60L108.91 241.50L101.13 249.88L103.96 261.37L114.55 264.47ZM53.81 257.36L50.98 245.88L40.39 242.79L32.62 251.18L35.45 262.65L46.04 265.75ZM35.45 262.65L32.62 251.18L22.03 248.09L14.28 256.48L17.11 267.95L27.70 271.04ZM58.74 237.49L55.92 226.01L45.32 222.92L37.55 231.31L40.39 242.79L50.98 245.88ZM40.39 242.79L37.55 231.31L26.96 228.22L19.20 236.61L22.03 248.09L32.62 251.18ZM72.17 252.07L69.34 240.59L58.74 237.49L50.98 245.88L53.81 257.36L64.40 260.45Z"/></svg>
