<svg xmlns="http://www.w3.org/2000/svg" width="256" height="256" viewBox="0 0 256 256"><path data-band="2" fill="#f97316" fill-opacity="0.35" d="M89.77 267.15L86.95 255.70L76.40 252.59L68.66 260.93L71.47 272.37L82.02 275.48ZM163.02 246.27L160.22 234.81L149.65 231.69L141.89 240.03L144.69 251.48L155.26 254.60ZM144.69 251.48L141.89 240.03L131.32 236.91L123.57 245.25L126.38 256.70L136.94 259.82ZM167.98 226.47L165.18 215.01L154.60 211.89L146.84 220.23L149.65 231.69L160.22 234.81ZM149.65 231.69L146.84 220.23L136.27 217.12L128.51 225.46L131.32 236.91L141.89 240.03ZM176.39 260.85L173.59 249.39L163.02 246.27L155.26 254.60L158.06 266.06L168.63 269.18ZM158.06 266.06L155.26 254.60L144.69 251.48L136.94 259.82L139.74 271.27L150.30 274.39ZM181.35 241.06L178.55 229.60L167.98 226.47L160.22 234.81L163.02 246.27L173.59 249.39ZM113.01 242.14L110.20 230.68L99.63 227.57L91.88 235.91L94.70 247.36L105.26 250.47ZM94.70 247.36L91.88 235.91L81.32 232.81L73.58 241.15L76.40 252.59L86.95 255.70ZM117.95 222.34L115.14 210.89L104.57 207.78L96.82 216.12L99.63 227.57L110.20 230.68ZM99.63 227.57L96.82 216.12L86.26 213.01L78.51 221.36L81.32 232.81L91.88 235.91ZM126.38 256.70L123.57 245.25L113.01 242.14L105.26 250.47L108.07 261.92L118.63 265.04ZM108.07 261.92L105.26 250.47L94.70 247.36L86.95 255.70L89.77 267.15L100.32 270.26ZM131.32 236.91L128.51 225.46L117.95 222.34L110.20 230.68L113.01 242.14L123.57 245.25ZM39.82 263.06L37.00 251.62L26.45 248.52L18.72 256.87L21.54 268.30L32.09 271.40ZM21.54 268.30L18.72 256.87L8.17 253.77L0.45 262.11L3.28 273.54L13.82 276.64ZM247.99 111.70L245.19 100.21L234.59 97.08L226.80 105.44L229.60 116.93L240.19 120.06ZM229.60 116.93L226.80 105.44L216.20 102.31L208.41 110.67L211.21 122.15L221.80 125.28ZM252.99 91.85L250.19 80.36L239.59 77.23L231.79 85.59L234.59 97.08L245.19 100.21ZM234.59 97.08L231.79 85.59L221.19 82.46L213.40 90.83L216.20 102.31L226.80 105.44ZM261.38 126.32L258.59 114.83L247.99 111.70L240.19 120.06L242.99 131.54L253.59 134.68ZM242.99 131.54L240.19 120.06L229.60 116.93L221.80 125.28L224.60 136.76L235.20 139.89ZM266.39 106.48L263.59 94.99L252.99 91.85L245.19 100.21L247.99 111.70L258.59 114.83ZM276.41 66.77L273.62 55.27L263.01 52.14L255.20 60.50L258.00 72.00L268.60 75.13ZM258.00 72.00L255.20 60.50L244.59 57.37L236.79 65.74L239.59 77.23L250.19 80.36ZM263.01 52.14L260.21 40.64L249.60 37.50L241.79 45.87L244.59 57.37L255.20 60.50ZM271.40 86.63L268.60 75.13L258.00 72.00L250.19 80.36L252.99 91.85L263.59 94.99ZM269.77 160.78L266.98 149.30L256.38 146.16L248.59 154.51L251.38 165.99L261.97 169.13ZM251.38 165.99L248.59 154.51L238.00 151.38L230.20 159.73L233.00 171.20L243.59 174.34ZM274.78 140.95L271.98 129.46L261.38 126.32L253.59 134.68L256.38 146.16L266.98 149.30ZM256.38 146.16L253.59 134.68L242.99 131.54L235.20 139.89L238.00 151.38L248.59 154.51ZM264.77 180.61L261.97 169.13L251.38 165.99L243.59 174.34L246.39 185.82L256.97 188.95ZM169.50 152.45L166.69 140.98L156.10 137.86L148.33 146.21L151.14 157.68L161.72 160.80ZM151.14 157.68L148.33 146.21L137.75 143.10L129.98 151.45L132.80 162.92L143.37 166.03ZM174.47 132.62L171.66 121.14L161.07 118.03L153.29 126.38L156.10 137.86L166.69 140.98ZM156.10 137.86L153.29 126.38L142.71 123.27L134.94 131.63L137.75 143.10L148.33 146.21ZM182.88 167.04L180.08 155.57L169.50 152.45L161.72 160.80L164.53 172.27L175.11 175.39ZM164.53 172.27L161.72 160.80L151.14 157.68L143.37 166.03L146.18 177.50L156.76 180.62ZM187.86 147.22L185.05 135.74L174.47 132.62L166.69 140.98L169.50 152.45L180.08 155.57ZM119.41 148.34L116.59 136.87L106.02 133.77L98.25 142.12L101.07 153.59L111.64 156.70ZM101.07 153.59L98.25 142.12L87.68 139.02L79.92 147.38L82.74 158.84L93.31 161.94ZM124.36 128.52L121.54 117.05L110.96 113.94L103.20 122.30L106.02 133.77L116.59 136.87ZM106.02 133.77L103.20 122.30L92.62 119.19L84.86 127.55L87.68 139.02L98.25 142.12ZM132.80 162.92L129.98 151.45L119.41 148.34L111.64 156.70L114.46 168.16L125.03 171.27ZM114.46 168.16L111.64 156.70L101.07 153.59L93.31 161.94L96.13 173.40L106.70 176.51ZM137.75 143.10L134.94 131.63L124.36 128.52L116.59 136.87L119.41 148.34L129.98 151.45ZM197.81 107.55L195.01 96.06L184.42 92.94L176.63 101.30L179.44 112.78L190.03 115.91ZM179.44 112.78L176.63 101.30L166.04 98.19L158.26 106.55L161.07 118.03L171.66 121.14ZM202.80 87.70L199.99 76.21L189.40 73.09L181.61 81.46L184.42 92.94L195.01 96.06ZM184.42 92.94L181.61 81.46L171.01 78.34L163.23 86.71L166.04 98.19L176.63 101.30ZM211.21 122.15L208.41 110.67L197.81 107.55L190.03 115.91L192.83 127.39L203.42 130.51ZM192.83 127.39L190.03 115.91L179.44 112.78L171.66 121.14L174.47 132.62L185.05 135.74ZM216.20 102.31L213.40 90.83L202.80 87.70L195.01 96.06L197.81 107.55L208.41 110.67ZM147.67 103.43L144.86 91.96L134.27 88.84L126.50 97.21L129.31 108.68L139.90 111.80ZM129.31 108.68L126.50 97.21L115.91 94.10L108.15 102.47L110.96 113.94L121.54 117.05ZM152.64 83.59L149.83 72.11L139.23 69.00L131.46 77.37L134.27 88.84L144.86 91.96ZM134.27 88.84L131.46 77.37L120.87 74.26L113.10 82.63L115.91 94.10L126.50 97.21ZM161.07 118.03L158.26 106.55L147.67 103.43L139.90 111.80L142.71 123.27L153.29 126.38ZM142.71 123.27L139.90 111.80L129.31 108.68L121.54 117.05L124.36 128.52L134.94 131.63ZM166.04 98.19L163.23 86.71L152.64 83.59L144.86 91.96L147.67 103.43L158.26 106.55ZM191.29 201.45L188.49 189.98L177.91 186.86L170.14 195.20L172.94 206.67L183.52 209.79ZM172.94 206.67L170.14 195.20L159.56 192.08L151.80 200.43L154.60 211.89L165.18 215.01ZM196.27 181.64L193.47 170.17L182.88 167.04L175.11 175.39L177.91 186.86L188.49 189.98ZM177.91 186.86L175.11 175.39L164.53 172.27L156.76 180.62L159.56 192.08L170.14 195.20ZM204.67 216.05L201.87 204.58L191.29 201.45L183.52 209.79L186.32 221.26L196.90 224.38ZM186.32 221.26L183.52 209.79L172.94 206.67L165.18 215.01L167.98 226.47L178.55 229.60ZM209.65 196.24L206.85 184.76L196.27 181.64L188.49 189.98L191.29 201.45L201.87 204.58ZM141.23 197.31L138.42 185.85L127.84 182.73L120.08 191.08L122.89 202.54L133.46 205.66ZM122.89 202.54L120.08 191.08L109.51 187.97L101.76 196.32L104.57 207.78L115.14 210.89ZM146.18 177.50L143.37 166.03L132.80 162.92L125.03 171.27L127.84 182.73L138.42 185.85ZM127.84 182.73L125.03 171.27L114.46 168.16L106.70 176.51L109.51 187.97L120.08 191.08ZM154.60 211.89L151.80 200.43L141.23 197.31L133.46 205.66L136.27 217.12L146.84 220.23ZM136.27 217.12L133.46 205.66L122.89 202.54L115.14 210.89L117.95 222.34L128.51 225.46ZM159.56 192.08L156.76 180.62L146.18 177.50L138.42 185.85L141.23 197.31L151.80 200.43ZM219.62 156.60L216.82 145.12L206.23 141.99L198.44 150.34L201.25 161.82L211.83 164.94ZM201.25 161.82L198.44 150.34L187.86 147.22L180.08 155.57L182.88 167.04L193.47 170.17ZM224.60 136.76L221.80 125.28L211.21 122.15L203.42 130.51L206.23 141.99L216.82 145.12ZM206.23 141.99L203.42 130.51L192.83 127.39L185.05 135.74L187.86 147.22L198.44 150.34ZM233.00 171.20L230.20 159.73L219.62 156.60L211.83 164.94L214.63 176.42L225.22 179.55ZM214.63 176.42L211.83 164.94L201.25 161.82L193.47 170.17L196.27 181.64L206.85 184.76ZM238.00 151.38L235.20 139.89L224.60 136.76L216.82 145.12L219.62 156.60L230.20 159.73ZM204.36 13.50L201.55 2.01L190.94 -1.11L183.14 7.27L185.95 18.76L196.56 21.88ZM185.95 18.76L183.14 7.27L172.53 4.15L164.74 12.53L167.56 24.02L178.16 27.14ZM209.35 -6.37L206.54 -17.88L195.93 -21.00L188.13 -12.61L190.94 -1.11L201.55 2.01ZM190.94 -1.11L188.13 -12.61L177.52 -15.73L169.72 -7.35L172.53 4.15L183.14 7.27ZM217.77 28.12L214.96 16.63L204.36 13.50L196.56 21.88L199.37 33.37L209.97 36.50ZM199.37 33.37L196.56 21.88L185.95 18.76L178.16 27.14L180.97 38.63L191.57 41.75ZM222.77 8.25L219.96 -3.25L209.35 -6.37L201.55 2.01L204.36 13.50L214.96 16.63ZM154.14 9.42L151.32 -2.08L140.72 -5.19L132.93 3.20L135.75 14.68L146.35 17.79ZM135.75 14.68L132.93 3.20L122.33 0.09L114.55 8.47L117.37 19.96L127.97 23.06ZM140.72 -5.19L137.90 -16.68L127.30 -19.79L119.51 -11.40L122.33 0.09L132.93 3.20ZM167.56 24.02L164.74 12.53L154.14 9.42L146.35 17.79L149.17 29.28L159.77 32.40ZM149.17 29.28L146.35 17.79L135.75 14.68L127.97 23.06L130.79 34.55L141.38 37.66ZM172.53 4.15L169.72 -7.35L159.11 -10.46L151.32 -2.08L154.14 9.42L164.74 12.53ZM226.18 62.61L223.38 51.11L212.78 47.99L204.98 56.36L207.79 67.85L218.39 70.97ZM207.79 67.85L204.98 56.36L194.38 53.24L186.59 61.61L189.40 73.09L199.99 76.21ZM231.18 42.75L228.38 31.25L217.77 28.12L209.97 36.50L212.78 47.99L223.38 51.11ZM212.78 47.99L209.97 36.50L199.37 33.37L191.57 41.75L194.38 53.24L204.98 56.36ZM239.59 77.23L236.79 65.74L226.18 62.61L218.39 70.97L221.19 82.46L231.79 85.59ZM221.19 82.46L218.39 70.97L207.79 67.85L199.99 76.21L202.80 87.70L213.40 90.83ZM244.59 57.37L241.79 45.87L231.18 42.75L223.38 51.11L226.18 62.61L236.79 65.74ZM175.99 58.49L173.18 47.00L162.58 43.88L154.79 52.26L157.61 63.74L168.20 66.86ZM157.61 63.74L154.79 52.26L144.20 49.14L136.42 57.52L139.23 69.00L149.83 72.11ZM180.97 38.63L178.16 27.14L167.56 24.02L159.77 32.40L162.58 43.88L173.18 47.00ZM162.58 43.88L159.77 32.40L149.17 29.28L141.38 37.66L144.20 49.14L154.79 52.26ZM189.40 73.09L186.59 61.61L175.99 58.49L168.20 66.86L171.01 78.34L181.61 81.46ZM171.01 78.34L168.20 66.86L157.61 63.74L149.83 72.11L152.64 83.59L163.23 86.71ZM194.38 53.24L191.57 41.75L180.97 38.63L173.18 47.00L175.99 58.49L186.59 61.61ZM254.60 17.63L251.80 6.13L241.19 3.00L233.38 11.37L236.18 22.88L246.79 26.00ZM236.18 22.88L233.38 11.37L222.77 8.25L214.96 16.63L217.77 28.12L228.38 31.25ZM259.62 -2.25L256.81 -13.76L246.20 -16.89L238.38 -8.51L241.19 3.00L251.80 6.13ZM241.19 3.00L238.38 -8.51L227.77 -11.63L219.96 -3.25L222.77 8.25L233.38 11.37ZM268.02 32.27L265.22 20.76L254.60 17.63L246.79 26.00L249.60 37.50L260.21 40.64ZM249.60 37.50L246.79 26.00L236.18 22.88L228.38 31.25L231.18 42.75L241.79 45.87ZM273.03 12.39L270.23 0.88L259.62 -2.25L251.80 6.13L254.60 17.63L265.22 20.76ZM263.15 254.66L260.36 243.19L249.78 240.05L241.99 248.38L244.79 259.85L255.36 262.98ZM244.79 259.85L241.99 248.38L231.42 245.24L223.64 253.58L226.44 265.04L237.01 268.17ZM268.14 234.85L265.35 223.38L254.77 220.24L246.98 228.58L249.78 240.05L260.36 243.19ZM249.78 240.05L246.98 228.58L236.40 225.44L228.62 233.78L231.42 245.24L241.99 248.38ZM276.51 269.27L273.73 257.80L263.15 254.66L255.36 262.98L258.15 274.45L268.73 277.59ZM213.07 250.44L210.27 238.98L199.70 235.85L191.92 244.18L194.72 255.65L205.29 258.77ZM194.72 255.65L191.92 244.18L181.35 241.06L173.59 249.39L176.39 260.85L186.96 263.98ZM218.05 230.64L215.25 219.18L204.67 216.05L196.90 224.38L199.70 235.85L210.27 238.98ZM199.70 235.85L196.90 224.38L186.32 221.26L178.55 229.60L181.35 241.06L191.92 244.18ZM226.44 265.04L223.64 253.58L213.07 250.44L205.29 258.77L208.09 270.24L218.66 273.37ZM208.09 270.24L205.29 258.77L194.72 255.65L186.96 263.98L189.76 275.43L200.32 278.56ZM231.42 245.24L228.62 233.78L218.05 230.64L210.27 238.98L213.07 250.44L223.64 253.58ZM273.15 215.04L270.35 203.57L259.77 200.43L251.98 208.77L254.77 220.24L265.35 223.38ZM241.39 205.63L238.60 194.16L228.01 191.02L220.23 199.37L223.03 210.84L233.61 213.97ZM223.03 210.84L220.23 199.37L209.65 196.24L201.87 204.58L204.67 216.05L215.25 219.18ZM246.39 185.82L243.59 174.34L233.00 171.20L225.22 179.55L228.01 191.02L238.60 194.16ZM228.01 191.02L225.22 179.55L214.63 176.42L206.85 184.76L209.65 196.24L220.23 199.37ZM254.77 220.24L251.98 208.77L241.39 205.63L233.61 213.97L236.40 225.44L246.98 228.58ZM236.40 225.44L233.61 213.97L223.03 210.84L215.25 219.18L218.05 230.64L228.62 233.78ZM259.77 200.43L256.97 188.95L246.39 185.82L238.60 194.16L241.39 205.63L251.98 208.77ZM2.36 71.50L-0.47 60.03L-11.05 56.95L-18.79 65.33L-15.96 76.79L-5.38 79.87ZM10.85 105.88L8.02 94.42L-2.55 91.33L-10.29 99.70L-7.46 111.16L3.11 114.25ZM15.76 86.05L12.93 74.58L2.36 71.50L-5.38 79.87L-2.55 91.33L8.02 94.42ZM3.69 -2.61L0.86 -14.08L-9.73 -17.16L-17.48 -8.77L-14.64 2.70L-4.06 5.78ZM17.11 11.95L14.28 0.48L3.69 -2.61L-4.06 5.78L-1.23 17.25L9.36 20.34ZM22.03 -7.91L19.20 -19.39L8.61 -22.47L0.86 -14.08L3.69 -2.61L14.28 0.48ZM41.19 189.15L38.37 177.70L27.81 174.60L20.07 182.96L22.89 194.41L33.45 197.50ZM22.89 194.41L20.07 182.96L9.51 179.87L1.78 188.22L4.60 199.66L15.16 202.76ZM46.11 169.35L43.29 157.89L32.72 154.79L24.98 163.15L27.81 174.60L38.37 177.70ZM27.81 174.60L24.98 163.15L14.42 160.06L6.68 168.42L9.51 179.87L20.07 182.96ZM54.57 203.70L51.75 192.25L41.19 189.15L33.45 197.50L36.27 208.95L46.83 212.05ZM36.27 208.95L33.45 197.50L22.89 194.41L15.16 202.76L17.98 214.20L28.54 217.30ZM59.50 183.90L56.68 172.44L46.11 169.35L38.37 177.70L41.19 189.15L51.75 192.25ZM4.60 199.66L1.78 188.22L-8.78 185.13L-16.50 193.48L-13.68 204.93L-3.12 208.02ZM9.51 179.87L6.68 168.42L-3.88 165.33L-11.61 173.68L-8.78 185.13L1.78 188.22ZM69.35 144.27L66.53 132.81L55.96 129.71L48.21 138.07L51.03 149.53L61.60 152.63ZM51.03 149.53L48.21 138.07L37.64 134.98L29.90 143.34L32.72 154.79L43.29 157.89ZM74.29 124.45L71.47 112.99L60.89 109.89L53.14 118.25L55.96 129.71L66.53 132.81ZM55.96 129.71L53.14 118.25L42.56 115.16L34.82 123.52L37.64 134.98L48.21 138.07ZM82.74 158.84L79.92 147.38L69.35 144.27L61.60 152.63L64.42 164.09L74.99 167.19ZM64.42 164.09L61.60 152.63L51.03 149.53L43.29 157.89L46.11 169.35L56.68 172.44ZM87.68 139.02L84.86 127.55L74.29 124.45L66.53 132.81L69.35 144.27L79.92 147.38ZM19.33 140.25L16.50 128.79L5.94 125.70L-1.80 134.07L1.03 145.52L11.59 148.61ZM1.03 145.52L-1.80 134.07L-12.36 130.98L-20.10 139.34L-17.26 150.79L-6.70 153.88ZM24.25 120.43L21.42 108.97L10.85 105.88L3.11 114.25L5.94 125.70L16.50 128.79ZM5.94 125.70L3.11 114.25L-7.46 111.16L-15.20 119.53L-12.36 130.98L-1.80 134.07ZM32.72 154.79L29.90 143.34L19.33 140.25L11.59 148.61L14.42 160.06L24.98 163.15ZM14.42 160.06L11.59 148.61L1.03 145.52L-6.70 153.88L-3.88 165.33L6.68 168.42ZM37.64 134.98L34.82 123.52L24.25 120.43L16.50 128.79L19.33 140.25L29.90 143.34ZM63.03 238.04L60.21 226.60L49.65 223.49L41.91 231.84L44.73 243.28L55.29 246.38ZM44.73 243.28L41.91 231.84L31.36 228.74L23.63 237.08L26.45 248.52L37.00 251.62ZM67.95 218.25L65.13 206.80L54.57 203.70L46.83 212.05L49.65 223.49L60.21 226.60ZM49.65 223.49L46.83 212.05L36.27 208.95L28.54 217.30L31.36 228.74L41.91 231.84ZM76.40 252.59L73.58 241.15L63.03 238.04L55.29 246.38L58.10 257.83L68.66 260.93ZM58.10 257.83L55.29 246.38L44.73 243.28L37.00 251.62L39.82 263.06L50.37 266.16ZM81.32 232.81L78.51 221.36L67.95 218.25L60.21 226.60L63.03 238.04L73.58 241.15ZM13.08 233.99L10.25 222.55L-0.30 219.46L-8.02 227.80L-5.20 239.24L5.35 242.33ZM17.98 214.20L15.16 202.76L4.60 199.66L-3.12 208.02L-0.30 219.46L10.25 222.55ZM26.45 248.52L23.63 237.08L13.08 233.99L5.35 242.33L8.17 253.77L18.72 256.87ZM8.17 253.77L5.35 242.33L-5.20 239.24L-12.92 247.58L-10.09 259.02L0.45 262.11ZM31.36 228.74L28.54 217.30L17.98 214.20L10.25 222.55L13.08 233.99L23.63 237.08ZM91.19 193.21L88.38 181.75L77.81 178.65L70.06 187.00L72.88 198.45L83.44 201.56ZM72.88 198.45L70.06 187.00L59.50 183.90L51.75 192.25L54.57 203.70L65.13 206.80ZM96.13 173.40L93.31 161.94L82.74 158.84L74.99 167.19L77.81 178.65L88.38 181.75ZM77.81 178.65L74.99 167.19L64.42 164.09L56.68 172.44L59.50 183.90L70.06 187.00ZM104.57 207.78L101.76 196.32L91.19 193.21L83.44 201.56L86.26 213.01L96.82 216.12ZM86.26 213.01L83.44 201.56L72.88 198.45L65.13 206.80L67.95 218.25L78.51 221.36ZM109.51 187.97L106.70 176.51L96.13 173.40L88.38 181.75L91.19 193.21L101.76 196.32ZM75.70 50.37L72.87 38.89L62.29 35.79L54.53 44.17L57.35 55.64L67.94 58.74ZM57.35 55.64L54.53 44.17L43.94 41.08L36.18 49.46L39.01 60.92L49.59 64.02ZM80.64 30.51L77.82 19.03L67.23 15.93L59.46 24.32L62.29 35.79L72.87 38.89ZM62.29 35.79L59.46 24.32L48.87 21.22L41.11 29.60L43.94 41.08L54.53 44.17ZM89.11 64.94L86.29 53.47L75.70 50.37L67.94 58.74L70.76 70.21L81.34 73.31ZM70.76 70.21L67.94 58.74L57.35 55.64L49.59 64.02L52.42 75.49L63.00 78.58ZM94.05 45.09L91.23 33.61L80.64 30.51L72.87 38.89L75.70 50.37L86.29 53.47ZM25.60 46.36L22.77 34.89L12.19 31.81L4.44 40.19L7.27 51.65L17.85 54.74ZM7.27 51.65L4.44 40.19L-6.14 37.10L-13.88 45.49L-11.05 56.95L-0.47 60.03ZM30.53 26.51L27.70 15.04L17.11 11.95L9.36 20.34L12.19 31.81L22.77 34.89ZM12.19 31.81L9.36 20.34L-1.23 17.25L-8.97 25.64L-6.14 37.10L4.44 40.19ZM39.01 60.92L36.18 49.46L25.60 46.36L17.85 54.74L20.68 66.21L31.26 69.30ZM20.68 66.21L17.85 54.74L7.27 51.65L-0.47 60.03L2.36 71.50L12.93 74.58ZM43.94 41.08L41.11 29.60L30.53 26.51L22.77 34.89L25.60 46.36L36.18 49.46ZM103.96 5.37L101.13 -6.12L90.54 -9.22L82.76 -0.83L85.59 10.65L96.18 13.75ZM85.59 10.65L82.76 -0.83L72.17 -3.93L64.40 4.45L67.23 15.93L77.82 19.03ZM117.37 19.96L114.55 8.47L103.96 5.37L96.18 13.75L99.00 25.23L109.60 28.34ZM99.00 25.23L96.18 13.75L85.59 10.65L77.82 19.03L80.64 30.51L91.23 33.61ZM122.33 0.09L119.51 -11.40L108.91 -14.50L101.13 -6.12L103.96 5.37L114.55 8.47ZM53.81 1.36L50.98 -10.12L40.39 -13.21L32.62 -4.82L35.45 6.65L46.04 9.75ZM35.45 6.65L32.62 -4.82L22.03 -7.91L14.28 0.48L17.11 11.95L27.70 15.04ZM67.23 15.93L64.40 4.45L53.81 1.36L46.04 9.75L48.87 21.22L59.46 24.32ZM48.87 21.22L46.04 9.75L35.45 6.65L27.70 15.04L30.53 26.51L41.11 29.60ZM72.17 -3.93L69.34 -15.41L58.74 -18.51L50.98 -10.12L53.81 1.36L64.40 4.45ZM97.56 99.36L94.75 87.89L84.16 84.78L76.40 93.15L79.22 104.62L89.80 107.72ZM79.22 104.62L76.40 93.15L65.82 90.05L58.07 98.42L60.89 109.89L71.47 112.99ZM102.51 79.52L99.69 68.04L89.11 64.94L81.34 73.31L84.16 84.78L94.75 87.89ZM84.16 84.78L81.34 73.31L70.76 70.21L63.00 78.58L65.82 90.05L76.40 93.15ZM110.96 113.94L108.15 102.47L97.56 99.36L89.80 107.72L92.62 119.19L103.20 122.30ZM92.62 119.19L89.80 107.72L79.22 104.62L71.47 112.99L74.29 124.45L84.86 127.55ZM115.91 94.10L113.10 82.63L102.51 79.52L94.75 87.89L97.56 99.36L108.15 102.47ZM47.49 95.33L44.66 83.86L34.09 80.77L26.34 89.14L29.16 100.60L39.74 103.69ZM29.16 100.60L26.34 89.14L15.76 86.05L8.02 94.42L10.85 105.88L21.42 108.97ZM52.42 75.49L49.59 64.02L39.01 60.92L31.26 69.30L34.09 80.77L44.66 83.86ZM34.09 80.77L31.26 69.30L20.68 66.21L12.93 74.58L15.76 86.05L26.34 89.14ZM60.89 109.89L58.07 98.42L47.49 95.33L39.74 103.69L42.56 115.16L53.14 118.25ZM42.56 115.16L39.74 103.69L29.16 100.60L21.42 108.97L24.25 120.43L34.82 123.52ZM65.82 90.05L63.00 78.58L52.42 75.49L44.66 83.86L47.49 95.33L58.07 98.42ZM125.83 54.41L123.01 42.92L112.42 39.82L104.64 48.19L107.46 59.67L118.05 62.78ZM107.46 59.67L104.64 48.19L94.05 45.09L86.29 53.47L89.11 64.94L99.69 68.04ZM130.79 34.55L127.97 23.06L117.37 19.96L109.60 28.34L112.42 39.82L123.01 42.92ZM112.42 39.82L109.60 28.34L99.00 25.23L91.23 33.61L94.05 45.09L104.64 48.19ZM139.23 69.00L136.42 57.52L125.83 54.41L118.05 62.78L120.87 74.26L131.46 77.37ZM120.87 74.26L118.05 62.78L107.46 59.67L99.69 68.04L102.51 79.52L113.10 82.63ZM144.20 49.14L141.38 37.66L130.79 34.55L123.01 42.92L125.83 54.41L136.42 57.52Z"/></svg>
