<svg xmlns="http://www.w3.org/2000/svg" width="256" height="256" viewBox="0 0 256 256"><path data-band="2" fill="#f97316" fill-opacity="0.35" d="M271.63 234.88L268.85 223.44L258.31 220.30L250.55 228.58L253.33 240.02L263.87 243.17ZM253.33 240.02L250.55 228.58L240.01 225.44L232.26 233.73L235.04 245.16L245.58 248.30ZM276.61 215.16L273.83 203.72L263.29 200.57L255.53 208.86L258.31 220.30L268.85 223.44ZM258.31 220.30L255.53 208.86L244.98 205.71L237.23 214.01L240.01 225.44L250.55 228.58ZM266.65 254.60L263.87 243.17L253.33 240.02L245.58 248.30L248.36 259.73L258.90 262.88ZM100.26 173.31L97.45 161.89L86.92 158.77L79.20 167.08L82.01 178.50L92.53 181.61ZM82.01 178.50L79.20 167.08L68.67 163.97L60.95 172.27L63.76 183.69L74.29 186.80ZM105.18 153.58L102.38 142.15L91.84 139.04L84.12 147.35L86.92 158.77L97.45 161.89ZM86.92 158.77L84.12 147.35L73.58 144.23L65.86 152.54L68.67 163.97L79.20 167.08ZM113.59 187.85L110.79 176.43L100.26 173.31L92.53 181.61L95.34 193.03L105.87 196.15ZM95.34 193.03L92.53 181.61L82.01 178.50L74.29 186.80L77.09 198.22L87.62 201.33ZM118.52 168.12L115.72 156.70L105.18 153.58L97.45 161.89L100.26 173.31L110.79 176.43ZM50.43 169.16L47.61 157.75L37.09 154.64L29.38 162.95L32.19 174.36L42.71 177.47ZM32.19 174.36L29.38 162.95L18.85 159.85L11.15 168.16L13.96 179.57L24.48 182.67ZM55.33 149.44L52.52 138.01L41.99 134.91L34.27 143.22L37.09 154.64L47.61 157.75ZM37.09 154.64L34.27 143.22L23.75 140.12L16.04 148.43L18.85 159.85L29.38 162.95ZM63.76 183.69L60.95 172.27L50.43 169.16L42.71 177.47L45.52 188.88L56.04 191.99ZM45.52 188.88L42.71 177.47L32.19 174.36L24.48 182.67L27.29 194.08L37.81 197.19ZM68.67 163.97L65.86 152.54L55.33 149.44L47.61 157.75L50.43 169.16L60.95 172.27ZM128.39 128.65L125.58 117.22L115.04 114.10L107.31 122.41L110.11 133.84L120.65 136.96ZM110.11 133.84L107.31 122.41L96.77 119.30L89.04 127.61L91.84 139.04L102.38 142.15ZM133.32 108.90L130.52 97.47L119.98 94.35L112.24 102.66L115.04 114.10L125.58 117.22ZM115.04 114.10L112.24 102.66L101.69 99.55L93.96 107.87L96.77 119.30L107.31 122.41ZM141.73 143.20L138.93 131.77L128.39 128.65L120.65 136.96L123.45 148.39L133.99 151.51ZM123.45 148.39L120.65 136.96L110.11 133.84L102.38 142.15L105.18 153.58L115.72 156.70ZM146.67 123.46L143.87 112.02L133.32 108.90L125.58 117.22L128.39 128.65L138.93 131.77ZM78.50 124.50L75.69 113.07L65.15 109.96L57.43 118.28L60.24 129.70L70.77 132.81ZM60.24 129.70L57.43 118.28L46.90 115.17L39.18 123.49L41.99 134.91L52.52 138.01ZM83.42 104.75L80.61 93.32L70.07 90.21L62.34 98.53L65.15 109.96L75.69 113.07ZM65.15 109.96L62.34 98.53L51.80 95.42L44.08 103.75L46.90 115.17L57.43 118.28ZM91.84 139.04L89.04 127.61L78.50 124.50L70.77 132.81L73.58 144.23L84.12 147.35ZM73.58 144.23L70.77 132.81L60.24 129.70L52.52 138.01L55.33 149.44L65.86 152.54ZM96.77 119.30L93.96 107.87L83.42 104.75L75.69 113.07L78.50 124.50L89.04 127.61ZM121.99 222.11L119.19 210.69L108.67 207.57L100.94 215.87L103.75 227.28L114.27 230.40ZM103.75 227.28L100.94 215.87L90.42 212.75L82.70 221.05L85.51 232.46L96.03 235.58ZM126.92 202.39L124.12 190.97L113.59 187.85L105.87 196.15L108.67 207.57L119.19 210.69ZM108.67 207.57L105.87 196.15L95.34 193.03L87.62 201.33L90.42 212.75L100.94 215.87ZM135.32 236.65L132.52 225.23L121.99 222.11L114.27 230.40L117.07 241.82L127.59 244.94ZM117.07 241.82L114.27 230.40L103.75 227.28L96.03 235.58L98.83 246.99L109.35 250.11ZM140.25 216.94L137.45 205.52L126.92 202.39L119.19 210.69L121.99 222.11L132.52 225.23ZM72.18 217.93L69.37 206.52L58.85 203.41L51.14 211.71L53.95 223.12L64.47 226.23ZM53.95 223.12L51.14 211.71L40.62 208.60L32.92 216.90L35.73 228.30L46.24 231.41ZM77.09 198.22L74.29 186.80L63.76 183.69L56.04 191.99L58.85 203.41L69.37 206.52ZM58.85 203.41L56.04 191.99L45.52 188.88L37.81 197.19L40.62 208.60L51.14 211.71ZM85.51 232.46L82.70 221.05L72.18 217.93L64.47 226.23L67.27 237.64L77.79 240.75ZM67.27 237.64L64.47 226.23L53.95 223.12L46.24 231.41L49.05 242.82L59.56 245.93ZM90.42 212.75L87.62 201.33L77.09 198.22L69.37 206.52L72.18 217.93L82.70 221.05ZM150.13 177.49L147.33 166.07L136.79 162.94L129.05 171.24L131.85 182.67L142.39 185.79ZM131.85 182.67L129.05 171.24L118.52 168.12L110.79 176.43L113.59 187.85L124.12 190.97ZM155.07 157.76L152.27 146.33L141.73 143.20L133.99 151.51L136.79 162.94L147.33 166.07ZM136.79 162.94L133.99 151.51L123.45 148.39L115.72 156.70L118.52 168.12L129.05 171.24ZM163.46 192.05L160.66 180.62L150.13 177.49L142.39 185.79L145.19 197.22L155.72 200.35ZM145.19 197.22L142.39 185.79L131.85 182.67L124.12 190.97L126.92 202.39L137.45 205.52ZM168.40 172.32L165.61 160.89L155.07 157.76L147.33 166.07L150.13 177.49L160.66 180.62ZM0.62 165.06L-2.19 153.64L-12.71 150.55L-20.41 158.86L-17.59 170.27L-7.08 173.37ZM5.51 145.33L2.70 133.92L-7.83 130.82L-15.53 139.14L-12.71 150.55L-2.19 153.64ZM13.96 179.57L11.15 168.16L0.62 165.06L-7.08 173.37L-4.26 184.77L6.26 187.87ZM18.85 159.85L16.04 148.43L5.51 145.33L-2.19 153.64L0.62 165.06L11.15 168.16ZM12.63 253.19L9.81 241.79L-0.70 238.69L-8.39 246.98L-5.57 258.38L4.93 261.48ZM22.40 213.79L19.59 202.38L9.07 199.28L1.37 207.58L4.19 218.99L14.70 222.09ZM4.19 218.99L1.37 207.58L-9.14 204.48L-16.84 212.79L-14.02 224.19L-3.51 227.29ZM27.29 194.08L24.48 182.67L13.96 179.57L6.26 187.87L9.07 199.28L19.59 202.38ZM9.07 199.28L6.26 187.87L-4.26 184.77L-11.96 193.08L-9.14 204.48L1.37 207.58ZM35.73 228.30L32.92 216.90L22.40 213.79L14.70 222.09L17.51 233.49L28.02 236.60ZM17.51 233.49L14.70 222.09L4.19 218.99L-3.51 227.29L-0.70 238.69L9.81 241.79ZM40.62 208.60L37.81 197.19L27.29 194.08L19.59 202.38L22.40 213.79L32.92 216.90ZM134.80 35.05L131.99 23.60L121.43 20.49L113.69 28.82L116.49 40.26L127.05 43.38ZM116.49 40.26L113.69 28.82L103.13 25.70L95.39 34.03L98.20 45.48L108.75 48.59ZM139.74 15.27L136.94 3.82L126.38 0.70L118.63 9.04L121.43 20.49L131.99 23.60ZM121.43 20.49L118.63 9.04L108.07 5.92L100.32 14.26L103.13 25.70L113.69 28.82ZM148.16 49.62L145.35 38.17L134.80 35.05L127.05 43.38L129.85 54.82L140.41 57.94ZM129.85 54.82L127.05 43.38L116.49 40.26L108.75 48.59L111.56 60.03L122.11 63.15ZM153.11 29.84L150.30 18.39L139.74 15.27L131.99 23.60L134.80 35.05L145.35 38.17ZM84.84 30.92L82.02 19.48L71.47 16.37L63.74 24.71L66.55 36.15L77.10 39.25ZM66.55 36.15L63.74 24.71L53.19 21.60L45.46 29.94L48.27 41.37L58.82 44.48ZM89.77 11.15L86.95 -0.30L76.40 -3.41L68.66 4.93L71.47 16.37L82.02 19.48ZM71.47 16.37L68.66 4.93L58.10 1.83L50.37 10.16L53.19 21.60L63.74 24.71ZM98.20 45.48L95.39 34.03L84.84 30.92L77.10 39.25L79.91 50.69L90.46 53.80ZM79.91 50.69L77.10 39.25L66.55 36.15L58.82 44.48L61.63 55.91L72.18 59.02ZM103.13 25.70L100.32 14.26L89.77 11.15L82.02 19.48L84.84 30.92L95.39 34.03ZM144.69 -4.52L141.89 -15.97L131.32 -19.09L123.57 -10.75L126.38 0.70L136.94 3.82ZM176.39 4.85L173.59 -6.61L163.02 -9.73L155.26 -1.40L158.06 10.06L168.63 13.18ZM158.06 10.06L155.26 -1.40L144.69 -4.52L136.94 3.82L139.74 15.27L150.30 18.39ZM126.38 0.70L123.57 -10.75L113.01 -13.86L105.26 -5.53L108.07 5.92L118.63 9.04ZM108.07 5.92L105.26 -5.53L94.70 -8.64L86.95 -0.30L89.77 11.15L100.32 14.26ZM156.56 83.95L153.76 72.51L143.21 69.39L135.46 77.71L138.27 89.15L148.81 92.27ZM138.27 89.15L135.46 77.71L124.91 74.59L117.17 82.91L119.98 94.35L130.52 97.47ZM161.52 64.19L158.71 52.74L148.16 49.62L140.41 57.94L143.21 69.39L153.76 72.51ZM143.21 69.39L140.41 57.94L129.85 54.82L122.11 63.15L124.91 74.59L135.46 77.71ZM169.91 98.52L167.12 87.08L156.56 83.95L148.81 92.27L151.62 103.71L162.16 106.83ZM151.62 103.71L148.81 92.27L138.27 89.15L130.52 97.47L133.32 108.90L143.87 112.02ZM174.87 78.76L172.07 67.31L161.52 64.19L153.76 72.51L156.56 83.95L167.12 87.08ZM106.62 79.79L103.82 68.35L93.27 65.24L85.53 73.57L88.34 85.00L98.89 88.11ZM88.34 85.00L85.53 73.57L74.99 70.46L67.26 78.78L70.07 90.21L80.61 93.32ZM111.56 60.03L108.75 48.59L98.20 45.48L90.46 53.80L93.27 65.24L103.82 68.35ZM93.27 65.24L90.46 53.80L79.91 50.69L72.18 59.02L74.99 70.46L85.53 73.57ZM119.98 94.35L117.17 82.91L106.62 79.79L98.89 88.11L101.69 99.55L112.24 102.66ZM101.69 99.55L98.89 88.11L88.34 85.00L80.61 93.32L83.42 104.75L93.96 107.87ZM124.91 74.59L122.11 63.15L111.56 60.03L103.82 68.35L106.62 79.79L117.17 82.91ZM184.79 39.22L181.99 27.76L171.43 24.64L163.67 32.96L166.47 44.42L177.03 47.54ZM166.47 44.42L163.67 32.96L153.11 29.84L145.35 38.17L148.16 49.62L158.71 52.74ZM189.76 19.43L186.96 7.98L176.39 4.85L168.63 13.18L171.43 24.64L181.99 27.76ZM171.43 24.64L168.63 13.18L158.06 10.06L150.30 18.39L153.11 29.84L163.67 32.96ZM198.15 53.80L195.35 42.35L184.79 39.22L177.03 47.54L179.83 58.99L190.39 62.12ZM179.83 58.99L177.03 47.54L166.47 44.42L158.71 52.74L161.52 64.19L172.07 67.31ZM203.12 34.02L200.32 22.56L189.76 19.43L181.99 27.76L184.79 39.22L195.35 42.35ZM6.84 71.59L4.02 60.17L-6.51 57.07L-14.23 65.40L-11.40 76.82L-0.87 79.92ZM11.74 51.84L8.92 40.41L-1.62 37.31L-9.34 45.65L-6.51 57.07L4.02 60.17ZM20.20 86.12L17.38 74.69L6.84 71.59L-0.87 79.92L1.95 91.34L12.48 94.44ZM1.95 91.34L-0.87 79.92L-11.40 76.82L-19.11 85.15L-16.29 96.57L-5.76 99.67ZM25.10 66.36L22.28 54.93L11.74 51.84L4.02 60.17L6.84 71.59L17.38 74.69ZM34.91 26.84L32.09 15.40L21.54 12.30L13.82 20.64L16.64 32.07L27.18 35.17ZM16.64 32.07L13.82 20.64L3.28 17.54L-4.44 25.88L-1.62 37.31L8.92 40.41ZM39.82 7.06L37.00 -4.38L26.45 -7.48L18.72 0.87L21.54 12.30L32.09 15.40ZM21.54 12.30L18.72 0.87L8.17 -2.23L0.45 6.11L3.28 17.54L13.82 20.64ZM48.27 41.37L45.46 29.94L34.91 26.84L27.18 35.17L30.00 46.60L40.54 49.70ZM30.00 46.60L27.18 35.17L16.64 32.07L8.92 40.41L11.74 51.84L22.28 54.93ZM53.19 21.60L50.37 10.16L39.82 7.06L32.09 15.40L34.91 26.84L45.46 29.94ZM3.28 17.54L0.45 6.11L-10.09 3.02L-17.81 11.36L-14.98 22.79L-4.44 25.88ZM28.65 120.38L25.83 108.96L15.30 105.86L7.59 114.18L10.40 125.60L20.93 128.70ZM10.40 125.60L7.59 114.18L-2.94 111.08L-10.65 119.40L-7.83 130.82L2.70 133.92ZM33.55 100.64L30.73 89.22L20.20 86.12L12.48 94.44L15.30 105.86L25.83 108.96ZM15.30 105.86L12.48 94.44L1.95 91.34L-5.76 99.67L-2.94 111.08L7.59 114.18ZM41.99 134.91L39.18 123.49L28.65 120.38L20.93 128.70L23.75 140.12L34.27 143.22ZM23.75 140.12L20.93 128.70L10.40 125.60L2.70 133.92L5.51 145.33L16.04 148.43ZM46.90 115.17L44.08 103.75L33.55 100.64L25.83 108.96L28.65 120.38L39.18 123.49ZM56.72 75.67L53.90 64.24L43.36 61.14L35.64 69.46L38.45 80.89L48.99 84.00ZM38.45 80.89L35.64 69.46L25.10 66.36L17.38 74.69L20.20 86.12L30.73 89.22ZM61.63 55.91L58.82 44.48L48.27 41.37L40.54 49.70L43.36 61.14L53.90 64.24ZM43.36 61.14L40.54 49.70L30.00 46.60L22.28 54.93L25.10 66.36L35.64 69.46ZM70.07 90.21L67.26 78.78L56.72 75.67L48.99 84.00L51.80 95.42L62.34 98.53ZM51.80 95.42L48.99 84.00L38.45 80.89L30.73 89.22L33.55 100.64L44.08 103.75ZM74.99 70.46L72.18 59.02L61.63 55.91L53.90 64.24L56.72 75.67L67.26 78.78ZM198.48 255.44L195.69 244.02L185.16 240.88L177.43 249.17L180.22 260.59L190.74 263.73ZM180.22 260.59L177.43 249.17L166.90 246.04L159.16 254.33L161.96 265.74L172.48 268.88ZM211.80 270.01L209.01 258.58L198.48 255.44L190.74 263.73L193.53 275.15L204.06 278.29ZM148.64 251.20L145.84 239.78L135.32 236.65L127.59 244.94L130.39 256.36L140.91 259.48ZM130.39 256.36L127.59 244.94L117.07 241.82L109.35 250.11L112.15 261.52L122.67 264.64ZM161.96 265.74L159.16 254.33L148.64 251.20L140.91 259.48L143.71 270.90L154.23 274.03ZM221.72 230.58L218.93 219.15L208.40 216.01L200.65 224.31L203.44 235.73L213.97 238.87ZM203.44 235.73L200.65 224.31L190.11 221.17L182.37 229.46L185.16 240.88L195.69 244.02ZM226.68 210.86L223.90 199.43L213.36 196.29L205.61 204.58L208.40 216.01L218.93 219.15ZM208.40 216.01L205.61 204.58L195.07 201.45L187.32 209.74L190.11 221.17L200.65 224.31ZM235.04 245.16L232.26 233.73L221.72 230.58L213.97 238.87L216.76 250.30L227.29 253.44ZM216.76 250.30L213.97 238.87L203.44 235.73L195.69 244.02L198.48 255.44L209.01 258.58ZM240.01 225.44L237.23 214.01L226.68 210.86L218.93 219.15L221.72 230.58L232.26 233.73ZM171.84 226.33L169.05 214.90L158.52 211.77L150.78 220.07L153.58 231.49L164.10 234.62ZM153.58 231.49L150.78 220.07L140.25 216.94L132.52 225.23L135.32 236.65L145.84 239.78ZM176.79 206.61L173.99 195.18L163.46 192.05L155.72 200.35L158.52 211.77L169.05 214.90ZM158.52 211.77L155.72 200.35L145.19 197.22L137.45 205.52L140.25 216.94L150.78 220.07ZM185.16 240.88L182.37 229.46L171.84 226.33L164.10 234.62L166.90 246.04L177.43 249.17ZM166.90 246.04L164.10 234.62L153.58 231.49L145.84 239.78L148.64 251.20L159.16 254.33ZM190.11 221.17L187.32 209.74L176.79 206.61L169.05 214.90L171.84 226.33L182.37 229.46ZM248.36 259.73L245.58 248.30L235.04 245.16L227.29 253.44L230.08 264.87L240.61 268.01ZM230.08 264.87L227.29 253.44L216.76 250.30L209.01 258.58L211.80 270.01L222.33 273.15ZM93.91 266.69L91.11 255.28L80.59 252.16L72.88 260.45L75.69 271.85L86.20 274.97ZM98.83 246.99L96.03 235.58L85.51 232.46L77.79 240.75L80.59 252.16L91.11 255.28ZM80.59 252.16L77.79 240.75L67.27 237.64L59.56 245.93L62.37 257.34L72.88 260.45ZM112.15 261.52L109.35 250.11L98.83 246.99L91.11 255.28L93.91 266.69L104.43 269.81ZM44.15 262.51L41.34 251.11L30.83 248.00L23.13 256.30L25.94 267.69L36.45 270.80ZM25.94 267.69L23.13 256.30L12.63 253.19L4.93 261.48L7.74 272.88L18.25 275.98ZM49.05 242.82L46.24 231.41L35.73 228.30L28.02 236.60L30.83 248.00L41.34 251.11ZM30.83 248.00L28.02 236.60L17.51 233.49L9.81 241.79L12.63 253.19L23.13 256.30ZM62.37 257.34L59.56 245.93L49.05 242.82L41.34 251.11L44.15 262.51L54.66 265.63ZM228.26 137.07L225.47 125.63L214.92 122.49L207.16 130.80L209.95 142.24L220.50 145.38ZM209.95 142.24L207.16 130.80L196.61 127.66L188.85 135.97L191.65 147.41L202.19 150.54ZM233.23 117.32L230.44 105.87L219.89 102.73L212.12 111.05L214.92 122.49L225.47 125.63ZM214.92 122.49L212.12 111.05L201.57 107.91L193.81 116.22L196.61 127.66L207.16 130.80ZM241.60 151.66L238.81 140.21L228.26 137.07L220.50 145.38L223.29 156.82L233.84 159.96ZM223.29 156.82L220.50 145.38L209.95 142.24L202.19 150.54L204.99 161.98L215.53 165.12ZM246.58 131.91L243.79 120.46L233.23 117.32L225.47 125.63L228.26 137.07L238.81 140.21ZM178.31 132.84L175.51 121.40L164.96 118.27L157.21 126.59L160.01 138.02L170.56 141.15ZM160.01 138.02L157.21 126.59L146.67 123.46L138.93 131.77L141.73 143.20L152.27 146.33ZM183.26 113.09L180.47 101.65L169.91 98.52L162.16 106.83L164.96 118.27L175.51 121.40ZM164.96 118.27L162.16 106.83L151.62 103.71L143.87 112.02L146.67 123.46L157.21 126.59ZM191.65 147.41L188.85 135.97L178.31 132.84L170.56 141.15L173.35 152.58L183.90 155.72ZM173.35 152.58L170.56 141.15L160.01 138.02L152.27 146.33L155.07 157.76L165.61 160.89ZM196.61 127.66L193.81 116.22L183.26 113.09L175.51 121.40L178.31 132.84L188.85 135.97ZM256.54 92.39L253.75 80.93L243.19 77.79L235.42 86.11L238.21 97.56L248.77 100.70ZM238.21 97.56L235.42 86.11L224.86 82.97L217.09 91.29L219.89 102.73L230.44 105.87ZM261.53 72.62L258.74 61.16L248.18 58.02L240.40 66.34L243.19 77.79L253.75 80.93ZM243.19 77.79L240.40 66.34L229.84 63.20L222.07 71.52L224.86 82.97L235.42 86.11ZM269.89 106.99L267.11 95.53L256.54 92.39L248.77 100.70L251.56 112.15L262.12 115.30ZM251.56 112.15L248.77 100.70L238.21 97.56L230.44 105.87L233.23 117.32L243.79 120.46ZM274.88 87.22L272.10 75.76L261.53 72.62L253.75 80.93L256.54 92.39L267.11 95.53ZM206.54 88.15L203.74 76.70L193.18 73.57L185.42 81.89L188.22 93.33L198.78 96.47ZM188.22 93.33L185.42 81.89L174.87 78.76L167.12 87.08L169.91 98.52L180.47 101.65ZM211.51 68.38L208.71 56.93L198.15 53.80L190.39 62.12L193.18 73.57L203.74 76.70ZM193.18 73.57L190.39 62.12L179.83 58.99L172.07 67.31L174.87 78.76L185.42 81.89ZM219.89 102.73L217.09 91.29L206.54 88.15L198.78 96.47L201.57 107.91L212.12 111.05ZM201.57 107.91L198.78 96.47L188.22 93.33L180.47 101.65L183.26 113.09L193.81 116.22ZM224.86 82.97L222.07 71.52L211.51 68.38L203.74 76.70L206.54 88.15L217.09 91.29ZM249.96 185.98L247.17 174.54L236.62 171.40L228.87 179.70L231.65 191.13L242.20 194.28ZM231.65 191.13L228.87 179.70L218.32 176.56L210.57 184.86L213.36 196.29L223.90 199.43ZM254.94 166.24L252.15 154.80L241.60 151.66L233.84 159.96L236.62 171.40L247.17 174.54ZM236.62 171.40L233.84 159.96L223.29 156.82L215.53 165.12L218.32 176.56L228.87 179.70ZM263.29 200.57L260.50 189.13L249.96 185.98L242.20 194.28L244.98 205.71L255.53 208.86ZM244.98 205.71L242.20 194.28L231.65 191.13L223.90 199.43L226.68 210.86L237.23 214.01ZM268.27 180.83L265.49 169.39L254.94 166.24L247.17 174.54L249.96 185.98L260.50 189.13ZM200.03 181.72L197.23 170.28L186.69 167.15L178.94 175.45L181.74 186.88L192.28 190.02ZM181.74 186.88L178.94 175.45L168.40 172.32L160.66 180.62L163.46 192.05L173.99 195.18ZM204.99 161.98L202.19 150.54L191.65 147.41L183.90 155.72L186.69 167.15L197.23 170.28ZM186.69 167.15L183.90 155.72L173.35 152.58L165.61 160.89L168.40 172.32L178.94 175.45ZM213.36 196.29L210.57 184.86L200.03 181.72L192.28 190.02L195.07 201.45L205.61 204.58ZM195.07 201.45L192.28 190.02L181.74 186.88L173.99 195.18L176.79 206.61L187.32 209.74ZM218.32 176.56L215.53 165.12L204.99 161.98L197.23 170.28L200.03 181.72L210.57 184.86ZM259.92 146.50L257.13 135.05L246.58 131.91L238.81 140.21L241.60 151.66L252.15 154.80ZM264.90 126.75L262.12 115.30L251.56 112.15L243.79 120.46L246.58 131.91L257.13 135.05ZM273.26 161.09L270.47 149.65L259.92 146.50L252.15 154.80L254.94 166.24L265.49 169.39ZM263.15 -1.34L260.36 -12.81L249.78 -15.95L241.99 -7.62L244.79 3.85L255.36 6.98ZM244.79 3.85L241.99 -7.62L231.42 -10.76L223.64 -2.42L226.44 9.04L237.01 12.17ZM276.51 13.27L273.73 1.80L263.15 -1.34L255.36 6.98L258.15 18.45L268.73 21.59ZM258.15 18.45L255.36 6.98L244.79 3.85L237.01 12.17L239.80 23.64L250.37 26.78ZM213.07 -5.56L210.27 -17.02L199.70 -20.15L191.92 -11.82L194.72 -0.35L205.29 2.77ZM194.72 -0.35L191.92 -11.82L181.35 -14.94L173.59 -6.61L176.39 4.85L186.96 7.98ZM226.44 9.04L223.64 -2.42L213.07 -5.56L205.29 2.77L208.09 14.24L218.66 17.37ZM208.09 14.24L205.29 2.77L194.72 -0.35L186.96 7.98L189.76 19.43L200.32 22.56ZM266.52 52.84L263.73 41.38L253.16 38.24L245.38 46.56L248.18 58.02L258.74 61.16ZM271.52 33.06L268.73 21.59L258.15 18.45L250.37 26.78L253.16 38.24L263.73 41.38ZM234.82 43.42L232.02 31.96L221.46 28.83L213.68 37.15L216.48 48.61L227.04 51.74ZM216.48 48.61L213.68 37.15L203.12 34.02L195.35 42.35L198.15 53.80L208.71 56.93ZM239.80 23.64L237.01 12.17L226.44 9.04L218.66 17.37L221.46 28.83L232.02 31.96ZM221.46 28.83L218.66 17.37L208.09 14.24L200.32 22.56L203.12 34.02L213.68 37.15ZM248.18 58.02L245.38 46.56L234.82 43.42L227.04 51.74L229.84 63.20L240.40 66.34ZM229.84 63.20L227.04 51.74L216.48 48.61L208.71 56.93L211.51 68.38L222.07 71.52ZM253.16 38.24L250.37 26.78L239.80 23.64L232.02 31.96L234.82 43.42L245.38 46.56ZM76.40 -3.41L73.58 -14.85L63.03 -17.96L55.29 -9.62L58.10 1.83L68.66 4.93ZM58.10 1.83L55.29 -9.62L44.73 -12.72L37.00 -4.38L39.82 7.06L50.37 10.16ZM26.45 -7.48L23.63 -18.92L13.08 -22.01L5.35 -13.67L8.17 -2.23L18.72 0.87ZM8.17 -2.23L5.35 -13.67L-5.20 -16.76L-12.92 -8.42L-10.09 3.02L0.45 6.11Z"/></svg>
