<svg xmlns="http://www.w3.org/2000/svg" width="256" height="256" viewBox="0 0 256 256"><path data-band="2" fill="#f97316" fill-opacity="0.35" d="M251.91 258.65L249.13 247.26L238.64 244.11L230.92 252.34L233.69 263.73L244.18 266.89ZM233.69 263.73L230.92 252.34L220.42 249.19L212.71 257.43L215.48 268.82L225.97 271.97ZM256.86 239.03L254.09 227.63L243.59 224.48L235.86 232.72L238.64 244.11L249.13 247.26ZM238.64 244.11L235.86 232.72L225.37 229.56L217.65 237.80L220.42 249.19L230.92 252.34ZM270.13 253.58L267.36 242.18L256.86 239.03L249.13 247.26L251.91 258.65L262.40 261.81ZM202.21 254.28L199.44 242.90L188.94 239.75L181.23 247.99L184.01 259.37L194.50 262.52ZM184.01 259.37L181.23 247.99L170.75 244.85L163.04 253.09L165.82 264.47L176.31 267.61ZM207.15 234.66L204.37 223.27L193.88 220.12L186.16 228.36L188.94 239.75L199.44 242.90ZM188.94 239.75L186.16 228.36L175.67 225.22L167.96 233.46L170.75 244.85L181.23 247.99ZM215.48 268.82L212.71 257.43L202.21 254.28L194.50 262.52L197.28 273.90L207.77 277.05ZM220.42 249.19L217.65 237.80L207.15 234.66L199.44 242.90L202.21 254.28L212.71 257.43ZM261.82 219.39L259.05 207.99L248.54 204.84L240.82 213.08L243.59 224.48L254.09 227.63ZM266.78 199.75L264.01 188.34L253.50 185.19L245.77 193.44L248.54 204.84L259.05 207.99ZM275.09 233.95L272.32 222.55L261.82 219.39L254.09 227.63L256.86 239.03L267.36 242.18ZM230.31 209.93L227.54 198.53L217.04 195.38L209.31 203.63L212.09 215.02L222.59 218.17ZM212.09 215.02L209.31 203.63L198.81 200.48L191.10 208.73L193.88 220.12L204.37 223.27ZM235.26 190.28L232.49 178.88L221.98 175.73L214.26 183.99L217.04 195.38L227.54 198.53ZM217.04 195.38L214.26 183.99L203.75 180.84L196.03 189.09L198.81 200.48L209.31 203.63ZM243.59 224.48L240.82 213.08L230.31 209.93L222.59 218.17L225.37 229.56L235.86 232.72ZM225.37 229.56L222.59 218.17L212.09 215.02L204.37 223.27L207.15 234.66L217.65 237.80ZM248.54 204.84L245.77 193.44L235.26 190.28L227.54 198.53L230.31 209.93L240.82 213.08ZM79.87 270.38L77.08 259.01L66.60 255.89L58.92 264.13L61.72 275.49L72.19 278.62ZM152.55 249.95L149.77 238.57L139.28 235.43L131.59 243.67L134.37 255.05L144.85 258.19ZM134.37 255.05L131.59 243.67L121.10 240.54L113.41 248.78L116.20 260.16L126.68 263.29ZM157.47 230.32L154.69 218.94L144.20 215.80L136.50 224.05L139.28 235.43L149.77 238.57ZM139.28 235.43L136.50 224.05L126.01 220.92L118.31 229.16L121.10 240.54L131.59 243.67ZM165.82 264.47L163.04 253.09L152.55 249.95L144.85 258.19L147.64 269.56L158.12 272.70ZM147.64 269.56L144.85 258.19L134.37 255.05L126.68 263.29L129.46 274.66L139.94 277.80ZM170.75 244.85L167.96 233.46L157.47 230.32L149.77 238.57L152.55 249.95L163.04 253.09ZM102.93 245.65L100.14 234.28L89.66 231.15L81.97 239.40L84.76 250.77L95.24 253.90ZM84.76 250.77L81.97 239.40L71.49 236.27L63.81 244.52L66.60 255.89L77.08 259.01ZM107.83 226.03L105.04 214.65L94.55 211.53L86.86 219.78L89.66 231.15L100.14 234.28ZM89.66 231.15L86.86 219.78L76.38 216.65L68.70 224.90L71.49 236.27L81.97 239.40ZM116.20 260.16L113.41 248.78L102.93 245.65L95.24 253.90L98.03 265.27L108.51 268.40ZM98.03 265.27L95.24 253.90L84.76 250.77L77.08 259.01L79.87 270.38L90.34 273.51ZM121.10 240.54L118.31 229.16L107.83 226.03L100.14 234.28L102.93 245.65L113.41 248.78ZM268.39 126.21L265.62 114.79L255.10 111.64L247.36 119.90L250.14 131.31L260.65 134.47ZM273.37 106.53L270.59 95.12L260.07 91.96L252.32 100.23L255.10 111.64L265.62 114.79ZM236.84 116.75L234.06 105.34L223.55 102.19L215.81 110.46L218.59 121.87L229.11 125.01ZM218.59 121.87L215.81 110.46L205.30 107.31L197.57 115.58L200.35 126.98L210.86 130.13ZM241.80 97.08L239.02 85.66L228.50 82.52L220.76 90.78L223.55 102.19L234.06 105.34ZM223.55 102.19L220.76 90.78L210.25 87.64L202.51 95.91L205.30 107.31L215.81 110.46ZM250.14 131.31L247.36 119.90L236.84 116.75L229.11 125.01L231.89 136.42L242.40 139.57ZM231.89 136.42L229.11 125.01L218.59 121.87L210.86 130.13L213.64 141.53L224.15 144.68ZM255.10 111.64L252.32 100.23L241.80 97.08L234.06 105.34L236.84 116.75L247.36 119.90ZM265.04 72.28L262.26 60.86L251.73 57.71L243.99 65.98L246.77 77.40L257.29 80.55ZM246.77 77.40L243.99 65.98L233.46 62.83L225.72 71.10L228.50 82.52L239.02 85.66ZM270.01 52.59L267.23 41.16L256.70 38.01L248.95 46.28L251.73 57.71L262.26 60.86ZM251.73 57.71L248.95 46.28L238.42 43.14L230.68 51.41L233.46 62.83L243.99 65.98ZM260.07 91.96L257.29 80.55L246.77 77.40L239.02 85.66L241.80 97.08L252.32 100.23ZM258.46 165.54L255.69 154.13L245.18 150.98L237.44 159.23L240.22 170.63L250.73 173.79ZM240.22 170.63L237.44 159.23L226.93 156.08L219.20 164.33L221.98 175.73L232.49 178.88ZM263.43 145.88L260.65 134.47L250.14 131.31L242.40 139.57L245.18 150.98L255.69 154.13ZM245.18 150.98L242.40 139.57L231.89 136.42L224.15 144.68L226.93 156.08L237.44 159.23ZM271.75 180.10L268.97 168.69L258.46 165.54L250.73 173.79L253.50 185.19L264.01 188.34ZM253.50 185.19L250.73 173.79L240.22 170.63L232.49 178.88L235.26 190.28L245.77 193.44ZM276.71 160.44L273.94 149.03L263.43 145.88L255.69 154.13L258.46 165.54L268.97 168.69ZM158.96 156.88L156.18 145.48L145.68 142.35L137.97 150.61L140.75 162.00L151.25 165.14ZM140.75 162.00L137.97 150.61L127.47 147.48L119.76 155.74L122.55 167.13L133.05 170.26ZM163.89 137.22L161.11 125.83L150.60 122.69L142.89 130.95L145.68 142.35L156.18 145.48ZM145.68 142.35L142.89 130.95L132.38 127.82L124.67 136.09L127.47 147.48L137.97 150.61ZM172.25 171.41L169.47 160.02L158.96 156.88L151.25 165.14L154.04 176.53L164.54 179.67ZM154.04 176.53L151.25 165.14L140.75 162.00L133.05 170.26L135.84 181.65L146.33 184.78ZM177.18 151.76L174.40 140.36L163.89 137.22L156.18 145.48L158.96 156.88L169.47 160.02ZM109.26 152.61L106.47 141.22L95.97 138.10L88.28 146.36L91.07 157.74L101.56 160.87ZM91.07 157.74L88.28 146.36L77.78 143.24L70.09 151.50L72.89 162.88L83.38 166.00ZM114.18 132.96L111.38 121.57L100.88 118.44L93.18 126.71L95.97 138.10L106.47 141.22ZM95.97 138.10L93.18 126.71L82.68 123.58L74.98 131.85L77.78 143.24L88.28 146.36ZM122.55 167.13L119.76 155.74L109.26 152.61L101.56 160.87L104.36 172.26L114.85 175.38ZM104.36 172.26L101.56 160.87L91.07 157.74L83.38 166.00L86.17 177.39L96.66 180.51ZM127.47 147.48L124.67 136.09L114.18 132.96L106.47 141.22L109.26 152.61L119.76 155.74ZM187.06 112.44L184.27 101.03L173.76 97.89L166.04 106.16L168.82 117.56L179.33 120.70ZM168.82 117.56L166.04 106.16L155.53 103.03L147.81 111.29L150.60 122.69L161.11 125.83ZM192.00 92.76L189.21 81.36L178.70 78.22L170.97 86.49L173.76 97.89L184.27 101.03ZM173.76 97.89L170.97 86.49L160.46 83.35L152.74 91.62L155.53 103.03L166.04 106.16ZM200.35 126.98L197.57 115.58L187.06 112.44L179.33 120.70L182.12 132.10L192.63 135.24ZM182.12 132.10L179.33 120.70L168.82 117.56L161.11 125.83L163.89 137.22L174.40 140.36ZM205.30 107.31L202.51 95.91L192.00 92.76L184.27 101.03L187.06 112.44L197.57 115.58ZM137.30 108.16L134.51 96.76L124.01 93.63L116.29 101.90L119.09 113.30L129.59 116.43ZM119.09 113.30L116.29 101.90L105.79 98.78L98.09 107.05L100.88 118.44L111.38 121.57ZM142.23 88.49L139.44 77.09L128.93 73.96L121.21 82.23L124.01 93.63L134.51 96.76ZM124.01 93.63L121.21 82.23L110.70 79.11L102.99 87.38L105.79 98.78L116.29 101.90ZM150.60 122.69L147.81 111.29L137.30 108.16L129.59 116.43L132.38 127.82L142.89 130.95ZM132.38 127.82L129.59 116.43L119.09 113.30L111.38 121.57L114.18 132.96L124.67 136.09ZM155.53 103.03L152.74 91.62L142.23 88.49L134.51 96.76L137.30 108.16L147.81 111.29ZM180.60 205.59L177.82 194.20L167.32 191.06L159.61 199.31L162.40 210.69L172.89 213.83ZM162.40 210.69L159.61 199.31L149.12 196.17L141.41 204.42L144.20 215.80L154.69 218.94ZM185.53 185.95L182.75 174.55L172.25 171.41L164.54 179.67L167.32 191.06L177.82 194.20ZM167.32 191.06L164.54 179.67L154.04 176.53L146.33 184.78L149.12 196.17L159.61 199.31ZM193.88 220.12L191.10 208.73L180.60 205.59L172.89 213.83L175.67 225.22L186.16 228.36ZM175.67 225.22L172.89 213.83L162.40 210.69L154.69 218.94L157.47 230.32L167.96 233.46ZM198.81 200.48L196.03 189.09L185.53 185.95L177.82 194.20L180.60 205.59L191.10 208.73ZM130.92 201.28L128.13 189.90L117.64 186.77L109.94 195.02L112.73 206.40L123.22 209.53ZM112.73 206.40L109.94 195.02L99.45 191.89L91.76 200.15L94.55 211.53L105.04 214.65ZM135.84 181.65L133.05 170.26L122.55 167.13L114.85 175.38L117.64 186.77L128.13 189.90ZM117.64 186.77L114.85 175.38L104.36 172.26L96.66 180.51L99.45 191.89L109.94 195.02ZM144.20 215.80L141.41 204.42L130.92 201.28L123.22 209.53L126.01 220.92L136.50 224.05ZM126.01 220.92L123.22 209.53L112.73 206.40L105.04 214.65L107.83 226.03L118.31 229.16ZM149.12 196.17L146.33 184.78L135.84 181.65L128.13 189.90L130.92 201.28L141.41 204.42ZM208.70 161.19L205.92 149.79L195.41 146.64L187.69 154.90L190.47 166.30L200.97 169.44ZM190.47 166.30L187.69 154.90L177.18 151.76L169.47 160.02L172.25 171.41L182.75 174.55ZM213.64 141.53L210.86 130.13L200.35 126.98L192.63 135.24L195.41 146.64L205.92 149.79ZM195.41 146.64L192.63 135.24L182.12 132.10L174.40 140.36L177.18 151.76L187.69 154.90ZM221.98 175.73L219.20 164.33L208.70 161.19L200.97 169.44L203.75 180.84L214.26 183.99ZM203.75 180.84L200.97 169.44L190.47 166.30L182.75 174.55L185.53 185.95L196.03 189.09ZM226.93 156.08L224.15 144.68L213.64 141.53L205.92 149.79L208.70 161.19L219.20 164.33ZM1.54 110.05L-1.27 98.67L-11.76 95.57L-19.43 103.84L-16.62 115.22L-6.14 118.32ZM6.42 90.39L3.61 79.01L-6.89 75.90L-14.57 84.18L-11.76 95.57L-1.27 98.67ZM30.31 266.13L27.51 254.77L17.04 251.65L9.38 259.90L12.18 271.26L22.64 274.37ZM31.66 192.80L28.86 181.42L18.38 178.31L10.70 186.57L13.51 197.94L23.98 201.05ZM13.51 197.94L10.70 186.57L0.22 183.46L-7.45 191.72L-4.64 203.09L5.83 206.20ZM36.54 173.17L33.74 161.79L23.25 158.68L15.57 166.94L18.38 178.31L28.86 181.42ZM18.38 178.31L15.57 166.94L5.09 163.83L-2.58 172.09L0.22 183.46L10.70 186.57ZM44.94 207.29L42.14 195.91L31.66 192.80L23.98 201.05L26.78 212.42L37.26 215.54ZM26.78 212.42L23.98 201.05L13.51 197.94L5.83 206.20L8.64 217.56L19.11 220.68ZM49.82 187.66L47.02 176.28L36.54 173.17L28.86 181.42L31.66 192.80L42.14 195.91ZM0.22 183.46L-2.58 172.09L-13.06 168.98L-20.73 177.25L-17.92 188.61L-7.45 191.72ZM59.60 148.38L56.80 137.00L46.31 133.88L38.62 142.15L41.42 153.53L51.91 156.64ZM41.42 153.53L38.62 142.15L28.13 139.03L20.45 147.30L23.25 158.68L33.74 161.79ZM64.49 128.73L61.69 117.34L51.20 114.23L43.50 122.50L46.31 133.88L56.80 137.00ZM46.31 133.88L43.50 122.50L33.01 119.38L25.33 127.65L28.13 139.03L38.62 142.15ZM72.89 162.88L70.09 151.50L59.60 148.38L51.91 156.64L54.71 168.02L65.20 171.14ZM54.71 168.02L51.91 156.64L41.42 153.53L33.74 161.79L36.54 173.17L47.02 176.28ZM77.78 143.24L74.98 131.85L64.49 128.73L56.80 137.00L59.60 148.38L70.09 151.50ZM9.96 144.19L7.16 132.81L-3.33 129.70L-11.00 137.97L-8.20 149.35L2.29 152.45ZM14.84 124.54L12.03 113.16L1.54 110.05L-6.14 118.32L-3.33 129.70L7.16 132.81ZM23.25 158.68L20.45 147.30L9.96 144.19L2.29 152.45L5.09 163.83L15.57 166.94ZM5.09 163.83L2.29 152.45L-8.20 149.35L-15.87 157.61L-13.06 168.98L-2.58 172.09ZM28.13 139.03L25.33 127.65L14.84 124.54L7.16 132.81L9.96 144.19L20.45 147.30ZM53.33 241.40L50.54 230.03L40.06 226.91L32.38 235.16L35.18 246.52L45.66 249.64ZM35.18 246.52L32.38 235.16L21.91 232.04L14.24 240.29L17.04 251.65L27.51 254.77ZM58.22 221.78L55.42 210.41L44.94 207.29L37.26 215.54L40.06 226.91L50.54 230.03ZM40.06 226.91L37.26 215.54L26.78 212.42L19.11 220.68L21.91 232.04L32.38 235.16ZM66.60 255.89L63.81 244.52L53.33 241.40L45.66 249.64L48.45 261.01L58.92 264.13ZM48.45 261.01L45.66 249.64L35.18 246.52L27.51 254.77L30.31 266.13L40.78 269.25ZM71.49 236.27L68.70 224.90L58.22 221.78L50.54 230.03L53.33 241.40L63.81 244.52ZM3.77 237.18L0.97 225.81L-9.50 222.70L-17.17 230.96L-14.36 242.32L-3.89 245.43ZM8.64 217.56L5.83 206.20L-4.64 203.09L-12.31 211.34L-9.50 222.70L0.97 225.81ZM17.04 251.65L14.24 240.29L3.77 237.18L-3.89 245.43L-1.09 256.79L9.38 259.90ZM21.91 232.04L19.11 220.68L8.64 217.56L0.97 225.81L3.77 237.18L14.24 240.29ZM81.27 197.02L78.48 185.64L67.99 182.52L60.31 190.78L63.10 202.15L73.59 205.27ZM63.10 202.15L60.31 190.78L49.82 187.66L42.14 195.91L44.94 207.29L55.42 210.41ZM86.17 177.39L83.38 166.00L72.89 162.88L65.20 171.14L67.99 182.52L78.48 185.64ZM67.99 182.52L65.20 171.14L54.71 168.02L47.02 176.28L49.82 187.66L60.31 190.78ZM94.55 211.53L91.76 200.15L81.27 197.02L73.59 205.27L76.38 216.65L86.86 219.78ZM76.38 216.65L73.59 205.27L63.10 202.15L55.42 210.41L58.22 221.78L68.70 224.90ZM99.45 191.89L96.66 180.51L86.17 177.39L78.48 185.64L81.27 197.02L91.76 200.15ZM266.65 -1.40L263.87 -12.83L253.33 -15.98L245.58 -7.70L248.36 3.73L258.90 6.88ZM274.99 32.89L272.21 21.46L261.68 18.31L253.92 26.59L256.70 38.01L267.23 41.16ZM7.74 16.88L4.93 5.48L-5.57 2.38L-13.26 10.67L-10.45 22.07L0.05 25.17ZM12.63 -2.81L9.81 -14.21L-0.70 -17.31L-8.39 -9.02L-5.57 2.38L4.93 5.48ZM193.53 19.15L190.74 7.73L180.22 4.59L172.48 12.88L175.27 24.29L185.80 27.43ZM175.27 24.29L172.48 12.88L161.96 9.74L154.23 18.03L157.02 29.44L167.54 32.57ZM198.48 -0.56L195.69 -11.98L185.16 -15.12L177.43 -6.83L180.22 4.59L190.74 7.73ZM180.22 4.59L177.43 -6.83L166.90 -9.96L159.16 -1.67L161.96 9.74L172.48 12.88ZM206.84 33.71L204.06 22.29L193.53 19.15L185.80 27.43L188.58 38.84L199.11 41.98ZM188.58 38.84L185.80 27.43L175.27 24.29L167.54 32.57L170.33 43.99L180.85 47.12ZM211.80 14.01L209.01 2.58L198.48 -0.56L190.74 7.73L193.53 19.15L204.06 22.29ZM143.71 14.90L140.91 3.48L130.39 0.36L122.67 8.64L125.46 20.05L135.98 23.18ZM125.46 20.05L122.67 8.64L112.15 5.52L104.43 13.81L107.23 25.21L117.74 28.34ZM148.64 -4.80L145.84 -16.22L135.32 -19.35L127.59 -11.06L130.39 0.36L140.91 3.48ZM130.39 0.36L127.59 -11.06L117.07 -14.18L109.35 -5.89L112.15 5.52L122.67 8.64ZM157.02 29.44L154.23 18.03L143.71 14.90L135.98 23.18L138.78 34.59L149.29 37.72ZM138.78 34.59L135.98 23.18L125.46 20.05L117.74 28.34L120.54 39.75L131.05 42.87ZM161.96 9.74L159.16 -1.67L148.64 -4.80L140.91 3.48L143.71 14.90L154.23 18.03ZM216.76 -5.70L213.97 -17.13L203.44 -20.27L195.69 -11.98L198.48 -0.56L209.01 2.58ZM215.20 67.96L212.42 56.54L201.89 53.40L194.16 61.67L196.94 73.09L207.46 76.23ZM196.94 73.09L194.16 61.67L183.64 58.53L175.91 66.81L178.70 78.22L189.21 81.36ZM220.16 48.27L217.37 36.85L206.84 33.71L199.11 41.98L201.89 53.40L212.42 56.54ZM201.89 53.40L199.11 41.98L188.58 38.84L180.85 47.12L183.64 58.53L194.16 61.67ZM228.50 82.52L225.72 71.10L215.20 67.96L207.46 76.23L210.25 87.64L220.76 90.78ZM210.25 87.64L207.46 76.23L196.94 73.09L189.21 81.36L192.00 92.76L202.51 95.91ZM233.46 62.83L230.68 51.41L220.16 48.27L212.42 56.54L215.20 67.96L225.72 71.10ZM165.39 63.67L162.60 52.26L152.09 49.13L144.36 57.41L147.16 68.81L157.67 71.95ZM147.16 68.81L144.36 57.41L133.85 54.28L126.13 62.56L128.93 73.96L139.44 77.09ZM170.33 43.99L167.54 32.57L157.02 29.44L149.29 37.72L152.09 49.13L162.60 52.26ZM152.09 49.13L149.29 37.72L138.78 34.59L131.05 42.87L133.85 54.28L144.36 57.41ZM178.70 78.22L175.91 66.81L165.39 63.67L157.67 71.95L160.46 83.35L170.97 86.49ZM160.46 83.35L157.67 71.95L147.16 68.81L139.44 77.09L142.23 88.49L152.74 91.62ZM183.64 58.53L180.85 47.12L170.33 43.99L162.60 52.26L165.39 63.67L175.91 66.81ZM243.39 23.44L240.61 12.01L230.08 8.87L222.33 17.15L225.11 28.57L235.64 31.71ZM225.11 28.57L222.33 17.15L211.80 14.01L204.06 22.29L206.84 33.71L217.37 36.85ZM248.36 3.73L245.58 -7.70L235.04 -10.84L227.29 -2.56L230.08 8.87L240.61 12.01ZM230.08 8.87L227.29 -2.56L216.76 -5.70L209.01 2.58L211.80 14.01L222.33 17.15ZM256.70 38.01L253.92 26.59L243.39 23.44L235.64 31.71L238.42 43.14L248.95 46.28ZM238.42 43.14L235.64 31.71L225.11 28.57L217.37 36.85L220.16 48.27L230.68 51.41ZM261.68 18.31L258.90 6.88L248.36 3.73L240.61 12.01L243.39 23.44L253.92 26.59ZM65.88 55.22L63.08 43.83L52.57 40.71L44.87 49.00L47.68 60.39L58.18 63.50ZM47.68 60.39L44.87 49.00L34.37 45.88L26.67 54.17L29.48 65.56L39.98 68.67ZM70.78 35.54L67.98 24.14L57.47 21.03L49.77 29.31L52.57 40.71L63.08 43.83ZM52.57 40.71L49.77 29.31L39.26 26.20L31.56 34.49L34.37 45.88L44.87 49.00ZM79.19 69.74L76.39 58.34L65.88 55.22L58.18 63.50L60.98 74.90L71.48 78.02ZM60.98 74.90L58.18 63.50L47.68 60.39L39.98 68.67L42.79 80.06L53.28 83.18ZM84.09 50.06L81.29 38.66L70.78 35.54L63.08 43.83L65.88 55.22L76.39 58.34ZM16.17 51.06L13.36 39.67L2.86 36.56L-4.83 44.85L-2.01 56.24L8.48 59.34ZM21.06 31.38L18.25 19.98L7.74 16.88L0.05 25.17L2.86 36.56L13.36 39.67ZM2.86 36.56L0.05 25.17L-10.45 22.07L-18.14 30.36L-15.32 41.75L-4.83 44.85ZM29.48 65.56L26.67 54.17L16.17 51.06L8.48 59.34L11.29 70.73L21.79 73.84ZM11.29 70.73L8.48 59.34L-2.01 56.24L-9.70 64.52L-6.89 75.90L3.61 79.01ZM34.37 45.88L31.56 34.49L21.06 31.38L13.36 39.67L16.17 51.06L26.67 54.17ZM93.91 10.69L91.11 -0.72L80.59 -3.84L72.88 4.45L75.69 15.85L86.20 18.97ZM75.69 15.85L72.88 4.45L62.37 1.34L54.66 9.63L57.47 21.03L67.98 24.14ZM80.59 -3.84L77.79 -15.25L67.27 -18.36L59.56 -10.07L62.37 1.34L72.88 4.45ZM107.23 25.21L104.43 13.81L93.91 10.69L86.20 18.97L89.00 30.38L99.51 33.50ZM89.00 30.38L86.20 18.97L75.69 15.85L67.98 24.14L70.78 35.54L81.29 38.66ZM112.15 5.52L109.35 -5.89L98.83 -9.01L91.11 -0.72L93.91 10.69L104.43 13.81ZM44.15 6.51L41.34 -4.89L30.83 -8.00L23.13 0.30L25.94 11.69L36.45 14.80ZM25.94 11.69L23.13 0.30L12.63 -2.81L4.93 5.48L7.74 16.88L18.25 19.98ZM30.83 -8.00L28.02 -19.40L17.51 -22.51L9.81 -14.21L12.63 -2.81L23.13 0.30ZM57.47 21.03L54.66 9.63L44.15 6.51L36.45 14.80L39.26 26.20L49.77 29.31ZM39.26 26.20L36.45 14.80L25.94 11.69L18.25 19.98L21.06 31.38L31.56 34.49ZM62.37 1.34L59.56 -10.07L49.05 -13.18L41.34 -4.89L44.15 6.51L54.66 9.63ZM87.58 103.92L84.79 92.53L74.28 89.41L66.59 97.68L69.39 109.07L79.88 112.19ZM69.39 109.07L66.59 97.68L56.09 94.57L48.39 102.84L51.20 114.23L61.69 117.34ZM92.49 84.26L89.69 72.86L79.19 69.74L71.48 78.02L74.28 89.41L84.79 92.53ZM74.28 89.41L71.48 78.02L60.98 74.90L53.28 83.18L56.09 94.57L66.59 97.68ZM100.88 118.44L98.09 107.05L87.58 103.92L79.88 112.19L82.68 123.58L93.18 126.71ZM82.68 123.58L79.88 112.19L69.39 109.07L61.69 117.34L64.49 128.73L74.98 131.85ZM105.79 98.78L102.99 87.38L92.49 84.26L84.79 92.53L87.58 103.92L98.09 107.05ZM37.90 99.73L35.09 88.34L24.60 85.23L16.91 93.50L19.72 104.89L30.21 108.00ZM19.72 104.89L16.91 93.50L6.42 90.39L-1.27 98.67L1.54 110.05L12.03 113.16ZM42.79 80.06L39.98 68.67L29.48 65.56L21.79 73.84L24.60 85.23L35.09 88.34ZM24.60 85.23L21.79 73.84L11.29 70.73L3.61 79.01L6.42 90.39L16.91 93.50ZM51.20 114.23L48.39 102.84L37.90 99.73L30.21 108.00L33.01 119.38L43.50 122.50ZM33.01 119.38L30.21 108.00L19.72 104.89L12.03 113.16L14.84 124.54L25.33 127.65ZM56.09 94.57L53.28 83.18L42.79 80.06L35.09 88.34L37.90 99.73L48.39 102.84ZM115.62 59.43L112.82 48.03L102.31 44.90L94.60 53.18L97.40 64.58L107.91 67.71ZM97.40 64.58L94.60 53.18L84.09 50.06L76.39 58.34L79.19 69.74L89.69 72.86ZM120.54 39.75L117.74 28.34L107.23 25.21L99.51 33.50L102.31 44.90L112.82 48.03ZM102.31 44.90L99.51 33.50L89.00 30.38L81.29 38.66L84.09 50.06L94.60 53.18ZM128.93 73.96L126.13 62.56L115.62 59.43L107.91 67.71L110.70 79.11L121.21 82.23ZM110.70 79.11L107.91 67.71L97.40 64.58L89.69 72.86L92.49 84.26L102.99 87.38ZM133.85 54.28L131.05 42.87L120.54 39.75L112.82 48.03L115.62 59.43L126.13 62.56Z"/></svg>
