<svg xmlns="http://www.w3.org/2000/svg" width="256" height="256" viewBox="0 0 256 256"><path data-band="2" fill="#f97316" fill-opacity="0.35" d="M251.91 2.65L249.13 -8.74L238.64 -11.89L230.92 -3.66L233.69 7.73L244.18 10.89ZM233.69 7.73L230.92 -3.66L220.42 -6.81L212.71 1.43L215.48 12.82L225.97 15.97ZM265.17 17.20L262.40 5.81L251.91 2.65L244.18 10.89L246.95 22.28L257.45 25.43ZM246.95 22.28L244.18 10.89L233.69 7.73L225.97 15.97L228.74 27.35L239.23 30.51ZM270.13 -2.42L267.36 -13.82L256.86 -16.97L249.13 -8.74L251.91 2.65L262.40 5.81ZM202.21 -1.72L199.44 -13.10L188.94 -16.25L181.23 -8.01L184.01 3.37L194.50 6.52ZM184.01 3.37L181.23 -8.01L170.75 -11.15L163.04 -2.91L165.82 8.47L176.31 11.61ZM215.48 12.82L212.71 1.43L202.21 -1.72L194.50 6.52L197.28 17.90L207.77 21.05ZM197.28 17.90L194.50 6.52L184.01 3.37L176.31 11.61L179.09 22.99L189.57 26.13ZM220.42 -6.81L217.65 -18.20L207.15 -21.34L199.44 -13.10L202.21 -1.72L212.71 1.43ZM273.48 51.37L270.71 39.98L260.22 36.82L252.49 45.05L255.26 56.43L265.75 59.59ZM255.26 56.43L252.49 45.05L242.01 41.89L234.29 50.12L237.06 61.50L247.55 64.66ZM260.22 36.82L257.45 25.43L246.95 22.28L239.23 30.51L242.01 41.89L252.49 45.05ZM268.52 70.98L265.75 59.59L255.26 56.43L247.55 64.66L250.31 76.04L260.80 79.20ZM223.80 46.96L221.03 35.58L210.54 32.43L202.83 40.66L205.61 52.04L216.09 55.19ZM205.61 52.04L202.83 40.66L192.35 37.51L184.64 45.74L187.42 57.12L197.90 60.27ZM228.74 27.35L225.97 15.97L215.48 12.82L207.77 21.05L210.54 32.43L221.03 35.58ZM210.54 32.43L207.77 21.05L197.28 17.90L189.57 26.13L192.35 37.51L202.83 40.66ZM237.06 61.50L234.29 50.12L223.80 46.96L216.09 55.19L218.86 66.57L229.35 69.72ZM218.86 66.57L216.09 55.19L205.61 52.04L197.90 60.27L200.68 71.64L211.16 74.79ZM242.01 41.89L239.23 30.51L228.74 27.35L221.03 35.58L223.80 46.96L234.29 50.12ZM124.56 38.27L121.77 26.90L111.29 23.77L103.61 32.00L106.40 43.37L116.87 46.50ZM106.40 43.37L103.61 32.00L93.13 28.87L85.45 37.11L88.24 48.47L98.71 51.60ZM129.46 18.66L126.68 7.29L116.20 4.16L108.51 12.40L111.29 23.77L121.77 26.90ZM111.29 23.77L108.51 12.40L98.03 9.27L90.34 17.51L93.13 28.87L103.61 32.00ZM137.82 52.78L135.03 41.41L124.56 38.27L116.87 46.50L119.65 57.87L130.13 61.01ZM119.65 57.87L116.87 46.50L106.40 43.37L98.71 51.60L101.50 62.97L111.97 66.10ZM142.73 33.17L139.94 21.80L129.46 18.66L121.77 26.90L124.56 38.27L135.03 41.41ZM74.98 33.98L72.19 22.62L61.72 19.49L54.04 27.73L56.84 39.09L67.31 42.22ZM56.84 39.09L54.04 27.73L43.58 24.61L35.91 32.85L38.70 44.21L49.17 47.33ZM79.87 14.38L77.08 3.01L66.60 -0.11L58.92 8.13L61.72 19.49L72.19 22.62ZM61.72 19.49L58.92 8.13L48.45 5.01L40.78 13.25L43.58 24.61L54.04 27.73ZM88.24 48.47L85.45 37.11L74.98 33.98L67.31 42.22L70.10 53.58L80.56 56.71ZM70.10 53.58L67.31 42.22L56.84 39.09L49.17 47.33L51.96 58.69L62.42 61.81ZM93.13 28.87L90.34 17.51L79.87 14.38L72.19 22.62L74.98 33.98L85.45 37.11ZM152.55 -6.05L149.77 -17.43L139.28 -20.57L131.59 -12.33L134.37 -0.95L144.85 2.19ZM134.37 -0.95L131.59 -12.33L121.10 -15.46L113.41 -7.22L116.20 4.16L126.68 7.29ZM165.82 8.47L163.04 -2.91L152.55 -6.05L144.85 2.19L147.64 13.56L158.12 16.70ZM147.64 13.56L144.85 2.19L134.37 -0.95L126.68 7.29L129.46 18.66L139.94 21.80ZM84.76 -5.23L81.97 -16.60L71.49 -19.73L63.81 -11.48L66.60 -0.11L77.08 3.01ZM116.20 4.16L113.41 -7.22L102.93 -10.35L95.24 -2.10L98.03 9.27L108.51 12.40ZM98.03 9.27L95.24 -2.10L84.76 -5.23L77.08 3.01L79.87 14.38L90.34 17.51ZM146.16 86.88L143.38 75.51L132.91 72.37L125.22 80.60L128.01 91.96L138.47 95.10ZM128.01 91.96L125.22 80.60L114.75 77.46L107.07 85.69L109.86 97.05L120.32 100.18ZM151.07 67.28L148.29 55.91L137.82 52.78L130.13 61.01L132.91 72.37L143.38 75.51ZM132.91 72.37L130.13 61.01L119.65 57.87L111.97 66.10L114.75 77.46L125.22 80.60ZM159.41 101.38L156.63 90.02L146.16 86.88L138.47 95.10L141.26 106.46L151.72 109.60ZM141.26 106.46L138.47 95.10L128.01 91.96L120.32 100.18L123.11 111.54L133.57 114.68ZM164.33 81.79L161.55 70.43L151.07 67.28L143.38 75.51L146.16 86.88L156.63 90.02ZM96.61 82.55L93.82 71.20L83.35 68.06L75.68 76.29L78.47 87.65L88.93 90.78ZM78.47 87.65L75.68 76.29L65.22 73.17L57.55 81.40L60.34 92.75L70.80 95.88ZM101.50 62.97L98.71 51.60L88.24 48.47L80.56 56.71L83.35 68.06L93.82 71.20ZM83.35 68.06L80.56 56.71L70.10 53.58L62.42 61.81L65.22 73.17L75.68 76.29ZM109.86 97.05L107.07 85.69L96.61 82.55L88.93 90.78L91.72 102.14L102.18 105.27ZM91.72 102.14L88.93 90.78L78.47 87.65L70.80 95.88L73.59 107.23L84.05 110.36ZM114.75 77.46L111.97 66.10L101.50 62.97L93.82 71.20L96.61 82.55L107.07 85.69ZM174.16 42.60L171.38 31.22L160.90 28.08L153.20 36.31L155.99 47.69L166.46 50.83ZM155.99 47.69L153.20 36.31L142.73 33.17L135.03 41.41L137.82 52.78L148.29 55.91ZM179.09 22.99L176.31 11.61L165.82 8.47L158.12 16.70L160.90 28.08L171.38 31.22ZM160.90 28.08L158.12 16.70L147.64 13.56L139.94 21.80L142.73 33.17L153.20 36.31ZM187.42 57.12L184.64 45.74L174.16 42.60L166.46 50.83L169.24 62.20L179.72 65.34ZM169.24 62.20L166.46 50.83L155.99 47.69L148.29 55.91L151.07 67.28L161.55 70.43ZM192.35 37.51L189.57 26.13L179.09 22.99L171.38 31.22L174.16 42.60L184.64 45.74ZM276.81 105.12L274.05 93.74L263.57 90.58L255.85 98.79L258.62 110.17L269.10 113.33ZM217.31 139.86L214.54 128.49L204.07 125.34L196.37 133.55L199.14 144.92L209.61 148.07ZM199.14 144.92L196.37 133.55L185.90 130.40L178.21 138.62L180.98 149.98L191.45 153.13ZM222.24 120.28L219.47 108.91L209.00 105.76L201.30 113.97L204.07 125.34L214.54 128.49ZM204.07 125.34L201.30 113.97L190.82 110.82L183.13 119.04L185.90 130.40L196.37 133.55ZM230.55 154.38L227.78 143.02L217.31 139.86L209.61 148.07L212.38 159.43L222.85 162.59ZM212.38 159.43L209.61 148.07L199.14 144.92L191.45 153.13L194.22 164.49L204.69 167.64ZM235.49 134.81L232.72 123.44L222.24 120.28L214.54 128.49L217.31 139.86L227.78 143.02ZM167.74 135.47L164.97 124.11L154.50 120.96L146.81 129.18L149.59 140.54L160.06 143.68ZM149.59 140.54L146.81 129.18L136.35 126.04L128.67 134.25L131.45 145.61L141.91 148.75ZM172.66 115.89L169.88 104.53L159.41 101.38L151.72 109.60L154.50 120.96L164.97 124.11ZM154.50 120.96L151.72 109.60L141.26 106.46L133.57 114.68L136.35 126.04L146.81 129.18ZM180.98 149.98L178.21 138.62L167.74 135.47L160.06 143.68L162.83 155.04L173.29 158.19ZM162.83 155.04L160.06 143.68L149.59 140.54L141.91 148.75L144.69 160.10L155.15 163.25ZM185.90 130.40L183.13 119.04L172.66 115.89L164.97 124.11L167.74 135.47L178.21 138.62ZM245.37 95.63L242.60 84.26L232.12 81.10L224.41 89.32L227.18 100.69L237.66 103.85ZM227.18 100.69L224.41 89.32L213.93 86.17L206.23 94.39L209.00 105.76L219.47 108.91ZM250.31 76.04L247.55 64.66L237.06 61.50L229.35 69.72L232.12 81.10L242.60 84.26ZM232.12 81.10L229.35 69.72L218.86 66.57L211.16 74.79L213.93 86.17L224.41 89.32ZM258.62 110.17L255.85 98.79L245.37 95.63L237.66 103.85L240.43 115.22L250.90 118.38ZM240.43 115.22L237.66 103.85L227.18 100.69L219.47 108.91L222.24 120.28L232.72 123.44ZM263.57 90.58L260.80 79.20L250.31 76.04L242.60 84.26L245.37 95.63L255.85 98.79ZM195.75 91.24L192.97 79.86L182.50 76.72L174.80 84.94L177.58 96.31L188.05 99.46ZM177.58 96.31L174.80 84.94L164.33 81.79L156.63 90.02L159.41 101.38L169.88 104.53ZM200.68 71.64L197.90 60.27L187.42 57.12L179.72 65.34L182.50 76.72L192.97 79.86ZM182.50 76.72L179.72 65.34L169.24 62.20L161.55 70.43L164.33 81.79L174.80 84.94ZM209.00 105.76L206.23 94.39L195.75 91.24L188.05 99.46L190.82 110.82L201.30 113.97ZM190.82 110.82L188.05 99.46L177.58 96.31L169.88 104.53L172.66 115.89L183.13 119.04ZM213.93 86.17L211.16 74.79L200.68 71.64L192.97 79.86L195.75 91.24L206.23 94.39ZM238.85 188.47L236.08 177.11L225.62 173.95L217.92 182.16L220.69 193.51L231.15 196.67ZM220.69 193.51L217.92 182.16L207.46 179.00L199.76 187.20L202.53 198.56L212.99 201.71ZM243.79 168.91L241.02 157.54L230.55 154.38L222.85 162.59L225.62 173.95L236.08 177.11ZM225.62 173.95L222.85 162.59L212.38 159.43L204.69 167.64L207.46 179.00L217.92 182.16ZM252.08 203.00L249.32 191.64L238.85 188.47L231.15 196.67L233.92 208.03L244.38 211.19ZM233.92 208.03L231.15 196.67L220.69 193.51L212.99 201.71L215.76 213.07L226.22 216.23ZM257.02 183.44L254.26 172.07L243.79 168.91L236.08 177.11L238.85 188.47L249.32 191.64ZM189.30 184.05L186.53 172.69L176.07 169.54L168.38 177.75L171.16 189.10L181.62 192.25ZM171.16 189.10L168.38 177.75L157.92 174.60L150.24 182.81L153.02 194.16L163.47 197.31ZM194.22 164.49L191.45 153.13L180.98 149.98L173.29 158.19L176.07 169.54L186.53 172.69ZM176.07 169.54L173.29 158.19L162.83 155.04L155.15 163.25L157.92 174.60L168.38 177.75ZM202.53 198.56L199.76 187.20L189.30 184.05L181.62 192.25L184.39 203.61L194.84 206.76ZM184.39 203.61L181.62 192.25L171.16 189.10L163.47 197.31L166.25 208.66L176.70 211.81ZM207.46 179.00L204.69 167.64L194.22 164.49L186.53 172.69L189.30 184.05L199.76 187.20ZM266.91 144.29L264.15 132.92L253.67 129.76L245.96 137.97L248.73 149.34L259.20 152.50ZM248.73 149.34L245.96 137.97L235.49 134.81L227.78 143.02L230.55 154.38L241.02 157.54ZM271.86 124.71L269.10 113.33L258.62 110.17L250.90 118.38L253.67 129.76L264.15 132.92ZM253.67 129.76L250.90 118.38L240.43 115.22L232.72 123.44L235.49 134.81L245.96 137.97ZM261.96 163.87L259.20 152.50L248.73 149.34L241.02 157.54L243.79 168.91L254.26 172.07ZM2.45 54.44L-0.35 43.09L-10.81 39.98L-18.46 48.22L-15.66 59.57L-5.20 62.68ZM10.85 88.49L8.05 77.14L-2.40 74.03L-10.06 82.26L-7.26 93.60L3.19 96.72ZM15.71 68.91L12.91 57.56L2.45 54.44L-5.20 62.68L-2.40 74.03L8.05 77.14ZM25.44 29.73L22.64 18.37L12.18 15.26L4.51 23.50L7.31 34.85L17.78 37.97ZM7.31 34.85L4.51 23.50L-5.95 20.39L-13.61 28.63L-10.81 39.98L-0.35 43.09ZM30.31 10.13L27.51 -1.23L17.04 -4.35L9.38 3.90L12.18 15.26L22.64 18.37ZM12.18 15.26L9.38 3.90L-1.09 0.79L-8.75 9.03L-5.95 20.39L4.51 23.50ZM38.70 44.21L35.91 32.85L25.44 29.73L17.78 37.97L20.57 49.32L31.04 52.44ZM20.57 49.32L17.78 37.97L7.31 34.85L-0.35 43.09L2.45 54.44L12.91 57.56ZM43.58 24.61L40.78 13.25L30.31 10.13L22.64 18.37L25.44 29.73L35.91 32.85ZM19.24 122.53L16.44 111.18L5.99 108.06L-1.66 116.29L1.14 127.63L11.59 130.75ZM1.14 127.63L-1.66 116.29L-12.11 113.17L-19.75 121.40L-16.95 132.74L-6.51 135.85ZM24.10 102.96L21.30 91.61L10.85 88.49L3.19 96.72L5.99 108.06L16.44 111.18ZM5.99 108.06L3.19 96.72L-7.26 93.60L-14.91 101.83L-12.11 113.17L-1.66 116.29ZM32.48 136.99L29.69 125.65L19.24 122.53L11.59 130.75L14.38 142.09L24.83 145.21ZM14.38 142.09L11.59 130.75L1.14 127.63L-6.51 135.85L-3.71 147.19L6.73 150.31ZM37.35 117.42L34.55 106.08L24.10 102.96L16.44 111.18L19.24 122.53L29.69 125.65ZM47.09 78.27L44.29 66.92L33.83 63.80L26.17 72.03L28.96 83.38L39.42 86.50ZM28.96 83.38L26.17 72.03L15.71 68.91L8.05 77.14L10.85 88.49L21.30 91.61ZM51.96 58.69L49.17 47.33L38.70 44.21L31.04 52.44L33.83 63.80L44.29 66.92ZM33.83 63.80L31.04 52.44L20.57 49.32L12.91 57.56L15.71 68.91L26.17 72.03ZM60.34 92.75L57.55 81.40L47.09 78.27L39.42 86.50L42.21 97.85L52.67 100.98ZM42.21 97.85L39.42 86.50L28.96 83.38L21.30 91.61L24.10 102.96L34.55 106.08ZM65.22 73.17L62.42 61.81L51.96 58.69L44.29 66.92L47.09 78.27L57.55 81.40ZM66.60 -0.11L63.81 -11.48L53.33 -14.60L45.66 -6.36L48.45 5.01L58.92 8.13ZM48.45 5.01L45.66 -6.36L35.18 -9.48L27.51 -1.23L30.31 10.13L40.78 13.25ZM17.04 -4.35L14.24 -15.71L3.77 -18.82L-3.89 -10.57L-1.09 0.79L9.38 3.90ZM260.36 237.07L257.60 225.72L247.14 222.55L239.44 230.75L242.21 242.10L252.67 245.26ZM242.21 242.10L239.44 230.75L228.99 227.58L221.29 235.78L224.06 247.13L234.51 250.29ZM265.31 217.52L262.54 206.16L252.08 203.00L244.38 211.19L247.14 222.55L257.60 225.72ZM247.14 222.55L244.38 211.19L233.92 208.03L226.22 216.23L228.99 227.58L239.44 230.75ZM273.58 251.60L270.83 240.24L260.36 237.07L252.67 245.26L255.43 256.62L265.88 259.79ZM255.43 256.62L252.67 245.26L242.21 242.10L234.51 250.29L237.28 261.64L247.73 264.80ZM270.25 197.96L267.49 186.60L257.02 183.44L249.32 191.64L252.08 203.00L262.54 206.16ZM275.20 178.40L272.44 167.03L261.96 163.87L254.26 172.07L257.02 183.44L267.49 186.60ZM84.02 267.94L81.24 256.61L70.81 253.48L63.15 261.67L65.94 273.00L76.37 276.14ZM88.90 248.42L86.12 237.08L75.68 233.95L68.02 242.15L70.81 253.48L81.24 256.61ZM70.81 253.48L68.02 242.15L57.58 239.02L49.94 247.22L52.72 258.54L63.15 261.67ZM102.12 262.89L99.34 251.56L88.90 248.42L81.24 256.61L84.02 267.94L94.46 271.08ZM34.65 263.61L31.86 252.29L21.43 249.16L13.79 257.36L16.58 268.68L27.00 271.80ZM16.58 268.68L13.79 257.36L3.36 254.24L-4.27 262.43L-1.48 273.75L8.94 276.87ZM39.50 244.09L36.71 232.76L26.28 229.63L18.64 237.83L21.43 249.16L31.86 252.29ZM21.43 249.16L18.64 237.83L8.21 234.71L0.57 242.91L3.36 254.24L13.79 257.36ZM52.72 258.54L49.94 247.22L39.50 244.09L31.86 252.29L34.65 263.61L45.08 266.74ZM90.31 175.32L87.52 163.97L77.07 160.84L69.41 169.05L72.19 180.40L82.64 183.53ZM72.19 180.40L69.41 169.05L58.96 165.92L51.30 174.14L54.09 185.48L64.54 188.60ZM95.19 155.76L92.40 144.41L81.95 141.28L74.28 149.50L77.07 160.84L87.52 163.97ZM77.07 160.84L74.28 149.50L63.83 146.37L56.17 154.58L58.96 165.92L69.41 169.05ZM103.54 189.80L100.76 178.45L90.31 175.32L82.64 183.53L85.43 194.87L95.87 198.00ZM85.43 194.87L82.64 183.53L72.19 180.40L64.54 188.60L67.32 199.94L77.77 203.07ZM108.43 170.24L105.64 158.90L95.19 155.76L87.52 163.97L90.31 175.32L100.76 178.45ZM40.86 171.01L38.07 159.67L27.62 156.55L19.97 164.76L22.76 176.10L33.20 179.22ZM22.76 176.10L19.97 164.76L9.53 161.64L1.88 169.86L4.67 181.19L15.11 184.31ZM45.72 151.46L42.93 140.11L32.48 136.99L24.83 145.21L27.62 156.55L38.07 159.67ZM27.62 156.55L24.83 145.21L14.38 142.09L6.73 150.31L9.53 161.64L19.97 164.76ZM54.09 185.48L51.30 174.14L40.86 171.01L33.20 179.22L35.99 190.56L46.44 193.68ZM35.99 190.56L33.20 179.22L22.76 176.10L15.11 184.31L17.91 195.64L28.35 198.77ZM58.96 165.92L56.17 154.58L45.72 151.46L38.07 159.67L40.86 171.01L51.30 174.14ZM118.21 131.12L115.43 119.76L104.97 116.63L97.29 124.84L100.08 136.20L110.53 139.33ZM100.08 136.20L97.29 124.84L86.83 121.71L79.16 129.93L81.95 141.28L92.40 144.41ZM123.11 111.54L120.32 100.18L109.86 97.05L102.18 105.27L104.97 116.63L115.43 119.76ZM104.97 116.63L102.18 105.27L91.72 102.14L84.05 110.36L86.83 121.71L97.29 124.84ZM131.45 145.61L128.67 134.25L118.21 131.12L110.53 139.33L113.32 150.68L123.77 153.82ZM113.32 150.68L110.53 139.33L100.08 136.20L92.40 144.41L95.19 155.76L105.64 158.90ZM136.35 126.04L133.57 114.68L123.11 111.54L115.43 119.76L118.21 131.12L128.67 134.25ZM68.71 126.80L65.92 115.45L55.46 112.33L47.80 120.55L50.59 131.89L61.04 135.02ZM50.59 131.89L47.80 120.55L37.35 117.42L29.69 125.65L32.48 136.99L42.93 140.11ZM73.59 107.23L70.80 95.88L60.34 92.75L52.67 100.98L55.46 112.33L65.92 115.45ZM55.46 112.33L52.67 100.98L42.21 97.85L34.55 106.08L37.35 117.42L47.80 120.55ZM81.95 141.28L79.16 129.93L68.71 126.80L61.04 135.02L63.83 146.37L74.28 149.50ZM63.83 146.37L61.04 135.02L50.59 131.89L42.93 140.11L45.72 151.46L56.17 154.58ZM86.83 121.71L84.05 110.36L73.59 107.23L65.92 115.45L68.71 126.80L79.16 129.93ZM111.88 223.82L109.10 212.48L98.66 209.34L90.99 217.55L93.77 228.88L104.22 232.02ZM93.77 228.88L90.99 217.55L80.55 214.41L72.89 222.61L75.68 233.95L86.12 237.08ZM116.77 204.28L113.99 192.94L103.54 189.80L95.87 198.00L98.66 209.34L109.10 212.48ZM98.66 209.34L95.87 198.00L85.43 194.87L77.77 203.07L80.55 214.41L90.99 217.55ZM125.10 238.30L122.33 226.96L111.88 223.82L104.22 232.02L107.00 243.36L117.44 246.50ZM107.00 243.36L104.22 232.02L93.77 228.88L86.12 237.08L88.90 248.42L99.34 251.56ZM130.00 218.76L127.22 207.42L116.77 204.28L109.10 212.48L111.88 223.82L122.33 226.96ZM62.45 219.48L59.67 208.15L49.22 205.02L41.57 213.22L44.36 224.56L54.80 227.69ZM44.36 224.56L41.57 213.22L31.14 210.10L23.49 218.30L26.28 229.63L36.71 232.76ZM67.32 199.94L64.54 188.60L54.09 185.48L46.44 193.68L49.22 205.02L59.67 208.15ZM49.22 205.02L46.44 193.68L35.99 190.56L28.35 198.77L31.14 210.10L41.57 213.22ZM75.68 233.95L72.89 222.61L62.45 219.48L54.80 227.69L57.58 239.02L68.02 242.15ZM57.58 239.02L54.80 227.69L44.36 224.56L36.71 232.76L39.50 244.09L49.94 247.22ZM80.55 214.41L77.77 203.07L67.32 199.94L59.67 208.15L62.45 219.48L72.89 222.61ZM139.79 179.67L137.01 168.31L126.55 165.17L118.88 173.38L121.66 184.73L132.11 187.87ZM121.66 184.73L118.88 173.38L108.43 170.24L100.76 178.45L103.54 189.80L113.99 192.94ZM144.69 160.10L141.91 148.75L131.45 145.61L123.77 153.82L126.55 165.17L137.01 168.31ZM126.55 165.17L123.77 153.82L113.32 150.68L105.64 158.90L108.43 170.24L118.88 173.38ZM153.02 194.16L150.24 182.81L139.79 179.67L132.11 187.87L134.89 199.22L145.34 202.36ZM134.89 199.22L132.11 187.87L121.66 184.73L113.99 192.94L116.77 204.28L127.22 207.42ZM157.92 174.60L155.15 163.25L144.69 160.10L137.01 168.31L139.79 179.67L150.24 182.81ZM4.67 181.19L1.88 169.86L-8.56 166.74L-16.20 174.96L-13.40 186.29L-2.97 189.40ZM9.53 161.64L6.73 150.31L-3.71 147.19L-11.36 155.41L-8.56 166.74L1.88 169.86ZM3.36 254.24L0.57 242.91L-9.86 239.79L-17.49 248.00L-14.70 259.31L-4.27 262.43ZM13.05 215.18L10.26 203.85L-0.17 200.73L-7.81 208.94L-5.02 220.27L5.41 223.39ZM17.91 195.64L15.11 184.31L4.67 181.19L-2.97 189.40L-0.17 200.73L10.26 203.85ZM26.28 229.63L23.49 218.30L13.05 215.18L5.41 223.39L8.21 234.71L18.64 237.83ZM8.21 234.71L5.41 223.39L-5.02 220.27L-12.65 228.47L-9.86 239.79L0.57 242.91ZM31.14 210.10L28.35 198.77L17.91 195.64L10.26 203.85L13.05 215.18L23.49 218.30ZM187.78 257.19L185.02 245.85L174.57 242.70L166.89 250.89L169.66 262.23L180.11 265.38ZM169.66 262.23L166.89 250.89L156.44 247.74L148.77 255.93L151.54 267.27L161.99 270.42ZM138.32 252.79L135.55 241.45L125.10 238.30L117.44 246.50L120.22 257.84L130.66 260.98ZM120.22 257.84L117.44 246.50L107.00 243.36L99.34 251.56L102.12 262.89L112.55 266.03ZM151.54 267.27L148.77 255.93L138.32 252.79L130.66 260.98L133.43 272.32L143.87 275.46ZM210.84 232.62L208.07 221.27L197.61 218.11L189.93 226.31L192.70 237.66L203.15 240.81ZM192.70 237.66L189.93 226.31L179.47 223.15L171.79 231.35L174.57 242.70L185.02 245.85ZM215.76 213.07L212.99 201.71L202.53 198.56L194.84 206.76L197.61 218.11L208.07 221.27ZM197.61 218.11L194.84 206.76L184.39 203.61L176.70 211.81L179.47 223.15L189.93 226.31ZM224.06 247.13L221.29 235.78L210.84 232.62L203.15 240.81L205.92 252.16L216.37 255.32ZM205.92 252.16L203.15 240.81L192.70 237.66L185.02 245.85L187.78 257.19L198.23 260.35ZM228.99 227.58L226.22 216.23L215.76 213.07L208.07 221.27L210.84 232.62L221.29 235.78ZM161.34 228.20L158.57 216.86L148.12 213.71L140.44 221.91L143.22 233.25L153.67 236.40ZM143.22 233.25L140.44 221.91L130.00 218.76L122.33 226.96L125.10 238.30L135.55 241.45ZM166.25 208.66L163.47 197.31L153.02 194.16L145.34 202.36L148.12 213.71L158.57 216.86ZM148.12 213.71L145.34 202.36L134.89 199.22L127.22 207.42L130.00 218.76L140.44 221.91ZM174.57 242.70L171.79 231.35L161.34 228.20L153.67 236.40L156.44 247.74L166.89 250.89ZM156.44 247.74L153.67 236.40L143.22 233.25L135.55 241.45L138.32 252.79L148.77 255.93ZM179.47 223.15L176.70 211.81L166.25 208.66L158.57 216.86L161.34 228.20L171.79 231.35ZM237.28 261.64L234.51 250.29L224.06 247.13L216.37 255.32L219.13 266.67L229.59 269.83ZM219.13 266.67L216.37 255.32L205.92 252.16L198.23 260.35L201.00 271.69L211.45 274.85Z"/></svg>
