<svg xmlns="http://www.w3.org/2000/svg" width="256" height="256" viewBox="0 0 256 256"><path data-band="2" fill="#f97316" fill-opacity="0.35" d="M56.96 -0.88L54.18 -12.17L43.79 -15.31L36.17 -7.15L38.95 4.13L49.34 7.27ZM38.95 4.13L36.17 -7.15L25.78 -10.29L18.17 -2.14L20.95 9.15L31.33 12.28ZM7.78 -5.27L5.00 -16.55L-5.39 -19.68L-13.00 -11.53L-10.22 -0.25L0.17 2.88ZM74.28 265.15L71.52 253.90L61.16 250.75L53.57 258.85L56.34 270.10L66.69 273.25ZM56.34 270.10L53.57 258.85L43.22 255.70L35.63 263.81L38.40 275.05L48.75 278.20ZM79.12 245.80L76.35 234.54L65.99 231.39L58.40 239.50L61.16 250.75L71.52 253.90ZM61.16 250.75L58.40 239.50L48.04 236.35L40.45 244.45L43.22 255.70L53.57 258.85ZM92.24 260.21L89.48 248.95L79.12 245.80L71.52 253.90L74.28 265.15L84.64 268.31ZM25.28 260.66L22.51 249.41L12.16 246.27L4.58 254.38L7.35 265.62L17.70 268.76ZM7.35 265.62L4.58 254.38L-5.76 251.24L-13.34 259.34L-10.57 270.58L-0.22 273.72ZM30.10 241.31L27.33 230.06L16.98 226.92L9.39 235.02L12.16 246.27L22.51 249.41ZM12.16 246.27L9.39 235.02L-0.96 231.89L-8.54 239.99L-5.76 251.24L4.58 254.38ZM43.22 255.70L40.45 244.45L30.10 241.31L22.51 249.41L25.28 260.66L35.63 263.81ZM206.53 138.59L203.78 127.30L193.39 124.13L185.75 132.25L188.50 143.54L198.89 146.71ZM188.50 143.54L185.75 132.25L175.36 129.09L167.73 137.20L170.48 148.49L180.87 151.65ZM211.42 119.18L208.67 107.89L198.27 104.72L190.63 112.84L193.39 124.13L203.78 127.30ZM193.39 124.13L190.63 112.84L180.24 109.68L172.61 117.80L175.36 129.09L185.75 132.25ZM219.67 153.05L216.92 141.76L206.53 138.59L198.89 146.71L201.64 157.99L212.03 161.16ZM201.64 157.99L198.89 146.71L188.50 143.54L180.87 151.65L183.62 162.93L194.01 166.10ZM224.56 133.65L221.82 122.35L211.42 119.18L203.78 127.30L206.53 138.59L216.92 141.76ZM157.34 134.04L154.59 122.76L144.20 119.60L136.57 127.72L139.33 139.00L149.72 142.16ZM139.33 139.00L136.57 127.72L126.19 124.56L118.57 132.68L121.33 143.96L131.71 147.12ZM162.22 114.64L159.46 103.35L149.07 100.19L141.44 108.31L144.20 119.60L154.59 122.76ZM144.20 119.60L141.44 108.31L131.05 105.16L123.43 113.28L126.19 124.56L136.57 127.72ZM170.48 148.49L167.73 137.20L157.34 134.04L149.72 142.16L152.47 153.44L162.85 156.60ZM152.47 153.44L149.72 142.16L139.33 139.00L131.71 147.12L134.47 158.39L144.85 161.56ZM175.36 129.09L172.61 117.80L162.22 114.64L154.59 122.76L157.34 134.04L167.73 137.20ZM234.36 94.82L231.61 83.52L221.21 80.35L213.56 88.47L216.32 99.77L226.71 102.94ZM216.32 99.77L213.56 88.47L203.17 85.30L195.52 93.43L198.27 104.72L208.67 107.89ZM239.27 75.39L236.52 64.09L226.11 60.92L218.46 69.05L221.21 80.35L231.61 83.52ZM221.21 80.35L218.46 69.05L208.06 65.88L200.41 74.01L203.17 85.30L213.56 88.47ZM247.51 109.29L244.77 97.99L234.36 94.82L226.71 102.94L229.46 114.24L239.86 117.41ZM229.46 114.24L226.71 102.94L216.32 99.77L208.67 107.89L211.42 119.18L221.82 122.35ZM252.42 89.87L249.67 78.57L239.27 75.39L231.61 83.52L234.36 94.82L244.77 97.99ZM185.13 90.26L182.37 78.97L171.97 75.80L164.34 83.93L167.09 95.22L177.49 98.39ZM167.09 95.22L164.34 83.93L153.94 80.77L146.31 88.90L149.07 100.19L159.46 103.35ZM190.01 70.84L187.26 59.54L176.86 56.38L169.22 64.51L171.97 75.80L182.37 78.97ZM171.97 75.80L169.22 64.51L158.82 61.35L151.18 69.48L153.94 80.77L164.34 83.93ZM198.27 104.72L195.52 93.43L185.13 90.26L177.49 98.39L180.24 109.68L190.63 112.84ZM180.24 109.68L177.49 98.39L167.09 95.22L159.46 103.35L162.22 114.64L172.61 117.80ZM203.17 85.30L200.41 74.01L190.01 70.84L182.37 78.97L185.13 90.26L195.52 93.43ZM227.91 186.91L225.16 175.62L214.78 172.45L207.14 180.56L209.89 191.84L220.27 195.01ZM209.89 191.84L207.14 180.56L196.76 177.39L189.12 185.49L191.87 196.77L202.25 199.94ZM232.81 167.51L230.06 156.23L219.67 153.05L212.03 161.16L214.78 172.45L225.16 175.62ZM214.78 172.45L212.03 161.16L201.64 157.99L194.01 166.10L196.76 177.39L207.14 180.56ZM241.04 201.37L238.30 190.08L227.91 186.91L220.27 195.01L223.02 206.29L233.40 209.47ZM223.02 206.29L220.27 195.01L209.89 191.84L202.25 199.94L205.00 211.22L215.38 214.40ZM245.94 181.98L243.20 170.69L232.81 167.51L225.16 175.62L227.91 186.91L238.30 190.08ZM178.74 182.33L175.99 171.05L165.61 167.88L157.98 175.99L160.74 187.27L171.12 190.43ZM160.74 187.27L157.98 175.99L147.60 172.83L139.98 180.94L142.74 192.22L153.12 195.38ZM183.62 162.93L180.87 151.65L170.48 148.49L162.85 156.60L165.61 167.88L175.99 171.05ZM165.61 167.88L162.85 156.60L152.47 153.44L144.85 161.56L147.60 172.83L157.98 175.99ZM191.87 196.77L189.12 185.49L178.74 182.33L171.12 190.43L173.87 201.71L184.25 204.88ZM173.87 201.71L171.12 190.43L160.74 187.27L153.12 195.38L155.87 206.65L166.24 209.82ZM196.76 177.39L194.01 166.10L183.62 162.93L175.99 171.05L178.74 182.33L189.12 185.49ZM255.75 143.18L253.00 131.88L242.61 128.70L234.96 136.82L237.70 148.11L248.10 151.29ZM237.70 148.11L234.96 136.82L224.56 133.65L216.92 141.76L219.67 153.05L230.06 156.23ZM260.66 123.77L257.91 112.47L247.51 109.29L239.86 117.41L242.61 128.70L253.00 131.88ZM242.61 128.70L239.86 117.41L229.46 114.24L221.82 122.35L224.56 133.65L234.96 136.82ZM268.89 157.65L266.14 146.36L255.75 143.18L248.10 151.29L250.84 162.58L261.23 165.76ZM250.84 162.58L248.10 151.29L237.70 148.11L230.06 156.23L232.81 167.51L243.20 170.69ZM273.80 138.24L271.06 126.95L260.66 123.77L253.00 131.88L255.75 143.18L266.14 146.36ZM80.50 173.28L77.74 162.01L67.37 158.86L59.77 166.98L62.53 178.24L72.90 181.39ZM62.53 178.24L59.77 166.98L49.40 163.83L41.80 171.95L44.57 183.21L54.93 186.36ZM85.35 153.89L82.58 142.62L72.21 139.47L64.60 147.59L67.37 158.86L77.74 162.01ZM67.37 158.86L64.60 147.59L54.23 144.45L46.63 152.57L49.40 163.83L59.77 166.98ZM93.64 187.70L90.88 176.43L80.50 173.28L72.90 181.39L75.66 192.66L86.03 195.81ZM75.66 192.66L72.90 181.39L62.53 178.24L54.93 186.36L57.70 197.62L68.06 200.77ZM98.48 168.31L95.72 157.04L85.35 153.89L77.74 162.01L80.50 173.28L90.88 176.43ZM31.43 168.81L28.66 157.55L18.30 154.41L10.70 162.53L13.48 173.79L23.84 176.93ZM13.48 173.79L10.70 162.53L0.34 159.39L-7.24 167.51L-4.47 178.77L5.89 181.91ZM36.26 149.43L33.49 138.16L23.12 135.02L15.52 143.15L18.30 154.41L28.66 157.55ZM18.30 154.41L15.52 143.15L5.16 140.01L-2.43 148.13L0.34 159.39L10.70 162.53ZM44.57 183.21L41.80 171.95L31.43 168.81L23.84 176.93L26.61 188.19L36.97 191.33ZM26.61 188.19L23.84 176.93L13.48 173.79L5.89 181.91L8.66 193.16L19.02 196.30ZM49.40 163.83L46.63 152.57L36.26 149.43L28.66 157.55L31.43 168.81L41.80 171.95ZM108.19 129.53L105.42 118.25L95.04 115.10L87.43 123.23L90.19 134.50L100.57 137.65ZM90.19 134.50L87.43 123.23L77.05 120.08L69.44 128.20L72.21 139.47L82.58 142.62ZM113.04 110.13L110.28 98.85L99.90 95.69L92.28 103.82L95.04 115.10L105.42 118.25ZM95.04 115.10L92.28 103.82L81.90 100.67L74.28 108.80L77.05 120.08L87.43 123.23ZM121.33 143.96L118.57 132.68L108.19 129.53L100.57 137.65L103.33 148.93L113.71 152.08ZM103.33 148.93L100.57 137.65L90.19 134.50L82.58 142.62L85.35 153.89L95.72 157.04ZM126.19 124.56L123.43 113.28L113.04 110.13L105.42 118.25L108.19 129.53L118.57 132.68ZM59.07 125.06L56.30 113.78L45.92 110.64L38.32 118.77L41.09 130.04L51.46 133.18ZM41.09 130.04L38.32 118.77L27.94 115.63L20.34 123.76L23.12 135.02L33.49 138.16ZM63.90 105.66L61.13 94.38L50.75 91.24L43.15 99.37L45.92 110.64L56.30 113.78ZM45.92 110.64L43.15 99.37L32.77 96.23L25.17 104.36L27.94 115.63L38.32 118.77ZM72.21 139.47L69.44 128.20L59.07 125.06L51.46 133.18L54.23 144.45L64.60 147.59ZM54.23 144.45L51.46 133.18L41.09 130.04L33.49 138.16L36.26 149.43L46.63 152.57ZM77.05 120.08L74.28 108.80L63.90 105.66L56.30 113.78L59.07 125.06L69.44 128.20ZM101.92 221.49L99.16 210.22L88.79 207.07L81.19 215.18L83.95 226.44L94.32 229.59ZM83.95 226.44L81.19 215.18L70.83 212.03L63.23 220.14L65.99 231.39L76.35 234.54ZM106.77 202.12L104.01 190.85L93.64 187.70L86.03 195.81L88.79 207.07L99.16 210.22ZM88.79 207.07L86.03 195.81L75.66 192.66L68.06 200.77L70.83 212.03L81.19 215.18ZM115.04 235.91L112.29 224.64L101.92 221.49L94.32 229.59L97.08 240.85L107.44 244.01ZM97.08 240.85L94.32 229.59L83.95 226.44L76.35 234.54L79.12 245.80L89.48 248.95ZM119.90 216.54L117.14 205.27L106.77 202.12L99.16 210.22L101.92 221.49L112.29 224.64ZM52.87 216.99L50.10 205.73L39.74 202.59L32.15 210.70L34.92 221.95L45.28 225.10ZM34.92 221.95L32.15 210.70L21.79 207.55L14.21 215.67L16.98 226.92L27.33 230.06ZM57.70 197.62L54.93 186.36L44.57 183.21L36.97 191.33L39.74 202.59L50.10 205.73ZM39.74 202.59L36.97 191.33L26.61 188.19L19.02 196.30L21.79 207.55L32.15 210.70ZM65.99 231.39L63.23 220.14L52.87 216.99L45.28 225.10L48.04 236.35L58.40 239.50ZM48.04 236.35L45.28 225.10L34.92 221.95L27.33 230.06L30.10 241.31L40.45 244.45ZM70.83 212.03L68.06 200.77L57.70 197.62L50.10 205.73L52.87 216.99L63.23 220.14ZM129.61 177.78L126.85 166.51L116.47 163.35L108.86 171.47L111.62 182.74L121.99 185.90ZM111.62 182.74L108.86 171.47L98.48 168.31L90.88 176.43L93.64 187.70L104.01 190.85ZM134.47 158.39L131.71 147.12L121.33 143.96L113.71 152.08L116.47 163.35L126.85 166.51ZM116.47 163.35L113.71 152.08L103.33 148.93L95.72 157.04L98.48 168.31L108.86 171.47ZM142.74 192.22L139.98 180.94L129.61 177.78L121.99 185.90L124.75 197.16L135.12 200.32ZM124.75 197.16L121.99 185.90L111.62 182.74L104.01 190.85L106.77 202.12L117.14 205.27ZM147.60 172.83L144.85 161.56L134.47 158.39L126.85 166.51L129.61 177.78L139.98 180.94ZM240.84 2.59L238.08 -8.72L227.67 -11.89L220.01 -3.75L222.76 7.56L233.17 10.73ZM222.76 7.56L220.01 -3.75L209.59 -6.92L201.94 1.22L204.69 12.53L215.10 15.70ZM254.00 17.08L251.25 5.76L240.84 2.59L233.17 10.73L235.93 22.04L246.34 25.21ZM235.93 22.04L233.17 10.73L222.76 7.56L215.10 15.70L217.86 27.01L228.27 30.18ZM258.92 -2.38L256.17 -13.69L245.75 -16.87L238.08 -8.72L240.84 2.59L251.25 5.76ZM191.53 -1.94L188.77 -13.25L178.36 -16.41L170.71 -8.26L173.47 3.04L183.88 6.20ZM173.47 3.04L170.71 -8.26L160.30 -11.42L152.65 -3.28L155.42 8.02L165.82 11.18ZM204.69 12.53L201.94 1.22L191.53 -1.94L183.88 6.20L186.63 17.51L197.04 20.67ZM186.63 17.51L183.88 6.20L173.47 3.04L165.82 11.18L168.58 22.48L178.99 25.65ZM209.59 -6.92L206.84 -18.23L196.42 -21.39L188.77 -13.25L191.53 -1.94L201.94 1.22ZM262.25 51.01L259.50 39.70L249.09 36.52L241.43 44.65L244.18 55.96L254.58 59.14ZM244.18 55.96L241.43 44.65L231.02 41.48L223.36 49.61L226.11 60.92L236.52 64.09ZM267.17 31.56L264.42 20.25L254.00 17.08L246.34 25.21L249.09 36.52L259.50 39.70ZM249.09 36.52L246.34 25.21L235.93 22.04L228.27 30.18L231.02 41.48L241.43 44.65ZM275.40 65.49L272.66 54.19L262.25 51.01L254.58 59.14L257.33 70.44L267.74 73.62ZM257.33 70.44L254.58 59.14L244.18 55.96L236.52 64.09L239.27 75.39L249.67 78.57ZM212.96 46.44L210.20 35.14L199.80 31.97L192.15 40.11L194.90 51.41L205.31 54.58ZM194.90 51.41L192.15 40.11L181.74 36.95L174.10 45.08L176.86 56.38L187.26 59.54ZM217.86 27.01L215.10 15.70L204.69 12.53L197.04 20.67L199.80 31.97L210.20 35.14ZM199.80 31.97L197.04 20.67L186.63 17.51L178.99 25.65L181.74 36.95L192.15 40.11ZM226.11 60.92L223.36 49.61L212.96 46.44L205.31 54.58L208.06 65.88L218.46 69.05ZM208.06 65.88L205.31 54.58L194.90 51.41L187.26 59.54L190.01 70.84L200.41 74.01ZM231.02 41.48L228.27 30.18L217.86 27.01L210.20 35.14L212.96 46.44L223.36 49.61ZM272.09 12.12L269.34 0.80L258.92 -2.38L251.25 5.76L254.00 17.08L264.42 20.25ZM114.47 37.43L111.71 26.14L101.31 22.99L93.68 31.13L96.45 42.42L106.84 45.57ZM96.45 42.42L93.68 31.13L83.29 27.99L75.67 36.13L78.44 47.42L88.83 50.56ZM119.34 18.00L116.57 6.70L106.17 3.55L98.54 11.70L101.31 22.99L111.71 26.14ZM101.31 22.99L98.54 11.70L88.14 8.55L80.52 16.70L83.29 27.99L93.68 31.13ZM127.63 51.88L124.87 40.59L114.47 37.43L106.84 45.57L109.61 56.86L120.00 60.01ZM109.61 56.86L106.84 45.57L96.45 42.42L88.83 50.56L91.60 61.85L101.99 65.00ZM132.50 32.45L129.74 21.15L119.34 18.00L111.71 26.14L114.47 37.43L124.87 40.59ZM65.28 32.99L62.51 21.70L52.11 18.56L44.50 26.70L47.27 37.99L57.66 41.13ZM47.27 37.99L44.50 26.70L34.11 23.57L26.50 31.71L29.28 42.99L39.66 46.13ZM70.13 13.55L67.35 2.26L56.96 -0.88L49.34 7.27L52.11 18.56L62.51 21.70ZM52.11 18.56L49.34 7.27L38.95 4.13L31.33 12.28L34.11 23.57L44.50 26.70ZM78.44 47.42L75.67 36.13L65.28 32.99L57.66 41.13L60.43 52.41L70.82 55.55ZM60.43 52.41L57.66 41.13L47.27 37.99L39.66 46.13L42.44 57.41L52.82 60.55ZM83.29 27.99L80.52 16.70L70.13 13.55L62.51 21.70L65.28 32.99L75.67 36.13ZM142.25 -6.43L139.48 -17.74L129.08 -20.89L121.44 -12.74L124.21 -1.44L134.61 1.71ZM124.21 -1.44L121.44 -12.74L111.04 -15.89L103.40 -7.74L106.17 3.55L116.57 6.70ZM155.42 8.02L152.65 -3.28L142.25 -6.43L134.61 1.71L137.37 13.01L147.77 16.17ZM137.37 13.01L134.61 1.71L124.21 -1.44L116.57 6.70L119.34 18.00L129.74 21.15ZM74.98 -5.88L72.20 -17.18L61.81 -20.32L54.18 -12.17L56.96 -0.88L67.35 2.26ZM106.17 3.55L103.40 -7.74L93.00 -10.89L85.37 -2.74L88.14 8.55L98.54 11.70ZM88.14 8.55L85.37 -2.74L74.98 -5.88L67.35 2.26L70.13 13.55L80.52 16.70ZM135.92 85.74L133.16 74.46L122.77 71.30L115.14 79.43L117.90 90.72L128.29 93.87ZM117.90 90.72L115.14 79.43L104.75 76.28L97.13 84.41L99.90 95.69L110.28 98.85ZM140.79 66.32L138.03 55.03L127.63 51.88L120.00 60.01L122.77 71.30L133.16 74.46ZM122.77 71.30L120.00 60.01L109.61 56.86L101.99 65.00L104.75 76.28L115.14 79.43ZM149.07 100.19L146.31 88.90L135.92 85.74L128.29 93.87L131.05 105.16L141.44 108.31ZM131.05 105.16L128.29 93.87L117.90 90.72L110.28 98.85L113.04 110.13L123.43 113.28ZM153.94 80.77L151.18 69.48L140.79 66.32L133.16 74.46L135.92 85.74L146.31 88.90ZM86.74 81.26L83.98 69.98L73.59 66.84L65.98 74.97L68.75 86.25L79.13 89.40ZM68.75 86.25L65.98 74.97L55.59 71.83L47.98 79.96L50.75 91.24L61.13 94.38ZM91.60 61.85L88.83 50.56L78.44 47.42L70.82 55.55L73.59 66.84L83.98 69.98ZM73.59 66.84L70.82 55.55L60.43 52.41L52.82 60.55L55.59 71.83L65.98 74.97ZM99.90 95.69L97.13 84.41L86.74 81.26L79.13 89.40L81.90 100.67L92.28 103.82ZM81.90 100.67L79.13 89.40L68.75 86.25L61.13 94.38L63.90 105.66L74.28 108.80ZM104.75 76.28L101.99 65.00L91.60 61.85L83.98 69.98L86.74 81.26L97.13 84.41ZM163.70 41.92L160.94 30.62L150.54 27.46L142.90 35.60L145.66 46.90L156.06 50.06ZM145.66 46.90L142.90 35.60L132.50 32.45L124.87 40.59L127.63 51.88L138.03 55.03ZM168.58 22.48L165.82 11.18L155.42 8.02L147.77 16.17L150.54 27.46L160.94 30.62ZM150.54 27.46L147.77 16.17L137.37 13.01L129.74 21.15L132.50 32.45L142.90 35.60ZM176.86 56.38L174.10 45.08L163.70 41.92L156.06 50.06L158.82 61.35L169.22 64.51ZM158.82 61.35L156.06 50.06L145.66 46.90L138.03 55.03L140.79 66.32L151.18 69.48ZM181.74 36.95L178.99 25.65L168.58 22.48L160.94 30.62L163.70 41.92L174.10 45.08ZM249.27 235.21L246.53 223.93L236.14 220.75L228.51 228.85L231.25 240.13L241.63 243.31ZM231.25 240.13L228.51 228.85L218.13 225.67L210.50 233.77L213.24 245.04L223.62 248.22ZM254.17 215.83L251.43 204.55L241.04 201.37L233.40 209.47L236.14 220.75L246.53 223.93ZM236.14 220.75L233.40 209.47L223.02 206.29L215.38 214.40L218.13 225.67L228.51 228.85ZM262.39 249.67L259.65 238.39L249.27 235.21L241.63 243.31L244.37 254.58L254.75 257.76ZM244.37 254.58L241.63 243.31L231.25 240.13L223.62 248.22L226.36 259.49L236.74 262.67ZM267.29 230.30L264.55 219.01L254.17 215.83L246.53 223.93L249.27 235.21L259.65 238.39ZM259.07 196.44L256.33 185.16L245.94 181.98L238.30 190.08L241.04 201.37L251.43 204.55ZM263.98 177.05L261.23 165.76L250.84 162.58L243.20 170.69L245.94 181.98L256.33 185.16ZM272.20 210.91L269.46 199.63L259.07 196.44L251.43 204.55L254.17 215.83L264.55 219.01ZM275.51 264.13L272.77 252.86L262.39 249.67L254.75 257.76L257.49 269.04L267.86 272.22ZM257.49 269.04L254.75 257.76L244.37 254.58L236.74 262.67L239.48 273.95L249.85 277.13ZM177.25 254.89L174.50 243.62L164.13 240.46L156.51 248.56L159.26 259.82L169.63 262.99ZM159.26 259.82L156.51 248.56L146.14 245.39L138.53 253.49L141.28 264.75L151.65 267.92ZM190.36 269.33L187.62 258.06L177.25 254.89L169.63 262.99L172.38 274.25L182.74 277.42ZM123.31 269.68L120.56 258.43L110.20 255.27L102.59 263.36L105.35 274.62L115.71 277.78ZM128.17 250.33L125.41 239.07L115.04 235.91L107.44 244.01L110.20 255.27L120.56 258.43ZM110.20 255.27L107.44 244.01L97.08 240.85L89.48 248.95L92.24 260.21L102.59 263.36ZM141.28 264.75L138.53 253.49L128.17 250.33L120.56 258.43L123.31 269.68L133.68 272.85ZM200.12 230.60L197.37 219.32L187.00 216.15L179.37 224.25L182.12 235.53L192.49 238.70ZM182.12 235.53L179.37 224.25L169.00 221.09L161.38 229.19L164.13 240.46L174.50 243.62ZM205.00 211.22L202.25 199.94L191.87 196.77L184.25 204.88L187.00 216.15L197.37 219.32ZM187.00 216.15L184.25 204.88L173.87 201.71L166.24 209.82L169.00 221.09L179.37 224.25ZM213.24 245.04L210.50 233.77L200.12 230.60L192.49 238.70L195.24 249.97L205.61 253.14ZM195.24 249.97L192.49 238.70L182.12 235.53L174.50 243.62L177.25 254.89L187.62 258.06ZM218.13 225.67L215.38 214.40L205.00 211.22L197.37 219.32L200.12 230.60L210.50 233.77ZM151.00 226.02L148.25 214.76L137.88 211.59L130.26 219.70L133.02 230.96L143.39 234.13ZM133.02 230.96L130.26 219.70L119.90 216.54L112.29 224.64L115.04 235.91L125.41 239.07ZM155.87 206.65L153.12 195.38L142.74 192.22L135.12 200.32L137.88 211.59L148.25 214.76ZM137.88 211.59L135.12 200.32L124.75 197.16L117.14 205.27L119.90 216.54L130.26 219.70ZM164.13 240.46L161.38 229.19L151.00 226.02L143.39 234.13L146.14 245.39L156.51 248.56ZM146.14 245.39L143.39 234.13L133.02 230.96L125.41 239.07L128.17 250.33L138.53 253.49ZM169.00 221.09L166.24 209.82L155.87 206.65L148.25 214.76L151.00 226.02L161.38 229.19ZM226.36 259.49L223.62 248.22L213.24 245.04L205.61 253.14L208.36 264.41L218.73 267.59ZM208.36 264.41L205.61 253.14L195.24 249.97L187.62 258.06L190.36 269.33L200.73 272.50ZM265.57 104.35L262.82 93.05L252.42 89.87L244.77 97.99L247.51 109.29L257.91 112.47ZM270.48 84.92L267.74 73.62L257.33 70.44L249.67 78.57L252.42 89.87L262.82 93.05ZM0.34 159.39L-2.43 148.13L-12.80 145.00L-20.38 153.12L-17.61 164.38L-7.24 167.51ZM3.85 212.53L1.08 201.28L-9.28 198.14L-16.86 206.25L-14.08 217.50L-3.73 220.64ZM8.66 193.16L5.89 181.91L-4.47 178.77L-12.05 186.89L-9.28 198.14L1.08 201.28ZM16.98 226.92L14.21 215.67L3.85 212.53L-3.73 220.64L-0.96 231.89L9.39 235.02ZM21.79 207.55L19.02 196.30L8.66 193.16L1.08 201.28L3.85 212.53L14.21 215.67ZM1.65 86.82L-1.13 75.55L-11.51 72.42L-19.10 80.55L-16.32 91.82L-5.95 94.95ZM6.47 67.41L3.69 56.14L-6.69 53.01L-14.29 61.15L-11.51 72.42L-1.13 75.55ZM16.12 28.58L13.34 17.29L2.95 14.16L-4.65 22.31L-1.87 33.59L8.51 36.72ZM20.95 9.15L18.17 -2.14L7.78 -5.27L0.17 2.88L2.95 14.16L13.34 17.29ZM2.95 14.16L0.17 2.88L-10.22 -0.25L-17.82 7.90L-15.03 19.18L-4.65 22.31ZM29.28 42.99L26.50 31.71L16.12 28.58L8.51 36.72L11.29 48.00L21.67 51.13ZM11.29 48.00L8.51 36.72L-1.87 33.59L-9.47 41.73L-6.69 53.01L3.69 56.14ZM34.11 23.57L31.33 12.28L20.95 9.15L13.34 17.29L16.12 28.58L26.50 31.71ZM9.97 120.62L7.20 109.35L-3.17 106.22L-10.76 114.35L-7.99 125.61L2.38 128.75ZM14.80 101.22L12.02 89.95L1.65 86.82L-5.95 94.95L-3.17 106.22L7.20 109.35ZM23.12 135.02L20.34 123.76L9.97 120.62L2.38 128.75L5.16 140.01L15.52 143.15ZM5.16 140.01L2.38 128.75L-7.99 125.61L-15.57 133.74L-12.80 145.00L-2.43 148.13ZM27.94 115.63L25.17 104.36L14.80 101.22L7.20 109.35L9.97 120.62L20.34 123.76ZM37.60 76.82L34.83 65.55L24.45 62.41L16.84 70.55L19.62 81.82L30.00 84.96ZM19.62 81.82L16.84 70.55L6.47 67.41L-1.13 75.55L1.65 86.82L12.02 89.95ZM42.44 57.41L39.66 46.13L29.28 42.99L21.67 51.13L24.45 62.41L34.83 65.55ZM24.45 62.41L21.67 51.13L11.29 48.00L3.69 56.14L6.47 67.41L16.84 70.55ZM50.75 91.24L47.98 79.96L37.60 76.82L30.00 84.96L32.77 96.23L43.15 99.37ZM32.77 96.23L30.00 84.96L19.62 81.82L12.02 89.95L14.80 101.22L25.17 104.36ZM55.59 71.83L52.82 60.55L42.44 57.41L34.83 65.55L37.60 76.82L47.98 79.96Z"/></svg>
