<svg xmlns="http://www.w3.org/2000/svg" width="256" height="256" viewBox="0 0 256 256"><path data-band="1" fill="#fde68a" fill-opacity="0.35" d="M121.00 99.81L118.26 88.60L107.95 85.43L100.39 93.47L103.13 104.67L113.44 107.84ZM59.17 80.81L56.42 69.61L46.11 66.45L38.56 74.49L41.32 85.69L51.62 88.85ZM72.22 95.17L69.47 83.97L59.17 80.81L51.62 88.85L54.37 100.04L64.67 103.21ZM0.85 114.68L-1.91 103.49L-12.20 100.34L-19.73 108.38L-16.97 119.56L-6.68 122.71ZM5.63 95.45L2.88 84.26L-7.42 81.11L-14.96 89.15L-12.20 100.34L-1.91 103.49ZM13.90 129.02L11.14 117.83L0.85 114.68L-6.68 122.71L-3.93 133.90L6.36 137.05ZM18.68 109.80L15.93 98.61L5.63 95.45L-1.91 103.49L0.85 114.68L11.14 117.83ZM28.26 71.33L25.51 60.14L15.20 56.98L7.66 65.03L10.42 76.22L20.72 79.37ZM10.42 76.22L7.66 65.03L-2.64 61.87L-10.18 69.92L-7.42 81.11L2.88 84.26ZM41.32 85.69L38.56 74.49L28.26 71.33L20.72 79.37L23.47 90.57L33.77 93.73ZM23.47 90.57L20.72 79.37L10.42 76.22L2.88 84.26L5.63 95.45L15.93 98.61ZM46.11 66.45L43.36 55.25L33.06 52.09L25.51 60.14L28.26 71.33L38.56 74.49ZM162.04 267.74L159.31 256.55L149.02 253.37L141.47 261.37L144.20 272.55L154.48 275.74ZM166.87 248.55L164.14 237.36L153.85 234.18L146.29 242.18L149.02 253.37L159.31 256.55ZM149.02 253.37L146.29 242.18L136.00 239.00L128.45 247.01L131.18 258.19L141.47 261.37ZM179.89 262.92L177.16 251.73L166.87 248.55L159.31 256.55L162.04 267.74L172.33 270.92ZM113.35 263.01L110.61 251.83L100.33 248.66L92.79 256.66L95.52 267.84L105.80 271.02ZM95.52 267.84L92.79 256.66L82.51 253.49L74.97 261.50L77.71 272.67L87.98 275.84ZM118.16 243.83L115.42 232.64L105.14 229.47L97.59 237.48L100.33 248.66L110.61 251.83ZM100.33 248.66L97.59 237.48L87.31 234.31L79.76 242.31L82.51 253.49L92.79 256.66ZM131.18 258.19L128.45 247.01L118.16 243.83L110.61 251.83L113.35 263.01L123.63 266.19ZM189.56 224.53L186.84 213.34L176.54 210.15L168.97 218.16L171.70 229.35L182.00 232.54ZM171.70 229.35L168.97 218.16L158.68 214.98L151.11 222.99L153.85 234.18L164.14 237.36ZM194.41 205.33L191.68 194.13L181.38 190.94L173.81 198.95L176.54 210.15L186.84 213.34ZM176.54 210.15L173.81 198.95L163.51 195.77L155.94 203.78L158.68 214.98L168.97 218.16ZM202.59 238.92L199.86 227.72L189.56 224.53L182.00 232.54L184.72 243.73L195.02 246.92ZM184.72 243.73L182.00 232.54L171.70 229.35L164.14 237.36L166.87 248.55L177.16 251.73ZM207.43 219.72L204.71 208.52L194.41 205.33L186.84 213.34L189.56 224.53L199.86 227.72ZM140.82 219.80L138.09 208.61L127.79 205.44L120.24 213.45L122.98 224.64L133.27 227.81ZM122.98 224.64L120.24 213.45L109.95 210.27L102.40 218.29L105.14 229.47L115.42 232.64ZM145.65 200.60L142.91 189.41L132.62 186.23L125.06 194.25L127.79 205.44L138.09 208.61ZM127.79 205.44L125.06 194.25L114.76 191.07L107.21 199.09L109.95 210.27L120.24 213.45ZM153.85 234.18L151.11 222.99L140.82 219.80L133.27 227.81L136.00 239.00L146.29 242.18ZM136.00 239.00L133.27 227.81L122.98 224.64L115.42 232.64L118.16 243.83L128.45 247.01ZM158.68 214.98L155.94 203.78L145.65 200.60L138.09 208.61L140.82 219.80L151.11 222.99ZM215.61 253.30L212.89 242.11L202.59 238.92L195.02 246.92L197.75 258.11L208.04 261.30ZM197.75 258.11L195.02 246.92L184.72 243.73L177.16 251.73L179.89 262.92L190.18 266.11ZM228.63 267.69L225.91 256.50L215.61 253.30L208.04 261.30L210.76 272.49L221.06 275.69ZM64.69 258.33L61.95 247.15L51.67 243.99L44.14 252.00L46.88 263.17L57.15 266.33ZM46.88 263.17L44.14 252.00L33.86 248.83L26.33 256.84L29.08 268.01L39.35 271.17ZM69.48 239.15L66.74 227.97L56.46 224.80L48.92 232.81L51.67 243.99L61.95 247.15ZM51.67 243.99L48.92 232.81L38.64 229.65L31.11 237.66L33.86 248.83L44.14 252.00ZM82.51 253.49L79.76 242.31L69.48 239.15L61.95 247.15L64.69 258.33L74.97 261.50ZM16.06 253.68L13.31 242.51L3.04 239.35L-4.48 247.36L-1.73 258.53L8.54 261.69ZM20.84 234.50L18.09 223.33L7.81 220.17L0.29 228.18L3.04 239.35L13.31 242.51ZM3.04 239.35L0.29 228.18L-9.99 225.03L-17.51 233.04L-14.75 244.21L-4.48 247.36ZM29.08 268.01L26.33 256.84L16.06 253.68L8.54 261.69L11.29 272.85L21.56 276.01ZM33.86 248.83L31.11 237.66L20.84 234.50L13.31 242.51L16.06 253.68L26.33 256.84ZM178.02 138.11L175.29 126.91L164.98 123.72L157.40 131.75L160.14 142.95L170.45 146.14ZM147.10 128.57L144.36 117.37L134.05 114.19L126.49 122.22L129.23 133.42L139.53 136.60ZM129.23 133.42L126.49 122.22L116.18 119.05L108.62 127.07L111.36 138.27L121.66 141.45ZM160.14 142.95L157.40 131.75L147.10 128.57L139.53 136.60L142.27 147.80L152.57 150.98ZM142.27 147.80L139.53 136.60L129.23 133.42L121.66 141.45L124.40 152.64L134.70 155.82ZM164.98 123.72L162.24 112.52L151.93 109.34L144.36 117.37L147.10 128.57L157.40 131.75ZM217.14 181.29L214.41 170.09L204.10 166.90L196.52 174.91L199.25 186.12L209.56 189.31ZM199.25 186.12L196.52 174.91L186.22 171.73L178.64 179.74L181.38 190.94L191.68 194.13ZM221.99 162.07L219.26 150.86L208.95 147.67L201.37 155.69L204.10 166.90L214.41 170.09ZM204.10 166.90L201.37 155.69L191.06 152.50L183.49 160.52L186.22 171.73L196.52 174.91ZM230.17 195.69L227.44 184.49L217.14 181.29L209.56 189.31L212.28 200.51L222.59 203.70ZM212.28 200.51L209.56 189.31L199.25 186.12L191.68 194.13L194.41 205.33L204.71 208.52ZM235.03 176.47L232.30 165.26L221.99 162.07L214.41 170.09L217.14 181.29L227.44 184.49ZM168.34 176.56L165.61 165.36L155.31 162.18L147.74 170.20L150.47 181.39L160.77 184.57ZM150.47 181.39L147.74 170.20L137.44 167.02L129.88 175.04L132.62 186.23L142.91 189.41ZM173.18 157.34L170.45 146.14L160.14 142.95L152.57 150.98L155.31 162.18L165.61 165.36ZM155.31 162.18L152.57 150.98L142.27 147.80L134.70 155.82L137.44 167.02L147.74 170.20ZM181.38 190.94L178.64 179.74L168.34 176.56L160.77 184.57L163.51 195.77L173.81 198.95ZM163.51 195.77L160.77 184.57L150.47 181.39L142.91 189.41L145.65 200.60L155.94 203.78ZM186.22 171.73L183.49 160.52L173.18 157.34L165.61 165.36L168.34 176.56L178.64 179.74ZM239.89 157.25L237.16 146.03L226.85 142.84L219.26 150.86L221.99 162.07L232.30 165.26ZM70.85 167.20L68.11 156.01L57.81 152.85L50.27 160.87L53.02 172.06L63.31 175.22ZM53.02 172.06L50.27 160.87L39.98 157.71L32.44 165.73L35.19 176.92L45.48 180.08ZM75.65 147.99L72.91 136.79L62.61 133.63L55.06 141.66L57.81 152.85L68.11 156.01ZM57.81 152.85L55.06 141.66L44.77 138.49L37.23 146.52L39.98 157.71L50.27 160.87ZM83.89 181.56L81.14 170.37L70.85 167.20L63.31 175.22L66.05 186.41L76.34 189.57ZM66.05 186.41L63.31 175.22L53.02 172.06L45.48 180.08L48.22 191.26L58.51 194.43ZM88.69 162.34L85.95 151.15L75.65 147.99L68.11 156.01L70.85 167.20L81.14 170.37ZM22.15 162.58L19.40 151.39L9.11 148.24L1.58 156.26L4.33 167.44L14.62 170.60ZM4.33 167.44L1.58 156.26L-8.70 153.11L-16.23 161.14L-13.48 172.32L-3.20 175.47ZM26.94 143.36L24.19 132.18L13.90 129.02L6.36 137.05L9.11 148.24L19.40 151.39ZM9.11 148.24L6.36 137.05L-3.93 133.90L-11.46 141.93L-8.70 153.11L1.58 156.26ZM35.19 176.92L32.44 165.73L22.15 162.58L14.62 170.60L17.37 181.78L27.65 184.94ZM17.37 181.78L14.62 170.60L4.33 167.44L-3.20 175.47L-0.44 186.65L9.84 189.80ZM39.98 157.71L37.23 146.52L26.94 143.36L19.40 151.39L22.15 162.58L32.44 165.73ZM98.32 123.90L95.57 112.70L85.27 109.54L77.71 117.57L80.46 128.76L90.76 131.93ZM80.46 128.76L77.71 117.57L67.42 114.40L59.86 122.43L62.61 133.63L72.91 136.79ZM103.13 104.67L100.39 93.47L90.08 90.30L82.52 98.34L85.27 109.54L95.57 112.70ZM85.27 109.54L82.52 98.34L72.22 95.17L64.67 103.21L67.42 114.40L77.71 117.57ZM111.36 138.27L108.62 127.07L98.32 123.90L90.76 131.93L93.50 143.13L103.80 146.30ZM93.50 143.13L90.76 131.93L80.46 128.76L72.91 136.79L75.65 147.99L85.95 151.15ZM116.18 119.05L113.44 107.84L103.13 104.67L95.57 112.70L98.32 123.90L108.62 127.07ZM49.57 119.27L46.82 108.08L36.52 104.92L28.98 112.95L31.73 124.15L42.02 127.30ZM31.73 124.15L28.98 112.95L18.68 109.80L11.14 117.83L13.90 129.02L24.19 132.18ZM54.37 100.04L51.62 88.85L41.32 85.69L33.77 93.73L36.52 104.92L46.82 108.08ZM36.52 104.92L33.77 93.73L23.47 90.57L15.93 98.61L18.68 109.80L28.98 112.95ZM62.61 133.63L59.86 122.43L49.57 119.27L42.02 127.30L44.77 138.49L55.06 141.66ZM44.77 138.49L42.02 127.30L31.73 124.15L24.19 132.18L26.94 143.36L37.23 146.52ZM67.42 114.40L64.67 103.21L54.37 100.04L46.82 108.08L49.57 119.27L59.86 122.43ZM92.11 215.11L89.37 203.93L79.08 200.76L71.54 208.77L74.28 219.96L84.57 223.12ZM74.28 219.96L71.54 208.77L61.25 205.61L53.71 213.62L56.46 224.80L66.74 227.97ZM96.92 195.91L94.18 184.73L83.89 181.56L76.34 189.57L79.08 200.76L89.37 203.93ZM79.08 200.76L76.34 189.57L66.05 186.41L58.51 194.43L61.25 205.61L71.54 208.77ZM105.14 229.47L102.40 218.29L92.11 215.11L84.57 223.12L87.31 234.31L97.59 237.48ZM87.31 234.31L84.57 223.12L74.28 219.96L66.74 227.97L69.48 239.15L79.76 242.31ZM109.95 210.27L107.21 199.09L96.92 195.91L89.37 203.93L92.11 215.11L102.40 218.29ZM43.43 210.46L40.69 199.28L30.40 196.12L22.87 204.14L25.62 215.31L35.90 218.47ZM25.62 215.31L22.87 204.14L12.59 200.98L5.06 208.99L7.81 220.17L18.09 223.33ZM48.22 191.26L45.48 180.08L35.19 176.92L27.65 184.94L30.40 196.12L40.69 199.28ZM30.40 196.12L27.65 184.94L17.37 181.78L9.84 189.80L12.59 200.98L22.87 204.14ZM56.46 224.80L53.71 213.62L43.43 210.46L35.90 218.47L38.64 229.65L48.92 232.81ZM38.64 229.65L35.90 218.47L25.62 215.31L18.09 223.33L20.84 234.50L31.11 237.66ZM61.25 205.61L58.51 194.43L48.22 191.26L40.69 199.28L43.43 210.46L53.71 213.62ZM119.58 171.86L116.84 160.67L106.54 157.49L98.99 165.51L101.73 176.71L112.02 179.88ZM101.73 176.71L98.99 165.51L88.69 162.34L81.14 170.37L83.89 181.56L94.18 184.73ZM124.40 152.64L121.66 141.45L111.36 138.27L103.80 146.30L106.54 157.49L116.84 160.67ZM106.54 157.49L103.80 146.30L93.50 143.13L85.95 151.15L88.69 162.34L98.99 165.51ZM132.62 186.23L129.88 175.04L119.58 171.86L112.02 179.88L114.76 191.07L125.06 194.25ZM114.76 191.07L112.02 179.88L101.73 176.71L94.18 184.73L96.92 195.91L107.21 199.09ZM137.44 167.02L134.70 155.82L124.40 152.64L116.84 160.67L119.58 171.86L129.88 175.04ZM269.25 238.90L266.53 227.69L256.22 224.49L248.64 232.50L251.36 243.70L261.66 246.90ZM274.12 219.69L271.40 208.48L261.09 205.28L253.50 213.29L256.22 224.49L266.53 227.69ZM238.34 229.30L235.62 218.10L225.31 214.90L217.73 222.91L220.46 234.11L230.76 237.30ZM220.46 234.11L217.73 222.91L207.43 219.72L199.86 227.72L202.59 238.92L212.89 242.11ZM243.20 210.09L240.47 198.89L230.17 195.69L222.59 203.70L225.31 214.90L235.62 218.10ZM225.31 214.90L222.59 203.70L212.28 200.51L204.71 208.52L207.43 219.72L217.73 222.91ZM251.36 243.70L248.64 232.50L238.34 229.30L230.76 237.30L233.48 248.50L243.78 251.70ZM233.48 248.50L230.76 237.30L220.46 234.11L212.89 242.11L215.61 253.30L225.91 256.50ZM256.22 224.49L253.50 213.29L243.20 210.09L235.62 218.10L238.34 229.30L248.64 232.50ZM265.96 186.06L263.24 174.85L252.93 171.65L245.34 179.67L248.06 190.88L258.37 194.07ZM248.06 190.88L245.34 179.67L235.03 176.47L227.44 184.49L230.17 195.69L240.47 198.89ZM252.93 171.65L250.20 160.44L239.89 157.25L232.30 165.26L235.03 176.47L245.34 179.67ZM261.09 205.28L258.37 194.07L248.06 190.88L240.47 198.89L243.20 210.09L253.50 213.29ZM264.38 258.10L261.66 246.90L251.36 243.70L243.78 251.70L246.50 262.89L256.80 266.09ZM246.50 262.89L243.78 251.70L233.48 248.50L225.91 256.50L228.63 267.69L238.92 270.89ZM7.81 220.17L5.06 208.99L-5.22 205.84L-12.74 213.86L-9.99 225.03L0.29 228.18ZM12.59 200.98L9.84 189.80L-0.44 186.65L-7.97 194.67L-5.22 205.84L5.06 208.99Z"/><path data-band="2" fill="#f97316" fill-opacity="0.35" d="M47.46 -5.68L44.70 -16.89L34.39 -20.05L26.83 -11.99L29.59 -0.78L39.90 2.38ZM29.59 -0.78L26.83 -11.99L16.52 -15.14L8.96 -7.08L11.72 4.12L22.03 7.28ZM104.54 32.56L101.79 21.34L91.48 18.18L83.91 26.22L86.66 37.44L96.97 40.60ZM86.66 37.44L83.91 26.22L73.59 23.06L66.03 31.11L68.78 42.32L79.09 45.48ZM109.37 13.29L106.62 2.08L96.30 -1.09L88.73 6.96L91.48 18.18L101.79 21.34ZM91.48 18.18L88.73 6.96L78.41 3.80L70.84 11.85L73.59 23.06L83.91 26.22ZM117.60 46.94L114.86 35.72L104.54 32.56L96.97 40.60L99.72 51.81L110.03 54.98ZM99.72 51.81L96.97 40.60L86.66 37.44L79.09 45.48L81.84 56.69L92.15 59.85ZM122.43 27.68L119.69 16.46L109.37 13.29L101.79 21.34L104.54 32.56L114.86 35.72ZM55.72 27.95L52.97 16.74L42.66 13.58L35.10 21.64L37.85 32.84L48.16 36.00ZM37.85 32.84L35.10 21.64L24.79 18.48L17.24 26.53L20.00 37.74L30.30 40.89ZM60.53 8.69L57.77 -2.52L47.46 -5.68L39.90 2.38L42.66 13.58L52.97 16.74ZM42.66 13.58L39.90 2.38L29.59 -0.78L22.03 7.28L24.79 18.48L35.10 21.64ZM68.78 42.32L66.03 31.11L55.72 27.95L48.16 36.00L50.92 47.20L61.22 50.36ZM50.92 47.20L48.16 36.00L37.85 32.84L30.30 40.89L33.06 52.09L43.36 55.25ZM73.59 23.06L70.84 11.85L60.53 8.69L52.97 16.74L55.72 27.95L66.03 31.11ZM114.19 -5.98L111.45 -17.20L101.12 -20.36L93.55 -12.31L96.30 -1.09L106.62 2.08ZM145.17 3.54L142.42 -7.69L132.10 -10.86L124.52 -2.81L127.26 8.41L137.59 11.58ZM127.26 8.41L124.52 -2.81L114.19 -5.98L106.62 2.08L109.37 13.29L119.69 16.46ZM96.30 -1.09L93.55 -12.31L83.23 -15.47L75.66 -7.42L78.41 3.80L88.73 6.96ZM78.41 3.80L75.66 -7.42L65.34 -10.58L57.77 -2.52L60.53 8.69L70.84 11.85ZM125.83 80.57L123.09 69.36L112.78 66.19L105.21 74.23L107.95 85.43L118.26 88.60ZM107.95 85.43L105.21 74.23L94.90 71.06L87.34 79.10L90.08 90.30L100.39 93.47ZM130.66 61.32L127.92 50.11L117.60 46.94L110.03 54.98L112.78 66.19L123.09 69.36ZM112.78 66.19L110.03 54.98L99.72 51.81L92.15 59.85L94.90 71.06L105.21 74.23ZM138.88 94.95L136.14 83.74L125.83 80.57L118.26 88.60L121.00 99.81L131.31 102.98ZM143.72 75.71L140.98 64.50L130.66 61.32L123.09 69.36L125.83 80.57L136.14 83.74ZM77.03 75.93L74.28 64.73L63.97 61.57L56.42 69.61L59.17 80.81L69.47 83.97ZM81.84 56.69L79.09 45.48L68.78 42.32L61.22 50.36L63.97 61.57L74.28 64.73ZM63.97 61.57L61.22 50.36L50.92 47.20L43.36 55.25L46.11 66.45L56.42 69.61ZM90.08 90.30L87.34 79.10L77.03 75.93L69.47 83.97L72.22 95.17L82.52 98.34ZM94.90 71.06L92.15 59.85L81.84 56.69L74.28 64.73L77.03 75.93L87.34 79.10ZM153.39 37.20L150.65 25.98L140.33 22.80L132.75 30.85L135.49 42.07L145.81 45.24ZM135.49 42.07L132.75 30.85L122.43 27.68L114.86 35.72L117.60 46.94L127.92 50.11ZM158.23 17.93L155.49 6.71L145.17 3.54L137.59 11.58L140.33 22.80L150.65 25.98ZM140.33 22.80L137.59 11.58L127.26 8.41L119.69 16.46L122.43 27.68L132.75 30.85ZM166.45 51.59L163.71 40.37L153.39 37.20L145.81 45.24L148.55 56.46L158.87 59.63ZM148.55 56.46L145.81 45.24L135.49 42.07L127.92 50.11L130.66 61.32L140.98 64.50ZM171.30 32.33L168.56 21.11L158.23 17.93L150.65 25.98L153.39 37.20L163.71 40.37ZM6.93 23.38L4.17 12.18L-6.13 9.03L-13.68 17.08L-10.92 28.28L-0.61 31.43ZM11.72 4.12L8.96 -7.08L-1.35 -10.23L-8.89 -2.17L-6.13 9.03L4.17 12.18ZM20.00 37.74L17.24 26.53L6.93 23.38L-0.61 31.43L2.14 42.63L12.45 45.78ZM2.14 42.63L-0.61 31.43L-10.92 28.28L-18.46 36.33L-15.70 47.53L-5.40 50.68ZM24.79 18.48L22.03 7.28L11.72 4.12L4.17 12.18L6.93 23.38L17.24 26.53ZM33.06 52.09L30.30 40.89L20.00 37.74L12.45 45.78L15.20 56.98L25.51 60.14ZM15.20 56.98L12.45 45.78L2.14 42.63L-5.40 50.68L-2.64 61.87L7.66 65.03ZM195.91 133.27L193.18 122.06L182.87 118.88L175.29 126.91L178.02 138.11L188.33 141.30ZM200.76 114.04L198.03 102.82L187.71 99.64L180.13 107.67L182.87 118.88L193.18 122.06ZM182.87 118.88L180.13 107.67L169.82 104.49L162.24 112.52L164.98 123.72L175.29 126.91ZM208.95 147.67L206.22 136.46L195.91 133.27L188.33 141.30L191.06 152.50L201.37 155.69ZM191.06 152.50L188.33 141.30L178.02 138.11L170.45 146.14L173.18 157.34L183.49 160.52ZM213.81 128.44L211.08 117.23L200.76 114.04L193.18 122.06L195.91 133.27L206.22 136.46ZM151.93 109.34L149.19 98.13L138.88 94.95L131.31 102.98L134.05 114.19L144.36 117.37ZM134.05 114.19L131.31 102.98L121.00 99.81L113.44 107.84L116.18 119.05L126.49 122.22ZM223.53 89.95L220.80 78.73L210.47 75.54L202.88 83.58L205.62 94.79L215.93 97.98ZM205.62 94.79L202.88 83.58L192.56 80.39L184.98 88.42L187.71 99.64L198.03 102.82ZM228.39 70.70L225.66 59.48L215.33 56.29L207.74 64.32L210.47 75.54L220.80 78.73ZM210.47 75.54L207.74 64.32L197.42 61.14L189.83 69.17L192.56 80.39L202.88 83.58ZM236.58 104.36L233.85 93.14L223.53 89.95L215.93 97.98L218.66 109.20L228.98 112.39ZM218.66 109.20L215.93 97.98L205.62 94.79L198.03 102.82L200.76 114.04L211.08 117.23ZM241.44 85.11L238.72 73.89L228.39 70.70L220.80 78.73L223.53 89.95L233.85 93.14ZM174.66 85.24L171.93 74.03L161.61 70.85L154.03 78.88L156.77 90.10L167.08 93.28ZM156.77 90.10L154.03 78.88L143.72 75.71L136.14 83.74L138.88 94.95L149.19 98.13ZM179.51 65.99L176.77 54.77L166.45 51.59L158.87 59.63L161.61 70.85L171.93 74.03ZM161.61 70.85L158.87 59.63L148.55 56.46L140.98 64.50L143.72 75.71L154.03 78.88ZM187.71 99.64L184.98 88.42L174.66 85.24L167.08 93.28L169.82 104.49L180.13 107.67ZM169.82 104.49L167.08 93.28L156.77 90.10L149.19 98.13L151.93 109.34L162.24 112.52ZM192.56 80.39L189.83 69.17L179.51 65.99L171.93 74.03L174.66 85.24L184.98 88.42ZM244.75 138.01L242.03 126.80L231.71 123.61L224.12 131.63L226.85 142.84L237.16 146.03ZM226.85 142.84L224.12 131.63L213.81 128.44L206.22 136.46L208.95 147.67L219.26 150.86ZM249.62 118.78L246.90 107.56L236.58 104.36L228.98 112.39L231.71 123.61L242.03 126.80ZM231.71 123.61L228.98 112.39L218.66 109.20L211.08 117.23L213.81 128.44L224.12 131.63ZM257.79 152.43L255.07 141.21L244.75 138.01L237.16 146.03L239.89 157.25L250.20 160.44ZM262.67 133.19L259.94 121.97L249.62 118.78L242.03 126.80L244.75 138.01L255.07 141.21ZM270.83 166.84L268.11 155.62L257.79 152.43L250.20 160.44L252.93 171.65L263.24 174.85ZM229.93 -1.53L227.20 -12.76L216.86 -15.95L209.26 -7.90L212.00 3.33L222.33 6.52ZM212.00 3.33L209.26 -7.90L198.93 -11.08L191.33 -3.03L194.07 8.20L204.40 11.38ZM243.00 12.90L240.27 1.66L229.93 -1.53L222.33 6.52L225.06 17.75L235.40 20.94ZM225.06 17.75L222.33 6.52L212.00 3.33L204.40 11.38L207.13 22.61L217.46 25.79ZM247.88 -6.38L245.15 -17.62L234.81 -20.81L227.20 -12.76L229.93 -1.53L240.27 1.66ZM181.00 -6.21L178.26 -17.44L167.93 -20.62L160.34 -12.57L163.08 -1.34L173.41 1.84ZM163.08 -1.34L160.34 -12.57L150.01 -15.74L142.42 -7.69L145.17 3.54L155.49 6.71ZM194.07 8.20L191.33 -3.03L181.00 -6.21L173.41 1.84L176.15 13.06L186.48 16.24ZM176.15 13.06L173.41 1.84L163.08 -1.34L155.49 6.71L158.23 17.93L168.56 21.11ZM251.19 46.59L248.46 35.36L238.13 32.17L230.53 40.21L233.26 51.44L243.59 54.63ZM233.26 51.44L230.53 40.21L220.20 37.02L212.60 45.06L215.33 56.29L225.66 59.48ZM256.07 27.32L253.34 16.09L243.00 12.90L235.40 20.94L238.13 32.17L248.46 35.36ZM238.13 32.17L235.40 20.94L225.06 17.75L217.46 25.79L220.20 37.02L230.53 40.21ZM264.25 61.02L261.52 49.79L251.19 46.59L243.59 54.63L246.31 65.86L256.64 69.05ZM246.31 65.86L243.59 54.63L233.26 51.44L225.66 59.48L228.39 70.70L238.72 73.89ZM269.13 41.75L266.40 30.52L256.07 27.32L248.46 35.36L251.19 46.59L261.52 49.79ZM202.27 41.88L199.54 30.65L189.21 27.47L181.62 35.51L184.36 46.73L194.68 49.92ZM184.36 46.73L181.62 35.51L171.30 32.33L163.71 40.37L166.45 51.59L176.77 54.77ZM207.13 22.61L204.40 11.38L194.07 8.20L186.48 16.24L189.21 27.47L199.54 30.65ZM189.21 27.47L186.48 16.24L176.15 13.06L168.56 21.11L171.30 32.33L181.62 35.51ZM215.33 56.29L212.60 45.06L202.27 41.88L194.68 49.92L197.42 61.14L207.74 64.32ZM197.42 61.14L194.68 49.92L184.36 46.73L176.77 54.77L179.51 65.99L189.83 69.17ZM220.20 37.02L217.46 25.79L207.13 22.61L199.54 30.65L202.27 41.88L212.60 45.06ZM260.95 8.05L258.22 -3.19L247.88 -6.38L240.27 1.66L243.00 12.90L253.34 16.09ZM274.01 22.48L271.29 11.24L260.95 8.05L253.34 16.09L256.07 27.32L266.40 30.52ZM272.42 94.70L269.70 83.47L259.37 80.28L251.77 88.31L254.49 99.53L264.82 102.73ZM254.49 99.53L251.77 88.31L241.44 85.11L233.85 93.14L236.58 104.36L246.90 107.56ZM259.37 80.28L256.64 69.05L246.31 65.86L238.72 73.89L241.44 85.11L251.77 88.31ZM267.54 113.95L264.82 102.73L254.49 99.53L246.90 107.56L249.62 118.78L259.94 121.97ZM275.71 147.61L272.99 136.39L262.67 133.19L255.07 141.21L257.79 152.43L268.11 155.62Z"/></svg>
