<svg xmlns="http://www.w3.org/2000/svg" width="256" height="256" viewBox="0 0 256 256"><path data-band="1" fill="#fde68a" fill-opacity="0.35" d="M6.80 129.11L4.01 117.19L-7.04 113.99L-15.30 122.72L-12.51 134.65L-1.46 137.84ZM12.28 108.46L9.48 96.53L-1.57 93.33L-9.84 102.07L-7.04 113.99L4.01 117.19ZM23.23 67.12L20.44 55.18L9.38 51.98L1.11 60.73L3.90 72.66L14.96 75.86ZM3.90 72.66L1.11 60.73L-9.96 57.53L-18.22 66.28L-15.43 78.21L-4.37 81.40ZM28.72 46.44L25.93 34.50L14.86 31.30L6.58 40.05L9.38 51.98L20.44 55.18ZM9.38 51.98L6.58 40.05L-4.48 36.85L-12.75 45.60L-9.96 57.53L1.11 60.73ZM37.09 82.26L34.30 70.32L23.23 67.12L14.96 75.86L17.75 87.79L28.81 90.99ZM17.75 87.79L14.96 75.86L3.90 72.66L-4.37 81.40L-1.57 93.33L9.48 96.53ZM42.58 61.58L39.79 49.64L28.72 46.44L20.44 55.18L23.23 67.12L34.30 70.32ZM15.17 164.89L12.38 152.96L1.33 149.77L-6.92 158.49L-4.13 170.41L6.91 173.61ZM20.64 144.24L17.86 132.31L6.80 129.11L-1.46 137.84L1.33 149.77L12.38 152.96ZM1.33 149.77L-1.46 137.84L-12.51 134.65L-20.76 143.38L-17.97 155.30L-6.92 158.49ZM34.48 159.37L31.70 147.44L20.64 144.24L12.38 152.96L15.17 164.89L26.22 168.09ZM45.45 118.06L42.66 106.13L31.60 102.92L23.33 111.66L26.12 123.59L37.18 126.79ZM26.12 123.59L23.33 111.66L12.28 108.46L4.01 117.19L6.80 129.11L17.86 132.31ZM50.94 97.40L48.15 85.46L37.09 82.26L28.81 90.99L31.60 102.92L42.66 106.13ZM31.60 102.92L28.81 90.99L17.75 87.79L9.48 96.53L12.28 108.46L23.33 111.66ZM59.29 133.20L56.51 121.27L45.45 118.06L37.18 126.79L39.96 138.72L51.02 141.92ZM39.96 138.72L37.18 126.79L26.12 123.59L17.86 132.31L20.64 144.24L31.70 147.44ZM64.79 112.54L62.00 100.60L50.94 97.40L42.66 106.13L45.45 118.06L56.51 121.27ZM53.57 20.21L50.78 8.26L39.70 5.06L31.42 13.81L34.21 25.75L45.28 28.95ZM34.21 25.75L31.42 13.81L20.34 10.61L12.06 19.36L14.86 31.30L25.93 34.50ZM59.07 -0.49L56.28 -12.44L45.20 -15.64L36.91 -6.89L39.70 5.06L50.78 8.26ZM39.70 5.06L36.91 -6.89L25.83 -10.09L17.55 -1.33L20.34 10.61L31.42 13.81ZM67.43 35.36L64.64 23.41L53.57 20.21L45.28 28.95L48.07 40.90L59.14 44.10ZM48.07 40.90L45.28 28.95L34.21 25.75L25.93 34.50L28.72 46.44L39.79 49.64ZM72.93 14.67L70.15 2.72L59.07 -0.49L50.78 8.26L53.57 20.21L64.64 23.41ZM0.99 16.17L-1.80 4.22L-12.88 1.03L-21.15 9.79L-18.35 21.73L-7.28 24.91ZM6.47 -4.53L3.68 -16.47L-7.40 -19.67L-15.68 -10.91L-12.88 1.03L-1.80 4.22ZM14.86 31.30L12.06 19.36L0.99 16.17L-7.28 24.91L-4.48 36.85L6.58 40.05ZM20.34 10.61L17.55 -1.33L6.47 -4.53L-1.80 4.22L0.99 16.17L12.06 19.36ZM78.44 -6.03L75.65 -17.99L64.57 -21.19L56.28 -12.44L59.07 -0.49L70.15 2.72ZM67.64 168.99L64.86 157.06L53.80 153.85L45.53 162.57L48.32 174.50L59.37 177.71ZM73.13 148.34L70.35 136.41L59.29 133.20L51.02 141.92L53.80 153.85L64.86 157.06ZM53.80 153.85L51.02 141.92L39.96 138.72L31.70 147.44L34.48 159.37L45.53 162.57ZM86.97 163.48L84.19 151.55L73.13 148.34L64.86 157.06L67.64 168.99L78.69 172.20ZM128.37 75.32L125.59 63.37L114.51 60.15L106.22 68.89L109.00 80.83L120.07 84.05ZM109.00 80.83L106.22 68.89L95.14 65.67L86.85 74.41L89.64 86.35L100.71 89.56ZM133.89 54.64L131.11 42.68L120.03 39.46L111.73 48.20L114.51 60.15L125.59 63.37ZM114.51 60.15L111.73 48.20L100.66 44.99L92.36 53.73L95.14 65.67L106.22 68.89ZM142.22 90.49L139.44 78.54L128.37 75.32L120.07 84.05L122.85 96.00L133.92 99.22ZM122.85 96.00L120.07 84.05L109.00 80.83L100.71 89.56L103.49 101.51L114.55 104.72ZM147.75 69.81L144.97 57.86L133.89 54.64L125.59 63.37L128.37 75.32L139.44 78.54ZM75.78 71.20L73.00 59.25L61.93 56.05L53.65 64.78L56.43 76.72L67.50 79.93ZM56.43 76.72L53.65 64.78L42.58 61.58L34.30 70.32L37.09 82.26L48.15 85.46ZM81.29 50.51L78.50 38.57L67.43 35.36L59.14 44.10L61.93 56.05L73.00 59.25ZM61.93 56.05L59.14 44.10L48.07 40.90L39.79 49.64L42.58 61.58L53.65 64.78ZM89.64 86.35L86.85 74.41L75.78 71.20L67.50 79.93L70.28 91.87L81.35 95.08ZM70.28 91.87L67.50 79.93L56.43 76.72L48.15 85.46L50.94 97.40L62.00 100.60ZM95.14 65.67L92.36 53.73L81.29 50.51L73.00 59.25L75.78 71.20L86.85 74.41ZM158.81 28.43L156.04 16.47L144.95 13.25L136.64 21.99L139.42 33.95L150.50 37.17ZM139.42 33.95L136.64 21.99L125.56 18.77L117.25 27.51L120.03 39.46L131.11 42.68ZM164.35 7.73L161.58 -4.23L150.49 -7.46L142.17 1.29L144.95 13.25L156.04 16.47ZM144.95 13.25L142.17 1.29L131.09 -1.93L122.78 6.81L125.56 18.77L136.64 21.99ZM172.67 43.62L169.90 31.66L158.81 28.43L150.50 37.17L153.28 49.12L164.36 52.35ZM153.28 49.12L150.50 37.17L139.42 33.95L131.11 42.68L133.89 54.64L144.97 57.86ZM178.22 22.92L175.44 10.95L164.35 7.73L156.04 16.47L158.81 28.43L169.90 31.66ZM106.17 24.30L103.39 12.34L92.31 9.13L84.01 17.87L86.80 29.83L97.88 33.04ZM86.80 29.83L84.01 17.87L72.93 14.67L64.64 23.41L67.43 35.36L78.50 38.57ZM111.69 3.60L108.91 -8.36L97.82 -11.57L89.52 -2.82L92.31 9.13L103.39 12.34ZM92.31 9.13L89.52 -2.82L78.44 -6.03L70.15 2.72L72.93 14.67L84.01 17.87ZM120.03 39.46L117.25 27.51L106.17 24.30L97.88 33.04L100.66 44.99L111.73 48.20ZM100.66 44.99L97.88 33.04L86.80 29.83L78.50 38.57L81.29 50.51L92.36 53.73ZM125.56 18.77L122.78 6.81L111.69 3.60L103.39 12.34L106.17 24.30L117.25 27.51ZM150.54 126.33L147.76 114.39L136.69 111.16L128.40 119.88L131.17 131.83L142.24 135.05ZM131.17 131.83L128.40 119.88L117.33 116.67L109.04 125.39L111.82 137.33L122.88 140.55ZM156.06 105.66L153.29 93.71L142.22 90.49L133.92 99.22L136.69 111.16L147.76 114.39ZM136.69 111.16L133.92 99.22L122.85 96.00L114.55 104.72L117.33 116.67L128.40 119.88ZM164.38 141.50L161.61 129.56L150.54 126.33L142.24 135.05L145.01 146.99L156.08 150.22ZM169.91 120.84L167.14 108.89L156.06 105.66L147.76 114.39L150.54 126.33L161.61 129.56ZM97.98 122.17L95.20 110.23L84.13 107.02L75.85 115.75L78.63 127.68L89.69 130.90ZM78.63 127.68L75.85 115.75L64.79 112.54L56.51 121.27L59.29 133.20L70.35 136.41ZM103.49 101.51L100.71 89.56L89.64 86.35L81.35 95.08L84.13 107.02L95.20 110.23ZM84.13 107.02L81.35 95.08L70.28 91.87L62.00 100.60L64.79 112.54L75.85 115.75ZM111.82 137.33L109.04 125.39L97.98 122.17L89.69 130.90L92.47 142.83L103.53 146.05ZM92.47 142.83L89.69 130.90L78.63 127.68L70.35 136.41L73.13 148.34L84.19 151.55ZM117.33 116.67L114.55 104.72L103.49 101.51L95.20 110.23L97.98 122.17L109.04 125.39ZM180.98 79.49L178.21 67.53L167.13 64.30L158.82 73.03L161.60 84.99L172.67 88.21ZM161.60 84.99L158.82 73.03L147.75 69.81L139.44 78.54L142.22 90.49L153.29 93.71ZM186.53 58.80L183.76 46.84L172.67 43.62L164.36 52.35L167.13 64.30L178.21 67.53ZM167.13 64.30L164.36 52.35L153.28 49.12L144.97 57.86L147.75 69.81L158.82 73.03ZM194.83 94.68L192.07 82.72L180.98 79.49L172.67 88.21L175.44 100.17L186.52 103.40ZM175.44 100.17L172.67 88.21L161.60 84.99L153.29 93.71L156.06 105.66L167.14 108.89ZM200.38 73.99L197.61 62.03L186.53 58.80L178.21 67.53L180.98 79.49L192.07 82.72ZM203.18 -3.29L200.41 -15.27L189.32 -18.49L180.99 -9.75L183.76 2.22L194.86 5.44ZM183.76 2.22L180.99 -9.75L169.90 -12.98L161.58 -4.23L164.35 7.73L175.44 10.95ZM150.49 -7.46L147.71 -19.42L136.62 -22.64L128.31 -13.89L131.09 -1.93L142.17 1.29ZM131.09 -1.93L128.31 -13.89L117.22 -17.11L108.91 -8.36L111.69 3.60L122.78 6.81ZM255.75 134.78L253.00 122.83L241.92 119.58L233.60 128.30L236.36 140.25L247.43 143.50ZM236.36 140.25L233.60 128.30L222.52 125.06L214.20 133.77L216.97 145.72L228.04 148.96ZM261.32 114.11L258.56 102.15L247.48 98.91L239.16 107.62L241.92 119.58L253.00 122.83ZM241.92 119.58L239.16 107.62L228.07 104.38L219.76 113.10L222.52 125.06L233.60 128.30ZM275.16 129.32L272.41 117.36L261.32 114.11L253.00 122.83L255.75 134.78L266.83 138.03ZM203.13 130.53L200.36 118.58L189.29 115.35L180.98 124.07L183.75 136.02L194.82 139.25ZM183.75 136.02L180.98 124.07L169.91 120.84L161.61 129.56L164.38 141.50L175.44 144.73ZM208.68 109.86L205.91 97.91L194.83 94.68L186.52 103.40L189.29 115.35L200.36 118.58ZM189.29 115.35L186.52 103.40L175.44 100.17L167.14 108.89L169.91 120.84L180.98 124.07ZM222.52 125.06L219.76 113.10L208.68 109.86L200.36 118.58L203.13 130.53L214.20 133.77ZM264.19 36.84L261.43 24.86L250.34 21.62L242.00 30.35L244.77 42.32L255.86 45.56ZM244.77 42.32L242.00 30.35L230.91 27.11L222.58 35.85L225.34 47.81L236.44 51.05ZM269.77 16.13L267.01 4.16L255.91 0.91L247.57 9.65L250.34 21.62L261.43 24.86ZM250.34 21.62L247.57 9.65L236.48 6.41L228.14 15.14L230.91 27.11L242.00 30.35ZM278.05 52.05L275.29 40.08L264.19 36.84L255.86 45.56L258.62 57.53L269.71 60.78ZM258.62 57.53L255.86 45.56L244.77 42.32L236.44 51.05L239.20 63.02L250.29 66.26ZM211.49 32.61L208.72 20.64L197.63 17.41L189.31 26.15L192.08 38.11L203.16 41.34ZM192.08 38.11L189.31 26.15L178.22 22.92L169.90 31.66L172.67 43.62L183.76 46.84ZM217.05 11.91L214.28 -0.06L203.18 -3.29L194.86 5.44L197.63 17.41L208.72 20.64ZM197.63 17.41L194.86 5.44L183.76 2.22L175.44 10.95L178.22 22.92L189.31 26.15ZM225.34 47.81L222.58 35.85L211.49 32.61L203.16 41.34L205.93 53.31L217.02 56.54ZM205.93 53.31L203.16 41.34L192.08 38.11L183.76 46.84L186.53 58.80L197.61 62.03ZM230.91 27.11L228.14 15.14L217.05 11.91L208.72 20.64L211.49 32.61L222.58 35.85ZM275.36 -4.58L272.60 -16.56L261.49 -19.80L253.15 -11.06L255.91 0.91L267.01 4.16ZM255.91 0.91L253.15 -11.06L242.05 -14.30L233.71 -5.57L236.48 6.41L247.57 9.65ZM236.48 6.41L233.71 -5.57L222.61 -8.80L214.28 -0.06L217.05 11.91L228.14 15.14ZM266.89 93.43L264.14 81.47L253.05 78.22L244.72 86.94L247.48 98.91L258.56 102.15ZM272.47 72.75L269.71 60.78L258.62 57.53L250.29 66.26L253.05 78.22L264.14 81.47ZM233.63 83.70L230.87 71.74L219.78 68.50L211.46 77.23L214.23 89.19L225.31 92.43ZM214.23 89.19L211.46 77.23L200.38 73.99L192.07 82.72L194.83 94.68L205.91 97.91ZM239.20 63.02L236.44 51.05L225.34 47.81L217.02 56.54L219.78 68.50L230.87 71.74ZM219.78 68.50L217.02 56.54L205.93 53.31L197.61 62.03L200.38 73.99L211.46 77.23ZM247.48 98.91L244.72 86.94L233.63 83.70L225.31 92.43L228.07 104.38L239.16 107.62ZM228.07 104.38L225.31 92.43L214.23 89.19L205.91 97.91L208.68 109.86L219.76 113.10ZM253.05 78.22L250.29 66.26L239.20 63.02L230.87 71.74L233.63 83.70L244.72 86.94Z"/><path data-band="2" fill="#f97316" fill-opacity="0.35" d="M29.01 180.01L26.22 168.09L15.17 164.89L6.91 173.61L9.70 185.53L20.75 188.73ZM9.70 185.53L6.91 173.61L-4.13 170.41L-12.39 179.13L-9.59 191.05L1.45 194.24ZM89.80 219.91L87.03 207.98L75.98 204.77L67.71 213.48L70.49 225.40L81.53 228.61ZM70.49 225.40L67.71 213.48L56.66 210.27L48.40 218.98L51.18 230.89L62.22 234.10ZM95.30 199.27L92.53 187.34L81.47 184.13L73.20 192.84L75.98 204.77L87.03 207.98ZM75.98 204.77L73.20 192.84L62.15 189.63L53.88 198.34L56.66 210.27L67.71 213.48ZM103.63 235.05L100.85 223.12L89.80 219.91L81.53 228.61L84.31 240.53L95.35 243.75ZM84.31 240.53L81.53 228.61L70.49 225.40L62.22 234.10L65.00 246.02L76.04 249.23ZM109.13 214.42L106.35 202.49L95.30 199.27L87.03 207.98L89.80 219.91L100.85 223.12ZM37.36 215.77L34.58 203.85L23.53 200.65L15.28 209.36L18.06 221.27L29.10 224.48ZM18.06 221.27L15.28 209.36L4.23 206.16L-4.02 214.87L-1.23 226.79L9.81 229.99ZM42.84 195.14L40.05 183.21L29.01 180.01L20.75 188.73L23.53 200.65L34.58 203.85ZM23.53 200.65L20.75 188.73L9.70 185.53L1.45 194.24L4.23 206.16L15.28 209.36ZM51.18 230.89L48.40 218.98L37.36 215.77L29.10 224.48L31.88 236.39L42.92 239.60ZM31.88 236.39L29.10 224.48L18.06 221.27L9.81 229.99L12.59 241.90L23.63 245.10ZM56.66 210.27L53.88 198.34L42.84 195.14L34.58 203.85L37.36 215.77L48.40 218.98ZM120.14 173.14L117.37 161.20L106.31 157.98L98.03 166.70L100.80 178.63L111.86 181.85ZM100.80 178.63L98.03 166.70L86.97 163.48L78.69 172.20L81.47 184.13L92.53 187.34ZM125.66 152.49L122.88 140.55L111.82 137.33L103.53 146.05L106.31 157.98L117.37 161.20ZM106.31 157.98L103.53 146.05L92.47 142.83L84.19 151.55L86.97 163.48L98.03 166.70ZM133.97 188.29L131.20 176.36L120.14 173.14L111.86 181.85L114.63 193.78L125.69 197.00ZM114.63 193.78L111.86 181.85L100.80 178.63L92.53 187.34L95.30 199.27L106.35 202.49ZM139.49 167.65L136.72 155.71L125.66 152.49L117.37 161.20L120.14 173.14L131.20 176.36ZM48.32 174.50L45.53 162.57L34.48 159.37L26.22 168.09L29.01 180.01L40.05 183.21ZM81.47 184.13L78.69 172.20L67.64 168.99L59.37 177.71L62.15 189.63L73.20 192.84ZM62.15 189.63L59.37 177.71L48.32 174.50L40.05 183.21L42.84 195.14L53.88 198.34ZM111.94 270.81L109.17 258.89L98.13 255.67L89.86 264.37L92.63 276.29L103.67 279.51ZM117.44 250.19L114.67 238.27L103.63 235.05L95.35 243.75L98.13 255.67L109.17 258.89ZM98.13 255.67L95.35 243.75L84.31 240.53L76.04 249.23L78.82 261.15L89.86 264.37ZM131.26 265.34L128.49 253.42L117.44 250.19L109.17 258.89L111.94 270.81L122.98 274.03ZM59.52 266.64L56.74 254.72L45.70 251.51L37.45 260.22L40.23 272.13L51.26 275.34ZM65.00 246.02L62.22 234.10L51.18 230.89L42.92 239.60L45.70 251.51L56.74 254.72ZM45.70 251.51L42.92 239.60L31.88 236.39L23.63 245.10L26.41 257.01L37.45 260.22ZM78.82 261.15L76.04 249.23L65.00 246.02L56.74 254.72L59.52 266.64L70.56 269.85ZM142.28 224.09L139.51 212.16L128.46 208.93L120.18 217.64L122.95 229.57L134.00 232.79ZM122.95 229.57L120.18 217.64L109.13 214.42L100.85 223.12L103.63 235.05L114.67 238.27ZM147.80 203.45L145.03 191.52L133.97 188.29L125.69 197.00L128.46 208.93L139.51 212.16ZM128.46 208.93L125.69 197.00L114.63 193.78L106.35 202.49L109.13 214.42L120.18 217.64ZM156.10 239.25L153.34 227.32L142.28 224.09L134.00 232.79L136.77 244.72L147.82 247.94ZM136.77 244.72L134.00 232.79L122.95 229.57L114.67 238.27L117.44 250.19L128.49 253.42ZM161.62 218.61L158.86 206.68L147.80 203.45L139.51 212.16L142.28 224.09L153.34 227.32ZM4.23 206.16L1.45 194.24L-9.59 191.05L-17.84 199.76L-15.05 211.68L-4.02 214.87ZM7.13 262.51L4.35 250.60L-6.69 247.40L-14.93 256.11L-12.14 268.02L-1.11 271.22ZM12.59 241.90L9.81 229.99L-1.23 226.79L-9.47 235.50L-6.69 247.40L4.35 250.60ZM26.41 257.01L23.63 245.10L12.59 241.90L4.35 250.60L7.13 262.51L18.16 265.71ZM145.01 146.99L142.24 135.05L131.17 131.83L122.88 140.55L125.66 152.49L136.72 155.71ZM222.43 258.67L219.67 246.73L208.61 243.49L200.31 252.18L203.07 264.12L214.13 267.36ZM203.07 264.12L200.31 252.18L189.26 248.95L180.97 257.64L183.73 269.57L194.78 272.81ZM169.92 254.41L167.15 242.48L156.10 239.25L147.82 247.94L150.58 259.87L161.63 263.10ZM150.58 259.87L147.82 247.94L136.77 244.72L128.49 253.42L131.26 265.34L142.30 268.57ZM183.73 269.57L180.97 257.64L169.92 254.41L161.63 263.10L164.40 275.03L175.44 278.26ZM225.25 181.57L222.49 169.62L211.42 166.38L203.11 175.09L205.87 187.03L216.94 190.27ZM205.87 187.03L203.11 175.09L192.04 171.85L183.74 180.56L186.51 192.50L197.57 195.74ZM230.80 160.91L228.04 148.96L216.97 145.72L208.66 154.43L211.42 166.38L222.49 169.62ZM211.42 166.38L208.66 154.43L197.58 151.20L189.28 159.91L192.04 171.85L203.11 175.09ZM239.07 196.76L236.32 184.81L225.25 181.57L216.94 190.27L219.70 202.22L230.76 205.46ZM219.70 202.22L216.94 190.27L205.87 187.03L197.57 195.74L200.33 207.68L211.39 210.92ZM244.63 176.11L241.87 164.16L230.80 160.91L222.49 169.62L225.25 181.57L236.32 184.81ZM172.68 177.33L169.91 165.39L158.85 162.16L150.55 170.87L153.32 182.81L164.38 186.04ZM153.32 182.81L150.55 170.87L139.49 167.65L131.20 176.36L133.97 188.29L145.03 191.52ZM178.21 156.68L175.44 144.73L164.38 141.50L156.08 150.22L158.85 162.16L169.91 165.39ZM158.85 162.16L156.08 150.22L145.01 146.99L136.72 155.71L139.49 167.65L150.55 170.87ZM186.51 192.50L183.74 180.56L172.68 177.33L164.38 186.04L167.15 197.98L178.21 201.21ZM167.15 197.98L164.38 186.04L153.32 182.81L145.03 191.52L147.80 203.45L158.86 206.68ZM192.04 171.85L189.28 159.91L178.21 156.68L169.91 165.39L172.68 177.33L183.74 180.56ZM269.59 149.99L266.83 138.03L255.75 134.78L247.43 143.50L250.19 155.45L261.27 158.70ZM250.19 155.45L247.43 143.50L236.36 140.25L228.04 148.96L230.80 160.91L241.87 164.16ZM216.97 145.72L214.20 133.77L203.13 130.53L194.82 139.25L197.58 151.20L208.66 154.43ZM197.58 151.20L194.82 139.25L183.75 136.02L175.44 144.73L178.21 156.68L189.28 159.91ZM247.34 232.59L244.58 220.65L233.52 217.40L225.21 226.10L227.97 238.04L239.03 241.28ZM227.97 238.04L225.21 226.10L214.15 222.86L205.85 231.55L208.61 243.49L219.67 246.73ZM252.90 211.95L250.14 200.00L239.07 196.76L230.76 205.46L233.52 217.40L244.58 220.65ZM233.52 217.40L230.76 205.46L219.70 202.22L211.39 210.92L214.15 222.86L225.21 226.10ZM261.15 247.78L258.40 235.84L247.34 232.59L239.03 241.28L241.79 253.22L252.84 256.47ZM241.79 253.22L239.03 241.28L227.97 238.04L219.67 246.73L222.43 258.67L233.48 261.91ZM266.71 227.15L263.96 215.20L252.90 211.95L244.58 220.65L247.34 232.59L258.40 235.84ZM194.79 228.32L192.03 216.38L180.97 213.14L172.68 221.85L175.44 233.78L186.50 237.01ZM175.44 233.78L172.68 221.85L161.62 218.61L153.34 227.32L156.10 239.25L167.15 242.48ZM200.33 207.68L197.57 195.74L186.51 192.50L178.21 201.21L180.97 213.14L192.03 216.38ZM180.97 213.14L178.21 201.21L167.15 197.98L158.86 206.68L161.62 218.61L172.68 221.85ZM208.61 243.49L205.85 231.55L194.79 228.32L186.50 237.01L189.26 248.95L200.31 252.18ZM189.26 248.95L186.50 237.01L175.44 233.78L167.15 242.48L169.92 254.41L180.97 257.64ZM214.15 222.86L211.39 210.92L200.33 207.68L192.03 216.38L194.79 228.32L205.85 231.55ZM277.85 185.85L275.10 173.90L264.02 170.65L255.70 179.35L258.46 191.30L269.53 194.55ZM258.46 191.30L255.70 179.35L244.63 176.11L236.32 184.81L239.07 196.76L250.14 200.00ZM264.02 170.65L261.27 158.70L250.19 155.45L241.87 164.16L244.63 176.11L255.70 179.35ZM272.28 206.50L269.53 194.55L258.46 191.30L250.14 200.00L252.90 211.95L263.96 215.20ZM274.97 262.97L272.22 251.03L261.15 247.78L252.84 256.47L255.60 268.41L266.66 271.66ZM255.60 268.41L252.84 256.47L241.79 253.22L233.48 261.91L236.24 273.85L247.29 277.10Z"/></svg>
