<svg xmlns="http://www.w3.org/2000/svg" width="256" height="256" viewBox="0 0 256 256"><path data-band="2" fill="#f97316" fill-opacity="0.35" d="M90.96 123.89L88.22 112.10L77.32 108.86L69.16 117.40L71.91 129.18L82.80 132.43ZM71.91 129.18L69.16 117.40L58.27 114.16L50.12 122.70L52.86 134.48L63.75 137.72ZM96.38 103.56L93.64 91.77L82.74 88.52L74.58 97.07L77.32 108.86L88.22 112.10ZM77.32 108.86L74.58 97.07L63.68 93.82L55.52 102.37L58.27 114.16L69.16 117.40ZM104.59 138.93L101.86 127.14L90.96 123.89L82.80 132.43L85.54 144.22L96.43 147.46ZM85.54 144.22L82.80 132.43L71.91 129.18L63.75 137.72L66.49 149.51L77.38 152.75ZM110.02 118.60L107.29 106.81L96.38 103.56L88.22 112.10L90.96 123.89L101.86 127.14ZM39.22 119.46L36.48 107.68L25.58 104.44L17.44 112.99L20.19 124.77L31.08 128.00ZM20.19 124.77L17.44 112.99L6.55 109.75L-1.59 118.30L1.16 130.08L12.04 133.31ZM44.63 99.13L41.88 87.34L30.98 84.11L22.83 92.66L25.58 104.44L36.48 107.68ZM25.58 104.44L22.83 92.66L11.94 89.42L3.80 97.97L6.55 109.75L17.44 112.99ZM52.86 134.48L50.12 122.70L39.22 119.46L31.08 128.00L33.82 139.78L44.71 143.02ZM33.82 139.78L31.08 128.00L20.19 124.77L12.04 133.31L14.79 145.08L25.68 148.32ZM58.27 114.16L55.52 102.37L44.63 99.13L36.48 107.68L39.22 119.46L50.12 122.70ZM120.89 77.93L118.15 66.13L107.24 62.88L99.07 71.43L101.81 83.22L112.72 86.47ZM101.81 83.22L99.07 71.43L88.17 68.18L80.00 76.73L82.74 88.52L93.64 91.77ZM126.33 57.58L123.59 45.78L112.68 42.53L104.50 51.08L107.24 62.88L118.15 66.13ZM107.24 62.88L104.50 51.08L93.59 47.83L85.42 56.38L88.17 68.18L99.07 71.43ZM115.45 98.27L112.72 86.47L101.81 83.22L93.64 91.77L96.38 103.56L107.29 106.81ZM69.10 73.49L66.35 61.69L55.45 58.45L47.29 67.00L50.04 78.79L60.94 82.04ZM50.04 78.79L47.29 67.00L36.39 63.77L28.24 72.32L30.98 84.11L41.88 87.34ZM74.52 53.14L71.77 41.34L60.86 38.10L52.70 46.66L55.45 58.45L66.35 61.69ZM55.45 58.45L52.70 46.66L41.80 43.42L33.64 51.98L36.39 63.77L47.29 67.00ZM82.74 88.52L80.00 76.73L69.10 73.49L60.94 82.04L63.68 93.82L74.58 97.07ZM63.68 93.82L60.94 82.04L50.04 78.79L41.88 87.34L44.63 99.13L55.52 102.37ZM88.17 68.18L85.42 56.38L74.52 53.14L66.35 61.69L69.10 73.49L80.00 76.73ZM93.75 179.56L91.01 167.78L80.12 164.53L71.97 173.06L74.71 184.84L85.60 188.09ZM99.17 159.25L96.43 147.46L85.54 144.22L77.38 152.75L80.12 164.53L91.01 167.78ZM61.08 169.82L58.34 158.04L47.45 154.80L39.31 163.33L42.05 175.11L52.94 178.35ZM42.05 175.11L39.31 163.33L28.42 160.10L20.29 168.63L23.03 180.40L33.91 183.64ZM66.49 149.51L63.75 137.72L52.86 134.48L44.71 143.02L47.45 154.80L58.34 158.04ZM47.45 154.80L44.71 143.02L33.82 139.78L25.68 148.32L28.42 160.10L39.31 163.33ZM74.71 184.84L71.97 173.06L61.08 169.82L52.94 178.35L55.68 190.13L66.56 193.37ZM55.68 190.13L52.94 178.35L42.05 175.11L33.91 183.64L36.66 195.41L47.54 198.65ZM80.12 164.53L77.38 152.75L66.49 149.51L58.34 158.04L61.08 169.82L71.97 173.06ZM129.09 113.32L126.36 101.52L115.45 98.27L107.29 106.81L110.02 118.60L120.92 121.86ZM1.16 130.08L-1.59 118.30L-12.48 115.07L-20.62 123.62L-17.86 135.39L-6.98 138.62ZM6.55 109.75L3.80 97.97L-7.10 94.74L-15.23 103.29L-12.48 115.07L-1.59 118.30ZM9.40 165.40L6.65 153.62L-4.23 150.39L-12.36 158.93L-9.61 170.70L1.27 173.93ZM14.79 145.08L12.04 133.31L1.16 130.08L-6.98 138.62L-4.23 150.39L6.65 153.62ZM23.03 180.40L20.29 168.63L9.40 165.40L1.27 173.93L4.02 185.70L14.90 188.94ZM4.02 185.70L1.27 173.93L-9.61 170.70L-17.74 179.24L-14.99 191.00L-4.11 194.23ZM28.42 160.10L25.68 148.32L14.79 145.08L6.65 153.62L9.40 165.40L20.29 168.63ZM142.67 -3.50L139.93 -15.32L129.00 -18.57L120.82 -10.01L123.56 1.80L134.48 5.05ZM123.56 1.80L120.82 -10.01L109.90 -13.26L101.72 -4.69L104.46 7.11L115.38 10.36ZM90.80 -7.94L88.05 -19.75L77.13 -22.99L68.96 -14.42L71.71 -2.62L82.62 0.62ZM71.71 -2.62L68.96 -14.42L58.04 -17.66L49.87 -9.10L52.62 2.71L63.54 5.94ZM99.02 27.48L96.28 15.67L85.37 12.43L77.20 20.99L79.94 32.79L90.85 36.03ZM79.94 32.79L77.20 20.99L66.28 17.75L58.12 26.30L60.86 38.10L71.77 41.34ZM104.46 7.11L101.72 -4.69L90.80 -7.94L82.62 0.62L85.37 12.43L96.28 15.67ZM85.37 12.43L82.62 0.62L71.71 -2.62L63.54 5.94L66.28 17.75L77.20 20.99ZM112.68 42.53L109.94 30.72L99.02 27.48L90.85 36.03L93.59 47.83L104.50 51.08ZM93.59 47.83L90.85 36.03L79.94 32.79L71.77 41.34L74.52 53.14L85.42 56.38ZM118.12 22.17L115.38 10.36L104.46 7.11L96.28 15.67L99.02 27.48L109.94 30.72ZM0.82 -1.66L-1.94 -13.45L-12.85 -16.68L-21.00 -8.11L-18.24 3.69L-7.33 6.91ZM9.08 33.72L6.33 21.93L-4.58 18.70L-12.72 27.27L-9.97 39.05L0.93 42.28ZM14.48 13.37L11.73 1.57L0.82 -1.66L-7.33 6.91L-4.58 18.70L6.33 21.93ZM19.89 -7.00L17.13 -18.79L6.22 -22.02L-1.94 -13.45L0.82 -1.66L11.73 1.57ZM17.34 69.09L14.59 57.30L3.69 54.07L-4.46 62.63L-1.71 74.41L9.19 77.64ZM22.74 48.74L19.99 36.95L9.08 33.72L0.93 42.28L3.69 54.07L14.59 57.30ZM3.69 54.07L0.93 42.28L-9.97 39.05L-18.11 47.61L-15.36 59.40L-4.46 62.63ZM30.98 84.11L28.24 72.32L17.34 69.09L9.19 77.64L11.94 89.42L22.83 92.66ZM11.94 89.42L9.19 77.64L-1.71 74.41L-9.85 82.96L-7.10 94.74L3.80 97.97ZM36.39 63.77L33.64 51.98L22.74 48.74L14.59 57.30L17.34 69.09L28.24 72.32ZM47.21 23.07L44.46 11.27L33.55 8.03L25.39 16.60L28.14 28.39L39.05 31.63ZM28.14 28.39L25.39 16.60L14.48 13.37L6.33 21.93L9.08 33.72L19.99 36.95ZM52.62 2.71L49.87 -9.10L38.96 -12.33L30.80 -3.76L33.55 8.03L44.46 11.27ZM33.55 8.03L30.80 -3.76L19.89 -7.00L11.73 1.57L14.48 13.37L25.39 16.60ZM60.86 38.10L58.12 26.30L47.21 23.07L39.05 31.63L41.80 43.42L52.70 46.66ZM41.80 43.42L39.05 31.63L28.14 28.39L19.99 36.95L22.74 48.74L33.64 51.98ZM66.28 17.75L63.54 5.94L52.62 2.71L44.46 11.27L47.21 23.07L58.12 26.30ZM53.10 266.01L50.36 254.25L39.48 251.00L31.35 259.52L34.09 271.28L44.96 274.53ZM58.49 245.73L55.76 233.96L44.88 230.72L36.74 239.24L39.48 251.00L50.36 254.25ZM39.48 251.00L36.74 239.24L25.87 236.00L17.74 244.52L20.48 256.28L31.35 259.52ZM72.10 260.74L69.37 248.98L58.49 245.73L50.36 254.25L53.10 266.01L63.97 269.26ZM1.49 261.56L-1.25 249.81L-12.12 246.57L-20.24 255.10L-17.49 266.85L-6.63 270.08ZM6.87 241.28L4.13 229.52L-6.75 226.29L-14.87 234.81L-12.12 246.57L-1.25 249.81ZM20.48 256.28L17.74 244.52L6.87 241.28L-1.25 249.81L1.49 261.56L12.36 264.80ZM82.92 220.17L80.18 208.39L69.30 205.14L61.16 213.67L63.90 225.44L74.77 228.69ZM63.90 225.44L61.16 213.67L50.28 210.43L42.14 218.95L44.88 230.72L55.76 233.96ZM88.33 199.87L85.60 188.09L74.71 184.84L66.56 193.37L69.30 205.14L80.18 208.39ZM69.30 205.14L66.56 193.37L55.68 190.13L47.54 198.65L50.28 210.43L61.16 213.67ZM77.51 240.46L74.77 228.69L63.90 225.44L55.76 233.96L58.49 245.73L69.37 248.98ZM101.95 214.90L99.22 203.12L88.33 199.87L80.18 208.39L82.92 220.17L93.80 223.42ZM31.26 215.71L28.52 203.94L17.64 200.70L9.51 209.23L12.25 221.00L23.13 224.24ZM12.25 221.00L9.51 209.23L-1.37 206.00L-9.49 214.53L-6.75 226.29L4.13 229.52ZM36.66 195.41L33.91 183.64L23.03 180.40L14.90 188.94L17.64 200.70L28.52 203.94ZM17.64 200.70L14.90 188.94L4.02 185.70L-4.11 194.23L-1.37 206.00L9.51 209.23ZM44.88 230.72L42.14 218.95L31.26 215.71L23.13 224.24L25.87 236.00L36.74 239.24ZM25.87 236.00L23.13 224.24L12.25 221.00L4.13 229.52L6.87 241.28L17.74 244.52ZM50.28 210.43L47.54 198.65L36.66 195.41L28.52 203.94L31.26 215.71L42.14 218.95Z"/><path data-band="3" fill="#dc2626" fill-opacity="0.35" d="M265.65 0.22L262.93 -11.61L251.99 -14.88L243.78 -6.33L246.50 5.50L257.44 8.77ZM213.70 -4.31L210.97 -16.14L200.04 -19.40L191.84 -10.84L194.57 0.98L205.50 4.24ZM246.50 5.50L243.78 -6.33L232.84 -9.60L224.63 -1.05L227.36 10.78L238.29 14.05ZM227.36 10.78L224.63 -1.05L213.70 -4.31L205.50 4.24L208.22 16.06L219.15 19.33ZM268.13 187.95L265.42 176.15L254.51 172.86L246.32 181.38L249.03 193.18L259.94 196.46ZM249.03 193.18L246.32 181.38L235.41 178.10L227.22 186.62L229.94 198.42L240.84 201.70ZM273.62 167.63L270.91 155.82L259.99 152.54L251.80 161.06L254.51 172.86L265.42 176.15ZM254.51 172.86L251.80 161.06L240.89 157.78L232.70 166.31L235.41 178.10L246.32 181.38ZM262.65 208.26L259.94 196.46L249.03 193.18L240.84 201.70L243.56 213.49L254.46 216.77ZM270.78 243.65L268.07 231.85L257.17 228.57L248.99 237.08L251.70 248.87L262.59 252.15ZM276.26 223.34L273.55 211.55L262.65 208.26L254.46 216.77L257.17 228.57L268.07 231.85ZM134.53 92.98L131.80 81.18L120.89 77.93L112.72 86.47L115.45 98.27L126.36 101.52ZM139.97 72.64L137.24 60.84L126.33 57.58L118.15 66.13L120.89 77.93L131.80 81.18ZM112.80 174.29L110.06 162.50L99.17 159.25L91.01 167.78L93.75 179.56L104.64 182.81ZM118.23 153.97L115.49 142.18L104.59 138.93L96.43 147.46L99.17 159.25L110.06 162.50ZM126.42 189.32L123.69 177.54L112.80 174.29L104.64 182.81L107.37 194.59L118.26 197.85ZM107.37 194.59L104.64 182.81L93.75 179.56L85.60 188.09L88.33 199.87L99.22 203.12ZM131.85 169.01L129.12 157.23L118.23 153.97L110.06 162.50L112.80 174.29L123.69 177.54ZM142.73 128.37L140.00 116.57L129.09 113.32L120.92 121.86L123.66 133.65L134.56 136.90ZM123.66 133.65L120.92 121.86L110.02 118.60L101.86 127.14L104.59 138.93L115.49 142.18ZM148.17 108.04L145.44 96.24L134.53 92.98L126.36 101.52L129.09 113.32L140.00 116.57ZM156.36 143.42L153.63 131.63L142.73 128.37L134.56 136.90L137.29 148.69L148.19 151.95ZM137.29 148.69L134.56 136.90L123.66 133.65L115.49 142.18L118.23 153.97L129.12 157.23ZM161.81 123.09L159.08 111.30L148.17 108.04L140.00 116.57L142.73 128.37L153.63 131.63ZM150.87 31.93L148.14 20.12L137.22 16.86L129.03 25.42L131.77 37.23L142.69 40.48ZM131.77 37.23L129.03 25.42L118.12 22.17L109.94 30.72L112.68 42.53L123.59 45.78ZM156.33 11.56L153.59 -0.25L142.67 -3.50L134.48 5.05L137.22 16.86L148.14 20.12ZM137.22 16.86L134.48 5.05L123.56 1.80L115.38 10.36L118.12 22.17L129.03 25.42ZM164.52 47.00L161.79 35.19L150.87 31.93L142.69 40.48L145.42 52.29L156.34 55.54ZM145.42 52.29L142.69 40.48L131.77 37.23L123.59 45.78L126.33 57.58L137.24 60.84ZM169.98 26.64L167.25 14.82L156.33 11.56L148.14 20.12L150.87 31.93L161.79 35.19ZM194.57 0.98L191.84 -10.84L180.91 -14.11L172.71 -5.55L175.44 6.27L186.37 9.53ZM175.44 6.27L172.71 -5.55L161.78 -8.81L153.59 -0.25L156.33 11.56L167.25 14.82ZM186.33 229.21L183.61 217.42L172.72 214.16L164.55 222.67L167.27 234.46L178.16 237.72ZM167.27 234.46L164.55 222.67L153.66 219.41L145.50 227.93L148.22 239.71L159.11 242.97ZM191.78 208.91L189.06 197.12L178.17 193.85L169.99 202.37L172.72 214.16L183.61 217.42ZM172.72 214.16L169.99 202.37L159.10 199.11L150.93 207.63L153.66 219.41L164.55 222.67ZM199.95 244.27L197.23 232.48L186.33 229.21L178.16 237.72L180.89 249.51L191.77 252.78ZM180.89 249.51L178.16 237.72L167.27 234.46L159.11 242.97L161.83 254.75L172.72 258.02ZM205.40 223.97L202.68 212.18L191.78 208.91L183.61 217.42L186.33 229.21L197.23 232.48ZM134.61 224.67L131.88 212.89L120.99 209.63L112.84 218.15L115.57 229.93L126.45 233.18ZM115.57 229.93L112.84 218.15L101.95 214.90L93.80 223.42L96.54 235.19L107.42 238.44ZM140.04 204.37L137.31 192.58L126.42 189.32L118.26 197.85L120.99 209.63L131.88 212.89ZM120.99 209.63L118.26 197.85L107.37 194.59L99.22 203.12L101.95 214.90L112.84 218.15ZM148.22 239.71L145.50 227.93L134.61 224.67L126.45 233.18L129.18 244.96L140.07 248.22ZM129.18 244.96L126.45 233.18L115.57 229.93L107.42 238.44L110.15 250.22L121.03 253.47ZM153.66 219.41L150.93 207.63L140.04 204.37L131.88 212.89L134.61 224.67L145.50 227.93ZM216.32 183.35L213.60 171.55L202.70 168.28L194.52 176.81L197.24 188.60L208.14 191.87ZM197.24 188.60L194.52 176.81L183.62 173.54L175.44 182.06L178.17 193.85L189.06 197.12ZM221.79 163.03L219.07 151.23L208.16 147.96L199.98 156.49L202.70 168.28L213.60 171.55ZM202.70 168.28L199.98 156.49L189.07 153.22L180.89 161.74L183.62 173.54L194.52 176.81ZM229.94 198.42L227.22 186.62L216.32 183.35L208.14 191.87L210.86 203.66L221.76 206.94ZM210.86 203.66L208.14 191.87L197.24 188.60L189.06 197.12L191.78 208.91L202.68 212.18ZM235.41 178.10L232.70 166.31L221.79 163.03L213.60 171.55L216.32 183.35L227.22 186.62ZM164.54 178.80L161.82 167.01L150.92 163.74L142.75 172.27L145.48 184.06L156.37 187.32ZM145.48 184.06L142.75 172.27L131.85 169.01L123.69 177.54L126.42 189.32L137.31 192.58ZM169.99 158.48L167.26 146.68L156.36 143.42L148.19 151.95L150.92 163.74L161.82 167.01ZM150.92 163.74L148.19 151.95L137.29 148.69L129.12 157.23L131.85 169.01L142.75 172.27ZM178.17 193.85L175.44 182.06L164.54 178.80L156.37 187.32L159.10 199.11L169.99 202.37ZM159.10 199.11L156.37 187.32L145.48 184.06L137.31 192.58L140.04 204.37L150.93 207.63ZM183.62 173.54L180.89 161.74L169.99 158.48L161.82 167.01L164.54 178.80L175.44 182.06ZM213.55 259.32L210.84 247.54L199.95 244.27L191.77 252.78L194.49 264.56L205.38 267.83ZM194.49 264.56L191.77 252.78L180.89 249.51L172.72 258.02L175.44 269.79L186.33 273.06ZM161.83 254.75L159.11 242.97L148.22 239.71L140.07 248.22L142.79 260.00L153.67 263.26ZM142.79 260.00L140.07 248.22L129.18 244.96L121.03 253.47L123.76 265.25L134.64 268.51ZM175.44 269.79L172.72 258.02L161.83 254.75L153.67 263.26L156.40 275.03L167.28 278.30ZM238.09 233.80L235.37 222.01L224.48 218.73L216.30 227.24L219.01 239.03L229.91 242.31ZM219.01 239.03L216.30 227.24L205.40 223.97L197.23 232.48L199.95 244.27L210.84 247.54ZM243.56 213.49L240.84 201.70L229.94 198.42L221.76 206.94L224.48 218.73L235.37 222.01ZM224.48 218.73L221.76 206.94L210.86 203.66L202.68 212.18L205.40 223.97L216.30 227.24ZM251.70 248.87L248.99 237.08L238.09 233.80L229.91 242.31L232.62 254.09L243.51 257.38ZM232.62 254.09L229.91 242.31L219.01 239.03L210.84 247.54L213.55 259.32L224.44 262.60ZM257.17 228.57L254.46 216.77L243.56 213.49L235.37 222.01L238.09 233.80L248.99 237.08ZM96.54 235.19L93.80 223.42L82.92 220.17L74.77 228.69L77.51 240.46L88.39 243.71ZM104.73 270.50L102.00 258.73L91.12 255.48L82.98 263.99L85.71 275.76L96.59 279.01ZM110.15 250.22L107.42 238.44L96.54 235.19L88.39 243.71L91.12 255.48L102.00 258.73ZM91.12 255.48L88.39 243.71L77.51 240.46L69.37 248.98L72.10 260.74L82.98 263.99ZM123.76 265.25L121.03 253.47L110.15 250.22L102.00 258.73L104.73 270.50L115.61 273.76ZM224.57 86.95L221.85 75.14L210.93 71.86L202.73 80.41L205.46 92.21L216.37 95.48ZM205.46 92.21L202.73 80.41L191.82 77.14L183.63 85.68L186.35 97.48L197.27 100.75ZM230.05 66.59L227.33 54.78L216.40 51.51L208.20 60.05L210.93 71.86L221.85 75.14ZM210.93 71.86L208.20 60.05L197.28 56.79L189.09 65.33L191.82 77.14L202.73 80.41ZM238.21 102.03L235.49 90.22L224.57 86.95L216.37 95.48L219.10 107.29L230.01 110.56ZM219.10 107.29L216.37 95.48L205.46 92.21L197.27 100.75L199.99 112.55L210.91 115.82ZM243.69 81.68L240.97 69.87L230.05 66.59L221.85 75.14L224.57 86.95L235.49 90.22ZM172.71 82.42L169.98 70.61L159.07 67.35L150.89 75.89L153.62 87.70L164.53 90.96ZM153.62 87.70L150.89 75.89L139.97 72.64L131.80 81.18L134.53 92.98L145.44 96.24ZM178.17 62.07L175.44 50.26L164.52 47.00L156.34 55.54L159.07 67.35L169.98 70.61ZM159.07 67.35L156.34 55.54L145.42 52.29L137.24 60.84L139.97 72.64L150.89 75.89ZM186.35 97.48L183.63 85.68L172.71 82.42L164.53 90.96L167.26 102.76L178.17 106.02ZM167.26 102.76L164.53 90.96L153.62 87.70L145.44 96.24L148.17 108.04L159.08 111.30ZM191.82 77.14L189.09 65.33L178.17 62.07L169.98 70.61L172.71 82.42L183.63 85.68ZM254.66 40.97L251.94 29.15L241.01 25.87L232.81 34.42L235.53 46.24L246.46 49.51ZM235.53 46.24L232.81 34.42L221.88 31.15L213.68 39.69L216.40 51.51L227.33 54.78ZM260.16 20.60L257.44 8.77L246.50 5.50L238.29 14.05L241.01 25.87L251.94 29.15ZM241.01 25.87L238.29 14.05L227.36 10.78L219.15 19.33L221.88 31.15L232.81 34.42ZM268.31 56.07L265.59 44.24L254.66 40.97L246.46 49.51L249.18 61.33L260.10 64.61ZM249.18 61.33L246.46 49.51L235.53 46.24L227.33 54.78L230.05 66.59L240.97 69.87ZM273.81 35.70L271.09 23.88L260.16 20.60L251.94 29.15L254.66 40.97L265.59 44.24ZM202.75 36.43L200.02 24.61L189.10 21.35L180.90 29.90L183.63 41.71L194.56 44.97ZM183.63 41.71L180.90 29.90L169.98 26.64L161.79 35.19L164.52 47.00L175.44 50.26ZM208.22 16.06L205.50 4.24L194.57 0.98L186.37 9.53L189.10 21.35L200.02 24.61ZM189.10 21.35L186.37 9.53L175.44 6.27L167.25 14.82L169.98 26.64L180.90 29.90ZM216.40 51.51L213.68 39.69L202.75 36.43L194.56 44.97L197.28 56.79L208.20 60.05ZM197.28 56.79L194.56 44.97L183.63 41.71L175.44 50.26L178.17 62.07L189.09 65.33ZM221.88 31.15L219.15 19.33L208.22 16.06L200.02 24.61L202.75 36.43L213.68 39.69ZM246.36 137.45L243.65 125.65L232.73 122.37L224.54 130.90L227.26 142.70L238.17 145.98ZM227.26 142.70L224.54 130.90L213.63 127.63L205.44 136.16L208.16 147.96L219.07 151.23ZM251.85 117.12L249.13 105.31L238.21 102.03L230.01 110.56L232.73 122.37L243.65 125.65ZM232.73 122.37L230.01 110.56L219.10 107.29L210.91 115.82L213.63 127.63L224.54 130.90ZM259.99 152.54L257.28 140.73L246.36 137.45L238.17 145.98L240.89 157.78L251.80 161.06ZM240.89 157.78L238.17 145.98L227.26 142.70L219.07 151.23L221.79 163.03L232.70 166.31ZM265.48 132.21L262.76 120.40L251.85 117.12L243.65 125.65L246.36 137.45L257.28 140.73ZM194.53 132.89L191.81 121.09L180.90 117.82L172.72 126.36L175.44 138.15L186.35 141.42ZM175.44 138.15L172.72 126.36L161.81 123.09L153.63 131.63L156.36 143.42L167.26 146.68ZM199.99 112.55L197.27 100.75L186.35 97.48L178.17 106.02L180.90 117.82L191.81 121.09ZM180.90 117.82L178.17 106.02L167.26 102.76L159.08 111.30L161.81 123.09L172.72 126.36ZM208.16 147.96L205.44 136.16L194.53 132.89L186.35 141.42L189.07 153.22L199.98 156.49ZM189.07 153.22L186.35 141.42L175.44 138.15L167.26 146.68L169.99 158.48L180.89 161.74ZM213.63 127.63L210.91 115.82L199.99 112.55L191.81 121.09L194.53 132.89L205.44 136.16ZM276.46 91.52L273.74 79.70L262.82 76.42L254.61 84.96L257.33 96.77L268.25 100.05ZM257.33 96.77L254.61 84.96L243.69 81.68L235.49 90.22L238.21 102.03L249.13 105.31ZM262.82 76.42L260.10 64.61L249.18 61.33L240.97 69.87L243.69 81.68L254.61 84.96ZM270.97 111.87L268.25 100.05L257.33 96.77L249.13 105.31L251.85 117.12L262.76 120.40ZM265.30 263.94L262.59 252.15L251.70 248.87L243.51 257.38L246.23 269.16L257.12 272.45ZM246.23 269.16L243.51 257.38L232.62 254.09L224.44 262.60L227.16 274.38L238.05 277.66Z"/></svg>
