<svg xmlns="http://www.w3.org/2000/svg" width="256" height="256" viewBox="0 0 256 256"><path data-band="2" fill="#f97316" fill-opacity="0.35" d="M7.52 -8.39L4.78 -20.11L-6.05 -23.36L-14.14 -14.88L-11.40 -3.16L-0.58 0.09ZM2.16 11.80L-0.58 0.09L-11.40 -3.16L-19.49 5.32L-16.75 17.03L-5.93 20.28ZM5.00 67.13L2.27 55.41L-8.55 52.17L-16.63 60.63L-13.90 72.34L-3.08 75.59Z"/><path data-band="3" fill="#dc2626" fill-opacity="0.35" d="M21.08 6.58L18.35 -5.14L7.52 -8.39L-0.58 0.09L2.16 11.80L12.98 15.05ZM13.19 102.25L10.46 90.54L-0.35 87.29L-8.43 95.75L-5.70 107.45L5.11 110.70ZM18.55 82.08L15.82 70.37L5.00 67.13L-3.08 75.59L-0.35 87.29L10.46 90.54ZM29.27 41.73L26.54 30.02L15.72 26.77L7.62 35.24L10.36 46.95L21.18 50.20ZM10.36 46.95L7.62 35.24L-3.20 31.99L-11.28 40.46L-8.55 52.17L2.27 55.41ZM34.64 21.55L31.91 9.83L21.08 6.58L12.98 15.05L15.72 26.77L26.54 30.02ZM15.72 26.77L12.98 15.05L2.16 11.80L-5.93 20.28L-3.20 31.99L7.62 35.24ZM42.82 56.70L40.09 44.99L29.27 41.73L21.18 50.20L23.91 61.91L34.73 65.16ZM23.91 61.91L21.18 50.20L10.36 46.95L2.27 55.41L5.00 67.13L15.82 70.37ZM48.19 36.52L45.46 24.80L34.64 21.55L26.54 30.02L29.27 41.73L40.09 44.99ZM248.47 206.14L245.77 194.42L234.95 191.12L226.83 199.55L229.52 211.26L240.34 214.56ZM229.52 211.26L226.83 199.55L216.01 196.25L207.89 204.68L210.59 216.39L221.40 219.69ZM253.90 185.99L251.21 174.27L240.38 170.97L232.26 179.40L234.95 191.12L245.77 194.42ZM234.95 191.12L232.26 179.40L221.43 176.11L213.31 184.54L216.01 196.25L226.83 199.55ZM261.98 221.15L259.29 209.43L248.47 206.14L240.34 214.56L243.04 226.27L253.85 229.57ZM243.04 226.27L240.34 214.56L229.52 211.26L221.40 219.69L224.10 231.40L234.91 234.69ZM267.42 201.01L264.73 189.29L253.90 185.99L245.77 194.42L248.47 206.14L259.29 209.43ZM259.34 165.84L256.65 154.11L245.82 150.81L237.69 159.24L240.38 170.97L251.21 174.27ZM264.79 145.68L262.09 133.95L251.26 130.65L243.12 139.08L245.82 150.81L256.65 154.11ZM272.86 180.86L270.17 169.14L259.34 165.84L251.21 174.27L253.90 185.99L264.73 189.29ZM270.05 256.31L267.36 244.59L256.54 241.29L248.42 249.70L251.11 261.42L261.93 264.72ZM251.11 261.42L248.42 249.70L237.61 246.41L229.49 254.82L232.18 266.53L242.99 269.83ZM275.49 236.18L272.80 224.46L261.98 221.15L253.85 229.57L256.54 241.29L267.36 244.59ZM256.54 241.29L253.85 229.57L243.04 226.27L234.91 234.69L237.61 246.41L248.42 249.70ZM40.52 262.73L37.80 251.04L27.01 247.78L18.95 256.21L21.67 267.89L32.45 271.15ZM21.67 267.89L18.95 256.21L8.16 252.96L0.10 261.38L2.82 273.06L13.60 276.32ZM64.75 237.45L62.03 225.76L51.23 222.49L43.16 230.93L45.88 242.62L56.67 245.88ZM45.88 242.62L43.16 230.93L32.36 227.67L24.29 236.10L27.01 247.78L37.80 251.04ZM70.11 217.33L67.40 205.63L56.59 202.37L48.51 210.80L51.23 222.49L62.03 225.76ZM51.23 222.49L48.51 210.80L37.72 207.54L29.64 215.98L32.36 227.67L43.16 230.93ZM78.26 252.41L75.54 240.72L64.75 237.45L56.67 245.88L59.39 257.57L70.18 260.83ZM59.39 257.57L56.67 245.88L45.88 242.62L37.80 251.04L40.52 262.73L51.31 265.99ZM83.63 232.29L80.91 220.59L70.11 217.33L62.03 225.76L64.75 237.45L75.54 240.72ZM13.50 232.84L10.78 221.15L-0.01 217.90L-8.08 226.34L-5.35 238.02L5.44 241.27ZM18.85 212.72L16.12 201.03L5.33 197.78L-2.74 206.21L-0.01 217.90L10.78 221.15ZM27.01 247.78L24.29 236.10L13.50 232.84L5.44 241.27L8.16 252.96L18.95 256.21ZM8.16 252.96L5.44 241.27L-5.35 238.02L-13.41 246.45L-10.69 258.13L0.10 261.38ZM32.36 227.67L29.64 215.98L18.85 212.72L10.78 221.15L13.50 232.84L24.29 236.10ZM91.77 267.37L89.05 255.68L78.26 252.41L70.18 260.83L72.89 272.52L83.69 275.79ZM72.70 141.94L69.98 130.23L59.16 126.97L51.08 135.42L53.80 147.13L64.61 150.39ZM53.80 147.13L51.08 135.42L40.27 132.16L32.18 140.61L34.91 152.31L45.71 155.57ZM78.07 121.79L75.35 110.08L64.54 106.81L56.44 115.27L59.16 126.97L69.98 130.23ZM59.16 126.97L56.44 115.27L45.63 112.01L37.54 120.46L40.27 132.16L51.08 135.42ZM86.23 156.91L83.51 145.21L72.70 141.94L64.61 150.39L67.33 162.09L78.13 165.35ZM67.33 162.09L64.61 150.39L53.80 147.13L45.71 155.57L48.43 167.27L59.24 170.53ZM91.61 136.76L88.89 125.05L78.07 121.79L69.98 130.23L72.70 141.94L83.51 145.21ZM21.37 137.36L18.65 125.66L7.84 122.41L-0.24 130.86L2.49 142.56L13.29 145.81ZM2.49 142.56L-0.24 130.86L-11.04 127.61L-19.12 136.06L-16.38 147.76L-5.58 151.00ZM26.73 117.21L24.00 105.50L13.19 102.25L5.11 110.70L7.84 122.41L18.65 125.66ZM7.84 122.41L5.11 110.70L-5.70 107.45L-13.77 115.91L-11.04 127.61L-0.24 130.86ZM34.91 152.31L32.18 140.61L21.37 137.36L13.29 145.81L16.02 157.51L26.82 160.76ZM16.02 157.51L13.29 145.81L2.49 142.56L-5.58 151.00L-2.85 162.70L7.95 165.95ZM40.27 132.16L37.54 120.46L26.73 117.21L18.65 125.66L21.37 137.36L32.18 140.61ZM102.37 96.44L99.66 84.72L88.83 81.46L80.73 89.91L83.45 101.63L94.27 104.89ZM83.45 101.63L80.73 89.91L69.91 86.65L61.81 95.10L64.54 106.81L75.35 110.08ZM107.76 76.27L105.05 64.54L94.22 61.28L86.11 69.74L88.83 81.46L99.66 84.72ZM88.83 81.46L86.11 69.74L75.29 66.48L67.19 74.93L69.91 86.65L80.73 89.91ZM115.91 111.42L113.20 99.71L102.37 96.44L94.27 104.89L96.99 116.60L107.81 119.87ZM96.99 116.60L94.27 104.89L83.45 101.63L75.35 110.08L78.07 121.79L88.89 125.05ZM121.31 91.26L118.59 79.53L107.76 76.27L99.66 84.72L102.37 96.44L113.20 99.71ZM51.00 91.84L48.27 80.13L37.45 76.88L29.36 85.34L32.09 97.04L42.90 100.30ZM32.09 97.04L29.36 85.34L18.55 82.08L10.46 90.54L13.19 102.25L24.00 105.50ZM56.37 71.67L53.64 59.96L42.82 56.70L34.73 65.16L37.45 76.88L48.27 80.13ZM37.45 76.88L34.73 65.16L23.91 61.91L15.82 70.37L18.55 82.08L29.36 85.34ZM64.54 106.81L61.81 95.10L51.00 91.84L42.90 100.30L45.63 112.01L56.44 115.27ZM45.63 112.01L42.90 100.30L32.09 97.04L24.00 105.50L26.73 117.21L37.54 120.46ZM69.91 86.65L67.19 74.93L56.37 71.67L48.27 80.13L51.00 91.84L61.81 95.10ZM94.37 192.03L91.66 180.32L80.85 177.06L72.76 185.50L75.48 197.20L86.28 200.46ZM75.48 197.20L72.76 185.50L61.96 182.23L53.88 190.67L56.59 202.37L67.40 205.63ZM99.75 171.89L97.04 160.18L86.23 156.91L78.13 165.35L80.85 177.06L91.66 180.32ZM80.85 177.06L78.13 165.35L67.33 162.09L59.24 170.53L61.96 182.23L72.76 185.50ZM107.89 207.00L105.18 195.30L94.37 192.03L86.28 200.46L89.00 212.16L99.80 215.43ZM89.00 212.16L86.28 200.46L75.48 197.20L67.40 205.63L70.11 217.33L80.91 220.59ZM113.28 186.86L110.56 175.16L99.75 171.89L91.66 180.32L94.37 192.03L105.18 195.30ZM43.07 187.41L40.35 175.71L29.55 172.46L21.47 180.90L24.20 192.59L34.99 195.85ZM24.20 192.59L21.47 180.90L10.67 177.64L2.60 186.09L5.33 197.78L16.12 201.03ZM48.43 167.27L45.71 155.57L34.91 152.31L26.82 160.76L29.55 172.46L40.35 175.71ZM29.55 172.46L26.82 160.76L16.02 157.51L7.95 165.95L10.67 177.64L21.47 180.90ZM56.59 202.37L53.88 190.67L43.07 187.41L34.99 195.85L37.72 207.54L48.51 210.80ZM37.72 207.54L34.99 195.85L24.20 192.59L16.12 201.03L18.85 212.72L29.64 215.98ZM61.96 182.23L59.24 170.53L48.43 167.27L40.35 175.71L43.07 187.41L53.88 190.67ZM124.05 146.57L121.34 134.86L110.52 131.59L102.42 140.03L105.14 151.74L115.95 155.01ZM105.14 151.74L102.42 140.03L91.61 136.76L83.51 145.21L86.23 156.91L97.04 160.18ZM129.45 126.41L126.73 114.70L115.91 111.42L107.81 119.87L110.52 131.59L121.34 134.86ZM110.52 131.59L107.81 119.87L96.99 116.60L88.89 125.05L91.61 136.76L102.42 140.03ZM137.58 161.56L134.87 149.84L124.05 146.57L115.95 155.01L118.66 166.72L129.48 169.99ZM118.66 166.72L115.95 155.01L105.14 151.74L97.04 160.18L99.75 171.89L110.56 175.16ZM142.98 141.40L140.27 129.69L129.45 126.41L121.34 134.86L124.05 146.57L134.87 149.84ZM5.33 197.78L2.60 186.09L-8.20 182.84L-16.26 191.28L-13.53 202.97L-2.74 206.21ZM10.67 177.64L7.95 165.95L-2.85 162.70L-10.92 171.14L-8.20 182.84L2.60 186.09ZM167.34 246.79L164.63 235.09L153.83 231.81L145.73 240.23L148.43 251.93L159.23 255.21ZM148.43 251.93L145.73 240.23L134.92 236.95L126.83 245.37L129.54 257.07L140.34 260.35ZM172.74 226.67L170.04 214.96L159.22 211.68L151.12 220.10L153.83 231.81L164.63 235.09ZM153.83 231.81L151.12 220.10L140.31 216.82L132.21 225.25L134.92 236.95L145.73 240.23ZM180.84 261.78L178.14 250.08L167.34 246.79L159.23 255.21L161.94 266.91L172.74 270.20ZM161.94 266.91L159.23 255.21L148.43 251.93L140.34 260.35L143.04 272.05L153.84 275.33ZM186.25 241.66L183.55 229.95L172.74 226.67L164.63 235.09L167.34 246.79L178.14 250.08ZM116.03 242.10L113.32 230.40L102.51 227.13L94.43 235.56L97.14 247.25L107.94 250.52ZM97.14 247.25L94.43 235.56L83.63 232.29L75.54 240.72L78.26 252.41L89.05 255.68ZM121.41 221.97L118.70 210.27L107.89 207.00L99.80 215.43L102.51 227.13L113.32 230.40ZM102.51 227.13L99.80 215.43L89.00 212.16L80.91 220.59L83.63 232.29L94.43 235.56ZM129.54 257.07L126.83 245.37L116.03 242.10L107.94 250.52L110.65 262.22L121.44 265.49ZM110.65 262.22L107.94 250.52L97.14 247.25L89.05 255.68L91.77 267.37L102.56 270.64ZM134.92 236.95L132.21 225.25L121.41 221.97L113.32 230.40L116.03 242.10L126.83 245.37ZM197.07 201.39L194.37 189.68L183.55 186.39L175.44 194.82L178.14 206.53L188.96 209.82ZM178.14 206.53L175.44 194.82L164.63 191.54L156.52 199.97L159.22 211.68L170.04 214.96ZM202.49 181.25L199.79 169.53L188.97 166.24L180.85 174.67L183.55 186.39L194.37 189.68ZM183.55 186.39L180.85 174.67L170.03 171.39L161.92 179.82L164.63 191.54L175.44 194.82ZM210.59 216.39L207.89 204.68L197.07 201.39L188.96 209.82L191.66 221.53L202.47 224.82ZM191.66 221.53L188.96 209.82L178.14 206.53L170.04 214.96L172.74 226.67L183.55 229.95ZM216.01 196.25L213.31 184.54L202.49 181.25L194.37 189.68L197.07 201.39L207.89 204.68ZM145.71 196.69L143.00 184.98L132.19 181.70L124.09 190.14L126.80 201.84L137.61 205.12ZM126.80 201.84L124.09 190.14L113.28 186.86L105.18 195.30L107.89 207.00L118.70 210.27ZM151.11 176.55L148.40 164.83L137.58 161.56L129.48 169.99L132.19 181.70L143.00 184.98ZM132.19 181.70L129.48 169.99L118.66 166.72L110.56 175.16L113.28 186.86L124.09 190.14ZM159.22 211.68L156.52 199.97L145.71 196.69L137.61 205.12L140.31 216.82L151.12 220.10ZM140.31 216.82L137.61 205.12L126.80 201.84L118.70 210.27L121.41 221.97L132.21 225.25ZM164.63 191.54L161.92 179.82L151.11 176.55L143.00 184.98L145.71 196.69L156.52 199.97ZM218.68 251.53L215.98 239.82L205.17 236.53L197.06 244.95L199.76 256.65L210.56 259.94ZM199.76 256.65L197.06 244.95L186.25 241.66L178.14 250.08L180.84 261.78L191.65 265.07ZM224.10 231.40L221.40 219.69L210.59 216.39L202.47 224.82L205.17 236.53L215.98 239.82ZM205.17 236.53L202.47 224.82L191.66 221.53L183.55 229.95L186.25 241.66L197.06 244.95ZM232.18 266.53L229.49 254.82L218.68 251.53L210.56 259.94L213.26 271.65L224.07 274.94ZM237.61 246.41L234.91 234.69L224.10 231.40L215.98 239.82L218.68 251.53L229.49 254.82ZM264.96 14.68L262.26 2.93L251.40 -0.37L243.25 8.09L245.95 19.84L256.81 23.13ZM245.95 19.84L243.25 8.09L232.40 4.80L224.26 13.26L226.96 25.01L237.81 28.30ZM270.42 -5.53L267.72 -17.29L256.86 -20.58L248.70 -12.12L251.40 -0.37L262.26 2.93ZM251.40 -0.37L248.70 -12.12L237.85 -15.41L229.70 -6.94L232.40 4.80L243.25 8.09ZM259.50 34.88L256.81 23.13L245.95 19.84L237.81 28.30L240.51 40.04L251.36 43.33ZM213.41 9.98L210.70 -1.77L199.85 -5.05L191.71 3.41L194.42 15.16L205.27 18.44ZM194.42 15.16L191.71 3.41L180.86 0.13L172.73 8.60L175.44 20.34L186.28 23.62ZM199.85 -5.05L197.14 -16.80L186.29 -20.07L178.15 -11.61L180.86 0.13L191.71 3.41ZM226.96 25.01L224.26 13.26L213.41 9.98L205.27 18.44L207.97 30.18L218.82 33.46ZM207.97 30.18L205.27 18.44L194.42 15.16L186.28 23.62L188.99 35.35L199.83 38.64ZM232.40 4.80L229.70 -6.94L218.84 -10.23L210.70 -1.77L213.41 9.98L224.26 13.26ZM110.40 0.71L107.68 -11.03L96.84 -14.29L88.72 -5.82L91.45 5.91L102.28 9.18ZM91.45 5.91L88.72 -5.82L77.89 -9.08L69.78 -0.61L72.50 11.12L83.33 14.38ZM123.96 15.71L121.24 3.97L110.40 0.71L102.28 9.18L105.00 20.91L115.84 24.17ZM105.00 20.91L102.28 9.18L91.45 5.91L83.33 14.38L86.06 26.11L96.89 29.37ZM129.36 -4.49L126.64 -16.23L115.80 -19.50L107.68 -11.03L110.40 0.71L121.24 3.97ZM58.94 -3.86L56.21 -15.59L45.38 -18.84L37.28 -10.37L40.01 1.36L50.84 4.61ZM40.01 1.36L37.28 -10.37L26.44 -13.62L18.35 -5.14L21.08 6.58L31.91 9.83ZM72.50 11.12L69.78 -0.61L58.94 -3.86L50.84 4.61L53.56 16.33L64.39 19.59ZM53.56 16.33L50.84 4.61L40.01 1.36L31.91 9.83L34.64 21.55L45.46 24.80ZM132.10 50.90L129.39 39.17L118.55 35.90L110.44 44.36L113.16 56.09L123.99 59.36ZM113.16 56.09L110.44 44.36L99.61 41.10L91.50 49.56L94.22 61.28L105.05 64.54ZM137.51 30.71L134.79 18.98L123.96 15.71L115.84 24.17L118.55 35.90L129.39 39.17ZM118.55 35.90L115.84 24.17L105.00 20.91L96.89 29.37L99.61 41.10L110.44 44.36ZM145.65 65.90L142.94 54.17L132.10 50.90L123.99 59.36L126.70 71.08L137.53 74.35ZM126.70 71.08L123.99 59.36L113.16 56.09L105.05 64.54L107.76 76.27L118.59 79.53ZM151.06 45.71L148.35 33.98L137.51 30.71L129.39 39.17L132.10 50.90L142.94 54.17ZM80.67 46.29L77.95 34.57L67.12 31.31L59.02 39.78L61.74 51.50L72.57 54.76ZM61.74 51.50L59.02 39.78L48.19 36.52L40.09 44.99L42.82 56.70L53.64 59.96ZM86.06 26.11L83.33 14.38L72.50 11.12L64.39 19.59L67.12 31.31L77.95 34.57ZM67.12 31.31L64.39 19.59L53.56 16.33L45.46 24.80L48.19 36.52L59.02 39.78ZM94.22 61.28L91.50 49.56L80.67 46.29L72.57 54.76L75.29 66.48L86.11 69.74ZM75.29 66.48L72.57 54.76L61.74 51.50L53.64 59.96L56.37 71.67L67.19 74.93ZM99.61 41.10L96.89 29.37L86.06 26.11L77.95 34.57L80.67 46.29L91.50 49.56ZM161.89 5.32L159.17 -6.42L148.33 -9.69L140.20 -1.22L142.92 10.51L153.76 13.79ZM142.92 10.51L140.20 -1.22L129.36 -4.49L121.24 3.97L123.96 15.71L134.79 18.98ZM175.44 20.34L172.73 8.60L161.89 5.32L153.76 13.79L156.47 25.52L167.31 28.80ZM156.47 25.52L153.76 13.79L142.92 10.51L134.79 18.98L137.51 30.71L148.35 33.98ZM180.86 0.13L178.15 -11.61L167.31 -14.88L159.17 -6.42L161.89 5.32L172.73 8.60ZM267.60 70.11L264.90 58.37L254.05 55.08L245.91 63.53L248.61 75.27L259.45 78.56ZM273.05 49.92L270.35 38.18L259.50 34.88L251.36 43.33L254.05 55.08L264.90 58.37ZM205.23 105.76L202.52 94.03L191.69 90.74L183.56 99.19L186.27 110.91L197.10 114.20ZM186.27 110.91L183.56 99.19L172.73 95.91L164.61 104.35L167.32 116.08L178.15 119.36ZM210.65 85.58L207.95 73.85L197.11 70.56L188.98 79.01L191.69 90.74L202.52 94.03ZM191.69 90.74L188.98 79.01L178.15 75.73L170.03 84.18L172.73 95.91L183.56 99.19ZM218.76 120.77L216.06 109.04L205.23 105.76L197.10 114.20L199.80 125.92L210.63 129.21ZM199.80 125.92L197.10 114.20L186.27 110.91L178.15 119.36L180.85 131.08L191.68 134.36ZM224.19 100.60L221.49 88.87L210.65 85.58L202.52 94.03L205.23 105.76L216.06 109.04ZM153.79 101.08L151.07 89.35L140.25 86.08L132.13 94.53L134.84 106.25L145.67 109.52ZM134.84 106.25L132.13 94.53L121.31 91.26L113.20 99.71L115.91 111.42L126.73 114.70ZM159.19 80.90L156.48 69.17L145.65 65.90L137.53 74.35L140.25 86.08L151.07 89.35ZM140.25 86.08L137.53 74.35L126.70 71.08L118.59 79.53L121.31 91.26L132.13 94.53ZM167.32 116.08L164.61 104.35L153.79 101.08L145.67 109.52L148.38 121.24L159.20 124.52ZM148.38 121.24L145.67 109.52L134.84 106.25L126.73 114.70L129.45 126.41L140.27 129.69ZM172.73 95.91L170.03 84.18L159.19 80.90L151.07 89.35L153.79 101.08L164.61 104.35ZM235.07 60.23L232.36 48.49L221.52 45.21L213.38 53.66L216.09 65.40L226.93 68.68ZM216.09 65.40L213.38 53.66L202.54 50.37L194.41 58.83L197.11 70.56L207.95 73.85ZM240.51 40.04L237.81 28.30L226.96 25.01L218.82 33.46L221.52 45.21L232.36 48.49ZM221.52 45.21L218.82 33.46L207.97 30.18L199.83 38.64L202.54 50.37L213.38 53.66ZM248.61 75.27L245.91 63.53L235.07 60.23L226.93 68.68L229.63 80.42L240.47 83.71ZM229.63 80.42L226.93 68.68L216.09 65.40L207.95 73.85L210.65 85.58L221.49 88.87ZM254.05 55.08L251.36 43.33L240.51 40.04L232.36 48.49L235.07 60.23L245.91 63.53ZM183.57 55.55L180.86 43.81L170.02 40.53L161.90 48.99L164.61 60.72L175.44 64.00ZM164.61 60.72L161.90 48.99L151.06 45.71L142.94 54.17L145.65 65.90L156.48 69.17ZM188.99 35.35L186.28 23.62L175.44 20.34L167.31 28.80L170.02 40.53L180.86 43.81ZM170.02 40.53L167.31 28.80L156.47 25.52L148.35 33.98L151.06 45.71L161.90 48.99ZM197.11 70.56L194.41 58.83L183.57 55.55L175.44 64.00L178.15 75.73L188.98 79.01ZM178.15 75.73L175.44 64.00L164.61 60.72L156.48 69.17L159.19 80.90L170.03 84.18ZM202.54 50.37L199.83 38.64L188.99 35.35L180.86 43.81L183.57 55.55L194.41 58.83ZM226.86 155.95L224.16 144.23L213.33 140.94L205.21 149.37L207.91 161.10L218.73 164.38ZM207.91 161.10L205.21 149.37L194.38 146.09L186.26 154.52L188.97 166.24L199.79 169.53ZM232.29 135.79L229.59 124.06L218.76 120.77L210.63 129.21L213.33 140.94L224.16 144.23ZM213.33 140.94L210.63 129.21L199.80 125.92L191.68 134.36L194.38 146.09L205.21 149.37ZM240.38 170.97L237.69 159.24L226.86 155.95L218.73 164.38L221.43 176.11L232.26 179.40ZM221.43 176.11L218.73 164.38L207.91 161.10L199.79 169.53L202.49 181.25L213.31 184.54ZM245.82 150.81L243.12 139.08L232.29 135.79L224.16 144.23L226.86 155.95L237.69 159.24ZM175.44 151.24L172.74 139.52L161.91 136.24L153.80 144.68L156.51 156.40L167.33 159.68ZM156.51 156.40L153.80 144.68L142.98 141.40L134.87 149.84L137.58 161.56L148.40 164.83ZM180.85 131.08L178.15 119.36L167.32 116.08L159.20 124.52L161.91 136.24L172.74 139.52ZM161.91 136.24L159.20 124.52L148.38 121.24L140.27 129.69L142.98 141.40L153.80 144.68ZM188.97 166.24L186.26 154.52L175.44 151.24L167.33 159.68L170.03 171.39L180.85 174.67ZM170.03 171.39L167.33 159.68L156.51 156.40L148.40 164.83L151.11 176.55L161.92 179.82ZM194.38 146.09L191.68 134.36L180.85 131.08L172.74 139.52L175.44 151.24L186.26 154.52ZM256.70 110.48L254.00 98.74L243.17 95.45L235.03 103.89L237.73 115.62L248.56 118.92ZM237.73 115.62L235.03 103.89L224.19 100.60L216.06 109.04L218.76 120.77L229.59 124.06ZM262.15 90.30L259.45 78.56L248.61 75.27L240.47 83.71L243.17 95.45L254.00 98.74ZM243.17 95.45L240.47 83.71L229.63 80.42L221.49 88.87L224.19 100.60L235.03 103.89ZM270.23 125.51L267.54 113.77L256.70 110.48L248.56 118.92L251.26 130.65L262.09 133.95ZM251.26 130.65L248.56 118.92L237.73 115.62L229.59 124.06L232.29 135.79L243.12 139.08ZM275.68 105.34L272.99 93.60L262.15 90.30L254.00 98.74L256.70 110.48L267.54 113.77Z"/></svg>
