<svg xmlns="http://www.w3.org/2000/svg" width="256" height="256" viewBox="0 0 256 256"><path data-band="3" fill="#dc2626" fill-opacity="0.35" d="M130.23 269.55L127.56 258.01L116.92 254.70L108.95 262.93L111.62 274.48L122.26 277.78ZM135.53 249.77L132.86 238.22L122.22 234.92L114.25 243.16L116.92 254.70L127.56 258.01ZM116.92 254.70L114.25 243.16L103.61 239.85L95.65 248.09L98.32 259.63L108.95 262.93ZM148.84 264.63L146.17 253.08L135.53 249.77L127.56 258.01L130.23 269.55L140.86 272.86ZM79.72 264.57L77.05 253.03L66.41 249.73L58.46 257.97L61.13 269.50L71.76 272.80ZM61.13 269.50L58.46 257.97L47.83 254.67L39.88 262.91L42.55 274.45L53.18 277.74ZM85.01 244.79L82.34 233.25L71.70 229.95L63.74 238.19L66.41 249.73L77.05 253.03ZM66.41 249.73L63.74 238.19L53.10 234.90L45.15 243.14L47.83 254.67L58.46 257.97ZM98.32 259.63L95.65 248.09L85.01 244.79L77.05 253.03L79.72 264.57L90.35 267.87ZM159.47 225.06L156.80 213.50L146.15 210.19L138.17 218.43L140.84 229.98L151.49 233.30ZM140.84 229.98L138.17 218.43L127.53 215.13L119.55 223.37L122.22 234.92L132.86 238.22ZM164.79 205.26L162.12 193.70L151.47 190.39L143.49 198.64L146.15 210.19L156.80 213.50ZM146.15 210.19L143.49 198.64L132.84 195.33L124.86 203.57L127.53 215.13L138.17 218.43ZM172.78 239.92L170.11 228.37L159.47 225.06L151.49 233.30L154.15 244.85L164.79 248.16ZM154.15 244.85L151.49 233.30L140.84 229.98L132.86 238.22L135.53 249.77L146.17 253.08ZM178.10 220.13L175.44 208.58L164.79 205.26L156.80 213.50L159.47 225.06L170.11 228.37ZM108.91 220.06L106.24 208.51L95.60 205.21L87.63 213.46L90.30 225.00L100.94 228.31ZM90.30 225.00L87.63 213.46L76.99 210.16L69.02 218.41L71.70 229.95L82.34 233.25ZM114.21 200.27L111.54 188.72L100.89 185.41L92.92 193.66L95.60 205.21L106.24 208.51ZM95.60 205.21L92.92 193.66L82.28 190.36L74.31 198.61L76.99 210.16L87.63 213.46ZM122.22 234.92L119.55 223.37L108.91 220.06L100.94 228.31L103.61 239.85L114.25 243.16ZM103.61 239.85L100.94 228.31L90.30 225.00L82.34 233.25L85.01 244.79L95.65 248.09ZM127.53 215.13L124.86 203.57L114.21 200.27L106.24 208.51L108.91 220.06L119.55 223.37ZM186.08 254.79L183.42 243.24L172.78 239.92L164.79 248.16L167.46 259.71L178.10 263.03ZM167.46 259.71L164.79 248.16L154.15 244.85L146.17 253.08L148.84 264.63L159.48 267.94ZM199.39 269.67L196.73 258.11L186.08 254.79L178.10 263.03L180.76 274.57L191.40 277.89ZM29.25 259.62L26.57 248.09L15.94 244.80L7.99 253.04L10.68 264.57L21.30 267.86ZM10.68 264.57L7.99 253.04L-2.63 249.76L-10.57 258.00L-7.89 269.53L2.74 272.81ZM34.52 239.85L31.84 228.31L21.21 225.02L13.26 233.27L15.94 244.80L26.57 248.09ZM15.94 244.80L13.26 233.27L2.63 229.98L-5.32 238.23L-2.63 249.76L7.99 253.04ZM47.83 254.67L45.15 243.14L34.52 239.85L26.57 248.09L29.25 259.62L39.88 262.91ZM167.44 130.95L164.77 119.38L154.11 116.07L146.12 124.33L148.79 135.90L159.45 139.21ZM148.79 135.90L146.12 124.33L135.46 121.02L127.47 129.28L130.14 140.84L140.80 144.15ZM172.77 111.12L170.10 99.55L159.44 96.24L151.44 104.50L154.11 116.07L164.77 119.38ZM154.11 116.07L151.44 104.50L140.78 101.19L132.78 109.46L135.46 121.02L146.12 124.33ZM180.77 145.83L178.10 134.26L167.44 130.95L159.45 139.21L162.11 150.77L172.77 154.08ZM162.11 150.77L159.45 139.21L148.79 135.90L140.80 144.15L143.47 155.71L154.12 159.02ZM186.10 126.01L183.44 114.44L172.77 111.12L164.77 119.38L167.44 130.95L178.10 134.26ZM116.81 125.98L114.14 114.42L103.48 111.11L95.50 119.38L98.17 130.94L108.83 134.24ZM98.17 130.94L95.50 119.38L84.84 116.08L76.86 124.34L79.54 135.90L90.19 139.20ZM122.12 106.15L119.45 94.59L108.79 91.28L100.80 99.55L103.48 111.11L114.14 114.42ZM103.48 111.11L100.80 99.55L90.14 96.25L82.16 104.52L84.84 116.08L95.50 119.38ZM130.14 140.84L127.47 129.28L116.81 125.98L108.83 134.24L111.50 145.80L122.16 149.10ZM111.50 145.80L108.83 134.24L98.17 130.94L90.19 139.20L92.87 150.75L103.52 154.05ZM135.46 121.02L132.78 109.46L122.12 106.15L114.14 114.42L116.81 125.98L127.47 129.28ZM196.78 86.34L194.12 74.76L183.44 71.45L175.44 79.71L178.11 91.29L188.78 94.60ZM178.11 91.29L175.44 79.71L164.77 76.40L156.77 84.67L159.44 96.24L170.10 99.55ZM202.13 66.49L199.46 54.91L188.79 51.60L180.78 59.87L183.44 71.45L194.12 74.76ZM183.44 71.45L180.78 59.87L170.10 56.56L162.10 64.82L164.77 76.40L175.44 79.71ZM210.12 101.23L207.46 89.66L196.78 86.34L188.78 94.60L191.44 106.18L202.11 109.49ZM191.44 106.18L188.78 94.60L178.11 91.29L170.10 99.55L172.77 111.12L183.44 114.44ZM215.47 81.39L212.81 69.81L202.13 66.49L194.12 74.76L196.78 86.34L207.46 89.66ZM146.10 81.36L143.43 69.79L132.76 66.48L124.76 74.75L127.44 86.32L138.10 89.62ZM127.44 86.32L124.76 74.75L114.10 71.45L106.11 79.72L108.79 91.28L119.45 94.59ZM151.43 61.52L148.75 49.94L138.08 46.63L130.08 54.91L132.76 66.48L143.43 69.79ZM132.76 66.48L130.08 54.91L119.41 51.60L111.42 59.88L114.10 71.45L124.76 74.75ZM159.44 96.24L156.77 84.67L146.10 81.36L138.10 89.62L140.78 101.19L151.44 104.50ZM140.78 101.19L138.10 89.62L127.44 86.32L119.45 94.59L122.12 106.15L132.78 109.46ZM164.77 76.40L162.10 64.82L151.43 61.52L143.43 69.79L146.10 81.36L156.77 84.67ZM188.76 180.53L186.10 168.96L175.44 165.65L167.45 173.90L170.11 185.46L180.77 188.77ZM170.11 185.46L167.45 173.90L156.79 170.58L148.80 178.83L151.47 190.39L162.12 193.70ZM194.09 160.71L191.43 149.15L180.77 145.83L172.77 154.08L175.44 165.65L186.10 168.96ZM175.44 165.65L172.77 154.08L162.11 150.77L154.12 159.02L156.79 170.58L167.45 173.90ZM202.08 195.41L199.42 183.85L188.76 180.53L180.77 188.77L183.43 200.33L194.08 203.65ZM183.43 200.33L180.77 188.77L170.11 185.46L162.12 193.70L164.79 205.26L175.44 208.58ZM207.42 175.60L204.76 164.03L194.09 160.71L186.10 168.96L188.76 180.53L199.42 183.85ZM138.15 175.52L135.48 163.97L124.83 160.66L116.85 168.91L119.52 180.47L130.17 183.77ZM119.52 180.47L116.85 168.91L106.20 165.61L98.22 173.86L100.89 185.41L111.54 188.72ZM143.47 155.71L140.80 144.15L130.14 140.84L122.16 149.10L124.83 160.66L135.48 163.97ZM124.83 160.66L122.16 149.10L111.50 145.80L103.52 154.05L106.20 165.61L116.85 168.91ZM151.47 190.39L148.80 178.83L138.15 175.52L130.17 183.77L132.84 195.33L143.49 198.64ZM132.84 195.33L130.17 183.77L119.52 180.47L111.54 188.72L114.21 200.27L124.86 203.57ZM156.79 170.58L154.12 159.02L143.47 155.71L135.48 163.97L138.15 175.52L148.80 178.83ZM218.10 135.96L215.44 124.39L204.77 121.07L196.77 129.32L199.43 140.89L210.10 144.21ZM199.43 140.89L196.77 129.32L186.10 126.01L178.10 134.26L180.77 145.83L191.43 149.15ZM223.45 116.13L220.79 104.55L210.12 101.23L202.11 109.49L204.77 121.07L215.44 124.39ZM204.77 121.07L202.11 109.49L191.44 106.18L183.44 114.44L186.10 126.01L196.77 129.32ZM231.43 150.86L228.77 139.28L218.10 135.96L210.10 144.21L212.76 155.78L223.42 159.11ZM212.76 155.78L210.10 144.21L199.43 140.89L191.43 149.15L194.09 160.71L204.76 164.03ZM236.78 131.03L234.12 119.45L223.45 116.13L215.44 124.39L218.10 135.96L228.77 139.28ZM37.02 165.64L34.34 154.09L23.70 150.81L15.74 159.07L18.42 170.61L29.06 173.90ZM18.42 170.61L15.74 159.07L5.10 155.78L-2.85 164.04L-0.17 175.58L10.47 178.87ZM42.30 145.83L39.62 134.28L28.97 131.00L21.01 139.26L23.70 150.81L34.34 154.09ZM23.70 150.81L21.01 139.26L10.37 135.97L2.41 144.24L5.10 155.78L15.74 159.07ZM50.35 180.48L47.67 168.93L37.02 165.64L29.06 173.90L31.75 185.44L42.39 188.73ZM31.75 185.44L29.06 173.90L18.42 170.61L10.47 178.87L13.16 190.41L23.79 193.69ZM55.63 160.68L52.95 149.13L42.30 145.83L34.34 154.09L37.02 165.64L47.67 168.93ZM5.10 155.78L2.41 144.24L-8.23 140.96L-16.18 149.22L-13.49 160.76L-2.85 164.04ZM66.21 121.05L63.53 109.49L52.87 106.20L44.90 114.47L47.59 126.02L58.24 129.31ZM47.59 126.02L44.90 114.47L34.25 111.18L26.29 119.44L28.97 131.00L39.62 134.28ZM71.50 101.22L68.82 89.66L58.16 86.37L50.19 94.64L52.87 106.20L63.53 109.49ZM52.87 106.20L50.19 94.64L39.54 91.35L31.57 99.62L34.25 111.18L44.90 114.47ZM79.54 135.90L76.86 124.34L66.21 121.05L58.24 129.31L60.92 140.87L71.57 144.16ZM60.92 140.87L58.24 129.31L47.59 126.02L39.62 134.28L42.30 145.83L52.95 149.13ZM84.84 116.08L82.16 104.52L71.50 101.22L63.53 109.49L66.21 121.05L76.86 124.34ZM15.64 116.16L12.95 104.61L2.30 101.32L-5.66 109.59L-2.97 121.14L7.68 124.43ZM20.91 96.34L18.23 84.78L7.57 81.50L-0.39 89.77L2.30 101.32L12.95 104.61ZM2.30 101.32L-0.39 89.77L-11.04 86.49L-19.00 94.77L-16.30 106.32L-5.66 109.59ZM28.97 131.00L26.29 119.44L15.64 116.16L7.68 124.43L10.37 135.97L21.01 139.26ZM10.37 135.97L7.68 124.43L-2.97 121.14L-10.92 129.41L-8.23 140.96L2.41 144.24ZM34.25 111.18L31.57 99.62L20.91 96.34L12.95 104.61L15.64 116.16L26.29 119.44ZM58.38 215.11L55.71 203.57L45.07 200.27L37.11 208.52L39.79 220.06L50.43 223.36ZM39.79 220.06L37.11 208.52L26.47 205.23L18.52 213.48L21.21 225.02L31.84 228.31ZM63.67 195.32L60.99 183.77L50.35 180.48L42.39 188.73L45.07 200.27L55.71 203.57ZM45.07 200.27L42.39 188.73L31.75 185.44L23.79 193.69L26.47 205.23L37.11 208.52ZM71.70 229.95L69.02 218.41L58.38 215.11L50.43 223.36L53.10 234.90L63.74 238.19ZM53.10 234.90L50.43 223.36L39.79 220.06L31.84 228.31L34.52 239.85L45.15 243.14ZM76.99 210.16L74.31 198.61L63.67 195.32L55.71 203.57L58.38 215.11L69.02 218.41ZM7.89 210.20L5.20 198.66L-5.43 195.38L-13.37 203.63L-10.69 215.16L-0.06 218.45ZM13.16 190.41L10.47 178.87L-0.17 175.58L-8.12 183.84L-5.43 195.38L5.20 198.66ZM21.21 225.02L18.52 213.48L7.89 210.20L-0.06 218.45L2.63 229.98L13.26 233.27ZM2.63 229.98L-0.06 218.45L-10.69 215.16L-18.63 223.41L-15.94 234.94L-5.32 238.23ZM26.47 205.23L23.79 193.69L13.16 190.41L5.20 198.66L7.89 210.20L18.52 213.48ZM87.57 170.56L84.90 159.01L74.25 155.71L66.28 163.97L68.96 175.52L79.60 178.82ZM68.96 175.52L66.28 163.97L55.63 160.68L47.67 168.93L50.35 180.48L60.99 183.77ZM92.87 150.75L90.19 139.20L79.54 135.90L71.57 144.16L74.25 155.71L84.90 159.01ZM74.25 155.71L71.57 144.16L60.92 140.87L52.95 149.13L55.63 160.68L66.28 163.97ZM100.89 185.41L98.22 173.86L87.57 170.56L79.60 178.82L82.28 190.36L92.92 193.66ZM82.28 190.36L79.60 178.82L68.96 175.52L60.99 183.77L63.67 195.32L74.31 198.61ZM106.20 165.61L103.52 154.05L92.87 150.75L84.90 159.01L87.57 170.56L98.22 173.86ZM260.67 235.17L258.02 223.60L247.36 220.27L239.36 228.51L242.01 240.07L252.67 243.40ZM242.01 240.07L239.36 228.51L228.70 225.18L220.71 233.41L223.36 244.97L234.01 248.30ZM266.03 215.37L263.38 203.80L252.72 200.47L244.71 208.71L247.36 220.27L258.02 223.60ZM247.36 220.27L244.71 208.71L234.05 205.38L226.05 213.62L228.70 225.18L239.36 228.51ZM273.98 250.06L271.33 238.50L260.67 235.17L252.67 243.40L255.32 254.96L265.97 258.29ZM255.32 254.96L252.67 243.40L242.01 240.07L234.01 248.30L236.67 259.86L247.32 263.19ZM210.05 230.09L207.40 218.53L196.74 215.21L188.75 223.45L191.41 235.01L202.06 238.33ZM191.41 235.01L188.75 223.45L178.10 220.13L170.11 228.37L172.78 239.92L183.42 243.24ZM215.39 210.29L212.74 198.73L202.08 195.41L194.08 203.65L196.74 215.21L207.40 218.53ZM196.74 215.21L194.08 203.65L183.43 200.33L175.44 208.58L178.10 220.13L188.75 223.45ZM223.36 244.97L220.71 233.41L210.05 230.09L202.06 238.33L204.72 249.88L215.37 253.20ZM204.72 249.88L202.06 238.33L191.41 235.01L183.42 243.24L186.08 254.79L196.73 258.11ZM228.70 225.18L226.05 213.62L215.39 210.29L207.40 218.53L210.05 230.09L220.71 233.41ZM271.39 195.56L268.74 183.99L258.07 180.66L250.06 188.90L252.72 200.47L263.38 203.80ZM276.75 175.75L274.10 164.17L263.43 160.84L255.42 169.08L258.07 180.66L268.74 183.99ZM239.40 185.57L236.74 174.00L226.08 170.68L218.08 178.92L220.74 190.49L231.40 193.81ZM220.74 190.49L218.08 178.92L207.42 175.60L199.42 183.85L202.08 195.41L212.74 198.73ZM244.75 165.76L242.10 154.18L231.43 150.86L223.42 159.11L226.08 170.68L236.74 174.00ZM226.08 170.68L223.42 159.11L212.76 155.78L204.76 164.03L207.42 175.60L218.08 178.92ZM252.72 200.47L250.06 188.90L239.40 185.57L231.40 193.81L234.05 205.38L244.71 208.71ZM234.05 205.38L231.40 193.81L220.74 190.49L212.74 198.73L215.39 210.29L226.05 213.62ZM258.07 180.66L255.42 169.08L244.75 165.76L236.74 174.00L239.40 185.57L250.06 188.90ZM268.62 269.85L265.97 258.29L255.32 254.96L247.32 263.19L249.97 274.74L260.62 278.08ZM236.67 259.86L234.01 248.30L223.36 244.97L215.37 253.20L218.02 264.76L228.67 268.09ZM218.02 264.76L215.37 253.20L204.72 249.88L196.73 258.11L199.39 269.67L210.03 272.99ZM204.83 -7.99L202.16 -19.58L191.47 -22.90L183.45 -14.61L186.12 -3.02L196.81 0.29ZM186.12 -3.02L183.45 -14.61L172.77 -17.92L164.75 -9.64L167.43 1.95L178.11 5.26ZM218.19 6.92L215.52 -4.67L204.83 -7.99L196.81 0.29L199.48 11.88L210.16 15.19ZM199.48 11.88L196.81 0.29L186.12 -3.02L178.11 5.26L180.78 16.84L191.46 20.15ZM135.38 -7.97L132.70 -19.55L122.02 -22.85L114.02 -14.57L116.70 -2.99L127.38 0.31ZM167.43 1.95L164.75 -9.64L154.07 -12.95L146.06 -4.67L148.74 6.92L159.42 10.23ZM148.74 6.92L146.06 -4.67L135.38 -7.97L127.38 0.31L130.05 11.90L140.73 15.20ZM226.18 41.69L223.51 30.10L212.83 26.78L204.81 35.06L207.48 46.64L218.16 49.96ZM207.48 46.64L204.81 35.06L194.13 31.74L186.12 40.01L188.79 51.60L199.46 54.91ZM231.54 21.83L228.87 10.24L218.19 6.92L210.16 15.19L212.83 26.78L223.51 30.10ZM212.83 26.78L210.16 15.19L199.48 11.88L191.46 20.15L194.13 31.74L204.81 35.06ZM239.52 56.60L236.86 45.01L226.18 41.69L218.16 49.96L220.82 61.55L231.50 64.87ZM220.82 61.55L218.16 49.96L207.48 46.64L199.46 54.91L202.13 66.49L212.81 69.81ZM244.88 36.74L242.22 25.15L231.54 21.83L223.51 30.10L226.18 41.69L236.86 45.01ZM175.44 36.70L172.77 25.12L162.09 21.81L154.08 30.09L156.76 41.67L167.43 44.97ZM156.76 41.67L154.08 30.09L143.41 26.78L135.41 35.06L138.08 46.63L148.75 49.94ZM180.78 16.84L178.11 5.26L167.43 1.95L159.42 10.23L162.09 21.81L172.77 25.12ZM162.09 21.81L159.42 10.23L148.74 6.92L140.73 15.20L143.41 26.78L154.08 30.09ZM188.79 51.60L186.12 40.01L175.44 36.70L167.43 44.97L170.10 56.56L180.78 59.87ZM170.10 56.56L167.43 44.97L156.76 41.67L148.75 49.94L151.43 61.52L162.10 64.82ZM194.13 31.74L191.46 20.15L180.78 16.84L172.77 25.12L175.44 36.70L186.12 40.01ZM255.62 -2.99L252.96 -14.59L242.27 -17.91L234.24 -9.63L236.90 1.96L247.59 5.28ZM236.90 1.96L234.24 -9.63L223.54 -12.95L215.52 -4.67L218.19 6.92L228.87 10.24ZM268.97 11.93L266.32 0.33L255.62 -2.99L247.59 5.28L250.25 16.88L260.94 20.21ZM250.25 16.88L247.59 5.28L236.90 1.96L228.87 10.24L231.54 21.83L242.22 25.15ZM274.35 -7.94L271.69 -19.54L261.00 -22.87L252.96 -14.59L255.62 -2.99L266.32 0.33ZM247.50 91.36L244.84 79.78L234.16 76.45L226.15 84.71L228.81 96.30L239.48 99.62ZM228.81 96.30L226.15 84.71L215.47 81.39L207.46 89.66L210.12 101.23L220.79 104.55ZM252.86 71.51L250.20 59.93L239.52 56.60L231.50 64.87L234.16 76.45L244.84 79.78ZM234.16 76.45L231.50 64.87L220.82 61.55L212.81 69.81L215.47 81.39L226.15 84.71ZM260.83 106.27L258.18 94.69L247.50 91.36L239.48 99.62L242.14 111.20L252.81 114.53ZM242.14 111.20L239.48 99.62L228.81 96.30L220.79 104.55L223.45 116.13L234.12 119.45ZM266.20 86.43L263.54 74.84L252.86 71.51L244.84 79.78L247.50 91.36L258.18 94.69ZM276.95 46.72L274.29 35.13L263.60 31.80L255.57 40.07L258.23 51.66L268.92 54.99ZM258.23 51.66L255.57 40.07L244.88 36.74L236.86 45.01L239.52 56.60L250.20 59.93ZM263.60 31.80L260.94 20.21L250.25 16.88L242.22 25.15L244.88 36.74L255.57 40.07ZM271.57 66.58L268.92 54.99L258.23 51.66L250.20 59.93L252.86 71.51L263.54 74.84ZM268.80 141.01L266.14 129.43L255.47 126.11L247.45 134.36L250.11 145.93L260.78 149.26ZM250.11 145.93L247.45 134.36L236.78 131.03L228.77 139.28L231.43 150.86L242.10 154.18ZM274.16 121.18L271.51 109.60L260.83 106.27L252.81 114.53L255.47 126.11L266.14 129.43ZM255.47 126.11L252.81 114.53L242.14 111.20L234.12 119.45L236.78 131.03L247.45 134.36ZM263.43 160.84L260.78 149.26L250.11 145.93L242.10 154.18L244.75 165.76L255.42 169.08ZM74.06 26.85L71.37 15.27L60.70 11.98L52.72 20.27L55.40 31.84L66.07 35.13ZM55.40 31.84L52.72 20.27L42.05 16.98L34.07 25.26L36.76 36.83L47.43 40.12ZM79.36 6.99L76.68 -4.59L66.00 -7.88L58.02 0.41L60.70 11.98L71.37 15.27ZM60.70 11.98L58.02 0.41L47.35 -2.88L39.36 5.41L42.05 16.98L52.72 20.27ZM87.41 41.71L84.72 30.14L74.06 26.85L66.07 35.13L68.75 46.69L79.42 49.99ZM68.75 46.69L66.07 35.13L55.40 31.84L47.43 40.12L50.11 51.68L60.77 54.97ZM92.71 21.86L90.03 10.28L79.36 6.99L71.37 15.27L74.06 26.85L84.72 30.14ZM23.41 21.98L20.72 10.41L10.05 7.13L2.08 15.42L4.78 26.98L15.44 30.26ZM4.78 26.98L2.08 15.42L-8.58 12.14L-16.54 20.43L-13.85 31.99L-3.19 35.27ZM28.70 2.13L26.01 -9.44L15.34 -12.73L7.36 -4.44L10.05 7.13L20.72 10.41ZM10.05 7.13L7.36 -4.44L-3.30 -7.71L-11.27 0.58L-8.58 12.14L2.08 15.42ZM36.76 36.83L34.07 25.26L23.41 21.98L15.44 30.26L18.13 41.83L28.79 45.11ZM18.13 41.83L15.44 30.26L4.78 26.98L-3.19 35.27L-0.50 46.83L10.16 50.11ZM42.05 16.98L39.36 5.41L28.70 2.13L20.72 10.41L23.41 21.98L34.07 25.26ZM116.70 -2.99L114.02 -14.57L103.34 -17.86L95.34 -9.58L98.03 2.00L108.70 5.30ZM98.03 2.00L95.34 -9.58L84.67 -12.87L76.68 -4.59L79.36 6.99L90.03 10.28ZM66.00 -7.88L63.32 -19.45L52.64 -22.74L44.66 -14.45L47.35 -2.88L58.02 0.41ZM47.35 -2.88L44.66 -14.45L33.99 -17.73L26.01 -9.44L28.70 2.13L39.36 5.41ZM95.44 76.42L92.77 64.85L82.10 61.56L74.12 69.83L76.80 81.39L87.46 84.69ZM76.80 81.39L74.12 69.83L63.46 66.54L55.48 74.81L58.16 86.37L68.82 89.66ZM100.75 56.58L98.07 45.01L87.41 41.71L79.42 49.99L82.10 61.56L92.77 64.85ZM82.10 61.56L79.42 49.99L68.75 46.69L60.77 54.97L63.46 66.54L74.12 69.83ZM108.79 91.28L106.11 79.72L95.44 76.42L87.46 84.69L90.14 96.25L100.80 99.55ZM90.14 96.25L87.46 84.69L76.80 81.39L68.82 89.66L71.50 101.22L82.16 104.52ZM114.10 71.45L111.42 59.88L100.75 56.58L92.77 64.85L95.44 76.42L106.11 79.72ZM44.82 71.52L42.14 59.96L31.48 56.67L23.51 64.95L26.19 76.51L36.85 79.79ZM26.19 76.51L23.51 64.95L12.85 61.67L4.88 69.94L7.57 81.50L18.23 84.78ZM50.11 51.68L47.43 40.12L36.76 36.83L28.79 45.11L31.48 56.67L42.14 59.96ZM31.48 56.67L28.79 45.11L18.13 41.83L10.16 50.11L12.85 61.67L23.51 64.95ZM58.16 86.37L55.48 74.81L44.82 71.52L36.85 79.79L39.54 91.35L50.19 94.64ZM39.54 91.35L36.85 79.79L26.19 76.51L18.23 84.78L20.91 96.34L31.57 99.62ZM63.46 66.54L60.77 54.97L50.11 51.68L42.14 59.96L44.82 71.52L55.48 74.81ZM124.73 31.75L122.06 20.18L111.38 16.88L103.39 25.16L106.06 36.73L116.74 40.03ZM106.06 36.73L103.39 25.16L92.71 21.86L84.72 30.14L87.41 41.71L98.07 45.01ZM130.05 11.90L127.38 0.31L116.70 -2.99L108.70 5.30L111.38 16.88L122.06 20.18ZM111.38 16.88L108.70 5.30L98.03 2.00L90.03 10.28L92.71 21.86L103.39 25.16ZM138.08 46.63L135.41 35.06L124.73 31.75L116.74 40.03L119.41 51.60L130.08 54.91ZM119.41 51.60L116.74 40.03L106.06 36.73L98.07 45.01L100.75 56.58L111.42 59.88ZM143.41 26.78L140.73 15.20L130.05 11.90L122.06 20.18L124.73 31.75L135.41 35.06ZM7.57 81.50L4.88 69.94L-5.77 66.66L-13.73 74.94L-11.04 86.49L-0.39 89.77ZM12.85 61.67L10.16 50.11L-0.50 46.83L-8.46 55.11L-5.77 66.66L4.88 69.94Z"/></svg>
