<svg xmlns="http://www.w3.org/2000/svg" width="256" height="256" viewBox="0 0 256 256"><path data-band="3" fill="#dc2626" fill-opacity="0.35" d="M130.23 13.55L127.56 2.01L116.92 -1.30L108.95 6.93L111.62 18.48L122.26 21.78ZM111.62 18.48L108.95 6.93L98.32 3.63L90.35 11.87L93.03 23.40L103.66 26.71ZM135.53 -6.23L132.86 -17.78L122.22 -21.08L114.25 -12.84L116.92 -1.30L127.56 2.01ZM116.92 -1.30L114.25 -12.84L103.61 -16.15L95.65 -7.91L98.32 3.63L108.95 6.93ZM143.53 28.40L140.86 16.86L130.23 13.55L122.26 21.78L124.92 33.32L135.56 36.63ZM124.92 33.32L122.26 21.78L111.62 18.48L103.66 26.71L106.33 38.24L116.96 41.55ZM148.84 8.63L146.17 -2.92L135.53 -6.23L127.56 2.01L130.23 13.55L140.86 16.86ZM79.72 8.57L77.05 -2.97L66.41 -6.27L58.46 1.97L61.13 13.50L71.76 16.80ZM61.13 13.50L58.46 1.97L47.83 -1.33L39.88 6.91L42.55 18.45L53.18 21.74ZM66.41 -6.27L63.74 -17.81L53.10 -21.10L45.15 -12.86L47.83 -1.33L58.46 1.97ZM93.03 23.40L90.35 11.87L79.72 8.57L71.76 16.80L74.44 28.34L85.07 31.64ZM74.44 28.34L71.76 16.80L61.13 13.50L53.18 21.74L55.86 33.27L66.48 36.57ZM98.32 3.63L95.65 -7.91L85.01 -11.21L77.05 -2.97L79.72 8.57L90.35 11.87ZM151.52 63.02L148.85 51.48L138.22 48.17L130.25 56.40L132.92 67.93L143.55 71.25ZM132.92 67.93L130.25 56.40L119.62 53.09L111.66 61.31L114.33 72.85L124.95 76.16ZM156.83 43.26L154.16 31.72L143.53 28.40L135.56 36.63L138.22 48.17L148.85 51.48ZM138.22 48.17L135.56 36.63L124.92 33.32L116.96 41.55L119.62 53.09L130.25 56.40ZM164.81 77.88L162.15 66.34L151.52 63.02L143.55 71.25L146.21 82.78L156.84 86.10ZM146.21 82.78L143.55 71.25L132.92 67.93L124.95 76.16L127.62 87.69L138.24 91.00ZM170.12 58.12L167.46 46.57L156.83 43.26L148.85 51.48L151.52 63.02L162.15 66.34ZM101.03 58.01L98.37 46.47L87.74 43.17L79.78 51.40L82.45 62.93L93.08 66.23ZM82.45 62.93L79.78 51.40L69.16 48.10L61.21 56.33L63.88 67.86L74.50 71.16ZM106.33 38.24L103.66 26.71L93.03 23.40L85.07 31.64L87.74 43.17L98.37 46.47ZM87.74 43.17L85.07 31.64L74.44 28.34L66.48 36.57L69.16 48.10L79.78 51.40ZM114.33 72.85L111.66 61.31L101.03 58.01L93.08 66.23L95.75 77.76L106.37 81.07ZM95.75 77.76L93.08 66.23L82.45 62.93L74.50 71.16L77.17 82.68L87.79 85.99ZM119.62 53.09L116.96 41.55L106.33 38.24L98.37 46.47L101.03 58.01L111.66 61.31ZM180.76 18.57L178.10 7.03L167.46 3.71L159.48 11.94L162.14 23.49L172.78 26.80ZM162.14 23.49L159.48 11.94L148.84 8.63L140.86 16.86L143.53 28.40L154.16 31.72ZM186.08 -1.21L183.42 -12.76L172.78 -16.08L164.79 -7.84L167.46 3.71L178.10 7.03ZM167.46 3.71L164.79 -7.84L154.15 -11.15L146.17 -2.92L148.84 8.63L159.48 11.94ZM194.06 33.44L191.40 21.89L180.76 18.57L172.78 26.80L175.44 38.35L186.08 41.67ZM175.44 38.35L172.78 26.80L162.14 23.49L154.16 31.72L156.83 43.26L167.46 46.57ZM199.39 13.67L196.73 2.11L186.08 -1.21L178.10 7.03L180.76 18.57L191.40 21.89ZM0.16 48.10L-2.52 36.57L-13.14 33.29L-21.07 41.53L-18.39 53.05L-7.77 56.33ZM5.42 28.34L2.74 16.81L-7.89 13.53L-15.82 21.77L-13.14 33.29L-2.52 36.57ZM13.46 62.91L10.78 51.38L0.16 48.10L-7.77 56.33L-5.09 67.85L5.52 71.14ZM18.72 43.15L16.04 31.63L5.42 28.34L-2.52 36.57L0.16 48.10L10.78 51.38ZM29.25 3.62L26.57 -7.91L15.94 -11.20L7.99 -2.96L10.68 8.57L21.30 11.86ZM10.68 8.57L7.99 -2.96L-2.63 -6.24L-10.57 2.00L-7.89 13.53L2.74 16.81ZM42.55 18.45L39.88 6.91L29.25 3.62L21.30 11.86L23.98 23.39L34.61 26.68ZM23.98 23.39L21.30 11.86L10.68 8.57L2.74 16.81L5.42 28.34L16.04 31.63ZM47.83 -1.33L45.15 -12.86L34.52 -16.15L26.57 -7.91L29.25 3.62L39.88 6.91ZM21.49 97.46L18.82 85.94L8.20 82.65L0.27 90.88L2.95 102.39L13.56 105.68ZM2.95 102.39L0.27 90.88L-10.34 87.59L-18.27 95.82L-15.58 107.33L-4.98 110.62ZM26.75 77.72L24.08 66.20L13.46 62.91L5.52 71.14L8.20 82.65L18.82 85.94ZM8.20 82.65L5.52 71.14L-5.09 67.85L-13.02 76.08L-10.34 87.59L0.27 90.88ZM34.78 112.27L32.11 100.76L21.49 97.46L13.56 105.68L16.24 117.20L26.85 120.49ZM16.24 117.20L13.56 105.68L2.95 102.39L-4.98 110.62L-2.30 122.13L8.31 125.42ZM40.05 92.53L37.37 81.01L26.75 77.72L18.82 85.94L21.49 97.46L32.11 100.76ZM50.58 53.03L47.91 41.50L37.28 38.21L29.34 46.44L32.02 57.97L42.64 61.26ZM32.02 57.97L29.34 46.44L18.72 43.15L10.78 51.38L13.46 62.91L24.08 66.20ZM55.86 33.27L53.18 21.74L42.55 18.45L34.61 26.68L37.28 38.21L47.91 41.50ZM37.28 38.21L34.61 26.68L23.98 23.39L16.04 31.63L18.72 43.15L29.34 46.44ZM63.88 67.86L61.21 56.33L50.58 53.03L42.64 61.26L45.31 72.79L55.93 76.08ZM45.31 72.79L42.64 61.26L32.02 57.97L24.08 66.20L26.75 77.72L37.37 81.01ZM69.16 48.10L66.48 36.57L55.86 33.27L47.91 41.50L50.58 53.03L61.21 56.33ZM223.27 117.57L220.62 106.03L209.99 102.70L202.01 110.91L204.66 122.45L215.29 125.78ZM204.66 122.45L202.01 110.91L191.38 107.59L183.41 115.80L186.06 127.34L196.69 130.66ZM228.60 97.82L225.95 86.28L215.32 82.95L207.34 91.16L209.99 102.70L220.62 106.03ZM209.99 102.70L207.34 91.16L196.70 87.84L188.73 96.05L191.38 107.59L202.01 110.91ZM236.55 132.44L233.90 120.90L223.27 117.57L215.29 125.78L217.94 137.31L228.57 140.64ZM217.94 137.31L215.29 125.78L204.66 122.45L196.69 130.66L199.34 142.19L209.97 145.52ZM241.89 112.69L239.24 101.15L228.60 97.82L220.62 106.03L223.27 117.57L233.90 120.90ZM172.78 112.48L170.12 100.95L159.50 97.63L151.53 105.85L154.19 117.38L164.81 120.69ZM154.19 117.38L151.53 105.85L140.91 102.53L132.94 110.75L135.61 122.27L146.23 125.59ZM178.10 92.73L175.44 81.20L164.81 77.88L156.84 86.10L159.50 97.63L170.12 100.95ZM159.50 97.63L156.84 86.10L146.21 82.78L138.24 91.00L140.91 102.53L151.53 105.85ZM186.06 127.34L183.41 115.80L172.78 112.48L164.81 120.69L167.47 132.22L178.09 135.55ZM167.47 132.22L164.81 120.69L154.19 117.38L146.23 125.59L148.89 137.12L159.51 140.43ZM191.38 107.59L188.73 96.05L178.10 92.73L170.12 100.95L172.78 112.48L183.41 115.80ZM252.57 73.18L249.92 61.63L239.28 58.29L231.29 66.51L233.94 78.06L244.58 81.39ZM233.94 78.06L231.29 66.51L220.65 63.19L212.66 71.40L215.32 82.95L225.95 86.28ZM257.92 53.41L255.27 41.85L244.62 38.52L236.63 46.74L239.28 58.29L249.92 61.63ZM239.28 58.29L236.63 46.74L225.99 43.42L218.00 51.64L220.65 63.19L231.29 66.51ZM265.86 88.06L263.21 76.51L252.57 73.18L244.58 81.39L247.23 92.94L257.87 96.27ZM247.23 92.94L244.58 81.39L233.94 78.06L225.95 86.28L228.60 97.82L239.24 101.15ZM271.21 68.30L268.56 56.74L257.92 53.41L249.92 61.63L252.57 73.18L263.21 76.51ZM202.03 68.08L199.37 56.53L188.73 53.21L180.76 61.44L183.41 72.98L194.05 76.30ZM183.41 72.98L180.76 61.44L170.12 58.12L162.15 66.34L164.81 77.88L175.44 81.20ZM207.36 48.31L204.70 36.77L194.06 33.44L186.08 41.67L188.73 53.21L199.37 56.53ZM188.73 53.21L186.08 41.67L175.44 38.35L167.46 46.57L170.12 58.12L180.76 61.44ZM215.32 82.95L212.66 71.40L202.03 68.08L194.05 76.30L196.70 87.84L207.34 91.16ZM196.70 87.84L194.05 76.30L183.41 72.98L175.44 81.20L178.10 92.73L188.73 96.05ZM220.65 63.19L218.00 51.64L207.36 48.31L199.37 56.53L202.03 68.08L212.66 71.40ZM244.49 167.05L241.85 155.51L231.22 152.18L223.24 160.38L225.89 171.91L236.51 175.24ZM225.89 171.91L223.24 160.38L212.62 157.05L204.65 165.25L207.30 176.78L217.92 180.11ZM249.83 147.31L247.18 135.77L236.55 132.44L228.57 140.64L231.22 152.18L241.85 155.51ZM231.22 152.18L228.57 140.64L217.94 137.31L209.97 145.52L212.62 157.05L223.24 160.38ZM257.76 181.92L255.12 170.38L244.49 167.05L236.51 175.24L239.16 186.78L249.78 190.11ZM239.16 186.78L236.51 175.24L225.89 171.91L217.92 180.11L220.56 191.64L231.18 194.97ZM263.10 162.18L260.46 150.65L249.83 147.31L241.85 155.51L244.49 167.05L255.12 170.38ZM194.02 161.93L191.37 150.40L180.75 147.07L172.78 155.28L175.44 166.81L186.06 170.13ZM175.44 166.81L172.78 155.28L162.16 151.96L154.20 160.17L156.86 171.69L167.48 175.01ZM199.34 142.19L196.69 130.66L186.06 127.34L178.09 135.55L180.75 147.07L191.37 150.40ZM180.75 147.07L178.09 135.55L167.47 132.22L159.51 140.43L162.16 151.96L172.78 155.28ZM207.30 176.78L204.65 165.25L194.02 161.93L186.06 170.13L188.71 181.65L199.33 184.98ZM188.71 181.65L186.06 170.13L175.44 166.81L167.48 175.01L170.13 186.53L180.75 189.85ZM212.62 157.05L209.97 145.52L199.34 142.19L191.37 150.40L194.02 161.93L204.65 165.25ZM273.79 122.70L271.15 111.15L260.51 107.82L252.52 116.02L255.17 127.57L265.80 130.90ZM255.17 127.57L252.52 116.02L241.89 112.69L233.90 120.90L236.55 132.44L247.18 135.77ZM260.51 107.82L257.87 96.27L247.23 92.94L239.24 101.15L241.89 112.69L252.52 116.02ZM268.45 142.44L265.80 130.90L255.17 127.57L247.18 135.77L249.83 147.31L260.46 150.65ZM93.18 151.81L90.51 140.29L79.90 136.99L71.96 145.20L74.63 156.72L85.24 160.02ZM74.63 156.72L71.96 145.20L61.35 141.90L53.41 150.11L56.08 161.62L66.69 164.93ZM98.46 132.08L95.80 120.56L85.18 117.25L77.23 125.47L79.90 136.99L90.51 140.29ZM79.90 136.99L77.23 125.47L66.62 122.17L58.68 130.38L61.35 141.90L71.96 145.20ZM106.46 166.64L103.79 155.12L93.18 151.81L85.24 160.02L87.90 171.53L98.51 174.84ZM87.90 171.53L85.24 160.02L74.63 156.72L66.69 164.93L69.36 176.44L79.96 179.74ZM111.74 146.91L109.08 135.39L98.46 132.08L90.51 140.29L93.18 151.81L103.79 155.12ZM42.80 146.81L40.13 135.30L29.52 132.00L21.59 140.22L24.27 151.73L34.87 155.03ZM24.27 151.73L21.59 140.22L10.99 136.93L3.06 145.14L5.74 156.65L16.34 159.94ZM48.07 127.08L45.39 115.57L34.78 112.27L26.85 120.49L29.52 132.00L40.13 135.30ZM29.52 132.00L26.85 120.49L16.24 117.20L8.31 125.42L10.99 136.93L21.59 140.22ZM56.08 161.62L53.41 150.11L42.80 146.81L34.87 155.03L37.54 166.53L48.15 169.83ZM37.54 166.53L34.87 155.03L24.27 151.73L16.34 159.94L19.01 171.45L29.61 174.74ZM61.35 141.90L58.68 130.38L48.07 127.08L40.13 135.30L42.80 146.81L53.41 150.11ZM122.32 107.43L119.66 95.91L109.04 92.60L101.08 100.82L103.75 112.34L114.37 115.65ZM103.75 112.34L101.08 100.82L90.46 97.51L82.51 105.73L85.18 117.25L95.80 120.56ZM127.62 87.69L124.95 76.16L114.33 72.85L106.37 81.07L109.04 92.60L119.66 95.91ZM109.04 92.60L106.37 81.07L95.75 77.76L87.79 85.99L90.46 97.51L101.08 100.82ZM135.61 122.27L132.94 110.75L122.32 107.43L114.37 115.65L117.03 127.18L127.65 130.49ZM117.03 127.18L114.37 115.65L103.75 112.34L95.80 120.56L98.46 132.08L109.08 135.39ZM140.91 102.53L138.24 91.00L127.62 87.69L119.66 95.91L122.32 107.43L132.94 110.75ZM71.89 102.43L69.22 90.91L58.60 87.61L50.66 95.83L53.33 107.35L63.95 110.65ZM53.33 107.35L50.66 95.83L40.05 92.53L32.11 100.76L34.78 112.27L45.39 115.57ZM77.17 82.68L74.50 71.16L63.88 67.86L55.93 76.08L58.60 87.61L69.22 90.91ZM58.60 87.61L55.93 76.08L45.31 72.79L37.37 81.01L40.05 92.53L50.66 95.83ZM85.18 117.25L82.51 105.73L71.89 102.43L63.95 110.65L66.62 122.17L77.23 125.47ZM66.62 122.17L63.95 110.65L53.33 107.35L45.39 115.57L48.07 127.08L58.68 130.38ZM90.46 97.51L87.79 85.99L77.17 82.68L69.22 90.91L71.89 102.43L82.51 105.73ZM114.44 201.18L111.78 189.67L101.17 186.36L93.23 194.56L95.89 206.07L106.50 209.38ZM95.89 206.07L93.23 194.56L82.63 191.25L74.69 199.45L77.36 210.96L87.96 214.27ZM119.73 181.46L117.07 169.95L106.46 166.64L98.51 174.84L101.17 186.36L111.78 189.67ZM101.17 186.36L98.51 174.84L87.90 171.53L79.96 179.74L82.63 191.25L93.23 194.56ZM127.71 216.01L125.05 204.49L114.44 201.18L106.50 209.38L109.16 220.89L119.76 224.20ZM109.16 220.89L106.50 209.38L95.89 206.07L87.96 214.27L90.62 225.77L101.22 229.08ZM133.00 196.29L130.34 184.78L119.73 181.46L111.78 189.67L114.44 201.18L125.05 204.49ZM64.09 196.15L61.42 184.64L50.82 181.34L42.89 189.55L45.56 201.05L56.16 204.35ZM45.56 201.05L42.89 189.55L32.29 186.25L24.36 194.46L27.03 205.96L37.63 209.26ZM69.36 176.44L66.69 164.93L56.08 161.62L48.15 169.83L50.82 181.34L61.42 184.64ZM50.82 181.34L48.15 169.83L37.54 166.53L29.61 174.74L32.29 186.25L42.89 189.55ZM77.36 210.96L74.69 199.45L64.09 196.15L56.16 204.35L58.82 215.86L69.42 219.16ZM58.82 215.86L56.16 204.35L45.56 201.05L37.63 209.26L40.30 220.76L50.90 224.06ZM82.63 191.25L79.96 179.74L69.36 176.44L61.42 184.64L64.09 196.15L74.69 199.45ZM143.59 156.85L140.93 145.33L130.31 142.01L122.36 150.22L125.02 161.74L135.63 165.05ZM125.02 161.74L122.36 150.22L111.74 146.91L103.79 155.12L106.46 166.64L117.07 169.95ZM148.89 137.12L146.23 125.59L135.61 122.27L127.65 130.49L130.31 142.01L140.93 145.33ZM130.31 142.01L127.65 130.49L117.03 127.18L109.08 135.39L111.74 146.91L122.36 150.22ZM156.86 171.69L154.20 160.17L143.59 156.85L135.63 165.05L138.29 176.57L148.90 179.89ZM138.29 176.57L135.63 165.05L125.02 161.74L117.07 169.95L119.73 181.46L130.34 184.78ZM162.16 151.96L159.51 140.43L148.89 137.12L140.93 145.33L143.59 156.85L154.20 160.17ZM273.98 -5.94L271.33 -17.50L260.67 -20.83L252.67 -12.60L255.32 -1.04L265.97 2.29ZM255.32 -1.04L252.67 -12.60L242.01 -15.93L234.01 -7.70L236.67 3.86L247.32 7.19ZM204.72 -6.12L202.06 -17.67L191.41 -20.99L183.42 -12.76L186.08 -1.21L196.73 2.11ZM263.27 33.63L260.62 22.08L249.97 18.74L241.97 26.97L244.62 38.52L255.27 41.85ZM268.62 13.85L265.97 2.29L255.32 -1.04L247.32 7.19L249.97 18.74L260.62 22.08ZM276.56 48.52L273.92 36.97L263.27 33.63L255.27 41.85L257.92 53.41L268.56 56.74ZM231.32 23.64L228.67 12.09L218.02 8.76L210.03 16.99L212.69 28.54L223.33 31.87ZM212.69 28.54L210.03 16.99L199.39 13.67L191.40 21.89L194.06 33.44L204.70 36.77ZM236.67 3.86L234.01 -7.70L223.36 -11.03L215.37 -2.80L218.02 8.76L228.67 12.09ZM218.02 8.76L215.37 -2.80L204.72 -6.12L196.73 2.11L199.39 13.67L210.03 16.99ZM244.62 38.52L241.97 26.97L231.32 23.64L223.33 31.87L225.99 43.42L236.63 46.74ZM225.99 43.42L223.33 31.87L212.69 28.54L204.70 36.77L207.36 48.31L218.00 51.64ZM249.97 18.74L247.32 7.19L236.67 3.86L228.67 12.09L231.32 23.64L241.97 26.97ZM265.69 216.51L263.05 204.98L252.43 201.64L244.45 209.83L247.09 221.36L257.71 224.70ZM247.09 221.36L244.45 209.83L233.83 206.50L225.86 214.69L228.50 226.21L239.12 229.55ZM271.03 196.79L268.39 185.25L257.76 181.92L249.78 190.11L252.43 201.64L263.05 204.98ZM252.43 201.64L249.78 190.11L239.16 186.78L231.18 194.97L233.83 206.50L244.45 209.83ZM260.35 236.22L257.71 224.70L247.09 221.36L239.12 229.55L241.76 241.07L252.38 244.41ZM276.37 177.06L273.73 165.52L263.10 162.18L255.12 170.38L257.76 181.92L268.39 185.25ZM268.27 270.79L265.63 259.27L255.02 255.93L247.05 264.11L249.69 275.63L260.30 278.97ZM273.61 251.09L270.97 239.56L260.35 236.22L252.38 244.41L255.02 255.93L265.63 259.27ZM186.04 255.63L183.39 244.12L172.79 240.80L164.83 248.99L167.49 260.50L178.09 263.82ZM167.49 260.50L164.83 248.99L154.23 245.66L146.28 253.85L148.94 265.36L159.54 268.68ZM191.35 235.93L188.70 224.41L178.09 221.09L170.13 229.28L172.79 240.80L183.39 244.12ZM172.79 240.80L170.13 229.28L159.53 225.96L151.58 234.15L154.23 245.66L164.83 248.99ZM199.30 270.48L196.65 258.96L186.04 255.63L178.09 263.82L180.74 275.33L191.34 278.66ZM204.61 250.78L201.96 239.26L191.35 235.93L183.39 244.12L186.04 255.63L196.65 258.96ZM135.68 250.53L133.02 239.03L122.42 235.71L114.48 243.90L117.14 255.41L127.74 258.72ZM117.14 255.41L114.48 243.90L103.88 240.59L95.94 248.78L98.61 260.29L109.20 263.60ZM140.97 230.83L138.31 219.32L127.71 216.01L119.76 224.20L122.42 235.71L133.02 239.03ZM122.42 235.71L119.76 224.20L109.16 220.89L101.22 229.08L103.88 240.59L114.48 243.90ZM148.94 265.36L146.28 253.85L135.68 250.53L127.74 258.72L130.39 270.23L140.99 273.55ZM130.39 270.23L127.74 258.72L117.14 255.41L109.20 263.60L111.86 275.10L122.45 278.41ZM154.23 245.66L151.58 234.15L140.97 230.83L133.02 239.03L135.68 250.53L146.28 253.85ZM215.24 211.36L212.59 199.83L201.98 196.51L194.01 204.70L196.66 216.22L207.28 219.55ZM196.66 216.22L194.01 204.70L183.40 201.38L175.44 209.57L178.09 221.09L188.70 224.41ZM220.56 191.64L217.92 180.11L207.30 176.78L199.33 184.98L201.98 196.51L212.59 199.83ZM201.98 196.51L199.33 184.98L188.71 181.65L180.75 189.85L183.40 201.38L194.01 204.70ZM228.50 226.21L225.86 214.69L215.24 211.36L207.28 219.55L209.92 231.07L220.54 234.40ZM209.92 231.07L207.28 219.55L196.66 216.22L188.70 224.41L191.35 235.93L201.96 239.26ZM233.83 206.50L231.18 194.97L220.56 191.64L212.59 199.83L215.24 211.36L225.86 214.69ZM164.83 206.25L162.17 194.73L151.56 191.41L143.61 199.61L146.26 211.13L156.87 214.44ZM146.26 211.13L143.61 199.61L133.00 196.29L125.05 204.49L127.71 216.01L138.31 219.32ZM170.13 186.53L167.48 175.01L156.86 171.69L148.90 179.89L151.56 191.41L162.17 194.73ZM151.56 191.41L148.90 179.89L138.29 176.57L130.34 184.78L133.00 196.29L143.61 199.61ZM178.09 221.09L175.44 209.57L164.83 206.25L156.87 214.44L159.53 225.96L170.13 229.28ZM159.53 225.96L156.87 214.44L146.26 211.13L138.31 219.32L140.97 230.83L151.58 234.15ZM183.40 201.38L180.75 189.85L170.13 186.53L162.17 194.73L164.83 206.25L175.44 209.57ZM236.44 260.78L233.79 249.26L223.18 245.92L215.22 254.11L217.86 265.62L228.47 268.96ZM217.86 265.62L215.22 254.11L204.61 250.78L196.65 258.96L199.30 270.48L209.90 273.81ZM241.76 241.07L239.12 229.55L228.50 226.21L220.54 234.40L223.18 245.92L233.79 249.26ZM223.18 245.92L220.54 234.40L209.92 231.07L201.96 239.26L204.61 250.78L215.22 254.11ZM255.02 255.93L252.38 244.41L241.76 241.07L233.79 249.26L236.44 260.78L247.05 264.11ZM5.74 156.65L3.06 145.14L-7.54 141.86L-15.46 150.07L-12.78 161.58L-2.19 164.86ZM10.99 136.93L8.31 125.42L-2.30 122.13L-10.22 130.35L-7.54 141.86L3.06 145.14ZM3.28 230.56L0.60 219.07L-9.99 215.78L-17.90 223.98L-15.22 235.47L-4.64 238.76ZM13.76 191.16L11.09 179.66L0.49 176.37L-7.43 184.58L-4.75 196.08L5.84 199.37ZM19.01 171.45L16.34 159.94L5.74 156.65L-2.19 164.86L0.49 176.37L11.09 179.66ZM0.49 176.37L-2.19 164.86L-12.78 161.58L-20.70 169.79L-18.02 181.29L-7.43 184.58ZM27.03 205.96L24.36 194.46L13.76 191.16L5.84 199.37L8.52 210.87L19.11 214.16ZM8.52 210.87L5.84 199.37L-4.75 196.08L-12.67 204.28L-9.99 215.78L0.60 219.07ZM32.29 186.25L29.61 174.74L19.01 171.45L11.09 179.66L13.76 191.16L24.36 194.46ZM61.56 270.05L58.90 258.55L48.31 255.25L40.38 263.44L43.05 274.94L53.64 278.24ZM11.29 265.04L8.62 253.55L-1.96 250.26L-9.87 258.45L-7.20 269.94L3.38 273.23ZM85.35 245.47L82.68 233.97L72.09 230.66L64.16 238.86L66.82 250.36L77.42 253.67ZM66.82 250.36L64.16 238.86L53.56 235.56L45.64 243.75L48.31 255.25L58.90 258.55ZM90.62 225.77L87.96 214.27L77.36 210.96L69.42 219.16L72.09 230.66L82.68 233.97ZM72.09 230.66L69.42 219.16L58.82 215.86L50.90 224.06L53.56 235.56L64.16 238.86ZM98.61 260.29L95.94 248.78L85.35 245.47L77.42 253.67L80.08 265.17L90.67 268.48ZM80.08 265.17L77.42 253.67L66.82 250.36L58.90 258.55L61.56 270.05L72.15 273.36ZM103.88 240.59L101.22 229.08L90.62 225.77L82.68 233.97L85.35 245.47L95.94 248.78ZM35.05 240.45L32.38 228.96L21.78 225.66L13.87 233.86L16.54 245.35L27.13 248.65ZM16.54 245.35L13.87 233.86L3.28 230.56L-4.64 238.76L-1.96 250.26L8.62 253.55ZM40.30 220.76L37.63 209.26L27.03 205.96L19.11 214.16L21.78 225.66L32.38 228.96ZM21.78 225.66L19.11 214.16L8.52 210.87L0.60 219.07L3.28 230.56L13.87 233.86ZM48.31 255.25L45.64 243.75L35.05 240.45L27.13 248.65L29.80 260.14L40.38 263.44ZM29.80 260.14L27.13 248.65L16.54 245.35L8.62 253.55L11.29 265.04L21.88 268.34ZM53.56 235.56L50.90 224.06L40.30 220.76L32.38 228.96L35.05 240.45L45.64 243.75Z"/></svg>
