<svg xmlns="http://www.w3.org/2000/svg" width="256" height="256" viewBox="0 0 256 256"><path data-band="3" fill="#dc2626" fill-opacity="0.35" d="M117.36 255.14L114.71 243.68L104.15 240.36L96.24 248.50L98.89 259.97L109.45 263.29ZM98.89 259.97L96.24 248.50L85.68 245.19L77.78 253.33L80.44 264.79L90.99 268.11ZM130.56 269.93L127.92 258.47L117.36 255.14L109.45 263.29L112.10 274.75L122.65 278.07ZM61.99 269.62L59.33 258.17L48.78 254.85L40.89 263.00L43.55 274.46L54.09 277.77ZM67.23 250.02L64.57 238.56L54.02 235.25L46.12 243.40L48.78 254.85L59.33 258.17ZM48.78 254.85L46.12 243.40L35.57 240.09L27.68 248.24L30.34 259.69L40.89 263.00ZM80.44 264.79L77.78 253.33L67.23 250.02L59.33 258.17L61.99 269.62L72.54 272.94ZM141.10 230.71L138.45 219.23L127.89 215.91L119.97 224.06L122.62 235.53L133.18 238.85ZM122.62 235.53L119.97 224.06L109.41 220.74L101.50 228.89L104.15 240.36L114.71 243.68ZM146.37 211.08L143.73 199.61L133.16 196.28L125.24 204.44L127.89 215.91L138.45 219.23ZM127.89 215.91L125.24 204.44L114.67 201.12L106.76 209.27L109.41 220.74L119.97 224.06ZM154.31 245.51L151.66 234.03L141.10 230.71L133.18 238.85L135.83 250.32L146.39 253.65ZM135.83 250.32L133.18 238.85L122.62 235.53L114.71 243.68L117.36 255.14L127.92 258.47ZM159.59 225.89L156.94 214.41L146.37 211.08L138.45 219.23L141.10 230.71L151.66 234.03ZM90.94 225.57L88.28 214.10L77.72 210.79L69.82 218.94L72.47 230.41L83.03 233.72ZM72.47 230.41L69.82 218.94L59.26 215.63L51.36 223.78L54.02 235.25L64.57 238.56ZM96.19 205.95L93.54 194.48L82.97 191.16L75.07 199.32L77.72 210.79L88.28 214.10ZM77.72 210.79L75.07 199.32L64.50 196.01L56.60 204.17L59.26 215.63L69.82 218.94ZM104.15 240.36L101.50 228.89L90.94 225.57L83.03 233.72L85.68 245.19L96.24 248.50ZM85.68 245.19L83.03 233.72L72.47 230.41L64.57 238.56L67.23 250.02L77.78 253.33ZM109.41 220.74L106.76 209.27L96.19 205.95L88.28 214.10L90.94 225.57L101.50 228.89ZM167.52 260.31L164.87 248.84L154.31 245.51L146.39 253.65L149.03 265.12L159.60 268.45ZM149.03 265.12L146.39 253.65L135.83 250.32L127.92 258.47L130.56 269.93L141.12 273.26ZM11.91 264.54L9.25 253.08L-1.30 249.78L-9.18 257.93L-6.52 269.38L4.03 272.68ZM17.13 244.93L14.47 233.48L3.92 230.18L-3.97 238.33L-1.30 249.78L9.25 253.08ZM30.34 259.69L27.68 248.24L17.13 244.93L9.25 253.08L11.91 264.54L22.45 267.84ZM260.19 108.38L257.56 96.88L246.96 93.54L239.00 101.70L241.64 113.21L252.23 116.55ZM265.52 88.71L262.88 77.20L252.28 73.86L244.32 82.03L246.96 93.54L257.56 96.88ZM273.42 123.23L270.79 111.73L260.19 108.38L252.23 116.55L254.87 128.05L265.46 131.39ZM228.40 98.36L225.76 86.86L215.17 83.52L207.22 91.69L209.86 103.20L220.45 106.53ZM209.86 103.20L207.22 91.69L196.62 88.36L188.68 96.53L191.32 108.03L201.91 111.36ZM233.72 78.69L231.08 67.18L220.48 63.85L212.52 72.02L215.17 83.52L225.76 86.86ZM215.17 83.52L212.52 72.02L201.93 68.69L193.98 76.86L196.62 88.36L207.22 91.69ZM241.64 113.21L239.00 101.70L228.40 98.36L220.45 106.53L223.09 118.03L233.68 121.37ZM223.09 118.03L220.45 106.53L209.86 103.20L201.91 111.36L204.55 122.86L215.14 126.19ZM246.96 93.54L244.32 82.03L233.72 78.69L225.76 86.86L228.40 98.36L239.00 101.70ZM257.61 54.18L254.97 42.66L244.36 39.32L236.40 47.50L239.04 59.01L249.64 62.35ZM239.04 59.01L236.40 47.50L225.80 44.16L217.84 52.34L220.48 63.85L231.08 67.18ZM262.94 34.49L260.30 22.97L249.69 19.63L241.72 27.81L244.36 39.32L254.97 42.66ZM244.36 39.32L241.72 27.81L231.11 24.47L223.15 32.65L225.80 44.16L236.40 47.50ZM270.85 69.03L268.21 57.52L257.61 54.18L249.64 62.35L252.28 73.86L262.88 77.20ZM252.28 73.86L249.64 62.35L239.04 59.01L231.08 67.18L233.72 78.69L244.32 82.03ZM276.18 49.35L273.55 37.83L262.94 34.49L254.97 42.66L257.61 54.18L268.21 57.52ZM249.55 147.71L246.91 136.21L236.32 132.87L228.37 141.03L231.01 152.52L241.60 155.86ZM231.01 152.52L228.37 141.03L217.78 137.69L209.84 145.85L212.48 157.34L223.06 160.68ZM254.87 128.05L252.23 116.55L241.64 113.21L233.68 121.37L236.32 132.87L246.91 136.21ZM236.32 132.87L233.68 121.37L223.09 118.03L215.14 126.19L217.78 137.69L228.37 141.03ZM262.77 162.55L260.14 151.05L249.55 147.71L241.60 155.86L244.23 167.36L254.82 170.70ZM244.23 167.36L241.60 155.86L231.01 152.52L223.06 160.68L225.70 172.17L236.28 175.51ZM268.10 142.90L265.46 131.39L254.87 128.05L246.91 136.21L249.55 147.71L260.14 151.05ZM148.99 137.36L146.34 125.87L135.75 122.55L127.83 130.72L130.48 142.20L141.06 145.52ZM130.48 142.20L127.83 130.72L117.25 127.40L109.33 135.56L111.98 147.05L122.55 150.37ZM154.27 117.71L151.62 106.21L141.03 102.89L133.10 111.06L135.75 122.55L146.34 125.87ZM135.75 122.55L133.10 111.06L122.52 107.74L114.59 115.91L117.25 127.40L127.83 130.72ZM162.21 152.17L159.57 140.69L148.99 137.36L141.06 145.52L143.71 157.01L154.28 160.33ZM143.71 157.01L141.06 145.52L130.48 142.20L122.55 150.37L125.21 161.85L135.78 165.17ZM167.50 132.52L164.85 121.03L154.27 117.71L146.34 125.87L148.99 137.36L159.57 140.69ZM98.75 132.25L96.09 120.76L85.52 117.45L77.60 125.62L80.26 137.10L90.83 140.41ZM80.26 137.10L77.60 125.62L67.03 122.31L59.11 130.48L61.78 141.96L72.35 145.27ZM104.01 112.60L101.36 101.11L90.78 97.79L82.86 105.97L85.52 117.45L96.09 120.76ZM85.52 117.45L82.86 105.97L72.28 102.66L64.37 110.83L67.03 122.31L77.60 125.62ZM111.98 147.05L109.33 135.56L98.75 132.25L90.83 140.41L93.49 151.89L104.06 155.21ZM93.49 151.89L90.83 140.41L80.26 137.10L72.35 145.27L75.00 156.74L85.57 160.06ZM117.25 127.40L114.59 115.91L104.01 112.60L96.09 120.76L98.75 132.25L109.33 135.56ZM178.09 93.20L175.44 81.70L164.85 78.38L156.91 86.55L159.56 98.05L170.14 101.37ZM159.56 98.05L156.91 86.55L146.32 83.23L138.38 91.40L141.03 102.89L151.62 106.21ZM183.38 73.53L180.74 62.03L170.14 58.70L162.20 66.88L164.85 78.38L175.44 81.70ZM164.85 78.38L162.20 66.88L151.60 63.55L143.67 71.73L146.32 83.23L156.91 86.55ZM191.32 108.03L188.68 96.53L178.09 93.20L170.14 101.37L172.79 112.87L183.38 116.20ZM172.79 112.87L170.14 101.37L159.56 98.05L151.62 106.21L154.27 117.71L164.85 121.03ZM196.62 88.36L193.98 76.86L183.38 73.53L175.44 81.70L178.09 93.20L188.68 96.53ZM127.80 88.08L125.14 76.59L114.56 73.27L106.63 81.45L109.28 92.94L119.87 96.25ZM109.28 92.94L106.63 81.45L96.04 78.13L88.12 86.31L90.78 97.79L101.36 101.11ZM133.08 68.41L130.42 56.91L119.83 53.60L111.90 61.78L114.56 73.27L125.14 76.59ZM114.56 73.27L111.90 61.78L101.31 58.46L93.39 66.64L96.04 78.13L106.63 81.45ZM141.03 102.89L138.38 91.40L127.80 88.08L119.87 96.25L122.52 107.74L133.10 111.06ZM122.52 107.74L119.87 96.25L109.28 92.94L101.36 101.11L104.01 112.60L114.59 115.91ZM146.32 83.23L143.67 71.73L133.08 68.41L125.14 76.59L127.80 88.08L138.38 91.40ZM170.15 186.63L167.51 175.15L156.93 171.82L149.00 179.97L151.65 191.45L162.22 194.78ZM151.65 191.45L149.00 179.97L138.43 176.65L130.51 184.81L133.16 196.28L143.73 199.61ZM175.44 166.99L172.79 155.50L162.21 152.17L154.28 160.33L156.93 171.82L167.51 175.15ZM156.93 171.82L154.28 160.33L143.71 157.01L135.78 165.17L138.43 176.65L149.00 179.97ZM183.37 201.44L180.73 189.96L170.15 186.63L162.22 194.78L164.87 206.26L175.44 209.59ZM164.87 206.26L162.22 194.78L151.65 191.45L143.73 199.61L146.37 211.08L156.94 214.41ZM188.66 181.81L186.02 170.32L175.44 166.99L167.51 175.15L170.15 186.63L180.73 189.96ZM119.94 181.48L117.28 170.01L106.71 166.69L98.80 174.85L101.45 186.32L112.02 189.64ZM101.45 186.32L98.80 174.85L88.23 171.53L80.32 179.69L82.97 191.16L93.54 194.48ZM125.21 161.85L122.55 150.37L111.98 147.05L104.06 155.21L106.71 166.69L117.28 170.01ZM106.71 166.69L104.06 155.21L93.49 151.89L85.57 160.06L88.23 171.53L98.80 174.85ZM133.16 196.28L130.51 184.81L119.94 181.48L112.02 189.64L114.67 201.12L125.24 204.44ZM114.67 201.12L112.02 189.64L101.45 186.32L93.54 194.48L96.19 205.95L106.76 209.27ZM138.43 176.65L135.78 165.17L125.21 161.85L117.28 170.01L119.94 181.48L130.51 184.81ZM199.25 142.51L196.61 131.02L186.02 127.69L178.08 135.85L180.73 147.34L191.31 150.67ZM180.73 147.34L178.08 135.85L167.50 132.52L159.57 140.69L162.21 152.17L172.79 155.50ZM204.55 122.86L201.91 111.36L191.32 108.03L183.38 116.20L186.02 127.69L196.61 131.02ZM186.02 127.69L183.38 116.20L172.79 112.87L164.85 121.03L167.50 132.52L178.08 135.85ZM212.48 157.34L209.84 145.85L199.25 142.51L191.31 150.67L193.95 162.16L204.54 165.50ZM193.95 162.16L191.31 150.67L180.73 147.34L172.79 155.50L175.44 166.99L186.02 170.32ZM217.78 137.69L215.14 126.19L204.55 122.86L196.61 131.02L199.25 142.51L209.84 145.85ZM268.27 14.79L265.63 3.27L255.02 -0.07L247.05 8.11L249.69 19.63L260.30 22.97ZM273.61 -4.91L270.97 -16.44L260.35 -19.78L252.38 -11.59L255.02 -0.07L265.63 3.27ZM186.04 -0.37L183.39 -11.88L172.79 -15.20L164.83 -7.01L167.49 4.50L178.09 7.82ZM167.49 4.50L164.83 -7.01L154.23 -10.34L146.28 -2.15L148.94 9.36L159.54 12.68ZM199.30 14.48L196.65 2.96L186.04 -0.37L178.09 7.82L180.74 19.33L191.34 22.66ZM180.74 19.33L178.09 7.82L167.49 4.50L159.54 12.68L162.19 24.19L172.79 27.51ZM204.61 -5.22L201.96 -16.74L191.35 -20.07L183.39 -11.88L186.04 -0.37L196.65 2.96ZM135.68 -5.47L133.02 -16.97L122.42 -20.29L114.48 -12.10L117.14 -0.59L127.74 2.72ZM117.14 -0.59L114.48 -12.10L103.88 -15.41L95.94 -7.22L98.61 4.29L109.20 7.60ZM148.94 9.36L146.28 -2.15L135.68 -5.47L127.74 2.72L130.39 14.23L140.99 17.55ZM130.39 14.23L127.74 2.72L117.14 -0.59L109.20 7.60L111.86 19.10L122.45 22.41ZM207.24 49.01L204.59 37.50L193.99 34.17L186.04 42.35L188.68 53.85L199.28 57.18ZM188.68 53.85L186.04 42.35L175.44 39.02L167.49 47.20L170.14 58.70L180.74 62.03ZM212.55 29.32L209.90 17.81L199.30 14.48L191.34 22.66L193.99 34.17L204.59 37.50ZM193.99 34.17L191.34 22.66L180.74 19.33L172.79 27.51L175.44 39.02L186.04 42.35ZM220.48 63.85L217.84 52.34L207.24 49.01L199.28 57.18L201.93 68.69L212.52 72.02ZM201.93 68.69L199.28 57.18L188.68 53.85L180.74 62.03L183.38 73.53L193.98 76.86ZM225.80 44.16L223.15 32.65L212.55 29.32L204.59 37.50L207.24 49.01L217.84 52.34ZM156.90 43.88L154.24 32.37L143.65 29.05L135.71 37.23L138.36 48.73L148.95 52.05ZM138.36 48.73L135.71 37.23L125.11 33.92L117.18 42.10L119.83 53.60L130.42 56.91ZM162.19 24.19L159.54 12.68L148.94 9.36L140.99 17.55L143.65 29.05L154.24 32.37ZM143.65 29.05L140.99 17.55L130.39 14.23L122.45 22.41L125.11 33.92L135.71 37.23ZM170.14 58.70L167.49 47.20L156.90 43.88L148.95 52.05L151.60 63.55L162.20 66.88ZM151.60 63.55L148.95 52.05L138.36 48.73L130.42 56.91L133.08 68.41L143.67 71.73ZM175.44 39.02L172.79 27.51L162.19 24.19L154.24 32.37L156.90 43.88L167.49 47.20ZM236.44 4.78L233.79 -6.74L223.18 -10.08L215.22 -1.89L217.86 9.62L228.47 12.96ZM217.86 9.62L215.22 -1.89L204.61 -5.22L196.65 2.96L199.30 14.48L209.90 17.81ZM249.69 19.63L247.05 8.11L236.44 4.78L228.47 12.96L231.11 24.47L241.72 27.81ZM231.11 24.47L228.47 12.96L217.86 9.62L209.90 17.81L212.55 29.32L223.15 32.65ZM255.02 -0.07L252.38 -11.59L241.76 -14.93L233.79 -6.74L236.44 4.78L247.05 8.11ZM241.51 241.10L238.88 229.61L228.30 226.27L220.37 234.41L223.00 245.90L233.57 249.24ZM223.00 245.90L220.37 234.41L209.79 231.08L201.86 239.22L204.50 250.70L215.07 254.03ZM246.82 221.47L244.19 209.98L233.61 206.64L225.67 214.79L228.30 226.27L238.88 229.61ZM228.30 226.27L225.67 214.79L215.09 211.45L207.16 219.59L209.79 231.08L220.37 234.41ZM254.72 255.93L252.09 244.44L241.51 241.10L233.57 249.24L236.21 260.72L246.78 264.06ZM236.21 260.72L233.57 249.24L223.00 245.90L215.07 254.03L217.70 265.51L228.27 268.85ZM260.03 236.30L257.40 224.82L246.82 221.47L238.88 229.61L241.51 241.10L252.09 244.44ZM191.29 235.88L188.65 224.40L178.08 221.07L170.15 229.22L172.80 240.69L183.36 244.03ZM172.80 240.69L170.15 229.22L159.59 225.89L151.66 234.03L154.31 245.51L164.87 248.84ZM196.58 216.26L193.94 204.78L183.37 201.44L175.44 209.59L178.08 221.07L188.65 224.40ZM178.08 221.07L175.44 209.59L164.87 206.26L156.94 214.41L159.59 225.89L170.15 229.22ZM204.50 250.70L201.86 239.22L191.29 235.88L183.36 244.03L186.00 255.50L196.57 258.84ZM186.00 255.50L183.36 244.03L172.80 240.69L164.87 248.84L167.52 260.31L178.08 263.64ZM209.79 231.08L207.16 219.59L196.58 216.26L188.65 224.40L191.29 235.88L201.86 239.22ZM270.67 197.04L268.04 185.54L257.45 182.20L249.50 190.35L252.14 201.84L262.72 205.18ZM252.14 201.84L249.50 190.35L238.92 187.00L230.97 195.15L233.61 206.64L244.19 209.98ZM275.99 177.39L273.36 165.90L262.77 162.55L254.82 170.70L257.45 182.20L268.04 185.54ZM257.45 182.20L254.82 170.70L244.23 167.36L236.28 175.51L238.92 187.00L249.50 190.35ZM265.35 216.67L262.72 205.18L252.14 201.84L244.19 209.98L246.82 221.47L257.40 224.82ZM220.39 191.81L217.76 180.32L207.18 176.99L199.24 185.14L201.88 196.63L212.45 199.96ZM201.88 196.63L199.24 185.14L188.66 181.81L180.73 189.96L183.37 201.44L193.94 204.78ZM225.70 172.17L223.06 160.68L212.48 157.34L204.54 165.50L207.18 176.99L217.76 180.32ZM207.18 176.99L204.54 165.50L193.95 162.16L186.02 170.32L188.66 181.81L199.24 185.14ZM233.61 206.64L230.97 195.15L220.39 191.81L212.45 199.96L215.09 211.45L225.67 214.79ZM215.09 211.45L212.45 199.96L201.88 196.63L193.94 204.78L196.58 216.26L207.16 219.59ZM238.92 187.00L236.28 175.51L225.70 172.17L217.76 180.32L220.39 191.81L230.97 195.15ZM267.92 270.76L265.29 259.27L254.72 255.93L246.78 264.06L249.41 275.54L259.98 278.89ZM217.70 265.51L215.07 254.03L204.50 250.70L196.57 258.84L199.21 270.31L209.77 273.65ZM199.21 270.31L196.57 258.84L186.00 255.50L178.08 263.64L180.72 275.11L191.28 278.45ZM273.24 251.14L270.61 239.65L260.03 236.30L252.09 244.44L254.72 255.93L265.29 259.27ZM19.60 171.32L16.93 159.85L6.37 156.55L-1.52 164.71L1.15 176.18L11.70 179.48ZM1.15 176.18L-1.52 164.71L-12.08 161.42L-19.97 169.58L-17.30 181.05L-6.74 184.34ZM24.83 151.68L22.17 140.21L11.60 136.91L3.70 145.08L6.37 156.55L16.93 159.85ZM6.37 156.55L3.70 145.08L-6.86 141.78L-14.75 149.95L-12.08 161.42L-1.52 164.71ZM32.82 186.08L30.16 174.62L19.60 171.32L11.70 179.48L14.37 190.94L24.93 194.25ZM14.37 190.94L11.70 179.48L1.15 176.18L-6.74 184.34L-4.08 195.80L6.48 199.10ZM38.06 166.45L35.40 154.98L24.83 151.68L16.93 159.85L19.60 171.32L30.16 174.62ZM48.54 127.17L45.88 115.70L35.31 112.39L27.40 120.57L30.07 132.04L40.64 135.34ZM30.07 132.04L27.40 120.57L16.83 117.26L8.93 125.44L11.60 136.91L22.17 140.21ZM53.79 107.52L51.13 96.04L40.55 92.74L32.64 100.91L35.31 112.39L45.88 115.70ZM35.31 112.39L32.64 100.91L22.07 97.61L14.17 105.79L16.83 117.26L27.40 120.57ZM61.78 141.96L59.11 130.48L48.54 127.17L40.64 135.34L43.30 146.82L53.87 150.12ZM43.30 146.82L40.64 135.34L30.07 132.04L22.17 140.21L24.83 151.68L35.40 154.98ZM67.03 122.31L64.37 110.83L53.79 107.52L45.88 115.70L48.54 127.17L59.11 130.48ZM3.60 102.49L0.93 91.02L-9.64 87.72L-17.54 95.90L-14.87 107.37L-4.30 110.67ZM11.60 136.91L8.93 125.44L-1.63 122.14L-9.53 130.31L-6.86 141.78L3.70 145.08ZM16.83 117.26L14.17 105.79L3.60 102.49L-4.30 110.67L-1.63 122.14L8.93 125.44ZM40.80 220.48L38.14 209.01L27.59 205.71L19.70 213.86L22.36 225.32L32.91 228.63ZM22.36 225.32L19.70 213.86L9.14 210.56L1.25 218.72L3.92 230.18L14.47 233.48ZM46.04 200.86L43.38 189.39L32.82 186.08L24.93 194.25L27.59 205.71L38.14 209.01ZM27.59 205.71L24.93 194.25L14.37 190.94L6.48 199.10L9.14 210.56L19.70 213.86ZM54.02 235.25L51.36 223.78L40.80 220.48L32.91 228.63L35.57 240.09L46.12 243.40ZM35.57 240.09L32.91 228.63L22.36 225.32L14.47 233.48L17.13 244.93L27.68 248.24ZM59.26 215.63L56.60 204.17L46.04 200.86L38.14 209.01L40.80 220.48L51.36 223.78ZM3.92 230.18L1.25 218.72L-9.30 215.42L-17.18 223.58L-14.51 235.03L-3.97 238.33ZM9.14 210.56L6.48 199.10L-4.08 195.80L-11.96 203.96L-9.30 215.42L1.25 218.72ZM69.75 176.38L67.09 164.91L56.53 161.60L48.62 169.76L51.28 181.23L61.85 184.54ZM51.28 181.23L48.62 169.76L38.06 166.45L30.16 174.62L32.82 186.08L43.38 189.39ZM75.00 156.74L72.35 145.27L61.78 141.96L53.87 150.12L56.53 161.60L67.09 164.91ZM56.53 161.60L53.87 150.12L43.30 146.82L35.40 154.98L38.06 166.45L48.62 169.76ZM82.97 191.16L80.32 179.69L69.75 176.38L61.85 184.54L64.50 196.01L75.07 199.32ZM64.50 196.01L61.85 184.54L51.28 181.23L43.38 189.39L46.04 200.86L56.60 204.17ZM88.23 171.53L85.57 160.06L75.00 156.74L67.09 164.91L69.75 176.38L80.32 179.69ZM56.30 33.73L53.64 22.24L43.05 18.94L35.13 27.13L37.80 38.62L48.39 41.92ZM37.80 38.62L35.13 27.13L24.55 23.83L16.64 32.02L19.31 43.50L29.89 46.80ZM61.56 14.05L58.90 2.55L48.31 -0.75L40.38 7.44L43.05 18.94L53.64 22.24ZM43.05 18.94L40.38 7.44L29.80 4.14L21.88 12.34L24.55 23.83L35.13 27.13ZM69.55 48.53L66.89 37.04L56.30 33.73L48.39 41.92L51.05 53.41L61.63 56.71ZM51.05 53.41L48.39 41.92L37.80 38.62L29.89 46.80L32.55 58.29L43.13 61.59ZM74.82 28.85L72.15 17.36L61.56 14.05L53.64 22.24L56.30 33.73L66.89 37.04ZM6.06 28.72L3.38 17.23L-7.20 13.94L-15.11 22.13L-12.43 33.62L-1.85 36.91ZM11.29 9.04L8.62 -2.45L-1.96 -5.74L-9.87 2.45L-7.20 13.94L3.38 17.23ZM19.31 43.50L16.64 32.02L6.06 28.72L-1.85 36.91L0.82 48.39L11.40 51.69ZM0.82 48.39L-1.85 36.91L-12.43 33.62L-20.33 41.81L-17.66 53.29L-7.09 56.58ZM24.55 23.83L21.88 12.34L11.29 9.04L3.38 17.23L6.06 28.72L16.64 32.02ZM66.82 -5.64L64.16 -17.14L53.56 -20.44L45.64 -12.25L48.31 -0.75L58.90 2.55ZM98.61 4.29L95.94 -7.22L85.35 -10.53L77.42 -2.33L80.08 9.17L90.67 12.48ZM80.08 9.17L77.42 -2.33L66.82 -5.64L58.90 2.55L61.56 14.05L72.15 17.36ZM48.31 -0.75L45.64 -12.25L35.05 -15.55L27.13 -7.35L29.80 4.14L40.38 7.44ZM29.80 4.14L27.13 -7.35L16.54 -10.65L8.62 -2.45L11.29 9.04L21.88 12.34ZM77.54 83.00L74.88 71.51L64.30 68.20L56.38 76.38L59.04 87.87L69.62 91.17ZM59.04 87.87L56.38 76.38L45.80 73.08L37.89 81.26L40.55 92.74L51.13 96.04ZM82.80 63.33L80.14 51.84L69.55 48.53L61.63 56.71L64.30 68.20L74.88 71.51ZM64.30 68.20L61.63 56.71L51.05 53.41L43.13 61.59L45.80 73.08L56.38 76.38ZM90.78 97.79L88.12 86.31L77.54 83.00L69.62 91.17L72.28 102.66L82.86 105.97ZM72.28 102.66L69.62 91.17L59.04 87.87L51.13 96.04L53.79 107.52L64.37 110.83ZM96.04 78.13L93.39 66.64L82.80 63.33L74.88 71.51L77.54 83.00L88.12 86.31ZM27.31 77.95L24.64 66.47L14.07 63.17L6.16 71.36L8.83 82.84L19.40 86.13ZM8.83 82.84L6.16 71.36L-4.41 68.06L-12.31 76.24L-9.64 87.72L0.93 91.02ZM32.55 58.29L29.89 46.80L19.31 43.50L11.40 51.69L14.07 63.17L24.64 66.47ZM14.07 63.17L11.40 51.69L0.82 48.39L-7.09 56.58L-4.41 68.06L6.16 71.36ZM40.55 92.74L37.89 81.26L27.31 77.95L19.40 86.13L22.07 97.61L32.64 100.91ZM22.07 97.61L19.40 86.13L8.83 82.84L0.93 91.02L3.60 102.49L14.17 105.79ZM45.80 73.08L43.13 61.59L32.55 58.29L24.64 66.47L27.31 77.95L37.89 81.26ZM106.58 38.78L103.93 27.29L93.33 23.97L85.40 32.16L88.07 43.66L98.65 46.97ZM88.07 43.66L85.40 32.16L74.82 28.85L66.89 37.04L69.55 48.53L80.14 51.84ZM111.86 19.10L109.20 7.60L98.61 4.29L90.67 12.48L93.33 23.97L103.93 27.29ZM93.33 23.97L90.67 12.48L80.08 9.17L72.15 17.36L74.82 28.85L85.40 32.16ZM119.83 53.60L117.18 42.10L106.58 38.78L98.65 46.97L101.31 58.46L111.90 61.78ZM101.31 58.46L98.65 46.97L88.07 43.66L80.14 51.84L82.80 63.33L93.39 66.64ZM125.11 33.92L122.45 22.41L111.86 19.10L103.93 27.29L106.58 38.78L117.18 42.10Z"/></svg>
