<svg xmlns="http://www.w3.org/2000/svg" width="256" height="256" viewBox="0 0 256 256"><path data-band="3" fill="#dc2626" fill-opacity="0.35" d="M246.56 220.61L243.93 209.16L233.39 205.81L225.48 213.91L228.11 225.36L238.64 228.71ZM228.11 225.36L225.48 213.91L214.94 210.56L207.04 218.66L209.67 230.11L220.20 233.45ZM251.85 201.06L249.23 189.61L238.68 186.26L230.77 194.36L233.39 205.81L243.93 209.16ZM233.39 205.81L230.77 194.36L220.23 191.01L212.32 199.12L214.94 210.56L225.48 213.91ZM259.72 235.41L257.09 223.96L246.56 220.61L238.64 228.71L241.27 240.15L251.80 243.50ZM241.27 240.15L238.64 228.71L228.11 225.36L220.20 233.45L222.82 244.90L233.36 248.24ZM265.01 215.87L262.39 204.41L251.85 201.06L243.93 209.16L246.56 220.61L257.09 223.96ZM275.62 176.76L272.99 165.30L262.45 161.94L254.52 170.05L257.15 181.50L267.69 184.86ZM257.15 181.50L254.52 170.05L243.98 166.70L236.06 174.80L238.68 186.26L249.23 189.61ZM262.45 161.94L259.82 150.48L249.27 147.13L241.35 155.24L243.98 166.70L254.52 170.05ZM270.31 196.31L267.69 184.86L257.15 181.50L249.23 189.61L251.85 201.06L262.39 204.41ZM267.58 269.75L264.96 258.30L254.42 254.95L246.51 263.04L249.13 274.48L259.66 277.83ZM272.87 250.21L270.25 238.76L259.72 235.41L251.80 243.50L254.42 254.95L264.96 258.30ZM254.42 254.95L251.80 243.50L241.27 240.15L233.36 248.24L235.98 259.69L246.51 263.04ZM265.18 88.39L262.55 76.92L251.99 73.57L244.06 81.69L246.69 93.16L257.25 96.51ZM270.49 68.80L267.86 57.32L257.30 53.97L249.36 62.10L251.99 73.57L262.55 76.92ZM75.38 155.80L72.73 144.36L62.20 141.05L54.32 149.17L56.97 160.60L67.50 163.92ZM56.97 160.60L54.32 149.17L43.79 145.85L35.92 153.97L38.57 165.40L49.10 168.72ZM80.61 136.24L77.96 124.80L67.43 121.48L59.55 129.61L62.20 141.05L72.73 144.36ZM62.20 141.05L59.55 129.61L49.02 126.29L41.14 134.42L43.79 145.85L54.32 149.17ZM88.55 170.56L85.91 159.12L75.38 155.80L67.50 163.92L70.15 175.35L80.67 178.67ZM70.15 175.35L67.50 163.92L56.97 160.60L49.10 168.72L51.75 180.15L62.27 183.47ZM93.79 151.00L91.15 139.56L80.61 136.24L72.73 144.36L75.38 155.80L85.91 159.12ZM25.39 150.66L22.74 139.23L12.21 135.92L4.34 144.04L7.00 155.47L17.52 158.78ZM7.00 155.47L4.34 144.04L-6.18 140.74L-14.04 148.86L-11.38 160.29L-0.86 163.59ZM30.61 131.10L27.96 119.67L17.43 116.36L9.56 124.49L12.21 135.92L22.74 139.23ZM12.21 135.92L9.56 124.49L-0.97 121.18L-8.84 129.31L-6.18 140.74L4.34 144.04ZM38.57 165.40L35.92 153.97L25.39 150.66L17.52 158.78L20.18 170.21L30.70 173.52ZM20.18 170.21L17.52 158.78L7.00 155.47L-0.86 163.59L1.79 175.02L12.31 178.33ZM43.79 145.85L41.14 134.42L30.61 131.10L22.74 139.23L25.39 150.66L35.92 153.97ZM104.28 111.88L101.63 100.43L91.09 97.11L83.20 105.23L85.85 116.68L96.39 120.00ZM85.85 116.68L83.20 105.23L72.67 101.91L64.78 110.04L67.43 121.48L77.96 124.80ZM109.53 92.30L106.88 80.85L96.34 77.53L88.45 85.66L91.09 97.11L101.63 100.43ZM91.09 97.11L88.45 85.66L77.90 82.34L70.01 90.47L72.67 101.91L83.20 105.23ZM117.47 126.65L114.82 115.20L104.28 111.88L96.39 120.00L99.04 131.44L109.57 134.77ZM99.04 131.44L96.39 120.00L85.85 116.68L77.96 124.80L80.61 136.24L91.15 139.56ZM122.72 107.08L120.07 95.62L109.53 92.30L101.63 100.43L104.28 111.88L114.82 115.20ZM54.24 106.73L51.59 95.28L41.06 91.97L33.18 100.10L35.83 111.54L46.36 114.85ZM35.83 111.54L33.18 100.10L22.64 96.79L14.77 104.92L17.43 116.36L27.96 119.67ZM59.48 87.15L56.82 75.71L46.28 72.39L38.40 80.53L41.06 91.97L51.59 95.28ZM41.06 91.97L38.40 80.53L27.86 77.22L19.99 85.35L22.64 96.79L33.18 100.10ZM67.43 121.48L64.78 110.04L54.24 106.73L46.36 114.85L49.02 126.29L59.55 129.61ZM49.02 126.29L46.36 114.85L35.83 111.54L27.96 119.67L30.61 131.10L41.14 134.42ZM72.67 101.91L70.01 90.47L59.48 87.15L51.59 95.28L54.24 106.73L64.78 110.04ZM96.49 204.86L93.84 193.43L83.32 190.11L75.44 198.22L78.09 209.65L88.61 212.97ZM78.09 209.65L75.44 198.22L64.92 194.90L57.04 203.01L59.69 214.43L70.21 217.75ZM101.73 185.32L99.08 173.88L88.55 170.56L80.67 178.67L83.32 190.11L93.84 193.43ZM83.32 190.11L80.67 178.67L70.15 175.35L62.27 183.47L64.92 194.90L75.44 198.22ZM109.65 219.62L107.01 208.19L96.49 204.86L88.61 212.97L91.25 224.40L101.77 227.72ZM91.25 224.40L88.61 212.97L78.09 209.65L70.21 217.75L72.86 229.18L83.38 232.50ZM114.90 200.08L112.25 188.64L101.73 185.32L93.84 193.43L96.49 204.86L107.01 208.19ZM46.52 199.69L43.87 188.26L33.35 184.95L25.49 193.06L28.14 204.49L38.66 207.80ZM28.14 204.49L25.49 193.06L14.97 189.75L7.11 197.87L9.76 209.29L20.28 212.60ZM51.75 180.15L49.10 168.72L38.57 165.40L30.70 173.52L33.35 184.95L43.87 188.26ZM33.35 184.95L30.70 173.52L20.18 170.21L12.31 178.33L14.97 189.75L25.49 193.06ZM59.69 214.43L57.04 203.01L46.52 199.69L38.66 207.80L41.31 219.22L51.82 222.54ZM41.31 219.22L38.66 207.80L28.14 204.49L20.28 212.60L22.93 224.02L33.44 227.33ZM64.92 194.90L62.27 183.47L51.75 180.15L43.87 188.26L46.52 199.69L57.04 203.01ZM125.39 160.98L122.75 149.54L112.22 146.21L104.33 154.33L106.97 165.77L117.50 169.09ZM106.97 165.77L104.33 154.33L93.79 151.00L85.91 159.12L88.55 170.56L99.08 173.88ZM130.65 141.42L128.00 129.97L117.47 126.65L109.57 134.77L112.22 146.21L122.75 149.54ZM112.22 146.21L109.57 134.77L99.04 131.44L91.15 139.56L93.79 151.00L104.33 154.33ZM138.57 175.75L135.93 164.31L125.39 160.98L117.50 169.09L120.14 180.53L130.67 183.86ZM120.14 180.53L117.50 169.09L106.97 165.77L99.08 173.88L101.73 185.32L112.25 188.64ZM143.82 156.20L141.18 144.75L130.65 141.42L122.75 149.54L125.39 160.98L135.93 164.31ZM1.79 175.02L-0.86 163.59L-11.38 160.29L-19.24 168.41L-16.58 179.83L-6.07 183.14ZM9.76 209.29L7.11 197.87L-3.41 194.56L-11.27 202.67L-8.61 214.09L1.90 217.40ZM14.97 189.75L12.31 178.33L1.79 175.02L-6.07 183.14L-3.41 194.56L7.11 197.87ZM112.10 18.75L109.45 7.29L98.89 3.97L90.99 12.11L93.64 23.57L104.19 26.89ZM93.64 23.57L90.99 12.11L80.44 8.79L72.54 16.94L75.19 28.39L85.74 31.71ZM117.36 -0.86L114.71 -12.32L104.15 -15.64L96.24 -7.50L98.89 3.97L109.45 7.29ZM98.89 3.97L96.24 -7.50L85.68 -10.81L77.78 -2.67L80.44 8.79L90.99 12.11ZM125.30 33.54L122.65 22.07L112.10 18.75L104.19 26.89L106.84 38.35L117.39 41.67ZM106.84 38.35L104.19 26.89L93.64 23.57L85.74 31.71L88.39 43.17L98.94 46.49ZM130.56 13.93L127.92 2.47L117.36 -0.86L109.45 7.29L112.10 18.75L122.65 22.07ZM61.99 13.62L59.33 2.17L48.78 -1.15L40.89 7.00L43.55 18.46L54.09 21.77ZM43.55 18.46L40.89 7.00L30.34 3.69L22.45 11.84L25.11 23.29L35.66 26.60ZM67.23 -5.98L64.57 -17.44L54.02 -20.75L46.12 -12.60L48.78 -1.15L59.33 2.17ZM48.78 -1.15L46.12 -12.60L35.57 -15.91L27.68 -7.76L30.34 3.69L40.89 7.00ZM75.19 28.39L72.54 16.94L61.99 13.62L54.09 21.77L56.75 33.22L67.30 36.53ZM56.75 33.22L54.09 21.77L43.55 18.46L35.66 26.60L38.32 38.05L48.86 41.36ZM80.44 8.79L77.78 -2.67L67.23 -5.98L59.33 2.17L61.99 13.62L72.54 16.94ZM135.83 -5.68L133.18 -17.15L122.62 -20.47L114.71 -12.32L117.36 -0.86L127.92 2.47ZM133.23 67.91L130.59 56.46L120.04 53.13L112.14 61.26L114.78 72.72L125.33 76.04ZM114.78 72.72L112.14 61.26L101.59 57.94L93.69 66.08L96.34 77.53L106.88 80.85ZM138.50 48.32L135.85 36.86L125.30 33.54L117.39 41.67L120.04 53.13L130.59 56.46ZM120.04 53.13L117.39 41.67L106.84 38.35L98.94 46.49L101.59 57.94L112.14 61.26ZM146.43 82.70L143.78 71.24L133.23 67.91L125.33 76.04L127.97 87.50L138.52 90.83ZM127.97 87.50L125.33 76.04L114.78 72.72L106.88 80.85L109.53 92.30L120.07 95.62ZM151.69 63.11L149.05 51.65L138.50 48.32L130.59 56.46L133.23 67.91L143.78 71.24ZM83.15 62.76L80.50 51.30L69.95 47.99L62.06 56.12L64.71 67.57L75.25 70.89ZM64.71 67.57L62.06 56.12L51.51 52.81L43.63 60.95L46.28 72.39L56.82 75.71ZM88.39 43.17L85.74 31.71L75.19 28.39L67.30 36.53L69.95 47.99L80.50 51.30ZM69.95 47.99L67.30 36.53L56.75 33.22L48.86 41.36L51.51 52.81L62.06 56.12ZM96.34 77.53L93.69 66.08L83.15 62.76L75.25 70.89L77.90 82.34L88.45 85.66ZM77.90 82.34L75.25 70.89L64.71 67.57L56.82 75.71L59.48 87.15L70.01 90.47ZM101.59 57.94L98.94 46.49L88.39 43.17L80.50 51.30L83.15 62.76L93.69 66.08ZM162.24 23.92L159.60 12.45L149.03 9.12L141.12 17.26L143.76 28.72L154.32 32.05ZM143.76 28.72L141.12 17.26L130.56 13.93L122.65 22.07L125.30 33.54L135.85 36.86ZM167.52 4.31L164.87 -7.16L154.31 -10.49L146.39 -2.35L149.03 9.12L159.60 12.45ZM149.03 9.12L146.39 -2.35L135.83 -5.68L127.92 2.47L130.56 13.93L141.12 17.26ZM175.44 38.72L172.80 27.25L162.24 23.92L154.32 32.05L156.96 43.52L167.52 46.85ZM156.96 43.52L154.32 32.05L143.76 28.72L135.85 36.86L138.50 48.32L149.05 51.65ZM180.72 19.11L178.08 7.64L167.52 4.31L159.60 12.45L162.24 23.92L172.80 27.25ZM1.47 47.72L-1.19 36.28L-11.73 32.97L-19.60 41.12L-16.94 52.56L-6.40 55.86ZM11.91 8.54L9.25 -2.92L-1.30 -6.22L-9.18 1.93L-6.52 13.38L4.03 16.68ZM25.11 23.29L22.45 11.84L11.91 8.54L4.03 16.68L6.69 28.13L17.23 31.44ZM6.69 28.13L4.03 16.68L-6.52 13.38L-14.39 21.53L-11.73 32.97L-1.19 36.28ZM30.34 3.69L27.68 -7.76L17.13 -11.07L9.25 -2.92L11.91 8.54L22.45 11.84ZM4.24 101.62L1.58 90.18L-8.95 86.88L-16.82 95.01L-14.16 106.44L-3.63 109.75ZM9.45 82.05L6.79 70.61L-3.74 67.30L-11.61 75.44L-8.95 86.88L1.58 90.18ZM17.43 116.36L14.77 104.92L4.24 101.62L-3.63 109.75L-0.97 121.18L9.56 124.49ZM22.64 96.79L19.99 85.35L9.45 82.05L1.58 90.18L4.24 101.62L14.77 104.92ZM33.09 57.64L30.43 46.19L19.89 42.88L12.01 51.02L14.67 62.47L25.21 65.78ZM14.67 62.47L12.01 51.02L1.47 47.72L-6.40 55.86L-3.74 67.30L6.79 70.61ZM38.32 38.05L35.66 26.60L25.11 23.29L17.23 31.44L19.89 42.88L30.43 46.19ZM19.89 42.88L17.23 31.44L6.69 28.13L-1.19 36.28L1.47 47.72L12.01 51.02ZM46.28 72.39L43.63 60.95L33.09 57.64L25.21 65.78L27.86 77.22L38.40 80.53ZM27.86 77.22L25.21 65.78L14.67 62.47L6.79 70.61L9.45 82.05L19.99 85.35ZM51.51 52.81L48.86 41.36L38.32 38.05L30.43 46.19L33.09 57.64L43.63 60.95ZM167.54 259.15L164.91 247.71L154.39 244.38L146.50 252.47L149.13 263.90L159.65 267.24ZM149.13 263.90L146.50 252.47L135.98 249.14L128.09 257.24L130.73 268.66L141.25 272.00ZM172.81 239.62L170.17 228.18L159.64 224.84L151.75 232.94L154.39 244.38L164.91 247.71ZM154.39 244.38L151.75 232.94L141.23 229.61L133.34 237.71L135.98 249.14L146.50 252.47ZM185.96 254.39L183.33 242.96L172.81 239.62L164.91 247.71L167.54 259.15L178.07 262.49ZM117.57 253.91L114.93 242.48L104.41 239.15L96.54 247.25L99.18 258.68L109.69 262.00ZM99.18 258.68L96.54 247.25L86.02 243.93L78.15 252.03L80.79 263.45L91.30 266.77ZM122.82 234.38L120.18 222.95L109.65 219.62L101.77 227.72L104.41 239.15L114.93 242.48ZM104.41 239.15L101.77 227.72L91.25 224.40L83.38 232.50L86.02 243.93L96.54 247.25ZM130.73 268.66L128.09 257.24L117.57 253.91L109.69 262.00L112.33 273.43L122.85 276.76ZM135.98 249.14L133.34 237.71L122.82 234.38L114.93 242.48L117.57 253.91L128.09 257.24ZM196.50 215.32L193.87 203.88L183.34 200.54L175.44 208.64L178.07 220.08L188.60 223.42ZM178.07 220.08L175.44 208.64L164.91 205.30L157.01 213.41L159.64 224.84L170.17 228.18ZM201.78 195.77L199.15 184.33L188.61 180.99L180.71 189.09L183.34 200.54L193.87 203.88ZM183.34 200.54L180.71 189.09L170.17 185.75L162.27 193.86L164.91 205.30L175.44 208.64ZM209.67 230.11L207.04 218.66L196.50 215.32L188.60 223.42L191.23 234.86L201.76 238.20ZM191.23 234.86L188.60 223.42L178.07 220.08L170.17 228.18L172.81 239.62L183.33 242.96ZM214.94 210.56L212.32 199.12L201.78 195.77L193.87 203.88L196.50 215.32L207.04 218.66ZM146.48 210.07L143.84 198.63L133.31 195.30L125.42 203.41L128.06 214.84L138.59 218.17ZM128.06 214.84L125.42 203.41L114.90 200.08L107.01 208.19L109.65 219.62L120.18 222.95ZM151.74 190.53L149.10 179.08L138.57 175.75L130.67 183.86L133.31 195.30L143.84 198.63ZM133.31 195.30L130.67 183.86L120.14 180.53L112.25 188.64L114.90 200.08L125.42 203.41ZM159.64 224.84L157.01 213.41L146.48 210.07L138.59 218.17L141.23 229.61L151.75 232.94ZM141.23 229.61L138.59 218.17L128.06 214.84L120.18 222.95L122.82 234.38L133.34 237.71ZM164.91 205.30L162.27 193.86L151.74 190.53L143.84 198.63L146.48 210.07L157.01 213.41ZM217.55 264.43L214.92 252.99L204.39 249.64L196.49 257.74L199.12 269.17L209.64 272.52ZM199.12 269.17L196.49 257.74L185.96 254.39L178.07 262.49L180.70 273.92L191.22 277.26ZM222.82 244.90L220.20 233.45L209.67 230.11L201.76 238.20L204.39 249.64L214.92 252.99ZM204.39 249.64L201.76 238.20L191.23 234.86L183.33 242.96L185.96 254.39L196.49 257.74ZM235.98 259.69L233.36 248.24L222.82 244.90L214.92 252.99L217.55 264.43L228.07 267.78ZM67.63 248.71L64.99 237.28L54.47 233.96L46.60 242.07L49.25 253.49L59.76 256.81ZM49.25 253.49L46.60 242.07L36.09 238.75L28.23 246.86L30.88 258.27L41.39 261.59ZM72.86 229.18L70.21 217.75L59.69 214.43L51.82 222.54L54.47 233.96L64.99 237.28ZM54.47 233.96L51.82 222.54L41.31 219.22L33.44 227.33L36.09 238.75L46.60 242.07ZM80.79 263.45L78.15 252.03L67.63 248.71L59.76 256.81L62.41 268.22L72.92 271.55ZM62.41 268.22L59.76 256.81L49.25 253.49L41.39 261.59L44.04 273.00L54.55 276.32ZM86.02 243.93L83.38 232.50L72.86 229.18L64.99 237.28L67.63 248.71L78.15 252.03ZM17.72 243.54L15.07 232.13L4.56 228.82L-3.30 236.92L-0.64 248.34L9.86 251.65ZM22.93 224.02L20.28 212.60L9.76 209.29L1.90 217.40L4.56 228.82L15.07 232.13ZM4.56 228.82L1.90 217.40L-8.61 214.09L-16.46 222.20L-13.81 233.62L-3.30 236.92ZM30.88 258.27L28.23 246.86L17.72 243.54L9.86 251.65L12.52 263.06L23.02 266.37ZM12.52 263.06L9.86 251.65L-0.64 248.34L-8.49 256.44L-5.84 267.85L4.66 271.16ZM36.09 238.75L33.44 227.33L22.93 224.02L15.07 232.13L17.72 243.54L28.23 246.86ZM204.44 122.29L201.81 110.83L191.26 107.49L183.35 115.61L185.98 127.07L196.53 130.41ZM185.98 127.07L183.35 115.61L172.80 112.28L164.89 120.40L167.53 131.85L178.07 135.19ZM209.73 102.71L207.10 91.25L196.54 87.91L188.63 96.03L191.26 107.49L201.81 110.83ZM191.26 107.49L188.63 96.03L178.08 92.70L170.16 100.82L172.80 112.28L183.35 115.61ZM217.62 137.09L214.99 125.63L204.44 122.29L196.53 130.41L199.16 141.86L209.71 145.20ZM199.16 141.86L196.53 130.41L185.98 127.07L178.07 135.19L180.71 146.64L191.25 149.98ZM222.91 117.52L220.28 106.06L209.73 102.71L201.81 110.83L204.44 122.29L214.99 125.63ZM154.35 117.06L151.71 105.61L141.16 102.28L133.26 110.40L135.90 121.85L146.44 125.18ZM135.90 121.85L133.26 110.40L122.72 107.08L114.82 115.20L117.47 126.65L128.00 129.97ZM159.62 97.49L156.98 86.03L146.43 82.70L138.52 90.83L141.16 102.28L151.71 105.61ZM141.16 102.28L138.52 90.83L127.97 87.50L120.07 95.62L122.72 107.08L133.26 110.40ZM167.53 131.85L164.89 120.40L154.35 117.06L146.44 125.18L149.08 136.63L159.62 139.97ZM149.08 136.63L146.44 125.18L135.90 121.85L128.00 129.97L130.65 141.42L141.18 144.75ZM172.80 112.28L170.16 100.82L159.62 97.49L151.71 105.61L154.35 117.06L164.89 120.40ZM233.50 78.35L230.87 66.88L220.31 63.54L212.39 71.66L215.02 83.13L225.57 86.47ZM215.02 83.13L212.39 71.66L201.83 68.32L193.91 76.45L196.54 87.91L207.10 91.25ZM238.80 58.75L236.17 47.28L225.61 43.94L217.68 52.07L220.31 63.54L230.87 66.88ZM220.31 63.54L217.68 52.07L207.12 48.73L199.19 56.85L201.83 68.32L212.39 71.66ZM246.69 93.16L244.06 81.69L233.50 78.35L225.57 86.47L228.21 97.94L238.76 101.28ZM228.21 97.94L225.57 86.47L215.02 83.13L207.10 91.25L209.73 102.71L220.28 106.06ZM251.99 73.57L249.36 62.10L238.80 58.75L230.87 66.88L233.50 78.35L244.06 81.69ZM183.35 73.11L180.72 61.65L170.16 58.31L162.25 66.44L164.89 77.90L175.44 81.24ZM164.89 77.90L162.25 66.44L151.69 63.11L143.78 71.24L146.43 82.70L156.98 86.03ZM188.63 53.52L186.00 42.05L175.44 38.72L167.52 46.85L170.16 58.31L180.72 61.65ZM170.16 58.31L167.52 46.85L156.96 43.52L149.05 51.65L151.69 63.11L162.25 66.44ZM196.54 87.91L193.91 76.45L183.35 73.11L175.44 81.24L178.08 92.70L188.63 96.03ZM178.08 92.70L175.44 81.24L164.89 77.90L156.98 86.03L159.62 97.49L170.16 100.82ZM201.83 68.32L199.19 56.85L188.63 53.52L180.72 61.65L183.35 73.11L193.91 76.45ZM225.51 171.46L222.88 160.00L212.34 156.66L204.43 164.77L207.06 176.22L217.60 179.56ZM207.06 176.22L204.43 164.77L193.88 161.43L185.98 169.54L188.61 180.99L199.15 184.33ZM230.80 151.89L228.17 140.44L217.62 137.09L209.71 145.20L212.34 156.66L222.88 160.00ZM212.34 156.66L209.71 145.20L199.16 141.86L191.25 149.98L193.88 161.43L204.43 164.77ZM238.68 186.26L236.06 174.80L225.51 171.46L217.60 179.56L220.23 191.01L230.77 194.36ZM220.23 191.01L217.60 179.56L207.06 176.22L199.15 184.33L201.78 195.77L212.32 199.12ZM243.98 166.70L241.35 155.24L230.80 151.89L222.88 160.00L225.51 171.46L236.06 174.80ZM175.44 166.20L172.80 154.75L162.26 151.41L154.36 159.53L157.00 170.97L167.53 174.31ZM157.00 170.97L154.36 159.53L143.82 156.20L135.93 164.31L138.57 175.75L149.10 179.08ZM180.71 146.64L178.07 135.19L167.53 131.85L159.62 139.97L162.26 151.41L172.80 154.75ZM162.26 151.41L159.62 139.97L149.08 136.63L141.18 144.75L143.82 156.20L154.36 159.53ZM188.61 180.99L185.98 169.54L175.44 166.20L167.53 174.31L170.17 185.75L180.71 189.09ZM170.17 185.75L167.53 174.31L157.00 170.97L149.10 179.08L151.74 190.53L162.27 193.86ZM193.88 161.43L191.25 149.98L180.71 146.64L172.80 154.75L175.44 166.20L185.98 169.54ZM254.57 127.56L251.94 116.09L241.39 112.75L233.47 120.86L236.09 132.32L246.64 135.67ZM236.09 132.32L233.47 120.86L222.91 117.52L214.99 125.63L217.62 137.09L228.17 140.44ZM259.87 107.98L257.25 96.51L246.69 93.16L238.76 101.28L241.39 112.75L251.94 116.09ZM241.39 112.75L238.76 101.28L228.21 97.94L220.28 106.06L222.91 117.52L233.47 120.86ZM267.75 142.37L265.12 130.91L254.57 127.56L246.64 135.67L249.27 147.13L259.82 150.48ZM249.27 147.13L246.64 135.67L236.09 132.32L228.17 140.44L230.80 151.89L241.35 155.24ZM273.06 122.80L270.43 111.33L259.87 107.98L251.94 116.09L254.57 127.56L265.12 130.91ZM254.72 -0.07L252.09 -11.56L241.51 -14.90L233.57 -6.76L236.21 4.72L246.78 8.06ZM236.21 4.72L233.57 -6.76L223.00 -10.10L215.07 -1.97L217.70 9.51L228.27 12.85ZM204.50 -5.30L201.86 -16.78L191.29 -20.12L183.36 -11.97L186.00 -0.50L196.57 2.84ZM186.00 -0.50L183.36 -11.97L172.80 -15.31L164.87 -7.16L167.52 4.31L178.08 7.64ZM262.61 34.37L259.98 22.89L249.41 19.54L241.47 27.67L244.10 39.15L254.67 42.50ZM244.10 39.15L241.47 27.67L230.91 24.33L222.97 32.46L225.61 43.94L236.17 47.28ZM267.92 14.76L265.29 3.27L254.72 -0.07L246.78 8.06L249.41 19.54L259.98 22.89ZM249.41 19.54L246.78 8.06L236.21 4.72L228.27 12.85L230.91 24.33L241.47 27.67ZM275.80 49.20L273.18 37.72L262.61 34.37L254.67 42.50L257.30 53.97L267.86 57.32ZM257.30 53.97L254.67 42.50L244.10 39.15L236.17 47.28L238.80 58.75L249.36 62.10ZM212.41 29.12L209.77 17.65L199.21 14.31L191.28 22.45L193.92 33.92L204.48 37.26ZM193.92 33.92L191.28 22.45L180.72 19.11L172.80 27.25L175.44 38.72L186.00 42.05ZM217.70 9.51L215.07 -1.97L204.50 -5.30L196.57 2.84L199.21 14.31L209.77 17.65ZM199.21 14.31L196.57 2.84L186.00 -0.50L178.08 7.64L180.72 19.11L191.28 22.45ZM225.61 43.94L222.97 32.46L212.41 29.12L204.48 37.26L207.12 48.73L217.68 52.07ZM207.12 48.73L204.48 37.26L193.92 33.92L186.00 42.05L188.63 53.52L199.19 56.85ZM230.91 24.33L228.27 12.85L217.70 9.51L209.77 17.65L212.41 29.12L222.97 32.46ZM273.24 -4.86L270.61 -16.35L260.03 -19.70L252.09 -11.56L254.72 -0.07L265.29 3.27Z"/></svg>
