<svg xmlns="http://www.w3.org/2000/svg" width="256" height="256" viewBox="0 0 256 256"><path data-band="3" fill="#dc2626" fill-opacity="0.35" d="M267.58 13.75L264.96 2.30L254.42 -1.05L246.51 7.04L249.13 18.48L259.66 21.83ZM249.13 18.48L246.51 7.04L235.98 3.69L228.07 11.78L230.70 23.21L241.23 26.56ZM272.87 -5.79L270.25 -17.24L259.72 -20.59L251.80 -12.50L254.42 -1.05L264.96 2.30ZM254.42 -1.05L251.80 -12.50L241.27 -15.85L233.36 -7.76L235.98 3.69L246.51 7.04ZM262.28 33.27L259.66 21.83L249.13 18.48L241.23 26.56L243.85 38.00L254.37 41.36ZM0.01 245.92L-2.63 234.55L-13.10 231.23L-20.92 239.29L-18.28 250.67L-7.81 253.98ZM13.12 260.62L10.48 249.24L0.01 245.92L-7.81 253.98L-5.17 265.35L5.30 268.67ZM2.44 172.89L-0.21 161.50L-10.69 158.19L-18.52 166.26L-15.87 177.65L-5.39 180.96ZM7.63 153.43L4.98 142.04L-5.50 138.72L-13.34 146.80L-10.69 158.19L-0.21 161.50ZM15.56 187.59L12.92 176.20L2.44 172.89L-5.39 180.96L-2.75 192.34L7.73 195.66ZM20.76 168.13L18.11 156.74L7.63 153.43L-0.21 161.50L2.44 172.89L12.92 176.20ZM31.15 129.20L28.50 117.80L18.01 114.48L10.17 122.56L12.82 133.96L23.31 137.28ZM12.82 133.96L10.17 122.56L-0.32 119.25L-8.15 127.33L-5.50 138.72L4.98 142.04ZM36.35 109.72L33.71 98.32L23.21 95.00L15.37 103.09L18.01 114.48L28.50 117.80ZM18.01 114.48L15.37 103.09L4.87 99.77L-2.97 107.86L-0.32 119.25L10.17 122.56ZM44.28 143.91L41.64 132.52L31.15 129.20L23.31 137.28L25.95 148.67L36.44 151.99ZM25.95 148.67L23.31 137.28L12.82 133.96L4.98 142.04L7.63 153.43L18.11 156.74ZM49.49 124.44L46.84 113.04L36.35 109.72L28.50 117.80L31.15 129.20L41.64 132.52ZM23.49 221.74L20.85 210.36L10.38 207.04L2.55 215.11L5.19 226.49L15.66 229.80ZM5.19 226.49L2.55 215.11L-7.93 211.79L-15.75 219.86L-13.10 231.23L-2.63 234.55ZM28.69 202.30L26.04 190.91L15.56 187.59L7.73 195.66L10.38 207.04L20.85 210.36ZM10.38 207.04L7.73 195.66L-2.75 192.34L-10.57 200.41L-7.93 211.79L2.55 215.11ZM36.61 236.44L33.97 225.06L23.49 221.74L15.66 229.80L18.30 241.18L28.78 244.50ZM18.30 241.18L15.66 229.80L5.19 226.49L-2.63 234.55L0.01 245.92L10.48 249.24ZM41.80 217.00L39.16 205.62L28.69 202.30L20.85 210.36L23.49 221.74L33.97 225.06ZM52.20 178.10L49.56 166.70L39.08 163.38L31.24 171.45L33.88 182.84L44.36 186.16ZM33.88 182.84L31.24 171.45L20.76 168.13L12.92 176.20L15.56 187.59L26.04 190.91ZM57.41 158.63L54.77 147.24L44.28 143.91L36.44 151.99L39.08 163.38L49.56 166.70ZM39.08 163.38L36.44 151.99L25.95 148.67L18.11 156.74L20.76 168.13L31.24 171.45ZM65.33 192.81L62.69 181.42L52.20 178.10L44.36 186.16L47.00 197.55L57.48 200.88ZM47.00 197.55L44.36 186.16L33.88 182.84L26.04 190.91L28.69 202.30L39.16 205.62ZM70.54 173.35L67.90 161.96L57.41 158.63L49.56 166.70L52.20 178.10L62.69 181.42ZM167.54 3.15L164.91 -8.29L154.39 -11.62L146.50 -3.53L149.13 7.90L159.65 11.24ZM149.13 7.90L146.50 -3.53L135.98 -6.86L128.09 1.24L130.73 12.66L141.25 16.00ZM180.70 17.92L178.07 6.49L167.54 3.15L159.65 11.24L162.29 22.67L172.81 26.01ZM162.29 22.67L159.65 11.24L149.13 7.90L141.25 16.00L143.88 27.42L154.40 30.76ZM185.96 -1.61L183.33 -13.04L172.81 -16.38L164.91 -8.29L167.54 3.15L178.07 6.49ZM117.57 -2.09L114.93 -13.52L104.41 -16.85L96.54 -8.75L99.18 2.68L109.69 6.00ZM99.18 2.68L96.54 -8.75L86.02 -12.07L78.15 -3.97L80.79 7.45L91.30 10.77ZM130.73 12.66L128.09 1.24L117.57 -2.09L109.69 6.00L112.33 17.43L122.85 20.76ZM112.33 17.43L109.69 6.00L99.18 2.68L91.30 10.77L93.94 22.19L104.46 25.52ZM135.98 -6.86L133.34 -18.29L122.82 -21.62L114.93 -13.52L117.57 -2.09L128.09 1.24ZM188.58 52.21L185.96 40.78L175.44 37.44L167.55 45.53L170.18 56.95L180.70 60.29ZM170.18 56.95L167.55 45.53L157.03 42.19L149.15 50.27L151.78 61.70L162.29 65.04ZM193.85 32.69L191.22 21.26L180.70 17.92L172.81 26.01L175.44 37.44L185.96 40.78ZM175.44 37.44L172.81 26.01L162.29 22.67L154.40 30.76L157.03 42.19L167.55 45.53ZM201.73 66.98L199.10 55.55L188.58 52.21L180.70 60.29L183.32 71.72L193.84 75.06ZM183.32 71.72L180.70 60.29L170.18 56.95L162.29 65.04L164.92 76.46L175.44 79.80ZM207.00 47.47L204.37 36.04L193.85 32.69L185.96 40.78L188.58 52.21L199.10 55.55ZM138.63 46.94L136.00 35.52L125.49 32.18L117.61 40.27L120.25 51.69L130.76 55.03ZM120.25 51.69L117.61 40.27L107.10 36.94L99.22 45.03L101.86 56.45L112.37 59.78ZM143.88 27.42L141.25 16.00L130.73 12.66L122.85 20.76L125.49 32.18L136.00 35.52ZM125.49 32.18L122.85 20.76L112.33 17.43L104.46 25.52L107.10 36.94L117.61 40.27ZM151.78 61.70L149.15 50.27L138.63 46.94L130.76 55.03L133.39 66.44L143.90 69.78ZM133.39 66.44L130.76 55.03L120.25 51.69L112.37 59.78L115.01 71.20L125.52 74.53ZM157.03 42.19L154.40 30.76L143.88 27.42L136.00 35.52L138.63 46.94L149.15 50.27ZM217.55 8.43L214.92 -3.01L204.39 -6.36L196.49 1.74L199.12 13.17L209.64 16.52ZM199.12 13.17L196.49 1.74L185.96 -1.61L178.07 6.49L180.70 17.92L191.22 21.26ZM204.39 -6.36L201.76 -17.80L191.23 -21.14L183.33 -13.04L185.96 -1.61L196.49 1.74ZM230.70 23.21L228.07 11.78L217.55 8.43L209.64 16.52L212.27 27.95L222.80 31.30ZM212.27 27.95L209.64 16.52L199.12 13.17L191.22 21.26L193.85 32.69L204.37 36.04ZM235.98 3.69L233.36 -7.76L222.82 -11.10L214.92 -3.01L217.55 8.43L228.07 11.78ZM38.83 36.51L36.18 25.10L25.67 21.79L17.82 29.88L20.47 41.29L30.97 44.61ZM20.47 41.29L17.82 29.88L7.32 26.57L-0.53 34.67L2.12 46.08L12.62 49.39ZM44.04 17.00L41.39 5.59L30.88 2.27L23.02 10.37L25.67 21.79L36.18 25.10ZM25.67 21.79L23.02 10.37L12.52 7.06L4.66 15.16L7.32 26.57L17.82 29.88ZM51.98 51.24L49.33 39.83L38.83 36.51L30.97 44.61L33.62 56.02L44.12 59.33ZM33.62 56.02L30.97 44.61L20.47 41.29L12.62 49.39L15.27 60.79L25.77 64.11ZM57.19 31.74L54.55 20.32L44.04 17.00L36.18 25.10L38.83 36.51L49.33 39.83ZM2.12 46.08L-0.53 34.67L-11.03 31.36L-18.88 39.46L-16.22 50.86L-5.73 54.17ZM7.32 26.57L4.66 15.16L-5.84 11.85L-13.69 19.95L-11.03 31.36L-0.53 34.67ZM67.63 -7.29L64.99 -18.72L54.47 -22.04L46.60 -13.93L49.25 -2.51L59.76 0.81ZM49.25 -2.51L46.60 -13.93L36.09 -17.25L28.23 -9.14L30.88 2.27L41.39 5.59ZM80.79 7.45L78.15 -3.97L67.63 -7.29L59.76 0.81L62.41 12.22L72.92 15.55ZM62.41 12.22L59.76 0.81L49.25 -2.51L41.39 5.59L44.04 17.00L54.55 20.32ZM30.88 2.27L28.23 -9.14L17.72 -12.46L9.86 -4.35L12.52 7.06L23.02 10.37ZM12.52 7.06L9.86 -4.35L-0.64 -7.66L-8.49 0.44L-5.84 11.85L4.66 15.16ZM59.91 85.47L57.26 74.06L46.76 70.74L38.91 78.83L41.56 90.23L52.05 93.55ZM41.56 90.23L38.91 78.83L28.41 75.51L20.56 83.60L23.21 95.00L33.71 98.32ZM65.12 65.98L62.48 54.56L51.98 51.24L44.12 59.33L46.76 70.74L57.26 74.06ZM46.76 70.74L44.12 59.33L33.62 56.02L25.77 64.11L28.41 75.51L38.91 78.83ZM73.05 100.20L70.41 88.79L59.91 85.47L52.05 93.55L54.70 104.96L65.19 108.28ZM54.70 104.96L52.05 93.55L41.56 90.23L33.71 98.32L36.35 109.72L46.84 113.04ZM78.27 80.71L75.63 69.30L65.12 65.98L57.26 74.06L59.91 85.47L70.41 88.79ZM10.07 80.29L7.42 68.88L-3.08 65.57L-10.92 73.66L-8.27 85.06L2.23 88.37ZM15.27 60.79L12.62 49.39L2.12 46.08L-5.73 54.17L-3.08 65.57L7.42 68.88ZM23.21 95.00L20.56 83.60L10.07 80.29L2.23 88.37L4.87 99.77L15.37 103.09ZM4.87 99.77L2.23 88.37L-8.27 85.06L-16.11 93.15L-13.45 104.55L-2.97 107.86ZM28.41 75.51L25.77 64.11L15.27 60.79L7.42 68.88L10.07 80.29L20.56 83.60ZM88.72 41.71L86.07 30.29L75.56 26.96L67.70 35.06L70.34 46.47L80.85 49.80ZM70.34 46.47L67.70 35.06L57.19 31.74L49.33 39.83L51.98 51.24L62.48 54.56ZM93.94 22.19L91.30 10.77L80.79 7.45L72.92 15.55L75.56 26.96L86.07 30.29ZM75.56 26.96L72.92 15.55L62.41 12.22L54.55 20.32L57.19 31.74L67.70 35.06ZM101.86 56.45L99.22 45.03L88.72 41.71L80.85 49.80L83.49 61.21L94.00 64.54ZM83.49 61.21L80.85 49.80L70.34 46.47L62.48 54.56L65.12 65.98L75.63 69.30ZM107.10 36.94L104.46 25.52L93.94 22.19L86.07 30.29L88.72 41.71L99.22 45.03ZM222.65 242.92L220.03 231.52L209.54 228.16L201.66 236.22L204.28 247.62L214.77 250.97ZM204.28 247.62L201.66 236.22L191.17 232.86L183.30 240.92L185.92 252.31L196.41 255.66ZM227.91 223.47L225.29 212.06L214.80 208.71L206.92 216.76L209.54 228.16L220.03 231.52ZM209.54 228.16L206.92 216.76L196.42 213.41L188.55 221.46L191.17 232.86L201.66 236.22ZM235.76 257.68L233.14 246.28L222.65 242.92L214.77 250.97L217.39 262.37L227.88 265.72ZM217.39 262.37L214.77 250.97L204.28 247.62L196.41 255.66L199.03 267.06L209.52 270.41ZM241.02 238.23L238.41 226.82L227.91 223.47L220.03 231.52L222.65 242.92L233.14 246.28ZM172.81 237.57L170.19 226.17L159.70 222.83L151.84 230.88L154.46 242.28L164.95 245.62ZM154.46 242.28L151.84 230.88L141.35 227.54L133.49 235.59L136.12 246.98L146.61 250.33ZM178.06 218.12L175.44 206.71L164.94 203.37L157.08 211.43L159.70 222.83L170.19 226.17ZM159.70 222.83L157.08 211.43L146.59 208.08L138.73 216.14L141.35 227.54L151.84 230.88ZM185.92 252.31L183.30 240.92L172.81 237.57L164.95 245.62L167.57 257.01L178.06 260.36ZM167.57 257.01L164.95 245.62L154.46 242.28L146.61 250.33L149.23 261.72L159.71 265.06ZM191.17 232.86L188.55 221.46L178.06 218.12L170.19 226.17L172.81 237.57L183.30 240.92ZM251.56 199.31L248.95 187.90L238.45 184.54L230.56 192.60L233.18 204.01L243.68 207.36ZM233.18 204.01L230.56 192.60L220.06 189.24L212.18 197.30L214.80 208.71L225.29 212.06ZM256.84 179.84L254.23 168.42L243.72 165.06L235.83 173.12L238.45 184.54L248.95 187.90ZM238.45 184.54L235.83 173.12L225.33 169.77L217.44 177.83L220.06 189.24L230.56 192.60ZM264.68 214.08L262.07 202.67L251.56 199.31L243.68 207.36L246.29 218.77L256.79 222.13ZM246.29 218.77L243.68 207.36L233.18 204.01L225.29 212.06L227.91 223.47L238.41 226.82ZM269.96 194.62L267.35 183.20L256.84 179.84L248.95 187.90L251.56 199.31L262.07 202.67ZM201.68 193.95L199.06 182.54L188.56 179.19L180.69 187.25L183.31 198.66L193.80 202.00ZM183.31 198.66L180.69 187.25L170.19 183.91L162.32 191.97L164.94 203.37L175.44 206.71ZM206.94 174.48L204.32 163.07L193.82 159.72L185.94 167.78L188.56 179.19L199.06 182.54ZM188.56 179.19L185.94 167.78L175.44 164.44L167.56 172.50L170.19 183.91L180.69 187.25ZM214.80 208.71L212.18 197.30L201.68 193.95L193.80 202.00L196.42 213.41L206.92 216.76ZM196.42 213.41L193.80 202.00L183.31 198.66L175.44 206.71L178.06 218.12L188.55 221.46ZM220.06 189.24L217.44 177.83L206.94 174.48L199.06 182.54L201.68 193.95L212.18 197.30ZM199.03 267.06L196.41 255.66L185.92 252.31L178.06 260.36L180.68 271.75L191.16 275.10ZM272.51 248.31L269.90 236.90L259.40 233.54L251.52 241.59L254.13 253.00L264.62 256.36ZM254.13 253.00L251.52 241.59L241.02 238.23L233.14 246.28L235.76 257.68L246.25 261.04ZM259.40 233.54L256.79 222.13L246.29 218.77L238.41 226.82L241.02 238.23L251.52 241.59ZM267.23 267.76L264.62 256.36L254.13 253.00L246.25 261.04L248.86 272.44L259.35 275.80ZM99.46 256.41L96.83 245.03L86.35 241.70L78.51 249.75L81.14 261.13L91.62 264.47ZM81.14 261.13L78.51 249.75L68.03 246.42L60.19 254.48L62.83 265.86L73.30 269.18ZM44.52 270.58L41.89 259.20L31.42 255.88L23.59 263.94L26.23 275.31L36.69 278.63ZM49.72 251.15L47.08 239.77L36.61 236.44L28.78 244.50L31.42 255.88L41.89 259.20ZM31.42 255.88L28.78 244.50L18.30 241.18L10.48 249.24L13.12 260.62L23.59 263.94ZM62.83 265.86L60.19 254.48L49.72 251.15L41.89 259.20L44.52 270.58L54.99 273.91ZM123.01 232.25L120.38 220.86L109.90 217.53L102.05 225.58L104.68 236.97L115.16 240.31ZM104.68 236.97L102.05 225.58L91.56 222.25L83.72 230.31L86.35 241.70L96.83 245.03ZM128.24 212.80L125.61 201.41L115.12 198.07L107.27 206.13L109.90 217.53L120.38 220.86ZM109.90 217.53L107.27 206.13L96.78 202.80L88.93 210.86L91.56 222.25L102.05 225.58ZM136.12 246.98L133.49 235.59L123.01 232.25L115.16 240.31L117.79 251.70L128.27 255.04ZM117.79 251.70L115.16 240.31L104.68 236.97L96.83 245.03L99.46 256.41L109.94 259.75ZM141.35 227.54L138.73 216.14L128.24 212.80L120.38 220.86L123.01 232.25L133.49 235.59ZM73.24 226.98L70.60 215.59L60.12 212.26L52.28 220.33L54.92 231.71L65.40 235.04ZM54.92 231.71L52.28 220.33L41.80 217.00L33.97 225.06L36.61 236.44L47.08 239.77ZM78.45 207.53L75.81 196.14L65.33 192.81L57.48 200.88L60.12 212.26L70.60 215.59ZM60.12 212.26L57.48 200.88L47.00 197.55L39.16 205.62L41.80 217.00L52.28 220.33ZM86.35 241.70L83.72 230.31L73.24 226.98L65.40 235.04L68.03 246.42L78.51 249.75ZM68.03 246.42L65.40 235.04L54.92 231.71L47.08 239.77L49.72 251.15L60.19 254.48ZM91.56 222.25L88.93 210.86L78.45 207.53L70.60 215.59L73.24 226.98L83.72 230.31ZM149.23 261.72L146.61 250.33L136.12 246.98L128.27 255.04L130.89 266.42L141.37 269.77ZM130.89 266.42L128.27 255.04L117.79 251.70L109.94 259.75L112.57 271.13L123.04 274.47ZM259.56 106.60L256.94 95.17L246.42 91.81L238.52 99.89L241.14 111.31L251.66 114.67ZM241.14 111.31L238.52 99.89L228.01 96.53L220.11 104.61L222.74 116.03L233.25 119.38ZM264.85 87.10L262.23 75.66L251.71 72.31L243.80 80.38L246.42 91.81L256.94 95.17ZM246.42 91.81L243.80 80.38L233.28 77.03L225.39 85.11L228.01 96.53L238.52 99.89ZM272.69 121.38L270.08 109.96L259.56 106.60L251.66 114.67L254.28 126.09L264.79 129.45ZM254.28 126.09L251.66 114.67L241.14 111.31L233.25 119.38L235.87 130.80L246.38 134.16ZM209.60 101.26L206.98 89.83L196.46 86.49L188.58 94.56L191.20 105.98L201.71 109.33ZM191.20 105.98L188.58 94.56L178.06 91.22L170.18 99.30L172.81 110.71L183.32 114.06ZM214.87 81.76L212.25 70.33L201.73 66.98L193.84 75.06L196.46 86.49L206.98 89.83ZM196.46 86.49L193.84 75.06L183.32 71.72L175.44 79.80L178.06 91.22L188.58 94.56ZM222.74 116.03L220.11 104.61L209.60 101.26L201.71 109.33L204.34 120.75L214.85 124.10ZM204.34 120.75L201.71 109.33L191.20 105.98L183.32 114.06L185.94 125.47L196.45 128.82ZM228.01 96.53L225.39 85.11L214.87 81.76L206.98 89.83L209.60 101.26L220.11 104.61ZM270.14 67.59L267.52 56.15L256.99 52.79L249.09 60.87L251.71 72.31L262.23 75.66ZM275.43 48.07L272.81 36.63L262.28 33.27L254.37 41.36L256.99 52.79L267.52 56.15ZM238.56 57.52L235.94 46.09L225.42 42.73L217.52 50.82L220.14 62.25L230.66 65.60ZM220.14 62.25L217.52 50.82L207.00 47.47L199.10 55.55L201.73 66.98L212.25 70.33ZM243.85 38.00L241.23 26.56L230.70 23.21L222.80 31.30L225.42 42.73L235.94 46.09ZM225.42 42.73L222.80 31.30L212.27 27.95L204.37 36.04L207.00 47.47L217.52 50.82ZM251.71 72.31L249.09 60.87L238.56 57.52L230.66 65.60L233.28 77.03L243.80 80.38ZM233.28 77.03L230.66 65.60L220.14 62.25L212.25 70.33L214.87 81.76L225.39 85.11ZM256.99 52.79L254.37 41.36L243.85 38.00L235.94 46.09L238.56 57.52L249.09 60.87ZM262.12 160.36L259.51 148.94L249.00 145.58L241.10 153.65L243.72 165.06L254.23 168.42ZM267.40 140.88L264.79 129.45L254.28 126.09L246.38 134.16L249.00 145.58L259.51 148.94ZM275.24 175.14L272.63 163.72L262.12 160.36L254.23 168.42L256.84 179.84L267.35 183.20ZM230.59 150.29L227.98 138.87L217.47 135.52L209.58 143.59L212.20 155.00L222.71 158.35ZM212.20 155.00L209.58 143.59L199.07 140.24L191.19 148.30L193.82 159.72L204.32 163.07ZM235.87 130.80L233.25 119.38L222.74 116.03L214.85 124.10L217.47 135.52L227.98 138.87ZM217.47 135.52L214.85 124.10L204.34 120.75L196.45 128.82L199.07 140.24L209.58 143.59ZM243.72 165.06L241.10 153.65L230.59 150.29L222.71 158.35L225.33 169.77L235.83 173.12ZM225.33 169.77L222.71 158.35L212.20 155.00L204.32 163.07L206.94 174.48L217.44 177.83ZM249.00 145.58L246.38 134.16L235.87 130.80L227.98 138.87L230.59 150.29L241.10 153.65ZM130.81 139.67L128.18 128.26L117.68 124.92L109.82 133.00L112.45 144.40L122.95 147.74ZM112.45 144.40L109.82 133.00L99.32 129.67L91.46 137.74L94.10 149.14L104.59 152.47ZM136.05 120.18L133.42 108.77L122.91 105.44L115.05 113.51L117.68 124.92L128.18 128.26ZM117.68 124.92L115.05 113.51L104.55 110.18L96.68 118.26L99.32 129.67L109.82 133.00ZM143.94 154.41L141.31 143.00L130.81 139.67L122.95 147.74L125.58 159.14L136.07 162.48ZM125.58 159.14L122.95 147.74L112.45 144.40L104.59 152.47L107.22 163.88L117.72 167.21ZM149.18 134.93L146.55 123.52L136.05 120.18L128.18 128.26L130.81 139.67L141.31 143.00ZM80.97 134.41L78.33 123.01L67.83 119.68L59.98 127.76L62.62 139.16L73.11 142.49ZM62.62 139.16L59.98 127.76L49.49 124.44L41.64 132.52L44.28 143.91L54.77 147.24ZM86.18 114.93L83.55 103.53L73.05 100.20L65.19 108.28L67.83 119.68L78.33 123.01ZM67.83 119.68L65.19 108.28L54.70 104.96L46.84 113.04L49.49 124.44L59.98 127.76ZM94.10 149.14L91.46 137.74L80.97 134.41L73.11 142.49L75.75 153.89L86.24 157.21ZM75.75 153.89L73.11 142.49L62.62 139.16L54.77 147.24L57.41 158.63L67.90 161.96ZM99.32 129.67L96.68 118.26L86.18 114.93L78.33 123.01L80.97 134.41L91.46 137.74ZM159.67 95.96L157.04 84.54L146.53 81.20L138.66 89.28L141.29 100.70L151.80 104.03ZM141.29 100.70L138.66 89.28L128.15 85.94L120.28 94.03L122.91 105.44L133.42 108.77ZM164.92 76.46L162.29 65.04L151.78 61.70L143.90 69.78L146.53 81.20L157.04 84.54ZM146.53 81.20L143.90 69.78L133.39 66.44L125.52 74.53L128.15 85.94L138.66 89.28ZM172.81 110.71L170.18 99.30L159.67 95.96L151.80 104.03L154.43 115.45L164.93 118.79ZM154.43 115.45L151.80 104.03L141.29 100.70L133.42 108.77L136.05 120.18L146.55 123.52ZM178.06 91.22L175.44 79.80L164.92 76.46L157.04 84.54L159.67 95.96L170.18 99.30ZM109.78 90.69L107.14 79.28L96.63 75.95L88.77 84.04L91.41 95.45L101.91 98.77ZM91.41 95.45L88.77 84.04L78.27 80.71L70.41 88.79L73.05 100.20L83.55 103.53ZM115.01 71.20L112.37 59.78L101.86 56.45L94.00 64.54L96.63 75.95L107.14 79.28ZM96.63 75.95L94.00 64.54L83.49 61.21L75.63 69.30L78.27 80.71L88.77 84.04ZM122.91 105.44L120.28 94.03L109.78 90.69L101.91 98.77L104.55 110.18L115.05 113.51ZM104.55 110.18L101.91 98.77L91.41 95.45L83.55 103.53L86.18 114.93L96.68 118.26ZM128.15 85.94L125.52 74.53L115.01 71.20L107.14 79.28L109.78 90.69L120.28 94.03ZM151.83 188.62L149.20 177.22L138.70 173.88L130.84 181.95L133.47 193.35L143.96 196.69ZM133.47 193.35L130.84 181.95L120.35 178.61L112.49 186.67L115.12 198.07L125.61 201.41ZM157.07 169.16L154.44 157.75L143.94 154.41L136.07 162.48L138.70 173.88L149.20 177.22ZM138.70 173.88L136.07 162.48L125.58 159.14L117.72 167.21L120.35 178.61L130.84 181.95ZM164.94 203.37L162.32 191.97L151.83 188.62L143.96 196.69L146.59 208.08L157.08 211.43ZM146.59 208.08L143.96 196.69L133.47 193.35L125.61 201.41L128.24 212.80L138.73 216.14ZM170.19 183.91L167.56 172.50L157.07 169.16L149.20 177.22L151.83 188.62L162.32 191.97ZM102.00 183.34L99.37 171.94L88.88 168.61L81.02 176.68L83.66 188.07L94.15 191.40ZM83.66 188.07L81.02 176.68L70.54 173.35L62.69 181.42L65.33 192.81L75.81 196.14ZM107.22 163.88L104.59 152.47L94.10 149.14L86.24 157.21L88.88 168.61L99.37 171.94ZM88.88 168.61L86.24 157.21L75.75 153.89L67.90 161.96L70.54 173.35L81.02 176.68ZM115.12 198.07L112.49 186.67L102.00 183.34L94.15 191.40L96.78 202.80L107.27 206.13ZM96.78 202.80L94.15 191.40L83.66 188.07L75.81 196.14L78.45 207.53L88.93 210.86ZM120.35 178.61L117.72 167.21L107.22 163.88L99.37 171.94L102.00 183.34L112.49 186.67ZM180.69 144.96L178.06 133.55L167.56 130.20L159.68 138.27L162.31 149.68L172.81 153.03ZM162.31 149.68L159.68 138.27L149.18 134.93L141.31 143.00L143.94 154.41L154.44 157.75ZM185.94 125.47L183.32 114.06L172.81 110.71L164.93 118.79L167.56 130.20L178.06 133.55ZM167.56 130.20L164.93 118.79L154.43 115.45L146.55 123.52L149.18 134.93L159.68 138.27ZM193.82 159.72L191.19 148.30L180.69 144.96L172.81 153.03L175.44 164.44L185.94 167.78ZM175.44 164.44L172.81 153.03L162.31 149.68L154.44 157.75L157.07 169.16L167.56 172.50ZM199.07 140.24L196.45 128.82L185.94 125.47L178.06 133.55L180.69 144.96L191.19 148.30Z"/></svg>
