<svg xmlns="http://www.w3.org/2000/svg" width="256" height="256" viewBox="0 0 256 256"><path data-band="3" fill="#dc2626" fill-opacity="0.35" d="M7.94 24.04L5.30 12.67L-5.17 9.35L-12.99 17.41L-10.34 28.78L0.12 32.09ZM13.12 4.62L10.48 -6.76L0.01 -10.08L-7.81 -2.02L-5.17 9.35L5.30 12.67ZM0.33 116.35L-2.31 105.00L-12.76 101.68L-20.56 109.72L-17.92 121.07L-7.47 124.39ZM5.51 96.96L2.87 85.60L-7.59 82.28L-15.40 90.32L-12.76 101.68L-2.31 105.00ZM15.86 58.15L13.22 46.78L2.76 43.46L-5.06 51.51L-2.42 62.87L8.04 66.19ZM21.04 38.73L18.40 27.36L7.94 24.04L0.12 32.09L2.76 43.46L13.22 46.78ZM2.76 43.46L0.12 32.09L-10.34 28.78L-18.16 36.83L-15.51 48.19L-5.06 51.51ZM28.96 72.84L26.32 61.47L15.86 58.15L8.04 66.19L10.68 77.56L21.14 80.88ZM10.68 77.56L8.04 66.19L-2.42 62.87L-10.23 70.92L-7.59 82.28L2.87 85.60ZM34.14 53.42L31.50 42.05L21.04 38.73L13.22 46.78L15.86 58.15L26.32 61.47ZM50.18 247.84L47.56 236.50L37.12 233.17L29.32 241.18L31.95 252.52L42.38 255.85ZM31.95 252.52L29.32 241.18L18.89 237.85L11.09 245.86L13.72 257.20L24.15 260.53ZM55.36 228.49L52.74 217.14L42.30 213.81L34.49 221.83L37.12 233.17L47.56 236.50ZM37.12 233.17L34.49 221.83L24.05 218.50L16.25 226.51L18.89 237.85L29.32 241.18ZM63.24 262.52L60.62 251.18L50.18 247.84L42.38 255.85L45.01 267.19L55.44 270.52ZM45.01 267.19L42.38 255.85L31.95 252.52L24.15 260.53L26.78 271.86L37.21 275.19ZM68.43 243.17L65.80 231.82L55.36 228.49L47.56 236.50L50.18 247.84L60.62 251.18ZM0.66 242.54L-1.98 231.20L-12.41 227.88L-20.20 235.90L-17.56 247.23L-7.14 250.55ZM5.82 223.19L3.19 211.85L-7.25 208.52L-15.04 216.54L-12.41 227.88L-1.98 231.20ZM13.72 257.20L11.09 245.86L0.66 242.54L-7.14 250.55L-4.50 261.89L5.92 265.21ZM18.89 237.85L16.25 226.51L5.82 223.19L-1.98 231.20L0.66 242.54L11.09 245.86ZM57.85 155.69L55.22 144.34L44.77 141.01L36.95 149.03L39.58 160.39L50.03 163.72ZM39.58 160.39L36.95 149.03L26.50 145.71L18.69 153.74L21.33 165.09L31.77 168.41ZM63.04 136.31L60.41 124.95L49.95 121.62L42.13 129.65L44.77 141.01L55.22 144.34ZM44.77 141.01L42.13 129.65L31.68 126.32L23.87 134.35L26.50 145.71L36.95 149.03ZM70.92 170.38L68.30 159.03L57.85 155.69L50.03 163.72L52.66 175.07L63.11 178.40ZM52.66 175.07L50.03 163.72L39.58 160.39L31.77 168.41L34.40 179.77L44.85 183.09ZM76.12 151.00L73.49 139.64L63.04 136.31L55.22 144.34L57.85 155.69L68.30 159.03ZM8.25 150.41L5.61 139.06L-4.83 135.74L-12.64 143.77L-10.00 155.12L0.44 158.44ZM13.42 131.03L10.78 119.67L0.33 116.35L-7.47 124.39L-4.83 135.74L5.61 139.06ZM21.33 165.09L18.69 153.74L8.25 150.41L0.44 158.44L3.08 169.79L13.52 173.11ZM3.08 169.79L0.44 158.44L-10.00 155.12L-17.80 163.15L-15.16 174.50L-4.72 177.82ZM26.50 145.71L23.87 134.35L13.42 131.03L5.61 139.06L8.25 150.41L18.69 153.74ZM86.52 112.22L83.89 100.85L73.43 97.52L65.60 105.55L68.23 116.91L78.69 120.25ZM68.23 116.91L65.60 105.55L55.14 102.22L47.32 110.25L49.95 121.62L60.41 124.95ZM91.72 92.81L89.09 81.44L78.63 78.11L70.80 86.15L73.43 97.52L83.89 100.85ZM73.43 97.52L70.80 86.15L60.33 82.82L52.51 90.85L55.14 102.22L65.60 105.55ZM99.60 126.92L96.97 115.55L86.52 112.22L78.69 120.25L81.31 131.61L91.77 134.95ZM81.31 131.61L78.69 120.25L68.23 116.91L60.41 124.95L63.04 136.31L73.49 139.64ZM104.81 107.52L102.18 96.15L91.72 92.81L83.89 100.85L86.52 112.22L96.97 115.55ZM36.87 106.93L34.23 95.57L23.77 92.24L15.96 100.28L18.60 111.64L29.05 114.96ZM18.60 111.64L15.96 100.28L5.51 96.96L-2.31 105.00L0.33 116.35L10.78 119.67ZM42.05 87.53L39.42 76.16L28.96 72.84L21.14 80.88L23.77 92.24L34.23 95.57ZM23.77 92.24L21.14 80.88L10.68 77.56L2.87 85.60L5.51 96.96L15.96 100.28ZM49.95 121.62L47.32 110.25L36.87 106.93L29.05 114.96L31.68 126.32L42.13 129.65ZM31.68 126.32L29.05 114.96L18.60 111.64L10.78 119.67L13.42 131.03L23.87 134.35ZM55.14 102.22L52.51 90.85L42.05 87.53L34.23 95.57L36.87 106.93L47.32 110.25ZM78.81 204.44L76.18 193.09L65.73 189.76L57.92 197.78L60.55 209.13L70.99 212.46ZM60.55 209.13L57.92 197.78L47.48 194.44L39.67 202.46L42.30 213.81L52.74 217.14ZM84.00 185.07L81.37 173.72L70.92 170.38L63.11 178.40L65.73 189.76L76.18 193.09ZM65.73 189.76L63.11 178.40L52.66 175.07L44.85 183.09L47.48 194.44L57.92 197.78ZM91.87 219.13L89.25 207.78L78.81 204.44L70.99 212.46L73.61 223.81L84.06 227.15ZM73.61 223.81L70.99 212.46L60.55 209.13L52.74 217.14L55.36 228.49L65.80 231.82ZM97.07 199.77L94.45 188.41L84.00 185.07L76.18 193.09L78.81 204.44L89.25 207.78ZM29.23 199.13L26.60 187.79L16.15 184.46L8.35 192.48L10.99 203.83L21.42 207.15ZM10.99 203.83L8.35 192.48L-2.09 189.16L-9.89 197.18L-7.25 208.52L3.19 211.85ZM34.40 179.77L31.77 168.41L21.33 165.09L13.52 173.11L16.15 184.46L26.60 187.79ZM16.15 184.46L13.52 173.11L3.08 169.79L-4.72 177.82L-2.09 189.16L8.35 192.48ZM42.30 213.81L39.67 202.46L29.23 199.13L21.42 207.15L24.05 218.50L34.49 221.83ZM24.05 218.50L21.42 207.15L10.99 203.83L3.19 211.85L5.82 223.19L16.25 226.51ZM47.48 194.44L44.85 183.09L34.40 179.77L26.60 187.79L29.23 199.13L39.67 202.46ZM107.48 161.01L104.85 149.65L94.40 146.31L86.57 154.34L89.20 165.70L99.65 169.03ZM89.20 165.70L86.57 154.34L76.12 151.00L68.30 159.03L70.92 170.38L81.37 173.72ZM112.68 141.62L110.06 130.26L99.60 126.92L91.77 134.95L94.40 146.31L104.85 149.65ZM94.40 146.31L91.77 134.95L81.31 131.61L73.49 139.64L76.12 151.00L86.57 154.34ZM120.55 175.72L117.93 164.35L107.48 161.01L99.65 169.03L102.27 180.39L112.72 183.73ZM102.27 180.39L99.65 169.03L89.20 165.70L81.37 173.72L84.00 185.07L94.45 188.41ZM125.76 156.33L123.14 144.97L112.68 141.62L104.85 149.65L107.48 161.01L117.93 164.35ZM149.33 258.56L146.71 247.21L136.27 243.86L128.44 251.86L131.06 263.21L141.50 266.56ZM131.06 263.21L128.44 251.86L118.00 248.52L110.18 256.52L112.80 267.87L123.24 271.22ZM154.54 239.20L151.93 227.85L141.48 224.50L133.65 232.51L136.27 243.86L146.71 247.21ZM136.27 243.86L133.65 232.51L123.20 229.16L115.38 237.17L118.00 248.52L128.44 251.86ZM167.60 253.91L164.99 242.55L154.54 239.20L146.71 247.21L149.33 258.56L159.77 261.91ZM99.74 253.18L97.12 241.83L86.68 238.49L78.86 246.50L81.49 257.85L91.92 261.19ZM81.49 257.85L78.86 246.50L68.43 243.17L60.62 251.18L63.24 262.52L73.68 265.85ZM104.94 233.83L102.32 222.47L91.87 219.13L84.06 227.15L86.68 238.49L97.12 241.83ZM86.68 238.49L84.06 227.15L73.61 223.81L65.80 231.82L68.43 243.17L78.86 246.50ZM112.80 267.87L110.18 256.52L99.74 253.18L91.92 261.19L94.55 272.53L104.98 275.87ZM118.00 248.52L115.38 237.17L104.94 233.83L97.12 241.83L99.74 253.18L110.18 256.52ZM178.05 215.18L175.44 203.82L164.98 200.47L157.15 208.48L159.76 219.84L170.21 223.19ZM159.76 219.84L157.15 208.48L146.69 205.13L138.86 213.14L141.48 224.50L151.93 227.85ZM183.28 195.81L180.67 184.44L170.21 181.09L162.37 189.10L164.98 200.47L175.44 203.82ZM164.98 200.47L162.37 189.10L151.91 185.75L144.08 193.77L146.69 205.13L157.15 208.48ZM191.11 229.90L188.50 218.54L178.05 215.18L170.21 223.19L172.82 234.55L183.27 237.90ZM172.82 234.55L170.21 223.19L159.76 219.84L151.93 227.85L154.54 239.20L164.99 242.55ZM196.35 210.53L193.74 199.16L183.28 195.81L175.44 203.82L178.05 215.18L188.50 218.54ZM128.41 209.79L125.79 198.44L115.34 195.09L107.52 203.11L110.14 214.46L120.59 217.81ZM110.14 214.46L107.52 203.11L97.07 199.77L89.25 207.78L91.87 219.13L102.32 222.47ZM133.62 190.42L131.00 179.06L120.55 175.72L112.72 183.73L115.34 195.09L125.79 198.44ZM115.34 195.09L112.72 183.73L102.27 180.39L94.45 188.41L97.07 199.77L107.52 203.11ZM141.48 224.50L138.86 213.14L128.41 209.79L120.59 217.81L123.20 229.16L133.65 232.51ZM123.20 229.16L120.59 217.81L110.14 214.46L102.32 222.47L104.94 233.83L115.38 237.17ZM146.69 205.13L144.08 193.77L133.62 190.42L125.79 198.44L128.41 209.79L138.86 213.14ZM198.94 263.98L196.33 252.62L185.88 249.26L178.05 257.26L180.66 268.62L191.10 271.98ZM180.66 268.62L178.05 257.26L167.60 253.91L159.77 261.91L162.38 273.26L172.83 276.62ZM204.17 244.62L201.57 233.26L191.11 229.90L183.27 237.90L185.88 249.26L196.33 252.62ZM185.88 249.26L183.27 237.90L172.82 234.55L164.99 242.55L167.60 253.91L178.05 257.26ZM217.23 259.34L214.63 247.98L204.17 244.62L196.33 252.62L198.94 263.98L209.39 267.34ZM235.76 1.68L233.14 -9.72L222.65 -13.08L214.77 -5.03L217.39 6.37L227.88 9.72ZM217.39 6.37L214.77 -5.03L204.28 -8.38L196.41 -0.34L199.03 11.06L209.52 14.41ZM185.92 -3.69L183.30 -15.08L172.81 -18.43L164.95 -10.38L167.57 1.01L178.06 4.36ZM167.57 1.01L164.95 -10.38L154.46 -13.72L146.61 -5.67L149.23 5.72L159.71 9.06ZM243.59 35.88L240.98 24.48L230.49 21.12L222.62 29.16L225.23 40.56L235.72 43.92ZM225.23 40.56L222.62 29.16L212.13 25.81L204.26 33.85L206.88 45.24L217.36 48.60ZM248.86 16.44L246.25 5.04L235.76 1.68L227.88 9.72L230.49 21.12L240.98 24.48ZM230.49 21.12L227.88 9.72L217.39 6.37L209.52 14.41L212.13 25.81L222.62 29.16ZM256.69 50.64L254.08 39.24L243.59 35.88L235.72 43.92L238.33 55.31L248.81 58.67ZM238.33 55.31L235.72 43.92L225.23 40.56L217.36 48.60L219.98 59.99L230.46 63.35ZM261.96 31.20L259.35 19.80L248.86 16.44L240.98 24.48L243.59 35.88L254.08 39.24ZM193.78 30.50L191.16 19.10L180.68 15.75L172.82 23.80L175.44 35.19L185.92 38.54ZM175.44 35.19L172.82 23.80L162.33 20.45L154.48 28.50L157.10 39.88L167.58 43.23ZM199.03 11.06L196.41 -0.34L185.92 -3.69L178.06 4.36L180.68 15.75L191.16 19.10ZM180.68 15.75L178.06 4.36L167.57 1.01L159.71 9.06L162.33 20.45L172.82 23.80ZM206.88 45.24L204.26 33.85L193.78 30.50L185.92 38.54L188.54 49.93L199.02 53.28ZM188.54 49.93L185.92 38.54L175.44 35.19L167.58 43.23L170.20 54.62L180.68 57.97ZM212.13 25.81L209.52 14.41L199.03 11.06L191.16 19.10L193.78 30.50L204.26 33.85ZM272.51 -7.69L269.90 -19.10L259.40 -22.46L251.52 -14.41L254.13 -3.00L264.62 0.36ZM254.13 -3.00L251.52 -14.41L241.02 -17.77L233.14 -9.72L235.76 1.68L246.25 5.04ZM267.23 11.76L264.62 0.36L254.13 -3.00L246.25 5.04L248.86 16.44L259.35 19.80ZM94.25 19.85L91.62 8.47L81.14 5.13L73.30 13.18L75.93 24.56L86.41 27.90ZM75.93 24.56L73.30 13.18L62.83 9.86L54.99 17.91L57.63 29.28L68.10 32.61ZM99.46 0.41L96.83 -10.97L86.35 -14.30L78.51 -6.25L81.14 5.13L91.62 8.47ZM81.14 5.13L78.51 -6.25L68.03 -9.58L60.19 -1.52L62.83 9.86L73.30 13.18ZM107.35 34.56L104.72 23.18L94.25 19.85L86.41 27.90L89.04 39.28L99.51 42.61ZM89.04 39.28L86.41 27.90L75.93 24.56L68.10 32.61L70.73 43.99L81.20 47.32ZM112.57 15.13L109.94 3.75L99.46 0.41L91.62 8.47L94.25 19.85L104.72 23.18ZM44.52 14.58L41.89 3.20L31.42 -0.12L23.59 7.94L26.23 19.31L36.69 22.63ZM26.23 19.31L23.59 7.94L13.12 4.62L5.30 12.67L7.94 24.04L18.40 27.36ZM49.72 -4.85L47.08 -16.23L36.61 -19.56L28.78 -11.50L31.42 -0.12L41.89 3.20ZM31.42 -0.12L28.78 -11.50L18.30 -14.82L10.48 -6.76L13.12 4.62L23.59 7.94ZM57.63 29.28L54.99 17.91L44.52 14.58L36.69 22.63L39.33 34.01L49.80 37.33ZM39.33 34.01L36.69 22.63L26.23 19.31L18.40 27.36L21.04 38.73L31.50 42.05ZM62.83 9.86L60.19 -1.52L49.72 -4.85L41.89 3.20L44.52 14.58L54.99 17.91ZM117.79 -4.30L115.16 -15.69L104.68 -19.03L96.83 -10.97L99.46 0.41L109.94 3.75ZM115.23 68.70L112.61 57.32L102.14 53.99L94.30 62.03L96.93 73.40L107.39 76.74ZM96.93 73.40L94.30 62.03L83.83 58.70L76.00 66.74L78.63 78.11L89.09 81.44ZM120.45 49.28L117.82 37.90L107.35 34.56L99.51 42.61L102.14 53.99L112.61 57.32ZM102.14 53.99L99.51 42.61L89.04 39.28L81.20 47.32L83.83 58.70L94.30 62.03ZM128.33 83.42L125.70 72.04L115.23 68.70L107.39 76.74L110.02 88.12L120.48 91.45ZM110.02 88.12L107.39 76.74L96.93 73.40L89.09 81.44L91.72 92.81L102.18 96.15ZM133.55 64.00L130.92 52.62L120.45 49.28L112.61 57.32L115.23 68.70L125.70 72.04ZM65.53 63.41L62.90 52.03L52.43 48.70L44.60 56.75L47.24 68.12L57.70 71.45ZM47.24 68.12L44.60 56.75L34.14 53.42L26.32 61.47L28.96 72.84L39.42 76.16ZM70.73 43.99L68.10 32.61L57.63 29.28L49.80 37.33L52.43 48.70L62.90 52.03ZM52.43 48.70L49.80 37.33L39.33 34.01L31.50 42.05L34.14 53.42L44.60 56.75ZM78.63 78.11L76.00 66.74L65.53 63.41L57.70 71.45L60.33 82.82L70.80 86.15ZM60.33 82.82L57.70 71.45L47.24 68.12L39.42 76.16L42.05 87.53L52.51 90.85ZM83.83 58.70L81.20 47.32L70.73 43.99L62.90 52.03L65.53 63.41L76.00 66.74ZM144.00 25.15L141.37 13.77L130.89 10.42L123.04 18.47L125.67 29.86L136.15 33.20ZM125.67 29.86L123.04 18.47L112.57 15.13L104.72 23.18L107.35 34.56L117.82 37.90ZM149.23 5.72L146.61 -5.67L136.12 -9.02L128.27 -0.96L130.89 10.42L141.37 13.77ZM130.89 10.42L128.27 -0.96L117.79 -4.30L109.94 3.75L112.57 15.13L123.04 18.47ZM157.10 39.88L154.48 28.50L144.00 25.15L136.15 33.20L138.77 44.58L149.25 47.93ZM138.77 44.58L136.15 33.20L125.67 29.86L117.82 37.90L120.45 49.28L130.92 52.62ZM162.33 20.45L159.71 9.06L149.23 5.72L141.37 13.77L144.00 25.15L154.48 28.50ZM264.51 84.83L261.91 73.43L251.42 70.07L243.55 78.10L246.16 89.49L256.64 92.85ZM246.16 89.49L243.55 78.10L233.07 74.74L225.20 82.77L227.81 94.16L238.29 97.52ZM269.78 65.40L267.18 54.00L256.69 50.64L248.81 58.67L251.42 70.07L261.91 73.43ZM251.42 70.07L248.81 58.67L238.33 55.31L230.46 63.35L233.07 74.74L243.55 78.10ZM259.25 104.24L256.64 92.85L246.16 89.49L238.29 97.52L240.90 108.91L251.38 112.27ZM275.06 45.97L272.45 34.57L261.96 31.20L254.08 39.24L256.69 50.64L267.18 54.00ZM267.06 138.41L264.46 127.02L253.98 123.65L246.12 131.68L248.72 143.06L259.19 146.42ZM272.33 119.00L269.73 107.61L259.25 104.24L251.38 112.27L253.98 123.65L264.46 127.02ZM185.90 122.91L183.29 111.53L172.82 108.18L164.97 116.21L167.59 127.58L178.05 130.93ZM167.59 127.58L164.97 116.21L154.50 112.86L146.66 120.89L149.28 132.26L159.74 135.61ZM191.14 103.50L188.53 92.12L178.05 88.77L170.20 96.80L172.82 108.18L183.29 111.53ZM172.82 108.18L170.20 96.80L159.73 93.45L151.88 101.48L154.50 112.86L164.97 116.21ZM198.99 137.64L196.37 126.26L185.90 122.91L178.05 130.93L180.67 142.31L191.13 145.66ZM180.67 142.31L178.05 130.93L167.59 127.58L159.74 135.61L162.36 146.98L172.82 150.33ZM204.23 118.24L201.61 106.86L191.14 103.50L183.29 111.53L185.90 122.91L196.37 126.26ZM136.19 117.54L133.57 106.17L123.11 102.83L115.27 110.86L117.89 122.23L128.35 125.57ZM117.89 122.23L115.27 110.86L104.81 107.52L96.97 115.55L99.60 126.92L110.06 130.26ZM141.42 98.14L138.79 86.76L128.33 83.42L120.48 91.45L123.11 102.83L133.57 106.17ZM123.11 102.83L120.48 91.45L110.02 88.12L102.18 96.15L104.81 107.52L115.27 110.86ZM149.28 132.26L146.66 120.89L136.19 117.54L128.35 125.57L130.98 136.94L141.44 140.29ZM130.98 136.94L128.35 125.57L117.89 122.23L110.06 130.26L112.68 141.62L123.14 144.97ZM154.50 112.86L151.88 101.48L141.42 98.14L133.57 106.17L136.19 117.54L146.66 120.89ZM214.72 79.41L212.11 68.02L201.63 64.67L193.77 72.70L196.39 84.09L206.86 87.44ZM196.39 84.09L193.77 72.70L183.29 69.35L175.44 77.39L178.05 88.77L188.53 92.12ZM219.98 59.99L217.36 48.60L206.88 45.24L199.02 53.28L201.63 64.67L212.11 68.02ZM201.63 64.67L199.02 53.28L188.54 49.93L180.68 57.97L183.29 69.35L193.77 72.70ZM227.81 94.16L225.20 82.77L214.72 79.41L206.86 87.44L209.47 98.83L219.95 102.19ZM209.47 98.83L206.86 87.44L196.39 84.09L188.53 92.12L191.14 103.50L201.61 106.86ZM233.07 74.74L230.46 63.35L219.98 59.99L212.11 68.02L214.72 79.41L225.20 82.77ZM164.96 74.04L162.34 62.66L151.87 59.31L144.02 67.35L146.64 78.73L157.11 82.07ZM146.64 78.73L144.02 67.35L133.55 64.00L125.70 72.04L128.33 83.42L138.79 86.76ZM170.20 54.62L167.58 43.23L157.10 39.88L149.25 47.93L151.87 59.31L162.34 62.66ZM151.87 59.31L149.25 47.93L138.77 44.58L130.92 52.62L133.55 64.00L144.02 67.35ZM178.05 88.77L175.44 77.39L164.96 74.04L157.11 82.07L159.73 93.45L170.20 96.80ZM159.73 93.45L157.11 82.07L146.64 78.73L138.79 86.76L141.42 98.14L151.88 101.48ZM183.29 69.35L180.68 57.97L170.20 54.62L162.34 62.66L164.96 74.04L175.44 77.39ZM206.82 171.77L204.21 160.39L193.75 157.04L185.90 165.05L188.51 176.42L198.97 179.78ZM188.51 176.42L185.90 165.05L175.44 161.70L167.59 169.72L170.21 181.09L180.67 184.44ZM212.06 152.37L209.45 141.00L198.99 137.64L191.13 145.66L193.75 157.04L204.21 160.39ZM193.75 157.04L191.13 145.66L180.67 142.31L172.82 150.33L175.44 161.70L185.90 165.05ZM219.89 186.50L217.28 175.12L206.82 171.77L198.97 179.78L201.58 191.15L212.04 194.51ZM201.58 191.15L198.97 179.78L188.51 176.42L180.67 184.44L183.28 195.81L193.74 199.16ZM225.14 167.11L222.53 155.73L212.06 152.37L204.21 160.39L206.82 171.77L217.28 175.12ZM157.13 166.37L154.52 155.00L144.06 151.65L136.22 159.68L138.84 171.04L149.29 174.39ZM138.84 171.04L136.22 159.68L125.76 156.33L117.93 164.35L120.55 175.72L131.00 179.06ZM162.36 146.98L159.74 135.61L149.28 132.26L141.44 140.29L144.06 151.65L154.52 155.00ZM144.06 151.65L141.44 140.29L130.98 136.94L123.14 144.97L125.76 156.33L136.22 159.68ZM170.21 181.09L167.59 169.72L157.13 166.37L149.29 174.39L151.91 185.75L162.37 189.10ZM151.91 185.75L149.29 174.39L138.84 171.04L131.00 179.06L133.62 190.42L144.08 193.77ZM175.44 161.70L172.82 150.33L162.36 146.98L154.52 155.00L157.13 166.37L167.59 169.72ZM235.64 128.31L233.03 116.93L222.56 113.57L214.70 121.59L217.31 132.98L227.78 136.33ZM217.31 132.98L214.70 121.59L204.23 118.24L196.37 126.26L198.99 137.64L209.45 141.00ZM240.90 108.91L238.29 97.52L227.81 94.16L219.95 102.19L222.56 113.57L233.03 116.93ZM222.56 113.57L219.95 102.19L209.47 98.83L201.61 106.86L204.23 118.24L214.70 121.59ZM248.72 143.06L246.12 131.68L235.64 128.31L227.78 136.33L230.39 147.71L240.86 151.08ZM230.39 147.71L227.78 136.33L217.31 132.98L209.45 141.00L212.06 152.37L222.53 155.73ZM253.98 123.65L251.38 112.27L240.90 108.91L233.03 116.93L235.64 128.31L246.12 131.68ZM259.09 230.70L256.49 219.33L246.03 215.97L238.17 223.97L240.78 235.34L251.23 238.70ZM264.35 211.33L261.75 199.95L251.28 196.59L243.42 204.59L246.03 215.97L256.49 219.33ZM272.15 245.44L269.55 234.07L259.09 230.70L251.23 238.70L253.84 250.07L264.29 253.44ZM227.72 220.61L225.11 209.24L214.65 205.88L206.80 213.89L209.41 225.25L219.87 228.61ZM209.41 225.25L206.80 213.89L196.35 210.53L188.50 218.54L191.11 229.90L201.57 233.26ZM232.96 201.23L230.36 189.86L219.89 186.50L212.04 194.51L214.65 205.88L225.11 209.24ZM214.65 205.88L212.04 194.51L201.58 191.15L193.74 199.16L196.35 210.53L206.80 213.89ZM240.78 235.34L238.17 223.97L227.72 220.61L219.87 228.61L222.47 239.98L232.93 243.34ZM222.47 239.98L219.87 228.61L209.41 225.25L201.57 233.26L204.17 244.62L214.63 247.98ZM246.03 215.97L243.42 204.59L232.96 201.23L225.11 209.24L227.72 220.61L238.17 223.97ZM256.54 177.20L253.93 165.82L243.47 162.46L235.61 170.47L238.21 181.85L248.68 185.21ZM238.21 181.85L235.61 170.47L225.14 167.11L217.28 175.12L219.89 186.50L230.36 189.86ZM261.80 157.81L259.19 146.42L248.72 143.06L240.86 151.08L243.47 162.46L253.93 165.82ZM243.47 162.46L240.86 151.08L230.39 147.71L222.53 155.73L225.14 167.11L235.61 170.47ZM269.61 191.94L267.01 180.57L256.54 177.20L248.68 185.21L251.28 196.59L261.75 199.95ZM251.28 196.59L248.68 185.21L238.21 181.85L230.36 189.86L232.96 201.23L243.42 204.59ZM274.87 172.56L272.27 161.17L261.80 157.81L253.93 165.82L256.54 177.20L267.01 180.57ZM248.59 269.43L245.98 258.07L235.53 254.70L227.68 262.70L230.29 274.06L240.74 277.43ZM253.84 250.07L251.23 238.70L240.78 235.34L232.93 243.34L235.53 254.70L245.98 258.07ZM235.53 254.70L232.93 243.34L222.47 239.98L214.63 247.98L217.23 259.34L227.68 262.70ZM266.89 264.81L264.29 253.44L253.84 250.07L245.98 258.07L248.59 269.43L259.04 272.80Z"/></svg>
