<svg xmlns="http://www.w3.org/2000/svg" width="256" height="256" viewBox="0 0 256 256"><path data-band="2" fill="#f97316" fill-opacity="0.35" d="M27.33 267.45L24.70 256.15L14.31 252.82L6.55 260.78L9.17 272.08L19.56 275.41ZM14.31 252.82L11.69 241.52L1.30 238.19L-6.46 246.16L-3.84 257.45L6.55 260.78Z"/><path data-band="3" fill="#dc2626" fill-opacity="0.35" d="M21.61 35.20L18.98 23.87L8.56 20.54L0.77 28.55L3.40 39.88L13.82 43.20ZM3.40 39.88L0.77 28.55L-9.66 25.22L-17.44 33.23L-14.81 44.56L-4.39 47.88ZM26.78 15.86L24.15 4.53L13.72 1.20L5.92 9.21L8.56 20.54L18.98 23.87ZM8.56 20.54L5.92 9.21L-4.50 5.89L-12.29 13.89L-9.66 25.22L0.77 28.55ZM34.66 49.86L32.04 38.53L21.61 35.20L13.82 43.20L16.45 54.53L26.87 57.86ZM16.45 54.53L13.82 43.20L3.40 39.88L-4.39 47.88L-1.76 59.21L8.66 62.53ZM39.83 30.53L37.21 19.19L26.78 15.86L18.98 23.87L21.61 35.20L32.04 38.53ZM31.95 -3.48L29.32 -14.82L18.89 -18.15L11.09 -10.14L13.72 1.20L24.15 4.53ZM63.24 6.52L60.62 -4.82L50.18 -8.16L42.38 -0.15L45.01 11.19L55.44 14.52ZM45.01 11.19L42.38 -0.15L31.95 -3.48L24.15 4.53L26.78 15.86L37.21 19.19ZM13.72 1.20L11.09 -10.14L0.66 -13.46L-7.14 -5.45L-4.50 5.89L5.92 9.21ZM42.54 83.85L39.92 72.52L29.50 69.19L21.71 77.19L24.33 88.51L34.75 91.84ZM24.33 88.51L21.71 77.19L11.29 73.86L3.50 81.85L6.13 93.17L16.55 96.50ZM47.71 64.53L45.09 53.20L34.66 49.86L26.87 57.86L29.50 69.19L39.92 72.52ZM29.50 69.19L26.87 57.86L16.45 54.53L8.66 62.53L11.29 73.86L21.71 77.19ZM55.59 98.51L52.96 87.19L42.54 83.85L34.75 91.84L37.38 103.17L47.79 106.50ZM37.38 103.17L34.75 91.84L24.33 88.51L16.55 96.50L19.17 107.82L29.59 111.16ZM60.76 79.19L58.14 67.86L47.71 64.53L39.92 72.52L42.54 83.85L52.96 87.19ZM6.13 93.17L3.50 81.85L-6.91 78.53L-14.69 86.52L-12.06 97.84L-1.65 101.17ZM11.29 73.86L8.66 62.53L-1.76 59.21L-9.54 67.20L-6.91 78.53L3.50 81.85ZM71.12 40.53L68.49 29.20L58.06 25.86L50.26 33.86L52.89 45.20L63.31 48.53ZM52.89 45.20L50.26 33.86L39.83 30.53L32.04 38.53L34.66 49.86L45.09 53.20ZM76.30 21.19L73.68 9.85L63.24 6.52L55.44 14.52L58.06 25.86L68.49 29.20ZM58.06 25.86L55.44 14.52L45.01 11.19L37.21 19.19L39.83 30.53L50.26 33.86ZM84.17 55.21L81.55 43.87L71.12 40.53L63.31 48.53L65.94 59.87L76.36 63.21ZM65.94 59.87L63.31 48.53L52.89 45.20L45.09 53.20L47.71 64.53L58.14 67.86ZM89.36 35.87L86.73 24.53L76.30 21.19L68.49 29.20L71.12 40.53L81.55 43.87ZM112.91 137.88L110.30 126.55L99.88 123.20L92.08 131.19L94.70 142.51L105.11 145.86ZM94.70 142.51L92.08 131.19L81.66 127.84L73.87 135.82L76.48 147.15L86.90 150.49ZM118.11 118.57L115.49 107.23L105.07 103.89L97.26 111.87L99.88 123.20L110.30 126.55ZM99.88 123.20L97.26 111.87L86.84 108.53L79.04 116.52L81.66 127.84L92.08 131.19ZM125.95 152.55L123.33 141.22L112.91 137.88L105.11 145.86L107.73 157.18L118.14 160.53ZM107.73 157.18L105.11 145.86L94.70 142.51L86.90 150.49L89.51 161.81L99.93 165.16ZM131.14 133.25L128.53 121.92L118.11 118.57L110.30 126.55L112.91 137.88L123.33 141.22ZM63.45 132.48L60.83 121.16L50.42 117.82L42.62 125.81L45.25 137.13L55.66 140.47ZM45.25 137.13L42.62 125.81L32.21 122.48L24.43 130.46L27.05 141.78L37.46 145.11ZM68.63 113.18L66.00 101.85L55.59 98.51L47.79 106.50L50.42 117.82L60.83 121.16ZM50.42 117.82L47.79 106.50L37.38 103.17L29.59 111.16L32.21 122.48L42.62 125.81ZM76.48 147.15L73.87 135.82L63.45 132.48L55.66 140.47L58.28 151.79L68.69 155.13ZM58.28 151.79L55.66 140.47L45.25 137.13L37.46 145.11L40.08 156.43L50.49 159.77ZM81.66 127.84L79.04 116.52L68.63 113.18L60.83 121.16L63.45 132.48L73.87 135.82ZM141.54 94.61L138.93 83.27L128.50 79.93L120.69 87.91L123.30 99.25L133.73 102.60ZM123.30 99.25L120.69 87.91L110.26 84.57L102.45 92.56L105.07 103.89L115.49 107.23ZM146.75 75.29L144.13 63.94L133.70 60.59L125.88 68.59L128.50 79.93L138.93 83.27ZM128.50 79.93L125.88 68.59L115.45 65.24L107.64 73.23L110.26 84.57L120.69 87.91ZM154.58 109.30L151.97 97.96L141.54 94.61L133.73 102.60L136.34 113.93L146.76 117.28ZM136.34 113.93L133.73 102.60L123.30 99.25L115.49 107.23L118.11 118.57L128.53 121.92ZM159.79 89.98L157.18 78.64L146.75 75.29L138.93 83.27L141.54 94.61L151.97 97.96ZM92.03 89.21L89.41 77.88L78.98 74.54L71.18 82.53L73.80 93.86L84.22 97.20ZM73.80 93.86L71.18 82.53L60.76 79.19L52.96 87.19L55.59 98.51L66.00 101.85ZM97.22 69.89L94.60 58.55L84.17 55.21L76.36 63.21L78.98 74.54L89.41 77.88ZM78.98 74.54L76.36 63.21L65.94 59.87L58.14 67.86L60.76 79.19L71.18 82.53ZM105.07 103.89L102.45 92.56L92.03 89.21L84.22 97.20L86.84 108.53L97.26 111.87ZM86.84 108.53L84.22 97.20L73.80 93.86L66.00 101.85L68.63 113.18L79.04 116.52ZM110.26 84.57L107.64 73.23L97.22 69.89L89.41 77.88L92.03 89.21L102.45 92.56ZM133.78 186.53L131.17 175.20L120.75 171.85L112.95 179.82L115.56 191.14L125.98 194.49ZM115.56 191.14L112.95 179.82L102.54 176.48L94.74 184.45L97.36 195.77L107.77 199.11ZM138.97 167.23L136.36 155.90L125.95 152.55L118.14 160.53L120.75 171.85L131.17 175.20ZM120.75 171.85L118.14 160.53L107.73 157.18L99.93 165.16L102.54 176.48L112.95 179.82ZM146.80 201.20L144.19 189.88L133.78 186.53L125.98 194.49L128.59 205.81L139.00 209.17ZM128.59 205.81L125.98 194.49L115.56 191.14L107.77 199.11L110.38 210.43L120.79 213.78ZM152.00 181.91L149.39 170.58L138.97 167.23L131.17 175.20L133.78 186.53L144.19 189.88ZM84.34 181.10L81.72 169.79L71.31 166.44L63.52 174.42L66.14 185.74L76.54 189.08ZM66.14 185.74L63.52 174.42L53.11 171.08L45.33 179.06L47.95 190.37L58.35 193.71ZM89.51 161.81L86.90 150.49L76.48 147.15L68.69 155.13L71.31 166.44L81.72 169.79ZM71.31 166.44L68.69 155.13L58.28 151.79L50.49 159.77L53.11 171.08L63.52 174.42ZM97.36 195.77L94.74 184.45L84.34 181.10L76.54 189.08L79.16 200.39L89.57 203.74ZM79.16 200.39L76.54 189.08L66.14 185.74L58.35 193.71L60.97 205.02L71.37 208.36ZM102.54 176.48L99.93 165.16L89.51 161.81L81.72 169.79L84.34 181.10L94.74 184.45ZM162.41 143.31L159.80 131.97L149.37 128.62L141.56 136.60L144.17 147.93L154.59 151.28ZM144.17 147.93L141.56 136.60L131.14 133.25L123.33 141.22L125.95 152.55L136.36 155.90ZM167.62 123.99L165.01 112.66L154.58 109.30L146.76 117.28L149.37 128.62L159.80 131.97ZM149.37 128.62L146.76 117.28L136.34 113.93L128.53 121.92L131.14 133.25L141.56 136.60ZM175.44 158.00L172.83 146.66L162.41 143.31L154.59 151.28L157.20 162.61L167.62 165.97ZM157.20 162.61L154.59 151.28L144.17 147.93L136.36 155.90L138.97 167.23L149.39 170.58ZM180.65 138.69L178.04 127.35L167.62 123.99L159.80 131.97L162.41 143.31L172.83 146.66ZM3.71 165.72L1.09 154.41L-9.32 151.09L-17.09 159.07L-14.46 170.38L-4.06 173.70ZM14.02 127.13L11.39 115.81L0.98 112.49L-6.80 120.47L-4.17 131.79L6.24 135.12ZM19.17 107.82L16.55 96.50L6.13 93.17L-1.65 101.17L0.98 112.49L11.39 115.81ZM0.98 112.49L-1.65 101.17L-12.06 97.84L-19.84 105.83L-17.21 117.15L-6.80 120.47ZM27.05 141.78L24.43 130.46L14.02 127.13L6.24 135.12L8.86 146.43L19.27 149.76ZM8.86 146.43L6.24 135.12L-4.17 131.79L-11.95 139.77L-9.32 151.09L1.09 154.41ZM32.21 122.48L29.59 111.16L19.17 107.82L11.39 115.81L14.02 127.13L24.43 130.46ZM6.44 218.92L3.82 207.62L-6.58 204.29L-14.34 212.26L-11.72 223.56L-1.32 226.89ZM11.59 199.65L8.97 188.34L-1.43 185.01L-9.20 192.99L-6.58 204.29L3.82 207.62ZM19.46 233.55L16.84 222.25L6.44 218.92L-1.32 226.89L1.30 238.19L11.69 241.52ZM1.30 238.19L-1.32 226.89L-11.72 223.56L-19.48 231.53L-16.85 242.83L-6.46 246.16ZM24.61 214.28L21.99 202.98L11.59 199.65L3.82 207.62L6.44 218.92L16.84 222.25ZM34.92 175.72L32.30 164.41L21.90 161.07L14.12 169.05L16.74 180.36L27.14 183.70ZM16.74 180.36L14.12 169.05L3.71 165.72L-4.06 173.70L-1.43 185.01L8.97 188.34ZM40.08 156.43L37.46 145.11L27.05 141.78L19.27 149.76L21.90 161.07L32.30 164.41ZM21.90 161.07L19.27 149.76L8.86 146.43L1.09 154.41L3.71 165.72L14.12 169.05ZM47.95 190.37L45.33 179.06L34.92 175.72L27.14 183.70L29.77 195.01L40.17 198.34ZM29.77 195.01L27.14 183.70L16.74 180.36L8.97 188.34L11.59 199.65L21.99 202.98ZM53.11 171.08L50.49 159.77L40.08 156.43L32.30 164.41L34.92 175.72L45.33 179.06ZM149.33 2.56L146.71 -8.79L136.27 -12.14L128.44 -4.14L131.06 7.21L141.50 10.56ZM131.06 7.21L128.44 -4.14L118.00 -7.48L110.18 0.52L112.80 11.87L123.24 15.22ZM162.38 17.26L159.77 5.91L149.33 2.56L141.50 10.56L144.11 21.91L154.55 25.26ZM144.11 21.91L141.50 10.56L131.06 7.21L123.24 15.22L125.85 26.56L136.29 29.91ZM167.60 -2.09L164.99 -13.45L154.54 -16.80L146.71 -8.79L149.33 2.56L159.77 5.91ZM99.74 -2.82L97.12 -14.17L86.68 -17.51L78.86 -9.50L81.49 1.85L91.92 5.19ZM81.49 1.85L78.86 -9.50L68.43 -12.83L60.62 -4.82L63.24 6.52L73.68 9.85ZM112.80 11.87L110.18 0.52L99.74 -2.82L91.92 5.19L94.55 16.53L104.98 19.87ZM94.55 16.53L91.92 5.19L81.49 1.85L73.68 9.85L76.30 21.19L86.73 24.53ZM118.00 -7.48L115.38 -18.83L104.94 -22.17L97.12 -14.17L99.74 -2.82L110.18 0.52ZM170.22 51.31L167.61 39.96L157.17 36.61L149.34 44.61L151.96 55.95L162.39 59.31ZM151.96 55.95L149.34 44.61L138.91 41.26L131.09 49.25L133.70 60.59L144.13 63.94ZM175.44 31.97L172.83 20.62L162.38 17.26L154.55 25.26L157.17 36.61L167.61 39.96ZM157.17 36.61L154.55 25.26L144.11 21.91L136.29 29.91L138.91 41.26L149.34 44.61ZM183.26 66.02L180.66 54.67L170.22 51.31L162.39 59.31L165.00 70.65L175.44 74.01ZM165.00 70.65L162.39 59.31L151.96 55.95L144.13 63.94L146.75 75.29L157.18 78.64ZM188.49 46.68L185.88 35.33L175.44 31.97L167.61 39.96L170.22 51.31L180.66 54.67ZM120.65 45.90L118.04 34.56L107.60 31.22L99.79 39.22L102.41 50.56L112.84 53.90ZM102.41 50.56L99.79 39.22L89.36 35.87L81.55 43.87L84.17 55.21L94.60 58.55ZM125.85 26.56L123.24 15.22L112.80 11.87L104.98 19.87L107.60 31.22L118.04 34.56ZM107.60 31.22L104.98 19.87L94.55 16.53L86.73 24.53L89.36 35.87L99.79 39.22ZM133.70 60.59L131.09 49.25L120.65 45.90L112.84 53.90L115.45 65.24L125.88 68.59ZM115.45 65.24L112.84 53.90L102.41 50.56L94.60 58.55L97.22 69.89L107.64 73.23ZM138.91 41.26L136.29 29.91L125.85 26.56L118.04 34.56L120.65 45.90L131.09 49.25ZM198.94 7.98L196.33 -3.38L185.88 -6.74L178.05 1.26L180.66 12.62L191.10 15.98ZM180.66 12.62L178.05 1.26L167.60 -2.09L159.77 5.91L162.38 17.26L172.83 20.62ZM185.88 -6.74L183.27 -18.10L172.82 -21.45L164.99 -13.45L167.60 -2.09L178.05 1.26ZM212.00 22.70L209.39 11.34L198.94 7.98L191.10 15.98L193.71 27.33L204.16 30.69ZM193.71 27.33L191.10 15.98L180.66 12.62L172.83 20.62L175.44 31.97L185.88 35.33ZM217.23 3.34L214.63 -8.02L204.17 -11.38L196.33 -3.38L198.94 7.98L209.39 11.34ZM204.07 240.65L201.47 229.33L191.06 225.96L183.24 233.92L185.85 245.24L196.26 248.60ZM185.85 245.24L183.24 233.92L172.83 230.56L165.03 238.52L167.63 249.84L178.04 253.20ZM209.29 221.37L206.69 210.04L196.27 206.67L188.45 214.64L191.06 225.96L201.47 229.33ZM191.06 225.96L188.45 214.64L178.04 211.28L170.23 219.24L172.83 230.56L183.24 233.92ZM217.08 255.34L214.48 244.02L204.07 240.65L196.26 248.60L198.85 259.92L209.26 263.29ZM198.85 259.92L196.26 248.60L185.85 245.24L178.04 253.20L180.64 264.51L191.05 267.88ZM222.30 236.06L219.70 224.73L209.29 221.37L201.47 229.33L204.07 240.65L214.48 244.02ZM154.62 235.16L152.01 223.84L141.60 220.49L133.80 228.45L136.41 239.76L146.82 243.12ZM136.41 239.76L133.80 228.45L123.40 225.10L115.60 233.06L118.21 244.37L128.61 247.72ZM159.82 215.88L157.21 204.56L146.80 201.20L139.00 209.17L141.60 220.49L152.01 223.84ZM141.60 220.49L139.00 209.17L128.59 205.81L120.79 213.78L123.40 225.10L133.80 228.45ZM167.63 249.84L165.03 238.52L154.62 235.16L146.82 243.12L149.42 254.43L159.83 257.79ZM149.42 254.43L146.82 243.12L136.41 239.76L128.61 247.72L131.22 259.04L141.62 262.39ZM172.83 230.56L170.23 219.24L159.82 215.88L152.01 223.84L154.62 235.16L165.03 238.52ZM232.75 197.48L230.15 186.15L219.73 182.78L211.91 190.75L214.51 202.08L224.93 205.44ZM214.51 202.08L211.91 190.75L201.49 187.38L193.67 195.35L196.27 206.67L206.69 210.04ZM237.98 178.18L235.38 166.85L224.96 163.48L217.13 171.45L219.73 182.78L230.15 186.15ZM219.73 182.78L217.13 171.45L206.71 168.08L198.88 176.05L201.49 187.38L211.91 190.75ZM245.77 212.19L243.17 200.85L232.75 197.48L224.93 205.44L227.52 216.77L237.94 220.14ZM227.52 216.77L224.93 205.44L214.51 202.08L206.69 210.04L209.29 221.37L219.70 224.73ZM251.00 192.89L248.41 181.55L237.98 178.18L230.15 186.15L232.75 197.48L243.17 200.85ZM183.25 191.98L180.65 180.66L170.23 177.30L162.41 185.27L165.02 196.59L175.44 199.95ZM165.02 196.59L162.41 185.27L152.00 181.91L144.19 189.88L146.80 201.20L157.21 204.56ZM188.46 172.69L185.86 161.36L175.44 158.00L167.62 165.97L170.23 177.30L180.65 180.66ZM170.23 177.30L167.62 165.97L157.20 162.61L149.39 170.58L152.00 181.91L162.41 185.27ZM196.27 206.67L193.67 195.35L183.25 191.98L175.44 199.95L178.04 211.28L188.45 214.64ZM178.04 211.28L175.44 199.95L165.02 196.59L157.21 204.56L159.82 215.88L170.23 219.24ZM201.49 187.38L198.88 176.05L188.46 172.69L180.65 180.66L183.25 191.98L193.67 195.35ZM230.09 270.03L227.49 258.71L217.08 255.34L209.26 263.29L211.86 274.61L222.27 277.98ZM180.64 264.51L178.04 253.20L167.63 249.84L159.83 257.79L162.43 269.11L172.83 272.47ZM162.43 269.11L159.83 257.79L149.42 254.43L141.62 262.39L144.23 273.70L154.63 277.06ZM253.55 246.18L250.95 234.85L240.54 231.47L232.71 239.43L235.31 250.76L245.72 254.13ZM235.31 250.76L232.71 239.43L222.30 236.06L214.48 244.02L217.08 255.34L227.49 258.71ZM258.78 226.89L256.19 215.56L245.77 212.19L237.94 220.14L240.54 231.47L250.95 234.85ZM240.54 231.47L237.94 220.14L227.52 216.77L219.70 224.73L222.30 236.06L232.71 239.43ZM266.56 260.88L263.96 249.55L253.55 246.18L245.72 254.13L248.32 265.45L258.73 268.83ZM248.32 265.45L245.72 254.13L235.31 250.76L227.49 258.71L230.09 270.03L240.50 273.40ZM271.79 241.60L269.20 230.27L258.78 226.89L250.95 234.85L253.55 246.18L263.96 249.55ZM81.83 253.59L79.22 242.29L68.82 238.94L61.04 246.91L63.66 258.21L74.05 261.55ZM63.66 258.21L61.04 246.91L50.65 243.57L42.87 251.53L45.49 262.83L55.88 266.17ZM94.84 268.25L92.23 256.94L81.83 253.59L74.05 261.55L76.67 272.86L87.06 276.20ZM32.48 248.19L29.86 236.89L19.46 233.55L11.69 241.52L14.31 252.82L24.70 256.15ZM45.49 262.83L42.87 251.53L32.48 248.19L24.70 256.15L27.33 267.45L37.71 270.79ZM105.20 229.71L102.59 218.40L92.18 215.05L84.39 223.02L87.01 234.33L97.41 237.67ZM87.01 234.33L84.39 223.02L73.99 219.67L66.21 227.64L68.82 238.94L79.22 242.29ZM110.38 210.43L107.77 199.11L97.36 195.77L89.57 203.74L92.18 215.05L102.59 218.40ZM92.18 215.05L89.57 203.74L79.16 200.39L71.37 208.36L73.99 219.67L84.39 223.02ZM118.21 244.37L115.60 233.06L105.20 229.71L97.41 237.67L100.02 248.98L110.42 252.33ZM100.02 248.98L97.41 237.67L87.01 234.33L79.22 242.29L81.83 253.59L92.23 256.94ZM123.40 225.10L120.79 213.78L110.38 210.43L102.59 218.40L105.20 229.71L115.60 233.06ZM55.81 224.30L53.19 212.99L42.79 209.65L35.01 217.62L37.63 228.92L48.03 232.26ZM37.63 228.92L35.01 217.62L24.61 214.28L16.84 222.25L19.46 233.55L29.86 236.89ZM60.97 205.02L58.35 193.71L47.95 190.37L40.17 198.34L42.79 209.65L53.19 212.99ZM42.79 209.65L40.17 198.34L29.77 195.01L21.99 202.98L24.61 214.28L35.01 217.62ZM68.82 238.94L66.21 227.64L55.81 224.30L48.03 232.26L50.65 243.57L61.04 246.91ZM50.65 243.57L48.03 232.26L37.63 228.92L29.86 236.89L32.48 248.19L42.87 251.53ZM73.99 219.67L71.37 208.36L60.97 205.02L53.19 212.99L55.81 224.30L66.21 227.64ZM131.22 259.04L128.61 247.72L118.21 244.37L110.42 252.33L113.03 263.64L123.43 266.99ZM113.03 263.64L110.42 252.33L100.02 248.98L92.23 256.94L94.84 268.25L105.24 271.60ZM240.66 105.53L238.06 94.18L227.62 90.81L219.78 98.79L222.39 110.14L232.82 113.51ZM222.39 110.14L219.78 98.79L209.35 95.43L201.52 103.41L204.12 114.75L214.55 118.12ZM245.90 86.20L243.30 74.84L232.86 71.48L225.02 79.46L227.62 90.81L238.06 94.18ZM227.62 90.81L225.02 79.46L214.58 76.10L206.74 84.08L209.35 95.43L219.78 98.79ZM253.69 120.24L251.09 108.90L240.66 105.53L232.82 113.51L235.42 124.85L245.85 128.22ZM235.42 124.85L232.82 113.51L222.39 110.14L214.55 118.12L217.16 129.46L227.59 132.83ZM258.94 100.92L256.34 89.57L245.90 86.20L238.06 94.18L240.66 105.53L251.09 108.90ZM191.08 100.05L188.48 88.71L178.04 85.35L170.22 93.33L172.83 104.68L183.26 108.03ZM172.83 104.68L170.22 93.33L159.79 89.98L151.97 97.96L154.58 109.30L165.01 112.66ZM196.31 80.72L193.70 69.38L183.26 66.02L175.44 74.01L178.04 85.35L188.48 88.71ZM178.04 85.35L175.44 74.01L165.00 70.65L157.18 78.64L159.79 89.98L170.22 93.33ZM204.12 114.75L201.52 103.41L191.08 100.05L183.26 108.03L185.86 119.37L196.29 122.73ZM185.86 119.37L183.26 108.03L172.83 104.68L165.01 112.66L167.62 123.99L178.04 127.35ZM209.35 95.43L206.74 84.08L196.31 80.72L188.48 88.71L191.08 100.05L201.52 103.41ZM269.43 62.24L266.84 50.89L256.39 47.52L248.54 55.50L251.14 66.86L261.59 70.23ZM251.14 66.86L248.54 55.50L238.10 52.14L230.25 60.12L232.86 71.48L243.30 74.84ZM274.69 42.90L272.09 31.54L261.64 28.16L253.79 36.16L256.39 47.52L266.84 50.89ZM256.39 47.52L253.79 36.16L243.34 32.79L235.49 40.78L238.10 52.14L248.54 55.50ZM264.18 81.58L261.59 70.23L251.14 66.86L243.30 74.84L245.90 86.20L256.34 89.57ZM219.81 56.76L217.21 45.41L206.76 42.04L198.93 50.04L201.53 61.39L211.97 64.75ZM201.53 61.39L198.93 50.04L188.49 46.68L180.66 54.67L183.26 66.02L193.70 69.38ZM225.05 37.41L222.44 26.06L212.00 22.70L204.16 30.69L206.76 42.04L217.21 45.41ZM206.76 42.04L204.16 30.69L193.71 27.33L185.88 35.33L188.49 46.68L198.93 50.04ZM232.86 71.48L230.25 60.12L219.81 56.76L211.97 64.75L214.58 76.10L225.02 79.46ZM214.58 76.10L211.97 64.75L201.53 61.39L193.70 69.38L196.31 80.72L206.74 84.08ZM238.10 52.14L235.49 40.78L225.05 37.41L217.21 45.41L219.81 56.76L230.25 60.12ZM261.48 154.28L258.88 142.94L248.45 139.56L240.62 147.54L243.21 158.88L253.64 162.25ZM243.21 158.88L240.62 147.54L230.19 144.17L222.36 152.14L224.96 163.48L235.38 166.85ZM266.72 134.96L264.13 123.62L253.69 120.24L245.85 128.22L248.45 139.56L258.88 142.94ZM248.45 139.56L245.85 128.22L235.42 124.85L227.59 132.83L230.19 144.17L240.62 147.54ZM274.51 169.00L271.91 157.65L261.48 154.28L253.64 162.25L256.24 173.59L266.67 176.96ZM256.24 173.59L253.64 162.25L243.21 158.88L235.38 166.85L237.98 178.18L248.41 181.55ZM211.93 148.77L209.33 137.44L198.90 134.07L191.07 142.05L193.68 153.38L204.10 156.75ZM193.68 153.38L191.07 142.05L180.65 138.69L172.83 146.66L175.44 158.00L185.86 161.36ZM217.16 129.46L214.55 118.12L204.12 114.75L196.29 122.73L198.90 134.07L209.33 137.44ZM198.90 134.07L196.29 122.73L185.86 119.37L178.04 127.35L180.65 138.69L191.07 142.05ZM224.96 163.48L222.36 152.14L211.93 148.77L204.10 156.75L206.71 168.08L217.13 171.45ZM206.71 168.08L204.10 156.75L193.68 153.38L185.86 161.36L188.46 172.69L198.88 176.05ZM230.19 144.17L227.59 132.83L217.16 129.46L209.33 137.44L211.93 148.77L222.36 152.14ZM271.97 115.64L269.38 104.29L258.94 100.92L251.09 108.90L253.69 120.24L264.13 123.62ZM248.59 13.43L245.98 2.07L235.53 -1.30L227.68 6.70L230.29 18.06L240.74 21.43ZM230.29 18.06L227.68 6.70L217.23 3.34L209.39 11.34L212.00 22.70L222.44 26.06ZM253.84 -5.93L251.23 -17.30L240.78 -20.66L232.93 -12.66L235.53 -1.30L245.98 2.07ZM235.53 -1.30L232.93 -12.66L222.47 -16.02L214.63 -8.02L217.23 3.34L227.68 6.70ZM261.64 28.16L259.04 16.80L248.59 13.43L240.74 21.43L243.34 32.79L253.79 36.16ZM243.34 32.79L240.74 21.43L230.29 18.06L222.44 26.06L225.05 37.41L235.49 40.78ZM266.89 8.81L264.29 -2.56L253.84 -5.93L245.98 2.07L248.59 13.43L259.04 16.80ZM264.02 207.60L261.43 196.26L251.00 192.89L243.17 200.85L245.77 212.19L256.19 215.56ZM269.26 188.30L266.67 176.96L256.24 173.59L248.41 181.55L251.00 192.89L261.43 196.26Z"/></svg>
