<svg xmlns="http://www.w3.org/2000/svg" width="256" height="256" viewBox="0 0 256 256"><path data-band="1" fill="#fde68a" fill-opacity="0.35" d="M113.26 258.44L110.66 247.17L100.30 243.81L92.54 251.73L95.14 262.99L105.50 266.35ZM95.14 262.99L92.54 251.73L82.18 248.37L74.42 256.29L77.03 267.55L87.38 270.90ZM77.03 267.55L74.42 256.29L64.07 252.94L56.32 260.85L58.92 272.11L69.28 275.46ZM9.78 266.64L7.17 255.39L-3.18 252.05L-10.92 259.97L-8.30 271.22L2.05 274.56ZM45.96 257.50L43.36 246.24L33.00 242.90L25.26 250.81L27.87 262.07L38.22 265.42ZM27.87 262.07L25.26 250.81L14.91 247.47L7.17 255.39L9.78 266.64L20.13 269.99ZM1.94 232.87L-0.68 221.61L-11.03 218.28L-18.76 226.20L-16.15 237.46L-5.80 240.79Z"/><path data-band="2" fill="#f97316" fill-opacity="0.35" d="M167.64 119.44L165.05 108.14L154.66 104.78L146.87 112.71L149.47 124.01L159.86 127.37ZM149.47 124.01L146.87 112.71L136.48 109.35L128.70 117.29L131.30 128.58L141.69 131.94ZM172.84 100.20L170.24 88.90L159.85 85.54L152.06 93.48L154.66 104.78L165.05 108.14ZM154.66 104.78L152.06 93.48L141.67 90.12L133.88 98.06L136.48 109.35L146.87 112.71ZM180.63 134.10L178.03 122.80L167.64 119.44L159.86 127.37L162.45 138.66L172.84 142.03ZM162.45 138.66L159.86 127.37L149.47 124.01L141.69 131.94L144.29 143.23L154.67 146.59ZM185.83 114.87L183.23 103.57L172.84 100.20L165.05 108.14L167.64 119.44L178.03 122.80ZM118.32 113.93L115.71 102.64L105.33 99.29L97.55 107.23L100.16 118.52L110.54 121.87ZM100.16 118.52L97.55 107.23L87.17 103.88L79.40 111.82L82.01 123.10L92.38 126.45ZM123.49 94.70L120.89 83.40L110.50 80.05L102.72 87.99L105.33 99.29L115.71 102.64ZM105.33 99.29L102.72 87.99L92.33 84.64L84.56 92.59L87.17 103.88L97.55 107.23ZM131.30 128.58L128.70 117.29L118.32 113.93L110.54 121.87L113.14 133.16L123.52 136.52ZM113.14 133.16L110.54 121.87L100.16 118.52L92.38 126.45L94.99 137.74L105.37 141.09ZM136.48 109.35L133.88 98.06L123.49 94.70L115.71 102.64L118.32 113.93L128.70 117.29ZM196.23 76.38L193.63 65.08L183.23 61.71L175.44 69.65L178.03 80.96L188.43 84.32ZM178.03 80.96L175.44 69.65L165.04 66.29L157.25 74.23L159.85 85.54L170.24 88.90ZM201.44 57.13L198.84 45.82L188.44 42.46L180.64 50.40L183.23 61.71L193.63 65.08ZM183.23 61.71L180.64 50.40L170.24 47.04L162.44 54.99L165.04 66.29L175.44 69.65ZM209.22 91.06L206.63 79.75L196.23 76.38L188.43 84.32L191.03 95.63L201.42 99.00ZM191.03 95.63L188.43 84.32L178.03 80.96L170.24 88.90L172.84 100.20L183.23 103.57ZM214.43 71.81L211.84 60.50L201.44 57.13L193.63 65.08L196.23 76.38L206.63 79.75ZM146.85 70.87L144.25 59.57L133.85 56.21L126.07 64.16L128.67 75.46L139.06 78.82ZM128.67 75.46L126.07 64.16L115.67 60.81L107.89 68.75L110.50 80.05L120.89 83.40ZM152.04 51.63L149.44 40.32L139.04 36.96L131.25 44.91L133.85 56.21L144.25 59.57ZM133.85 56.21L131.25 44.91L120.85 41.56L113.07 49.51L115.67 60.81L126.07 64.16ZM159.85 85.54L157.25 74.23L146.85 70.87L139.06 78.82L141.67 90.12L152.06 93.48ZM141.67 90.12L139.06 78.82L128.67 75.46L120.89 83.40L123.49 94.70L133.88 98.06ZM165.04 66.29L162.44 54.99L152.04 51.63L144.25 59.57L146.85 70.87L157.25 74.23ZM188.41 167.98L185.82 156.69L175.44 153.32L167.65 161.25L170.25 172.54L180.63 175.90ZM170.25 172.54L167.65 161.25L157.27 157.88L149.49 165.81L152.08 177.10L162.46 180.46ZM193.61 148.76L191.02 137.46L180.63 134.10L172.84 142.03L175.44 153.32L185.82 156.69ZM175.44 153.32L172.84 142.03L162.45 138.66L154.67 146.59L157.27 157.88L167.65 161.25ZM201.39 182.64L198.80 171.35L188.41 167.98L180.63 175.90L183.22 187.19L193.60 190.56ZM183.22 187.19L180.63 175.90L170.25 172.54L162.46 180.46L165.06 191.75L175.44 195.11ZM206.59 163.43L204.00 152.13L193.61 148.76L185.82 156.69L188.41 167.98L198.80 171.35ZM139.11 162.45L136.51 151.16L126.13 147.80L118.35 155.73L120.95 167.02L131.33 170.38ZM120.95 167.02L118.35 155.73L107.97 152.38L100.20 160.31L102.81 171.59L113.18 174.95ZM144.29 143.23L141.69 131.94L131.30 128.58L123.52 136.52L126.13 147.80L136.51 151.16ZM126.13 147.80L123.52 136.52L113.14 133.16L105.37 141.09L107.97 152.38L118.35 155.73ZM152.08 177.10L149.49 165.81L139.11 162.45L131.33 170.38L133.93 181.66L144.31 185.02ZM133.93 181.66L131.33 170.38L120.95 167.02L113.18 174.95L115.78 186.23L126.16 189.59ZM157.27 157.88L154.67 146.59L144.29 143.23L136.51 151.16L139.11 162.45L149.49 165.81ZM217.00 124.97L214.41 113.67L204.02 110.30L196.22 118.23L198.81 129.53L209.20 132.90ZM198.81 129.53L196.22 118.23L185.83 114.87L178.03 122.80L180.63 134.10L191.02 137.46ZM222.21 105.74L219.62 94.43L209.22 91.06L201.42 99.00L204.02 110.30L214.41 113.67ZM204.02 110.30L201.42 99.00L191.03 95.63L183.23 103.57L185.83 114.87L196.22 118.23ZM229.98 139.65L227.39 128.35L217.00 124.97L209.20 132.90L211.79 144.20L222.18 147.58ZM211.79 144.20L209.20 132.90L198.81 129.53L191.02 137.46L193.61 148.76L204.00 152.13ZM235.20 120.42L232.61 109.11L222.21 105.74L214.41 113.67L217.00 124.97L227.39 128.35ZM40.58 151.50L37.97 140.22L27.60 136.88L19.84 144.82L22.46 156.09L32.83 159.44ZM22.46 156.09L19.84 144.82L9.48 141.48L1.73 149.42L4.34 160.69L14.71 164.03ZM45.73 132.29L43.11 121.01L32.74 117.66L24.98 125.60L27.60 136.88L37.97 140.22ZM27.60 136.88L24.98 125.60L14.61 122.27L6.86 130.21L9.48 141.48L19.84 144.82ZM53.56 166.12L50.95 154.85L40.58 151.50L32.83 159.44L35.44 170.71L45.81 174.05ZM35.44 170.71L32.83 159.44L22.46 156.09L14.71 164.03L17.32 175.30L27.69 178.64ZM58.71 146.91L56.10 135.63L45.73 132.29L37.97 140.22L40.58 151.50L50.95 154.85ZM4.34 160.69L1.73 149.42L-8.64 146.08L-16.38 154.02L-13.76 165.29L-3.40 168.62ZM9.48 141.48L6.86 130.21L-3.51 126.87L-11.26 134.81L-8.64 146.08L1.73 149.42ZM69.02 108.47L66.41 97.18L56.03 93.84L48.26 101.78L50.87 113.07L61.25 116.41ZM50.87 113.07L48.26 101.78L37.88 98.44L30.12 106.38L32.74 117.66L43.11 121.01ZM74.18 89.24L71.56 77.95L61.18 74.60L53.41 82.55L56.03 93.84L66.41 97.18ZM56.03 93.84L53.41 82.55L43.03 79.21L35.27 87.15L37.88 98.44L48.26 101.78ZM82.01 123.10L79.40 111.82L69.02 108.47L61.25 116.41L63.86 127.69L74.24 131.04ZM63.86 127.69L61.25 116.41L50.87 113.07L43.11 121.01L45.73 132.29L56.10 135.63ZM87.17 103.88L84.56 92.59L74.18 89.24L66.41 97.18L69.02 108.47L79.40 111.82ZM19.75 103.04L17.13 91.76L6.75 88.43L-1.00 96.37L1.62 107.65L11.99 110.99ZM1.62 107.65L-1.00 96.37L-11.37 93.04L-19.12 100.99L-16.50 112.26L-6.13 115.59ZM24.89 83.81L22.27 72.53L11.89 69.19L4.13 77.14L6.75 88.43L17.13 91.76ZM6.75 88.43L4.13 77.14L-6.24 73.81L-13.99 81.76L-11.37 93.04L-1.00 96.37ZM32.74 117.66L30.12 106.38L19.75 103.04L11.99 110.99L14.61 122.27L24.98 125.60ZM14.61 122.27L11.99 110.99L1.62 107.65L-6.13 115.59L-3.51 126.87L6.86 130.21ZM37.88 98.44L35.27 87.15L24.89 83.81L17.13 91.76L19.75 103.04L30.12 106.38ZM61.39 199.94L58.78 188.67L48.42 185.33L40.66 193.25L43.27 204.52L53.64 207.87ZM43.27 204.52L40.66 193.25L30.30 189.91L22.55 197.84L25.17 209.10L35.52 212.45ZM66.54 180.74L63.93 169.47L53.56 166.12L45.81 174.05L48.42 185.33L58.78 188.67ZM48.42 185.33L45.81 174.05L35.44 170.71L27.69 178.64L30.30 189.91L40.66 193.25ZM74.36 214.57L71.76 203.29L61.39 199.94L53.64 207.87L56.24 219.14L66.61 222.49ZM56.24 219.14L53.64 207.87L43.27 204.52L35.52 212.45L38.14 223.71L48.49 227.06ZM79.51 195.37L76.91 184.09L66.54 180.74L58.78 188.67L61.39 199.94L71.76 203.29ZM12.19 194.50L9.58 183.23L-0.78 179.89L-8.53 187.82L-5.91 199.09L4.45 202.42ZM17.32 175.30L14.71 164.03L4.34 160.69L-3.40 168.62L-0.78 179.89L9.58 183.23ZM25.17 209.10L22.55 197.84L12.19 194.50L4.45 202.42L7.06 213.69L17.42 217.03ZM7.06 213.69L4.45 202.42L-5.91 199.09L-13.65 207.01L-11.03 218.28L-0.68 221.61ZM30.30 189.91L27.69 178.64L17.32 175.30L9.58 183.23L12.19 194.50L22.55 197.84ZM89.83 156.96L87.22 145.67L76.85 142.32L69.08 150.26L71.69 161.54L82.06 164.89ZM71.69 161.54L69.08 150.26L58.71 146.91L50.95 154.85L53.56 166.12L63.93 169.47ZM94.99 137.74L92.38 126.45L82.01 123.10L74.24 131.04L76.85 142.32L87.22 145.67ZM76.85 142.32L74.24 131.04L63.86 127.69L56.10 135.63L58.71 146.91L69.08 150.26ZM102.81 171.59L100.20 160.31L89.83 156.96L82.06 164.89L84.67 176.17L95.04 179.52ZM84.67 176.17L82.06 164.89L71.69 161.54L63.93 169.47L66.54 180.74L76.91 184.09ZM107.97 152.38L105.37 141.09L94.99 137.74L87.22 145.67L89.83 156.96L100.20 160.31ZM237.86 47.99L235.27 36.67L224.86 33.30L217.05 41.24L219.65 52.56L230.05 55.93ZM219.65 52.56L217.05 41.24L206.65 37.88L198.84 45.82L201.44 57.13L211.84 60.50ZM170.24 47.04L167.63 35.73L157.23 32.37L149.44 40.32L152.04 51.63L162.44 54.99ZM76.67 16.86L74.05 5.55L63.66 2.21L55.88 10.17L58.50 21.47L68.89 24.81ZM58.50 21.47L55.88 10.17L45.49 6.83L37.71 14.79L40.33 26.09L50.72 29.43ZM89.67 31.50L87.06 20.20L76.67 16.86L68.89 24.81L71.50 36.11L81.89 39.46ZM71.50 36.11L68.89 24.81L58.50 21.47L50.72 29.43L53.34 40.72L63.73 44.07ZM27.33 11.45L24.70 0.15L14.31 -3.18L6.55 4.78L9.17 16.08L19.56 19.41ZM9.17 16.08L6.55 4.78L-3.84 1.45L-11.60 9.41L-8.98 20.71L1.41 24.04ZM14.31 -3.18L11.69 -14.48L1.30 -17.81L-6.46 -9.84L-3.84 1.45L6.55 4.78ZM40.33 26.09L37.71 14.79L27.33 11.45L19.56 19.41L22.18 30.71L32.56 34.04ZM22.18 30.71L19.56 19.41L9.17 16.08L1.41 24.04L4.03 35.33L14.41 38.66ZM97.50 65.40L94.89 54.10L84.50 50.76L76.73 58.71L79.34 70.00L89.72 73.35ZM79.34 70.00L76.73 58.71L66.34 55.36L58.57 63.31L61.18 74.60L71.56 77.95ZM102.67 46.16L100.07 34.85L89.67 31.50L81.89 39.46L84.50 50.76L94.89 54.10ZM84.50 50.76L81.89 39.46L71.50 36.11L63.73 44.07L66.34 55.36L76.73 58.71ZM110.50 80.05L107.89 68.75L97.50 65.40L89.72 73.35L92.33 84.64L102.72 87.99ZM92.33 84.64L89.72 73.35L79.34 70.00L71.56 77.95L74.18 89.24L84.56 92.59ZM115.67 60.81L113.07 49.51L102.67 46.16L94.89 54.10L97.50 65.40L107.89 68.75ZM48.18 59.97L45.57 48.68L35.18 45.34L27.42 53.29L30.03 64.58L40.42 67.92ZM30.03 64.58L27.42 53.29L17.03 49.95L9.27 57.91L11.89 69.19L22.27 72.53ZM53.34 40.72L50.72 29.43L40.33 26.09L32.56 34.04L35.18 45.34L45.57 48.68ZM35.18 45.34L32.56 34.04L22.18 30.71L14.41 38.66L17.03 49.95L27.42 53.29ZM61.18 74.60L58.57 63.31L48.18 59.97L40.42 67.92L43.03 79.21L53.41 82.55ZM43.03 79.21L40.42 67.92L30.03 64.58L22.27 72.53L24.89 83.81L35.27 87.15ZM66.34 55.36L63.73 44.07L53.34 40.72L45.57 48.68L48.18 59.97L58.57 63.31ZM258.47 222.11L255.89 210.82L245.51 207.44L237.71 215.35L240.30 226.64L250.68 230.02ZM240.30 226.64L237.71 215.35L227.33 211.97L219.54 219.89L222.13 231.17L232.50 234.55ZM263.69 202.90L261.11 191.61L250.72 188.23L242.92 196.14L245.51 207.44L255.89 210.82ZM245.51 207.44L242.92 196.14L232.54 192.76L224.74 200.68L227.33 211.97L237.71 215.35ZM271.44 236.79L268.86 225.49L258.47 222.11L250.68 230.02L253.26 241.31L263.64 244.69ZM253.26 241.31L250.68 230.02L240.30 226.64L232.50 234.55L235.09 245.84L245.47 249.22ZM276.66 217.58L274.08 206.29L263.69 202.90L255.89 210.82L258.47 222.11L268.86 225.49ZM209.16 216.51L206.57 205.22L196.19 201.85L188.41 209.77L191.00 221.05L201.37 224.43ZM191.00 221.05L188.41 209.77L178.03 206.40L170.25 214.32L172.84 225.60L183.22 228.97ZM214.36 197.31L211.77 186.02L201.39 182.64L193.60 190.56L196.19 201.85L206.57 205.22ZM196.19 201.85L193.60 190.56L183.22 187.19L175.44 195.11L178.03 206.40L188.41 209.77ZM222.13 231.17L219.54 219.89L209.16 216.51L201.37 224.43L203.96 235.71L214.34 239.08ZM203.96 235.71L201.37 224.43L191.00 221.05L183.22 228.97L185.81 240.25L196.18 243.62ZM227.33 211.97L224.74 200.68L214.36 197.31L206.57 205.22L209.16 216.51L219.54 219.89ZM268.91 183.69L266.33 172.39L255.94 169.01L248.14 176.93L250.72 188.23L261.11 191.61ZM274.14 164.47L271.56 153.16L261.16 149.78L253.36 157.71L255.94 169.01L266.33 172.39ZM237.75 173.55L235.16 162.25L224.77 158.88L216.98 166.80L219.57 178.09L229.95 181.47ZM219.57 178.09L216.98 166.80L206.59 163.43L198.80 171.35L201.39 182.64L211.77 186.02ZM242.96 154.33L240.38 143.03L229.98 139.65L222.18 147.58L224.77 158.88L235.16 162.25ZM224.77 158.88L222.18 147.58L211.79 144.20L204.00 152.13L206.59 163.43L216.98 166.80ZM250.72 188.23L248.14 176.93L237.75 173.55L229.95 181.47L232.54 192.76L242.92 196.14ZM232.54 192.76L229.95 181.47L219.57 178.09L211.77 186.02L214.36 197.31L224.74 200.68ZM255.94 169.01L253.36 157.71L242.96 154.33L235.16 162.25L237.75 173.55L248.14 176.93ZM266.22 255.98L263.64 244.69L253.26 241.31L245.47 249.22L248.05 260.50L258.42 263.89ZM229.88 265.03L227.30 253.75L216.92 250.37L209.14 258.28L211.73 269.56L222.10 272.93ZM211.73 269.56L209.14 258.28L198.77 254.90L190.99 262.81L193.58 274.09L203.95 277.46ZM235.09 245.84L232.50 234.55L222.13 231.17L214.34 239.08L216.92 250.37L227.30 253.75ZM216.92 250.37L214.34 239.08L203.96 235.71L196.18 243.62L198.77 254.90L209.14 258.28ZM248.05 260.50L245.47 249.22L235.09 245.84L227.30 253.75L229.88 265.03L240.26 268.41ZM131.38 253.89L128.79 242.61L118.42 239.26L110.66 247.17L113.26 258.44L123.62 261.80ZM136.55 234.70L133.96 223.42L123.59 220.06L115.82 227.98L118.42 239.26L128.79 242.61ZM118.42 239.26L115.82 227.98L105.46 224.62L97.69 232.54L100.30 243.81L110.66 247.17ZM144.34 268.52L141.75 257.25L131.38 253.89L123.62 261.80L126.22 273.07L136.58 276.43ZM149.52 249.34L146.92 238.06L136.55 234.70L128.79 242.61L131.38 253.89L141.75 257.25ZM82.18 248.37L79.57 237.11L69.21 233.75L61.46 241.67L64.07 252.94L74.42 256.29ZM64.07 252.94L61.46 241.67L51.10 238.32L43.36 246.24L45.96 257.50L56.32 260.85ZM87.33 229.19L84.73 217.92L74.36 214.57L66.61 222.49L69.21 233.75L79.57 237.11ZM69.21 233.75L66.61 222.49L56.24 219.14L48.49 227.06L51.10 238.32L61.46 241.67ZM100.30 243.81L97.69 232.54L87.33 229.19L79.57 237.11L82.18 248.37L92.54 251.73ZM159.87 210.95L157.28 199.67L146.90 196.31L139.13 204.23L141.73 215.51L152.10 218.87ZM141.73 215.51L139.13 204.23L128.76 200.87L120.99 208.79L123.59 220.06L133.96 223.42ZM165.06 191.75L162.46 180.46L152.08 177.10L144.31 185.02L146.90 196.31L157.28 199.67ZM146.90 196.31L144.31 185.02L133.93 181.66L126.16 189.59L128.76 200.87L139.13 204.23ZM172.84 225.60L170.25 214.32L159.87 210.95L152.10 218.87L154.69 230.15L165.06 233.51ZM154.69 230.15L152.10 218.87L141.73 215.51L133.96 223.42L136.55 234.70L146.92 238.06ZM178.03 206.40L175.44 195.11L165.06 191.75L157.28 199.67L159.87 210.95L170.25 214.32ZM110.62 205.43L108.02 194.15L97.65 190.80L89.88 198.72L92.49 210.00L102.85 213.35ZM92.49 210.00L89.88 198.72L79.51 195.37L71.76 203.29L74.36 214.57L84.73 217.92ZM115.78 186.23L113.18 174.95L102.81 171.59L95.04 179.52L97.65 190.80L108.02 194.15ZM97.65 190.80L95.04 179.52L84.67 176.17L76.91 184.09L79.51 195.37L89.88 198.72ZM123.59 220.06L120.99 208.79L110.62 205.43L102.85 213.35L105.46 224.62L115.82 227.98ZM105.46 224.62L102.85 213.35L92.49 210.00L84.73 217.92L87.33 229.19L97.69 232.54ZM128.76 200.87L126.16 189.59L115.78 186.23L108.02 194.15L110.62 205.43L120.99 208.79ZM180.62 259.44L178.03 248.16L167.66 244.79L159.88 252.70L162.48 263.98L172.84 267.35ZM162.48 263.98L159.88 252.70L149.52 249.34L141.75 257.25L144.34 268.52L154.71 271.89ZM185.81 240.25L183.22 228.97L172.84 225.60L165.06 233.51L167.66 244.79L178.03 248.16ZM167.66 244.79L165.06 233.51L154.69 230.15L146.92 238.06L149.52 249.34L159.88 252.70ZM198.77 254.90L196.18 243.62L185.81 240.25L178.03 248.16L180.62 259.44L190.99 262.81ZM245.64 81.93L243.05 70.62L232.64 67.24L224.83 75.18L227.43 86.49L237.83 89.87ZM227.43 86.49L224.83 75.18L214.43 71.81L206.63 79.75L209.22 91.06L219.62 94.43ZM250.86 62.68L248.27 51.36L237.86 47.99L230.05 55.93L232.64 67.24L243.05 70.62ZM232.64 67.24L230.05 55.93L219.65 52.56L211.84 60.50L214.43 71.81L224.83 75.18ZM258.63 96.62L256.04 85.31L245.64 81.93L237.83 89.87L240.42 101.18L250.82 104.55ZM240.42 101.18L237.83 89.87L227.43 86.49L219.62 94.43L222.21 105.74L232.61 109.11ZM263.86 77.37L261.27 66.06L250.86 62.68L243.05 70.62L245.64 81.93L256.04 85.31ZM274.32 38.85L271.73 27.53L261.32 24.15L253.50 32.10L256.09 43.42L266.50 46.80ZM256.09 43.42L253.50 32.10L243.09 28.72L235.27 36.67L237.86 47.99L248.27 51.36ZM261.32 24.15L258.73 12.83L248.32 9.45L240.50 17.40L243.09 28.72L253.50 32.10ZM269.09 58.12L266.50 46.80L256.09 43.42L248.27 51.36L250.86 62.68L261.27 66.06ZM266.39 130.55L263.80 119.24L253.40 115.86L245.59 123.79L248.18 135.10L258.58 138.48ZM248.18 135.10L245.59 123.79L235.20 120.42L227.39 128.35L229.98 139.65L240.38 143.03ZM271.62 111.31L269.03 100.00L258.63 96.62L250.82 104.55L253.40 115.86L263.80 119.24ZM253.40 115.86L250.82 104.55L240.42 101.18L232.61 109.11L235.20 120.42L245.59 123.79ZM261.16 149.78L258.58 138.48L248.18 135.10L240.38 143.03L242.96 154.33L253.36 157.71ZM4.03 35.33L1.41 24.04L-8.98 20.71L-16.73 28.66L-14.11 39.95L-3.73 43.28ZM11.89 69.19L9.27 57.91L-1.11 54.57L-8.86 62.52L-6.24 73.81L4.13 77.14ZM17.03 49.95L14.41 38.66L4.03 35.33L-3.73 43.28L-1.11 54.57L9.27 57.91ZM33.00 242.90L30.39 231.63L20.03 228.29L12.29 236.21L14.91 247.47L25.26 250.81ZM14.91 247.47L12.29 236.21L1.94 232.87L-5.80 240.79L-3.18 252.05L7.17 255.39ZM38.14 223.71L35.52 212.45L25.17 209.10L17.42 217.03L20.03 228.29L30.39 231.63ZM20.03 228.29L17.42 217.03L7.06 213.69L-0.68 221.61L1.94 232.87L12.29 236.21ZM51.10 238.32L48.49 227.06L38.14 223.71L30.39 231.63L33.00 242.90L43.36 246.24Z"/><path data-band="3" fill="#dc2626" fill-opacity="0.35" d="M217.08 -0.66L214.48 -11.98L204.07 -15.35L196.26 -7.40L198.85 3.92L209.26 7.29ZM198.85 3.92L196.26 -7.40L185.85 -10.76L178.04 -2.80L180.64 8.51L191.05 11.88ZM167.63 -6.16L165.03 -17.48L154.62 -20.84L146.82 -12.88L149.42 -1.57L159.83 1.79ZM149.42 -1.57L146.82 -12.88L136.41 -16.24L128.61 -8.28L131.22 3.04L141.62 6.39ZM224.86 33.30L222.27 21.98L211.86 18.61L204.05 26.56L206.65 37.88L217.05 41.24ZM206.65 37.88L204.05 26.56L193.64 23.19L185.84 31.14L188.44 42.46L198.84 45.82ZM230.09 14.03L227.49 2.71L217.08 -0.66L209.26 7.29L211.86 18.61L222.27 21.98ZM211.86 18.61L209.26 7.29L198.85 3.92L191.05 11.88L193.64 23.19L204.05 26.56ZM243.09 28.72L240.50 17.40L230.09 14.03L222.27 21.98L224.86 33.30L235.27 36.67ZM175.44 27.78L172.83 16.47L162.43 13.11L154.63 21.06L157.23 32.37L167.63 35.73ZM157.23 32.37L154.63 21.06L144.23 17.70L136.43 25.65L139.04 36.96L149.44 40.32ZM180.64 8.51L178.04 -2.80L167.63 -6.16L159.83 1.79L162.43 13.11L172.83 16.47ZM162.43 13.11L159.83 1.79L149.42 -1.57L141.62 6.39L144.23 17.70L154.63 21.06ZM188.44 42.46L185.84 31.14L175.44 27.78L167.63 35.73L170.24 47.04L180.64 50.40ZM193.64 23.19L191.05 11.88L180.64 8.51L172.83 16.47L175.44 27.78L185.84 31.14ZM235.31 -5.24L232.71 -16.57L222.30 -19.94L214.48 -11.98L217.08 -0.66L227.49 2.71ZM266.56 4.88L263.96 -6.45L253.55 -9.82L245.72 -1.87L248.32 9.45L258.73 12.83ZM248.32 9.45L245.72 -1.87L235.31 -5.24L227.49 2.71L230.09 14.03L240.50 17.40ZM81.83 -2.41L79.22 -13.71L68.82 -17.06L61.04 -9.09L63.66 2.21L74.05 5.55ZM63.66 2.21L61.04 -9.09L50.65 -12.43L42.87 -4.47L45.49 6.83L55.88 10.17ZM94.84 12.25L92.23 0.94L81.83 -2.41L74.05 5.55L76.67 16.86L87.06 20.20ZM32.48 -7.81L29.86 -19.11L19.46 -22.45L11.69 -14.48L14.31 -3.18L24.70 0.15ZM45.49 6.83L42.87 -4.47L32.48 -7.81L24.70 0.15L27.33 11.45L37.71 14.79ZM100.02 -7.02L97.41 -18.33L87.01 -21.67L79.22 -13.71L81.83 -2.41L92.23 0.94ZM126.04 22.30L123.43 10.99L113.03 7.64L105.24 15.60L107.85 26.90L118.25 30.25ZM107.85 26.90L105.24 15.60L94.84 12.25L87.06 20.20L89.67 31.50L100.07 34.85ZM131.22 3.04L128.61 -8.28L118.21 -11.63L110.42 -3.67L113.03 7.64L123.43 10.99ZM113.03 7.64L110.42 -3.67L100.02 -7.02L92.23 0.94L94.84 12.25L105.24 15.60ZM139.04 36.96L136.43 25.65L126.04 22.30L118.25 30.25L120.85 41.56L131.25 44.91ZM120.85 41.56L118.25 30.25L107.85 26.90L100.07 34.85L102.67 46.16L113.07 49.51ZM144.23 17.70L141.62 6.39L131.22 3.04L123.43 10.99L126.04 22.30L136.43 25.65Z"/></svg>
