<svg xmlns="http://www.w3.org/2000/svg" width="256" height="256" viewBox="0 0 256 256"><path data-band="1" fill="#fde68a" fill-opacity="0.35" d="M261.00 19.17L258.42 7.89L248.05 4.50L240.26 12.41L242.84 23.69L253.21 27.07ZM273.96 33.84L271.38 22.56L261.00 19.17L253.21 27.07L255.79 38.35L266.16 41.74ZM113.26 2.44L110.66 -8.83L100.30 -12.19L92.54 -4.27L95.14 6.99L105.50 10.35ZM126.22 17.07L123.62 5.80L113.26 2.44L105.50 10.35L108.10 21.62L118.46 24.97ZM95.14 6.99L92.54 -4.27L82.18 -7.63L74.42 0.29L77.03 11.55L87.38 14.90ZM77.03 11.55L74.42 0.29L64.07 -3.06L56.32 4.85L58.92 16.11L69.28 19.46ZM152.13 46.33L149.53 35.06L139.17 31.70L131.41 39.60L134.01 50.87L144.36 54.23ZM134.01 50.87L131.41 39.60L121.05 36.24L113.30 44.15L115.89 55.41L126.25 58.77ZM139.17 31.70L136.58 20.43L126.22 17.07L118.46 24.97L121.05 36.24L131.41 39.60ZM165.08 60.96L162.49 49.70L152.13 46.33L144.36 54.23L146.96 65.50L157.31 68.86ZM146.96 65.50L144.36 54.23L134.01 50.87L126.25 58.77L128.84 70.03L139.20 73.39ZM170.25 41.80L167.66 30.53L157.30 27.16L149.53 35.06L152.13 46.33L162.49 49.70ZM102.94 40.79L100.34 29.52L89.99 26.17L82.23 34.08L84.84 45.34L95.19 48.69ZM84.84 45.34L82.23 34.08L71.88 30.72L64.13 38.63L66.74 49.89L77.09 53.24ZM108.10 21.62L105.50 10.35L95.14 6.99L87.38 14.90L89.99 26.17L100.34 29.52ZM89.99 26.17L87.38 14.90L77.03 11.55L69.28 19.46L71.88 30.72L82.23 34.08ZM115.89 55.41L113.30 44.15L102.94 40.79L95.19 48.69L97.79 59.95L108.14 63.31ZM97.79 59.95L95.19 48.69L84.84 45.34L77.09 53.24L79.69 64.50L90.04 67.85ZM121.05 36.24L118.46 24.97L108.10 21.62L100.34 29.52L102.94 40.79L113.30 44.15ZM263.37 197.24L260.80 185.98L250.45 182.59L242.67 190.46L245.25 201.72L255.60 205.10ZM245.25 201.72L242.67 190.46L232.33 187.08L224.56 194.95L227.14 206.20L237.48 209.59ZM268.57 178.11L266.00 166.84L255.65 163.46L247.87 171.33L250.45 182.59L260.80 185.98ZM250.45 182.59L247.87 171.33L237.52 167.95L229.75 175.82L232.33 187.08L242.67 190.46ZM276.29 211.88L273.72 200.63L263.37 197.24L255.60 205.10L258.17 216.36L268.51 219.75ZM258.17 216.36L255.60 205.10L245.25 201.72L237.48 209.59L240.06 220.84L250.40 224.22ZM273.78 158.97L271.20 147.70L260.85 144.32L253.07 152.19L255.65 163.46L266.00 166.84ZM265.89 250.12L263.32 238.86L252.97 235.48L245.21 243.34L247.78 254.59L258.12 257.97ZM271.09 231.00L268.51 219.75L258.17 216.36L250.40 224.22L252.97 235.48L263.32 238.86ZM185.77 234.29L183.19 223.05L172.85 219.67L165.10 227.54L167.69 238.78L178.02 242.16ZM167.69 238.78L165.10 227.54L154.77 224.17L147.03 232.04L149.61 243.28L159.94 246.65ZM190.94 215.18L188.36 203.93L178.02 200.56L170.27 208.43L172.85 219.67L183.19 223.05ZM172.85 219.67L170.27 208.43L159.93 205.06L152.18 212.93L154.77 224.17L165.10 227.54ZM198.68 248.91L196.10 237.67L185.77 234.29L178.02 242.16L180.60 253.40L190.93 256.77ZM180.60 253.40L178.02 242.16L167.69 238.78L159.94 246.65L162.52 257.88L172.85 261.26ZM203.86 229.80L201.28 218.56L190.94 215.18L183.19 223.05L185.77 234.29L196.10 237.67ZM136.70 228.67L134.11 217.43L123.78 214.07L116.04 221.94L118.63 233.17L128.96 236.54ZM118.63 233.17L116.04 221.94L105.71 218.57L97.98 226.45L100.57 237.68L110.89 241.04ZM141.85 209.56L139.26 198.32L128.93 194.95L121.19 202.83L123.78 214.07L134.11 217.43ZM123.78 214.07L121.19 202.83L110.85 199.46L103.12 207.34L105.71 218.57L116.04 221.94ZM149.61 243.28L147.03 232.04L136.70 228.67L128.96 236.54L131.54 247.77L141.87 251.14ZM131.54 247.77L128.96 236.54L118.63 233.17L110.89 241.04L113.48 252.27L123.81 255.64ZM154.77 224.17L152.18 212.93L141.85 209.56L134.11 217.43L136.70 228.67L147.03 232.04ZM214.22 191.57L211.64 180.32L201.29 176.94L193.53 184.81L196.12 196.06L206.46 199.44ZM196.12 196.06L193.53 184.81L183.19 181.44L175.43 189.31L178.02 200.56L188.36 203.93ZM219.40 172.44L216.82 161.18L206.48 157.80L198.71 165.68L201.29 176.94L211.64 180.32ZM201.29 176.94L198.71 165.68L188.37 162.31L180.61 170.19L183.19 181.44L193.53 184.81ZM227.14 206.20L224.56 194.95L214.22 191.57L206.46 199.44L209.04 210.69L219.38 214.07ZM209.04 210.69L206.46 199.44L196.12 196.06L188.36 203.93L190.94 215.18L201.28 218.56ZM232.33 187.08L229.75 175.82L219.40 172.44L211.64 180.32L214.22 191.57L224.56 194.95ZM165.10 185.94L162.51 174.69L152.17 171.32L144.42 179.20L147.01 190.44L157.34 193.81ZM147.01 190.44L144.42 179.20L134.08 175.83L126.34 183.71L128.93 194.95L139.26 198.32ZM170.26 166.81L167.68 155.56L157.33 152.19L149.58 160.07L152.17 171.32L162.51 174.69ZM152.17 171.32L149.58 160.07L139.24 156.70L131.49 164.59L134.08 175.83L144.42 179.20ZM178.02 200.56L175.43 189.31L165.10 185.94L157.34 193.81L159.93 205.06L170.27 208.43ZM159.93 205.06L157.34 193.81L147.01 190.44L139.26 198.32L141.85 209.56L152.18 212.93ZM183.19 181.44L180.61 170.19L170.26 166.81L162.51 174.69L165.10 185.94L175.43 189.31ZM211.59 263.53L209.02 252.29L198.68 248.91L190.93 256.77L193.51 268.01L203.84 271.39ZM162.52 257.88L159.94 246.65L149.61 243.28L141.87 251.14L144.46 262.38L154.78 265.75ZM144.46 262.38L141.87 251.14L131.54 247.77L123.81 255.64L126.40 266.87L136.72 270.24ZM234.87 239.95L232.29 228.70L221.95 225.32L214.19 233.19L216.77 244.43L227.11 247.81ZM216.77 244.43L214.19 233.19L203.86 229.80L196.10 237.67L198.68 248.91L209.02 252.29ZM240.06 220.84L237.48 209.59L227.14 206.20L219.38 214.07L221.95 225.32L232.29 228.70ZM221.95 225.32L219.38 214.07L209.04 210.69L201.28 218.56L203.86 229.80L214.19 233.19ZM247.78 254.59L245.21 243.34L234.87 239.95L227.11 247.81L229.68 259.06L240.02 262.44ZM229.68 259.06L227.11 247.81L216.77 244.43L209.02 252.29L211.59 263.53L221.93 266.92ZM252.97 235.48L250.40 224.22L240.06 220.84L232.29 228.70L234.87 239.95L245.21 243.34ZM222.04 100.37L219.46 89.10L209.10 85.72L201.33 93.61L203.91 104.88L214.27 108.26ZM203.91 104.88L201.33 93.61L190.97 90.24L183.20 98.13L185.79 109.39L196.14 112.77ZM227.23 81.21L224.65 69.94L214.29 66.56L206.51 74.45L209.10 85.72L219.46 89.10ZM209.10 85.72L206.51 74.45L196.15 71.08L188.38 78.97L190.97 90.24L201.33 93.61ZM234.98 115.02L232.40 103.75L222.04 100.37L214.27 108.26L216.85 119.52L227.20 122.90ZM216.85 119.52L214.27 108.26L203.91 104.88L196.14 112.77L198.73 124.03L209.08 127.41ZM240.18 95.86L237.60 84.59L227.23 81.21L219.46 89.10L222.04 100.37L232.40 103.75ZM172.85 94.76L170.26 83.49L159.90 80.13L152.14 88.02L154.73 99.28L165.08 102.65ZM154.73 99.28L152.14 88.02L141.79 84.65L134.03 92.55L136.62 103.81L146.97 107.17ZM178.02 75.60L175.44 64.33L165.08 60.96L157.31 68.86L159.90 80.13L170.26 83.49ZM159.90 80.13L157.31 68.86L146.96 65.50L139.20 73.39L141.79 84.65L152.14 88.02ZM185.79 109.39L183.20 98.13L172.85 94.76L165.08 102.65L167.67 113.91L178.02 117.28ZM167.67 113.91L165.08 102.65L154.73 99.28L146.97 107.17L149.56 118.43L159.91 121.80ZM190.97 90.24L188.38 78.97L178.02 75.60L170.26 83.49L172.85 94.76L183.20 98.13ZM250.58 57.53L248.00 46.25L237.63 42.87L229.85 50.77L232.43 62.04L242.80 65.42ZM232.43 62.04L229.85 50.77L219.48 47.39L211.70 55.29L214.29 66.56L224.65 69.94ZM255.79 38.35L253.21 27.07L242.84 23.69L235.05 31.59L237.63 42.87L248.00 46.25ZM237.63 42.87L235.05 31.59L224.68 28.21L216.90 36.11L219.48 47.39L229.85 50.77ZM263.53 72.19L260.95 60.91L250.58 57.53L242.80 65.42L245.38 76.70L255.74 80.08ZM245.38 76.70L242.80 65.42L232.43 62.04L224.65 69.94L227.23 81.21L237.60 84.59ZM268.74 53.02L266.16 41.74L255.79 38.35L248.00 46.25L250.58 57.53L260.95 60.91ZM201.34 51.91L198.75 40.64L188.39 37.27L180.62 45.17L183.21 56.44L193.57 59.81ZM183.21 56.44L180.62 45.17L170.25 41.80L162.49 49.70L165.08 60.96L175.44 64.33ZM206.53 32.74L203.95 21.46L193.58 18.09L185.80 25.99L188.39 37.27L198.75 40.64ZM188.39 37.27L185.80 25.99L175.44 22.62L167.66 30.53L170.25 41.80L180.62 45.17ZM214.29 66.56L211.70 55.29L201.34 51.91L193.57 59.81L196.15 71.08L206.51 74.45ZM196.15 71.08L193.57 59.81L183.21 56.44L175.44 64.33L178.02 75.60L188.38 78.97ZM219.48 47.39L216.90 36.11L206.53 32.74L198.75 40.64L201.34 51.91L211.70 55.29ZM242.72 148.81L240.14 137.55L229.78 134.16L222.01 142.05L224.59 153.31L234.94 156.69ZM224.59 153.31L222.01 142.05L211.66 138.67L203.89 146.55L206.48 157.80L216.82 161.18ZM247.91 129.67L245.34 118.40L234.98 115.02L227.20 122.90L229.78 134.16L240.14 137.55ZM229.78 134.16L227.20 122.90L216.85 119.52L209.08 127.41L211.66 138.67L222.01 142.05ZM255.65 163.46L253.07 152.19L242.72 148.81L234.94 156.69L237.52 167.95L247.87 171.33ZM237.52 167.95L234.94 156.69L224.59 153.31L216.82 161.18L219.40 172.44L229.75 175.82ZM260.85 144.32L258.27 133.05L247.91 129.67L240.14 137.55L242.72 148.81L253.07 152.19ZM193.54 143.17L190.96 131.91L180.61 128.54L172.85 136.42L175.43 147.68L185.78 151.05ZM175.43 147.68L172.85 136.42L162.50 133.05L154.74 140.94L157.33 152.19L167.68 155.56ZM198.73 124.03L196.14 112.77L185.79 109.39L178.02 117.28L180.61 128.54L190.96 131.91ZM180.61 128.54L178.02 117.28L167.67 113.91L159.91 121.80L162.50 133.05L172.85 136.42ZM206.48 157.80L203.89 146.55L193.54 143.17L185.78 151.05L188.37 162.31L198.71 165.68ZM188.37 162.31L185.78 151.05L175.43 147.68L167.68 155.56L170.26 166.81L180.61 170.19ZM211.66 138.67L209.08 127.41L198.73 124.03L190.96 131.91L193.54 143.17L203.89 146.55ZM271.26 106.02L268.69 94.74L258.32 91.36L250.54 99.24L253.12 110.51L263.48 113.90ZM253.12 110.51L250.54 99.24L240.18 95.86L232.40 103.75L234.98 115.02L245.34 118.40ZM276.47 86.85L273.90 75.58L263.53 72.19L255.74 80.08L258.32 91.36L268.69 94.74ZM258.32 91.36L255.74 80.08L245.38 76.70L237.60 84.59L240.18 95.86L250.54 99.24ZM266.05 125.17L263.48 113.90L253.12 110.51L245.34 118.40L247.91 129.67L258.27 133.05ZM2.26 101.85L-0.35 90.61L-10.69 87.27L-18.41 95.17L-15.80 106.41L-5.47 109.75ZM10.08 135.57L7.47 124.33L-2.86 120.99L-10.57 128.88L-7.96 140.12L2.36 143.46ZM15.20 116.44L12.59 105.19L2.26 101.85L-5.47 109.75L-2.86 120.99L7.47 124.33ZM2.57 226.59L-0.03 215.37L-10.35 212.02L-18.06 219.90L-15.45 231.12L-5.14 234.47ZM7.68 207.49L5.07 196.26L-5.25 192.92L-12.96 200.80L-10.35 212.02L-0.03 215.37ZM17.90 169.27L15.30 158.04L4.97 154.69L-2.75 162.58L-0.14 173.81L10.18 177.15ZM23.02 150.15L20.41 138.91L10.08 135.57L2.36 143.46L4.97 154.69L15.30 158.04ZM4.97 154.69L2.36 143.46L-7.96 140.12L-15.68 148.01L-13.07 159.24L-2.75 162.58ZM30.83 183.85L28.23 172.62L17.90 169.27L10.18 177.15L12.79 188.38L23.11 191.73ZM12.79 188.38L10.18 177.15L-0.14 173.81L-7.85 181.69L-5.25 192.92L5.07 196.26ZM35.95 164.73L33.35 153.50L23.02 150.15L15.30 158.04L17.90 169.27L28.23 172.62ZM4.66 29.81L2.05 18.56L-8.30 15.22L-16.03 23.13L-13.42 34.38L-3.07 37.72ZM9.78 10.64L7.17 -0.61L-3.18 -3.95L-10.92 3.97L-8.30 15.22L2.05 18.56ZM17.61 44.40L15.00 33.15L4.66 29.81L-3.07 37.72L-0.46 48.97L9.88 52.31ZM22.74 25.24L20.13 13.99L9.78 10.64L2.05 18.56L4.66 29.81L15.00 33.15ZM45.96 1.50L43.36 -9.76L33.00 -13.10L25.26 -5.19L27.87 6.07L38.22 9.42ZM27.87 6.07L25.26 -5.19L14.91 -8.53L7.17 -0.61L9.78 10.64L20.13 13.99ZM25.44 78.15L22.83 66.90L12.49 63.56L4.76 71.46L7.37 82.71L17.71 86.05ZM7.37 82.71L4.76 71.46L-5.58 68.12L-13.30 76.03L-10.69 87.27L-0.35 90.61ZM30.57 59.00L27.96 47.75L17.61 44.40L9.88 52.31L12.49 63.56L22.83 66.90ZM12.49 63.56L9.88 52.31L-0.46 48.97L-8.19 56.88L-5.58 68.12L4.76 71.46ZM38.39 92.75L35.78 81.50L25.44 78.15L17.71 86.05L20.32 97.30L30.65 100.64ZM20.32 97.30L17.71 86.05L7.37 82.71L-0.35 90.61L2.26 101.85L12.59 105.19ZM43.52 73.60L40.91 62.35L30.57 59.00L22.83 66.90L25.44 78.15L35.78 81.50ZM53.78 35.28L51.18 24.02L40.83 20.68L33.09 28.59L35.70 39.84L46.04 43.19ZM35.70 39.84L33.09 28.59L22.74 25.24L15.00 33.15L17.61 44.40L27.96 47.75ZM58.92 16.11L56.32 4.85L45.96 1.50L38.22 9.42L40.83 20.68L51.18 24.02ZM40.83 20.68L38.22 9.42L27.87 6.07L20.13 13.99L22.74 25.24L33.09 28.59ZM66.74 49.89L64.13 38.63L53.78 35.28L46.04 43.19L48.65 54.44L59.00 57.79ZM48.65 54.44L46.04 43.19L35.70 39.84L27.96 47.75L30.57 59.00L40.91 62.35ZM71.88 30.72L69.28 19.46L58.92 16.11L51.18 24.02L53.78 35.28L64.13 38.63ZM59.35 265.79L56.75 254.57L46.44 251.21L38.72 259.08L41.32 270.30L51.63 273.65ZM64.47 246.70L61.88 235.47L51.56 232.12L43.84 239.99L46.44 251.21L56.75 254.57ZM77.39 261.28L74.79 250.05L64.47 246.70L56.75 254.57L59.35 265.79L69.67 269.15ZM87.65 223.08L85.06 211.85L74.73 208.49L67.00 216.37L69.60 227.60L79.92 230.96ZM69.60 227.60L67.00 216.37L56.68 213.01L48.96 220.89L51.56 232.12L61.88 235.47ZM92.79 203.98L90.19 192.74L79.86 189.38L72.13 197.26L74.73 208.49L85.06 211.85ZM74.73 208.49L72.13 197.26L61.81 193.90L54.08 201.78L56.68 213.01L67.00 216.37ZM100.57 237.68L97.98 226.45L87.65 223.08L79.92 230.96L82.52 242.19L92.84 245.55ZM82.52 242.19L79.92 230.96L69.60 227.60L61.88 235.47L64.47 246.70L74.79 250.05ZM105.71 218.57L103.12 207.34L92.79 203.98L85.06 211.85L87.65 223.08L97.98 226.45ZM38.64 217.54L36.04 206.31L25.71 202.96L18.00 210.84L20.60 222.06L30.92 225.41ZM20.60 222.06L18.00 210.84L7.68 207.49L-0.03 215.37L2.57 226.59L12.89 229.94ZM43.76 198.43L41.16 187.20L30.83 183.85L23.11 191.73L25.71 202.96L36.04 206.31ZM25.71 202.96L23.11 191.73L12.79 188.38L5.07 196.26L7.68 207.49L18.00 210.84ZM51.56 232.12L48.96 220.89L38.64 217.54L30.92 225.41L33.52 236.64L43.84 239.99ZM33.52 236.64L30.92 225.41L20.60 222.06L12.89 229.94L15.49 241.16L25.81 244.51ZM56.68 213.01L54.08 201.78L43.76 198.43L36.04 206.31L38.64 217.54L48.96 220.89ZM113.48 252.27L110.89 241.04L100.57 237.68L92.84 245.55L95.43 256.77L105.75 260.14ZM95.43 256.77L92.84 245.55L82.52 242.19L74.79 250.05L77.39 261.28L87.71 264.64ZM126.40 266.87L123.81 255.64L113.48 252.27L105.75 260.14L108.34 271.37L118.66 274.73ZM95.29 132.00L92.69 120.76L82.35 117.40L74.61 125.29L77.21 136.54L87.54 139.89ZM77.21 136.54L74.61 125.29L64.27 121.94L56.54 129.83L59.14 141.07L69.47 144.42ZM100.43 112.87L97.84 101.61L87.49 98.26L79.75 106.15L82.35 117.40L92.69 120.76ZM82.35 117.40L79.75 106.15L69.41 102.80L61.67 110.69L64.27 121.94L74.61 125.29ZM108.22 146.61L105.63 135.36L95.29 132.00L87.54 139.89L90.14 151.14L100.48 154.50ZM90.14 151.14L87.54 139.89L77.21 136.54L69.47 144.42L72.07 155.67L82.40 159.02ZM113.37 127.48L110.78 116.23L100.43 112.87L92.69 120.76L95.29 132.00L105.63 135.36ZM46.20 126.48L43.60 115.23L33.26 111.89L25.53 119.78L28.14 131.02L38.47 134.37ZM28.14 131.02L25.53 119.78L15.20 116.44L7.47 124.33L10.08 135.57L20.41 138.91ZM51.33 107.34L48.73 96.09L38.39 92.75L30.65 100.64L33.26 111.89L43.60 115.23ZM33.26 111.89L30.65 100.64L20.32 97.30L12.59 105.19L15.20 116.44L25.53 119.78ZM59.14 141.07L56.54 129.83L46.20 126.48L38.47 134.37L41.07 145.61L51.41 148.96ZM41.07 145.61L38.47 134.37L28.14 131.02L20.41 138.91L23.02 150.15L33.35 153.50ZM64.27 121.94L61.67 110.69L51.33 107.34L43.60 115.23L46.20 126.48L56.54 129.83ZM123.68 89.19L121.09 77.93L110.74 74.57L102.99 82.46L105.58 93.72L115.93 97.08ZM105.58 93.72L102.99 82.46L92.64 79.11L84.89 87.00L87.49 98.26L97.84 101.61ZM128.84 70.03L126.25 58.77L115.89 55.41L108.14 63.31L110.74 74.57L121.09 77.93ZM110.74 74.57L108.14 63.31L97.79 59.95L90.04 67.85L92.64 79.11L102.99 82.46ZM136.62 103.81L134.03 92.55L123.68 89.19L115.93 97.08L118.53 108.33L128.87 111.70ZM118.53 108.33L115.93 97.08L105.58 93.72L97.84 101.61L100.43 112.87L110.78 116.23ZM141.79 84.65L139.20 73.39L128.84 70.03L121.09 77.93L123.68 89.19L134.03 92.55ZM74.55 83.65L71.94 72.40L61.60 69.05L53.86 76.95L56.46 88.20L66.81 91.55ZM56.46 88.20L53.86 76.95L43.52 73.60L35.78 81.50L38.39 92.75L48.73 96.09ZM79.69 64.50L77.09 53.24L66.74 49.89L59.00 57.79L61.60 69.05L71.94 72.40ZM61.60 69.05L59.00 57.79L48.65 54.44L40.91 62.35L43.52 73.60L53.86 76.95ZM87.49 98.26L84.89 87.00L74.55 83.65L66.81 91.55L69.41 102.80L79.75 106.15ZM69.41 102.80L66.81 91.55L56.46 88.20L48.73 96.09L51.33 107.34L61.67 110.69ZM92.64 79.11L90.04 67.85L79.69 64.50L71.94 72.40L74.55 83.65L84.89 87.00ZM116.00 180.34L113.41 169.10L103.07 165.74L95.33 173.62L97.93 184.86L108.26 188.22ZM97.93 184.86L95.33 173.62L85.00 170.26L77.27 178.14L79.86 189.38L90.19 192.74ZM121.15 161.22L118.56 149.97L108.22 146.61L100.48 154.50L103.07 165.74L113.41 169.10ZM103.07 165.74L100.48 154.50L90.14 151.14L82.40 159.02L85.00 170.26L95.33 173.62ZM128.93 194.95L126.34 183.71L116.00 180.34L108.26 188.22L110.85 199.46L121.19 202.83ZM110.85 199.46L108.26 188.22L97.93 184.86L90.19 192.74L92.79 203.98L103.12 207.34ZM134.08 175.83L131.49 164.59L121.15 161.22L113.41 169.10L116.00 180.34L126.34 183.71ZM66.94 174.79L64.34 163.55L54.01 160.20L46.28 168.08L48.88 179.32L59.21 182.67ZM48.88 179.32L46.28 168.08L35.95 164.73L28.23 172.62L30.83 183.85L41.16 187.20ZM72.07 155.67L69.47 144.42L59.14 141.07L51.41 148.96L54.01 160.20L64.34 163.55ZM54.01 160.20L51.41 148.96L41.07 145.61L33.35 153.50L35.95 164.73L46.28 168.08ZM79.86 189.38L77.27 178.14L66.94 174.79L59.21 182.67L61.81 193.90L72.13 197.26ZM61.81 193.90L59.21 182.67L48.88 179.32L41.16 187.20L43.76 198.43L54.08 201.78ZM85.00 170.26L82.40 159.02L72.07 155.67L64.34 163.55L66.94 174.79L77.27 178.14ZM144.40 137.57L141.81 126.32L131.46 122.95L123.71 130.84L126.31 142.09L136.65 145.45ZM126.31 142.09L123.71 130.84L113.37 127.48L105.63 135.36L108.22 146.61L118.56 149.97ZM149.56 118.43L146.97 107.17L136.62 103.81L128.87 111.70L131.46 122.95L141.81 126.32ZM131.46 122.95L128.87 111.70L118.53 108.33L110.78 116.23L113.37 127.48L123.71 130.84ZM157.33 152.19L154.74 140.94L144.40 137.57L136.65 145.45L139.24 156.70L149.58 160.07ZM139.24 156.70L136.65 145.45L126.31 142.09L118.56 149.97L121.15 161.22L131.49 164.59ZM162.50 133.05L159.91 121.80L149.56 118.43L141.81 126.32L144.40 137.57L154.74 140.94Z"/><path data-band="2" fill="#f97316" fill-opacity="0.35" d="M266.22 -0.02L263.64 -11.31L253.26 -14.69L245.47 -6.78L248.05 4.50L258.42 7.89ZM229.88 9.03L227.30 -2.25L216.92 -5.63L209.14 2.28L211.73 13.56L222.10 16.93ZM211.73 13.56L209.14 2.28L198.77 -1.10L190.99 6.81L193.58 18.09L203.95 21.46ZM216.92 -5.63L214.34 -16.92L203.96 -20.29L196.18 -12.38L198.77 -1.10L209.14 2.28ZM242.84 23.69L240.26 12.41L229.88 9.03L222.10 16.93L224.68 28.21L235.05 31.59ZM224.68 28.21L222.10 16.93L211.73 13.56L203.95 21.46L206.53 32.74L216.90 36.11ZM248.05 4.50L245.47 -6.78L235.09 -10.16L227.30 -2.25L229.88 9.03L240.26 12.41ZM131.38 -2.11L128.79 -13.39L118.42 -16.74L110.66 -8.83L113.26 2.44L123.62 5.80ZM144.34 12.52L141.75 1.25L131.38 -2.11L123.62 5.80L126.22 17.07L136.58 20.43ZM149.52 -6.66L146.92 -17.94L136.55 -21.30L128.79 -13.39L131.38 -2.11L141.75 1.25ZM82.18 -7.63L79.57 -18.89L69.21 -22.25L61.46 -14.33L64.07 -3.06L74.42 0.29ZM64.07 -3.06L61.46 -14.33L51.10 -17.68L43.36 -9.76L45.96 1.50L56.32 4.85ZM157.30 27.16L154.71 15.89L144.34 12.52L136.58 20.43L139.17 31.70L149.53 35.06ZM180.62 3.44L178.03 -7.84L167.66 -11.21L159.88 -3.30L162.48 7.98L172.84 11.35ZM162.48 7.98L159.88 -3.30L149.52 -6.66L141.75 1.25L144.34 12.52L154.71 15.89ZM193.58 18.09L190.99 6.81L180.62 3.44L172.84 11.35L175.44 22.62L185.80 25.99ZM175.44 22.62L172.84 11.35L162.48 7.98L154.71 15.89L157.30 27.16L167.66 30.53ZM198.77 -1.10L196.18 -12.38L185.81 -15.75L178.03 -7.84L180.62 3.44L190.99 6.81Z"/></svg>
