<svg xmlns="http://www.w3.org/2000/svg" width="256" height="256" viewBox="0 0 256 256"><path data-band="1" fill="#fde68a" fill-opacity="0.35" d="M265.89 -5.88L263.32 -17.14L252.97 -20.52L245.21 -12.66L247.78 -1.41L258.12 1.97ZM198.68 -7.09L196.10 -18.33L185.77 -21.71L178.02 -13.84L180.60 -2.60L190.93 0.77ZM180.60 -2.60L178.02 -13.84L167.69 -17.22L159.94 -9.35L162.52 1.88L172.85 5.26ZM211.59 7.53L209.02 -3.71L198.68 -7.09L190.93 0.77L193.51 12.01L203.84 15.39ZM162.52 1.88L159.94 -9.35L149.61 -12.72L141.87 -4.86L144.46 6.38L154.78 9.75ZM144.46 6.38L141.87 -4.86L131.54 -8.23L123.81 -0.36L126.40 10.87L136.72 14.24ZM247.78 -1.41L245.21 -12.66L234.87 -16.05L227.11 -8.19L229.68 3.06L240.02 6.44ZM229.68 3.06L227.11 -8.19L216.77 -11.57L209.02 -3.71L211.59 7.53L221.93 10.92ZM59.35 9.79L56.75 -1.43L46.44 -4.79L38.72 3.08L41.32 14.30L51.63 17.65ZM77.39 5.28L74.79 -5.95L64.47 -9.30L56.75 -1.43L59.35 9.79L69.67 13.15ZM113.48 -3.73L110.89 -14.96L100.57 -18.32L92.84 -10.45L95.43 0.77L105.75 4.14ZM95.43 0.77L92.84 -10.45L82.52 -13.81L74.79 -5.95L77.39 5.28L87.71 8.64ZM126.40 10.87L123.81 -0.36L113.48 -3.73L105.75 4.14L108.34 15.37L118.66 18.73Z"/></svg>
