<svg xmlns="http://www.w3.org/2000/svg" width="256" height="256" viewBox="0 0 256 256"><path data-band="1" fill="#fde68a" fill-opacity="0.35" d="M225.71 187.42L224.38 181.38L218.78 179.69L214.51 184.05L215.85 190.09L221.45 191.77ZM215.85 190.09L214.51 184.05L208.91 182.36L204.65 186.72L205.99 192.76L211.59 194.44ZM199.05 185.03L197.72 178.99L192.12 177.31L187.86 181.67L189.20 187.71L194.80 189.39ZM189.20 187.71L187.86 181.67L182.26 179.99L178.01 184.35L179.35 190.39L184.95 192.07ZM229.71 205.54L228.38 199.50L222.78 197.82L218.52 202.17L219.86 208.21L225.45 209.90ZM219.86 208.21L218.52 202.17L212.92 200.48L208.66 204.84L210.00 210.87L215.60 212.56ZM232.64 195.15L231.31 189.11L225.71 187.42L221.45 191.77L222.78 197.82L228.38 199.50ZM222.78 197.82L221.45 191.77L215.85 190.09L211.59 194.44L212.92 200.48L218.52 202.17ZM236.64 213.28L235.31 207.23L229.71 205.54L225.45 209.90L226.78 215.94L232.38 217.62ZM226.78 215.94L225.45 209.90L219.86 208.21L215.60 212.56L216.93 218.60L222.52 220.28ZM239.58 202.88L238.24 196.84L232.64 195.15L228.38 199.50L229.71 205.54L235.31 207.23ZM203.07 203.15L201.73 197.11L196.14 195.43L191.88 199.78L193.22 205.82L198.81 207.50ZM193.22 205.82L191.88 199.78L186.29 198.10L182.03 202.46L183.37 208.49L188.97 210.17ZM205.99 192.76L204.65 186.72L199.05 185.03L194.80 189.39L196.14 195.43L201.73 197.11ZM196.14 195.43L194.80 189.39L189.20 187.71L184.95 192.07L186.29 198.10L191.88 199.78ZM210.00 210.87L208.66 204.84L203.07 203.15L198.81 207.50L200.15 213.54L205.74 215.22ZM200.15 213.54L198.81 207.50L193.22 205.82L188.97 210.17L190.30 216.21L195.90 217.89ZM212.92 200.48L211.59 194.44L205.99 192.76L201.73 197.11L203.07 203.15L208.66 204.84ZM235.58 184.75L234.24 178.71L228.64 177.02L224.38 181.38L225.71 187.42L231.31 189.11ZM252.38 189.83L251.05 183.78L245.45 182.09L241.18 186.44L242.51 192.49L248.11 194.18ZM242.51 192.49L241.18 186.44L235.58 184.75L231.31 189.11L232.64 195.15L238.24 196.84ZM149.83 198.43L148.48 192.40L142.89 190.73L138.65 195.09L139.99 201.12L145.58 202.79ZM139.99 201.12L138.65 195.09L133.06 193.42L128.82 197.78L130.17 203.81L135.75 205.48ZM152.73 188.04L151.38 182.01L145.79 180.33L141.54 184.70L142.89 190.73L148.48 192.40ZM142.89 190.73L141.54 184.70L135.95 183.02L131.71 187.39L133.06 193.42L138.65 195.09ZM156.76 206.14L155.42 200.11L149.83 198.43L145.58 202.79L146.93 208.82L152.52 210.49ZM146.93 208.82L145.58 202.79L139.99 201.12L135.75 205.48L137.10 211.51L142.69 213.18ZM159.66 195.75L158.32 189.71L152.73 188.04L148.48 192.40L149.83 198.43L155.42 200.11ZM123.23 196.11L121.88 190.08L116.29 188.41L112.05 192.78L113.41 198.80L118.99 200.47ZM113.41 198.80L112.05 192.78L106.47 191.11L102.23 195.47L103.58 201.50L109.17 203.16ZM126.12 185.72L124.77 179.69L119.18 178.02L114.94 182.38L116.29 188.41L121.88 190.08ZM116.29 188.41L114.94 182.38L109.35 180.72L105.12 185.08L106.47 191.11L112.05 192.78ZM130.17 203.81L128.82 197.78L123.23 196.11L118.99 200.47L120.34 206.50L125.93 208.17ZM120.34 206.50L118.99 200.47L113.41 198.80L109.17 203.16L110.52 209.19L116.10 210.86ZM133.06 193.42L131.71 187.39L126.12 185.72L121.88 190.08L123.23 196.11L128.82 197.78ZM162.57 185.36L161.22 179.32L155.63 177.64L151.38 182.01L152.73 188.04L158.32 189.71ZM160.79 224.23L159.45 218.20L153.86 216.53L149.62 220.88L150.96 226.91L156.55 228.58ZM150.96 226.91L149.62 220.88L144.03 219.21L139.79 223.56L141.14 229.59L146.72 231.26ZM163.69 213.85L162.35 207.81L156.76 206.14L152.52 210.49L153.86 216.53L159.45 218.20ZM153.86 216.53L152.52 210.49L146.93 208.82L142.69 213.18L144.03 219.21L149.62 220.88ZM167.72 231.94L166.38 225.91L160.79 224.23L156.55 228.58L157.89 234.61L163.48 236.29ZM157.89 234.61L156.55 228.58L150.96 226.91L146.72 231.26L148.06 237.29L153.65 238.96ZM170.62 221.55L169.28 215.52L163.69 213.85L159.45 218.20L160.79 224.23L166.38 225.91ZM134.21 221.89L132.86 215.86L127.27 214.19L123.04 218.55L124.39 224.58L129.97 226.24ZM124.39 224.58L123.04 218.55L117.45 216.88L113.22 221.24L114.57 227.26L120.15 228.93ZM137.10 211.51L135.75 205.48L130.17 203.81L125.93 208.17L127.27 214.19L132.86 215.86ZM127.27 214.19L125.93 208.17L120.34 206.50L116.10 210.86L117.45 216.88L123.04 218.55ZM141.14 229.59L139.79 223.56L134.21 221.89L129.97 226.24L131.32 232.27L136.90 233.94ZM131.32 232.27L129.97 226.24L124.39 224.58L120.15 228.93L121.50 234.95L127.08 236.62ZM144.03 219.21L142.69 213.18L137.10 211.51L132.86 215.86L134.21 221.89L139.79 223.56ZM176.44 200.78L175.10 194.74L169.51 193.07L165.26 197.42L166.60 203.46L172.19 205.14ZM166.60 203.46L165.26 197.42L159.66 195.75L155.42 200.11L156.76 206.14L162.35 207.81ZM179.35 190.39L178.01 184.35L172.41 182.67L168.16 187.03L169.51 193.07L175.10 194.74ZM169.51 193.07L168.16 187.03L162.57 185.36L158.32 189.71L159.66 195.75L165.26 197.42ZM183.37 208.49L182.03 202.46L176.44 200.78L172.19 205.14L173.53 211.17L179.12 212.85ZM173.53 211.17L172.19 205.14L166.60 203.46L162.35 207.81L163.69 213.85L169.28 215.52ZM186.29 198.10L184.95 192.07L179.35 190.39L175.10 194.74L176.44 200.78L182.03 202.46ZM257.42 236.48L256.09 230.44L250.50 228.74L246.23 233.09L247.56 239.13L253.16 240.82ZM260.36 226.09L259.03 220.05L253.44 218.35L249.17 222.70L250.50 228.74L256.09 230.44ZM264.35 244.21L263.02 238.17L257.42 236.48L253.16 240.82L254.49 246.86L260.08 248.55ZM240.64 231.39L239.31 225.36L233.71 223.66L229.45 228.01L230.78 234.05L236.38 235.74ZM230.78 234.05L229.45 228.01L223.86 226.32L219.60 230.67L220.93 236.71L226.52 238.39ZM243.57 221.01L242.24 214.97L236.64 213.28L232.38 217.62L233.71 223.66L239.31 225.36ZM233.71 223.66L232.38 217.62L226.78 215.94L222.52 220.28L223.86 226.32L229.45 228.01ZM247.56 239.13L246.23 233.09L240.64 231.39L236.38 235.74L237.71 241.78L243.30 243.47ZM237.71 241.78L236.38 235.74L230.78 234.05L226.52 238.39L227.86 244.43L233.45 246.12ZM250.50 228.74L249.17 222.70L243.57 221.01L239.31 225.36L240.64 231.39L246.23 233.09ZM256.37 207.96L255.04 201.92L249.44 200.23L245.18 204.58L246.51 210.62L252.11 212.31ZM246.51 210.62L245.18 204.58L239.58 202.88L235.31 207.23L236.64 213.28L242.24 214.97ZM259.31 197.57L257.98 191.52L252.38 189.83L248.11 194.18L249.44 200.23L255.04 201.92ZM249.44 200.23L248.11 194.18L242.51 192.49L238.24 196.84L239.58 202.88L245.18 204.58ZM263.30 215.70L261.97 209.66L256.37 207.96L252.11 212.31L253.44 218.35L259.03 220.05ZM253.44 218.35L252.11 212.31L246.51 210.62L242.24 214.97L243.57 221.01L249.17 222.70ZM266.25 205.31L264.92 199.26L259.31 197.57L255.04 201.92L256.37 207.96L261.97 209.66ZM251.55 257.24L250.22 251.20L244.63 249.51L240.37 253.85L241.70 259.88L247.29 261.58ZM241.70 259.88L240.37 253.85L234.78 252.16L230.52 256.50L231.85 262.53L237.44 264.22ZM254.49 246.86L253.16 240.82L247.56 239.13L243.30 243.47L244.63 249.51L250.22 251.20ZM244.63 249.51L243.30 243.47L237.71 241.78L233.45 246.12L234.78 252.16L240.37 253.85ZM261.41 254.59L260.08 248.55L254.49 246.86L250.22 251.20L251.55 257.24L257.14 258.93ZM198.33 252.40L196.99 246.37L191.41 244.69L187.16 249.04L188.49 255.06L194.08 256.75ZM188.49 255.06L187.16 249.04L181.57 247.35L177.33 251.70L178.66 257.73L184.25 259.41ZM201.24 242.03L199.91 235.99L194.32 234.31L190.07 238.66L191.41 244.69L196.99 246.37ZM191.41 244.69L190.07 238.66L184.48 236.98L180.23 241.33L181.57 247.35L187.16 249.04ZM205.25 260.12L203.92 254.09L198.33 252.40L194.08 256.75L195.42 262.78L201.00 264.46ZM195.42 262.78L194.08 256.75L188.49 255.06L184.25 259.41L185.59 265.44L191.17 267.12ZM208.17 249.74L206.83 243.71L201.24 242.03L196.99 246.37L198.33 252.40L203.92 254.09ZM171.74 250.02L170.40 243.99L164.82 242.32L160.57 246.67L161.92 252.69L167.50 254.37ZM161.92 252.69L160.57 246.67L154.99 244.99L150.75 249.34L152.09 255.36L157.68 257.04ZM174.65 239.64L173.31 233.62L167.72 231.94L163.48 236.29L164.82 242.32L170.40 243.99ZM164.82 242.32L163.48 236.29L157.89 234.61L153.65 238.96L154.99 244.99L160.57 246.67ZM178.66 257.73L177.33 251.70L171.74 250.02L167.50 254.37L168.84 260.39L174.42 262.07ZM168.84 260.39L167.50 254.37L161.92 252.69L157.68 257.04L159.02 263.06L164.60 264.74ZM181.57 247.35L180.23 241.33L174.65 239.64L170.40 243.99L171.74 250.02L177.33 251.70ZM214.01 228.98L212.67 222.95L207.08 221.26L202.82 225.61L204.16 231.64L209.75 233.33ZM204.16 231.64L202.82 225.61L197.23 223.93L192.98 228.28L194.32 234.31L199.91 235.99ZM216.93 218.60L215.60 212.56L210.00 210.87L205.74 215.22L207.08 221.26L212.67 222.95ZM207.08 221.26L205.74 215.22L200.15 213.54L195.90 217.89L197.23 223.93L202.82 225.61ZM220.93 236.71L219.60 230.67L214.01 228.98L209.75 233.33L211.09 239.36L216.68 241.05ZM211.09 239.36L209.75 233.33L204.16 231.64L199.91 235.99L201.24 242.03L206.83 243.71ZM223.86 226.32L222.52 220.28L216.93 218.60L212.67 222.95L214.01 228.98L219.60 230.67ZM187.39 226.59L186.05 220.56L180.46 218.88L176.21 223.23L177.55 229.26L183.14 230.95ZM177.55 229.26L176.21 223.23L170.62 221.55L166.38 225.91L167.72 231.94L173.31 233.62ZM190.30 216.21L188.97 210.17L183.37 208.49L179.12 212.85L180.46 218.88L186.05 220.56ZM180.46 218.88L179.12 212.85L173.53 211.17L169.28 215.52L170.62 221.55L176.21 223.23ZM194.32 234.31L192.98 228.28L187.39 226.59L183.14 230.95L184.48 236.98L190.07 238.66ZM184.48 236.98L183.14 230.95L177.55 229.26L173.31 233.62L174.65 239.64L180.23 241.33ZM197.23 223.93L195.90 217.89L190.30 216.21L186.05 220.56L187.39 226.59L192.98 228.28ZM224.93 254.81L223.60 248.77L218.01 247.09L213.76 251.43L215.09 257.46L220.68 259.15ZM215.09 257.46L213.76 251.43L208.17 249.74L203.92 254.09L205.25 260.12L210.84 261.81ZM227.86 244.43L226.52 238.39L220.93 236.71L216.68 241.05L218.01 247.09L223.60 248.77ZM218.01 247.09L216.68 241.05L211.09 239.36L206.83 243.71L208.17 249.74L213.76 251.43ZM231.85 262.53L230.52 256.50L224.93 254.81L220.68 259.15L222.01 265.18L227.60 266.87ZM234.78 252.16L233.45 246.12L227.86 244.43L223.60 248.77L224.93 254.81L230.52 256.50ZM262.26 187.17L260.93 181.12L255.32 179.43L251.05 183.78L252.38 189.83L257.98 191.52ZM43.53 189.28L42.17 183.26L36.59 181.61L32.37 185.98L33.73 192.00L39.31 193.65ZM33.73 192.00L32.37 185.98L26.79 184.33L22.58 188.70L23.94 194.72L29.52 196.36ZM50.47 196.95L49.11 190.93L43.53 189.28L39.31 193.65L40.67 199.67L46.25 201.32ZM40.67 199.67L39.31 193.65L33.73 192.00L29.52 196.36L30.88 202.38L36.46 204.03ZM53.34 186.57L51.98 180.54L46.39 178.89L42.17 183.26L43.53 189.28L49.11 190.93ZM17.00 187.05L15.64 181.03L10.06 179.39L5.84 183.76L7.21 189.78L12.79 191.42ZM7.21 189.78L5.84 183.76L0.27 182.12L-3.94 186.49L-2.58 192.50L3.00 194.14ZM23.94 194.72L22.58 188.70L17.00 187.05L12.79 191.42L14.15 197.44L19.73 199.08ZM14.15 197.44L12.79 191.42L7.21 189.78L3.00 194.14L4.36 200.16L9.94 201.80ZM26.79 184.33L25.43 178.31L19.85 176.66L15.64 181.03L17.00 187.05L22.58 188.70ZM81.08 217.28L79.73 211.26L74.15 209.60L69.93 213.96L71.28 219.98L76.86 221.64ZM71.28 219.98L69.93 213.96L64.35 212.30L60.12 216.66L61.48 222.68L67.06 224.34ZM83.96 206.90L82.60 200.87L77.02 199.21L72.79 203.58L74.15 209.60L79.73 211.26ZM74.15 209.60L72.79 203.58L67.21 201.92L62.99 206.28L64.35 212.30L69.93 213.96ZM88.02 224.96L86.66 218.94L81.08 217.28L76.86 221.64L78.21 227.66L83.79 229.32ZM78.21 227.66L76.86 221.64L71.28 219.98L67.06 224.34L68.41 230.36L73.99 232.02ZM90.89 214.58L89.54 208.56L83.96 206.90L79.73 211.26L81.08 217.28L86.66 218.94ZM54.55 215.01L53.19 208.99L47.61 207.34L43.39 211.70L44.75 217.72L50.33 219.37ZM44.75 217.72L43.39 211.70L37.82 210.05L33.60 214.41L34.96 220.43L40.54 222.08ZM57.41 204.63L56.05 198.61L50.47 196.95L46.25 201.32L47.61 207.34L53.19 208.99ZM47.61 207.34L46.25 201.32L40.67 199.67L36.46 204.03L37.82 210.05L43.39 211.70ZM61.48 222.68L60.12 216.66L54.55 215.01L50.33 219.37L51.69 225.39L57.26 227.04ZM51.69 225.39L50.33 219.37L44.75 217.72L40.54 222.08L41.90 228.09L47.47 229.75ZM64.35 212.30L62.99 206.28L57.41 204.63L53.19 208.99L54.55 215.01L60.12 216.66ZM96.65 193.81L95.30 187.78L89.71 186.12L85.48 190.49L86.83 196.51L92.42 198.17ZM86.83 196.51L85.48 190.49L79.89 188.83L75.67 193.19L77.02 199.21L82.60 200.87ZM89.71 186.12L88.35 180.09L82.77 178.43L78.54 182.80L79.89 188.83L85.48 190.49ZM103.58 201.50L102.23 195.47L96.65 193.81L92.42 198.17L93.77 204.20L99.35 205.86ZM93.77 204.20L92.42 198.17L86.83 196.51L82.60 200.87L83.96 206.90L89.54 208.56ZM106.47 191.11L105.12 185.08L99.53 183.42L95.30 187.78L96.65 193.81L102.23 195.47ZM70.08 191.53L68.73 185.51L63.14 183.85L58.92 188.22L60.28 194.24L65.86 195.90ZM60.28 194.24L58.92 188.22L53.34 186.57L49.11 190.93L50.47 196.95L56.05 198.61ZM63.14 183.85L61.78 177.83L56.20 176.17L51.98 180.54L53.34 186.57L58.92 188.22ZM77.02 199.21L75.67 193.19L70.08 191.53L65.86 195.90L67.21 201.92L72.79 203.58ZM67.21 201.92L65.86 195.90L60.28 194.24L56.05 198.61L57.41 204.63L62.99 206.28ZM79.89 188.83L78.54 182.80L72.95 181.14L68.73 185.51L70.08 191.53L75.67 193.19ZM92.07 243.02L90.72 237.00L85.14 235.34L80.92 239.69L82.27 245.71L87.85 247.37ZM82.27 245.71L80.92 239.69L75.34 238.03L71.12 242.39L72.48 248.41L78.05 250.07ZM94.95 232.64L93.60 226.62L88.02 224.96L83.79 229.32L85.14 235.34L90.72 237.00ZM85.14 235.34L83.79 229.32L78.21 227.66L73.99 232.02L75.34 238.03L80.92 239.69ZM99.00 250.70L97.65 244.68L92.07 243.02L87.85 247.37L89.20 253.39L94.78 255.05ZM89.20 253.39L87.85 247.37L82.27 245.71L78.05 250.07L79.40 256.08L84.98 257.74ZM101.88 240.33L100.53 234.31L94.95 232.64L90.72 237.00L92.07 243.02L97.65 244.68ZM65.55 240.73L64.19 234.72L58.62 233.06L54.40 237.42L55.76 243.43L61.33 245.09ZM55.76 243.43L54.40 237.42L48.83 235.76L44.61 240.12L45.97 246.13L51.54 247.79ZM68.41 230.36L67.06 224.34L61.48 222.68L57.26 227.04L58.62 233.06L64.19 234.72ZM58.62 233.06L57.26 227.04L51.69 225.39L47.47 229.75L48.83 235.76L54.40 237.42ZM72.48 248.41L71.12 242.39L65.55 240.73L61.33 245.09L62.69 251.10L68.26 252.76ZM62.69 251.10L61.33 245.09L55.76 243.43L51.54 247.79L52.90 253.80L58.47 255.46ZM75.34 238.03L73.99 232.02L68.41 230.36L64.19 234.72L65.55 240.73L71.12 242.39ZM107.64 219.57L106.29 213.55L100.70 211.88L96.47 216.24L97.83 222.27L103.41 223.93ZM97.83 222.27L96.47 216.24L90.89 214.58L86.66 218.94L88.02 224.96L93.60 226.62ZM110.52 209.19L109.17 203.16L103.58 201.50L99.35 205.86L100.70 211.88L106.29 213.55ZM100.70 211.88L99.35 205.86L93.77 204.20L89.54 208.56L90.89 214.58L96.47 216.24ZM114.57 227.26L113.22 221.24L107.64 219.57L103.41 223.93L104.76 229.95L110.34 231.62ZM104.76 229.95L103.41 223.93L97.83 222.27L93.60 226.62L94.95 232.64L100.53 234.31ZM117.45 216.88L116.10 210.86L110.52 209.19L106.29 213.55L107.64 219.57L113.22 221.24ZM12.55 236.23L11.19 230.22L5.62 228.57L1.41 232.93L2.77 238.94L8.34 240.59ZM2.77 238.94L1.41 232.93L-4.16 231.29L-8.36 235.65L-7.00 241.66L-1.43 243.30ZM15.39 225.85L14.03 219.84L8.46 218.20L4.25 222.56L5.62 228.57L11.19 230.22ZM5.62 228.57L4.25 222.56L-1.32 220.92L-5.52 225.28L-4.16 231.29L1.41 232.93ZM19.48 243.88L18.12 237.87L12.55 236.23L8.34 240.59L9.71 246.60L15.27 248.24ZM9.71 246.60L8.34 240.59L2.77 238.94L-1.43 243.30L-0.06 249.31L5.50 250.95ZM22.33 233.51L20.96 227.50L15.39 225.85L11.19 230.22L12.55 236.23L18.12 237.87ZM28.03 212.76L26.66 206.75L21.09 205.10L16.88 209.46L18.24 215.48L23.81 217.13ZM18.24 215.48L16.88 209.46L11.30 207.82L7.09 212.18L8.46 218.20L14.03 219.84ZM30.88 202.38L29.52 196.36L23.94 194.72L19.73 199.08L21.09 205.10L26.66 206.75ZM21.09 205.10L19.73 199.08L14.15 197.44L9.94 201.80L11.30 207.82L16.88 209.46ZM34.96 220.43L33.60 214.41L28.03 212.76L23.81 217.13L25.18 223.14L30.75 224.79ZM25.18 223.14L23.81 217.13L18.24 215.48L14.03 219.84L15.39 225.85L20.96 227.50ZM37.82 210.05L36.46 204.03L30.88 202.38L26.66 206.75L28.03 212.76L33.60 214.41ZM1.52 210.54L0.16 204.53L-5.42 202.88L-9.62 207.25L-8.26 213.26L-2.68 214.91ZM4.36 200.16L3.00 194.14L-2.58 192.50L-6.78 196.87L-5.42 202.88L0.16 204.53ZM8.46 218.20L7.09 212.18L1.52 210.54L-2.68 214.91L-1.32 220.92L4.25 222.56ZM11.30 207.82L9.94 201.80L4.36 200.16L0.16 204.53L1.52 210.54L7.09 212.18ZM23.56 261.91L22.20 255.90L16.63 254.25L12.43 258.61L13.79 264.61L19.36 266.26ZM26.41 251.54L25.05 245.53L19.48 243.88L15.27 248.24L16.63 254.25L22.20 255.90ZM16.63 254.25L15.27 248.24L9.71 246.60L5.50 250.95L6.86 256.96L12.43 258.61ZM33.34 259.20L31.98 253.19L26.41 251.54L22.20 255.90L23.56 261.91L29.13 263.56ZM6.86 256.96L5.50 250.95L-0.06 249.31L-4.27 253.67L-2.90 259.67L2.66 261.32ZM39.04 238.47L37.68 232.45L32.11 230.80L27.90 235.16L29.26 241.17L34.83 242.83ZM29.26 241.17L27.90 235.16L22.33 233.51L18.12 237.87L19.48 243.88L25.05 245.53ZM41.90 228.09L40.54 222.08L34.96 220.43L30.75 224.79L32.11 230.80L37.68 232.45ZM32.11 230.80L30.75 224.79L25.18 223.14L20.96 227.50L22.33 233.51L27.90 235.16ZM45.97 246.13L44.61 240.12L39.04 238.47L34.83 242.83L36.19 248.84L41.76 250.49ZM36.19 248.84L34.83 242.83L29.26 241.17L25.05 245.53L26.41 251.54L31.98 253.19ZM48.83 235.76L47.47 229.75L41.90 228.09L37.68 232.45L39.04 238.47L44.61 240.12ZM132.46 260.71L131.12 254.69L125.54 253.02L121.31 257.37L122.65 263.39L128.23 265.06ZM122.65 263.39L121.31 257.37L115.73 255.70L111.50 260.05L112.85 266.07L118.42 267.74ZM105.93 258.38L104.58 252.37L99.00 250.70L94.78 255.05L96.13 261.07L101.70 262.74ZM96.13 261.07L94.78 255.05L89.20 253.39L84.98 257.74L86.33 263.76L91.90 265.42ZM145.17 247.66L143.83 241.64L138.24 239.97L134.01 244.32L135.35 250.34L140.93 252.01ZM135.35 250.34L134.01 244.32L128.43 242.65L124.19 247.00L125.54 253.02L131.12 254.69ZM148.06 237.29L146.72 231.26L141.14 229.59L136.90 233.94L138.24 239.97L143.83 241.64ZM138.24 239.97L136.90 233.94L131.32 232.27L127.08 236.62L128.43 242.65L134.01 244.32ZM152.09 255.36L150.75 249.34L145.17 247.66L140.93 252.01L142.28 258.04L147.86 259.71ZM142.28 258.04L140.93 252.01L135.35 250.34L131.12 254.69L132.46 260.71L138.04 262.38ZM154.99 244.99L153.65 238.96L148.06 237.29L143.83 241.64L145.17 247.66L150.75 249.34ZM118.61 245.33L117.27 239.31L111.69 237.64L107.46 241.99L108.80 248.01L114.38 249.68ZM108.80 248.01L107.46 241.99L101.88 240.33L97.65 244.68L99.00 250.70L104.58 252.37ZM121.50 234.95L120.15 228.93L114.57 227.26L110.34 231.62L111.69 237.64L117.27 239.31ZM111.69 237.64L110.34 231.62L104.76 229.95L100.53 234.31L101.88 240.33L107.46 241.99ZM125.54 253.02L124.19 247.00L118.61 245.33L114.38 249.68L115.73 255.70L121.31 257.37ZM115.73 255.70L114.38 249.68L108.80 248.01L104.58 252.37L105.93 258.38L111.50 260.05ZM128.43 242.65L127.08 236.62L121.50 234.95L117.27 239.31L118.61 245.33L124.19 247.00ZM159.02 263.06L157.68 257.04L152.09 255.36L147.86 259.71L149.20 265.73L154.78 267.41ZM79.40 256.08L78.05 250.07L72.48 248.41L68.26 252.76L69.61 258.77L75.18 260.43ZM69.61 258.77L68.26 252.76L62.69 251.10L58.47 255.46L59.82 261.47L65.40 263.13ZM52.90 253.80L51.54 247.79L45.97 246.13L41.76 250.49L43.12 256.50L48.68 258.16ZM43.12 256.50L41.76 250.49L36.19 248.84L31.98 253.19L33.34 259.20L38.90 260.86ZM59.82 261.47L58.47 255.46L52.90 253.80L48.68 258.16L50.04 264.17L55.61 265.82Z"/></svg>
