<svg xmlns="http://www.w3.org/2000/svg" width="256" height="256" viewBox="0 0 256 256"><path data-band="1" fill="#fde68a" fill-opacity="0.35" d="M251.55 1.24L250.22 -4.80L244.63 -6.49L240.37 -2.15L241.70 3.88L247.29 5.58ZM241.70 3.88L240.37 -2.15L234.78 -3.84L230.52 0.50L231.85 6.53L237.44 8.22ZM258.47 8.97L257.14 2.93L251.55 1.24L247.29 5.58L248.62 11.61L254.21 13.31ZM248.62 11.61L247.29 5.58L241.70 3.88L237.44 8.22L238.77 14.26L244.36 15.95ZM261.41 -1.41L260.08 -7.45L254.49 -9.14L250.22 -4.80L251.55 1.24L257.14 2.93ZM198.33 -3.60L196.99 -9.63L191.41 -11.31L187.16 -6.96L188.49 -0.94L194.08 0.75ZM188.49 -0.94L187.16 -6.96L181.57 -8.65L177.33 -4.30L178.66 1.73L184.25 3.41ZM205.25 4.12L203.92 -1.91L198.33 -3.60L194.08 0.75L195.42 6.78L201.00 8.46ZM195.42 6.78L194.08 0.75L188.49 -0.94L184.25 3.41L185.59 9.44L191.17 11.12ZM161.92 -3.31L160.57 -9.33L154.99 -11.01L150.75 -6.66L152.09 -0.64L157.68 1.04ZM178.66 1.73L177.33 -4.30L171.74 -5.98L167.50 -1.63L168.84 4.39L174.42 6.07ZM168.84 4.39L167.50 -1.63L161.92 -3.31L157.68 1.04L159.02 7.06L164.60 8.74ZM209.25 22.20L207.92 16.18L202.34 14.49L198.09 18.83L199.42 24.86L205.00 26.54ZM199.42 24.86L198.09 18.83L192.51 17.15L188.26 21.49L189.60 27.51L195.18 29.20ZM212.17 11.83L210.84 5.81L205.25 4.12L201.00 8.46L202.34 14.49L207.92 16.18ZM202.34 14.49L201.00 8.46L195.42 6.78L191.17 11.12L192.51 17.15L198.09 18.83ZM216.17 29.92L214.84 23.89L209.25 22.20L205.00 26.54L206.34 32.57L211.92 34.26ZM206.34 32.57L205.00 26.54L199.42 24.86L195.18 29.20L196.51 35.22L202.09 36.91ZM219.09 19.55L217.76 13.52L212.17 11.83L207.92 16.18L209.25 22.20L214.84 23.89ZM182.68 19.81L181.34 13.78L175.76 12.10L171.52 16.44L172.86 22.47L178.44 24.15ZM172.86 22.47L171.52 16.44L165.94 14.76L161.70 19.11L163.04 25.13L168.62 26.81ZM185.59 9.44L184.25 3.41L178.66 1.73L174.42 6.07L175.76 12.10L181.34 13.78ZM175.76 12.10L174.42 6.07L168.84 4.39L164.60 8.74L165.94 14.76L171.52 16.44ZM189.60 27.51L188.26 21.49L182.68 19.81L178.44 24.15L179.77 30.17L185.35 31.85ZM179.77 30.17L178.44 24.15L172.86 22.47L168.62 26.81L169.96 32.83L175.53 34.51ZM192.51 17.15L191.17 11.12L185.59 9.44L181.34 13.78L182.68 19.81L188.26 21.49ZM224.93 -1.19L223.60 -7.23L218.01 -8.91L213.76 -4.57L215.09 1.46L220.68 3.15ZM215.09 1.46L213.76 -4.57L208.17 -6.26L203.92 -1.91L205.25 4.12L210.84 5.81ZM231.85 6.53L230.52 0.50L224.93 -1.19L220.68 3.15L222.01 9.18L227.60 10.87ZM222.01 9.18L220.68 3.15L215.09 1.46L210.84 5.81L212.17 11.83L217.76 13.52ZM234.78 -3.84L233.45 -9.88L227.86 -11.57L223.60 -7.23L224.93 -1.19L230.52 0.50ZM89.20 -2.61L87.85 -8.63L82.27 -10.29L78.05 -5.93L79.40 0.08L84.98 1.74ZM23.56 5.91L22.20 -0.10L16.63 -1.75L12.43 2.61L13.79 8.61L19.36 10.26ZM13.79 8.61L12.43 2.61L6.86 0.96L2.66 5.32L4.02 11.32L9.59 12.97ZM16.63 -1.75L15.27 -7.76L9.71 -9.40L5.50 -5.05L6.86 0.96L12.43 2.61ZM30.49 13.57L29.13 7.56L23.56 5.91L19.36 10.26L20.72 16.27L26.28 17.92ZM20.72 16.27L19.36 10.26L13.79 8.61L9.59 12.97L10.95 18.97L16.51 20.62ZM33.34 3.20L31.98 -2.81L26.41 -4.46L22.20 -0.10L23.56 5.91L29.13 7.56ZM4.02 11.32L2.66 5.32L-2.90 3.67L-7.10 8.03L-5.74 14.03L-0.18 15.68ZM6.86 0.96L5.50 -5.05L-0.06 -6.69L-4.27 -2.33L-2.90 3.67L2.66 5.32ZM246.74 50.44L245.42 44.41L239.83 42.71L235.58 47.05L236.91 53.08L242.49 54.77ZM236.91 53.08L235.58 47.05L230.00 45.36L225.75 49.69L227.08 55.72L232.66 57.41ZM249.67 40.08L248.34 34.05L242.76 32.35L238.50 36.69L239.83 42.71L245.42 44.41ZM239.83 42.71L238.50 36.69L232.92 34.99L228.67 39.33L230.00 45.36L235.58 47.05ZM256.58 47.80L255.26 41.77L249.67 40.08L245.42 44.41L246.74 50.44L252.33 52.13ZM220.17 48.00L218.83 41.97L213.25 40.28L209.01 44.62L210.34 50.64L215.92 52.33ZM210.34 50.64L209.01 44.62L203.43 42.93L199.18 47.27L200.52 53.29L206.09 54.98ZM223.08 37.64L221.75 31.61L216.17 29.92L211.92 34.26L213.25 40.28L218.83 41.97ZM213.25 40.28L211.92 34.26L206.34 32.57L202.09 36.91L203.43 42.93L209.01 44.62ZM230.00 45.36L228.67 39.33L223.08 37.64L218.83 41.97L220.17 48.00L225.75 49.69ZM262.45 27.07L261.12 21.04L255.54 19.34L251.27 23.68L252.60 29.71L258.19 31.41ZM252.60 29.71L251.27 23.68L245.69 21.98L241.43 26.32L242.76 32.35L248.34 34.05ZM265.39 16.70L264.06 10.67L258.47 8.97L254.21 13.31L255.54 19.34L261.12 21.04ZM255.54 19.34L254.21 13.31L248.62 11.61L244.36 15.95L245.69 21.98L251.27 23.68ZM259.52 37.44L258.19 31.41L252.60 29.71L248.34 34.05L249.67 40.08L255.26 41.77ZM235.84 24.63L234.51 18.60L228.93 16.90L224.67 21.24L226.00 27.27L231.59 28.96ZM226.00 27.27L224.67 21.24L219.09 19.55L214.84 23.89L216.17 29.92L221.75 31.61ZM238.77 14.26L237.44 8.22L231.85 6.53L227.60 10.87L228.93 16.90L234.51 18.60ZM228.93 16.90L227.60 10.87L222.01 9.18L217.76 13.52L219.09 19.55L224.67 21.24ZM242.76 32.35L241.43 26.32L235.84 24.63L231.59 28.96L232.92 34.99L238.50 36.69ZM232.92 34.99L231.59 28.96L226.00 27.27L221.75 31.61L223.08 37.64L228.67 39.33ZM245.69 21.98L244.36 15.95L238.77 14.26L234.51 18.60L235.84 24.63L241.43 26.32ZM266.43 45.17L265.10 39.14L259.52 37.44L255.26 41.77L256.58 47.80L262.17 49.50ZM127.84 53.85L126.50 47.83L120.93 46.16L116.70 50.50L118.05 56.51L123.62 58.19ZM101.35 51.51L100.00 45.50L94.43 43.83L90.21 48.18L91.56 54.18L97.13 55.85ZM91.56 54.18L90.21 48.18L84.65 46.51L80.43 50.86L81.78 56.86L87.34 58.53ZM129.58 15.08L128.23 9.06L122.65 7.39L118.42 11.74L119.77 17.76L125.35 19.43ZM119.77 17.76L118.42 11.74L112.85 10.07L108.62 14.42L109.97 20.43L115.54 22.10ZM132.46 4.71L131.12 -1.31L125.54 -2.98L121.31 1.37L122.65 7.39L128.23 9.06ZM122.65 7.39L121.31 1.37L115.73 -0.30L111.50 4.05L112.85 10.07L118.42 11.74ZM136.50 22.77L135.15 16.75L129.58 15.08L125.35 19.43L126.69 25.44L132.27 27.12ZM126.69 25.44L125.35 19.43L119.77 17.76L115.54 22.10L116.89 28.12L122.46 29.79ZM139.39 12.41L138.04 6.38L132.46 4.71L128.23 9.06L129.58 15.08L135.15 16.75ZM103.05 12.75L101.70 6.74L96.13 5.07L91.90 9.42L93.25 15.44L98.82 17.10ZM93.25 15.44L91.90 9.42L86.33 7.76L82.11 12.11L83.46 18.12L89.03 19.78ZM105.93 2.38L104.58 -3.63L99.00 -5.30L94.78 -0.95L96.13 5.07L101.70 6.74ZM96.13 5.07L94.78 -0.95L89.20 -2.61L84.98 1.74L86.33 7.76L91.90 9.42ZM109.97 20.43L108.62 14.42L103.05 12.75L98.82 17.10L100.17 23.11L105.75 24.78ZM100.17 23.11L98.82 17.10L93.25 15.44L89.03 19.78L90.38 25.80L95.95 27.46ZM112.85 10.07L111.50 4.05L105.93 2.38L101.70 6.74L103.05 12.75L108.62 14.42ZM152.09 -0.64L150.75 -6.66L145.17 -8.34L140.93 -3.99L142.28 2.04L147.86 3.71ZM142.28 2.04L140.93 -3.99L135.35 -5.66L131.12 -1.31L132.46 4.71L138.04 6.38ZM125.54 -2.98L124.19 -9.00L118.61 -10.67L114.38 -6.32L115.73 -0.30L121.31 1.37ZM115.73 -0.30L114.38 -6.32L108.80 -7.99L104.58 -3.63L105.93 2.38L111.50 4.05ZM140.53 40.82L139.18 34.81L133.61 33.13L129.38 37.48L130.72 43.49L136.30 45.16ZM130.72 43.49L129.38 37.48L123.81 35.80L119.58 40.15L120.93 46.16L126.50 47.83ZM143.42 30.46L142.07 24.44L136.50 22.77L132.27 27.12L133.61 33.13L139.18 34.81ZM133.61 33.13L132.27 27.12L126.69 25.44L122.46 29.79L123.81 35.80L129.38 37.48ZM147.44 48.51L146.10 42.50L140.53 40.82L136.30 45.16L137.64 51.18L143.21 52.85ZM137.64 51.18L136.30 45.16L130.72 43.49L126.50 47.83L127.84 53.85L133.41 55.52ZM150.33 38.16L148.99 32.14L143.42 30.46L139.18 34.81L140.53 40.82L146.10 42.50ZM114.01 38.48L112.66 32.46L107.09 30.80L102.87 35.14L104.22 41.15L109.79 42.82ZM104.22 41.15L102.87 35.14L97.30 33.47L93.08 37.82L94.43 43.83L100.00 45.50ZM116.89 28.12L115.54 22.10L109.97 20.43L105.75 24.78L107.09 30.80L112.66 32.46ZM107.09 30.80L105.75 24.78L100.17 23.11L95.95 27.46L97.30 33.47L102.87 35.14ZM120.93 46.16L119.58 40.15L114.01 38.48L109.79 42.82L111.13 48.83L116.70 50.50ZM111.13 48.83L109.79 42.82L104.22 41.15L100.00 45.50L101.35 51.51L106.91 53.18ZM123.81 35.80L122.46 29.79L116.89 28.12L112.66 32.46L114.01 38.48L119.58 40.15ZM156.12 17.43L154.78 11.41L149.20 9.73L144.96 14.08L146.31 20.10L151.88 21.78ZM146.31 20.10L144.96 14.08L139.39 12.41L135.15 16.75L136.50 22.77L142.07 24.44ZM159.02 7.06L157.68 1.04L152.09 -0.64L147.86 3.71L149.20 9.73L154.78 11.41ZM149.20 9.73L147.86 3.71L142.28 2.04L138.04 6.38L139.39 12.41L144.96 14.08ZM163.04 25.13L161.70 19.11L156.12 17.43L151.88 21.78L153.22 27.80L158.80 29.47ZM153.22 27.80L151.88 21.78L146.31 20.10L142.07 24.44L143.42 30.46L148.99 32.14ZM165.94 14.76L164.60 8.74L159.02 7.06L154.78 11.41L156.12 17.43L161.70 19.11ZM61.03 33.86L59.67 27.85L54.11 26.19L49.90 30.54L51.25 36.55L56.82 38.21ZM51.25 36.55L49.90 30.54L44.33 28.89L40.13 33.24L41.48 39.24L47.04 40.90ZM63.89 23.50L62.53 17.49L56.97 15.83L52.75 20.18L54.11 26.19L59.67 27.85ZM54.11 26.19L52.75 20.18L47.19 18.53L42.98 22.88L44.33 28.89L49.90 30.54ZM67.95 41.52L66.59 35.52L61.03 33.86L56.82 38.21L58.17 44.21L63.74 45.87ZM58.17 44.21L56.82 38.21L51.25 36.55L47.04 40.90L48.40 46.90L53.96 48.56ZM70.81 31.17L69.46 25.16L63.89 23.50L59.67 27.85L61.03 33.86L66.59 35.52ZM34.56 31.58L33.20 25.58L27.64 23.92L23.44 28.28L24.79 34.28L30.36 35.93ZM24.79 34.28L23.44 28.28L17.87 26.63L13.67 30.98L15.03 36.98L20.59 38.63ZM37.41 21.22L36.05 15.22L30.49 13.57L26.28 17.92L27.64 23.92L33.20 25.58ZM27.64 23.92L26.28 17.92L20.72 16.27L16.51 20.62L17.87 26.63L23.44 28.28ZM41.48 39.24L40.13 33.24L34.56 31.58L30.36 35.93L31.71 41.94L37.28 43.59ZM31.71 41.94L30.36 35.93L24.79 34.28L20.59 38.63L21.95 44.63L27.51 46.28ZM44.33 28.89L42.98 22.88L37.41 21.22L33.20 25.58L34.56 31.58L40.13 33.24ZM76.54 10.45L75.18 4.43L69.61 2.77L65.40 7.13L66.75 13.14L72.32 14.80ZM66.75 13.14L65.40 7.13L59.82 5.47L55.61 9.82L56.97 15.83L62.53 17.49ZM79.40 0.08L78.05 -5.93L72.48 -7.59L68.26 -3.24L69.61 2.77L75.18 4.43ZM69.61 2.77L68.26 -3.24L62.69 -4.90L58.47 -0.54L59.82 5.47L65.40 7.13ZM83.46 18.12L82.11 12.11L76.54 10.45L72.32 14.80L73.67 20.81L79.24 22.47ZM73.67 20.81L72.32 14.80L66.75 13.14L62.53 17.49L63.89 23.50L69.46 25.16ZM86.33 7.76L84.98 1.74L79.40 0.08L75.18 4.43L76.54 10.45L82.11 12.11ZM50.04 8.17L48.68 2.16L43.12 0.50L38.90 4.86L40.26 10.86L45.83 12.52ZM40.26 10.86L38.90 4.86L33.34 3.20L29.13 7.56L30.49 13.57L36.05 15.22ZM52.90 -2.20L51.54 -8.21L45.97 -9.87L41.76 -5.51L43.12 0.50L48.68 2.16ZM43.12 0.50L41.76 -5.51L36.19 -7.16L31.98 -2.81L33.34 3.20L38.90 4.86ZM56.97 15.83L55.61 9.82L50.04 8.17L45.83 12.52L47.19 18.53L52.75 20.18ZM47.19 18.53L45.83 12.52L40.26 10.86L36.05 15.22L37.41 21.22L42.98 22.88ZM59.82 5.47L58.47 -0.54L52.90 -2.20L48.68 2.16L50.04 8.17L55.61 9.82ZM74.86 49.19L73.51 43.19L67.95 41.52L63.74 45.87L65.09 51.88L70.65 53.54ZM65.09 51.88L63.74 45.87L58.17 44.21L53.96 48.56L55.32 54.56L60.88 56.22ZM48.40 46.90L47.04 40.90L41.48 39.24L37.28 43.59L38.63 49.59L44.19 51.25ZM38.63 49.59L37.28 43.59L31.71 41.94L27.51 46.28L28.87 52.29L34.43 53.94ZM55.32 54.56L53.96 48.56L48.40 46.90L44.19 51.25L45.55 57.25L51.11 58.91ZM87.51 36.16L86.16 30.14L80.59 28.48L76.38 32.83L77.73 38.84L83.29 40.50ZM77.73 38.84L76.38 32.83L70.81 31.17L66.59 35.52L67.95 41.52L73.51 43.19ZM90.38 25.80L89.03 19.78L83.46 18.12L79.24 22.47L80.59 28.48L86.16 30.14ZM80.59 28.48L79.24 22.47L73.67 20.81L69.46 25.16L70.81 31.17L76.38 32.83ZM94.43 43.83L93.08 37.82L87.51 36.16L83.29 40.50L84.65 46.51L90.21 48.18ZM84.65 46.51L83.29 40.50L77.73 38.84L73.51 43.19L74.86 49.19L80.43 50.86ZM97.30 33.47L95.95 27.46L90.38 25.80L86.16 30.14L87.51 36.16L93.08 37.82ZM193.60 45.58L192.27 39.56L186.69 37.88L182.45 42.22L183.78 48.24L189.36 49.92ZM183.78 48.24L182.45 42.22L176.87 40.53L172.63 44.87L173.97 50.89L179.55 52.57ZM196.51 35.22L195.18 29.20L189.60 27.51L185.35 31.85L186.69 37.88L192.27 39.56ZM186.69 37.88L185.35 31.85L179.77 30.17L175.53 34.51L176.87 40.53L182.45 42.22ZM200.52 53.29L199.18 47.27L193.60 45.58L189.36 49.92L190.70 55.94L196.27 57.63ZM203.43 42.93L202.09 36.91L196.51 35.22L192.27 39.56L193.60 45.58L199.18 47.27ZM167.06 43.19L165.72 37.17L160.14 35.49L155.91 39.83L157.25 45.85L162.82 47.53ZM157.25 45.85L155.91 39.83L150.33 38.16L146.10 42.50L147.44 48.51L153.01 50.19ZM169.96 32.83L168.62 26.81L163.04 25.13L158.80 29.47L160.14 35.49L165.72 37.17ZM160.14 35.49L158.80 29.47L153.22 27.80L148.99 32.14L150.33 38.16L155.91 39.83ZM173.97 50.89L172.63 44.87L167.06 43.19L162.82 47.53L164.16 53.55L169.73 55.23ZM164.16 53.55L162.82 47.53L157.25 45.85L153.01 50.19L154.35 56.21L159.93 57.89ZM176.87 40.53L175.53 34.51L169.96 32.83L165.72 37.17L167.06 43.19L172.63 44.87ZM2.44 50.03L1.08 44.03L-4.48 42.39L-8.68 46.74L-7.31 52.74L-1.76 54.38ZM8.11 29.33L6.75 23.33L1.19 21.68L-3.01 26.04L-1.65 32.04L3.91 33.68ZM10.95 18.97L9.59 12.97L4.02 11.32L-0.18 15.68L1.19 21.68L6.75 23.33ZM1.19 21.68L-0.18 15.68L-5.74 14.03L-9.93 18.39L-8.57 24.39L-3.01 26.04ZM15.03 36.98L13.67 30.98L8.11 29.33L3.91 33.68L5.27 39.68L10.83 41.33ZM5.27 39.68L3.91 33.68L-1.65 32.04L-5.84 36.39L-4.48 42.39L1.08 44.03ZM17.87 26.63L16.51 20.62L10.95 18.97L6.75 23.33L8.11 29.33L13.67 30.98ZM19.11 54.98L17.75 48.98L12.19 47.33L7.99 51.68L9.36 57.68L14.91 59.33ZM21.95 44.63L20.59 38.63L15.03 36.98L10.83 41.33L12.19 47.33L17.75 48.98ZM12.19 47.33L10.83 41.33L5.27 39.68L1.08 44.03L2.44 50.03L7.99 51.68ZM28.87 52.29L27.51 46.28L21.95 44.63L17.75 48.98L19.11 54.98L24.67 56.63Z"/><path data-band="2" fill="#f97316" fill-opacity="0.35" d="M221.55 171.89L220.22 165.89L214.66 164.19L210.43 168.51L211.75 174.51L217.31 176.21ZM211.75 174.51L210.43 168.51L204.87 166.82L200.64 171.13L201.97 177.13L207.52 178.83ZM224.45 161.57L223.13 155.56L217.56 153.87L213.33 158.18L214.66 164.19L220.22 165.89ZM214.66 164.19L213.33 158.18L207.77 156.49L203.54 160.81L204.87 166.82L210.43 168.51ZM228.43 179.60L227.11 173.59L221.55 171.89L217.31 176.21L218.64 182.21L224.20 183.91ZM218.64 182.21L217.31 176.21L211.75 174.51L207.52 178.83L208.85 184.83L214.41 186.52ZM231.34 169.28L230.02 163.27L224.45 161.57L220.22 165.89L221.55 171.89L227.11 173.59ZM195.08 169.44L193.75 163.44L188.19 161.75L183.96 166.06L185.29 172.07L190.85 173.75ZM185.29 172.07L183.96 166.06L178.41 164.38L174.18 168.69L175.51 174.70L181.07 176.38ZM197.98 159.12L196.65 153.11L191.09 151.42L186.86 155.74L188.19 161.75L193.75 163.44ZM188.19 161.75L186.86 155.74L181.30 154.06L177.07 158.37L178.41 164.38L183.96 166.06ZM201.97 177.13L200.64 171.13L195.08 169.44L190.85 173.75L192.18 179.76L197.74 181.45ZM192.18 179.76L190.85 173.75L185.29 172.07L181.07 176.38L182.40 182.38L187.96 184.07ZM204.87 166.82L203.54 160.81L197.98 159.12L193.75 163.44L195.08 169.44L200.64 171.13ZM143.32 192.91L141.99 186.91L136.44 185.23L132.23 189.55L133.56 195.54L139.11 197.22ZM155.97 179.96L154.63 173.96L149.08 172.28L144.86 176.60L146.20 182.59L151.75 184.28ZM146.20 182.59L144.86 176.60L139.31 174.92L135.10 179.24L136.44 185.23L141.99 186.91ZM126.68 187.87L125.34 181.88L119.79 180.20L115.58 184.52L116.92 190.51L122.47 192.19ZM116.92 190.51L115.58 184.52L110.04 182.85L105.83 187.16L107.17 193.16L112.72 194.83ZM129.55 177.56L128.21 171.56L122.66 169.89L118.45 174.21L119.79 180.20L125.34 181.88ZM119.79 180.20L118.45 174.21L112.90 172.53L108.70 176.85L110.04 182.85L115.58 184.52ZM133.56 195.54L132.23 189.55L126.68 187.87L122.47 192.19L123.81 198.18L129.36 199.86ZM136.44 185.23L135.10 179.24L129.55 177.56L125.34 181.88L126.68 187.87L132.23 189.55ZM21.21 178.50L19.85 172.52L14.31 170.86L10.13 175.19L11.48 181.17L17.02 182.82ZM11.48 181.17L10.13 175.19L4.59 173.54L0.41 177.86L1.77 183.84L7.30 185.49ZM24.04 168.19L22.68 162.21L17.14 160.55L12.96 164.88L14.31 170.86L19.85 172.52ZM14.31 170.86L12.96 164.88L7.42 163.23L3.24 167.56L4.59 173.54L10.13 175.19ZM28.10 186.14L26.74 180.15L21.21 178.50L17.02 182.82L18.38 188.80L23.91 190.46ZM18.38 188.80L17.02 182.82L11.48 181.17L7.30 185.49L8.66 191.47L14.19 193.13ZM30.93 175.83L29.58 169.85L24.04 168.19L19.85 172.52L21.21 178.50L26.74 180.15ZM1.77 183.84L0.41 177.86L-5.12 176.21L-9.30 180.54L-7.94 186.52L-2.41 188.17ZM4.59 173.54L3.24 167.56L-2.30 165.90L-6.48 170.23L-5.12 176.21L0.41 177.86ZM36.60 155.21L35.25 149.22L29.71 147.56L25.52 151.89L26.87 157.88L32.41 159.53ZM26.87 157.88L25.52 151.89L19.97 150.24L15.79 154.57L17.14 160.55L22.68 162.21ZM39.44 144.89L38.09 138.90L32.54 137.24L28.35 141.57L29.71 147.56L35.25 149.22ZM29.71 147.56L28.35 141.57L22.81 139.92L18.62 144.25L19.97 150.24L25.52 151.89ZM43.50 162.85L42.15 156.86L36.60 155.21L32.41 159.53L33.77 165.52L39.31 167.18ZM33.77 165.52L32.41 159.53L26.87 157.88L22.68 162.21L24.04 168.19L29.58 169.85ZM46.34 152.54L44.99 146.55L39.44 144.89L35.25 149.22L36.60 155.21L42.15 156.86ZM10.25 152.91L8.89 146.93L3.35 145.28L-0.83 149.61L0.52 155.59L6.06 157.24ZM0.52 155.59L-0.83 149.61L-6.38 147.96L-10.56 152.29L-9.20 158.27L-3.66 159.92ZM13.08 142.60L11.72 136.61L6.18 134.96L1.99 139.29L3.35 145.28L8.89 146.93ZM3.35 145.28L1.99 139.29L-3.55 137.64L-7.73 141.98L-6.38 147.96L-0.83 149.61ZM17.14 160.55L15.79 154.57L10.25 152.91L6.06 157.24L7.42 163.23L12.96 164.88ZM7.42 163.23L6.06 157.24L0.52 155.59L-3.66 159.92L-2.30 165.90L3.24 167.56ZM19.97 150.24L18.62 144.25L13.08 142.60L8.89 146.93L10.25 152.91L15.79 154.57ZM34.99 193.77L33.63 187.79L28.10 186.14L23.91 190.46L25.26 196.44L30.80 198.10ZM25.26 196.44L23.91 190.46L18.38 188.80L14.19 193.13L15.55 199.10L21.08 200.76ZM8.66 191.47L7.30 185.49L1.77 183.84L-2.41 188.17L-1.05 194.14L4.48 195.80ZM47.55 180.81L46.20 174.82L40.66 173.16L36.47 177.49L37.82 183.47L43.36 185.13ZM37.82 183.47L36.47 177.49L30.93 175.83L26.74 180.15L28.10 186.14L33.63 187.79ZM50.39 170.50L49.04 164.51L43.50 162.85L39.31 167.18L40.66 173.16L46.20 174.82ZM40.66 173.16L39.31 167.18L33.77 165.52L29.58 169.85L30.93 175.83L36.47 177.49ZM54.44 188.45L53.09 182.47L47.55 180.81L43.36 185.13L44.71 191.11L50.25 192.77ZM44.71 191.11L43.36 185.13L37.82 183.47L33.63 187.79L34.99 193.77L40.52 195.43ZM57.28 178.14L55.93 172.16L50.39 170.50L46.20 174.82L47.55 180.81L53.09 182.47ZM61.33 196.10L59.98 190.12L54.44 188.45L50.25 192.77L51.60 198.76L57.14 200.42ZM258.67 104.66L257.35 98.64L251.77 96.94L247.52 101.27L248.85 107.29L254.42 108.98ZM261.60 94.32L260.28 88.29L254.70 86.59L250.45 90.92L251.77 96.94L257.35 98.64ZM265.57 112.38L264.25 106.36L258.67 104.66L254.42 108.98L255.75 115.00L261.32 116.70ZM226.30 122.88L224.97 116.86L219.40 115.17L215.16 119.49L216.49 125.50L222.06 127.20ZM216.49 125.50L215.16 119.49L209.59 117.80L205.36 122.12L206.69 128.13L212.25 129.83ZM229.21 112.54L227.88 106.52L222.31 104.83L218.07 109.15L219.40 115.17L224.97 116.86ZM219.40 115.17L218.07 109.15L212.50 107.46L208.26 111.79L209.59 117.80L215.16 119.49ZM233.19 130.59L231.87 124.57L226.30 122.88L222.06 127.20L223.38 133.21L228.95 134.90ZM223.38 133.21L222.06 127.20L216.49 125.50L212.25 129.83L213.58 135.84L219.15 137.53ZM236.11 120.25L234.78 114.23L229.21 112.54L224.97 116.86L226.30 122.88L231.87 124.57ZM199.79 120.43L198.46 114.42L192.89 112.73L188.66 117.06L189.99 123.07L195.55 124.76ZM189.99 123.07L188.66 117.06L183.09 115.37L178.86 119.70L180.19 125.71L185.76 127.39ZM202.69 110.10L201.36 104.08L195.79 102.39L191.56 106.72L192.89 112.73L198.46 114.42ZM192.89 112.73L191.56 106.72L185.99 105.03L181.76 109.36L183.09 115.37L188.66 117.06ZM206.69 128.13L205.36 122.12L199.79 120.43L195.55 124.76L196.89 130.77L202.45 132.46ZM196.89 130.77L195.55 124.76L189.99 123.07L185.76 127.39L187.09 133.40L192.65 135.09ZM209.59 117.80L208.26 111.79L202.69 110.10L198.46 114.42L199.79 120.43L205.36 122.12ZM241.95 99.57L240.62 93.55L235.05 91.85L230.80 96.18L232.13 102.20L237.70 103.89ZM232.13 102.20L230.80 96.18L225.23 94.48L220.98 98.81L222.31 104.83L227.88 106.52ZM244.87 89.22L243.55 83.20L237.97 81.50L233.72 85.83L235.05 91.85L240.62 93.55ZM235.05 91.85L233.72 85.83L228.14 84.14L223.90 88.47L225.23 94.48L230.80 96.18ZM248.85 107.29L247.52 101.27L241.95 99.57L237.70 103.89L239.03 109.91L244.60 111.61ZM239.03 109.91L237.70 103.89L232.13 102.20L227.88 106.52L229.21 112.54L234.78 114.23ZM251.77 96.94L250.45 90.92L244.87 89.22L240.62 93.55L241.95 99.57L247.52 101.27ZM215.41 97.12L214.08 91.10L208.51 89.41L204.27 93.74L205.60 99.76L211.17 101.44ZM205.60 99.76L204.27 93.74L198.70 92.05L194.46 96.38L195.79 102.39L201.36 104.08ZM218.33 86.77L217.00 80.75L211.42 79.06L207.18 83.39L208.51 89.41L214.08 91.10ZM208.51 89.41L207.18 83.39L201.61 81.70L197.37 86.03L198.70 92.05L204.27 93.74ZM222.31 104.83L220.98 98.81L215.41 97.12L211.17 101.44L212.50 107.46L218.07 109.15ZM212.50 107.46L211.17 101.44L205.60 99.76L201.36 104.08L202.69 110.10L208.26 111.79ZM225.23 94.48L223.90 88.47L218.33 86.77L214.08 91.10L215.41 97.12L220.98 98.81ZM237.17 148.63L235.84 142.61L230.28 140.92L226.04 145.24L227.36 151.25L232.93 152.94ZM227.36 151.25L226.04 145.24L220.47 143.54L216.24 147.86L217.56 153.87L223.13 155.56ZM240.09 138.30L238.76 132.28L233.19 130.59L228.95 134.90L230.28 140.92L235.84 142.61ZM230.28 140.92L228.95 134.90L223.38 133.21L219.15 137.53L220.47 143.54L226.04 145.24ZM244.06 156.34L242.73 150.32L237.17 148.63L232.93 152.94L234.25 158.95L239.82 160.65ZM234.25 158.95L232.93 152.94L227.36 151.25L223.13 155.56L224.45 161.57L230.02 163.27ZM246.98 146.01L245.65 139.99L240.09 138.30L235.84 142.61L237.17 148.63L242.73 150.32ZM210.67 146.17L209.34 140.16L203.78 138.47L199.55 142.79L200.88 148.79L206.44 150.48ZM200.88 148.79L199.55 142.79L193.99 141.10L189.76 145.42L191.09 151.42L196.65 153.11ZM213.58 135.84L212.25 129.83L206.69 128.13L202.45 132.46L203.78 138.47L209.34 140.16ZM203.78 138.47L202.45 132.46L196.89 130.77L192.65 135.09L193.99 141.10L199.55 142.79ZM217.56 153.87L216.24 147.86L210.67 146.17L206.44 150.48L207.77 156.49L213.33 158.18ZM207.77 156.49L206.44 150.48L200.88 148.79L196.65 153.11L197.98 159.12L203.54 160.81ZM220.47 143.54L219.15 137.53L213.58 135.84L209.34 140.16L210.67 146.17L216.24 147.86ZM252.82 125.34L251.50 119.32L245.93 117.63L241.68 121.95L243.00 127.96L248.57 129.66ZM243.00 127.96L241.68 121.95L236.11 120.25L231.87 124.57L233.19 130.59L238.76 132.28ZM255.75 115.00L254.42 108.98L248.85 107.29L244.60 111.61L245.93 117.63L251.50 119.32ZM245.93 117.63L244.60 111.61L239.03 109.91L234.78 114.23L236.11 120.25L241.68 121.95ZM259.71 133.06L258.39 127.04L252.82 125.34L248.57 129.66L249.90 135.68L255.47 137.38ZM249.90 135.68L248.57 129.66L243.00 127.96L238.76 132.28L240.09 138.30L245.65 139.99ZM262.64 122.72L261.32 116.70L255.75 115.00L251.50 119.32L252.82 125.34L258.39 127.04ZM253.65 58.16L252.33 52.13L246.74 50.44L242.49 54.77L243.82 60.80L249.40 62.49ZM243.82 60.80L242.49 54.77L236.91 53.08L232.66 57.41L233.98 63.43L239.56 65.13ZM227.08 55.72L225.75 49.69L220.17 48.00L215.92 52.33L217.25 58.36L222.83 60.05ZM217.25 58.36L215.92 52.33L210.34 50.64L206.09 54.98L207.43 61.00L213.00 62.69ZM257.63 76.24L256.30 70.22L250.72 68.52L246.47 72.85L247.80 78.87L253.37 80.57ZM247.80 78.87L246.47 72.85L240.89 71.15L236.64 75.48L237.97 81.50L243.55 83.20ZM260.56 65.89L259.23 59.86L253.65 58.16L249.40 62.49L250.72 68.52L256.30 70.22ZM250.72 68.52L249.40 62.49L243.82 60.80L239.56 65.13L240.89 71.15L246.47 72.85ZM264.53 83.97L263.21 77.94L257.63 76.24L253.37 80.57L254.70 86.59L260.28 88.29ZM254.70 86.59L253.37 80.57L247.80 78.87L243.55 83.20L244.87 89.22L250.45 90.92ZM231.06 73.79L229.73 67.76L224.16 66.07L219.91 70.40L221.24 76.42L226.82 78.12ZM221.24 76.42L219.91 70.40L214.33 68.71L210.09 73.04L211.42 79.06L217.00 80.75ZM233.98 63.43L232.66 57.41L227.08 55.72L222.83 60.05L224.16 66.07L229.73 67.76ZM224.16 66.07L222.83 60.05L217.25 58.36L213.00 62.69L214.33 68.71L219.91 70.40ZM237.97 81.50L236.64 75.48L231.06 73.79L226.82 78.12L228.14 84.14L233.72 85.83ZM228.14 84.14L226.82 78.12L221.24 76.42L217.00 80.75L218.33 86.77L223.90 88.47ZM240.89 71.15L239.56 65.13L233.98 63.43L229.73 67.76L231.06 73.79L236.64 75.48ZM263.49 55.53L262.17 49.50L256.58 47.80L252.33 52.13L253.65 58.16L259.23 59.86ZM264.72 179.47L263.40 173.46L257.83 171.76L253.59 176.07L254.91 182.08L260.47 183.78ZM248.03 174.37L246.71 168.36L241.14 166.66L236.90 170.97L238.23 176.98L243.79 178.68ZM238.23 176.98L236.90 170.97L231.34 169.28L227.11 173.59L228.43 179.60L233.99 181.29ZM250.95 164.05L249.62 158.04L244.06 156.34L239.82 160.65L241.14 166.66L246.71 168.36ZM241.14 166.66L239.82 160.65L234.25 158.95L230.02 163.27L231.34 169.28L236.90 170.97ZM254.91 182.08L253.59 176.07L248.03 174.37L243.79 178.68L245.11 184.69L250.67 186.39ZM257.83 171.76L256.51 165.75L250.95 164.05L246.71 168.36L248.03 174.37L253.59 176.07ZM263.68 151.11L262.36 145.09L256.79 143.39L252.54 147.71L253.87 153.72L259.43 155.42ZM253.87 153.72L252.54 147.71L246.98 146.01L242.73 150.32L244.06 156.34L249.62 158.04ZM266.61 140.78L265.29 134.76L259.71 133.06L255.47 137.38L256.79 143.39L262.36 145.09ZM256.79 143.39L255.47 137.38L249.90 135.68L245.65 139.99L246.98 146.01L252.54 147.71ZM260.76 161.44L259.43 155.42L253.87 153.72L249.62 158.04L250.95 164.05L256.51 165.75ZM109.42 87.55L108.08 81.55L102.51 79.88L98.30 84.22L99.65 90.22L105.21 91.89ZM99.65 90.22L98.30 84.22L92.74 82.55L88.52 86.89L89.87 92.89L95.43 94.56ZM112.30 77.21L110.95 71.20L105.39 69.53L101.17 73.87L102.51 79.88L108.08 81.55ZM102.51 79.88L101.17 73.87L95.60 72.21L91.39 76.54L92.74 82.55L98.30 84.22ZM116.33 95.23L114.99 89.22L109.42 87.55L105.21 91.89L106.55 97.89L112.11 99.56ZM106.55 97.89L105.21 91.89L99.65 90.22L95.43 94.56L96.78 100.56L102.34 102.23ZM119.20 84.89L117.86 78.88L112.30 77.21L108.08 81.55L109.42 87.55L114.99 89.22ZM82.96 85.22L81.62 79.22L76.06 77.55L71.85 81.89L73.20 87.90L78.75 89.56ZM73.20 87.90L71.85 81.89L66.29 80.23L62.08 84.57L63.43 90.57L68.99 92.23ZM85.83 74.88L84.48 68.87L78.92 67.21L74.71 71.55L76.06 77.55L81.62 79.22ZM76.06 77.55L74.71 71.55L69.14 69.89L64.94 74.23L66.29 80.23L71.85 81.89ZM89.87 92.89L88.52 86.89L82.96 85.22L78.75 89.56L80.10 95.56L85.66 97.23ZM80.10 95.56L78.75 89.56L73.20 87.90L68.99 92.23L70.34 98.23L75.90 99.90ZM92.74 82.55L91.39 76.54L85.83 74.88L81.62 79.22L82.96 85.22L88.52 86.89ZM124.96 64.20L123.62 58.19L118.05 56.51L113.83 60.85L115.17 66.86L120.74 68.54ZM115.17 66.86L113.83 60.85L108.26 59.19L104.04 63.53L105.39 69.53L110.95 71.20ZM118.05 56.51L116.70 50.50L111.13 48.83L106.91 53.18L108.26 59.19L113.83 60.85ZM131.87 71.88L130.53 65.87L124.96 64.20L120.74 68.54L122.08 74.55L127.65 76.22ZM122.08 74.55L120.74 68.54L115.17 66.86L110.95 71.20L112.30 77.21L117.86 78.88ZM134.75 61.53L133.41 55.52L127.84 53.85L123.62 58.19L124.96 64.20L130.53 65.87ZM98.47 61.86L97.13 55.85L91.56 54.18L87.34 58.53L88.69 64.53L94.26 66.20ZM88.69 64.53L87.34 58.53L81.78 56.86L77.57 61.21L78.92 67.21L84.48 68.87ZM105.39 69.53L104.04 63.53L98.47 61.86L94.26 66.20L95.60 72.21L101.17 73.87ZM95.60 72.21L94.26 66.20L88.69 64.53L84.48 68.87L85.83 74.88L91.39 76.54ZM108.26 59.19L106.91 53.18L101.35 51.51L97.13 55.85L98.47 61.86L104.04 63.53ZM120.36 113.24L119.02 107.24L113.46 105.57L109.24 109.90L110.58 115.90L116.14 117.57ZM110.58 115.90L109.24 109.90L103.68 108.23L99.47 112.56L100.82 118.56L106.37 120.23ZM123.23 102.91L121.89 96.90L116.33 95.23L112.11 99.56L113.46 105.57L119.02 107.24ZM113.46 105.57L112.11 99.56L106.55 97.89L102.34 102.23L103.68 108.23L109.24 109.90ZM127.26 120.92L125.92 114.92L120.36 113.24L116.14 117.57L117.49 123.58L123.04 125.25ZM117.49 123.58L116.14 117.57L110.58 115.90L106.37 120.23L107.72 126.23L113.27 127.90ZM130.14 110.59L128.80 104.58L123.23 102.91L119.02 107.24L120.36 113.24L125.92 114.92ZM93.91 110.89L92.57 104.89L87.01 103.23L82.80 107.56L84.15 113.56L89.70 115.23ZM84.15 113.56L82.80 107.56L77.24 105.90L73.04 110.23L74.39 116.23L79.94 117.89ZM96.78 100.56L95.43 94.56L89.87 92.89L85.66 97.23L87.01 103.23L92.57 104.89ZM87.01 103.23L85.66 97.23L80.10 95.56L75.90 99.90L77.24 105.90L82.80 107.56ZM100.82 118.56L99.47 112.56L93.91 110.89L89.70 115.23L91.05 121.22L96.60 122.89ZM91.05 121.22L89.70 115.23L84.15 113.56L79.94 117.89L81.29 123.89L86.84 125.56ZM103.68 108.23L102.34 102.23L96.78 100.56L92.57 104.89L93.91 110.89L99.47 112.56ZM135.90 89.91L134.56 83.90L128.99 82.23L124.77 86.56L126.11 92.57L131.67 94.24ZM126.11 92.57L124.77 86.56L119.20 84.89L114.99 89.22L116.33 95.23L121.89 96.90ZM138.78 79.57L137.44 73.56L131.87 71.88L127.65 76.22L128.99 82.23L134.56 83.90ZM128.99 82.23L127.65 76.22L122.08 74.55L117.86 78.88L119.20 84.89L124.77 86.56ZM142.80 97.60L141.46 91.59L135.90 89.91L131.67 94.24L133.02 100.25L138.58 101.93ZM133.02 100.25L131.67 94.24L126.11 92.57L121.89 96.90L123.23 102.91L128.80 104.58ZM145.69 87.25L144.35 81.24L138.78 79.57L134.56 83.90L135.90 89.91L141.46 91.59ZM41.07 106.26L39.72 100.27L34.16 98.61L29.97 102.95L31.32 108.94L36.87 110.60ZM31.32 108.94L29.97 102.95L24.42 101.30L20.22 105.64L21.58 111.63L27.13 113.28ZM43.92 95.93L42.56 89.93L37.01 88.28L32.81 92.62L34.16 98.61L39.72 100.27ZM34.16 98.61L32.81 92.62L27.25 90.96L23.06 95.30L24.42 101.30L29.97 102.95ZM47.97 113.92L46.62 107.92L41.07 106.26L36.87 110.60L38.23 116.59L43.78 118.25ZM38.23 116.59L36.87 110.60L31.32 108.94L27.13 113.28L28.48 119.27L34.03 120.93ZM50.82 103.58L49.47 97.59L43.92 95.93L39.72 100.27L41.07 106.26L46.62 107.92ZM14.67 103.98L13.31 97.99L7.76 96.34L3.57 100.68L4.93 106.67L10.48 108.32ZM4.93 106.67L3.57 100.68L-1.98 99.03L-6.16 103.37L-4.80 109.36L0.74 111.01ZM17.51 93.65L16.15 87.66L10.60 86.01L6.41 90.35L7.76 96.34L13.31 97.99ZM7.76 96.34L6.41 90.35L0.85 88.70L-3.34 93.04L-1.98 99.03L3.57 100.68ZM21.58 111.63L20.22 105.64L14.67 103.98L10.48 108.32L11.84 114.31L17.39 115.96ZM11.84 114.31L10.48 108.32L4.93 106.67L0.74 111.01L2.10 117.00L7.65 118.65ZM24.42 101.30L23.06 95.30L17.51 93.65L13.31 97.99L14.67 103.98L20.22 105.64ZM56.52 82.91L55.17 76.91L49.61 75.25L45.41 79.60L46.76 85.59L52.32 87.25ZM46.76 85.59L45.41 79.60L39.85 77.94L35.65 82.28L37.01 88.28L42.56 89.93ZM59.38 72.57L58.02 66.57L52.46 64.91L48.26 69.25L49.61 75.25L55.17 76.91ZM49.61 75.25L48.26 69.25L42.70 67.60L38.50 71.94L39.85 77.94L45.41 79.60ZM63.43 90.57L62.08 84.57L56.52 82.91L52.32 87.25L53.67 93.25L59.23 94.91ZM53.67 93.25L52.32 87.25L46.76 85.59L42.56 89.93L43.92 95.93L49.47 97.59ZM66.29 80.23L64.94 74.23L59.38 72.57L55.17 76.91L56.52 82.91L62.08 84.57ZM30.10 80.63L28.74 74.63L23.18 72.98L18.99 77.32L20.34 83.31L25.90 84.97ZM20.34 83.31L18.99 77.32L13.43 75.67L9.24 80.01L10.60 86.01L16.15 87.66ZM32.94 70.28L31.58 64.29L26.03 62.63L21.83 66.98L23.18 72.98L28.74 74.63ZM23.18 72.98L21.83 66.98L16.27 65.33L12.07 69.67L13.43 75.67L18.99 77.32ZM37.01 88.28L35.65 82.28L30.10 80.63L25.90 84.97L27.25 90.96L32.81 92.62ZM27.25 90.96L25.90 84.97L20.34 83.31L16.15 87.66L17.51 93.65L23.06 95.30ZM39.85 77.94L38.50 71.94L32.94 70.28L28.74 74.63L30.10 80.63L35.65 82.28ZM52.03 131.89L50.68 125.90L45.13 124.24L40.93 128.58L42.29 134.57L47.83 136.23ZM42.29 134.57L40.93 128.58L35.38 126.92L31.19 131.25L32.54 137.24L38.09 138.90ZM54.88 121.57L53.53 115.58L47.97 113.92L43.78 118.25L45.13 124.24L50.68 125.90ZM45.13 124.24L43.78 118.25L38.23 116.59L34.03 120.93L35.38 126.92L40.93 128.58ZM58.93 139.55L57.58 133.56L52.03 131.89L47.83 136.23L49.18 142.22L54.73 143.88ZM49.18 142.22L47.83 136.23L42.29 134.57L38.09 138.90L39.44 144.89L44.99 146.55ZM61.78 129.22L60.43 123.23L54.88 121.57L50.68 125.90L52.03 131.89L57.58 133.56ZM25.64 129.60L24.29 123.61L18.74 121.95L14.55 126.29L15.91 132.28L21.45 133.93ZM15.91 132.28L14.55 126.29L9.01 124.64L4.82 128.97L6.18 134.96L11.72 136.61ZM28.48 119.27L27.13 113.28L21.58 111.63L17.39 115.96L18.74 121.95L24.29 123.61ZM18.74 121.95L17.39 115.96L11.84 114.31L7.65 118.65L9.01 124.64L14.55 126.29ZM32.54 137.24L31.19 131.25L25.64 129.60L21.45 133.93L22.81 139.92L28.35 141.57ZM22.81 139.92L21.45 133.93L15.91 132.28L11.72 136.61L13.08 142.60L18.62 144.25ZM35.38 126.92L34.03 120.93L28.48 119.27L24.29 123.61L25.64 129.60L31.19 131.25ZM67.48 108.57L66.13 102.57L60.58 100.91L56.38 105.24L57.73 111.24L63.28 112.90ZM57.73 111.24L56.38 105.24L50.82 103.58L46.62 107.92L47.97 113.92L53.53 115.58ZM70.34 98.23L68.99 92.23L63.43 90.57L59.23 94.91L60.58 100.91L66.13 102.57ZM60.58 100.91L59.23 94.91L53.67 93.25L49.47 97.59L50.82 103.58L56.38 105.24ZM74.39 116.23L73.04 110.23L67.48 108.57L63.28 112.90L64.63 118.90L70.18 120.56ZM64.63 118.90L63.28 112.90L57.73 111.24L53.53 115.58L54.88 121.57L60.43 123.23ZM77.24 105.90L75.90 99.90L70.34 98.23L66.13 102.57L67.48 108.57L73.04 110.23ZM72.00 59.54L70.65 53.54L65.09 51.88L60.88 56.22L62.23 62.23L67.79 63.89ZM62.23 62.23L60.88 56.22L55.32 54.56L51.11 58.91L52.46 64.91L58.02 66.57ZM78.92 67.21L77.57 61.21L72.00 59.54L67.79 63.89L69.14 69.89L74.71 71.55ZM69.14 69.89L67.79 63.89L62.23 62.23L58.02 66.57L59.38 72.57L64.94 74.23ZM81.78 56.86L80.43 50.86L74.86 49.19L70.65 53.54L72.00 59.54L77.57 61.21ZM45.55 57.25L44.19 51.25L38.63 49.59L34.43 53.94L35.79 59.94L41.34 61.60ZM35.79 59.94L34.43 53.94L28.87 52.29L24.67 56.63L26.03 62.63L31.58 64.29ZM52.46 64.91L51.11 58.91L45.55 57.25L41.34 61.60L42.70 67.60L48.26 69.25ZM42.70 67.60L41.34 61.60L35.79 59.94L31.58 64.29L32.94 70.28L38.50 71.94ZM157.73 141.32L156.39 135.31L150.83 133.63L146.61 137.96L147.95 143.96L153.51 145.64ZM147.95 143.96L146.61 137.96L141.06 136.28L136.84 140.60L138.18 146.60L143.73 148.28ZM160.62 130.99L159.28 124.98L153.72 123.30L149.50 127.63L150.83 133.63L156.39 135.31ZM150.83 133.63L149.50 127.63L143.94 125.95L139.72 130.28L141.06 136.28L146.61 137.96ZM164.62 149.00L163.29 143.00L157.73 141.32L153.51 145.64L154.84 151.64L160.40 153.32ZM154.84 151.64L153.51 145.64L147.95 143.96L143.73 148.28L145.07 154.28L150.63 155.96ZM167.51 138.68L166.18 132.67L160.62 130.99L156.39 135.31L157.73 141.32L163.29 143.00ZM131.28 138.93L129.94 132.93L124.38 131.25L120.17 135.58L121.51 141.58L127.07 143.25ZM121.51 141.58L120.17 135.58L114.61 133.90L110.40 138.23L111.74 144.23L117.30 145.90ZM134.16 128.60L132.82 122.60L127.26 120.92L123.04 125.25L124.38 131.25L129.94 132.93ZM124.38 131.25L123.04 125.25L117.49 123.58L113.27 127.90L114.61 133.90L120.17 135.58ZM138.18 146.60L136.84 140.60L131.28 138.93L127.07 143.25L128.41 149.25L133.96 150.93ZM128.41 149.25L127.07 143.25L121.51 141.58L117.30 145.90L118.64 151.90L124.19 153.57ZM141.06 136.28L139.72 130.28L134.16 128.60L129.94 132.93L131.28 138.93L136.84 140.60ZM173.30 118.01L171.96 112.00L166.40 110.32L162.17 114.65L163.51 120.66L169.07 122.34ZM163.51 120.66L162.17 114.65L156.61 112.97L152.38 117.30L153.72 123.30L159.28 124.98ZM176.19 107.68L174.86 101.67L169.29 99.98L165.06 104.31L166.40 110.32L171.96 112.00ZM166.40 110.32L165.06 104.31L159.50 102.63L155.27 106.96L156.61 112.97L162.17 114.65ZM180.19 125.71L178.86 119.70L173.30 118.01L169.07 122.34L170.40 128.35L175.97 130.03ZM170.40 128.35L169.07 122.34L163.51 120.66L159.28 124.98L160.62 130.99L166.18 132.67ZM183.09 115.37L181.76 109.36L176.19 107.68L171.96 112.00L173.30 118.01L178.86 119.70ZM146.82 115.62L145.48 109.61L139.92 107.93L135.70 112.26L137.04 118.27L142.60 119.94ZM137.04 118.27L135.70 112.26L130.14 110.59L125.92 114.92L127.26 120.92L132.82 122.60ZM149.70 105.28L148.37 99.27L142.80 97.60L138.58 101.93L139.92 107.93L145.48 109.61ZM139.92 107.93L138.58 101.93L133.02 100.25L128.80 104.58L130.14 110.59L135.70 112.26ZM153.72 123.30L152.38 117.30L146.82 115.62L142.60 119.94L143.94 125.95L149.50 127.63ZM143.94 125.95L142.60 119.94L137.04 118.27L132.82 122.60L134.16 128.60L139.72 130.28ZM156.61 112.97L155.27 106.96L149.70 105.28L145.48 109.61L146.82 115.62L152.38 117.30ZM168.63 167.01L167.29 161.01L161.74 159.32L157.52 163.64L158.85 169.64L164.41 171.33ZM158.85 169.64L157.52 163.64L151.96 161.96L147.74 166.28L149.08 172.28L154.63 173.96ZM171.52 156.69L170.18 150.69L164.62 149.00L160.40 153.32L161.74 159.32L167.29 161.01ZM161.74 159.32L160.40 153.32L154.84 151.64L150.63 155.96L151.96 161.96L157.52 163.64ZM175.51 174.70L174.18 168.69L168.63 167.01L164.41 171.33L165.74 177.33L171.29 179.01ZM165.74 177.33L164.41 171.33L158.85 169.64L154.63 173.96L155.97 179.96L161.52 181.64ZM178.41 164.38L177.07 158.37L171.52 156.69L167.29 161.01L168.63 167.01L174.18 168.69ZM142.19 164.60L140.85 158.60L135.30 156.93L131.09 161.25L132.42 167.24L137.98 168.92ZM132.42 167.24L131.09 161.25L125.53 159.57L121.32 163.89L122.66 169.89L128.21 171.56ZM145.07 154.28L143.73 148.28L138.18 146.60L133.96 150.93L135.30 156.93L140.85 158.60ZM135.30 156.93L133.96 150.93L128.41 149.25L124.19 153.57L125.53 159.57L131.09 161.25ZM149.08 172.28L147.74 166.28L142.19 164.60L137.98 168.92L139.31 174.92L144.86 176.60ZM139.31 174.92L137.98 168.92L132.42 167.24L128.21 171.56L129.55 177.56L135.10 179.24ZM151.96 161.96L150.63 155.96L145.07 154.28L140.85 158.60L142.19 164.60L147.74 166.28ZM184.19 143.73L182.86 137.72L177.30 136.04L173.07 140.36L174.41 146.37L179.97 148.05ZM174.41 146.37L173.07 140.36L167.51 138.68L163.29 143.00L164.62 149.00L170.18 150.69ZM187.09 133.40L185.76 127.39L180.19 125.71L175.97 130.03L177.30 136.04L182.86 137.72ZM177.30 136.04L175.97 130.03L170.40 128.35L166.18 132.67L167.51 138.68L173.07 140.36ZM191.09 151.42L189.76 145.42L184.19 143.73L179.97 148.05L181.30 154.06L186.86 155.74ZM181.30 154.06L179.97 148.05L174.41 146.37L170.18 150.69L171.52 156.69L177.07 158.37ZM193.99 141.10L192.65 135.09L187.09 133.40L182.86 137.72L184.19 143.73L189.76 145.42ZM89.37 159.86L88.02 153.86L82.47 152.20L78.27 156.52L79.62 162.51L85.16 164.18ZM79.62 162.51L78.27 156.52L72.72 154.86L68.52 159.18L69.87 165.17L75.42 166.84ZM92.23 149.54L90.88 143.54L85.33 141.88L81.13 146.20L82.47 152.20L88.02 153.86ZM82.47 152.20L81.13 146.20L75.58 144.54L71.37 148.87L72.72 154.86L78.27 156.52ZM96.26 167.52L94.91 161.53L89.37 159.86L85.16 164.18L86.51 170.17L92.05 171.84ZM86.51 170.17L85.16 164.18L79.62 162.51L75.42 166.84L76.76 172.83L82.31 174.49ZM99.12 157.20L97.78 151.21L92.23 149.54L88.02 153.86L89.37 159.86L94.91 161.53ZM62.98 157.52L61.63 151.53L56.08 149.87L51.89 154.20L53.24 160.18L58.78 161.85ZM53.24 160.18L51.89 154.20L46.34 152.54L42.15 156.86L43.50 162.85L49.04 164.51ZM65.83 147.20L64.48 141.21L58.93 139.55L54.73 143.88L56.08 149.87L61.63 151.53ZM56.08 149.87L54.73 143.88L49.18 142.22L44.99 146.55L46.34 152.54L51.89 154.20ZM69.87 165.17L68.52 159.18L62.98 157.52L58.78 161.85L60.13 167.83L65.67 169.50ZM60.13 167.83L58.78 161.85L53.24 160.18L49.04 164.51L50.39 170.50L55.93 172.16ZM72.72 154.86L71.37 148.87L65.83 147.20L61.63 151.53L62.98 157.52L68.52 159.18ZM104.85 136.56L103.50 130.56L97.95 128.89L93.74 133.22L95.09 139.22L100.64 140.89ZM95.09 139.22L93.74 133.22L88.19 131.55L83.98 135.88L85.33 141.88L90.88 143.54ZM107.72 126.23L106.37 120.23L100.82 118.56L96.60 122.89L97.95 128.89L103.50 130.56ZM97.95 128.89L96.60 122.89L91.05 121.22L86.84 125.56L88.19 131.55L93.74 133.22ZM111.74 144.23L110.40 138.23L104.85 136.56L100.64 140.89L101.98 146.88L107.53 148.55ZM101.98 146.88L100.64 140.89L95.09 139.22L90.88 143.54L92.23 149.54L97.78 151.21ZM114.61 133.90L113.27 127.90L107.72 126.23L103.50 130.56L104.85 136.56L110.40 138.23ZM78.43 134.22L77.08 128.22L71.53 126.56L67.33 130.89L68.68 136.88L74.23 138.54ZM68.68 136.88L67.33 130.89L61.78 129.22L57.58 133.56L58.93 139.55L64.48 141.21ZM81.29 123.89L79.94 117.89L74.39 116.23L70.18 120.56L71.53 126.56L77.08 128.22ZM71.53 126.56L70.18 120.56L64.63 118.90L60.43 123.23L61.78 129.22L67.33 130.89ZM85.33 141.88L83.98 135.88L78.43 134.22L74.23 138.54L75.58 144.54L81.13 146.20ZM75.58 144.54L74.23 138.54L68.68 136.88L64.48 141.21L65.83 147.20L71.37 148.87ZM88.19 131.55L86.84 125.56L81.29 123.89L77.08 128.22L78.43 134.22L83.98 135.88ZM100.29 185.49L98.94 179.50L93.40 177.83L89.20 182.15L90.54 188.14L96.09 189.81ZM90.54 188.14L89.20 182.15L83.65 180.48L79.45 184.80L80.80 190.79L86.34 192.46ZM103.15 175.18L101.81 169.19L96.26 167.52L92.05 171.84L93.40 177.83L98.94 179.50ZM93.40 177.83L92.05 171.84L86.51 170.17L82.31 174.49L83.65 180.48L89.20 182.15ZM107.17 193.16L105.83 187.16L100.29 185.49L96.09 189.81L97.43 195.80L102.97 197.47ZM97.43 195.80L96.09 189.81L90.54 188.14L86.34 192.46L87.69 198.45L93.23 200.12ZM110.04 182.85L108.70 176.85L103.15 175.18L98.94 179.50L100.29 185.49L105.83 187.16ZM73.91 183.14L72.56 177.15L67.02 175.49L62.83 179.81L64.17 185.79L69.71 187.46ZM64.17 185.79L62.83 179.81L57.28 178.14L53.09 182.47L54.44 188.45L59.98 190.12ZM76.76 172.83L75.42 166.84L69.87 165.17L65.67 169.50L67.02 175.49L72.56 177.15ZM67.02 175.49L65.67 169.50L60.13 167.83L55.93 172.16L57.28 178.14L62.83 179.81ZM80.80 190.79L79.45 184.80L73.91 183.14L69.71 187.46L71.06 193.44L76.60 195.11ZM71.06 193.44L69.71 187.46L64.17 185.79L59.98 190.12L61.33 196.10L66.87 197.76ZM83.65 180.48L82.31 174.49L76.76 172.83L72.56 177.15L73.91 183.14L79.45 184.80ZM115.77 162.22L114.43 156.22L108.88 154.55L104.67 158.87L106.01 164.87L111.56 166.54ZM106.01 164.87L104.67 158.87L99.12 157.20L94.91 161.53L96.26 167.52L101.81 169.19ZM118.64 151.90L117.30 145.90L111.74 144.23L107.53 148.55L108.88 154.55L114.43 156.22ZM108.88 154.55L107.53 148.55L101.98 146.88L97.78 151.21L99.12 157.20L104.67 158.87ZM122.66 169.89L121.32 163.89L115.77 162.22L111.56 166.54L112.90 172.53L118.45 174.21ZM112.90 172.53L111.56 166.54L106.01 164.87L101.81 169.19L103.15 175.18L108.70 176.85ZM125.53 159.57L124.19 153.57L118.64 151.90L114.43 156.22L115.77 162.22L121.32 163.89ZM177.98 68.95L176.64 62.93L171.07 61.25L166.84 65.58L168.17 71.60L173.75 73.28ZM168.17 71.60L166.84 65.58L161.26 63.90L157.03 68.24L158.37 74.25L163.94 75.93ZM180.88 58.59L179.55 52.57L173.97 50.89L169.73 55.23L171.07 61.25L176.64 62.93ZM171.07 61.25L169.73 55.23L164.16 53.55L159.93 57.89L161.26 63.90L166.84 65.58ZM184.89 76.65L183.55 70.63L177.98 68.95L173.75 73.28L175.08 79.29L180.65 80.98ZM175.08 79.29L173.75 73.28L168.17 71.60L163.94 75.93L165.28 81.95L170.85 83.63ZM187.79 66.30L186.46 60.28L180.88 58.59L176.64 62.93L177.98 68.95L183.55 70.63ZM151.46 66.56L150.12 60.55L144.55 58.87L140.32 63.21L141.66 69.22L147.23 70.90ZM141.66 69.22L140.32 63.21L134.75 61.53L130.53 65.87L131.87 71.88L137.44 73.56ZM154.35 56.21L153.01 50.19L147.44 48.51L143.21 52.85L144.55 58.87L150.12 60.55ZM144.55 58.87L143.21 52.85L137.64 51.18L133.41 55.52L134.75 61.53L140.32 63.21ZM158.37 74.25L157.03 68.24L151.46 66.56L147.23 70.90L148.57 76.91L154.14 78.59ZM148.57 76.91L147.23 70.90L141.66 69.22L137.44 73.56L138.78 79.57L144.35 81.24ZM161.26 63.90L159.93 57.89L154.35 56.21L150.12 60.55L151.46 66.56L157.03 68.24ZM190.70 55.94L189.36 49.92L183.78 48.24L179.55 52.57L180.88 58.59L186.46 60.28ZM188.89 94.69L187.56 88.68L181.99 86.99L177.75 91.32L179.09 97.34L184.66 99.02ZM179.09 97.34L177.75 91.32L172.18 89.64L167.95 93.97L169.29 99.98L174.86 101.67ZM191.79 84.35L190.46 78.33L184.89 76.65L180.65 80.98L181.99 86.99L187.56 88.68ZM181.99 86.99L180.65 80.98L175.08 79.29L170.85 83.63L172.18 89.64L177.75 91.32ZM195.79 102.39L194.46 96.38L188.89 94.69L184.66 99.02L185.99 105.03L191.56 106.72ZM185.99 105.03L184.66 99.02L179.09 97.34L174.86 101.67L176.19 107.68L181.76 109.36ZM198.70 92.05L197.37 86.03L191.79 84.35L187.56 88.68L188.89 94.69L194.46 96.38ZM162.39 92.29L161.05 86.28L155.48 84.60L151.25 88.93L152.59 94.94L158.16 96.62ZM152.59 94.94L151.25 88.93L145.69 87.25L141.46 91.59L142.80 97.60L148.37 99.27ZM165.28 81.95L163.94 75.93L158.37 74.25L154.14 78.59L155.48 84.60L161.05 86.28ZM155.48 84.60L154.14 78.59L148.57 76.91L144.35 81.24L145.69 87.25L151.25 88.93ZM169.29 99.98L167.95 93.97L162.39 92.29L158.16 96.62L159.50 102.63L165.06 104.31ZM159.50 102.63L158.16 96.62L152.59 94.94L148.37 99.27L149.70 105.28L155.27 106.96ZM172.18 89.64L170.85 83.63L165.28 81.95L161.05 86.28L162.39 92.29L167.95 93.97ZM204.51 71.35L203.18 65.33L197.61 63.65L193.37 67.98L194.70 74.00L200.27 75.69ZM194.70 74.00L193.37 67.98L187.79 66.30L183.55 70.63L184.89 76.65L190.46 78.33ZM207.43 61.00L206.09 54.98L200.52 53.29L196.27 57.63L197.61 63.65L203.18 65.33ZM197.61 63.65L196.27 57.63L190.70 55.94L186.46 60.28L187.79 66.30L193.37 67.98ZM211.42 79.06L210.09 73.04L204.51 71.35L200.27 75.69L201.61 81.70L207.18 83.39ZM201.61 81.70L200.27 75.69L194.70 74.00L190.46 78.33L191.79 84.35L197.37 86.03ZM214.33 68.71L213.00 62.69L207.43 61.00L203.18 65.33L204.51 71.35L210.09 73.04ZM2.10 117.00L0.74 111.01L-4.80 109.36L-8.99 113.70L-7.63 119.69L-2.08 121.34ZM6.18 134.96L4.82 128.97L-0.73 127.32L-4.91 131.66L-3.55 137.64L1.99 139.29ZM9.01 124.64L7.65 118.65L2.10 117.00L-2.08 121.34L-0.73 127.32L4.82 128.97ZM3.69 78.36L2.33 72.37L-3.23 70.72L-7.42 75.07L-6.06 81.06L-0.51 82.71ZM6.52 68.02L5.16 62.03L-0.40 60.38L-4.59 64.73L-3.23 70.72L2.33 72.37ZM10.60 86.01L9.24 80.01L3.69 78.36L-0.51 82.71L0.85 88.70L6.41 90.35ZM0.85 88.70L-0.51 82.71L-6.06 81.06L-10.25 85.40L-8.88 91.39L-3.34 93.04ZM13.43 75.67L12.07 69.67L6.52 68.02L2.33 72.37L3.69 78.36L9.24 80.01ZM9.36 57.68L7.99 51.68L2.44 50.03L-1.76 54.38L-0.40 60.38L5.16 62.03ZM26.03 62.63L24.67 56.63L19.11 54.98L14.91 59.33L16.27 65.33L21.83 66.98ZM16.27 65.33L14.91 59.33L9.36 57.68L5.16 62.03L6.52 68.02L12.07 69.67Z"/><path data-band="3" fill="#dc2626" fill-opacity="0.35" d="M188.59 256.95L187.26 250.96L181.71 249.27L177.50 253.57L178.83 259.56L184.37 261.25ZM178.83 259.56L177.50 253.57L171.96 251.88L167.75 256.18L169.08 262.17L174.62 263.86ZM162.21 254.50L160.87 248.51L155.33 246.83L151.12 251.13L152.46 257.12L158.00 258.80ZM152.46 257.12L151.12 251.13L145.58 249.45L141.38 253.75L142.71 259.74L148.25 261.42ZM169.08 262.17L167.75 256.18L162.21 254.50L158.00 258.80L159.33 264.79L164.87 266.47ZM201.24 244.05L199.91 238.05L194.37 236.36L190.15 240.66L191.47 246.66L197.02 248.35ZM191.47 246.66L190.15 240.66L184.60 238.97L180.39 243.28L181.71 249.27L187.26 250.96ZM204.13 233.75L202.81 227.75L197.26 226.06L193.04 230.37L194.37 236.36L199.91 238.05ZM194.37 236.36L193.04 230.37L187.49 228.68L183.27 232.98L184.60 238.97L190.15 240.66ZM208.11 251.74L206.79 245.74L201.24 244.05L197.02 248.35L198.35 254.34L203.89 256.03ZM198.35 254.34L197.02 248.35L191.47 246.66L187.26 250.96L188.59 256.95L194.13 258.64ZM211.01 241.44L209.68 235.44L204.13 233.75L199.91 238.05L201.24 244.05L206.79 245.74ZM174.84 241.59L173.51 235.60L167.97 233.91L163.75 238.22L165.08 244.21L170.63 245.89ZM165.08 244.21L163.75 238.22L158.21 236.53L154.00 240.84L155.33 246.83L160.87 248.51ZM177.73 231.29L176.40 225.30L170.85 223.61L166.63 227.92L167.97 233.91L173.51 235.60ZM167.97 233.91L166.63 227.92L161.09 226.24L156.88 230.54L158.21 236.53L163.75 238.22ZM181.71 249.27L180.39 243.28L174.84 241.59L170.63 245.89L171.96 251.88L177.50 253.57ZM171.96 251.88L170.63 245.89L165.08 244.21L160.87 248.51L162.21 254.50L167.75 256.18ZM184.60 238.97L183.27 232.98L177.73 231.29L173.51 235.60L174.84 241.59L180.39 243.28ZM214.98 259.42L213.66 253.43L208.11 251.74L203.89 256.03L205.22 262.03L210.76 263.72ZM205.22 262.03L203.89 256.03L198.35 254.34L194.13 258.64L195.45 264.63L201.00 266.32ZM132.97 262.36L131.64 256.38L126.10 254.70L121.90 259.00L123.24 264.98L128.77 266.66ZM135.84 252.07L134.51 246.09L128.97 244.41L124.77 248.71L126.10 254.70L131.64 256.38ZM126.10 254.70L124.77 248.71L119.23 247.04L115.03 251.34L116.37 257.32L121.90 259.00ZM142.71 259.74L141.38 253.75L135.84 252.07L131.64 256.38L132.97 262.36L138.51 264.04ZM106.63 259.95L105.30 253.97L99.76 252.30L95.57 256.61L96.91 262.58L102.44 264.26ZM96.91 262.58L95.57 256.61L90.03 254.93L85.84 259.24L87.18 265.22L92.72 266.89ZM109.49 249.67L108.15 243.68L102.62 242.01L98.42 246.32L99.76 252.30L105.30 253.97ZM99.76 252.30L98.42 246.32L92.89 244.65L88.69 248.95L90.03 254.93L95.57 256.61ZM116.37 257.32L115.03 251.34L109.49 249.67L105.30 253.97L106.63 259.95L112.17 261.63ZM205.95 195.14L204.62 189.14L199.07 187.45L194.84 191.76L196.17 197.76L201.72 199.45ZM196.17 197.76L194.84 191.76L189.29 190.07L185.06 194.38L186.39 200.38L191.95 202.07ZM208.85 184.83L207.52 178.83L201.97 177.13L197.74 181.45L199.07 187.45L204.62 189.14ZM199.07 187.45L197.74 181.45L192.18 179.76L187.96 184.07L189.29 190.07L194.84 191.76ZM212.83 202.84L211.50 196.84L205.95 195.14L201.72 199.45L203.05 205.45L208.60 207.15ZM203.05 205.45L201.72 199.45L196.17 197.76L191.95 202.07L193.27 208.07L198.83 209.76ZM215.73 192.53L214.41 186.52L208.85 184.83L204.62 189.14L205.95 195.14L211.50 196.84ZM179.51 192.70L178.18 186.70L172.63 185.01L168.41 189.32L169.74 195.32L175.29 197.01ZM169.74 195.32L168.41 189.32L162.85 187.64L158.64 191.95L159.97 197.95L165.52 199.63ZM182.40 182.38L181.07 176.38L175.51 174.70L171.29 179.01L172.63 185.01L178.18 186.70ZM172.63 185.01L171.29 179.01L165.74 177.33L161.52 181.64L162.85 187.64L168.41 189.32ZM186.39 200.38L185.06 194.38L179.51 192.70L175.29 197.01L176.62 203.01L182.17 204.69ZM176.62 203.01L175.29 197.01L169.74 195.32L165.52 199.63L166.85 205.63L172.40 207.32ZM189.29 190.07L187.96 184.07L182.40 182.38L178.18 186.70L179.51 192.70L185.06 194.38ZM216.81 220.84L215.48 214.84L209.93 213.15L205.70 217.45L207.03 223.45L212.58 225.14ZM207.03 223.45L205.70 217.45L200.15 215.76L195.93 220.07L197.26 226.06L202.81 227.75ZM219.71 210.53L218.39 204.53L212.83 202.84L208.60 207.15L209.93 213.15L215.48 214.84ZM209.93 213.15L208.60 207.15L203.05 205.45L198.83 209.76L200.15 215.76L205.70 217.45ZM223.68 228.53L222.36 222.53L216.81 220.84L212.58 225.14L213.91 231.14L219.46 232.84ZM213.91 231.14L212.58 225.14L207.03 223.45L202.81 227.75L204.13 233.75L209.68 235.44ZM226.59 218.23L225.26 212.23L219.71 210.53L215.48 214.84L216.81 220.84L222.36 222.53ZM190.38 218.38L189.05 212.38L183.50 210.69L179.28 215.00L180.61 220.99L186.16 222.68ZM180.61 220.99L179.28 215.00L173.73 213.31L169.52 217.62L170.85 223.61L176.40 225.30ZM193.27 208.07L191.95 202.07L186.39 200.38L182.17 204.69L183.50 210.69L189.05 212.38ZM183.50 210.69L182.17 204.69L176.62 203.01L172.40 207.32L173.73 213.31L179.28 215.00ZM197.26 226.06L195.93 220.07L190.38 218.38L186.16 222.68L187.49 228.68L193.04 230.37ZM187.49 228.68L186.16 222.68L180.61 220.99L176.40 225.30L177.73 231.29L183.27 232.98ZM200.15 215.76L198.83 209.76L193.27 208.07L189.05 212.38L190.38 218.38L195.93 220.07ZM232.40 197.61L231.08 191.61L225.52 189.91L221.29 194.22L222.62 200.22L228.17 201.92ZM222.62 200.22L221.29 194.22L215.73 192.53L211.50 196.84L212.83 202.84L218.39 204.53ZM235.31 187.30L233.99 181.29L228.43 179.60L224.20 183.91L225.52 189.91L231.08 191.61ZM225.52 189.91L224.20 183.91L218.64 182.21L214.41 186.52L215.73 192.53L221.29 194.22ZM239.28 205.32L237.96 199.31L232.40 197.61L228.17 201.92L229.49 207.92L235.05 209.62ZM229.49 207.92L228.17 201.92L222.62 200.22L218.39 204.53L219.71 210.53L225.26 212.23ZM242.20 195.00L240.87 189.00L235.31 187.30L231.08 191.61L232.40 197.61L237.96 199.31ZM137.58 213.52L136.24 207.53L130.69 205.85L126.49 210.16L127.82 216.15L133.37 217.83ZM127.82 216.15L126.49 210.16L120.94 208.48L116.74 212.80L118.08 218.78L123.62 220.46ZM140.45 203.21L139.11 197.22L133.56 195.54L129.36 199.86L130.69 205.85L136.24 207.53ZM130.69 205.85L129.36 199.86L123.81 198.18L119.60 202.49L120.94 208.48L126.49 210.16ZM144.46 221.19L143.12 215.20L137.58 213.52L133.37 217.83L134.70 223.82L140.25 225.50ZM134.70 223.82L133.37 217.83L127.82 216.15L123.62 220.46L124.96 226.45L130.50 228.13ZM147.33 210.89L146.00 204.89L140.45 203.21L136.24 207.53L137.58 213.52L143.12 215.20ZM111.20 211.12L109.86 205.13L104.31 203.46L100.11 207.78L101.45 213.76L106.99 215.43ZM101.45 213.76L100.11 207.78L94.57 206.10L90.37 210.42L91.71 216.40L97.25 218.08ZM114.06 200.82L112.72 194.83L107.17 193.16L102.97 197.47L104.31 203.46L109.86 205.13ZM104.31 203.46L102.97 197.47L97.43 195.80L93.23 200.12L94.57 206.10L100.11 207.78ZM118.08 218.78L116.74 212.80L111.20 211.12L106.99 215.43L108.33 221.42L113.87 223.10ZM108.33 221.42L106.99 215.43L101.45 213.76L97.25 218.08L98.60 224.06L104.13 225.73ZM120.94 208.48L119.60 202.49L114.06 200.82L109.86 205.13L111.20 211.12L116.74 212.80ZM153.09 190.27L151.75 184.28L146.20 182.59L141.99 186.91L143.32 192.91L148.87 194.59ZM159.97 197.95L158.64 191.95L153.09 190.27L148.87 194.59L150.21 200.58L155.76 202.26ZM150.21 200.58L148.87 194.59L143.32 192.91L139.11 197.22L140.45 203.21L146.00 204.89ZM162.85 187.64L161.52 181.64L155.97 179.96L151.75 184.28L153.09 190.27L158.64 191.95ZM123.81 198.18L122.47 192.19L116.92 190.51L112.72 194.83L114.06 200.82L119.60 202.49ZM148.46 239.16L147.12 233.17L141.58 231.49L137.38 235.79L138.71 241.78L144.25 243.46ZM138.71 241.78L137.38 235.79L131.83 234.11L127.63 238.42L128.97 244.41L134.51 246.09ZM151.33 228.86L150.00 222.87L144.46 221.19L140.25 225.50L141.58 231.49L147.12 233.17ZM141.58 231.49L140.25 225.50L134.70 223.82L130.50 228.13L131.83 234.11L137.38 235.79ZM155.33 246.83L154.00 240.84L148.46 239.16L144.25 243.46L145.58 249.45L151.12 251.13ZM145.58 249.45L144.25 243.46L138.71 241.78L134.51 246.09L135.84 252.07L141.38 253.75ZM158.21 236.53L156.88 230.54L151.33 228.86L147.12 233.17L148.46 239.16L154.00 240.84ZM122.09 236.74L120.75 230.76L115.21 229.08L111.01 233.39L112.35 239.38L117.89 241.05ZM112.35 239.38L111.01 233.39L105.47 231.72L101.28 236.03L102.62 242.01L108.15 243.68ZM124.96 226.45L123.62 220.46L118.08 218.78L113.87 223.10L115.21 229.08L120.75 230.76ZM115.21 229.08L113.87 223.10L108.33 221.42L104.13 225.73L105.47 231.72L111.01 233.39ZM128.97 244.41L127.63 238.42L122.09 236.74L117.89 241.05L119.23 247.04L124.77 248.71ZM119.23 247.04L117.89 241.05L112.35 239.38L108.15 243.68L109.49 249.67L115.03 251.34ZM131.83 234.11L130.50 228.13L124.96 226.45L120.75 230.76L122.09 236.74L127.63 238.42ZM163.97 215.93L162.64 209.94L157.09 208.26L152.88 212.57L154.21 218.56L159.76 220.24ZM154.21 218.56L152.88 212.57L147.33 210.89L143.12 215.20L144.46 221.19L150.00 222.87ZM166.85 205.63L165.52 199.63L159.97 197.95L155.76 202.26L157.09 208.26L162.64 209.94ZM157.09 208.26L155.76 202.26L150.21 200.58L146.00 204.89L147.33 210.89L152.88 212.57ZM170.85 223.61L169.52 217.62L163.97 215.93L159.76 220.24L161.09 226.24L166.63 227.92ZM161.09 226.24L159.76 220.24L154.21 218.56L150.00 222.87L151.33 228.86L156.88 230.54ZM173.73 213.31L172.40 207.32L166.85 205.63L162.64 209.94L163.97 215.93L169.52 217.62ZM254.08 249.03L252.76 243.03L247.21 241.33L242.98 245.63L244.30 251.63L249.85 253.33ZM244.30 251.63L242.98 245.63L237.43 243.93L233.20 248.23L234.52 254.22L240.07 255.92ZM257.00 238.73L255.68 232.73L250.12 231.03L245.89 235.33L247.21 241.33L252.76 243.03ZM247.21 241.33L245.89 235.33L240.34 233.63L236.11 237.93L237.43 243.93L242.98 245.63ZM260.95 256.74L259.63 250.74L254.08 249.03L249.85 253.33L251.17 259.33L256.72 261.03ZM251.17 259.33L249.85 253.33L244.30 251.63L240.07 255.92L241.39 261.92L246.94 263.62ZM263.87 246.44L262.55 240.44L257.00 238.73L252.76 243.03L254.08 249.03L259.63 250.74ZM227.65 246.53L226.33 240.53L220.78 238.83L216.56 243.13L217.88 249.13L223.43 250.83ZM217.88 249.13L216.56 243.13L211.01 241.44L206.79 245.74L208.11 251.74L213.66 253.43ZM230.56 236.23L229.23 230.23L223.68 228.53L219.46 232.84L220.78 238.83L226.33 240.53ZM220.78 238.83L219.46 232.84L213.91 231.14L209.68 235.44L211.01 241.44L216.56 243.13ZM234.52 254.22L233.20 248.23L227.65 246.53L223.43 250.83L224.75 256.82L230.30 258.52ZM224.75 256.82L223.43 250.83L217.88 249.13L213.66 253.43L214.98 259.42L220.53 261.12ZM237.43 243.93L236.11 237.93L230.56 236.23L226.33 240.53L227.65 246.53L233.20 248.23ZM259.91 228.43L258.59 222.43L253.04 220.73L248.80 225.03L250.12 231.03L255.68 232.73ZM262.83 218.13L261.51 212.12L255.95 210.42L251.72 214.72L253.04 220.73L258.59 222.43ZM266.79 236.14L265.47 230.14L259.91 228.43L255.68 232.73L257.00 238.73L262.55 240.44ZM243.25 223.33L241.93 217.32L236.37 215.62L232.14 219.93L233.46 225.93L239.02 227.63ZM233.46 225.93L232.14 219.93L226.59 218.23L222.36 222.53L223.68 228.53L229.23 230.23ZM246.16 213.02L244.84 207.02L239.28 205.32L235.05 209.62L236.37 215.62L241.93 217.32ZM236.37 215.62L235.05 209.62L229.49 207.92L225.26 212.23L226.59 218.23L232.14 219.93ZM250.12 231.03L248.80 225.03L243.25 223.33L239.02 227.63L240.34 233.63L245.89 235.33ZM240.34 233.63L239.02 227.63L233.46 225.93L229.23 230.23L230.56 236.23L236.11 237.93ZM253.04 220.73L251.72 214.72L246.16 213.02L241.93 217.32L243.25 223.33L248.80 225.03ZM241.39 261.92L240.07 255.92L234.52 254.22L230.30 258.52L231.62 264.52L237.16 266.22ZM1.44 250.56L0.08 244.59L-5.44 242.94L-9.61 247.25L-8.26 253.22L-2.73 254.87ZM4.25 240.28L2.90 234.31L-2.63 232.65L-6.80 236.97L-5.44 242.94L0.08 244.59ZM8.31 258.18L6.96 252.21L1.44 250.56L-2.73 254.87L-1.38 260.84L4.14 262.49ZM11.13 247.90L9.78 241.93L4.25 240.28L0.08 244.59L1.44 250.56L6.96 252.21ZM16.78 227.33L15.43 221.35L9.90 219.70L5.72 224.02L7.07 229.99L12.60 231.64ZM7.07 229.99L5.72 224.02L0.19 222.36L-3.98 226.68L-2.63 232.65L2.90 234.31ZM19.61 217.03L18.25 211.06L12.72 209.40L8.54 213.72L9.90 219.70L15.43 221.35ZM9.90 219.70L8.54 213.72L3.01 212.07L-1.16 216.39L0.19 222.36L5.72 224.02ZM23.66 234.96L22.31 228.98L16.78 227.33L12.60 231.64L13.96 237.62L19.48 239.27ZM13.96 237.62L12.60 231.64L7.07 229.99L2.90 234.31L4.25 240.28L9.78 241.93ZM26.49 224.67L25.14 218.69L19.61 217.03L15.43 221.35L16.78 227.33L22.31 228.98ZM0.19 222.36L-1.16 216.39L-6.69 214.74L-10.86 219.06L-9.51 225.03L-3.98 226.68ZM27.71 252.87L26.36 246.90L20.83 245.24L16.66 249.56L18.01 255.53L23.54 257.19ZM18.01 255.53L16.66 249.56L11.13 247.90L6.96 252.21L8.31 258.18L13.84 259.84ZM30.54 242.59L29.19 236.62L23.66 234.96L19.48 239.27L20.83 245.24L26.36 246.90ZM20.83 245.24L19.48 239.27L13.96 237.62L9.78 241.93L11.13 247.90L16.66 249.56ZM34.59 260.51L33.24 254.53L27.71 252.87L23.54 257.19L24.89 263.16L30.41 264.81ZM24.89 263.16L23.54 257.19L18.01 255.53L13.84 259.84L15.19 265.81L20.71 267.47ZM37.42 250.22L36.07 244.25L30.54 242.59L26.36 246.90L27.71 252.87L33.24 254.53ZM32.15 204.08L30.80 198.10L25.26 196.44L21.08 200.76L22.43 206.74L27.97 208.40ZM22.43 206.74L21.08 200.76L15.55 199.10L11.37 203.43L12.72 209.40L18.25 211.06ZM39.04 211.71L37.69 205.73L32.15 204.08L27.97 208.40L29.32 214.37L34.85 216.03ZM29.32 214.37L27.97 208.40L22.43 206.74L18.25 211.06L19.61 217.03L25.14 218.69ZM41.87 201.41L40.52 195.43L34.99 193.77L30.80 198.10L32.15 204.08L37.69 205.73ZM5.83 201.77L4.48 195.80L-1.05 194.14L-5.23 198.47L-3.87 204.44L1.66 206.09ZM12.72 209.40L11.37 203.43L5.83 201.77L1.66 206.09L3.01 212.07L8.54 213.72ZM3.01 212.07L1.66 206.09L-3.87 204.44L-8.05 208.76L-6.69 214.74L-1.16 216.39ZM15.55 199.10L14.19 193.13L8.66 191.47L4.48 195.80L5.83 201.77L11.37 203.43ZM69.40 231.99L68.06 226.01L62.52 224.34L58.34 228.66L59.68 234.64L65.22 236.30ZM59.68 234.64L58.34 228.66L52.80 226.99L48.62 231.31L49.96 237.29L55.50 238.95ZM72.25 221.70L70.90 215.71L65.37 214.05L61.18 218.36L62.52 224.34L68.06 226.01ZM62.52 224.34L61.18 218.36L55.64 216.70L51.45 221.02L52.80 226.99L58.34 228.66ZM76.28 239.64L74.94 233.66L69.40 231.99L65.22 236.30L66.56 242.28L72.09 243.95ZM66.56 242.28L65.22 236.30L59.68 234.64L55.50 238.95L56.84 244.93L62.37 246.59ZM79.13 229.34L77.79 223.36L72.25 221.70L68.06 226.01L69.40 231.99L74.94 233.66ZM43.08 229.65L41.74 223.67L36.20 222.01L32.02 226.33L33.37 232.30L38.90 233.96ZM33.37 232.30L32.02 226.33L26.49 224.67L22.31 228.98L23.66 234.96L29.19 236.62ZM45.92 219.35L44.57 213.37L39.04 211.71L34.85 216.03L36.20 222.01L41.74 223.67ZM36.20 222.01L34.85 216.03L29.32 214.37L25.14 218.69L26.49 224.67L32.02 226.33ZM49.96 237.29L48.62 231.31L43.08 229.65L38.90 233.96L40.25 239.94L45.78 241.60ZM40.25 239.94L38.90 233.96L33.37 232.30L29.19 236.62L30.54 242.59L36.07 244.25ZM52.80 226.99L51.45 221.02L45.92 219.35L41.74 223.67L43.08 229.65L48.62 231.31ZM84.83 208.75L83.49 202.76L77.95 201.10L73.75 205.41L75.10 211.40L80.64 213.07ZM75.10 211.40L73.75 205.41L68.21 203.75L64.02 208.07L65.37 214.05L70.90 215.71ZM87.69 198.45L86.34 192.46L80.80 190.79L76.60 195.11L77.95 201.10L83.49 202.76ZM77.95 201.10L76.60 195.11L71.06 193.44L66.87 197.76L68.21 203.75L73.75 205.41ZM91.71 216.40L90.37 210.42L84.83 208.75L80.64 213.07L81.98 219.05L87.52 220.72ZM81.98 219.05L80.64 213.07L75.10 211.40L70.90 215.71L72.25 221.70L77.79 223.36ZM94.57 206.10L93.23 200.12L87.69 198.45L83.49 202.76L84.83 208.75L90.37 210.42ZM58.48 206.40L57.14 200.42L51.60 198.76L47.41 203.08L48.76 209.06L54.29 210.72ZM48.76 209.06L47.41 203.08L41.87 201.41L37.69 205.73L39.04 211.71L44.57 213.37ZM51.60 198.76L50.25 192.77L44.71 191.11L40.52 195.43L41.87 201.41L47.41 203.08ZM65.37 214.05L64.02 208.07L58.48 206.40L54.29 210.72L55.64 216.70L61.18 218.36ZM55.64 216.70L54.29 210.72L48.76 209.06L44.57 213.37L45.92 219.35L51.45 221.02ZM68.21 203.75L66.87 197.76L61.33 196.10L57.14 200.42L58.48 206.40L64.02 208.07ZM80.31 257.57L78.97 251.59L73.44 249.92L69.25 254.23L70.59 260.21L76.12 261.88ZM70.59 260.21L69.25 254.23L63.72 252.57L59.53 256.88L60.88 262.85L66.41 264.52ZM83.16 247.28L81.82 241.30L76.28 239.64L72.09 243.95L73.44 249.92L78.97 251.59ZM73.44 249.92L72.09 243.95L66.56 242.28L62.37 246.59L63.72 252.57L69.25 254.23ZM90.03 254.93L88.69 248.95L83.16 247.28L78.97 251.59L80.31 257.57L85.84 259.24ZM54.00 255.21L52.66 249.24L47.13 247.57L42.95 251.88L44.29 257.86L49.82 259.52ZM44.29 257.86L42.95 251.88L37.42 250.22L33.24 254.53L34.59 260.51L40.11 262.17ZM56.84 244.93L55.50 238.95L49.96 237.29L45.78 241.60L47.13 247.57L52.66 249.24ZM47.13 247.57L45.78 241.60L40.25 239.94L36.07 244.25L37.42 250.22L42.95 251.88ZM60.88 262.85L59.53 256.88L54.00 255.21L49.82 259.52L51.17 265.49L56.70 267.16ZM63.72 252.57L62.37 246.59L56.84 244.93L52.66 249.24L54.00 255.21L59.53 256.88ZM95.74 234.35L94.40 228.37L88.86 226.70L84.67 231.01L86.01 236.99L91.54 238.67ZM86.01 236.99L84.67 231.01L79.13 229.34L74.94 233.66L76.28 239.64L81.82 241.30ZM98.60 224.06L97.25 218.08L91.71 216.40L87.52 220.72L88.86 226.70L94.40 228.37ZM88.86 226.70L87.52 220.72L81.98 219.05L77.79 223.36L79.13 229.34L84.67 231.01ZM102.62 242.01L101.28 236.03L95.74 234.35L91.54 238.67L92.89 244.65L98.42 246.32ZM92.89 244.65L91.54 238.67L86.01 236.99L81.82 241.30L83.16 247.28L88.69 248.95ZM105.47 231.72L104.13 225.73L98.60 224.06L94.40 228.37L95.74 234.35L101.28 236.03ZM245.11 184.69L243.79 178.68L238.23 176.98L233.99 181.29L235.31 187.30L240.87 189.00ZM258.87 200.11L257.55 194.10L251.99 192.40L247.76 196.70L249.08 202.71L254.63 204.41ZM249.08 202.71L247.76 196.70L242.20 195.00L237.96 199.31L239.28 205.32L244.84 207.02ZM261.79 189.79L260.47 183.78L254.91 182.08L250.67 186.39L251.99 192.40L257.55 194.10ZM251.99 192.40L250.67 186.39L245.11 184.69L240.87 189.00L242.20 195.00L247.76 196.70ZM265.75 207.82L264.43 201.81L258.87 200.11L254.63 204.41L255.95 210.42L261.51 212.12ZM255.95 210.42L254.63 204.41L249.08 202.71L244.84 207.02L246.16 213.02L251.72 214.72Z"/></svg>
