<svg xmlns="http://www.w3.org/2000/svg" width="256" height="256" viewBox="0 0 256 256"><path data-band="3" fill="#dc2626" fill-opacity="0.35" d="M136.32 -4.02L135.00 -9.97L129.50 -11.65L125.33 -7.39L126.66 -1.45L132.15 0.24ZM126.66 -1.45L125.33 -7.39L119.83 -9.08L115.66 -4.82L116.99 1.13L122.49 2.81ZM143.14 3.62L141.82 -2.33L136.32 -4.02L132.15 0.24L133.48 6.19L138.97 7.87ZM133.48 6.19L132.15 0.24L126.66 -1.45L122.49 2.81L123.81 8.76L129.31 10.44ZM100.51 -3.92L99.18 -9.86L93.69 -11.54L89.52 -7.28L90.86 -1.34L96.35 0.34ZM116.99 1.13L115.66 -4.82L110.17 -6.50L106.00 -2.24L107.33 3.70L112.83 5.39ZM107.33 3.70L106.00 -2.24L100.51 -3.92L96.35 0.34L97.68 6.28L103.17 7.96ZM64.74 -3.78L63.40 -9.72L57.91 -11.40L53.76 -7.13L55.09 -1.19L60.58 0.48ZM55.09 -1.19L53.76 -7.13L48.27 -8.80L44.12 -4.54L45.45 1.40L50.94 3.07ZM29.00 -3.61L27.66 -9.54L22.17 -11.21L18.03 -6.94L19.37 -1.01L24.85 0.66ZM68.74 14.03L67.40 8.09L61.92 6.42L57.76 10.68L59.10 16.61L64.58 18.29ZM59.10 16.61L57.76 10.68L52.28 9.00L48.13 13.27L49.46 19.20L54.95 20.87ZM71.56 3.83L70.22 -2.11L64.74 -3.78L60.58 0.48L61.92 6.42L67.40 8.09ZM61.92 6.42L60.58 0.48L55.09 -1.19L50.94 3.07L52.28 9.00L57.76 10.68ZM75.56 21.64L74.22 15.70L68.74 14.03L64.58 18.29L65.92 24.22L71.40 25.90ZM65.92 24.22L64.58 18.29L59.10 16.61L54.95 20.87L56.28 26.81L61.77 28.48ZM78.38 11.44L77.05 5.50L71.56 3.83L67.40 8.09L68.74 14.03L74.22 15.70ZM42.64 11.60L41.31 5.66L35.82 3.99L31.67 8.26L33.01 14.19L38.50 15.86ZM33.01 14.19L31.67 8.26L26.19 6.59L22.05 10.85L23.39 16.78L28.87 18.45ZM45.45 1.40L44.12 -4.54L38.63 -6.21L34.48 -1.94L35.82 3.99L41.31 5.66ZM35.82 3.99L34.48 -1.94L29.00 -3.61L24.85 0.66L26.19 6.59L31.67 8.26ZM49.46 19.20L48.13 13.27L42.64 11.60L38.50 15.86L39.83 21.79L45.32 23.46ZM39.83 21.79L38.50 15.86L33.01 14.19L28.87 18.45L30.21 24.38L35.69 26.05ZM52.28 9.00L50.94 3.07L45.45 1.40L41.31 5.66L42.64 11.60L48.13 13.27ZM90.86 -1.34L89.52 -7.28L84.03 -8.96L79.87 -4.70L81.21 1.24L86.70 2.92ZM81.21 1.24L79.87 -4.70L74.38 -6.37L70.22 -2.11L71.56 3.83L77.05 5.50ZM153.30 95.28L151.98 89.35L146.50 87.66L142.34 91.90L143.66 97.83L149.14 99.52ZM143.66 97.83L142.34 91.90L136.86 90.21L132.70 94.45L134.02 100.38L139.50 102.07ZM156.15 85.11L154.83 79.17L149.35 77.48L145.18 81.72L146.50 87.66L151.98 89.35ZM146.50 87.66L145.18 81.72L139.70 80.03L135.53 84.27L136.86 90.21L142.34 91.90ZM160.10 102.91L158.79 96.98L153.30 95.28L149.14 99.52L150.46 105.46L155.94 107.15ZM150.46 105.46L149.14 99.52L143.66 97.83L139.50 102.07L140.82 108.00L146.30 109.70ZM162.95 92.74L161.64 86.80L156.15 85.11L151.98 89.35L153.30 95.28L158.79 96.98ZM127.22 92.76L125.89 86.83L120.41 85.14L116.25 89.38L117.58 95.31L123.06 97.00ZM117.58 95.31L116.25 89.38L110.77 87.70L106.62 91.94L107.95 97.87L113.42 99.56ZM130.05 82.58L128.73 76.65L123.25 74.96L119.09 79.21L120.41 85.14L125.89 86.83ZM120.41 85.14L119.09 79.21L113.61 77.52L109.45 81.77L110.77 87.70L116.25 89.38ZM134.02 100.38L132.70 94.45L127.22 92.76L123.06 97.00L124.38 102.93L129.86 104.62ZM124.38 102.93L123.06 97.00L117.58 95.31L113.42 99.56L114.75 105.48L120.23 107.17ZM136.86 90.21L135.53 84.27L130.05 82.58L125.89 86.83L127.22 92.76L132.70 94.45ZM168.66 72.38L167.34 66.44L161.85 64.74L157.68 68.99L159.00 74.93L164.49 76.62ZM159.00 74.93L157.68 68.99L152.19 67.30L148.03 71.54L149.35 77.48L154.83 79.17ZM171.51 62.19L170.19 56.25L164.70 54.56L160.53 58.80L161.85 64.74L167.34 66.44ZM161.85 64.74L160.53 58.80L155.04 57.11L150.87 61.36L152.19 67.30L157.68 68.99ZM175.46 80.02L174.14 74.08L168.66 72.38L164.49 76.62L165.80 82.56L171.29 84.26ZM165.80 82.56L164.49 76.62L159.00 74.93L154.83 79.17L156.15 85.11L161.64 86.80ZM178.32 69.83L177.00 63.89L171.51 62.19L167.34 66.44L168.66 72.38L174.14 74.08ZM142.54 69.85L141.22 63.91L135.73 62.22L131.57 66.47L132.89 72.40L138.38 74.09ZM132.89 72.40L131.57 66.47L126.08 64.78L121.92 69.03L123.25 74.96L128.73 76.65ZM145.38 59.66L144.06 53.73L138.57 52.03L134.41 56.28L135.73 62.22L141.22 63.91ZM135.73 62.22L134.41 56.28L128.92 54.59L124.76 58.84L126.08 64.78L131.57 66.47ZM149.35 77.48L148.03 71.54L142.54 69.85L138.38 74.09L139.70 80.03L145.18 81.72ZM139.70 80.03L138.38 74.09L132.89 72.40L128.73 76.65L130.05 82.58L135.53 84.27ZM152.19 67.30L150.87 61.36L145.38 59.66L141.22 63.91L142.54 69.85L148.03 71.54ZM164.06 120.71L162.74 114.78L157.26 113.09L153.10 117.32L154.41 123.25L159.89 124.95ZM154.41 123.25L153.10 117.32L147.62 115.63L143.46 119.86L144.78 125.79L150.25 127.49ZM166.90 110.54L165.59 104.61L160.10 102.91L155.94 107.15L157.26 113.09L162.74 114.78ZM157.26 113.09L155.94 107.15L150.46 105.46L146.30 109.70L147.62 115.63L153.10 117.32ZM170.85 128.34L169.54 122.41L164.06 120.71L159.89 124.95L161.21 130.88L166.69 132.58ZM161.21 130.88L159.89 124.95L154.41 123.25L150.25 127.49L151.57 133.42L157.05 135.11ZM173.70 118.18L172.39 112.24L166.90 110.54L162.74 114.78L164.06 120.71L169.54 122.41ZM137.98 118.17L136.66 112.24L131.18 110.55L127.02 114.79L128.35 120.72L133.82 122.41ZM128.35 120.72L127.02 114.79L121.55 113.10L117.39 117.34L118.72 123.27L124.19 124.96ZM140.82 108.00L139.50 102.07L134.02 100.38L129.86 104.62L131.18 110.55L136.66 112.24ZM131.18 110.55L129.86 104.62L124.38 102.93L120.23 107.17L121.55 113.10L127.02 114.79ZM144.78 125.79L143.46 119.86L137.98 118.17L133.82 122.41L135.14 128.34L140.62 130.03ZM135.14 128.34L133.82 122.41L128.35 120.72L124.19 124.96L125.51 130.88L130.99 132.57ZM147.62 115.63L146.30 109.70L140.82 108.00L136.66 112.24L137.98 118.17L143.46 119.86ZM179.41 97.83L178.09 91.89L172.61 90.20L168.44 94.44L169.75 100.37L175.24 102.07ZM169.75 100.37L168.44 94.44L162.95 92.74L158.79 96.98L160.10 102.91L165.59 104.61ZM182.26 87.65L180.95 81.72L175.46 80.02L171.29 84.26L172.61 90.20L178.09 91.89ZM172.61 90.20L171.29 84.26L165.80 82.56L161.64 86.80L162.95 92.74L168.44 94.44ZM186.21 105.47L184.89 99.53L179.41 97.83L175.24 102.07L176.55 108.01L182.04 109.71ZM176.55 108.01L175.24 102.07L169.75 100.37L165.59 104.61L166.90 110.54L172.39 112.24ZM189.07 95.29L187.75 89.35L182.26 87.65L178.09 91.89L179.41 97.83L184.89 99.53ZM85.87 113.16L84.55 107.23L79.07 105.55L74.93 109.79L76.26 115.72L81.73 117.40ZM76.26 115.72L74.93 109.79L69.46 108.11L65.31 112.36L66.64 118.28L72.11 119.96ZM88.69 102.99L87.36 97.06L81.89 95.38L77.74 99.63L79.07 105.55L84.55 107.23ZM79.07 105.55L77.74 99.63L72.27 97.95L68.13 102.19L69.46 108.11L74.93 109.79ZM92.67 120.76L91.35 114.84L85.87 113.16L81.73 117.40L83.06 123.32L88.53 125.00ZM83.06 123.32L81.73 117.40L76.26 115.72L72.11 119.96L73.44 125.88L78.91 127.56ZM95.49 110.60L94.17 104.67L88.69 102.99L84.55 107.23L85.87 113.16L91.35 114.84ZM59.84 110.68L58.51 104.76L53.04 103.08L48.90 107.33L50.23 113.25L55.70 114.92ZM50.23 113.25L48.90 107.33L43.43 105.65L39.30 109.90L40.63 115.82L46.10 117.49ZM62.65 100.51L61.32 94.59L55.85 92.92L51.71 97.16L53.04 103.08L58.51 104.76ZM53.04 103.08L51.71 97.16L46.24 95.49L42.10 99.73L43.43 105.65L48.90 107.33ZM66.64 118.28L65.31 112.36L59.84 110.68L55.70 114.92L57.03 120.84L62.50 122.52ZM57.03 120.84L55.70 114.92L50.23 113.25L46.10 117.49L47.43 123.41L52.90 125.09ZM69.46 108.11L68.13 102.19L62.65 100.51L58.51 104.76L59.84 110.68L65.31 112.36ZM101.14 90.26L99.82 84.33L94.34 82.64L90.19 86.89L91.51 92.82L96.99 94.50ZM91.51 92.82L90.19 86.89L84.71 85.21L80.56 89.46L81.89 95.38L87.36 97.06ZM103.97 80.08L102.64 74.15L97.16 72.47L93.01 76.71L94.34 82.64L99.82 84.33ZM94.34 82.64L93.01 76.71L87.53 75.03L83.38 79.28L84.71 85.21L90.19 86.89ZM107.95 97.87L106.62 91.94L101.14 90.26L96.99 94.50L98.32 100.43L103.79 102.11ZM98.32 100.43L96.99 94.50L91.51 92.82L87.36 97.06L88.69 102.99L94.17 104.67ZM110.77 87.70L109.45 81.77L103.97 80.08L99.82 84.33L101.14 90.26L106.62 91.94ZM75.08 87.78L73.75 81.85L68.28 80.17L64.13 84.42L65.46 90.34L70.94 92.02ZM65.46 90.34L64.13 84.42L58.66 82.74L54.52 86.99L55.85 92.92L61.32 94.59ZM77.90 77.60L76.57 71.67L71.09 69.99L66.95 74.24L68.28 80.17L73.75 81.85ZM68.28 80.17L66.95 74.24L61.47 72.57L57.33 76.82L58.66 82.74L64.13 84.42ZM81.89 95.38L80.56 89.46L75.08 87.78L70.94 92.02L72.27 97.95L77.74 99.63ZM72.27 97.95L70.94 92.02L65.46 90.34L61.32 94.59L62.65 100.51L68.13 102.19ZM84.71 85.21L83.38 79.28L77.90 77.60L73.75 81.85L75.08 87.78L80.56 89.46ZM96.65 138.53L95.32 132.61L89.85 130.92L85.71 135.16L87.04 141.08L92.50 142.76ZM87.04 141.08L85.71 135.16L80.24 133.48L76.10 137.72L77.43 143.64L82.89 145.32ZM99.47 128.37L98.14 122.45L92.67 120.76L88.53 125.00L89.85 130.92L95.32 132.61ZM89.85 130.92L88.53 125.00L83.06 123.32L78.91 127.56L80.24 133.48L85.71 135.16ZM103.44 146.13L102.12 140.21L96.65 138.53L92.50 142.76L93.83 148.68L99.30 150.37ZM93.83 148.68L92.50 142.76L87.04 141.08L82.89 145.32L84.22 151.24L89.69 152.92ZM106.27 135.98L104.94 130.05L99.47 128.37L95.32 132.61L96.65 138.53L102.12 140.21ZM70.63 136.04L69.30 130.12L63.83 128.44L59.70 132.68L61.03 138.60L66.49 140.28ZM61.03 138.60L59.70 132.68L54.23 131.00L50.09 135.24L51.42 141.16L56.89 142.84ZM73.44 125.88L72.11 119.96L66.64 118.28L62.50 122.52L63.83 128.44L69.30 130.12ZM63.83 128.44L62.50 122.52L57.03 120.84L52.90 125.09L54.23 131.00L59.70 132.68ZM77.43 143.64L76.10 137.72L70.63 136.04L66.49 140.28L67.82 146.19L73.29 147.87ZM67.82 146.19L66.49 140.28L61.03 138.60L56.89 142.84L58.22 148.75L63.68 150.43ZM80.24 133.48L78.91 127.56L73.44 125.88L69.30 130.12L70.63 136.04L76.10 137.72ZM111.92 115.65L110.59 109.73L105.12 108.04L100.97 112.28L102.29 118.21L107.77 119.89ZM102.29 118.21L100.97 112.28L95.49 110.60L91.35 114.84L92.67 120.76L98.14 122.45ZM114.75 105.48L113.42 99.56L107.95 97.87L103.79 102.11L105.12 108.04L110.59 109.73ZM105.12 108.04L103.79 102.11L98.32 100.43L94.17 104.67L95.49 110.60L100.97 112.28ZM118.72 123.27L117.39 117.34L111.92 115.65L107.77 119.89L109.09 125.82L114.56 127.50ZM109.09 125.82L107.77 119.89L102.29 118.21L98.14 122.45L99.47 128.37L104.94 130.05ZM121.55 113.10L120.23 107.17L114.75 105.48L110.59 109.73L111.92 115.65L117.39 117.34ZM173.27 23.97L171.95 18.03L166.45 16.33L162.28 20.59L163.60 26.53L169.09 28.23ZM163.60 26.53L162.28 20.59L156.78 18.89L152.61 23.15L153.93 29.09L159.42 30.78ZM176.13 13.77L174.81 7.82L169.31 6.13L165.13 10.38L166.45 16.33L171.95 18.03ZM166.45 16.33L165.13 10.38L159.64 8.69L155.46 12.95L156.78 18.89L162.28 20.59ZM180.08 31.62L178.77 25.67L173.27 23.97L169.09 28.23L170.41 34.17L175.91 35.87ZM170.41 34.17L169.09 28.23L163.60 26.53L159.42 30.78L160.74 36.73L166.24 38.42ZM182.95 21.42L181.63 15.47L176.13 13.77L171.95 18.03L173.27 23.97L178.77 25.67ZM147.11 21.45L145.79 15.51L140.30 13.82L136.13 18.07L137.45 24.02L142.94 25.71ZM137.45 24.02L136.13 18.07L130.63 16.39L126.46 20.64L127.79 26.58L133.28 28.27ZM149.96 11.25L148.64 5.31L143.14 3.62L138.97 7.87L140.30 13.82L145.79 15.51ZM140.30 13.82L138.97 7.87L133.48 6.19L129.31 10.44L130.63 16.39L136.13 18.07ZM153.93 29.09L152.61 23.15L147.11 21.45L142.94 25.71L144.26 31.65L149.76 33.34ZM144.26 31.65L142.94 25.71L137.45 24.02L133.28 28.27L134.60 34.21L140.10 35.90ZM156.78 18.89L155.46 12.95L149.96 11.25L145.79 15.51L147.11 21.45L152.61 23.15ZM188.67 1.01L187.36 -4.94L181.85 -6.64L177.67 -2.38L178.99 3.57L184.49 5.27ZM178.99 3.57L177.67 -2.38L172.17 -4.08L167.99 0.18L169.31 6.13L174.81 7.82ZM195.49 8.66L194.18 2.71L188.67 1.01L184.49 5.27L185.81 11.22L191.31 12.92ZM185.81 11.22L184.49 5.27L178.99 3.57L174.81 7.82L176.13 13.77L181.63 15.47ZM198.36 -1.54L197.05 -7.50L191.54 -9.20L187.36 -4.94L188.67 1.01L194.18 2.71ZM162.49 -1.51L161.17 -7.47L155.67 -9.16L151.49 -4.90L152.82 1.05L158.31 2.74ZM152.82 1.05L151.49 -4.90L145.99 -6.59L141.82 -2.33L143.14 3.62L148.64 5.31ZM169.31 6.13L167.99 0.18L162.49 -1.51L158.31 2.74L159.64 8.69L165.13 10.38ZM159.64 8.69L158.31 2.74L152.82 1.05L148.64 5.31L149.96 11.25L155.46 12.95ZM172.17 -4.08L170.85 -10.03L165.35 -11.72L161.17 -7.47L162.49 -1.51L167.99 0.18ZM184.03 49.46L182.72 43.51L177.22 41.81L173.05 46.06L174.37 52.01L179.86 53.70ZM174.37 52.01L173.05 46.06L167.56 44.37L163.38 48.61L164.70 54.56L170.19 56.25ZM186.90 39.26L185.58 33.32L180.08 31.62L175.91 35.87L177.22 41.81L182.72 43.51ZM177.22 41.81L175.91 35.87L170.41 34.17L166.24 38.42L167.56 44.37L173.05 46.06ZM190.84 57.10L189.53 51.16L184.03 49.46L179.86 53.70L181.17 59.65L186.67 61.35ZM181.17 59.65L179.86 53.70L174.37 52.01L170.19 56.25L171.51 62.19L177.00 63.89ZM193.71 46.91L192.39 40.96L186.90 39.26L182.72 43.51L184.03 49.46L189.53 51.16ZM157.89 46.92L156.57 40.98L151.08 39.29L146.91 43.54L148.23 49.48L153.72 51.17ZM148.23 49.48L146.91 43.54L141.42 41.84L137.25 46.10L138.57 52.03L144.06 53.73ZM160.74 36.73L159.42 30.78L153.93 29.09L149.76 33.34L151.08 39.29L156.57 40.98ZM151.08 39.29L149.76 33.34L144.26 31.65L140.10 35.90L141.42 41.84L146.91 43.54ZM164.70 54.56L163.38 48.61L157.89 46.92L153.72 51.17L155.04 57.11L160.53 58.80ZM155.04 57.11L153.72 51.17L148.23 49.48L144.06 53.73L145.38 59.66L150.87 61.36ZM167.56 44.37L166.24 38.42L160.74 36.73L156.57 40.98L157.89 46.92L163.38 48.61ZM199.44 26.52L198.12 20.57L192.63 18.87L188.44 23.12L189.76 29.07L195.26 30.77ZM189.76 29.07L188.44 23.12L182.95 21.42L178.77 25.67L180.08 31.62L185.58 33.32ZM202.31 16.32L200.99 10.36L195.49 8.66L191.31 12.92L192.63 18.87L198.12 20.57ZM192.63 18.87L191.31 12.92L185.81 11.22L181.63 15.47L182.95 21.42L188.44 23.12ZM206.25 34.17L204.94 28.22L199.44 26.52L195.26 30.77L196.57 36.72L202.07 38.42ZM196.57 36.72L195.26 30.77L189.76 29.07L185.58 33.32L186.90 39.26L192.39 40.96ZM209.12 23.97L207.81 18.02L202.31 16.32L198.12 20.57L199.44 26.52L204.94 28.22ZM105.65 41.91L104.32 35.98L98.83 34.29L94.68 38.55L96.01 44.48L101.49 46.17ZM96.01 44.48L94.68 38.55L89.19 36.87L85.04 41.12L86.37 47.06L91.85 48.74ZM108.48 31.72L107.15 25.78L101.67 24.10L97.51 28.36L98.83 34.29L104.32 35.98ZM98.83 34.29L97.51 28.36L92.02 26.68L87.86 30.93L89.19 36.87L94.68 38.55ZM112.46 49.53L111.14 43.60L105.65 41.91L101.49 46.17L102.82 52.10L108.30 53.79ZM102.82 52.10L101.49 46.17L96.01 44.48L91.85 48.74L93.18 54.67L98.66 56.35ZM115.30 39.35L113.97 33.41L108.48 31.72L104.32 35.98L105.65 41.91L111.14 43.60ZM79.55 39.44L78.22 33.51L72.74 31.83L68.58 36.09L69.92 42.02L75.40 43.70ZM69.92 42.02L68.58 36.09L63.10 34.41L58.95 38.67L60.29 44.60L65.77 46.28ZM82.37 29.25L81.04 23.32L75.56 21.64L71.40 25.90L72.74 31.83L78.22 33.51ZM72.74 31.83L71.40 25.90L65.92 24.22L61.77 28.48L63.10 34.41L68.58 36.09ZM86.37 47.06L85.04 41.12L79.55 39.44L75.40 43.70L76.73 49.63L82.21 51.31ZM76.73 49.63L75.40 43.70L69.92 42.02L65.77 46.28L67.10 52.21L72.58 53.88ZM89.19 36.87L87.86 30.93L82.37 29.25L78.22 33.51L79.55 39.44L85.04 41.12ZM120.97 18.96L119.65 13.01L114.15 11.33L109.99 15.59L111.32 21.53L116.81 23.21ZM111.32 21.53L109.99 15.59L104.50 13.90L100.34 18.16L101.67 24.10L107.15 25.78ZM123.81 8.76L122.49 2.81L116.99 1.13L112.83 5.39L114.15 11.33L119.65 13.01ZM114.15 11.33L112.83 5.39L107.33 3.70L103.17 7.96L104.50 13.90L109.99 15.59ZM127.79 26.58L126.46 20.64L120.97 18.96L116.81 23.21L118.13 29.15L123.62 30.84ZM118.13 29.15L116.81 23.21L111.32 21.53L107.15 25.78L108.48 31.72L113.97 33.41ZM130.63 16.39L129.31 10.44L123.81 8.76L119.65 13.01L120.97 18.96L126.46 20.64ZM94.85 16.48L93.52 10.54L88.03 8.86L83.87 13.12L85.20 19.06L90.69 20.74ZM85.20 19.06L83.87 13.12L78.38 11.44L74.22 15.70L75.56 21.64L81.04 23.32ZM97.68 6.28L96.35 0.34L90.86 -1.34L86.70 2.92L88.03 8.86L93.52 10.54ZM88.03 8.86L86.70 2.92L81.21 1.24L77.05 5.50L78.38 11.44L83.87 13.12ZM101.67 24.10L100.34 18.16L94.85 16.48L90.69 20.74L92.02 26.68L97.51 28.36ZM92.02 26.68L90.69 20.74L85.20 19.06L81.04 23.32L82.37 29.25L87.86 30.93ZM104.50 13.90L103.17 7.96L97.68 6.28L93.52 10.54L94.85 16.48L100.34 18.16ZM116.44 67.34L115.11 61.41L109.63 59.72L105.47 63.97L106.80 69.90L112.28 71.59ZM106.80 69.90L105.47 63.97L99.99 62.29L95.83 66.54L97.16 72.47L102.64 74.15ZM119.27 57.16L117.95 51.22L112.46 49.53L108.30 53.79L109.63 59.72L115.11 61.41ZM109.63 59.72L108.30 53.79L102.82 52.10L98.66 56.35L99.99 62.29L105.47 63.97ZM123.25 74.96L121.92 69.03L116.44 67.34L112.28 71.59L113.61 77.52L119.09 79.21ZM113.61 77.52L112.28 71.59L106.80 69.90L102.64 74.15L103.97 80.08L109.45 81.77ZM126.08 64.78L124.76 58.84L119.27 57.16L115.11 61.41L116.44 67.34L121.92 69.03ZM90.35 64.85L89.02 58.92L83.54 57.24L79.39 61.49L80.72 67.42L86.20 69.10ZM80.72 67.42L79.39 61.49L73.91 59.81L69.76 64.07L71.09 69.99L76.57 71.67ZM93.18 54.67L91.85 48.74L86.37 47.06L82.21 51.31L83.54 57.24L89.02 58.92ZM83.54 57.24L82.21 51.31L76.73 49.63L72.58 53.88L73.91 59.81L79.39 61.49ZM97.16 72.47L95.83 66.54L90.35 64.85L86.20 69.10L87.53 75.03L93.01 76.71ZM87.53 75.03L86.20 69.10L80.72 67.42L76.57 71.67L77.90 77.60L83.38 79.28ZM99.99 62.29L98.66 56.35L93.18 54.67L89.02 58.92L90.35 64.85L95.83 66.54ZM131.76 44.41L130.44 38.47L124.95 36.78L120.79 41.03L122.11 46.97L127.60 48.66ZM122.11 46.97L120.79 41.03L115.30 39.35L111.14 43.60L112.46 49.53L117.95 51.22ZM134.60 34.21L133.28 28.27L127.79 26.58L123.62 30.84L124.95 36.78L130.44 38.47ZM124.95 36.78L123.62 30.84L118.13 29.15L113.97 33.41L115.30 39.35L120.79 41.03ZM138.57 52.03L137.25 46.10L131.76 44.41L127.60 48.66L128.92 54.59L134.41 56.28ZM128.92 54.59L127.60 48.66L122.11 46.97L117.95 51.22L119.27 57.16L124.76 58.84ZM141.42 41.84L140.10 35.90L134.60 34.21L130.44 38.47L131.76 44.41L137.25 46.10ZM200.87 148.72L199.56 142.78L194.08 141.08L189.92 145.31L191.23 151.24L196.71 152.94ZM191.23 151.24L189.92 145.31L184.44 143.61L180.27 147.84L181.58 153.77L187.06 155.47ZM203.73 138.55L202.42 132.62L196.94 130.91L192.77 135.15L194.08 141.08L199.56 142.78ZM194.08 141.08L192.77 135.15L187.29 133.44L183.12 137.67L184.44 143.61L189.92 145.31ZM207.66 156.35L206.35 150.42L200.87 148.72L196.71 152.94L198.02 158.87L203.49 160.58ZM198.02 158.87L196.71 152.94L191.23 151.24L187.06 155.47L188.37 161.40L193.85 163.10ZM210.52 146.19L209.21 140.26L203.73 138.55L199.56 142.78L200.87 148.72L206.35 150.42ZM174.79 146.14L173.48 140.21L168.00 138.51L163.84 142.74L165.16 148.67L170.63 150.37ZM165.16 148.67L163.84 142.74L158.36 141.04L154.21 145.27L155.52 151.20L161.00 152.90ZM177.64 135.97L176.33 130.04L170.85 128.34L166.69 132.58L168.00 138.51L173.48 140.21ZM168.00 138.51L166.69 132.58L161.21 130.88L157.05 135.11L158.36 141.04L163.84 142.74ZM181.58 153.77L180.27 147.84L174.79 146.14L170.63 150.37L171.95 156.29L177.42 157.99ZM171.95 156.29L170.63 150.37L165.16 148.67L161.00 152.90L162.31 158.82L167.79 160.52ZM184.44 143.61L183.12 137.67L177.64 135.97L173.48 140.21L174.79 146.14L180.27 147.84ZM216.25 125.86L214.94 119.93L209.46 118.22L205.28 122.45L206.60 128.39L212.08 130.09ZM206.60 128.39L205.28 122.45L199.80 120.75L195.63 124.98L196.94 130.91L202.42 132.62ZM219.12 115.69L217.81 109.75L212.32 108.05L208.15 112.28L209.46 118.22L214.94 119.93ZM209.46 118.22L208.15 112.28L202.66 110.58L198.49 114.81L199.80 120.75L205.28 122.45ZM223.05 133.51L221.74 127.57L216.25 125.86L212.08 130.09L213.39 136.03L218.87 137.74ZM213.39 136.03L212.08 130.09L206.60 128.39L202.42 132.62L203.73 138.55L209.21 140.26ZM225.92 123.34L224.61 117.40L219.12 115.69L214.94 119.93L216.25 125.86L221.74 127.57ZM190.15 123.28L188.83 117.34L183.35 115.64L179.18 119.88L180.50 125.81L185.98 127.51ZM180.50 125.81L179.18 119.88L173.70 118.18L169.54 122.41L170.85 128.34L176.33 130.04ZM193.00 113.11L191.69 107.17L186.21 105.47L182.04 109.71L183.35 115.64L188.83 117.34ZM183.35 115.64L182.04 109.71L176.55 108.01L172.39 112.24L173.70 118.18L179.18 119.88ZM196.94 130.91L195.63 124.98L190.15 123.28L185.98 127.51L187.29 133.44L192.77 135.15ZM187.29 133.44L185.98 127.51L180.50 125.81L176.33 130.04L177.64 135.97L183.12 137.67ZM199.80 120.75L198.49 114.81L193.00 113.11L188.83 117.34L190.15 123.28L195.63 124.98ZM211.59 174.15L210.28 168.22L204.80 166.51L200.64 170.73L201.94 176.66L207.42 178.37ZM201.94 176.66L200.64 170.73L195.16 169.03L191.00 173.25L192.31 179.18L197.78 180.88ZM214.45 163.99L213.14 158.06L207.66 156.35L203.49 160.58L204.80 166.51L210.28 168.22ZM204.80 166.51L203.49 160.58L198.02 158.87L193.85 163.10L195.16 169.03L200.64 170.73ZM218.37 181.78L217.06 175.85L211.59 174.15L207.42 178.37L208.73 184.30L214.20 186.00ZM208.73 184.30L207.42 178.37L201.94 176.66L197.78 180.88L199.09 186.81L204.56 188.52ZM221.23 171.63L219.93 165.70L214.45 163.99L210.28 168.22L211.59 174.15L217.06 175.85ZM185.52 171.55L184.21 165.62L178.73 163.92L174.57 168.15L175.89 174.07L181.36 175.77ZM175.89 174.07L174.57 168.15L169.10 166.45L164.94 170.67L166.26 176.60L171.73 178.30ZM188.37 161.40L187.06 155.47L181.58 153.77L177.42 157.99L178.73 163.92L184.21 165.62ZM178.73 163.92L177.42 157.99L171.95 156.29L167.79 160.52L169.10 166.45L174.57 168.15ZM192.31 179.18L191.00 173.25L185.52 171.55L181.36 175.77L182.67 181.70L188.14 183.40ZM182.67 181.70L181.36 175.77L175.89 174.07L171.73 178.30L173.04 184.22L178.51 185.92ZM195.16 169.03L193.85 163.10L188.37 161.40L184.21 165.62L185.52 171.55L191.00 173.25ZM226.97 151.32L225.66 145.38L220.18 143.67L216.01 147.90L217.31 153.83L222.79 155.54ZM217.31 153.83L216.01 147.90L210.52 146.19L206.35 150.42L207.66 156.35L213.14 158.06ZM229.84 141.16L228.53 135.22L223.05 133.51L218.87 137.74L220.18 143.67L225.66 145.38ZM220.18 143.67L218.87 137.74L213.39 136.03L209.21 140.26L210.52 146.19L216.01 147.90ZM233.76 158.96L232.45 153.03L226.97 151.32L222.79 155.54L224.10 161.48L229.58 163.19ZM224.10 161.48L222.79 155.54L217.31 153.83L213.14 158.06L214.45 163.99L219.93 165.70ZM236.63 148.80L235.32 142.87L229.84 141.16L225.66 145.38L226.97 151.32L232.45 153.03ZM133.43 166.42L132.11 160.50L126.64 158.81L122.49 163.04L123.81 168.96L129.28 170.65ZM123.81 168.96L122.49 163.04L117.03 161.35L112.88 165.58L114.20 171.50L119.67 173.19ZM136.27 156.27L134.95 150.35L129.47 148.66L125.32 152.89L126.64 158.81L132.11 160.50ZM126.64 158.81L125.32 152.89L119.85 151.20L115.70 155.43L117.03 161.35L122.49 163.04ZM140.22 174.04L138.90 168.12L133.43 166.42L129.28 170.65L130.60 176.57L136.07 178.27ZM130.60 176.57L129.28 170.65L123.81 168.96L119.67 173.19L120.99 179.11L126.45 180.80ZM143.06 163.89L141.74 157.96L136.27 156.27L132.11 160.50L133.43 166.42L138.90 168.12ZM107.41 163.89L106.09 157.98L100.62 156.29L96.48 160.52L97.80 166.44L103.27 168.13ZM97.80 166.44L96.48 160.52L91.01 158.84L86.87 163.07L88.20 168.99L93.66 170.67ZM110.23 153.74L108.91 147.82L103.44 146.13L99.30 150.37L100.62 156.29L106.09 157.98ZM100.62 156.29L99.30 150.37L93.83 148.68L89.69 152.92L91.01 158.84L96.48 160.52ZM114.20 171.50L112.88 165.58L107.41 163.89L103.27 168.13L104.59 174.04L110.06 175.73ZM104.59 174.04L103.27 168.13L97.80 166.44L93.66 170.67L94.98 176.59L100.45 178.27ZM117.03 161.35L115.70 155.43L110.23 153.74L106.09 157.98L107.41 163.89L112.88 165.58ZM148.73 143.58L147.41 137.65L141.94 135.96L137.78 140.19L139.10 146.12L144.57 147.81ZM139.10 146.12L137.78 140.19L132.31 138.50L128.15 142.73L129.47 148.66L134.95 150.35ZM151.57 133.42L150.25 127.49L144.78 125.79L140.62 130.03L141.94 135.96L147.41 137.65ZM141.94 135.96L140.62 130.03L135.14 128.34L130.99 132.57L132.31 138.50L137.78 140.19ZM155.52 151.20L154.21 145.27L148.73 143.58L144.57 147.81L145.89 153.73L151.36 155.43ZM145.89 153.73L144.57 147.81L139.10 146.12L134.95 150.35L136.27 156.27L141.74 157.96ZM158.36 141.04L157.05 135.11L151.57 133.42L147.41 137.65L148.73 143.58L154.21 145.27ZM122.68 141.04L121.36 135.12L115.89 133.43L111.74 137.66L113.06 143.59L118.53 145.28ZM113.06 143.59L111.74 137.66L106.27 135.98L102.12 140.21L103.44 146.13L108.91 147.82ZM125.51 130.88L124.19 124.96L118.72 123.27L114.56 127.50L115.89 133.43L121.36 135.12ZM115.89 133.43L114.56 127.50L109.09 125.82L104.94 130.05L106.27 135.98L111.74 137.66ZM129.47 148.66L128.15 142.73L122.68 141.04L118.53 145.28L119.85 151.20L125.32 152.89ZM119.85 151.20L118.53 145.28L113.06 143.59L108.91 147.82L110.23 153.74L115.70 155.43ZM132.31 138.50L130.99 132.57L125.51 130.88L121.36 135.12L122.68 141.04L128.15 142.73ZM144.17 191.80L142.85 185.88L137.39 184.19L133.24 188.41L134.56 194.33L140.02 196.02ZM134.56 194.33L133.24 188.41L127.77 186.72L123.63 190.94L124.95 196.86L130.41 198.55ZM147.01 181.65L145.69 175.73L140.22 174.04L136.07 178.27L137.39 184.19L142.85 185.88ZM137.39 184.19L136.07 178.27L130.60 176.57L126.45 180.80L127.77 186.72L133.24 188.41ZM150.95 199.41L149.64 193.50L144.17 191.80L140.02 196.02L141.34 201.94L146.80 203.64ZM141.34 201.94L140.02 196.02L134.56 194.33L130.41 198.55L131.73 204.47L137.19 206.16ZM153.79 189.27L152.47 183.35L147.01 181.65L142.85 185.88L144.17 191.80L149.64 193.50ZM118.16 189.25L116.84 183.34L111.38 181.65L107.23 185.87L108.56 191.79L114.02 193.48ZM108.56 191.79L107.23 185.87L101.77 184.19L97.63 188.41L98.95 194.33L104.41 196.02ZM120.99 179.11L119.67 173.19L114.20 171.50L110.06 175.73L111.38 181.65L116.84 183.34ZM111.38 181.65L110.06 175.73L104.59 174.04L100.45 178.27L101.77 184.19L107.23 185.87ZM124.95 196.86L123.63 190.94L118.16 189.25L114.02 193.48L115.34 199.39L120.80 201.08ZM115.34 199.39L114.02 193.48L108.56 191.79L104.41 196.02L105.74 201.93L111.20 203.62ZM127.77 186.72L126.45 180.80L120.99 179.11L116.84 183.34L118.16 189.25L123.63 190.94ZM159.47 168.98L158.15 163.05L152.68 161.35L148.53 165.58L149.84 171.51L155.31 173.20ZM149.84 171.51L148.53 165.58L143.06 163.89L138.90 168.12L140.22 174.04L145.69 175.73ZM162.31 158.82L161.00 152.90L155.52 151.20L151.36 155.43L152.68 161.35L158.15 163.05ZM152.68 161.35L151.36 155.43L145.89 153.73L141.74 157.96L143.06 163.89L148.53 165.58ZM166.26 176.60L164.94 170.67L159.47 168.98L155.31 173.20L156.63 179.13L162.10 180.82ZM156.63 179.13L155.31 173.20L149.84 171.51L145.69 175.73L147.01 181.65L152.47 183.35ZM169.10 166.45L167.79 160.52L162.31 158.82L158.15 163.05L159.47 168.98L164.94 170.67ZM220.93 77.51L219.62 71.56L214.13 69.86L209.95 74.10L211.26 80.04L216.75 81.75ZM211.26 80.04L209.95 74.10L204.46 72.39L200.28 76.64L201.59 82.58L207.08 84.28ZM223.81 67.32L222.50 61.38L217.00 59.67L212.82 63.91L214.13 69.86L219.62 71.56ZM214.13 69.86L212.82 63.91L207.32 62.21L203.14 66.45L204.46 72.39L209.95 74.10ZM227.74 85.16L226.43 79.22L220.93 77.51L216.75 81.75L218.06 87.69L223.55 89.40ZM218.06 87.69L216.75 81.75L211.26 80.04L207.08 84.28L208.39 90.22L213.88 91.93ZM230.61 74.98L229.30 69.03L223.81 67.32L219.62 71.56L220.93 77.51L226.43 79.22ZM194.79 74.93L193.47 68.99L187.98 67.29L183.81 71.53L185.12 77.47L190.61 79.17ZM185.12 77.47L183.81 71.53L178.32 69.83L174.14 74.08L175.46 80.02L180.95 81.72ZM197.65 64.75L196.34 58.80L190.84 57.10L186.67 61.35L187.98 67.29L193.47 68.99ZM187.98 67.29L186.67 61.35L181.17 59.65L177.00 63.89L178.32 69.83L183.81 71.53ZM201.59 82.58L200.28 76.64L194.79 74.93L190.61 79.17L191.92 85.12L197.41 86.82ZM191.92 85.12L190.61 79.17L185.12 77.47L180.95 81.72L182.26 87.65L187.75 89.35ZM204.46 72.39L203.14 66.45L197.65 64.75L193.47 68.99L194.79 74.93L200.28 76.64ZM236.37 54.60L235.06 48.65L229.56 46.94L225.37 51.18L226.68 57.13L232.18 58.84ZM226.68 57.13L225.37 51.18L219.87 49.48L215.69 53.72L217.00 59.67L222.50 61.38ZM239.25 44.40L237.94 38.45L232.44 36.74L228.25 40.99L229.56 46.94L235.06 48.65ZM229.56 46.94L228.25 40.99L222.75 39.28L218.56 43.53L219.87 49.48L225.37 51.18ZM243.17 62.26L241.87 56.31L236.37 54.60L232.18 58.84L233.49 64.79L238.98 66.50ZM233.49 64.79L232.18 58.84L226.68 57.13L222.50 61.38L223.81 67.32L229.30 69.03ZM246.06 52.07L244.75 46.11L239.25 44.40L235.06 48.65L236.37 54.60L241.87 56.31ZM210.19 52.02L208.88 46.07L203.38 44.37L199.20 48.61L200.52 54.56L206.01 56.26ZM200.52 54.56L199.20 48.61L193.71 46.91L189.53 51.16L190.84 57.10L196.34 58.80ZM213.06 41.82L211.75 35.87L206.25 34.17L202.07 38.42L203.38 44.37L208.88 46.07ZM203.38 44.37L202.07 38.42L196.57 36.72L192.39 40.96L193.71 46.91L199.20 48.61ZM217.00 59.67L215.69 53.72L210.19 52.02L206.01 56.26L207.32 62.21L212.82 63.91ZM207.32 62.21L206.01 56.26L200.52 54.56L196.34 58.80L197.65 64.75L203.14 66.45ZM219.87 49.48L218.56 43.53L213.06 41.82L208.88 46.07L210.19 52.02L215.69 53.72ZM231.66 102.99L230.35 97.05L224.86 95.34L220.68 99.58L221.99 105.52L227.48 107.23ZM221.99 105.52L220.68 99.58L215.19 97.87L211.01 102.11L212.32 108.05L217.81 109.75ZM234.54 92.82L233.23 86.87L227.74 85.16L223.55 89.40L224.86 95.34L230.35 97.05ZM224.86 95.34L223.55 89.40L218.06 87.69L213.88 91.93L215.19 97.87L220.68 99.58ZM238.46 110.65L237.15 104.70L231.66 102.99L227.48 107.23L228.79 113.17L234.28 114.88ZM228.79 113.17L227.48 107.23L221.99 105.52L217.81 109.75L219.12 115.69L224.61 117.40ZM241.33 100.47L240.03 94.53L234.54 92.82L230.35 97.05L231.66 102.99L237.15 104.70ZM205.53 100.40L204.21 94.46L198.73 92.76L194.55 97.00L195.86 102.93L201.35 104.64ZM195.86 102.93L194.55 97.00L189.07 95.29L184.89 99.53L186.21 105.47L191.69 107.17ZM208.39 90.22L207.08 84.28L201.59 82.58L197.41 86.82L198.73 92.76L204.21 94.46ZM198.73 92.76L197.41 86.82L191.92 85.12L187.75 89.35L189.07 95.29L194.55 97.00ZM212.32 108.05L211.01 102.11L205.53 100.40L201.35 104.64L202.66 110.58L208.15 112.28ZM202.66 110.58L201.35 104.64L195.86 102.93L191.69 107.17L193.00 113.11L198.49 114.81ZM215.19 97.87L213.88 91.93L208.39 90.22L204.21 94.46L205.53 100.40L211.01 102.11ZM247.09 80.11L245.79 74.16L240.29 72.45L236.10 76.69L237.41 82.63L242.91 84.34ZM237.41 82.63L236.10 76.69L230.61 74.98L226.43 79.22L227.74 85.16L233.23 86.87ZM249.98 69.92L248.67 63.97L243.17 62.26L238.98 66.50L240.29 72.45L245.79 74.16ZM240.29 72.45L238.98 66.50L233.49 64.79L229.30 69.03L230.61 74.98L236.10 76.69ZM253.90 87.77L252.59 81.82L247.09 80.11L242.91 84.34L244.21 90.29L249.71 92.00ZM244.21 90.29L242.91 84.34L237.41 82.63L233.23 86.87L234.54 92.82L240.03 94.53ZM256.78 77.58L255.47 71.63L249.98 69.92L245.79 74.16L247.09 80.11L252.59 81.82ZM3.81 88.05L2.47 82.13L-3.00 80.47L-7.12 84.72L-5.78 90.64L-0.32 92.30ZM6.60 77.88L5.26 71.96L-0.21 70.29L-4.34 74.55L-3.00 80.47L2.47 82.13ZM0.12 4.19L-1.22 -1.73L-6.71 -3.40L-10.84 0.87L-9.50 6.80L-4.02 8.46ZM1.35 32.17L0.01 26.24L-5.47 24.58L-9.60 28.84L-8.26 34.77L-2.78 36.43ZM4.15 21.98L2.80 16.05L-2.68 14.39L-6.81 18.65L-5.47 24.58L0.01 26.24ZM8.17 39.76L6.83 33.83L1.35 32.17L-2.78 36.43L-1.44 42.35L4.03 44.02ZM10.97 29.57L9.63 23.64L4.15 21.98L0.01 26.24L1.35 32.17L6.83 33.83ZM16.56 9.19L15.22 3.26L9.74 1.59L5.60 5.86L6.94 11.79L12.42 13.45ZM6.94 11.79L5.60 5.86L0.12 4.19L-4.02 8.46L-2.68 14.39L2.80 16.05ZM19.37 -1.01L18.03 -6.94L12.54 -8.61L8.40 -4.34L9.74 1.59L15.22 3.26ZM9.74 1.59L8.40 -4.34L2.91 -6.00L-1.22 -1.73L0.12 4.19L5.60 5.86ZM23.39 16.78L22.05 10.85L16.56 9.19L12.42 13.45L13.76 19.38L19.24 21.05ZM13.76 19.38L12.42 13.45L6.94 11.79L2.80 16.05L4.15 21.98L9.63 23.64ZM26.19 6.59L24.85 0.66L19.37 -1.01L15.22 3.26L16.56 9.19L22.05 10.85ZM18.64 131.12L17.30 125.21L11.84 123.54L7.71 127.78L9.05 133.69L14.51 135.36ZM9.05 133.69L7.71 127.78L2.25 126.12L-1.87 130.36L-0.53 136.27L4.93 137.94ZM21.43 120.96L20.10 115.05L14.63 113.38L10.50 117.63L11.84 123.54L17.30 125.21ZM11.84 123.54L10.50 117.63L5.04 115.96L0.91 120.20L2.25 126.12L7.71 127.78ZM25.44 138.70L24.10 132.79L18.64 131.12L14.51 135.36L15.85 141.27L21.31 142.94ZM15.85 141.27L14.51 135.36L9.05 133.69L4.93 137.94L6.26 143.85L11.72 145.51ZM28.23 128.55L26.90 122.63L21.43 120.96L17.30 125.21L18.64 131.12L24.10 132.79ZM2.25 126.12L0.91 120.20L-4.55 118.54L-8.67 122.79L-7.33 128.70L-1.87 130.36ZM33.83 108.23L32.49 102.31L27.02 100.64L22.89 104.89L24.23 110.80L29.69 112.47ZM24.23 110.80L22.89 104.89L17.42 103.22L13.29 107.46L14.63 113.38L20.10 115.05ZM36.63 98.06L35.29 92.14L29.82 90.47L25.69 94.72L27.02 100.64L32.49 102.31ZM27.02 100.64L25.69 94.72L20.22 93.05L16.09 97.30L17.42 103.22L22.89 104.89ZM40.63 115.82L39.30 109.90L33.83 108.23L29.69 112.47L31.03 118.39L36.50 120.06ZM31.03 118.39L29.69 112.47L24.23 110.80L20.10 115.05L21.43 120.96L26.90 122.63ZM43.43 105.65L42.10 99.73L36.63 98.06L32.49 102.31L33.83 108.23L39.30 109.90ZM7.83 105.80L6.49 99.88L1.02 98.22L-3.10 102.47L-1.76 108.38L3.70 110.04ZM10.62 95.63L9.28 89.71L3.81 88.05L-0.32 92.30L1.02 98.22L6.49 99.88ZM1.02 98.22L-0.32 92.30L-5.78 90.64L-9.91 94.89L-8.57 100.80L-3.10 102.47ZM14.63 113.38L13.29 107.46L7.83 105.80L3.70 110.04L5.04 115.96L10.50 117.63ZM5.04 115.96L3.70 110.04L-1.76 108.38L-5.89 112.63L-4.55 118.54L0.91 120.20ZM17.42 103.22L16.09 97.30L10.62 95.63L6.49 99.88L7.83 105.80L13.29 107.46ZM29.44 156.44L28.11 150.53L22.65 148.85L18.52 153.09L19.85 159.00L25.31 160.67ZM19.85 159.00L18.52 153.09L13.06 151.42L8.94 155.66L10.27 161.57L15.73 163.24ZM32.23 146.29L30.90 140.38L25.44 138.70L21.31 142.94L22.65 148.85L28.11 150.53ZM22.65 148.85L21.31 142.94L15.85 141.27L11.72 145.51L13.06 151.42L18.52 153.09ZM36.23 164.02L34.90 158.11L29.44 156.44L25.31 160.67L26.65 166.58L32.10 168.26ZM26.65 166.58L25.31 160.67L19.85 159.00L15.73 163.24L17.07 169.15L22.52 170.82ZM39.03 153.87L37.70 147.96L32.23 146.29L28.11 150.53L29.44 156.44L34.90 158.11ZM3.48 154.00L2.14 148.09L-3.32 146.42L-7.44 150.66L-6.10 156.57L-0.64 158.23ZM6.26 143.85L4.93 137.94L-0.53 136.27L-4.65 140.51L-3.32 146.42L2.14 148.09ZM10.27 161.57L8.94 155.66L3.48 154.00L-0.64 158.23L0.70 164.14L6.15 165.81ZM0.70 164.14L-0.64 158.23L-6.10 156.57L-10.21 160.81L-8.88 166.71L-3.42 168.38ZM13.06 151.42L11.72 145.51L6.26 143.85L2.14 148.09L3.48 154.00L8.94 155.66ZM44.63 133.57L43.30 127.65L37.83 125.98L33.70 130.22L35.03 136.13L40.49 137.81ZM35.03 136.13L33.70 130.22L28.23 128.55L24.10 132.79L25.44 138.70L30.90 140.38ZM47.43 123.41L46.10 117.49L40.63 115.82L36.50 120.06L37.83 125.98L43.30 127.65ZM37.83 125.98L36.50 120.06L31.03 118.39L26.90 122.63L28.23 128.55L33.70 130.22ZM51.42 141.16L50.09 135.24L44.63 133.57L40.49 137.81L41.83 143.72L47.29 145.40ZM41.83 143.72L40.49 137.81L35.03 136.13L30.90 140.38L32.23 146.29L37.70 147.96ZM54.23 131.00L52.90 125.09L47.43 123.41L43.30 127.65L44.63 133.57L50.09 135.24ZM38.23 59.95L36.89 54.02L31.42 52.35L27.28 56.61L28.61 62.53L34.09 64.20ZM28.61 62.53L27.28 56.61L21.80 54.94L17.66 59.19L19.00 65.12L24.48 66.79ZM41.03 49.77L39.70 43.84L34.22 42.17L30.08 46.42L31.42 52.35L36.89 54.02ZM31.42 52.35L30.08 46.42L24.60 44.76L20.46 49.01L21.80 54.94L27.28 56.61ZM45.04 67.54L43.71 61.62L38.23 59.95L34.09 64.20L35.42 70.13L40.90 71.80ZM35.42 70.13L34.09 64.20L28.61 62.53L24.48 66.79L25.81 72.71L31.29 74.38ZM47.85 57.37L46.51 51.44L41.03 49.77L36.89 54.02L38.23 59.95L43.71 61.62ZM12.19 57.53L10.85 51.60L5.38 49.94L1.24 54.20L2.58 60.12L8.06 61.78ZM2.58 60.12L1.24 54.20L-4.23 52.53L-8.36 56.79L-7.02 62.71L-1.55 64.37ZM14.99 47.35L13.65 41.42L8.17 39.76L4.03 44.02L5.38 49.94L10.85 51.60ZM5.38 49.94L4.03 44.02L-1.44 42.35L-5.57 46.61L-4.23 52.53L1.24 54.20ZM19.00 65.12L17.66 59.19L12.19 57.53L8.06 61.78L9.40 67.70L14.87 69.37ZM9.40 67.70L8.06 61.78L2.58 60.12L-1.55 64.37L-0.21 70.29L5.26 71.96ZM21.80 54.94L20.46 49.01L14.99 47.35L10.85 51.60L12.19 57.53L17.66 59.19ZM53.47 37.00L52.13 31.06L46.65 29.39L42.51 33.65L43.84 39.58L49.32 41.25ZM43.84 39.58L42.51 33.65L37.03 31.98L32.88 36.24L34.22 42.17L39.70 43.84ZM56.28 26.81L54.95 20.87L49.46 19.20L45.32 23.46L46.65 29.39L52.13 31.06ZM46.65 29.39L45.32 23.46L39.83 21.79L35.69 26.05L37.03 31.98L42.51 33.65ZM60.29 44.60L58.95 38.67L53.47 37.00L49.32 41.25L50.66 47.18L56.14 48.86ZM50.66 47.18L49.32 41.25L43.84 39.58L39.70 43.84L41.03 49.77L46.51 51.44ZM63.10 34.41L61.77 28.48L56.28 26.81L52.13 31.06L53.47 37.00L58.95 38.67ZM27.40 34.57L26.06 28.64L20.58 26.97L16.44 31.24L17.78 37.16L23.26 38.83ZM17.78 37.16L16.44 31.24L10.97 29.57L6.83 33.83L8.17 39.76L13.65 41.42ZM30.21 24.38L28.87 18.45L23.39 16.78L19.24 21.05L20.58 26.97L26.06 28.64ZM20.58 26.97L19.24 21.05L13.76 19.38L9.63 23.64L10.97 29.57L16.44 31.24ZM34.22 42.17L32.88 36.24L27.40 34.57L23.26 38.83L24.60 44.76L30.08 46.42ZM24.60 44.76L23.26 38.83L17.78 37.16L13.65 41.42L14.99 47.35L20.46 49.01ZM37.03 31.98L35.69 26.05L30.21 24.38L26.06 28.64L27.40 34.57L32.88 36.24ZM49.04 85.32L47.71 79.39L42.23 77.72L38.10 81.97L39.43 87.89L44.90 89.57ZM39.43 87.89L38.10 81.97L32.62 80.30L28.49 84.55L29.82 90.47L35.29 92.14ZM51.85 75.14L50.52 69.22L45.04 67.54L40.90 71.80L42.23 77.72L47.71 79.39ZM42.23 77.72L40.90 71.80L35.42 70.13L31.29 74.38L32.62 80.30L38.10 81.97ZM55.85 92.92L54.52 86.99L49.04 85.32L44.90 89.57L46.24 95.49L51.71 97.16ZM46.24 95.49L44.90 89.57L39.43 87.89L35.29 92.14L36.63 98.06L42.10 99.73ZM58.66 82.74L57.33 76.82L51.85 75.14L47.71 79.39L49.04 85.32L54.52 86.99ZM23.01 82.88L21.68 76.96L16.21 75.29L12.07 79.54L13.41 85.46L18.88 87.13ZM13.41 85.46L12.07 79.54L6.60 77.88L2.47 82.13L3.81 88.05L9.28 89.71ZM25.81 72.71L24.48 66.79L19.00 65.12L14.87 69.37L16.21 75.29L21.68 76.96ZM16.21 75.29L14.87 69.37L9.40 67.70L5.26 71.96L6.60 77.88L12.07 79.54ZM29.82 90.47L28.49 84.55L23.01 82.88L18.88 87.13L20.22 93.05L25.69 94.72ZM20.22 93.05L18.88 87.13L13.41 85.46L9.28 89.71L10.62 95.63L16.09 97.30ZM32.62 80.30L31.29 74.38L25.81 72.71L21.68 76.96L23.01 82.88L28.49 84.55ZM64.28 62.39L62.95 56.46L57.47 54.79L53.33 59.04L54.66 64.97L60.14 66.64ZM54.66 64.97L53.33 59.04L47.85 57.37L43.71 61.62L45.04 67.54L50.52 69.22ZM67.10 52.21L65.77 46.28L60.29 44.60L56.14 48.86L57.47 54.79L62.95 56.46ZM57.47 54.79L56.14 48.86L50.66 47.18L46.51 51.44L47.85 57.37L53.33 59.04ZM71.09 69.99L69.76 64.07L64.28 62.39L60.14 66.64L61.47 72.57L66.95 74.24ZM61.47 72.57L60.14 66.64L54.66 64.97L50.52 69.22L51.85 75.14L57.33 76.82ZM73.91 59.81L72.58 53.88L67.10 52.21L62.95 56.46L64.28 62.39L69.76 64.07ZM241.09 6.13L239.78 0.17L234.27 -1.53L230.08 2.72L231.39 8.68L236.89 10.38ZM231.39 8.68L230.08 2.72L224.57 1.01L220.38 5.27L221.69 11.22L227.19 12.93ZM243.97 -4.08L242.66 -10.04L237.15 -11.75L232.96 -7.49L234.27 -1.53L239.78 0.17ZM234.27 -1.53L232.96 -7.49L227.45 -9.20L223.26 -4.94L224.57 1.01L230.08 2.72ZM247.90 13.80L246.59 7.84L241.09 6.13L236.89 10.38L238.20 16.34L243.71 18.05ZM238.20 16.34L236.89 10.38L231.39 8.68L227.19 12.93L228.51 18.88L234.01 20.59ZM250.79 3.59L249.48 -2.37L243.97 -4.08L239.78 0.17L241.09 6.13L246.59 7.84ZM214.87 3.56L213.56 -2.39L208.05 -4.10L203.87 0.16L205.18 6.11L210.68 7.81ZM205.18 6.11L203.87 0.16L198.36 -1.54L194.18 2.71L195.49 8.66L200.99 10.36ZM208.05 -4.10L206.74 -10.05L201.23 -11.75L197.05 -7.50L198.36 -1.54L203.87 0.16ZM221.69 11.22L220.38 5.27L214.87 3.56L210.68 7.81L212.00 13.77L217.50 15.47ZM212.00 13.77L210.68 7.81L205.18 6.11L200.99 10.36L202.31 16.32L207.81 18.02ZM224.57 1.01L223.26 -4.94L217.75 -6.65L213.56 -2.39L214.87 3.56L220.38 5.27ZM251.83 31.67L250.52 25.72L245.02 24.01L240.82 28.25L242.13 34.21L247.63 35.92ZM242.13 34.21L240.82 28.25L235.32 26.54L231.13 30.79L232.44 36.74L237.94 38.45ZM254.72 21.47L253.41 15.51L247.90 13.80L243.71 18.05L245.02 24.01L250.52 25.72ZM245.02 24.01L243.71 18.05L238.20 16.34L234.01 20.59L235.32 26.54L240.82 28.25ZM258.64 39.34L257.33 33.38L251.83 31.67L247.63 35.92L248.94 41.87L254.44 43.58ZM248.94 41.87L247.63 35.92L242.13 34.21L237.94 38.45L239.25 44.40L244.75 46.11ZM261.53 29.14L260.22 23.18L254.72 21.47L250.52 25.72L251.83 31.67L257.33 33.38ZM225.63 29.08L224.31 23.13L218.81 21.43L214.62 25.67L215.94 31.63L221.44 33.33ZM215.94 31.63L214.62 25.67L209.12 23.97L204.94 28.22L206.25 34.17L211.75 35.87ZM228.51 18.88L227.19 12.93L221.69 11.22L217.50 15.47L218.81 21.43L224.31 23.13ZM218.81 21.43L217.50 15.47L212.00 13.77L207.81 18.02L209.12 23.97L214.62 25.67ZM232.44 36.74L231.13 30.79L225.63 29.08L221.44 33.33L222.75 39.28L228.25 40.99ZM222.75 39.28L221.44 33.33L215.94 31.63L211.75 35.87L213.06 41.82L218.56 43.53ZM235.32 26.54L234.01 20.59L228.51 18.88L224.31 23.13L225.63 29.08L231.13 30.79ZM257.61 11.26L256.30 5.30L250.79 3.59L246.59 7.84L247.90 13.80L253.41 15.51ZM260.50 1.05L259.19 -4.91L253.68 -6.62L249.48 -2.37L250.79 3.59L256.30 5.30ZM264.42 18.93L263.11 12.98L257.61 11.26L253.41 15.51L254.72 21.47L260.22 23.18ZM231.16 263.01L229.86 257.10L224.39 255.38L220.23 259.59L221.53 265.51L227.00 267.22ZM205.15 260.38L203.84 254.46L198.38 252.75L194.22 256.96L195.53 262.88L200.99 264.58ZM195.53 262.88L194.22 256.96L188.76 255.26L184.61 259.46L185.92 265.38L191.38 267.08ZM243.65 250.40L242.35 244.47L236.88 242.76L232.72 246.97L234.02 252.89L239.49 254.60ZM234.02 252.89L232.72 246.97L227.25 245.25L223.09 249.46L224.39 255.38L229.86 257.10ZM246.52 240.27L245.22 234.34L239.75 232.63L235.58 236.84L236.88 242.76L242.35 244.47ZM236.88 242.76L235.58 236.84L230.11 235.12L225.95 239.33L227.25 245.25L232.72 246.97ZM250.42 258.04L249.12 252.11L243.65 250.40L239.49 254.60L240.79 260.52L246.25 262.24ZM240.79 260.52L239.49 254.60L234.02 252.89L229.86 257.10L231.16 263.01L236.62 264.73ZM253.29 247.91L251.99 241.98L246.52 240.27L242.35 244.47L243.65 250.40L249.12 252.11ZM217.62 247.75L216.32 241.83L210.85 240.12L206.69 244.33L208.00 250.25L213.46 251.96ZM208.00 250.25L206.69 244.33L201.23 242.62L197.07 246.84L198.38 252.75L203.84 254.46ZM220.48 237.62L219.18 231.70L213.71 229.99L209.55 234.20L210.85 240.12L216.32 241.83ZM210.85 240.12L209.55 234.20L204.08 232.49L199.92 236.71L201.23 242.62L206.69 244.33ZM224.39 255.38L223.09 249.46L217.62 247.75L213.46 251.96L214.77 257.88L220.23 259.59ZM214.77 257.88L213.46 251.96L208.00 250.25L203.84 254.46L205.15 260.38L210.61 262.09ZM227.25 245.25L225.95 239.33L220.48 237.62L216.32 241.83L217.62 247.75L223.09 249.46ZM179.15 257.76L177.84 251.85L172.38 250.14L168.23 254.36L169.54 260.27L175.00 261.97ZM169.54 260.27L168.23 254.36L162.77 252.65L158.63 256.87L159.94 262.78L165.39 264.48ZM153.17 255.17L151.86 249.26L146.40 247.56L142.25 251.77L143.57 257.68L149.02 259.38ZM143.57 257.68L142.25 251.77L136.80 250.08L132.66 254.29L133.97 260.20L139.43 261.89ZM159.94 262.78L158.63 256.87L153.17 255.17L149.02 259.38L150.34 265.29L155.79 266.99ZM248.36 202.20L247.06 196.27L241.58 194.56L237.41 198.78L238.71 204.71L244.18 206.42ZM238.71 204.71L237.41 198.78L231.93 197.06L227.76 201.28L229.07 207.21L234.54 208.92ZM251.23 192.06L249.93 186.13L244.45 184.41L240.28 188.63L241.58 194.56L247.06 196.27ZM241.58 194.56L240.28 188.63L234.80 186.92L230.63 191.13L231.93 197.06L237.41 198.78ZM255.13 209.85L253.83 203.92L248.36 202.20L244.18 206.42L245.49 212.35L250.96 214.06ZM245.49 212.35L244.18 206.42L238.71 204.71L234.54 208.92L235.84 214.85L241.32 216.56ZM258.01 199.71L256.71 193.77L251.23 192.06L247.06 196.27L248.36 202.20L253.83 203.92ZM222.29 199.57L220.98 193.64L215.51 191.93L211.34 196.15L212.65 202.08L218.12 203.79ZM212.65 202.08L211.34 196.15L205.87 194.44L201.71 198.66L203.01 204.59L208.48 206.30ZM225.15 189.42L223.85 183.49L218.37 181.78L214.20 186.00L215.51 191.93L220.98 193.64ZM215.51 191.93L214.20 186.00L208.73 184.30L204.56 188.52L205.87 194.44L211.34 196.15ZM229.07 207.21L227.76 201.28L222.29 199.57L218.12 203.79L219.43 209.71L224.90 211.42ZM219.43 209.71L218.12 203.79L212.65 202.08L208.48 206.30L209.79 212.22L215.26 213.93ZM231.93 197.06L230.63 191.13L225.15 189.42L220.98 193.64L222.29 199.57L227.76 201.28ZM263.77 179.41L262.47 173.47L256.98 171.75L252.80 175.97L254.11 181.91L259.59 183.62ZM254.11 181.91L252.80 175.97L247.32 174.26L243.15 178.48L244.45 184.41L249.93 186.13ZM266.65 169.25L265.35 163.31L259.86 161.60L255.68 165.82L256.98 171.75L262.47 173.47ZM256.98 171.75L255.68 165.82L250.20 164.10L246.02 168.32L247.32 174.26L252.80 175.97ZM260.89 189.56L259.59 183.62L254.11 181.91L249.93 186.13L251.23 192.06L256.71 193.77ZM237.67 176.76L236.36 170.83L230.89 169.12L226.71 173.34L228.02 179.27L233.50 180.99ZM228.02 179.27L226.71 173.34L221.23 171.63L217.06 175.85L218.37 181.78L223.85 183.49ZM240.54 166.61L239.24 160.68L233.76 158.96L229.58 163.19L230.89 169.12L236.36 170.83ZM230.89 169.12L229.58 163.19L224.10 161.48L219.93 165.70L221.23 171.63L226.71 173.34ZM244.45 184.41L243.15 178.48L237.67 176.76L233.50 180.99L234.80 186.92L240.28 188.63ZM234.80 186.92L233.50 180.99L228.02 179.27L223.85 183.49L225.15 189.42L230.63 191.13ZM247.32 174.26L246.02 168.32L240.54 166.61L236.36 170.83L237.67 176.76L243.15 178.48ZM259.03 227.64L257.73 221.71L252.26 219.99L248.09 224.20L249.39 230.13L254.86 231.85ZM249.39 230.13L248.09 224.20L242.62 222.49L238.45 226.70L239.75 232.63L245.22 234.34ZM261.91 217.50L260.61 211.57L255.13 209.85L250.96 214.06L252.26 219.99L257.73 221.71ZM252.26 219.99L250.96 214.06L245.49 212.35L241.32 216.56L242.62 222.49L248.09 224.20ZM265.81 235.28L264.51 229.36L259.03 227.64L254.86 231.85L256.16 237.77L261.63 239.49ZM256.16 237.77L254.86 231.85L249.39 230.13L245.22 234.34L246.52 240.27L251.99 241.98ZM232.98 224.99L231.67 219.06L226.20 217.35L222.04 221.56L223.34 227.49L228.81 229.20ZM223.34 227.49L222.04 221.56L216.57 219.85L212.40 224.07L213.71 229.99L219.18 231.70ZM235.84 214.85L234.54 208.92L229.07 207.21L224.90 211.42L226.20 217.35L231.67 219.06ZM226.20 217.35L224.90 211.42L219.43 209.71L215.26 213.93L216.57 219.85L222.04 221.56ZM239.75 232.63L238.45 226.70L232.98 224.99L228.81 229.20L230.11 235.12L235.58 236.84ZM230.11 235.12L228.81 229.20L223.34 227.49L219.18 231.70L220.48 237.62L225.95 239.33ZM242.62 222.49L241.32 216.56L235.84 214.85L231.67 219.06L232.98 224.99L238.45 226.70ZM264.79 207.36L263.49 201.42L258.01 199.71L253.83 203.92L255.13 209.85L260.61 211.57ZM180.91 219.75L179.60 213.83L174.13 212.13L169.98 216.35L171.29 222.27L176.75 223.97ZM171.29 222.27L169.98 216.35L164.51 214.65L160.36 218.87L161.67 224.78L167.14 226.48ZM183.75 209.61L182.44 203.69L176.98 201.99L172.82 206.21L174.13 212.13L179.60 213.83ZM174.13 212.13L172.82 206.21L167.35 204.51L163.20 208.73L164.51 214.65L169.98 216.35ZM187.68 227.37L186.37 221.46L180.91 219.75L176.75 223.97L178.06 229.89L183.53 231.59ZM178.06 229.89L176.75 223.97L171.29 222.27L167.14 226.48L168.45 232.40L173.91 234.10ZM190.53 217.24L189.22 211.32L183.75 209.61L179.60 213.83L180.91 219.75L186.37 221.46ZM154.90 217.17L153.58 211.25L148.12 209.55L143.97 213.77L145.28 219.69L150.75 221.39ZM145.28 219.69L143.97 213.77L138.51 212.08L134.36 216.30L135.68 222.21L141.14 223.91ZM157.73 207.03L156.42 201.11L150.95 199.41L146.80 203.64L148.12 209.55L153.58 211.25ZM148.12 209.55L146.80 203.64L141.34 201.94L137.19 206.16L138.51 212.08L143.97 213.77ZM161.67 224.78L160.36 218.87L154.90 217.17L150.75 221.39L152.06 227.30L157.52 229.00ZM152.06 227.30L150.75 221.39L145.28 219.69L141.14 223.91L142.45 229.82L147.91 231.52ZM164.51 214.65L163.20 208.73L157.73 207.03L153.58 211.25L154.90 217.17L160.36 218.87ZM196.23 196.96L194.93 191.03L189.45 189.33L185.29 193.55L186.60 199.47L192.07 201.18ZM186.60 199.47L185.29 193.55L179.82 191.85L175.66 196.07L176.98 201.99L182.44 203.69ZM199.09 186.81L197.78 180.88L192.31 179.18L188.14 183.40L189.45 189.33L194.93 191.03ZM189.45 189.33L188.14 183.40L182.67 181.70L178.51 185.92L179.82 191.85L185.29 193.55ZM203.01 204.59L201.71 198.66L196.23 196.96L192.07 201.18L193.38 207.10L198.85 208.81ZM193.38 207.10L192.07 201.18L186.60 199.47L182.44 203.69L183.75 209.61L189.22 211.32ZM205.87 194.44L204.56 188.52L199.09 186.81L194.93 191.03L196.23 196.96L201.71 198.66ZM170.20 194.37L168.88 188.45L163.41 186.75L159.26 190.97L160.57 196.89L166.04 198.59ZM160.57 196.89L159.26 190.97L153.79 189.27L149.64 193.50L150.95 199.41L156.42 201.11ZM173.04 184.22L171.73 178.30L166.26 176.60L162.10 180.82L163.41 186.75L168.88 188.45ZM163.41 186.75L162.10 180.82L156.63 179.13L152.47 183.35L153.79 189.27L159.26 190.97ZM176.98 201.99L175.66 196.07L170.20 194.37L166.04 198.59L167.35 204.51L172.82 206.21ZM167.35 204.51L166.04 198.59L160.57 196.89L156.42 201.11L157.73 207.03L163.20 208.73ZM179.82 191.85L178.51 185.92L173.04 184.22L168.88 188.45L170.20 194.37L175.66 196.07ZM191.61 245.13L190.30 239.21L184.84 237.51L180.68 241.72L181.99 247.64L187.45 249.34ZM181.99 247.64L180.68 241.72L175.22 240.02L171.07 244.23L172.38 250.14L177.84 251.85ZM194.46 235.00L193.15 229.08L187.68 227.37L183.53 231.59L184.84 237.51L190.30 239.21ZM184.84 237.51L183.53 231.59L178.06 229.89L173.91 234.10L175.22 240.02L180.68 241.72ZM198.38 252.75L197.07 246.84L191.61 245.13L187.45 249.34L188.76 255.26L194.22 256.96ZM188.76 255.26L187.45 249.34L181.99 247.64L177.84 251.85L179.15 257.76L184.61 259.46ZM201.23 242.62L199.92 236.71L194.46 235.00L190.30 239.21L191.61 245.13L197.07 246.84ZM165.61 242.53L164.30 236.61L158.84 234.91L154.69 239.13L156.00 245.04L161.46 246.74ZM156.00 245.04L154.69 239.13L149.23 237.43L145.08 241.65L146.40 247.56L151.86 249.26ZM168.45 232.40L167.14 226.48L161.67 224.78L157.52 229.00L158.84 234.91L164.30 236.61ZM158.84 234.91L157.52 229.00L152.06 227.30L147.91 231.52L149.23 237.43L154.69 239.13ZM172.38 250.14L171.07 244.23L165.61 242.53L161.46 246.74L162.77 252.65L168.23 254.36ZM162.77 252.65L161.46 246.74L156.00 245.04L151.86 249.26L153.17 255.17L158.63 256.87ZM175.22 240.02L173.91 234.10L168.45 232.40L164.30 236.61L165.61 242.53L171.07 244.23ZM206.94 222.36L205.63 216.44L200.16 214.73L196.00 218.94L197.31 224.87L202.77 226.57ZM197.31 224.87L196.00 218.94L190.53 217.24L186.37 221.46L187.68 227.37L193.15 229.08ZM209.79 212.22L208.48 206.30L203.01 204.59L198.85 208.81L200.16 214.73L205.63 216.44ZM200.16 214.73L198.85 208.81L193.38 207.10L189.22 211.32L190.53 217.24L196.00 218.94ZM213.71 229.99L212.40 224.07L206.94 222.36L202.77 226.57L204.08 232.49L209.55 234.20ZM204.08 232.49L202.77 226.57L197.31 224.87L193.15 229.08L194.46 235.00L199.92 236.71ZM216.57 219.85L215.26 213.93L209.79 212.22L205.63 216.44L206.94 222.36L212.40 224.07ZM260.06 255.55L258.76 249.62L253.29 247.91L249.12 252.11L250.42 258.04L255.89 259.75ZM262.93 245.42L261.63 239.49L256.16 237.77L251.99 241.98L253.29 247.91L258.76 249.62ZM266.82 263.19L265.53 257.27L260.06 255.55L255.89 259.75L257.19 265.68L262.65 267.39ZM258.84 133.61L257.53 127.67L252.05 125.96L247.86 130.18L249.17 136.12L254.65 137.84ZM261.72 123.44L260.42 117.50L254.93 115.78L250.74 120.01L252.05 125.96L257.53 127.67ZM265.63 141.27L264.32 135.33L258.84 133.61L254.65 137.84L255.96 143.78L261.44 145.49ZM242.37 128.47L241.07 122.53L235.58 120.82L231.40 125.05L232.71 130.99L238.19 132.70ZM232.71 130.99L231.40 125.05L225.92 123.34L221.74 127.57L223.05 133.51L228.53 135.22ZM245.25 118.30L243.95 112.36L238.46 110.65L234.28 114.88L235.58 120.82L241.07 122.53ZM235.58 120.82L234.28 114.88L228.79 113.17L224.61 117.40L225.92 123.34L231.40 125.05ZM249.17 136.12L247.86 130.18L242.37 128.47L238.19 132.70L239.50 138.64L244.98 140.35ZM239.50 138.64L238.19 132.70L232.71 130.99L228.53 135.22L229.84 141.16L235.32 142.87ZM252.05 125.96L250.74 120.01L245.25 118.30L241.07 122.53L242.37 128.47L247.86 130.18ZM257.81 105.61L256.50 99.66L251.01 97.95L246.83 102.18L248.13 108.13L253.62 109.84ZM248.13 108.13L246.83 102.18L241.33 100.47L237.15 104.70L238.46 110.65L243.95 112.36ZM260.69 95.43L259.39 89.48L253.90 87.77L249.71 92.00L251.01 97.95L256.50 99.66ZM251.01 97.95L249.71 92.00L244.21 90.29L240.03 94.53L241.33 100.47L246.83 102.18ZM264.60 113.27L263.30 107.32L257.81 105.61L253.62 109.84L254.93 115.78L260.42 117.50ZM254.93 115.78L253.62 109.84L248.13 108.13L243.95 112.36L245.25 118.30L250.74 120.01ZM253.08 153.94L251.77 148.00L246.29 146.29L242.11 150.52L243.41 156.45L248.90 158.17ZM243.41 156.45L242.11 150.52L236.63 148.80L232.45 153.03L233.76 158.96L239.24 160.68ZM255.96 143.78L254.65 137.84L249.17 136.12L244.98 140.35L246.29 146.29L251.77 148.00ZM246.29 146.29L244.98 140.35L239.50 138.64L235.32 142.87L236.63 148.80L242.11 150.52ZM259.86 161.60L258.56 155.66L253.08 153.94L248.90 158.17L250.20 164.10L255.68 165.82ZM250.20 164.10L248.90 158.17L243.41 156.45L239.24 160.68L240.54 166.61L246.02 168.32ZM262.74 151.43L261.44 145.49L255.96 143.78L251.77 148.00L253.08 153.94L258.56 155.66ZM262.56 57.20L261.25 51.25L255.75 49.54L251.56 53.78L252.86 59.73L258.36 61.44ZM252.86 59.73L251.56 53.78L246.06 52.07L241.87 56.31L243.17 62.26L248.67 63.97ZM265.45 47.01L264.14 41.05L258.64 39.34L254.44 43.58L255.75 49.54L261.25 51.25ZM255.75 49.54L254.44 43.58L248.94 41.87L244.75 46.11L246.06 52.07L251.56 53.78ZM259.67 67.40L258.36 61.44L252.86 59.73L248.67 63.97L249.98 69.92L255.47 71.63ZM263.58 85.25L262.28 79.30L256.78 77.58L252.59 81.82L253.90 87.77L259.39 89.48ZM266.47 75.06L265.17 69.11L259.67 67.40L255.47 71.63L256.78 77.58L262.28 79.30ZM46.60 255.13L45.27 249.23L39.82 247.55L35.71 251.77L37.03 257.67L42.48 259.35ZM37.03 257.67L35.71 251.77L30.26 250.10L26.15 254.32L27.48 260.21L32.92 261.89ZM49.39 245.01L48.06 239.11L42.62 237.43L38.50 241.65L39.82 247.55L45.27 249.23ZM39.82 247.55L38.50 241.65L33.05 239.98L28.93 244.20L30.26 250.10L35.71 251.77ZM53.37 262.70L52.04 256.81L46.60 255.13L42.48 259.35L43.81 265.24L49.25 266.92ZM56.17 252.59L54.84 246.69L49.39 245.01L45.27 249.23L46.60 255.13L52.04 256.81ZM20.70 252.64L19.37 246.75L13.93 245.07L9.81 249.30L11.15 255.19L16.59 256.86ZM11.15 255.19L9.81 249.30L4.37 247.63L0.26 251.85L1.60 257.74L7.04 259.41ZM23.49 242.53L22.15 236.63L16.71 234.96L12.59 239.18L13.93 245.07L19.37 246.75ZM13.93 245.07L12.59 239.18L7.15 237.51L3.04 241.73L4.37 247.63L9.81 249.30ZM27.48 260.21L26.15 254.32L20.70 252.64L16.59 256.86L17.92 262.76L23.36 264.43ZM17.92 262.76L16.59 256.86L11.15 255.19L7.04 259.41L8.37 265.30L13.81 266.98ZM30.26 250.10L28.93 244.20L23.49 242.53L19.37 246.75L20.70 252.64L26.15 254.32ZM61.76 232.35L60.44 226.44L54.98 224.76L50.86 228.99L52.19 234.89L57.64 236.57ZM52.19 234.89L50.86 228.99L45.41 227.31L41.29 231.53L42.62 237.43L48.06 239.11ZM64.56 222.22L63.24 216.31L57.78 214.63L53.66 218.86L54.98 224.76L60.44 226.44ZM54.98 224.76L53.66 218.86L48.20 217.18L44.08 221.41L45.41 227.31L50.86 228.99ZM68.54 239.93L67.21 234.03L61.76 232.35L57.64 236.57L58.96 242.47L64.41 244.15ZM58.96 242.47L57.64 236.57L52.19 234.89L48.06 239.11L49.39 245.01L54.84 246.69ZM71.34 229.81L70.02 223.90L64.56 222.22L60.44 226.44L61.76 232.35L67.21 234.03ZM35.84 229.86L34.51 223.95L29.06 222.28L24.94 226.51L26.27 232.40L31.72 234.08ZM26.27 232.40L24.94 226.51L19.49 224.83L15.38 229.06L16.71 234.96L22.15 236.63ZM38.63 219.73L37.30 213.83L31.85 212.15L27.73 216.38L29.06 222.28L34.51 223.95ZM29.06 222.28L27.73 216.38L22.28 214.71L18.16 218.93L19.49 224.83L24.94 226.51ZM42.62 237.43L41.29 231.53L35.84 229.86L31.72 234.08L33.05 239.98L38.50 241.65ZM33.05 239.98L31.72 234.08L26.27 232.40L22.15 236.63L23.49 242.53L28.93 244.20ZM45.41 227.31L44.08 221.41L38.63 219.73L34.51 223.95L35.84 229.86L41.29 231.53ZM72.51 257.64L71.19 251.73L65.74 250.05L61.61 254.27L62.94 260.17L68.39 261.85ZM62.94 260.17L61.61 254.27L56.17 252.59L52.04 256.81L53.37 262.70L58.82 264.39ZM75.31 247.52L73.99 241.61L68.54 239.93L64.41 244.15L65.74 250.05L71.19 251.73ZM65.74 250.05L64.41 244.15L58.96 242.47L54.84 246.69L56.17 252.59L61.61 254.27ZM82.09 255.10L80.76 249.20L75.31 247.52L71.19 251.73L72.51 257.64L77.96 259.32ZM1.60 257.74L0.26 251.85L-5.18 250.18L-9.29 254.40L-7.95 260.29L-2.51 261.96ZM4.37 247.63L3.04 241.73L-2.41 240.06L-6.51 244.29L-5.18 250.18L0.26 251.85ZM66.19 184.23L64.86 178.32L59.40 176.64L55.27 180.87L56.60 186.78L62.06 188.46ZM56.60 186.78L55.27 180.87L49.81 179.19L45.68 183.42L47.01 189.33L52.47 191.01ZM69.00 174.08L67.67 168.17L62.21 166.49L58.07 170.73L59.40 176.64L64.86 178.32ZM59.40 176.64L58.07 170.73L52.61 169.05L48.48 173.28L49.81 179.19L55.27 180.87ZM72.98 191.82L71.65 185.91L66.19 184.23L62.06 188.46L63.38 194.37L68.84 196.05ZM63.38 194.37L62.06 188.46L56.60 186.78L52.47 191.01L53.80 196.92L59.26 198.59ZM75.78 181.68L74.46 175.77L69.00 174.08L64.86 178.32L66.19 184.23L71.65 185.91ZM40.23 181.75L38.90 175.84L33.44 174.16L29.31 178.40L30.64 184.30L36.10 185.98ZM30.64 184.30L29.31 178.40L23.86 176.73L19.73 180.96L21.07 186.86L26.52 188.54ZM43.02 171.60L41.69 165.70L36.23 164.02L32.10 168.26L33.44 174.16L38.90 175.84ZM33.44 174.16L32.10 168.26L26.65 166.58L22.52 170.82L23.86 176.73L29.31 178.40ZM47.01 189.33L45.68 183.42L40.23 181.75L36.10 185.98L37.43 191.89L42.89 193.56ZM37.43 191.89L36.10 185.98L30.64 184.30L26.52 188.54L27.85 194.44L33.31 196.12ZM49.81 179.19L48.48 173.28L43.02 171.60L38.90 175.84L40.23 181.75L45.68 183.42ZM81.41 161.39L80.08 155.47L74.61 153.79L70.48 158.02L71.80 163.94L77.27 165.62ZM71.80 163.94L70.48 158.02L65.01 156.34L60.88 160.58L62.21 166.49L67.67 168.17ZM84.22 151.24L82.89 145.32L77.43 143.64L73.29 147.87L74.61 153.79L80.08 155.47ZM74.61 153.79L73.29 147.87L67.82 146.19L63.68 150.43L65.01 156.34L70.48 158.02ZM88.20 168.99L86.87 163.07L81.41 161.39L77.27 165.62L78.59 171.53L84.06 173.22ZM78.59 171.53L77.27 165.62L71.80 163.94L67.67 168.17L69.00 174.08L74.46 175.77ZM91.01 158.84L89.69 152.92L84.22 151.24L80.08 155.47L81.41 161.39L86.87 163.07ZM55.41 158.90L54.08 152.99L48.62 151.31L44.49 155.55L45.82 161.46L51.28 163.14ZM45.82 161.46L44.49 155.55L39.03 153.87L34.90 158.11L36.23 164.02L41.69 165.70ZM58.22 148.75L56.89 142.84L51.42 141.16L47.29 145.40L48.62 151.31L54.08 152.99ZM48.62 151.31L47.29 145.40L41.83 143.72L37.70 147.96L39.03 153.87L44.49 155.55ZM62.21 166.49L60.88 160.58L55.41 158.90L51.28 163.14L52.61 169.05L58.07 170.73ZM52.61 169.05L51.28 163.14L45.82 161.46L41.69 165.70L43.02 171.60L48.48 173.28ZM65.01 156.34L63.68 150.43L58.22 148.75L54.08 152.99L55.41 158.90L60.88 160.58ZM76.95 209.55L75.63 203.64L70.17 201.96L66.04 206.18L67.36 212.09L72.82 213.77ZM67.36 212.09L66.04 206.18L60.58 204.50L56.45 208.73L57.78 214.63L63.24 216.31ZM79.76 199.41L78.43 193.50L72.98 191.82L68.84 196.05L70.17 201.96L75.63 203.64ZM70.17 201.96L68.84 196.05L63.38 194.37L59.26 198.59L60.58 204.50L66.04 206.18ZM83.73 217.14L82.41 211.23L76.95 209.55L72.82 213.77L74.14 219.68L79.60 221.36ZM74.14 219.68L72.82 213.77L67.36 212.09L63.24 216.31L64.56 222.22L70.02 223.90ZM86.54 207.01L85.22 201.10L79.76 199.41L75.63 203.64L76.95 209.55L82.41 211.23ZM51.00 207.05L49.67 201.14L44.22 199.47L40.09 203.70L41.42 209.60L46.87 211.28ZM41.42 209.60L40.09 203.70L34.64 202.02L30.52 206.25L31.85 212.15L37.30 213.83ZM53.80 196.92L52.47 191.01L47.01 189.33L42.89 193.56L44.22 199.47L49.67 201.14ZM44.22 199.47L42.89 193.56L37.43 191.89L33.31 196.12L34.64 202.02L40.09 203.70ZM57.78 214.63L56.45 208.73L51.00 207.05L46.87 211.28L48.20 217.18L53.66 218.86ZM48.20 217.18L46.87 211.28L41.42 209.60L37.30 213.83L38.63 219.73L44.08 221.41ZM60.58 204.50L59.26 198.59L53.80 196.92L49.67 201.14L51.00 207.05L56.45 208.73ZM92.17 186.73L90.84 180.82L85.38 179.13L81.24 183.36L82.57 189.27L88.03 190.96ZM82.57 189.27L81.24 183.36L75.78 181.68L71.65 185.91L72.98 191.82L78.43 193.50ZM94.98 176.59L93.66 170.67L88.20 168.99L84.06 173.22L85.38 179.13L90.84 180.82ZM85.38 179.13L84.06 173.22L78.59 171.53L74.46 175.77L75.78 181.68L81.24 183.36ZM98.95 194.33L97.63 188.41L92.17 186.73L88.03 190.96L89.35 196.87L94.81 198.55ZM89.35 196.87L88.03 190.96L82.57 189.27L78.43 193.50L79.76 199.41L85.22 201.10ZM101.77 184.19L100.45 178.27L94.98 176.59L90.84 180.82L92.17 186.73L97.63 188.41ZM1.92 191.99L0.59 186.09L-4.86 184.42L-8.98 188.66L-7.64 194.56L-2.19 196.22ZM5.93 209.69L4.59 203.79L-0.86 202.12L-4.97 206.35L-3.63 212.25L1.81 213.92ZM8.71 199.56L7.37 193.66L1.92 191.99L-2.19 196.22L-0.86 202.12L4.59 203.79ZM14.28 179.29L12.94 173.38L7.49 171.71L3.37 175.95L4.70 181.85L10.16 183.52ZM4.70 181.85L3.37 175.95L-2.09 174.28L-6.20 178.52L-4.86 184.42L0.59 186.09ZM17.07 169.15L15.73 163.24L10.27 161.57L6.15 165.81L7.49 171.71L12.94 173.38ZM7.49 171.71L6.15 165.81L0.70 164.14L-3.42 168.38L-2.09 174.28L3.37 175.95ZM21.07 186.86L19.73 180.96L14.28 179.29L10.16 183.52L11.49 189.43L16.95 191.10ZM11.49 189.43L10.16 183.52L4.70 181.85L0.59 186.09L1.92 191.99L7.37 193.66ZM23.86 176.73L22.52 170.82L17.07 169.15L12.94 173.38L14.28 179.29L19.73 180.96ZM9.93 227.39L8.60 221.49L3.15 219.82L-0.96 224.05L0.37 229.94L5.82 231.61ZM0.37 229.94L-0.96 224.05L-6.41 222.38L-10.52 226.61L-9.18 232.50L-3.74 234.17ZM12.71 217.26L11.38 211.36L5.93 209.69L1.81 213.92L3.15 219.82L8.60 221.49ZM3.15 219.82L1.81 213.92L-3.63 212.25L-7.75 216.48L-6.41 222.38L-0.96 224.05ZM16.71 234.96L15.38 229.06L9.93 227.39L5.82 231.61L7.15 237.51L12.59 239.18ZM7.15 237.51L5.82 231.61L0.37 229.94L-3.74 234.17L-2.41 240.06L3.04 241.73ZM19.49 224.83L18.16 218.93L12.71 217.26L8.60 221.49L9.93 227.39L15.38 229.06ZM25.06 204.58L23.73 198.67L18.28 197.00L14.16 201.23L15.49 207.13L20.94 208.80ZM15.49 207.13L14.16 201.23L8.71 199.56L4.59 203.79L5.93 209.69L11.38 211.36ZM27.85 194.44L26.52 188.54L21.07 186.86L16.95 191.10L18.28 197.00L23.73 198.67ZM18.28 197.00L16.95 191.10L11.49 189.43L7.37 193.66L8.71 199.56L14.16 201.23ZM31.85 212.15L30.52 206.25L25.06 204.58L20.94 208.80L22.28 214.71L27.73 216.38ZM22.28 214.71L20.94 208.80L15.49 207.13L11.38 211.36L12.71 217.26L18.16 218.93ZM34.64 202.02L33.31 196.12L27.85 194.44L23.73 198.67L25.06 204.58L30.52 206.25ZM113.65 237.39L112.34 231.48L106.88 229.79L102.74 234.01L104.06 239.92L109.52 241.61ZM104.06 239.92L102.74 234.01L97.29 232.33L93.15 236.55L94.48 242.45L99.93 244.14ZM116.47 227.27L115.16 221.35L109.70 219.66L105.56 223.89L106.88 229.79L112.34 231.48ZM106.88 229.79L105.56 223.89L100.10 222.20L95.97 226.42L97.29 232.33L102.74 234.01ZM120.43 244.99L119.11 239.08L113.65 237.39L109.52 241.61L110.84 247.52L116.29 249.21ZM110.84 247.52L109.52 241.61L104.06 239.92L99.93 244.14L101.25 250.04L106.70 251.73ZM123.25 234.87L121.93 228.96L116.47 227.27L112.34 231.48L113.65 237.39L119.11 239.08ZM87.70 234.86L86.38 228.95L80.92 227.27L76.79 231.49L78.12 237.39L83.57 239.08ZM78.12 237.39L76.79 231.49L71.34 229.81L67.21 234.03L68.54 239.93L73.99 241.61ZM90.51 224.73L89.19 218.82L83.73 217.14L79.60 221.36L80.92 227.27L86.38 228.95ZM80.92 227.27L79.60 221.36L74.14 219.68L70.02 223.90L71.34 229.81L76.79 231.49ZM94.48 242.45L93.15 236.55L87.70 234.86L83.57 239.08L84.89 244.98L90.34 246.67ZM84.89 244.98L83.57 239.08L78.12 237.39L73.99 241.61L75.31 247.52L80.76 249.20ZM97.29 232.33L95.97 226.42L90.51 224.73L86.38 228.95L87.70 234.86L93.15 236.55ZM128.90 214.60L127.58 208.69L122.12 207.00L117.98 211.22L119.30 217.13L124.76 218.83ZM119.30 217.13L117.98 211.22L112.52 209.53L108.38 213.75L109.70 219.66L115.16 221.35ZM131.73 204.47L130.41 198.55L124.95 196.86L120.80 201.08L122.12 207.00L127.58 208.69ZM122.12 207.00L120.80 201.08L115.34 199.39L111.20 203.62L112.52 209.53L117.98 211.22ZM135.68 222.21L134.36 216.30L128.90 214.60L124.76 218.83L126.07 224.74L131.53 226.43ZM126.07 224.74L124.76 218.83L119.30 217.13L115.16 221.35L116.47 227.27L121.93 228.96ZM138.51 212.08L137.19 206.16L131.73 204.47L127.58 208.69L128.90 214.60L134.36 216.30ZM102.92 212.06L101.60 206.15L96.14 204.47L92.00 208.69L93.32 214.60L98.78 216.29ZM93.32 214.60L92.00 208.69L86.54 207.01L82.41 211.23L83.73 217.14L89.19 218.82ZM105.74 201.93L104.41 196.02L98.95 194.33L94.81 198.55L96.14 204.47L101.60 206.15ZM96.14 204.47L94.81 198.55L89.35 196.87L85.22 201.10L86.54 207.01L92.00 208.69ZM109.70 219.66L108.38 213.75L102.92 212.06L98.78 216.29L100.10 222.20L105.56 223.89ZM100.10 222.20L98.78 216.29L93.32 214.60L89.19 218.82L90.51 224.73L95.97 226.42ZM112.52 209.53L111.20 203.62L105.74 201.93L101.60 206.15L102.92 212.06L108.38 213.75ZM124.38 262.71L123.06 256.81L117.61 255.12L113.47 259.33L114.79 265.23L120.24 266.93ZM127.20 252.59L125.88 246.69L120.43 244.99L116.29 249.21L117.61 255.12L123.06 256.81ZM117.61 255.12L116.29 249.21L110.84 247.52L106.70 251.73L108.02 257.64L113.47 259.33ZM133.97 260.20L132.66 254.29L127.20 252.59L123.06 256.81L124.38 262.71L129.83 264.41ZM98.44 260.16L97.12 254.26L91.67 252.57L87.54 256.79L88.86 262.69L94.31 264.38ZM88.86 262.69L87.54 256.79L82.09 255.10L77.96 259.32L79.28 265.22L84.73 266.91ZM101.25 250.04L99.93 244.14L94.48 242.45L90.34 246.67L91.67 252.57L97.12 254.26ZM91.67 252.57L90.34 246.67L84.89 244.98L80.76 249.20L82.09 255.10L87.54 256.79ZM108.02 257.64L106.70 251.73L101.25 250.04L97.12 254.26L98.44 260.16L103.89 261.85ZM139.62 239.95L138.31 234.04L132.85 232.34L128.71 236.56L130.02 242.47L135.48 244.17ZM130.02 242.47L128.71 236.56L123.25 234.87L119.11 239.08L120.43 244.99L125.88 246.69ZM142.45 229.82L141.14 223.91L135.68 222.21L131.53 226.43L132.85 232.34L138.31 234.04ZM132.85 232.34L131.53 226.43L126.07 224.74L121.93 228.96L123.25 234.87L128.71 236.56ZM146.40 247.56L145.08 241.65L139.62 239.95L135.48 244.17L136.80 250.08L142.25 251.77ZM136.80 250.08L135.48 244.17L130.02 242.47L125.88 246.69L127.20 252.59L132.66 254.29ZM149.23 237.43L147.91 231.52L142.45 229.82L138.31 234.04L139.62 239.95L145.08 241.65Z"/></svg>
