<svg xmlns="http://www.w3.org/2000/svg" width="256" height="256" viewBox="0 0 256 256"><path data-band="2" fill="#f97316" fill-opacity="0.35" d="M252.90 244.61L251.61 238.73L246.18 237.00L242.05 241.17L243.34 247.05L248.76 248.78ZM255.75 234.56L254.46 228.68L249.03 226.95L244.89 231.12L246.18 237.00L251.61 238.73ZM261.46 214.45L260.17 208.56L254.73 206.84L250.59 211.01L251.88 216.90L257.31 218.62ZM264.31 204.39L263.02 198.50L257.59 196.78L253.44 200.95L254.73 206.84L260.17 208.56ZM256.77 262.27L255.48 256.39L250.05 254.66L245.92 258.82L247.21 264.70L252.63 266.43ZM259.62 252.23L258.33 246.34L252.90 244.61L248.76 248.78L250.05 254.66L255.48 256.39ZM250.05 254.66L248.76 248.78L243.34 247.05L239.20 251.22L240.49 257.10L245.92 258.82ZM266.34 259.84L265.05 253.95L259.62 252.23L255.48 256.39L256.77 262.27L262.20 264.00ZM262.47 242.18L261.18 236.29L255.75 234.56L251.61 238.73L252.90 244.61L258.33 246.34ZM265.33 232.13L264.04 226.24L258.60 224.51L254.46 228.68L255.75 234.56L261.18 236.29Z"/><path data-band="3" fill="#dc2626" fill-opacity="0.35" d="M228.30 17.14L227.00 11.22L221.53 9.51L217.38 13.71L218.68 19.63L224.14 21.34ZM218.68 19.63L217.38 13.71L211.91 12.00L207.76 16.21L209.06 22.12L214.52 23.83ZM231.16 7.01L229.86 1.10L224.39 -0.62L220.23 3.59L221.53 9.51L227.00 11.22ZM221.53 9.51L220.23 3.59L214.77 1.88L210.61 6.09L211.91 12.00L217.38 13.71ZM235.06 24.77L233.76 18.85L228.30 17.14L224.14 21.34L225.44 27.26L230.90 28.97ZM225.44 27.26L224.14 21.34L218.68 19.63L214.52 23.83L215.82 29.75L221.28 31.46ZM237.92 14.65L236.62 8.73L231.16 7.01L227.00 11.22L228.30 17.14L233.76 18.85ZM202.30 14.50L200.99 8.58L195.53 6.88L191.38 11.08L192.68 17.00L198.14 18.70ZM192.68 17.00L191.38 11.08L185.92 9.38L181.77 13.59L183.08 19.50L188.53 21.20ZM205.15 4.38L203.84 -1.54L198.38 -3.25L194.22 0.96L195.53 6.88L200.99 8.58ZM195.53 6.88L194.22 0.96L188.76 -0.74L184.61 3.46L185.92 9.38L191.38 11.08ZM209.06 22.12L207.76 16.21L202.30 14.50L198.14 18.70L199.45 24.62L204.91 26.33ZM199.45 24.62L198.14 18.70L192.68 17.00L188.53 21.20L189.84 27.12L195.30 28.82ZM211.91 12.00L210.61 6.09L205.15 4.38L200.99 8.58L202.30 14.50L207.76 16.21ZM234.02 -3.11L232.72 -9.03L227.25 -10.75L223.09 -6.54L224.39 -0.62L229.86 1.10ZM250.42 2.04L249.12 -3.89L243.65 -5.60L239.49 -1.40L240.79 4.52L246.25 6.24ZM240.79 4.52L239.49 -1.40L234.02 -3.11L229.86 1.10L231.16 7.01L236.62 8.73ZM224.39 -0.62L223.09 -6.54L217.62 -8.25L213.46 -4.04L214.77 1.88L220.23 3.59ZM214.77 1.88L213.46 -4.04L208.00 -5.75L203.84 -1.54L205.15 4.38L210.61 6.09ZM238.96 42.52L237.66 36.60L232.20 34.89L228.04 39.09L229.35 45.00L234.80 46.72ZM229.35 45.00L228.04 39.09L222.59 37.37L218.43 41.57L219.73 47.49L225.19 49.20ZM241.82 32.40L240.52 26.48L235.06 24.77L230.90 28.97L232.20 34.89L237.66 36.60ZM232.20 34.89L230.90 28.97L225.44 27.26L221.28 31.46L222.59 37.37L228.04 39.09ZM245.72 50.15L244.42 44.23L238.96 42.52L234.80 46.72L236.10 52.63L241.56 54.34ZM236.10 52.63L234.80 46.72L229.35 45.00L225.19 49.20L226.49 55.11L231.95 56.83ZM248.58 40.04L247.29 34.12L241.82 32.40L237.66 36.60L238.96 42.52L244.42 44.23ZM212.97 39.86L211.67 33.95L206.21 32.24L202.06 36.44L203.36 42.35L208.82 44.06ZM203.36 42.35L202.06 36.44L196.60 34.73L192.45 38.94L193.76 44.85L199.21 46.55ZM215.82 29.75L214.52 23.83L209.06 22.12L204.91 26.33L206.21 32.24L211.67 33.95ZM206.21 32.24L204.91 26.33L199.45 24.62L195.30 28.82L196.60 34.73L202.06 36.44ZM219.73 47.49L218.43 41.57L212.97 39.86L208.82 44.06L210.12 49.97L215.58 51.68ZM210.12 49.97L208.82 44.06L203.36 42.35L199.21 46.55L200.52 52.46L205.97 54.17ZM222.59 37.37L221.28 31.46L215.82 29.75L211.67 33.95L212.97 39.86L218.43 41.57ZM254.32 19.80L253.02 13.88L247.55 12.16L243.39 16.36L244.69 22.28L250.15 24.00ZM244.69 22.28L243.39 16.36L237.92 14.65L233.76 18.85L235.06 24.77L240.52 26.48ZM257.19 9.68L255.89 3.75L250.42 2.04L246.25 6.24L247.55 12.16L253.02 13.88ZM247.55 12.16L246.25 6.24L240.79 4.52L236.62 8.73L237.92 14.65L243.39 16.36ZM261.08 27.44L259.78 21.52L254.32 19.80L250.15 24.00L251.45 29.92L256.91 31.64ZM251.45 29.92L250.15 24.00L244.69 22.28L240.52 26.48L241.82 32.40L247.29 34.12ZM263.95 17.32L262.65 11.39L257.19 9.68L253.02 13.88L254.32 19.80L259.78 21.52ZM161.04 34.62L159.73 28.71L154.27 27.01L150.13 31.22L151.44 37.12L156.90 38.82ZM151.44 37.12L150.13 31.22L144.68 29.52L140.54 33.73L141.85 39.63L147.30 41.33ZM163.87 24.50L162.56 18.60L157.10 16.90L152.96 21.10L154.27 27.01L159.73 28.71ZM154.27 27.01L152.96 21.10L147.51 19.41L143.37 23.61L144.68 29.52L150.13 31.22ZM167.80 42.23L166.49 36.32L161.04 34.62L156.90 38.82L158.21 44.73L163.66 46.43ZM158.21 44.73L156.90 38.82L151.44 37.12L147.30 41.33L148.62 47.23L154.07 48.93ZM170.63 32.12L169.32 26.21L163.87 24.50L159.73 28.71L161.04 34.62L166.49 36.32ZM135.09 32.03L133.78 26.13L128.33 24.43L124.19 28.64L125.51 34.54L130.96 36.24ZM125.51 34.54L124.19 28.64L118.74 26.95L114.61 31.15L115.93 37.06L121.37 38.75ZM137.92 21.92L136.60 16.01L131.15 14.32L127.01 18.53L128.33 24.43L133.78 26.13ZM128.33 24.43L127.01 18.53L121.56 16.83L117.43 21.04L118.74 26.95L124.19 28.64ZM141.85 39.63L140.54 33.73L135.09 32.03L130.96 36.24L132.27 42.14L137.72 43.84ZM132.27 42.14L130.96 36.24L125.51 34.54L121.37 38.75L122.69 44.65L128.14 46.34ZM144.68 29.52L143.37 23.61L137.92 21.92L133.78 26.13L135.09 32.03L140.54 33.73ZM176.31 11.88L175.00 5.97L169.54 4.27L165.39 8.48L166.70 14.39L172.16 16.09ZM166.70 14.39L165.39 8.48L159.94 6.78L155.79 10.99L157.10 16.90L162.56 18.60ZM179.15 1.76L177.84 -4.15L172.38 -5.86L168.23 -1.64L169.54 4.27L175.00 5.97ZM169.54 4.27L168.23 -1.64L162.77 -3.35L158.63 0.87L159.94 6.78L165.39 8.48ZM183.08 19.50L181.77 13.59L176.31 11.88L172.16 16.09L173.47 22.00L178.93 23.70ZM173.47 22.00L172.16 16.09L166.70 14.39L162.56 18.60L163.87 24.50L169.32 26.21ZM185.92 9.38L184.61 3.46L179.15 1.76L175.00 5.97L176.31 11.88L181.77 13.59ZM150.34 9.29L149.02 3.38L143.57 1.68L139.43 5.89L140.74 11.80L146.19 13.50ZM140.74 11.80L139.43 5.89L133.97 4.20L129.83 8.41L131.15 14.32L136.60 16.01ZM153.17 -0.83L151.86 -6.74L146.40 -8.44L142.25 -4.23L143.57 1.68L149.02 3.38ZM143.57 1.68L142.25 -4.23L136.80 -5.92L132.66 -1.71L133.97 4.20L139.43 5.89ZM157.10 16.90L155.79 10.99L150.34 9.29L146.19 13.50L147.51 19.41L152.96 21.10ZM147.51 19.41L146.19 13.50L140.74 11.80L136.60 16.01L137.92 21.92L143.37 23.61ZM159.94 6.78L158.63 0.87L153.17 -0.83L149.02 3.38L150.34 9.29L155.79 10.99ZM171.72 59.94L170.42 54.04L164.97 52.33L160.83 56.54L162.13 62.44L167.58 64.14ZM162.13 62.44L160.83 56.54L155.38 54.83L151.24 59.04L152.55 64.94L158.00 66.64ZM174.56 49.84L173.25 43.93L167.80 42.23L163.66 46.43L164.97 52.33L170.42 54.04ZM164.97 52.33L163.66 46.43L158.21 44.73L154.07 48.93L155.38 54.83L160.83 56.54ZM178.48 67.55L177.17 61.65L171.72 59.94L167.58 64.14L168.89 70.04L174.34 71.75ZM168.89 70.04L167.58 64.14L162.13 62.44L158.00 66.64L159.31 72.54L164.75 74.24ZM181.32 57.45L180.01 51.54L174.56 49.84L170.42 54.04L171.72 59.94L177.17 61.65ZM145.79 57.34L144.48 51.44L139.03 49.74L134.90 53.94L136.21 59.84L141.66 61.54ZM136.21 59.84L134.90 53.94L129.45 52.24L125.32 56.45L126.63 62.35L132.08 64.04ZM148.62 47.23L147.30 41.33L141.85 39.63L137.72 43.84L139.03 49.74L144.48 51.44ZM139.03 49.74L137.72 43.84L132.27 42.14L128.14 46.34L129.45 52.24L134.90 53.94ZM152.55 64.94L151.24 59.04L145.79 57.34L141.66 61.54L142.97 67.44L148.41 69.14ZM142.97 67.44L141.66 61.54L136.21 59.84L132.08 64.04L133.39 69.94L138.83 71.64ZM155.38 54.83L154.07 48.93L148.62 47.23L144.48 51.44L145.79 57.34L151.24 59.04ZM187.00 37.23L185.69 31.32L180.23 29.61L176.09 33.82L177.40 39.73L182.85 41.43ZM177.40 39.73L176.09 33.82L170.63 32.12L166.49 36.32L167.80 42.23L173.25 43.93ZM189.84 27.12L188.53 21.20L183.08 19.50L178.93 23.70L180.23 29.61L185.69 31.32ZM180.23 29.61L178.93 23.70L173.47 22.00L169.32 26.21L170.63 32.12L176.09 33.82ZM193.76 44.85L192.45 38.94L187.00 37.23L182.85 41.43L184.16 47.34L189.61 49.05ZM184.16 47.34L182.85 41.43L177.40 39.73L173.25 43.93L174.56 49.84L180.01 51.54ZM196.60 34.73L195.30 28.82L189.84 27.12L185.69 31.32L187.00 37.23L192.45 38.94ZM198.38 -3.25L197.07 -9.16L191.61 -10.87L187.45 -6.66L188.76 -0.74L194.22 0.96ZM188.76 -0.74L187.45 -6.66L181.99 -8.36L177.84 -4.15L179.15 1.76L184.61 3.46ZM162.77 -3.35L161.46 -9.26L156.00 -10.96L151.86 -6.74L153.17 -0.83L158.63 0.87ZM265.98 73.05L264.69 67.14L259.23 65.41L255.07 69.61L256.37 75.52L261.82 77.24ZM249.61 67.89L248.32 61.98L242.86 60.26L238.70 64.45L240.00 70.36L245.45 72.08ZM240.00 70.36L238.70 64.45L233.24 62.74L229.09 66.93L230.39 72.84L235.84 74.56ZM252.48 57.78L251.18 51.87L245.72 50.15L241.56 54.34L242.86 60.26L248.32 61.98ZM242.86 60.26L241.56 54.34L236.10 52.63L231.95 56.83L233.24 62.74L238.70 64.45ZM256.37 75.52L255.07 69.61L249.61 67.89L245.45 72.08L246.75 77.99L252.21 79.71ZM246.75 77.99L245.45 72.08L240.00 70.36L235.84 74.56L237.14 80.47L242.59 82.18ZM259.23 65.41L257.93 59.50L252.48 57.78L248.32 61.98L249.61 67.89L255.07 69.61ZM264.97 45.19L263.67 39.28L258.21 37.56L254.04 41.75L255.34 47.67L260.80 49.39ZM255.34 47.67L254.04 41.75L248.58 40.04L244.42 44.23L245.72 50.15L251.18 51.87ZM258.21 37.56L256.91 31.64L251.45 29.92L247.29 34.12L248.58 40.04L254.04 41.75ZM262.10 55.31L260.80 49.39L255.34 47.67L251.18 51.87L252.48 57.78L257.93 59.50ZM260.25 93.25L258.96 87.34L253.50 85.62L249.34 89.81L250.64 95.72L256.09 97.44ZM250.64 95.72L249.34 89.81L243.89 88.09L239.74 92.28L241.03 98.19L246.48 99.91ZM263.12 83.15L261.82 77.24L256.37 75.52L252.21 79.71L253.50 85.62L258.96 87.34ZM253.50 85.62L252.21 79.71L246.75 77.99L242.59 82.18L243.89 88.09L249.34 89.81ZM257.39 103.35L256.09 97.44L250.64 95.72L246.48 99.91L247.78 105.82L253.23 107.54ZM208.33 87.90L207.03 82.00L201.58 80.29L197.44 84.48L198.74 90.38L204.19 92.09ZM198.74 90.38L197.44 84.48L191.99 82.77L187.85 86.97L189.15 92.87L194.60 94.58ZM211.18 77.80L209.88 71.90L204.43 70.19L200.28 74.38L201.58 80.29L207.03 82.00ZM201.58 80.29L200.28 74.38L194.83 72.67L190.68 76.87L191.99 82.77L197.44 84.48ZM215.08 95.52L213.78 89.61L208.33 87.90L204.19 92.09L205.49 98.00L210.94 99.71ZM205.49 98.00L204.19 92.09L198.74 90.38L194.60 94.58L195.90 100.48L201.35 102.19ZM217.93 85.42L216.63 79.51L211.18 77.80L207.03 82.00L208.33 87.90L213.78 89.61ZM182.40 85.26L181.09 79.36L175.65 77.65L171.51 81.85L172.81 87.75L178.26 89.45ZM172.81 87.75L171.51 81.85L166.06 80.14L161.92 84.34L163.23 90.24L168.67 91.94ZM185.24 75.16L183.93 69.26L178.48 67.55L174.34 71.75L175.65 77.65L181.09 79.36ZM175.65 77.65L174.34 71.75L168.89 70.04L164.75 74.24L166.06 80.14L171.51 81.85ZM189.15 92.87L187.85 86.97L182.40 85.26L178.26 89.45L179.56 95.35L185.01 97.06ZM179.56 95.35L178.26 89.45L172.81 87.75L168.67 91.94L169.98 97.84L175.42 99.55ZM191.99 82.77L190.68 76.87L185.24 75.16L181.09 79.36L182.40 85.26L187.85 86.97ZM223.64 65.22L222.33 59.31L216.88 57.59L212.73 61.79L214.03 67.70L219.48 69.41ZM214.03 67.70L212.73 61.79L207.27 60.08L203.12 64.28L204.43 70.19L209.88 71.90ZM226.49 55.11L225.19 49.20L219.73 47.49L215.58 51.68L216.88 57.59L222.33 59.31ZM216.88 57.59L215.58 51.68L210.12 49.97L205.97 54.17L207.27 60.08L212.73 61.79ZM230.39 72.84L229.09 66.93L223.64 65.22L219.48 69.41L220.78 75.32L226.24 77.04ZM220.78 75.32L219.48 69.41L214.03 67.70L209.88 71.90L211.18 77.80L216.63 79.51ZM233.24 62.74L231.95 56.83L226.49 55.11L222.33 59.31L223.64 65.22L229.09 66.93ZM197.67 62.57L196.37 56.66L190.92 54.95L186.77 59.15L188.07 65.06L193.53 66.77ZM188.07 65.06L186.77 59.15L181.32 57.45L177.17 61.65L178.48 67.55L183.93 69.26ZM200.52 52.46L199.21 46.55L193.76 44.85L189.61 49.05L190.92 54.95L196.37 56.66ZM190.92 54.95L189.61 49.05L184.16 47.34L180.01 51.54L181.32 57.45L186.77 59.15ZM204.43 70.19L203.12 64.28L197.67 62.57L193.53 66.77L194.83 72.67L200.28 74.38ZM194.83 72.67L193.53 66.77L188.07 65.06L183.93 69.26L185.24 75.16L190.68 76.87ZM207.27 60.08L205.97 54.17L200.52 52.46L196.37 56.66L197.67 62.57L203.12 64.28ZM218.98 113.23L217.68 107.32L212.24 105.61L208.09 109.80L209.39 115.70L214.84 117.41ZM209.39 115.70L208.09 109.80L202.65 108.09L198.50 112.28L199.81 118.18L205.25 119.89ZM221.83 103.14L220.53 97.23L215.08 95.52L210.94 99.71L212.24 105.61L217.68 107.32ZM212.24 105.61L210.94 99.71L205.49 98.00L201.35 102.19L202.65 108.09L208.09 109.80ZM225.73 120.84L224.43 114.94L218.98 113.23L214.84 117.41L216.14 123.31L221.58 125.03ZM216.14 123.31L214.84 117.41L209.39 115.70L205.25 119.89L206.55 125.79L211.99 127.50ZM228.58 110.75L227.28 104.85L221.83 103.14L217.68 107.32L218.98 113.23L224.43 114.94ZM193.06 110.57L191.76 104.67L186.31 102.96L182.17 107.15L183.48 113.05L188.92 114.76ZM183.48 113.05L182.17 107.15L176.73 105.44L172.59 109.64L173.90 115.53L179.34 117.24ZM195.90 100.48L194.60 94.58L189.15 92.87L185.01 97.06L186.31 102.96L191.76 104.67ZM186.31 102.96L185.01 97.06L179.56 95.35L175.42 99.55L176.73 105.44L182.17 107.15ZM199.81 118.18L198.50 112.28L193.06 110.57L188.92 114.76L190.22 120.65L195.67 122.36ZM190.22 120.65L188.92 114.76L183.48 113.05L179.34 117.24L180.64 123.13L186.09 124.84ZM202.65 108.09L201.35 102.19L195.90 100.48L191.76 104.67L193.06 110.57L198.50 112.28ZM234.29 90.57L232.99 84.66L227.53 82.94L223.38 87.14L224.68 93.04L230.13 94.76ZM224.68 93.04L223.38 87.14L217.93 85.42L213.78 89.61L215.08 95.52L220.53 97.23ZM237.14 80.47L235.84 74.56L230.39 72.84L226.24 77.04L227.53 82.94L232.99 84.66ZM227.53 82.94L226.24 77.04L220.78 75.32L216.63 79.51L217.93 85.42L223.38 87.14ZM241.03 98.19L239.74 92.28L234.29 90.57L230.13 94.76L231.43 100.66L236.88 102.38ZM231.43 100.66L230.13 94.76L224.68 93.04L220.53 97.23L221.83 103.14L227.28 104.85ZM243.89 88.09L242.59 82.18L237.14 80.47L232.99 84.66L234.29 90.57L239.74 92.28ZM260.06 -0.45L258.76 -6.38L253.29 -8.09L249.12 -3.89L250.42 2.04L255.89 3.75ZM266.82 7.19L265.53 1.27L260.06 -0.45L255.89 3.75L257.19 9.68L262.65 11.39ZM235.58 211.73L234.29 205.84L228.86 204.12L224.72 208.29L226.01 214.18L231.45 215.90ZM226.01 214.18L224.72 208.29L219.29 206.58L215.15 210.75L216.45 216.63L221.88 218.35ZM238.43 201.67L237.14 195.78L231.70 194.06L227.56 198.23L228.86 204.12L234.29 205.84ZM228.86 204.12L227.56 198.23L222.13 196.52L217.99 200.69L219.29 206.58L224.72 208.29ZM242.31 219.34L241.02 213.45L235.58 211.73L231.45 215.90L232.74 221.79L238.17 223.51ZM232.74 221.79L231.45 215.90L226.01 214.18L221.88 218.35L223.17 224.24L228.60 225.96ZM245.16 209.28L243.86 203.39L238.43 201.67L234.29 205.84L235.58 211.73L241.02 213.45ZM209.72 209.03L208.43 203.14L203.00 201.43L198.86 205.60L200.16 211.49L205.59 213.20ZM200.16 211.49L198.86 205.60L193.44 203.89L189.31 208.06L190.61 213.95L196.03 215.66ZM212.56 198.97L211.26 193.08L205.83 191.37L201.70 195.54L203.00 201.43L208.43 203.14ZM203.00 201.43L201.70 195.54L196.27 193.83L192.14 198.00L193.44 203.89L198.86 205.60ZM216.45 216.63L215.15 210.75L209.72 209.03L205.59 213.20L206.89 219.09L212.32 220.80ZM206.89 219.09L205.59 213.20L200.16 211.49L196.03 215.66L197.33 221.54L202.76 223.26ZM219.29 206.58L217.99 200.69L212.56 198.97L208.43 203.14L209.72 209.03L215.15 210.75ZM250.86 189.16L249.57 183.26L244.13 181.54L239.98 185.72L241.28 191.61L246.71 193.33ZM241.28 191.61L239.98 185.72L234.55 184.00L230.41 188.17L231.70 194.06L237.14 195.78ZM253.71 179.09L252.42 173.19L246.98 171.47L242.83 175.65L244.13 181.54L249.57 183.26ZM244.13 181.54L242.83 175.65L237.40 173.93L233.25 178.10L234.55 184.00L239.98 185.72ZM257.59 196.78L256.30 190.88L250.86 189.16L246.71 193.33L248.01 199.22L253.44 200.95ZM248.01 199.22L246.71 193.33L241.28 191.61L237.14 195.78L238.43 201.67L243.86 203.39ZM260.44 186.71L259.15 180.81L253.71 179.09L249.57 183.26L250.86 189.16L256.30 190.88ZM224.97 186.45L223.68 180.56L218.24 178.84L214.10 183.02L215.40 188.91L220.83 190.63ZM215.40 188.91L214.10 183.02L208.67 181.30L204.53 185.48L205.83 191.37L211.26 193.08ZM227.82 176.38L226.52 170.49L221.08 168.77L216.94 172.95L218.24 178.84L223.68 180.56ZM218.24 178.84L216.94 172.95L211.51 171.24L207.37 175.41L208.67 181.30L214.10 183.02ZM231.70 194.06L230.41 188.17L224.97 186.45L220.83 190.63L222.13 196.52L227.56 198.23ZM222.13 196.52L220.83 190.63L215.40 188.91L211.26 193.08L212.56 198.97L217.99 200.69ZM234.55 184.00L233.25 178.10L227.82 176.38L223.68 180.56L224.97 186.45L230.41 188.17ZM246.18 237.00L244.89 231.12L239.46 229.40L235.33 233.56L236.62 239.45L242.05 241.17ZM236.62 239.45L235.33 233.56L229.90 231.84L225.76 236.01L227.06 241.89L232.48 243.61ZM249.03 226.95L247.74 221.06L242.31 219.34L238.17 223.51L239.46 229.40L244.89 231.12ZM239.46 229.40L238.17 223.51L232.74 221.79L228.60 225.96L229.90 231.84L235.33 233.56ZM243.34 247.05L242.05 241.17L236.62 239.45L232.48 243.61L233.78 249.49L239.20 251.22ZM220.34 234.29L219.04 228.40L213.61 226.69L209.48 230.85L210.78 236.74L216.20 238.45ZM210.78 236.74L209.48 230.85L204.06 229.14L199.93 233.31L201.22 239.19L206.65 240.90ZM223.17 224.24L221.88 218.35L216.45 216.63L212.32 220.80L213.61 226.69L219.04 228.40ZM213.61 226.69L212.32 220.80L206.89 219.09L202.76 223.26L204.06 229.14L209.48 230.85ZM227.06 241.89L225.76 236.01L220.34 234.29L216.20 238.45L217.50 244.34L222.92 246.05ZM217.50 244.34L216.20 238.45L210.78 236.74L206.65 240.90L207.94 246.78L213.37 248.50ZM229.90 231.84L228.60 225.96L223.17 224.24L219.04 228.40L220.34 234.29L225.76 236.01ZM251.88 216.90L250.59 211.01L245.16 209.28L241.02 213.45L242.31 219.34L247.74 221.06ZM254.73 206.84L253.44 200.95L248.01 199.22L243.86 203.39L245.16 209.28L250.59 211.01ZM258.60 224.51L257.31 218.62L251.88 216.90L247.74 221.06L249.03 226.95L254.46 228.68ZM255.55 141.24L254.25 135.34L248.81 133.62L244.66 137.80L245.95 143.70L251.40 145.42ZM245.95 143.70L244.66 137.80L239.21 136.08L235.07 140.26L236.36 146.16L241.80 147.88ZM258.41 131.16L257.11 125.25L251.67 123.53L247.51 127.71L248.81 133.62L254.25 135.34ZM248.81 133.62L247.51 127.71L242.07 126.00L237.92 130.18L239.21 136.08L244.66 137.80ZM262.29 148.87L260.99 142.96L255.55 141.24L251.40 145.42L252.69 151.32L258.13 153.04ZM252.69 151.32L251.40 145.42L245.95 143.70L241.80 147.88L243.10 153.78L248.54 155.50ZM265.15 138.78L263.86 132.88L258.41 131.16L254.25 135.34L255.55 141.24L260.99 142.96ZM229.62 138.54L228.32 132.64L222.88 130.93L218.74 135.11L220.03 141.01L225.48 142.73ZM220.03 141.01L218.74 135.11L213.29 133.40L209.15 137.58L210.45 143.48L215.89 145.19ZM232.47 128.46L231.17 122.56L225.73 120.84L221.58 125.03L222.88 130.93L228.32 132.64ZM222.88 130.93L221.58 125.03L216.14 123.31L211.99 127.50L213.29 133.40L218.74 135.11ZM236.36 146.16L235.07 140.26L229.62 138.54L225.48 142.73L226.77 148.62L232.21 150.34ZM226.77 148.62L225.48 142.73L220.03 141.01L215.89 145.19L217.19 151.09L222.63 152.80ZM239.21 136.08L237.92 130.18L232.47 128.46L228.32 132.64L229.62 138.54L235.07 140.26ZM261.27 121.07L259.98 115.16L254.53 113.44L250.37 117.63L251.67 123.53L257.11 125.25ZM264.13 110.98L262.84 105.07L257.39 103.35L253.23 107.54L254.53 113.44L259.98 115.16ZM244.92 115.91L243.63 110.00L238.18 108.28L234.03 112.47L235.32 118.37L240.77 120.09ZM235.32 118.37L234.03 112.47L228.58 110.75L224.43 114.94L225.73 120.84L231.17 122.56ZM247.78 105.82L246.48 99.91L241.03 98.19L236.88 102.38L238.18 108.28L243.63 110.00ZM238.18 108.28L236.88 102.38L231.43 100.66L227.28 104.85L228.58 110.75L234.03 112.47ZM251.67 123.53L250.37 117.63L244.92 115.91L240.77 120.09L242.07 126.00L247.51 127.71ZM242.07 126.00L240.77 120.09L235.32 118.37L231.17 122.56L232.47 128.46L237.92 130.18ZM254.53 113.44L253.23 107.54L247.78 105.82L243.63 110.00L244.92 115.91L250.37 117.63ZM266.16 166.57L264.87 160.67L259.43 158.94L255.28 163.12L256.57 169.02L262.01 170.74ZM256.57 169.02L255.28 163.12L249.83 161.40L245.69 165.58L246.98 171.47L252.42 173.19ZM259.43 158.94L258.13 153.04L252.69 151.32L248.54 155.50L249.83 161.40L255.28 163.12ZM263.30 176.64L262.01 170.74L256.57 169.02L252.42 173.19L253.71 179.09L259.15 180.81ZM240.25 163.85L238.95 157.96L233.51 156.24L229.37 160.42L230.66 166.31L236.10 168.03ZM230.66 166.31L229.37 160.42L223.93 158.70L219.79 162.88L221.08 168.77L226.52 170.49ZM243.10 153.78L241.80 147.88L236.36 146.16L232.21 150.34L233.51 156.24L238.95 157.96ZM233.51 156.24L232.21 150.34L226.77 148.62L222.63 152.80L223.93 158.70L229.37 160.42ZM246.98 171.47L245.69 165.58L240.25 163.85L236.10 168.03L237.40 173.93L242.83 175.65ZM237.40 173.93L236.10 168.03L230.66 166.31L226.52 170.49L227.82 176.38L233.25 178.10ZM249.83 161.40L248.54 155.50L243.10 153.78L238.95 157.96L240.25 163.85L245.69 165.58ZM3.38 188.20L2.05 182.34L-3.36 180.66L-7.44 184.85L-6.12 190.72L-0.71 192.39ZM6.14 178.15L4.81 172.28L-0.60 170.61L-4.69 174.80L-3.36 180.66L2.05 182.34ZM10.12 195.74L8.79 189.88L3.38 188.20L-0.71 192.39L0.62 198.25L6.03 199.93ZM0.62 198.25L-0.71 192.39L-6.12 190.72L-10.20 194.90L-8.87 200.76L-3.46 202.44ZM12.88 185.69L11.55 179.83L6.14 178.15L2.05 182.34L3.38 188.20L8.79 189.88ZM1.84 225.88L0.51 220.02L-4.89 218.34L-8.97 222.53L-7.65 228.38L-2.24 230.06ZM5.81 243.45L4.48 237.59L-0.92 235.92L-5.00 240.09L-3.67 245.95L1.73 247.63ZM8.56 233.41L7.24 227.56L1.84 225.88L-2.24 230.06L-0.92 235.92L4.48 237.59ZM14.09 213.33L12.76 207.47L7.35 205.79L3.27 209.98L4.59 215.84L10.00 217.51ZM4.59 215.84L3.27 209.98L-2.14 208.30L-6.22 212.48L-4.89 218.34L0.51 220.02ZM16.85 203.29L15.53 197.42L10.12 195.74L6.03 199.93L7.35 205.79L12.76 207.47ZM7.35 205.79L6.03 199.93L0.62 198.25L-3.46 202.44L-2.14 208.30L3.27 209.98ZM20.82 220.87L19.50 215.01L14.09 213.33L10.00 217.51L11.32 223.37L16.73 225.05ZM11.32 223.37L10.00 217.51L4.59 215.84L0.51 220.02L1.84 225.88L7.24 227.56ZM23.58 210.83L22.26 204.97L16.85 203.29L12.76 207.47L14.09 213.33L19.50 215.01ZM7.69 140.42L6.36 134.55L0.94 132.87L-3.15 137.07L-1.82 142.94L3.60 144.61ZM10.46 130.35L9.13 124.48L3.71 122.80L-0.38 127.00L0.94 132.87L6.36 134.55ZM0.94 132.87L-0.38 127.00L-5.81 125.33L-9.90 129.53L-8.57 135.40L-3.15 137.07ZM14.44 147.97L13.11 142.10L7.69 140.42L3.60 144.61L4.93 150.49L10.34 152.16ZM4.93 150.49L3.60 144.61L-1.82 142.94L-5.91 147.14L-4.58 153.01L0.84 154.68ZM17.21 137.90L15.88 132.03L10.46 130.35L6.36 134.55L7.69 140.42L13.11 142.10ZM22.75 117.75L21.42 111.88L16.00 110.20L11.90 114.40L13.23 120.28L18.65 121.95ZM13.23 120.28L11.90 114.40L6.48 112.73L2.38 116.93L3.71 122.80L9.13 124.48ZM25.52 107.68L24.20 101.80L18.77 100.12L14.67 104.32L16.00 110.20L21.42 111.88ZM16.00 110.20L14.67 104.32L9.24 102.65L5.15 106.85L6.48 112.73L11.90 114.40ZM29.50 125.31L28.17 119.43L22.75 117.75L18.65 121.95L19.98 127.83L25.40 129.51ZM19.98 127.83L18.65 121.95L13.23 120.28L9.13 124.48L10.46 130.35L15.88 132.03ZM32.27 115.23L30.95 109.35L25.52 107.68L21.42 111.88L22.75 117.75L28.17 119.43ZM3.71 122.80L2.38 116.93L-3.04 115.25L-7.13 119.45L-5.81 125.33L-0.38 127.00ZM6.48 112.73L5.15 106.85L-0.28 105.18L-4.37 109.38L-3.04 115.25L2.38 116.93ZM18.41 165.58L17.09 159.71L11.67 158.03L7.58 162.22L8.90 168.09L14.32 169.77ZM8.90 168.09L7.58 162.22L2.16 160.55L-1.93 164.74L-0.60 170.61L4.81 172.28ZM21.18 155.52L19.86 149.64L14.44 147.97L10.34 152.16L11.67 158.03L17.09 159.71ZM11.67 158.03L10.34 152.16L4.93 150.49L0.84 154.68L2.16 160.55L7.58 162.22ZM25.15 173.13L23.83 167.26L18.41 165.58L14.32 169.77L15.64 175.64L21.06 177.32ZM15.64 175.64L14.32 169.77L8.90 168.09L4.81 172.28L6.14 178.15L11.55 179.83ZM27.92 163.07L26.60 157.20L21.18 155.52L17.09 159.71L18.41 165.58L23.83 167.26ZM2.16 160.55L0.84 154.68L-4.58 153.01L-8.67 157.20L-7.34 163.07L-1.93 164.74ZM33.47 142.94L32.15 137.06L26.72 135.38L22.63 139.58L23.95 145.45L29.37 147.13ZM23.95 145.45L22.63 139.58L17.21 137.90L13.11 142.10L14.44 147.97L19.86 149.64ZM36.25 132.87L34.92 126.99L29.50 125.31L25.40 129.51L26.72 135.38L32.15 137.06ZM26.72 135.38L25.40 129.51L19.98 127.83L15.88 132.03L17.21 137.90L22.63 139.58ZM40.21 150.49L38.89 144.62L33.47 142.94L29.37 147.13L30.70 153.00L36.12 154.68ZM30.70 153.00L29.37 147.13L23.95 145.45L19.86 149.64L21.18 155.52L26.60 157.20ZM42.99 140.42L41.67 134.55L36.25 132.87L32.15 137.06L33.47 142.94L38.89 144.62ZM46.60 -0.87L45.27 -6.77L39.82 -8.45L35.71 -4.23L37.03 1.67L42.48 3.35ZM37.03 1.67L35.71 -4.23L30.26 -5.90L26.15 -1.68L27.48 4.21L32.92 5.89ZM53.37 6.70L52.04 0.81L46.60 -0.87L42.48 3.35L43.81 9.24L49.25 10.92ZM43.81 9.24L42.48 3.35L37.03 1.67L32.92 5.89L34.25 11.78L39.69 13.46ZM56.17 -3.41L54.84 -9.31L49.39 -10.99L45.27 -6.77L46.60 -0.87L52.04 0.81ZM20.70 -3.36L19.37 -9.25L13.93 -10.93L9.81 -6.70L11.15 -0.81L16.59 0.86ZM11.15 -0.81L9.81 -6.70L4.37 -8.37L0.26 -4.15L1.60 1.74L7.04 3.41ZM27.48 4.21L26.15 -1.68L20.70 -3.36L16.59 0.86L17.92 6.76L23.36 8.43ZM17.92 6.76L16.59 0.86L11.15 -0.81L7.04 3.41L8.37 9.30L13.81 10.98ZM57.35 24.39L56.02 18.50L50.58 16.82L46.46 21.03L47.79 26.93L53.23 28.61ZM47.79 26.93L46.46 21.03L41.02 19.35L36.90 23.57L38.23 29.46L43.67 31.14ZM60.14 14.28L58.82 8.39L53.37 6.70L49.25 10.92L50.58 16.82L56.02 18.50ZM50.58 16.82L49.25 10.92L43.81 9.24L39.69 13.46L41.02 19.35L46.46 21.03ZM64.11 31.97L62.79 26.08L57.35 24.39L53.23 28.61L54.55 34.50L59.99 36.18ZM54.55 34.50L53.23 28.61L47.79 26.93L43.67 31.14L45.00 37.03L50.44 38.71ZM66.91 21.86L65.59 15.97L60.14 14.28L56.02 18.50L57.35 24.39L62.79 26.08ZM31.46 21.89L30.13 16.00L24.69 14.32L20.58 18.54L21.91 24.43L27.35 26.11ZM21.91 24.43L20.58 18.54L15.14 16.87L11.03 21.08L12.36 26.97L17.80 28.65ZM34.25 11.78L32.92 5.89L27.48 4.21L23.36 8.43L24.69 14.32L30.13 16.00ZM24.69 14.32L23.36 8.43L17.92 6.76L13.81 10.98L15.14 16.87L20.58 18.54ZM38.23 29.46L36.90 23.57L31.46 21.89L27.35 26.11L28.68 32.00L34.12 33.68ZM28.68 32.00L27.35 26.11L21.91 24.43L17.80 28.65L19.13 34.54L24.57 36.21ZM41.02 19.35L39.69 13.46L34.25 11.78L30.13 16.00L31.46 21.89L36.90 23.57ZM72.51 1.64L71.19 -4.27L65.74 -5.95L61.61 -1.73L62.94 4.17L68.39 5.85ZM62.94 4.17L61.61 -1.73L56.17 -3.41L52.04 0.81L53.37 6.70L58.82 8.39ZM79.28 9.22L77.96 3.32L72.51 1.64L68.39 5.85L69.71 11.75L75.16 13.43ZM69.71 11.75L68.39 5.85L62.94 4.17L58.82 8.39L60.14 14.28L65.59 15.97ZM82.09 -0.90L80.76 -6.80L75.31 -8.48L71.19 -4.27L72.51 1.64L77.96 3.32ZM1.60 1.74L0.26 -4.15L-5.18 -5.82L-9.29 -1.60L-7.95 4.29L-2.51 5.96ZM0.05 39.62L-1.29 33.73L-6.72 32.06L-10.82 36.28L-9.49 42.16L-4.06 43.83ZM5.59 19.41L4.26 13.52L-1.18 11.85L-5.28 16.07L-3.95 21.96L1.49 23.63ZM8.37 9.30L7.04 3.41L1.60 1.74L-2.51 5.96L-1.18 11.85L4.26 13.52ZM12.36 26.97L11.03 21.08L5.59 19.41L1.49 23.63L2.82 29.52L8.26 31.19ZM2.82 29.52L1.49 23.63L-3.95 21.96L-8.05 26.18L-6.72 32.06L-1.29 33.73ZM15.14 16.87L13.81 10.98L8.37 9.30L4.26 13.52L5.59 19.41L11.03 21.08ZM93.97 52.19L92.65 46.30L87.21 44.61L83.08 48.82L84.40 54.71L89.85 56.40ZM84.40 54.71L83.08 48.82L77.64 47.13L73.52 51.34L74.84 57.23L80.28 58.92ZM96.78 42.09L95.46 36.19L90.01 34.50L85.89 38.71L87.21 44.61L92.65 46.30ZM87.21 44.61L85.89 38.71L80.44 37.03L76.32 41.23L77.64 47.13L83.08 48.82ZM100.73 59.78L99.41 53.88L93.97 52.19L89.85 56.40L91.17 62.29L96.61 63.98ZM91.17 62.29L89.85 56.40L84.40 54.71L80.28 58.92L81.60 64.81L87.04 66.50ZM103.54 49.68L102.22 43.78L96.78 42.09L92.65 46.30L93.97 52.19L99.41 53.88ZM68.08 49.65L66.76 43.76L61.32 42.08L57.20 46.29L58.53 52.18L63.96 53.86ZM58.53 52.18L57.20 46.29L51.76 44.60L47.65 48.81L48.97 54.71L54.41 56.39ZM70.88 39.55L69.56 33.65L64.11 31.97L59.99 36.18L61.32 42.08L66.76 43.76ZM61.32 42.08L59.99 36.18L54.55 34.50L50.44 38.71L51.76 44.60L57.20 46.29ZM74.84 57.23L73.52 51.34L68.08 49.65L63.96 53.86L65.29 59.75L70.73 61.44ZM65.29 59.75L63.96 53.86L58.53 52.18L54.41 56.39L55.73 62.28L61.17 63.96ZM77.64 47.13L76.32 41.23L70.88 39.55L66.76 43.76L68.08 49.65L73.52 51.34ZM109.16 29.46L107.84 23.56L102.39 21.87L98.27 26.08L99.58 31.98L105.03 33.67ZM99.58 31.98L98.27 26.08L92.82 24.39L88.69 28.60L90.01 34.50L95.46 36.19ZM111.98 19.35L110.66 13.45L105.21 11.76L101.08 15.97L102.39 21.87L107.84 23.56ZM102.39 21.87L101.08 15.97L95.63 14.28L91.50 18.49L92.82 24.39L98.27 26.08ZM115.93 37.06L114.61 31.15L109.16 29.46L105.03 33.67L106.35 39.57L111.80 41.26ZM106.35 39.57L105.03 33.67L99.58 31.98L95.46 36.19L96.78 42.09L102.22 43.78ZM118.74 26.95L117.43 21.04L111.98 19.35L107.84 23.56L109.16 29.46L114.61 31.15ZM83.25 26.92L81.92 21.02L76.48 19.33L72.36 23.55L73.68 29.44L79.12 31.13ZM73.68 29.44L72.36 23.55L66.91 21.86L62.79 26.08L64.11 31.97L69.56 33.65ZM86.05 16.81L84.73 10.91L79.28 9.22L75.16 13.43L76.48 19.33L81.92 21.02ZM76.48 19.33L75.16 13.43L69.71 11.75L65.59 15.97L66.91 21.86L72.36 23.55ZM90.01 34.50L88.69 28.60L83.25 26.92L79.12 31.13L80.44 37.03L85.89 38.71ZM80.44 37.03L79.12 31.13L73.68 29.44L69.56 33.65L70.88 39.55L76.32 41.23ZM92.82 24.39L91.50 18.49L86.05 16.81L81.92 21.02L83.25 26.92L88.69 28.60ZM104.68 77.46L103.36 71.57L97.92 69.88L93.80 74.08L95.12 79.97L100.56 81.66ZM95.12 79.97L93.80 74.08L88.36 72.39L84.24 76.59L85.56 82.48L91.00 84.17ZM107.49 67.36L106.17 61.47L100.73 59.78L96.61 63.98L97.92 69.88L103.36 71.57ZM97.92 69.88L96.61 63.98L91.17 62.29L87.04 66.50L88.36 72.39L93.80 74.08ZM111.44 85.05L110.12 79.15L104.68 77.46L100.56 81.66L101.87 87.55L107.31 89.25ZM101.87 87.55L100.56 81.66L95.12 79.97L91.00 84.17L92.32 90.06L97.75 91.75ZM114.25 74.95L112.93 69.06L107.49 67.36L103.36 71.57L104.68 77.46L110.12 79.15ZM78.80 74.90L77.48 69.01L72.05 67.33L67.93 71.53L69.25 77.42L74.69 79.11ZM69.25 77.42L67.93 71.53L62.49 69.85L58.38 74.05L59.70 79.94L65.14 81.63ZM81.60 64.81L80.28 58.92L74.84 57.23L70.73 61.44L72.05 67.33L77.48 69.01ZM72.05 67.33L70.73 61.44L65.29 59.75L61.17 63.96L62.49 69.85L67.93 71.53ZM85.56 82.48L84.24 76.59L78.80 74.90L74.69 79.11L76.01 85.00L81.44 86.68ZM76.01 85.00L74.69 79.11L69.25 77.42L65.14 81.63L66.46 87.51L71.89 89.20ZM88.36 72.39L87.04 66.50L81.60 64.81L77.48 69.01L78.80 74.90L84.24 76.59ZM119.87 54.75L118.56 48.85L113.11 47.16L108.98 51.37L110.30 57.26L115.74 58.96ZM110.30 57.26L108.98 51.37L103.54 49.68L99.41 53.88L100.73 59.78L106.17 61.47ZM122.69 44.65L121.37 38.75L115.93 37.06L111.80 41.26L113.11 47.16L118.56 48.85ZM113.11 47.16L111.80 41.26L106.35 39.57L102.22 43.78L103.54 49.68L108.98 51.37ZM126.63 62.35L125.32 56.45L119.87 54.75L115.74 58.96L117.06 64.85L122.50 66.55ZM117.06 64.85L115.74 58.96L110.30 57.26L106.17 61.47L107.49 67.36L112.93 69.06ZM129.45 52.24L128.14 46.34L122.69 44.65L118.56 48.85L119.87 54.75L125.32 56.45ZM27.10 69.86L25.77 63.97L20.34 62.30L16.23 66.51L17.56 72.39L22.99 74.07ZM17.56 72.39L16.23 66.51L10.80 64.83L6.70 69.04L8.03 74.92L13.46 76.60ZM29.88 59.76L28.55 53.88L23.12 52.20L19.01 56.41L20.34 62.30L25.77 63.97ZM20.34 62.30L19.01 56.41L13.58 54.74L9.47 58.95L10.80 64.83L16.23 66.51ZM33.86 77.42L32.53 71.54L27.10 69.86L22.99 74.07L24.32 79.95L29.75 81.63ZM24.32 79.95L22.99 74.07L17.56 72.39L13.46 76.60L14.79 82.48L20.22 84.15ZM36.64 67.33L35.31 61.44L29.88 59.76L25.77 63.97L27.10 69.86L32.53 71.54ZM1.27 67.37L-0.06 61.49L-5.49 59.81L-9.59 64.03L-8.26 69.91L-2.83 71.58ZM4.04 57.27L2.71 51.39L-2.72 49.72L-6.83 53.93L-5.49 59.81L-0.06 61.49ZM8.03 74.92L6.70 69.04L1.27 67.37L-2.83 71.58L-1.50 77.46L3.93 79.13ZM10.80 64.83L9.47 58.95L4.04 57.27L-0.06 61.49L1.27 67.37L6.70 69.04ZM42.21 47.14L40.88 41.24L35.44 39.57L31.33 43.78L32.66 49.67L38.10 51.35ZM32.66 49.67L31.33 43.78L25.90 42.10L21.79 46.31L23.12 52.20L28.55 53.88ZM45.00 37.03L43.67 31.14L38.23 29.46L34.12 33.68L35.44 39.57L40.88 41.24ZM35.44 39.57L34.12 33.68L28.68 32.00L24.57 36.21L25.90 42.10L31.33 43.78ZM48.97 54.71L47.65 48.81L42.21 47.14L38.10 51.35L39.42 57.23L44.86 58.91ZM39.42 57.23L38.10 51.35L32.66 49.67L28.55 53.88L29.88 59.76L35.31 61.44ZM51.76 44.60L50.44 38.71L45.00 37.03L40.88 41.24L42.21 47.14L47.65 48.81ZM16.35 44.64L15.02 38.75L9.59 37.08L5.48 41.29L6.81 47.18L12.25 48.85ZM6.81 47.18L5.48 41.29L0.05 39.62L-4.06 43.83L-2.72 49.72L2.71 51.39ZM19.13 34.54L17.80 28.65L12.36 26.97L8.26 31.19L9.59 37.08L15.02 38.75ZM9.59 37.08L8.26 31.19L2.82 29.52L-1.29 33.73L0.05 39.62L5.48 41.29ZM23.12 52.20L21.79 46.31L16.35 44.64L12.25 48.85L13.58 54.74L19.01 56.41ZM13.58 54.74L12.25 48.85L6.81 47.18L2.71 51.39L4.04 57.27L9.47 58.95ZM25.90 42.10L24.57 36.21L19.13 34.54L15.02 38.75L16.35 44.64L21.79 46.31ZM37.83 95.07L36.51 89.19L31.08 87.51L26.97 91.71L28.30 97.59L33.73 99.27ZM28.30 97.59L26.97 91.71L21.54 90.04L17.44 94.24L18.77 100.12L24.20 101.80ZM40.62 84.98L39.29 79.10L33.86 77.42L29.75 81.63L31.08 87.51L36.51 89.19ZM31.08 87.51L29.75 81.63L24.32 79.95L20.22 84.15L21.54 90.04L26.97 91.71ZM44.59 102.63L43.26 96.75L37.83 95.07L33.73 99.27L35.05 105.15L40.48 106.83ZM35.05 105.15L33.73 99.27L28.30 97.59L24.20 101.80L25.52 107.68L30.95 109.35ZM47.37 92.55L46.05 86.67L40.62 84.98L36.51 89.19L37.83 95.07L43.26 96.75ZM12.01 92.56L10.69 86.68L5.26 85.01L1.16 89.22L2.49 95.09L7.92 96.77ZM2.49 95.09L1.16 89.22L-4.27 87.54L-8.36 91.75L-7.03 97.63L-1.61 99.30ZM14.79 82.48L13.46 76.60L8.03 74.92L3.93 79.13L5.26 85.01L10.69 86.68ZM5.26 85.01L3.93 79.13L-1.50 77.46L-5.60 81.67L-4.27 87.54L1.16 89.22ZM18.77 100.12L17.44 94.24L12.01 92.56L7.92 96.77L9.24 102.65L14.67 104.32ZM9.24 102.65L7.92 96.77L2.49 95.09L-1.61 99.30L-0.28 105.18L5.15 106.85ZM21.54 90.04L20.22 84.15L14.79 82.48L10.69 86.68L12.01 92.56L17.44 94.24ZM52.94 72.37L51.62 66.48L46.18 64.80L42.07 69.01L43.40 74.90L48.83 76.58ZM43.40 74.90L42.07 69.01L36.64 67.33L32.53 71.54L33.86 77.42L39.29 79.10ZM55.73 62.28L54.41 56.39L48.97 54.71L44.86 58.91L46.18 64.80L51.62 66.48ZM46.18 64.80L44.86 58.91L39.42 57.23L35.31 61.44L36.64 67.33L42.07 69.01ZM59.70 79.94L58.38 74.05L52.94 72.37L48.83 76.58L50.16 82.46L55.59 84.14ZM50.16 82.46L48.83 76.58L43.40 74.90L39.29 79.10L40.62 84.98L46.05 86.67ZM62.49 69.85L61.17 63.96L55.73 62.28L51.62 66.48L52.94 72.37L58.38 74.05ZM124.38 6.71L123.06 0.81L117.61 -0.88L113.47 3.33L114.79 9.23L120.24 10.93ZM114.79 9.23L113.47 3.33L108.02 1.64L103.89 5.85L105.21 11.76L110.66 13.45ZM127.20 -3.41L125.88 -9.31L120.43 -11.01L116.29 -6.79L117.61 -0.88L123.06 0.81ZM117.61 -0.88L116.29 -6.79L110.84 -8.48L106.70 -4.27L108.02 1.64L113.47 3.33ZM131.15 14.32L129.83 8.41L124.38 6.71L120.24 10.93L121.56 16.83L127.01 18.53ZM121.56 16.83L120.24 10.93L114.79 9.23L110.66 13.45L111.98 19.35L117.43 21.04ZM133.97 4.20L132.66 -1.71L127.20 -3.41L123.06 0.81L124.38 6.71L129.83 8.41ZM98.44 4.16L97.12 -1.74L91.67 -3.43L87.54 0.79L88.86 6.69L94.31 8.38ZM88.86 6.69L87.54 0.79L82.09 -0.90L77.96 3.32L79.28 9.22L84.73 10.91ZM91.67 -3.43L90.34 -9.33L84.89 -11.02L80.76 -6.80L82.09 -0.90L87.54 0.79ZM105.21 11.76L103.89 5.85L98.44 4.16L94.31 8.38L95.63 14.28L101.08 15.97ZM95.63 14.28L94.31 8.38L88.86 6.69L84.73 10.91L86.05 16.81L91.50 18.49ZM108.02 1.64L106.70 -4.27L101.25 -5.96L97.12 -1.74L98.44 4.16L103.89 5.85ZM38.23 253.54L36.91 247.68L31.51 246.00L27.42 250.17L28.74 256.03L34.15 257.71ZM28.74 256.03L27.42 250.17L22.02 248.49L17.94 252.67L19.26 258.52L24.66 260.20ZM44.95 261.08L43.64 255.22L38.23 253.54L34.15 257.71L35.46 263.57L40.87 265.26ZM9.77 261.02L8.45 255.16L3.05 253.48L-1.03 257.66L0.30 263.51L5.70 265.19ZM0.30 263.51L-1.03 257.66L-6.43 255.98L-10.50 260.16L-9.18 266.01L-3.78 267.69ZM12.53 250.98L11.21 245.13L5.81 243.45L1.73 247.63L3.05 253.48L8.45 255.16ZM3.05 253.48L1.73 247.63L-3.67 245.95L-7.75 250.13L-6.43 255.98L-1.03 257.66ZM19.26 258.52L17.94 252.67L12.53 250.98L8.45 255.16L9.77 261.02L15.18 262.70ZM50.50 241.02L49.18 235.15L43.77 233.47L39.68 237.64L41.00 243.50L46.41 245.19ZM41.00 243.50L39.68 237.64L34.27 235.96L30.19 240.14L31.51 246.00L36.91 247.68ZM53.27 230.98L51.96 225.11L46.54 223.43L42.45 227.60L43.77 233.47L49.18 235.15ZM43.77 233.47L42.45 227.60L37.04 225.92L32.95 230.10L34.27 235.96L39.68 237.64ZM57.22 248.56L55.91 242.70L50.50 241.02L46.41 245.19L47.73 251.05L53.13 252.74ZM47.73 251.05L46.41 245.19L41.00 243.50L36.91 247.68L38.23 253.54L43.64 255.22ZM60.00 238.53L58.68 232.66L53.27 230.98L49.18 235.15L50.50 241.02L55.91 242.70ZM24.78 238.45L23.46 232.60L18.05 230.91L13.97 235.09L15.29 240.95L20.70 242.63ZM15.29 240.95L13.97 235.09L8.56 233.41L4.48 237.59L5.81 243.45L11.21 245.13ZM27.55 228.42L26.23 222.55L20.82 220.87L16.73 225.05L18.05 230.91L23.46 232.60ZM18.05 230.91L16.73 225.05L11.32 223.37L7.24 227.56L8.56 233.41L13.97 235.09ZM31.51 246.00L30.19 240.14L24.78 238.45L20.70 242.63L22.02 248.49L27.42 250.17ZM22.02 248.49L20.70 242.63L15.29 240.95L11.21 245.13L12.53 250.98L17.94 252.67ZM34.27 235.96L32.95 230.10L27.55 228.42L23.46 232.60L24.78 238.45L30.19 240.14ZM63.95 256.11L62.63 250.25L57.22 248.56L53.13 252.74L54.45 258.60L59.85 260.29ZM54.45 258.60L53.13 252.74L47.73 251.05L43.64 255.22L44.95 261.08L50.36 262.77ZM121.57 175.84L120.26 169.96L114.83 168.26L110.72 172.45L112.03 178.33L117.46 180.02ZM112.03 178.33L110.72 172.45L105.29 170.75L101.18 174.94L102.50 180.82L107.92 182.51ZM124.38 165.78L123.07 159.89L117.64 158.20L113.52 162.38L114.83 168.26L120.26 169.96ZM114.83 168.26L113.52 162.38L108.10 160.69L103.98 164.87L105.29 170.75L110.72 172.45ZM128.31 183.42L127.00 177.54L121.57 175.84L117.46 180.02L118.77 185.90L124.19 187.60ZM118.77 185.90L117.46 180.02L112.03 178.33L107.92 182.51L109.23 188.39L114.65 190.08ZM131.12 173.36L129.81 167.48L124.38 165.78L120.26 169.96L121.57 175.84L127.00 177.54ZM95.76 173.24L94.44 167.37L89.02 165.67L84.91 169.86L86.23 175.74L91.65 177.43ZM86.23 175.74L84.91 169.86L79.49 168.17L75.38 172.36L76.70 178.23L82.12 179.92ZM98.56 163.18L97.24 157.30L91.82 155.61L87.71 159.80L89.02 165.67L94.44 167.37ZM89.02 165.67L87.71 159.80L82.28 158.10L78.17 162.29L79.49 168.17L84.91 169.86ZM102.50 180.82L101.18 174.94L95.76 173.24L91.65 177.43L92.96 183.30L98.39 185.00ZM92.96 183.30L91.65 177.43L86.23 175.74L82.12 179.92L83.44 185.80L88.86 187.49ZM105.29 170.75L103.98 164.87L98.56 163.18L94.44 167.37L95.76 173.24L101.18 174.94ZM136.74 153.22L135.43 147.34L130.00 145.64L125.88 149.82L127.19 155.71L132.62 157.41ZM127.19 155.71L125.88 149.82L120.45 148.13L116.33 152.31L117.64 158.20L123.07 159.89ZM139.55 143.15L138.24 137.26L132.81 135.56L128.69 139.75L130.00 145.64L135.43 147.34ZM130.00 145.64L128.69 139.75L123.25 138.05L119.13 142.24L120.45 148.13L125.88 149.82ZM143.48 160.81L142.17 154.92L136.74 153.22L132.62 157.41L133.93 163.29L139.36 164.99ZM133.93 163.29L132.62 157.41L127.19 155.71L123.07 159.89L124.38 165.78L129.81 167.48ZM146.29 150.74L144.99 144.85L139.55 143.15L135.43 147.34L136.74 153.22L142.17 154.92ZM110.90 150.62L109.59 144.74L104.16 143.04L100.04 147.23L101.36 153.11L106.78 154.81ZM101.36 153.11L100.04 147.23L94.61 145.54L90.50 149.73L91.82 155.61L97.24 157.30ZM113.70 140.55L112.39 134.66L106.96 132.97L102.84 137.16L104.16 143.04L109.59 144.74ZM104.16 143.04L102.84 137.16L97.41 135.46L93.30 139.66L94.61 145.54L100.04 147.23ZM117.64 158.20L116.33 152.31L110.90 150.62L106.78 154.81L108.10 160.69L113.52 162.38ZM108.10 160.69L106.78 154.81L101.36 153.11L97.24 157.30L98.56 163.18L103.98 164.87ZM120.45 148.13L119.13 142.24L113.70 140.55L109.59 144.74L110.90 150.62L116.33 152.31ZM132.23 201.06L130.92 195.18L125.50 193.48L121.39 197.66L122.70 203.54L128.12 205.24ZM122.70 203.54L121.39 197.66L115.96 195.96L111.85 200.14L113.16 206.02L118.58 207.71ZM135.04 191.00L133.73 185.12L128.31 183.42L124.19 187.60L125.50 193.48L130.92 195.18ZM125.50 193.48L124.19 187.60L118.77 185.90L114.65 190.08L115.96 195.96L121.39 197.66ZM138.96 208.64L137.66 202.76L132.23 201.06L128.12 205.24L129.43 211.11L134.85 212.81ZM129.43 211.11L128.12 205.24L122.70 203.54L118.58 207.71L119.89 213.59L125.31 215.29ZM141.77 198.58L140.47 192.70L135.04 191.00L130.92 195.18L132.23 201.06L137.66 202.76ZM106.43 198.44L105.12 192.57L99.70 190.87L95.59 195.06L96.90 200.93L102.32 202.62ZM96.90 200.93L95.59 195.06L90.17 193.36L86.06 197.54L87.38 203.42L92.80 205.11ZM109.23 188.39L107.92 182.51L102.50 180.82L98.39 185.00L99.70 190.87L105.12 192.57ZM99.70 190.87L98.39 185.00L92.96 183.30L88.86 187.49L90.17 193.36L95.59 195.06ZM113.16 206.02L111.85 200.14L106.43 198.44L102.32 202.62L103.63 208.50L109.05 210.19ZM103.63 208.50L102.32 202.62L96.90 200.93L92.80 205.11L94.11 210.98L99.53 212.68ZM115.96 195.96L114.65 190.08L109.23 188.39L105.12 192.57L106.43 198.44L111.85 200.14ZM147.40 178.46L146.09 172.58L140.66 170.88L136.54 175.06L137.85 180.94L143.28 182.64ZM137.85 180.94L136.54 175.06L131.12 173.36L127.00 177.54L128.31 183.42L133.73 185.12ZM150.22 168.40L148.91 162.51L143.48 160.81L139.36 164.99L140.66 170.88L146.09 172.58ZM140.66 170.88L139.36 164.99L133.93 163.29L129.81 167.48L131.12 173.36L136.54 175.06ZM154.13 186.05L152.83 180.17L147.40 178.46L143.28 182.64L144.59 188.52L150.01 190.23ZM144.59 188.52L143.28 182.64L137.85 180.94L133.73 185.12L135.04 191.00L140.47 192.70ZM156.95 175.99L155.65 170.10L150.22 168.40L146.09 172.58L147.40 178.46L152.83 180.17ZM54.87 193.28L53.56 187.41L48.14 185.73L44.04 189.91L45.36 195.78L50.78 197.46ZM45.36 195.78L44.04 189.91L38.63 188.23L34.53 192.41L35.85 198.28L41.27 199.96ZM57.66 183.23L56.34 177.35L50.92 175.67L46.82 179.86L48.14 185.73L53.56 187.41ZM48.14 185.73L46.82 179.86L41.40 178.17L37.31 182.36L38.63 188.23L44.04 189.91ZM61.61 200.84L60.29 194.97L54.87 193.28L50.78 197.46L52.10 203.33L57.51 205.02ZM52.10 203.33L50.78 197.46L45.36 195.78L41.27 199.96L42.59 205.83L48.00 207.51ZM64.39 190.78L63.07 184.91L57.66 183.23L53.56 187.41L54.87 193.28L60.29 194.97ZM29.12 190.73L27.80 184.86L22.38 183.18L18.29 187.37L19.62 193.24L25.03 194.92ZM19.62 193.24L18.29 187.37L12.88 185.69L8.79 189.88L10.12 195.74L15.53 197.42ZM31.89 180.68L30.57 174.81L25.15 173.13L21.06 177.32L22.38 183.18L27.80 184.86ZM22.38 183.18L21.06 177.32L15.64 175.64L11.55 179.83L12.88 185.69L18.29 187.37ZM35.85 198.28L34.53 192.41L29.12 190.73L25.03 194.92L26.35 200.78L31.76 202.46ZM26.35 200.78L25.03 194.92L19.62 193.24L15.53 197.42L16.85 203.29L22.26 204.97ZM38.63 188.23L37.31 182.36L31.89 180.68L27.80 184.86L29.12 190.73L34.53 192.41ZM69.96 170.67L68.64 164.79L63.22 163.10L59.12 167.29L60.44 173.17L65.86 174.85ZM60.44 173.17L59.12 167.29L53.70 165.61L49.60 169.80L50.92 175.67L56.34 177.35ZM72.75 160.60L71.43 154.73L66.01 153.04L61.90 157.23L63.22 163.10L68.64 164.79ZM63.22 163.10L61.90 157.23L56.48 155.54L52.38 159.73L53.70 165.61L59.12 167.29ZM76.70 178.23L75.38 172.36L69.96 170.67L65.86 174.85L67.18 180.73L72.59 182.42ZM67.18 180.73L65.86 174.85L60.44 173.17L56.34 177.35L57.66 183.23L63.07 184.91ZM79.49 168.17L78.17 162.29L72.75 160.60L68.64 164.79L69.96 170.67L75.38 172.36ZM44.18 168.11L42.86 162.24L37.44 160.56L33.34 164.75L34.66 170.62L40.08 172.30ZM34.66 170.62L33.34 164.75L27.92 163.07L23.83 167.26L25.15 173.13L30.57 174.81ZM46.96 158.05L45.64 152.17L40.21 150.49L36.12 154.68L37.44 160.56L42.86 162.24ZM37.44 160.56L36.12 154.68L30.70 153.00L26.60 157.20L27.92 163.07L33.34 164.75ZM50.92 175.67L49.60 169.80L44.18 168.11L40.08 172.30L41.40 178.17L46.82 179.86ZM41.40 178.17L40.08 172.30L34.66 170.62L30.57 174.81L31.89 180.68L37.31 182.36ZM53.70 165.61L52.38 159.73L46.96 158.05L42.86 162.24L44.18 168.11L49.60 169.80ZM65.56 218.44L64.24 212.57L58.83 210.89L54.73 215.07L56.05 220.93L61.46 222.62ZM56.05 220.93L54.73 215.07L49.32 213.38L45.23 217.56L46.54 223.43L51.96 225.11ZM68.34 208.39L67.02 202.53L61.61 200.84L57.51 205.02L58.83 210.89L64.24 212.57ZM58.83 210.89L57.51 205.02L52.10 203.33L48.00 207.51L49.32 213.38L54.73 215.07ZM72.29 226.00L70.97 220.13L65.56 218.44L61.46 222.62L62.78 228.49L68.19 230.18ZM62.78 228.49L61.46 222.62L56.05 220.93L51.96 225.11L53.27 230.98L58.68 232.66ZM75.07 215.95L73.76 210.08L68.34 208.39L64.24 212.57L65.56 218.44L70.97 220.13ZM39.81 215.88L38.50 210.01L33.08 208.33L28.99 212.51L30.31 218.37L35.72 220.06ZM30.31 218.37L28.99 212.51L23.58 210.83L19.50 215.01L20.82 220.87L26.23 222.55ZM42.59 205.83L41.27 199.96L35.85 198.28L31.76 202.46L33.08 208.33L38.50 210.01ZM33.08 208.33L31.76 202.46L26.35 200.78L22.26 204.97L23.58 210.83L28.99 212.51ZM46.54 223.43L45.23 217.56L39.81 215.88L35.72 220.06L37.04 225.92L42.45 227.60ZM37.04 225.92L35.72 220.06L30.31 218.37L26.23 222.55L27.55 228.42L32.95 230.10ZM49.32 213.38L48.00 207.51L42.59 205.83L38.50 210.01L39.81 215.88L45.23 217.56ZM80.65 195.85L79.33 189.98L73.91 188.29L69.81 192.47L71.13 198.34L76.54 200.03ZM71.13 198.34L69.81 192.47L64.39 190.78L60.29 194.97L61.61 200.84L67.02 202.53ZM83.44 185.80L82.12 179.92L76.70 178.23L72.59 182.42L73.91 188.29L79.33 189.98ZM73.91 188.29L72.59 182.42L67.18 180.73L63.07 184.91L64.39 190.78L69.81 192.47ZM87.38 203.42L86.06 197.54L80.65 195.85L76.54 200.03L77.86 205.90L83.27 207.60ZM77.86 205.90L76.54 200.03L71.13 198.34L67.02 202.53L68.34 208.39L73.76 210.08ZM90.17 193.36L88.86 187.49L83.44 185.80L79.33 189.98L80.65 195.85L86.06 197.54ZM141.26 105.32L139.95 99.42L134.51 97.72L130.38 101.92L131.69 107.81L137.13 109.51ZM131.69 107.81L130.38 101.92L124.94 100.22L120.82 104.42L122.13 110.31L127.57 112.00ZM144.08 95.23L142.77 89.33L137.33 87.63L133.20 91.83L134.51 97.72L139.95 99.42ZM134.51 97.72L133.20 91.83L127.76 90.13L123.63 94.33L124.94 100.22L130.38 101.92ZM148.01 112.91L146.70 107.02L141.26 105.32L137.13 109.51L138.44 115.40L143.88 117.10ZM138.44 115.40L137.13 109.51L131.69 107.81L127.57 112.00L128.88 117.89L134.31 119.59ZM150.83 102.82L149.52 96.93L144.08 95.23L139.95 99.42L141.26 105.32L146.70 107.02ZM115.38 102.72L114.07 96.83L108.63 95.14L104.51 99.33L105.82 105.22L111.26 106.92ZM105.82 105.22L104.51 99.33L99.07 97.64L94.95 101.84L96.27 107.73L101.70 109.42ZM118.19 92.63L116.88 86.74L111.44 85.05L107.31 89.25L108.63 95.14L114.07 96.83ZM108.63 95.14L107.31 89.25L101.87 87.55L97.75 91.75L99.07 97.64L104.51 99.33ZM122.13 110.31L120.82 104.42L115.38 102.72L111.26 106.92L112.57 112.81L118.01 114.50ZM112.57 112.81L111.26 106.92L105.82 105.22L101.70 109.42L103.02 115.31L108.45 117.00ZM124.94 100.22L123.63 94.33L118.19 92.63L114.07 96.83L115.38 102.72L120.82 104.42ZM156.48 82.64L155.17 76.74L149.72 75.04L145.59 79.24L146.90 85.13L152.34 86.83ZM146.90 85.13L145.59 79.24L140.15 77.54L136.01 81.74L137.33 87.63L142.77 89.33ZM159.31 72.54L158.00 66.64L152.55 64.94L148.41 69.14L149.72 75.04L155.17 76.74ZM149.72 75.04L148.41 69.14L142.97 67.44L138.83 71.64L140.15 77.54L145.59 79.24ZM163.23 90.24L161.92 84.34L156.48 82.64L152.34 86.83L153.65 92.73L159.09 94.43ZM153.65 92.73L152.34 86.83L146.90 85.13L142.77 89.33L144.08 95.23L149.52 96.93ZM166.06 80.14L164.75 74.24L159.31 72.54L155.17 76.74L156.48 82.64L161.92 84.34ZM130.57 80.04L129.26 74.14L123.82 72.45L119.69 76.65L121.00 82.54L126.44 84.24ZM121.00 82.54L119.69 76.65L114.25 74.95L110.12 79.15L111.44 85.05L116.88 86.74ZM133.39 69.94L132.08 64.04L126.63 62.35L122.50 66.55L123.82 72.45L129.26 74.14ZM123.82 72.45L122.50 66.55L117.06 64.85L112.93 69.06L114.25 74.95L119.69 76.65ZM137.33 87.63L136.01 81.74L130.57 80.04L126.44 84.24L127.76 90.13L133.20 91.83ZM127.76 90.13L126.44 84.24L121.00 82.54L116.88 86.74L118.19 92.63L123.63 94.33ZM140.15 77.54L138.83 71.64L133.39 69.94L129.26 74.14L130.57 80.04L136.01 81.74ZM151.93 130.59L150.62 124.69L145.19 122.99L141.06 127.18L142.37 133.07L147.80 134.77ZM142.37 133.07L141.06 127.18L135.62 125.48L131.50 129.67L132.81 135.56L138.24 137.26ZM154.75 120.50L153.45 114.61L148.01 112.91L143.88 117.10L145.19 122.99L150.62 124.69ZM145.19 122.99L143.88 117.10L138.44 115.40L134.31 119.59L135.62 125.48L141.06 127.18ZM158.68 138.18L157.37 132.29L151.93 130.59L147.80 134.77L149.11 140.66L154.55 142.37ZM149.11 140.66L147.80 134.77L142.37 133.07L138.24 137.26L139.55 143.15L144.99 144.85ZM161.50 128.10L160.19 122.21L154.75 120.50L150.62 124.69L151.93 130.59L157.37 132.29ZM126.07 127.98L124.75 122.09L119.32 120.39L115.20 124.58L116.51 130.47L121.94 132.17ZM116.51 130.47L115.20 124.58L109.76 122.89L105.65 127.08L106.96 132.97L112.39 134.66ZM128.88 117.89L127.57 112.00L122.13 110.31L118.01 114.50L119.32 120.39L124.75 122.09ZM119.32 120.39L118.01 114.50L112.57 112.81L108.45 117.00L109.76 122.89L115.20 124.58ZM132.81 135.56L131.50 129.67L126.07 127.98L121.94 132.17L123.25 138.05L128.69 139.75ZM123.25 138.05L121.94 132.17L116.51 130.47L112.39 134.66L113.70 140.55L119.13 142.24ZM135.62 125.48L134.31 119.59L128.88 117.89L124.75 122.09L126.07 127.98L131.50 129.67ZM167.15 107.93L165.85 102.03L160.40 100.33L156.27 104.52L157.58 110.42L163.02 112.12ZM157.58 110.42L156.27 104.52L150.83 102.82L146.70 107.02L148.01 112.91L153.45 114.61ZM169.98 97.84L168.67 91.94L163.23 90.24L159.09 94.43L160.40 100.33L165.85 102.03ZM160.40 100.33L159.09 94.43L153.65 92.73L149.52 96.93L150.83 102.82L156.27 104.52ZM173.90 115.53L172.59 109.64L167.15 107.93L163.02 112.12L164.32 118.02L169.76 119.72ZM164.32 118.02L163.02 112.12L157.58 110.42L153.45 114.61L154.75 120.50L160.19 122.21ZM176.73 105.44L175.42 99.55L169.98 97.84L165.85 102.03L167.15 107.93L172.59 109.64ZM74.38 122.82L73.06 116.94L67.63 115.25L63.52 119.45L64.84 125.33L70.27 127.02ZM64.84 125.33L63.52 119.45L58.09 117.76L53.98 121.96L55.30 127.84L60.73 129.52ZM77.17 112.74L75.85 106.86L70.42 105.17L66.31 109.37L67.63 115.25L73.06 116.94ZM67.63 115.25L66.31 109.37L60.88 107.68L56.77 111.88L58.09 117.76L63.52 119.45ZM81.12 130.39L79.81 124.51L74.38 122.82L70.27 127.02L71.58 132.90L77.01 134.59ZM71.58 132.90L70.27 127.02L64.84 125.33L60.73 129.52L62.05 135.40L67.48 137.09ZM83.92 120.32L82.60 114.43L77.17 112.74L73.06 116.94L74.38 122.82L79.81 124.51ZM48.55 120.28L47.23 114.40L41.80 112.71L37.70 116.91L39.02 122.79L44.45 124.47ZM39.02 122.79L37.70 116.91L32.27 115.23L28.17 119.43L29.50 125.31L34.92 126.99ZM51.34 110.20L50.02 104.32L44.59 102.63L40.48 106.83L41.80 112.71L47.23 114.40ZM41.80 112.71L40.48 106.83L35.05 105.15L30.95 109.35L32.27 115.23L37.70 116.91ZM55.30 127.84L53.98 121.96L48.55 120.28L44.45 124.47L45.77 130.35L51.20 132.04ZM45.77 130.35L44.45 124.47L39.02 122.79L34.92 126.99L36.25 132.87L41.67 134.55ZM58.09 117.76L56.77 111.88L51.34 110.20L47.23 114.40L48.55 120.28L53.98 121.96ZM89.52 100.15L88.20 94.26L82.76 92.57L78.65 96.77L79.97 102.66L85.40 104.35ZM79.97 102.66L78.65 96.77L73.21 95.09L69.10 99.29L70.42 105.17L75.85 106.86ZM92.32 90.06L91.00 84.17L85.56 82.48L81.44 86.68L82.76 92.57L88.20 94.26ZM82.76 92.57L81.44 86.68L76.01 85.00L71.89 89.20L73.21 95.09L78.65 96.77ZM96.27 107.73L94.95 101.84L89.52 100.15L85.40 104.35L86.72 110.23L92.15 111.92ZM86.72 110.23L85.40 104.35L79.97 102.66L75.85 106.86L77.17 112.74L82.60 114.43ZM99.07 97.64L97.75 91.75L92.32 90.06L88.20 94.26L89.52 100.15L94.95 101.84ZM63.67 97.60L62.35 91.71L56.91 90.03L52.80 94.23L54.12 100.12L59.56 101.80ZM54.12 100.12L52.80 94.23L47.37 92.55L43.26 96.75L44.59 102.63L50.02 104.32ZM66.46 87.51L65.14 81.63L59.70 79.94L55.59 84.14L56.91 90.03L62.35 91.71ZM56.91 90.03L55.59 84.14L50.16 82.46L46.05 86.67L47.37 92.55L52.80 94.23ZM70.42 105.17L69.10 99.29L63.67 97.60L59.56 101.80L60.88 107.68L66.31 109.37ZM60.88 107.68L59.56 101.80L54.12 100.12L50.02 104.32L51.34 110.20L56.77 111.88ZM73.21 95.09L71.89 89.20L66.46 87.51L62.35 91.71L63.67 97.60L69.10 99.29ZM85.07 148.04L83.76 142.16L78.33 140.47L74.22 144.66L75.54 150.54L80.96 152.23ZM75.54 150.54L74.22 144.66L68.80 142.97L64.69 147.16L66.01 153.04L71.43 154.73ZM87.87 137.96L86.55 132.08L81.12 130.39L77.01 134.59L78.33 140.47L83.76 142.16ZM78.33 140.47L77.01 134.59L71.58 132.90L67.48 137.09L68.80 142.97L74.22 144.66ZM91.82 155.61L90.50 149.73L85.07 148.04L80.96 152.23L82.28 158.10L87.71 159.80ZM82.28 158.10L80.96 152.23L75.54 150.54L71.43 154.73L72.75 160.60L78.17 162.29ZM94.61 145.54L93.30 139.66L87.87 137.96L83.76 142.16L85.07 148.04L90.50 149.73ZM59.26 145.48L57.94 139.60L52.52 137.91L48.42 142.11L49.74 147.98L55.16 149.67ZM49.74 147.98L48.42 142.11L42.99 140.42L38.89 144.62L40.21 150.49L45.64 152.17ZM62.05 135.40L60.73 129.52L55.30 127.84L51.20 132.04L52.52 137.91L57.94 139.60ZM52.52 137.91L51.20 132.04L45.77 130.35L41.67 134.55L42.99 140.42L48.42 142.11ZM66.01 153.04L64.69 147.16L59.26 145.48L55.16 149.67L56.48 155.54L61.90 157.23ZM56.48 155.54L55.16 149.67L49.74 147.98L45.64 152.17L46.96 158.05L52.38 159.73ZM68.80 142.97L67.48 137.09L62.05 135.40L57.94 139.60L59.26 145.48L64.69 147.16ZM100.21 125.39L98.90 119.50L93.47 117.81L89.35 122.00L90.67 127.89L96.10 129.58ZM90.67 127.89L89.35 122.00L83.92 120.32L79.81 124.51L81.12 130.39L86.55 132.08ZM103.02 115.31L101.70 109.42L96.27 107.73L92.15 111.92L93.47 117.81L98.90 119.50ZM93.47 117.81L92.15 111.92L86.72 110.23L82.60 114.43L83.92 120.32L89.35 122.00ZM106.96 132.97L105.65 127.08L100.21 125.39L96.10 129.58L97.41 135.46L102.84 137.16ZM97.41 135.46L96.10 129.58L90.67 127.89L86.55 132.08L87.87 137.96L93.30 139.66ZM109.76 122.89L108.45 117.00L103.02 115.31L98.90 119.50L100.21 125.39L105.65 127.08ZM168.68 228.92L167.38 223.04L161.96 221.33L157.84 225.51L159.14 231.38L164.56 233.09ZM159.14 231.38L157.84 225.51L152.42 223.80L148.30 227.97L149.60 233.85L155.02 235.55ZM171.50 218.87L170.20 212.99L164.78 211.28L160.66 215.46L161.96 221.33L167.38 223.04ZM161.96 221.33L160.66 215.46L155.23 213.75L151.11 217.92L152.42 223.80L157.84 225.51ZM175.41 236.51L174.11 230.63L168.68 228.92L164.56 233.09L165.87 238.97L171.29 240.68ZM165.87 238.97L164.56 233.09L159.14 231.38L155.02 235.55L156.33 241.43L161.75 243.14ZM178.23 226.46L176.93 220.58L171.50 218.87L167.38 223.04L168.68 228.92L174.11 230.63ZM142.88 226.27L141.57 220.39L136.15 218.69L132.04 222.86L133.35 228.74L138.77 230.44ZM133.35 228.74L132.04 222.86L126.62 221.16L122.51 225.34L123.82 231.21L129.24 232.91ZM145.69 216.22L144.39 210.34L138.96 208.64L134.85 212.81L136.15 218.69L141.57 220.39ZM136.15 218.69L134.85 212.81L129.43 211.11L125.31 215.29L126.62 221.16L132.04 222.86ZM149.60 233.85L148.30 227.97L142.88 226.27L138.77 230.44L140.07 236.31L145.49 238.02ZM140.07 236.31L138.77 230.44L133.35 228.74L129.24 232.91L130.54 238.78L135.96 240.49ZM152.42 223.80L151.11 217.92L145.69 216.22L141.57 220.39L142.88 226.27L148.30 227.97ZM183.88 206.35L182.58 200.47L177.15 198.76L173.02 202.93L174.33 208.82L179.75 210.53ZM174.33 208.82L173.02 202.93L167.60 201.23L163.47 205.40L164.78 211.28L170.20 212.99ZM186.71 196.29L185.41 190.41L179.97 188.70L175.85 192.87L177.15 198.76L182.58 200.47ZM177.15 198.76L175.85 192.87L170.42 191.17L166.29 195.34L167.60 201.23L173.02 202.93ZM190.61 213.95L189.31 208.06L183.88 206.35L179.75 210.53L181.05 216.41L186.48 218.12ZM181.05 216.41L179.75 210.53L174.33 208.82L170.20 212.99L171.50 218.87L176.93 220.58ZM193.44 203.89L192.14 198.00L186.71 196.29L182.58 200.47L183.88 206.35L189.31 208.06ZM158.05 203.69L156.74 197.81L151.32 196.11L147.20 200.29L148.50 206.17L153.93 207.87ZM148.50 206.17L147.20 200.29L141.77 198.58L137.66 202.76L138.96 208.64L144.39 210.34ZM160.87 193.64L159.56 187.75L154.13 186.05L150.01 190.23L151.32 196.11L156.74 197.81ZM151.32 196.11L150.01 190.23L144.59 188.52L140.47 192.70L141.77 198.58L147.20 200.29ZM164.78 211.28L163.47 205.40L158.05 203.69L153.93 207.87L155.23 213.75L160.66 215.46ZM155.23 213.75L153.93 207.87L148.50 206.17L144.39 210.34L145.69 216.22L151.11 217.92ZM167.60 201.23L166.29 195.34L160.87 193.64L156.74 197.81L158.05 203.69L163.47 205.40ZM179.31 254.14L178.01 248.26L172.59 246.55L168.47 250.72L169.77 256.59L175.19 258.30ZM169.77 256.59L168.47 250.72L163.05 249.01L158.93 253.18L160.24 259.05L165.65 260.76ZM182.13 244.10L180.83 238.22L175.41 236.51L171.29 240.68L172.59 246.55L178.01 248.26ZM172.59 246.55L171.29 240.68L165.87 238.97L161.75 243.14L163.05 249.01L168.47 250.72ZM186.03 261.73L184.73 255.85L179.31 254.14L175.19 258.30L176.49 264.18L181.91 265.89ZM188.85 251.68L187.55 245.81L182.13 244.10L178.01 248.26L179.31 254.14L184.73 255.85ZM153.52 251.47L152.21 245.60L146.79 243.89L142.68 248.06L143.99 253.93L149.40 255.64ZM143.99 253.93L142.68 248.06L137.26 246.36L133.15 250.53L134.46 256.40L139.87 258.10ZM156.33 241.43L155.02 235.55L149.60 233.85L145.49 238.02L146.79 243.89L152.21 245.60ZM146.79 243.89L145.49 238.02L140.07 236.31L135.96 240.49L137.26 246.36L142.68 248.06ZM160.24 259.05L158.93 253.18L153.52 251.47L149.40 255.64L150.71 261.51L156.12 263.22ZM150.71 261.51L149.40 255.64L143.99 253.93L139.87 258.10L141.18 263.97L146.59 265.67ZM163.05 249.01L161.75 243.14L156.33 241.43L152.21 245.60L153.52 251.47L158.93 253.18ZM194.50 231.59L193.20 225.71L187.78 224.00L183.65 228.17L184.95 234.05L190.38 235.76ZM184.95 234.05L183.65 228.17L178.23 226.46L174.11 230.63L175.41 236.51L180.83 238.22ZM197.33 221.54L196.03 215.66L190.61 213.95L186.48 218.12L187.78 224.00L193.20 225.71ZM187.78 224.00L186.48 218.12L181.05 216.41L176.93 220.58L178.23 226.46L183.65 228.17ZM201.22 239.19L199.93 233.31L194.50 231.59L190.38 235.76L191.67 241.64L197.10 243.35ZM191.67 241.64L190.38 235.76L184.95 234.05L180.83 238.22L182.13 244.10L187.55 245.81ZM204.06 229.14L202.76 223.26L197.33 221.54L193.20 225.71L194.50 231.59L199.93 233.31ZM101.98 246.20L100.67 240.33L95.25 238.64L91.15 242.81L92.46 248.68L97.87 250.37ZM92.46 248.68L91.15 242.81L85.74 241.12L81.64 245.29L82.95 251.15L88.36 252.85ZM104.77 236.16L103.46 230.29L98.04 228.59L93.94 232.77L95.25 238.64L100.67 240.33ZM95.25 238.64L93.94 232.77L88.53 231.07L84.43 235.25L85.74 241.12L91.15 242.81ZM108.70 253.76L107.39 247.90L101.98 246.20L97.87 250.37L99.19 256.24L104.60 257.93ZM99.19 256.24L97.87 250.37L92.46 248.68L88.36 252.85L89.68 258.71L95.08 260.41ZM111.49 243.73L110.19 237.86L104.77 236.16L100.67 240.33L101.98 246.20L107.39 247.90ZM76.23 243.60L74.92 237.73L69.50 236.04L65.41 240.22L66.72 246.08L72.13 247.77ZM66.72 246.08L65.41 240.22L60.00 238.53L55.91 242.70L57.22 248.56L62.63 250.25ZM79.01 233.56L77.70 227.69L72.29 226.00L68.19 230.18L69.50 236.04L74.92 237.73ZM69.50 236.04L68.19 230.18L62.78 228.49L58.68 232.66L60.00 238.53L65.41 240.22ZM82.95 251.15L81.64 245.29L76.23 243.60L72.13 247.77L73.45 253.63L78.86 255.33ZM73.45 253.63L72.13 247.77L66.72 246.08L62.63 250.25L63.95 256.11L69.35 257.80ZM85.74 241.12L84.43 235.25L79.01 233.56L74.92 237.73L76.23 243.60L81.64 245.29ZM117.09 223.64L115.78 217.76L110.36 216.07L106.26 220.24L107.57 226.12L112.98 227.81ZM107.57 226.12L106.26 220.24L100.84 218.55L96.73 222.72L98.04 228.59L103.46 230.29ZM119.89 213.59L118.58 207.71L113.16 206.02L109.05 210.19L110.36 216.07L115.78 217.76ZM110.36 216.07L109.05 210.19L103.63 208.50L99.53 212.68L100.84 218.55L106.26 220.24ZM123.82 231.21L122.51 225.34L117.09 223.64L112.98 227.81L114.29 233.68L119.71 235.38ZM114.29 233.68L112.98 227.81L107.57 226.12L103.46 230.29L104.77 236.16L110.19 237.86ZM126.62 221.16L125.31 215.29L119.89 213.59L115.78 217.76L117.09 223.64L122.51 225.34ZM91.32 221.03L90.00 215.16L84.59 213.47L80.49 217.64L81.80 223.51L87.21 225.21ZM81.80 223.51L80.49 217.64L75.07 215.95L70.97 220.13L72.29 226.00L77.70 227.69ZM94.11 210.98L92.80 205.11L87.38 203.42L83.27 207.60L84.59 213.47L90.00 215.16ZM84.59 213.47L83.27 207.60L77.86 205.90L73.76 210.08L75.07 215.95L80.49 217.64ZM98.04 228.59L96.73 222.72L91.32 221.03L87.21 225.21L88.53 231.07L93.94 232.77ZM88.53 231.07L87.21 225.21L81.80 223.51L77.70 227.69L79.01 233.56L84.43 235.25ZM100.84 218.55L99.53 212.68L94.11 210.98L90.00 215.16L91.32 221.03L96.73 222.72ZM115.42 261.33L114.11 255.46L108.70 253.76L104.60 257.93L105.91 263.80L111.32 265.50ZM89.68 258.71L88.36 252.85L82.95 251.15L78.86 255.33L80.17 261.19L85.58 262.88ZM80.17 261.19L78.86 255.33L73.45 253.63L69.35 257.80L70.67 263.67L76.07 265.36ZM127.74 248.82L126.43 242.95L121.02 241.25L116.91 245.42L118.22 251.29L123.63 252.99ZM118.22 251.29L116.91 245.42L111.49 243.73L107.39 247.90L108.70 253.76L114.11 255.46ZM130.54 238.78L129.24 232.91L123.82 231.21L119.71 235.38L121.02 241.25L126.43 242.95ZM121.02 241.25L119.71 235.38L114.29 233.68L110.19 237.86L111.49 243.73L116.91 245.42ZM134.46 256.40L133.15 250.53L127.74 248.82L123.63 252.99L124.94 258.86L130.35 260.56ZM124.94 258.86L123.63 252.99L118.22 251.29L114.11 255.46L115.42 261.33L120.83 263.03ZM137.26 246.36L135.96 240.49L130.54 238.78L126.43 242.95L127.74 248.82L133.15 250.53ZM188.46 158.50L187.16 152.60L181.72 150.89L177.59 155.08L178.90 160.97L184.33 162.68ZM178.90 160.97L177.59 155.08L172.16 153.37L168.03 157.55L169.33 163.44L174.76 165.15ZM191.30 148.42L189.99 142.53L184.56 140.82L180.42 145.00L181.72 150.89L187.16 152.60ZM181.72 150.89L180.42 145.00L174.98 143.30L170.85 147.48L172.16 153.37L177.59 155.08ZM195.20 166.10L193.90 160.21L188.46 158.50L184.33 162.68L185.63 168.57L191.07 170.28ZM185.63 168.57L184.33 162.68L178.90 160.97L174.76 165.15L176.07 171.04L181.50 172.75ZM198.03 156.02L196.73 150.13L191.30 148.42L187.16 152.60L188.46 158.50L193.90 160.21ZM162.59 155.85L161.29 149.96L155.85 148.26L151.73 152.44L153.03 158.33L158.47 160.03ZM153.03 158.33L151.73 152.44L146.29 150.74L142.17 154.92L143.48 160.81L148.91 162.51ZM165.42 145.77L164.11 139.88L158.68 138.18L154.55 142.37L155.85 148.26L161.29 149.96ZM155.85 148.26L154.55 142.37L149.11 140.66L144.99 144.85L146.29 150.74L151.73 152.44ZM169.33 163.44L168.03 157.55L162.59 155.85L158.47 160.03L159.77 165.92L165.20 167.62ZM159.77 165.92L158.47 160.03L153.03 158.33L148.91 162.51L150.22 168.40L155.65 170.10ZM172.16 153.37L170.85 147.48L165.42 145.77L161.29 149.96L162.59 155.85L168.03 157.55ZM203.71 135.87L202.41 129.97L196.97 128.26L192.83 132.45L194.13 138.34L199.57 140.05ZM194.13 138.34L192.83 132.45L187.39 130.74L183.25 134.92L184.56 140.82L189.99 142.53ZM206.55 125.79L205.25 119.89L199.81 118.18L195.67 122.36L196.97 128.26L202.41 129.97ZM196.97 128.26L195.67 122.36L190.22 120.65L186.09 124.84L187.39 130.74L192.83 132.45ZM210.45 143.48L209.15 137.58L203.71 135.87L199.57 140.05L200.87 145.95L206.31 147.66ZM200.87 145.95L199.57 140.05L194.13 138.34L189.99 142.53L191.30 148.42L196.73 150.13ZM213.29 133.40L211.99 127.50L206.55 125.79L202.41 129.97L203.71 135.87L209.15 137.58ZM177.81 133.22L176.51 127.32L171.07 125.62L166.94 129.80L168.24 135.70L173.68 137.40ZM168.24 135.70L166.94 129.80L161.50 128.10L157.37 132.29L158.68 138.18L164.11 139.88ZM180.64 123.13L179.34 117.24L173.90 115.53L169.76 119.72L171.07 125.62L176.51 127.32ZM171.07 125.62L169.76 119.72L164.32 118.02L160.19 122.21L161.50 128.10L166.94 129.80ZM184.56 140.82L183.25 134.92L177.81 133.22L173.68 137.40L174.98 143.30L180.42 145.00ZM174.98 143.30L173.68 137.40L168.24 135.70L164.11 139.88L165.42 145.77L170.85 147.48ZM187.39 130.74L186.09 124.84L180.64 123.13L176.51 127.32L177.81 133.22L183.25 134.92ZM199.10 183.77L197.80 177.88L192.37 176.17L188.23 180.34L189.54 186.23L194.97 187.94ZM189.54 186.23L188.23 180.34L182.80 178.63L178.67 182.81L179.97 188.70L185.41 190.41ZM201.93 173.70L200.63 167.81L195.20 166.10L191.07 170.28L192.37 176.17L197.80 177.88ZM192.37 176.17L191.07 170.28L185.63 168.57L181.50 172.75L182.80 178.63L188.23 180.34ZM205.83 191.37L204.53 185.48L199.10 183.77L194.97 187.94L196.27 193.83L201.70 195.54ZM196.27 193.83L194.97 187.94L189.54 186.23L185.41 190.41L186.71 196.29L192.14 198.00ZM208.67 181.30L207.37 175.41L201.93 173.70L197.80 177.88L199.10 183.77L204.53 185.48ZM173.24 181.10L171.94 175.22L166.51 173.51L162.38 177.69L163.69 183.58L169.12 185.28ZM163.69 183.58L162.38 177.69L156.95 175.99L152.83 180.17L154.13 186.05L159.56 187.75ZM176.07 171.04L174.76 165.15L169.33 163.44L165.20 167.62L166.51 173.51L171.94 175.22ZM166.51 173.51L165.20 167.62L159.77 165.92L155.65 170.10L156.95 175.99L162.38 177.69ZM179.97 188.70L178.67 182.81L173.24 181.10L169.12 185.28L170.42 191.17L175.85 192.87ZM170.42 191.17L169.12 185.28L163.69 183.58L159.56 187.75L160.87 193.64L166.29 195.34ZM182.80 178.63L181.50 172.75L176.07 171.04L171.94 175.22L173.24 181.10L178.67 182.81ZM214.35 161.16L213.05 155.27L207.61 153.56L203.47 157.74L204.77 163.63L210.21 165.34ZM204.77 163.63L203.47 157.74L198.03 156.02L193.90 160.21L195.20 166.10L200.63 167.81ZM217.19 151.09L215.89 145.19L210.45 143.48L206.31 147.66L207.61 153.56L213.05 155.27ZM207.61 153.56L206.31 147.66L200.87 145.95L196.73 150.13L198.03 156.02L203.47 157.74ZM221.08 168.77L219.79 162.88L214.35 161.16L210.21 165.34L211.51 171.24L216.94 172.95ZM211.51 171.24L210.21 165.34L204.77 163.63L200.63 167.81L201.93 173.70L207.37 175.41ZM223.93 158.70L222.63 152.80L217.19 151.09L213.05 155.27L214.35 161.16L219.79 162.88ZM230.93 259.54L229.64 253.66L224.22 251.94L220.09 256.10L221.38 261.98L226.80 263.70ZM221.38 261.98L220.09 256.10L214.66 254.38L210.54 258.54L211.83 264.42L217.25 266.14ZM233.78 249.49L232.48 243.61L227.06 241.89L222.92 246.05L224.22 251.94L229.64 253.66ZM224.22 251.94L222.92 246.05L217.50 244.34L213.37 248.50L214.66 254.38L220.09 256.10ZM240.49 257.10L239.20 251.22L233.78 249.49L229.64 253.66L230.93 259.54L236.36 261.26ZM205.11 256.83L203.82 250.95L198.40 249.23L194.27 253.40L195.57 259.28L200.99 260.99ZM195.57 259.28L194.27 253.40L188.85 251.68L184.73 255.85L186.03 261.73L191.44 263.44ZM207.94 246.78L206.65 240.90L201.22 239.19L197.10 243.35L198.40 249.23L203.82 250.95ZM198.40 249.23L197.10 243.35L191.67 241.64L187.55 245.81L188.85 251.68L194.27 253.40ZM214.66 254.38L213.37 248.50L207.94 246.78L203.82 250.95L205.11 256.83L210.54 258.54Z"/></svg>
