<svg xmlns="http://www.w3.org/2000/svg" width="256" height="256" viewBox="0 0 256 256"><path data-band="2" fill="#f97316" fill-opacity="0.35" d="M256.77 6.27L255.48 0.39L250.05 -1.34L245.92 2.82L247.21 8.70L252.63 10.43ZM259.62 -3.77L258.33 -9.66L252.90 -11.39L248.76 -7.22L250.05 -1.34L255.48 0.39ZM250.05 -1.34L248.76 -7.22L243.34 -8.95L239.20 -4.78L240.49 1.10L245.92 2.82ZM263.48 13.88L262.20 8.00L256.77 6.27L252.63 10.43L253.92 16.31L259.35 18.04ZM253.92 16.31L252.63 10.43L247.21 8.70L243.07 12.86L244.36 18.74L249.79 20.47ZM266.34 3.84L265.05 -2.05L259.62 -3.77L255.48 0.39L256.77 6.27L262.20 8.00ZM257.79 33.95L256.50 28.07L251.08 26.35L246.94 30.50L248.23 36.38L253.65 38.11ZM260.63 23.92L259.35 18.04L253.92 16.31L249.79 20.47L251.08 26.35L256.50 28.07ZM264.50 41.56L263.21 35.68L257.79 33.95L253.65 38.11L254.94 43.99L260.36 45.71ZM246.87 259.43L245.59 253.59L240.20 251.86L236.10 255.98L237.38 261.82L242.76 263.55ZM237.38 261.82L236.10 255.98L230.71 254.25L226.61 258.36L227.90 264.21L233.28 265.93ZM259.19 247.09L257.91 241.24L252.52 239.51L248.41 243.63L249.69 249.47L255.08 251.20ZM249.69 249.47L248.41 243.63L243.03 241.90L238.92 246.01L240.20 251.86L245.59 253.59ZM262.02 237.12L260.74 231.27L255.35 229.54L251.24 233.66L252.52 239.51L257.91 241.24ZM252.52 239.51L251.24 233.66L245.85 231.93L241.74 236.05L243.03 241.90L248.41 243.63ZM265.86 254.67L264.58 248.82L259.19 247.09L255.08 251.20L256.36 257.05L261.75 258.78ZM256.36 257.05L255.08 251.20L249.69 249.47L245.59 253.59L246.87 259.43L252.25 261.16ZM221.23 256.64L219.95 250.80L214.56 249.07L210.46 253.19L211.75 259.03L217.13 260.75ZM211.75 259.03L210.46 253.19L205.08 251.47L200.99 255.58L202.27 261.42L207.65 263.15ZM195.60 253.86L194.32 248.02L188.93 246.30L184.84 250.42L186.13 256.26L191.51 257.98ZM186.13 256.26L184.84 250.42L179.46 248.71L175.37 252.83L176.66 258.66L182.04 260.38ZM202.27 261.42L200.99 255.58L195.60 253.86L191.51 257.98L192.80 263.82L198.18 265.54ZM263.85 199.62L262.57 193.76L257.17 192.03L253.06 196.16L254.34 202.01L259.73 203.74ZM254.34 202.01L253.06 196.16L247.66 194.43L243.55 198.55L244.83 204.41L250.23 206.13ZM266.69 189.64L265.41 183.78L260.01 182.05L255.89 186.17L257.17 192.03L262.57 193.76ZM257.17 192.03L255.89 186.17L250.49 184.44L246.38 188.57L247.66 194.43L253.06 196.16ZM261.01 209.60L259.73 203.74L254.34 202.01L250.23 206.13L251.51 211.99L256.90 213.72ZM264.85 227.15L263.57 221.30L258.18 219.57L254.07 223.69L255.35 229.54L260.74 231.27ZM223.01 219.17L221.72 213.33L216.33 211.60L212.23 215.73L213.52 221.57L218.91 223.30ZM213.52 221.57L212.23 215.73L206.84 214.00L202.74 218.13L204.03 223.97L209.42 225.70ZM225.83 209.20L224.54 203.35L219.15 201.63L215.05 205.75L216.33 211.60L221.72 213.33ZM216.33 211.60L215.05 205.75L209.66 204.03L205.56 208.16L206.84 214.00L212.23 215.73ZM229.68 226.75L228.40 220.90L223.01 219.17L218.91 223.30L220.19 229.14L225.58 230.87ZM220.19 229.14L218.91 223.30L213.52 221.57L209.42 225.70L210.70 231.54L216.09 233.26ZM232.51 216.78L231.22 210.93L225.83 209.20L221.72 213.33L223.01 219.17L228.40 220.90ZM197.36 216.41L196.07 210.56L190.68 208.84L186.58 212.97L187.87 218.81L193.26 220.53ZM187.87 218.81L186.58 212.97L181.20 211.25L177.10 215.38L178.39 221.22L183.78 222.94ZM200.17 206.44L198.88 200.59L193.49 198.87L189.39 203.00L190.68 208.84L196.07 210.56ZM190.68 208.84L189.39 203.00L184.00 201.28L179.90 205.41L181.20 211.25L186.58 212.97ZM204.03 223.97L202.74 218.13L197.36 216.41L193.26 220.53L194.55 226.38L199.93 228.10ZM194.55 226.38L193.26 220.53L187.87 218.81L183.78 222.94L185.07 228.78L190.45 230.50ZM206.84 214.00L205.56 208.16L200.17 206.44L196.07 210.56L197.36 216.41L202.74 218.13ZM238.15 196.82L236.87 190.97L231.47 189.24L227.37 193.37L228.65 199.22L234.04 200.95ZM228.65 199.22L227.37 193.37L221.97 191.65L217.87 195.78L219.15 201.63L224.54 203.35ZM240.98 186.84L239.70 180.99L234.30 179.26L230.19 183.39L231.47 189.24L236.87 190.97ZM231.47 189.24L230.19 183.39L224.79 181.67L220.69 185.80L221.97 191.65L227.37 193.37ZM244.83 204.41L243.55 198.55L238.15 196.82L234.04 200.95L235.33 206.80L240.72 208.53ZM235.33 206.80L234.04 200.95L228.65 199.22L224.54 203.35L225.83 209.20L231.22 210.93ZM247.66 194.43L246.38 188.57L240.98 186.84L236.87 190.97L238.15 196.82L243.55 198.55ZM212.47 194.05L211.19 188.20L205.79 186.48L201.69 190.61L202.98 196.46L208.37 198.18ZM202.98 196.46L201.69 190.61L196.30 188.89L192.20 193.02L193.49 198.87L198.88 200.59ZM215.29 184.07L214.00 178.22L208.61 176.50L204.50 180.63L205.79 186.48L211.19 188.20ZM205.79 186.48L204.50 180.63L199.11 178.91L195.01 183.04L196.30 188.89L201.69 190.61ZM219.15 201.63L217.87 195.78L212.47 194.05L208.37 198.18L209.66 204.03L215.05 205.75ZM209.66 204.03L208.37 198.18L202.98 196.46L198.88 200.59L200.17 206.44L205.56 208.16ZM221.97 191.65L220.69 185.80L215.29 184.07L211.19 188.20L212.47 194.05L217.87 195.78ZM233.53 244.29L232.25 238.44L226.86 236.71L222.76 240.83L224.05 246.68L229.43 248.40ZM224.05 246.68L222.76 240.83L217.38 239.11L213.28 243.23L214.56 249.07L219.95 250.80ZM236.36 234.32L235.07 228.47L229.68 226.75L225.58 230.87L226.86 236.71L232.25 238.44ZM226.86 236.71L225.58 230.87L220.19 229.14L216.09 233.26L217.38 239.11L222.76 240.83ZM240.20 251.86L238.92 246.01L233.53 244.29L229.43 248.40L230.71 254.25L236.10 255.98ZM230.71 254.25L229.43 248.40L224.05 246.68L219.95 250.80L221.23 256.64L226.61 258.36ZM243.03 241.90L241.74 236.05L236.36 234.32L232.25 238.44L233.53 244.29L238.92 246.01ZM207.89 241.51L206.60 235.66L201.22 233.94L197.12 238.06L198.41 243.90L203.79 245.63ZM198.41 243.90L197.12 238.06L191.74 236.34L187.65 240.46L188.93 246.30L194.32 248.02ZM210.70 231.54L209.42 225.70L204.03 223.97L199.93 228.10L201.22 233.94L206.60 235.66ZM201.22 233.94L199.93 228.10L194.55 226.38L190.45 230.50L191.74 236.34L197.12 238.06ZM214.56 249.07L213.28 243.23L207.89 241.51L203.79 245.63L205.08 251.47L210.46 253.19ZM205.08 251.47L203.79 245.63L198.41 243.90L194.32 248.02L195.60 253.86L200.99 255.58ZM217.38 239.11L216.09 233.26L210.70 231.54L206.60 235.66L207.89 241.51L213.28 243.23ZM248.68 221.96L247.40 216.11L242.00 214.38L237.90 218.50L239.18 224.35L244.57 226.08ZM239.18 224.35L237.90 218.50L232.51 216.78L228.40 220.90L229.68 226.75L235.07 228.47ZM251.51 211.99L250.23 206.13L244.83 204.41L240.72 208.53L242.00 214.38L247.40 216.11ZM242.00 214.38L240.72 208.53L235.33 206.80L231.22 210.93L232.51 216.78L237.90 218.50ZM255.35 229.54L254.07 223.69L248.68 221.96L244.57 226.08L245.85 231.93L251.24 233.66ZM245.85 231.93L244.57 226.08L239.18 224.35L235.07 228.47L236.36 234.32L241.74 236.05ZM258.18 219.57L256.90 213.72L251.51 211.99L247.40 216.11L248.68 221.96L254.07 223.69ZM176.66 258.66L175.37 252.83L169.99 251.11L165.91 255.23L167.20 261.07L172.57 262.78ZM182.26 238.75L180.97 232.90L175.59 231.19L171.50 235.31L172.79 241.15L178.17 242.87ZM188.93 246.30L187.65 240.46L182.26 238.75L178.17 242.87L179.46 248.71L184.84 250.42ZM179.46 248.71L178.17 242.87L172.79 241.15L168.70 245.27L169.99 251.11L175.37 252.83ZM191.74 236.34L190.45 230.50L185.07 228.78L180.97 232.90L182.26 238.75L187.65 240.46ZM213.20 128.95L211.91 123.09L206.51 121.37L202.40 125.51L203.69 131.37L209.09 133.09ZM216.02 118.95L214.73 113.09L209.33 111.37L205.22 115.51L206.51 121.37L211.91 123.09ZM221.68 98.94L220.39 93.07L214.98 91.35L210.86 95.50L212.15 101.36L217.56 103.08ZM224.51 88.92L223.22 83.06L217.81 81.34L213.69 85.48L214.98 91.35L220.39 93.07ZM228.37 106.52L227.09 100.66L221.68 98.94L217.56 103.08L218.85 108.95L224.26 110.67ZM218.85 108.95L217.56 103.08L212.15 101.36L208.04 105.51L209.33 111.37L214.73 113.09ZM231.21 96.51L229.92 90.65L224.51 88.92L220.39 93.07L221.68 98.94L227.09 100.66ZM233.01 58.87L231.72 52.99L226.30 51.27L222.17 55.43L223.47 61.30L228.88 63.02ZM223.47 61.30L222.17 55.43L216.76 53.71L212.64 57.86L213.93 63.73L219.34 65.45ZM235.84 48.84L234.55 42.97L229.13 41.24L225.01 45.40L226.30 51.27L231.72 52.99ZM241.52 28.78L240.23 22.90L234.81 21.18L230.68 25.34L231.97 31.21L237.39 32.94ZM248.23 36.38L246.94 30.50L241.52 28.78L237.39 32.94L238.68 38.81L244.10 40.54ZM238.68 38.81L237.39 32.94L231.97 31.21L227.84 35.37L229.13 41.24L234.55 42.97ZM251.08 26.35L249.79 20.47L244.36 18.74L240.23 22.90L241.52 28.78L246.94 30.50ZM242.79 149.29L241.50 143.43L236.10 141.71L231.98 145.84L233.27 151.70L238.67 153.43ZM233.27 151.70L231.98 145.84L226.58 144.12L222.47 148.25L223.76 154.11L229.16 155.83ZM245.62 139.30L244.34 133.43L238.93 131.71L234.81 135.84L236.10 141.71L241.50 143.43ZM236.10 141.71L234.81 135.84L229.41 134.12L225.29 138.26L226.58 144.12L231.98 145.84ZM249.47 156.88L248.19 151.02L242.79 149.29L238.67 153.43L239.96 159.29L245.36 161.01ZM239.96 159.29L238.67 153.43L233.27 151.70L229.16 155.83L230.44 161.69L235.84 163.42ZM252.31 146.89L251.03 141.02L245.62 139.30L241.50 143.43L242.79 149.29L248.19 151.02ZM217.07 146.53L215.78 140.67L210.38 138.95L206.27 143.09L207.56 148.95L212.96 150.67ZM207.56 148.95L206.27 143.09L200.87 141.37L196.76 145.51L198.05 151.36L203.45 153.08ZM219.89 136.53L218.60 130.67L213.20 128.95L209.09 133.09L210.38 138.95L215.78 140.67ZM223.76 154.11L222.47 148.25L217.07 146.53L212.96 150.67L214.25 156.52L219.65 158.25ZM214.25 156.52L212.96 150.67L207.56 148.95L203.45 153.08L204.74 158.94L210.14 160.66ZM226.58 144.12L225.29 138.26L219.89 136.53L215.78 140.67L217.07 146.53L222.47 148.25ZM257.98 126.89L256.70 121.02L251.29 119.29L247.17 123.43L248.46 129.29L253.86 131.02ZM248.46 129.29L247.17 123.43L241.76 121.70L237.64 125.84L238.93 131.71L244.34 133.43ZM260.83 116.88L259.54 111.01L254.13 109.28L250.01 113.42L251.29 119.29L256.70 121.02ZM251.29 119.29L250.01 113.42L244.60 111.70L240.48 115.84L241.76 121.70L247.17 123.43ZM264.68 134.48L263.39 128.61L257.98 126.89L253.86 131.02L255.15 136.89L260.55 138.62ZM255.15 136.89L253.86 131.02L248.46 129.29L244.34 133.43L245.62 139.30L251.03 141.02ZM232.24 124.12L230.95 118.25L225.55 116.53L221.43 120.67L222.72 126.53L228.12 128.26ZM222.72 126.53L221.43 120.67L216.02 118.95L211.91 123.09L213.20 128.95L218.60 130.67ZM235.07 114.11L233.78 108.25L228.37 106.52L224.26 110.67L225.55 116.53L230.95 118.25ZM225.55 116.53L224.26 110.67L218.85 108.95L214.73 113.09L216.02 118.95L221.43 120.67ZM238.93 131.71L237.64 125.84L232.24 124.12L228.12 128.26L229.41 134.12L234.81 135.84ZM229.41 134.12L228.12 128.26L222.72 126.53L218.60 130.67L219.89 136.53L225.29 138.26ZM241.76 121.70L240.48 115.84L235.07 114.11L230.95 118.25L232.24 124.12L237.64 125.84ZM253.32 174.46L252.04 168.60L246.64 166.87L242.53 171.00L243.81 176.86L249.21 178.59ZM243.81 176.86L242.53 171.00L237.13 169.28L233.01 173.41L234.30 179.26L239.70 180.99ZM256.16 164.47L254.88 158.61L249.47 156.88L245.36 161.01L246.64 166.87L252.04 168.60ZM246.64 166.87L245.36 161.01L239.96 159.29L235.84 163.42L237.13 169.28L242.53 171.00ZM260.01 182.05L258.72 176.19L253.32 174.46L249.21 178.59L250.49 184.44L255.89 186.17ZM250.49 184.44L249.21 178.59L243.81 176.86L239.70 180.99L240.98 186.84L246.38 188.57ZM262.84 172.06L261.56 166.20L256.16 164.47L252.04 168.60L253.32 174.46L258.72 176.19ZM227.62 171.68L226.33 165.83L220.93 164.10L216.82 168.23L218.11 174.09L223.51 175.81ZM218.11 174.09L216.82 168.23L211.43 166.51L207.32 170.65L208.61 176.50L214.00 178.22ZM230.44 161.69L229.16 155.83L223.76 154.11L219.65 158.25L220.93 164.10L226.33 165.83ZM220.93 164.10L219.65 158.25L214.25 156.52L210.14 160.66L211.43 166.51L216.82 168.23ZM234.30 179.26L233.01 173.41L227.62 171.68L223.51 175.81L224.79 181.67L230.19 183.39ZM224.79 181.67L223.51 175.81L218.11 174.09L214.00 178.22L215.29 184.07L220.69 185.80ZM237.13 169.28L235.84 163.42L230.44 161.69L226.33 165.83L227.62 171.68L233.01 173.41ZM259.00 154.48L257.71 148.61L252.31 146.89L248.19 151.02L249.47 156.88L254.88 158.61ZM261.83 144.48L260.55 138.62L255.15 136.89L251.03 141.02L252.31 146.89L257.71 148.61ZM265.68 162.07L264.40 156.21L259.00 154.48L254.88 158.61L256.16 164.47L261.56 166.20ZM193.49 198.87L192.20 193.02L186.81 191.30L182.71 195.43L184.00 201.28L189.39 203.00ZM201.92 168.93L200.63 163.07L195.24 161.35L191.14 165.49L192.43 171.34L197.82 173.06ZM204.74 158.94L203.45 153.08L198.05 151.36L193.95 155.50L195.24 161.35L200.63 163.07ZM208.61 176.50L207.32 170.65L201.92 168.93L197.82 173.06L199.11 178.91L204.50 180.63ZM199.11 178.91L197.82 173.06L192.43 171.34L188.32 175.47L189.62 181.32L195.01 183.04ZM211.43 166.51L210.14 160.66L204.74 158.94L200.63 163.07L201.92 168.93L207.32 170.65ZM262.66 79.24L261.37 73.37L255.96 71.64L251.83 75.79L253.11 81.66L258.53 83.39ZM253.11 81.66L251.83 75.79L246.41 74.06L242.29 78.21L243.57 84.08L248.99 85.81ZM265.50 69.22L264.22 63.35L258.80 61.62L254.67 65.77L255.96 71.64L261.37 73.37ZM255.96 71.64L254.67 65.77L249.25 64.04L245.13 68.19L246.41 74.06L251.83 75.79ZM259.81 89.26L258.53 83.39L253.11 81.66L248.99 85.81L250.27 91.68L255.69 93.40ZM236.87 76.48L235.58 70.61L230.17 68.89L226.05 73.04L227.34 78.91L232.75 80.63ZM227.34 78.91L226.05 73.04L220.64 71.32L216.51 75.47L217.81 81.34L223.22 83.06ZM239.71 66.46L238.42 60.59L233.01 58.87L228.88 63.02L230.17 68.89L235.58 70.61ZM230.17 68.89L228.88 63.02L223.47 61.30L219.34 65.45L220.64 71.32L226.05 73.04ZM243.57 84.08L242.29 78.21L236.87 76.48L232.75 80.63L234.04 86.50L239.45 88.23ZM234.04 86.50L232.75 80.63L227.34 78.91L223.22 83.06L224.51 88.92L229.92 90.65ZM246.41 74.06L245.13 68.19L239.71 66.46L235.58 70.61L236.87 76.48L242.29 78.21ZM252.10 54.01L250.81 48.14L245.39 46.41L241.26 50.57L242.55 56.44L247.97 58.16ZM242.55 56.44L241.26 50.57L235.84 48.84L231.72 52.99L233.01 58.87L238.42 60.59ZM254.94 43.99L253.65 38.11L248.23 36.38L244.10 40.54L245.39 46.41L250.81 48.14ZM245.39 46.41L244.10 40.54L238.68 38.81L234.55 42.97L235.84 48.84L241.26 50.57ZM258.80 61.62L257.51 55.74L252.10 54.01L247.97 58.16L249.25 64.04L254.67 65.77ZM249.25 64.04L247.97 58.16L242.55 56.44L238.42 60.59L239.71 66.46L245.13 68.19ZM261.65 51.59L260.36 45.71L254.94 43.99L250.81 48.14L252.10 54.01L257.51 55.74ZM263.67 106.87L262.38 101.00L256.97 99.27L252.85 103.42L254.13 109.28L259.54 111.01ZM266.51 96.86L265.23 90.99L259.81 89.26L255.69 93.40L256.97 99.27L262.38 101.00ZM247.44 101.69L246.15 95.82L240.74 94.09L236.62 98.24L237.90 104.11L243.31 105.83ZM237.90 104.11L236.62 98.24L231.21 96.51L227.09 100.66L228.37 106.52L233.78 108.25ZM250.27 91.68L248.99 85.81L243.57 84.08L239.45 88.23L240.74 94.09L246.15 95.82ZM240.74 94.09L239.45 88.23L234.04 86.50L229.92 90.65L231.21 96.51L236.62 98.24ZM254.13 109.28L252.85 103.42L247.44 101.69L243.31 105.83L244.60 111.70L250.01 113.42ZM244.60 111.70L243.31 105.83L237.90 104.11L233.78 108.25L235.07 114.11L240.48 115.84ZM256.97 99.27L255.69 93.40L250.27 91.68L246.15 95.82L247.44 101.69L252.85 103.42Z"/><path data-band="3" fill="#dc2626" fill-opacity="0.35" d="M247.21 8.70L245.92 2.82L240.49 1.10L236.36 5.26L237.65 11.14L243.07 12.86ZM16.14 77.69L14.82 71.85L9.43 70.16L5.36 74.33L6.68 80.17L12.07 81.85ZM6.68 80.17L5.36 74.33L-0.03 72.65L-4.09 76.81L-2.77 82.65L2.61 84.33ZM18.90 67.68L17.58 61.84L12.19 60.15L8.11 64.32L9.43 70.16L14.82 71.85ZM9.43 70.16L8.11 64.32L2.72 62.64L-1.35 66.80L-0.03 72.65L5.36 74.33ZM22.85 85.22L21.53 79.37L16.14 77.69L12.07 81.85L13.39 87.69L18.78 89.38ZM13.39 87.69L12.07 81.85L6.68 80.17L2.61 84.33L3.93 90.17L9.32 91.85ZM25.61 75.21L24.29 69.37L18.90 67.68L14.82 71.85L16.14 77.69L21.53 79.37ZM31.13 55.19L29.81 49.34L24.41 47.66L20.34 51.82L21.65 57.67L27.05 59.36ZM21.65 57.67L20.34 51.82L14.94 50.14L10.87 54.31L12.19 60.15L17.58 61.84ZM33.89 45.18L32.57 39.33L27.17 37.64L23.09 41.81L24.41 47.66L29.81 49.34ZM24.41 47.66L23.09 41.81L17.70 40.13L13.62 44.29L14.94 50.14L20.34 51.82ZM37.84 62.73L36.52 56.88L31.13 55.19L27.05 59.36L28.37 65.20L33.76 66.89ZM28.37 65.20L27.05 59.36L21.65 57.67L17.58 61.84L18.90 67.68L24.29 69.37ZM40.60 52.71L39.28 46.86L33.89 45.18L29.81 49.34L31.13 55.19L36.52 56.88ZM5.47 52.63L4.15 46.78L-1.24 45.10L-5.31 49.27L-3.99 55.11L1.40 56.79ZM8.23 42.61L6.91 36.76L1.51 35.08L-2.56 39.25L-1.24 45.10L4.15 46.78ZM12.19 60.15L10.87 54.31L5.47 52.63L1.40 56.79L2.72 62.64L8.11 64.32ZM2.72 62.64L1.40 56.79L-3.99 55.11L-8.06 59.28L-6.74 65.12L-1.35 66.80ZM14.94 50.14L13.62 44.29L8.23 42.61L4.15 46.78L5.47 52.63L10.87 54.31ZM26.80 102.75L25.48 96.90L20.10 95.22L16.03 99.38L17.34 105.22L22.73 106.90ZM17.34 105.22L16.03 99.38L10.64 97.69L6.57 101.85L7.89 107.69L13.28 109.37ZM29.56 92.75L28.24 86.90L22.85 85.22L18.78 89.38L20.10 95.22L25.48 96.90ZM20.10 95.22L18.78 89.38L13.39 87.69L9.32 91.85L10.64 97.69L16.03 99.38ZM33.50 110.27L32.19 104.43L26.80 102.75L22.73 106.90L24.05 112.74L29.43 114.43ZM24.05 112.74L22.73 106.90L17.34 105.22L13.28 109.37L14.59 115.21L19.98 116.89ZM36.26 100.28L34.95 94.43L29.56 92.75L25.48 96.90L26.80 102.75L32.19 104.43ZM1.19 100.17L-0.13 94.33L-5.52 92.65L-9.58 96.81L-8.26 102.65L-2.88 104.33ZM3.93 90.17L2.61 84.33L-2.77 82.65L-6.84 86.81L-5.52 92.65L-0.13 94.33ZM7.89 107.69L6.57 101.85L1.19 100.17L-2.88 104.33L-1.56 110.16L3.82 111.85ZM10.64 97.69L9.32 91.85L3.93 90.17L-0.13 94.33L1.19 100.17L6.57 101.85ZM41.78 80.27L40.47 74.42L35.08 72.74L31.00 76.90L32.31 82.74L37.71 84.43ZM32.31 82.74L31.00 76.90L25.61 75.21L21.53 79.37L22.85 85.22L28.24 86.90ZM44.55 70.26L43.23 64.42L37.84 62.73L33.76 66.89L35.08 72.74L40.47 74.42ZM35.08 72.74L33.76 66.89L28.37 65.20L24.29 69.37L25.61 75.21L31.00 76.90ZM48.49 87.81L47.18 81.96L41.78 80.27L37.71 84.43L39.02 90.28L44.41 91.96ZM39.02 90.28L37.71 84.43L32.31 82.74L28.24 86.90L29.56 92.75L34.95 94.43ZM51.25 77.80L49.94 71.95L44.55 70.26L40.47 74.42L41.78 80.27L47.18 81.96ZM35.46 7.57L34.15 1.71L28.74 0.03L24.66 4.20L25.98 10.06L31.38 11.74ZM25.98 10.06L24.66 4.20L19.26 2.52L15.18 6.70L16.50 12.55L21.90 14.23ZM38.23 -2.46L36.91 -8.32L31.51 -10.00L27.42 -5.83L28.74 0.03L34.15 1.71ZM28.74 0.03L27.42 -5.83L22.02 -7.51L17.94 -3.33L19.26 2.52L24.66 4.20ZM42.18 15.11L40.87 9.26L35.46 7.57L31.38 11.74L32.70 17.60L38.10 19.28ZM32.70 17.60L31.38 11.74L25.98 10.06L21.90 14.23L23.22 20.09L28.62 21.77ZM44.95 5.08L43.64 -0.78L38.23 -2.46L34.15 1.71L35.46 7.57L40.87 9.26ZM9.77 5.02L8.45 -0.84L3.05 -2.52L-1.03 1.66L0.30 7.51L5.70 9.19ZM0.30 7.51L-1.03 1.66L-6.43 -0.02L-10.50 4.16L-9.18 10.01L-3.78 11.69ZM3.05 -2.52L1.73 -8.37L-3.67 -10.05L-7.75 -5.87L-6.43 -0.02L-1.03 1.66ZM16.50 12.55L15.18 6.70L9.77 5.02L5.70 9.19L7.02 15.04L12.42 16.72ZM7.02 15.04L5.70 9.19L0.30 7.51L-3.78 11.69L-2.46 17.54L2.94 19.21ZM19.26 2.52L17.94 -3.33L12.53 -5.02L8.45 -0.84L9.77 5.02L15.18 6.70ZM46.13 32.68L44.82 26.82L39.42 25.14L35.33 29.31L36.65 35.16L42.05 36.85ZM36.65 35.16L35.33 29.31L29.93 27.62L25.85 31.79L27.17 37.64L32.57 39.33ZM48.90 22.66L47.59 16.80L42.18 15.11L38.10 19.28L39.42 25.14L44.82 26.82ZM39.42 25.14L38.10 19.28L32.70 17.60L28.62 21.77L29.93 27.62L35.33 29.31ZM52.85 40.22L51.53 34.37L46.13 32.68L42.05 36.85L43.37 42.70L48.77 44.39ZM43.37 42.70L42.05 36.85L36.65 35.16L32.57 39.33L33.89 45.18L39.28 46.86ZM55.62 30.20L54.31 24.34L48.90 22.66L44.82 26.82L46.13 32.68L51.53 34.37ZM20.46 30.11L19.14 24.26L13.74 22.57L9.66 26.74L10.98 32.60L16.38 34.28ZM10.98 32.60L9.66 26.74L4.26 25.07L0.19 29.24L1.51 35.08L6.91 36.76ZM23.22 20.09L21.90 14.23L16.50 12.55L12.42 16.72L13.74 22.57L19.14 24.26ZM13.74 22.57L12.42 16.72L7.02 15.04L2.94 19.21L4.26 25.07L9.66 26.74ZM27.17 37.64L25.85 31.79L20.46 30.11L16.38 34.28L17.70 40.13L23.09 41.81ZM17.70 40.13L16.38 34.28L10.98 32.60L6.91 36.76L8.23 42.61L13.62 44.29ZM29.93 27.62L28.62 21.77L23.22 20.09L19.14 24.26L20.46 30.11L25.85 31.79ZM61.17 10.15L59.85 4.29L54.45 2.60L50.36 6.77L51.67 12.63L57.08 14.32ZM51.67 12.63L50.36 6.77L44.95 5.08L40.87 9.26L42.18 15.11L47.59 16.80ZM63.95 0.11L62.63 -5.75L57.22 -7.44L53.13 -3.26L54.45 2.60L59.85 4.29ZM54.45 2.60L53.13 -3.26L47.73 -4.95L43.64 -0.78L44.95 5.08L50.36 6.77ZM67.89 17.70L66.57 11.84L61.17 10.15L57.08 14.32L58.39 20.17L63.80 21.86ZM58.39 20.17L57.08 14.32L51.67 12.63L47.59 16.80L48.90 22.66L54.31 24.34ZM70.67 7.67L69.35 1.80L63.95 0.11L59.85 4.29L61.17 10.15L66.57 11.84ZM1.51 35.08L0.19 29.24L-5.21 27.56L-9.28 31.73L-7.96 37.58L-2.56 39.25ZM4.26 25.07L2.94 19.21L-2.46 17.54L-6.53 21.71L-5.21 27.56L0.19 29.24ZM63.06 130.41L61.75 124.56L56.36 122.87L52.29 127.02L53.60 132.86L58.98 134.56ZM53.60 132.86L52.29 127.02L46.90 125.33L42.83 129.48L44.14 135.32L49.53 137.01ZM65.83 120.41L64.52 114.57L59.13 112.88L55.05 117.03L56.36 122.87L61.75 124.56ZM56.36 122.87L55.05 117.03L49.66 115.34L45.59 119.49L46.90 125.33L52.29 127.02ZM69.76 137.94L68.45 132.10L63.06 130.41L58.98 134.56L60.29 140.40L65.68 142.09ZM60.29 140.40L58.98 134.56L53.60 132.86L49.53 137.01L50.84 142.85L56.22 144.54ZM72.53 127.95L71.22 122.11L65.83 120.41L61.75 124.56L63.06 130.41L68.45 132.10ZM37.44 127.79L36.13 121.95L30.75 120.27L26.68 124.42L27.99 130.26L33.37 131.94ZM27.99 130.26L26.68 124.42L21.29 122.73L17.23 126.89L18.54 132.72L23.92 134.41ZM40.20 117.80L38.89 111.96L33.50 110.27L29.43 114.43L30.75 120.27L36.13 121.95ZM30.75 120.27L29.43 114.43L24.05 112.74L19.98 116.89L21.29 122.73L26.68 124.42ZM44.14 135.32L42.83 129.48L37.44 127.79L33.37 131.94L34.69 137.78L40.07 139.47ZM34.69 137.78L33.37 131.94L27.99 130.26L23.92 134.41L25.24 140.24L30.62 141.93ZM46.90 125.33L45.59 119.49L40.20 117.80L36.13 121.95L37.44 127.79L42.83 129.48ZM78.07 107.96L76.76 102.11L71.37 100.42L67.29 104.57L68.60 110.42L73.99 112.11ZM68.60 110.42L67.29 104.57L61.90 102.88L57.82 107.03L59.13 112.88L64.52 114.57ZM80.85 97.96L79.54 92.11L74.14 90.42L70.06 94.57L71.37 100.42L76.76 102.11ZM71.37 100.42L70.06 94.57L64.67 92.88L60.59 97.03L61.90 102.88L67.29 104.57ZM84.77 115.50L83.46 109.66L78.07 107.96L73.99 112.11L75.30 117.96L80.69 119.65ZM75.30 117.96L73.99 112.11L68.60 110.42L64.52 114.57L65.83 120.41L71.22 122.11ZM87.55 105.51L86.24 99.66L80.85 97.96L76.76 102.11L78.07 107.96L83.46 109.66ZM52.43 105.34L51.12 99.50L45.73 97.81L41.65 101.96L42.96 107.81L48.35 109.50ZM42.96 107.81L41.65 101.96L36.26 100.28L32.19 104.43L33.50 110.27L38.89 111.96ZM55.19 95.34L53.88 89.50L48.49 87.81L44.41 91.96L45.73 97.81L51.12 99.50ZM45.73 97.81L44.41 91.96L39.02 90.28L34.95 94.43L36.26 100.28L41.65 101.96ZM59.13 112.88L57.82 107.03L52.43 105.34L48.35 109.50L49.66 115.34L55.05 117.03ZM49.66 115.34L48.35 109.50L42.96 107.81L38.89 111.96L40.20 117.80L45.59 119.49ZM61.90 102.88L60.59 97.03L55.19 95.34L51.12 99.50L52.43 105.34L57.82 107.03ZM73.68 155.46L72.37 149.62L66.99 147.93L62.91 152.07L64.22 157.91L69.60 159.61ZM64.22 157.91L62.91 152.07L57.53 150.38L53.46 154.53L54.77 160.36L60.15 162.06ZM76.45 145.48L75.14 139.64L69.76 137.94L65.68 142.09L66.99 147.93L72.37 149.62ZM66.99 147.93L65.68 142.09L60.29 140.40L56.22 144.54L57.53 150.38L62.91 152.07ZM80.37 163.00L79.06 157.16L73.68 155.46L69.60 159.61L70.91 165.45L76.29 167.14ZM70.91 165.45L69.60 159.61L64.22 157.91L60.15 162.06L61.46 167.89L66.84 169.59ZM83.14 153.02L81.84 147.18L76.45 145.48L72.37 149.62L73.68 155.46L79.06 157.16ZM48.08 152.83L46.76 147.00L41.38 145.31L37.31 149.45L38.63 155.29L44.01 156.98ZM38.63 155.29L37.31 149.45L31.93 147.77L27.87 151.91L29.18 157.75L34.56 159.44ZM50.84 142.85L49.53 137.01L44.14 135.32L40.07 139.47L41.38 145.31L46.76 147.00ZM41.38 145.31L40.07 139.47L34.69 137.78L30.62 141.93L31.93 147.77L37.31 149.45ZM54.77 160.36L53.46 154.53L48.08 152.83L44.01 156.98L45.32 162.82L50.70 164.51ZM45.32 162.82L44.01 156.98L38.63 155.29L34.56 159.44L35.87 165.27L41.25 166.96ZM57.53 150.38L56.22 144.54L50.84 142.85L46.76 147.00L48.08 152.83L53.46 154.53ZM88.69 133.04L87.38 127.20L82.00 125.50L77.91 129.65L79.22 135.49L84.61 137.19ZM79.22 135.49L77.91 129.65L72.53 127.95L68.45 132.10L69.76 137.94L75.14 139.64ZM91.47 123.05L90.16 117.20L84.77 115.50L80.69 119.65L82.00 125.50L87.38 127.20ZM82.00 125.50L80.69 119.65L75.30 117.96L71.22 122.11L72.53 127.95L77.91 129.65ZM95.39 140.58L94.08 134.74L88.69 133.04L84.61 137.19L85.92 143.03L91.30 144.73ZM85.92 143.03L84.61 137.19L79.22 135.49L75.14 139.64L76.45 145.48L81.84 147.18ZM98.16 130.59L96.86 124.75L91.47 123.05L87.38 127.20L88.69 133.04L94.08 134.74ZM3.61 155.15L2.29 149.32L-3.09 147.64L-7.15 151.79L-5.83 157.62L-0.45 159.30ZM6.35 145.17L5.03 139.34L-0.35 137.66L-4.41 141.81L-3.09 147.64L2.29 149.32ZM11.84 125.20L10.53 119.36L5.14 117.68L1.08 121.84L2.40 127.67L7.78 129.35ZM2.40 127.67L1.08 121.84L-4.30 120.16L-8.36 124.31L-7.04 130.14L-1.66 131.82ZM14.59 115.21L13.28 109.37L7.89 107.69L3.82 111.85L5.14 117.68L10.53 119.36ZM5.14 117.68L3.82 111.85L-1.56 110.16L-5.62 114.32L-4.30 120.16L1.08 121.84ZM18.54 132.72L17.23 126.89L11.84 125.20L7.78 129.35L9.10 135.19L14.48 136.87ZM9.10 135.19L7.78 129.35L2.40 127.67L-1.66 131.82L-0.35 137.66L5.03 139.34ZM21.29 122.73L19.98 116.89L14.59 115.21L10.53 119.36L11.84 125.20L17.23 126.89ZM7.56 172.64L6.24 166.81L0.86 165.13L-3.19 169.28L-1.88 175.10L3.50 176.79ZM10.30 162.67L8.98 156.84L3.61 155.15L-0.45 159.30L0.86 165.13L6.24 166.81ZM0.86 165.13L-0.45 159.30L-5.83 157.62L-9.88 161.77L-8.57 167.59L-3.19 169.28ZM14.24 180.16L12.93 174.33L7.56 172.64L3.50 176.79L4.81 182.61L10.19 184.30ZM4.81 182.61L3.50 176.79L-1.88 175.10L-5.93 179.25L-4.61 185.07L0.76 186.76ZM16.99 170.18L15.68 164.35L10.30 162.67L6.24 166.81L7.56 172.64L12.93 174.33ZM22.49 150.23L21.17 144.39L15.79 142.71L11.73 146.86L13.04 152.69L18.42 154.37ZM13.04 152.69L11.73 146.86L6.35 145.17L2.29 149.32L3.61 155.15L8.98 156.84ZM25.24 140.24L23.92 134.41L18.54 132.72L14.48 136.87L15.79 142.71L21.17 144.39ZM15.79 142.71L14.48 136.87L9.10 135.19L5.03 139.34L6.35 145.17L11.73 146.86ZM29.18 157.75L27.87 151.91L22.49 150.23L18.42 154.37L19.74 160.21L25.12 161.89ZM19.74 160.21L18.42 154.37L13.04 152.69L8.98 156.84L10.30 162.67L15.68 164.35ZM31.93 147.77L30.62 141.93L25.24 140.24L21.17 144.39L22.49 150.23L27.87 151.91ZM82.47 60.39L81.16 54.53L75.76 52.84L71.67 57.00L72.99 62.85L78.38 64.55ZM72.99 62.85L71.67 57.00L66.28 55.31L62.19 59.47L63.50 65.32L68.90 67.01ZM85.25 50.37L83.94 44.51L78.54 42.82L74.45 46.98L75.76 52.84L81.16 54.53ZM75.76 52.84L74.45 46.98L69.05 45.29L64.96 49.45L66.28 55.31L71.67 57.00ZM89.18 67.94L87.87 62.08L82.47 60.39L78.38 64.55L79.69 70.40L85.09 72.10ZM79.69 70.40L78.38 64.55L72.99 62.85L68.90 67.01L70.21 72.87L75.61 74.56ZM91.96 57.92L90.66 52.07L85.25 50.37L81.16 54.53L82.47 60.39L87.87 62.08ZM56.79 57.78L55.48 51.93L50.08 50.24L46.00 54.40L47.31 60.25L52.71 61.94ZM47.31 60.25L46.00 54.40L40.60 52.71L36.52 56.88L37.84 62.73L43.23 64.42ZM59.56 47.76L58.25 41.91L52.85 40.22L48.77 44.39L50.08 50.24L55.48 51.93ZM50.08 50.24L48.77 44.39L43.37 42.70L39.28 46.86L40.60 52.71L46.00 54.40ZM63.50 65.32L62.19 59.47L56.79 57.78L52.71 61.94L54.02 67.79L59.42 69.48ZM54.02 67.79L52.71 61.94L47.31 60.25L43.23 64.42L44.55 70.26L49.94 71.95ZM66.28 55.31L64.96 49.45L59.56 47.76L55.48 51.93L56.79 57.78L62.19 59.47ZM97.54 37.88L96.23 32.02L90.82 30.33L86.73 34.49L88.04 40.35L93.44 42.05ZM88.04 40.35L86.73 34.49L81.32 32.80L77.23 36.96L78.54 42.82L83.94 44.51ZM100.32 27.86L99.01 22.00L93.61 20.30L89.51 24.47L90.82 30.33L96.23 32.02ZM90.82 30.33L89.51 24.47L84.10 22.77L80.01 26.94L81.32 32.80L86.73 34.49ZM104.25 45.44L102.94 39.58L97.54 37.88L93.44 42.05L94.75 47.91L100.15 49.60ZM94.75 47.91L93.44 42.05L88.04 40.35L83.94 44.51L85.25 50.37L90.66 52.07ZM107.04 35.42L105.73 29.56L100.32 27.86L96.23 32.02L97.54 37.88L102.94 39.58ZM71.83 35.27L70.51 29.41L65.11 27.72L61.02 31.89L62.34 37.74L67.74 39.44ZM62.34 37.74L61.02 31.89L55.62 30.20L51.53 34.37L52.85 40.22L58.25 41.91ZM74.61 25.25L73.29 19.39L67.89 17.70L63.80 21.86L65.11 27.72L70.51 29.41ZM65.11 27.72L63.80 21.86L58.39 20.17L54.31 24.34L55.62 30.20L61.02 31.89ZM78.54 42.82L77.23 36.96L71.83 35.27L67.74 39.44L69.05 45.29L74.45 46.98ZM69.05 45.29L67.74 39.44L62.34 37.74L58.25 41.91L59.56 47.76L64.96 49.45ZM81.32 32.80L80.01 26.94L74.61 25.25L70.51 29.41L71.83 35.27L77.23 36.96ZM93.11 85.50L91.80 79.65L86.40 77.95L82.31 82.11L83.62 87.96L89.02 89.65ZM83.62 87.96L82.31 82.11L76.92 80.41L72.83 84.57L74.14 90.42L79.54 92.11ZM95.89 75.49L94.58 69.63L89.18 67.94L85.09 72.10L86.40 77.95L91.80 79.65ZM86.40 77.95L85.09 72.10L79.69 70.40L75.61 74.56L76.92 80.41L82.31 82.11ZM99.81 93.05L98.50 87.20L93.11 85.50L89.02 89.65L90.33 95.50L95.72 97.20ZM90.33 95.50L89.02 89.65L83.62 87.96L79.54 92.11L80.85 97.96L86.24 99.66ZM102.60 83.04L101.29 77.19L95.89 75.49L91.80 79.65L93.11 85.50L98.50 87.20ZM67.44 82.87L66.13 77.02L60.73 75.33L56.65 79.49L57.96 85.34L63.35 87.03ZM57.96 85.34L56.65 79.49L51.25 77.80L47.18 81.96L48.49 87.81L53.88 89.50ZM70.21 72.87L68.90 67.01L63.50 65.32L59.42 69.48L60.73 75.33L66.13 77.02ZM60.73 75.33L59.42 69.48L54.02 67.79L49.94 71.95L51.25 77.80L56.65 79.49ZM74.14 90.42L72.83 84.57L67.44 82.87L63.35 87.03L64.67 92.88L70.06 94.57ZM64.67 92.88L63.35 87.03L57.96 85.34L53.88 89.50L55.19 95.34L60.59 97.03ZM76.92 80.41L75.61 74.56L70.21 72.87L66.13 77.02L67.44 82.87L72.83 84.57ZM108.17 63.02L106.86 57.16L101.46 55.46L97.37 59.62L98.67 65.48L104.07 67.18ZM98.67 65.48L97.37 59.62L91.96 57.92L87.87 62.08L89.18 67.94L94.58 69.63ZM110.96 53.00L109.65 47.14L104.25 45.44L100.15 49.60L101.46 55.46L106.86 57.16ZM101.46 55.46L100.15 49.60L94.75 47.91L90.66 52.07L91.96 57.92L97.37 59.62ZM114.88 70.58L113.57 64.72L108.17 63.02L104.07 67.18L105.38 73.03L110.78 74.73ZM105.38 73.03L104.07 67.18L98.67 65.48L94.58 69.63L95.89 75.49L101.29 77.19ZM117.67 60.56L116.36 54.70L110.96 53.00L106.86 57.16L108.17 63.02L113.57 64.72ZM179.31 -1.86L178.01 -7.74L172.59 -9.45L168.47 -5.28L169.77 0.59L175.19 2.30ZM169.77 0.59L168.47 -5.28L163.05 -6.99L158.93 -2.82L160.24 3.05L165.65 4.76ZM186.03 5.73L184.73 -0.15L179.31 -1.86L175.19 2.30L176.49 8.18L181.91 9.89ZM176.49 8.18L175.19 2.30L169.77 0.59L165.65 4.76L166.95 10.63L172.37 12.34ZM143.99 -2.07L142.68 -7.94L137.26 -9.64L133.15 -5.47L134.46 0.40L139.87 2.10ZM160.24 3.05L158.93 -2.82L153.52 -4.53L149.40 -0.36L150.71 5.51L156.12 7.22ZM150.71 5.51L149.40 -0.36L143.99 -2.07L139.87 2.10L141.18 7.97L146.59 9.67ZM108.70 -2.24L107.39 -8.10L101.98 -9.80L97.87 -5.63L99.19 0.24L104.60 1.93ZM99.19 0.24L97.87 -5.63L92.46 -7.32L88.36 -3.15L89.68 2.71L95.08 4.41ZM73.45 -2.37L72.13 -8.23L66.72 -9.92L62.63 -5.75L63.95 0.11L69.35 1.80ZM112.62 15.36L111.32 9.50L105.91 7.80L101.80 11.97L103.11 17.83L108.52 19.53ZM103.11 17.83L101.80 11.97L96.40 10.27L92.30 14.44L93.61 20.30L99.01 22.00ZM115.42 5.33L114.11 -0.54L108.70 -2.24L104.60 1.93L105.91 7.80L111.32 9.50ZM105.91 7.80L104.60 1.93L99.19 0.24L95.08 4.41L96.40 10.27L101.80 11.97ZM119.34 22.93L118.03 17.06L112.62 15.36L108.52 19.53L109.83 25.39L115.24 27.09ZM109.83 25.39L108.52 19.53L103.11 17.83L99.01 22.00L100.32 27.86L105.73 29.56ZM122.14 12.90L120.83 7.03L115.42 5.33L111.32 9.50L112.62 15.36L118.03 17.06ZM86.89 12.74L85.58 6.88L80.17 5.19L76.07 9.36L77.39 15.22L82.79 16.91ZM77.39 15.22L76.07 9.36L70.67 7.67L66.57 11.84L67.89 17.70L73.29 19.39ZM89.68 2.71L88.36 -3.15L82.95 -4.85L78.86 -0.67L80.17 5.19L85.58 6.88ZM80.17 5.19L78.86 -0.67L73.45 -2.37L69.35 1.80L70.67 7.67L76.07 9.36ZM93.61 20.30L92.30 14.44L86.89 12.74L82.79 16.91L84.10 22.77L89.51 24.47ZM84.10 22.77L82.79 16.91L77.39 15.22L73.29 19.39L74.61 25.25L80.01 26.94ZM96.40 10.27L95.08 4.41L89.68 2.71L85.58 6.88L86.89 12.74L92.30 14.44ZM134.46 0.40L133.15 -5.47L127.74 -7.18L123.63 -3.01L124.94 2.86L130.35 4.56ZM124.94 2.86L123.63 -3.01L118.22 -4.71L114.11 -0.54L115.42 5.33L120.83 7.03ZM90.48 252.93L89.18 247.10L83.81 245.40L79.74 249.53L81.04 255.35L86.41 257.05ZM81.04 255.35L79.74 249.53L74.37 247.83L70.31 251.95L71.61 257.78L76.98 259.48ZM93.25 242.97L91.95 237.14L86.57 235.44L82.51 239.57L83.81 245.40L89.18 247.10ZM83.81 245.40L82.51 239.57L77.13 237.87L73.07 242.00L74.37 247.83L79.74 249.53ZM97.15 260.46L95.85 254.63L90.48 252.93L86.41 257.05L87.72 262.88L93.08 264.58ZM87.72 262.88L86.41 257.05L81.04 255.35L76.98 259.48L78.28 265.30L83.65 267.00ZM99.92 250.50L98.62 244.68L93.25 242.97L89.18 247.10L90.48 252.93L95.85 254.63ZM64.94 250.26L63.63 244.43L58.26 242.74L54.20 246.87L55.51 252.69L60.88 254.38ZM55.51 252.69L54.20 246.87L48.84 245.17L44.78 249.30L46.08 255.12L51.45 256.82ZM67.70 240.30L66.39 234.48L61.02 232.78L56.96 236.91L58.26 242.74L63.63 244.43ZM58.26 242.74L56.96 236.91L51.59 235.22L47.53 239.35L48.84 245.17L54.20 246.87ZM71.61 257.78L70.31 251.95L64.94 250.26L60.88 254.38L62.18 260.21L67.55 261.90ZM62.18 260.21L60.88 254.38L55.51 252.69L51.45 256.82L52.76 262.64L58.12 264.33ZM74.37 247.83L73.07 242.00L67.70 240.30L63.63 244.43L64.94 250.26L70.31 251.95ZM105.47 230.59L104.17 224.76L98.79 223.06L94.72 227.19L96.02 233.02L101.39 234.72ZM96.02 233.02L94.72 227.19L89.34 225.48L85.27 229.61L86.57 235.44L91.95 237.14ZM108.24 220.63L106.94 214.80L101.56 213.09L97.49 217.22L98.79 223.06L104.17 224.76ZM98.79 223.06L97.49 217.22L92.11 215.52L88.04 219.65L89.34 225.48L94.72 227.19ZM112.14 238.13L110.84 232.30L105.47 230.59L101.39 234.72L102.69 240.55L108.07 242.25ZM102.69 240.55L101.39 234.72L96.02 233.02L91.95 237.14L93.25 242.97L98.62 244.68ZM114.92 228.17L113.62 222.33L108.24 220.63L104.17 224.76L105.47 230.59L110.84 232.30ZM79.90 227.92L78.59 222.09L73.22 220.39L69.15 224.52L70.46 230.35L75.83 232.05ZM70.46 230.35L69.15 224.52L63.78 222.82L59.72 226.95L61.02 232.78L66.39 234.48ZM82.66 217.95L81.36 212.12L75.98 210.42L71.92 214.56L73.22 220.39L78.59 222.09ZM73.22 220.39L71.92 214.56L66.54 212.86L62.47 216.99L63.78 222.82L69.15 224.52ZM86.57 235.44L85.27 229.61L79.90 227.92L75.83 232.05L77.13 237.87L82.51 239.57ZM77.13 237.87L75.83 232.05L70.46 230.35L66.39 234.48L67.70 240.30L73.07 242.00ZM89.34 225.48L88.04 219.65L82.66 217.95L78.59 222.09L79.90 227.92L85.27 229.61ZM116.04 255.62L114.74 249.79L109.37 248.08L105.29 252.21L106.59 258.04L111.96 259.74ZM106.59 258.04L105.29 252.21L99.92 250.50L95.85 254.63L97.15 260.46L102.52 262.16ZM118.82 245.66L117.52 239.83L112.14 238.13L108.07 242.25L109.37 248.08L114.74 249.79ZM109.37 248.08L108.07 242.25L102.69 240.55L98.62 244.68L99.92 250.50L105.29 252.21ZM122.71 263.16L121.41 257.33L116.04 255.62L111.96 259.74L113.26 265.57L118.63 267.28ZM125.49 253.20L124.19 247.37L118.82 245.66L114.74 249.79L116.04 255.62L121.41 257.33ZM27.25 259.99L25.94 254.17L20.57 252.48L16.52 256.61L17.83 262.43L23.19 264.12ZM17.83 262.43L16.52 256.61L11.16 254.93L7.11 259.06L8.42 264.87L13.78 266.56ZM1.75 257.37L0.44 251.55L-4.92 249.87L-8.97 254.00L-7.66 259.81L-2.30 261.50ZM39.41 247.61L38.10 241.79L32.74 240.09L28.68 244.22L29.99 250.05L35.35 251.74ZM29.99 250.05L28.68 244.22L23.31 242.54L19.26 246.67L20.57 252.48L25.94 254.17ZM42.16 237.65L40.85 231.83L35.48 230.14L31.43 234.27L32.74 240.09L38.10 241.79ZM32.74 240.09L31.43 234.27L26.06 232.58L22.00 236.71L23.31 242.54L28.68 244.22ZM46.08 255.12L44.78 249.30L39.41 247.61L35.35 251.74L36.66 257.56L42.03 259.25ZM36.66 257.56L35.35 251.74L29.99 250.05L25.94 254.17L27.25 259.99L32.61 261.68ZM48.84 245.17L47.53 239.35L42.16 237.65L38.10 241.79L39.41 247.61L44.78 249.30ZM13.90 244.98L12.59 239.16L7.22 237.47L3.17 241.61L4.48 247.42L9.85 249.11ZM4.48 247.42L3.17 241.61L-2.19 239.92L-6.24 244.05L-4.92 249.87L0.44 251.55ZM16.64 235.03L15.33 229.21L9.96 227.52L5.91 231.65L7.22 237.47L12.59 239.16ZM7.22 237.47L5.91 231.65L0.54 229.97L-3.51 234.10L-2.19 239.92L3.17 241.61ZM20.57 252.48L19.26 246.67L13.90 244.98L9.85 249.11L11.16 254.93L16.52 256.61ZM11.16 254.93L9.85 249.11L4.48 247.42L0.44 251.55L1.75 257.37L7.11 259.06ZM23.31 242.54L22.00 236.71L16.64 235.03L12.59 239.16L13.90 244.98L19.26 246.67ZM52.76 262.64L51.45 256.82L46.08 255.12L42.03 259.25L43.33 265.07L48.70 266.76ZM109.90 183.18L108.59 177.34L103.21 175.64L99.13 179.77L100.43 185.61L105.82 187.32ZM100.43 185.61L99.13 179.77L93.75 178.07L89.67 182.21L90.97 188.05L96.35 189.75ZM112.68 173.20L111.37 167.36L105.99 165.66L101.91 169.80L103.21 175.64L108.59 177.34ZM103.21 175.64L101.91 169.80L96.52 168.10L92.44 172.24L93.75 178.07L99.13 179.77ZM116.58 190.72L115.28 184.88L109.90 183.18L105.82 187.32L107.12 193.15L112.50 194.86ZM107.12 193.15L105.82 187.32L100.43 185.61L96.35 189.75L97.66 195.59L103.04 197.29ZM119.36 180.75L118.06 174.91L112.68 173.20L108.59 177.34L109.90 183.18L115.28 184.88ZM84.29 180.51L82.98 174.68L77.60 172.98L73.53 177.12L74.83 182.95L80.21 184.65ZM74.83 182.95L73.53 177.12L68.15 175.42L64.07 179.56L65.38 185.40L70.76 187.09ZM87.06 170.54L85.75 164.70L80.37 163.00L76.29 167.14L77.60 172.98L82.98 174.68ZM77.60 172.98L76.29 167.14L70.91 165.45L66.84 169.59L68.15 175.42L73.53 177.12ZM90.97 188.05L89.67 182.21L84.29 180.51L80.21 184.65L81.52 190.49L86.90 192.19ZM81.52 190.49L80.21 184.65L74.83 182.95L70.76 187.09L72.07 192.93L77.45 194.62ZM93.75 178.07L92.44 172.24L87.06 170.54L82.98 174.68L84.29 180.51L89.67 182.21ZM124.93 160.78L123.63 154.94L118.24 153.24L114.16 157.38L115.46 163.22L120.85 164.92ZM115.46 163.22L114.16 157.38L108.77 155.67L104.69 159.81L105.99 165.66L111.37 167.36ZM127.72 150.80L126.42 144.95L121.03 143.25L116.94 147.39L118.24 153.24L123.63 154.94ZM118.24 153.24L116.94 147.39L111.55 145.69L107.47 149.83L108.77 155.67L114.16 157.38ZM131.62 168.34L130.32 162.49L124.93 160.78L120.85 164.92L122.15 170.77L127.53 172.47ZM122.15 170.77L120.85 164.92L115.46 163.22L111.37 167.36L112.68 173.20L118.06 174.91ZM134.41 158.35L133.11 152.50L127.72 150.80L123.63 154.94L124.93 160.78L130.32 162.49ZM99.30 158.11L98.00 152.27L92.61 150.57L88.53 154.71L89.83 160.56L95.22 162.26ZM89.83 160.56L88.53 154.71L83.14 153.02L79.06 157.16L80.37 163.00L85.75 164.70ZM102.08 148.13L100.77 142.28L95.39 140.58L91.30 144.73L92.61 150.57L98.00 152.27ZM92.61 150.57L91.30 144.73L85.92 143.03L81.84 147.18L83.14 153.02L88.53 154.71ZM105.99 165.66L104.69 159.81L99.30 158.11L95.22 162.26L96.52 168.10L101.91 169.80ZM96.52 168.10L95.22 162.26L89.83 160.56L85.75 164.70L87.06 170.54L92.44 172.24ZM108.77 155.67L107.47 149.83L102.08 148.13L98.00 152.27L99.30 158.11L104.69 159.81ZM120.48 208.24L119.18 202.40L113.80 200.69L109.72 204.83L111.02 210.66L116.40 212.37ZM111.02 210.66L109.72 204.83L104.34 203.12L100.26 207.26L101.56 213.09L106.94 214.80ZM123.26 198.27L121.96 192.43L116.58 190.72L112.50 194.86L113.80 200.69L119.18 202.40ZM113.80 200.69L112.50 194.86L107.12 193.15L103.04 197.29L104.34 203.12L109.72 204.83ZM127.16 215.78L125.86 209.94L120.48 208.24L116.40 212.37L117.70 218.20L123.08 219.91ZM117.70 218.20L116.40 212.37L111.02 210.66L106.94 214.80L108.24 220.63L113.62 222.33ZM129.94 205.81L128.65 199.97L123.26 198.27L119.18 202.40L120.48 208.24L125.86 209.94ZM94.88 205.56L93.58 199.72L88.20 198.02L84.13 202.16L85.43 207.99L90.81 209.69ZM85.43 207.99L84.13 202.16L78.75 200.46L74.68 204.59L75.98 210.42L81.36 212.12ZM97.66 195.59L96.35 189.75L90.97 188.05L86.90 192.19L88.20 198.02L93.58 199.72ZM88.20 198.02L86.90 192.19L81.52 190.49L77.45 194.62L78.75 200.46L84.13 202.16ZM101.56 213.09L100.26 207.26L94.88 205.56L90.81 209.69L92.11 215.52L97.49 217.22ZM92.11 215.52L90.81 209.69L85.43 207.99L81.36 212.12L82.66 217.95L88.04 219.65ZM104.34 203.12L103.04 197.29L97.66 195.59L93.58 199.72L94.88 205.56L100.26 207.26ZM135.52 185.87L134.22 180.02L128.83 178.32L124.75 182.45L126.05 188.29L131.43 190.00ZM126.05 188.29L124.75 182.45L119.36 180.75L115.28 184.88L116.58 190.72L121.96 192.43ZM138.31 175.89L137.01 170.04L131.62 168.34L127.53 172.47L128.83 178.32L134.22 180.02ZM128.83 178.32L127.53 172.47L122.15 170.77L118.06 174.91L119.36 180.75L124.75 182.45ZM142.20 193.42L140.90 187.57L135.52 185.87L131.43 190.00L132.73 195.84L138.11 197.55ZM132.73 195.84L131.43 190.00L126.05 188.29L121.96 192.43L123.26 198.27L128.65 199.97ZM144.99 183.44L143.70 177.60L138.31 175.89L134.22 180.02L135.52 185.87L140.90 187.57ZM43.74 200.26L42.43 194.43L37.05 192.74L32.99 196.88L34.30 202.70L39.67 204.39ZM34.30 202.70L32.99 196.88L27.62 195.19L23.56 199.33L24.87 205.15L30.24 206.84ZM46.49 190.29L45.18 184.46L39.81 182.77L35.74 186.91L37.05 192.74L42.43 194.43ZM37.05 192.74L35.74 186.91L30.37 185.22L26.31 189.36L27.62 195.19L32.99 196.88ZM50.42 207.78L49.11 201.95L43.74 200.26L39.67 204.39L40.98 210.22L46.36 211.91ZM40.98 210.22L39.67 204.39L34.30 202.70L30.24 206.84L31.55 212.67L36.92 214.36ZM53.18 197.81L51.87 191.98L46.49 190.29L42.43 194.43L43.74 200.26L49.11 201.95ZM18.19 197.64L16.87 191.81L11.50 190.13L7.44 194.27L8.76 200.09L14.13 201.78ZM8.76 200.09L7.44 194.27L2.07 192.58L-1.98 196.72L-0.67 202.55L4.70 204.23ZM20.93 187.67L19.62 181.84L14.24 180.16L10.19 184.30L11.50 190.13L16.87 191.81ZM11.50 190.13L10.19 184.30L4.81 182.61L0.76 186.76L2.07 192.58L7.44 194.27ZM24.87 205.15L23.56 199.33L18.19 197.64L14.13 201.78L15.44 207.60L20.81 209.29ZM15.44 207.60L14.13 201.78L8.76 200.09L4.70 204.23L6.02 210.05L11.39 211.74ZM27.62 195.19L26.31 189.36L20.93 187.67L16.87 191.81L18.19 197.64L23.56 199.33ZM58.70 177.87L57.39 172.03L52.01 170.34L47.94 174.48L49.25 180.32L54.63 182.01ZM49.25 180.32L47.94 174.48L42.56 172.79L38.49 176.93L39.81 182.77L45.18 184.46ZM61.46 167.89L60.15 162.06L54.77 160.36L50.70 164.51L52.01 170.34L57.39 172.03ZM52.01 170.34L50.70 164.51L45.32 162.82L41.25 166.96L42.56 172.79L47.94 174.48ZM65.38 185.40L64.07 179.56L58.70 177.87L54.63 182.01L55.94 187.84L61.31 189.54ZM55.94 187.84L54.63 182.01L49.25 180.32L45.18 184.46L46.49 190.29L51.87 191.98ZM68.15 175.42L66.84 169.59L61.46 167.89L57.39 172.03L58.70 177.87L64.07 179.56ZM33.12 175.25L31.81 169.41L26.43 167.73L22.37 171.87L23.68 177.70L29.05 179.39ZM23.68 177.70L22.37 171.87L16.99 170.18L12.93 174.33L14.24 180.16L19.62 181.84ZM35.87 165.27L34.56 159.44L29.18 157.75L25.12 161.89L26.43 167.73L31.81 169.41ZM26.43 167.73L25.12 161.89L19.74 160.21L15.68 164.35L16.99 170.18L22.37 171.87ZM39.81 182.77L38.49 176.93L33.12 175.25L29.05 179.39L30.37 185.22L35.74 186.91ZM30.37 185.22L29.05 179.39L23.68 177.70L19.62 181.84L20.93 187.67L26.31 189.36ZM42.56 172.79L41.25 166.96L35.87 165.27L31.81 169.41L33.12 175.25L38.49 176.93ZM54.34 225.26L53.04 219.43L47.66 217.74L43.60 221.87L44.91 227.70L50.28 229.39ZM44.91 227.70L43.60 221.87L38.23 220.18L34.17 224.32L35.48 230.14L40.85 231.83ZM57.10 215.30L55.79 209.47L50.42 207.78L46.36 211.91L47.66 217.74L53.04 219.43ZM47.66 217.74L46.36 211.91L40.98 210.22L36.92 214.36L38.23 220.18L43.60 221.87ZM61.02 232.78L59.72 226.95L54.34 225.26L50.28 229.39L51.59 235.22L56.96 236.91ZM51.59 235.22L50.28 229.39L44.91 227.70L40.85 231.83L42.16 237.65L47.53 239.35ZM63.78 222.82L62.47 216.99L57.10 215.30L53.04 219.43L54.34 225.26L59.72 226.95ZM28.80 222.63L27.49 216.80L22.12 215.11L18.07 219.25L19.38 225.07L24.75 226.76ZM19.38 225.07L18.07 219.25L12.70 217.56L8.65 221.70L9.96 227.52L15.33 229.21ZM31.55 212.67L30.24 206.84L24.87 205.15L20.81 209.29L22.12 215.11L27.49 216.80ZM22.12 215.11L20.81 209.29L15.44 207.60L11.39 211.74L12.70 217.56L18.07 219.25ZM35.48 230.14L34.17 224.32L28.80 222.63L24.75 226.76L26.06 232.58L31.43 234.27ZM26.06 232.58L24.75 226.76L19.38 225.07L15.33 229.21L16.64 235.03L22.00 236.71ZM38.23 220.18L36.92 214.36L31.55 212.67L27.49 216.80L28.80 222.63L34.17 224.32ZM69.30 202.90L68.00 197.06L62.62 195.37L58.55 199.51L59.86 205.34L65.23 207.03ZM59.86 205.34L58.55 199.51L53.18 197.81L49.11 201.95L50.42 207.78L55.79 209.47ZM72.07 192.93L70.76 187.09L65.38 185.40L61.31 189.54L62.62 195.37L68.00 197.06ZM62.62 195.37L61.31 189.54L55.94 187.84L51.87 191.98L53.18 197.81L58.55 199.51ZM75.98 210.42L74.68 204.59L69.30 202.90L65.23 207.03L66.54 212.86L71.92 214.56ZM66.54 212.86L65.23 207.03L59.86 205.34L55.79 209.47L57.10 215.30L62.47 216.99ZM78.75 200.46L77.45 194.62L72.07 192.93L68.00 197.06L69.30 202.90L74.68 204.59ZM156.65 236.01L155.36 230.17L149.98 228.46L145.89 232.58L147.19 238.42L152.56 240.13ZM147.19 238.42L145.89 232.58L140.51 230.87L136.43 235.00L137.73 240.83L143.10 242.54ZM159.44 226.04L158.15 220.20L152.77 218.49L148.68 222.62L149.98 228.46L155.36 230.17ZM149.98 228.46L148.68 222.62L143.30 220.91L139.22 225.03L140.51 230.87L145.89 232.58ZM163.32 243.56L162.03 237.72L156.65 236.01L152.56 240.13L153.86 245.97L159.24 247.68ZM153.86 245.97L152.56 240.13L147.19 238.42L143.10 242.54L144.40 248.38L149.77 250.09ZM166.12 233.60L164.83 227.76L159.44 226.04L155.36 230.17L156.65 236.01L162.03 237.72ZM131.05 233.29L129.75 227.45L124.38 225.75L120.30 229.87L121.60 235.71L126.97 237.41ZM121.60 235.71L120.30 229.87L114.92 228.17L110.84 232.30L112.14 238.13L117.52 239.83ZM133.84 223.33L132.54 217.49L127.16 215.78L123.08 219.91L124.38 225.75L129.75 227.45ZM124.38 225.75L123.08 219.91L117.70 218.20L113.62 222.33L114.92 228.17L120.30 229.87ZM137.73 240.83L136.43 235.00L131.05 233.29L126.97 237.41L128.27 243.25L133.64 244.96ZM128.27 243.25L126.97 237.41L121.60 235.71L117.52 239.83L118.82 245.66L124.19 247.37ZM140.51 230.87L139.22 225.03L133.84 223.33L129.75 227.45L131.05 233.29L136.43 235.00ZM171.72 213.66L170.42 207.82L165.04 206.11L160.95 210.23L162.24 216.08L167.62 217.79ZM162.24 216.08L160.95 210.23L155.56 208.52L151.47 212.65L152.77 218.49L158.15 220.20ZM174.52 203.69L173.22 197.85L167.84 196.13L163.74 200.26L165.04 206.11L170.42 207.82ZM165.04 206.11L163.74 200.26L158.36 198.55L154.27 202.68L155.56 208.52L160.95 210.23ZM178.39 221.22L177.10 215.38L171.72 213.66L167.62 217.79L168.92 223.63L174.30 225.35ZM168.92 223.63L167.62 217.79L162.24 216.08L158.15 220.20L159.44 226.04L164.83 227.76ZM181.20 211.25L179.90 205.41L174.52 203.69L170.42 207.82L171.72 213.66L177.10 215.38ZM146.09 210.94L144.79 205.10L139.41 203.39L135.33 207.52L136.62 213.36L142.00 215.07ZM136.62 213.36L135.33 207.52L129.94 205.81L125.86 209.94L127.16 215.78L132.54 217.49ZM148.88 200.97L147.59 195.13L142.20 193.42L138.11 197.55L139.41 203.39L144.79 205.10ZM139.41 203.39L138.11 197.55L132.73 195.84L128.65 199.97L129.94 205.81L135.33 207.52ZM152.77 218.49L151.47 212.65L146.09 210.94L142.00 215.07L143.30 220.91L148.68 222.62ZM143.30 220.91L142.00 215.07L136.62 213.36L132.54 217.49L133.84 223.33L139.22 225.03ZM155.56 208.52L154.27 202.68L148.88 200.97L144.79 205.10L146.09 210.94L151.47 212.65ZM167.20 261.07L165.91 255.23L160.53 253.52L156.44 257.64L157.74 263.47L163.11 265.18ZM157.74 263.47L156.44 257.64L151.07 255.92L146.99 260.04L148.28 265.88L153.65 267.59ZM169.99 251.11L168.70 245.27L163.32 243.56L159.24 247.68L160.53 253.52L165.91 255.23ZM160.53 253.52L159.24 247.68L153.86 245.97L149.77 250.09L151.07 255.92L156.44 257.64ZM141.61 258.33L140.32 252.50L134.94 250.79L130.86 254.91L132.16 260.74L137.53 262.45ZM132.16 260.74L130.86 254.91L125.49 253.20L121.41 257.33L122.71 263.16L128.08 264.86ZM144.40 248.38L143.10 242.54L137.73 240.83L133.64 244.96L134.94 250.79L140.32 252.50ZM134.94 250.79L133.64 244.96L128.27 243.25L124.19 247.37L125.49 253.20L130.86 254.91ZM151.07 255.92L149.77 250.09L144.40 248.38L140.32 252.50L141.61 258.33L146.99 260.04ZM172.79 241.15L171.50 235.31L166.12 233.60L162.03 237.72L163.32 243.56L168.70 245.27ZM185.07 228.78L183.78 222.94L178.39 221.22L174.30 225.35L175.59 231.19L180.97 232.90ZM175.59 231.19L174.30 225.35L168.92 223.63L164.83 227.76L166.12 233.60L171.50 235.31ZM195.93 96.21L194.64 90.34L189.23 88.63L185.12 92.78L186.42 98.64L191.82 100.35ZM186.42 98.64L185.12 92.78L179.72 91.06L175.61 95.21L176.90 101.07L182.31 102.78ZM198.75 86.20L197.46 80.33L192.05 78.61L187.94 82.76L189.23 88.63L194.64 90.34ZM189.23 88.63L187.94 82.76L182.53 81.05L178.42 85.20L179.72 91.06L185.12 92.78ZM202.63 103.79L201.34 97.92L195.93 96.21L191.82 100.35L193.12 106.21L198.52 107.93ZM193.12 106.21L191.82 100.35L186.42 98.64L182.31 102.78L183.60 108.64L189.01 110.36ZM205.45 93.78L204.16 87.91L198.75 86.20L194.64 90.34L195.93 96.21L201.34 97.92ZM170.20 93.50L168.91 87.64L163.50 85.93L159.40 90.08L160.70 95.94L166.10 97.65ZM160.70 95.94L159.40 90.08L154.00 88.37L149.89 92.52L151.19 98.38L156.59 100.08ZM173.02 83.49L171.72 77.62L166.31 75.91L162.20 80.06L163.50 85.93L168.91 87.64ZM163.50 85.93L162.20 80.06L156.80 78.36L152.70 82.51L154.00 88.37L159.40 90.08ZM176.90 101.07L175.61 95.21L170.20 93.50L166.10 97.65L167.40 103.50L172.80 105.22ZM167.40 103.50L166.10 97.65L160.70 95.94L156.59 100.08L157.89 105.94L163.29 107.65ZM179.72 91.06L178.42 85.20L173.02 83.49L168.91 87.64L170.20 93.50L175.61 95.21ZM211.10 73.75L209.81 67.88L204.40 66.16L200.28 70.31L201.58 76.18L206.99 77.90ZM201.58 76.18L200.28 70.31L194.87 68.60L190.76 72.75L192.05 78.61L197.46 80.33ZM213.93 63.73L212.64 57.86L207.22 56.14L203.11 60.29L204.40 66.16L209.81 67.88ZM204.40 66.16L203.11 60.29L197.69 58.58L193.58 62.73L194.87 68.60L200.28 70.31ZM217.81 81.34L216.51 75.47L211.10 73.75L206.99 77.90L208.28 83.76L213.69 85.48ZM208.28 83.76L206.99 77.90L201.58 76.18L197.46 80.33L198.75 86.20L204.16 87.91ZM220.64 71.32L219.34 65.45L213.93 63.73L209.81 67.88L211.10 73.75L216.51 75.47ZM185.35 71.03L184.05 65.17L178.64 63.45L174.53 67.61L175.83 73.47L181.24 75.19ZM175.83 73.47L174.53 67.61L169.12 65.90L165.01 70.05L166.31 75.91L171.72 77.62ZM188.17 61.01L186.87 55.15L181.46 53.43L177.35 57.59L178.64 63.45L184.05 65.17ZM178.64 63.45L177.35 57.59L171.94 55.88L167.82 60.03L169.12 65.90L174.53 67.61ZM192.05 78.61L190.76 72.75L185.35 71.03L181.24 75.19L182.53 81.05L187.94 82.76ZM182.53 81.05L181.24 75.19L175.83 73.47L171.72 77.62L173.02 83.49L178.42 85.20ZM194.87 68.60L193.58 62.73L188.17 61.01L184.05 65.17L185.35 71.03L190.76 72.75ZM206.51 121.37L205.22 115.51L199.81 113.79L195.70 117.94L196.99 123.80L202.40 125.51ZM196.99 123.80L195.70 117.94L190.30 116.22L186.19 120.36L187.49 126.22L192.89 127.94ZM209.33 111.37L208.04 105.51L202.63 103.79L198.52 107.93L199.81 113.79L205.22 115.51ZM199.81 113.79L198.52 107.93L193.12 106.21L189.01 110.36L190.30 116.22L195.70 117.94ZM203.69 131.37L202.40 125.51L196.99 123.80L192.89 127.94L194.18 133.79L199.58 135.51ZM180.79 118.65L179.50 112.79L174.09 111.08L169.99 115.22L171.29 121.08L176.69 122.79ZM171.29 121.08L169.99 115.22L164.59 113.51L160.49 117.65L161.78 123.51L167.18 125.22ZM183.60 108.64L182.31 102.78L176.90 101.07L172.80 105.22L174.09 111.08L179.50 112.79ZM174.09 111.08L172.80 105.22L167.40 103.50L163.29 107.65L164.59 113.51L169.99 115.22ZM187.49 126.22L186.19 120.36L180.79 118.65L176.69 122.79L177.98 128.65L183.38 130.36ZM177.98 128.65L176.69 122.79L171.29 121.08L167.18 125.22L168.48 131.08L173.88 132.79ZM190.30 116.22L189.01 110.36L183.60 108.64L179.50 112.79L180.79 118.65L186.19 120.36ZM212.15 101.36L210.86 95.50L205.45 93.78L201.34 97.92L202.63 103.79L208.04 105.51ZM214.98 91.35L213.69 85.48L208.28 83.76L204.16 87.91L205.45 93.78L210.86 95.50ZM129.40 113.26L128.10 107.41L122.70 105.71L118.61 109.85L119.91 115.71L125.31 117.41ZM119.91 115.71L118.61 109.85L113.21 108.15L109.12 112.30L110.43 118.15L115.82 119.85ZM132.19 103.26L130.89 97.41L125.49 95.70L121.40 99.85L122.70 105.71L128.10 107.41ZM122.70 105.71L121.40 99.85L116.00 98.15L111.91 102.30L113.21 108.15L118.61 109.85ZM136.10 120.82L134.80 114.97L129.40 113.26L125.31 117.41L126.61 123.26L132.00 124.97ZM126.61 123.26L125.31 117.41L119.91 115.71L115.82 119.85L117.12 125.70L122.52 127.41ZM138.89 110.82L137.59 104.97L132.19 103.26L128.10 107.41L129.40 113.26L134.80 114.97ZM103.73 110.60L102.42 104.75L97.03 103.05L92.94 107.20L94.25 113.05L99.64 114.75ZM94.25 113.05L92.94 107.20L87.55 105.51L83.46 109.66L84.77 115.50L90.16 117.20ZM106.51 100.60L105.21 94.75L99.81 93.05L95.72 97.20L97.03 103.05L102.42 104.75ZM97.03 103.05L95.72 97.20L90.33 95.50L86.24 99.66L87.55 105.51L92.94 107.20ZM110.43 118.15L109.12 112.30L103.73 110.60L99.64 114.75L100.95 120.60L106.34 122.30ZM100.95 120.60L99.64 114.75L94.25 113.05L90.16 117.20L91.47 123.05L96.86 124.75ZM113.21 108.15L111.91 102.30L106.51 100.60L102.42 104.75L103.73 110.60L109.12 112.30ZM144.49 90.81L143.19 84.95L137.79 83.25L133.69 87.40L134.99 93.25L140.39 94.96ZM134.99 93.25L133.69 87.40L128.29 85.69L124.19 89.85L125.49 95.70L130.89 97.41ZM147.29 80.80L145.99 74.94L140.59 73.23L136.49 77.39L137.79 83.25L143.19 84.95ZM137.79 83.25L136.49 77.39L131.08 75.68L126.98 79.84L128.29 85.69L133.69 87.40ZM151.19 98.38L149.89 92.52L144.49 90.81L140.39 94.96L141.69 100.82L147.09 102.52ZM141.69 100.82L140.39 94.96L134.99 93.25L130.89 97.41L132.19 103.26L137.59 104.97ZM154.00 88.37L152.70 82.51L147.29 80.80L143.19 84.95L144.49 90.81L149.89 92.52ZM118.79 88.14L117.49 82.29L112.09 80.59L107.99 84.74L109.30 90.59L114.70 92.30ZM109.30 90.59L107.99 84.74L102.60 83.04L98.50 87.20L99.81 93.05L105.21 94.75ZM121.58 78.13L120.28 72.28L114.88 70.58L110.78 74.73L112.09 80.59L117.49 82.29ZM112.09 80.59L110.78 74.73L105.38 73.03L101.29 77.19L102.60 83.04L107.99 84.74ZM125.49 95.70L124.19 89.85L118.79 88.14L114.70 92.30L116.00 98.15L121.40 99.85ZM116.00 98.15L114.70 92.30L109.30 90.59L105.21 94.75L106.51 100.60L111.91 102.30ZM128.29 85.69L126.98 79.84L121.58 78.13L117.49 82.29L118.79 88.14L124.19 89.85ZM140.00 138.37L138.70 132.52L133.30 130.82L129.21 134.96L130.51 140.81L135.90 142.52ZM130.51 140.81L129.21 134.96L123.82 133.26L119.73 137.40L121.03 143.25L126.42 144.95ZM142.79 128.38L141.49 122.53L136.10 120.82L132.00 124.97L133.30 130.82L138.70 132.52ZM133.30 130.82L132.00 124.97L126.61 123.26L122.52 127.41L123.82 133.26L129.21 134.96ZM146.69 145.93L145.39 140.08L140.00 138.37L135.90 142.52L137.20 148.36L142.60 150.07ZM137.20 148.36L135.90 142.52L130.51 140.81L126.42 144.95L127.72 150.80L133.11 152.50ZM149.49 135.94L148.19 130.09L142.79 128.38L138.70 132.52L140.00 138.37L145.39 140.08ZM114.34 135.70L113.03 129.85L107.64 128.15L103.56 132.29L104.86 138.14L110.25 139.84ZM104.86 138.14L103.56 132.29L98.16 130.59L94.08 134.74L95.39 140.58L100.77 142.28ZM117.12 125.70L115.82 119.85L110.43 118.15L106.34 122.30L107.64 128.15L113.03 129.85ZM107.64 128.15L106.34 122.30L100.95 120.60L96.86 124.75L98.16 130.59L103.56 132.29ZM121.03 143.25L119.73 137.40L114.34 135.70L110.25 139.84L111.55 145.69L116.94 147.39ZM111.55 145.69L110.25 139.84L104.86 138.14L100.77 142.28L102.08 148.13L107.47 149.83ZM123.82 133.26L122.52 127.41L117.12 125.70L113.03 129.85L114.34 135.70L119.73 137.40ZM155.09 115.94L153.79 110.09L148.39 108.38L144.29 112.53L145.59 118.38L150.99 120.09ZM145.59 118.38L144.29 112.53L138.89 110.82L134.80 114.97L136.10 120.82L141.49 122.53ZM157.89 105.94L156.59 100.08L151.19 98.38L147.09 102.52L148.39 108.38L153.79 110.09ZM148.39 108.38L147.09 102.52L141.69 100.82L137.59 104.97L138.89 110.82L144.29 112.53ZM161.78 123.51L160.49 117.65L155.09 115.94L150.99 120.09L152.29 125.94L157.68 127.65ZM152.29 125.94L150.99 120.09L145.59 118.38L141.49 122.53L142.79 128.38L148.19 130.09ZM164.59 113.51L163.29 107.65L157.89 105.94L153.79 110.09L155.09 115.94L160.49 117.65ZM215.71 26.05L214.42 20.18L209.00 18.46L204.88 22.62L206.17 28.49L211.59 30.21ZM206.17 28.49L204.88 22.62L199.46 20.90L195.34 25.06L196.63 30.94L202.05 32.65ZM218.55 16.02L217.25 10.14L211.83 8.42L207.70 12.58L209.00 18.46L214.42 20.18ZM209.00 18.46L207.70 12.58L202.28 10.87L198.16 15.03L199.46 20.90L204.88 22.62ZM222.42 33.65L221.13 27.77L215.71 26.05L211.59 30.21L212.88 36.09L218.30 37.80ZM212.88 36.09L211.59 30.21L206.17 28.49L202.05 32.65L203.34 38.52L208.76 40.24ZM225.26 23.62L223.97 17.74L218.55 16.02L214.42 20.18L215.71 26.05L221.13 27.77ZM189.92 23.35L188.62 17.48L183.20 15.76L179.09 19.92L180.38 25.80L185.80 27.51ZM180.38 25.80L179.09 19.92L173.67 18.21L169.55 22.37L170.85 28.25L176.27 29.96ZM192.74 13.31L191.44 7.44L186.03 5.73L181.91 9.89L183.20 15.76L188.62 17.48ZM183.20 15.76L181.91 9.89L176.49 8.18L172.37 12.34L173.67 18.21L179.09 19.92ZM196.63 30.94L195.34 25.06L189.92 23.35L185.80 27.51L187.10 33.38L192.51 35.09ZM187.10 33.38L185.80 27.51L180.38 25.80L176.27 29.96L177.57 35.83L182.98 37.54ZM199.46 20.90L198.16 15.03L192.74 13.31L188.62 17.48L189.92 23.35L195.34 25.06ZM230.93 3.54L229.64 -2.34L224.22 -4.06L220.09 0.10L221.38 5.98L226.80 7.70ZM221.38 5.98L220.09 0.10L214.66 -1.62L210.54 2.54L211.83 8.42L217.25 10.14ZM224.22 -4.06L222.92 -9.95L217.50 -11.66L213.37 -7.50L214.66 -1.62L220.09 0.10ZM237.65 11.14L236.36 5.26L230.93 3.54L226.80 7.70L228.10 13.58L233.52 15.30ZM228.10 13.58L226.80 7.70L221.38 5.98L217.25 10.14L218.55 16.02L223.97 17.74ZM240.49 1.10L239.20 -4.78L233.78 -6.51L229.64 -2.34L230.93 3.54L236.36 5.26ZM205.11 0.83L203.82 -5.05L198.40 -6.77L194.27 -2.60L195.57 3.28L200.99 4.99ZM195.57 3.28L194.27 -2.60L188.85 -4.32L184.73 -0.15L186.03 5.73L191.44 7.44ZM211.83 8.42L210.54 2.54L205.11 0.83L200.99 4.99L202.28 10.87L207.70 12.58ZM202.28 10.87L200.99 4.99L195.57 3.28L191.44 7.44L192.74 13.31L198.16 15.03ZM214.66 -1.62L213.37 -7.50L207.94 -9.22L203.82 -5.05L205.11 0.83L210.54 2.54ZM226.30 51.27L225.01 45.40L219.59 43.68L215.47 47.83L216.76 53.71L222.17 55.43ZM216.76 53.71L215.47 47.83L210.05 46.11L205.93 50.27L207.22 56.14L212.64 57.86ZM229.13 41.24L227.84 35.37L222.42 33.65L218.30 37.80L219.59 43.68L225.01 45.40ZM219.59 43.68L218.30 37.80L212.88 36.09L208.76 40.24L210.05 46.11L215.47 47.83ZM200.52 48.55L199.22 42.68L193.81 40.97L189.69 45.12L190.99 50.99L196.40 52.71ZM190.99 50.99L189.69 45.12L184.28 43.41L180.16 47.57L181.46 53.43L186.87 55.15ZM203.34 38.52L202.05 32.65L196.63 30.94L192.51 35.09L193.81 40.97L199.22 42.68ZM193.81 40.97L192.51 35.09L187.10 33.38L182.98 37.54L184.28 43.41L189.69 45.12ZM207.22 56.14L205.93 50.27L200.52 48.55L196.40 52.71L197.69 58.58L203.11 60.29ZM197.69 58.58L196.40 52.71L190.99 50.99L186.87 55.15L188.17 61.01L193.58 62.73ZM210.05 46.11L208.76 40.24L203.34 38.52L199.22 42.68L200.52 48.55L205.93 50.27ZM231.97 31.21L230.68 25.34L225.26 23.62L221.13 27.77L222.42 33.65L227.84 35.37ZM244.36 18.74L243.07 12.86L237.65 11.14L233.52 15.30L234.81 21.18L240.23 22.90ZM234.81 21.18L233.52 15.30L228.10 13.58L223.97 17.74L225.26 23.62L230.68 25.34ZM149.00 43.18L147.69 37.31L142.28 35.60L138.18 39.76L139.48 45.63L144.89 47.33ZM139.48 45.63L138.18 39.76L132.77 38.06L128.67 42.22L129.97 48.08L135.38 49.79ZM151.80 33.15L150.50 27.28L145.09 25.58L140.98 29.74L142.28 35.60L147.69 37.31ZM142.28 35.60L140.98 29.74L135.57 28.03L131.47 32.20L132.77 38.06L138.18 39.76ZM155.71 50.75L154.41 44.88L149.00 43.18L144.89 47.33L146.19 53.20L151.60 54.91ZM146.19 53.20L144.89 47.33L139.48 45.63L135.38 49.79L136.68 55.65L142.09 57.36ZM158.52 40.72L157.21 34.86L151.80 33.15L147.69 37.31L149.00 43.18L154.41 44.88ZM123.26 40.52L121.95 34.66L116.55 32.96L112.44 37.12L113.75 42.98L119.16 44.68ZM113.75 42.98L112.44 37.12L107.04 35.42L102.94 39.58L104.25 45.44L109.65 47.14ZM126.06 30.49L124.75 24.63L119.34 22.93L115.24 27.09L116.55 32.96L121.95 34.66ZM116.55 32.96L115.24 27.09L109.83 25.39L105.73 29.56L107.04 35.42L112.44 37.12ZM129.97 48.08L128.67 42.22L123.26 40.52L119.16 44.68L120.46 50.54L125.87 52.24ZM120.46 50.54L119.16 44.68L113.75 42.98L109.65 47.14L110.96 53.00L116.36 54.70ZM132.77 38.06L131.47 32.20L126.06 30.49L121.95 34.66L123.26 40.52L128.67 42.22ZM164.14 20.67L162.84 14.79L157.42 13.09L153.31 17.25L154.61 23.12L160.03 24.83ZM154.61 23.12L153.31 17.25L147.90 15.54L143.79 19.71L145.09 25.58L150.50 27.28ZM166.95 10.63L165.65 4.76L160.24 3.05L156.12 7.22L157.42 13.09L162.84 14.79ZM157.42 13.09L156.12 7.22L150.71 5.51L146.59 9.67L147.90 15.54L153.31 17.25ZM170.85 28.25L169.55 22.37L164.14 20.67L160.03 24.83L161.33 30.70L166.74 32.41ZM161.33 30.70L160.03 24.83L154.61 23.12L150.50 27.28L151.80 33.15L157.21 34.86ZM173.67 18.21L172.37 12.34L166.95 10.63L162.84 14.79L164.14 20.67L169.55 22.37ZM138.37 18.00L137.07 12.14L131.66 10.43L127.55 14.60L128.86 20.46L134.27 22.17ZM128.86 20.46L127.55 14.60L122.14 12.90L118.03 17.06L119.34 22.93L124.75 24.63ZM141.18 7.97L139.87 2.10L134.46 0.40L130.35 4.56L131.66 10.43L137.07 12.14ZM131.66 10.43L130.35 4.56L124.94 2.86L120.83 7.03L122.14 12.90L127.55 14.60ZM145.09 25.58L143.79 19.71L138.37 18.00L134.27 22.17L135.57 28.03L140.98 29.74ZM135.57 28.03L134.27 22.17L128.86 20.46L124.75 24.63L126.06 30.49L131.47 32.20ZM147.90 15.54L146.59 9.67L141.18 7.97L137.07 12.14L138.37 18.00L143.79 19.71ZM159.61 68.34L158.31 62.48L152.90 60.77L148.79 64.92L150.10 70.79L155.50 72.49ZM150.10 70.79L148.79 64.92L143.39 63.22L139.29 67.37L140.59 73.23L145.99 74.94ZM162.42 58.32L161.12 52.46L155.71 50.75L151.60 54.91L152.90 60.77L158.31 62.48ZM152.90 60.77L151.60 54.91L146.19 53.20L142.09 57.36L143.39 63.22L148.79 64.92ZM166.31 75.91L165.01 70.05L159.61 68.34L155.50 72.49L156.80 78.36L162.20 80.06ZM156.80 78.36L155.50 72.49L150.10 70.79L145.99 74.94L147.29 80.80L152.70 82.51ZM169.12 65.90L167.82 60.03L162.42 58.32L158.31 62.48L159.61 68.34L165.01 70.05ZM133.88 65.67L132.58 59.81L127.17 58.10L123.07 62.26L124.38 68.12L129.78 69.82ZM124.38 68.12L123.07 62.26L117.67 60.56L113.57 64.72L114.88 70.58L120.28 72.28ZM136.68 55.65L135.38 49.79L129.97 48.08L125.87 52.24L127.17 58.10L132.58 59.81ZM127.17 58.10L125.87 52.24L120.46 50.54L116.36 54.70L117.67 60.56L123.07 62.26ZM140.59 73.23L139.29 67.37L133.88 65.67L129.78 69.82L131.08 75.68L136.49 77.39ZM131.08 75.68L129.78 69.82L124.38 68.12L120.28 72.28L121.58 78.13L126.98 79.84ZM143.39 63.22L142.09 57.36L136.68 55.65L132.58 59.81L133.88 65.67L139.29 67.37ZM174.75 45.85L173.45 39.98L168.04 38.27L163.93 42.43L165.23 48.30L170.64 50.01ZM165.23 48.30L163.93 42.43L158.52 40.72L154.41 44.88L155.71 50.75L161.12 52.46ZM177.57 35.83L176.27 29.96L170.85 28.25L166.74 32.41L168.04 38.27L173.45 39.98ZM168.04 38.27L166.74 32.41L161.33 30.70L157.21 34.86L158.52 40.72L163.93 42.43ZM181.46 53.43L180.16 47.57L174.75 45.85L170.64 50.01L171.94 55.88L177.35 57.59ZM171.94 55.88L170.64 50.01L165.23 48.30L161.12 52.46L162.42 58.32L167.82 60.03ZM184.28 43.41L182.98 37.54L177.57 35.83L173.45 39.98L174.75 45.85L180.16 47.57ZM210.38 138.95L209.09 133.09L203.69 131.37L199.58 135.51L200.87 141.37L206.27 143.09ZM176.25 166.19L174.95 160.34L169.56 158.63L165.46 162.76L166.76 168.61L172.15 170.33ZM166.76 168.61L165.46 162.76L160.07 161.05L155.97 165.19L157.27 171.04L162.66 172.75ZM179.05 156.20L177.76 150.35L172.36 148.64L168.26 152.78L169.56 158.63L174.95 160.34ZM169.56 158.63L168.26 152.78L162.87 151.06L158.77 155.20L160.07 161.05L165.46 162.76ZM182.93 173.76L181.64 167.91L176.25 166.19L172.15 170.33L173.44 176.17L178.83 177.89ZM173.44 176.17L172.15 170.33L166.76 168.61L162.66 172.75L163.95 178.59L169.34 180.31ZM185.74 163.77L184.45 157.92L179.05 156.20L174.95 160.34L176.25 166.19L181.64 167.91ZM150.58 163.48L149.29 157.63L143.89 155.92L139.80 160.06L141.10 165.91L146.49 167.61ZM141.10 165.91L139.80 160.06L134.41 158.35L130.32 162.49L131.62 168.34L137.01 170.04ZM153.38 153.49L152.08 147.64L146.69 145.93L142.60 150.07L143.89 155.92L149.29 157.63ZM143.89 155.92L142.60 150.07L137.20 148.36L133.11 152.50L134.41 158.35L139.80 160.06ZM157.27 171.04L155.97 165.19L150.58 163.48L146.49 167.61L147.79 173.46L153.18 175.17ZM147.79 173.46L146.49 167.61L141.10 165.91L137.01 170.04L138.31 175.89L143.70 177.60ZM160.07 161.05L158.77 155.20L153.38 153.49L149.29 157.63L150.58 163.48L155.97 165.19ZM191.36 143.79L190.07 137.93L184.67 136.22L180.57 140.36L181.86 146.21L187.26 147.93ZM181.86 146.21L180.57 140.36L175.17 138.64L171.07 142.78L172.36 148.64L177.76 150.35ZM194.18 133.79L192.89 127.94L187.49 126.22L183.38 130.36L184.67 136.22L190.07 137.93ZM184.67 136.22L183.38 130.36L177.98 128.65L173.88 132.79L175.17 138.64L180.57 140.36ZM198.05 151.36L196.76 145.51L191.36 143.79L187.26 147.93L188.55 153.78L193.95 155.50ZM188.55 153.78L187.26 147.93L181.86 146.21L177.76 150.35L179.05 156.20L184.45 157.92ZM200.87 141.37L199.58 135.51L194.18 133.79L190.07 137.93L191.36 143.79L196.76 145.51ZM165.67 141.07L164.38 135.22L158.98 133.51L154.88 137.65L156.18 143.50L161.57 145.21ZM156.18 143.50L154.88 137.65L149.49 135.94L145.39 140.08L146.69 145.93L152.08 147.64ZM168.48 131.08L167.18 125.22L161.78 123.51L157.68 127.65L158.98 133.51L164.38 135.22ZM158.98 133.51L157.68 127.65L152.29 125.94L148.19 130.09L149.49 135.94L154.88 137.65ZM172.36 148.64L171.07 142.78L165.67 141.07L161.57 145.21L162.87 151.06L168.26 152.78ZM162.87 151.06L161.57 145.21L156.18 143.50L152.08 147.64L153.38 153.49L158.77 155.20ZM175.17 138.64L173.88 132.79L168.48 131.08L164.38 135.22L165.67 141.07L171.07 142.78ZM186.81 191.30L185.52 185.45L180.13 183.74L176.03 187.87L177.32 193.72L182.71 195.43ZM177.32 193.72L176.03 187.87L170.64 186.16L166.54 190.29L167.84 196.13L173.22 197.85ZM189.62 181.32L188.32 175.47L182.93 173.76L178.83 177.89L180.13 183.74L185.52 185.45ZM180.13 183.74L178.83 177.89L173.44 176.17L169.34 180.31L170.64 186.16L176.03 187.87ZM184.00 201.28L182.71 195.43L177.32 193.72L173.22 197.85L174.52 203.69L179.90 205.41ZM196.30 188.89L195.01 183.04L189.62 181.32L185.52 185.45L186.81 191.30L192.20 193.02ZM161.16 188.57L159.86 182.73L154.47 181.02L150.38 185.15L151.68 190.99L157.06 192.71ZM151.68 190.99L150.38 185.15L144.99 183.44L140.90 187.57L142.20 193.42L147.59 195.13ZM163.95 178.59L162.66 172.75L157.27 171.04L153.18 175.17L154.47 181.02L159.86 182.73ZM154.47 181.02L153.18 175.17L147.79 173.46L143.70 177.60L144.99 183.44L150.38 185.15ZM167.84 196.13L166.54 190.29L161.16 188.57L157.06 192.71L158.36 198.55L163.74 200.26ZM158.36 198.55L157.06 192.71L151.68 190.99L147.59 195.13L148.88 200.97L154.27 202.68ZM170.64 186.16L169.34 180.31L163.95 178.59L159.86 182.73L161.16 188.57L166.54 190.29ZM192.43 171.34L191.14 165.49L185.74 163.77L181.64 167.91L182.93 173.76L188.32 175.47ZM195.24 161.35L193.95 155.50L188.55 153.78L184.45 157.92L185.74 163.77L191.14 165.49ZM2.07 192.58L0.76 186.76L-4.61 185.07L-8.67 189.22L-7.35 195.04L-1.98 196.72ZM3.28 220.01L1.97 214.19L-3.40 212.51L-7.45 216.65L-6.14 222.47L-0.77 224.15ZM6.02 210.05L4.70 204.23L-0.67 202.55L-4.72 206.69L-3.40 212.51L1.97 214.19ZM9.96 227.52L8.65 221.70L3.28 220.01L-0.77 224.15L0.54 229.97L5.91 231.65ZM0.54 229.97L-0.77 224.15L-6.14 222.47L-10.18 226.60L-8.87 232.42L-3.51 234.10ZM12.70 217.56L11.39 211.74L6.02 210.05L1.97 214.19L3.28 220.01L8.65 221.70Z"/></svg>
