<svg xmlns="http://www.w3.org/2000/svg" width="256" height="256" viewBox="0 0 256 256"><path data-band="1" fill="#fde68a" fill-opacity="0.35" d="M164.92 -1.69L163.65 -7.45L158.35 -9.17L154.33 -5.14L155.60 0.61L160.90 2.34ZM179.11 40.33L177.84 34.58L172.55 32.85L168.53 36.87L169.80 42.62L175.09 44.35ZM169.80 42.62L168.53 36.87L163.24 35.14L159.22 39.16L160.49 44.91L165.78 46.64ZM181.87 30.55L180.60 24.80L175.30 23.07L171.28 27.09L172.55 32.85L177.84 34.58ZM172.55 32.85L171.28 27.09L165.99 25.36L161.96 29.39L163.24 35.14L168.53 36.87ZM185.67 47.82L184.41 42.06L179.11 40.33L175.09 44.35L176.36 50.10L181.65 51.83ZM176.36 50.10L175.09 44.35L169.80 42.62L165.78 46.64L167.05 52.39L172.34 54.12ZM188.43 38.04L187.16 32.29L181.87 30.55L177.84 34.58L179.11 40.33L184.41 42.06ZM153.92 37.43L152.65 31.68L147.36 29.96L143.34 33.98L144.62 39.73L149.91 41.46ZM160.49 44.91L159.22 39.16L153.92 37.43L149.91 41.46L151.18 47.20L156.47 48.93ZM151.18 47.20L149.91 41.46L144.62 39.73L140.60 43.75L141.88 49.50L147.16 51.23ZM163.24 35.14L161.96 29.39L156.67 27.66L152.65 31.68L153.92 37.43L159.22 39.16ZM193.95 18.48L192.69 12.73L187.39 10.99L183.36 15.02L184.63 20.77L189.92 22.51ZM184.63 20.77L183.36 15.02L178.06 13.29L174.03 17.31L175.30 23.07L180.60 24.80ZM196.72 8.70L195.45 2.94L190.15 1.21L186.12 5.23L187.39 10.99L192.69 12.73ZM187.39 10.99L186.12 5.23L180.82 3.50L176.79 7.53L178.06 13.29L183.36 15.02ZM200.52 25.98L199.25 20.22L193.95 18.48L189.92 22.51L191.19 28.26L196.49 30.00ZM191.19 28.26L189.92 22.51L184.63 20.77L180.60 24.80L181.87 30.55L187.16 32.29ZM203.28 16.20L202.02 10.44L196.72 8.70L192.69 12.73L193.95 18.48L199.25 20.22ZM168.74 15.58L167.47 9.83L162.17 8.10L158.15 12.12L159.42 17.88L164.71 19.61ZM171.49 5.80L170.22 0.04L164.92 -1.69L160.90 2.34L162.17 8.10L167.47 9.83ZM162.17 8.10L160.90 2.34L155.60 0.61L151.58 4.64L152.85 10.40L158.15 12.12ZM175.30 23.07L174.03 17.31L168.74 15.58L164.71 19.61L165.99 25.36L171.28 27.09ZM165.99 25.36L164.71 19.61L159.42 17.88L155.40 21.90L156.67 27.66L161.96 29.39ZM178.06 13.29L176.79 7.53L171.49 5.80L167.47 9.83L168.74 15.58L174.03 17.31ZM189.48 65.07L188.21 59.32L182.92 57.59L178.90 61.60L180.17 67.35L185.45 69.09ZM180.17 67.35L178.90 61.60L173.61 59.87L169.59 63.89L170.86 69.64L176.14 71.37ZM192.23 55.30L190.97 49.55L185.67 47.82L181.65 51.83L182.92 57.59L188.21 59.32ZM182.92 57.59L181.65 51.83L176.36 50.10L172.34 54.12L173.61 59.87L178.90 61.60ZM196.03 72.56L194.77 66.81L189.48 65.07L185.45 69.09L186.72 74.84L192.01 76.57ZM186.72 74.84L185.45 69.09L180.17 67.35L176.14 71.37L177.41 77.12L182.70 78.85ZM198.79 62.79L197.53 57.04L192.23 55.30L188.21 59.32L189.48 65.07L194.77 66.81ZM164.30 62.16L163.03 56.41L157.74 54.68L153.72 58.70L154.99 64.45L160.28 66.18ZM154.99 64.45L153.72 58.70L148.44 56.97L144.42 60.99L145.69 66.74L150.98 68.47ZM167.05 52.39L165.78 46.64L160.49 44.91L156.47 48.93L157.74 54.68L163.03 56.41ZM157.74 54.68L156.47 48.93L151.18 47.20L147.16 51.23L148.44 56.97L153.72 58.70ZM170.86 69.64L169.59 63.89L164.30 62.16L160.28 66.18L161.55 71.92L166.84 73.65ZM161.55 71.92L160.28 66.18L154.99 64.45L150.98 68.47L152.25 74.21L157.54 75.94ZM173.61 59.87L172.34 54.12L167.05 52.39L163.03 56.41L164.30 62.16L169.59 63.89ZM204.32 43.25L203.05 37.49L197.76 35.76L193.73 39.78L194.99 45.53L200.29 47.27ZM194.99 45.53L193.73 39.78L188.43 38.04L184.41 42.06L185.67 47.82L190.97 49.55ZM207.08 33.47L205.82 27.71L200.52 25.98L196.49 30.00L197.76 35.76L203.05 37.49ZM197.76 35.76L196.49 30.00L191.19 28.26L187.16 32.29L188.43 38.04L193.73 39.78ZM210.88 50.74L209.61 44.98L204.32 43.25L200.29 47.27L201.55 53.02L206.85 54.76ZM201.55 53.02L200.29 47.27L194.99 45.53L190.97 49.55L192.23 55.30L197.53 57.04ZM213.64 40.97L212.38 35.21L207.08 33.47L203.05 37.49L204.32 43.25L209.61 44.98ZM208.82 -3.38L207.55 -9.14L202.25 -10.88L198.21 -6.85L199.48 -1.09L204.78 0.65ZM199.48 -1.09L198.21 -6.85L192.91 -8.58L188.88 -4.55L190.15 1.21L195.45 2.94ZM215.39 4.12L214.12 -1.64L208.82 -3.38L204.78 0.65L206.05 6.41L211.35 8.15ZM206.05 6.41L204.78 0.65L199.48 -1.09L195.45 2.94L196.72 8.70L202.02 10.44ZM174.25 -3.99L172.98 -9.75L167.68 -11.48L163.65 -7.45L164.92 -1.69L170.22 0.04ZM190.15 1.21L188.88 -4.55L183.58 -6.29L179.55 -2.26L180.82 3.50L186.12 5.23ZM180.82 3.50L179.55 -2.26L174.25 -3.99L170.22 0.04L171.49 5.80L176.79 7.53ZM205.68 160.98L204.42 155.25L199.14 153.51L195.13 157.51L196.39 163.24L201.67 164.98ZM196.39 163.24L195.13 157.51L189.85 155.77L185.84 159.77L187.10 165.50L192.38 167.24ZM208.44 151.25L207.18 145.51L201.90 143.77L197.88 147.77L199.14 153.51L204.42 155.25ZM199.14 153.51L197.88 147.77L192.60 146.03L188.59 150.03L189.85 155.77L195.13 157.51ZM212.22 168.46L210.96 162.72L205.68 160.98L201.67 164.98L202.93 170.72L208.20 172.46ZM202.93 170.72L201.67 164.98L196.39 163.24L192.38 167.24L193.64 172.98L198.91 174.71ZM214.98 158.73L213.72 152.99L208.44 151.25L204.42 155.25L205.68 160.98L210.96 162.72ZM180.56 158.03L179.30 152.30L174.02 150.56L170.01 154.56L171.28 160.30L176.55 162.03ZM171.28 160.30L170.01 154.56L164.74 152.83L160.73 156.83L162.00 162.57L167.27 164.30ZM183.31 148.30L182.05 142.56L176.77 140.82L172.76 144.83L174.02 150.56L179.30 152.30ZM174.02 150.56L172.76 144.83L167.48 143.09L163.47 147.10L164.74 152.83L170.01 154.56ZM187.10 165.50L185.84 159.77L180.56 158.03L176.55 162.03L177.82 167.77L183.09 169.50ZM177.82 167.77L176.55 162.03L171.28 160.30L167.27 164.30L168.54 170.03L173.81 171.77ZM189.85 155.77L188.59 150.03L183.31 148.30L179.30 152.30L180.56 158.03L185.84 159.77ZM220.50 139.25L219.24 133.50L213.95 131.76L209.93 135.76L211.19 141.51L216.48 143.25ZM211.19 141.51L209.93 135.76L204.65 134.02L200.63 138.03L201.90 143.77L207.18 145.51ZM223.26 129.50L222.00 123.76L216.71 122.01L212.69 126.02L213.95 131.76L219.24 133.50ZM213.95 131.76L212.69 126.02L207.41 124.28L203.39 128.28L204.65 134.02L209.93 135.76ZM227.04 146.73L225.78 140.99L220.50 139.25L216.48 143.25L217.74 148.99L223.02 150.73ZM217.74 148.99L216.48 143.25L211.19 141.51L207.18 145.51L208.44 151.25L213.72 152.99ZM229.80 136.99L228.54 131.24L223.26 129.50L219.24 133.50L220.50 139.25L225.78 140.99ZM195.35 136.29L194.09 130.55L188.81 128.81L184.79 132.82L186.06 138.56L191.34 140.29ZM186.06 138.56L184.79 132.82L179.51 131.08L175.50 135.09L176.77 140.82L182.05 142.56ZM198.11 126.54L196.84 120.80L191.56 119.07L187.54 123.07L188.81 128.81L194.09 130.55ZM188.81 128.81L187.54 123.07L182.26 121.34L178.25 125.34L179.51 131.08L184.79 132.82ZM201.90 143.77L200.63 138.03L195.35 136.29L191.34 140.29L192.60 146.03L197.88 147.77ZM192.60 146.03L191.34 140.29L186.06 138.56L182.05 142.56L183.31 148.30L188.59 150.03ZM204.65 134.02L203.39 128.28L198.11 126.54L194.09 130.55L195.35 136.29L200.63 138.03ZM216.00 185.67L214.74 179.94L209.46 178.19L205.45 182.19L206.71 187.92L211.98 189.66ZM206.71 187.92L205.45 182.19L200.17 180.45L196.16 184.44L197.42 190.18L202.70 191.92ZM218.75 175.94L217.50 170.20L212.22 168.46L208.20 172.46L209.46 178.19L214.74 179.94ZM209.46 178.19L208.20 172.46L202.93 170.72L198.91 174.71L200.17 180.45L205.45 182.19ZM222.53 193.15L221.27 187.41L216.00 185.67L211.98 189.66L213.24 195.40L218.51 197.14ZM213.24 195.40L211.98 189.66L206.71 187.92L202.70 191.92L203.96 197.65L209.23 199.39ZM225.29 183.42L224.03 177.68L218.75 175.94L214.74 179.94L216.00 185.67L221.27 187.41ZM190.89 182.71L189.63 176.97L184.35 175.24L180.35 179.23L181.61 184.96L186.88 186.70ZM181.61 184.96L180.35 179.23L175.07 177.50L171.07 181.49L172.33 187.22L177.60 188.96ZM193.64 172.98L192.38 167.24L187.10 165.50L183.09 169.50L184.35 175.24L189.63 176.97ZM184.35 175.24L183.09 169.50L177.82 167.77L173.81 171.77L175.07 177.50L180.35 179.23ZM197.42 190.18L196.16 184.44L190.89 182.71L186.88 186.70L188.14 192.43L193.41 194.17ZM188.14 192.43L186.88 186.70L181.61 184.96L177.60 188.96L178.87 194.69L184.14 196.43ZM200.17 180.45L198.91 174.71L193.64 172.98L189.63 176.97L190.89 182.71L196.16 184.44ZM230.81 163.96L229.56 158.21L224.28 156.47L220.25 160.47L221.51 166.21L226.79 167.95ZM221.51 166.21L220.25 160.47L214.98 158.73L210.96 162.72L212.22 168.46L217.50 170.20ZM233.58 154.22L232.32 148.47L227.04 146.73L223.02 150.73L224.28 156.47L229.56 158.21ZM224.28 156.47L223.02 150.73L217.74 148.99L213.72 152.99L214.98 158.73L220.25 160.47ZM237.35 171.44L236.09 165.70L230.81 163.96L226.79 167.95L228.05 173.69L233.33 175.43ZM228.05 173.69L226.79 167.95L221.51 166.21L217.50 170.20L218.75 175.94L224.03 177.68ZM240.12 161.70L238.86 155.96L233.58 154.22L229.56 158.21L230.81 163.96L236.09 165.70ZM140.72 176.83L139.45 171.11L134.18 169.38L130.18 173.38L131.45 179.10L136.72 180.83ZM131.45 179.10L130.18 173.38L124.92 171.65L120.92 175.65L122.19 181.38L127.46 183.10ZM143.45 167.11L142.18 161.38L136.91 159.65L132.91 163.65L134.18 169.38L139.45 171.11ZM134.18 169.38L132.91 163.65L127.64 161.92L123.64 165.93L124.92 171.65L130.18 173.38ZM147.26 184.29L145.99 178.56L140.72 176.83L136.72 180.83L137.99 186.56L143.26 188.29ZM137.99 186.56L136.72 180.83L131.45 179.10L127.46 183.10L128.73 188.83L133.99 190.56ZM149.99 174.56L148.72 168.84L143.45 167.11L139.45 171.11L140.72 176.83L145.99 178.56ZM115.65 173.93L114.38 168.20L109.12 166.48L105.12 170.48L106.40 176.20L111.66 177.93ZM122.19 181.38L120.92 175.65L115.65 173.93L111.66 177.93L112.93 183.65L118.20 185.38ZM124.92 171.65L123.64 165.93L118.38 164.20L114.38 168.20L115.65 173.93L120.92 175.65ZM155.46 155.10L154.19 149.37L148.92 147.64L144.91 151.64L146.18 157.37L151.45 159.10ZM146.18 157.37L144.91 151.64L139.64 149.91L135.64 153.92L136.91 159.65L142.18 161.38ZM158.20 145.37L156.93 139.63L151.65 137.90L147.65 141.91L148.92 147.64L154.19 149.37ZM148.92 147.64L147.65 141.91L142.37 140.18L138.37 144.18L139.64 149.91L144.91 151.64ZM162.00 162.57L160.73 156.83L155.46 155.10L151.45 159.10L152.72 164.84L157.99 166.57ZM152.72 164.84L151.45 159.10L146.18 157.37L142.18 161.38L143.45 167.11L148.72 168.84ZM164.74 152.83L163.47 147.10L158.20 145.37L154.19 149.37L155.46 155.10L160.73 156.83ZM130.37 152.19L129.10 146.46L123.83 144.73L119.83 148.74L121.10 154.47L126.37 156.19ZM133.10 142.46L131.83 136.72L126.55 135.00L122.55 139.00L123.83 144.73L129.10 146.46ZM136.91 159.65L135.64 153.92L130.37 152.19L126.37 156.19L127.64 161.92L132.91 163.65ZM127.64 161.92L126.37 156.19L121.10 154.47L117.10 158.47L118.38 164.20L123.64 165.93ZM139.64 149.91L138.37 144.18L133.10 142.46L129.10 146.46L130.37 152.19L135.64 153.92ZM151.06 201.47L149.79 195.74L144.52 194.01L140.53 198.01L141.80 203.73L147.06 205.46ZM141.80 203.73L140.53 198.01L135.26 196.28L131.27 200.28L132.54 206.00L137.80 207.73ZM153.79 191.75L152.52 186.02L147.26 184.29L143.26 188.29L144.52 194.01L149.79 195.74ZM144.52 194.01L143.26 188.29L137.99 186.56L133.99 190.56L135.26 196.28L140.53 198.01ZM157.59 208.93L156.32 203.20L151.06 201.47L147.06 205.46L148.33 211.19L153.59 212.92ZM148.33 211.19L147.06 205.46L141.80 203.73L137.80 207.73L139.07 213.45L144.33 215.18ZM160.32 199.21L159.06 193.48L153.79 191.75L149.79 195.74L151.06 201.47L156.32 203.20ZM126.00 198.55L124.73 192.83L119.47 191.10L115.48 195.10L116.75 200.82L122.01 202.54ZM116.75 200.82L115.48 195.10L110.22 193.37L106.23 197.37L107.50 203.09L112.76 204.81ZM128.73 188.83L127.46 183.10L122.19 181.38L118.20 185.38L119.47 191.10L124.73 192.83ZM119.47 191.10L118.20 185.38L112.93 183.65L108.94 187.65L110.22 193.37L115.48 195.10ZM132.54 206.00L131.27 200.28L126.00 198.55L122.01 202.54L123.28 208.26L128.54 209.99ZM123.28 208.26L122.01 202.54L116.75 200.82L112.76 204.81L114.03 210.53L119.29 212.26ZM135.26 196.28L133.99 190.56L128.73 188.83L124.73 192.83L126.00 198.55L131.27 200.28ZM165.80 179.76L164.53 174.03L159.26 172.30L155.26 176.30L156.52 182.02L161.79 183.76ZM156.52 182.02L155.26 176.30L149.99 174.56L145.99 178.56L147.26 184.29L152.52 186.02ZM168.54 170.03L167.27 164.30L162.00 162.57L157.99 166.57L159.26 172.30L164.53 174.03ZM159.26 172.30L157.99 166.57L152.72 164.84L148.72 168.84L149.99 174.56L155.26 176.30ZM172.33 187.22L171.07 181.49L165.80 179.76L161.79 183.76L163.06 189.49L168.33 191.22ZM163.06 189.49L161.79 183.76L156.52 182.02L152.52 186.02L153.79 191.75L159.06 193.48ZM175.07 177.50L173.81 171.77L168.54 170.03L164.53 174.03L165.80 179.76L171.07 181.49ZM225.01 92.75L223.75 87.00L218.46 85.26L214.43 89.27L215.69 95.02L220.98 96.76ZM215.69 95.02L214.43 89.27L209.14 87.53L205.12 91.54L206.38 97.29L211.67 99.03ZM227.78 82.99L226.52 77.24L221.22 75.50L217.20 79.51L218.46 85.26L223.75 87.00ZM218.46 85.26L217.20 79.51L211.90 77.77L207.88 81.78L209.14 87.53L214.43 89.27ZM231.56 100.24L230.30 94.49L225.01 92.75L220.98 96.76L222.24 102.51L227.53 104.25ZM222.24 102.51L220.98 96.76L215.69 95.02L211.67 99.03L212.93 104.78L218.22 106.52ZM234.33 90.48L233.07 84.73L227.78 82.99L223.75 87.00L225.01 92.75L230.30 94.49ZM199.83 89.80L198.56 84.06L193.28 82.32L189.25 86.33L190.52 92.08L195.81 93.81ZM190.52 92.08L189.25 86.33L183.97 84.60L179.95 88.61L181.21 94.36L186.50 96.09ZM202.59 80.04L201.32 74.29L196.03 72.56L192.01 76.57L193.28 82.32L198.56 84.06ZM193.28 82.32L192.01 76.57L186.72 74.84L182.70 78.85L183.97 84.60L189.25 86.33ZM206.38 97.29L205.12 91.54L199.83 89.80L195.81 93.81L197.07 99.56L202.36 101.30ZM197.07 99.56L195.81 93.81L190.52 92.08L186.50 96.09L187.77 101.83L193.05 103.57ZM209.14 87.53L207.88 81.78L202.59 80.04L198.56 84.06L199.83 89.80L205.12 91.54ZM239.88 70.95L238.61 65.20L233.32 63.46L229.29 67.47L230.55 73.22L235.84 74.97ZM230.55 73.22L229.29 67.47L223.99 65.73L219.96 69.74L221.22 75.50L226.52 77.24ZM242.65 61.19L241.39 55.43L236.09 53.68L232.06 57.70L233.32 63.46L238.61 65.20ZM233.32 63.46L232.06 57.70L226.76 55.96L222.73 59.97L223.99 65.73L229.29 67.47ZM246.43 78.45L245.17 72.70L239.88 70.95L235.84 74.97L237.10 80.72L242.39 82.46ZM237.10 80.72L235.84 74.97L230.55 73.22L226.52 77.24L227.78 82.99L233.07 84.73ZM249.21 68.69L247.95 62.93L242.65 61.19L238.61 65.20L239.88 70.95L245.17 72.70ZM214.67 68.00L213.41 62.25L208.11 60.51L204.08 64.53L205.35 70.28L210.64 72.02ZM205.35 70.28L204.08 64.53L198.79 62.79L194.77 66.81L196.03 72.56L201.32 74.29ZM217.44 58.23L216.17 52.48L210.88 50.74L206.85 54.76L208.11 60.51L213.41 62.25ZM208.11 60.51L206.85 54.76L201.55 53.02L197.53 57.04L198.79 62.79L204.08 64.53ZM221.22 75.50L219.96 69.74L214.67 68.00L210.64 72.02L211.90 77.77L217.20 79.51ZM211.90 77.77L210.64 72.02L205.35 70.28L201.32 74.29L202.59 80.04L207.88 81.78ZM223.99 65.73L222.73 59.97L217.44 58.23L213.41 62.25L214.67 68.00L219.96 69.74ZM235.34 117.49L234.08 111.74L228.79 110.00L224.76 114.00L226.02 119.75L231.31 121.49ZM226.02 119.75L224.76 114.00L219.48 112.26L215.45 116.27L216.71 122.01L222.00 123.76ZM238.11 107.74L236.85 101.99L231.56 100.24L227.53 104.25L228.79 110.00L234.08 111.74ZM228.79 110.00L227.53 104.25L222.24 102.51L218.22 106.52L219.48 112.26L224.76 114.00ZM241.88 124.98L240.62 119.23L235.34 117.49L231.31 121.49L232.57 127.24L237.85 128.98ZM232.57 127.24L231.31 121.49L226.02 119.75L222.00 123.76L223.26 129.50L228.54 131.24ZM244.65 115.23L243.40 109.48L238.11 107.74L234.08 111.74L235.34 117.49L240.62 119.23ZM210.17 114.53L208.91 108.78L203.62 107.04L199.60 111.05L200.86 116.80L206.15 118.53ZM200.86 116.80L199.60 111.05L194.32 109.31L190.30 113.32L191.56 119.07L196.84 120.80ZM212.93 104.78L211.67 99.03L206.38 97.29L202.36 101.30L203.62 107.04L208.91 108.78ZM203.62 107.04L202.36 101.30L197.07 99.56L193.05 103.57L194.32 109.31L199.60 111.05ZM216.71 122.01L215.45 116.27L210.17 114.53L206.15 118.53L207.41 124.28L212.69 126.02ZM207.41 124.28L206.15 118.53L200.86 116.80L196.84 120.80L198.11 126.54L203.39 128.28ZM219.48 112.26L218.22 106.52L212.93 104.78L208.91 108.78L210.17 114.53L215.45 116.27ZM250.20 95.72L248.95 89.96L243.65 88.22L239.62 92.23L240.88 97.98L246.17 99.72ZM240.88 97.98L239.62 92.23L234.33 90.48L230.30 94.49L231.56 100.24L236.85 101.99ZM252.98 85.96L251.72 80.20L246.43 78.45L242.39 82.46L243.65 88.22L248.95 89.96ZM243.65 88.22L242.39 82.46L237.10 80.72L233.07 84.73L234.33 90.48L239.62 92.23ZM256.75 103.22L255.50 97.46L250.20 95.72L246.17 99.72L247.43 105.48L252.72 107.22ZM247.43 105.48L246.17 99.72L240.88 97.98L236.85 101.99L238.11 107.74L243.40 109.48ZM259.53 93.46L258.27 87.70L252.98 85.96L248.95 89.96L250.20 95.72L255.50 97.46ZM159.87 108.67L158.60 102.92L153.32 101.20L149.31 105.21L150.58 110.95L155.86 112.68ZM150.58 110.95L149.31 105.21L144.03 103.48L140.02 107.49L141.30 113.23L146.57 114.96ZM162.62 98.91L161.35 93.17L156.06 91.44L152.05 95.45L153.32 101.20L158.60 102.92ZM153.32 101.20L152.05 95.45L146.77 93.73L142.76 97.74L144.03 103.48L149.31 105.21ZM166.42 116.14L165.15 110.40L159.87 108.67L155.86 112.68L157.13 118.41L162.41 120.14ZM157.13 118.41L155.86 112.68L150.58 110.95L146.57 114.96L147.84 120.69L153.12 122.42ZM169.17 106.39L167.90 100.64L162.62 98.91L158.60 102.92L159.87 108.67L165.15 110.40ZM141.30 113.23L140.02 107.49L134.75 105.76L130.74 109.78L132.01 115.51L137.29 117.24ZM144.03 103.48L142.76 97.74L137.48 96.01L133.47 100.03L134.75 105.76L140.02 107.49ZM174.66 86.88L173.39 81.13L168.11 79.40L164.09 83.41L165.36 89.16L170.65 90.89ZM165.36 89.16L164.09 83.41L158.81 81.68L154.79 85.70L156.06 91.44L161.35 93.17ZM177.41 77.12L176.14 71.37L170.86 69.64L166.84 73.65L168.11 79.40L173.39 81.13ZM168.11 79.40L166.84 73.65L161.55 71.92L157.54 75.94L158.81 81.68L164.09 83.41ZM181.21 94.36L179.95 88.61L174.66 86.88L170.65 90.89L171.91 96.63L177.20 98.37ZM171.91 96.63L170.65 90.89L165.36 89.16L161.35 93.17L162.62 98.91L167.90 100.64ZM183.97 84.60L182.70 78.85L177.41 77.12L173.39 81.13L174.66 86.88L179.95 88.61ZM149.51 83.97L148.24 78.23L142.95 76.50L138.94 80.52L140.22 86.26L145.50 87.98ZM140.22 86.26L138.94 80.52L133.66 78.79L129.65 82.81L130.93 88.55L136.21 90.27ZM152.25 74.21L150.98 68.47L145.69 66.74L141.68 70.76L142.95 76.50L148.24 78.23ZM156.06 91.44L154.79 85.70L149.51 83.97L145.50 87.98L146.77 93.73L152.05 95.45ZM146.77 93.73L145.50 87.98L140.22 86.26L136.21 90.27L137.48 96.01L142.76 97.74ZM158.81 81.68L157.54 75.94L152.25 74.21L148.24 78.23L149.51 83.97L154.79 85.70ZM170.22 133.35L168.96 127.62L163.68 125.88L159.67 129.89L160.94 135.63L166.21 137.36ZM160.94 135.63L159.67 129.89L154.39 128.16L150.38 132.17L151.65 137.90L156.93 139.63ZM172.97 123.61L171.70 117.87L166.42 116.14L162.41 120.14L163.68 125.88L168.96 127.62ZM163.68 125.88L162.41 120.14L157.13 118.41L153.12 122.42L154.39 128.16L159.67 129.89ZM176.77 140.82L175.50 135.09L170.22 133.35L166.21 137.36L167.48 143.09L172.76 144.83ZM167.48 143.09L166.21 137.36L160.94 135.63L156.93 139.63L158.20 145.37L163.47 147.10ZM179.51 131.08L178.25 125.34L172.97 123.61L168.96 127.62L170.22 133.35L175.50 135.09ZM145.11 130.44L143.84 124.70L138.56 122.97L134.56 126.98L135.83 132.72L141.10 134.44ZM135.83 132.72L134.56 126.98L129.28 125.26L125.28 129.26L126.55 135.00L131.83 136.72ZM147.84 120.69L146.57 114.96L141.30 113.23L137.29 117.24L138.56 122.97L143.84 124.70ZM138.56 122.97L137.29 117.24L132.01 115.51L128.01 119.52L129.28 125.26L134.56 126.98ZM151.65 137.90L150.38 132.17L145.11 130.44L141.10 134.44L142.37 140.18L147.65 141.91ZM142.37 140.18L141.10 134.44L135.83 132.72L131.83 136.72L133.10 142.46L138.37 144.18ZM154.39 128.16L153.12 122.42L147.84 120.69L143.84 124.70L145.11 130.44L150.38 132.17ZM185.01 111.59L183.75 105.84L178.46 104.11L174.45 108.12L175.72 113.86L181.00 115.59ZM175.72 113.86L174.45 108.12L169.17 106.39L165.15 110.40L166.42 116.14L171.70 117.87ZM187.77 101.83L186.50 96.09L181.21 94.36L177.20 98.37L178.46 104.11L183.75 105.84ZM178.46 104.11L177.20 98.37L171.91 96.63L167.90 100.64L169.17 106.39L174.45 108.12ZM191.56 119.07L190.30 113.32L185.01 111.59L181.00 115.59L182.26 121.34L187.54 123.07ZM182.26 121.34L181.00 115.59L175.72 113.86L171.70 117.87L172.97 123.61L178.25 125.34ZM194.32 109.31L193.05 103.57L187.77 101.83L183.75 105.84L185.01 111.59L190.30 113.32ZM226.30 210.35L225.04 204.62L219.77 202.87L215.76 206.86L217.02 212.59L222.29 214.34ZM217.02 212.59L215.76 206.86L210.49 205.12L206.48 209.11L207.73 214.84L213.00 216.58ZM229.06 200.63L227.80 194.89L222.53 193.15L218.51 197.14L219.77 202.87L225.04 204.62ZM219.77 202.87L218.51 197.14L213.24 195.40L209.23 199.39L210.49 205.12L215.76 206.86ZM232.83 217.83L231.57 212.10L226.30 210.35L222.29 214.34L223.54 220.07L228.81 221.81ZM223.54 220.07L222.29 214.34L217.02 212.59L213.00 216.58L214.26 222.31L219.53 224.06ZM241.12 188.66L239.86 182.92L234.58 181.17L230.56 185.17L231.82 190.90L237.10 192.65ZM231.82 190.90L230.56 185.17L225.29 183.42L221.27 187.41L222.53 193.15L227.80 194.89ZM243.88 178.93L242.63 173.19L237.35 171.44L233.33 175.43L234.58 181.17L239.86 182.92ZM234.58 181.17L233.33 175.43L228.05 173.69L224.03 177.68L225.29 183.42L230.56 185.17ZM238.35 198.38L237.10 192.65L231.82 190.90L227.80 194.89L229.06 200.63L234.33 202.37ZM227.31 237.26L226.06 231.53L220.79 229.78L216.78 233.77L218.03 239.50L223.30 241.24ZM230.07 227.54L228.81 221.81L223.54 220.07L219.53 224.06L220.79 229.78L226.06 231.53ZM186.44 229.05L185.18 223.33L179.91 221.59L175.91 225.58L177.17 231.30L182.44 233.04ZM177.17 231.30L175.91 225.58L170.65 223.84L166.65 227.83L167.91 233.55L173.17 235.29ZM189.18 219.34L187.92 213.61L182.65 211.87L178.65 215.86L179.91 221.59L185.18 223.33ZM179.91 221.59L178.65 215.86L173.38 214.13L169.38 218.12L170.65 223.84L175.91 225.58ZM192.97 236.52L191.71 230.79L186.44 229.05L182.44 233.04L183.70 238.76L188.96 240.50ZM183.70 238.76L182.44 233.04L177.17 231.30L173.17 235.29L174.44 241.01L179.70 242.75ZM195.71 226.80L194.45 221.08L189.18 219.34L185.18 223.33L186.44 229.05L191.71 230.79ZM161.38 226.10L160.12 220.37L154.86 218.64L150.86 222.63L152.13 228.35L157.39 230.09ZM152.13 228.35L150.86 222.63L145.60 220.90L141.60 224.89L142.87 230.61L148.13 232.34ZM164.12 216.38L162.85 210.66L157.59 208.93L153.59 212.92L154.86 218.64L160.12 220.37ZM154.86 218.64L153.59 212.92L148.33 211.19L144.33 215.18L145.60 220.90L150.86 222.63ZM167.91 233.55L166.65 227.83L161.38 226.10L157.39 230.09L158.65 235.81L163.91 237.54ZM158.65 235.81L157.39 230.09L152.13 228.35L148.13 232.34L149.40 238.06L154.66 239.79ZM170.65 223.84L169.38 218.12L164.12 216.38L160.12 220.37L161.38 226.10L166.65 227.83ZM201.21 207.37L199.95 201.64L194.68 199.90L190.67 203.89L191.93 209.62L197.20 211.36ZM191.93 209.62L190.67 203.89L185.40 202.15L181.39 206.15L182.65 211.87L187.92 213.61ZM203.96 197.65L202.70 191.92L197.42 190.18L193.41 194.17L194.68 199.90L199.95 201.64ZM194.68 199.90L193.41 194.17L188.14 192.43L184.14 196.43L185.40 202.15L190.67 203.89ZM207.73 214.84L206.48 209.11L201.21 207.37L197.20 211.36L198.46 217.09L203.73 218.83ZM198.46 217.09L197.20 211.36L191.93 209.62L187.92 213.61L189.18 219.34L194.45 221.08ZM210.49 205.12L209.23 199.39L203.96 197.65L199.95 201.64L201.21 207.37L206.48 209.11ZM176.12 204.41L174.86 198.68L169.59 196.95L165.59 200.94L166.85 206.67L172.12 208.40ZM166.85 206.67L165.59 200.94L160.32 199.21L156.32 203.20L157.59 208.93L162.85 210.66ZM178.87 194.69L177.60 188.96L172.33 187.22L168.33 191.22L169.59 196.95L174.86 198.68ZM169.59 196.95L168.33 191.22L163.06 189.49L159.06 193.48L160.32 199.21L165.59 200.94ZM182.65 211.87L181.39 206.15L176.12 204.41L172.12 208.40L173.38 214.13L178.65 215.86ZM173.38 214.13L172.12 208.40L166.85 206.67L162.85 210.66L164.12 216.38L169.38 218.12ZM185.40 202.15L184.14 196.43L178.87 194.69L174.86 198.68L176.12 204.41L181.39 206.15ZM196.74 253.69L195.48 247.96L190.22 246.22L186.22 250.21L187.48 255.93L192.74 257.67ZM187.48 255.93L186.22 250.21L180.96 248.47L176.96 252.45L178.22 258.17L183.48 259.91ZM199.49 243.98L198.23 238.26L192.97 236.52L188.96 240.50L190.22 246.22L195.48 247.96ZM190.22 246.22L188.96 240.50L183.70 238.76L179.70 242.75L180.96 248.47L186.22 250.21ZM203.26 261.15L202.01 255.43L196.74 253.69L192.74 257.67L194.00 263.39L199.26 265.13ZM194.00 263.39L192.74 257.67L187.48 255.93L183.48 259.91L184.74 265.63L190.00 267.37ZM206.01 251.45L204.75 245.72L199.49 243.98L195.48 247.96L196.74 253.69L202.01 255.43ZM171.70 250.72L170.44 245.00L165.18 243.26L161.18 247.25L162.44 252.97L167.70 254.70ZM162.44 252.97L161.18 247.25L155.92 245.51L151.93 249.50L153.19 255.22L158.45 256.95ZM174.44 241.01L173.17 235.29L167.91 233.55L163.91 237.54L165.18 243.26L170.44 245.00ZM165.18 243.26L163.91 237.54L158.65 235.81L154.66 239.79L155.92 245.51L161.18 247.25ZM178.22 258.17L176.96 252.45L171.70 250.72L167.70 254.70L168.96 260.42L174.22 262.15ZM168.96 260.42L167.70 254.70L162.44 252.97L158.45 256.95L159.71 262.67L164.97 264.40ZM180.96 248.47L179.70 242.75L174.44 241.01L170.44 245.00L171.70 250.72L176.96 252.45ZM211.51 232.03L210.25 226.30L204.98 224.56L200.98 228.54L202.24 234.27L207.50 236.01ZM202.24 234.27L200.98 228.54L195.71 226.80L191.71 230.79L192.97 236.52L198.23 238.26ZM214.26 222.31L213.00 216.58L207.73 214.84L203.73 218.83L204.98 224.56L210.25 226.30ZM204.98 224.56L203.73 218.83L198.46 217.09L194.45 221.08L195.71 226.80L200.98 228.54ZM218.03 239.50L216.78 233.77L211.51 232.03L207.50 236.01L208.76 241.74L214.02 243.48ZM208.76 241.74L207.50 236.01L202.24 234.27L198.23 238.26L199.49 243.98L204.75 245.72ZM220.79 229.78L219.53 224.06L214.26 222.31L210.25 226.30L211.51 232.03L216.78 233.77ZM245.65 142.22L244.40 136.48L239.11 134.73L235.09 138.73L236.34 144.48L241.63 146.22ZM236.34 144.48L235.09 138.73L229.80 136.99L225.78 140.99L227.04 146.73L232.32 148.47ZM248.43 132.48L247.17 126.73L241.88 124.98L237.85 128.98L239.11 134.73L244.40 136.48ZM239.11 134.73L237.85 128.98L232.57 127.24L228.54 131.24L229.80 136.99L235.09 138.73ZM252.19 149.71L250.94 143.97L245.65 142.22L241.63 146.22L242.88 151.96L248.17 153.71ZM242.88 151.96L241.63 146.22L236.34 144.48L232.32 148.47L233.58 154.22L238.86 155.96ZM254.97 139.97L253.71 134.22L248.43 132.48L244.40 136.48L245.65 142.22L250.94 143.97ZM251.20 122.73L249.94 116.98L244.65 115.23L240.62 119.23L241.88 124.98L247.17 126.73ZM253.98 112.97L252.72 107.22L247.43 105.48L243.40 109.48L244.65 115.23L249.94 116.98ZM257.74 130.22L256.49 124.47L251.20 122.73L247.17 126.73L248.43 132.48L253.71 134.22ZM246.65 169.19L245.40 163.45L240.12 161.70L236.09 165.70L237.35 171.44L242.63 173.19ZM126.55 135.00L125.28 129.26L120.01 127.54L116.01 131.55L117.28 137.28L122.55 139.00ZM129.28 125.26L128.01 119.52L122.73 117.80L118.73 121.81L120.01 127.54L125.28 129.26ZM244.43 24.35L243.16 18.59L237.86 16.84L233.82 20.86L235.08 26.63L240.39 28.37ZM235.08 26.63L233.82 20.86L228.52 19.12L224.48 23.15L225.75 28.91L231.05 30.65ZM247.21 14.56L245.95 8.80L240.64 7.06L236.60 11.08L237.86 16.84L243.16 18.59ZM237.86 16.84L236.60 11.08L231.30 9.34L227.26 13.36L228.52 19.12L233.82 20.86ZM250.99 31.86L249.73 26.09L244.43 24.35L240.39 28.37L241.65 34.13L246.95 35.87ZM241.65 34.13L240.39 28.37L235.08 26.63L231.05 30.65L232.31 36.41L237.61 38.15ZM253.77 22.07L252.51 16.31L247.21 14.56L243.16 18.59L244.43 24.35L249.73 26.09ZM219.18 21.41L217.92 15.65L212.62 13.91L208.58 17.93L209.85 23.69L215.15 25.43ZM209.85 23.69L208.58 17.93L203.28 16.20L199.25 20.22L200.52 25.98L205.82 27.71ZM221.95 11.62L220.69 5.86L215.39 4.12L211.35 8.15L212.62 13.91L217.92 15.65ZM212.62 13.91L211.35 8.15L206.05 6.41L202.02 10.44L203.28 16.20L208.58 17.93ZM225.75 28.91L224.48 23.15L219.18 21.41L215.15 25.43L216.41 31.19L221.71 32.93ZM216.41 31.19L215.15 25.43L209.85 23.69L205.82 27.71L207.08 33.47L212.38 35.21ZM228.52 19.12L227.26 13.36L221.95 11.62L217.92 15.65L219.18 21.41L224.48 23.15ZM259.34 2.50L258.08 -3.27L252.77 -5.02L248.73 -0.99L249.99 4.78L255.30 6.52ZM249.99 4.78L248.73 -0.99L243.42 -2.73L239.38 1.29L240.64 7.06L245.95 8.80ZM265.91 10.01L264.65 4.24L259.34 2.50L255.30 6.52L256.56 12.29L261.86 14.03ZM256.56 12.29L255.30 6.52L249.99 4.78L245.95 8.80L247.21 14.56L252.51 16.31ZM234.07 -0.45L232.81 -6.22L227.50 -7.96L223.46 -3.93L224.73 1.83L230.03 3.57ZM224.73 1.83L223.46 -3.93L218.16 -5.67L214.12 -1.64L215.39 4.12L220.69 5.86ZM240.64 7.06L239.38 1.29L234.07 -0.45L230.03 3.57L231.30 9.34L236.60 11.08ZM231.30 9.34L230.03 3.57L224.73 1.83L220.69 5.86L221.95 11.62L227.26 13.36ZM243.42 -2.73L242.16 -8.50L236.85 -10.24L232.81 -6.22L234.07 -0.45L239.38 1.29ZM254.77 49.14L253.51 43.38L248.21 41.64L244.17 45.65L245.43 51.41L250.73 53.16ZM245.43 51.41L244.17 45.65L238.87 43.91L234.83 47.93L236.09 53.68L241.39 55.43ZM257.55 39.36L256.29 33.60L250.99 31.86L246.95 35.87L248.21 41.64L253.51 43.38ZM248.21 41.64L246.95 35.87L241.65 34.13L237.61 38.15L238.87 43.91L244.17 45.65ZM261.32 56.65L260.07 50.89L254.77 49.14L250.73 53.16L251.99 58.92L257.28 60.66ZM251.99 58.92L250.73 53.16L245.43 51.41L241.39 55.43L242.65 61.19L247.95 62.93ZM264.11 46.87L262.85 41.11L257.55 39.36L253.51 43.38L254.77 49.14L260.07 50.89ZM229.53 46.18L228.27 40.43L222.97 38.69L218.94 42.70L220.20 48.46L225.50 50.20ZM220.20 48.46L218.94 42.70L213.64 40.97L209.61 44.98L210.88 50.74L216.17 52.48ZM232.31 36.41L231.05 30.65L225.75 28.91L221.71 32.93L222.97 38.69L228.27 40.43ZM222.97 38.69L221.71 32.93L216.41 31.19L212.38 35.21L213.64 40.97L218.94 42.70ZM236.09 53.68L234.83 47.93L229.53 46.18L225.50 50.20L226.76 55.96L232.06 57.70ZM226.76 55.96L225.50 50.20L220.20 48.46L216.17 52.48L217.44 58.23L222.73 59.97ZM238.87 43.91L237.61 38.15L232.31 36.41L228.27 40.43L229.53 46.18L234.83 47.93ZM260.33 29.58L259.07 23.82L253.77 22.07L249.73 26.09L250.99 31.86L256.29 33.60ZM263.12 19.80L261.86 14.03L256.56 12.29L252.51 16.31L253.77 22.07L259.07 23.82ZM265.10 73.93L263.84 68.17L258.54 66.42L254.50 70.43L255.76 76.19L261.06 77.94ZM255.76 76.19L254.50 70.43L249.21 68.69L245.17 72.70L246.43 78.45L251.72 80.20ZM258.54 66.42L257.28 60.66L251.99 58.92L247.95 62.93L249.21 68.69L254.50 70.43ZM262.31 83.69L261.06 77.94L255.76 76.19L251.72 80.20L252.98 85.96L258.27 87.70ZM266.08 100.96L264.82 95.20L259.53 93.46L255.50 97.46L256.75 103.22L262.04 104.96ZM221.80 256.68L220.55 250.95L215.28 249.21L211.27 253.19L212.53 258.91L217.79 260.66ZM212.53 258.91L211.27 253.19L206.01 251.45L202.01 255.43L203.26 261.15L208.53 262.89ZM215.28 249.21L214.02 243.48L208.76 241.74L204.75 245.72L206.01 251.45L211.27 253.19ZM121.65 244.84L120.38 239.12L115.13 237.39L111.14 241.38L112.41 247.10L117.67 248.82ZM112.41 247.10L111.14 241.38L105.89 239.66L101.90 243.65L103.17 249.36L108.43 251.08ZM124.37 235.13L123.10 229.41L117.84 227.69L113.86 231.68L115.13 237.39L120.38 239.12ZM115.13 237.39L113.86 231.68L108.60 229.95L104.61 233.94L105.89 239.66L111.14 241.38ZM128.18 252.28L126.91 246.56L121.65 244.84L117.67 248.82L118.94 254.54L124.19 256.26ZM118.94 254.54L117.67 248.82L112.41 247.10L108.43 251.08L109.70 256.80L114.95 258.52ZM130.90 242.58L129.63 236.86L124.37 235.13L120.38 239.12L121.65 244.84L126.91 246.56ZM103.17 249.36L101.90 243.65L96.65 241.92L92.67 245.91L93.94 251.62L99.19 253.35ZM105.89 239.66L104.61 233.94L99.36 232.22L95.38 236.21L96.65 241.92L101.90 243.65ZM136.34 223.16L135.07 217.44L129.81 215.71L125.82 219.70L127.09 225.42L132.35 227.15ZM127.09 225.42L125.82 219.70L120.56 217.98L116.57 221.97L117.84 227.69L123.10 229.41ZM139.07 213.45L137.80 207.73L132.54 206.00L128.54 209.99L129.81 215.71L135.07 217.44ZM129.81 215.71L128.54 209.99L123.28 208.26L119.29 212.26L120.56 217.98L125.82 219.70ZM142.87 230.61L141.60 224.89L136.34 223.16L132.35 227.15L133.62 232.87L138.88 234.60ZM133.62 232.87L132.35 227.15L127.09 225.42L123.10 229.41L124.37 235.13L129.63 236.86ZM145.60 220.90L144.33 215.18L139.07 213.45L135.07 217.44L136.34 223.16L141.60 224.89ZM111.31 220.25L110.04 214.53L104.78 212.80L100.80 216.80L102.07 222.51L107.33 224.24ZM102.07 222.51L100.80 216.80L95.54 215.08L91.56 219.07L92.83 224.78L98.09 226.51ZM114.03 210.53L112.76 204.81L107.50 203.09L103.51 207.09L104.78 212.80L110.04 214.53ZM117.84 227.69L116.57 221.97L111.31 220.25L107.33 224.24L108.60 229.95L113.86 231.68ZM108.60 229.95L107.33 224.24L102.07 222.51L98.09 226.51L99.36 232.22L104.61 233.94ZM120.56 217.98L119.29 212.26L114.03 210.53L110.04 214.53L111.31 220.25L116.57 221.97ZM134.70 259.72L133.43 254.01L128.18 252.28L124.19 256.26L125.46 261.98L130.71 263.71ZM125.46 261.98L124.19 256.26L118.94 254.54L114.95 258.52L116.22 264.23L121.47 265.96ZM109.70 256.80L108.43 251.08L103.17 249.36L99.19 253.35L100.46 259.06L105.72 260.78ZM100.46 259.06L99.19 253.35L93.94 251.62L89.96 255.61L91.24 261.32L96.49 263.04ZM146.67 247.77L145.40 242.05L140.14 240.32L136.15 244.30L137.42 250.02L142.68 251.75ZM137.42 250.02L136.15 244.30L130.90 242.58L126.91 246.56L128.18 252.28L133.43 254.01ZM149.40 238.06L148.13 232.34L142.87 230.61L138.88 234.60L140.14 240.32L145.40 242.05ZM140.14 240.32L138.88 234.60L133.62 232.87L129.63 236.86L130.90 242.58L136.15 244.30ZM153.19 255.22L151.93 249.50L146.67 247.77L142.68 251.75L143.94 257.47L149.20 259.20ZM143.94 257.47L142.68 251.75L137.42 250.02L133.43 254.01L134.70 259.72L139.95 261.45ZM155.92 245.51L154.66 239.79L149.40 238.06L145.40 242.05L146.67 247.77L151.93 249.50ZM91.24 261.32L89.96 255.61L84.71 253.89L80.74 257.88L82.01 263.59L87.26 265.31ZM159.71 262.67L158.45 256.95L153.19 255.22L149.20 259.20L150.46 264.92L155.72 266.65Z"/><path data-band="2" fill="#f97316" fill-opacity="0.35" d="M130.40 -2.26L129.12 -8.01L123.82 -9.73L119.81 -5.70L121.09 0.05L126.38 1.78ZM143.54 12.70L142.26 6.95L136.97 5.22L132.95 9.25L134.23 15.00L139.52 16.73ZM134.23 15.00L132.95 9.25L127.66 7.53L123.64 11.56L124.92 17.31L130.21 19.03ZM146.28 2.92L145.01 -2.84L139.71 -4.56L135.69 -0.53L136.97 5.22L142.26 6.95ZM136.97 5.22L135.69 -0.53L130.40 -2.26L126.38 1.78L127.66 7.53L132.95 9.25ZM150.10 20.18L148.83 14.42L143.54 12.70L139.52 16.73L140.79 22.48L146.09 24.20ZM140.79 22.48L139.52 16.73L134.23 15.00L130.21 19.03L131.49 24.78L136.78 26.50ZM152.85 10.40L151.58 4.64L146.28 2.92L142.26 6.95L143.54 12.70L148.83 14.42ZM118.35 9.84L117.07 4.09L111.78 2.37L107.77 6.40L109.05 12.15L114.34 13.87ZM109.05 12.15L107.77 6.40L102.48 4.68L98.47 8.71L99.75 14.46L105.04 16.18ZM121.09 0.05L119.81 -5.70L114.51 -7.42L110.50 -3.39L111.78 2.37L117.07 4.09ZM111.78 2.37L110.50 -3.39L105.21 -5.10L101.20 -1.07L102.48 4.68L107.77 6.40ZM124.92 17.31L123.64 11.56L118.35 9.84L114.34 13.87L115.62 19.62L120.91 21.34ZM115.62 19.62L114.34 13.87L109.05 12.15L105.04 16.18L106.32 21.92L111.61 23.64ZM127.66 7.53L126.38 1.78L121.09 0.05L117.07 4.09L118.35 9.84L123.64 11.56ZM155.60 0.61L154.33 -5.14L149.03 -6.87L145.01 -2.84L146.28 2.92L151.58 4.64ZM68.02 4.17L66.73 -1.57L61.45 -3.29L57.45 0.75L58.73 6.49L64.02 8.20ZM58.73 6.49L57.45 0.75L52.16 -0.96L48.16 3.08L49.45 8.82L54.73 10.53ZM61.45 -3.29L60.16 -9.03L54.87 -10.74L50.87 -6.70L52.16 -0.96L57.45 0.75ZM74.59 11.63L73.31 5.88L68.02 4.17L64.02 8.20L65.30 13.95L70.59 15.66ZM65.30 13.95L64.02 8.20L58.73 6.49L54.73 10.53L56.02 16.27L61.30 17.98ZM77.31 1.85L76.03 -3.90L70.74 -5.61L66.73 -1.57L68.02 4.17L73.31 5.88ZM42.88 1.37L41.59 -4.37L36.30 -6.08L32.31 -2.04L33.60 3.70L38.88 5.40ZM49.45 8.82L48.16 3.08L42.88 1.37L38.88 5.40L40.17 11.15L45.45 12.85ZM52.16 -0.96L50.87 -6.70L45.59 -8.41L41.59 -4.37L42.88 1.37L48.16 3.08ZM78.44 28.86L77.16 23.12L71.87 21.40L67.87 25.43L69.16 31.18L74.44 32.89ZM69.16 31.18L67.87 25.43L62.59 23.72L58.59 27.75L59.88 33.49L65.16 35.20ZM81.16 19.09L79.88 13.34L74.59 11.63L70.59 15.66L71.87 21.40L77.16 23.12ZM71.87 21.40L70.59 15.66L65.30 13.95L61.30 17.98L62.59 23.72L67.87 25.43ZM85.01 36.32L83.73 30.57L78.44 28.86L74.44 32.89L75.72 38.63L81.01 40.34ZM75.72 38.63L74.44 32.89L69.16 31.18L65.16 35.20L66.44 40.94L71.72 42.66ZM87.73 26.55L86.45 20.80L81.16 19.09L77.16 23.12L78.44 28.86L83.73 30.57ZM53.31 26.04L52.02 20.30L46.74 18.59L42.74 22.63L44.03 28.36L49.31 30.07ZM44.03 28.36L42.74 22.63L37.46 20.92L33.47 24.95L34.76 30.69L40.04 32.39ZM56.02 16.27L54.73 10.53L49.45 8.82L45.45 12.85L46.74 18.59L52.02 20.30ZM46.74 18.59L45.45 12.85L40.17 11.15L36.17 15.18L37.46 20.92L42.74 22.63ZM59.88 33.49L58.59 27.75L53.31 26.04L49.31 30.07L50.60 35.81L55.88 37.52ZM50.60 35.81L49.31 30.07L44.03 28.36L40.04 32.39L41.33 38.13L46.61 39.84ZM62.59 23.72L61.30 17.98L56.02 16.27L52.02 20.30L53.31 26.04L58.59 27.75ZM93.18 6.99L91.90 1.25L86.61 -0.47L82.60 3.56L83.88 9.31L89.17 11.03ZM83.88 9.31L82.60 3.56L77.31 1.85L73.31 5.88L74.59 11.63L79.88 13.34ZM95.91 -2.79L94.62 -8.54L89.33 -10.25L85.32 -6.22L86.61 -0.47L91.90 1.25ZM86.61 -0.47L85.32 -6.22L80.03 -7.93L76.03 -3.90L77.31 1.85L82.60 3.56ZM99.75 14.46L98.47 8.71L93.18 6.99L89.17 11.03L90.45 16.77L95.74 18.49ZM90.45 16.77L89.17 11.03L83.88 9.31L79.88 13.34L81.16 19.09L86.45 20.80ZM102.48 4.68L101.20 -1.07L95.91 -2.79L91.90 1.25L93.18 6.99L98.47 8.71ZM144.62 39.73L143.34 33.98L138.05 32.25L134.04 36.28L135.31 42.03L140.60 43.75ZM156.67 27.66L155.40 21.90L150.10 20.18L146.09 24.20L147.36 29.96L152.65 31.68ZM147.36 29.96L146.09 24.20L140.79 22.48L136.78 26.50L138.05 32.25L143.34 33.98ZM159.42 17.88L158.15 12.12L152.85 10.40L148.83 14.42L150.10 20.18L155.40 21.90ZM113.99 56.39L112.71 50.65L107.42 48.93L103.42 52.95L104.70 58.70L109.98 60.42ZM104.70 58.70L103.42 52.95L98.14 51.24L94.13 55.26L95.41 61.00L100.69 62.72ZM116.72 46.63L115.44 40.88L110.15 39.16L106.15 43.19L107.42 48.93L112.71 50.65ZM107.42 48.93L106.15 43.19L100.86 41.47L96.86 45.49L98.14 51.24L103.42 52.95ZM120.55 63.86L119.27 58.12L113.99 56.39L109.98 60.42L111.26 66.16L116.54 67.88ZM111.26 66.16L109.98 60.42L104.70 58.70L100.69 62.72L101.97 68.46L107.25 70.18ZM123.28 54.09L122.00 48.35L116.72 46.63L112.71 50.65L113.99 56.39L119.27 58.12ZM88.85 53.54L87.57 47.80L82.29 46.09L78.29 50.11L79.57 55.85L84.85 57.57ZM79.57 55.85L78.29 50.11L73.01 48.40L69.01 52.42L70.29 58.16L75.57 59.87ZM91.57 43.78L90.29 38.03L85.01 36.32L81.01 40.34L82.29 46.09L87.57 47.80ZM82.29 46.09L81.01 40.34L75.72 38.63L71.72 42.66L73.01 48.40L78.29 50.11ZM95.41 61.00L94.13 55.26L88.85 53.54L84.85 57.57L86.13 63.30L91.41 65.02ZM86.13 63.30L84.85 57.57L79.57 55.85L75.57 59.87L76.85 65.61L82.13 67.33ZM98.14 51.24L96.86 45.49L91.57 43.78L87.57 47.80L88.85 53.54L94.13 55.26ZM128.75 34.56L127.47 28.81L122.18 27.08L118.17 31.11L119.45 36.86L124.74 38.58ZM119.45 36.86L118.17 31.11L112.88 29.39L108.87 33.42L110.15 39.16L115.44 40.88ZM131.49 24.78L130.21 19.03L124.92 17.31L120.91 21.34L122.18 27.08L127.47 28.81ZM122.18 27.08L120.91 21.34L115.62 19.62L111.61 23.64L112.88 29.39L118.17 31.11ZM135.31 42.03L134.04 36.28L128.75 34.56L124.74 38.58L126.01 44.33L131.30 46.05ZM126.01 44.33L124.74 38.58L119.45 36.86L115.44 40.88L116.72 46.63L122.00 48.35ZM138.05 32.25L136.78 26.50L131.49 24.78L127.47 28.81L128.75 34.56L134.04 36.28ZM103.59 31.70L102.31 25.95L97.02 24.23L93.02 28.26L94.30 34.01L99.58 35.72ZM94.30 34.01L93.02 28.26L87.73 26.55L83.73 30.57L85.01 36.32L90.29 38.03ZM106.32 21.92L105.04 16.18L99.75 14.46L95.74 18.49L97.02 24.23L102.31 25.95ZM97.02 24.23L95.74 18.49L90.45 16.77L86.45 20.80L87.73 26.55L93.02 28.26ZM110.15 39.16L108.87 33.42L103.59 31.70L99.58 35.72L100.86 41.47L106.15 43.19ZM100.86 41.47L99.58 35.72L94.30 34.01L90.29 38.03L91.57 43.78L96.86 45.49ZM112.88 29.39L111.61 23.64L106.32 21.92L102.31 25.95L103.59 31.70L108.87 33.42ZM124.37 81.08L123.10 75.34L117.81 73.62L113.81 77.64L115.09 83.38L120.37 85.10ZM115.09 83.38L113.81 77.64L108.53 75.92L104.53 79.94L105.80 85.67L111.08 87.39ZM127.10 71.32L125.83 65.58L120.55 63.86L116.54 67.88L117.81 73.62L123.10 75.34ZM117.81 73.62L116.54 67.88L111.26 66.16L107.25 70.18L108.53 75.92L113.81 77.64ZM130.93 88.55L129.65 82.81L124.37 81.08L120.37 85.10L121.64 90.84L126.92 92.56ZM121.64 90.84L120.37 85.10L115.09 83.38L111.08 87.39L112.36 93.13L117.64 94.85ZM133.66 78.79L132.39 73.05L127.10 71.32L123.10 75.34L124.37 81.08L129.65 82.81ZM99.25 78.22L97.97 72.48L92.69 70.76L88.69 74.78L89.97 80.52L95.25 82.23ZM89.97 80.52L88.69 74.78L83.41 73.06L79.41 77.08L80.70 82.82L85.97 84.53ZM101.97 68.46L100.69 62.72L95.41 61.00L91.41 65.02L92.69 70.76L97.97 72.48ZM92.69 70.76L91.41 65.02L86.13 63.30L82.13 67.33L83.41 73.06L88.69 74.78ZM105.80 85.67L104.53 79.94L99.25 78.22L95.25 82.23L96.53 87.97L101.80 89.69ZM96.53 87.97L95.25 82.23L89.97 80.52L85.97 84.53L87.25 90.27L92.53 91.99ZM108.53 75.92L107.25 70.18L101.97 68.46L97.97 72.48L99.25 78.22L104.53 79.94ZM139.14 59.27L137.86 53.52L132.57 51.80L128.56 55.82L129.84 61.56L135.12 63.29ZM129.84 61.56L128.56 55.82L123.28 54.09L119.27 58.12L120.55 63.86L125.83 65.58ZM141.88 49.50L140.60 43.75L135.31 42.03L131.30 46.05L132.57 51.80L137.86 53.52ZM132.57 51.80L131.30 46.05L126.01 44.33L122.00 48.35L123.28 54.09L128.56 55.82ZM145.69 66.74L144.42 60.99L139.14 59.27L135.12 63.29L136.40 69.03L141.68 70.76ZM136.40 69.03L135.12 63.29L129.84 61.56L125.83 65.58L127.10 71.32L132.39 73.05ZM148.44 56.97L147.16 51.23L141.88 49.50L137.86 53.52L139.14 59.27L144.42 60.99ZM34.76 30.69L33.47 24.95L28.19 23.24L24.20 27.28L25.49 33.01L30.77 34.72ZM37.46 20.92L36.17 15.18L30.89 13.47L26.90 17.51L28.19 23.24L33.47 24.95ZM106.40 176.20L105.12 170.48L99.86 168.76L95.87 172.76L97.14 178.48L102.41 180.21ZM118.38 164.20L117.10 158.47L111.84 156.75L107.84 160.75L109.12 166.48L114.38 168.20ZM109.12 166.48L107.84 160.75L102.57 159.03L98.58 163.03L99.86 168.76L105.12 170.48ZM112.93 183.65L111.66 177.93L106.40 176.20L102.41 180.21L103.68 185.93L108.94 187.65ZM121.10 154.47L119.83 148.74L114.56 147.02L110.56 151.02L111.84 156.75L117.10 158.47ZM123.83 144.73L122.55 139.00L117.28 137.28L113.28 141.29L114.56 147.02L119.83 148.74ZM134.75 105.76L133.47 100.03L128.19 98.30L124.19 102.31L125.46 108.05L130.74 109.78ZM125.46 108.05L124.19 102.31L118.91 100.59L114.91 104.60L116.18 110.34L121.46 112.06ZM137.48 96.01L136.21 90.27L130.93 88.55L126.92 92.56L128.19 98.30L133.47 100.03ZM128.19 98.30L126.92 92.56L121.64 90.84L117.64 94.85L118.91 100.59L124.19 102.31ZM132.01 115.51L130.74 109.78L125.46 108.05L121.46 112.06L122.73 117.80L128.01 119.52ZM142.95 76.50L141.68 70.76L136.40 69.03L132.39 73.05L133.66 78.79L138.94 80.52ZM30.15 140.74L28.87 135.02L23.60 133.31L19.63 137.33L20.91 143.05L26.17 144.75ZM20.91 143.05L19.63 137.33L14.37 135.62L10.39 139.63L11.68 145.35L16.94 147.06ZM32.84 131.01L31.56 125.29L26.29 123.58L22.32 127.59L23.60 133.31L28.87 135.02ZM23.60 133.31L22.32 127.59L17.05 125.89L13.08 129.90L14.37 135.62L19.63 137.33ZM36.70 148.17L35.41 142.45L30.15 140.74L26.17 144.75L27.46 150.47L32.72 152.18ZM27.46 150.47L26.17 144.75L20.91 143.05L16.94 147.06L18.22 152.77L23.48 154.48ZM39.39 138.44L38.11 132.72L32.84 131.01L28.87 135.02L30.15 140.74L35.41 142.45ZM5.13 137.93L3.84 132.21L-1.42 130.51L-5.39 134.52L-4.10 140.24L1.16 141.94ZM7.82 128.20L6.53 122.48L1.27 120.77L-2.71 124.79L-1.42 130.51L3.84 132.21ZM11.68 145.35L10.39 139.63L5.13 137.93L1.16 141.94L2.45 147.66L7.71 149.36ZM14.37 135.62L13.08 129.90L7.82 128.20L3.84 132.21L5.13 137.93L10.39 139.63ZM44.79 118.97L43.50 113.24L38.24 111.53L34.25 115.55L35.54 121.27L40.81 122.98ZM35.54 121.27L34.25 115.55L28.99 113.84L25.01 117.86L26.29 123.58L31.56 125.29ZM47.49 109.23L46.20 103.50L40.94 101.79L36.95 105.81L38.24 111.53L43.50 113.24ZM38.24 111.53L36.95 105.81L31.68 104.10L27.70 108.12L28.99 113.84L34.25 115.55ZM51.34 126.40L50.06 120.68L44.79 118.97L40.81 122.98L42.09 128.71L47.35 130.42ZM42.09 128.71L40.81 122.98L35.54 121.27L31.56 125.29L32.84 131.01L38.11 132.72ZM54.04 116.67L52.76 110.94L47.49 109.23L43.50 113.24L44.79 118.97L50.06 120.68ZM19.74 116.15L18.46 110.43L13.19 108.72L9.21 112.74L10.50 118.46L15.77 120.17ZM22.44 106.41L21.15 100.69L15.88 98.98L11.90 103.00L13.19 108.72L18.46 110.43ZM26.29 123.58L25.01 117.86L19.74 116.15L15.77 120.17L17.05 125.89L22.32 127.59ZM17.05 125.89L15.77 120.17L10.50 118.46L6.53 122.48L7.82 128.20L13.08 129.90ZM28.99 113.84L27.70 108.12L22.44 106.41L18.46 110.43L19.74 116.15L25.01 117.86ZM40.55 165.33L39.26 159.61L34.00 157.90L30.03 161.91L31.31 167.62L36.57 169.33ZM31.31 167.62L30.03 161.91L24.77 160.20L20.80 164.21L22.08 169.92L27.34 171.63ZM43.24 155.60L41.96 149.88L36.70 148.17L32.72 152.18L34.00 157.90L39.26 159.61ZM34.00 157.90L32.72 152.18L27.46 150.47L23.48 154.48L24.77 160.20L30.03 161.91ZM47.09 172.76L45.81 167.04L40.55 165.33L36.57 169.33L37.85 175.05L43.11 176.76ZM37.85 175.05L36.57 169.33L31.31 167.62L27.34 171.63L28.62 177.34L33.88 179.05ZM49.78 163.03L48.50 157.31L43.24 155.60L39.26 159.61L40.55 165.33L45.81 167.04ZM15.54 162.50L14.25 156.78L8.99 155.08L5.02 159.09L6.31 164.80L11.57 166.51ZM6.31 164.80L5.02 159.09L-0.23 157.38L-4.20 161.39L-2.91 167.10L2.34 168.81ZM18.22 152.77L16.94 147.06L11.68 145.35L7.71 149.36L8.99 155.08L14.25 156.78ZM8.99 155.08L7.71 149.36L2.45 147.66L-1.52 151.67L-0.23 157.38L5.02 159.09ZM22.08 169.92L20.80 164.21L15.54 162.50L11.57 166.51L12.85 172.22L18.11 173.93ZM12.85 172.22L11.57 166.51L6.31 164.80L2.34 168.81L3.63 174.52L8.88 176.23ZM24.77 160.20L23.48 154.48L18.22 152.77L14.25 156.78L15.54 162.50L20.80 164.21ZM55.18 143.57L53.90 137.85L48.64 136.14L44.66 140.15L45.94 145.87L51.20 147.58ZM45.94 145.87L44.66 140.15L39.39 138.44L35.41 142.45L36.70 148.17L41.96 149.88ZM57.89 133.84L56.60 128.12L51.34 126.40L47.35 130.42L48.64 136.14L53.90 137.85ZM48.64 136.14L47.35 130.42L42.09 128.71L38.11 132.72L39.39 138.44L44.66 140.15ZM61.73 151.01L60.45 145.29L55.18 143.57L51.20 147.58L52.48 153.30L57.75 155.02ZM52.48 153.30L51.20 147.58L45.94 145.87L41.96 149.88L43.24 155.60L48.50 157.31ZM64.43 141.28L63.15 135.55L57.89 133.84L53.90 137.85L55.18 143.57L60.45 145.29ZM49.04 72.54L47.76 66.81L42.48 65.10L38.49 69.12L39.78 74.85L45.05 76.56ZM39.78 74.85L38.49 69.12L33.22 67.41L29.23 71.44L30.52 77.17L35.79 78.88ZM51.75 62.78L50.46 57.05L45.19 55.34L41.20 59.37L42.48 65.10L47.76 66.81ZM42.48 65.10L41.20 59.37L35.92 57.66L31.93 61.68L33.22 67.41L38.49 69.12ZM55.60 79.98L54.32 74.25L49.04 72.54L45.05 76.56L46.34 82.29L51.61 84.00ZM46.34 82.29L45.05 76.56L39.78 74.85L35.79 78.88L37.08 84.61L42.35 86.31ZM58.31 70.23L57.02 64.49L51.75 62.78L47.76 66.81L49.04 72.54L54.32 74.25ZM30.52 77.17L29.23 71.44L23.96 69.73L19.98 73.76L21.27 79.49L26.54 81.19ZM21.27 79.49L19.98 73.76L14.71 72.05L10.73 76.08L12.01 81.80L17.28 83.51ZM33.22 67.41L31.93 61.68L26.66 59.98L22.67 64.00L23.96 69.73L29.23 71.44ZM63.73 50.71L62.45 44.97L57.17 43.26L53.17 47.29L54.46 53.02L59.73 54.73ZM54.46 53.02L53.17 47.29L47.89 45.58L43.90 49.60L45.19 55.34L50.46 57.05ZM66.44 40.94L65.16 35.20L59.88 33.49L55.88 37.52L57.17 43.26L62.45 44.97ZM57.17 43.26L55.88 37.52L50.60 35.81L46.61 39.84L47.89 45.58L53.17 47.29ZM70.29 58.16L69.01 52.42L63.73 50.71L59.73 54.73L61.02 60.47L66.30 62.18ZM61.02 60.47L59.73 54.73L54.46 53.02L50.46 57.05L51.75 62.78L57.02 64.49ZM73.01 48.40L71.72 42.66L66.44 40.94L62.45 44.97L63.73 50.71L69.01 52.42ZM38.62 47.90L37.34 42.16L32.06 40.45L28.07 44.48L29.36 50.22L34.63 51.92ZM29.36 50.22L28.07 44.48L22.79 42.78L18.81 46.81L20.09 52.54L25.37 54.24ZM41.33 38.13L40.04 32.39L34.76 30.69L30.77 34.72L32.06 40.45L37.34 42.16ZM32.06 40.45L30.77 34.72L25.49 33.01L21.50 37.04L22.79 42.78L28.07 44.48ZM45.19 55.34L43.90 49.60L38.62 47.90L34.63 51.92L35.92 57.66L41.20 59.37ZM35.92 57.66L34.63 51.92L29.36 50.22L25.37 54.24L26.66 59.98L31.93 61.68ZM47.89 45.58L46.61 39.84L41.33 38.13L37.34 42.16L38.62 47.90L43.90 49.60ZM59.45 97.18L58.17 91.45L52.90 89.73L48.91 93.75L50.19 99.48L55.46 101.19ZM50.19 99.48L48.91 93.75L43.64 92.04L39.65 96.06L40.94 101.79L46.20 103.50ZM62.16 87.43L60.88 81.70L55.60 79.98L51.61 84.00L52.90 89.73L58.17 91.45ZM52.90 89.73L51.61 84.00L46.34 82.29L42.35 86.31L43.64 92.04L48.91 93.75ZM66.00 104.62L64.72 98.89L59.45 97.18L55.46 101.19L56.74 106.92L62.01 108.64ZM56.74 106.92L55.46 101.19L50.19 99.48L46.20 103.50L47.49 109.23L52.76 110.94ZM68.71 94.87L67.43 89.14L62.16 87.43L58.17 91.45L59.45 97.18L64.72 98.89ZM34.38 94.35L33.09 88.63L27.82 86.92L23.84 90.94L25.13 96.67L30.40 98.37ZM25.13 96.67L23.84 90.94L18.57 89.23L14.59 93.26L15.88 98.98L21.15 100.69ZM37.08 84.61L35.79 78.88L30.52 77.17L26.54 81.19L27.82 86.92L33.09 88.63ZM27.82 86.92L26.54 81.19L21.27 79.49L17.28 83.51L18.57 89.23L23.84 90.94ZM40.94 101.79L39.65 96.06L34.38 94.35L30.40 98.37L31.68 104.10L36.95 105.81ZM31.68 104.10L30.40 98.37L25.13 96.67L21.15 100.69L22.44 106.41L27.70 108.12ZM43.64 92.04L42.35 86.31L37.08 84.61L33.09 88.63L34.38 94.35L39.65 96.06ZM74.14 75.37L72.86 69.63L67.58 67.92L63.58 71.94L64.87 77.67L70.14 79.39ZM64.87 77.67L63.58 71.94L58.31 70.23L54.32 74.25L55.60 79.98L60.88 81.70ZM76.85 65.61L75.57 59.87L70.29 58.16L66.30 62.18L67.58 67.92L72.86 69.63ZM67.58 67.92L66.30 62.18L61.02 60.47L57.02 64.49L58.31 70.23L63.58 71.94ZM80.70 82.82L79.41 77.08L74.14 75.37L70.14 79.39L71.42 85.12L76.70 86.84ZM71.42 85.12L70.14 79.39L64.87 77.67L60.88 81.70L62.16 87.43L67.43 89.14ZM83.41 73.06L82.13 67.33L76.85 65.61L72.86 69.63L74.14 75.37L79.41 77.08ZM18.57 89.23L17.28 83.51L12.01 81.80L8.04 85.83L9.32 91.55L14.59 93.26ZM75.94 192.76L74.66 187.05L69.40 185.33L65.42 189.33L66.70 195.05L71.96 196.76ZM66.70 195.05L65.42 189.33L60.16 187.62L56.19 191.62L57.47 197.33L62.72 199.05ZM78.65 183.05L77.37 177.33L72.11 175.61L68.13 179.61L69.40 185.33L74.66 187.05ZM69.40 185.33L68.13 179.61L62.87 177.90L58.89 181.90L60.16 187.62L65.42 189.33ZM82.48 200.20L81.20 194.48L75.94 192.76L71.96 196.76L73.24 202.48L78.49 204.20ZM73.24 202.48L71.96 196.76L66.70 195.05L62.72 199.05L64.00 204.76L69.26 206.48ZM85.18 190.48L83.91 184.76L78.65 183.05L74.66 187.05L75.94 192.76L81.20 194.48ZM50.93 189.90L49.65 184.19L44.39 182.47L40.42 186.48L41.70 192.19L46.95 193.90ZM41.70 192.19L40.42 186.48L35.16 184.77L31.19 188.77L32.47 194.48L37.72 196.19ZM53.63 180.18L52.35 174.47L47.09 172.76L43.11 176.76L44.39 182.47L49.65 184.19ZM44.39 182.47L43.11 176.76L37.85 175.05L33.88 179.05L35.16 184.77L40.42 186.48ZM57.47 197.33L56.19 191.62L50.93 189.90L46.95 193.90L48.23 199.62L53.49 201.33ZM48.23 199.62L46.95 193.90L41.70 192.19L37.72 196.19L39.01 201.90L44.26 203.62ZM60.16 187.62L58.89 181.90L53.63 180.18L49.65 184.19L50.93 189.90L56.19 191.62ZM90.60 171.04L89.33 165.32L84.06 163.60L80.08 167.60L81.35 173.32L86.62 175.04ZM81.35 173.32L80.08 167.60L74.81 165.89L70.83 169.89L72.11 175.61L77.37 177.33ZM93.32 161.31L92.04 155.59L86.78 153.87L82.79 157.88L84.06 163.60L89.33 165.32ZM84.06 163.60L82.79 157.88L77.52 156.16L73.54 160.16L74.81 165.89L80.08 167.60ZM97.14 178.48L95.87 172.76L90.60 171.04L86.62 175.04L87.89 180.76L93.15 182.48ZM87.89 180.76L86.62 175.04L81.35 173.32L77.37 177.33L78.65 183.05L83.91 184.76ZM99.86 168.76L98.58 163.03L93.32 161.31L89.33 165.32L90.60 171.04L95.87 172.76ZM65.57 168.17L64.29 162.45L59.03 160.74L55.05 164.74L56.33 170.46L61.59 172.18ZM56.33 170.46L55.05 164.74L49.78 163.03L45.81 167.04L47.09 172.76L52.35 174.47ZM68.27 158.45L66.99 152.73L61.73 151.01L57.75 155.02L59.03 160.74L64.29 162.45ZM59.03 160.74L57.75 155.02L52.48 153.30L48.50 157.31L49.78 163.03L55.05 164.74ZM72.11 175.61L70.83 169.89L65.57 168.17L61.59 172.18L62.87 177.90L68.13 179.61ZM62.87 177.90L61.59 172.18L56.33 170.46L52.35 174.47L53.63 180.18L58.89 181.90ZM74.81 165.89L73.54 160.16L68.27 158.45L64.29 162.45L65.57 168.17L70.83 169.89ZM86.30 217.35L85.03 211.63L79.77 209.91L75.79 213.91L77.06 219.62L82.32 221.34ZM77.06 219.62L75.79 213.91L70.53 212.19L66.56 216.19L67.83 221.90L73.09 223.62ZM89.01 207.64L87.73 201.92L82.48 200.20L78.49 204.20L79.77 209.91L85.03 211.63ZM79.77 209.91L78.49 204.20L73.24 202.48L69.26 206.48L70.53 212.19L75.79 213.91ZM92.83 224.78L91.56 219.07L86.30 217.35L82.32 221.34L83.59 227.06L88.85 228.78ZM83.59 227.06L82.32 221.34L77.06 219.62L73.09 223.62L74.36 229.33L79.62 231.05ZM95.54 215.08L94.27 209.36L89.01 207.64L85.03 211.63L86.30 217.35L91.56 219.07ZM61.30 214.47L60.02 208.76L54.77 207.04L50.79 211.04L52.07 216.75L57.33 218.47ZM52.07 216.75L50.79 211.04L45.54 209.33L41.57 213.33L42.85 219.04L48.10 220.75ZM64.00 204.76L62.72 199.05L57.47 197.33L53.49 201.33L54.77 207.04L60.02 208.76ZM54.77 207.04L53.49 201.33L48.23 199.62L44.26 203.62L45.54 209.33L50.79 211.04ZM67.83 221.90L66.56 216.19L61.30 214.47L57.33 218.47L58.60 224.18L63.86 225.89ZM58.60 224.18L57.33 218.47L52.07 216.75L48.10 220.75L49.38 226.46L54.63 228.17ZM70.53 212.19L69.26 206.48L64.00 204.76L60.02 208.76L61.30 214.47L66.56 216.19ZM100.97 195.65L99.69 189.93L94.43 188.21L90.44 192.20L91.72 197.92L96.98 199.64ZM91.72 197.92L90.44 192.20L85.18 190.48L81.20 194.48L82.48 200.20L87.73 201.92ZM103.68 185.93L102.41 180.21L97.14 178.48L93.15 182.48L94.43 188.21L99.69 189.93ZM94.43 188.21L93.15 182.48L87.89 180.76L83.91 184.76L85.18 190.48L90.44 192.20ZM107.50 203.09L106.23 197.37L100.97 195.65L96.98 199.64L98.25 205.36L103.51 207.09ZM98.25 205.36L96.98 199.64L91.72 197.92L87.73 201.92L89.01 207.64L94.27 209.36ZM110.22 193.37L108.94 187.65L103.68 185.93L99.69 189.93L100.97 195.65L106.23 197.37ZM11.34 208.78L10.06 203.07L4.81 201.36L0.85 205.36L2.13 211.07L7.38 212.78ZM2.13 211.07L0.85 205.36L-4.40 203.66L-8.36 207.66L-7.08 213.37L-1.83 215.07ZM14.03 199.07L12.74 193.36L7.49 191.65L3.52 195.65L4.81 201.36L10.06 203.07ZM4.81 201.36L3.52 195.65L-1.73 193.95L-5.69 197.95L-4.40 203.66L0.85 205.36ZM17.88 216.19L16.59 210.48L11.34 208.78L7.38 212.78L8.66 218.48L13.91 220.19ZM8.66 218.48L7.38 212.78L2.13 211.07L-1.83 215.07L-0.54 220.77L4.70 222.48ZM20.56 206.48L19.28 200.78L14.03 199.07L10.06 203.07L11.34 208.78L16.59 210.48ZM25.93 187.06L24.65 181.35L19.39 179.64L15.42 183.64L16.71 189.36L21.96 191.06ZM16.71 189.36L15.42 183.64L10.17 181.94L6.20 185.94L7.49 191.65L12.74 193.36ZM28.62 177.34L27.34 171.63L22.08 169.92L18.11 173.93L19.39 179.64L24.65 181.35ZM19.39 179.64L18.11 173.93L12.85 172.22L8.88 176.23L10.17 181.94L15.42 183.64ZM32.47 194.48L31.19 188.77L25.93 187.06L21.96 191.06L23.25 196.77L28.50 198.48ZM23.25 196.77L21.96 191.06L16.71 189.36L12.74 193.36L14.03 199.07L19.28 200.78ZM35.16 184.77L33.88 179.05L28.62 177.34L24.65 181.35L25.93 187.06L31.19 188.77ZM0.95 184.24L-0.34 178.53L-5.59 176.82L-9.55 180.83L-8.27 186.54L-3.01 188.24ZM3.63 174.52L2.34 168.81L-2.91 167.10L-6.88 171.11L-5.59 176.82L-0.34 178.53ZM7.49 191.65L6.20 185.94L0.95 184.24L-3.01 188.24L-1.73 193.95L3.52 195.65ZM10.17 181.94L8.88 176.23L3.63 174.52L-0.34 178.53L0.95 184.24L6.20 185.94ZM21.73 233.31L20.44 227.60L15.20 225.89L11.23 229.89L12.52 235.59L17.76 237.30ZM12.52 235.59L11.23 229.89L5.99 228.18L2.03 232.18L3.31 237.88L8.56 239.59ZM24.41 223.61L23.13 217.90L17.88 216.19L13.91 220.19L15.20 225.89L20.44 227.60ZM15.20 225.89L13.91 220.19L8.66 218.48L4.70 222.48L5.99 228.18L11.23 229.89ZM28.26 240.72L26.97 235.02L21.73 233.31L17.76 237.30L19.05 243.01L24.29 244.72ZM19.05 243.01L17.76 237.30L12.52 235.59L8.56 239.59L9.84 245.29L15.08 247.00ZM30.94 231.02L29.66 225.32L24.41 223.61L20.44 227.60L21.73 233.31L26.97 235.02ZM3.31 237.88L2.03 232.18L-3.22 230.47L-7.18 234.47L-5.89 240.17L-0.65 241.88ZM5.99 228.18L4.70 222.48L-0.54 220.77L-4.50 224.77L-3.22 230.47L2.03 232.18ZM36.32 211.61L35.03 205.90L29.78 204.19L25.81 208.19L27.10 213.90L32.35 215.61ZM27.10 213.90L25.81 208.19L20.56 206.48L16.59 210.48L17.88 216.19L23.13 217.90ZM39.01 201.90L37.72 196.19L32.47 194.48L28.50 198.48L29.78 204.19L35.03 205.90ZM29.78 204.19L28.50 198.48L23.25 196.77L19.28 200.78L20.56 206.48L25.81 208.19ZM42.85 219.04L41.57 213.33L36.32 211.61L32.35 215.61L33.63 221.32L38.88 223.03ZM33.63 221.32L32.35 215.61L27.10 213.90L23.13 217.90L24.41 223.61L29.66 225.32ZM45.54 209.33L44.26 203.62L39.01 201.90L35.03 205.90L36.32 211.61L41.57 213.33ZM94.92 124.66L93.64 118.93L88.37 117.21L84.38 121.23L85.66 126.96L90.93 128.67ZM85.66 126.96L84.38 121.23L79.11 119.51L75.12 123.52L76.40 129.25L81.66 130.97ZM97.64 114.92L96.36 109.19L91.09 107.47L87.09 111.48L88.37 117.21L93.64 118.93ZM88.37 117.21L87.09 111.48L81.82 109.77L77.83 113.78L79.11 119.51L84.38 121.23ZM101.47 132.11L100.19 126.38L94.92 124.66L90.93 128.67L92.20 134.40L97.47 136.12ZM92.20 134.40L90.93 128.67L85.66 126.96L81.66 130.97L82.94 136.69L88.21 138.41ZM104.19 122.37L102.91 116.64L97.64 114.92L93.64 118.93L94.92 124.66L100.19 126.38ZM69.85 121.81L68.57 116.08L63.30 114.36L59.31 118.38L60.59 124.10L65.86 125.82ZM60.59 124.10L59.31 118.38L54.04 116.67L50.06 120.68L51.34 126.40L56.60 128.12ZM72.56 112.06L71.28 106.33L66.00 104.62L62.01 108.64L63.30 114.36L68.57 116.08ZM63.30 114.36L62.01 108.64L56.74 106.92L52.76 110.94L54.04 116.67L59.31 118.38ZM76.40 129.25L75.12 123.52L69.85 121.81L65.86 125.82L67.14 131.54L72.41 133.26ZM67.14 131.54L65.86 125.82L60.59 124.10L56.60 128.12L57.89 133.84L63.15 135.55ZM79.11 119.51L77.83 113.78L72.56 112.06L68.57 116.08L69.85 121.81L75.12 123.52ZM109.63 102.88L108.36 97.15L103.08 95.43L99.08 99.44L100.36 105.17L105.63 106.90ZM100.36 105.17L99.08 99.44L93.81 97.72L89.81 101.74L91.09 107.47L96.36 109.19ZM112.36 93.13L111.08 87.39L105.80 85.67L101.80 89.69L103.08 95.43L108.36 97.15ZM103.08 95.43L101.80 89.69L96.53 87.97L92.53 91.99L93.81 97.72L99.08 99.44ZM116.18 110.34L114.91 104.60L109.63 102.88L105.63 106.90L106.91 112.63L112.18 114.35ZM106.91 112.63L105.63 106.90L100.36 105.17L96.36 109.19L97.64 114.92L102.91 116.64ZM118.91 100.59L117.64 94.85L112.36 93.13L108.36 97.15L109.63 102.88L114.91 104.60ZM84.53 100.02L83.26 94.29L77.98 92.57L73.99 96.59L75.27 102.32L80.54 104.03ZM75.27 102.32L73.99 96.59L68.71 94.87L64.72 98.89L66.00 104.62L71.28 106.33ZM87.25 90.27L85.97 84.53L80.70 82.82L76.70 86.84L77.98 92.57L83.26 94.29ZM77.98 92.57L76.70 86.84L71.42 85.12L67.43 89.14L68.71 94.87L73.99 96.59ZM91.09 107.47L89.81 101.74L84.53 100.02L80.54 104.03L81.82 109.77L87.09 111.48ZM81.82 109.77L80.54 104.03L75.27 102.32L71.28 106.33L72.56 112.06L77.83 113.78ZM93.81 97.72L92.53 91.99L87.25 90.27L83.26 94.29L84.53 100.02L89.81 101.74ZM105.29 149.30L104.02 143.57L98.75 141.85L94.76 145.86L96.03 151.58L101.30 153.30ZM96.03 151.58L94.76 145.86L89.49 144.14L85.50 148.15L86.78 153.87L92.04 155.59ZM108.01 139.56L106.74 133.83L101.47 132.11L97.47 136.12L98.75 141.85L104.02 143.57ZM98.75 141.85L97.47 136.12L92.20 134.40L88.21 138.41L89.49 144.14L94.76 145.86ZM111.84 156.75L110.56 151.02L105.29 149.30L101.30 153.30L102.57 159.03L107.84 160.75ZM102.57 159.03L101.30 153.30L96.03 151.58L92.04 155.59L93.32 161.31L98.58 163.03ZM114.56 147.02L113.28 141.29L108.01 139.56L104.02 143.57L105.29 149.30L110.56 151.02ZM80.23 146.43L78.95 140.70L73.69 138.99L69.70 142.99L70.98 148.72L76.24 150.43ZM70.98 148.72L69.70 142.99L64.43 141.28L60.45 145.29L61.73 151.01L66.99 152.73ZM82.94 136.69L81.66 130.97L76.40 129.25L72.41 133.26L73.69 138.99L78.95 140.70ZM73.69 138.99L72.41 133.26L67.14 131.54L63.15 135.55L64.43 141.28L69.70 142.99ZM86.78 153.87L85.50 148.15L80.23 146.43L76.24 150.43L77.52 156.16L82.79 157.88ZM77.52 156.16L76.24 150.43L70.98 148.72L66.99 152.73L68.27 158.45L73.54 160.16ZM89.49 144.14L88.21 138.41L82.94 136.69L78.95 140.70L80.23 146.43L85.50 148.15ZM120.01 127.54L118.73 121.81L113.46 120.08L109.46 124.09L110.74 129.83L116.01 131.55ZM110.74 129.83L109.46 124.09L104.19 122.37L100.19 126.38L101.47 132.11L106.74 133.83ZM122.73 117.80L121.46 112.06L116.18 110.34L112.18 114.35L113.46 120.08L118.73 121.81ZM113.46 120.08L112.18 114.35L106.91 112.63L102.91 116.64L104.19 122.37L109.46 124.09ZM117.28 137.28L116.01 131.55L110.74 129.83L106.74 133.83L108.01 139.56L113.28 141.29ZM96.65 241.92L95.38 236.21L90.12 234.49L86.14 238.48L87.42 244.19L92.67 245.91ZM87.42 244.19L86.14 238.48L80.89 236.76L76.91 240.75L78.19 246.46L83.44 248.18ZM99.36 232.22L98.09 226.51L92.83 224.78L88.85 228.78L90.12 234.49L95.38 236.21ZM90.12 234.49L88.85 228.78L83.59 227.06L79.62 231.05L80.89 236.76L86.14 238.48ZM93.94 251.62L92.67 245.91L87.42 244.19L83.44 248.18L84.71 253.89L89.96 255.61ZM104.78 212.80L103.51 207.09L98.25 205.36L94.27 209.36L95.54 215.08L100.80 216.80ZM57.05 260.70L55.77 254.99L50.52 253.28L46.55 257.27L47.83 262.97L53.08 264.69ZM47.83 262.97L46.55 257.27L41.31 255.55L37.34 259.54L38.62 265.25L43.87 266.96ZM59.74 251.00L58.46 245.30L53.21 243.58L49.24 247.57L50.52 253.28L55.77 254.99ZM50.52 253.28L49.24 247.57L44.00 245.86L40.03 249.85L41.31 255.55L46.55 257.27ZM66.26 258.43L64.99 252.72L59.74 251.00L55.77 254.99L57.05 260.70L62.29 262.42ZM32.10 257.83L30.82 252.13L25.57 250.42L21.61 254.41L22.89 260.11L28.13 261.82ZM22.89 260.11L21.61 254.41L16.37 252.70L12.41 256.69L13.69 262.39L18.93 264.10ZM34.78 248.14L33.50 242.43L28.26 240.72L24.29 244.72L25.57 250.42L30.82 252.13ZM25.57 250.42L24.29 244.72L19.05 243.01L15.08 247.00L16.37 252.70L21.61 254.41ZM41.31 255.55L40.03 249.85L34.78 248.14L30.82 252.13L32.10 257.83L37.34 259.54ZM71.66 239.03L70.39 233.32L65.13 231.61L61.16 235.60L62.44 241.31L67.69 243.02ZM62.44 241.31L61.16 235.60L55.91 233.88L51.94 237.88L53.21 243.58L58.46 245.30ZM74.36 229.33L73.09 223.62L67.83 221.90L63.86 225.89L65.13 231.61L70.39 233.32ZM65.13 231.61L63.86 225.89L58.60 224.18L54.63 228.17L55.91 233.88L61.16 235.60ZM78.19 246.46L76.91 240.75L71.66 239.03L67.69 243.02L68.96 248.73L74.21 250.45ZM68.96 248.73L67.69 243.02L62.44 241.31L58.46 245.30L59.74 251.00L64.99 252.72ZM80.89 236.76L79.62 231.05L74.36 229.33L70.39 233.32L71.66 239.03L76.91 240.75ZM46.69 236.16L45.41 230.45L40.16 228.74L36.19 232.73L37.47 238.44L42.72 240.15ZM37.47 238.44L36.19 232.73L30.94 231.02L26.97 235.02L28.26 240.72L33.50 242.43ZM49.38 226.46L48.10 220.75L42.85 219.04L38.88 223.03L40.16 228.74L45.41 230.45ZM40.16 228.74L38.88 223.03L33.63 221.32L29.66 225.32L30.94 231.02L36.19 232.73ZM53.21 243.58L51.94 237.88L46.69 236.16L42.72 240.15L44.00 245.86L49.24 247.57ZM44.00 245.86L42.72 240.15L37.47 238.44L33.50 242.43L34.78 248.14L40.03 249.85ZM55.91 233.88L54.63 228.17L49.38 226.46L45.41 230.45L46.69 236.16L51.94 237.88ZM84.71 253.89L83.44 248.18L78.19 246.46L74.21 250.45L75.49 256.16L80.74 257.88ZM75.49 256.16L74.21 250.45L68.96 248.73L64.99 252.72L66.26 258.43L71.51 260.15ZM7.16 254.98L5.88 249.28L0.64 247.58L-3.32 251.57L-2.04 257.27L3.20 258.98ZM9.84 245.29L8.56 239.59L3.31 237.88L-0.65 241.88L0.64 247.58L5.88 249.28ZM0.64 247.58L-0.65 241.88L-5.89 240.17L-9.85 244.17L-8.56 249.87L-3.32 251.57ZM13.69 262.39L12.41 256.69L7.16 254.98L3.20 258.98L4.49 264.67L9.73 266.38ZM16.37 252.70L15.08 247.00L9.84 245.29L5.88 249.28L7.16 254.98L12.41 256.69Z"/><path data-band="3" fill="#dc2626" fill-opacity="0.35" d="M33.60 3.70L32.31 -2.04L27.02 -3.75L23.03 0.29L24.32 6.03L29.60 7.73ZM40.17 11.15L38.88 5.40L33.60 3.70L29.60 7.73L30.89 13.47L36.17 15.18ZM3.09 20.47L1.79 14.73L-3.48 13.03L-7.47 17.07L-6.17 22.80L-0.90 24.50ZM5.78 10.70L4.49 4.96L-0.79 3.26L-4.78 7.30L-3.48 13.03L1.79 14.73ZM9.66 27.90L8.36 22.17L3.09 20.47L-0.90 24.50L0.40 30.23L5.67 31.94ZM0.40 30.23L-0.90 24.50L-6.17 22.80L-10.16 26.84L-8.86 32.57L-3.59 34.27ZM12.35 18.13L11.06 12.40L5.78 10.70L1.79 14.73L3.09 20.47L8.36 22.17ZM17.75 -1.41L16.46 -7.15L11.17 -8.86L7.18 -4.82L8.48 0.92L13.76 2.62ZM8.48 0.92L7.18 -4.82L1.90 -6.52L-2.09 -2.48L-0.79 3.26L4.49 4.96ZM24.32 6.03L23.03 0.29L17.75 -1.41L13.76 2.62L15.05 8.36L20.33 10.06ZM15.05 8.36L13.76 2.62L8.48 0.92L4.49 4.96L5.78 10.70L11.06 12.40ZM27.02 -3.75L25.73 -9.49L20.45 -11.19L16.46 -7.15L17.75 -1.41L23.03 0.29ZM13.53 45.10L12.24 39.37L6.96 37.67L2.98 41.70L4.27 47.43L9.55 49.13ZM4.27 47.43L2.98 41.70L-2.29 40.00L-6.27 44.03L-4.98 49.76L0.29 51.46ZM16.23 35.34L14.93 29.61L9.66 27.90L5.67 31.94L6.96 37.67L12.24 39.37ZM6.96 37.67L5.67 31.94L0.40 30.23L-3.59 34.27L-2.29 40.00L2.98 41.70ZM20.09 52.54L18.81 46.81L13.53 45.10L9.55 49.13L10.84 54.86L16.11 56.57ZM10.84 54.86L9.55 49.13L4.27 47.43L0.29 51.46L1.58 57.19L6.85 58.89ZM22.79 42.78L21.50 37.04L16.23 35.34L12.24 39.37L13.53 45.10L18.81 46.81ZM28.19 23.24L26.90 17.51L21.62 15.80L17.63 19.84L18.92 25.57L24.20 27.28ZM18.92 25.57L17.63 19.84L12.35 18.13L8.36 22.17L9.66 27.90L14.93 29.61ZM30.89 13.47L29.60 7.73L24.32 6.03L20.33 10.06L21.62 15.80L26.90 17.51ZM21.62 15.80L20.33 10.06L15.05 8.36L11.06 12.40L12.35 18.13L17.63 19.84ZM25.49 33.01L24.20 27.28L18.92 25.57L14.93 29.61L16.23 35.34L21.50 37.04ZM2.45 147.66L1.16 141.94L-4.10 140.24L-8.07 144.25L-6.78 149.97L-1.52 151.67ZM10.50 118.46L9.21 112.74L3.95 111.04L-0.02 115.05L1.27 120.77L6.53 122.48ZM13.19 108.72L11.90 103.00L6.64 101.30L2.66 105.31L3.95 111.04L9.21 112.74ZM23.96 69.73L22.67 64.00L17.40 62.30L13.42 66.32L14.71 72.05L19.98 73.76ZM14.71 72.05L13.42 66.32L8.15 64.62L4.16 68.65L5.46 74.37L10.73 76.08ZM26.66 59.98L25.37 54.24L20.09 52.54L16.11 56.57L17.40 62.30L22.67 64.00ZM17.40 62.30L16.11 56.57L10.84 54.86L6.85 58.89L8.15 64.62L13.42 66.32ZM1.58 57.19L0.29 51.46L-4.98 49.76L-8.96 53.79L-7.67 59.52L-2.40 61.22ZM5.46 74.37L4.16 68.65L-1.11 66.94L-5.08 70.97L-3.79 76.70L1.48 78.40ZM8.15 64.62L6.85 58.89L1.58 57.19L-2.40 61.22L-1.11 66.94L4.16 68.65ZM1.27 120.77L-0.02 115.05L-5.29 113.35L-9.26 117.37L-7.97 123.09L-2.71 124.79ZM3.95 111.04L2.66 105.31L-2.60 103.61L-6.58 107.63L-5.29 113.35L-0.02 115.05ZM9.32 91.55L8.04 85.83L2.77 84.12L-1.21 88.15L0.08 93.87L5.35 95.57ZM0.08 93.87L-1.21 88.15L-6.48 86.44L-10.45 90.47L-9.16 96.19L-3.89 97.89ZM12.01 81.80L10.73 76.08L5.46 74.37L1.48 78.40L2.77 84.12L8.04 85.83ZM2.77 84.12L1.48 78.40L-3.79 76.70L-7.77 80.72L-6.48 86.44L-1.21 88.15ZM15.88 98.98L14.59 93.26L9.32 91.55L5.35 95.57L6.64 101.30L11.90 103.00ZM6.64 101.30L5.35 95.57L0.08 93.87L-3.89 97.89L-2.60 103.61L2.66 105.31Z"/></svg>
