<svg xmlns="http://www.w3.org/2000/svg" width="256" height="256" viewBox="0 0 256 256"><path data-band="1" fill="#fde68a" fill-opacity="0.35" d="M196.74 -2.31L195.48 -8.04L190.22 -9.78L186.22 -5.79L187.48 -0.07L192.74 1.67ZM187.48 -0.07L186.22 -5.79L180.96 -7.53L176.96 -3.55L178.22 2.17L183.48 3.91ZM203.26 5.15L202.01 -0.57L196.74 -2.31L192.74 1.67L194.00 7.39L199.26 9.13ZM194.00 7.39L192.74 1.67L187.48 -0.07L183.48 3.91L184.74 9.63L190.00 11.37ZM162.44 -3.03L161.18 -8.75L155.92 -10.49L151.93 -6.50L153.19 -0.78L158.45 0.95ZM178.22 2.17L176.96 -3.55L171.70 -5.28L167.70 -1.30L168.96 4.42L174.22 6.15ZM168.96 4.42L167.70 -1.30L162.44 -3.03L158.45 0.95L159.71 6.67L164.97 8.40ZM187.86 90.11L186.60 84.40L181.35 82.66L177.36 86.63L178.62 92.33L183.87 94.07ZM178.62 92.33L177.36 86.63L172.12 84.89L168.13 88.86L169.39 94.56L174.63 96.30ZM190.59 80.43L189.33 74.72L184.09 72.98L180.09 76.95L181.35 82.66L186.60 84.40ZM181.35 82.66L180.09 76.95L174.85 75.21L170.86 79.18L172.12 84.89L177.36 86.63ZM194.36 97.56L193.10 91.85L187.86 90.11L183.87 94.07L185.12 99.78L190.37 101.52ZM185.12 99.78L183.87 94.07L178.62 92.33L174.63 96.30L175.89 102.00L181.14 103.74ZM197.10 87.88L195.84 82.17L190.59 80.43L186.60 84.40L187.86 90.11L193.10 91.85ZM202.57 68.53L201.32 62.82L196.07 61.07L192.07 65.04L193.33 70.75L198.58 72.50ZM193.33 70.75L192.07 65.04L186.82 63.30L182.83 67.27L184.09 72.98L189.33 74.72ZM205.32 58.84L204.06 53.13L198.81 51.39L194.81 55.36L196.07 61.07L201.32 62.82ZM196.07 61.07L194.81 55.36L189.56 53.62L185.56 57.59L186.82 63.30L192.07 65.04ZM209.08 75.98L207.83 70.27L202.57 68.53L198.58 72.50L199.83 78.21L205.08 79.95ZM199.83 78.21L198.58 72.50L193.33 70.75L189.33 74.72L190.59 80.43L195.84 82.17ZM198.12 114.67L196.87 108.97L191.63 107.23L187.64 111.19L188.89 116.89L194.14 118.63ZM188.89 116.89L187.64 111.19L182.39 109.45L178.41 113.41L179.66 119.11L184.91 120.85ZM191.63 107.23L190.37 101.52L185.12 99.78L181.14 103.74L182.39 109.45L187.64 111.19ZM207.04 22.31L205.78 16.59L200.52 14.85L196.52 18.83L197.78 24.55L203.03 26.29ZM197.78 24.55L196.52 18.83L191.26 17.09L187.26 21.07L188.52 26.78L193.78 28.52ZM209.78 12.61L208.53 6.89L203.26 5.15L199.26 9.13L200.52 14.85L205.78 16.59ZM200.52 14.85L199.26 9.13L194.00 7.39L190.00 11.37L191.26 17.09L196.52 18.83ZM213.55 29.78L212.30 24.06L207.04 22.31L203.03 26.29L204.29 32.01L209.55 33.75ZM204.29 32.01L203.03 26.29L197.78 24.55L193.78 28.52L195.03 34.24L200.29 35.98ZM216.30 20.08L215.04 14.36L209.78 12.61L205.78 16.59L207.04 22.31L212.30 24.06ZM221.80 0.68L220.55 -5.05L215.28 -6.79L211.27 -2.81L212.53 2.91L217.79 4.66ZM212.53 2.91L211.27 -2.81L206.01 -4.55L202.01 -0.57L203.26 5.15L208.53 6.89ZM219.05 10.38L217.79 4.66L212.53 2.91L208.53 6.89L209.78 12.61L215.04 14.36ZM208.06 49.16L206.80 43.44L201.55 41.70L197.55 45.67L198.81 51.39L204.06 53.13ZM210.80 39.47L209.55 33.75L204.29 32.01L200.29 35.98L201.55 41.70L206.80 43.44ZM0.87 207.50L-0.40 201.83L-5.61 200.12L-9.54 204.08L-8.27 209.75L-3.06 211.46ZM3.53 197.88L2.26 192.21L-2.96 190.50L-6.89 194.46L-5.61 200.12L-0.40 201.83ZM7.36 214.88L6.08 209.21L0.87 207.50L-3.06 211.46L-1.78 217.12L3.43 218.83ZM10.02 205.26L8.74 199.59L3.53 197.88L-0.40 201.83L0.87 207.50L6.08 209.21ZM21.83 193.39L20.56 187.72L15.34 186.01L11.40 189.96L12.68 195.63L17.89 197.35ZM24.50 183.76L23.22 178.09L18.01 176.38L14.07 180.33L15.34 186.01L20.56 187.72ZM11.18 231.88L9.91 226.21L4.70 224.50L0.77 228.45L2.05 234.11L7.25 235.83ZM2.05 234.11L0.77 228.45L-4.44 226.74L-8.36 230.69L-7.09 236.35L-1.88 238.06ZM13.84 222.26L12.57 216.59L7.36 214.88L3.43 218.83L4.70 224.50L9.91 226.21ZM4.70 224.50L3.43 218.83L-1.78 217.12L-5.71 221.07L-4.44 226.74L0.77 228.45ZM17.66 239.26L16.39 233.59L11.18 231.88L7.25 235.83L8.53 241.49L13.73 243.20ZM8.53 241.49L7.25 235.83L2.05 234.11L-1.88 238.06L-0.61 243.72L4.60 245.44ZM20.33 229.64L19.05 223.98L13.84 222.26L9.91 226.21L11.18 231.88L16.39 233.59ZM25.65 210.40L24.38 204.73L19.17 203.02L15.23 206.97L16.50 212.64L21.72 214.36ZM16.50 212.64L15.23 206.97L10.02 205.26L6.08 209.21L7.36 214.88L12.57 216.59ZM28.32 200.78L27.05 195.11L21.83 193.39L17.89 197.35L19.17 203.02L24.38 204.73ZM19.17 203.02L17.89 197.35L12.68 195.63L8.74 199.59L10.02 205.26L15.23 206.97ZM32.14 217.79L30.87 212.12L25.65 210.40L21.72 214.36L22.99 220.02L28.20 221.74ZM22.99 220.02L21.72 214.36L16.50 212.64L12.57 216.59L13.84 222.26L19.05 223.98ZM34.81 208.17L33.53 202.50L28.32 200.78L24.38 204.73L25.65 210.40L30.87 212.12ZM36.33 171.89L35.06 166.21L29.84 164.49L25.89 168.46L27.17 174.13L32.38 175.85ZM53.53 140.72L52.26 135.04L47.03 133.32L43.08 137.28L44.35 142.96L49.58 144.68ZM46.24 259.17L44.97 253.51L39.76 251.79L35.83 255.73L37.10 261.40L42.30 263.12ZM37.10 261.40L35.83 255.73L30.62 254.02L26.69 257.96L27.96 263.62L33.16 265.34ZM48.91 249.56L47.64 243.90L42.43 242.18L38.49 246.12L39.76 251.79L44.97 253.51ZM39.76 251.79L38.49 246.12L33.29 244.41L29.35 248.35L30.62 254.02L35.83 255.73ZM55.39 256.95L54.12 251.29L48.91 249.56L44.97 253.51L46.24 259.17L51.45 260.90ZM21.48 256.24L20.21 250.58L15.00 248.87L11.07 252.81L12.35 258.47L17.55 260.19ZM12.35 258.47L11.07 252.81L5.87 251.10L1.94 255.04L3.22 260.70L8.42 262.42ZM24.14 246.63L22.87 240.97L17.66 239.26L13.73 243.20L15.00 248.87L20.21 250.58ZM15.00 248.87L13.73 243.20L8.53 241.49L4.60 245.44L5.87 251.10L11.07 252.81ZM30.62 254.02L29.35 248.35L24.14 246.63L20.21 250.58L21.48 256.24L26.69 257.96ZM60.73 237.73L59.47 232.06L54.25 230.34L50.31 234.28L51.58 239.95L56.79 241.67ZM51.58 239.95L50.31 234.28L45.10 232.56L41.16 236.51L42.43 242.18L47.64 243.90ZM63.41 228.11L62.14 222.44L56.93 220.72L52.99 224.67L54.25 230.34L59.47 232.06ZM54.25 230.34L52.99 224.67L47.77 222.95L43.83 226.90L45.10 232.56L50.31 234.28ZM67.21 245.12L65.95 239.45L60.73 237.73L56.79 241.67L58.06 247.34L63.27 249.07ZM58.06 247.34L56.79 241.67L51.58 239.95L47.64 243.90L48.91 249.56L54.12 251.29ZM69.89 235.51L68.62 229.83L63.41 228.11L59.47 232.06L60.73 237.73L65.95 239.45ZM35.95 234.79L34.68 229.13L29.47 227.41L25.53 231.36L26.81 237.02L32.01 238.74ZM26.81 237.02L25.53 231.36L20.33 229.64L16.39 233.59L17.66 239.26L22.87 240.97ZM38.62 225.18L37.35 219.51L32.14 217.79L28.20 221.74L29.47 227.41L34.68 229.13ZM29.47 227.41L28.20 221.74L22.99 220.02L19.05 223.98L20.33 229.64L25.53 231.36ZM42.43 242.18L41.16 236.51L35.95 234.79L32.01 238.74L33.29 244.41L38.49 246.12ZM33.29 244.41L32.01 238.74L26.81 237.02L22.87 240.97L24.14 246.63L29.35 248.35ZM45.10 232.56L43.83 226.90L38.62 225.18L34.68 229.13L35.95 234.79L41.16 236.51ZM71.01 262.12L69.74 256.46L64.53 254.73L60.59 258.68L61.86 264.34L67.07 266.06ZM73.69 252.51L72.42 246.85L67.21 245.12L63.27 249.07L64.53 254.73L69.74 256.46ZM64.53 254.73L63.27 249.07L58.06 247.34L54.12 251.29L55.39 256.95L60.59 258.68ZM80.16 259.91L78.90 254.24L73.69 252.51L69.74 256.46L71.01 262.12L76.22 263.85ZM3.22 260.70L1.94 255.04L-3.26 253.33L-7.19 257.28L-5.91 262.94L-0.71 264.65ZM5.87 251.10L4.60 245.44L-0.61 243.72L-4.54 247.67L-3.26 253.33L1.94 255.04ZM64.96 191.84L63.70 186.16L58.48 184.44L54.53 188.40L55.80 194.07L61.02 195.79ZM55.80 194.07L54.53 188.40L49.31 186.68L45.36 190.63L46.63 196.31L51.85 198.03ZM67.65 182.21L66.38 176.53L61.16 174.81L57.21 178.76L58.48 184.44L63.70 186.16ZM58.48 184.44L57.21 178.76L51.99 177.04L48.04 181.00L49.31 186.68L54.53 188.40ZM71.45 199.24L70.18 193.56L64.96 191.84L61.02 195.79L62.28 201.47L67.50 203.19ZM62.28 201.47L61.02 195.79L55.80 194.07L51.85 198.03L53.12 203.70L58.34 205.42ZM74.14 189.61L72.87 183.93L67.65 182.21L63.70 186.16L64.96 191.84L70.18 193.56ZM40.15 188.91L38.87 183.24L33.66 181.52L29.71 185.48L30.99 191.15L36.20 192.87ZM30.99 191.15L29.71 185.48L24.50 183.76L20.56 187.72L21.83 193.39L27.05 195.11ZM42.82 179.28L41.55 173.61L36.33 171.89L32.38 175.85L33.66 181.52L38.87 183.24ZM33.66 181.52L32.38 175.85L27.17 174.13L23.22 178.09L24.50 183.76L29.71 185.48ZM46.63 196.31L45.36 190.63L40.15 188.91L36.20 192.87L37.48 198.54L42.69 200.26ZM37.48 198.54L36.20 192.87L30.99 191.15L27.05 195.11L28.32 200.78L33.53 202.50ZM49.31 186.68L48.04 181.00L42.82 179.28L38.87 183.24L40.15 188.91L45.36 190.63ZM79.51 170.34L78.24 164.65L73.02 162.93L69.06 166.89L70.33 172.57L75.55 174.29ZM70.33 172.57L69.06 166.89L63.84 165.17L59.89 169.13L61.16 174.81L66.38 176.53ZM82.20 160.70L80.93 155.01L75.70 153.29L71.75 157.25L73.02 162.93L78.24 164.65ZM73.02 162.93L71.75 157.25L66.52 155.53L62.57 159.49L63.84 165.17L69.06 166.89ZM86.00 177.74L84.73 172.06L79.51 170.34L75.55 174.29L76.82 179.97L82.04 181.70ZM76.82 179.97L75.55 174.29L70.33 172.57L66.38 176.53L67.65 182.21L72.87 183.93ZM88.69 168.10L87.42 162.42L82.20 160.70L78.24 164.65L79.51 170.34L84.73 172.06ZM54.67 167.41L53.39 161.73L48.17 160.01L44.22 163.97L45.50 169.65L50.72 171.36ZM45.50 169.65L44.22 163.97L39.00 162.25L35.06 166.21L36.33 171.89L41.55 173.61ZM57.35 157.77L56.07 152.08L50.85 150.36L46.90 154.33L48.17 160.01L53.39 161.73ZM48.17 160.01L46.90 154.33L41.68 152.61L37.73 156.57L39.00 162.25L44.22 163.97ZM61.16 174.81L59.89 169.13L54.67 167.41L50.72 171.36L51.99 177.04L57.21 178.76ZM51.99 177.04L50.72 171.36L45.50 169.65L41.55 173.61L42.82 179.28L48.04 181.00ZM63.84 165.17L62.57 159.49L57.35 157.77L53.39 161.73L54.67 167.41L59.89 169.13ZM75.25 216.26L73.99 210.59L68.77 208.87L64.82 212.82L66.09 218.49L71.30 220.21ZM66.09 218.49L64.82 212.82L59.61 211.09L55.66 215.05L56.93 220.72L62.14 222.44ZM77.94 206.64L76.67 200.96L71.45 199.24L67.50 203.19L68.77 208.87L73.99 210.59ZM68.77 208.87L67.50 203.19L62.28 201.47L58.34 205.42L59.61 211.09L64.82 212.82ZM81.73 223.66L80.47 217.99L75.25 216.26L71.30 220.21L72.57 225.89L77.79 227.61ZM72.57 225.89L71.30 220.21L66.09 218.49L62.14 222.44L63.41 228.11L68.62 229.83ZM84.42 214.04L83.15 208.37L77.94 206.64L73.99 210.59L75.25 216.26L80.47 217.99ZM50.45 213.32L49.18 207.65L43.96 205.93L40.02 209.89L41.29 215.56L46.50 217.28ZM41.29 215.56L40.02 209.89L34.81 208.17L30.87 212.12L32.14 217.79L37.35 219.51ZM53.12 203.70L51.85 198.03L46.63 196.31L42.69 200.26L43.96 205.93L49.18 207.65ZM43.96 205.93L42.69 200.26L37.48 198.54L33.53 202.50L34.81 208.17L40.02 209.89ZM56.93 220.72L55.66 215.05L50.45 213.32L46.50 217.28L47.77 222.95L52.99 224.67ZM47.77 222.95L46.50 217.28L41.29 215.56L37.35 219.51L38.62 225.18L43.83 226.90ZM59.61 211.09L58.34 205.42L53.12 203.70L49.18 207.65L50.45 213.32L55.66 215.05ZM89.80 194.78L88.53 189.10L83.31 187.38L79.36 191.33L80.62 197.01L85.84 198.74ZM80.62 197.01L79.36 191.33L74.14 189.61L70.18 193.56L71.45 199.24L76.67 200.96ZM92.49 185.15L91.22 179.47L86.00 177.74L82.04 181.70L83.31 187.38L88.53 189.10ZM83.31 187.38L82.04 181.70L76.82 179.97L72.87 183.93L74.14 189.61L79.36 191.33ZM96.28 202.19L95.02 196.51L89.80 194.78L85.84 198.74L87.11 204.41L92.33 206.14ZM87.11 204.41L85.84 198.74L80.62 197.01L76.67 200.96L77.94 206.64L83.15 208.37ZM98.98 192.56L97.71 186.88L92.49 185.15L88.53 189.10L89.80 194.78L95.02 196.51ZM102.67 56.67L101.40 50.97L96.16 49.24L92.18 53.22L93.46 58.92L98.70 60.65ZM93.46 58.92L92.18 53.22L86.94 51.50L82.97 55.48L84.24 61.18L89.48 62.90ZM105.38 46.99L104.11 41.29L98.86 39.56L94.89 43.54L96.16 49.24L101.40 50.97ZM96.16 49.24L94.89 43.54L89.64 41.82L85.67 45.80L86.94 51.50L92.18 53.22ZM109.18 64.10L107.91 58.40L102.67 56.67L98.70 60.65L99.97 66.35L105.21 68.07ZM99.97 66.35L98.70 60.65L93.46 58.92L89.48 62.90L90.75 68.60L95.99 70.32ZM111.89 54.42L110.62 48.72L105.38 46.99L101.40 50.97L102.67 56.67L107.91 58.40ZM77.73 53.75L76.46 48.05L71.22 46.33L67.25 50.31L68.52 56.01L73.76 57.73ZM84.24 61.18L82.97 55.48L77.73 53.75L73.76 57.73L75.03 63.43L80.27 65.15ZM86.94 51.50L85.67 45.80L80.43 44.07L76.46 48.05L77.73 53.75L82.97 55.48ZM117.31 35.05L116.04 29.35L110.80 27.62L106.82 31.60L108.09 37.31L113.33 39.03ZM108.09 37.31L106.82 31.60L101.57 29.87L97.59 33.86L98.86 39.56L104.11 41.29ZM120.03 25.36L118.76 19.65L113.51 17.93L109.53 21.91L110.80 27.62L116.04 29.35ZM110.80 27.62L109.53 21.91L104.28 20.19L100.30 24.17L101.57 29.87L106.82 31.60ZM123.83 42.49L122.56 36.78L117.31 35.05L113.33 39.03L114.60 44.74L119.85 46.47ZM114.60 44.74L113.33 39.03L108.09 37.31L104.11 41.29L105.38 46.99L110.62 48.72ZM126.54 32.80L125.28 27.09L120.03 25.36L116.04 29.35L117.31 35.05L122.56 36.78ZM92.35 32.13L91.07 26.43L85.83 24.70L81.85 28.69L83.13 34.39L88.37 36.11ZM95.05 22.44L93.78 16.74L88.53 15.01L84.56 19.00L85.83 24.70L91.07 26.43ZM98.86 39.56L97.59 33.86L92.35 32.13L88.37 36.11L89.64 41.82L94.89 43.54ZM89.64 41.82L88.37 36.11L83.13 34.39L79.16 38.37L80.43 44.07L85.67 45.80ZM101.57 29.87L100.30 24.17L95.05 22.44L91.07 26.43L92.35 32.13L97.59 33.86ZM112.98 81.20L111.72 75.50L106.48 73.77L102.50 77.75L103.77 83.44L109.01 85.17ZM103.77 83.44L102.50 77.75L97.26 76.02L93.29 79.99L94.56 85.69L99.80 87.42ZM115.69 71.53L114.43 65.83L109.18 64.10L105.21 68.07L106.48 73.77L111.72 75.50ZM106.48 73.77L105.21 68.07L99.97 66.35L95.99 70.32L97.26 76.02L102.50 77.75ZM119.49 88.63L118.23 82.93L112.98 81.20L109.01 85.17L110.28 90.87L115.52 92.60ZM110.28 90.87L109.01 85.17L103.77 83.44L99.80 87.42L101.07 93.11L106.31 94.84ZM122.20 78.96L120.94 73.26L115.69 71.53L111.72 75.50L112.98 81.20L118.23 82.93ZM88.05 78.27L86.78 72.57L81.55 70.85L77.58 74.82L78.85 80.52L84.09 82.24ZM78.85 80.52L77.58 74.82L72.34 73.10L68.38 77.08L69.65 82.77L74.88 84.49ZM90.75 68.60L89.48 62.90L84.24 61.18L80.27 65.15L81.55 70.85L86.78 72.57ZM81.55 70.85L80.27 65.15L75.03 63.43L71.07 67.41L72.34 73.10L77.58 74.82ZM94.56 85.69L93.29 79.99L88.05 78.27L84.09 82.24L85.36 87.94L90.59 89.66ZM85.36 87.94L84.09 82.24L78.85 80.52L74.88 84.49L76.16 90.19L81.39 91.91ZM97.26 76.02L95.99 70.32L90.75 68.60L86.78 72.57L88.05 78.27L93.29 79.99ZM127.63 59.61L126.36 53.90L121.11 52.17L117.14 56.15L118.40 61.85L123.65 63.58ZM118.40 61.85L117.14 56.15L111.89 54.42L107.91 58.40L109.18 64.10L114.43 65.83ZM130.34 49.92L129.08 44.22L123.83 42.49L119.85 46.47L121.11 52.17L126.36 53.90ZM121.11 52.17L119.85 46.47L114.60 44.74L110.62 48.72L111.89 54.42L117.14 56.15ZM134.14 67.04L132.87 61.34L127.63 59.61L123.65 63.58L124.91 69.28L130.16 71.01ZM124.91 69.28L123.65 63.58L118.40 61.85L114.43 65.83L115.69 71.53L120.94 73.26ZM136.85 57.36L135.59 51.65L130.34 49.92L126.36 53.90L127.63 59.61L132.87 61.34ZM128.18 -3.72L126.91 -9.44L121.65 -11.16L117.67 -7.18L118.94 -1.46L124.19 0.26ZM118.94 -1.46L117.67 -7.18L112.41 -8.90L108.43 -4.92L109.70 0.80L114.95 2.52ZM131.98 13.42L130.71 7.71L125.46 5.98L121.47 9.96L122.74 15.67L127.99 17.40ZM122.74 15.67L121.47 9.96L116.22 8.23L112.24 12.22L113.51 17.93L118.76 19.65ZM134.70 3.72L133.43 -1.99L128.18 -3.72L124.19 0.26L125.46 5.98L130.71 7.71ZM125.46 5.98L124.19 0.26L118.94 -1.46L114.95 2.52L116.22 8.23L121.47 9.96ZM138.50 20.86L137.23 15.15L131.98 13.42L127.99 17.40L129.26 23.11L134.51 24.84ZM129.26 23.11L127.99 17.40L122.74 15.67L118.76 19.65L120.03 25.36L125.28 27.09ZM141.22 11.17L139.95 5.45L134.70 3.72L130.71 7.71L131.98 13.42L137.23 15.15ZM106.99 10.49L105.72 4.78L100.46 3.06L96.49 7.04L97.76 12.75L103.01 14.48ZM97.76 12.75L96.49 7.04L91.24 5.32L87.26 9.31L88.53 15.01L93.78 16.74ZM109.70 0.80L108.43 -4.92L103.17 -6.64L99.19 -2.65L100.46 3.06L105.72 4.78ZM100.46 3.06L99.19 -2.65L93.94 -4.38L89.96 -0.39L91.24 5.32L96.49 7.04ZM113.51 17.93L112.24 12.22L106.99 10.49L103.01 14.48L104.28 20.19L109.53 21.91ZM104.28 20.19L103.01 14.48L97.76 12.75L93.78 16.74L95.05 22.44L100.30 24.17ZM116.22 8.23L114.95 2.52L109.70 0.80L105.72 4.78L106.99 10.49L112.24 12.22ZM153.19 -0.78L151.93 -6.50L146.67 -8.23L142.68 -4.25L143.94 1.47L149.20 3.20ZM143.94 1.47L142.68 -4.25L137.42 -5.98L133.43 -1.99L134.70 3.72L139.95 5.45ZM91.24 5.32L89.96 -0.39L84.71 -2.11L80.74 1.88L82.01 7.59L87.26 9.31ZM148.22 108.69L146.96 102.99L141.72 101.25L137.74 105.22L139.00 110.92L144.24 112.65ZM139.00 110.92L137.74 105.22L132.50 103.49L128.52 107.45L129.79 113.15L135.03 114.88ZM150.94 99.02L149.68 93.32L144.43 91.59L140.45 95.55L141.72 101.25L146.96 102.99ZM141.72 101.25L140.45 95.55L135.21 93.82L131.24 97.79L132.50 103.49L137.74 105.22ZM154.72 116.12L153.46 110.42L148.22 108.69L144.24 112.65L145.50 118.35L150.74 120.08ZM145.50 118.35L144.24 112.65L139.00 110.92L135.03 114.88L136.29 120.58L141.52 122.31ZM157.44 106.46L156.18 100.76L150.94 99.02L146.96 102.99L148.22 108.69L153.46 110.42ZM123.29 105.72L122.02 100.03L116.78 98.30L112.81 102.26L114.08 107.96L119.31 109.69ZM114.08 107.96L112.81 102.26L107.57 100.54L103.60 104.50L104.87 110.20L110.11 111.93ZM126.00 96.06L124.73 90.36L119.49 88.63L115.52 92.60L116.78 98.30L122.02 100.03ZM116.78 98.30L115.52 92.60L110.28 90.87L106.31 94.84L107.57 100.54L112.81 102.26ZM129.79 113.15L128.52 107.45L123.29 105.72L119.31 109.69L120.58 115.38L125.81 117.12ZM120.58 115.38L119.31 109.69L114.08 107.96L110.11 111.93L111.37 117.62L116.61 119.35ZM132.50 103.49L131.24 97.79L126.00 96.06L122.02 100.03L123.29 105.72L128.52 107.45ZM162.89 87.12L161.63 81.41L156.38 79.68L152.40 83.65L153.66 89.35L158.90 91.09ZM153.66 89.35L152.40 83.65L147.15 81.91L143.17 85.88L144.43 91.59L149.68 93.32ZM165.61 77.44L164.35 71.74L159.10 70.00L155.12 73.97L156.38 79.68L161.63 81.41ZM156.38 79.68L155.12 73.97L149.87 72.24L145.89 76.21L147.15 81.91L152.40 83.65ZM169.39 94.56L168.13 88.86L162.89 87.12L158.90 91.09L160.16 96.79L165.40 98.53ZM160.16 96.79L158.90 91.09L153.66 89.35L149.68 93.32L150.94 99.02L156.18 100.76ZM172.12 84.89L170.86 79.18L165.61 77.44L161.63 81.41L162.89 87.12L168.13 88.86ZM137.93 84.15L136.66 78.45L131.42 76.72L127.44 80.69L128.71 86.39L133.95 88.12ZM128.71 86.39L127.44 80.69L122.20 78.96L118.23 82.93L119.49 88.63L124.73 90.36ZM140.64 74.48L139.38 68.77L134.14 67.04L130.16 71.01L131.42 76.72L136.66 78.45ZM131.42 76.72L130.16 71.01L124.91 69.28L120.94 73.26L122.20 78.96L127.44 80.69ZM144.43 91.59L143.17 85.88L137.93 84.15L133.95 88.12L135.21 93.82L140.45 95.55ZM135.21 93.82L133.95 88.12L128.71 86.39L124.73 90.36L126.00 96.06L131.24 97.79ZM147.15 81.91L145.89 76.21L140.64 74.48L136.66 78.45L137.93 84.15L143.17 85.88ZM158.50 133.22L157.24 127.52L152.00 125.78L148.02 129.74L149.28 135.44L154.52 137.18ZM149.28 135.44L148.02 129.74L142.79 128.01L138.81 131.97L140.07 137.66L145.31 139.40ZM161.22 123.56L159.96 117.86L154.72 116.12L150.74 120.08L152.00 125.78L157.24 127.52ZM152.00 125.78L150.74 120.08L145.50 118.35L141.52 122.31L142.79 128.01L148.02 129.74ZM164.99 140.65L163.73 134.95L158.50 133.22L154.52 137.18L155.78 142.87L161.01 144.61ZM155.78 142.87L154.52 137.18L149.28 135.44L145.31 139.40L146.57 145.09L151.80 146.83ZM167.71 130.99L166.46 125.30L161.22 123.56L157.24 127.52L158.50 133.22L163.73 134.95ZM133.58 130.24L132.31 124.54L127.08 122.81L123.11 126.77L124.37 132.47L129.60 134.20ZM124.37 132.47L123.11 126.77L117.87 125.04L113.90 129.01L115.17 134.70L120.40 136.43ZM136.29 120.58L135.03 114.88L129.79 113.15L125.81 117.12L127.08 122.81L132.31 124.54ZM127.08 122.81L125.81 117.12L120.58 115.38L116.61 119.35L117.87 125.04L123.11 126.77ZM140.07 137.66L138.81 131.97L133.58 130.24L129.60 134.20L130.87 139.89L136.10 141.62ZM130.87 139.89L129.60 134.20L124.37 132.47L120.40 136.43L121.66 142.12L126.90 143.85ZM142.79 128.01L141.52 122.31L136.29 120.58L132.31 124.54L133.58 130.24L138.81 131.97ZM173.16 111.67L171.91 105.97L166.66 104.23L162.68 108.19L163.94 113.90L169.18 115.63ZM163.94 113.90L162.68 108.19L157.44 106.46L153.46 110.42L154.72 116.12L159.96 117.86ZM175.89 102.00L174.63 96.30L169.39 94.56L165.40 98.53L166.66 104.23L171.91 105.97ZM166.66 104.23L165.40 98.53L160.16 96.79L156.18 100.76L157.44 106.46L162.68 108.19ZM179.66 119.11L178.41 113.41L173.16 111.67L169.18 115.63L170.44 121.33L175.68 123.07ZM170.44 121.33L169.18 115.63L163.94 113.90L159.96 117.86L161.22 123.56L166.46 125.30ZM182.39 109.45L181.14 103.74L175.89 102.00L171.91 105.97L173.16 111.67L178.41 113.41ZM83.78 124.34L82.51 118.65L77.27 116.93L73.31 120.89L74.58 126.58L79.81 128.30ZM74.58 126.58L73.31 120.89L68.08 119.17L64.13 123.14L65.40 128.82L70.63 130.55ZM86.47 114.68L85.20 108.99L79.97 107.27L76.00 111.23L77.27 116.93L82.51 118.65ZM77.27 116.93L76.00 111.23L70.77 109.51L66.81 113.48L68.08 119.17L73.31 120.89ZM90.27 131.75L89.01 126.06L83.78 124.34L79.81 128.30L81.08 133.99L86.31 135.72ZM81.08 133.99L79.81 128.30L74.58 126.58L70.63 130.55L71.90 136.23L77.12 137.95ZM92.97 122.10L91.70 116.41L86.47 114.68L82.51 118.65L83.78 124.34L89.01 126.06ZM65.40 128.82L64.13 123.14L58.90 121.42L54.94 125.38L56.21 131.07L61.44 132.79ZM56.21 131.07L54.94 125.38L49.71 123.67L45.76 127.63L47.03 133.32L52.26 135.04ZM68.08 119.17L66.81 113.48L61.58 111.76L57.62 115.73L58.90 121.42L64.13 123.14ZM98.37 102.78L97.10 97.08L91.86 95.36L87.90 99.33L89.17 105.02L94.40 106.75ZM89.17 105.02L87.90 99.33L82.66 97.60L78.70 101.57L79.97 107.27L85.20 108.99ZM101.07 93.11L99.80 87.42L94.56 85.69L90.59 89.66L91.86 95.36L97.10 97.08ZM91.86 95.36L90.59 89.66L85.36 87.94L81.39 91.91L82.66 97.60L87.90 99.33ZM104.87 110.20L103.60 104.50L98.37 102.78L94.40 106.75L95.67 112.44L100.90 114.17ZM95.67 112.44L94.40 106.75L89.17 105.02L85.20 108.99L86.47 114.68L91.70 116.41ZM107.57 100.54L106.31 94.84L101.07 93.11L97.10 97.08L98.37 102.78L103.60 104.50ZM73.46 99.85L72.19 94.16L66.96 92.44L63.00 96.41L64.27 102.10L69.50 103.82ZM79.97 107.27L78.70 101.57L73.46 99.85L69.50 103.82L70.77 109.51L76.00 111.23ZM70.77 109.51L69.50 103.82L64.27 102.10L60.31 106.07L61.58 111.76L66.81 113.48ZM82.66 97.60L81.39 91.91L76.16 90.19L72.19 94.16L73.46 99.85L78.70 101.57ZM94.08 148.82L92.81 143.13L87.58 141.40L83.62 145.37L84.89 151.05L90.12 152.78ZM84.89 151.05L83.62 145.37L78.39 143.64L74.43 147.60L75.70 153.29L80.93 155.01ZM96.77 139.17L95.51 133.48L90.27 131.75L86.31 135.72L87.58 141.40L92.81 143.13ZM87.58 141.40L86.31 135.72L81.08 133.99L77.12 137.95L78.39 143.64L83.62 145.37ZM100.57 156.23L99.30 150.54L94.08 148.82L90.12 152.78L91.38 158.46L96.61 160.19ZM91.38 158.46L90.12 152.78L84.89 151.05L80.93 155.01L82.20 160.70L87.42 162.42ZM103.27 146.58L102.00 140.89L96.77 139.17L92.81 143.13L94.08 148.82L99.30 150.54ZM69.21 145.88L67.94 140.20L62.71 138.47L58.76 142.44L60.03 148.12L65.25 149.84ZM60.03 148.12L58.76 142.44L53.53 140.72L49.58 144.68L50.85 150.36L56.07 152.08ZM71.90 136.23L70.63 130.55L65.40 128.82L61.44 132.79L62.71 138.47L67.94 140.20ZM62.71 138.47L61.44 132.79L56.21 131.07L52.26 135.04L53.53 140.72L58.76 142.44ZM75.70 153.29L74.43 147.60L69.21 145.88L65.25 149.84L66.52 155.53L71.75 157.25ZM66.52 155.53L65.25 149.84L60.03 148.12L56.07 152.08L57.35 157.77L62.57 159.49ZM78.39 143.64L77.12 137.95L71.90 136.23L67.94 140.20L69.21 145.88L74.43 147.60ZM108.67 127.28L107.40 121.59L102.17 119.86L98.20 123.82L99.47 129.51L104.70 131.24ZM99.47 129.51L98.20 123.82L92.97 122.10L89.01 126.06L90.27 131.75L95.51 133.48ZM111.37 117.62L110.11 111.93L104.87 110.20L100.90 114.17L102.17 119.86L107.40 121.59ZM102.17 119.86L100.90 114.17L95.67 112.44L91.70 116.41L92.97 122.10L98.20 123.82ZM115.17 134.70L113.90 129.01L108.67 127.28L104.70 131.24L105.97 136.93L111.20 138.66ZM105.97 136.93L104.70 131.24L99.47 129.51L95.51 133.48L96.77 139.17L102.00 140.89ZM117.87 125.04L116.61 119.35L111.37 117.62L107.40 121.59L108.67 127.28L113.90 129.01ZM167.29 40.95L166.02 35.24L160.77 33.50L156.78 37.48L158.04 43.19L163.30 44.93ZM158.04 43.19L156.78 37.48L151.53 35.75L147.54 39.73L148.81 45.44L154.06 47.17ZM170.02 31.26L168.76 25.55L163.50 23.81L159.51 27.79L160.77 33.50L166.02 35.24ZM160.77 33.50L159.51 27.79L154.26 26.06L150.27 30.04L151.53 35.75L156.78 37.48ZM173.80 48.40L172.54 42.69L167.29 40.95L163.30 44.93L164.56 50.64L169.81 52.38ZM164.56 50.64L163.30 44.93L158.04 43.19L154.06 47.17L155.32 52.88L160.57 54.61ZM176.53 38.71L175.27 33.00L170.02 31.26L166.02 35.24L167.29 40.95L172.54 42.69ZM142.29 37.99L141.03 32.28L135.78 30.55L131.79 34.53L133.06 40.24L138.31 41.97ZM133.06 40.24L131.79 34.53L126.54 32.80L122.56 36.78L123.83 42.49L129.08 44.22ZM145.01 28.30L143.75 22.59L138.50 20.86L134.51 24.84L135.78 30.55L141.03 32.28ZM135.78 30.55L134.51 24.84L129.26 23.11L125.28 27.09L126.54 32.80L131.79 34.53ZM148.81 45.44L147.54 39.73L142.29 37.99L138.31 41.97L139.57 47.68L144.82 49.41ZM139.57 47.68L138.31 41.97L133.06 40.24L129.08 44.22L130.34 49.92L135.59 51.65ZM151.53 35.75L150.27 30.04L145.01 28.30L141.03 32.28L142.29 37.99L147.54 39.73ZM182.00 19.33L180.74 13.61L175.48 11.87L171.49 15.85L172.75 21.57L178.01 23.31ZM172.75 21.57L171.49 15.85L166.23 14.12L162.24 18.10L163.50 23.81L168.76 25.55ZM184.74 9.63L183.48 3.91L178.22 2.17L174.22 6.15L175.48 11.87L180.74 13.61ZM175.48 11.87L174.22 6.15L168.96 4.42L164.97 8.40L166.23 14.12L171.49 15.85ZM188.52 26.78L187.26 21.07L182.00 19.33L178.01 23.31L179.27 29.02L184.52 30.76ZM179.27 29.02L178.01 23.31L172.75 21.57L168.76 25.55L170.02 31.26L175.27 33.00ZM191.26 17.09L190.00 11.37L184.74 9.63L180.74 13.61L182.00 19.33L187.26 21.07ZM156.98 16.36L155.72 10.65L150.46 8.92L146.47 12.90L147.74 18.61L152.99 20.34ZM147.74 18.61L146.47 12.90L141.22 11.17L137.23 15.15L138.50 20.86L143.75 22.59ZM159.71 6.67L158.45 0.95L153.19 -0.78L149.20 3.20L150.46 8.92L155.72 10.65ZM150.46 8.92L149.20 3.20L143.94 1.47L139.95 5.45L141.22 11.17L146.47 12.90ZM163.50 23.81L162.24 18.10L156.98 16.36L152.99 20.34L154.26 26.06L159.51 27.79ZM154.26 26.06L152.99 20.34L147.74 18.61L143.75 22.59L145.01 28.30L150.27 30.04ZM166.23 14.12L164.97 8.40L159.71 6.67L155.72 10.65L156.98 16.36L162.24 18.10ZM177.58 65.53L176.32 59.82L171.07 58.09L167.08 62.06L168.34 67.77L173.59 69.50ZM168.34 67.77L167.08 62.06L161.83 60.32L157.84 64.29L159.10 70.00L164.35 71.74ZM180.31 55.85L179.05 50.14L173.80 48.40L169.81 52.38L171.07 58.09L176.32 59.82ZM171.07 58.09L169.81 52.38L164.56 50.64L160.57 54.61L161.83 60.32L167.08 62.06ZM184.09 72.98L182.83 67.27L177.58 65.53L173.59 69.50L174.85 75.21L180.09 76.95ZM174.85 75.21L173.59 69.50L168.34 67.77L164.35 71.74L165.61 77.44L170.86 79.18ZM186.82 63.30L185.56 57.59L180.31 55.85L176.32 59.82L177.58 65.53L182.83 67.27ZM152.59 62.56L151.33 56.85L146.08 55.12L142.10 59.09L143.36 64.80L148.61 66.53ZM143.36 64.80L142.10 59.09L136.85 57.36L132.87 61.34L134.14 67.04L139.38 68.77ZM155.32 52.88L154.06 47.17L148.81 45.44L144.82 49.41L146.08 55.12L151.33 56.85ZM146.08 55.12L144.82 49.41L139.57 47.68L135.59 51.65L136.85 57.36L142.10 59.09ZM159.10 70.00L157.84 64.29L152.59 62.56L148.61 66.53L149.87 72.24L155.12 73.97ZM149.87 72.24L148.61 66.53L143.36 64.80L139.38 68.77L140.64 74.48L145.89 76.21ZM161.83 60.32L160.57 54.61L155.32 52.88L151.33 56.85L152.59 62.56L157.84 64.29ZM192.29 43.93L191.04 38.22L185.78 36.48L181.79 40.45L183.04 46.17L188.30 47.91ZM183.04 46.17L181.79 40.45L176.53 38.71L172.54 42.69L173.80 48.40L179.05 50.14ZM195.03 34.24L193.78 28.52L188.52 26.78L184.52 30.76L185.78 36.48L191.04 38.22ZM185.78 36.48L184.52 30.76L179.27 29.02L175.27 33.00L176.53 38.71L181.79 40.45ZM198.81 51.39L197.55 45.67L192.29 43.93L188.30 47.91L189.56 53.62L194.81 55.36ZM189.56 53.62L188.30 47.91L183.04 46.17L179.05 50.14L180.31 55.85L185.56 57.59ZM201.55 41.70L200.29 35.98L195.03 34.24L191.04 38.22L192.29 43.93L197.55 45.67ZM149.76 225.20L148.50 219.52L143.28 217.78L139.31 221.73L140.57 227.41L145.79 229.14ZM140.57 227.41L139.31 221.73L134.09 219.99L130.13 223.94L131.39 229.62L136.61 231.35ZM143.28 217.78L142.02 212.10L136.80 210.36L132.83 214.31L134.09 219.99L139.31 221.73ZM157.89 196.31L156.64 190.62L151.41 188.88L147.44 192.83L148.70 198.52L153.92 200.26ZM110.34 243.66L109.08 237.98L103.86 236.25L99.91 240.20L101.17 245.87L106.39 247.60ZM101.17 245.87L99.91 240.20L94.69 238.47L90.74 242.41L92.01 248.08L97.22 249.81ZM113.03 234.04L111.77 228.36L106.55 226.63L102.60 230.58L103.86 236.25L109.08 237.98ZM103.86 236.25L102.60 230.58L97.38 228.85L93.43 232.79L94.69 238.47L99.91 240.20ZM116.82 251.06L115.56 245.39L110.34 243.66L106.39 247.60L107.65 253.27L112.86 255.00ZM107.65 253.27L106.39 247.60L101.17 245.87L97.22 249.81L98.48 255.48L103.69 257.21ZM119.51 241.45L118.25 235.77L113.03 234.04L109.08 237.98L110.34 243.66L115.56 245.39ZM85.53 240.68L84.27 235.01L79.05 233.28L75.10 237.23L76.37 242.90L81.58 244.63ZM76.37 242.90L75.10 237.23L69.89 235.51L65.95 239.45L67.21 245.12L72.42 246.85ZM88.22 231.06L86.95 225.39L81.73 223.66L77.79 227.61L79.05 233.28L84.27 235.01ZM79.05 233.28L77.79 227.61L72.57 225.89L68.62 229.83L69.89 235.51L75.10 237.23ZM92.01 248.08L90.74 242.41L85.53 240.68L81.58 244.63L82.85 250.30L88.06 252.02ZM82.85 250.30L81.58 244.63L76.37 242.90L72.42 246.85L73.69 252.51L78.90 254.24ZM94.69 238.47L93.43 232.79L88.22 231.06L84.27 235.01L85.53 240.68L90.74 242.41ZM124.91 222.20L123.65 216.52L118.43 214.79L114.47 218.74L115.73 224.42L120.95 226.15ZM115.73 224.42L114.47 218.74L109.25 217.01L105.29 220.95L106.55 226.63L111.77 228.36ZM127.61 212.58L126.35 206.89L121.13 205.16L117.17 209.11L118.43 214.79L123.65 216.52ZM118.43 214.79L117.17 209.11L111.95 207.38L107.99 211.33L109.25 217.01L114.47 218.74ZM131.39 229.62L130.13 223.94L124.91 222.20L120.95 226.15L122.21 231.83L127.43 233.56ZM122.21 231.83L120.95 226.15L115.73 224.42L111.77 228.36L113.03 234.04L118.25 235.77ZM134.09 219.99L132.83 214.31L127.61 212.58L123.65 216.52L124.91 222.20L130.13 223.94ZM100.07 219.22L98.81 213.55L93.59 211.82L89.64 215.77L90.90 221.44L96.12 223.17ZM90.90 221.44L89.64 215.77L84.42 214.04L80.47 217.99L81.73 223.66L86.95 225.39ZM102.77 209.60L101.50 203.92L96.28 202.19L92.33 206.14L93.59 211.82L98.81 213.55ZM93.59 211.82L92.33 206.14L87.11 204.41L83.15 208.37L84.42 214.04L89.64 215.77ZM106.55 226.63L105.29 220.95L100.07 219.22L96.12 223.17L97.38 228.85L102.60 230.58ZM97.38 228.85L96.12 223.17L90.90 221.44L86.95 225.39L88.22 231.06L93.43 232.79ZM109.25 217.01L107.99 211.33L102.77 209.60L98.81 213.55L100.07 219.22L105.29 220.95ZM114.12 260.68L112.86 255.00L107.65 253.27L103.69 257.21L104.96 262.88L110.17 264.61ZM98.48 255.48L97.22 249.81L92.01 248.08L88.06 252.02L89.32 257.69L94.53 259.42ZM89.32 257.69L88.06 252.02L82.85 250.30L78.90 254.24L80.16 259.91L85.37 261.64ZM104.96 262.88L103.69 257.21L98.48 255.48L94.53 259.42L95.79 265.09L101.01 266.82ZM125.99 248.85L124.73 243.18L119.51 241.45L115.56 245.39L116.82 251.06L122.03 252.80ZM137.87 237.03L136.61 231.35L131.39 229.62L127.43 233.56L128.69 239.24L133.91 240.97ZM128.69 239.24L127.43 233.56L122.21 231.83L118.25 235.77L119.51 241.45L124.73 243.18ZM168.76 157.74L167.51 152.04L162.27 150.30L158.30 154.26L159.55 159.95L164.79 161.69ZM159.55 159.95L158.30 154.26L153.06 152.52L149.09 156.48L150.35 162.17L155.58 163.91ZM171.49 148.09L170.23 142.39L164.99 140.65L161.01 144.61L162.27 150.30L167.51 152.04ZM162.27 150.30L161.01 144.61L155.78 142.87L151.80 146.83L153.06 152.52L158.30 154.26ZM166.04 167.38L164.79 161.69L159.55 159.95L155.58 163.91L156.84 169.60L162.07 171.34ZM183.43 136.21L182.18 130.51L176.94 128.77L172.95 132.73L174.21 138.43L179.45 140.17ZM174.21 138.43L172.95 132.73L167.71 130.99L163.73 134.95L164.99 140.65L170.23 142.39ZM186.16 126.55L184.91 120.85L179.66 119.11L175.68 123.07L176.94 128.77L182.18 130.51ZM176.94 128.77L175.68 123.07L170.44 121.33L166.46 125.30L167.71 130.99L172.95 132.73ZM180.70 145.87L179.45 140.17L174.21 138.43L170.23 142.39L171.49 148.09L176.72 149.83ZM172.53 174.82L171.28 169.12L166.04 167.38L162.07 171.34L163.33 177.03L168.56 178.77ZM129.24 176.25L127.98 170.57L122.75 168.84L118.78 172.79L120.04 178.48L125.27 180.21ZM120.04 178.48L118.78 172.79L113.55 171.06L109.59 175.02L110.85 180.70L116.08 182.43ZM131.94 166.61L130.68 160.92L125.45 159.19L121.48 163.15L122.75 168.84L127.98 170.57ZM122.75 168.84L121.48 163.15L116.26 161.42L112.29 165.37L113.55 171.06L118.78 172.79ZM135.72 183.68L134.46 177.99L129.24 176.25L125.27 180.21L126.53 185.89L131.76 187.63ZM126.53 185.89L125.27 180.21L120.04 178.48L116.08 182.43L117.34 188.11L122.57 189.85ZM138.43 174.03L137.17 168.35L131.94 166.61L127.98 170.57L129.24 176.25L134.46 177.99ZM104.37 173.29L103.10 167.60L97.87 165.87L93.91 169.83L95.18 175.51L100.40 177.24ZM95.18 175.51L93.91 169.83L88.69 168.10L84.73 172.06L86.00 177.74L91.22 179.47ZM107.06 163.64L105.80 157.96L100.57 156.23L96.61 160.19L97.87 165.87L103.10 167.60ZM97.87 165.87L96.61 160.19L91.38 158.46L87.42 162.42L88.69 168.10L93.91 169.83ZM110.85 180.70L109.59 175.02L104.37 173.29L100.40 177.24L101.67 182.92L106.89 184.65ZM101.67 182.92L100.40 177.24L95.18 175.51L91.22 179.47L92.49 185.15L97.71 186.88ZM113.55 171.06L112.29 165.37L107.06 163.64L103.10 167.60L104.37 173.29L109.59 175.02ZM143.85 154.74L142.59 149.05L137.36 147.32L133.39 151.28L134.65 156.97L139.88 158.70ZM134.65 156.97L133.39 151.28L128.16 149.54L124.19 153.50L125.45 159.19L130.68 160.92ZM146.57 145.09L145.31 139.40L140.07 137.66L136.10 141.62L137.36 147.32L142.59 149.05ZM137.36 147.32L136.10 141.62L130.87 139.89L126.90 143.85L128.16 149.54L133.39 151.28ZM150.35 162.17L149.09 156.48L143.85 154.74L139.88 158.70L141.14 164.39L146.37 166.13ZM141.14 164.39L139.88 158.70L134.65 156.97L130.68 160.92L131.94 166.61L137.17 168.35ZM153.06 152.52L151.80 146.83L146.57 145.09L142.59 149.05L143.85 154.74L149.09 156.48ZM118.96 151.77L117.69 146.08L112.46 144.35L108.50 148.31L109.76 154.00L114.99 155.73ZM109.76 154.00L108.50 148.31L103.27 146.58L99.30 150.54L100.57 156.23L105.80 157.96ZM121.66 142.12L120.40 136.43L115.17 134.70L111.20 138.66L112.46 144.35L117.69 146.08ZM112.46 144.35L111.20 138.66L105.97 136.93L102.00 140.89L103.27 146.58L108.50 148.31ZM125.45 159.19L124.19 153.50L118.96 151.77L114.99 155.73L116.26 161.42L121.48 163.15ZM116.26 161.42L114.99 155.73L109.76 154.00L105.80 157.96L107.06 163.64L112.29 165.37ZM128.16 149.54L126.90 143.85L121.66 142.12L117.69 146.08L118.96 151.77L124.19 153.50ZM139.50 200.73L138.24 195.05L133.02 193.31L129.05 197.26L130.31 202.95L135.54 204.68ZM130.31 202.95L129.05 197.26L123.83 195.53L119.87 199.48L121.13 205.16L126.35 206.89ZM142.21 191.10L140.95 185.41L135.72 183.68L131.76 187.63L133.02 193.31L138.24 195.05ZM133.02 193.31L131.76 187.63L126.53 185.89L122.57 189.85L123.83 195.53L129.05 197.26ZM145.99 208.15L144.73 202.47L139.50 200.73L135.54 204.68L136.80 210.36L142.02 212.10ZM136.80 210.36L135.54 204.68L130.31 202.95L126.35 206.89L127.61 212.58L132.83 214.31ZM148.70 198.52L147.44 192.83L142.21 191.10L138.24 195.05L139.50 200.73L144.73 202.47ZM114.64 197.75L113.38 192.07L108.16 190.34L104.20 194.29L105.46 199.97L110.68 201.70ZM105.46 199.97L104.20 194.29L98.98 192.56L95.02 196.51L96.28 202.19L101.50 203.92ZM117.34 188.11L116.08 182.43L110.85 180.70L106.89 184.65L108.16 190.34L113.38 192.07ZM108.16 190.34L106.89 184.65L101.67 182.92L97.71 186.88L98.98 192.56L104.20 194.29ZM121.13 205.16L119.87 199.48L114.64 197.75L110.68 201.70L111.95 207.38L117.17 209.11ZM111.95 207.38L110.68 201.70L105.46 199.97L101.50 203.92L102.77 209.60L107.99 211.33ZM123.83 195.53L122.57 189.85L117.34 188.11L113.38 192.07L114.64 197.75L119.87 199.48ZM154.12 179.24L152.86 173.55L147.63 171.82L143.66 175.77L144.92 181.46L150.15 183.19ZM144.92 181.46L143.66 175.77L138.43 174.03L134.46 177.99L135.72 183.68L140.95 185.41ZM156.84 169.60L155.58 163.91L150.35 162.17L146.37 166.13L147.63 171.82L152.86 173.55ZM147.63 171.82L146.37 166.13L141.14 164.39L137.17 168.35L138.43 174.03L143.66 175.77ZM160.61 186.67L159.35 180.98L154.12 179.24L150.15 183.19L151.41 188.88L156.64 190.62ZM151.41 188.88L150.15 183.19L144.92 181.46L140.95 185.41L142.21 191.10L147.44 192.83ZM163.33 177.03L162.07 171.34L156.84 169.60L152.86 173.55L154.12 179.24L159.35 180.98Z"/><path data-band="2" fill="#f97316" fill-opacity="0.35" d="M15.34 186.01L14.07 180.33L8.85 178.62L4.91 182.58L6.19 188.25L11.40 189.96ZM6.19 188.25L4.91 182.58L-0.30 180.87L-4.23 184.83L-2.96 190.50L2.26 192.21ZM18.01 176.38L16.73 170.70L11.52 168.99L7.58 172.95L8.85 178.62L14.07 180.33ZM8.85 178.62L7.58 172.95L2.36 171.24L-1.58 175.20L-0.30 180.87L4.91 182.58ZM12.68 195.63L11.40 189.96L6.19 188.25L2.26 192.21L3.53 197.88L8.74 199.59ZM19.51 140.07L18.24 134.39L13.01 132.68L9.07 136.64L10.35 142.32L15.57 144.03ZM10.35 142.32L9.07 136.64L3.85 134.93L-0.09 138.90L1.19 144.58L6.41 146.29ZM22.18 130.42L20.91 124.74L15.68 123.03L11.74 127.00L13.01 132.68L18.24 134.39ZM13.01 132.68L11.74 127.00L6.51 125.28L2.57 129.25L3.85 134.93L9.07 136.64ZM26.01 147.46L24.74 141.78L19.51 140.07L15.57 144.03L16.85 149.71L22.07 151.43ZM16.85 149.71L15.57 144.03L10.35 142.32L6.41 146.29L7.68 151.96L12.90 153.68ZM28.68 137.82L27.41 132.13L22.18 130.42L18.24 134.39L19.51 140.07L24.74 141.78ZM1.19 144.58L-0.09 138.90L-5.31 137.19L-9.25 141.16L-7.97 146.83L-2.75 148.54ZM3.85 134.93L2.57 129.25L-2.65 127.54L-6.59 131.51L-5.31 137.19L-0.09 138.90ZM34.03 118.52L32.76 112.83L27.53 111.12L23.58 115.09L24.86 120.77L30.08 122.48ZM24.86 120.77L23.58 115.09L18.35 113.37L14.40 117.34L15.68 123.03L20.91 124.74ZM36.71 108.86L35.43 103.17L30.20 101.46L26.25 105.43L27.53 111.12L32.76 112.83ZM27.53 111.12L26.25 105.43L21.02 103.72L17.07 107.69L18.35 113.37L23.58 115.09ZM40.53 125.92L39.26 120.23L34.03 118.52L30.08 122.48L31.36 128.17L36.58 129.88ZM31.36 128.17L30.08 122.48L24.86 120.77L20.91 124.74L22.18 130.42L27.41 132.13ZM43.21 116.26L41.94 110.58L36.71 108.86L32.76 112.83L34.03 118.52L39.26 120.23ZM9.18 115.63L7.90 109.95L2.68 108.24L-1.27 112.21L0.01 117.89L5.24 119.60ZM0.01 117.89L-1.27 112.21L-6.49 110.50L-10.43 114.48L-9.15 120.16L-3.93 121.86ZM11.85 105.98L10.57 100.29L5.34 98.58L1.40 102.56L2.68 108.24L7.90 109.95ZM2.68 108.24L1.40 102.56L-3.83 100.85L-7.77 104.82L-6.49 110.50L-1.27 112.21ZM15.68 123.03L14.40 117.34L9.18 115.63L5.24 119.60L6.51 125.28L11.74 127.00ZM6.51 125.28L5.24 119.60L0.01 117.89L-3.93 121.86L-2.65 127.54L2.57 129.25ZM18.35 113.37L17.07 107.69L11.85 105.98L7.90 109.95L9.18 115.63L14.40 117.34ZM29.84 164.49L28.56 158.82L23.34 157.10L19.40 161.07L20.67 166.74L25.89 168.46ZM20.67 166.74L19.40 161.07L14.18 159.35L10.24 163.31L11.52 168.99L16.73 170.70ZM32.51 154.85L31.23 149.18L26.01 147.46L22.07 151.43L23.34 157.10L28.56 158.82ZM23.34 157.10L22.07 151.43L16.85 149.71L12.90 153.68L14.18 159.35L19.40 161.07ZM27.17 174.13L25.89 168.46L20.67 166.74L16.73 170.70L18.01 176.38L23.22 178.09ZM39.00 162.25L37.73 156.57L32.51 154.85L28.56 158.82L29.84 164.49L35.06 166.21ZM5.02 161.60L3.74 155.93L-1.47 154.22L-5.41 158.18L-4.13 163.85L1.08 165.56ZM7.68 151.96L6.41 146.29L1.19 144.58L-2.75 148.54L-1.47 154.22L3.74 155.93ZM11.52 168.99L10.24 163.31L5.02 161.60L1.08 165.56L2.36 171.24L7.58 172.95ZM2.36 171.24L1.08 165.56L-4.13 163.85L-8.07 167.82L-6.79 173.49L-1.58 175.20ZM14.18 159.35L12.90 153.68L7.68 151.96L3.74 155.93L5.02 161.60L10.24 163.31ZM44.35 142.96L43.08 137.28L37.86 135.57L33.91 139.53L35.18 145.21L40.40 146.93ZM35.18 145.21L33.91 139.53L28.68 137.82L24.74 141.78L26.01 147.46L31.23 149.18ZM47.03 133.32L45.76 127.63L40.53 125.92L36.58 129.88L37.86 135.57L43.08 137.28ZM37.86 135.57L36.58 129.88L31.36 128.17L27.41 132.13L28.68 137.82L33.91 139.53ZM50.85 150.36L49.58 144.68L44.35 142.96L40.40 146.93L41.68 152.61L46.90 154.33ZM41.68 152.61L40.40 146.93L35.18 145.21L31.23 149.18L32.51 154.85L37.73 156.57ZM68.52 56.01L67.25 50.31L62.01 48.60L58.04 52.58L59.32 58.27L64.56 59.99ZM80.43 44.07L79.16 38.37L73.91 36.65L69.94 40.63L71.22 46.33L76.46 48.05ZM71.22 46.33L69.94 40.63L64.70 38.91L60.73 42.90L62.01 48.60L67.25 50.31ZM75.03 63.43L73.76 57.73L68.52 56.01L64.56 59.99L65.83 65.69L71.07 67.41ZM83.13 34.39L81.85 28.69L76.61 26.97L72.64 30.95L73.91 36.65L79.16 38.37ZM85.83 24.70L84.56 19.00L79.31 17.28L75.34 21.26L76.61 26.97L81.85 28.69ZM38.24 72.47L36.96 66.77L31.73 65.06L27.77 69.04L29.05 74.73L34.28 76.44ZM29.05 74.73L27.77 69.04L22.54 67.33L18.58 71.31L19.86 77.00L25.09 78.71ZM40.92 62.80L39.64 57.10L34.41 55.39L30.45 59.37L31.73 65.06L36.96 66.77ZM31.73 65.06L30.45 59.37L25.21 57.66L21.26 61.64L22.54 67.33L27.77 69.04ZM44.75 79.87L43.47 74.18L38.24 72.47L34.28 76.44L35.56 82.13L40.79 83.85ZM35.56 82.13L34.28 76.44L29.05 74.73L25.09 78.71L26.37 84.40L31.60 86.11ZM47.43 70.21L46.16 64.51L40.92 62.80L36.96 66.77L38.24 72.47L43.47 74.18ZM13.35 69.59L12.07 63.90L6.84 62.20L2.89 66.18L4.17 71.86L9.40 73.57ZM4.17 71.86L2.89 66.18L-2.34 64.47L-6.29 68.45L-5.01 74.13L0.22 75.84ZM16.02 59.92L14.74 54.23L9.51 52.52L5.56 56.51L6.84 62.20L12.07 63.90ZM6.84 62.20L5.56 56.51L0.32 54.80L-3.63 58.78L-2.34 64.47L2.89 66.18ZM19.86 77.00L18.58 71.31L13.35 69.59L9.40 73.57L10.68 79.26L15.91 80.97ZM10.68 79.26L9.40 73.57L4.17 71.86L0.22 75.84L1.50 81.53L6.73 83.24ZM22.54 67.33L21.26 61.64L16.02 59.92L12.07 63.90L13.35 69.59L18.58 71.31ZM52.80 50.86L51.53 45.16L46.29 43.44L42.33 47.43L43.60 53.12L48.84 54.84ZM43.60 53.12L42.33 47.43L37.09 45.71L33.13 49.69L34.41 55.39L39.64 57.10ZM55.49 41.18L54.22 35.48L48.98 33.76L45.01 37.75L46.29 43.44L51.53 45.16ZM46.29 43.44L45.01 37.75L39.77 36.03L35.81 40.02L37.09 45.71L42.33 47.43ZM59.32 58.27L58.04 52.58L52.80 50.86L48.84 54.84L50.12 60.53L55.35 62.25ZM50.12 60.53L48.84 54.84L43.60 53.12L39.64 57.10L40.92 62.80L46.16 64.51ZM62.01 48.60L60.73 42.90L55.49 41.18L51.53 45.16L52.80 50.86L58.04 52.58ZM27.89 47.98L26.61 42.29L21.37 40.57L17.42 44.56L18.70 50.25L23.93 51.96ZM18.70 50.25L17.42 44.56L12.18 42.85L8.23 46.83L9.51 52.52L14.74 54.23ZM30.57 38.30L29.29 32.61L24.05 30.89L20.09 34.88L21.37 40.57L26.61 42.29ZM21.37 40.57L20.09 34.88L14.86 33.17L10.90 37.15L12.18 42.85L17.42 44.56ZM34.41 55.39L33.13 49.69L27.89 47.98L23.93 51.96L25.21 57.66L30.45 59.37ZM25.21 57.66L23.93 51.96L18.70 50.25L14.74 54.23L16.02 59.92L21.26 61.64ZM37.09 45.71L35.81 40.02L30.57 38.30L26.61 42.29L27.89 47.98L33.13 49.69ZM48.57 96.95L47.30 91.26L42.07 89.54L38.11 93.51L39.39 99.20L44.62 100.92ZM39.39 99.20L38.11 93.51L32.88 91.80L28.93 95.77L30.20 101.46L35.43 103.17ZM51.26 87.28L49.98 81.59L44.75 79.87L40.79 83.85L42.07 89.54L47.30 91.26ZM42.07 89.54L40.79 83.85L35.56 82.13L31.60 86.11L32.88 91.80L38.11 93.51ZM55.08 104.35L53.80 98.66L48.57 96.95L44.62 100.92L45.89 106.61L51.12 108.32ZM45.89 106.61L44.62 100.92L39.39 99.20L35.43 103.17L36.71 108.86L41.94 110.58ZM57.76 94.69L56.49 89.00L51.26 87.28L47.30 91.26L48.57 96.95L53.80 98.66ZM23.70 94.06L22.42 88.37L17.19 86.66L13.24 90.64L14.52 96.32L19.75 98.03ZM14.52 96.32L13.24 90.64L8.01 88.92L4.06 92.90L5.34 98.58L10.57 100.29ZM26.37 84.40L25.09 78.71L19.86 77.00L15.91 80.97L17.19 86.66L22.42 88.37ZM17.19 86.66L15.91 80.97L10.68 79.26L6.73 83.24L8.01 88.92L13.24 90.64ZM30.20 101.46L28.93 95.77L23.70 94.06L19.75 98.03L21.02 103.72L26.25 105.43ZM21.02 103.72L19.75 98.03L14.52 96.32L10.57 100.29L11.85 105.98L17.07 107.69ZM32.88 91.80L31.60 86.11L26.37 84.40L22.42 88.37L23.70 94.06L28.93 95.77ZM63.14 75.36L61.87 69.66L56.63 67.95L52.67 71.92L53.94 77.62L59.18 79.33ZM53.94 77.62L52.67 71.92L47.43 70.21L43.47 74.18L44.75 79.87L49.98 81.59ZM65.83 65.69L64.56 59.99L59.32 58.27L55.35 62.25L56.63 67.95L61.87 69.66ZM56.63 67.95L55.35 62.25L50.12 60.53L46.16 64.51L47.43 70.21L52.67 71.92ZM69.65 82.77L68.38 77.08L63.14 75.36L59.18 79.33L60.45 85.03L65.69 86.75ZM60.45 85.03L59.18 79.33L53.94 77.62L49.98 81.59L51.26 87.28L56.49 89.00ZM72.34 73.10L71.07 67.41L65.83 65.69L61.87 69.66L63.14 75.36L68.38 77.08ZM57.05 4.70L55.77 -1.01L50.52 -2.72L46.55 1.27L47.83 6.97L53.08 8.69ZM47.83 6.97L46.55 1.27L41.31 -0.45L37.34 3.54L38.62 9.25L43.87 10.96ZM50.52 -2.72L49.24 -8.43L44.00 -10.14L40.03 -6.15L41.31 -0.45L46.55 1.27ZM63.57 12.12L62.29 6.42L57.05 4.70L53.08 8.69L54.35 14.39L59.60 16.11ZM54.35 14.39L53.08 8.69L47.83 6.97L43.87 10.96L45.14 16.66L50.39 18.38ZM66.26 2.43L64.99 -3.28L59.74 -5.00L55.77 -1.01L57.05 4.70L62.29 6.42ZM32.10 1.83L30.82 -3.87L25.57 -5.58L21.61 -1.59L22.89 4.11L28.13 5.82ZM22.89 4.11L21.61 -1.59L16.37 -3.30L12.41 0.69L13.69 6.39L18.93 8.10ZM38.62 9.25L37.34 3.54L32.10 1.83L28.13 5.82L29.41 11.52L34.66 13.24ZM29.41 11.52L28.13 5.82L22.89 4.11L18.93 8.10L20.21 13.80L25.45 15.51ZM41.31 -0.45L40.03 -6.15L34.78 -7.86L30.82 -3.87L32.10 1.83L37.34 3.54ZM67.39 29.23L66.12 23.53L60.87 21.81L56.91 25.80L58.18 31.50L63.43 33.21ZM58.18 31.50L56.91 25.80L51.66 24.08L47.70 28.06L48.98 33.76L54.22 35.48ZM70.09 19.54L68.82 13.84L63.57 12.12L59.60 16.11L60.87 21.81L66.12 23.53ZM60.87 21.81L59.60 16.11L54.35 14.39L50.39 18.38L51.66 24.08L56.91 25.80ZM73.91 36.65L72.64 30.95L67.39 29.23L63.43 33.21L64.70 38.91L69.94 40.63ZM64.70 38.91L63.43 33.21L58.18 31.50L54.22 35.48L55.49 41.18L60.73 42.90ZM76.61 26.97L75.34 21.26L70.09 19.54L66.12 23.53L67.39 29.23L72.64 30.95ZM42.46 26.35L41.18 20.65L35.94 18.94L31.97 22.92L33.25 28.62L38.49 30.33ZM33.25 28.62L31.97 22.92L26.73 21.21L22.77 25.20L24.05 30.89L29.29 32.61ZM45.14 16.66L43.87 10.96L38.62 9.25L34.66 13.24L35.94 18.94L41.18 20.65ZM35.94 18.94L34.66 13.24L29.41 11.52L25.45 15.51L26.73 21.21L31.97 22.92ZM48.98 33.76L47.70 28.06L42.46 26.35L38.49 30.33L39.77 36.03L45.01 37.75ZM39.77 36.03L38.49 30.33L33.25 28.62L29.29 32.61L30.57 38.30L35.81 40.02ZM51.66 24.08L50.39 18.38L45.14 16.66L41.18 20.65L42.46 26.35L47.70 28.06ZM82.01 7.59L80.74 1.88L75.49 0.16L71.51 4.15L72.79 9.85L78.03 11.57ZM72.79 9.85L71.51 4.15L66.26 2.43L62.29 6.42L63.57 12.12L68.82 13.84ZM84.71 -2.11L83.44 -7.82L78.19 -9.54L74.21 -5.55L75.49 0.16L80.74 1.88ZM75.49 0.16L74.21 -5.55L68.96 -7.27L64.99 -3.28L66.26 2.43L71.51 4.15ZM88.53 15.01L87.26 9.31L82.01 7.59L78.03 11.57L79.31 17.28L84.56 19.00ZM79.31 17.28L78.03 11.57L72.79 9.85L68.82 13.84L70.09 19.54L75.34 21.26ZM58.90 121.42L57.62 115.73L52.39 114.01L48.44 117.98L49.71 123.67L54.94 125.38ZM49.71 123.67L48.44 117.98L43.21 116.26L39.26 120.23L40.53 125.92L45.76 127.63ZM61.58 111.76L60.31 106.07L55.08 104.35L51.12 108.32L52.39 114.01L57.62 115.73ZM52.39 114.01L51.12 108.32L45.89 106.61L41.94 110.58L43.21 116.26L48.44 117.98ZM64.27 102.10L63.00 96.41L57.76 94.69L53.80 98.66L55.08 104.35L60.31 106.07ZM76.16 90.19L74.88 84.49L69.65 82.77L65.69 86.75L66.96 92.44L72.19 94.16ZM66.96 92.44L65.69 86.75L60.45 85.03L56.49 89.00L57.76 94.69L63.00 96.41ZM1.50 81.53L0.22 75.84L-5.01 74.13L-8.96 78.11L-7.67 83.80L-2.45 85.51ZM5.34 98.58L4.06 92.90L-1.17 91.19L-5.11 95.17L-3.83 100.85L1.40 102.56ZM8.01 88.92L6.73 83.24L1.50 81.53L-2.45 85.51L-1.17 91.19L4.06 92.90ZM1.82 18.36L0.53 12.66L-4.71 10.96L-8.66 14.95L-7.38 20.64L-2.14 22.35ZM7.16 -1.02L5.88 -6.72L0.64 -8.42L-3.32 -4.43L-2.04 1.27L3.20 2.98ZM13.69 6.39L12.41 0.69L7.16 -1.02L3.20 2.98L4.49 8.67L9.73 10.38ZM4.49 8.67L3.20 2.98L-2.04 1.27L-5.99 5.26L-4.71 10.96L0.53 12.66ZM16.37 -3.30L15.08 -9.00L9.84 -10.71L5.88 -6.72L7.16 -1.02L12.41 0.69ZM2.99 45.12L1.71 39.43L-3.52 37.72L-7.48 41.71L-6.19 47.40L-0.96 49.11ZM5.66 35.45L4.38 29.75L-0.86 28.04L-4.81 32.03L-3.52 37.72L1.71 39.43ZM9.51 52.52L8.23 46.83L2.99 45.12L-0.96 49.11L0.32 54.80L5.56 56.51ZM0.32 54.80L-0.96 49.11L-6.19 47.40L-10.14 51.38L-8.86 57.07L-3.63 58.78ZM12.18 42.85L10.90 37.15L5.66 35.45L1.71 39.43L2.99 45.12L8.23 46.83ZM17.53 23.49L16.25 17.79L11.01 16.08L7.05 20.07L8.34 25.76L13.58 27.47ZM8.34 25.76L7.05 20.07L1.82 18.36L-2.14 22.35L-0.86 28.04L4.38 29.75ZM20.21 13.80L18.93 8.10L13.69 6.39L9.73 10.38L11.01 16.08L16.25 17.79ZM11.01 16.08L9.73 10.38L4.49 8.67L0.53 12.66L1.82 18.36L7.05 20.07ZM24.05 30.89L22.77 25.20L17.53 23.49L13.58 27.47L14.86 33.17L20.09 34.88ZM14.86 33.17L13.58 27.47L8.34 25.76L4.38 29.75L5.66 35.45L10.90 37.15ZM26.73 21.21L25.45 15.51L20.21 13.80L16.25 17.79L17.53 23.49L22.77 25.20Z"/></svg>
