<svg xmlns="http://www.w3.org/2000/svg" width="256" height="256" viewBox="0 0 256 256"><path data-band="1" fill="#fde68a" fill-opacity="0.35" d="M46.24 3.17L44.97 -2.49L39.76 -4.21L35.83 -0.27L37.10 5.40L42.30 7.12ZM37.10 5.40L35.83 -0.27L30.62 -1.98L26.69 1.96L27.96 7.62L33.16 9.34ZM52.71 10.56L51.45 4.90L46.24 3.17L42.30 7.12L43.57 12.78L48.78 14.50ZM43.57 12.78L42.30 7.12L37.10 5.40L33.16 9.34L34.43 15.00L39.64 16.72ZM55.39 0.95L54.12 -4.71L48.91 -6.44L44.97 -2.49L46.24 3.17L51.45 4.90ZM21.48 0.24L20.21 -5.42L15.00 -7.13L11.07 -3.19L12.35 2.47L17.55 4.19ZM12.35 2.47L11.07 -3.19L5.87 -4.90L1.94 -0.96L3.22 4.70L8.42 6.42ZM27.96 7.62L26.69 1.96L21.48 0.24L17.55 4.19L18.82 9.85L24.03 11.56ZM18.82 9.85L17.55 4.19L12.35 2.47L8.42 6.42L9.69 12.08L14.89 13.79ZM30.62 -1.98L29.35 -7.65L24.14 -9.37L20.21 -5.42L21.48 0.24L26.69 1.96ZM56.51 27.55L55.25 21.89L50.04 20.16L46.11 24.10L47.37 29.76L52.58 31.49ZM47.37 29.76L46.11 24.10L40.90 22.38L36.97 26.32L38.24 31.98L43.44 33.70ZM59.19 17.95L57.92 12.28L52.71 10.56L48.78 14.50L50.04 20.16L55.25 21.89ZM50.04 20.16L48.78 14.50L43.57 12.78L39.64 16.72L40.90 22.38L46.11 24.10ZM62.98 34.93L61.72 29.27L56.51 27.55L52.58 31.49L53.84 37.15L59.05 38.87ZM53.84 37.15L52.58 31.49L47.37 29.76L43.44 33.70L44.71 39.36L49.91 41.08ZM65.66 25.33L64.39 19.67L59.19 17.95L55.25 21.89L56.51 27.55L61.72 29.27ZM31.77 24.60L30.50 18.94L25.30 17.22L21.37 21.17L22.64 26.82L27.84 28.54ZM22.64 26.82L21.37 21.17L16.16 19.45L12.24 23.39L13.51 29.05L18.71 30.76ZM34.43 15.00L33.16 9.34L27.96 7.62L24.03 11.56L25.30 17.22L30.50 18.94ZM25.30 17.22L24.03 11.56L18.82 9.85L14.89 13.79L16.16 19.45L21.37 21.17ZM38.24 31.98L36.97 26.32L31.77 24.60L27.84 28.54L29.11 34.20L34.31 35.92ZM29.11 34.20L27.84 28.54L22.64 26.82L18.71 30.76L19.98 36.42L25.18 38.14ZM40.90 22.38L39.64 16.72L34.43 15.00L30.50 18.94L31.77 24.60L36.97 26.32ZM71.01 6.12L69.74 0.46L64.53 -1.27L60.59 2.68L61.86 8.34L67.07 10.06ZM61.86 8.34L60.59 2.68L55.39 0.95L51.45 4.90L52.71 10.56L57.92 12.28ZM73.69 -3.49L72.42 -9.15L67.21 -10.88L63.27 -6.93L64.53 -1.27L69.74 0.46ZM64.53 -1.27L63.27 -6.93L58.06 -8.66L54.12 -4.71L55.39 0.95L60.59 2.68ZM77.48 13.52L76.22 7.85L71.01 6.12L67.07 10.06L68.33 15.73L73.54 17.46ZM68.33 15.73L67.07 10.06L61.86 8.34L57.92 12.28L59.19 17.95L64.39 19.67ZM80.16 3.91L78.90 -1.76L73.69 -3.49L69.74 0.46L71.01 6.12L76.22 7.85ZM3.22 4.70L1.94 -0.96L-3.26 -2.67L-7.19 1.28L-5.91 6.94L-0.71 8.65ZM1.73 40.87L0.46 35.21L-4.74 33.50L-8.66 37.44L-7.38 43.09L-2.19 44.80ZM7.04 21.68L5.76 16.02L0.56 14.31L-3.36 18.25L-2.09 23.90L3.11 25.62ZM9.69 12.08L8.42 6.42L3.22 4.70L-0.71 8.65L0.56 14.31L5.76 16.02ZM0.56 14.31L-0.71 8.65L-5.91 6.94L-9.84 10.88L-8.56 16.54L-3.36 18.25ZM13.51 29.05L12.24 23.39L7.04 21.68L3.11 25.62L4.38 31.27L9.58 32.99ZM4.38 31.27L3.11 25.62L-2.09 23.90L-6.01 27.85L-4.74 33.50L0.46 35.21ZM16.16 19.45L14.89 13.79L9.69 12.08L5.76 16.02L7.04 21.68L12.24 23.39ZM57.64 54.12L56.38 48.46L51.18 46.74L47.24 50.68L48.51 56.33L53.71 58.05ZM69.45 42.32L68.19 36.66L62.98 34.93L59.05 38.87L60.31 44.53L65.51 46.25ZM60.31 44.53L59.05 38.87L53.84 37.15L49.91 41.08L51.18 46.74L56.38 48.46ZM99.58 26.10L98.32 20.43L93.11 18.70L89.16 22.64L90.43 28.30L95.63 30.03ZM81.27 30.51L80.01 24.85L74.80 23.12L70.86 27.06L72.13 32.72L77.33 34.45ZM72.13 32.72L70.86 27.06L65.66 25.33L61.72 29.27L62.98 34.93L68.19 36.66ZM83.95 20.91L82.69 15.24L77.48 13.52L73.54 17.46L74.80 23.12L80.01 24.85ZM74.80 23.12L73.54 17.46L68.33 15.73L64.39 19.67L65.66 25.33L70.86 27.06ZM90.43 28.30L89.16 22.64L83.95 20.91L80.01 24.85L81.27 30.51L86.48 32.24ZM27.60 70.34L26.33 64.69L21.13 62.97L17.21 66.91L18.48 72.56L23.67 74.27ZM18.48 72.56L17.21 66.91L12.01 65.19L8.09 69.12L9.36 74.77L14.56 76.49ZM30.25 60.76L28.99 55.10L23.79 53.38L19.86 57.32L21.13 62.97L26.33 64.69ZM21.13 62.97L19.86 57.32L14.67 55.60L10.74 59.54L12.01 65.19L17.21 66.91ZM36.72 68.13L35.45 62.48L30.25 60.76L26.33 64.69L27.60 70.34L32.79 72.06ZM2.90 67.41L1.63 61.76L-3.56 60.04L-7.48 63.98L-6.21 69.63L-1.02 71.34ZM5.55 57.82L4.28 52.17L-0.92 50.46L-4.84 54.39L-3.56 60.04L1.63 61.76ZM9.36 74.77L8.09 69.12L2.90 67.41L-1.02 71.34L0.25 76.99L5.44 78.70ZM0.25 76.99L-1.02 71.34L-6.21 69.63L-10.13 73.56L-8.85 79.21L-3.67 80.92ZM12.01 65.19L10.74 59.54L5.55 57.82L1.63 61.76L2.90 67.41L8.09 69.12ZM42.04 48.95L40.78 43.30L35.58 41.58L31.65 45.51L32.91 51.17L38.11 52.89ZM32.91 51.17L31.65 45.51L26.45 43.79L22.52 47.73L23.79 53.38L28.99 55.10ZM44.71 39.36L43.44 33.70L38.24 31.98L34.31 35.92L35.58 41.58L40.78 43.30ZM35.58 41.58L34.31 35.92L29.11 34.20L25.18 38.14L26.45 43.79L31.65 45.51ZM48.51 56.33L47.24 50.68L42.04 48.95L38.11 52.89L39.38 58.54L44.58 60.27ZM39.38 58.54L38.11 52.89L32.91 51.17L28.99 55.10L30.25 60.76L35.45 62.48ZM51.18 46.74L49.91 41.08L44.71 39.36L40.78 43.30L42.04 48.95L47.24 50.68ZM17.32 46.01L16.05 40.36L10.85 38.64L6.93 42.58L8.20 48.23L13.40 49.95ZM8.20 48.23L6.93 42.58L1.73 40.87L-2.19 44.80L-0.92 50.46L4.28 52.17ZM19.98 36.42L18.71 30.76L13.51 29.05L9.58 32.99L10.85 38.64L16.05 40.36ZM10.85 38.64L9.58 32.99L4.38 31.27L0.46 35.21L1.73 40.87L6.93 42.58ZM23.79 53.38L22.52 47.73L17.32 46.01L13.40 49.95L14.67 55.60L19.86 57.32ZM14.67 55.60L13.40 49.95L8.20 48.23L4.28 52.17L5.55 57.82L10.74 59.54ZM26.45 43.79L25.18 38.14L19.98 36.42L16.05 40.36L17.32 46.01L22.52 47.73ZM15.83 82.14L14.56 76.49L9.36 74.77L5.44 78.70L6.71 84.35L11.90 86.07ZM6.71 84.35L5.44 78.70L0.25 76.99L-3.67 80.92L-2.39 86.57L2.80 88.28ZM107.65 -2.73L106.39 -8.40L101.17 -10.13L97.22 -6.19L98.48 -0.52L103.69 1.21ZM111.43 14.29L110.17 8.61L104.96 6.88L101.01 10.82L102.27 16.49L107.48 18.22ZM114.12 4.68L112.86 -1.00L107.65 -2.73L103.69 1.21L104.96 6.88L110.17 8.61ZM95.79 9.09L94.53 3.42L89.32 1.69L85.37 5.64L86.64 11.30L91.85 13.03ZM86.64 11.30L85.37 5.64L80.16 3.91L76.22 7.85L77.48 13.52L82.69 15.24ZM98.48 -0.52L97.22 -6.19L92.01 -7.92L88.06 -3.98L89.32 1.69L94.53 3.42ZM89.32 1.69L88.06 -3.98L82.85 -5.70L78.90 -1.76L80.16 3.91L85.37 5.64ZM102.27 16.49L101.01 10.82L95.79 9.09L91.85 13.03L93.11 18.70L98.32 20.43ZM93.11 18.70L91.85 13.03L86.64 11.30L82.69 15.24L83.95 20.91L89.16 22.64ZM104.96 6.88L103.69 1.21L98.48 -0.52L94.53 3.42L95.79 9.09L101.01 10.82Z"/></svg>
