<svg xmlns="http://www.w3.org/2000/svg" width="256" height="256" viewBox="0 0 256 256"><path data-band="1" fill="#fde68a" fill-opacity="0.35" d="M195.42 118.84L192.75 106.75L181.55 103.38L173.02 112.09L175.70 124.17L186.89 127.55ZM175.70 124.17L173.02 112.09L161.83 108.72L153.30 117.43L155.98 129.51L167.17 132.88ZM142.11 114.07L139.43 101.99L128.24 98.62L119.72 107.34L122.40 119.42L133.59 122.78ZM122.40 119.42L119.72 107.34L108.53 103.98L100.02 112.70L102.70 124.77L113.89 128.13ZM203.43 155.09L200.76 143.01L189.56 139.63L181.04 148.34L183.71 160.42L194.90 163.79ZM183.71 160.42L181.04 148.34L169.85 144.96L161.33 153.67L164.00 165.75L175.19 169.12ZM209.29 134.30L206.62 122.22L195.42 118.84L186.89 127.55L189.56 139.63L200.76 143.01ZM189.56 139.63L186.89 127.55L175.70 124.17L167.17 132.88L169.85 144.96L181.04 148.34ZM217.29 170.55L214.62 158.47L203.43 155.09L194.90 163.79L197.57 175.87L208.76 179.25ZM197.57 175.87L194.90 163.79L183.71 160.42L175.19 169.12L177.86 181.19L189.05 184.57ZM223.15 149.77L220.49 137.68L209.29 134.30L200.76 143.01L203.43 155.09L214.62 158.47ZM150.14 150.30L147.46 138.22L136.27 134.86L127.76 143.57L130.44 155.64L141.63 159.01ZM130.44 155.64L127.76 143.57L116.57 140.21L108.07 148.92L110.75 160.99L121.93 164.35ZM155.98 129.51L153.30 117.43L142.11 114.07L133.59 122.78L136.27 134.86L147.46 138.22ZM136.27 134.86L133.59 122.78L122.40 119.42L113.89 128.13L116.57 140.21L127.76 143.57ZM164.00 165.75L161.33 153.67L150.14 150.30L141.63 159.01L144.30 171.08L155.49 174.45ZM144.30 171.08L141.63 159.01L130.44 155.64L121.93 164.35L124.61 176.42L135.79 179.78ZM169.85 144.96L167.17 132.88L155.98 129.51L147.46 138.22L150.14 150.30L161.33 153.67ZM215.16 113.51L212.49 101.42L201.28 98.04L192.75 106.75L195.42 118.84L206.62 122.22ZM248.77 123.66L246.10 111.56L234.90 108.18L226.36 116.89L229.02 128.98L240.22 132.36ZM229.02 128.98L226.36 116.89L215.16 113.51L206.62 122.22L209.29 134.30L220.49 137.68ZM43.65 140.87L40.96 128.80L29.78 125.46L21.29 134.18L23.99 146.24L35.17 149.58ZM23.99 146.24L21.29 134.18L10.12 130.83L1.63 139.56L4.33 151.61L15.50 154.95ZM49.46 120.08L46.76 108.01L35.58 104.67L27.09 113.39L29.78 125.46L40.96 128.80ZM29.78 125.46L27.09 113.39L15.91 110.05L7.42 118.77L10.12 130.83L21.29 134.18ZM57.52 156.28L54.83 144.21L43.65 140.87L35.17 149.58L37.86 161.64L49.03 164.99ZM37.86 161.64L35.17 149.58L23.99 146.24L15.50 154.95L18.20 167.01L29.37 170.36ZM63.33 135.50L60.64 123.43L49.46 120.08L40.96 128.80L43.65 140.87L54.83 144.21ZM4.33 151.61L1.63 139.56L-9.54 136.22L-18.02 144.94L-15.32 156.99L-4.15 160.33ZM10.12 130.83L7.42 118.77L-3.76 115.44L-12.24 124.16L-9.54 136.22L1.63 139.56ZM69.14 114.71L66.45 102.64L55.26 99.29L46.76 108.01L49.46 120.08L60.64 123.43ZM65.58 192.46L62.90 180.40L51.72 177.05L43.23 185.76L45.92 197.82L57.09 201.17ZM45.92 197.82L43.23 185.76L32.06 182.41L23.58 191.12L26.27 203.18L37.44 206.52ZM71.39 171.69L68.70 159.63L57.52 156.28L49.03 164.99L51.72 177.05L62.90 180.40ZM51.72 177.05L49.03 164.99L37.86 161.64L29.37 170.36L32.06 182.41L43.23 185.76ZM79.44 207.87L76.76 195.81L65.58 192.46L57.09 201.17L59.78 213.22L70.95 216.58ZM59.78 213.22L57.09 201.17L45.92 197.82L37.44 206.52L40.13 218.58L51.30 221.92ZM85.25 187.11L82.57 175.05L71.39 171.69L62.90 180.40L65.58 192.46L76.76 195.81ZM12.41 187.78L9.72 175.73L-1.45 172.39L-9.93 181.10L-7.23 193.15L3.94 196.49ZM18.20 167.01L15.50 154.95L4.33 151.61L-4.15 160.33L-1.45 172.39L9.72 175.73ZM26.27 203.18L23.58 191.12L12.41 187.78L3.94 196.49L6.63 208.54L17.80 211.88ZM6.63 208.54L3.94 196.49L-7.23 193.15L-15.70 201.86L-13.00 213.91L-1.84 217.25ZM32.06 182.41L29.37 170.36L18.20 167.01L9.72 175.73L12.41 187.78L23.58 191.12ZM96.88 145.56L94.20 133.49L83.01 130.13L74.51 138.85L77.20 150.92L88.38 154.27ZM77.20 150.92L74.51 138.85L63.33 135.50L54.83 144.21L57.52 156.28L68.70 159.63ZM102.70 124.77L100.02 112.70L88.83 109.34L80.33 118.06L83.01 130.13L94.20 133.49ZM83.01 130.13L80.33 118.06L69.14 114.71L60.64 123.43L63.33 135.50L74.51 138.85ZM110.75 160.99L108.07 148.92L96.88 145.56L88.38 154.27L91.06 166.34L102.24 169.70ZM91.06 166.34L88.38 154.27L77.20 150.92L68.70 159.63L71.39 171.69L82.57 175.05ZM116.57 140.21L113.89 128.13L102.70 124.77L94.20 133.49L96.88 145.56L108.07 148.92ZM258.85 216.95L256.19 204.87L245.00 201.48L236.47 210.17L239.13 222.25L250.31 225.64ZM264.72 196.18L262.07 184.10L250.87 180.71L242.34 189.40L245.00 201.48L256.19 204.87ZM272.69 232.42L270.04 220.35L258.85 216.95L250.31 225.64L252.97 237.72L264.16 241.11ZM225.28 206.79L222.62 194.71L211.43 191.33L202.90 200.02L205.57 212.10L216.75 215.48ZM205.57 212.10L202.90 200.02L191.72 196.64L183.20 205.34L185.87 217.41L197.05 220.79ZM231.14 186.02L228.48 173.93L217.29 170.55L208.76 179.25L211.43 191.33L222.62 194.71ZM211.43 191.33L208.76 179.25L197.57 175.87L189.05 184.57L191.72 196.64L202.90 200.02ZM239.13 222.25L236.47 210.17L225.28 206.79L216.75 215.48L219.42 227.55L230.60 230.94ZM219.42 227.55L216.75 215.48L205.57 212.10L197.05 220.79L199.71 232.86L210.90 236.24ZM245.00 201.48L242.34 189.40L231.14 186.02L222.62 194.71L225.28 206.79L236.47 210.17ZM256.75 159.93L254.09 147.84L242.89 144.45L234.35 153.15L237.01 165.24L248.21 168.62ZM237.01 165.24L234.35 153.15L223.15 149.77L214.62 158.47L217.29 170.55L228.48 173.93ZM262.63 139.14L259.97 127.04L248.77 123.66L240.22 132.36L242.89 144.45L254.09 147.84ZM242.89 144.45L240.22 132.36L229.02 128.98L220.49 137.68L223.15 149.77L234.35 153.15ZM270.61 175.40L267.95 163.32L256.75 159.93L248.21 168.62L250.87 180.71L262.07 184.10ZM250.87 180.71L248.21 168.62L237.01 165.24L228.48 173.93L231.14 186.02L242.34 189.40ZM276.49 154.62L273.83 142.53L262.63 139.14L254.09 147.84L256.75 159.93L267.95 163.32ZM247.10 258.47L244.44 246.40L233.26 243.01L224.74 251.70L227.40 263.77L238.58 267.15ZM227.40 263.77L224.74 251.70L213.56 248.31L205.04 257.00L207.71 269.06L218.88 272.45ZM252.97 237.72L250.31 225.64L239.13 222.25L230.60 230.94L233.26 243.01L244.44 246.40ZM233.26 243.01L230.60 230.94L219.42 227.55L210.90 236.24L213.56 248.31L224.74 251.70ZM266.81 253.18L264.16 241.11L252.97 237.72L244.44 246.40L247.10 258.47L258.28 261.86ZM140.66 248.81L137.99 236.74L126.81 233.38L118.31 242.07L120.99 254.13L132.16 257.50ZM120.99 254.13L118.31 242.07L107.14 238.71L98.65 247.40L101.33 259.46L112.50 262.82ZM146.49 228.05L143.82 215.99L132.64 212.62L124.14 221.32L126.81 233.38L137.99 236.74ZM126.81 233.38L124.14 221.32L112.96 217.95L104.46 226.65L107.14 238.71L118.31 242.07ZM154.50 264.24L151.83 252.18L140.66 248.81L132.16 257.50L134.83 269.55L146.00 272.92ZM134.83 269.55L132.16 257.50L120.99 254.13L112.50 262.82L115.17 274.87L126.34 278.24ZM160.34 243.49L157.66 231.42L146.49 228.05L137.99 236.74L140.66 248.81L151.83 252.18ZM87.48 244.04L84.80 231.99L73.63 228.63L65.15 237.33L67.83 249.38L79.00 252.74ZM67.83 249.38L65.15 237.33L53.98 233.98L45.50 242.68L48.19 254.72L59.35 258.08ZM93.29 223.29L90.61 211.23L79.44 207.87L70.95 216.58L73.63 228.63L84.80 231.99ZM73.63 228.63L70.95 216.58L59.78 213.22L51.30 221.92L53.98 233.98L65.15 237.33ZM101.33 259.46L98.65 247.40L87.48 244.04L79.00 252.74L81.68 264.79L92.84 268.15ZM81.68 264.79L79.00 252.74L67.83 249.38L59.35 258.08L62.03 270.13L73.19 273.48ZM107.14 238.71L104.46 226.65L93.29 223.29L84.80 231.99L87.48 244.04L98.65 247.40ZM172.01 201.96L169.34 189.89L158.16 186.52L149.65 195.22L152.32 207.29L163.50 210.66ZM152.32 207.29L149.65 195.22L138.47 191.85L129.96 200.55L132.64 212.62L143.82 215.99ZM177.86 181.19L175.19 169.12L164.00 165.75L155.49 174.45L158.16 186.52L169.34 189.89ZM158.16 186.52L155.49 174.45L144.30 171.08L135.79 179.78L138.47 191.85L149.65 195.22ZM185.87 217.41L183.20 205.34L172.01 201.96L163.50 210.66L166.17 222.73L177.35 226.10ZM166.17 222.73L163.50 210.66L152.32 207.29L143.82 215.99L146.49 228.05L157.66 231.42ZM191.72 196.64L189.05 184.57L177.86 181.19L169.34 189.89L172.01 201.96L183.20 205.34ZM118.78 197.19L116.10 185.12L104.92 181.76L96.43 190.47L99.11 202.53L110.28 205.89ZM99.11 202.53L96.43 190.47L85.25 187.11L76.76 195.81L79.44 207.87L90.61 211.23ZM124.61 176.42L121.93 164.35L110.75 160.99L102.24 169.70L104.92 181.76L116.10 185.12ZM104.92 181.76L102.24 169.70L91.06 166.34L82.57 175.05L85.25 187.11L96.43 190.47ZM132.64 212.62L129.96 200.55L118.78 197.19L110.28 205.89L112.96 217.95L124.14 221.32ZM112.96 217.95L110.28 205.89L99.11 202.53L90.61 211.23L93.29 223.29L104.46 226.65ZM138.47 191.85L135.79 179.78L124.61 176.42L116.10 185.12L118.78 197.19L129.96 200.55ZM193.86 253.62L191.20 241.55L180.02 238.17L171.51 246.86L174.18 258.92L185.35 262.30ZM174.18 258.92L171.51 246.86L160.34 243.49L151.83 252.18L154.50 264.24L165.67 267.61ZM199.71 232.86L197.05 220.79L185.87 217.41L177.35 226.10L180.02 238.17L191.20 241.55ZM180.02 238.17L177.35 226.10L166.17 222.73L157.66 231.42L160.34 243.49L171.51 246.86ZM207.71 269.06L205.04 257.00L193.86 253.62L185.35 262.30L188.02 274.36L199.19 277.74ZM213.56 248.31L210.90 236.24L199.71 232.86L191.20 241.55L193.86 253.62L205.04 257.00ZM268.52 118.34L265.86 106.25L254.65 102.86L246.10 111.56L248.77 123.66L259.97 127.04ZM8.93 265.42L6.24 253.38L-4.92 250.04L-13.38 258.74L-10.69 270.78L0.46 274.12ZM34.34 239.33L31.65 227.28L20.49 223.93L12.01 232.64L14.70 244.68L25.87 248.03ZM14.70 244.68L12.01 232.64L0.85 229.29L-7.61 238.00L-4.92 250.04L6.24 253.38ZM40.13 218.58L37.44 206.52L26.27 203.18L17.80 211.88L20.49 223.93L31.65 227.28ZM20.49 223.93L17.80 211.88L6.63 208.54L-1.84 217.25L0.85 229.29L12.01 232.64ZM48.19 254.72L45.50 242.68L34.34 239.33L25.87 248.03L28.55 260.07L39.71 263.42ZM28.55 260.07L25.87 248.03L14.70 244.68L6.24 253.38L8.93 265.42L20.08 268.77ZM53.98 233.98L51.30 221.92L40.13 218.58L31.65 227.28L34.34 239.33L45.50 242.68ZM0.85 229.29L-1.84 217.25L-13.00 213.91L-21.47 222.62L-18.77 234.66L-7.61 238.00ZM62.03 270.13L59.35 258.08L48.19 254.72L39.71 263.42L42.40 275.47L53.56 278.82Z"/></svg>
