<svg xmlns="http://www.w3.org/2000/svg" width="256" height="256" viewBox="0 0 256 256"><path data-band="1" fill="#fde68a" fill-opacity="0.35" d="M247.10 2.47L244.44 -9.60L233.26 -12.99L224.74 -4.30L227.40 7.77L238.58 11.15ZM227.40 7.77L224.74 -4.30L213.56 -7.69L205.04 1.00L207.71 13.06L218.88 16.45ZM260.94 17.94L258.28 5.86L247.10 2.47L238.58 11.15L241.24 23.22L252.42 26.61ZM241.24 23.22L238.58 11.15L227.40 7.77L218.88 16.45L221.54 28.51L232.72 31.90ZM266.81 -2.82L264.16 -14.89L252.97 -18.28L244.44 -9.60L247.10 2.47L258.28 5.86ZM140.66 -7.19L137.99 -19.26L126.81 -22.62L118.31 -13.93L120.99 -1.87L132.16 1.50ZM120.99 -1.87L118.31 -13.93L107.14 -17.29L98.65 -8.60L101.33 3.46L112.50 6.82ZM154.50 8.24L151.83 -3.82L140.66 -7.19L132.16 1.50L134.83 13.55L146.00 16.92ZM134.83 13.55L132.16 1.50L120.99 -1.87L112.50 6.82L115.17 18.87L126.34 22.24ZM67.83 -6.62L65.15 -18.67L53.98 -22.02L45.50 -13.32L48.19 -1.28L59.35 2.08ZM101.33 3.46L98.65 -8.60L87.48 -11.96L79.00 -3.26L81.68 8.79L92.84 12.15ZM81.68 8.79L79.00 -3.26L67.83 -6.62L59.35 2.08L62.03 14.13L73.19 17.48ZM162.51 44.41L159.84 32.35L148.67 28.98L140.18 37.66L142.85 49.72L154.01 53.09ZM142.85 49.72L140.18 37.66L129.01 34.29L120.52 42.98L123.19 55.03L134.35 58.40ZM168.34 23.67L165.67 11.61L154.50 8.24L146.00 16.92L148.67 28.98L159.84 32.35ZM148.67 28.98L146.00 16.92L134.83 13.55L126.34 22.24L129.01 34.29L140.18 37.66ZM176.34 59.84L173.67 47.79L162.51 44.41L154.01 53.09L156.68 65.14L167.84 68.52ZM156.68 65.14L154.01 53.09L142.85 49.72L134.35 58.40L137.02 70.45L148.18 73.82ZM182.18 39.11L179.51 27.05L168.34 23.67L159.84 32.35L162.51 44.41L173.67 47.79ZM109.36 39.61L106.68 27.56L95.52 24.20L87.04 32.89L89.71 44.93L100.87 48.30ZM89.71 44.93L87.04 32.89L75.88 29.53L67.40 38.22L70.08 50.26L81.23 53.62ZM115.17 18.87L112.50 6.82L101.33 3.46L92.84 12.15L95.52 24.20L106.68 27.56ZM95.52 24.20L92.84 12.15L81.68 8.79L73.19 17.48L75.88 29.53L87.04 32.89ZM123.19 55.03L120.52 42.98L109.36 39.61L100.87 48.30L103.55 60.34L114.71 63.71ZM103.55 60.34L100.87 48.30L89.71 44.93L81.23 53.62L83.91 65.66L95.07 69.02ZM129.01 34.29L126.34 22.24L115.17 18.87L106.68 27.56L109.36 39.61L120.52 42.98ZM193.86 -2.38L191.20 -14.45L180.02 -17.83L171.51 -9.14L174.18 2.92L185.35 6.30ZM174.18 2.92L171.51 -9.14L160.34 -12.51L151.83 -3.82L154.50 8.24L165.67 11.61ZM207.71 13.06L205.04 1.00L193.86 -2.38L185.35 6.30L188.02 18.36L199.19 21.74ZM188.02 18.36L185.35 6.30L174.18 2.92L165.67 11.61L168.34 23.67L179.51 27.05ZM213.56 -7.69L210.90 -19.76L199.71 -23.14L191.20 -14.45L193.86 -2.38L205.04 1.00ZM237.49 100.88L234.83 88.82L223.66 85.43L215.16 94.10L217.81 106.15L228.98 109.54ZM217.81 106.15L215.16 94.10L203.99 90.71L195.49 99.38L198.15 111.43L209.31 114.82ZM243.34 80.15L240.69 68.09L229.52 64.70L221.01 73.37L223.66 85.43L234.83 88.82ZM223.66 85.43L221.01 73.37L209.84 69.99L201.33 78.66L203.99 90.71L215.16 94.10ZM257.16 95.61L254.51 83.55L243.34 80.15L234.83 88.82L237.49 100.88L248.65 104.27ZM184.33 96.00L181.67 83.95L170.51 80.57L162.01 89.24L164.68 101.29L175.83 104.67ZM164.68 101.29L162.01 89.24L150.85 85.87L142.36 94.54L145.03 106.58L156.19 109.96ZM190.17 75.28L187.51 63.22L176.34 59.84L167.84 68.52L170.51 80.57L181.67 83.95ZM170.51 80.57L167.84 68.52L156.68 65.14L148.18 73.82L150.85 85.87L162.01 89.24ZM203.99 90.71L201.33 78.66L190.17 75.28L181.67 83.95L184.33 96.00L195.49 99.38ZM268.90 54.14L266.25 42.08L255.07 38.68L246.55 47.36L249.20 59.42L260.38 62.81ZM249.20 59.42L246.55 47.36L235.38 43.97L226.86 52.64L229.52 64.70L240.69 68.09ZM274.77 33.40L272.12 21.33L260.94 17.94L252.42 26.61L255.07 38.68L266.25 42.08ZM255.07 38.68L252.42 26.61L241.24 23.22L232.72 31.90L235.38 43.97L246.55 47.36ZM263.03 74.88L260.38 62.81L249.20 59.42L240.69 68.09L243.34 80.15L254.51 83.55ZM215.69 49.25L213.03 37.19L201.86 33.81L193.35 42.49L196.01 54.54L207.18 57.93ZM196.01 54.54L193.35 42.49L182.18 39.11L173.67 47.79L176.34 59.84L187.51 63.22ZM221.54 28.51L218.88 16.45L207.71 13.06L199.19 21.74L201.86 33.81L213.03 37.19ZM201.86 33.81L199.19 21.74L188.02 18.36L179.51 27.05L182.18 39.11L193.35 42.49ZM229.52 64.70L226.86 52.64L215.69 49.25L207.18 57.93L209.84 69.99L221.01 73.37ZM209.84 69.99L207.18 57.93L196.01 54.54L187.51 63.22L190.17 75.28L201.33 78.66ZM235.38 43.97L232.72 31.90L221.54 28.51L213.03 37.19L215.69 49.25L226.86 52.64ZM276.85 90.34L274.20 78.28L263.03 74.88L254.51 83.55L257.16 95.61L268.33 99.00ZM3.15 30.16L0.46 18.12L-10.69 14.78L-19.15 23.48L-16.46 35.51L-5.31 38.85ZM8.93 9.42L6.24 -2.62L-4.92 -5.96L-13.38 2.74L-10.69 14.78L0.46 18.12ZM16.99 45.54L14.31 33.50L3.15 30.16L-5.31 38.85L-2.62 50.89L8.53 54.23ZM22.77 24.81L20.08 12.77L8.93 9.42L0.46 18.12L3.15 30.16L14.31 33.50ZM48.19 -1.28L45.50 -13.32L34.34 -16.67L25.87 -7.97L28.55 4.07L39.71 7.42ZM28.55 4.07L25.87 -7.97L14.70 -11.32L6.24 -2.62L8.93 9.42L20.08 12.77ZM25.05 81.65L22.37 69.61L11.22 66.27L2.76 74.95L5.45 86.98L16.59 90.33ZM5.45 86.98L2.76 74.95L-8.38 71.61L-16.84 80.30L-14.15 92.32L-3.00 95.67ZM30.83 60.93L28.14 48.89L16.99 45.54L8.53 54.23L11.22 66.27L22.37 69.61ZM11.22 66.27L8.53 54.23L-2.62 50.89L-11.07 59.58L-8.38 71.61L2.76 74.95ZM38.88 97.03L36.20 85.00L25.05 81.65L16.59 90.33L19.28 102.36L30.42 105.71ZM19.28 102.36L16.59 90.33L5.45 86.98L-3.00 95.67L-0.32 107.69L10.82 111.04ZM44.66 76.31L41.98 64.28L30.83 60.93L22.37 69.61L25.05 81.65L36.20 85.00ZM56.24 34.86L53.56 22.82L42.40 19.47L33.93 28.16L36.61 40.20L47.77 43.55ZM36.61 40.20L33.93 28.16L22.77 24.81L14.31 33.50L16.99 45.54L28.14 48.89ZM62.03 14.13L59.35 2.08L48.19 -1.28L39.71 7.42L42.40 19.47L53.56 22.82ZM42.40 19.47L39.71 7.42L28.55 4.07L20.08 12.77L22.77 24.81L33.93 28.16ZM70.08 50.26L67.40 38.22L56.24 34.86L47.77 43.55L50.45 55.59L61.60 58.95ZM50.45 55.59L47.77 43.55L36.61 40.20L28.14 48.89L30.83 60.93L41.98 64.28ZM75.88 29.53L73.19 17.48L62.03 14.13L53.56 22.82L56.24 34.86L67.40 38.22ZM131.21 91.17L128.54 79.12L117.38 75.75L108.90 84.43L111.57 96.47L122.72 99.84ZM111.57 96.47L108.90 84.43L97.74 81.07L89.27 89.74L91.94 101.78L103.09 105.15ZM137.02 70.45L134.35 58.40L123.19 55.03L114.71 63.71L117.38 75.75L128.54 79.12ZM117.38 75.75L114.71 63.71L103.55 60.34L95.07 69.02L97.74 81.07L108.90 84.43ZM145.03 106.58L142.36 94.54L131.21 91.17L122.72 99.84L125.39 111.88L136.54 115.25ZM150.85 85.87L148.18 73.82L137.02 70.45L128.54 79.12L131.21 91.17L142.36 94.54ZM78.11 86.38L75.44 74.34L64.28 70.99L55.81 79.67L58.49 91.70L69.64 95.06ZM58.49 91.70L55.81 79.67L44.66 76.31L36.20 85.00L38.88 97.03L50.03 100.38ZM83.91 65.66L81.23 53.62L70.08 50.26L61.60 58.95L64.28 70.99L75.44 74.34ZM64.28 70.99L61.60 58.95L50.45 55.59L41.98 64.28L44.66 76.31L55.81 79.67ZM91.94 101.78L89.27 89.74L78.11 86.38L69.64 95.06L72.32 107.10L83.47 110.46ZM72.32 107.10L69.64 95.06L58.49 91.70L50.03 100.38L52.71 112.42L63.85 115.77ZM97.74 81.07L95.07 69.02L83.91 65.66L75.44 74.34L78.11 86.38L89.27 89.74Z"/><path data-band="2" fill="#f97316" fill-opacity="0.35" d="M261.34 209.32L258.70 197.28L247.55 193.88L239.05 202.53L241.70 214.57L252.84 217.97ZM267.20 188.63L264.55 176.59L253.40 173.19L244.90 181.84L247.55 193.88L258.70 197.28ZM275.14 224.77L272.49 212.73L261.34 209.32L252.84 217.97L255.49 230.01L266.64 233.41ZM196.59 245.75L193.94 233.72L182.80 230.34L174.32 238.98L176.98 251.01L188.11 254.39ZM176.98 251.01L174.32 238.98L163.19 235.60L154.71 244.24L157.37 256.27L168.50 259.65ZM202.42 225.08L199.77 213.04L188.63 209.66L180.14 218.30L182.80 230.34L193.94 233.72ZM182.80 230.34L180.14 218.30L169.00 214.92L160.53 223.57L163.19 235.60L174.32 238.98ZM210.38 261.17L207.73 249.14L196.59 245.75L188.11 254.39L190.77 266.42L201.90 269.81ZM190.77 266.42L188.11 254.39L176.98 251.01L168.50 259.65L171.16 271.67L182.29 275.06ZM216.22 240.50L213.57 228.47L202.42 225.08L193.94 233.72L196.59 245.75L207.73 249.14ZM143.58 240.87L140.92 228.84L129.78 225.47L121.31 234.12L123.98 246.14L135.11 249.51ZM123.98 246.14L121.31 234.12L110.18 230.74L101.72 239.39L104.39 251.41L115.52 254.78ZM149.39 220.19L146.73 208.16L135.59 204.79L127.12 213.44L129.78 225.47L140.92 228.84ZM129.78 225.47L127.12 213.44L115.98 210.07L107.52 218.72L110.18 230.74L121.31 234.12ZM157.37 256.27L154.71 244.24L143.58 240.87L135.11 249.51L137.77 261.53L148.90 264.91ZM137.77 261.53L135.11 249.51L123.98 246.14L115.52 254.78L118.18 266.80L129.31 270.18ZM163.19 235.60L160.53 223.57L149.39 220.19L140.92 228.84L143.58 240.87L154.71 244.24ZM227.90 199.14L225.24 187.10L214.10 183.70L205.60 192.36L208.26 204.39L219.40 207.78ZM208.26 204.39L205.60 192.36L194.46 188.97L185.97 197.62L188.63 209.66L199.77 213.04ZM233.74 178.44L231.09 166.40L219.94 163.01L211.44 171.66L214.10 183.70L225.24 187.10ZM214.10 183.70L211.44 171.66L200.29 168.28L191.80 176.93L194.46 188.97L205.60 192.36ZM241.70 214.57L239.05 202.53L227.90 199.14L219.40 207.78L222.06 219.82L233.20 223.22ZM222.06 219.82L219.40 207.78L208.26 204.39L199.77 213.04L202.42 225.08L213.57 228.47ZM247.55 193.88L244.90 181.84L233.74 178.44L225.24 187.10L227.90 199.14L239.05 202.53ZM174.82 194.24L172.16 182.20L161.02 178.82L152.54 187.48L155.20 199.51L166.34 202.89ZM155.20 199.51L152.54 187.48L141.40 184.10L132.92 192.76L135.59 204.79L146.73 208.16ZM180.65 173.55L177.99 161.51L166.84 158.13L158.36 166.79L161.02 178.82L172.16 182.20ZM161.02 178.82L158.36 166.79L147.21 163.41L138.73 172.07L141.40 184.10L152.54 187.48ZM188.63 209.66L185.97 197.62L174.82 194.24L166.34 202.89L169.00 214.92L180.14 218.30ZM169.00 214.92L166.34 202.89L155.20 199.51L146.73 208.16L149.39 220.19L160.53 223.57ZM194.46 188.97L191.80 176.93L180.65 173.55L172.16 182.20L174.82 194.24L185.97 197.62ZM249.64 250.69L246.99 238.65L235.85 235.25L227.36 243.89L230.01 255.93L241.15 259.32ZM230.01 255.93L227.36 243.89L216.22 240.50L207.73 249.14L210.38 261.17L221.52 264.56ZM255.49 230.01L252.84 217.97L241.70 214.57L233.20 223.22L235.85 235.25L246.99 238.65ZM235.85 235.25L233.20 223.22L222.06 219.82L213.57 228.47L216.22 240.50L227.36 243.89ZM263.43 266.12L260.78 254.08L249.64 250.69L241.15 259.32L243.80 271.35L254.93 274.75ZM243.80 271.35L241.15 259.32L230.01 255.93L221.52 264.56L224.17 276.59L235.31 279.99ZM269.28 245.45L266.64 233.41L255.49 230.01L246.99 238.65L249.64 250.69L260.78 254.08ZM251.30 116.33L248.65 104.27L237.49 100.88L228.98 109.54L231.63 121.59L242.79 124.99ZM231.63 121.59L228.98 109.54L217.81 106.15L209.31 114.82L211.97 126.87L223.13 130.26ZM198.15 111.43L195.49 99.38L184.33 96.00L175.83 104.67L178.50 116.71L189.65 120.10ZM178.50 116.71L175.83 104.67L164.68 101.29L156.19 109.96L158.85 122.00L170.00 125.38ZM259.26 152.49L256.61 140.43L245.45 137.04L236.94 145.70L239.59 157.75L250.75 161.14ZM239.59 157.75L236.94 145.70L225.78 142.30L217.28 150.96L219.94 163.01L231.09 166.40ZM265.12 131.78L262.47 119.72L251.30 116.33L242.79 124.99L245.45 137.04L256.61 140.43ZM245.45 137.04L242.79 124.99L231.63 121.59L223.13 130.26L225.78 142.30L236.94 145.70ZM273.06 167.94L270.42 155.89L259.26 152.49L250.75 161.14L253.40 173.19L264.55 176.59ZM253.40 173.19L250.75 161.14L239.59 157.75L231.09 166.40L233.74 178.44L244.90 181.84ZM206.13 147.57L203.47 135.53L192.31 132.14L183.82 140.81L186.48 152.85L197.63 156.23ZM186.48 152.85L183.82 140.81L172.67 137.42L164.18 146.09L166.84 158.13L177.99 161.51ZM211.97 126.87L209.31 114.82L198.15 111.43L189.65 120.10L192.31 132.14L203.47 135.53ZM192.31 132.14L189.65 120.10L178.50 116.71L170.00 125.38L172.67 137.42L183.82 140.81ZM219.94 163.01L217.28 150.96L206.13 147.57L197.63 156.23L200.29 168.28L211.44 171.66ZM200.29 168.28L197.63 156.23L186.48 152.85L177.99 161.51L180.65 173.55L191.80 176.93ZM225.78 142.30L223.13 130.26L211.97 126.87L203.47 135.53L206.13 147.57L217.28 150.96ZM270.98 111.06L268.33 99.00L257.16 95.61L248.65 104.27L251.30 116.33L262.47 119.72ZM7.74 143.76L5.06 131.74L-6.08 128.39L-14.52 137.07L-11.84 149.09L-0.71 152.44ZM13.51 123.06L10.82 111.04L-0.32 107.69L-8.77 116.37L-6.08 128.39L5.06 131.74ZM4.27 221.17L1.59 209.16L-9.53 205.82L-17.97 214.48L-15.28 226.49L-4.16 229.83ZM15.79 179.82L13.11 167.80L1.98 164.45L-6.46 173.12L-3.78 185.14L7.35 188.49ZM21.56 159.13L18.88 147.11L7.74 143.76L-0.71 152.44L1.98 164.45L13.11 167.80ZM1.98 164.45L-0.71 152.44L-11.84 149.09L-20.28 157.76L-17.59 169.78L-6.46 173.12ZM29.60 195.19L26.92 183.17L15.79 179.82L7.35 188.49L10.03 200.50L21.16 203.85ZM10.03 200.50L7.35 188.49L-3.78 185.14L-12.22 193.81L-9.53 205.82L1.59 209.16ZM35.37 174.51L32.69 162.49L21.56 159.13L13.11 167.80L15.79 179.82L26.92 183.17ZM65.23 261.98L62.56 249.96L51.44 246.60L42.99 255.26L45.67 267.26L56.79 270.62ZM45.67 267.26L42.99 255.26L31.87 251.90L23.43 260.55L26.11 272.56L37.23 275.91ZM12.32 257.20L9.64 245.19L-1.48 241.84L-9.91 250.50L-7.23 262.50L3.88 265.85ZM90.59 236.03L87.92 224.01L76.79 220.64L68.34 229.30L71.01 241.31L82.14 244.68ZM71.01 241.31L68.34 229.30L57.21 225.94L48.76 234.59L51.44 246.60L62.56 249.96ZM96.38 215.35L93.71 203.33L82.58 199.97L74.12 208.62L76.79 220.64L87.92 224.01ZM76.79 220.64L74.12 208.62L62.99 205.26L54.54 213.92L57.21 225.94L68.34 229.30ZM104.39 251.41L101.72 239.39L90.59 236.03L82.14 244.68L84.81 256.69L95.93 260.06ZM84.81 256.69L82.14 244.68L71.01 241.31L62.56 249.96L65.23 261.98L76.36 265.34ZM110.18 230.74L107.52 218.72L96.38 215.35L87.92 224.01L90.59 236.03L101.72 239.39ZM37.64 231.23L34.96 219.22L23.84 215.87L15.39 224.53L18.07 236.54L29.20 239.89ZM18.07 236.54L15.39 224.53L4.27 221.17L-4.16 229.83L-1.48 241.84L9.64 245.19ZM43.41 210.56L40.73 198.54L29.60 195.19L21.16 203.85L23.84 215.87L34.96 219.22ZM23.84 215.87L21.16 203.85L10.03 200.50L1.59 209.16L4.27 221.17L15.39 224.53ZM51.44 246.60L48.76 234.59L37.64 231.23L29.20 239.89L31.87 251.90L42.99 255.26ZM31.87 251.90L29.20 239.89L18.07 236.54L9.64 245.19L12.32 257.20L23.43 260.55ZM57.21 225.94L54.54 213.92L43.41 210.56L34.96 219.22L37.64 231.23L48.76 234.59ZM118.18 266.80L115.52 254.78L104.39 251.41L95.93 260.06L98.60 272.08L109.72 275.45ZM99.96 137.89L97.29 125.86L86.14 122.49L77.67 131.16L80.35 143.20L91.49 146.56ZM80.35 143.20L77.67 131.16L66.53 127.80L58.07 136.48L60.74 148.50L71.88 151.86ZM105.76 117.19L103.09 105.15L91.94 101.78L83.47 110.46L86.14 122.49L97.29 125.86ZM86.14 122.49L83.47 110.46L72.32 107.10L63.85 115.77L66.53 127.80L77.67 131.16ZM113.78 153.29L111.11 141.26L99.96 137.89L91.49 146.56L94.16 158.59L105.30 161.96ZM94.16 158.59L91.49 146.56L80.35 143.20L71.88 151.86L74.56 163.89L85.70 167.25ZM119.58 132.59L116.91 120.55L105.76 117.19L97.29 125.86L99.96 137.89L111.11 141.26ZM46.93 133.12L44.25 121.09L33.10 117.74L24.65 126.41L27.33 138.44L38.47 141.79ZM27.33 138.44L24.65 126.41L13.51 123.06L5.06 131.74L7.74 143.76L18.88 147.11ZM52.71 112.42L50.03 100.38L38.88 97.03L30.42 105.71L33.10 117.74L44.25 121.09ZM33.10 117.74L30.42 105.71L19.28 102.36L10.82 111.04L13.51 123.06L24.65 126.41ZM60.74 148.50L58.07 136.48L46.93 133.12L38.47 141.79L41.15 153.82L52.28 157.17ZM41.15 153.82L38.47 141.79L27.33 138.44L18.88 147.11L21.56 159.13L32.69 162.49ZM66.53 127.80L63.85 115.77L52.71 112.42L44.25 121.09L46.93 133.12L58.07 136.48ZM125.39 111.88L122.72 99.84L111.57 96.47L103.09 105.15L105.76 117.19L116.91 120.55ZM121.78 189.39L119.12 177.36L107.98 173.99L99.51 182.65L102.18 194.67L113.31 198.04ZM102.18 194.67L99.51 182.65L88.37 179.28L79.91 187.94L82.58 199.97L93.71 203.33ZM127.59 168.70L124.92 156.66L113.78 153.29L105.30 161.96L107.98 173.99L119.12 177.36ZM107.98 173.99L105.30 161.96L94.16 158.59L85.70 167.25L88.37 179.28L99.51 182.65ZM135.59 204.79L132.92 192.76L121.78 189.39L113.31 198.04L115.98 210.07L127.12 213.44ZM115.98 210.07L113.31 198.04L102.18 194.67L93.71 203.33L96.38 215.35L107.52 218.72ZM141.40 184.10L138.73 172.07L127.59 168.70L119.12 177.36L121.78 189.39L132.92 192.76ZM68.77 184.58L66.10 172.56L54.96 169.20L46.51 177.86L49.18 189.88L60.32 193.24ZM49.18 189.88L46.51 177.86L35.37 174.51L26.92 183.17L29.60 195.19L40.73 198.54ZM74.56 163.89L71.88 151.86L60.74 148.50L52.28 157.17L54.96 169.20L66.10 172.56ZM54.96 169.20L52.28 157.17L41.15 153.82L32.69 162.49L35.37 174.51L46.51 177.86ZM82.58 199.97L79.91 187.94L68.77 184.58L60.32 193.24L62.99 205.26L74.12 208.62ZM62.99 205.26L60.32 193.24L49.18 189.88L40.73 198.54L43.41 210.56L54.54 213.92ZM88.37 179.28L85.70 167.25L74.56 163.89L66.10 172.56L68.77 184.58L79.91 187.94ZM153.03 142.71L150.36 130.67L139.21 127.29L130.73 135.96L133.40 148.00L144.55 151.37ZM133.40 148.00L130.73 135.96L119.58 132.59L111.11 141.26L113.78 153.29L124.92 156.66ZM158.85 122.00L156.19 109.96L145.03 106.58L136.54 115.25L139.21 127.29L150.36 130.67ZM139.21 127.29L136.54 115.25L125.39 111.88L116.91 120.55L119.58 132.59L130.73 135.96ZM166.84 158.13L164.18 146.09L153.03 142.71L144.55 151.37L147.21 163.41L158.36 166.79ZM147.21 163.41L144.55 151.37L133.40 148.00L124.92 156.66L127.59 168.70L138.73 172.07ZM172.67 137.42L170.00 125.38L158.85 122.00L150.36 130.67L153.03 142.71L164.18 146.09Z"/></svg>
