<svg xmlns="http://www.w3.org/2000/svg" width="256" height="256" viewBox="0 0 256 256"><path data-band="3" fill="#dc2626" fill-opacity="0.35" d="M0.73 176.57L-1.92 164.67L-12.93 161.30L-21.28 169.83L-18.62 181.73L-7.62 185.10ZM8.69 212.27L6.04 200.37L-4.96 197.00L-13.30 205.53L-10.65 217.43L0.35 220.80ZM14.39 191.85L11.74 179.94L0.73 176.57L-7.62 185.10L-4.96 197.00L6.04 200.37ZM25.79 150.97L23.14 139.06L12.13 135.69L3.77 144.22L6.43 156.13L17.44 159.50ZM6.43 156.13L3.77 144.22L-7.24 140.86L-15.59 149.39L-12.93 161.30L-1.92 164.67ZM31.50 130.52L28.85 118.61L17.83 115.23L9.47 123.78L12.13 135.69L23.14 139.06ZM12.13 135.69L9.47 123.78L-1.54 120.41L-9.89 128.95L-7.24 140.86L3.77 144.22ZM39.45 166.26L36.80 154.35L25.79 150.97L17.44 159.50L20.09 171.41L31.10 174.79ZM20.09 171.41L17.44 159.50L6.43 156.13L-1.92 164.67L0.73 176.57L11.74 179.94ZM45.17 145.81L42.52 133.90L31.50 130.52L23.14 139.06L25.79 150.97L36.80 154.35ZM16.65 247.96L14.00 236.07L3.00 232.69L-5.34 241.21L-2.69 253.11L8.30 256.48ZM22.34 227.55L19.69 215.65L8.69 212.27L0.35 220.80L3.00 232.69L14.00 236.07ZM3.00 232.69L0.35 220.80L-10.65 217.43L-18.99 225.95L-16.33 237.84L-5.34 241.21ZM30.29 263.23L27.64 251.34L16.65 247.96L8.30 256.48L10.95 268.37L21.94 271.75ZM10.95 268.37L8.30 256.48L-2.69 253.11L-11.03 261.62L-8.37 273.51L2.61 276.89ZM35.99 242.82L33.34 230.92L22.34 227.55L14.00 236.07L16.65 247.96L27.64 251.34ZM47.40 201.98L44.75 190.07L33.75 186.69L25.39 195.22L28.04 207.12L39.04 210.50ZM28.04 207.12L25.39 195.22L14.39 191.85L6.04 200.37L8.69 212.27L19.69 215.65ZM53.11 181.54L50.46 169.64L39.45 166.26L31.10 174.79L33.75 186.69L44.75 190.07ZM33.75 186.69L31.10 174.79L20.09 171.41L11.74 179.94L14.39 191.85L25.39 195.22ZM61.05 217.26L58.41 205.36L47.40 201.98L39.04 210.50L41.69 222.40L52.69 225.78ZM41.69 222.40L39.04 210.50L28.04 207.12L19.69 215.65L22.34 227.55L33.34 230.92ZM66.77 196.84L64.12 184.93L53.11 181.54L44.75 190.07L47.40 201.98L58.41 205.36ZM34.97 53.84L32.31 41.91L21.28 38.54L12.91 47.09L15.57 59.02L26.60 62.39ZM15.57 59.02L12.91 47.09L1.89 43.72L-6.48 52.28L-3.82 64.20L7.21 67.57ZM40.69 33.36L38.03 21.43L27.00 18.05L18.63 26.61L21.28 38.54L32.31 41.91ZM21.28 38.54L18.63 26.61L7.60 23.24L-0.77 31.80L1.89 43.72L12.91 47.09ZM48.65 69.14L46.00 57.21L34.97 53.84L26.60 62.39L29.25 74.31L40.28 77.68ZM29.25 74.31L26.60 62.39L15.57 59.02L7.21 67.57L9.86 79.49L20.89 82.86ZM54.37 48.66L51.72 36.73L40.69 33.36L32.31 41.91L34.97 53.84L46.00 57.21ZM1.89 43.72L-0.77 31.80L-11.80 28.44L-20.16 36.99L-17.50 48.91L-6.48 52.28ZM65.83 7.69L63.18 -4.25L52.14 -7.63L43.76 0.93L46.41 12.87L57.45 16.24ZM46.41 12.87L43.76 0.93L32.72 -2.44L24.34 6.12L27.00 18.05L38.03 21.43ZM52.14 -7.63L49.48 -19.56L38.44 -22.94L30.06 -14.37L32.72 -2.44L43.76 0.93ZM79.52 23.00L76.87 11.07L65.83 7.69L57.45 16.24L60.10 28.18L71.13 31.56ZM60.10 28.18L57.45 16.24L46.41 12.87L38.03 21.43L40.69 33.36L51.72 36.73ZM85.26 2.51L82.61 -9.43L71.57 -12.81L63.18 -4.25L65.83 7.69L76.87 11.07ZM13.31 2.75L10.65 -9.18L-0.39 -12.54L-8.76 -3.98L-6.09 7.95L4.94 11.32ZM27.00 18.05L24.34 6.12L13.31 2.75L4.94 11.32L7.60 23.24L18.63 26.61ZM7.60 23.24L4.94 11.32L-6.09 7.95L-14.46 16.51L-11.80 28.44L-0.77 31.80ZM32.72 -2.44L30.06 -14.37L19.02 -17.74L10.65 -9.18L13.31 2.75L24.34 6.12ZM56.60 104.90L53.95 92.98L42.93 89.60L34.56 98.15L37.21 110.07L48.23 113.44ZM37.21 110.07L34.56 98.15L23.54 94.77L15.18 103.32L17.83 115.23L28.85 118.61ZM62.33 84.44L59.67 72.51L48.65 69.14L40.28 77.68L42.93 89.60L53.95 92.98ZM42.93 89.60L40.28 77.68L29.25 74.31L20.89 82.86L23.54 94.77L34.56 98.15ZM70.27 120.20L67.62 108.28L56.60 104.90L48.23 113.44L50.88 125.36L61.90 128.74ZM50.88 125.36L48.23 113.44L37.21 110.07L28.85 118.61L31.50 130.52L42.52 133.90ZM76.00 99.74L73.35 87.82L62.33 84.44L53.95 92.98L56.60 104.90L67.62 108.28ZM4.16 99.95L1.50 88.03L-9.52 84.67L-17.87 93.22L-15.21 105.13L-4.20 108.49ZM9.86 79.49L7.21 67.57L-3.82 64.20L-12.18 72.75L-9.52 84.67L1.50 88.03ZM17.83 115.23L15.18 103.32L4.16 99.95L-4.20 108.49L-1.54 120.41L9.47 123.78ZM23.54 94.77L20.89 82.86L9.86 79.49L1.50 88.03L4.16 99.95L15.18 103.32ZM87.47 58.80L84.82 46.87L73.78 43.49L65.40 52.04L68.05 63.97L79.08 67.35ZM68.05 63.97L65.40 52.04L54.37 48.66L46.00 57.21L48.65 69.14L59.67 72.51ZM93.20 38.32L90.56 26.38L79.52 23.00L71.13 31.56L73.78 43.49L84.82 46.87ZM73.78 43.49L71.13 31.56L60.10 28.18L51.72 36.73L54.37 48.66L65.40 52.04ZM101.14 74.12L98.50 62.19L87.47 58.80L79.08 67.35L81.73 79.28L92.76 82.66ZM81.73 79.28L79.08 67.35L68.05 63.97L59.67 72.51L62.33 84.44L73.35 87.82ZM106.89 53.64L104.24 41.71L93.20 38.32L84.82 46.87L87.47 58.80L98.50 62.19ZM121.35 258.02L118.71 246.12L107.71 242.72L99.34 251.24L101.98 263.14L112.98 266.53ZM101.98 263.14L99.34 251.24L88.34 247.84L79.98 256.36L82.62 268.26L93.62 271.65ZM127.08 237.61L124.45 225.70L113.44 222.30L105.07 230.82L107.71 242.72L118.71 246.12ZM107.71 242.72L105.07 230.82L94.06 227.42L85.70 235.94L88.34 247.84L99.34 251.24ZM140.73 252.91L138.09 241.00L127.08 237.61L118.71 246.12L121.35 258.02L132.35 261.42ZM68.98 252.97L66.34 241.07L55.34 237.69L46.99 246.20L49.63 258.10L60.63 261.48ZM49.63 258.10L46.99 246.20L35.99 242.82L27.64 251.34L30.29 263.23L41.28 266.61ZM74.70 232.55L72.05 220.65L61.05 217.26L52.69 225.78L55.34 237.69L66.34 241.07ZM55.34 237.69L52.69 225.78L41.69 222.40L33.34 230.92L35.99 242.82L46.99 246.20ZM82.62 268.26L79.98 256.36L68.98 252.97L60.63 261.48L63.27 273.38L74.27 276.77ZM88.34 247.84L85.70 235.94L74.70 232.55L66.34 241.07L68.98 252.97L79.98 256.36ZM266.67 125.17L264.05 113.23L253.01 109.81L244.60 118.34L247.22 130.28L258.26 133.70ZM247.22 130.28L244.60 118.34L233.56 114.92L225.15 123.45L227.77 135.39L238.81 138.80ZM272.48 104.70L269.85 92.76L258.81 89.34L250.39 97.87L253.01 109.81L264.05 113.23ZM253.01 109.81L250.39 97.87L239.35 94.45L230.93 102.98L233.56 114.92L244.60 118.34ZM260.88 145.64L258.26 133.70L247.22 130.28L238.81 138.80L241.43 150.74L252.46 154.16ZM214.11 120.04L211.48 108.10L200.45 104.69L192.04 113.22L194.67 125.16L205.70 128.56ZM194.67 125.16L192.04 113.22L181.01 109.82L172.61 118.35L175.24 130.28L186.27 133.68ZM219.89 99.57L217.26 87.63L206.22 84.22L197.82 92.75L200.45 104.69L211.48 108.10ZM200.45 104.69L197.82 92.75L186.78 89.35L178.37 97.88L181.01 109.82L192.04 113.22ZM227.77 135.39L225.15 123.45L214.11 120.04L205.70 128.56L208.33 140.50L219.36 143.91ZM208.33 140.50L205.70 128.56L194.67 125.16L186.27 133.68L188.90 145.62L199.93 149.02ZM233.56 114.92L230.93 102.98L219.89 99.57L211.48 108.10L214.11 120.04L225.15 123.45ZM245.14 73.97L242.51 62.02L231.47 58.61L223.05 67.15L225.68 79.09L236.72 82.51ZM225.68 79.09L223.05 67.15L212.01 63.74L203.59 72.28L206.22 84.22L217.26 87.63ZM250.94 53.49L248.31 41.54L237.26 38.12L228.84 46.66L231.47 58.61L242.51 62.02ZM231.47 58.61L228.84 46.66L217.79 43.25L209.38 51.79L212.01 63.74L223.05 67.15ZM258.81 89.34L256.19 77.39L245.14 73.97L236.72 82.51L239.35 94.45L250.39 97.87ZM239.35 94.45L236.72 82.51L225.68 79.09L217.26 87.63L219.89 99.57L230.93 102.98ZM264.61 68.86L261.99 56.90L250.94 53.49L242.51 62.02L245.14 73.97L256.19 77.39ZM268.73 181.45L266.12 169.51L255.08 166.09L246.67 174.61L249.29 186.54L260.32 189.96ZM274.53 161.00L271.91 149.06L260.88 145.64L252.46 154.16L255.08 166.09L266.12 169.51ZM235.64 171.19L233.02 159.26L221.99 155.84L213.59 164.36L216.21 176.29L227.24 179.71ZM216.21 176.29L213.59 164.36L202.56 160.95L194.16 169.47L196.79 181.40L207.81 184.81ZM241.43 150.74L238.81 138.80L227.77 135.39L219.36 143.91L221.99 155.84L233.02 159.26ZM221.99 155.84L219.36 143.91L208.33 140.50L199.93 149.02L202.56 160.95L213.59 164.36ZM249.29 186.54L246.67 174.61L235.64 171.19L227.24 179.71L229.86 191.64L240.89 195.05ZM229.86 191.64L227.24 179.71L216.21 176.29L207.81 184.81L210.44 196.74L221.46 200.15ZM255.08 166.09L252.46 154.16L241.43 150.74L233.02 159.26L235.64 171.19L246.67 174.61ZM130.66 160.99L128.02 149.07L117.00 145.67L108.62 154.20L111.26 166.12L122.28 169.52ZM111.26 166.12L108.62 154.20L97.60 150.81L89.23 159.34L91.87 171.26L102.88 174.65ZM136.40 140.54L133.77 128.61L122.74 125.22L114.36 133.75L117.00 145.67L128.02 149.07ZM117.00 145.67L114.36 133.75L103.34 130.36L94.96 138.89L97.60 150.81L108.62 154.20ZM144.31 176.31L141.68 164.39L130.66 160.99L122.28 169.52L124.91 181.43L135.93 184.83ZM124.91 181.43L122.28 169.52L111.26 166.12L102.88 174.65L105.52 186.56L116.54 189.96ZM150.06 155.86L147.43 143.94L136.40 140.54L128.02 149.07L130.66 160.99L141.68 164.39ZM78.21 155.96L75.56 144.04L64.55 140.66L56.18 149.19L58.83 161.10L69.84 164.49ZM58.83 161.10L56.18 149.19L45.17 145.81L36.80 154.35L39.45 166.26L50.46 169.64ZM83.94 135.51L81.29 123.59L70.27 120.20L61.90 128.74L64.55 140.66L75.56 144.04ZM64.55 140.66L61.90 128.74L50.88 125.36L42.52 133.90L45.17 145.81L56.18 149.19ZM91.87 171.26L89.23 159.34L78.21 155.96L69.84 164.49L72.49 176.40L83.50 179.79ZM72.49 176.40L69.84 164.49L58.83 161.10L50.46 169.64L53.11 181.54L64.12 184.93ZM97.60 150.81L94.96 138.89L83.94 135.51L75.56 144.04L78.21 155.96L89.23 159.34ZM161.58 114.95L158.94 103.02L147.91 99.62L139.52 108.15L142.15 120.08L153.18 123.48ZM142.15 120.08L139.52 108.15L128.49 104.76L120.10 113.29L122.74 125.22L133.77 128.61ZM167.34 94.48L164.70 82.54L153.67 79.15L145.27 87.68L147.91 99.62L158.94 103.02ZM147.91 99.62L145.27 87.68L134.24 84.29L125.85 92.83L128.49 104.76L139.52 108.15ZM175.24 130.28L172.61 118.35L161.58 114.95L153.18 123.48L155.82 135.41L166.85 138.81ZM155.82 135.41L153.18 123.48L142.15 120.08L133.77 128.61L136.40 140.54L147.43 143.94ZM181.01 109.82L178.37 97.88L167.34 94.48L158.94 103.02L161.58 114.95L172.61 118.35ZM109.07 109.90L106.43 97.98L95.40 94.59L87.02 103.13L89.67 115.05L100.69 118.44ZM89.67 115.05L87.02 103.13L76.00 99.74L67.62 108.28L70.27 120.20L81.29 123.59ZM114.82 89.44L112.17 77.51L101.14 74.12L92.76 82.66L95.40 94.59L106.43 97.98ZM95.40 94.59L92.76 82.66L81.73 79.28L73.35 87.82L76.00 99.74L87.02 103.13ZM122.74 125.22L120.10 113.29L109.07 109.90L100.69 118.44L103.34 130.36L114.36 133.75ZM103.34 130.36L100.69 118.44L89.67 115.05L81.29 123.59L83.94 135.51L94.96 138.89ZM128.49 104.76L125.85 92.83L114.82 89.44L106.43 97.98L109.07 109.90L120.10 113.29ZM152.21 212.06L149.58 200.15L138.57 196.75L130.19 205.27L132.82 217.18L143.84 220.58ZM132.82 217.18L130.19 205.27L119.18 201.87L110.80 210.39L113.44 222.30L124.45 225.70ZM157.97 191.63L155.33 179.71L144.31 176.31L135.93 184.83L138.57 196.75L149.58 200.15ZM138.57 196.75L135.93 184.83L124.91 181.43L116.54 189.96L119.18 201.87L130.19 205.27ZM165.86 227.38L163.23 215.47L152.21 212.06L143.84 220.58L146.47 232.49L157.48 235.89ZM146.47 232.49L143.84 220.58L132.82 217.18L124.45 225.70L127.08 237.61L138.09 241.00ZM171.61 206.95L168.98 195.03L157.97 191.63L149.58 200.15L152.21 212.06L163.23 215.47ZM99.79 207.00L97.15 195.09L86.14 191.70L77.77 200.22L80.42 212.13L91.42 215.52ZM80.42 212.13L77.77 200.22L66.77 196.84L58.41 205.36L61.05 217.26L72.05 220.65ZM105.52 186.56L102.88 174.65L91.87 171.26L83.50 179.79L86.14 191.70L97.15 195.09ZM86.14 191.70L83.50 179.79L72.49 176.40L64.12 184.93L66.77 196.84L77.77 200.22ZM113.44 222.30L110.80 210.39L99.79 207.00L91.42 215.52L94.06 227.42L105.07 230.82ZM94.06 227.42L91.42 215.52L80.42 212.13L72.05 220.65L74.70 232.55L85.70 235.94ZM119.18 201.87L116.54 189.96L105.52 186.56L97.15 195.09L99.79 207.00L110.80 210.39ZM183.14 166.07L180.50 154.14L169.48 150.74L161.09 159.26L163.72 171.19L174.74 174.59ZM163.72 171.19L161.09 159.26L150.06 155.86L141.68 164.39L144.31 176.31L155.33 179.71ZM188.90 145.62L186.27 133.68L175.24 130.28L166.85 138.81L169.48 150.74L180.50 154.14ZM169.48 150.74L166.85 138.81L155.82 135.41L147.43 143.94L150.06 155.86L161.09 159.26ZM196.79 181.40L194.16 169.47L183.14 166.07L174.74 174.59L177.37 186.51L188.39 189.92ZM177.37 186.51L174.74 174.59L163.72 171.19L155.33 179.71L157.97 191.63L168.98 195.03ZM202.56 160.95L199.93 149.02L188.90 145.62L180.50 154.14L183.14 166.07L194.16 169.47ZM268.35 -8.01L265.73 -19.97L254.67 -23.39L246.23 -14.84L248.86 -2.88L259.92 0.54ZM248.86 -2.88L246.23 -14.84L235.17 -18.25L226.74 -9.70L229.37 2.26L240.43 5.67ZM276.23 27.87L273.60 15.91L262.54 12.50L254.11 21.04L256.74 33.00L267.79 36.41ZM256.74 33.00L254.11 21.04L243.06 17.63L234.63 26.17L237.26 38.12L248.31 41.54ZM262.54 12.50L259.92 0.54L248.86 -2.88L240.43 5.67L243.06 17.63L254.11 21.04ZM270.42 48.37L267.79 36.41L256.74 33.00L248.31 41.54L250.94 53.49L261.99 56.90ZM170.97 17.69L168.33 5.74L157.28 2.34L148.87 10.90L151.51 22.84L162.56 26.24ZM151.51 22.84L148.87 10.90L137.83 7.50L129.43 16.05L132.07 28.00L143.11 31.39ZM176.74 -2.81L174.10 -14.76L163.05 -18.16L154.64 -9.60L157.28 2.34L168.33 5.74ZM157.28 2.34L154.64 -9.60L143.59 -13.00L135.18 -4.44L137.83 7.50L148.87 10.90ZM184.65 33.04L182.01 21.09L170.97 17.69L162.56 26.24L165.20 38.18L176.24 41.58ZM165.20 38.18L162.56 26.24L151.51 22.84L143.11 31.39L145.75 43.33L156.79 46.73ZM190.43 12.54L187.79 0.59L176.74 -2.81L168.33 5.74L170.97 17.69L182.01 21.09ZM118.38 12.67L115.74 0.72L104.69 -2.66L96.30 5.89L98.95 17.83L109.99 21.22ZM98.95 17.83L96.30 5.89L85.26 2.51L76.87 11.07L79.52 23.00L90.56 26.38ZM124.14 -7.83L121.49 -19.78L110.44 -23.17L102.05 -14.61L104.69 -2.66L115.74 0.72ZM104.69 -2.66L102.05 -14.61L91.00 -17.99L82.61 -9.43L85.26 2.51L96.30 5.89ZM132.07 28.00L129.43 16.05L118.38 12.67L109.99 21.22L112.63 33.16L123.67 36.55ZM112.63 33.16L109.99 21.22L98.95 17.83L90.56 26.38L93.20 38.32L104.24 41.71ZM137.83 7.50L135.18 -4.44L124.14 -7.83L115.74 0.72L118.38 12.67L129.43 16.05ZM196.21 -7.96L193.57 -19.92L182.52 -23.32L174.10 -14.76L176.74 -2.81L187.79 0.59ZM192.55 68.87L189.92 56.93L178.88 53.52L170.47 62.07L173.11 74.01L184.14 77.41ZM173.11 74.01L170.47 62.07L159.43 58.67L151.03 67.21L153.67 79.15L164.70 82.54ZM198.33 48.39L195.70 36.44L184.65 33.04L176.24 41.58L178.88 53.52L189.92 56.93ZM178.88 53.52L176.24 41.58L165.20 38.18L156.79 46.73L159.43 58.67L170.47 62.07ZM206.22 84.22L203.59 72.28L192.55 68.87L184.14 77.41L186.78 89.35L197.82 92.75ZM186.78 89.35L184.14 77.41L173.11 74.01L164.70 82.54L167.34 94.48L178.37 97.88ZM212.01 63.74L209.38 51.79L198.33 48.39L189.92 56.93L192.55 68.87L203.59 72.28ZM139.99 63.81L137.35 51.88L126.31 48.48L117.92 57.03L120.56 68.96L131.60 72.36ZM120.56 68.96L117.92 57.03L106.89 53.64L98.50 62.19L101.14 74.12L112.17 77.51ZM145.75 43.33L143.11 31.39L132.07 28.00L123.67 36.55L126.31 48.48L137.35 51.88ZM126.31 48.48L123.67 36.55L112.63 33.16L104.24 41.71L106.89 53.64L117.92 57.03ZM153.67 79.15L151.03 67.21L139.99 63.81L131.60 72.36L134.24 84.29L145.27 87.68ZM134.24 84.29L131.60 72.36L120.56 68.96L112.17 77.51L114.82 89.44L125.85 92.83ZM159.43 58.67L156.79 46.73L145.75 43.33L137.35 51.88L139.99 63.81L151.03 67.21ZM223.58 22.76L220.95 10.81L209.90 7.40L201.48 15.95L204.11 27.90L215.16 31.30ZM204.11 27.90L201.48 15.95L190.43 12.54L182.01 21.09L184.65 33.04L195.70 36.44ZM229.37 2.26L226.74 -9.70L215.69 -13.11L207.26 -4.56L209.90 7.40L220.95 10.81ZM209.90 7.40L207.26 -4.56L196.21 -7.96L187.79 0.59L190.43 12.54L201.48 15.95ZM237.26 38.12L234.63 26.17L223.58 22.76L215.16 31.30L217.79 43.25L228.84 46.66ZM217.79 43.25L215.16 31.30L204.11 27.90L195.70 36.44L198.33 48.39L209.38 51.79ZM243.06 17.63L240.43 5.67L229.37 2.26L220.95 10.81L223.58 22.76L234.63 26.17ZM226.17 268.27L223.55 256.35L212.54 252.93L204.15 261.44L206.77 273.35L217.78 276.77ZM231.95 247.85L229.33 235.92L218.31 232.51L209.92 241.02L212.54 252.93L223.55 256.35ZM212.54 252.93L209.92 241.02L198.90 237.60L190.51 246.11L193.14 258.03L204.15 261.44ZM245.58 263.18L242.97 251.26L231.95 247.85L223.55 256.35L226.17 268.27L237.19 271.68ZM173.75 263.12L171.12 251.21L160.11 247.81L151.73 256.31L154.36 268.22L165.37 271.63ZM154.36 268.22L151.73 256.31L140.73 252.91L132.35 261.42L134.99 273.33L145.99 276.73ZM179.50 242.70L176.87 230.79L165.86 227.38L157.48 235.89L160.11 247.81L171.12 251.21ZM160.11 247.81L157.48 235.89L146.47 232.49L138.09 241.00L140.73 252.91L151.73 256.31ZM193.14 258.03L190.51 246.11L179.50 242.70L171.12 251.21L173.75 263.12L184.76 266.53ZM257.15 222.33L254.53 210.40L243.51 206.98L235.11 215.49L237.73 227.42L248.75 230.84ZM237.73 227.42L235.11 215.49L224.08 212.08L215.69 220.59L218.31 232.51L229.33 235.92ZM262.94 201.89L260.32 189.96L249.29 186.54L240.89 195.05L243.51 206.98L254.53 210.40ZM243.51 206.98L240.89 195.05L229.86 191.64L221.46 200.15L224.08 212.08L235.11 215.49ZM270.79 237.68L268.17 225.75L257.15 222.33L248.75 230.84L251.37 242.76L262.38 246.18ZM251.37 242.76L248.75 230.84L237.73 227.42L229.33 235.92L231.95 247.85L242.97 251.26ZM276.58 217.25L273.97 205.32L262.94 201.89L254.53 210.40L257.15 222.33L268.17 225.75ZM204.67 217.17L202.04 205.25L191.02 201.84L182.63 210.36L185.26 222.28L196.28 225.68ZM185.26 222.28L182.63 210.36L171.61 206.95L163.23 215.47L165.86 227.38L176.87 230.79ZM210.44 196.74L207.81 184.81L196.79 181.40L188.39 189.92L191.02 201.84L202.04 205.25ZM191.02 201.84L188.39 189.92L177.37 186.51L168.98 195.03L171.61 206.95L182.63 210.36ZM218.31 232.51L215.69 220.59L204.67 217.17L196.28 225.68L198.90 237.60L209.92 241.02ZM198.90 237.60L196.28 225.68L185.26 222.28L176.87 230.79L179.50 242.70L190.51 246.11ZM224.08 212.08L221.46 200.15L210.44 196.74L202.04 205.25L204.67 217.17L215.69 220.59ZM265.00 258.11L262.38 246.18L251.37 242.76L242.97 251.26L245.58 263.18L256.60 266.61Z"/></svg>
