<svg xmlns="http://www.w3.org/2000/svg" width="256" height="256" viewBox="0 0 256 256"><path data-band="2" fill="#f97316" fill-opacity="0.35" d="M257.54 12.54L254.96 0.77L244.11 -2.68L235.84 5.64L238.42 17.41L249.27 20.86ZM263.24 -7.55L260.66 -19.32L249.81 -22.77L241.53 -14.45L244.11 -2.68L254.96 0.77ZM244.11 -2.68L241.53 -14.45L230.67 -17.89L222.40 -9.57L224.99 2.20L235.84 5.64ZM270.97 27.76L268.39 15.99L257.54 12.54L249.27 20.86L251.85 32.62L262.69 36.07ZM251.85 32.62L249.27 20.86L238.42 17.41L230.15 25.73L232.73 37.49L243.57 40.94ZM276.67 7.67L274.10 -4.10L263.24 -7.55L254.96 0.77L257.54 12.54L268.39 15.99ZM259.57 67.91L257.00 56.15L246.15 52.70L237.89 61.01L240.46 72.76L251.31 76.22ZM265.27 47.84L262.69 36.07L251.85 32.62L243.57 40.94L246.15 52.70L257.00 56.15ZM272.99 83.12L270.42 71.36L259.57 67.91L251.31 76.22L253.88 87.97L264.72 91.43ZM170.40 257.91L167.82 246.18L157.01 242.74L148.79 251.03L151.37 262.75L162.18 266.18ZM176.05 237.90L173.47 226.18L162.66 222.74L154.43 231.02L157.01 242.74L167.82 246.18ZM187.35 197.87L184.77 186.14L173.96 182.70L165.72 190.99L168.31 202.72L179.12 206.16ZM193.01 177.85L190.43 166.11L179.61 162.67L171.37 170.97L173.96 182.70L184.77 186.14ZM200.75 213.05L198.17 201.32L187.35 197.87L179.12 206.16L181.70 217.89L192.51 221.33ZM181.70 217.89L179.12 206.16L168.31 202.72L160.08 211.01L162.66 222.74L173.47 226.18ZM206.41 193.03L203.83 181.29L193.01 177.85L184.77 186.14L187.35 197.87L198.17 201.32ZM210.01 117.74L207.43 105.99L196.60 102.55L188.35 110.85L190.93 122.59L201.76 126.04ZM190.93 122.59L188.35 110.85L177.52 107.41L169.28 115.72L171.86 127.46L182.69 130.90ZM215.68 97.68L213.10 85.93L202.27 82.49L194.02 90.80L196.60 102.55L207.43 105.99ZM227.04 57.56L224.46 45.80L213.62 42.36L205.36 50.67L207.94 62.43L218.78 65.87ZM240.46 72.76L237.89 61.01L227.04 57.56L218.78 65.87L221.36 77.63L232.20 81.07ZM221.36 77.63L218.78 65.87L207.94 62.43L199.69 70.74L202.27 82.49L213.10 85.93ZM246.15 52.70L243.57 40.94L232.73 37.49L224.46 45.80L227.04 57.56L237.89 61.01ZM259.97 253.77L257.40 242.04L246.58 238.58L238.34 246.86L240.91 258.59L251.72 262.05ZM240.91 258.59L238.34 246.86L227.53 243.41L219.29 251.69L221.86 263.41L232.67 266.86ZM265.65 233.76L263.08 222.02L252.26 218.57L244.01 226.85L246.58 238.58L257.40 242.04ZM246.58 238.58L244.01 226.85L233.20 223.40L224.95 231.68L227.53 243.41L238.34 246.86ZM273.35 268.96L270.78 257.23L259.97 253.77L251.72 262.05L254.29 273.77L265.10 277.23ZM208.48 248.24L205.90 236.51L195.09 233.06L186.86 241.34L189.44 253.07L200.24 256.51ZM189.44 253.07L186.86 241.34L176.05 237.90L167.82 246.18L170.40 257.91L181.21 261.35ZM214.14 228.23L211.56 216.50L200.75 213.05L192.51 221.33L195.09 233.06L205.90 236.51ZM195.09 233.06L192.51 221.33L181.70 217.89L173.47 226.18L176.05 237.90L186.86 241.34ZM221.86 263.41L219.29 251.69L208.48 248.24L200.24 256.51L202.82 268.24L213.63 271.69ZM202.82 268.24L200.24 256.51L189.44 253.07L181.21 261.35L183.78 273.07L194.59 276.51ZM227.53 243.41L224.95 231.68L214.14 228.23L205.90 236.51L208.48 248.24L219.29 251.69ZM269.32 158.48L266.75 146.74L255.91 143.28L247.66 151.57L250.23 163.32L261.06 166.77ZM250.23 163.32L247.66 151.57L236.83 148.12L228.57 156.42L231.15 168.16L241.97 171.61ZM275.01 138.44L272.44 126.69L261.60 123.23L253.34 131.53L255.91 143.28L266.75 146.74ZM255.91 143.28L253.34 131.53L242.51 128.08L234.25 136.38L236.83 148.12L247.66 151.57ZM263.63 178.52L261.06 166.77L250.23 163.32L241.97 171.61L244.55 183.35L255.37 186.81ZM217.75 152.97L215.17 141.23L204.34 137.78L196.10 146.08L198.68 157.82L209.50 161.26ZM198.68 157.82L196.10 146.08L185.27 142.64L177.03 150.94L179.61 162.67L190.43 166.11ZM223.42 132.93L220.84 121.18L210.01 117.74L201.76 126.04L204.34 137.78L215.17 141.23ZM204.34 137.78L201.76 126.04L190.93 122.59L182.69 130.90L185.27 142.64L196.10 146.08ZM231.15 168.16L228.57 156.42L217.75 152.97L209.50 161.26L212.08 173.00L222.90 176.45ZM212.08 173.00L209.50 161.26L198.68 157.82L190.43 166.11L193.01 177.85L203.83 181.29ZM236.83 148.12L234.25 136.38L223.42 132.93L215.17 141.23L217.75 152.97L228.57 156.42ZM248.19 108.03L245.62 96.28L234.78 92.83L226.52 101.13L229.10 112.88L239.93 116.33ZM229.10 112.88L226.52 101.13L215.68 97.68L207.43 105.99L210.01 117.74L220.84 121.18ZM253.88 87.97L251.31 76.22L240.46 72.76L232.20 81.07L234.78 92.83L245.62 96.28ZM234.78 92.83L232.20 81.07L221.36 77.63L213.10 85.93L215.68 97.68L226.52 101.13ZM261.60 123.23L259.03 111.48L248.19 108.03L239.93 116.33L242.51 128.08L253.34 131.53ZM242.51 128.08L239.93 116.33L229.10 112.88L220.84 121.18L223.42 132.93L234.25 136.38ZM267.29 103.18L264.72 91.43L253.88 87.97L245.62 96.28L248.19 108.03L259.03 111.48ZM271.34 213.74L268.77 202.00L257.94 198.55L249.69 206.83L252.26 218.57L263.08 222.02ZM277.02 193.72L274.46 181.98L263.63 178.52L255.37 186.81L257.94 198.55L268.77 202.00ZM238.87 203.38L236.30 191.64L225.48 188.19L217.23 196.48L219.81 208.21L230.62 211.66ZM219.81 208.21L217.23 196.48L206.41 193.03L198.17 201.32L200.75 213.05L211.56 216.50ZM244.55 183.35L241.97 171.61L231.15 168.16L222.90 176.45L225.48 188.19L236.30 191.64ZM225.48 188.19L222.90 176.45L212.08 173.00L203.83 181.29L206.41 193.03L217.23 196.48ZM252.26 218.57L249.69 206.83L238.87 203.38L230.62 211.66L233.20 223.40L244.01 226.85ZM233.20 223.40L230.62 211.66L219.81 208.21L211.56 216.50L214.14 228.23L224.95 231.68ZM257.94 198.55L255.37 186.81L244.55 183.35L236.30 191.64L238.87 203.38L249.69 206.83Z"/><path data-band="3" fill="#dc2626" fill-opacity="0.35" d="M238.42 17.41L235.84 5.64L224.99 2.20L216.72 10.52L219.30 22.28L230.15 25.73ZM102.61 -3.72L100.02 -15.48L89.17 -18.90L80.94 -10.56L83.54 1.19L94.38 4.61ZM83.54 1.19L80.94 -10.56L70.10 -13.98L61.87 -5.65L64.47 6.10L75.30 9.52ZM116.05 11.45L113.45 -0.30L102.61 -3.72L94.38 4.61L96.97 16.35L107.81 19.78ZM96.97 16.35L94.38 4.61L83.54 1.19L75.30 9.52L77.91 21.26L88.74 24.68ZM31.97 -4.13L29.36 -15.88L18.53 -19.29L10.31 -10.95L12.92 0.79L23.75 4.20ZM64.47 6.10L61.87 -5.65L51.03 -9.06L42.80 -0.73L45.41 11.02L56.24 14.43ZM45.41 11.02L42.80 -0.73L31.97 -4.13L23.75 4.20L26.36 15.94L37.19 19.35ZM12.92 0.79L10.31 -10.95L-0.52 -14.35L-8.74 -6.01L-6.12 5.72L4.70 9.13ZM135.87 192.41L133.28 180.69L122.47 177.25L114.24 185.55L116.83 197.28L127.64 200.71ZM116.83 197.28L114.24 185.55L103.43 182.12L95.22 190.42L97.81 202.14L108.62 205.57ZM141.51 172.39L138.92 160.66L128.10 157.23L119.88 165.53L122.47 177.25L133.28 180.69ZM122.47 177.25L119.88 165.53L109.06 162.10L100.84 170.40L103.43 182.12L114.24 185.55ZM149.26 207.57L146.68 195.85L135.87 192.41L127.64 200.71L130.23 212.43L141.04 215.86ZM130.23 212.43L127.64 200.71L116.83 197.28L108.62 205.57L111.21 217.29L122.01 220.72ZM154.91 187.55L152.32 175.82L141.51 172.39L133.28 180.69L135.87 192.41L146.68 195.85ZM84.41 187.00L81.82 175.27L71.01 171.85L62.80 180.15L65.39 191.87L76.20 195.29ZM65.39 191.87L62.80 180.15L51.99 176.73L43.78 185.03L46.38 196.75L57.19 200.17ZM90.03 166.97L87.44 155.25L76.62 151.83L68.41 160.13L71.01 171.85L81.82 175.27ZM71.01 171.85L68.41 160.13L57.60 156.71L49.39 165.01L51.99 176.73L62.80 180.15ZM97.81 202.14L95.22 190.42L84.41 187.00L76.20 195.29L78.79 207.01L89.60 210.43ZM78.79 207.01L76.20 195.29L65.39 191.87L57.19 200.17L59.78 211.88L70.58 215.30ZM103.43 182.12L100.84 170.40L90.03 166.97L81.82 175.27L84.41 187.00L95.22 190.42ZM166.21 147.50L163.62 135.76L152.80 132.32L144.56 140.63L147.15 152.36L157.97 155.80ZM147.15 152.36L144.56 140.63L133.74 137.19L125.51 145.50L128.10 157.23L138.92 160.66ZM171.86 127.46L169.28 115.72L158.45 112.28L150.21 120.59L152.80 132.32L163.62 135.76ZM152.80 132.32L150.21 120.59L139.39 117.15L131.15 125.46L133.74 137.19L144.56 140.63ZM179.61 162.67L177.03 150.94L166.21 147.50L157.97 155.80L160.56 167.53L171.37 170.97ZM160.56 167.53L157.97 155.80L147.15 152.36L138.92 160.66L141.51 172.39L152.32 175.82ZM185.27 142.64L182.69 130.90L171.86 127.46L163.62 135.76L166.21 147.50L177.03 150.94ZM114.70 142.07L112.10 130.33L101.28 126.91L93.06 135.22L95.66 146.94L106.47 150.37ZM95.66 146.94L93.06 135.22L82.25 131.79L74.03 140.10L76.62 151.83L87.44 155.25ZM120.33 122.03L117.74 110.29L106.92 106.87L98.69 115.18L101.28 126.91L112.10 130.33ZM101.28 126.91L98.69 115.18L87.87 111.75L79.65 120.06L82.25 131.79L93.06 135.22ZM128.10 157.23L125.51 145.50L114.70 142.07L106.47 150.37L109.06 162.10L119.88 165.53ZM109.06 162.10L106.47 150.37L95.66 146.94L87.44 155.25L90.03 166.97L100.84 170.40ZM133.74 137.19L131.15 125.46L120.33 122.03L112.10 130.33L114.70 142.07L125.51 145.50ZM157.01 242.74L154.43 231.02L143.62 227.59L135.40 235.87L137.99 247.59L148.79 251.03ZM137.99 247.59L135.40 235.87L124.60 232.44L116.38 240.72L118.97 252.44L129.77 255.87ZM162.66 222.74L160.08 211.01L149.26 207.57L141.04 215.86L143.62 227.59L154.43 231.02ZM143.62 227.59L141.04 215.86L130.23 212.43L122.01 220.72L124.60 232.44L135.40 235.87ZM151.37 262.75L148.79 251.03L137.99 247.59L129.77 255.87L132.36 267.59L143.16 271.02ZM105.58 237.29L102.99 225.58L92.19 222.15L83.98 230.44L86.57 242.16L97.37 245.58ZM86.57 242.16L83.98 230.44L73.18 227.02L64.97 235.31L67.57 247.02L78.37 250.44ZM111.21 217.29L108.62 205.57L97.81 202.14L89.60 210.43L92.19 222.15L102.99 225.58ZM92.19 222.15L89.60 210.43L78.79 207.01L70.58 215.30L73.18 227.02L83.98 230.44ZM118.97 252.44L116.38 240.72L105.58 237.29L97.37 245.58L99.96 257.29L110.76 260.72ZM99.96 257.29L97.37 245.58L86.57 242.16L78.37 250.44L80.96 262.15L91.75 265.58ZM124.60 232.44L122.01 220.72L111.21 217.29L102.99 225.58L105.58 237.29L116.38 240.72ZM168.31 202.72L165.72 190.99L154.91 187.55L146.68 195.85L149.26 207.57L160.08 211.01ZM173.96 182.70L171.37 170.97L160.56 167.53L152.32 175.82L154.91 187.55L165.72 190.99ZM2.80 226.52L0.20 214.82L-10.60 211.41L-18.78 219.71L-16.18 231.41L-5.39 234.82ZM8.39 206.52L5.79 194.81L-5.01 191.40L-13.20 199.70L-10.60 211.41L0.20 214.82ZM16.20 241.64L13.59 229.93L2.80 226.52L-5.39 234.82L-2.78 246.52L8.01 249.93ZM21.79 221.64L19.19 209.93L8.39 206.52L0.20 214.82L2.80 226.52L13.59 229.93ZM32.98 181.62L30.38 169.90L19.58 166.49L11.38 174.80L13.98 186.51L24.78 189.92ZM13.98 186.51L11.38 174.80L0.58 171.39L-7.62 179.69L-5.01 191.40L5.79 194.81ZM38.58 161.60L35.98 149.88L25.17 146.47L16.97 154.77L19.58 166.49L30.38 169.90ZM19.58 166.49L16.97 154.77L6.17 151.37L-2.03 159.67L0.58 171.39L11.38 174.80ZM46.38 196.75L43.78 185.03L32.98 181.62L24.78 189.92L27.38 201.63L38.18 205.05ZM27.38 201.63L24.78 189.92L13.98 186.51L5.79 194.81L8.39 206.52L19.19 209.93ZM51.99 176.73L49.39 165.01L38.58 161.60L30.38 169.90L32.98 181.62L43.78 185.03ZM0.58 171.39L-2.03 159.67L-12.83 156.27L-21.03 164.58L-18.42 176.29L-7.62 179.69ZM29.59 256.76L26.99 245.05L16.20 241.64L8.01 249.93L10.61 261.63L21.40 265.05ZM10.61 261.63L8.01 249.93L-2.78 246.52L-10.97 254.81L-8.36 266.51L2.42 269.92ZM54.18 231.89L51.58 220.18L40.78 216.76L32.58 225.05L35.18 236.76L45.98 240.18ZM35.18 236.76L32.58 225.05L21.79 221.64L13.59 229.93L16.20 241.64L26.99 245.05ZM59.78 211.88L57.19 200.17L46.38 196.75L38.18 205.05L40.78 216.76L51.58 220.18ZM40.78 216.76L38.18 205.05L27.38 201.63L19.19 209.93L21.79 221.64L32.58 225.05ZM67.57 247.02L64.97 235.31L54.18 231.89L45.98 240.18L48.57 251.89L59.37 255.31ZM48.57 251.89L45.98 240.18L35.18 236.76L26.99 245.05L29.59 256.76L40.38 260.17ZM73.18 227.02L70.58 215.30L59.78 211.88L51.58 220.18L54.18 231.89L64.97 235.31ZM175.43 52.11L172.84 40.35L162.00 36.92L153.75 45.24L156.34 56.99L167.18 60.42ZM156.34 56.99L153.75 45.24L142.91 41.81L134.67 50.13L137.26 61.87L148.10 65.30ZM181.09 32.04L178.50 20.28L167.66 16.84L159.41 25.17L162.00 36.92L172.84 40.35ZM162.00 36.92L159.41 25.17L148.57 21.73L140.32 30.06L142.91 41.81L153.75 45.24ZM188.85 67.30L186.26 55.54L175.43 52.11L167.18 60.42L169.76 72.17L180.60 75.61ZM169.76 72.17L167.18 60.42L156.34 56.99L148.10 65.30L150.69 77.05L161.52 80.48ZM194.52 47.23L191.93 35.47L181.09 32.04L172.84 40.35L175.43 52.11L186.26 55.54ZM123.84 46.70L121.24 34.95L110.41 31.52L102.17 39.85L104.77 51.59L115.60 55.02ZM104.77 51.59L102.17 39.85L91.34 36.43L83.11 44.75L85.71 56.49L96.53 59.91ZM129.48 26.63L126.89 14.88L116.05 11.45L107.81 19.78L110.41 31.52L121.24 34.95ZM110.41 31.52L107.81 19.78L96.97 16.35L88.74 24.68L91.34 36.43L102.17 39.85ZM137.26 61.87L134.67 50.13L123.84 46.70L115.60 55.02L118.19 66.76L129.02 70.19ZM118.19 66.76L115.60 55.02L104.77 51.59L96.53 59.91L99.13 71.65L109.96 75.08ZM142.91 41.81L140.32 30.06L129.48 26.63L121.24 34.95L123.84 46.70L134.67 50.13ZM205.87 7.08L203.28 -4.69L192.44 -8.13L184.17 0.20L186.76 11.96L197.61 15.40ZM186.76 11.96L184.17 0.20L173.33 -3.24L165.07 5.09L167.66 16.84L178.50 20.28ZM192.44 -8.13L189.85 -19.89L179.00 -23.33L170.74 -15.00L173.33 -3.24L184.17 0.20ZM219.30 22.28L216.72 10.52L205.87 7.08L197.61 15.40L200.19 27.16L211.04 30.60ZM200.19 27.16L197.61 15.40L186.76 11.96L178.50 20.28L181.09 32.04L191.93 35.47ZM224.99 2.20L222.40 -9.57L211.55 -13.01L203.28 -4.69L205.87 7.08L216.72 10.52ZM154.23 1.65L151.64 -10.10L140.79 -13.53L132.54 -5.20L135.14 6.55L145.98 9.98ZM135.14 6.55L132.54 -5.20L121.70 -8.63L113.45 -0.30L116.05 11.45L126.89 14.88ZM167.66 16.84L165.07 5.09L154.23 1.65L145.98 9.98L148.57 21.73L159.41 25.17ZM148.57 21.73L145.98 9.98L135.14 6.55L126.89 14.88L129.48 26.63L140.32 30.06ZM173.33 -3.24L170.74 -15.00L159.89 -18.43L151.64 -10.10L154.23 1.65L165.07 5.09ZM196.60 102.55L194.02 90.80L183.18 87.36L174.94 95.67L177.52 107.41L188.35 110.85ZM177.52 107.41L174.94 95.67L164.10 92.23L155.86 100.54L158.45 112.28L169.28 115.72ZM202.27 82.49L199.69 70.74L188.85 67.30L180.60 75.61L183.18 87.36L194.02 90.80ZM183.18 87.36L180.60 75.61L169.76 72.17L161.52 80.48L164.10 92.23L174.94 95.67ZM145.03 97.10L142.44 85.36L131.62 81.93L123.38 90.24L125.97 101.98L136.80 105.41ZM125.97 101.98L123.38 90.24L112.55 86.82L104.32 95.13L106.92 106.87L117.74 110.29ZM150.69 77.05L148.10 65.30L137.26 61.87L129.02 70.19L131.62 81.93L142.44 85.36ZM131.62 81.93L129.02 70.19L118.19 66.76L109.96 75.08L112.55 86.82L123.38 90.24ZM158.45 112.28L155.86 100.54L145.03 97.10L136.80 105.41L139.39 117.15L150.21 120.59ZM139.39 117.15L136.80 105.41L125.97 101.98L117.74 110.29L120.33 122.03L131.15 125.46ZM164.10 92.23L161.52 80.48L150.69 77.05L142.44 85.36L145.03 97.10L155.86 100.54ZM207.94 62.43L205.36 50.67L194.52 47.23L186.26 55.54L188.85 67.30L199.69 70.74ZM232.73 37.49L230.15 25.73L219.30 22.28L211.04 30.60L213.62 42.36L224.46 45.80ZM213.62 42.36L211.04 30.60L200.19 27.16L191.93 35.47L194.52 47.23L205.36 50.67ZM41.99 86.35L39.39 74.62L28.57 71.21L20.36 79.53L22.96 91.26L33.78 94.67ZM22.96 91.26L20.36 79.53L9.54 76.12L1.33 84.44L3.94 96.17L14.75 99.58ZM47.61 66.30L45.00 54.56L34.18 51.15L25.96 59.48L28.57 71.21L39.39 74.62ZM28.57 71.21L25.96 59.48L15.14 56.07L6.93 64.39L9.54 76.12L20.36 79.53ZM55.41 101.50L52.81 89.77L41.99 86.35L33.78 94.67L36.38 106.40L47.20 109.81ZM36.38 106.40L33.78 94.67L22.96 91.26L14.75 99.58L17.36 111.30L28.17 114.71ZM61.03 81.45L58.43 69.71L47.61 66.30L39.39 74.62L41.99 86.35L52.81 89.77ZM3.94 96.17L1.33 84.44L-9.48 81.04L-17.68 89.36L-15.07 101.08L-4.26 104.49ZM9.54 76.12L6.93 64.39L-3.89 60.99L-12.09 69.31L-9.48 81.04L1.33 84.44ZM72.28 41.33L69.68 29.59L58.85 26.17L50.62 34.50L53.22 46.24L64.05 49.65ZM53.22 46.24L50.62 34.50L39.79 31.09L31.57 39.42L34.18 51.15L45.00 54.56ZM77.91 21.26L75.30 9.52L64.47 6.10L56.24 14.43L58.85 26.17L69.68 29.59ZM58.85 26.17L56.24 14.43L45.41 11.02L37.19 19.35L39.79 31.09L50.62 34.50ZM85.71 56.49L83.11 44.75L72.28 41.33L64.05 49.65L66.65 61.39L77.48 64.81ZM66.65 61.39L64.05 49.65L53.22 46.24L45.00 54.56L47.61 66.30L58.43 69.71ZM91.34 36.43L88.74 24.68L77.91 21.26L69.68 29.59L72.28 41.33L83.11 44.75ZM20.75 36.01L18.14 24.27L7.31 20.86L-0.90 29.20L1.71 40.93L12.53 44.34ZM1.71 40.93L-0.90 29.20L-11.72 25.79L-19.93 34.13L-17.32 45.86L-6.50 49.26ZM26.36 15.94L23.75 4.20L12.92 0.79L4.70 9.13L7.31 20.86L18.14 24.27ZM7.31 20.86L4.70 9.13L-6.12 5.72L-14.34 14.06L-11.72 25.79L-0.90 29.20ZM34.18 51.15L31.57 39.42L20.75 36.01L12.53 44.34L15.14 56.07L25.96 59.48ZM15.14 56.07L12.53 44.34L1.71 40.93L-6.50 49.26L-3.89 60.99L6.93 64.39ZM39.79 31.09L37.19 19.35L26.36 15.94L18.14 24.27L20.75 36.01L31.57 39.42ZM63.21 136.68L60.61 124.95L49.80 121.54L41.59 129.85L44.19 141.57L55.00 144.99ZM44.19 141.57L41.59 129.85L30.78 126.43L22.57 134.75L25.17 146.47L35.98 149.88ZM68.83 116.64L66.23 104.91L55.41 101.50L47.20 109.81L49.80 121.54L60.61 124.95ZM49.80 121.54L47.20 109.81L36.38 106.40L28.17 114.71L30.78 126.43L41.59 129.85ZM76.62 151.83L74.03 140.10L63.21 136.68L55.00 144.99L57.60 156.71L68.41 160.13ZM57.60 156.71L55.00 144.99L44.19 141.57L35.98 149.88L38.58 161.60L49.39 165.01ZM82.25 131.79L79.65 120.06L68.83 116.64L60.61 124.95L63.21 136.68L74.03 140.10ZM11.76 131.34L9.16 119.62L-1.65 116.21L-9.85 124.52L-7.25 136.24L3.56 139.65ZM17.36 111.30L14.75 99.58L3.94 96.17L-4.26 104.49L-1.65 116.21L9.16 119.62ZM25.17 146.47L22.57 134.75L11.76 131.34L3.56 139.65L6.17 151.37L16.97 154.77ZM6.17 151.37L3.56 139.65L-7.25 136.24L-15.44 144.55L-12.83 156.27L-2.03 159.67ZM30.78 126.43L28.17 114.71L17.36 111.30L9.16 119.62L11.76 131.34L22.57 134.75ZM93.50 91.71L90.90 79.97L80.08 76.55L71.85 84.87L74.45 96.60L85.27 100.02ZM74.45 96.60L71.85 84.87L61.03 81.45L52.81 89.77L55.41 101.50L66.23 104.91ZM99.13 71.65L96.53 59.91L85.71 56.49L77.48 64.81L80.08 76.55L90.90 79.97ZM80.08 76.55L77.48 64.81L66.65 61.39L58.43 69.71L61.03 81.45L71.85 84.87ZM106.92 106.87L104.32 95.13L93.50 91.71L85.27 100.02L87.87 111.75L98.69 115.18ZM87.87 111.75L85.27 100.02L74.45 96.60L66.23 104.91L68.83 116.64L79.65 120.06ZM112.55 86.82L109.96 75.08L99.13 71.65L90.90 79.97L93.50 91.71L104.32 95.13ZM132.36 267.59L129.77 255.87L118.97 252.44L110.76 260.72L113.35 272.44L124.14 275.87ZM80.96 262.15L78.37 250.44L67.57 247.02L59.37 255.31L61.96 267.01L72.76 270.44ZM61.96 267.01L59.37 255.31L48.57 251.89L40.38 260.17L42.98 271.88L53.77 275.30Z"/></svg>
