<svg xmlns="http://www.w3.org/2000/svg" width="256" height="256" viewBox="0 0 256 256"><path data-band="2" fill="#f97316" fill-opacity="0.35" d="M237.74 262.87L235.18 251.18L224.40 247.72L216.20 255.95L218.76 267.64L229.53 271.10ZM218.76 267.64L216.20 255.95L205.43 252.50L197.23 260.73L199.79 272.41L210.56 275.87ZM262.38 238.18L259.82 226.48L249.04 223.02L240.83 231.25L243.39 242.95L254.16 246.41ZM243.39 242.95L240.83 231.25L230.05 227.79L221.84 236.03L224.40 247.72L235.18 251.18ZM268.04 218.25L265.48 206.55L254.70 203.08L246.48 211.32L249.04 223.02L259.82 226.48ZM249.04 223.02L246.48 211.32L235.70 207.86L227.49 216.10L230.05 227.79L240.83 231.25ZM275.72 253.34L273.16 241.64L262.38 238.18L254.16 246.41L256.72 258.10L267.50 261.57ZM256.72 258.10L254.16 246.41L243.39 242.95L235.18 251.18L237.74 262.87L248.51 266.33ZM186.46 257.28L183.89 245.59L173.12 242.14L164.93 250.38L167.50 262.06L178.26 265.51ZM167.50 262.06L164.93 250.38L154.16 246.93L145.97 255.17L148.54 266.85L159.31 270.29ZM135.21 251.73L132.63 240.05L121.87 236.61L113.68 244.85L116.26 256.52L127.02 259.96ZM116.26 256.52L113.68 244.85L102.92 241.41L94.74 249.65L97.33 261.33L108.08 264.76ZM148.54 266.85L145.97 255.17L135.21 251.73L127.02 259.96L129.60 271.64L140.36 275.08ZM271.70 143.23L269.14 131.52L258.34 128.06L250.11 136.31L252.68 148.02L263.47 151.48ZM252.68 148.02L250.11 136.31L239.32 132.85L231.10 141.10L233.66 152.81L244.45 156.27ZM277.37 123.27L274.81 111.56L264.01 108.09L255.78 116.35L258.34 128.06L269.14 131.52ZM258.34 128.06L255.78 116.35L244.98 112.89L236.76 121.14L239.32 132.85L250.11 136.31ZM266.03 163.19L263.47 151.48L252.68 148.02L244.45 156.27L247.02 167.97L257.80 171.43ZM273.71 198.31L271.15 186.60L260.36 183.14L252.14 191.38L254.70 203.08L265.48 206.55ZM190.02 182.35L187.45 170.65L176.67 167.20L168.46 175.45L171.04 187.15L181.81 190.59ZM171.04 187.15L168.46 175.45L157.69 172.01L149.49 180.26L152.06 191.95L162.83 195.39ZM195.66 162.40L193.09 150.70L182.30 147.25L174.10 155.51L176.67 167.20L187.45 170.65ZM176.67 167.20L174.10 155.51L163.31 152.06L155.11 160.31L157.69 172.01L168.46 175.45ZM203.37 197.49L200.80 185.80L190.02 182.35L181.81 190.59L184.38 202.29L195.16 205.74ZM184.38 202.29L181.81 190.59L171.04 187.15L162.83 195.39L165.41 207.08L176.18 210.53ZM209.01 177.55L206.44 165.85L195.66 162.40L187.45 170.65L190.02 182.35L200.80 185.80ZM138.71 176.82L136.13 165.12L125.36 161.69L117.16 169.94L119.74 181.63L130.52 185.07ZM119.74 181.63L117.16 169.94L106.39 166.50L98.20 174.76L100.78 186.44L111.55 189.88ZM144.33 156.87L141.75 145.18L130.97 141.74L122.78 149.99L125.36 161.69L136.13 165.12ZM125.36 161.69L122.78 149.99L112.00 146.56L103.81 154.82L106.39 166.50L117.16 169.94ZM152.06 191.95L149.49 180.26L138.71 176.82L130.52 185.07L133.09 196.75L143.86 200.19ZM133.09 196.75L130.52 185.07L119.74 181.63L111.55 189.88L114.13 201.56L124.90 205.00ZM157.69 172.01L155.11 160.31L144.33 156.87L136.13 165.12L138.71 176.82L149.49 180.26ZM220.31 137.65L217.74 125.94L206.95 122.49L198.73 130.75L201.30 142.45L212.09 145.90ZM201.30 142.45L198.73 130.75L187.94 127.30L179.73 135.55L182.30 147.25L193.09 150.70ZM225.96 117.69L223.39 105.98L212.60 102.52L204.38 110.78L206.95 122.49L217.74 125.94ZM206.95 122.49L204.38 110.78L193.59 107.33L185.37 115.59L187.94 127.30L198.73 130.75ZM233.66 152.81L231.10 141.10L220.31 137.65L212.09 145.90L214.66 157.60L225.44 161.06ZM214.66 157.60L212.09 145.90L201.30 142.45L193.09 150.70L195.66 162.40L206.44 165.85ZM239.32 132.85L236.76 121.14L225.96 117.69L217.74 125.94L220.31 137.65L231.10 141.10ZM168.95 132.11L166.37 120.40L155.59 116.96L147.38 125.22L149.96 136.92L160.74 140.36ZM149.96 136.92L147.38 125.22L136.60 121.78L128.39 130.04L130.97 141.74L141.75 145.18ZM174.58 112.15L172.01 100.44L161.22 97.00L153.01 105.26L155.59 116.96L166.37 120.40ZM155.59 116.96L153.01 105.26L142.22 101.82L134.02 110.08L136.60 121.78L147.38 125.22ZM182.30 147.25L179.73 135.55L168.95 132.11L160.74 140.36L163.31 152.06L174.10 155.51ZM163.31 152.06L160.74 140.36L149.96 136.92L141.75 145.18L144.33 156.87L155.11 160.31ZM187.94 127.30L185.37 115.59L174.58 112.15L166.37 120.40L168.95 132.11L179.73 135.55ZM211.07 232.57L208.50 220.88L197.73 217.43L189.52 225.67L192.09 237.36L202.86 240.81ZM192.09 237.36L189.52 225.67L178.75 222.22L170.55 230.46L173.12 242.14L183.89 245.59ZM216.71 212.64L214.14 200.95L203.37 197.49L195.16 205.74L197.73 217.43L208.50 220.88ZM197.73 217.43L195.16 205.74L184.38 202.29L176.18 210.53L178.75 222.22L189.52 225.67ZM224.40 247.72L221.84 236.03L211.07 232.57L202.86 240.81L205.43 252.50L216.20 255.95ZM205.43 252.50L202.86 240.81L192.09 237.36L183.89 245.59L186.46 257.28L197.23 260.73ZM230.05 227.79L227.49 216.10L216.71 212.64L208.50 220.88L211.07 232.57L221.84 236.03ZM159.78 227.01L157.21 215.32L146.44 211.88L138.25 220.12L140.82 231.81L151.59 235.25ZM140.82 231.81L138.25 220.12L127.48 216.68L119.29 224.93L121.87 236.61L132.63 240.05ZM165.41 207.08L162.83 195.39L152.06 191.95L143.86 200.19L146.44 211.88L157.21 215.32ZM146.44 211.88L143.86 200.19L133.09 196.75L124.90 205.00L127.48 216.68L138.25 220.12ZM173.12 242.14L170.55 230.46L159.78 227.01L151.59 235.25L154.16 246.93L164.93 250.38ZM154.16 246.93L151.59 235.25L140.82 231.81L132.63 240.05L135.21 251.73L145.97 255.17ZM178.75 222.22L176.18 210.53L165.41 207.08L157.21 215.32L159.78 227.01L170.55 230.46ZM241.36 187.92L238.79 176.22L228.01 172.76L219.79 181.01L222.36 192.71L233.14 196.16ZM222.36 192.71L219.79 181.01L209.01 177.55L200.80 185.80L203.37 197.49L214.14 200.95ZM247.02 167.97L244.45 156.27L233.66 152.81L225.44 161.06L228.01 172.76L238.79 176.22ZM228.01 172.76L225.44 161.06L214.66 157.60L206.44 165.85L209.01 177.55L219.79 181.01ZM254.70 203.08L252.14 191.38L241.36 187.92L233.14 196.16L235.70 207.86L246.48 211.32ZM235.70 207.86L233.14 196.16L222.36 192.71L214.14 200.95L216.71 212.64L227.49 216.10ZM260.36 183.14L257.80 171.43L247.02 167.97L238.79 176.22L241.36 187.92L252.14 191.38ZM97.33 261.33L94.74 249.65L83.99 246.22L75.81 254.46L78.40 266.13L89.15 269.56ZM108.53 221.49L105.95 209.81L95.18 206.38L87.00 214.62L89.58 226.30L100.34 229.73ZM121.87 236.61L119.29 224.93L108.53 221.49L100.34 229.73L102.92 241.41L113.68 244.85ZM102.92 241.41L100.34 229.73L89.58 226.30L81.40 234.54L83.99 246.22L94.74 249.65ZM127.48 216.68L124.90 205.00L114.13 201.56L105.95 209.81L108.53 221.49L119.29 224.93ZM170.40 1.91L167.82 -9.82L157.01 -13.26L148.79 -4.97L151.37 6.75L162.18 10.18ZM229.58 42.58L227.01 30.86L216.20 27.41L207.97 35.68L210.54 47.40L221.34 50.85ZM210.54 47.40L207.97 35.68L197.16 32.23L188.94 40.51L191.51 52.22L202.31 55.67ZM235.24 22.59L232.67 10.86L221.86 7.41L213.63 15.69L216.20 27.41L227.01 30.86ZM216.20 27.41L213.63 15.69L202.82 12.24L194.59 20.51L197.16 32.23L207.97 35.68ZM242.95 57.76L240.38 46.04L229.58 42.58L221.34 50.85L223.91 62.57L234.71 66.02ZM223.91 62.57L221.34 50.85L210.54 47.40L202.31 55.67L204.89 67.39L215.68 70.84ZM248.62 37.77L246.05 26.05L235.24 22.59L227.01 30.86L229.58 42.58L240.38 46.04ZM178.14 37.06L175.56 25.34L164.76 21.90L156.54 30.18L159.12 41.89L169.92 45.33ZM159.12 41.89L156.54 30.18L145.74 26.74L137.52 35.02L140.11 46.73L150.90 50.16ZM183.78 17.07L181.21 5.35L170.40 1.91L162.18 10.18L164.76 21.90L175.56 25.34ZM191.51 52.22L188.94 40.51L178.14 37.06L169.92 45.33L172.49 57.05L183.29 60.49ZM172.49 57.05L169.92 45.33L159.12 41.89L150.90 50.16L153.48 61.87L164.28 65.32ZM197.16 32.23L194.59 20.51L183.78 17.07L175.56 25.34L178.14 37.06L188.94 40.51ZM259.97 -2.23L257.40 -13.96L246.58 -17.42L238.34 -9.14L240.91 2.59L251.72 6.05ZM240.91 2.59L238.34 -9.14L227.53 -12.59L219.29 -4.31L221.86 7.41L232.67 10.86ZM273.35 12.96L270.78 1.23L259.97 -2.23L251.72 6.05L254.29 17.77L265.10 21.23ZM254.29 17.77L251.72 6.05L240.91 2.59L232.67 10.86L235.24 22.59L246.05 26.05ZM208.48 -7.76L205.90 -19.49L195.09 -22.94L186.86 -14.66L189.44 -2.93L200.24 0.51ZM189.44 -2.93L186.86 -14.66L176.05 -18.10L167.82 -9.82L170.40 1.91L181.21 5.35ZM221.86 7.41L219.29 -4.31L208.48 -7.76L200.24 0.51L202.82 12.24L213.63 15.69ZM202.82 12.24L200.24 0.51L189.44 -2.93L181.21 5.35L183.78 17.07L194.59 20.51ZM250.65 92.92L248.08 81.20L237.28 77.74L229.05 86.00L231.62 97.72L242.42 101.17ZM231.62 97.72L229.05 86.00L218.26 82.55L210.03 90.81L212.60 102.52L223.39 105.98ZM256.32 72.94L253.75 61.22L242.95 57.76L234.71 66.02L237.28 77.74L248.08 81.20ZM237.28 77.74L234.71 66.02L223.91 62.57L215.68 70.84L218.26 82.55L229.05 86.00ZM264.01 108.09L261.45 96.38L250.65 92.92L242.42 101.17L244.98 112.89L255.78 116.35ZM244.98 112.89L242.42 101.17L231.62 97.72L223.39 105.98L225.96 117.69L236.76 121.14ZM269.69 88.12L267.12 76.40L256.32 72.94L248.08 81.20L250.65 92.92L261.45 96.38ZM199.23 87.36L196.66 75.65L185.87 72.20L177.65 80.47L180.22 92.18L191.01 95.62ZM180.22 92.18L177.65 80.47L166.85 77.03L158.64 85.29L161.22 97.00L172.01 100.44ZM204.89 67.39L202.31 55.67L191.51 52.22L183.29 60.49L185.87 72.20L196.66 75.65ZM185.87 72.20L183.29 60.49L172.49 57.05L164.28 65.32L166.85 77.03L177.65 80.47ZM212.60 102.52L210.03 90.81L199.23 87.36L191.01 95.62L193.59 107.33L204.38 110.78ZM193.59 107.33L191.01 95.62L180.22 92.18L172.01 100.44L174.58 112.15L185.37 115.59ZM218.26 82.55L215.68 70.84L204.89 67.39L196.66 75.65L199.23 87.36L210.03 90.81ZM261.99 52.95L259.43 41.23L248.62 37.77L240.38 46.04L242.95 57.76L253.75 61.22ZM267.67 32.96L265.10 21.23L254.29 17.77L246.05 26.05L248.62 37.77L259.43 41.23ZM275.36 68.14L272.80 56.41L261.99 52.95L253.75 61.22L256.32 72.94L267.12 76.40ZM130.97 141.74L128.39 130.04L117.61 126.61L109.42 134.87L112.00 146.56L122.78 149.99ZM147.85 81.85L145.27 70.14L134.48 66.71L126.27 74.98L128.85 86.68L139.64 90.12ZM153.48 61.87L150.90 50.16L140.11 46.73L131.90 55.00L134.48 66.71L145.27 70.14ZM161.22 97.00L158.64 85.29L147.85 81.85L139.64 90.12L142.22 101.82L153.01 105.26ZM142.22 101.82L139.64 90.12L128.85 86.68L120.65 94.95L123.23 106.65L134.02 110.08ZM166.85 77.03L164.28 65.32L153.48 61.87L145.27 70.14L147.85 81.85L158.64 85.29Z"/><path data-band="3" fill="#dc2626" fill-opacity="0.35" d="M7.24 80.67L4.64 68.98L-6.13 65.57L-14.31 73.85L-11.71 85.54L-0.93 88.95ZM12.82 60.70L10.23 49.01L-0.56 45.60L-8.73 53.88L-6.13 65.57L4.64 68.98ZM3.89 155.63L1.29 143.95L-9.47 140.53L-17.64 148.80L-15.04 160.47L-4.28 163.89ZM15.04 115.73L12.44 104.05L1.67 100.63L-6.50 108.90L-3.91 120.59L6.86 124.00ZM20.62 95.78L18.02 84.09L7.24 80.67L-0.93 88.95L1.67 100.63L12.44 104.05ZM1.67 100.63L-0.93 88.95L-11.71 85.54L-19.88 93.81L-17.27 105.49L-6.50 108.90ZM28.40 130.83L25.81 119.15L15.04 115.73L6.86 124.00L9.46 135.68L20.23 139.10ZM9.46 135.68L6.86 124.00L-3.91 120.59L-12.07 128.86L-9.47 140.53L1.29 143.95ZM33.99 110.88L31.39 99.19L20.62 95.78L12.44 104.05L15.04 115.73L25.81 119.15ZM57.30 216.01L54.71 204.34L43.95 200.91L35.78 209.16L38.37 220.84L49.13 224.26ZM38.37 220.84L35.78 209.16L25.02 205.74L16.86 213.99L19.45 225.66L30.21 229.08ZM62.89 196.09L60.30 184.41L49.54 180.98L41.36 189.24L43.95 200.91L54.71 204.34ZM43.95 200.91L41.36 189.24L30.60 185.81L22.43 194.07L25.02 205.74L35.78 209.16ZM70.65 231.11L68.06 219.44L57.30 216.01L49.13 224.26L51.72 235.93L62.47 239.36ZM51.72 235.93L49.13 224.26L38.37 220.84L30.21 229.08L32.79 240.75L43.55 244.18ZM76.24 211.19L73.65 199.51L62.89 196.09L54.71 204.34L57.30 216.01L68.06 219.44ZM6.10 210.58L3.51 198.91L-7.25 195.49L-15.41 203.75L-12.81 215.41L-2.06 218.83ZM11.67 190.65L9.08 178.98L-1.68 175.56L-9.84 183.82L-7.25 195.49L3.51 198.91ZM19.45 225.66L16.86 213.99L6.10 210.58L-2.06 218.83L0.54 230.49L11.29 233.91ZM0.54 230.49L-2.06 218.83L-12.81 215.41L-20.96 223.67L-18.37 235.33L-7.62 238.74ZM25.02 205.74L22.43 194.07L11.67 190.65L3.51 198.91L6.10 210.58L16.86 213.99ZM87.43 171.33L84.85 159.64L74.07 156.21L65.89 164.47L68.48 176.15L79.25 179.58ZM68.48 176.15L65.89 164.47L55.12 161.04L46.95 169.30L49.54 180.98L60.30 184.41ZM93.03 151.38L90.45 139.69L79.67 136.26L71.49 144.53L74.07 156.21L84.85 159.64ZM74.07 156.21L71.49 144.53L60.72 141.10L52.53 149.36L55.12 161.04L65.89 164.47ZM100.78 186.44L98.20 174.76L87.43 171.33L79.25 179.58L81.83 191.26L92.60 194.69ZM81.83 191.26L79.25 179.58L68.48 176.15L60.30 184.41L62.89 196.09L73.65 199.51ZM106.39 166.50L103.81 154.82L93.03 151.38L84.85 159.64L87.43 171.33L98.20 174.76ZM36.18 165.88L33.59 154.20L22.82 150.78L14.65 159.04L17.25 170.72L28.01 174.14ZM17.25 170.72L14.65 159.04L3.89 155.63L-4.28 163.89L-1.68 175.56L9.08 178.98ZM41.76 145.94L39.17 134.25L28.40 130.83L20.23 139.10L22.82 150.78L33.59 154.20ZM22.82 150.78L20.23 139.10L9.46 135.68L1.29 143.95L3.89 155.63L14.65 159.04ZM49.54 180.98L46.95 169.30L36.18 165.88L28.01 174.14L30.60 185.81L41.36 189.24ZM30.60 185.81L28.01 174.14L17.25 170.72L9.08 178.98L11.67 190.65L22.43 194.07ZM55.12 161.04L52.53 149.36L41.76 145.94L33.59 154.20L36.18 165.88L46.95 169.30ZM78.40 266.13L75.81 254.46L65.06 251.03L56.89 259.27L59.47 270.94L70.22 274.37ZM59.47 270.94L56.89 259.27L46.14 255.84L37.97 264.09L40.56 275.75L51.31 279.18ZM83.99 246.22L81.40 234.54L70.65 231.11L62.47 239.36L65.06 251.03L75.81 254.46ZM65.06 251.03L62.47 239.36L51.72 235.93L43.55 244.18L46.14 255.84L56.89 259.27ZM27.22 260.66L24.63 249.00L13.88 245.58L5.72 253.82L8.32 265.49L19.06 268.91ZM8.32 265.49L5.72 253.82L-5.02 250.41L-13.18 258.65L-10.58 270.31L0.16 273.73ZM32.79 240.75L30.21 229.08L19.45 225.66L11.29 233.91L13.88 245.58L24.63 249.00ZM13.88 245.58L11.29 233.91L0.54 230.49L-7.62 238.74L-5.02 250.41L5.72 253.82ZM46.14 255.84L43.55 244.18L32.79 240.75L24.63 249.00L27.22 260.66L37.97 264.09ZM89.58 226.30L87.00 214.62L76.24 211.19L68.06 219.44L70.65 231.11L81.40 234.54ZM114.13 201.56L111.55 189.88L100.78 186.44L92.60 194.69L95.18 206.38L105.95 209.81ZM95.18 206.38L92.60 194.69L81.83 191.26L73.65 199.51L76.24 211.19L87.00 214.62ZM151.37 6.75L148.79 -4.97L137.99 -8.41L129.77 -0.13L132.36 11.59L143.16 15.02ZM118.97 -3.56L116.38 -15.28L105.58 -18.71L97.37 -10.42L99.96 1.29L110.76 4.72ZM99.96 1.29L97.37 -10.42L86.57 -13.84L78.37 -5.56L80.96 6.15L91.75 9.58ZM24.00 20.75L21.40 9.05L10.61 5.63L2.42 13.92L5.02 25.62L15.81 29.03ZM5.02 25.62L2.42 13.92L-8.36 10.51L-16.54 18.80L-13.94 30.49L-3.16 33.90ZM29.59 0.76L26.99 -10.95L16.20 -14.36L8.01 -6.07L10.61 5.63L21.40 9.05ZM10.61 5.63L8.01 -6.07L-2.78 -9.48L-10.97 -1.19L-8.36 10.51L2.42 13.92ZM37.38 35.86L34.78 24.16L24.00 20.75L15.81 29.03L18.41 40.73L29.19 44.14ZM18.41 40.73L15.81 29.03L5.02 25.62L-3.16 33.90L-0.56 45.60L10.23 49.01ZM42.98 15.88L40.38 4.17L29.59 0.76L21.40 9.05L24.00 20.75L34.78 24.16ZM48.57 -4.11L45.98 -15.82L35.18 -19.24L26.99 -10.95L29.59 0.76L40.38 4.17ZM164.76 21.90L162.18 10.18L151.37 6.75L143.16 15.02L145.74 26.74L156.54 30.18ZM96.49 76.38L93.91 64.68L83.12 61.25L74.92 69.53L77.51 81.22L88.30 84.65ZM77.51 81.22L74.92 69.53L64.14 66.10L55.95 74.38L58.54 86.07L69.32 89.50ZM102.11 56.41L99.52 44.70L88.73 41.27L80.53 49.55L83.12 61.25L93.91 64.68ZM83.12 61.25L80.53 49.55L69.74 46.13L61.55 54.40L64.14 66.10L74.92 69.53ZM109.86 91.51L107.28 79.81L96.49 76.38L88.30 84.65L90.88 96.35L101.67 99.78ZM90.88 96.35L88.30 84.65L77.51 81.22L69.32 89.50L71.91 101.19L82.69 104.62ZM115.48 71.54L112.90 59.84L102.11 56.41L93.91 64.68L96.49 76.38L107.28 79.81ZM45.17 70.95L42.57 59.26L31.79 55.84L23.60 64.12L26.20 75.81L36.98 79.23ZM26.20 75.81L23.60 64.12L12.82 60.70L4.64 68.98L7.24 80.67L18.02 84.09ZM50.76 50.98L48.17 39.28L37.38 35.86L29.19 44.14L31.79 55.84L42.57 59.26ZM31.79 55.84L29.19 44.14L18.41 40.73L10.23 49.01L12.82 60.70L23.60 64.12ZM58.54 86.07L55.95 74.38L45.17 70.95L36.98 79.23L39.57 90.92L50.35 94.34ZM39.57 90.92L36.98 79.23L26.20 75.81L18.02 84.09L20.62 95.78L31.39 99.19ZM64.14 66.10L61.55 54.40L50.76 50.98L42.57 59.26L45.17 70.95L55.95 74.38ZM126.73 31.58L124.14 19.87L113.35 16.44L105.14 24.72L107.72 36.42L118.52 39.86ZM107.72 36.42L105.14 24.72L94.34 21.29L86.14 29.57L88.73 41.27L99.52 44.70ZM132.36 11.59L129.77 -0.13L118.97 -3.56L110.76 4.72L113.35 16.44L124.14 19.87ZM113.35 16.44L110.76 4.72L99.96 1.29L91.75 9.58L94.34 21.29L105.14 24.72ZM140.11 46.73L137.52 35.02L126.73 31.58L118.52 39.86L121.10 51.56L131.90 55.00ZM121.10 51.56L118.52 39.86L107.72 36.42L99.52 44.70L102.11 56.41L112.90 59.84ZM145.74 26.74L143.16 15.02L132.36 11.59L124.14 19.87L126.73 31.58L137.52 35.02ZM75.35 26.14L72.76 14.44L61.96 11.01L53.77 19.30L56.36 31.00L67.15 34.42ZM56.36 31.00L53.77 19.30L42.98 15.88L34.78 24.16L37.38 35.86L48.17 39.28ZM80.96 6.15L78.37 -5.56L67.57 -8.98L59.37 -0.69L61.96 11.01L72.76 14.44ZM61.96 11.01L59.37 -0.69L48.57 -4.11L40.38 4.17L42.98 15.88L53.77 19.30ZM88.73 41.27L86.14 29.57L75.35 26.14L67.15 34.42L69.74 46.13L80.53 49.55ZM69.74 46.13L67.15 34.42L56.36 31.00L48.17 39.28L50.76 50.98L61.55 54.40ZM94.34 21.29L91.75 9.58L80.96 6.15L72.76 14.44L75.35 26.14L86.14 29.57ZM117.61 126.61L115.03 114.91L104.25 111.48L96.06 119.74L98.64 131.43L109.42 134.87ZM98.64 131.43L96.06 119.74L85.28 116.31L77.09 124.57L79.67 136.26L90.45 139.69ZM123.23 106.65L120.65 94.95L109.86 91.51L101.67 99.78L104.25 111.48L115.03 114.91ZM104.25 111.48L101.67 99.78L90.88 96.35L82.69 104.62L85.28 116.31L96.06 119.74ZM112.00 146.56L109.42 134.87L98.64 131.43L90.45 139.69L93.03 151.38L103.81 154.82ZM136.60 121.78L134.02 110.08L123.23 106.65L115.03 114.91L117.61 126.61L128.39 130.04ZM66.31 121.15L63.72 109.46L52.94 106.03L44.76 114.30L47.35 125.99L58.13 129.41ZM47.35 125.99L44.76 114.30L33.99 110.88L25.81 119.15L28.40 130.83L39.17 134.25ZM71.91 101.19L69.32 89.50L58.54 86.07L50.35 94.34L52.94 106.03L63.72 109.46ZM52.94 106.03L50.35 94.34L39.57 90.92L31.39 99.19L33.99 110.88L44.76 114.30ZM79.67 136.26L77.09 124.57L66.31 121.15L58.13 129.41L60.72 141.10L71.49 144.53ZM60.72 141.10L58.13 129.41L47.35 125.99L39.17 134.25L41.76 145.94L52.53 149.36ZM85.28 116.31L82.69 104.62L71.91 101.19L63.72 109.46L66.31 121.15L77.09 124.57ZM128.85 86.68L126.27 74.98L115.48 71.54L107.28 79.81L109.86 91.51L120.65 94.95ZM134.48 66.71L131.90 55.00L121.10 51.56L112.90 59.84L115.48 71.54L126.27 74.98Z"/></svg>
