<svg xmlns="http://www.w3.org/2000/svg" width="256" height="256" viewBox="0 0 256 256"><path data-band="2" fill="#f97316" fill-opacity="0.35" d="M264.39 37.17L261.84 25.48L251.07 22.02L242.86 30.24L245.42 41.93L256.18 45.39ZM270.05 17.26L267.50 5.57L256.72 2.10L248.51 10.33L251.07 22.02L261.84 25.48ZM232.09 26.78L229.53 15.10L218.76 11.64L210.56 19.87L213.12 31.55L223.89 35.01ZM213.12 31.55L210.56 19.87L199.79 16.41L191.59 24.64L194.16 36.32L204.92 39.78ZM237.74 6.87L235.18 -4.82L224.40 -8.28L216.20 -0.05L218.76 11.64L229.53 15.10ZM218.76 11.64L216.20 -0.05L205.43 -3.50L197.23 4.73L199.79 16.41L210.56 19.87ZM245.42 41.93L242.86 30.24L232.09 26.78L223.89 35.01L226.45 46.69L237.21 50.15ZM226.45 46.69L223.89 35.01L213.12 31.55L204.92 39.78L207.49 51.46L218.25 54.91ZM251.07 22.02L248.51 10.33L237.74 6.87L229.53 15.10L232.09 26.78L242.86 30.24ZM275.72 -2.66L273.16 -14.36L262.38 -17.82L254.16 -9.59L256.72 2.10L267.50 5.57ZM256.72 2.10L254.16 -9.59L243.39 -13.05L235.18 -4.82L237.74 6.87L248.51 10.33ZM253.09 76.98L250.53 65.30L239.77 61.83L231.57 70.05L234.13 81.73L244.89 85.19ZM234.13 81.73L231.57 70.05L220.81 66.59L212.61 74.81L215.17 86.49L225.93 89.95ZM258.74 57.08L256.18 45.39L245.42 41.93L237.21 50.15L239.77 61.83L250.53 65.30ZM239.77 61.83L237.21 50.15L226.45 46.69L218.25 54.91L220.81 66.59L231.57 70.05ZM266.41 92.13L263.85 80.44L253.09 76.98L244.89 85.19L247.44 96.87L258.20 100.34ZM247.44 96.87L244.89 85.19L234.13 81.73L225.93 89.95L228.49 101.62L239.24 105.08ZM272.06 72.23L269.51 60.55L258.74 57.08L250.53 65.30L253.09 76.98L263.85 80.44ZM150.65 65.77L148.07 54.10L137.32 50.66L129.14 58.89L131.71 70.55L142.46 74.00ZM131.71 70.55L129.14 58.89L118.39 55.44L110.21 63.67L112.79 75.34L123.54 78.78ZM156.26 45.88L153.69 34.20L142.93 30.76L134.75 38.99L137.32 50.66L148.07 54.10ZM137.32 50.66L134.75 38.99L123.99 35.55L115.81 43.78L118.39 55.44L129.14 58.89ZM163.97 80.89L161.40 69.22L150.65 65.77L142.46 74.00L145.03 85.66L155.78 89.11ZM145.03 85.66L142.46 74.00L131.71 70.55L123.54 78.78L126.11 90.44L136.86 93.88ZM169.58 61.00L167.02 49.32L156.26 45.88L148.07 54.10L150.65 65.77L161.40 69.22ZM99.47 60.23L96.89 48.57L86.14 45.13L77.97 53.36L80.55 65.03L91.30 68.46ZM80.55 65.03L77.97 53.36L67.22 49.93L59.06 58.16L61.64 69.82L72.39 73.25ZM105.06 40.34L102.48 28.67L91.73 25.23L83.56 33.47L86.14 45.13L96.89 48.57ZM112.79 75.34L110.21 63.67L99.47 60.23L91.30 68.46L93.87 80.12L104.62 83.56ZM93.87 80.12L91.30 68.46L80.55 65.03L72.39 73.25L74.97 84.91L85.71 88.35ZM118.39 55.44L115.81 43.78L105.06 40.34L96.89 48.57L99.47 60.23L110.21 63.67ZM180.83 21.19L178.26 9.51L167.50 6.06L159.31 14.29L161.88 25.97L172.64 29.42ZM161.88 25.97L159.31 14.29L148.54 10.85L140.36 19.08L142.93 30.76L153.69 34.20ZM186.46 1.28L183.89 -10.41L173.12 -13.86L164.93 -5.62L167.50 6.06L178.26 9.51ZM167.50 6.06L164.93 -5.62L154.16 -9.07L145.97 -0.83L148.54 10.85L159.31 14.29ZM194.16 36.32L191.59 24.64L180.83 21.19L172.64 29.42L175.21 41.10L185.96 44.55ZM175.21 41.10L172.64 29.42L161.88 25.97L153.69 34.20L156.26 45.88L167.02 49.32ZM199.79 16.41L197.23 4.73L186.46 1.28L178.26 9.51L180.83 21.19L191.59 24.64ZM129.60 15.64L127.02 3.96L116.26 0.52L108.08 8.76L110.66 20.43L121.42 23.87ZM110.66 20.43L108.08 8.76L97.33 5.33L89.15 13.56L91.73 25.23L102.48 28.67ZM135.21 -4.27L132.63 -15.95L121.87 -19.39L113.68 -11.15L116.26 0.52L127.02 3.96ZM116.26 0.52L113.68 -11.15L102.92 -14.59L94.74 -6.35L97.33 5.33L108.08 8.76ZM142.93 30.76L140.36 19.08L129.60 15.64L121.42 23.87L123.99 35.55L134.75 38.99ZM123.99 35.55L121.42 23.87L110.66 20.43L102.48 28.67L105.06 40.34L115.81 43.78ZM148.54 10.85L145.97 -0.83L135.21 -4.27L127.02 3.96L129.60 15.64L140.36 19.08ZM171.67 115.89L169.10 104.23L158.35 100.78L150.17 108.99L152.74 120.66L163.49 124.11ZM152.74 120.66L150.17 108.99L139.43 105.55L131.26 113.76L133.83 125.42L144.57 128.87ZM177.28 96.01L174.72 84.34L163.97 80.89L155.78 89.11L158.35 100.78L169.10 104.23ZM158.35 100.78L155.78 89.11L145.03 85.66L136.86 93.88L139.43 105.55L150.17 108.99ZM184.98 131.01L182.41 119.34L171.67 115.89L163.49 124.11L166.05 135.77L176.80 139.22ZM166.05 135.77L163.49 124.11L152.74 120.66L144.57 128.87L147.14 140.53L157.88 143.98ZM190.60 111.13L188.04 99.46L177.28 96.01L169.10 104.23L171.67 115.89L182.41 119.34ZM120.51 110.32L117.94 98.66L107.19 95.22L99.03 103.44L101.60 115.10L112.34 118.54ZM101.60 115.10L99.03 103.44L88.29 100.01L80.12 108.23L82.70 119.88L93.44 123.32ZM126.11 90.44L123.54 78.78L112.79 75.34L104.62 83.56L107.19 95.22L117.94 98.66ZM107.19 95.22L104.62 83.56L93.87 80.12L85.71 88.35L88.29 100.01L99.03 103.44ZM133.83 125.42L131.26 113.76L120.51 110.32L112.34 118.54L114.92 130.20L125.66 133.64ZM114.92 130.20L112.34 118.54L101.60 115.10L93.44 123.32L96.02 134.97L106.75 138.41ZM139.43 105.55L136.86 93.88L126.11 90.44L117.94 98.66L120.51 110.32L131.26 113.76ZM201.85 71.36L199.29 59.68L188.53 56.23L180.34 64.45L182.91 76.12L193.66 79.57ZM182.91 76.12L180.34 64.45L169.58 61.00L161.40 69.22L163.97 80.89L174.72 84.34ZM207.49 51.46L204.92 39.78L194.16 36.32L185.96 44.55L188.53 56.23L199.29 59.68ZM188.53 56.23L185.96 44.55L175.21 41.10L167.02 49.32L169.58 61.00L180.34 64.45ZM215.17 86.49L212.61 74.81L201.85 71.36L193.66 79.57L196.22 91.25L206.98 94.70ZM196.22 91.25L193.66 79.57L182.91 76.12L174.72 84.34L177.28 96.01L188.04 99.46ZM220.81 66.59L218.25 54.91L207.49 51.46L199.29 59.68L201.85 71.36L212.61 74.81ZM205.43 -3.50L202.86 -15.19L192.09 -18.64L183.89 -10.41L186.46 1.28L197.23 4.73ZM243.83 171.64L241.27 159.97L230.52 156.51L222.34 164.71L224.89 176.37L235.64 179.84ZM224.89 176.37L222.34 164.71L211.59 161.25L203.41 169.45L205.97 181.11L216.71 184.57ZM249.47 151.77L246.91 140.10L236.16 136.64L227.97 144.84L230.52 156.51L241.27 159.97ZM230.52 156.51L227.97 144.84L217.22 141.38L209.03 149.59L211.59 161.25L222.34 164.71ZM257.12 186.77L254.57 175.11L243.83 171.64L235.64 179.84L238.19 191.50L248.93 194.97ZM238.19 191.50L235.64 179.84L224.89 176.37L216.71 184.57L219.26 196.23L230.00 199.70ZM262.77 166.91L260.21 155.24L249.47 151.77L241.27 159.97L243.83 171.64L254.57 175.11ZM192.67 166.00L190.10 154.34L179.36 150.88L171.18 159.09L173.75 170.75L184.49 174.20ZM173.75 170.75L171.18 159.09L160.44 155.64L152.27 163.84L154.84 175.50L165.57 178.95ZM198.29 146.13L195.72 134.46L184.98 131.01L176.80 139.22L179.36 150.88L190.10 154.34ZM179.36 150.88L176.80 139.22L166.05 135.77L157.88 143.98L160.44 155.64L171.18 159.09ZM205.97 181.11L203.41 169.45L192.67 166.00L184.49 174.20L187.05 185.86L197.79 189.31ZM187.05 185.86L184.49 174.20L173.75 170.75L165.57 178.95L168.14 190.60L178.87 194.06ZM211.59 161.25L209.03 149.59L198.29 146.13L190.10 154.34L192.67 166.00L203.41 169.45ZM274.06 127.16L271.51 115.48L260.76 112.01L252.55 120.22L255.11 131.90L265.86 135.36ZM255.11 131.90L252.55 120.22L241.80 116.76L233.60 124.97L236.16 136.64L246.91 140.10ZM260.76 112.01L258.20 100.34L247.44 96.87L239.24 105.08L241.80 116.76L252.55 120.22ZM268.41 147.04L265.86 135.36L255.11 131.90L246.91 140.10L249.47 151.77L260.21 155.24ZM222.85 121.50L220.29 109.83L209.54 106.37L201.35 114.59L203.91 126.26L214.66 129.71ZM203.91 126.26L201.35 114.59L190.60 111.13L182.41 119.34L184.98 131.01L195.72 134.46ZM228.49 101.62L225.93 89.95L215.17 86.49L206.98 94.70L209.54 106.37L220.29 109.83ZM209.54 106.37L206.98 94.70L196.22 91.25L188.04 99.46L190.60 111.13L201.35 114.59ZM236.16 136.64L233.60 124.97L222.85 121.50L214.66 129.71L217.22 141.38L227.97 144.84ZM217.22 141.38L214.66 129.71L203.91 126.26L195.72 134.46L198.29 146.13L209.03 149.59ZM241.80 116.76L239.24 105.08L228.49 101.62L220.29 109.83L222.85 121.50L233.60 124.97ZM264.78 221.76L262.23 210.10L251.48 206.63L243.30 214.82L245.85 226.48L256.59 229.95ZM245.85 226.48L243.30 214.82L232.56 211.35L224.37 219.55L226.93 231.20L237.66 234.67ZM270.42 201.91L267.87 190.24L257.12 186.77L248.93 194.97L251.48 206.63L262.23 210.10ZM251.48 206.63L248.93 194.97L238.19 191.50L230.00 199.70L232.56 211.35L243.30 214.82ZM259.14 241.60L256.59 229.95L245.85 226.48L237.66 234.67L240.22 246.32L250.95 249.79ZM213.64 216.09L211.08 204.43L200.35 200.97L192.17 209.17L194.73 220.82L205.46 224.28ZM194.73 220.82L192.17 209.17L181.43 205.71L173.26 213.91L175.82 225.56L186.56 229.01ZM219.26 196.23L216.71 184.57L205.97 181.11L197.79 189.31L200.35 200.97L211.08 204.43ZM200.35 200.97L197.79 189.31L187.05 185.86L178.87 194.06L181.43 205.71L192.17 209.17ZM226.93 231.20L224.37 219.55L213.64 216.09L205.46 224.28L208.02 235.93L218.75 239.39ZM208.02 235.93L205.46 224.28L194.73 220.82L186.56 229.01L189.11 240.66L199.84 244.12ZM232.56 211.35L230.00 199.70L219.26 196.23L211.08 204.43L213.64 216.09L224.37 219.55ZM276.07 182.05L273.52 170.38L262.77 166.91L254.57 175.11L257.12 186.77L267.87 190.24ZM52.67 164.39L50.09 152.75L39.36 149.32L31.21 157.53L33.80 169.17L44.52 172.60ZM69.39 104.79L66.81 93.14L56.07 89.71L47.91 97.93L50.49 109.58L61.23 113.01ZM74.97 84.91L72.39 73.25L61.64 69.82L53.48 78.05L56.07 89.71L66.81 93.14ZM82.70 119.88L80.12 108.23L69.39 104.79L61.23 113.01L63.81 124.67L74.54 128.10ZM88.29 100.01L85.71 88.35L74.97 84.91L66.81 93.14L69.39 104.79L80.12 108.23ZM97.33 5.33L94.74 -6.35L83.99 -9.78L75.81 -1.54L78.40 10.13L89.15 13.56ZM272.42 256.73L269.87 245.08L259.14 241.60L250.95 249.79L253.50 261.44L264.23 264.91ZM111.45 204.86L108.88 193.22L98.15 189.78L90.00 197.98L92.57 209.62L103.30 213.06ZM92.57 209.62L90.00 197.98L79.27 194.54L71.13 202.75L73.70 214.39L84.42 217.83ZM117.04 185.01L114.47 173.36L103.74 169.92L95.58 178.13L98.15 189.78L108.88 193.22ZM98.15 189.78L95.58 178.13L84.85 174.69L76.70 182.90L79.27 194.54L90.00 197.98ZM124.75 219.95L122.18 208.31L111.45 204.86L103.30 213.06L105.87 224.71L116.59 228.15ZM105.87 224.71L103.30 213.06L92.57 209.62L84.42 217.83L87.00 229.46L97.72 232.90ZM130.34 200.11L127.77 188.46L117.04 185.01L108.88 193.22L111.45 204.86L122.18 208.31ZM60.40 199.31L57.82 187.67L47.10 184.24L38.96 192.45L41.54 204.09L52.26 207.52ZM65.97 179.47L63.39 167.82L52.67 164.39L44.52 172.60L47.10 184.24L57.82 187.67ZM47.10 184.24L44.52 172.60L33.80 169.17L25.65 177.39L28.24 189.02L38.96 192.45ZM73.70 214.39L71.13 202.75L60.40 199.31L52.26 207.52L54.84 219.16L65.56 222.59ZM54.84 219.16L52.26 207.52L41.54 204.09L33.40 212.29L35.98 223.93L46.70 227.36ZM79.27 194.54L76.70 182.90L65.97 179.47L57.82 187.67L60.40 199.31L71.13 202.75ZM141.53 160.39L138.97 148.74L128.23 145.29L120.06 153.51L122.63 165.16L133.37 168.60ZM122.63 165.16L120.06 153.51L109.33 150.06L101.16 158.27L103.74 169.92L114.47 173.36ZM147.14 140.53L144.57 128.87L133.83 125.42L125.66 133.64L128.23 145.29L138.97 148.74ZM128.23 145.29L125.66 133.64L114.92 130.20L106.75 138.41L109.33 150.06L120.06 153.51ZM154.84 175.50L152.27 163.84L141.53 160.39L133.37 168.60L135.93 180.25L146.67 183.70ZM135.93 180.25L133.37 168.60L122.63 165.16L114.47 173.36L117.04 185.01L127.77 188.46ZM160.44 155.64L157.88 143.98L147.14 140.53L138.97 148.74L141.53 160.39L152.27 163.84ZM90.43 154.84L87.86 143.19L77.12 139.75L68.97 147.96L71.54 159.61L82.28 163.05ZM71.54 159.61L68.97 147.96L58.24 144.53L50.09 152.75L52.67 164.39L63.39 167.82ZM96.02 134.97L93.44 123.32L82.70 119.88L74.54 128.10L77.12 139.75L87.86 143.19ZM77.12 139.75L74.54 128.10L63.81 124.67L55.66 132.88L58.24 144.53L68.97 147.96ZM103.74 169.92L101.16 158.27L90.43 154.84L82.28 163.05L84.85 174.69L95.58 178.13ZM84.85 174.69L82.28 163.05L71.54 159.61L63.39 167.82L65.97 179.47L76.70 182.90ZM109.33 150.06L106.75 138.41L96.02 134.97L87.86 143.19L90.43 154.84L101.16 158.27ZM132.45 254.88L129.88 243.24L119.16 239.79L111.01 247.98L113.58 259.62L124.29 263.07ZM113.58 259.62L111.01 247.98L100.29 244.54L92.14 252.74L94.71 264.37L105.43 267.81ZM138.04 235.04L135.47 223.40L124.75 219.95L116.59 228.15L119.16 239.79L129.88 243.24ZM119.16 239.79L116.59 228.15L105.87 224.71L97.72 232.90L100.29 244.54L111.01 247.98ZM145.73 269.96L143.17 258.32L132.45 254.88L124.29 263.07L126.86 274.70L137.58 278.15ZM151.33 250.13L148.77 238.49L138.04 235.04L129.88 243.24L132.45 254.88L143.17 258.32ZM81.42 249.30L78.85 237.66L68.13 234.22L59.99 242.42L62.57 254.06L73.28 257.49ZM62.57 254.06L59.99 242.42L49.27 238.99L41.14 247.19L43.72 258.82L54.43 262.25ZM87.00 229.46L84.42 217.83L73.70 214.39L65.56 222.59L68.13 234.22L78.85 237.66ZM68.13 234.22L65.56 222.59L54.84 219.16L46.70 227.36L49.27 238.99L59.99 242.42ZM94.71 264.37L92.14 252.74L81.42 249.30L73.28 257.49L75.85 269.12L86.57 272.56ZM75.85 269.12L73.28 257.49L62.57 254.06L54.43 262.25L57.00 273.88L67.71 277.31ZM100.29 244.54L97.72 232.90L87.00 229.46L78.85 237.66L81.42 249.30L92.14 252.74ZM162.53 210.45L159.97 198.80L149.23 195.35L141.07 203.55L143.64 215.20L154.36 218.65ZM143.64 215.20L141.07 203.55L130.34 200.11L122.18 208.31L124.75 219.95L135.47 223.40ZM168.14 190.60L165.57 178.95L154.84 175.50L146.67 183.70L149.23 195.35L159.97 198.80ZM149.23 195.35L146.67 183.70L135.93 180.25L127.77 188.46L130.34 200.11L141.07 203.55ZM175.82 225.56L173.26 213.91L162.53 210.45L154.36 218.65L156.93 230.30L167.66 233.75ZM156.93 230.30L154.36 218.65L143.64 215.20L135.47 223.40L138.04 235.04L148.77 238.49ZM181.43 205.71L178.87 194.06L168.14 190.60L159.97 198.80L162.53 210.45L173.26 213.91ZM30.43 243.76L27.84 232.13L17.13 228.70L9.00 236.90L11.58 248.53L22.29 251.96ZM43.72 258.82L41.14 247.19L30.43 243.76L22.29 251.96L24.87 263.58L35.58 267.01ZM24.87 263.58L22.29 251.96L11.58 248.53L3.46 256.73L6.04 268.35L16.75 271.78ZM49.27 238.99L46.70 227.36L35.98 223.93L27.84 232.13L30.43 243.76L41.14 247.19ZM234.59 266.16L232.04 254.51L221.30 251.04L213.13 259.23L215.68 270.88L226.41 274.34ZM215.68 270.88L213.13 259.23L202.40 255.77L194.23 263.95L196.79 275.60L207.51 279.06ZM240.22 246.32L237.66 234.67L226.93 231.20L218.75 239.39L221.30 251.04L232.04 254.51ZM221.30 251.04L218.75 239.39L208.02 235.93L199.84 244.12L202.40 255.77L213.13 259.23ZM253.50 261.44L250.95 249.79L240.22 246.32L232.04 254.51L234.59 266.16L245.32 269.63ZM183.50 260.50L180.95 248.85L170.22 245.40L162.05 253.59L164.62 265.23L175.34 268.68ZM164.62 265.23L162.05 253.59L151.33 250.13L143.17 258.32L145.73 269.96L156.46 273.42ZM189.11 240.66L186.56 229.01L175.82 225.56L167.66 233.75L170.22 245.40L180.95 248.85ZM170.22 245.40L167.66 233.75L156.93 230.30L148.77 238.49L151.33 250.13L162.05 253.59ZM202.40 255.77L199.84 244.12L189.11 240.66L180.95 248.85L183.50 260.50L194.23 263.95Z"/><path data-band="3" fill="#dc2626" fill-opacity="0.35" d="M86.14 45.13L83.56 33.47L72.81 30.03L64.64 38.27L67.22 49.93L77.97 53.36ZM18.29 99.31L15.70 87.66L4.97 84.24L-3.18 92.46L-0.59 104.11L10.14 107.53ZM23.85 79.43L21.26 67.77L10.52 64.35L2.38 72.58L4.97 84.24L15.70 87.66ZM4.97 84.24L2.38 72.58L-8.36 69.17L-16.50 77.40L-13.91 89.05L-3.18 92.46ZM31.61 114.38L29.02 102.73L18.29 99.31L10.14 107.53L12.73 119.18L23.46 122.60ZM12.73 119.18L10.14 107.53L-0.59 104.11L-8.73 112.34L-6.14 123.98L4.59 127.40ZM37.17 94.50L34.59 82.85L23.85 79.43L15.70 87.66L18.29 99.31L29.02 102.73ZM48.32 54.74L45.73 43.08L34.99 39.65L26.83 47.89L29.42 59.54L40.16 62.97ZM29.42 59.54L26.83 47.89L16.09 44.46L7.94 52.70L10.52 64.35L21.26 67.77ZM53.89 34.84L51.31 23.18L40.56 19.75L32.40 27.99L34.99 39.65L45.73 43.08ZM34.99 39.65L32.40 27.99L21.65 24.57L13.50 32.81L16.09 44.46L26.83 47.89ZM61.64 69.82L59.06 58.16L48.32 54.74L40.16 62.97L42.74 74.62L53.48 78.05ZM42.74 74.62L40.16 62.97L29.42 59.54L21.26 67.77L23.85 79.43L34.59 82.85ZM67.22 49.93L64.64 38.27L53.89 34.84L45.73 43.08L48.32 54.74L59.06 58.16ZM2.75 29.39L0.16 17.73L-10.58 14.31L-18.73 22.55L-16.14 34.21L-5.40 37.62ZM10.52 64.35L7.94 52.70L-2.80 49.28L-10.95 57.52L-8.36 69.17L2.38 72.58ZM16.09 44.46L13.50 32.81L2.75 29.39L-5.40 37.62L-2.80 49.28L7.94 52.70ZM39.36 149.32L36.78 137.67L26.05 134.25L17.90 142.47L20.49 154.11L31.21 157.53ZM20.49 154.11L17.90 142.47L7.18 139.04L-0.96 147.26L1.62 158.90L12.35 162.32ZM44.92 129.45L42.34 117.81L31.61 114.38L23.46 122.60L26.05 134.25L36.78 137.67ZM26.05 134.25L23.46 122.60L12.73 119.18L4.59 127.40L7.18 139.04L17.90 142.47ZM33.80 169.17L31.21 157.53L20.49 154.11L12.35 162.32L14.93 173.96L25.65 177.39ZM58.24 144.53L55.66 132.88L44.92 129.45L36.78 137.67L39.36 149.32L50.09 152.75ZM1.62 158.90L-0.96 147.26L-11.69 143.84L-19.82 152.06L-17.23 163.70L-6.51 167.12ZM7.18 139.04L4.59 127.40L-6.14 123.98L-14.28 132.20L-11.69 143.84L-0.96 147.26ZM50.49 109.58L47.91 97.93L37.17 94.50L29.02 102.73L31.61 114.38L42.34 117.81ZM56.07 89.71L53.48 78.05L42.74 74.62L34.59 82.85L37.17 94.50L47.91 97.93ZM63.81 124.67L61.23 113.01L50.49 109.58L42.34 117.81L44.92 129.45L55.66 132.88ZM78.40 10.13L75.81 -1.54L65.06 -4.97L56.89 3.27L59.47 14.94L70.22 18.37ZM59.47 14.94L56.89 3.27L46.14 -0.16L37.97 8.09L40.56 19.75L51.31 23.18ZM65.06 -4.97L62.47 -16.64L51.72 -20.07L43.55 -11.82L46.14 -0.16L56.89 3.27ZM91.73 25.23L89.15 13.56L78.40 10.13L70.22 18.37L72.81 30.03L83.56 33.47ZM72.81 30.03L70.22 18.37L59.47 14.94L51.31 23.18L53.89 34.84L64.64 38.27ZM27.22 4.66L24.63 -7.00L13.88 -10.42L5.72 -2.18L8.32 9.49L19.06 12.91ZM8.32 9.49L5.72 -2.18L-5.02 -5.59L-13.18 2.65L-10.58 14.31L0.16 17.73ZM40.56 19.75L37.97 8.09L27.22 4.66L19.06 12.91L21.65 24.57L32.40 27.99ZM21.65 24.57L19.06 12.91L8.32 9.49L0.16 17.73L2.75 29.39L13.50 32.81ZM46.14 -0.16L43.55 -11.82L32.79 -15.25L24.63 -7.00L27.22 4.66L37.97 8.09ZM41.54 204.09L38.96 192.45L28.24 189.02L20.10 197.23L22.68 208.87L33.40 212.29ZM9.38 193.81L6.80 182.17L-3.92 178.75L-12.05 186.96L-9.47 198.60L1.25 202.02ZM14.93 173.96L12.35 162.32L1.62 158.90L-6.51 167.12L-3.92 178.75L6.80 182.17ZM22.68 208.87L20.10 197.23L9.38 193.81L1.25 202.02L3.83 213.65L14.55 217.07ZM3.83 213.65L1.25 202.02L-9.47 198.60L-17.59 206.80L-15.01 218.43L-4.29 221.85ZM28.24 189.02L25.65 177.39L14.93 173.96L6.80 182.17L9.38 193.81L20.10 197.23ZM6.04 268.35L3.46 256.73L-7.25 253.31L-15.37 261.51L-12.79 273.13L-2.08 276.55ZM11.58 248.53L9.00 236.90L-1.71 233.48L-9.83 241.68L-7.25 253.31L3.46 256.73ZM35.98 223.93L33.40 212.29L22.68 208.87L14.55 217.07L17.13 228.70L27.84 232.13ZM17.13 228.70L14.55 217.07L3.83 213.65L-4.29 221.85L-1.71 233.48L9.00 236.90Z"/></svg>
