<svg xmlns="http://www.w3.org/2000/svg" width="256" height="256" viewBox="0 0 256 256"><path data-band="1" fill="#fde68a" fill-opacity="0.35" d="M269.15 259.14L266.61 247.52L255.92 244.04L247.76 252.18L250.30 263.80L260.99 267.28ZM274.77 239.38L272.23 227.76L261.53 224.28L253.38 232.43L255.92 244.04L266.61 247.52ZM237.07 248.71L234.53 237.10L223.83 233.62L215.68 241.77L218.23 253.38L228.92 256.85ZM218.23 253.38L215.68 241.77L204.99 238.30L196.85 246.44L199.40 258.05L210.08 261.52ZM242.68 228.95L240.14 217.33L229.44 213.86L221.29 222.01L223.83 233.62L234.53 237.10ZM223.83 233.62L221.29 222.01L210.59 218.54L202.44 226.69L204.99 238.30L215.68 241.77ZM250.30 263.80L247.76 252.18L237.07 248.71L228.92 256.85L231.46 268.46L242.15 271.94ZM231.46 268.46L228.92 256.85L218.23 253.38L210.08 261.52L212.63 273.13L223.32 276.60ZM255.92 244.04L253.38 232.43L242.68 228.95L234.53 237.10L237.07 248.71L247.76 252.18ZM246.28 154.53L243.73 142.90L233.02 139.43L224.86 147.59L227.41 159.22L238.12 162.69ZM251.90 134.74L249.35 123.11L238.64 119.64L230.47 127.80L233.02 139.43L243.73 142.90ZM259.53 169.64L256.99 158.01L246.28 154.53L238.12 162.69L240.66 174.32L251.37 177.79ZM240.66 174.32L238.12 162.69L227.41 159.22L219.25 167.38L221.80 179.00L232.50 182.47ZM265.15 149.85L262.61 138.22L251.90 134.74L243.73 142.90L246.28 154.53L256.99 158.01ZM276.41 110.26L273.87 98.62L263.15 95.14L254.98 103.31L257.52 114.95L268.24 118.42ZM257.52 114.95L254.98 103.31L244.26 99.84L236.09 108.01L238.64 119.64L249.35 123.11ZM263.15 95.14L260.61 83.50L249.88 80.03L241.71 88.20L244.26 99.84L254.98 103.31ZM270.78 130.06L268.24 118.42L257.52 114.95L249.35 123.11L251.90 134.74L262.61 138.22ZM267.15 204.52L264.61 192.89L253.91 189.42L245.75 197.57L248.29 209.19L258.99 212.66ZM248.29 209.19L245.75 197.57L235.05 194.09L226.89 202.24L229.44 213.86L240.14 217.33ZM272.78 184.74L270.24 173.11L259.53 169.64L251.37 177.79L253.91 189.42L264.61 192.89ZM253.91 189.42L251.37 177.79L240.66 174.32L232.50 182.47L235.05 194.09L245.75 197.57ZM261.53 224.28L258.99 212.66L248.29 209.19L240.14 217.33L242.68 228.95L253.38 232.43ZM266.78 20.57L264.23 8.91L253.50 5.44L245.32 13.63L247.87 25.28L258.60 28.75ZM229.44 213.86L226.89 202.24L216.19 198.77L208.04 206.92L210.59 218.54L221.29 222.01ZM268.78 75.33L266.24 63.69L255.51 60.22L247.34 68.39L249.88 80.03L260.61 83.50ZM274.42 55.52L271.87 43.87L261.15 40.40L252.97 48.57L255.51 60.22L266.24 63.69Z"/><path data-band="2" fill="#f97316" fill-opacity="0.35" d="M161.76 267.41L159.20 255.81L148.52 252.35L140.39 260.49L142.95 272.09L153.63 275.55ZM110.91 261.73L108.35 250.13L97.67 246.69L89.55 254.83L92.12 266.43L102.79 269.88ZM92.12 266.43L89.55 254.83L78.88 251.39L70.77 259.54L73.33 271.13L84.00 274.57ZM227.41 159.22L224.86 147.59L214.15 144.13L206.00 152.29L208.55 163.91L219.25 167.38ZM233.02 139.43L230.47 127.80L219.76 124.33L211.60 132.50L214.15 144.13L224.86 147.59ZM272.42 0.73L269.87 -10.92L259.14 -14.40L250.95 -6.21L253.50 5.44L264.23 8.91ZM72.44 87.62L69.87 76.00L59.17 72.56L51.04 80.74L53.61 92.36L64.31 95.80ZM53.61 92.36L51.04 80.74L40.34 77.31L32.22 85.49L34.79 97.10L45.49 100.54ZM78.00 67.81L75.43 56.19L64.72 52.75L56.59 60.94L59.17 72.56L69.87 76.00ZM59.17 72.56L56.59 60.94L45.89 57.50L37.76 65.69L40.34 77.31L51.04 80.74ZM85.71 102.68L83.14 91.06L72.44 87.62L64.31 95.80L66.88 107.41L77.58 110.85ZM66.88 107.41L64.31 95.80L53.61 92.36L45.49 100.54L48.06 112.15L58.76 115.59ZM91.28 82.88L88.71 71.26L78.00 67.81L69.87 76.00L72.44 87.62L83.14 91.06ZM21.52 82.06L18.94 70.44L8.24 67.02L0.13 75.20L2.71 86.81L13.40 90.24ZM2.71 86.81L0.13 75.20L-10.57 71.78L-18.68 79.96L-16.10 91.57L-5.41 95.00ZM27.06 62.26L24.48 50.64L13.78 47.21L5.66 55.40L8.24 67.02L18.94 70.44ZM34.79 97.10L32.22 85.49L21.52 82.06L13.40 90.24L15.98 101.85L26.67 105.28ZM15.98 101.85L13.40 90.24L2.71 86.81L-5.41 95.00L-2.83 106.60L7.86 110.03ZM40.34 77.31L37.76 65.69L27.06 62.26L18.94 70.44L21.52 82.06L32.22 85.49ZM102.42 43.26L99.85 31.63L89.14 28.19L81.00 36.38L83.57 48.01L94.28 51.45ZM83.57 48.01L81.00 36.38L70.29 32.94L62.15 41.13L64.72 52.75L75.43 56.19ZM108.00 23.45L105.43 11.81L94.71 8.37L86.57 16.56L89.14 28.19L99.85 31.63ZM89.14 28.19L86.57 16.56L75.85 13.12L67.71 21.31L70.29 32.94L81.00 36.38ZM115.70 58.34L113.13 46.71L102.42 43.26L94.28 51.45L96.85 63.07L107.55 66.52ZM96.85 63.07L94.28 51.45L83.57 48.01L75.43 56.19L78.00 67.81L88.71 71.26ZM121.28 38.52L118.71 26.89L108.00 23.45L99.85 31.63L102.42 43.26L113.13 46.71ZM51.44 37.70L48.87 26.07L38.16 22.64L30.03 30.83L32.61 42.45L43.31 45.88ZM32.61 42.45L30.03 30.83L19.33 27.40L11.20 35.59L13.78 47.21L24.48 50.64ZM57.00 17.88L54.43 6.25L43.72 2.82L35.58 11.01L38.16 22.64L48.87 26.07ZM38.16 22.64L35.58 11.01L24.87 7.58L16.75 15.78L19.33 27.40L30.03 30.83ZM64.72 52.75L62.15 41.13L51.44 37.70L43.31 45.88L45.89 57.50L56.59 60.94ZM45.89 57.50L43.31 45.88L32.61 42.45L24.48 50.64L27.06 62.26L37.76 65.69ZM70.29 32.94L67.71 21.31L57.00 17.88L48.87 26.07L51.44 37.70L62.15 41.13ZM93.41 137.52L90.84 125.91L80.15 122.47L72.02 130.64L74.59 142.25L85.28 145.69ZM74.59 142.25L72.02 130.64L61.33 127.20L53.20 135.37L55.78 146.98L66.47 150.42ZM98.98 117.74L96.41 106.12L85.71 102.68L77.58 110.85L80.15 122.47L90.84 125.91ZM80.15 122.47L77.58 110.85L66.88 107.41L58.76 115.59L61.33 127.20L72.02 130.64ZM106.67 152.58L104.11 140.97L93.41 137.52L85.28 145.69L87.85 157.30L98.54 160.75ZM87.85 157.30L85.28 145.69L74.59 142.25L66.47 150.42L69.03 162.03L79.72 165.47ZM112.24 132.80L109.68 121.18L98.98 117.74L90.84 125.91L93.41 137.52L104.11 140.97ZM42.51 131.93L39.94 120.33L29.25 116.89L21.13 125.07L23.71 136.67L34.40 140.11ZM23.71 136.67L21.13 125.07L10.44 121.64L2.33 129.81L4.91 141.42L15.59 144.85ZM48.06 112.15L45.49 100.54L34.79 97.10L26.67 105.28L29.25 116.89L39.94 120.33ZM29.25 116.89L26.67 105.28L15.98 101.85L7.86 110.03L10.44 121.64L21.13 125.07ZM55.78 146.98L53.20 135.37L42.51 131.93L34.40 140.11L36.97 151.71L47.66 155.15ZM36.97 151.71L34.40 140.11L23.71 136.67L15.59 144.85L18.17 156.45L28.86 159.88ZM61.33 127.20L58.76 115.59L48.06 112.15L39.94 120.33L42.51 131.93L53.20 135.37ZM123.39 93.22L120.83 81.59L110.12 78.14L101.98 86.32L104.55 97.94L115.25 101.39ZM104.55 97.94L101.98 86.32L91.28 82.88L83.14 91.06L85.71 102.68L96.41 106.12ZM128.97 73.41L126.41 61.78L115.70 58.34L107.55 66.52L110.12 78.14L120.83 81.59ZM110.12 78.14L107.55 66.52L96.85 63.07L88.71 71.26L91.28 82.88L101.98 86.32ZM136.66 108.29L134.10 96.66L123.39 93.22L115.25 101.39L117.81 113.01L128.52 116.46ZM117.81 113.01L115.25 101.39L104.55 97.94L96.41 106.12L98.98 117.74L109.68 121.18ZM142.24 88.49L139.68 76.86L128.97 73.41L120.83 81.59L123.39 93.22L134.10 96.66ZM4.91 141.42L2.33 129.81L-8.36 126.39L-16.46 134.56L-13.88 146.16L-3.20 149.59ZM10.44 121.64L7.86 110.03L-2.83 106.60L-10.94 114.78L-8.36 126.39L2.33 129.81ZM132.45 -1.12L129.88 -12.76L119.16 -16.21L111.01 -8.02L113.58 3.62L124.29 7.07ZM113.58 3.62L111.01 -8.02L100.29 -11.46L92.14 -3.26L94.71 8.37L105.43 11.81ZM145.73 13.96L143.17 2.32L132.45 -1.12L124.29 7.07L126.86 18.70L137.58 22.15ZM126.86 18.70L124.29 7.07L113.58 3.62L105.43 11.81L108.00 23.45L118.71 26.89ZM151.33 -5.87L148.77 -17.51L138.04 -20.96L129.88 -12.76L132.45 -1.12L143.17 2.32ZM81.42 -6.70L78.85 -18.34L68.13 -21.78L59.99 -13.58L62.57 -1.94L73.28 1.49ZM62.57 -1.94L59.99 -13.58L49.27 -17.01L41.14 -8.81L43.72 2.82L54.43 6.25ZM94.71 8.37L92.14 -3.26L81.42 -6.70L73.28 1.49L75.85 13.12L86.57 16.56ZM75.85 13.12L73.28 1.49L62.57 -1.94L54.43 6.25L57.00 17.88L67.71 21.31ZM43.72 2.82L41.14 -8.81L30.43 -12.24L22.29 -4.04L24.87 7.58L35.58 11.01ZM24.87 7.58L22.29 -4.04L11.58 -7.47L3.46 0.73L6.04 12.35L16.75 15.78ZM165.26 193.07L162.71 181.46L152.01 178.00L143.87 186.16L146.43 197.77L157.12 201.23ZM146.43 197.77L143.87 186.16L133.18 182.71L125.05 190.86L127.61 202.47L138.30 205.93ZM170.85 173.30L168.29 161.68L157.59 158.23L149.45 166.39L152.01 178.00L162.71 181.46ZM152.01 178.00L149.45 166.39L138.76 162.93L130.62 171.09L133.18 182.71L143.87 186.16ZM178.51 208.15L175.96 196.53L165.26 193.07L157.12 201.23L159.68 212.84L170.37 216.30ZM159.68 212.84L157.12 201.23L146.43 197.77L138.30 205.93L140.85 217.53L151.54 220.99ZM184.10 188.38L181.55 176.76L170.85 173.30L162.71 181.46L165.26 193.07L175.96 196.53ZM114.36 187.41L111.80 175.80L101.10 172.36L92.98 180.52L95.54 192.12L106.23 195.57ZM95.54 192.12L92.98 180.52L82.29 177.07L74.17 185.24L76.73 196.84L87.42 200.28ZM119.93 167.64L117.37 156.03L106.67 152.58L98.54 160.75L101.10 172.36L111.80 175.80ZM101.10 172.36L98.54 160.75L87.85 157.30L79.72 165.47L82.29 177.07L92.98 180.52ZM127.61 202.47L125.05 190.86L114.36 187.41L106.23 195.57L108.79 207.18L119.48 210.63ZM108.79 207.18L106.23 195.57L95.54 192.12L87.42 200.28L89.98 211.89L100.67 215.33ZM133.18 182.71L130.62 171.09L119.93 167.64L111.80 175.80L114.36 187.41L125.05 190.86ZM195.29 148.82L192.74 137.20L182.04 133.74L173.89 141.90L176.44 153.52L187.14 156.98ZM176.44 153.52L173.89 141.90L163.18 138.44L155.04 146.61L157.59 158.23L168.29 161.68ZM200.90 129.03L198.34 117.41L187.63 113.94L179.48 122.11L182.04 133.74L192.74 137.20ZM182.04 133.74L179.48 122.11L168.77 118.65L160.63 126.82L163.18 138.44L173.89 141.90ZM208.55 163.91L206.00 152.29L195.29 148.82L187.14 156.98L189.69 168.60L200.40 172.07ZM189.69 168.60L187.14 156.98L176.44 153.52L168.29 161.68L170.85 173.30L181.55 176.76ZM214.15 144.13L211.60 132.50L200.90 129.03L192.74 137.20L195.29 148.82L206.00 152.29ZM144.34 143.15L141.78 131.53L131.08 128.08L122.94 136.25L125.50 147.86L136.20 151.32ZM125.50 147.86L122.94 136.25L112.24 132.80L104.11 140.97L106.67 152.58L117.37 156.03ZM149.92 123.36L147.36 111.74L136.66 108.29L128.52 116.46L131.08 128.08L141.78 131.53ZM131.08 128.08L128.52 116.46L117.81 113.01L109.68 121.18L112.24 132.80L122.94 136.25ZM157.59 158.23L155.04 146.61L144.34 143.15L136.20 151.32L138.76 162.93L149.45 166.39ZM138.76 162.93L136.20 151.32L125.50 147.86L117.37 156.03L119.93 167.64L130.62 171.09ZM163.18 138.44L160.63 126.82L149.92 123.36L141.78 131.53L144.34 143.15L155.04 146.61ZM186.16 242.98L183.61 231.37L172.92 227.91L164.78 236.06L167.34 247.66L178.02 251.12ZM167.34 247.66L164.78 236.06L154.10 232.60L145.96 240.75L148.52 252.35L159.20 255.81ZM191.75 223.22L189.20 211.61L178.51 208.15L170.37 216.30L172.92 227.91L183.61 231.37ZM172.92 227.91L170.37 216.30L159.68 212.84L151.54 220.99L154.10 232.60L164.78 236.06ZM199.40 258.05L196.85 246.44L186.16 242.98L178.02 251.12L180.57 262.73L191.26 266.19ZM180.57 262.73L178.02 251.12L167.34 247.66L159.20 255.81L161.76 267.41L172.44 270.87ZM204.99 238.30L202.44 226.69L191.75 223.22L183.61 231.37L186.16 242.98L196.85 246.44ZM135.28 237.29L132.72 225.69L122.04 222.23L113.91 230.38L116.47 241.99L127.15 245.44ZM116.47 241.99L113.91 230.38L103.23 226.94L95.11 235.09L97.67 246.69L108.35 250.13ZM140.85 217.53L138.30 205.93L127.61 202.47L119.48 210.63L122.04 222.23L132.72 225.69ZM122.04 222.23L119.48 210.63L108.79 207.18L100.67 215.33L103.23 226.94L113.91 230.38ZM148.52 252.35L145.96 240.75L135.28 237.29L127.15 245.44L129.71 257.04L140.39 260.49ZM129.71 257.04L127.15 245.44L116.47 241.99L108.35 250.13L110.91 261.73L121.59 265.18ZM154.10 232.60L151.54 220.99L140.85 217.53L132.72 225.69L135.28 237.29L145.96 240.75ZM216.19 198.77L213.65 187.15L202.95 183.69L194.80 191.84L197.35 203.46L208.04 206.92ZM197.35 203.46L194.80 191.84L184.10 188.38L175.96 196.53L178.51 208.15L189.20 211.61ZM221.80 179.00L219.25 167.38L208.55 163.91L200.40 172.07L202.95 183.69L213.65 187.15ZM202.95 183.69L200.40 172.07L189.69 168.60L181.55 176.76L184.10 188.38L194.80 191.84ZM210.59 218.54L208.04 206.92L197.35 203.46L189.20 211.61L191.75 223.22L202.44 226.69ZM235.05 194.09L232.50 182.47L221.80 179.00L213.65 187.15L216.19 198.77L226.89 202.24ZM33.61 226.03L31.04 214.44L20.36 211.01L12.26 219.17L14.83 230.76L25.50 234.19ZM14.83 230.76L12.26 219.17L1.58 215.73L-6.52 223.89L-3.94 235.48L6.73 238.91ZM39.14 206.28L36.57 194.68L25.89 191.25L17.79 199.41L20.36 211.01L31.04 214.44ZM20.36 211.01L17.79 199.41L7.11 195.98L-0.99 204.14L1.58 215.73L12.26 219.17ZM46.85 241.06L44.28 229.47L33.61 226.03L25.50 234.19L28.07 245.78L38.75 249.22ZM28.07 245.78L25.50 234.19L14.83 230.76L6.73 238.91L9.30 250.50L19.97 253.93ZM52.39 221.31L49.82 209.72L39.14 206.28L31.04 214.44L33.61 226.03L44.28 229.47ZM1.58 215.73L-0.99 204.14L-11.67 200.71L-19.77 208.88L-17.19 220.47L-6.52 223.89ZM63.48 181.80L60.91 170.19L50.23 166.75L42.11 174.92L44.68 186.52L55.37 189.96ZM44.68 186.52L42.11 174.92L31.43 171.48L23.32 179.65L25.89 191.25L36.57 194.68ZM69.03 162.03L66.47 150.42L55.78 146.98L47.66 155.15L50.23 166.75L60.91 170.19ZM50.23 166.75L47.66 155.15L36.97 151.71L28.86 159.88L31.43 171.48L42.11 174.92ZM76.73 196.84L74.17 185.24L63.48 181.80L55.37 189.96L57.94 201.56L68.62 205.00ZM57.94 201.56L55.37 189.96L44.68 186.52L36.57 194.68L39.14 206.28L49.82 209.72ZM82.29 177.07L79.72 165.47L69.03 162.03L60.91 170.19L63.48 181.80L74.17 185.24ZM12.64 176.22L10.06 164.62L-0.62 161.19L-8.72 169.36L-6.15 180.96L4.53 184.38ZM18.17 156.45L15.59 144.85L4.91 141.42L-3.20 149.59L-0.62 161.19L10.06 164.62ZM25.89 191.25L23.32 179.65L12.64 176.22L4.53 184.38L7.11 195.98L17.79 199.41ZM7.11 195.98L4.53 184.38L-6.15 180.96L-14.25 189.12L-11.67 200.71L-0.99 204.14ZM31.43 171.48L28.86 159.88L18.17 156.45L10.06 164.62L12.64 176.22L23.32 179.65ZM60.09 256.10L57.53 244.50L46.85 241.06L38.75 249.22L41.31 260.81L51.99 264.24ZM41.31 260.81L38.75 249.22L28.07 245.78L19.97 253.93L22.54 265.52L33.21 268.96ZM3.78 270.24L1.21 258.65L-9.46 255.22L-17.55 263.38L-14.97 274.96L-4.31 278.39ZM9.30 250.50L6.73 238.91L-3.94 235.48L-12.03 243.64L-9.46 255.22L1.21 258.65ZM22.54 265.52L19.97 253.93L9.30 250.50L1.21 258.65L3.78 270.24L14.45 273.67ZM84.43 231.64L81.87 220.04L71.18 216.60L63.07 224.75L65.64 236.35L76.31 239.79ZM65.64 236.35L63.07 224.75L52.39 221.31L44.28 229.47L46.85 241.06L57.53 244.50ZM89.98 211.89L87.42 200.28L76.73 196.84L68.62 205.00L71.18 216.60L81.87 220.04ZM71.18 216.60L68.62 205.00L57.94 201.56L49.82 209.72L52.39 221.31L63.07 224.75ZM97.67 246.69L95.11 235.09L84.43 231.64L76.31 239.79L78.88 251.39L89.55 254.83ZM78.88 251.39L76.31 239.79L65.64 236.35L57.53 244.50L60.09 256.10L70.77 259.54ZM103.23 226.94L100.67 215.33L89.98 211.89L81.87 220.04L84.43 231.64L95.11 235.09ZM204.45 54.52L201.90 42.88L191.18 39.42L183.01 47.60L185.57 59.24L196.29 62.70ZM185.57 59.24L183.01 47.60L172.30 44.15L164.14 52.33L166.70 63.96L177.41 67.42ZM210.07 34.70L207.51 23.06L196.79 19.60L188.62 27.78L191.18 39.42L201.90 42.88ZM191.18 39.42L188.62 27.78L177.90 24.32L169.74 32.51L172.30 44.15L183.01 47.60ZM217.73 69.63L215.17 57.99L204.45 54.52L196.29 62.70L198.84 74.34L209.56 77.80ZM198.84 74.34L196.29 62.70L185.57 59.24L177.41 67.42L179.97 79.05L190.68 82.51ZM223.34 49.81L220.79 38.17L210.07 34.70L201.90 42.88L204.45 54.52L215.17 57.99ZM153.42 48.87L150.86 37.24L140.14 33.79L131.99 41.97L134.56 53.60L145.27 57.05ZM134.56 53.60L131.99 41.97L121.28 38.52L113.13 46.71L115.70 58.34L126.41 61.78ZM159.02 29.05L156.46 17.42L145.73 13.96L137.58 22.15L140.14 33.79L150.86 37.24ZM140.14 33.79L137.58 22.15L126.86 18.70L118.71 26.89L121.28 38.52L131.99 41.97ZM166.70 63.96L164.14 52.33L153.42 48.87L145.27 57.05L147.83 68.69L158.54 72.14ZM147.83 68.69L145.27 57.05L134.56 53.60L126.41 61.78L128.97 73.41L139.68 76.86ZM172.30 44.15L169.74 32.51L159.02 29.05L150.86 37.24L153.42 48.87L164.14 52.33ZM234.59 10.16L232.04 -1.49L221.30 -4.96L213.13 3.23L215.68 14.88L226.41 18.34ZM215.68 14.88L213.13 3.23L202.40 -0.23L194.23 7.95L196.79 19.60L207.51 23.06ZM221.30 -4.96L218.75 -16.61L208.02 -20.07L199.84 -11.88L202.40 -0.23L213.13 3.23ZM247.87 25.28L245.32 13.63L234.59 10.16L226.41 18.34L228.96 29.99L239.69 33.46ZM228.96 29.99L226.41 18.34L215.68 14.88L207.51 23.06L210.07 34.70L220.79 38.17ZM253.50 5.44L250.95 -6.21L240.22 -9.68L232.04 -1.49L234.59 10.16L245.32 13.63ZM183.50 4.50L180.95 -7.15L170.22 -10.60L162.05 -2.41L164.62 9.23L175.34 12.68ZM164.62 9.23L162.05 -2.41L151.33 -5.87L143.17 2.32L145.73 13.96L156.46 17.42ZM196.79 19.60L194.23 7.95L183.50 4.50L175.34 12.68L177.90 24.32L188.62 27.78ZM177.90 24.32L175.34 12.68L164.62 9.23L156.46 17.42L159.02 29.05L169.74 32.51ZM202.40 -0.23L199.84 -11.88L189.11 -15.34L180.95 -7.15L183.50 4.50L194.23 7.95ZM225.38 104.54L222.83 92.90L212.11 89.44L203.95 97.61L206.50 109.24L217.21 112.70ZM206.50 109.24L203.95 97.61L193.24 94.14L185.08 102.31L187.63 113.94L198.34 117.41ZM230.99 84.73L228.44 73.09L217.73 69.63L209.56 77.80L212.11 89.44L222.83 92.90ZM212.11 89.44L209.56 77.80L198.84 74.34L190.68 82.51L193.24 94.14L203.95 97.61ZM238.64 119.64L236.09 108.01L225.38 104.54L217.21 112.70L219.76 124.33L230.47 127.80ZM219.76 124.33L217.21 112.70L206.50 109.24L198.34 117.41L200.90 129.03L211.60 132.50ZM244.26 99.84L241.71 88.20L230.99 84.73L222.83 92.90L225.38 104.54L236.09 108.01ZM174.37 98.86L171.81 87.23L161.10 83.77L152.95 91.94L155.51 103.57L166.22 107.03ZM155.51 103.57L152.95 91.94L142.24 88.49L134.10 96.66L136.66 108.29L147.36 111.74ZM179.97 79.05L177.41 67.42L166.70 63.96L158.54 72.14L161.10 83.77L171.81 87.23ZM161.10 83.77L158.54 72.14L147.83 68.69L139.68 76.86L142.24 88.49L152.95 91.94ZM187.63 113.94L185.08 102.31L174.37 98.86L166.22 107.03L168.77 118.65L179.48 122.11ZM168.77 118.65L166.22 107.03L155.51 103.57L147.36 111.74L149.92 123.36L160.63 126.82ZM193.24 94.14L190.68 82.51L179.97 79.05L171.81 87.23L174.37 98.86L185.08 102.31ZM255.51 60.22L252.97 48.57L242.24 45.10L234.07 53.28L236.62 64.92L247.34 68.39ZM236.62 64.92L234.07 53.28L223.34 49.81L215.17 57.99L217.73 69.63L228.44 73.09ZM261.15 40.40L258.60 28.75L247.87 25.28L239.69 33.46L242.24 45.10L252.97 48.57ZM242.24 45.10L239.69 33.46L228.96 29.99L220.79 38.17L223.34 49.81L234.07 53.28ZM249.88 80.03L247.34 68.39L236.62 64.92L228.44 73.09L230.99 84.73L241.71 88.20Z"/><path data-band="3" fill="#dc2626" fill-opacity="0.35" d="M8.24 67.02L5.66 55.40L-5.04 51.98L-13.15 60.17L-10.57 71.78L0.13 75.20ZM0.50 32.17L-2.08 20.55L-12.79 17.13L-20.90 25.32L-18.32 36.94L-7.62 40.36ZM6.04 12.35L3.46 0.73L-7.25 -2.69L-15.37 5.51L-12.79 17.13L-2.08 20.55ZM13.78 47.21L11.20 35.59L0.50 32.17L-7.62 40.36L-5.04 51.98L5.66 55.40ZM19.33 27.40L16.75 15.78L6.04 12.35L-2.08 20.55L0.50 32.17L11.20 35.59ZM11.58 -7.47L9.00 -19.10L-1.71 -22.52L-9.83 -14.32L-7.25 -2.69L3.46 0.73Z"/></svg>
