<svg xmlns="http://www.w3.org/2000/svg" width="256" height="256" viewBox="0 0 256 256"><path data-band="1" fill="#fde68a" fill-opacity="0.35" d="M73.84 252.62L71.30 241.11L60.70 237.65L52.65 245.71L55.20 257.23L65.79 260.68ZM79.35 233.04L76.81 221.52L66.21 218.07L58.15 226.13L60.70 237.65L71.30 241.11ZM118.01 95.81L115.46 84.26L104.84 80.80L96.76 88.89L99.31 100.43L109.93 103.89ZM86.98 267.60L84.44 256.08L73.84 252.62L65.79 260.68L68.34 272.19L78.93 275.65ZM140.88 199.65L138.35 188.12L127.73 184.66L119.66 192.72L122.20 204.25L132.81 207.72ZM122.20 204.25L119.66 192.72L109.05 189.26L100.99 197.33L103.53 208.85L114.14 212.32ZM146.42 180.06L143.88 168.52L133.27 165.05L125.19 173.12L127.73 184.66L138.35 188.12ZM127.73 184.66L125.19 173.12L114.58 169.66L106.51 177.73L109.05 189.26L119.66 192.72ZM154.03 214.66L151.50 203.12L140.88 199.65L132.81 207.72L135.35 219.25L145.96 222.72ZM135.35 219.25L132.81 207.72L122.20 204.25L114.14 212.32L116.68 223.84L127.28 227.31ZM159.57 195.06L157.04 183.52L146.42 180.06L138.35 188.12L140.88 199.65L151.50 203.12ZM95.90 174.27L93.35 162.74L82.74 159.28L74.68 167.36L77.23 178.88L87.83 182.34ZM103.53 208.85L100.99 197.33L90.38 193.87L82.32 201.94L84.86 213.46L95.47 216.92ZM109.05 189.26L106.51 177.73L95.90 174.27L87.83 182.34L90.38 193.87L100.99 197.33ZM170.66 155.85L168.13 144.31L157.51 140.84L149.42 148.91L151.96 160.45L162.58 163.92ZM151.96 160.45L149.42 148.91L138.80 145.44L130.73 153.52L133.27 165.05L143.88 168.52ZM176.22 136.23L173.68 124.69L163.05 121.22L154.97 129.29L157.51 140.84L168.13 144.31ZM157.51 140.84L154.97 129.29L144.34 125.83L136.26 133.90L138.80 145.44L149.42 148.91ZM183.82 170.86L181.29 159.32L170.66 155.85L162.58 163.92L165.12 175.46L175.73 178.93ZM165.12 175.46L162.58 163.92L151.96 160.45L143.88 168.52L146.42 180.06L157.04 183.52ZM189.37 151.25L186.84 139.71L176.22 136.23L168.13 144.31L170.66 155.85L181.29 159.32ZM120.11 150.05L117.57 138.51L106.95 135.05L98.88 143.13L101.42 154.67L112.04 158.13ZM101.42 154.67L98.88 143.13L88.26 139.67L80.19 147.75L82.74 159.28L93.35 162.74ZM125.64 130.44L123.10 118.90L112.48 115.43L104.40 123.52L106.95 135.05L117.57 138.51ZM133.27 165.05L130.73 153.52L120.11 150.05L112.04 158.13L114.58 169.66L125.19 173.12ZM114.58 169.66L112.04 158.13L101.42 154.67L93.35 162.74L95.90 174.27L106.51 177.73ZM138.80 145.44L136.26 133.90L125.64 130.44L117.57 138.51L120.11 150.05L130.73 153.52ZM161.64 249.24L159.10 237.71L148.50 234.24L140.43 242.30L142.96 253.83L153.57 257.30ZM142.96 253.83L140.43 242.30L129.82 238.83L121.76 246.89L124.30 258.41L134.90 261.88ZM167.18 229.66L164.64 218.13L154.03 214.66L145.96 222.72L148.50 234.24L159.10 237.71ZM148.50 234.24L145.96 222.72L135.35 219.25L127.28 227.31L129.82 238.83L140.43 242.30ZM174.77 264.24L172.24 252.72L161.64 249.24L153.57 257.30L156.10 268.82L166.70 272.29ZM156.10 268.82L153.57 257.30L142.96 253.83L134.90 261.88L137.43 273.40L148.03 276.87ZM180.32 244.66L177.79 233.13L167.18 229.66L159.10 237.71L161.64 249.24L172.24 252.72ZM111.15 243.43L108.61 231.90L98.01 228.44L89.95 236.50L92.50 248.02L103.10 251.48ZM92.50 248.02L89.95 236.50L79.35 233.04L71.30 241.11L73.84 252.62L84.44 256.08ZM116.68 223.84L114.14 212.32L103.53 208.85L95.47 216.92L98.01 228.44L108.61 231.90ZM98.01 228.44L95.47 216.92L84.86 213.46L76.81 221.52L79.35 233.04L89.95 236.50ZM124.30 258.41L121.76 246.89L111.15 243.43L103.10 251.48L105.64 263.00L116.23 266.47ZM105.64 263.00L103.10 251.48L92.50 248.02L84.44 256.08L86.98 267.60L97.58 271.06ZM129.82 238.83L127.28 227.31L116.68 223.84L108.61 231.90L111.15 243.43L121.76 246.89ZM191.42 205.48L188.89 193.94L178.27 190.47L170.19 198.53L172.72 210.07L183.33 213.54ZM172.72 210.07L170.19 198.53L159.57 195.06L151.50 203.12L154.03 214.66L164.64 218.13ZM196.97 185.88L194.44 174.34L183.82 170.86L175.73 178.93L178.27 190.47L188.89 193.94ZM178.27 190.47L175.73 178.93L165.12 175.46L157.04 183.52L159.57 195.06L170.19 198.53ZM204.56 220.50L202.03 208.96L191.42 205.48L183.33 213.54L185.87 225.07L196.48 228.55ZM185.87 225.07L183.33 213.54L172.72 210.07L164.64 218.13L167.18 229.66L177.79 233.13ZM210.12 200.90L207.59 189.36L196.97 185.88L188.89 193.94L191.42 205.48L202.03 208.96ZM233.94 -5.89L231.41 -17.46L220.76 -20.94L212.64 -12.84L215.18 -1.27L225.83 2.21ZM260.31 24.22L257.78 12.65L247.13 9.17L239.01 17.26L241.54 28.83L252.19 32.31ZM241.54 28.83L239.01 17.26L228.36 13.78L220.25 21.87L222.78 33.44L233.43 36.92ZM265.90 4.56L263.38 -7.02L252.72 -10.50L244.60 -2.41L247.13 9.17L257.78 12.65ZM247.13 9.17L244.60 -2.41L233.94 -5.89L225.83 2.21L228.36 13.78L239.01 17.26ZM273.49 39.28L270.96 27.71L260.31 24.22L252.19 32.31L254.72 43.88L265.37 47.37ZM254.72 43.88L252.19 32.31L241.54 28.83L233.43 36.92L235.96 48.48L246.60 51.97ZM262.30 78.58L259.77 67.02L249.13 63.53L241.02 71.61L243.55 83.18L254.19 86.66ZM267.89 58.94L265.37 47.37L254.72 43.88L246.60 51.97L249.13 63.53L259.77 67.02ZM275.47 93.63L272.94 82.07L262.30 78.58L254.19 86.66L256.71 98.22L267.35 101.71ZM179.72 62.32L177.18 50.76L166.54 47.29L158.45 55.38L160.99 66.93L171.62 70.40ZM160.99 66.93L158.45 55.38L147.81 51.91L139.72 60.00L142.26 71.55L152.89 75.02ZM185.28 42.67L182.74 31.11L172.10 27.64L164.00 35.73L166.54 47.29L177.18 50.76ZM166.54 47.29L164.00 35.73L153.36 32.26L145.27 40.35L147.81 51.91L158.45 55.38ZM192.89 77.34L190.35 65.79L179.72 62.32L171.62 70.40L174.16 81.96L184.79 85.43ZM174.16 81.96L171.62 70.40L160.99 66.93L152.89 75.02L155.44 86.57L166.07 90.04ZM198.46 57.70L195.92 46.14L185.28 42.67L177.18 50.76L179.72 62.32L190.35 65.79ZM129.09 56.54L126.54 44.98L115.91 41.52L107.82 49.62L110.37 61.17L121.00 64.63ZM142.26 71.55L139.72 60.00L129.09 56.54L121.00 64.63L123.55 76.18L134.18 79.64ZM123.55 76.18L121.00 64.63L110.37 61.17L102.29 69.26L104.84 80.80L115.46 84.26ZM147.81 51.91L145.27 40.35L134.63 36.89L126.54 44.98L129.09 56.54L139.72 60.00ZM209.60 18.39L207.06 6.83L196.42 3.35L188.31 11.45L190.85 23.01L201.49 26.49ZM190.85 23.01L188.31 11.45L177.66 7.98L169.56 16.07L172.10 27.64L182.74 31.11ZM215.18 -1.27L212.64 -12.84L201.99 -16.31L193.88 -8.22L196.42 3.35L207.06 6.83ZM196.42 3.35L193.88 -8.22L183.23 -11.69L175.12 -3.59L177.66 7.98L188.31 11.45ZM222.78 33.44L220.25 21.87L209.60 18.39L201.49 26.49L204.03 38.05L214.67 41.53ZM204.03 38.05L201.49 26.49L190.85 23.01L182.74 31.11L185.28 42.67L195.92 46.14ZM228.36 13.78L225.83 2.21L215.18 -1.27L207.06 6.83L209.60 18.39L220.25 21.87ZM158.92 12.61L156.37 1.04L145.73 -2.42L137.63 5.68L140.18 17.24L150.82 20.70ZM164.48 -7.06L161.93 -18.62L151.29 -22.09L143.18 -13.99L145.73 -2.42L156.37 1.04ZM145.73 -2.42L143.18 -13.99L132.54 -17.45L124.45 -9.34L126.99 2.22L137.63 5.68ZM172.10 27.64L169.56 16.07L158.92 12.61L150.82 20.70L153.36 32.26L164.00 35.73ZM153.36 32.26L150.82 20.70L140.18 17.24L132.09 25.33L134.63 36.89L145.27 40.35ZM177.66 7.98L175.12 -3.59L164.48 -7.06L156.37 1.04L158.92 12.61L169.56 16.07ZM200.50 112.01L197.96 100.46L187.33 96.98L179.23 105.06L181.77 116.61L192.40 120.08ZM181.77 116.61L179.23 105.06L168.60 101.59L160.51 109.67L163.05 121.22L173.68 124.69ZM206.06 92.38L203.53 80.82L192.89 77.34L184.79 85.43L187.33 96.98L197.96 100.46ZM187.33 96.98L184.79 85.43L174.16 81.96L166.07 90.04L168.60 101.59L179.23 105.06ZM213.66 127.04L211.13 115.49L200.50 112.01L192.40 120.08L194.93 131.63L205.56 135.11ZM194.93 131.63L192.40 120.08L181.77 116.61L173.68 124.69L176.22 136.23L186.84 139.71ZM219.23 107.41L216.70 95.85L206.06 92.38L197.96 100.46L200.50 112.01L211.13 115.49ZM149.89 106.20L147.35 94.65L136.72 91.19L128.64 99.27L131.18 110.82L141.80 114.28ZM131.18 110.82L128.64 99.27L118.01 95.81L109.93 103.89L112.48 115.43L123.10 118.90ZM155.44 86.57L152.89 75.02L142.26 71.55L134.18 79.64L136.72 91.19L147.35 94.65ZM136.72 91.19L134.18 79.64L123.55 76.18L115.46 84.26L118.01 95.81L128.64 99.27ZM163.05 121.22L160.51 109.67L149.89 106.20L141.80 114.28L144.34 125.83L154.97 129.29ZM144.34 125.83L141.80 114.28L131.18 110.82L123.10 118.90L125.64 130.44L136.26 133.90ZM168.60 101.59L166.07 90.04L155.44 86.57L147.35 94.65L149.89 106.20L160.51 109.67ZM230.38 68.13L227.85 56.57L217.20 53.09L209.10 61.18L211.63 72.74L222.27 76.22ZM211.63 72.74L209.10 61.18L198.46 57.70L190.35 65.79L192.89 77.34L203.53 80.82ZM235.96 48.48L233.43 36.92L222.78 33.44L214.67 41.53L217.20 53.09L227.85 56.57ZM217.20 53.09L214.67 41.53L204.03 38.05L195.92 46.14L198.46 57.70L209.10 61.18ZM243.55 83.18L241.02 71.61L230.38 68.13L222.27 76.22L224.80 87.77L235.44 91.26ZM224.80 87.77L222.27 76.22L211.63 72.74L203.53 80.82L206.06 92.38L216.70 95.85ZM249.13 63.53L246.60 51.97L235.96 48.48L227.85 56.57L230.38 68.13L241.02 71.61ZM262.68 260.99L260.16 249.46L249.55 245.97L241.46 254.02L243.98 265.55L254.59 269.04ZM243.98 265.55L241.46 254.02L230.84 250.53L222.76 258.58L225.28 270.11L235.89 273.60ZM268.26 241.41L265.74 229.87L255.12 226.38L247.03 234.43L249.55 245.97L260.16 249.46ZM249.55 245.97L247.03 234.43L236.41 230.94L228.32 239.00L230.84 250.53L241.46 254.02ZM212.15 255.10L209.62 243.57L199.01 240.09L190.93 248.14L193.46 259.67L204.06 263.15ZM193.46 259.67L190.93 248.14L180.32 244.66L172.24 252.72L174.77 264.24L185.38 267.72ZM217.70 235.51L215.18 223.98L204.56 220.50L196.48 228.55L199.01 240.09L209.62 243.57ZM199.01 240.09L196.48 228.55L185.87 225.07L177.79 233.13L180.32 244.66L190.93 248.14ZM225.28 270.11L222.76 258.58L212.15 255.10L204.06 263.15L206.59 274.68L217.20 278.16ZM230.84 250.53L228.32 239.00L217.70 235.51L209.62 243.57L212.15 255.10L222.76 258.58ZM271.86 167.56L269.34 156.01L258.71 152.52L250.60 160.59L253.13 172.14L263.75 175.62ZM253.13 172.14L250.60 160.59L239.97 157.10L231.87 165.17L234.40 176.71L245.03 180.20ZM258.71 152.52L256.18 140.97L245.55 137.48L237.45 145.55L239.97 157.10L250.60 160.59ZM266.28 187.17L263.75 175.62L253.13 172.14L245.03 180.20L247.55 191.75L258.17 195.23ZM221.25 161.69L218.72 150.14L208.09 146.66L200.00 154.73L202.53 166.27L213.15 169.75ZM202.53 166.27L200.00 154.73L189.37 151.25L181.29 159.32L183.82 170.86L194.44 174.34ZM226.82 142.07L224.29 130.52L213.66 127.04L205.56 135.11L208.09 146.66L218.72 150.14ZM208.09 146.66L205.56 135.11L194.93 131.63L186.84 139.71L189.37 151.25L200.00 154.73ZM234.40 176.71L231.87 165.17L221.25 161.69L213.15 169.75L215.68 181.30L226.30 184.78ZM215.68 181.30L213.15 169.75L202.53 166.27L194.44 174.34L196.97 185.88L207.59 189.36ZM239.97 157.10L237.45 145.55L226.82 142.07L218.72 150.14L221.25 161.69L231.87 165.17ZM251.13 117.86L248.60 106.30L237.97 102.81L229.86 110.89L232.39 122.44L243.02 125.93ZM232.39 122.44L229.86 110.89L219.23 107.41L211.13 115.49L213.66 127.04L224.29 130.52ZM256.71 98.22L254.19 86.66L243.55 83.18L235.44 91.26L237.97 102.81L248.60 106.30ZM237.97 102.81L235.44 91.26L224.80 87.77L216.70 95.85L219.23 107.41L229.86 110.89ZM264.29 132.90L261.77 121.34L251.13 117.86L243.02 125.93L245.55 137.48L256.18 140.97ZM245.55 137.48L243.02 125.93L232.39 122.44L224.29 130.52L226.82 142.07L237.45 145.55ZM269.88 113.27L267.35 101.71L256.71 98.22L248.60 106.30L251.13 117.86L261.77 121.34ZM273.84 221.81L271.32 210.27L260.70 206.78L252.60 214.83L255.12 226.38L265.74 229.87ZM241.98 211.35L239.45 199.80L228.83 196.32L220.74 204.38L223.27 215.92L233.88 219.40ZM223.27 215.92L220.74 204.38L210.12 200.90L202.03 208.96L204.56 220.50L215.18 223.98ZM247.55 191.75L245.03 180.20L234.40 176.71L226.30 184.78L228.83 196.32L239.45 199.80ZM228.83 196.32L226.30 184.78L215.68 181.30L207.59 189.36L210.12 200.90L220.74 204.38ZM255.12 226.38L252.60 214.83L241.98 211.35L233.88 219.40L236.41 230.94L247.03 234.43ZM236.41 230.94L233.88 219.40L223.27 215.92L215.18 223.98L217.70 235.51L228.32 239.00ZM260.70 206.78L258.17 195.23L247.55 191.75L239.45 199.80L241.98 211.35L252.60 214.83Z"/><path data-band="2" fill="#f97316" fill-opacity="0.35" d="M10.28 231.92L7.72 220.40L-2.87 216.96L-10.91 225.03L-8.35 236.54L2.24 239.98ZM15.76 212.33L13.21 200.82L2.61 197.38L-5.43 205.45L-2.87 216.96L7.72 220.40ZM23.42 246.87L20.87 235.36L10.28 231.92L2.24 239.98L4.79 251.49L15.38 254.94ZM4.79 251.49L2.24 239.98L-8.35 236.54L-16.38 244.60L-13.83 256.11L-3.24 259.55ZM28.91 227.30L26.36 215.78L15.76 212.33L7.72 220.40L10.28 231.92L20.87 235.36ZM39.90 188.12L37.35 176.60L26.75 173.15L18.70 181.23L21.25 192.75L31.85 196.19ZM21.25 192.75L18.70 181.23L8.10 177.78L0.05 185.86L2.61 197.38L13.21 200.82ZM45.40 168.53L42.85 157.00L32.24 153.55L24.19 161.63L26.75 173.15L37.35 176.60ZM26.75 173.15L24.19 161.63L13.59 158.19L5.54 166.26L8.10 177.78L18.70 181.23ZM53.06 203.09L50.51 191.57L39.90 188.12L31.85 196.19L34.41 207.71L45.01 211.16ZM34.41 207.71L31.85 196.19L21.25 192.75L13.21 200.82L15.76 212.33L26.36 215.78ZM58.56 183.50L56.01 171.98L45.40 168.53L37.35 176.60L39.90 188.12L50.51 191.57ZM2.61 197.38L0.05 185.86L-10.54 182.42L-18.58 190.49L-16.02 202.01L-5.43 205.45ZM8.10 177.78L5.54 166.26L-5.06 162.82L-13.10 170.90L-10.54 182.42L0.05 185.86ZM36.56 261.83L34.01 250.32L23.42 246.87L15.38 254.94L17.94 266.44L28.52 269.89ZM17.94 266.44L15.38 254.94L4.79 251.49L-3.24 259.55L-0.69 271.06L9.90 274.50ZM60.70 237.65L58.15 226.13L47.56 222.68L39.51 230.75L42.06 242.26L52.65 245.71ZM42.06 242.26L39.51 230.75L28.91 227.30L20.87 235.36L23.42 246.87L34.01 250.32ZM66.21 218.07L63.66 206.55L53.06 203.09L45.01 211.16L47.56 222.68L58.15 226.13ZM47.56 222.68L45.01 211.16L34.41 207.71L26.36 215.78L28.91 227.30L39.51 230.75ZM55.20 257.23L52.65 245.71L42.06 242.26L34.01 250.32L36.56 261.83L47.16 265.28ZM48.76 94.71L46.20 83.17L35.58 79.72L27.52 87.81L30.08 99.35L40.70 102.80ZM30.08 99.35L27.52 87.81L16.91 84.37L8.85 92.46L11.41 103.99L22.02 107.44ZM54.27 75.08L51.71 63.54L41.09 60.09L33.03 68.18L35.58 79.72L46.20 83.17ZM35.58 79.72L33.03 68.18L22.41 64.74L14.35 72.84L16.91 84.37L27.52 87.81ZM61.93 109.69L59.38 98.16L48.76 94.71L40.70 102.80L43.25 114.33L53.86 117.78ZM43.25 114.33L40.70 102.80L30.08 99.35L22.02 107.44L24.58 118.97L35.19 122.41ZM67.44 90.07L64.89 78.53L54.27 75.08L46.20 83.17L48.76 94.71L59.38 98.16ZM3.73 69.39L1.17 57.86L-9.45 54.42L-17.50 62.52L-14.94 74.05L-4.33 77.49ZM11.41 103.99L8.85 92.46L-1.76 89.02L-9.82 97.11L-7.25 108.64L3.36 112.08ZM16.91 84.37L14.35 72.84L3.73 69.39L-4.33 77.49L-1.76 89.02L8.85 92.46ZM78.48 50.80L75.93 39.25L65.30 35.80L57.23 43.90L59.78 55.44L70.41 58.89ZM59.78 55.44L57.23 43.90L46.60 40.45L38.53 48.55L41.09 60.09L51.71 63.54ZM84.01 31.16L81.46 19.60L70.83 16.15L62.75 24.25L65.30 35.80L75.93 39.25ZM65.30 35.80L62.75 24.25L52.12 20.80L44.05 28.91L46.60 40.45L57.23 43.90ZM91.66 65.80L89.11 54.25L78.48 50.80L70.41 58.89L72.96 70.44L83.59 73.89ZM72.96 70.44L70.41 58.89L59.78 55.44L51.71 63.54L54.27 75.08L64.89 78.53ZM97.19 46.16L94.64 34.61L84.01 31.16L75.93 39.25L78.48 50.80L89.11 54.25ZM27.91 45.10L25.35 33.56L14.73 30.12L6.66 38.22L9.23 49.76L19.85 53.20ZM9.23 49.76L6.66 38.22L-3.96 34.78L-12.01 42.88L-9.45 54.42L1.17 57.86ZM33.42 25.46L30.86 13.91L20.23 10.47L12.17 18.58L14.73 30.12L25.35 33.56ZM14.73 30.12L12.17 18.58L1.54 15.14L-6.52 23.24L-3.96 34.78L6.66 38.22ZM41.09 60.09L38.53 48.55L27.91 45.10L19.85 53.20L22.41 64.74L33.03 68.18ZM22.41 64.74L19.85 53.20L9.23 49.76L1.17 57.86L3.73 69.39L14.35 72.84ZM46.60 40.45L44.05 28.91L33.42 25.46L25.35 33.56L27.91 45.10L38.53 48.55ZM69.58 144.30L67.03 132.76L56.42 129.31L48.36 137.39L50.91 148.92L61.52 152.37ZM50.91 148.92L48.36 137.39L37.75 133.94L29.69 142.03L32.24 153.55L42.85 157.00ZM75.10 124.68L72.55 113.15L61.93 109.69L53.86 117.78L56.42 129.31L67.03 132.76ZM56.42 129.31L53.86 117.78L43.25 114.33L35.19 122.41L37.75 133.94L48.36 137.39ZM82.74 159.28L80.19 147.75L69.58 144.30L61.52 152.37L64.07 163.90L74.68 167.36ZM64.07 163.90L61.52 152.37L50.91 148.92L42.85 157.00L45.40 168.53L56.01 171.98ZM88.26 139.67L85.71 128.14L75.10 124.68L67.03 132.76L69.58 144.30L80.19 147.75ZM19.08 138.58L16.52 127.05L5.92 123.61L-2.13 131.69L0.43 143.22L11.03 146.66ZM0.43 143.22L-2.13 131.69L-12.74 128.26L-20.79 136.34L-18.22 147.86L-7.62 151.30ZM24.58 118.97L22.02 107.44L11.41 103.99L3.36 112.08L5.92 123.61L16.52 127.05ZM5.92 123.61L3.36 112.08L-7.25 108.64L-15.30 116.73L-12.74 128.26L-2.13 131.69ZM32.24 153.55L29.69 142.03L19.08 138.58L11.03 146.66L13.59 158.19L24.19 161.63ZM13.59 158.19L11.03 146.66L0.43 143.22L-7.62 151.30L-5.06 162.82L5.54 166.26ZM37.75 133.94L35.19 122.41L24.58 118.97L16.52 127.05L19.08 138.58L29.69 142.03ZM99.31 100.43L96.76 88.89L86.14 85.44L78.06 93.52L80.61 105.06L91.23 108.52ZM80.61 105.06L78.06 93.52L67.44 90.07L59.38 98.16L61.93 109.69L72.55 113.15ZM104.84 80.80L102.29 69.26L91.66 65.80L83.59 73.89L86.14 85.44L96.76 88.89ZM86.14 85.44L83.59 73.89L72.96 70.44L64.89 78.53L67.44 90.07L78.06 93.52ZM112.48 115.43L109.93 103.89L99.31 100.43L91.23 108.52L93.78 120.06L104.40 123.52ZM93.78 120.06L91.23 108.52L80.61 105.06L72.55 113.15L75.10 124.68L85.71 128.14ZM90.38 193.87L87.83 182.34L77.23 178.88L69.17 186.96L71.71 198.48L82.32 201.94ZM71.71 198.48L69.17 186.96L58.56 183.50L50.51 191.57L53.06 203.09L63.66 206.55ZM77.23 178.88L74.68 167.36L64.07 163.90L56.01 171.98L58.56 183.50L69.17 186.96ZM84.86 213.46L82.32 201.94L71.71 198.48L63.66 206.55L66.21 218.07L76.81 221.52ZM106.95 135.05L104.40 123.52L93.78 120.06L85.71 128.14L88.26 139.67L98.88 143.13ZM108.26 6.86L105.71 -4.70L95.07 -8.15L86.99 -0.05L89.54 11.50L100.18 14.96ZM89.54 11.50L86.99 -0.05L76.35 -3.50L68.27 4.60L70.83 16.15L81.46 19.60ZM121.45 21.87L118.90 10.32L108.26 6.86L100.18 14.96L102.73 26.51L113.36 29.97ZM102.73 26.51L100.18 14.96L89.54 11.50L81.46 19.60L84.01 31.16L94.64 34.61ZM126.99 2.22L124.45 -9.34L113.80 -12.80L105.71 -4.70L108.26 6.86L118.90 10.32ZM57.64 1.15L55.08 -10.40L44.45 -13.85L36.37 -5.74L38.93 5.81L49.56 9.26ZM38.93 5.81L36.37 -5.74L25.74 -9.18L17.67 -1.08L20.23 10.47L30.86 13.91ZM70.83 16.15L68.27 4.60L57.64 1.15L49.56 9.26L52.12 20.80L62.75 24.25ZM52.12 20.80L49.56 9.26L38.93 5.81L30.86 13.91L33.42 25.46L44.05 28.91ZM76.35 -3.50L73.80 -15.06L63.16 -18.51L55.08 -10.40L57.64 1.15L68.27 4.60ZM110.37 61.17L107.82 49.62L97.19 46.16L89.11 54.25L91.66 65.80L102.29 69.26ZM134.63 36.89L132.09 25.33L121.45 21.87L113.36 29.97L115.91 41.52L126.54 44.98ZM115.91 41.52L113.36 29.97L102.73 26.51L94.64 34.61L97.19 46.16L107.82 49.62ZM140.18 17.24L137.63 5.68L126.99 2.22L118.90 10.32L121.45 21.87L132.09 25.33ZM7.04 -4.51L4.48 -16.06L-6.15 -19.50L-14.22 -11.39L-11.65 0.16L-1.02 3.59ZM20.23 10.47L17.67 -1.08L7.04 -4.51L-1.02 3.59L1.54 15.14L12.17 18.58ZM1.54 15.14L-1.02 3.59L-11.65 0.16L-19.71 8.26L-17.14 19.81L-6.52 23.24Z"/></svg>
