<svg xmlns="http://www.w3.org/2000/svg" width="256" height="256" viewBox="0 0 256 256"><path data-band="1" fill="#fde68a" fill-opacity="0.35" d="M73.84 -3.38L71.30 -14.89L60.70 -18.35L52.65 -10.29L55.20 1.23L65.79 4.68ZM102.23 80.66L99.69 69.15L89.10 65.69L81.06 73.74L83.60 85.24L94.18 88.70ZM83.60 85.24L81.06 73.74L70.47 70.28L62.43 78.32L64.97 89.82L75.55 93.28ZM107.74 61.11L105.20 49.60L94.61 46.13L86.56 54.18L89.10 65.69L99.69 69.15ZM89.10 65.69L86.56 54.18L75.97 50.72L67.93 58.77L70.47 70.28L81.06 73.74ZM115.35 95.63L112.81 84.13L102.23 80.66L94.18 88.70L96.72 100.20L107.30 103.67ZM96.72 100.20L94.18 88.70L83.60 85.24L75.55 93.28L78.10 104.78L88.68 108.24ZM120.87 76.08L118.33 64.57L107.74 61.11L99.69 69.15L102.23 80.66L112.81 84.13ZM51.85 74.87L49.30 63.36L38.72 59.91L30.69 67.96L33.23 79.46L43.81 82.91ZM64.97 89.82L62.43 78.32L51.85 74.87L43.81 82.91L46.36 94.41L56.94 97.86ZM46.36 94.41L43.81 82.91L33.23 79.46L25.20 87.50L27.75 99.00L38.33 102.45ZM70.47 70.28L67.93 58.77L57.34 55.31L49.30 63.36L51.85 74.87L62.43 78.32ZM131.91 36.97L129.37 25.45L118.77 21.98L110.72 30.04L113.25 41.55L123.85 45.02ZM113.25 41.55L110.72 30.04L100.12 26.57L92.07 34.62L94.61 46.13L105.20 49.60ZM137.43 17.40L134.90 5.88L124.30 2.41L116.23 10.47L118.77 21.98L129.37 25.45ZM118.77 21.98L116.23 10.47L105.64 7.00L97.58 15.06L100.12 26.57L110.72 30.04ZM145.04 51.95L142.50 40.44L131.91 36.97L123.85 45.02L126.38 56.53L136.98 60.00ZM126.38 56.53L123.85 45.02L113.25 41.55L105.20 49.60L107.74 61.11L118.33 64.57ZM150.57 32.39L148.03 20.87L137.43 17.40L129.37 25.45L131.91 36.97L142.50 40.44ZM81.48 31.16L78.93 19.65L68.34 16.19L60.29 24.25L62.84 35.76L73.43 39.21ZM86.98 11.60L84.44 0.08L73.84 -3.38L65.79 4.68L68.34 16.19L78.93 19.65ZM68.34 16.19L65.79 4.68L55.20 1.23L47.16 9.28L49.70 20.79L60.29 24.25ZM94.61 46.13L92.07 34.62L81.48 31.16L73.43 39.21L75.97 50.72L86.56 54.18ZM75.97 50.72L73.43 39.21L62.84 35.76L54.80 43.81L57.34 55.31L67.93 58.77ZM100.12 26.57L97.58 15.06L86.98 11.60L78.93 19.65L81.48 31.16L92.07 34.62ZM122.95 130.14L120.42 118.64L109.84 115.17L101.79 123.21L104.33 134.71L114.91 138.17ZM104.33 134.71L101.79 123.21L91.21 119.74L83.18 127.78L85.71 139.27L96.29 142.74ZM128.47 110.60L125.94 99.10L115.35 95.63L107.30 103.67L109.84 115.17L120.42 118.64ZM109.84 115.17L107.30 103.67L96.72 100.20L88.68 108.24L91.21 119.74L101.79 123.21ZM136.07 145.11L133.54 133.61L122.95 130.14L114.91 138.17L117.44 149.67L128.02 153.14ZM117.44 149.67L114.91 138.17L104.33 134.71L96.29 142.74L98.83 154.23L109.40 157.70ZM141.59 125.58L139.05 114.08L128.47 110.60L120.42 118.64L122.95 130.14L133.54 133.61ZM72.60 124.32L70.06 112.82L59.48 109.36L51.45 117.40L53.99 128.89L64.56 132.35ZM53.99 128.89L51.45 117.40L40.87 113.95L32.84 121.98L35.39 133.48L45.96 136.93ZM78.10 104.78L75.55 93.28L64.97 89.82L56.94 97.86L59.48 109.36L70.06 112.82ZM59.48 109.36L56.94 97.86L46.36 94.41L38.33 102.45L40.87 113.95L51.45 117.40ZM85.71 139.27L83.18 127.78L72.60 124.32L64.56 132.35L67.10 143.85L77.68 147.31ZM67.10 143.85L64.56 132.35L53.99 128.89L45.96 136.93L48.50 148.42L59.07 151.88ZM91.21 119.74L88.68 108.24L78.10 104.78L70.06 112.82L72.60 124.32L83.18 127.78ZM152.63 86.49L150.10 74.98L139.51 71.51L131.45 79.55L133.99 91.06L144.58 94.53ZM133.99 91.06L131.45 79.55L120.87 76.08L112.81 84.13L115.35 95.63L125.94 99.10ZM158.16 66.94L155.63 55.43L145.04 51.95L136.98 60.00L139.51 71.51L150.10 74.98ZM139.51 71.51L136.98 60.00L126.38 56.53L118.33 64.57L120.87 76.08L131.45 79.55ZM165.75 101.48L163.22 89.97L152.63 86.49L144.58 94.53L147.11 106.04L157.70 109.51ZM147.11 106.04L144.58 94.53L133.99 91.06L125.94 99.10L128.47 110.60L139.05 114.08ZM171.29 81.93L168.76 70.42L158.16 66.94L150.10 74.98L152.63 86.49L163.22 89.97ZM161.64 -6.76L159.10 -18.29L148.50 -21.76L140.43 -13.70L142.96 -2.17L153.57 1.30ZM142.96 -2.17L140.43 -13.70L129.82 -17.17L121.76 -9.11L124.30 2.41L134.90 5.88ZM174.77 8.24L172.24 -3.28L161.64 -6.76L153.57 1.30L156.10 12.82L166.70 16.29ZM156.10 12.82L153.57 1.30L142.96 -2.17L134.90 5.88L137.43 17.40L148.03 20.87ZM92.50 -7.98L89.95 -19.50L79.35 -22.96L71.30 -14.89L73.84 -3.38L84.44 0.08ZM124.30 2.41L121.76 -9.11L111.15 -12.57L103.10 -4.52L105.64 7.00L116.23 10.47ZM105.64 7.00L103.10 -4.52L92.50 -7.98L84.44 0.08L86.98 11.60L97.58 15.06ZM190.52 259.00L188.00 247.51L177.43 244.03L169.38 252.04L171.91 263.52L182.47 267.01ZM171.91 263.52L169.38 252.04L158.82 248.56L150.78 256.57L153.30 268.05L163.87 271.53ZM140.21 253.09L137.69 241.60L127.12 238.13L119.09 246.14L121.62 257.63L132.18 261.10ZM121.62 257.63L119.09 246.14L108.53 242.67L100.50 250.69L103.03 262.16L113.59 265.63ZM153.30 268.05L150.78 256.57L140.21 253.09L132.18 261.10L134.71 272.58L145.27 276.06ZM194.02 185.50L191.50 174.00L180.92 170.52L172.86 178.54L175.39 190.04L185.96 193.52ZM175.39 190.04L172.86 178.54L162.28 175.06L154.23 183.08L156.76 194.58L167.33 198.06ZM199.56 165.98L197.03 154.47L186.45 150.99L178.39 159.02L180.92 170.52L191.50 174.00ZM180.92 170.52L178.39 159.02L167.81 155.54L159.76 163.56L162.28 175.06L172.86 178.54ZM207.12 200.49L204.60 188.98L194.02 185.50L185.96 193.52L188.49 205.02L199.06 208.50ZM188.49 205.02L185.96 193.52L175.39 190.04L167.33 198.06L169.86 209.55L180.43 213.03ZM212.66 180.97L210.14 169.46L199.56 165.98L191.50 174.00L194.02 185.50L204.60 188.98ZM143.66 179.61L141.13 168.11L130.55 164.64L122.51 172.66L125.04 184.16L135.61 187.63ZM125.04 184.16L122.51 172.66L111.93 169.19L103.90 177.22L106.43 188.71L117.00 192.18ZM149.18 160.09L146.65 148.59L136.07 145.11L128.02 153.14L130.55 164.64L141.13 168.11ZM130.55 164.64L128.02 153.14L117.44 149.67L109.40 157.70L111.93 169.19L122.51 172.66ZM156.76 194.58L154.23 183.08L143.66 179.61L135.61 187.63L138.14 199.12L148.71 202.60ZM138.14 199.12L135.61 187.63L125.04 184.16L117.00 192.18L119.53 203.67L130.10 207.14ZM162.28 175.06L159.76 163.56L149.18 160.09L141.13 168.11L143.66 179.61L154.23 183.08ZM223.75 141.91L221.23 130.40L210.64 126.91L202.57 134.94L205.10 146.45L215.68 149.93ZM205.10 146.45L202.57 134.94L191.99 131.46L183.92 139.48L186.45 150.99L197.03 154.47ZM229.30 122.37L226.78 110.85L216.19 107.37L208.12 115.40L210.64 126.91L221.23 130.40ZM210.64 126.91L208.12 115.40L197.53 111.92L189.46 119.95L191.99 131.46L202.57 134.94ZM236.86 156.91L234.34 145.40L223.75 141.91L215.68 149.93L218.20 161.44L228.79 164.93ZM218.20 161.44L215.68 149.93L205.10 146.45L197.03 154.47L199.56 165.98L210.14 169.46ZM242.41 137.37L239.89 125.86L229.30 122.37L221.23 130.40L223.75 141.91L234.34 145.40ZM173.34 136.01L170.81 124.50L160.22 121.02L152.17 129.05L154.70 140.56L165.28 144.03ZM154.70 140.56L152.17 129.05L141.59 125.58L133.54 133.61L136.07 145.11L146.65 148.59ZM178.87 116.47L176.34 104.96L165.75 101.48L157.70 109.51L160.22 121.02L170.81 124.50ZM160.22 121.02L157.70 109.51L147.11 106.04L139.05 114.08L141.59 125.58L152.17 129.05ZM186.45 150.99L183.92 139.48L173.34 136.01L165.28 144.03L167.81 155.54L178.39 159.02ZM167.81 155.54L165.28 144.03L154.70 140.56L146.65 148.59L149.18 160.09L159.76 163.56ZM191.99 131.46L189.46 119.95L178.87 116.47L170.81 124.50L173.34 136.01L183.92 139.48ZM214.68 234.98L212.16 223.48L201.58 220.00L193.53 228.01L196.05 239.50L206.62 242.99ZM196.05 239.50L193.53 228.01L182.96 224.53L174.91 232.54L177.43 244.03L188.00 247.51ZM220.22 215.47L217.70 203.97L207.12 200.49L199.06 208.50L201.58 220.00L212.16 223.48ZM201.58 220.00L199.06 208.50L188.49 205.02L180.43 213.03L182.96 224.53L193.53 228.01ZM227.77 249.96L225.25 238.47L214.68 234.98L206.62 242.99L209.14 254.48L219.71 257.97ZM209.14 254.48L206.62 242.99L196.05 239.50L188.00 247.51L190.52 259.00L201.09 262.49ZM233.31 230.46L230.79 218.96L220.22 215.47L212.16 223.48L214.68 234.98L225.25 238.47ZM164.34 229.06L161.81 217.57L151.24 214.09L143.20 222.10L145.73 233.59L156.29 237.07ZM145.73 233.59L143.20 222.10L132.63 218.63L124.59 226.65L127.12 238.13L137.69 241.60ZM169.86 209.55L167.33 198.06L156.76 194.58L148.71 202.60L151.24 214.09L161.81 217.57ZM151.24 214.09L148.71 202.60L138.14 199.12L130.10 207.14L132.63 218.63L143.20 222.10ZM177.43 244.03L174.91 232.54L164.34 229.06L156.29 237.07L158.82 248.56L169.38 252.04ZM158.82 248.56L156.29 237.07L145.73 233.59L137.69 241.60L140.21 253.09L150.78 256.57ZM182.96 224.53L180.43 213.03L169.86 209.55L161.81 217.57L164.34 229.06L174.91 232.54ZM244.41 191.43L241.89 179.93L231.31 176.44L223.24 184.45L225.76 195.96L236.34 199.45ZM225.76 195.96L223.24 184.45L212.66 180.97L204.60 188.98L207.12 200.49L217.70 203.97ZM249.96 171.91L247.45 160.40L236.86 156.91L228.79 164.93L231.31 176.44L241.89 179.93ZM231.31 176.44L228.79 164.93L218.20 161.44L210.14 169.46L212.66 180.97L223.24 184.45ZM257.50 206.43L254.99 194.93L244.41 191.43L236.34 199.45L238.86 210.95L249.44 214.44ZM238.86 210.95L236.34 199.45L225.76 195.96L217.70 203.97L220.22 215.47L230.79 218.96ZM263.06 186.91L260.55 175.40L249.96 171.91L241.89 179.93L244.41 191.43L254.99 194.93ZM63.75 217.33L61.21 205.85L50.64 202.39L42.62 210.41L45.16 221.89L55.72 225.35ZM45.16 221.89L42.62 210.41L32.06 206.96L24.05 214.98L26.59 226.46L37.15 229.91ZM69.23 197.83L66.69 186.34L56.13 182.88L48.10 190.91L50.64 202.39L61.21 205.85ZM50.64 202.39L48.10 190.91L37.54 187.45L29.52 195.48L32.06 206.96L42.62 210.41ZM76.84 232.27L74.31 220.79L63.75 217.33L55.72 225.35L58.26 236.83L68.82 240.29ZM58.26 236.83L55.72 225.35L45.16 221.89L37.15 229.91L39.69 241.39L50.24 244.84ZM82.33 212.77L79.80 201.29L69.23 197.83L61.21 205.85L63.75 217.33L74.31 220.79ZM26.59 226.46L24.05 214.98L13.49 211.53L5.48 219.55L8.03 231.02L18.58 234.48ZM32.06 206.96L29.52 195.48L18.96 192.02L10.95 200.05L13.49 211.53L24.05 214.98ZM93.32 173.75L90.79 162.26L80.22 158.80L72.18 166.83L74.72 178.32L85.29 181.78ZM74.72 178.32L72.18 166.83L61.61 163.37L53.59 171.40L56.13 182.88L66.69 186.34ZM98.83 154.23L96.29 142.74L85.71 139.27L77.68 147.31L80.22 158.80L90.79 162.26ZM80.22 158.80L77.68 147.31L67.10 143.85L59.07 151.88L61.61 163.37L72.18 166.83ZM106.43 188.71L103.90 177.22L93.32 173.75L85.29 181.78L87.83 193.27L98.39 196.73ZM87.83 193.27L85.29 181.78L74.72 178.32L66.69 186.34L69.23 197.83L79.80 201.29ZM111.93 169.19L109.40 157.70L98.83 154.23L90.79 162.26L93.32 173.75L103.90 177.22ZM43.02 167.94L40.48 156.45L29.91 153.00L21.89 161.03L24.43 172.52L35.00 175.97ZM24.43 172.52L21.89 161.03L11.32 157.58L3.31 165.61L5.85 177.09L16.42 180.54ZM48.50 148.42L45.96 136.93L35.39 133.48L27.36 141.51L29.91 153.00L40.48 156.45ZM56.13 182.88L53.59 171.40L43.02 167.94L35.00 175.97L37.54 187.45L48.10 190.91ZM37.54 187.45L35.00 175.97L24.43 172.52L16.42 180.54L18.96 192.02L29.52 195.48ZM61.61 163.37L59.07 151.88L48.50 148.42L40.48 156.45L43.02 167.94L53.59 171.40ZM84.45 266.71L81.91 255.23L71.36 251.77L63.34 259.78L65.87 271.25L76.43 274.72ZM89.94 247.22L87.40 235.74L76.84 232.27L68.82 240.29L71.36 251.77L81.91 255.23ZM71.36 251.77L68.82 240.29L58.26 236.83L50.24 244.84L52.78 256.32L63.34 259.78ZM103.03 262.16L100.50 250.69L89.94 247.22L81.91 255.23L84.45 266.71L95.00 270.17ZM34.22 260.87L31.68 249.40L21.12 245.95L13.11 253.96L15.66 265.43L26.21 268.89ZM15.66 265.43L13.11 253.96L2.56 250.51L-5.44 258.53L-2.89 269.99L7.65 273.45ZM39.69 241.39L37.15 229.91L26.59 226.46L18.58 234.48L21.12 245.95L31.68 249.40ZM21.12 245.95L18.58 234.48L8.03 231.02L0.02 239.04L2.56 250.51L13.11 253.96ZM52.78 256.32L50.24 244.84L39.69 241.39L31.68 249.40L34.22 260.87L44.77 264.33ZM114.03 223.17L111.50 211.69L100.93 208.22L92.90 216.24L95.43 227.72L105.99 231.19ZM95.43 227.72L92.90 216.24L82.33 212.77L74.31 220.79L76.84 232.27L87.40 235.74ZM119.53 203.67L117.00 192.18L106.43 188.71L98.39 196.73L100.93 208.22L111.50 211.69ZM100.93 208.22L98.39 196.73L87.83 193.27L79.80 201.29L82.33 212.77L92.90 216.24ZM127.12 238.13L124.59 226.65L114.03 223.17L105.99 231.19L108.53 242.67L119.09 246.14ZM108.53 242.67L105.99 231.19L95.43 227.72L87.40 235.74L89.94 247.22L100.50 250.69ZM132.63 218.63L130.10 207.14L119.53 203.67L111.50 211.69L114.03 223.17L124.59 226.65ZM240.85 264.95L238.34 253.46L227.77 249.96L219.71 257.97L222.23 269.46L232.79 272.95ZM222.23 269.46L219.71 257.97L209.14 254.48L201.09 262.49L203.61 273.97L214.17 277.46ZM246.40 245.45L243.89 233.95L233.31 230.46L225.25 238.47L227.77 249.96L238.34 253.46ZM251.95 225.95L249.44 214.44L238.86 210.95L230.79 218.96L233.31 230.46L243.89 233.95ZM259.49 260.44L256.98 248.95L246.40 245.45L238.34 253.46L240.85 264.95L251.42 268.45ZM2.56 250.51L0.02 239.04L-10.53 235.59L-18.53 243.61L-15.99 255.08L-5.44 258.53ZM232.85 48.70L230.33 37.17L219.72 33.69L211.64 41.73L214.17 53.25L224.77 56.74ZM214.17 53.25L211.64 41.73L201.04 38.25L192.97 46.29L195.49 57.81L206.09 61.29ZM238.41 29.13L235.89 17.60L225.28 14.11L217.20 22.16L219.72 33.69L230.33 37.17ZM219.72 33.69L217.20 22.16L206.59 18.68L198.51 26.72L201.04 38.25L211.64 41.73ZM245.98 63.71L243.46 52.19L232.85 48.70L224.77 56.74L227.29 68.26L237.89 71.75ZM227.29 68.26L224.77 56.74L214.17 53.25L206.09 61.29L208.62 72.82L219.22 76.30ZM251.54 44.15L249.02 32.62L238.41 29.13L230.33 37.17L232.85 48.70L243.46 52.19ZM182.36 42.81L179.84 31.29L169.23 27.82L161.17 35.86L163.70 47.38L174.29 50.86ZM163.70 47.38L161.17 35.86L150.57 32.39L142.50 40.44L145.04 51.95L155.63 55.43ZM187.91 23.24L185.38 11.72L174.77 8.24L166.70 16.29L169.23 27.82L179.84 31.29ZM169.23 27.82L166.70 16.29L156.10 12.82L148.03 20.87L150.57 32.39L161.17 35.86ZM195.49 57.81L192.97 46.29L182.36 42.81L174.29 50.86L176.82 62.38L187.42 65.85ZM176.82 62.38L174.29 50.86L163.70 47.38L155.63 55.43L158.16 66.94L168.76 70.42ZM201.04 38.25L198.51 26.72L187.91 23.24L179.84 31.29L182.36 42.81L192.97 46.29ZM262.68 4.99L260.16 -6.54L249.55 -10.03L241.46 -1.98L243.98 9.55L254.59 13.04ZM243.98 9.55L241.46 -1.98L230.84 -5.47L222.76 2.58L225.28 14.11L235.89 17.60ZM275.82 20.02L273.30 8.49L262.68 4.99L254.59 13.04L257.11 24.57L267.72 28.06ZM257.11 24.57L254.59 13.04L243.98 9.55L235.89 17.60L238.41 29.13L249.02 32.62ZM212.15 -0.90L209.62 -12.43L199.01 -15.91L190.93 -7.86L193.46 3.67L204.06 7.15ZM193.46 3.67L190.93 -7.86L180.32 -11.34L172.24 -3.28L174.77 8.24L185.38 11.72ZM225.28 14.11L222.76 2.58L212.15 -0.90L204.06 7.15L206.59 18.68L217.20 22.16ZM206.59 18.68L204.06 7.15L193.46 3.67L185.38 11.72L187.91 23.24L198.51 26.72ZM230.84 -5.47L228.32 -17.00L217.70 -20.49L209.62 -12.43L212.15 -0.90L222.76 2.58ZM253.53 98.28L251.01 86.76L240.41 83.27L232.34 91.31L234.86 102.82L245.45 106.31ZM234.86 102.82L232.34 91.31L221.74 87.82L213.66 95.85L216.19 107.37L226.78 110.85ZM259.10 78.73L256.58 67.20L245.98 63.71L237.89 71.75L240.41 83.27L251.01 86.76ZM240.41 83.27L237.89 71.75L227.29 68.26L219.22 76.30L221.74 87.82L232.34 91.31ZM266.65 113.30L264.13 101.78L253.53 98.28L245.45 106.31L247.97 117.83L258.57 121.32ZM247.97 117.83L245.45 106.31L234.86 102.82L226.78 110.85L229.30 122.37L239.89 125.86ZM272.22 93.75L269.70 82.22L259.10 78.73L251.01 86.76L253.53 98.28L264.13 101.78ZM203.07 92.37L200.54 80.85L189.95 77.37L181.88 85.41L184.41 96.92L195.00 100.40ZM184.41 96.92L181.88 85.41L171.29 81.93L163.22 89.97L165.75 101.48L176.34 104.96ZM208.62 72.82L206.09 61.29L195.49 57.81L187.42 65.85L189.95 77.37L200.54 80.85ZM189.95 77.37L187.42 65.85L176.82 62.38L168.76 70.42L171.29 81.93L181.88 85.41ZM216.19 107.37L213.66 95.85L203.07 92.37L195.00 100.40L197.53 111.92L208.12 115.40ZM197.53 111.92L195.00 100.40L184.41 96.92L176.34 104.96L178.87 116.47L189.46 119.95ZM221.74 87.82L219.22 76.30L208.62 72.82L200.54 80.85L203.07 92.37L213.66 95.85ZM264.67 59.17L262.15 47.64L251.54 44.15L243.46 52.19L245.98 63.71L256.58 67.20ZM270.24 39.60L267.72 28.06L257.11 24.57L249.02 32.62L251.54 44.15L262.15 47.64ZM274.19 147.85L271.68 136.34L261.08 132.84L253.00 140.87L255.52 152.38L266.11 155.87ZM255.52 152.38L253.00 140.87L242.41 137.37L234.34 145.40L236.86 156.91L247.45 160.40ZM261.08 132.84L258.57 121.32L247.97 117.83L239.89 125.86L242.41 137.37L253.00 140.87ZM268.62 167.39L266.11 155.87L255.52 152.38L247.45 160.40L249.96 171.91L260.55 175.40ZM276.16 201.92L273.65 190.41L263.06 186.91L254.99 194.93L257.50 206.43L268.09 209.93Z"/><path data-band="2" fill="#f97316" fill-opacity="0.35" d="M4.79 -4.51L2.24 -16.02L-8.35 -19.46L-16.38 -11.40L-13.83 0.11L-3.24 3.55ZM31.07 25.40L28.52 13.89L17.94 10.44L9.90 18.50L12.45 30.01L23.04 33.45ZM12.45 30.01L9.90 18.50L-0.69 15.06L-8.72 23.12L-6.16 34.62L4.42 38.06ZM36.56 5.83L34.01 -5.68L23.42 -9.13L15.38 -1.06L17.94 10.44L28.52 13.89ZM17.94 10.44L15.38 -1.06L4.79 -4.51L-3.24 3.55L-0.69 15.06L9.90 18.50ZM44.21 40.36L41.66 28.85L31.07 25.40L23.04 33.45L25.59 44.96L36.17 48.41ZM25.59 44.96L23.04 33.45L12.45 30.01L4.42 38.06L6.97 49.56L17.56 53.01ZM49.70 20.79L47.16 9.28L36.56 5.83L28.52 13.89L31.07 25.40L41.66 28.85ZM55.20 1.23L52.65 -10.29L42.06 -13.74L34.01 -5.68L36.56 5.83L47.16 9.28ZM33.23 79.46L30.69 67.96L20.10 64.51L12.08 72.56L14.63 84.05L25.20 87.50ZM57.34 55.31L54.80 43.81L44.21 40.36L36.17 48.41L38.72 59.91L49.30 63.36ZM38.72 59.91L36.17 48.41L25.59 44.96L17.56 53.01L20.10 64.51L30.69 67.96ZM62.84 35.76L60.29 24.25L49.70 20.79L41.66 28.85L44.21 40.36L54.80 43.81ZM1.50 69.11L-1.05 57.61L-11.63 54.17L-19.66 62.22L-17.10 73.72L-6.53 77.16ZM6.97 49.56L4.42 38.06L-6.16 34.62L-14.19 42.67L-11.63 54.17L-1.05 57.61ZM14.63 84.05L12.08 72.56L1.50 69.11L-6.53 77.16L-3.97 88.65L6.60 92.10ZM20.10 64.51L17.56 53.01L6.97 49.56L-1.05 57.61L1.50 69.11L12.08 72.56ZM5.85 177.09L3.31 165.61L-7.26 162.17L-15.27 170.20L-12.72 181.68L-2.16 185.12ZM11.32 157.58L8.77 146.10L-1.79 142.65L-9.81 150.68L-7.26 162.17L3.31 165.61ZM22.27 118.53L19.72 107.04L9.15 103.59L1.13 111.63L3.68 123.12L14.25 126.57ZM3.68 123.12L1.13 111.63L-9.44 108.19L-17.46 116.23L-14.91 127.72L-4.34 131.16ZM27.75 99.00L25.20 87.50L14.63 84.05L6.60 92.10L9.15 103.59L19.72 107.04ZM9.15 103.59L6.60 92.10L-3.97 88.65L-12.00 96.70L-9.44 108.19L1.13 111.63ZM35.39 133.48L32.84 121.98L22.27 118.53L14.25 126.57L16.79 138.06L27.36 141.51ZM16.79 138.06L14.25 126.57L3.68 123.12L-4.34 131.16L-1.79 142.65L8.77 146.10ZM40.87 113.95L38.33 102.45L27.75 99.00L19.72 107.04L22.27 118.53L32.84 121.98ZM13.49 211.53L10.95 200.05L0.39 196.60L-7.62 204.63L-5.07 216.10L5.48 219.55ZM18.96 192.02L16.42 180.54L5.85 177.09L-2.16 185.12L0.39 196.60L10.95 200.05ZM0.39 196.60L-2.16 185.12L-12.72 181.68L-20.73 189.71L-18.18 201.18L-7.62 204.63ZM8.03 231.02L5.48 219.55L-5.07 216.10L-13.08 224.12L-10.53 235.59L0.02 239.04ZM29.91 153.00L27.36 141.51L16.79 138.06L8.77 146.10L11.32 157.58L21.89 161.03Z"/></svg>
