<svg xmlns="http://www.w3.org/2000/svg" width="256" height="256" viewBox="0 0 256 256"><path data-band="1" fill="#fde68a" fill-opacity="0.35" d="M60.99 10.43L58.48 -0.96L48.00 -4.44L40.05 3.49L42.57 14.88L53.04 18.35ZM42.57 14.88L40.05 3.49L29.57 0.02L21.62 7.94L24.15 19.33L34.62 22.80ZM48.00 -4.44L45.48 -15.83L35.00 -19.30L27.05 -11.37L29.57 0.02L40.05 3.49ZM73.99 25.30L71.47 13.91L60.99 10.43L53.04 18.35L55.56 29.74L66.03 33.22ZM55.56 29.74L53.04 18.35L42.57 14.88L34.62 22.80L37.14 34.19L47.60 37.66ZM79.43 5.99L76.91 -5.41L66.44 -8.89L58.48 -0.96L60.99 10.43L71.47 13.91ZM11.15 4.47L8.63 -6.92L-1.84 -10.38L-9.79 -2.45L-7.26 8.93L3.21 12.40ZM24.15 19.33L21.62 7.94L11.15 4.47L3.21 12.40L5.73 23.78L16.20 27.25ZM5.73 23.78L3.21 12.40L-7.26 8.93L-15.20 16.86L-12.67 28.24L-2.21 31.70ZM29.57 0.02L27.05 -11.37L16.58 -14.84L8.63 -6.92L11.15 4.47L21.62 7.94ZM43.52 194.40L41.00 183.04L30.56 179.56L22.63 187.45L25.14 198.81L35.59 202.29ZM25.14 198.81L22.63 187.45L12.18 183.98L4.26 191.87L6.78 203.23L17.22 206.70ZM30.56 179.56L28.04 168.20L17.59 164.73L9.66 172.62L12.18 183.98L22.63 187.45ZM59.79 136.61L57.27 125.24L46.82 121.76L38.88 129.66L41.39 141.04L51.85 144.51ZM6.78 203.23L4.26 191.87L-6.18 188.40L-14.10 196.30L-11.58 207.65L-1.14 211.12ZM12.18 183.98L9.66 172.62L-0.78 169.15L-8.70 177.05L-6.18 188.40L4.26 191.87ZM19.73 218.06L17.22 206.70L6.78 203.23L-1.14 211.12L1.37 222.47L11.81 225.94ZM1.37 222.47L-1.14 211.12L-11.58 207.65L-19.50 215.54L-16.98 226.89L-6.54 230.36ZM81.53 59.47L79.02 48.08L68.54 44.61L60.59 52.52L63.11 63.91L73.57 67.38ZM63.11 63.91L60.59 52.52L50.12 49.05L42.17 56.96L44.69 68.34L55.16 71.82ZM86.97 40.17L84.46 28.78L73.99 25.30L66.03 33.22L68.54 44.61L79.02 48.08ZM68.54 44.61L66.03 33.22L55.56 29.74L47.60 37.66L50.12 49.05L60.59 52.52ZM76.09 78.77L73.57 67.38L63.11 63.91L55.16 71.82L57.67 83.20L68.14 86.68ZM110.86 16.43L108.35 5.03L97.87 1.55L89.91 9.47L92.42 20.86L102.90 24.34ZM92.42 20.86L89.91 9.47L79.43 5.99L71.47 13.91L73.99 25.30L84.46 28.78ZM116.32 -2.89L113.81 -14.29L103.33 -17.78L95.36 -9.85L97.87 1.55L108.35 5.03ZM97.87 1.55L95.36 -9.85L84.88 -13.33L76.91 -5.41L79.43 5.99L89.91 9.47ZM105.41 35.74L102.90 24.34L92.42 20.86L84.46 28.78L86.97 40.17L97.45 43.65ZM89.07 93.63L86.55 82.25L76.09 78.77L68.14 86.68L70.65 98.06L81.11 101.54ZM2.47 96.51L-0.05 85.14L-10.51 81.67L-18.44 89.58L-15.91 100.95L-5.46 104.42ZM7.89 77.22L5.36 65.85L-5.10 62.38L-13.03 70.30L-10.51 81.67L-0.05 85.14ZM15.45 111.35L12.93 99.98L2.47 96.51L-5.46 104.42L-2.94 115.79L7.52 119.25ZM20.87 92.07L18.35 80.69L7.89 77.22L-0.05 85.14L2.47 96.51L12.93 99.98ZM31.71 53.49L29.19 42.10L18.72 38.63L10.78 46.55L13.30 57.93L23.77 61.40ZM13.30 57.93L10.78 46.55L0.32 43.09L-7.62 51.00L-5.10 62.38L5.36 65.85ZM37.14 34.19L34.62 22.80L24.15 19.33L16.20 27.25L18.72 38.63L29.19 42.10ZM18.72 38.63L16.20 27.25L5.73 23.78L-2.21 31.70L0.32 43.09L10.78 46.55ZM44.69 68.34L42.17 56.96L31.71 53.49L23.77 61.40L26.29 72.78L36.75 76.25ZM26.29 72.78L23.77 61.40L13.30 57.93L5.36 65.85L7.89 77.22L18.35 80.69ZM50.12 49.05L47.60 37.66L37.14 34.19L29.19 42.10L31.71 53.49L42.17 56.96ZM0.32 43.09L-2.21 31.70L-12.67 28.24L-20.61 36.16L-18.08 47.54L-7.62 51.00ZM23.01 145.46L20.49 134.09L10.04 130.62L2.11 138.52L4.63 149.89L15.07 153.36ZM4.63 149.89L2.11 138.52L-8.34 135.06L-16.27 142.96L-13.75 154.32L-3.30 157.79ZM28.42 126.19L25.90 114.82L15.45 111.35L7.52 119.25L10.04 130.62L20.49 134.09ZM10.04 130.62L7.52 119.25L-2.94 115.79L-10.87 123.69L-8.34 135.06L2.11 138.52ZM35.97 160.30L33.46 148.93L23.01 145.46L15.07 153.36L17.59 164.73L28.04 168.20ZM17.59 164.73L15.07 153.36L4.63 149.89L-3.30 157.79L-0.78 169.15L9.66 172.62ZM41.39 141.04L38.88 129.66L28.42 126.19L20.49 134.09L23.01 145.46L33.46 148.93ZM52.24 102.49L49.73 91.11L39.27 87.63L31.32 95.54L33.84 106.92L44.30 110.39ZM33.84 106.92L31.32 95.54L20.87 92.07L12.93 99.98L15.45 111.35L25.90 114.82ZM57.67 83.20L55.16 71.82L44.69 68.34L36.75 76.25L39.27 87.63L49.73 91.11ZM39.27 87.63L36.75 76.25L26.29 72.78L18.35 80.69L20.87 92.07L31.32 95.54ZM65.22 117.34L62.70 105.96L52.24 102.49L44.30 110.39L46.82 121.76L57.27 125.24ZM46.82 121.76L44.30 110.39L33.84 106.92L25.90 114.82L28.42 126.19L38.88 129.66ZM70.65 98.06L68.14 86.68L57.67 83.20L49.73 91.11L52.24 102.49L62.70 105.96Z"/></svg>
