<svg xmlns="http://www.w3.org/2000/svg" width="256" height="256" viewBox="0 0 256 256"><path data-band="1" fill="#fde68a" fill-opacity="0.35" d="M15.52 1.58L12.70 -10.29L1.69 -13.44L-6.49 -4.72L-3.67 7.15L7.33 10.30ZM4.79 42.76L1.97 30.89L-9.02 27.74L-17.20 36.46L-14.38 48.32L-3.39 51.48ZM10.15 22.18L7.33 10.30L-3.67 7.15L-11.85 15.87L-9.02 27.74L1.97 30.89ZM34.71 -3.98L31.89 -15.86L20.89 -19.02L12.70 -10.29L15.52 1.58L26.52 4.74ZM67.74 5.50L64.92 -6.38L53.91 -9.54L45.72 -0.82L48.53 11.06L59.54 14.22ZM48.53 11.06L45.72 -0.82L34.71 -3.98L26.52 4.74L29.34 16.61L40.34 19.77Z"/><path data-band="2" fill="#f97316" fill-opacity="0.35" d="M210.78 2.43L207.98 -9.47L196.96 -12.66L188.73 -3.95L191.52 7.95L202.54 11.14ZM191.52 7.95L188.73 -3.95L177.70 -7.14L169.48 1.58L172.27 13.47L183.29 16.66ZM224.59 17.52L221.80 5.62L210.78 2.43L202.54 11.14L205.34 23.04L216.36 26.23ZM205.34 23.04L202.54 11.14L191.52 7.95L183.29 16.66L186.09 28.55L197.11 31.74ZM230.04 -3.09L227.25 -14.99L216.22 -18.18L207.98 -9.47L210.78 2.43L221.80 5.62ZM158.46 -1.61L155.66 -13.50L144.63 -16.68L136.42 -7.96L139.22 3.93L150.24 7.11ZM139.22 3.93L136.42 -7.96L125.40 -11.14L117.18 -2.42L119.99 9.46L131.00 12.64ZM172.27 13.47L169.48 1.58L158.46 -1.61L150.24 7.11L153.04 19.00L164.05 22.18ZM153.04 19.00L150.24 7.11L139.22 3.93L131.00 12.64L133.81 24.53L144.82 27.71ZM177.70 -7.14L174.90 -19.03L163.88 -22.22L155.66 -13.50L158.46 -1.61L169.48 1.58ZM232.96 53.22L230.17 41.32L219.15 38.13L210.92 46.83L213.71 58.72L224.73 61.92ZM213.71 58.72L210.92 46.83L199.90 43.63L191.68 52.34L194.47 64.23L205.48 67.42ZM238.41 32.62L235.62 20.72L224.59 17.52L216.36 26.23L219.15 38.13L230.17 41.32ZM219.15 38.13L216.36 26.23L205.34 23.04L197.11 31.74L199.90 43.63L210.92 46.83ZM246.77 68.31L243.98 56.42L232.96 53.22L224.73 61.92L227.52 73.81L238.53 77.01ZM227.52 73.81L224.73 61.92L213.71 58.72L205.48 67.42L208.27 79.31L219.29 82.50ZM252.22 47.72L249.43 35.82L238.41 32.62L230.17 41.32L232.96 53.22L243.98 56.42ZM180.66 49.15L177.87 37.26L166.85 34.07L158.63 42.78L161.43 54.66L172.44 57.85ZM161.43 54.66L158.63 42.78L147.62 39.59L139.41 48.30L142.21 60.18L153.22 63.36ZM186.09 28.55L183.29 16.66L172.27 13.47L164.05 22.18L166.85 34.07L177.87 37.26ZM166.85 34.07L164.05 22.18L153.04 19.00L144.82 27.71L147.62 39.59L158.63 42.78ZM194.47 64.23L191.68 52.34L180.66 49.15L172.44 57.85L175.24 69.73L186.25 72.92ZM175.24 69.73L172.44 57.85L161.43 54.66L153.22 63.36L156.01 75.25L167.02 78.43ZM199.90 43.63L197.11 31.74L186.09 28.55L177.87 37.26L180.66 49.15L191.68 52.34ZM263.13 6.51L260.35 -5.40L249.31 -8.60L241.07 0.11L243.86 12.02L254.89 15.22ZM243.86 12.02L241.07 0.11L230.04 -3.09L221.80 5.62L224.59 17.52L235.62 20.72ZM249.31 -8.60L246.53 -20.50L235.49 -23.70L227.25 -14.99L230.04 -3.09L241.07 0.11ZM276.95 21.62L274.16 9.71L263.13 6.51L254.89 15.22L257.67 27.12L268.70 30.32ZM257.67 27.12L254.89 15.22L243.86 12.02L235.62 20.72L238.41 32.62L249.43 35.82ZM269.23 252.04L266.45 240.16L255.46 236.96L247.25 245.62L250.02 257.49L261.01 260.70ZM250.02 257.49L247.25 245.62L236.25 242.41L228.05 251.07L230.82 262.94L241.81 266.15ZM274.67 231.50L271.90 219.63L260.90 216.42L252.68 225.08L255.46 236.96L266.45 240.16ZM255.46 236.96L252.68 225.08L241.69 221.88L233.48 230.54L236.25 242.41L247.25 245.62ZM217.06 247.87L214.28 236.01L203.29 232.81L195.08 241.47L197.87 253.34L208.85 256.54ZM197.87 253.34L195.08 241.47L184.10 238.28L175.90 246.94L178.69 258.80L189.67 262.00ZM222.48 227.34L219.70 215.47L208.71 212.27L200.50 220.94L203.29 232.81L214.28 236.01ZM203.29 232.81L200.50 220.94L189.51 217.74L181.31 226.41L184.10 238.28L195.08 241.47ZM230.82 262.94L228.05 251.07L217.06 247.87L208.85 256.54L211.64 268.40L222.62 271.60ZM211.64 268.40L208.85 256.54L197.87 253.34L189.67 262.00L192.45 273.86L203.44 277.06ZM236.25 242.41L233.48 230.54L222.48 227.34L214.28 236.01L217.06 247.87L228.05 251.07ZM247.13 201.33L244.35 189.46L233.35 186.25L225.13 194.93L227.91 206.80L238.91 210.00ZM227.91 206.80L225.13 194.93L214.13 191.73L205.92 200.40L208.71 212.27L219.70 215.47ZM252.57 180.78L249.79 168.90L238.78 165.70L230.56 174.37L233.35 186.25L244.35 189.46ZM233.35 186.25L230.56 174.37L219.56 171.17L211.35 179.85L214.13 191.73L225.13 194.93ZM260.90 216.42L258.12 204.54L247.13 201.33L238.91 210.00L241.69 221.88L252.68 225.08ZM241.69 221.88L238.91 210.00L227.91 206.80L219.70 215.47L222.48 227.34L233.48 230.54ZM266.35 195.87L263.57 183.99L252.57 180.78L244.35 189.46L247.13 201.33L258.12 204.54ZM255.12 103.99L252.33 92.10L241.32 88.90L233.09 97.59L235.87 109.48L246.89 112.68ZM235.87 109.48L233.09 97.59L222.08 94.39L213.85 103.08L216.64 114.97L227.65 118.17ZM260.57 83.41L257.79 71.52L246.77 68.31L238.53 77.01L241.32 88.90L252.33 92.10ZM241.32 88.90L238.53 77.01L227.52 73.81L219.29 82.50L222.08 94.39L233.09 97.59ZM268.91 119.09L266.13 107.20L255.12 103.99L246.89 112.68L249.67 124.57L260.68 127.77ZM249.67 124.57L246.89 112.68L235.87 109.48L227.65 118.17L230.43 130.05L241.44 133.25ZM274.37 98.51L271.59 86.62L260.57 83.41L252.33 92.10L255.12 103.99L266.13 107.20ZM266.02 62.82L263.24 50.92L252.22 47.72L243.98 56.42L246.77 68.31L257.79 71.52ZM271.48 42.22L268.70 30.32L257.67 27.12L249.43 35.82L252.22 47.72L263.24 50.92ZM277.25 154.76L274.47 142.87L263.46 139.66L255.23 148.34L258.01 160.23L269.02 163.43ZM258.01 160.23L255.23 148.34L244.22 145.14L236.00 153.82L238.78 165.70L249.79 168.90ZM263.46 139.66L260.68 127.77L249.67 124.57L241.44 133.25L244.22 145.14L255.23 148.34ZM271.80 175.32L269.02 163.43L258.01 160.23L249.79 168.90L252.57 180.78L263.57 183.99ZM38.55 185.08L35.74 173.23L24.76 170.06L16.60 178.75L19.41 190.60L30.38 193.76ZM19.41 190.60L16.60 178.75L5.62 175.59L-2.54 184.28L0.27 196.13L11.25 199.29ZM43.91 164.54L41.10 152.68L30.12 149.52L21.95 158.21L24.76 170.06L35.74 173.23ZM24.76 170.06L21.95 158.21L10.97 155.05L2.81 163.74L5.62 175.59L16.60 178.75ZM52.33 200.10L49.53 188.24L38.55 185.08L30.38 193.76L33.19 205.61L44.16 208.78ZM33.19 205.61L30.38 193.76L19.41 190.60L11.25 199.29L14.06 211.13L25.03 214.30ZM57.70 179.56L54.89 167.70L43.91 164.54L35.74 173.23L38.55 185.08L49.53 188.24ZM0.27 196.13L-2.54 184.28L-13.51 181.13L-21.67 189.82L-18.85 201.66L-7.88 204.81ZM5.62 175.59L2.81 163.74L-8.17 160.59L-16.33 169.28L-13.51 181.13L-2.54 184.28ZM68.44 138.46L65.64 126.60L54.65 123.43L46.47 132.13L49.28 143.99L60.26 147.16ZM49.28 143.99L46.47 132.13L35.48 128.97L27.31 137.66L30.12 149.52L41.10 152.68ZM73.82 117.90L71.02 106.04L60.02 102.87L51.84 111.57L54.65 123.43L65.64 126.60ZM54.65 123.43L51.84 111.57L40.85 108.41L32.67 117.11L35.48 128.97L46.47 132.13ZM82.24 153.50L79.43 141.63L68.44 138.46L60.26 147.16L63.07 159.01L74.05 162.18ZM63.07 159.01L60.26 147.16L49.28 143.99L41.10 152.68L43.91 164.54L54.89 167.70ZM87.62 132.94L84.81 121.07L73.82 117.90L65.64 126.60L68.44 138.46L79.43 141.63ZM16.33 134.50L13.51 122.64L2.53 119.49L-5.64 128.19L-2.82 140.04L8.16 143.20ZM21.69 113.94L18.87 102.08L7.88 98.93L-0.29 107.63L2.53 119.49L13.51 122.64ZM2.53 119.49L-0.29 107.63L-11.27 104.48L-19.44 113.18L-16.62 125.03L-5.64 128.19ZM30.12 149.52L27.31 137.66L16.33 134.50L8.16 143.20L10.97 155.05L21.95 158.21ZM10.97 155.05L8.16 143.20L-2.82 140.04L-10.98 148.74L-8.17 160.59L2.81 163.74ZM35.48 128.97L32.67 117.11L21.69 113.94L13.51 122.64L16.33 134.50L27.31 137.66ZM60.75 235.64L57.94 223.80L46.97 220.63L38.80 229.31L41.61 241.15L52.58 244.32ZM41.61 241.15L38.80 229.31L27.83 226.14L19.67 234.82L22.48 246.66L33.45 249.83ZM66.11 215.12L63.31 203.27L52.33 200.10L44.16 208.78L46.97 220.63L57.94 223.80ZM46.97 220.63L44.16 208.78L33.19 205.61L25.03 214.30L27.83 226.14L38.80 229.31ZM74.52 250.66L71.72 238.82L60.75 235.64L52.58 244.32L55.38 256.16L66.35 259.34ZM55.38 256.16L52.58 244.32L41.61 241.15L33.45 249.83L36.25 261.67L47.22 264.84ZM79.89 230.14L77.09 218.29L66.11 215.12L57.94 223.80L60.75 235.64L71.72 238.82ZM8.71 231.66L5.90 219.82L-5.07 216.66L-13.22 225.34L-10.41 237.18L0.55 240.34ZM14.06 211.13L11.25 199.29L0.27 196.13L-7.88 204.81L-5.07 216.66L5.90 219.82ZM22.48 246.66L19.67 234.82L8.71 231.66L0.55 240.34L3.36 252.17L14.33 255.34ZM3.36 252.17L0.55 240.34L-10.41 237.18L-18.56 245.86L-15.75 257.69L-4.79 260.85ZM27.83 226.14L25.03 214.30L14.06 211.13L5.90 219.82L8.71 231.66L19.67 234.82ZM90.64 189.07L87.84 177.22L76.86 174.04L68.68 182.73L71.48 194.58L82.46 197.76ZM71.48 194.58L68.68 182.73L57.70 179.56L49.53 188.24L52.33 200.10L63.31 203.27ZM96.03 168.53L93.22 156.67L82.24 153.50L74.05 162.18L76.86 174.04L87.84 177.22ZM76.86 174.04L74.05 162.18L63.07 159.01L54.89 167.70L57.70 179.56L68.68 182.73ZM104.42 204.11L101.63 192.25L90.64 189.07L82.46 197.76L85.26 209.61L96.24 212.79ZM85.26 209.61L82.46 197.76L71.48 194.58L63.31 203.27L66.11 215.12L77.09 218.29ZM109.81 183.57L107.01 171.71L96.03 168.53L87.84 177.22L90.64 189.07L101.63 192.25ZM76.17 41.14L73.36 29.26L62.35 26.10L54.16 34.81L56.97 46.68L67.97 49.85ZM56.97 46.68L54.16 34.81L43.16 31.65L34.97 40.36L37.78 52.23L48.78 55.39ZM81.56 20.55L78.75 8.67L67.74 5.50L59.54 14.22L62.35 26.10L73.36 29.26ZM62.35 26.10L59.54 14.22L48.53 11.06L40.34 19.77L43.16 31.65L54.16 34.81ZM89.98 56.19L87.17 44.31L76.17 41.14L67.97 49.85L70.78 61.72L81.78 64.89ZM70.78 61.72L67.97 49.85L56.97 46.68L48.78 55.39L51.59 67.27L62.59 70.43ZM95.37 35.60L92.56 23.72L81.56 20.55L73.36 29.26L76.17 41.14L87.17 44.31ZM23.97 37.20L21.15 25.33L10.15 22.18L1.97 30.89L4.79 42.76L15.79 45.92ZM29.34 16.61L26.52 4.74L15.52 1.58L7.33 10.30L10.15 22.18L21.15 25.33ZM37.78 52.23L34.97 40.36L23.97 37.20L15.79 45.92L18.60 57.78L29.60 60.94ZM18.60 57.78L15.79 45.92L4.79 42.76L-3.39 51.48L-0.57 63.34L10.43 66.50ZM43.16 31.65L40.34 19.77L29.34 16.61L21.15 25.33L23.97 37.20L34.97 40.36ZM106.17 -5.60L103.36 -17.49L92.34 -20.66L84.14 -11.94L86.95 -0.05L97.96 3.12ZM86.95 -0.05L84.14 -11.94L73.12 -15.10L64.92 -6.38L67.74 5.50L78.75 8.67ZM119.99 9.46L117.18 -2.42L106.17 -5.60L97.96 3.12L100.77 15.00L111.78 18.18ZM100.77 15.00L97.96 3.12L86.95 -0.05L78.75 8.67L81.56 20.55L92.56 23.72ZM98.39 91.81L95.59 79.94L84.59 76.77L76.40 85.47L79.20 97.34L90.20 100.51ZM79.20 97.34L76.40 85.47L65.40 82.30L57.21 91.00L60.02 102.87L71.02 106.04ZM103.79 71.23L100.98 59.36L89.98 56.19L81.78 64.89L84.59 76.77L95.59 79.94ZM84.59 76.77L81.78 64.89L70.78 61.72L62.59 70.43L65.40 82.30L76.40 85.47ZM112.19 106.86L109.39 94.98L98.39 91.81L90.20 100.51L93.00 112.38L104.00 115.55ZM93.00 112.38L90.20 100.51L79.20 97.34L71.02 106.04L73.82 117.90L84.81 121.07ZM117.59 86.29L114.79 74.41L103.79 71.23L95.59 79.94L98.39 91.81L109.39 94.98ZM46.22 87.84L43.41 75.97L32.41 72.81L24.23 81.52L27.05 93.38L38.04 96.54ZM27.05 93.38L24.23 81.52L13.24 78.36L5.07 87.07L7.88 98.93L18.87 102.08ZM51.59 67.27L48.78 55.39L37.78 52.23L29.60 60.94L32.41 72.81L43.41 75.97ZM32.41 72.81L29.60 60.94L18.60 57.78L10.43 66.50L13.24 78.36L24.23 81.52ZM60.02 102.87L57.21 91.00L46.22 87.84L38.04 96.54L40.85 108.41L51.84 111.57ZM40.85 108.41L38.04 96.54L27.05 93.38L18.87 102.08L21.69 113.94L32.67 117.11ZM65.40 82.30L62.59 70.43L51.59 67.27L43.41 75.97L46.22 87.84L57.21 91.00ZM128.40 45.12L125.60 33.24L114.58 30.06L106.38 38.77L109.18 50.65L120.19 53.83ZM109.18 50.65L106.38 38.77L95.37 35.60L87.17 44.31L89.98 56.19L100.98 59.36ZM133.81 24.53L131.00 12.64L119.99 9.46L111.78 18.18L114.58 30.06L125.60 33.24ZM114.58 30.06L111.78 18.18L100.77 15.00L92.56 23.72L95.37 35.60L106.38 38.77ZM142.21 60.18L139.41 48.30L128.40 45.12L120.19 53.83L122.99 65.71L134.00 68.88ZM122.99 65.71L120.19 53.83L109.18 50.65L100.98 59.36L103.79 71.23L114.79 74.41ZM147.62 39.59L144.82 27.71L133.81 24.53L125.60 33.24L128.40 45.12L139.41 48.30ZM7.88 98.93L5.07 87.07L-5.92 83.91L-14.09 92.62L-11.27 104.48L-0.29 107.63ZM13.24 78.36L10.43 66.50L-0.57 63.34L-8.74 72.05L-5.92 83.91L5.07 87.07ZM140.35 269.75L137.56 257.90L126.59 254.71L118.41 263.38L121.20 275.23L132.17 278.41ZM88.29 265.69L85.49 253.84L74.52 250.66L66.35 259.34L69.15 271.18L80.12 274.35ZM164.92 243.75L162.13 231.89L151.15 228.70L142.96 237.37L145.75 249.23L156.73 252.42ZM145.75 249.23L142.96 237.37L131.98 234.19L123.79 242.86L126.59 254.71L137.56 257.90ZM170.33 223.22L167.54 211.36L156.55 208.17L148.36 216.84L151.15 228.70L162.13 231.89ZM151.15 228.70L148.36 216.84L137.37 213.65L129.18 222.33L131.98 234.19L142.96 237.37ZM178.69 258.80L175.90 246.94L164.92 243.75L156.73 252.42L159.52 264.27L170.50 267.47ZM159.52 264.27L156.73 252.42L145.75 249.23L137.56 257.90L140.35 269.75L151.33 272.94ZM184.10 238.28L181.31 226.41L170.33 223.22L162.13 231.89L164.92 243.75L175.90 246.94ZM112.82 239.68L110.02 227.82L99.04 224.64L90.86 233.32L93.66 245.17L104.64 248.35ZM93.66 245.17L90.86 233.32L79.89 230.14L71.72 238.82L74.52 250.66L85.49 253.84ZM118.20 219.15L115.41 207.29L104.42 204.11L96.24 212.79L99.04 224.64L110.02 227.82ZM99.04 224.64L96.24 212.79L85.26 209.61L77.09 218.29L79.89 230.14L90.86 233.32ZM126.59 254.71L123.79 242.86L112.82 239.68L104.64 248.35L107.43 260.20L118.41 263.38ZM107.43 260.20L104.64 248.35L93.66 245.17L85.49 253.84L88.29 265.69L99.26 268.86ZM131.98 234.19L129.18 222.33L118.20 219.15L110.02 227.82L112.82 239.68L123.79 242.86ZM36.25 261.67L33.45 249.83L22.48 246.66L14.33 255.34L17.13 267.17L28.10 270.34ZM17.13 267.17L14.33 255.34L3.36 252.17L-4.79 260.85L-1.98 272.68L8.98 275.85ZM172.78 146.52L169.99 134.64L158.99 131.46L150.78 140.15L153.58 152.02L164.57 155.20ZM153.58 152.02L150.78 140.15L139.79 136.96L131.59 145.65L134.39 157.52L145.38 160.70ZM178.20 125.96L175.40 114.08L164.40 110.89L156.19 119.58L158.99 131.46L169.99 134.64ZM158.99 131.46L156.19 119.58L145.19 116.40L136.99 125.09L139.79 136.96L150.78 140.15ZM186.57 161.59L183.78 149.71L172.78 146.52L164.57 155.20L167.37 167.08L178.36 170.27ZM167.37 167.08L164.57 155.20L153.58 152.02L145.38 160.70L148.17 172.57L159.16 175.76ZM191.99 141.03L189.20 129.15L178.20 125.96L169.99 134.64L172.78 146.52L183.78 149.71ZM120.60 142.47L117.80 130.60L106.80 127.42L98.61 136.11L101.41 147.98L112.40 151.16ZM101.41 147.98L98.61 136.11L87.62 132.94L79.43 141.63L82.24 153.50L93.22 156.67ZM125.99 121.91L123.19 110.04L112.19 106.86L104.00 115.55L106.80 127.42L117.80 130.60ZM106.80 127.42L104.00 115.55L93.00 112.38L84.81 121.07L87.62 132.94L98.61 136.11ZM134.39 157.52L131.59 145.65L120.60 142.47L112.40 151.16L115.20 163.02L126.19 166.20ZM115.20 163.02L112.40 151.16L101.41 147.98L93.22 156.67L96.03 168.53L107.01 171.71ZM139.79 136.96L136.99 125.09L125.99 121.91L117.80 130.60L120.60 142.47L131.59 145.65ZM202.84 99.89L200.05 88.00L189.04 84.81L180.83 93.50L183.62 105.39L194.62 108.58ZM183.62 105.39L180.83 93.50L169.82 90.32L161.61 99.01L164.40 110.89L175.40 114.08ZM208.27 79.31L205.48 67.42L194.47 64.23L186.25 72.92L189.04 84.81L200.05 88.00ZM189.04 84.81L186.25 72.92L175.24 69.73L167.02 78.43L169.82 90.32L180.83 93.50ZM216.64 114.97L213.85 103.08L202.84 99.89L194.62 108.58L197.41 120.46L208.42 123.65ZM197.41 120.46L194.62 108.58L183.62 105.39L175.40 114.08L178.20 125.96L189.20 129.15ZM222.08 94.39L219.29 82.50L208.27 79.31L200.05 88.00L202.84 99.89L213.85 103.08ZM150.60 95.83L147.80 83.95L136.80 80.76L128.59 89.46L131.39 101.34L142.40 104.52ZM131.39 101.34L128.59 89.46L117.59 86.29L109.39 94.98L112.19 106.86L123.19 110.04ZM156.01 75.25L153.22 63.36L142.21 60.18L134.00 68.88L136.80 80.76L147.80 83.95ZM136.80 80.76L134.00 68.88L122.99 65.71L114.79 74.41L117.59 86.29L128.59 89.46ZM164.40 110.89L161.61 99.01L150.60 95.83L142.40 104.52L145.19 116.40L156.19 119.58ZM145.19 116.40L142.40 104.52L131.39 101.34L123.19 110.04L125.99 121.91L136.99 125.09ZM169.82 90.32L167.02 78.43L156.01 75.25L147.80 83.95L150.60 95.83L161.61 99.01ZM194.93 197.20L192.14 185.33L181.15 182.14L172.95 190.82L175.74 202.68L186.73 205.88ZM175.74 202.68L172.95 190.82L161.96 187.63L153.76 196.30L156.55 208.17L167.54 211.36ZM200.35 176.65L197.57 164.78L186.57 161.59L178.36 170.27L181.15 182.14L192.14 185.33ZM181.15 182.14L178.36 170.27L167.37 167.08L159.16 175.76L161.96 187.63L172.95 190.82ZM208.71 212.27L205.92 200.40L194.93 197.20L186.73 205.88L189.51 217.74L200.50 220.94ZM189.51 217.74L186.73 205.88L175.74 202.68L167.54 211.36L170.33 223.22L181.31 226.41ZM214.13 191.73L211.35 179.85L200.35 176.65L192.14 185.33L194.93 197.20L205.92 200.40ZM142.77 193.12L139.98 181.25L128.99 178.07L120.80 186.75L123.59 198.61L134.58 201.79ZM123.59 198.61L120.80 186.75L109.81 183.57L101.63 192.25L104.42 204.11L115.41 207.29ZM148.17 172.57L145.38 160.70L134.39 157.52L126.19 166.20L128.99 178.07L139.98 181.25ZM128.99 178.07L126.19 166.20L115.20 163.02L107.01 171.71L109.81 183.57L120.80 186.75ZM156.55 208.17L153.76 196.30L142.77 193.12L134.58 201.79L137.37 213.65L148.36 216.84ZM137.37 213.65L134.58 201.79L123.59 198.61L115.41 207.29L118.20 219.15L129.18 222.33ZM161.96 187.63L159.16 175.76L148.17 172.57L139.98 181.25L142.77 193.12L153.76 196.30ZM225.00 150.62L222.21 138.73L211.21 135.54L202.99 144.22L205.78 156.10L216.78 159.30ZM205.78 156.10L202.99 144.22L191.99 141.03L183.78 149.71L186.57 161.59L197.57 164.78ZM230.43 130.05L227.65 118.17L216.64 114.97L208.42 123.65L211.21 135.54L222.21 138.73ZM211.21 135.54L208.42 123.65L197.41 120.46L189.20 129.15L191.99 141.03L202.99 144.22ZM238.78 165.70L236.00 153.82L225.00 150.62L216.78 159.30L219.56 171.17L230.56 174.37ZM219.56 171.17L216.78 159.30L205.78 156.10L197.57 164.78L200.35 176.65L211.35 179.85ZM244.22 145.14L241.44 133.25L230.43 130.05L222.21 138.73L225.00 150.62L236.00 153.82Z"/></svg>
