<svg xmlns="http://www.w3.org/2000/svg" width="256" height="256" viewBox="0 0 256 256"><path data-band="2" fill="#f97316" fill-opacity="0.35" d="M22.59 207.42L19.80 195.64L8.91 192.46L0.81 201.06L3.60 212.83L14.49 216.01ZM3.60 212.83L0.81 201.06L-10.08 197.88L-18.17 206.48L-15.38 218.24L-4.49 221.42ZM27.90 187.05L25.12 175.28L14.22 172.10L6.12 180.69L8.91 192.46L19.80 195.64ZM8.91 192.46L6.12 180.69L-4.77 177.52L-12.87 186.11L-10.08 197.88L0.81 201.06ZM36.26 222.37L33.48 210.60L22.59 207.42L14.49 216.01L17.28 227.77L28.16 230.96ZM17.28 227.77L14.49 216.01L3.60 212.83L-4.49 221.42L-1.70 233.18L9.18 236.36ZM41.58 202.01L38.80 190.23L27.90 187.05L19.80 195.64L22.59 207.42L33.48 210.60ZM52.23 161.27L49.45 149.48L38.54 146.30L30.43 154.90L33.22 166.68L44.12 169.86ZM33.22 166.68L30.43 154.90L19.54 151.72L11.43 160.32L14.22 172.10L25.12 175.28ZM57.56 140.88L54.78 129.10L43.87 125.91L35.76 134.52L38.54 146.30L49.45 149.48ZM38.54 146.30L35.76 134.52L24.85 131.34L16.74 139.94L19.54 151.72L30.43 154.90ZM65.92 176.23L63.13 164.45L52.23 161.27L44.12 169.86L46.91 181.64L57.80 184.83ZM46.91 181.64L44.12 169.86L33.22 166.68L25.12 175.28L27.90 187.05L38.80 190.23ZM71.25 155.86L68.47 144.07L57.56 140.88L49.45 149.48L52.23 161.27L63.13 164.45ZM0.53 157.14L-2.26 145.37L-13.15 142.19L-21.25 150.80L-18.46 162.57L-7.57 165.74ZM5.85 136.76L3.05 124.98L-7.85 121.81L-15.95 130.42L-13.15 142.19L-2.26 145.37ZM14.22 172.10L11.43 160.32L0.53 157.14L-7.57 165.74L-4.77 177.52L6.12 180.69ZM19.54 151.72L16.74 139.94L5.85 136.76L-2.26 145.37L0.53 157.14L11.43 160.32ZM44.62 257.68L41.83 245.91L30.95 242.72L22.85 251.31L25.64 263.07L36.52 266.26ZM25.64 263.07L22.85 251.31L11.97 248.13L3.88 256.71L6.67 268.47L17.54 271.65ZM49.94 237.33L47.15 225.56L36.26 222.37L28.16 230.96L30.95 242.72L41.83 245.91ZM30.95 242.72L28.16 230.96L17.28 227.77L9.18 236.36L11.97 248.13L22.85 251.31ZM63.61 252.29L60.83 240.52L49.94 237.33L41.83 245.91L44.62 257.68L55.50 260.87ZM6.67 268.47L3.88 256.71L-7.00 253.53L-15.09 262.11L-12.30 273.87L-1.42 277.05ZM11.97 248.13L9.18 236.36L-1.70 233.18L-9.79 241.77L-7.00 253.53L3.88 256.71ZM74.26 211.57L71.48 199.79L60.59 196.61L52.48 205.19L55.26 216.97L66.15 220.16ZM55.26 216.97L52.48 205.19L41.58 202.01L33.48 210.60L36.26 222.37L47.15 225.56ZM79.60 191.21L76.82 179.42L65.92 176.23L57.80 184.83L60.59 196.61L71.48 199.79ZM60.59 196.61L57.80 184.83L46.91 181.64L38.80 190.23L41.58 202.01L52.48 205.19ZM87.94 226.54L85.16 214.77L74.26 211.57L66.15 220.16L68.93 231.93L79.82 235.13ZM68.93 231.93L66.15 220.16L55.26 216.97L47.15 225.56L49.94 237.33L60.83 240.52ZM93.28 206.18L90.50 194.40L79.60 191.21L71.48 199.79L74.26 211.57L85.16 214.77ZM147.96 266.10L145.19 254.32L134.29 251.12L126.17 259.69L128.94 271.47L139.83 274.67ZM153.31 245.75L150.54 233.96L139.64 230.76L131.52 239.34L134.29 251.12L145.19 254.32ZM134.29 251.12L131.52 239.34L120.62 236.14L112.50 244.71L115.28 256.49L126.17 259.69ZM166.98 260.74L164.21 248.96L153.31 245.75L145.19 254.32L147.96 266.10L158.85 269.31ZM96.27 261.87L93.49 250.09L82.60 246.90L74.49 255.48L77.27 267.25L88.16 270.44ZM77.27 267.25L74.49 255.48L63.61 252.29L55.50 260.87L58.28 272.63L69.17 275.82ZM101.61 241.52L98.83 229.74L87.94 226.54L79.82 235.13L82.60 246.90L93.49 250.09ZM82.60 246.90L79.82 235.13L68.93 231.93L60.83 240.52L63.61 252.29L74.49 255.48ZM115.28 256.49L112.50 244.71L101.61 241.52L93.49 250.09L96.27 261.87L107.16 265.07ZM193.38 26.79L190.61 14.96L179.67 11.76L171.51 20.38L174.28 32.19L185.22 35.40ZM174.28 32.19L171.51 20.38L160.57 17.17L152.41 25.79L155.19 37.60L166.12 40.80ZM198.77 6.35L196.00 -5.48L185.06 -8.68L176.89 -0.06L179.67 11.76L190.61 14.96ZM179.67 11.76L176.89 -0.06L165.95 -3.26L157.79 5.36L160.57 17.17L171.51 20.38ZM207.09 41.81L204.32 29.99L193.38 26.79L185.22 35.40L187.99 47.21L198.92 50.42ZM187.99 47.21L185.22 35.40L174.28 32.19L166.12 40.80L168.90 52.62L179.83 55.82ZM212.49 21.38L209.72 9.56L198.77 6.35L190.61 14.96L193.38 26.79L204.32 29.99ZM141.48 22.59L138.70 10.78L127.77 7.58L119.62 16.20L122.40 28.01L133.33 31.21ZM122.40 28.01L119.62 16.20L108.69 13.01L100.54 21.63L103.33 33.44L114.26 36.63ZM146.86 2.16L144.08 -9.66L133.14 -12.86L124.99 -4.23L127.77 7.58L138.70 10.78ZM127.77 7.58L124.99 -4.23L114.05 -7.43L105.90 1.20L108.69 13.01L119.62 16.20ZM155.19 37.60L152.41 25.79L141.48 22.59L133.33 31.21L136.11 43.02L147.04 46.22ZM136.11 43.02L133.33 31.21L122.40 28.01L114.26 36.63L117.04 48.44L127.96 51.63ZM160.57 17.17L157.79 5.36L146.86 2.16L138.70 10.78L141.48 22.59L152.41 25.79ZM237.01 -4.46L234.24 -16.29L223.29 -19.50L215.12 -10.88L217.89 0.94L228.83 4.15ZM217.89 0.94L215.12 -10.88L204.17 -14.09L196.00 -5.48L198.77 6.35L209.72 9.56ZM165.95 -3.26L163.18 -15.09L152.23 -18.28L144.08 -9.66L146.86 2.16L157.79 5.36ZM215.40 77.27L212.63 65.45L201.70 62.24L193.53 70.84L196.31 82.66L207.23 85.87ZM196.31 82.66L193.53 70.84L182.60 67.64L174.45 76.24L177.22 88.05L188.15 91.26ZM220.80 56.85L218.03 45.03L207.09 41.81L198.92 50.42L201.70 62.24L212.63 65.45ZM201.70 62.24L198.92 50.42L187.99 47.21L179.83 55.82L182.60 67.64L193.53 70.84ZM229.10 92.30L226.33 80.48L215.40 77.27L207.23 85.87L210.00 97.68L220.93 100.89ZM210.00 97.68L207.23 85.87L196.31 82.66L188.15 91.26L190.92 103.07L201.84 106.28ZM234.50 71.88L231.73 60.06L220.80 56.85L212.63 65.45L215.40 77.27L226.33 80.48ZM163.52 73.04L160.75 61.23L149.82 58.03L141.67 66.64L144.45 78.44L155.37 81.64ZM144.45 78.44L141.67 66.64L130.74 63.44L122.60 72.05L125.38 83.85L136.30 87.05ZM168.90 52.62L166.12 40.80L155.19 37.60L147.04 46.22L149.82 58.03L160.75 61.23ZM149.82 58.03L147.04 46.22L136.11 43.02L127.96 51.63L130.74 63.44L141.67 66.64ZM177.22 88.05L174.45 76.24L163.52 73.04L155.37 81.64L158.15 93.45L169.07 96.65ZM158.15 93.45L155.37 81.64L144.45 78.44L136.30 87.05L139.08 98.85L150.00 102.05ZM182.60 67.64L179.83 55.82L168.90 52.62L160.75 61.23L163.52 73.04L174.45 76.24ZM245.31 31.02L242.55 19.20L231.60 15.98L223.43 24.59L226.20 36.42L237.14 39.63ZM226.20 36.42L223.43 24.59L212.49 21.38L204.32 29.99L207.09 41.81L218.03 45.03ZM250.73 10.59L247.96 -1.24L237.01 -4.46L228.83 4.15L231.60 15.98L242.55 19.20ZM231.60 15.98L228.83 4.15L217.89 0.94L209.72 9.56L212.49 21.38L223.43 24.59ZM259.02 46.07L256.26 34.24L245.31 31.02L237.14 39.63L239.90 51.46L250.84 54.67ZM239.90 51.46L237.14 39.63L226.20 36.42L218.03 45.03L220.80 56.85L231.73 60.06ZM264.44 25.63L261.67 13.80L250.73 10.59L242.55 19.20L245.31 31.02L256.26 34.24ZM59.87 64.71L57.08 52.91L46.16 49.73L38.04 58.35L40.83 70.14L51.74 73.32ZM40.83 70.14L38.04 58.35L27.12 55.17L19.00 63.79L21.80 75.58L32.71 78.76ZM65.21 44.30L62.42 32.50L51.50 29.31L43.37 37.93L46.16 49.73L57.08 52.91ZM46.16 49.73L43.37 37.93L32.45 34.76L24.33 43.38L27.12 55.17L38.04 58.35ZM73.57 79.69L70.79 67.90L59.87 64.71L51.74 73.32L54.53 85.12L65.45 88.30ZM54.53 85.12L51.74 73.32L40.83 70.14L32.71 78.76L35.50 90.55L46.41 93.73ZM78.92 59.28L76.13 47.48L65.21 44.30L57.08 52.91L59.87 64.71L70.79 67.90ZM8.09 60.61L5.30 48.82L-5.62 45.65L-13.73 54.27L-10.93 66.06L-0.02 69.23ZM13.41 40.20L10.62 28.41L-0.30 25.23L-8.42 33.86L-5.62 45.65L5.30 48.82ZM21.80 75.58L19.00 63.79L8.09 60.61L-0.02 69.23L2.78 81.02L13.68 84.19ZM2.78 81.02L-0.02 69.23L-10.93 66.06L-19.04 74.68L-16.24 86.46L-5.33 89.63ZM27.12 55.17L24.33 43.38L13.41 40.20L5.30 48.82L8.09 60.61L19.00 63.79ZM89.62 18.44L86.83 6.63L75.90 3.45L67.76 12.07L70.55 23.88L81.48 27.06ZM70.55 23.88L67.76 12.07L56.84 8.89L48.71 17.51L51.50 29.31L62.42 32.50ZM94.97 -1.99L92.18 -13.80L81.25 -16.99L73.11 -8.36L75.90 3.45L86.83 6.63ZM75.90 3.45L73.11 -8.36L62.18 -11.54L54.05 -2.92L56.84 8.89L67.76 12.07ZM103.33 33.44L100.54 21.63L89.62 18.44L81.48 27.06L84.26 38.86L95.19 42.05ZM84.26 38.86L81.48 27.06L70.55 23.88L62.42 32.50L65.21 44.30L76.13 47.48ZM108.69 13.01L105.90 1.20L94.97 -1.99L86.83 6.63L89.62 18.44L100.54 21.63ZM37.78 14.33L34.99 2.53L24.07 -0.64L15.94 7.98L18.74 19.78L29.66 22.96ZM18.74 19.78L15.94 7.98L5.02 4.81L-3.10 13.44L-0.30 25.23L10.62 28.41ZM43.12 -6.10L40.32 -17.90L29.40 -21.08L21.27 -12.45L24.07 -0.64L34.99 2.53ZM24.07 -0.64L21.27 -12.45L10.35 -15.62L2.22 -6.99L5.02 4.81L15.94 7.98ZM51.50 29.31L48.71 17.51L37.78 14.33L29.66 22.96L32.45 34.76L43.37 37.93ZM32.45 34.76L29.66 22.96L18.74 19.78L10.62 28.41L13.41 40.20L24.33 43.38ZM56.84 8.89L54.05 -2.92L43.12 -6.10L34.99 2.53L37.78 14.33L48.71 17.51ZM81.93 115.08L79.14 103.28L68.23 100.10L60.11 108.70L62.90 120.49L73.80 123.68ZM62.90 120.49L60.11 108.70L49.20 105.52L41.08 114.13L43.87 125.91L54.78 129.10ZM87.27 94.68L84.49 82.88L73.57 79.69L65.45 88.30L68.23 100.10L79.14 103.28ZM68.23 100.10L65.45 88.30L54.53 85.12L46.41 93.73L49.20 105.52L60.11 108.70ZM95.62 130.06L92.84 118.27L81.93 115.08L73.80 123.68L76.59 135.47L87.50 138.66ZM76.59 135.47L73.80 123.68L62.90 120.49L54.78 129.10L57.56 140.88L68.47 144.07ZM100.97 109.66L98.19 97.87L87.27 94.68L79.14 103.28L81.93 115.08L92.84 118.27ZM30.18 110.95L27.38 99.16L16.48 95.98L8.37 104.59L11.16 116.38L22.06 119.55ZM11.16 116.38L8.37 104.59L-2.54 101.42L-10.64 110.03L-7.85 121.81L3.05 124.98ZM35.50 90.55L32.71 78.76L21.80 75.58L13.68 84.19L16.48 95.98L27.38 99.16ZM16.48 95.98L13.68 84.19L2.78 81.02L-5.33 89.63L-2.54 101.42L8.37 104.59ZM43.87 125.91L41.08 114.13L30.18 110.95L22.06 119.55L24.85 131.34L35.76 134.52ZM24.85 131.34L22.06 119.55L11.16 116.38L3.05 124.98L5.85 136.76L16.74 139.94ZM49.20 105.52L46.41 93.73L35.50 90.55L27.38 99.16L30.18 110.95L41.08 114.13ZM111.68 68.85L108.90 57.05L97.97 53.86L89.84 62.47L92.62 74.27L103.54 77.46ZM92.62 74.27L89.84 62.47L78.92 59.28L70.79 67.90L73.57 79.69L84.49 82.88ZM117.04 48.44L114.26 36.63L103.33 33.44L95.19 42.05L97.97 53.86L108.90 57.05ZM97.97 53.86L95.19 42.05L84.26 38.86L76.13 47.48L78.92 59.28L89.84 62.47ZM125.38 83.85L122.60 72.05L111.68 68.85L103.54 77.46L106.32 89.26L117.24 92.46ZM106.32 89.26L103.54 77.46L92.62 74.27L84.49 82.88L87.27 94.68L98.19 97.87ZM130.74 63.44L127.96 51.63L117.04 48.44L108.90 57.05L111.68 68.85L122.60 72.05ZM114.05 -7.43L111.27 -19.24L100.33 -22.43L92.18 -13.80L94.97 -1.99L105.90 1.20ZM270.17 137.40L267.41 125.59L256.48 122.36L248.31 130.96L251.08 142.77L262.00 145.99ZM275.58 117.00L272.83 105.18L261.89 101.96L253.72 110.55L256.48 122.36L267.41 125.59ZM237.39 127.74L234.62 115.92L223.70 112.71L215.54 121.30L218.30 133.11L229.23 136.33ZM218.30 133.11L215.54 121.30L204.61 118.09L196.46 126.68L199.22 138.49L210.15 141.70ZM242.79 107.33L240.03 95.51L229.10 92.30L220.93 100.89L223.70 112.71L234.62 115.92ZM223.70 112.71L220.93 100.89L210.00 97.68L201.84 106.28L204.61 118.09L215.54 121.30ZM251.08 142.77L248.31 130.96L237.39 127.74L229.23 136.33L231.99 148.13L242.91 151.35ZM231.99 148.13L229.23 136.33L218.30 133.11L210.15 141.70L212.91 153.51L223.83 156.72ZM256.48 122.36L253.72 110.55L242.79 107.33L234.62 115.92L237.39 127.74L248.31 130.96ZM267.31 81.54L264.54 69.72L253.61 66.50L245.43 75.10L248.20 86.92L259.13 90.14ZM248.20 86.92L245.43 75.10L234.50 71.88L226.33 80.48L229.10 92.30L240.03 95.51ZM272.72 61.12L269.96 49.29L259.02 46.07L250.84 54.67L253.61 66.50L264.54 69.72ZM253.61 66.50L250.84 54.67L239.90 51.46L231.73 60.06L234.50 71.88L245.43 75.10ZM261.89 101.96L259.13 90.14L248.20 86.92L240.03 95.51L242.79 107.33L253.72 110.55ZM259.35 178.19L256.59 166.38L245.67 163.16L237.51 171.75L240.27 183.55L251.19 186.77ZM240.27 183.55L237.51 171.75L226.59 168.53L218.44 177.11L221.20 188.91L232.12 192.13ZM264.76 157.80L262.00 145.99L251.08 142.77L242.91 151.35L245.67 163.16L256.59 166.38ZM245.67 163.16L242.91 151.35L231.99 148.13L223.83 156.72L226.59 168.53L237.51 171.75ZM273.03 193.22L270.27 181.42L259.35 178.19L251.19 186.77L253.95 198.58L264.87 201.80ZM253.95 198.58L251.19 186.77L240.27 183.55L232.12 192.13L234.88 203.93L245.79 207.15ZM155.73 169.64L152.95 157.85L142.04 154.64L133.91 163.23L136.68 175.03L147.59 178.23ZM136.68 175.03L133.91 163.23L123.00 160.04L114.87 168.63L117.65 180.42L128.55 183.62ZM161.10 149.25L158.32 137.46L147.41 134.25L139.27 142.85L142.04 154.64L152.95 157.85ZM142.04 154.64L139.27 142.85L128.36 139.65L120.22 148.24L123.00 160.04L133.91 163.23ZM169.41 184.64L166.64 172.85L155.73 169.64L147.59 178.23L150.36 190.02L161.27 193.23ZM150.36 190.02L147.59 178.23L136.68 175.03L128.55 183.62L131.33 195.40L142.23 198.61ZM174.78 164.26L172.01 152.46L161.10 149.25L152.95 157.85L155.73 169.64L166.64 172.85ZM103.96 165.43L101.18 153.64L90.28 150.45L82.15 159.05L84.94 170.83L95.84 174.02ZM84.94 170.83L82.15 159.05L71.25 155.86L63.13 164.45L65.92 176.23L76.82 179.42ZM109.31 145.05L106.53 133.25L95.62 130.06L87.50 138.66L90.28 150.45L101.18 153.64ZM90.28 150.45L87.50 138.66L76.59 135.47L68.47 144.07L71.25 155.86L82.15 159.05ZM117.65 180.42L114.87 168.63L103.96 165.43L95.84 174.02L98.62 185.81L109.52 189.00ZM98.62 185.81L95.84 174.02L84.94 170.83L76.82 179.42L79.60 191.21L90.50 194.40ZM123.00 160.04L120.22 148.24L109.31 145.05L101.18 153.64L103.96 165.43L114.87 168.63ZM185.54 123.47L182.76 111.67L171.84 108.46L163.69 117.06L166.47 128.86L177.39 132.07ZM166.47 128.86L163.69 117.06L152.77 113.85L144.63 122.45L147.41 134.25L158.32 137.46ZM190.92 103.07L188.15 91.26L177.22 88.05L169.07 96.65L171.84 108.46L182.76 111.67ZM171.84 108.46L169.07 96.65L158.15 93.45L150.00 102.05L152.77 113.85L163.69 117.06ZM199.22 138.49L196.46 126.68L185.54 123.47L177.39 132.07L180.16 143.87L191.07 147.08ZM180.16 143.87L177.39 132.07L166.47 128.86L158.32 137.46L161.10 149.25L172.01 152.46ZM204.61 118.09L201.84 106.28L190.92 103.07L182.76 111.67L185.54 123.47L196.46 126.68ZM133.72 119.25L130.94 107.45L120.02 104.26L111.88 112.86L114.66 124.65L125.58 127.85ZM114.66 124.65L111.88 112.86L100.97 109.66L92.84 118.27L95.62 130.06L106.53 133.25ZM139.08 98.85L136.30 87.05L125.38 83.85L117.24 92.46L120.02 104.26L130.94 107.45ZM120.02 104.26L117.24 92.46L106.32 89.26L98.19 97.87L100.97 109.66L111.88 112.86ZM147.41 134.25L144.63 122.45L133.72 119.25L125.58 127.85L128.36 139.65L139.27 142.85ZM128.36 139.65L125.58 127.85L114.66 124.65L106.53 133.25L109.31 145.05L120.22 148.24ZM152.77 113.85L150.00 102.05L139.08 98.85L130.94 107.45L133.72 119.25L144.63 122.45ZM177.71 220.02L174.95 208.23L164.04 205.02L155.90 213.60L158.67 225.39L169.58 228.59ZM158.67 225.39L155.90 213.60L145.00 210.39L136.87 218.98L139.64 230.76L150.54 233.96ZM183.09 199.64L180.32 187.85L169.41 184.64L161.27 193.23L164.04 205.02L174.95 208.23ZM164.04 205.02L161.27 193.23L150.36 190.02L142.23 198.61L145.00 210.39L155.90 213.60ZM191.38 235.02L188.62 223.23L177.71 220.02L169.58 228.59L172.34 240.38L183.25 243.59ZM172.34 240.38L169.58 228.59L158.67 225.39L150.54 233.96L153.31 245.75L164.21 248.96ZM196.76 214.65L193.99 202.86L183.09 199.64L174.95 208.23L177.71 220.02L188.62 223.23ZM125.97 215.77L123.20 203.99L112.30 200.79L104.17 209.38L106.95 221.16L117.85 224.35ZM106.95 221.16L104.17 209.38L93.28 206.18L85.16 214.77L87.94 226.54L98.83 229.74ZM131.33 195.40L128.55 183.62L117.65 180.42L109.52 189.00L112.30 200.79L123.20 203.99ZM112.30 200.79L109.52 189.00L98.62 185.81L90.50 194.40L93.28 206.18L104.17 209.38ZM139.64 230.76L136.87 218.98L125.97 215.77L117.85 224.35L120.62 236.14L131.52 239.34ZM120.62 236.14L117.85 224.35L106.95 221.16L98.83 229.74L101.61 241.52L112.50 244.71ZM145.00 210.39L142.23 198.61L131.33 195.40L123.20 203.99L125.97 215.77L136.87 218.98ZM207.52 173.89L204.76 162.09L193.84 158.88L185.69 167.47L188.46 179.27L199.37 182.48ZM188.46 179.27L185.69 167.47L174.78 164.26L166.64 172.85L169.41 184.64L180.32 187.85ZM212.91 153.51L210.15 141.70L199.22 138.49L191.07 147.08L193.84 158.88L204.76 162.09ZM193.84 158.88L191.07 147.08L180.16 143.87L172.01 152.46L174.78 164.26L185.69 167.47ZM221.20 188.91L218.44 177.11L207.52 173.89L199.37 182.48L202.14 194.28L213.05 197.49ZM202.14 194.28L199.37 182.48L188.46 179.27L180.32 187.85L183.09 199.64L193.99 202.86ZM226.59 168.53L223.83 156.72L212.91 153.51L204.76 162.09L207.52 173.89L218.44 177.11ZM269.86 5.19L267.09 -6.64L256.14 -9.86L247.96 -1.24L250.73 10.59L261.67 13.80ZM5.02 4.81L2.22 -6.99L-8.70 -10.16L-16.82 -1.53L-14.02 10.27L-3.10 13.44ZM256.82 254.34L254.06 242.55L243.15 239.32L235.00 247.89L237.76 259.69L248.67 262.91ZM237.76 259.69L235.00 247.89L224.10 244.67L215.95 253.24L218.71 265.03L229.62 268.25ZM270.48 269.37L267.73 257.57L256.82 254.34L248.67 262.91L251.42 274.70L262.33 277.93ZM199.67 270.38L196.91 258.59L186.01 255.38L177.88 263.95L180.64 275.73L191.54 278.95ZM205.05 250.02L202.29 238.23L191.38 235.02L183.25 243.59L186.01 255.38L196.91 258.59ZM186.01 255.38L183.25 243.59L172.34 240.38L164.21 248.96L166.98 260.74L177.88 263.95ZM218.71 265.03L215.95 253.24L205.05 250.02L196.91 258.59L199.67 270.38L210.57 273.60ZM262.22 233.98L259.46 222.18L248.55 218.95L240.40 227.53L243.15 239.32L254.06 242.55ZM267.62 213.60L264.87 201.80L253.95 198.58L245.79 207.15L248.55 218.95L259.46 222.18ZM275.89 249.00L273.13 237.21L262.22 233.98L254.06 242.55L256.82 254.34L267.73 257.57ZM229.49 224.30L226.73 212.51L215.81 209.29L207.67 217.87L210.43 229.66L221.34 232.88ZM210.43 229.66L207.67 217.87L196.76 214.65L188.62 223.23L191.38 235.02L202.29 238.23ZM234.88 203.93L232.12 192.13L221.20 188.91L213.05 197.49L215.81 209.29L226.73 212.51ZM215.81 209.29L213.05 197.49L202.14 194.28L193.99 202.86L196.76 214.65L207.67 217.87ZM243.15 239.32L240.40 227.53L229.49 224.30L221.34 232.88L224.10 244.67L235.00 247.89ZM224.10 244.67L221.34 232.88L210.43 229.66L202.29 238.23L205.05 250.02L215.95 253.24ZM248.55 218.95L245.79 207.15L234.88 203.93L226.73 212.51L229.49 224.30L240.40 227.53Z"/></svg>
