<svg xmlns="http://www.w3.org/2000/svg" width="256" height="256" viewBox="0 0 256 256"><path data-band="2" fill="#f97316" fill-opacity="0.35" d="M4.43 88.39L1.64 76.64L-9.22 73.46L-17.30 82.03L-14.51 93.78L-3.65 96.96ZM15.03 47.74L12.24 35.99L1.37 32.81L-6.72 41.38L-3.93 53.14L6.94 56.32ZM20.33 27.41L17.54 15.65L6.67 12.47L-1.42 21.05L1.37 32.81L12.24 35.99ZM1.37 32.81L-1.42 21.05L-12.30 17.87L-20.38 26.45L-17.59 38.21L-6.72 41.38ZM28.68 62.69L25.90 50.93L15.03 47.74L6.94 56.32L9.72 68.07L20.59 71.26ZM9.72 68.07L6.94 56.32L-3.93 53.14L-12.01 61.71L-9.22 73.46L1.64 76.64ZM33.99 42.36L31.21 30.60L20.33 27.41L12.24 35.99L15.03 47.74L25.90 50.93ZM7.48 143.93L4.70 132.19L-6.16 129.01L-14.23 137.57L-11.44 149.30L-0.59 152.49ZM12.78 123.63L9.99 111.89L-0.87 108.70L-8.94 117.26L-6.16 129.01L4.70 132.19ZM21.12 158.86L18.34 147.12L7.48 143.93L-0.59 152.49L2.19 164.23L13.05 167.41ZM2.19 164.23L-0.59 152.49L-11.44 149.30L-19.51 157.86L-16.73 169.60L-5.88 172.78ZM26.42 138.56L23.64 126.82L12.78 123.63L4.70 132.19L7.48 143.93L18.34 147.12ZM37.03 97.95L34.25 86.20L23.38 83.01L15.29 91.57L18.08 103.32L28.94 106.51ZM18.08 103.32L15.29 91.57L4.43 88.39L-3.65 96.96L-0.87 108.70L9.99 111.89ZM42.33 77.63L39.55 65.87L28.68 62.69L20.59 71.26L23.38 83.01L34.25 86.20ZM23.38 83.01L20.59 71.26L9.72 68.07L1.64 76.64L4.43 88.39L15.29 91.57ZM50.67 112.89L47.89 101.14L37.03 97.95L28.94 106.51L31.72 118.26L42.58 121.45ZM31.72 118.26L28.94 106.51L18.08 103.32L9.99 111.89L12.78 123.63L23.64 126.82ZM55.99 92.58L53.21 80.82L42.33 77.63L34.25 86.20L37.03 97.95L47.89 101.14ZM44.62 1.68L41.83 -10.09L30.95 -13.28L22.85 -4.69L25.64 7.07L36.52 10.26ZM25.64 7.07L22.85 -4.69L11.97 -7.87L3.88 0.71L6.67 12.47L17.54 15.65ZM58.28 16.63L55.50 4.87L44.62 1.68L36.52 10.26L39.30 22.02L50.18 25.21ZM39.30 22.02L36.52 10.26L25.64 7.07L17.54 15.65L20.33 27.41L31.21 30.60ZM63.61 -3.71L60.83 -15.48L49.94 -18.67L41.83 -10.09L44.62 1.68L55.50 4.87ZM6.67 12.47L3.88 0.71L-7.00 -2.47L-15.09 6.11L-12.30 17.87L-1.42 21.05ZM11.97 -7.87L9.18 -19.64L-1.70 -22.82L-9.79 -14.23L-7.00 -2.47L3.88 0.71ZM80.95 198.32L78.18 186.57L67.32 183.37L59.24 191.92L62.01 203.66L72.87 206.86ZM62.01 203.66L59.24 191.92L48.39 188.72L40.31 197.27L43.08 209.01L53.93 212.20ZM86.27 178.03L83.50 166.28L72.64 163.08L64.55 171.63L67.32 183.37L78.18 186.57ZM67.32 183.37L64.55 171.63L53.69 168.43L45.61 176.98L48.39 188.72L59.24 191.92ZM94.58 213.26L91.81 201.52L80.95 198.32L72.87 206.86L75.64 218.60L86.49 221.80ZM75.64 218.60L72.87 206.86L62.01 203.66L53.93 212.20L56.71 223.94L67.56 227.14ZM99.90 192.98L97.13 181.23L86.27 178.03L78.18 186.57L80.95 198.32L91.81 201.52ZM29.46 194.08L26.68 182.34L15.83 179.15L7.76 187.70L10.54 199.43L21.38 202.62ZM10.54 199.43L7.76 187.70L-3.09 184.51L-11.16 193.06L-8.38 204.79L2.47 207.98ZM34.76 173.79L31.98 162.05L21.12 158.86L13.05 167.41L15.83 179.15L26.68 182.34ZM15.83 179.15L13.05 167.41L2.19 164.23L-5.88 172.78L-3.09 184.51L7.76 187.70ZM43.08 209.01L40.31 197.27L29.46 194.08L21.38 202.62L24.16 214.36L35.01 217.55ZM24.16 214.36L21.38 202.62L10.54 199.43L2.47 207.98L5.25 219.71L16.09 222.90ZM48.39 188.72L45.61 176.98L34.76 173.79L26.68 182.34L29.46 194.08L40.31 197.27ZM110.55 152.39L107.78 140.63L96.92 137.43L88.82 145.98L91.59 157.73L102.46 160.94ZM91.59 157.73L88.82 145.98L77.95 142.78L69.86 151.33L72.64 163.08L83.50 166.28ZM115.89 132.08L113.12 120.32L102.24 117.12L94.14 125.68L96.92 137.43L107.78 140.63ZM96.92 137.43L94.14 125.68L83.28 122.48L75.18 131.03L77.95 142.78L88.82 145.98ZM124.19 167.35L121.42 155.59L110.55 152.39L102.46 160.94L105.22 172.69L116.09 175.89ZM105.22 172.69L102.46 160.94L91.59 157.73L83.50 166.28L86.27 178.03L97.13 181.23ZM129.52 147.05L126.76 135.29L115.89 132.08L107.78 140.63L110.55 152.39L121.42 155.59ZM59.00 148.14L56.23 136.39L45.36 133.20L37.28 141.75L40.06 153.50L50.92 156.69ZM40.06 153.50L37.28 141.75L26.42 138.56L18.34 147.12L21.12 158.86L31.98 162.05ZM64.31 127.84L61.54 116.08L50.67 112.89L42.58 121.45L45.36 133.20L56.23 136.39ZM45.36 133.20L42.58 121.45L31.72 118.26L23.64 126.82L26.42 138.56L37.28 141.75ZM72.64 163.08L69.86 151.33L59.00 148.14L50.92 156.69L53.69 168.43L64.55 171.63ZM53.69 168.43L50.92 156.69L40.06 153.50L31.98 162.05L34.76 173.79L45.61 176.98ZM77.95 142.78L75.18 131.03L64.31 127.84L56.23 136.39L59.00 148.14L69.86 151.33ZM102.88 248.48L100.11 236.74L89.26 233.54L81.18 242.07L83.94 253.81L94.79 257.01ZM83.94 253.81L81.18 242.07L70.33 238.87L62.25 247.41L65.02 259.14L75.87 262.34ZM108.20 228.21L105.43 216.47L94.58 213.26L86.49 221.80L89.26 233.54L100.11 236.74ZM89.26 233.54L86.49 221.80L75.64 218.60L67.56 227.14L70.33 238.87L81.18 242.07ZM116.49 263.43L113.73 251.69L102.88 248.48L94.79 257.01L97.56 268.75L108.41 271.96ZM97.56 268.75L94.79 257.01L83.94 253.81L75.87 262.34L78.63 274.07L89.48 277.28ZM121.82 243.16L119.05 231.42L108.20 228.21L100.11 236.74L102.88 248.48L113.73 251.69ZM51.40 244.21L48.63 232.48L37.78 229.28L29.71 237.82L32.49 249.55L43.33 252.74ZM32.49 249.55L29.71 237.82L18.87 234.63L10.81 243.17L13.58 254.89L24.42 258.08ZM56.71 223.94L53.93 212.20L43.08 209.01L35.01 217.55L37.78 229.28L48.63 232.48ZM37.78 229.28L35.01 217.55L24.16 214.36L16.09 222.90L18.87 234.63L29.71 237.82ZM65.02 259.14L62.25 247.41L51.40 244.21L43.33 252.74L46.10 264.47L56.95 267.67ZM46.10 264.47L43.33 252.74L32.49 249.55L24.42 258.08L27.20 269.81L38.04 273.00ZM70.33 238.87L67.56 227.14L56.71 223.94L48.63 232.48L51.40 244.21L62.25 247.41ZM132.48 202.60L129.72 190.85L118.85 187.64L110.76 196.18L113.52 207.93L124.38 211.14ZM113.52 207.93L110.76 196.18L99.90 192.98L91.81 201.52L94.58 213.26L105.43 216.47ZM137.82 182.31L135.05 170.56L124.19 167.35L116.09 175.89L118.85 187.64L129.72 190.85ZM118.85 187.64L116.09 175.89L105.22 172.69L97.13 181.23L99.90 192.98L110.76 196.18ZM146.10 217.56L143.34 205.81L132.48 202.60L124.38 211.14L127.15 222.88L138.01 226.09ZM127.15 222.88L124.38 211.14L113.52 207.93L105.43 216.47L108.20 228.21L119.05 231.42ZM151.44 197.27L148.68 185.52L137.82 182.31L129.72 190.85L132.48 202.60L143.34 205.81ZM5.25 219.71L2.47 207.98L-8.38 204.79L-16.44 213.34L-13.66 225.07L-2.82 228.25ZM13.58 254.89L10.81 243.17L-0.04 239.98L-8.10 248.52L-5.32 260.24L5.52 263.43ZM18.87 234.63L16.09 222.90L5.25 219.71L-2.82 228.25L-0.04 239.98L10.81 243.17ZM118.25 56.15L115.48 44.38L104.59 41.18L96.49 49.75L99.26 61.52L110.14 64.72ZM99.26 61.52L96.49 49.75L85.60 46.55L77.50 55.12L80.28 66.88L91.15 70.08ZM123.59 35.81L120.82 24.04L109.93 20.84L101.82 29.41L104.59 41.18L115.48 44.38ZM104.59 41.18L101.82 29.41L90.94 26.21L82.83 34.79L85.60 46.55L96.49 49.75ZM131.90 71.12L129.13 59.36L118.25 56.15L110.14 64.72L112.91 76.48L123.79 79.69ZM112.91 76.48L110.14 64.72L99.26 61.52L91.15 70.08L93.93 81.84L104.80 85.04ZM137.25 50.79L134.48 39.02L123.59 35.81L115.48 44.38L118.25 56.15L129.13 59.36ZM66.62 51.93L63.84 40.16L52.96 36.97L44.87 45.54L47.65 57.30L58.52 60.50ZM47.65 57.30L44.87 45.54L33.99 42.36L25.90 50.93L28.68 62.69L39.55 65.87ZM71.95 31.59L69.17 19.82L58.28 16.63L50.18 25.21L52.96 36.97L63.84 40.16ZM52.96 36.97L50.18 25.21L39.30 22.02L31.21 30.60L33.99 42.36L44.87 45.54ZM80.28 66.88L77.50 55.12L66.62 51.93L58.52 60.50L61.30 72.25L72.18 75.45ZM61.30 72.25L58.52 60.50L47.65 57.30L39.55 65.87L42.33 77.63L53.21 80.82ZM85.60 46.55L82.83 34.79L71.95 31.59L63.84 40.16L66.62 51.93L77.50 55.12ZM147.96 10.10L145.19 -1.68L134.29 -4.88L126.17 3.69L128.94 15.47L139.83 18.67ZM128.94 15.47L126.17 3.69L115.28 0.49L107.16 9.07L109.93 20.84L120.82 24.04ZM134.29 -4.88L131.52 -16.66L120.62 -19.86L112.50 -11.29L115.28 0.49L126.17 3.69ZM161.62 25.09L158.85 13.31L147.96 10.10L139.83 18.67L142.60 30.45L153.49 33.66ZM142.60 30.45L139.83 18.67L128.94 15.47L120.82 24.04L123.59 35.81L134.48 39.02ZM166.98 4.74L164.21 -7.04L153.31 -10.25L145.19 -1.68L147.96 10.10L158.85 13.31ZM96.27 5.87L93.49 -5.91L82.60 -9.10L74.49 -0.52L77.27 11.25L88.16 14.44ZM77.27 11.25L74.49 -0.52L63.61 -3.71L55.50 4.87L58.28 16.63L69.17 19.82ZM109.93 20.84L107.16 9.07L96.27 5.87L88.16 14.44L90.94 26.21L101.82 29.41ZM90.94 26.21L88.16 14.44L77.27 11.25L69.17 19.82L71.95 31.59L82.83 34.79ZM115.28 0.49L112.50 -11.29L101.61 -14.48L93.49 -5.91L96.27 5.87L107.16 9.07ZM140.21 106.42L137.44 94.66L126.56 91.45L118.45 100.01L121.22 111.77L132.10 114.98ZM121.22 111.77L118.45 100.01L107.58 96.81L99.47 105.36L102.24 117.12L113.12 120.32ZM145.55 86.10L142.79 74.33L131.90 71.12L123.79 79.69L126.56 91.45L137.44 94.66ZM126.56 91.45L123.79 79.69L112.91 76.48L104.80 85.04L107.58 96.81L118.45 100.01ZM153.85 121.40L151.08 109.63L140.21 106.42L132.10 114.98L134.86 126.74L145.74 129.95ZM134.86 126.74L132.10 114.98L121.22 111.77L113.12 120.32L115.89 132.08L126.76 135.29ZM159.20 101.08L156.44 89.31L145.55 86.10L137.44 94.66L140.21 106.42L151.08 109.63ZM88.60 102.16L85.83 90.40L74.95 87.21L66.86 95.77L69.63 107.52L80.50 110.72ZM69.63 107.52L66.86 95.77L55.99 92.58L47.89 101.14L50.67 112.89L61.54 116.08ZM93.93 81.84L91.15 70.08L80.28 66.88L72.18 75.45L74.95 87.21L85.83 90.40ZM74.95 87.21L72.18 75.45L61.30 72.25L53.21 80.82L55.99 92.58L66.86 95.77ZM102.24 117.12L99.47 105.36L88.60 102.16L80.50 110.72L83.28 122.48L94.14 125.68ZM83.28 122.48L80.50 110.72L69.63 107.52L61.54 116.08L64.31 127.84L75.18 131.03ZM107.58 96.81L104.80 85.04L93.93 81.84L85.83 90.40L88.60 102.16L99.47 105.36ZM169.91 60.42L167.15 48.64L156.26 45.43L148.14 54.00L150.90 65.77L161.79 68.98ZM150.90 65.77L148.14 54.00L137.25 50.79L129.13 59.36L131.90 71.12L142.79 74.33ZM175.28 40.08L172.51 28.30L161.62 25.09L153.49 33.66L156.26 45.43L167.15 48.64ZM156.26 45.43L153.49 33.66L142.60 30.45L134.48 39.02L137.25 50.79L148.14 54.00ZM183.56 75.41L180.80 63.63L169.91 60.42L161.79 68.98L164.55 80.75L175.44 83.97ZM164.55 80.75L161.79 68.98L150.90 65.77L142.79 74.33L145.55 86.10L156.44 89.31ZM188.93 55.07L186.17 43.29L175.28 40.08L167.15 48.64L169.91 60.42L180.80 63.63ZM205.92 257.16L203.17 245.41L192.31 242.18L184.20 250.71L186.95 262.46L197.81 265.68ZM186.95 262.46L184.20 250.71L173.34 247.49L165.24 256.02L168.00 267.76L178.85 270.98ZM211.28 236.88L208.53 225.13L197.66 221.90L189.55 230.43L192.31 242.18L203.17 245.41ZM192.31 242.18L189.55 230.43L178.69 227.21L170.58 235.74L173.34 247.49L184.20 250.71ZM224.90 251.86L222.15 240.11L211.28 236.88L203.17 245.41L205.92 257.16L216.78 260.39ZM154.38 252.80L151.62 241.05L140.77 237.84L132.67 246.37L135.43 258.11L146.29 261.33ZM135.43 258.11L132.67 246.37L121.82 243.16L113.73 251.69L116.49 263.43L127.34 266.64ZM159.72 232.52L156.96 220.78L146.10 217.56L138.01 226.09L140.77 237.84L151.62 241.05ZM140.77 237.84L138.01 226.09L127.15 222.88L119.05 231.42L121.82 243.16L132.67 246.37ZM168.00 267.76L165.24 256.02L154.38 252.80L146.29 261.33L149.05 273.07L159.90 276.29ZM173.34 247.49L170.58 235.74L159.72 232.52L151.62 241.05L154.38 252.80L165.24 256.02ZM27.20 269.81L24.42 258.08L13.58 254.89L5.52 263.43L8.30 275.15L19.13 278.34ZM276.19 124.77L273.44 112.99L262.55 109.75L254.41 118.30L257.16 130.08L268.04 133.31ZM213.75 161.02L211.00 149.25L200.12 146.03L192.00 154.57L194.76 166.33L205.63 169.56ZM194.76 166.33L192.00 154.57L181.12 151.35L173.01 159.90L175.77 171.66L186.64 174.87ZM219.12 140.71L216.37 128.94L205.49 125.71L197.36 134.26L200.12 146.03L211.00 149.25ZM200.12 146.03L197.36 134.26L186.48 131.04L178.36 139.59L181.12 151.35L192.00 154.57ZM227.38 176.01L224.63 164.24L213.75 161.02L205.63 169.56L208.39 181.32L219.26 184.54ZM208.39 181.32L205.63 169.56L194.76 166.33L186.64 174.87L189.40 186.63L200.27 189.86ZM232.76 155.70L230.01 143.93L219.12 140.71L211.00 149.25L213.75 161.02L224.63 164.24ZM162.14 156.68L159.37 144.92L148.50 141.71L140.39 150.26L143.16 162.01L154.03 165.22ZM143.16 162.01L140.39 150.26L129.52 147.05L121.42 155.59L124.19 167.35L135.05 170.56ZM167.49 136.37L164.73 124.61L153.85 121.40L145.74 129.95L148.50 141.71L159.37 144.92ZM148.50 141.71L145.74 129.95L134.86 126.74L126.76 135.29L129.52 147.05L140.39 150.26ZM175.77 171.66L173.01 159.90L162.14 156.68L154.03 165.22L156.79 176.98L167.66 180.20ZM156.79 176.98L154.03 165.22L143.16 162.01L135.05 170.56L137.82 182.31L148.68 185.52ZM181.12 151.35L178.36 139.59L167.49 136.37L159.37 144.92L162.14 156.68L173.01 159.90ZM243.52 115.07L240.77 103.29L229.88 100.07L221.74 108.62L224.50 120.39L235.38 123.62ZM224.50 120.39L221.74 108.62L210.86 105.39L202.73 113.94L205.49 125.71L216.37 128.94ZM248.90 94.74L246.15 82.96L235.26 79.74L227.12 88.29L229.88 100.07L240.77 103.29ZM229.88 100.07L227.12 88.29L216.23 85.07L208.10 93.62L210.86 105.39L221.74 108.62ZM257.16 130.08L254.41 118.30L243.52 115.07L235.38 123.62L238.14 135.39L249.02 138.62ZM238.14 135.39L235.38 123.62L224.50 120.39L216.37 128.94L219.12 140.71L230.01 143.93ZM262.55 109.75L259.80 97.97L248.90 94.74L240.77 103.29L243.52 115.07L254.41 118.30ZM191.85 110.72L189.09 98.95L178.20 95.74L170.08 104.29L172.84 116.06L183.72 119.27ZM172.84 116.06L170.08 104.29L159.20 101.08L151.08 109.63L153.85 121.40L164.73 124.61ZM197.21 90.40L194.45 78.63L183.56 75.41L175.44 83.97L178.20 95.74L189.09 98.95ZM178.20 95.74L175.44 83.97L164.55 80.75L156.44 89.31L159.20 101.08L170.08 104.29ZM205.49 125.71L202.73 113.94L191.85 110.72L183.72 119.27L186.48 131.04L197.36 134.26ZM186.48 131.04L183.72 119.27L172.84 116.06L164.73 124.61L167.49 136.37L178.36 139.59ZM210.86 105.39L208.10 93.62L197.21 90.40L189.09 98.95L191.85 110.72L202.73 113.94ZM235.64 211.30L232.89 199.53L222.01 196.31L213.89 204.84L216.65 216.60L227.51 219.83ZM216.65 216.60L213.89 204.84L203.02 201.61L194.91 210.15L197.66 221.90L208.53 225.13ZM241.01 191.00L238.26 179.24L227.38 176.01L219.26 184.54L222.01 196.31L232.89 199.53ZM222.01 196.31L219.26 184.54L208.39 181.32L200.27 189.86L203.02 201.61L213.89 204.84ZM249.25 226.29L246.51 214.53L235.64 211.30L227.51 219.83L230.26 231.58L241.13 234.81ZM230.26 231.58L227.51 219.83L216.65 216.60L208.53 225.13L211.28 236.88L222.15 240.11ZM254.63 206.00L251.89 194.23L241.01 191.00L232.89 199.53L235.64 211.30L246.51 214.53ZM184.04 206.93L181.28 195.17L170.42 191.95L162.31 200.49L165.07 212.24L175.93 215.46ZM165.07 212.24L162.31 200.49L151.44 197.27L143.34 205.81L146.10 217.56L156.96 220.78ZM189.40 186.63L186.64 174.87L175.77 171.66L167.66 180.20L170.42 191.95L181.28 195.17ZM170.42 191.95L167.66 180.20L156.79 176.98L148.68 185.52L151.44 197.27L162.31 200.49ZM197.66 221.90L194.91 210.15L184.04 206.93L175.93 215.46L178.69 227.21L189.55 230.43ZM178.69 227.21L175.93 215.46L165.07 212.24L156.96 220.78L159.72 232.52L170.58 235.74ZM203.02 201.61L200.27 189.86L189.40 186.63L181.28 195.17L184.04 206.93L194.91 210.15ZM265.40 165.40L262.65 153.62L251.77 150.39L243.64 158.93L246.39 170.70L257.27 173.93ZM246.39 170.70L243.64 158.93L232.76 155.70L224.63 164.24L227.38 176.01L238.26 179.24ZM270.79 145.08L268.04 133.31L257.16 130.08L249.02 138.62L251.77 150.39L262.65 153.62ZM251.77 150.39L249.02 138.62L238.14 135.39L230.01 143.93L232.76 155.70L243.64 158.93ZM260.02 185.70L257.27 173.93L246.39 170.70L238.26 179.24L241.01 191.00L251.89 194.23ZM251.42 18.70L248.67 6.91L237.76 3.69L229.62 12.25L232.37 24.04L243.28 27.27ZM232.37 24.04L229.62 12.25L218.71 9.03L210.57 17.60L213.33 29.38L224.23 32.60ZM256.82 -1.66L254.06 -13.45L243.15 -16.68L235.00 -8.11L237.76 3.69L248.67 6.91ZM237.76 3.69L235.00 -8.11L224.10 -11.33L215.95 -2.76L218.71 9.03L229.62 12.25ZM265.08 33.72L262.33 21.93L251.42 18.70L243.28 27.27L246.03 39.05L256.93 42.28ZM246.03 39.05L243.28 27.27L232.37 24.04L224.23 32.60L226.99 44.39L237.89 47.61ZM270.48 13.37L267.73 1.57L256.82 -1.66L248.67 6.91L251.42 18.70L262.33 21.93ZM199.67 14.38L196.91 2.59L186.01 -0.62L177.88 7.95L180.64 19.73L191.54 22.95ZM180.64 19.73L177.88 7.95L166.98 4.74L158.85 13.31L161.62 25.09L172.51 28.30ZM205.05 -5.98L202.29 -17.77L191.38 -20.98L183.25 -12.41L186.01 -0.62L196.91 2.59ZM186.01 -0.62L183.25 -12.41L172.34 -15.62L164.21 -7.04L166.98 4.74L177.88 7.95ZM213.33 29.38L210.57 17.60L199.67 14.38L191.54 22.95L194.30 34.73L205.20 37.95ZM194.30 34.73L191.54 22.95L180.64 19.73L172.51 28.30L175.28 40.08L186.17 43.29ZM218.71 9.03L215.95 -2.76L205.05 -5.98L196.91 2.59L199.67 14.38L210.57 17.60ZM275.89 -7.00L273.13 -18.79L262.22 -22.02L254.06 -13.45L256.82 -1.66L267.73 1.57ZM273.34 69.09L270.59 57.30L259.69 54.07L251.54 62.63L254.29 74.41L265.19 77.64ZM254.29 74.41L251.54 62.63L240.64 59.40L232.50 67.96L235.26 79.74L246.15 82.96ZM259.69 54.07L256.93 42.28L246.03 39.05L237.89 47.61L240.64 59.40L251.54 62.63ZM267.94 89.42L265.19 77.64L254.29 74.41L246.15 82.96L248.90 94.74L259.80 97.97ZM221.61 64.73L218.85 52.95L207.96 49.73L199.82 58.29L202.58 70.07L213.47 73.29ZM202.58 70.07L199.82 58.29L188.93 55.07L180.80 63.63L183.56 75.41L194.45 78.63ZM226.99 44.39L224.23 32.60L213.33 29.38L205.20 37.95L207.96 49.73L218.85 52.95ZM207.96 49.73L205.20 37.95L194.30 34.73L186.17 43.29L188.93 55.07L199.82 58.29ZM235.26 79.74L232.50 67.96L221.61 64.73L213.47 73.29L216.23 85.07L227.12 88.29ZM216.23 85.07L213.47 73.29L202.58 70.07L194.45 78.63L197.21 90.40L208.10 93.62ZM240.64 59.40L237.89 47.61L226.99 44.39L218.85 52.95L221.61 64.73L232.50 67.96ZM257.49 261.56L254.75 249.81L243.88 246.57L235.76 255.10L238.51 266.85L249.37 270.08ZM238.51 266.85L235.76 255.10L224.90 251.86L216.78 260.39L219.53 272.14L230.39 275.37ZM262.87 241.28L260.13 229.52L249.25 226.29L241.13 234.81L243.88 246.57L254.75 249.81ZM243.88 246.57L241.13 234.81L230.26 231.58L222.15 240.11L224.90 251.86L235.76 255.10ZM276.48 256.28L273.74 244.52L262.87 241.28L254.75 249.81L257.49 261.56L268.36 264.80ZM268.25 221.00L265.51 209.23L254.63 206.00L246.51 214.53L249.25 226.29L260.13 229.52ZM273.64 200.70L270.90 188.94L260.02 185.70L251.89 194.23L254.63 206.00L265.51 209.23Z"/></svg>
