<svg xmlns="http://www.w3.org/2000/svg" width="256" height="256" viewBox="0 0 256 256"><path data-band="2" fill="#f97316" fill-opacity="0.35" d="M159.41 63.05L156.67 51.39L145.91 48.15L137.88 56.58L140.62 68.24L151.38 71.47ZM140.62 68.24L137.88 56.58L127.12 53.35L119.09 61.77L121.83 73.43L132.59 76.66ZM164.71 42.96L161.97 31.30L151.20 28.06L143.17 36.49L145.91 48.15L156.67 51.39ZM145.91 48.15L143.17 36.49L132.40 33.26L124.38 41.69L127.12 53.35L137.88 56.58ZM154.11 83.13L151.38 71.47L140.62 68.24L132.59 76.66L135.33 88.31L146.09 91.55ZM178.21 57.86L175.47 46.20L164.71 42.96L156.67 51.39L159.41 63.05L170.17 66.29ZM108.33 58.54L105.59 46.89L94.83 43.66L86.82 52.09L89.56 63.74L100.32 66.97ZM89.56 63.74L86.82 52.09L76.06 48.87L68.05 57.30L70.79 68.95L81.55 72.17ZM113.61 38.46L110.87 26.80L100.11 23.58L92.09 32.01L94.83 43.66L105.59 46.89ZM94.83 43.66L92.09 32.01L81.33 28.79L73.31 37.22L76.06 48.87L86.82 52.09ZM121.83 73.43L119.09 61.77L108.33 58.54L100.32 66.97L103.06 78.62L113.82 81.85ZM103.06 78.62L100.32 66.97L89.56 63.74L81.55 72.17L84.29 83.82L95.05 87.04ZM127.12 53.35L124.38 41.69L113.61 38.46L105.59 46.89L108.33 58.54L119.09 61.77ZM188.82 17.68L186.09 6.01L175.31 2.77L167.27 11.20L170.01 22.87L180.78 26.11ZM170.01 22.87L167.27 11.20L156.50 7.97L148.46 16.40L151.20 28.06L161.97 31.30ZM194.13 -2.42L191.40 -14.10L180.62 -17.34L172.58 -8.90L175.31 2.77L186.09 6.01ZM175.31 2.77L172.58 -8.90L161.80 -12.14L153.76 -3.70L156.50 7.97L167.27 11.20ZM183.51 37.78L180.78 26.11L170.01 22.87L161.97 31.30L164.71 42.96L175.47 46.20ZM207.64 12.49L204.91 0.82L194.13 -2.42L186.09 6.01L188.82 17.68L199.60 20.92ZM137.69 13.17L134.95 1.50L124.18 -1.73L116.15 6.71L118.90 18.37L129.66 21.60ZM118.90 18.37L116.15 6.71L105.39 3.48L97.36 11.92L100.11 23.58L110.87 26.80ZM142.99 -6.93L140.25 -18.60L129.47 -21.83L121.44 -13.39L124.18 -1.73L134.95 1.50ZM124.18 -1.73L121.44 -13.39L110.67 -16.62L102.64 -8.18L105.39 3.48L116.15 6.71ZM151.20 28.06L148.46 16.40L137.69 13.17L129.66 21.60L132.40 33.26L143.17 36.49ZM132.40 33.26L129.66 21.60L118.90 18.37L110.87 26.80L113.61 38.46L124.38 41.69ZM156.50 7.97L153.76 -3.70L142.99 -6.93L134.95 1.50L137.69 13.17L148.46 16.40ZM162.31 118.09L159.58 106.44L148.82 103.20L140.80 111.61L143.54 123.26L154.29 126.50ZM167.61 98.02L164.88 86.36L154.11 83.13L146.09 91.55L148.82 103.20L159.58 106.44ZM130.05 108.38L127.31 96.73L116.55 93.50L108.54 101.92L111.28 113.56L122.03 116.79ZM111.28 113.56L108.54 101.92L97.79 98.69L89.78 107.11L92.52 118.75L103.27 121.98ZM135.33 88.31L132.59 76.66L121.83 73.43L113.82 81.85L116.55 93.50L127.31 96.73ZM116.55 93.50L113.82 81.85L103.06 78.62L95.05 87.04L97.79 98.69L108.54 101.92ZM143.54 123.26L140.80 111.61L130.05 108.38L122.03 116.79L124.77 128.44L135.52 131.67ZM124.77 128.44L122.03 116.79L111.28 113.56L103.27 121.98L106.01 133.62L116.75 136.85ZM148.82 103.20L146.09 91.55L135.33 88.31L127.31 96.73L130.05 108.38L140.80 111.61ZM212.96 -7.61L210.23 -19.29L199.45 -22.53L191.40 -14.10L194.13 -2.42L204.91 0.82ZM3.26 -5.36L0.50 -17.01L-10.26 -20.22L-18.26 -11.77L-15.50 -0.12L-4.74 3.08ZM28.04 99.43L25.29 87.79L14.54 84.58L6.55 93.01L9.31 104.64L20.05 107.85ZM9.31 104.64L6.55 93.01L-4.19 89.80L-12.18 98.22L-9.42 109.85L1.32 113.06ZM33.29 79.37L30.54 67.72L19.79 64.51L11.79 72.94L14.54 84.58L25.29 87.79ZM14.54 84.58L11.79 72.94L1.05 69.73L-6.94 78.16L-4.19 89.80L6.55 93.01ZM41.53 114.28L38.78 102.64L28.04 99.43L20.05 107.85L22.80 119.49L33.54 122.70ZM22.80 119.49L20.05 107.85L9.31 104.64L1.32 113.06L4.07 124.69L14.81 127.91ZM46.78 94.22L44.03 82.58L33.29 79.37L25.29 87.79L28.04 99.43L38.78 102.64ZM57.29 54.08L54.54 42.43L43.79 39.22L35.78 47.65L38.54 59.29L49.29 62.51ZM38.54 59.29L35.78 47.65L25.03 44.44L17.03 52.87L19.79 64.51L30.54 67.72ZM62.55 34.00L59.80 22.35L49.04 19.13L41.04 27.57L43.79 39.22L54.54 42.43ZM43.79 39.22L41.04 27.57L30.28 24.35L22.28 32.79L25.03 44.44L35.78 47.65ZM70.79 68.95L68.05 57.30L57.29 54.08L49.29 62.51L52.04 74.15L62.79 77.37ZM52.04 74.15L49.29 62.51L38.54 59.29L30.54 67.72L33.29 79.37L44.03 82.58ZM76.06 48.87L73.31 37.22L62.55 34.00L54.54 42.43L57.29 54.08L68.05 57.30ZM6.28 49.66L3.53 38.02L-7.22 34.81L-15.21 43.25L-12.46 54.89L-1.71 58.09ZM11.52 29.58L8.77 17.93L-1.99 14.73L-9.98 23.17L-7.22 34.81L3.53 38.02ZM19.79 64.51L17.03 52.87L6.28 49.66L-1.71 58.09L1.05 69.73L11.79 72.94ZM1.05 69.73L-1.71 58.09L-12.46 54.89L-20.44 63.32L-17.69 74.96L-6.94 78.16ZM25.03 44.44L22.28 32.79L11.52 29.58L3.53 38.02L6.28 49.66L17.03 52.87ZM49.77 149.19L47.03 137.55L36.29 134.33L28.30 142.75L31.04 154.38L41.78 157.60ZM31.04 154.38L28.30 142.75L17.56 139.54L9.57 147.95L12.32 159.58L23.06 162.79ZM55.02 129.14L52.28 117.50L41.53 114.28L33.54 122.70L36.29 134.33L47.03 137.55ZM36.29 134.33L33.54 122.70L22.80 119.49L14.81 127.91L17.56 139.54L28.30 142.75ZM63.26 164.04L60.51 152.41L49.77 149.19L41.78 157.60L44.53 169.23L55.26 172.45ZM44.53 169.23L41.78 157.60L31.04 154.38L23.06 162.79L25.81 174.42L36.54 177.64ZM68.51 143.99L65.77 132.36L55.02 129.14L47.03 137.55L49.77 149.19L60.51 152.41ZM4.07 124.69L1.32 113.06L-9.42 109.85L-17.40 118.28L-14.65 129.91L-3.91 133.11ZM12.32 159.58L9.57 147.95L-1.16 144.74L-9.14 153.16L-6.39 164.78L4.34 167.99ZM17.56 139.54L14.81 127.91L4.07 124.69L-3.91 133.11L-1.16 144.74L9.57 147.95ZM79.03 103.88L76.28 92.24L65.53 89.02L57.53 97.44L60.28 109.08L71.02 112.30ZM60.28 109.08L57.53 97.44L46.78 94.22L38.78 102.64L41.53 114.28L52.28 117.50ZM84.29 83.82L81.55 72.17L70.79 68.95L62.79 77.37L65.53 89.02L76.28 92.24ZM65.53 89.02L62.79 77.37L52.04 74.15L44.03 82.58L46.78 94.22L57.53 97.44ZM92.52 118.75L89.78 107.11L79.03 103.88L71.02 112.30L73.77 123.94L84.51 127.17ZM73.77 123.94L71.02 112.30L60.28 109.08L52.28 117.50L55.02 129.14L65.77 132.36ZM97.79 98.69L95.05 87.04L84.29 83.82L76.28 92.24L79.03 103.88L89.78 107.11ZM86.60 8.70L83.85 -2.96L73.08 -6.18L65.07 2.26L67.82 13.91L78.58 17.13ZM67.82 13.91L65.07 2.26L54.30 -0.96L46.29 7.48L49.04 19.13L59.80 22.35ZM73.08 -6.18L70.34 -17.84L59.57 -21.06L51.55 -12.62L54.30 -0.96L65.07 2.26ZM100.11 23.58L97.36 11.92L86.60 8.70L78.58 17.13L81.33 28.79L92.09 32.01ZM81.33 28.79L78.58 17.13L67.82 13.91L59.80 22.35L62.55 34.00L73.31 37.22ZM105.39 3.48L102.64 -8.18L91.87 -11.40L83.85 -2.96L86.60 8.70L97.36 11.92ZM35.53 4.27L32.78 -7.39L22.02 -10.60L14.01 -2.15L16.77 9.49L27.53 12.70ZM16.77 9.49L14.01 -2.15L3.26 -5.36L-4.74 3.08L-1.99 14.73L8.77 17.93ZM49.04 19.13L46.29 7.48L35.53 4.27L27.53 12.70L30.28 24.35L41.04 27.57ZM30.28 24.35L27.53 12.70L16.77 9.49L8.77 17.93L11.52 29.58L22.28 32.79ZM54.30 -0.96L51.55 -12.62L40.79 -15.83L32.78 -7.39L35.53 4.27L46.29 7.48ZM122.42 203.45L119.69 191.82L108.95 188.58L100.95 196.98L103.68 208.62L114.42 211.85ZM103.68 208.62L100.95 196.98L90.21 193.75L82.21 202.16L84.95 213.79L95.69 217.01ZM127.70 183.41L124.96 171.78L114.22 168.54L106.21 176.95L108.95 188.58L119.69 191.82ZM108.95 188.58L106.21 176.95L95.47 173.72L87.47 182.12L90.21 193.75L100.95 196.98ZM135.89 218.32L133.16 206.69L122.42 203.45L114.42 211.85L117.15 223.48L127.89 226.72ZM117.15 223.48L114.42 211.85L103.68 208.62L95.69 217.01L98.42 228.64L109.15 231.87ZM141.17 198.29L138.44 186.65L127.70 183.41L119.69 191.82L122.42 203.45L133.16 206.69ZM71.48 198.93L68.74 187.30L58.00 184.08L50.01 192.48L52.76 204.11L63.49 207.33ZM52.76 204.11L50.01 192.48L39.28 189.26L31.30 197.67L34.04 209.29L44.77 212.51ZM76.73 178.90L73.99 167.26L63.26 164.04L55.26 172.45L58.00 184.08L68.74 187.30ZM58.00 184.08L55.26 172.45L44.53 169.23L36.54 177.64L39.28 189.26L50.01 192.48ZM84.95 213.79L82.21 202.16L71.48 198.93L63.49 207.33L66.23 218.96L76.96 222.18ZM66.23 218.96L63.49 207.33L52.76 204.11L44.77 212.51L47.51 224.13L58.24 227.36ZM90.21 193.75L87.47 182.12L76.73 178.90L68.74 187.30L71.48 198.93L82.21 202.16ZM151.73 158.20L149.00 146.56L138.25 143.32L130.24 151.73L132.97 163.37L143.72 166.61ZM132.97 163.37L130.24 151.73L119.49 148.49L111.48 156.90L114.22 168.54L124.96 171.78ZM157.02 138.15L154.29 126.50L143.54 123.26L135.52 131.67L138.25 143.32L149.00 146.56ZM138.25 143.32L135.52 131.67L124.77 128.44L116.75 136.85L119.49 148.49L130.24 151.73ZM100.74 153.67L98.00 142.03L87.25 138.81L79.25 147.22L81.99 158.85L92.73 162.08ZM81.99 158.85L79.25 147.22L68.51 143.99L60.51 152.41L63.26 164.04L73.99 167.26ZM106.01 133.62L103.27 121.98L92.52 118.75L84.51 127.17L87.25 138.81L98.00 142.03ZM87.25 138.81L84.51 127.17L73.77 123.94L65.77 132.36L68.51 143.99L79.25 147.22ZM114.22 168.54L111.48 156.90L100.74 153.67L92.73 162.08L95.47 173.72L106.21 176.95ZM95.47 173.72L92.73 162.08L81.99 158.85L73.99 167.26L76.73 178.90L87.47 182.12ZM119.49 148.49L116.75 136.85L106.01 133.62L98.00 142.03L100.74 153.67L111.48 156.90ZM125.35 258.36L122.62 246.74L111.89 243.50L103.89 251.89L106.63 263.52L117.35 266.75ZM130.62 238.35L127.89 226.72L117.15 223.48L109.15 231.87L111.89 243.50L122.62 246.74ZM93.16 248.66L90.43 237.04L79.70 233.81L71.71 242.20L74.45 253.82L85.17 257.05ZM74.45 253.82L71.71 242.20L60.98 238.98L53.00 247.37L55.74 258.99L66.46 262.22ZM98.42 228.64L95.69 217.01L84.95 213.79L76.96 222.18L79.70 233.81L90.43 237.04ZM79.70 233.81L76.96 222.18L66.23 218.96L58.24 227.36L60.98 238.98L71.71 242.20ZM106.63 263.52L103.89 251.89L93.16 248.66L85.17 257.05L87.91 268.67L98.63 271.91ZM87.91 268.67L85.17 257.05L74.45 253.82L66.46 262.22L69.20 273.83L79.92 277.06ZM111.89 243.50L109.15 231.87L98.42 228.64L90.43 237.04L93.16 248.66L103.89 251.89ZM4.88 254.51L2.14 242.89L-8.58 239.68L-16.55 248.08L-13.80 259.69L-3.09 262.90ZM10.11 234.50L7.36 222.88L-3.36 219.67L-11.33 228.07L-8.58 239.68L2.14 242.89ZM20.57 194.45L17.82 182.83L7.09 179.62L-0.89 188.02L1.86 199.64L12.59 202.86ZM1.86 199.64L-0.89 188.02L-11.61 184.81L-19.59 193.22L-16.83 204.84L-6.11 208.05ZM25.81 174.42L23.06 162.79L12.32 159.58L4.34 167.99L7.09 179.62L17.82 182.83ZM7.09 179.62L4.34 167.99L-6.39 164.78L-14.36 173.19L-11.61 184.81L-0.89 188.02ZM34.04 209.29L31.30 197.67L20.57 194.45L12.59 202.86L15.34 214.48L26.06 217.69ZM15.34 214.48L12.59 202.86L1.86 199.64L-6.11 208.05L-3.36 219.67L7.36 222.88ZM39.28 189.26L36.54 177.64L25.81 174.42L17.82 182.83L20.57 194.45L31.30 197.67ZM18.35 269.33L15.60 257.72L4.88 254.51L-3.09 262.90L-0.34 274.51L10.38 277.73ZM42.27 244.15L39.53 232.53L28.81 229.31L20.83 237.71L23.57 249.33L34.30 252.55ZM23.57 249.33L20.83 237.71L10.11 234.50L2.14 242.89L4.88 254.51L15.60 257.72ZM47.51 224.13L44.77 212.51L34.04 209.29L26.06 217.69L28.81 229.31L39.53 232.53ZM28.81 229.31L26.06 217.69L15.34 214.48L7.36 222.88L10.11 234.50L20.83 237.71ZM55.74 258.99L53.00 247.37L42.27 244.15L34.30 252.55L37.04 264.16L47.76 267.38ZM37.04 264.16L34.30 252.55L23.57 249.33L15.60 257.72L18.35 269.33L29.06 272.55ZM60.98 238.98L58.24 227.36L47.51 224.13L39.53 232.53L42.27 244.15L53.00 247.37Z"/><path data-band="3" fill="#dc2626" fill-opacity="0.35" d="M272.33 32.00L269.60 20.32L258.82 17.06L250.76 25.49L253.49 37.16L264.27 40.42ZM239.98 22.24L237.26 10.56L226.47 7.31L218.42 15.74L221.15 27.41L231.93 30.66ZM221.15 27.41L218.42 15.74L207.64 12.49L199.60 20.92L202.33 32.59L213.10 35.84ZM245.31 2.13L242.59 -9.55L231.80 -12.80L223.75 -4.37L226.47 7.31L237.26 10.56ZM226.47 7.31L223.75 -4.37L212.96 -7.61L204.91 0.82L207.64 12.49L218.42 15.74ZM253.49 37.16L250.76 25.49L239.98 22.24L231.93 30.66L234.65 42.33L245.43 45.59ZM234.65 42.33L231.93 30.66L221.15 27.41L213.10 35.84L215.83 47.51L226.60 50.76ZM258.82 17.06L256.10 5.38L245.31 2.13L237.26 10.56L239.98 22.24L250.76 25.49ZM264.16 -3.04L261.44 -14.73L250.65 -17.98L242.59 -9.55L245.31 2.13L256.10 5.38ZM261.65 72.18L258.93 60.51L248.15 57.26L240.10 65.68L242.83 77.34L253.60 80.60ZM242.83 77.34L240.10 65.68L229.33 62.42L221.28 70.84L224.01 82.51L234.78 85.76ZM266.99 52.09L264.27 40.42L253.49 37.16L245.43 45.59L248.15 57.26L258.93 60.51ZM248.15 57.26L245.43 45.59L234.65 42.33L226.60 50.76L229.33 62.42L240.10 65.68ZM275.15 87.11L272.43 75.44L261.65 72.18L253.60 80.60L256.32 92.27L267.09 95.52ZM256.32 92.27L253.60 80.60L242.83 77.34L234.78 85.76L237.50 97.42L248.27 100.68ZM172.91 77.95L170.17 66.29L159.41 63.05L151.38 71.47L154.11 83.13L164.88 86.36ZM202.33 32.59L199.60 20.92L188.82 17.68L180.78 26.11L183.51 37.78L194.28 41.02ZM181.10 112.92L178.37 101.26L167.61 98.02L159.58 106.44L162.31 118.09L173.07 121.33ZM186.40 92.85L183.67 81.19L172.91 77.95L164.88 86.36L167.61 98.02L178.37 101.26ZM194.59 127.82L191.86 116.16L181.10 112.92L173.07 121.33L175.80 132.98L186.56 136.22ZM175.80 132.98L173.07 121.33L162.31 118.09L154.29 126.50L157.02 138.15L167.78 141.39ZM199.89 107.75L197.16 96.09L186.40 92.85L178.37 101.26L181.10 112.92L191.86 116.16ZM210.51 67.60L207.79 55.93L197.01 52.68L188.98 61.11L191.71 72.77L202.47 76.01ZM191.71 72.77L188.98 61.11L178.21 57.86L170.17 66.29L172.91 77.95L183.67 81.19ZM215.83 47.51L213.10 35.84L202.33 32.59L194.28 41.02L197.01 52.68L207.79 55.93ZM197.01 52.68L194.28 41.02L183.51 37.78L175.47 46.20L178.21 57.86L188.98 61.11ZM224.01 82.51L221.28 70.84L210.51 67.60L202.47 76.01L205.20 87.68L215.97 90.92ZM205.20 87.68L202.47 76.01L191.71 72.77L183.67 81.19L186.40 92.85L197.16 96.09ZM229.33 62.42L226.60 50.76L215.83 47.51L207.79 55.93L210.51 67.60L221.28 70.84ZM253.82 167.38L251.11 155.73L240.35 152.47L232.31 160.87L235.03 172.53L245.79 175.78ZM235.03 172.53L232.31 160.87L221.55 157.62L213.52 166.02L216.24 177.67L226.99 180.92ZM259.15 147.33L256.43 135.67L245.67 132.41L237.63 140.82L240.35 152.47L251.11 155.73ZM240.35 152.47L237.63 140.82L226.86 137.56L218.83 145.97L221.55 157.62L232.31 160.87ZM267.30 182.30L264.58 170.64L253.82 167.38L245.79 175.78L248.50 187.44L259.26 190.69ZM248.50 187.44L245.79 175.78L235.03 172.53L226.99 180.92L229.72 192.57L240.47 195.83ZM272.63 162.25L269.91 150.59L259.15 147.33L251.11 155.73L253.82 167.38L264.58 170.64ZM202.76 162.77L200.04 151.12L189.28 147.88L181.26 156.28L183.98 167.93L194.74 171.17ZM183.98 167.93L181.26 156.28L170.51 153.04L162.48 161.44L165.21 173.09L175.96 176.33ZM208.07 142.72L205.34 131.06L194.59 127.82L186.56 136.22L189.28 147.88L200.04 151.12ZM189.28 147.88L186.56 136.22L175.80 132.98L167.78 141.39L170.51 153.04L181.26 156.28ZM216.24 177.67L213.52 166.02L202.76 162.77L194.74 171.17L197.46 182.82L208.21 186.07ZM197.46 182.82L194.74 171.17L183.98 167.93L175.96 176.33L178.69 187.97L189.44 191.22ZM221.55 157.62L218.83 145.97L208.07 142.72L200.04 151.12L202.76 162.77L213.52 166.02ZM264.48 127.26L261.76 115.60L250.99 112.34L242.95 120.75L245.67 132.41L256.43 135.67ZM269.81 107.19L267.09 95.52L256.32 92.27L248.27 100.68L250.99 112.34L261.76 115.60ZM232.18 117.50L229.46 105.84L218.69 102.58L210.65 111.00L213.38 122.65L224.14 125.90ZM213.38 122.65L210.65 111.00L199.89 107.75L191.86 116.16L194.59 127.82L205.34 131.06ZM237.50 97.42L234.78 85.76L224.01 82.51L215.97 90.92L218.69 102.58L229.46 105.84ZM218.69 102.58L215.97 90.92L205.20 87.68L197.16 96.09L199.89 107.75L210.65 111.00ZM245.67 132.41L242.95 120.75L232.18 117.50L224.14 125.90L226.86 137.56L237.63 140.82ZM226.86 137.56L224.14 125.90L213.38 122.65L205.34 131.06L208.07 142.72L218.83 145.97ZM250.99 112.34L248.27 100.68L237.50 97.42L229.46 105.84L232.18 117.50L242.95 120.75ZM275.44 217.26L272.73 205.61L261.97 202.35L253.94 210.74L256.65 222.39L267.40 225.65ZM256.65 222.39L253.94 210.74L243.19 207.48L235.15 215.87L237.87 227.52L248.62 230.77ZM261.97 202.35L259.26 190.69L248.50 187.44L240.47 195.83L243.19 207.48L253.94 210.74ZM270.12 237.30L267.40 225.65L256.65 222.39L248.62 230.77L251.34 242.42L262.08 245.68ZM224.40 212.62L221.68 200.97L210.93 197.72L202.91 206.11L205.63 217.75L216.38 221.01ZM205.63 217.75L202.91 206.11L192.16 202.86L184.14 211.26L186.87 222.90L197.61 226.15ZM229.72 192.57L226.99 180.92L216.24 177.67L208.21 186.07L210.93 197.72L221.68 200.97ZM210.93 197.72L208.21 186.07L197.46 182.82L189.44 191.22L192.16 202.86L202.91 206.11ZM237.87 227.52L235.15 215.87L224.40 212.62L216.38 221.01L219.10 232.65L229.84 235.90ZM219.10 232.65L216.38 221.01L205.63 217.75L197.61 226.15L200.33 237.79L211.07 241.04ZM243.19 207.48L240.47 195.83L229.72 192.57L221.68 200.97L224.40 212.62L235.15 215.87ZM165.21 173.09L162.48 161.44L151.73 158.20L143.72 166.61L146.45 178.25L157.20 181.49ZM146.45 178.25L143.72 166.61L132.97 163.37L124.96 171.78L127.70 183.41L138.44 186.65ZM170.51 153.04L167.78 141.39L157.02 138.15L149.00 146.56L151.73 158.20L162.48 161.44ZM144.08 253.21L141.35 241.58L130.62 238.35L122.62 246.74L125.35 258.36L136.08 261.60ZM149.36 233.19L146.63 221.56L135.89 218.32L127.89 226.72L130.62 238.35L141.35 241.58ZM157.54 268.09L154.82 256.46L144.08 253.21L136.08 261.60L138.81 273.23L149.54 276.47ZM162.83 248.07L160.10 236.43L149.36 233.19L141.35 241.58L144.08 253.21L154.82 256.46ZM173.40 208.01L170.67 196.37L159.93 193.13L151.91 201.53L154.64 213.16L165.38 216.41ZM154.64 213.16L151.91 201.53L141.17 198.29L133.16 206.69L135.89 218.32L146.63 221.56ZM178.69 187.97L175.96 176.33L165.21 173.09L157.20 181.49L159.93 193.13L170.67 196.37ZM159.93 193.13L157.20 181.49L146.45 178.25L138.44 186.65L141.17 198.29L151.91 201.53ZM186.87 222.90L184.14 211.26L173.40 208.01L165.38 216.41L168.11 228.04L178.85 231.29ZM168.11 228.04L165.38 216.41L154.64 213.16L146.63 221.56L149.36 233.19L160.10 236.43ZM192.16 202.86L189.44 191.22L178.69 187.97L170.67 196.37L173.40 208.01L184.14 211.26ZM246.02 262.44L243.31 250.80L232.56 247.55L224.54 255.93L227.25 267.57L237.99 270.83ZM227.25 267.57L224.54 255.93L213.79 252.68L205.77 261.06L208.49 272.70L219.23 275.95ZM251.34 242.42L248.62 230.77L237.87 227.52L229.84 235.90L232.56 247.55L243.31 250.80ZM232.56 247.55L229.84 235.90L219.10 232.65L211.07 241.04L213.79 252.68L224.54 255.93ZM264.80 257.32L262.08 245.68L251.34 242.42L243.31 250.80L246.02 262.44L256.76 265.71ZM195.04 257.81L192.31 246.17L181.57 242.92L173.56 251.31L176.29 262.95L187.02 266.19ZM176.29 262.95L173.56 251.31L162.83 248.07L154.82 256.46L157.54 268.09L168.28 271.33ZM200.33 237.79L197.61 226.15L186.87 222.90L178.85 231.29L181.57 242.92L192.31 246.17ZM181.57 242.92L178.85 231.29L168.11 228.04L160.10 236.43L162.83 248.07L173.56 251.31ZM213.79 252.68L211.07 241.04L200.33 237.79L192.31 246.17L195.04 257.81L205.77 261.06Z"/></svg>
