<svg xmlns="http://www.w3.org/2000/svg" width="256" height="256" viewBox="0 0 256 256"><path data-band="2" fill="#f97316" fill-opacity="0.35" d="M12.50 110.60L9.77 99.04L-0.90 95.82L-8.82 104.15L-6.09 115.70L4.57 118.93ZM17.70 90.71L14.97 79.15L4.30 75.92L-3.63 84.26L-0.90 95.82L9.77 99.04ZM7.30 130.49L4.57 118.93L-6.09 115.70L-14.01 124.03L-11.28 135.58L-0.62 138.81ZM41.51 65.71L38.78 54.14L28.11 50.91L20.17 59.25L22.90 70.82L33.57 74.05ZM22.90 70.82L20.17 59.25L9.50 56.02L1.57 64.36L4.30 75.92L14.97 79.15ZM28.11 50.91L25.38 39.34L14.70 36.11L6.77 44.46L9.50 56.02L20.17 59.25ZM36.30 85.61L33.57 74.05L22.90 70.82L14.97 79.15L17.70 90.71L28.36 93.94ZM4.30 75.92L1.57 64.36L-9.10 61.14L-17.03 69.48L-14.29 81.03L-3.63 84.26ZM9.50 56.02L6.77 44.46L-3.90 41.23L-11.84 49.57L-9.10 61.14L1.57 64.36ZM15.49 165.14L12.76 153.59L2.11 150.36L-5.81 158.68L-3.08 170.23L7.57 173.46ZM20.69 145.27L17.96 133.71L7.30 130.49L-0.62 138.81L2.11 150.36L12.76 153.59ZM2.11 150.36L-0.62 138.81L-11.28 135.58L-19.20 143.91L-16.46 155.46L-5.81 158.68ZM51.94 25.89L49.21 14.31L38.53 11.08L30.59 19.43L33.32 31.00L43.99 34.23ZM57.16 5.97L54.43 -5.61L43.75 -8.84L35.80 -0.49L38.53 11.08L49.21 14.31ZM19.91 16.20L17.18 4.63L6.50 1.40L-1.44 9.75L1.30 21.32L11.97 24.55ZM1.30 21.32L-1.44 9.75L-12.11 6.53L-20.05 14.88L-17.31 26.44L-6.64 29.67ZM25.12 -3.72L22.38 -15.30L11.70 -18.52L3.76 -10.17L6.50 1.40L17.18 4.63ZM6.50 1.40L3.76 -10.17L-6.92 -13.39L-14.85 -5.04L-12.11 6.53L-1.44 9.75ZM33.32 31.00L30.59 19.43L19.91 16.20L11.97 24.55L14.70 36.11L25.38 39.34ZM14.70 36.11L11.97 24.55L1.30 21.32L-6.64 29.67L-3.90 41.23L6.77 44.46ZM38.53 11.08L35.80 -0.49L25.12 -3.72L17.18 4.63L19.91 16.20L30.59 19.43Z"/><path data-band="3" fill="#dc2626" fill-opacity="0.35" d="M5.11 204.86L2.38 193.32L-8.27 190.09L-16.18 198.41L-13.45 209.95L-2.81 213.18ZM10.30 185.01L7.57 173.46L-3.08 170.23L-11.00 178.55L-8.27 190.09L2.38 193.32ZM18.48 219.64L15.75 208.10L5.11 204.86L-2.81 213.18L-0.08 224.71L10.56 227.95ZM23.67 199.78L20.95 188.24L10.30 185.01L2.38 193.32L5.11 204.86L15.75 208.10ZM26.65 254.26L23.93 242.72L13.29 239.49L5.37 247.79L8.10 259.33L18.74 262.56ZM8.10 259.33L5.37 247.79L-5.26 244.56L-13.17 252.86L-10.44 264.40L0.19 267.63ZM31.85 234.41L29.12 222.87L18.48 219.64L10.56 227.95L13.29 239.49L23.93 242.72ZM13.29 239.49L10.56 227.95L-0.08 224.71L-7.99 233.02L-5.26 244.56L5.37 247.79ZM40.01 269.03L37.29 257.50L26.65 254.26L18.74 262.56L21.46 274.09L32.10 277.33ZM45.21 249.19L42.49 237.65L31.85 234.41L23.93 242.72L26.65 254.26L37.29 257.50ZM25.89 125.39L23.16 113.83L12.50 110.60L4.57 118.93L7.30 130.49L17.96 133.71ZM31.09 105.50L28.36 93.94L17.70 90.71L9.77 99.04L12.50 110.60L23.16 113.83ZM46.72 45.80L43.99 34.23L33.32 31.00L25.38 39.34L28.11 50.91L38.78 54.14ZM54.91 80.51L52.18 68.94L41.51 65.71L33.57 74.05L36.30 85.61L46.96 88.84ZM60.12 60.61L57.40 49.04L46.72 45.80L38.78 54.14L41.51 65.71L52.18 68.94ZM34.07 160.05L31.34 148.50L20.69 145.27L12.76 153.59L15.49 165.14L26.14 168.37ZM39.27 140.18L36.55 128.62L25.89 125.39L17.96 133.71L20.69 145.27L31.34 148.50ZM47.45 174.84L44.72 163.29L34.07 160.05L26.14 168.37L28.87 179.92L39.52 183.16ZM28.87 179.92L26.14 168.37L15.49 165.14L7.57 173.46L10.30 185.01L20.95 188.24ZM52.66 154.97L49.93 143.42L39.27 140.18L31.34 148.50L34.07 160.05L44.72 163.29ZM63.08 115.21L60.36 103.64L49.69 100.41L41.75 108.74L44.48 120.30L55.14 123.53ZM44.48 120.30L41.75 108.74L31.09 105.50L23.16 113.83L25.89 125.39L36.55 128.62ZM68.30 95.32L65.58 83.75L54.91 80.51L46.96 88.84L49.69 100.41L60.36 103.64ZM49.69 100.41L46.96 88.84L36.30 85.61L28.36 93.94L31.09 105.50L41.75 108.74ZM76.47 130.01L73.75 118.45L63.08 115.21L55.14 123.53L57.87 135.09L68.53 138.33ZM57.87 135.09L55.14 123.53L44.48 120.30L36.55 128.62L39.27 140.18L49.93 143.42ZM81.69 110.12L78.97 98.56L68.30 95.32L60.36 103.64L63.08 115.21L73.75 118.45ZM214.62 -0.01L211.91 -11.61L201.21 -14.87L193.22 -6.53L195.93 5.06L206.63 8.32ZM195.93 5.06L193.22 -6.53L182.52 -9.79L174.54 -1.45L177.25 10.14L187.95 13.40ZM163.84 -4.70L161.13 -16.30L150.43 -19.55L142.45 -11.20L145.17 0.39L155.87 3.64ZM145.17 0.39L142.45 -11.20L131.76 -14.45L123.79 -6.11L126.51 5.48L137.20 8.73ZM70.57 20.78L67.84 9.20L57.16 5.97L49.21 14.31L51.94 25.89L62.62 29.12ZM75.80 0.86L73.07 -10.72L62.39 -13.96L54.43 -5.61L57.16 5.97L67.84 9.20ZM83.98 35.60L81.25 24.02L70.57 20.78L62.62 29.12L65.35 40.70L76.02 43.94ZM65.35 40.70L62.62 29.12L51.94 25.89L43.99 34.23L46.72 45.80L57.40 49.04ZM89.21 15.68L86.48 4.10L75.80 0.86L67.84 9.20L70.57 20.78L81.25 24.02ZM94.44 -4.25L91.72 -15.83L81.03 -19.07L73.07 -10.72L75.80 0.86L86.48 4.10ZM236.51 178.86L233.81 167.28L223.14 164.01L215.17 172.32L217.87 183.89L228.54 187.16ZM217.87 183.89L215.17 172.32L204.49 169.05L196.53 177.36L199.23 188.93L209.90 192.19ZM241.79 158.97L239.09 147.39L228.41 144.12L220.44 152.43L223.14 164.01L233.81 167.28ZM223.14 164.01L220.44 152.43L209.76 149.17L201.79 157.48L204.49 169.05L215.17 172.32ZM249.89 193.71L247.19 182.13L236.51 178.86L228.54 187.16L231.24 198.73L241.91 202.01ZM231.24 198.73L228.54 187.16L217.87 183.89L209.90 192.19L212.60 203.76L223.27 207.03ZM255.17 173.83L252.47 162.25L241.79 158.97L233.81 167.28L236.51 178.86L247.19 182.13ZM185.86 174.09L183.15 162.52L172.48 159.26L164.52 167.57L167.23 179.14L177.89 182.40ZM167.23 179.14L164.52 167.57L153.85 164.32L145.89 172.63L148.60 184.19L159.27 187.45ZM191.12 154.21L188.41 142.64L177.73 139.38L169.77 147.69L172.48 159.26L183.15 162.52ZM172.48 159.26L169.77 147.69L159.10 144.43L151.14 152.75L153.85 164.32L164.52 167.57ZM199.23 188.93L196.53 177.36L185.86 174.09L177.89 182.40L180.60 193.97L191.27 197.23ZM180.60 193.97L177.89 182.40L167.23 179.14L159.27 187.45L161.98 199.01L172.64 202.27ZM204.49 169.05L201.79 157.48L191.12 154.21L183.15 162.52L185.86 174.09L196.53 177.36ZM265.74 134.05L263.04 122.46L252.36 119.19L244.37 127.50L247.07 139.08L257.76 142.36ZM247.07 139.08L244.37 127.50L233.69 124.23L225.71 132.54L228.41 144.12L239.09 147.39ZM271.03 114.15L268.34 102.55L257.65 99.28L249.66 107.60L252.36 119.19L263.04 122.46ZM252.36 119.19L249.66 107.60L238.97 104.33L230.99 112.64L233.69 124.23L244.37 127.50ZM260.45 153.94L257.76 142.36L247.07 139.08L239.09 147.39L241.79 158.97L252.47 162.25ZM215.03 129.28L212.33 117.69L201.64 114.43L193.67 122.75L196.38 134.32L207.06 137.59ZM196.38 134.32L193.67 122.75L182.99 119.49L175.02 127.80L177.73 139.38L188.41 142.64ZM220.30 109.38L217.60 97.79L206.91 94.53L198.94 102.85L201.64 114.43L212.33 117.69ZM201.64 114.43L198.94 102.85L188.26 99.59L180.28 107.91L182.99 119.49L193.67 122.75ZM228.41 144.12L225.71 132.54L215.03 129.28L207.06 137.59L209.76 149.17L220.44 152.43ZM209.76 149.17L207.06 137.59L196.38 134.32L188.41 142.64L191.12 154.21L201.79 157.48ZM233.69 124.23L230.99 112.64L220.30 109.38L212.33 117.69L215.03 129.28L225.71 132.54ZM257.97 228.42L255.28 216.85L244.61 213.58L236.64 221.87L239.33 233.44L250.00 236.72ZM239.33 233.44L236.64 221.87L225.97 218.60L218.00 226.90L220.70 238.47L231.37 241.74ZM263.26 208.56L260.56 196.98L249.89 193.71L241.91 202.01L244.61 213.58L255.28 216.85ZM244.61 213.58L241.91 202.01L231.24 198.73L223.27 207.03L225.97 218.60L236.64 221.87ZM271.34 243.27L268.64 231.70L257.97 228.42L250.00 236.72L252.70 248.29L263.36 251.56ZM252.70 248.29L250.00 236.72L239.33 233.44L231.37 241.74L234.06 253.30L244.73 256.58ZM276.62 223.41L273.93 211.83L263.26 208.56L255.28 216.85L257.97 228.42L268.64 231.70ZM207.34 223.63L204.64 212.06L193.97 208.80L186.01 217.10L188.71 228.66L199.38 231.93ZM188.71 228.66L186.01 217.10L175.35 213.84L167.39 222.14L170.10 233.70L180.76 236.96ZM212.60 203.76L209.90 192.19L199.23 188.93L191.27 197.23L193.97 208.80L204.64 212.06ZM193.97 208.80L191.27 197.23L180.60 193.97L172.64 202.27L175.35 213.84L186.01 217.10ZM220.70 238.47L218.00 226.90L207.34 223.63L199.38 231.93L202.08 243.49L212.74 246.76ZM202.08 243.49L199.38 231.93L188.71 228.66L180.76 236.96L183.46 248.52L194.12 251.78ZM225.97 218.60L223.27 207.03L212.60 203.76L204.64 212.06L207.34 223.63L218.00 226.90ZM268.54 188.68L265.85 177.10L255.17 173.83L247.19 182.13L249.89 193.71L260.56 196.98ZM273.83 168.80L271.13 157.22L260.45 153.94L252.47 162.25L255.17 173.83L265.85 177.10ZM106.16 214.17L103.44 202.61L92.79 199.36L84.85 207.67L87.57 219.22L98.22 222.47ZM87.57 219.22L84.85 207.67L74.20 204.43L66.27 212.74L68.99 224.28L79.64 227.53ZM111.39 194.30L108.67 182.74L98.01 179.50L90.07 187.81L92.79 199.36L103.44 202.61ZM92.79 199.36L90.07 187.81L79.41 184.56L71.48 192.88L74.20 204.43L84.85 207.67ZM119.53 228.97L116.81 217.42L106.16 214.17L98.22 222.47L100.94 234.02L111.59 237.27ZM100.94 234.02L98.22 222.47L87.57 219.22L79.64 227.53L82.35 239.08L93.00 242.32ZM124.76 209.11L122.04 197.55L111.39 194.30L103.44 202.61L106.16 214.17L116.81 217.42ZM55.62 209.49L52.90 197.95L42.24 194.71L34.32 203.02L37.04 214.56L47.69 217.80ZM37.04 214.56L34.32 203.02L23.67 199.78L15.75 208.10L18.48 219.64L29.12 222.87ZM60.83 189.63L58.10 178.08L47.45 174.84L39.52 183.16L42.24 194.71L52.90 197.95ZM42.24 194.71L39.52 183.16L28.87 179.92L20.95 188.24L23.67 199.78L34.32 203.02ZM68.99 224.28L66.27 212.74L55.62 209.49L47.69 217.80L50.41 229.35L61.06 232.59ZM50.41 229.35L47.69 217.80L37.04 214.56L29.12 222.87L31.85 234.41L42.49 237.65ZM74.20 204.43L71.48 192.88L60.83 189.63L52.90 197.95L55.62 209.49L66.27 212.74ZM135.23 169.37L132.52 157.81L121.85 154.56L113.90 162.87L116.62 174.43L127.28 177.68ZM116.62 174.43L113.90 162.87L103.24 159.62L95.29 167.94L98.01 179.50L108.67 182.74ZM140.47 149.49L137.76 137.93L127.09 134.67L119.13 142.99L121.85 154.56L132.52 157.81ZM121.85 154.56L119.13 142.99L108.47 139.74L100.52 148.06L103.24 159.62L113.90 162.87ZM148.60 184.19L145.89 172.63L135.23 169.37L127.28 177.68L129.99 189.25L140.65 192.50ZM129.99 189.25L127.28 177.68L116.62 174.43L108.67 182.74L111.39 194.30L122.04 197.55ZM153.85 164.32L151.14 152.75L140.47 149.49L132.52 157.81L135.23 169.37L145.89 172.63ZM84.63 164.69L81.91 153.13L71.25 149.89L63.31 158.21L66.04 169.77L76.69 173.01ZM66.04 169.77L63.31 158.21L52.66 154.97L44.72 163.29L47.45 174.84L58.10 178.08ZM89.86 144.82L87.14 133.25L76.47 130.01L68.53 138.33L71.25 149.89L81.91 153.13ZM71.25 149.89L68.53 138.33L57.87 135.09L49.93 143.42L52.66 154.97L63.31 158.21ZM98.01 179.50L95.29 167.94L84.63 164.69L76.69 173.01L79.41 184.56L90.07 187.81ZM79.41 184.56L76.69 173.01L66.04 169.77L58.10 178.08L60.83 189.63L71.48 192.88ZM103.24 159.62L100.52 148.06L89.86 144.82L81.91 153.13L84.63 164.69L95.29 167.94ZM127.66 263.62L124.95 252.07L114.30 248.82L106.36 257.12L109.08 268.67L119.72 271.92ZM109.08 268.67L106.36 257.12L95.72 253.87L87.79 262.17L90.50 273.71L101.14 276.96ZM132.89 243.78L130.18 232.22L119.53 228.97L111.59 237.27L114.30 248.82L124.95 252.07ZM114.30 248.82L111.59 237.27L100.94 234.02L93.00 242.32L95.72 253.87L106.36 257.12ZM146.25 258.59L143.54 247.03L132.89 243.78L124.95 252.07L127.66 263.62L138.31 266.88ZM77.14 258.92L74.42 247.38L63.78 244.13L55.85 252.43L58.57 263.98L69.21 267.22ZM58.57 263.98L55.85 252.43L45.21 249.19L37.29 257.50L40.01 269.03L50.65 272.27ZM82.35 239.08L79.64 227.53L68.99 224.28L61.06 232.59L63.78 244.13L74.42 247.38ZM63.78 244.13L61.06 232.59L50.41 229.35L42.49 237.65L45.21 249.19L55.85 252.43ZM95.72 253.87L93.00 242.32L82.35 239.08L74.42 247.38L77.14 258.92L87.79 262.17ZM156.73 218.88L154.02 207.32L143.36 204.06L135.42 212.36L138.13 223.92L148.78 227.18ZM138.13 223.92L135.42 212.36L124.76 209.11L116.81 217.42L119.53 228.97L130.18 232.22ZM161.98 199.01L159.27 187.45L148.60 184.19L140.65 192.50L143.36 204.06L154.02 207.32ZM143.36 204.06L140.65 192.50L129.99 189.25L122.04 197.55L124.76 209.11L135.42 212.36ZM170.10 233.70L167.39 222.14L156.73 218.88L148.78 227.18L151.49 238.74L162.15 241.99ZM151.49 238.74L148.78 227.18L138.13 223.92L130.18 232.22L132.89 243.78L143.54 247.03ZM175.35 213.84L172.64 202.27L161.98 199.01L154.02 207.32L156.73 218.88L167.39 222.14ZM273.53 39.53L270.83 27.92L260.13 24.65L252.13 32.98L254.83 44.58L265.53 47.85ZM254.83 44.58L252.13 32.98L241.43 29.71L233.44 38.04L236.15 49.64L246.84 52.91ZM260.13 24.65L257.43 13.05L246.72 9.78L238.73 18.11L241.43 29.71L252.13 32.98ZM268.23 59.45L265.53 47.85L254.83 44.58L246.84 52.91L249.54 64.50L260.24 67.77ZM222.74 34.78L220.04 23.18L209.34 19.92L201.35 28.25L204.06 39.85L214.76 43.11ZM204.06 39.85L201.35 28.25L190.66 24.99L182.68 33.33L185.39 44.92L196.08 48.18ZM228.03 14.85L225.32 3.25L214.62 -0.01L206.63 8.32L209.34 19.92L220.04 23.18ZM209.34 19.92L206.63 8.32L195.93 5.06L187.95 13.40L190.66 24.99L201.35 28.25ZM236.15 49.64L233.44 38.04L222.74 34.78L214.76 43.11L217.46 54.70L228.16 57.97ZM217.46 54.70L214.76 43.11L204.06 39.85L196.08 48.18L198.79 59.77L209.48 63.03ZM241.43 29.71L238.73 18.11L228.03 14.85L220.04 23.18L222.74 34.78L233.44 38.04ZM233.31 -5.09L230.61 -16.69L219.90 -19.96L211.91 -11.61L214.62 -0.01L225.32 3.25ZM265.43 4.72L262.72 -6.89L252.02 -10.16L244.02 -1.82L246.72 9.78L257.43 13.05ZM246.72 9.78L244.02 -1.82L233.31 -5.09L225.32 3.25L228.03 14.85L238.73 18.11ZM276.33 94.24L273.63 82.64L262.94 79.37L254.95 87.69L257.65 99.28L268.34 102.55ZM244.26 84.42L241.55 72.83L230.86 69.56L222.88 77.88L225.58 89.47L236.27 92.74ZM225.58 89.47L222.88 77.88L212.19 74.62L204.21 82.94L206.91 94.53L217.60 97.79ZM249.54 64.50L246.84 52.91L236.15 49.64L228.16 57.97L230.86 69.56L241.55 72.83ZM230.86 69.56L228.16 57.97L217.46 54.70L209.48 63.03L212.19 74.62L222.88 77.88ZM257.65 99.28L254.95 87.69L244.26 84.42L236.27 92.74L238.97 104.33L249.66 107.60ZM238.97 104.33L236.27 92.74L225.58 89.47L217.60 97.79L220.30 109.38L230.99 112.64ZM262.94 79.37L260.24 67.77L249.54 64.50L241.55 72.83L244.26 84.42L254.95 87.69ZM142.82 74.98L140.10 63.40L129.42 60.15L121.46 68.48L124.18 80.06L134.86 83.31ZM124.18 80.06L121.46 68.48L110.78 65.24L102.82 73.57L105.54 85.14L116.22 88.39ZM148.07 55.07L145.35 43.49L134.67 40.24L126.70 48.57L129.42 60.15L140.10 63.40ZM129.42 60.15L126.70 48.57L116.02 45.33L108.06 53.66L110.78 65.24L121.46 68.48ZM156.21 89.81L153.50 78.24L142.82 74.98L134.86 83.31L137.57 94.89L148.25 98.14ZM137.57 94.89L134.86 83.31L124.18 80.06L116.22 88.39L118.94 99.96L129.61 103.21ZM161.47 69.91L158.75 58.32L148.07 55.07L140.10 63.40L142.82 74.98L153.50 78.24ZM92.15 70.33L89.42 58.75L78.75 55.51L70.80 63.85L73.52 75.42L84.20 78.66ZM73.52 75.42L70.80 63.85L60.12 60.61L52.18 68.94L54.91 80.51L65.58 83.75ZM97.38 50.42L94.66 38.84L83.98 35.60L76.02 43.94L78.75 55.51L89.42 58.75ZM78.75 55.51L76.02 43.94L65.35 40.70L57.40 49.04L60.12 60.61L70.80 63.85ZM105.54 85.14L102.82 73.57L92.15 70.33L84.20 78.66L86.92 90.23L97.59 93.47ZM86.92 90.23L84.20 78.66L73.52 75.42L65.58 83.75L68.30 95.32L78.97 98.56ZM110.78 65.24L108.06 53.66L97.38 50.42L89.42 58.75L92.15 70.33L102.82 73.57ZM171.99 30.07L169.27 18.48L158.58 15.23L150.61 23.57L153.32 35.15L164.01 38.41ZM153.32 35.15L150.61 23.57L139.92 20.32L131.95 28.65L134.67 40.24L145.35 43.49ZM177.25 10.14L174.54 -1.45L163.84 -4.70L155.87 3.64L158.58 15.23L169.27 18.48ZM158.58 15.23L155.87 3.64L145.17 0.39L137.20 8.73L139.92 20.32L150.61 23.57ZM185.39 44.92L182.68 33.33L171.99 30.07L164.01 38.41L166.73 49.99L177.41 53.25ZM166.73 49.99L164.01 38.41L153.32 35.15L145.35 43.49L148.07 55.07L158.75 58.32ZM190.66 24.99L187.95 13.40L177.25 10.14L169.27 18.48L171.99 30.07L182.68 33.33ZM121.26 25.41L118.54 13.82L107.86 10.58L99.89 18.92L102.62 30.50L113.30 33.75ZM102.62 30.50L99.89 18.92L89.21 15.68L81.25 24.02L83.98 35.60L94.66 38.84ZM126.51 5.48L123.79 -6.11L113.10 -9.35L105.13 -1.01L107.86 10.58L118.54 13.82ZM107.86 10.58L105.13 -1.01L94.44 -4.25L86.48 4.10L89.21 15.68L99.89 18.92ZM134.67 40.24L131.95 28.65L121.26 25.41L113.30 33.75L116.02 45.33L126.70 48.57ZM116.02 45.33L113.30 33.75L102.62 30.50L94.66 38.84L97.38 50.42L108.06 53.66ZM139.92 20.32L137.20 8.73L126.51 5.48L118.54 13.82L121.26 25.41L131.95 28.65ZM164.35 124.55L161.64 112.97L150.96 109.71L143.00 118.04L145.71 129.61L156.39 132.86ZM145.71 129.61L143.00 118.04L132.33 114.78L124.37 123.11L127.09 134.67L137.76 137.93ZM169.60 104.65L166.89 93.07L156.21 89.81L148.25 98.14L150.96 109.71L161.64 112.97ZM150.96 109.71L148.25 98.14L137.57 94.89L129.61 103.21L132.33 114.78L143.00 118.04ZM177.73 139.38L175.02 127.80L164.35 124.55L156.39 132.86L159.10 144.43L169.77 147.69ZM159.10 144.43L156.39 132.86L145.71 129.61L137.76 137.93L140.47 149.49L151.14 152.75ZM182.99 119.49L180.28 107.91L169.60 104.65L161.64 112.97L164.35 124.55L175.02 127.80ZM113.70 119.86L110.98 108.29L100.31 105.04L92.36 113.37L95.08 124.93L105.75 128.18ZM95.08 124.93L92.36 113.37L81.69 110.12L73.75 118.45L76.47 130.01L87.14 133.25ZM118.94 99.96L116.22 88.39L105.54 85.14L97.59 93.47L100.31 105.04L110.98 108.29ZM100.31 105.04L97.59 93.47L86.92 90.23L78.97 98.56L81.69 110.12L92.36 113.37ZM127.09 134.67L124.37 123.11L113.70 119.86L105.75 128.18L108.47 139.74L119.13 142.99ZM108.47 139.74L105.75 128.18L95.08 124.93L87.14 133.25L89.86 144.82L100.52 148.06ZM132.33 114.78L129.61 103.21L118.94 99.96L110.98 108.29L113.70 119.86L124.37 123.11ZM193.52 79.68L190.81 68.09L180.13 64.84L172.15 73.16L174.86 84.75L185.55 88.00ZM174.86 84.75L172.15 73.16L161.47 69.91L153.50 78.24L156.21 89.81L166.89 93.07ZM198.79 59.77L196.08 48.18L185.39 44.92L177.41 53.25L180.13 64.84L190.81 68.09ZM180.13 64.84L177.41 53.25L166.73 49.99L158.75 58.32L161.47 69.91L172.15 73.16ZM206.91 94.53L204.21 82.94L193.52 79.68L185.55 88.00L188.26 99.59L198.94 102.85ZM188.26 99.59L185.55 88.00L174.86 84.75L166.89 93.07L169.60 104.65L180.28 107.91ZM212.19 74.62L209.48 63.03L198.79 59.77L190.81 68.09L193.52 79.68L204.21 82.94ZM266.05 263.13L263.36 251.56L252.70 248.29L244.73 256.58L247.42 268.14L258.08 271.42ZM234.06 253.30L231.37 241.74L220.70 238.47L212.74 246.76L215.44 258.32L226.10 261.59ZM215.44 258.32L212.74 246.76L202.08 243.49L194.12 251.78L196.82 263.34L207.48 266.61ZM247.42 268.14L244.73 256.58L234.06 253.30L226.10 261.59L228.80 273.15L239.46 276.43ZM178.21 268.37L175.51 256.81L164.85 253.55L156.91 261.84L159.61 273.40L170.26 276.66ZM183.46 248.52L180.76 236.96L170.10 233.70L162.15 241.99L164.85 253.55L175.51 256.81ZM164.85 253.55L162.15 241.99L151.49 238.74L143.54 247.03L146.25 258.59L156.91 261.84ZM196.82 263.34L194.12 251.78L183.46 248.52L175.51 256.81L178.21 268.37L188.87 271.63Z"/></svg>
