<svg xmlns="http://www.w3.org/2000/svg" width="256" height="256" viewBox="0 0 256 256"><path data-band="3" fill="#dc2626" fill-opacity="0.35" d="M3.15 225.88L0.44 214.42L-10.12 211.17L-17.97 219.39L-15.26 230.85L-4.70 234.09ZM8.30 206.20L5.59 194.73L-4.97 191.49L-12.83 199.71L-10.12 211.17L0.44 214.42ZM11.27 260.26L8.57 248.80L-1.99 245.55L-9.84 253.76L-7.13 265.22L3.42 268.47ZM16.42 240.59L13.71 229.13L3.15 225.88L-4.70 234.09L-1.99 245.55L8.57 248.80ZM29.68 255.30L26.98 243.84L16.42 240.59L8.57 248.80L11.27 260.26L21.83 263.51ZM256.16 48.10L253.48 36.57L242.86 33.29L234.93 41.53L237.61 53.05L248.23 56.33ZM237.61 53.05L234.93 41.53L224.31 38.24L216.39 46.48L219.07 58.00L229.68 61.28ZM261.42 28.34L258.74 16.81L248.11 13.53L240.18 21.77L242.86 33.29L253.48 36.57ZM242.86 33.29L240.18 21.77L229.56 18.48L221.63 26.72L224.31 38.24L234.93 41.53ZM269.46 62.91L266.78 51.38L256.16 48.10L248.23 56.33L250.91 67.85L261.52 71.14ZM250.91 67.85L248.23 56.33L237.61 53.05L229.68 61.28L232.37 72.79L242.98 76.08ZM274.72 43.15L272.04 31.63L261.42 28.34L253.48 36.57L256.16 48.10L266.78 51.38ZM205.77 43.20L203.08 31.69L192.47 28.41L184.55 36.65L187.24 48.16L197.85 51.44ZM187.24 48.16L184.55 36.65L173.94 33.38L166.02 41.62L168.72 53.13L179.32 56.40ZM211.01 23.45L208.32 11.93L197.70 8.65L189.78 16.89L192.47 28.41L203.08 31.69ZM192.47 28.41L189.78 16.89L179.17 13.62L171.25 21.86L173.94 33.38L184.55 36.65ZM219.07 58.00L216.39 46.48L205.77 43.20L197.85 51.44L200.54 62.95L211.15 66.23ZM200.54 62.95L197.85 51.44L187.24 48.16L179.32 56.40L182.01 67.91L192.62 71.19ZM224.31 38.24L221.63 26.72L211.01 23.45L203.08 31.69L205.77 43.20L216.39 46.48ZM266.68 8.57L263.99 -2.96L253.37 -6.24L245.43 2.00L248.11 13.53L258.74 16.81ZM234.81 -1.28L232.12 -12.81L221.50 -16.09L213.56 -7.84L216.25 3.68L226.87 6.96ZM216.25 3.68L213.56 -7.84L202.94 -11.12L195.01 -2.87L197.70 8.65L208.32 11.93ZM248.11 13.53L245.43 2.00L234.81 -1.28L226.87 6.96L229.56 18.48L240.18 21.77ZM229.56 18.48L226.87 6.96L216.25 3.68L208.32 11.93L211.01 23.45L221.63 26.72ZM253.37 -6.24L250.68 -17.77L240.06 -21.06L232.12 -12.81L234.81 -1.28L245.43 2.00ZM258.95 102.39L256.27 90.88L245.66 87.59L237.73 95.82L240.42 107.33L251.02 110.62ZM264.20 82.65L261.52 71.14L250.91 67.85L242.98 76.08L245.66 87.59L256.27 90.88ZM272.24 117.20L269.56 105.68L258.95 102.39L251.02 110.62L253.70 122.13L264.31 125.42ZM227.13 92.54L224.44 81.02L213.83 77.74L205.91 85.97L208.60 97.48L219.21 100.76ZM208.60 97.48L205.91 85.97L195.31 82.69L187.39 90.92L190.08 102.43L200.68 105.71ZM232.37 72.79L229.68 61.28L219.07 58.00L211.15 66.23L213.83 77.74L224.44 81.02ZM213.83 77.74L211.15 66.23L200.54 62.95L192.62 71.19L195.31 82.69L205.91 85.97ZM240.42 107.33L237.73 95.82L227.13 92.54L219.21 100.76L221.89 112.27L232.49 115.55ZM221.89 112.27L219.21 100.76L208.60 97.48L200.68 105.71L203.37 117.21L213.97 120.49ZM245.66 87.59L242.98 76.08L232.37 72.79L224.44 81.02L227.13 92.54L237.73 95.82ZM46.66 -5.74L43.95 -17.25L33.35 -20.49L25.46 -12.23L28.17 -0.73L38.77 2.51ZM28.17 -0.73L25.46 -12.23L14.86 -15.48L6.98 -7.22L9.69 4.28L20.29 7.52ZM54.79 28.76L52.08 17.26L41.48 14.01L33.60 22.26L36.31 33.76L46.90 37.01ZM36.31 33.76L33.60 22.26L23.00 19.02L15.12 27.27L17.83 38.76L28.43 42.01ZM59.97 9.01L57.27 -2.49L46.66 -5.74L38.77 2.51L41.48 14.01L52.08 17.26ZM41.48 14.01L38.77 2.51L28.17 -0.73L20.29 7.52L23.00 19.02L33.60 22.26ZM68.10 43.51L65.39 32.01L54.79 28.76L46.90 37.01L49.61 48.50L60.21 51.75ZM49.61 48.50L46.90 37.01L36.31 33.76L28.43 42.01L31.14 53.50L41.73 56.75ZM73.28 23.76L70.58 12.26L59.97 9.01L52.08 17.26L54.79 28.76L65.39 32.01ZM4.53 24.03L1.81 12.53L-8.78 9.29L-16.66 17.55L-13.94 29.04L-3.35 32.28ZM9.69 4.28L6.98 -7.22L-3.62 -10.46L-11.50 -2.20L-8.78 9.29L1.81 12.53ZM17.83 38.76L15.12 27.27L4.53 24.03L-3.35 32.28L-0.63 43.77L9.96 47.01ZM23.00 19.02L20.29 7.52L9.69 4.28L1.81 12.53L4.53 24.03L15.12 27.27ZM96.98 -0.99L94.27 -12.49L83.67 -15.75L75.77 -7.50L78.47 4.01L89.08 7.27ZM78.47 4.01L75.77 -7.50L65.16 -10.75L57.27 -2.49L59.97 9.01L70.58 12.26ZM126.49 82.80L123.79 71.30L113.19 68.04L105.29 76.28L107.99 87.77L118.59 91.04ZM107.99 87.77L105.29 76.28L94.70 73.02L86.80 81.26L89.51 92.75L100.10 96.01ZM131.69 63.07L128.99 51.56L118.39 48.30L110.49 56.54L113.19 68.04L123.79 71.30ZM113.19 68.04L110.49 56.54L99.89 53.28L91.99 61.52L94.70 73.02L105.29 76.28ZM139.78 97.57L137.08 86.07L126.49 82.80L118.59 91.04L121.28 102.53L131.88 105.80ZM121.28 102.53L118.59 91.04L107.99 87.77L100.10 96.01L102.80 107.50L113.39 110.77ZM144.99 77.84L142.29 66.33L131.69 63.07L123.79 71.30L126.49 82.80L137.08 86.07ZM76.21 78.00L73.51 66.50L62.91 63.25L55.03 71.49L57.73 82.98L68.32 86.24ZM57.73 82.98L55.03 71.49L44.44 68.24L36.56 76.48L39.26 87.97L49.85 91.22ZM81.40 58.26L78.69 46.76L68.10 43.51L60.21 51.75L62.91 63.25L73.51 66.50ZM62.91 63.25L60.21 51.75L49.61 48.50L41.73 56.75L44.44 68.24L55.03 71.49ZM89.51 92.75L86.80 81.26L76.21 78.00L68.32 86.24L71.03 97.73L81.62 100.98ZM71.03 97.73L68.32 86.24L57.73 82.98L49.85 91.22L52.56 102.71L63.14 105.96ZM94.70 73.02L91.99 61.52L81.40 58.26L73.51 66.50L76.21 78.00L86.80 81.26ZM155.41 38.35L152.72 26.84L142.11 23.57L134.20 31.81L136.90 43.32L147.50 46.59ZM136.90 43.32L134.20 31.81L123.60 28.55L115.69 36.79L118.39 48.30L128.99 51.56ZM160.63 18.59L157.94 7.08L147.33 3.81L139.41 12.06L142.11 23.57L152.72 26.84ZM142.11 23.57L139.41 12.06L128.80 8.80L120.90 17.04L123.60 28.55L134.20 31.81ZM168.72 53.13L166.02 41.62L155.41 38.35L147.50 46.59L150.20 58.10L160.80 61.36ZM150.20 58.10L147.50 46.59L136.90 43.32L128.99 51.56L131.69 63.07L142.29 66.33ZM173.94 33.38L171.25 21.86L160.63 18.59L152.72 26.84L155.41 38.35L166.02 41.62ZM105.09 33.53L102.39 22.03L91.78 18.77L83.88 27.02L86.59 38.52L97.19 41.78ZM86.59 38.52L83.88 27.02L73.28 23.76L65.39 32.01L68.10 43.51L78.69 46.76ZM110.29 13.78L107.59 2.27L96.98 -0.99L89.08 7.27L91.78 18.77L102.39 22.03ZM91.78 18.77L89.08 7.27L78.47 4.01L70.58 12.26L73.28 23.76L83.88 27.02ZM118.39 48.30L115.69 36.79L105.09 33.53L97.19 41.78L99.89 53.28L110.49 56.54ZM99.89 53.28L97.19 41.78L86.59 38.52L78.69 46.76L81.40 58.26L91.99 61.52ZM123.60 28.55L120.90 17.04L110.29 13.78L102.39 22.03L105.09 33.53L115.69 36.79ZM147.86 132.06L145.17 120.56L134.57 117.30L126.68 125.52L129.37 137.02L139.96 140.28ZM129.37 137.02L126.68 125.52L116.09 122.26L108.19 130.49L110.89 141.97L121.48 145.24ZM153.07 112.34L150.38 100.84L139.78 97.57L131.88 105.80L134.57 117.30L145.17 120.56ZM134.57 117.30L131.88 105.80L121.28 102.53L113.39 110.77L116.09 122.26L126.68 125.52ZM161.14 146.83L158.45 135.33L147.86 132.06L139.96 140.28L142.65 151.78L153.24 155.05ZM142.65 151.78L139.96 140.28L129.37 137.02L121.48 145.24L124.17 156.73L134.76 160.00ZM166.35 127.11L163.66 115.61L153.07 112.34L145.17 120.56L147.86 132.06L158.45 135.33ZM97.61 127.22L94.91 115.73L84.32 112.47L76.43 120.70L79.13 132.19L89.72 135.45ZM79.13 132.19L76.43 120.70L65.85 117.45L57.97 125.68L60.67 137.16L71.25 140.42ZM102.80 107.50L100.10 96.01L89.51 92.75L81.62 100.98L84.32 112.47L94.91 115.73ZM84.32 112.47L81.62 100.98L71.03 97.73L63.14 105.96L65.85 117.45L76.43 120.70ZM110.89 141.97L108.19 130.49L97.61 127.22L89.72 135.45L92.42 146.94L103.00 150.20ZM92.42 146.94L89.72 135.45L79.13 132.19L71.25 140.42L73.95 151.90L84.54 155.16ZM116.09 122.26L113.39 110.77L102.80 107.50L94.91 115.73L97.61 127.22L108.19 130.49ZM176.79 87.65L174.10 76.14L163.50 72.87L155.59 81.11L158.28 92.61L168.88 95.88ZM158.28 92.61L155.59 81.11L144.99 77.84L137.08 86.07L139.78 97.57L150.38 100.84ZM182.01 67.91L179.32 56.40L168.72 53.13L160.80 61.36L163.50 72.87L174.10 76.14ZM163.50 72.87L160.80 61.36L150.20 58.10L142.29 66.33L144.99 77.84L155.59 81.11ZM190.08 102.43L187.39 90.92L176.79 87.65L168.88 95.88L171.57 107.38L182.17 110.66ZM171.57 107.38L168.88 95.88L158.28 92.61L150.38 100.84L153.07 112.34L163.66 115.61ZM195.31 82.69L192.62 71.19L182.01 67.91L174.10 76.14L176.79 87.65L187.39 90.92ZM2.35 97.95L-0.36 86.47L-10.95 83.23L-18.81 91.47L-16.10 102.95L-5.52 106.19ZM10.48 132.39L7.77 120.91L-2.81 117.67L-10.67 125.90L-7.96 137.38L2.62 140.62ZM15.64 112.68L12.93 101.20L2.35 97.95L-5.52 106.19L-2.81 117.67L7.77 120.91ZM25.97 73.23L23.26 61.74L12.67 58.50L4.79 66.74L7.51 78.23L18.09 81.47ZM7.51 78.23L4.79 66.74L-5.79 63.50L-13.66 71.75L-10.95 83.23L-0.36 86.47ZM31.14 53.50L28.43 42.01L17.83 38.76L9.96 47.01L12.67 58.50L23.26 61.74ZM12.67 58.50L9.96 47.01L-0.63 43.77L-8.51 52.01L-5.79 63.50L4.79 66.74ZM39.26 87.97L36.56 76.48L25.97 73.23L18.09 81.47L20.80 92.96L31.39 96.21ZM20.80 92.96L18.09 81.47L7.51 78.23L-0.36 86.47L2.35 97.95L12.93 101.20ZM44.44 68.24L41.73 56.75L31.14 53.50L23.26 61.74L25.97 73.23L36.56 76.48ZM18.61 166.82L15.90 155.34L5.33 152.10L-2.53 160.32L0.18 171.79L10.75 175.04ZM0.18 171.79L-2.53 160.32L-13.10 157.08L-20.96 165.31L-18.25 176.78L-7.68 180.02ZM23.77 147.12L21.06 135.64L10.48 132.39L2.62 140.62L5.33 152.10L15.90 155.34ZM5.33 152.10L2.62 140.62L-7.96 137.38L-15.82 145.61L-13.10 157.08L-2.53 160.32ZM31.89 181.54L29.18 170.07L18.61 166.82L10.75 175.04L13.45 186.51L24.02 189.76ZM13.45 186.51L10.75 175.04L0.18 171.79L-7.68 180.02L-4.97 191.49L5.59 194.73ZM37.05 161.84L34.34 150.37L23.77 147.12L15.90 155.34L18.61 166.82L29.18 170.07ZM47.38 122.43L44.68 110.94L34.10 107.69L26.22 115.93L28.93 127.41L39.51 130.66ZM28.93 127.41L26.22 115.93L15.64 112.68L7.77 120.91L10.48 132.39L21.06 135.64ZM52.56 102.71L49.85 91.22L39.26 87.97L31.39 96.21L34.10 107.69L44.68 110.94ZM34.10 107.69L31.39 96.21L20.80 92.96L12.93 101.20L15.64 112.68L26.22 115.93ZM60.67 137.16L57.97 125.68L47.38 122.43L39.51 130.66L42.22 142.14L52.79 145.39ZM42.22 142.14L39.51 130.66L28.93 127.41L21.06 135.64L23.77 147.12L34.34 150.37ZM65.85 117.45L63.14 105.96L52.56 102.71L44.68 110.94L47.38 122.43L57.97 125.68ZM184.39 -6.14L181.70 -17.67L171.08 -20.94L163.16 -12.69L165.86 -1.17L176.47 2.10ZM165.86 -1.17L163.16 -12.69L152.54 -15.95L144.63 -7.70L147.33 3.81L157.94 7.08ZM197.70 8.65L195.01 -2.87L184.39 -6.14L176.47 2.10L179.17 13.62L189.78 16.89ZM179.17 13.62L176.47 2.10L165.86 -1.17L157.94 7.08L160.63 18.59L171.25 21.86ZM115.49 -5.98L112.79 -17.49L102.18 -20.75L94.27 -12.49L96.98 -0.99L107.59 2.27ZM147.33 3.81L144.63 -7.70L134.01 -10.97L126.10 -2.72L128.80 8.80L139.41 12.06ZM128.80 8.80L126.10 -2.72L115.49 -5.98L107.59 2.27L110.29 13.78L120.90 17.04ZM217.06 260.07L214.38 248.59L203.80 245.30L195.90 253.50L198.58 264.98L209.16 268.27ZM198.58 264.98L195.90 253.50L185.32 250.22L177.43 258.42L180.11 269.90L190.68 273.18ZM166.85 255.14L164.17 243.66L153.59 240.39L145.70 248.59L148.39 260.07L158.96 263.34ZM148.39 260.07L145.70 248.59L135.13 245.32L127.25 253.52L129.94 264.99L140.51 268.27ZM180.11 269.90L177.43 258.42L166.85 255.14L158.96 263.34L161.65 274.82L172.22 278.10ZM219.47 186.21L216.79 174.72L206.20 171.43L198.29 179.65L200.97 191.14L211.56 194.42ZM200.97 191.14L198.29 179.65L187.70 176.37L179.80 184.58L182.48 196.07L193.07 199.35ZM224.70 166.50L222.02 155.00L211.42 151.72L203.51 159.94L206.20 171.43L216.79 174.72ZM206.20 171.43L203.51 159.94L192.92 156.66L185.01 164.87L187.70 176.37L198.29 179.65ZM232.74 200.99L230.06 189.50L219.47 186.21L211.56 194.42L214.24 205.92L224.83 209.20ZM214.24 205.92L211.56 194.42L200.97 191.14L193.07 199.35L195.75 210.84L206.34 214.12ZM237.98 181.29L235.30 169.79L224.70 166.50L216.79 174.72L219.47 186.21L230.06 189.50ZM169.21 181.30L166.52 169.81L155.93 166.54L148.04 174.76L150.73 186.24L161.31 189.52ZM150.73 186.24L148.04 174.76L137.45 171.49L129.56 179.70L132.25 191.19L142.83 194.46ZM174.42 161.60L171.73 150.10L161.14 146.83L153.24 155.05L155.93 166.54L166.52 169.81ZM155.93 166.54L153.24 155.05L142.65 151.78L134.76 160.00L137.45 171.49L148.04 174.76ZM182.48 196.07L179.80 184.58L169.21 181.30L161.31 189.52L164.00 201.00L174.58 204.28ZM164.00 201.00L161.31 189.52L150.73 186.24L142.83 194.46L145.52 205.94L156.10 209.22ZM187.70 176.37L185.01 164.87L174.42 161.60L166.52 169.81L169.21 181.30L179.80 184.58ZM248.46 141.86L245.78 130.35L235.18 127.06L227.26 135.28L229.94 146.79L240.54 150.07ZM229.94 146.79L227.26 135.28L216.66 132.00L208.74 140.22L211.42 151.72L222.02 155.00ZM253.70 122.13L251.02 110.62L240.42 107.33L232.49 115.55L235.18 127.06L245.78 130.35ZM235.18 127.06L232.49 115.55L221.89 112.27L213.97 120.49L216.66 132.00L227.26 135.28ZM261.74 156.65L259.06 145.14L248.46 141.86L240.54 150.07L243.22 161.58L253.81 164.86ZM243.22 161.58L240.54 150.07L229.94 146.79L222.02 155.00L224.70 166.50L235.30 169.79ZM266.99 136.93L264.31 125.42L253.70 122.13L245.78 130.35L248.46 141.86L259.06 145.14ZM198.14 136.94L195.46 125.44L184.86 122.16L176.95 130.38L179.64 141.88L190.23 145.16ZM179.64 141.88L176.95 130.38L166.35 127.11L158.45 135.33L161.14 146.83L171.73 150.10ZM203.37 117.21L200.68 105.71L190.08 102.43L182.17 110.66L184.86 122.16L195.46 125.44ZM184.86 122.16L182.17 110.66L171.57 107.38L163.66 115.61L166.35 127.11L176.95 130.38ZM211.42 151.72L208.74 140.22L198.14 136.94L190.23 145.16L192.92 156.66L203.51 159.94ZM192.92 156.66L190.23 145.16L179.64 141.88L171.73 150.10L174.42 161.60L185.01 164.87ZM216.66 132.00L213.97 120.49L203.37 117.21L195.46 125.44L198.14 136.94L208.74 140.22ZM240.78 235.47L238.10 223.98L227.51 220.69L219.60 228.90L222.28 240.39L232.87 243.67ZM222.28 240.39L219.60 228.90L209.02 225.61L201.12 233.82L203.80 245.30L214.38 248.59ZM246.01 215.78L243.33 204.28L232.74 200.99L224.83 209.20L227.51 220.69L238.10 223.98ZM227.51 220.69L224.83 209.20L214.24 205.92L206.34 214.12L209.02 225.61L219.60 228.90ZM254.04 250.26L251.36 238.76L240.78 235.47L232.87 243.67L235.54 255.16L246.13 258.45ZM235.54 255.16L232.87 243.67L222.28 240.39L214.38 248.59L217.06 260.07L227.64 263.36ZM259.28 230.56L256.60 219.07L246.01 215.78L238.10 223.98L240.78 235.47L251.36 238.76ZM190.53 230.53L187.85 219.05L177.27 215.77L169.37 223.98L172.06 235.46L182.64 238.74ZM172.06 235.46L169.37 223.98L158.79 220.70L150.90 228.91L153.59 240.39L164.17 243.66ZM195.75 210.84L193.07 199.35L182.48 196.07L174.58 204.28L177.27 215.77L187.85 219.05ZM177.27 215.77L174.58 204.28L164.00 201.00L156.10 209.22L158.79 220.70L169.37 223.98ZM203.80 245.30L201.12 233.82L190.53 230.53L182.64 238.74L185.32 250.22L195.90 253.50ZM185.32 250.22L182.64 238.74L172.06 235.46L164.17 243.66L166.85 255.14L177.43 258.42ZM209.02 225.61L206.34 214.12L195.75 210.84L187.85 219.05L190.53 230.53L201.12 233.82ZM269.76 191.16L267.09 179.66L256.49 176.37L248.57 184.58L251.25 196.08L261.84 199.37ZM251.25 196.08L248.57 184.58L237.98 181.29L230.06 189.50L232.74 200.99L243.33 204.28ZM275.01 171.45L272.34 159.94L261.74 156.65L253.81 164.86L256.49 176.37L267.09 179.66ZM256.49 176.37L253.81 164.86L243.22 161.58L235.30 169.79L237.98 181.29L248.57 184.58ZM264.52 210.87L261.84 199.37L251.25 196.08L243.33 204.28L246.01 215.78L256.60 219.07ZM90.15 220.77L87.45 209.30L76.88 206.04L69.00 214.25L71.70 225.72L82.27 228.98ZM71.70 225.72L69.00 214.25L58.43 210.99L50.57 219.21L53.27 230.68L63.83 233.93ZM95.33 201.08L92.63 189.61L82.05 186.34L74.18 194.56L76.88 206.04L87.45 209.30ZM76.88 206.04L74.18 194.56L63.60 191.30L55.73 199.52L58.43 210.99L69.00 214.25ZM103.41 235.51L100.72 224.04L90.15 220.77L82.27 228.98L84.97 240.45L95.54 243.72ZM84.97 240.45L82.27 228.98L71.70 225.72L63.83 233.93L66.53 245.40L77.10 248.66ZM108.60 215.83L105.90 204.35L95.33 201.08L87.45 209.30L90.15 220.77L100.72 224.04ZM40.00 215.95L37.30 204.48L26.73 201.23L18.87 209.45L21.57 220.91L32.14 224.17ZM21.57 220.91L18.87 209.45L8.30 206.20L0.44 214.42L3.15 225.88L13.71 229.13ZM45.16 196.27L42.46 184.79L31.89 181.54L24.02 189.76L26.73 201.23L37.30 204.48ZM26.73 201.23L24.02 189.76L13.45 186.51L5.59 194.73L8.30 206.20L18.87 209.45ZM53.27 230.68L50.57 219.21L40.00 215.95L32.14 224.17L34.84 235.63L45.40 238.89ZM34.84 235.63L32.14 224.17L21.57 220.91L13.71 229.13L16.42 240.59L26.98 243.84ZM58.43 210.99L55.73 199.52L45.16 196.27L37.30 204.48L40.00 215.95L50.57 219.21ZM118.98 176.43L116.28 164.95L105.70 161.68L97.81 169.91L100.51 181.39L111.09 184.65ZM100.51 181.39L97.81 169.91L87.23 166.64L79.35 174.86L82.05 186.34L92.63 189.61ZM124.17 156.73L121.48 145.24L110.89 141.97L103.00 150.20L105.70 161.68L116.28 164.95ZM105.70 161.68L103.00 150.20L92.42 146.94L84.54 155.16L87.23 166.64L97.81 169.91ZM132.25 191.19L129.56 179.70L118.98 176.43L111.09 184.65L113.79 196.13L124.36 199.40ZM113.79 196.13L111.09 184.65L100.51 181.39L92.63 189.61L95.33 201.08L105.90 204.35ZM137.45 171.49L134.76 160.00L124.17 156.73L116.28 164.95L118.98 176.43L129.56 179.70ZM68.78 171.61L66.08 160.13L55.50 156.87L47.62 165.09L50.33 176.57L60.90 179.83ZM50.33 176.57L47.62 165.09L37.05 161.84L29.18 170.07L31.89 181.54L42.46 184.79ZM73.95 151.90L71.25 140.42L60.67 137.16L52.79 145.39L55.50 156.87L66.08 160.13ZM55.50 156.87L52.79 145.39L42.22 142.14L34.34 150.37L37.05 161.84L47.62 165.09ZM82.05 186.34L79.35 174.86L68.78 171.61L60.90 179.83L63.60 191.30L74.18 194.56ZM63.60 191.30L60.90 179.83L50.33 176.57L42.46 184.79L45.16 196.27L55.73 199.52ZM87.23 166.64L84.54 155.16L73.95 151.90L66.08 160.13L68.78 171.61L79.35 174.86ZM111.49 269.93L108.80 258.46L98.23 255.19L90.36 263.39L93.05 274.86L103.62 278.13ZM116.68 250.25L113.98 238.78L103.41 235.51L95.54 243.72L98.23 255.19L108.80 258.46ZM98.23 255.19L95.54 243.72L84.97 240.45L77.10 248.66L79.79 260.13L90.36 263.39ZM129.94 264.99L127.25 253.52L116.68 250.25L108.80 258.46L111.49 269.93L122.06 273.20ZM61.37 265.07L58.67 253.61L48.10 250.35L40.24 258.56L42.94 270.02L53.50 273.28ZM42.94 270.02L40.24 258.56L29.68 255.30L21.83 263.51L24.53 274.97L35.09 278.23ZM66.53 245.40L63.83 233.93L53.27 230.68L45.40 238.89L48.10 250.35L58.67 253.61ZM48.10 250.35L45.40 238.89L34.84 235.63L26.98 243.84L29.68 255.30L40.24 258.56ZM79.79 260.13L77.10 248.66L66.53 245.40L58.67 253.61L61.37 265.07L71.93 268.33ZM140.32 225.63L137.63 214.15L127.06 210.88L119.17 219.09L121.86 230.57L132.44 233.84ZM121.86 230.57L119.17 219.09L108.60 215.83L100.72 224.04L103.41 235.51L113.98 238.78ZM145.52 205.94L142.83 194.46L132.25 191.19L124.36 199.40L127.06 210.88L137.63 214.15ZM127.06 210.88L124.36 199.40L113.79 196.13L105.90 204.35L108.60 215.83L119.17 219.09ZM153.59 240.39L150.90 228.91L140.32 225.63L132.44 233.84L135.13 245.32L145.70 248.59ZM135.13 245.32L132.44 233.84L121.86 230.57L113.98 238.78L116.68 250.25L127.25 253.52ZM158.79 220.70L156.10 209.22L145.52 205.94L137.63 214.15L140.32 225.63L150.90 228.91ZM267.29 265.04L264.62 253.55L254.04 250.26L246.13 258.45L248.80 269.94L259.38 273.23ZM248.80 269.94L246.13 258.45L235.54 255.16L227.64 263.36L230.31 274.84L240.89 278.13ZM272.54 245.35L269.87 233.86L259.28 230.56L251.36 238.76L254.04 250.26L264.62 253.55Z"/></svg>
