<svg xmlns="http://www.w3.org/2000/svg" width="256" height="256" viewBox="0 0 256 256"><path data-band="3" fill="#dc2626" fill-opacity="0.35" d="M200.31 262.74L197.65 251.33L187.15 248.04L179.32 256.14L181.98 267.55L192.48 270.84ZM181.98 267.55L179.32 256.14L168.82 252.85L160.99 260.96L163.65 272.36L174.15 275.65ZM150.50 257.67L147.83 246.27L137.33 242.98L129.51 251.09L132.18 262.48L142.67 265.77ZM132.18 262.48L129.51 251.09L119.02 247.80L111.20 255.91L113.87 267.31L124.36 270.59ZM263.00 155.47L260.34 144.04L249.82 140.74L241.96 148.86L244.62 160.29L255.14 163.59ZM268.21 135.92L265.56 124.49L255.03 121.18L247.16 129.31L249.82 140.74L260.34 144.04ZM276.18 170.21L273.52 158.78L263.00 155.47L255.14 163.59L257.79 175.02L268.31 178.33ZM202.69 189.47L200.03 178.05L189.51 174.75L181.67 182.87L184.34 194.29L194.84 197.58ZM184.34 194.29L181.67 182.87L171.16 179.58L163.32 187.70L165.99 199.11L176.49 202.40ZM207.87 169.93L205.21 158.51L194.70 155.21L186.85 163.34L189.51 174.75L200.03 178.05ZM189.51 174.75L186.85 163.34L176.34 160.04L168.49 168.17L171.16 179.58L181.67 182.87ZM215.86 204.18L213.20 192.76L202.69 189.47L194.84 197.58L197.51 209.00L208.01 212.29ZM197.51 209.00L194.84 197.58L184.34 194.29L176.49 202.40L179.16 213.81L189.66 217.11ZM221.05 184.65L218.39 173.23L207.87 169.93L200.03 178.05L202.69 189.47L213.20 192.76ZM152.82 184.41L150.15 173.00L139.64 169.71L131.81 177.84L134.48 189.25L144.98 192.53ZM134.48 189.25L131.81 177.84L121.30 174.55L113.48 182.68L116.15 194.08L126.65 197.37ZM157.98 164.88L155.31 153.46L144.80 150.17L136.97 158.30L139.64 169.71L150.15 173.00ZM139.64 169.71L136.97 158.30L126.46 155.02L118.63 163.15L121.30 174.55L131.81 177.84ZM165.99 199.11L163.32 187.70L152.82 184.41L144.98 192.53L147.65 203.94L158.15 207.23ZM147.65 203.94L144.98 192.53L134.48 189.25L126.65 197.37L129.32 208.77L139.82 212.06ZM171.16 179.58L168.49 168.17L157.98 164.88L150.15 173.00L152.82 184.41L163.32 187.70ZM231.44 145.56L228.78 134.13L218.26 130.83L210.40 138.96L213.06 150.38L223.58 153.68ZM213.06 150.38L210.40 138.96L199.88 135.66L192.03 143.79L194.70 155.21L205.21 158.51ZM236.64 126.01L233.98 114.57L223.45 111.27L215.59 119.41L218.26 130.83L228.78 134.13ZM218.26 130.83L215.59 119.41L205.07 116.11L197.22 124.24L199.88 135.66L210.40 138.96ZM244.62 160.29L241.96 148.86L231.44 145.56L223.58 153.68L226.24 165.11L236.76 168.41ZM226.24 165.11L223.58 153.68L213.06 150.38L205.21 158.51L207.87 169.93L218.39 173.23ZM249.82 140.74L247.16 129.31L236.64 126.01L228.78 134.13L231.44 145.56L241.96 148.86ZM181.51 140.50L178.85 129.08L168.33 125.79L160.49 133.92L163.16 145.33L173.67 148.63ZM163.16 145.33L160.49 133.92L149.97 130.63L142.13 138.76L144.80 150.17L155.31 153.46ZM186.70 120.95L184.03 109.52L173.51 106.23L165.66 114.36L168.33 125.79L178.85 129.08ZM168.33 125.79L165.66 114.36L155.14 111.08L147.30 119.21L149.97 130.63L160.49 133.92ZM194.70 155.21L192.03 143.79L181.51 140.50L173.67 148.63L176.34 160.04L186.85 163.34ZM176.34 160.04L173.67 148.63L163.16 145.33L155.31 153.46L157.98 164.88L168.49 168.17ZM199.88 135.66L197.22 124.24L186.70 120.95L178.85 129.08L181.51 140.50L192.03 143.79ZM223.84 238.42L221.18 227.01L210.67 223.71L202.83 231.82L205.49 243.23L215.99 246.53ZM205.49 243.23L202.83 231.82L192.33 228.52L184.49 236.63L187.15 248.04L197.65 251.33ZM229.03 218.90L226.37 207.48L215.86 204.18L208.01 212.29L210.67 223.71L221.18 227.01ZM210.67 223.71L208.01 212.29L197.51 209.00L189.66 217.11L192.33 228.52L202.83 231.82ZM237.00 253.13L234.34 241.72L223.84 238.42L215.99 246.53L218.65 257.94L229.15 261.24ZM218.65 257.94L215.99 246.53L205.49 243.23L197.65 251.33L200.31 262.74L210.81 266.04ZM242.19 233.62L239.54 222.20L229.03 218.90L221.18 227.01L223.84 238.42L234.34 241.72ZM173.99 233.34L171.32 221.93L160.82 218.64L152.99 226.75L155.66 238.15L166.15 241.45ZM155.66 238.15L152.99 226.75L142.49 223.46L134.66 231.58L137.33 242.98L147.83 246.27ZM179.16 213.81L176.49 202.40L165.99 199.11L158.15 207.23L160.82 218.64L171.32 221.93ZM160.82 218.64L158.15 207.23L147.65 203.94L139.82 212.06L142.49 223.46L152.99 226.75ZM187.15 248.04L184.49 236.63L173.99 233.34L166.15 241.45L168.82 252.85L179.32 256.14ZM168.82 252.85L166.15 241.45L155.66 238.15L147.83 246.27L150.50 257.67L160.99 260.96ZM192.33 228.52L189.66 217.11L179.16 213.81L171.32 221.93L173.99 233.34L184.49 236.63ZM252.59 194.56L249.93 183.14L239.42 179.83L231.56 187.95L234.22 199.37L244.73 202.67ZM234.22 199.37L231.56 187.95L221.05 184.65L213.20 192.76L215.86 204.18L226.37 207.48ZM257.79 175.02L255.14 163.59L244.62 160.29L236.76 168.41L239.42 179.83L249.93 183.14ZM239.42 179.83L236.76 168.41L226.24 165.11L218.39 173.23L221.05 184.65L231.56 187.95ZM265.76 209.29L263.11 197.87L252.59 194.56L244.73 202.67L247.39 214.09L257.90 217.40ZM247.39 214.09L244.73 202.67L234.22 199.37L226.37 207.48L229.03 218.90L239.54 222.20ZM270.97 189.75L268.31 178.33L257.79 175.02L249.93 183.14L252.59 194.56L263.11 197.87ZM239.06 52.56L236.40 41.12L225.86 37.82L217.99 45.96L220.66 57.40L231.19 60.70ZM220.66 57.40L217.99 45.96L207.46 42.67L199.59 50.81L202.26 62.25L212.79 65.54ZM244.27 32.97L241.61 21.53L231.07 18.23L223.19 26.38L225.86 37.82L236.40 41.12ZM225.86 37.82L223.19 26.38L212.66 23.08L204.79 31.23L207.46 42.67L217.99 45.96ZM252.26 67.30L249.60 55.86L239.06 52.56L231.19 60.70L233.85 72.14L244.39 75.44ZM233.85 72.14L231.19 60.70L220.66 57.40L212.79 65.54L215.46 76.98L225.99 80.28ZM257.47 47.72L254.81 36.28L244.27 32.97L236.40 41.12L239.06 52.56L249.60 55.86ZM189.06 47.52L186.39 36.08L175.86 32.79L168.00 40.94L170.68 52.38L181.20 55.66ZM170.68 52.38L168.00 40.94L157.47 37.66L149.62 45.80L152.30 57.23L162.82 60.52ZM194.25 27.94L191.58 16.50L181.05 13.21L173.19 21.36L175.86 32.79L186.39 36.08ZM175.86 32.79L173.19 21.36L162.66 18.07L154.80 26.22L157.47 37.66L168.00 40.94ZM202.26 62.25L199.59 50.81L189.06 47.52L181.20 55.66L183.87 67.10L194.40 70.39ZM183.87 67.10L181.20 55.66L170.68 52.38L162.82 60.52L165.50 71.95L176.02 75.24ZM207.46 42.67L204.79 31.23L194.25 27.94L186.39 36.08L189.06 47.52L199.59 50.81ZM267.91 8.54L265.25 -2.92L254.70 -6.22L246.82 1.93L249.48 13.38L260.03 16.68ZM249.48 13.38L246.82 1.93L236.27 -1.37L228.40 6.78L231.07 18.23L241.61 21.53ZM254.70 -6.22L252.03 -17.67L241.49 -20.97L233.61 -12.82L236.27 -1.37L246.82 1.93ZM262.69 28.13L260.03 16.68L249.48 13.38L241.61 21.53L244.27 32.97L254.81 36.28ZM217.86 3.49L215.19 -7.96L204.65 -11.25L196.78 -3.10L199.45 8.35L209.99 11.64ZM199.45 8.35L196.78 -3.10L186.24 -6.39L178.38 1.77L181.05 13.21L191.58 16.50ZM231.07 18.23L228.40 6.78L217.86 3.49L209.99 11.64L212.66 23.08L223.19 26.38ZM212.66 23.08L209.99 11.64L199.45 8.35L191.58 16.50L194.25 27.94L204.79 31.23ZM236.27 -1.37L233.61 -12.82L223.06 -16.11L215.19 -7.96L217.86 3.49L228.40 6.78ZM260.24 101.62L257.58 90.18L247.05 86.88L239.18 95.01L241.84 106.44L252.37 109.75ZM241.84 106.44L239.18 95.01L228.65 91.71L220.79 99.84L223.45 111.27L233.98 114.57ZM265.45 82.05L262.79 70.61L252.26 67.30L244.39 75.44L247.05 86.88L257.58 90.18ZM247.05 86.88L244.39 75.44L233.85 72.14L225.99 80.28L228.65 91.71L239.18 95.01ZM273.43 116.36L270.77 104.92L260.24 101.62L252.37 109.75L255.03 121.18L265.56 124.49ZM255.03 121.18L252.37 109.75L241.84 106.44L233.98 114.57L236.64 126.01L247.16 129.31ZM210.26 96.55L207.60 85.12L197.07 81.82L189.21 89.96L191.88 101.39L202.40 104.68ZM191.88 101.39L189.21 89.96L178.69 86.67L170.84 94.80L173.51 106.23L184.03 109.52ZM215.46 76.98L212.79 65.54L202.26 62.25L194.40 70.39L197.07 81.82L207.60 85.12ZM197.07 81.82L194.40 70.39L183.87 67.10L176.02 75.24L178.69 86.67L189.21 89.96ZM223.45 111.27L220.79 99.84L210.26 96.55L202.40 104.68L205.07 116.11L215.59 119.41ZM205.07 116.11L202.40 104.68L191.88 101.39L184.03 109.52L186.70 120.95L197.22 124.24ZM228.65 91.71L225.99 80.28L215.46 76.98L207.60 85.12L210.26 96.55L220.79 99.84ZM270.67 62.47L268.01 51.02L257.47 47.72L249.60 55.86L252.26 67.30L262.79 70.61ZM275.89 42.88L273.23 31.44L262.69 28.13L254.81 36.28L257.47 47.72L268.01 51.02ZM250.16 267.85L247.51 256.44L237.00 253.13L229.15 261.24L231.81 272.65L242.31 275.95ZM273.72 243.54L271.07 232.13L260.56 228.82L252.70 236.92L255.36 248.34L265.86 251.65ZM255.36 248.34L252.70 236.92L242.19 233.62L234.34 241.72L237.00 253.13L247.51 256.44ZM260.56 228.82L257.90 217.40L247.39 214.09L239.54 222.20L242.19 233.62L252.70 236.92ZM268.52 263.06L265.86 251.65L255.36 248.34L247.51 256.44L250.16 267.85L260.66 271.16ZM0.43 115.76L-2.26 104.36L-12.76 101.10L-20.57 109.24L-17.87 120.64L-7.38 123.90ZM10.67 76.66L7.97 65.25L-2.53 61.99L-10.34 70.14L-7.65 81.55L2.85 84.81ZM15.79 57.10L13.10 45.68L2.59 42.43L-5.23 50.58L-2.53 61.99L7.97 65.25ZM23.86 91.33L21.17 79.92L10.67 76.66L2.85 84.81L5.54 96.21L16.05 99.47ZM5.54 96.21L2.85 84.81L-7.65 81.55L-15.46 89.70L-12.76 101.10L-2.26 104.36ZM28.99 71.77L26.30 60.36L15.79 57.10L7.97 65.25L10.67 76.66L21.17 79.92ZM3.38 169.49L0.69 158.09L-9.80 154.83L-17.60 162.97L-14.90 174.36L-4.42 177.62ZM8.50 149.96L5.81 138.56L-4.69 135.30L-12.49 143.44L-9.80 154.83L0.69 158.09ZM16.56 184.14L13.88 172.75L3.38 169.49L-4.42 177.62L-1.73 189.01L8.76 192.27ZM21.68 164.62L18.99 153.22L8.50 149.96L0.69 158.09L3.38 169.49L13.88 172.75ZM31.93 125.55L29.24 114.14L18.74 110.88L10.93 119.02L13.62 130.42L24.11 133.68ZM13.62 130.42L10.93 119.02L0.43 115.76L-7.38 123.90L-4.69 135.30L5.81 138.56ZM37.05 106.00L34.37 94.59L23.86 91.33L16.05 99.47L18.74 110.88L29.24 114.14ZM18.74 110.88L16.05 99.47L5.54 96.21L-2.26 104.36L0.43 115.76L10.93 119.02ZM45.11 140.22L42.43 128.81L31.93 125.55L24.11 133.68L26.80 145.09L37.30 148.35ZM26.80 145.09L24.11 133.68L13.62 130.42L5.81 138.56L8.50 149.96L18.99 153.22ZM50.24 120.68L47.56 109.27L37.05 106.00L29.24 114.14L31.93 125.55L42.43 128.81ZM31.18 -1.63L28.49 -13.05L17.97 -16.31L10.14 -8.14L12.84 3.28L23.36 6.54ZM12.84 3.28L10.14 -8.14L-0.38 -11.40L-8.20 -3.24L-5.50 8.18L5.02 11.44ZM39.25 32.64L36.56 21.22L26.05 17.96L18.22 26.11L20.92 37.53L31.43 40.79ZM20.92 37.53L18.22 26.11L7.71 22.85L-0.11 31.01L2.59 42.43L13.10 45.68ZM44.39 13.06L41.70 1.64L31.18 -1.63L23.36 6.54L26.05 17.96L36.56 21.22ZM26.05 17.96L23.36 6.54L12.84 3.28L5.02 11.44L7.71 22.85L18.22 26.11ZM52.46 47.32L49.77 35.90L39.25 32.64L31.43 40.79L34.12 52.21L44.63 55.47ZM34.12 52.21L31.43 40.79L20.92 37.53L13.10 45.68L15.79 57.10L26.30 60.36ZM57.60 27.75L54.91 16.33L44.39 13.06L36.56 21.22L39.25 32.64L49.77 35.90ZM2.59 42.43L-0.11 31.01L-10.62 27.76L-18.43 35.91L-15.74 47.32L-5.23 50.58ZM7.71 22.85L5.02 11.44L-5.50 8.18L-13.32 16.34L-10.62 27.76L-0.11 31.01ZM49.53 -6.52L46.84 -17.95L36.32 -21.21L28.49 -13.05L31.18 -1.63L41.70 1.64ZM81.11 3.28L78.42 -8.15L67.89 -11.42L60.06 -3.26L62.75 8.17L73.27 11.44ZM62.75 8.17L60.06 -3.26L49.53 -6.52L41.70 1.64L44.39 13.06L54.91 16.33ZM74.38 223.28L71.70 211.89L61.21 208.61L53.40 216.74L56.08 228.13L66.57 231.40ZM56.08 228.13L53.40 216.74L42.91 213.46L35.11 221.58L37.79 232.97L48.27 236.25ZM79.51 203.77L76.84 192.37L66.34 189.09L58.53 197.22L61.21 208.61L71.70 211.89ZM61.21 208.61L58.53 197.22L48.04 193.95L40.23 202.07L42.91 213.46L53.40 216.74ZM87.55 237.96L84.87 226.56L74.38 223.28L66.57 231.40L69.25 242.79L79.73 246.07ZM69.25 242.79L66.57 231.40L56.08 228.13L48.27 236.25L50.95 247.63L61.44 250.91ZM92.69 218.44L90.01 207.04L79.51 203.77L71.70 211.89L74.38 223.28L84.87 226.56ZM24.62 218.32L21.93 206.93L11.45 203.66L3.65 211.79L6.34 223.17L16.82 226.44ZM6.34 223.17L3.65 211.79L-6.83 208.52L-14.63 216.65L-11.94 228.03L-1.46 231.29ZM29.74 198.80L27.05 187.41L16.56 184.14L8.76 192.27L11.45 203.66L21.93 206.93ZM11.45 203.66L8.76 192.27L-1.73 189.01L-9.52 197.14L-6.83 208.52L3.65 211.79ZM37.79 232.97L35.11 221.58L24.62 218.32L16.82 226.44L19.50 237.82L29.99 241.09ZM19.50 237.82L16.82 226.44L6.34 223.17L-1.46 231.29L1.23 242.68L11.71 245.94ZM42.91 213.46L40.23 202.07L29.74 198.80L21.93 206.93L24.62 218.32L35.11 221.58ZM102.98 179.40L100.30 167.99L89.80 164.71L81.98 172.84L84.65 184.24L95.15 187.52ZM84.65 184.24L81.98 172.84L71.48 169.57L63.66 177.69L66.34 189.09L76.84 192.37ZM108.13 159.86L105.45 148.46L94.94 145.18L87.12 153.31L89.80 164.71L100.30 167.99ZM89.80 164.71L87.12 153.31L76.62 150.03L68.80 158.16L71.48 169.57L81.98 172.84ZM116.15 194.08L113.48 182.68L102.98 179.40L95.15 187.52L97.83 198.92L108.33 202.20ZM97.83 198.92L95.15 187.52L84.65 184.24L76.84 192.37L79.51 203.77L90.01 207.04ZM121.30 174.55L118.63 163.15L108.13 159.86L100.30 167.99L102.98 179.40L113.48 182.68ZM53.16 174.42L50.48 163.02L39.98 159.75L32.17 167.88L34.86 179.28L45.35 182.55ZM34.86 179.28L32.17 167.88L21.68 164.62L13.88 172.75L16.56 184.14L27.05 187.41ZM58.30 154.89L55.61 143.49L45.11 140.22L37.30 148.35L39.98 159.75L50.48 163.02ZM39.98 159.75L37.30 148.35L26.80 145.09L18.99 153.22L21.68 164.62L32.17 167.88ZM66.34 189.09L63.66 177.69L53.16 174.42L45.35 182.55L48.04 193.95L58.53 197.22ZM48.04 193.95L45.35 182.55L34.86 179.28L27.05 187.41L29.74 198.80L40.23 202.07ZM71.48 169.57L68.80 158.16L58.30 154.89L50.48 163.02L53.16 174.42L63.66 177.69ZM100.71 252.63L98.04 241.24L87.55 237.96L79.73 246.07L82.41 257.46L92.90 260.74ZM82.41 257.46L79.73 246.07L69.25 242.79L61.44 250.91L64.12 262.30L74.60 265.57ZM113.87 267.31L111.20 255.91L100.71 252.63L92.90 260.74L95.57 272.13L106.05 275.41ZM45.83 267.13L43.15 255.75L32.67 252.48L24.87 260.59L27.55 271.97L38.03 275.24ZM50.95 247.63L48.27 236.25L37.79 232.97L29.99 241.09L32.67 252.48L43.15 255.75ZM32.67 252.48L29.99 241.09L19.50 237.82L11.71 245.94L14.39 257.32L24.87 260.59ZM64.12 262.30L61.44 250.91L50.95 247.63L43.15 255.75L45.83 267.13L56.31 270.41ZM124.17 228.29L121.50 216.89L111.00 213.61L103.18 221.72L105.85 233.12L116.35 236.40ZM105.85 233.12L103.18 221.72L92.69 218.44L84.87 226.56L87.55 237.96L98.04 241.24ZM129.32 208.77L126.65 197.37L116.15 194.08L108.33 202.20L111.00 213.61L121.50 216.89ZM111.00 213.61L108.33 202.20L97.83 198.92L90.01 207.04L92.69 218.44L103.18 221.72ZM137.33 242.98L134.66 231.58L124.17 228.29L116.35 236.40L119.02 247.80L129.51 251.09ZM119.02 247.80L116.35 236.40L105.85 233.12L98.04 241.24L100.71 252.63L111.20 255.91ZM142.49 223.46L139.82 212.06L129.32 208.77L121.50 216.89L124.17 228.29L134.66 231.58ZM1.23 242.68L-1.46 231.29L-11.94 228.03L-19.73 236.15L-17.04 247.53L-6.56 250.79ZM14.39 257.32L11.71 245.94L1.23 242.68L-6.56 250.79L-3.88 262.17L6.60 265.44ZM110.40 86.52L107.72 75.10L97.21 71.83L89.37 79.97L92.05 91.39L102.57 94.67ZM92.05 91.39L89.37 79.97L78.86 76.70L71.03 84.84L73.71 96.26L84.22 99.53ZM115.56 66.96L112.88 55.54L102.36 52.26L94.53 60.41L97.21 71.83L107.72 75.10ZM97.21 71.83L94.53 60.41L84.01 57.13L76.18 65.28L78.86 76.70L89.37 79.97ZM123.60 101.22L120.92 89.80L110.40 86.52L102.57 94.67L105.25 106.08L115.76 109.36ZM105.25 106.08L102.57 94.67L92.05 91.39L84.22 99.53L86.90 110.94L97.41 114.22ZM128.76 81.66L126.08 70.24L115.56 66.96L107.72 75.10L110.40 86.52L120.92 89.80ZM60.52 81.57L57.83 70.16L47.32 66.89L39.50 75.04L42.19 86.45L52.69 89.72ZM42.19 86.45L39.50 75.04L28.99 71.77L21.17 79.92L23.86 91.33L34.37 94.59ZM65.66 62.01L62.97 50.59L52.46 47.32L44.63 55.47L47.32 66.89L57.83 70.16ZM47.32 66.89L44.63 55.47L34.12 52.21L26.30 60.36L28.99 71.77L39.50 75.04ZM73.71 96.26L71.03 84.84L60.52 81.57L52.69 89.72L55.38 101.13L65.89 104.40ZM55.38 101.13L52.69 89.72L42.19 86.45L34.37 94.59L37.05 106.00L47.56 109.27ZM78.86 76.70L76.18 65.28L65.66 62.01L57.83 70.16L60.52 81.57L71.03 84.84ZM139.10 42.52L136.42 31.09L125.89 27.81L118.05 35.96L120.73 47.39L131.25 50.67ZM120.73 47.39L118.05 35.96L107.52 32.68L99.68 40.83L102.36 52.26L112.88 55.54ZM144.27 22.94L141.59 11.50L131.06 8.22L123.21 16.38L125.89 27.81L136.42 31.09ZM125.89 27.81L123.21 16.38L112.69 13.10L104.84 21.25L107.52 32.68L118.05 35.96ZM152.30 57.23L149.62 45.80L139.10 42.52L131.25 50.67L133.93 62.09L144.45 65.38ZM133.93 62.09L131.25 50.67L120.73 47.39L112.88 55.54L115.56 66.96L126.08 70.24ZM157.47 37.66L154.80 26.22L144.27 22.94L136.42 31.09L139.10 42.52L149.62 45.80ZM89.16 37.56L86.48 26.13L75.95 22.86L68.12 31.02L70.81 42.44L81.32 45.71ZM70.81 42.44L68.12 31.02L57.60 27.75L49.77 35.90L52.46 47.32L62.97 50.59ZM94.32 17.98L91.63 6.55L81.11 3.28L73.27 11.44L75.95 22.86L86.48 26.13ZM75.95 22.86L73.27 11.44L62.75 8.17L54.91 16.33L57.60 27.75L68.12 31.02ZM102.36 52.26L99.68 40.83L89.16 37.56L81.32 45.71L84.01 57.13L94.53 60.41ZM84.01 57.13L81.32 45.71L70.81 42.44L62.97 50.59L65.66 62.01L76.18 65.28ZM107.52 32.68L104.84 21.25L94.32 17.98L86.48 26.13L89.16 37.56L99.68 40.83ZM131.62 135.48L128.95 124.06L118.44 120.78L110.60 128.91L113.28 140.32L123.79 143.61ZM113.28 140.32L110.60 128.91L100.09 125.63L92.26 133.77L94.94 145.18L105.45 148.46ZM136.79 115.93L134.11 104.51L123.60 101.22L115.76 109.36L118.44 120.78L128.95 124.06ZM118.44 120.78L115.76 109.36L105.25 106.08L97.41 114.22L100.09 125.63L110.60 128.91ZM144.80 150.17L142.13 138.76L131.62 135.48L123.79 143.61L126.46 155.02L136.97 158.30ZM126.46 155.02L123.79 143.61L113.28 140.32L105.45 148.46L108.13 159.86L118.63 163.15ZM149.97 130.63L147.30 119.21L136.79 115.93L128.95 124.06L131.62 135.48L142.13 138.76ZM81.76 130.49L79.08 119.08L68.57 115.81L60.75 123.95L63.43 135.35L73.94 138.63ZM63.43 135.35L60.75 123.95L50.24 120.68L42.43 128.81L45.11 140.22L55.61 143.49ZM86.90 110.94L84.22 99.53L73.71 96.26L65.89 104.40L68.57 115.81L79.08 119.08ZM68.57 115.81L65.89 104.40L55.38 101.13L47.56 109.27L50.24 120.68L60.75 123.95ZM94.94 145.18L92.26 133.77L81.76 130.49L73.94 138.63L76.62 150.03L87.12 153.31ZM76.62 150.03L73.94 138.63L63.43 135.35L55.61 143.49L58.30 154.89L68.80 158.16ZM100.09 125.63L97.41 114.22L86.90 110.94L79.08 119.08L81.76 130.49L92.26 133.77ZM160.32 91.52L157.64 80.09L147.12 76.80L139.28 84.95L141.95 96.37L152.47 99.65ZM141.95 96.37L139.28 84.95L128.76 81.66L120.92 89.80L123.60 101.22L134.11 104.51ZM165.50 71.95L162.82 60.52L152.30 57.23L144.45 65.38L147.12 76.80L157.64 80.09ZM147.12 76.80L144.45 65.38L133.93 62.09L126.08 70.24L128.76 81.66L139.28 84.95ZM173.51 106.23L170.84 94.80L160.32 91.52L152.47 99.65L155.14 111.08L165.66 114.36ZM155.14 111.08L152.47 99.65L141.95 96.37L134.11 104.51L136.79 115.93L147.30 119.21ZM178.69 86.67L176.02 75.24L165.50 71.95L157.64 80.09L160.32 91.52L170.84 94.80ZM167.84 -1.52L165.16 -12.96L154.63 -16.25L146.77 -8.09L149.45 3.35L159.98 6.63ZM149.45 3.35L146.77 -8.09L136.24 -11.37L128.38 -3.21L131.06 8.22L141.59 11.50ZM181.05 13.21L178.38 1.77L167.84 -1.52L159.98 6.63L162.66 18.07L173.19 21.36ZM162.66 18.07L159.98 6.63L149.45 3.35L141.59 11.50L144.27 22.94L154.80 26.22ZM186.24 -6.39L183.57 -17.83L173.03 -21.12L165.16 -12.96L167.84 -1.52L178.38 1.77ZM117.85 -6.49L115.17 -17.92L104.64 -21.20L96.79 -13.04L99.47 -1.61L110.00 1.67ZM99.47 -1.61L96.79 -13.04L86.26 -16.31L78.42 -8.15L81.11 3.28L91.63 6.55ZM131.06 8.22L128.38 -3.21L117.85 -6.49L110.00 1.67L112.69 13.10L123.21 16.38ZM112.69 13.10L110.00 1.67L99.47 -1.61L91.63 6.55L94.32 17.98L104.84 21.25Z"/></svg>
