<svg xmlns="http://www.w3.org/2000/svg" width="256" height="256" viewBox="0 0 256 256"><path data-band="3" fill="#dc2626" fill-opacity="0.35" d="M130.44 206.26L127.78 194.90L117.32 191.61L109.52 199.68L112.19 211.04L122.65 214.34ZM112.19 211.04L109.52 199.68L99.07 196.39L91.27 204.47L93.94 215.83L104.40 219.12ZM135.58 186.82L132.92 175.45L122.45 172.16L114.66 180.24L117.32 191.61L127.78 194.90ZM117.32 191.61L114.66 180.24L104.19 176.95L96.40 185.03L99.07 196.39L109.52 199.68ZM143.56 220.92L140.90 209.56L130.44 206.26L122.65 214.34L125.31 225.70L135.76 228.99ZM125.31 225.70L122.65 214.34L112.19 211.04L104.40 219.12L107.06 230.47L117.51 233.77ZM148.70 201.49L146.04 190.12L135.58 186.82L127.78 194.90L130.44 206.26L140.90 209.56ZM80.82 201.18L78.15 189.82L67.69 186.54L59.91 194.62L62.58 205.97L73.03 209.26ZM62.58 205.97L59.91 194.62L49.46 191.34L41.68 199.41L44.35 210.77L54.80 214.05ZM85.94 181.74L83.27 170.38L72.81 167.10L65.02 175.18L67.69 186.54L78.15 189.82ZM67.69 186.54L65.02 175.18L54.57 171.90L46.78 179.98L49.46 191.34L59.91 194.62ZM93.94 215.83L91.27 204.47L80.82 201.18L73.03 209.26L75.70 220.61L86.15 223.90ZM75.70 220.61L73.03 209.26L62.58 205.97L54.80 214.05L57.47 225.40L67.92 228.68ZM99.07 196.39L96.40 185.03L85.94 181.74L78.15 189.82L80.82 201.18L91.27 204.47ZM159.00 162.59L156.34 151.22L145.87 147.92L138.06 156.00L140.72 167.38L151.19 170.67ZM140.72 167.38L138.06 156.00L127.59 152.71L119.79 160.79L122.45 172.16L132.92 175.45ZM164.15 143.13L161.49 131.75L151.02 128.46L143.21 136.54L145.87 147.92L156.34 151.22ZM145.87 147.92L143.21 136.54L132.73 133.25L124.93 141.34L127.59 152.71L138.06 156.00ZM172.13 177.27L169.47 165.89L159.00 162.59L151.19 170.67L153.85 182.04L164.32 185.34ZM153.85 182.04L151.19 170.67L140.72 167.38L132.92 175.45L135.58 186.82L146.04 190.12ZM177.28 157.81L174.63 146.43L164.15 143.13L156.34 151.22L159.00 162.59L169.47 165.89ZM109.32 157.50L106.66 146.13L96.19 142.84L88.40 150.93L91.06 162.30L101.53 165.58ZM91.06 162.30L88.40 150.93L77.93 147.65L70.14 155.73L72.81 167.10L83.27 170.38ZM114.46 138.05L111.79 126.67L101.32 123.39L93.52 131.47L96.19 142.84L106.66 146.13ZM96.19 142.84L93.52 131.47L83.06 128.19L75.26 136.28L77.93 147.65L88.40 150.93ZM122.45 172.16L119.79 160.79L109.32 157.50L101.53 165.58L104.19 176.95L114.66 180.24ZM104.19 176.95L101.53 165.58L91.06 162.30L83.27 170.38L85.94 181.74L96.40 185.03ZM127.59 152.71L124.93 141.34L114.46 138.05L106.66 146.13L109.32 157.50L119.79 160.79ZM151.54 255.01L148.88 243.65L138.42 240.35L130.63 248.42L133.29 259.78L143.74 263.07ZM133.29 259.78L130.63 248.42L120.17 245.12L112.38 253.19L115.05 264.54L125.50 267.84ZM156.68 235.59L154.02 224.22L143.56 220.92L135.76 228.99L138.42 240.35L148.88 243.65ZM138.42 240.35L135.76 228.99L125.31 225.70L117.51 233.77L120.17 245.12L130.63 248.42ZM164.65 269.67L161.99 258.31L151.54 255.01L143.74 263.07L146.40 274.43L156.85 277.73ZM169.79 250.25L167.14 238.89L156.68 235.59L148.88 243.65L151.54 255.01L161.99 258.31ZM101.93 249.90L99.27 238.54L88.82 235.25L81.04 243.32L83.70 254.68L94.15 257.96ZM83.70 254.68L81.04 243.32L70.59 240.04L62.81 248.11L65.48 259.46L75.92 262.74ZM107.06 230.47L104.40 219.12L93.94 215.83L86.15 223.90L88.82 235.25L99.27 238.54ZM88.82 235.25L86.15 223.90L75.70 220.61L67.92 228.68L70.59 240.04L81.04 243.32ZM115.05 264.54L112.38 253.19L101.93 249.90L94.15 257.96L96.81 269.32L107.26 272.61ZM96.81 269.32L94.15 257.96L83.70 254.68L75.92 262.74L78.59 274.09L89.03 277.38ZM120.17 245.12L117.51 233.77L107.06 230.47L99.27 238.54L101.93 249.90L112.38 253.19ZM180.10 211.38L177.44 200.01L166.97 196.71L159.17 204.78L161.83 216.15L172.29 219.45ZM161.83 216.15L159.17 204.78L148.70 201.49L140.90 209.56L143.56 220.92L154.02 224.22ZM185.25 191.94L182.60 180.57L172.13 177.27L164.32 185.34L166.97 196.71L177.44 200.01ZM166.97 196.71L164.32 185.34L153.85 182.04L146.04 190.12L148.70 201.49L159.17 204.78ZM193.21 226.06L190.56 214.69L180.10 211.38L172.29 219.45L174.94 230.82L185.40 234.12ZM174.94 230.82L172.29 219.45L161.83 216.15L154.02 224.22L156.68 235.59L167.14 238.89ZM198.37 206.62L195.72 195.25L185.25 191.94L177.44 200.01L180.10 211.38L190.56 214.69ZM2.82 239.79L0.14 228.44L-10.30 225.17L-18.06 233.25L-15.38 244.59L-4.94 247.86ZM7.91 220.37L5.23 209.02L-5.21 205.75L-12.98 213.83L-10.30 225.17L0.14 228.44ZM15.94 254.41L13.26 243.06L2.82 239.79L-4.94 247.86L-2.27 259.20L8.17 262.47ZM21.03 234.99L18.36 223.64L7.91 220.37L0.14 228.44L2.82 239.79L13.26 243.06ZM31.23 196.14L28.55 184.78L18.10 181.51L10.33 189.59L13.00 200.94L23.45 204.22ZM13.00 200.94L10.33 189.59L-0.12 186.32L-7.89 194.40L-5.21 205.75L5.23 209.02ZM36.33 176.70L33.65 165.34L23.20 162.07L15.42 170.15L18.10 181.51L28.55 184.78ZM18.10 181.51L15.42 170.15L4.97 166.88L-2.80 174.97L-0.12 186.32L10.33 189.59ZM44.35 210.77L41.68 199.41L31.23 196.14L23.45 204.22L26.13 215.57L36.57 218.84ZM26.13 215.57L23.45 204.22L13.00 200.94L5.23 209.02L7.91 220.37L18.36 223.64ZM49.46 191.34L46.78 179.98L36.33 176.70L28.55 184.78L31.23 196.14L41.68 199.41ZM29.05 269.03L26.38 257.68L15.94 254.41L8.17 262.47L10.85 273.81L21.28 277.09ZM52.36 244.82L49.69 233.47L39.25 230.19L31.47 238.27L34.15 249.61L44.59 252.89ZM34.15 249.61L31.47 238.27L21.03 234.99L13.26 243.06L15.94 254.41L26.38 257.68ZM57.47 225.40L54.80 214.05L44.35 210.77L36.57 218.84L39.25 230.19L49.69 233.47ZM39.25 230.19L36.57 218.84L26.13 215.57L18.36 223.64L21.03 234.99L31.47 238.27ZM65.48 259.46L62.81 248.11L52.36 244.82L44.59 252.89L47.26 264.24L57.70 267.52ZM47.26 264.24L44.59 252.89L34.15 249.61L26.38 257.68L29.05 269.03L39.49 272.30ZM70.59 240.04L67.92 228.68L57.47 225.40L49.69 233.47L52.36 244.82L62.81 248.11ZM166.48 70.03L163.82 58.64L153.33 55.35L145.51 63.45L148.18 74.83L158.66 78.13ZM148.18 74.83L145.51 63.45L135.03 60.16L127.22 68.25L129.88 79.64L140.36 82.93ZM171.65 50.54L168.98 39.15L158.49 35.86L150.67 43.96L153.33 55.35L163.82 58.64ZM153.33 55.35L150.67 43.96L140.18 40.67L132.36 48.77L135.03 60.16L145.51 63.45ZM179.63 84.72L176.97 73.33L166.48 70.03L158.66 78.13L161.32 89.52L171.81 92.81ZM161.32 89.52L158.66 78.13L148.18 74.83L140.36 82.93L143.03 94.31L153.51 97.61ZM184.79 65.24L182.13 53.84L171.65 50.54L163.82 58.64L166.48 70.03L176.97 73.33ZM116.74 64.97L114.07 53.58L103.59 50.29L95.78 58.40L98.45 69.78L108.93 73.06ZM98.45 69.78L95.78 58.40L85.30 55.11L77.49 63.22L80.17 74.60L90.64 77.88ZM121.88 45.48L119.21 34.09L108.73 30.80L100.91 38.91L103.59 50.29L114.07 53.58ZM103.59 50.29L100.91 38.91L90.43 35.63L82.62 43.73L85.30 55.11L95.78 58.40ZM129.88 79.64L127.22 68.25L116.74 64.97L108.93 73.06L111.59 84.45L122.07 87.73ZM111.59 84.45L108.93 73.06L98.45 69.78L90.64 77.88L93.31 89.26L103.79 92.54ZM135.03 60.16L132.36 48.77L121.88 45.48L114.07 53.58L116.74 64.97L127.22 68.25ZM195.14 26.24L192.48 14.84L181.98 11.55L174.15 19.65L176.81 31.05L187.30 34.35ZM176.81 31.05L174.15 19.65L163.65 16.36L155.83 24.46L158.49 35.86L168.98 39.15ZM200.31 6.74L197.65 -4.67L187.15 -7.96L179.32 0.14L181.98 11.55L192.48 14.84ZM181.98 11.55L179.32 0.14L168.82 -3.15L160.99 4.96L163.65 16.36L174.15 19.65ZM208.29 40.95L205.63 29.54L195.14 26.24L187.30 34.35L189.96 45.74L200.46 49.04ZM189.96 45.74L187.30 34.35L176.81 31.05L168.98 39.15L171.65 50.54L182.13 53.84ZM213.47 21.44L210.81 10.04L200.31 6.74L192.48 14.84L195.14 26.24L205.63 29.54ZM145.34 21.17L142.67 9.77L132.18 6.48L124.36 14.59L127.03 25.98L137.52 29.27ZM127.03 25.98L124.36 14.59L113.87 11.31L106.05 19.41L108.73 30.80L119.21 34.09ZM150.50 1.67L147.83 -9.73L137.33 -13.02L129.51 -4.91L132.18 6.48L142.67 9.77ZM132.18 6.48L129.51 -4.91L119.02 -8.20L111.20 -0.09L113.87 11.31L124.36 14.59ZM158.49 35.86L155.83 24.46L145.34 21.17L137.52 29.27L140.18 40.67L150.67 43.96ZM140.18 40.67L137.52 29.27L127.03 25.98L119.21 34.09L121.88 45.48L132.36 48.77ZM163.65 16.36L160.99 4.96L150.50 1.67L142.67 9.77L145.34 21.17L155.83 24.46ZM187.61 118.88L184.95 107.50L174.47 104.20L166.65 112.29L169.31 123.67L179.78 126.97ZM169.31 123.67L166.65 112.29L156.17 108.99L148.35 117.08L151.02 128.46L161.49 131.75ZM192.77 99.41L190.11 88.02L179.63 84.72L171.81 92.81L174.47 104.20L184.95 107.50ZM174.47 104.20L171.81 92.81L161.32 89.52L153.51 97.61L156.17 108.99L166.65 112.29ZM200.74 133.57L198.09 122.19L187.61 118.88L179.78 126.97L182.44 138.35L192.92 141.65ZM182.44 138.35L179.78 126.97L169.31 123.67L161.49 131.75L164.15 143.13L174.63 146.43ZM205.91 114.10L203.26 102.71L192.77 99.41L184.95 107.50L187.61 118.88L198.09 122.19ZM137.88 113.79L135.21 102.40L124.74 99.11L116.93 107.21L119.60 118.58L130.07 121.87ZM119.60 118.58L116.93 107.21L106.46 103.92L98.65 112.01L101.32 123.39L111.79 126.67ZM143.03 94.31L140.36 82.93L129.88 79.64L122.07 87.73L124.74 99.11L135.21 102.40ZM124.74 99.11L122.07 87.73L111.59 84.45L103.79 92.54L106.46 103.92L116.93 107.21ZM151.02 128.46L148.35 117.08L137.88 113.79L130.07 121.87L132.73 133.25L143.21 136.54ZM132.73 133.25L130.07 121.87L119.60 118.58L111.79 126.67L114.46 138.05L124.93 141.34ZM156.17 108.99L153.51 97.61L143.03 94.31L135.21 102.40L137.88 113.79L148.35 117.08ZM216.26 75.14L213.60 63.74L203.11 60.44L195.28 68.54L197.94 79.93L208.43 83.23ZM197.94 79.93L195.28 68.54L184.79 65.24L176.97 73.33L179.63 84.72L190.11 88.02ZM221.44 55.65L218.78 44.25L208.29 40.95L200.46 49.04L203.11 60.44L213.60 63.74ZM203.11 60.44L200.46 49.04L189.96 45.74L182.13 53.84L184.79 65.24L195.28 68.54ZM229.40 89.84L226.75 78.45L216.26 75.14L208.43 83.23L211.08 94.62L221.57 97.93ZM211.08 94.62L208.43 83.23L197.94 79.93L190.11 88.02L192.77 99.41L203.26 102.71ZM234.59 70.35L231.93 58.95L221.44 55.65L213.60 63.74L216.26 75.14L226.75 78.45ZM38.52 103.71L35.84 92.33L25.37 89.06L17.59 97.16L20.27 108.53L30.73 111.80ZM20.27 108.53L17.59 97.16L7.13 93.89L-0.66 101.99L2.03 113.35L12.49 116.62ZM43.63 84.24L40.95 72.86L30.48 69.59L22.69 77.69L25.37 89.06L35.84 92.33ZM25.37 89.06L22.69 77.69L12.23 74.42L4.44 82.52L7.13 93.89L17.59 97.16ZM51.66 118.35L48.98 106.98L38.52 103.71L30.73 111.80L33.41 123.17L43.87 126.44ZM33.41 123.17L30.73 111.80L20.27 108.53L12.49 116.62L15.17 127.99L25.63 131.26ZM56.78 98.89L54.10 87.51L43.63 84.24L35.84 92.33L38.52 103.71L48.98 106.98ZM2.03 113.35L-0.66 101.99L-11.12 98.72L-18.89 106.82L-16.21 118.18L-5.75 121.45ZM7.13 93.89L4.44 82.52L-6.02 79.26L-13.80 87.36L-11.12 98.72L-0.66 101.99ZM67.02 59.94L64.34 48.56L53.87 45.28L46.07 53.38L48.75 64.76L59.22 68.04ZM48.75 64.76L46.07 53.38L35.60 50.11L27.80 58.22L30.48 69.59L40.95 72.86ZM72.15 40.45L69.47 29.07L58.99 25.79L51.19 33.90L53.87 45.28L64.34 48.56ZM53.87 45.28L51.19 33.90L40.71 30.63L32.92 38.73L35.60 50.11L46.07 53.38ZM80.17 74.60L77.49 63.22L67.02 59.94L59.22 68.04L61.90 79.41L72.37 82.69ZM61.90 79.41L59.22 68.04L48.75 64.76L40.95 72.86L43.63 84.24L54.10 87.51ZM85.30 55.11L82.62 43.73L72.15 40.45L64.34 48.56L67.02 59.94L77.49 63.22ZM17.33 54.95L14.65 43.57L4.18 40.30L-3.61 48.41L-0.92 59.78L9.55 63.05ZM22.44 35.46L19.76 24.09L9.28 20.82L1.49 28.93L4.18 40.30L14.65 43.57ZM4.18 40.30L1.49 28.93L-8.98 25.66L-16.76 33.78L-14.08 45.15L-3.61 48.41ZM30.48 69.59L27.80 58.22L17.33 54.95L9.55 63.05L12.23 74.42L22.69 77.69ZM12.23 74.42L9.55 63.05L-0.92 59.78L-8.71 67.89L-6.02 79.26L4.44 82.52ZM35.60 50.11L32.92 38.73L22.44 35.46L14.65 43.57L17.33 54.95L27.80 58.22ZM59.68 152.45L57.01 141.08L46.55 137.81L38.76 145.90L41.44 157.26L51.89 160.53ZM41.44 157.26L38.76 145.90L28.30 142.62L20.52 150.71L23.20 162.07L33.65 165.34ZM64.80 133.00L62.12 121.63L51.66 118.35L43.87 126.44L46.55 137.81L57.01 141.08ZM46.55 137.81L43.87 126.44L33.41 123.17L25.63 131.26L28.30 142.62L38.76 145.90ZM72.81 167.10L70.14 155.73L59.68 152.45L51.89 160.53L54.57 171.90L65.02 175.18ZM54.57 171.90L51.89 160.53L41.44 157.26L33.65 165.34L36.33 176.70L46.78 179.98ZM77.93 147.65L75.26 136.28L64.80 133.00L57.01 141.08L59.68 152.45L70.14 155.73ZM10.07 147.44L7.39 136.08L-3.07 132.81L-10.84 140.90L-8.16 152.26L2.29 155.52ZM15.17 127.99L12.49 116.62L2.03 113.35L-5.75 121.45L-3.07 132.81L7.39 136.08ZM23.20 162.07L20.52 150.71L10.07 147.44L2.29 155.52L4.97 166.88L15.42 170.15ZM4.97 166.88L2.29 155.52L-8.16 152.26L-15.93 160.34L-13.25 171.70L-2.80 174.97ZM28.30 142.62L25.63 131.26L15.17 127.99L7.39 136.08L10.07 147.44L20.52 150.71ZM88.18 108.73L85.51 97.35L75.04 94.07L67.24 102.16L69.92 113.54L80.39 116.82ZM69.92 113.54L67.24 102.16L56.78 98.89L48.98 106.98L51.66 118.35L62.12 121.63ZM93.31 89.26L90.64 77.88L80.17 74.60L72.37 82.69L75.04 94.07L85.51 97.35ZM75.04 94.07L72.37 82.69L61.90 79.41L54.10 87.51L56.78 98.89L67.24 102.16ZM101.32 123.39L98.65 112.01L88.18 108.73L80.39 116.82L83.06 128.19L93.52 131.47ZM83.06 128.19L80.39 116.82L69.92 113.54L62.12 121.63L64.80 133.00L75.26 136.28ZM106.46 103.92L103.79 92.54L93.31 89.26L85.51 97.35L88.18 108.73L98.65 112.01ZM250.83 265.35L248.19 253.98L237.72 250.67L229.90 258.72L232.55 270.09L243.01 273.41ZM232.55 270.09L229.90 258.72L219.44 255.41L211.63 263.47L214.28 274.84L224.74 278.15ZM256.01 245.92L253.37 234.55L242.90 231.23L235.08 239.29L237.72 250.67L248.19 253.98ZM237.72 250.67L235.08 239.29L224.61 235.98L216.79 244.04L219.44 255.41L229.90 258.72ZM269.12 260.62L266.48 249.24L256.01 245.92L248.19 253.98L250.83 265.35L261.30 268.67ZM201.17 260.16L198.52 248.80L188.06 245.49L180.25 253.55L182.90 264.92L193.36 268.22ZM182.90 264.92L180.25 253.55L169.79 250.25L161.99 258.31L164.65 269.67L175.10 272.97ZM206.33 240.73L203.68 229.36L193.21 226.06L185.40 234.12L188.06 245.49L198.52 248.80ZM188.06 245.49L185.40 234.12L174.94 230.82L167.14 238.89L169.79 250.25L180.25 253.55ZM219.44 255.41L216.79 244.04L206.33 240.73L198.52 248.80L201.17 260.16L211.63 263.47ZM258.44 172.89L255.79 161.50L245.31 158.19L237.48 166.26L240.13 177.65L250.61 180.96ZM240.13 177.65L237.48 166.26L227.00 162.95L219.18 171.03L221.83 182.41L232.30 185.72ZM263.63 153.43L260.98 142.04L250.50 138.72L242.66 146.80L245.31 158.19L255.79 161.50ZM245.31 158.19L242.66 146.80L232.18 143.49L224.35 151.57L227.00 162.95L237.48 166.26ZM271.56 187.59L268.92 176.20L258.44 172.89L250.61 180.96L253.25 192.34L263.73 195.66ZM253.25 192.34L250.61 180.96L240.13 177.65L232.30 185.72L234.95 197.10L245.43 200.41ZM276.76 168.13L274.11 156.74L263.63 153.43L255.79 161.50L258.44 172.89L268.92 176.20ZM208.70 167.72L206.05 156.34L195.57 153.04L187.76 161.11L190.41 172.49L200.88 175.80ZM190.41 172.49L187.76 161.11L177.28 157.81L169.47 165.89L172.13 177.27L182.60 180.57ZM213.87 148.26L211.22 136.88L200.74 133.57L192.92 141.65L195.57 153.04L206.05 156.34ZM195.57 153.04L192.92 141.65L182.44 138.35L174.63 146.43L177.28 157.81L187.76 161.11ZM221.83 182.41L219.18 171.03L208.70 167.72L200.88 175.80L203.54 187.17L214.01 190.48ZM203.54 187.17L200.88 175.80L190.41 172.49L182.60 180.57L185.25 191.94L195.72 195.25ZM227.00 162.95L224.35 151.57L213.87 148.26L206.05 156.34L208.70 167.72L219.18 171.03ZM268.82 133.96L266.17 122.56L255.68 119.25L247.85 127.33L250.50 138.72L260.98 142.04ZM274.01 114.48L271.37 103.09L260.87 99.77L253.03 107.86L255.68 119.25L266.17 122.56ZM237.36 124.02L234.71 112.63L224.22 109.32L216.39 117.41L219.05 128.80L229.53 132.10ZM219.05 128.80L216.39 117.41L205.91 114.10L198.09 122.19L200.74 133.57L211.22 136.88ZM242.55 104.55L239.89 93.15L229.40 89.84L221.57 97.93L224.22 109.32L234.71 112.63ZM224.22 109.32L221.57 97.93L211.08 94.62L203.26 102.71L205.91 114.10L216.39 117.41ZM250.50 138.72L247.85 127.33L237.36 124.02L229.53 132.10L232.18 143.49L242.66 146.80ZM232.18 143.49L229.53 132.10L219.05 128.80L211.22 136.88L213.87 148.26L224.35 151.57ZM255.68 119.25L253.03 107.86L242.55 104.55L234.71 112.63L237.36 124.02L247.85 127.33ZM261.19 226.49L258.55 215.11L248.07 211.79L240.25 219.86L242.90 231.23L253.37 234.55ZM266.38 207.04L263.73 195.66L253.25 192.34L245.43 200.41L248.07 211.79L258.55 215.11ZM274.30 241.18L271.66 229.80L261.19 226.49L253.37 234.55L256.01 245.92L266.48 249.24ZM229.78 216.54L227.13 205.17L216.66 201.86L208.84 209.93L211.49 221.30L221.96 224.61ZM211.49 221.30L208.84 209.93L198.37 206.62L190.56 214.69L193.21 226.06L203.68 229.36ZM234.95 197.10L232.30 185.72L221.83 182.41L214.01 190.48L216.66 201.86L227.13 205.17ZM216.66 201.86L214.01 190.48L203.54 187.17L195.72 195.25L198.37 206.62L208.84 209.93ZM242.90 231.23L240.25 219.86L229.78 216.54L221.96 224.61L224.61 235.98L235.08 239.29ZM224.61 235.98L221.96 224.61L211.49 221.30L203.68 229.36L206.33 240.73L216.79 244.04ZM248.07 211.79L245.43 200.41L234.95 197.10L227.13 205.17L229.78 216.54L240.25 219.86ZM237.00 -2.87L234.34 -14.28L223.84 -17.58L215.99 -9.47L218.65 1.94L229.15 5.24ZM218.65 1.94L215.99 -9.47L205.49 -12.77L197.65 -4.67L200.31 6.74L210.81 10.04ZM187.15 -7.96L184.49 -19.37L173.99 -22.66L166.15 -14.55L168.82 -3.15L179.32 0.14ZM168.82 -3.15L166.15 -14.55L155.66 -17.85L147.83 -9.73L150.50 1.67L160.99 4.96ZM276.47 41.29L273.82 29.88L263.32 26.57L255.47 34.67L258.12 46.08L268.62 49.39ZM244.97 31.36L242.31 19.95L231.81 16.65L223.97 24.75L226.62 36.15L237.12 39.46ZM226.62 36.15L223.97 24.75L213.47 21.44L205.63 29.54L208.29 40.95L218.78 44.25ZM250.16 11.85L247.51 0.44L237.00 -2.87L229.15 5.24L231.81 16.65L242.31 19.95ZM231.81 16.65L229.15 5.24L218.65 1.94L210.81 10.04L213.47 21.44L223.97 24.75ZM258.12 46.08L255.47 34.67L244.97 31.36L237.12 39.46L239.78 50.86L250.27 54.17ZM239.78 50.86L237.12 39.46L226.62 36.15L218.78 44.25L221.44 55.65L231.93 58.95ZM263.32 26.57L260.66 15.16L250.16 11.85L242.31 19.95L244.97 31.36L255.47 34.67ZM255.36 -7.66L252.70 -19.08L242.19 -22.38L234.34 -14.28L237.00 -2.87L247.51 0.44ZM268.52 7.06L265.86 -4.35L255.36 -7.66L247.51 0.44L250.16 11.85L260.66 15.16ZM266.07 80.29L263.42 68.88L252.92 65.57L245.08 73.66L247.73 85.06L258.23 88.37ZM247.73 85.06L245.08 73.66L234.59 70.35L226.75 78.45L229.40 89.84L239.89 93.15ZM271.27 60.79L268.62 49.39L258.12 46.08L250.27 54.17L252.92 65.57L263.42 68.88ZM252.92 65.57L250.27 54.17L239.78 50.86L231.93 58.95L234.59 70.35L245.08 73.66ZM260.87 99.77L258.23 88.37L247.73 85.06L239.89 93.15L242.55 104.55L253.03 107.86ZM95.57 16.13L92.90 4.74L82.41 1.46L74.60 9.57L77.28 20.96L87.76 24.24ZM77.28 20.96L74.60 9.57L64.12 6.30L56.31 14.41L58.99 25.79L69.47 29.07ZM100.71 -3.37L98.04 -14.76L87.55 -18.04L79.73 -9.93L82.41 1.46L92.90 4.74ZM82.41 1.46L79.73 -9.93L69.25 -13.21L61.44 -5.09L64.12 6.30L74.60 9.57ZM108.73 30.80L106.05 19.41L95.57 16.13L87.76 24.24L90.43 35.63L100.91 38.91ZM90.43 35.63L87.76 24.24L77.28 20.96L69.47 29.07L72.15 40.45L82.62 43.73ZM113.87 11.31L111.20 -0.09L100.71 -3.37L92.90 4.74L95.57 16.13L106.05 19.41ZM45.83 11.13L43.15 -0.25L32.67 -3.52L24.87 4.59L27.55 15.97L38.03 19.24ZM27.55 15.97L24.87 4.59L14.39 1.32L6.60 9.44L9.28 20.82L19.76 24.09ZM32.67 -3.52L29.99 -14.91L19.50 -18.18L11.71 -10.06L14.39 1.32L24.87 4.59ZM58.99 25.79L56.31 14.41L45.83 11.13L38.03 19.24L40.71 30.63L51.19 33.90ZM40.71 30.63L38.03 19.24L27.55 15.97L19.76 24.09L22.44 35.46L32.92 38.73ZM64.12 6.30L61.44 -5.09L50.95 -8.37L43.15 -0.25L45.83 11.13L56.31 14.41ZM9.28 20.82L6.60 9.44L-3.88 6.17L-11.66 14.29L-8.98 25.66L1.49 28.93ZM14.39 1.32L11.71 -10.06L1.23 -13.32L-6.56 -5.21L-3.88 6.17L6.60 9.44Z"/></svg>
