<svg xmlns="http://www.w3.org/2000/svg" width="256" height="256" viewBox="0 0 256 256"><path data-band="3" fill="#dc2626" fill-opacity="0.35" d="M151.54 -0.99L148.88 -12.35L138.42 -15.65L130.63 -7.58L133.29 3.78L143.74 7.07ZM133.29 3.78L130.63 -7.58L120.17 -10.88L112.38 -2.81L115.05 8.54L125.50 11.84ZM164.65 13.67L161.99 2.31L151.54 -0.99L143.74 7.07L146.40 18.43L156.85 21.73ZM146.40 18.43L143.74 7.07L133.29 3.78L125.50 11.84L128.16 23.19L138.60 26.49ZM169.79 -5.75L167.14 -17.11L156.68 -20.41L148.88 -12.35L151.54 -0.99L161.99 2.31ZM101.93 -6.10L99.27 -17.46L88.82 -20.75L81.04 -12.68L83.70 -1.32L94.15 1.96ZM83.70 -1.32L81.04 -12.68L70.59 -15.96L62.81 -7.89L65.48 3.46L75.92 6.74ZM115.05 8.54L112.38 -2.81L101.93 -6.10L94.15 1.96L96.81 13.32L107.26 16.61ZM96.81 13.32L94.15 1.96L83.70 -1.32L75.92 6.74L78.59 18.09L89.03 21.38ZM15.94 -1.59L13.26 -12.94L2.82 -16.21L-4.94 -8.14L-2.27 3.20L8.17 6.47ZM23.95 32.43L21.28 21.09L10.85 17.81L3.09 25.88L5.76 37.22L16.19 40.49ZM5.76 37.22L3.09 25.88L-7.35 22.61L-15.10 30.67L-12.43 42.01L-2.00 45.28ZM29.05 13.03L26.38 1.68L15.94 -1.59L8.17 6.47L10.85 17.81L21.28 21.09ZM10.85 17.81L8.17 6.47L-2.27 3.20L-10.02 11.27L-7.35 22.61L3.09 25.88ZM37.06 47.05L34.39 35.71L23.95 32.43L16.19 40.49L18.86 51.83L29.30 55.11ZM18.86 51.83L16.19 40.49L5.76 37.22L-2.00 45.28L0.68 56.61L11.11 59.89ZM42.16 27.65L39.49 16.30L29.05 13.03L21.28 21.09L23.95 32.43L34.39 35.71ZM34.15 -6.39L31.47 -17.73L21.03 -21.01L13.26 -12.94L15.94 -1.59L26.38 1.68ZM65.48 3.46L62.81 -7.89L52.36 -11.18L44.59 -3.11L47.26 8.24L57.70 11.52ZM47.26 8.24L44.59 -3.11L34.15 -6.39L26.38 1.68L29.05 13.03L39.49 16.30ZM222.22 52.93L219.57 41.57L209.12 38.25L201.31 46.31L203.96 57.67L214.41 60.98ZM203.96 57.67L201.31 46.31L190.86 43.00L183.06 51.05L185.71 62.41L196.16 65.71ZM227.38 33.51L224.74 22.15L214.28 18.84L206.47 26.89L209.12 38.25L219.57 41.57ZM209.12 38.25L206.47 26.89L196.01 23.58L188.21 31.64L190.86 43.00L201.31 46.31ZM235.32 67.60L232.67 56.24L222.22 52.93L214.41 60.98L217.06 72.33L227.51 75.65ZM217.06 72.33L214.41 60.98L203.96 57.67L196.16 65.71L198.81 77.07L209.25 80.38ZM240.49 48.19L237.84 36.83L227.38 33.51L219.57 41.57L222.22 52.93L232.67 56.24ZM172.61 47.75L169.95 36.39L159.50 33.09L151.71 41.14L154.36 52.50L164.81 55.80ZM154.36 52.50L151.71 41.14L141.26 37.84L133.47 45.90L136.13 57.25L146.57 60.55ZM177.75 28.33L175.10 16.97L164.65 13.67L156.85 21.73L159.50 33.09L169.95 36.39ZM159.50 33.09L156.85 21.73L146.40 18.43L138.60 26.49L141.26 37.84L151.71 41.14ZM185.71 62.41L183.06 51.05L172.61 47.75L164.81 55.80L167.46 67.15L177.91 70.45ZM167.46 67.15L164.81 55.80L154.36 52.50L146.57 60.55L149.23 71.90L159.67 75.20ZM190.86 43.00L188.21 31.64L177.75 28.33L169.95 36.39L172.61 47.75L183.06 51.05ZM250.83 9.35L248.19 -2.02L237.72 -5.33L229.90 2.72L232.55 14.09L243.01 17.41ZM232.55 14.09L229.90 2.72L219.44 -0.59L211.63 7.47L214.28 18.84L224.74 22.15ZM237.72 -5.33L235.08 -16.71L224.61 -20.02L216.79 -11.96L219.44 -0.59L229.90 2.72ZM263.94 24.04L261.30 12.67L250.83 9.35L243.01 17.41L245.66 28.78L256.12 32.09ZM245.66 28.78L243.01 17.41L232.55 14.09L224.74 22.15L227.38 33.51L237.84 36.83ZM269.12 4.62L266.48 -6.76L256.01 -10.08L248.19 -2.02L250.83 9.35L261.30 12.67ZM201.17 4.16L198.52 -7.20L188.06 -10.51L180.25 -2.45L182.90 8.92L193.36 12.22ZM182.90 8.92L180.25 -2.45L169.79 -5.75L161.99 2.31L164.65 13.67L175.10 16.97ZM214.28 18.84L211.63 7.47L201.17 4.16L193.36 12.22L196.01 23.58L206.47 26.89ZM196.01 23.58L193.36 12.22L182.90 8.92L175.10 16.97L177.75 28.33L188.21 31.64ZM219.44 -0.59L216.79 -11.96L206.33 -15.27L198.52 -7.20L201.17 4.16L211.63 7.47ZM243.24 101.68L240.60 90.32L230.15 87.00L222.35 95.05L224.99 106.40L235.44 109.72ZM224.99 106.40L222.35 95.05L211.90 91.73L204.10 99.77L206.75 111.13L217.19 114.44ZM248.41 82.28L245.77 70.92L235.32 67.60L227.51 75.65L230.15 87.00L240.60 90.32ZM230.15 87.00L227.51 75.65L217.06 72.33L209.25 80.38L211.90 91.73L222.35 95.05ZM256.33 116.35L253.69 105.00L243.24 101.68L235.44 109.72L238.08 121.07L248.53 124.39ZM238.08 121.07L235.44 109.72L224.99 106.40L217.19 114.44L219.83 125.79L230.28 129.10ZM261.51 96.96L258.87 85.60L248.41 82.28L240.60 90.32L243.24 101.68L253.69 105.00ZM193.65 96.47L191.01 85.11L180.56 81.81L172.77 89.85L175.42 101.20L185.86 104.51ZM175.42 101.20L172.77 89.85L162.32 86.55L154.53 94.59L157.19 105.94L167.63 109.24ZM198.81 77.07L196.16 65.71L185.71 62.41L177.91 70.45L180.56 81.81L191.01 85.11ZM180.56 81.81L177.91 70.45L167.46 67.15L159.67 75.20L162.32 86.55L172.77 89.85ZM206.75 111.13L204.10 99.77L193.65 96.47L185.86 104.51L188.51 115.86L198.95 119.16ZM188.51 115.86L185.86 104.51L175.42 101.20L167.63 109.24L170.28 120.59L180.72 123.89ZM211.90 91.73L209.25 80.38L198.81 77.07L191.01 85.11L193.65 96.47L204.10 99.77ZM271.86 58.15L269.22 46.78L258.76 43.46L250.94 51.51L253.58 62.87L264.04 66.19ZM253.58 62.87L250.94 51.51L240.49 48.19L232.67 56.24L235.32 67.60L245.77 70.92ZM258.76 43.46L256.12 32.09L245.66 28.78L237.84 36.83L240.49 48.19L250.94 51.51ZM266.68 77.56L264.04 66.19L253.58 62.87L245.77 70.92L248.41 82.28L258.87 85.60ZM94.56 86.16L91.90 74.82L81.47 71.53L73.70 79.58L76.36 90.92L86.79 94.20ZM76.36 90.92L73.70 79.58L63.26 76.29L55.50 84.34L58.16 95.68L68.59 98.96ZM99.68 66.76L97.02 55.42L86.58 52.13L78.80 60.18L81.47 71.53L91.90 74.82ZM81.47 71.53L78.80 60.18L68.37 56.90L60.60 64.95L63.26 76.29L73.70 79.58ZM107.66 100.79L105.00 89.45L94.56 86.16L86.79 94.20L89.45 105.54L99.88 108.83ZM89.45 105.54L86.79 94.20L76.36 90.92L68.59 98.96L71.25 110.30L81.68 113.59ZM112.78 81.40L110.12 70.06L99.68 66.76L91.90 74.82L94.56 86.16L105.00 89.45ZM45.07 81.06L42.40 69.72L31.97 66.44L24.21 74.50L26.88 85.83L37.30 89.11ZM26.88 85.83L24.21 74.50L13.78 71.22L6.02 79.28L8.69 90.60L19.12 93.88ZM50.16 61.67L47.50 50.33L37.06 47.05L29.30 55.11L31.97 66.44L42.40 69.72ZM31.97 66.44L29.30 55.11L18.86 51.83L11.11 59.89L13.78 71.22L24.21 74.50ZM58.16 95.68L55.50 84.34L45.07 81.06L37.30 89.11L39.97 100.44L50.40 103.73ZM39.97 100.44L37.30 89.11L26.88 85.83L19.12 93.88L21.79 105.21L32.21 108.49ZM63.26 76.29L60.60 64.95L50.16 61.67L42.40 69.72L45.07 81.06L55.50 84.34ZM123.03 42.60L120.37 31.25L109.92 27.96L102.14 36.02L104.80 47.36L115.24 50.66ZM104.80 47.36L102.14 36.02L91.69 32.73L83.92 40.78L86.58 52.13L97.02 55.42ZM128.16 23.19L125.50 11.84L115.05 8.54L107.26 16.61L109.92 27.96L120.37 31.25ZM109.92 27.96L107.26 16.61L96.81 13.32L89.03 21.38L91.69 32.73L102.14 36.02ZM136.13 57.25L133.47 45.90L123.03 42.60L115.24 50.66L117.90 62.00L128.34 65.30ZM117.90 62.00L115.24 50.66L104.80 47.36L97.02 55.42L99.68 66.76L110.12 70.06ZM141.26 37.84L138.60 26.49L128.16 23.19L120.37 31.25L123.03 42.60L133.47 45.90ZM73.48 37.50L70.81 26.15L60.37 22.87L52.60 30.93L55.26 42.27L65.70 45.56ZM55.26 42.27L52.60 30.93L42.16 27.65L34.39 35.71L37.06 47.05L47.50 50.33ZM78.59 18.09L75.92 6.74L65.48 3.46L57.70 11.52L60.37 22.87L70.81 26.15ZM60.37 22.87L57.70 11.52L47.26 8.24L39.49 16.30L42.16 27.65L52.60 30.93ZM86.58 52.13L83.92 40.78L73.48 37.50L65.70 45.56L68.37 56.90L78.80 60.18ZM68.37 56.90L65.70 45.56L55.26 42.27L47.50 50.33L50.16 61.67L60.60 64.95ZM91.69 32.73L89.03 21.38L78.59 18.09L70.81 26.15L73.48 37.50L83.92 40.78ZM115.63 134.80L112.97 123.47L102.54 120.17L94.77 128.21L97.43 139.55L107.86 142.84ZM97.43 139.55L94.77 128.21L84.34 124.92L76.58 132.96L79.24 144.29L89.66 147.58ZM120.75 115.42L118.09 104.08L107.66 100.79L99.88 108.83L102.54 120.17L112.97 123.47ZM102.54 120.17L99.88 108.83L89.45 105.54L81.68 113.59L84.34 124.92L94.77 128.21ZM128.72 149.43L126.06 138.10L115.63 134.80L107.86 142.84L110.51 154.17L120.94 157.47ZM110.51 154.17L107.86 142.84L97.43 139.55L89.66 147.58L92.32 158.91L102.75 162.21ZM133.84 130.06L131.18 118.72L120.75 115.42L112.97 123.47L115.63 134.80L126.06 138.10ZM66.15 129.67L63.49 118.34L53.06 115.06L45.30 123.10L47.97 134.43L58.39 137.72ZM47.97 134.43L45.30 123.10L34.88 119.82L27.12 127.86L29.79 139.19L40.21 142.47ZM71.25 110.30L68.59 98.96L58.16 95.68L50.40 103.73L53.06 115.06L63.49 118.34ZM53.06 115.06L50.40 103.73L39.97 100.44L32.21 108.49L34.88 119.82L45.30 123.10ZM79.24 144.29L76.58 132.96L66.15 129.67L58.39 137.72L61.05 149.04L71.48 152.33ZM61.05 149.04L58.39 137.72L47.97 134.43L40.21 142.47L42.88 153.80L53.30 157.08ZM84.34 124.92L81.68 113.59L71.25 110.30L63.49 118.34L66.15 129.67L76.58 132.96ZM144.09 91.29L141.44 79.95L131.00 76.65L123.22 84.70L125.87 96.04L136.31 99.34ZM125.87 96.04L123.22 84.70L112.78 81.40L105.00 89.45L107.66 100.79L118.09 104.08ZM149.23 71.90L146.57 60.55L136.13 57.25L128.34 65.30L131.00 76.65L141.44 79.95ZM131.00 76.65L128.34 65.30L117.90 62.00L110.12 70.06L112.78 81.40L123.22 84.70ZM157.19 105.94L154.53 94.59L144.09 91.29L136.31 99.34L138.97 110.68L149.40 113.98ZM138.97 110.68L136.31 99.34L125.87 96.04L118.09 104.08L120.75 115.42L131.18 118.72ZM162.32 86.55L159.67 75.20L149.23 71.90L141.44 79.95L144.09 91.29L154.53 94.59ZM233.28 266.57L230.65 255.24L220.22 251.92L212.44 259.94L215.08 271.26L225.50 274.58ZM256.66 242.54L254.02 231.20L243.59 227.88L235.80 235.90L238.44 247.23L248.86 250.55ZM238.44 247.23L235.80 235.90L225.37 232.58L217.59 240.59L220.22 251.92L230.65 255.24ZM261.82 223.19L259.19 211.85L248.75 208.52L240.96 216.54L243.59 227.88L254.02 231.20ZM243.59 227.88L240.96 216.54L230.52 213.22L222.73 221.24L225.37 232.58L235.80 235.90ZM269.72 257.20L267.09 245.86L256.66 242.54L248.86 250.55L251.50 261.89L261.92 265.21ZM251.50 261.89L248.86 250.55L238.44 247.23L230.65 255.24L233.28 266.57L243.71 269.89ZM274.89 237.85L272.25 226.51L261.82 223.19L254.02 231.20L256.66 242.54L267.09 245.86ZM183.82 261.32L181.18 249.99L170.76 246.68L162.99 254.70L165.63 266.02L176.05 269.33ZM165.63 266.02L162.99 254.70L152.57 251.39L144.80 259.41L147.45 270.73L157.86 274.03ZM134.39 256.10L131.74 244.78L121.32 241.48L113.56 249.50L116.21 260.82L126.62 264.12ZM116.21 260.82L113.56 249.50L103.15 246.20L95.39 254.22L98.05 265.53L108.46 268.83ZM264.25 150.41L261.61 139.06L251.17 135.74L243.36 143.77L246.00 155.12L256.44 158.44ZM246.00 155.12L243.36 143.77L232.92 140.45L225.12 148.49L227.76 159.83L238.20 163.15ZM269.42 131.03L266.78 119.67L256.33 116.35L248.53 124.39L251.17 135.74L261.61 139.06ZM251.17 135.74L248.53 124.39L238.08 121.07L230.28 129.10L232.92 140.45L243.36 143.77ZM259.08 169.79L256.44 158.44L246.00 155.12L238.20 163.15L240.84 174.50L251.28 177.82ZM274.60 111.64L271.96 100.28L261.51 96.96L253.69 105.00L256.33 116.35L266.78 119.67ZM266.99 203.83L264.35 192.48L253.91 189.16L246.11 197.18L248.75 208.52L259.19 211.85ZM272.15 184.46L269.52 173.11L259.08 169.79L251.28 177.82L253.91 189.16L264.35 192.48ZM186.16 188.63L183.52 177.29L173.09 173.98L165.30 182.01L167.95 193.35L178.38 196.65ZM167.95 193.35L165.30 182.01L154.88 178.71L147.10 186.74L149.75 198.07L160.17 201.37ZM191.30 169.26L188.66 157.92L178.22 154.61L170.44 162.65L173.09 173.98L183.52 177.29ZM173.09 173.98L170.44 162.65L160.01 159.34L152.23 167.37L154.88 178.71L165.30 182.01ZM199.24 203.28L196.59 191.94L186.16 188.63L178.38 196.65L181.02 207.99L191.45 211.30ZM181.02 207.99L178.38 196.65L167.95 193.35L160.17 201.37L162.82 212.70L173.24 216.01ZM204.38 183.91L201.74 172.57L191.30 169.26L183.52 177.29L186.16 188.63L196.59 191.94ZM136.67 183.43L134.02 172.10L123.60 168.80L115.83 176.83L118.48 188.16L128.90 191.46ZM118.48 188.16L115.83 176.83L105.40 173.54L97.64 181.57L100.29 192.89L110.71 196.19ZM141.80 164.07L139.15 152.73L128.72 149.43L120.94 157.47L123.60 168.80L134.02 172.10ZM123.60 168.80L120.94 157.47L110.51 154.17L102.75 162.21L105.40 173.54L115.83 176.83ZM149.75 198.07L147.10 186.74L136.67 183.43L128.90 191.46L131.55 202.79L141.98 206.09ZM131.55 202.79L128.90 191.46L118.48 188.16L110.71 196.19L113.37 207.52L123.79 210.81ZM154.88 178.71L152.23 167.37L141.80 164.07L134.02 172.10L136.67 183.43L147.10 186.74ZM214.68 145.17L212.04 133.82L201.59 130.51L193.80 138.55L196.45 149.89L206.88 153.20ZM196.45 149.89L193.80 138.55L183.36 135.24L175.58 143.27L178.22 154.61L188.66 157.92ZM219.83 125.79L217.19 114.44L206.75 111.13L198.95 119.16L201.59 130.51L212.04 133.82ZM201.59 130.51L198.95 119.16L188.51 115.86L180.72 123.89L183.36 135.24L193.80 138.55ZM227.76 159.83L225.12 148.49L214.68 145.17L206.88 153.20L209.53 164.55L219.96 167.86ZM209.53 164.55L206.88 153.20L196.45 149.89L188.66 157.92L191.30 169.26L201.74 172.57ZM232.92 140.45L230.28 129.10L219.83 125.79L212.04 133.82L214.68 145.17L225.12 148.49ZM165.14 139.97L162.49 128.63L152.05 125.32L144.27 133.36L146.92 144.70L157.36 148.00ZM146.92 144.70L144.27 133.36L133.84 130.06L126.06 138.10L128.72 149.43L139.15 152.73ZM170.28 120.59L167.63 109.24L157.19 105.94L149.40 113.98L152.05 125.32L162.49 128.63ZM152.05 125.32L149.40 113.98L138.97 110.68L131.18 118.72L133.84 130.06L144.27 133.36ZM178.22 154.61L175.58 143.27L165.14 139.97L157.36 148.00L160.01 159.34L170.44 162.65ZM160.01 159.34L157.36 148.00L146.92 144.70L139.15 152.73L141.80 164.07L152.23 167.37ZM183.36 135.24L180.72 123.89L170.28 120.59L162.49 128.63L165.14 139.97L175.58 143.27ZM207.16 237.28L204.52 225.94L194.09 222.63L186.31 230.65L188.96 241.98L199.38 245.29ZM188.96 241.98L186.31 230.65L175.89 227.34L168.11 235.36L170.76 246.68L181.18 249.99ZM212.31 217.92L209.66 206.59L199.24 203.28L191.45 211.30L194.09 222.63L204.52 225.94ZM194.09 222.63L191.45 211.30L181.02 207.99L173.24 216.01L175.89 227.34L186.31 230.65ZM220.22 251.92L217.59 240.59L207.16 237.28L199.38 245.29L202.02 256.62L212.44 259.94ZM202.02 256.62L199.38 245.29L188.96 241.98L181.18 249.99L183.82 261.32L194.24 264.63ZM225.37 232.58L222.73 221.24L212.31 217.92L204.52 225.94L207.16 237.28L217.59 240.59ZM157.69 232.05L155.05 220.72L144.63 217.42L136.86 225.44L139.50 236.76L149.92 240.07ZM139.50 236.76L136.86 225.44L126.44 222.14L118.67 230.16L121.32 241.48L131.74 244.78ZM162.82 212.70L160.17 201.37L149.75 198.07L141.98 206.09L144.63 217.42L155.05 220.72ZM144.63 217.42L141.98 206.09L131.55 202.79L123.79 210.81L126.44 222.14L136.86 225.44ZM170.76 246.68L168.11 235.36L157.69 232.05L149.92 240.07L152.57 251.39L162.99 254.70ZM152.57 251.39L149.92 240.07L139.50 236.76L131.74 244.78L134.39 256.10L144.80 259.41ZM175.89 227.34L173.24 216.01L162.82 212.70L155.05 220.72L157.69 232.05L168.11 235.36ZM235.68 193.86L233.04 182.52L222.61 179.20L214.81 187.23L217.45 198.57L227.89 201.88ZM217.45 198.57L214.81 187.23L204.38 183.91L196.59 191.94L199.24 203.28L209.66 206.59ZM240.84 174.50L238.20 163.15L227.76 159.83L219.96 167.86L222.61 179.20L233.04 182.52ZM222.61 179.20L219.96 167.86L209.53 164.55L201.74 172.57L204.38 183.91L214.81 187.23ZM248.75 208.52L246.11 197.18L235.68 193.86L227.89 201.88L230.52 213.22L240.96 216.54ZM230.52 213.22L227.89 201.88L217.45 198.57L209.66 206.59L212.31 217.92L222.73 221.24ZM253.91 189.16L251.28 177.82L240.84 174.50L233.04 182.52L235.68 193.86L246.11 197.18ZM0.68 56.61L-2.00 45.28L-12.43 42.01L-20.18 50.07L-17.50 61.40L-7.08 64.67ZM8.69 90.60L6.02 79.28L-4.40 76.00L-12.15 84.06L-9.48 95.38L0.94 98.66ZM13.78 71.22L11.11 59.89L0.68 56.61L-7.08 64.67L-4.40 76.00L6.02 79.28ZM1.47 182.66L-1.20 171.35L-11.61 168.07L-19.35 176.11L-16.68 187.42L-6.27 190.70ZM6.55 163.31L3.88 151.99L-6.54 148.72L-14.28 156.76L-11.61 168.07L-1.20 171.35ZM16.70 124.58L14.03 113.26L3.61 109.98L-4.14 118.03L-1.46 129.35L8.95 132.63ZM21.79 105.21L19.12 93.88L8.69 90.60L0.94 98.66L3.61 109.98L14.03 113.26ZM3.61 109.98L0.94 98.66L-9.48 95.38L-17.23 103.43L-14.55 114.76L-4.14 118.03ZM29.79 139.19L27.12 127.86L16.70 124.58L8.95 132.63L11.62 143.95L22.04 147.23ZM11.62 143.95L8.95 132.63L-1.46 129.35L-9.21 137.40L-6.54 148.72L3.88 151.99ZM34.88 119.82L32.21 108.49L21.79 105.21L14.03 113.26L16.70 124.58L27.12 127.86ZM58.85 221.71L56.19 210.40L45.78 207.11L38.03 215.14L40.69 226.45L51.10 229.74ZM40.69 226.45L38.03 215.14L27.62 211.85L19.88 219.88L22.54 231.19L32.95 234.48ZM63.94 202.37L61.28 191.05L50.87 187.76L43.12 195.79L45.78 207.11L56.19 210.40ZM45.78 207.11L43.12 195.79L32.70 192.51L24.96 200.54L27.62 211.85L38.03 215.14ZM71.92 236.32L69.26 225.00L58.85 221.71L51.10 229.74L53.76 241.05L64.17 244.34ZM53.76 241.05L51.10 229.74L40.69 226.45L32.95 234.48L35.61 245.78L46.02 249.07ZM77.01 216.98L74.36 205.66L63.94 202.37L56.19 210.40L58.85 221.71L69.26 225.00ZM9.47 216.60L6.81 205.29L-3.60 202.01L-11.34 210.04L-8.67 221.35L1.74 224.63ZM14.55 197.26L11.88 185.94L1.47 182.66L-6.27 190.70L-3.60 202.01L6.81 205.29ZM22.54 231.19L19.88 219.88L9.47 216.60L1.74 224.63L4.40 235.94L14.80 239.22ZM4.40 235.94L1.74 224.63L-8.67 221.35L-16.40 229.38L-13.73 240.68L-3.33 243.96ZM27.62 211.85L24.96 200.54L14.55 197.26L6.81 205.29L9.47 216.60L19.88 219.88ZM87.22 178.27L84.56 166.95L74.14 163.66L66.38 171.69L69.04 183.02L79.46 186.31ZM69.04 183.02L66.38 171.69L55.96 168.41L48.20 176.44L50.87 187.76L61.28 191.05ZM92.32 158.91L89.66 147.58L79.24 144.29L71.48 152.33L74.14 163.66L84.56 166.95ZM74.14 163.66L71.48 152.33L61.05 149.04L53.30 157.08L55.96 168.41L66.38 171.69ZM100.29 192.89L97.64 181.57L87.22 178.27L79.46 186.31L82.11 197.63L92.53 200.92ZM82.11 197.63L79.46 186.31L69.04 183.02L61.28 191.05L63.94 202.37L74.36 205.66ZM105.40 173.54L102.75 162.21L92.32 158.91L84.56 166.95L87.22 178.27L97.64 181.57ZM37.79 173.16L35.12 161.83L24.71 158.55L16.96 166.59L19.63 177.91L30.04 181.19ZM19.63 177.91L16.96 166.59L6.55 163.31L-1.20 171.35L1.47 182.66L11.88 185.94ZM42.88 153.80L40.21 142.47L29.79 139.19L22.04 147.23L24.71 158.55L35.12 161.83ZM24.71 158.55L22.04 147.23L11.62 143.95L3.88 151.99L6.55 163.31L16.96 166.59ZM50.87 187.76L48.20 176.44L37.79 173.16L30.04 181.19L32.70 192.51L43.12 195.79ZM32.70 192.51L30.04 181.19L19.63 177.91L11.88 185.94L14.55 197.26L24.96 200.54ZM55.96 168.41L53.30 157.08L42.88 153.80L35.12 161.83L37.79 173.16L48.20 176.44ZM79.89 270.25L77.23 258.94L66.83 255.65L59.08 263.67L61.74 274.98L72.14 278.27ZM84.98 250.92L82.33 239.61L71.92 236.32L64.17 244.34L66.83 255.65L77.23 258.94ZM66.83 255.65L64.17 244.34L53.76 241.05L46.02 249.07L48.68 260.38L59.08 263.67ZM98.05 265.53L95.39 254.22L84.98 250.92L77.23 258.94L79.89 270.25L90.29 273.55ZM30.53 265.11L27.87 253.81L17.47 250.52L9.73 258.54L12.40 269.85L22.80 273.13ZM12.40 269.85L9.73 258.54L-0.67 255.26L-8.40 263.29L-5.73 274.59L4.66 277.87ZM35.61 245.78L32.95 234.48L22.54 231.19L14.80 239.22L17.47 250.52L27.87 253.81ZM17.47 250.52L14.80 239.22L4.40 235.94L-3.33 243.96L-0.67 255.26L9.73 258.54ZM48.68 260.38L46.02 249.07L35.61 245.78L27.87 253.81L30.53 265.11L40.93 268.40ZM108.26 226.86L105.60 215.54L95.19 212.24L87.43 220.27L90.08 231.59L100.50 234.88ZM90.08 231.59L87.43 220.27L77.01 216.98L69.26 225.00L71.92 236.32L82.33 239.61ZM113.37 207.52L110.71 196.19L100.29 192.89L92.53 200.92L95.19 212.24L105.60 215.54ZM95.19 212.24L92.53 200.92L82.11 197.63L74.36 205.66L77.01 216.98L87.43 220.27ZM121.32 241.48L118.67 230.16L108.26 226.86L100.50 234.88L103.15 246.20L113.56 249.50ZM103.15 246.20L100.50 234.88L90.08 231.59L82.33 239.61L84.98 250.92L95.39 254.22ZM126.44 222.14L123.79 210.81L113.37 207.52L105.60 215.54L108.26 226.86L118.67 230.16Z"/></svg>
