<svg xmlns="http://www.w3.org/2000/svg" width="256" height="256" viewBox="0 0 256 256"><path data-band="2" fill="#f97316" fill-opacity="0.35" d="M213.11 213.58L210.48 202.29L200.09 198.96L192.33 206.94L194.97 218.24L205.35 221.56ZM194.97 218.24L192.33 206.94L181.95 203.62L174.19 211.60L176.83 222.89L187.21 226.21ZM226.13 228.20L223.50 216.91L213.11 213.58L205.35 221.56L207.99 232.85L218.37 236.17ZM207.99 232.85L205.35 221.56L194.97 218.24L187.21 226.21L189.85 237.50L200.23 240.82ZM44.31 149.37L41.65 138.08L31.27 134.79L23.55 142.79L26.20 154.07L36.58 157.36ZM26.20 154.07L23.55 142.79L13.17 139.50L5.45 147.50L8.11 158.78L18.48 162.07ZM31.27 134.79L28.61 123.51L18.23 120.22L10.51 128.22L13.17 139.50L23.55 142.79ZM57.34 163.95L54.69 152.66L44.31 149.37L36.58 157.36L39.24 168.65L49.61 171.94ZM39.24 168.65L36.58 157.36L26.20 154.07L18.48 162.07L21.14 173.34L31.52 176.63ZM0.13 124.93L-2.53 113.65L-12.91 110.37L-20.63 118.37L-17.96 129.65L-7.59 132.93ZM8.11 158.78L5.45 147.50L-4.93 144.21L-12.64 152.21L-9.98 163.49L0.39 166.77ZM13.17 139.50L10.51 128.22L0.13 124.93L-7.59 132.93L-4.93 144.21L5.45 147.50ZM270.31 252.82L267.69 241.52L257.30 238.19L249.54 246.16L252.16 257.45L262.55 260.78ZM63.10 270.12L60.45 258.85L50.08 255.56L42.37 263.53L45.02 274.80L55.38 278.09ZM114.54 203.02L111.89 191.73L101.51 188.43L93.78 196.41L96.42 207.70L106.80 211.00ZM96.42 207.70L93.78 196.41L83.40 193.11L75.67 201.09L78.32 212.38L88.69 215.68ZM119.63 183.75L116.99 172.46L106.60 169.16L98.87 177.14L101.51 188.43L111.89 191.73ZM101.51 188.43L98.87 177.14L88.48 173.84L80.75 181.83L83.40 193.11L93.78 196.41ZM127.56 217.61L124.92 206.33L114.54 203.02L106.80 211.00L109.45 222.28L119.82 225.59ZM109.45 222.28L106.80 211.00L96.42 207.70L88.69 215.68L91.34 226.96L101.71 230.26ZM132.66 198.35L130.02 187.06L119.63 183.75L111.89 191.73L114.54 203.02L124.92 206.33ZM65.29 197.80L62.64 186.52L52.27 183.22L44.54 191.21L47.20 202.48L57.57 205.78ZM47.20 202.48L44.54 191.21L34.17 187.91L26.45 195.90L29.11 207.17L39.48 210.47ZM70.37 178.53L67.72 167.24L57.34 163.95L49.61 171.94L52.27 183.22L62.64 186.52ZM52.27 183.22L49.61 171.94L39.24 168.65L31.52 176.63L34.17 187.91L44.54 191.21ZM78.32 212.38L75.67 201.09L65.29 197.80L57.57 205.78L60.22 217.06L70.59 220.35ZM60.22 217.06L57.57 205.78L47.20 202.48L39.48 210.47L42.13 221.74L52.50 225.04ZM83.40 193.11L80.75 181.83L70.37 178.53L62.64 186.52L65.29 197.80L75.67 201.09ZM75.45 159.26L72.80 147.97L62.42 144.67L54.69 152.66L57.34 163.95L67.72 167.24ZM88.48 173.84L85.83 162.55L75.45 159.26L67.72 167.24L70.37 178.53L80.75 181.83ZM135.48 251.46L132.84 240.18L122.46 236.87L114.73 244.85L117.37 256.12L127.75 259.43ZM117.37 256.12L114.73 244.85L104.36 241.54L96.63 249.51L99.27 260.79L109.64 264.09ZM140.58 232.21L137.94 220.92L127.56 217.61L119.82 225.59L122.46 236.87L132.84 240.18ZM122.46 236.87L119.82 225.59L109.45 222.28L101.71 230.26L104.36 241.54L114.73 244.85ZM148.49 266.06L145.86 254.77L135.48 251.46L127.75 259.43L130.38 270.71L140.76 274.02ZM153.60 246.81L150.96 235.52L140.58 232.21L132.84 240.18L135.48 251.46L145.86 254.77ZM86.26 246.21L83.61 234.93L73.24 231.63L65.52 239.61L68.17 250.88L78.53 254.18ZM68.17 250.88L65.52 239.61L55.15 236.31L47.43 244.29L50.08 255.56L60.45 258.85ZM91.34 226.96L88.69 215.68L78.32 212.38L70.59 220.35L73.24 231.63L83.61 234.93ZM73.24 231.63L70.59 220.35L60.22 217.06L52.50 225.04L55.15 236.31L65.52 239.61ZM99.27 260.79L96.63 249.51L86.26 246.21L78.53 254.18L81.18 265.45L91.55 268.76ZM81.18 265.45L78.53 254.18L68.17 250.88L60.45 258.85L63.10 270.12L73.46 273.42ZM104.36 241.54L101.71 230.26L91.34 226.96L83.61 234.93L86.26 246.21L96.63 249.51ZM163.81 208.28L161.17 196.99L150.79 193.68L143.04 201.66L145.68 212.95L156.06 216.26ZM145.68 212.95L143.04 201.66L132.66 198.35L124.92 206.33L127.56 217.61L137.94 220.92ZM150.79 193.68L148.15 182.39L137.76 179.08L130.02 187.06L132.66 198.35L143.04 201.66ZM176.83 222.89L174.19 211.60L163.81 208.28L156.06 216.26L158.70 227.55L169.08 230.86ZM158.70 227.55L156.06 216.26L145.68 212.95L137.94 220.92L140.58 232.21L150.96 235.52ZM0.92 250.36L-1.73 239.10L-12.10 235.81L-19.80 243.79L-17.14 255.05L-6.78 258.34ZM5.97 231.12L3.31 219.85L-7.05 216.56L-14.75 224.55L-12.10 235.81L-1.73 239.10ZM16.08 192.61L13.42 181.33L3.05 178.05L-4.66 186.04L-2.00 197.31L8.37 200.60ZM21.14 173.34L18.48 162.07L8.11 158.78L0.39 166.77L3.05 178.05L13.42 181.33ZM3.05 178.05L0.39 166.77L-9.98 163.49L-17.69 171.48L-15.03 182.75L-4.66 186.04ZM29.11 207.17L26.45 195.90L16.08 192.61L8.37 200.60L11.02 211.87L21.39 215.16ZM11.02 211.87L8.37 200.60L-2.00 197.31L-9.71 205.29L-7.05 216.56L3.31 219.85ZM34.17 187.91L31.52 176.63L21.14 173.34L13.42 181.33L16.08 192.61L26.45 195.90ZM13.94 264.92L11.28 253.65L0.92 250.36L-6.78 258.34L-4.13 269.60L6.23 272.89ZM37.07 240.99L34.41 229.72L24.05 226.43L16.34 234.41L18.99 245.68L29.35 248.97ZM18.99 245.68L16.34 234.41L5.97 231.12L-1.73 239.10L0.92 250.36L11.28 253.65ZM42.13 221.74L39.48 210.47L29.11 207.17L21.39 215.16L24.05 226.43L34.41 229.72ZM24.05 226.43L21.39 215.16L11.02 211.87L3.31 219.85L5.97 231.12L16.34 234.41ZM50.08 255.56L47.43 244.29L37.07 240.99L29.35 248.97L32.01 260.24L42.37 263.53ZM32.01 260.24L29.35 248.97L18.99 245.68L11.28 253.65L13.94 264.92L24.30 268.21ZM55.15 236.31L52.50 225.04L42.13 221.74L34.41 229.72L37.07 240.99L47.43 244.29ZM234.01 262.08L231.39 250.79L221.00 247.47L213.25 255.43L215.87 266.72L226.26 270.05ZM215.87 266.72L213.25 255.43L202.86 252.11L195.11 260.08L197.74 271.36L208.12 274.68ZM239.15 242.83L236.52 231.53L226.13 228.20L218.37 236.17L221.00 247.47L231.39 250.79ZM221.00 247.47L218.37 236.17L207.99 232.85L200.23 240.82L202.86 252.11L213.25 255.43ZM252.16 257.45L249.54 246.16L239.15 242.83L231.39 250.79L234.01 262.08L244.40 265.41ZM184.73 256.75L182.10 245.47L171.72 242.15L163.97 250.12L166.61 261.40L176.99 264.72ZM166.61 261.40L163.97 250.12L153.60 246.81L145.86 254.77L148.49 266.06L158.87 269.37ZM189.85 237.50L187.21 226.21L176.83 222.89L169.08 230.86L171.72 242.15L182.10 245.47ZM171.72 242.15L169.08 230.86L158.70 227.55L150.96 235.52L153.60 246.81L163.97 250.12ZM202.86 252.11L200.23 240.82L189.85 237.50L182.10 245.47L184.73 256.75L195.11 260.08Z"/><path data-band="3" fill="#dc2626" fill-opacity="0.35" d="M259.40 39.88L256.77 28.55L246.34 25.22L238.56 33.23L241.19 44.56L251.61 47.88ZM264.56 20.54L261.92 9.21L251.50 5.89L243.71 13.89L246.34 25.22L256.77 28.55ZM272.45 54.53L269.82 43.20L259.40 39.88L251.61 47.88L254.24 59.21L264.66 62.53ZM228.14 29.91L225.50 18.58L215.08 15.26L207.30 23.27L209.94 34.60L220.35 37.91ZM209.94 34.60L207.30 23.27L196.88 19.96L189.11 27.96L191.75 39.29L202.16 42.60ZM233.28 10.57L230.65 -0.76L220.22 -4.08L212.44 3.94L215.08 15.26L225.50 18.58ZM215.08 15.26L212.44 3.94L202.02 0.62L194.24 8.63L196.88 19.96L207.30 23.27ZM241.19 44.56L238.56 33.23L228.14 29.91L220.35 37.91L222.99 49.24L233.41 52.56ZM222.99 49.24L220.35 37.91L209.94 34.60L202.16 42.60L204.80 53.92L215.21 57.24ZM246.34 25.22L243.71 13.89L233.28 10.57L225.50 18.58L228.14 29.91L238.56 33.23ZM269.72 1.20L267.09 -10.14L256.66 -13.46L248.86 -5.45L251.50 5.89L261.92 9.21ZM251.50 5.89L248.86 -5.45L238.44 -8.77L230.65 -0.76L233.28 10.57L243.71 13.89ZM249.09 78.53L246.46 67.20L236.04 63.88L228.26 71.88L230.90 83.20L241.31 86.52ZM230.90 83.20L228.26 71.88L217.85 68.56L210.07 76.56L212.71 87.87L223.12 91.20ZM254.24 59.21L251.61 47.88L241.19 44.56L233.41 52.56L236.04 63.88L246.46 67.20ZM236.04 63.88L233.41 52.56L222.99 49.24L215.21 57.24L217.85 68.56L228.26 71.88ZM262.13 93.17L259.50 81.85L249.09 78.53L241.31 86.52L243.94 97.84L254.35 101.17ZM243.94 97.84L241.31 86.52L230.90 83.20L223.12 91.20L225.75 102.51L236.16 105.83ZM267.29 73.86L264.66 62.53L254.24 59.21L246.46 67.20L249.09 78.53L259.50 81.85ZM150.27 67.99L147.62 56.68L137.22 53.38L129.46 61.38L132.11 72.69L142.51 76.00ZM132.11 72.69L129.46 61.38L119.06 58.08L111.30 66.08L113.95 77.39L124.35 80.69ZM155.39 48.68L152.74 37.36L142.33 34.05L134.57 42.06L137.22 53.38L147.62 56.68ZM137.22 53.38L134.57 42.06L124.16 38.76L116.41 46.77L119.06 58.08L129.46 61.38ZM163.32 82.61L160.67 71.30L150.27 67.99L142.51 76.00L145.15 87.30L155.56 90.61ZM145.15 87.30L142.51 76.00L132.11 72.69L124.35 80.69L127.00 92.00L137.40 95.30ZM168.44 63.30L165.79 51.99L155.39 48.68L147.62 56.68L150.27 67.99L160.67 71.30ZM100.90 62.78L98.25 51.48L87.85 48.18L80.10 56.19L82.76 67.49L93.16 70.79ZM82.76 67.49L80.10 56.19L69.71 52.89L61.96 60.90L64.62 72.20L75.01 75.50ZM106.00 43.47L103.35 32.16L92.95 28.86L85.20 36.87L87.85 48.18L98.25 51.48ZM87.85 48.18L85.20 36.87L74.80 33.58L67.05 41.59L69.71 52.89L80.10 56.19ZM113.95 77.39L111.30 66.08L100.90 62.78L93.16 70.79L95.81 82.09L106.20 85.39ZM95.81 82.09L93.16 70.79L82.76 67.49L75.01 75.50L77.67 86.80L88.06 90.09ZM119.06 58.08L116.41 46.77L106.00 43.47L98.25 51.48L100.90 62.78L111.30 66.08ZM178.69 24.65L176.05 13.33L165.63 10.02L157.86 18.03L160.51 29.35L170.92 32.66ZM160.51 29.35L157.86 18.03L147.45 14.73L139.68 22.74L142.33 34.05L152.74 37.36ZM183.82 5.32L181.18 -6.01L170.76 -9.32L162.99 -1.30L165.63 10.02L176.05 13.33ZM165.63 10.02L162.99 -1.30L152.57 -4.61L144.80 3.41L147.45 14.73L157.86 18.03ZM191.75 39.29L189.11 27.96L178.69 24.65L170.92 32.66L173.56 43.98L183.97 47.29ZM173.56 43.98L170.92 32.66L160.51 29.35L152.74 37.36L155.39 48.68L165.79 51.99ZM196.88 19.96L194.24 8.63L183.82 5.32L176.05 13.33L178.69 24.65L189.11 27.96ZM129.27 19.43L126.62 8.12L116.21 4.82L108.46 12.83L111.11 24.15L121.51 27.45ZM111.11 24.15L108.46 12.83L98.05 9.53L90.29 17.55L92.95 28.86L103.35 32.16ZM134.39 0.10L131.74 -11.22L121.32 -14.52L113.56 -6.50L116.21 4.82L126.62 8.12ZM116.21 4.82L113.56 -6.50L103.15 -9.80L95.39 -1.78L98.05 9.53L108.46 12.83ZM142.33 34.05L139.68 22.74L129.27 19.43L121.51 27.45L124.16 38.76L134.57 42.06ZM124.16 38.76L121.51 27.45L111.11 24.15L103.35 32.16L106.00 43.47L116.41 46.77ZM147.45 14.73L144.80 3.41L134.39 0.10L126.62 8.12L129.27 19.43L139.68 22.74ZM171.24 116.54L168.60 105.23L158.20 101.92L150.44 109.92L153.08 121.22L163.48 124.53ZM153.08 121.22L150.44 109.92L140.04 106.61L132.29 114.60L134.94 125.90L145.33 129.21ZM176.36 97.23L173.72 85.92L163.32 82.61L155.56 90.61L158.20 101.92L168.60 105.23ZM158.20 101.92L155.56 90.61L145.15 87.30L137.40 95.30L140.04 106.61L150.44 109.92ZM184.28 131.16L181.64 119.85L171.24 116.54L163.48 124.53L166.12 135.83L176.52 139.15ZM166.12 135.83L163.48 124.53L153.08 121.22L145.33 129.21L147.97 140.51L158.37 143.82ZM189.40 111.86L186.76 100.55L176.36 97.23L168.60 105.23L171.24 116.54L181.64 119.85ZM121.90 111.30L119.25 100.00L108.85 96.69L101.11 104.69L103.75 115.99L114.15 119.29ZM103.75 115.99L101.11 104.69L90.71 101.39L82.97 109.39L85.62 120.69L96.01 123.99ZM127.00 92.00L124.35 80.69L113.95 77.39L106.20 85.39L108.85 96.69L119.25 100.00ZM108.85 96.69L106.20 85.39L95.81 82.09L88.06 90.09L90.71 101.39L101.11 104.69ZM134.94 125.90L132.29 114.60L121.90 111.30L114.15 119.29L116.79 130.59L127.19 133.90ZM116.79 130.59L114.15 119.29L103.75 115.99L96.01 123.99L98.66 135.28L109.05 138.58ZM140.04 106.61L137.40 95.30L127.00 92.00L119.25 100.00L121.90 111.30L132.29 114.60ZM199.66 73.24L197.02 61.92L186.61 58.61L178.85 66.61L181.49 77.93L191.89 81.24ZM181.49 77.93L178.85 66.61L168.44 63.30L160.67 71.30L163.32 82.61L173.72 85.92ZM204.80 53.92L202.16 42.60L191.75 39.29L183.97 47.29L186.61 58.61L197.02 61.92ZM186.61 58.61L183.97 47.29L173.56 43.98L165.79 51.99L168.44 63.30L178.85 66.61ZM212.71 87.87L210.07 76.56L199.66 73.24L191.89 81.24L194.53 92.55L204.94 95.87ZM194.53 92.55L191.89 81.24L181.49 77.93L173.72 85.92L176.36 97.23L186.76 100.55ZM217.85 68.56L215.21 57.24L204.80 53.92L197.02 61.92L199.66 73.24L210.07 76.56ZM220.22 -4.08L217.59 -15.41L207.16 -18.72L199.38 -10.71L202.02 0.62L212.44 3.94ZM202.02 0.62L199.38 -10.71L188.96 -14.02L181.18 -6.01L183.82 5.32L194.24 8.63ZM152.57 -4.61L149.92 -15.93L139.50 -19.24L131.74 -11.22L134.39 0.10L144.80 3.41ZM241.54 170.38L238.91 159.07L228.51 155.74L220.74 163.73L223.37 175.03L233.77 178.35ZM223.37 175.03L220.74 163.73L210.35 160.40L202.58 168.39L205.22 179.69L215.61 183.01ZM246.68 151.09L244.05 139.77L233.65 136.45L225.88 144.44L228.51 155.74L238.91 159.07ZM228.51 155.74L225.88 144.44L215.48 141.11L207.71 149.10L210.35 160.40L220.74 163.73ZM254.57 185.01L251.94 173.70L241.54 170.38L233.77 178.35L236.40 189.66L246.80 192.99ZM236.40 189.66L233.77 178.35L223.37 175.03L215.61 183.01L218.24 194.31L228.64 197.63ZM259.71 165.72L257.09 154.41L246.68 151.09L238.91 159.07L241.54 170.38L251.94 173.70ZM192.19 165.07L189.55 153.77L179.16 150.45L171.40 158.44L174.04 169.73L184.43 173.05ZM174.04 169.73L171.40 158.44L161.01 155.12L153.25 163.11L155.89 174.40L166.28 177.72ZM197.31 145.78L194.68 134.47L184.28 131.16L176.52 139.15L179.16 150.45L189.55 153.77ZM179.16 150.45L176.52 139.15L166.12 135.83L158.37 143.82L161.01 155.12L171.40 158.44ZM205.22 179.69L202.58 168.39L192.19 165.07L184.43 173.05L187.06 184.35L197.46 187.67ZM187.06 184.35L184.43 173.05L174.04 169.73L166.28 177.72L168.92 189.01L179.31 192.33ZM210.35 160.40L207.71 149.10L197.31 145.78L189.55 153.77L192.19 165.07L202.58 168.39ZM270.02 127.13L267.39 115.81L256.98 112.49L249.20 120.47L251.83 131.79L262.24 135.12ZM251.83 131.79L249.20 120.47L238.79 117.15L231.02 125.14L233.65 136.45L244.05 139.77ZM275.17 107.82L272.55 96.50L262.13 93.17L254.35 101.17L256.98 112.49L267.39 115.81ZM256.98 112.49L254.35 101.17L243.94 97.84L236.16 105.83L238.79 117.15L249.20 120.47ZM264.86 146.43L262.24 135.12L251.83 131.79L244.05 139.77L246.68 151.09L257.09 154.41ZM220.61 121.82L217.98 110.50L207.57 107.18L199.81 115.18L202.44 126.48L212.84 129.80ZM202.44 126.48L199.81 115.18L189.40 111.86L181.64 119.85L184.28 131.16L194.68 134.47ZM225.75 102.51L223.12 91.20L212.71 87.87L204.94 95.87L207.57 107.18L217.98 110.50ZM207.57 107.18L204.94 95.87L194.53 92.55L186.76 100.55L189.40 111.86L199.81 115.18ZM233.65 136.45L231.02 125.14L220.61 121.82L212.84 129.80L215.48 141.11L225.88 144.44ZM215.48 141.11L212.84 129.80L202.44 126.48L194.68 134.47L197.31 145.78L207.71 149.10ZM238.79 117.15L236.16 105.83L225.75 102.51L217.98 110.50L220.61 121.82L231.02 125.14ZM262.44 218.92L259.82 207.62L249.42 204.29L241.66 212.26L244.28 223.56L254.68 226.89ZM244.28 223.56L241.66 212.26L231.26 208.93L223.50 216.91L226.13 228.20L236.52 231.53ZM267.59 199.65L264.97 188.34L254.57 185.01L246.80 192.99L249.42 204.29L259.82 207.62ZM249.42 204.29L246.80 192.99L236.40 189.66L228.64 197.63L231.26 208.93L241.66 212.26ZM275.46 233.55L272.84 222.25L262.44 218.92L254.68 226.89L257.30 238.19L267.69 241.52ZM257.30 238.19L254.68 226.89L244.28 223.56L236.52 231.53L239.15 242.83L249.54 246.16ZM218.24 194.31L215.61 183.01L205.22 179.69L197.46 187.67L200.09 198.96L210.48 202.29ZM200.09 198.96L197.46 187.67L187.06 184.35L179.31 192.33L181.95 203.62L192.33 206.94ZM231.26 208.93L228.64 197.63L218.24 194.31L210.48 202.29L213.11 213.58L223.50 216.91ZM272.74 180.36L270.12 169.05L259.71 165.72L251.94 173.70L254.57 185.01L264.97 188.34ZM23.30 100.93L20.64 89.64L10.25 86.35L2.53 94.36L5.19 105.65L15.57 108.93ZM5.19 105.65L2.53 94.36L-7.86 91.08L-15.58 99.08L-12.91 110.37L-2.53 113.65ZM28.37 81.63L25.71 70.34L15.32 67.05L7.59 75.06L10.25 86.35L20.64 89.64ZM10.25 86.35L7.59 75.06L-2.80 71.78L-10.52 79.79L-7.86 91.08L2.53 94.36ZM36.34 115.51L33.68 104.22L23.30 100.93L15.57 108.93L18.23 120.22L28.61 123.51ZM18.23 120.22L15.57 108.93L5.19 105.65L-2.53 113.65L0.13 124.93L10.51 128.22ZM41.41 96.22L38.76 84.92L28.37 81.63L20.64 89.64L23.30 100.93L33.68 104.22ZM51.57 57.61L48.91 46.31L38.51 43.02L30.78 51.03L33.44 62.33L43.83 65.62ZM33.44 62.33L30.78 51.03L20.38 47.75L12.65 55.76L15.32 67.05L25.71 70.34ZM56.65 38.30L53.99 26.99L43.59 23.70L35.85 31.72L38.51 43.02L48.91 46.31ZM38.51 43.02L35.85 31.72L25.46 28.43L17.72 36.45L20.38 47.75L30.78 51.03ZM64.62 72.20L61.96 60.90L51.57 57.61L43.83 65.62L46.49 76.92L56.88 80.21ZM46.49 76.92L43.83 65.62L33.44 62.33L25.71 70.34L28.37 81.63L38.76 84.92ZM69.71 52.89L67.05 41.59L56.65 38.30L48.91 46.31L51.57 57.61L61.96 60.90ZM2.26 52.48L-0.40 41.18L-10.79 37.90L-18.52 45.92L-15.85 57.21L-5.46 60.49ZM7.33 33.17L4.66 21.87L-5.73 18.59L-13.46 26.60L-10.79 37.90L-0.40 41.18ZM15.32 67.05L12.65 55.76L2.26 52.48L-5.46 60.49L-2.80 71.78L7.59 75.06ZM20.38 47.75L17.72 36.45L7.33 33.17L-0.40 41.18L2.26 52.48L12.65 55.76ZM49.38 130.09L46.73 118.80L36.34 115.51L28.61 123.51L31.27 134.79L41.65 138.08ZM62.42 144.67L59.76 133.38L49.38 130.09L41.65 138.08L44.31 149.37L54.69 152.66ZM72.58 106.09L69.93 94.80L59.54 91.50L51.80 99.51L54.46 110.80L64.84 114.09ZM54.46 110.80L51.80 99.51L41.41 96.22L33.68 104.22L36.34 115.51L46.73 118.80ZM77.67 86.80L75.01 75.50L64.62 72.20L56.88 80.21L59.54 91.50L69.93 94.80ZM59.54 91.50L56.88 80.21L46.49 76.92L38.76 84.92L41.41 96.22L51.80 99.51ZM85.62 120.69L82.97 109.39L72.58 106.09L64.84 114.09L67.50 125.39L77.88 128.68ZM67.50 125.39L64.84 114.09L54.46 110.80L46.73 118.80L49.38 130.09L59.76 133.38ZM90.71 101.39L88.06 90.09L77.67 86.80L69.93 94.80L72.58 106.09L82.97 109.39ZM79.89 14.25L77.23 2.94L66.83 -0.35L59.08 7.67L61.74 18.98L72.14 22.27ZM61.74 18.98L59.08 7.67L48.68 4.38L40.93 12.40L43.59 23.70L53.99 26.99ZM84.98 -5.08L82.33 -16.39L71.92 -19.68L64.17 -11.66L66.83 -0.35L77.23 2.94ZM66.83 -0.35L64.17 -11.66L53.76 -14.95L46.02 -6.93L48.68 4.38L59.08 7.67ZM92.95 28.86L90.29 17.55L79.89 14.25L72.14 22.27L74.80 33.58L85.20 36.87ZM74.80 33.58L72.14 22.27L61.74 18.98L53.99 26.99L56.65 38.30L67.05 41.59ZM98.05 9.53L95.39 -1.78L84.98 -5.08L77.23 2.94L79.89 14.25L90.29 17.55ZM30.53 9.11L27.87 -2.19L17.47 -5.48L9.73 2.54L12.40 13.85L22.80 17.13ZM12.40 13.85L9.73 2.54L-0.67 -0.74L-8.40 7.29L-5.73 18.59L4.66 21.87ZM17.47 -5.48L14.80 -16.78L4.40 -20.06L-3.33 -12.04L-0.67 -0.74L9.73 2.54ZM43.59 23.70L40.93 12.40L30.53 9.11L22.80 17.13L25.46 28.43L35.85 31.72ZM25.46 28.43L22.80 17.13L12.40 13.85L4.66 21.87L7.33 33.17L17.72 36.45ZM48.68 4.38L46.02 -6.93L35.61 -10.22L27.87 -2.19L30.53 9.11L40.93 12.40ZM142.86 159.80L140.22 148.50L129.83 145.19L122.09 153.18L124.73 164.48L135.12 167.78ZM124.73 164.48L122.09 153.18L111.70 149.88L103.96 157.87L106.60 169.16L116.99 172.46ZM147.97 140.51L145.33 129.21L134.94 125.90L127.19 133.90L129.83 145.19L140.22 148.50ZM129.83 145.19L127.19 133.90L116.79 130.59L109.05 138.58L111.70 149.88L122.09 153.18ZM155.89 174.40L153.25 163.11L142.86 159.80L135.12 167.78L137.76 179.08L148.15 182.39ZM137.76 179.08L135.12 167.78L124.73 164.48L116.99 172.46L119.63 183.75L130.02 187.06ZM161.01 155.12L158.37 143.82L147.97 140.51L140.22 148.50L142.86 159.80L153.25 163.11ZM93.57 154.57L90.92 143.27L80.54 139.97L72.80 147.97L75.45 159.26L85.83 162.55ZM98.66 135.28L96.01 123.99L85.62 120.69L77.88 128.68L80.54 139.97L90.92 143.27ZM80.54 139.97L77.88 128.68L67.50 125.39L59.76 133.38L62.42 144.67L72.80 147.97ZM106.60 169.16L103.96 157.87L93.57 154.57L85.83 162.55L88.48 173.84L98.87 177.14ZM111.70 149.88L109.05 138.58L98.66 135.28L90.92 143.27L93.57 154.57L103.96 157.87ZM168.92 189.01L166.28 177.72L155.89 174.40L148.15 182.39L150.79 193.68L161.17 196.99ZM181.95 203.62L179.31 192.33L168.92 189.01L161.17 196.99L163.81 208.28L174.19 211.60Z"/></svg>
