<svg xmlns="http://www.w3.org/2000/svg" width="256" height="256" viewBox="0 0 256 256"><path data-band="1" fill="#fde68a" fill-opacity="0.35" d="M8.30 94.09L5.66 82.88L-4.65 79.58L-12.31 87.49L-9.67 98.70L0.64 102.00ZM13.33 74.96L10.69 63.75L0.38 60.45L-7.29 68.37L-4.65 79.58L5.66 82.88ZM21.25 108.60L18.61 97.39L8.30 94.09L0.64 102.00L3.28 113.21L13.58 116.51ZM3.28 113.21L0.64 102.00L-9.67 98.70L-17.32 106.61L-14.68 117.82L-4.38 121.12ZM26.28 89.48L23.64 78.27L13.33 74.96L5.66 82.88L8.30 94.09L18.61 97.39ZM36.35 51.22L33.71 39.99L23.39 36.69L15.72 44.61L18.36 55.83L28.67 59.13ZM18.36 55.83L15.72 44.61L5.40 41.32L-2.27 49.24L0.38 60.45L10.69 63.75ZM41.39 32.07L38.75 20.85L28.43 17.55L20.75 25.47L23.39 36.69L33.71 39.99ZM23.39 36.69L20.75 25.47L10.43 22.17L2.76 30.10L5.40 41.32L15.72 44.61ZM49.30 65.74L46.67 54.52L36.35 51.22L28.67 59.13L31.31 70.35L41.63 73.66ZM31.31 70.35L28.67 59.13L18.36 55.83L10.69 63.75L13.33 74.96L23.64 78.27ZM54.35 46.60L51.71 35.38L41.39 32.07L33.71 39.99L36.35 51.22L46.67 54.52ZM0.38 60.45L-2.27 49.24L-12.58 45.94L-20.24 53.86L-17.60 65.07L-7.29 68.37ZM5.40 41.32L2.76 30.10L-7.56 26.80L-15.23 34.72L-12.58 45.94L-2.27 49.24ZM29.16 142.23L26.53 131.02L16.22 127.72L8.56 135.62L11.20 146.82L21.50 150.13ZM11.20 146.82L8.56 135.62L-1.74 132.32L-9.40 140.22L-6.76 151.42L3.54 154.72ZM34.19 123.11L31.56 111.90L21.25 108.60L13.58 116.51L16.22 127.72L26.53 131.02ZM16.22 127.72L13.58 116.51L3.28 113.21L-4.38 121.12L-1.74 132.32L8.56 135.62ZM47.14 137.63L44.50 126.42L34.19 123.11L26.53 131.02L29.16 142.23L39.47 145.53ZM57.21 99.40L54.58 88.18L44.26 84.87L36.59 92.78L39.23 104.00L49.54 107.30ZM39.23 104.00L36.59 92.78L26.28 89.48L18.61 97.39L21.25 108.60L31.56 111.90ZM62.26 80.27L59.62 69.05L49.30 65.74L41.63 73.66L44.26 84.87L54.58 88.18ZM44.26 84.87L41.63 73.66L31.31 70.35L23.64 78.27L26.28 89.48L36.59 92.78ZM70.16 113.92L67.52 102.70L57.21 99.40L49.54 107.30L52.17 118.52L62.48 121.82ZM52.17 118.52L49.54 107.30L39.23 104.00L31.56 111.90L34.19 123.11L44.50 126.42ZM75.21 94.80L72.57 83.58L62.26 80.27L54.58 88.18L57.21 99.40L67.52 102.70ZM185.64 -4.77L183.01 -16.02L172.67 -19.35L164.95 -11.42L167.58 -0.18L177.92 3.15ZM64.44 8.31L61.81 -2.92L51.48 -6.23L43.79 1.70L46.43 12.93L56.76 16.23ZM46.43 12.93L43.79 1.70L33.47 -1.60L25.79 6.32L28.43 17.55L38.75 20.85ZM51.48 -6.23L48.84 -17.46L38.51 -20.76L30.83 -12.83L33.47 -1.60L43.79 1.70ZM77.41 22.85L74.77 11.61L64.44 8.31L56.76 16.23L59.39 27.46L69.72 30.77ZM59.39 27.46L56.76 16.23L46.43 12.93L38.75 20.85L41.39 32.07L51.71 35.38ZM82.46 3.69L79.83 -7.54L69.50 -10.85L61.81 -2.92L64.44 8.31L74.77 11.61ZM15.46 3.02L12.82 -8.20L2.50 -11.50L-5.18 -3.57L-2.53 7.65L7.79 10.95ZM28.43 17.55L25.79 6.32L15.46 3.02L7.79 10.95L10.43 22.17L20.75 25.47ZM10.43 22.17L7.79 10.95L-2.53 7.65L-10.20 15.58L-7.56 26.80L2.76 30.10ZM33.47 -1.60L30.83 -12.83L20.50 -16.13L12.82 -8.20L15.46 3.02L25.79 6.32ZM224.90 163.79L222.28 152.56L211.96 149.22L204.26 157.11L206.87 168.34L217.19 171.67ZM206.87 168.34L204.26 157.11L193.94 153.78L186.24 161.67L188.85 172.89L199.17 176.23ZM229.99 144.67L227.38 133.44L217.06 130.10L209.35 137.99L211.96 149.22L222.28 152.56ZM211.96 149.22L209.35 137.99L199.03 134.66L191.32 142.56L193.94 153.78L204.26 157.11ZM237.83 178.35L235.22 167.13L224.90 163.79L217.19 171.67L219.80 182.90L230.12 186.24ZM219.80 182.90L217.19 171.67L206.87 168.34L199.17 176.23L201.78 187.45L212.10 190.78ZM242.93 159.24L240.32 148.01L229.99 144.67L222.28 152.56L224.90 163.79L235.22 167.13ZM175.92 158.34L173.30 147.12L162.98 143.79L155.29 151.69L157.91 162.90L168.22 166.23ZM157.91 162.90L155.29 151.69L144.97 148.36L137.28 156.25L139.91 167.47L150.22 170.80ZM181.00 139.22L178.38 128.00L168.06 124.67L160.36 132.57L162.98 143.79L173.30 147.12ZM162.98 143.79L160.36 132.57L150.04 129.24L142.35 137.14L144.97 148.36L155.29 151.69ZM188.85 172.89L186.24 161.67L175.92 158.34L168.22 166.23L170.84 177.45L181.15 180.78ZM170.84 177.45L168.22 166.23L157.91 162.90L150.22 170.80L152.84 182.01L163.15 185.34ZM193.94 153.78L191.32 142.56L181.00 139.22L173.30 147.12L175.92 158.34L186.24 161.67ZM253.14 120.99L250.53 109.75L240.20 106.41L232.48 114.31L235.10 125.54L245.43 128.88ZM235.10 125.54L232.48 114.31L222.16 110.97L214.44 118.87L217.06 130.10L227.38 133.44ZM258.26 101.85L255.65 90.61L245.31 87.27L237.59 95.17L240.20 106.41L250.53 109.75ZM240.20 106.41L237.59 95.17L227.26 91.83L219.54 99.73L222.16 110.97L232.48 114.31ZM266.08 135.57L263.47 124.33L253.14 120.99L245.43 128.88L248.04 140.12L258.36 143.46ZM248.04 140.12L245.43 128.88L235.10 125.54L227.38 133.44L229.99 144.67L240.32 148.01ZM271.20 116.44L268.59 105.19L258.26 101.85L250.53 109.75L253.14 120.99L263.47 124.33ZM204.12 115.53L201.50 104.30L191.17 100.97L183.47 108.87L186.09 120.10L196.41 123.43ZM186.09 120.10L183.47 108.87L173.14 105.54L165.44 113.44L168.06 124.67L178.38 128.00ZM209.21 96.40L206.60 85.16L196.27 81.83L188.56 89.74L191.17 100.97L201.50 104.30ZM191.17 100.97L188.56 89.74L178.23 86.41L170.52 94.31L173.14 105.54L183.47 108.87ZM217.06 130.10L214.44 118.87L204.12 115.53L196.41 123.43L199.03 134.66L209.35 137.99ZM199.03 134.66L196.41 123.43L186.09 120.10L178.38 128.00L181.00 139.22L191.32 142.56ZM222.16 110.97L219.54 99.73L209.21 96.40L201.50 104.30L204.12 115.53L214.44 118.87ZM245.65 212.02L243.04 200.80L232.73 197.46L225.02 205.34L227.63 216.56L237.94 219.90ZM227.63 216.56L225.02 205.34L214.71 202.00L207.01 209.89L209.62 221.10L219.93 224.44ZM250.75 192.92L248.15 181.69L237.83 178.35L230.12 186.24L232.73 197.46L243.04 200.80ZM232.73 197.46L230.12 186.24L219.80 182.90L212.10 190.78L214.71 202.00L225.02 205.34ZM258.57 226.59L255.97 215.37L245.65 212.02L237.94 219.90L240.55 231.12L250.86 234.47ZM240.55 231.12L237.94 219.90L227.63 216.56L219.93 224.44L222.54 235.66L232.85 239.00ZM263.68 207.49L261.07 196.26L250.75 192.92L243.04 200.80L245.65 212.02L255.97 215.37ZM196.70 206.55L194.08 195.33L183.77 192.00L176.07 199.88L178.69 211.10L189.00 214.43ZM201.78 187.45L199.17 176.23L188.85 172.89L181.15 180.78L183.77 192.00L194.08 195.33ZM183.77 192.00L181.15 180.78L170.84 177.45L163.15 185.34L165.76 196.55L176.07 199.88ZM209.62 221.10L207.01 209.89L196.70 206.55L189.00 214.43L191.61 225.65L201.92 228.98ZM191.61 225.65L189.00 214.43L178.69 211.10L171.00 218.98L173.61 230.19L183.92 233.52ZM214.71 202.00L212.10 190.78L201.78 187.45L194.08 195.33L196.70 206.55L207.01 209.89ZM273.90 169.27L271.30 158.04L260.97 154.69L253.25 162.58L255.86 173.81L266.18 177.15ZM255.86 173.81L253.25 162.58L242.93 159.24L235.22 167.13L237.83 178.35L248.15 181.69ZM260.97 154.69L258.36 143.46L248.04 140.12L240.32 148.01L242.93 159.24L253.25 162.58ZM268.79 188.38L266.18 177.15L255.86 173.81L248.15 181.69L250.75 192.92L261.07 196.26ZM103.92 176.61L101.30 165.40L90.99 162.09L83.31 169.98L85.94 181.19L96.24 184.50ZM55.04 171.25L52.40 160.04L42.10 156.74L34.44 164.63L37.07 175.84L47.37 179.14ZM126.97 152.93L124.35 141.72L114.03 138.40L106.35 146.29L108.98 157.51L119.29 160.83ZM108.98 157.51L106.35 146.29L96.04 142.98L88.36 150.87L90.99 162.09L101.30 165.40ZM132.04 133.82L129.41 122.60L119.10 119.28L111.41 127.18L114.03 138.40L124.35 141.72ZM114.03 138.40L111.41 127.18L101.09 123.86L93.41 131.76L96.04 142.98L106.35 146.29ZM139.91 167.47L137.28 156.25L126.97 152.93L119.29 160.83L121.91 172.04L132.22 175.36ZM121.91 172.04L119.29 160.83L108.98 157.51L101.30 165.40L103.92 176.61L114.23 179.93ZM144.97 148.36L142.35 137.14L132.04 133.82L124.35 141.72L126.97 152.93L137.28 156.25ZM78.05 147.56L75.42 136.35L65.11 133.04L57.44 140.94L60.07 152.15L70.38 155.46ZM60.07 152.15L57.44 140.94L47.14 137.63L39.47 145.53L42.10 156.74L52.40 160.04ZM83.10 128.45L80.47 117.23L70.16 113.92L62.48 121.82L65.11 133.04L75.42 136.35ZM65.11 133.04L62.48 121.82L52.17 118.52L44.50 126.42L47.14 137.63L57.44 140.94ZM90.99 162.09L88.36 150.87L78.05 147.56L70.38 155.46L73.01 166.67L83.31 169.98ZM73.01 166.67L70.38 155.46L60.07 152.15L52.40 160.04L55.04 171.25L65.34 174.56ZM96.04 142.98L93.41 131.76L83.10 128.45L75.42 136.35L78.05 147.56L88.36 150.87ZM147.77 201.11L145.15 189.90L134.84 186.58L127.16 194.46L129.78 205.67L140.08 209.00ZM129.78 205.67L127.16 194.46L116.85 191.14L109.17 199.03L111.80 210.24L122.10 213.56ZM152.84 182.01L150.22 170.80L139.91 167.47L132.22 175.36L134.84 186.58L145.15 189.90ZM134.84 186.58L132.22 175.36L121.91 172.04L114.23 179.93L116.85 191.14L127.16 194.46ZM165.76 196.55L163.15 185.34L152.84 182.01L145.15 189.90L147.77 201.11L158.07 204.44ZM260.66 29.81L258.05 18.56L247.70 15.22L239.97 23.13L242.58 34.38L252.93 37.72ZM242.58 34.38L239.97 23.13L229.63 19.80L221.90 27.71L224.52 38.96L234.86 42.29ZM265.78 10.64L263.17 -0.61L252.82 -3.95L245.08 3.97L247.70 15.22L258.05 18.56ZM247.70 15.22L245.08 3.97L234.74 0.63L227.01 8.55L229.63 19.80L239.97 23.13ZM273.61 44.40L271.00 33.15L260.66 29.81L252.93 37.72L255.54 48.97L265.88 52.31ZM255.54 48.97L252.93 37.72L242.58 34.38L234.86 42.29L237.47 53.54L247.81 56.88ZM211.56 24.38L208.94 13.13L198.60 9.80L190.88 17.72L193.50 28.96L203.84 32.29ZM193.50 28.96L190.88 17.72L180.54 14.39L172.83 22.31L175.45 33.55L185.79 36.88ZM216.66 5.21L214.05 -6.04L203.70 -9.37L195.98 -1.45L198.60 9.80L208.94 13.13ZM198.60 9.80L195.98 -1.45L185.64 -4.77L177.92 3.15L180.54 14.39L190.88 17.72ZM224.52 38.96L221.90 27.71L211.56 24.38L203.84 32.29L206.46 43.54L216.80 46.87ZM206.46 43.54L203.84 32.29L193.50 28.96L185.79 36.88L188.41 48.12L198.74 51.45ZM229.63 19.80L227.01 8.55L216.66 5.21L208.94 13.13L211.56 24.38L221.90 27.71ZM252.82 -3.95L250.20 -15.21L239.85 -18.54L232.12 -10.62L234.74 0.63L245.08 3.97ZM234.74 0.63L232.12 -10.62L221.77 -13.96L214.05 -6.04L216.66 5.21L227.01 8.55ZM263.37 82.71L260.76 71.46L250.42 68.12L242.70 76.03L245.31 87.27L255.65 90.61ZM268.49 63.56L265.88 52.31L255.54 48.97L247.81 56.88L250.42 68.12L260.76 71.46ZM276.32 97.30L273.71 86.05L263.37 82.71L255.65 90.61L258.26 101.85L268.59 105.19ZM232.36 72.69L229.75 61.45L219.41 58.11L211.69 66.02L214.31 77.26L224.64 80.60ZM214.31 77.26L211.69 66.02L201.36 62.69L193.65 70.60L196.27 81.83L206.60 85.16ZM237.47 53.54L234.86 42.29L224.52 38.96L216.80 46.87L219.41 58.11L229.75 61.45ZM219.41 58.11L216.80 46.87L206.46 43.54L198.74 51.45L201.36 62.69L211.69 66.02ZM245.31 87.27L242.70 76.03L232.36 72.69L224.64 80.60L227.26 91.83L237.59 95.17ZM227.26 91.83L224.64 80.60L214.31 77.26L206.60 85.16L209.21 96.40L219.54 99.73ZM250.42 68.12L247.81 56.88L237.47 53.54L229.75 61.45L232.36 72.69L242.70 76.03ZM134.30 61.88L131.67 50.65L121.34 47.33L113.65 55.24L116.28 66.47L126.60 69.79ZM116.28 66.47L113.65 55.24L103.32 51.93L95.63 59.84L98.26 71.07L108.58 74.38ZM139.37 42.73L136.74 31.50L126.41 28.18L118.71 36.10L121.34 47.33L131.67 50.65ZM121.34 47.33L118.71 36.10L108.39 32.78L100.69 40.70L103.32 51.93L113.65 55.24ZM147.25 76.43L144.62 65.20L134.30 61.88L126.60 69.79L129.23 81.02L139.55 84.34ZM129.23 81.02L126.60 69.79L116.28 66.47L108.58 74.38L111.21 85.61L121.53 88.93ZM152.33 57.29L149.70 46.05L139.37 42.73L131.67 50.65L134.30 61.88L144.62 65.20ZM85.31 56.53L82.68 45.30L72.35 41.99L64.67 49.91L67.30 61.13L77.62 64.44ZM67.30 61.13L64.67 49.91L54.35 46.60L46.67 54.52L49.30 65.74L59.62 69.05ZM90.37 37.39L87.73 26.16L77.41 22.85L69.72 30.77L72.35 41.99L82.68 45.30ZM72.35 41.99L69.72 30.77L59.39 27.46L51.71 35.38L54.35 46.60L64.67 49.91ZM98.26 71.07L95.63 59.84L85.31 56.53L77.62 64.44L80.26 75.67L90.57 78.98ZM80.26 75.67L77.62 64.44L67.30 61.13L59.62 69.05L62.26 80.27L72.57 83.58ZM103.32 51.93L100.69 40.70L90.37 37.39L82.68 45.30L85.31 56.53L95.63 59.84ZM162.49 18.98L159.87 7.74L149.53 4.42L141.82 12.34L144.45 23.58L154.78 26.90ZM144.45 23.58L141.82 12.34L131.49 9.02L123.78 16.94L126.41 28.18L136.74 31.50ZM167.58 -0.18L164.95 -11.42L154.61 -14.75L146.90 -6.82L149.53 4.42L159.87 7.74ZM149.53 4.42L146.90 -6.82L136.56 -10.14L128.86 -2.22L131.49 9.02L141.82 12.34ZM175.45 33.55L172.83 22.31L162.49 18.98L154.78 26.90L157.41 38.14L167.74 41.46ZM157.41 38.14L154.78 26.90L144.45 23.58L136.74 31.50L139.37 42.73L149.70 46.05ZM180.54 14.39L177.92 3.15L167.58 -0.18L159.87 7.74L162.49 18.98L172.83 22.31ZM113.45 13.63L110.82 2.39L100.49 -0.92L92.79 7.00L95.43 18.23L105.75 21.55ZM95.43 18.23L92.79 7.00L82.46 3.69L74.77 11.61L77.41 22.85L87.73 26.16ZM118.52 -5.53L115.89 -16.77L105.56 -20.09L97.86 -12.16L100.49 -0.92L110.82 2.39ZM100.49 -0.92L97.86 -12.16L87.52 -15.47L79.83 -7.54L82.46 3.69L92.79 7.00ZM126.41 28.18L123.78 16.94L113.45 13.63L105.75 21.55L108.39 32.78L118.71 36.10ZM108.39 32.78L105.75 21.55L95.43 18.23L87.73 26.16L90.37 37.39L100.69 40.70ZM131.49 9.02L128.86 -2.22L118.52 -5.53L110.82 2.39L113.45 13.63L123.78 16.94ZM155.12 110.12L152.50 98.89L142.17 95.57L134.48 103.47L137.10 114.70L147.42 118.02ZM137.10 114.70L134.48 103.47L124.16 100.15L116.47 108.06L119.10 119.28L129.41 122.60ZM160.20 90.99L157.57 79.76L147.25 76.43L139.55 84.34L142.17 95.57L152.50 98.89ZM142.17 95.57L139.55 84.34L129.23 81.02L121.53 88.93L124.16 100.15L134.48 103.47ZM168.06 124.67L165.44 113.44L155.12 110.12L147.42 118.02L150.04 129.24L160.36 132.57ZM150.04 129.24L147.42 118.02L137.10 114.70L129.41 122.60L132.04 133.82L142.35 137.14ZM173.14 105.54L170.52 94.31L160.20 90.99L152.50 98.89L155.12 110.12L165.44 113.44ZM106.15 104.74L103.52 93.52L93.20 90.20L85.52 98.11L88.15 109.33L98.47 112.64ZM88.15 109.33L85.52 98.11L75.21 94.80L67.52 102.70L70.16 113.92L80.47 117.23ZM111.21 85.61L108.58 74.38L98.26 71.07L90.57 78.98L93.20 90.20L103.52 93.52ZM93.20 90.20L90.57 78.98L80.26 75.67L72.57 83.58L75.21 94.80L85.52 98.11ZM119.10 119.28L116.47 108.06L106.15 104.74L98.47 112.64L101.09 123.86L111.41 127.18ZM101.09 123.86L98.47 112.64L88.15 109.33L80.47 117.23L83.10 128.45L93.41 131.76ZM124.16 100.15L121.53 88.93L111.21 85.61L103.52 93.52L106.15 104.74L116.47 108.06ZM183.32 67.27L180.69 56.03L170.36 52.70L162.66 60.61L165.28 71.85L175.61 75.17ZM165.28 71.85L162.66 60.61L152.33 57.29L144.62 65.20L147.25 76.43L157.57 79.76ZM188.41 48.12L185.79 36.88L175.45 33.55L167.74 41.46L170.36 52.70L180.69 56.03ZM170.36 52.70L167.74 41.46L157.41 38.14L149.70 46.05L152.33 57.29L162.66 60.61ZM196.27 81.83L193.65 70.60L183.32 67.27L175.61 75.17L178.23 86.41L188.56 89.74ZM178.23 86.41L175.61 75.17L165.28 71.85L157.57 79.76L160.20 90.99L170.52 94.31ZM201.36 62.69L198.74 51.45L188.41 48.12L180.69 56.03L183.32 67.27L193.65 70.60ZM276.60 222.06L274.00 210.84L263.68 207.49L255.97 215.37L258.57 226.59L268.89 229.94ZM222.54 235.66L219.93 224.44L209.62 221.10L201.92 228.98L204.53 240.19L214.84 243.53Z"/></svg>
