<svg xmlns="http://www.w3.org/2000/svg" width="256" height="256" viewBox="0 0 256 256"><path data-band="1" fill="#fde68a" fill-opacity="0.35" d="M186.84 158.35L183.98 146.54L173.04 143.45L164.97 152.16L167.83 163.97L178.76 167.06ZM192.07 137.82L189.21 126.01L178.27 122.92L170.18 131.64L173.04 143.45L183.98 146.54ZM173.04 143.45L170.18 131.64L159.24 128.55L151.17 137.27L154.03 149.07L164.97 152.16ZM200.64 173.25L197.78 161.44L186.84 158.35L178.76 167.06L181.62 178.86L192.55 181.96ZM205.87 152.73L203.01 140.92L192.07 137.82L183.98 146.54L186.84 158.35L197.78 161.44ZM148.82 169.59L145.96 157.79L135.02 154.71L126.95 163.42L129.82 175.22L140.75 178.31ZM154.03 149.07L151.17 137.27L140.23 134.18L132.16 142.90L135.02 154.71L145.96 157.79ZM216.34 111.67L213.48 99.85L202.53 96.75L194.44 105.48L197.30 117.29L208.25 120.39ZM197.30 117.29L194.44 105.48L183.49 102.38L175.41 111.11L178.27 122.92L189.21 126.01ZM221.58 91.13L218.72 79.30L207.77 76.21L199.67 84.93L202.53 96.75L213.48 99.85ZM202.53 96.75L199.67 84.93L188.72 81.84L180.63 90.57L183.49 102.38L194.44 105.48ZM230.14 126.59L227.29 114.77L216.34 111.67L208.25 120.39L211.10 132.20L222.05 135.30ZM211.10 132.20L208.25 120.39L197.30 117.29L189.21 126.01L192.07 137.82L203.01 140.92ZM235.39 106.05L232.54 94.22L221.58 91.13L213.48 99.85L216.34 111.67L227.29 114.77ZM178.27 122.92L175.41 111.11L164.46 108.02L156.38 116.74L159.24 128.55L170.18 131.64ZM183.49 102.38L180.63 90.57L169.68 87.48L161.60 96.20L164.46 108.02L175.41 111.11ZM209.20 208.67L206.34 196.86L195.41 193.76L187.33 202.47L190.19 214.27L201.12 217.37ZM214.43 188.16L211.58 176.35L200.64 173.25L192.55 181.96L195.41 193.76L206.34 196.86ZM222.98 223.57L220.13 211.77L209.20 208.67L201.12 217.37L203.97 229.17L214.90 232.27ZM203.97 229.17L201.12 217.37L190.19 214.27L182.11 222.97L184.97 234.77L195.89 237.87ZM228.22 203.07L225.37 191.26L214.43 188.16L206.34 196.86L209.20 208.67L220.13 211.77ZM171.18 219.88L168.33 208.08L157.40 204.99L149.33 213.70L152.19 225.49L163.12 228.58ZM176.40 199.37L173.54 187.57L162.61 184.48L154.54 193.19L157.40 204.99L168.33 208.08ZM238.70 162.03L235.85 150.22L224.90 147.12L216.81 155.83L219.66 167.64L230.60 170.74ZM219.66 167.64L216.81 155.83L205.87 152.73L197.78 161.44L200.64 173.25L211.58 176.35ZM243.94 141.51L241.09 129.69L230.14 126.59L222.05 135.30L224.90 147.12L235.85 150.22ZM224.90 147.12L222.05 135.30L211.10 132.20L203.01 140.92L205.87 152.73L216.81 155.83ZM252.49 176.95L249.64 165.14L238.70 162.03L230.60 170.74L233.46 182.55L244.40 185.66ZM233.46 182.55L230.60 170.74L219.66 167.64L211.58 176.35L214.43 188.16L225.37 191.26ZM257.74 156.43L254.89 144.61L243.94 141.51L235.85 150.22L238.70 162.03L249.64 165.14ZM237.33 29.46L234.47 17.62L223.50 14.53L215.40 23.26L218.25 35.09L229.22 38.19ZM245.89 64.95L243.04 53.12L232.07 50.02L223.97 58.75L226.83 70.58L237.78 73.68ZM226.83 70.58L223.97 58.75L213.01 55.65L204.91 64.38L207.77 76.21L218.72 79.30ZM251.15 44.39L248.29 32.56L237.33 29.46L229.22 38.19L232.07 50.02L243.04 53.12ZM232.07 50.02L229.22 38.19L218.25 35.09L210.15 43.83L213.01 55.65L223.97 58.75ZM259.70 79.88L256.85 68.05L245.89 64.95L237.78 73.68L240.64 85.50L251.59 88.60ZM240.64 85.50L237.78 73.68L226.83 70.58L218.72 79.30L221.58 91.13L232.54 94.22ZM264.96 59.33L262.11 47.49L251.15 44.39L243.04 53.12L245.89 64.95L256.85 68.05ZM207.77 76.21L204.91 64.38L193.96 61.29L185.86 70.02L188.72 81.84L199.67 84.93ZM213.01 55.65L210.15 43.83L199.19 40.73L191.09 49.47L193.96 61.29L204.91 64.38ZM275.49 18.19L272.64 6.35L261.67 3.25L253.55 11.99L256.41 23.82L267.38 26.93ZM256.41 23.82L253.55 11.99L242.58 8.89L234.47 17.62L237.33 29.46L248.29 32.56ZM261.67 3.25L258.82 -8.59L247.84 -11.69L239.73 -2.95L242.58 8.89L253.55 11.99ZM270.23 38.76L267.38 26.93L256.41 23.82L248.29 32.56L251.15 44.39L262.11 47.49ZM264.31 268.30L261.47 256.50L250.54 253.39L242.45 262.08L245.30 273.88L256.23 276.99ZM269.56 247.81L266.72 236.00L255.78 232.89L247.69 241.59L250.54 253.39L261.47 256.50ZM231.53 258.97L228.68 247.18L217.75 244.07L209.67 252.77L212.52 264.56L223.45 267.67ZM212.52 264.56L209.67 252.77L198.75 249.66L190.67 258.36L193.53 270.15L204.45 273.25ZM236.76 238.48L233.91 226.68L222.98 223.57L214.90 232.27L217.75 244.07L228.68 247.18ZM217.75 244.07L214.90 232.27L203.97 229.17L195.89 237.87L198.75 249.66L209.67 252.77ZM250.54 253.39L247.69 241.59L236.76 238.48L228.68 247.18L231.53 258.97L242.45 262.08ZM261.03 212.39L258.18 200.58L247.24 197.47L239.15 206.17L242.00 217.98L252.94 221.09ZM242.00 217.98L239.15 206.17L228.22 203.07L220.13 211.77L222.98 223.57L233.91 226.68ZM266.28 191.88L263.43 180.06L252.49 176.95L244.40 185.66L247.24 197.47L258.18 200.58ZM247.24 197.47L244.40 185.66L233.46 182.55L225.37 191.26L228.22 203.07L239.15 206.17ZM274.81 227.31L271.97 215.50L261.03 212.39L252.94 221.09L255.78 232.89L266.72 236.00ZM255.78 232.89L252.94 221.09L242.00 217.98L233.91 226.68L236.76 238.48L247.69 241.59ZM179.75 255.26L176.90 243.47L165.97 240.37L157.91 249.07L160.76 260.86L171.68 263.96ZM184.97 234.77L182.11 222.97L171.18 219.88L163.12 228.58L165.97 240.37L176.90 243.47ZM165.97 240.37L163.12 228.58L152.19 225.49L144.13 234.19L146.99 245.98L157.91 249.07ZM193.53 270.15L190.67 258.36L179.75 255.26L171.68 263.96L174.54 275.75L185.46 278.84ZM198.75 249.66L195.89 237.87L184.97 234.77L176.90 243.47L179.75 255.26L190.67 258.36ZM268.25 115.36L265.40 103.54L254.45 100.43L246.34 109.15L249.19 120.97L260.15 124.08ZM249.19 120.97L246.34 109.15L235.39 106.05L227.29 114.77L230.14 126.59L241.09 129.69ZM273.51 94.82L270.66 82.99L259.70 79.88L251.59 88.60L254.45 100.43L265.40 103.54ZM254.45 100.43L251.59 88.60L240.64 85.50L232.54 94.22L235.39 106.05L246.34 109.15ZM262.99 135.90L260.15 124.08L249.19 120.97L241.09 129.69L243.94 141.51L254.89 144.61ZM271.53 171.36L268.69 159.54L257.74 156.43L249.64 165.14L252.49 176.95L263.43 180.06ZM276.79 150.83L273.95 139.01L262.99 135.90L254.89 144.61L257.74 156.43L268.69 159.54Z"/></svg>
