<svg xmlns="http://www.w3.org/2000/svg" width="256" height="256" viewBox="0 0 256 256"><path data-band="1" fill="#fde68a" fill-opacity="0.35" d="M123.76 1.48L120.93 -10.19L110.14 -13.30L102.18 -4.74L105.01 6.93L115.80 10.04ZM105.01 6.93L102.18 -4.74L91.39 -7.85L83.43 0.71L86.27 12.37L97.05 15.48ZM137.38 16.27L134.56 4.60L123.76 1.48L115.80 10.04L118.63 21.71L129.42 24.83ZM118.63 21.71L115.80 10.04L105.01 6.93L97.05 15.48L99.89 27.15L110.67 30.26ZM142.52 -3.96L139.70 -15.64L128.90 -18.75L120.93 -10.19L123.76 1.48L134.56 4.60ZM72.65 -2.40L69.81 -14.07L59.02 -17.17L51.07 -8.61L53.91 3.06L64.70 6.16ZM53.91 3.06L51.07 -8.61L40.29 -11.71L32.34 -3.14L35.18 8.52L45.97 11.62ZM86.27 12.37L83.43 0.71L72.65 -2.40L64.70 6.16L67.53 17.83L78.32 20.93ZM67.53 17.83L64.70 6.16L53.91 3.06L45.97 11.62L48.80 23.28L59.59 26.38ZM91.39 -7.85L88.55 -19.52L77.76 -22.63L69.81 -14.07L72.65 -2.40L83.43 0.71ZM145.86 51.28L143.03 39.61L132.25 36.50L124.29 45.05L127.11 56.71L137.90 59.83ZM127.11 56.71L124.29 45.05L113.50 41.93L105.55 50.48L108.37 62.14L119.16 65.26ZM151.00 31.06L148.17 19.39L137.38 16.27L129.42 24.83L132.25 36.50L143.03 39.61ZM132.25 36.50L129.42 24.83L118.63 21.71L110.67 30.26L113.50 41.93L124.29 45.05ZM140.72 71.50L137.90 59.83L127.11 56.71L119.16 65.26L121.98 76.92L132.76 80.04ZM164.61 45.86L161.79 34.19L151.00 31.06L143.03 39.61L145.86 51.28L156.65 54.41ZM174.91 5.41L172.09 -6.27L161.29 -9.40L153.32 -0.84L156.14 10.84L166.94 13.96ZM156.14 10.84L153.32 -0.84L142.52 -3.96L134.56 4.60L137.38 16.27L148.17 19.39ZM188.53 20.21L185.71 8.53L174.91 5.41L166.94 13.96L169.76 25.64L180.56 28.76ZM169.76 25.64L166.94 13.96L156.14 10.84L148.17 19.39L151.00 31.06L161.79 34.19ZM193.69 -0.02L190.87 -11.70L180.07 -14.83L172.09 -6.27L174.91 5.41L185.71 8.53ZM4.64 129.72L1.80 118.08L-8.96 114.99L-16.87 123.53L-14.03 135.17L-3.28 138.26ZM6.29 54.41L3.45 42.76L-7.33 39.66L-15.25 48.22L-12.41 59.87L-1.64 62.96ZM11.38 34.20L8.53 22.54L-2.24 19.45L-10.17 28.01L-7.33 39.66L3.45 42.76ZM21.56 -6.24L18.72 -17.90L7.94 -20.99L0.00 -12.43L2.85 -0.77L13.62 2.33ZM2.85 -0.77L0.00 -12.43L-10.78 -15.52L-18.71 -6.95L-15.86 4.71L-5.09 7.80ZM35.18 8.52L32.34 -3.14L21.56 -6.24L13.62 2.33L16.47 13.98L27.25 17.08ZM16.47 13.98L13.62 2.33L2.85 -0.77L-5.09 7.80L-2.24 19.45L8.53 22.54ZM35.24 214.27L32.41 202.64L21.66 199.53L13.75 208.06L16.58 219.68L27.33 222.79ZM40.33 194.11L37.50 182.47L26.74 179.37L18.83 187.90L21.66 199.53L32.41 202.64ZM64.10 168.52L61.27 156.88L50.51 153.77L42.59 162.31L45.42 173.94L56.18 177.05ZM45.42 173.94L42.59 162.31L31.83 159.20L23.91 167.73L26.74 179.37L37.50 182.47ZM8.08 184.80L5.24 173.17L-5.51 170.07L-13.42 178.60L-10.58 190.23L0.16 193.33ZM13.16 164.63L10.32 153.00L-0.44 149.90L-8.35 158.44L-5.51 170.07L5.24 173.17ZM21.66 199.53L18.83 187.90L8.08 184.80L0.16 193.33L3.00 204.96L13.75 208.06ZM3.00 204.96L0.16 193.33L-10.58 190.23L-18.49 198.76L-15.65 210.38L-4.91 213.48ZM26.74 179.37L23.91 167.73L13.16 164.63L5.24 173.17L8.08 184.80L18.83 187.90ZM65.82 93.22L62.98 81.56L52.21 78.46L44.28 87.00L47.11 98.65L57.88 101.76ZM47.11 98.65L44.28 87.00L33.51 83.90L25.58 92.45L28.41 104.10L39.18 107.20ZM70.92 73.02L68.09 61.36L57.31 58.25L49.37 66.80L52.21 78.46L62.98 81.56ZM52.21 78.46L49.37 66.80L38.60 63.70L30.67 72.25L33.51 83.90L44.28 87.00ZM79.42 107.98L76.59 96.32L65.82 93.22L57.88 101.76L60.71 113.41L71.48 116.52ZM60.71 113.41L57.88 101.76L47.11 98.65L39.18 107.20L42.01 118.84L52.78 121.95ZM84.53 87.78L81.70 76.13L70.92 73.02L62.98 81.56L65.82 93.22L76.59 96.32ZM14.81 89.35L11.97 77.70L1.20 74.61L-6.72 83.16L-3.88 94.80L6.88 97.90ZM19.90 69.15L17.06 57.50L6.29 54.41L-1.64 62.96L1.20 74.61L11.97 77.70ZM1.20 74.61L-1.64 62.96L-12.41 59.87L-20.33 68.42L-17.48 80.07L-6.72 83.16ZM28.41 104.10L25.58 92.45L14.81 89.35L6.88 97.90L9.72 109.54L20.49 112.64ZM9.72 109.54L6.88 97.90L-3.88 94.80L-11.80 103.35L-8.96 114.99L1.80 118.08ZM33.51 83.90L30.67 72.25L19.90 69.15L11.97 77.70L14.81 89.35L25.58 92.45ZM94.76 47.37L91.93 35.70L81.15 32.60L73.20 41.15L76.03 52.81L86.81 55.92ZM76.03 52.81L73.20 41.15L62.42 38.04L54.48 46.60L57.31 58.25L68.09 61.36ZM99.89 27.15L97.05 15.48L86.27 12.37L78.32 20.93L81.15 32.60L91.93 35.70ZM81.15 32.60L78.32 20.93L67.53 17.83L59.59 26.38L62.42 38.04L73.20 41.15ZM108.37 62.14L105.55 50.48L94.76 47.37L86.81 55.92L89.64 67.58L100.42 70.69ZM89.64 67.58L86.81 55.92L76.03 52.81L68.09 61.36L70.92 73.02L81.70 76.13ZM113.50 41.93L110.67 30.26L99.89 27.15L91.93 35.70L94.76 47.37L105.55 50.48ZM43.70 43.49L40.86 31.84L30.09 28.74L22.15 37.30L24.99 48.95L35.76 52.05ZM24.99 48.95L22.15 37.30L11.38 34.20L3.45 42.76L6.29 54.41L17.06 57.50ZM48.80 23.28L45.97 11.62L35.18 8.52L27.25 17.08L30.09 28.74L40.86 31.84ZM30.09 28.74L27.25 17.08L16.47 13.98L8.53 22.54L11.38 34.20L22.15 37.30ZM57.31 58.25L54.48 46.60L43.70 43.49L35.76 52.05L38.60 63.70L49.37 66.80ZM38.60 63.70L35.76 52.05L24.99 48.95L17.06 57.50L19.90 69.15L30.67 72.25ZM62.42 38.04L59.59 26.38L48.80 23.28L40.86 31.84L43.70 43.49L54.48 46.60ZM87.91 142.93L85.08 131.28L74.31 128.17L66.38 136.70L69.21 148.35L79.97 151.46ZM69.21 148.35L66.38 136.70L55.61 133.59L47.68 142.13L50.51 153.77L61.27 156.88ZM93.02 122.74L90.19 111.09L79.42 107.98L71.48 116.52L74.31 128.17L85.08 131.28ZM74.31 128.17L71.48 116.52L60.71 113.41L52.78 121.95L55.61 133.59L66.38 136.70ZM36.92 139.03L34.09 127.38L23.32 124.28L15.40 132.82L18.24 144.46L29.00 147.56ZM18.24 144.46L15.40 132.82L4.64 129.72L-3.28 138.26L-0.44 149.90L10.32 153.00ZM42.01 118.84L39.18 107.20L28.41 104.10L20.49 112.64L23.32 124.28L34.09 127.38ZM23.32 124.28L20.49 112.64L9.72 109.54L1.80 118.08L4.64 129.72L15.40 132.82ZM50.51 153.77L47.68 142.13L36.92 139.03L29.00 147.56L31.83 159.20L42.59 162.31ZM31.83 159.20L29.00 147.56L18.24 144.46L10.32 153.00L13.16 164.63L23.91 167.73ZM55.61 133.59L52.78 121.95L42.01 118.84L34.09 127.38L36.92 139.03L47.68 142.13ZM121.98 76.92L119.16 65.26L108.37 62.14L100.42 70.69L103.25 82.35L114.03 85.47ZM103.25 82.35L100.42 70.69L89.64 67.58L81.70 76.13L84.53 87.78L95.30 90.89ZM135.59 91.70L132.76 80.04L121.98 76.92L114.03 85.47L116.86 97.12L127.63 100.24Z"/><path data-band="2" fill="#f97316" fill-opacity="0.35" d="M273.41 164.32L270.61 152.65L259.82 149.50L251.84 158.02L254.65 169.69L265.43 172.83ZM241.06 154.88L238.25 143.21L227.47 140.07L219.50 148.60L222.31 160.26L233.09 163.40ZM222.31 160.26L219.50 148.60L208.72 145.46L200.75 153.99L203.57 165.65L214.34 168.78ZM246.23 134.69L243.42 123.01L232.64 119.87L224.66 128.40L227.47 140.07L238.25 143.21ZM227.47 140.07L224.66 128.40L213.88 125.27L205.91 133.80L208.72 145.46L219.50 148.60ZM254.65 169.69L251.84 158.02L241.06 154.88L233.09 163.40L235.90 175.06L246.68 178.21ZM235.90 175.06L233.09 163.40L222.31 160.26L214.34 168.78L217.15 180.44L227.93 183.58ZM259.82 149.50L257.02 137.83L246.23 134.69L238.25 143.21L241.06 154.88L251.84 158.02ZM270.18 109.10L267.37 97.42L256.58 94.28L248.59 102.81L251.40 114.49L262.19 117.63ZM251.40 114.49L248.59 102.81L237.80 99.67L229.83 108.20L232.64 119.87L243.42 123.01ZM275.36 88.89L272.56 77.21L261.76 74.06L253.77 82.60L256.58 94.28L267.37 97.42ZM256.58 94.28L253.77 82.60L242.98 79.46L234.99 88.00L237.80 99.67L248.59 102.81ZM265.00 129.30L262.19 117.63L251.40 114.49L243.42 123.01L246.23 134.69L257.02 137.83ZM263.06 204.68L260.26 193.02L249.48 189.87L241.51 198.39L244.32 210.04L255.09 213.19ZM244.32 210.04L241.51 198.39L230.74 195.24L222.77 203.76L225.58 215.41L236.35 218.56ZM268.24 184.50L265.43 172.83L254.65 169.69L246.68 178.21L249.48 189.87L260.26 193.02ZM249.48 189.87L246.68 178.21L235.90 175.06L227.93 183.58L230.74 195.24L241.51 198.39ZM276.64 219.49L273.84 207.83L263.06 204.68L255.09 213.19L257.89 224.85L268.67 228.00ZM257.89 224.85L255.09 213.19L244.32 210.04L236.35 218.56L239.15 230.21L249.92 233.36ZM160.97 196.60L158.15 184.95L147.38 181.82L139.44 190.35L142.26 201.99L153.02 205.12ZM142.26 201.99L139.44 190.35L128.67 187.22L120.73 195.74L123.55 207.39L134.31 210.51ZM166.10 176.43L163.29 164.77L152.51 161.65L144.56 170.17L147.38 181.82L158.15 184.95ZM147.38 181.82L144.56 170.17L133.80 167.05L125.85 175.57L128.67 187.22L139.44 190.35ZM174.55 211.38L171.73 199.73L160.97 196.60L153.02 205.12L155.83 216.77L166.60 219.90ZM155.83 216.77L153.02 205.12L142.26 201.99L134.31 210.51L137.13 222.16L147.89 225.28ZM179.69 191.21L176.87 179.56L166.10 176.43L158.15 184.95L160.97 196.60L171.73 199.73ZM109.97 192.62L107.15 180.98L96.38 177.86L88.45 186.39L91.28 198.03L102.03 201.15ZM91.28 198.03L88.45 186.39L77.69 183.27L69.76 191.80L72.59 203.44L83.34 206.55ZM115.09 172.45L112.26 160.81L101.50 157.69L93.56 166.22L96.38 177.86L107.15 180.98ZM96.38 177.86L93.56 166.22L82.80 163.10L74.86 171.63L77.69 183.27L88.45 186.39ZM123.55 207.39L120.73 195.74L109.97 192.62L102.03 201.15L104.86 212.79L115.61 215.91ZM104.86 212.79L102.03 201.15L91.28 198.03L83.34 206.55L86.17 218.19L96.92 221.31ZM128.67 187.22L125.85 175.57L115.09 172.45L107.15 180.98L109.97 192.62L120.73 195.74ZM189.98 150.85L187.16 139.19L176.38 136.06L168.42 144.59L171.24 156.25L182.02 159.38ZM171.24 156.25L168.42 144.59L157.65 141.46L149.70 149.99L152.51 161.65L163.29 164.77ZM195.13 130.66L192.31 119.00L181.53 115.87L173.57 124.40L176.38 136.06L187.16 139.19ZM176.38 136.06L173.57 124.40L162.79 121.27L154.83 129.80L157.65 141.46L168.42 144.59ZM203.57 165.65L200.75 153.99L189.98 150.85L182.02 159.38L184.83 171.03L195.60 174.17ZM184.83 171.03L182.02 159.38L171.24 156.25L163.29 164.77L166.10 176.43L176.87 179.56ZM208.72 145.46L205.91 133.80L195.13 130.66L187.16 139.19L189.98 150.85L200.75 153.99ZM138.92 146.87L136.10 135.21L125.33 132.09L117.38 140.63L120.21 152.28L130.98 155.40ZM120.21 152.28L117.38 140.63L106.61 137.51L98.67 146.04L101.50 157.69L112.26 160.81ZM144.05 126.68L141.23 115.02L130.46 111.90L122.51 120.44L125.33 132.09L136.10 135.21ZM125.33 132.09L122.51 120.44L111.73 117.32L103.79 125.86L106.61 137.51L117.38 140.63ZM152.51 161.65L149.70 149.99L138.92 146.87L130.98 155.40L133.80 167.05L144.56 170.17ZM133.80 167.05L130.98 155.40L120.21 152.28L112.26 160.81L115.09 172.45L125.85 175.57ZM157.65 141.46L154.83 129.80L144.05 126.68L136.10 135.21L138.92 146.87L149.70 149.99ZM182.98 246.32L180.17 234.68L169.41 231.54L161.47 240.05L164.28 251.70L175.04 254.83ZM164.28 251.70L161.47 240.05L150.71 236.92L142.77 245.44L145.58 257.08L156.34 260.21ZM188.12 226.16L185.31 214.51L174.55 211.38L166.60 219.90L169.41 231.54L180.17 234.68ZM169.41 231.54L166.60 219.90L155.83 216.77L147.89 225.28L150.71 236.92L161.47 240.05ZM196.56 261.10L193.75 249.46L182.98 246.32L175.04 254.83L177.85 266.47L188.61 269.61ZM177.85 266.47L175.04 254.83L164.28 251.70L156.34 260.21L159.15 271.85L169.90 274.98ZM201.70 240.95L198.89 229.30L188.12 226.16L180.17 234.68L182.98 246.32L193.75 249.46ZM132.01 242.31L129.19 230.67L118.43 227.55L110.50 236.06L113.32 247.70L124.07 250.82ZM113.32 247.70L110.50 236.06L99.75 232.94L91.82 241.46L94.64 253.09L105.39 256.21ZM137.13 222.16L134.31 210.51L123.55 207.39L115.61 215.91L118.43 227.55L129.19 230.67ZM118.43 227.55L115.61 215.91L104.86 212.79L96.92 221.31L99.75 232.94L110.50 236.06ZM145.58 257.08L142.77 245.44L132.01 242.31L124.07 250.82L126.89 262.46L137.64 265.59ZM126.89 262.46L124.07 250.82L113.32 247.70L105.39 256.21L108.21 267.85L118.96 270.97ZM150.71 236.92L147.89 225.28L137.13 222.16L129.19 230.67L132.01 242.31L142.77 245.44ZM212.00 200.62L209.19 188.96L198.42 185.83L190.46 194.34L193.27 206.00L204.04 209.13ZM193.27 206.00L190.46 194.34L179.69 191.21L171.73 199.73L174.55 211.38L185.31 214.51ZM217.15 180.44L214.34 168.78L203.57 165.65L195.60 174.17L198.42 185.83L209.19 188.96ZM198.42 185.83L195.60 174.17L184.83 171.03L176.87 179.56L179.69 191.21L190.46 194.34ZM225.58 215.41L222.77 203.76L212.00 200.62L204.04 209.13L206.85 220.79L217.61 223.93ZM206.85 220.79L204.04 209.13L193.27 206.00L185.31 214.51L188.12 226.16L198.89 229.30ZM230.74 195.24L227.93 183.58L217.15 180.44L209.19 188.96L212.00 200.62L222.77 203.76ZM277.32 13.38L274.51 1.69L263.70 -1.45L255.70 7.10L258.51 18.79L269.32 21.93ZM258.51 18.79L255.70 7.10L244.89 3.96L236.90 12.51L239.72 24.19L250.52 27.33ZM263.70 -1.45L260.89 -13.15L250.08 -16.29L242.08 -7.73L244.89 3.96L255.70 7.10ZM272.13 33.62L269.32 21.93L258.51 18.79L250.52 27.33L253.33 39.02L264.13 42.16ZM196.99 55.24L194.17 43.57L183.38 40.44L175.40 48.98L178.22 60.66L189.01 63.79ZM178.22 60.66L175.40 48.98L164.61 45.86L156.65 54.41L159.47 66.07L170.26 69.20ZM202.15 35.02L199.33 23.34L188.53 20.21L180.56 28.76L183.38 40.44L194.17 43.57ZM183.38 40.44L180.56 28.76L169.76 25.64L161.79 34.19L164.61 45.86L175.40 48.98ZM210.60 70.05L207.78 58.37L196.99 55.24L189.01 63.79L191.83 75.46L202.62 78.59ZM191.83 75.46L189.01 63.79L178.22 60.66L170.26 69.20L173.08 80.87L183.86 84.00ZM215.76 49.83L212.94 38.15L202.15 35.02L194.17 43.57L196.99 55.24L207.78 58.37ZM159.47 66.07L156.65 54.41L145.86 51.28L137.90 59.83L140.72 71.50L151.51 74.62ZM226.10 9.37L223.28 -2.31L212.48 -5.45L204.49 3.11L207.31 14.79L218.11 17.92ZM207.31 14.79L204.49 3.11L193.69 -0.02L185.71 8.53L188.53 20.21L199.33 23.34ZM212.48 -5.45L209.66 -17.13L198.85 -20.26L190.87 -11.70L193.69 -0.02L204.49 3.11ZM239.72 24.19L236.90 12.51L226.10 9.37L218.11 17.92L220.93 29.60L231.73 32.74ZM220.93 29.60L218.11 17.92L207.31 14.79L199.33 23.34L202.15 35.02L212.94 38.15ZM244.89 3.96L242.08 -7.73L231.27 -10.87L223.28 -2.31L226.10 9.37L236.90 12.51ZM219.04 105.07L216.22 93.39L205.44 90.26L197.46 98.80L200.28 110.46L211.06 113.60ZM200.28 110.46L197.46 98.80L186.68 95.67L178.71 104.20L181.53 115.87L192.31 119.00ZM224.20 84.86L221.39 73.18L210.60 70.05L202.62 78.59L205.44 90.26L216.22 93.39ZM205.44 90.26L202.62 78.59L191.83 75.46L183.86 84.00L186.68 95.67L197.46 98.80ZM232.64 119.87L229.83 108.20L219.04 105.07L211.06 113.60L213.88 125.27L224.66 128.40ZM213.88 125.27L211.06 113.60L200.28 110.46L192.31 119.00L195.13 130.66L205.91 133.80ZM237.80 99.67L234.99 88.00L224.20 84.86L216.22 93.39L219.04 105.07L229.83 108.20ZM167.93 101.07L165.11 89.41L154.33 86.28L146.37 94.82L149.19 106.49L159.97 109.61ZM149.19 106.49L146.37 94.82L135.59 91.70L127.63 100.24L130.46 111.90L141.23 115.02ZM173.08 80.87L170.26 69.20L159.47 66.07L151.51 74.62L154.33 86.28L165.11 89.41ZM154.33 86.28L151.51 74.62L140.72 71.50L132.76 80.04L135.59 91.70L146.37 94.82ZM181.53 115.87L178.71 104.20L167.93 101.07L159.97 109.61L162.79 121.27L173.57 124.40ZM162.79 121.27L159.97 109.61L149.19 106.49L141.23 115.02L144.05 126.68L154.83 129.80ZM186.68 95.67L183.86 84.00L173.08 80.87L165.11 89.41L167.93 101.07L178.71 104.20ZM248.15 59.24L245.34 47.56L234.54 44.42L226.56 52.97L229.37 64.64L240.17 67.78ZM229.37 64.64L226.56 52.97L215.76 49.83L207.78 58.37L210.60 70.05L221.39 73.18ZM253.33 39.02L250.52 27.33L239.72 24.19L231.73 32.74L234.54 44.42L245.34 47.56ZM234.54 44.42L231.73 32.74L220.93 29.60L212.94 38.15L215.76 49.83L226.56 52.97ZM261.76 74.06L258.95 62.38L248.15 59.24L240.17 67.78L242.98 79.46L253.77 82.60ZM242.98 79.46L240.17 67.78L229.37 64.64L221.39 73.18L224.20 84.86L234.99 88.00ZM266.94 53.84L264.13 42.16L253.33 39.02L245.34 47.56L248.15 59.24L258.95 62.38ZM266.30 259.82L263.50 248.16L252.73 245.01L244.76 253.52L247.56 265.17L258.33 268.32ZM271.47 239.66L268.67 228.00L257.89 224.85L249.92 233.36L252.73 245.01L263.50 248.16ZM233.99 250.37L231.19 238.72L220.42 235.58L212.46 244.09L215.27 255.74L226.03 258.88ZM215.27 255.74L212.46 244.09L201.70 240.95L193.75 249.46L196.56 261.10L207.32 264.24ZM239.15 230.21L236.35 218.56L225.58 215.41L217.61 223.93L220.42 235.58L231.19 238.72ZM220.42 235.58L217.61 223.93L206.85 220.79L198.89 229.30L201.70 240.95L212.46 244.09ZM247.56 265.17L244.76 253.52L233.99 250.37L226.03 258.88L228.84 270.53L239.60 273.67ZM228.84 270.53L226.03 258.88L215.27 255.74L207.32 264.24L210.12 275.89L220.88 279.03ZM252.73 245.01L249.92 233.36L239.15 230.21L231.19 238.72L233.99 250.37L244.76 253.52ZM30.16 234.42L27.33 222.79L16.58 219.68L8.67 228.21L11.51 239.83L22.25 242.94ZM11.51 239.83L8.67 228.21L-2.07 225.11L-9.98 233.63L-7.14 245.25L3.60 248.35ZM16.58 219.68L13.75 208.06L3.00 204.96L-4.91 213.48L-2.07 225.11L8.67 228.21ZM43.73 249.15L40.90 237.52L30.16 234.42L22.25 242.94L25.08 254.56L35.82 257.67ZM25.08 254.56L22.25 242.94L11.51 239.83L3.60 248.35L6.43 259.97L17.17 263.08ZM48.82 229.00L45.99 217.37L35.24 214.27L27.33 222.79L30.16 234.42L40.90 237.52ZM59.01 188.69L56.18 177.05L45.42 173.94L37.50 182.47L40.33 194.11L51.08 197.22ZM72.59 203.44L69.76 191.80L59.01 188.69L51.08 197.22L53.91 208.85L64.66 211.96ZM53.91 208.85L51.08 197.22L40.33 194.11L32.41 202.64L35.24 214.27L45.99 217.37ZM77.69 183.27L74.86 171.63L64.10 168.52L56.18 177.05L59.01 188.69L69.76 191.80ZM57.30 263.89L54.48 252.26L43.73 249.15L35.82 257.67L38.65 269.29L49.39 272.40ZM38.65 269.29L35.82 257.67L25.08 254.56L17.17 263.08L20.00 274.70L30.74 277.80ZM6.43 259.97L3.60 248.35L-7.14 245.25L-15.04 253.77L-12.20 265.39L-1.47 268.49ZM81.07 238.34L78.24 226.71L67.49 223.60L59.57 232.12L62.40 243.75L73.14 246.86ZM62.40 243.75L59.57 232.12L48.82 229.00L40.90 237.52L43.73 249.15L54.48 252.26ZM86.17 218.19L83.34 206.55L72.59 203.44L64.66 211.96L67.49 223.60L78.24 226.71ZM67.49 223.60L64.66 211.96L53.91 208.85L45.99 217.37L48.82 229.00L59.57 232.12ZM94.64 253.09L91.82 241.46L81.07 238.34L73.14 246.86L75.97 258.49L86.72 261.61ZM75.97 258.49L73.14 246.86L62.40 243.75L54.48 252.26L57.30 263.89L68.05 267.00ZM99.75 232.94L96.92 221.31L86.17 218.19L78.24 226.71L81.07 238.34L91.82 241.46ZM101.50 157.69L98.67 146.04L87.91 142.93L79.97 151.46L82.80 163.10L93.56 166.22ZM82.80 163.10L79.97 151.46L69.21 148.35L61.27 156.88L64.10 168.52L74.86 171.63ZM106.61 137.51L103.79 125.86L93.02 122.74L85.08 131.28L87.91 142.93L98.67 146.04ZM116.86 97.12L114.03 85.47L103.25 82.35L95.30 90.89L98.13 102.55L108.91 105.66ZM98.13 102.55L95.30 90.89L84.53 87.78L76.59 96.32L79.42 107.98L90.19 111.09ZM130.46 111.90L127.63 100.24L116.86 97.12L108.91 105.66L111.73 117.32L122.51 120.44ZM111.73 117.32L108.91 105.66L98.13 102.55L90.19 111.09L93.02 122.74L103.79 125.86ZM108.21 267.85L105.39 256.21L94.64 253.09L86.72 261.61L89.54 273.23L100.28 276.35Z"/></svg>
