<svg xmlns="http://www.w3.org/2000/svg" width="256" height="256" viewBox="0 0 256 256"><path data-band="2" fill="#f97316" fill-opacity="0.35" d="M164.28 -4.30L161.47 -15.95L150.71 -19.08L142.77 -10.56L145.58 1.08L156.34 4.21ZM196.56 5.10L193.75 -6.54L182.98 -9.68L175.04 -1.17L177.85 10.47L188.61 13.61ZM177.85 10.47L175.04 -1.17L164.28 -4.30L156.34 4.21L159.15 15.85L169.90 18.98ZM113.32 -8.30L110.50 -19.94L99.75 -23.06L91.82 -14.54L94.64 -2.91L105.39 0.21ZM145.58 1.08L142.77 -10.56L132.01 -13.69L124.07 -5.18L126.89 6.46L137.64 9.59ZM126.89 6.46L124.07 -5.18L113.32 -8.30L105.39 0.21L108.21 11.85L118.96 14.97ZM255.97 44.12L253.17 32.47L242.40 29.32L234.45 37.82L237.25 49.46L248.01 52.61ZM237.25 49.46L234.45 37.82L223.69 34.67L215.73 43.17L218.54 54.81L229.29 57.96ZM261.13 23.97L258.33 12.32L247.56 9.17L239.60 17.67L242.40 29.32L253.17 32.47ZM242.40 29.32L239.60 17.67L228.84 14.53L220.88 23.03L223.69 34.67L234.45 37.82ZM269.52 58.91L266.73 47.27L255.97 44.12L248.01 52.61L250.81 64.25L261.56 67.41ZM250.81 64.25L248.01 52.61L237.25 49.46L229.29 57.96L232.10 69.60L242.85 72.75ZM274.69 38.77L271.89 27.12L261.13 23.97L253.17 32.47L255.97 44.12L266.73 47.27ZM204.98 40.03L202.17 28.39L191.41 25.25L183.47 33.75L186.28 45.39L197.03 48.53ZM186.28 45.39L183.47 33.75L172.72 30.62L164.77 39.12L167.59 50.75L178.34 53.89ZM210.12 19.89L207.32 8.24L196.56 5.10L188.61 13.61L191.41 25.25L202.17 28.39ZM191.41 25.25L188.61 13.61L177.85 10.47L169.90 18.98L172.72 30.62L183.47 33.75ZM218.54 54.81L215.73 43.17L204.98 40.03L197.03 48.53L199.84 60.17L210.59 63.31ZM199.84 60.17L197.03 48.53L186.28 45.39L178.34 53.89L181.14 65.52L191.89 68.66ZM223.69 34.67L220.88 23.03L210.12 19.89L202.17 28.39L204.98 40.03L215.73 43.17ZM266.30 3.82L263.50 -7.84L252.73 -10.99L244.76 -2.48L247.56 9.17L258.33 12.32ZM233.99 -5.63L231.19 -17.28L220.42 -20.42L212.46 -11.91L215.27 -0.26L226.03 2.88ZM215.27 -0.26L212.46 -11.91L201.70 -15.05L193.75 -6.54L196.56 5.10L207.32 8.24ZM247.56 9.17L244.76 -2.48L233.99 -5.63L226.03 2.88L228.84 14.53L239.60 17.67ZM228.84 14.53L226.03 2.88L215.27 -0.26L207.32 8.24L210.12 19.89L220.88 23.03ZM259.20 99.18L256.40 87.54L245.65 84.39L237.70 92.87L240.50 104.51L251.25 107.66ZM264.36 79.05L261.56 67.41L250.81 64.25L242.85 72.75L245.65 84.39L256.40 87.54ZM272.75 113.97L269.95 102.33L259.20 99.18L251.25 107.66L254.04 119.30L264.79 122.45ZM226.95 89.73L224.14 78.09L213.39 74.95L205.45 83.44L208.25 95.07L219.00 98.22ZM208.25 95.07L205.45 83.44L194.70 80.30L186.76 88.79L189.57 100.42L200.31 103.56ZM232.10 69.60L229.29 57.96L218.54 54.81L210.59 63.31L213.39 74.95L224.14 78.09ZM213.39 74.95L210.59 63.31L199.84 60.17L191.89 68.66L194.70 80.30L205.45 83.44ZM240.50 104.51L237.70 92.87L226.95 89.73L219.00 98.22L221.80 109.85L232.55 113.00ZM221.80 109.85L219.00 98.22L208.25 95.07L200.31 103.56L203.11 115.19L213.86 118.33ZM245.65 84.39L242.85 72.75L232.10 69.60L224.14 78.09L226.95 89.73L237.70 92.87ZM43.73 -6.85L40.90 -18.48L30.16 -21.58L22.25 -13.06L25.08 -1.44L35.82 1.67ZM25.08 -1.44L22.25 -13.06L11.51 -16.17L3.60 -7.65L6.43 3.97L17.17 7.08ZM52.22 28.02L49.39 16.40L38.65 13.29L30.74 21.80L33.57 33.42L44.31 36.53ZM33.57 33.42L30.74 21.80L20.00 18.70L12.10 27.21L14.93 38.83L25.66 41.93ZM57.30 7.89L54.48 -3.74L43.73 -6.85L35.82 1.67L38.65 13.29L49.39 16.40ZM38.65 13.29L35.82 1.67L25.08 -1.44L17.17 7.08L20.00 18.70L30.74 21.80ZM65.78 42.76L62.96 31.14L52.22 28.02L44.31 36.53L47.13 48.15L57.87 51.27ZM47.13 48.15L44.31 36.53L33.57 33.42L25.66 41.93L28.49 53.55L39.22 56.66ZM70.87 22.63L68.05 11.00L57.30 7.89L49.39 16.40L52.22 28.02L62.96 31.14ZM1.36 24.11L-1.47 12.49L-12.20 9.39L-20.10 17.90L-17.27 29.52L-6.54 32.62ZM6.43 3.97L3.60 -7.65L-7.14 -10.75L-15.04 -2.23L-12.20 9.39L-1.47 12.49ZM14.93 38.83L12.10 27.21L1.36 24.11L-6.54 32.62L-3.70 44.23L7.03 47.33ZM20.00 18.70L17.17 7.08L6.43 3.97L-1.47 12.49L1.36 24.11L12.10 27.21ZM94.64 -2.91L91.82 -14.54L81.07 -17.66L73.14 -9.14L75.97 2.49L86.72 5.61ZM75.97 2.49L73.14 -9.14L62.40 -12.25L54.48 -3.74L57.30 7.89L68.05 11.00ZM268.87 264.12L266.08 252.50L255.36 249.34L247.42 257.80L250.21 269.41L260.94 272.57ZM250.21 269.41L247.42 257.80L236.69 254.64L228.76 263.10L231.56 274.71L242.28 277.87ZM274.03 244.04L271.24 232.42L260.50 229.26L252.56 237.72L255.36 249.34L266.08 252.50ZM89.43 222.28L86.62 210.68L75.90 207.56L68.01 216.03L70.82 227.63L81.53 230.75ZM70.82 227.63L68.01 216.03L57.30 212.91L49.40 221.39L52.22 232.98L62.93 236.10ZM94.52 202.21L91.70 190.60L80.99 187.48L73.09 195.96L75.90 207.56L86.62 210.68ZM75.90 207.56L73.09 195.96L62.37 192.84L54.48 201.31L57.30 212.91L68.01 216.03ZM102.96 237.01L100.14 225.41L89.43 222.28L81.53 230.75L84.35 242.35L95.06 245.48ZM84.35 242.35L81.53 230.75L70.82 227.63L62.93 236.10L65.75 247.69L76.45 250.82ZM108.05 216.94L105.24 205.33L94.52 202.21L86.62 210.68L89.43 222.28L100.14 225.41ZM38.70 218.27L35.88 206.67L25.17 203.56L17.28 212.04L20.11 223.63L30.81 226.74ZM20.11 223.63L17.28 212.04L6.58 208.93L-1.30 217.41L1.52 228.99L12.23 232.10ZM43.77 198.20L40.94 186.60L30.23 183.48L22.34 191.97L25.17 203.56L35.88 206.67ZM25.17 203.56L22.34 191.97L11.64 188.85L3.75 197.34L6.58 208.93L17.28 212.04ZM52.22 232.98L49.40 221.39L38.70 218.27L30.81 226.74L33.63 238.33L44.34 241.45ZM33.63 238.33L30.81 226.74L20.11 223.63L12.23 232.10L15.05 243.69L25.75 246.80ZM57.30 212.91L54.48 201.31L43.77 198.20L35.88 206.67L38.70 218.27L49.40 221.39ZM118.24 176.77L115.43 165.16L104.70 162.04L96.80 170.52L99.61 182.13L110.33 185.25ZM99.61 182.13L96.80 170.52L86.07 167.39L78.17 175.88L80.99 187.48L91.70 190.60ZM123.34 156.68L120.53 145.07L109.80 141.94L101.89 150.43L104.70 162.04L115.43 165.16ZM104.70 162.04L101.89 150.43L91.16 147.30L83.26 155.79L86.07 167.39L96.80 170.52ZM131.77 191.51L128.96 179.91L118.24 176.77L110.33 185.25L113.14 196.86L123.86 199.99ZM113.14 196.86L110.33 185.25L99.61 182.13L91.70 190.60L94.52 202.21L105.24 205.33ZM136.88 171.43L134.07 159.81L123.34 156.68L115.43 165.16L118.24 176.77L128.96 179.91ZM67.45 172.75L64.63 161.15L53.91 158.03L46.02 166.52L48.84 178.12L59.55 181.24ZM48.84 178.12L46.02 166.52L35.30 163.40L27.41 171.89L30.23 183.48L40.94 186.60ZM72.53 152.67L69.72 141.06L58.99 137.94L51.09 146.43L53.91 158.03L64.63 161.15ZM53.91 158.03L51.09 146.43L40.37 143.31L32.48 151.80L35.30 163.40L46.02 166.52ZM80.99 187.48L78.17 175.88L67.45 172.75L59.55 181.24L62.37 192.84L73.09 195.96ZM62.37 192.84L59.55 181.24L48.84 178.12L40.94 186.60L43.77 198.20L54.48 201.31ZM86.07 167.39L83.26 155.79L72.53 152.67L64.63 161.15L67.45 172.75L78.17 175.88ZM116.48 251.74L113.67 240.14L102.96 237.01L95.06 245.48L97.87 257.07L108.58 260.20ZM97.87 257.07L95.06 245.48L84.35 242.35L76.45 250.82L79.27 262.41L89.97 265.53ZM130.00 266.47L127.19 254.87L116.48 251.74L108.58 260.20L111.39 271.80L122.09 274.93ZM60.67 267.75L57.86 256.16L47.15 253.04L39.27 261.51L42.09 273.09L52.79 276.21ZM65.75 247.69L62.93 236.10L52.22 232.98L44.34 241.45L47.15 253.04L57.86 256.16ZM47.15 253.04L44.34 241.45L33.63 238.33L25.75 246.80L28.57 258.39L39.27 261.51ZM79.27 262.41L76.45 250.82L65.75 247.69L57.86 256.16L60.67 267.75L71.38 270.87ZM140.20 226.33L137.39 214.73L126.67 211.60L118.76 220.07L121.57 231.67L132.29 234.80ZM121.57 231.67L118.76 220.07L108.05 216.94L100.14 225.41L102.96 237.01L113.67 240.14ZM145.31 206.26L142.50 194.65L131.77 191.51L123.86 199.99L126.67 211.60L137.39 214.73ZM126.67 211.60L123.86 199.99L113.14 196.86L105.24 205.33L108.05 216.94L118.76 220.07ZM153.72 241.08L150.92 229.47L140.20 226.33L132.29 234.80L135.10 246.40L145.81 249.54ZM135.10 246.40L132.29 234.80L121.57 231.67L113.67 240.14L116.48 251.74L127.19 254.87ZM158.83 221.00L156.03 209.39L145.31 206.26L137.39 214.73L140.20 226.33L150.92 229.47ZM1.52 228.99L-1.30 217.41L-12.00 214.30L-19.88 222.78L-17.05 234.36L-6.35 237.47ZM6.58 208.93L3.75 197.34L-6.95 194.23L-14.83 202.71L-12.00 214.30L-1.30 217.41ZM9.99 263.74L7.17 252.16L-3.53 249.05L-11.40 257.52L-8.57 269.10L2.12 272.21ZM15.05 243.69L12.23 232.10L1.52 228.99L-6.35 237.47L-3.53 249.05L7.17 252.16ZM28.57 258.39L25.75 246.80L15.05 243.69L7.17 252.16L9.99 263.74L20.69 266.86ZM125.12 81.61L122.30 69.99L111.56 66.86L103.64 75.36L106.46 86.98L117.19 90.11ZM106.46 86.98L103.64 75.36L92.90 72.24L84.98 80.74L87.80 92.36L98.54 95.48ZM130.23 61.49L127.41 49.86L116.67 46.74L108.74 55.24L111.56 66.86L122.30 69.99ZM111.56 66.86L108.74 55.24L98.00 52.12L90.08 60.62L92.90 72.24L103.64 75.36ZM138.67 96.37L135.85 84.74L125.12 81.61L117.19 90.11L120.01 101.73L130.74 104.86ZM120.01 101.73L117.19 90.11L106.46 86.98L98.54 95.48L101.35 107.10L112.09 110.22ZM143.78 76.25L140.97 64.62L130.23 61.49L122.30 69.99L125.12 81.61L135.85 84.74ZM74.25 77.62L71.43 66.00L60.69 62.88L52.78 71.39L55.61 83.00L66.34 86.12ZM55.61 83.00L52.78 71.39L42.05 68.27L34.15 76.78L36.97 88.39L47.70 91.50ZM79.34 57.50L76.52 45.88L65.78 42.76L57.87 51.27L60.69 62.88L71.43 66.00ZM60.69 62.88L57.87 51.27L47.13 48.15L39.22 56.66L42.05 68.27L52.78 71.39ZM87.80 92.36L84.98 80.74L74.25 77.62L66.34 86.12L69.16 97.73L79.89 100.85ZM69.16 97.73L66.34 86.12L55.61 83.00L47.70 91.50L50.53 103.11L61.25 106.23ZM92.90 72.24L90.08 60.62L79.34 57.50L71.43 66.00L74.25 77.62L84.98 80.74ZM154.02 35.99L151.21 24.35L140.46 21.22L132.53 29.73L135.34 41.36L146.09 44.49ZM135.34 41.36L132.53 29.73L121.78 26.60L113.85 35.11L116.67 46.74L127.41 49.86ZM159.15 15.85L156.34 4.21L145.58 1.08L137.64 9.59L140.46 21.22L151.21 24.35ZM140.46 21.22L137.64 9.59L126.89 6.46L118.96 14.97L121.78 26.60L132.53 29.73ZM167.59 50.75L164.77 39.12L154.02 35.99L146.09 44.49L148.90 56.12L159.65 59.25ZM148.90 56.12L146.09 44.49L135.34 41.36L127.41 49.86L130.23 61.49L140.97 64.62ZM172.72 30.62L169.90 18.98L159.15 15.85L151.21 24.35L154.02 35.99L164.77 39.12ZM103.10 31.98L100.28 20.35L89.54 17.23L81.62 25.74L84.44 37.37L95.18 40.49ZM84.44 37.37L81.62 25.74L70.87 22.63L62.96 31.14L65.78 42.76L76.52 45.88ZM108.21 11.85L105.39 0.21L94.64 -2.91L86.72 5.61L89.54 17.23L100.28 20.35ZM89.54 17.23L86.72 5.61L75.97 2.49L68.05 11.00L70.87 22.63L81.62 25.74ZM116.67 46.74L113.85 35.11L103.10 31.98L95.18 40.49L98.00 52.12L108.74 55.24ZM98.00 52.12L95.18 40.49L84.44 37.37L76.52 45.88L79.34 57.50L90.08 60.62ZM121.78 26.60L118.96 14.97L108.21 11.85L100.28 20.35L103.10 31.98L113.85 35.11ZM147.10 131.23L144.29 119.61L133.56 116.48L125.63 124.97L128.45 136.58L139.18 139.72ZM128.45 136.58L125.63 124.97L114.90 121.84L106.99 130.33L109.80 141.94L120.53 145.07ZM152.22 111.12L149.41 99.50L138.67 96.37L130.74 104.86L133.56 116.48L144.29 119.61ZM133.56 116.48L130.74 104.86L120.01 101.73L112.09 110.22L114.90 121.84L125.63 124.97ZM160.64 145.99L157.84 134.37L147.10 131.23L139.18 139.72L141.99 151.33L152.72 154.47ZM141.99 151.33L139.18 139.72L128.45 136.58L120.53 145.07L123.34 156.68L134.07 159.81ZM165.76 125.88L162.96 114.26L152.22 111.12L144.29 119.61L147.10 131.23L157.84 134.37ZM96.26 127.20L93.44 115.59L82.71 112.47L74.80 120.96L77.62 132.57L88.35 135.69ZM77.62 132.57L74.80 120.96L64.07 117.84L56.17 126.33L58.99 137.94L69.72 141.06ZM101.35 107.10L98.54 95.48L87.80 92.36L79.89 100.85L82.71 112.47L93.44 115.59ZM82.71 112.47L79.89 100.85L69.16 97.73L61.25 106.23L64.07 117.84L74.80 120.96ZM109.80 141.94L106.99 130.33L96.26 127.20L88.35 135.69L91.16 147.30L101.89 150.43ZM91.16 147.30L88.35 135.69L77.62 132.57L69.72 141.06L72.53 152.67L83.26 155.79ZM114.90 121.84L112.09 110.22L101.35 107.10L93.44 115.59L96.26 127.20L106.99 130.33ZM176.01 85.65L173.21 74.02L162.46 70.88L154.53 79.38L157.34 91.01L168.08 94.14ZM157.34 91.01L154.53 79.38L143.78 76.25L135.85 84.74L138.67 96.37L149.41 99.50ZM181.14 65.52L178.34 53.89L167.59 50.75L159.65 59.25L162.46 70.88L173.21 74.02ZM162.46 70.88L159.65 59.25L148.90 56.12L140.97 64.62L143.78 76.25L154.53 79.38ZM189.57 100.42L186.76 88.79L176.01 85.65L168.08 94.14L170.89 105.77L181.63 108.91ZM170.89 105.77L168.08 94.14L157.34 91.01L149.41 99.50L152.22 111.12L162.96 114.26ZM194.70 80.30L191.89 68.66L181.14 65.52L173.21 74.02L176.01 85.65L186.76 88.79ZM8.22 133.98L5.39 122.38L-5.33 119.27L-13.22 127.77L-10.39 139.37L0.33 142.47ZM13.28 113.88L10.45 102.28L-0.27 99.17L-8.16 107.67L-5.33 119.27L5.39 122.38ZM23.42 73.67L20.59 62.05L9.86 58.95L1.96 67.45L4.79 79.06L15.52 82.17ZM4.79 79.06L1.96 67.45L-8.76 64.35L-16.66 72.86L-13.82 84.46L-3.10 87.56ZM28.49 53.55L25.66 41.93L14.93 38.83L7.03 47.33L9.86 58.95L20.59 62.05ZM9.86 58.95L7.03 47.33L-3.70 44.23L-11.60 52.74L-8.76 64.35L1.96 67.45ZM36.97 88.39L34.15 76.78L23.42 73.67L15.52 82.17L18.35 93.78L29.07 96.89ZM18.35 93.78L15.52 82.17L4.79 79.06L-3.10 87.56L-0.27 99.17L10.45 102.28ZM42.05 68.27L39.22 56.66L28.49 53.55L20.59 62.05L23.42 73.67L34.15 76.78ZM16.70 168.78L13.87 157.18L3.16 154.07L-4.73 162.56L-1.90 174.15L8.81 177.26ZM21.76 148.69L18.93 137.09L8.22 133.98L0.33 142.47L3.16 154.07L13.87 157.18ZM3.16 154.07L0.33 142.47L-10.39 139.37L-18.27 147.86L-15.44 159.45L-4.73 162.56ZM30.23 183.48L27.41 171.89L16.70 168.78L8.81 177.26L11.64 188.85L22.34 191.97ZM11.64 188.85L8.81 177.26L-1.90 174.15L-9.78 182.64L-6.95 194.23L3.75 197.34ZM35.30 163.40L32.48 151.80L21.76 148.69L13.87 157.18L16.70 168.78L27.41 171.89ZM45.45 123.22L42.62 111.61L31.90 108.50L24.00 116.99L26.83 128.60L37.55 131.71ZM26.83 128.60L24.00 116.99L13.28 113.88L5.39 122.38L8.22 133.98L18.93 137.09ZM50.53 103.11L47.70 91.50L36.97 88.39L29.07 96.89L31.90 108.50L42.62 111.61ZM31.90 108.50L29.07 96.89L18.35 93.78L10.45 102.28L13.28 113.88L24.00 116.99ZM58.99 137.94L56.17 126.33L45.45 123.22L37.55 131.71L40.37 143.31L51.09 146.43ZM40.37 143.31L37.55 131.71L26.83 128.60L18.93 137.09L21.76 148.69L32.48 151.80ZM64.07 117.84L61.25 106.23L50.53 103.11L42.62 111.61L45.45 123.22L56.17 126.33ZM218.04 259.95L215.25 248.34L204.52 245.19L196.60 253.65L199.40 265.26L210.12 268.41ZM199.40 265.26L196.60 253.65L185.88 250.50L177.96 258.96L180.76 270.57L191.48 273.71ZM167.24 255.82L164.44 244.22L153.72 241.08L145.81 249.54L148.62 261.14L159.33 264.28ZM148.62 261.14L145.81 249.54L135.10 246.40L127.19 254.87L130.00 266.47L140.71 269.60ZM180.76 270.57L177.96 258.96L167.24 255.82L159.33 264.28L162.13 275.88L172.85 279.03ZM219.92 184.94L217.12 173.32L206.39 170.17L198.45 178.65L201.25 190.26L211.99 193.41ZM201.25 190.26L198.45 178.65L187.72 175.50L179.79 183.98L182.60 195.59L193.32 198.74ZM225.06 164.84L222.26 153.22L211.52 150.07L203.58 158.55L206.39 170.17L217.12 173.32ZM206.39 170.17L203.58 158.55L192.85 155.40L184.92 163.88L187.72 175.50L198.45 178.65ZM233.45 199.71L230.65 188.09L219.92 184.94L211.99 193.41L214.78 205.03L225.51 208.18ZM214.78 205.03L211.99 193.41L201.25 190.26L193.32 198.74L196.13 210.35L206.85 213.50ZM238.59 179.62L235.80 167.99L225.06 164.84L217.12 173.32L219.92 184.94L230.65 188.09ZM169.06 180.84L166.26 169.22L155.53 166.08L147.61 174.56L150.41 186.17L161.14 189.31ZM150.41 186.17L147.61 174.56L136.88 171.43L128.96 179.91L131.77 191.51L142.50 194.65ZM174.18 160.74L171.38 149.12L160.64 145.99L152.72 154.47L155.53 166.08L166.26 169.22ZM155.53 166.08L152.72 154.47L141.99 151.33L134.07 159.81L136.88 171.43L147.61 174.56ZM182.60 195.59L179.79 183.98L169.06 180.84L161.14 189.31L163.95 200.92L174.67 204.06ZM163.95 200.92L161.14 189.31L150.41 186.17L142.50 194.65L145.31 206.26L156.03 209.39ZM187.72 175.50L184.92 163.88L174.18 160.74L166.26 169.22L169.06 180.84L179.79 183.98ZM248.89 139.41L246.09 127.78L235.35 124.63L227.40 133.11L230.20 144.74L240.94 147.89ZM230.20 144.74L227.40 133.11L216.66 129.96L208.72 138.44L211.52 150.07L222.26 153.22ZM254.04 119.30L251.25 107.66L240.50 104.51L232.55 113.00L235.35 124.63L246.09 127.78ZM235.35 124.63L232.55 113.00L221.80 109.85L213.86 118.33L216.66 129.96L227.40 133.11ZM262.43 154.20L259.64 142.57L248.89 139.41L240.94 147.89L243.74 159.52L254.48 162.67ZM243.74 159.52L240.94 147.89L230.20 144.74L222.26 153.22L225.06 164.84L235.80 167.99ZM267.59 134.09L264.79 122.45L254.04 119.30L246.09 127.78L248.89 139.41L259.64 142.57ZM197.98 135.30L195.18 123.67L184.43 120.53L176.50 129.02L179.31 140.64L190.04 143.78ZM179.31 140.64L176.50 129.02L165.76 125.88L157.84 134.37L160.64 145.99L171.38 149.12ZM203.11 115.19L200.31 103.56L189.57 100.42L181.63 108.91L184.43 120.53L195.18 123.67ZM184.43 120.53L181.63 108.91L170.89 105.77L162.96 114.26L165.76 125.88L176.50 129.02ZM211.52 150.07L208.72 138.44L197.98 135.30L190.04 143.78L192.85 155.40L203.58 158.55ZM192.85 155.40L190.04 143.78L179.31 140.64L171.38 149.12L174.18 160.74L184.92 163.88ZM216.66 129.96L213.86 118.33L203.11 115.19L195.18 123.67L197.98 135.30L208.72 138.44ZM241.83 234.57L239.04 222.95L228.31 219.80L220.38 228.26L223.17 239.88L233.90 243.03ZM223.17 239.88L220.38 228.26L209.65 225.11L201.72 233.58L204.52 245.19L215.25 248.34ZM246.98 214.49L244.18 202.86L233.45 199.71L225.51 208.18L228.31 219.80L239.04 222.95ZM228.31 219.80L225.51 208.18L214.78 205.03L206.85 213.50L209.65 225.11L220.38 228.26ZM255.36 249.34L252.56 237.72L241.83 234.57L233.90 243.03L236.69 254.64L247.42 257.80ZM236.69 254.64L233.90 243.03L223.17 239.88L215.25 248.34L218.04 259.95L228.76 263.10ZM260.50 229.26L257.71 217.64L246.98 214.49L239.04 222.95L241.83 234.57L252.56 237.72ZM191.00 230.43L188.20 218.82L177.47 215.68L169.55 224.14L172.36 235.75L183.08 238.89ZM172.36 235.75L169.55 224.14L158.83 221.00L150.92 229.47L153.72 241.08L164.44 244.22ZM196.13 210.35L193.32 198.74L182.60 195.59L174.67 204.06L177.47 215.68L188.20 218.82ZM177.47 215.68L174.67 204.06L163.95 200.92L156.03 209.39L158.83 221.00L169.55 224.14ZM204.52 245.19L201.72 233.58L191.00 230.43L183.08 238.89L185.88 250.50L196.60 253.65ZM185.88 250.50L183.08 238.89L172.36 235.75L164.44 244.22L167.24 255.82L177.96 258.96ZM209.65 225.11L206.85 213.50L196.13 210.35L188.20 218.82L191.00 230.43L201.72 233.58ZM270.81 189.08L268.02 177.46L257.28 174.30L249.33 182.77L252.13 194.40L262.86 197.55ZM252.13 194.40L249.33 182.77L238.59 179.62L230.65 188.09L233.45 199.71L244.18 202.86ZM275.97 168.99L273.17 157.35L262.43 154.20L254.48 162.67L257.28 174.30L268.02 177.46ZM257.28 174.30L254.48 162.67L243.74 159.52L235.80 167.99L238.59 179.62L249.33 182.77ZM265.65 209.18L262.86 197.55L252.13 194.40L244.18 202.86L246.98 214.49L257.71 217.64Z"/></svg>
