<svg xmlns="http://www.w3.org/2000/svg" width="256" height="256" viewBox="0 0 256 256"><path data-band="2" fill="#f97316" fill-opacity="0.35" d="M271.43 267.44L268.65 255.87L257.97 252.70L250.06 261.11L252.84 272.68L263.52 275.85ZM276.56 247.46L273.79 235.87L263.09 232.70L255.19 241.12L257.97 252.70L268.65 255.87ZM257.97 252.70L255.19 241.12L244.50 237.95L236.59 246.37L239.38 257.94L250.06 261.11ZM220.79 263.19L218.01 251.62L207.32 248.46L199.43 256.87L202.22 268.44L212.90 271.60ZM202.22 268.44L199.43 256.87L188.75 253.71L180.86 262.13L183.65 273.69L194.33 276.85ZM225.91 243.20L223.12 231.63L212.44 228.47L204.54 236.88L207.32 248.46L218.01 251.62ZM207.32 248.46L204.54 236.88L193.85 233.73L185.96 242.15L188.75 253.71L199.43 256.87ZM239.38 257.94L236.59 246.37L225.91 243.20L218.01 251.62L220.79 263.19L231.47 266.35ZM259.88 177.94L257.10 166.35L246.40 163.19L238.48 171.62L241.27 183.20L251.97 186.37ZM265.02 157.92L262.23 146.33L251.53 143.17L243.61 151.60L246.40 163.19L257.10 166.35ZM273.36 192.70L270.58 181.11L259.88 177.94L251.97 186.37L254.75 197.95L265.45 201.12ZM227.79 168.46L225.00 156.87L214.30 153.71L206.39 162.14L209.18 173.73L219.88 176.88ZM209.18 173.73L206.39 162.14L195.70 158.99L187.80 167.42L190.59 179.00L201.28 182.15ZM232.91 148.44L230.12 136.85L219.42 133.69L211.51 142.12L214.30 153.71L225.00 156.87ZM214.30 153.71L211.51 142.12L200.81 138.97L192.91 147.40L195.70 158.99L206.39 162.14ZM241.27 183.20L238.48 171.62L227.79 168.46L219.88 176.88L222.67 188.47L233.36 191.63ZM222.67 188.47L219.88 176.88L209.18 173.73L201.28 182.15L204.07 193.73L214.76 196.89ZM246.40 163.19L243.61 151.60L232.91 148.44L225.00 156.87L227.79 168.46L238.48 171.62ZM256.66 123.14L253.88 111.54L243.17 108.38L235.25 116.82L238.04 128.41L248.74 131.57ZM238.04 128.41L235.25 116.82L224.54 113.66L216.63 122.10L219.42 133.69L230.12 136.85ZM261.80 103.10L259.02 91.50L248.30 88.34L240.38 96.78L243.17 108.38L253.88 111.54ZM243.17 108.38L240.38 96.78L229.67 93.62L221.75 102.07L224.54 113.66L235.25 116.82ZM270.16 137.90L267.37 126.30L256.66 123.14L248.74 131.57L251.53 143.17L262.23 146.33ZM251.53 143.17L248.74 131.57L238.04 128.41L230.12 136.85L232.91 148.44L243.61 151.60ZM275.30 117.87L272.51 106.27L261.80 103.10L253.88 111.54L256.66 123.14L267.37 126.30ZM249.62 217.96L246.84 206.37L236.15 203.21L228.24 211.63L231.02 223.21L241.71 226.37ZM231.02 223.21L228.24 211.63L217.55 208.47L209.65 216.89L212.44 228.47L223.12 231.63ZM254.75 197.95L251.97 186.37L241.27 183.20L233.36 191.63L236.15 203.21L246.84 206.37ZM236.15 203.21L233.36 191.63L222.67 188.47L214.76 196.89L217.55 208.47L228.24 211.63ZM263.09 232.70L260.31 221.12L249.62 217.96L241.71 226.37L244.50 237.95L255.19 241.12ZM244.50 237.95L241.71 226.37L231.02 223.21L223.12 231.63L225.91 243.20L236.59 246.37ZM268.23 212.70L265.45 201.12L254.75 197.95L246.84 206.37L249.62 217.96L260.31 221.12ZM148.33 209.55L145.54 197.98L134.85 194.84L126.97 203.27L129.77 214.83L140.45 217.98ZM129.77 214.83L126.97 203.27L116.29 200.13L108.41 208.55L111.21 220.12L121.89 223.26ZM153.42 189.56L150.63 177.98L139.94 174.84L132.05 183.27L134.85 194.84L145.54 197.98ZM134.85 194.84L132.05 183.27L121.37 180.13L113.49 188.56L116.29 200.13L126.97 203.27ZM161.81 224.27L159.01 212.70L148.33 209.55L140.45 217.98L143.24 229.55L153.92 232.69ZM143.24 229.55L140.45 217.98L129.77 214.83L121.89 223.26L124.69 234.82L135.36 237.97ZM166.90 204.28L164.11 192.70L153.42 189.56L145.54 197.98L148.33 209.55L159.01 212.70ZM97.74 205.42L94.93 193.85L84.26 190.72L76.39 199.15L79.19 210.71L89.87 213.84ZM79.19 210.71L76.39 199.15L65.71 196.01L57.85 204.45L60.65 216.00L71.32 219.13ZM102.81 185.42L100.01 173.85L89.33 170.72L81.45 179.15L84.26 190.72L94.93 193.85ZM84.26 190.72L81.45 179.15L70.77 176.02L62.90 184.45L65.71 196.01L76.39 199.15ZM111.21 220.12L108.41 208.55L97.74 205.42L89.87 213.84L92.67 225.40L103.34 228.54ZM92.67 225.40L89.87 213.84L79.19 210.71L71.32 219.13L74.13 230.69L84.80 233.83ZM116.29 200.13L113.49 188.56L102.81 185.42L94.93 193.85L97.74 205.42L108.41 208.55ZM177.10 164.27L174.31 152.69L163.62 149.54L155.72 157.97L158.52 169.55L169.21 172.70ZM158.52 169.55L155.72 157.97L145.03 154.83L137.14 163.26L139.94 174.84L150.63 177.98ZM182.21 144.25L179.41 132.67L168.72 129.52L160.82 137.96L163.62 149.54L174.31 152.69ZM163.62 149.54L160.82 137.96L150.13 134.81L142.23 143.25L145.03 154.83L155.72 157.97ZM190.59 179.00L187.80 167.42L177.10 164.27L169.21 172.70L172.00 184.28L182.69 187.43ZM172.00 184.28L169.21 172.70L158.52 169.55L150.63 177.98L153.42 189.56L164.11 192.70ZM195.70 158.99L192.91 147.40L182.21 144.25L174.31 152.69L177.10 164.27L187.80 167.42ZM126.45 160.12L123.65 148.55L112.97 145.41L105.08 153.84L107.89 165.42L118.57 168.55ZM107.89 165.42L105.08 153.84L94.40 150.71L86.52 159.15L89.33 170.72L100.01 173.85ZM131.54 140.11L128.74 128.53L118.05 125.39L110.16 133.83L112.97 145.41L123.65 148.55ZM112.97 145.41L110.16 133.83L99.47 130.70L91.59 139.14L94.40 150.71L105.08 153.84ZM139.94 174.84L137.14 163.26L126.45 160.12L118.57 168.55L121.37 180.13L132.05 183.27ZM121.37 180.13L118.57 168.55L107.89 165.42L100.01 173.85L102.81 185.42L113.49 188.56ZM145.03 154.83L142.23 143.25L131.54 140.11L123.65 148.55L126.45 160.12L137.14 163.26ZM170.19 258.98L167.39 247.41L156.72 244.26L148.83 252.68L151.63 264.24L162.30 267.39ZM151.63 264.24L148.83 252.68L138.16 249.53L130.28 257.95L133.08 269.51L143.75 272.65ZM175.28 238.99L172.49 227.42L161.81 224.27L153.92 232.69L156.72 244.26L167.39 247.41ZM156.72 244.26L153.92 232.69L143.24 229.55L135.36 237.97L138.16 249.53L148.83 252.68ZM188.75 253.71L185.96 242.15L175.28 238.99L167.39 247.41L170.19 258.98L180.86 262.13ZM119.61 254.80L116.81 243.24L106.14 240.10L98.27 248.52L101.07 260.08L111.74 263.22ZM101.07 260.08L98.27 248.52L87.60 245.39L79.74 253.81L82.54 265.36L93.21 268.50ZM124.69 234.82L121.89 223.26L111.21 220.12L103.34 228.54L106.14 240.10L116.81 243.24ZM106.14 240.10L103.34 228.54L92.67 225.40L84.80 233.83L87.60 245.39L98.27 248.52ZM133.08 269.51L130.28 257.95L119.61 254.80L111.74 263.22L114.54 274.78L125.21 277.92ZM138.16 249.53L135.36 237.97L124.69 234.82L116.81 243.24L119.61 254.80L130.28 257.95ZM198.96 213.73L196.17 202.16L185.48 199.00L177.59 207.43L180.38 219.00L191.06 222.15ZM180.38 219.00L177.59 207.43L166.90 204.28L159.01 212.70L161.81 224.27L172.49 227.42ZM204.07 193.73L201.28 182.15L190.59 179.00L182.69 187.43L185.48 199.00L196.17 202.16ZM185.48 199.00L182.69 187.43L172.00 184.28L164.11 192.70L166.90 204.28L177.59 207.43ZM212.44 228.47L209.65 216.89L198.96 213.73L191.06 222.15L193.85 233.73L204.54 236.88ZM193.85 233.73L191.06 222.15L180.38 219.00L172.49 227.42L175.28 238.99L185.96 242.15ZM217.55 208.47L214.76 196.89L204.07 193.73L196.17 202.16L198.96 213.73L209.65 216.89ZM18.56 246.58L15.75 235.03L5.09 231.91L-2.76 240.34L0.06 251.88L10.72 255.00ZM0.06 251.88L-2.76 240.34L-13.41 237.22L-21.26 245.65L-18.44 257.19L-7.78 260.31ZM23.60 226.61L20.79 215.05L10.13 211.93L2.28 220.36L5.09 231.91L15.75 235.03ZM5.09 231.91L2.28 220.36L-8.39 217.24L-16.23 225.67L-13.41 237.22L-2.76 240.34ZM32.03 261.25L29.22 249.71L18.56 246.58L10.72 255.00L13.53 266.55L24.18 269.67ZM13.53 266.55L10.72 255.00L0.06 251.88L-7.78 260.31L-4.97 271.85L5.68 274.97ZM37.08 241.28L34.27 229.73L23.60 226.61L15.75 235.03L18.56 246.58L29.22 249.71ZM47.18 201.32L44.37 189.76L33.69 186.63L25.84 195.07L28.65 206.62L39.32 209.75ZM28.65 206.62L25.84 195.07L15.17 191.94L7.31 200.38L10.13 211.93L20.79 215.05ZM52.23 181.32L49.42 169.76L38.74 166.64L30.88 175.07L33.69 186.63L44.37 189.76ZM33.69 186.63L30.88 175.07L20.21 171.95L12.35 180.39L15.17 191.94L25.84 195.07ZM60.65 216.00L57.85 204.45L47.18 201.32L39.32 209.75L42.12 221.30L52.79 224.43ZM42.12 221.30L39.32 209.75L28.65 206.62L20.79 215.05L23.60 226.61L34.27 229.73ZM65.71 196.01L62.90 184.45L52.23 181.32L44.37 189.76L47.18 201.32L57.85 204.45ZM1.68 177.27L-1.13 165.71L-11.80 162.60L-19.65 171.04L-16.84 182.59L-6.17 185.71ZM10.13 211.93L7.31 200.38L-3.35 197.26L-11.20 205.69L-8.39 217.24L2.28 220.36ZM15.17 191.94L12.35 180.39L1.68 177.27L-6.17 185.71L-3.35 197.26L7.31 200.38ZM69.07 250.67L66.27 239.12L55.60 235.99L47.74 244.41L50.55 255.96L61.21 259.09ZM50.55 255.96L47.74 244.41L37.08 241.28L29.22 249.71L32.03 261.25L42.69 264.38ZM74.13 230.69L71.32 219.13L60.65 216.00L52.79 224.43L55.60 235.99L66.27 239.12ZM55.60 235.99L52.79 224.43L42.12 221.30L34.27 229.73L37.08 241.28L47.74 244.41ZM82.54 265.36L79.74 253.81L69.07 250.67L61.21 259.09L64.02 270.64L74.68 273.78ZM64.02 270.64L61.21 259.09L50.55 255.96L42.69 264.38L45.50 275.93L56.16 279.06ZM87.60 245.39L84.80 233.83L74.13 230.69L66.27 239.12L69.07 250.67L79.74 253.81ZM263.73 28.18L260.94 16.57L250.21 13.41L242.28 21.87L245.07 33.47L255.79 36.63ZM245.07 33.47L242.28 21.87L231.56 18.71L223.63 27.16L226.42 38.77L237.14 41.93ZM268.87 8.12L266.08 -3.50L255.36 -6.66L247.42 1.80L250.21 13.41L260.94 16.57ZM250.21 13.41L247.42 1.80L236.69 -1.36L228.76 7.10L231.56 18.71L242.28 21.87ZM277.24 42.96L274.45 31.34L263.73 28.18L255.79 36.63L258.58 48.24L269.30 51.40ZM258.58 48.24L255.79 36.63L245.07 33.47L237.14 41.93L239.93 53.53L250.65 56.69ZM266.94 83.06L264.16 71.46L253.44 68.30L245.51 76.74L248.30 88.34L259.02 91.50ZM272.09 63.01L269.30 51.40L258.58 48.24L250.65 56.69L253.44 68.30L264.16 71.46ZM111.39 15.80L108.58 4.20L97.87 1.07L89.97 9.53L92.78 21.13L103.49 24.26ZM92.78 21.13L89.97 9.53L79.27 6.41L71.38 14.87L74.19 26.46L84.89 29.59ZM116.48 -4.26L113.67 -15.86L102.96 -18.99L95.06 -10.52L97.87 1.07L108.58 4.20ZM97.87 1.07L95.06 -10.52L84.35 -13.65L76.45 -5.18L79.27 6.41L89.97 9.53ZM124.90 30.52L122.09 18.93L111.39 15.80L103.49 24.26L106.30 35.85L117.00 38.98ZM106.30 35.85L103.49 24.26L92.78 21.13L84.89 29.59L87.70 41.18L98.40 44.31ZM130.00 10.47L127.19 -1.13L116.48 -4.26L108.58 4.20L111.39 15.80L122.09 18.93ZM60.67 11.75L57.86 0.16L47.15 -2.96L39.27 5.51L42.09 17.09L52.79 20.21ZM42.09 17.09L39.27 5.51L28.57 2.39L20.69 10.86L23.51 22.44L34.21 25.56ZM65.75 -8.31L62.93 -19.90L52.22 -23.02L44.34 -14.55L47.15 -2.96L57.86 0.16ZM47.15 -2.96L44.34 -14.55L33.63 -17.67L25.75 -9.20L28.57 2.39L39.27 5.51ZM74.19 26.46L71.38 14.87L60.67 11.75L52.79 20.21L55.60 31.80L66.30 34.92ZM55.60 31.80L52.79 20.21L42.09 17.09L34.21 25.56L37.03 37.14L47.72 40.26ZM79.27 6.41L76.45 -5.18L65.75 -8.31L57.86 0.16L60.67 11.75L71.38 14.87ZM9.99 7.74L7.17 -3.84L-3.53 -6.95L-11.40 1.52L-8.57 13.10L2.12 16.21ZM23.51 22.44L20.69 10.86L9.99 7.74L2.12 16.21L4.94 27.79L15.64 30.91ZM4.94 27.79L2.12 16.21L-8.57 13.10L-16.44 21.57L-13.62 33.14L-2.93 36.26ZM28.57 2.39L25.75 -9.20L15.05 -12.31L7.17 -3.84L9.99 7.74L20.69 10.86ZM184.04 69.42L181.24 57.82L170.54 54.68L162.63 63.13L165.43 74.72L176.13 77.87ZM165.43 74.72L162.63 63.13L151.92 59.99L144.02 68.44L146.82 80.03L157.52 83.17ZM189.16 49.37L186.36 37.77L175.65 34.63L167.74 43.08L170.54 54.68L181.24 57.82ZM170.54 54.68L167.74 43.08L157.03 39.94L149.12 48.39L151.92 59.99L162.63 63.13ZM197.55 84.16L194.75 72.57L184.04 69.42L176.13 77.87L178.93 89.46L189.63 92.61ZM178.93 89.46L176.13 77.87L165.43 74.72L157.52 83.17L160.32 94.76L171.02 97.90ZM202.66 64.12L199.87 52.52L189.16 49.37L181.24 57.82L184.04 69.42L194.75 72.57ZM133.32 65.30L130.51 53.71L119.81 50.57L111.91 59.03L114.72 70.61L125.42 73.75ZM114.72 70.61L111.91 59.03L101.21 55.89L93.32 64.35L96.13 75.93L106.83 79.06ZM138.41 45.25L135.61 33.66L124.90 30.52L117.00 38.98L119.81 50.57L130.51 53.71ZM119.81 50.57L117.00 38.98L106.30 35.85L98.40 44.31L101.21 55.89L111.91 59.03ZM146.82 80.03L144.02 68.44L133.32 65.30L125.42 73.75L128.22 85.34L138.92 88.47ZM128.22 85.34L125.42 73.75L114.72 70.61L106.83 79.06L109.63 90.65L120.33 93.78ZM151.92 59.99L149.12 48.39L138.41 45.25L130.51 53.71L133.32 65.30L144.02 68.44ZM212.91 24.01L210.12 12.41L199.40 9.26L191.48 17.71L194.28 29.32L204.99 32.47ZM194.28 29.32L191.48 17.71L180.76 14.57L172.85 23.03L175.65 34.63L186.36 37.77ZM218.04 3.95L215.25 -7.66L204.52 -10.81L196.60 -2.35L199.40 9.26L210.12 12.41ZM199.40 9.26L196.60 -2.35L185.88 -5.50L177.96 2.96L180.76 14.57L191.48 17.71ZM226.42 38.77L223.63 27.16L212.91 24.01L204.99 32.47L207.79 44.07L218.50 47.22ZM207.79 44.07L204.99 32.47L194.28 29.32L186.36 37.77L189.16 49.37L199.87 52.52ZM231.56 18.71L228.76 7.10L218.04 3.95L210.12 12.41L212.91 24.01L223.63 27.16ZM162.13 19.88L159.33 8.28L148.62 5.14L140.71 13.60L143.51 25.20L154.22 28.34ZM143.51 25.20L140.71 13.60L130.00 10.47L122.09 18.93L124.90 30.52L135.61 33.66ZM167.24 -0.18L164.44 -11.78L153.72 -14.92L145.81 -6.46L148.62 5.14L159.33 8.28ZM148.62 5.14L145.81 -6.46L135.10 -9.60L127.19 -1.13L130.00 10.47L140.71 13.60ZM175.65 34.63L172.85 23.03L162.13 19.88L154.22 28.34L157.03 39.94L167.74 43.08ZM157.03 39.94L154.22 28.34L143.51 25.20L135.61 33.66L138.41 45.25L149.12 48.39ZM180.76 14.57L177.96 2.96L167.24 -0.18L159.33 8.28L162.13 19.88L172.85 23.03ZM205.93 118.94L203.13 107.35L192.43 104.20L184.52 112.64L187.32 124.23L198.02 127.38ZM187.32 124.23L184.52 112.64L173.82 109.49L165.92 117.93L168.72 129.52L179.41 132.67ZM211.05 98.91L208.25 87.32L197.55 84.16L189.63 92.61L192.43 104.20L203.13 107.35ZM192.43 104.20L189.63 92.61L178.93 89.46L171.02 97.90L173.82 109.49L184.52 112.64ZM219.42 133.69L216.63 122.10L205.93 118.94L198.02 127.38L200.81 138.97L211.51 142.12ZM200.81 138.97L198.02 127.38L187.32 124.23L179.41 132.67L182.21 144.25L192.91 147.40ZM224.54 113.66L221.75 102.07L211.05 98.91L203.13 107.35L205.93 118.94L216.63 122.10ZM155.22 114.79L152.42 103.20L141.72 100.06L133.83 108.51L136.63 120.09L147.33 123.23ZM136.63 120.09L133.83 108.51L123.13 105.37L115.24 113.81L118.05 125.39L128.74 128.53ZM160.32 94.76L157.52 83.17L146.82 80.03L138.92 88.47L141.72 100.06L152.42 103.20ZM141.72 100.06L138.92 88.47L128.22 85.34L120.33 93.78L123.13 105.37L133.83 108.51ZM168.72 129.52L165.92 117.93L155.22 114.79L147.33 123.23L150.13 134.81L160.82 137.96ZM150.13 134.81L147.33 123.23L136.63 120.09L128.74 128.53L131.54 140.11L142.23 143.25ZM173.82 109.49L171.02 97.90L160.32 94.76L152.42 103.20L155.22 114.79L165.92 117.93ZM234.80 73.58L232.01 61.98L221.30 58.82L213.38 67.27L216.17 78.87L226.88 82.03ZM216.17 78.87L213.38 67.27L202.66 64.12L194.75 72.57L197.55 84.16L208.25 87.32ZM239.93 53.53L237.14 41.93L226.42 38.77L218.50 47.22L221.30 58.82L232.01 61.98ZM221.30 58.82L218.50 47.22L207.79 44.07L199.87 52.52L202.66 64.12L213.38 67.27ZM248.30 88.34L245.51 76.74L234.80 73.58L226.88 82.03L229.67 93.62L240.38 96.78ZM229.67 93.62L226.88 82.03L216.17 78.87L208.25 87.32L211.05 98.91L221.75 102.07ZM253.44 68.30L250.65 56.69L239.93 53.53L232.01 61.98L234.80 73.58L245.51 76.74ZM53.91 106.60L51.10 95.03L40.41 91.91L32.54 100.36L35.36 111.93L46.04 115.05ZM35.36 111.93L32.54 100.36L21.86 97.24L13.99 105.69L16.81 117.26L27.49 120.38ZM58.98 86.58L56.17 75.00L45.47 71.88L37.60 80.33L40.41 91.91L51.10 95.03ZM40.41 91.91L37.60 80.33L26.91 77.21L19.04 85.67L21.86 97.24L32.54 100.36ZM67.41 121.30L64.60 109.73L53.91 106.60L46.04 115.05L48.85 126.62L59.54 129.75ZM48.85 126.62L46.04 115.05L35.36 111.93L27.49 120.38L30.30 131.94L40.98 135.07ZM72.48 101.28L69.67 89.70L58.98 86.58L51.10 95.03L53.91 106.60L64.60 109.73ZM3.31 102.57L0.49 91.00L-10.19 87.89L-18.05 96.34L-15.23 107.91L-4.55 111.02ZM8.36 82.55L5.54 70.98L-5.15 67.86L-13.01 76.32L-10.19 87.89L0.49 91.00ZM16.81 117.26L13.99 105.69L3.31 102.57L-4.55 111.02L-1.73 122.59L8.95 125.70ZM21.86 97.24L19.04 85.67L8.36 82.55L0.49 91.00L3.31 102.57L13.99 105.69ZM82.62 61.22L79.81 49.63L69.12 46.51L61.23 54.97L64.05 66.55L74.74 69.67ZM64.05 66.55L61.23 54.97L50.54 51.84L42.66 60.30L45.47 71.88L56.17 75.00ZM87.70 41.18L84.89 29.59L74.19 26.46L66.30 34.92L69.12 46.51L79.81 49.63ZM69.12 46.51L66.30 34.92L55.60 31.80L47.72 40.26L50.54 51.84L61.23 54.97ZM96.13 75.93L93.32 64.35L82.62 61.22L74.74 69.67L77.55 81.25L88.24 84.38ZM77.55 81.25L74.74 69.67L64.05 66.55L56.17 75.00L58.98 86.58L69.67 89.70ZM101.21 55.89L98.40 44.31L87.70 41.18L79.81 49.63L82.62 61.22L93.32 64.35ZM31.97 57.18L29.15 45.60L18.46 42.48L10.58 50.95L13.40 62.52L24.09 65.64ZM13.40 62.52L10.58 50.95L-0.11 47.83L-7.97 56.29L-5.15 67.86L5.54 70.98ZM37.03 37.14L34.21 25.56L23.51 22.44L15.64 30.91L18.46 42.48L29.15 45.60ZM18.46 42.48L15.64 30.91L4.94 27.79L-2.93 36.26L-0.11 47.83L10.58 50.95ZM45.47 71.88L42.66 60.30L31.97 57.18L24.09 65.64L26.91 77.21L37.60 80.33ZM26.91 77.21L24.09 65.64L13.40 62.52L5.54 70.98L8.36 82.55L19.04 85.67ZM50.54 51.84L47.72 40.26L37.03 37.14L29.15 45.60L31.97 57.18L42.66 60.30ZM75.84 156.01L73.03 144.45L62.35 141.32L54.48 149.76L57.29 161.32L67.97 164.45ZM57.29 161.32L54.48 149.76L43.80 146.63L35.93 155.07L38.74 166.64L49.42 169.76ZM80.91 136.00L78.10 124.43L67.41 121.30L59.54 129.75L62.35 141.32L73.03 144.45ZM62.35 141.32L59.54 129.75L48.85 126.62L40.98 135.07L43.80 146.63L54.48 149.76ZM89.33 170.72L86.52 159.15L75.84 156.01L67.97 164.45L70.77 176.02L81.45 179.15ZM70.77 176.02L67.97 164.45L57.29 161.32L49.42 169.76L52.23 181.32L62.90 184.45ZM94.40 150.71L91.59 139.14L80.91 136.00L73.03 144.45L75.84 156.01L86.52 159.15ZM25.26 151.95L22.44 140.39L11.76 137.27L3.90 145.71L6.72 157.27L17.39 160.39ZM6.72 157.27L3.90 145.71L-6.77 142.60L-14.62 151.04L-11.80 162.60L-1.13 165.71ZM30.30 131.94L27.49 120.38L16.81 117.26L8.95 125.70L11.76 137.27L22.44 140.39ZM11.76 137.27L8.95 125.70L-1.73 122.59L-9.59 131.03L-6.77 142.60L3.90 145.71ZM38.74 166.64L35.93 155.07L25.26 151.95L17.39 160.39L20.21 171.95L30.88 175.07ZM20.21 171.95L17.39 160.39L6.72 157.27L-1.13 165.71L1.68 177.27L12.35 180.39ZM43.80 146.63L40.98 135.07L30.30 131.94L22.44 140.39L25.26 151.95L35.93 155.07ZM104.55 110.68L101.75 99.10L91.05 95.96L83.17 104.41L85.98 115.99L96.67 119.12ZM85.98 115.99L83.17 104.41L72.48 101.28L64.60 109.73L67.41 121.30L78.10 124.43ZM109.63 90.65L106.83 79.06L96.13 75.93L88.24 84.38L91.05 95.96L101.75 99.10ZM91.05 95.96L88.24 84.38L77.55 81.25L69.67 89.70L72.48 101.28L83.17 104.41ZM118.05 125.39L115.24 113.81L104.55 110.68L96.67 119.12L99.47 130.70L110.16 133.83ZM99.47 130.70L96.67 119.12L85.98 115.99L78.10 124.43L80.91 136.00L91.59 139.14ZM123.13 105.37L120.33 93.78L109.63 90.65L101.75 99.10L104.55 110.68L115.24 113.81ZM255.36 -6.66L252.56 -18.28L241.83 -21.43L233.90 -12.97L236.69 -1.36L247.42 1.80ZM236.69 -1.36L233.90 -12.97L223.17 -16.12L215.25 -7.66L218.04 3.95L228.76 7.10ZM185.88 -5.50L183.08 -17.11L172.36 -20.25L164.44 -11.78L167.24 -0.18L177.96 2.96Z"/></svg>
