<svg xmlns="http://www.w3.org/2000/svg" width="256" height="256" viewBox="0 0 256 256"><path data-band="2" fill="#f97316" fill-opacity="0.35" d="M242.60 56.63L239.82 45.06L229.14 41.90L221.25 50.30L224.03 61.87L234.70 65.03ZM224.03 61.87L221.25 50.30L210.57 47.14L202.69 55.54L205.47 67.11L216.14 70.27ZM247.72 36.66L244.94 25.09L234.26 21.92L226.36 30.33L229.14 41.90L239.82 45.06ZM229.14 41.90L226.36 30.33L215.68 27.17L207.79 35.57L210.57 47.14L221.25 50.30ZM256.05 71.37L253.28 59.80L242.60 56.63L234.70 65.03L237.48 76.60L248.16 79.76ZM237.48 76.60L234.70 65.03L224.03 61.87L216.14 70.27L218.92 81.83L229.59 84.99ZM261.18 51.40L258.40 39.83L247.72 36.66L239.82 45.06L242.60 56.63L253.28 59.80ZM192.01 52.38L189.23 40.82L178.56 37.67L170.67 46.07L173.46 57.63L184.13 60.79ZM173.46 57.63L170.67 46.07L160.00 42.92L152.13 51.33L154.92 62.88L165.58 66.04ZM197.11 32.42L194.33 20.85L183.65 17.69L175.77 26.10L178.56 37.67L189.23 40.82ZM178.56 37.67L175.77 26.10L165.09 22.95L157.21 31.36L160.00 42.92L170.67 46.07ZM205.47 67.11L202.69 55.54L192.01 52.38L184.13 60.79L186.92 72.35L197.59 75.50ZM186.92 72.35L184.13 60.79L173.46 57.63L165.58 66.04L168.37 77.59L179.04 80.75ZM210.57 47.14L207.79 35.57L197.11 32.42L189.23 40.82L192.01 52.38L202.69 55.54ZM271.43 11.44L268.65 -0.13L257.97 -3.30L250.06 5.11L252.84 16.68L263.52 19.85ZM252.84 16.68L250.06 5.11L239.38 1.94L231.47 10.35L234.26 21.92L244.94 25.09ZM257.97 -3.30L255.19 -14.88L244.50 -18.05L236.59 -9.63L239.38 1.94L250.06 5.11ZM266.30 31.43L263.52 19.85L252.84 16.68L244.94 25.09L247.72 36.66L258.40 39.83ZM220.79 7.19L218.01 -4.38L207.32 -7.54L199.43 0.87L202.22 12.44L212.90 15.60ZM202.22 12.44L199.43 0.87L188.75 -2.29L180.86 6.13L183.65 17.69L194.33 20.85ZM207.32 -7.54L204.54 -19.12L193.85 -22.27L185.96 -13.85L188.75 -2.29L199.43 0.87ZM234.26 21.92L231.47 10.35L220.79 7.19L212.90 15.60L215.68 27.17L226.36 30.33ZM215.68 27.17L212.90 15.60L202.22 12.44L194.33 20.85L197.11 32.42L207.79 35.57ZM239.38 1.94L236.59 -9.63L225.91 -12.80L218.01 -4.38L220.79 7.19L231.47 10.35ZM264.38 106.06L261.61 94.50L250.94 91.33L243.04 99.72L245.82 111.28L256.49 114.45ZM245.82 111.28L243.04 99.72L232.37 96.55L224.49 104.95L227.26 116.50L237.93 119.67ZM269.51 86.11L266.73 74.54L256.05 71.37L248.16 79.76L250.94 91.33L261.61 94.50ZM250.94 91.33L248.16 79.76L237.48 76.60L229.59 84.99L232.37 96.55L243.04 99.72ZM259.26 126.01L256.49 114.45L245.82 111.28L237.93 119.67L240.71 131.23L251.37 134.40ZM213.82 101.78L211.04 90.22L200.37 87.06L192.49 95.46L195.27 107.01L205.94 110.18ZM195.27 107.01L192.49 95.46L181.82 92.30L173.95 100.70L176.73 112.25L187.40 115.41ZM218.92 81.83L216.14 70.27L205.47 67.11L197.59 75.50L200.37 87.06L211.04 90.22ZM200.37 87.06L197.59 75.50L186.92 72.35L179.04 80.75L181.82 92.30L192.49 95.46ZM227.26 116.50L224.49 104.95L213.82 101.78L205.94 110.18L208.72 121.73L219.38 124.89ZM208.72 121.73L205.94 110.18L195.27 107.01L187.40 115.41L190.18 126.96L200.84 130.12ZM232.37 96.55L229.59 84.99L218.92 81.83L211.04 90.22L213.82 101.78L224.49 104.95ZM274.63 66.14L271.86 54.57L261.18 51.40L253.28 59.80L256.05 71.37L266.73 74.54ZM112.79 93.35L109.99 81.80L99.34 78.66L91.48 87.06L94.28 98.60L104.93 101.74ZM94.28 98.60L91.48 87.06L80.83 83.92L72.97 92.32L75.77 103.86L86.42 107.00ZM117.86 73.40L115.06 61.85L104.40 58.70L96.54 67.11L99.34 78.66L109.99 81.80ZM99.34 78.66L96.54 67.11L85.88 63.97L78.03 72.38L80.83 83.92L91.48 87.06ZM126.24 108.04L123.44 96.49L112.79 93.35L104.93 101.74L107.72 113.29L118.38 116.43ZM107.72 113.29L104.93 101.74L94.28 98.60L86.42 107.00L89.22 118.54L99.87 121.68ZM131.31 88.09L128.52 76.54L117.86 73.40L109.99 81.80L112.79 93.35L123.44 96.49ZM62.32 89.19L59.52 77.65L48.87 74.51L41.03 82.92L43.83 94.46L54.48 97.59ZM43.83 94.46L41.03 82.92L30.38 79.79L22.54 88.20L25.34 99.73L35.99 102.86ZM67.37 69.24L64.57 57.70L53.92 54.56L46.07 62.97L48.87 74.51L59.52 77.65ZM48.87 74.51L46.07 62.97L35.41 59.84L27.57 68.25L30.38 79.79L41.03 82.92ZM75.77 103.86L72.97 92.32L62.32 89.19L54.48 97.59L57.28 109.13L67.92 112.26ZM57.28 109.13L54.48 97.59L43.83 94.46L35.99 102.86L38.79 114.39L49.43 117.53ZM80.83 83.92L78.03 72.38L67.37 69.24L59.52 77.65L62.32 89.19L72.97 92.32ZM141.46 48.18L138.67 36.62L128.00 33.48L120.13 41.89L122.93 53.44L133.59 56.59ZM122.93 53.44L120.13 41.89L109.47 38.74L101.60 47.15L104.40 58.70L115.06 61.85ZM146.54 28.21L143.75 16.65L133.08 13.51L125.21 21.92L128.00 33.48L138.67 36.62ZM128.00 33.48L125.21 21.92L114.54 18.78L106.67 27.19L109.47 38.74L120.13 41.89ZM154.92 62.88L152.13 51.33L141.46 48.18L133.59 56.59L136.38 68.14L147.05 71.29ZM136.38 68.14L133.59 56.59L122.93 53.44L115.06 61.85L117.86 73.40L128.52 76.54ZM160.00 42.92L157.21 31.36L146.54 28.21L138.67 36.62L141.46 48.18L152.13 51.33ZM90.94 44.01L88.14 32.46L77.48 29.33L69.62 37.74L72.42 49.29L83.08 52.42ZM72.42 49.29L69.62 37.74L58.96 34.61L51.11 43.02L53.92 54.56L64.57 57.70ZM96.01 24.05L93.21 12.50L82.54 9.36L74.68 17.78L77.48 29.33L88.14 32.46ZM77.48 29.33L74.68 17.78L64.02 14.64L56.16 23.06L58.96 34.61L69.62 37.74ZM104.40 58.70L101.60 47.15L90.94 44.01L83.08 52.42L85.88 63.97L96.54 67.11ZM85.88 63.97L83.08 52.42L72.42 49.29L64.57 57.70L67.37 69.24L78.03 72.38ZM109.47 38.74L106.67 27.19L96.01 24.05L88.14 32.46L90.94 44.01L101.60 47.15ZM134.61 142.66L131.82 131.12L121.17 127.97L113.31 136.37L116.11 147.91L126.75 151.05ZM116.11 147.91L113.31 136.37L102.66 133.22L94.81 141.62L97.61 153.15L108.25 156.30ZM139.68 122.73L136.89 111.18L126.24 108.04L118.38 116.43L121.17 127.97L131.82 131.12ZM121.17 127.97L118.38 116.43L107.72 113.29L99.87 121.68L102.66 133.22L113.31 136.37ZM148.05 157.36L145.26 145.82L134.61 142.66L126.75 151.05L129.54 162.59L140.19 165.74ZM129.54 162.59L126.75 151.05L116.11 147.91L108.25 156.30L111.04 167.83L121.69 170.98ZM153.13 137.43L150.34 125.88L139.68 122.73L131.82 131.12L134.61 142.66L145.26 145.82ZM84.17 138.47L81.37 126.94L70.72 123.80L62.88 132.20L65.68 143.73L76.32 146.87ZM65.68 143.73L62.88 132.20L52.24 129.06L44.40 137.46L47.20 148.98L57.84 152.12ZM89.22 118.54L86.42 107.00L75.77 103.86L67.92 112.26L70.72 123.80L81.37 126.94ZM70.72 123.80L67.92 112.26L57.28 109.13L49.43 117.53L52.24 129.06L62.88 132.20ZM97.61 153.15L94.81 141.62L84.17 138.47L76.32 146.87L79.12 158.40L89.76 161.54ZM79.12 158.40L76.32 146.87L65.68 143.73L57.84 152.12L60.64 163.65L71.27 166.79ZM102.66 133.22L99.87 121.68L89.22 118.54L81.37 126.94L84.17 138.47L94.81 141.62ZM163.29 97.54L160.50 85.99L149.84 82.84L141.97 91.24L144.76 102.79L155.42 105.94ZM144.76 102.79L141.97 91.24L131.31 88.09L123.44 96.49L126.24 108.04L136.89 111.18ZM168.37 77.59L165.58 66.04L154.92 62.88L147.05 71.29L149.84 82.84L160.50 85.99ZM149.84 82.84L147.05 71.29L136.38 68.14L128.52 76.54L131.31 88.09L141.97 91.24ZM176.73 112.25L173.95 100.70L163.29 97.54L155.42 105.94L158.20 117.49L168.86 120.64ZM158.20 117.49L155.42 105.94L144.76 102.79L136.89 111.18L139.68 122.73L150.34 125.88ZM181.82 92.30L179.04 80.75L168.37 77.59L160.50 85.99L163.29 97.54L173.95 100.70ZM170.19 2.98L167.39 -8.59L156.72 -11.74L148.83 -3.32L151.63 8.24L162.30 11.39ZM151.63 8.24L148.83 -3.32L138.16 -6.47L130.28 1.95L133.08 13.51L143.75 16.65ZM183.65 17.69L180.86 6.13L170.19 2.98L162.30 11.39L165.09 22.95L175.77 26.10ZM165.09 22.95L162.30 11.39L151.63 8.24L143.75 16.65L146.54 28.21L157.21 31.36ZM188.75 -2.29L185.96 -13.85L175.28 -17.01L167.39 -8.59L170.19 2.98L180.86 6.13ZM119.61 -1.20L116.81 -12.76L106.14 -15.90L98.27 -7.48L101.07 4.08L111.74 7.22ZM101.07 4.08L98.27 -7.48L87.60 -10.61L79.74 -2.19L82.54 9.36L93.21 12.50ZM133.08 13.51L130.28 1.95L119.61 -1.20L111.74 7.22L114.54 18.78L125.21 21.92ZM114.54 18.78L111.74 7.22L101.07 4.08L93.21 12.50L96.01 24.05L106.67 27.19ZM138.16 -6.47L135.36 -18.03L124.69 -21.18L116.81 -12.76L119.61 -1.20L130.28 1.95ZM267.58 160.68L264.81 149.13L254.15 145.95L246.26 154.34L249.03 165.89L259.70 169.06ZM272.70 140.74L269.93 129.18L259.26 126.01L251.37 134.40L254.15 145.95L264.81 149.13ZM206.87 196.23L204.09 184.69L193.44 181.53L185.57 189.91L188.35 201.45L199.00 204.61ZM188.35 201.45L185.57 189.91L174.92 186.75L167.05 195.13L169.84 206.66L180.48 209.82ZM211.96 176.31L209.18 164.77L198.53 161.60L190.65 169.99L193.44 181.53L204.09 184.69ZM193.44 181.53L190.65 169.99L180.00 166.82L172.13 175.21L174.92 186.75L185.57 189.91ZM220.29 210.94L217.52 199.40L206.87 196.23L199.00 204.61L201.77 216.15L212.42 219.32ZM201.77 216.15L199.00 204.61L188.35 201.45L180.48 209.82L183.26 221.36L193.91 224.52ZM225.39 191.02L222.61 179.48L211.96 176.31L204.09 184.69L206.87 196.23L217.52 199.40ZM156.41 191.97L153.62 180.43L142.98 177.28L135.12 185.66L137.91 197.20L148.55 200.35ZM137.91 197.20L135.12 185.66L124.48 182.51L116.63 190.89L119.42 202.42L130.06 205.58ZM161.49 172.05L158.70 160.51L148.05 157.36L140.19 165.74L142.98 177.28L153.62 180.43ZM142.98 177.28L140.19 165.74L129.54 162.59L121.69 170.98L124.48 182.51L135.12 185.66ZM169.84 206.66L167.05 195.13L156.41 191.97L148.55 200.35L151.34 211.88L161.98 215.04ZM151.34 211.88L148.55 200.35L137.91 197.20L130.06 205.58L132.84 217.11L143.48 220.26ZM174.92 186.75L172.13 175.21L161.49 172.05L153.62 180.43L156.41 191.97L167.05 195.13ZM235.60 151.17L232.82 139.61L222.16 136.45L214.28 144.83L217.06 156.38L227.72 159.55ZM217.06 156.38L214.28 144.83L203.62 141.67L195.74 150.06L198.53 161.60L209.18 164.77ZM240.71 131.23L237.93 119.67L227.26 116.50L219.38 124.89L222.16 136.45L232.82 139.61ZM222.16 136.45L219.38 124.89L208.72 121.73L200.84 130.12L203.62 141.67L214.28 144.83ZM249.03 165.89L246.26 154.34L235.60 151.17L227.72 159.55L230.49 171.10L241.15 174.27ZM230.49 171.10L227.72 159.55L217.06 156.38L209.18 164.77L211.96 176.31L222.61 179.48ZM254.15 145.95L251.37 134.40L240.71 131.23L232.82 139.61L235.60 151.17L246.26 154.34ZM185.09 146.89L182.30 135.35L171.65 132.19L163.78 140.58L166.57 152.12L177.22 155.28ZM166.57 152.12L163.78 140.58L153.13 137.43L145.26 145.82L148.05 157.36L158.70 160.51ZM190.18 126.96L187.40 115.41L176.73 112.25L168.86 120.64L171.65 132.19L182.30 135.35ZM171.65 132.19L168.86 120.64L158.20 117.49L150.34 125.88L153.13 137.43L163.78 140.58ZM198.53 161.60L195.74 150.06L185.09 146.89L177.22 155.28L180.00 166.82L190.65 169.99ZM180.00 166.82L177.22 155.28L166.57 152.12L158.70 160.51L161.49 172.05L172.13 175.21ZM203.62 141.67L200.84 130.12L190.18 126.96L182.30 135.35L185.09 146.89L195.74 150.06ZM228.62 245.56L225.84 234.02L215.20 230.85L207.33 239.22L210.11 250.76L220.75 253.93ZM210.11 250.76L207.33 239.22L196.69 236.06L188.82 244.43L191.60 255.96L202.24 259.12ZM233.72 225.65L230.94 214.11L220.29 210.94L212.42 219.32L215.20 230.85L225.84 234.02ZM215.20 230.85L212.42 219.32L201.77 216.15L193.91 224.52L196.69 236.06L207.33 239.22ZM242.04 260.27L239.26 248.73L228.62 245.56L220.75 253.93L223.52 265.46L234.16 268.63ZM223.52 265.46L220.75 253.93L210.11 250.76L202.24 259.12L205.02 270.66L215.66 273.82ZM247.14 240.37L244.37 228.83L233.72 225.65L225.84 234.02L228.62 245.56L239.26 248.73ZM178.18 241.26L175.40 229.73L164.76 226.57L156.90 234.95L159.69 246.47L170.32 249.63ZM159.69 246.47L156.90 234.95L146.27 231.79L138.42 240.16L141.20 251.69L151.83 254.84ZM183.26 221.36L180.48 209.82L169.84 206.66L161.98 215.04L164.76 226.57L175.40 229.73ZM164.76 226.57L161.98 215.04L151.34 211.88L143.48 220.26L146.27 231.79L156.90 234.95ZM191.60 255.96L188.82 244.43L178.18 241.26L170.32 249.63L173.11 261.16L183.74 264.33ZM173.11 261.16L170.32 249.63L159.69 246.47L151.83 254.84L154.62 266.37L165.25 269.53ZM196.69 236.06L193.91 224.52L183.26 221.36L175.40 229.73L178.18 241.26L188.82 244.43ZM257.35 200.54L254.58 188.99L243.93 185.82L236.04 194.19L238.82 205.74L249.47 208.91ZM238.82 205.74L236.04 194.19L225.39 191.02L217.52 199.40L220.29 210.94L230.94 214.11ZM262.47 180.61L259.70 169.06L249.03 165.89L241.15 174.27L243.93 185.82L254.58 188.99ZM243.93 185.82L241.15 174.27L230.49 171.10L222.61 179.48L225.39 191.02L236.04 194.19ZM270.78 215.26L268.01 203.72L257.35 200.54L249.47 208.91L252.24 220.46L262.90 223.63ZM252.24 220.46L249.47 208.91L238.82 205.74L230.94 214.11L233.72 225.65L244.37 228.83ZM275.90 195.34L273.13 183.79L262.47 180.61L254.58 188.99L257.35 200.54L268.01 203.72ZM1.84 124.94L-0.97 113.41L-11.61 110.29L-19.43 118.69L-16.62 130.21L-5.99 133.34ZM11.89 85.07L9.08 73.54L-1.56 70.41L-9.40 78.82L-6.59 90.35L4.06 93.48ZM16.92 65.13L14.11 53.59L3.46 50.47L-4.37 58.88L-1.56 70.41L9.08 73.54ZM25.34 99.73L22.54 88.20L11.89 85.07L4.06 93.48L6.86 105.01L17.51 108.13ZM6.86 105.01L4.06 93.48L-6.59 90.35L-14.42 98.76L-11.61 110.29L-0.97 113.41ZM30.38 79.79L27.57 68.25L16.92 65.13L9.08 73.54L11.89 85.07L22.54 88.20ZM5.24 179.42L2.43 167.90L-8.20 164.78L-16.02 173.17L-13.21 184.68L-2.58 187.81ZM10.26 159.51L7.45 147.99L-3.18 144.86L-11.00 153.26L-8.20 164.78L2.43 167.90ZM18.67 194.07L15.87 182.55L5.24 179.42L-2.58 187.81L0.22 199.33L10.85 202.46ZM0.22 199.33L-2.58 187.81L-13.21 184.68L-21.03 193.07L-18.22 204.59L-7.60 207.71ZM23.70 174.16L20.89 162.64L10.26 159.51L2.43 167.90L5.24 179.42L15.87 182.55ZM33.76 134.32L30.95 122.79L20.31 119.66L12.48 128.06L15.28 139.59L25.92 142.72ZM15.28 139.59L12.48 128.06L1.84 124.94L-5.99 133.34L-3.18 144.86L7.45 147.99ZM38.79 114.39L35.99 102.86L25.34 99.73L17.51 108.13L20.31 119.66L30.95 122.79ZM20.31 119.66L17.51 108.13L6.86 105.01L-0.97 113.41L1.84 124.94L12.48 128.06ZM47.20 148.98L44.40 137.46L33.76 134.32L25.92 142.72L28.72 154.25L39.36 157.38ZM28.72 154.25L25.92 142.72L15.28 139.59L7.45 147.99L10.26 159.51L20.89 162.64ZM52.24 129.06L49.43 117.53L38.79 114.39L30.95 122.79L33.76 134.32L44.40 137.46ZM0.06 -4.12L-2.76 -15.66L-13.41 -18.78L-21.26 -10.35L-18.44 1.19L-7.78 4.31ZM32.03 5.25L29.22 -6.29L18.56 -9.42L10.72 -1.00L13.53 10.55L24.18 13.67ZM13.53 10.55L10.72 -1.00L0.06 -4.12L-7.78 4.31L-4.97 15.85L5.68 18.97ZM40.46 39.89L37.65 28.35L26.99 25.22L19.15 33.64L21.96 45.18L32.61 48.30ZM21.96 45.18L19.15 33.64L8.49 30.51L0.65 38.93L3.46 50.47L14.11 53.59ZM45.50 19.93L42.69 8.38L32.03 5.25L24.18 13.67L26.99 25.22L37.65 28.35ZM26.99 25.22L24.18 13.67L13.53 10.55L5.68 18.97L8.49 30.51L19.15 33.64ZM53.92 54.56L51.11 43.02L40.46 39.89L32.61 48.30L35.41 59.84L46.07 62.97ZM35.41 59.84L32.61 48.30L21.96 45.18L14.11 53.59L16.92 65.13L27.57 68.25ZM58.96 34.61L56.16 23.06L45.50 19.93L37.65 28.35L40.46 39.89L51.11 43.02ZM3.46 50.47L0.65 38.93L-10.00 35.81L-17.83 44.22L-15.02 55.76L-4.37 58.88ZM8.49 30.51L5.68 18.97L-4.97 15.85L-12.81 24.27L-10.00 35.81L0.65 38.93ZM69.07 -5.33L66.27 -16.88L55.60 -20.01L47.74 -11.59L50.55 -0.04L61.21 3.09ZM50.55 -0.04L47.74 -11.59L37.08 -14.72L29.22 -6.29L32.03 5.25L42.69 8.38ZM82.54 9.36L79.74 -2.19L69.07 -5.33L61.21 3.09L64.02 14.64L74.68 17.78ZM64.02 14.64L61.21 3.09L50.55 -0.04L42.69 8.38L45.50 19.93L56.16 23.06ZM260.56 255.08L257.79 243.54L247.14 240.37L239.26 248.73L242.04 260.27L252.68 263.45ZM265.67 235.18L262.90 223.63L252.24 220.46L244.37 228.83L247.14 240.37L257.79 243.54ZM273.97 269.80L271.20 258.26L260.56 255.08L252.68 263.45L255.45 274.98L266.09 278.16ZM77.41 232.79L74.62 221.27L63.99 218.13L56.15 226.51L58.95 238.03L69.58 241.17ZM58.95 238.03L56.15 226.51L45.53 223.37L37.70 231.75L40.50 243.27L51.12 246.40ZM82.46 212.89L79.66 201.37L69.03 198.23L61.19 206.61L63.99 218.13L74.62 221.27ZM63.99 218.13L61.19 206.61L50.56 203.47L42.73 211.85L45.53 223.37L56.15 226.51ZM90.83 247.46L88.04 235.94L77.41 232.79L69.58 241.17L72.37 252.68L83.00 255.83ZM72.37 252.68L69.58 241.17L58.95 238.03L51.12 246.40L53.92 257.92L64.54 261.06ZM95.88 227.56L93.09 216.04L82.46 212.89L74.62 221.27L77.41 232.79L88.04 235.94ZM27.07 228.62L24.27 217.10L13.65 213.97L5.83 222.35L8.63 233.86L19.25 237.00ZM8.63 233.86L5.83 222.35L-4.79 219.22L-12.61 227.61L-9.80 239.11L0.81 242.24ZM32.10 208.72L29.30 197.20L18.67 194.07L10.85 202.46L13.65 213.97L24.27 217.10ZM13.65 213.97L10.85 202.46L0.22 199.33L-7.60 207.71L-4.79 219.22L5.83 222.35ZM40.50 243.27L37.70 231.75L27.07 228.62L19.25 237.00L22.05 248.51L32.67 251.64ZM22.05 248.51L19.25 237.00L8.63 233.86L0.81 242.24L3.62 253.75L14.23 256.88ZM45.53 223.37L42.73 211.85L32.10 208.72L24.27 217.10L27.07 228.62L37.70 231.75ZM105.99 187.75L103.19 176.22L92.55 173.07L84.71 181.46L87.50 192.99L98.14 196.13ZM87.50 192.99L84.71 181.46L74.07 178.32L66.23 186.70L69.03 198.23L79.66 201.37ZM111.04 167.83L108.25 156.30L97.61 153.15L89.76 161.54L92.55 173.07L103.19 176.22ZM92.55 173.07L89.76 161.54L79.12 158.40L71.27 166.79L74.07 178.32L84.71 181.46ZM119.42 202.42L116.63 190.89L105.99 187.75L98.14 196.13L100.93 207.66L111.57 210.80ZM100.93 207.66L98.14 196.13L87.50 192.99L79.66 201.37L82.46 212.89L93.09 216.04ZM124.48 182.51L121.69 170.98L111.04 167.83L103.19 176.22L105.99 187.75L116.63 190.89ZM55.60 183.56L52.80 172.04L42.16 168.90L34.33 177.29L37.13 188.81L47.76 191.95ZM37.13 188.81L34.33 177.29L23.70 174.16L15.87 182.55L18.67 194.07L29.30 197.20ZM60.64 163.65L57.84 152.12L47.20 148.98L39.36 157.38L42.16 168.90L52.80 172.04ZM42.16 168.90L39.36 157.38L28.72 154.25L20.89 162.64L23.70 174.16L34.33 177.29ZM69.03 198.23L66.23 186.70L55.60 183.56L47.76 191.95L50.56 203.47L61.19 206.61ZM50.56 203.47L47.76 191.95L37.13 188.81L29.30 197.20L32.10 208.72L42.73 211.85ZM74.07 178.32L71.27 166.79L60.64 163.65L52.80 172.04L55.60 183.56L66.23 186.70ZM104.25 262.12L101.46 250.60L90.83 247.46L83.00 255.83L85.79 267.35L96.41 270.49ZM85.79 267.35L83.00 255.83L72.37 252.68L64.54 261.06L67.33 272.57L77.96 275.71ZM53.92 257.92L51.12 246.40L40.50 243.27L32.67 251.64L35.47 263.15L46.09 266.29ZM35.47 263.15L32.67 251.64L22.05 248.51L14.23 256.88L17.03 268.39L27.65 271.52ZM127.78 237.01L124.99 225.48L114.36 222.33L106.51 230.71L109.30 242.23L119.93 245.38ZM109.30 242.23L106.51 230.71L95.88 227.56L88.04 235.94L90.83 247.46L101.46 250.60ZM132.84 217.11L130.06 205.58L119.42 202.42L111.57 210.80L114.36 222.33L124.99 225.48ZM114.36 222.33L111.57 210.80L100.93 207.66L93.09 216.04L95.88 227.56L106.51 230.71ZM141.20 251.69L138.42 240.16L127.78 237.01L119.93 245.38L122.72 256.90L133.35 260.06ZM122.72 256.90L119.93 245.38L109.30 242.23L101.46 250.60L104.25 262.12L114.88 265.27ZM146.27 231.79L143.48 220.26L132.84 217.11L124.99 225.48L127.78 237.01L138.42 240.16ZM3.62 253.75L0.81 242.24L-9.80 239.11L-17.62 247.49L-14.81 259.00L-4.20 262.13ZM17.03 268.39L14.23 256.88L3.62 253.75L-4.20 262.13L-1.40 273.63L9.22 276.76ZM205.02 270.66L202.24 259.12L191.60 255.96L183.74 264.33L186.52 275.85L197.16 279.02ZM154.62 266.37L151.83 254.84L141.20 251.69L133.35 260.06L136.14 271.58L146.77 274.74Z"/></svg>
