<svg xmlns="http://www.w3.org/2000/svg" width="256" height="256" viewBox="0 0 256 256"><path data-band="2" fill="#f97316" fill-opacity="0.35" d="M263.13 256.50L260.37 245.00L249.76 241.82L241.91 250.13L244.68 261.63L255.28 264.82ZM244.68 261.63L241.91 250.13L231.31 246.95L223.47 255.27L226.23 266.77L236.83 269.95ZM212.87 252.09L210.10 240.60L199.50 237.42L191.66 245.74L194.43 257.24L205.03 260.41ZM194.43 257.24L191.66 245.74L181.06 242.57L173.23 250.89L176.00 262.38L186.60 265.56ZM226.23 266.77L223.47 255.27L212.87 252.09L205.03 260.41L207.80 271.91L218.39 275.08ZM210.11 -5.24L207.33 -16.78L196.69 -19.94L188.82 -11.57L191.60 -0.04L202.24 3.12ZM242.04 4.27L239.26 -7.27L228.62 -10.44L220.75 -2.07L223.52 9.46L234.16 12.63ZM223.52 9.46L220.75 -2.07L210.11 -5.24L202.24 3.12L205.02 14.66L215.66 17.82ZM191.60 -0.04L188.82 -11.57L178.18 -14.74L170.32 -6.37L173.11 5.16L183.74 8.33ZM173.11 5.16L170.32 -6.37L159.69 -9.53L151.83 -1.16L154.62 10.37L165.25 13.53ZM265.03 182.32L262.27 170.80L251.65 167.62L243.80 175.95L246.56 187.47L257.18 190.65ZM246.56 187.47L243.80 175.95L233.18 172.78L225.33 181.11L228.10 192.62L238.71 195.79ZM270.13 162.47L267.37 150.95L256.75 147.77L248.89 156.11L251.65 167.62L262.27 170.80ZM251.65 167.62L248.89 156.11L238.27 152.93L230.41 161.26L233.18 172.78L243.80 175.95ZM259.94 202.16L257.18 190.65L246.56 187.47L238.71 195.79L241.47 207.30L252.09 210.48ZM214.72 177.93L211.95 166.42L201.33 163.25L193.49 171.59L196.26 183.09L206.87 186.26ZM196.26 183.09L193.49 171.59L182.88 168.42L175.04 176.75L177.81 188.25L188.42 191.42ZM219.80 158.09L217.03 146.58L206.41 143.40L198.56 151.74L201.33 163.25L211.95 166.42ZM201.33 163.25L198.56 151.74L187.95 148.57L180.11 156.91L182.88 168.42L193.49 171.59ZM228.10 192.62L225.33 181.11L214.72 177.93L206.87 186.26L209.64 197.77L220.25 200.94ZM209.64 197.77L206.87 186.26L196.26 183.09L188.42 191.42L191.19 202.92L201.80 206.10ZM233.18 172.78L230.41 161.26L219.80 158.09L211.95 166.42L214.72 177.93L225.33 181.11ZM275.23 142.62L272.47 131.10L261.84 127.91L253.98 136.25L256.75 147.77L267.37 150.95ZM243.36 133.07L240.59 121.56L229.97 118.38L222.11 126.72L224.88 138.24L235.50 141.41ZM224.88 138.24L222.11 126.72L211.49 123.55L203.64 131.89L206.41 143.40L217.03 146.58ZM248.45 113.21L245.68 101.69L235.06 98.51L227.20 106.86L229.97 118.38L240.59 121.56ZM229.97 118.38L227.20 106.86L216.57 103.69L208.72 112.03L211.49 123.55L222.11 126.72ZM256.75 147.77L253.98 136.25L243.36 133.07L235.50 141.41L238.27 152.93L248.89 156.11ZM238.27 152.93L235.50 141.41L224.88 138.24L217.03 146.58L219.80 158.09L230.41 161.26ZM261.84 127.91L259.08 116.39L248.45 113.21L240.59 121.56L243.36 133.07L253.98 136.25ZM268.22 236.68L265.46 225.18L254.85 221.99L247.00 230.31L249.76 241.82L260.37 245.00ZM273.31 216.85L270.56 205.34L259.94 202.16L252.09 210.48L254.85 221.99L265.46 225.18ZM236.39 227.13L233.63 215.63L223.02 212.45L215.17 220.77L217.94 232.27L228.55 235.45ZM217.94 232.27L215.17 220.77L204.57 217.60L196.73 225.92L199.50 237.42L210.10 240.60ZM241.47 207.30L238.71 195.79L228.10 192.62L220.25 200.94L223.02 212.45L233.63 215.63ZM223.02 212.45L220.25 200.94L209.64 197.77L201.80 206.10L204.57 217.60L215.17 220.77ZM249.76 241.82L247.00 230.31L236.39 227.13L228.55 235.45L231.31 246.95L241.91 250.13ZM231.31 246.95L228.55 235.45L217.94 232.27L210.10 240.60L212.87 252.09L223.47 255.27ZM254.85 221.99L252.09 210.48L241.47 207.30L233.63 215.63L236.39 227.13L247.00 230.31ZM250.35 38.88L247.58 27.34L236.94 24.17L229.07 32.53L231.84 44.06L242.48 47.23ZM231.84 44.06L229.07 32.53L218.43 29.36L210.57 37.72L213.34 49.24L223.98 52.41ZM255.45 18.98L252.68 7.45L242.04 4.27L234.16 12.63L236.94 24.17L247.58 27.34ZM236.94 24.17L234.16 12.63L223.52 9.46L215.66 17.82L218.43 29.36L229.07 32.53ZM263.75 53.59L260.99 42.05L250.35 38.88L242.48 47.23L245.25 58.76L255.88 61.94ZM245.25 58.76L242.48 47.23L231.84 44.06L223.98 52.41L226.75 63.94L237.38 67.12ZM268.86 33.70L266.09 22.16L255.45 18.98L247.58 27.34L250.35 38.88L260.99 42.05ZM260.56 -0.92L257.79 -12.46L247.14 -15.63L239.26 -7.27L242.04 4.27L252.68 7.45ZM273.97 13.80L271.20 2.26L260.56 -0.92L252.68 7.45L255.45 18.98L266.09 22.16ZM272.05 88.18L269.28 76.65L258.65 73.47L250.78 81.82L253.55 93.34L264.18 96.52ZM253.55 93.34L250.78 81.82L240.15 78.64L232.29 86.99L235.06 98.51L245.68 101.69ZM277.16 68.30L274.39 56.77L263.75 53.59L255.88 61.94L258.65 73.47L269.28 76.65ZM258.65 73.47L255.88 61.94L245.25 58.76L237.38 67.12L240.15 78.64L250.78 81.82ZM266.95 108.05L264.18 96.52L253.55 93.34L245.68 101.69L248.45 113.21L259.08 116.39ZM42.20 115.90L39.40 104.40L28.80 101.26L20.99 109.62L23.79 121.11L34.39 124.25ZM23.79 121.11L20.99 109.62L10.39 106.48L2.59 114.83L5.38 126.32L15.98 129.46ZM47.22 96.04L44.43 84.55L33.82 81.41L26.01 89.76L28.80 101.26L39.40 104.40ZM28.80 101.26L26.01 89.76L15.40 86.63L7.59 94.99L10.39 106.48L20.99 109.62ZM55.59 130.53L52.80 119.04L42.20 115.90L34.39 124.25L37.18 135.74L47.78 138.88ZM37.18 135.74L34.39 124.25L23.79 121.11L15.98 129.46L18.78 140.95L29.37 144.09ZM60.62 110.69L57.83 99.19L47.22 96.04L39.40 104.40L42.20 115.90L52.80 119.04ZM5.38 126.32L2.59 114.83L-8.01 111.70L-15.81 120.06L-13.01 131.54L-2.41 134.68ZM10.39 106.48L7.59 94.99L-3.01 91.85L-10.81 100.21L-8.01 111.70L2.59 114.83ZM70.67 70.97L67.88 59.47L57.27 56.32L49.45 64.68L52.24 76.19L62.85 79.33ZM52.24 76.19L49.45 64.68L38.84 61.54L31.02 69.91L33.82 81.41L44.43 84.55ZM75.71 51.10L72.92 39.59L62.30 36.45L54.48 44.82L57.27 56.32L67.88 59.47ZM57.27 56.32L54.48 44.82L43.86 41.68L36.04 50.04L38.84 61.54L49.45 64.68ZM84.08 85.62L81.29 74.12L70.67 70.97L62.85 79.33L65.64 90.83L76.25 93.98ZM65.64 90.83L62.85 79.33L52.24 76.19L44.43 84.55L47.22 96.04L57.83 99.19ZM89.12 65.76L86.33 54.25L75.71 51.10L67.88 59.47L70.67 70.97L81.29 74.12ZM20.41 66.77L17.62 55.27L7.01 52.14L-0.80 60.50L2.00 72.00L12.60 75.13ZM2.00 72.00L-0.80 60.50L-11.41 57.37L-19.21 65.74L-16.41 77.23L-5.81 80.36ZM25.43 46.90L22.63 35.40L12.02 32.27L4.21 40.64L7.01 52.14L17.62 55.27ZM7.01 52.14L4.21 40.64L-6.40 37.50L-14.21 45.87L-11.41 57.37L-0.80 60.50ZM33.82 81.41L31.02 69.91L20.41 66.77L12.60 75.13L15.40 86.63L26.01 89.76ZM15.40 86.63L12.60 75.13L2.00 72.00L-5.81 80.36L-3.01 91.85L7.59 94.99ZM38.84 61.54L36.04 50.04L25.43 46.90L17.62 55.27L20.41 66.77L31.02 69.91ZM63.96 165.01L61.17 153.52L50.57 150.37L42.76 158.72L45.55 170.21L56.15 173.35ZM45.55 170.21L42.76 158.72L32.17 155.58L24.36 163.92L27.16 175.41L37.75 178.55ZM68.98 145.17L66.19 133.68L55.59 130.53L47.78 138.88L50.57 150.37L61.17 153.52ZM50.57 150.37L47.78 138.88L37.18 135.74L29.37 144.09L32.17 155.58L42.76 158.72ZM77.34 179.65L74.56 168.16L63.96 165.01L56.15 173.35L58.94 184.84L69.53 187.99ZM58.94 184.84L56.15 173.35L45.55 170.21L37.75 178.55L40.54 190.03L51.13 193.18ZM82.37 159.82L79.59 148.32L68.98 145.17L61.17 153.52L63.96 165.01L74.56 168.16ZM13.77 160.78L10.98 149.30L0.38 146.16L-7.41 154.51L-4.62 165.99L5.97 169.13ZM18.78 140.95L15.98 129.46L5.38 126.32L-2.41 134.68L0.38 146.16L10.98 149.30ZM0.38 146.16L-2.41 134.68L-13.01 131.54L-20.80 139.89L-18.00 151.38L-7.41 154.51ZM27.16 175.41L24.36 163.92L13.77 160.78L5.97 169.13L8.77 180.61L19.36 183.75ZM8.77 180.61L5.97 169.13L-4.62 165.99L-12.41 174.34L-9.61 185.82L0.97 188.95ZM32.17 155.58L29.37 144.09L18.78 140.95L10.98 149.30L13.77 160.78L24.36 163.92ZM92.44 120.13L89.65 108.63L79.04 105.48L71.22 113.83L74.01 125.33L84.62 128.48ZM74.01 125.33L71.22 113.83L60.62 110.69L52.80 119.04L55.59 130.53L66.19 133.68ZM97.48 100.28L94.69 88.77L84.08 85.62L76.25 93.98L79.04 105.48L89.65 108.63ZM79.04 105.48L76.25 93.98L65.64 90.83L57.83 99.19L60.62 110.69L71.22 113.83ZM105.83 134.78L103.05 123.28L92.44 120.13L84.62 128.48L87.40 139.98L98.01 143.13ZM87.40 139.98L84.62 128.48L74.01 125.33L66.19 133.68L68.98 145.17L79.59 148.32ZM110.87 114.93L108.09 103.43L97.48 100.28L89.65 108.63L92.44 120.13L103.05 123.28ZM72.37 -3.32L69.58 -14.83L58.95 -17.97L51.12 -9.60L53.92 1.92L64.54 5.06ZM22.05 -7.49L19.25 -19.00L8.63 -22.14L0.81 -13.76L3.62 -2.25L14.23 0.88ZM99.20 26.01L96.41 14.49L85.79 11.35L77.96 19.71L80.75 31.23L91.37 34.37ZM80.75 31.23L77.96 19.71L67.33 16.57L59.51 24.94L62.30 36.45L72.92 39.59ZM104.25 6.12L101.46 -5.40L90.83 -8.54L83.00 -0.17L85.79 11.35L96.41 14.49ZM85.79 11.35L83.00 -0.17L72.37 -3.32L64.54 5.06L67.33 16.57L77.96 19.71ZM112.61 40.67L109.83 29.16L99.20 26.01L91.37 34.37L94.16 45.89L104.78 49.04ZM94.16 45.89L91.37 34.37L80.75 31.23L72.92 39.59L75.71 51.10L86.33 54.25ZM117.67 20.79L114.88 9.27L104.25 6.12L96.41 14.49L99.20 26.01L109.83 29.16ZM48.89 21.80L46.09 10.29L35.47 7.15L27.65 15.52L30.45 27.03L41.06 30.17ZM30.45 27.03L27.65 15.52L17.03 12.39L9.22 20.76L12.02 32.27L22.63 35.40ZM53.92 1.92L51.12 -9.60L40.50 -12.73L32.67 -4.36L35.47 7.15L46.09 10.29ZM35.47 7.15L32.67 -4.36L22.05 -7.49L14.23 0.88L17.03 12.39L27.65 15.52ZM62.30 36.45L59.51 24.94L48.89 21.80L41.06 30.17L43.86 41.68L54.48 44.82ZM43.86 41.68L41.06 30.17L30.45 27.03L22.63 35.40L25.43 46.90L36.04 50.04ZM67.33 16.57L64.54 5.06L53.92 1.92L46.09 10.29L48.89 21.80L59.51 24.94ZM141.20 -4.31L138.42 -15.84L127.78 -18.99L119.93 -10.62L122.72 0.90L133.35 4.06ZM122.72 0.90L119.93 -10.62L109.30 -13.77L101.46 -5.40L104.25 6.12L114.88 9.27ZM3.62 -2.25L0.81 -13.76L-9.80 -16.89L-17.62 -8.51L-14.81 3.00L-4.20 6.13ZM12.02 32.27L9.22 20.76L-1.40 17.63L-9.21 26.00L-6.40 37.50L4.21 40.64ZM17.03 12.39L14.23 0.88L3.62 -2.25L-4.20 6.13L-1.40 17.63L9.22 20.76ZM135.89 218.41L133.12 206.92L122.52 203.76L114.70 212.09L117.48 223.58L128.07 226.74ZM117.48 223.58L114.70 212.09L104.10 208.93L96.29 217.27L99.07 228.75L109.66 231.91ZM140.94 198.59L138.16 187.09L127.56 183.93L119.74 192.27L122.52 203.76L133.12 206.92ZM122.52 203.76L119.74 192.27L109.14 189.11L101.32 197.44L104.10 208.93L114.70 212.09ZM149.27 233.07L146.49 221.57L135.89 218.41L128.07 226.74L130.85 238.23L141.44 241.39ZM130.85 238.23L128.07 226.74L117.48 223.58L109.66 231.91L112.44 243.39L123.03 246.55ZM154.32 213.25L151.54 201.75L140.94 198.59L133.12 206.92L135.89 218.41L146.49 221.57ZM85.69 214.11L82.91 202.62L72.32 199.47L64.51 207.81L67.29 219.29L77.89 222.44ZM67.29 219.29L64.51 207.81L53.92 204.66L46.12 213.00L48.90 224.48L59.49 227.62ZM90.72 194.29L87.94 182.80L77.34 179.65L69.53 187.99L72.32 199.47L82.91 202.62ZM72.32 199.47L69.53 187.99L58.94 184.84L51.13 193.18L53.92 204.66L64.51 207.81ZM99.07 228.75L96.29 217.27L85.69 214.11L77.89 222.44L80.67 233.93L91.26 237.08ZM80.67 233.93L77.89 222.44L67.29 219.29L59.49 227.62L62.28 239.10L72.86 242.25ZM104.10 208.93L101.32 197.44L90.72 194.29L82.91 202.62L85.69 214.11L96.29 217.27ZM164.43 173.58L161.66 162.08L151.05 158.92L143.21 167.26L145.99 178.76L156.60 181.92ZM145.99 178.76L143.21 167.26L132.61 164.10L124.78 172.43L127.56 183.93L138.16 187.09ZM169.49 153.74L166.72 142.24L156.10 139.07L148.27 147.41L151.05 158.92L161.66 162.08ZM151.05 158.92L148.27 147.41L137.66 144.25L129.83 152.60L132.61 164.10L143.21 167.26ZM177.81 188.25L175.04 176.75L164.43 173.58L156.60 181.92L159.37 193.42L169.98 196.58ZM159.37 193.42L156.60 181.92L145.99 178.76L138.16 187.09L140.94 198.59L151.54 201.75ZM182.88 168.42L180.11 156.91L169.49 153.74L161.66 162.08L164.43 173.58L175.04 176.75ZM114.18 169.28L111.40 157.78L100.79 154.63L92.97 162.97L95.76 174.46L106.36 177.62ZM95.76 174.46L92.97 162.97L82.37 159.82L74.56 168.16L77.34 179.65L87.94 182.80ZM119.22 149.44L116.44 137.94L105.83 134.78L98.01 143.13L100.79 154.63L111.40 157.78ZM100.79 154.63L98.01 143.13L87.40 139.98L79.59 148.32L82.37 159.82L92.97 162.97ZM127.56 183.93L124.78 172.43L114.18 169.28L106.36 177.62L109.14 189.11L119.74 192.27ZM109.14 189.11L106.36 177.62L95.76 174.46L87.94 182.80L90.72 194.29L101.32 197.44ZM132.61 164.10L129.83 152.60L119.22 149.44L111.40 157.78L114.18 169.28L124.78 172.43ZM157.58 267.53L154.81 256.05L144.22 252.88L136.40 261.20L139.17 272.69L149.76 275.85ZM162.64 247.72L159.86 236.23L149.27 233.07L141.44 241.39L144.22 252.88L154.81 256.05ZM144.22 252.88L141.44 241.39L130.85 238.23L123.03 246.55L125.81 258.04L136.40 261.20ZM176.00 262.38L173.23 250.89L162.64 247.72L154.81 256.05L157.58 267.53L168.18 270.70ZM107.41 263.20L104.63 251.72L94.04 248.56L86.23 256.89L89.01 268.37L99.60 271.52ZM89.01 268.37L86.23 256.89L75.65 253.73L67.84 262.06L70.63 273.53L81.21 276.69ZM112.44 243.39L109.66 231.91L99.07 228.75L91.26 237.08L94.04 248.56L104.63 251.72ZM94.04 248.56L91.26 237.08L80.67 233.93L72.86 242.25L75.65 253.73L86.23 256.89ZM125.81 258.04L123.03 246.55L112.44 243.39L104.63 251.72L107.41 263.20L117.99 266.36ZM186.13 222.75L183.36 211.25L172.75 208.08L164.92 216.41L167.69 227.91L178.29 231.08ZM167.69 227.91L164.92 216.41L154.32 213.25L146.49 221.57L149.27 233.07L159.86 236.23ZM191.19 202.92L188.42 191.42L177.81 188.25L169.98 196.58L172.75 208.08L183.36 211.25ZM172.75 208.08L169.98 196.58L159.37 193.42L151.54 201.75L154.32 213.25L164.92 216.41ZM199.50 237.42L196.73 225.92L186.13 222.75L178.29 231.08L181.06 242.57L191.66 245.74ZM181.06 242.57L178.29 231.08L167.69 227.91L159.86 236.23L162.64 247.72L173.23 250.89ZM204.57 217.60L201.80 206.10L191.19 202.92L183.36 211.25L186.13 222.75L196.73 225.92ZM7.15 254.66L4.36 243.19L-6.22 240.05L-14.01 248.38L-11.21 259.85L-0.64 262.98ZM12.14 234.85L9.35 223.38L-1.23 220.24L-9.02 228.58L-6.22 240.05L4.36 243.19ZM20.51 269.27L17.73 257.80L7.15 254.66L-0.64 262.98L2.15 274.45L12.73 277.59ZM25.52 249.47L22.73 238.00L12.14 234.85L4.36 243.19L7.15 254.66L17.73 257.80ZM35.53 209.85L32.74 198.37L22.15 195.23L14.35 203.57L17.15 215.04L27.73 218.19ZM17.15 215.04L14.35 203.57L3.77 200.43L-4.02 208.77L-1.23 220.24L9.35 223.38ZM40.54 190.03L37.75 178.55L27.16 175.41L19.36 183.75L22.15 195.23L32.74 198.37ZM22.15 195.23L19.36 183.75L8.77 180.61L0.97 188.95L3.77 200.43L14.35 203.57ZM48.90 224.48L46.12 213.00L35.53 209.85L27.73 218.19L30.52 229.66L41.10 232.81ZM30.52 229.66L27.73 218.19L17.15 215.04L9.35 223.38L12.14 234.85L22.73 238.00ZM53.92 204.66L51.13 193.18L40.54 190.03L32.74 198.37L35.53 209.85L46.12 213.00ZM3.77 200.43L0.97 188.95L-9.61 185.82L-17.40 194.16L-14.61 205.63L-4.02 208.77ZM57.26 258.91L54.48 247.43L43.89 244.28L36.10 252.61L38.88 264.09L49.46 267.23ZM38.88 264.09L36.10 252.61L25.52 249.47L17.73 257.80L20.51 269.27L31.09 272.41ZM62.28 239.10L59.49 227.62L48.90 224.48L41.10 232.81L43.89 244.28L54.48 247.43ZM43.89 244.28L41.10 232.81L30.52 229.66L22.73 238.00L25.52 249.47L36.10 252.61ZM75.65 253.73L72.86 242.25L62.28 239.10L54.48 247.43L57.26 258.91L67.84 262.06ZM171.30 79.49L168.52 67.98L157.89 64.81L150.05 73.17L152.83 84.69L163.45 87.85ZM152.83 84.69L150.05 73.17L139.43 70.01L131.59 78.37L134.37 89.88L144.99 93.04ZM176.37 59.62L173.59 48.10L162.96 44.94L155.11 53.30L157.89 64.81L168.52 67.98ZM157.89 64.81L155.11 53.30L144.49 50.14L136.65 58.50L139.43 70.01L150.05 73.17ZM184.70 94.18L181.92 82.66L171.30 79.49L163.45 87.85L166.23 99.36L176.85 102.53ZM166.23 99.36L163.45 87.85L152.83 84.69L144.99 93.04L147.77 104.55L158.39 107.71ZM189.77 74.31L187.00 62.79L176.37 59.62L168.52 67.98L171.30 79.49L181.92 82.66ZM120.97 75.21L118.19 63.70L107.56 60.55L99.73 68.91L102.52 80.42L113.14 83.57ZM102.52 80.42L99.73 68.91L89.12 65.76L81.29 74.12L84.08 85.62L94.69 88.77ZM126.02 55.34L123.24 43.83L112.61 40.67L104.78 49.04L107.56 60.55L118.19 63.70ZM107.56 60.55L104.78 49.04L94.16 45.89L86.33 54.25L89.12 65.76L99.73 68.91ZM134.37 89.88L131.59 78.37L120.97 75.21L113.14 83.57L115.92 95.08L126.54 98.23ZM115.92 95.08L113.14 83.57L102.52 80.42L94.69 88.77L97.48 100.28L108.09 103.43ZM139.43 70.01L136.65 58.50L126.02 55.34L118.19 63.70L120.97 75.21L131.59 78.37ZM199.93 34.55L197.16 23.02L186.52 19.85L178.66 28.22L181.44 39.74L192.07 42.91ZM181.44 39.74L178.66 28.22L168.03 25.05L160.18 33.42L162.96 44.94L173.59 48.10ZM205.02 14.66L202.24 3.12L191.60 -0.04L183.74 8.33L186.52 19.85L197.16 23.02ZM186.52 19.85L183.74 8.33L173.11 5.16L165.25 13.53L168.03 25.05L178.66 28.22ZM213.34 49.24L210.57 37.72L199.93 34.55L192.07 42.91L194.85 54.43L205.48 57.60ZM194.85 54.43L192.07 42.91L181.44 39.74L173.59 48.10L176.37 59.62L187.00 62.79ZM218.43 29.36L215.66 17.82L205.02 14.66L197.16 23.02L199.93 34.55L210.57 37.72ZM149.55 30.26L146.77 18.74L136.14 15.58L128.29 23.95L131.08 35.46L141.71 38.62ZM131.08 35.46L128.29 23.95L117.67 20.79L109.83 29.16L112.61 40.67L123.24 43.83ZM154.62 10.37L151.83 -1.16L141.20 -4.31L133.35 4.06L136.14 15.58L146.77 18.74ZM136.14 15.58L133.35 4.06L122.72 0.90L114.88 9.27L117.67 20.79L128.29 23.95ZM162.96 44.94L160.18 33.42L149.55 30.26L141.71 38.62L144.49 50.14L155.11 53.30ZM144.49 50.14L141.71 38.62L131.08 35.46L123.24 43.83L126.02 55.34L136.65 58.50ZM168.03 25.05L165.25 13.53L154.62 10.37L146.77 18.74L149.55 30.26L160.18 33.42ZM193.02 128.72L190.25 117.21L179.63 114.04L171.78 122.38L174.56 133.89L185.17 137.06ZM174.56 133.89L171.78 122.38L161.16 119.22L153.33 127.57L156.10 139.07L166.72 142.24ZM198.09 108.86L195.32 97.34L184.70 94.18L176.85 102.53L179.63 114.04L190.25 117.21ZM179.63 114.04L176.85 102.53L166.23 99.36L158.39 107.71L161.16 119.22L171.78 122.38ZM206.41 143.40L203.64 131.89L193.02 128.72L185.17 137.06L187.95 148.57L198.56 151.74ZM187.95 148.57L185.17 137.06L174.56 133.89L166.72 142.24L169.49 153.74L180.11 156.91ZM211.49 123.55L208.72 112.03L198.09 108.86L190.25 117.21L193.02 128.72L203.64 131.89ZM142.71 124.40L139.93 112.90L129.32 109.74L121.49 118.09L124.27 129.59L134.88 132.75ZM124.27 129.59L121.49 118.09L110.87 114.93L103.05 123.28L105.83 134.78L116.44 137.94ZM147.77 104.55L144.99 93.04L134.37 89.88L126.54 98.23L129.32 109.74L139.93 112.90ZM129.32 109.74L126.54 98.23L115.92 95.08L108.09 103.43L110.87 114.93L121.49 118.09ZM156.10 139.07L153.33 127.57L142.71 124.40L134.88 132.75L137.66 144.25L148.27 147.41ZM137.66 144.25L134.88 132.75L124.27 129.59L116.44 137.94L119.22 149.44L129.83 152.60ZM161.16 119.22L158.39 107.71L147.77 104.55L139.93 112.90L142.71 124.40L153.33 127.57ZM221.66 83.82L218.89 72.29L208.26 69.12L200.40 77.47L203.17 88.99L213.80 92.17ZM203.17 88.99L200.40 77.47L189.77 74.31L181.92 82.66L184.70 94.18L195.32 97.34ZM226.75 63.94L223.98 52.41L213.34 49.24L205.48 57.60L208.26 69.12L218.89 72.29ZM208.26 69.12L205.48 57.60L194.85 54.43L187.00 62.79L189.77 74.31L200.40 77.47ZM235.06 98.51L232.29 86.99L221.66 83.82L213.80 92.17L216.57 103.69L227.20 106.86ZM216.57 103.69L213.80 92.17L203.17 88.99L195.32 97.34L198.09 108.86L208.72 112.03ZM240.15 78.64L237.38 67.12L226.75 63.94L218.89 72.29L221.66 83.82L232.29 86.99Z"/></svg>
