<svg xmlns="http://www.w3.org/2000/svg" width="256" height="256" viewBox="0 0 256 256"><path data-band="2" fill="#f97316" fill-opacity="0.35" d="M194.01 203.43L191.25 191.97L180.68 188.79L172.88 197.08L175.64 208.54L186.21 211.72ZM175.64 208.54L172.88 197.08L162.31 193.90L154.51 202.19L157.28 213.64L167.84 216.82ZM199.06 183.69L196.30 172.22L185.73 169.04L177.92 177.33L180.68 188.79L191.25 191.97ZM180.68 188.79L177.92 177.33L167.35 174.15L159.55 182.44L162.31 193.90L172.88 197.08ZM207.34 218.08L204.58 206.62L194.01 203.43L186.21 211.72L188.97 223.18L199.53 226.36ZM188.97 223.18L186.21 211.72L175.64 208.54L167.84 216.82L170.60 228.28L181.16 231.45ZM212.39 198.34L209.64 186.87L199.06 183.69L191.25 191.97L194.01 203.43L204.58 206.62ZM143.95 199.01L141.18 187.55L130.62 184.38L122.83 192.67L125.60 204.13L136.16 207.30ZM125.60 204.13L122.83 192.67L112.27 189.51L104.48 197.79L107.25 209.25L117.80 212.41ZM148.98 179.27L146.22 167.80L135.65 164.63L127.85 172.93L130.62 184.38L141.18 187.55ZM130.62 184.38L127.85 172.93L117.29 169.76L109.50 178.05L112.27 189.51L122.83 192.67ZM157.28 213.64L154.51 202.19L143.95 199.01L136.16 207.30L138.92 218.75L149.48 221.92ZM138.92 218.75L136.16 207.30L125.60 204.13L117.80 212.41L120.57 223.86L131.13 227.03ZM162.31 193.90L159.55 182.44L148.98 179.27L141.18 187.55L143.95 199.01L154.51 202.19ZM222.51 158.82L219.76 147.35L209.18 144.17L201.36 152.46L204.12 163.93L214.69 167.11ZM204.12 163.93L201.36 152.46L190.78 149.28L182.97 157.57L185.73 169.04L196.30 172.22ZM227.58 139.06L224.82 127.58L214.24 124.40L206.42 132.69L209.18 144.17L219.76 147.35ZM209.18 144.17L206.42 132.69L195.84 129.51L188.02 137.81L190.78 149.28L201.36 152.46ZM235.85 173.48L233.09 162.01L222.51 158.82L214.69 167.11L217.45 178.58L228.03 181.77ZM217.45 178.58L214.69 167.11L204.12 163.93L196.30 172.22L199.06 183.69L209.64 186.87ZM240.92 153.72L238.16 142.25L227.58 139.06L219.76 147.35L222.51 158.82L233.09 162.01ZM172.40 154.40L169.63 142.93L159.06 139.75L151.25 148.05L154.02 159.51L164.59 162.69ZM154.02 159.51L151.25 148.05L140.68 144.88L132.88 153.17L135.65 164.63L146.22 167.80ZM177.44 134.63L174.68 123.16L164.10 119.99L156.29 128.28L159.06 139.75L169.63 142.93ZM159.06 139.75L156.29 128.28L145.72 125.11L137.91 133.41L140.68 144.88L151.25 148.05ZM185.73 169.04L182.97 157.57L172.40 154.40L164.59 162.69L167.35 174.15L177.92 177.33ZM167.35 174.15L164.59 162.69L154.02 159.51L146.22 167.80L148.98 179.27L159.55 182.44ZM190.78 149.28L188.02 137.81L177.44 134.63L169.63 142.93L172.40 154.40L182.97 157.57ZM215.60 252.46L212.85 241.00L202.29 237.82L194.48 246.09L197.24 257.55L207.80 260.73ZM197.24 257.55L194.48 246.09L183.92 242.91L176.12 251.19L178.88 262.64L189.44 265.82ZM220.66 232.73L217.91 221.27L207.34 218.08L199.53 226.36L202.29 237.82L212.85 241.00ZM202.29 237.82L199.53 226.36L188.97 223.18L181.16 231.45L183.92 242.91L194.48 246.09ZM228.92 267.11L226.17 255.65L215.60 252.46L207.80 260.73L210.55 272.19L221.11 275.38ZM233.98 247.38L231.23 235.92L220.66 232.73L212.85 241.00L215.60 252.46L226.17 255.65ZM165.56 248.01L162.80 236.55L152.24 233.38L144.45 241.66L147.21 253.11L157.77 256.28ZM147.21 253.11L144.45 241.66L133.89 238.48L126.11 246.76L128.87 258.21L139.42 261.38ZM170.60 228.28L167.84 216.82L157.28 213.64L149.48 221.92L152.24 233.38L162.80 236.55ZM152.24 233.38L149.48 221.92L138.92 218.75L131.13 227.03L133.89 238.48L144.45 241.66ZM178.88 262.64L176.12 251.19L165.56 248.01L157.77 256.28L160.53 267.73L171.08 270.91ZM160.53 267.73L157.77 256.28L147.21 253.11L139.42 261.38L142.19 272.83L152.74 276.00ZM183.92 242.91L181.16 231.45L170.60 228.28L162.80 236.55L165.56 248.01L176.12 251.19ZM244.11 207.90L241.35 196.43L230.78 193.24L222.96 201.52L225.72 212.99L236.29 216.18ZM225.72 212.99L222.96 201.52L212.39 198.34L204.58 206.62L207.34 218.08L217.91 221.27ZM249.18 188.15L246.42 176.67L235.85 173.48L228.03 181.77L230.78 193.24L241.35 196.43ZM230.78 193.24L228.03 181.77L217.45 178.58L209.64 186.87L212.39 198.34L222.96 201.52ZM257.43 222.56L254.68 211.09L244.11 207.90L236.29 216.18L239.04 227.64L249.61 230.83ZM239.04 227.64L236.29 216.18L225.72 212.99L217.91 221.27L220.66 232.73L231.23 235.92ZM262.50 202.81L259.75 191.34L249.18 188.15L241.35 196.43L244.11 207.90L254.68 211.09ZM65.58 239.22L62.80 227.77L52.25 224.62L44.48 232.90L47.26 244.34L57.80 247.50ZM47.26 244.34L44.48 232.90L33.94 229.75L26.17 238.03L28.95 249.47L39.49 252.62ZM70.58 219.49L67.80 208.04L57.25 204.89L49.48 213.18L52.25 224.62L62.80 227.77ZM52.25 224.62L49.48 213.18L38.93 210.02L31.16 218.31L33.94 229.75L44.48 232.90ZM78.90 253.82L76.12 242.38L65.58 239.22L57.80 247.50L60.58 258.94L71.12 262.10ZM60.58 258.94L57.80 247.50L47.26 244.34L39.49 252.62L42.27 264.06L52.81 267.21ZM83.90 234.10L81.13 222.65L70.58 219.49L62.80 227.77L65.58 239.22L76.12 242.38ZM15.63 234.88L12.85 223.44L2.31 220.30L-5.45 228.58L-2.67 240.02L7.87 243.17ZM20.61 215.16L17.83 203.72L7.29 200.57L-0.47 208.86L2.31 220.30L12.85 223.44ZM2.31 220.30L-0.47 208.86L-11.02 205.71L-18.77 214.01L-15.99 225.44L-5.45 228.58ZM28.95 249.47L26.17 238.03L15.63 234.88L7.87 243.17L10.65 254.60L21.19 257.75ZM10.65 254.60L7.87 243.17L-2.67 240.02L-10.42 248.30L-7.64 259.73L2.90 262.88ZM33.94 229.75L31.16 218.31L20.61 215.16L12.85 223.44L15.63 234.88L26.17 238.03ZM93.92 194.63L91.15 183.18L80.59 180.02L72.81 188.31L75.58 199.76L86.14 202.92ZM75.58 199.76L72.81 188.31L62.25 185.15L54.47 193.44L57.25 204.89L67.80 208.04ZM98.94 174.89L96.16 163.43L85.60 160.27L77.81 168.56L80.59 180.02L91.15 183.18ZM80.59 180.02L77.81 168.56L67.26 165.41L59.48 173.70L62.25 185.15L72.81 188.31ZM107.25 209.25L104.48 197.79L93.92 194.63L86.14 202.92L88.91 214.37L99.46 217.53ZM88.91 214.37L86.14 202.92L75.58 199.76L67.80 208.04L70.58 219.49L81.13 222.65ZM112.27 189.51L109.50 178.05L98.94 174.89L91.15 183.18L93.92 194.63L104.48 197.79ZM43.92 190.29L41.14 178.84L30.59 175.69L22.82 183.98L25.60 195.43L36.15 198.58ZM25.60 195.43L22.82 183.98L12.27 180.83L4.50 189.13L7.29 200.57L17.83 203.72ZM48.92 170.55L46.14 159.10L35.58 155.94L27.81 164.24L30.59 175.69L41.14 178.84ZM30.59 175.69L27.81 164.24L17.26 161.09L9.49 169.39L12.27 180.83L22.82 183.98ZM57.25 204.89L54.47 193.44L43.92 190.29L36.15 198.58L38.93 210.02L49.48 213.18ZM38.93 210.02L36.15 198.58L25.60 195.43L17.83 203.72L20.61 215.16L31.16 218.31ZM62.25 185.15L59.48 173.70L48.92 170.55L41.14 178.84L43.92 190.29L54.47 193.44ZM92.21 268.42L89.44 256.98L78.90 253.82L71.12 262.10L73.89 273.53L84.44 276.70ZM42.27 264.06L39.49 252.62L28.95 249.47L21.19 257.75L23.97 269.18L34.51 272.33ZM23.97 269.18L21.19 257.75L10.65 254.60L2.90 262.88L5.68 274.31L16.21 277.46ZM115.55 243.59L112.79 232.14L102.23 228.98L94.45 237.26L97.22 248.70L107.77 251.87ZM97.22 248.70L94.45 237.26L83.90 234.10L76.12 242.38L78.90 253.82L89.44 256.98ZM120.57 223.86L117.80 212.41L107.25 209.25L99.46 217.53L102.23 228.98L112.79 232.14ZM102.23 228.98L99.46 217.53L88.91 214.37L81.13 222.65L83.90 234.10L94.45 237.26ZM128.87 258.21L126.11 246.76L115.55 243.59L107.77 251.87L110.54 263.31L121.09 266.48ZM110.54 263.31L107.77 251.87L97.22 248.70L89.44 256.98L92.21 268.42L102.76 271.59ZM133.89 238.48L131.13 227.03L120.57 223.86L112.79 232.14L115.55 243.59L126.11 246.76ZM229.44 65.05L226.68 53.56L216.09 50.38L208.26 58.69L211.02 70.17L221.61 73.35ZM211.02 70.17L208.26 58.69L197.66 55.51L189.84 63.82L192.60 75.30L203.19 78.48ZM234.52 45.25L231.76 33.76L221.16 30.58L213.32 38.89L216.09 50.38L226.68 53.56ZM216.09 50.38L213.32 38.89L202.73 35.71L194.90 44.02L197.66 55.51L208.26 58.69ZM242.79 79.72L240.03 68.23L229.44 65.05L221.61 73.35L224.37 84.84L234.96 88.02ZM224.37 84.84L221.61 73.35L211.02 70.17L203.19 78.48L205.95 89.96L216.54 93.14ZM247.87 59.93L245.11 48.43L234.52 45.25L226.68 53.56L229.44 65.05L240.03 68.23ZM179.25 60.64L176.48 49.16L165.90 45.99L158.08 54.30L160.85 65.78L171.43 68.95ZM160.85 65.78L158.08 54.30L147.49 51.13L139.68 59.44L142.45 70.92L153.03 74.09ZM184.31 40.85L181.54 29.36L170.95 26.19L163.13 34.50L165.90 45.99L176.48 49.16ZM165.90 45.99L163.13 34.50L152.54 31.34L144.72 39.65L147.49 51.13L158.08 54.30ZM192.60 75.30L189.84 63.82L179.25 60.64L171.43 68.95L174.20 80.43L184.78 83.61ZM174.20 80.43L171.43 68.95L160.85 65.78L153.03 74.09L155.80 85.56L166.38 88.74ZM197.66 55.51L194.90 44.02L184.31 40.85L176.48 49.16L179.25 60.64L189.84 63.82ZM258.04 20.32L255.28 8.82L244.68 5.63L236.83 13.95L239.59 25.45L250.19 28.63ZM239.59 25.45L236.83 13.95L226.23 10.77L218.39 19.08L221.16 30.58L231.76 33.76ZM263.13 0.50L260.37 -11.00L249.76 -14.18L241.91 -5.87L244.68 5.63L255.28 8.82ZM244.68 5.63L241.91 -5.87L231.31 -9.05L223.47 -0.73L226.23 10.77L236.83 13.95ZM271.40 35.00L268.64 23.51L258.04 20.32L250.19 28.63L252.95 40.13L263.55 43.31ZM252.95 40.13L250.19 28.63L239.59 25.45L231.76 33.76L234.52 45.25L245.11 48.43ZM276.49 15.19L273.73 3.69L263.13 0.50L255.28 8.82L258.04 20.32L268.64 23.51ZM207.80 15.91L205.03 4.41L194.43 1.24L186.60 9.56L189.37 21.05L199.96 24.22ZM189.37 21.05L186.60 9.56L176.00 6.38L168.18 14.70L170.95 26.19L181.54 29.36ZM212.87 -3.91L210.10 -15.40L199.50 -18.58L191.66 -10.26L194.43 1.24L205.03 4.41ZM194.43 1.24L191.66 -10.26L181.06 -13.43L173.23 -5.11L176.00 6.38L186.60 9.56ZM221.16 30.58L218.39 19.08L207.80 15.91L199.96 24.22L202.73 35.71L213.32 38.89ZM202.73 35.71L199.96 24.22L189.37 21.05L181.54 29.36L184.31 40.85L194.90 44.02ZM226.23 10.77L223.47 -0.73L212.87 -3.91L205.03 4.41L207.80 15.91L218.39 19.08ZM251.06 114.18L248.31 102.69L237.72 99.51L229.89 107.81L232.65 119.29L243.23 122.47ZM232.65 119.29L229.89 107.81L219.30 104.62L211.48 112.92L214.24 124.40L224.82 127.58ZM256.14 94.39L253.39 82.91L242.79 79.72L234.96 88.02L237.72 99.51L248.31 102.69ZM237.72 99.51L234.96 88.02L224.37 84.84L216.54 93.14L219.30 104.62L229.89 107.81ZM264.41 128.85L261.65 117.37L251.06 114.18L243.23 122.47L245.99 133.95L256.57 137.14ZM245.99 133.95L243.23 122.47L232.65 119.29L224.82 127.58L227.58 139.06L238.16 142.25ZM269.49 109.07L266.73 97.58L256.14 94.39L248.31 102.69L251.06 114.18L261.65 117.37ZM200.89 109.74L198.13 98.26L187.55 95.08L179.73 103.39L182.49 114.86L193.07 118.04ZM182.49 114.86L179.73 103.39L169.15 100.21L161.34 108.51L164.10 119.99L174.68 123.16ZM205.95 89.96L203.19 78.48L192.60 75.30L184.78 83.61L187.55 95.08L198.13 98.26ZM187.55 95.08L184.78 83.61L174.20 80.43L166.38 88.74L169.15 100.21L179.73 103.39ZM214.24 124.40L211.48 112.92L200.89 109.74L193.07 118.04L195.84 129.51L206.42 132.69ZM195.84 129.51L193.07 118.04L182.49 114.86L174.68 123.16L177.44 134.63L188.02 137.81ZM219.30 104.62L216.54 93.14L205.95 89.96L198.13 98.26L200.89 109.74L211.48 112.92ZM261.22 74.60L258.47 63.11L247.87 59.93L240.03 68.23L242.79 79.72L253.39 82.91ZM266.31 54.81L263.55 43.31L252.95 40.13L245.11 48.43L247.87 59.93L258.47 63.11ZM274.57 89.29L271.82 77.79L261.22 74.60L253.39 82.91L256.14 94.39L266.73 97.58ZM100.65 100.99L97.88 89.52L87.30 86.36L79.51 94.67L82.29 106.13L92.86 109.29ZM82.29 106.13L79.51 94.67L68.94 91.51L61.15 99.82L63.93 111.28L74.50 114.44ZM105.68 81.21L102.90 69.74L92.32 66.58L84.53 74.89L87.30 86.36L97.88 89.52ZM87.30 86.36L84.53 74.89L73.95 71.74L66.16 80.05L68.94 91.51L79.51 94.67ZM114.00 115.61L111.23 104.15L100.65 100.99L92.86 109.29L95.63 120.75L106.20 123.92ZM95.63 120.75L92.86 109.29L82.29 106.13L74.50 114.44L77.27 125.90L87.84 129.05ZM119.03 95.84L116.25 84.37L105.68 81.21L97.88 89.52L100.65 100.99L111.23 104.15ZM50.58 96.67L47.80 85.21L37.23 82.06L29.45 90.37L32.23 101.83L42.80 104.98ZM32.23 101.83L29.45 90.37L18.88 87.22L11.11 95.53L13.89 106.99L24.45 110.13ZM55.59 76.89L52.81 65.43L42.23 62.28L34.45 70.59L37.23 82.06L47.80 85.21ZM37.23 82.06L34.45 70.59L23.88 67.45L16.10 75.76L18.88 87.22L29.45 90.37ZM63.93 111.28L61.15 99.82L50.58 96.67L42.80 104.98L45.58 116.43L56.14 119.59ZM45.58 116.43L42.80 104.98L32.23 101.83L24.45 110.13L27.24 121.59L37.80 124.74ZM68.94 91.51L66.16 80.05L55.59 76.89L47.80 85.21L50.58 96.67L61.15 99.82ZM129.09 56.28L126.32 44.80L115.74 41.64L107.93 49.95L110.71 61.43L121.29 64.59ZM110.71 61.43L107.93 49.95L97.35 46.79L89.55 55.11L92.32 66.58L102.90 69.74ZM134.13 36.49L131.36 25.00L120.77 21.84L112.96 30.16L115.74 41.64L126.32 44.80ZM115.74 41.64L112.96 30.16L102.38 27.00L94.57 35.32L97.35 46.79L107.93 49.95ZM142.45 70.92L139.68 59.44L129.09 56.28L121.29 64.59L124.06 76.06L134.64 79.23ZM124.06 76.06L121.29 64.59L110.71 61.43L102.90 69.74L105.68 81.21L116.25 84.37ZM147.49 51.13L144.72 39.65L134.13 36.49L126.32 44.80L129.09 56.28L139.68 59.44ZM78.97 51.95L76.19 40.48L65.61 37.33L57.82 45.65L60.60 57.11L71.17 60.27ZM60.60 57.11L57.82 45.65L47.24 42.50L39.45 50.81L42.23 62.28L52.81 65.43ZM83.99 32.16L81.21 20.69L70.63 17.53L62.83 25.86L65.61 37.33L76.19 40.48ZM65.61 37.33L62.83 25.86L52.25 22.71L44.45 31.03L47.24 42.50L57.82 45.65ZM92.32 66.58L89.55 55.11L78.97 51.95L71.17 60.27L73.95 71.74L84.53 74.89ZM73.95 71.74L71.17 60.27L60.60 57.11L52.81 65.43L55.59 76.89L66.16 80.05ZM97.35 46.79L94.57 35.32L83.99 32.16L76.19 40.48L78.97 51.95L89.55 55.11ZM122.31 150.00L119.54 138.54L108.97 135.38L101.18 143.68L103.95 155.14L114.52 158.30ZM103.95 155.14L101.18 143.68L90.61 140.51L82.83 148.81L85.60 160.27L96.16 163.43ZM127.34 130.24L124.57 118.78L114.00 115.61L106.20 123.92L108.97 135.38L119.54 138.54ZM108.97 135.38L106.20 123.92L95.63 120.75L87.84 129.05L90.61 140.51L101.18 143.68ZM135.65 164.63L132.88 153.17L122.31 150.00L114.52 158.30L117.29 169.76L127.85 172.93ZM117.29 169.76L114.52 158.30L103.95 155.14L96.16 163.43L98.94 174.89L109.50 178.05ZM140.68 144.88L137.91 133.41L127.34 130.24L119.54 138.54L122.31 150.00L132.88 153.17ZM72.26 145.65L69.49 134.20L58.92 131.04L51.14 139.34L53.92 150.80L64.48 153.95ZM53.92 150.80L51.14 139.34L40.58 136.19L32.80 144.49L35.58 155.94L46.14 159.10ZM77.27 125.90L74.50 114.44L63.93 111.28L56.14 119.59L58.92 131.04L69.49 134.20ZM58.92 131.04L56.14 119.59L45.58 116.43L37.80 124.74L40.58 136.19L51.14 139.34ZM85.60 160.27L82.83 148.81L72.26 145.65L64.48 153.95L67.26 165.41L77.81 168.56ZM67.26 165.41L64.48 153.95L53.92 150.80L46.14 159.10L48.92 170.55L59.48 173.70ZM90.61 140.51L87.84 129.05L77.27 125.90L69.49 134.20L72.26 145.65L82.83 148.81ZM150.76 105.34L147.99 93.87L137.41 90.70L129.60 99.01L132.37 110.48L142.95 113.64ZM132.37 110.48L129.60 99.01L119.03 95.84L111.23 104.15L114.00 115.61L124.57 118.78ZM155.80 85.56L153.03 74.09L142.45 70.92L134.64 79.23L137.41 90.70L147.99 93.87ZM137.41 90.70L134.64 79.23L124.06 76.06L116.25 84.37L119.03 95.84L129.60 99.01ZM164.10 119.99L161.34 108.51L150.76 105.34L142.95 113.64L145.72 125.11L156.29 128.28ZM145.72 125.11L142.95 113.64L132.37 110.48L124.57 118.78L127.34 130.24L137.91 133.41ZM169.15 100.21L166.38 88.74L155.80 85.56L147.99 93.87L150.76 105.34L161.34 108.51ZM265.68 256.96L262.93 245.49L252.36 242.30L244.55 250.57L247.30 262.03L257.86 265.22ZM247.30 262.03L244.55 250.57L233.98 247.38L226.17 255.65L228.92 267.11L239.48 270.30ZM270.75 237.22L268.00 225.75L257.43 222.56L249.61 230.83L252.36 242.30L262.93 245.49ZM252.36 242.30L249.61 230.83L239.04 227.64L231.23 235.92L233.98 247.38L244.55 250.57ZM272.66 163.29L269.91 151.81L259.33 148.62L251.50 156.91L254.25 168.39L264.83 171.58ZM254.25 168.39L251.50 156.91L240.92 153.72L233.09 162.01L235.85 173.48L246.42 176.67ZM259.33 148.62L256.57 137.14L245.99 133.95L238.16 142.25L240.92 153.72L251.50 156.91ZM267.58 183.06L264.83 171.58L254.25 168.39L246.42 176.67L249.18 188.15L259.75 191.34ZM275.83 217.48L273.08 206.00L262.50 202.81L254.68 211.09L257.43 222.56L268.00 225.75ZM0.54 92.39L-2.25 80.93L-12.81 77.79L-20.58 86.11L-17.79 97.56L-7.23 100.70ZM5.53 72.62L2.74 61.16L-7.82 58.02L-15.60 66.34L-12.81 77.79L-2.25 80.93ZM13.89 106.99L11.11 95.53L0.54 92.39L-7.23 100.70L-4.44 112.15L6.12 115.30ZM18.88 87.22L16.10 75.76L5.53 72.62L-2.25 80.93L0.54 92.39L11.11 95.53ZM7.29 200.57L4.50 189.13L-6.04 185.98L-13.80 194.28L-11.02 205.71L-0.47 208.86ZM12.27 180.83L9.49 169.39L-1.06 166.24L-8.83 174.54L-6.04 185.98L4.50 189.13ZM22.24 141.34L19.46 129.89L8.90 126.75L1.13 135.05L3.92 146.50L14.47 149.65ZM3.92 146.50L1.13 135.05L-9.42 131.91L-17.19 140.21L-14.40 151.66L-3.85 154.80ZM27.24 121.59L24.45 110.13L13.89 106.99L6.12 115.30L8.90 126.75L19.46 129.89ZM8.90 126.75L6.12 115.30L-4.44 112.15L-12.21 120.46L-9.42 131.91L1.13 135.05ZM35.58 155.94L32.80 144.49L22.24 141.34L14.47 149.65L17.26 161.09L27.81 164.24ZM17.26 161.09L14.47 149.65L3.92 146.50L-3.85 154.80L-1.06 166.24L9.49 169.39ZM40.58 136.19L37.80 124.74L27.24 121.59L19.46 129.89L22.24 141.34L32.80 144.49ZM157.58 11.53L154.81 0.05L144.22 -3.12L136.40 5.20L139.17 16.69L149.76 19.85ZM139.17 16.69L136.40 5.20L125.81 2.04L117.99 10.36L120.77 21.84L131.36 25.00ZM162.64 -8.28L159.86 -19.77L149.27 -22.93L141.44 -14.61L144.22 -3.12L154.81 0.05ZM144.22 -3.12L141.44 -14.61L130.85 -17.77L123.03 -9.45L125.81 2.04L136.40 5.20ZM170.95 26.19L168.18 14.70L157.58 11.53L149.76 19.85L152.54 31.34L163.13 34.50ZM152.54 31.34L149.76 19.85L139.17 16.69L131.36 25.00L134.13 36.49L144.72 39.65ZM176.00 6.38L173.23 -5.11L162.64 -8.28L154.81 0.05L157.58 11.53L168.18 14.70ZM107.41 7.20L104.63 -4.28L94.04 -7.44L86.23 0.89L89.01 12.37L99.60 15.52ZM89.01 12.37L86.23 0.89L75.65 -2.27L67.84 6.06L70.63 17.53L81.21 20.69ZM94.04 -7.44L91.26 -18.92L80.67 -22.07L72.86 -13.75L75.65 -2.27L86.23 0.89ZM120.77 21.84L117.99 10.36L107.41 7.20L99.60 15.52L102.38 27.00L112.96 30.16ZM102.38 27.00L99.60 15.52L89.01 12.37L81.21 20.69L83.99 32.16L94.57 35.32ZM125.81 2.04L123.03 -9.45L112.44 -12.61L104.63 -4.28L107.41 7.20L117.99 10.36ZM7.15 -1.34L4.36 -12.81L-6.22 -15.95L-14.01 -7.62L-11.21 3.85L-0.64 6.98ZM20.51 13.27L17.73 1.80L7.15 -1.34L-0.64 6.98L2.15 18.45L12.73 21.59ZM2.15 18.45L-0.64 6.98L-11.21 3.85L-18.99 12.17L-16.20 23.64L-5.63 26.78ZM25.52 -6.53L22.73 -18.00L12.14 -21.15L4.36 -12.81L7.15 -1.34L17.73 1.80ZM28.88 47.67L26.09 36.20L15.52 33.06L7.73 41.38L10.52 52.84L21.09 55.99ZM10.52 52.84L7.73 41.38L-2.84 38.24L-10.62 46.56L-7.82 58.02L2.74 61.16ZM33.88 27.88L31.09 16.41L20.51 13.27L12.73 21.59L15.52 33.06L26.09 36.20ZM15.52 33.06L12.73 21.59L2.15 18.45L-5.63 26.78L-2.84 38.24L7.73 41.38ZM42.23 62.28L39.45 50.81L28.88 47.67L21.09 55.99L23.88 67.45L34.45 70.59ZM23.88 67.45L21.09 55.99L10.52 52.84L2.74 61.16L5.53 72.62L16.10 75.76ZM47.24 42.50L44.45 31.03L33.88 27.88L26.09 36.20L28.88 47.67L39.45 50.81ZM57.26 2.91L54.48 -8.57L43.89 -11.72L36.10 -3.39L38.88 8.09L49.46 11.23ZM38.88 8.09L36.10 -3.39L25.52 -6.53L17.73 1.80L20.51 13.27L31.09 16.41ZM70.63 17.53L67.84 6.06L57.26 2.91L49.46 11.23L52.25 22.71L62.83 25.86ZM52.25 22.71L49.46 11.23L38.88 8.09L31.09 16.41L33.88 27.88L44.45 31.03ZM75.65 -2.27L72.86 -13.75L62.28 -16.90L54.48 -8.57L57.26 2.91L67.84 6.06Z"/></svg>
