<svg xmlns="http://www.w3.org/2000/svg" width="256" height="256" viewBox="0 0 256 256"><path data-band="2" fill="#f97316" fill-opacity="0.35" d="M9.17 17.20L6.40 5.81L-4.09 2.65L-11.82 10.89L-9.05 22.28L1.45 25.43ZM14.13 -2.42L11.36 -13.82L0.86 -16.97L-6.87 -8.74L-4.09 2.65L6.40 5.81ZM17.48 51.37L14.71 39.98L4.22 36.82L-3.51 45.05L-0.74 56.43L9.75 59.59ZM22.43 31.75L19.67 20.36L9.17 17.20L1.45 25.43L4.22 36.82L14.71 39.98ZM4.22 36.82L1.45 25.43L-9.05 22.28L-16.77 30.51L-13.99 41.89L-3.51 45.05ZM30.73 65.92L27.97 54.53L17.48 51.37L9.75 59.59L12.52 70.98L23.01 74.14ZM12.52 70.98L9.75 59.59L-0.74 56.43L-8.45 64.66L-5.69 76.04L4.80 79.20ZM35.69 46.31L32.93 34.92L22.43 31.75L14.71 39.98L17.48 51.37L27.97 54.53ZM45.63 7.07L42.87 -4.33L32.36 -7.50L24.63 0.74L27.40 12.13L37.90 15.30ZM27.40 12.13L24.63 0.74L14.13 -2.42L6.40 5.81L9.17 17.20L19.67 20.36ZM32.36 -7.50L29.60 -18.89L19.09 -22.05L11.36 -13.82L14.13 -2.42L24.63 0.74ZM58.90 21.63L56.13 10.23L45.63 7.07L37.90 15.30L40.66 26.69L51.16 29.86ZM40.66 26.69L37.90 15.30L27.40 12.13L19.67 20.36L22.43 31.75L32.93 34.92ZM63.87 2.00L61.11 -9.40L50.60 -12.57L42.87 -4.33L45.63 7.07L56.13 10.23ZM88.70 104.55L85.95 93.16L75.46 89.98L67.72 98.20L70.48 109.58L80.97 112.76ZM70.48 109.58L67.72 98.20L57.23 95.03L49.51 103.24L52.27 114.62L62.75 117.79ZM93.69 84.94L90.93 73.55L80.43 70.38L72.70 78.59L75.46 89.98L85.95 93.16ZM75.46 89.98L72.70 78.59L62.21 75.42L54.47 83.64L57.23 95.03L67.72 98.20ZM101.95 119.11L99.20 107.72L88.70 104.55L80.97 112.76L83.73 124.14L94.21 127.32ZM83.73 124.14L80.97 112.76L70.48 109.58L62.75 117.79L65.51 129.17L75.99 132.35ZM106.93 99.51L104.18 88.12L93.69 84.94L85.95 93.16L88.70 104.55L99.20 107.72ZM39.02 100.07L36.26 88.69L25.77 85.52L18.05 93.74L20.81 105.12L31.30 108.28ZM20.81 105.12L18.05 93.74L7.57 90.58L-0.15 98.79L2.62 110.17L13.10 113.33ZM43.98 80.47L41.22 69.08L30.73 65.92L23.01 74.14L25.77 85.52L36.26 88.69ZM25.77 85.52L23.01 74.14L12.52 70.98L4.80 79.20L7.57 90.58L18.05 93.74ZM52.27 114.62L49.51 103.24L39.02 100.07L31.30 108.28L34.06 119.66L44.54 122.83ZM34.06 119.66L31.30 108.28L20.81 105.12L13.10 113.33L15.86 124.71L26.34 127.87ZM57.23 95.03L54.47 83.64L43.98 80.47L36.26 88.69L39.02 100.07L49.51 103.24ZM116.92 60.30L114.16 48.90L103.66 45.72L95.91 53.94L98.67 65.33L109.17 68.51ZM98.67 65.33L95.91 53.94L85.42 50.76L77.68 58.98L80.43 70.38L90.93 73.55ZM121.91 40.68L119.16 29.27L108.65 26.10L100.90 34.32L103.66 45.72L114.16 48.90ZM103.66 45.72L100.90 34.32L90.40 31.14L82.66 39.37L85.42 50.76L95.91 53.94ZM130.17 74.87L127.42 63.48L116.92 60.30L109.17 68.51L111.92 79.91L122.42 83.09ZM111.92 79.91L109.17 68.51L98.67 65.33L90.93 73.55L93.69 84.94L104.18 88.12ZM135.17 55.26L132.42 43.86L121.91 40.68L114.16 48.90L116.92 60.30L127.42 63.48ZM67.18 55.81L64.42 44.42L53.92 41.25L46.19 49.47L48.95 60.86L59.44 64.03ZM48.95 60.86L46.19 49.47L35.69 46.31L27.97 54.53L30.73 65.92L41.22 69.08ZM72.16 36.20L69.40 24.80L58.90 21.63L51.16 29.86L53.92 41.25L64.42 44.42ZM53.92 41.25L51.16 29.86L40.66 26.69L32.93 34.92L35.69 46.31L46.19 49.47ZM80.43 70.38L77.68 58.98L67.18 55.81L59.44 64.03L62.21 75.42L72.70 78.59ZM62.21 75.42L59.44 64.03L48.95 60.86L41.22 69.08L43.98 80.47L54.47 83.64ZM85.42 50.76L82.66 39.37L72.16 36.20L64.42 44.42L67.18 55.81L77.68 58.98ZM110.21 153.27L107.45 141.88L96.97 138.70L89.23 146.91L91.99 158.29L102.47 161.47ZM91.99 158.29L89.23 146.91L78.75 143.73L71.02 151.93L73.78 163.31L84.26 166.49ZM115.19 133.68L112.44 122.29L101.95 119.11L94.21 127.32L96.97 138.70L107.45 141.88ZM96.97 138.70L94.21 127.32L83.73 124.14L75.99 132.35L78.75 143.73L89.23 146.91ZM123.44 167.83L120.69 156.45L110.21 153.27L102.47 161.47L105.22 172.85L115.71 176.03ZM105.22 172.85L102.47 161.47L91.99 158.29L84.26 166.49L87.01 177.87L97.49 181.05ZM128.43 148.25L125.68 136.86L115.19 133.68L107.45 141.88L110.21 153.27L120.69 156.45ZM60.54 148.76L57.78 137.38L47.30 134.21L39.58 142.42L42.34 153.79L52.82 156.96ZM42.34 153.79L39.58 142.42L29.10 139.25L21.39 147.46L24.15 158.83L34.62 162.00ZM65.51 129.17L62.75 117.79L52.27 114.62L44.54 122.83L47.30 134.21L57.78 137.38ZM47.30 134.21L44.54 122.83L34.06 119.66L26.34 127.87L29.10 139.25L39.58 142.42ZM73.78 163.31L71.02 151.93L60.54 148.76L52.82 156.96L55.58 168.34L66.05 171.51ZM55.58 168.34L52.82 156.96L42.34 153.79L34.62 162.00L37.38 173.37L47.86 176.54ZM78.75 143.73L75.99 132.35L65.51 129.17L57.78 137.38L60.54 148.76L71.02 151.93ZM138.42 109.06L135.67 97.67L125.17 94.48L117.43 102.69L120.18 114.08L130.67 117.27ZM120.18 114.08L117.43 102.69L106.93 99.51L99.20 107.72L101.95 119.11L112.44 122.29ZM143.42 89.46L140.67 78.06L130.17 74.87L122.42 83.09L125.17 94.48L135.67 97.67ZM125.17 94.48L122.42 83.09L111.92 79.91L104.18 88.12L106.93 99.51L117.43 102.69ZM151.66 123.64L148.92 112.25L138.42 109.06L130.67 117.27L133.42 128.66L143.92 131.85ZM133.42 128.66L130.67 117.27L120.18 114.08L112.44 122.29L115.19 133.68L125.68 136.86ZM156.67 104.04L153.92 92.64L143.42 89.46L135.67 97.67L138.42 109.06L148.92 112.25ZM2.62 110.17L-0.15 98.79L-10.63 95.63L-18.34 103.85L-15.57 115.22L-5.10 118.38ZM7.57 90.58L4.80 79.20L-5.69 76.04L-13.40 84.26L-10.63 95.63L-0.15 98.79ZM1.02 183.44L-1.74 172.07L-12.21 168.91L-19.92 177.11L-17.15 188.47L-6.68 191.64ZM10.91 144.29L8.15 132.92L-2.33 129.76L-10.04 137.97L-7.27 149.34L3.20 152.50ZM15.86 124.71L13.10 113.33L2.62 110.17L-5.10 118.38L-2.33 129.76L8.15 132.92ZM24.15 158.83L21.39 147.46L10.91 144.29L3.20 152.50L5.96 163.87L16.44 167.03ZM5.96 163.87L3.20 152.50L-7.27 149.34L-14.98 157.54L-12.21 168.91L-1.74 172.07ZM29.10 139.25L26.34 127.87L15.86 124.71L8.15 132.92L10.91 144.29L21.39 147.46ZM145.18 16.01L142.42 4.60L131.91 1.42L124.16 9.64L126.91 21.05L137.42 24.23ZM126.91 21.05L124.16 9.64L113.65 6.47L105.89 14.69L108.65 26.10L119.16 29.27ZM150.19 -3.63L147.43 -15.04L136.92 -18.22L129.16 -9.99L131.91 1.42L142.42 4.60ZM131.91 1.42L129.16 -9.99L118.64 -13.17L110.89 -4.94L113.65 6.47L124.16 9.64ZM158.44 30.60L155.69 19.19L145.18 16.01L137.42 24.23L140.17 35.64L150.68 38.82ZM140.17 35.64L137.42 24.23L126.91 21.05L119.16 29.27L121.91 40.68L132.42 43.86ZM163.45 10.97L160.70 -0.44L150.19 -3.63L142.42 4.60L145.18 16.01L155.69 19.19ZM95.39 11.52L92.63 0.11L82.12 -3.06L74.38 5.17L77.14 16.57L87.64 19.74ZM77.14 16.57L74.38 5.17L63.87 2.00L56.13 10.23L58.90 21.63L69.40 24.80ZM100.38 -8.12L97.62 -19.52L87.11 -22.70L79.36 -14.46L82.12 -3.06L92.63 0.11ZM82.12 -3.06L79.36 -14.46L68.85 -17.63L61.11 -9.40L63.87 2.00L74.38 5.17ZM108.65 26.10L105.89 14.69L95.39 11.52L87.64 19.74L90.40 31.14L100.90 34.32ZM90.40 31.14L87.64 19.74L77.14 16.57L69.40 24.80L72.16 36.20L82.66 39.37ZM113.65 6.47L110.89 -4.94L100.38 -8.12L92.63 0.11L95.39 11.52L105.89 14.69ZM181.36 206.55L178.62 195.17L168.13 191.97L160.39 200.17L163.13 211.55L173.61 214.74ZM163.13 211.55L160.39 200.17L149.90 196.97L142.16 205.16L144.91 216.54L155.39 219.73ZM186.37 186.98L183.63 175.59L173.13 172.39L165.39 180.59L168.13 191.97L178.62 195.17ZM168.13 191.97L165.39 180.59L154.90 177.40L147.16 185.59L149.90 196.97L160.39 200.17ZM194.58 221.14L191.84 209.75L181.36 206.55L173.61 214.74L176.35 226.12L186.84 229.32ZM176.35 226.12L173.61 214.74L163.13 211.55L155.39 219.73L158.13 231.11L168.61 234.31ZM199.59 201.56L196.86 190.18L186.37 186.98L178.62 195.17L181.36 206.55L191.84 209.75ZM131.68 201.98L128.94 190.60L118.45 187.41L110.72 195.60L113.47 206.98L123.95 210.17ZM113.47 206.98L110.72 195.60L100.24 192.42L92.52 200.62L95.27 211.99L105.74 215.17ZM136.67 182.40L133.93 171.02L123.44 167.83L115.71 176.03L118.45 187.41L128.94 190.60ZM118.45 187.41L115.71 176.03L105.22 172.85L97.49 181.05L100.24 192.42L110.72 195.60ZM144.91 216.54L142.16 205.16L131.68 201.98L123.95 210.17L126.70 221.54L137.17 224.73ZM126.70 221.54L123.95 210.17L113.47 206.98L105.74 215.17L108.49 226.54L118.97 229.73ZM149.90 196.97L147.16 185.59L136.67 182.40L128.94 190.60L131.68 201.98L142.16 205.16ZM209.63 162.40L206.89 151.00L196.39 147.81L188.64 156.00L191.38 167.40L201.87 170.59ZM191.38 167.40L188.64 156.00L178.14 152.81L170.39 161.01L173.13 172.39L183.63 175.59ZM214.65 142.81L211.91 131.41L201.41 128.21L193.65 136.41L196.39 147.81L206.89 151.00ZM196.39 147.81L193.65 136.41L183.15 133.21L175.40 141.42L178.14 152.81L188.64 156.00ZM222.86 176.99L220.12 165.60L209.63 162.40L201.87 170.59L204.61 181.99L215.10 185.19ZM204.61 181.99L201.87 170.59L191.38 167.40L183.63 175.59L186.37 186.98L196.86 190.18ZM227.89 157.41L225.15 146.01L214.65 142.81L206.89 151.00L209.63 162.40L220.12 165.60ZM159.90 157.81L157.16 146.42L146.66 143.24L138.92 151.44L141.67 162.82L152.16 166.01ZM141.67 162.82L138.92 151.44L128.43 148.25L120.69 156.45L123.44 167.83L133.93 171.02ZM164.90 138.22L162.16 126.83L151.66 123.64L143.92 131.85L146.66 143.24L157.16 146.42ZM146.66 143.24L143.92 131.85L133.42 128.66L125.68 136.86L128.43 148.25L138.92 151.44ZM173.13 172.39L170.39 161.01L159.90 157.81L152.16 166.01L154.90 177.40L165.39 180.59ZM154.90 177.40L152.16 166.01L141.67 162.82L133.93 171.02L136.67 182.40L147.16 185.59ZM178.14 152.81L175.40 141.42L164.90 138.22L157.16 146.42L159.90 157.81L170.39 161.01ZM202.79 255.28L200.06 243.90L189.57 240.70L181.83 248.88L184.57 260.26L195.05 263.46ZM184.57 260.26L181.83 248.88L171.35 245.68L163.61 253.87L166.35 265.24L176.83 268.44ZM207.80 235.72L205.07 224.34L194.58 221.14L186.84 229.32L189.57 240.70L200.06 243.90ZM189.57 240.70L186.84 229.32L176.35 226.12L168.61 234.31L171.35 245.68L181.83 248.88ZM216.01 269.86L213.27 258.48L202.79 255.28L195.05 263.46L197.78 274.84L208.26 278.04ZM221.02 250.31L218.29 238.92L207.80 235.72L200.06 243.90L202.79 255.28L213.27 258.48ZM153.14 250.67L150.39 239.30L139.92 236.11L132.19 244.29L134.93 255.66L145.40 258.85ZM134.93 255.66L132.19 244.29L121.71 241.10L113.98 249.29L116.73 260.65L127.20 263.84ZM158.13 231.11L155.39 219.73L144.91 216.54L137.17 224.73L139.92 236.11L150.39 239.30ZM139.92 236.11L137.17 224.73L126.70 221.54L118.97 229.73L121.71 241.10L132.19 244.29ZM166.35 265.24L163.61 253.87L153.14 250.67L145.40 258.85L148.14 270.22L158.62 273.42ZM148.14 270.22L145.40 258.85L134.93 255.66L127.20 263.84L129.95 275.21L140.42 278.40ZM171.35 245.68L168.61 234.31L158.13 231.11L150.39 239.30L153.14 250.67L163.61 253.87ZM231.06 211.17L228.33 199.78L217.84 196.58L210.08 204.76L212.82 216.15L223.31 219.36ZM212.82 216.15L210.08 204.76L199.59 201.56L191.84 209.75L194.58 221.14L205.07 224.34ZM236.09 191.59L233.36 180.20L222.86 176.99L215.10 185.19L217.84 196.58L228.33 199.78ZM217.84 196.58L215.10 185.19L204.61 181.99L196.86 190.18L199.59 201.56L210.08 204.76ZM226.04 230.74L223.31 219.36L212.82 216.15L205.07 224.34L207.80 235.72L218.29 238.92ZM249.32 206.19L246.59 194.80L236.09 191.59L228.33 199.78L231.06 211.17L241.56 214.38ZM53.92 241.57L51.17 230.20L40.70 227.03L32.99 235.22L35.75 246.58L46.21 249.75ZM35.75 246.58L32.99 235.22L22.53 232.05L14.83 240.24L17.58 251.60L28.04 254.77ZM58.88 222.01L56.13 210.65L45.66 207.47L37.94 215.67L40.70 227.03L51.17 230.20ZM40.70 227.03L37.94 215.67L27.48 212.50L19.77 220.69L22.53 232.05L32.99 235.22ZM67.14 256.11L64.39 244.74L53.92 241.57L46.21 249.75L48.97 261.11L59.43 264.29ZM48.97 261.11L46.21 249.75L35.75 246.58L28.04 254.77L30.80 266.13L41.26 269.30ZM72.10 236.56L69.35 225.19L58.88 222.01L51.17 230.20L53.92 241.57L64.39 244.74ZM4.36 237.07L1.60 225.72L-8.86 222.55L-16.56 230.75L-13.79 242.10L-3.33 245.26ZM9.31 217.52L6.54 206.16L-3.92 203.00L-11.62 211.19L-8.86 222.55L1.60 225.72ZM17.58 251.60L14.83 240.24L4.36 237.07L-3.33 245.26L-0.57 256.62L9.88 259.79ZM22.53 232.05L19.77 220.69L9.31 217.52L1.60 225.72L4.36 237.07L14.83 240.24ZM82.04 197.44L79.29 186.06L68.81 182.89L61.09 191.08L63.84 202.45L74.32 205.63ZM63.84 202.45L61.09 191.08L50.61 187.91L42.90 196.11L45.66 207.47L56.13 210.65ZM87.01 177.87L84.26 166.49L73.78 163.31L66.05 171.51L68.81 182.89L79.29 186.06ZM68.81 182.89L66.05 171.51L55.58 168.34L47.86 176.54L50.61 187.91L61.09 191.08ZM95.27 211.99L92.52 200.62L82.04 197.44L74.32 205.63L77.07 217.00L87.54 220.18ZM77.07 217.00L74.32 205.63L63.84 202.45L56.13 210.65L58.88 222.01L69.35 225.19ZM100.24 192.42L97.49 181.05L87.01 177.87L79.29 186.06L82.04 197.44L92.52 200.62ZM32.43 192.94L29.67 181.57L19.20 178.40L11.49 186.60L14.25 197.96L24.72 201.13ZM14.25 197.96L11.49 186.60L1.02 183.44L-6.68 191.64L-3.92 203.00L6.54 206.16ZM37.38 173.37L34.62 162.00L24.15 158.83L16.44 167.03L19.20 178.40L29.67 181.57ZM19.20 178.40L16.44 167.03L5.96 163.87L-1.74 172.07L1.02 183.44L11.49 186.60ZM45.66 207.47L42.90 196.11L32.43 192.94L24.72 201.13L27.48 212.50L37.94 215.67ZM27.48 212.50L24.72 201.13L14.25 197.96L6.54 206.16L9.31 217.52L19.77 220.69ZM50.61 187.91L47.86 176.54L37.38 173.37L29.67 181.57L32.43 192.94L42.90 196.11ZM30.80 266.13L28.04 254.77L17.58 251.60L9.88 259.79L12.64 271.14L23.10 274.31ZM103.51 246.10L100.77 234.73L90.29 231.55L82.57 239.74L85.32 251.10L95.79 254.28ZM85.32 251.10L82.57 239.74L72.10 236.56L64.39 244.74L67.14 256.11L77.61 259.29ZM108.49 226.54L105.74 215.17L95.27 211.99L87.54 220.18L90.29 231.55L100.77 234.73ZM90.29 231.55L87.54 220.18L77.07 217.00L69.35 225.19L72.10 236.56L82.57 239.74ZM116.73 260.65L113.98 249.29L103.51 246.10L95.79 254.28L98.54 265.65L109.01 268.83ZM98.54 265.65L95.79 254.28L85.32 251.10L77.61 259.29L80.36 270.65L90.82 273.83ZM121.71 241.10L118.97 229.73L108.49 226.54L100.77 234.73L103.51 246.10L113.98 249.29ZM234.24 264.90L231.51 253.51L221.02 250.31L213.27 258.48L216.01 269.86L226.49 273.07ZM239.26 245.33L236.53 233.95L226.04 230.74L218.29 238.92L221.02 250.31L231.51 253.51ZM276.42 34.72L273.68 23.29L263.16 20.09L255.37 28.31L258.11 39.73L268.63 42.93ZM216.48 69.38L213.74 57.97L203.23 54.77L195.46 62.99L198.21 74.39L208.72 77.59ZM198.21 74.39L195.46 62.99L184.95 59.79L177.19 68.01L179.94 79.41L190.44 82.60ZM221.52 49.75L218.77 38.34L208.26 35.14L200.49 43.36L203.23 54.77L213.74 57.97ZM203.23 54.77L200.49 43.36L189.97 40.17L182.21 48.39L184.95 59.79L195.46 62.99ZM229.74 83.99L227.00 72.58L216.48 69.38L208.72 77.59L211.46 89.00L221.96 92.19ZM211.46 89.00L208.72 77.59L198.21 74.39L190.44 82.60L193.19 94.01L203.69 97.20ZM234.77 64.37L232.03 52.95L221.52 49.75L213.74 57.97L216.48 69.38L227.00 72.58ZM166.68 64.82L163.94 53.41L153.43 50.23L145.67 58.44L148.42 69.84L158.93 73.03ZM148.42 69.84L145.67 58.44L135.17 55.26L127.42 63.48L130.17 74.87L140.67 78.06ZM171.70 45.20L168.95 33.79L158.44 30.60L150.68 38.82L153.43 50.23L163.94 53.41ZM153.43 50.23L150.68 38.82L140.17 35.64L132.42 43.86L135.17 55.26L145.67 58.44ZM179.94 79.41L177.19 68.01L166.68 64.82L158.93 73.03L161.67 84.43L172.18 87.62ZM161.67 84.43L158.93 73.03L148.42 69.84L140.67 78.06L143.42 89.46L153.92 92.64ZM184.95 59.79L182.21 48.39L171.70 45.20L163.94 53.41L166.68 64.82L177.19 68.01ZM244.85 25.10L242.11 13.68L231.59 10.48L223.81 18.70L226.55 30.12L237.07 33.32ZM226.55 30.12L223.81 18.70L213.29 15.51L205.51 23.73L208.26 35.14L218.77 38.34ZM249.90 5.46L247.16 -5.96L236.63 -9.16L228.85 -0.94L231.59 10.48L242.11 13.68ZM231.59 10.48L228.85 -0.94L218.32 -4.13L210.55 4.09L213.29 15.51L223.81 18.70ZM258.11 39.73L255.37 28.31L244.85 25.10L237.07 33.32L239.81 44.74L250.33 47.94ZM239.81 44.74L237.07 33.32L226.55 30.12L218.77 38.34L221.52 49.75L232.03 52.95ZM263.16 20.09L260.42 8.67L249.90 5.46L242.11 13.68L244.85 25.10L255.37 28.31ZM195.00 20.54L192.25 9.12L181.73 5.93L173.97 14.15L176.71 25.57L187.23 28.76ZM176.71 25.57L173.97 14.15L163.45 10.97L155.69 19.19L158.44 30.60L168.95 33.79ZM200.02 0.90L197.28 -10.52L186.76 -13.71L178.99 -5.48L181.73 5.93L192.25 9.12ZM181.73 5.93L178.99 -5.48L168.47 -8.67L160.70 -0.44L163.45 10.97L173.97 14.15ZM208.26 35.14L205.51 23.73L195.00 20.54L187.23 28.76L189.97 40.17L200.49 43.36ZM189.97 40.17L187.23 28.76L176.71 25.57L168.95 33.79L171.70 45.20L182.21 48.39ZM213.29 15.51L210.55 4.09L200.02 0.90L192.25 9.12L195.00 20.54L205.51 23.73ZM237.95 118.21L235.21 106.80L224.70 103.60L216.94 111.80L219.68 123.21L230.18 126.41ZM219.68 123.21L216.94 111.80L206.43 108.61L198.67 116.81L201.41 128.21L211.91 131.41ZM242.98 98.60L240.25 87.19L229.74 83.99L221.96 92.19L224.70 103.60L235.21 106.80ZM224.70 103.60L221.96 92.19L211.46 89.00L203.69 97.20L206.43 108.61L216.94 111.80ZM251.19 132.82L248.45 121.41L237.95 118.21L230.18 126.41L232.92 137.81L243.42 141.01ZM232.92 137.81L230.18 126.41L219.68 123.21L211.91 131.41L214.65 142.81L225.15 146.01ZM256.23 113.21L253.49 101.80L242.98 98.60L235.21 106.80L237.95 118.21L248.45 121.41ZM188.17 113.61L185.42 102.21L174.92 99.02L167.17 107.23L169.91 118.63L180.41 121.82ZM169.91 118.63L167.17 107.23L156.67 104.04L148.92 112.25L151.66 123.64L162.16 126.83ZM193.19 94.01L190.44 82.60L179.94 79.41L172.18 87.62L174.92 99.02L185.42 102.21ZM174.92 99.02L172.18 87.62L161.67 84.43L153.92 92.64L156.67 104.04L167.17 107.23ZM201.41 128.21L198.67 116.81L188.17 113.61L180.41 121.82L183.15 133.21L193.65 136.41ZM183.15 133.21L180.41 121.82L169.91 118.63L162.16 126.83L164.90 138.22L175.40 141.42ZM206.43 108.61L203.69 97.20L193.19 94.01L185.42 102.21L188.17 113.61L198.67 116.81ZM266.32 73.98L263.58 62.56L253.06 59.36L245.29 67.57L248.02 78.98L258.54 82.19ZM248.02 78.98L245.29 67.57L234.77 64.37L227.00 72.58L229.74 83.99L240.25 87.19ZM271.37 54.35L268.63 42.93L258.11 39.73L250.33 47.94L253.06 59.36L263.58 62.56ZM253.06 59.36L250.33 47.94L239.81 44.74L232.03 52.95L234.77 64.37L245.29 67.57ZM261.27 93.60L258.54 82.19L248.02 78.98L240.25 87.19L242.98 98.60L253.49 101.80ZM268.21 0.44L265.47 -10.98L254.94 -14.19L247.16 -5.96L249.90 5.46L260.42 8.67ZM218.32 -4.13L215.58 -15.56L205.06 -18.75L197.28 -10.52L200.02 0.90L210.55 4.09ZM259.39 167.02L256.66 155.62L246.15 152.42L238.39 160.61L241.12 172.01L251.62 175.21ZM241.12 172.01L238.39 160.61L227.89 157.41L220.12 165.60L222.86 176.99L233.36 180.20ZM264.43 147.43L261.70 136.02L251.19 132.82L243.42 141.01L246.15 152.42L256.66 155.62ZM246.15 152.42L243.42 141.01L232.92 137.81L225.15 146.01L227.89 157.41L238.39 160.61ZM254.35 186.61L251.62 175.21L241.12 172.01L233.36 180.20L236.09 191.59L246.59 194.80ZM269.47 127.83L266.74 116.42L256.23 113.21L248.45 121.41L251.19 132.82L261.70 136.02ZM274.52 108.22L271.78 96.81L261.27 93.60L253.49 101.80L256.23 113.21L266.74 116.42Z"/><path data-band="3" fill="#dc2626" fill-opacity="0.35" d="M244.29 225.77L241.56 214.38L231.06 211.17L223.31 219.36L226.04 230.74L236.53 233.95ZM252.48 259.93L249.75 248.54L239.26 245.33L231.51 253.51L234.24 264.90L244.72 268.10ZM257.51 240.37L254.78 228.98L244.29 225.77L236.53 233.95L239.26 245.33L249.75 248.54ZM270.72 254.97L268.00 243.58L257.51 240.37L249.75 248.54L252.48 259.93L262.96 263.14ZM272.62 181.63L269.89 170.23L259.39 167.02L251.62 175.21L254.35 186.61L264.85 189.82ZM262.54 220.80L259.81 209.40L249.32 206.19L241.56 214.38L244.29 225.77L254.78 228.98ZM267.58 201.22L264.85 189.82L254.35 186.61L246.59 194.80L249.32 206.19L259.81 209.40ZM275.76 235.40L273.04 224.01L262.54 220.80L254.78 228.98L257.51 240.37L268.00 243.58Z"/></svg>
