<svg xmlns="http://www.w3.org/2000/svg" width="256" height="256" viewBox="0 0 256 256"><path data-band="2" fill="#f97316" fill-opacity="0.35" d="M114.83 21.34L112.10 10.02L101.67 6.82L93.98 14.96L96.72 26.28L107.14 29.47ZM137.93 -3.05L135.19 -14.39L124.76 -17.59L117.06 -9.45L119.79 1.88L130.23 5.08ZM119.79 1.88L117.06 -9.45L106.63 -12.64L98.93 -4.51L101.67 6.82L112.10 10.02ZM83.55 11.76L80.81 0.44L70.39 -2.75L62.70 5.39L65.44 16.71L75.87 19.90ZM65.44 16.71L62.70 5.39L52.28 2.20L44.60 10.34L47.34 21.66L57.76 24.84ZM88.50 -7.70L85.76 -19.03L75.33 -22.21L67.64 -14.07L70.39 -2.75L80.81 0.44ZM70.39 -2.75L67.64 -14.07L57.22 -17.26L49.53 -9.12L52.28 2.20L62.70 5.39ZM96.72 26.28L93.98 14.96L83.55 11.76L75.87 19.90L78.61 31.22L89.03 34.41ZM78.61 31.22L75.87 19.90L65.44 16.71L57.76 24.84L60.51 36.16L70.92 39.35ZM101.67 6.82L98.93 -4.51L88.50 -7.70L80.81 0.44L83.55 11.76L93.98 14.96ZM4.66 123.77L1.91 112.47L-8.49 109.29L-16.14 117.41L-13.39 128.70L-3.00 131.88ZM12.89 157.65L10.14 146.36L-0.25 143.18L-7.90 151.29L-5.16 162.58L5.23 165.76ZM17.80 138.24L15.06 126.95L4.66 123.77L-3.00 131.88L-0.25 143.18L10.14 146.36ZM2.92 -2.38L0.17 -13.69L-10.25 -16.87L-17.92 -8.72L-15.16 2.59L-4.75 5.76ZM6.25 51.01L3.50 39.70L-6.91 36.52L-14.57 44.65L-11.82 55.96L-1.42 59.14ZM11.17 31.56L8.42 20.25L-2.00 17.08L-9.66 25.21L-6.91 36.52L3.50 39.70ZM19.40 65.49L16.66 54.19L6.25 51.01L-1.42 59.14L1.33 70.44L11.74 73.62ZM1.33 70.44L-1.42 59.14L-11.82 55.96L-19.48 64.09L-16.73 75.39L-6.33 78.57ZM24.33 46.06L21.58 34.74L11.17 31.56L3.50 39.70L6.25 51.01L16.66 54.19ZM34.18 7.16L31.43 -4.16L21.01 -7.34L13.34 0.80L16.09 12.12L26.50 15.29ZM16.09 12.12L13.34 0.80L2.92 -2.38L-4.75 5.76L-2.00 17.08L8.42 20.25ZM21.01 -7.34L18.26 -18.66L7.84 -21.84L0.17 -13.69L2.92 -2.38L13.34 0.80ZM47.34 21.66L44.60 10.34L34.18 7.16L26.50 15.29L29.25 26.61L39.67 29.79ZM29.25 26.61L26.50 15.29L16.09 12.12L8.42 20.25L11.17 31.56L21.58 34.74ZM52.28 2.20L49.53 -9.12L39.11 -12.30L31.43 -4.16L34.18 7.16L44.60 10.34ZM47.36 220.48L44.63 209.19L34.24 206.00L26.59 214.10L29.32 225.38L39.71 228.57ZM29.32 225.38L26.59 214.10L16.20 210.91L8.55 219.01L11.29 230.30L21.68 233.48ZM6.39 249.67L3.65 238.39L-6.73 235.21L-14.37 243.31L-11.63 254.58L-1.25 257.76ZM11.29 230.30L8.55 219.01L-1.83 215.83L-9.47 223.93L-6.73 235.21L3.65 238.39ZM21.11 191.52L18.37 180.23L7.98 177.05L0.33 185.16L3.07 196.44L13.46 199.63ZM3.07 196.44L0.33 185.16L-10.06 181.98L-17.70 190.08L-14.96 201.37L-4.57 204.55ZM26.02 172.13L23.28 160.83L12.89 157.65L5.23 165.76L7.98 177.05L18.37 180.23ZM7.98 177.05L5.23 165.76L-5.16 162.58L-12.80 170.69L-10.06 181.98L0.33 185.16ZM34.24 206.00L31.50 194.71L21.11 191.52L13.46 199.63L16.20 210.91L26.59 214.10ZM16.20 210.91L13.46 199.63L3.07 196.44L-4.57 204.55L-1.83 215.83L8.55 219.01ZM39.15 186.61L36.42 175.31L26.02 172.13L18.37 180.23L21.11 191.52L31.50 194.71ZM19.51 264.13L16.77 252.86L6.39 249.67L-1.25 257.76L1.49 269.04L11.86 272.22ZM1.49 269.04L-1.25 257.76L-11.63 254.58L-19.26 262.67L-16.52 273.95L-6.15 277.13ZM76.94 104.04L74.20 92.73L63.79 89.54L56.12 97.66L58.85 108.97L69.26 112.16ZM58.85 108.97L56.12 97.66L45.71 94.47L38.04 102.59L40.78 113.90L51.19 117.09ZM81.88 84.61L79.14 73.30L68.72 70.11L61.05 78.23L63.79 89.54L74.20 92.73ZM63.79 89.54L61.05 78.23L50.64 75.04L42.97 83.17L45.71 94.47L56.12 97.66ZM72.00 123.46L69.26 112.16L58.85 108.97L51.19 117.09L53.93 128.39L64.33 131.58ZM95.03 99.12L92.29 87.80L81.88 84.61L74.20 92.73L76.94 104.04L87.35 107.23ZM27.63 99.41L24.89 88.11L14.48 84.92L6.82 93.05L9.57 104.35L19.97 107.53ZM9.57 104.35L6.82 93.05L-3.58 89.87L-11.23 97.99L-8.49 109.29L1.91 112.47ZM32.56 79.98L29.81 68.67L19.40 65.49L11.74 73.62L14.48 84.92L24.89 88.11ZM14.48 84.92L11.74 73.62L1.33 70.44L-6.33 78.57L-3.58 89.87L6.82 93.05ZM40.78 113.90L38.04 102.59L27.63 99.41L19.97 107.53L22.72 118.83L33.12 122.01ZM22.72 118.83L19.97 107.53L9.57 104.35L1.91 112.47L4.66 123.77L15.06 126.95ZM45.71 94.47L42.97 83.17L32.56 79.98L24.89 88.11L27.63 99.41L38.04 102.59ZM86.82 65.17L84.08 53.86L73.66 50.67L65.99 58.79L68.72 70.11L79.14 73.30ZM109.88 40.80L107.14 29.47L96.72 26.28L89.03 34.41L91.77 45.73L102.19 48.92ZM91.77 45.73L89.03 34.41L78.61 31.22L70.92 39.35L73.66 50.67L84.08 53.86ZM55.57 55.61L52.83 44.29L42.41 41.11L34.74 49.24L37.48 60.55L47.90 63.73ZM37.48 60.55L34.74 49.24L24.33 46.06L16.66 54.19L19.40 65.49L29.81 68.67ZM60.51 36.16L57.76 24.84L47.34 21.66L39.67 29.79L42.41 41.11L52.83 44.29ZM42.41 41.11L39.67 29.79L29.25 26.61L21.58 34.74L24.33 46.06L34.74 49.24ZM68.72 70.11L65.99 58.79L55.57 55.61L47.90 63.73L50.64 75.04L61.05 78.23ZM50.64 75.04L47.90 63.73L37.48 60.55L29.81 68.67L32.56 79.98L42.97 83.17ZM73.66 50.67L70.92 39.35L60.51 36.16L52.83 44.29L55.57 55.61L65.99 58.79ZM49.00 147.80L46.26 136.50L35.86 133.32L28.20 141.43L30.94 152.72L41.34 155.91ZM30.94 152.72L28.20 141.43L17.80 138.24L10.14 146.36L12.89 157.65L23.28 160.83ZM53.93 128.39L51.19 117.09L40.78 113.90L33.12 122.01L35.86 133.32L46.26 136.50ZM35.86 133.32L33.12 122.01L22.72 118.83L15.06 126.95L17.80 138.24L28.20 141.43ZM62.14 162.29L59.40 150.99L49.00 147.80L41.34 155.91L44.07 167.21L54.47 170.40ZM44.07 167.21L41.34 155.91L30.94 152.72L23.28 160.83L26.02 172.13L36.42 175.31ZM67.07 142.88L64.33 131.58L53.93 128.39L46.26 136.50L49.00 147.80L59.40 150.99Z"/><path data-band="3" fill="#dc2626" fill-opacity="0.35" d="M273.22 -3.47L270.50 -14.82L260.05 -18.04L252.32 -9.91L255.04 1.43L265.49 4.65ZM255.04 1.43L252.32 -9.91L241.87 -13.13L234.15 -5.00L236.87 6.34L247.31 9.56ZM205.54 -3.30L202.81 -14.64L192.37 -17.85L184.65 -9.71L187.38 1.63L197.82 4.83ZM132.96 16.41L130.23 5.08L119.79 1.88L112.10 10.02L114.83 21.34L125.26 24.54ZM146.12 30.94L143.39 19.61L132.96 16.41L125.26 24.54L127.99 35.87L138.42 39.07ZM127.99 35.87L125.26 24.54L114.83 21.34L107.14 29.47L109.88 40.80L120.30 43.99ZM151.09 11.48L148.36 0.15L137.93 -3.05L130.23 5.08L132.96 16.41L143.39 19.61ZM156.07 -7.99L153.33 -19.33L142.90 -22.53L135.19 -14.39L137.93 -3.05L148.36 0.15ZM246.32 166.68L243.60 155.36L233.18 152.13L225.48 160.24L228.19 171.55L238.61 174.78ZM228.19 171.55L225.48 160.24L215.06 157.02L207.36 165.12L210.07 176.43L220.49 179.65ZM251.31 147.26L248.60 135.93L238.17 132.71L230.47 140.81L233.18 152.13L243.60 155.36ZM233.18 152.13L230.47 140.81L220.04 137.59L212.34 145.70L215.06 157.02L225.48 160.24ZM259.45 181.22L256.74 169.90L246.32 166.68L238.61 174.78L241.32 186.09L251.74 189.32ZM241.32 186.09L238.61 174.78L228.19 171.55L220.49 179.65L223.20 190.97L233.62 194.19ZM264.45 161.81L261.74 150.48L251.31 147.26L243.60 155.36L246.32 166.68L256.74 169.90ZM274.46 122.95L271.75 111.61L261.32 108.39L253.60 116.50L256.31 127.83L266.74 131.05ZM256.31 127.83L253.60 116.50L243.17 113.27L235.46 121.38L238.17 132.71L248.60 135.93ZM261.32 108.39L258.60 97.06L248.17 93.83L240.46 101.94L243.17 113.27L253.60 116.50ZM269.45 142.38L266.74 131.05L256.31 127.83L248.60 135.93L251.31 147.26L261.74 150.48ZM267.58 215.18L264.87 203.86L254.45 200.64L246.75 208.73L249.46 220.04L259.87 223.27ZM249.46 220.04L246.75 208.73L236.33 205.50L228.63 213.59L231.34 224.91L241.75 228.13ZM272.58 195.77L269.87 184.45L259.45 181.22L251.74 189.32L254.45 200.64L264.87 203.86ZM254.45 200.64L251.74 189.32L241.32 186.09L233.62 194.19L236.33 205.50L246.75 208.73ZM262.58 234.58L259.87 223.27L249.46 220.04L241.75 228.13L244.46 239.44L254.87 242.67ZM168.89 205.60L166.17 194.30L155.77 191.09L148.08 199.19L150.81 210.49L161.21 213.70ZM150.81 210.49L148.08 199.19L137.68 195.98L130.00 204.08L132.73 215.38L143.13 218.58ZM173.86 186.20L171.14 174.89L160.73 171.68L153.04 179.78L155.77 191.09L166.17 194.30ZM155.77 191.09L153.04 179.78L142.64 176.58L134.95 184.68L137.68 195.98L148.08 199.19ZM182.02 220.12L179.30 208.82L168.89 205.60L161.21 213.70L163.93 225.00L174.33 228.21ZM163.93 225.00L161.21 213.70L150.81 210.49L143.13 218.58L145.85 229.88L156.25 233.09ZM186.99 200.72L184.27 189.41L173.86 186.20L166.17 194.30L168.89 205.60L179.30 208.82ZM119.60 200.87L116.87 189.57L106.47 186.37L98.80 194.47L101.53 205.77L111.93 208.97ZM101.53 205.77L98.80 194.47L88.40 191.27L80.74 199.37L83.47 210.67L93.86 213.87ZM124.55 181.47L121.82 170.17L111.42 166.97L103.74 175.07L106.47 186.37L116.87 189.57ZM106.47 186.37L103.74 175.07L93.34 171.87L85.67 179.98L88.40 191.27L98.80 194.47ZM132.73 215.38L130.00 204.08L119.60 200.87L111.93 208.97L114.66 220.27L125.05 223.47ZM114.66 220.27L111.93 208.97L101.53 205.77L93.86 213.87L96.59 225.16L106.99 228.36ZM137.68 195.98L134.95 184.68L124.55 181.47L116.87 189.57L119.60 200.87L130.00 204.08ZM196.94 161.90L194.22 150.59L183.80 147.37L176.11 155.48L178.83 166.79L189.24 170.00ZM178.83 166.79L176.11 155.48L165.69 152.27L158.01 160.37L160.73 171.68L171.14 174.89ZM201.92 142.48L199.20 131.16L188.78 127.95L181.08 136.06L183.80 147.37L194.22 150.59ZM183.80 147.37L181.08 136.06L170.66 132.85L162.97 140.95L165.69 152.27L176.11 155.48ZM210.07 176.43L207.36 165.12L196.94 161.90L189.24 170.00L191.96 181.32L202.38 184.53ZM191.96 181.32L189.24 170.00L178.83 166.79L171.14 174.89L173.86 186.20L184.27 189.41ZM215.06 157.02L212.34 145.70L201.92 142.48L194.22 150.59L196.94 161.90L207.36 165.12ZM147.59 157.16L144.87 145.85L134.46 142.65L126.77 150.76L129.50 162.06L139.91 165.27ZM129.50 162.06L126.77 150.76L116.36 147.56L108.69 155.66L111.42 166.97L121.82 170.17ZM152.56 137.75L149.83 126.43L139.41 123.23L131.73 131.34L134.46 142.65L144.87 145.85ZM134.46 142.65L131.73 131.34L121.32 128.14L113.63 136.25L116.36 147.56L126.77 150.76ZM160.73 171.68L158.01 160.37L147.59 157.16L139.91 165.27L142.64 176.58L153.04 179.78ZM142.64 176.58L139.91 165.27L129.50 162.06L121.82 170.17L124.55 181.47L134.95 184.68ZM165.69 152.27L162.97 140.95L152.56 137.75L144.87 145.85L147.59 157.16L158.01 160.37ZM190.17 254.03L187.46 242.73L177.05 239.52L169.37 247.60L172.09 258.90L182.49 262.12ZM172.09 258.90L169.37 247.60L158.97 244.39L151.29 252.48L154.02 263.77L164.41 266.99ZM195.14 234.64L192.43 223.34L182.02 220.12L174.33 228.21L177.05 239.52L187.46 242.73ZM177.05 239.52L174.33 228.21L163.93 225.00L156.25 233.09L158.97 244.39L169.37 247.60ZM203.29 268.55L200.57 257.25L190.17 254.03L182.49 262.12L185.20 273.41L195.60 276.63ZM208.26 249.17L205.55 237.86L195.14 234.64L187.46 242.73L190.17 254.03L200.57 257.25ZM140.90 249.27L138.18 237.97L127.78 234.77L120.11 242.86L122.83 254.15L133.23 257.36ZM122.83 254.15L120.11 242.86L109.71 239.65L102.05 247.74L104.77 259.03L115.17 262.24ZM145.85 229.88L143.13 218.58L132.73 215.38L125.05 223.47L127.78 234.77L138.18 237.97ZM127.78 234.77L125.05 223.47L114.66 220.27L106.99 228.36L109.71 239.65L120.11 242.86ZM154.02 263.77L151.29 252.48L140.90 249.27L133.23 257.36L135.95 268.65L146.34 271.86ZM135.95 268.65L133.23 257.36L122.83 254.15L115.17 262.24L117.89 273.53L128.28 276.73ZM158.97 244.39L156.25 233.09L145.85 229.88L138.18 237.97L140.90 249.27L151.29 252.48ZM218.22 210.37L215.50 199.06L205.09 195.84L197.40 203.94L200.12 215.25L210.52 218.46ZM200.12 215.25L197.40 203.94L186.99 200.72L179.30 208.82L182.02 220.12L192.43 223.34ZM223.20 190.97L220.49 179.65L210.07 176.43L202.38 184.53L205.09 195.84L215.50 199.06ZM205.09 195.84L202.38 184.53L191.96 181.32L184.27 189.41L186.99 200.72L197.40 203.94ZM231.34 224.91L228.63 213.59L218.22 210.37L210.52 218.46L213.24 229.77L223.65 232.99ZM213.24 229.77L210.52 218.46L200.12 215.25L192.43 223.34L195.14 234.64L205.55 237.86ZM236.33 205.50L233.62 194.19L223.20 190.97L215.50 199.06L218.22 210.37L228.63 213.59ZM263.19 35.47L260.47 24.13L250.03 20.91L242.31 29.03L245.02 40.37L255.46 43.59ZM268.20 16.00L265.49 4.65L255.04 1.43L247.31 9.56L250.03 20.91L260.47 24.13ZM276.35 50.04L273.63 38.69L263.19 35.47L255.46 43.59L258.18 54.93L268.62 58.15ZM203.73 69.63L201.00 58.30L190.57 55.09L182.87 63.21L185.59 74.54L196.02 77.75ZM185.59 74.54L182.87 63.21L172.44 60.00L164.73 68.13L167.46 79.45L177.89 82.66ZM208.71 50.18L205.99 38.85L195.56 35.64L187.85 43.76L190.57 55.09L201.00 58.30ZM190.57 55.09L187.85 43.76L177.41 40.55L169.71 48.68L172.44 60.00L182.87 63.21ZM216.88 84.18L214.16 72.85L203.73 69.63L196.02 77.75L198.74 89.08L209.17 92.29ZM198.74 89.08L196.02 77.75L185.59 74.54L177.89 82.66L180.61 93.98L191.04 97.19ZM221.87 64.73L219.15 53.40L208.71 50.18L201.00 58.30L203.73 69.63L214.16 72.85ZM154.31 64.92L151.58 53.59L141.15 50.39L133.46 58.52L136.19 69.84L146.61 73.04ZM136.19 69.84L133.46 58.52L123.03 55.32L115.34 63.44L118.08 74.76L128.50 77.96ZM159.28 45.47L156.55 34.14L146.12 30.94L138.42 39.07L141.15 50.39L151.58 53.59ZM141.15 50.39L138.42 39.07L127.99 35.87L120.30 43.99L123.03 55.32L133.46 58.52ZM167.46 79.45L164.73 68.13L154.31 64.92L146.61 73.04L149.34 84.36L159.76 87.57ZM149.34 84.36L146.61 73.04L136.19 69.84L128.50 77.96L131.23 89.28L141.65 92.48ZM172.44 60.00L169.71 48.68L159.28 45.47L151.58 53.59L154.31 64.92L164.73 68.13ZM231.86 25.81L229.14 14.47L218.70 11.26L210.98 19.38L213.71 30.72L224.14 33.94ZM213.71 30.72L210.98 19.38L200.54 16.17L192.83 24.30L195.56 35.64L205.99 38.85ZM236.87 6.34L234.15 -5.00L223.70 -8.22L215.98 -0.08L218.70 11.26L229.14 14.47ZM218.70 11.26L215.98 -0.08L205.54 -3.30L197.82 4.83L200.54 16.17L210.98 19.38ZM245.02 40.37L242.31 29.03L231.86 25.81L224.14 33.94L226.87 45.28L237.30 48.49ZM226.87 45.28L224.14 33.94L213.71 30.72L205.99 38.85L208.71 50.18L219.15 53.40ZM250.03 20.91L247.31 9.56L236.87 6.34L229.14 14.47L231.86 25.81L242.31 29.03ZM182.40 21.09L179.67 9.76L169.23 6.55L161.53 14.68L164.25 26.01L174.69 29.22ZM164.25 26.01L161.53 14.68L151.09 11.48L143.39 19.61L146.12 30.94L156.55 34.14ZM187.38 1.63L184.65 -9.71L174.21 -12.92L166.50 -4.79L169.23 6.55L179.67 9.76ZM169.23 6.55L166.50 -4.79L156.07 -7.99L148.36 0.15L151.09 11.48L161.53 14.68ZM195.56 35.64L192.83 24.30L182.40 21.09L174.69 29.22L177.41 40.55L187.85 43.76ZM177.41 40.55L174.69 29.22L164.25 26.01L156.55 34.14L159.28 45.47L169.71 48.68ZM200.54 16.17L197.82 4.83L187.38 1.63L179.67 9.76L182.40 21.09L192.83 24.30ZM225.03 118.16L222.31 106.84L211.89 103.62L204.18 111.73L206.90 123.05L217.33 126.27ZM206.90 123.05L204.18 111.73L193.76 108.52L186.06 116.63L188.78 127.95L199.20 131.16ZM230.03 98.73L227.31 87.40L216.88 84.18L209.17 92.29L211.89 103.62L222.31 106.84ZM211.89 103.62L209.17 92.29L198.74 89.08L191.04 97.19L193.76 108.52L204.18 111.73ZM238.17 132.71L235.46 121.38L225.03 118.16L217.33 126.27L220.04 137.59L230.47 140.81ZM220.04 137.59L217.33 126.27L206.90 123.05L199.20 131.16L201.92 142.48L212.34 145.70ZM243.17 113.27L240.46 101.94L230.03 98.73L222.31 106.84L225.03 118.16L235.46 121.38ZM175.64 113.42L172.91 102.10L162.49 98.89L154.80 107.00L157.52 118.32L167.94 121.53ZM157.52 118.32L154.80 107.00L144.38 103.80L136.69 111.91L139.41 123.23L149.83 126.43ZM180.61 93.98L177.89 82.66L167.46 79.45L159.76 87.57L162.49 98.89L172.91 102.10ZM162.49 98.89L159.76 87.57L149.34 84.36L141.65 92.48L144.38 103.80L154.80 107.00ZM188.78 127.95L186.06 116.63L175.64 113.42L167.94 121.53L170.66 132.85L181.08 136.06ZM170.66 132.85L167.94 121.53L157.52 118.32L149.83 126.43L152.56 137.75L162.97 140.95ZM193.76 108.52L191.04 97.19L180.61 93.98L172.91 102.10L175.64 113.42L186.06 116.63ZM253.17 74.39L250.46 63.05L240.02 59.83L232.30 67.95L235.02 79.28L245.46 82.50ZM235.02 79.28L232.30 67.95L221.87 64.73L214.16 72.85L216.88 84.18L227.31 87.40ZM258.18 54.93L255.46 43.59L245.02 40.37L237.30 48.49L240.02 59.83L250.46 63.05ZM240.02 59.83L237.30 48.49L226.87 45.28L219.15 53.40L221.87 64.73L232.30 67.95ZM266.32 88.95L263.61 77.61L253.17 74.39L245.46 82.50L248.17 93.83L258.60 97.06ZM248.17 93.83L245.46 82.50L235.02 79.28L227.31 87.40L230.03 98.73L240.46 101.94ZM271.33 69.49L268.62 58.15L258.18 54.93L250.46 63.05L253.17 74.39L263.61 77.61ZM270.70 268.52L267.99 257.21L257.58 253.98L249.88 262.06L252.59 273.36L263.00 276.59ZM275.70 249.13L272.99 237.81L262.58 234.58L254.87 242.67L257.58 253.98L267.99 257.21ZM239.48 258.83L236.77 247.52L226.36 244.30L218.67 252.39L221.38 263.69L231.78 266.91ZM221.38 263.69L218.67 252.39L208.26 249.17L200.57 257.25L203.29 268.55L213.69 271.77ZM244.46 239.44L241.75 228.13L231.34 224.91L223.65 232.99L226.36 244.30L236.77 247.52ZM226.36 244.30L223.65 232.99L213.24 229.77L205.55 237.86L208.26 249.17L218.67 252.39ZM257.58 253.98L254.87 242.67L244.46 239.44L236.77 247.52L239.48 258.83L249.88 262.06ZM42.45 239.86L39.71 228.57L29.32 225.38L21.68 233.48L24.41 244.76L34.80 247.95ZM24.41 244.76L21.68 233.48L11.29 230.30L3.65 238.39L6.39 249.67L16.77 252.86ZM55.57 254.33L52.83 243.05L42.45 239.86L34.80 247.95L37.53 259.23L47.91 262.42ZM37.53 259.23L34.80 247.95L24.41 244.76L16.77 252.86L19.51 264.13L29.89 267.32ZM60.49 234.96L57.75 223.67L47.36 220.48L39.71 228.57L42.45 239.86L52.83 243.05ZM70.34 196.18L67.61 184.88L57.21 181.69L49.55 189.80L52.28 201.09L62.68 204.28ZM52.28 201.09L49.55 189.80L39.15 186.61L31.50 194.71L34.24 206.00L44.63 209.19ZM75.27 176.78L72.54 165.48L62.14 162.29L54.47 170.40L57.21 181.69L67.61 184.88ZM57.21 181.69L54.47 170.40L44.07 167.21L36.42 175.31L39.15 186.61L49.55 189.80ZM83.47 210.67L80.74 199.37L70.34 196.18L62.68 204.28L65.41 215.57L75.80 218.77ZM65.41 215.57L62.68 204.28L52.28 201.09L44.63 209.19L47.36 220.48L57.75 223.67ZM88.40 191.27L85.67 179.98L75.27 176.78L67.61 184.88L70.34 196.18L80.74 199.37ZM68.68 268.81L65.95 257.53L55.57 254.33L47.91 262.42L50.65 273.70L61.03 276.90ZM91.66 244.54L88.93 233.25L78.54 230.06L70.88 238.15L73.61 249.44L84.00 252.64ZM73.61 249.44L70.88 238.15L60.49 234.96L52.83 243.05L55.57 254.33L65.95 257.53ZM96.59 225.16L93.86 213.87L83.47 210.67L75.80 218.77L78.54 230.06L88.93 233.25ZM78.54 230.06L75.80 218.77L65.41 215.57L57.75 223.67L60.49 234.96L70.88 238.15ZM104.77 259.03L102.05 247.74L91.66 244.54L84.00 252.64L86.72 263.92L97.11 267.12ZM86.72 263.92L84.00 252.64L73.61 249.44L65.95 257.53L68.68 268.81L79.07 272.01ZM109.71 239.65L106.99 228.36L96.59 225.16L88.93 233.25L91.66 244.54L102.05 247.74ZM90.08 118.54L87.35 107.23L76.94 104.04L69.26 112.16L72.00 123.46L82.41 126.66ZM104.92 60.24L102.19 48.92L91.77 45.73L84.08 53.86L86.82 65.17L97.24 68.37ZM118.08 74.76L115.34 63.44L104.92 60.24L97.24 68.37L99.97 79.68L110.39 82.88ZM99.97 79.68L97.24 68.37L86.82 65.17L79.14 73.30L81.88 84.61L92.29 87.80ZM123.03 55.32L120.30 43.99L109.88 40.80L102.19 48.92L104.92 60.24L115.34 63.44ZM98.28 152.46L95.55 141.16L85.14 137.96L77.47 146.07L80.20 157.38L90.61 160.57ZM80.20 157.38L77.47 146.07L67.07 142.88L59.40 150.99L62.14 162.29L72.54 165.48ZM103.22 133.05L100.49 121.74L90.08 118.54L82.41 126.66L85.14 137.96L95.55 141.16ZM85.14 137.96L82.41 126.66L72.00 123.46L64.33 131.58L67.07 142.88L77.47 146.07ZM111.42 166.97L108.69 155.66L98.28 152.46L90.61 160.57L93.34 171.87L103.74 175.07ZM93.34 171.87L90.61 160.57L80.20 157.38L72.54 165.48L75.27 176.78L85.67 179.98ZM116.36 147.56L113.63 136.25L103.22 133.05L95.55 141.16L98.28 152.46L108.69 155.66ZM126.27 108.71L123.54 97.40L113.12 94.20L105.44 102.31L108.17 113.63L118.59 116.82ZM108.17 113.63L105.44 102.31L95.03 99.12L87.35 107.23L90.08 118.54L100.49 121.74ZM131.23 89.28L128.50 77.96L118.08 74.76L110.39 82.88L113.12 94.20L123.54 97.40ZM113.12 94.20L110.39 82.88L99.97 79.68L92.29 87.80L95.03 99.12L105.44 102.31ZM139.41 123.23L136.69 111.91L126.27 108.71L118.59 116.82L121.32 128.14L131.73 131.34ZM121.32 128.14L118.59 116.82L108.17 113.63L100.49 121.74L103.22 133.05L113.63 136.25ZM144.38 103.80L141.65 92.48L131.23 89.28L123.54 97.40L126.27 108.71L136.69 111.91Z"/></svg>
