<svg xmlns="http://www.w3.org/2000/svg" width="256" height="256" viewBox="0 0 256 256"><path data-band="2" fill="#f97316" fill-opacity="0.35" d="M273.17 264.07L270.48 252.80L260.11 249.56L252.44 257.59L255.13 268.86L265.50 272.10ZM255.13 268.86L252.44 257.59L242.07 254.36L234.40 262.39L237.10 273.66L247.46 276.89ZM6.39 -6.33L3.65 -17.61L-6.73 -20.79L-14.37 -12.69L-11.63 -1.42L-1.25 1.76ZM45.73 37.07L43.00 25.79L32.62 22.60L24.98 30.69L27.71 41.96L38.09 45.15ZM58.84 51.54L56.11 40.26L45.73 37.07L38.09 45.15L40.82 56.43L51.20 59.62ZM14.60 27.50L11.86 16.22L1.49 13.04L-6.15 21.13L-3.41 32.40L6.96 35.59ZM19.51 8.13L16.77 -3.14L6.39 -6.33L-1.25 1.76L1.49 13.04L11.86 16.22ZM1.49 13.04L-1.25 1.76L-11.63 -1.42L-19.26 6.67L-16.52 17.95L-6.15 21.13ZM27.71 41.96L24.98 30.69L14.60 27.50L6.96 35.59L9.70 46.86L20.07 50.04ZM9.70 46.86L6.96 35.59L-3.41 32.40L-11.04 40.49L-8.30 51.75L2.07 54.94ZM32.62 22.60L29.89 11.32L19.51 8.13L11.86 16.22L14.60 27.50L24.98 30.69ZM99.71 220.53L96.99 209.27L86.63 206.07L78.99 214.12L81.72 225.37L92.07 228.58ZM81.72 225.37L78.99 214.12L68.64 210.91L61.01 218.96L63.73 230.21L74.08 233.42ZM104.63 201.22L101.91 189.96L91.55 186.76L83.91 194.81L86.63 206.07L96.99 209.27ZM86.63 206.07L83.91 194.81L73.55 191.61L65.92 199.66L68.64 210.91L78.99 214.12ZM112.78 234.99L110.06 223.74L99.71 220.53L92.07 228.58L94.79 239.83L105.14 243.04ZM94.79 239.83L92.07 228.58L81.72 225.37L74.08 233.42L76.80 244.67L87.15 247.87ZM117.70 215.69L114.99 204.43L104.63 201.22L96.99 209.27L99.71 220.53L110.06 223.74ZM50.66 215.76L47.93 204.51L37.58 201.31L29.96 209.37L32.68 220.62L43.03 223.81ZM32.68 220.62L29.96 209.37L19.61 206.17L11.99 214.23L14.72 225.47L25.06 228.66ZM55.56 196.46L52.84 185.20L42.48 182.01L34.85 190.06L37.58 201.31L47.93 204.51ZM37.58 201.31L34.85 190.06L24.50 186.87L16.88 194.92L19.61 206.17L29.96 209.37ZM63.73 230.21L61.01 218.96L50.66 215.76L43.03 223.81L45.76 235.06L56.11 238.26ZM45.76 235.06L43.03 223.81L32.68 220.62L25.06 228.66L27.79 239.91L38.14 243.11ZM68.64 210.91L65.92 199.66L55.56 196.46L47.93 204.51L50.66 215.76L61.01 218.96ZM127.56 177.06L124.85 165.80L114.48 162.59L106.83 170.64L109.55 181.91L119.92 185.12ZM109.55 181.91L106.83 170.64L96.47 167.44L88.83 175.49L91.55 186.76L101.91 189.96ZM132.50 157.74L129.78 146.47L119.41 143.26L111.76 151.32L114.48 162.59L124.85 165.80ZM114.48 162.59L111.76 151.32L101.39 148.11L93.75 156.17L96.47 167.44L106.83 170.64ZM140.65 191.54L137.93 180.28L127.56 177.06L119.92 185.12L122.63 196.38L133.00 199.59ZM122.63 196.38L119.92 185.12L109.55 181.91L101.91 189.96L104.63 201.22L114.99 204.43ZM145.58 172.22L142.87 160.95L132.50 157.74L124.85 165.80L127.56 177.06L137.93 180.28ZM78.46 172.29L75.74 161.03L65.38 157.83L57.74 165.89L60.47 177.15L70.83 180.35ZM60.47 177.15L57.74 165.89L47.38 162.69L39.75 170.75L42.48 182.01L52.84 185.20ZM83.38 152.97L80.66 141.71L70.29 138.50L62.65 146.57L65.38 157.83L75.74 161.03ZM65.38 157.83L62.65 146.57L52.29 143.37L44.66 151.43L47.38 162.69L57.74 165.89ZM91.55 186.76L88.83 175.49L78.46 172.29L70.83 180.35L73.55 191.61L83.91 194.81ZM73.55 191.61L70.83 180.35L60.47 177.15L52.84 185.20L55.56 196.46L65.92 199.66ZM96.47 167.44L93.75 156.17L83.38 152.97L75.74 161.03L78.46 172.29L88.83 175.49ZM120.92 268.75L118.21 257.50L107.86 254.29L100.22 262.33L102.94 273.58L113.29 276.79ZM125.85 249.46L123.14 238.21L112.78 234.99L105.14 243.04L107.86 254.29L118.21 257.50ZM107.86 254.29L105.14 243.04L94.79 239.83L87.15 247.87L89.87 259.12L100.22 262.33ZM138.92 263.93L136.21 252.68L125.85 249.46L118.21 257.50L120.92 268.75L131.28 271.97ZM71.90 263.96L69.18 252.71L58.83 249.51L51.20 257.55L53.93 268.79L64.27 272.00ZM53.93 268.79L51.20 257.55L40.86 254.35L33.24 262.39L35.97 273.63L46.31 276.83ZM76.80 244.67L74.08 233.42L63.73 230.21L56.11 238.26L58.83 249.51L69.18 252.71ZM58.83 249.51L56.11 238.26L45.76 235.06L38.14 243.11L40.86 254.35L51.20 257.55ZM89.87 259.12L87.15 247.87L76.80 244.67L69.18 252.71L71.90 263.96L82.24 267.16ZM148.79 225.33L146.07 214.07L135.71 210.86L128.06 218.90L130.78 230.16L141.14 233.38ZM130.78 230.16L128.06 218.90L117.70 215.69L110.06 223.74L112.78 234.99L123.14 238.21ZM153.72 206.02L151.01 194.76L140.65 191.54L133.00 199.59L135.71 210.86L146.07 214.07ZM135.71 210.86L133.00 199.59L122.63 196.38L114.99 204.43L117.70 215.69L128.06 218.90ZM161.86 239.81L159.15 228.55L148.79 225.33L141.14 233.38L143.85 244.63L154.21 247.85ZM143.85 244.63L141.14 233.38L130.78 230.16L123.14 238.21L125.85 249.46L136.21 252.68ZM166.80 220.51L164.09 209.24L153.72 206.02L146.07 214.07L148.79 225.33L159.15 228.55ZM1.64 211.03L-1.09 199.79L-11.44 196.60L-19.05 204.66L-16.32 215.90L-5.97 219.09ZM6.53 191.73L3.80 180.48L-6.55 177.29L-14.17 185.35L-11.44 196.60L-1.09 199.79ZM14.72 225.47L11.99 214.23L1.64 211.03L-5.97 219.09L-3.24 230.33L7.10 233.52ZM19.61 206.17L16.88 194.92L6.53 191.73L-1.09 199.79L1.64 211.03L11.99 214.23ZM22.90 259.20L20.17 247.96L9.83 244.76L2.22 252.81L4.95 264.05L15.29 267.24ZM4.95 264.05L2.22 252.81L-8.12 249.62L-15.73 257.66L-13.00 268.90L-2.66 272.09ZM27.79 239.91L25.06 228.66L14.72 225.47L7.10 233.52L9.83 244.76L20.17 247.96ZM9.83 244.76L7.10 233.52L-3.24 230.33L-10.85 238.38L-8.12 249.62L2.22 252.81ZM40.86 254.35L38.14 243.11L27.79 239.91L20.17 247.96L22.90 259.20L33.24 262.39ZM85.05 80.49L82.33 69.21L71.95 66.01L64.30 74.09L67.03 85.36L77.40 88.56ZM67.03 85.36L64.30 74.09L53.93 70.89L46.28 78.97L49.01 90.24L59.38 93.44ZM80.13 99.83L77.40 88.56L67.03 85.36L59.38 93.44L62.11 104.70L72.48 107.90ZM150.53 152.90L147.81 141.62L137.44 138.41L129.78 146.47L132.50 157.74L142.87 160.95ZM106.32 128.78L103.60 117.51L93.23 114.31L85.58 122.37L88.30 133.64L98.67 136.85ZM88.30 133.64L85.58 122.37L75.21 119.17L67.57 127.24L70.29 138.50L80.66 141.71ZM93.23 114.31L90.50 103.03L80.13 99.83L72.48 107.90L75.21 119.17L85.58 122.37ZM119.41 143.26L116.69 131.99L106.32 128.78L98.67 136.85L101.39 148.11L111.76 151.32ZM101.39 148.11L98.67 136.85L88.30 133.64L80.66 141.71L83.38 152.97L93.75 156.17ZM8.11 119.34L5.38 108.08L-4.98 104.89L-12.61 112.96L-9.87 124.22L0.49 127.41ZM13.01 100.00L10.27 88.74L-0.09 85.55L-7.72 93.63L-4.98 104.89L5.38 108.08ZM21.21 133.79L18.47 122.53L8.11 119.34L0.49 127.41L3.22 138.66L13.58 141.85ZM3.22 138.66L0.49 127.41L-9.87 124.22L-17.49 132.29L-14.76 143.54L-4.40 146.73ZM26.10 114.46L23.37 103.19L13.01 100.00L5.38 108.08L8.11 119.34L18.47 122.53ZM35.91 75.78L33.18 64.51L22.81 61.32L15.17 69.40L17.91 80.66L28.27 83.85ZM17.91 80.66L15.17 69.40L4.80 66.21L-2.83 74.29L-0.09 85.55L10.27 88.74ZM40.82 56.43L38.09 45.15L27.71 41.96L20.07 50.04L22.81 61.32L33.18 64.51ZM22.81 61.32L20.07 50.04L9.70 46.86L2.07 54.94L4.80 66.21L15.17 69.40ZM49.01 90.24L46.28 78.97L35.91 75.78L28.27 83.85L31.01 95.12L41.37 98.31ZM31.01 95.12L28.27 83.85L17.91 80.66L10.27 88.74L13.01 100.00L23.37 103.19ZM53.93 70.89L51.20 59.62L40.82 56.43L33.18 64.51L35.91 75.78L46.28 78.97ZM4.80 66.21L2.07 54.94L-8.30 51.75L-15.93 59.84L-13.20 71.10L-2.83 74.29ZM29.40 167.56L26.67 156.30L16.31 153.11L8.69 161.17L11.42 172.42L21.77 175.62ZM11.42 172.42L8.69 161.17L-1.67 157.98L-9.29 166.04L-6.55 177.29L3.80 180.48ZM34.30 148.24L31.57 136.98L21.21 133.79L13.58 141.85L16.31 153.11L26.67 156.30ZM16.31 153.11L13.58 141.85L3.22 138.66L-4.40 146.73L-1.67 157.98L8.69 161.17ZM42.48 182.01L39.75 170.75L29.40 167.56L21.77 175.62L24.50 186.87L34.85 190.06ZM24.50 186.87L21.77 175.62L11.42 172.42L3.80 180.48L6.53 191.73L16.88 194.92ZM47.38 162.69L44.66 151.43L34.30 148.24L26.67 156.30L29.40 167.56L39.75 170.75ZM57.20 124.04L54.47 112.77L44.10 109.58L36.47 117.65L39.20 128.91L49.56 132.11ZM39.20 128.91L36.47 117.65L26.10 114.46L18.47 122.53L21.21 133.79L31.57 136.98ZM62.11 104.70L59.38 93.44L49.01 90.24L41.37 98.31L44.10 109.58L54.47 112.77ZM44.10 109.58L41.37 98.31L31.01 95.12L23.37 103.19L26.10 114.46L36.47 117.65ZM70.29 138.50L67.57 127.24L57.20 124.04L49.56 132.11L52.29 143.37L62.65 146.57ZM52.29 143.37L49.56 132.11L39.20 128.91L31.57 136.98L34.30 148.24L44.66 151.43ZM75.21 119.17L72.48 107.90L62.11 104.70L54.47 112.77L57.20 124.04L67.57 127.24ZM224.03 259.16L221.33 247.90L210.97 244.67L203.31 252.70L206.01 263.97L216.37 267.20ZM206.01 263.97L203.31 252.70L192.94 249.48L185.29 257.52L187.99 268.78L198.35 272.00ZM174.93 254.29L172.22 243.03L161.86 239.81L154.21 247.85L156.92 259.11L167.28 262.33ZM156.92 259.11L154.21 247.85L143.85 244.63L136.21 252.68L138.92 263.93L149.27 267.15ZM187.99 268.78L185.29 257.52L174.93 254.29L167.28 262.33L169.98 273.59L180.34 276.81ZM220.89 206.04L218.19 194.77L207.81 191.54L200.15 199.59L202.85 210.86L213.22 214.09ZM176.69 181.87L173.98 170.60L163.61 167.38L155.95 175.44L158.67 186.71L169.03 189.93ZM158.67 186.71L155.95 175.44L145.58 172.22L137.93 180.28L140.65 191.54L151.01 194.76ZM163.61 167.38L160.90 156.11L150.53 152.90L142.87 160.95L145.58 172.22L155.95 175.44ZM189.77 196.37L187.07 185.10L176.69 181.87L169.03 189.93L171.75 201.19L182.11 204.41ZM171.75 201.19L169.03 189.93L158.67 186.71L151.01 194.76L153.72 206.02L164.09 209.24ZM247.04 235.05L244.34 223.78L233.97 220.55L226.30 228.59L229.00 239.86L239.37 243.09ZM229.00 239.86L226.30 228.59L215.93 225.36L208.26 233.40L210.97 244.67L221.33 247.90ZM233.97 220.55L231.26 209.27L220.89 206.04L213.22 214.09L215.93 225.36L226.30 228.59ZM260.11 249.56L257.41 238.29L247.04 235.05L239.37 243.09L242.07 254.36L252.44 257.59ZM242.07 254.36L239.37 243.09L229.00 239.86L221.33 247.90L224.03 259.16L234.40 262.39ZM265.08 230.25L262.39 218.97L252.01 215.74L244.34 223.78L247.04 235.05L257.41 238.29ZM197.90 230.17L195.19 218.91L184.82 215.68L177.16 223.73L179.87 234.99L190.24 238.21ZM179.87 234.99L177.16 223.73L166.80 220.51L159.15 228.55L161.86 239.81L172.22 243.03ZM202.85 210.86L200.15 199.59L189.77 196.37L182.11 204.41L184.82 215.68L195.19 218.91ZM184.82 215.68L182.11 204.41L171.75 201.19L164.09 209.24L166.80 220.51L177.16 223.73ZM210.97 244.67L208.26 233.40L197.90 230.17L190.24 238.21L192.94 249.48L203.31 252.70ZM192.94 249.48L190.24 238.21L179.87 234.99L172.22 243.03L174.93 254.29L185.29 257.52ZM215.93 225.36L213.22 214.09L202.85 210.86L195.19 218.91L197.90 230.17L208.26 233.40Z"/><path data-band="3" fill="#dc2626" fill-opacity="0.35" d="M190.17 -1.97L187.46 -13.27L177.05 -16.48L169.37 -8.40L172.09 2.90L182.49 6.12ZM172.09 2.90L169.37 -8.40L158.97 -11.61L151.29 -3.52L154.02 7.77L164.41 10.99ZM203.29 12.55L200.57 1.25L190.17 -1.97L182.49 6.12L185.20 17.41L195.60 20.63ZM185.20 17.41L182.49 6.12L172.09 2.90L164.41 10.99L167.13 22.28L177.52 25.49ZM208.26 -6.83L205.55 -18.14L195.14 -21.36L187.46 -13.27L190.17 -1.97L200.57 1.25ZM140.90 -6.73L138.18 -18.03L127.78 -21.23L120.11 -13.14L122.83 -1.85L133.23 1.36ZM122.83 -1.85L120.11 -13.14L109.71 -16.35L102.05 -8.26L104.77 3.03L115.17 6.24ZM154.02 7.77L151.29 -3.52L140.90 -6.73L133.23 1.36L135.95 12.65L146.34 15.86ZM135.95 12.65L133.23 1.36L122.83 -1.85L115.17 6.24L117.89 17.53L128.28 20.73ZM260.71 51.28L258.00 39.97L247.60 36.75L239.91 44.82L242.62 56.12L253.02 59.35ZM242.62 56.12L239.91 44.82L229.51 41.59L221.82 49.67L224.53 60.96L234.93 64.19ZM265.70 31.90L263.00 20.59L252.59 17.36L244.89 25.44L247.60 36.75L258.00 39.97ZM247.60 36.75L244.89 25.44L234.49 22.22L226.80 30.29L229.51 41.59L239.91 44.82ZM273.82 65.81L271.11 54.51L260.71 51.28L253.02 59.35L255.72 70.65L266.12 73.88ZM255.72 70.65L253.02 59.35L242.62 56.12L234.93 64.19L237.64 75.49L248.03 78.71ZM211.43 46.45L208.71 35.15L198.32 31.93L190.64 40.01L193.35 51.30L203.74 54.52ZM193.35 51.30L190.64 40.01L180.24 36.79L172.56 44.87L175.28 56.16L185.67 59.37ZM216.40 27.07L213.69 15.77L203.29 12.55L195.60 20.63L198.32 31.93L208.71 35.15ZM198.32 31.93L195.60 20.63L185.20 17.41L177.52 25.49L180.24 36.79L190.64 40.01ZM224.53 60.96L221.82 49.67L211.43 46.45L203.74 54.52L206.45 65.81L216.85 69.04ZM206.45 65.81L203.74 54.52L193.35 51.30L185.67 59.37L188.38 70.66L198.77 73.88ZM229.51 41.59L226.80 30.29L216.40 27.07L208.71 35.15L211.43 46.45L221.82 49.67ZM270.70 12.52L267.99 1.21L257.58 -2.02L249.88 6.06L252.59 17.36L263.00 20.59ZM275.70 -6.87L272.99 -18.19L262.58 -21.42L254.87 -13.33L257.58 -2.02L267.99 1.21ZM239.48 2.83L236.77 -8.48L226.36 -11.70L218.67 -3.61L221.38 7.69L231.78 10.91ZM221.38 7.69L218.67 -3.61L208.26 -6.83L200.57 1.25L203.29 12.55L213.69 15.77ZM252.59 17.36L249.88 6.06L239.48 2.83L231.78 10.91L234.49 22.22L244.89 25.44ZM234.49 22.22L231.78 10.91L221.38 7.69L213.69 15.77L216.40 27.07L226.80 30.29ZM257.58 -2.02L254.87 -13.33L244.46 -16.56L236.77 -8.48L239.48 2.83L249.88 6.06ZM263.83 104.54L261.13 93.24L250.74 90.01L243.05 98.07L245.75 109.37L256.14 112.60ZM268.82 85.18L266.12 73.88L255.72 70.65L248.03 78.71L250.74 90.01L261.13 93.24ZM232.66 94.85L229.95 83.55L219.56 80.33L211.88 88.40L214.59 99.69L224.97 102.91ZM214.59 99.69L211.88 88.40L201.49 85.17L193.81 93.24L196.52 104.53L206.91 107.75ZM237.64 75.49L234.93 64.19L224.53 60.96L216.85 69.04L219.56 80.33L229.95 83.55ZM219.56 80.33L216.85 69.04L206.45 65.81L198.77 73.88L201.49 85.17L211.88 88.40ZM245.75 109.37L243.05 98.07L232.66 94.85L224.97 102.91L227.68 114.20L238.07 117.43ZM227.68 114.20L224.97 102.91L214.59 99.69L206.91 107.75L209.62 119.04L220.00 122.26ZM250.74 90.01L248.03 78.71L237.64 75.49L229.95 83.55L232.66 94.85L243.05 98.07ZM55.57 -1.67L52.83 -12.95L42.45 -16.14L34.80 -8.05L37.53 3.23L47.91 6.42ZM37.53 3.23L34.80 -8.05L24.41 -11.24L16.77 -3.14L19.51 8.13L29.89 11.32ZM63.76 32.18L61.03 20.90L50.65 17.70L43.00 25.79L45.73 37.07L56.11 40.26ZM68.68 12.81L65.95 1.53L55.57 -1.67L47.91 6.42L50.65 17.70L61.03 20.90ZM50.65 17.70L47.91 6.42L37.53 3.23L29.89 11.32L32.62 22.60L43.00 25.79ZM76.87 46.66L74.14 35.38L63.76 32.18L56.11 40.26L58.84 51.54L69.22 54.74ZM81.80 27.29L79.07 16.01L68.68 12.81L61.03 20.90L63.76 32.18L74.14 35.38ZM73.61 -6.56L70.88 -17.85L60.49 -21.04L52.83 -12.95L55.57 -1.67L65.95 1.53ZM104.77 3.03L102.05 -8.26L91.66 -11.46L84.00 -3.36L86.72 7.92L97.11 11.12ZM86.72 7.92L84.00 -3.36L73.61 -6.56L65.95 1.53L68.68 12.81L79.07 16.01ZM134.22 85.24L131.50 73.95L121.12 70.75L113.46 78.82L116.18 90.10L126.56 93.31ZM116.18 90.10L113.46 78.82L103.08 75.62L95.43 83.69L98.15 94.96L108.53 98.17ZM139.17 65.88L136.45 54.60L126.06 51.39L118.40 59.46L121.12 70.75L131.50 73.95ZM121.12 70.75L118.40 59.46L108.01 56.26L100.36 64.34L103.08 75.62L113.46 78.82ZM147.32 99.73L144.60 88.45L134.22 85.24L126.56 93.31L129.28 104.58L139.66 107.79ZM129.28 104.58L126.56 93.31L116.18 90.10L108.53 98.17L111.25 109.44L121.62 112.65ZM152.27 80.38L149.55 69.09L139.17 65.88L131.50 73.95L134.22 85.24L144.60 88.45ZM89.98 61.13L87.25 49.86L76.87 46.66L69.22 54.74L71.95 66.01L82.33 69.21ZM71.95 66.01L69.22 54.74L58.84 51.54L51.20 59.62L53.93 70.89L64.30 74.09ZM98.15 94.96L95.43 83.69L85.05 80.49L77.40 88.56L80.13 99.83L90.50 103.03ZM103.08 75.62L100.36 64.34L89.98 61.13L82.33 69.21L85.05 80.49L95.43 83.69ZM162.17 41.65L159.45 30.36L149.06 27.15L141.39 35.23L144.11 46.52L154.50 49.73ZM144.11 46.52L141.39 35.23L131.00 32.02L123.34 40.10L126.06 51.39L136.45 54.60ZM167.13 22.28L164.41 10.99L154.02 7.77L146.34 15.86L149.06 27.15L159.45 30.36ZM149.06 27.15L146.34 15.86L135.95 12.65L128.28 20.73L131.00 32.02L141.39 35.23ZM175.28 56.16L172.56 44.87L162.17 41.65L154.50 49.73L157.22 61.02L167.61 64.23ZM157.22 61.02L154.50 49.73L144.11 46.52L136.45 54.60L139.17 65.88L149.55 69.09ZM180.24 36.79L177.52 25.49L167.13 22.28L159.45 30.36L162.17 41.65L172.56 44.87ZM112.95 36.90L110.23 25.61L99.84 22.41L92.18 30.49L94.91 41.77L105.29 44.98ZM94.91 41.77L92.18 30.49L81.80 27.29L74.14 35.38L76.87 46.66L87.25 49.86ZM117.89 17.53L115.17 6.24L104.77 3.03L97.11 11.12L99.84 22.41L110.23 25.61ZM99.84 22.41L97.11 11.12L86.72 7.92L79.07 16.01L81.80 27.29L92.18 30.49ZM126.06 51.39L123.34 40.10L112.95 36.90L105.29 44.98L108.01 56.26L118.40 59.46ZM108.01 56.26L105.29 44.98L94.91 41.77L87.25 49.86L89.98 61.13L100.36 64.34ZM131.00 32.02L128.28 20.73L117.89 17.53L110.23 25.61L112.95 36.90L123.34 40.10ZM155.47 133.56L152.75 122.28L142.38 119.07L134.72 127.14L137.44 138.41L147.81 141.62ZM137.44 138.41L134.72 127.14L124.34 123.93L116.69 131.99L119.41 143.26L129.78 146.47ZM160.42 114.22L157.70 102.94L147.32 99.73L139.66 107.79L142.38 119.07L152.75 122.28ZM142.38 119.07L139.66 107.79L129.28 104.58L121.62 112.65L124.34 123.93L134.72 127.14ZM168.56 148.05L165.85 136.78L155.47 133.56L147.81 141.62L150.53 152.90L160.90 156.11ZM173.51 128.72L170.80 117.44L160.42 114.22L152.75 122.28L155.47 133.56L165.85 136.78ZM111.25 109.44L108.53 98.17L98.15 94.96L90.50 103.03L93.23 114.31L103.60 117.51ZM124.34 123.93L121.62 112.65L111.25 109.44L103.60 117.51L106.32 128.78L116.69 131.99ZM183.42 90.02L180.71 78.74L170.32 75.52L162.65 83.59L165.37 94.87L175.75 98.09ZM165.37 94.87L162.65 83.59L152.27 80.38L144.60 88.45L147.32 99.73L157.70 102.94ZM188.38 70.66L185.67 59.37L175.28 56.16L167.61 64.23L170.32 75.52L180.71 78.74ZM170.32 75.52L167.61 64.23L157.22 61.02L149.55 69.09L152.27 80.38L162.65 83.59ZM196.52 104.53L193.81 93.24L183.42 90.02L175.75 98.09L178.47 109.37L188.85 112.59ZM178.47 109.37L175.75 98.09L165.37 94.87L157.70 102.94L160.42 114.22L170.80 117.44ZM201.49 85.17L198.77 73.88L188.38 70.66L180.71 78.74L183.42 90.02L193.81 93.24ZM225.86 186.72L223.15 175.44L212.77 172.22L205.10 180.27L207.81 191.54L218.19 194.77ZM207.81 191.54L205.10 180.27L194.73 177.04L187.07 185.10L189.77 196.37L200.15 199.59ZM230.83 167.39L228.12 156.11L217.74 152.89L210.07 160.94L212.77 172.22L223.15 175.44ZM212.77 172.22L210.07 160.94L199.69 157.72L192.02 165.77L194.73 177.04L205.10 180.27ZM238.94 201.23L236.23 189.95L225.86 186.72L218.19 194.77L220.89 206.04L231.26 209.27ZM243.91 181.90L241.21 170.62L230.83 167.39L223.15 175.44L225.86 186.72L236.23 189.95ZM181.65 162.55L178.94 151.27L168.56 148.05L160.90 156.11L163.61 167.38L173.98 170.60ZM194.73 177.04L192.02 165.77L181.65 162.55L173.98 170.60L176.69 181.87L187.07 185.10ZM253.86 143.23L251.16 131.95L240.77 128.72L233.09 136.77L235.80 148.06L246.18 151.29ZM235.80 148.06L233.09 136.77L222.71 133.55L215.03 141.60L217.74 152.89L228.12 156.11ZM258.85 123.89L256.14 112.60L245.75 109.37L238.07 117.43L240.77 128.72L251.16 131.95ZM240.77 128.72L238.07 117.43L227.68 114.20L220.00 122.26L222.71 133.55L233.09 136.77ZM266.95 157.75L264.25 146.47L253.86 143.23L246.18 151.29L248.88 162.57L259.27 165.81ZM248.88 162.57L246.18 151.29L235.80 148.06L228.12 156.11L230.83 167.39L241.21 170.62ZM271.94 138.41L269.24 127.12L258.85 123.89L251.16 131.95L253.86 143.23L264.25 146.47ZM204.65 138.38L201.94 127.10L191.56 123.87L183.89 131.94L186.60 143.21L196.98 146.44ZM186.60 143.21L183.89 131.94L173.51 128.72L165.85 136.78L168.56 148.05L178.94 151.27ZM209.62 119.04L206.91 107.75L196.52 104.53L188.85 112.59L191.56 123.87L201.94 127.10ZM191.56 123.87L188.85 112.59L178.47 109.37L170.80 117.44L173.51 128.72L183.89 131.94ZM217.74 152.89L215.03 141.60L204.65 138.38L196.98 146.44L199.69 157.72L210.07 160.94ZM199.69 157.72L196.98 146.44L186.60 143.21L178.94 151.27L181.65 162.55L192.02 165.77ZM222.71 133.55L220.00 122.26L209.62 119.04L201.94 127.10L204.65 138.38L215.03 141.60ZM252.01 215.74L249.31 204.46L238.94 201.23L231.26 209.27L233.97 220.55L244.34 223.78ZM275.05 191.61L272.35 180.32L261.97 177.09L254.29 185.14L256.99 196.42L267.37 199.65ZM256.99 196.42L254.29 185.14L243.91 181.90L236.23 189.95L238.94 201.23L249.31 204.46ZM261.97 177.09L259.27 165.81L248.88 162.57L241.21 170.62L243.91 181.90L254.29 185.14ZM270.06 210.93L267.37 199.65L256.99 196.42L249.31 204.46L252.01 215.74L262.39 218.97Z"/></svg>
