<svg xmlns="http://www.w3.org/2000/svg" width="256" height="256" viewBox="0 0 256 256"><path data-band="1" fill="#fde68a" fill-opacity="0.35" d="M31.14 234.10L28.43 222.89L18.12 219.69L10.53 227.69L13.25 238.90L23.55 242.10ZM13.25 238.90L10.53 227.69L0.22 224.49L-7.36 232.50L-4.64 243.70L5.66 246.90ZM36.02 214.89L33.30 203.68L22.99 200.48L15.40 208.48L18.12 219.69L28.43 222.89ZM18.12 219.69L15.40 208.48L5.09 205.28L-2.50 213.29L0.22 224.49L10.53 227.69ZM44.16 248.51L41.45 237.31L31.14 234.10L23.55 242.10L26.27 253.30L36.57 256.51ZM26.27 253.30L23.55 242.10L13.25 238.90L5.66 246.90L8.38 258.10L18.68 261.30ZM49.04 229.31L46.33 218.10L36.02 214.89L28.43 222.89L31.14 234.10L41.45 237.31ZM0.22 224.49L-2.50 213.29L-12.80 210.09L-20.38 218.10L-17.66 229.30L-7.36 232.50ZM58.82 190.87L56.10 179.66L45.78 176.45L38.18 184.46L40.90 195.67L51.21 198.88ZM40.90 195.67L38.18 184.46L27.87 181.25L20.27 189.26L22.99 200.48L33.30 203.68ZM71.85 205.30L69.13 194.08L58.82 190.87L51.21 198.88L53.93 210.09L64.24 213.30ZM53.93 210.09L51.21 198.88L40.90 195.67L33.30 203.68L36.02 214.89L46.33 218.10ZM9.96 186.06L7.24 174.85L-3.07 171.65L-10.66 179.67L-7.94 190.88L2.37 194.07ZM22.99 200.48L20.27 189.26L9.96 186.06L2.37 194.07L5.09 205.28L15.40 208.48ZM5.09 205.28L2.37 194.07L-7.94 190.88L-15.53 198.89L-12.80 210.09L-2.50 213.29ZM57.18 262.93L54.47 251.72L44.16 248.51L36.57 256.51L39.29 267.71L49.59 270.92ZM39.29 267.71L36.57 256.51L26.27 253.30L18.68 261.30L21.40 272.50L31.70 275.71ZM8.38 258.10L5.66 246.90L-4.64 243.70L-12.22 251.70L-9.50 262.89L0.80 266.09ZM79.98 238.94L77.27 227.73L66.95 224.51L59.36 232.51L62.07 243.72L72.38 246.94ZM62.07 243.72L59.36 232.51L49.04 229.31L41.45 237.31L44.16 248.51L54.47 251.72ZM84.87 219.73L82.16 208.51L71.85 205.30L64.24 213.30L66.95 224.51L77.27 227.73ZM66.95 224.51L64.24 213.30L53.93 210.09L46.33 218.10L49.04 229.31L59.36 232.51ZM93.00 253.36L90.29 242.15L79.98 238.94L72.38 246.94L75.09 258.14L85.40 261.36ZM75.09 258.14L72.38 246.94L62.07 243.72L54.47 251.72L57.18 262.93L67.49 266.14ZM97.90 234.16L95.19 222.94L84.87 219.73L77.27 227.73L79.98 238.94L90.29 242.15ZM106.02 267.79L103.31 256.58L93.00 253.36L85.40 261.36L88.10 272.57L98.41 275.78ZM102.80 214.94L100.09 203.72L89.77 200.51L82.16 208.51L84.87 219.73L95.19 222.94ZM177.74 248.73L175.05 237.50L164.72 234.27L157.10 242.27L159.80 253.49L170.12 256.72ZM159.80 253.49L157.10 242.27L146.78 239.04L139.16 247.04L141.86 258.25L152.18 261.48ZM190.76 263.18L188.07 251.96L177.74 248.73L170.12 256.72L172.82 267.94L183.14 271.17ZM172.82 267.94L170.12 256.72L159.80 253.49L152.18 261.48L154.88 272.70L165.20 275.92ZM128.85 243.81L126.14 232.60L115.82 229.38L108.21 237.37L110.92 248.59L121.23 251.81ZM110.92 248.59L108.21 237.37L97.90 234.16L90.29 242.15L93.00 253.36L103.31 256.58ZM115.82 229.38L113.12 218.16L102.80 214.94L95.19 222.94L97.90 234.16L108.21 237.37ZM141.86 258.25L139.16 247.04L128.85 243.81L121.23 251.81L123.94 263.02L134.25 266.25ZM123.94 263.02L121.23 251.81L110.92 248.59L103.31 256.58L106.02 267.79L116.33 271.01Z"/><path data-band="2" fill="#f97316" fill-opacity="0.35" d="M268.20 27.37L265.50 16.10L255.13 12.86L247.46 20.89L250.16 32.16L260.53 35.40ZM250.16 32.16L247.46 20.89L237.10 17.66L229.44 25.69L232.14 36.95L242.50 40.19ZM273.17 8.07L270.48 -3.20L260.11 -6.44L252.44 1.59L255.13 12.86L265.50 16.10ZM255.13 12.86L252.44 1.59L242.07 -1.64L234.40 6.39L237.10 17.66L247.46 20.89ZM263.22 46.66L260.53 35.40L250.16 32.16L242.50 40.19L245.19 51.45L255.55 54.69ZM271.30 80.45L268.61 69.19L258.25 65.95L250.59 73.97L253.28 85.23L263.64 88.47ZM276.28 61.16L273.58 49.90L263.22 46.66L255.55 54.69L258.25 65.95L268.61 69.19ZM1.79 152.43L-0.93 141.21L-11.25 138.01L-18.84 146.03L-16.11 157.25L-5.80 160.44ZM6.67 133.19L3.94 121.97L-6.38 118.78L-13.97 126.80L-11.25 138.01L-0.93 141.21ZM63.71 171.64L60.99 160.42L50.67 157.22L43.07 165.23L45.78 176.45L56.10 179.66ZM45.78 176.45L43.07 165.23L32.75 162.03L25.15 170.04L27.87 181.25L38.18 184.46ZM76.74 186.07L74.03 174.85L63.71 171.64L56.10 179.66L58.82 190.87L69.13 194.08ZM14.83 166.84L12.11 155.62L1.79 152.43L-5.80 160.44L-3.07 171.65L7.24 174.85ZM27.87 181.25L25.15 170.04L14.83 166.84L7.24 174.85L9.96 186.06L20.27 189.26ZM120.92 12.75L118.21 1.50L107.86 -1.71L100.22 6.33L102.94 17.58L113.29 20.79ZM102.94 17.58L100.22 6.33L89.87 3.12L82.24 11.16L84.96 22.41L95.31 25.62ZM125.85 -6.54L123.14 -17.79L112.78 -21.01L105.14 -12.96L107.86 -1.71L118.21 1.50ZM107.86 -1.71L105.14 -12.96L94.79 -16.17L87.15 -8.13L89.87 3.12L100.22 6.33ZM133.99 27.22L131.28 15.97L120.92 12.75L113.29 20.79L116.00 32.04L126.35 35.25ZM116.00 32.04L113.29 20.79L102.94 17.58L95.31 25.62L98.02 36.86L108.37 40.07ZM138.92 7.93L136.21 -3.32L125.85 -6.54L118.21 1.50L120.92 12.75L131.28 15.97ZM71.90 7.96L69.18 -3.29L58.83 -6.49L51.20 1.55L53.93 12.79L64.27 16.00ZM53.93 12.79L51.20 1.55L40.86 -1.65L33.24 6.39L35.97 17.63L46.31 20.83ZM58.83 -6.49L56.11 -17.74L45.76 -20.94L38.14 -12.89L40.86 -1.65L51.20 1.55ZM84.96 22.41L82.24 11.16L71.90 7.96L64.27 16.00L66.99 27.24L77.34 30.44ZM66.99 27.24L64.27 16.00L53.93 12.79L46.31 20.83L49.03 32.07L59.37 35.28ZM89.87 3.12L87.15 -8.13L76.80 -11.33L69.18 -3.29L71.90 7.96L82.24 11.16ZM0.07 27.32L-2.66 16.09L-13.00 12.90L-20.60 20.94L-17.87 32.17L-7.54 35.36ZM8.25 61.02L5.52 49.79L-4.81 46.59L-12.41 54.63L-9.69 65.86L0.64 69.05ZM13.13 41.75L10.40 30.52L0.07 27.32L-7.54 35.36L-4.81 46.59L5.52 49.79ZM22.90 3.20L20.17 -8.04L9.83 -11.24L2.22 -3.19L4.95 8.05L15.29 11.24ZM4.95 8.05L2.22 -3.19L-8.12 -6.38L-15.73 1.66L-13.00 12.90L-2.66 16.09ZM35.97 17.63L33.24 6.39L22.90 3.20L15.29 11.24L18.01 22.48L28.35 25.67ZM18.01 22.48L15.29 11.24L4.95 8.05L-2.66 16.09L0.07 27.32L10.40 30.52ZM40.86 -1.65L38.14 -12.89L27.79 -16.09L20.17 -8.04L22.90 3.20L33.24 6.39ZM191.16 65.83L188.46 54.58L178.10 51.35L170.46 59.38L173.16 70.63L183.51 73.85ZM173.16 70.63L170.46 59.38L160.11 56.16L152.47 64.18L155.17 75.43L165.52 78.65ZM196.11 46.55L193.40 35.29L183.05 32.07L175.40 40.10L178.10 51.35L188.46 54.58ZM178.10 51.35L175.40 40.10L165.04 36.88L157.40 44.91L160.11 56.16L170.46 59.38ZM204.21 80.31L201.51 69.06L191.16 65.83L183.51 73.85L186.22 85.10L196.56 88.33ZM186.22 85.10L183.51 73.85L173.16 70.63L165.52 78.65L168.23 89.90L178.57 93.12ZM209.16 61.03L206.46 49.78L196.11 46.55L188.46 54.58L191.16 65.83L201.51 69.06ZM142.12 60.96L139.41 49.72L129.06 46.50L121.43 54.53L124.14 65.78L134.48 68.99ZM124.14 65.78L121.43 54.53L111.08 51.32L103.45 59.35L106.17 70.59L116.51 73.80ZM147.05 41.69L144.34 30.44L133.99 27.22L126.35 35.25L129.06 46.50L139.41 49.72ZM129.06 46.50L126.35 35.25L116.00 32.04L108.37 40.07L111.08 51.32L121.43 54.53ZM155.17 75.43L152.47 64.18L142.12 60.96L134.48 68.99L137.19 80.24L147.54 83.45ZM137.19 80.24L134.48 68.99L124.14 65.78L116.51 73.80L119.22 85.04L129.56 88.26ZM160.11 56.16L157.40 44.91L147.05 41.69L139.41 49.72L142.12 60.96L152.47 64.18ZM219.07 22.46L216.37 11.20L206.01 7.97L198.35 16.00L201.06 27.26L211.42 30.49ZM201.06 27.26L198.35 16.00L187.99 12.78L180.34 20.81L183.05 32.07L193.40 35.29ZM224.03 3.16L221.33 -8.10L210.97 -11.33L203.31 -3.30L206.01 7.97L216.37 11.20ZM206.01 7.97L203.31 -3.30L192.94 -6.52L185.29 1.52L187.99 12.78L198.35 16.00ZM232.14 36.95L229.44 25.69L219.07 22.46L211.42 30.49L214.12 41.75L224.48 44.98ZM214.12 41.75L211.42 30.49L201.06 27.26L193.40 35.29L196.11 46.55L206.46 49.78ZM237.10 17.66L234.40 6.39L224.03 3.16L216.37 11.20L219.07 22.46L229.44 25.69ZM169.98 17.59L167.28 6.33L156.92 3.11L149.27 11.15L151.98 22.40L162.34 25.62ZM151.98 22.40L149.27 11.15L138.92 7.93L131.28 15.97L133.99 27.22L144.34 30.44ZM174.93 -1.71L172.22 -12.97L161.86 -16.19L154.21 -8.15L156.92 3.11L167.28 6.33ZM156.92 3.11L154.21 -8.15L143.85 -11.37L136.21 -3.32L138.92 7.93L149.27 11.15ZM183.05 32.07L180.34 20.81L169.98 17.59L162.34 25.62L165.04 36.88L175.40 40.10ZM165.04 36.88L162.34 25.62L151.98 22.40L144.34 30.44L147.05 41.69L157.40 44.91ZM187.99 12.78L185.29 1.52L174.93 -1.71L167.28 6.33L169.98 17.59L180.34 20.81ZM212.31 114.06L209.61 102.81L199.27 99.58L191.62 107.60L194.32 118.84L204.67 122.07ZM194.32 118.84L191.62 107.60L181.28 104.37L173.63 112.39L176.34 123.63L186.68 126.86ZM217.26 94.79L214.56 83.54L204.21 80.31L196.56 88.33L199.27 99.58L209.61 102.81ZM199.27 99.58L196.56 88.33L186.22 85.10L178.57 93.12L181.28 104.37L191.62 107.60ZM225.36 128.54L222.66 117.29L212.31 114.06L204.67 122.07L207.36 133.32L217.71 136.55ZM207.36 133.32L204.67 122.07L194.32 118.84L186.68 126.86L189.38 138.10L199.72 141.33ZM230.31 109.28L227.61 98.03L217.26 94.79L209.61 102.81L212.31 114.06L222.66 117.29ZM163.29 109.16L160.59 97.92L150.24 94.70L142.61 102.72L145.32 113.96L155.66 117.18ZM145.32 113.96L142.61 102.72L132.27 99.50L124.64 107.52L127.35 118.76L137.69 121.98ZM168.23 89.90L165.52 78.65L155.17 75.43L147.54 83.45L150.24 94.70L160.59 97.92ZM150.24 94.70L147.54 83.45L137.19 80.24L129.56 88.26L132.27 99.50L142.61 102.72ZM176.34 123.63L173.63 112.39L163.29 109.16L155.66 117.18L158.36 128.42L168.70 131.64ZM158.36 128.42L155.66 117.18L145.32 113.96L137.69 121.98L140.39 133.21L150.73 136.43ZM181.28 104.37L178.57 93.12L168.23 89.90L160.59 97.92L163.29 109.16L173.63 112.39ZM240.23 70.73L237.53 59.47L227.18 56.24L219.52 64.26L222.22 75.52L232.57 78.75ZM222.22 75.52L219.52 64.26L209.16 61.03L201.51 69.06L204.21 80.31L214.56 83.54ZM245.19 51.45L242.50 40.19L232.14 36.95L224.48 44.98L227.18 56.24L237.53 59.47ZM227.18 56.24L224.48 44.98L214.12 41.75L206.46 49.78L209.16 61.03L219.52 64.26ZM253.28 85.23L250.59 73.97L240.23 70.73L232.57 78.75L235.27 90.01L245.62 93.24ZM235.27 90.01L232.57 78.75L222.22 75.52L214.56 83.54L217.26 94.79L227.61 98.03ZM258.25 65.95L255.55 54.69L245.19 51.45L237.53 59.47L240.23 70.73L250.59 73.97ZM65.35 99.48L62.63 88.25L52.30 85.05L44.68 93.07L47.40 104.30L57.73 107.51ZM47.40 104.30L44.68 93.07L34.35 89.87L26.75 97.90L29.47 109.12L39.80 112.33ZM70.25 80.22L67.53 68.99L57.19 65.78L49.58 73.81L52.30 85.05L62.63 88.25ZM52.30 85.05L49.58 73.81L39.24 70.61L31.63 78.64L34.35 89.87L44.68 93.07ZM78.39 113.92L75.68 102.69L65.35 99.48L57.73 107.51L60.45 118.73L70.78 121.94ZM60.45 118.73L57.73 107.51L47.40 104.30L39.80 112.33L42.52 123.55L52.84 126.76ZM83.30 94.67L80.58 83.43L70.25 80.22L62.63 88.25L65.35 99.48L75.68 102.69ZM16.42 94.70L13.70 83.47L3.37 80.28L-4.23 88.31L-1.51 99.53L8.82 102.73ZM21.30 75.44L18.58 64.21L8.25 61.02L0.64 69.05L3.37 80.28L13.70 83.47ZM3.37 80.28L0.64 69.05L-9.69 65.86L-17.28 73.89L-14.56 85.11L-4.23 88.31ZM29.47 109.12L26.75 97.90L16.42 94.70L8.82 102.73L11.54 113.95L21.87 117.15ZM11.54 113.95L8.82 102.73L-1.51 99.53L-9.10 107.56L-6.38 118.78L3.94 121.97ZM34.35 89.87L31.63 78.64L21.30 75.44L13.70 83.47L16.42 94.70L26.75 97.90ZM93.11 56.14L90.40 44.90L80.05 41.69L72.43 49.72L75.15 60.96L85.49 64.17ZM75.15 60.96L72.43 49.72L62.09 46.52L54.47 54.55L57.19 65.78L67.53 68.99ZM98.02 36.86L95.31 25.62L84.96 22.41L77.34 30.44L80.05 41.69L90.40 44.90ZM80.05 41.69L77.34 30.44L66.99 27.24L59.37 35.28L62.09 46.52L72.43 49.72ZM106.17 70.59L103.45 59.35L93.11 56.14L85.49 64.17L88.20 75.41L98.54 78.62ZM88.20 75.41L85.49 64.17L75.15 60.96L67.53 68.99L70.25 80.22L80.58 83.43ZM111.08 51.32L108.37 40.07L98.02 36.86L90.40 44.90L93.11 56.14L103.45 59.35ZM44.13 51.35L41.41 40.11L31.07 36.91L23.46 44.95L26.19 56.18L36.52 59.38ZM26.19 56.18L23.46 44.95L13.13 41.75L5.52 49.79L8.25 61.02L18.58 64.21ZM49.03 32.07L46.31 20.83L35.97 17.63L28.35 25.67L31.07 36.91L41.41 40.11ZM31.07 36.91L28.35 25.67L18.01 22.48L10.40 30.52L13.13 41.75L23.46 44.95ZM57.19 65.78L54.47 54.55L44.13 51.35L36.52 59.38L39.24 70.61L49.58 73.81ZM39.24 70.61L36.52 59.38L26.19 56.18L18.58 64.21L21.30 75.44L31.63 78.64ZM62.09 46.52L59.37 35.28L49.03 32.07L41.41 40.11L44.13 51.35L54.47 54.55ZM86.54 147.61L83.82 136.38L73.49 133.17L65.88 141.19L68.60 152.41L78.92 155.62ZM68.60 152.41L65.88 141.19L55.56 137.98L47.95 146.00L50.67 157.22L60.99 160.42ZM91.44 128.36L88.73 117.13L78.39 113.92L70.78 121.94L73.49 133.17L83.82 136.38ZM73.49 133.17L70.78 121.94L60.45 118.73L52.84 126.76L55.56 137.98L65.88 141.19ZM99.57 162.05L96.86 150.82L86.54 147.61L78.92 155.62L81.64 166.84L91.96 170.06ZM81.64 166.84L78.92 155.62L68.60 152.41L60.99 160.42L63.71 171.64L74.03 174.85ZM104.48 142.81L101.77 131.58L91.44 128.36L83.82 136.38L86.54 147.61L96.86 150.82ZM37.63 142.79L34.91 131.57L24.59 128.37L16.99 136.39L19.71 147.61L30.03 150.81ZM19.71 147.61L16.99 136.39L6.67 133.19L-0.93 141.21L1.79 152.43L12.11 155.62ZM42.52 123.55L39.80 112.33L29.47 109.12L21.87 117.15L24.59 128.37L34.91 131.57ZM24.59 128.37L21.87 117.15L11.54 113.95L3.94 121.97L6.67 133.19L16.99 136.39ZM50.67 157.22L47.95 146.00L37.63 142.79L30.03 150.81L32.75 162.03L43.07 165.23ZM32.75 162.03L30.03 150.81L19.71 147.61L12.11 155.62L14.83 166.84L25.15 170.04ZM55.56 137.98L52.84 126.76L42.52 123.55L34.91 131.57L37.63 142.79L47.95 146.00ZM114.30 104.30L111.59 93.07L101.25 89.85L93.63 97.88L96.35 109.11L106.68 112.32ZM96.35 109.11L93.63 97.88L83.30 94.67L75.68 102.69L78.39 113.92L88.73 117.13ZM119.22 85.04L116.51 73.80L106.17 70.59L98.54 78.62L101.25 89.85L111.59 93.07ZM101.25 89.85L98.54 78.62L88.20 75.41L80.58 83.43L83.30 94.67L93.63 97.88ZM127.35 118.76L124.64 107.52L114.30 104.30L106.68 112.32L109.39 123.56L119.72 126.77ZM109.39 123.56L106.68 112.32L96.35 109.11L88.73 117.13L91.44 128.36L101.77 131.58ZM132.27 99.50L129.56 88.26L119.22 85.04L111.59 93.07L114.30 104.30L124.64 107.52ZM260.11 -6.44L257.41 -17.71L247.04 -20.95L239.37 -12.91L242.07 -1.64L252.44 1.59ZM242.07 -1.64L239.37 -12.91L229.00 -16.14L221.33 -8.10L224.03 3.16L234.40 6.39ZM192.94 -6.52L190.24 -17.79L179.87 -21.01L172.22 -12.97L174.93 -1.71L185.29 1.52ZM275.63 258.66L272.95 247.43L262.61 244.18L254.97 252.17L257.66 263.40L267.99 266.65ZM257.66 263.40L254.97 252.17L244.64 248.93L237.00 256.92L239.69 268.14L250.02 271.39ZM262.61 244.18L259.93 232.95L249.59 229.70L241.95 237.70L244.64 248.93L254.97 252.17ZM226.67 253.68L223.98 242.45L213.65 239.21L206.02 247.20L208.71 258.43L219.04 261.66ZM208.71 258.43L206.02 247.20L195.69 243.97L188.07 251.96L190.76 263.18L201.08 266.41ZM231.62 234.46L228.93 223.22L218.59 219.99L210.96 227.98L213.65 239.21L223.98 242.45ZM213.65 239.21L210.96 227.98L200.63 224.75L193.00 232.74L195.69 243.97L206.02 247.20ZM239.69 268.14L237.00 256.92L226.67 253.68L219.04 261.66L221.73 272.89L232.05 276.13ZM244.64 248.93L241.95 237.70L231.62 234.46L223.98 242.45L226.67 253.68L237.00 256.92ZM264.47 171.99L261.78 160.75L251.43 157.51L243.78 165.51L246.48 176.75L256.82 179.99ZM269.44 152.74L266.75 141.49L256.40 138.25L248.74 146.26L251.43 157.51L261.78 160.75ZM233.44 162.27L230.75 151.03L220.40 147.79L212.76 155.80L215.46 167.04L225.80 170.28ZM215.46 167.04L212.76 155.80L202.42 152.57L194.78 160.58L197.48 171.81L207.81 175.05ZM238.40 143.02L235.70 131.77L225.36 128.54L217.71 136.55L220.40 147.79L230.75 151.03ZM220.40 147.79L217.71 136.55L207.36 133.32L199.72 141.33L202.42 152.57L212.76 155.80ZM246.48 176.75L243.78 165.51L233.44 162.27L225.80 170.28L228.49 181.52L238.83 184.76ZM228.49 181.52L225.80 170.28L215.46 167.04L207.81 175.05L210.51 186.28L220.85 189.52ZM251.43 157.51L248.74 146.26L238.40 143.02L230.75 151.03L233.44 162.27L243.78 165.51ZM261.36 118.99L258.67 107.74L248.32 104.50L240.66 112.51L243.36 123.76L253.70 127.00ZM243.36 123.76L240.66 112.51L230.31 109.28L222.66 117.29L225.36 128.54L235.70 131.77ZM266.33 99.72L263.64 88.47L253.28 85.23L245.62 93.24L248.32 104.50L258.67 107.74ZM248.32 104.50L245.62 93.24L235.27 90.01L227.61 98.03L230.31 109.28L240.66 112.51ZM274.40 133.49L271.71 122.23L261.36 118.99L253.70 127.00L256.40 138.25L266.75 141.49ZM256.40 138.25L253.70 127.00L243.36 123.76L235.70 131.77L238.40 143.02L248.74 146.26ZM254.55 210.47L251.86 199.24L241.52 195.99L233.88 203.99L236.57 215.23L246.90 218.47ZM236.57 215.23L233.88 203.99L223.54 200.75L215.90 208.75L218.59 219.99L228.93 223.22ZM259.51 191.24L256.82 179.99L246.48 176.75L238.83 184.76L241.52 195.99L251.86 199.24ZM241.52 195.99L238.83 184.76L228.49 181.52L220.85 189.52L223.54 200.75L233.88 203.99ZM267.57 224.96L264.89 213.72L254.55 210.47L246.90 218.47L249.59 229.70L259.93 232.95ZM249.59 229.70L246.90 218.47L236.57 215.23L228.93 223.22L231.62 234.46L241.95 237.70ZM272.54 205.72L269.85 194.48L259.51 191.24L251.86 199.24L254.55 210.47L264.89 213.72ZM156.62 200.60L153.92 189.37L143.59 186.15L135.97 194.15L138.67 205.38L149.00 208.60ZM138.67 205.38L135.97 194.15L125.64 190.93L118.02 198.94L120.73 210.16L131.05 213.38ZM161.54 181.37L158.84 170.14L148.51 166.91L140.88 174.92L143.59 186.15L153.92 189.37ZM143.59 186.15L140.88 174.92L130.56 171.70L122.94 179.71L125.64 190.93L135.97 194.15ZM169.65 215.05L166.95 203.83L156.62 200.60L149.00 208.60L151.70 219.82L162.02 223.05ZM151.70 219.82L149.00 208.60L138.67 205.38L131.05 213.38L133.76 224.60L144.08 227.82ZM174.58 195.82L171.88 184.59L161.54 181.37L153.92 189.37L156.62 200.60L166.95 203.83ZM107.70 195.72L104.99 184.49L94.67 181.28L87.06 189.29L89.77 200.51L100.09 203.72ZM89.77 200.51L87.06 189.29L76.74 186.07L69.13 194.08L71.85 205.30L82.16 208.51ZM112.61 176.49L109.90 165.26L99.57 162.05L91.96 170.06L94.67 181.28L104.99 184.49ZM94.67 181.28L91.96 170.06L81.64 166.84L74.03 174.85L76.74 186.07L87.06 189.29ZM120.73 210.16L118.02 198.94L107.70 195.72L100.09 203.72L102.80 214.94L113.12 218.16ZM125.64 190.93L122.94 179.71L112.61 176.49L104.99 184.49L107.70 195.72L118.02 198.94ZM184.44 157.35L181.74 146.11L171.40 142.88L163.77 150.89L166.47 162.13L176.81 165.35ZM166.47 162.13L163.77 150.89L153.43 147.67L145.81 155.68L148.51 166.91L158.84 170.14ZM189.38 138.10L186.68 126.86L176.34 123.63L168.70 131.64L171.40 142.88L181.74 146.11ZM171.40 142.88L168.70 131.64L158.36 128.42L150.73 136.43L153.43 147.67L163.77 150.89ZM197.48 171.81L194.78 160.58L184.44 157.35L176.81 165.35L179.51 176.59L189.84 179.82ZM179.51 176.59L176.81 165.35L166.47 162.13L158.84 170.14L161.54 181.37L171.88 184.59ZM202.42 152.57L199.72 141.33L189.38 138.10L181.74 146.11L184.44 157.35L194.78 160.58ZM135.47 152.46L132.77 141.23L122.43 138.01L114.81 146.02L117.52 157.25L127.85 160.47ZM117.52 157.25L114.81 146.02L104.48 142.81L96.86 150.82L99.57 162.05L109.90 165.26ZM140.39 133.21L137.69 121.98L127.35 118.76L119.72 126.77L122.43 138.01L132.77 141.23ZM122.43 138.01L119.72 126.77L109.39 123.56L101.77 131.58L104.48 142.81L114.81 146.02ZM148.51 166.91L145.81 155.68L135.47 152.46L127.85 160.47L130.56 171.70L140.88 174.92ZM130.56 171.70L127.85 160.47L117.52 157.25L109.90 165.26L112.61 176.49L122.94 179.71ZM153.43 147.67L150.73 136.43L140.39 133.21L132.77 141.23L135.47 152.46L145.81 155.68ZM182.67 229.51L179.97 218.28L169.65 215.05L162.02 223.05L164.72 234.27L175.05 237.50ZM164.72 234.27L162.02 223.05L151.70 219.82L144.08 227.82L146.78 239.04L157.10 242.27ZM195.69 243.97L193.00 232.74L182.67 229.51L175.05 237.50L177.74 248.73L188.07 251.96ZM133.76 224.60L131.05 213.38L120.73 210.16L113.12 218.16L115.82 229.38L126.14 232.60ZM146.78 239.04L144.08 227.82L133.76 224.60L126.14 232.60L128.85 243.81L139.16 247.04ZM205.57 205.52L202.87 194.28L192.54 191.05L184.91 199.05L187.60 210.28L197.93 213.52ZM187.60 210.28L184.91 199.05L174.58 195.82L166.95 203.83L169.65 215.05L179.97 218.28ZM210.51 186.28L207.81 175.05L197.48 171.81L189.84 179.82L192.54 191.05L202.87 194.28ZM192.54 191.05L189.84 179.82L179.51 176.59L171.88 184.59L174.58 195.82L184.91 199.05ZM218.59 219.99L215.90 208.75L205.57 205.52L197.93 213.52L200.63 224.75L210.96 227.98ZM200.63 224.75L197.93 213.52L187.60 210.28L179.97 218.28L182.67 229.51L193.00 232.74ZM223.54 200.75L220.85 189.52L210.51 186.28L202.87 194.28L205.57 205.52L215.90 208.75Z"/></svg>
