<svg xmlns="http://www.w3.org/2000/svg" width="256" height="256" viewBox="0 0 256 256"><path data-band="1" fill="#fde68a" fill-opacity="0.35" d="M129.21 253.03L126.66 241.14L115.69 237.63L107.26 246.02L109.81 257.91L120.78 261.42ZM135.10 232.75L132.55 220.85L121.57 217.35L113.14 225.74L115.69 237.63L126.66 241.14ZM146.88 192.17L144.34 180.26L133.35 176.75L124.91 185.15L127.46 197.05L138.44 200.56ZM152.78 171.87L150.24 159.96L139.25 156.45L130.80 164.85L133.35 176.75L144.34 180.26ZM160.41 207.58L157.87 195.68L146.88 192.17L138.44 200.56L140.99 212.46L151.97 215.97ZM140.99 212.46L138.44 200.56L127.46 197.05L119.02 205.45L121.57 217.35L132.55 220.85ZM166.32 187.29L163.77 175.38L152.78 171.87L144.34 180.26L146.88 192.17L157.87 195.68ZM142.73 268.44L140.18 256.54L129.21 253.03L120.78 261.42L123.32 273.31L134.30 276.82ZM220.41 248.99L217.88 237.09L206.89 233.56L198.44 241.94L200.98 253.85L211.96 257.37ZM200.98 253.85L198.44 241.94L187.46 238.42L179.02 246.81L181.55 258.71L192.53 262.23ZM226.33 228.70L223.80 216.80L212.81 213.27L204.36 221.66L206.89 233.56L217.88 237.09ZM206.89 233.56L204.36 221.66L193.37 218.13L184.92 226.52L187.46 238.42L198.44 241.94ZM233.92 264.42L231.39 252.52L220.41 248.99L211.96 257.37L214.49 269.27L225.47 272.80ZM214.49 269.27L211.96 257.37L200.98 253.85L192.53 262.23L195.07 274.12L206.04 277.65ZM239.85 244.14L237.32 232.23L226.33 228.70L217.88 237.09L220.41 248.99L231.39 252.52ZM168.03 243.29L165.49 231.39L154.51 227.87L146.08 236.26L148.62 248.16L159.60 251.67ZM148.62 248.16L146.08 236.26L135.10 232.75L126.66 241.14L129.21 253.03L140.18 256.54ZM173.94 223.00L171.40 211.10L160.41 207.58L151.97 215.97L154.51 227.87L165.49 231.39ZM154.51 227.87L151.97 215.97L140.99 212.46L132.55 220.85L135.10 232.75L146.08 236.26ZM181.55 258.71L179.02 246.81L168.03 243.29L159.60 251.67L162.14 263.57L173.11 267.08ZM162.14 263.57L159.60 251.67L148.62 248.16L140.18 256.54L142.73 268.44L153.70 271.95ZM187.46 238.42L184.92 226.52L173.94 223.00L165.49 231.39L168.03 243.29L179.02 246.81ZM272.22 9.98L269.68 -1.96L258.65 -5.49L250.16 2.93L252.70 14.87L263.72 18.40ZM252.70 14.87L250.16 2.93L239.14 -0.60L230.65 7.82L233.19 19.76L244.21 23.29ZM258.65 -5.49L256.12 -17.44L245.09 -20.97L236.60 -12.54L239.14 -0.60L250.16 2.93ZM266.26 30.34L263.72 18.40L252.70 14.87L244.21 23.29L246.75 35.23L257.77 38.76ZM219.63 4.30L217.08 -7.64L206.06 -11.16L197.58 -2.73L200.12 9.21L211.15 12.72ZM200.12 9.21L197.58 -2.73L186.56 -6.25L178.08 2.18L180.63 14.11L191.65 17.63ZM233.19 19.76L230.65 7.82L219.63 4.30L211.15 12.72L213.69 24.66L224.71 28.18ZM213.69 24.66L211.15 12.72L200.12 9.21L191.65 17.63L194.19 29.56L205.21 33.08ZM239.14 -0.60L236.60 -12.54L225.57 -16.06L217.08 -7.64L219.63 4.30L230.65 7.82ZM273.85 66.16L271.32 54.23L260.30 50.70L251.82 59.11L254.35 71.04L265.37 74.57ZM240.80 55.58L238.26 43.64L227.25 40.12L218.77 48.53L221.31 60.47L232.32 63.99ZM221.31 60.47L218.77 48.53L207.75 45.01L199.28 53.43L201.82 65.36L212.83 68.88ZM246.75 35.23L244.21 23.29L233.19 19.76L224.71 28.18L227.25 40.12L238.26 43.64ZM227.25 40.12L224.71 28.18L213.69 24.66L205.21 33.08L207.75 45.01L218.77 48.53ZM254.35 71.04L251.82 59.11L240.80 55.58L232.32 63.99L234.86 75.92L245.87 79.45ZM234.86 75.92L232.32 63.99L221.31 60.47L212.83 68.88L215.37 80.81L226.38 84.33ZM260.30 50.70L257.77 38.76L246.75 35.23L238.26 43.64L240.80 55.58L251.82 59.11ZM170.51 110.92L167.96 99.00L156.96 95.49L148.50 103.90L151.05 115.82L162.05 119.33ZM176.42 90.59L173.88 78.67L162.87 75.16L154.41 83.57L156.96 95.49L167.96 99.00ZM188.27 49.91L185.72 37.98L174.71 34.47L166.24 42.89L168.79 54.82L179.80 58.33ZM194.19 29.56L191.65 17.63L180.63 14.11L172.16 22.54L174.71 34.47L185.72 37.98ZM201.82 65.36L199.28 53.43L188.27 49.91L179.80 58.33L182.34 70.26L193.35 73.77ZM182.34 70.26L179.80 58.33L168.79 54.82L160.32 63.23L162.87 75.16L173.88 78.67ZM207.75 45.01L205.21 33.08L194.19 29.56L185.72 37.98L188.27 49.91L199.28 53.43ZM230.59 152.36L228.06 140.44L217.05 136.91L208.59 145.31L211.13 157.23L222.13 160.75ZM211.13 157.23L208.59 145.31L197.59 141.79L189.13 150.19L191.67 162.10L202.67 165.62ZM236.53 132.04L233.99 120.11L222.98 116.59L214.52 124.99L217.05 136.91L228.06 140.44ZM217.05 136.91L214.52 124.99L203.51 121.47L195.05 129.87L197.59 141.79L208.59 145.31ZM244.12 167.80L241.59 155.88L230.59 152.36L222.13 160.75L224.66 172.67L235.66 176.19ZM224.66 172.67L222.13 160.75L211.13 157.23L202.67 165.62L205.20 177.54L216.20 181.06ZM250.06 147.49L247.53 135.57L236.53 132.04L228.06 140.44L230.59 152.36L241.59 155.88ZM178.14 146.67L175.59 134.76L164.60 131.24L156.14 139.65L158.69 151.56L169.68 155.07ZM184.05 126.35L181.51 114.44L170.51 110.92L162.05 119.33L164.60 131.24L175.59 134.76ZM164.60 131.24L162.05 119.33L151.05 115.82L142.60 124.22L145.15 136.14L156.14 139.65ZM191.67 162.10L189.13 150.19L178.14 146.67L169.68 155.07L172.22 166.98L183.22 170.50ZM172.22 166.98L169.68 155.07L158.69 151.56L150.24 159.96L152.78 171.87L163.77 175.38ZM197.59 141.79L195.05 129.87L184.05 126.35L175.59 134.76L178.14 146.67L189.13 150.19ZM261.95 106.84L259.42 94.91L248.41 91.38L239.93 99.78L242.46 111.71L253.47 115.24ZM242.46 111.71L239.93 99.78L228.92 96.26L220.45 104.66L222.98 116.59L233.99 120.11ZM267.90 86.51L265.37 74.57L254.35 71.04L245.87 79.45L248.41 91.38L259.42 94.91ZM248.41 91.38L245.87 79.45L234.86 75.92L226.38 84.33L228.92 96.26L239.93 99.78ZM275.49 122.30L272.96 110.37L261.95 106.84L253.47 115.24L256.00 127.17L267.01 130.70ZM256.00 127.17L253.47 115.24L242.46 111.71L233.99 120.11L236.53 132.04L247.53 135.57ZM209.44 101.14L206.90 89.22L195.89 85.70L187.43 94.11L189.97 106.03L200.97 109.55ZM189.97 106.03L187.43 94.11L176.42 90.59L167.96 99.00L170.51 110.92L181.51 114.44ZM215.37 80.81L212.83 68.88L201.82 65.36L193.35 73.77L195.89 85.70L206.90 89.22ZM195.89 85.70L193.35 73.77L182.34 70.26L173.88 78.67L176.42 90.59L187.43 94.11ZM222.98 116.59L220.45 104.66L209.44 101.14L200.97 109.55L203.51 121.47L214.52 124.99ZM203.51 121.47L200.97 109.55L189.97 106.03L181.51 114.44L184.05 126.35L195.05 129.87ZM228.92 96.26L226.38 84.33L215.37 80.81L206.90 89.22L209.44 101.14L220.45 104.66ZM251.72 203.56L249.19 191.64L238.19 188.11L229.73 196.50L232.26 208.41L243.25 211.94ZM232.26 208.41L229.73 196.50L218.73 192.97L210.28 201.36L212.81 213.27L223.80 216.80ZM257.65 183.25L255.12 171.33L244.12 167.80L235.66 176.19L238.19 188.11L249.19 191.64ZM238.19 188.11L235.66 176.19L224.66 172.67L216.20 181.06L218.73 192.97L229.73 196.50ZM265.24 219.00L262.71 207.09L251.72 203.56L243.25 211.94L245.78 223.85L256.77 227.38ZM245.78 223.85L243.25 211.94L232.26 208.41L223.80 216.80L226.33 228.70L237.32 232.23ZM271.18 198.70L268.65 186.79L257.65 183.25L249.19 191.64L251.72 203.56L262.71 207.09ZM199.29 197.84L196.75 185.93L185.76 182.41L177.31 190.80L179.85 202.71L190.83 206.23ZM179.85 202.71L177.31 190.80L166.32 187.29L157.87 195.68L160.41 207.58L171.40 211.10ZM205.20 177.54L202.67 165.62L191.67 162.10L183.22 170.50L185.76 182.41L196.75 185.93ZM185.76 182.41L183.22 170.50L172.22 166.98L163.77 175.38L166.32 187.29L177.31 190.80ZM212.81 213.27L210.28 201.36L199.29 197.84L190.83 206.23L193.37 218.13L204.36 221.66ZM193.37 218.13L190.83 206.23L179.85 202.71L171.40 211.10L173.94 223.00L184.92 226.52ZM218.73 192.97L216.20 181.06L205.20 177.54L196.75 185.93L199.29 197.84L210.28 201.36ZM263.60 162.94L261.07 151.02L250.06 147.49L241.59 155.88L244.12 167.80L255.12 171.33ZM269.54 142.63L267.01 130.70L256.00 127.17L247.53 135.57L250.06 147.49L261.07 151.02ZM277.12 178.40L274.60 166.48L263.60 162.94L255.12 171.33L257.65 183.25L268.65 186.79ZM272.81 254.74L270.29 242.83L259.30 239.29L250.84 247.67L253.37 259.58L264.35 263.11ZM253.37 259.58L250.84 247.67L239.85 244.14L231.39 252.52L233.92 264.42L244.91 267.95ZM259.30 239.29L256.77 227.38L245.78 223.85L237.32 232.23L239.85 244.14L250.84 247.67Z"/><path data-band="2" fill="#f97316" fill-opacity="0.35" d="M90.41 262.79L87.86 250.90L76.89 247.40L68.48 255.79L71.03 267.68L82.00 271.18ZM71.03 267.68L68.48 255.79L57.51 252.30L49.10 260.68L51.65 272.57L62.62 276.06ZM38.13 257.19L35.57 245.31L24.61 241.82L16.20 250.21L18.76 262.09L29.72 265.58ZM18.76 262.09L16.20 250.21L5.24 246.73L-3.16 255.12L-0.60 267.00L10.36 270.48ZM94.51 186.54L91.96 174.64L80.98 171.14L72.55 179.55L75.10 191.44L86.08 194.94ZM75.10 191.44L72.55 179.55L61.57 176.05L53.15 184.45L55.70 196.35L66.68 199.84ZM100.39 166.24L97.84 154.34L86.85 150.84L78.42 159.24L80.98 171.14L91.96 174.64ZM80.98 171.14L78.42 159.24L67.44 155.75L59.01 164.15L61.57 176.05L72.55 179.55ZM108.04 201.94L105.49 190.04L94.51 186.54L86.08 194.94L88.63 206.84L99.61 210.34ZM88.63 206.84L86.08 194.94L75.10 191.44L66.68 199.84L69.23 211.73L80.21 215.23ZM113.93 181.65L111.38 169.74L100.39 166.24L91.96 174.64L94.51 186.54L105.49 190.04ZM42.17 180.96L39.61 169.07L28.63 165.58L20.21 173.98L22.78 185.88L33.75 189.36ZM22.78 185.88L20.21 173.98L9.24 170.50L0.83 178.91L3.39 190.79L14.36 194.28ZM48.03 160.66L45.47 148.76L34.49 145.27L26.07 153.68L28.63 165.58L39.61 169.07ZM28.63 165.58L26.07 153.68L15.09 150.20L6.67 158.61L9.24 170.50L20.21 173.98ZM55.70 196.35L53.15 184.45L42.17 180.96L33.75 189.36L36.31 201.25L47.28 204.74ZM36.31 201.25L33.75 189.36L22.78 185.88L14.36 194.28L16.93 206.17L27.90 209.65ZM61.57 176.05L59.01 164.15L48.03 160.66L39.61 169.07L42.17 180.96L53.15 184.45ZM125.71 141.03L123.16 129.12L112.16 125.62L103.72 134.03L106.28 145.93L117.27 149.44ZM106.28 145.93L103.72 134.03L92.73 130.53L84.30 138.93L86.85 150.84L97.84 154.34ZM131.60 120.72L129.05 108.80L118.06 105.30L109.61 113.71L112.16 125.62L123.16 129.12ZM112.16 125.62L109.61 113.71L98.62 110.21L90.18 118.62L92.73 130.53L103.72 134.03ZM139.25 156.45L136.70 144.54L125.71 141.03L117.27 149.44L119.82 161.34L130.80 164.85ZM119.82 161.34L117.27 149.44L106.28 145.93L97.84 154.34L100.39 166.24L111.38 169.74ZM145.15 136.14L142.60 124.22L131.60 120.72L123.16 129.12L125.71 141.03L136.70 144.54ZM73.31 135.44L70.75 123.53L59.76 120.04L51.33 128.45L53.89 140.35L64.88 143.85ZM53.89 140.35L51.33 128.45L40.35 124.96L31.92 133.37L34.49 145.27L45.47 148.76ZM79.19 115.12L76.63 103.21L65.64 99.72L57.20 108.13L59.76 120.04L70.75 123.53ZM59.76 120.04L57.20 108.13L46.21 104.64L37.79 113.06L40.35 124.96L51.33 128.45ZM86.85 150.84L84.30 138.93L73.31 135.44L64.88 143.85L67.44 155.75L78.42 159.24ZM67.44 155.75L64.88 143.85L53.89 140.35L45.47 148.76L48.03 160.66L59.01 164.15ZM92.73 130.53L90.18 118.62L79.19 115.12L70.75 123.53L73.31 135.44L84.30 138.93ZM115.69 237.63L113.14 225.74L102.16 222.23L93.74 230.62L96.29 242.52L107.26 246.02ZM96.29 242.52L93.74 230.62L82.76 227.12L74.34 235.51L76.89 247.40L87.86 250.90ZM121.57 217.35L119.02 205.45L108.04 201.94L99.61 210.34L102.16 222.23L113.14 225.74ZM102.16 222.23L99.61 210.34L88.63 206.84L80.21 215.23L82.76 227.12L93.74 230.62ZM109.81 257.91L107.26 246.02L96.29 242.52L87.86 250.90L90.41 262.79L101.38 266.29ZM63.37 232.02L60.81 220.13L49.84 216.63L41.43 225.03L43.98 236.92L54.95 240.41ZM43.98 236.92L41.43 225.03L30.46 221.54L22.05 229.94L24.61 241.82L35.57 245.31ZM69.23 211.73L66.68 199.84L55.70 196.35L47.28 204.74L49.84 216.63L60.81 220.13ZM49.84 216.63L47.28 204.74L36.31 201.25L27.90 209.65L30.46 221.54L41.43 225.03ZM76.89 247.40L74.34 235.51L63.37 232.02L54.95 240.41L57.51 252.30L68.48 255.79ZM57.51 252.30L54.95 240.41L43.98 236.92L35.57 245.31L38.13 257.19L49.10 260.68ZM82.76 227.12L80.21 215.23L69.23 211.73L60.81 220.13L63.37 232.02L74.34 235.51ZM127.46 197.05L124.91 185.15L113.93 181.65L105.49 190.04L108.04 201.94L119.02 205.45ZM133.35 176.75L130.80 164.85L119.82 161.34L111.38 169.74L113.93 181.65L124.91 185.15ZM3.39 190.79L0.83 178.91L-10.15 175.42L-18.55 183.83L-15.99 195.72L-5.02 199.20ZM9.24 170.50L6.67 158.61L-4.31 155.12L-12.71 163.54L-10.15 175.42L0.83 178.91ZM11.08 226.45L8.52 214.57L-2.45 211.08L-10.85 219.48L-8.29 231.36L2.68 234.85ZM16.93 206.17L14.36 194.28L3.39 190.79L-5.02 199.20L-2.45 211.08L8.52 214.57ZM24.61 241.82L22.05 229.94L11.08 226.45L2.68 234.85L5.24 246.73L16.20 250.21ZM5.24 246.73L2.68 234.85L-8.29 231.36L-16.69 239.76L-14.12 251.64L-3.16 255.12ZM30.46 221.54L27.90 209.65L16.93 206.17L8.52 214.57L11.08 226.45L22.05 229.94ZM135.76 44.29L133.21 32.37L122.20 28.86L113.74 37.29L116.30 49.21L127.30 52.71ZM116.30 49.21L113.74 37.29L102.73 33.79L94.28 42.21L96.84 54.13L107.85 57.63ZM141.67 23.94L139.11 12.01L128.10 8.51L119.64 16.94L122.20 28.86L133.21 32.37ZM122.20 28.86L119.64 16.94L108.63 13.44L100.18 21.86L102.73 33.79L113.74 37.29ZM149.32 59.72L146.77 47.80L135.76 44.29L127.30 52.71L129.85 64.63L140.86 68.14ZM129.85 64.63L127.30 52.71L116.30 49.21L107.85 57.63L110.40 69.55L121.40 73.05ZM155.23 39.38L152.68 27.45L141.67 23.94L133.21 32.37L135.76 44.29L146.77 47.80ZM83.28 38.72L80.72 26.80L69.71 23.30L61.27 31.73L63.83 43.65L74.84 47.14ZM63.83 43.65L61.27 31.73L50.27 28.24L41.83 36.67L44.40 48.59L55.39 52.07ZM89.17 18.37L86.61 6.44L75.60 2.95L67.15 11.38L69.71 23.30L80.72 26.80ZM69.71 23.30L67.15 11.38L56.15 7.89L47.70 16.32L50.27 28.24L61.27 31.73ZM96.84 54.13L94.28 42.21L83.28 38.72L74.84 47.14L77.39 59.06L88.40 62.55ZM77.39 59.06L74.84 47.14L63.83 43.65L55.39 52.07L57.96 63.99L68.95 67.48ZM102.73 33.79L100.18 21.86L89.17 18.37L80.72 26.80L83.28 38.72L94.28 42.21ZM167.06 -1.33L164.52 -13.27L153.49 -16.78L145.03 -8.35L147.58 3.59L158.60 7.09ZM147.58 3.59L145.03 -8.35L134.01 -11.85L125.55 -3.42L128.10 8.51L139.11 12.01ZM180.63 14.11L178.08 2.18L167.06 -1.33L158.60 7.09L161.14 19.03L172.16 22.54ZM161.14 19.03L158.60 7.09L147.58 3.59L139.11 12.01L141.67 23.94L152.68 27.45ZM186.56 -6.25L184.01 -18.19L172.99 -21.70L164.52 -13.27L167.06 -1.33L178.08 2.18ZM114.53 -6.92L111.97 -18.85L100.96 -22.35L92.50 -13.92L95.06 -1.99L106.07 1.51ZM95.06 -1.99L92.50 -13.92L81.49 -17.41L73.04 -8.97L75.60 2.95L86.61 6.44ZM128.10 8.51L125.55 -3.42L114.53 -6.92L106.07 1.51L108.63 13.44L119.64 16.94ZM108.63 13.44L106.07 1.51L95.06 -1.99L86.61 6.44L89.17 18.37L100.18 21.86ZM156.96 95.49L154.41 83.57L143.41 80.06L134.95 88.47L137.50 100.39L148.50 103.90ZM137.50 100.39L134.95 88.47L123.95 84.97L115.51 93.38L118.06 105.30L129.05 108.80ZM162.87 75.16L160.32 63.23L149.32 59.72L140.86 68.14L143.41 80.06L154.41 83.57ZM143.41 80.06L140.86 68.14L129.85 64.63L121.40 73.05L123.95 84.97L134.95 88.47ZM151.05 115.82L148.50 103.90L137.50 100.39L129.05 108.80L131.60 120.72L142.60 124.22ZM104.51 89.88L101.95 77.97L90.95 74.47L82.51 82.89L85.07 94.80L96.06 98.30ZM85.07 94.80L82.51 82.89L71.51 79.39L63.08 87.81L65.64 99.72L76.63 103.21ZM110.40 69.55L107.85 57.63L96.84 54.13L88.40 62.55L90.95 74.47L101.95 77.97ZM90.95 74.47L88.40 62.55L77.39 59.06L68.95 67.48L71.51 79.39L82.51 82.89ZM118.06 105.30L115.51 93.38L104.51 89.88L96.06 98.30L98.62 110.21L109.61 113.71ZM98.62 110.21L96.06 98.30L85.07 94.80L76.63 103.21L79.19 115.12L90.18 118.62ZM123.95 84.97L121.40 73.05L110.40 69.55L101.95 77.97L104.51 89.88L115.51 93.38ZM168.79 54.82L166.24 42.89L155.23 39.38L146.77 47.80L149.32 59.72L160.32 63.23ZM174.71 34.47L172.16 22.54L161.14 19.03L152.68 27.45L155.23 39.38L166.24 42.89ZM158.69 151.56L156.14 139.65L145.15 136.14L136.70 144.54L139.25 156.45L150.24 159.96ZM5.54 58.47L2.97 46.56L-8.02 43.08L-16.44 51.51L-13.87 63.42L-2.88 66.90ZM13.24 94.19L10.68 82.28L-0.31 78.80L-8.73 87.22L-6.16 99.13L4.82 102.61ZM19.10 73.86L16.54 61.95L5.54 58.47L-2.88 66.90L-0.31 78.80L10.68 82.28ZM30.83 33.19L28.26 21.27L17.26 17.79L8.83 26.22L11.40 38.13L22.40 41.61ZM11.40 38.13L8.83 26.22L-2.17 22.74L-10.59 31.17L-8.02 43.08L2.97 46.56ZM36.70 12.84L34.13 0.92L23.13 -2.56L14.69 5.87L17.26 17.79L28.26 21.27ZM17.26 17.79L14.69 5.87L3.69 2.39L-4.74 10.83L-2.17 22.74L8.83 26.22ZM44.40 48.59L41.83 36.67L30.83 33.19L22.40 41.61L24.96 53.53L35.96 57.01ZM24.96 53.53L22.40 41.61L11.40 38.13L2.97 46.56L5.54 58.47L16.54 61.95ZM50.27 28.24L47.70 16.32L36.70 12.84L28.26 21.27L30.83 33.19L41.83 36.67ZM20.94 129.89L18.38 117.99L7.39 114.51L-1.03 122.92L1.54 134.82L12.52 138.30ZM1.54 134.82L-1.03 122.92L-12.01 119.44L-20.42 127.86L-17.85 139.75L-6.87 143.23ZM26.80 109.57L24.23 97.67L13.24 94.19L4.82 102.61L7.39 114.51L18.38 117.99ZM7.39 114.51L4.82 102.61L-6.16 99.13L-14.58 107.55L-12.01 119.44L-1.03 122.92ZM34.49 145.27L31.92 133.37L20.94 129.89L12.52 138.30L15.09 150.20L26.07 153.68ZM15.09 150.20L12.52 138.30L1.54 134.82L-6.87 143.23L-4.31 155.12L6.67 158.61ZM40.35 124.96L37.79 113.06L26.80 109.57L18.38 117.99L20.94 129.89L31.92 133.37ZM52.08 84.32L49.52 72.41L38.53 68.92L30.10 77.34L32.66 89.25L43.65 92.74ZM32.66 89.25L30.10 77.34L19.10 73.86L10.68 82.28L13.24 94.19L24.23 97.67ZM57.96 63.99L55.39 52.07L44.40 48.59L35.96 57.01L38.53 68.92L49.52 72.41ZM38.53 68.92L35.96 57.01L24.96 53.53L16.54 61.95L19.10 73.86L30.10 77.34ZM65.64 99.72L63.08 87.81L52.08 84.32L43.65 92.74L46.21 104.64L57.20 108.13ZM46.21 104.64L43.65 92.74L32.66 89.25L24.23 97.67L26.80 109.57L37.79 113.06ZM71.51 79.39L68.95 67.48L57.96 63.99L49.52 72.41L52.08 84.32L63.08 87.81ZM42.57 -7.52L40.01 -19.44L29.00 -22.92L20.56 -14.48L23.13 -2.56L34.13 0.92ZM75.60 2.95L73.04 -8.97L62.03 -12.46L53.58 -4.03L56.15 7.89L67.15 11.38ZM56.15 7.89L53.58 -4.03L42.57 -7.52L34.13 0.92L36.70 12.84L47.70 16.32ZM23.13 -2.56L20.56 -14.48L9.55 -17.96L1.12 -9.52L3.69 2.39L14.69 5.87ZM3.69 2.39L1.12 -9.52L-9.88 -13.00L-18.31 -4.56L-15.74 7.35L-4.74 10.83Z"/></svg>
