<svg xmlns="http://www.w3.org/2000/svg" width="256" height="256" viewBox="0 0 256 256"><path data-band="1" fill="#fde68a" fill-opacity="0.35" d="M93.96 118.57L91.42 106.70L80.47 103.20L72.06 111.57L74.61 123.44L85.56 126.94ZM105.70 78.09L103.15 66.21L92.19 62.70L83.78 71.08L86.33 82.95L97.28 86.46ZM111.57 57.83L109.02 45.95L98.06 42.45L89.64 50.82L92.19 62.70L103.15 66.21ZM119.20 93.47L116.66 81.59L105.70 78.09L97.28 86.46L99.83 98.33L110.78 101.84ZM99.83 98.33L97.28 86.46L86.33 82.95L77.92 91.33L80.47 103.20L91.42 106.70ZM125.07 73.22L122.53 61.34L111.57 57.83L103.15 66.21L105.70 78.09L116.66 81.59ZM129.21 -2.97L126.66 -14.86L115.69 -18.37L107.26 -9.98L109.81 1.91L120.78 5.42ZM147.92 180.10L145.39 168.23L134.44 164.71L126.03 173.07L128.57 184.93L139.51 188.45ZM128.57 184.93L126.03 173.07L115.08 169.55L106.68 177.91L109.22 189.77L120.16 193.28ZM153.80 159.87L151.27 148.00L140.31 144.48L131.90 152.84L134.44 164.71L145.39 168.23ZM134.44 164.71L131.90 152.84L120.95 149.33L112.54 157.69L115.08 169.55L126.03 173.07ZM161.40 195.48L158.87 183.61L147.92 180.10L139.51 188.45L142.05 200.31L152.99 203.83ZM142.05 200.31L139.51 188.45L128.57 184.93L120.16 193.28L122.70 205.14L133.64 208.66ZM167.29 175.26L164.75 163.39L153.80 159.87L145.39 168.23L147.92 180.10L158.87 183.61ZM95.73 174.40L93.19 162.54L82.25 159.03L73.85 167.39L76.39 179.25L87.34 182.76ZM76.39 179.25L73.85 167.39L62.91 163.89L54.51 172.25L57.06 184.11L68.00 187.61ZM101.60 154.18L99.05 142.31L88.10 138.81L79.70 147.17L82.25 159.03L93.19 162.54ZM82.25 159.03L79.70 147.17L68.76 143.67L60.36 152.03L62.91 163.89L73.85 167.39ZM109.22 189.77L106.68 177.91L95.73 174.40L87.34 182.76L89.88 194.62L100.82 198.12ZM89.88 194.62L87.34 182.76L76.39 179.25L68.00 187.61L70.55 199.46L81.48 202.97ZM115.08 169.55L112.54 157.69L101.60 154.18L93.19 162.54L95.73 174.40L106.68 177.91ZM179.06 134.81L176.53 122.93L165.57 119.41L157.15 127.77L159.69 139.64L170.64 143.16ZM159.69 139.64L157.15 127.77L146.19 124.25L137.78 132.61L140.31 144.48L151.27 148.00ZM184.96 114.57L182.43 102.68L171.46 99.16L163.04 107.53L165.57 119.41L176.53 122.93ZM165.57 119.41L163.04 107.53L152.08 104.01L143.66 112.37L146.19 124.25L157.15 127.77ZM192.55 150.21L190.02 138.33L179.06 134.81L170.64 143.16L173.17 155.04L184.13 158.56ZM173.17 155.04L170.64 143.16L159.69 139.64L151.27 148.00L153.80 159.87L164.75 163.39ZM198.45 129.97L195.92 118.09L184.96 114.57L176.53 122.93L179.06 134.81L190.02 138.33ZM126.82 129.10L124.28 117.22L113.33 113.72L104.92 122.08L107.46 133.95L118.41 137.46ZM107.46 133.95L104.92 122.08L93.96 118.57L85.56 126.94L88.10 138.81L99.05 142.31ZM132.70 108.86L130.16 96.98L119.20 93.47L110.78 101.84L113.33 113.72L124.28 117.22ZM113.33 113.72L110.78 101.84L99.83 98.33L91.42 106.70L93.96 118.57L104.92 122.08ZM140.31 144.48L137.78 132.61L126.82 129.10L118.41 137.46L120.95 149.33L131.90 152.84ZM120.95 149.33L118.41 137.46L107.46 133.95L99.05 142.31L101.60 154.18L112.54 157.69ZM146.19 124.25L143.66 112.37L132.70 108.86L124.28 117.22L126.82 129.10L137.78 132.61ZM169.00 231.08L166.47 219.21L155.52 215.69L147.12 224.04L149.65 235.90L160.59 239.42ZM149.65 235.90L147.12 224.04L136.18 220.52L127.77 228.86L130.31 240.72L141.25 244.24ZM174.88 210.87L172.35 199.00L161.40 195.48L152.99 203.83L155.52 215.69L166.47 219.21ZM155.52 215.69L152.99 203.83L142.05 200.31L133.64 208.66L136.18 220.52L147.12 224.04ZM182.47 246.46L179.94 234.60L169.00 231.08L160.59 239.42L163.12 251.28L174.06 254.80ZM163.12 251.28L160.59 239.42L149.65 235.90L141.25 244.24L143.78 256.09L154.71 259.61ZM188.35 226.26L185.83 214.39L174.88 210.87L166.47 219.21L169.00 231.08L179.94 234.60ZM116.84 225.35L114.30 213.49L103.36 209.98L94.96 218.33L97.50 230.19L108.44 233.70ZM97.50 230.19L94.96 218.33L84.03 214.82L75.63 223.17L78.18 235.02L89.11 238.53ZM122.70 205.14L120.16 193.28L109.22 189.77L100.82 198.12L103.36 209.98L114.30 213.49ZM103.36 209.98L100.82 198.12L89.88 194.62L81.48 202.97L84.03 214.82L94.96 218.33ZM130.31 240.72L127.77 228.86L116.84 225.35L108.44 233.70L110.98 245.55L121.91 249.06ZM110.98 245.55L108.44 233.70L97.50 230.19L89.11 238.53L91.65 250.38L102.58 253.89ZM136.18 220.52L133.64 208.66L122.70 205.14L114.30 213.49L116.84 225.35L127.77 228.86ZM200.14 185.83L197.61 173.96L186.66 170.44L178.24 178.78L180.77 190.66L191.72 194.18ZM180.77 190.66L178.24 178.78L167.29 175.26L158.87 183.61L161.40 195.48L172.35 199.00ZM206.04 165.61L203.51 153.73L192.55 150.21L184.13 158.56L186.66 170.44L197.61 173.96ZM186.66 170.44L184.13 158.56L173.17 155.04L164.75 163.39L167.29 175.26L178.24 178.78ZM213.62 201.24L211.09 189.36L200.14 185.83L191.72 194.18L194.25 206.05L205.19 209.58ZM194.25 206.05L191.72 194.18L180.77 190.66L172.35 199.00L174.88 210.87L185.83 214.39ZM219.52 181.02L216.99 169.14L206.04 165.61L197.61 173.96L200.14 185.83L211.09 189.36ZM53.02 260.06L50.48 248.21L39.55 244.71L31.17 253.06L33.72 264.90L44.64 268.40ZM70.55 199.46L68.00 187.61L57.06 184.11L48.67 192.46L51.22 204.32L62.16 207.82ZM78.18 235.02L75.63 223.17L64.70 219.67L56.31 228.02L58.86 239.87L69.79 243.37ZM84.03 214.82L81.48 202.97L70.55 199.46L62.16 207.82L64.70 219.67L75.63 223.17ZM189.16 38.39L186.62 26.50L175.65 22.98L167.21 31.36L169.75 43.25L180.72 46.77ZM169.75 43.25L167.21 31.36L156.24 27.84L147.81 36.22L150.35 48.11L161.32 51.62ZM195.07 18.12L192.53 6.23L181.55 2.71L173.11 11.08L175.65 22.98L186.62 26.50ZM175.65 22.98L173.11 11.08L162.14 7.57L153.70 15.95L156.24 27.84L167.21 31.36ZM202.67 53.81L200.13 41.92L189.16 38.39L180.72 46.77L183.26 58.66L194.23 62.18ZM183.26 58.66L180.72 46.77L169.75 43.25L161.32 51.62L163.86 63.51L174.82 67.03ZM208.58 33.54L206.04 21.65L195.07 18.12L186.62 26.50L189.16 38.39L200.13 41.92ZM136.84 32.70L134.30 20.82L123.32 17.31L114.90 25.69L117.44 37.57L128.41 41.08ZM117.44 37.57L114.90 25.69L103.93 22.18L95.51 30.56L98.06 42.45L109.02 45.95ZM142.73 12.44L140.18 0.54L129.21 -2.97L120.78 5.42L123.32 17.31L134.30 20.82ZM123.32 17.31L120.78 5.42L109.81 1.91L101.38 10.29L103.93 22.18L114.90 25.69ZM150.35 48.11L147.81 36.22L136.84 32.70L128.41 41.08L130.95 52.97L141.92 56.48ZM130.95 52.97L128.41 41.08L117.44 37.57L109.02 45.95L111.57 57.83L122.53 61.34ZM156.24 27.84L153.70 15.95L142.73 12.44L134.30 20.82L136.84 32.70L147.81 36.22ZM220.41 -7.01L217.88 -18.91L206.89 -22.44L198.44 -14.06L200.98 -2.15L211.96 1.37ZM200.98 -2.15L198.44 -14.06L187.46 -17.58L179.02 -9.19L181.55 2.71L192.53 6.23ZM233.92 8.42L231.39 -3.48L220.41 -7.01L211.96 1.37L214.49 13.27L225.47 16.80ZM214.49 13.27L211.96 1.37L200.98 -2.15L192.53 6.23L195.07 18.12L206.04 21.65ZM148.62 -7.84L146.08 -19.74L135.10 -23.25L126.66 -14.86L129.21 -2.97L140.18 0.54ZM181.55 2.71L179.02 -9.19L168.03 -12.71L159.60 -4.33L162.14 7.57L173.11 11.08ZM162.14 7.57L159.60 -4.33L148.62 -7.84L140.18 0.54L142.73 12.44L153.70 15.95ZM210.26 89.48L207.73 77.59L196.76 74.07L188.33 82.44L190.86 94.32L201.82 97.85ZM190.86 94.32L188.33 82.44L177.36 78.91L168.93 87.28L171.46 99.16L182.43 102.68ZM216.17 69.23L213.64 57.34L202.67 53.81L194.23 62.18L196.76 74.07L207.73 77.59ZM196.76 74.07L194.23 62.18L183.26 58.66L174.82 67.03L177.36 78.91L188.33 82.44ZM223.76 104.90L221.23 93.01L210.26 89.48L201.82 97.85L204.35 109.73L215.32 113.26ZM204.35 109.73L201.82 97.85L190.86 94.32L182.43 102.68L184.96 114.57L195.92 118.09ZM229.67 84.65L227.14 72.76L216.17 69.23L207.73 77.59L210.26 89.48L221.23 93.01ZM157.96 83.76L155.43 71.88L144.46 68.36L136.04 76.73L138.58 88.62L149.54 92.13ZM138.58 88.62L136.04 76.73L125.07 73.22L116.66 81.59L119.20 93.47L130.16 96.98ZM163.86 63.51L161.32 51.62L150.35 48.11L141.92 56.48L144.46 68.36L155.43 71.88ZM144.46 68.36L141.92 56.48L130.95 52.97L122.53 61.34L125.07 73.22L136.04 76.73ZM171.46 99.16L168.93 87.28L157.96 83.76L149.54 92.13L152.08 104.01L163.04 107.53ZM152.08 104.01L149.54 92.13L138.58 88.62L130.16 96.98L132.70 108.86L143.66 112.37ZM177.36 78.91L174.82 67.03L163.86 63.51L155.43 71.88L157.96 83.76L168.93 87.28ZM241.51 44.13L238.98 32.23L228.00 28.70L219.55 37.07L222.08 48.97L233.06 52.50ZM222.08 48.97L219.55 37.07L208.58 33.54L200.13 41.92L202.67 53.81L213.64 57.34ZM247.44 23.86L244.91 11.95L233.92 8.42L225.47 16.80L228.00 28.70L238.98 32.23ZM228.00 28.70L225.47 16.80L214.49 13.27L206.04 21.65L208.58 33.54L219.55 37.07ZM255.01 59.56L252.49 47.66L241.51 44.13L233.06 52.50L235.59 64.39L246.56 67.92ZM235.59 64.39L233.06 52.50L222.08 48.97L213.64 57.34L216.17 69.23L227.14 72.76ZM260.94 39.29L258.42 27.39L247.44 23.86L238.98 32.23L241.51 44.13L252.49 47.66ZM248.12 267.65L245.60 255.78L234.66 252.25L226.23 260.58L228.75 272.44L239.70 275.98ZM195.93 261.85L193.41 249.99L182.47 246.46L174.06 254.80L176.59 266.66L187.52 270.18ZM176.59 266.66L174.06 254.80L163.12 251.28L154.71 259.61L157.24 271.47L168.18 274.99ZM273.41 242.66L270.89 230.79L259.94 227.25L251.51 235.58L254.03 247.45L264.98 250.99ZM254.03 247.45L251.51 235.58L240.56 232.04L232.14 240.38L234.66 252.25L245.60 255.78ZM259.94 227.25L257.42 215.37L246.47 211.83L238.04 220.17L240.56 232.04L251.51 235.58ZM267.49 262.86L264.98 250.99L254.03 247.45L245.60 255.78L248.12 267.65L259.06 271.19ZM221.19 236.85L218.67 224.98L207.72 221.45L199.30 229.79L201.82 241.65L212.77 245.18ZM201.82 241.65L199.30 229.79L188.35 226.26L179.94 234.60L182.47 246.46L193.41 249.99ZM227.09 216.64L224.57 204.77L213.62 201.24L205.19 209.58L207.72 221.45L218.67 224.98ZM207.72 221.45L205.19 209.58L194.25 206.05L185.83 214.39L188.35 226.26L199.30 229.79ZM234.66 252.25L232.14 240.38L221.19 236.85L212.77 245.18L215.29 257.05L226.23 260.58ZM215.29 257.05L212.77 245.18L201.82 241.65L193.41 249.99L195.93 261.85L206.87 265.38ZM240.56 232.04L238.04 220.17L227.09 216.64L218.67 224.98L221.19 236.85L232.14 240.38ZM143.78 256.09L141.25 244.24L130.31 240.72L121.91 249.06L124.45 260.92L135.38 264.43ZM124.45 260.92L121.91 249.06L110.98 245.55L102.58 253.89L105.12 265.74L116.05 269.25ZM85.80 270.57L83.26 258.72L72.33 255.22L63.95 263.56L66.49 275.41L77.42 278.91ZM91.65 250.38L89.11 238.53L78.18 235.02L69.79 243.37L72.33 255.22L83.26 258.72ZM72.33 255.22L69.79 243.37L58.86 239.87L50.48 248.21L53.02 260.06L63.95 263.56ZM105.12 265.74L102.58 253.89L91.65 250.38L83.26 258.72L85.80 270.57L96.73 274.08ZM264.22 151.16L261.70 139.28L250.74 135.74L242.30 144.09L244.82 155.97L255.78 159.51ZM270.15 130.93L267.63 119.03L256.66 115.50L248.21 123.85L250.74 135.74L261.70 139.28ZM277.70 166.59L275.19 154.70L264.22 151.16L255.78 159.51L258.30 171.39L269.26 174.93ZM231.33 140.56L228.81 128.67L217.85 125.14L209.41 133.50L211.94 145.38L222.90 148.91ZM211.94 145.38L209.41 133.50L198.45 129.97L190.02 138.33L192.55 150.21L203.51 153.73ZM237.25 120.32L234.72 108.43L223.76 104.90L215.32 113.26L217.85 125.14L228.81 128.67ZM217.85 125.14L215.32 113.26L204.35 109.73L195.92 118.09L198.45 129.97L209.41 133.50ZM244.82 155.97L242.30 144.09L231.33 140.56L222.90 148.91L225.42 160.79L236.38 164.32ZM225.42 160.79L222.90 148.91L211.94 145.38L203.51 153.73L206.04 165.61L216.99 169.14ZM250.74 135.74L248.21 123.85L237.25 120.32L228.81 128.67L231.33 140.56L242.30 144.09ZM262.58 95.25L260.06 83.35L249.09 79.82L240.64 88.18L243.17 100.07L254.14 103.61ZM243.17 100.07L240.64 88.18L229.67 84.65L221.23 93.01L223.76 104.90L234.72 108.43ZM268.51 74.99L265.99 63.10L255.01 59.56L246.56 67.92L249.09 79.82L260.06 83.35ZM249.09 79.82L246.56 67.92L235.59 64.39L227.14 72.76L229.67 84.65L240.64 88.18ZM276.08 110.68L273.56 98.79L262.58 95.25L254.14 103.61L256.66 115.50L267.63 119.03ZM256.66 115.50L254.14 103.61L243.17 100.07L234.72 108.43L237.25 120.32L248.21 123.85ZM252.38 191.62L249.86 179.74L238.91 176.20L230.47 184.55L233.00 196.42L243.95 199.96ZM233.00 196.42L230.47 184.55L219.52 181.02L211.09 189.36L213.62 201.24L224.57 204.77ZM258.30 171.39L255.78 159.51L244.82 155.97L236.38 164.32L238.91 176.20L249.86 179.74ZM238.91 176.20L236.38 164.32L225.42 160.79L216.99 169.14L219.52 181.02L230.47 184.55ZM265.86 207.03L263.34 195.16L252.38 191.62L243.95 199.96L246.47 211.83L257.42 215.37ZM246.47 211.83L243.95 199.96L233.00 196.42L224.57 204.77L227.09 216.64L238.04 220.17ZM271.78 186.81L269.26 174.93L258.30 171.39L249.86 179.74L252.38 191.62L263.34 195.16ZM272.81 -1.26L270.29 -13.17L259.30 -16.71L250.84 -8.33L253.37 3.58L264.35 7.11ZM253.37 3.58L250.84 -8.33L239.85 -11.86L231.39 -3.48L233.92 8.42L244.91 11.95ZM266.88 19.02L264.35 7.11L253.37 3.58L244.91 11.95L247.44 23.86L258.42 27.39ZM274.45 54.73L271.92 42.83L260.94 39.29L252.49 47.66L255.01 59.56L265.99 63.10Z"/><path data-band="2" fill="#f97316" fill-opacity="0.35" d="M53.46 72.46L50.91 60.58L39.95 57.09L31.55 65.47L34.10 77.34L45.06 80.83ZM34.10 77.34L31.55 65.47L20.59 61.98L12.20 70.36L14.76 82.22L25.71 85.71ZM59.31 52.20L56.76 40.33L45.80 36.83L37.39 45.21L39.95 57.09L50.91 60.58ZM39.95 57.09L37.39 45.21L26.44 41.72L18.04 50.10L20.59 61.98L31.55 65.47ZM66.96 87.83L64.41 75.95L53.46 72.46L45.06 80.83L47.61 92.70L58.56 96.20ZM47.61 92.70L45.06 80.83L34.10 77.34L25.71 85.71L28.26 97.58L39.21 101.07ZM72.82 67.58L70.27 55.70L59.31 52.20L50.91 60.58L53.46 72.46L64.41 75.95ZM1.25 66.87L-1.31 55.00L-12.26 51.52L-20.65 59.90L-18.09 71.76L-7.14 75.25ZM7.08 46.62L4.52 34.74L-6.43 31.26L-14.83 39.65L-12.26 51.52L-1.31 55.00ZM14.76 82.22L12.20 70.36L1.25 66.87L-7.14 75.25L-4.58 87.11L6.37 90.60ZM20.59 61.98L18.04 50.10L7.08 46.62L-1.31 55.00L1.25 66.87L12.20 70.36ZM84.55 27.06L82.00 15.18L71.03 11.68L62.62 20.06L65.17 31.94L76.13 35.44ZM65.17 31.94L62.62 20.06L51.65 16.57L43.24 24.95L45.80 36.83L56.76 40.33ZM90.41 6.79L87.86 -5.10L76.89 -8.60L68.48 -0.21L71.03 11.68L82.00 15.18ZM71.03 11.68L68.48 -0.21L57.51 -3.70L49.10 4.68L51.65 16.57L62.62 20.06ZM98.06 42.45L95.51 30.56L84.55 27.06L76.13 35.44L78.68 47.32L89.64 50.82ZM78.68 47.32L76.13 35.44L65.17 31.94L56.76 40.33L59.31 52.20L70.27 55.70ZM103.93 22.18L101.38 10.29L90.41 6.79L82.00 15.18L84.55 27.06L95.51 30.56ZM32.28 21.46L29.72 9.58L18.76 6.09L10.36 14.48L12.92 26.36L23.88 29.85ZM12.92 26.36L10.36 14.48L-0.60 11.00L-9.00 19.39L-6.43 31.26L4.52 34.74ZM38.13 1.19L35.57 -10.69L24.61 -14.18L16.20 -5.79L18.76 6.09L29.72 9.58ZM18.76 6.09L16.20 -5.79L5.24 -9.27L-3.16 -0.88L-0.60 11.00L10.36 14.48ZM45.80 36.83L43.24 24.95L32.28 21.46L23.88 29.85L26.44 41.72L37.39 45.21ZM26.44 41.72L23.88 29.85L12.92 26.36L4.52 34.74L7.08 46.62L18.04 50.10ZM51.65 16.57L49.10 4.68L38.13 1.19L29.72 9.58L32.28 21.46L43.24 24.95ZM74.61 123.44L72.06 111.57L61.11 108.07L52.71 116.44L55.26 128.30L66.21 131.80ZM55.26 128.30L52.71 116.44L41.76 112.94L33.37 121.31L35.92 133.17L46.87 136.67ZM80.47 103.20L77.92 91.33L66.96 87.83L58.56 96.20L61.11 108.07L72.06 111.57ZM61.11 108.07L58.56 96.20L47.61 92.70L39.21 101.07L41.76 112.94L52.71 116.44ZM88.10 138.81L85.56 126.94L74.61 123.44L66.21 131.80L68.76 143.67L79.70 147.17ZM68.76 143.67L66.21 131.80L55.26 128.30L46.87 136.67L49.42 148.53L60.36 152.03ZM22.42 117.82L19.87 105.95L8.92 102.46L0.54 110.84L3.09 122.70L14.04 126.19ZM3.09 122.70L0.54 110.84L-10.41 107.35L-18.79 115.73L-16.23 127.58L-5.29 131.07ZM28.26 97.58L25.71 85.71L14.76 82.22L6.37 90.60L8.92 102.46L19.87 105.95ZM8.92 102.46L6.37 90.60L-4.58 87.11L-12.97 95.49L-10.41 107.35L0.54 110.84ZM35.92 133.17L33.37 121.31L22.42 117.82L14.04 126.19L16.59 138.05L27.53 141.54ZM16.59 138.05L14.04 126.19L3.09 122.70L-5.29 131.07L-2.73 142.92L8.21 146.41ZM41.76 112.94L39.21 101.07L28.26 97.58L19.87 105.95L22.42 117.82L33.37 121.31ZM86.33 82.95L83.78 71.08L72.82 67.58L64.41 75.95L66.96 87.83L77.92 91.33ZM92.19 62.70L89.64 50.82L78.68 47.32L70.27 55.70L72.82 67.58L83.78 71.08ZM109.81 1.91L107.26 -9.98L96.29 -13.48L87.86 -5.10L90.41 6.79L101.38 10.29ZM57.51 -3.70L54.95 -15.59L43.98 -19.08L35.57 -10.69L38.13 1.19L49.10 4.68ZM12.60 214.03L10.04 202.18L-0.89 198.69L-9.26 207.05L-6.71 218.90L4.22 222.39ZM18.42 193.83L15.87 181.98L4.93 178.48L-3.44 186.85L-0.89 198.69L10.04 202.18ZM26.08 229.37L23.52 217.52L12.60 214.03L4.22 222.39L6.77 234.23L17.70 237.72ZM6.77 234.23L4.22 222.39L-6.71 218.90L-15.07 227.25L-12.52 239.09L-1.60 242.58ZM31.90 209.17L29.35 197.32L18.42 193.83L10.04 202.18L12.60 214.03L23.52 217.52ZM43.58 168.75L41.03 156.89L30.08 153.40L21.70 161.76L24.25 173.62L35.19 177.11ZM24.25 173.62L21.70 161.76L10.76 158.27L2.38 166.63L4.93 178.48L15.87 181.98ZM49.42 148.53L46.87 136.67L35.92 133.17L27.53 141.54L30.08 153.40L41.03 156.89ZM30.08 153.40L27.53 141.54L16.59 138.05L8.21 146.41L10.76 158.27L21.70 161.76ZM57.06 184.11L54.51 172.25L43.58 168.75L35.19 177.11L37.74 188.96L48.67 192.46ZM37.74 188.96L35.19 177.11L24.25 173.62L15.87 181.98L18.42 193.83L29.35 197.32ZM62.91 163.89L60.36 152.03L49.42 148.53L41.03 156.89L43.58 168.75L54.51 172.25ZM4.93 178.48L2.38 166.63L-8.56 163.14L-16.93 171.51L-14.37 183.36L-3.44 186.85ZM10.76 158.27L8.21 146.41L-2.73 142.92L-11.11 151.29L-8.56 163.14L2.38 166.63ZM33.72 264.90L31.17 253.06L20.25 249.57L11.88 257.91L14.43 269.75L25.35 273.25ZM14.43 269.75L11.88 257.91L0.96 254.42L-7.41 262.77L-4.86 274.60L6.06 278.10ZM39.55 244.71L37.00 232.87L26.08 229.37L17.70 237.72L20.25 249.57L31.17 253.06ZM20.25 249.57L17.70 237.72L6.77 234.23L-1.60 242.58L0.96 254.42L11.88 257.91ZM0.96 254.42L-1.60 242.58L-12.52 239.09L-20.89 247.44L-18.33 259.28L-7.41 262.77ZM64.70 219.67L62.16 207.82L51.22 204.32L42.84 212.67L45.38 224.52L56.31 228.02ZM45.38 224.52L42.84 212.67L31.90 209.17L23.52 217.52L26.08 229.37L37.00 232.87ZM51.22 204.32L48.67 192.46L37.74 188.96L29.35 197.32L31.90 209.17L42.84 212.67ZM58.86 239.87L56.31 228.02L45.38 224.52L37.00 232.87L39.55 244.71L50.48 248.21Z"/></svg>
