<svg xmlns="http://www.w3.org/2000/svg" width="256" height="256" viewBox="0 0 256 256"><path data-band="1" fill="#fde68a" fill-opacity="0.35" d="M160.94 43.59L158.43 31.82L147.58 28.28L139.24 36.53L141.75 48.30L152.60 51.83ZM141.75 48.30L139.24 36.53L128.39 33.00L120.06 41.24L122.58 53.01L133.42 56.54ZM147.58 28.28L145.06 16.51L134.21 12.98L125.88 21.22L128.39 33.00L139.24 36.53ZM155.11 63.60L152.60 51.83L141.75 48.30L133.42 56.54L135.93 68.31L146.78 71.84ZM172.60 3.55L170.09 -8.23L159.23 -11.77L150.89 -3.52L153.40 8.26L164.26 11.79ZM5.86 26.09L3.33 14.33L-7.51 10.82L-15.81 19.08L-13.28 30.84L-2.44 34.34ZM11.64 6.07L9.10 -5.69L-1.74 -9.20L-10.04 -0.94L-7.51 10.82L3.33 14.33ZM19.23 41.35L16.70 29.59L5.86 26.09L-2.44 34.34L0.09 46.09L10.92 49.60ZM0.09 46.09L-2.44 34.34L-13.28 30.84L-21.57 39.09L-19.04 50.84L-8.21 54.34ZM25.01 21.34L22.48 9.58L11.64 6.07L3.33 14.33L5.86 26.09L16.70 29.59ZM49.95 -3.42L47.42 -15.19L36.57 -18.70L28.26 -10.44L30.79 1.32L41.63 4.83ZM30.79 1.32L28.26 -10.44L17.41 -13.95L9.10 -5.69L11.64 6.07L22.48 9.58ZM78.45 82.44L75.93 70.68L65.10 67.16L56.78 75.40L59.31 87.16L70.14 90.68ZM59.31 87.16L56.78 75.40L45.95 71.89L37.64 80.13L40.17 91.88L51.00 95.40ZM84.25 62.44L81.73 50.68L70.89 47.16L62.57 55.40L65.10 67.16L75.93 70.68ZM65.10 67.16L62.57 55.40L51.74 51.89L43.42 60.13L45.95 71.89L56.78 75.40ZM91.80 97.72L89.29 85.96L78.45 82.44L70.14 90.68L72.66 102.44L83.49 105.96ZM72.66 102.44L70.14 90.68L59.31 87.16L51.00 95.40L53.52 107.15L64.35 110.67ZM97.60 77.73L95.09 65.96L84.25 62.44L75.93 70.68L78.45 82.44L89.29 85.96ZM26.81 76.62L24.28 64.86L13.45 61.36L5.15 69.60L7.68 81.35L18.51 84.86ZM7.68 81.35L5.15 69.60L-5.68 66.10L-13.97 74.34L-11.44 86.09L-0.61 89.60ZM32.59 56.62L30.06 44.86L19.23 41.35L10.92 49.60L13.45 61.36L24.28 64.86ZM13.45 61.36L10.92 49.60L0.09 46.09L-8.21 54.34L-5.68 66.10L5.15 69.60ZM40.17 91.88L37.64 80.13L26.81 76.62L18.51 84.86L21.04 96.61L31.87 100.12ZM21.04 96.61L18.51 84.86L7.68 81.35L-0.61 89.60L1.92 101.34L12.74 104.85ZM45.95 71.89L43.42 60.13L32.59 56.62L24.28 64.86L26.81 76.62L37.64 80.13ZM109.22 37.71L106.70 25.94L95.85 22.42L87.53 30.67L90.05 42.43L100.89 45.96ZM90.05 42.43L87.53 30.67L76.68 27.15L68.37 35.39L70.89 47.16L81.73 50.68ZM115.03 17.70L112.51 5.92L101.66 2.40L93.33 10.65L95.85 22.42L106.70 25.94ZM95.85 22.42L93.33 10.65L82.49 7.13L74.16 15.38L76.68 27.15L87.53 30.67ZM122.58 53.01L120.06 41.24L109.22 37.71L100.89 45.96L103.41 57.72L114.25 61.25ZM103.41 57.72L100.89 45.96L90.05 42.43L81.73 50.68L84.25 62.44L95.09 65.96ZM128.39 33.00L125.88 21.22L115.03 17.70L106.70 25.94L109.22 37.71L120.06 41.24ZM57.52 31.88L55.00 20.11L44.16 16.60L35.84 24.85L38.37 36.61L49.21 40.13ZM38.37 36.61L35.84 24.85L25.01 21.34L16.70 29.59L19.23 41.35L30.06 44.86ZM63.32 11.86L60.79 0.09L49.95 -3.42L41.63 4.83L44.16 16.60L55.00 20.11ZM44.16 16.60L41.63 4.83L30.79 1.32L22.48 9.58L25.01 21.34L35.84 24.85ZM70.89 47.16L68.37 35.39L57.52 31.88L49.21 40.13L51.74 51.89L62.57 55.40ZM51.74 51.89L49.21 40.13L38.37 36.61L30.06 44.86L32.59 56.62L43.42 60.13ZM76.68 27.15L74.16 15.38L63.32 11.86L55.00 20.11L57.52 31.88L68.37 35.39ZM99.35 132.99L96.84 121.24L86.01 117.71L77.70 125.94L80.22 137.69L91.04 141.22ZM80.22 137.69L77.70 125.94L66.87 122.42L58.56 130.65L61.09 142.40L71.91 145.92ZM105.15 113.00L102.64 101.25L91.80 97.72L83.49 105.96L86.01 117.71L96.84 121.24ZM86.01 117.71L83.49 105.96L72.66 102.44L64.35 110.67L66.87 122.42L77.70 125.94ZM112.70 148.27L110.18 136.52L99.35 132.99L91.04 141.22L93.56 152.97L104.38 156.49ZM93.56 152.97L91.04 141.22L80.22 137.69L71.91 145.92L74.43 157.67L85.25 161.19ZM118.50 128.29L115.99 116.53L105.15 113.00L96.84 121.24L99.35 132.99L110.18 136.52ZM47.74 127.14L45.22 115.39L34.39 111.87L26.09 120.11L28.62 131.85L39.44 135.37ZM28.62 131.85L26.09 120.11L15.27 116.60L6.97 124.83L9.50 136.58L20.32 140.09ZM53.52 107.15L51.00 95.40L40.17 91.88L31.87 100.12L34.39 111.87L45.22 115.39ZM34.39 111.87L31.87 100.12L21.04 96.61L12.74 104.85L15.27 116.60L26.09 120.11ZM61.09 142.40L58.56 130.65L47.74 127.14L39.44 135.37L41.96 147.11L52.78 150.63ZM41.96 147.11L39.44 135.37L28.62 131.85L20.32 140.09L22.85 151.83L33.67 155.34ZM66.87 122.42L64.35 110.67L53.52 107.15L45.22 115.39L47.74 127.14L58.56 130.65ZM130.12 88.31L127.61 76.54L116.77 73.01L108.44 81.25L110.96 93.01L121.79 96.54ZM110.96 93.01L108.44 81.25L97.60 77.73L89.29 85.96L91.80 97.72L102.64 101.25ZM135.93 68.31L133.42 56.54L122.58 53.01L114.25 61.25L116.77 73.01L127.61 76.54ZM116.77 73.01L114.25 61.25L103.41 57.72L95.09 65.96L97.60 77.73L108.44 81.25ZM124.31 108.30L121.79 96.54L110.96 93.01L102.64 101.25L105.15 113.00L115.99 116.53ZM1.92 101.34L-0.61 89.60L-11.44 86.09L-19.73 94.33L-17.20 106.08L-6.38 109.58ZM9.50 136.58L6.97 124.83L-3.85 121.33L-12.14 129.56L-9.61 141.30L1.21 144.81ZM15.27 116.60L12.74 104.85L1.92 101.34L-6.38 109.58L-3.85 121.33L6.97 124.83ZM140.03 -7.05L137.52 -18.83L126.66 -22.36L118.33 -14.10L120.84 -2.33L131.70 1.20ZM120.84 -2.33L118.33 -14.10L107.47 -17.63L99.14 -9.38L101.66 2.40L112.51 5.92ZM153.40 8.26L150.89 -3.52L140.03 -7.05L131.70 1.20L134.21 12.98L145.06 16.51ZM134.21 12.98L131.70 1.20L120.84 -2.33L112.51 5.92L115.03 17.70L125.88 21.22ZM69.11 -8.16L66.59 -19.93L55.74 -23.45L47.42 -15.19L49.95 -3.42L60.79 0.09ZM101.66 2.40L99.14 -9.38L88.29 -12.90L79.96 -4.64L82.49 7.13L93.33 10.65ZM82.49 7.13L79.96 -4.64L69.11 -8.16L60.79 0.09L63.32 11.86L74.16 15.38ZM101.10 188.21L98.59 176.46L87.77 172.94L79.46 181.16L81.98 192.90L92.79 196.43ZM106.90 168.24L104.38 156.49L93.56 152.97L85.25 161.19L87.77 172.94L98.59 176.46ZM114.43 203.48L111.92 191.74L101.10 188.21L92.79 196.43L95.31 208.17L106.12 211.70ZM131.84 143.58L129.33 131.82L118.50 128.29L110.18 136.52L112.70 148.27L123.52 151.80ZM137.65 123.59L135.14 111.83L124.31 108.30L115.99 116.53L118.50 128.29L129.33 131.82ZM37.98 222.25L35.46 210.52L24.65 207.00L16.37 215.22L18.89 226.95L29.70 230.47ZM18.89 226.95L16.37 215.22L5.56 211.71L-2.72 219.93L-0.20 231.66L10.61 235.17ZM43.75 202.30L41.23 190.56L30.42 187.05L22.13 195.27L24.65 207.00L35.46 210.52ZM24.65 207.00L22.13 195.27L11.32 191.76L3.03 199.98L5.56 211.71L16.37 215.22ZM51.31 237.50L48.79 225.77L37.98 222.25L29.70 230.47L32.22 242.20L43.02 245.72ZM32.22 242.20L29.70 230.47L18.89 226.95L10.61 235.17L13.13 246.90L23.93 250.41ZM57.08 217.56L54.57 205.82L43.75 202.30L35.46 210.52L37.98 222.25L48.79 225.77ZM5.56 211.71L3.03 199.98L-7.77 196.47L-16.05 204.70L-13.53 216.42L-2.72 219.93ZM68.64 177.64L66.12 165.89L55.30 162.37L47.01 170.60L49.53 182.34L60.34 185.86ZM49.53 182.34L47.01 170.60L36.19 167.08L27.90 175.31L30.42 187.05L41.23 190.56ZM74.43 157.67L71.91 145.92L61.09 142.40L52.78 150.63L55.30 162.37L66.12 165.89ZM55.30 162.37L52.78 150.63L41.96 147.11L33.67 155.34L36.19 167.08L47.01 170.60ZM81.98 192.90L79.46 181.16L68.64 177.64L60.34 185.86L62.86 197.60L73.68 201.12ZM62.86 197.60L60.34 185.86L49.53 182.34L41.23 190.56L43.75 202.30L54.57 205.82ZM87.77 172.94L85.25 161.19L74.43 157.67L66.12 165.89L68.64 177.64L79.46 181.16ZM17.08 171.80L14.56 160.06L3.74 156.55L-4.55 164.78L-2.02 176.51L8.79 180.02ZM22.85 151.83L20.32 140.09L9.50 136.58L1.21 144.81L3.74 156.55L14.56 160.06ZM3.74 156.55L1.21 144.81L-9.61 141.30L-17.89 149.54L-15.36 161.27L-4.55 164.78ZM30.42 187.05L27.90 175.31L17.08 171.80L8.79 180.02L11.32 191.76L22.13 195.27ZM11.32 191.76L8.79 180.02L-2.02 176.51L-10.30 184.74L-7.77 196.47L3.03 199.98ZM36.19 167.08L33.67 155.34L22.85 151.83L14.56 160.06L17.08 171.80L27.90 175.31ZM64.63 252.76L62.12 241.02L51.31 237.50L43.02 245.72L45.54 257.44L56.35 260.96ZM45.54 257.44L43.02 245.72L32.22 242.20L23.93 250.41L26.46 262.14L37.26 265.65ZM77.95 268.01L75.44 256.28L64.63 252.76L56.35 260.96L58.86 272.69L69.66 276.22ZM7.38 266.83L4.85 255.11L-5.95 251.60L-14.22 259.81L-11.69 271.53L-0.90 275.04ZM13.13 246.90L10.61 235.17L-0.20 231.66L-8.47 239.88L-5.95 251.60L4.85 255.11ZM26.46 262.14L23.93 250.41L13.13 246.90L4.85 255.11L7.38 266.83L18.18 270.35ZM89.52 228.12L87.01 216.39L76.19 212.86L67.90 221.08L70.41 232.81L81.22 236.34ZM70.41 232.81L67.90 221.08L57.08 217.56L48.79 225.77L51.31 237.50L62.12 241.02ZM95.31 208.17L92.79 196.43L81.98 192.90L73.68 201.12L76.19 212.86L87.01 216.39ZM76.19 212.86L73.68 201.12L62.86 197.60L54.57 205.82L57.08 217.56L67.90 221.08ZM102.84 243.39L100.33 231.65L89.52 228.12L81.22 236.34L83.74 248.07L94.54 251.60ZM83.74 248.07L81.22 236.34L70.41 232.81L62.12 241.02L64.63 252.76L75.44 256.28ZM108.64 223.44L106.12 211.70L95.31 208.17L87.01 216.39L89.52 228.12L100.33 231.65Z"/></svg>
