<svg xmlns="http://www.w3.org/2000/svg" width="256" height="256" viewBox="0 0 256 256"><path data-band="1" fill="#fde68a" fill-opacity="0.35" d="M1.34 215.69L-1.18 204.00L-11.95 200.48L-20.19 208.66L-17.67 220.35L-6.91 223.86ZM7.07 195.82L4.56 184.13L-6.21 180.61L-14.47 188.79L-11.95 200.48L-1.18 204.00ZM8.88 250.75L6.37 239.07L-4.39 235.55L-12.64 243.72L-10.12 255.41L0.64 258.92ZM14.62 230.90L12.10 219.21L1.34 215.69L-6.91 223.86L-4.39 235.55L6.37 239.07ZM22.16 265.96L19.64 254.27L8.88 250.75L0.64 258.92L3.15 270.61L13.91 274.12ZM3.15 270.61L0.64 258.92L-10.12 255.41L-18.36 263.57L-15.85 275.26L-5.09 278.77ZM27.90 246.11L25.38 234.42L14.62 230.90L6.37 239.07L8.88 250.75L19.64 254.27ZM79.71 67.12L77.20 55.39L66.40 51.87L58.12 60.07L60.64 71.79L71.43 75.31ZM60.64 71.79L58.12 60.07L47.33 56.55L39.05 64.75L41.56 76.46L52.36 79.98ZM85.49 47.20L82.98 35.47L72.18 31.94L63.89 40.15L66.40 51.87L77.20 55.39ZM66.40 51.87L63.89 40.15L53.09 36.62L44.81 44.83L47.33 56.55L58.12 60.07ZM3.44 85.83L0.92 74.11L-9.86 70.60L-18.13 78.80L-15.60 90.51L-4.82 94.02ZM11.00 120.95L8.48 109.24L-2.30 105.73L-10.56 113.92L-8.04 125.63L2.74 129.14ZM16.75 101.05L14.23 89.34L3.44 85.83L-4.82 94.02L-2.30 105.73L8.48 109.24ZM28.26 61.23L25.74 49.51L14.94 46.00L6.67 54.20L9.19 65.91L19.98 69.43ZM9.19 65.91L6.67 54.20L-4.12 50.69L-12.39 58.89L-9.86 70.60L0.92 74.11ZM34.01 41.31L31.49 29.59L20.70 26.07L12.42 34.28L14.94 46.00L25.74 49.51ZM14.94 46.00L12.42 34.28L1.63 30.76L-6.64 38.97L-4.12 50.69L6.67 54.20ZM41.56 76.46L39.05 64.75L28.26 61.23L19.98 69.43L22.50 81.14L33.29 84.66ZM22.50 81.14L19.98 69.43L9.19 65.91L0.92 74.11L3.44 85.83L14.23 89.34ZM47.33 56.55L44.81 44.83L34.01 41.31L25.74 49.51L28.26 61.23L39.05 64.75ZM18.55 156.06L16.04 144.36L5.26 140.84L-3.00 149.03L-0.48 160.73L10.30 164.25ZM24.30 136.17L21.79 124.47L11.00 120.95L2.74 129.14L5.26 140.84L16.04 144.36ZM5.26 140.84L2.74 129.14L-8.04 125.63L-16.29 133.82L-13.77 145.52L-3.00 149.03ZM31.85 171.28L29.33 159.58L18.55 156.06L10.30 164.25L12.81 175.94L23.59 179.46ZM12.81 175.94L10.30 164.25L-0.48 160.73L-8.73 168.91L-6.21 180.61L4.56 184.13ZM37.60 151.40L35.08 139.69L24.30 136.17L16.04 144.36L18.55 156.06L29.33 159.58ZM49.11 111.61L46.59 99.89L35.81 96.37L27.54 104.57L30.05 116.28L40.84 119.80ZM30.05 116.28L27.54 104.57L16.75 101.05L8.48 109.24L11.00 120.95L21.79 124.47ZM54.87 91.70L52.36 79.98L41.56 76.46L33.29 84.66L35.81 96.37L46.59 99.89ZM35.81 96.37L33.29 84.66L22.50 81.14L14.23 89.34L16.75 101.05L27.54 104.57ZM62.41 126.84L59.90 115.13L49.11 111.61L40.84 119.80L43.35 131.51L54.13 135.03ZM43.35 131.51L40.84 119.80L30.05 116.28L21.79 124.47L24.30 136.17L35.08 139.69ZM58.86 16.69L56.35 4.96L45.54 1.44L37.26 9.65L39.78 21.38L50.58 24.90ZM39.78 21.38L37.26 9.65L26.46 6.14L18.18 14.35L20.70 26.07L31.49 29.59ZM64.63 -3.24L62.12 -14.98L51.31 -18.50L43.02 -10.28L45.54 1.44L56.35 4.96ZM45.54 1.44L43.02 -10.28L32.22 -13.80L23.93 -5.59L26.46 6.14L37.26 9.65ZM72.18 31.94L69.66 20.22L58.86 16.69L50.58 24.90L53.09 36.62L63.89 40.15ZM53.09 36.62L50.58 24.90L39.78 21.38L31.49 29.59L34.01 41.31L44.81 44.83ZM77.95 12.01L75.44 0.28L64.63 -3.24L56.35 4.96L58.86 16.69L69.66 20.22ZM7.38 10.83L4.85 -0.89L-5.95 -4.40L-14.22 3.81L-11.69 15.53L-0.90 19.04ZM20.70 26.07L18.18 14.35L7.38 10.83L-0.90 19.04L1.63 30.76L12.42 34.28ZM1.63 30.76L-0.90 19.04L-11.69 15.53L-19.96 23.75L-17.44 35.46L-6.64 38.97ZM26.46 6.14L23.93 -5.59L13.13 -9.10L4.85 -0.89L7.38 10.83L18.18 14.35ZM83.74 -7.93L81.22 -19.66L70.41 -23.19L62.12 -14.98L64.63 -3.24L75.44 0.28ZM39.38 206.38L36.87 194.68L26.10 191.16L17.84 199.34L20.36 211.03L31.13 214.55ZM20.36 211.03L17.84 199.34L7.07 195.82L-1.18 204.00L1.34 215.69L12.10 219.21ZM26.10 191.16L23.59 179.46L12.81 175.94L4.56 184.13L7.07 195.82L17.84 199.34ZM33.64 226.25L31.13 214.55L20.36 211.03L12.10 219.21L14.62 230.90L25.38 234.42ZM50.89 166.62L48.38 154.92L37.60 151.40L29.33 159.58L31.85 171.28L42.62 174.80ZM56.65 146.74L54.13 135.03L43.35 131.51L35.08 139.69L37.60 151.40L48.38 154.92ZM41.17 261.32L38.66 249.63L27.90 246.11L19.64 254.27L22.16 265.96L32.92 269.48Z"/></svg>
