<svg xmlns="http://www.w3.org/2000/svg" width="256" height="256" viewBox="0 0 256 256"><path data-band="1" fill="#fde68a" fill-opacity="0.35" d="M8.88 -5.25L6.37 -16.93L-4.39 -20.45L-12.64 -12.28L-10.12 -0.59L0.64 2.92ZM22.16 9.96L19.64 -1.73L8.88 -5.25L0.64 2.92L3.15 14.61L13.91 18.12ZM3.15 14.61L0.64 2.92L-10.12 -0.59L-18.36 7.57L-15.85 19.26L-5.09 22.77ZM4.96 69.48L2.45 57.80L-8.30 54.29L-16.53 62.45L-14.02 74.12L-3.27 77.63ZM10.69 49.65L8.18 37.97L-2.58 34.45L-10.81 42.61L-8.30 54.29L2.45 57.80ZM16.42 29.81L13.91 18.12L3.15 14.61L-5.09 22.77L-2.58 34.45L8.18 37.97ZM41.17 5.32L38.66 -6.37L27.90 -9.89L19.64 -1.73L22.16 9.96L32.92 13.48Z"/></svg>
