<svg xmlns="http://www.w3.org/2000/svg" width="256" height="256" viewBox="0 0 256 256"><path data-band="1" fill="#fde68a" fill-opacity="0.35" d="M238.51 -7.87L235.68 -19.74L224.68 -22.89L216.51 -14.16L219.33 -2.29L230.33 0.86ZM271.52 1.58L268.70 -10.29L257.69 -13.44L249.51 -4.72L252.33 7.15L263.33 10.30ZM252.33 7.15L249.51 -4.72L238.51 -7.87L230.33 0.86L233.16 12.73L244.15 15.87ZM219.33 -2.29L216.51 -14.16L205.51 -17.30L197.34 -8.57L200.17 3.29L211.16 6.44ZM200.17 3.29L197.34 -8.57L186.34 -11.71L178.18 -2.98L181.01 8.88L192.00 12.02ZM95.93 -4.29L93.09 -16.14L82.11 -19.26L73.97 -10.52L76.81 1.33L87.79 4.44ZM43.87 -8.01L41.02 -19.86L30.04 -22.97L21.91 -14.23L24.77 -2.38L35.74 0.72ZM123.58 25.66L120.74 13.81L109.76 10.69L101.62 19.42L104.46 31.26L115.44 34.39ZM104.46 31.26L101.62 19.42L90.64 16.29L82.50 25.02L85.34 36.87L96.32 39.99ZM128.89 5.08L126.05 -6.78L115.07 -9.90L106.92 -1.17L109.76 10.69L120.74 13.81ZM109.76 10.69L106.92 -1.17L95.93 -4.29L87.79 4.44L90.64 16.29L101.62 19.42ZM137.40 40.64L134.57 28.79L123.58 25.66L115.44 34.39L118.28 46.24L129.25 49.37ZM118.28 46.24L115.44 34.39L104.46 31.26L96.32 39.99L99.16 51.84L110.13 54.96ZM142.71 20.07L139.88 8.21L128.89 5.08L120.74 13.81L123.58 25.66L134.57 28.79ZM71.52 21.91L68.68 10.06L57.70 6.95L49.57 15.68L52.41 27.52L63.39 30.64ZM52.41 27.52L49.57 15.68L38.59 12.57L30.47 21.30L33.32 33.14L44.29 36.25ZM76.81 1.33L73.97 -10.52L62.98 -13.64L54.85 -4.90L57.70 6.95L68.68 10.06ZM57.70 6.95L54.85 -4.90L43.87 -8.01L35.74 0.72L38.59 12.57L49.57 15.68ZM85.34 36.87L82.50 25.02L71.52 21.91L63.39 30.64L66.23 42.48L77.21 45.60ZM66.23 42.48L63.39 30.64L52.41 27.52L44.29 36.25L47.14 48.09L58.11 51.20ZM90.64 16.29L87.79 4.44L76.81 1.33L68.68 10.06L71.52 21.91L82.50 25.02ZM167.18 -6.12L164.35 -17.98L153.35 -21.11L145.20 -12.38L148.03 -0.52L159.02 2.61ZM148.03 -0.52L145.20 -12.38L134.21 -15.51L126.05 -6.78L128.89 5.08L139.88 8.21ZM141.65 229.36L138.83 217.54L127.87 214.40L119.75 223.09L122.58 234.92L133.53 238.05ZM146.95 208.85L144.13 197.02L133.17 193.88L125.04 202.58L127.87 214.40L138.83 217.54ZM155.43 244.33L152.60 232.50L141.65 229.36L133.53 238.05L136.35 249.87L147.30 253.01ZM108.80 219.96L105.97 208.14L95.02 205.01L86.90 213.71L89.73 225.53L100.68 228.65ZM89.73 225.53L86.90 213.71L75.95 210.58L67.84 219.27L70.68 231.09L81.62 234.22ZM114.09 199.45L111.26 187.62L100.30 184.49L92.18 193.19L95.02 205.01L105.97 208.14ZM95.02 205.01L92.18 193.19L81.23 190.06L73.12 198.76L75.95 210.58L86.90 213.71ZM122.58 234.92L119.75 223.09L108.80 219.96L100.68 228.65L103.51 240.47L114.46 243.60ZM103.51 240.47L100.68 228.65L89.73 225.53L81.62 234.22L84.46 246.03L95.40 249.16ZM127.87 214.40L125.04 202.58L114.09 199.45L105.97 208.14L108.80 219.96L119.75 223.09ZM176.67 162.24L173.85 150.40L162.88 147.26L154.74 155.96L157.57 167.79L168.53 170.93ZM138.47 173.36L135.64 161.52L124.68 158.39L116.55 167.09L119.38 178.92L130.34 182.05ZM119.38 178.92L116.55 167.09L105.59 163.96L97.47 172.66L100.30 184.49L111.26 187.62ZM143.77 152.82L140.94 140.98L129.98 137.85L121.85 146.56L124.68 158.39L135.64 161.52ZM124.68 158.39L121.85 146.56L110.88 143.43L102.76 152.13L105.59 163.96L116.55 167.09ZM152.26 188.33L149.43 176.49L138.47 173.36L130.34 182.05L133.17 193.88L144.13 197.02ZM133.17 193.88L130.34 182.05L119.38 178.92L111.26 187.62L114.09 199.45L125.04 202.58ZM157.57 167.79L154.74 155.96L143.77 152.82L135.64 161.52L138.47 173.36L149.43 176.49ZM131.06 270.38L128.23 258.56L117.29 255.42L109.17 264.11L112.00 275.92L122.94 279.06ZM136.35 249.87L133.53 238.05L122.58 234.92L114.46 243.60L117.29 255.42L128.23 258.56ZM117.29 255.42L114.46 243.60L103.51 240.47L95.40 249.16L98.23 260.98L109.17 264.11ZM150.13 264.83L147.30 253.01L136.35 249.87L128.23 258.56L131.06 270.38L142.01 273.51ZM260.79 42.76L257.97 30.89L246.98 27.74L238.80 36.46L241.62 48.32L252.61 51.48ZM266.15 22.18L263.33 10.30L252.33 7.15L244.15 15.87L246.98 27.74L257.97 30.89ZM197.97 80.03L195.15 68.18L184.16 65.04L176.01 73.75L178.84 85.60L189.82 88.74ZM178.84 85.60L176.01 73.75L165.03 70.61L156.88 79.33L159.71 91.18L170.69 94.31ZM203.31 59.46L200.48 47.60L189.49 44.46L181.34 53.18L184.16 65.04L195.15 68.18ZM184.16 65.04L181.34 53.18L170.35 50.04L162.20 58.76L165.03 70.61L176.01 73.75ZM211.78 95.03L208.96 83.17L197.97 80.03L189.82 88.74L192.64 100.59L203.62 103.74ZM192.64 100.59L189.82 88.74L178.84 85.60L170.69 94.31L173.51 106.16L184.49 109.30ZM217.12 74.46L214.29 62.61L203.31 59.46L195.15 68.18L197.97 80.03L208.96 83.17ZM145.90 76.19L143.07 64.34L132.09 61.21L123.95 69.93L126.78 81.78L137.76 84.91ZM126.78 81.78L123.95 69.93L112.97 66.81L104.84 75.52L107.67 87.37L118.64 90.49ZM151.22 55.63L148.38 43.77L137.40 40.64L129.25 49.37L132.09 61.21L143.07 64.34ZM132.09 61.21L129.25 49.37L118.28 46.24L110.13 54.96L112.97 66.81L123.95 69.93ZM159.71 91.18L156.88 79.33L145.90 76.19L137.76 84.91L140.59 96.75L151.56 99.89ZM140.59 96.75L137.76 84.91L126.78 81.78L118.64 90.49L121.48 102.33L132.45 105.46ZM165.03 70.61L162.20 58.76L151.22 55.63L143.07 64.34L145.90 76.19L156.88 79.33ZM227.81 33.31L224.98 21.45L213.99 18.30L205.82 27.02L208.65 38.89L219.64 42.03ZM208.65 38.89L205.82 27.02L194.83 23.88L186.67 32.60L189.49 44.46L200.48 47.60ZM233.16 12.73L230.33 0.86L219.33 -2.29L211.16 6.44L213.99 18.30L224.98 21.45ZM213.99 18.30L211.16 6.44L200.17 3.29L192.00 12.02L194.83 23.88L205.82 27.02ZM241.62 48.32L238.80 36.46L227.81 33.31L219.64 42.03L222.46 53.89L233.45 57.04ZM222.46 53.89L219.64 42.03L208.65 38.89L200.48 47.60L203.31 59.46L214.29 62.61ZM246.98 27.74L244.15 15.87L233.16 12.73L224.98 21.45L227.81 33.31L238.80 36.46ZM175.68 29.47L172.85 17.61L161.86 14.47L153.70 23.20L156.53 35.05L167.52 38.19ZM156.53 35.05L153.70 23.20L142.71 20.07L134.57 28.79L137.40 40.64L148.38 43.77ZM181.01 8.88L178.18 -2.98L167.18 -6.12L159.02 2.61L161.86 14.47L172.85 17.61ZM161.86 14.47L159.02 2.61L148.03 -0.52L139.88 8.21L142.71 20.07L153.70 23.20ZM189.49 44.46L186.67 32.60L175.68 29.47L167.52 38.19L170.35 50.04L181.34 53.18ZM170.35 50.04L167.52 38.19L156.53 35.05L148.38 43.77L151.22 55.63L162.20 58.76ZM194.83 23.88L192.00 12.02L181.01 8.88L172.85 17.61L175.68 29.47L186.67 32.60ZM168.19 126.71L165.37 114.87L154.39 111.73L146.25 120.44L149.08 132.28L160.05 135.42ZM149.08 132.28L146.25 120.44L135.28 117.31L127.15 126.01L129.98 137.85L140.94 140.98ZM173.51 106.16L170.69 94.31L159.71 91.18L151.56 99.89L154.39 111.73L165.37 114.87ZM154.39 111.73L151.56 99.89L140.59 96.75L132.45 105.46L135.28 117.31L146.25 120.44ZM162.88 147.26L160.05 135.42L149.08 132.28L140.94 140.98L143.77 152.82L154.74 155.96ZM187.32 121.15L184.49 109.30L173.51 106.16L165.37 114.87L168.19 126.71L179.17 129.85ZM236.27 68.90L233.45 57.04L222.46 53.89L214.29 62.61L217.12 74.46L228.10 77.61ZM1.74 156.43L-1.11 144.61L-12.06 141.51L-20.15 150.22L-17.30 162.03L-6.36 165.14ZM3.70 79.88L0.85 68.05L-10.11 64.95L-18.22 73.68L-15.36 85.50L-4.41 88.60ZM8.96 59.33L6.11 47.49L-4.85 44.39L-12.96 53.12L-10.11 64.95L0.85 68.05ZM19.49 18.19L16.64 6.35L5.67 3.25L-2.45 11.99L0.41 23.82L11.38 26.93ZM0.41 23.82L-2.45 11.99L-13.42 8.89L-21.53 17.62L-18.67 29.46L-7.71 32.56ZM24.77 -2.38L21.91 -14.23L10.94 -17.33L2.82 -8.59L5.67 3.25L16.64 6.35ZM5.67 3.25L2.82 -8.59L-8.16 -11.69L-16.27 -2.95L-13.42 8.89L-2.45 11.99ZM33.32 33.14L30.47 21.30L19.49 18.19L11.38 26.93L14.23 38.76L25.20 41.87ZM14.23 38.76L11.38 26.93L0.41 23.82L-7.71 32.56L-4.85 44.39L6.11 47.49ZM38.59 12.57L35.74 0.72L24.77 -2.38L16.64 6.35L19.49 18.19L30.47 21.30ZM27.34 262.73L24.50 250.93L13.56 247.81L5.47 256.50L8.31 268.30L19.25 271.42ZM8.31 268.30L5.47 256.50L-5.46 253.39L-13.55 262.08L-10.70 273.88L0.23 276.99ZM32.59 242.23L29.75 230.42L18.81 227.31L10.72 236.00L13.56 247.81L24.50 250.93ZM13.56 247.81L10.72 236.00L-0.22 232.89L-8.31 241.59L-5.46 253.39L5.47 256.50ZM46.37 257.16L43.53 245.35L32.59 242.23L24.50 250.93L27.34 262.73L38.27 265.85ZM56.90 216.15L54.06 204.34L43.11 201.22L35.01 209.92L37.85 221.73L48.79 224.85ZM37.85 221.73L35.01 209.92L24.07 206.80L15.97 215.50L18.81 227.31L29.75 230.42ZM62.17 195.64L59.33 183.82L48.38 180.70L40.27 189.40L43.11 201.22L54.06 204.34ZM43.11 201.22L40.27 189.40L29.33 186.29L21.22 194.99L24.07 206.80L35.01 209.92ZM70.68 231.09L67.84 219.27L56.90 216.15L48.79 224.85L51.63 236.66L62.57 239.78ZM51.63 236.66L48.79 224.85L37.85 221.73L29.75 230.42L32.59 242.23L43.53 245.35ZM75.95 210.58L73.12 198.76L62.17 195.64L54.06 204.34L56.90 216.15L67.84 219.27ZM5.03 212.39L2.18 200.58L-8.76 197.47L-16.85 206.17L-14.00 217.98L-3.06 221.09ZM10.28 191.88L7.43 180.06L-3.51 176.95L-11.60 185.66L-8.76 197.47L2.18 200.58ZM18.81 227.31L15.97 215.50L5.03 212.39L-3.06 221.09L-0.22 232.89L10.72 236.00ZM24.07 206.80L21.22 194.99L10.28 191.88L2.18 200.58L5.03 212.39L15.97 215.50ZM79.18 266.53L76.35 254.72L65.41 251.59L57.31 260.28L60.14 272.09L71.08 275.22ZM84.46 246.03L81.62 234.22L70.68 231.09L62.57 239.78L65.41 251.59L76.35 254.72ZM65.41 251.59L62.57 239.78L51.63 236.66L43.53 245.35L46.37 257.16L57.31 260.28ZM98.23 260.98L95.40 249.16L84.46 246.03L76.35 254.72L79.18 266.53L90.12 269.66ZM64.20 119.10L61.36 107.27L50.39 104.15L42.28 112.87L45.12 124.70L56.08 127.81ZM45.12 124.70L42.28 112.87L31.32 109.76L23.21 118.47L26.05 130.30L37.01 133.41ZM69.48 98.55L66.64 86.72L55.67 83.60L47.55 92.32L50.39 104.15L61.36 107.27ZM50.39 104.15L47.55 92.32L36.59 89.21L28.47 97.93L31.32 109.76L42.28 112.87ZM78.00 134.05L75.16 122.22L64.20 119.10L56.08 127.81L58.92 139.64L69.88 142.76ZM58.92 139.64L56.08 127.81L45.12 124.70L37.01 133.41L39.85 145.23L50.81 148.35ZM83.28 113.51L80.44 101.67L69.48 98.55L61.36 107.27L64.20 119.10L75.16 122.22ZM12.25 115.36L9.40 103.54L-1.55 100.43L-9.66 109.15L-6.81 120.97L4.15 124.08ZM17.51 94.82L14.66 82.99L3.70 79.88L-4.41 88.60L-1.55 100.43L9.40 103.54ZM26.05 130.30L23.21 118.47L12.25 115.36L4.15 124.08L6.99 135.90L17.95 139.01ZM6.99 135.90L4.15 124.08L-6.81 120.97L-14.91 129.69L-12.06 141.51L-1.11 144.61ZM31.32 109.76L28.47 97.93L17.51 94.82L9.40 103.54L12.25 115.36L23.21 118.47ZM93.86 72.40L91.02 60.56L80.05 57.44L71.92 66.16L74.76 78.00L85.73 81.12ZM74.76 78.00L71.92 66.16L60.95 63.04L52.83 71.77L55.67 83.60L66.64 86.72ZM99.16 51.84L96.32 39.99L85.34 36.87L77.21 45.60L80.05 57.44L91.02 60.56ZM80.05 57.44L77.21 45.60L66.23 42.48L58.11 51.20L60.95 63.04L71.92 66.16ZM107.67 87.37L104.84 75.52L93.86 72.40L85.73 81.12L88.57 92.96L99.54 96.08ZM88.57 92.96L85.73 81.12L74.76 78.00L66.64 86.72L69.48 98.55L80.44 101.67ZM112.97 66.81L110.13 54.96L99.16 51.84L91.02 60.56L93.86 72.40L104.84 75.52ZM41.86 68.65L39.01 56.82L28.04 53.71L19.93 62.43L22.78 74.27L33.74 77.38ZM22.78 74.27L19.93 62.43L8.96 59.33L0.85 68.05L3.70 79.88L14.66 82.99ZM47.14 48.09L44.29 36.25L33.32 33.14L25.20 41.87L28.04 53.71L39.01 56.82ZM28.04 53.71L25.20 41.87L14.23 38.76L6.11 47.49L8.96 59.33L19.93 62.43ZM55.67 83.60L52.83 71.77L41.86 68.65L33.74 77.38L36.59 89.21L47.55 92.32ZM36.59 89.21L33.74 77.38L22.78 74.27L14.66 82.99L17.51 94.82L28.47 97.93ZM60.95 63.04L58.11 51.20L47.14 48.09L39.01 56.82L41.86 68.65L52.83 71.77ZM86.51 169.54L83.67 157.71L72.72 154.59L64.60 163.29L67.44 175.12L78.39 178.24ZM67.44 175.12L64.60 163.29L53.65 160.17L45.54 168.88L48.38 180.70L59.33 183.82ZM91.80 149.01L88.96 137.17L78.00 134.05L69.88 142.76L72.72 154.59L83.67 157.71ZM72.72 154.59L69.88 142.76L58.92 139.64L50.81 148.35L53.65 160.17L64.60 163.29ZM100.30 184.49L97.47 172.66L86.51 169.54L78.39 178.24L81.23 190.06L92.18 193.19ZM81.23 190.06L78.39 178.24L67.44 175.12L59.33 183.82L62.17 195.64L73.12 198.76ZM105.59 163.96L102.76 152.13L91.80 149.01L83.67 157.71L86.51 169.54L97.47 172.66ZM34.59 165.76L31.74 153.94L20.79 150.83L12.69 159.54L15.53 171.36L26.48 174.47ZM15.53 171.36L12.69 159.54L1.74 156.43L-6.36 165.14L-3.51 176.95L7.43 180.06ZM39.85 145.23L37.01 133.41L26.05 130.30L17.95 139.01L20.79 150.83L31.74 153.94ZM20.79 150.83L17.95 139.01L6.99 135.90L-1.11 144.61L1.74 156.43L12.69 159.54ZM48.38 180.70L45.54 168.88L34.59 165.76L26.48 174.47L29.33 186.29L40.27 189.40ZM29.33 186.29L26.48 174.47L15.53 171.36L7.43 180.06L10.28 191.88L21.22 194.99ZM53.65 160.17L50.81 148.35L39.85 145.23L31.74 153.94L34.59 165.76L45.54 168.88ZM116.18 122.88L113.34 111.05L102.38 107.92L94.25 116.63L97.08 128.47L108.05 131.59ZM97.08 128.47L94.25 116.63L83.28 113.51L75.16 122.22L78.00 134.05L88.96 137.17ZM121.48 102.33L118.64 90.49L107.67 87.37L99.54 96.08L102.38 107.92L113.34 111.05ZM102.38 107.92L99.54 96.08L88.57 92.96L80.44 101.67L83.28 113.51L94.25 116.63ZM129.98 137.85L127.15 126.01L116.18 122.88L108.05 131.59L110.88 143.43L121.85 146.56ZM110.88 143.43L108.05 131.59L97.08 128.47L88.96 137.17L91.80 149.01L102.76 152.13ZM135.28 117.31L132.45 105.46L121.48 102.33L113.34 111.05L116.18 122.88L127.15 126.01Z"/><path data-band="2" fill="#f97316" fill-opacity="0.35" d="M275.41 190.60L272.60 178.75L261.62 175.59L253.46 184.28L256.27 196.13L267.25 199.29ZM242.49 181.13L239.67 169.28L228.70 166.13L220.55 174.82L223.36 186.66L234.33 189.82ZM223.36 186.66L220.55 174.82L209.58 171.67L201.43 180.37L204.25 192.20L215.22 195.35ZM247.83 160.59L245.02 148.74L234.04 145.58L225.88 154.28L228.70 166.13L239.67 169.28ZM228.70 166.13L225.88 154.28L214.91 151.13L206.76 159.83L209.58 171.67L220.55 174.82ZM256.27 196.13L253.46 184.28L242.49 181.13L234.33 189.82L237.15 201.66L248.12 204.81ZM237.15 201.66L234.33 189.82L223.36 186.66L215.22 195.35L218.03 207.19L229.00 210.34ZM261.62 175.59L258.81 163.74L247.83 160.59L239.67 169.28L242.49 181.13L253.46 184.28ZM272.33 134.50L269.51 122.64L258.53 119.49L250.36 128.19L253.18 140.04L264.16 143.20ZM253.18 140.04L250.36 128.19L239.38 125.03L231.22 133.73L234.04 145.58L245.02 148.74ZM277.69 113.94L274.87 102.08L263.88 98.93L255.71 107.63L258.53 119.49L269.51 122.64ZM258.53 119.49L255.71 107.63L244.73 104.48L236.56 113.18L239.38 125.03L250.36 128.19ZM266.97 155.05L264.16 143.20L253.18 140.04L245.02 148.74L247.83 160.59L258.81 163.74ZM264.71 231.66L261.90 219.82L250.93 216.66L242.78 225.34L245.59 237.18L256.55 240.34ZM245.59 237.18L242.78 225.34L231.81 222.18L223.67 230.87L226.48 242.70L237.44 245.86ZM270.06 211.13L267.25 199.29L256.27 196.13L248.12 204.81L250.93 216.66L261.90 219.82ZM250.93 216.66L248.12 204.81L237.15 201.66L229.00 210.34L231.81 222.18L242.78 225.34ZM259.36 252.17L256.55 240.34L245.59 237.18L237.44 245.86L240.25 257.69L251.21 260.85ZM160.73 223.82L157.91 211.99L146.95 208.85L138.83 217.54L141.65 229.36L152.60 232.50ZM166.04 203.30L163.22 191.46L152.26 188.33L144.13 197.02L146.95 208.85L157.91 211.99ZM174.51 238.79L171.69 226.96L160.73 223.82L152.60 232.50L155.43 244.33L166.38 247.47ZM179.83 218.27L177.00 206.44L166.04 203.30L157.91 211.99L160.73 223.82L171.69 226.96ZM190.46 177.22L187.64 165.38L176.67 162.24L168.53 170.93L171.36 182.77L182.32 185.91ZM171.36 182.77L168.53 170.93L157.57 167.79L149.43 176.49L152.26 188.33L163.22 191.46ZM195.79 156.68L192.96 144.84L181.99 141.70L173.85 150.40L176.67 162.24L187.64 165.38ZM204.25 192.20L201.43 180.37L190.46 177.22L182.32 185.91L185.14 197.75L196.10 200.89ZM185.14 197.75L182.32 185.91L171.36 182.77L163.22 191.46L166.04 203.30L177.00 206.44ZM209.58 171.67L206.76 159.83L195.79 156.68L187.64 165.38L190.46 177.22L201.43 180.37ZM188.29 253.76L185.47 241.93L174.51 238.79L166.38 247.47L169.20 259.30L180.15 262.44ZM169.20 259.30L166.38 247.47L155.43 244.33L147.30 253.01L150.13 264.83L161.08 267.98ZM202.06 268.74L199.24 256.91L188.29 253.76L180.15 262.44L182.97 274.27L193.92 277.41ZM212.70 227.71L209.89 215.88L198.92 212.73L190.78 221.42L193.60 233.25L204.56 236.40ZM193.60 233.25L190.78 221.42L179.83 218.27L171.69 226.96L174.51 238.79L185.47 241.93ZM218.03 207.19L215.22 195.35L204.25 192.20L196.10 200.89L198.92 212.73L209.89 215.88ZM198.92 212.73L196.10 200.89L185.14 197.75L177.00 206.44L179.83 218.27L190.78 221.42ZM226.48 242.70L223.67 230.87L212.70 227.71L204.56 236.40L207.38 248.23L218.34 251.38ZM207.38 248.23L204.56 236.40L193.60 233.25L185.47 241.93L188.29 253.76L199.24 256.91ZM231.81 222.18L229.00 210.34L218.03 207.19L209.89 215.88L212.70 227.71L223.67 230.87ZM274.60 57.78L271.79 45.92L260.79 42.76L252.61 51.48L255.43 63.34L266.43 66.50ZM220.24 130.58L217.42 118.73L206.44 115.59L198.29 124.29L201.11 136.14L212.09 139.28ZM201.11 136.14L198.29 124.29L187.32 121.15L179.17 129.85L181.99 141.70L192.96 144.84ZM225.58 110.03L222.76 98.18L211.78 95.03L203.62 103.74L206.44 115.59L217.42 118.73ZM206.44 115.59L203.62 103.74L192.64 100.59L184.49 109.30L187.32 121.15L198.29 124.29ZM234.04 145.58L231.22 133.73L220.24 130.58L212.09 139.28L214.91 151.13L225.88 154.28ZM214.91 151.13L212.09 139.28L201.11 136.14L192.96 144.84L195.79 156.68L206.76 159.83ZM239.38 125.03L236.56 113.18L225.58 110.03L217.42 118.73L220.24 130.58L231.22 133.73ZM181.99 141.70L179.17 129.85L168.19 126.71L160.05 135.42L162.88 147.26L173.85 150.40ZM250.08 83.91L247.26 72.05L236.27 68.90L228.10 77.61L230.93 89.47L241.91 92.62ZM230.93 89.47L228.10 77.61L217.12 74.46L208.96 83.17L211.78 95.03L222.76 98.18ZM255.43 63.34L252.61 51.48L241.62 48.32L233.45 57.04L236.27 68.90L247.26 72.05ZM263.88 98.93L261.07 87.07L250.08 83.91L241.91 92.62L244.73 104.48L255.71 107.63ZM244.73 104.48L241.91 92.62L230.93 89.47L222.76 98.18L225.58 110.03L236.56 113.18ZM269.24 78.36L266.43 66.50L255.43 63.34L247.26 72.05L250.08 83.91L261.07 87.07ZM273.13 267.17L270.33 255.34L259.36 252.17L251.21 260.85L254.02 272.68L264.98 275.85ZM240.25 257.69L237.44 245.86L226.48 242.70L218.34 251.38L221.15 263.21L232.11 266.37ZM221.15 263.21L218.34 251.38L207.38 248.23L199.24 256.91L202.06 268.74L213.01 271.89Z"/></svg>
