<svg xmlns="http://www.w3.org/2000/svg" width="256" height="256" viewBox="0 0 256 256"><path data-band="1" fill="#fde68a" fill-opacity="0.35" d="M86.79 254.35L83.97 242.57L73.06 239.43L64.99 248.08L67.81 259.85L78.71 262.98ZM67.81 259.85L64.99 248.08L54.09 244.94L46.02 253.59L48.85 265.36L59.74 268.49ZM92.05 233.93L89.22 222.14L78.32 219.01L70.24 227.65L73.06 239.43L83.97 242.57ZM73.06 239.43L70.24 227.65L59.34 224.52L51.26 233.17L54.09 244.94L64.99 248.08ZM100.51 269.26L97.69 257.48L86.79 254.35L78.71 262.98L81.53 274.76L92.43 277.90ZM105.77 248.84L102.95 237.06L92.05 233.93L83.97 242.57L86.79 254.35L97.69 257.48ZM35.12 250.46L32.29 238.69L21.40 235.56L13.34 244.21L16.17 255.98L27.06 259.10ZM16.17 255.98L13.34 244.21L2.44 241.09L-5.62 249.73L-2.78 261.50L8.11 264.62ZM40.36 230.04L37.53 218.26L26.63 215.14L18.57 223.79L21.40 235.56L32.29 238.69ZM21.40 235.56L18.57 223.79L7.67 220.67L-0.39 229.32L2.44 241.09L13.34 244.21ZM48.85 265.36L46.02 253.59L35.12 250.46L27.06 259.10L29.89 270.87L40.78 274.00ZM29.89 270.87L27.06 259.10L16.17 255.98L8.11 264.62L10.94 276.38L21.83 279.51ZM54.09 244.94L51.26 233.17L40.36 230.04L32.29 238.69L35.12 250.46L46.02 253.59ZM116.31 207.99L113.49 196.20L102.57 193.06L94.49 201.71L97.31 213.50L108.22 216.64ZM97.31 213.50L94.49 201.71L83.58 198.58L75.49 207.23L78.32 219.01L89.22 222.14ZM121.58 187.55L118.76 175.76L107.84 172.62L99.75 181.27L102.57 193.06L113.49 196.20ZM102.57 193.06L99.75 181.27L88.84 178.14L80.75 186.79L83.58 198.58L94.49 201.71ZM130.04 222.92L127.22 211.13L116.31 207.99L108.22 216.64L111.04 228.42L121.95 231.56ZM111.04 228.42L108.22 216.64L97.31 213.50L89.22 222.14L92.05 233.93L102.95 237.06ZM135.32 202.49L132.50 190.70L121.58 187.55L113.49 196.20L116.31 207.99L127.22 211.13ZM64.59 204.09L61.76 192.31L50.85 189.18L42.78 197.84L45.61 209.62L56.51 212.74ZM45.61 209.62L42.78 197.84L31.87 194.71L23.80 203.36L26.63 215.14L37.53 218.26ZM69.84 183.66L67.01 171.87L56.10 168.74L48.02 177.40L50.85 189.18L61.76 192.31ZM50.85 189.18L48.02 177.40L37.11 174.27L29.04 182.93L31.87 194.71L42.78 197.84ZM78.32 219.01L75.49 207.23L64.59 204.09L56.51 212.74L59.34 224.52L70.24 227.65ZM59.34 224.52L56.51 212.74L45.61 209.62L37.53 218.26L40.36 230.04L51.26 233.17ZM83.58 198.58L80.75 186.79L69.84 183.66L61.76 192.31L64.59 204.09L75.49 207.23ZM138.49 258.28L135.67 246.49L124.76 243.35L116.68 251.99L119.49 263.77L130.40 266.91ZM119.49 263.77L116.68 251.99L105.77 248.84L97.69 257.48L100.51 269.26L111.41 272.40ZM143.76 237.85L140.95 226.07L130.04 222.92L121.95 231.56L124.76 243.35L135.67 246.49ZM124.76 243.35L121.95 231.56L111.04 228.42L102.95 237.06L105.77 248.84L116.68 251.99ZM157.49 252.79L154.67 241.00L143.76 237.85L135.67 246.49L138.49 258.28L149.39 261.43ZM123.67 111.25L120.85 99.45L109.92 96.31L101.82 104.98L104.64 116.78L115.57 119.92ZM104.64 116.78L101.82 104.98L90.89 101.85L82.80 110.51L85.62 122.31L96.55 125.44ZM128.96 90.78L126.13 78.98L115.20 75.84L107.09 84.51L109.92 96.31L120.85 99.45ZM109.92 96.31L107.09 84.51L96.16 81.38L88.06 90.05L90.89 101.85L101.82 104.98ZM137.42 126.20L134.60 114.39L123.67 111.25L115.57 119.92L118.39 131.72L129.32 134.86ZM118.39 131.72L115.57 119.92L104.64 116.78L96.55 125.44L99.37 137.24L110.29 140.38ZM142.71 105.73L139.89 93.93L128.96 90.78L120.85 99.45L123.67 111.25L134.60 114.39ZM71.87 107.38L69.04 95.59L58.12 92.46L50.03 101.13L52.86 112.92L63.78 116.05ZM52.86 112.92L50.03 101.13L39.11 98.01L31.03 106.68L33.86 118.47L44.78 121.59ZM77.14 86.92L74.31 75.12L63.38 71.99L55.29 80.66L58.12 92.46L69.04 95.59ZM58.12 92.46L55.29 80.66L44.36 77.54L36.27 86.21L39.11 98.01L50.03 101.13ZM85.62 122.31L82.80 110.51L71.87 107.38L63.78 116.05L66.61 127.84L77.53 130.97ZM66.61 127.84L63.78 116.05L52.86 112.92L44.78 121.59L47.61 133.38L58.53 136.51ZM90.89 101.85L88.06 90.05L77.14 86.92L69.04 95.59L71.87 107.38L82.80 110.51ZM153.30 64.78L150.48 52.96L139.54 49.82L131.42 58.50L134.24 70.31L145.18 73.45ZM134.24 70.31L131.42 58.50L120.48 55.36L112.37 64.03L115.20 75.84L126.13 78.98ZM139.54 49.82L136.71 38.01L125.77 34.87L117.66 43.55L120.48 55.36L131.42 58.50ZM167.06 79.74L164.24 67.92L153.30 64.78L145.18 73.45L148.00 85.26L158.94 88.40ZM148.00 85.26L145.18 73.45L134.24 70.31L126.13 78.98L128.96 90.78L139.89 93.93ZM172.36 59.25L169.54 47.44L158.60 44.29L150.48 52.96L153.30 64.78L164.24 67.92ZM101.44 60.90L98.61 49.09L87.68 45.96L79.58 54.64L82.41 66.44L93.34 69.57ZM82.41 66.44L79.58 54.64L68.64 51.51L60.55 60.19L63.38 71.99L74.31 75.12ZM106.72 40.41L103.89 28.60L92.95 25.47L84.85 34.15L87.68 45.96L98.61 49.09ZM87.68 45.96L84.85 34.15L73.91 31.02L65.81 39.71L68.64 51.51L79.58 54.64ZM115.20 75.84L112.37 64.03L101.44 60.90L93.34 69.57L96.16 81.38L107.09 84.51ZM96.16 81.38L93.34 69.57L82.41 66.44L74.31 75.12L77.14 86.92L88.06 90.05ZM120.48 55.36L117.66 43.55L106.72 40.41L98.61 49.09L101.44 60.90L112.37 64.03ZM145.88 161.60L143.06 149.80L132.14 146.66L124.04 155.31L126.86 167.11L137.78 170.25ZM126.86 167.11L124.04 155.31L113.12 152.17L105.02 160.83L107.84 172.62L118.76 175.76ZM151.17 141.14L148.35 129.34L137.42 126.20L129.32 134.86L132.14 146.66L143.06 149.80ZM132.14 146.66L129.32 134.86L118.39 131.72L110.29 140.38L113.12 152.17L124.04 155.31ZM159.62 176.54L156.80 164.75L145.88 161.60L137.78 170.25L140.60 182.05L151.52 185.19ZM140.60 182.05L137.78 170.25L126.86 167.11L118.76 175.76L121.58 187.55L132.50 190.70ZM164.91 156.09L162.10 144.29L151.17 141.14L143.06 149.80L145.88 161.60L156.80 164.75ZM94.10 157.69L91.28 145.90L80.36 142.77L72.27 151.43L75.10 163.22L86.01 166.35ZM75.10 163.22L72.27 151.43L61.36 148.30L53.27 156.96L56.10 168.74L67.01 171.87ZM99.37 137.24L96.55 125.44L85.62 122.31L77.53 130.97L80.36 142.77L91.28 145.90ZM80.36 142.77L77.53 130.97L66.61 127.84L58.53 136.51L61.36 148.30L72.27 151.43ZM107.84 172.62L105.02 160.83L94.10 157.69L86.01 166.35L88.84 178.14L99.75 181.27ZM88.84 178.14L86.01 166.35L75.10 163.22L67.01 171.87L69.84 183.66L80.75 186.79ZM113.12 152.17L110.29 140.38L99.37 137.24L91.28 145.90L94.10 157.69L105.02 160.83ZM175.51 115.17L172.69 103.36L161.76 100.21L153.64 108.88L156.46 120.68L167.39 123.83ZM156.46 120.68L153.64 108.88L142.71 105.73L134.60 114.39L137.42 126.20L148.35 129.34ZM180.81 94.70L177.99 82.88L167.06 79.74L158.94 88.40L161.76 100.21L172.69 103.36ZM161.76 100.21L158.94 88.40L148.00 85.26L139.89 93.93L142.71 105.73L153.64 108.88ZM170.21 135.63L167.39 123.83L156.46 120.68L148.35 129.34L151.17 141.14L162.10 144.29ZM9.63 144.47L6.79 132.68L-4.12 129.57L-12.19 138.23L-9.35 150.01L1.56 153.13ZM20.11 103.56L17.27 91.77L6.35 88.65L-1.72 97.32L1.12 109.11L12.03 112.23ZM1.12 109.11L-1.72 97.32L-12.64 94.21L-20.71 102.88L-17.87 114.67L-6.96 117.78ZM25.35 83.09L22.52 71.30L11.59 68.18L3.51 76.86L6.35 88.65L17.27 91.77ZM6.35 88.65L3.51 76.86L-7.41 73.74L-15.48 82.42L-12.64 94.21L-1.72 97.32ZM33.86 118.47L31.03 106.68L20.11 103.56L12.03 112.23L14.87 124.02L25.78 127.14ZM14.87 124.02L12.03 112.23L1.12 109.11L-6.96 117.78L-4.12 129.57L6.79 132.68ZM39.11 98.01L36.27 86.21L25.35 83.09L17.27 91.77L20.11 103.56L31.03 106.68ZM12.90 200.24L10.07 188.47L-0.84 185.35L-8.90 194.00L-6.06 205.78L4.84 208.89ZM18.14 179.81L15.30 168.03L4.39 164.91L-3.67 173.57L-0.84 185.35L10.07 188.47ZM26.63 215.14L23.80 203.36L12.90 200.24L4.84 208.89L7.67 220.67L18.57 223.79ZM31.87 194.71L29.04 182.93L18.14 179.81L10.07 188.47L12.90 200.24L23.80 203.36ZM42.36 153.83L39.53 142.05L28.62 138.92L20.54 147.59L23.37 159.37L34.28 162.49ZM23.37 159.37L20.54 147.59L9.63 144.47L1.56 153.13L4.39 164.91L15.30 168.03ZM47.61 133.38L44.78 121.59L33.86 118.47L25.78 127.14L28.62 138.92L39.53 142.05ZM28.62 138.92L25.78 127.14L14.87 124.02L6.79 132.68L9.63 144.47L20.54 147.59ZM56.10 168.74L53.27 156.96L42.36 153.83L34.28 162.49L37.11 174.27L48.02 177.40ZM37.11 174.27L34.28 162.49L23.37 159.37L15.30 168.03L18.14 179.81L29.04 182.93ZM61.36 148.30L58.53 136.51L47.61 133.38L39.53 142.05L42.36 153.83L53.27 156.96ZM168.06 211.93L165.25 200.14L154.33 196.99L146.23 205.63L149.05 217.42L159.96 220.57ZM149.05 217.42L146.23 205.63L135.32 202.49L127.22 211.13L130.04 222.92L140.95 226.07ZM173.36 191.49L170.54 179.69L159.62 176.54L151.52 185.19L154.33 196.99L165.25 200.14ZM154.33 196.99L151.52 185.19L140.60 182.05L132.50 190.70L135.32 202.49L146.23 205.63ZM162.77 232.36L159.96 220.57L149.05 217.42L140.95 226.07L143.76 237.85L154.67 241.00ZM178.65 171.04L175.84 159.24L164.91 156.09L156.80 164.75L159.62 176.54L170.54 179.69ZM171.21 267.73L168.40 255.94L157.49 252.79L149.39 261.43L152.21 273.21L163.11 276.36ZM176.50 247.31L173.69 235.52L162.77 232.36L154.67 241.00L157.49 252.79L168.40 255.94ZM131.06 14.38L128.23 2.56L117.29 -0.58L109.17 8.11L112.00 19.92L122.94 23.06ZM112.00 19.92L109.17 8.11L98.23 4.98L90.12 13.66L92.95 25.47L103.89 28.60ZM136.35 -6.13L133.53 -17.95L122.58 -21.08L114.46 -12.40L117.29 -0.58L128.23 2.56ZM117.29 -0.58L114.46 -12.40L103.51 -15.53L95.40 -6.84L98.23 4.98L109.17 8.11ZM144.83 29.33L142.01 17.51L131.06 14.38L122.94 23.06L125.77 34.87L136.71 38.01ZM125.77 34.87L122.94 23.06L112.00 19.92L103.89 28.60L106.72 40.41L117.66 43.55ZM150.13 8.83L147.30 -2.99L136.35 -6.13L128.23 2.56L131.06 14.38L142.01 17.51ZM27.34 6.73L24.50 -5.07L13.56 -8.19L5.47 0.50L8.31 12.30L19.25 15.42ZM8.31 12.30L5.47 0.50L-5.46 -2.61L-13.55 6.08L-10.70 17.88L0.23 20.99ZM13.56 -8.19L10.72 -20.00L-0.22 -23.11L-8.31 -14.41L-5.46 -2.61L5.47 0.50ZM41.11 21.65L38.27 9.85L27.34 6.73L19.25 15.42L22.09 27.22L33.02 30.34ZM22.09 27.22L19.25 15.42L8.31 12.30L0.23 20.99L3.07 32.79L14.00 35.91ZM46.37 1.16L43.53 -10.65L32.59 -13.77L24.50 -5.07L27.34 6.73L38.27 9.85ZM49.62 57.06L46.78 45.26L35.85 42.14L27.76 50.82L30.60 62.62L41.53 65.74ZM30.60 62.62L27.76 50.82L16.84 47.70L8.75 56.39L11.59 68.18L22.52 71.30ZM54.88 36.58L52.04 24.78L41.11 21.65L33.02 30.34L35.85 42.14L46.78 45.26ZM35.85 42.14L33.02 30.34L22.09 27.22L14.00 35.91L16.84 47.70L27.76 50.82ZM63.38 71.99L60.55 60.19L49.62 57.06L41.53 65.74L44.36 77.54L55.29 80.66ZM44.36 77.54L41.53 65.74L30.60 62.62L22.52 71.30L25.35 83.09L36.27 86.21ZM68.64 51.51L65.81 39.71L54.88 36.58L46.78 45.26L49.62 57.06L60.55 60.19ZM3.07 32.79L0.23 20.99L-10.70 17.88L-18.78 26.57L-15.94 38.37L-5.01 41.48ZM11.59 68.18L8.75 56.39L-2.17 53.27L-10.25 61.95L-7.41 73.74L3.51 76.86ZM16.84 47.70L14.00 35.91L3.07 32.79L-5.01 41.48L-2.17 53.27L8.75 56.39ZM79.18 10.53L76.35 -1.28L65.41 -4.41L57.31 4.28L60.14 16.09L71.08 19.22ZM60.14 16.09L57.31 4.28L46.37 1.16L38.27 9.85L41.11 21.65L52.04 24.78ZM65.41 -4.41L62.57 -16.22L51.63 -19.34L43.53 -10.65L46.37 1.16L57.31 4.28ZM92.95 25.47L90.12 13.66L79.18 10.53L71.08 19.22L73.91 31.02L84.85 34.15ZM73.91 31.02L71.08 19.22L60.14 16.09L52.04 24.78L54.88 36.58L65.81 39.71ZM98.23 4.98L95.40 -6.84L84.46 -9.97L76.35 -1.28L79.18 10.53L90.12 13.66Z"/><path data-band="2" fill="#f97316" fill-opacity="0.35" d="M158.60 44.29L155.77 32.47L144.83 29.33L136.71 38.01L139.54 49.82L150.48 52.96ZM189.25 130.13L186.44 118.32L175.51 115.17L167.39 123.83L170.21 135.63L181.14 138.78ZM194.56 109.66L191.75 97.85L180.81 94.70L172.69 103.36L175.51 115.17L186.44 118.32ZM219.85 215.92L217.04 204.11L206.12 200.96L198.01 209.60L200.82 221.39L211.74 224.55ZM200.82 221.39L198.01 209.60L187.09 206.44L178.98 215.08L181.79 226.88L192.71 230.03ZM225.16 195.47L222.36 183.67L211.43 180.51L203.31 189.15L206.12 200.96L217.04 204.11ZM206.12 200.96L203.31 189.15L192.39 186.00L184.28 194.64L187.09 206.44L198.01 209.60ZM233.58 230.88L230.77 219.08L219.85 215.92L211.74 224.55L214.54 236.35L225.46 239.51ZM214.54 236.35L211.74 224.55L200.82 221.39L192.71 230.03L195.52 241.83L206.43 244.99ZM238.89 210.44L236.09 198.64L225.16 195.47L217.04 204.11L219.85 215.92L230.77 219.08ZM181.79 226.88L178.98 215.08L168.06 211.93L159.96 220.57L162.77 232.36L173.69 235.52ZM187.09 206.44L184.28 194.64L173.36 191.49L165.25 200.14L168.06 211.93L178.98 215.08ZM249.54 169.54L246.73 157.73L235.80 154.57L227.67 163.22L230.48 175.02L241.41 178.19ZM230.48 175.02L227.67 163.22L216.74 160.06L208.62 168.70L211.43 180.51L222.36 183.67ZM254.86 149.08L252.06 137.27L241.12 134.10L232.99 142.76L235.80 154.57L246.73 157.73ZM235.80 154.57L232.99 142.76L222.06 139.60L213.93 148.25L216.74 160.06L227.67 163.22ZM263.27 184.52L260.47 172.71L249.54 169.54L241.41 178.19L244.21 189.99L255.14 193.16ZM244.21 189.99L241.41 178.19L230.48 175.02L222.36 183.67L225.16 195.47L236.09 198.64ZM268.60 164.06L265.80 152.25L254.86 149.08L246.73 157.73L249.54 169.54L260.47 172.71ZM197.69 165.55L194.88 153.74L183.95 150.59L175.84 159.24L178.65 171.04L189.58 174.20ZM203.00 145.09L200.19 133.28L189.25 130.13L181.14 138.78L183.95 150.59L194.88 153.74ZM183.95 150.59L181.14 138.78L170.21 135.63L162.10 144.29L164.91 156.09L175.84 159.24ZM211.43 180.51L208.62 168.70L197.69 165.55L189.58 174.20L192.39 186.00L203.31 189.15ZM192.39 186.00L189.58 174.20L178.65 171.04L170.54 179.69L173.36 191.49L184.28 194.64ZM216.74 160.06L213.93 148.25L203.00 145.09L194.88 153.74L197.69 165.55L208.62 168.70ZM241.98 266.27L239.18 254.47L228.27 251.31L220.15 259.94L222.96 271.73L233.87 274.90ZM247.30 245.84L244.50 234.04L233.58 230.88L225.46 239.51L228.27 251.31L239.18 254.47ZM228.27 251.31L225.46 239.51L214.54 236.35L206.43 244.99L209.24 256.78L220.15 259.94ZM261.02 260.81L258.22 249.01L247.30 245.84L239.18 254.47L241.98 266.27L252.90 269.44ZM190.22 262.25L187.41 250.46L176.50 247.31L168.40 255.94L171.21 267.73L182.12 270.88ZM195.52 241.83L192.71 230.03L181.79 226.88L173.69 235.52L176.50 247.31L187.41 250.46ZM209.24 256.78L206.43 244.99L195.52 241.83L187.41 250.46L190.22 262.25L201.13 265.41ZM271.67 219.94L268.87 208.14L257.94 204.97L249.82 213.61L252.62 225.41L263.55 228.58ZM252.62 225.41L249.82 213.61L238.89 210.44L230.77 219.08L233.58 230.88L244.50 234.04ZM277.00 199.50L274.20 187.69L263.27 184.52L255.14 193.16L257.94 204.97L268.87 208.14ZM257.94 204.97L255.14 193.16L244.21 189.99L236.09 198.64L238.89 210.44L249.82 213.61ZM266.35 240.38L263.55 228.58L252.62 225.41L244.50 234.04L247.30 245.84L258.22 249.01ZM259.36 -3.83L256.55 -15.66L245.59 -18.82L237.44 -10.14L240.25 1.69L251.21 4.85ZM182.97 18.27L180.15 6.44L169.20 3.30L161.08 11.98L163.90 23.80L174.84 26.94ZM163.90 23.80L161.08 11.98L150.13 8.83L142.01 17.51L144.83 29.33L155.77 32.47ZM188.29 -2.24L185.47 -14.07L174.51 -17.21L166.38 -8.53L169.20 3.30L180.15 6.44ZM169.20 3.30L166.38 -8.53L155.43 -11.67L147.30 -2.99L150.13 8.83L161.08 11.98ZM196.74 33.24L193.92 21.41L182.97 18.27L174.84 26.94L177.66 38.76L188.61 41.91ZM177.66 38.76L174.84 26.94L163.90 23.80L155.77 32.47L158.60 44.29L169.54 47.44ZM202.06 12.74L199.24 0.91L188.29 -2.24L180.15 6.44L182.97 18.27L193.92 21.41ZM207.38 -7.77L204.56 -19.60L193.60 -22.75L185.47 -14.07L188.29 -2.24L199.24 0.91ZM257.11 72.67L254.30 60.84L243.35 57.68L235.21 66.35L238.02 78.17L248.97 81.33ZM238.02 78.17L235.21 66.35L224.27 63.19L216.13 71.86L218.94 83.68L229.89 86.83ZM262.45 52.18L259.64 40.35L248.69 37.19L240.54 45.86L243.35 57.68L254.30 60.84ZM243.35 57.68L240.54 45.86L229.59 42.70L221.45 51.37L224.27 63.19L235.21 66.35ZM270.87 87.66L268.06 75.83L257.11 72.67L248.97 81.33L251.78 93.16L262.72 96.32ZM251.78 93.16L248.97 81.33L238.02 78.17L229.89 86.83L232.70 98.65L243.64 101.81ZM276.21 67.17L273.40 55.34L262.45 52.18L254.30 60.84L257.11 72.67L268.06 75.83ZM205.19 68.70L202.37 56.88L191.43 53.73L183.30 62.40L186.12 74.22L197.06 77.37ZM186.12 74.22L183.30 62.40L172.36 59.25L164.24 67.92L167.06 79.74L177.99 82.88ZM210.50 48.21L207.69 36.39L196.74 33.24L188.61 41.91L191.43 53.73L202.37 56.88ZM191.43 53.73L188.61 41.91L177.66 38.76L169.54 47.44L172.36 59.25L183.30 62.40ZM218.94 83.68L216.13 71.86L205.19 68.70L197.06 77.37L199.87 89.18L210.81 92.34ZM199.87 89.18L197.06 77.37L186.12 74.22L177.99 82.88L180.81 94.70L191.75 97.85ZM224.27 63.19L221.45 51.37L210.50 48.21L202.37 56.88L205.19 68.70L216.13 71.86ZM267.79 31.68L264.98 19.85L254.02 16.68L245.88 25.36L248.69 37.19L259.64 40.35ZM273.13 11.17L270.33 -0.66L259.36 -3.83L251.21 4.85L254.02 16.68L264.98 19.85ZM234.92 22.20L232.11 10.37L221.15 7.21L213.01 15.89L215.83 27.72L226.78 30.87ZM215.83 27.72L213.01 15.89L202.06 12.74L193.92 21.41L196.74 33.24L207.69 36.39ZM240.25 1.69L237.44 -10.14L226.48 -13.30L218.34 -4.62L221.15 7.21L232.11 10.37ZM221.15 7.21L218.34 -4.62L207.38 -7.77L199.24 0.91L202.06 12.74L213.01 15.89ZM248.69 37.19L245.88 25.36L234.92 22.20L226.78 30.87L229.59 42.70L240.54 45.86ZM229.59 42.70L226.78 30.87L215.83 27.72L207.69 36.39L210.50 48.21L221.45 51.37ZM254.02 16.68L251.21 4.85L240.25 1.69L232.11 10.37L234.92 22.20L245.88 25.36ZM260.19 128.62L257.39 116.80L246.45 113.63L238.31 122.29L241.12 134.10L252.06 137.27ZM265.53 108.14L262.72 96.32L251.78 93.16L243.64 101.81L246.45 113.63L257.39 116.80ZM273.94 143.60L271.14 131.78L260.19 128.62L252.06 137.27L254.86 149.08L265.80 152.25ZM227.37 119.13L224.57 107.31L213.63 104.16L205.50 112.81L208.31 124.63L219.25 127.78ZM208.31 124.63L205.50 112.81L194.56 109.66L186.44 118.32L189.25 130.13L200.19 133.28ZM232.70 98.65L229.89 86.83L218.94 83.68L210.81 92.34L213.63 104.16L224.57 107.31ZM213.63 104.16L210.81 92.34L199.87 89.18L191.75 97.85L194.56 109.66L205.50 112.81ZM241.12 134.10L238.31 122.29L227.37 119.13L219.25 127.78L222.06 139.60L232.99 142.76ZM222.06 139.60L219.25 127.78L208.31 124.63L200.19 133.28L203.00 145.09L213.93 148.25ZM246.45 113.63L243.64 101.81L232.70 98.65L224.57 107.31L227.37 119.13L238.31 122.29Z"/></svg>
