<svg xmlns="http://www.w3.org/2000/svg" width="256" height="256" viewBox="0 0 256 256"><path data-band="1" fill="#fde68a" fill-opacity="0.35" d="M126.93 250.80L124.13 239.06L113.26 235.90L105.20 244.50L108.01 256.24L118.88 259.39ZM132.19 230.46L129.38 218.71L118.51 215.56L110.45 224.16L113.26 235.90L124.13 239.06ZM94.34 241.35L91.53 229.61L80.67 226.46L72.62 235.06L75.43 246.80L86.29 249.94ZM75.43 246.80L72.62 235.06L61.76 231.92L53.71 240.51L56.53 252.25L67.39 255.39ZM99.58 221.01L96.77 209.26L85.91 206.11L77.85 214.72L80.67 226.46L91.53 229.61ZM80.67 226.46L77.85 214.72L66.99 211.57L58.94 220.18L61.76 231.92L72.62 235.06ZM108.01 256.24L105.20 244.50L94.34 241.35L86.29 249.94L89.10 261.68L99.96 264.83ZM89.10 261.68L86.29 249.94L75.43 246.80L67.39 255.39L70.20 267.13L81.06 270.27ZM113.26 235.90L110.45 224.16L99.58 221.01L91.53 229.61L94.34 241.35L105.20 244.50ZM156.39 204.67L153.58 192.92L142.71 189.76L134.64 198.36L137.44 210.11L148.32 213.27ZM123.76 195.21L120.95 183.45L110.08 180.30L102.02 188.91L104.83 200.66L115.70 203.81ZM104.83 200.66L102.02 188.91L91.15 185.76L83.09 194.37L85.91 206.11L96.77 209.26ZM129.02 174.85L126.21 163.09L115.33 159.94L107.27 168.55L110.08 180.30L120.95 183.45ZM110.08 180.30L107.27 168.55L96.39 165.40L88.33 174.01L91.15 185.76L102.02 188.91ZM137.44 210.11L134.64 198.36L123.76 195.21L115.70 203.81L118.51 215.56L129.38 218.71ZM118.51 215.56L115.70 203.81L104.83 200.66L96.77 209.26L99.58 221.01L110.45 224.16ZM142.71 189.76L139.90 178.00L129.02 174.85L120.95 183.45L123.76 195.21L134.64 198.36ZM18.75 263.17L15.93 251.44L5.08 248.30L-2.95 256.90L-0.12 268.63L10.72 271.76ZM42.86 237.37L40.04 225.64L29.18 222.50L21.14 231.10L23.96 242.84L34.82 245.97ZM23.96 242.84L21.14 231.10L10.29 227.97L2.26 236.57L5.08 248.30L15.93 251.44ZM48.08 217.04L45.26 205.30L34.40 202.16L26.36 210.76L29.18 222.50L40.04 225.64ZM29.18 222.50L26.36 210.76L15.50 207.63L7.47 216.24L10.29 227.97L21.14 231.10ZM56.53 252.25L53.71 240.51L42.86 237.37L34.82 245.97L37.64 257.71L48.49 260.84ZM37.64 257.71L34.82 245.97L23.96 242.84L15.93 251.44L18.75 263.17L29.60 266.30ZM61.76 231.92L58.94 220.18L48.08 217.04L40.04 225.64L42.86 237.37L53.71 240.51ZM5.08 248.30L2.26 236.57L-8.60 233.44L-16.62 242.05L-13.80 253.77L-2.95 256.90ZM10.29 227.97L7.47 216.24L-3.39 213.11L-11.42 221.71L-8.60 233.44L2.26 236.57ZM70.20 267.13L67.39 255.39L56.53 252.25L48.49 260.84L51.31 272.58L62.16 275.72ZM86.79 -1.65L83.97 -13.43L73.06 -16.57L64.99 -7.92L67.81 3.85L78.71 6.98ZM67.81 3.85L64.99 -7.92L54.09 -11.06L46.02 -2.41L48.85 9.36L59.74 12.49ZM100.51 13.26L97.69 1.48L86.79 -1.65L78.71 6.98L81.53 18.76L92.43 21.90ZM81.53 18.76L78.71 6.98L67.81 3.85L59.74 12.49L62.57 24.26L73.46 27.39ZM105.77 -7.16L102.95 -18.94L92.05 -22.07L83.97 -13.43L86.79 -1.65L97.69 1.48ZM35.12 -5.54L32.29 -17.31L21.40 -20.44L13.34 -11.79L16.17 -0.02L27.06 3.10ZM16.17 -0.02L13.34 -11.79L2.44 -14.91L-5.62 -6.27L-2.78 5.50L8.11 8.62ZM48.85 9.36L46.02 -2.41L35.12 -5.54L27.06 3.10L29.89 14.87L40.78 18.00ZM29.89 14.87L27.06 3.10L16.17 -0.02L8.11 8.62L10.94 20.38L21.83 23.51ZM108.96 48.59L106.15 36.81L95.25 33.67L87.18 42.30L90.00 54.07L100.89 57.21ZM90.00 54.07L87.18 42.30L76.28 39.17L68.21 47.80L71.03 59.56L81.92 62.70ZM114.23 28.18L111.41 16.40L100.51 13.26L92.43 21.90L95.25 33.67L106.15 36.81ZM95.25 33.67L92.43 21.90L81.53 18.76L73.46 27.39L76.28 39.17L87.18 42.30ZM122.67 63.50L119.86 51.73L108.96 48.59L100.89 57.21L103.70 68.98L114.60 72.13ZM103.70 68.98L100.89 57.21L90.00 54.07L81.92 62.70L84.74 74.47L95.63 77.61ZM127.94 43.10L125.13 31.32L114.23 28.18L106.15 36.81L108.96 48.59L119.86 51.73ZM57.32 44.66L54.50 32.90L43.61 29.76L35.54 38.40L38.37 50.16L49.26 53.30ZM38.37 50.16L35.54 38.40L24.66 35.27L16.60 43.91L19.43 55.67L30.31 58.80ZM62.57 24.26L59.74 12.49L48.85 9.36L40.78 18.00L43.61 29.76L54.50 32.90ZM43.61 29.76L40.78 18.00L29.89 14.87L21.83 23.51L24.66 35.27L35.54 38.40ZM71.03 59.56L68.21 47.80L57.32 44.66L49.26 53.30L52.08 65.06L62.97 68.19ZM52.08 65.06L49.26 53.30L38.37 50.16L30.31 58.80L33.14 70.56L44.02 73.69ZM76.28 39.17L73.46 27.39L62.57 24.26L54.50 32.90L57.32 44.66L68.21 47.80ZM138.49 2.28L135.67 -9.51L124.76 -12.65L116.68 -4.01L119.49 7.77L130.40 10.91ZM119.49 7.77L116.68 -4.01L105.77 -7.16L97.69 1.48L100.51 13.26L111.41 16.40ZM152.21 17.21L149.39 5.43L138.49 2.28L130.40 10.91L133.21 22.69L144.12 25.84ZM133.21 22.69L130.40 10.91L119.49 7.77L111.41 16.40L114.23 28.18L125.13 31.32ZM157.49 -3.21L154.67 -15.00L143.76 -18.15L135.67 -9.51L138.49 2.28L149.39 5.43ZM24.66 35.27L21.83 23.51L10.94 20.38L2.88 29.02L5.71 40.78L16.60 43.91ZM163.79 108.27L160.98 96.50L150.09 93.35L142.00 101.96L144.81 113.73L155.70 116.89ZM169.07 87.88L166.26 76.11L155.36 72.95L147.28 81.57L150.09 93.35L160.98 96.50ZM177.48 123.20L174.68 111.43L163.79 108.27L155.70 116.89L158.51 128.65L169.40 131.81ZM131.11 98.81L128.30 87.04L117.41 83.90L109.34 92.52L112.15 104.28L123.04 107.43ZM112.15 104.28L109.34 92.52L98.45 89.37L90.38 98.00L93.20 109.76L104.08 112.90ZM136.38 78.42L133.57 66.65L122.67 63.50L114.60 72.13L117.41 83.90L128.30 87.04ZM117.41 83.90L114.60 72.13L103.70 68.98L95.63 77.61L98.45 89.37L109.34 92.52ZM144.81 113.73L142.00 101.96L131.11 98.81L123.04 107.43L125.85 119.20L136.74 122.35ZM125.85 119.20L123.04 107.43L112.15 104.28L104.08 112.90L106.90 124.66L117.78 127.81ZM150.09 93.35L147.28 81.57L136.38 78.42L128.30 87.04L131.11 98.81L142.00 101.96ZM160.64 52.55L157.83 40.77L146.93 37.62L138.84 46.25L141.65 58.03L152.55 61.18ZM141.65 58.03L138.84 46.25L127.94 43.10L119.86 51.73L122.67 63.50L133.57 66.65ZM165.92 32.14L163.11 20.36L152.21 17.21L144.12 25.84L146.93 37.62L157.83 40.77ZM146.93 37.62L144.12 25.84L133.21 22.69L125.13 31.32L127.94 43.10L138.84 46.25ZM174.35 67.48L171.54 55.71L160.64 52.55L152.55 61.18L155.36 72.95L166.26 76.11ZM155.36 72.95L152.55 61.18L141.65 58.03L133.57 66.65L136.38 78.42L147.28 81.57ZM179.64 47.08L176.83 35.30L165.92 32.14L157.83 40.77L160.64 52.55L171.54 55.71ZM153.24 149.03L150.43 137.27L139.55 134.11L131.47 142.72L134.28 154.48L145.16 157.64ZM134.28 154.48L131.47 142.72L120.59 139.57L112.52 148.18L115.33 159.94L126.21 163.09ZM158.51 128.65L155.70 116.89L144.81 113.73L136.74 122.35L139.55 134.11L150.43 137.27ZM139.55 134.11L136.74 122.35L125.85 119.20L117.78 127.81L120.59 139.57L131.47 142.72ZM147.97 169.40L145.16 157.64L134.28 154.48L126.21 163.09L129.02 174.85L139.90 178.00ZM50.08 141.09L47.26 129.34L36.38 126.20L28.33 134.82L31.16 146.57L42.03 149.70ZM31.16 146.57L28.33 134.82L17.46 131.69L9.42 140.31L12.24 152.06L23.11 155.19ZM55.31 120.72L52.49 108.96L41.61 105.83L33.56 114.45L36.38 126.20L47.26 129.34ZM36.38 126.20L33.56 114.45L22.68 111.32L14.64 119.94L17.46 131.69L28.33 134.82ZM63.77 155.98L60.95 144.23L50.08 141.09L42.03 149.70L44.85 161.45L55.72 164.59ZM44.85 161.45L42.03 149.70L31.16 146.57L23.11 155.19L25.93 166.93L36.80 170.07ZM69.01 135.61L66.19 123.86L55.31 120.72L47.26 129.34L50.08 141.09L60.95 144.23ZM17.46 131.69L14.64 119.94L3.76 116.82L-4.28 125.44L-1.45 137.18L9.42 140.31ZM79.49 94.86L76.68 83.09L65.79 79.96L57.73 88.58L60.55 100.34L71.43 103.48ZM60.55 100.34L57.73 88.58L46.85 85.45L38.79 94.07L41.61 105.83L52.49 108.96ZM84.74 74.47L81.92 62.70L71.03 59.56L62.97 68.19L65.79 79.96L76.68 83.09ZM65.79 79.96L62.97 68.19L52.08 65.06L44.02 73.69L46.85 85.45L57.73 88.58ZM93.20 109.76L90.38 98.00L79.49 94.86L71.43 103.48L74.25 115.24L85.13 118.38ZM74.25 115.24L71.43 103.48L60.55 100.34L52.49 108.96L55.31 120.72L66.19 123.86ZM98.45 89.37L95.63 77.61L84.74 74.47L76.68 83.09L79.49 94.86L90.38 98.00ZM33.14 70.56L30.31 58.80L19.43 55.67L11.37 64.30L14.20 76.06L25.08 79.19ZM46.85 85.45L44.02 73.69L33.14 70.56L25.08 79.19L27.91 90.94L38.79 94.07ZM72.22 191.22L69.41 179.48L58.54 176.34L50.49 184.95L53.31 196.69L64.17 199.83ZM53.31 196.69L50.49 184.95L39.62 181.81L31.58 190.42L34.40 202.16L45.26 205.30ZM77.46 170.87L74.64 159.12L63.77 155.98L55.72 164.59L58.54 176.34L69.41 179.48ZM58.54 176.34L55.72 164.59L44.85 161.45L36.80 170.07L39.62 181.81L50.49 184.95ZM85.91 206.11L83.09 194.37L72.22 191.22L64.17 199.83L66.99 211.57L77.85 214.72ZM66.99 211.57L64.17 199.83L53.31 196.69L45.26 205.30L48.08 217.04L58.94 220.18ZM91.15 185.76L88.33 174.01L77.46 170.87L69.41 179.48L72.22 191.22L83.09 194.37ZM25.93 166.93L23.11 155.19L12.24 152.06L4.20 160.67L7.03 172.41L17.89 175.54ZM34.40 202.16L31.58 190.42L20.72 187.29L12.68 195.89L15.50 207.63L26.36 210.76ZM39.62 181.81L36.80 170.07L25.93 166.93L17.89 175.54L20.72 187.29L31.58 190.42ZM101.64 145.04L98.83 133.28L87.95 130.14L79.89 138.75L82.70 150.51L93.58 153.65ZM82.70 150.51L79.89 138.75L69.01 135.61L60.95 144.23L63.77 155.98L74.64 159.12ZM106.90 124.66L104.08 112.90L93.20 109.76L85.13 118.38L87.95 130.14L98.83 133.28ZM87.95 130.14L85.13 118.38L74.25 115.24L66.19 123.86L69.01 135.61L79.89 138.75ZM115.33 159.94L112.52 148.18L101.64 145.04L93.58 153.65L96.39 165.40L107.27 168.55ZM96.39 165.40L93.58 153.65L82.70 150.51L74.64 159.12L77.46 170.87L88.33 174.01ZM120.59 139.57L117.78 127.81L106.90 124.66L98.83 133.28L101.64 145.04L112.52 148.18ZM171.21 11.73L168.40 -0.06L157.49 -3.21L149.39 5.43L152.21 17.21L163.11 20.36Z"/><path data-band="2" fill="#f97316" fill-opacity="0.35" d="M259.60 212.83L256.81 201.06L245.92 197.88L237.83 206.48L240.62 218.24L251.51 221.42ZM264.91 192.46L262.12 180.69L251.23 177.52L243.13 186.11L245.92 197.88L256.81 201.06ZM273.28 227.77L270.49 216.01L259.60 212.83L251.51 221.42L254.30 233.18L265.18 236.36ZM226.95 203.30L224.15 191.54L213.27 188.37L205.18 196.97L207.98 208.73L218.86 211.90ZM207.98 208.73L205.18 196.97L194.30 193.80L186.22 202.40L189.02 214.16L199.90 217.32ZM232.24 182.94L229.45 171.17L218.56 168.00L210.47 176.60L213.27 188.37L224.15 191.54ZM213.27 188.37L210.47 176.60L199.58 173.44L191.50 182.04L194.30 193.80L205.18 196.97ZM240.62 218.24L237.83 206.48L226.95 203.30L218.86 211.90L221.66 223.66L232.54 226.83ZM221.66 223.66L218.86 211.90L207.98 208.73L199.90 217.32L202.69 229.08L213.57 232.25ZM245.92 197.88L243.13 186.11L232.24 182.94L224.15 191.54L226.95 203.30L237.83 206.48ZM256.53 157.14L253.74 145.37L242.85 142.19L234.75 150.80L237.54 162.57L248.43 165.74ZM237.54 162.57L234.75 150.80L223.85 147.63L215.76 156.23L218.56 168.00L229.45 171.17ZM261.85 136.76L259.05 124.98L248.15 121.81L240.05 130.42L242.85 142.19L253.74 145.37ZM242.85 142.19L240.05 130.42L229.15 127.25L221.06 135.85L223.85 147.63L234.75 150.80ZM270.22 172.10L267.43 160.32L256.53 157.14L248.43 165.74L251.23 177.52L262.12 180.69ZM251.23 177.52L248.43 165.74L237.54 162.57L229.45 171.17L232.24 182.94L243.13 186.11ZM275.54 151.72L272.74 139.94L261.85 136.76L253.74 145.37L256.53 157.14L267.43 160.32ZM249.00 253.53L246.21 241.77L235.33 238.59L227.24 247.18L230.04 258.94L240.91 262.11ZM230.04 258.94L227.24 247.18L216.37 244.01L208.29 252.59L211.08 264.35L221.95 267.52ZM254.30 233.18L251.51 221.42L240.62 218.24L232.54 226.83L235.33 238.59L246.21 241.77ZM235.33 238.59L232.54 226.83L221.66 223.66L213.57 232.25L216.37 244.01L227.24 247.18ZM262.67 268.47L259.88 256.71L249.00 253.53L240.91 262.11L243.70 273.87L254.58 277.05ZM267.97 248.13L265.18 236.36L254.30 233.18L246.21 241.77L249.00 253.53L259.88 256.71ZM145.86 245.37L143.06 233.62L132.19 230.46L124.13 239.06L126.93 250.80L137.80 253.96ZM151.12 225.02L148.32 213.27L137.44 210.11L129.38 218.71L132.19 230.46L143.06 233.62ZM159.53 260.27L156.73 248.52L145.86 245.37L137.80 253.96L140.60 265.70L151.47 268.86ZM140.60 265.70L137.80 253.96L126.93 250.80L118.88 259.39L121.68 271.13L132.54 274.29ZM164.80 239.93L161.99 228.18L151.12 225.02L143.06 233.62L145.86 245.37L156.73 248.52ZM175.34 199.23L172.54 187.47L161.66 184.31L153.58 192.92L156.39 204.67L167.26 207.83ZM180.62 178.87L177.81 167.11L166.93 163.95L158.85 172.55L161.66 184.31L172.54 187.47ZM161.66 184.31L158.85 172.55L147.97 169.40L139.90 178.00L142.71 189.76L153.58 192.92ZM189.02 214.16L186.22 202.40L175.34 199.23L167.26 207.83L170.07 219.59L180.94 222.75ZM170.07 219.59L167.26 207.83L156.39 204.67L148.32 213.27L151.12 225.02L161.99 228.18ZM194.30 193.80L191.50 182.04L180.62 178.87L172.54 187.47L175.34 199.23L186.22 202.40ZM197.41 249.43L194.62 237.67L183.74 234.51L175.67 243.10L178.47 254.85L189.34 258.01ZM178.47 254.85L175.67 243.10L164.80 239.93L156.73 248.52L159.53 260.27L170.40 263.44ZM202.69 229.08L199.90 217.32L189.02 214.16L180.94 222.75L183.74 234.51L194.62 237.67ZM183.74 234.51L180.94 222.75L170.07 219.59L161.99 228.18L164.80 239.93L175.67 243.10ZM211.08 264.35L208.29 252.59L197.41 249.43L189.34 258.01L192.14 269.77L203.01 272.93ZM192.14 269.77L189.34 258.01L178.47 254.85L170.40 263.44L173.20 275.18L184.06 278.35ZM216.37 244.01L213.57 232.25L202.69 229.08L194.62 237.67L197.41 249.43L208.29 252.59ZM264.09 60.61L261.30 48.82L250.38 45.65L242.27 54.27L245.07 66.06L255.98 69.23ZM245.07 66.06L242.27 54.27L231.36 51.10L223.26 59.73L226.06 71.51L236.96 74.68ZM269.41 40.20L266.62 28.41L255.70 25.23L247.58 33.86L250.38 45.65L261.30 48.82ZM250.38 45.65L247.58 33.86L236.67 30.69L228.56 39.32L231.36 51.10L242.27 54.27ZM277.80 75.58L275.00 63.79L264.09 60.61L255.98 69.23L258.78 81.02L269.68 84.19ZM258.78 81.02L255.98 69.23L245.07 66.06L236.96 74.68L239.76 86.46L250.67 89.63ZM274.74 19.78L271.94 7.98L261.02 4.81L252.90 13.44L255.70 25.23L266.62 28.41ZM267.16 116.38L264.37 104.59L253.46 101.42L245.36 110.03L248.15 121.81L259.05 124.98ZM272.48 95.98L269.68 84.19L258.78 81.02L250.67 89.63L253.46 101.42L264.37 104.59ZM182.77 102.81L179.96 91.04L169.07 87.88L160.98 96.50L163.79 108.27L174.68 111.43ZM188.05 82.42L185.25 70.64L174.35 67.48L166.26 76.11L169.07 87.88L179.96 91.04ZM196.47 117.75L193.66 105.97L182.77 102.81L174.68 111.43L177.48 123.20L188.38 126.36ZM201.76 97.36L198.95 85.58L188.05 82.42L179.96 91.04L182.77 102.81L193.66 105.97ZM212.35 56.56L209.55 44.78L198.64 41.61L190.54 50.24L193.35 62.02L204.25 65.18ZM193.35 62.02L190.54 50.24L179.64 47.08L171.54 55.71L174.35 67.48L185.25 70.64ZM217.65 36.15L214.85 24.36L203.94 21.20L195.83 29.83L198.64 41.61L209.55 44.78ZM198.64 41.61L195.83 29.83L184.93 26.67L176.83 35.30L179.64 47.08L190.54 50.24ZM226.06 71.51L223.26 59.73L212.35 56.56L204.25 65.18L207.05 76.96L217.95 80.13ZM207.05 76.96L204.25 65.18L193.35 62.02L185.25 70.64L188.05 82.42L198.95 85.58ZM231.36 51.10L228.56 39.32L217.65 36.15L209.55 44.78L212.35 56.56L223.26 59.73ZM204.87 153.06L202.07 141.29L191.18 138.13L183.09 146.74L185.90 158.51L196.78 161.67ZM185.90 158.51L183.09 146.74L172.21 143.58L164.12 152.19L166.93 163.95L177.81 167.11ZM210.16 132.69L207.36 120.91L196.47 117.75L188.38 126.36L191.18 138.13L202.07 141.29ZM191.18 138.13L188.38 126.36L177.48 123.20L169.40 131.81L172.21 143.58L183.09 146.74ZM218.56 168.00L215.76 156.23L204.87 153.06L196.78 161.67L199.58 173.44L210.47 176.60ZM199.58 173.44L196.78 161.67L185.90 158.51L177.81 167.11L180.62 178.87L191.50 182.04ZM223.85 147.63L221.06 135.85L210.16 132.69L202.07 141.29L204.87 153.06L215.76 156.23ZM166.93 163.95L164.12 152.19L153.24 149.03L145.16 157.64L147.97 169.40L158.85 172.55ZM172.21 143.58L169.40 131.81L158.51 128.65L150.43 137.27L153.24 149.03L164.12 152.19ZM234.45 106.86L231.66 95.08L220.75 91.91L212.66 100.52L215.46 112.30L226.35 115.47ZM215.46 112.30L212.66 100.52L201.76 97.36L193.66 105.97L196.47 117.75L207.36 120.91ZM239.76 86.46L236.96 74.68L226.06 71.51L217.95 80.13L220.75 91.91L231.66 95.08ZM220.75 91.91L217.95 80.13L207.05 76.96L198.95 85.58L201.76 97.36L212.66 100.52ZM248.15 121.81L245.36 110.03L234.45 106.86L226.35 115.47L229.15 127.25L240.05 130.42ZM229.15 127.25L226.35 115.47L215.46 112.30L207.36 120.91L210.16 132.69L221.06 135.85ZM253.46 101.42L250.67 89.63L239.76 86.46L231.66 95.08L234.45 106.86L245.36 110.03ZM241.98 10.27L239.18 -1.53L228.27 -4.69L220.15 3.94L222.96 15.73L233.87 18.90ZM222.96 15.73L220.15 3.94L209.24 0.78L201.13 9.41L203.94 21.20L214.85 24.36ZM228.27 -4.69L225.46 -16.49L214.54 -19.65L206.43 -11.01L209.24 0.78L220.15 3.94ZM255.70 25.23L252.90 13.44L241.98 10.27L233.87 18.90L236.67 30.69L247.58 33.86ZM236.67 30.69L233.87 18.90L222.96 15.73L214.85 24.36L217.65 36.15L228.56 39.32ZM261.02 4.81L258.22 -6.99L247.30 -10.16L239.18 -1.53L241.98 10.27L252.90 13.44ZM190.22 6.25L187.41 -5.54L176.50 -8.69L168.40 -0.06L171.21 11.73L182.12 14.88ZM203.94 21.20L201.13 9.41L190.22 6.25L182.12 14.88L184.93 26.67L195.83 29.83ZM184.93 26.67L182.12 14.88L171.21 11.73L163.11 20.36L165.92 32.14L176.83 35.30ZM209.24 0.78L206.43 -11.01L195.52 -14.17L187.41 -5.54L190.22 6.25L201.13 9.41Z"/></svg>
