<svg xmlns="http://www.w3.org/2000/svg" width="256" height="256" viewBox="0 0 256 256"><path data-band="2" fill="#f97316" fill-opacity="0.35" d="M7.13 256.50L4.37 245.00L-6.24 241.82L-14.09 250.13L-11.32 261.63L-0.72 264.82ZM138.57 146.38L135.82 134.85L125.18 131.64L117.29 139.97L120.04 151.51L130.68 154.71ZM120.04 151.51L117.29 139.97L106.65 136.77L98.77 145.10L101.52 156.63L112.15 159.83ZM143.72 126.51L140.97 114.97L130.33 111.77L122.43 120.10L125.18 131.64L135.82 134.85ZM125.18 131.64L122.43 120.10L111.79 116.90L103.90 125.24L106.65 136.77L117.29 139.97ZM151.95 161.12L149.21 149.59L138.57 146.38L130.68 154.71L133.42 166.24L144.06 169.45ZM133.42 166.24L130.68 154.71L120.04 151.51L112.15 159.83L114.90 171.36L125.54 174.57ZM157.11 141.26L154.36 129.72L143.72 126.51L135.82 134.85L138.57 146.38L149.21 149.59ZM88.13 141.91L85.38 130.37L74.74 127.18L66.87 135.51L69.62 147.04L80.25 150.24ZM69.62 147.04L66.87 135.51L56.23 132.32L48.36 140.66L51.12 152.18L61.75 155.37ZM93.26 122.04L90.51 110.51L79.87 107.31L71.99 115.65L74.74 127.18L85.38 130.37ZM74.74 127.18L71.99 115.65L61.35 112.46L53.47 120.80L56.23 132.32L66.87 135.51ZM101.52 156.63L98.77 145.10L88.13 141.91L80.25 150.24L83.01 161.76L93.64 164.96ZM83.01 161.76L80.25 150.24L69.62 147.04L61.75 155.37L64.50 166.90L75.13 170.09ZM106.65 136.77L103.90 125.24L93.26 122.04L85.38 130.37L88.13 141.91L98.77 145.10ZM167.42 101.51L164.68 89.96L154.03 86.76L146.12 95.09L148.87 106.64L159.52 109.85ZM148.87 106.64L146.12 95.09L135.48 91.89L127.58 100.23L130.33 111.77L140.97 114.97ZM172.58 81.63L169.84 70.08L159.19 66.87L151.28 75.21L154.03 86.76L164.68 89.96ZM154.03 86.76L151.28 75.21L140.63 72.00L132.73 80.35L135.48 91.89L146.12 95.09ZM180.81 116.27L178.07 104.72L167.42 101.51L159.52 109.85L162.26 121.39L172.91 124.60ZM162.26 121.39L159.52 109.85L148.87 106.64L140.97 114.97L143.72 126.51L154.36 129.72ZM185.98 96.39L183.24 84.84L172.58 81.63L164.68 89.96L167.42 101.51L178.07 104.72ZM116.93 97.03L114.18 85.49L103.53 82.29L95.64 90.63L98.40 102.17L109.04 105.37ZM98.40 102.17L95.64 90.63L85.00 87.43L77.11 95.78L79.87 107.31L90.51 110.51ZM122.08 77.14L119.33 65.60L108.68 62.40L100.78 70.75L103.53 82.29L114.18 85.49ZM103.53 82.29L100.78 70.75L90.13 67.55L82.24 75.89L85.00 87.43L95.64 90.63ZM130.33 111.77L127.58 100.23L116.93 97.03L109.04 105.37L111.79 116.90L122.43 120.10ZM111.79 116.90L109.04 105.37L98.40 102.17L90.51 110.51L93.26 122.04L103.90 125.24ZM135.48 91.89L132.73 80.35L122.08 77.14L114.18 85.49L116.93 97.03L127.58 100.23ZM160.18 195.72L157.44 184.19L146.80 180.98L138.91 189.30L141.66 200.83L152.29 204.04ZM141.66 200.83L138.91 189.30L128.28 186.10L120.40 194.42L123.14 205.94L133.77 209.15ZM165.33 175.87L162.59 164.34L151.95 161.12L144.06 169.45L146.80 180.98L157.44 184.19ZM146.80 180.98L144.06 169.45L133.42 166.24L125.54 174.57L128.28 186.10L138.91 189.30ZM173.56 210.47L170.82 198.94L160.18 195.72L152.29 204.04L155.03 215.57L165.66 218.78ZM155.03 215.57L152.29 204.04L141.66 200.83L133.77 209.15L136.52 220.68L147.14 223.89ZM178.71 190.62L175.97 179.08L165.33 175.87L157.44 184.19L160.18 195.72L170.82 198.94ZM109.77 191.22L107.02 179.69L96.39 176.49L88.51 184.81L91.26 196.34L101.89 199.54ZM91.26 196.34L88.51 184.81L77.88 181.62L70.01 189.94L72.76 201.46L83.39 204.66ZM114.90 171.36L112.15 159.83L101.52 156.63L93.64 164.96L96.39 176.49L107.02 179.69ZM96.39 176.49L93.64 164.96L83.01 161.76L75.13 170.09L77.88 181.62L88.51 184.81ZM123.14 205.94L120.40 194.42L109.77 191.22L101.89 199.54L104.64 211.06L115.26 214.26ZM104.64 211.06L101.89 199.54L91.26 196.34L83.39 204.66L86.14 216.18L96.76 219.38ZM128.28 186.10L125.54 174.57L114.90 171.36L107.02 179.69L109.77 191.22L120.40 194.42ZM189.04 150.90L186.30 139.36L175.65 136.14L167.75 144.47L170.49 156.01L181.13 159.22ZM170.49 156.01L167.75 144.47L157.11 141.26L149.21 149.59L151.95 161.12L162.59 164.34ZM194.20 131.03L191.46 119.48L180.81 116.27L172.91 124.60L175.65 136.14L186.30 139.36ZM175.65 136.14L172.91 124.60L162.26 121.39L154.36 129.72L157.11 141.26L167.75 144.47ZM202.42 165.66L199.68 154.12L189.04 150.90L181.13 159.22L183.87 170.76L194.51 173.98ZM183.87 170.76L181.13 159.22L170.49 156.01L162.59 164.34L165.33 175.87L175.97 179.08ZM207.59 145.79L204.85 134.25L194.20 131.03L186.30 139.36L189.04 150.90L199.68 154.12ZM9.03 182.32L6.27 170.80L-4.35 167.62L-12.20 175.95L-9.44 187.47L1.18 190.65ZM14.13 162.47L11.37 150.95L0.75 147.77L-7.11 156.11L-4.35 167.62L6.27 170.80ZM22.41 197.02L19.65 185.50L9.03 182.32L1.18 190.65L3.94 202.16L14.56 205.34ZM3.94 202.16L1.18 190.65L-9.44 187.47L-17.29 195.79L-14.53 207.30L-3.91 210.48ZM27.51 177.18L24.76 165.66L14.13 162.47L6.27 170.80L9.03 182.32L19.65 185.50ZM37.73 137.47L34.97 125.94L24.34 122.76L16.47 131.10L19.23 142.62L29.86 145.80ZM19.23 142.62L16.47 131.10L5.84 127.91L-2.02 136.25L0.75 147.77L11.37 150.95ZM42.84 117.61L40.08 106.08L29.45 102.89L21.58 111.23L24.34 122.76L34.97 125.94ZM24.34 122.76L21.58 111.23L10.95 108.05L3.08 116.39L5.84 127.91L16.47 131.10ZM51.12 152.18L48.36 140.66L37.73 137.47L29.86 145.80L32.62 157.33L43.25 160.51ZM32.62 157.33L29.86 145.80L19.23 142.62L11.37 150.95L14.13 162.47L24.76 165.66ZM56.23 132.32L53.47 120.80L42.84 117.61L34.97 125.94L37.73 137.47L48.36 140.66ZM0.75 147.77L-2.02 136.25L-12.64 133.07L-20.50 141.41L-17.73 152.93L-7.11 156.11ZM5.84 127.91L3.08 116.39L-7.55 113.21L-15.41 121.56L-12.64 133.07L-2.02 136.25ZM30.69 231.55L27.93 220.04L17.31 216.85L9.46 225.18L12.22 236.68L22.83 239.87ZM12.22 236.68L9.46 225.18L-1.15 221.99L-9.00 230.31L-6.24 241.82L4.37 245.00ZM35.79 211.72L33.03 200.21L22.41 197.02L14.56 205.34L17.31 216.85L27.93 220.04ZM17.31 216.85L14.56 205.34L3.94 202.16L-3.91 210.48L-1.15 221.99L9.46 225.18ZM44.06 246.25L41.30 234.74L30.69 231.55L22.83 239.87L25.59 251.38L36.20 254.57ZM25.59 251.38L22.83 239.87L12.22 236.68L4.37 245.00L7.13 256.50L17.73 259.69ZM49.16 226.42L46.41 214.91L35.79 211.72L27.93 220.04L30.69 231.55L41.30 234.74ZM59.38 186.75L56.63 175.23L46.00 172.04L38.14 180.36L40.89 191.88L51.52 195.07ZM40.89 191.88L38.14 180.36L27.51 177.18L19.65 185.50L22.41 197.02L33.03 200.21ZM64.50 166.90L61.75 155.37L51.12 152.18L43.25 160.51L46.00 172.04L56.63 175.23ZM46.00 172.04L43.25 160.51L32.62 157.33L24.76 165.66L27.51 177.18L38.14 180.36ZM72.76 201.46L70.01 189.94L59.38 186.75L51.52 195.07L54.27 206.59L64.89 209.78ZM54.27 206.59L51.52 195.07L40.89 191.88L33.03 200.21L35.79 211.72L46.41 214.91ZM77.88 181.62L75.13 170.09L64.50 166.90L56.63 175.23L59.38 186.75L70.01 189.94ZM174.68 7.16L171.94 -4.40L161.27 -7.61L153.35 0.74L156.10 12.30L166.77 15.51ZM156.10 12.30L153.35 0.74L142.69 -2.46L134.78 5.90L137.53 17.45L148.19 20.66ZM161.27 -7.61L158.52 -19.17L147.85 -22.38L139.94 -14.02L142.69 -2.46L153.35 0.74ZM188.09 21.93L185.35 10.37L174.68 7.16L166.77 15.51L169.51 27.07L180.18 30.28ZM169.51 27.07L166.77 15.51L156.10 12.30L148.19 20.66L150.94 32.21L161.60 35.42ZM193.27 2.01L190.53 -9.55L179.86 -12.76L171.94 -4.40L174.68 7.16L185.35 10.37ZM124.12 2.70L121.36 -8.86L110.70 -12.06L102.80 -3.70L105.56 7.86L116.21 11.05ZM105.56 7.86L102.80 -3.70L92.14 -6.89L84.24 1.47L87.00 13.02L97.66 16.21ZM137.53 17.45L134.78 5.90L124.12 2.70L116.21 11.05L118.97 22.61L129.62 25.80ZM118.97 22.61L116.21 11.05L105.56 7.86L97.66 16.21L100.41 27.76L111.07 30.96ZM142.69 -2.46L139.94 -14.02L129.27 -17.22L121.36 -8.86L124.12 2.70L134.78 5.90ZM196.33 56.60L193.58 45.05L182.92 41.83L175.01 50.18L177.75 61.73L188.41 64.95ZM177.75 61.73L175.01 50.18L164.35 46.97L156.44 55.32L159.19 66.87L169.84 70.08ZM201.50 36.70L198.76 25.14L188.09 21.93L180.18 30.28L182.92 41.83L193.58 45.05ZM182.92 41.83L180.18 30.28L169.51 27.07L161.60 35.42L164.35 46.97L175.01 50.18ZM209.73 71.37L206.99 59.82L196.33 56.60L188.41 64.95L191.15 76.50L201.81 79.71ZM191.15 76.50L188.41 64.95L177.75 61.73L169.84 70.08L172.58 81.63L183.24 84.84ZM214.91 51.48L212.17 39.92L201.50 36.70L193.58 45.05L196.33 56.60L206.99 59.82ZM145.78 52.11L143.03 40.56L132.38 37.36L124.47 45.71L127.22 57.25L137.88 60.46ZM127.22 57.25L124.47 45.71L113.82 42.51L105.92 50.85L108.68 62.40L119.33 65.60ZM150.94 32.21L148.19 20.66L137.53 17.45L129.62 25.80L132.38 37.36L143.03 40.56ZM132.38 37.36L129.62 25.80L118.97 22.61L111.07 30.96L113.82 42.51L124.47 45.71ZM159.19 66.87L156.44 55.32L145.78 52.11L137.88 60.46L140.63 72.00L151.28 75.21ZM140.63 72.00L137.88 60.46L127.22 57.25L119.33 65.60L122.08 77.14L132.73 80.35ZM164.35 46.97L161.60 35.42L150.94 32.21L143.03 40.56L145.78 52.11L156.44 55.32ZM225.28 11.66L222.54 0.09L211.87 -3.12L203.94 5.23L206.68 16.79L217.35 20.01ZM206.68 16.79L203.94 5.23L193.27 2.01L185.35 10.37L188.09 21.93L198.76 25.14ZM230.47 -8.26L227.73 -19.83L217.05 -23.05L209.12 -14.69L211.87 -3.12L222.54 0.09ZM211.87 -3.12L209.12 -14.69L198.45 -17.91L190.53 -9.55L193.27 2.01L203.94 5.23ZM238.69 26.44L235.95 14.88L225.28 11.66L217.35 20.01L220.09 31.57L230.76 34.79ZM220.09 31.57L217.35 20.01L206.68 16.79L198.76 25.14L201.50 36.70L212.17 39.92ZM243.89 6.53L241.15 -5.04L230.47 -8.26L222.54 0.09L225.28 11.66L235.95 14.88ZM44.79 43.25L42.03 31.71L31.38 28.52L23.50 36.88L26.27 48.42L36.91 51.60ZM26.27 48.42L23.50 36.88L12.86 33.70L4.99 42.05L7.75 53.59L18.39 56.77ZM49.91 23.35L47.15 11.81L36.50 8.62L28.62 16.98L31.38 28.52L42.03 31.71ZM31.38 28.52L28.62 16.98L17.97 13.80L10.09 22.16L12.86 33.70L23.50 36.88ZM58.20 57.97L55.44 46.43L44.79 43.25L36.91 51.60L39.67 63.14L50.32 66.32ZM39.67 63.14L36.91 51.60L26.27 48.42L18.39 56.77L21.16 68.30L31.80 71.48ZM63.32 38.08L60.56 26.54L49.91 23.35L42.03 31.71L44.79 43.25L55.44 46.43ZM7.75 53.59L4.99 42.05L-5.65 38.88L-13.52 47.23L-10.75 58.76L-0.12 61.94ZM12.86 33.70L10.09 22.16L-0.55 18.98L-8.42 27.34L-5.65 38.88L4.99 42.05ZM73.59 -1.72L70.82 -13.27L60.17 -16.46L52.28 -8.10L55.04 3.45L65.69 6.64ZM55.04 3.45L52.28 -8.10L41.62 -11.28L33.74 -2.92L36.50 8.62L47.15 11.81ZM87.00 13.02L84.24 1.47L73.59 -1.72L65.69 6.64L68.45 18.18L79.11 21.37ZM68.45 18.18L65.69 6.64L55.04 3.45L47.15 11.81L49.91 23.35L60.56 26.54ZM92.14 -6.89L89.38 -18.44L78.72 -21.63L70.82 -13.27L73.59 -1.72L84.24 1.47ZM23.09 -6.10L20.32 -17.64L9.67 -20.82L1.79 -12.46L4.56 -0.92L15.20 2.26ZM4.56 -0.92L1.79 -12.46L-8.86 -15.63L-16.74 -7.27L-13.96 4.27L-3.32 7.45ZM36.50 8.62L33.74 -2.92L23.09 -6.10L15.20 2.26L17.97 13.80L28.62 16.98ZM17.97 13.80L15.20 2.26L4.56 -0.92L-3.32 7.45L-0.55 18.98L10.09 22.16ZM66.47 92.58L63.72 81.05L53.08 77.86L45.20 86.20L47.96 97.74L58.59 100.92ZM47.96 97.74L45.20 86.20L34.56 83.02L26.68 91.36L29.45 102.89L40.08 106.08ZM71.60 72.70L68.84 61.16L58.20 57.97L50.32 66.32L53.08 77.86L63.72 81.05ZM53.08 77.86L50.32 66.32L39.67 63.14L31.80 71.48L34.56 83.02L45.20 86.20ZM79.87 107.31L77.11 95.78L66.47 92.58L58.59 100.92L61.35 112.46L71.99 115.65ZM61.35 112.46L58.59 100.92L47.96 97.74L40.08 106.08L42.84 117.61L53.47 120.80ZM85.00 87.43L82.24 75.89L71.60 72.70L63.72 81.05L66.47 92.58L77.11 95.78ZM16.05 88.18L13.28 76.65L2.65 73.47L-5.22 81.82L-2.45 93.34L8.18 96.52ZM21.16 68.30L18.39 56.77L7.75 53.59L-0.12 61.94L2.65 73.47L13.28 76.65ZM2.65 73.47L-0.12 61.94L-10.75 58.76L-18.62 67.12L-15.85 78.64L-5.22 81.82ZM29.45 102.89L26.68 91.36L16.05 88.18L8.18 96.52L10.95 108.05L21.58 111.23ZM10.95 108.05L8.18 96.52L-2.45 93.34L-10.32 101.69L-7.55 113.21L3.08 116.39ZM34.56 83.02L31.80 71.48L21.16 68.30L13.28 76.65L16.05 88.18L26.68 91.36ZM95.27 47.66L92.51 36.11L81.86 32.92L73.97 41.27L76.73 52.81L87.38 56.01ZM76.73 52.81L73.97 41.27L63.32 38.08L55.44 46.43L58.20 57.97L68.84 61.16ZM100.41 27.76L97.66 16.21L87.00 13.02L79.11 21.37L81.86 32.92L92.51 36.11ZM81.86 32.92L79.11 21.37L68.45 18.18L60.56 26.54L63.32 38.08L73.97 41.27ZM108.68 62.40L105.92 50.85L95.27 47.66L87.38 56.01L90.13 67.55L100.78 70.75ZM90.13 67.55L87.38 56.01L76.73 52.81L68.84 61.16L71.60 72.70L82.24 75.89ZM113.82 42.51L111.07 30.96L100.41 27.76L92.51 36.11L95.27 47.66L105.92 50.85ZM232.19 249.64L229.46 238.10L218.83 234.88L210.93 243.19L213.66 254.72L224.29 257.94ZM213.66 254.72L210.93 243.19L200.30 239.96L192.40 248.27L195.13 259.80L205.76 263.02ZM237.37 229.79L234.64 218.26L224.00 215.03L216.10 223.34L218.83 234.88L229.46 238.10ZM218.83 234.88L216.10 223.34L205.46 220.12L197.56 228.43L200.30 239.96L210.93 243.19ZM245.56 264.40L242.83 252.86L232.19 249.64L224.29 257.94L227.02 269.47L237.65 272.70ZM227.02 269.47L224.29 257.94L213.66 254.72L205.76 263.02L208.50 274.55L219.12 277.77ZM250.74 244.56L248.01 233.02L237.37 229.79L229.46 238.10L232.19 249.64L242.83 252.86ZM181.77 245.05L179.03 233.53L168.40 230.31L160.51 238.62L163.25 250.15L173.88 253.36ZM163.25 250.15L160.51 238.62L149.89 235.41L142.00 243.72L144.74 255.24L155.37 258.46ZM186.93 225.22L184.19 213.68L173.56 210.47L165.66 218.78L168.40 230.31L179.03 233.53ZM168.40 230.31L165.66 218.78L155.03 215.57L147.14 223.89L149.89 235.41L160.51 238.62ZM195.13 259.80L192.40 248.27L181.77 245.05L173.88 253.36L176.62 264.89L187.24 268.10ZM176.62 264.89L173.88 253.36L163.25 250.15L155.37 258.46L158.11 269.98L168.73 273.19ZM200.30 239.96L197.56 228.43L186.93 225.22L179.03 233.53L181.77 245.05L192.40 248.27ZM242.55 209.95L239.82 198.41L229.18 195.18L221.27 203.50L224.00 215.03L234.64 218.26ZM247.73 190.09L245.00 178.55L234.36 175.32L226.44 183.64L229.18 195.18L239.82 198.41ZM210.63 200.27L207.89 188.74L197.25 185.52L189.35 193.84L192.09 205.37L202.72 208.59ZM192.09 205.37L189.35 193.84L178.71 190.62L170.82 198.94L173.56 210.47L184.19 213.68ZM215.80 180.42L213.06 168.88L202.42 165.66L194.51 173.98L197.25 185.52L207.89 188.74ZM197.25 185.52L194.51 173.98L183.87 170.76L175.97 179.08L178.71 190.62L189.35 193.84ZM224.00 215.03L221.27 203.50L210.63 200.27L202.72 208.59L205.46 220.12L216.10 223.34ZM205.46 220.12L202.72 208.59L192.09 205.37L184.19 213.68L186.93 225.22L197.56 228.43ZM229.18 195.18L226.44 183.64L215.80 180.42L207.89 188.74L210.63 200.27L221.27 203.50ZM107.75 265.44L105.00 253.93L94.38 250.73L86.51 259.04L89.26 270.55L99.88 273.75ZM89.26 270.55L86.51 259.04L75.90 255.84L68.03 264.15L70.78 275.66L81.40 278.86ZM57.42 260.95L54.67 249.45L44.06 246.25L36.20 254.57L38.95 266.07L49.56 269.27ZM38.95 266.07L36.20 254.57L25.59 251.38L17.73 259.69L20.49 271.19L31.10 274.38ZM131.38 240.51L128.63 228.99L118.01 225.78L110.13 234.10L112.88 245.62L123.50 248.82ZM112.88 245.62L110.13 234.10L99.51 230.90L91.63 239.21L94.38 250.73L105.00 253.93ZM136.52 220.68L133.77 209.15L123.14 205.94L115.26 214.26L118.01 225.78L128.63 228.99ZM118.01 225.78L115.26 214.26L104.64 211.06L96.76 219.38L99.51 230.90L110.13 234.10ZM144.74 255.24L142.00 243.72L131.38 240.51L123.50 248.82L126.24 260.34L136.86 263.55ZM126.24 260.34L123.50 248.82L112.88 245.62L105.00 253.93L107.75 265.44L118.36 268.65ZM149.89 235.41L147.14 223.89L136.52 220.68L128.63 228.99L131.38 240.51L142.00 243.72ZM81.02 236.01L78.26 224.50L67.64 221.30L59.78 229.62L62.53 241.13L73.15 244.33ZM62.53 241.13L59.78 229.62L49.16 226.42L41.30 234.74L44.06 246.25L54.67 249.45ZM86.14 216.18L83.39 204.66L72.76 201.46L64.89 209.78L67.64 221.30L78.26 224.50ZM67.64 221.30L64.89 209.78L54.27 206.59L46.41 214.91L49.16 226.42L59.78 229.62ZM94.38 250.73L91.63 239.21L81.02 236.01L73.15 244.33L75.90 255.84L86.51 259.04ZM75.90 255.84L73.15 244.33L62.53 241.13L54.67 249.45L57.42 260.95L68.03 264.15ZM99.51 230.90L96.76 219.38L86.14 216.18L78.26 224.50L81.02 236.01L91.63 239.21ZM158.11 269.98L155.37 258.46L144.74 255.24L136.86 263.55L139.60 275.07L150.22 278.28ZM268.50 110.60L265.77 99.04L255.10 95.82L247.18 104.15L249.91 115.70L260.57 118.93ZM249.91 115.70L247.18 104.15L236.52 100.92L228.60 109.26L231.33 120.81L241.99 124.03ZM273.70 90.71L270.97 79.15L260.30 75.92L252.37 84.26L255.10 95.82L265.77 99.04ZM255.10 95.82L252.37 84.26L241.71 81.03L233.78 89.37L236.52 100.92L247.18 104.15ZM263.30 130.49L260.57 118.93L249.91 115.70L241.99 124.03L244.72 135.58L255.38 138.81ZM217.94 106.04L215.21 94.48L204.55 91.27L196.63 99.60L199.38 111.15L210.03 114.37ZM199.38 111.15L196.63 99.60L185.98 96.39L178.07 104.72L180.81 116.27L191.46 119.48ZM223.13 86.15L220.39 74.59L209.73 71.37L201.81 79.71L204.55 91.27L215.21 94.48ZM204.55 91.27L201.81 79.71L191.15 76.50L183.24 84.84L185.98 96.39L196.63 99.60ZM231.33 120.81L228.60 109.26L217.94 106.04L210.03 114.37L212.77 125.92L223.42 129.14ZM212.77 125.92L210.03 114.37L199.38 111.15L191.46 119.48L194.20 131.03L204.85 134.25ZM236.52 100.92L233.78 89.37L223.13 86.15L215.21 94.48L217.94 106.04L228.60 109.26ZM246.90 61.14L244.16 49.57L233.50 46.35L225.57 54.69L228.31 66.25L238.97 69.48ZM228.31 66.25L225.57 54.69L214.91 51.48L206.99 59.82L209.73 71.37L220.39 74.59ZM252.10 41.23L249.36 29.67L238.69 26.44L230.76 34.79L233.50 46.35L244.16 49.57ZM233.50 46.35L230.76 34.79L220.09 31.57L212.17 39.92L214.91 51.48L225.57 54.69ZM260.30 75.92L257.57 64.36L246.90 61.14L238.97 69.48L241.71 81.03L252.37 84.26ZM241.71 81.03L238.97 69.48L228.31 66.25L220.39 74.59L223.13 86.15L233.78 89.37ZM265.50 56.02L262.77 44.46L252.10 41.23L244.16 49.57L246.90 61.14L257.57 64.36ZM271.49 165.14L268.76 153.59L258.11 150.36L250.19 158.68L252.92 170.23L263.57 173.46ZM276.69 145.27L273.96 133.71L263.30 130.49L255.38 138.81L258.11 150.36L268.76 153.59ZM239.54 155.46L236.80 143.91L226.15 140.69L218.24 149.01L220.97 160.56L231.62 163.78ZM220.97 160.56L218.24 149.01L207.59 145.79L199.68 154.12L202.42 165.66L213.06 168.88ZM244.72 135.58L241.99 124.03L231.33 120.81L223.42 129.14L226.15 140.69L236.80 143.91ZM226.15 140.69L223.42 129.14L212.77 125.92L204.85 134.25L207.59 145.79L218.24 149.01ZM252.92 170.23L250.19 158.68L239.54 155.46L231.62 163.78L234.36 175.32L245.00 178.55ZM234.36 175.32L231.62 163.78L220.97 160.56L213.06 168.88L215.80 180.42L226.44 183.64ZM258.11 150.36L255.38 138.81L244.72 135.58L236.80 143.91L239.54 155.46L250.19 158.68ZM275.91 16.20L273.18 4.63L262.50 1.40L254.56 9.75L257.30 21.32L267.97 24.55ZM257.30 21.32L254.56 9.75L243.89 6.53L235.95 14.88L238.69 26.44L249.36 29.67ZM262.50 1.40L259.76 -10.17L249.08 -13.39L241.15 -5.04L243.89 6.53L254.56 9.75ZM270.70 36.11L267.97 24.55L257.30 21.32L249.36 29.67L252.10 41.23L262.77 44.46Z"/><path data-band="3" fill="#dc2626" fill-opacity="0.35" d="M261.11 204.86L258.38 193.32L247.73 190.09L239.82 198.41L242.55 209.95L253.19 213.18ZM266.30 185.01L263.57 173.46L252.92 170.23L245.00 178.55L247.73 190.09L258.38 193.32ZM274.48 219.64L271.75 208.10L261.11 204.86L253.19 213.18L255.92 224.71L266.56 227.95ZM255.92 224.71L253.19 213.18L242.55 209.95L234.64 218.26L237.37 229.79L248.01 233.02ZM264.10 259.33L261.37 247.79L250.74 244.56L242.83 252.86L245.56 264.40L256.19 267.63ZM269.29 239.49L266.56 227.95L255.92 224.71L248.01 233.02L250.74 244.56L261.37 247.79Z"/></svg>
