<svg xmlns="http://www.w3.org/2000/svg" width="256" height="256" viewBox="0 0 256 256"><path data-band="3" fill="#dc2626" fill-opacity="0.35" d="M0.91 184.40L-1.81 173.04L-12.27 169.82L-20.01 177.97L-17.28 189.32L-6.83 192.54ZM10.95 145.39L8.23 134.02L-2.24 130.80L-9.98 138.95L-7.26 150.32L3.21 153.53ZM15.97 125.87L13.25 114.50L2.78 111.28L-4.96 119.44L-2.24 130.80L8.23 134.02ZM24.14 159.97L21.42 148.60L10.95 145.39L3.21 153.53L5.93 164.90L16.39 168.11ZM5.93 164.90L3.21 153.53L-7.26 150.32L-15.00 158.46L-12.27 169.82L-1.81 173.04ZM29.16 140.46L26.44 129.09L15.97 125.87L8.23 134.02L10.95 145.39L21.42 148.60ZM4.05 237.96L1.33 226.60L-9.12 223.39L-16.85 231.52L-14.13 242.87L-3.68 246.09ZM9.07 218.47L6.35 207.11L-4.11 203.90L-11.84 212.03L-9.12 223.39L1.33 226.60ZM17.22 252.53L14.50 241.18L4.05 237.96L-3.68 246.09L-0.96 257.43L9.49 260.65ZM22.24 233.05L19.52 221.69L9.07 218.47L1.33 226.60L4.05 237.96L14.50 241.18ZM32.29 194.06L29.57 182.70L19.11 179.48L11.37 187.62L14.09 198.98L24.55 202.20ZM14.09 198.98L11.37 187.62L0.91 184.40L-6.83 192.54L-4.11 203.90L6.35 207.11ZM37.32 174.56L34.60 163.19L24.14 159.97L16.39 168.11L19.11 179.48L29.57 182.70ZM19.11 179.48L16.39 168.11L5.93 164.90L-1.81 173.04L0.91 184.40L11.37 187.62ZM45.46 208.65L42.75 197.28L32.29 194.06L24.55 202.20L27.26 213.56L37.72 216.78ZM27.26 213.56L24.55 202.20L14.09 198.98L6.35 207.11L9.07 218.47L19.52 221.69ZM50.50 189.15L47.78 177.78L37.32 174.56L29.57 182.70L32.29 194.06L42.75 197.28ZM17.87 52.68L15.14 41.29L4.66 38.08L-3.09 46.25L-0.37 57.63L10.11 60.84ZM22.90 33.13L20.18 21.74L9.69 18.53L1.93 26.70L4.66 38.08L15.14 41.29ZM4.66 38.08L1.93 26.70L-8.55 23.49L-16.30 31.66L-13.57 43.04L-3.09 46.25ZM31.07 67.27L28.35 55.89L17.87 52.68L10.11 60.84L12.84 72.22L23.31 75.43ZM12.84 72.22L10.11 60.84L-0.37 57.63L-8.12 65.79L-5.39 77.16L5.08 80.38ZM36.11 47.73L33.39 36.34L22.90 33.13L15.14 41.29L17.87 52.68L28.35 55.89ZM46.20 8.62L43.47 -2.77L32.98 -5.99L25.21 2.18L27.94 13.57L38.43 16.79ZM27.94 13.57L25.21 2.18L14.72 -1.03L6.96 7.14L9.69 18.53L20.18 21.74ZM32.98 -5.99L30.26 -17.38L19.76 -20.60L12.00 -12.42L14.72 -1.03L25.21 2.18ZM59.41 23.23L56.69 11.84L46.20 8.62L38.43 16.79L41.15 28.18L51.64 31.40ZM41.15 28.18L38.43 16.79L27.94 13.57L20.18 21.74L22.90 33.13L33.39 36.34ZM64.46 3.67L61.74 -7.73L51.24 -10.95L43.47 -2.77L46.20 8.62L56.69 11.84ZM9.69 18.53L6.96 7.14L-3.52 3.93L-11.28 12.10L-8.55 23.49L1.93 26.70ZM14.72 -1.03L12.00 -12.42L1.51 -15.63L-6.25 -7.46L-3.52 3.93L6.96 7.14ZM39.23 101.41L36.51 90.03L26.03 86.81L18.28 94.97L21.00 106.34L31.48 109.56ZM21.00 106.34L18.28 94.97L7.81 91.75L0.06 99.91L2.78 111.28L13.25 114.50ZM44.27 81.87L41.55 70.49L31.07 67.27L23.31 75.43L26.03 86.81L36.51 90.03ZM26.03 86.81L23.31 75.43L12.84 72.22L5.08 80.38L7.81 91.75L18.28 94.97ZM52.43 116.01L49.71 104.63L39.23 101.41L31.48 109.56L34.20 120.94L44.67 124.16ZM34.20 120.94L31.48 109.56L21.00 106.34L13.25 114.50L15.97 125.87L26.44 129.09ZM57.47 96.48L54.75 85.10L44.27 81.87L36.51 90.03L39.23 101.41L49.71 104.63ZM2.78 111.28L0.06 99.91L-10.41 96.70L-18.16 104.85L-15.43 116.22L-4.96 119.44ZM7.81 91.75L5.08 80.38L-5.39 77.16L-13.14 85.33L-10.41 96.70L0.06 99.91ZM67.56 57.39L64.85 46.01L54.36 42.78L46.59 50.95L49.31 62.33L59.80 65.56ZM49.31 62.33L46.59 50.95L36.11 47.73L28.35 55.89L31.07 67.27L41.55 70.49ZM72.62 37.84L69.90 26.45L59.41 23.23L51.64 31.40L54.36 42.78L64.85 46.01ZM54.36 42.78L51.64 31.40L41.15 28.18L33.39 36.34L36.11 47.73L46.59 50.95ZM80.77 72.01L78.05 60.62L67.56 57.39L59.80 65.56L62.51 76.94L73.00 80.16ZM62.51 76.94L59.80 65.56L49.31 62.33L41.55 70.49L44.27 81.87L54.75 85.10ZM85.82 52.46L83.11 41.07L72.62 37.84L64.85 46.01L67.56 57.39L78.05 60.62ZM30.38 267.10L27.67 255.75L17.22 252.53L9.49 260.65L12.20 272.00L22.65 275.23ZM103.19 247.53L100.48 236.16L90.02 232.93L82.27 241.06L84.97 252.42L95.43 255.65ZM84.97 252.42L82.27 241.06L71.81 237.82L64.06 245.95L66.77 257.31L77.23 260.54ZM108.24 228.04L105.53 216.67L95.07 213.43L87.31 221.57L90.02 232.93L100.48 236.16ZM90.02 232.93L87.31 221.57L76.85 218.33L69.10 226.46L71.81 237.82L82.27 241.06ZM116.35 262.13L113.65 250.77L103.19 247.53L95.43 255.65L98.14 267.01L108.60 270.25ZM98.14 267.01L95.43 255.65L84.97 252.42L77.23 260.54L79.93 271.90L90.39 275.13ZM121.41 242.64L118.70 231.27L108.24 228.04L100.48 236.16L103.19 247.53L113.65 250.77ZM53.60 242.72L50.89 231.36L40.43 228.14L32.69 236.27L35.41 247.62L45.86 250.85ZM35.41 247.62L32.69 236.27L22.24 233.05L14.50 241.18L17.22 252.53L27.67 255.75ZM58.64 223.23L55.93 211.87L45.46 208.65L37.72 216.78L40.43 228.14L50.89 231.36ZM40.43 228.14L37.72 216.78L27.26 213.56L19.52 221.69L22.24 233.05L32.69 236.27ZM66.77 257.31L64.06 245.95L53.60 242.72L45.86 250.85L48.57 262.20L59.03 265.43ZM48.57 262.20L45.86 250.85L35.41 247.62L27.67 255.75L30.38 267.10L40.83 270.33ZM71.81 237.82L69.10 226.46L58.64 223.23L50.89 231.36L53.60 242.72L64.06 245.95ZM238.13 120.64L235.43 109.24L224.93 105.99L217.14 114.13L219.83 125.53L230.32 128.78ZM219.83 125.53L217.14 114.13L206.64 110.88L198.85 119.02L201.55 130.42L212.04 133.67ZM243.24 101.10L240.54 89.70L230.04 86.44L222.24 94.59L224.93 105.99L235.43 109.24ZM224.93 105.99L222.24 94.59L211.74 91.34L203.94 99.48L206.64 110.88L217.14 114.13ZM251.31 135.30L248.62 123.90L238.13 120.64L230.32 128.78L233.02 140.18L243.51 143.44ZM233.02 140.18L230.32 128.78L219.83 125.53L212.04 133.67L214.73 145.06L225.22 148.32ZM256.43 115.76L253.74 104.36L243.24 101.10L235.43 109.24L238.13 120.64L248.62 123.90ZM188.36 115.77L185.65 104.38L175.16 101.14L167.37 109.28L170.08 120.67L180.57 123.92ZM170.08 120.67L167.37 109.28L156.89 106.04L149.10 114.19L151.81 125.57L162.29 128.82ZM193.45 96.23L190.75 84.84L180.25 81.59L172.46 89.74L175.16 101.14L185.65 104.38ZM175.16 101.14L172.46 89.74L161.97 86.50L154.18 94.65L156.89 106.04L167.37 109.28ZM201.55 130.42L198.85 119.02L188.36 115.77L180.57 123.92L183.27 135.31L193.75 138.56ZM183.27 135.31L180.57 123.92L170.08 120.67L162.29 128.82L165.00 140.20L175.48 143.45ZM206.64 110.88L203.94 99.48L193.45 96.23L185.65 104.38L188.36 115.77L198.85 119.02ZM266.67 76.66L263.97 65.25L253.47 61.99L245.66 70.14L248.35 81.55L258.85 84.81ZM248.35 81.55L245.66 70.14L235.15 66.89L227.34 75.04L230.04 86.44L240.54 89.70ZM271.79 57.10L269.10 45.68L258.59 42.43L250.77 50.58L253.47 61.99L263.97 65.25ZM253.47 61.99L250.77 50.58L240.26 47.32L232.45 55.48L235.15 66.89L245.66 70.14ZM261.54 96.21L258.85 84.81L248.35 81.55L240.54 89.70L243.24 101.10L253.74 104.36ZM216.84 71.78L214.14 60.38L203.64 57.13L195.84 65.28L198.54 76.69L209.04 79.93ZM198.54 76.69L195.84 65.28L185.34 62.04L177.55 70.19L180.25 81.59L190.75 84.84ZM221.95 52.23L219.25 40.82L208.74 37.57L200.94 45.73L203.64 57.13L214.14 60.38ZM203.64 57.13L200.94 45.73L190.44 42.48L182.64 50.64L185.34 62.04L195.84 65.28ZM230.04 86.44L227.34 75.04L216.84 71.78L209.04 79.93L211.74 91.34L222.24 94.59ZM211.74 91.34L209.04 79.93L198.54 76.69L190.75 84.84L193.45 96.23L203.94 99.48ZM235.15 66.89L232.45 55.48L221.95 52.23L214.14 60.38L216.84 71.78L227.34 75.04ZM259.38 169.49L256.69 158.09L246.20 154.83L238.40 162.97L241.10 174.36L251.58 177.62ZM241.10 174.36L238.40 162.97L227.92 159.71L220.12 167.84L222.81 179.23L233.30 182.49ZM264.50 149.96L261.81 138.56L251.31 135.30L243.51 143.44L246.20 154.83L256.69 158.09ZM246.20 154.83L243.51 143.44L233.02 140.18L225.22 148.32L227.92 159.71L238.40 162.97ZM272.56 184.14L269.88 172.75L259.38 169.49L251.58 177.62L254.27 189.01L264.76 192.27ZM254.27 189.01L251.58 177.62L241.10 174.36L233.30 182.49L235.99 193.88L246.48 197.14ZM209.64 164.59L206.94 153.20L196.45 149.95L188.66 158.09L191.36 169.47L201.85 172.72ZM191.36 169.47L188.66 158.09L178.18 154.84L170.40 162.97L173.10 174.36L183.58 177.61ZM214.73 145.06L212.04 133.67L201.55 130.42L193.75 138.56L196.45 149.95L206.94 153.20ZM196.45 149.95L193.75 138.56L183.27 135.31L175.48 143.45L178.18 154.84L188.66 158.09ZM222.81 179.23L220.12 167.84L209.64 164.59L201.85 172.72L204.54 184.11L215.02 187.36ZM204.54 184.11L201.85 172.72L191.36 169.47L183.58 177.61L186.28 188.99L196.76 192.24ZM227.92 159.71L225.22 148.32L214.73 145.06L206.94 153.20L209.64 164.59L220.12 167.84ZM269.62 130.42L266.93 119.02L256.43 115.76L248.62 123.90L251.31 135.30L261.81 138.56ZM274.74 110.88L272.05 99.47L261.54 96.21L253.74 104.36L256.43 115.76L266.93 119.02ZM110.23 154.91L107.52 143.53L97.04 140.30L89.28 148.44L91.99 159.82L102.46 163.05ZM91.99 159.82L89.28 148.44L78.81 145.21L71.05 153.36L73.76 164.73L84.23 167.96ZM115.29 135.39L112.58 124.01L102.10 120.77L94.33 128.92L97.04 140.30L107.52 143.53ZM97.04 140.30L94.33 128.92L83.86 125.69L76.09 133.84L78.81 145.21L89.28 148.44ZM123.41 169.52L120.71 158.15L110.23 154.91L102.46 163.05L105.17 174.42L115.64 177.66ZM105.17 174.42L102.46 163.05L91.99 159.82L84.23 167.96L86.94 179.33L97.41 182.56ZM128.48 150.00L125.77 138.62L115.29 135.39L107.52 143.53L110.23 154.91L120.71 158.15ZM60.57 150.13L57.86 138.76L47.39 135.53L39.63 143.68L42.35 155.05L52.82 158.27ZM42.35 155.05L39.63 143.68L29.16 140.46L21.42 148.60L24.14 159.97L34.60 163.19ZM65.62 130.61L62.90 119.23L52.43 116.01L44.67 124.16L47.39 135.53L57.86 138.76ZM47.39 135.53L44.67 124.16L34.20 120.94L26.44 129.09L29.16 140.46L39.63 143.68ZM73.76 164.73L71.05 153.36L60.57 150.13L52.82 158.27L55.53 169.64L66.00 172.87ZM55.53 169.64L52.82 158.27L42.35 155.05L34.60 163.19L37.32 174.56L47.78 177.78ZM78.81 145.21L76.09 133.84L65.62 130.61L57.86 138.76L60.57 150.13L71.05 153.36ZM138.62 110.95L135.91 99.56L125.42 96.32L117.65 104.47L120.35 115.86L130.84 119.09ZM120.35 115.86L117.65 104.47L107.16 101.24L99.39 109.39L102.10 120.77L112.58 124.01ZM143.69 91.41L140.98 80.02L130.49 76.78L122.71 84.93L125.42 96.32L135.91 99.56ZM125.42 96.32L122.71 84.93L112.23 81.70L104.45 89.85L107.16 101.24L117.65 104.47ZM151.81 125.57L149.10 114.19L138.62 110.95L130.84 119.09L133.55 130.48L144.03 133.72ZM133.55 130.48L130.84 119.09L120.35 115.86L112.58 124.01L115.29 135.39L125.77 138.62ZM156.89 106.04L154.18 94.65L143.69 91.41L135.91 99.56L138.62 110.95L149.10 114.19ZM88.91 106.16L86.20 94.78L75.71 91.55L67.95 99.70L70.66 111.08L81.14 114.31ZM70.66 111.08L67.95 99.70L57.47 96.48L49.71 104.63L52.43 116.01L62.90 119.23ZM93.97 86.62L91.25 75.24L80.77 72.01L73.00 80.16L75.71 91.55L86.20 94.78ZM75.71 91.55L73.00 80.16L62.51 76.94L54.75 85.10L57.47 96.48L67.95 99.70ZM102.10 120.77L99.39 109.39L88.91 106.16L81.14 114.31L83.86 125.69L94.33 128.92ZM83.86 125.69L81.14 114.31L70.66 111.08L62.90 119.23L65.62 130.61L76.09 133.84ZM107.16 101.24L104.45 89.85L93.97 86.62L86.20 94.78L88.91 106.16L99.39 109.39ZM131.53 203.65L128.82 192.27L118.35 189.03L110.59 197.17L113.29 208.54L123.76 211.78ZM113.29 208.54L110.59 197.17L100.12 193.93L92.36 202.07L95.07 213.43L105.53 216.67ZM136.59 184.14L133.89 172.76L123.41 169.52L115.64 177.66L118.35 189.03L128.82 192.27ZM118.35 189.03L115.64 177.66L105.17 174.42L97.41 182.56L100.12 193.93L110.59 197.17ZM144.70 218.26L142.00 206.89L131.53 203.65L123.76 211.78L126.47 223.15L136.93 226.39ZM126.47 223.15L123.76 211.78L113.29 208.54L105.53 216.67L108.24 228.04L118.70 231.27ZM149.77 198.76L147.07 187.38L136.59 184.14L128.82 192.27L131.53 203.65L142.00 206.89ZM81.89 198.83L79.18 187.47L68.71 184.24L60.96 192.37L63.67 203.74L74.14 206.97ZM63.67 203.74L60.96 192.37L50.50 189.15L42.75 197.28L45.46 208.65L55.93 211.87ZM86.94 179.33L84.23 167.96L73.76 164.73L66.00 172.87L68.71 184.24L79.18 187.47ZM68.71 184.24L66.00 172.87L55.53 169.64L47.78 177.78L50.50 189.15L60.96 192.37ZM95.07 213.43L92.36 202.07L81.89 198.83L74.14 206.97L76.85 218.33L87.31 221.57ZM76.85 218.33L74.14 206.97L63.67 203.74L55.93 211.87L58.64 223.23L69.10 226.46ZM100.12 193.93L97.41 182.56L86.94 179.33L79.18 187.47L81.89 198.83L92.36 202.07ZM159.92 159.73L157.21 148.35L146.73 145.10L138.96 153.24L141.66 164.62L152.14 167.87ZM141.66 164.62L138.96 153.24L128.48 150.00L120.71 158.15L123.41 169.52L133.89 172.76ZM165.00 140.20L162.29 128.82L151.81 125.57L144.03 133.72L146.73 145.10L157.21 148.35ZM146.73 145.10L144.03 133.72L133.55 130.48L125.77 138.62L128.48 150.00L138.96 153.24ZM173.10 174.36L170.40 162.97L159.92 159.73L152.14 167.87L154.84 179.25L165.32 182.49ZM154.84 179.25L152.14 167.87L141.66 164.62L133.89 172.76L136.59 184.14L147.07 187.38ZM178.18 154.84L175.48 143.45L165.00 140.20L157.21 148.35L159.92 159.73L170.40 162.97ZM268.84 3.28L266.14 -8.14L255.62 -11.40L247.80 -3.24L250.50 8.18L261.02 11.44ZM237.29 -6.49L234.59 -17.91L224.07 -21.16L216.26 -12.99L218.96 -1.58L229.47 1.67ZM218.96 -1.58L216.26 -12.99L205.74 -16.24L197.94 -8.07L200.64 3.34L211.15 6.59ZM276.92 37.53L274.22 26.11L263.71 22.85L255.89 31.01L258.59 42.43L269.10 45.68ZM245.38 27.76L242.68 16.34L232.17 13.09L224.36 21.25L227.06 32.66L237.57 35.91ZM227.06 32.66L224.36 21.25L213.85 18.00L206.04 26.16L208.74 37.57L219.25 40.82ZM250.50 8.18L247.80 -3.24L237.29 -6.49L229.47 1.67L232.17 13.09L242.68 16.34ZM232.17 13.09L229.47 1.67L218.96 -1.58L211.15 6.59L213.85 18.00L224.36 21.25ZM258.59 42.43L255.89 31.01L245.38 27.76L237.57 35.91L240.26 47.32L250.77 50.58ZM240.26 47.32L237.57 35.91L227.06 32.66L219.25 40.82L221.95 52.23L232.45 55.48ZM263.71 22.85L261.02 11.44L250.50 8.18L242.68 16.34L245.38 27.76L255.89 31.01ZM145.73 18.11L143.02 6.71L132.51 3.47L124.72 11.64L127.44 23.04L137.93 26.27ZM127.44 23.04L124.72 11.64L114.23 8.41L106.44 16.57L109.16 27.97L119.65 31.20ZM150.81 -1.46L148.10 -12.87L137.59 -16.10L129.80 -7.93L132.51 3.47L143.02 6.71ZM132.51 3.47L129.80 -7.93L119.30 -11.17L111.51 -3.00L114.23 8.41L124.72 11.64ZM158.93 32.75L156.23 21.35L145.73 18.11L137.93 26.27L140.64 37.67L151.14 40.91ZM140.64 37.67L137.93 26.27L127.44 23.04L119.65 31.20L122.36 42.60L132.86 45.83ZM164.02 13.18L161.31 1.78L150.81 -1.46L143.02 6.71L145.73 18.11L156.23 21.35ZM95.94 13.34L93.23 1.95L82.73 -1.28L74.95 6.89L77.67 18.28L88.17 21.51ZM77.67 18.28L74.95 6.89L64.46 3.67L56.69 11.84L59.41 23.23L69.90 26.45ZM101.01 -6.22L98.29 -17.63L87.79 -20.85L80.01 -12.68L82.73 -1.28L93.23 1.95ZM82.73 -1.28L80.01 -12.68L69.51 -15.90L61.74 -7.73L64.46 3.67L74.95 6.89ZM109.16 27.97L106.44 16.57L95.94 13.34L88.17 21.51L90.88 32.90L101.37 36.13ZM90.88 32.90L88.17 21.51L77.67 18.28L69.90 26.45L72.62 37.84L83.11 41.07ZM114.23 8.41L111.51 -3.00L101.01 -6.22L93.23 1.95L95.94 13.34L106.44 16.57ZM169.11 -6.39L166.41 -17.80L155.90 -21.04L148.10 -12.87L150.81 -1.46L161.31 1.78ZM167.05 66.95L164.35 55.55L153.85 52.31L146.06 60.47L148.77 71.86L159.26 75.10ZM148.77 71.86L146.06 60.47L135.57 57.23L127.78 65.39L130.49 76.78L140.98 80.02ZM172.14 47.39L169.44 35.99L158.93 32.75L151.14 40.91L153.85 52.31L164.35 55.55ZM153.85 52.31L151.14 40.91L140.64 37.67L132.86 45.83L135.57 57.23L146.06 60.47ZM180.25 81.59L177.55 70.19L167.05 66.95L159.26 75.10L161.97 86.50L172.46 89.74ZM161.97 86.50L159.26 75.10L148.77 71.86L140.98 80.02L143.69 91.41L154.18 94.65ZM185.34 62.04L182.64 50.64L172.14 47.39L164.35 55.55L167.05 66.95L177.55 70.19ZM117.29 62.15L114.58 50.76L104.09 47.53L96.31 55.69L99.03 67.08L109.51 70.31ZM99.03 67.08L96.31 55.69L85.82 52.46L78.05 60.62L80.77 72.01L91.25 75.24ZM122.36 42.60L119.65 31.20L109.16 27.97L101.37 36.13L104.09 47.53L114.58 50.76ZM104.09 47.53L101.37 36.13L90.88 32.90L83.11 41.07L85.82 52.46L96.31 55.69ZM130.49 76.78L127.78 65.39L117.29 62.15L109.51 70.31L112.23 81.70L122.71 84.93ZM112.23 81.70L109.51 70.31L99.03 67.08L91.25 75.24L93.97 86.62L104.45 89.85ZM135.57 57.23L132.86 45.83L122.36 42.60L114.58 50.76L117.29 62.15L127.78 65.39ZM195.54 22.91L192.83 11.50L182.33 8.26L174.53 16.42L177.23 27.83L187.74 31.07ZM177.23 27.83L174.53 16.42L164.02 13.18L156.23 21.35L158.93 32.75L169.44 35.99ZM200.64 3.34L197.94 -8.07L187.43 -11.32L179.62 -3.15L182.33 8.26L192.83 11.50ZM182.33 8.26L179.62 -3.15L169.11 -6.39L161.31 1.78L164.02 13.18L174.53 16.42ZM208.74 37.57L206.04 26.16L195.54 22.91L187.74 31.07L190.44 42.48L200.94 45.73ZM190.44 42.48L187.74 31.07L177.23 27.83L169.44 35.99L172.14 47.39L182.64 50.64ZM213.85 18.00L211.15 6.59L200.64 3.34L192.83 11.50L195.54 22.91L206.04 26.16ZM262.34 223.17L259.65 211.79L249.17 208.52L241.37 216.65L244.06 228.03L254.54 231.29ZM267.45 203.66L264.76 192.27L254.27 189.01L246.48 197.14L249.17 208.52L259.65 211.79ZM275.50 237.82L272.82 226.44L262.34 223.17L254.54 231.29L257.23 242.68L267.71 245.94ZM202.45 257.25L199.75 245.88L189.28 242.63L181.51 250.75L184.20 262.12L194.67 265.37ZM184.20 262.12L181.51 250.75L171.04 247.50L163.27 255.62L165.97 266.99L176.43 270.24ZM207.53 237.76L204.84 226.38L194.37 223.13L186.59 231.25L189.28 242.63L199.75 245.88ZM189.28 242.63L186.59 231.25L176.11 228.00L168.34 236.13L171.04 247.50L181.51 250.75ZM220.70 252.39L218.01 241.01L207.53 237.76L199.75 245.88L202.45 257.25L212.92 260.51ZM152.80 252.37L150.10 241.00L139.64 237.76L131.87 245.88L134.57 257.25L145.04 260.49ZM134.57 257.25L131.87 245.88L121.41 242.64L113.65 250.77L116.35 262.13L126.81 265.37ZM157.87 232.88L155.17 221.51L144.70 218.26L136.93 226.39L139.64 237.76L150.10 241.00ZM139.64 237.76L136.93 226.39L126.47 223.15L118.70 231.27L121.41 242.64L131.87 245.88ZM165.97 266.99L163.27 255.62L152.80 252.37L145.04 260.49L147.74 271.86L158.20 275.10ZM171.04 247.50L168.34 236.13L157.87 232.88L150.10 241.00L152.80 252.37L163.27 255.62ZM230.89 213.39L228.20 202.00L217.72 198.75L209.93 206.87L212.62 218.26L223.10 221.51ZM212.62 218.26L209.93 206.87L199.45 203.62L191.67 211.75L194.37 223.13L204.84 226.38ZM235.99 193.88L233.30 182.49L222.81 179.23L215.02 187.36L217.72 198.75L228.20 202.00ZM217.72 198.75L215.02 187.36L204.54 184.11L196.76 192.24L199.45 203.62L209.93 206.87ZM244.06 228.03L241.37 216.65L230.89 213.39L223.10 221.51L225.79 232.89L236.27 236.15ZM225.79 232.89L223.10 221.51L212.62 218.26L204.84 226.38L207.53 237.76L218.01 241.01ZM249.17 208.52L246.48 197.14L235.99 193.88L228.20 202.00L230.89 213.39L241.37 216.65ZM181.19 208.50L178.50 197.12L168.02 193.87L160.24 202.00L162.94 213.38L173.42 216.63ZM162.94 213.38L160.24 202.00L149.77 198.76L142.00 206.89L144.70 218.26L155.17 221.51ZM186.28 188.99L183.58 177.61L173.10 174.36L165.32 182.49L168.02 193.87L178.50 197.12ZM168.02 193.87L165.32 182.49L154.84 179.25L147.07 187.38L149.77 198.76L160.24 202.00ZM194.37 223.13L191.67 211.75L181.19 208.50L173.42 216.63L176.11 228.00L186.59 231.25ZM176.11 228.00L173.42 216.63L162.94 213.38L155.17 221.51L157.87 232.88L168.34 236.13ZM199.45 203.62L196.76 192.24L186.28 188.99L178.50 197.12L181.19 208.50L191.67 211.75ZM252.12 262.17L249.44 250.79L238.96 247.53L231.17 255.65L233.86 267.03L244.34 270.29ZM233.86 267.03L231.17 255.65L220.70 252.39L212.92 260.51L215.61 271.88L226.08 275.14ZM257.23 242.68L254.54 231.29L244.06 228.03L236.27 236.15L238.96 247.53L249.44 250.79ZM238.96 247.53L236.27 236.15L225.79 232.89L218.01 241.01L220.70 252.39L231.17 255.65ZM270.39 257.32L267.71 245.94L257.23 242.68L249.44 250.79L252.12 262.17L262.60 265.44Z"/></svg>
