<svg xmlns="http://www.w3.org/2000/svg" width="256" height="256" viewBox="0 0 256 256"><path data-band="3" fill="#dc2626" fill-opacity="0.35" d="M17.22 -3.47L14.50 -14.82L4.05 -18.04L-3.68 -9.91L-0.96 1.43L9.49 4.65ZM258.82 239.79L256.14 228.44L245.70 225.17L237.94 233.25L240.62 244.59L251.06 247.86ZM240.62 244.59L237.94 233.25L227.50 229.98L219.75 238.05L222.43 249.39L232.86 252.66ZM263.91 220.37L261.23 209.02L250.79 205.75L243.02 213.83L245.70 225.17L256.14 228.44ZM245.70 225.17L243.02 213.83L232.58 210.56L224.82 218.64L227.50 229.98L237.94 233.25ZM271.94 254.41L269.26 243.06L258.82 239.79L251.06 247.86L253.73 259.20L264.17 262.47ZM253.73 259.20L251.06 247.86L240.62 244.59L232.86 252.66L235.54 264.00L245.98 267.27ZM209.31 234.79L206.63 223.45L196.19 220.19L188.44 228.27L191.13 239.60L201.56 242.87ZM191.13 239.60L188.44 228.27L178.01 225.01L170.26 233.09L172.95 244.42L183.38 247.68ZM214.38 215.37L211.70 204.03L201.26 200.77L193.51 208.85L196.19 220.19L206.63 223.45ZM196.19 220.19L193.51 208.85L183.07 205.59L175.32 213.67L178.01 225.01L188.44 228.27ZM222.43 249.39L219.75 238.05L209.31 234.79L201.56 242.87L204.24 254.20L214.67 257.47ZM204.24 254.20L201.56 242.87L191.13 239.60L183.38 247.68L186.06 259.01L196.49 262.27ZM227.50 229.98L224.82 218.64L214.38 215.37L206.63 223.45L209.31 234.79L219.75 238.05ZM269.00 200.94L266.33 189.59L255.88 186.32L248.11 194.40L250.79 205.75L261.23 209.02ZM274.10 181.51L271.42 170.15L260.97 166.88L253.20 174.97L255.88 186.32L266.33 189.59ZM237.66 191.13L234.98 179.78L224.54 176.52L216.77 184.60L219.46 195.95L229.90 199.21ZM219.46 195.95L216.77 184.60L206.33 181.34L198.57 189.42L201.26 200.77L211.70 204.03ZM242.75 171.70L240.07 160.34L229.62 157.08L221.85 165.17L224.54 176.52L234.98 179.78ZM224.54 176.52L221.85 165.17L211.41 161.90L203.65 169.99L206.33 181.34L216.77 184.60ZM250.79 205.75L248.11 194.40L237.66 191.13L229.90 199.21L232.58 210.56L243.02 213.83ZM232.58 210.56L229.90 199.21L219.46 195.95L211.70 204.03L214.38 215.37L224.82 218.64ZM255.88 186.32L253.20 174.97L242.75 171.70L234.98 179.78L237.66 191.13L248.11 194.40ZM235.54 264.00L232.86 252.66L222.43 249.39L214.67 257.47L217.35 268.80L227.79 272.07ZM217.35 268.80L214.67 257.47L204.24 254.20L196.49 262.27L199.18 273.60L209.61 276.87ZM276.27 108.53L273.59 97.16L263.13 93.89L255.34 101.99L258.03 113.35L268.49 116.62ZM244.88 98.72L242.20 87.36L231.74 84.09L223.96 92.20L226.65 103.56L237.11 106.82ZM226.65 103.56L223.96 92.20L213.51 88.93L205.74 97.04L208.42 108.39L218.88 111.66ZM249.98 79.26L247.29 67.89L236.83 64.62L229.05 72.73L231.74 84.09L242.20 87.36ZM231.74 84.09L229.05 72.73L218.59 69.47L210.82 77.57L213.51 88.93L223.96 92.20ZM258.03 113.35L255.34 101.99L244.88 98.72L237.11 106.82L239.79 118.18L250.25 121.45ZM239.79 118.18L237.11 106.82L226.65 103.56L218.88 111.66L221.57 123.01L232.02 126.28ZM263.13 93.89L260.44 82.52L249.98 79.26L242.20 87.36L244.88 98.72L255.34 101.99ZM273.33 54.95L270.65 43.57L260.18 40.30L252.39 48.41L255.08 59.78L265.55 63.05ZM255.08 59.78L252.39 48.41L241.92 45.15L234.14 53.26L236.83 64.62L247.29 67.89ZM260.18 40.30L257.49 28.93L247.02 25.66L239.24 33.78L241.92 45.15L252.39 48.41ZM268.23 74.42L265.55 63.05L255.08 59.78L247.29 67.89L249.98 79.26L260.44 82.52ZM266.07 147.44L263.39 136.08L252.93 132.81L245.16 140.90L247.84 152.26L258.29 155.52ZM247.84 152.26L245.16 140.90L234.70 137.63L226.93 145.72L229.62 157.08L240.07 160.34ZM271.17 127.99L268.49 116.62L258.03 113.35L250.25 121.45L252.93 132.81L263.39 136.08ZM252.93 132.81L250.25 121.45L239.79 118.18L232.02 126.28L234.70 137.63L245.16 140.90ZM260.97 166.88L258.29 155.52L247.84 152.26L240.07 160.34L242.75 171.70L253.20 174.97ZM39.72 171.49L37.02 160.17L26.59 156.93L18.87 165.03L21.58 176.36L32.01 179.59ZM21.58 176.36L18.87 165.03L8.45 161.81L0.74 169.90L3.45 181.22L13.87 184.45ZM44.74 152.07L42.03 140.74L31.60 137.51L23.88 145.61L26.59 156.93L37.02 160.17ZM26.59 156.93L23.88 145.61L13.45 142.38L5.74 150.48L8.45 161.81L18.87 165.03ZM52.85 186.05L50.15 174.73L39.72 171.49L32.01 179.59L34.71 190.91L45.13 194.14ZM34.71 190.91L32.01 179.59L21.58 176.36L13.87 184.45L16.58 195.77L27.00 199.00ZM57.87 166.63L55.17 155.30L44.74 152.07L37.02 160.17L39.72 171.49L50.15 174.73ZM3.45 181.22L0.74 169.90L-9.68 166.68L-17.39 174.78L-14.68 186.09L-4.26 189.32ZM8.45 161.81L5.74 150.48L-4.69 147.26L-12.40 155.36L-9.68 166.68L0.74 169.90ZM67.92 127.77L65.21 116.43L54.78 113.20L47.05 121.30L49.76 132.64L60.19 135.87ZM49.76 132.64L47.05 121.30L36.62 118.07L28.89 126.17L31.60 137.51L42.03 140.74ZM72.95 108.33L70.24 96.98L59.80 93.75L52.07 101.86L54.78 113.20L65.21 116.43ZM54.78 113.20L52.07 101.86L41.63 98.63L33.91 106.73L36.62 118.07L47.05 121.30ZM81.06 142.34L78.36 131.00L67.92 127.77L60.19 135.87L62.89 147.20L73.33 150.44ZM62.89 147.20L60.19 135.87L49.76 132.64L42.03 140.74L44.74 152.07L55.17 155.30ZM86.09 122.90L83.39 111.56L72.95 108.33L65.21 116.43L67.92 127.77L78.36 131.00ZM18.46 122.95L15.75 111.61L5.32 108.39L-2.40 116.50L0.31 127.83L10.74 131.05ZM0.31 127.83L-2.40 116.50L-12.83 113.27L-20.54 121.38L-17.83 132.71L-7.40 135.93ZM23.47 103.51L20.76 92.17L10.32 88.95L2.60 97.06L5.32 108.39L15.75 111.61ZM5.32 108.39L2.60 97.06L-7.83 93.83L-15.54 101.94L-12.83 113.27L-2.40 116.50ZM31.60 137.51L28.89 126.17L18.46 122.95L10.74 131.05L13.45 142.38L23.88 145.61ZM13.45 142.38L10.74 131.05L0.31 127.83L-7.40 135.93L-4.69 147.26L5.74 150.48ZM36.62 118.07L33.91 106.73L23.47 103.51L15.75 111.61L18.46 122.95L28.89 126.17ZM60.96 220.03L58.26 208.70L47.84 205.47L40.12 213.56L42.83 224.88L53.25 228.11ZM42.83 224.88L40.12 213.56L29.70 210.32L21.99 218.41L24.70 229.73L35.11 232.96ZM65.98 200.62L63.28 189.29L52.85 186.05L45.13 194.14L47.84 205.47L58.26 208.70ZM47.84 205.47L45.13 194.14L34.71 190.91L27.00 199.00L29.70 210.32L40.12 213.56ZM74.08 234.59L71.38 223.26L60.96 220.03L53.25 228.11L55.95 239.43L66.36 242.67ZM55.95 239.43L53.25 228.11L42.83 224.88L35.11 232.96L37.82 244.28L48.23 247.51ZM79.11 215.18L76.41 203.85L65.98 200.62L58.26 208.70L60.96 220.03L71.38 223.26ZM11.58 215.18L8.87 203.86L-1.55 200.64L-9.25 208.73L-6.54 220.04L3.87 223.27ZM16.58 195.77L13.87 184.45L3.45 181.22L-4.26 189.32L-1.55 200.64L8.87 203.86ZM24.70 229.73L21.99 218.41L11.58 215.18L3.87 223.27L6.58 234.58L16.99 237.81ZM6.58 234.58L3.87 223.27L-6.54 220.04L-14.25 228.13L-11.54 239.44L-1.13 242.67ZM29.70 210.32L27.00 199.00L16.58 195.77L8.87 203.86L11.58 215.18L21.99 218.41ZM89.16 176.35L86.46 165.01L76.03 161.77L68.30 169.87L71.00 181.20L81.43 184.44ZM71.00 181.20L68.30 169.87L57.87 166.63L50.15 174.73L52.85 186.05L63.28 189.29ZM94.19 156.92L91.49 145.58L81.06 142.34L73.33 150.44L76.03 161.77L86.46 165.01ZM76.03 161.77L73.33 150.44L62.89 147.20L55.17 155.30L57.87 166.63L68.30 169.87ZM102.29 190.92L99.59 179.59L89.16 176.35L81.43 184.44L84.13 195.77L94.56 199.01ZM84.13 195.77L81.43 184.44L71.00 181.20L63.28 189.29L65.98 200.62L76.41 203.85ZM107.33 171.50L104.63 160.16L94.19 156.92L86.46 165.01L89.16 176.35L99.59 179.59ZM74.90 35.37L72.19 24.02L61.74 20.79L54.00 28.91L56.71 40.26L67.15 43.49ZM56.71 40.26L54.00 28.91L43.55 25.68L35.81 33.80L38.52 45.15L48.97 48.37ZM79.93 15.90L77.23 4.54L66.77 1.31L59.03 9.43L61.74 20.79L72.19 24.02ZM61.74 20.79L59.03 9.43L48.57 6.20L40.83 14.33L43.55 25.68L54.00 28.91ZM88.05 49.96L85.35 38.61L74.90 35.37L67.15 43.49L69.86 54.84L80.31 58.07ZM69.86 54.84L67.15 43.49L56.71 40.26L48.97 48.37L51.68 59.72L62.12 62.95ZM93.09 30.49L90.39 19.13L79.93 15.90L72.19 24.02L74.90 35.37L85.35 38.61ZM25.36 30.57L22.65 19.23L12.20 16.00L4.47 24.13L7.19 35.47L17.63 38.69ZM7.19 35.47L4.47 24.13L-5.97 20.91L-13.69 29.03L-10.98 40.37L-0.54 43.59ZM30.38 11.10L27.67 -0.25L17.22 -3.47L9.49 4.65L12.20 16.00L22.65 19.23ZM12.20 16.00L9.49 4.65L-0.96 1.43L-8.69 9.56L-5.97 20.91L4.47 24.13ZM38.52 45.15L35.81 33.80L25.36 30.57L17.63 38.69L20.35 50.04L30.79 53.26ZM20.35 50.04L17.63 38.69L7.19 35.47L-0.54 43.59L2.18 54.93L12.62 58.15ZM43.55 25.68L40.83 14.33L30.38 11.10L22.65 19.23L25.36 30.57L35.81 33.80ZM84.97 -3.58L82.27 -14.94L71.81 -18.18L64.06 -10.05L66.77 1.31L77.23 4.54ZM116.35 6.13L113.65 -5.23L103.19 -8.47L95.43 -0.35L98.14 11.01L108.60 14.25ZM98.14 11.01L95.43 -0.35L84.97 -3.58L77.23 4.54L79.93 15.90L90.39 19.13ZM66.77 1.31L64.06 -10.05L53.60 -13.28L45.86 -5.15L48.57 6.20L59.03 9.43ZM48.57 6.20L45.86 -5.15L35.41 -8.38L27.67 -0.25L30.38 11.10L40.83 14.33ZM96.16 84.01L93.46 72.66L83.01 69.42L75.27 77.53L77.98 88.88L88.42 92.11ZM77.98 88.88L75.27 77.53L64.83 74.30L57.10 82.41L59.80 93.75L70.24 96.98ZM101.21 64.55L98.50 53.19L88.05 49.96L80.31 58.07L83.01 69.42L93.46 72.66ZM83.01 69.42L80.31 58.07L69.86 54.84L62.12 62.95L64.83 74.30L75.27 77.53ZM109.31 98.59L106.61 87.25L96.16 84.01L88.42 92.11L91.13 103.46L101.57 106.70ZM91.13 103.46L88.42 92.11L77.98 88.88L70.24 96.98L72.95 108.33L83.39 111.56ZM114.36 79.14L111.66 67.79L101.21 64.55L93.46 72.66L96.16 84.01L106.61 87.25ZM46.65 79.18L43.94 67.83L33.50 64.61L25.77 72.72L28.49 84.06L38.92 87.29ZM28.49 84.06L25.77 72.72L15.33 69.49L7.61 77.61L10.32 88.95L20.76 92.17ZM51.68 59.72L48.97 48.37L38.52 45.15L30.79 53.26L33.50 64.61L43.94 67.83ZM33.50 64.61L30.79 53.26L20.35 50.04L12.62 58.15L15.33 69.49L25.77 72.72ZM59.80 93.75L57.10 82.41L46.65 79.18L38.92 87.29L41.63 98.63L52.07 101.86ZM41.63 98.63L38.92 87.29L28.49 84.06L20.76 92.17L23.47 103.51L33.91 106.73ZM64.83 74.30L62.12 62.95L51.68 59.72L43.94 67.83L46.65 79.18L57.10 82.41ZM124.46 40.21L121.76 28.85L111.30 25.61L103.55 33.73L106.25 45.08L116.71 48.32ZM106.25 45.08L103.55 33.73L93.09 30.49L85.35 38.61L88.05 49.96L98.50 53.19ZM129.51 20.73L126.81 9.37L116.35 6.13L108.60 14.25L111.30 25.61L121.76 28.85ZM111.30 25.61L108.60 14.25L98.14 11.01L90.39 19.13L93.09 30.49L103.55 33.73ZM137.61 54.81L134.91 43.45L124.46 40.21L116.71 48.32L119.41 59.68L129.86 62.92ZM119.41 59.68L116.71 48.32L106.25 45.08L98.50 53.19L101.21 64.55L111.66 67.79ZM142.67 35.34L139.97 23.97L129.51 20.73L121.76 28.85L124.46 40.21L134.91 43.45ZM2.18 54.93L-0.54 43.59L-10.98 40.37L-18.70 48.49L-15.98 59.83L-5.54 63.05ZM10.32 88.95L7.61 77.61L-2.83 74.39L-10.54 82.50L-7.83 93.83L2.60 97.06ZM15.33 69.49L12.62 58.15L2.18 54.93L-5.54 63.05L-2.83 74.39L7.61 77.61ZM136.62 254.06L133.93 242.73L123.50 239.48L115.77 247.56L118.46 258.89L128.89 262.14ZM118.46 258.89L115.77 247.56L105.35 244.32L97.62 252.39L100.32 263.71L110.74 266.96ZM149.73 268.64L147.04 257.31L136.62 254.06L128.89 262.14L131.58 273.46L142.00 276.71ZM82.18 268.55L79.48 257.23L69.06 253.99L61.35 262.06L64.05 273.38L74.46 276.62ZM87.20 249.15L84.50 237.83L74.08 234.59L66.36 242.67L69.06 253.99L79.48 257.23ZM69.06 253.99L66.36 242.67L55.95 239.43L48.23 247.51L50.93 258.83L61.35 262.06ZM100.32 263.71L97.62 252.39L87.20 249.15L79.48 257.23L82.18 268.55L92.60 271.79ZM159.83 229.83L157.14 218.50L146.71 215.24L138.97 223.33L141.66 234.66L152.09 237.91ZM141.66 234.66L138.97 223.33L128.54 220.08L120.81 228.16L123.50 239.48L133.93 242.73ZM164.88 210.42L162.20 199.08L151.76 195.82L144.02 203.91L146.71 215.24L157.14 218.50ZM146.71 215.24L144.02 203.91L133.58 200.66L125.85 208.74L128.54 220.08L138.97 223.33ZM172.95 244.42L170.26 233.09L159.83 229.83L152.09 237.91L154.78 249.24L165.21 252.49ZM154.78 249.24L152.09 237.91L141.66 234.66L133.93 242.73L136.62 254.06L147.04 257.31ZM178.01 225.01L175.32 213.67L164.88 210.42L157.14 218.50L159.83 229.83L170.26 233.09ZM110.38 224.91L107.69 213.58L97.26 210.34L89.53 218.42L92.23 229.75L102.65 232.99ZM92.23 229.75L89.53 218.42L79.11 215.18L71.38 223.26L74.08 234.59L84.50 237.83ZM115.42 205.50L112.72 194.16L102.29 190.92L94.56 199.01L97.26 210.34L107.69 213.58ZM97.26 210.34L94.56 199.01L84.13 195.77L76.41 203.85L79.11 215.18L89.53 218.42ZM123.50 239.48L120.81 228.16L110.38 224.91L102.65 232.99L105.35 244.32L115.77 247.56ZM105.35 244.32L102.65 232.99L92.23 229.75L84.50 237.83L87.20 249.15L97.62 252.39ZM128.54 220.08L125.85 208.74L115.42 205.50L107.69 213.58L110.38 224.91L120.81 228.16ZM186.06 259.01L183.38 247.68L172.95 244.42L165.21 252.49L167.89 263.82L178.32 267.08ZM167.89 263.82L165.21 252.49L154.78 249.24L147.04 257.31L149.73 268.64L160.16 271.90ZM32.81 263.67L30.11 252.36L19.70 249.13L11.99 257.21L14.70 268.52L25.11 271.75ZM14.70 268.52L11.99 257.21L1.58 253.98L-6.12 262.06L-3.41 273.36L7.00 276.59ZM37.82 244.28L35.11 232.96L24.70 229.73L16.99 237.81L19.70 249.13L30.11 252.36ZM19.70 249.13L16.99 237.81L6.58 234.58L-1.13 242.67L1.58 253.98L11.99 257.21ZM50.93 258.83L48.23 247.51L37.82 244.28L30.11 252.36L32.81 263.67L43.22 266.90ZM1.58 253.98L-1.13 242.67L-11.54 239.44L-19.23 247.52L-16.52 258.83L-6.12 262.06ZM166.93 137.53L164.24 126.18L153.79 122.93L146.04 131.02L148.74 142.37L159.18 145.62ZM148.74 142.37L146.04 131.02L135.60 127.78L127.85 135.87L130.55 147.22L140.99 150.46ZM172.00 118.08L169.30 106.73L158.85 103.47L151.10 111.58L153.79 122.93L164.24 126.18ZM153.79 122.93L151.10 111.58L140.65 108.33L132.90 116.43L135.60 127.78L146.04 131.02ZM180.07 152.13L177.38 140.78L166.93 137.53L159.18 145.62L161.87 156.97L172.31 160.22ZM161.87 156.97L159.18 145.62L148.74 142.37L140.99 150.46L143.68 161.81L154.12 165.06ZM185.13 132.69L182.44 121.33L172.00 118.08L164.24 126.18L166.93 137.53L177.38 140.78ZM117.41 132.63L114.71 121.28L104.27 118.04L96.53 126.14L99.23 137.48L109.67 140.73ZM99.23 137.48L96.53 126.14L86.09 122.90L78.36 131.00L81.06 142.34L91.49 145.58ZM122.46 113.18L119.76 101.84L109.31 98.59L101.57 106.70L104.27 118.04L114.71 121.28ZM104.27 118.04L101.57 106.70L91.13 103.46L83.39 111.56L86.09 122.90L96.53 126.14ZM130.55 147.22L127.85 135.87L117.41 132.63L109.67 140.73L112.37 152.07L122.80 155.31ZM112.37 152.07L109.67 140.73L99.23 137.48L91.49 145.58L94.19 156.92L104.63 160.16ZM135.60 127.78L132.90 116.43L122.46 113.18L114.71 121.28L117.41 132.63L127.85 135.87ZM195.28 93.78L192.59 82.42L182.13 79.16L174.37 87.27L177.06 98.63L187.52 101.88ZM177.06 98.63L174.37 87.27L163.92 84.02L156.16 92.12L158.85 103.47L169.30 106.73ZM200.36 74.31L197.67 62.95L187.21 59.70L179.44 67.80L182.13 79.16L192.59 82.42ZM182.13 79.16L179.44 67.80L168.98 64.55L161.22 72.66L163.92 84.02L174.37 87.27ZM208.42 108.39L205.74 97.04L195.28 93.78L187.52 101.88L190.21 113.24L200.66 116.49ZM190.21 113.24L187.52 101.88L177.06 98.63L169.30 106.73L172.00 118.08L182.44 121.33ZM213.51 88.93L210.82 77.57L200.36 74.31L192.59 82.42L195.28 93.78L205.74 97.04ZM145.71 88.87L143.01 77.52L132.56 74.27L124.81 82.38L127.51 93.73L137.95 96.98ZM127.51 93.73L124.81 82.38L114.36 79.14L106.61 87.25L109.31 98.59L119.76 101.84ZM150.77 69.41L148.07 58.05L137.61 54.81L129.86 62.92L132.56 74.27L143.01 77.52ZM132.56 74.27L129.86 62.92L119.41 59.68L111.66 67.79L114.36 79.14L124.81 82.38ZM158.85 103.47L156.16 92.12L145.71 88.87L137.95 96.98L140.65 108.33L151.10 111.58ZM140.65 108.33L137.95 96.98L127.51 93.73L119.76 101.84L122.46 113.18L132.90 116.43ZM163.92 84.02L161.22 72.66L150.77 69.41L143.01 77.52L145.71 88.87L156.16 92.12ZM188.13 186.16L185.44 174.82L175.00 171.56L167.25 179.65L169.94 190.99L180.38 194.25ZM169.94 190.99L167.25 179.65L156.81 176.40L149.07 184.49L151.76 195.82L162.20 199.08ZM193.20 166.73L190.51 155.38L180.07 152.13L172.31 160.22L175.00 171.56L185.44 174.82ZM175.00 171.56L172.31 160.22L161.87 156.97L154.12 165.06L156.81 176.40L167.25 179.65ZM201.26 200.77L198.57 189.42L188.13 186.16L180.38 194.25L183.07 205.59L193.51 208.85ZM183.07 205.59L180.38 194.25L169.94 190.99L162.20 199.08L164.88 210.42L175.32 213.67ZM206.33 181.34L203.65 169.99L193.20 166.73L185.44 174.82L188.13 186.16L198.57 189.42ZM138.63 181.24L135.94 169.90L125.50 166.65L117.76 174.74L120.46 186.08L130.89 189.32ZM120.46 186.08L117.76 174.74L107.33 171.50L99.59 179.59L102.29 190.92L112.72 194.16ZM143.68 161.81L140.99 150.46L130.55 147.22L122.80 155.31L125.50 166.65L135.94 169.90ZM125.50 166.65L122.80 155.31L112.37 152.07L104.63 160.16L107.33 171.50L117.76 174.74ZM151.76 195.82L149.07 184.49L138.63 181.24L130.89 189.32L133.58 200.66L144.02 203.91ZM133.58 200.66L130.89 189.32L120.46 186.08L112.72 194.16L115.42 205.50L125.85 208.74ZM156.81 176.40L154.12 165.06L143.68 161.81L135.94 169.90L138.63 181.24L149.07 184.49ZM216.48 142.46L213.80 131.11L203.35 127.85L195.58 135.94L198.27 147.29L208.72 150.55ZM198.27 147.29L195.58 135.94L185.13 132.69L177.38 140.78L180.07 152.13L190.51 155.38ZM221.57 123.01L218.88 111.66L208.42 108.39L200.66 116.49L203.35 127.85L213.80 131.11ZM203.35 127.85L200.66 116.49L190.21 113.24L182.44 121.33L185.13 132.69L195.58 135.94ZM229.62 157.08L226.93 145.72L216.48 142.46L208.72 150.55L211.41 161.90L221.85 165.17ZM211.41 161.90L208.72 150.55L198.27 147.29L190.51 155.38L193.20 166.73L203.65 169.99ZM234.70 137.63L232.02 126.28L221.57 123.01L213.80 131.11L216.48 142.46L226.93 145.72ZM202.45 1.25L199.75 -10.12L189.28 -13.37L181.51 -5.25L184.20 6.12L194.67 9.37ZM184.20 6.12L181.51 -5.25L171.04 -8.50L163.27 -0.38L165.97 10.99L176.43 14.24ZM215.61 15.88L212.92 4.51L202.45 1.25L194.67 9.37L197.36 20.74L207.83 24.00ZM197.36 20.74L194.67 9.37L184.20 6.12L176.43 14.24L179.13 25.60L189.59 28.86ZM220.70 -3.61L218.01 -14.99L207.53 -18.24L199.75 -10.12L202.45 1.25L212.92 4.51ZM152.80 -3.63L150.10 -15.00L139.64 -18.24L131.87 -10.12L134.57 1.25L145.04 4.49ZM134.57 1.25L131.87 -10.12L121.41 -13.36L113.65 -5.23L116.35 6.13L126.81 9.37ZM165.97 10.99L163.27 -0.38L152.80 -3.63L145.04 4.49L147.74 15.86L158.20 19.10ZM147.74 15.86L145.04 4.49L134.57 1.25L126.81 9.37L129.51 20.73L139.97 23.97ZM223.68 49.99L220.99 38.63L210.52 35.37L202.75 43.48L205.44 54.84L215.90 58.10ZM205.44 54.84L202.75 43.48L192.28 40.22L184.51 48.33L187.21 59.70L197.67 62.95ZM228.77 30.51L226.08 19.14L215.61 15.88L207.83 24.00L210.52 35.37L220.99 38.63ZM210.52 35.37L207.83 24.00L197.36 20.74L189.59 28.86L192.28 40.22L202.75 43.48ZM236.83 64.62L234.14 53.26L223.68 49.99L215.90 58.10L218.59 69.47L229.05 72.73ZM218.59 69.47L215.90 58.10L205.44 54.84L197.67 62.95L200.36 74.31L210.82 77.57ZM241.92 45.15L239.24 33.78L228.77 30.51L220.99 38.63L223.68 49.99L234.14 53.26ZM174.05 45.08L171.36 33.72L160.90 30.47L153.13 38.58L155.83 49.94L166.29 53.19ZM155.83 49.94L153.13 38.58L142.67 35.34L134.91 43.45L137.61 54.81L148.07 58.05ZM179.13 25.60L176.43 14.24L165.97 10.99L158.20 19.10L160.90 30.47L171.36 33.72ZM160.90 30.47L158.20 19.10L147.74 15.86L139.97 23.97L142.67 35.34L153.13 38.58ZM187.21 59.70L184.51 48.33L174.05 45.08L166.29 53.19L168.98 64.55L179.44 67.80ZM168.98 64.55L166.29 53.19L155.83 49.94L148.07 58.05L150.77 69.41L161.22 72.66ZM192.28 40.22L189.59 28.86L179.13 25.60L171.36 33.72L174.05 45.08L184.51 48.33ZM252.12 6.17L249.44 -5.21L238.96 -8.47L231.17 -0.35L233.86 11.03L244.34 14.29ZM233.86 11.03L231.17 -0.35L220.70 -3.61L212.92 4.51L215.61 15.88L226.08 19.14ZM265.28 20.82L262.60 9.44L252.12 6.17L244.34 14.29L247.02 25.66L257.49 28.93ZM247.02 25.66L244.34 14.29L233.86 11.03L226.08 19.14L228.77 30.51L239.24 33.78ZM270.39 1.32L267.71 -10.06L257.23 -13.32L249.44 -5.21L252.12 6.17L262.60 9.44Z"/></svg>
