<svg xmlns="http://www.w3.org/2000/svg" width="256" height="256" viewBox="0 0 256 256"><path data-band="2" fill="#f97316" fill-opacity="0.35" d="M66.34 269.01L63.65 257.74L53.28 254.49L45.60 262.52L48.29 273.79L58.66 277.04ZM17.17 264.07L14.48 252.80L4.11 249.56L-3.56 257.59L-0.87 268.86L9.50 272.10ZM22.15 244.76L19.46 233.49L9.08 230.25L1.41 238.29L4.11 249.56L14.48 252.80ZM35.22 259.28L32.53 248.00L22.15 244.76L14.48 252.80L17.17 264.07L27.54 267.31ZM4.11 249.56L1.41 238.29L-8.96 235.05L-16.63 243.09L-13.93 254.36L-3.56 257.59ZM9.08 230.25L6.39 218.97L-3.99 215.74L-11.66 223.78L-8.96 235.05L1.41 238.29Z"/><path data-band="3" fill="#dc2626" fill-opacity="0.35" d="M271.94 -1.59L269.26 -12.94L258.82 -16.21L251.06 -8.14L253.73 3.20L264.17 6.47ZM253.73 3.20L251.06 -8.14L240.62 -11.41L232.86 -3.34L235.54 8.00L245.98 11.27ZM222.43 -6.61L219.75 -17.95L209.31 -21.21L201.56 -13.13L204.24 -1.80L214.67 1.47ZM204.24 -1.80L201.56 -13.13L191.13 -16.40L183.38 -8.32L186.06 3.01L196.49 6.27ZM261.76 37.22L259.09 25.88L248.65 22.61L240.90 30.67L243.57 42.01L254.00 45.28ZM266.85 17.81L264.17 6.47L253.73 3.20L245.98 11.27L248.65 22.61L259.09 25.88ZM274.86 51.83L272.19 40.49L261.76 37.22L254.00 45.28L256.68 56.61L267.11 59.89ZM230.46 27.40L227.79 16.07L217.35 12.80L209.61 20.87L212.29 32.20L222.71 35.47ZM212.29 32.20L209.61 20.87L199.18 17.60L191.43 25.67L194.11 37.00L204.54 40.27ZM235.54 8.00L232.86 -3.34L222.43 -6.61L214.67 1.47L217.35 12.80L227.79 16.07ZM217.35 12.80L214.67 1.47L204.24 -1.80L196.49 6.27L199.18 17.60L209.61 20.87ZM243.57 42.01L240.90 30.67L230.46 27.40L222.71 35.47L225.39 46.80L235.82 50.07ZM225.39 46.80L222.71 35.47L212.29 32.20L204.54 40.27L207.22 51.59L217.64 54.86ZM248.65 22.61L245.98 11.27L235.54 8.00L227.79 16.07L230.46 27.40L240.90 30.67ZM131.58 17.46L128.89 6.14L118.46 2.89L110.74 10.96L113.43 22.28L123.85 25.53ZM113.43 22.28L110.74 10.96L100.32 7.71L92.60 15.79L95.29 27.11L105.71 30.35ZM136.62 -1.94L133.93 -13.27L123.50 -16.52L115.77 -8.44L118.46 2.89L128.89 6.14ZM118.46 2.89L115.77 -8.44L105.35 -11.68L97.62 -3.61L100.32 7.71L110.74 10.96ZM144.69 32.04L142.00 20.71L131.58 17.46L123.85 25.53L126.54 36.85L136.96 40.10ZM126.54 36.85L123.85 25.53L113.43 22.28L105.71 30.35L108.40 41.67L118.81 44.92ZM149.73 12.64L147.04 1.31L136.62 -1.94L128.89 6.14L131.58 17.46L142.00 20.71ZM82.18 12.55L79.48 1.23L69.06 -2.01L61.35 6.06L64.05 17.38L74.46 20.62ZM64.05 17.38L61.35 6.06L50.93 2.83L43.22 10.90L45.93 22.22L56.34 25.45ZM87.20 -6.85L84.50 -18.17L74.08 -21.41L66.36 -13.33L69.06 -2.01L79.48 1.23ZM69.06 -2.01L66.36 -13.33L55.95 -16.57L48.23 -8.49L50.93 2.83L61.35 6.06ZM95.29 27.11L92.60 15.79L82.18 12.55L74.46 20.62L77.16 31.94L87.57 35.18ZM77.16 31.94L74.46 20.62L64.05 17.38L56.34 25.45L59.04 36.77L69.45 40.01ZM100.32 7.71L97.62 -3.61L87.20 -6.85L79.48 1.23L82.18 12.55L92.60 15.79ZM154.78 -6.76L152.09 -18.09L141.66 -21.34L133.93 -13.27L136.62 -1.94L147.04 1.31ZM152.75 66.00L150.06 54.68L139.65 51.42L131.92 59.49L134.61 70.80L145.02 74.06ZM134.61 70.80L131.92 59.49L121.51 56.24L113.78 64.30L116.47 75.61L126.88 78.87ZM157.79 46.61L155.11 35.29L144.69 32.04L136.96 40.10L139.65 51.42L150.06 54.68ZM139.65 51.42L136.96 40.10L126.54 36.85L118.81 44.92L121.51 56.24L131.92 59.49ZM165.85 80.57L163.17 69.25L152.75 66.00L145.02 74.06L147.71 85.37L158.12 88.63ZM147.71 85.37L145.02 74.06L134.61 70.80L126.88 78.87L129.57 90.18L139.98 93.43ZM170.90 61.19L168.21 49.87L157.79 46.61L150.06 54.68L152.75 66.00L163.17 69.25ZM103.37 61.05L100.68 49.74L90.27 46.49L82.55 54.56L85.25 65.87L95.66 69.12ZM85.25 65.87L82.55 54.56L72.14 51.32L64.43 59.39L67.13 70.69L77.53 73.94ZM108.40 41.67L105.71 30.35L95.29 27.11L87.57 35.18L90.27 46.49L100.68 49.74ZM90.27 46.49L87.57 35.18L77.16 31.94L69.45 40.01L72.14 51.32L82.55 54.56ZM116.47 75.61L113.78 64.30L103.37 61.05L95.66 69.12L98.35 80.43L108.76 83.68ZM98.35 80.43L95.66 69.12L85.25 65.87L77.53 73.94L80.23 85.24L90.63 88.49ZM121.51 56.24L118.81 44.92L108.40 41.67L100.68 49.74L103.37 61.05L113.78 64.30ZM181.01 22.41L178.32 11.08L167.89 7.82L160.16 15.90L162.84 27.22L173.27 30.48ZM162.84 27.22L160.16 15.90L149.73 12.64L142.00 20.71L144.69 32.04L155.11 35.29ZM186.06 3.01L183.38 -8.32L172.95 -11.58L165.21 -3.51L167.89 7.82L178.32 11.08ZM167.89 7.82L165.21 -3.51L154.78 -6.76L147.04 1.31L149.73 12.64L160.16 15.90ZM194.11 37.00L191.43 25.67L181.01 22.41L173.27 30.48L175.95 41.81L186.37 45.07ZM175.95 41.81L173.27 30.48L162.84 27.22L155.11 35.29L157.79 46.61L168.21 49.87ZM199.18 17.60L196.49 6.27L186.06 3.01L178.32 11.08L181.01 22.41L191.43 25.67ZM4.71 51.28L2.00 39.97L-8.40 36.75L-16.09 44.82L-13.38 56.12L-2.98 59.35ZM9.70 31.90L7.00 20.59L-3.41 17.36L-11.11 25.44L-8.40 36.75L2.00 39.97ZM17.82 65.81L15.11 54.51L4.71 51.28L-2.98 59.35L-0.28 70.65L10.12 73.88ZM22.81 46.44L20.11 35.13L9.70 31.90L2.00 39.97L4.71 51.28L15.11 54.51ZM32.81 7.67L30.11 -3.64L19.70 -6.87L11.99 1.21L14.70 12.52L25.11 15.75ZM14.70 12.52L11.99 1.21L1.58 -2.02L-6.12 6.06L-3.41 17.36L7.00 20.59ZM19.70 -6.87L16.99 -18.19L6.58 -21.42L-1.13 -13.33L1.58 -2.02L11.99 1.21ZM45.93 22.22L43.22 10.90L32.81 7.67L25.11 15.75L27.81 27.06L38.22 30.29ZM27.81 27.06L25.11 15.75L14.70 12.52L7.00 20.59L9.70 31.90L20.11 35.13ZM50.93 2.83L48.23 -8.49L37.82 -11.72L30.11 -3.64L32.81 7.67L43.22 10.90ZM1.58 -2.02L-1.13 -13.33L-11.54 -16.56L-19.23 -8.48L-16.52 2.83L-6.12 6.06ZM25.92 99.71L23.22 88.41L12.82 85.18L5.13 93.24L7.83 104.54L18.23 107.77ZM7.83 104.54L5.13 93.24L-5.26 90.01L-12.95 98.07L-10.25 109.37L0.14 112.60ZM30.92 80.35L28.22 69.04L17.82 65.81L10.12 73.88L12.82 85.18L23.22 88.41ZM12.82 85.18L10.12 73.88L-0.28 70.65L-7.97 78.71L-5.26 90.01L5.13 93.24ZM39.02 114.24L36.32 102.94L25.92 99.71L18.23 107.77L20.93 119.06L31.32 122.30ZM20.93 119.06L18.23 107.77L7.83 104.54L0.14 112.60L2.85 123.89L13.24 127.12ZM44.02 94.88L41.32 83.58L30.92 80.35L23.22 88.41L25.92 99.71L36.32 102.94ZM54.03 56.15L51.33 44.84L40.92 41.60L33.22 49.67L35.92 60.98L46.32 64.21ZM35.92 60.98L33.22 49.67L22.81 46.44L15.11 54.51L17.82 65.81L28.22 69.04ZM59.04 36.77L56.34 25.45L45.93 22.22L38.22 30.29L40.92 41.60L51.33 44.84ZM40.92 41.60L38.22 30.29L27.81 27.06L20.11 35.13L22.81 46.44L33.22 49.67ZM67.13 70.69L64.43 59.39L54.03 56.15L46.32 64.21L49.02 75.52L59.42 78.76ZM49.02 75.52L46.32 64.21L35.92 60.98L28.22 69.04L30.92 80.35L41.32 83.58ZM72.14 51.32L69.45 40.01L59.04 36.77L51.33 44.84L54.03 56.15L64.43 59.39ZM187.91 254.94L185.24 243.65L174.85 240.38L167.13 248.41L169.81 259.70L180.20 262.97ZM169.81 259.70L167.13 248.41L156.74 245.14L149.03 253.17L151.71 264.46L162.10 267.73ZM192.96 235.62L190.28 224.32L179.89 221.05L172.17 229.08L174.85 240.38L185.24 243.65ZM174.85 240.38L172.17 229.08L161.78 225.82L154.06 233.85L156.74 245.14L167.13 248.41ZM200.98 269.50L198.30 258.21L187.91 254.94L180.20 262.97L182.87 274.26L193.26 277.53ZM206.02 250.19L203.35 238.89L192.96 235.62L185.24 243.65L187.91 254.94L198.30 258.21ZM138.65 249.91L135.97 238.62L125.58 235.37L117.88 243.40L120.56 254.68L130.94 257.94ZM120.56 254.68L117.88 243.40L107.49 240.14L99.79 248.17L102.48 259.46L112.86 262.71ZM143.67 230.59L140.99 219.30L130.60 216.04L122.90 224.08L125.58 235.37L135.97 238.62ZM125.58 235.37L122.90 224.08L112.51 220.82L104.81 228.85L107.49 240.14L117.88 243.40ZM151.71 264.46L149.03 253.17L138.65 249.91L130.94 257.94L133.62 269.23L144.01 272.49ZM133.62 269.23L130.94 257.94L120.56 254.68L112.86 262.71L115.54 273.99L125.92 277.25ZM156.74 245.14L154.06 233.85L143.67 230.59L135.97 238.62L138.65 249.91L149.03 253.17ZM216.13 211.53L213.45 200.22L203.05 196.95L195.33 204.99L198.00 216.29L208.40 219.56ZM198.00 216.29L195.33 204.99L184.93 201.72L177.21 209.75L179.89 221.05L190.28 224.32ZM221.18 192.19L218.51 180.88L208.11 177.61L200.38 185.65L203.05 196.95L213.45 200.22ZM203.05 196.95L200.38 185.65L189.97 182.38L182.25 190.42L184.93 201.72L195.33 204.99ZM229.20 226.10L226.53 214.80L216.13 211.53L208.40 219.56L211.07 230.86L221.47 234.13ZM211.07 230.86L208.40 219.56L198.00 216.29L190.28 224.32L192.96 235.62L203.35 238.89ZM234.26 206.77L231.59 195.46L221.18 192.19L213.45 200.22L216.13 211.53L226.53 214.80ZM166.81 206.49L164.13 195.19L153.74 191.93L146.02 199.97L148.70 211.26L159.10 214.52ZM148.70 211.26L146.02 199.97L135.63 196.71L127.92 204.75L130.60 216.04L140.99 219.30ZM171.85 187.15L169.17 175.85L158.77 172.59L151.05 180.63L153.74 191.93L164.13 195.19ZM153.74 191.93L151.05 180.63L140.66 177.37L132.94 185.41L135.63 196.71L146.02 199.97ZM179.89 221.05L177.21 209.75L166.81 206.49L159.10 214.52L161.78 225.82L172.17 229.08ZM161.78 225.82L159.10 214.52L148.70 211.26L140.99 219.30L143.67 230.59L154.06 233.85ZM184.93 201.72L182.25 190.42L171.85 187.15L164.13 195.19L166.81 206.49L177.21 209.75ZM237.21 260.01L234.54 248.71L224.14 245.43L216.42 253.46L219.09 264.75L229.48 268.03ZM219.09 264.75L216.42 253.46L206.02 250.19L198.30 258.21L200.98 269.50L211.37 272.78ZM242.27 240.68L239.60 229.38L229.20 226.10L221.47 234.13L224.14 245.43L234.54 248.71ZM224.14 245.43L221.47 234.13L211.07 230.86L203.35 238.89L206.02 250.19L216.42 253.46ZM255.33 255.26L252.67 243.96L242.27 240.68L234.54 248.71L237.21 260.01L247.60 263.29ZM89.41 244.92L86.73 233.64L76.34 230.39L68.65 238.42L71.34 249.70L81.72 252.95ZM71.34 249.70L68.65 238.42L58.27 235.18L50.59 243.21L53.28 254.49L63.65 257.74ZM94.42 225.60L91.73 214.32L81.35 211.07L73.65 219.10L76.34 230.39L86.73 233.64ZM76.34 230.39L73.65 219.10L63.27 215.86L55.58 223.90L58.27 235.18L68.65 238.42ZM102.48 259.46L99.79 248.17L89.41 244.92L81.72 252.95L84.41 264.23L94.79 267.49ZM84.41 264.23L81.72 252.95L71.34 249.70L63.65 257.74L66.34 269.01L76.72 272.26ZM107.49 240.14L104.81 228.85L94.42 225.60L86.73 233.64L89.41 244.92L99.79 248.17ZM40.21 239.97L37.52 228.69L27.14 225.45L19.46 233.49L22.15 244.76L32.53 248.00ZM45.20 220.65L42.51 209.37L32.13 206.13L24.44 214.17L27.14 225.45L37.52 228.69ZM27.14 225.45L24.44 214.17L14.06 210.93L6.39 218.97L9.08 230.25L19.46 233.49ZM53.28 254.49L50.59 243.21L40.21 239.97L32.53 248.00L35.22 259.28L45.60 262.52ZM58.27 235.18L55.58 223.90L45.20 220.65L37.52 228.69L40.21 239.97L50.59 243.21ZM223.29 119.53L220.61 108.21L210.19 104.95L202.46 113.00L205.13 124.31L215.55 127.58ZM205.13 124.31L202.46 113.00L192.04 109.73L184.31 117.78L186.99 129.10L197.40 132.36ZM228.35 100.16L225.68 88.84L215.26 85.57L207.52 93.62L210.19 104.95L220.61 108.21ZM210.19 104.95L207.52 93.62L197.10 90.36L189.36 98.41L192.04 109.73L202.46 113.00ZM236.38 134.12L233.70 122.80L223.29 119.53L215.55 127.58L218.22 138.90L228.64 142.17ZM218.22 138.90L215.55 127.58L205.13 124.31L197.40 132.36L200.08 143.68L210.49 146.94ZM241.45 114.76L238.77 103.43L228.35 100.16L220.61 108.21L223.29 119.53L233.70 122.80ZM173.90 114.52L171.22 103.21L160.80 99.95L153.08 108.00L155.76 119.31L166.17 122.57ZM155.76 119.31L153.08 108.00L142.67 104.74L134.95 112.80L137.63 124.11L148.04 127.36ZM178.95 95.15L176.27 83.83L165.85 80.57L158.12 88.63L160.80 99.95L171.22 103.21ZM160.80 99.95L158.12 88.63L147.71 85.37L139.98 93.43L142.67 104.74L153.08 108.00ZM186.99 129.10L184.31 117.78L173.90 114.52L166.17 122.57L168.85 133.88L179.26 137.15ZM168.85 133.88L166.17 122.57L155.76 119.31L148.04 127.36L150.72 138.67L161.13 141.93ZM192.04 109.73L189.36 98.41L178.95 95.15L171.22 103.21L173.90 114.52L184.31 117.78ZM251.60 76.00L248.92 64.67L238.50 61.40L230.75 69.46L233.42 80.78L243.85 84.06ZM233.42 80.78L230.75 69.46L220.32 66.19L212.58 74.25L215.26 85.57L225.68 88.84ZM256.68 56.61L254.00 45.28L243.57 42.01L235.82 50.07L238.50 61.40L248.92 64.67ZM238.50 61.40L235.82 50.07L225.39 46.80L217.64 54.86L220.32 66.19L230.75 69.46ZM264.69 90.60L262.02 79.28L251.60 76.00L243.85 84.06L246.52 95.38L256.94 98.66ZM246.52 95.38L243.85 84.06L233.42 80.78L225.68 88.84L228.35 100.16L238.77 103.43ZM269.78 71.22L267.11 59.89L256.68 56.61L248.92 64.67L251.60 76.00L262.02 79.28ZM202.16 70.98L199.48 59.66L189.06 56.39L181.32 64.45L184.00 75.77L194.42 79.04ZM184.00 75.77L181.32 64.45L170.90 61.19L163.17 69.25L165.85 80.57L176.27 83.83ZM207.22 51.59L204.54 40.27L194.11 37.00L186.37 45.07L189.06 56.39L199.48 59.66ZM189.06 56.39L186.37 45.07L175.95 41.81L168.21 49.87L170.90 61.19L181.32 64.45ZM215.26 85.57L212.58 74.25L202.16 70.98L194.42 79.04L197.10 90.36L207.52 93.62ZM197.10 90.36L194.42 79.04L184.00 75.77L176.27 83.83L178.95 95.15L189.36 98.41ZM220.32 66.19L217.64 54.86L207.22 51.59L199.48 59.66L202.16 70.98L212.58 74.25ZM244.39 168.07L241.72 156.76L231.31 153.48L223.57 161.53L226.24 172.84L236.65 176.11ZM226.24 172.84L223.57 161.53L213.16 158.26L205.43 166.30L208.11 177.61L218.51 180.88ZM249.46 148.72L246.79 137.40L236.38 134.12L228.64 142.17L231.31 153.48L241.72 156.76ZM231.31 153.48L228.64 142.17L218.22 138.90L210.49 146.94L213.16 158.26L223.57 161.53ZM257.47 182.66L254.80 171.35L244.39 168.07L236.65 176.11L239.32 187.42L249.73 190.70ZM239.32 187.42L236.65 176.11L226.24 172.84L218.51 180.88L221.18 192.19L231.59 195.46ZM262.55 163.31L259.88 151.99L249.46 148.72L241.72 156.76L244.39 168.07L254.80 171.35ZM195.02 163.03L192.35 151.72L181.94 148.46L174.21 156.50L176.89 167.81L187.30 171.07ZM176.89 167.81L174.21 156.50L163.81 153.24L156.09 161.28L158.77 172.59L169.17 175.85ZM200.08 143.68L197.40 132.36L186.99 129.10L179.26 137.15L181.94 148.46L192.35 151.72ZM181.94 148.46L179.26 137.15L168.85 133.88L161.13 141.93L163.81 153.24L174.21 156.50ZM208.11 177.61L205.43 166.30L195.02 163.03L187.30 171.07L189.97 182.38L200.38 185.65ZM189.97 182.38L187.30 171.07L176.89 167.81L169.17 175.85L171.85 187.15L182.25 190.42ZM213.16 158.26L210.49 146.94L200.08 143.68L192.35 151.72L195.02 163.03L205.43 166.30ZM272.70 124.58L270.03 113.26L259.61 109.98L251.86 118.03L254.54 129.35L264.95 132.63ZM254.54 129.35L251.86 118.03L241.45 114.76L233.70 122.80L236.38 134.12L246.79 137.40ZM259.61 109.98L256.94 98.66L246.52 95.38L238.77 103.43L241.45 114.76L251.86 118.03ZM267.62 143.95L264.95 132.63L254.54 129.35L246.79 137.40L249.46 148.72L259.88 151.99ZM96.38 153.06L93.69 141.76L83.30 138.51L75.59 146.56L78.28 157.86L88.68 161.10ZM78.28 157.86L75.59 146.56L65.20 143.32L57.50 151.37L60.19 162.66L70.58 165.90ZM101.40 133.71L98.71 122.40L88.31 119.16L80.60 127.21L83.30 138.51L93.69 141.76ZM83.30 138.51L80.60 127.21L70.21 123.97L62.50 132.02L65.20 143.32L75.59 146.56ZM109.47 167.60L106.78 156.31L96.38 153.06L88.68 161.10L91.37 172.40L101.76 175.65ZM91.37 172.40L88.68 161.10L78.28 157.86L70.58 165.90L73.28 177.20L83.67 180.44ZM114.49 148.26L111.80 136.96L101.40 133.71L93.69 141.76L96.38 153.06L106.78 156.31ZM47.11 148.13L44.41 136.83L34.02 133.59L26.33 141.65L29.03 152.94L39.41 156.18ZM29.03 152.94L26.33 141.65L15.94 138.41L8.25 146.47L10.95 157.75L21.34 160.99ZM52.11 128.78L49.41 117.48L39.02 114.24L31.32 122.30L34.02 133.59L44.41 136.83ZM34.02 133.59L31.32 122.30L20.93 119.06L13.24 127.12L15.94 138.41L26.33 141.65ZM60.19 162.66L57.50 151.37L47.11 148.13L39.41 156.18L42.11 167.47L52.50 170.71ZM42.11 167.47L39.41 156.18L29.03 152.94L21.34 160.99L24.04 172.28L34.42 175.52ZM65.20 143.32L62.50 132.02L52.11 128.78L44.41 136.83L47.11 148.13L57.50 151.37ZM124.54 109.55L121.85 98.24L111.45 94.98L103.73 103.04L106.42 114.35L116.83 117.60ZM106.42 114.35L103.73 103.04L93.33 99.79L85.62 107.85L88.31 119.16L98.71 122.40ZM129.57 90.18L126.88 78.87L116.47 75.61L108.76 83.68L111.45 94.98L121.85 98.24ZM111.45 94.98L108.76 83.68L98.35 80.43L90.63 88.49L93.33 99.79L103.73 103.04ZM137.63 124.11L134.95 112.80L124.54 109.55L116.83 117.60L119.51 128.91L129.92 132.16ZM119.51 128.91L116.83 117.60L106.42 114.35L98.71 122.40L101.40 133.71L111.80 136.96ZM142.67 104.74L139.98 93.43L129.57 90.18L121.85 98.24L124.54 109.55L134.95 112.80ZM75.22 104.61L72.52 93.30L62.12 90.06L54.42 98.12L57.11 109.42L67.51 112.67ZM57.11 109.42L54.42 98.12L44.02 94.88L36.32 102.94L39.02 114.24L49.41 117.48ZM80.23 85.24L77.53 73.94L67.13 70.69L59.42 78.76L62.12 90.06L72.52 93.30ZM62.12 90.06L59.42 78.76L49.02 75.52L41.32 83.58L44.02 94.88L54.42 98.12ZM88.31 119.16L85.62 107.85L75.22 104.61L67.51 112.67L70.21 123.97L80.60 127.21ZM70.21 123.97L67.51 112.67L57.11 109.42L49.41 117.48L52.11 128.78L62.50 132.02ZM93.33 99.79L90.63 88.49L80.23 85.24L72.52 93.30L75.22 104.61L85.62 107.85ZM117.53 201.49L114.84 190.20L104.45 186.94L96.75 194.99L99.43 206.28L109.82 209.53ZM99.43 206.28L96.75 194.99L86.36 191.74L78.66 199.78L81.35 211.07L91.73 214.32ZM122.55 182.16L119.86 170.86L109.47 167.60L101.76 175.65L104.45 186.94L114.84 190.20ZM104.45 186.94L101.76 175.65L91.37 172.40L83.67 180.44L86.36 191.74L96.75 194.99ZM130.60 216.04L127.92 204.75L117.53 201.49L109.82 209.53L112.51 220.82L122.90 224.08ZM112.51 220.82L109.82 209.53L99.43 206.28L91.73 214.32L94.42 225.60L104.81 228.85ZM135.63 196.71L132.94 185.41L122.55 182.16L114.84 190.20L117.53 201.49L127.92 204.75ZM68.27 196.53L65.58 185.24L55.19 182.00L47.50 190.04L50.20 201.33L60.58 204.57ZM50.20 201.33L47.50 190.04L37.12 186.80L29.43 194.85L32.13 206.13L42.51 209.37ZM73.28 177.20L70.58 165.90L60.19 162.66L52.50 170.71L55.19 182.00L65.58 185.24ZM55.19 182.00L52.50 170.71L42.11 167.47L34.42 175.52L37.12 186.80L47.50 190.04ZM81.35 211.07L78.66 199.78L68.27 196.53L60.58 204.57L63.27 215.86L73.65 219.10ZM63.27 215.86L60.58 204.57L50.20 201.33L42.51 209.37L45.20 220.65L55.58 223.90ZM86.36 191.74L83.67 180.44L73.28 177.20L65.58 185.24L68.27 196.53L78.66 199.78ZM145.69 158.02L143.00 146.72L132.60 143.46L124.89 151.51L127.57 162.81L137.97 166.07ZM127.57 162.81L124.89 151.51L114.49 148.26L106.78 156.31L109.47 167.60L119.86 170.86ZM150.72 138.67L148.04 127.36L137.63 124.11L129.92 132.16L132.60 143.46L143.00 146.72ZM132.60 143.46L129.92 132.16L119.51 128.91L111.80 136.96L114.49 148.26L124.89 151.51ZM158.77 172.59L156.09 161.28L145.69 158.02L137.97 166.07L140.66 177.37L151.05 180.63ZM140.66 177.37L137.97 166.07L127.57 162.81L119.86 170.86L122.55 182.16L132.94 185.41ZM163.81 153.24L161.13 141.93L150.72 138.67L143.00 146.72L145.69 158.02L156.09 161.28ZM265.47 216.60L262.81 205.29L252.40 202.01L244.66 210.04L247.33 221.35L257.74 224.63ZM247.33 221.35L244.66 210.04L234.26 206.77L226.53 214.80L229.20 226.10L239.60 229.38ZM270.55 197.26L267.88 185.94L257.47 182.66L249.73 190.70L252.40 202.01L262.81 205.29ZM252.40 202.01L249.73 190.70L239.32 187.42L231.59 195.46L234.26 206.77L244.66 210.04ZM260.40 235.94L257.74 224.63L247.33 221.35L239.60 229.38L242.27 240.68L252.67 243.96ZM275.63 177.91L272.96 166.59L262.55 163.31L254.80 171.35L257.47 182.66L267.88 185.94ZM268.40 269.85L265.73 258.54L255.33 255.26L247.60 263.29L250.27 274.59L260.66 277.87ZM273.47 250.52L270.80 239.22L260.40 235.94L252.67 243.96L255.33 255.26L265.73 258.54ZM2.85 123.89L0.14 112.60L-10.25 109.37L-17.93 117.43L-15.23 128.72L-4.84 131.95ZM10.95 157.75L8.25 146.47L-2.14 143.23L-9.82 151.29L-7.12 162.57L3.27 165.81ZM15.94 138.41L13.24 127.12L2.85 123.89L-4.84 131.95L-2.14 143.23L8.25 146.47ZM19.05 191.61L16.35 180.32L5.97 177.09L-1.71 185.14L0.99 196.42L11.37 199.65ZM0.99 196.42L-1.71 185.14L-12.09 181.90L-19.77 189.95L-17.06 201.23L-6.69 204.46ZM24.04 172.28L21.34 160.99L10.95 157.75L3.27 165.81L5.97 177.09L16.35 180.32ZM5.97 177.09L3.27 165.81L-7.12 162.57L-14.79 170.62L-12.09 181.90L-1.71 185.14ZM32.13 206.13L29.43 194.85L19.05 191.61L11.37 199.65L14.06 210.93L24.44 214.17ZM14.06 210.93L11.37 199.65L0.99 196.42L-6.69 204.46L-3.99 215.74L6.39 218.97ZM37.12 186.80L34.42 175.52L24.04 172.28L16.35 180.32L19.05 191.61L29.43 194.85Z"/></svg>
