<svg xmlns="http://www.w3.org/2000/svg" width="256" height="256" viewBox="0 0 256 256"><path data-band="2" fill="#f97316" fill-opacity="0.35" d="M61.35 32.31L58.66 21.04L48.29 17.79L40.61 25.82L43.30 37.09L53.67 40.34ZM43.30 37.09L40.61 25.82L30.24 22.58L22.56 30.61L25.26 41.88L35.62 45.12ZM66.34 13.01L63.65 1.74L53.28 -1.51L45.60 6.52L48.29 17.79L58.66 21.04ZM48.29 17.79L45.60 6.52L35.22 3.28L27.54 11.31L30.24 22.58L40.61 25.82ZM74.41 46.84L71.72 35.56L61.35 32.31L53.67 40.34L56.36 51.61L66.72 54.86ZM56.36 51.61L53.67 40.34L43.30 37.09L35.62 45.12L38.31 56.39L48.68 59.63ZM79.41 27.54L76.72 16.26L66.34 13.01L58.66 21.04L61.35 32.31L71.72 35.56ZM12.20 27.37L9.50 16.10L-0.87 12.86L-8.54 20.89L-5.84 32.16L4.53 35.40ZM17.17 8.07L14.48 -3.20L4.11 -6.44L-3.56 1.59L-0.87 12.86L9.50 16.10ZM25.26 41.88L22.56 30.61L12.20 27.37L4.53 35.40L7.22 46.66L17.58 49.90ZM7.22 46.66L4.53 35.40L-5.84 32.16L-13.50 40.19L-10.81 51.45L-0.45 54.69ZM30.24 22.58L27.54 11.31L17.17 8.07L9.50 16.10L12.20 27.37L22.56 30.61ZM35.22 3.28L32.53 -8.00L22.15 -11.24L14.48 -3.20L17.17 8.07L27.54 11.31ZM82.46 80.65L79.78 69.38L69.41 66.13L61.73 74.15L64.42 85.41L74.78 88.66ZM64.42 85.41L61.73 74.15L51.37 70.90L43.69 78.92L46.38 90.18L56.74 93.43ZM87.46 61.36L84.78 50.09L74.41 46.84L66.72 54.86L69.41 66.13L79.78 69.38ZM69.41 66.13L66.72 54.86L56.36 51.61L48.68 59.63L51.37 70.90L61.73 74.15ZM95.51 95.17L92.83 83.90L82.46 80.65L74.78 88.66L77.47 99.93L87.83 103.18ZM77.47 99.93L74.78 88.66L64.42 85.41L56.74 93.43L59.43 104.69L69.79 107.94ZM100.52 75.89L97.83 64.61L87.46 61.36L79.78 69.38L82.46 80.65L92.83 83.90ZM33.33 75.67L30.64 64.41L20.28 61.16L12.61 69.19L15.30 80.45L25.66 83.69ZM15.30 80.45L12.61 69.19L2.25 65.95L-5.41 73.97L-2.72 85.23L7.64 88.47ZM38.31 56.39L35.62 45.12L25.26 41.88L17.58 49.90L20.28 61.16L30.64 64.41ZM20.28 61.16L17.58 49.90L7.22 46.66L-0.45 54.69L2.25 65.95L12.61 69.19ZM46.38 90.18L43.69 78.92L33.33 75.67L25.66 83.69L28.35 94.95L38.71 98.19ZM28.35 94.95L25.66 83.69L15.30 80.45L7.64 88.47L10.33 99.72L20.69 102.96ZM51.37 70.90L48.68 59.63L38.31 56.39L30.64 64.41L33.33 75.67L43.69 78.92ZM110.53 37.30L107.85 26.02L97.47 22.76L89.78 30.79L92.47 42.07L102.84 45.32ZM92.47 42.07L89.78 30.79L79.41 27.54L71.72 35.56L74.41 46.84L84.78 50.09ZM123.59 51.83L120.91 40.56L110.53 37.30L102.84 45.32L105.52 56.60L115.89 59.85ZM105.52 56.60L102.84 45.32L92.47 42.07L84.78 50.09L87.46 61.36L97.83 64.61ZM211.95 100.53L209.28 89.25L198.90 85.98L191.20 93.98L193.87 105.26L204.24 108.54ZM224.99 115.09L222.33 103.81L211.95 100.53L204.24 108.54L206.91 119.82L217.28 123.09ZM251.07 144.21L248.41 132.93L238.04 129.65L230.32 137.65L232.99 148.93L243.36 152.21ZM232.99 148.93L230.32 137.65L219.95 134.37L212.24 142.37L214.91 153.64L225.28 156.92ZM256.13 124.93L253.47 113.65L243.09 110.37L235.37 118.37L238.04 129.65L248.41 132.93ZM238.04 129.65L235.37 118.37L224.99 115.09L217.28 123.09L219.95 134.37L230.32 137.65ZM264.11 158.78L261.45 147.50L251.07 144.21L243.36 152.21L246.02 163.49L256.39 166.77ZM246.02 163.49L243.36 152.21L232.99 148.93L225.28 156.92L227.94 168.20L238.31 171.48ZM269.17 139.50L266.51 128.22L256.13 124.93L248.41 132.93L251.07 144.21L261.45 147.50ZM152.70 134.01L150.02 122.74L139.66 119.48L131.97 127.48L134.64 138.75L145.01 142.01ZM134.64 138.75L131.97 127.48L121.60 124.22L113.92 132.23L116.59 143.49L126.96 146.75ZM157.72 114.74L155.04 103.46L144.67 100.20L136.98 108.21L139.66 119.48L150.02 122.74ZM139.66 119.48L136.98 108.21L126.61 104.94L118.92 112.95L121.60 124.22L131.97 127.48ZM165.74 148.55L163.06 137.28L152.70 134.01L145.01 142.01L147.68 153.28L158.04 156.55ZM147.68 153.28L145.01 142.01L134.64 138.75L126.96 146.75L129.63 158.01L139.99 161.28ZM170.76 129.28L168.09 118.00L157.72 114.74L150.02 122.74L152.70 134.01L163.06 137.28ZM103.56 128.97L100.88 117.70L90.51 114.45L82.83 122.46L85.52 133.72L95.87 136.97ZM85.52 133.72L82.83 122.46L72.47 119.20L64.80 127.21L67.48 138.47L77.84 141.72ZM108.56 109.69L105.88 98.43L95.51 95.17L87.83 103.18L90.51 114.45L100.88 117.70ZM90.51 114.45L87.83 103.18L77.47 99.93L69.79 107.94L72.47 119.20L82.83 122.46ZM116.59 143.49L113.92 132.23L103.56 128.97L95.87 136.97L98.55 148.23L108.91 151.49ZM98.55 148.23L95.87 136.97L85.52 133.72L77.84 141.72L80.52 152.98L90.88 156.24ZM121.60 124.22L118.92 112.95L108.56 109.69L100.88 117.70L103.56 128.97L113.92 132.23ZM162.74 95.45L160.07 84.18L149.69 80.91L142.00 88.92L144.67 100.20L155.04 103.46ZM167.77 76.17L165.10 64.89L154.72 61.62L147.02 69.64L149.69 80.91L160.07 84.18ZM193.87 105.26L191.20 93.98L180.82 90.71L173.12 98.72L175.79 110.00L186.16 113.27ZM175.79 110.00L173.12 98.72L162.74 95.45L155.04 103.46L157.72 114.74L168.09 118.00ZM131.63 85.66L128.95 74.39L118.58 71.13L110.88 79.14L113.57 90.41L123.93 93.67ZM113.57 90.41L110.88 79.14L100.52 75.89L92.83 83.90L95.51 95.17L105.88 98.43ZM136.64 66.37L133.96 55.09L123.59 51.83L115.89 59.85L118.58 71.13L128.95 74.39ZM118.58 71.13L115.89 59.85L105.52 56.60L97.83 64.61L100.52 75.89L110.88 79.14ZM144.67 100.20L142.00 88.92L131.63 85.66L123.93 93.67L126.61 104.94L136.98 108.21ZM126.61 104.94L123.93 93.67L113.57 90.41L105.88 98.43L108.56 109.69L118.92 112.95ZM149.69 80.91L147.02 69.64L136.64 66.37L128.95 74.39L131.63 85.66L142.00 88.92ZM173.75 182.35L171.08 171.08L160.71 167.81L153.03 175.81L155.70 187.07L166.06 190.34ZM155.70 187.07L153.03 175.81L142.67 172.54L134.98 180.54L137.65 191.80L148.01 195.06ZM178.77 163.09L176.10 151.82L165.74 148.55L158.04 156.55L160.71 167.81L171.08 171.08ZM160.71 167.81L158.04 156.55L147.68 153.28L139.99 161.28L142.67 172.54L153.03 175.81ZM186.77 196.88L184.11 185.62L173.75 182.35L166.06 190.34L168.72 201.60L179.08 204.87ZM168.72 201.60L166.06 190.34L155.70 187.07L148.01 195.06L150.68 206.32L161.04 209.59ZM191.80 177.63L189.14 166.36L178.77 163.09L171.08 171.08L173.75 182.35L184.11 185.62ZM124.62 177.27L121.95 166.01L111.59 162.75L103.91 170.75L106.59 182.01L116.94 185.27ZM106.59 182.01L103.91 170.75L93.56 167.49L85.88 175.49L88.56 186.74L98.92 190.00ZM129.63 158.01L126.96 146.75L116.59 143.49L108.91 151.49L111.59 162.75L121.95 166.01ZM111.59 162.75L108.91 151.49L98.55 148.23L90.88 156.24L93.56 167.49L103.91 170.75ZM137.65 191.80L134.98 180.54L124.62 177.27L116.94 185.27L119.62 196.52L129.97 199.79ZM119.62 196.52L116.94 185.27L106.59 182.01L98.92 190.00L101.59 201.26L111.94 204.52ZM142.67 172.54L139.99 161.28L129.63 158.01L121.95 166.01L124.62 177.27L134.98 180.54ZM201.87 139.09L199.20 127.82L188.83 124.55L181.13 132.55L183.80 143.82L194.17 147.09ZM183.80 143.82L181.13 132.55L170.76 129.28L163.06 137.28L165.74 148.55L176.10 151.82ZM206.91 119.82L204.24 108.54L193.87 105.26L186.16 113.27L188.83 124.55L199.20 127.82ZM188.83 124.55L186.16 113.27L175.79 110.00L168.09 118.00L170.76 129.28L181.13 132.55ZM214.91 153.64L212.24 142.37L201.87 139.09L194.17 147.09L196.84 158.36L207.20 161.64ZM196.84 158.36L194.17 147.09L183.80 143.82L176.10 151.82L178.77 163.09L189.14 166.36ZM219.95 134.37L217.28 123.09L206.91 119.82L199.20 127.82L201.87 139.09L212.24 142.37ZM2.25 65.95L-0.45 54.69L-10.81 51.45L-18.47 59.47L-15.77 70.73L-5.41 73.97ZM4.11 -6.44L1.41 -17.71L-8.96 -20.95L-16.63 -12.91L-13.93 -1.64L-3.56 1.59ZM243.90 235.81L241.25 224.55L230.88 221.26L223.18 229.25L225.84 240.51L236.20 243.79ZM225.84 240.51L223.18 229.25L212.82 225.96L205.13 233.95L207.79 245.21L218.15 248.49ZM248.95 216.56L246.29 205.29L235.93 202.01L228.22 210.00L230.88 221.26L241.25 224.55ZM230.88 221.26L228.22 210.00L217.86 206.72L210.16 214.70L212.82 225.96L223.18 229.25ZM256.92 250.36L254.27 239.10L243.90 235.81L236.20 243.79L238.86 255.05L249.22 258.34ZM238.86 255.05L236.20 243.79L225.84 240.51L218.15 248.49L220.81 259.75L231.16 263.03ZM261.97 231.12L259.31 219.85L248.95 216.56L241.25 224.55L243.90 235.81L254.27 239.10ZM194.77 230.67L192.11 219.41L181.75 216.13L174.06 224.12L176.73 235.38L187.08 238.65ZM176.73 235.38L174.06 224.12L163.71 220.85L156.02 228.83L158.69 240.09L169.04 243.36ZM199.80 211.42L197.14 200.16L186.77 196.88L179.08 204.87L181.75 216.13L192.11 219.41ZM181.75 216.13L179.08 204.87L168.72 201.60L161.04 209.59L163.71 220.85L174.06 224.12ZM207.79 245.21L205.13 233.95L194.77 230.67L187.08 238.65L189.75 249.91L200.10 253.19ZM189.75 249.91L187.08 238.65L176.73 235.38L169.04 243.36L171.71 254.61L182.06 257.89ZM212.82 225.96L210.16 214.70L199.80 211.42L192.11 219.41L194.77 230.67L205.13 233.95ZM272.08 192.61L269.42 181.33L259.05 178.05L251.34 186.04L254.00 197.31L264.37 200.60ZM254.00 197.31L251.34 186.04L240.97 182.75L233.26 190.74L235.93 202.01L246.29 205.29ZM259.05 178.05L256.39 166.77L246.02 163.49L238.31 171.48L240.97 182.75L251.34 186.04ZM267.02 211.87L264.37 200.60L254.00 197.31L246.29 205.29L248.95 216.56L259.31 219.85ZM222.90 187.46L220.24 176.19L209.87 172.91L202.17 180.90L204.83 192.17L215.20 195.45ZM204.83 192.17L202.17 180.90L191.80 177.63L184.11 185.62L186.77 196.88L197.14 200.16ZM227.94 168.20L225.28 156.92L214.91 153.64L207.20 161.64L209.87 172.91L220.24 176.19ZM209.87 172.91L207.20 161.64L196.84 158.36L189.14 166.36L191.80 177.63L202.17 180.90ZM235.93 202.01L233.26 190.74L222.90 187.46L215.20 195.45L217.86 206.72L228.22 210.00ZM217.86 206.72L215.20 195.45L204.83 192.17L197.14 200.16L199.80 211.42L210.16 214.70ZM240.97 182.75L238.31 171.48L227.94 168.20L220.24 176.19L222.90 187.46L233.26 190.74ZM269.94 264.92L267.28 253.65L256.92 250.36L249.22 258.34L251.87 269.60L262.23 272.89ZM251.87 269.60L249.22 258.34L238.86 255.05L231.16 263.03L233.82 274.29L244.18 277.57ZM220.81 259.75L218.15 248.49L207.79 245.21L200.10 253.19L202.76 264.44L213.11 267.72ZM202.76 264.44L200.10 253.19L189.75 249.91L182.06 257.89L184.72 269.14L195.07 272.42ZM274.99 245.68L272.34 234.41L261.97 231.12L254.27 239.10L256.92 250.36L267.28 253.65ZM19.63 258.66L16.95 247.43L6.61 244.18L-1.03 252.17L1.66 263.40L11.99 266.65ZM1.66 263.40L-1.03 252.17L-11.36 248.93L-19.00 256.92L-16.31 268.14L-5.98 271.39ZM24.59 239.44L21.91 228.20L11.57 224.96L3.93 232.95L6.61 244.18L16.95 247.43ZM6.61 244.18L3.93 232.95L-6.41 229.70L-14.05 237.70L-11.36 248.93L-1.03 252.17ZM37.61 253.93L34.93 242.69L24.59 239.44L16.95 247.43L19.63 258.66L29.96 261.91ZM26.47 167.24L23.78 155.99L13.44 152.74L5.78 160.75L8.47 171.99L18.81 175.24ZM8.47 171.99L5.78 160.75L-4.57 157.51L-12.22 165.51L-9.52 176.75L0.82 179.99ZM31.44 147.98L28.76 136.73L18.40 133.49L10.75 141.49L13.44 152.74L23.78 155.99ZM13.44 152.74L10.75 141.49L0.40 138.25L-7.26 146.26L-4.57 157.51L5.78 160.75ZM39.50 181.73L36.82 170.48L26.47 167.24L18.81 175.24L21.50 186.48L31.85 189.73ZM21.50 186.48L18.81 175.24L8.47 171.99L0.82 179.99L3.51 191.24L13.85 194.48ZM44.48 162.48L41.79 151.23L31.44 147.98L23.78 155.99L26.47 167.24L36.82 170.48ZM54.44 123.96L51.76 112.70L41.40 109.45L33.73 117.47L36.42 128.72L46.77 131.97ZM36.42 128.72L33.73 117.47L23.38 114.22L15.71 122.23L18.40 133.49L28.76 136.73ZM59.43 104.69L56.74 93.43L46.38 90.18L38.71 98.19L41.40 109.45L51.76 112.70ZM41.40 109.45L38.71 98.19L28.35 94.95L20.69 102.96L23.38 114.22L33.73 117.47ZM67.48 138.47L64.80 127.21L54.44 123.96L46.77 131.97L49.46 143.22L59.81 146.47ZM49.46 143.22L46.77 131.97L36.42 128.72L28.76 136.73L31.44 147.98L41.79 151.23ZM72.47 119.20L69.79 107.94L59.43 104.69L51.76 112.70L54.44 123.96L64.80 127.21ZM5.36 118.99L2.67 107.74L-7.68 104.50L-15.34 112.51L-12.64 123.76L-2.30 127.00ZM10.33 99.72L7.64 88.47L-2.72 85.23L-10.38 93.24L-7.68 104.50L2.67 107.74ZM18.40 133.49L15.71 122.23L5.36 118.99L-2.30 127.00L0.40 138.25L10.75 141.49ZM0.40 138.25L-2.30 127.00L-12.64 123.76L-20.30 131.77L-17.60 143.02L-7.26 146.26ZM23.38 114.22L20.69 102.96L10.33 99.72L2.67 107.74L5.36 118.99L15.71 122.23ZM47.56 215.47L44.87 204.22L34.53 200.97L26.88 208.97L29.56 220.21L39.90 223.46ZM29.56 220.21L26.88 208.97L16.54 205.72L8.89 213.72L11.57 224.96L21.91 228.20ZM52.53 196.23L49.85 184.98L39.50 181.73L31.85 189.73L34.53 200.97L44.87 204.22ZM34.53 200.97L31.85 189.73L21.50 186.48L13.85 194.48L16.54 205.72L26.88 208.97ZM60.58 229.96L57.90 218.72L47.56 215.47L39.90 223.46L42.58 234.70L52.92 237.95ZM42.58 234.70L39.90 223.46L29.56 220.21L21.91 228.20L24.59 239.44L34.93 242.69ZM65.56 210.73L62.88 199.48L52.53 196.23L44.87 204.22L47.56 215.47L57.90 218.72ZM3.51 191.24L0.82 179.99L-9.52 176.75L-17.17 184.76L-14.48 195.99L-4.14 199.24ZM11.57 224.96L8.89 213.72L-1.45 210.47L-9.10 218.47L-6.41 229.70L3.93 232.95ZM16.54 205.72L13.85 194.48L3.51 191.24L-4.14 199.24L-1.45 210.47L8.89 213.72ZM75.53 172.24L72.85 160.98L62.50 157.73L54.83 165.73L57.51 176.98L67.86 180.23ZM57.51 176.98L54.83 165.73L44.48 162.48L36.82 170.48L39.50 181.73L49.85 184.98ZM80.52 152.98L77.84 141.72L67.48 138.47L59.81 146.47L62.50 157.73L72.85 160.98ZM62.50 157.73L59.81 146.47L49.46 143.22L41.79 151.23L44.48 162.48L54.83 165.73ZM88.56 186.74L85.88 175.49L75.53 172.24L67.86 180.23L70.55 191.48L80.89 194.74ZM70.55 191.48L67.86 180.23L57.51 176.98L49.85 184.98L52.53 196.23L62.88 199.48ZM93.56 167.49L90.88 156.24L80.52 152.98L72.85 160.98L75.53 172.24L85.88 175.49ZM117.64 268.75L114.97 257.50L104.63 254.24L96.96 262.22L99.64 273.46L109.97 276.72ZM122.64 249.52L119.97 238.27L109.62 235.01L101.95 242.99L104.63 254.24L114.97 257.50ZM104.63 254.24L101.95 242.99L91.61 239.73L83.94 247.72L86.62 258.96L96.96 262.22ZM135.66 264.03L132.99 252.78L122.64 249.52L114.97 257.50L117.64 268.75L127.98 272.01ZM68.62 263.69L65.94 252.45L55.60 249.19L47.95 257.18L50.63 268.41L60.96 271.67ZM50.63 268.41L47.95 257.18L37.61 253.93L29.96 261.91L32.65 273.14L42.98 276.39ZM73.60 244.46L70.92 233.22L60.58 229.96L52.92 237.95L55.60 249.19L65.94 252.45ZM55.60 249.19L52.92 237.95L42.58 234.70L34.93 242.69L37.61 253.93L47.95 257.18ZM86.62 258.96L83.94 247.72L73.60 244.46L65.94 252.45L68.62 263.69L78.96 266.94ZM145.67 225.57L143.00 214.31L132.65 211.04L124.97 219.03L127.64 230.28L137.99 233.55ZM127.64 230.28L124.97 219.03L114.62 215.77L106.95 223.76L109.62 235.01L119.97 238.27ZM150.68 206.32L148.01 195.06L137.65 191.80L129.97 199.79L132.65 211.04L143.00 214.31ZM132.65 211.04L129.97 199.79L119.62 196.52L111.94 204.52L114.62 215.77L124.97 219.03ZM158.69 240.09L156.02 228.83L145.67 225.57L137.99 233.55L140.66 244.80L151.01 248.07ZM140.66 244.80L137.99 233.55L127.64 230.28L119.97 238.27L122.64 249.52L132.99 252.78ZM163.71 220.85L161.04 209.59L150.68 206.32L143.00 214.31L145.67 225.57L156.02 228.83ZM96.60 220.50L93.92 209.25L83.57 205.99L75.91 213.98L78.59 225.23L88.93 228.49ZM78.59 225.23L75.91 213.98L65.56 210.73L57.90 218.72L60.58 229.96L70.92 233.22ZM101.59 201.26L98.92 190.00L88.56 186.74L80.89 194.74L83.57 205.99L93.92 209.25ZM83.57 205.99L80.89 194.74L70.55 191.48L62.88 199.48L65.56 210.73L75.91 213.98ZM109.62 235.01L106.95 223.76L96.60 220.50L88.93 228.49L91.61 239.73L101.95 242.99ZM91.61 239.73L88.93 228.49L78.59 225.23L70.92 233.22L73.60 244.46L83.94 247.72ZM114.62 215.77L111.94 204.52L101.59 201.26L93.92 209.25L96.60 220.50L106.95 223.76ZM171.71 254.61L169.04 243.36L158.69 240.09L151.01 248.07L153.68 259.32L164.03 262.59ZM153.68 259.32L151.01 248.07L140.66 244.80L132.99 252.78L135.66 264.03L146.00 267.30ZM184.72 269.14L182.06 257.89L171.71 254.61L164.03 262.59L166.69 273.84L177.04 277.12Z"/><path data-band="3" fill="#dc2626" fill-opacity="0.35" d="M187.91 -1.06L185.24 -12.35L174.85 -15.62L167.13 -7.59L169.81 3.70L180.20 6.97ZM169.81 3.70L167.13 -7.59L156.74 -10.86L149.03 -2.83L151.71 8.46L162.10 11.73ZM200.98 13.50L198.30 2.21L187.91 -1.06L180.20 6.97L182.87 18.26L193.26 21.53ZM182.87 18.26L180.20 6.97L169.81 3.70L162.10 11.73L164.77 23.01L175.16 26.28ZM206.02 -5.81L203.35 -17.11L192.96 -20.38L185.24 -12.35L187.91 -1.06L198.30 2.21ZM138.65 -6.09L135.97 -17.38L125.58 -20.63L117.88 -12.60L120.56 -1.32L130.94 1.94ZM120.56 -1.32L117.88 -12.60L107.49 -15.86L99.79 -7.83L102.48 3.46L112.86 6.71ZM151.71 8.46L149.03 -2.83L138.65 -6.09L130.94 1.94L133.62 13.23L144.01 16.49ZM133.62 13.23L130.94 1.94L120.56 -1.32L112.86 6.71L115.54 17.99L125.92 21.25ZM208.99 47.38L206.32 36.09L195.93 32.82L188.22 40.84L190.89 52.12L201.27 55.39ZM190.89 52.12L188.22 40.84L177.83 37.57L170.13 45.59L172.80 56.87L183.18 60.14ZM214.04 28.07L211.37 16.78L200.98 13.50L193.26 21.53L195.93 32.82L206.32 36.09ZM195.93 32.82L193.26 21.53L182.87 18.26L175.16 26.28L177.83 37.57L188.22 40.84ZM222.04 61.94L219.37 50.65L208.99 47.38L201.27 55.39L203.94 66.68L214.33 69.96ZM203.94 66.68L201.27 55.39L190.89 52.12L183.18 60.14L185.85 71.42L196.23 74.69ZM227.09 42.64L224.43 31.35L214.04 28.07L206.32 36.09L208.99 47.38L219.37 50.65ZM159.74 42.32L157.07 31.04L146.69 27.77L138.98 35.79L141.66 47.08L152.04 50.34ZM141.66 47.08L138.98 35.79L128.60 32.53L120.91 40.56L123.59 51.83L133.96 55.09ZM164.77 23.01L162.10 11.73L151.71 8.46L144.01 16.49L146.69 27.77L157.07 31.04ZM146.69 27.77L144.01 16.49L133.62 13.23L125.92 21.25L128.60 32.53L138.98 35.79ZM172.80 56.87L170.13 45.59L159.74 42.32L152.04 50.34L154.72 61.62L165.10 64.89ZM154.72 61.62L152.04 50.34L141.66 47.08L133.96 55.09L136.64 66.37L147.02 69.64ZM177.83 37.57L175.16 26.28L164.77 23.01L157.07 31.04L159.74 42.32L170.13 45.59ZM237.21 4.01L234.54 -7.29L224.14 -10.57L216.42 -2.54L219.09 8.75L229.48 12.03ZM219.09 8.75L216.42 -2.54L206.02 -5.81L198.30 2.21L200.98 13.50L211.37 16.78ZM250.27 18.59L247.60 7.29L237.21 4.01L229.48 12.03L232.15 23.33L242.54 26.60ZM232.15 23.33L229.48 12.03L219.09 8.75L211.37 16.78L214.04 28.07L224.43 31.35ZM255.33 -0.74L252.67 -12.04L242.27 -15.32L234.54 -7.29L237.21 4.01L247.60 7.29ZM71.34 -6.30L68.65 -17.58L58.27 -20.82L50.59 -12.79L53.28 -1.51L63.65 1.74ZM102.48 3.46L99.79 -7.83L89.41 -11.08L81.72 -3.05L84.41 8.23L94.79 11.49ZM84.41 8.23L81.72 -3.05L71.34 -6.30L63.65 1.74L66.34 13.01L76.72 16.26ZM53.28 -1.51L50.59 -12.79L40.21 -16.03L32.53 -8.00L35.22 3.28L45.60 6.52ZM115.54 17.99L112.86 6.71L102.48 3.46L94.79 11.49L97.47 22.76L107.85 26.02ZM97.47 22.76L94.79 11.49L84.41 8.23L76.72 16.26L79.41 27.54L89.78 30.79ZM128.60 32.53L125.92 21.25L115.54 17.99L107.85 26.02L110.53 37.30L120.91 40.56ZM261.19 105.65L258.53 94.36L248.14 91.08L240.42 99.08L243.09 110.37L253.47 113.65ZM266.25 86.35L263.59 75.06L253.20 71.78L245.48 79.79L248.14 91.08L258.53 94.36ZM274.23 120.22L271.57 108.93L261.19 105.65L253.47 113.65L256.13 124.93L266.51 128.22ZM230.04 95.80L227.38 84.52L216.99 81.24L209.28 89.25L211.95 100.53L222.33 103.81ZM235.09 76.51L232.43 65.22L222.04 61.94L214.33 69.96L216.99 81.24L227.38 84.52ZM216.99 81.24L214.33 69.96L203.94 66.68L196.23 74.69L198.90 85.98L209.28 89.25ZM243.09 110.37L240.42 99.08L230.04 95.80L222.33 103.81L224.99 115.09L235.37 118.37ZM248.14 91.08L245.48 79.79L235.09 76.51L227.38 84.52L230.04 95.80L240.42 99.08ZM258.26 52.48L255.60 41.18L245.21 37.90L237.48 45.92L240.15 57.21L250.54 60.49ZM240.15 57.21L237.48 45.92L227.09 42.64L219.37 50.65L222.04 61.94L232.43 65.22ZM263.33 33.17L260.66 21.87L250.27 18.59L242.54 26.60L245.21 37.90L255.60 41.18ZM245.21 37.90L242.54 26.60L232.15 23.33L224.43 31.35L227.09 42.64L237.48 45.92ZM271.32 67.05L268.65 55.76L258.26 52.48L250.54 60.49L253.20 71.78L263.59 75.06ZM253.20 71.78L250.54 60.49L240.15 57.21L232.43 65.22L235.09 76.51L245.48 79.79ZM276.38 47.75L273.72 36.45L263.33 33.17L255.60 41.18L258.26 52.48L268.65 55.76ZM180.82 90.71L178.15 79.43L167.77 76.17L160.07 84.18L162.74 95.45L173.12 98.72ZM185.85 71.42L183.18 60.14L172.80 56.87L165.10 64.89L167.77 76.17L178.15 79.43ZM198.90 85.98L196.23 74.69L185.85 71.42L178.15 79.43L180.82 90.71L191.20 93.98ZM268.40 13.85L265.73 2.54L255.33 -0.74L247.60 7.29L250.27 18.59L260.66 21.87ZM273.47 -5.48L270.80 -16.78L260.40 -20.06L252.67 -12.04L255.33 -0.74L265.73 2.54Z"/></svg>
