<svg xmlns="http://www.w3.org/2000/svg" width="256" height="256" viewBox="0 0 256 256"><path data-band="1" fill="#fde68a" fill-opacity="0.35" d="M173.60 248.57L170.94 237.35L160.63 234.07L152.97 242.01L155.63 253.22L165.94 256.50ZM155.63 253.22L152.97 242.01L142.66 238.73L135.01 246.67L137.67 257.88L147.98 261.15ZM178.60 229.41L175.94 218.20L165.62 214.92L157.97 222.85L160.63 234.07L170.94 237.35ZM160.63 234.07L157.97 222.85L147.65 219.58L140.00 227.52L142.66 238.73L152.97 242.01ZM186.56 263.06L183.91 251.85L173.60 248.57L165.94 256.50L168.60 267.71L178.91 270.99ZM168.60 267.71L165.94 256.50L155.63 253.22L147.98 261.15L150.64 272.36L160.95 275.64ZM191.57 243.92L188.91 232.70L178.60 229.41L170.94 237.35L173.60 248.57L183.91 251.85ZM124.71 243.39L122.04 232.18L111.73 228.91L104.09 236.85L106.76 248.06L117.06 251.33ZM106.76 248.06L104.09 236.85L93.79 233.58L86.15 241.52L88.82 252.73L99.12 256.00ZM129.69 224.24L127.03 213.03L116.71 209.76L109.07 217.70L111.73 228.91L122.04 232.18ZM111.73 228.91L109.07 217.70L98.76 214.43L91.12 222.38L93.79 233.58L104.09 236.85ZM137.67 257.88L135.01 246.67L124.71 243.39L117.06 251.33L119.73 262.54L130.03 265.81ZM119.73 262.54L117.06 251.33L106.76 248.06L99.12 256.00L101.78 267.20L112.08 270.47ZM142.66 238.73L140.00 227.52L129.69 224.24L122.04 232.18L124.71 243.39L135.01 246.67ZM201.59 205.60L198.93 194.37L188.61 191.09L180.94 199.03L183.60 210.26L193.92 213.54ZM183.60 210.26L180.94 199.03L170.62 195.75L162.96 203.70L165.62 214.92L175.94 218.20ZM206.60 186.43L203.95 175.20L193.62 171.92L185.95 179.86L188.61 191.09L198.93 194.37ZM188.61 191.09L185.95 179.86L175.63 176.58L167.96 184.53L170.62 195.75L180.94 199.03ZM214.56 220.11L211.91 208.88L201.59 205.60L193.92 213.54L196.57 224.76L206.89 228.05ZM196.57 224.76L193.92 213.54L183.60 210.26L175.94 218.20L178.60 229.41L188.91 232.70ZM219.58 200.94L216.93 189.72L206.60 186.43L198.93 194.37L201.59 205.60L211.91 208.88ZM152.65 200.42L149.98 189.20L139.67 185.92L132.01 193.87L134.68 205.09L144.99 208.36ZM134.68 205.09L132.01 193.87L121.70 190.60L114.05 198.54L116.71 209.76L127.03 213.03ZM157.64 181.25L154.98 170.03L144.66 166.75L137.00 174.70L139.67 185.92L149.98 189.20ZM139.67 185.92L137.00 174.70L126.68 171.43L119.03 179.38L121.70 190.60L132.01 193.87ZM165.62 214.92L162.96 203.70L152.65 200.42L144.99 208.36L147.65 219.58L157.97 222.85ZM147.65 219.58L144.99 208.36L134.68 205.09L127.03 213.03L129.69 224.24L140.00 227.52ZM170.62 195.75L167.96 184.53L157.64 181.25L149.98 189.20L152.65 200.42L162.96 203.70ZM222.51 253.78L219.86 242.56L209.55 239.27L201.88 247.20L204.53 258.42L214.85 261.71ZM204.53 258.42L201.88 247.20L191.57 243.92L183.91 251.85L186.56 263.06L196.87 266.35ZM227.53 234.62L224.88 223.40L214.56 220.11L206.89 228.05L209.55 239.27L219.86 242.56ZM209.55 239.27L206.89 228.05L196.57 224.76L188.91 232.70L191.57 243.92L201.88 247.20ZM235.48 268.29L232.83 257.07L222.51 253.78L214.85 261.71L217.50 272.92L227.81 276.21ZM240.50 249.14L237.85 237.91L227.53 234.62L219.86 242.56L222.51 253.78L232.83 257.07ZM52.96 262.07L50.29 250.87L39.99 247.61L32.37 255.55L35.04 266.75L45.33 270.01ZM35.04 266.75L32.37 255.55L22.07 252.30L14.45 260.24L17.13 271.43L27.42 274.68ZM4.16 256.98L1.48 245.79L-8.81 242.54L-16.42 250.48L-13.74 261.67L-3.45 264.92ZM75.85 238.26L73.18 227.05L62.87 223.79L55.24 231.73L57.91 242.93L68.21 246.20ZM57.91 242.93L55.24 231.73L44.94 228.47L37.32 236.41L39.99 247.61L50.29 250.87ZM80.81 219.11L78.14 207.90L67.84 204.64L60.20 212.58L62.87 223.79L73.18 227.05ZM62.87 223.79L60.20 212.58L49.90 209.32L42.27 217.27L44.94 228.47L55.24 231.73ZM88.82 252.73L86.15 241.52L75.85 238.26L68.21 246.20L70.88 257.40L81.18 260.66ZM70.88 257.40L68.21 246.20L57.91 242.93L50.29 250.87L52.96 262.07L63.25 265.33ZM93.79 233.58L91.12 222.38L80.81 219.11L73.18 227.05L75.85 238.26L86.15 241.52ZM27.02 233.16L24.34 221.96L14.04 218.70L6.42 226.65L9.10 237.85L19.40 241.10ZM9.10 237.85L6.42 226.65L-3.87 223.40L-11.49 231.34L-8.81 242.54L1.48 245.79ZM31.97 214.01L29.29 202.81L18.99 199.55L11.37 207.50L14.04 218.70L24.34 221.96ZM14.04 218.70L11.37 207.50L1.07 204.25L-6.55 212.20L-3.87 223.40L6.42 226.65ZM39.99 247.61L37.32 236.41L27.02 233.16L19.40 241.10L22.07 252.30L32.37 255.55ZM22.07 252.30L19.40 241.10L9.10 237.85L1.48 245.79L4.16 256.98L14.45 260.24ZM44.94 228.47L42.27 217.27L31.97 214.01L24.34 221.96L27.02 233.16L37.32 236.41ZM101.78 267.20L99.12 256.00L88.82 252.73L81.18 260.66L83.85 271.86L94.15 275.13ZM208.67 114.36L206.01 103.12L195.67 99.84L188.00 107.79L190.66 119.03L200.99 122.31ZM190.66 119.03L188.00 107.79L177.66 104.52L169.99 112.48L172.65 123.71L182.99 126.99ZM221.66 128.88L219.01 117.64L208.67 114.36L200.99 122.31L203.65 133.55L213.98 136.83ZM203.65 133.55L200.99 122.31L190.66 119.03L182.99 126.99L185.64 138.22L195.98 141.50ZM159.66 109.20L157.00 97.96L146.66 94.69L139.00 102.65L141.66 113.89L151.99 117.16ZM141.66 113.89L139.00 102.65L128.67 99.38L121.01 107.35L123.67 118.58L134.00 121.85ZM146.66 94.69L144.00 83.46L133.66 80.19L126.00 88.15L128.67 99.38L139.00 102.65ZM172.65 123.71L169.99 112.48L159.66 109.20L151.99 117.16L154.66 128.39L164.99 131.67ZM154.66 128.39L151.99 117.16L141.66 113.89L134.00 121.85L136.67 133.07L146.99 136.35ZM229.62 162.59L226.97 151.36L216.64 148.07L208.96 156.02L211.62 167.25L221.95 170.54ZM211.62 167.25L208.96 156.02L198.63 152.74L190.96 160.69L193.62 171.92L203.95 175.20ZM234.65 143.41L232.00 132.17L221.66 128.88L213.98 136.83L216.64 148.07L226.97 151.36ZM216.64 148.07L213.98 136.83L203.65 133.55L195.98 141.50L198.63 152.74L208.96 156.02ZM242.61 177.12L239.96 165.88L229.62 162.59L221.95 170.54L224.60 181.77L234.93 185.06ZM224.60 181.77L221.95 170.54L211.62 167.25L203.95 175.20L206.60 186.43L216.93 189.72ZM247.64 157.94L244.99 146.70L234.65 143.41L226.97 151.36L229.62 162.59L239.96 165.88ZM180.63 157.41L177.97 146.18L167.65 142.90L159.98 150.85L162.64 162.08L172.97 165.36ZM162.64 162.08L159.98 150.85L149.66 147.58L142.00 155.53L144.66 166.75L154.98 170.03ZM185.64 138.22L182.99 126.99L172.65 123.71L164.99 131.67L167.65 142.90L177.97 146.18ZM167.65 142.90L164.99 131.67L154.66 128.39L146.99 136.35L149.66 147.58L159.98 150.85ZM193.62 171.92L190.96 160.69L180.63 157.41L172.97 165.36L175.63 176.58L185.95 179.86ZM175.63 176.58L172.97 165.36L162.64 162.08L154.98 170.03L157.64 181.25L167.96 184.53ZM198.63 152.74L195.98 141.50L185.64 138.22L177.97 146.18L180.63 157.41L190.96 160.69ZM252.67 138.75L250.02 127.50L239.68 124.22L232.00 132.17L234.65 143.41L244.99 146.70ZM250.56 210.82L247.91 199.58L237.58 196.29L229.90 204.23L232.55 215.46L242.88 218.75ZM232.55 215.46L229.90 204.23L219.58 200.94L211.91 208.88L214.56 220.11L224.88 223.40ZM255.59 191.64L252.94 180.41L242.61 177.12L234.93 185.06L237.58 196.29L247.91 199.58ZM237.58 196.29L234.93 185.06L224.60 181.77L216.93 189.72L219.58 200.94L229.90 204.23ZM263.53 225.34L260.88 214.11L250.56 210.82L242.88 218.75L245.53 229.98L255.85 233.27ZM245.53 229.98L242.88 218.75L232.55 215.46L224.88 223.40L227.53 234.62L237.85 237.91ZM268.56 206.17L265.92 194.94L255.59 191.64L247.91 199.58L250.56 210.82L260.88 214.11ZM260.62 172.47L257.97 161.23L247.64 157.94L239.96 165.88L242.61 177.12L252.94 180.41ZM265.66 153.28L263.01 142.04L252.67 138.75L244.99 146.70L247.64 157.94L257.97 161.23ZM273.60 187.00L270.96 175.76L260.62 172.47L252.94 180.41L255.59 191.64L265.92 194.94ZM271.46 259.02L268.82 247.80L258.50 244.50L250.82 252.43L253.47 263.65L263.79 266.95ZM253.47 263.65L250.82 252.43L240.50 249.14L232.83 257.07L235.48 268.29L245.80 271.58ZM276.50 239.87L273.86 228.64L263.53 225.34L255.85 233.27L258.50 244.50L268.82 247.80ZM258.50 244.50L255.85 233.27L245.53 229.98L237.85 237.91L240.50 249.14L250.82 252.43ZM4.76 60.29L2.08 49.06L-8.25 45.82L-15.88 53.80L-13.19 65.02L-2.88 68.26ZM9.71 41.09L7.03 29.86L-3.30 26.61L-10.93 34.60L-8.25 45.82L2.08 49.06ZM12.81 93.95L10.13 82.73L-0.19 79.48L-7.82 87.45L-5.14 98.67L5.18 101.92ZM17.76 74.76L15.08 63.54L4.76 60.29L-2.88 68.26L-0.19 79.48L10.13 82.73ZM25.81 108.42L23.13 97.20L12.81 93.95L5.18 101.92L7.86 113.13L18.17 116.38ZM7.86 113.13L5.18 101.92L-5.14 98.67L-12.77 106.64L-10.08 117.85L0.23 121.10ZM30.77 89.23L28.09 78.01L17.76 74.76L10.13 82.73L12.81 93.95L23.13 97.20ZM40.69 50.84L38.01 39.61L27.68 36.36L20.04 44.33L22.72 55.56L33.05 58.81ZM22.72 55.56L20.04 44.33L9.71 41.09L2.08 49.06L4.76 60.29L15.08 63.54ZM53.70 65.32L51.02 54.09L40.69 50.84L33.05 58.81L35.73 70.04L46.05 73.29ZM35.73 70.04L33.05 58.81L22.72 55.56L15.08 63.54L17.76 74.76L28.09 78.01ZM82.74 147.14L80.07 135.92L69.75 132.66L62.11 140.62L64.79 151.84L75.10 155.10ZM64.79 151.84L62.11 140.62L51.80 137.36L44.16 145.32L46.83 156.54L57.15 159.79ZM87.72 127.96L85.05 116.74L74.73 113.48L67.08 121.44L69.75 132.66L80.07 135.92ZM69.75 132.66L67.08 121.44L56.76 118.18L49.12 126.14L51.80 137.36L62.11 140.62ZM95.73 161.63L93.06 150.41L82.74 147.14L75.10 155.10L77.77 166.31L88.09 169.58ZM77.77 166.31L75.10 155.10L64.79 151.84L57.15 159.79L59.82 171.01L70.13 174.27ZM100.71 142.45L98.04 131.23L87.72 127.96L80.07 135.92L82.74 147.14L93.06 150.41ZM33.85 142.07L31.17 130.85L20.85 127.60L13.22 135.56L15.90 146.77L26.21 150.02ZM15.90 146.77L13.22 135.56L2.91 132.31L-4.72 140.27L-2.03 151.48L8.27 154.73ZM38.80 122.89L36.13 111.67L25.81 108.42L18.17 116.38L20.85 127.60L31.17 130.85ZM20.85 127.60L18.17 116.38L7.86 113.13L0.23 121.10L2.91 132.31L13.22 135.56ZM46.83 156.54L44.16 145.32L33.85 142.07L26.21 150.02L28.89 161.24L39.20 164.49ZM28.89 161.24L26.21 150.02L15.90 146.77L8.27 154.73L10.95 165.94L21.26 169.19ZM51.80 137.36L49.12 126.14L38.80 122.89L31.17 130.85L33.85 142.07L44.16 145.32ZM110.68 104.08L108.01 92.85L97.68 89.58L90.03 97.55L92.70 108.78L103.02 112.04ZM92.70 108.78L90.03 97.55L79.70 94.29L72.05 102.25L74.73 113.48L85.05 116.74ZM115.67 84.88L113.00 73.65L102.67 70.39L95.01 78.35L97.68 89.58L108.01 92.85ZM97.68 89.58L95.01 78.35L84.68 75.09L77.03 83.06L79.70 94.29L90.03 97.55ZM123.67 118.58L121.01 107.35L110.68 104.08L103.02 112.04L105.69 123.27L116.02 126.54ZM105.69 123.27L103.02 112.04L92.70 108.78L85.05 116.74L87.72 127.96L98.04 131.23ZM128.67 99.38L126.00 88.15L115.67 84.88L108.01 92.85L110.68 104.08L121.01 107.35ZM61.73 99.00L59.05 87.77L48.73 84.52L41.09 92.48L43.77 103.71L54.08 106.96ZM43.77 103.71L41.09 92.48L30.77 89.23L23.13 97.20L25.81 108.42L36.13 111.67ZM66.70 79.80L64.02 68.57L53.70 65.32L46.05 73.29L48.73 84.52L59.05 87.77ZM48.73 84.52L46.05 73.29L35.73 70.04L28.09 78.01L30.77 89.23L41.09 92.48ZM74.73 113.48L72.05 102.25L61.73 99.00L54.08 106.96L56.76 118.18L67.08 121.44ZM56.76 118.18L54.08 106.96L43.77 103.71L36.13 111.67L38.80 122.89L49.12 126.14ZM79.70 94.29L77.03 83.06L66.70 79.80L59.05 87.77L61.73 99.00L72.05 102.25ZM103.74 195.27L101.07 184.06L90.76 180.79L83.11 188.74L85.78 199.96L96.09 203.22ZM85.78 199.96L83.11 188.74L72.80 185.48L65.17 193.43L67.84 204.64L78.14 207.90ZM108.72 176.11L106.05 164.89L95.73 161.63L88.09 169.58L90.76 180.79L101.07 184.06ZM90.76 180.79L88.09 169.58L77.77 166.31L70.13 174.27L72.80 185.48L83.11 188.74ZM116.71 209.76L114.05 198.54L103.74 195.27L96.09 203.22L98.76 214.43L109.07 217.70ZM98.76 214.43L96.09 203.22L85.78 199.96L78.14 207.90L80.81 219.11L91.12 222.38ZM121.70 190.60L119.03 179.38L108.72 176.11L101.07 184.06L103.74 195.27L114.05 198.54ZM54.86 190.17L52.18 178.96L41.87 175.70L34.24 183.65L36.92 194.86L47.22 198.12ZM36.92 194.86L34.24 183.65L23.94 180.40L16.31 188.35L18.99 199.55L29.29 202.81ZM59.82 171.01L57.15 159.79L46.83 156.54L39.20 164.49L41.87 175.70L52.18 178.96ZM41.87 175.70L39.20 164.49L28.89 161.24L21.26 169.19L23.94 180.40L34.24 183.65ZM67.84 204.64L65.17 193.43L54.86 190.17L47.22 198.12L49.90 209.32L60.20 212.58ZM49.90 209.32L47.22 198.12L36.92 194.86L29.29 202.81L31.97 214.01L42.27 217.27ZM72.80 185.48L70.13 174.27L59.82 171.01L52.18 178.96L54.86 190.17L65.17 193.43ZM131.67 152.26L129.01 141.03L118.69 137.76L111.03 145.72L113.70 156.94L124.02 160.21ZM113.70 156.94L111.03 145.72L100.71 142.45L93.06 150.41L95.73 161.63L106.05 164.89ZM136.67 133.07L134.00 121.85L123.67 118.58L116.02 126.54L118.69 137.76L129.01 141.03ZM118.69 137.76L116.02 126.54L105.69 123.27L98.04 131.23L100.71 142.45L111.03 145.72ZM144.66 166.75L142.00 155.53L131.67 152.26L124.02 160.21L126.68 171.43L137.00 174.70ZM126.68 171.43L124.02 160.21L113.70 156.94L106.05 164.89L108.72 176.11L119.03 179.38ZM149.66 147.58L146.99 136.35L136.67 133.07L129.01 141.03L131.67 152.26L142.00 155.53ZM2.91 132.31L0.23 121.10L-10.08 117.85L-17.71 125.82L-15.02 137.03L-4.72 140.27ZM6.01 185.10L3.33 173.89L-6.98 170.65L-14.60 178.60L-11.91 189.80L-1.61 193.05ZM10.95 165.94L8.27 154.73L-2.03 151.48L-9.66 159.44L-6.98 170.65L3.33 173.89ZM18.99 199.55L16.31 188.35L6.01 185.10L-1.61 193.05L1.07 204.25L11.37 207.50ZM1.07 204.25L-1.61 193.05L-11.91 189.80L-19.53 197.75L-16.85 208.95L-6.55 212.20ZM23.94 180.40L21.26 169.19L10.95 165.94L3.33 173.89L6.01 185.10L16.31 188.35ZM133.66 80.19L131.00 68.95L120.66 65.68L113.00 73.65L115.67 84.88L126.00 88.15ZM71.68 60.60L69.00 49.37L58.67 46.11L51.02 54.09L53.70 65.32L64.02 68.57Z"/><path data-band="2" fill="#f97316" fill-opacity="0.35" d="M267.80 81.14L265.14 69.89L254.80 66.60L247.10 74.56L249.75 85.81L260.10 89.10ZM272.84 61.92L270.19 50.67L259.84 47.38L252.14 55.34L254.80 66.60L265.14 69.89ZM213.69 95.16L211.04 83.91L200.69 80.63L193.02 88.59L195.67 99.84L206.01 103.12ZM195.67 99.84L193.02 88.59L182.68 85.32L175.00 93.28L177.66 104.52L188.00 107.79ZM226.69 109.69L224.03 98.44L213.69 95.16L206.01 103.12L208.67 114.36L219.01 117.64ZM164.67 90.00L162.00 78.76L151.67 75.49L144.00 83.46L146.66 94.69L157.00 97.96ZM177.66 104.52L175.00 93.28L164.67 90.00L157.00 97.96L159.66 109.20L169.99 112.48ZM236.75 71.27L234.10 60.02L223.75 56.74L216.06 64.70L218.72 75.95L229.06 79.23ZM218.72 75.95L216.06 64.70L205.72 61.42L198.04 69.39L200.69 80.63L211.04 83.91ZM241.79 52.06L239.14 40.80L228.78 37.52L221.09 45.48L223.75 56.74L234.10 60.02ZM223.75 56.74L221.09 45.48L210.74 42.20L203.06 50.17L205.72 61.42L216.06 64.70ZM249.75 85.81L247.10 74.56L236.75 71.27L229.06 79.23L231.72 90.48L242.06 93.77ZM231.72 90.48L229.06 79.23L218.72 75.95L211.04 83.91L213.69 95.16L224.03 98.44ZM254.80 66.60L252.14 55.34L241.79 52.06L234.10 60.02L236.75 71.27L247.10 74.56ZM187.69 66.11L185.03 54.86L174.69 51.59L167.01 59.55L169.68 70.80L180.01 74.07ZM169.68 70.80L167.01 59.55L156.67 56.28L149.00 64.25L151.67 75.49L162.00 78.76ZM192.71 46.89L190.05 35.64L179.70 32.37L172.02 40.34L174.69 51.59L185.03 54.86ZM174.69 51.59L172.02 40.34L161.68 37.07L154.01 45.04L156.67 56.28L167.01 59.55ZM200.69 80.63L198.04 69.39L187.69 66.11L180.01 74.07L182.68 85.32L193.02 88.59ZM182.68 85.32L180.01 74.07L169.68 70.80L162.00 78.76L164.67 90.00L175.00 93.28ZM205.72 61.42L203.06 50.17L192.71 46.89L185.03 54.86L187.69 66.11L198.04 69.39ZM257.71 119.55L255.06 108.31L244.72 105.02L237.03 112.97L239.68 124.22L250.02 127.50ZM239.68 124.22L237.03 112.97L226.69 109.69L219.01 117.64L221.66 128.88L232.00 132.17ZM262.75 100.35L260.10 89.10L249.75 85.81L242.06 93.77L244.72 105.02L255.06 108.31ZM244.72 105.02L242.06 93.77L231.72 90.48L224.03 98.44L226.69 109.69L237.03 112.97ZM270.70 134.09L268.05 122.84L257.71 119.55L250.02 127.50L252.67 138.75L263.01 142.04ZM275.75 114.89L273.10 103.64L262.75 100.35L255.06 108.31L257.71 119.55L268.05 122.84ZM256.92 -5.64L254.27 -16.90L243.90 -20.19L236.20 -12.21L238.86 -0.95L249.22 2.34ZM238.86 -0.95L236.20 -12.21L225.84 -15.49L218.15 -7.51L220.81 3.75L231.16 7.03ZM189.75 -6.09L187.08 -17.35L176.73 -20.62L169.04 -12.64L171.71 -1.39L182.06 1.89ZM264.89 28.15L262.23 16.89L251.87 13.60L244.18 21.57L246.83 32.83L257.18 36.12ZM246.83 32.83L244.18 21.57L233.82 18.29L226.13 26.26L228.78 37.52L239.14 40.80ZM269.94 8.92L267.28 -2.35L256.92 -5.64L249.22 2.34L251.87 13.60L262.23 16.89ZM251.87 13.60L249.22 2.34L238.86 -0.95L231.16 7.03L233.82 18.29L244.18 21.57ZM259.84 47.38L257.18 36.12L246.83 32.83L239.14 40.80L241.79 52.06L252.14 55.34ZM215.77 22.98L213.11 11.72L202.76 8.44L195.07 16.42L197.74 27.67L208.08 30.95ZM197.74 27.67L195.07 16.42L184.72 13.14L177.04 21.12L179.70 32.37L190.05 35.64ZM220.81 3.75L218.15 -7.51L207.79 -10.79L200.10 -2.81L202.76 8.44L213.11 11.72ZM202.76 8.44L200.10 -2.81L189.75 -6.09L182.06 1.89L184.72 13.14L195.07 16.42ZM228.78 37.52L226.13 26.26L215.77 22.98L208.08 30.95L210.74 42.20L221.09 45.48ZM210.74 42.20L208.08 30.95L197.74 27.67L190.05 35.64L192.71 46.89L203.06 50.17ZM233.82 18.29L231.16 7.03L220.81 3.75L213.11 11.72L215.77 22.98L226.13 26.26ZM19.63 2.66L16.95 -8.57L6.61 -11.82L-1.03 -3.83L1.66 7.40L11.99 10.65ZM1.66 7.40L-1.03 -3.83L-11.36 -7.07L-19.00 0.92L-16.31 12.14L-5.98 15.39ZM32.65 17.14L29.96 5.91L19.63 2.66L11.99 10.65L14.67 21.88L25.00 25.13ZM14.67 21.88L11.99 10.65L1.66 7.40L-5.98 15.39L-3.30 26.61L7.03 29.86ZM37.61 -2.07L34.93 -13.31L24.59 -16.56L16.95 -8.57L19.63 2.66L29.96 5.91ZM45.66 31.63L42.98 20.39L32.65 17.14L25.00 25.13L27.68 36.36L38.01 39.61ZM27.68 36.36L25.00 25.13L14.67 21.88L7.03 29.86L9.71 41.09L20.04 44.33ZM58.67 46.11L55.99 34.88L45.66 31.63L38.01 39.61L40.69 50.84L51.02 54.09ZM117.64 12.75L114.97 1.50L104.63 -1.76L96.96 6.22L99.64 17.46L109.97 20.72ZM99.64 17.46L96.96 6.22L86.62 2.96L78.96 10.94L81.64 22.18L91.97 25.44ZM122.64 -6.48L119.97 -17.73L109.62 -20.99L101.95 -13.01L104.63 -1.76L114.97 1.50ZM104.63 -1.76L101.95 -13.01L91.61 -16.27L83.94 -8.28L86.62 2.96L96.96 6.22ZM130.65 27.26L127.98 16.01L117.64 12.75L109.97 20.72L112.65 31.97L122.99 35.23ZM112.65 31.97L109.97 20.72L99.64 17.46L91.97 25.44L94.65 36.68L104.98 39.94ZM135.66 8.03L132.99 -3.22L122.64 -6.48L114.97 1.50L117.64 12.75L127.98 16.01ZM68.62 7.69L65.94 -3.55L55.60 -6.81L47.95 1.18L50.63 12.41L60.96 15.67ZM50.63 12.41L47.95 1.18L37.61 -2.07L29.96 5.91L32.65 17.14L42.98 20.39ZM55.60 -6.81L52.92 -18.05L42.58 -21.30L34.93 -13.31L37.61 -2.07L47.95 1.18ZM81.64 22.18L78.96 10.94L68.62 7.69L60.96 15.67L63.64 26.90L73.98 30.16ZM63.64 26.90L60.96 15.67L50.63 12.41L42.98 20.39L45.66 31.63L55.99 34.88ZM86.62 2.96L83.94 -8.28L73.60 -11.54L65.94 -3.55L68.62 7.69L78.96 10.94ZM138.66 60.98L135.99 49.74L125.66 46.47L117.99 54.44L120.66 65.68L131.00 68.95ZM120.66 65.68L117.99 54.44L107.66 51.18L99.99 59.15L102.67 70.39L113.00 73.65ZM143.66 41.77L141.00 30.52L130.65 27.26L122.99 35.23L125.66 46.47L135.99 49.74ZM125.66 46.47L122.99 35.23L112.65 31.97L104.98 39.94L107.66 51.18L117.99 54.44ZM151.67 75.49L149.00 64.25L138.66 60.98L131.00 68.95L133.66 80.19L144.00 83.46ZM156.67 56.28L154.01 45.04L143.66 41.77L135.99 49.74L138.66 60.98L149.00 64.25ZM89.66 55.89L86.99 44.65L76.65 41.39L69.00 49.37L71.68 60.60L82.01 63.86ZM94.65 36.68L91.97 25.44L81.64 22.18L73.98 30.16L76.65 41.39L86.99 44.65ZM76.65 41.39L73.98 30.16L63.64 26.90L55.99 34.88L58.67 46.11L69.00 49.37ZM102.67 70.39L99.99 59.15L89.66 55.89L82.01 63.86L84.68 75.09L95.01 78.35ZM84.68 75.09L82.01 63.86L71.68 60.60L64.02 68.57L66.70 79.80L77.03 83.06ZM107.66 51.18L104.98 39.94L94.65 36.68L86.99 44.65L89.66 55.89L99.99 59.15ZM166.69 17.84L164.03 6.59L153.68 3.32L146.00 11.30L148.67 22.55L159.01 25.82ZM148.67 22.55L146.00 11.30L135.66 8.03L127.98 16.01L130.65 27.26L141.00 30.52ZM171.71 -1.39L169.04 -12.64L158.69 -15.91L151.01 -7.93L153.68 3.32L164.03 6.59ZM153.68 3.32L151.01 -7.93L140.66 -11.20L132.99 -3.22L135.66 8.03L146.00 11.30ZM179.70 32.37L177.04 21.12L166.69 17.84L159.01 25.82L161.68 37.07L172.02 40.34ZM161.68 37.07L159.01 25.82L148.67 22.55L141.00 30.52L143.66 41.77L154.01 45.04ZM184.72 13.14L182.06 1.89L171.71 -1.39L164.03 6.59L166.69 17.84L177.04 21.12Z"/></svg>
