<svg xmlns="http://www.w3.org/2000/svg" width="256" height="256" viewBox="0 0 256 256"><path data-band="1" fill="#fde68a" fill-opacity="0.35" d="M3.34 270.87L0.81 258.78L-10.36 255.22L-19.01 263.76L-16.48 275.84L-5.30 279.40ZM9.46 250.24L6.93 238.15L-4.25 234.60L-12.89 243.13L-10.36 255.22L0.81 258.78ZM23.16 265.90L20.64 253.80L9.46 250.24L0.81 258.78L3.34 270.87L14.51 274.43ZM3.61 22.28L1.07 10.16L-10.14 6.61L-18.82 15.18L-16.28 27.31L-5.07 30.86ZM17.36 37.96L14.82 25.84L3.61 22.28L-5.07 30.86L-2.53 42.98L8.68 46.53ZM24.96 74.33L22.42 62.21L11.21 58.65L2.54 67.22L5.08 79.34L16.28 82.89ZM5.08 79.34L2.54 67.22L-8.67 63.67L-17.33 72.24L-14.80 84.35L-3.59 87.90ZM31.10 53.64L28.57 41.52L17.36 37.96L8.68 46.53L11.21 58.65L22.42 62.21ZM11.21 58.65L8.68 46.53L-2.53 42.98L-11.20 51.55L-8.67 63.67L2.54 67.22ZM38.69 90.01L36.16 77.89L24.96 74.33L16.28 82.89L18.81 95.01L30.02 98.57ZM18.81 95.01L16.28 82.89L5.08 79.34L-3.59 87.90L-1.06 100.02L10.14 103.57ZM14.13 172.67L11.60 160.57L0.41 157.01L-8.25 165.56L-5.72 177.66L5.47 181.22ZM20.27 152.02L17.74 139.91L6.54 136.35L-2.12 144.90L0.41 157.01L11.60 160.57ZM0.41 157.01L-2.12 144.90L-13.32 141.35L-21.97 149.91L-19.44 162.01L-8.25 165.56ZM27.85 188.33L25.32 176.23L14.13 172.67L5.47 181.22L8.00 193.32L19.19 196.88ZM8.00 193.32L5.47 181.22L-5.72 177.66L-14.37 186.21L-11.84 198.31L-0.65 201.86ZM33.99 167.68L31.46 155.57L20.27 152.02L11.60 160.57L14.13 172.67L25.32 176.23ZM46.28 126.36L43.75 114.25L32.55 110.68L23.87 119.24L26.40 131.35L37.60 134.91ZM26.40 131.35L23.87 119.24L12.67 115.68L4.01 124.24L6.54 136.35L17.74 139.91ZM32.55 110.68L30.02 98.57L18.81 95.01L10.14 103.57L12.67 115.68L23.87 119.24ZM60.00 142.04L57.48 129.92L46.28 126.36L37.60 134.91L40.13 147.03L51.33 150.59ZM40.13 147.03L37.60 134.91L26.40 131.35L17.74 139.91L20.27 152.02L31.46 155.57ZM6.54 136.35L4.01 124.24L-7.19 120.69L-15.85 129.24L-13.32 141.35L-2.12 144.90ZM12.67 115.68L10.14 103.57L-1.06 100.02L-9.72 108.58L-7.19 120.69L4.01 124.24ZM35.43 224.64L32.90 212.54L21.72 208.98L13.06 217.52L15.59 229.61L26.77 233.18ZM15.59 229.61L13.06 217.52L1.88 213.96L-6.78 222.50L-4.25 234.60L6.93 238.15ZM41.56 204.00L39.04 191.90L27.85 188.33L19.19 196.88L21.72 208.98L32.90 212.54ZM21.72 208.98L19.19 196.88L8.00 193.32L-0.65 201.86L1.88 213.96L13.06 217.52ZM49.13 240.30L46.61 228.20L35.43 224.64L26.77 233.18L29.29 245.27L40.47 248.83ZM29.29 245.27L26.77 233.18L15.59 229.61L6.93 238.15L9.46 250.24L20.64 253.80ZM55.28 219.67L52.75 207.56L41.56 204.00L32.90 212.54L35.43 224.64L46.61 228.20ZM1.88 213.96L-0.65 201.86L-11.84 198.31L-20.49 206.85L-17.96 218.95L-6.78 222.50ZM67.57 178.38L65.05 166.27L53.85 162.70L45.18 171.25L47.71 183.35L58.90 186.92ZM47.71 183.35L45.18 171.25L33.99 167.68L25.32 176.23L27.85 188.33L39.04 191.90ZM53.85 162.70L51.33 150.59L40.13 147.03L31.46 155.57L33.99 167.68L45.18 171.25ZM81.28 194.06L78.77 181.95L67.57 178.38L58.90 186.92L61.42 199.03L72.61 202.59ZM61.42 199.03L58.90 186.92L47.71 183.35L39.04 191.90L41.56 204.00L52.75 207.56ZM87.44 173.41L84.92 161.29L73.72 157.72L65.05 166.27L67.57 178.38L78.77 181.95ZM62.84 255.97L60.32 243.87L49.13 240.30L40.47 248.83L43.00 260.93L54.18 264.50ZM43.00 260.93L40.47 248.83L29.29 245.27L20.64 253.80L23.16 265.90L34.34 269.46ZM76.54 271.64L74.02 259.54L62.84 255.97L54.18 264.50L56.70 276.59L67.87 280.16ZM68.98 235.34L66.46 223.24L55.28 219.67L46.61 228.20L49.13 240.30L60.32 243.87ZM75.13 214.70L72.61 202.59L61.42 199.03L52.75 207.56L55.28 219.67L66.46 223.24ZM82.69 251.01L80.17 238.91L68.98 235.34L60.32 243.87L62.84 255.97L74.02 259.54Z"/></svg>
