<svg xmlns="http://www.w3.org/2000/svg" width="256" height="256" viewBox="0 0 256 256"><path data-band="1" fill="#fde68a" fill-opacity="0.35" d="M1.61 205.90L-0.91 193.83L-12.05 190.27L-20.67 198.78L-18.15 210.83L-7.01 214.39ZM3.34 14.87L0.81 2.78L-10.36 -0.78L-19.01 7.76L-16.48 19.84L-5.30 23.40ZM9.46 -5.76L6.93 -17.85L-4.25 -21.40L-12.89 -12.87L-10.36 -0.78L0.81 2.78ZM17.04 30.52L14.51 18.43L3.34 14.87L-5.30 23.40L-2.78 35.48L8.39 39.04ZM23.16 9.90L20.64 -2.20L9.46 -5.76L0.81 2.78L3.34 14.87L14.51 18.43ZM6.26 128.55L3.74 116.48L-7.42 112.92L-16.05 121.44L-13.52 133.51L-2.37 137.07ZM12.37 107.97L9.85 95.89L-1.31 92.33L-9.94 100.85L-7.42 112.92L3.74 116.48ZM24.61 66.77L22.09 54.69L10.92 51.13L2.28 59.65L4.80 71.73L15.97 75.29ZM4.80 71.73L2.28 59.65L-8.89 56.09L-17.53 64.62L-15.00 76.70L-3.84 80.25ZM30.74 46.17L28.21 34.08L17.04 30.52L8.39 39.04L10.92 51.13L22.09 54.69ZM10.92 51.13L8.39 39.04L-2.78 35.48L-11.42 44.01L-8.89 56.09L2.28 59.65ZM38.30 82.42L35.78 70.34L24.61 66.77L15.97 75.29L18.49 87.37L29.65 90.94ZM18.49 87.37L15.97 75.29L4.80 71.73L-3.84 80.25L-1.31 92.33L9.85 95.89ZM44.43 61.82L41.91 49.73L30.74 46.17L22.09 54.69L24.61 66.77L35.78 70.34ZM56.24 268.40L53.73 256.34L42.59 252.77L33.96 261.26L36.48 273.31L47.61 276.89ZM62.36 247.86L59.85 235.80L48.70 232.22L40.07 240.71L42.59 252.77L53.73 256.34ZM42.59 252.77L40.07 240.71L28.93 237.14L20.31 245.63L22.83 257.69L33.96 261.26ZM76.01 263.50L73.50 251.44L62.36 247.86L53.73 256.34L56.24 268.40L67.38 271.98ZM3.07 262.61L0.56 250.56L-10.58 247.00L-19.19 255.49L-16.67 267.54L-5.54 271.10ZM9.17 242.07L6.65 230.01L-4.48 226.45L-13.10 234.94L-10.58 247.00L0.56 250.56ZM22.83 257.69L20.31 245.63L9.17 242.07L0.56 250.56L3.07 262.61L14.21 266.18ZM67.07 170.54L64.56 158.46L53.40 154.89L44.76 163.39L47.28 175.47L58.43 179.04ZM47.28 175.47L44.76 163.39L33.61 159.83L24.98 168.33L27.50 180.40L38.64 183.96ZM73.20 149.96L70.69 137.88L59.53 134.31L50.89 142.82L53.40 154.89L64.56 158.46ZM53.40 154.89L50.89 142.82L39.73 139.25L31.09 147.75L33.61 159.83L44.76 163.39ZM80.74 186.19L78.23 174.11L67.07 170.54L58.43 179.04L60.95 191.11L72.10 194.68ZM60.95 191.11L58.43 179.04L47.28 175.47L38.64 183.96L41.16 196.03L52.31 199.60ZM86.87 165.61L84.36 153.54L73.20 149.96L64.56 158.46L67.07 170.54L78.23 174.11ZM13.83 164.76L11.31 152.70L0.15 149.13L-8.47 157.64L-5.95 169.71L5.20 173.27ZM19.94 144.19L17.42 132.12L6.26 128.55L-2.37 137.07L0.15 149.13L11.31 152.70ZM0.15 149.13L-2.37 137.07L-13.52 133.51L-22.15 142.02L-19.62 154.08L-8.47 157.64ZM27.50 180.40L24.98 168.33L13.83 164.76L5.20 173.27L7.72 185.33L18.87 188.90ZM7.72 185.33L5.20 173.27L-5.95 169.71L-14.57 178.21L-12.05 190.27L-0.91 193.83ZM33.61 159.83L31.09 147.75L19.94 144.19L11.31 152.70L13.83 164.76L24.98 168.33ZM99.16 124.45L96.65 112.37L85.48 108.79L76.83 117.30L79.34 129.38L90.50 132.96ZM79.34 129.38L76.83 117.30L65.66 113.72L57.02 122.23L59.53 134.31L70.69 137.88ZM105.30 103.86L102.79 91.77L91.62 88.19L82.97 96.70L85.48 108.79L96.65 112.37ZM85.48 108.79L82.97 96.70L71.80 93.13L63.15 101.64L65.66 113.72L76.83 117.30ZM112.83 140.12L110.32 128.03L99.16 124.45L90.50 132.96L93.01 145.04L104.17 148.62ZM93.01 145.04L90.50 132.96L79.34 129.38L70.69 137.88L73.20 149.96L84.36 153.54ZM45.85 118.66L43.34 106.58L32.17 103.02L23.53 111.53L26.05 123.61L37.21 127.17ZM26.05 123.61L23.53 111.53L12.37 107.97L3.74 116.48L6.26 128.55L17.42 132.12ZM51.98 98.07L49.46 85.99L38.30 82.42L29.65 90.94L32.17 103.02L43.34 106.58ZM32.17 103.02L29.65 90.94L18.49 87.37L9.85 95.89L12.37 107.97L23.53 111.53ZM59.53 134.31L57.02 122.23L45.85 118.66L37.21 127.17L39.73 139.25L50.89 142.82ZM39.73 139.25L37.21 127.17L26.05 123.61L17.42 132.12L19.94 144.19L31.09 147.75ZM65.66 113.72L63.15 101.64L51.98 98.07L43.34 106.58L45.85 118.66L57.02 122.23ZM88.26 222.40L85.76 210.33L74.61 206.75L65.97 215.24L68.48 227.31L79.63 230.88ZM68.48 227.31L65.97 215.24L54.82 211.67L46.19 220.16L48.70 232.22L59.85 235.80ZM94.40 201.84L91.89 189.76L80.74 186.19L72.10 194.68L74.61 206.75L85.76 210.33ZM74.61 206.75L72.10 194.68L60.95 191.11L52.31 199.60L54.82 211.67L65.97 215.24ZM82.13 242.95L79.63 230.88L68.48 227.31L59.85 235.80L62.36 247.86L73.50 251.44ZM35.05 216.59L32.53 204.53L21.38 200.96L12.76 209.46L15.28 221.52L26.42 225.08ZM15.28 221.52L12.76 209.46L1.61 205.90L-7.01 214.39L-4.48 226.45L6.65 230.01ZM41.16 196.03L38.64 183.96L27.50 180.40L18.87 188.90L21.38 200.96L32.53 204.53ZM21.38 200.96L18.87 188.90L7.72 185.33L-0.91 193.83L1.61 205.90L12.76 209.46ZM48.70 232.22L46.19 220.16L35.05 216.59L26.42 225.08L28.93 237.14L40.07 240.71ZM28.93 237.14L26.42 225.08L15.28 221.52L6.65 230.01L9.17 242.07L20.31 245.63ZM54.82 211.67L52.31 199.60L41.16 196.03L32.53 204.53L35.05 216.59L46.19 220.16ZM100.54 181.27L98.03 169.19L86.87 165.61L78.23 174.11L80.74 186.19L91.89 189.76ZM106.68 160.70L104.17 148.62L93.01 145.04L84.36 153.54L86.87 165.61L98.03 169.19ZM90.23 31.31L87.72 19.21L76.54 15.64L67.87 24.16L70.39 36.26L81.57 39.83ZM103.92 46.98L101.41 34.88L90.23 31.31L81.57 39.83L84.08 51.92L95.26 55.50ZM56.70 20.59L54.18 8.50L43.00 4.93L34.34 13.46L36.86 25.55L48.04 29.12ZM36.86 25.55L34.34 13.46L23.16 9.90L14.51 18.43L17.04 30.52L28.21 34.08ZM62.84 -0.03L60.32 -12.13L49.13 -15.70L40.47 -7.17L43.00 4.93L54.18 8.50ZM43.00 4.93L40.47 -7.17L29.29 -10.73L20.64 -2.20L23.16 9.90L34.34 13.46ZM70.39 36.26L67.87 24.16L56.70 20.59L48.04 29.12L50.56 41.21L61.73 44.78ZM50.56 41.21L48.04 29.12L36.86 25.55L28.21 34.08L30.74 46.17L41.91 49.73ZM76.54 15.64L74.02 3.54L62.84 -0.03L54.18 8.50L56.70 20.59L67.87 24.16ZM82.69 -4.99L80.17 -17.09L68.98 -20.66L60.32 -12.13L62.84 -0.03L74.02 3.54ZM111.46 83.26L108.95 71.17L97.77 67.59L89.11 76.10L91.62 88.19L102.79 91.77ZM77.94 72.53L75.42 60.44L64.25 56.87L55.60 65.39L58.11 77.47L69.28 81.04ZM58.11 77.47L55.60 65.39L44.43 61.82L35.78 70.34L38.30 82.42L49.46 85.99ZM84.08 51.92L81.57 39.83L70.39 36.26L61.73 44.78L64.25 56.87L75.42 60.44ZM64.25 56.87L61.73 44.78L50.56 41.21L41.91 49.73L44.43 61.82L55.60 65.39ZM91.62 88.19L89.11 76.10L77.94 72.53L69.28 81.04L71.80 93.13L82.97 96.70ZM71.80 93.13L69.28 81.04L58.11 77.47L49.46 85.99L51.98 98.07L63.15 101.64ZM97.77 67.59L95.26 55.50L84.08 51.92L75.42 60.44L77.94 72.53L89.11 76.10Z"/></svg>
