<svg xmlns="http://www.w3.org/2000/svg" width="256" height="256" viewBox="0 0 256 256"><path data-band="1" fill="#fde68a" fill-opacity="0.35" d="M1.36 196.99L-1.16 184.97L-12.26 181.40L-20.85 189.86L-18.33 201.88L-7.23 205.44ZM13.52 156.02L11.01 143.99L-0.10 140.42L-8.70 148.88L-6.18 160.91L4.93 164.48ZM19.61 135.52L17.10 123.49L5.99 119.92L-2.62 128.39L-0.10 140.42L11.01 143.99ZM27.14 171.62L24.63 159.59L13.52 156.02L4.93 164.48L7.44 176.51L18.54 180.08ZM7.44 176.51L4.93 164.48L-6.18 160.91L-14.78 169.37L-12.26 181.40L-1.16 184.97ZM33.24 151.13L30.73 139.09L19.61 135.52L11.01 143.99L13.52 156.02L24.63 159.59ZM2.81 253.52L0.30 241.50L-10.80 237.93L-19.38 246.38L-16.86 258.40L-5.77 261.96ZM8.89 233.05L6.38 221.03L-4.72 217.47L-13.31 225.92L-10.80 237.93L0.30 241.50ZM34.67 207.70L32.16 195.68L21.05 192.10L12.46 200.56L14.97 212.58L26.07 216.15ZM14.97 212.58L12.46 200.56L1.36 196.99L-7.23 205.44L-4.72 217.47L6.38 221.03ZM21.05 192.10L18.54 180.08L7.44 176.51L-1.16 184.97L1.36 196.99L12.46 200.56ZM28.58 228.18L26.07 216.15L14.97 212.58L6.38 221.03L8.89 233.05L19.98 236.62ZM24.27 58.38L21.75 46.33L10.63 42.76L2.01 51.24L4.53 63.29L15.66 66.85ZM4.53 63.29L2.01 51.24L-9.11 47.68L-17.72 56.16L-15.20 68.20L-4.08 71.77ZM30.37 37.85L27.86 25.80L16.72 22.23L8.11 30.71L10.63 42.76L21.75 46.33ZM10.63 42.76L8.11 30.71L-3.02 27.15L-11.63 35.63L-9.11 47.68L2.01 51.24ZM37.91 73.99L35.40 61.95L24.27 58.38L15.66 66.85L18.17 78.90L29.29 82.47ZM18.17 78.90L15.66 66.85L4.53 63.29L-4.08 71.77L-1.56 83.81L9.56 87.37ZM44.01 53.47L41.50 41.42L30.37 37.85L21.75 46.33L24.27 58.38L35.40 61.95ZM56.24 12.40L53.73 0.34L42.59 -3.23L33.96 5.26L36.48 17.31L47.61 20.89ZM36.48 17.31L33.96 5.26L22.83 1.69L14.21 10.18L16.72 22.23L27.86 25.80ZM62.36 -8.14L59.85 -20.20L48.70 -23.78L40.07 -15.29L42.59 -3.23L53.73 0.34ZM42.59 -3.23L40.07 -15.29L28.93 -18.86L20.31 -10.37L22.83 1.69L33.96 5.26ZM69.88 28.04L67.38 15.98L56.24 12.40L47.61 20.89L50.12 32.94L61.26 36.51ZM50.12 32.94L47.61 20.89L36.48 17.31L27.86 25.80L30.37 37.85L41.50 41.42ZM76.01 7.50L73.50 -4.56L62.36 -8.14L53.73 0.34L56.24 12.40L67.38 15.98ZM3.07 6.61L0.56 -5.44L-10.58 -9.00L-19.19 -0.51L-16.67 11.54L-5.54 15.10ZM16.72 22.23L14.21 10.18L3.07 6.61L-5.54 15.10L-3.02 27.15L8.11 30.71ZM22.83 1.69L20.31 -10.37L9.17 -13.93L0.56 -5.44L3.07 6.61L14.21 10.18ZM45.44 110.12L42.93 98.08L31.80 94.51L23.20 102.98L25.71 115.02L36.83 118.59ZM25.71 115.02L23.20 102.98L12.08 99.41L3.47 107.88L5.99 119.92L17.10 123.49ZM51.54 89.61L49.03 77.57L37.91 73.99L29.29 82.47L31.80 94.51L42.93 98.08ZM31.80 94.51L29.29 82.47L18.17 78.90L9.56 87.37L12.08 99.41L23.20 102.98ZM59.06 125.74L56.56 113.70L45.44 110.12L36.83 118.59L39.33 130.63L50.45 134.21ZM39.33 130.63L36.83 118.59L25.71 115.02L17.10 123.49L19.61 135.52L30.73 139.09ZM5.99 119.92L3.47 107.88L-7.65 104.32L-16.25 112.79L-13.73 124.82L-2.62 128.39ZM12.08 99.41L9.56 87.37L-1.56 83.81L-10.16 92.28L-7.65 104.32L3.47 107.88ZM77.41 64.20L74.90 52.15L63.77 48.57L55.14 57.04L57.65 69.09L68.78 72.67ZM57.65 69.09L55.14 57.04L44.01 53.47L35.40 61.95L37.91 73.99L49.03 77.57ZM83.53 43.67L81.02 31.61L69.88 28.04L61.26 36.51L63.77 48.57L74.90 52.15ZM63.77 48.57L61.26 36.51L50.12 32.94L41.50 41.42L44.01 53.47L55.14 57.04ZM46.86 166.74L44.35 154.70L33.24 151.13L24.63 159.59L27.14 171.62L38.25 175.19ZM52.96 146.24L50.45 134.21L39.33 130.63L30.73 139.09L33.24 151.13L44.35 154.70Z"/></svg>
