<svg xmlns="http://www.w3.org/2000/svg" width="256" height="256" viewBox="0 0 256 256"><path data-band="1" fill="#fde68a" fill-opacity="0.35" d="M143.43 265.13L140.53 253.49L129.76 250.47L121.89 259.11L124.80 270.75L135.57 273.76ZM167.06 239.23L164.16 227.58L153.38 224.57L145.50 233.20L148.40 244.85L159.18 247.87ZM148.40 244.85L145.50 233.20L134.72 230.19L126.85 238.83L129.76 250.47L140.53 253.49ZM162.08 259.52L159.18 247.87L148.40 244.85L140.53 253.49L143.43 265.13L154.21 268.14ZM92.49 261.73L89.58 250.09L78.81 247.09L70.96 255.72L73.87 267.36L84.63 270.36ZM73.87 267.36L70.96 255.72L60.19 252.73L52.34 261.36L55.26 272.99L66.02 275.99ZM134.72 230.19L131.82 218.55L121.04 215.54L113.17 224.18L116.08 235.82L126.85 238.83Z"/></svg>
