<svg xmlns="http://www.w3.org/2000/svg" width="256" height="256" viewBox="0 0 256 256"><path data-band="1" fill="#fde68a" fill-opacity="0.35" d="M126.13 220.56L123.24 208.95L112.50 205.93L104.66 214.53L107.56 226.14L118.29 229.15ZM107.56 226.14L104.66 214.53L93.93 211.52L86.09 220.11L88.99 231.71L99.73 234.73ZM131.08 200.36L128.18 188.74L117.44 185.72L109.60 194.32L112.50 205.93L123.24 208.95ZM112.50 205.93L109.60 194.32L98.86 191.31L91.03 199.91L93.93 211.52L104.66 214.53ZM139.77 235.19L136.87 223.58L126.13 220.56L118.29 229.15L121.19 240.76L131.92 243.78ZM121.19 240.76L118.29 229.15L107.56 226.14L99.73 234.73L102.62 246.33L113.35 249.35ZM144.72 214.99L141.82 203.38L131.08 200.36L123.24 208.95L126.13 220.56L136.87 223.58ZM75.36 217.10L72.46 205.49L61.73 202.49L53.90 211.09L56.81 222.69L67.53 225.69ZM56.81 222.69L53.90 211.09L43.17 208.08L35.35 216.68L38.26 228.28L48.98 231.28ZM80.29 196.90L77.39 185.29L66.65 182.28L58.82 190.88L61.73 202.49L72.46 205.49ZM61.73 202.49L58.82 190.88L48.09 187.88L40.26 196.48L43.17 208.08L53.90 211.09ZM88.99 231.71L86.09 220.11L75.36 217.10L67.53 225.69L70.44 237.30L81.17 240.31ZM70.44 237.30L67.53 225.69L56.81 222.69L48.98 231.28L51.89 242.88L62.61 245.89ZM93.93 211.52L91.03 199.91L80.29 196.90L72.46 205.49L75.36 217.10L86.09 220.11ZM154.63 174.56L151.73 162.94L140.99 159.92L133.14 168.52L136.03 180.14L146.78 183.16ZM136.03 180.14L133.14 168.52L122.39 165.51L114.54 174.11L117.44 185.72L128.18 188.74ZM159.59 154.34L156.70 142.71L145.94 139.69L138.09 148.30L140.99 159.92L151.73 162.94ZM140.99 159.92L138.09 148.30L127.34 145.28L119.49 153.89L122.39 165.51L133.14 168.52ZM168.27 189.21L165.38 177.59L154.63 174.56L146.78 183.16L149.67 194.78L160.42 197.80ZM149.67 194.78L146.78 183.16L136.03 180.14L128.18 188.74L131.08 200.36L141.82 203.38ZM173.24 168.99L170.34 157.36L159.59 154.34L151.73 162.94L154.63 174.56L165.38 177.59ZM85.22 176.69L82.32 165.07L71.58 162.07L63.75 170.67L66.65 182.28L77.39 185.29ZM117.44 185.72L114.54 174.11L103.80 171.10L95.96 179.70L98.86 191.31L109.60 194.32ZM98.86 191.31L95.96 179.70L85.22 176.69L77.39 185.29L80.29 196.90L91.03 199.91ZM122.39 165.51L119.49 153.89L108.74 150.87L100.90 159.48L103.80 171.10L114.54 174.11ZM148.44 270.02L145.55 258.41L134.82 255.39L126.98 263.97L129.87 275.58L140.60 278.60ZM153.39 249.83L150.50 238.22L139.77 235.19L131.92 243.78L134.82 255.39L145.55 258.41ZM134.82 255.39L131.92 243.78L121.19 240.76L113.35 249.35L116.25 260.95L126.98 263.97ZM167.02 264.46L164.13 252.85L153.39 249.83L145.55 258.41L148.44 270.02L159.17 273.04ZM97.69 266.52L94.79 254.92L84.07 251.91L76.24 260.49L79.14 272.09L89.86 275.11ZM102.62 246.33L99.73 234.73L88.99 231.71L81.17 240.31L84.07 251.91L94.79 254.92ZM84.07 251.91L81.17 240.31L70.44 237.30L62.61 245.89L65.52 257.48L76.24 260.49ZM116.25 260.95L113.35 249.35L102.62 246.33L94.79 254.92L97.69 266.52L108.42 269.54ZM176.94 224.07L174.05 212.45L163.31 209.42L155.46 218.01L158.35 229.63L169.09 232.65ZM158.35 229.63L155.46 218.01L144.72 214.99L136.87 223.58L139.77 235.19L150.50 238.22ZM181.91 203.86L179.02 192.24L168.27 189.21L160.42 197.80L163.31 209.42L174.05 212.45ZM163.31 209.42L160.42 197.80L149.67 194.78L141.82 203.38L144.72 214.99L155.46 218.01ZM190.57 238.71L187.68 227.09L176.94 224.07L169.09 232.65L171.98 244.27L182.72 247.30ZM171.98 244.27L169.09 232.65L158.35 229.63L150.50 238.22L153.39 249.83L164.13 252.85ZM195.54 218.51L192.65 206.89L181.91 203.86L174.05 212.45L176.94 224.07L187.68 227.09ZM14.82 254.06L11.91 242.47L1.19 239.47L-6.62 248.06L-3.71 259.65L7.01 262.65ZM29.53 193.48L26.63 181.88L15.89 178.88L8.08 187.48L10.99 199.08L21.72 202.08ZM38.26 228.28L35.35 216.68L24.63 213.68L16.81 222.28L19.72 233.87L30.44 236.87ZM43.17 208.08L40.26 196.48L29.53 193.48L21.72 202.08L24.63 213.68L35.35 216.68ZM46.97 263.07L44.07 251.47L33.35 248.47L25.53 257.06L28.44 268.65L39.16 271.65ZM51.89 242.88L48.98 231.28L38.26 228.28L30.44 236.87L33.35 248.47L44.07 251.47ZM33.35 248.47L30.44 236.87L19.72 233.87L11.91 242.47L14.82 254.06L25.53 257.06ZM65.52 257.48L62.61 245.89L51.89 242.88L44.07 251.47L46.97 263.07L57.70 266.07ZM204.20 253.36L201.31 241.74L190.57 238.71L182.72 247.30L185.61 258.91L196.34 261.94ZM185.61 258.91L182.72 247.30L171.98 244.27L164.13 252.85L167.02 264.46L177.75 267.49ZM160.83 78.97L157.94 67.33L147.17 64.32L139.31 72.93L142.21 84.57L152.97 87.59ZM142.21 84.57L139.31 72.93L128.55 69.92L120.69 78.54L123.59 90.17L134.35 93.18ZM165.81 58.71L162.91 47.07L152.14 44.06L144.27 52.68L147.17 64.32L157.94 67.33ZM147.17 64.32L144.27 52.68L133.51 49.66L125.64 58.29L128.55 69.92L139.31 72.93ZM155.87 99.22L152.97 87.59L142.21 84.57L134.35 93.18L137.25 104.81L148.01 107.83ZM179.47 73.37L176.57 61.73L165.81 58.71L157.94 67.33L160.83 78.97L171.60 81.99ZM109.93 75.53L107.03 63.90L96.27 60.89L88.42 69.51L91.32 81.14L102.08 84.15ZM91.32 81.14L88.42 69.51L77.66 66.51L69.81 75.13L72.72 86.76L83.47 89.76ZM114.88 55.28L111.98 43.64L101.21 40.63L93.36 49.26L96.27 60.89L107.03 63.90ZM96.27 60.89L93.36 49.26L82.60 46.26L74.75 54.88L77.66 66.51L88.42 69.51ZM123.59 90.17L120.69 78.54L109.93 75.53L102.08 84.15L104.98 95.77L115.74 98.79ZM104.98 95.77L102.08 84.15L91.32 81.14L83.47 89.76L86.38 101.38L97.13 104.39ZM128.55 69.92L125.64 58.29L114.88 55.28L107.03 63.90L109.93 75.53L120.69 78.54ZM170.78 38.45L167.88 26.81L157.11 23.79L149.24 32.42L152.14 44.06L162.91 47.07ZM138.47 29.40L135.57 17.76L124.80 14.75L116.93 23.38L119.84 35.02L130.60 38.03ZM119.84 35.02L116.93 23.38L106.16 20.37L98.31 29.00L101.21 40.63L111.98 43.64ZM143.43 9.13L140.53 -2.51L129.76 -5.53L121.89 3.11L124.80 14.75L135.57 17.76ZM124.80 14.75L121.89 3.11L111.12 0.10L103.26 8.73L106.16 20.37L116.93 23.38ZM152.14 44.06L149.24 32.42L138.47 29.40L130.60 38.03L133.51 49.66L144.27 52.68ZM133.51 49.66L130.60 38.03L119.84 35.02L111.98 43.64L114.88 55.28L125.64 58.29ZM157.11 23.79L154.21 12.14L143.43 9.13L135.57 17.76L138.47 29.40L149.24 32.42ZM183.18 128.53L180.28 116.89L169.52 113.87L161.66 122.48L164.56 134.11L175.31 137.13ZM164.56 134.11L161.66 122.48L150.90 119.46L143.05 128.07L145.94 139.69L156.70 142.71ZM188.15 108.29L185.26 96.65L174.49 93.63L166.63 102.24L169.52 113.87L180.28 116.89ZM169.52 113.87L166.63 102.24L155.87 99.22L148.01 107.83L150.90 119.46L161.66 122.48ZM196.83 143.19L193.93 131.55L183.18 128.53L175.31 137.13L178.20 148.76L188.96 151.79ZM178.20 148.76L175.31 137.13L164.56 134.11L156.70 142.71L159.59 154.34L170.34 157.36ZM201.80 122.95L198.91 111.31L188.15 108.29L180.28 116.89L183.18 128.53L193.93 131.55ZM132.29 125.05L129.39 113.43L118.64 110.41L110.79 119.02L113.69 130.65L124.44 133.66ZM113.69 130.65L110.79 119.02L100.04 116.01L92.19 124.63L95.10 136.24L105.84 139.26ZM137.25 104.81L134.35 93.18L123.59 90.17L115.74 98.79L118.64 110.41L129.39 113.43ZM118.64 110.41L115.74 98.79L104.98 95.77L97.13 104.39L100.04 116.01L110.79 119.02ZM145.94 139.69L143.05 128.07L132.29 125.05L124.44 133.66L127.34 145.28L138.09 148.30ZM127.34 145.28L124.44 133.66L113.69 130.65L105.84 139.26L108.74 150.87L119.49 153.89ZM150.90 119.46L148.01 107.83L137.25 104.81L129.39 113.43L132.29 125.05L143.05 128.07ZM206.79 102.70L203.90 91.06L193.13 88.04L185.26 96.65L188.15 108.29L198.91 111.31ZM162.08 3.52L159.18 -8.13L148.40 -11.15L140.53 -2.51L143.43 9.13L154.21 12.14ZM270.03 196.30L267.15 184.67L256.39 181.63L248.51 190.22L251.39 201.85L262.15 204.89ZM275.03 176.08L272.15 164.44L261.39 161.40L253.51 169.99L256.39 181.63L267.15 184.67ZM205.49 178.07L202.60 166.45L191.85 163.42L183.99 172.02L186.88 183.64L197.63 186.67ZM186.88 183.64L183.99 172.02L173.24 168.99L165.38 177.59L168.27 189.21L179.02 192.24ZM210.47 157.85L207.58 146.22L196.83 143.19L188.96 151.79L191.85 163.42L202.60 166.45ZM191.85 163.42L188.96 151.79L178.20 148.76L170.34 157.36L173.24 168.99L183.99 172.02ZM219.13 192.74L216.25 181.11L205.49 178.07L197.63 186.67L200.52 198.29L211.27 201.33ZM200.52 198.29L197.63 186.67L186.88 183.64L179.02 192.24L181.91 203.86L192.65 206.89ZM234.09 132.04L231.21 120.41L220.44 117.37L212.57 125.98L215.46 137.61L226.22 140.65ZM215.46 137.61L212.57 125.98L201.80 122.95L193.93 131.55L196.83 143.19L207.58 146.22ZM220.44 117.37L217.55 105.73L206.79 102.70L198.91 111.31L201.80 122.95L212.57 125.98ZM227.78 227.61L224.90 215.99L214.15 212.95L206.29 221.54L209.17 233.16L219.92 236.20ZM209.17 233.16L206.29 221.54L195.54 218.51L187.68 227.09L190.57 238.71L201.31 241.74ZM232.77 207.40L229.88 195.77L219.13 192.74L211.27 201.33L214.15 212.95L224.90 215.99ZM214.15 212.95L211.27 201.33L200.52 198.29L192.65 206.89L195.54 218.51L206.29 221.54ZM59.06 72.13L56.15 60.51L45.40 57.51L37.56 66.13L40.47 77.75L51.22 80.75ZM63.99 51.88L61.08 40.25L50.33 37.25L42.48 45.88L45.40 57.51L56.15 60.51ZM72.72 86.76L69.81 75.13L59.06 72.13L51.22 80.75L54.13 92.37L64.88 95.37ZM54.13 92.37L51.22 80.75L40.47 77.75L32.64 86.38L35.55 97.99L46.30 100.99ZM77.66 66.51L74.75 54.88L63.99 51.88L56.15 60.51L59.06 72.13L69.81 75.13ZM53.01 167.67L50.10 156.06L39.36 153.06L31.54 161.67L34.45 173.27L45.18 176.27ZM57.93 147.45L55.02 135.84L44.28 132.84L36.45 141.45L39.36 153.06L50.10 156.06ZM66.65 182.28L63.75 170.67L53.01 167.67L45.18 176.27L48.09 187.88L58.82 190.88ZM48.09 187.88L45.18 176.27L34.45 173.27L26.63 181.88L29.53 193.48L40.26 196.48ZM71.58 162.07L68.67 150.45L57.93 147.45L50.10 156.06L53.01 167.67L63.75 170.67ZM81.44 121.62L78.54 110.00L67.79 106.99L59.95 115.61L62.86 127.23L73.60 130.23ZM62.86 127.23L59.95 115.61L49.21 112.61L41.37 121.22L44.28 132.84L55.02 135.84ZM86.38 101.38L83.47 89.76L72.72 86.76L64.88 95.37L67.79 106.99L78.54 110.00ZM67.79 106.99L64.88 95.37L54.13 92.37L46.30 100.99L49.21 112.61L59.95 115.61ZM76.51 141.85L73.60 130.23L62.86 127.23L55.02 135.84L57.93 147.45L68.67 150.45ZM87.54 26.00L84.63 14.36L73.87 11.36L66.02 19.99L68.93 31.62L79.69 34.63ZM68.93 31.62L66.02 19.99L55.26 16.99L47.41 25.63L50.33 37.25L61.08 40.25ZM92.49 5.73L89.58 -5.91L78.81 -8.91L70.96 -0.28L73.87 11.36L84.63 14.36ZM73.87 11.36L70.96 -0.28L60.19 -3.27L52.34 5.36L55.26 16.99L66.02 19.99ZM101.21 40.63L98.31 29.00L87.54 26.00L79.69 34.63L82.60 46.26L93.36 49.26ZM82.60 46.26L79.69 34.63L68.93 31.62L61.08 40.25L63.99 51.88L74.75 54.88ZM106.16 20.37L103.26 8.73L92.49 5.73L84.63 14.36L87.54 26.00L98.31 29.00ZM55.26 16.99L52.34 5.36L41.58 2.37L33.74 11.00L36.65 22.63L47.41 25.63Z"/></svg>
