<svg xmlns="http://www.w3.org/2000/svg" width="256" height="256" viewBox="0 0 256 256"><path data-band="1" fill="#fde68a" fill-opacity="0.35" d="M91.60 105.81L88.70 94.22L77.99 91.20L70.18 99.77L73.08 111.36L83.78 114.37ZM73.08 111.36L70.18 99.77L59.47 96.76L51.66 105.33L54.56 116.91L65.27 119.92ZM96.52 85.65L93.63 74.06L82.91 71.04L75.09 79.62L77.99 91.20L88.70 94.22ZM77.99 91.20L75.09 79.62L64.38 76.61L56.57 85.18L59.47 96.76L70.18 99.77ZM105.20 120.41L102.31 108.83L91.60 105.81L83.78 114.37L86.68 125.96L97.38 128.97ZM86.68 125.96L83.78 114.37L73.08 111.36L65.27 119.92L68.16 131.50L78.87 134.52ZM110.13 100.26L107.24 88.67L96.52 85.65L88.70 94.22L91.60 105.81L102.31 108.83ZM40.96 102.32L38.06 90.74L27.35 87.74L19.55 96.31L22.45 107.89L33.15 110.89ZM22.45 107.89L19.55 96.31L8.85 93.31L1.05 101.88L3.96 113.45L14.66 116.46ZM45.86 82.17L42.96 70.59L32.25 67.58L24.45 76.16L27.35 87.74L38.06 90.74ZM27.35 87.74L24.45 76.16L13.74 73.15L5.94 81.73L8.85 93.31L19.55 96.31ZM54.56 116.91L51.66 105.33L40.96 102.32L33.15 110.89L36.06 122.47L46.76 125.48ZM36.06 122.47L33.15 110.89L22.45 107.89L14.66 116.46L17.56 128.03L28.26 131.04ZM59.47 96.76L56.57 85.18L45.86 82.17L38.06 90.74L40.96 102.32L51.66 105.33ZM119.99 59.93L117.10 48.33L106.38 45.32L98.55 53.89L101.45 65.49L112.17 68.51ZM101.45 65.49L98.55 53.89L87.83 50.88L80.01 59.45L82.91 71.04L93.63 74.06ZM124.93 39.76L122.04 28.16L111.31 25.14L103.48 33.72L106.38 45.32L117.10 48.33ZM106.38 45.32L103.48 33.72L92.76 30.70L84.94 39.28L87.83 50.88L98.55 53.89ZM133.61 74.55L130.72 62.95L119.99 59.93L112.17 68.51L115.06 80.10L125.78 83.12ZM115.06 80.10L112.17 68.51L101.45 65.49L93.63 74.06L96.52 85.65L107.24 88.67ZM138.55 54.38L135.66 42.78L124.93 39.76L117.10 48.33L119.99 59.93L130.72 62.95ZM69.30 56.44L66.40 44.85L55.68 41.84L47.87 50.42L50.77 62.01L61.48 65.02ZM50.77 62.01L47.87 50.42L37.16 47.42L29.35 56.00L32.25 67.58L42.96 70.59ZM74.22 36.27L71.32 24.68L60.60 21.67L52.78 30.25L55.68 41.84L66.40 44.85ZM55.68 41.84L52.78 30.25L42.06 27.24L34.25 35.83L37.16 47.42L47.87 50.42ZM82.91 71.04L80.01 59.45L69.30 56.44L61.48 65.02L64.38 76.61L75.09 79.62ZM64.38 76.61L61.48 65.02L50.77 62.01L42.96 70.59L45.86 82.17L56.57 85.18ZM87.83 50.88L84.94 39.28L74.22 36.27L66.40 44.85L69.30 56.44L80.01 59.45ZM118.80 135.02L115.91 123.43L105.20 120.41L97.38 128.97L100.28 140.56L110.98 143.58ZM100.28 140.56L97.38 128.97L86.68 125.96L78.87 134.52L81.76 146.10L92.46 149.12ZM63.25 151.64L60.36 140.07L49.66 137.05L41.85 145.62L44.75 157.19L55.45 160.20ZM44.75 157.19L41.85 145.62L31.16 142.61L23.36 151.17L26.26 162.74L36.96 165.75ZM68.16 131.50L65.27 119.92L54.56 116.91L46.76 125.48L49.66 137.05L60.36 140.07ZM49.66 137.05L46.76 125.48L36.06 122.47L28.26 131.04L31.16 142.61L41.85 145.62ZM76.85 166.23L73.95 154.66L63.25 151.64L55.45 160.20L58.35 171.77L69.04 174.79ZM58.35 171.77L55.45 160.20L44.75 157.19L36.96 165.75L39.85 177.32L50.55 180.33ZM81.76 146.10L78.87 134.52L68.16 131.50L60.36 140.07L63.25 151.64L73.95 154.66ZM142.27 109.33L139.38 97.74L128.67 94.71L120.84 103.28L123.73 114.87L134.45 117.89ZM123.73 114.87L120.84 103.28L110.13 100.26L102.31 108.83L105.20 120.41L115.91 123.43ZM147.22 89.17L144.33 77.58L133.61 74.55L125.78 83.12L128.67 94.71L139.38 97.74ZM128.67 94.71L125.78 83.12L115.06 80.10L107.24 88.67L110.13 100.26L120.84 103.28ZM137.33 129.48L134.45 117.89L123.73 114.87L115.91 123.43L118.80 135.02L129.51 138.04ZM160.82 103.80L157.94 92.20L147.22 89.17L139.38 97.74L142.27 109.33L152.99 112.36ZM3.96 113.45L1.05 101.88L-9.65 98.88L-17.44 107.45L-14.53 119.02L-3.84 122.02ZM8.85 93.31L5.94 81.73L-4.76 78.73L-12.56 87.31L-9.65 98.88L1.05 101.88ZM2.90 188.42L-0.01 176.85L-10.69 173.85L-18.48 182.41L-15.57 193.97L-4.89 196.97ZM12.67 148.17L9.76 136.60L-0.93 133.59L-8.72 142.16L-5.81 153.73L4.88 156.73ZM17.56 128.03L14.66 116.46L3.96 113.45L-3.84 122.02L-0.93 133.59L9.76 136.60ZM26.26 162.74L23.36 151.17L12.67 148.17L4.88 156.73L7.78 168.29L18.47 171.30ZM7.78 168.29L4.88 156.73L-5.81 153.73L-13.60 162.29L-10.69 173.85L-0.01 176.85ZM31.16 142.61L28.26 131.04L17.56 128.03L9.76 136.60L12.67 148.17L23.36 151.17ZM148.44 14.02L145.55 2.41L134.82 -0.61L126.98 7.97L129.87 19.58L140.60 22.60ZM129.87 19.58L126.98 7.97L116.25 4.95L108.42 13.54L111.31 25.14L122.04 28.16ZM153.39 -6.17L150.50 -17.78L139.77 -20.81L131.92 -12.22L134.82 -0.61L145.55 2.41ZM134.82 -0.61L131.92 -12.22L121.19 -15.24L113.35 -6.65L116.25 4.95L126.98 7.97ZM162.06 28.65L159.17 17.04L148.44 14.02L140.60 22.60L143.49 34.20L154.22 37.23ZM143.49 34.20L140.60 22.60L129.87 19.58L122.04 28.16L124.93 39.76L135.66 42.78ZM167.02 8.46L164.13 -3.15L153.39 -6.17L145.55 2.41L148.44 14.02L159.17 17.04ZM97.69 10.52L94.79 -1.08L84.07 -4.09L76.24 4.49L79.14 16.09L89.86 19.11ZM79.14 16.09L76.24 4.49L65.52 1.48L57.70 10.07L60.60 21.67L71.32 24.68ZM84.07 -4.09L81.17 -15.69L70.44 -18.70L62.61 -10.11L65.52 1.48L76.24 4.49ZM111.31 25.14L108.42 13.54L97.69 10.52L89.86 19.11L92.76 30.70L103.48 33.72ZM92.76 30.70L89.86 19.11L79.14 16.09L71.32 24.68L74.22 36.27L84.94 39.28ZM116.25 4.95L113.35 -6.65L102.62 -9.67L94.79 -1.08L97.69 10.52L108.42 13.54ZM14.82 -1.94L11.91 -13.53L1.19 -16.53L-6.62 -7.94L-3.71 3.65L7.01 6.65ZM32.25 67.58L29.35 56.00L18.64 52.99L10.83 61.57L13.74 73.15L24.45 76.16ZM46.97 7.07L44.07 -4.53L33.35 -7.53L25.53 1.06L28.44 12.65L39.16 15.65ZM33.35 -7.53L30.44 -19.13L19.72 -22.13L11.91 -13.53L14.82 -1.94L25.53 1.06ZM60.60 21.67L57.70 10.07L46.97 7.07L39.16 15.65L42.06 27.24L52.78 30.25ZM65.52 1.48L62.61 -10.11L51.89 -13.12L44.07 -4.53L46.97 7.07L57.70 10.07ZM215.22 162.32L212.34 150.73L201.62 147.69L193.78 156.24L196.66 167.83L207.38 170.87ZM196.66 167.83L193.78 156.24L183.07 153.20L175.24 161.75L178.12 173.34L188.83 176.38ZM220.18 142.17L217.31 130.58L206.58 127.53L198.74 136.09L201.62 147.69L212.34 150.73ZM201.62 147.69L198.74 136.09L188.03 133.05L180.19 141.61L183.07 153.20L193.78 156.24ZM228.81 176.96L225.93 165.37L215.22 162.32L207.38 170.87L210.25 182.46L220.97 185.51ZM210.25 182.46L207.38 170.87L196.66 167.83L188.83 176.38L191.71 187.97L202.42 191.01ZM233.78 156.82L230.90 145.22L220.18 142.17L212.34 150.73L215.22 162.32L225.93 165.37ZM183.07 153.20L180.19 141.61L169.47 138.58L161.64 147.13L164.53 158.72L175.24 161.75ZM208.96 257.47L206.09 245.89L195.39 242.84L187.56 251.38L190.44 262.95L201.13 266.00ZM213.92 237.35L211.04 225.77L200.34 222.72L192.51 231.26L195.39 242.84L206.09 245.89ZM227.49 251.98L224.62 240.40L213.92 237.35L206.09 245.89L208.96 257.47L219.66 260.51ZM237.42 211.73L234.55 200.14L223.84 197.10L216.00 205.64L218.88 217.23L229.59 220.27ZM242.40 191.60L239.52 180.01L228.81 176.96L220.97 185.51L223.84 197.10L234.55 200.14ZM223.84 197.10L220.97 185.51L210.25 182.46L202.42 191.01L205.29 202.60L216.00 205.64ZM251.01 226.37L248.14 214.78L237.42 211.73L229.59 220.27L232.46 231.86L243.17 234.91ZM232.46 231.86L229.59 220.27L218.88 217.23L211.04 225.77L213.92 237.35L224.62 240.40ZM255.98 206.24L253.11 194.65L242.40 191.60L234.55 200.14L237.42 211.73L248.14 214.78ZM11.60 223.09L8.70 211.54L-1.99 208.53L-9.77 217.08L-6.86 228.64L3.82 231.64ZM71.94 186.36L69.04 174.79L58.35 171.77L50.55 180.33L53.44 191.90L64.13 194.91ZM34.96 197.44L32.06 185.87L21.37 182.87L13.58 191.42L16.48 202.98L27.17 205.99ZM16.48 202.98L13.58 191.42L2.90 188.42L-4.89 196.97L-1.99 208.53L8.70 211.54ZM39.85 177.32L36.96 165.75L26.26 162.74L18.47 171.30L21.37 182.87L32.06 185.87ZM21.37 182.87L18.47 171.30L7.78 168.29L-0.01 176.85L2.90 188.42L13.58 191.42ZM53.44 191.90L50.55 180.33L39.85 177.32L32.06 185.87L34.96 197.44L45.65 200.45ZM221.49 67.04L218.61 55.43L207.88 52.39L200.03 60.96L202.91 72.57L213.64 75.60ZM202.91 72.57L200.03 60.96L189.30 57.92L181.45 66.50L184.34 78.10L195.06 81.13ZM226.47 46.86L223.59 35.24L212.85 32.20L205.00 40.78L207.88 52.39L218.61 55.43ZM235.10 81.69L232.22 70.08L221.49 67.04L213.64 75.60L216.52 87.21L227.25 90.25ZM216.52 87.21L213.64 75.60L202.91 72.57L195.06 81.13L197.94 92.74L208.67 95.77ZM240.08 61.51L237.20 49.90L226.47 46.86L218.61 55.43L221.49 67.04L232.22 70.08ZM152.16 69.01L149.27 57.41L138.55 54.38L130.72 62.95L133.61 74.55L144.33 77.58ZM175.68 43.29L172.80 31.68L162.06 28.65L154.22 37.23L157.11 48.83L167.84 51.86ZM157.11 48.83L154.22 37.23L143.49 34.20L135.66 42.78L138.55 54.38L149.27 57.41ZM184.34 78.10L181.45 66.50L170.73 63.46L162.89 72.03L165.77 83.63L176.50 86.66ZM165.77 83.63L162.89 72.03L152.16 69.01L144.33 77.58L147.22 89.17L157.94 92.20ZM263.67 35.80L260.79 24.18L250.05 21.14L242.19 29.71L245.06 41.33L255.80 44.37ZM245.06 41.33L242.19 29.71L231.44 26.67L223.59 35.24L226.47 46.86L237.20 49.90ZM268.66 15.61L265.79 3.98L255.04 0.94L247.17 9.52L250.05 21.14L260.79 24.18ZM199.23 17.56L196.34 5.94L185.61 2.91L177.75 11.49L180.64 23.10L191.38 26.13ZM180.64 23.10L177.75 11.49L167.02 8.46L159.17 17.04L162.06 28.65L172.80 31.68ZM204.20 -2.64L201.31 -14.26L190.57 -17.29L182.72 -8.70L185.61 2.91L196.34 5.94ZM185.61 2.91L182.72 -8.70L171.98 -11.73L164.13 -3.15L167.02 8.46L177.75 11.49ZM243.73 116.51L240.85 104.90L230.12 101.86L222.28 110.42L225.15 122.02L235.88 125.06ZM225.15 122.02L222.28 110.42L211.55 107.38L203.71 115.94L206.58 127.53L217.31 130.58ZM248.71 96.34L245.83 84.73L235.10 81.69L227.25 90.25L230.12 101.86L240.85 104.90ZM230.12 101.86L227.25 90.25L216.52 87.21L208.67 95.77L211.55 107.38L222.28 110.42ZM257.33 131.16L254.46 119.55L243.73 116.51L235.88 125.06L238.75 136.66L249.48 139.71ZM238.75 136.66L235.88 125.06L225.15 122.02L217.31 130.58L220.18 142.17L230.90 145.22ZM262.31 111.00L259.44 99.39L248.71 96.34L240.85 104.90L243.73 116.51L254.46 119.55ZM192.98 112.90L190.10 101.30L179.38 98.26L171.54 106.83L174.42 118.42L185.14 121.46ZM174.42 118.42L171.54 106.83L160.82 103.80L152.99 112.36L155.88 123.95L166.59 126.98ZM197.94 92.74L195.06 81.13L184.34 78.10L176.50 86.66L179.38 98.26L190.10 101.30ZM179.38 98.26L176.50 86.66L165.77 83.63L157.94 92.20L160.82 103.80L171.54 106.83ZM206.58 127.53L203.71 115.94L192.98 112.90L185.14 121.46L188.03 133.05L198.74 136.09ZM188.03 133.05L185.14 121.46L174.42 118.42L166.59 126.98L169.47 138.58L180.19 141.61ZM211.55 107.38L208.67 95.77L197.94 92.74L190.10 101.30L192.98 112.90L203.71 115.94ZM272.29 70.65L269.42 59.04L258.68 55.99L250.82 64.56L253.69 76.17L264.43 79.22ZM253.69 76.17L250.82 64.56L240.08 61.51L232.22 70.08L235.10 81.69L245.83 84.73ZM277.29 50.47L274.41 38.85L263.67 35.80L255.80 44.37L258.68 55.99L269.42 59.04ZM258.68 55.99L255.80 44.37L245.06 41.33L237.20 49.90L240.08 61.51L250.82 64.56ZM267.30 90.83L264.43 79.22L253.69 76.17L245.83 84.73L248.71 96.34L259.44 99.39ZM259.61 261.14L256.74 249.55L246.03 246.50L238.20 255.03L241.07 266.61L251.77 269.66ZM241.07 266.61L238.20 255.03L227.49 251.98L219.66 260.51L222.53 272.09L233.23 275.14ZM264.58 241.02L261.72 229.43L251.01 226.37L243.17 234.91L246.03 246.50L256.74 249.55ZM246.03 246.50L243.17 234.91L232.46 231.86L224.62 240.40L227.49 251.98L238.20 255.03ZM265.94 165.96L263.07 154.36L252.35 151.31L244.50 159.86L247.37 171.46L258.09 174.51ZM247.37 171.46L244.50 159.86L233.78 156.82L225.93 165.37L228.81 176.96L239.52 180.01ZM270.93 145.81L268.06 134.21L257.33 131.16L249.48 139.71L252.35 151.31L263.07 154.36ZM252.35 151.31L249.48 139.71L238.75 136.66L230.90 145.22L233.78 156.82L244.50 159.86ZM260.96 186.11L258.09 174.51L247.37 171.46L239.52 180.01L242.40 191.60L253.11 194.65ZM275.91 125.65L273.04 114.05L262.31 111.00L254.46 119.55L257.33 131.16L268.06 134.21ZM269.56 220.89L266.70 209.30L255.98 206.24L248.14 214.78L251.01 226.37L261.72 229.43ZM274.55 200.76L271.68 189.16L260.96 186.11L253.11 194.65L255.98 206.24L266.70 209.30Z"/><path data-band="2" fill="#f97316" fill-opacity="0.35" d="M113.87 155.16L110.98 143.58L100.28 140.56L92.46 149.12L95.35 160.70L106.06 163.72ZM95.35 160.70L92.46 149.12L81.76 146.10L73.95 154.66L76.85 166.23L87.55 169.25ZM127.47 169.77L124.58 158.19L113.87 155.16L106.06 163.72L108.95 175.30L119.65 178.32ZM108.95 175.30L106.06 163.72L95.35 160.70L87.55 169.25L90.44 180.83L101.14 183.85ZM132.40 149.63L129.51 138.04L118.80 135.02L110.98 143.58L113.87 155.16L124.58 158.19ZM155.88 123.95L152.99 112.36L142.27 109.33L134.45 117.89L137.33 129.48L148.05 132.51ZM186.76 208.10L183.88 196.51L173.17 193.48L165.35 202.02L168.23 213.60L178.93 216.64ZM168.23 213.60L165.35 202.02L154.64 198.99L146.82 207.54L149.70 219.11L160.40 222.15ZM191.71 187.97L188.83 176.38L178.12 173.34L170.29 181.89L173.17 193.48L183.88 196.51ZM173.17 193.48L170.29 181.89L159.58 178.86L151.76 187.41L154.64 198.99L165.35 202.02ZM200.34 222.72L197.46 211.14L186.76 208.10L178.93 216.64L181.81 228.22L192.51 231.26ZM181.81 228.22L178.93 216.64L168.23 213.60L160.40 222.15L163.28 233.72L173.98 236.76ZM205.29 202.60L202.42 191.01L191.71 187.97L183.88 196.51L186.76 208.10L197.46 211.14ZM136.12 204.50L133.24 192.93L122.54 189.90L114.72 198.45L117.61 210.02L128.31 213.05ZM117.61 210.02L114.72 198.45L104.02 195.42L96.22 203.97L99.11 215.54L109.80 218.57ZM141.06 184.38L138.17 172.80L127.47 169.77L119.65 178.32L122.54 189.90L133.24 192.93ZM122.54 189.90L119.65 178.32L108.95 175.30L101.14 183.85L104.02 195.42L114.72 198.45ZM149.70 219.11L146.82 207.54L136.12 204.50L128.31 213.05L131.19 224.62L141.89 227.66ZM131.19 224.62L128.31 213.05L117.61 210.02L109.80 218.57L112.69 230.14L123.38 233.17ZM154.64 198.99L151.76 187.41L141.06 184.38L133.24 192.93L136.12 204.50L146.82 207.54ZM164.53 158.72L161.64 147.13L150.93 144.10L143.11 152.66L145.99 164.24L156.70 167.27ZM145.99 164.24L143.11 152.66L132.40 149.63L124.58 158.19L127.47 169.77L138.17 172.80ZM169.47 138.58L166.59 126.98L155.88 123.95L148.05 132.51L150.93 144.10L161.64 147.13ZM150.93 144.10L148.05 132.51L137.33 129.48L129.51 138.04L132.40 149.63L143.11 152.66ZM178.12 173.34L175.24 161.75L164.53 158.72L156.70 167.27L159.58 178.86L170.29 181.89ZM159.58 178.86L156.70 167.27L145.99 164.24L138.17 172.80L141.06 184.38L151.76 187.41ZM190.44 262.95L187.56 251.38L176.86 248.34L169.04 256.87L171.92 268.45L182.61 271.49ZM195.39 242.84L192.51 231.26L181.81 228.22L173.98 236.76L176.86 248.34L187.56 251.38ZM158.35 253.84L155.47 242.26L144.77 239.23L136.96 247.77L139.84 259.34L150.53 262.37ZM139.84 259.34L136.96 247.77L126.27 244.74L118.46 253.28L121.34 264.84L132.03 267.87ZM163.28 233.72L160.40 222.15L149.70 219.11L141.89 227.66L144.77 239.23L155.47 242.26ZM144.77 239.23L141.89 227.66L131.19 224.62L123.38 233.17L126.27 244.74L136.96 247.77ZM171.92 268.45L169.04 256.87L158.35 253.84L150.53 262.37L153.41 273.94L164.10 276.98ZM176.86 248.34L173.98 236.76L163.28 233.72L155.47 242.26L158.35 253.84L169.04 256.87ZM218.88 217.23L216.00 205.64L205.29 202.60L197.46 211.14L200.34 222.72L211.04 225.77ZM57.22 246.70L54.33 235.14L43.65 232.13L35.86 240.67L38.75 252.23L49.43 255.25ZM38.75 252.23L35.86 240.67L25.18 237.66L17.39 246.21L20.29 257.76L30.97 260.77ZM62.12 226.60L59.23 215.03L48.54 212.02L40.75 220.57L43.65 232.13L54.33 235.14ZM43.65 232.13L40.75 220.57L30.07 217.55L22.28 226.10L25.18 237.66L35.86 240.67ZM70.80 261.28L67.91 249.72L57.22 246.70L49.43 255.25L52.33 266.80L63.01 269.82ZM52.33 266.80L49.43 255.25L38.75 252.23L30.97 260.77L33.86 272.33L44.54 275.34ZM75.70 241.18L72.81 229.61L62.12 226.60L54.33 235.14L57.22 246.70L67.91 249.72ZM6.71 243.20L3.82 231.64L-6.86 228.64L-14.64 237.19L-11.74 248.74L-1.06 251.74ZM20.29 257.76L17.39 246.21L6.71 243.20L-1.06 251.74L1.84 263.29L12.51 266.30ZM1.84 263.29L-1.06 251.74L-11.74 248.74L-19.51 257.28L-16.61 268.83L-5.94 271.84ZM25.18 237.66L22.28 226.10L11.60 223.09L3.82 231.64L6.71 243.20L17.39 246.21ZM85.52 200.95L82.63 189.38L71.94 186.36L64.13 194.91L67.03 206.48L77.72 209.50ZM67.03 206.48L64.13 194.91L53.44 191.90L45.65 200.45L48.54 212.02L59.23 215.03ZM90.44 180.83L87.55 169.25L76.85 166.23L69.04 174.79L71.94 186.36L82.63 189.38ZM99.11 215.54L96.22 203.97L85.52 200.95L77.72 209.50L80.61 221.07L91.30 224.09ZM80.61 221.07L77.72 209.50L67.03 206.48L59.23 215.03L62.12 226.60L72.81 229.61ZM104.02 195.42L101.14 183.85L90.44 180.83L82.63 189.38L85.52 200.95L96.22 203.97ZM48.54 212.02L45.65 200.45L34.96 197.44L27.17 205.99L30.07 217.55L40.75 220.57ZM30.07 217.55L27.17 205.99L16.48 202.98L8.70 211.54L11.60 223.09L22.28 226.10ZM107.77 250.25L104.88 238.68L94.19 235.66L86.39 244.20L89.28 255.76L99.97 258.79ZM89.28 255.76L86.39 244.20L75.70 241.18L67.91 249.72L70.80 261.28L81.48 264.30ZM112.69 230.14L109.80 218.57L99.11 215.54L91.30 224.09L94.19 235.66L104.88 238.68ZM94.19 235.66L91.30 224.09L80.61 221.07L72.81 229.61L75.70 241.18L86.39 244.20ZM121.34 264.84L118.46 253.28L107.77 250.25L99.97 258.79L102.85 270.35L113.54 273.38ZM102.85 270.35L99.97 258.79L89.28 255.76L81.48 264.30L84.37 275.86L95.05 278.89ZM126.27 244.74L123.38 233.17L112.69 230.14L104.88 238.68L107.77 250.25L118.46 253.28Z"/></svg>
