<svg xmlns="http://www.w3.org/2000/svg" width="256" height="256" viewBox="0 0 256 256"><path data-band="1" fill="#fde68a" fill-opacity="0.35" d="M208.96 1.47L206.09 -10.11L195.39 -13.16L187.56 -4.62L190.44 6.95L201.13 10.00ZM222.53 16.09L219.66 4.51L208.96 1.47L201.13 10.00L204.01 21.57L214.70 24.62ZM227.49 -4.02L224.62 -15.60L213.92 -18.65L206.09 -10.11L208.96 1.47L219.66 4.51ZM247.00 195.06L244.14 183.50L233.46 180.44L225.65 188.94L228.51 200.50L239.19 203.55ZM251.96 175.00L249.10 163.44L238.42 160.38L230.60 168.89L233.46 180.44L244.14 183.50ZM260.53 209.68L257.67 198.12L247.00 195.06L239.19 203.55L242.05 215.11L252.72 218.17ZM265.49 189.62L262.64 178.06L251.96 175.00L244.14 183.50L247.00 195.06L257.67 198.12ZM275.43 149.50L272.57 137.93L261.88 134.87L254.06 143.38L256.92 154.94L267.60 158.00ZM256.92 154.94L254.06 143.38L243.37 140.32L235.55 148.82L238.42 160.38L249.10 163.44ZM261.88 134.87L259.02 123.31L248.33 120.25L240.51 128.76L243.37 140.32L254.06 143.38ZM270.46 169.57L267.60 158.00L256.92 154.94L249.10 163.44L251.96 175.00L262.64 178.06ZM238.42 160.38L235.55 148.82L224.87 145.77L217.06 154.27L219.92 165.83L230.60 168.89ZM243.37 140.32L240.51 128.76L229.83 125.70L222.01 134.21L224.87 145.77L235.55 148.82ZM269.10 244.34L266.25 232.78L255.58 229.72L247.76 238.21L250.62 249.76L261.29 252.82ZM274.06 224.30L271.21 212.74L260.53 209.68L252.72 218.17L255.58 229.72L266.25 232.78ZM255.58 229.72L252.72 218.17L242.05 215.11L234.24 223.60L237.10 235.15L247.76 238.21ZM263.23 59.99L260.37 48.41L249.67 45.35L241.84 53.87L244.70 65.45L255.40 68.51ZM268.20 39.89L265.34 28.30L254.64 25.25L246.80 33.77L249.67 45.35L260.37 48.41ZM276.79 74.62L273.93 63.05L263.23 59.99L255.40 68.51L258.26 80.08L268.96 83.14ZM231.14 50.82L228.27 39.25L217.57 36.20L209.75 44.72L212.62 56.29L223.31 59.34ZM236.10 30.72L233.23 19.14L222.53 16.09L214.70 24.62L217.57 36.20L228.27 39.25ZM249.67 45.35L246.80 33.77L236.10 30.72L228.27 39.25L231.14 50.82L241.84 53.87ZM259.61 5.14L256.74 -6.45L246.03 -9.50L238.20 -0.97L241.07 10.61L251.77 13.66ZM241.07 10.61L238.20 -0.97L227.49 -4.02L219.66 4.51L222.53 16.09L233.23 19.14ZM273.18 19.78L270.32 8.19L259.61 5.14L251.77 13.66L254.64 25.25L265.34 28.30ZM254.64 25.25L251.77 13.66L241.07 10.61L233.23 19.14L236.10 30.72L246.80 33.77ZM253.29 100.17L250.43 88.60L239.74 85.54L231.92 94.06L234.78 105.62L245.47 108.68ZM258.26 80.08L255.40 68.51L244.70 65.45L236.87 73.97L239.74 85.54L250.43 88.60ZM266.85 114.80L263.99 103.23L253.29 100.17L245.47 108.68L248.33 120.25L259.02 123.31ZM271.82 94.71L268.96 83.14L258.26 80.08L250.43 88.60L253.29 100.17L263.99 103.23Z"/><path data-band="2" fill="#f97316" fill-opacity="0.35" d="M190.44 6.95L187.56 -4.62L176.86 -7.66L169.04 0.87L171.92 12.45L182.61 15.49ZM204.01 21.57L201.13 10.00L190.44 6.95L182.61 15.49L185.49 27.06L196.18 30.10ZM158.35 -2.16L155.47 -13.74L144.77 -16.77L136.96 -8.23L139.84 3.34L150.53 6.37ZM139.84 3.34L136.96 -8.23L126.27 -11.26L118.46 -2.72L121.34 8.84L132.03 11.87ZM171.92 12.45L169.04 0.87L158.35 -2.16L150.53 6.37L153.41 17.94L164.10 20.98ZM153.41 17.94L150.53 6.37L139.84 3.34L132.03 11.87L134.91 23.44L145.60 26.48ZM176.86 -7.66L173.98 -19.24L163.28 -22.28L155.47 -13.74L158.35 -2.16L169.04 0.87ZM38.75 -3.77L35.86 -15.33L25.18 -18.34L17.39 -9.79L20.29 1.76L30.97 4.77ZM70.80 5.28L67.91 -6.28L57.22 -9.30L49.43 -0.75L52.33 10.80L63.01 13.82ZM52.33 10.80L49.43 -0.75L38.75 -3.77L30.97 4.77L33.86 16.33L44.54 19.34ZM20.29 1.76L17.39 -9.79L6.71 -12.80L-1.06 -4.26L1.84 7.29L12.51 10.30ZM1.84 7.29L-1.06 -4.26L-11.74 -7.26L-19.51 1.28L-16.61 12.83L-5.94 15.84ZM79.46 39.96L76.58 28.40L65.90 25.38L58.11 33.91L61.00 45.47L71.68 48.49ZM61.00 45.47L58.11 33.91L47.43 30.90L39.65 39.43L42.54 50.98L53.21 54.00ZM84.37 19.86L81.48 8.30L70.80 5.28L63.01 13.82L65.90 25.38L76.58 28.40ZM65.90 25.38L63.01 13.82L52.33 10.80L44.54 19.34L47.43 30.90L58.11 33.91ZM93.03 54.54L90.14 42.98L79.46 39.96L71.68 48.49L74.56 60.04L85.24 63.07ZM74.56 60.04L71.68 48.49L61.00 45.47L53.21 54.00L56.10 65.55L66.78 68.57ZM97.94 34.45L95.05 22.89L84.37 19.86L76.58 28.40L79.46 39.96L90.14 42.98ZM28.98 36.42L26.08 24.87L15.41 21.85L7.63 30.39L10.53 41.94L21.20 44.95ZM10.53 41.94L7.63 30.39L-3.04 27.38L-10.81 35.92L-7.91 47.47L2.76 50.47ZM33.86 16.33L30.97 4.77L20.29 1.76L12.51 10.30L15.41 21.85L26.08 24.87ZM15.41 21.85L12.51 10.30L1.84 7.29L-5.94 15.84L-3.04 27.38L7.63 30.39ZM42.54 50.98L39.65 39.43L28.98 36.42L21.20 44.95L24.09 56.50L34.76 59.51ZM24.09 56.50L21.20 44.95L10.53 41.94L2.76 50.47L5.65 62.02L16.32 65.03ZM47.43 30.90L44.54 19.34L33.86 16.33L26.08 24.87L28.98 36.42L39.65 39.43ZM107.77 -5.75L104.88 -17.32L94.19 -20.34L86.39 -11.80L89.28 -0.24L99.97 2.79ZM89.28 -0.24L86.39 -11.80L75.70 -14.82L67.91 -6.28L70.80 5.28L81.48 8.30ZM121.34 8.84L118.46 -2.72L107.77 -5.75L99.97 2.79L102.85 14.35L113.54 17.38ZM102.85 14.35L99.97 2.79L89.28 -0.24L81.48 8.30L84.37 19.86L95.05 22.89ZM228.51 200.50L225.65 188.94L214.98 185.89L207.17 194.39L210.04 205.94L220.71 208.99ZM233.46 180.44L230.60 168.89L219.92 165.83L212.11 174.33L214.98 185.89L225.65 188.94ZM242.05 215.11L239.19 203.55L228.51 200.50L220.71 208.99L223.57 220.54L234.24 223.60ZM196.50 191.33L193.64 179.78L182.97 176.73L175.17 185.24L178.03 196.78L188.70 199.83ZM178.03 196.78L175.17 185.24L164.50 182.19L156.70 190.69L159.58 202.24L170.24 205.28ZM201.44 171.28L198.57 159.73L187.90 156.68L180.10 165.18L182.97 176.73L193.64 179.78ZM182.97 176.73L180.10 165.18L169.43 162.14L161.63 170.64L164.50 182.19L175.17 185.24ZM210.04 205.94L207.17 194.39L196.50 191.33L188.70 199.83L191.57 211.38L202.23 214.43ZM191.57 211.38L188.70 199.83L178.03 196.78L170.24 205.28L173.11 216.82L183.77 219.87ZM214.98 185.89L212.11 174.33L201.44 171.28L193.64 179.78L196.50 191.33L207.17 194.39ZM224.87 145.77L222.01 134.21L211.33 131.16L203.52 139.67L206.38 151.22L217.06 154.27ZM206.38 151.22L203.52 139.67L192.84 136.62L185.03 145.12L187.90 156.68L198.57 159.73ZM229.83 125.70L226.96 114.14L216.28 111.08L208.46 119.60L211.33 131.16L222.01 134.21ZM211.33 131.16L208.46 119.60L197.78 116.55L189.97 125.06L192.84 136.62L203.52 139.67ZM219.92 165.83L217.06 154.27L206.38 151.22L198.57 159.73L201.44 171.28L212.11 174.33ZM250.62 249.76L247.76 238.21L237.10 235.15L229.29 243.63L232.15 255.18L242.81 258.24ZM264.14 264.37L261.29 252.82L250.62 249.76L242.81 258.24L245.67 269.79L256.33 272.85ZM218.63 240.58L215.76 229.03L205.10 225.98L197.30 234.47L200.16 246.01L210.82 249.06ZM200.16 246.01L197.30 234.47L186.64 231.42L178.84 239.91L181.71 251.45L192.37 254.50ZM223.57 220.54L220.71 208.99L210.04 205.94L202.23 214.43L205.10 225.98L215.76 229.03ZM205.10 225.98L202.23 214.43L191.57 211.38L183.77 219.87L186.64 231.42L197.30 234.47ZM232.15 255.18L229.29 243.63L218.63 240.58L210.82 249.06L213.69 260.61L224.35 263.66ZM213.69 260.61L210.82 249.06L200.16 246.01L192.37 254.50L195.23 266.04L205.89 269.09ZM237.10 235.15L234.24 223.60L223.57 220.54L215.76 229.03L218.63 240.58L229.29 243.63ZM117.78 233.18L114.90 221.65L104.25 218.61L96.47 227.11L99.35 238.64L110.00 241.68ZM99.35 238.64L96.47 227.11L85.82 224.08L78.05 232.57L80.93 244.10L91.58 247.13ZM122.68 213.15L119.81 201.61L109.15 198.58L101.37 207.08L104.25 218.61L114.90 221.65ZM104.25 218.61L101.37 207.08L90.71 204.05L82.94 212.55L85.82 224.08L96.47 227.11ZM131.30 247.75L128.43 236.22L117.78 233.18L110.00 241.68L112.87 253.21L123.52 256.24ZM112.87 253.21L110.00 241.68L99.35 238.64L91.58 247.13L94.45 258.66L105.10 261.70ZM136.21 227.73L133.34 216.19L122.68 213.15L114.90 221.65L117.78 233.18L128.43 236.22ZM67.40 229.54L64.52 218.02L53.87 214.99L46.11 223.49L48.99 235.02L59.64 238.04ZM48.99 235.02L46.11 223.49L35.46 220.47L27.71 228.97L30.59 240.49L41.23 243.51ZM72.29 209.52L69.41 197.99L58.76 194.96L50.99 203.46L53.87 214.99L64.52 218.02ZM53.87 214.99L50.99 203.46L40.34 200.44L32.58 208.94L35.46 220.47L46.11 223.49ZM85.82 224.08L82.94 212.55L72.29 209.52L64.52 218.02L67.40 229.54L78.05 232.57ZM146.04 187.65L143.17 176.11L132.50 173.07L124.71 181.57L127.59 193.11L138.25 196.15ZM127.59 193.11L124.71 181.57L114.05 178.53L106.27 187.04L109.15 198.58L119.81 201.61ZM150.96 167.60L148.09 156.05L137.42 153.01L129.63 161.52L132.50 173.07L143.17 176.11ZM132.50 173.07L129.63 161.52L118.96 158.49L111.18 166.99L114.05 178.53L124.71 181.57ZM159.58 202.24L156.70 190.69L146.04 187.65L138.25 196.15L141.12 207.69L151.78 210.73ZM141.12 207.69L138.25 196.15L127.59 193.11L119.81 201.61L122.68 213.15L133.34 216.19ZM164.50 182.19L161.63 170.64L150.96 167.60L143.17 176.11L146.04 187.65L156.70 190.69ZM95.61 184.01L92.73 172.47L82.07 169.44L74.30 177.95L77.18 189.48L87.84 192.51ZM77.18 189.48L74.30 177.95L63.64 174.92L55.87 183.43L58.76 194.96L69.41 197.99ZM100.51 163.96L97.63 152.42L86.97 149.39L79.19 157.90L82.07 169.44L92.73 172.47ZM82.07 169.44L79.19 157.90L68.53 154.87L60.76 163.39L63.64 174.92L74.30 177.95ZM109.15 198.58L106.27 187.04L95.61 184.01L87.84 192.51L90.71 204.05L101.37 207.08ZM90.71 204.05L87.84 192.51L77.18 189.48L69.41 197.99L72.29 209.52L82.94 212.55ZM114.05 178.53L111.18 166.99L100.51 163.96L92.73 172.47L95.61 184.01L106.27 187.04ZM144.82 262.33L141.95 250.80L131.30 247.75L123.52 256.24L126.39 267.77L137.04 270.82ZM126.39 267.77L123.52 256.24L112.87 253.21L105.10 261.70L107.97 273.22L118.62 276.26ZM94.45 258.66L91.58 247.13L80.93 244.10L73.16 252.60L76.04 264.12L86.68 267.15ZM168.18 236.86L165.31 225.32L154.66 222.27L146.87 230.77L149.74 242.30L160.39 245.35ZM149.74 242.30L146.87 230.77L136.21 227.73L128.43 236.22L131.30 247.75L141.95 250.80ZM173.11 216.82L170.24 205.28L159.58 202.24L151.78 210.73L154.66 222.27L165.31 225.32ZM154.66 222.27L151.78 210.73L141.12 207.69L133.34 216.19L136.21 227.73L146.87 230.77ZM181.71 251.45L178.84 239.91L168.18 236.86L160.39 245.35L163.26 256.89L173.92 259.93ZM163.26 256.89L160.39 245.35L149.74 242.30L141.95 250.80L144.82 262.33L155.48 265.37ZM186.64 231.42L183.77 219.87L173.11 216.82L165.31 225.32L168.18 236.86L178.84 239.91ZM212.62 56.29L209.75 44.72L199.06 41.68L191.24 50.20L194.11 61.77L204.80 64.82ZM217.57 36.20L214.70 24.62L204.01 21.57L196.18 30.10L199.06 41.68L209.75 44.72ZM244.70 65.45L241.84 53.87L231.14 50.82L223.31 59.34L226.18 70.92L236.87 73.97ZM226.18 70.92L223.31 59.34L212.62 56.29L204.80 64.82L207.67 76.39L218.36 79.44ZM234.78 105.62L231.92 94.06L221.23 91.00L213.41 99.52L216.28 111.08L226.96 114.14ZM239.74 85.54L236.87 73.97L226.18 70.92L218.36 79.44L221.23 91.00L231.92 94.06ZM248.33 120.25L245.47 108.68L234.78 105.62L226.96 114.14L229.83 125.70L240.51 128.76ZM152.18 92.81L149.31 81.25L138.63 78.22L130.83 86.74L133.71 98.30L144.38 101.33ZM133.71 98.30L130.83 86.74L120.15 83.71L112.36 92.23L115.24 103.78L125.91 106.81ZM157.11 72.73L154.24 61.17L143.55 58.13L135.75 66.66L138.63 78.22L149.31 81.25ZM138.63 78.22L135.75 66.66L125.07 63.63L117.27 72.15L120.15 83.71L130.83 86.74ZM165.74 107.41L162.86 95.85L152.18 92.81L144.38 101.33L147.26 112.89L157.94 115.93ZM147.26 112.89L144.38 101.33L133.71 98.30L125.91 106.81L128.79 118.37L139.46 121.40ZM170.67 87.33L167.80 75.77L157.11 72.73L149.31 81.25L152.18 92.81L162.86 95.85ZM101.68 89.20L98.80 77.65L88.12 74.62L80.34 83.14L83.22 94.69L93.89 97.72ZM83.22 94.69L80.34 83.14L69.66 80.12L61.88 88.64L64.77 100.19L75.44 103.21ZM106.59 69.12L103.71 57.56L93.03 54.54L85.24 63.07L88.12 74.62L98.80 77.65ZM88.12 74.62L85.24 63.07L74.56 60.04L66.78 68.57L69.66 80.12L80.34 83.14ZM115.24 103.78L112.36 92.23L101.68 89.20L93.89 97.72L96.77 109.27L107.44 112.30ZM96.77 109.27L93.89 97.72L83.22 94.69L75.44 103.21L78.32 114.76L88.99 117.79ZM120.15 83.71L117.27 72.15L106.59 69.12L98.80 77.65L101.68 89.20L112.36 92.23ZM180.55 47.16L177.67 35.59L166.98 32.55L159.17 41.08L162.05 52.64L172.73 55.68ZM162.05 52.64L159.17 41.08L148.48 38.04L140.67 46.57L143.55 58.13L154.24 61.17ZM185.49 27.06L182.61 15.49L171.92 12.45L164.10 20.98L166.98 32.55L177.67 35.59ZM166.98 32.55L164.10 20.98L153.41 17.94L145.60 26.48L148.48 38.04L159.17 41.08ZM194.11 61.77L191.24 50.20L180.55 47.16L172.73 55.68L175.61 67.25L186.29 70.29ZM175.61 67.25L172.73 55.68L162.05 52.64L154.24 61.17L157.11 72.73L167.80 75.77ZM199.06 41.68L196.18 30.10L185.49 27.06L177.67 35.59L180.55 47.16L191.24 50.20ZM129.99 43.54L127.11 31.97L116.42 28.94L108.62 37.48L111.50 49.04L122.19 52.07ZM111.50 49.04L108.62 37.48L97.94 34.45L90.14 42.98L93.03 54.54L103.71 57.56ZM134.91 23.44L132.03 11.87L121.34 8.84L113.54 17.38L116.42 28.94L127.11 31.97ZM116.42 28.94L113.54 17.38L102.85 14.35L95.05 22.89L97.94 34.45L108.62 37.48ZM143.55 58.13L140.67 46.57L129.99 43.54L122.19 52.07L125.07 63.63L135.75 66.66ZM125.07 63.63L122.19 52.07L111.50 49.04L103.71 57.56L106.59 69.12L117.27 72.15ZM148.48 38.04L145.60 26.48L134.91 23.44L127.11 31.97L129.99 43.54L140.67 46.57ZM174.36 142.08L171.48 130.52L160.81 127.48L153.01 135.99L155.88 147.54L166.55 150.59ZM155.88 147.54L153.01 135.99L142.34 132.95L134.54 141.47L137.42 153.01L148.09 156.05ZM179.29 122.01L176.42 110.45L165.74 107.41L157.94 115.93L160.81 127.48L171.48 130.52ZM160.81 127.48L157.94 115.93L147.26 112.89L139.46 121.40L142.34 132.95L153.01 135.99ZM187.90 156.68L185.03 145.12L174.36 142.08L166.55 150.59L169.43 162.14L180.10 165.18ZM169.43 162.14L166.55 150.59L155.88 147.54L148.09 156.05L150.96 167.60L161.63 170.64ZM192.84 136.62L189.97 125.06L179.29 122.01L171.48 130.52L174.36 142.08L185.03 145.12ZM123.87 138.43L120.99 126.88L110.33 123.85L102.54 132.36L105.42 143.91L116.08 146.94ZM105.42 143.91L102.54 132.36L91.87 129.33L84.09 137.85L86.97 149.39L97.63 152.42ZM128.79 118.37L125.91 106.81L115.24 103.78L107.44 112.30L110.33 123.85L120.99 126.88ZM110.33 123.85L107.44 112.30L96.77 109.27L88.99 117.79L91.87 129.33L102.54 132.36ZM137.42 153.01L134.54 141.47L123.87 138.43L116.08 146.94L118.96 158.49L129.63 161.52ZM118.96 158.49L116.08 146.94L105.42 143.91L97.63 152.42L100.51 163.96L111.18 166.99ZM142.34 132.95L139.46 121.40L128.79 118.37L120.99 126.88L123.87 138.43L134.54 141.47ZM202.72 96.47L199.85 84.90L189.17 81.86L181.35 90.38L184.23 101.94L194.91 104.99ZM184.23 101.94L181.35 90.38L170.67 87.33L162.86 95.85L165.74 107.41L176.42 110.45ZM207.67 76.39L204.80 64.82L194.11 61.77L186.29 70.29L189.17 81.86L199.85 84.90ZM189.17 81.86L186.29 70.29L175.61 67.25L167.80 75.77L170.67 87.33L181.35 90.38ZM216.28 111.08L213.41 99.52L202.72 96.47L194.91 104.99L197.78 116.55L208.46 119.60ZM197.78 116.55L194.91 104.99L184.23 101.94L176.42 110.45L179.29 122.01L189.97 125.06ZM221.23 91.00L218.36 79.44L207.67 76.39L199.85 84.90L202.72 96.47L213.41 99.52ZM245.67 269.79L242.81 258.24L232.15 255.18L224.35 263.66L227.21 275.21L237.87 278.27ZM195.23 266.04L192.37 254.50L181.71 251.45L173.92 259.93L176.78 271.47L187.44 274.52ZM30.59 240.49L27.71 228.97L17.06 225.95L9.31 234.45L12.20 245.97L22.84 248.99ZM44.12 255.03L41.23 243.51L30.59 240.49L22.84 248.99L25.72 260.50L36.36 263.53ZM25.72 260.50L22.84 248.99L12.20 245.97L4.45 254.46L7.34 265.98L17.97 269.00ZM27.89 111.20L25.00 99.66L14.34 96.64L6.57 105.17L9.46 116.70L20.12 119.72ZM32.77 91.13L29.88 79.59L19.21 76.57L11.44 85.10L14.34 96.64L25.00 99.66ZM56.10 65.55L53.21 54.00L42.54 50.98L34.76 59.51L37.65 71.06L48.32 74.08ZM37.65 71.06L34.76 59.51L24.09 56.50L16.32 65.03L19.21 76.57L29.88 79.59ZM69.66 80.12L66.78 68.57L56.10 65.55L48.32 74.08L51.21 85.62L61.88 88.64ZM0.78 82.09L-2.12 70.55L-12.78 67.54L-20.54 76.07L-17.65 87.61L-6.99 90.62ZM5.65 62.02L2.76 50.47L-7.91 47.47L-15.68 56.00L-12.78 67.54L-2.12 70.55ZM14.34 96.64L11.44 85.10L0.78 82.09L-6.99 90.62L-4.09 102.15L6.57 105.17ZM19.21 76.57L16.32 65.03L5.65 62.02L-2.12 70.55L0.78 82.09L11.44 85.10ZM58.76 194.96L55.87 183.43L45.22 180.40L37.45 188.91L40.34 200.44L50.99 203.46ZM63.64 174.92L60.76 163.39L50.10 160.36L42.33 168.87L45.22 180.40L55.87 183.43ZM78.32 114.76L75.44 103.21L64.77 100.19L56.99 108.71L59.88 120.25L70.54 123.28ZM68.53 154.87L65.65 143.34L54.99 140.31L47.21 148.83L50.10 160.36L60.76 163.39ZM91.87 129.33L88.99 117.79L78.32 114.76L70.54 123.28L73.42 134.82L84.09 137.85Z"/><path data-band="3" fill="#dc2626" fill-opacity="0.35" d="M80.93 244.10L78.05 232.57L67.40 229.54L59.64 238.04L62.52 249.57L73.16 252.60ZM62.52 249.57L59.64 238.04L48.99 235.02L41.23 243.51L44.12 255.03L54.76 258.06ZM76.04 264.12L73.16 252.60L62.52 249.57L54.76 258.06L57.64 269.58L68.28 272.61ZM7.34 265.98L4.45 254.46L-6.19 251.45L-13.93 259.94L-11.04 271.45L-0.41 274.47ZM17.06 225.95L14.18 214.43L3.53 211.41L-4.22 219.91L-1.33 231.43L9.31 234.45ZM21.93 205.92L19.04 194.40L8.40 191.38L0.64 199.89L3.53 211.41L14.18 214.43ZM3.53 211.41L0.64 199.89L-10.00 196.87L-17.75 205.38L-14.86 216.90L-4.22 219.91ZM12.20 245.97L9.31 234.45L-1.33 231.43L-9.08 239.93L-6.19 251.45L4.45 254.46ZM35.46 220.47L32.58 208.94L21.93 205.92L14.18 214.43L17.06 225.95L27.71 228.97ZM57.64 269.58L54.76 258.06L44.12 255.03L36.36 263.53L39.24 275.04L49.88 278.07ZM23.01 131.25L20.12 119.72L9.46 116.70L1.70 125.22L4.59 136.76L15.25 139.77ZM4.59 136.76L1.70 125.22L-8.96 122.21L-16.72 130.73L-13.82 142.26L-3.17 145.27ZM9.46 116.70L6.57 105.17L-4.09 102.15L-11.85 110.68L-8.96 122.21L1.70 125.22ZM36.56 145.81L33.67 134.27L23.01 131.25L15.25 139.77L18.14 151.30L28.79 154.32ZM18.14 151.30L15.25 139.77L4.59 136.76L-3.17 145.27L-0.28 156.80L10.38 159.82ZM41.44 125.75L38.55 114.21L27.89 111.20L20.12 119.72L23.01 131.25L33.67 134.27ZM51.21 85.62L48.32 74.08L37.65 71.06L29.88 79.59L32.77 91.13L43.44 94.15ZM64.77 100.19L61.88 88.64L51.21 85.62L43.44 94.15L46.32 105.69L56.99 108.71ZM46.32 105.69L43.44 94.15L32.77 91.13L25.00 99.66L27.89 111.20L38.55 114.21ZM45.22 180.40L42.33 168.87L31.68 165.85L23.92 174.36L26.80 185.89L37.45 188.91ZM26.80 185.89L23.92 174.36L13.27 171.35L5.51 179.86L8.40 191.38L19.04 194.40ZM50.10 160.36L47.21 148.83L36.56 145.81L28.79 154.32L31.68 165.85L42.33 168.87ZM31.68 165.85L28.79 154.32L18.14 151.30L10.38 159.82L13.27 171.35L23.92 174.36ZM40.34 200.44L37.45 188.91L26.80 185.89L19.04 194.40L21.93 205.92L32.58 208.94ZM8.40 191.38L5.51 179.86L-5.14 176.84L-12.89 185.35L-10.00 196.87L0.64 199.89ZM13.27 171.35L10.38 159.82L-0.28 156.80L-8.03 165.32L-5.14 176.84L5.51 179.86ZM73.42 134.82L70.54 123.28L59.88 120.25L52.10 128.77L54.99 140.31L65.65 143.34ZM54.99 140.31L52.10 128.77L41.44 125.75L33.67 134.27L36.56 145.81L47.21 148.83ZM59.88 120.25L56.99 108.71L46.32 105.69L38.55 114.21L41.44 125.75L52.10 128.77ZM86.97 149.39L84.09 137.85L73.42 134.82L65.65 143.34L68.53 154.87L79.19 157.90Z"/></svg>
