<svg xmlns="http://www.w3.org/2000/svg" width="256" height="256" viewBox="0 0 256 256"><path data-band="2" fill="#f97316" fill-opacity="0.35" d="M250.62 -6.24L247.76 -17.79L237.10 -20.85L229.29 -12.37L232.15 -0.82L242.81 2.24ZM264.14 8.37L261.29 -3.18L250.62 -6.24L242.81 2.24L245.67 13.79L256.33 16.85ZM232.15 -0.82L229.29 -12.37L218.63 -15.42L210.82 -6.94L213.69 4.61L224.35 7.66ZM213.69 4.61L210.82 -6.94L200.16 -9.99L192.37 -1.50L195.23 10.04L205.89 13.09ZM131.30 -8.25L128.43 -19.78L117.78 -22.82L110.00 -14.32L112.87 -2.79L123.52 0.24ZM112.87 -2.79L110.00 -14.32L99.35 -17.36L91.58 -8.87L94.45 2.66L105.10 5.70ZM139.91 26.35L137.04 14.82L126.39 11.77L118.62 20.26L121.49 31.79L132.14 34.83ZM121.49 31.79L118.62 20.26L107.97 17.22L100.20 25.71L103.08 37.23L113.72 40.27ZM144.82 6.33L141.95 -5.20L131.30 -8.25L123.52 0.24L126.39 11.77L137.04 14.82ZM126.39 11.77L123.52 0.24L112.87 -2.79L105.10 5.70L107.97 17.22L118.62 20.26ZM135.01 46.36L132.14 34.83L121.49 31.79L113.72 40.27L116.59 51.79L127.23 54.84ZM89.56 22.67L86.68 11.15L76.04 8.12L68.28 16.61L71.16 28.13L81.80 31.16ZM94.45 2.66L91.58 -8.87L80.93 -11.90L73.16 -3.40L76.04 8.12L86.68 11.15ZM103.08 37.23L100.20 25.71L89.56 22.67L81.80 31.16L84.67 42.68L95.31 45.72ZM84.67 42.68L81.80 31.16L71.16 28.13L63.40 36.62L66.28 48.13L76.91 51.17ZM107.97 17.22L105.10 5.70L94.45 2.66L86.68 11.15L89.56 22.67L100.20 25.71ZM181.71 -4.55L178.84 -16.09L168.18 -19.14L160.39 -10.65L163.26 0.89L173.92 3.93ZM163.26 0.89L160.39 -10.65L149.74 -13.70L141.95 -5.20L144.82 6.33L155.48 9.37ZM272.70 43.01L269.85 31.46L259.19 28.39L251.38 36.87L254.24 48.41L264.90 51.48ZM230.84 73.83L227.98 62.30L217.33 59.24L209.54 67.71L212.39 79.24L223.04 82.30ZM143.61 80.92L140.74 69.40L130.10 66.36L122.33 74.84L125.20 86.35L135.84 89.40ZM240.72 33.81L237.87 22.27L227.21 19.21L219.41 27.69L222.27 39.23L232.92 42.29ZM222.27 39.23L219.41 27.69L208.75 24.63L200.96 33.11L203.82 44.65L214.47 47.70ZM245.67 13.79L242.81 2.24L232.15 -0.82L224.35 7.66L227.21 19.21L237.87 22.27ZM227.21 19.21L224.35 7.66L213.69 4.61L205.89 13.09L208.75 24.63L219.41 27.69ZM254.24 48.41L251.38 36.87L240.72 33.81L232.92 42.29L235.78 53.82L246.43 56.89ZM235.78 53.82L232.92 42.29L222.27 39.23L214.47 47.70L217.33 59.24L227.98 62.30ZM259.19 28.39L256.33 16.85L245.67 13.79L237.87 22.27L240.72 33.81L251.38 36.87ZM190.30 30.06L187.44 18.52L176.78 15.47L169.00 23.95L171.86 35.49L182.51 38.54ZM195.23 10.04L192.37 -1.50L181.71 -4.55L173.92 3.93L176.78 15.47L187.44 18.52ZM176.78 15.47L173.92 3.93L163.26 0.89L155.48 9.37L158.34 20.91L169.00 23.95ZM203.82 44.65L200.96 33.11L190.30 30.06L182.51 38.54L185.38 50.07L196.03 53.12ZM208.75 24.63L205.89 13.09L195.23 10.04L187.44 18.52L190.30 30.06L200.96 33.11ZM234.46 128.42L231.61 116.89L220.97 113.83L213.18 122.29L216.03 133.82L226.68 136.88ZM216.03 133.82L213.18 122.29L202.54 119.23L194.76 127.70L197.61 139.22L208.25 142.28ZM239.40 108.43L236.55 96.90L225.90 93.84L218.11 102.30L220.97 113.83L231.61 116.89ZM247.96 143.01L245.11 131.49L234.46 128.42L226.68 136.88L229.53 148.40L240.17 151.47ZM229.53 148.40L226.68 136.88L216.03 133.82L208.25 142.28L211.11 153.80L221.74 156.86ZM252.90 123.03L250.05 111.50L239.40 108.43L231.61 116.89L234.46 128.42L245.11 131.49ZM184.12 124.64L181.26 113.12L170.62 110.07L162.84 118.53L165.71 130.05L176.34 133.10ZM165.71 130.05L162.84 118.53L152.21 115.48L144.44 123.95L147.30 135.46L157.93 138.51ZM170.62 110.07L167.76 98.54L157.12 95.49L149.34 103.96L152.21 115.48L162.84 118.53ZM197.61 139.22L194.76 127.70L184.12 124.64L176.34 133.10L179.20 144.62L189.84 147.68ZM179.20 144.62L176.34 133.10L165.71 130.05L157.93 138.51L160.80 150.03L171.43 153.08ZM262.80 83.03L259.94 71.49L249.29 68.43L241.49 76.90L244.34 88.43L255.00 91.50ZM244.34 88.43L241.49 76.90L230.84 73.83L223.04 82.30L225.90 93.84L236.55 96.90ZM267.75 63.02L264.90 51.48L254.24 48.41L246.43 56.89L249.29 68.43L259.94 71.49ZM249.29 68.43L246.43 56.89L235.78 53.82L227.98 62.30L230.84 73.83L241.49 76.90ZM276.30 97.64L273.45 86.10L262.80 83.03L255.00 91.50L257.85 103.03L268.50 106.10ZM257.85 103.03L255.00 91.50L244.34 88.43L236.55 96.90L239.40 108.43L250.05 111.50ZM2.48 29.98L-0.41 18.47L-11.04 15.45L-18.78 23.95L-15.89 35.46L-5.26 38.47ZM11.13 64.51L8.25 53.00L-2.38 49.98L-10.12 58.47L-7.23 69.97L3.39 72.99ZM15.99 44.51L13.11 33.00L2.48 29.98L-5.26 38.47L-2.38 49.98L8.25 53.00ZM24.64 79.03L21.76 67.53L11.13 64.51L3.39 72.99L6.28 84.49L16.90 87.51ZM6.28 84.49L3.39 72.99L-7.23 69.97L-14.97 78.45L-12.08 89.95L-1.46 92.97ZM29.51 59.04L26.62 47.54L15.99 44.51L8.25 53.00L11.13 64.51L21.76 67.53ZM39.24 19.04L36.36 7.53L25.72 4.50L17.97 13.00L20.86 24.51L31.49 27.53ZM20.86 24.51L17.97 13.00L7.34 9.98L-0.41 18.47L2.48 29.98L13.11 33.00ZM44.12 -0.97L41.23 -12.49L30.59 -15.51L22.84 -7.01L25.72 4.50L36.36 7.53ZM25.72 4.50L22.84 -7.01L12.20 -10.03L4.45 -1.54L7.34 9.98L17.97 13.00ZM34.37 39.05L31.49 27.53L20.86 24.51L13.11 33.00L15.99 44.51L26.62 47.54ZM255.17 252.05L252.33 240.54L241.70 237.47L233.92 245.91L236.77 257.42L247.39 260.49ZM236.77 257.42L233.92 245.91L223.30 242.84L215.52 251.28L218.37 262.79L229.00 265.86ZM268.64 266.64L265.80 255.13L255.17 252.05L247.39 260.49L250.24 272.00L260.86 275.07ZM256.51 177.58L253.66 166.06L243.02 162.99L235.23 171.45L238.08 182.97L248.72 186.03ZM238.08 182.97L235.23 171.45L224.60 168.38L216.82 176.83L219.67 188.35L230.30 191.42ZM261.45 157.61L258.60 146.08L247.96 143.01L240.17 151.47L243.02 162.99L253.66 166.06ZM243.02 162.99L240.17 151.47L229.53 148.40L221.74 156.86L224.60 168.38L235.23 171.45ZM269.99 192.18L267.15 180.66L256.51 177.58L248.72 186.03L251.57 197.55L262.20 200.63ZM251.57 197.55L248.72 186.03L238.08 182.97L230.30 191.42L233.15 202.93L243.78 206.00ZM274.94 172.21L272.09 160.68L261.45 157.61L253.66 166.06L256.51 177.58L267.15 180.66ZM266.40 137.62L263.55 126.09L252.90 123.03L245.11 131.49L247.96 143.01L258.60 146.08ZM271.35 117.63L268.50 106.10L257.85 103.03L250.05 111.50L252.90 123.03L263.55 126.09ZM260.11 232.10L257.26 220.59L246.63 217.52L238.85 225.96L241.70 237.47L252.33 240.54ZM265.05 212.14L262.20 200.63L251.57 197.55L243.78 206.00L246.63 217.52L257.26 220.59ZM273.58 246.69L270.74 235.18L260.11 232.10L252.33 240.54L255.17 252.05L265.80 255.13ZM49.44 256.88L46.57 245.40L35.97 242.36L28.24 250.81L31.11 262.29L41.71 265.32ZM31.11 262.29L28.24 250.81L17.64 247.78L9.92 256.23L12.80 267.70L23.39 270.74ZM54.30 236.95L51.43 225.46L40.82 222.42L33.09 230.88L35.97 242.36L46.57 245.40ZM35.97 242.36L33.09 230.88L22.49 227.85L14.77 236.30L17.64 247.78L28.24 250.81ZM67.77 251.47L64.90 239.98L54.30 236.95L46.57 245.40L49.44 256.88L60.04 259.92ZM4.17 233.27L1.29 221.79L-9.31 218.76L-17.03 227.22L-14.15 238.70L-3.55 241.72ZM12.80 267.70L9.92 256.23L-0.68 253.20L-8.39 261.65L-5.51 273.12L5.08 276.15ZM17.64 247.78L14.77 236.30L4.17 233.27L-3.55 241.72L-0.68 253.20L9.92 256.23ZM77.51 211.59L74.64 200.10L64.03 197.06L56.29 205.52L59.16 217.01L69.77 220.04ZM59.16 217.01L56.29 205.52L45.68 202.48L37.95 210.94L40.82 222.42L51.43 225.46ZM82.38 191.64L79.51 180.14L68.90 177.11L61.16 185.57L64.03 197.06L74.64 200.10ZM64.03 197.06L61.16 185.57L50.54 182.53L42.81 190.99L45.68 202.48L56.29 205.52ZM90.99 226.13L88.12 214.63L77.51 211.59L69.77 220.04L72.64 231.53L83.25 234.58ZM72.64 231.53L69.77 220.04L59.16 217.01L51.43 225.46L54.30 236.95L64.90 239.98ZM95.87 206.18L93.00 194.68L82.38 191.64L74.64 200.10L77.51 211.59L88.12 214.63ZM27.34 207.91L24.47 196.42L13.86 193.39L6.13 201.85L9.01 213.33L19.61 216.36ZM9.01 213.33L6.13 201.85L-4.47 198.82L-12.19 207.28L-9.31 218.76L1.29 221.79ZM32.20 187.96L29.32 176.47L18.71 173.44L10.98 181.90L13.86 193.39L24.47 196.42ZM13.86 193.39L10.98 181.90L0.37 178.88L-7.35 187.34L-4.47 198.82L6.13 201.85ZM40.82 222.42L37.95 210.94L27.34 207.91L19.61 216.36L22.49 227.85L33.09 230.88ZM22.49 227.85L19.61 216.36L9.01 213.33L1.29 221.79L4.17 233.27L14.77 236.30ZM99.59 260.60L96.72 249.11L86.12 246.07L78.38 254.51L81.24 266.00L91.85 269.04ZM81.24 266.00L78.38 254.51L67.77 251.47L60.04 259.92L62.91 271.40L73.51 274.44ZM104.47 240.66L101.60 229.17L90.99 226.13L83.25 234.58L86.12 246.07L96.72 249.11ZM86.12 246.07L83.25 234.58L72.64 231.53L64.90 239.98L67.77 251.47L78.38 254.51ZM117.94 255.20L115.08 243.71L104.47 240.66L96.72 249.11L99.59 260.60L110.19 263.65ZM83.53 117.20L80.65 105.69L70.03 102.66L62.28 111.13L65.15 122.64L75.77 125.67ZM65.15 122.64L62.28 111.13L51.65 108.10L43.91 116.57L46.78 128.08L57.40 131.11ZM88.41 97.22L85.54 85.71L74.91 82.67L67.15 91.15L70.03 102.66L80.65 105.69ZM70.03 102.66L67.15 91.15L56.52 88.12L48.77 96.60L51.65 108.10L62.28 111.13ZM78.65 137.18L75.77 125.67L65.15 122.64L57.40 131.11L60.28 142.61L70.90 145.64ZM101.91 111.77L99.04 100.26L88.41 97.22L80.65 105.69L83.53 117.20L94.15 120.24ZM33.28 113.55L30.40 102.04L19.78 99.02L12.04 107.49L14.93 118.99L25.54 122.02ZM14.93 118.99L12.04 107.49L1.42 104.47L-6.31 112.95L-3.43 124.44L7.19 127.47ZM38.15 93.57L35.27 82.06L24.64 79.03L16.90 87.51L19.78 99.02L30.40 102.04ZM19.78 99.02L16.90 87.51L6.28 84.49L-1.46 92.97L1.42 104.47L12.04 107.49ZM46.78 128.08L43.91 116.57L33.28 113.55L25.54 122.02L28.42 133.52L39.04 136.55ZM28.42 133.52L25.54 122.02L14.93 118.99L7.19 127.47L10.07 138.96L20.69 141.99ZM51.65 108.10L48.77 96.60L38.15 93.57L30.40 102.04L33.28 113.55L43.91 116.57ZM111.70 71.79L108.82 60.27L98.19 57.24L90.42 65.72L93.30 77.23L103.93 80.27ZM93.30 77.23L90.42 65.72L79.79 62.68L72.03 71.16L74.91 82.67L85.54 85.71ZM116.59 51.79L113.72 40.27L103.08 37.23L95.31 45.72L98.19 57.24L108.82 60.27ZM98.19 57.24L95.31 45.72L84.67 42.68L76.91 51.17L79.79 62.68L90.42 65.72ZM125.20 86.35L122.33 74.84L111.70 71.79L103.93 80.27L106.80 91.79L117.44 94.83ZM106.80 91.79L103.93 80.27L93.30 77.23L85.54 85.71L88.41 97.22L99.04 100.26ZM130.10 66.36L127.23 54.84L116.59 51.79L108.82 60.27L111.70 71.79L122.33 74.84ZM61.40 68.13L58.52 56.62L47.89 53.59L40.14 62.07L43.02 73.58L53.64 76.61ZM43.02 73.58L40.14 62.07L29.51 59.04L21.76 67.53L24.64 79.03L35.27 82.06ZM47.89 53.59L45.01 42.07L34.37 39.05L26.62 47.54L29.51 59.04L40.14 62.07ZM74.91 82.67L72.03 71.16L61.40 68.13L53.64 76.61L56.52 88.12L67.15 91.15ZM56.52 88.12L53.64 76.61L43.02 73.58L35.27 82.06L38.15 93.57L48.77 96.60ZM79.79 62.68L76.91 51.17L66.28 48.13L58.52 56.62L61.40 68.13L72.03 71.16ZM105.63 166.27L102.76 154.76L92.14 151.72L84.39 160.18L87.26 171.68L97.88 174.73ZM87.26 171.68L84.39 160.18L73.77 157.15L66.03 165.61L68.90 177.11L79.51 180.14ZM110.52 146.30L107.65 134.79L97.03 131.75L89.27 140.22L92.14 151.72L102.76 154.76ZM92.14 151.72L89.27 140.22L78.65 137.18L70.90 145.64L73.77 157.15L84.39 160.18ZM119.12 180.81L116.26 169.31L105.63 166.27L97.88 174.73L100.75 186.23L111.37 189.27ZM100.75 186.23L97.88 174.73L87.26 171.68L79.51 180.14L82.38 191.64L93.00 194.68ZM124.01 160.85L121.15 149.34L110.52 146.30L102.76 154.76L105.63 166.27L116.26 169.31ZM55.41 162.57L52.53 151.08L41.92 148.04L34.18 156.51L37.06 168.01L47.67 171.04ZM37.06 168.01L34.18 156.51L23.56 153.48L15.83 161.95L18.71 173.44L29.32 176.47ZM60.28 142.61L57.40 131.11L46.78 128.08L39.04 136.55L41.92 148.04L52.53 151.08ZM41.92 148.04L39.04 136.55L28.42 133.52L20.69 141.99L23.56 153.48L34.18 156.51ZM68.90 177.11L66.03 165.61L55.41 162.57L47.67 171.04L50.54 182.53L61.16 185.57ZM50.54 182.53L47.67 171.04L37.06 168.01L29.32 176.47L32.20 187.96L42.81 190.99ZM73.77 157.15L70.90 145.64L60.28 142.61L52.53 151.08L55.41 162.57L66.03 165.61ZM133.81 120.90L130.94 109.39L120.31 106.34L112.54 114.81L115.41 126.32L126.04 129.37ZM115.41 126.32L112.54 114.81L101.91 111.77L94.15 120.24L97.03 131.75L107.65 134.79ZM138.71 100.92L135.84 89.40L125.20 86.35L117.44 94.83L120.31 106.34L130.94 109.39ZM120.31 106.34L117.44 94.83L106.80 91.79L99.04 100.26L101.91 111.77L112.54 114.81ZM1.42 104.47L-1.46 92.97L-12.08 89.95L-19.81 98.43L-16.93 109.93L-6.31 112.95ZM5.22 158.92L2.34 147.43L-8.27 144.41L-16.00 152.88L-13.12 164.37L-2.51 167.39ZM10.07 138.96L7.19 127.47L-3.43 124.44L-11.16 132.92L-8.27 144.41L2.34 147.43ZM18.71 173.44L15.83 161.95L5.22 158.92L-2.51 167.39L0.37 178.88L10.98 181.90ZM0.37 178.88L-2.51 167.39L-13.12 164.37L-20.84 172.83L-17.96 184.32L-7.35 187.34ZM23.56 153.48L20.69 141.99L10.07 138.96L2.34 147.43L5.22 158.92L15.83 161.95ZM177.95 219.08L175.09 207.58L164.47 204.52L156.71 212.97L159.57 224.47L170.19 227.53ZM159.57 224.47L156.71 212.97L146.09 209.92L138.33 218.37L141.19 229.87L151.81 232.92ZM182.86 199.13L180.00 187.62L169.38 184.56L161.61 193.02L164.47 204.52L175.09 207.58ZM164.47 204.52L161.61 193.02L150.99 189.96L143.23 198.42L146.09 209.92L156.71 212.97ZM191.43 233.65L188.57 222.14L177.95 219.08L170.19 227.53L173.04 239.03L183.66 242.09ZM173.04 239.03L170.19 227.53L159.57 224.47L151.81 232.92L154.67 244.42L165.28 247.48ZM196.34 213.70L193.49 202.19L182.86 199.13L175.09 207.58L177.95 219.08L188.57 222.14ZM127.71 215.32L124.85 203.82L114.23 200.77L106.48 209.22L109.35 220.72L119.96 223.77ZM109.35 220.72L106.48 209.22L95.87 206.18L88.12 214.63L90.99 226.13L101.60 229.17ZM132.61 195.36L129.74 183.86L119.12 180.81L111.37 189.27L114.23 200.77L124.85 203.82ZM114.23 200.77L111.37 189.27L100.75 186.23L93.00 194.68L95.87 206.18L106.48 209.22ZM141.19 229.87L138.33 218.37L127.71 215.32L119.96 223.77L122.83 235.26L133.44 238.31ZM122.83 235.26L119.96 223.77L109.35 220.72L101.60 229.17L104.47 240.66L115.08 243.71ZM146.09 209.92L143.23 198.42L132.61 195.36L124.85 203.82L127.71 215.32L138.33 218.37ZM206.18 173.77L203.33 162.25L192.69 159.20L184.92 167.65L187.78 179.17L198.41 182.22ZM187.78 179.17L184.92 167.65L174.29 164.60L166.52 173.05L169.38 184.56L180.00 187.62ZM211.11 153.80L208.25 142.28L197.61 139.22L189.84 147.68L192.69 159.20L203.33 162.25ZM192.69 159.20L189.84 147.68L179.20 144.62L171.43 153.08L174.29 164.60L184.92 167.65ZM219.67 188.35L216.82 176.83L206.18 173.77L198.41 182.22L201.26 193.74L211.89 196.80ZM201.26 193.74L198.41 182.22L187.78 179.17L180.00 187.62L182.86 199.13L193.49 202.19ZM224.60 168.38L221.74 156.86L211.11 153.80L203.33 162.25L206.18 173.77L216.82 176.83ZM155.89 170.00L153.03 158.49L142.40 155.44L134.64 163.90L137.50 175.40L148.13 178.46ZM137.50 175.40L134.64 163.90L124.01 160.85L116.26 169.31L119.12 180.81L129.74 183.86ZM160.80 150.03L157.93 138.51L147.30 135.46L139.54 143.93L142.40 155.44L153.03 158.49ZM142.40 155.44L139.54 143.93L128.91 140.88L121.15 149.34L124.01 160.85L134.64 163.90ZM169.38 184.56L166.52 173.05L155.89 170.00L148.13 178.46L150.99 189.96L161.61 193.02ZM150.99 189.96L148.13 178.46L137.50 175.40L129.74 183.86L132.61 195.36L143.23 198.42ZM199.99 268.16L197.14 256.66L186.52 253.59L178.76 262.03L181.61 273.53L192.22 276.59ZM204.90 248.22L202.05 236.71L191.43 233.65L183.66 242.09L186.52 253.59L197.14 256.66ZM186.52 253.59L183.66 242.09L173.04 239.03L165.28 247.48L168.14 258.98L178.76 262.03ZM218.37 262.79L215.52 251.28L204.90 248.22L197.14 256.66L199.99 268.16L210.61 271.22ZM149.77 264.36L146.91 252.86L136.30 249.81L128.55 258.25L131.41 269.75L142.02 272.80ZM131.41 269.75L128.55 258.25L117.94 255.20L110.19 263.65L113.06 275.13L123.66 278.18ZM154.67 244.42L151.81 232.92L141.19 229.87L133.44 238.31L136.30 249.81L146.91 252.86ZM136.30 249.81L133.44 238.31L122.83 235.26L115.08 243.71L117.94 255.20L128.55 258.25ZM168.14 258.98L165.28 247.48L154.67 244.42L146.91 252.86L149.77 264.36L160.38 267.41ZM228.22 222.89L225.37 211.38L214.74 208.31L206.97 216.76L209.82 228.27L220.45 231.33ZM209.82 228.27L206.97 216.76L196.34 213.70L188.57 222.14L191.43 233.65L202.05 236.71ZM233.15 202.93L230.30 191.42L219.67 188.35L211.89 196.80L214.74 208.31L225.37 211.38ZM214.74 208.31L211.89 196.80L201.26 193.74L193.49 202.19L196.34 213.70L206.97 216.76ZM241.70 237.47L238.85 225.96L228.22 222.89L220.45 231.33L223.30 242.84L233.92 245.91ZM223.30 242.84L220.45 231.33L209.82 228.27L202.05 236.71L204.90 248.22L215.52 251.28ZM246.63 217.52L243.78 206.00L233.15 202.93L225.37 211.38L228.22 222.89L238.85 225.96Z"/><path data-band="3" fill="#dc2626" fill-opacity="0.35" d="M62.52 -6.43L59.64 -17.96L48.99 -20.98L41.23 -12.49L44.12 -0.97L54.76 2.06ZM153.43 40.92L150.56 29.39L139.91 26.35L132.14 34.83L135.01 46.36L145.65 49.40ZM158.34 20.91L155.48 9.37L144.82 6.33L137.04 14.82L139.91 26.35L150.56 29.39ZM71.16 28.13L68.28 16.61L57.64 13.58L49.88 22.07L52.76 33.59L63.40 36.62ZM76.04 8.12L73.16 -3.40L62.52 -6.43L54.76 2.06L57.64 13.58L68.28 16.61ZM212.39 79.24L209.54 67.71L198.89 64.66L191.10 73.13L193.96 84.66L204.61 87.71ZM193.96 84.66L191.10 73.13L180.45 70.08L172.67 78.55L175.53 90.07L186.18 93.13ZM217.33 59.24L214.47 47.70L203.82 44.65L196.03 53.12L198.89 64.66L209.54 67.71ZM198.89 64.66L196.03 53.12L185.38 50.07L177.59 58.55L180.45 70.08L191.10 73.13ZM225.90 93.84L223.04 82.30L212.39 79.24L204.61 87.71L207.46 99.24L218.11 102.30ZM207.46 99.24L204.61 87.71L193.96 84.66L186.18 93.13L189.04 104.65L199.68 107.71ZM162.03 75.50L159.16 63.97L148.52 60.93L140.74 69.40L143.61 80.92L154.25 83.97ZM166.94 55.50L164.08 43.97L153.43 40.92L145.65 49.40L148.52 60.93L159.16 63.97ZM148.52 60.93L145.65 49.40L135.01 46.36L127.23 54.84L130.10 66.36L140.74 69.40ZM175.53 90.07L172.67 78.55L162.03 75.50L154.25 83.97L157.12 95.49L167.76 98.54ZM157.12 95.49L154.25 83.97L143.61 80.92L135.84 89.40L138.71 100.92L149.34 103.96ZM180.45 70.08L177.59 58.55L166.94 55.50L159.16 63.97L162.03 75.50L172.67 78.55ZM171.86 35.49L169.00 23.95L158.34 20.91L150.56 29.39L153.43 40.92L164.08 43.97ZM185.38 50.07L182.51 38.54L171.86 35.49L164.08 43.97L166.94 55.50L177.59 58.55ZM220.97 113.83L218.11 102.30L207.46 99.24L199.68 107.71L202.54 119.23L213.18 122.29ZM189.04 104.65L186.18 93.13L175.53 90.07L167.76 98.54L170.62 110.07L181.26 113.12ZM202.54 119.23L199.68 107.71L189.04 104.65L181.26 113.12L184.12 124.64L194.76 127.70ZM7.34 9.98L4.45 -1.54L-6.19 -4.55L-13.93 3.94L-11.04 15.45L-0.41 18.47ZM52.76 33.59L49.88 22.07L39.24 19.04L31.49 27.53L34.37 39.05L45.01 42.07ZM57.64 13.58L54.76 2.06L44.12 -0.97L36.36 7.53L39.24 19.04L49.88 22.07ZM45.68 202.48L42.81 190.99L32.20 187.96L24.47 196.42L27.34 207.91L37.95 210.94ZM97.03 131.75L94.15 120.24L83.53 117.20L75.77 125.67L78.65 137.18L89.27 140.22ZM66.28 48.13L63.40 36.62L52.76 33.59L45.01 42.07L47.89 53.59L58.52 56.62ZM147.30 135.46L144.44 123.95L133.81 120.90L126.04 129.37L128.91 140.88L139.54 143.93ZM128.91 140.88L126.04 129.37L115.41 126.32L107.65 134.79L110.52 146.30L121.15 149.34ZM152.21 115.48L149.34 103.96L138.71 100.92L130.94 109.39L133.81 120.90L144.44 123.95ZM174.29 164.60L171.43 153.08L160.80 150.03L153.03 158.49L155.89 170.00L166.52 173.05Z"/></svg>
