<svg xmlns="http://www.w3.org/2000/svg" width="256" height="256" viewBox="0 0 256 256"><path data-band="2" fill="#f97316" fill-opacity="0.35" d="M272.23 65.10L269.39 53.59L258.77 50.51L251.00 58.94L253.84 70.44L264.46 73.52ZM253.84 70.44L251.00 58.94L240.38 55.87L232.61 64.29L235.46 75.79L246.07 78.86ZM277.17 45.17L274.33 33.66L263.71 30.58L255.93 39.01L258.77 50.51L269.39 53.59ZM258.77 50.51L255.93 39.01L245.31 35.94L237.54 44.37L240.38 55.87L251.00 58.94ZM267.30 85.02L264.46 73.52L253.84 70.44L246.07 78.86L248.91 90.36L259.52 93.44ZM222.00 61.22L219.15 49.72L208.54 46.66L200.78 55.09L203.63 66.58L214.24 69.65ZM203.63 66.58L200.78 55.09L190.17 52.02L182.41 60.45L185.26 71.94L195.87 75.01ZM226.92 41.29L224.07 29.79L213.46 26.73L205.69 35.16L208.54 46.66L219.15 49.72ZM208.54 46.66L205.69 35.16L195.08 32.09L187.32 40.53L190.17 52.02L200.78 55.09ZM235.46 75.79L232.61 64.29L222.00 61.22L214.24 69.65L217.08 81.14L227.69 84.21ZM217.08 81.14L214.24 69.65L203.63 66.58L195.87 75.01L198.72 86.50L209.32 89.56ZM240.38 55.87L237.54 44.37L226.92 41.29L219.15 49.72L222.00 61.22L232.61 64.29ZM250.24 16.00L247.39 4.49L236.77 1.42L229.00 9.86L231.84 21.36L242.46 24.43ZM231.84 21.36L229.00 9.86L218.37 6.79L210.61 15.22L213.46 26.73L224.07 29.79ZM255.17 -3.95L252.33 -15.46L241.70 -18.53L233.92 -10.09L236.77 1.42L247.39 4.49ZM236.77 1.42L233.92 -10.09L223.30 -13.16L215.52 -4.72L218.37 6.79L229.00 9.86ZM263.71 30.58L260.86 19.07L250.24 16.00L242.46 24.43L245.31 35.94L255.93 39.01ZM245.31 35.94L242.46 24.43L231.84 21.36L224.07 29.79L226.92 41.29L237.54 44.37ZM268.64 10.64L265.80 -0.87L255.17 -3.95L247.39 4.49L250.24 16.00L260.86 19.07ZM275.81 119.51L272.98 108.01L262.36 104.93L254.60 113.35L257.44 124.84L268.04 127.92ZM243.99 110.27L241.15 98.78L230.54 95.71L222.78 104.13L225.62 115.62L236.22 118.69ZM225.62 115.62L222.78 104.13L212.17 101.05L204.41 109.47L207.26 120.96L217.86 124.03ZM248.91 90.36L246.07 78.86L235.46 75.79L227.69 84.21L230.54 95.71L241.15 98.78ZM230.54 95.71L227.69 84.21L217.08 81.14L209.32 89.56L212.17 101.05L222.78 104.13ZM257.44 124.84L254.60 113.35L243.99 110.27L236.22 118.69L239.07 130.18L249.67 133.26ZM239.07 130.18L236.22 118.69L225.62 115.62L217.86 124.03L220.71 135.52L231.31 138.59ZM262.36 104.93L259.52 93.44L248.91 90.36L241.15 98.78L243.99 110.27L254.60 113.35ZM9.62 234.15L6.75 222.71L-3.81 219.67L-11.50 228.08L-8.63 239.52L1.93 242.55ZM14.45 214.30L11.58 202.85L1.02 199.82L-6.68 208.23L-3.81 219.67L6.75 222.71ZM23.04 248.63L20.18 237.19L9.62 234.15L1.93 242.55L4.79 254.00L15.35 257.03ZM4.79 254.00L1.93 242.55L-8.63 239.52L-16.31 247.92L-13.45 259.36L-2.89 262.40ZM27.88 228.79L25.01 217.34L14.45 214.30L6.75 222.71L9.62 234.15L20.18 237.19ZM36.46 263.12L33.60 251.68L23.04 248.63L15.35 257.03L18.21 268.47L28.77 271.52ZM18.21 268.47L15.35 257.03L4.79 254.00L-2.89 262.40L-0.03 273.83L10.52 276.87ZM49.44 0.88L46.57 -10.60L35.97 -13.64L28.24 -5.19L31.11 6.29L41.71 9.32ZM31.11 6.29L28.24 -5.19L17.64 -8.22L9.92 0.23L12.80 11.70L23.39 14.74ZM62.91 15.40L60.04 3.92L49.44 0.88L41.71 9.32L44.58 20.80L55.18 23.84ZM44.58 20.80L41.71 9.32L31.11 6.29L23.39 14.74L26.26 26.21L36.86 29.25ZM67.77 -4.53L64.90 -16.02L54.30 -19.05L46.57 -10.60L49.44 0.88L60.04 3.92ZM12.80 11.70L9.92 0.23L-0.68 -2.80L-8.39 5.65L-5.51 17.12L5.08 20.15ZM17.64 -8.22L14.77 -19.70L4.17 -22.73L-3.55 -14.28L-0.68 -2.80L9.92 0.23ZM71.51 49.84L68.65 38.36L58.05 35.32L50.32 43.76L53.19 55.24L63.78 58.28ZM53.19 55.24L50.32 43.76L39.73 40.72L32.01 49.16L34.88 60.63L45.47 63.67ZM76.38 29.92L73.51 18.44L62.91 15.40L55.18 23.84L58.05 35.32L68.65 38.36ZM58.05 35.32L55.18 23.84L44.58 20.80L36.86 29.25L39.73 40.72L50.32 43.76ZM84.97 64.36L82.11 52.88L71.51 49.84L63.78 58.28L66.65 69.75L77.24 72.80ZM66.65 69.75L63.78 58.28L53.19 55.24L45.47 63.67L48.34 75.14L58.93 78.18ZM89.84 44.45L86.98 32.97L76.38 29.92L68.65 38.36L71.51 49.84L82.11 52.88ZM21.42 46.13L18.54 34.65L7.95 31.62L0.24 40.06L3.11 51.53L13.70 54.57ZM3.11 51.53L0.24 40.06L-10.35 37.04L-18.06 45.48L-15.18 56.94L-4.60 59.97ZM26.26 26.21L23.39 14.74L12.80 11.70L5.08 20.15L7.95 31.62L18.54 34.65ZM7.95 31.62L5.08 20.15L-5.51 17.12L-13.23 25.57L-10.35 37.04L0.24 40.06ZM34.88 60.63L32.01 49.16L21.42 46.13L13.70 54.57L16.57 66.04L27.16 69.07ZM16.57 66.04L13.70 54.57L3.11 51.53L-4.60 59.97L-1.72 71.44L8.86 74.47ZM39.73 40.72L36.86 29.25L26.26 26.21L18.54 34.65L21.42 46.13L32.01 49.16ZM99.59 4.60L96.72 -6.89L86.12 -9.93L78.38 -1.49L81.24 10.00L91.85 13.04ZM81.24 10.00L78.38 -1.49L67.77 -4.53L60.04 3.92L62.91 15.40L73.51 18.44ZM113.06 19.13L110.19 7.65L99.59 4.60L91.85 13.04L94.71 24.53L105.32 27.57ZM94.71 24.53L91.85 13.04L81.24 10.00L73.51 18.44L76.38 29.92L86.98 32.97ZM117.94 -0.80L115.08 -12.29L104.47 -15.34L96.72 -6.89L99.59 4.60L110.19 7.65ZM143.67 102.58L140.81 91.10L130.22 88.04L122.48 96.47L125.34 107.95L135.93 111.00ZM125.34 107.95L122.48 96.47L111.88 93.42L104.15 101.84L107.01 113.32L117.60 116.37ZM148.56 82.67L145.70 71.19L135.10 68.13L127.36 76.56L130.22 88.04L140.81 91.10ZM130.22 88.04L127.36 76.56L116.76 73.51L109.02 81.94L111.88 93.42L122.48 96.47ZM157.12 117.12L154.27 105.64L143.67 102.58L135.93 111.00L138.78 122.48L149.38 125.54ZM138.78 122.48L135.93 111.00L125.34 107.95L117.60 116.37L120.46 127.84L131.05 130.90ZM162.01 97.21L159.16 85.73L148.56 82.67L140.81 91.10L143.67 102.58L154.27 105.64ZM93.56 98.79L90.70 87.32L80.11 84.27L72.38 92.70L75.24 104.17L85.83 107.22ZM75.24 104.17L72.38 92.70L61.79 89.66L54.07 98.08L56.94 109.55L67.52 112.60ZM98.43 78.89L95.57 67.41L84.97 64.36L77.24 72.80L80.11 84.27L90.70 87.32ZM80.11 84.27L77.24 72.80L66.65 69.75L58.93 78.18L61.79 89.66L72.38 92.70ZM107.01 113.32L104.15 101.84L93.56 98.79L85.83 107.22L88.69 118.69L99.28 121.74ZM88.69 118.69L85.83 107.22L75.24 104.17L67.52 112.60L70.39 124.06L80.97 127.11ZM111.88 93.42L109.02 81.94L98.43 78.89L90.70 87.32L93.56 98.79L104.15 101.84ZM171.80 57.39L168.95 45.90L158.34 42.84L150.59 51.27L153.45 62.76L164.05 65.82ZM153.45 62.76L150.59 51.27L139.99 48.21L132.24 56.65L135.10 68.13L145.70 71.19ZM176.70 37.46L173.85 25.97L163.24 22.91L155.49 31.35L158.34 42.84L168.95 45.90ZM158.34 42.84L155.49 31.35L144.88 28.29L137.13 36.73L139.99 48.21L150.59 51.27ZM185.26 71.94L182.41 60.45L171.80 57.39L164.05 65.82L166.91 77.30L177.51 80.37ZM166.91 77.30L164.05 65.82L153.45 62.76L145.70 71.19L148.56 82.67L159.16 85.73ZM190.17 52.02L187.32 40.53L176.70 37.46L168.95 45.90L171.80 57.39L182.41 60.45ZM121.64 53.59L118.78 42.11L108.18 39.06L100.44 47.50L103.30 58.98L113.90 62.03ZM103.30 58.98L100.44 47.50L89.84 44.45L82.11 52.88L84.97 64.36L95.57 67.41ZM126.52 33.67L123.66 22.18L113.06 19.13L105.32 27.57L108.18 39.06L118.78 42.11ZM108.18 39.06L105.32 27.57L94.71 24.53L86.98 32.97L89.84 44.45L100.44 47.50ZM135.10 68.13L132.24 56.65L121.64 53.59L113.90 62.03L116.76 73.51L127.36 76.56ZM116.76 73.51L113.90 62.03L103.30 58.98L95.57 67.41L98.43 78.89L109.02 81.94ZM139.99 48.21L137.13 36.73L126.52 33.67L118.78 42.11L121.64 53.59L132.24 56.65ZM165.67 151.55L162.82 140.08L152.23 137.01L144.49 145.43L147.35 156.90L157.93 159.96ZM147.35 156.90L144.49 145.43L133.90 142.37L126.17 150.79L129.03 162.26L139.61 165.31ZM170.57 131.66L167.71 120.18L157.12 117.12L149.38 125.54L152.23 137.01L162.82 140.08ZM152.23 137.01L149.38 125.54L138.78 122.48L131.05 130.90L133.90 142.37L144.49 145.43ZM179.11 166.09L176.26 154.62L165.67 151.55L157.93 159.96L160.78 171.44L171.37 174.50ZM160.78 171.44L157.93 159.96L147.35 156.90L139.61 165.31L142.46 176.78L153.05 179.85ZM184.01 146.20L181.16 134.72L170.57 131.66L162.82 140.08L165.67 151.55L176.26 154.62ZM115.58 147.73L112.73 136.26L102.14 133.21L94.42 141.63L97.27 153.09L107.86 156.15ZM97.27 153.09L94.42 141.63L83.83 138.58L76.11 147.00L78.97 158.46L89.55 161.51ZM120.46 127.84L117.60 116.37L107.01 113.32L99.28 121.74L102.14 133.21L112.73 136.26ZM102.14 133.21L99.28 121.74L88.69 118.69L80.97 127.11L83.83 138.58L94.42 141.63ZM129.03 162.26L126.17 150.79L115.58 147.73L107.86 156.15L110.71 167.61L121.30 170.67ZM110.71 167.61L107.86 156.15L97.27 153.09L89.55 161.51L92.41 172.97L102.99 176.02ZM133.90 142.37L131.05 130.90L120.46 127.84L112.73 136.26L115.58 147.73L126.17 150.79ZM193.81 106.41L190.96 94.92L180.36 91.85L172.61 100.28L175.46 111.76L186.06 114.83ZM175.46 111.76L172.61 100.28L162.01 97.21L154.27 105.64L157.12 117.12L167.71 120.18ZM198.72 86.50L195.87 75.01L185.26 71.94L177.51 80.37L180.36 91.85L190.96 94.92ZM180.36 91.85L177.51 80.37L166.91 77.30L159.16 85.73L162.01 97.21L172.61 100.28ZM207.26 120.96L204.41 109.47L193.81 106.41L186.06 114.83L188.91 126.31L199.51 129.38ZM188.91 126.31L186.06 114.83L175.46 111.76L167.71 120.18L170.57 131.66L181.16 134.72ZM212.17 101.05L209.32 89.56L198.72 86.50L190.96 94.92L193.81 106.41L204.41 109.47ZM15.51 140.21L12.64 128.75L2.06 125.72L-5.64 134.14L-2.77 145.60L7.81 148.63ZM20.35 120.33L17.48 108.86L6.90 105.83L-0.81 114.26L2.06 125.72L12.64 128.75ZM2.06 125.72L-0.81 114.26L-11.38 111.23L-19.08 119.65L-16.21 131.11L-5.64 134.14ZM28.95 154.70L26.08 143.25L15.51 140.21L7.81 148.63L10.68 160.08L21.25 163.12ZM10.68 160.08L7.81 148.63L-2.77 145.60L-10.46 154.02L-7.59 165.47L2.98 168.50ZM33.79 134.82L30.93 123.36L20.35 120.33L12.64 128.75L15.51 140.21L26.08 143.25ZM43.49 95.04L40.62 83.58L30.03 80.54L22.32 88.97L25.19 100.44L35.77 103.47ZM25.19 100.44L22.32 88.97L11.73 85.94L4.03 94.37L6.90 105.83L17.48 108.86ZM48.34 75.14L45.47 63.67L34.88 60.63L27.16 69.07L30.03 80.54L40.62 83.58ZM30.03 80.54L27.16 69.07L16.57 66.04L8.86 74.47L11.73 85.94L22.32 88.97ZM56.94 109.55L54.07 98.08L43.49 95.04L35.77 103.47L38.64 114.94L49.22 117.98ZM38.64 114.94L35.77 103.47L25.19 100.44L17.48 108.86L20.35 120.33L30.93 123.36ZM61.79 89.66L58.93 78.18L48.34 75.14L40.62 83.58L43.49 95.04L54.07 98.08ZM6.90 105.83L4.03 94.37L-6.55 91.34L-14.26 99.77L-11.38 111.23L-0.81 114.26ZM11.73 85.94L8.86 74.47L-1.72 71.44L-9.43 79.87L-6.55 91.34L4.03 94.37ZM37.55 189.07L34.68 177.62L24.11 174.58L16.41 182.99L19.28 194.44L29.85 197.48ZM19.28 194.44L16.41 182.99L5.84 179.95L-1.85 188.37L1.02 199.82L11.58 202.85ZM42.39 169.20L39.53 157.74L28.95 154.70L21.25 163.12L24.11 174.58L34.68 177.62ZM24.11 174.58L21.25 163.12L10.68 160.08L2.98 168.50L5.84 179.95L16.41 182.99ZM50.98 203.57L48.12 192.11L37.55 189.07L29.85 197.48L32.71 208.93L43.28 211.97ZM32.71 208.93L29.85 197.48L19.28 194.44L11.58 202.85L14.45 214.30L25.01 217.34ZM55.83 183.70L52.97 172.24L42.39 169.20L34.68 177.62L37.55 189.07L48.12 192.11ZM1.02 199.82L-1.85 188.37L-12.42 185.33L-20.11 193.75L-17.24 205.19L-6.68 208.23ZM5.84 179.95L2.98 168.50L-7.59 165.47L-15.29 173.89L-12.42 185.33L-1.85 188.37ZM65.53 143.95L62.67 132.49L52.09 129.44L44.37 137.86L47.24 149.33L57.81 152.37ZM47.24 149.33L44.37 137.86L33.79 134.82L26.08 143.25L28.95 154.70L39.53 157.74ZM70.39 124.06L67.52 112.60L56.94 109.55L49.22 117.98L52.09 129.44L62.67 132.49ZM52.09 129.44L49.22 117.98L38.64 114.94L30.93 123.36L33.79 134.82L44.37 137.86ZM78.97 158.46L76.11 147.00L65.53 143.95L57.81 152.37L60.68 163.83L71.25 166.87ZM60.68 163.83L57.81 152.37L47.24 149.33L39.53 157.74L42.39 169.20L52.97 172.24ZM83.83 138.58L80.97 127.11L70.39 124.06L62.67 132.49L65.53 143.95L76.11 147.00ZM199.99 12.16L197.14 0.66L186.52 -2.41L178.76 6.03L181.61 17.53L192.22 20.59ZM181.61 17.53L178.76 6.03L168.14 2.98L160.38 11.41L163.24 22.91L173.85 25.97ZM204.90 -7.78L202.05 -19.29L191.43 -22.35L183.66 -13.91L186.52 -2.41L197.14 0.66ZM186.52 -2.41L183.66 -13.91L173.04 -16.97L165.28 -8.52L168.14 2.98L178.76 6.03ZM213.46 26.73L210.61 15.22L199.99 12.16L192.22 20.59L195.08 32.09L205.69 35.16ZM195.08 32.09L192.22 20.59L181.61 17.53L173.85 25.97L176.70 37.46L187.32 40.53ZM218.37 6.79L215.52 -4.72L204.90 -7.78L197.14 0.66L199.99 12.16L210.61 15.22ZM149.77 8.36L146.91 -3.14L136.30 -6.19L128.55 2.25L131.41 13.75L142.02 16.80ZM131.41 13.75L128.55 2.25L117.94 -0.80L110.19 7.65L113.06 19.13L123.66 22.18ZM136.30 -6.19L133.44 -17.69L122.83 -20.74L115.08 -12.29L117.94 -0.80L128.55 2.25ZM163.24 22.91L160.38 11.41L149.77 8.36L142.02 16.80L144.88 28.29L155.49 31.35ZM144.88 28.29L142.02 16.80L131.41 13.75L123.66 22.18L126.52 33.67L137.13 36.73ZM168.14 2.98L165.28 -8.52L154.67 -11.58L146.91 -3.14L149.77 8.36L160.38 11.41ZM237.76 204.41L234.92 192.93L224.32 189.85L216.57 198.26L219.42 209.73L230.00 212.81ZM219.42 209.73L216.57 198.26L205.98 195.18L198.24 203.58L201.08 215.06L211.67 218.13ZM242.67 184.53L239.83 173.05L229.23 169.97L221.48 178.37L224.32 189.85L234.92 192.93ZM224.32 189.85L221.48 178.37L210.89 175.30L203.14 183.71L205.98 195.18L216.57 198.26ZM251.18 218.97L248.35 207.49L237.76 204.41L230.00 212.81L232.84 224.28L243.43 227.36ZM232.84 224.28L230.00 212.81L219.42 209.73L211.67 218.13L214.51 229.60L225.10 232.68ZM256.10 199.09L253.27 187.61L242.67 184.53L234.92 192.93L237.76 204.41L248.35 207.49ZM187.65 200.51L184.81 189.04L174.22 185.97L166.48 194.38L169.33 205.85L179.91 208.92ZM169.33 205.85L166.48 194.38L155.90 191.32L148.17 199.72L151.02 211.19L161.60 214.25ZM192.55 180.64L189.70 169.16L179.11 166.09L171.37 174.50L174.22 185.97L184.81 189.04ZM174.22 185.97L171.37 174.50L160.78 171.44L153.05 179.85L155.90 191.32L166.48 194.38ZM201.08 215.06L198.24 203.58L187.65 200.51L179.91 208.92L182.76 220.38L193.34 223.45ZM182.76 220.38L179.91 208.92L169.33 205.85L161.60 214.25L164.44 225.72L175.02 228.78ZM205.98 195.18L203.14 183.71L192.55 180.64L184.81 189.04L187.65 200.51L198.24 203.58ZM265.95 159.31L263.11 147.82L252.51 144.75L244.75 153.15L247.59 164.64L258.19 167.72ZM247.59 164.64L244.75 153.15L234.15 150.08L226.39 158.49L229.23 169.97L239.83 173.05ZM270.88 139.42L268.04 127.92L257.44 124.84L249.67 133.26L252.51 144.75L263.11 147.82ZM252.51 144.75L249.67 133.26L239.07 130.18L231.31 138.59L234.15 150.08L244.75 153.15ZM261.03 179.20L258.19 167.72L247.59 164.64L239.83 173.05L242.67 184.53L253.27 187.61ZM215.80 155.41L212.95 143.93L202.35 140.86L194.60 149.27L197.45 160.75L208.04 163.82ZM197.45 160.75L194.60 149.27L184.01 146.20L176.26 154.62L179.11 166.09L189.70 169.16ZM220.71 135.52L217.86 124.03L207.26 120.96L199.51 129.38L202.35 140.86L212.95 143.93ZM202.35 140.86L199.51 129.38L188.91 126.31L181.16 134.72L184.01 146.20L194.60 149.27ZM229.23 169.97L226.39 158.49L215.80 155.41L208.04 163.82L210.89 175.30L221.48 178.37ZM210.89 175.30L208.04 163.82L197.45 160.75L189.70 169.16L192.55 180.64L203.14 183.71ZM234.15 150.08L231.31 138.59L220.71 135.52L212.95 143.93L215.80 155.41L226.39 158.49ZM259.69 253.39L256.86 241.92L246.27 238.84L238.52 247.23L241.36 258.70L251.94 261.78ZM241.36 258.70L238.52 247.23L227.93 244.15L220.19 252.54L223.03 264.01L233.61 267.09ZM264.61 233.53L261.78 222.05L251.18 218.97L243.43 227.36L246.27 238.84L256.86 241.92ZM246.27 238.84L243.43 227.36L232.84 224.28L225.10 232.68L227.93 244.15L238.52 247.23ZM273.11 267.95L270.28 256.48L259.69 253.39L251.94 261.78L254.77 273.25L265.36 276.34ZM209.61 249.46L206.77 238.00L196.19 234.92L188.45 243.32L191.29 254.78L201.87 257.86ZM191.29 254.78L188.45 243.32L177.87 240.25L170.14 248.64L172.98 260.10L183.56 263.17ZM214.51 229.60L211.67 218.13L201.08 215.06L193.34 223.45L196.19 234.92L206.77 238.00ZM196.19 234.92L193.34 223.45L182.76 220.38L175.02 228.78L177.87 240.25L188.45 243.32ZM223.03 264.01L220.19 252.54L209.61 249.46L201.87 257.86L204.71 269.32L215.29 272.40ZM204.71 269.32L201.87 257.86L191.29 254.78L183.56 263.17L186.40 274.64L196.97 277.71ZM227.93 244.15L225.10 232.68L214.51 229.60L206.77 238.00L209.61 249.46L220.19 252.54ZM269.53 213.65L266.70 202.17L256.10 199.09L248.35 207.49L251.18 218.97L261.78 222.05ZM274.46 193.77L271.63 182.29L261.03 179.20L253.27 187.61L256.10 199.09L266.70 202.17ZM109.55 241.73L106.69 230.27L96.12 227.22L88.41 235.62L91.26 247.07L101.83 250.13ZM91.26 247.07L88.41 235.62L77.84 232.57L70.13 240.97L72.99 252.42L83.55 255.47ZM114.41 221.87L111.56 210.41L100.98 207.36L93.26 215.76L96.12 227.22L106.69 230.27ZM96.12 227.22L93.26 215.76L82.69 212.71L74.98 221.11L77.84 232.57L88.41 235.62ZM122.97 256.24L120.12 244.79L109.55 241.73L101.83 250.13L104.68 261.58L115.25 264.64ZM104.68 261.58L101.83 250.13L91.26 247.07L83.55 255.47L86.41 266.92L96.97 269.97ZM127.84 236.39L124.99 224.93L114.41 221.87L106.69 230.27L109.55 241.73L120.12 244.79ZM59.57 237.92L56.71 226.47L46.14 223.42L38.44 231.83L41.30 243.28L51.86 246.32ZM41.30 243.28L38.44 231.83L27.88 228.79L20.18 237.19L23.04 248.63L33.60 251.68ZM64.41 218.07L61.55 206.61L50.98 203.57L43.28 211.97L46.14 223.42L56.71 226.47ZM46.14 223.42L43.28 211.97L32.71 208.93L25.01 217.34L27.88 228.79L38.44 231.83ZM72.99 252.42L70.13 240.97L59.57 237.92L51.86 246.32L54.72 257.77L65.28 260.82ZM54.72 257.77L51.86 246.32L41.30 243.28L33.60 251.68L36.46 263.12L47.02 266.16ZM77.84 232.57L74.98 221.11L64.41 218.07L56.71 226.47L59.57 237.92L70.13 240.97ZM137.58 196.66L134.73 185.19L124.15 182.13L116.42 190.54L119.28 202.01L129.86 205.06ZM119.28 202.01L116.42 190.54L105.85 187.49L98.13 195.90L100.98 207.36L111.56 210.41ZM142.46 176.78L139.61 165.31L129.03 162.26L121.30 170.67L124.15 182.13L134.73 185.19ZM124.15 182.13L121.30 170.67L110.71 167.61L102.99 176.02L105.85 187.49L116.42 190.54ZM151.02 211.19L148.17 199.72L137.58 196.66L129.86 205.06L132.71 216.53L143.29 219.59ZM132.71 216.53L129.86 205.06L119.28 202.01L111.56 210.41L114.41 221.87L124.99 224.93ZM155.90 191.32L153.05 179.85L142.46 176.78L134.73 185.19L137.58 196.66L148.17 199.72ZM87.55 192.84L84.69 181.38L74.12 178.34L66.40 186.75L69.26 198.20L79.83 201.25ZM69.26 198.20L66.40 186.75L55.83 183.70L48.12 192.11L50.98 203.57L61.55 206.61ZM92.41 172.97L89.55 161.51L78.97 158.46L71.25 166.87L74.12 178.34L84.69 181.38ZM74.12 178.34L71.25 166.87L60.68 163.83L52.97 172.24L55.83 183.70L66.40 186.75ZM100.98 207.36L98.13 195.90L87.55 192.84L79.83 201.25L82.69 212.71L93.26 215.76ZM82.69 212.71L79.83 201.25L69.26 198.20L61.55 206.61L64.41 218.07L74.98 221.11ZM105.85 187.49L102.99 176.02L92.41 172.97L84.69 181.38L87.55 192.84L98.13 195.90ZM86.41 266.92L83.55 255.47L72.99 252.42L65.28 260.82L68.14 272.26L78.70 275.31ZM159.56 245.58L156.71 234.11L146.14 231.05L138.41 239.45L141.26 250.91L151.83 253.97ZM141.26 250.91L138.41 239.45L127.84 236.39L120.12 244.79L122.97 256.24L133.54 259.30ZM164.44 225.72L161.60 214.25L151.02 211.19L143.29 219.59L146.14 231.05L156.71 234.11ZM146.14 231.05L143.29 219.59L132.71 216.53L124.99 224.93L127.84 236.39L138.41 239.45ZM172.98 260.10L170.14 248.64L159.56 245.58L151.83 253.97L154.68 265.43L165.25 268.50ZM154.68 265.43L151.83 253.97L141.26 250.91L133.54 259.30L136.39 270.76L146.96 273.82ZM177.87 240.25L175.02 228.78L164.44 225.72L156.71 234.11L159.56 245.58L170.14 248.64Z"/></svg>
