<svg xmlns="http://www.w3.org/2000/svg" width="256" height="256" viewBox="0 0 256 256"><path data-band="2" fill="#f97316" fill-opacity="0.35" d="M228.65 209.69L225.83 198.29L215.32 195.20L207.64 203.50L210.46 214.90L220.96 217.99ZM210.46 214.90L207.64 203.50L197.13 200.41L189.44 208.72L192.27 220.11L202.77 223.20ZM233.53 189.98L230.71 178.58L220.19 175.48L212.50 183.79L215.32 195.20L225.83 198.29ZM215.32 195.20L212.50 183.79L201.99 180.70L194.30 189.01L197.13 200.41L207.64 203.50ZM241.98 224.19L239.16 212.79L228.65 209.69L220.96 217.99L223.78 229.39L234.29 232.49ZM223.78 229.39L220.96 217.99L210.46 214.90L202.77 223.20L205.59 234.60L216.10 237.69ZM246.86 204.48L244.04 193.08L233.53 189.98L225.83 198.29L228.65 209.69L239.16 212.79ZM178.94 205.63L176.11 194.23L165.61 191.15L157.93 199.46L160.76 210.85L171.26 213.94ZM160.76 210.85L157.93 199.46L147.43 196.38L139.76 204.69L142.59 216.07L153.09 219.16ZM183.80 185.92L180.97 174.53L170.46 171.44L162.78 179.75L165.61 191.15L176.11 194.23ZM165.61 191.15L162.78 179.75L152.28 176.67L144.60 184.98L147.43 196.38L157.93 199.46ZM192.27 220.11L189.44 208.72L178.94 205.63L171.26 213.94L174.09 225.33L184.59 228.41ZM174.09 225.33L171.26 213.94L160.76 210.85L153.09 219.16L155.91 230.54L166.41 233.63ZM197.13 200.41L194.30 189.01L183.80 185.92L176.11 194.23L178.94 205.63L189.44 208.72ZM256.62 165.06L253.81 153.64L243.29 150.55L235.59 158.86L238.41 170.27L248.92 173.37ZM238.41 170.27L235.59 158.86L225.07 155.77L217.37 164.08L220.19 175.48L230.71 178.58ZM261.51 145.33L258.70 133.92L248.17 130.82L240.47 139.14L243.29 150.55L253.81 153.64ZM243.29 150.55L240.47 139.14L229.95 136.04L222.25 144.36L225.07 155.77L235.59 158.86ZM269.96 179.57L267.15 168.16L256.62 165.06L248.92 173.37L251.74 184.77L262.26 187.87ZM251.74 184.77L248.92 173.37L238.41 170.27L230.71 178.58L233.53 189.98L244.04 193.08ZM274.85 159.85L272.04 148.43L261.51 145.33L253.81 153.64L256.62 165.06L267.15 168.16ZM206.86 160.99L204.03 149.58L193.52 146.49L185.83 154.81L188.66 166.21L199.17 169.30ZM188.66 166.21L185.83 154.81L175.32 151.73L167.63 160.04L170.46 171.44L180.97 174.53ZM211.73 141.27L208.90 129.86L198.38 126.77L190.69 135.09L193.52 146.49L204.03 149.58ZM193.52 146.49L190.69 135.09L180.18 132.00L172.49 140.32L175.32 151.73L185.83 154.81ZM220.19 175.48L217.37 164.08L206.86 160.99L199.17 169.30L201.99 180.70L212.50 183.79ZM201.99 180.70L199.17 169.30L188.66 166.21L180.97 174.53L183.80 185.92L194.30 189.01ZM225.07 155.77L222.25 144.36L211.73 141.27L204.03 149.58L206.86 160.99L217.37 164.08ZM250.43 258.38L247.61 246.98L237.11 243.88L229.42 252.18L232.23 263.57L242.74 266.67ZM232.23 263.57L229.42 252.18L218.91 249.08L211.23 257.38L214.05 268.77L224.55 271.87ZM255.30 238.69L252.49 227.29L241.98 224.19L234.29 232.49L237.11 243.88L247.61 246.98ZM237.11 243.88L234.29 232.49L223.78 229.39L216.10 237.69L218.91 249.08L229.42 252.18ZM268.63 253.19L265.81 241.79L255.30 238.69L247.61 246.98L250.43 258.38L260.93 261.48ZM200.73 254.29L197.91 242.90L187.41 239.81L179.73 248.10L182.56 259.49L193.05 262.58ZM182.56 259.49L179.73 248.10L169.24 245.02L161.56 253.32L164.39 264.70L174.88 267.79ZM205.59 234.60L202.77 223.20L192.27 220.11L184.59 228.41L187.41 239.81L197.91 242.90ZM187.41 239.81L184.59 228.41L174.09 225.33L166.41 233.63L169.24 245.02L179.73 248.10ZM214.05 268.77L211.23 257.38L200.73 254.29L193.05 262.58L195.87 273.97L206.37 277.06ZM218.91 249.08L216.10 237.69L205.59 234.60L197.91 242.90L200.73 254.29L211.23 257.38ZM260.19 218.99L257.37 207.58L246.86 204.48L239.16 212.79L241.98 224.19L252.49 227.29ZM265.07 199.28L262.26 187.87L251.74 184.77L244.04 193.08L246.86 204.48L257.37 207.58ZM273.51 233.49L270.70 222.09L260.19 218.99L252.49 227.29L255.30 238.69L265.81 241.79ZM262.84 71.59L260.02 60.17L249.49 57.07L241.77 65.40L244.60 76.82L255.13 79.92ZM244.60 76.82L241.77 65.40L231.24 62.31L223.53 70.64L226.36 82.06L236.89 85.15ZM267.74 51.84L264.92 40.41L254.38 37.31L246.66 45.65L249.49 57.07L260.02 60.17ZM249.49 57.07L246.66 45.65L236.13 42.55L228.41 50.89L231.24 62.31L241.77 65.40ZM276.20 86.12L273.38 74.69L262.84 71.59L255.13 79.92L257.95 91.34L268.48 94.44ZM257.95 91.34L255.13 79.92L244.60 76.82L236.89 85.15L239.71 96.57L250.24 99.67ZM213.00 67.55L210.18 56.13L199.64 53.05L191.94 61.38L194.77 72.80L205.30 75.88ZM194.77 72.80L191.94 61.38L181.42 58.30L173.72 66.63L176.55 78.04L187.08 81.13ZM217.88 47.80L215.05 36.37L204.52 33.29L196.82 41.63L199.64 53.05L210.18 56.13ZM199.64 53.05L196.82 41.63L186.28 38.54L178.58 46.88L181.42 58.30L191.94 61.38ZM226.36 82.06L223.53 70.64L213.00 67.55L205.30 75.88L208.13 87.30L218.65 90.39ZM208.13 87.30L205.30 75.88L194.77 72.80L187.08 81.13L189.90 92.54L200.43 95.62ZM231.24 62.31L228.41 50.89L217.88 47.80L210.18 56.13L213.00 67.55L223.53 70.64ZM272.64 32.07L269.82 20.64L259.28 17.54L251.56 25.88L254.38 37.31L264.92 40.41ZM241.02 22.79L238.19 11.36L227.65 8.27L219.94 16.61L222.76 28.04L233.30 31.13ZM222.76 28.04L219.94 16.61L209.40 13.52L201.69 21.86L204.52 33.29L215.05 36.37ZM245.91 3.02L243.08 -8.42L232.54 -11.50L224.82 -3.16L227.65 8.27L238.19 11.36ZM227.65 8.27L224.82 -3.16L214.28 -6.25L206.57 2.10L209.40 13.52L219.94 16.61ZM254.38 37.31L251.56 25.88L241.02 22.79L233.30 31.13L236.13 42.55L246.66 45.65ZM236.13 42.55L233.30 31.13L222.76 28.04L215.05 36.37L217.88 47.80L228.41 50.89ZM259.28 17.54L256.45 6.11L245.91 3.02L238.19 11.36L241.02 22.79L251.56 25.88ZM266.40 125.60L263.59 114.18L253.06 111.08L245.35 119.40L248.17 130.82L258.70 133.92ZM271.30 105.86L268.48 94.44L257.95 91.34L250.24 99.67L253.06 111.08L263.59 114.18ZM234.83 116.31L232.00 104.89L221.48 101.80L213.78 110.13L216.60 121.54L227.12 124.63ZM216.60 121.54L213.78 110.13L203.25 107.04L195.56 115.36L198.38 126.77L208.90 129.86ZM239.71 96.57L236.89 85.15L226.36 82.06L218.65 90.39L221.48 101.80L232.00 104.89ZM221.48 101.80L218.65 90.39L208.13 87.30L200.43 95.62L203.25 107.04L213.78 110.13ZM248.17 130.82L245.35 119.40L234.83 116.31L227.12 124.63L229.95 136.04L240.47 139.14ZM229.95 136.04L227.12 124.63L216.60 121.54L208.90 129.86L211.73 141.27L222.25 144.36ZM253.06 111.08L250.24 99.67L239.71 96.57L232.00 104.89L234.83 116.31L245.35 119.40ZM8.12 145.11L5.28 133.73L-5.22 130.67L-12.86 139.00L-10.01 150.38L0.48 153.43ZM12.92 125.40L10.07 114.01L-0.43 110.96L-8.07 119.29L-5.22 130.67L5.28 133.73ZM21.46 159.54L18.62 148.16L8.12 145.11L0.48 153.43L3.33 164.81L13.82 167.87ZM3.33 164.81L0.48 153.43L-10.01 150.38L-17.65 158.71L-14.80 170.08L-4.31 173.13ZM26.27 139.84L23.42 128.45L12.92 125.40L5.28 133.73L8.12 145.11L18.62 148.16ZM35.88 100.41L33.03 89.01L22.53 85.96L14.87 94.29L17.72 105.68L28.22 108.74ZM17.72 105.68L14.87 94.29L4.37 91.24L-3.28 99.58L-0.43 110.96L10.07 114.01ZM40.69 80.68L37.84 69.28L27.33 66.23L19.68 74.57L22.53 85.96L33.03 89.01ZM22.53 85.96L19.68 74.57L9.17 71.51L1.52 79.85L4.37 91.24L14.87 94.29ZM49.23 114.85L46.38 103.46L35.88 100.41L28.22 108.74L31.07 120.13L41.57 123.18ZM31.07 120.13L28.22 108.74L17.72 105.68L10.07 114.01L12.92 125.40L23.42 128.45ZM54.04 95.13L51.20 83.74L40.69 80.68L33.03 89.01L35.88 100.41L46.38 103.46ZM4.37 91.24L1.52 79.85L-8.98 76.80L-16.63 85.14L-13.77 96.53L-3.28 99.58ZM30.00 193.68L27.15 182.30L16.67 179.24L9.02 187.56L11.87 198.94L22.36 201.99ZM11.87 198.94L9.02 187.56L-1.46 184.51L-9.10 192.82L-6.25 204.20L4.23 207.25ZM34.80 173.98L31.96 162.60L21.46 159.54L13.82 167.87L16.67 179.24L27.15 182.30ZM16.67 179.24L13.82 167.87L3.33 164.81L-4.31 173.13L-1.46 184.51L9.02 187.56ZM43.33 208.12L40.49 196.74L30.00 193.68L22.36 201.99L25.20 213.37L35.68 216.43ZM25.20 213.37L22.36 201.99L11.87 198.94L4.23 207.25L7.08 218.62L17.56 221.68ZM48.14 188.42L45.29 177.04L34.80 173.98L27.15 182.30L30.00 193.68L40.49 196.74ZM57.76 149.02L54.91 137.63L44.41 134.57L36.76 142.90L39.61 154.28L50.10 157.34ZM39.61 154.28L36.76 142.90L26.27 139.84L18.62 148.16L21.46 159.54L31.96 162.60ZM62.57 129.31L59.73 117.92L49.23 114.85L41.57 123.18L44.41 134.57L54.91 137.63ZM44.41 134.57L41.57 123.18L31.07 120.13L23.42 128.45L26.27 139.84L36.76 142.90ZM71.10 163.47L68.26 152.08L57.76 149.02L50.10 157.34L52.94 168.73L63.44 171.79ZM52.94 168.73L50.10 157.34L39.61 154.28L31.96 162.60L34.80 173.98L45.29 177.04ZM75.92 143.76L73.08 132.37L62.57 129.31L54.91 137.63L57.76 149.02L68.26 152.08ZM41.77 6.99L38.92 -4.41L28.40 -7.47L20.74 0.89L23.59 12.29L34.11 15.34ZM23.59 12.29L20.74 0.89L10.22 -2.16L2.56 6.19L5.42 17.59L15.93 20.64ZM28.40 -7.47L25.55 -18.87L15.03 -21.92L7.37 -13.57L10.22 -2.16L20.74 0.89ZM55.14 21.45L52.29 10.05L41.77 6.99L34.11 15.34L36.96 26.74L47.47 29.80ZM36.96 26.74L34.11 15.34L23.59 12.29L15.93 20.64L18.78 32.04L29.29 35.09ZM59.97 1.70L57.12 -9.71L46.59 -12.77L38.92 -4.41L41.77 6.99L52.29 10.05ZM5.42 17.59L2.56 6.19L-7.95 3.14L-15.61 11.49L-12.75 22.89L-2.24 25.94ZM10.22 -2.16L7.37 -13.57L-3.15 -16.61L-10.81 -8.26L-7.95 3.14L2.56 6.19ZM63.68 55.66L60.84 44.26L50.32 41.20L42.66 49.55L45.50 60.94L56.01 64.00ZM45.50 60.94L42.66 49.55L32.14 46.49L24.48 54.83L27.33 66.23L37.84 69.28ZM68.51 35.92L65.66 24.51L55.14 21.45L47.47 29.80L50.32 41.20L60.84 44.26ZM50.32 41.20L47.47 29.80L36.96 26.74L29.29 35.09L32.14 46.49L42.66 49.55ZM77.04 70.13L74.20 58.73L63.68 55.66L56.01 64.00L58.86 75.40L69.37 78.46ZM58.86 75.40L56.01 64.00L45.50 60.94L37.84 69.28L40.69 80.68L51.20 83.74ZM81.87 50.39L79.02 38.98L68.51 35.92L60.84 44.26L63.68 55.66L74.20 58.73ZM13.98 51.78L11.12 40.38L0.61 37.33L-7.04 45.68L-4.19 57.07L6.32 60.12ZM18.78 32.04L15.93 20.64L5.42 17.59L-2.24 25.94L0.61 37.33L11.12 40.38ZM0.61 37.33L-2.24 25.94L-12.75 22.89L-20.40 31.24L-17.55 42.63L-7.04 45.68ZM27.33 66.23L24.48 54.83L13.98 51.78L6.32 60.12L9.17 71.51L19.68 74.57ZM9.17 71.51L6.32 60.12L-4.19 57.07L-11.84 65.41L-8.98 76.80L1.52 79.85ZM32.14 46.49L29.29 35.09L18.78 32.04L11.12 40.38L13.98 51.78L24.48 54.83ZM91.53 10.88L88.69 -0.53L78.16 -3.59L70.49 4.76L73.33 16.17L83.86 19.23ZM73.33 16.17L70.49 4.76L59.97 1.70L52.29 10.05L55.14 21.45L65.66 24.51ZM78.16 -3.59L75.32 -15.00L64.79 -18.06L57.12 -9.71L59.97 1.70L70.49 4.76ZM104.90 25.36L102.06 13.95L91.53 10.88L83.86 19.23L86.70 30.64L97.22 33.70ZM86.70 30.64L83.86 19.23L73.33 16.17L65.66 24.51L68.51 35.92L79.02 38.98ZM109.74 5.60L106.90 -5.81L96.37 -8.88L88.69 -0.53L91.53 10.88L102.06 13.95ZM101.44 246.21L98.61 234.84L88.12 231.76L80.47 240.07L83.30 251.44L93.79 254.52ZM83.30 251.44L80.47 240.07L69.98 237.00L62.33 245.30L65.17 256.68L75.65 259.75ZM106.27 226.53L103.43 215.15L92.94 212.08L85.29 220.38L88.12 231.76L98.61 234.84ZM88.12 231.76L85.29 220.38L74.79 217.31L67.14 225.62L69.98 237.00L80.47 240.07ZM114.76 260.67L111.93 249.29L101.44 246.21L93.79 254.52L96.62 265.89L107.11 268.97ZM96.62 265.89L93.79 254.52L83.30 251.44L75.65 259.75L78.49 271.12L88.97 274.19ZM119.59 240.99L116.76 229.61L106.27 226.53L98.61 234.84L101.44 246.21L111.93 249.29ZM51.85 242.24L49.01 230.86L38.53 227.80L30.88 236.11L33.73 247.48L44.21 250.54ZM33.73 247.48L30.88 236.11L20.40 233.05L12.77 241.36L15.61 252.72L26.09 255.78ZM56.66 222.56L53.82 211.18L43.33 208.12L35.68 216.43L38.53 227.80L49.01 230.86ZM38.53 227.80L35.68 216.43L25.20 213.37L17.56 221.68L20.40 233.05L30.88 236.11ZM65.17 256.68L62.33 245.30L51.85 242.24L44.21 250.54L47.05 261.91L57.53 264.98ZM47.05 261.91L44.21 250.54L33.73 247.48L26.09 255.78L28.93 267.15L39.41 270.21ZM69.98 237.00L67.14 225.62L56.66 222.56L49.01 230.86L51.85 242.24L62.33 245.30ZM129.26 201.61L126.43 190.22L115.93 187.14L108.26 195.45L111.10 206.84L121.59 209.92ZM111.10 206.84L108.26 195.45L97.77 192.38L90.11 200.69L92.94 212.08L103.43 215.15ZM134.10 181.91L131.27 170.51L120.76 167.44L113.09 175.75L115.93 187.14L126.43 190.22ZM115.93 187.14L113.09 175.75L102.59 172.68L94.93 180.99L97.77 192.38L108.26 195.45ZM142.59 216.07L139.76 204.69L129.26 201.61L121.59 209.92L124.42 221.30L134.92 224.38ZM124.42 221.30L121.59 209.92L111.10 206.84L103.43 215.15L106.27 226.53L116.76 229.61ZM147.43 196.38L144.60 184.98L134.10 181.91L126.43 190.22L129.26 201.61L139.76 204.69ZM79.61 197.62L76.77 186.24L66.28 183.17L58.63 191.49L61.47 202.87L71.96 205.94ZM61.47 202.87L58.63 191.49L48.14 188.42L40.49 196.74L43.33 208.12L53.82 211.18ZM84.43 177.92L81.59 166.54L71.10 163.47L63.44 171.79L66.28 183.17L76.77 186.24ZM66.28 183.17L63.44 171.79L52.94 168.73L45.29 177.04L48.14 188.42L58.63 191.49ZM92.94 212.08L90.11 200.69L79.61 197.62L71.96 205.94L74.79 217.31L85.29 220.38ZM74.79 217.31L71.96 205.94L61.47 202.87L53.82 211.18L56.66 222.56L67.14 225.62ZM97.77 192.38L94.93 180.99L84.43 177.92L76.77 186.24L79.61 197.62L90.11 200.69ZM151.07 250.23L148.24 238.85L137.75 235.76L130.08 244.07L132.91 255.45L143.40 258.53ZM132.91 255.45L130.08 244.07L119.59 240.99L111.93 249.29L114.76 260.67L125.25 263.75ZM155.91 230.54L153.09 219.16L142.59 216.07L134.92 224.38L137.75 235.76L148.24 238.85ZM137.75 235.76L134.92 224.38L124.42 221.30L116.76 229.61L119.59 240.99L130.08 244.07ZM164.39 264.70L161.56 253.32L151.07 250.23L143.40 258.53L146.23 269.91L156.72 273.00ZM146.23 269.91L143.40 258.53L132.91 255.45L125.25 263.75L128.08 275.13L138.57 278.21ZM169.24 245.02L166.41 233.63L155.91 230.54L148.24 238.85L151.07 250.23L161.56 253.32ZM2.29 238.30L-0.56 226.93L-11.04 223.88L-18.66 232.19L-15.82 243.55L-5.34 246.61ZM7.08 218.62L4.23 207.25L-6.25 204.20L-13.88 212.51L-11.04 223.88L-0.56 226.93ZM15.61 252.72L12.77 241.36L2.29 238.30L-5.34 246.61L-2.50 257.97L7.98 261.03ZM20.40 233.05L17.56 221.68L7.08 218.62L-0.56 226.93L2.29 238.30L12.77 241.36ZM28.93 267.15L26.09 255.78L15.61 252.72L7.98 261.03L10.82 272.39L21.29 275.45ZM135.28 108.28L132.45 96.88L121.93 93.80L114.26 102.13L117.09 113.53L127.61 116.61ZM117.09 113.53L114.26 102.13L103.75 99.06L96.07 107.39L98.91 118.79L109.42 121.86ZM140.13 88.55L137.30 77.14L126.78 74.06L119.10 82.40L121.93 93.80L132.45 96.88ZM121.93 93.80L119.10 82.40L108.58 79.33L100.91 87.66L103.75 99.06L114.26 102.13ZM148.63 122.76L145.80 111.36L135.28 108.28L127.61 116.61L130.44 128.01L140.95 131.08ZM130.44 128.01L127.61 116.61L117.09 113.53L109.42 121.86L112.26 133.25L122.77 136.33ZM153.48 103.03L150.65 91.62L140.13 88.55L132.45 96.88L135.28 108.28L145.80 111.36ZM85.56 104.32L82.72 92.93L72.21 89.86L64.55 98.19L67.39 109.59L77.90 112.65ZM67.39 109.59L64.55 98.19L54.04 95.13L46.38 103.46L49.23 114.85L59.73 117.92ZM90.39 84.59L87.55 73.19L77.04 70.13L69.37 78.46L72.21 89.86L82.72 92.93ZM72.21 89.86L69.37 78.46L58.86 75.40L51.20 83.74L54.04 95.13L64.55 98.19ZM98.91 118.79L96.07 107.39L85.56 104.32L77.90 112.65L80.74 124.05L91.24 127.11ZM80.74 124.05L77.90 112.65L67.39 109.59L59.73 117.92L62.57 129.31L73.08 132.37ZM103.75 99.06L100.91 87.66L90.39 84.59L82.72 92.93L85.56 104.32L96.07 107.39ZM163.19 63.55L160.36 52.14L149.84 49.06L142.15 57.40L144.98 68.81L155.50 71.88ZM144.98 68.81L142.15 57.40L131.62 54.32L123.94 62.66L126.78 74.06L137.30 77.14ZM168.06 43.80L165.22 32.38L154.69 29.30L147.00 37.64L149.84 49.06L160.36 52.14ZM149.84 49.06L147.00 37.64L136.47 34.57L128.79 42.91L131.62 54.32L142.15 57.40ZM176.55 78.04L173.72 66.63L163.19 63.55L155.50 71.88L158.34 83.29L168.86 86.37ZM158.34 83.29L155.50 71.88L144.98 68.81L137.30 77.14L140.13 88.55L150.65 91.62ZM181.42 58.30L178.58 46.88L168.06 43.80L160.36 52.14L163.19 63.55L173.72 66.63ZM113.42 59.59L110.58 48.18L100.06 45.11L92.38 53.45L95.23 64.86L105.74 67.92ZM95.23 64.86L92.38 53.45L81.87 50.39L74.20 58.73L77.04 70.13L87.55 73.19ZM118.26 39.84L115.42 28.43L104.90 25.36L97.22 33.70L100.06 45.11L110.58 48.18ZM100.06 45.11L97.22 33.70L86.70 30.64L79.02 38.98L81.87 50.39L92.38 53.45ZM126.78 74.06L123.94 62.66L113.42 59.59L105.74 67.92L108.58 79.33L119.10 82.40ZM108.58 79.33L105.74 67.92L95.23 64.86L87.55 73.19L90.39 84.59L100.91 87.66ZM131.62 54.32L128.79 42.91L118.26 39.84L110.58 48.18L113.42 59.59L123.94 62.66ZM157.12 156.96L154.29 145.56L143.78 142.48L136.11 150.80L138.94 162.20L149.45 165.28ZM138.94 162.20L136.11 150.80L125.60 147.72L117.93 156.04L120.76 167.44L131.27 170.51ZM161.98 137.24L159.15 125.84L148.63 122.76L140.95 131.08L143.78 142.48L154.29 145.56ZM143.78 142.48L140.95 131.08L130.44 128.01L122.77 136.33L125.60 147.72L136.11 150.80ZM170.46 171.44L167.63 160.04L157.12 156.96L149.45 165.28L152.28 176.67L162.78 179.75ZM152.28 176.67L149.45 165.28L138.94 162.20L131.27 170.51L134.10 181.91L144.60 184.98ZM175.32 151.73L172.49 140.32L161.98 137.24L154.29 145.56L157.12 156.96L167.63 160.04ZM107.42 152.97L104.59 141.58L94.08 138.51L86.42 146.83L89.26 158.22L99.76 161.29ZM89.26 158.22L86.42 146.83L75.92 143.76L68.26 152.08L71.10 163.47L81.59 166.54ZM112.26 133.25L109.42 121.86L98.91 118.79L91.24 127.11L94.08 138.51L104.59 141.58ZM94.08 138.51L91.24 127.11L80.74 124.05L73.08 132.37L75.92 143.76L86.42 146.83ZM120.76 167.44L117.93 156.04L107.42 152.97L99.76 161.29L102.59 172.68L113.09 175.75ZM102.59 172.68L99.76 161.29L89.26 158.22L81.59 166.54L84.43 177.92L94.93 180.99ZM125.60 147.72L122.77 136.33L112.26 133.25L104.59 141.58L107.42 152.97L117.93 156.04ZM185.04 112.27L182.21 100.87L171.69 97.78L164.00 106.11L166.83 117.52L177.35 120.60ZM166.83 117.52L164.00 106.11L153.48 103.03L145.80 111.36L148.63 122.76L159.15 125.84ZM189.90 92.54L187.08 81.13L176.55 78.04L168.86 86.37L171.69 97.78L182.21 100.87ZM171.69 97.78L168.86 86.37L158.34 83.29L150.65 91.62L153.48 103.03L164.00 106.11ZM198.38 126.77L195.56 115.36L185.04 112.27L177.35 120.60L180.18 132.00L190.69 135.09ZM180.18 132.00L177.35 120.60L166.83 117.52L159.15 125.84L161.98 137.24L172.49 140.32ZM203.25 107.04L200.43 95.62L189.90 92.54L182.21 100.87L185.04 112.27L195.56 115.36ZM264.17 -2.23L261.35 -13.67L250.80 -16.76L243.08 -8.42L245.91 3.02L256.45 6.11ZM191.15 18.78L188.32 7.36L177.79 4.28L170.09 12.62L172.92 24.04L183.45 27.12ZM172.92 24.04L170.09 12.62L159.55 9.54L151.86 17.89L154.69 29.30L165.22 32.38ZM196.03 -0.99L193.20 -12.41L182.66 -15.49L174.95 -7.15L177.79 4.28L188.32 7.36ZM177.79 4.28L174.95 -7.15L164.42 -10.23L156.72 -1.88L159.55 9.54L170.09 12.62ZM204.52 33.29L201.69 21.86L191.15 18.78L183.45 27.12L186.28 38.54L196.82 41.63ZM186.28 38.54L183.45 27.12L172.92 24.04L165.22 32.38L168.06 43.80L178.58 46.88ZM209.40 13.52L206.57 2.10L196.03 -0.99L188.32 7.36L191.15 18.78L201.69 21.86ZM141.33 14.81L138.49 3.39L127.96 0.32L120.27 8.67L123.11 20.08L133.64 23.16ZM123.11 20.08L120.27 8.67L109.74 5.60L102.06 13.95L104.90 25.36L115.42 28.43ZM146.18 -4.95L143.35 -16.37L132.81 -19.45L125.12 -11.10L127.96 0.32L138.49 3.39ZM127.96 0.32L125.12 -11.10L114.59 -14.16L106.90 -5.81L109.74 5.60L120.27 8.67ZM154.69 29.30L151.86 17.89L141.33 14.81L133.64 23.16L136.47 34.57L147.00 37.64ZM136.47 34.57L133.64 23.16L123.11 20.08L115.42 28.43L118.26 39.84L128.79 42.91ZM159.55 9.54L156.72 -1.88L146.18 -4.95L138.49 3.39L141.33 14.81L151.86 17.89ZM214.28 -6.25L211.45 -17.68L200.91 -20.76L193.20 -12.41L196.03 -0.99L206.57 2.10Z"/></svg>
