<svg xmlns="http://www.w3.org/2000/svg" width="256" height="256" viewBox="0 0 256 256"><path data-band="2" fill="#f97316" fill-opacity="0.35" d="M155.92 -7.54L153.11 -18.89L142.65 -21.98L135.01 -13.72L137.83 -2.38L148.28 0.71ZM182.46 21.35L179.64 10.00L169.19 6.90L161.55 15.15L164.36 26.49L174.81 29.59ZM164.36 26.49L161.55 15.15L151.10 12.06L143.46 20.30L146.28 31.64L156.73 34.74ZM187.29 1.75L184.48 -9.60L174.02 -12.70L166.38 -4.45L169.19 6.90L179.64 10.00ZM169.19 6.90L166.38 -4.45L155.92 -7.54L148.28 0.71L151.10 12.06L161.55 15.15ZM195.72 35.79L192.91 24.45L182.46 21.35L174.81 29.59L177.62 40.93L188.08 44.03ZM177.62 40.93L174.81 29.59L164.36 26.49L156.73 34.74L159.54 46.08L169.99 49.18ZM200.56 16.20L197.75 4.85L187.29 1.75L179.64 10.00L182.46 21.35L192.91 24.45ZM133.01 17.21L130.20 5.87L119.75 2.78L112.12 11.03L114.94 22.37L125.38 25.46ZM114.94 22.37L112.12 11.03L101.67 7.95L94.05 16.20L96.87 27.53L107.31 30.62ZM137.83 -2.38L135.01 -13.72L124.56 -16.81L116.93 -8.56L119.75 2.78L130.20 5.87ZM119.75 2.78L116.93 -8.56L106.48 -11.65L98.85 -3.39L101.67 7.95L112.12 11.03ZM146.28 31.64L143.46 20.30L133.01 17.21L125.38 25.46L128.20 36.80L138.65 39.89ZM128.20 36.80L125.38 25.46L114.94 22.37L107.31 30.62L110.13 41.95L120.57 45.04ZM151.10 12.06L148.28 0.71L137.83 -2.38L130.20 5.87L133.01 17.21L143.46 20.30ZM205.40 -3.40L202.59 -14.75L192.13 -17.85L184.48 -9.60L187.29 1.75L197.75 4.85ZM34.23 9.06L31.40 -2.27L20.96 -5.34L13.35 2.91L16.18 14.24L26.62 17.31ZM16.18 14.24L13.35 2.91L2.92 -0.15L-4.68 8.10L-1.85 19.42L8.58 22.49ZM20.96 -5.34L18.13 -16.67L7.69 -19.74L0.08 -11.48L2.92 -0.15L13.35 2.91ZM47.49 23.46L44.67 12.13L34.23 9.06L26.62 17.31L29.45 28.64L39.88 31.71ZM29.45 28.64L26.62 17.31L16.18 14.24L8.58 22.49L11.41 33.82L21.85 36.89ZM52.28 3.88L49.45 -7.45L39.01 -10.53L31.40 -2.27L34.23 9.06L44.67 12.13ZM2.92 -0.15L0.08 -11.48L-10.35 -14.55L-17.95 -6.29L-15.12 5.04L-4.68 8.10ZM55.97 57.44L53.15 46.11L42.71 43.03L35.11 51.28L37.93 62.60L48.36 65.68ZM37.93 62.60L35.11 51.28L24.68 48.21L17.08 56.46L19.90 67.77L30.33 70.85ZM60.76 37.86L57.93 26.54L47.49 23.46L39.88 31.71L42.71 43.03L53.15 46.11ZM42.71 43.03L39.88 31.71L29.45 28.64L21.85 36.89L24.68 48.21L35.11 51.28ZM69.23 71.84L66.40 60.52L55.97 57.44L48.36 65.68L51.19 77.00L61.62 80.08ZM51.19 77.00L48.36 65.68L37.93 62.60L30.33 70.85L33.16 82.16L43.59 85.24ZM74.02 52.27L71.19 40.94L60.76 37.86L53.15 46.11L55.97 57.44L66.40 60.52ZM6.65 53.38L3.82 42.07L-6.61 39.00L-14.21 47.25L-11.37 58.56L-0.95 61.63ZM11.41 33.82L8.58 22.49L-1.85 19.42L-9.45 27.68L-6.61 39.00L3.82 42.07ZM19.90 67.77L17.08 56.46L6.65 53.38L-0.95 61.63L1.88 72.95L12.31 76.02ZM1.88 72.95L-0.95 61.63L-11.37 58.56L-18.96 66.81L-16.13 78.12L-5.71 81.19ZM24.68 48.21L21.85 36.89L11.41 33.82L3.82 42.07L6.65 53.38L17.08 56.46ZM83.60 13.12L80.78 1.78L70.34 -1.30L62.72 6.95L65.54 18.29L75.98 21.37ZM65.54 18.29L62.72 6.95L52.28 3.88L44.67 12.13L47.49 23.46L57.93 26.54ZM88.40 -6.47L85.58 -17.81L75.13 -20.89L67.51 -12.63L70.34 -1.30L80.78 1.78ZM70.34 -1.30L67.51 -12.63L57.07 -15.71L49.45 -7.45L52.28 3.88L62.72 6.95ZM96.87 27.53L94.05 16.20L83.60 13.12L75.98 21.37L78.81 32.70L89.25 35.78ZM78.81 32.70L75.98 21.37L65.54 18.29L57.93 26.54L60.76 37.86L71.19 40.94ZM101.67 7.95L98.85 -3.39L88.40 -6.47L80.78 1.78L83.60 13.12L94.05 16.20ZM253.60 74.03L250.80 62.68L240.34 59.57L232.69 67.80L235.49 79.15L245.94 82.26ZM235.49 79.15L232.69 67.80L222.24 64.69L214.59 72.93L217.39 84.27L227.84 87.38ZM258.45 54.44L255.65 43.09L245.19 39.98L237.54 48.22L240.34 59.57L250.80 62.68ZM240.34 59.57L237.54 48.22L227.08 45.11L219.43 53.35L222.24 64.69L232.69 67.80ZM266.85 88.49L264.05 77.14L253.60 74.03L245.94 82.26L248.74 93.60L259.19 96.72ZM248.74 93.60L245.94 82.26L235.49 79.15L227.84 87.38L230.65 98.72L241.09 101.83ZM271.71 68.91L268.91 57.56L258.45 54.44L250.80 62.68L253.60 74.03L264.05 77.14ZM204.14 69.82L201.33 58.48L190.88 55.38L183.24 63.62L186.05 74.95L196.50 78.06ZM186.05 74.95L183.24 63.62L172.80 60.52L165.16 68.75L167.97 80.09L178.42 83.19ZM208.98 50.24L206.17 38.90L195.72 35.79L188.08 44.03L190.88 55.38L201.33 58.48ZM190.88 55.38L188.08 44.03L177.62 40.93L169.99 49.18L172.80 60.52L183.24 63.62ZM217.39 84.27L214.59 72.93L204.14 69.82L196.50 78.06L199.31 89.40L209.75 92.50ZM199.31 89.40L196.50 78.06L186.05 74.95L178.42 83.19L181.22 94.52L191.67 97.63ZM222.24 64.69L219.43 53.35L208.98 50.24L201.33 58.48L204.14 69.82L214.59 72.93ZM263.31 34.85L260.51 23.50L250.05 20.39L242.39 28.63L245.19 39.98L255.65 43.09ZM268.18 15.26L265.38 3.90L254.91 0.79L247.25 9.03L250.05 20.39L260.51 23.50ZM276.57 49.32L273.78 37.97L263.31 34.85L255.65 43.09L258.45 54.44L268.91 57.56ZM231.93 25.52L229.13 14.17L218.67 11.06L211.01 19.31L213.82 30.65L224.28 33.76ZM213.82 30.65L211.01 19.31L200.56 16.20L192.91 24.45L195.72 35.79L206.17 38.90ZM236.78 5.92L233.98 -5.43L223.51 -8.54L215.86 -0.29L218.67 11.06L229.13 14.17ZM218.67 11.06L215.86 -0.29L205.40 -3.40L197.75 4.85L200.56 16.20L211.01 19.31ZM245.19 39.98L242.39 28.63L231.93 25.52L224.28 33.76L227.08 45.11L237.54 48.22ZM227.08 45.11L224.28 33.76L213.82 30.65L206.17 38.90L208.98 50.24L219.43 53.35ZM250.05 20.39L247.25 9.03L236.78 5.92L229.13 14.17L231.93 25.52L242.39 28.63ZM275.24 122.53L272.44 111.18L261.99 108.06L254.34 116.29L257.14 127.63L267.59 130.75ZM257.14 127.63L254.34 116.29L243.89 113.17L236.25 121.40L239.05 132.74L249.49 135.85ZM261.99 108.06L259.19 96.72L248.74 93.60L241.09 101.83L243.89 113.17L254.34 116.29ZM270.38 142.09L267.59 130.75L257.14 127.63L249.49 135.85L252.29 147.19L262.73 150.31ZM225.80 118.29L223.00 106.95L212.56 103.84L204.92 112.07L207.72 123.40L218.16 126.51ZM207.72 123.40L204.92 112.07L194.47 108.96L186.84 117.19L189.64 128.52L200.08 131.63ZM230.65 98.72L227.84 87.38L217.39 84.27L209.75 92.50L212.56 103.84L223.00 106.95ZM212.56 103.84L209.75 92.50L199.31 89.40L191.67 97.63L194.47 108.96L204.92 112.07ZM239.05 132.74L236.25 121.40L225.80 118.29L218.16 126.51L220.96 137.85L231.40 140.96ZM220.96 137.85L218.16 126.51L207.72 123.40L200.08 131.63L202.89 142.96L213.32 146.07ZM243.89 113.17L241.09 101.83L230.65 98.72L223.00 106.95L225.80 118.29L236.25 121.40ZM127.03 109.93L124.21 98.60L113.78 95.51L106.16 103.74L108.98 115.07L119.41 118.16ZM108.98 115.07L106.16 103.74L95.73 100.66L88.12 108.89L90.94 120.21L101.37 123.30ZM131.84 90.37L129.02 79.04L118.58 75.95L110.96 84.18L113.78 95.51L124.21 98.60ZM113.78 95.51L110.96 84.18L100.53 81.09L92.91 89.33L95.73 100.66L106.16 103.74ZM140.27 124.35L137.46 113.02L127.03 109.93L119.41 118.16L122.22 129.48L132.65 132.57ZM122.22 129.48L119.41 118.16L108.98 115.07L101.37 123.30L104.18 134.62L114.61 137.71ZM145.09 104.79L142.27 93.46L131.84 90.37L124.21 98.60L127.03 109.93L137.46 113.02ZM77.69 105.80L74.87 94.48L64.44 91.40L56.84 99.64L59.66 110.96L70.08 114.04ZM59.66 110.96L56.84 99.64L46.41 96.56L38.81 104.80L41.63 116.11L52.06 119.19ZM82.48 86.25L79.66 74.92L69.23 71.84L61.62 80.08L64.44 91.40L74.87 94.48ZM64.44 91.40L61.62 80.08L51.19 77.00L43.59 85.24L46.41 96.56L56.84 99.64ZM90.94 120.21L88.12 108.89L77.69 105.80L70.08 114.04L72.90 125.35L83.33 128.44ZM72.90 125.35L70.08 114.04L59.66 110.96L52.06 119.19L54.88 130.50L65.30 133.59ZM95.73 100.66L92.91 89.33L82.48 86.25L74.87 94.48L77.69 105.80L88.12 108.89ZM154.72 65.66L151.91 54.32L141.46 51.22L133.83 59.47L136.65 70.80L147.09 73.89ZM136.65 70.80L133.83 59.47L123.39 56.37L115.77 64.62L118.58 75.95L129.02 79.04ZM159.54 46.08L156.73 34.74L146.28 31.64L138.65 39.89L141.46 51.22L151.91 54.32ZM141.46 51.22L138.65 39.89L128.20 36.80L120.57 45.04L123.39 56.37L133.83 59.47ZM167.97 80.09L165.16 68.75L154.72 65.66L147.09 73.89L149.90 85.23L160.34 88.32ZM149.90 85.23L147.09 73.89L136.65 70.80L129.02 79.04L131.84 90.37L142.27 93.46ZM172.80 60.52L169.99 49.18L159.54 46.08L151.91 54.32L154.72 65.66L165.16 68.75ZM105.33 61.53L102.51 50.20L92.07 47.11L84.45 55.36L87.27 66.68L97.71 69.77ZM87.27 66.68L84.45 55.36L74.02 52.27L66.40 60.52L69.23 71.84L79.66 74.92ZM110.13 41.95L107.31 30.62L96.87 27.53L89.25 35.78L92.07 47.11L102.51 50.20ZM92.07 47.11L89.25 35.78L78.81 32.70L71.19 40.94L74.02 52.27L84.45 55.36ZM118.58 75.95L115.77 64.62L105.33 61.53L97.71 69.77L100.53 81.09L110.96 84.18ZM100.53 81.09L97.71 69.77L87.27 66.68L79.66 74.92L82.48 86.25L92.91 89.33ZM123.39 56.37L120.57 45.04L110.13 41.95L102.51 50.20L105.33 61.53L115.77 64.62ZM148.71 158.32L145.90 146.99L135.47 143.90L127.85 152.12L130.66 163.44L141.09 166.54ZM130.66 163.44L127.85 152.12L117.42 149.03L109.81 157.25L112.62 168.57L123.05 171.66ZM153.52 138.77L150.71 127.44L140.27 124.35L132.65 132.57L135.47 143.90L145.90 146.99ZM135.47 143.90L132.65 132.57L122.22 129.48L114.61 137.71L117.42 149.03L127.85 152.12ZM161.94 172.74L159.13 161.42L148.71 158.32L141.09 166.54L143.90 177.85L154.32 180.95ZM143.90 177.85L141.09 166.54L130.66 163.44L123.05 171.66L125.86 182.98L136.28 186.07ZM166.76 153.19L163.95 141.87L153.52 138.77L145.90 146.99L148.71 158.32L159.13 161.42ZM99.39 154.16L96.57 142.84L86.15 139.76L78.54 147.98L81.36 159.30L91.78 162.38ZM81.36 159.30L78.54 147.98L68.12 144.90L60.52 153.13L63.34 164.43L73.76 167.52ZM104.18 134.62L101.37 123.30L90.94 120.21L83.33 128.44L86.15 139.76L96.57 142.84ZM86.15 139.76L83.33 128.44L72.90 125.35L65.30 133.59L68.12 144.90L78.54 147.98ZM112.62 168.57L109.81 157.25L99.39 154.16L91.78 162.38L94.60 173.70L105.02 176.79ZM94.60 173.70L91.78 162.38L81.36 159.30L73.76 167.52L76.58 178.83L86.99 181.92ZM117.42 149.03L114.61 137.71L104.18 134.62L96.57 142.84L99.39 154.16L109.81 157.25ZM176.40 114.09L173.59 102.76L163.15 99.66L155.52 107.89L158.33 119.22L168.77 122.32ZM158.33 119.22L155.52 107.89L145.09 104.79L137.46 113.02L140.27 124.35L150.71 127.44ZM181.22 94.52L178.42 83.19L167.97 80.09L160.34 88.32L163.15 99.66L173.59 102.76ZM163.15 99.66L160.34 88.32L149.90 85.23L142.27 93.46L145.09 104.79L155.52 107.89ZM189.64 128.52L186.84 117.19L176.40 114.09L168.77 122.32L171.58 133.64L182.01 136.75ZM171.58 133.64L168.77 122.32L158.33 119.22L150.71 127.44L153.52 138.77L163.95 141.87ZM194.47 108.96L191.67 97.63L181.22 94.52L173.59 102.76L176.40 114.09L186.84 117.19ZM273.04 -4.35L270.24 -15.71L259.77 -18.82L252.11 -10.57L254.91 0.79L265.38 3.90ZM254.91 0.79L252.11 -10.57L241.64 -13.68L233.98 -5.43L236.78 5.92L247.25 9.03ZM272.58 268.68L269.79 257.36L259.36 254.24L251.73 262.43L254.52 273.75L264.94 276.87ZM219.69 210.92L216.89 199.59L206.46 196.48L198.83 204.69L201.63 216.01L212.06 219.13ZM201.63 216.01L198.83 204.69L188.41 201.59L180.78 209.80L183.59 221.11L194.01 224.22ZM224.52 191.38L221.73 180.06L211.29 176.94L203.66 185.16L206.46 196.48L216.89 199.59ZM206.46 196.48L203.66 185.16L193.23 182.05L185.60 190.27L188.41 201.59L198.83 204.69ZM232.92 225.35L230.12 214.03L219.69 210.92L212.06 219.13L214.86 230.44L225.29 233.56ZM214.86 230.44L212.06 219.13L201.63 216.01L194.01 224.22L196.81 235.54L207.23 238.65ZM237.75 205.82L234.96 194.50L224.52 191.38L216.89 199.59L219.69 210.92L230.12 214.03ZM170.36 206.69L167.55 195.37L157.13 192.27L149.51 200.49L152.32 211.80L162.74 214.90ZM152.32 211.80L149.51 200.49L139.09 197.39L131.48 205.60L134.29 216.91L144.71 220.01ZM175.18 187.16L172.37 175.84L161.94 172.74L154.32 180.95L157.13 192.27L167.55 195.37ZM157.13 192.27L154.32 180.95L143.90 177.85L136.28 186.07L139.09 197.39L149.51 200.49ZM183.59 221.11L180.78 209.80L170.36 206.69L162.74 214.90L165.55 226.22L175.97 229.32ZM165.55 226.22L162.74 214.90L152.32 211.80L144.71 220.01L147.51 231.32L157.93 234.42ZM188.41 201.59L185.60 190.27L175.18 187.16L167.55 195.37L170.36 206.69L180.78 209.80ZM247.44 166.74L244.64 155.41L234.20 152.29L226.56 160.51L229.36 171.84L239.80 174.96ZM229.36 171.84L226.56 160.51L216.13 157.40L208.49 165.62L211.29 176.94L221.73 180.06ZM252.29 147.19L249.49 135.85L239.05 132.74L231.40 140.96L234.20 152.29L244.64 155.41ZM234.20 152.29L231.40 140.96L220.96 137.85L213.32 146.07L216.13 157.40L226.56 160.51ZM260.67 181.19L257.88 169.86L247.44 166.74L239.80 174.96L242.60 186.29L253.03 189.40ZM242.60 186.29L239.80 174.96L229.36 171.84L221.73 180.06L224.52 191.38L234.96 194.50ZM265.53 161.64L262.73 150.31L252.29 147.19L244.64 155.41L247.44 166.74L257.88 169.86ZM198.06 162.51L195.25 151.18L184.82 148.08L177.19 156.30L180.00 167.62L190.43 170.73ZM180.00 167.62L177.19 156.30L166.76 153.19L159.13 161.42L161.94 172.74L172.37 175.84ZM202.89 142.96L200.08 131.63L189.64 128.52L182.01 136.75L184.82 148.08L195.25 151.18ZM184.82 148.08L182.01 136.75L171.58 133.64L163.95 141.87L166.76 153.19L177.19 156.30ZM211.29 176.94L208.49 165.62L198.06 162.51L190.43 170.73L193.23 182.05L203.66 185.16ZM193.23 182.05L190.43 170.73L180.00 167.62L172.37 175.84L175.18 187.16L185.60 190.27ZM216.13 157.40L213.32 146.07L202.89 142.96L195.25 151.18L198.06 162.51L208.49 165.62ZM241.30 259.31L238.51 248.00L228.08 244.88L220.45 253.08L223.25 264.40L233.67 267.51ZM223.25 264.40L220.45 253.08L210.03 249.97L202.41 258.17L205.21 269.48L215.63 272.59ZM246.14 239.79L243.35 228.47L232.92 225.35L225.29 233.56L228.08 244.88L238.51 248.00ZM228.08 244.88L225.29 233.56L214.86 230.44L207.23 238.65L210.03 249.97L220.45 253.08ZM259.36 254.24L256.57 242.91L246.14 239.79L238.51 248.00L241.30 259.31L251.73 262.43ZM191.99 255.06L189.19 243.74L178.77 240.64L171.15 248.84L173.95 260.15L184.37 263.26ZM173.95 260.15L171.15 248.84L160.74 245.73L153.12 253.94L155.93 265.25L166.34 268.35ZM196.81 235.54L194.01 224.22L183.59 221.11L175.97 229.32L178.77 240.64L189.19 243.74ZM178.77 240.64L175.97 229.32L165.55 226.22L157.93 234.42L160.74 245.73L171.15 248.84ZM205.21 269.48L202.41 258.17L191.99 255.06L184.37 263.26L187.17 274.57L197.59 277.68ZM210.03 249.97L207.23 238.65L196.81 235.54L189.19 243.74L191.99 255.06L202.41 258.17ZM269.05 215.18L266.26 203.85L255.83 200.73L248.19 208.94L250.98 220.27L261.41 223.39ZM250.98 220.27L248.19 208.94L237.75 205.82L230.12 214.03L232.92 225.35L243.35 228.47ZM273.91 195.64L271.11 184.31L260.67 181.19L253.03 189.40L255.83 200.73L266.26 203.85ZM255.83 200.73L253.03 189.40L242.60 186.29L234.96 194.50L237.75 205.82L248.19 208.94ZM264.21 234.71L261.41 223.39L250.98 220.27L243.35 228.47L246.14 239.79L256.57 242.91ZM8.29 252.77L5.47 241.48L-4.93 238.41L-12.50 246.62L-9.68 257.90L0.72 260.98ZM13.05 233.27L10.22 221.98L-0.18 218.90L-7.75 227.12L-4.93 238.41L5.47 241.48ZM21.51 267.14L18.69 255.85L8.29 252.77L0.72 260.98L3.54 272.27L13.93 275.34ZM0.85 145.96L-1.98 134.66L-12.39 131.59L-19.97 139.82L-17.14 151.12L-6.73 154.19ZM5.61 126.43L2.78 115.12L-7.64 112.05L-15.22 120.29L-12.39 131.59L-1.98 134.66ZM14.09 160.34L11.26 149.04L0.85 145.96L-6.73 154.19L-3.90 165.49L6.50 168.57ZM18.85 140.81L16.03 129.50L5.61 126.43L-1.98 134.66L0.85 145.96L11.26 149.04ZM28.39 101.72L25.56 90.41L15.14 87.33L7.54 95.57L10.37 106.88L20.79 109.96ZM10.37 106.88L7.54 95.57L-2.88 92.50L-10.47 100.74L-7.64 112.05L2.78 115.12ZM33.16 82.16L30.33 70.85L19.90 67.77L12.31 76.02L15.14 87.33L25.56 90.41ZM15.14 87.33L12.31 76.02L1.88 72.95L-5.71 81.19L-2.88 92.50L7.54 95.57ZM41.63 116.11L38.81 104.80L28.39 101.72L20.79 109.96L23.62 121.27L34.04 124.34ZM23.62 121.27L20.79 109.96L10.37 106.88L2.78 115.12L5.61 126.43L16.03 129.50ZM46.41 96.56L43.59 85.24L33.16 82.16L25.56 90.41L28.39 101.72L38.81 104.80ZM22.56 194.24L19.74 182.94L9.33 179.87L1.75 188.09L4.57 199.39L14.98 202.46ZM4.57 199.39L1.75 188.09L-8.66 185.02L-16.23 193.24L-13.41 204.53L-3.00 207.61ZM27.33 174.72L24.50 163.42L14.09 160.34L6.50 168.57L9.33 179.87L19.74 182.94ZM9.33 179.87L6.50 168.57L-3.90 165.49L-11.48 173.72L-8.66 185.02L1.75 188.09ZM35.79 208.62L32.97 197.32L22.56 194.24L14.98 202.46L17.80 213.76L28.21 216.84ZM17.80 213.76L14.98 202.46L4.57 199.39L-3.00 207.61L-0.18 218.90L10.22 221.98ZM40.56 189.10L37.74 177.80L27.33 174.72L19.74 182.94L22.56 194.24L32.97 197.32ZM50.10 150.04L47.28 138.73L36.86 135.65L29.27 143.88L32.09 155.19L42.51 158.27ZM32.09 155.19L29.27 143.88L18.85 140.81L11.26 149.04L14.09 160.34L24.50 163.42ZM54.88 130.50L52.06 119.19L41.63 116.11L34.04 124.34L36.86 135.65L47.28 138.73ZM36.86 135.65L34.04 124.34L23.62 121.27L16.03 129.50L18.85 140.81L29.27 143.88ZM63.34 164.43L60.52 153.13L50.10 150.04L42.51 158.27L45.33 169.58L55.74 172.66ZM45.33 169.58L42.51 158.27L32.09 155.19L24.50 163.42L27.33 174.72L37.74 177.80ZM68.12 144.90L65.30 133.59L54.88 130.50L47.28 138.73L50.10 150.04L60.52 153.13ZM93.46 246.65L90.65 235.35L80.24 232.26L72.65 240.47L75.46 251.77L85.87 254.86ZM75.46 251.77L72.65 240.47L62.24 237.39L54.65 245.60L57.47 256.89L67.87 259.98ZM98.25 227.14L95.44 215.84L85.02 212.75L77.43 220.96L80.24 232.26L90.65 235.35ZM80.24 232.26L77.43 220.96L67.02 217.87L59.43 226.09L62.24 237.39L72.65 240.47ZM106.68 261.05L103.87 249.75L93.46 246.65L85.87 254.86L88.68 266.16L99.09 269.25ZM88.68 266.16L85.87 254.86L75.46 251.77L67.87 259.98L70.69 271.27L81.09 274.36ZM111.47 241.54L108.66 230.24L98.25 227.14L90.65 235.35L93.46 246.65L103.87 249.75ZM44.25 242.51L41.43 231.22L31.03 228.13L23.45 236.35L26.27 247.64L36.67 250.72ZM26.27 247.64L23.45 236.35L13.05 233.27L5.47 241.48L8.29 252.77L18.69 255.85ZM49.02 223.00L46.20 211.70L35.79 208.62L28.21 216.84L31.03 228.13L41.43 231.22ZM31.03 228.13L28.21 216.84L17.80 213.76L10.22 221.98L13.05 233.27L23.45 236.35ZM57.47 256.89L54.65 245.60L44.25 242.51L36.67 250.72L39.49 262.01L49.89 265.10ZM39.49 262.01L36.67 250.72L26.27 247.64L18.69 255.85L21.51 267.14L31.91 270.22ZM62.24 237.39L59.43 226.09L49.02 223.00L41.43 231.22L44.25 242.51L54.65 245.60ZM121.06 202.50L118.25 191.19L107.83 188.10L100.22 196.32L103.04 207.62L113.45 210.72ZM103.04 207.62L100.22 196.32L89.81 193.23L82.21 201.44L85.02 212.75L95.44 215.84ZM125.86 182.98L123.05 171.66L112.62 168.57L105.02 176.79L107.83 188.10L118.25 191.19ZM107.83 188.10L105.02 176.79L94.60 173.70L86.99 181.92L89.81 193.23L100.22 196.32ZM134.29 216.91L131.48 205.60L121.06 202.50L113.45 210.72L116.26 222.03L126.68 225.12ZM116.26 222.03L113.45 210.72L103.04 207.62L95.44 215.84L98.25 227.14L108.66 230.24ZM139.09 197.39L136.28 186.07L125.86 182.98L118.25 191.19L121.06 202.50L131.48 205.60ZM71.79 198.35L68.98 187.05L58.56 183.96L50.97 192.18L53.79 203.49L64.20 206.57ZM53.79 203.49L50.97 192.18L40.56 189.10L32.97 197.32L35.79 208.62L46.20 211.70ZM76.58 178.83L73.76 167.52L63.34 164.43L55.74 172.66L58.56 183.96L68.98 187.05ZM58.56 183.96L55.74 172.66L45.33 169.58L37.74 177.80L40.56 189.10L50.97 192.18ZM85.02 212.75L82.21 201.44L71.79 198.35L64.20 206.57L67.02 217.87L77.43 220.96ZM67.02 217.87L64.20 206.57L53.79 203.49L46.20 211.70L49.02 223.00L59.43 226.09ZM89.81 193.23L86.99 181.92L76.58 178.83L68.98 187.05L71.79 198.35L82.21 201.44ZM142.71 250.84L139.90 239.53L129.49 236.43L121.88 244.64L124.69 255.94L135.10 259.04ZM124.69 255.94L121.88 244.64L111.47 241.54L103.87 249.75L106.68 261.05L117.09 264.15ZM147.51 231.32L144.71 220.01L134.29 216.91L126.68 225.12L129.49 236.43L139.90 239.53ZM129.49 236.43L126.68 225.12L116.26 222.03L108.66 230.24L111.47 241.54L121.88 244.64ZM155.93 265.25L153.12 253.94L142.71 250.84L135.10 259.04L137.91 270.34L148.32 273.45ZM137.91 270.34L135.10 259.04L124.69 255.94L117.09 264.15L119.90 275.45L130.31 278.54ZM160.74 245.73L157.93 234.42L147.51 231.32L139.90 239.53L142.71 250.84L153.12 253.94Z"/></svg>
