<svg xmlns="http://www.w3.org/2000/svg" width="256" height="256" viewBox="0 0 256 256"><path data-band="2" fill="#f97316" fill-opacity="0.35" d="M262.89 51.70L260.10 40.38L249.68 37.26L242.05 45.45L244.84 56.76L255.26 59.89ZM244.84 56.76L242.05 45.45L231.63 42.33L224.01 50.52L226.80 61.83L237.22 64.95ZM267.73 32.19L264.94 20.87L254.52 17.75L246.89 25.95L249.68 37.26L260.10 40.38ZM249.68 37.26L246.89 25.95L236.47 22.83L228.84 31.02L231.63 42.33L242.05 45.45ZM276.09 66.14L273.31 54.82L262.89 51.70L255.26 59.89L258.05 71.20L268.46 74.32ZM258.05 71.20L255.26 59.89L244.84 56.76L237.22 64.95L240.01 76.26L250.42 79.38ZM272.58 12.68L269.79 1.36L259.36 -1.76L251.73 6.43L254.52 17.75L264.94 20.87ZM266.41 105.12L263.62 93.81L253.21 90.69L245.59 98.87L248.38 110.17L258.79 113.30ZM271.25 85.63L268.46 74.32L258.05 71.20L250.42 79.38L253.21 90.69L263.62 93.81ZM185.94 91.46L183.14 80.17L172.74 77.06L165.13 85.24L167.93 96.54L178.33 99.65ZM167.93 96.54L165.13 85.24L154.73 82.14L147.13 90.32L149.93 101.62L160.33 104.72ZM190.75 71.98L187.95 60.68L177.54 57.57L169.94 65.76L172.74 77.06L183.14 80.17ZM172.74 77.06L169.94 65.76L159.53 62.65L151.93 70.84L154.73 82.14L165.13 85.24ZM199.14 105.88L196.34 94.58L185.94 91.46L178.33 99.65L181.13 110.94L191.53 114.06ZM181.13 110.94L178.33 99.65L167.93 96.54L160.33 104.72L163.13 116.01L173.53 119.12ZM203.95 86.39L201.16 75.09L190.75 71.98L183.14 80.17L185.94 91.46L196.34 94.58ZM136.73 87.22L133.93 75.93L123.53 72.82L115.94 81.02L118.74 92.30L129.14 95.41ZM118.74 92.30L115.94 81.02L105.54 77.92L97.95 86.11L100.76 97.39L111.15 100.49ZM141.53 67.74L138.72 56.44L128.32 53.34L120.72 61.53L123.53 72.82L133.93 75.93ZM123.53 72.82L120.72 61.53L110.32 58.43L102.73 66.63L105.54 77.92L115.94 81.02ZM149.93 101.62L147.13 90.32L136.73 87.22L129.14 95.41L131.94 106.69L142.34 109.80ZM131.94 106.69L129.14 95.41L118.74 92.30L111.15 100.49L113.96 111.78L124.35 114.88ZM154.73 82.14L151.93 70.84L141.53 67.74L133.93 75.93L136.73 87.22L147.13 90.32ZM213.60 47.41L210.80 36.10L200.38 32.99L192.77 41.18L195.57 52.49L205.98 55.60ZM195.57 52.49L192.77 41.18L182.36 38.07L174.75 46.26L177.54 57.57L187.95 60.68ZM218.42 27.91L215.63 16.59L205.21 13.48L197.59 21.68L200.38 32.99L210.80 36.10ZM200.38 32.99L197.59 21.68L187.17 18.57L179.56 26.76L182.36 38.07L192.77 41.18ZM226.80 61.83L224.01 50.52L213.60 47.41L205.98 55.60L208.77 66.90L219.18 70.02ZM208.77 66.90L205.98 55.60L195.57 52.49L187.95 60.68L190.75 71.98L201.16 75.09ZM231.63 42.33L228.84 31.02L218.42 27.91L210.80 36.10L213.60 47.41L224.01 50.52ZM164.34 43.16L161.53 31.85L151.12 28.75L143.52 36.95L146.32 48.25L156.73 51.35ZM146.32 48.25L143.52 36.95L133.11 33.84L125.51 42.04L128.32 53.34L138.72 56.44ZM169.14 23.66L166.34 12.35L155.93 9.25L148.32 17.45L151.12 28.75L161.53 31.85ZM151.12 28.75L148.32 17.45L137.91 14.34L130.31 22.54L133.11 33.84L143.52 36.95ZM177.54 57.57L174.75 46.26L164.34 43.16L156.73 51.35L159.53 62.65L169.94 65.76ZM159.53 62.65L156.73 51.35L146.32 48.25L138.72 56.44L141.53 67.74L151.93 70.84ZM182.36 38.07L179.56 26.76L169.14 23.66L161.53 31.85L164.34 43.16L174.75 46.26ZM207.52 139.76L204.73 128.47L194.33 125.35L186.72 133.53L189.52 144.82L199.91 147.94ZM189.52 144.82L186.72 133.53L176.32 130.42L168.72 138.59L171.52 149.88L181.91 152.99ZM212.33 120.29L209.54 108.99L199.14 105.88L191.53 114.06L194.33 125.35L204.73 128.47ZM194.33 125.35L191.53 114.06L181.13 110.94L173.53 119.12L176.32 130.42L186.72 133.53ZM220.71 154.17L217.92 142.88L207.52 139.76L199.91 147.94L202.70 159.23L213.10 162.34ZM202.70 159.23L199.91 147.94L189.52 144.82L181.91 152.99L184.71 164.28L195.10 167.40ZM225.53 134.70L222.74 123.41L212.33 120.29L204.73 128.47L207.52 139.76L217.92 142.88ZM158.33 135.48L155.53 124.20L145.14 121.09L137.54 129.27L140.34 140.55L150.74 143.66ZM140.34 140.55L137.54 129.27L127.15 126.16L119.56 134.34L122.37 145.63L132.76 148.73ZM163.13 116.01L160.33 104.72L149.93 101.62L142.34 109.80L145.14 121.09L155.53 124.20ZM145.14 121.09L142.34 109.80L131.94 106.69L124.35 114.88L127.15 126.16L137.54 129.27ZM171.52 149.88L168.72 138.59L158.33 135.48L150.74 143.66L153.53 154.94L163.93 158.05ZM153.53 154.94L150.74 143.66L140.34 140.55L132.76 148.73L135.56 160.01L145.94 163.12ZM176.32 130.42L173.53 119.12L163.13 116.01L155.53 124.20L158.33 135.48L168.72 138.59ZM235.18 95.75L232.39 84.44L221.98 81.33L214.36 89.51L217.15 100.81L227.56 103.93ZM217.15 100.81L214.36 89.51L203.95 86.39L196.34 94.58L199.14 105.88L209.54 108.99ZM240.01 76.26L237.22 64.95L226.80 61.83L219.18 70.02L221.98 81.33L232.39 84.44ZM221.98 81.33L219.18 70.02L208.77 66.90L201.16 75.09L203.95 86.39L214.36 89.51ZM248.38 110.17L245.59 98.87L235.18 95.75L227.56 103.93L230.35 115.23L240.76 118.35ZM230.35 115.23L227.56 103.93L217.15 100.81L209.54 108.99L212.33 120.29L222.74 123.41ZM253.21 90.69L250.42 79.38L240.01 76.26L232.39 84.44L235.18 95.75L245.59 98.87ZM241.30 3.31L238.51 -8.00L228.08 -11.12L220.45 -2.92L223.25 8.40L233.67 11.51ZM223.25 8.40L220.45 -2.92L210.03 -6.03L202.41 2.17L205.21 13.48L215.63 16.59ZM254.52 17.75L251.73 6.43L241.30 3.31L233.67 11.51L236.47 22.83L246.89 25.95ZM236.47 22.83L233.67 11.51L223.25 8.40L215.63 16.59L218.42 27.91L228.84 31.02ZM259.36 -1.76L256.57 -13.09L246.14 -16.21L238.51 -8.00L241.30 3.31L251.73 6.43ZM191.99 -0.94L189.19 -12.26L178.77 -15.36L171.15 -7.16L173.95 4.15L184.37 7.26ZM173.95 4.15L171.15 -7.16L160.74 -10.27L153.12 -2.06L155.93 9.25L166.34 12.35ZM205.21 13.48L202.41 2.17L191.99 -0.94L184.37 7.26L187.17 18.57L197.59 21.68ZM187.17 18.57L184.37 7.26L173.95 4.15L166.34 12.35L169.14 23.66L179.56 26.76ZM210.03 -6.03L207.23 -17.35L196.81 -20.46L189.19 -12.26L191.99 -0.94L202.41 2.17ZM260.26 197.42L257.48 186.13L247.08 183.00L239.47 191.17L242.25 202.46L252.65 205.58ZM265.09 177.97L262.31 166.67L251.91 163.54L244.29 171.71L247.08 183.00L257.48 186.13ZM273.44 211.84L270.66 200.55L260.26 197.42L252.65 205.58L255.43 216.87L265.83 220.00ZM229.07 188.04L226.29 176.76L215.89 173.63L208.29 181.80L211.08 193.09L221.47 196.21ZM211.08 193.09L208.29 181.80L197.89 178.68L190.30 186.85L193.09 198.13L203.48 201.25ZM233.90 168.59L231.11 157.29L220.71 154.17L213.10 162.34L215.89 173.63L226.29 176.76ZM215.89 173.63L213.10 162.34L202.70 159.23L195.10 167.40L197.89 178.68L208.29 181.80ZM242.25 202.46L239.47 191.17L229.07 188.04L221.47 196.21L224.26 207.49L234.65 210.62ZM224.26 207.49L221.47 196.21L211.08 193.09L203.48 201.25L206.27 212.53L216.65 215.66ZM247.08 183.00L244.29 171.71L233.90 168.59L226.29 176.76L229.07 188.04L239.47 191.17ZM256.74 144.08L253.95 132.78L243.55 129.65L235.93 137.83L238.72 149.12L249.12 152.25ZM238.72 149.12L235.93 137.83L225.53 134.70L217.92 142.88L220.71 154.17L231.11 157.29ZM261.57 124.60L258.79 113.30L248.38 110.17L240.76 118.35L243.55 129.65L253.95 132.78ZM243.55 129.65L240.76 118.35L230.35 115.23L222.74 123.41L225.53 134.70L235.93 137.83ZM269.93 158.50L267.14 147.20L256.74 144.08L249.12 152.25L251.91 163.54L262.31 166.67ZM251.91 163.54L249.12 152.25L238.72 149.12L231.11 157.29L233.90 168.59L244.29 171.71ZM274.77 139.03L271.98 127.73L261.57 124.60L253.95 132.78L256.74 144.08L267.14 147.20ZM250.61 236.32L247.82 225.03L237.43 221.90L229.83 230.06L232.61 241.34L243.00 244.47ZM232.61 241.34L229.83 230.06L219.44 226.94L211.84 235.10L214.63 246.37L225.01 249.50ZM255.43 216.87L252.65 205.58L242.25 202.46L234.65 210.62L237.43 221.90L247.82 225.03ZM237.43 221.90L234.65 210.62L224.26 207.49L216.65 215.66L219.44 226.94L229.83 230.06ZM263.78 250.73L261.00 239.45L250.61 236.32L243.00 244.47L245.78 255.75L256.17 258.88ZM245.78 255.75L243.00 244.47L232.61 241.34L225.01 249.50L227.80 260.78L238.18 263.90ZM268.61 231.29L265.83 220.00L255.43 216.87L247.82 225.03L250.61 236.32L261.00 239.45ZM8.29 -3.23L5.47 -14.52L-4.93 -17.59L-12.50 -9.38L-9.68 1.90L0.72 4.98ZM2.51 89.06L-0.31 77.79L-10.69 74.71L-18.25 82.90L-15.43 94.18L-5.05 97.25ZM7.25 69.59L4.44 58.31L-5.95 55.23L-13.51 63.43L-10.69 74.71L-0.31 77.79ZM16.75 30.63L13.93 19.34L3.54 16.27L-4.03 24.47L-1.21 35.75L9.18 38.83ZM21.51 11.14L18.69 -0.15L8.29 -3.23L0.72 4.98L3.54 16.27L13.93 19.34ZM3.54 16.27L0.72 4.98L-9.68 1.90L-17.24 10.11L-14.42 21.40L-4.03 24.47ZM29.97 45.00L27.15 33.71L16.75 30.63L9.18 38.83L12.00 50.11L22.39 53.19ZM12.00 50.11L9.18 38.83L-1.21 35.75L-8.77 43.96L-5.95 55.23L4.44 58.31ZM34.72 25.51L31.91 14.22L21.51 11.14L13.93 19.34L16.75 30.63L27.15 33.71ZM60.05 127.04L57.24 115.76L46.86 112.67L39.29 120.86L42.10 132.13L52.48 135.22ZM42.10 132.13L39.29 120.86L28.91 117.77L21.34 125.96L24.16 137.23L34.53 140.32ZM64.82 107.58L62.01 96.30L51.62 93.21L44.04 101.40L46.86 112.67L57.24 115.76ZM46.86 112.67L44.04 101.40L33.66 98.31L26.09 106.50L28.91 117.77L39.29 120.86ZM73.25 141.41L70.44 130.13L60.05 127.04L52.48 135.22L55.29 146.50L65.67 149.59ZM55.29 146.50L52.48 135.22L42.10 132.13L34.53 140.32L37.35 151.59L47.72 154.68ZM78.01 121.95L75.20 110.67L64.82 107.58L57.24 115.76L60.05 127.04L70.44 130.13ZM10.96 122.88L8.15 111.61L-2.23 108.52L-9.79 116.71L-6.97 127.98L3.40 131.06ZM15.71 103.42L12.89 92.14L2.51 89.06L-5.05 97.25L-2.23 108.52L8.15 111.61ZM24.16 137.23L21.34 125.96L10.96 122.88L3.40 131.06L6.22 142.33L16.60 145.41ZM6.22 142.33L3.40 131.06L-6.97 127.98L-14.53 136.17L-11.71 147.43L-1.34 150.51ZM28.91 117.77L26.09 106.50L15.71 103.42L8.15 111.61L10.96 122.88L21.34 125.96ZM87.56 83.01L84.75 71.72L74.35 68.63L66.77 76.82L69.58 88.11L79.97 91.20ZM69.58 88.11L66.77 76.82L56.38 73.73L48.80 81.93L51.62 93.21L62.01 96.30ZM92.33 63.53L89.52 52.24L79.13 49.15L71.54 57.34L74.35 68.63L84.75 71.72ZM74.35 68.63L71.54 57.34L61.15 54.25L53.57 62.45L56.38 73.73L66.77 76.82ZM100.76 97.39L97.95 86.11L87.56 83.01L79.97 91.20L82.78 102.48L93.17 105.58ZM82.78 102.48L79.97 91.20L69.58 88.11L62.01 96.30L64.82 107.58L75.20 110.67ZM105.54 77.92L102.73 66.63L92.33 63.53L84.75 71.72L87.56 83.01L97.95 86.11ZM38.42 78.84L35.60 67.56L25.21 64.48L17.64 72.67L20.46 83.95L30.84 87.03ZM20.46 83.95L17.64 72.67L7.25 69.59L-0.31 77.79L2.51 89.06L12.89 92.14ZM43.17 59.36L40.36 48.08L29.97 45.00L22.39 53.19L25.21 64.48L35.60 67.56ZM25.21 64.48L22.39 53.19L12.00 50.11L4.44 58.31L7.25 69.59L17.64 72.67ZM51.62 93.21L48.80 81.93L38.42 78.84L30.84 87.03L33.66 98.31L44.04 101.40ZM33.66 98.31L30.84 87.03L20.46 83.95L12.89 92.14L15.71 103.42L26.09 106.50ZM56.38 73.73L53.57 62.45L43.17 59.36L35.60 67.56L38.42 78.84L48.80 81.93ZM81.67 175.23L78.86 163.96L68.48 160.86L60.91 169.04L63.72 180.31L74.10 183.40ZM63.72 180.31L60.91 169.04L50.53 165.95L42.97 174.12L45.78 185.39L56.15 188.48ZM86.44 155.78L83.63 144.50L73.25 141.41L65.67 149.59L68.48 160.86L78.86 163.96ZM68.48 160.86L65.67 149.59L55.29 146.50L47.72 154.68L50.53 165.95L60.91 169.04ZM94.85 189.60L92.05 178.33L81.67 175.23L74.10 183.40L76.90 194.67L87.28 197.77ZM76.90 194.67L74.10 183.40L63.72 180.31L56.15 188.48L58.96 199.74L69.33 202.84ZM99.62 170.15L96.82 158.88L86.44 155.78L78.86 163.96L81.67 175.23L92.05 178.33ZM32.60 171.03L29.78 159.77L19.41 156.68L11.85 164.86L14.67 176.12L25.04 179.21ZM14.67 176.12L11.85 164.86L1.48 161.77L-6.07 169.95L-3.26 181.21L7.11 184.30ZM37.35 151.59L34.53 140.32L24.16 137.23L16.60 145.41L19.41 156.68L29.78 159.77ZM19.41 156.68L16.60 145.41L6.22 142.33L-1.34 150.51L1.48 161.77L11.85 164.86ZM45.78 185.39L42.97 174.12L32.60 171.03L25.04 179.21L27.85 190.47L38.22 193.56ZM27.85 190.47L25.04 179.21L14.67 176.12L7.11 184.30L9.93 195.56L20.29 198.64ZM50.53 165.95L47.72 154.68L37.35 151.59L29.78 159.77L32.60 171.03L42.97 174.12ZM109.18 131.24L106.37 119.96L95.98 116.86L88.40 125.05L91.21 136.32L101.59 139.42ZM91.21 136.32L88.40 125.05L78.01 121.95L70.44 130.13L73.25 141.41L83.63 144.50ZM113.96 111.78L111.15 100.49L100.76 97.39L93.17 105.58L95.98 116.86L106.37 119.96ZM95.98 116.86L93.17 105.58L82.78 102.48L75.20 110.67L78.01 121.95L88.40 125.05ZM122.37 145.63L119.56 134.34L109.18 131.24L101.59 139.42L104.40 150.70L114.78 153.80ZM104.40 150.70L101.59 139.42L91.21 136.32L83.63 144.50L86.44 155.78L96.82 158.88ZM127.15 126.16L124.35 114.88L113.96 111.78L106.37 119.96L109.18 131.24L119.56 134.34ZM1.48 161.77L-1.34 150.51L-11.71 147.43L-19.26 155.61L-16.44 166.87L-6.07 169.95ZM75.46 -4.23L72.65 -15.53L62.24 -18.61L54.65 -10.40L57.47 0.89L67.87 3.98ZM106.68 5.05L103.87 -6.25L93.46 -9.35L85.87 -1.14L88.68 10.16L99.09 13.25ZM88.68 10.16L85.87 -1.14L75.46 -4.23L67.87 3.98L70.69 15.27L81.09 18.36ZM57.47 0.89L54.65 -10.40L44.25 -13.49L36.67 -5.28L39.49 6.01L49.89 9.10ZM39.49 6.01L36.67 -5.28L26.27 -8.36L18.69 -0.15L21.51 11.14L31.91 14.22ZM115.11 38.94L112.30 27.65L101.90 24.55L94.30 32.75L97.11 44.04L107.51 47.14ZM97.11 44.04L94.30 32.75L83.90 29.66L76.31 37.86L79.13 49.15L89.52 52.24ZM119.90 19.45L117.09 8.15L106.68 5.05L99.09 13.25L101.90 24.55L112.30 27.65ZM101.90 24.55L99.09 13.25L88.68 10.16L81.09 18.36L83.90 29.66L94.30 32.75ZM128.32 53.34L125.51 42.04L115.11 38.94L107.51 47.14L110.32 58.43L120.72 61.53ZM110.32 58.43L107.51 47.14L97.11 44.04L89.52 52.24L92.33 63.53L102.73 66.63ZM133.11 33.84L130.31 22.54L119.90 19.45L112.30 27.65L115.11 38.94L125.51 42.04ZM65.92 34.77L63.10 23.48L52.70 20.39L45.12 28.59L47.94 39.88L58.33 42.97ZM47.94 39.88L45.12 28.59L34.72 25.51L27.15 33.71L29.97 45.00L40.36 48.08ZM70.69 15.27L67.87 3.98L57.47 0.89L49.89 9.10L52.70 20.39L63.10 23.48ZM52.70 20.39L49.89 9.10L39.49 6.01L31.91 14.22L34.72 25.51L45.12 28.59ZM79.13 49.15L76.31 37.86L65.92 34.77L58.33 42.97L61.15 54.25L71.54 57.34ZM61.15 54.25L58.33 42.97L47.94 39.88L40.36 48.08L43.17 59.36L53.57 62.45ZM83.90 29.66L81.09 18.36L70.69 15.27L63.10 23.48L65.92 34.77L76.31 37.86ZM142.71 -5.16L139.90 -16.47L129.49 -19.57L121.88 -11.36L124.69 -0.06L135.10 3.04ZM124.69 -0.06L121.88 -11.36L111.47 -14.46L103.87 -6.25L106.68 5.05L117.09 8.15ZM155.93 9.25L153.12 -2.06L142.71 -5.16L135.10 3.04L137.91 14.34L148.32 17.45ZM137.91 14.34L135.10 3.04L124.69 -0.06L117.09 8.15L119.90 19.45L130.31 22.54ZM152.34 227.67L149.55 216.40L139.17 213.29L131.58 221.45L134.38 232.72L144.76 235.83ZM134.38 232.72L131.58 221.45L121.21 218.34L113.63 226.51L116.43 237.78L126.80 240.88ZM157.13 208.23L154.34 196.96L143.95 193.85L136.37 202.01L139.17 213.29L149.55 216.40ZM139.17 213.29L136.37 202.01L125.99 198.91L118.41 207.07L121.21 218.34L131.58 221.45ZM165.51 242.06L162.72 230.78L152.34 227.67L144.76 235.83L147.55 247.10L157.93 250.21ZM147.55 247.10L144.76 235.83L134.38 232.72L126.80 240.88L129.60 252.15L139.98 255.26ZM170.31 222.62L167.51 211.35L157.13 208.23L149.55 216.40L152.34 227.67L162.72 230.78ZM103.26 223.40L100.46 212.14L90.08 209.04L82.51 217.20L85.32 228.47L95.69 231.57ZM85.32 228.47L82.51 217.20L72.14 214.10L64.58 222.27L67.38 233.53L77.75 236.63ZM108.03 203.97L105.23 192.70L94.85 189.60L87.28 197.77L90.08 209.04L100.46 212.14ZM90.08 209.04L87.28 197.77L76.90 194.67L69.33 202.84L72.14 214.10L82.51 217.20ZM116.43 237.78L113.63 226.51L103.26 223.40L95.69 231.57L98.49 242.83L108.86 245.94ZM98.49 242.83L95.69 231.57L85.32 228.47L77.75 236.63L80.55 247.89L90.92 250.99ZM121.21 218.34L118.41 207.07L108.03 203.97L100.46 212.14L103.26 223.40L113.63 226.51ZM179.91 183.73L177.11 172.45L166.72 169.34L159.13 177.51L161.92 188.79L172.31 191.90ZM161.92 188.79L159.13 177.51L148.74 174.40L141.15 182.57L143.95 193.85L154.34 196.96ZM184.71 164.28L181.91 152.99L171.52 149.88L163.93 158.05L166.72 169.34L177.11 172.45ZM166.72 169.34L163.93 158.05L153.53 154.94L145.94 163.12L148.74 174.40L159.13 177.51ZM193.09 198.13L190.30 186.85L179.91 183.73L172.31 191.90L175.11 203.18L185.49 206.30ZM175.11 203.18L172.31 191.90L161.92 188.79L154.34 196.96L157.13 208.23L167.51 211.35ZM197.89 178.68L195.10 167.40L184.71 164.28L177.11 172.45L179.91 183.73L190.30 186.85ZM130.77 179.46L127.97 168.19L117.58 165.08L110.00 173.25L112.81 184.53L123.19 187.63ZM112.81 184.53L110.00 173.25L99.62 170.15L92.05 178.33L94.85 189.60L105.23 192.70ZM135.56 160.01L132.76 148.73L122.37 145.63L114.78 153.80L117.58 165.08L127.97 168.19ZM117.58 165.08L114.78 153.80L104.40 150.70L96.82 158.88L99.62 170.15L110.00 173.25ZM143.95 193.85L141.15 182.57L130.77 179.46L123.19 187.63L125.99 198.91L136.37 202.01ZM125.99 198.91L123.19 187.63L112.81 184.53L105.23 192.70L108.03 203.97L118.41 207.07ZM148.74 174.40L145.94 163.12L135.56 160.01L127.97 168.19L130.77 179.46L141.15 182.57ZM178.68 256.44L175.89 245.17L165.51 242.06L157.93 250.21L160.72 261.48L171.10 264.60ZM160.72 261.48L157.93 250.21L147.55 247.10L139.98 255.26L142.77 266.52L153.14 269.64ZM129.60 252.15L126.80 240.88L116.43 237.78L108.86 245.94L111.66 257.20L122.03 260.31ZM111.66 257.20L108.86 245.94L98.49 242.83L90.92 250.99L93.72 262.25L104.09 265.36ZM142.77 266.52L139.98 255.26L129.60 252.15L122.03 260.31L124.83 271.57L135.19 274.68ZM201.46 231.97L198.67 220.70L188.28 217.58L180.69 225.74L183.48 237.01L193.86 240.13ZM183.48 237.01L180.69 225.74L170.31 222.62L162.72 230.78L165.51 242.06L175.89 245.17ZM206.27 212.53L203.48 201.25L193.09 198.13L185.49 206.30L188.28 217.58L198.67 220.70ZM188.28 217.58L185.49 206.30L175.11 203.18L167.51 211.35L170.31 222.62L180.69 225.74ZM214.63 246.37L211.84 235.10L201.46 231.97L193.86 240.13L196.65 251.41L207.03 254.53ZM196.65 251.41L193.86 240.13L183.48 237.01L175.89 245.17L178.68 256.44L189.06 259.56ZM219.44 226.94L216.65 215.66L206.27 212.53L198.67 220.70L201.46 231.97L211.84 235.10ZM26.79 263.09L23.99 251.83L13.63 248.74L6.08 256.91L8.89 268.16L19.25 271.24ZM8.89 268.16L6.08 256.91L-4.28 253.82L-11.82 261.98L-9.01 273.23L1.35 276.31ZM31.54 243.67L28.73 232.42L18.36 229.33L10.81 237.49L13.63 248.74L23.99 251.83ZM13.63 248.74L10.81 237.49L0.45 234.41L-7.09 242.57L-4.28 253.82L6.08 256.91ZM44.71 258.02L41.90 246.76L31.54 243.67L23.99 251.83L26.79 263.09L37.15 266.18ZM54.21 219.18L51.40 207.91L41.03 204.82L33.47 212.99L36.28 224.25L46.65 227.34ZM36.28 224.25L33.47 212.99L23.11 209.90L15.55 218.07L18.36 229.33L28.73 232.42ZM58.96 199.74L56.15 188.48L45.78 185.39L38.22 193.56L41.03 204.82L51.40 207.91ZM41.03 204.82L38.22 193.56L27.85 190.47L20.29 198.64L23.11 209.90L33.47 212.99ZM67.38 233.53L64.58 222.27L54.21 219.18L46.65 227.34L49.45 238.60L59.82 241.70ZM49.45 238.60L46.65 227.34L36.28 224.25L28.73 232.42L31.54 243.67L41.90 246.76ZM72.14 214.10L69.33 202.84L58.96 199.74L51.40 207.91L54.21 219.18L64.58 222.27ZM5.19 214.98L2.37 203.73L-7.99 200.65L-15.54 208.82L-12.72 220.07L-2.36 223.15ZM9.93 195.56L7.11 184.30L-3.26 181.21L-10.81 189.39L-7.99 200.65L2.37 203.73ZM18.36 229.33L15.55 218.07L5.19 214.98L-2.36 223.15L0.45 234.41L10.81 237.49ZM0.45 234.41L-2.36 223.15L-12.72 220.07L-20.26 228.24L-17.45 239.49L-7.09 242.57ZM23.11 209.90L20.29 198.64L9.93 195.56L2.37 203.73L5.19 214.98L15.55 218.07ZM75.79 267.31L72.99 256.05L62.63 252.95L55.07 261.11L57.87 272.37L68.23 275.46ZM80.55 247.89L77.75 236.63L67.38 233.53L59.82 241.70L62.63 252.95L72.99 256.05ZM62.63 252.95L59.82 241.70L49.45 238.60L41.90 246.76L44.71 258.02L55.07 261.11ZM93.72 262.25L90.92 250.99L80.55 247.89L72.99 256.05L75.79 267.31L86.16 270.41ZM258.95 270.16L256.17 258.88L245.78 255.75L238.18 263.90L240.97 275.18L251.35 278.31ZM227.80 260.78L225.01 249.50L214.63 246.37L207.03 254.53L209.82 265.80L220.20 268.93ZM209.82 265.80L207.03 254.53L196.65 251.41L189.06 259.56L191.85 270.83L202.23 273.95Z"/></svg>
