<svg xmlns="http://www.w3.org/2000/svg" width="256" height="256" viewBox="0 0 256 256"><path data-band="2" fill="#f97316" fill-opacity="0.35" d="M263.78 -5.27L261.00 -16.55L250.61 -19.68L243.00 -11.53L245.78 -0.25L256.17 2.88ZM245.78 -0.25L243.00 -11.53L232.61 -14.66L225.01 -6.50L227.80 4.78L238.18 7.90ZM263.35 265.62L260.58 254.38L250.24 251.24L242.66 259.34L245.43 270.58L255.78 273.72ZM268.16 246.27L265.39 235.02L255.04 231.89L247.46 239.99L250.24 251.24L260.58 254.38ZM1.08 248.79L-1.72 237.58L-12.04 234.48L-19.55 242.60L-16.75 253.81L-6.43 256.90ZM5.80 229.46L3.00 218.24L-7.33 215.15L-14.84 223.27L-12.04 234.48L-1.72 237.58ZM14.20 263.10L11.40 251.89L1.08 248.79L-6.43 256.90L-3.63 268.11L6.69 271.21ZM269.48 173.79L266.70 162.53L256.34 159.39L248.76 167.51L251.53 178.77L261.89 181.91ZM274.30 154.41L271.52 143.15L261.16 140.01L253.57 148.13L256.34 159.39L266.70 162.53ZM118.90 107.54L116.10 96.29L105.75 93.18L98.19 101.32L100.99 112.56L111.34 115.67ZM100.99 112.56L98.19 101.32L87.84 98.21L80.29 106.35L83.08 117.59L93.43 120.70ZM123.67 88.15L120.87 76.90L110.51 73.79L102.95 81.93L105.75 93.18L116.10 96.29ZM105.75 93.18L102.95 81.93L92.60 78.82L85.04 86.97L87.84 98.21L98.19 101.32ZM132.04 121.90L129.25 110.65L118.90 107.54L111.34 115.67L114.13 126.92L124.48 130.03ZM114.13 126.92L111.34 115.67L100.99 112.56L93.43 120.70L96.23 131.94L106.58 135.05ZM136.82 102.51L134.02 91.26L123.67 88.15L116.10 96.29L118.90 107.54L129.25 110.65ZM69.94 103.25L67.14 92.01L56.79 88.91L49.24 97.05L52.04 108.29L62.39 111.39ZM52.04 108.29L49.24 97.05L38.89 93.95L31.35 102.09L34.16 113.33L44.50 116.43ZM74.69 83.86L71.89 72.62L61.53 69.52L53.98 77.66L56.79 88.91L67.14 92.01ZM56.79 88.91L53.98 77.66L43.63 74.57L36.09 82.71L38.89 93.95L49.24 97.05ZM83.08 117.59L80.29 106.35L69.94 103.25L62.39 111.39L65.19 122.63L75.53 125.73ZM65.19 122.63L62.39 111.39L52.04 108.29L44.50 116.43L47.30 127.66L57.64 130.76ZM87.84 98.21L85.04 86.97L74.69 83.86L67.14 92.01L69.94 103.25L80.29 106.35ZM146.37 63.72L143.58 52.46L133.21 49.35L125.64 57.50L128.44 68.75L138.80 71.86ZM128.44 68.75L125.64 57.50L115.28 54.39L107.72 62.53L110.51 73.79L120.87 76.90ZM151.15 44.31L148.36 33.05L137.99 29.94L130.42 38.09L133.21 49.35L143.58 52.46ZM133.21 49.35L130.42 38.09L120.05 34.98L112.48 43.13L115.28 54.39L125.64 57.50ZM159.52 78.09L156.73 66.84L146.37 63.72L138.80 71.86L141.59 83.12L151.95 86.23ZM141.59 83.12L138.80 71.86L128.44 68.75L120.87 76.90L123.67 88.15L134.02 91.26ZM164.31 58.69L161.52 47.43L151.15 44.31L143.58 52.46L146.37 63.72L156.73 66.84ZM97.36 59.43L94.56 48.18L84.20 45.07L76.64 53.22L79.44 64.47L89.80 67.57ZM79.44 64.47L76.64 53.22L66.28 50.12L58.73 58.27L61.53 69.52L71.89 72.62ZM102.12 40.03L99.32 28.77L88.96 25.67L81.40 33.82L84.20 45.07L94.56 48.18ZM84.20 45.07L81.40 33.82L71.04 30.72L63.48 38.87L66.28 50.12L76.64 53.22ZM110.51 73.79L107.72 62.53L97.36 59.43L89.80 67.57L92.60 78.82L102.95 81.93ZM92.60 78.82L89.80 67.57L79.44 64.47L71.89 72.62L74.69 83.86L85.04 86.97ZM115.28 54.39L112.48 43.13L102.12 40.03L94.56 48.18L97.36 59.43L107.72 62.53ZM140.41 155.63L137.62 144.39L127.27 141.27L119.72 149.40L122.51 160.64L132.86 163.76ZM122.51 160.64L119.72 149.40L109.37 146.29L101.82 154.42L104.61 165.66L114.95 168.77ZM145.19 136.26L142.40 125.01L132.04 121.90L124.48 130.03L127.27 141.27L137.62 144.39ZM127.27 141.27L124.48 130.03L114.13 126.92L106.58 135.05L109.37 146.29L119.72 149.40ZM153.55 169.99L150.76 158.75L140.41 155.63L132.86 163.76L135.64 175.00L145.99 178.12ZM135.64 175.00L132.86 163.76L122.51 160.64L114.95 168.77L117.75 180.01L128.09 183.12ZM158.33 150.62L155.54 139.37L145.19 136.26L137.62 144.39L140.41 155.63L150.76 158.75ZM91.47 151.31L88.68 140.08L78.33 136.97L70.79 145.10L73.58 156.34L83.93 159.44ZM73.58 156.34L70.79 145.10L60.44 142.00L52.90 150.13L55.70 161.36L66.04 164.47ZM96.23 131.94L93.43 120.70L83.08 117.59L75.53 125.73L78.33 136.97L88.68 140.08ZM78.33 136.97L75.53 125.73L65.19 122.63L57.64 130.76L60.44 142.00L70.79 145.10ZM104.61 165.66L101.82 154.42L91.47 151.31L83.93 159.44L86.72 170.68L97.06 173.79ZM86.72 170.68L83.93 159.44L73.58 156.34L66.04 164.47L68.84 175.70L79.18 178.80ZM109.37 146.29L106.58 135.05L96.23 131.94L88.68 140.08L91.47 151.31L101.82 154.42ZM167.89 111.86L165.10 100.61L154.74 97.49L147.17 105.63L149.96 116.88L160.32 119.99ZM149.96 116.88L147.17 105.63L136.82 102.51L129.25 110.65L132.04 121.90L142.40 125.01ZM172.68 92.47L169.89 81.21L159.52 78.09L151.95 86.23L154.74 97.49L165.10 100.61ZM154.74 97.49L151.95 86.23L141.59 83.12L134.02 91.26L136.82 102.51L147.17 105.63ZM181.04 126.23L178.25 114.98L167.89 111.86L160.32 119.99L163.11 131.24L173.46 134.36ZM163.11 131.24L160.32 119.99L149.96 116.88L142.40 125.01L145.19 136.26L155.54 139.37ZM185.83 106.85L183.04 95.59L172.68 92.47L165.10 100.61L167.89 111.86L178.25 114.98ZM6.83 157.11L4.02 145.88L-6.31 142.79L-13.84 150.92L-11.03 162.15L-0.70 165.24ZM11.55 137.74L8.75 126.51L-1.59 123.42L-9.12 131.56L-6.31 142.79L4.02 145.88ZM21.01 99.00L18.20 87.76L7.86 84.67L0.32 92.82L3.13 104.05L13.47 107.14ZM3.13 104.05L0.32 92.82L-10.02 89.73L-17.55 97.87L-14.74 109.10L-4.40 112.19ZM25.74 79.62L22.94 68.38L12.59 65.29L5.05 73.43L7.86 84.67L18.20 87.76ZM7.86 84.67L5.05 73.43L-5.30 70.35L-12.83 78.49L-10.02 89.73L0.32 92.82ZM34.16 113.33L31.35 102.09L21.01 99.00L13.47 107.14L16.28 118.38L26.62 121.47ZM16.28 118.38L13.47 107.14L3.13 104.05L-4.40 112.19L-1.59 123.42L8.75 126.51ZM38.89 93.95L36.09 82.71L25.74 79.62L18.20 87.76L21.01 99.00L31.35 102.09ZM15.24 190.78L12.44 179.55L2.11 176.46L-5.42 184.59L-2.61 195.81L7.71 198.90ZM19.96 171.43L17.16 160.20L6.83 157.11L-0.70 165.24L2.11 176.46L12.44 179.55ZM2.11 176.46L-0.70 165.24L-11.03 162.15L-18.55 170.28L-15.74 181.50L-5.42 184.59ZM28.37 205.10L25.57 193.87L15.24 190.78L7.71 198.90L10.52 210.12L20.84 213.22ZM10.52 210.12L7.71 198.90L-2.61 195.81L-10.13 203.93L-7.33 215.15L3.00 218.24ZM33.10 185.75L30.30 174.52L19.96 171.43L12.44 179.55L15.24 190.78L25.57 193.87ZM42.56 147.03L39.76 135.80L29.42 132.70L21.89 140.84L24.69 152.07L35.03 155.16ZM24.69 152.07L21.89 140.84L11.55 137.74L4.02 145.88L6.83 157.11L17.16 160.20ZM47.30 127.66L44.50 116.43L34.16 113.33L26.62 121.47L29.42 132.70L39.76 135.80ZM29.42 132.70L26.62 121.47L16.28 118.38L8.75 126.51L11.55 137.74L21.89 140.84ZM55.70 161.36L52.90 150.13L42.56 147.03L35.03 155.16L37.83 166.39L48.16 169.49ZM37.83 166.39L35.03 155.16L24.69 152.07L17.16 160.20L19.96 171.43L30.30 174.52ZM60.44 142.00L57.64 130.76L47.30 127.66L39.76 135.80L42.56 147.03L52.90 150.13ZM173.89 19.87L171.10 8.60L160.72 5.48L153.14 13.64L155.94 24.90L166.31 28.02ZM155.94 24.90L153.14 13.64L142.77 10.52L135.19 18.68L137.99 29.94L148.36 33.05ZM178.68 0.44L175.89 -10.83L165.51 -13.94L157.93 -5.79L160.72 5.48L171.10 8.60ZM160.72 5.48L157.93 -5.79L147.55 -8.90L139.98 -0.74L142.77 10.52L153.14 13.64ZM187.05 34.25L184.26 22.98L173.89 19.87L166.31 28.02L169.10 39.28L179.47 42.40ZM169.10 39.28L166.31 28.02L155.94 24.90L148.36 33.05L151.15 44.31L161.52 47.43ZM191.85 14.83L189.06 3.56L178.68 0.44L171.10 8.60L173.89 19.87L184.26 22.98ZM124.83 15.57L122.03 4.31L111.66 1.20L104.09 9.36L106.89 20.62L117.25 23.72ZM106.89 20.62L104.09 9.36L93.72 6.25L86.16 14.41L88.96 25.67L99.32 28.77ZM129.60 -3.85L126.80 -15.12L116.43 -18.22L108.86 -10.06L111.66 1.20L122.03 4.31ZM111.66 1.20L108.86 -10.06L98.49 -13.17L90.92 -5.01L93.72 6.25L104.09 9.36ZM137.99 29.94L135.19 18.68L124.83 15.57L117.25 23.72L120.05 34.98L130.42 38.09ZM120.05 34.98L117.25 23.72L106.89 20.62L99.32 28.77L102.12 40.03L112.48 43.13ZM142.77 10.52L139.98 -0.74L129.60 -3.85L122.03 4.31L124.83 15.57L135.19 18.68ZM196.65 -4.59L193.86 -15.87L183.48 -18.99L175.89 -10.83L178.68 0.44L189.06 3.56ZM26.79 7.09L23.99 -4.17L13.63 -7.26L6.08 0.91L8.89 12.16L19.25 15.24ZM8.89 12.16L6.08 0.91L-4.28 -2.18L-11.82 5.98L-9.01 17.23L1.35 20.31ZM13.63 -7.26L10.81 -18.51L0.45 -21.59L-7.09 -13.43L-4.28 -2.18L6.08 0.91ZM39.96 21.43L37.15 10.18L26.79 7.09L19.25 15.24L22.06 26.49L32.41 29.58ZM22.06 26.49L19.25 15.24L8.89 12.16L1.35 20.31L4.16 31.56L14.51 34.65ZM44.71 2.02L41.90 -9.24L31.54 -12.33L23.99 -4.17L26.79 7.09L37.15 10.18ZM48.38 55.17L45.57 43.93L35.22 40.83L27.67 48.98L30.48 60.23L40.83 63.32ZM30.48 60.23L27.67 48.98L17.32 45.89L9.78 54.04L12.59 65.29L22.94 68.38ZM53.12 35.77L50.32 24.52L39.96 21.43L32.41 29.58L35.22 40.83L45.57 43.93ZM35.22 40.83L32.41 29.58L22.06 26.49L14.51 34.65L17.32 45.89L27.67 48.98ZM61.53 69.52L58.73 58.27L48.38 55.17L40.83 63.32L43.63 74.57L53.98 77.66ZM43.63 74.57L40.83 63.32L30.48 60.23L22.94 68.38L25.74 79.62L36.09 82.71ZM66.28 50.12L63.48 38.87L53.12 35.77L45.57 43.93L48.38 55.17L58.73 58.27ZM4.16 31.56L1.35 20.31L-9.01 17.23L-16.54 25.39L-13.73 36.63L-3.38 39.71ZM12.59 65.29L9.78 54.04L-0.57 50.96L-8.11 59.11L-5.30 70.35L5.05 73.43ZM17.32 45.89L14.51 34.65L4.16 31.56L-3.38 39.71L-0.57 50.96L9.78 54.04ZM75.79 11.31L72.99 0.05L62.63 -3.05L55.07 5.11L57.87 16.37L68.23 19.46ZM57.87 16.37L55.07 5.11L44.71 2.02L37.15 10.18L39.96 21.43L50.32 24.52ZM80.55 -8.11L77.75 -19.37L67.38 -22.47L59.82 -14.30L62.63 -3.05L72.99 0.05ZM62.63 -3.05L59.82 -14.30L49.45 -17.40L41.90 -9.24L44.71 2.02L55.07 5.11ZM88.96 25.67L86.16 14.41L75.79 11.31L68.23 19.46L71.04 30.72L81.40 33.82ZM71.04 30.72L68.23 19.46L57.87 16.37L50.32 24.52L53.12 35.77L63.48 38.87ZM93.72 6.25L90.92 -5.01L80.55 -8.11L72.99 0.05L75.79 11.31L86.16 14.41ZM210.86 208.10L208.08 196.86L197.73 193.73L190.16 201.85L192.95 213.09L203.29 216.22ZM192.95 213.09L190.16 201.85L179.82 198.72L172.25 206.84L175.04 218.08L185.38 221.20ZM215.66 188.74L212.88 177.49L202.52 174.36L194.95 182.48L197.73 193.73L208.08 196.86ZM197.73 193.73L194.95 182.48L184.60 179.36L177.03 187.48L179.82 198.72L190.16 201.85ZM223.99 222.48L221.21 211.23L210.86 208.10L203.29 216.22L206.07 227.46L216.42 230.59ZM206.07 227.46L203.29 216.22L192.95 213.09L185.38 221.20L188.16 232.44L198.50 235.57ZM228.79 203.12L226.01 191.87L215.66 188.74L208.08 196.86L210.86 208.10L221.21 211.23ZM161.91 203.72L159.12 192.48L148.78 189.36L141.22 197.48L144.01 208.71L154.35 211.83ZM144.01 208.71L141.22 197.48L130.88 194.36L123.33 202.48L126.11 213.71L136.45 216.83ZM166.69 184.36L163.90 173.11L153.55 169.99L145.99 178.12L148.78 189.36L159.12 192.48ZM148.78 189.36L145.99 178.12L135.64 175.00L128.09 183.12L130.88 194.36L141.22 197.48ZM175.04 218.08L172.25 206.84L161.91 203.72L154.35 211.83L157.13 223.07L167.48 226.19ZM157.13 223.07L154.35 211.83L144.01 208.71L136.45 216.83L139.24 228.06L149.58 231.18ZM179.82 198.72L177.03 187.48L166.69 184.36L159.12 192.48L161.91 203.72L172.25 206.84ZM238.39 164.38L235.62 153.12L225.26 149.99L217.68 158.12L220.46 169.37L230.81 172.50ZM220.46 169.37L217.68 158.12L207.32 154.99L199.74 163.11L202.52 174.36L212.88 177.49ZM243.20 145.00L240.43 133.74L230.06 130.61L222.48 138.74L225.26 149.99L235.62 153.12ZM225.26 149.99L222.48 138.74L212.12 135.61L204.54 143.74L207.32 154.99L217.68 158.12ZM251.53 178.77L248.76 167.51L238.39 164.38L230.81 172.50L233.59 183.75L243.95 186.89ZM233.59 183.75L230.81 172.50L220.46 169.37L212.88 177.49L215.66 188.74L226.01 191.87ZM256.34 159.39L253.57 148.13L243.20 145.00L235.62 153.12L238.39 164.38L248.76 167.51ZM189.39 159.99L186.61 148.74L176.25 145.61L168.68 153.74L171.47 164.99L181.82 168.11ZM171.47 164.99L168.68 153.74L158.33 150.62L150.76 158.75L153.55 169.99L163.90 173.11ZM194.18 140.61L191.40 129.36L181.04 126.23L173.46 134.36L176.25 145.61L186.61 148.74ZM176.25 145.61L173.46 134.36L163.11 131.24L155.54 139.37L158.33 150.62L168.68 153.74ZM202.52 174.36L199.74 163.11L189.39 159.99L181.82 168.11L184.60 179.36L194.95 182.48ZM184.60 179.36L181.82 168.11L171.47 164.99L163.90 173.11L166.69 184.36L177.03 187.48ZM207.32 154.99L204.54 143.74L194.18 140.61L186.61 148.74L189.39 159.99L199.74 163.11ZM232.31 256.20L229.54 244.96L219.19 241.83L211.63 249.94L214.40 261.18L224.74 264.31ZM214.40 261.18L211.63 249.94L201.28 246.81L193.72 254.91L196.50 266.15L206.84 269.28ZM237.11 236.86L234.34 225.61L223.99 222.48L216.42 230.59L219.19 241.83L229.54 244.96ZM219.19 241.83L216.42 230.59L206.07 227.46L198.50 235.57L201.28 246.81L211.63 249.94ZM250.24 251.24L247.46 239.99L237.11 236.86L229.54 244.96L232.31 256.20L242.66 259.34ZM183.38 251.79L180.60 240.55L170.26 237.43L162.70 245.54L165.48 256.77L175.82 259.89ZM165.48 256.77L162.70 245.54L152.36 242.41L144.81 250.52L147.60 261.75L157.93 264.88ZM188.16 232.44L185.38 221.20L175.04 218.08L167.48 226.19L170.26 237.43L180.60 240.55ZM170.26 237.43L167.48 226.19L157.13 223.07L149.58 231.18L152.36 242.41L162.70 245.54ZM196.50 266.15L193.72 254.91L183.38 251.79L175.82 259.89L178.60 271.12L188.94 274.25ZM201.28 246.81L198.50 235.57L188.16 232.44L180.60 240.55L183.38 251.79L193.72 254.91ZM259.85 212.53L257.08 201.28L246.72 198.14L239.14 206.25L241.92 217.50L252.27 220.64ZM241.92 217.50L239.14 206.25L228.79 203.12L221.21 211.23L223.99 222.48L234.34 225.61ZM264.66 193.16L261.89 181.91L251.53 178.77L243.95 186.89L246.72 198.14L257.08 201.28ZM246.72 198.14L243.95 186.89L233.59 183.75L226.01 191.87L228.79 203.12L239.14 206.25ZM272.98 226.92L270.21 215.67L259.85 212.53L252.27 220.64L255.04 231.89L265.39 235.02ZM255.04 231.89L252.27 220.64L241.92 217.50L234.34 225.61L237.11 236.86L247.46 239.99ZM85.61 243.06L82.81 231.84L72.48 228.73L64.95 236.84L67.74 248.07L78.07 251.17ZM67.74 248.07L64.95 236.84L54.62 233.74L47.09 241.86L49.89 253.07L60.21 256.18ZM90.35 223.72L87.56 212.49L77.23 209.39L69.69 217.50L72.48 228.73L82.81 231.84ZM72.48 228.73L69.69 217.50L59.36 214.40L51.82 222.52L54.62 233.74L64.95 236.84ZM98.73 257.39L95.93 246.17L85.61 243.06L78.07 251.17L80.86 262.39L91.19 265.50ZM80.86 262.39L78.07 251.17L67.74 248.07L60.21 256.18L63.01 267.40L73.33 270.50ZM103.48 238.06L100.69 226.83L90.35 223.72L82.81 231.84L85.61 243.06L95.93 246.17ZM36.77 238.75L33.97 227.54L23.64 224.44L16.12 232.55L18.92 243.77L29.24 246.87ZM18.92 243.77L16.12 232.55L5.80 229.46L-1.72 237.58L1.08 248.79L11.40 251.89ZM41.50 219.42L38.70 208.20L28.37 205.10L20.84 213.22L23.64 224.44L33.97 227.54ZM23.64 224.44L20.84 213.22L10.52 210.12L3.00 218.24L5.80 229.46L16.12 232.55ZM49.89 253.07L47.09 241.86L36.77 238.75L29.24 246.87L32.04 258.08L42.36 261.19ZM32.04 258.08L29.24 246.87L18.92 243.77L11.40 251.89L14.20 263.10L24.52 266.20ZM54.62 233.74L51.82 222.52L41.50 219.42L33.97 227.54L36.77 238.75L47.09 241.86ZM112.99 199.37L110.19 188.13L99.85 185.02L92.31 193.14L95.10 204.37L105.44 207.48ZM95.10 204.37L92.31 193.14L81.97 190.04L74.43 198.16L77.23 209.39L87.56 212.49ZM117.75 180.01L114.95 168.77L104.61 165.66L97.06 173.79L99.85 185.02L110.19 188.13ZM99.85 185.02L97.06 173.79L86.72 170.68L79.18 178.80L81.97 190.04L92.31 193.14ZM126.11 213.71L123.33 202.48L112.99 199.37L105.44 207.48L108.23 218.72L118.57 221.83ZM108.23 218.72L105.44 207.48L95.10 204.37L87.56 212.49L90.35 223.72L100.69 226.83ZM130.88 194.36L128.09 183.12L117.75 180.01L110.19 188.13L112.99 199.37L123.33 202.48ZM64.10 195.05L61.30 183.82L50.96 180.72L43.43 188.85L46.23 200.07L56.56 203.18ZM46.23 200.07L43.43 188.85L33.10 185.75L25.57 193.87L28.37 205.10L38.70 208.20ZM68.84 175.70L66.04 164.47L55.70 161.36L48.16 169.49L50.96 180.72L61.30 183.82ZM50.96 180.72L48.16 169.49L37.83 166.39L30.30 174.52L33.10 185.75L43.43 188.85ZM77.23 209.39L74.43 198.16L64.10 195.05L56.56 203.18L59.36 214.40L69.69 217.50ZM59.36 214.40L56.56 203.18L46.23 200.07L38.70 208.20L41.50 219.42L51.82 222.52ZM81.97 190.04L79.18 178.80L68.84 175.70L61.30 183.82L64.10 195.05L74.43 198.16ZM63.01 267.40L60.21 256.18L49.89 253.07L42.36 261.19L45.16 272.40L55.48 275.50ZM134.48 247.40L131.69 236.18L121.35 233.06L113.81 241.17L116.60 252.40L126.93 255.51ZM116.60 252.40L113.81 241.17L103.48 238.06L95.93 246.17L98.73 257.39L109.05 260.51ZM139.24 228.06L136.45 216.83L126.11 213.71L118.57 221.83L121.35 233.06L131.69 236.18ZM121.35 233.06L118.57 221.83L108.23 218.72L100.69 226.83L103.48 238.06L113.81 241.17ZM147.60 261.75L144.81 250.52L134.48 247.40L126.93 255.51L129.71 266.74L140.05 269.86ZM129.71 266.74L126.93 255.51L116.60 252.40L109.05 260.51L111.84 271.73L122.17 274.85ZM152.36 242.41L149.58 231.18L139.24 228.06L131.69 236.18L134.48 247.40L144.81 250.52ZM244.49 72.42L241.71 61.15L231.34 58.02L223.74 66.16L226.53 77.43L236.90 80.55ZM226.53 77.43L223.74 66.16L213.37 63.03L205.78 71.17L208.57 82.44L218.94 85.56ZM249.31 53.01L246.53 41.73L236.15 38.60L228.55 46.75L231.34 58.02L241.71 61.15ZM231.34 58.02L228.55 46.75L218.18 43.62L210.59 51.76L213.37 63.03L223.74 66.16ZM257.65 86.82L254.87 75.55L244.49 72.42L236.90 80.55L239.68 91.82L250.05 94.95ZM239.68 91.82L236.90 80.55L226.53 77.43L218.94 85.56L221.72 96.83L232.09 99.96ZM262.47 67.41L259.69 56.14L249.31 53.01L241.71 61.15L244.49 72.42L254.87 75.55ZM195.41 68.05L192.63 56.79L182.26 53.66L174.68 61.81L177.47 73.07L187.83 76.19ZM177.47 73.07L174.68 61.81L164.31 58.69L156.73 66.84L159.52 78.09L169.89 81.21ZM200.21 48.64L197.43 37.37L187.05 34.25L179.47 42.40L182.26 53.66L192.63 56.79ZM182.26 53.66L179.47 42.40L169.10 39.28L161.52 47.43L164.31 58.69L174.68 61.81ZM208.57 82.44L205.78 71.17L195.41 68.05L187.83 76.19L190.62 87.45L200.98 90.57ZM190.62 87.45L187.83 76.19L177.47 73.07L169.89 81.21L172.68 92.47L183.04 95.59ZM213.37 63.03L210.59 51.76L200.21 48.64L192.63 56.79L195.41 68.05L205.78 71.17ZM272.12 28.58L269.34 17.29L258.95 14.16L251.35 22.31L254.13 33.59L264.51 36.72ZM254.13 33.59L251.35 22.31L240.97 19.18L233.37 27.33L236.15 38.60L246.53 41.73ZM258.95 14.16L256.17 2.88L245.78 -0.25L238.18 7.90L240.97 19.18L251.35 22.31ZM267.29 48.00L264.51 36.72L254.13 33.59L246.53 41.73L249.31 53.01L259.69 56.14ZM222.99 24.20L220.20 12.93L209.82 9.80L202.23 17.95L205.02 29.23L215.39 32.35ZM205.02 29.23L202.23 17.95L191.85 14.83L184.26 22.98L187.05 34.25L197.43 37.37ZM227.80 4.78L225.01 -6.50L214.63 -9.63L207.03 -1.47L209.82 9.80L220.20 12.93ZM209.82 9.80L207.03 -1.47L196.65 -4.59L189.06 3.56L191.85 14.83L202.23 17.95ZM236.15 38.60L233.37 27.33L222.99 24.20L215.39 32.35L218.18 43.62L228.55 46.75ZM218.18 43.62L215.39 32.35L205.02 29.23L197.43 37.37L200.21 48.64L210.59 51.76ZM240.97 19.18L238.18 7.90L227.80 4.78L220.20 12.93L222.99 24.20L233.37 27.33ZM265.97 120.62L263.20 109.35L252.83 106.22L245.24 114.35L248.01 125.61L258.38 128.75ZM248.01 125.61L245.24 114.35L234.87 111.22L227.28 119.35L230.06 130.61L240.43 133.74ZM270.80 101.22L268.02 89.95L257.65 86.82L250.05 94.95L252.83 106.22L263.20 109.35ZM252.83 106.22L250.05 94.95L239.68 91.82L232.09 99.96L234.87 111.22L245.24 114.35ZM261.16 140.01L258.38 128.75L248.01 125.61L240.43 133.74L243.20 145.00L253.57 148.13ZM216.92 116.22L214.13 104.96L203.77 101.84L196.19 109.97L198.97 121.23L209.33 124.35ZM198.97 121.23L196.19 109.97L185.83 106.85L178.25 114.98L181.04 126.23L191.40 129.36ZM221.72 96.83L218.94 85.56L208.57 82.44L200.98 90.57L203.77 101.84L214.13 104.96ZM203.77 101.84L200.98 90.57L190.62 87.45L183.04 95.59L185.83 106.85L196.19 109.97ZM230.06 130.61L227.28 119.35L216.92 116.22L209.33 124.35L212.12 135.61L222.48 138.74ZM212.12 135.61L209.33 124.35L198.97 121.23L191.40 129.36L194.18 140.61L204.54 143.74ZM234.87 111.22L232.09 99.96L221.72 96.83L214.13 104.96L216.92 116.22L227.28 119.35ZM275.62 81.82L272.84 70.55L262.47 67.41L254.87 75.55L257.65 86.82L268.02 89.95Z"/></svg>
