<svg xmlns="http://www.w3.org/2000/svg" width="256" height="256" viewBox="0 0 256 256"><path data-band="1" fill="#fde68a" fill-opacity="0.35" d="M90.62 237.28L87.84 226.09L77.55 222.98L70.04 231.05L72.82 242.23L83.11 245.35ZM183.28 265.43L180.51 254.24L170.21 251.10L162.68 259.16L165.45 270.35L175.75 273.49ZM116.76 265.90L113.98 254.71L103.69 251.59L96.18 259.65L98.96 270.83L109.25 273.96ZM134.57 260.96L131.79 249.77L121.50 246.65L113.98 254.71L116.76 265.90L127.05 269.02ZM19.47 257.09L16.68 245.92L6.40 242.81L-1.08 250.88L1.71 262.05L11.98 265.15ZM1.71 262.05L-1.08 250.88L-11.36 247.77L-18.85 255.84L-16.05 267.01L-5.78 270.11ZM24.18 237.85L21.39 226.67L11.10 223.56L3.61 231.63L6.40 242.81L16.68 245.92ZM6.40 242.81L3.61 231.63L-6.67 228.53L-14.16 236.60L-11.36 247.77L-1.08 250.88ZM37.25 252.13L34.46 240.96L24.18 237.85L16.68 245.92L19.47 257.09L29.75 260.20ZM41.96 232.89L39.17 221.71L28.88 218.60L21.39 226.67L24.18 237.85L34.46 240.96ZM68.10 261.47L65.32 250.29L55.03 247.18L47.53 255.25L50.32 266.42L60.60 269.54ZM50.32 266.42L47.53 255.25L37.25 252.13L29.75 260.20L32.54 271.37L42.82 274.48ZM72.82 242.23L70.04 231.05L59.75 227.93L52.25 236.00L55.03 247.18L65.32 250.29ZM55.03 247.18L52.25 236.00L41.96 232.89L34.46 240.96L37.25 252.13L47.53 255.25ZM85.89 256.53L83.11 245.35L72.82 242.23L65.32 250.29L68.10 261.47L78.39 264.59Z"/><path data-band="2" fill="#f97316" fill-opacity="0.35" d="M269.03 187.95L266.27 176.73L255.95 173.58L248.39 181.65L251.16 192.87L261.47 196.01ZM251.16 192.87L248.39 181.65L238.07 178.51L230.52 186.58L233.29 197.79L243.60 200.93ZM273.83 168.66L271.07 157.44L260.74 154.29L253.18 162.36L255.95 173.58L266.27 176.73ZM255.95 173.58L253.18 162.36L242.86 159.22L235.31 167.29L238.07 178.51L248.39 181.65ZM264.24 207.23L261.47 196.01L251.16 192.87L243.60 200.93L246.37 212.15L256.68 215.29ZM220.21 183.44L217.44 172.23L207.12 169.09L199.58 177.16L202.35 188.37L212.66 191.51ZM202.35 188.37L199.58 177.16L189.26 174.03L181.72 182.10L184.49 193.31L194.80 196.44ZM224.99 164.15L222.22 152.94L211.90 149.80L204.35 157.88L207.12 169.09L217.44 172.23ZM207.12 169.09L204.35 157.88L194.03 154.74L186.49 162.82L189.26 174.03L199.58 177.16ZM233.29 197.79L230.52 186.58L220.21 183.44L212.66 191.51L215.43 202.72L225.74 205.86ZM215.43 202.72L212.66 191.51L202.35 188.37L194.80 196.44L197.57 207.65L207.88 210.79ZM238.07 178.51L235.31 167.29L224.99 164.15L217.44 172.23L220.21 183.44L230.52 186.58ZM247.65 139.92L244.89 128.70L234.56 125.56L227.00 133.64L229.77 144.86L240.10 148.00ZM229.77 144.86L227.00 133.64L216.68 130.50L209.13 138.58L211.90 149.80L222.22 152.94ZM252.45 120.62L249.68 109.40L239.35 106.26L231.79 114.34L234.56 125.56L244.89 128.70ZM234.56 125.56L231.79 114.34L221.46 111.20L213.91 119.29L216.68 130.50L227.00 133.64ZM260.74 154.29L257.98 143.07L247.65 139.92L240.10 148.00L242.86 159.22L253.18 162.36ZM242.86 159.22L240.10 148.00L229.77 144.86L222.22 152.94L224.99 164.15L235.31 167.29ZM265.54 134.99L262.78 123.77L252.45 120.62L244.89 128.70L247.65 139.92L257.98 143.07ZM272.52 240.86L269.76 229.65L259.44 226.50L251.89 234.56L254.65 245.77L264.96 248.92ZM241.58 231.42L238.82 220.21L228.51 217.07L220.96 225.13L223.73 236.33L234.03 239.48ZM223.73 236.33L220.96 225.13L210.65 221.99L203.11 230.05L205.88 241.25L216.18 244.40ZM246.37 212.15L243.60 200.93L233.29 197.79L225.74 205.86L228.51 217.07L238.82 220.21ZM228.51 217.07L225.74 205.86L215.43 202.72L207.88 210.79L210.65 221.99L220.96 225.13ZM254.65 245.77L251.89 234.56L241.58 231.42L234.03 239.48L236.80 250.68L247.11 253.83ZM236.80 250.68L234.03 239.48L223.73 236.33L216.18 244.40L218.95 255.60L229.25 258.74ZM259.44 226.50L256.68 215.29L246.37 212.15L238.82 220.21L241.58 231.42L251.89 234.56ZM144.06 222.45L141.29 211.26L130.99 208.13L123.46 216.20L126.24 227.39L136.54 230.52ZM126.24 227.39L123.46 216.20L113.16 213.08L105.65 221.15L108.43 232.34L118.72 235.46ZM148.81 203.19L146.04 191.99L135.73 188.86L128.21 196.93L130.99 208.13L141.29 211.26ZM130.99 208.13L128.21 196.93L117.91 193.81L110.38 201.88L113.16 213.08L123.46 216.20ZM157.14 236.78L154.36 225.58L144.06 222.45L136.54 230.52L139.31 241.71L149.61 244.84ZM139.31 241.71L136.54 230.52L126.24 227.39L118.72 235.46L121.50 246.65L131.79 249.77ZM161.89 217.51L159.12 206.32L148.81 203.19L141.29 211.26L144.06 222.45L154.36 225.58ZM95.35 218.03L92.57 206.83L82.27 203.72L74.76 211.79L77.55 222.98L87.84 226.09ZM77.55 222.98L74.76 211.79L64.47 208.67L56.96 216.75L59.75 227.93L70.04 231.05ZM100.09 198.76L97.30 187.57L87.00 184.45L79.49 192.53L82.27 203.72L92.57 206.83ZM82.27 203.72L79.49 192.53L69.19 189.41L61.68 197.49L64.47 208.67L74.76 211.79ZM108.43 232.34L105.65 221.15L95.35 218.03L87.84 226.09L90.62 237.28L100.91 240.40ZM113.16 213.08L110.38 201.88L100.09 198.76L92.57 206.83L95.35 218.03L105.65 221.15ZM171.41 178.97L168.64 167.76L158.33 164.63L150.79 172.71L153.57 183.91L163.88 187.04ZM153.57 183.91L150.79 172.71L140.48 169.58L132.95 177.66L135.73 188.86L146.04 191.99ZM176.18 159.69L173.40 148.48L163.09 145.35L155.55 153.43L158.33 164.63L168.64 167.76ZM158.33 164.63L155.55 153.43L145.24 150.30L137.71 158.38L140.48 169.58L150.79 172.71ZM184.49 193.31L181.72 182.10L171.41 178.97L163.88 187.04L166.65 198.25L176.96 201.38ZM166.65 198.25L163.88 187.04L153.57 183.91L146.04 191.99L148.81 203.19L159.12 206.32ZM189.26 174.03L186.49 162.82L176.18 159.69L168.64 167.76L171.41 178.97L181.72 182.10ZM122.65 174.54L119.87 163.34L109.56 160.22L102.04 168.30L104.82 179.49L115.13 182.61ZM104.82 179.49L102.04 168.30L91.74 165.18L84.22 173.26L87.00 184.45L97.30 187.57ZM127.40 155.26L124.62 144.05L114.31 140.93L106.78 149.02L109.56 160.22L119.87 163.34ZM109.56 160.22L106.78 149.02L96.47 145.90L88.95 153.98L91.74 165.18L102.04 168.30ZM135.73 188.86L132.95 177.66L122.65 174.54L115.13 182.61L117.91 193.81L128.21 196.93ZM117.91 193.81L115.13 182.61L104.82 179.49L97.30 187.57L100.09 198.76L110.38 201.88ZM140.48 169.58L137.71 158.38L127.40 155.26L119.87 163.34L122.65 174.54L132.95 177.66ZM170.21 251.10L167.44 239.91L157.14 236.78L149.61 244.84L152.38 256.03L162.68 259.16ZM152.38 256.03L149.61 244.84L139.31 241.71L131.79 249.77L134.57 260.96L144.86 264.09ZM121.50 246.65L118.72 235.46L108.43 232.34L100.91 240.40L103.69 251.59L113.98 254.71ZM103.69 251.59L100.91 240.40L90.62 237.28L83.11 245.35L85.89 256.53L96.18 259.65ZM192.81 226.92L190.04 215.71L179.73 212.58L172.20 220.65L174.97 231.85L185.27 234.98ZM174.97 231.85L172.20 220.65L161.89 217.51L154.36 225.58L157.14 236.78L167.44 239.91ZM197.57 207.65L194.80 196.44L184.49 193.31L176.96 201.38L179.73 212.58L190.04 215.71ZM179.73 212.58L176.96 201.38L166.65 198.25L159.12 206.32L161.89 217.51L172.20 220.65ZM205.88 241.25L203.11 230.05L192.81 226.92L185.27 234.98L188.04 246.18L198.34 249.32ZM188.04 246.18L185.27 234.98L174.97 231.85L167.44 239.91L170.21 251.10L180.51 254.24ZM210.65 221.99L207.88 210.79L197.57 207.65L190.04 215.71L192.81 226.92L203.11 230.05ZM253.74 48.29L250.97 37.06L240.63 33.92L233.06 42.02L235.84 53.25L246.17 56.39ZM235.84 53.25L233.06 42.02L222.73 38.88L215.16 46.98L217.94 58.21L228.27 61.34ZM258.55 28.96L255.78 17.72L245.43 14.58L237.86 22.68L240.63 33.92L250.97 37.06ZM240.63 33.92L237.86 22.68L227.52 19.55L219.95 27.65L222.73 38.88L233.06 42.02ZM266.85 62.67L264.08 51.44L253.74 48.29L246.17 56.39L248.94 67.62L259.28 70.76ZM248.94 67.62L246.17 56.39L235.84 53.25L228.27 61.34L231.04 72.57L241.38 75.71ZM271.66 43.34L268.89 32.10L258.55 28.96L250.97 37.06L253.74 48.29L264.08 51.44ZM263.35 9.62L260.58 -1.62L250.24 -4.76L242.66 3.34L245.43 14.58L255.78 17.72ZM276.47 24.00L273.70 12.76L263.35 9.62L255.78 17.72L258.55 28.96L268.89 32.10ZM275.15 96.37L272.38 85.14L262.05 82.00L254.48 90.08L257.25 101.31L267.58 104.46ZM257.25 101.31L254.48 90.08L244.15 86.94L236.58 95.03L239.35 106.26L249.68 109.40ZM262.05 82.00L259.28 70.76L248.94 67.62L241.38 75.71L244.15 86.94L254.48 90.08ZM270.34 115.69L267.58 104.46L257.25 101.31L249.68 109.40L252.45 120.62L262.78 123.77ZM177.39 87.45L174.61 76.23L164.28 73.10L156.74 81.19L159.52 92.41L169.84 95.54ZM159.52 92.41L156.74 81.19L146.41 78.07L138.87 86.16L141.66 97.38L151.98 100.50ZM182.16 68.13L179.38 56.91L169.05 53.78L161.50 61.88L164.28 73.10L174.61 76.23ZM164.28 73.10L161.50 61.88L151.18 58.75L143.63 66.85L146.41 78.07L156.74 81.19ZM190.49 101.80L187.71 90.58L177.39 87.45L169.84 95.54L172.62 106.75L182.94 109.88ZM172.62 106.75L169.84 95.54L159.52 92.41L151.98 100.50L154.75 111.71L165.07 114.84ZM195.26 82.49L192.49 71.26L182.16 68.13L174.61 76.23L177.39 87.45L187.71 90.58ZM128.55 83.04L125.77 71.83L115.45 68.71L107.92 76.80L110.70 88.01L121.02 91.13ZM110.70 88.01L107.92 76.80L97.60 73.69L90.07 81.78L92.86 92.99L103.17 96.11ZM133.31 63.73L130.53 52.51L120.20 49.39L112.66 57.49L115.45 68.71L125.77 71.83ZM115.45 68.71L112.66 57.49L102.34 54.38L94.81 62.47L97.60 73.69L107.92 76.80ZM141.66 97.38L138.87 86.16L128.55 83.04L121.02 91.13L123.80 102.34L134.12 105.47ZM123.80 102.34L121.02 91.13L110.70 88.01L103.17 96.11L105.96 107.32L116.27 110.43ZM146.41 78.07L143.63 66.85L133.31 63.73L125.77 71.83L128.55 83.04L138.87 86.16ZM204.83 43.84L202.05 32.61L191.72 29.48L184.16 37.58L186.94 48.81L197.27 51.94ZM186.94 48.81L184.16 37.58L173.83 34.46L166.27 42.56L169.05 53.78L179.38 56.91ZM209.61 24.51L206.84 13.28L196.50 10.15L188.94 18.25L191.72 29.48L202.05 32.61ZM191.72 29.48L188.94 18.25L178.60 15.12L171.05 23.23L173.83 34.46L184.16 37.58ZM217.94 58.21L215.16 46.98L204.83 43.84L197.27 51.94L200.04 63.17L210.38 66.30ZM200.04 63.17L197.27 51.94L186.94 48.81L179.38 56.91L182.16 68.13L192.49 71.26ZM222.73 38.88L219.95 27.65L209.61 24.51L202.05 32.61L204.83 43.84L215.16 46.98ZM155.94 39.43L153.16 28.21L142.83 25.09L135.28 33.19L138.07 44.41L148.40 47.53ZM138.07 44.41L135.28 33.19L124.96 30.07L117.42 38.17L120.20 49.39L130.53 52.51ZM160.71 20.10L157.93 8.88L147.60 5.75L140.05 13.86L142.83 25.09L153.16 28.21ZM142.83 25.09L140.05 13.86L129.71 10.74L122.17 18.85L124.96 30.07L135.28 33.19ZM169.05 53.78L166.27 42.56L155.94 39.43L148.40 47.53L151.18 58.75L161.50 61.88ZM151.18 58.75L148.40 47.53L138.07 44.41L130.53 52.51L133.31 63.73L143.63 66.85ZM173.83 34.46L171.05 23.23L160.71 20.10L153.16 28.21L155.94 39.43L166.27 42.56ZM198.81 135.45L196.04 124.23L185.71 121.10L178.17 129.18L180.94 140.40L191.26 143.53ZM180.94 140.40L178.17 129.18L167.85 126.05L160.31 134.14L163.09 145.35L173.40 148.48ZM203.59 116.15L200.81 104.93L190.49 101.80L182.94 109.88L185.71 121.10L196.04 124.23ZM185.71 121.10L182.94 109.88L172.62 106.75L165.07 114.84L167.85 126.05L178.17 129.18ZM211.90 149.80L209.13 138.58L198.81 135.45L191.26 143.53L194.03 154.74L204.35 157.88ZM194.03 154.74L191.26 143.53L180.94 140.40L173.40 148.48L176.18 159.69L186.49 162.82ZM216.68 130.50L213.91 119.29L203.59 116.15L196.04 124.23L198.81 135.45L209.13 138.58ZM149.99 131.01L147.22 119.80L136.90 116.68L129.37 124.76L132.15 135.97L142.46 139.09ZM132.15 135.97L129.37 124.76L119.05 121.64L111.52 129.73L114.31 140.93L124.62 144.05ZM154.75 111.71L151.98 100.50L141.66 97.38L134.12 105.47L136.90 116.68L147.22 119.80ZM136.90 116.68L134.12 105.47L123.80 102.34L116.27 110.43L119.05 121.64L129.37 124.76ZM163.09 145.35L160.31 134.14L149.99 131.01L142.46 139.09L145.24 150.30L155.55 153.43ZM145.24 150.30L142.46 139.09L132.15 135.97L124.62 144.05L127.40 155.26L137.71 158.38ZM167.85 126.05L165.07 114.84L154.75 111.71L147.22 119.80L149.99 131.01L160.31 134.14ZM226.25 91.89L223.48 80.66L213.15 77.53L205.59 85.62L208.37 96.84L218.69 99.98ZM208.37 96.84L205.59 85.62L195.26 82.49L187.71 90.58L190.49 101.80L200.81 104.93ZM231.04 72.57L228.27 61.34L217.94 58.21L210.38 66.30L213.15 77.53L223.48 80.66ZM213.15 77.53L210.38 66.30L200.04 63.17L192.49 71.26L195.26 82.49L205.59 85.62ZM239.35 106.26L236.58 95.03L226.25 91.89L218.69 99.98L221.46 111.20L231.79 114.34ZM221.46 111.20L218.69 99.98L208.37 96.84L200.81 104.93L203.59 116.15L213.91 119.29ZM244.15 86.94L241.38 75.71L231.04 72.57L223.48 80.66L226.25 91.89L236.58 95.03ZM267.72 260.12L264.96 248.92L254.65 245.77L247.11 253.83L249.87 265.03L260.17 268.18ZM249.87 265.03L247.11 253.83L236.80 250.68L229.25 258.74L232.02 269.94L242.32 273.08ZM218.95 255.60L216.18 244.40L205.88 241.25L198.34 249.32L201.11 260.51L211.41 263.65ZM201.11 260.51L198.34 249.32L188.04 246.18L180.51 254.24L183.28 265.43L193.58 268.57ZM232.02 269.94L229.25 258.74L218.95 255.60L211.41 263.65L214.18 274.85L224.48 277.99ZM1.08 -7.21L-1.72 -18.42L-12.04 -21.52L-19.55 -13.40L-16.75 -2.19L-6.43 0.90ZM0.06 65.03L-2.74 53.83L-13.05 50.74L-20.55 58.84L-17.75 70.04L-7.44 73.14ZM9.49 26.42L6.69 15.21L-3.63 12.11L-11.14 20.22L-8.34 31.43L1.97 34.52ZM14.20 7.10L11.40 -4.11L1.08 -7.21L-6.43 0.90L-3.63 12.11L6.69 15.21ZM22.60 40.72L19.80 29.52L9.49 26.42L1.97 34.52L4.77 45.73L15.08 48.83ZM4.77 45.73L1.97 34.52L-8.34 31.43L-15.85 39.54L-13.05 50.74L-2.74 53.83ZM27.32 21.41L24.52 10.20L14.20 7.10L6.69 15.21L9.49 26.42L19.80 29.52ZM46.67 213.63L43.89 202.45L33.59 199.34L26.09 207.42L28.88 218.60L39.17 221.71ZM28.88 218.60L26.09 207.42L15.81 204.31L8.31 212.38L11.10 223.56L21.39 226.67ZM51.39 194.37L48.60 183.19L38.31 180.08L30.80 188.16L33.59 199.34L43.89 202.45ZM33.59 199.34L30.80 188.16L20.51 185.05L13.01 193.13L15.81 204.31L26.09 207.42ZM59.75 227.93L56.96 216.75L46.67 213.63L39.17 221.71L41.96 232.89L52.25 236.00ZM64.47 208.67L61.68 197.49L51.39 194.37L43.89 202.45L46.67 213.63L56.96 216.75ZM2.73 190.02L-0.07 178.84L-10.36 175.74L-17.85 183.82L-15.05 195.00L-4.77 198.10ZM11.10 223.56L8.31 212.38L-1.97 209.28L-9.46 217.36L-6.67 228.53L3.61 231.63ZM15.81 204.31L13.01 193.13L2.73 190.02L-4.77 198.10L-1.97 209.28L8.31 212.38ZM52.46 122.25L49.67 111.05L39.37 107.94L31.86 116.03L34.65 127.23L44.95 130.33ZM34.65 127.23L31.86 116.03L21.55 112.93L14.05 121.02L16.84 132.21L27.14 135.32ZM57.19 102.95L54.40 91.75L44.09 88.64L36.57 96.74L39.37 107.94L49.67 111.05ZM39.37 107.94L36.57 96.74L26.27 93.64L18.76 101.73L21.55 112.93L31.86 116.03ZM65.56 136.55L62.77 125.35L52.46 122.25L44.95 130.33L47.74 141.53L58.04 144.64ZM47.74 141.53L44.95 130.33L34.65 127.23L27.14 135.32L29.93 146.51L40.23 149.61ZM70.29 117.27L67.50 106.06L57.19 102.95L49.67 111.05L52.46 122.25L62.77 125.35ZM3.75 117.92L0.95 106.72L-9.35 103.63L-16.85 111.72L-14.05 122.91L-3.75 126.01ZM8.46 98.63L5.66 87.43L-4.65 84.33L-12.15 92.43L-9.35 103.63L0.95 106.72ZM16.84 132.21L14.05 121.02L3.75 117.92L-3.75 126.01L-0.96 137.20L9.34 140.30ZM21.55 112.93L18.76 101.73L8.46 98.63L0.95 106.72L3.75 117.92L14.05 121.02ZM79.75 78.67L76.96 67.46L66.65 64.35L59.13 72.45L61.92 83.66L72.23 86.77ZM61.92 83.66L59.13 72.45L48.81 69.34L41.30 77.44L44.09 88.64L54.40 91.75ZM84.49 59.36L81.70 48.15L71.38 45.04L63.86 53.14L66.65 64.35L76.96 67.46ZM66.65 64.35L63.86 53.14L53.54 50.03L46.02 58.14L48.81 69.34L59.13 72.45ZM92.86 92.99L90.07 81.78L79.75 78.67L72.23 86.77L75.02 97.97L85.33 101.08ZM75.02 97.97L72.23 86.77L61.92 83.66L54.40 91.75L57.19 102.95L67.50 106.06ZM97.60 73.69L94.81 62.47L84.49 59.36L76.96 67.46L79.75 78.67L90.07 81.78ZM30.99 74.34L28.19 63.13L17.88 60.03L10.37 68.13L13.17 79.33L23.47 82.44ZM13.17 79.33L10.37 68.13L0.06 65.03L-7.44 73.14L-4.65 84.33L5.66 87.43ZM35.71 55.03L32.91 43.82L22.60 40.72L15.08 48.83L17.88 60.03L28.19 63.13ZM17.88 60.03L15.08 48.83L4.77 45.73L-2.74 53.83L0.06 65.03L10.37 68.13ZM44.09 88.64L41.30 77.44L30.99 74.34L23.47 82.44L26.27 93.64L36.57 96.74ZM26.27 93.64L23.47 82.44L13.17 79.33L5.66 87.43L8.46 98.63L18.76 101.73ZM48.81 69.34L46.02 58.14L35.71 55.03L28.19 63.13L30.99 74.34L41.30 77.44ZM73.92 170.14L71.13 158.95L60.83 155.83L53.32 163.92L56.11 175.11L66.41 178.22ZM56.11 175.11L53.32 163.92L43.02 160.81L35.52 168.89L38.31 180.08L48.60 183.19ZM78.65 150.86L75.86 139.67L65.56 136.55L58.04 144.64L60.83 155.83L71.13 158.95ZM60.83 155.83L58.04 144.64L47.74 141.53L40.23 149.61L43.02 160.81L53.32 163.92ZM87.00 184.45L84.22 173.26L73.92 170.14L66.41 178.22L69.19 189.41L79.49 192.53ZM69.19 189.41L66.41 178.22L56.11 175.11L48.60 183.19L51.39 194.37L61.68 197.49ZM91.74 165.18L88.95 153.98L78.65 150.86L71.13 158.95L73.92 170.14L84.22 173.26ZM25.22 165.78L22.43 154.59L12.13 151.49L4.63 159.57L7.43 170.76L17.72 173.86ZM7.43 170.76L4.63 159.57L-5.66 156.47L-13.15 164.56L-10.36 175.74L-0.07 178.84ZM29.93 146.51L27.14 135.32L16.84 132.21L9.34 140.30L12.13 151.49L22.43 154.59ZM12.13 151.49L9.34 140.30L-0.96 137.20L-8.45 145.29L-5.66 156.47L4.63 159.57ZM38.31 180.08L35.52 168.89L25.22 165.78L17.72 173.86L20.51 185.05L30.80 188.16ZM20.51 185.05L17.72 173.86L7.43 170.76L-0.07 178.84L2.73 190.02L13.01 193.13ZM43.02 160.81L40.23 149.61L29.93 146.51L22.43 154.59L25.22 165.78L35.52 168.89ZM101.21 126.61L98.43 115.40L88.12 112.29L80.59 120.38L83.38 131.58L93.69 134.70ZM83.38 131.58L80.59 120.38L70.29 117.27L62.77 125.35L65.56 136.55L75.86 139.67ZM105.96 107.32L103.17 96.11L92.86 92.99L85.33 101.08L88.12 112.29L98.43 115.40ZM88.12 112.29L85.33 101.08L75.02 97.97L67.50 106.06L70.29 117.27L80.59 120.38ZM114.31 140.93L111.52 129.73L101.21 126.61L93.69 134.70L96.47 145.90L106.78 149.02ZM96.47 145.90L93.69 134.70L83.38 131.58L75.86 139.67L78.65 150.86L88.95 153.98ZM119.05 121.64L116.27 110.43L105.96 107.32L98.43 115.40L101.21 126.61L111.52 129.73ZM232.31 0.20L229.54 -11.04L219.19 -14.17L211.63 -6.06L214.40 5.18L224.74 8.31ZM214.40 5.18L211.63 -6.06L201.28 -9.19L193.72 -1.09L196.50 10.15L206.84 13.28ZM245.43 14.58L242.66 3.34L232.31 0.20L224.74 8.31L227.52 19.55L237.86 22.68ZM227.52 19.55L224.74 8.31L214.40 5.18L206.84 13.28L209.61 24.51L219.95 27.65ZM250.24 -4.76L247.46 -16.01L237.11 -19.14L229.54 -11.04L232.31 0.20L242.66 3.34ZM183.38 -4.21L180.60 -15.45L170.26 -18.57L162.70 -10.46L165.48 0.77L175.82 3.89ZM165.48 0.77L162.70 -10.46L152.36 -13.59L144.81 -5.48L147.60 5.75L157.93 8.88ZM196.50 10.15L193.72 -1.09L183.38 -4.21L175.82 3.89L178.60 15.12L188.94 18.25ZM178.60 15.12L175.82 3.89L165.48 0.77L157.93 8.88L160.71 20.10L171.05 23.23ZM67.74 -7.93L64.95 -19.16L54.62 -22.26L47.09 -14.14L49.89 -2.93L60.21 0.18ZM98.73 1.39L95.93 -9.83L85.61 -12.94L78.07 -4.83L80.86 6.39L91.19 9.50ZM80.86 6.39L78.07 -4.83L67.74 -7.93L60.21 0.18L63.01 11.40L73.33 14.50ZM49.89 -2.93L47.09 -14.14L36.77 -17.25L29.24 -9.13L32.04 2.08L42.36 5.19ZM32.04 2.08L29.24 -9.13L18.92 -12.23L11.40 -4.11L14.20 7.10L24.52 10.20ZM107.09 35.06L104.30 23.84L93.98 20.72L86.44 28.83L89.23 40.05L99.56 43.16ZM89.23 40.05L86.44 28.83L76.12 25.72L68.59 33.83L71.38 45.04L81.70 48.15ZM111.84 15.73L109.05 4.51L98.73 1.39L91.19 9.50L93.98 20.72L104.30 23.84ZM93.98 20.72L91.19 9.50L80.86 6.39L73.33 14.50L76.12 25.72L86.44 28.83ZM120.20 49.39L117.42 38.17L107.09 35.06L99.56 43.16L102.34 54.38L112.66 57.49ZM102.34 54.38L99.56 43.16L89.23 40.05L81.70 48.15L84.49 59.36L94.81 62.47ZM124.96 30.07L122.17 18.85L111.84 15.73L104.30 23.84L107.09 35.06L117.42 38.17ZM58.27 30.72L55.48 19.50L45.16 16.40L37.63 24.51L40.43 35.72L50.75 38.82ZM40.43 35.72L37.63 24.51L27.32 21.41L19.80 29.52L22.60 40.72L32.91 43.82ZM63.01 11.40L60.21 0.18L49.89 -2.93L42.36 5.19L45.16 16.40L55.48 19.50ZM45.16 16.40L42.36 5.19L32.04 2.08L24.52 10.20L27.32 21.41L37.63 24.51ZM71.38 45.04L68.59 33.83L58.27 30.72L50.75 38.82L53.54 50.03L63.86 53.14ZM53.54 50.03L50.75 38.82L40.43 35.72L32.91 43.82L35.71 55.03L46.02 58.14ZM76.12 25.72L73.33 14.50L63.01 11.40L55.48 19.50L58.27 30.72L68.59 33.83ZM116.60 -3.60L113.81 -14.83L103.48 -17.94L95.93 -9.83L98.73 1.39L109.05 4.51ZM147.60 5.75L144.81 -5.48L134.48 -8.60L126.93 -0.49L129.71 10.74L140.05 13.86ZM129.71 10.74L126.93 -0.49L116.60 -3.60L109.05 4.51L111.84 15.73L122.17 18.85Z"/></svg>
