<svg xmlns="http://www.w3.org/2000/svg" width="256" height="256" viewBox="0 0 256 256"><path data-band="1" fill="#fde68a" fill-opacity="0.35" d="M275.53 50.34L272.78 39.18L262.51 36.02L255.00 44.02L257.75 55.18L268.01 58.34ZM244.74 40.86L241.99 29.70L231.72 26.55L224.21 34.55L226.96 45.71L237.22 48.86ZM226.96 45.71L224.21 34.55L213.95 31.40L206.45 39.40L209.20 50.56L219.46 53.71ZM249.50 21.70L246.75 10.54L236.48 7.38L228.97 15.39L231.72 26.55L241.99 29.70ZM231.72 26.55L228.97 15.39L218.71 12.24L211.20 20.24L213.95 31.40L224.21 34.55ZM257.75 55.18L255.00 44.02L244.74 40.86L237.22 48.86L239.97 60.02L250.23 63.18ZM239.97 60.02L237.22 48.86L226.96 45.71L219.46 53.71L222.21 64.86L232.47 68.02ZM262.51 36.02L259.77 24.86L249.50 21.70L241.99 29.70L244.74 40.86L255.00 44.02ZM272.06 -2.32L269.31 -13.49L259.04 -16.65L251.52 -8.64L254.27 2.53L264.54 5.69ZM254.27 2.53L251.52 -8.64L241.25 -11.79L233.73 -3.78L236.48 7.38L246.75 10.54ZM267.29 16.85L264.54 5.69L254.27 2.53L246.75 10.54L249.50 21.70L259.77 24.86ZM265.99 88.64L263.24 77.49L252.98 74.33L245.47 82.32L248.22 93.48L258.47 96.64ZM248.22 93.48L245.47 82.32L235.22 79.17L227.71 87.16L230.46 98.31L240.71 101.47ZM270.75 69.50L268.01 58.34L257.75 55.18L250.23 63.18L252.98 74.33L263.24 77.49ZM252.98 74.33L250.23 63.18L239.97 60.02L232.47 68.02L235.22 79.17L245.47 82.32ZM90.89 -6.28L88.12 -17.43L77.86 -20.55L70.39 -12.54L73.16 -1.39L83.41 1.73ZM73.16 -1.39L70.39 -12.54L60.14 -15.66L52.66 -7.64L55.44 3.50L65.68 6.62ZM99.19 27.15L96.43 16.01L86.18 12.88L78.70 20.89L81.47 32.03L91.72 35.16ZM103.91 7.99L101.14 -3.15L90.89 -6.28L83.41 1.73L86.18 12.88L96.43 16.01ZM86.18 12.88L83.41 1.73L73.16 -1.39L65.68 6.62L68.46 17.76L78.70 20.89ZM112.21 41.42L109.44 30.28L99.19 27.15L91.72 35.16L94.48 46.30L104.73 49.43ZM116.92 22.27L114.16 11.13L103.91 7.99L96.43 16.01L99.19 27.15L109.44 30.28ZM55.44 3.50L52.66 -7.64L42.42 -10.76L34.95 -2.75L37.73 8.39L47.97 11.51ZM139.39 -1.76L136.62 -12.92L126.37 -16.05L118.88 -8.03L121.64 3.11L131.90 6.25ZM121.64 3.11L118.88 -8.03L108.62 -11.17L101.14 -3.15L103.91 7.99L114.16 11.13ZM173.70 60.26L170.94 49.12L160.69 45.97L153.20 53.97L155.96 65.12L166.21 68.26ZM186.70 74.55L183.95 63.41L173.70 60.26L166.21 68.26L168.96 79.40L179.21 82.55ZM196.19 36.25L193.43 25.10L183.18 21.95L175.68 29.96L178.44 41.11L188.69 44.26ZM178.44 41.11L175.68 29.96L165.42 26.82L157.93 34.82L160.69 45.97L170.94 49.12ZM200.94 17.09L198.18 5.94L187.92 2.79L180.42 10.80L183.18 21.95L193.43 25.10ZM183.18 21.95L180.42 10.80L170.16 7.66L162.66 15.67L165.42 26.82L175.68 29.96ZM209.20 50.56L206.45 39.40L196.19 36.25L188.69 44.26L191.45 55.41L201.70 58.56ZM191.45 55.41L188.69 44.26L178.44 41.11L170.94 49.12L173.70 60.26L183.95 63.41ZM213.95 31.40L211.20 20.24L200.94 17.09L193.43 25.10L196.19 36.25L206.45 39.40ZM147.68 31.68L144.91 20.54L134.66 17.40L127.17 25.41L129.94 36.55L140.19 39.69ZM129.94 36.55L127.17 25.41L116.92 22.27L109.44 30.28L112.21 41.42L122.45 44.56ZM152.41 12.53L149.64 1.37L139.39 -1.76L131.90 6.25L134.66 17.40L144.91 20.54ZM134.66 17.40L131.90 6.25L121.64 3.11L114.16 11.13L116.92 22.27L127.17 25.41ZM160.69 45.97L157.93 34.82L147.68 31.68L140.19 39.69L142.95 50.83L153.20 53.97ZM165.42 26.82L162.66 15.67L152.41 12.53L144.91 20.54L147.68 31.68L157.93 34.82ZM222.21 64.86L219.46 53.71L209.20 50.56L201.70 58.56L204.45 69.71L214.71 72.86ZM204.45 69.71L201.70 58.56L191.45 55.41L183.95 63.41L186.70 74.55L196.96 77.70ZM223.46 -6.93L220.71 -18.10L210.44 -21.25L202.93 -13.23L205.69 -2.07L215.95 1.08ZM205.69 -2.07L202.93 -13.23L192.67 -16.38L185.16 -8.37L187.92 2.79L198.18 5.94ZM236.48 7.38L233.73 -3.78L223.46 -6.93L215.95 1.08L218.71 12.24L228.97 15.39ZM218.71 12.24L215.95 1.08L205.69 -2.07L198.18 5.94L200.94 17.09L211.20 20.24ZM157.14 -6.64L154.38 -17.79L144.12 -20.93L136.62 -12.92L139.39 -1.76L149.64 1.37ZM187.92 2.79L185.16 -8.37L174.90 -11.51L167.40 -3.50L170.16 7.66L180.42 10.80ZM170.16 7.66L167.40 -3.50L157.14 -6.64L149.64 1.37L152.41 12.53L162.66 15.67Z"/></svg>
