<svg xmlns="http://www.w3.org/2000/svg" width="256" height="256" viewBox="0 0 256 256"><path data-band="1" fill="#fde68a" fill-opacity="0.35" d="M273.12 228.58L270.20 217.09L259.59 214.12L251.91 222.64L254.83 234.12L265.43 237.09ZM263.59 268.56L260.67 257.08L250.06 254.11L242.38 262.62L245.31 274.09L255.90 277.06ZM268.35 248.57L265.43 237.09L254.83 234.12L247.14 242.63L250.06 254.11L260.67 257.08ZM274.70 79.50L271.77 68.00L261.14 65.03L253.43 73.58L256.36 85.08L266.99 88.04ZM256.36 85.08L253.43 73.58L242.80 70.61L235.10 79.16L238.03 90.66L248.66 93.62ZM270.70 24.91L267.77 13.40L257.13 10.44L249.42 18.99L252.35 30.50L262.99 33.46Z"/></svg>
