<svg xmlns="http://www.w3.org/2000/svg" width="256" height="256" viewBox="0 0 256 256"><path data-band="1" fill="#fde68a" fill-opacity="0.35" d="M272.40 215.90L269.51 204.49L258.97 201.50L251.34 209.92L254.24 221.33L264.77 224.32ZM254.24 221.33L251.34 209.92L240.81 206.93L233.19 215.35L236.09 226.76L246.62 229.75ZM258.97 201.50L256.07 190.08L245.54 187.09L237.91 195.52L240.81 206.93L251.34 209.92ZM267.67 235.73L264.77 224.32L254.24 221.33L246.62 229.75L249.52 241.15L260.04 244.14ZM222.66 212.37L219.76 200.96L209.23 197.98L201.62 206.40L204.52 217.81L215.04 220.79ZM204.52 217.81L201.62 206.40L191.09 203.42L183.48 211.85L186.39 223.25L196.91 226.23ZM227.38 192.53L224.48 181.12L213.95 178.14L206.33 186.57L209.23 197.98L219.76 200.96ZM209.23 197.98L206.33 186.57L195.80 183.59L188.18 192.02L191.09 203.42L201.62 206.40ZM236.09 226.76L233.19 215.35L222.66 212.37L215.04 220.79L217.95 232.19L228.47 235.18ZM217.95 232.19L215.04 220.79L204.52 217.81L196.91 226.23L199.81 237.63L210.33 240.61ZM240.81 206.93L237.91 195.52L227.38 192.53L219.76 200.96L222.66 212.37L233.19 215.35ZM250.27 167.25L247.37 155.83L236.83 152.85L229.20 161.28L232.11 172.70L242.64 175.68ZM232.11 172.70L229.20 161.28L218.67 158.30L211.04 166.73L213.95 178.14L224.48 181.12ZM255.00 147.40L252.10 135.98L241.56 133.00L233.93 141.43L236.83 152.85L247.37 155.83ZM236.83 152.85L233.93 141.43L223.39 138.45L215.76 146.89L218.67 158.30L229.20 161.28ZM263.71 181.66L260.81 170.24L250.27 167.25L242.64 175.68L245.54 187.09L256.07 190.08ZM245.54 187.09L242.64 175.68L232.11 172.70L224.48 181.12L227.38 192.53L237.91 195.52ZM268.44 161.81L265.54 150.39L255.00 147.40L247.37 155.83L250.27 167.25L260.81 170.24ZM276.36 269.95L273.46 258.54L262.94 255.55L255.31 263.96L258.21 275.36L268.73 278.36ZM244.79 260.97L241.89 249.57L231.37 246.58L223.75 254.99L226.66 266.39L237.17 269.38ZM226.66 266.39L223.75 254.99L213.24 252.01L205.62 260.42L208.53 271.82L219.04 274.80ZM249.52 241.15L246.62 229.75L236.09 226.76L228.47 235.18L231.37 246.58L241.89 249.57ZM231.37 246.58L228.47 235.18L217.95 232.19L210.33 240.61L213.24 252.01L223.75 254.99ZM262.94 255.55L260.04 244.14L249.52 241.15L241.89 249.57L244.79 260.97L255.31 263.96ZM172.96 208.87L170.05 197.47L159.53 194.50L151.92 202.93L154.83 214.33L165.35 217.30ZM177.66 189.04L174.75 177.64L164.23 174.67L156.62 183.10L159.53 194.50L170.05 197.47ZM186.39 223.25L183.48 211.85L172.96 208.87L165.35 217.30L168.26 228.70L178.78 231.67ZM168.26 228.70L165.35 217.30L154.83 214.33L147.23 222.75L150.14 234.14L160.66 237.12ZM191.09 203.42L188.18 192.02L177.66 189.04L170.05 197.47L172.96 208.87L183.48 211.85ZM238.31 4.79L235.40 -6.65L224.84 -9.63L217.20 -1.17L220.11 10.27L230.67 13.25ZM251.78 19.20L248.87 7.77L238.31 4.79L230.67 13.25L233.58 24.68L244.13 27.66ZM274.75 -6.17L271.84 -17.62L261.27 -20.60L253.62 -12.14L256.53 -0.69L267.09 2.29ZM256.53 -0.69L253.62 -12.14L243.05 -15.12L235.40 -6.65L238.31 4.79L248.87 7.77ZM255.76 73.39L252.86 61.96L242.30 58.98L234.66 67.43L237.57 78.86L248.12 81.84ZM237.57 78.86L234.66 67.43L224.11 64.45L216.48 72.90L219.39 84.33L229.93 87.31ZM260.50 53.51L257.60 42.08L247.04 39.10L239.40 47.55L242.30 58.98L252.86 61.96ZM269.22 87.81L266.31 76.38L255.76 73.39L248.12 81.84L251.03 93.27L261.57 96.25ZM251.03 93.27L248.12 81.84L237.57 78.86L229.93 87.31L232.84 98.73L243.38 101.71ZM273.96 67.93L271.06 56.50L260.50 53.51L252.86 61.96L255.76 73.39L266.31 76.38ZM265.25 33.63L262.34 22.19L251.78 19.20L244.13 27.66L247.04 39.10L257.60 42.08ZM270.00 13.73L267.09 2.29L256.53 -0.69L248.87 7.77L251.78 19.20L262.34 22.19ZM259.74 127.55L256.83 116.12L246.29 113.14L238.65 121.58L241.56 133.00L252.10 135.98ZM264.48 107.68L261.57 96.25L251.03 93.27L243.38 101.71L246.29 113.14L256.83 116.12ZM273.18 141.96L270.28 130.53L259.74 127.55L252.10 135.98L255.00 147.40L265.54 150.39ZM200.51 163.75L197.60 152.34L187.07 149.37L179.45 157.80L182.36 169.21L192.89 172.19ZM182.36 169.21L179.45 157.80L168.93 154.83L161.31 163.26L164.23 174.67L174.75 177.64ZM213.95 178.14L211.04 166.73L200.51 163.75L192.89 172.19L195.80 183.59L206.33 186.57ZM195.80 183.59L192.89 172.19L182.36 169.21L174.75 177.64L177.66 189.04L188.18 192.02ZM218.67 158.30L215.76 146.89L205.23 143.91L197.60 152.34L200.51 163.75L211.04 166.73ZM228.11 118.59L225.20 107.17L214.66 104.19L207.03 112.64L209.94 124.05L220.48 127.03ZM232.84 98.73L229.93 87.31L219.39 84.33L211.75 92.77L214.66 104.19L225.20 107.17ZM241.56 133.00L238.65 121.58L228.11 118.59L220.48 127.03L223.39 138.45L233.93 141.43ZM223.39 138.45L220.48 127.03L209.94 124.05L202.32 132.49L205.23 143.91L215.76 146.89ZM246.29 113.14L243.38 101.71L232.84 98.73L225.20 107.17L228.11 118.59L238.65 121.58Z"/></svg>
