<svg xmlns="http://www.w3.org/2000/svg" width="256" height="256" viewBox="0 0 256 256"><path data-band="1" fill="#fde68a" fill-opacity="0.35" d="M239.33 98.55L236.43 87.16L225.93 84.17L218.32 92.57L221.22 103.95L231.72 106.94ZM221.22 103.95L218.32 92.57L207.82 89.58L200.22 97.98L203.12 109.36L213.62 112.35ZM244.05 78.76L241.15 67.37L230.64 64.38L223.03 72.78L225.93 84.17L236.43 87.16ZM225.93 84.17L223.03 72.78L212.52 69.79L204.92 78.19L207.82 89.58L218.32 92.57ZM252.73 112.93L249.84 101.54L239.33 98.55L231.72 106.94L234.62 118.33L245.12 121.32ZM234.62 118.33L231.72 106.94L221.22 103.95L213.62 112.35L216.52 123.73L227.01 126.72ZM257.45 93.15L254.56 81.76L244.05 78.76L236.43 87.16L239.33 98.55L249.84 101.54ZM203.12 109.36L200.22 97.98L189.72 94.99L182.12 103.39L185.02 114.77L195.52 117.75ZM266.90 53.56L264.00 42.16L253.49 39.17L245.87 47.57L248.76 58.97L259.28 61.96ZM248.76 58.97L245.87 47.57L235.35 44.58L227.74 52.99L230.64 64.38L241.15 67.37ZM271.63 33.76L268.73 22.36L258.21 19.36L250.59 27.77L253.49 39.17L264.00 42.16ZM253.49 39.17L250.59 27.77L240.07 24.78L232.46 33.19L235.35 44.58L245.87 47.57ZM262.17 73.36L259.28 61.96L248.76 58.97L241.15 67.37L244.05 78.76L254.56 81.76ZM230.64 64.38L227.74 52.99L217.23 50.00L209.62 58.41L212.52 69.79L223.03 72.78ZM235.35 44.58L232.46 33.19L221.94 30.20L214.33 38.61L217.23 50.00L227.74 52.99ZM261.41 147.09L258.52 135.70L248.01 132.70L240.41 141.09L243.30 152.47L253.80 155.47ZM243.30 152.47L240.41 141.09L229.91 138.10L222.31 146.49L225.20 157.86L235.70 160.86ZM266.13 127.31L263.24 115.93L252.73 112.93L245.12 121.32L248.01 132.70L258.52 135.70ZM248.01 132.70L245.12 121.32L234.62 118.33L227.01 126.72L229.91 138.10L240.41 141.09ZM274.80 161.47L271.91 150.08L261.41 147.09L253.80 155.47L256.69 166.85L267.19 169.85ZM256.69 166.85L253.80 155.47L243.30 152.47L235.70 160.86L238.59 172.23L249.09 175.23ZM211.81 143.50L208.92 132.12L198.42 129.13L190.83 137.52L193.73 148.90L204.22 151.88ZM193.73 148.90L190.83 137.52L180.33 134.54L172.74 142.93L175.65 154.30L186.13 157.28ZM216.52 123.73L213.62 112.35L203.12 109.36L195.52 117.75L198.42 129.13L208.92 132.12ZM198.42 129.13L195.52 117.75L185.02 114.77L177.43 123.16L180.33 134.54L190.83 137.52ZM225.20 157.86L222.31 146.49L211.81 143.50L204.22 151.88L207.11 163.26L217.61 166.25ZM207.11 163.26L204.22 151.88L193.73 148.90L186.13 157.28L189.03 168.65L199.52 171.64ZM229.91 138.10L227.01 126.72L216.52 123.73L208.92 132.12L211.81 143.50L222.31 146.49ZM270.85 107.53L267.96 96.14L257.45 93.15L249.84 101.54L252.73 112.93L263.24 115.93ZM275.58 87.75L272.68 76.35L262.17 73.36L254.56 81.76L257.45 93.15L267.96 96.14ZM276.36 13.95L273.46 2.54L262.94 -0.45L255.31 7.96L258.21 19.36L268.73 22.36ZM244.79 4.97L241.89 -6.43L231.37 -9.42L223.75 -1.01L226.66 10.39L237.17 13.38ZM226.66 10.39L223.75 -1.01L213.24 -3.99L205.62 4.42L208.53 15.82L219.04 18.80ZM258.21 19.36L255.31 7.96L244.79 4.97L237.17 13.38L240.07 24.78L250.59 27.77ZM240.07 24.78L237.17 13.38L226.66 10.39L219.04 18.80L221.94 30.20L232.46 33.19ZM262.94 -0.45L260.04 -11.86L249.52 -14.85L241.89 -6.43L244.79 4.97L255.31 7.96ZM265.36 200.98L262.47 189.61L251.98 186.61L244.38 194.98L247.27 206.36L257.76 209.36ZM270.08 181.23L267.19 169.85L256.69 166.85L249.09 175.23L251.98 186.61L262.47 189.61ZM126.12 150.77L123.22 139.41L112.73 136.43L105.16 144.83L108.07 156.19L118.55 159.16ZM108.07 156.19L105.16 144.83L94.68 141.86L87.11 150.25L90.02 161.61L100.50 164.58ZM134.84 184.86L131.94 173.50L121.46 170.52L113.89 178.91L116.79 190.27L127.27 193.24ZM116.79 190.27L113.89 178.91L103.41 175.94L95.84 184.32L98.75 195.68L109.23 198.65ZM139.51 165.11L136.61 153.75L126.12 150.77L118.55 159.16L121.46 170.52L131.94 173.50ZM121.46 170.52L118.55 159.16L108.07 156.19L100.50 164.58L103.41 175.94L113.89 178.91ZM148.22 199.20L145.32 187.84L134.84 184.86L127.27 193.24L130.17 204.60L140.65 207.58ZM130.17 204.60L127.27 193.24L116.79 190.27L109.23 198.65L112.13 210.00L122.60 212.98ZM152.90 179.45L149.99 168.09L139.51 165.11L131.94 173.50L134.84 184.86L145.32 187.84ZM103.41 175.94L100.50 164.58L90.02 161.61L82.46 170.00L85.37 181.35L95.84 184.32ZM162.26 139.95L159.35 128.57L148.86 125.60L141.28 133.99L144.18 145.36L154.67 148.34ZM144.18 145.36L141.28 133.99L130.79 131.01L123.22 139.41L126.12 150.77L136.61 153.75ZM175.65 154.30L172.74 142.93L162.26 139.95L154.67 148.34L157.57 159.70L168.06 162.68ZM157.57 159.70L154.67 148.34L144.18 145.36L136.61 153.75L139.51 165.11L149.99 168.09ZM180.33 134.54L177.43 123.16L166.94 120.18L159.35 128.57L162.26 139.95L172.74 142.93ZM206.41 236.85L203.52 225.49L193.04 222.50L185.45 230.87L188.35 242.23L198.83 245.22ZM188.35 242.23L185.45 230.87L174.98 227.88L167.40 236.26L170.30 247.61L180.77 250.60ZM211.11 217.12L208.21 205.75L197.73 202.76L190.14 211.14L193.04 222.50L203.52 225.49ZM193.04 222.50L190.14 211.14L179.66 208.15L172.08 216.52L174.98 227.88L185.45 230.87ZM219.78 251.21L216.89 239.85L206.41 236.85L198.83 245.22L201.72 256.58L212.20 259.57ZM201.72 256.58L198.83 245.22L188.35 242.23L180.77 250.60L183.67 261.96L194.14 264.95ZM224.48 231.48L221.59 220.11L211.11 217.12L203.52 225.49L206.41 236.85L216.89 239.85ZM156.93 233.27L154.03 221.92L143.55 218.93L135.98 227.31L138.88 238.66L149.35 241.65ZM138.88 238.66L135.98 227.31L125.51 224.33L117.94 232.71L120.85 244.06L131.32 247.04ZM161.60 213.54L158.70 202.18L148.22 199.20L140.65 207.58L143.55 218.93L154.03 221.92ZM143.55 218.93L140.65 207.58L130.17 204.60L122.60 212.98L125.51 224.33L135.98 227.31ZM170.30 247.61L167.40 236.26L156.93 233.27L149.35 241.65L152.25 253.00L162.72 255.98ZM152.25 253.00L149.35 241.65L138.88 238.66L131.32 247.04L134.22 258.39L144.68 261.37ZM174.98 227.88L172.08 216.52L161.60 213.54L154.03 221.92L156.93 233.27L167.40 236.26ZM233.88 191.99L230.99 180.61L220.50 177.62L212.91 186.00L215.80 197.37L226.29 200.37ZM215.80 197.37L212.91 186.00L202.42 183.01L194.83 191.39L197.73 202.76L208.21 205.75ZM238.59 172.23L235.70 160.86L225.20 157.86L217.61 166.25L220.50 177.62L230.99 180.61ZM220.50 177.62L217.61 166.25L207.11 163.26L199.52 171.64L202.42 183.01L212.91 186.00ZM247.27 206.36L244.38 194.98L233.88 191.99L226.29 200.37L229.18 211.74L239.67 214.73ZM229.18 211.74L226.29 200.37L215.80 197.37L208.21 205.75L211.11 217.12L221.59 220.11ZM251.98 186.61L249.09 175.23L238.59 172.23L230.99 180.61L233.88 191.99L244.38 194.98ZM184.35 188.40L181.45 177.04L170.96 174.05L163.38 182.44L166.28 193.80L176.76 196.78ZM166.28 193.80L163.38 182.44L152.90 179.45L145.32 187.84L148.22 199.20L158.70 202.18ZM189.03 168.65L186.13 157.28L175.65 154.30L168.06 162.68L170.96 174.05L181.45 177.04ZM170.96 174.05L168.06 162.68L157.57 159.70L149.99 168.09L152.90 179.45L163.38 182.44ZM197.73 202.76L194.83 191.39L184.35 188.40L176.76 196.78L179.66 208.15L190.14 211.14ZM179.66 208.15L176.76 196.78L166.28 193.80L158.70 202.18L161.60 213.54L172.08 216.52ZM202.42 183.01L199.52 171.64L189.03 168.65L181.45 177.04L184.35 188.40L194.83 191.39ZM233.15 265.57L230.26 254.20L219.78 251.21L212.20 259.57L215.09 270.93L225.56 273.93ZM165.62 267.34L162.72 255.98L152.25 253.00L144.68 261.37L147.58 272.72L158.05 275.70ZM274.02 235.10L271.13 223.73L260.64 220.73L253.04 229.10L255.93 240.47L266.42 243.47ZM84.80 254.85L81.89 243.51L71.43 240.54L63.88 248.92L66.79 260.26L77.25 263.23ZM66.79 260.26L63.88 248.92L53.42 245.95L45.88 254.32L48.79 265.66L59.24 268.63ZM98.17 269.17L95.26 257.83L84.80 254.85L77.25 263.23L80.16 274.57L90.62 277.54ZM107.48 229.73L104.57 218.38L94.10 215.41L86.54 223.79L89.45 235.14L99.91 238.11ZM89.45 235.14L86.54 223.79L76.08 220.82L68.52 229.20L71.43 240.54L81.89 243.51ZM112.13 210.00L109.23 198.65L98.75 195.68L91.19 204.06L94.10 215.41L104.57 218.38ZM94.10 215.41L91.19 204.06L80.72 201.09L73.16 209.47L76.08 220.82L86.54 223.79ZM120.85 244.06L117.94 232.71L107.48 229.73L99.91 238.11L102.82 249.46L113.29 252.43ZM102.82 249.46L99.91 238.11L89.45 235.14L81.89 243.51L84.80 254.85L95.26 257.83ZM125.51 224.33L122.60 212.98L112.13 210.00L104.57 218.38L107.48 229.73L117.94 232.71ZM58.06 226.23L55.15 214.89L44.68 211.92L37.14 220.30L40.05 231.64L50.51 234.61ZM71.43 240.54L68.52 229.20L58.06 226.23L50.51 234.61L53.42 245.95L63.88 248.92ZM76.08 220.82L73.16 209.47L62.70 206.50L55.15 214.89L58.06 226.23L68.52 229.20ZM134.22 258.39L131.32 247.04L120.85 244.06L113.29 252.43L116.19 263.78L126.65 266.76ZM116.19 263.78L113.29 252.43L102.82 249.46L95.26 257.83L98.17 269.17L108.63 272.15Z"/></svg>
