<svg xmlns="http://www.w3.org/2000/svg" width="256" height="256" viewBox="0 0 256 256"><path data-band="1" fill="#fde68a" fill-opacity="0.35" d="M11.35 240.30L8.44 229.00L-1.97 226.03L-9.48 234.36L-6.57 245.66L3.84 248.63ZM173.65 118.81L170.75 107.47L160.30 104.48L152.74 112.83L155.63 124.17L166.08 127.16ZM155.63 124.17L152.74 112.83L142.29 109.84L134.73 118.19L137.63 129.52L148.08 132.51ZM178.32 99.12L175.42 87.78L164.97 84.79L157.40 93.14L160.30 104.48L170.75 107.47ZM160.30 104.48L157.40 93.14L146.95 90.16L139.39 98.51L142.29 109.84L152.74 112.83ZM186.99 133.14L184.10 121.80L173.65 118.81L166.08 127.16L168.98 138.49L179.43 141.48ZM168.98 138.49L166.08 127.16L155.63 124.17L148.08 132.51L150.97 143.84L161.42 146.83ZM191.66 113.46L188.77 102.12L178.32 99.12L170.75 107.47L173.65 118.81L184.10 121.80ZM124.29 115.21L121.39 103.88L110.94 100.89L103.39 109.25L106.29 120.58L116.74 123.56ZM106.29 120.58L103.39 109.25L92.95 106.27L85.40 114.62L88.31 125.94L98.75 128.92ZM128.94 95.52L126.04 84.19L115.59 81.21L108.04 89.56L110.94 100.89L121.39 103.88ZM110.94 100.89L108.04 89.56L97.59 86.58L90.04 94.94L92.95 106.27L103.39 109.25ZM137.63 129.52L134.73 118.19L124.29 115.21L116.74 123.56L119.63 134.88L130.08 137.87ZM119.63 134.88L116.74 123.56L106.29 120.58L98.75 128.92L101.65 140.25L112.09 143.23ZM142.29 109.84L139.39 98.51L128.94 95.52L121.39 103.88L124.29 115.21L134.73 118.19ZM201.03 74.07L198.13 62.72L187.67 59.73L180.10 68.08L182.99 79.43L193.45 82.42ZM182.99 79.43L180.10 68.08L169.64 65.09L162.07 73.45L164.97 84.79L175.42 87.78ZM205.71 54.36L202.82 43.01L192.35 40.02L184.78 48.38L187.67 59.73L198.13 62.72ZM187.67 59.73L184.78 48.38L174.31 45.39L166.74 53.75L169.64 65.09L180.10 68.08ZM219.07 68.71L216.18 57.36L205.71 54.36L198.13 62.72L201.03 74.07L211.49 77.07ZM151.61 70.46L148.72 59.12L138.26 56.14L130.70 64.49L133.60 75.83L144.05 78.82ZM133.60 75.83L130.70 64.49L120.24 61.51L112.69 69.87L115.59 81.21L126.04 84.19ZM156.28 50.76L153.38 39.41L142.92 36.43L135.36 44.79L138.26 56.14L148.72 59.12ZM138.26 56.14L135.36 44.79L124.90 41.81L117.34 50.17L120.24 61.51L130.70 64.49ZM164.97 84.79L162.07 73.45L151.61 70.46L144.05 78.82L146.95 90.16L157.40 93.14ZM146.95 90.16L144.05 78.82L133.60 75.83L126.04 84.19L128.94 95.52L139.39 98.51ZM169.64 65.09L166.74 53.75L156.28 50.76L148.72 59.12L151.61 70.46L162.07 73.45ZM195.65 167.15L192.77 155.81L182.32 152.82L174.76 161.16L177.65 172.49L188.09 175.48ZM177.65 172.49L174.76 161.16L164.31 158.16L156.76 166.50L159.65 177.83L170.09 180.82ZM200.33 147.48L197.44 136.14L186.99 133.14L179.43 141.48L182.32 152.82L192.77 155.81ZM182.32 152.82L179.43 141.48L168.98 138.49L161.42 146.83L164.31 158.16L174.76 161.16ZM208.99 181.48L206.10 170.15L195.65 167.15L188.09 175.48L190.98 186.81L201.43 189.81ZM190.98 186.81L188.09 175.48L177.65 172.49L170.09 180.82L172.98 192.15L183.42 195.15ZM213.67 161.81L210.78 150.47L200.33 147.48L192.77 155.81L195.65 167.15L206.10 170.15ZM146.31 163.51L143.42 152.18L132.98 149.20L125.43 157.54L128.32 168.86L138.76 171.85ZM128.32 168.86L125.43 157.54L114.99 154.55L107.45 162.90L110.34 174.22L120.78 177.20ZM150.97 143.84L148.08 132.51L137.63 129.52L130.08 137.87L132.98 149.20L143.42 152.18ZM132.98 149.20L130.08 137.87L119.63 134.88L112.09 143.23L114.99 154.55L125.43 157.54ZM159.65 177.83L156.76 166.50L146.31 163.51L138.76 171.85L141.66 183.18L152.10 186.17ZM141.66 183.18L138.76 171.85L128.32 168.86L120.78 177.20L123.68 188.52L134.11 191.51ZM164.31 158.16L161.42 146.83L150.97 143.84L143.42 152.18L146.31 163.51L156.76 166.50ZM223.04 122.45L220.15 111.11L209.69 108.11L202.12 116.45L205.01 127.80L215.47 130.79ZM205.01 127.80L202.12 116.45L191.66 113.46L184.10 121.80L186.99 133.14L197.44 136.14ZM227.73 102.76L224.84 91.41L214.38 88.41L206.80 96.76L209.69 108.11L220.15 111.11ZM209.69 108.11L206.80 96.76L196.34 93.77L188.77 102.12L191.66 113.46L202.12 116.45ZM236.38 136.80L233.50 125.45L223.04 122.45L215.47 130.79L218.35 142.14L228.81 145.14ZM218.35 142.14L215.47 130.79L205.01 127.80L197.44 136.14L200.33 147.48L210.78 150.47ZM241.08 117.11L238.19 105.76L227.73 102.76L220.15 111.11L223.04 122.45L233.50 125.45ZM47.74 156.36L44.83 145.04L34.40 142.07L26.87 150.42L29.78 161.73L40.21 164.70ZM29.78 161.73L26.87 150.42L16.44 147.45L8.93 155.80L11.83 167.11L22.26 170.07ZM52.36 136.69L49.45 125.37L39.02 122.40L31.49 130.75L34.40 142.07L44.83 145.04ZM34.40 142.07L31.49 130.75L21.06 127.79L13.53 136.14L16.44 147.45L26.87 150.42ZM61.07 170.64L58.17 159.33L47.74 156.36L40.21 164.70L43.12 176.01L53.54 178.98ZM43.12 176.01L40.21 164.70L29.78 161.73L22.26 170.07L25.17 181.38L35.59 184.35ZM65.70 150.98L62.79 139.66L52.36 136.69L44.83 145.04L47.74 156.36L58.17 159.33ZM3.10 133.17L0.19 121.86L-10.24 118.90L-17.75 127.25L-14.84 138.56L-4.41 141.52ZM11.83 167.11L8.93 155.80L-1.50 152.83L-9.01 161.18L-6.10 172.49L4.32 175.45ZM16.44 147.45L13.53 136.14L3.10 133.17L-4.41 141.52L-1.50 152.83L8.93 155.80ZM56.98 117.02L54.08 105.70L43.64 102.73L36.11 111.08L39.02 122.40L49.45 125.37ZM79.60 91.96L76.69 80.63L66.24 77.66L58.71 86.02L61.61 97.35L72.06 100.32ZM61.61 97.35L58.71 86.02L48.26 83.05L40.73 91.41L43.64 102.73L54.08 105.70ZM88.31 125.94L85.40 114.62L74.96 111.64L67.42 119.99L70.33 131.32L80.77 134.29ZM70.33 131.32L67.42 119.99L56.98 117.02L49.45 125.37L52.36 136.69L62.79 139.66ZM92.95 106.27L90.04 94.94L79.60 91.96L72.06 100.32L74.96 111.64L85.40 114.62ZM25.67 108.12L22.76 96.80L12.32 93.83L4.80 102.19L7.71 113.51L18.14 116.47ZM7.71 113.51L4.80 102.19L-5.64 99.23L-13.15 107.59L-10.24 118.90L0.19 121.86ZM30.29 88.44L27.38 77.12L16.94 74.15L9.41 82.51L12.32 93.83L22.76 96.80ZM39.02 122.40L36.11 111.08L25.67 108.12L18.14 116.47L21.06 127.79L31.49 130.75ZM21.06 127.79L18.14 116.47L7.71 113.51L0.19 121.86L3.10 133.17L13.53 136.14ZM43.64 102.73L40.73 91.41L30.29 88.44L22.76 96.80L25.67 108.12L36.11 111.08ZM69.78 204.58L66.88 193.27L56.45 190.30L48.92 198.63L51.83 209.94L62.25 212.92ZM51.83 209.94L48.92 198.63L38.50 195.66L30.98 204.00L33.89 215.30L44.31 218.27ZM74.40 184.93L71.50 173.62L61.07 170.64L53.54 178.98L56.45 190.30L66.88 193.27ZM56.45 190.30L53.54 178.98L43.12 176.01L35.59 184.35L38.50 195.66L48.92 198.63ZM20.56 201.03L17.65 189.72L7.23 186.76L-0.28 195.09L2.63 206.40L13.05 209.36ZM2.63 206.40L-0.28 195.09L-10.70 192.13L-18.21 200.47L-15.30 211.77L-4.88 214.73ZM25.17 181.38L22.26 170.07L11.83 167.11L4.32 175.45L7.23 186.76L17.65 189.72ZM7.23 186.76L4.32 175.45L-6.10 172.49L-13.61 180.83L-10.70 192.13L-0.28 195.09ZM33.89 215.30L30.98 204.00L20.56 201.03L13.05 209.36L15.95 220.67L26.37 223.63ZM15.95 220.67L13.05 209.36L2.63 206.40L-4.88 214.73L-1.97 226.03L8.44 229.00ZM38.50 195.66L35.59 184.35L25.17 181.38L17.65 189.72L20.56 201.03L30.98 204.00ZM97.01 159.91L94.11 148.59L83.67 145.61L76.13 153.96L79.04 165.28L89.47 168.26ZM79.04 165.28L76.13 153.96L65.70 150.98L58.17 159.33L61.07 170.64L71.50 173.62ZM101.65 140.25L98.75 128.92L88.31 125.94L80.77 134.29L83.67 145.61L94.11 148.59ZM83.67 145.61L80.77 134.29L70.33 131.32L62.79 139.66L65.70 150.98L76.13 153.96ZM110.34 174.22L107.45 162.90L97.01 159.91L89.47 168.26L92.37 179.57L102.80 182.56ZM92.37 179.57L89.47 168.26L79.04 165.28L71.50 173.62L74.40 184.93L84.84 187.91ZM114.99 154.55L112.09 143.23L101.65 140.25L94.11 148.59L97.01 159.91L107.45 162.90ZM219.78 -4.79L216.89 -16.15L206.41 -19.15L198.83 -10.78L201.72 0.58L212.20 3.57ZM201.72 0.58L198.83 -10.78L188.35 -13.77L180.77 -5.40L183.67 5.96L194.14 8.95ZM152.25 -3.00L149.35 -14.35L138.88 -17.34L131.32 -8.96L134.22 2.39L144.68 5.37ZM228.45 29.29L225.56 17.93L215.09 14.93L207.51 23.30L210.40 34.65L220.87 37.65ZM210.40 34.65L207.51 23.30L197.03 20.30L189.46 28.67L192.35 40.02L202.82 43.01ZM233.15 9.57L230.26 -1.80L219.78 -4.79L212.20 3.57L215.09 14.93L225.56 17.93ZM215.09 14.93L212.20 3.57L201.72 0.58L194.14 8.95L197.03 20.30L207.51 23.30ZM223.76 49.00L220.87 37.65L210.40 34.65L202.82 43.01L205.71 54.36L216.18 57.36ZM160.95 31.05L158.05 19.70L147.58 16.72L140.02 25.08L142.92 36.43L153.38 39.41ZM165.62 11.34L162.72 -0.02L152.25 -3.00L144.68 5.37L147.58 16.72L158.05 19.70ZM192.35 40.02L189.46 28.67L178.99 25.68L171.42 34.04L174.31 45.39L184.78 48.38ZM174.31 45.39L171.42 34.04L160.95 31.05L153.38 39.41L156.28 50.76L166.74 53.75ZM80.16 18.57L77.25 7.23L66.79 4.26L59.24 12.63L62.15 23.97L72.61 26.93ZM62.15 23.97L59.24 12.63L48.79 9.66L41.25 18.03L44.16 29.37L54.61 32.33ZM84.80 -1.15L81.89 -12.49L71.43 -15.46L63.88 -7.08L66.79 4.26L77.25 7.23ZM66.79 4.26L63.88 -7.08L53.42 -10.05L45.88 -1.68L48.79 9.66L59.24 12.63ZM93.52 32.88L90.62 21.54L80.16 18.57L72.61 26.93L75.52 38.27L85.97 41.24ZM75.52 38.27L72.61 26.93L62.15 23.97L54.61 32.33L57.52 43.67L67.97 46.64ZM98.17 13.17L95.26 1.83L84.80 -1.15L77.25 7.23L80.16 18.57L90.62 21.54ZM102.82 -6.54L99.91 -17.89L89.45 -20.86L81.89 -12.49L84.80 -1.15L95.26 1.83ZM102.23 66.89L99.33 55.56L88.88 52.58L81.33 60.94L84.23 72.28L94.69 75.25ZM84.23 72.28L81.33 60.94L70.88 57.97L63.34 66.33L66.24 77.66L76.69 80.63ZM106.88 47.19L103.98 35.85L93.52 32.88L85.97 41.24L88.88 52.58L99.33 55.56ZM88.88 52.58L85.97 41.24L75.52 38.27L67.97 46.64L70.88 57.97L81.33 60.94ZM115.59 81.21L112.69 69.87L102.23 66.89L94.69 75.25L97.59 86.58L108.04 89.56ZM97.59 86.58L94.69 75.25L84.23 72.28L76.69 80.63L79.60 91.96L90.04 94.94ZM120.24 61.51L117.34 50.17L106.88 47.19L99.33 55.56L102.23 66.89L112.69 69.87ZM52.89 63.36L49.98 52.03L39.53 49.07L32.00 57.43L34.91 68.76L45.35 71.72ZM34.91 68.76L32.00 57.43L21.55 54.47L14.02 62.83L16.94 74.15L27.38 77.12ZM57.52 43.67L54.61 32.33L44.16 29.37L36.62 37.73L39.53 49.07L49.98 52.03ZM39.53 49.07L36.62 37.73L26.17 34.77L18.64 43.14L21.55 54.47L32.00 57.43ZM66.24 77.66L63.34 66.33L52.89 63.36L45.35 71.72L48.26 83.05L58.71 86.02ZM48.26 83.05L45.35 71.72L34.91 68.76L27.38 77.12L30.29 88.44L40.73 91.41ZM70.88 57.97L67.97 46.64L57.52 43.67L49.98 52.03L52.89 63.36L63.34 66.33ZM129.56 22.10L126.65 10.76L116.19 7.78L108.63 16.15L111.53 27.49L122.00 30.47ZM111.53 27.49L108.63 16.15L98.17 13.17L90.62 21.54L93.52 32.88L103.98 35.85ZM134.22 2.39L131.32 -8.96L120.85 -11.94L113.29 -3.57L116.19 7.78L126.65 10.76ZM116.19 7.78L113.29 -3.57L102.82 -6.54L95.26 1.83L98.17 13.17L108.63 16.15ZM142.92 36.43L140.02 25.08L129.56 22.10L122.00 30.47L124.90 41.81L135.36 44.79ZM124.90 41.81L122.00 30.47L111.53 27.49L103.98 35.85L106.88 47.19L117.34 50.17ZM147.58 16.72L144.68 5.37L134.22 2.39L126.65 10.76L129.56 22.10L140.02 25.08ZM267.00 219.18L264.12 207.85L253.67 204.84L246.10 213.16L248.98 224.50L259.42 227.51ZM271.70 199.52L268.82 188.18L258.36 185.17L250.79 193.50L253.67 204.84L264.12 207.85ZM262.30 238.84L259.42 227.51L248.98 224.50L241.41 232.82L244.29 244.15L254.73 247.16ZM217.64 215.48L214.76 204.15L204.31 201.14L196.75 209.47L199.64 220.80L210.08 223.80ZM199.64 220.80L196.75 209.47L186.31 206.47L178.76 214.80L181.64 226.13L192.08 229.12ZM222.32 195.82L219.44 184.48L208.99 181.48L201.43 189.81L204.31 201.14L214.76 204.15ZM204.31 201.14L201.43 189.81L190.98 186.81L183.42 195.15L186.31 206.47L196.75 209.47ZM230.96 229.81L228.08 218.48L217.64 215.48L210.08 223.80L212.96 235.13L223.40 238.13ZM212.96 235.13L210.08 223.80L199.64 220.80L192.08 229.12L194.97 240.45L205.40 243.45ZM276.40 179.85L273.52 168.51L263.06 165.50L255.48 173.83L258.36 185.17L268.82 188.18ZM245.03 170.82L242.15 159.48L231.69 156.48L224.12 164.81L227.01 176.15L237.46 179.16ZM227.01 176.15L224.12 164.81L213.67 161.81L206.10 170.15L208.99 181.48L219.44 184.48ZM249.72 151.15L246.84 139.80L236.38 136.80L228.81 145.14L231.69 156.48L242.15 159.48ZM231.69 156.48L228.81 145.14L218.35 142.14L210.78 150.47L213.67 161.81L224.12 164.81ZM258.36 185.17L255.48 173.83L245.03 170.82L237.46 179.16L240.34 190.49L250.79 193.50ZM263.06 165.50L260.18 154.15L249.72 151.15L242.15 159.48L245.03 170.82L255.48 173.83ZM244.29 244.15L241.41 232.82L230.96 229.81L223.40 238.13L226.28 249.46L236.72 252.47ZM123.07 261.76L120.17 250.45L109.75 247.46L102.22 255.78L105.11 267.09L115.54 270.08ZM145.68 236.79L142.79 225.47L132.36 222.48L124.82 230.81L127.71 242.12L138.14 245.11ZM127.71 242.12L124.82 230.81L114.39 227.82L106.85 236.15L109.75 247.46L120.17 250.45ZM150.33 217.14L147.44 205.82L137.01 202.83L129.46 211.16L132.36 222.48L142.79 225.47ZM172.98 192.15L170.09 180.82L159.65 177.83L152.10 186.17L154.99 197.49L165.43 200.48ZM154.99 197.49L152.10 186.17L141.66 183.18L134.11 191.51L137.01 202.83L147.44 205.82ZM181.64 226.13L178.76 214.80L168.32 211.81L160.77 220.13L163.66 231.45L174.09 234.45ZM163.66 231.45L160.77 220.13L150.33 217.14L142.79 225.47L145.68 236.79L156.11 239.78ZM119.03 208.18L116.14 196.86L105.70 193.87L98.17 202.21L101.06 213.52L111.49 216.51ZM123.68 188.52L120.78 177.20L110.34 174.22L102.80 182.56L105.70 193.87L116.14 196.86ZM105.70 193.87L102.80 182.56L92.37 179.57L84.84 187.91L87.74 199.23L98.17 202.21ZM132.36 222.48L129.46 211.16L119.03 208.18L111.49 216.51L114.39 227.82L124.82 230.81ZM114.39 227.82L111.49 216.51L101.06 213.52L93.53 221.85L96.43 233.16L106.85 236.15ZM137.01 202.83L134.11 191.51L123.68 188.52L116.14 196.86L119.03 208.18L129.46 211.16ZM190.30 260.09L187.41 248.77L176.98 245.77L169.43 254.09L172.32 265.41L182.75 268.41ZM172.32 265.41L169.43 254.09L159.00 251.10L151.46 259.42L154.35 270.73L164.77 273.73ZM194.97 240.45L192.08 229.12L181.64 226.13L174.09 234.45L176.98 245.77L187.41 248.77ZM176.98 245.77L174.09 234.45L163.66 231.45L156.11 239.78L159.00 251.10L169.43 254.09ZM208.29 254.77L205.40 243.45L194.97 240.45L187.41 248.77L190.30 260.09L200.73 263.09ZM250.47 77.72L247.59 66.36L237.12 63.36L229.54 71.71L232.42 83.06L242.89 86.07ZM232.42 83.06L229.54 71.71L219.07 68.71L211.49 77.07L214.38 88.41L224.84 91.41ZM255.18 58.01L252.29 46.65L241.82 43.65L234.23 52.00L237.12 63.36L247.59 66.36ZM237.12 63.36L234.23 52.00L223.76 49.00L216.18 57.36L219.07 68.71L229.54 71.71ZM263.83 92.08L260.94 80.72L250.47 77.72L242.89 86.07L245.77 97.42L256.24 100.42ZM245.77 97.42L242.89 86.07L232.42 83.06L224.84 91.41L227.73 102.76L238.19 105.76ZM268.53 72.37L265.65 61.01L255.18 58.01L247.59 66.36L250.47 77.72L260.94 80.72ZM259.88 38.29L257.00 26.93L246.52 23.93L238.93 32.29L241.82 43.65L252.29 46.65ZM273.24 52.66L270.36 41.30L259.88 38.29L252.29 46.65L255.18 58.01L265.65 61.01ZM272.47 126.13L269.59 114.78L259.12 111.77L251.54 120.12L254.42 131.46L264.88 134.47ZM254.42 131.46L251.54 120.12L241.08 117.11L233.50 125.45L236.38 136.80L246.84 139.80ZM259.12 111.77L256.24 100.42L245.77 97.42L238.19 105.76L241.08 117.11L251.54 120.12ZM267.76 145.82L264.88 134.47L254.42 131.46L246.84 139.80L249.72 151.15L260.18 154.15Z"/><path data-band="2" fill="#f97316" fill-opacity="0.35" d="M42.60 249.21L39.69 237.91L29.28 234.94L21.76 243.27L24.67 254.56L35.08 257.54ZM24.67 254.56L21.76 243.27L11.35 240.30L3.84 248.63L6.75 259.92L17.16 262.89ZM47.21 229.58L44.31 218.27L33.89 215.30L26.37 223.63L29.28 234.94L39.69 237.91ZM29.28 234.94L26.37 223.63L15.95 220.67L8.44 229.00L11.35 240.30L21.76 243.27ZM55.91 263.49L53.01 252.19L42.60 249.21L35.08 257.54L37.98 268.83L48.40 271.81ZM37.98 268.83L35.08 257.54L24.67 254.56L17.16 262.89L20.06 274.18L30.47 277.16ZM60.53 243.86L57.63 232.55L47.21 229.58L39.69 237.91L42.60 249.21L53.01 252.19ZM6.75 259.92L3.84 248.63L-6.57 245.66L-14.07 253.99L-11.16 265.28L-0.75 268.25ZM83.10 218.87L80.20 207.56L69.78 204.58L62.25 212.92L65.15 224.22L75.58 227.20ZM65.15 224.22L62.25 212.92L51.83 209.94L44.31 218.27L47.21 229.58L57.63 232.55ZM87.74 199.23L84.84 187.91L74.40 184.93L66.88 193.27L69.78 204.58L80.20 207.56ZM248.98 224.50L246.10 213.16L235.65 210.15L228.08 218.48L230.96 229.81L241.41 232.82ZM253.67 204.84L250.79 193.50L240.34 190.49L232.77 198.82L235.65 210.15L246.10 213.16ZM235.65 210.15L232.77 198.82L222.32 195.82L214.76 204.15L217.64 215.48L228.08 218.48ZM240.34 190.49L237.46 179.16L227.01 176.15L219.44 184.48L222.32 195.82L232.77 198.82ZM275.62 253.18L272.75 241.85L262.30 238.84L254.73 247.16L257.61 258.49L268.05 261.50ZM239.60 263.79L236.72 252.47L226.28 249.46L218.72 257.78L221.60 269.10L232.04 272.11ZM221.60 269.10L218.72 257.78L208.29 254.77L200.73 263.09L203.61 274.41L214.05 277.41ZM226.28 249.46L223.40 238.13L212.96 235.13L205.40 243.45L208.29 254.77L218.72 257.78ZM257.61 258.49L254.73 247.16L244.29 244.15L236.72 252.47L239.60 263.79L250.04 266.80ZM141.03 256.42L138.14 245.11L127.71 242.12L120.17 250.45L123.07 261.76L133.49 264.75ZM159.00 251.10L156.11 239.78L145.68 236.79L138.14 245.11L141.03 256.42L151.46 259.42ZM91.80 252.80L88.90 241.49L78.48 238.51L70.95 246.84L73.85 258.14L84.27 261.12ZM73.85 258.14L70.95 246.84L60.53 243.86L53.01 252.19L55.91 263.49L66.33 266.46ZM96.43 233.16L93.53 221.85L83.10 218.87L75.58 227.20L78.48 238.51L88.90 241.49ZM78.48 238.51L75.58 227.20L65.15 224.22L57.63 232.55L60.53 243.86L70.95 246.84ZM105.11 267.09L102.22 255.78L91.80 252.80L84.27 261.12L87.17 272.43L97.59 275.41ZM109.75 247.46L106.85 236.15L96.43 233.16L88.90 241.49L91.80 252.80L102.22 255.78ZM168.32 211.81L165.43 200.48L154.99 197.49L147.44 205.82L150.33 217.14L160.77 220.13ZM186.31 206.47L183.42 195.15L172.98 192.15L165.43 200.48L168.32 211.81L178.76 214.80ZM101.06 213.52L98.17 202.21L87.74 199.23L80.20 207.56L83.10 218.87L93.53 221.85Z"/></svg>
