<svg xmlns="http://www.w3.org/2000/svg" width="256" height="256" viewBox="0 0 256 256"><path data-band="1" fill="#fde68a" fill-opacity="0.35" d="M260.02 202.37L257.16 191.07L246.74 188.05L239.20 196.33L242.07 207.63L252.48 210.65ZM264.70 182.79L261.84 171.48L251.42 168.46L243.87 176.75L246.74 188.05L257.16 191.07ZM273.30 216.69L270.44 205.39L260.02 202.37L252.48 210.65L255.35 221.94L265.76 224.96ZM201.53 237.72L198.66 226.43L188.26 223.42L180.74 231.70L183.61 242.98L194.01 245.99ZM206.19 218.15L203.32 206.86L192.91 203.85L185.39 212.13L188.26 223.42L198.66 226.43ZM188.26 223.42L185.39 212.13L174.98 209.13L167.46 217.41L170.34 228.69L180.74 231.70ZM214.80 252.02L211.93 240.73L201.53 237.72L194.01 245.99L196.88 257.27L207.28 260.29ZM219.46 232.46L216.59 221.17L206.19 218.15L198.66 226.43L201.53 237.72L211.93 240.73ZM242.07 207.63L239.20 196.33L228.79 193.31L221.25 201.60L224.13 212.89L234.53 215.90ZM224.13 212.89L221.25 201.60L210.85 198.58L203.32 206.86L206.19 218.15L216.59 221.17ZM246.74 188.05L243.87 176.75L233.46 173.73L225.92 182.02L228.79 193.31L239.20 196.33ZM179.63 189.56L176.76 178.26L166.35 175.26L158.83 183.55L161.71 194.83L172.11 197.84ZM161.71 194.83L158.83 183.55L148.42 180.55L140.91 188.83L143.79 200.12L154.19 203.12ZM192.91 203.85L190.04 192.56L179.63 189.56L172.11 197.84L174.98 209.13L185.39 212.13ZM174.98 209.13L172.11 197.84L161.71 194.83L154.19 203.12L157.06 214.40L167.46 217.41ZM197.57 184.28L194.69 172.98L184.28 169.98L176.76 178.26L179.63 189.56L190.04 192.56ZM228.07 266.32L225.20 255.03L214.80 252.02L207.28 260.29L210.15 271.57L220.54 274.59ZM250.67 241.51L247.81 230.22L237.40 227.20L229.87 235.47L232.73 246.76L243.14 249.78ZM232.73 246.76L229.87 235.47L219.46 232.46L211.93 240.73L214.80 252.02L225.20 255.03ZM255.35 221.94L252.48 210.65L242.07 207.63L234.53 215.90L237.40 227.20L247.81 230.22ZM237.40 227.20L234.53 215.90L224.13 212.89L216.59 221.17L219.46 232.46L229.87 235.47ZM263.94 255.82L261.08 244.53L250.67 241.51L243.14 249.78L246.00 261.07L256.40 264.09ZM246.00 261.07L243.14 249.78L232.73 246.76L225.20 255.03L228.07 266.32L238.47 269.34ZM268.62 236.26L265.76 224.96L255.35 221.94L247.81 230.22L250.67 241.51L261.08 244.53ZM238.87 81.01L235.99 69.69L225.56 66.68L218.01 74.99L220.89 86.30L231.31 89.31ZM252.17 95.34L249.30 84.02L238.87 81.01L231.31 89.31L234.19 100.62L244.61 103.64ZM184.96 96.89L182.08 85.59L171.66 82.58L164.12 90.89L167.00 102.19L177.42 105.19ZM167.00 102.19L164.12 90.89L153.71 87.89L146.17 96.19L149.06 107.49L159.47 110.49ZM189.62 77.28L186.74 65.97L176.31 62.97L168.77 71.28L171.66 82.58L182.08 85.59ZM171.66 82.58L168.77 71.28L158.35 68.28L150.82 76.59L153.71 87.89L164.12 90.89ZM198.26 111.20L195.38 99.90L184.96 96.89L177.42 105.19L180.30 116.49L190.72 119.50ZM180.30 116.49L177.42 105.19L167.00 102.19L159.47 110.49L162.36 121.79L172.77 124.79ZM202.92 91.59L200.04 80.29L189.62 77.28L182.08 85.59L184.96 96.89L195.38 99.90ZM243.55 61.39L240.67 50.07L230.24 47.06L222.69 55.37L225.56 66.68L235.99 69.69ZM266.23 36.47L263.36 25.14L252.92 22.13L245.36 30.44L248.23 41.76L258.67 44.78ZM248.23 41.76L245.36 30.44L234.92 27.43L227.36 35.74L230.24 47.06L240.67 50.07ZM212.26 52.36L209.38 41.05L198.95 38.04L191.40 46.35L194.28 57.67L204.71 60.67ZM194.28 57.67L191.40 46.35L180.97 43.35L173.43 51.66L176.31 62.97L186.74 65.97ZM216.93 32.73L214.05 21.41L203.61 18.41L196.06 26.73L198.95 38.04L209.38 41.05ZM198.95 38.04L196.06 26.73L185.63 23.72L178.09 32.04L180.97 43.35L191.40 46.35ZM225.56 66.68L222.69 55.37L212.26 52.36L204.71 60.67L207.59 71.98L218.01 74.99ZM207.59 71.98L204.71 60.67L194.28 57.67L186.74 65.97L189.62 77.28L200.04 80.29ZM230.24 47.06L227.36 35.74L216.93 32.73L209.38 41.05L212.26 52.36L222.69 55.37ZM269.39 163.20L266.52 151.89L256.10 148.87L248.55 157.16L251.42 168.46L261.84 171.48ZM251.42 168.46L248.55 157.16L238.13 154.14L230.59 162.43L233.46 173.73L243.87 176.75ZM274.07 143.60L271.20 132.29L260.78 129.27L253.23 137.57L256.10 148.87L266.52 151.89ZM206.89 145.11L204.01 133.81L193.60 130.80L186.06 139.09L188.94 150.39L199.35 153.40ZM211.55 125.51L208.67 114.21L198.26 111.20L190.72 119.50L193.60 130.80L204.01 133.81ZM193.60 130.80L190.72 119.50L180.30 116.49L172.77 124.79L175.65 136.09L186.06 139.09ZM202.23 164.70L199.35 153.40L188.94 150.39L181.41 158.68L184.28 169.98L194.69 172.98ZM265.47 109.67L262.60 98.35L252.17 95.34L244.61 103.64L247.49 114.95L257.91 117.96ZM140.40 73.59L137.52 62.29L127.10 59.30L119.57 67.61L122.46 78.91L132.87 81.90ZM149.06 107.49L146.17 96.19L135.76 93.20L128.24 101.50L131.12 112.80L141.53 115.79ZM153.71 87.89L150.82 76.59L140.40 73.59L132.87 81.90L135.76 93.20L146.17 96.19ZM157.71 141.38L154.83 130.09L144.42 127.09L136.89 135.39L139.78 146.68L150.18 149.68ZM162.36 121.79L159.47 110.49L149.06 107.49L141.53 115.79L144.42 127.09L154.83 130.09ZM153.07 160.97L150.18 149.68L139.78 146.68L132.26 154.97L135.14 166.26L145.54 169.26ZM175.65 136.09L172.77 124.79L162.36 121.79L154.83 130.09L157.71 141.38L168.12 144.38ZM234.92 27.43L232.04 16.11L221.60 13.10L214.05 21.41L216.93 32.73L227.36 35.74ZM123.07 5.76L120.17 -5.55L109.75 -8.54L102.22 -0.22L105.11 11.09L115.54 14.08ZM163.01 48.66L160.12 37.35L149.70 34.36L142.16 42.67L145.05 53.98L155.47 56.97ZM145.05 53.98L142.16 42.67L131.74 39.68L124.21 47.99L127.10 59.30L137.52 62.29ZM167.66 29.04L164.77 17.73L154.35 14.73L146.81 23.05L149.70 34.36L160.12 37.35ZM149.70 34.36L146.81 23.05L136.38 20.06L128.85 28.37L131.74 39.68L142.16 42.67ZM176.31 62.97L173.43 51.66L163.01 48.66L155.47 56.97L158.35 68.28L168.77 71.28ZM158.35 68.28L155.47 56.97L145.05 53.98L137.52 62.29L140.40 73.59L150.82 76.59ZM180.97 43.35L178.09 32.04L167.66 29.04L160.12 37.35L163.01 48.66L173.43 51.66ZM127.10 59.30L124.21 47.99L113.79 45.00L106.26 53.32L109.16 64.62L119.57 67.61ZM131.74 39.68L128.85 28.37L118.43 25.38L110.90 33.70L113.79 45.00L124.21 47.99ZM190.30 4.09L187.41 -7.23L176.98 -10.23L169.43 -1.91L172.32 9.41L182.75 12.41ZM172.32 9.41L169.43 -1.91L159.00 -4.90L151.46 3.42L154.35 14.73L164.77 17.73ZM203.61 18.41L200.73 7.09L190.30 4.09L182.75 12.41L185.63 23.72L196.06 26.73ZM185.63 23.72L182.75 12.41L172.32 9.41L164.77 17.73L167.66 29.04L178.09 32.04ZM208.29 -1.23L205.40 -12.55L194.97 -15.55L187.41 -7.23L190.30 4.09L200.73 7.09Z"/><path data-band="2" fill="#f97316" fill-opacity="0.35" d="M183.61 242.98L180.74 231.70L170.34 228.69L162.82 236.97L165.70 248.25L176.09 251.25ZM196.88 257.27L194.01 245.99L183.61 242.98L176.09 251.25L178.97 262.53L189.36 265.54ZM152.43 233.96L149.55 222.68L139.15 219.68L131.64 227.96L134.52 239.24L144.91 242.24ZM157.06 214.40L154.19 203.12L143.79 200.12L136.27 208.40L139.15 219.68L149.55 222.68ZM139.15 219.68L136.27 208.40L125.88 205.40L118.37 213.68L121.25 224.96L131.64 227.96ZM165.70 248.25L162.82 236.97L152.43 233.96L144.91 242.24L147.79 253.52L158.18 256.52ZM170.34 228.69L167.46 217.41L157.06 214.40L149.55 222.68L152.43 233.96L162.82 236.97ZM228.79 193.31L225.92 182.02L215.51 179.00L207.97 187.29L210.85 198.58L221.25 201.60ZM210.85 198.58L207.97 187.29L197.57 184.28L190.04 192.56L192.91 203.85L203.32 206.86ZM233.46 173.73L230.59 162.43L220.18 159.42L212.64 167.71L215.51 179.00L225.92 182.02ZM215.51 179.00L212.64 167.71L202.23 164.70L194.69 172.98L197.57 184.28L207.97 187.29ZM184.28 169.98L181.41 158.68L171.00 155.68L163.47 163.97L166.35 175.26L176.76 178.26ZM166.35 175.26L163.47 163.97L153.07 160.97L145.54 169.26L148.42 180.55L158.83 183.55ZM178.97 262.53L176.09 251.25L165.70 248.25L158.18 256.52L161.06 267.80L171.45 270.80ZM161.06 267.80L158.18 256.52L147.79 253.52L140.28 261.79L143.16 273.06L153.55 276.07ZM234.19 100.62L231.31 89.31L220.89 86.30L213.34 94.60L216.22 105.91L226.64 108.92ZM216.22 105.91L213.34 94.60L202.92 91.59L195.38 99.90L198.26 111.20L208.67 114.21ZM220.89 86.30L218.01 74.99L207.59 71.98L200.04 80.29L202.92 91.59L213.34 94.60ZM247.49 114.95L244.61 103.64L234.19 100.62L226.64 108.92L229.51 120.23L239.94 123.24ZM229.51 120.23L226.64 108.92L216.22 105.91L208.67 114.21L211.55 125.51L221.97 128.52ZM261.54 56.10L258.67 44.78L248.23 41.76L240.67 50.07L243.55 61.39L253.98 64.40ZM274.85 70.43L271.97 59.11L261.54 56.10L253.98 64.40L256.85 75.72L267.28 78.74ZM256.85 75.72L253.98 64.40L243.55 61.39L235.99 69.69L238.87 81.01L249.30 84.02ZM256.10 148.87L253.23 137.57L242.81 134.55L235.26 142.84L238.13 154.14L248.55 157.16ZM238.13 154.14L235.26 142.84L224.84 139.83L217.30 148.12L220.18 159.42L230.59 162.43ZM260.78 129.27L257.91 117.96L247.49 114.95L239.94 123.24L242.81 134.55L253.23 137.57ZM242.81 134.55L239.94 123.24L229.51 120.23L221.97 128.52L224.84 139.83L235.26 142.84ZM188.94 150.39L186.06 139.09L175.65 136.09L168.12 144.38L171.00 155.68L181.41 158.68ZM220.18 159.42L217.30 148.12L206.89 145.11L199.35 153.40L202.23 164.70L212.64 167.71ZM224.84 139.83L221.97 128.52L211.55 125.51L204.01 133.81L206.89 145.11L217.30 148.12ZM270.15 90.05L267.28 78.74L256.85 75.72L249.30 84.02L252.17 95.34L262.60 98.35ZM1.20 169.57L-1.70 158.30L-12.08 155.33L-19.56 163.63L-16.66 174.90L-6.28 177.87ZM10.38 130.43L7.48 119.15L-2.91 116.18L-10.40 124.49L-7.50 135.76L2.89 138.73ZM14.97 110.85L12.07 99.57L1.68 96.60L-5.82 104.91L-2.91 116.18L7.48 119.15ZM23.67 144.68L20.77 133.41L10.38 130.43L2.89 138.73L5.79 150.01L16.18 152.98ZM5.79 150.01L2.89 138.73L-7.50 135.76L-14.98 144.06L-12.08 155.33L-1.70 158.30ZM28.27 125.10L25.37 113.82L14.97 110.85L7.48 119.15L10.38 130.43L20.77 133.41ZM5.31 222.93L2.42 211.66L-7.96 208.69L-15.44 216.98L-12.54 228.24L-2.17 231.21ZM9.90 203.38L7.00 192.11L-3.38 189.14L-10.86 197.43L-7.96 208.69L2.42 211.66ZM18.58 237.17L15.69 225.90L5.31 222.93L-2.17 231.21L0.73 242.47L11.10 245.45ZM0.73 242.47L-2.17 231.21L-12.54 228.24L-20.01 236.52L-17.11 247.78L-6.74 250.75ZM23.17 217.62L20.28 206.35L9.90 203.38L2.42 211.66L5.31 222.93L15.69 225.90ZM32.36 178.51L29.46 167.23L19.08 164.25L11.59 172.55L14.49 183.82L24.87 186.80ZM14.49 183.82L11.59 172.55L1.20 169.57L-6.28 177.87L-3.38 189.14L7.00 192.11ZM36.96 158.94L34.06 147.66L23.67 144.68L16.18 152.98L19.08 164.25L29.46 167.23ZM19.08 164.25L16.18 152.98L5.79 150.01L-1.70 158.30L1.20 169.57L11.59 172.55ZM45.64 192.76L42.75 181.49L32.36 178.51L24.87 186.80L27.77 198.07L38.15 201.05ZM27.77 198.07L24.87 186.80L14.49 183.82L7.00 192.11L9.90 203.38L20.28 206.35ZM50.24 173.19L47.35 161.92L36.96 158.94L29.46 167.23L32.36 178.51L42.75 181.49ZM15.46 37.80L12.56 26.51L2.15 23.54L-5.35 31.86L-2.44 43.15L7.96 46.12ZM20.06 18.18L17.16 6.89L6.75 3.92L-0.75 12.25L2.15 23.54L12.56 26.51ZM2.15 23.54L-0.75 12.25L-11.16 9.28L-18.66 17.61L-15.75 28.89L-5.35 31.86ZM28.77 52.06L25.87 40.77L15.46 37.80L7.96 46.12L10.86 57.41L21.27 60.38ZM10.86 57.41L7.96 46.12L-2.44 43.15L-9.94 51.47L-7.03 62.75L3.37 65.72ZM33.38 32.45L30.47 21.16L20.06 18.18L12.56 26.51L15.46 37.80L25.87 40.77ZM42.60 -6.79L39.69 -18.09L29.28 -21.06L21.76 -12.73L24.67 -1.44L35.08 1.54ZM24.67 -1.44L21.76 -12.73L11.35 -15.70L3.84 -7.37L6.75 3.92L17.16 6.89ZM55.91 7.49L53.01 -3.81L42.60 -6.79L35.08 1.54L37.98 12.83L48.40 15.81ZM37.98 12.83L35.08 1.54L24.67 -1.44L17.16 6.89L20.06 18.18L30.47 21.16ZM6.75 3.92L3.84 -7.37L-6.57 -10.34L-14.07 -2.01L-11.16 9.28L-0.75 12.25ZM37.47 85.93L34.57 74.64L24.17 71.66L16.67 79.98L19.57 91.26L29.97 94.24ZM19.57 91.26L16.67 79.98L6.27 77.00L-1.23 85.32L1.68 96.60L12.07 99.57ZM42.08 66.33L39.18 55.04L28.77 52.06L21.27 60.38L24.17 71.66L34.57 74.64ZM24.17 71.66L21.27 60.38L10.86 57.41L3.37 65.72L6.27 77.00L16.67 79.98ZM50.77 100.19L47.87 88.90L37.47 85.93L29.97 94.24L32.87 105.52L43.27 108.50ZM32.87 105.52L29.97 94.24L19.57 91.26L12.07 99.57L14.97 110.85L25.37 113.82ZM55.38 80.60L52.48 69.31L42.08 66.33L34.57 74.64L37.47 85.93L47.87 88.90ZM1.68 96.60L-1.23 85.32L-11.62 82.35L-19.11 90.66L-16.21 101.94L-5.82 104.91ZM6.27 77.00L3.37 65.72L-7.03 62.75L-14.53 71.07L-11.62 82.35L-1.23 85.32ZM64.61 41.38L61.71 30.08L51.30 27.11L43.79 35.43L46.69 46.72L57.10 49.70ZM46.69 46.72L43.79 35.43L33.38 32.45L25.87 40.77L28.77 52.06L39.18 55.04ZM69.23 21.77L66.33 10.46L55.91 7.49L48.40 15.81L51.30 27.11L61.71 30.08ZM51.30 27.11L48.40 15.81L37.98 12.83L30.47 21.16L33.38 32.45L43.79 35.43ZM77.92 55.66L75.02 44.36L64.61 41.38L57.10 49.70L59.99 60.99L70.40 63.97ZM59.99 60.99L57.10 49.70L46.69 46.72L39.18 55.04L42.08 66.33L52.48 69.31ZM82.54 36.05L79.64 24.75L69.23 21.77L61.71 30.08L64.61 41.38L75.02 44.36ZM80.86 255.08L77.97 243.81L67.59 240.82L60.10 249.10L62.98 260.37L73.36 263.36ZM62.98 260.37L60.10 249.10L49.72 246.12L42.23 254.39L45.12 265.65L55.50 268.64ZM94.12 269.34L91.24 258.07L80.86 255.08L73.36 263.36L76.25 274.62L86.63 277.61ZM31.85 251.41L28.96 240.15L18.58 237.17L11.10 245.45L14.00 256.71L24.37 259.69ZM14.00 256.71L11.10 245.45L0.73 242.47L-6.74 250.75L-3.85 262.01L6.52 264.98ZM45.12 265.65L42.23 254.39L31.85 251.41L24.37 259.69L27.26 270.95L37.64 273.93ZM103.35 230.25L100.47 218.97L90.08 215.98L82.58 224.26L85.47 235.53L95.85 238.53ZM85.47 235.53L82.58 224.26L72.19 221.27L64.70 229.55L67.59 240.82L77.97 243.81ZM107.97 210.69L105.09 199.41L94.70 196.42L87.19 204.70L90.08 215.98L100.47 218.97ZM90.08 215.98L87.19 204.70L76.80 201.72L69.31 210.00L72.19 221.27L82.58 224.26ZM98.74 249.80L95.85 238.53L85.47 235.53L77.97 243.81L80.86 255.08L91.24 258.07ZM121.25 224.96L118.37 213.68L107.97 210.69L100.47 218.97L103.35 230.25L113.74 233.24ZM54.32 226.57L51.43 215.30L41.04 212.32L33.55 220.60L36.45 231.87L46.83 234.85ZM36.45 231.87L33.55 220.60L23.17 217.62L15.69 225.90L18.58 237.17L28.96 240.15ZM58.92 207.01L56.03 195.74L45.64 192.76L38.15 201.05L41.04 212.32L51.43 215.30ZM41.04 212.32L38.15 201.05L27.77 198.07L20.28 206.35L23.17 217.62L33.55 220.60ZM67.59 240.82L64.70 229.55L54.32 226.57L46.83 234.85L49.72 246.12L60.10 249.10ZM49.72 246.12L46.83 234.85L36.45 231.87L28.96 240.15L31.85 251.41L42.23 254.39ZM72.19 221.27L69.31 210.00L58.92 207.01L51.43 215.30L54.32 226.57L64.70 229.55ZM108.56 137.69L105.68 126.41L95.27 123.42L87.76 131.72L90.65 143.00L101.05 145.99ZM90.65 143.00L87.76 131.72L77.36 128.73L69.85 137.03L72.75 148.31L83.14 151.30ZM113.19 118.11L110.30 106.81L99.90 103.82L92.38 112.13L95.27 123.42L105.68 126.41ZM95.27 123.42L92.38 112.13L81.98 109.14L74.47 117.44L77.36 128.73L87.76 131.72ZM121.85 151.98L118.97 140.69L108.56 137.69L101.05 145.99L103.94 157.28L114.34 160.27ZM103.94 157.28L101.05 145.99L90.65 143.00L83.14 151.30L86.03 162.58L96.43 165.57ZM126.49 132.39L123.60 121.10L113.19 118.11L105.68 126.41L108.56 137.69L118.97 140.69ZM59.46 134.04L56.56 122.76L46.16 119.78L38.66 128.08L41.56 139.36L51.95 142.34ZM41.56 139.36L38.66 128.08L28.27 125.10L20.77 133.41L23.67 144.68L34.06 147.66ZM46.16 119.78L43.27 108.50L32.87 105.52L25.37 113.82L28.27 125.10L38.66 128.08ZM72.75 148.31L69.85 137.03L59.46 134.04L51.95 142.34L54.85 153.62L65.24 156.61ZM54.85 153.62L51.95 142.34L41.56 139.36L34.06 147.66L36.96 158.94L47.35 161.92ZM135.76 93.20L132.87 81.90L122.46 78.91L114.94 87.21L117.83 98.51L128.24 101.50ZM117.83 98.51L114.94 87.21L104.53 84.22L97.01 92.53L99.90 103.82L110.30 106.81ZM122.46 78.91L119.57 67.61L109.16 64.62L101.63 72.93L104.53 84.22L114.94 87.21ZM131.12 112.80L128.24 101.50L117.83 98.51L110.30 106.81L113.19 118.11L123.60 121.10ZM86.60 89.54L83.71 78.25L73.30 75.27L65.79 83.58L68.68 94.87L79.09 97.85ZM91.22 69.94L88.33 58.64L77.92 55.66L70.40 63.97L73.30 75.27L83.71 78.25ZM73.30 75.27L70.40 63.97L59.99 60.99L52.48 69.31L55.38 80.60L65.79 83.58ZM99.90 103.82L97.01 92.53L86.60 89.54L79.09 97.85L81.98 109.14L92.38 112.13ZM104.53 84.22L101.63 72.93L91.22 69.94L83.71 78.25L86.60 89.54L97.01 92.53ZM130.51 185.83L127.62 174.55L117.22 171.55L109.71 179.84L112.60 191.13L122.99 194.12ZM112.60 191.13L109.71 179.84L99.32 176.85L91.81 185.14L94.70 196.42L105.09 199.41ZM135.14 166.26L132.26 154.97L121.85 151.98L114.34 160.27L117.22 171.55L127.62 174.55ZM117.22 171.55L114.34 160.27L103.94 157.28L96.43 165.57L99.32 176.85L109.71 179.84ZM143.79 200.12L140.91 188.83L130.51 185.83L122.99 194.12L125.88 205.40L136.27 208.40ZM125.88 205.40L122.99 194.12L112.60 191.13L105.09 199.41L107.97 210.69L118.37 213.68ZM148.42 180.55L145.54 169.26L135.14 166.26L127.62 174.55L130.51 185.83L140.91 188.83ZM81.42 182.15L78.53 170.87L68.13 167.89L60.63 176.18L63.52 187.45L73.91 190.44ZM63.52 187.45L60.63 176.18L50.24 173.19L42.75 181.49L45.64 192.76L56.03 195.74ZM86.03 162.58L83.14 151.30L72.75 148.31L65.24 156.61L68.13 167.89L78.53 170.87ZM68.13 167.89L65.24 156.61L54.85 153.62L47.35 161.92L50.24 173.19L60.63 176.18ZM94.70 196.42L91.81 185.14L81.42 182.15L73.91 190.44L76.80 201.72L87.19 204.70ZM76.80 201.72L73.91 190.44L63.52 187.45L56.03 195.74L58.92 207.01L69.31 210.00ZM99.32 176.85L96.43 165.57L86.03 162.58L78.53 170.87L81.42 182.15L91.81 185.14ZM139.78 146.68L136.89 135.39L126.49 132.39L118.97 140.69L121.85 151.98L132.26 154.97ZM144.42 127.09L141.53 115.79L131.12 112.80L123.60 121.10L126.49 132.39L136.89 135.39ZM171.00 155.68L168.12 144.38L157.71 141.38L150.18 149.68L153.07 160.97L163.47 163.97ZM270.92 16.83L268.05 5.50L257.61 2.49L250.04 10.80L252.92 22.13L263.36 25.14ZM275.62 -2.82L272.75 -14.15L262.30 -17.16L254.73 -8.84L257.61 2.49L268.05 5.50ZM239.60 7.79L236.72 -3.53L226.28 -6.54L218.72 1.78L221.60 13.10L232.04 16.11ZM221.60 13.10L218.72 1.78L208.29 -1.23L200.73 7.09L203.61 18.41L214.05 21.41ZM226.28 -6.54L223.40 -17.87L212.96 -20.87L205.40 -12.55L208.29 -1.23L218.72 1.78ZM252.92 22.13L250.04 10.80L239.60 7.79L232.04 16.11L234.92 27.43L245.36 30.44ZM257.61 2.49L254.73 -8.84L244.29 -11.85L236.72 -3.53L239.60 7.79L250.04 10.80ZM141.03 0.42L138.14 -10.89L127.71 -13.88L120.17 -5.55L123.07 5.76L133.49 8.75ZM154.35 14.73L151.46 3.42L141.03 0.42L133.49 8.75L136.38 20.06L146.81 23.05ZM136.38 20.06L133.49 8.75L123.07 5.76L115.54 14.08L118.43 25.38L128.85 28.37ZM159.00 -4.90L156.11 -16.22L145.68 -19.21L138.14 -10.89L141.03 0.42L151.46 3.42ZM91.80 -3.20L88.90 -14.51L78.48 -17.49L70.95 -9.16L73.85 2.14L84.27 5.12ZM73.85 2.14L70.95 -9.16L60.53 -12.14L53.01 -3.81L55.91 7.49L66.33 10.46ZM105.11 11.09L102.22 -0.22L91.80 -3.20L84.27 5.12L87.17 16.43L97.59 19.41ZM87.17 16.43L84.27 5.12L73.85 2.14L66.33 10.46L69.23 21.77L79.64 24.75ZM113.79 45.00L110.90 33.70L100.48 30.71L92.96 39.03L95.85 50.33L106.26 53.32ZM95.85 50.33L92.96 39.03L82.54 36.05L75.02 44.36L77.92 55.66L88.33 58.64ZM118.43 25.38L115.54 14.08L105.11 11.09L97.59 19.41L100.48 30.71L110.90 33.70ZM100.48 30.71L97.59 19.41L87.17 16.43L79.64 24.75L82.54 36.05L92.96 39.03ZM109.16 64.62L106.26 53.32L95.85 50.33L88.33 58.64L91.22 69.94L101.63 72.93Z"/><path data-band="3" fill="#dc2626" fill-opacity="0.35" d="M134.52 239.24L131.64 227.96L121.25 224.96L113.74 233.24L116.63 244.52L127.01 247.51ZM147.79 253.52L144.91 242.24L134.52 239.24L127.01 247.51L129.89 258.79L140.28 261.79ZM116.63 244.52L113.74 233.24L103.35 230.25L95.85 238.53L98.74 249.80L109.12 252.79ZM129.89 258.79L127.01 247.51L116.63 244.52L109.12 252.79L112.00 264.06L122.39 267.06ZM112.00 264.06L109.12 252.79L98.74 249.80L91.24 258.07L94.12 269.34L104.50 272.34ZM64.07 114.46L61.17 103.17L50.77 100.19L43.27 108.50L46.16 119.78L56.56 122.76ZM77.36 128.73L74.47 117.44L64.07 114.46L56.56 122.76L59.46 134.04L69.85 137.03ZM68.68 94.87L65.79 83.58L55.38 80.60L47.87 88.90L50.77 100.19L61.17 103.17ZM81.98 109.14L79.09 97.85L68.68 94.87L61.17 103.17L64.07 114.46L74.47 117.44Z"/></svg>
