<svg xmlns="http://www.w3.org/2000/svg" width="256" height="256" viewBox="0 0 256 256"><path data-band="1" fill="#fde68a" fill-opacity="0.35" d="M118.84 260.09L115.97 248.86L105.63 245.85L98.15 254.08L101.03 265.31L111.37 268.32ZM149.89 269.13L147.02 257.89L136.67 254.88L129.19 263.10L132.06 274.34L142.41 277.35ZM154.50 249.66L151.64 238.42L141.28 235.41L133.80 243.64L136.67 254.88L147.02 257.89ZM87.81 251.08L84.94 239.84L74.59 236.84L67.13 245.08L70.00 256.30L80.34 259.30ZM70.00 256.30L67.13 245.08L56.79 242.08L49.32 250.31L52.20 261.53L62.54 264.53ZM92.41 231.61L89.53 220.38L79.18 217.38L71.71 225.61L74.59 236.84L84.94 239.84ZM74.59 236.84L71.71 225.61L61.37 222.61L53.91 230.85L56.79 242.08L67.13 245.08ZM101.03 265.31L98.15 254.08L87.81 251.08L80.34 259.30L83.22 270.53L93.56 273.54ZM105.63 245.85L102.75 234.62L92.41 231.61L84.94 239.84L87.81 251.08L98.15 254.08ZM163.75 210.72L160.88 199.47L150.52 196.46L143.03 204.69L145.90 215.94L156.26 218.95ZM176.97 224.98L174.11 213.73L163.75 210.72L156.26 218.95L159.12 230.19L169.48 233.21ZM159.12 230.19L156.26 218.95L145.90 215.94L138.41 224.17L141.28 235.41L151.64 238.42ZM181.60 205.50L178.74 194.25L168.37 191.24L160.88 199.47L163.75 210.72L174.11 213.73ZM119.44 187.43L116.57 176.19L106.21 173.18L98.73 181.43L101.61 192.67L111.96 195.67ZM101.61 192.67L98.73 181.43L88.38 178.42L80.90 186.67L83.78 197.91L94.13 200.91ZM110.23 226.39L107.36 215.15L97.01 212.14L89.53 220.38L92.41 231.61L102.75 234.62ZM132.67 201.68L129.80 190.44L119.44 187.43L111.96 195.67L114.84 206.91L125.19 209.92ZM185.56 258.72L182.70 247.47L172.34 244.45L164.86 252.68L167.72 263.92L178.07 266.94ZM167.72 263.92L164.86 252.68L154.50 249.66L147.02 257.89L149.89 269.13L160.23 272.14ZM190.19 239.25L187.33 228.00L176.97 224.98L169.48 233.21L172.34 244.45L182.70 247.47ZM172.34 244.45L169.48 233.21L159.12 230.19L151.64 238.42L154.50 249.66L164.86 252.68ZM203.41 253.51L200.55 242.27L190.19 239.25L182.70 247.47L185.56 258.72L195.92 261.74ZM169.03 118.47L166.16 107.21L155.78 104.20L148.28 112.45L151.15 123.71L161.52 126.72ZM151.15 123.71L148.28 112.45L137.91 109.44L130.41 117.70L133.29 128.95L143.66 131.96ZM173.66 98.95L170.79 87.69L160.41 84.68L152.91 92.93L155.78 104.20L166.16 107.21ZM155.78 104.20L152.91 92.93L142.53 89.93L135.03 98.18L137.91 109.44L148.28 112.45ZM182.27 132.74L179.40 121.48L169.03 118.47L161.52 126.72L164.40 137.98L174.77 140.99ZM164.40 137.98L161.52 126.72L151.15 123.71L143.66 131.96L146.53 143.21L156.90 146.22ZM186.91 113.23L184.04 101.97L173.66 98.95L166.16 107.21L169.03 118.47L179.40 121.48ZM120.04 114.69L117.17 103.44L106.80 100.43L99.31 108.69L102.19 119.94L112.55 122.94ZM102.19 119.94L99.31 108.69L88.94 105.69L81.46 113.95L84.34 125.20L94.70 128.19ZM124.66 95.18L121.78 83.92L111.41 80.92L103.92 89.18L106.80 100.43L117.17 103.44ZM106.80 100.43L103.92 89.18L93.55 86.18L86.06 94.44L88.94 105.69L99.31 108.69ZM133.29 128.95L130.41 117.70L120.04 114.69L112.55 122.94L115.43 134.20L125.80 137.20ZM115.43 134.20L112.55 122.94L102.19 119.94L94.70 128.19L97.58 139.44L107.94 142.44ZM137.91 109.44L135.03 98.18L124.66 95.18L117.17 103.44L120.04 114.69L130.41 117.70ZM196.19 74.19L193.33 62.92L182.94 59.90L175.43 68.16L178.30 79.43L188.68 82.44ZM178.30 79.43L175.43 68.16L165.05 65.15L157.54 73.41L160.41 84.68L170.79 87.69ZM200.84 54.66L197.97 43.38L187.58 40.37L180.07 48.63L182.94 59.90L193.33 62.92ZM182.94 59.90L180.07 48.63L169.68 45.62L162.17 53.88L165.05 65.15L175.43 68.16ZM209.45 88.48L206.58 77.20L196.19 74.19L188.68 82.44L191.55 93.71L201.93 96.73ZM191.55 93.71L188.68 82.44L178.30 79.43L170.79 87.69L173.66 98.95L184.04 101.97ZM214.10 68.95L211.23 57.67L200.84 54.66L193.33 62.92L196.19 74.19L206.58 77.20ZM147.16 70.41L144.28 59.14L133.90 56.14L126.40 64.40L129.28 75.66L139.66 78.67ZM129.28 75.66L126.40 64.40L116.03 61.40L108.53 69.66L111.41 80.92L121.78 83.92ZM151.79 50.88L148.91 39.61L138.53 36.60L131.03 44.87L133.90 56.14L144.28 59.14ZM160.41 84.68L157.54 73.41L147.16 70.41L139.66 78.67L142.53 89.93L152.91 92.93ZM142.53 89.93L139.66 78.67L129.28 75.66L121.78 83.92L124.66 95.18L135.03 98.18ZM165.05 65.15L162.17 53.88L151.79 50.88L144.28 59.14L147.16 70.41L157.54 73.41ZM190.87 166.52L188.00 155.26L177.63 152.25L170.13 160.49L173.00 171.74L183.37 174.76ZM195.51 147.02L192.64 135.76L182.27 132.74L174.77 140.99L177.63 152.25L188.00 155.26ZM177.63 152.25L174.77 140.99L164.40 137.98L156.90 146.22L159.77 157.48L170.13 160.49ZM204.10 180.80L201.24 169.54L190.87 166.52L183.37 174.76L186.23 186.01L196.60 189.03ZM186.23 186.01L183.37 174.76L173.00 171.74L165.51 179.98L168.37 191.24L178.74 194.25ZM208.75 161.30L205.88 150.04L195.51 147.02L188.00 155.26L190.87 166.52L201.24 169.54ZM141.91 162.71L139.04 151.46L128.67 148.45L121.18 156.70L124.06 167.95L134.42 170.95ZM124.06 167.95L121.18 156.70L110.82 153.69L103.34 161.94L106.21 173.18L116.57 176.19ZM146.53 143.21L143.66 131.96L133.29 128.95L125.80 137.20L128.67 148.45L139.04 151.46ZM137.29 182.20L134.42 170.95L124.06 167.95L116.57 176.19L119.44 187.43L129.80 190.44ZM218.04 122.28L215.18 111.02L204.80 108.00L197.29 116.25L200.15 127.51L210.53 130.53ZM200.15 127.51L197.29 116.25L186.91 113.23L179.40 121.48L182.27 132.74L192.64 135.76ZM222.70 102.77L219.83 91.49L209.45 88.48L201.93 96.73L204.80 108.00L215.18 111.02ZM204.80 108.00L201.93 96.73L191.55 93.71L184.04 101.97L186.91 113.23L197.29 116.25ZM231.29 136.57L228.42 125.30L218.04 122.28L210.53 130.53L213.39 141.79L223.77 144.82ZM213.39 141.79L210.53 130.53L200.15 127.51L192.64 135.76L195.51 147.02L205.88 150.04ZM235.94 117.06L233.08 105.79L222.70 102.77L215.18 111.02L218.04 122.28L228.42 125.30ZM44.08 155.20L41.20 143.96L30.84 140.97L23.38 149.22L26.26 160.46L36.61 163.45ZM48.67 135.71L45.78 124.47L35.43 121.48L27.96 129.73L30.84 140.97L41.20 143.96ZM61.91 149.95L59.02 138.70L48.67 135.71L41.20 143.96L44.08 155.20L54.43 158.19ZM71.10 110.95L68.21 99.70L57.85 96.71L50.37 104.97L53.26 116.21L63.62 119.21ZM53.26 116.21L50.37 104.97L40.01 101.98L32.54 110.24L35.43 121.48L45.78 124.47ZM75.70 91.44L72.81 80.19L62.44 77.20L54.96 85.46L57.85 96.71L68.21 99.70ZM57.85 96.71L54.96 85.46L44.60 82.47L37.12 90.73L40.01 101.98L50.37 104.97ZM84.34 125.20L81.46 113.95L71.10 110.95L63.62 119.21L66.50 130.45L76.86 133.45ZM66.50 130.45L63.62 119.21L53.26 116.21L45.78 124.47L48.67 135.71L59.02 138.70ZM88.94 105.69L86.06 94.44L75.70 91.44L68.21 99.70L71.10 110.95L81.46 113.95ZM22.18 107.25L19.29 96.00L8.94 93.02L1.47 101.28L4.36 112.52L14.72 115.51ZM4.36 112.52L1.47 101.28L-8.89 98.30L-16.35 106.56L-13.45 117.80L-3.10 120.78ZM26.76 87.74L23.87 76.50L13.51 73.51L6.04 81.78L8.94 93.02L19.29 96.00ZM8.94 93.02L6.04 81.78L-4.31 78.80L-11.78 87.06L-8.89 98.30L1.47 101.28ZM40.01 101.98L37.12 90.73L26.76 87.74L19.29 96.00L22.18 107.25L32.54 110.24ZM79.18 217.38L76.31 206.14L65.96 203.14L58.49 211.38L61.37 222.61L71.71 225.61ZM106.21 173.18L103.34 161.94L92.98 158.94L85.50 167.18L88.38 178.42L98.73 181.43ZM88.38 178.42L85.50 167.18L75.14 164.18L67.67 172.43L70.55 183.67L80.90 186.67ZM261.67 218.44L258.82 207.18L248.44 204.15L240.93 212.38L243.79 223.64L254.16 226.67ZM243.79 223.64L240.93 212.38L230.56 209.36L223.06 217.58L225.92 228.84L236.28 231.87ZM266.33 198.95L263.48 187.69L253.10 184.66L245.59 192.89L248.44 204.15L258.82 207.18ZM248.44 204.15L245.59 192.89L235.22 189.87L227.70 198.10L230.56 209.36L240.93 212.38ZM274.90 232.73L272.04 221.47L261.67 218.44L254.16 226.67L257.01 237.92L267.38 240.96ZM257.01 237.92L254.16 226.67L243.79 223.64L236.28 231.87L239.14 243.12L249.50 246.15ZM212.69 214.56L209.83 203.31L199.46 200.29L191.96 208.52L194.83 219.77L205.19 222.79ZM194.83 219.77L191.96 208.52L181.60 205.50L174.11 213.73L176.97 224.98L187.33 228.00ZM217.34 195.07L214.47 183.82L204.10 180.80L196.60 189.03L199.46 200.29L209.83 203.31ZM199.46 200.29L196.60 189.03L186.23 186.01L178.74 194.25L181.60 205.50L191.96 208.52ZM225.92 228.84L223.06 217.58L212.69 214.56L205.19 222.79L208.05 234.04L218.41 237.06ZM208.05 234.04L205.19 222.79L194.83 219.77L187.33 228.00L190.19 239.25L200.55 242.27ZM230.56 209.36L227.70 198.10L217.34 195.07L209.83 203.31L212.69 214.56L223.06 217.58ZM271.00 179.45L268.14 168.19L257.76 165.16L250.24 173.39L253.10 184.66L263.48 187.69ZM275.67 159.95L272.81 148.68L262.43 145.65L254.90 153.89L257.76 165.16L268.14 168.19ZM239.87 170.37L237.01 159.10L226.63 156.08L219.12 164.32L221.98 175.58L232.36 178.60ZM221.98 175.58L219.12 164.32L208.75 161.30L201.24 169.54L204.10 180.80L214.47 183.82ZM244.53 150.86L241.67 139.60L231.29 136.57L223.77 144.82L226.63 156.08L237.01 159.10ZM226.63 156.08L223.77 144.82L213.39 141.79L205.88 150.04L208.75 161.30L219.12 164.32ZM253.10 184.66L250.24 173.39L239.87 170.37L232.36 178.60L235.22 189.87L245.59 192.89ZM235.22 189.87L232.36 178.60L221.98 175.58L214.47 183.82L217.34 195.07L227.70 198.10ZM257.76 165.16L254.90 153.89L244.53 150.86L237.01 159.10L239.87 170.37L250.24 173.39ZM270.23 252.21L267.38 240.96L257.01 237.92L249.50 246.15L252.36 257.40L262.72 260.43ZM234.49 262.59L231.63 251.34L221.27 248.31L213.77 256.54L216.63 267.78L226.99 270.81ZM216.63 267.78L213.77 256.54L203.41 253.51L195.92 261.74L198.78 272.98L209.13 276.00ZM239.14 243.12L236.28 231.87L225.92 228.84L218.41 237.06L221.27 248.31L231.63 251.34ZM221.27 248.31L218.41 237.06L208.05 234.04L200.55 242.27L203.41 253.51L213.77 256.54ZM252.36 257.40L249.50 246.15L239.14 243.12L231.63 251.34L234.49 262.59L244.85 265.62ZM214.80 -3.98L211.93 -15.27L201.53 -18.28L194.01 -10.01L196.88 1.27L207.28 4.29ZM223.41 29.87L220.54 18.59L210.15 15.57L202.62 23.84L205.49 35.12L215.88 38.13ZM205.49 35.12L202.62 23.84L192.23 20.82L184.71 29.09L187.58 40.37L197.97 43.38ZM228.07 10.32L225.20 -0.97L214.80 -3.98L207.28 4.29L210.15 15.57L220.54 18.59ZM210.15 15.57L207.28 4.29L196.88 1.27L189.36 9.54L192.23 20.82L202.62 23.84ZM236.67 44.17L233.80 32.89L223.41 29.87L215.88 38.13L218.75 49.41L229.14 52.43ZM218.75 49.41L215.88 38.13L205.49 35.12L197.97 43.38L200.84 54.66L211.23 57.67ZM241.34 24.62L238.47 13.34L228.07 10.32L220.54 18.59L223.41 29.87L233.80 32.89ZM187.58 40.37L184.71 29.09L174.32 26.08L166.81 34.35L169.68 45.62L180.07 48.63ZM192.23 20.82L189.36 9.54L178.97 6.53L171.45 14.80L174.32 26.08L184.71 29.09ZM263.94 -0.18L261.08 -11.47L250.67 -14.49L243.14 -6.22L246.00 5.07L256.40 8.09ZM246.00 5.07L243.14 -6.22L232.73 -9.24L225.20 -0.97L228.07 10.32L238.47 13.34ZM276.44 87.09L273.58 75.80L263.18 72.78L255.65 81.03L258.52 92.31L268.90 95.34ZM245.26 78.01L242.40 66.73L232.01 63.71L224.49 71.97L227.35 83.24L237.74 86.26ZM227.35 83.24L224.49 71.97L214.10 68.95L206.58 77.20L209.45 88.48L219.83 91.49ZM249.93 58.47L247.07 47.19L236.67 44.17L229.14 52.43L232.01 63.71L242.40 66.73ZM232.01 63.71L229.14 52.43L218.75 49.41L211.23 57.67L214.10 68.95L224.49 71.97ZM258.52 92.31L255.65 81.03L245.26 78.01L237.74 86.26L240.60 97.54L250.99 100.56ZM240.60 97.54L237.74 86.26L227.35 83.24L219.83 91.49L222.70 102.77L233.08 105.79ZM263.18 72.78L260.32 61.50L249.93 58.47L242.40 66.73L245.26 78.01L255.65 81.03ZM272.53 33.69L269.67 22.40L259.27 19.38L251.73 27.64L254.60 38.93L264.99 41.95ZM254.60 38.93L251.73 27.64L241.34 24.62L233.80 32.89L236.67 44.17L247.07 47.19ZM259.27 19.38L256.40 8.09L246.00 5.07L238.47 13.34L241.34 24.62L251.73 27.64ZM267.86 53.24L264.99 41.95L254.60 38.93L247.07 47.19L249.93 58.47L260.32 61.50ZM267.09 126.14L264.24 114.86L253.85 111.83L246.33 120.08L249.19 131.35L259.57 134.38ZM249.19 131.35L246.33 120.08L235.94 117.06L228.42 125.30L231.29 136.57L241.67 139.60ZM271.76 106.61L268.90 95.34L258.52 92.31L250.99 100.56L253.85 111.83L264.24 114.86ZM253.85 111.83L250.99 100.56L240.60 97.54L233.08 105.79L235.94 117.06L246.33 120.08ZM262.43 145.65L259.57 134.38L249.19 131.35L241.67 139.60L244.53 150.86L254.90 153.89ZM111.41 80.92L108.53 69.66L98.16 66.66L90.67 74.92L93.55 86.18L103.92 89.18ZM93.55 86.18L90.67 74.92L80.30 71.93L72.81 80.19L75.70 91.44L86.06 94.44ZM31.35 68.23L28.46 56.98L18.09 54.00L10.62 62.27L13.51 73.51L23.87 76.50ZM62.44 77.20L59.56 65.94L49.19 62.95L41.71 71.22L44.60 82.47L54.96 85.46ZM44.60 82.47L41.71 71.22L31.35 68.23L23.87 76.50L26.76 87.74L37.12 90.73ZM13.51 73.51L10.62 62.27L0.26 59.28L-7.21 67.55L-4.31 78.80L6.04 81.78Z"/><path data-band="2" fill="#f97316" fill-opacity="0.35" d="M133.90 56.14L131.03 44.87L120.65 41.87L113.15 50.13L116.03 61.40L126.40 64.40ZM196.88 1.27L194.01 -10.01L183.61 -13.02L176.09 -4.75L178.97 6.53L189.36 9.54ZM165.70 -7.75L162.82 -19.03L152.43 -22.04L144.91 -13.76L147.79 -2.48L158.18 0.52ZM174.32 26.08L171.45 14.80L161.06 11.80L153.55 20.07L156.42 31.34L166.81 34.35ZM156.42 31.34L153.55 20.07L143.16 17.06L135.65 25.33L138.53 36.60L148.91 39.61ZM178.97 6.53L176.09 -4.75L165.70 -7.75L158.18 0.52L161.06 11.80L171.45 14.80ZM161.06 11.80L158.18 0.52L147.79 -2.48L140.28 5.79L143.16 17.06L153.55 20.07ZM169.68 45.62L166.81 34.35L156.42 31.34L148.91 39.61L151.79 50.88L162.17 53.88ZM76.25 18.62L73.36 7.36L62.98 4.37L55.50 12.64L58.38 23.90L68.76 26.89ZM58.38 23.90L55.50 12.64L45.12 9.65L37.64 17.93L40.53 29.19L50.90 32.17ZM80.86 -0.92L77.97 -12.19L67.59 -15.18L60.10 -6.90L62.98 4.37L73.36 7.36ZM62.98 4.37L60.10 -6.90L49.72 -9.88L42.23 -1.61L45.12 9.65L55.50 12.64ZM89.51 32.88L86.63 21.61L76.25 18.62L68.76 26.89L71.64 38.15L82.02 41.15ZM71.64 38.15L68.76 26.89L58.38 23.90L50.90 32.17L53.79 43.43L64.16 46.42ZM94.12 13.34L91.24 2.07L80.86 -0.92L73.36 7.36L76.25 18.62L86.63 21.61ZM27.26 14.95L24.37 3.69L14.00 0.71L6.52 8.98L9.42 20.24L19.79 23.22ZM9.42 20.24L6.52 8.98L-3.85 6.01L-11.32 14.28L-8.42 25.54L1.94 28.51ZM31.85 -4.59L28.96 -15.85L18.58 -18.83L11.10 -10.55L14.00 0.71L24.37 3.69ZM14.00 0.71L11.10 -10.55L0.73 -13.53L-6.74 -5.25L-3.85 6.01L6.52 8.98ZM40.53 29.19L37.64 17.93L27.26 14.95L19.79 23.22L22.68 34.48L33.05 37.46ZM22.68 34.48L19.79 23.22L9.42 20.24L1.94 28.51L4.84 39.77L15.20 42.75ZM45.12 9.65L42.23 -1.61L31.85 -4.59L24.37 3.69L27.26 14.95L37.64 17.93ZM98.74 -6.20L95.85 -17.47L85.47 -20.47L77.97 -12.19L80.86 -0.92L91.24 2.07ZM98.16 66.66L95.28 55.40L84.90 52.41L77.41 60.67L80.30 71.93L90.67 74.92ZM80.30 71.93L77.41 60.67L67.04 57.68L59.56 65.94L62.44 77.20L72.81 80.19ZM102.77 47.14L99.89 35.87L89.51 32.88L82.02 41.15L84.90 52.41L95.28 55.40ZM84.90 52.41L82.02 41.15L71.64 38.15L64.16 46.42L67.04 57.68L77.41 60.67ZM116.03 61.40L113.15 50.13L102.77 47.14L95.28 55.40L98.16 66.66L108.53 69.66ZM49.19 62.95L46.30 51.70L35.94 48.71L28.46 56.98L31.35 68.23L41.71 71.22ZM53.79 43.43L50.90 32.17L40.53 29.19L33.05 37.46L35.94 48.71L46.30 51.70ZM35.94 48.71L33.05 37.46L22.68 34.48L15.20 42.75L18.09 54.00L28.46 56.98ZM67.04 57.68L64.16 46.42L53.79 43.43L46.30 51.70L49.19 62.95L59.56 65.94ZM107.39 27.60L104.50 16.34L94.12 13.34L86.63 21.61L89.51 32.88L99.89 35.87ZM138.53 36.60L135.65 25.33L125.27 22.33L117.77 30.60L120.65 41.87L131.03 44.87ZM120.65 41.87L117.77 30.60L107.39 27.60L99.89 35.87L102.77 47.14L113.15 50.13ZM143.16 17.06L140.28 5.79L129.89 2.79L122.39 11.06L125.27 22.33L135.65 25.33ZM0.26 59.28L-2.63 48.04L-13.00 45.06L-20.46 53.33L-17.57 64.57L-7.21 67.55ZM4.84 39.77L1.94 28.51L-8.42 25.54L-15.89 33.81L-13.00 45.06L-2.63 48.04ZM18.09 54.00L15.20 42.75L4.84 39.77L-2.63 48.04L0.26 59.28L10.62 62.27Z"/><path data-band="3" fill="#dc2626" fill-opacity="0.35" d="M147.79 -2.48L144.91 -13.76L134.52 -16.76L127.01 -8.49L129.89 2.79L140.28 5.79ZM125.27 22.33L122.39 11.06L112.00 8.06L104.50 16.34L107.39 27.60L117.77 30.60ZM129.89 2.79L127.01 -8.49L116.63 -11.48L109.12 -3.21L112.00 8.06L122.39 11.06ZM112.00 8.06L109.12 -3.21L98.74 -6.20L91.24 2.07L94.12 13.34L104.50 16.34Z"/></svg>
