<svg xmlns="http://www.w3.org/2000/svg" width="256" height="256" viewBox="0 0 256 256"><path data-band="1" fill="#fde68a" fill-opacity="0.35" d="M118.84 4.09L115.97 -7.14L105.63 -10.15L98.15 -1.92L101.03 9.31L111.37 12.32ZM149.89 13.13L147.02 1.89L136.67 -1.12L129.19 7.10L132.06 18.34L142.41 21.35ZM132.06 18.34L129.19 7.10L118.84 4.09L111.37 12.32L114.24 23.55L124.58 26.56ZM154.50 -6.34L151.64 -17.58L141.28 -20.59L133.80 -12.36L136.67 -1.12L147.02 1.89ZM87.81 -4.92L84.94 -16.16L74.59 -19.16L67.13 -10.92L70.00 0.30L80.34 3.30ZM70.00 0.30L67.13 -10.92L56.79 -13.92L49.32 -5.69L52.20 5.53L62.54 8.53ZM101.03 9.31L98.15 -1.92L87.81 -4.92L80.34 3.30L83.22 14.53L93.56 17.54ZM83.22 14.53L80.34 3.30L70.00 0.30L62.54 8.53L65.42 19.76L75.75 22.76ZM158.48 46.83L155.62 35.60L145.27 32.58L137.79 40.80L140.66 52.03L151.00 55.05ZM140.66 52.03L137.79 40.80L127.45 37.79L119.98 46.01L122.85 57.23L133.19 60.25ZM163.10 27.38L160.23 16.14L149.89 13.13L142.41 21.35L145.27 32.58L155.62 35.60ZM145.27 32.58L142.41 21.35L132.06 18.34L124.58 26.56L127.45 37.79L137.79 40.80ZM171.69 61.08L168.83 49.85L158.48 46.83L151.00 55.05L153.87 66.28L164.21 69.29ZM153.87 66.28L151.00 55.05L140.66 52.03L133.19 60.25L136.05 71.47L146.39 74.49ZM176.31 41.63L173.45 30.40L163.10 27.38L155.62 35.60L158.48 46.83L168.83 49.85ZM109.64 43.00L106.77 31.77L96.43 28.76L88.97 36.98L91.84 48.21L102.17 51.21ZM91.84 48.21L88.97 36.98L78.63 33.98L71.17 42.20L74.04 53.42L84.37 56.43ZM114.24 23.55L111.37 12.32L101.03 9.31L93.56 17.54L96.43 28.76L106.77 31.77ZM96.43 28.76L93.56 17.54L83.22 14.53L75.75 22.76L78.63 33.98L88.97 36.98ZM122.85 57.23L119.98 46.01L109.64 43.00L102.17 51.21L105.04 62.44L115.38 65.45ZM105.04 62.44L102.17 51.21L91.84 48.21L84.37 56.43L87.25 67.65L97.58 70.65ZM127.45 37.79L124.58 26.56L114.24 23.55L106.77 31.77L109.64 43.00L119.98 46.01ZM185.56 2.72L182.70 -8.53L172.34 -11.55L164.86 -3.32L167.72 7.92L178.07 10.94ZM167.72 7.92L164.86 -3.32L154.50 -6.34L147.02 1.89L149.89 13.13L160.23 16.14ZM198.78 16.98L195.92 5.74L185.56 2.72L178.07 10.94L180.93 22.18L191.29 25.20ZM180.93 22.18L178.07 10.94L167.72 7.92L160.23 16.14L163.10 27.38L173.45 30.40ZM203.41 -2.49L200.55 -13.73L190.19 -16.75L182.70 -8.53L185.56 2.72L195.92 5.74ZM25.27 49.65L22.39 38.43L12.06 35.44L4.62 43.66L7.50 54.88L17.82 57.87ZM7.50 54.88L4.62 43.66L-5.71 40.68L-13.15 48.90L-10.26 60.11L0.06 63.10ZM33.90 83.29L31.03 72.07L20.70 69.08L13.26 77.30L16.14 88.50L26.46 91.50ZM16.14 88.50L13.26 77.30L2.94 74.30L-4.50 82.52L-1.62 93.72L8.70 96.72ZM38.48 63.86L35.60 52.64L25.27 49.65L17.82 57.87L20.70 69.08L31.03 72.07ZM20.70 69.08L17.82 57.87L7.50 54.88L0.06 63.10L2.94 74.30L13.26 77.30ZM47.10 97.49L44.23 86.28L33.90 83.29L26.46 91.50L29.34 102.71L39.66 105.70ZM29.34 102.71L26.46 91.50L16.14 88.50L8.70 96.72L11.58 107.92L21.90 110.92ZM51.68 78.07L48.80 66.86L38.48 63.86L31.03 72.07L33.90 83.29L44.23 86.28ZM2.94 74.30L0.06 63.10L-10.26 60.11L-17.70 68.33L-14.82 79.53L-4.50 82.52ZM60.83 39.20L57.96 27.98L47.62 24.98L40.17 33.21L43.05 44.42L53.38 47.42ZM43.05 44.42L40.17 33.21L29.84 30.21L22.39 38.43L25.27 49.65L35.60 52.64ZM65.42 19.76L62.54 8.53L52.20 5.53L44.75 13.76L47.62 24.98L57.96 27.98ZM47.62 24.98L44.75 13.76L34.41 10.77L26.96 18.99L29.84 30.21L40.17 33.21ZM74.04 53.42L71.17 42.20L60.83 39.20L53.38 47.42L56.25 58.64L66.58 61.64ZM56.25 58.64L53.38 47.42L43.05 44.42L35.60 52.64L38.48 63.86L48.80 66.86ZM78.63 33.98L75.75 22.76L65.42 19.76L57.96 27.98L60.83 39.20L71.17 42.20ZM229.13 98.67L226.27 87.44L215.93 84.41L208.44 92.62L211.29 103.85L221.63 106.88ZM211.29 103.85L208.44 92.62L198.09 89.59L190.61 97.80L193.47 109.02L203.81 112.05ZM233.77 79.23L230.91 68.00L220.56 64.97L213.07 73.18L215.93 84.41L226.27 87.44ZM215.93 84.41L213.07 73.18L202.72 70.15L195.24 78.36L198.09 89.59L208.44 92.62ZM242.32 112.94L239.47 101.71L229.13 98.67L221.63 106.88L224.49 118.11L234.83 121.14ZM224.49 118.11L221.63 106.88L211.29 103.85L203.81 112.05L206.66 123.28L217.00 126.31ZM246.97 93.50L244.11 82.27L233.77 79.23L226.27 87.44L229.13 98.67L239.47 101.71ZM180.27 94.77L177.41 83.54L167.07 80.52L159.59 88.73L162.45 99.96L172.79 102.98ZM162.45 99.96L159.59 88.73L149.25 85.71L141.78 93.92L144.65 105.14L154.98 108.16ZM184.89 75.33L182.03 64.10L171.69 61.08L164.21 69.29L167.07 80.52L177.41 83.54ZM167.07 80.52L164.21 69.29L153.87 66.28L146.39 74.49L149.25 85.71L159.59 88.73ZM193.47 109.02L190.61 97.80L180.27 94.77L172.79 102.98L175.65 114.20L185.99 117.23ZM175.65 114.20L172.79 102.98L162.45 99.96L154.98 108.16L157.84 119.38L168.17 122.40ZM198.09 89.59L195.24 78.36L184.89 75.33L177.41 83.54L180.27 94.77L190.61 97.80ZM256.26 54.61L253.41 43.36L243.06 40.33L235.55 48.54L238.41 59.79L248.76 62.82ZM238.41 59.79L235.55 48.54L225.20 45.51L217.71 53.73L220.56 64.97L230.91 68.00ZM260.92 35.15L258.06 23.90L247.70 20.87L240.20 29.09L243.06 40.33L253.41 43.36ZM243.06 40.33L240.20 29.09L229.84 26.06L222.35 34.27L225.20 45.51L235.55 48.54ZM269.47 68.89L266.62 57.64L256.26 54.61L248.76 62.82L251.61 74.06L261.97 77.09ZM251.61 74.06L248.76 62.82L238.41 59.79L230.91 68.00L233.77 79.23L244.11 82.27ZM274.13 49.43L271.28 38.19L260.92 35.15L253.41 43.36L256.26 54.61L266.62 57.64ZM207.36 50.70L204.50 39.46L194.15 36.44L186.66 44.65L189.52 55.89L199.87 58.91ZM189.52 55.89L186.66 44.65L176.31 41.63L168.83 49.85L171.69 61.08L182.03 64.10ZM211.99 31.25L209.13 20.00L198.78 16.98L191.29 25.20L194.15 36.44L204.50 39.46ZM194.15 36.44L191.29 25.20L180.93 22.18L173.45 30.40L176.31 41.63L186.66 44.65ZM220.56 64.97L217.71 53.73L207.36 50.70L199.87 58.91L202.72 70.15L213.07 73.18ZM202.72 70.15L199.87 58.91L189.52 55.89L182.03 64.10L184.89 75.33L195.24 78.36ZM225.20 45.51L222.35 34.27L211.99 31.25L204.50 39.46L207.36 50.70L217.71 53.73ZM250.87 146.64L248.02 135.41L237.68 132.37L230.19 140.57L233.04 151.80L243.38 154.83ZM233.04 151.80L230.19 140.57L219.85 137.54L212.37 145.73L215.22 156.96L225.56 159.99ZM255.52 127.21L252.67 115.98L242.32 112.94L234.83 121.14L237.68 132.37L248.02 135.41ZM237.68 132.37L234.83 121.14L224.49 118.11L217.00 126.31L219.85 137.54L230.19 140.57ZM264.06 160.91L261.21 149.68L250.87 146.64L243.38 154.83L246.23 166.06L256.57 169.10ZM246.23 166.06L243.38 154.83L233.04 151.80L225.56 159.99L228.41 171.21L238.74 174.25ZM268.71 141.48L265.86 130.25L255.52 127.21L248.02 135.41L250.87 146.64L261.21 149.68ZM202.03 142.70L199.18 131.48L188.84 128.45L181.37 136.65L184.22 147.87L194.56 150.90ZM184.22 147.87L181.37 136.65L171.03 133.63L163.56 141.82L166.42 153.04L176.75 156.07ZM206.66 123.28L203.81 112.05L193.47 109.02L185.99 117.23L188.84 128.45L199.18 131.48ZM188.84 128.45L185.99 117.23L175.65 114.20L168.17 122.40L171.03 133.63L181.37 136.65ZM215.22 156.96L212.37 145.73L202.03 142.70L194.56 150.90L197.41 162.12L207.74 165.15ZM197.41 162.12L194.56 150.90L184.22 147.87L176.75 156.07L179.61 167.28L189.93 170.31ZM219.85 137.54L217.00 126.31L206.66 123.28L199.18 131.48L202.03 142.70L212.37 145.73ZM260.16 107.78L257.32 96.54L246.97 93.50L239.47 101.71L242.32 112.94L252.67 115.98ZM264.82 88.34L261.97 77.09L251.61 74.06L244.11 82.27L246.97 93.50L257.32 96.54ZM273.36 122.05L270.51 110.81L260.16 107.78L252.67 115.98L255.52 127.21L265.86 130.25ZM104.46 134.94L101.59 123.73L91.27 120.72L83.81 128.92L86.68 140.13L97.01 143.14ZM86.68 140.13L83.81 128.92L73.49 125.92L66.04 134.12L68.91 145.33L79.23 148.33ZM109.05 115.53L106.19 104.31L95.86 101.30L88.40 109.51L91.27 120.72L101.59 123.73ZM91.27 120.72L88.40 109.51L78.07 106.50L70.62 114.71L73.49 125.92L83.81 128.92ZM117.65 149.17L114.79 137.95L104.46 134.94L97.01 143.14L99.87 154.35L110.19 157.36ZM99.87 154.35L97.01 143.14L86.68 140.13L79.23 148.33L82.10 159.54L92.42 162.55ZM122.25 129.75L119.38 118.54L109.05 115.53L101.59 123.73L104.46 134.94L114.79 137.95ZM55.73 131.12L52.85 119.91L42.53 116.91L35.09 125.12L37.96 136.32L48.28 139.32ZM37.96 136.32L35.09 125.12L24.77 122.12L17.34 130.33L20.21 141.53L30.53 144.52ZM60.30 111.71L57.43 100.49L47.10 97.49L39.66 105.70L42.53 116.91L52.85 119.91ZM42.53 116.91L39.66 105.70L29.34 102.71L21.90 110.92L24.77 122.12L35.09 125.12ZM68.91 145.33L66.04 134.12L55.73 131.12L48.28 139.32L51.15 150.53L61.47 153.53ZM51.15 150.53L48.28 139.32L37.96 136.32L30.53 144.52L33.40 155.72L43.71 158.73ZM73.49 125.92L70.62 114.71L60.30 111.71L52.85 119.91L55.73 131.12L66.04 134.12ZM131.45 90.91L128.58 79.68L118.25 76.67L110.78 84.88L113.65 96.10L123.98 99.11ZM113.65 96.10L110.78 84.88L100.45 81.87L92.99 90.08L95.86 101.30L106.19 104.31ZM136.05 71.47L133.19 60.25L122.85 57.23L115.38 65.45L118.25 76.67L128.58 79.68ZM118.25 76.67L115.38 65.45L105.04 62.44L97.58 70.65L100.45 81.87L110.78 84.88ZM144.65 105.14L141.78 93.92L131.45 90.91L123.98 99.11L126.85 110.33L137.18 113.35ZM126.85 110.33L123.98 99.11L113.65 96.10L106.19 104.31L109.05 115.53L119.38 118.54ZM149.25 85.71L146.39 74.49L136.05 71.47L128.58 79.68L131.45 90.91L141.78 93.92ZM82.66 87.08L79.79 75.86L69.46 72.86L62.00 81.07L64.88 92.28L75.20 95.29ZM64.88 92.28L62.00 81.07L51.68 78.07L44.23 86.28L47.10 97.49L57.43 100.49ZM87.25 67.65L84.37 56.43L74.04 53.42L66.58 61.64L69.46 72.86L79.79 75.86ZM69.46 72.86L66.58 61.64L56.25 58.64L48.80 66.86L51.68 78.07L62.00 81.07ZM95.86 101.30L92.99 90.08L82.66 87.08L75.20 95.29L78.07 106.50L88.40 109.51ZM78.07 106.50L75.20 95.29L64.88 92.28L57.43 100.49L60.30 111.71L70.62 114.71ZM100.45 81.87L97.58 70.65L87.25 67.65L79.79 75.86L82.66 87.08L92.99 90.08ZM126.24 182.80L123.38 171.59L113.06 168.57L105.60 176.77L108.47 187.97L118.78 190.99ZM108.47 187.97L105.60 176.77L95.29 173.76L87.84 181.95L90.70 193.15L101.02 196.16ZM130.84 163.39L127.97 152.18L117.65 149.17L110.19 157.36L113.06 168.57L123.38 171.59ZM113.06 168.57L110.19 157.36L99.87 154.35L92.42 162.55L95.29 173.76L105.60 176.77ZM139.42 197.02L136.56 185.81L126.24 182.80L118.78 190.99L121.65 202.19L131.96 205.21ZM121.65 202.19L118.78 190.99L108.47 187.97L101.02 196.16L103.88 207.37L114.19 210.38ZM144.02 177.62L141.16 166.41L130.84 163.39L123.38 171.59L126.24 182.80L136.56 185.81ZM77.52 178.94L74.65 167.74L64.34 164.73L56.90 172.93L59.77 184.13L70.08 187.13ZM59.77 184.13L56.90 172.93L46.58 169.92L39.15 178.12L42.02 189.32L52.33 192.32ZM82.10 159.54L79.23 148.33L68.91 145.33L61.47 153.53L64.34 164.73L74.65 167.74ZM64.34 164.73L61.47 153.53L51.15 150.53L43.71 158.73L46.58 169.92L56.90 172.93ZM90.70 193.15L87.84 181.95L77.52 178.94L70.08 187.13L72.95 198.33L83.26 201.34ZM72.95 198.33L70.08 187.13L59.77 184.13L52.33 192.32L55.20 203.52L65.50 206.52ZM95.29 173.76L92.42 162.55L82.10 159.54L74.65 167.74L77.52 178.94L87.84 181.95ZM153.23 138.80L150.37 127.59L140.04 124.57L132.57 132.77L135.44 143.98L145.76 147.00ZM135.44 143.98L132.57 132.77L122.25 129.75L114.79 137.95L117.65 149.17L127.97 152.18ZM157.84 119.38L154.98 108.16L144.65 105.14L137.18 113.35L140.04 124.57L150.37 127.59ZM140.04 124.57L137.18 113.35L126.85 110.33L119.38 118.54L122.25 129.75L132.57 132.77ZM166.42 153.04L163.56 141.82L153.23 138.80L145.76 147.00L148.62 158.22L158.95 161.24ZM148.62 158.22L145.76 147.00L135.44 143.98L127.97 152.18L130.84 163.39L141.16 166.41ZM171.03 133.63L168.17 122.40L157.84 119.38L150.37 127.59L153.23 138.80L163.56 141.82ZM265.57 15.68L262.72 4.43L252.36 1.40L244.85 9.62L247.70 20.87L258.06 23.90ZM270.23 -3.79L267.38 -15.04L257.01 -18.08L249.50 -9.85L252.36 1.40L262.72 4.43ZM234.49 6.59L231.63 -4.66L221.27 -7.69L213.77 0.54L216.63 11.78L226.99 14.81ZM216.63 11.78L213.77 0.54L203.41 -2.49L195.92 5.74L198.78 16.98L209.13 20.00ZM221.27 -7.69L218.41 -18.94L208.05 -21.96L200.55 -13.73L203.41 -2.49L213.77 0.54ZM247.70 20.87L244.85 9.62L234.49 6.59L226.99 14.81L229.84 26.06L240.20 29.09ZM229.84 26.06L226.99 14.81L216.63 11.78L209.13 20.00L211.99 31.25L222.35 34.27ZM252.36 1.40L249.50 -9.85L239.14 -12.88L231.63 -4.66L234.49 6.59L244.85 9.62ZM259.41 180.32L256.57 169.10L246.23 166.06L238.74 174.25L241.59 185.47L251.92 188.51ZM201.35 215.17L198.50 203.96L188.17 200.93L180.70 209.12L183.56 220.33L193.88 223.36ZM148.00 230.64L145.14 219.44L134.82 216.42L127.37 224.60L130.23 235.80L140.54 238.82ZM130.23 235.80L127.37 224.60L117.05 221.58L109.61 229.77L112.47 240.96L122.78 243.98ZM152.60 211.25L149.74 200.04L139.42 197.02L131.96 205.21L134.82 216.42L145.14 219.44ZM134.82 216.42L131.96 205.21L121.65 202.19L114.19 210.38L117.05 221.58L127.37 224.60ZM161.17 244.87L158.31 233.66L148.00 230.64L140.54 238.82L143.40 250.02L153.71 253.05ZM165.77 225.48L162.92 214.27L152.60 211.25L145.14 219.44L148.00 230.64L158.31 233.66ZM223.78 190.62L220.93 179.40L210.59 176.37L203.12 184.56L205.97 195.78L216.30 198.81ZM205.97 195.78L203.12 184.56L192.79 181.53L185.32 189.72L188.17 200.93L198.50 203.96ZM228.41 171.21L225.56 159.99L215.22 156.96L207.74 165.15L210.59 176.37L220.93 179.40ZM210.59 176.37L207.74 165.15L197.41 162.12L189.93 170.31L192.79 181.53L203.12 184.56ZM236.96 204.88L234.11 193.66L223.78 190.62L216.30 198.81L219.15 210.02L229.47 213.06ZM219.15 210.02L216.30 198.81L205.97 195.78L198.50 203.96L201.35 215.17L211.67 218.21ZM241.59 185.47L238.74 174.25L228.41 171.21L220.93 179.40L223.78 190.62L234.11 193.66ZM174.99 186.69L172.13 175.48L161.81 172.45L154.34 180.64L157.20 191.86L167.52 194.88ZM157.20 191.86L154.34 180.64L144.02 177.62L136.56 185.81L139.42 197.02L149.74 200.04ZM179.61 167.28L176.75 156.07L166.42 153.04L158.95 161.24L161.81 172.45L172.13 175.48ZM161.81 172.45L158.95 161.24L148.62 158.22L141.16 166.41L144.02 177.62L154.34 180.64ZM188.17 200.93L185.32 189.72L174.99 186.69L167.52 194.88L170.38 206.09L180.70 209.12ZM170.38 206.09L167.52 194.88L157.20 191.86L149.74 200.04L152.60 211.25L162.92 214.27ZM192.79 181.53L189.93 170.31L179.61 167.28L172.13 175.48L174.99 186.69L185.32 189.72ZM7.02 127.33L4.14 116.13L-6.17 113.14L-13.60 121.35L-10.72 132.55L-0.41 135.54ZM20.21 141.53L17.34 130.33L7.02 127.33L-0.41 135.54L2.47 146.73L12.78 149.73ZM2.47 146.73L-0.41 135.54L-10.72 132.55L-18.15 140.75L-15.27 151.94L-4.96 154.94ZM24.77 122.12L21.90 110.92L11.58 107.92L4.14 116.13L7.02 127.33L17.34 130.33ZM2.00 219.08L-0.88 207.90L-11.18 204.90L-18.60 213.09L-15.72 224.28L-5.42 227.27ZM6.55 199.70L3.67 188.51L-6.63 185.52L-14.05 193.72L-11.18 204.90L-0.88 207.90ZM15.17 233.27L12.30 222.08L2.00 219.08L-5.42 227.27L-2.55 238.46L7.75 241.45ZM19.72 213.89L16.85 202.70L6.55 199.70L-0.88 207.90L2.00 219.08L12.30 222.08ZM28.84 175.12L25.96 163.92L15.65 160.93L8.22 169.13L11.10 180.32L21.41 183.32ZM11.10 180.32L8.22 169.13L-2.08 166.13L-9.51 174.33L-6.63 185.52L3.67 188.51ZM33.40 155.72L30.53 144.52L20.21 141.53L12.78 149.73L15.65 160.93L25.96 163.92ZM15.65 160.93L12.78 149.73L2.47 146.73L-4.96 154.94L-2.08 166.13L8.22 169.13ZM42.02 189.32L39.15 178.12L28.84 175.12L21.41 183.32L24.28 194.51L34.58 197.51ZM24.28 194.51L21.41 183.32L11.10 180.32L3.67 188.51L6.55 199.70L16.85 202.70ZM46.58 169.92L43.71 158.73L33.40 155.72L25.96 163.92L28.84 175.12L39.15 178.12ZM23.79 266.82L20.91 255.64L10.62 252.64L3.20 260.82L6.07 272.00L16.36 275.00ZM28.34 247.45L25.47 236.27L15.17 233.27L7.75 241.45L10.62 252.64L20.91 255.64ZM10.62 252.64L7.75 241.45L-2.55 238.46L-9.97 246.64L-7.09 257.82L3.20 260.82ZM99.30 226.75L96.43 215.55L86.12 212.54L78.68 220.73L81.54 231.92L91.85 234.93ZM103.88 207.37L101.02 196.16L90.70 193.15L83.26 201.34L86.12 212.54L96.43 215.55ZM86.12 212.54L83.26 201.34L72.95 198.33L65.50 206.52L68.37 217.72L78.68 220.73ZM117.05 221.58L114.19 210.38L103.88 207.37L96.43 215.55L99.30 226.75L109.61 229.77ZM50.63 222.90L47.76 211.71L37.46 208.70L30.02 216.89L32.90 228.08L43.20 231.09ZM32.90 228.08L30.02 216.89L19.72 213.89L12.30 222.08L15.17 233.27L25.47 236.27ZM55.20 203.52L52.33 192.32L42.02 189.32L34.58 197.51L37.46 208.70L47.76 211.71ZM37.46 208.70L34.58 197.51L24.28 194.51L16.85 202.70L19.72 213.89L30.02 216.89ZM63.80 237.10L60.93 225.91L50.63 222.90L43.20 231.09L46.07 242.27L56.37 245.28ZM46.07 242.27L43.20 231.09L32.90 228.08L25.47 236.27L28.34 247.45L38.64 250.46ZM68.37 217.72L65.50 206.52L55.20 203.52L47.76 211.71L50.63 222.90L60.93 225.91Z"/><path data-band="2" fill="#f97316" fill-opacity="0.35" d="M272.59 194.59L269.75 183.36L259.41 180.32L251.92 188.51L254.77 199.73L265.10 202.77ZM254.77 199.73L251.92 188.51L241.59 185.47L234.11 193.66L236.96 204.88L247.29 207.91ZM267.95 213.99L265.10 202.77L254.77 199.73L247.29 207.91L250.13 219.13L260.46 222.17ZM276.48 247.66L273.63 236.44L263.30 233.39L255.82 241.57L258.66 252.79L268.99 255.83ZM196.73 234.57L193.88 223.36L183.56 220.33L176.09 228.51L178.94 239.72L189.26 242.74ZM178.94 239.72L176.09 228.51L165.77 225.48L158.31 233.66L161.17 244.87L171.48 247.89ZM183.56 220.33L180.70 209.12L170.38 206.09L162.92 214.27L165.77 225.48L176.09 228.51ZM209.90 248.81L207.05 237.60L196.73 234.57L189.26 242.74L192.11 253.95L202.43 256.98ZM192.11 253.95L189.26 242.74L178.94 239.72L171.48 247.89L174.33 259.10L184.65 262.13ZM214.52 229.42L211.67 218.21L201.35 215.17L193.88 223.36L196.73 234.57L207.05 237.60ZM143.40 250.02L140.54 238.82L130.23 235.80L122.78 243.98L125.64 255.18L135.94 258.20ZM223.07 263.05L220.22 251.84L209.90 248.81L202.43 256.98L205.28 268.19L215.59 271.22ZM205.28 268.19L202.43 256.98L192.11 253.95L184.65 262.13L187.50 273.33L197.81 276.36ZM174.33 259.10L171.48 247.89L161.17 244.87L153.71 253.05L156.56 264.25L166.87 267.27ZM156.56 264.25L153.71 253.05L143.40 250.02L135.94 258.20L138.80 269.40L149.11 272.42ZM245.49 238.53L242.65 227.31L232.32 224.28L224.84 232.45L227.69 243.67L238.02 246.70ZM227.69 243.67L224.84 232.45L214.52 229.42L207.05 237.60L209.90 248.81L220.22 251.84ZM250.13 219.13L247.29 207.91L236.96 204.88L229.47 213.06L232.32 224.28L242.65 227.31ZM232.32 224.28L229.47 213.06L219.15 210.02L211.67 218.21L214.52 229.42L224.84 232.45ZM258.66 252.79L255.82 241.57L245.49 238.53L238.02 246.70L240.86 257.92L251.18 260.96ZM240.86 257.92L238.02 246.70L227.69 243.67L220.22 251.84L223.07 263.05L233.39 266.09ZM263.30 233.39L260.46 222.17L250.13 219.13L242.65 227.31L245.49 238.53L255.82 241.57ZM11.58 107.92L8.70 96.72L-1.62 93.72L-9.05 101.94L-6.17 113.14L4.14 116.13ZM76.97 251.30L74.11 240.11L63.80 237.10L56.37 245.28L59.23 256.47L69.53 259.48ZM59.23 256.47L56.37 245.28L46.07 242.27L38.64 250.46L41.51 261.64L51.80 264.65ZM90.14 265.50L87.27 254.31L76.97 251.30L69.53 259.48L72.40 270.67L82.70 273.68ZM41.51 261.64L38.64 250.46L28.34 247.45L20.91 255.64L23.79 266.82L34.08 269.82ZM81.54 231.92L78.68 220.73L68.37 217.72L60.93 225.91L63.80 237.10L74.11 240.11ZM112.47 240.96L109.61 229.77L99.30 226.75L91.85 234.93L94.71 246.13L105.02 249.14ZM94.71 246.13L91.85 234.93L81.54 231.92L74.11 240.11L76.97 251.30L87.27 254.31ZM125.64 255.18L122.78 243.98L112.47 240.96L105.02 249.14L107.88 260.34L118.19 263.36ZM107.88 260.34L105.02 249.14L94.71 246.13L87.27 254.31L90.14 265.50L100.44 268.52ZM138.80 269.40L135.94 258.20L125.64 255.18L118.19 263.36L121.05 274.55L131.35 277.57Z"/><path data-band="3" fill="#dc2626" fill-opacity="0.35" d="M271.83 267.04L268.99 255.83L258.66 252.79L251.18 260.96L254.03 272.17L264.35 275.21Z"/></svg>
