<svg xmlns="http://www.w3.org/2000/svg" width="256" height="256" viewBox="0 0 256 256"><path data-band="1" fill="#fde68a" fill-opacity="0.35" d="M6.82 60.24L3.97 49.14L-6.23 46.12L-13.59 54.20L-10.74 65.29L-0.53 68.31ZM11.33 41.07L8.48 29.97L-1.73 26.95L-9.09 35.03L-6.23 46.12L3.97 49.14ZM18.91 217.43L16.07 206.35L5.88 203.33L-1.46 211.37L1.38 222.44L11.57 225.47ZM1.38 222.44L-1.46 211.37L-11.64 208.35L-18.97 216.40L-16.13 227.46L-5.95 230.49ZM36.94 140.90L34.10 129.82L23.90 126.79L16.55 134.85L19.39 145.93L29.58 148.96ZM19.39 145.93L16.55 134.85L6.35 131.82L-1.00 139.88L1.85 150.97L12.04 153.99ZM41.45 121.76L38.61 110.66L28.41 107.64L21.05 115.70L23.90 126.79L34.10 129.82ZM23.90 126.79L21.05 115.70L10.86 112.67L3.50 120.74L6.35 131.82L16.55 134.85ZM49.98 155.02L47.14 143.93L36.94 140.90L29.58 148.96L32.43 160.05L42.62 163.08ZM32.43 160.05L29.58 148.96L19.39 145.93L12.04 153.99L14.88 165.07L25.08 168.10ZM54.50 135.88L51.65 124.79L41.45 121.76L34.10 129.82L36.94 140.90L47.14 143.93ZM1.85 150.97L-1.00 139.88L-11.19 136.86L-18.53 144.92L-15.68 156.00L-5.50 159.02ZM6.35 131.82L3.50 120.74L-6.69 117.72L-14.04 125.78L-11.19 136.86L-1.00 139.88ZM63.54 97.57L60.70 86.47L50.49 83.44L43.13 91.50L45.97 102.60L56.18 105.63ZM45.97 102.60L43.13 91.50L32.92 88.48L25.57 96.54L28.41 107.64L38.61 110.66ZM68.07 78.40L65.23 67.30L55.02 64.27L47.65 72.34L50.49 83.44L60.70 86.47ZM50.49 83.44L47.65 72.34L37.44 69.31L30.08 77.38L32.92 88.48L43.13 91.50ZM76.59 111.70L73.75 100.60L63.54 97.57L56.18 105.63L59.02 116.72L69.22 119.76ZM59.02 116.72L56.18 105.63L45.97 102.60L38.61 110.66L41.45 121.76L51.65 124.79ZM81.12 92.53L78.28 81.43L68.07 78.40L60.70 86.47L63.54 97.57L73.75 100.60ZM15.36 93.52L12.52 82.43L2.31 79.40L-5.04 87.47L-2.19 98.56L8.01 101.59ZM19.87 74.36L17.03 63.26L6.82 60.24L-0.53 68.31L2.31 79.40L12.52 82.43ZM2.31 79.40L-0.53 68.31L-10.74 65.29L-18.09 73.37L-15.24 84.46L-5.04 87.47ZM28.41 107.64L25.57 96.54L15.36 93.52L8.01 101.59L10.86 112.67L21.05 115.70ZM10.86 112.67L8.01 101.59L-2.19 98.56L-9.54 106.63L-6.69 117.72L3.50 120.74ZM32.92 88.48L30.08 77.38L19.87 74.36L12.52 82.43L15.36 93.52L25.57 96.54ZM14.88 165.07L12.04 153.99L1.85 150.97L-5.50 159.02L-2.65 170.10L7.54 173.12ZM5.88 203.33L3.04 192.25L-7.15 189.23L-14.48 197.28L-11.64 208.35L-1.46 211.37ZM85.10 144.98L82.26 133.89L72.06 130.85L64.70 138.91L67.53 150.00L77.73 153.04ZM67.53 150.00L64.70 138.91L54.50 135.88L47.14 143.93L49.98 155.02L60.17 158.05ZM89.63 125.83L86.80 114.73L76.59 111.70L69.22 119.76L72.06 130.85L82.26 133.89ZM72.06 130.85L69.22 119.76L59.02 116.72L51.65 124.79L54.50 135.88L64.70 138.91ZM80.57 164.13L77.73 153.04L67.53 150.00L60.17 158.05L63.01 169.14L73.21 172.18ZM102.67 139.96L99.84 128.87L89.63 125.83L82.26 133.89L85.10 144.98L95.30 148.02ZM213.55 18.99L210.72 7.86L200.48 4.81L193.07 12.88L195.90 24.01L206.14 27.06ZM195.90 24.01L193.07 12.88L182.84 9.83L175.43 17.91L178.26 29.03L188.50 32.08ZM218.14 -0.22L215.31 -11.35L205.07 -14.40L197.65 -6.32L200.48 4.81L210.72 7.86ZM200.48 4.81L197.65 -6.32L187.42 -9.37L180.01 -1.29L182.84 9.83L193.07 12.88ZM226.61 33.17L223.79 22.04L213.55 18.99L206.14 27.06L208.96 38.19L219.20 41.24ZM208.96 38.19L206.14 27.06L195.90 24.01L188.50 32.08L191.33 43.21L201.56 46.26ZM231.20 13.97L228.38 2.84L218.14 -0.22L210.72 7.86L213.55 18.99L223.79 22.04ZM165.20 14.86L162.37 3.74L152.14 0.69L144.74 8.77L147.57 19.89L157.80 22.94ZM147.57 19.89L144.74 8.77L134.51 5.73L127.12 13.81L129.95 24.93L140.18 27.97ZM169.77 -4.34L166.94 -15.47L156.70 -18.51L149.30 -10.43L152.14 0.69L162.37 3.74ZM152.14 0.69L149.30 -10.43L139.07 -13.47L131.67 -5.39L134.51 5.73L144.74 8.77ZM178.26 29.03L175.43 17.91L165.20 14.86L157.80 22.94L160.63 34.06L170.86 37.11ZM160.63 34.06L157.80 22.94L147.57 19.89L140.18 27.97L143.01 39.09L153.24 42.13ZM182.84 9.83L180.01 -1.29L169.77 -4.34L162.37 3.74L165.20 14.86L175.43 17.91ZM235.80 -5.24L232.97 -16.38L222.73 -19.43L215.31 -11.35L218.14 -0.22L228.38 2.84ZM68.61 6.72L65.76 -4.39L55.54 -7.42L48.17 0.66L51.01 11.77L61.23 14.80ZM51.01 11.77L48.17 0.66L37.95 -2.36L30.58 5.72L33.42 16.83L43.64 19.85ZM55.54 -7.42L52.69 -18.54L42.47 -21.56L35.10 -13.47L37.95 -2.36L48.17 0.66ZM81.67 20.86L78.83 9.75L68.61 6.72L61.23 14.80L64.07 25.91L74.29 28.94ZM64.07 25.91L61.23 14.80L51.01 11.77L43.64 19.85L46.49 30.96L56.70 33.99ZM86.21 1.67L83.37 -9.45L73.14 -12.48L65.76 -4.39L68.61 6.72L78.83 9.75ZM20.36 2.70L17.51 -8.41L7.29 -11.43L-0.07 -3.34L2.78 7.76L12.99 10.78ZM2.78 7.76L-0.07 -3.34L-10.29 -6.36L-17.64 1.73L-14.79 12.83L-4.58 15.85ZM33.42 16.83L30.58 5.72L20.36 2.70L12.99 10.78L15.84 21.89L26.06 24.91ZM15.84 21.89L12.99 10.78L2.78 7.76L-4.58 15.85L-1.73 26.95L8.48 29.97ZM37.95 -2.36L35.10 -13.47L24.88 -16.49L17.51 -8.41L20.36 2.70L30.58 5.72ZM90.19 54.19L87.35 43.08L77.13 40.05L69.76 48.12L72.60 59.23L82.81 62.26ZM72.60 59.23L69.76 48.12L59.54 45.09L52.17 53.17L55.02 64.27L65.23 67.30ZM94.73 35.01L91.89 23.89L81.67 20.86L74.29 28.94L77.13 40.05L87.35 43.08ZM77.13 40.05L74.29 28.94L64.07 25.91L56.70 33.99L59.54 45.09L69.76 48.12ZM103.25 68.33L100.41 57.22L90.19 54.19L82.81 62.26L85.65 73.36L95.87 76.40ZM85.65 73.36L82.81 62.26L72.60 59.23L65.23 67.30L68.07 78.40L78.28 81.43ZM107.79 49.15L104.95 38.04L94.73 35.01L87.35 43.08L90.19 54.19L100.41 57.22ZM41.96 50.14L39.12 39.04L28.90 36.01L21.54 44.09L24.39 55.19L34.60 58.21ZM24.39 55.19L21.54 44.09L11.33 41.07L3.97 49.14L6.82 60.24L17.03 63.26ZM46.49 30.96L43.64 19.85L33.42 16.83L26.06 24.91L28.90 36.01L39.12 39.04ZM28.90 36.01L26.06 24.91L15.84 21.89L8.48 29.97L11.33 41.07L21.54 44.09ZM55.02 64.27L52.17 53.17L41.96 50.14L34.60 58.21L37.44 69.31L47.65 72.34ZM37.44 69.31L34.60 58.21L24.39 55.19L17.03 63.26L19.87 74.36L30.08 77.38ZM59.54 45.09L56.70 33.99L46.49 30.96L39.12 39.04L41.96 50.14L52.17 53.17ZM116.89 10.77L114.05 -0.35L103.82 -3.38L96.44 4.70L99.28 15.81L109.50 18.85ZM99.28 15.81L96.44 4.70L86.21 1.67L78.83 9.75L81.67 20.86L91.89 23.89ZM103.82 -3.38L100.98 -14.50L90.75 -17.53L83.37 -9.45L86.21 1.67L96.44 4.70ZM129.95 24.93L127.12 13.81L116.89 10.77L109.50 18.85L112.34 29.97L122.56 33.00ZM112.34 29.97L109.50 18.85L99.28 15.81L91.89 23.89L94.73 35.01L104.95 38.04ZM134.51 5.73L131.67 -5.39L121.44 -8.43L114.05 -0.35L116.89 10.77L127.12 13.81ZM251.26 204.93L248.45 193.82L238.23 190.75L230.83 198.79L233.65 209.90L243.86 212.96ZM233.65 209.90L230.83 198.79L220.62 195.73L213.23 203.77L216.05 214.87L226.26 217.94ZM255.85 185.78L253.03 174.67L242.82 171.60L235.41 179.65L238.23 190.75L248.45 193.82ZM238.23 190.75L235.41 179.65L225.20 176.58L217.80 184.63L220.62 195.73L230.83 198.79ZM268.88 199.96L266.07 188.85L255.85 185.78L248.45 193.82L251.26 204.93L261.48 208.00ZM220.62 195.73L217.80 184.63L207.59 181.57L200.20 189.61L203.02 200.71L213.23 203.77ZM260.44 166.62L257.63 155.51L247.40 152.44L240.00 160.49L242.82 171.60L253.03 174.67ZM265.03 147.46L262.22 136.35L251.99 133.28L244.59 141.33L247.40 152.44L257.63 155.51ZM273.47 180.81L270.66 169.69L260.44 166.62L253.03 174.67L255.85 185.78L266.07 188.85ZM229.78 157.43L226.96 146.32L216.74 143.26L209.34 151.31L212.16 162.42L222.38 165.48ZM212.16 162.42L209.34 151.31L199.13 148.25L191.73 156.30L194.56 167.40L204.77 170.46ZM234.36 138.27L231.54 127.15L221.32 124.09L213.92 132.15L216.74 143.26L226.96 146.32ZM216.74 143.26L213.92 132.15L203.70 129.09L196.30 137.14L199.13 148.25L209.34 151.31ZM242.82 171.60L240.00 160.49L229.78 157.43L222.38 165.48L225.20 176.58L235.41 179.65ZM225.20 176.58L222.38 165.48L212.16 162.42L204.77 170.46L207.59 181.57L217.80 184.63ZM247.40 152.44L244.59 141.33L234.36 138.27L226.96 146.32L229.78 157.43L240.00 160.49ZM265.78 75.74L262.97 64.61L252.73 61.55L245.31 69.62L248.13 80.74L258.37 83.80ZM270.39 56.55L267.57 45.42L257.33 42.35L249.91 50.42L252.73 61.55L262.97 64.61ZM235.08 66.55L232.26 55.43L222.02 52.37L214.61 60.44L217.44 71.56L227.67 74.62ZM217.44 71.56L214.61 60.44L204.38 57.38L196.98 65.45L199.80 76.57L210.03 79.62ZM239.67 47.36L236.85 36.23L226.61 33.17L219.20 41.24L222.02 52.37L232.26 55.43ZM222.02 52.37L219.20 41.24L208.96 38.19L201.56 46.26L204.38 57.38L214.61 60.44ZM248.13 80.74L245.31 69.62L235.08 66.55L227.67 74.62L230.49 85.74L240.72 88.80ZM230.49 85.74L227.67 74.62L217.44 71.56L210.03 79.62L212.86 90.74L223.08 93.80ZM252.73 61.55L249.91 50.42L239.67 47.36L232.26 55.43L235.08 66.55L245.31 69.62ZM261.93 23.15L259.11 12.02L248.86 8.95L241.44 17.03L244.27 28.16L254.51 31.22ZM244.27 28.16L241.44 17.03L231.20 13.97L223.79 22.04L226.61 33.17L236.85 36.23ZM266.53 3.94L263.71 -7.20L253.47 -10.26L246.04 -2.18L248.86 8.95L259.11 12.02ZM248.86 8.95L246.04 -2.18L235.80 -5.24L228.38 2.84L231.20 13.97L241.44 17.03ZM274.99 37.35L272.17 26.22L261.93 23.15L254.51 31.22L257.33 42.35L267.57 45.42ZM257.33 42.35L254.51 31.22L244.27 28.16L236.85 36.23L239.67 47.36L249.91 50.42ZM256.59 114.11L253.77 102.99L243.54 99.92L236.13 107.98L238.95 119.10L249.18 122.16ZM238.95 119.10L236.13 107.98L225.90 104.92L218.50 112.98L221.32 124.09L231.54 127.15ZM261.18 94.93L258.37 83.80L248.13 80.74L240.72 88.80L243.54 99.92L253.77 102.99ZM243.54 99.92L240.72 88.80L230.49 85.74L223.08 93.80L225.90 104.92L236.13 107.98ZM269.63 128.30L266.82 117.17L256.59 114.11L249.18 122.16L251.99 133.28L262.22 136.35ZM251.99 133.28L249.18 122.16L238.95 119.10L231.54 127.15L234.36 138.27L244.59 141.33ZM274.23 109.12L271.42 98.00L261.18 94.93L253.77 102.99L256.59 114.11L266.82 117.17ZM160.00 105.76L157.17 94.66L146.95 91.61L139.56 99.67L142.40 110.78L152.61 113.82ZM142.40 110.78L139.56 99.67L129.35 96.63L121.97 104.69L124.80 115.79L135.01 118.84ZM164.56 86.59L161.73 75.48L151.51 72.43L144.12 80.50L146.95 91.61L157.17 94.66ZM146.95 91.61L144.12 80.50L133.90 77.45L126.52 85.52L129.35 96.63L139.56 99.67ZM173.04 119.92L170.22 108.81L160.00 105.76L152.61 113.82L155.44 124.93L165.65 127.98ZM155.44 124.93L152.61 113.82L142.40 110.78L135.01 118.84L137.84 129.94L148.05 132.99ZM177.61 100.76L174.78 89.64L164.56 86.59L157.17 94.66L160.00 105.76L170.22 108.81ZM111.75 101.65L108.92 90.54L98.71 87.50L91.33 95.57L94.17 106.67L104.38 109.71ZM94.17 106.67L91.33 95.57L81.12 92.53L73.75 100.60L76.59 111.70L86.80 114.73ZM116.30 82.48L113.46 71.37L103.25 68.33L95.87 76.40L98.71 87.50L108.92 90.54ZM98.71 87.50L95.87 76.40L85.65 73.36L78.28 81.43L81.12 92.53L91.33 95.57ZM124.80 115.79L121.97 104.69L111.75 101.65L104.38 109.71L107.21 120.81L117.42 123.85ZM107.21 120.81L104.38 109.71L94.17 106.67L86.80 114.73L89.63 125.83L99.84 128.87ZM129.35 96.63L126.52 85.52L116.30 82.48L108.92 90.54L111.75 101.65L121.97 104.69ZM186.75 62.40L183.92 51.28L173.69 48.23L166.30 56.30L169.13 67.41L179.35 70.46ZM169.13 67.41L166.30 56.30L156.07 53.25L148.68 61.32L151.51 72.43L161.73 75.48ZM191.33 43.21L188.50 32.08L178.26 29.03L170.86 37.11L173.69 48.23L183.92 51.28ZM173.69 48.23L170.86 37.11L160.63 34.06L153.24 42.13L156.07 53.25L166.30 56.30ZM199.80 76.57L196.98 65.45L186.75 62.40L179.35 70.46L182.18 81.58L192.40 84.63ZM182.18 81.58L179.35 70.46L169.13 67.41L161.73 75.48L164.56 86.59L174.78 89.64ZM204.38 57.38L201.56 46.26L191.33 43.21L183.92 51.28L186.75 62.40L196.98 65.45ZM138.45 58.27L135.62 47.16L125.40 44.12L118.01 52.19L120.85 63.30L131.07 66.34ZM120.85 63.30L118.01 52.19L107.79 49.15L100.41 57.22L103.25 68.33L113.46 71.37ZM143.01 39.09L140.18 27.97L129.95 24.93L122.56 33.00L125.40 44.12L135.62 47.16ZM125.40 44.12L122.56 33.00L112.34 29.97L104.95 38.04L107.79 49.15L118.01 52.19ZM151.51 72.43L148.68 61.32L138.45 58.27L131.07 66.34L133.90 77.45L144.12 80.50ZM133.90 77.45L131.07 66.34L120.85 63.30L113.46 71.37L116.30 82.48L126.52 85.52ZM156.07 53.25L153.24 42.13L143.01 39.09L135.62 47.16L138.45 58.27L148.68 61.32ZM181.52 153.24L178.70 142.14L168.48 139.09L161.09 147.14L163.92 158.24L174.13 161.29ZM163.92 158.24L161.09 147.14L150.88 144.09L143.50 152.14L146.33 163.24L156.54 166.29ZM186.09 134.09L183.26 122.98L173.04 119.92L165.65 127.98L168.48 139.09L178.70 142.14ZM168.48 139.09L165.65 127.98L155.44 124.93L148.05 132.99L150.88 144.09L161.09 147.14ZM199.13 148.25L196.30 137.14L186.09 134.09L178.70 142.14L181.52 153.24L191.73 156.30ZM133.29 149.09L130.46 138.00L120.25 134.95L112.88 143.01L115.71 154.10L125.92 157.15ZM137.84 129.94L135.01 118.84L124.80 115.79L117.42 123.85L120.25 134.95L130.46 138.00ZM120.25 134.95L117.42 123.85L107.21 120.81L99.84 128.87L102.67 139.96L112.88 143.01ZM150.88 144.09L148.05 132.99L137.84 129.94L130.46 138.00L133.29 149.09L143.50 152.14ZM208.28 109.92L205.45 98.80L195.23 95.75L187.83 103.81L190.66 114.92L200.88 117.98ZM190.66 114.92L187.83 103.81L177.61 100.76L170.22 108.81L173.04 119.92L183.26 122.98ZM212.86 90.74L210.03 79.62L199.80 76.57L192.40 84.63L195.23 95.75L205.45 98.80ZM195.23 95.75L192.40 84.63L182.18 81.58L174.78 89.64L177.61 100.76L187.83 103.81ZM221.32 124.09L218.50 112.98L208.28 109.92L200.88 117.98L203.70 129.09L213.92 132.15ZM203.70 129.09L200.88 117.98L190.66 114.92L183.26 122.98L186.09 134.09L196.30 137.14ZM225.90 104.92L223.08 93.80L212.86 90.74L205.45 98.80L208.28 109.92L218.50 112.98Z"/></svg>
