<svg xmlns="http://www.w3.org/2000/svg" width="256" height="256" viewBox="0 0 256 256"><path data-band="1" fill="#fde68a" fill-opacity="0.35" d="M5.41 18.75L2.57 7.69L-7.60 4.66L-14.93 12.69L-12.09 23.76L-1.92 26.78ZM117.90 164.73L115.07 153.68L104.91 150.63L97.57 158.63L100.39 169.68L110.55 172.74ZM122.42 145.67L119.60 134.61L109.43 131.56L102.09 139.57L104.91 150.63L115.07 153.68ZM104.91 150.63L102.09 139.57L91.92 136.52L84.58 144.53L87.40 155.58L97.57 158.63ZM149.01 102.57L146.19 91.50L136.02 88.45L128.66 96.46L131.48 107.53L141.66 110.58Z"/></svg>
