<svg xmlns="http://www.w3.org/2000/svg" width="256" height="256" viewBox="0 0 256 256"><path data-band="1" fill="#fde68a" fill-opacity="0.35" d="M263.21 189.78L261.84 183.76L256.27 182.12L252.06 186.49L253.42 192.50L259.00 194.14ZM210.21 185.40L208.84 179.39L203.26 177.76L199.07 182.14L200.44 188.14L206.01 189.78ZM226.92 190.31L225.55 184.30L219.98 182.66L215.78 187.04L217.15 193.05L222.72 194.68ZM217.15 193.05L215.78 187.04L210.21 185.40L206.01 189.78L207.38 195.78L212.95 197.42ZM200.44 188.14L199.07 182.14L193.50 180.50L189.30 184.88L190.68 190.89L196.25 192.52ZM190.68 190.89L189.30 184.88L183.73 183.25L179.54 187.63L180.92 193.63L186.49 195.26ZM231.03 208.34L229.66 202.33L224.09 200.69L219.89 205.06L221.26 211.07L226.83 212.71ZM221.26 211.07L219.89 205.06L214.33 203.43L210.13 207.80L211.50 213.80L217.07 215.44ZM233.87 197.96L232.50 191.95L226.92 190.31L222.72 194.68L224.09 200.69L229.66 202.33ZM224.09 200.69L222.72 194.68L217.15 193.05L212.95 197.42L214.33 203.43L219.89 205.06ZM237.97 215.99L236.60 209.98L231.03 208.34L226.83 212.71L228.20 218.71L233.77 220.35ZM228.20 218.71L226.83 212.71L221.26 211.07L217.07 215.44L218.44 221.44L224.00 223.08ZM240.81 205.61L239.44 199.60L233.87 197.96L229.66 202.33L231.03 208.34L236.60 209.98ZM204.56 206.16L203.19 200.16L197.62 198.52L193.43 202.90L194.80 208.90L200.37 210.53ZM194.80 208.90L193.43 202.90L187.86 201.27L183.67 205.64L185.05 211.64L190.61 213.27ZM207.38 195.78L206.01 189.78L200.44 188.14L196.25 192.52L197.62 198.52L203.19 200.16ZM197.62 198.52L196.25 192.52L190.68 190.89L186.49 195.26L187.86 201.27L193.43 202.90ZM211.50 213.80L210.13 207.80L204.56 206.16L200.37 210.53L201.74 216.54L207.31 218.17ZM201.74 216.54L200.37 210.53L194.80 208.90L190.61 213.27L191.98 219.27L197.55 220.91ZM214.33 203.43L212.95 197.42L207.38 195.78L203.19 200.16L204.56 206.16L210.13 207.80ZM246.48 184.85L245.11 178.83L239.54 177.19L235.33 181.56L236.70 187.58L242.28 189.22ZM236.70 187.58L235.33 181.56L229.76 179.93L225.55 184.30L226.92 190.31L232.50 191.95ZM253.42 192.50L252.06 186.49L246.48 184.85L242.28 189.22L243.64 195.23L249.22 196.87ZM243.64 195.23L242.28 189.22L236.70 187.58L232.50 191.95L233.87 197.96L239.44 199.60ZM258.77 238.94L257.41 232.93L251.84 231.29L247.64 235.65L249.00 241.66L254.57 243.30ZM261.62 228.57L260.25 222.56L254.68 220.92L250.48 225.28L251.84 231.29L257.41 232.93ZM265.71 246.60L264.34 240.59L258.77 238.94L254.57 243.30L255.94 249.31L261.50 250.95ZM242.07 234.01L240.71 228.00L235.14 226.36L230.94 230.73L232.31 236.73L237.87 238.37ZM232.31 236.73L230.94 230.73L225.37 229.09L221.18 233.45L222.55 239.46L228.11 241.10ZM244.91 223.64L243.54 217.63L237.97 215.99L233.77 220.35L235.14 226.36L240.71 228.00ZM235.14 226.36L233.77 220.35L228.20 218.71L224.00 223.08L225.37 229.09L230.94 230.73ZM249.00 241.66L247.64 235.65L242.07 234.01L237.87 238.37L239.24 244.38L244.80 246.02ZM239.24 244.38L237.87 238.37L232.31 236.73L228.11 241.10L229.48 247.10L235.04 248.74ZM251.84 231.29L250.48 225.28L244.91 223.64L240.71 228.00L242.07 234.01L247.64 235.65ZM257.52 210.54L256.16 204.53L250.58 202.88L246.38 207.25L247.74 213.26L253.32 214.91ZM247.74 213.26L246.38 207.25L240.81 205.61L236.60 209.98L237.97 215.99L243.54 217.63ZM260.36 200.16L259.00 194.14L253.42 192.50L249.22 196.87L250.58 202.88L256.16 204.53ZM250.58 202.88L249.22 196.87L243.64 195.23L239.44 199.60L240.81 205.61L246.38 207.25ZM264.46 218.20L263.09 212.18L257.52 210.54L253.32 214.91L254.68 220.92L260.25 222.56ZM254.68 220.92L253.32 214.91L247.74 213.26L243.54 217.63L244.91 223.64L250.48 225.28ZM253.10 259.67L251.73 253.67L246.17 252.02L241.97 256.38L243.34 262.39L248.90 264.03ZM243.34 262.39L241.97 256.38L236.41 254.74L232.21 259.10L233.58 265.10L239.14 266.75ZM255.94 249.31L254.57 243.30L249.00 241.66L244.80 246.02L246.17 252.02L251.73 253.67ZM246.17 252.02L244.80 246.02L239.24 244.38L235.04 248.74L236.41 254.74L241.97 256.38ZM262.86 256.96L261.50 250.95L255.94 249.31L251.73 253.67L253.10 259.67L258.66 261.32ZM15.66 240.60L14.26 234.63L8.72 233.03L4.58 237.41L5.98 243.38L11.52 244.98ZM5.98 243.38L4.58 237.41L-0.96 235.81L-5.10 240.19L-3.70 246.17L1.84 247.76ZM18.41 230.25L17.01 224.27L11.47 222.67L7.32 227.05L8.72 233.03L14.26 234.63ZM8.72 233.03L7.32 227.05L1.78 225.46L-2.36 229.84L-0.96 235.81L4.58 237.41ZM22.60 248.18L21.20 242.20L15.66 240.60L11.52 244.98L12.91 250.96L18.45 252.56ZM12.91 250.96L11.52 244.98L5.98 243.38L1.84 247.76L3.24 253.74L8.77 255.33ZM25.35 237.83L23.95 231.85L18.41 230.25L14.26 234.63L15.66 240.60L21.20 242.20ZM30.85 217.11L29.46 211.13L23.91 209.53L19.76 213.91L21.16 219.89L26.70 221.49ZM21.16 219.89L19.76 213.91L14.22 212.31L10.07 216.69L11.47 222.67L17.01 224.27ZM33.61 206.74L32.21 200.76L26.66 199.16L22.51 203.54L23.91 209.53L29.46 211.13ZM23.91 209.53L22.51 203.54L16.96 201.95L12.82 206.33L14.22 212.31L19.76 213.91ZM37.79 224.69L36.40 218.71L30.85 217.11L26.70 221.49L28.10 227.47L33.64 229.07ZM28.10 227.47L26.70 221.49L21.16 219.89L17.01 224.27L18.41 230.25L23.95 231.85ZM40.55 214.33L39.16 208.34L33.61 206.74L29.46 211.13L30.85 217.11L36.40 218.71ZM4.53 215.10L3.13 209.12L-2.42 207.53L-6.56 211.91L-5.16 217.89L0.38 219.48ZM7.27 204.73L5.87 198.75L0.32 197.16L-3.82 201.55L-2.42 207.53L3.13 209.12ZM11.47 222.67L10.07 216.69L4.53 215.10L0.38 219.48L1.78 225.46L7.32 227.05ZM1.78 225.46L0.38 219.48L-5.16 217.89L-9.30 222.27L-7.90 228.25L-2.36 229.84ZM14.22 212.31L12.82 206.33L7.27 204.73L3.13 209.12L4.53 215.10L10.07 216.69ZM29.53 255.76L28.14 249.78L22.60 248.18L18.45 252.56L19.85 258.53L25.39 260.13ZM19.85 258.53L18.45 252.56L12.91 250.96L8.77 255.33L10.17 261.31L15.71 262.90ZM36.47 263.33L35.07 257.36L29.53 255.76L25.39 260.13L26.78 266.10L32.32 267.71ZM3.24 253.74L1.84 247.76L-3.70 246.17L-7.84 250.55L-6.44 256.52L-0.90 258.11ZM10.17 261.31L8.77 255.33L3.24 253.74L-0.90 258.11L0.50 264.08L6.03 265.68ZM41.98 242.63L40.58 236.65L35.04 235.05L30.89 239.43L32.28 245.40L37.83 247.01ZM32.28 245.40L30.89 239.43L25.35 237.83L21.20 242.20L22.60 248.18L28.14 249.78ZM44.73 232.27L43.34 226.29L37.79 224.69L33.64 229.07L35.04 235.05L40.58 236.65ZM35.04 235.05L33.64 229.07L28.10 227.47L23.95 231.85L25.35 237.83L30.89 239.43ZM48.91 250.21L47.52 244.23L41.98 242.63L37.83 247.01L39.22 252.98L44.76 254.59ZM39.22 252.98L37.83 247.01L32.28 245.40L28.14 249.78L29.53 255.76L35.07 257.36ZM51.67 239.86L50.28 233.88L44.73 232.27L40.58 236.65L41.98 242.63L47.52 244.23ZM82.18 259.86L80.79 253.88L75.24 252.27L71.09 256.64L72.48 262.62L78.02 264.23ZM72.48 262.62L71.09 256.64L65.54 255.03L61.39 259.41L62.78 265.39L68.32 266.99ZM55.85 257.80L54.46 251.82L48.91 250.21L44.76 254.59L46.15 260.57L51.70 262.17ZM46.15 260.57L44.76 254.59L39.22 252.98L35.07 257.36L36.47 263.33L42.01 264.94ZM111.35 184.55L109.97 178.55L104.40 176.94L100.23 181.32L101.62 187.31L107.18 188.93ZM46.07 193.59L44.68 187.60L39.13 186.00L34.97 190.39L36.37 196.37L41.92 197.98ZM36.37 196.37L34.97 190.39L29.42 188.79L25.27 193.18L26.66 199.16L32.21 200.76ZM39.13 186.00L37.73 180.02L32.18 178.42L28.02 182.80L29.42 188.79L34.97 190.39ZM53.02 201.18L51.62 195.19L46.07 193.59L41.92 197.98L43.31 203.96L48.86 205.56ZM43.31 203.96L41.92 197.98L36.37 196.37L32.21 200.76L33.61 206.74L39.16 208.34ZM55.78 190.81L54.39 184.82L48.84 183.22L44.68 187.60L46.07 193.59L51.62 195.19ZM19.72 191.58L18.32 185.59L12.77 184.00L8.62 188.39L10.02 194.37L15.57 195.96ZM10.02 194.37L8.62 188.39L3.07 186.79L-1.08 191.18L0.32 197.16L5.87 198.75ZM12.77 184.00L11.37 178.01L5.82 176.42L1.67 180.81L3.07 186.79L8.62 188.39ZM26.66 199.16L25.27 193.18L19.72 191.58L15.57 195.96L16.96 201.95L22.51 203.54ZM16.96 201.95L15.57 195.96L10.02 194.37L5.87 198.75L7.27 204.73L12.82 206.33ZM29.42 188.79L28.02 182.80L22.47 181.21L18.32 185.59L19.72 191.58L25.27 193.18ZM151.67 201.88L150.29 195.88L144.72 194.26L140.54 198.63L141.92 204.63L147.48 206.25ZM141.92 204.63L140.54 198.63L134.98 197.01L130.80 201.39L132.18 207.39L137.74 209.01ZM154.47 191.50L153.09 185.50L147.52 183.88L143.34 188.26L144.72 194.26L150.29 195.88ZM144.72 194.26L143.34 188.26L137.78 186.64L133.60 191.02L134.98 197.01L140.54 198.63ZM158.61 209.50L157.23 203.50L151.67 201.88L147.48 206.25L148.86 212.25L154.42 213.88ZM148.86 212.25L147.48 206.25L141.92 204.63L137.74 209.01L139.13 215.00L144.68 216.63ZM161.41 199.13L160.03 193.13L154.47 191.50L150.29 195.88L151.67 201.88L157.23 203.50ZM125.24 199.77L123.86 193.78L118.30 192.16L114.12 196.54L115.51 202.53L121.07 204.15ZM115.51 202.53L114.12 196.54L108.56 194.92L104.39 199.30L105.78 205.30L111.34 206.91ZM128.04 189.40L126.65 183.40L121.09 181.78L116.91 186.16L118.30 192.16L123.86 193.78ZM118.30 192.16L116.91 186.16L111.35 184.55L107.18 188.93L108.56 194.92L114.12 196.54ZM132.18 207.39L130.80 201.39L125.24 199.77L121.07 204.15L122.45 210.15L128.01 211.76ZM122.45 210.15L121.07 204.15L115.51 202.53L111.34 206.91L112.72 212.90L118.28 214.52ZM134.98 197.01L133.60 191.02L128.04 189.40L123.86 193.78L125.24 199.77L130.80 201.39ZM173.97 186.00L172.60 179.99L167.03 178.37L162.84 182.75L164.22 188.75L169.79 190.38ZM164.22 188.75L162.84 182.75L157.27 181.12L153.09 185.50L154.47 191.50L160.03 193.13ZM147.52 183.88L146.14 177.88L140.58 176.26L136.39 180.64L137.78 186.64L143.34 188.26ZM137.78 186.64L136.39 180.64L130.83 179.02L126.65 183.40L128.04 189.40L133.60 191.02ZM162.74 227.50L161.36 221.50L155.80 219.87L151.62 224.25L153.00 230.24L158.56 231.87ZM153.00 230.24L151.62 224.25L146.07 222.62L141.89 226.99L143.27 232.99L148.82 234.61ZM165.55 217.13L164.17 211.13L158.61 209.50L154.42 213.88L155.80 219.87L161.36 221.50ZM155.80 219.87L154.42 213.88L148.86 212.25L144.68 216.63L146.07 222.62L151.62 224.25ZM169.68 235.12L168.30 229.12L162.74 227.50L158.56 231.87L159.94 237.86L165.50 239.49ZM159.94 237.86L158.56 231.87L153.00 230.24L148.82 234.61L150.20 240.61L155.76 242.23ZM172.48 224.75L171.11 218.76L165.55 217.13L161.36 221.50L162.74 227.50L168.30 229.12ZM136.33 225.37L134.95 219.38L129.39 217.76L125.22 222.13L126.60 228.12L132.16 229.75ZM126.60 228.12L125.22 222.13L119.66 220.51L115.49 224.89L116.87 230.88L122.43 232.50ZM139.13 215.00L137.74 209.01L132.18 207.39L128.01 211.76L129.39 217.76L134.95 219.38ZM129.39 217.76L128.01 211.76L122.45 210.15L118.28 214.52L119.66 220.51L125.22 222.13ZM143.27 232.99L141.89 226.99L136.33 225.37L132.16 229.75L133.54 235.74L139.09 237.36ZM133.54 235.74L132.16 229.75L126.60 228.12L122.43 232.50L123.81 238.49L129.36 240.11ZM146.07 222.62L144.68 216.63L139.13 215.00L134.95 219.38L136.33 225.37L141.89 226.99ZM178.11 204.01L176.73 198.01L171.16 196.38L166.98 200.75L168.35 206.76L173.92 208.38ZM168.35 206.76L166.98 200.75L161.41 199.13L157.23 203.50L158.61 209.50L164.17 211.13ZM180.92 193.63L179.54 187.63L173.97 186.00L169.79 190.38L171.16 196.38L176.73 198.01ZM171.16 196.38L169.79 190.38L164.22 188.75L160.03 193.13L161.41 199.13L166.98 200.75ZM185.05 211.64L183.67 205.64L178.11 204.01L173.92 208.38L175.29 214.38L180.86 216.01ZM175.29 214.38L173.92 208.38L168.35 206.76L164.17 211.13L165.55 217.13L171.11 218.76ZM187.86 201.27L186.49 195.26L180.92 193.63L176.73 198.01L178.11 204.01L183.67 205.64ZM83.56 221.19L82.17 215.21L76.62 213.60L72.46 217.97L73.85 223.96L79.40 225.57ZM73.85 223.96L72.46 217.97L66.91 216.37L62.75 220.74L64.14 226.73L69.69 228.34ZM86.33 210.83L84.95 204.84L79.39 203.23L75.23 207.61L76.62 213.60L82.17 215.21ZM76.62 213.60L75.23 207.61L69.67 206.00L65.51 210.38L66.91 216.37L72.46 217.97ZM90.50 228.79L89.11 222.81L83.56 221.19L79.40 225.57L80.78 231.56L86.33 233.17ZM80.78 231.56L79.40 225.57L73.85 223.96L69.69 228.34L71.08 234.32L76.62 235.93ZM93.28 218.43L91.89 212.44L86.33 210.83L82.17 215.21L83.56 221.19L89.11 222.81ZM57.20 219.14L55.80 213.15L50.26 211.55L46.10 215.93L47.49 221.91L53.04 223.52ZM47.49 221.91L46.10 215.93L40.55 214.33L36.40 218.71L37.79 224.69L43.34 226.29ZM59.96 208.77L58.57 202.79L53.02 201.18L48.86 205.56L50.26 211.55L55.80 213.15ZM50.26 211.55L48.86 205.56L43.31 203.96L39.16 208.34L40.55 214.33L46.10 215.93ZM64.14 226.73L62.75 220.74L57.20 219.14L53.04 223.52L54.43 229.50L59.98 231.11ZM54.43 229.50L53.04 223.52L47.49 221.91L43.34 226.29L44.73 232.27L50.28 233.88ZM66.91 216.37L65.51 210.38L59.96 208.77L55.80 213.15L57.20 219.14L62.75 220.74ZM98.84 197.69L97.45 191.70L91.89 190.08L87.72 194.47L89.11 200.46L94.67 202.07ZM89.11 200.46L87.72 194.47L82.17 192.86L78.00 197.24L79.39 203.23L84.95 204.84ZM101.62 187.31L100.23 181.32L94.67 179.71L90.50 184.09L91.89 190.08L97.45 191.70ZM91.89 190.08L90.50 184.09L84.94 182.48L80.78 186.86L82.17 192.86L87.72 194.47ZM105.78 205.30L104.39 199.30L98.84 197.69L94.67 202.07L96.05 208.06L101.61 209.67ZM96.05 208.06L94.67 202.07L89.11 200.46L84.95 204.84L86.33 210.83L91.89 212.44ZM108.56 194.92L107.18 188.93L101.62 187.31L97.45 191.70L98.84 197.69L104.39 199.30ZM72.45 195.63L71.05 189.64L65.50 188.03L61.34 192.42L62.73 198.40L68.28 200.01ZM62.73 198.40L61.34 192.42L55.78 190.81L51.62 195.19L53.02 201.18L58.57 202.79ZM75.22 185.25L73.83 179.26L68.27 177.66L64.11 182.04L65.50 188.03L71.05 189.64ZM65.50 188.03L64.11 182.04L58.55 180.44L54.39 184.82L55.78 190.81L61.34 192.42ZM79.39 203.23L78.00 197.24L72.45 195.63L68.28 200.01L69.67 206.00L75.23 207.61ZM69.67 206.00L68.28 200.01L62.73 198.40L58.57 202.79L59.96 208.77L65.51 210.38ZM82.17 192.86L80.78 186.86L75.22 185.25L71.05 189.64L72.45 195.63L78.00 197.24ZM94.66 246.75L93.27 240.77L87.72 239.15L83.56 243.53L84.95 249.51L90.50 251.12ZM84.95 249.51L83.56 243.53L78.01 241.92L73.85 246.29L75.24 252.27L80.79 253.88ZM97.44 236.39L96.05 230.41L90.50 228.79L86.33 233.17L87.72 239.15L93.27 240.77ZM87.72 239.15L86.33 233.17L80.78 231.56L76.62 235.93L78.01 241.92L83.56 243.53ZM101.59 254.35L100.21 248.37L94.66 246.75L90.50 251.12L91.88 257.11L97.43 258.72ZM91.88 257.11L90.50 251.12L84.95 249.51L80.79 253.88L82.18 259.86L87.72 261.48ZM104.37 244.00L102.99 238.01L97.44 236.39L93.27 240.77L94.66 246.75L100.21 248.37ZM68.31 244.68L66.92 238.70L61.37 237.09L57.22 241.46L58.61 247.45L64.15 249.05ZM58.61 247.45L57.22 241.46L51.67 239.86L47.52 244.23L48.91 250.21L54.46 251.82ZM71.08 234.32L69.69 228.34L64.14 226.73L59.98 231.11L61.37 237.09L66.92 238.70ZM61.37 237.09L59.98 231.11L54.43 229.50L50.28 233.88L51.67 239.86L57.22 241.46ZM75.24 252.27L73.85 246.29L68.31 244.68L64.15 249.05L65.54 255.03L71.09 256.64ZM65.54 255.03L64.15 249.05L58.61 247.45L54.46 251.82L55.85 257.80L61.39 259.41ZM78.01 241.92L76.62 235.93L71.08 234.32L66.92 238.70L68.31 244.68L73.85 246.29ZM109.94 223.27L108.55 217.28L103.00 215.67L98.83 220.04L100.21 226.03L105.77 227.65ZM100.21 226.03L98.83 220.04L93.28 218.43L89.11 222.81L90.50 228.79L96.05 230.41ZM112.72 212.90L111.34 206.91L105.78 205.30L101.61 209.67L103.00 215.67L108.55 217.28ZM103.00 215.67L101.61 209.67L96.05 208.06L91.89 212.44L93.28 218.43L98.83 220.04ZM116.87 230.88L115.49 224.89L109.94 223.27L105.77 227.65L107.15 233.64L112.71 235.25ZM107.15 233.64L105.77 227.65L100.21 226.03L96.05 230.41L97.44 236.39L102.99 238.01ZM119.66 220.51L118.28 214.52L112.72 212.90L108.55 217.28L109.94 223.27L115.49 224.89ZM0.32 197.16L-1.08 191.18L-6.62 189.59L-10.77 193.97L-9.36 199.95L-3.82 201.55ZM3.07 186.79L1.67 180.81L-3.88 179.22L-8.03 183.61L-6.62 189.59L-1.08 191.18ZM200.22 255.27L198.85 249.28L193.29 247.64L189.10 252.01L190.47 258.00L196.03 259.64ZM190.47 258.00L189.10 252.01L183.54 250.37L179.36 254.74L180.73 260.73L186.29 262.37ZM203.04 244.91L201.66 238.91L196.10 237.28L191.92 241.64L193.29 247.64L198.85 249.28ZM193.29 247.64L191.92 241.64L186.36 240.01L182.17 244.38L183.54 250.37L189.10 252.01ZM207.15 262.91L205.78 256.91L200.22 255.27L196.03 259.64L197.40 265.63L202.96 267.27ZM209.97 252.55L208.60 246.55L203.04 244.91L198.85 249.28L200.22 255.27L205.78 256.91ZM173.80 253.11L172.43 247.11L166.87 245.48L162.69 249.85L164.07 255.84L169.62 257.47ZM164.07 255.84L162.69 249.85L157.14 248.22L152.96 252.59L154.34 258.58L159.89 260.21ZM176.61 242.75L175.24 236.75L169.68 235.12L165.50 239.49L166.87 245.48L172.43 247.11ZM166.87 245.48L165.50 239.49L159.94 237.86L155.76 242.23L157.14 248.22L162.69 249.85ZM180.73 260.73L179.36 254.74L173.80 253.11L169.62 257.47L171.00 263.47L176.55 265.10ZM171.00 263.47L169.62 257.47L164.07 255.84L159.89 260.21L161.27 266.20L166.82 267.83ZM183.54 250.37L182.17 244.38L176.61 242.75L172.43 247.11L173.80 253.11L179.36 254.74ZM215.61 231.82L214.24 225.81L208.68 224.18L204.48 228.54L205.86 234.55L211.42 236.18ZM205.86 234.55L204.48 228.54L198.92 226.91L194.73 231.28L196.10 237.28L201.66 238.91ZM218.44 221.44L217.07 215.44L211.50 213.80L207.31 218.17L208.68 224.18L214.24 225.81ZM208.68 224.18L207.31 218.17L201.74 216.54L197.55 220.91L198.92 226.91L204.48 228.54ZM222.55 239.46L221.18 233.45L215.61 231.82L211.42 236.18L212.79 242.18L218.35 243.82ZM212.79 242.18L211.42 236.18L205.86 234.55L201.66 238.91L203.04 244.91L208.60 246.55ZM225.37 229.09L224.00 223.08L218.44 221.44L214.24 225.81L215.61 231.82L221.18 233.45ZM189.17 229.64L187.79 223.64L182.23 222.01L178.05 226.38L179.42 232.38L184.98 234.01ZM179.42 232.38L178.05 226.38L172.48 224.75L168.30 229.12L169.68 235.12L175.24 236.75ZM191.98 219.27L190.61 213.27L185.05 211.64L180.86 216.01L182.23 222.01L187.79 223.64ZM182.23 222.01L180.86 216.01L175.29 214.38L171.11 218.76L172.48 224.75L178.05 226.38ZM196.10 237.28L194.73 231.28L189.17 229.64L184.98 234.01L186.36 240.01L191.92 241.64ZM186.36 240.01L184.98 234.01L179.42 232.38L175.24 236.75L176.61 242.75L182.17 244.38ZM198.92 226.91L197.55 220.91L191.98 219.27L187.79 223.64L189.17 229.64L194.73 231.28ZM226.65 257.46L225.28 251.46L219.72 249.82L215.53 254.18L216.90 260.18L222.46 261.82ZM216.90 260.18L215.53 254.18L209.97 252.55L205.78 256.91L207.15 262.91L212.71 264.54ZM229.48 247.10L228.11 241.10L222.55 239.46L218.35 243.82L219.72 249.82L225.28 251.46ZM219.72 249.82L218.35 243.82L212.79 242.18L208.60 246.55L209.97 252.55L215.53 254.18ZM236.41 254.74L235.04 248.74L229.48 247.10L225.28 251.46L226.65 257.46L232.21 259.10ZM108.52 261.95L107.14 255.97L101.59 254.35L97.43 258.72L98.81 264.71L104.36 266.32ZM147.41 250.97L146.03 244.97L140.47 243.35L136.30 247.72L137.68 253.71L143.23 255.33ZM137.68 253.71L136.30 247.72L130.75 246.10L126.57 250.47L127.96 256.46L133.51 258.08ZM150.20 240.61L148.82 234.61L143.27 232.99L139.09 237.36L140.47 243.35L146.03 244.97ZM140.47 243.35L139.09 237.36L133.54 235.74L129.36 240.11L130.75 246.10L136.30 247.72ZM154.34 258.58L152.96 252.59L147.41 250.97L143.23 255.33L144.61 261.32L150.16 262.95ZM144.61 261.32L143.23 255.33L137.68 253.71L133.51 258.08L134.89 264.07L140.44 265.69ZM157.14 248.22L155.76 242.23L150.20 240.61L146.03 244.97L147.41 250.97L152.96 252.59ZM121.02 248.85L119.64 242.86L114.09 241.24L109.92 245.61L111.31 251.60L116.86 253.22ZM111.31 251.60L109.92 245.61L104.37 244.00L100.21 248.37L101.59 254.35L107.14 255.97ZM123.81 238.49L122.43 232.50L116.87 230.88L112.71 235.25L114.09 241.24L119.64 242.86ZM114.09 241.24L112.71 235.25L107.15 233.64L102.99 238.01L104.37 244.00L109.92 245.61ZM127.96 256.46L126.57 250.47L121.02 248.85L116.86 253.22L118.24 259.20L123.79 260.82ZM118.24 259.20L116.86 253.22L111.31 251.60L107.14 255.97L108.52 261.95L114.07 263.57ZM130.75 246.10L129.36 240.11L123.81 238.49L119.64 242.86L121.02 248.85L126.57 250.47Z"/></svg>
