<svg xmlns="http://www.w3.org/2000/svg" width="256" height="256" viewBox="0 0 256 256"><path data-band="1" fill="#fde68a" fill-opacity="0.35" d="M253.10 3.67L251.73 -2.33L246.17 -3.98L241.97 0.38L243.34 6.39L248.90 8.03ZM243.34 6.39L241.97 0.38L236.41 -1.26L232.21 3.10L233.58 9.10L239.14 10.75ZM246.17 -3.98L244.80 -9.98L239.24 -11.62L235.04 -7.26L236.41 -1.26L241.97 0.38ZM260.02 11.32L258.66 5.32L253.10 3.67L248.90 8.03L250.26 14.03L255.82 15.68ZM250.26 14.03L248.90 8.03L243.34 6.39L239.14 10.75L240.50 16.75L246.07 18.39ZM262.86 0.96L261.50 -5.05L255.94 -6.69L251.73 -2.33L253.10 3.67L258.66 5.32ZM3.40 64.56L2.01 58.59L-3.52 57.00L-7.65 61.36L-6.25 67.32L-0.73 68.92ZM6.14 54.23L4.74 48.26L-0.79 46.67L-4.92 51.03L-3.52 57.00L2.01 58.59ZM11.62 33.56L10.22 27.59L4.69 25.99L0.55 30.36L1.95 36.33L7.48 37.93ZM1.95 36.33L0.55 30.36L-4.98 28.77L-9.11 33.14L-7.71 39.10L-2.18 40.70ZM14.36 23.22L12.96 17.25L7.43 15.65L3.29 20.02L4.69 25.99L10.22 27.59ZM4.69 25.99L3.29 20.02L-2.24 18.43L-6.38 22.80L-4.98 28.77L0.55 30.36ZM18.54 41.13L17.15 35.16L11.62 33.56L7.48 37.93L8.88 43.90L14.41 45.50ZM8.88 43.90L7.48 37.93L1.95 36.33L-2.18 40.70L-0.79 46.67L4.74 48.26ZM21.29 30.79L19.89 24.82L14.36 23.22L10.22 27.59L11.62 33.56L17.15 35.16ZM7.59 82.44L6.19 76.48L0.67 74.88L-3.46 79.25L-2.07 85.20L3.46 86.80ZM10.32 72.12L8.93 66.16L3.40 64.56L-0.73 68.92L0.67 74.88L6.19 76.48ZM0.67 74.88L-0.73 68.92L-6.25 67.32L-10.38 71.69L-8.99 77.65L-3.46 79.25ZM17.24 79.68L15.85 73.72L10.32 72.12L6.19 76.48L7.59 82.44L13.11 84.04ZM22.73 59.03L21.33 53.06L15.80 51.46L11.67 55.83L13.06 61.79L18.59 63.39ZM13.06 61.79L11.67 55.83L6.14 54.23L2.01 58.59L3.40 64.56L8.93 66.16ZM25.47 48.70L24.08 42.73L18.54 41.13L14.41 45.50L15.80 51.46L21.33 53.06ZM15.80 51.46L14.41 45.50L8.88 43.90L4.74 48.26L6.14 54.23L11.67 55.83ZM29.65 66.60L28.25 60.63L22.73 59.03L18.59 63.39L19.98 69.36L25.51 70.96ZM19.98 69.36L18.59 63.39L13.06 61.79L8.93 66.16L10.32 72.12L15.85 73.72ZM32.39 56.27L31.00 50.30L25.47 48.70L21.33 53.06L22.73 59.03L28.25 60.63ZM26.78 10.10L25.39 4.13L19.85 2.53L15.71 6.90L17.10 12.88L22.64 14.48ZM17.10 12.88L15.71 6.90L10.17 5.31L6.03 9.68L7.43 15.65L12.96 17.25ZM29.53 -0.24L28.14 -6.22L22.60 -7.82L18.45 -3.44L19.85 2.53L25.39 4.13ZM19.85 2.53L18.45 -3.44L12.91 -5.04L8.77 -0.67L10.17 5.31L15.71 6.90ZM33.71 17.68L32.32 11.71L26.78 10.10L22.64 14.48L24.03 20.45L29.57 22.05ZM24.03 20.45L22.64 14.48L17.10 12.88L12.96 17.25L14.36 23.22L19.89 24.82ZM36.47 7.33L35.07 1.36L29.53 -0.24L25.39 4.13L26.78 10.10L32.32 11.71ZM0.50 8.08L-0.90 2.11L-6.44 0.52L-10.57 4.89L-9.17 10.86L-3.64 12.46ZM3.24 -2.26L1.84 -8.24L-3.70 -9.83L-7.84 -5.45L-6.44 0.52L-0.90 2.11ZM7.43 15.65L6.03 9.68L0.50 8.08L-3.64 12.46L-2.24 18.43L3.29 20.02ZM10.17 5.31L8.77 -0.67L3.24 -2.26L-0.90 2.11L0.50 8.08L6.03 9.68ZM39.22 -3.02L37.83 -8.99L32.28 -10.60L28.14 -6.22L29.53 -0.24L35.07 1.36ZM33.82 84.49L32.43 78.53L26.90 76.93L22.77 81.29L24.16 87.25L29.68 88.85ZM36.57 74.17L35.18 68.20L29.65 66.60L25.51 70.96L26.90 76.93L32.43 78.53ZM26.90 76.93L25.51 70.96L19.98 69.36L15.85 73.72L17.24 79.68L22.77 81.29ZM43.49 81.74L42.10 75.78L36.57 74.17L32.43 78.53L33.82 84.49L39.35 86.10ZM64.18 37.66L62.80 31.68L57.26 30.08L53.11 34.44L54.50 40.42L60.04 42.02ZM54.50 40.42L53.11 34.44L47.57 32.84L43.43 37.20L44.82 43.17L50.35 44.78ZM66.95 27.32L65.56 21.34L60.02 19.73L55.87 24.10L57.26 30.08L62.80 31.68ZM57.26 30.08L55.87 24.10L50.33 22.49L46.18 26.86L47.57 32.84L53.11 34.44ZM71.11 45.24L69.72 39.27L64.18 37.66L60.04 42.02L61.42 48.00L66.96 49.61ZM61.42 48.00L60.04 42.02L54.50 40.42L50.35 44.78L51.74 50.75L57.28 52.36ZM73.87 34.91L72.49 28.93L66.95 27.32L62.80 31.68L64.18 37.66L69.72 39.27ZM37.89 35.60L36.50 29.63L30.96 28.02L26.82 32.39L28.22 38.36L33.75 39.97ZM28.22 38.36L26.82 32.39L21.29 30.79L17.15 35.16L18.54 41.13L24.08 42.73ZM40.64 25.26L39.25 19.28L33.71 17.68L29.57 22.05L30.96 28.02L36.50 29.63ZM30.96 28.02L29.57 22.05L24.03 20.45L19.89 24.82L21.29 30.79L26.82 32.39ZM44.82 43.17L43.43 37.20L37.89 35.60L33.75 39.97L35.14 45.94L40.67 47.54ZM35.14 45.94L33.75 39.97L28.22 38.36L24.08 42.73L25.47 48.70L31.00 50.30ZM47.57 32.84L46.18 26.86L40.64 25.26L36.50 29.63L37.89 35.60L43.43 37.20ZM79.41 14.22L78.02 8.23L72.48 6.62L68.32 10.99L69.71 16.97L75.25 18.58ZM69.71 16.97L68.32 10.99L62.78 9.39L58.63 13.76L60.02 19.73L65.56 21.34ZM82.18 3.86L80.79 -2.12L75.24 -3.73L71.09 0.64L72.48 6.62L78.02 8.23ZM72.48 6.62L71.09 0.64L65.54 -0.97L61.39 3.41L62.78 9.39L68.32 10.99ZM86.34 21.81L84.95 15.83L79.41 14.22L75.25 18.58L76.64 24.56L82.18 26.17ZM76.64 24.56L75.25 18.58L69.71 16.97L65.56 21.34L66.95 27.32L72.49 28.93ZM89.11 11.46L87.72 5.48L82.18 3.86L78.02 8.23L79.41 14.22L84.95 15.83ZM53.09 12.15L51.70 6.17L46.15 4.57L42.01 8.94L43.40 14.91L48.94 16.52ZM43.40 14.91L42.01 8.94L36.47 7.33L32.32 11.71L33.71 17.68L39.25 19.28ZM55.85 1.80L54.46 -4.18L48.91 -5.79L44.76 -1.41L46.15 4.57L51.70 6.17ZM46.15 4.57L44.76 -1.41L39.22 -3.02L35.07 1.36L36.47 7.33L42.01 8.94ZM60.02 19.73L58.63 13.76L53.09 12.15L48.94 16.52L50.33 22.49L55.87 24.10ZM50.33 22.49L48.94 16.52L43.40 14.91L39.25 19.28L40.64 25.26L46.18 26.86ZM62.78 9.39L61.39 3.41L55.85 1.80L51.70 6.17L53.09 12.15L58.63 13.76ZM75.27 63.17L73.88 57.19L68.35 55.58L64.20 59.94L65.59 65.91L71.12 67.52ZM65.59 65.91L64.20 59.94L58.67 58.33L54.52 62.69L55.91 68.66L61.44 70.27ZM78.03 52.83L76.65 46.86L71.11 45.24L66.96 49.61L68.35 55.58L73.88 57.19ZM68.35 55.58L66.96 49.61L61.42 48.00L57.28 52.36L58.67 58.33L64.20 59.94ZM82.19 70.75L80.80 64.78L75.27 63.17L71.12 67.52L72.51 73.50L78.04 75.11ZM84.95 60.42L83.57 54.44L78.03 52.83L73.88 57.19L75.27 63.17L80.80 64.78ZM48.99 61.09L47.60 55.12L42.07 53.51L37.92 57.87L39.32 63.84L44.85 65.45ZM39.32 63.84L37.92 57.87L32.39 56.27L28.25 60.63L29.65 66.60L35.18 68.20ZM51.74 50.75L50.35 44.78L44.82 43.17L40.67 47.54L42.07 53.51L47.60 55.12ZM42.07 53.51L40.67 47.54L35.14 45.94L31.00 50.30L32.39 56.27L37.92 57.87ZM55.91 68.66L54.52 62.69L48.99 61.09L44.85 65.45L46.24 71.42L51.77 73.02ZM46.24 71.42L44.85 65.45L39.32 63.84L35.18 68.20L36.57 74.17L42.10 75.78ZM58.67 58.33L57.28 52.36L51.74 50.75L47.60 55.12L48.99 61.09L54.52 62.69ZM90.49 39.74L89.11 33.77L83.57 32.15L79.41 36.52L80.80 42.49L86.34 44.11ZM80.80 42.49L79.41 36.52L73.87 34.91L69.72 39.27L71.11 45.24L76.65 46.86ZM93.26 29.40L91.88 23.42L86.34 21.81L82.18 26.17L83.57 32.15L89.11 33.77ZM83.57 32.15L82.18 26.17L76.64 24.56L72.49 28.93L73.87 34.91L79.41 36.52ZM97.42 47.34L96.03 41.36L90.49 39.74L86.34 44.11L87.72 50.08L93.26 51.70ZM87.72 50.08L86.34 44.11L80.80 42.49L76.65 46.86L78.03 52.83L83.57 54.44ZM100.19 37.00L98.81 31.02L93.26 29.40L89.11 33.77L90.49 39.74L96.03 41.36ZM101.59 -1.65L100.21 -7.63L94.66 -9.25L90.50 -4.88L91.88 1.11L97.43 2.72ZM91.88 1.11L90.50 -4.88L84.95 -6.49L80.79 -2.12L82.18 3.86L87.72 5.48ZM75.24 -3.73L73.85 -9.71L68.31 -11.32L64.15 -6.95L65.54 -0.97L71.09 0.64ZM65.54 -0.97L64.15 -6.95L58.61 -8.55L54.46 -4.18L55.85 1.80L61.39 3.41ZM183.36 61.37L181.98 55.39L176.44 53.75L172.26 58.11L173.64 64.09L179.18 65.73ZM173.64 64.09L172.26 58.11L166.72 56.48L162.54 60.83L163.92 66.82L169.46 68.45ZM190.27 68.99L188.90 63.01L183.36 61.37L179.18 65.73L180.55 71.71L186.10 73.35ZM154.21 69.54L152.83 63.56L147.29 61.93L143.12 66.29L144.50 72.27L150.04 73.89ZM157.00 59.20L155.63 53.22L150.08 51.59L145.91 55.95L147.29 61.93L152.83 63.56ZM147.29 61.93L145.91 55.95L140.37 54.32L136.20 58.68L137.58 64.66L143.12 66.29ZM163.92 66.82L162.54 60.83L157.00 59.20L152.83 63.56L154.21 69.54L159.75 71.17ZM195.89 48.31L194.52 42.32L188.97 40.69L184.79 45.04L186.16 51.03L191.71 52.67ZM186.16 51.03L184.79 45.04L179.24 43.41L175.06 47.77L176.44 53.75L181.98 55.39ZM198.70 37.97L197.33 31.97L191.78 30.34L187.60 34.70L188.97 40.69L194.52 42.32ZM188.97 40.69L187.60 34.70L182.05 33.06L177.87 37.42L179.24 43.41L184.79 45.04ZM193.08 58.66L191.71 52.67L186.16 51.03L181.98 55.39L183.36 61.37L188.90 63.01ZM205.62 45.59L204.25 39.60L198.70 37.97L194.52 42.32L195.89 48.31L201.44 49.95ZM169.52 46.14L168.14 40.15L162.59 38.52L158.42 42.88L159.80 48.86L165.34 50.49ZM159.80 48.86L158.42 42.88L152.87 41.25L148.70 45.61L150.08 51.59L155.63 53.22ZM172.32 35.79L170.94 29.80L165.39 28.17L161.22 32.53L162.59 38.52L168.14 40.15ZM162.59 38.52L161.22 32.53L155.67 30.90L151.50 35.26L152.87 41.25L158.42 42.88ZM176.44 53.75L175.06 47.77L169.52 46.14L165.34 50.49L166.72 56.48L172.26 58.11ZM166.72 56.48L165.34 50.49L159.80 48.86L155.63 53.22L157.00 59.20L162.54 60.83ZM179.24 43.41L177.87 37.42L172.32 35.79L168.14 40.15L169.52 46.14L175.06 47.77ZM127.88 67.39L126.50 61.41L120.96 59.79L116.80 64.15L118.18 70.13L123.72 71.75ZM118.18 70.13L116.80 64.15L111.26 62.53L107.10 66.89L108.48 72.86L114.02 74.48ZM130.66 57.06L129.28 51.08L123.74 49.45L119.58 53.81L120.96 59.79L126.50 61.41ZM120.96 59.79L119.58 53.81L114.04 52.19L109.88 56.55L111.26 62.53L116.80 64.15ZM137.58 64.66L136.20 58.68L130.66 57.06L126.50 61.41L127.88 67.39L133.42 69.02ZM101.56 65.27L100.18 59.29L94.64 57.67L90.49 62.03L91.87 68.01L97.41 69.62ZM91.87 68.01L90.49 62.03L84.95 60.42L80.80 64.78L82.19 70.75L87.72 72.37ZM104.34 54.93L102.96 48.95L97.42 47.34L93.26 51.70L94.64 57.67L100.18 59.29ZM94.64 57.67L93.26 51.70L87.72 50.08L83.57 54.44L84.95 60.42L90.49 62.03ZM111.26 62.53L109.88 56.55L104.34 54.93L100.18 59.29L101.56 65.27L107.10 66.89ZM200.22 -0.73L198.85 -6.72L193.29 -8.36L189.10 -3.99L190.47 2.00L196.03 3.64ZM190.47 2.00L189.10 -3.99L183.54 -5.63L179.36 -1.26L180.73 4.73L186.29 6.37ZM207.15 6.91L205.78 0.91L200.22 -0.73L196.03 3.64L197.40 9.63L202.96 11.27ZM197.40 9.63L196.03 3.64L190.47 2.00L186.29 6.37L187.66 12.36L193.22 13.99ZM209.97 -3.45L208.60 -9.45L203.04 -11.09L198.85 -6.72L200.22 -0.73L205.78 0.91ZM173.80 -2.89L172.43 -8.89L166.87 -10.52L162.69 -6.15L164.07 -0.16L169.62 1.47ZM164.07 -0.16L162.69 -6.15L157.14 -7.78L152.96 -3.41L154.34 2.58L159.89 4.21ZM180.73 4.73L179.36 -1.26L173.80 -2.89L169.62 1.47L171.00 7.47L176.55 9.10ZM171.00 7.47L169.62 1.47L164.07 -0.16L159.89 4.21L161.27 10.20L166.82 11.83ZM211.26 24.90L209.89 18.90L204.33 17.26L200.15 21.62L201.52 27.62L207.07 29.25ZM201.52 27.62L200.15 21.62L194.59 19.99L190.41 24.35L191.78 30.34L197.33 31.97ZM214.08 14.54L212.71 8.54L207.15 6.91L202.96 11.27L204.33 17.26L209.89 18.90ZM204.33 17.26L202.96 11.27L197.40 9.63L193.22 13.99L194.59 19.99L200.15 21.62ZM218.18 32.53L216.81 26.53L211.26 24.90L207.07 29.25L208.44 35.25L213.99 36.89ZM208.44 35.25L207.07 29.25L201.52 27.62L197.33 31.97L198.70 37.97L204.25 39.60ZM221.00 22.18L219.63 16.18L214.08 14.54L209.89 18.90L211.26 24.90L216.81 26.53ZM184.85 22.71L183.48 16.72L177.93 15.09L173.75 19.45L175.12 25.44L180.67 27.07ZM175.12 25.44L173.75 19.45L168.20 17.82L164.02 22.18L165.39 28.17L170.94 29.80ZM187.66 12.36L186.29 6.37L180.73 4.73L176.55 9.10L177.93 15.09L183.48 16.72ZM177.93 15.09L176.55 9.10L171.00 7.47L166.82 11.83L168.20 17.82L173.75 19.45ZM191.78 30.34L190.41 24.35L184.85 22.71L180.67 27.07L182.05 33.06L187.60 34.70ZM182.05 33.06L180.67 27.07L175.12 25.44L170.94 29.80L172.32 35.79L177.87 37.42ZM194.59 19.99L193.22 13.99L187.66 12.36L183.48 16.72L184.85 22.71L190.41 24.35ZM226.65 1.46L225.28 -4.54L219.72 -6.18L215.53 -1.82L216.90 4.18L222.46 5.82ZM216.90 4.18L215.53 -1.82L209.97 -3.45L205.78 0.91L207.15 6.91L212.71 8.54ZM233.58 9.10L232.21 3.10L226.65 1.46L222.46 5.82L223.83 11.82L229.38 13.46ZM223.83 11.82L222.46 5.82L216.90 4.18L212.71 8.54L214.08 14.54L219.63 16.18ZM236.41 -1.26L235.04 -7.26L229.48 -8.90L225.28 -4.54L226.65 1.46L232.21 3.10ZM132.10 18.42L130.72 12.43L125.17 10.81L121.00 15.18L122.38 21.16L127.93 22.78ZM122.38 21.16L121.00 15.18L115.45 13.56L111.29 17.92L112.67 23.91L118.22 25.53ZM134.89 8.07L133.51 2.08L127.96 0.46L123.79 4.82L125.17 10.81L130.72 12.43ZM125.17 10.81L123.79 4.82L118.24 3.20L114.07 7.57L115.45 13.56L121.00 15.18ZM139.02 26.03L137.65 20.04L132.10 18.42L127.93 22.78L129.31 28.77L134.86 30.39ZM129.31 28.77L127.93 22.78L122.38 21.16L118.22 25.53L119.60 31.51L125.14 33.13ZM141.82 15.68L140.44 9.69L134.89 8.07L130.72 12.43L132.10 18.42L137.65 20.04ZM105.74 16.31L104.36 10.32L98.81 8.71L94.65 13.07L96.04 19.06L101.58 20.67ZM96.04 19.06L94.65 13.07L89.11 11.46L84.95 15.83L86.34 21.81L91.88 23.42ZM108.52 5.95L107.14 -0.03L101.59 -1.65L97.43 2.72L98.81 8.71L104.36 10.32ZM98.81 8.71L97.43 2.72L91.88 1.11L87.72 5.48L89.11 11.46L94.65 13.07ZM112.67 23.91L111.29 17.92L105.74 16.31L101.58 20.67L102.97 26.65L108.51 28.27ZM102.97 26.65L101.58 20.67L96.04 19.06L91.88 23.42L93.26 29.40L98.81 31.02ZM115.45 13.56L114.07 7.57L108.52 5.95L104.36 10.32L105.74 16.31L111.29 17.92ZM137.68 -2.29L136.30 -8.28L130.75 -9.90L126.57 -5.53L127.96 0.46L133.51 2.08ZM154.34 2.58L152.96 -3.41L147.41 -5.03L143.23 -0.67L144.61 5.32L150.16 6.95ZM144.61 5.32L143.23 -0.67L137.68 -2.29L133.51 2.08L134.89 8.07L140.44 9.69ZM127.96 0.46L126.57 -5.53L121.02 -7.15L116.86 -2.78L118.24 3.20L123.79 4.82ZM118.24 3.20L116.86 -2.78L111.31 -4.40L107.14 -0.03L108.52 5.95L114.07 7.57ZM143.16 43.98L141.78 38.00L136.23 36.37L132.07 40.73L133.45 46.72L138.99 48.34ZM133.45 46.72L132.07 40.73L126.52 39.11L122.36 43.47L123.74 49.45L129.28 51.08ZM145.95 33.64L144.57 27.65L139.02 26.03L134.86 30.39L136.23 36.37L141.78 38.00ZM136.23 36.37L134.86 30.39L129.31 28.77L125.14 33.13L126.52 39.11L132.07 40.73ZM150.08 51.59L148.70 45.61L143.16 43.98L138.99 48.34L140.37 54.32L145.91 55.95ZM140.37 54.32L138.99 48.34L133.45 46.72L129.28 51.08L130.66 57.06L136.20 58.68ZM152.87 41.25L151.50 35.26L145.95 33.64L141.78 38.00L143.16 43.98L148.70 45.61ZM116.82 41.85L115.44 35.87L109.89 34.25L105.73 38.61L107.11 44.59L112.66 46.21ZM107.11 44.59L105.73 38.61L100.19 37.00L96.03 41.36L97.42 47.34L102.96 48.95ZM119.60 31.51L118.22 25.53L112.67 23.91L108.51 28.27L109.89 34.25L115.44 35.87ZM109.89 34.25L108.51 28.27L102.97 26.65L98.81 31.02L100.19 37.00L105.73 38.61ZM123.74 49.45L122.36 43.47L116.82 41.85L112.66 46.21L114.04 52.19L119.58 53.81ZM114.04 52.19L112.66 46.21L107.11 44.59L102.96 48.95L104.34 54.93L109.88 56.55ZM126.52 39.11L125.14 33.13L119.60 31.51L115.44 35.87L116.82 41.85L122.36 43.47ZM158.47 20.55L157.09 14.56L151.54 12.94L147.37 17.30L148.74 23.29L154.29 24.92ZM148.74 23.29L147.37 17.30L141.82 15.68L137.65 20.04L139.02 26.03L144.57 27.65ZM161.27 10.20L159.89 4.21L154.34 2.58L150.16 6.95L151.54 12.94L157.09 14.56ZM151.54 12.94L150.16 6.95L144.61 5.32L140.44 9.69L141.82 15.68L147.37 17.30ZM165.39 28.17L164.02 22.18L158.47 20.55L154.29 24.92L155.67 30.90L161.22 32.53ZM155.67 30.90L154.29 24.92L148.74 23.29L144.57 27.65L145.95 33.64L151.50 35.26ZM168.20 17.82L166.82 11.83L161.27 10.20L157.09 14.56L158.47 20.55L164.02 22.18ZM248.69 52.74L247.32 46.74L241.77 45.09L237.58 49.45L238.94 55.44L244.50 57.08ZM251.52 42.39L250.16 36.39L244.60 34.74L240.40 39.10L241.77 45.09L247.32 46.74ZM241.77 45.09L240.40 39.10L234.85 37.45L230.66 41.81L232.02 47.80L237.58 49.45ZM258.44 50.03L257.08 44.03L251.52 42.39L247.32 46.74L248.69 52.74L254.24 54.38ZM222.28 50.51L220.91 44.52L215.36 42.88L211.18 47.23L212.54 53.22L218.09 54.86ZM212.54 53.22L211.18 47.23L205.62 45.59L201.44 49.95L202.81 55.94L208.36 57.58ZM225.10 40.17L223.74 34.17L218.18 32.53L213.99 36.89L215.36 42.88L220.91 44.52ZM215.36 42.88L213.99 36.89L208.44 35.25L204.25 39.60L205.62 45.59L211.18 47.23ZM232.02 47.80L230.66 41.81L225.10 40.17L220.91 44.52L222.28 50.51L227.83 52.15ZM264.11 29.33L262.75 23.33L257.19 21.68L252.99 26.04L254.35 32.04L259.91 33.68ZM254.35 32.04L252.99 26.04L247.43 24.39L243.23 28.75L244.60 34.74L250.16 36.39ZM266.95 18.97L265.59 12.97L260.02 11.32L255.82 15.68L257.19 21.68L262.75 23.33ZM257.19 21.68L255.82 15.68L250.26 14.03L246.07 18.39L247.43 24.39L252.99 26.04ZM261.27 39.68L259.91 33.68L254.35 32.04L250.16 36.39L251.52 42.39L257.08 44.03ZM237.68 27.10L236.31 21.10L230.75 19.46L226.56 23.82L227.93 29.81L233.48 31.46ZM227.93 29.81L226.56 23.82L221.00 22.18L216.81 26.53L218.18 32.53L223.74 34.17ZM240.50 16.75L239.14 10.75L233.58 9.10L229.38 13.46L230.75 19.46L236.31 21.10ZM230.75 19.46L229.38 13.46L223.83 11.82L219.63 16.18L221.00 22.18L226.56 23.82ZM244.60 34.74L243.23 28.75L237.68 27.10L233.48 31.46L234.85 37.45L240.40 39.10ZM234.85 37.45L233.48 31.46L227.93 29.81L223.74 34.17L225.10 40.17L230.66 41.81ZM247.43 24.39L246.07 18.39L240.50 16.75L236.31 21.10L237.68 27.10L243.23 28.75Z"/><path data-band="2" fill="#f97316" fill-opacity="0.35" d="M250.88 176.21L249.52 170.23L243.98 168.58L239.81 172.91L241.16 178.89L246.70 180.54ZM241.16 178.89L239.81 172.91L234.27 171.27L230.10 175.59L231.46 181.57L236.99 183.22ZM253.70 165.90L252.34 159.92L246.80 158.27L242.62 162.60L243.98 168.58L249.52 170.23ZM243.98 168.58L242.62 162.60L237.09 160.96L232.91 165.29L234.27 171.27L239.81 172.91ZM257.77 183.84L256.41 177.86L250.88 176.21L246.70 180.54L248.06 186.52L253.59 188.17ZM248.06 186.52L246.70 180.54L241.16 178.89L236.99 183.22L238.35 189.19L243.88 190.84ZM260.59 173.54L259.24 167.56L253.70 165.90L249.52 170.23L250.88 176.21L256.41 177.86ZM266.25 152.91L264.89 146.93L259.35 145.28L255.17 149.61L256.52 155.59L262.06 157.24ZM256.52 155.59L255.17 149.61L249.62 147.96L245.44 152.29L246.80 158.27L252.34 159.92ZM259.35 145.28L257.99 139.29L252.45 137.64L248.27 141.98L249.62 147.96L255.17 149.61ZM263.42 163.23L262.06 157.24L256.52 155.59L252.34 159.92L253.70 165.90L259.24 167.56ZM252.13 204.44L250.77 198.47L245.24 196.82L241.06 201.14L242.42 207.11L247.95 208.76ZM264.66 191.47L263.30 185.49L257.77 183.84L253.59 188.17L254.95 194.14L260.48 195.80ZM254.95 194.14L253.59 188.17L248.06 186.52L243.88 190.84L245.24 196.82L250.77 198.47ZM209.25 197.24L207.89 191.26L202.36 189.62L198.19 193.95L199.56 199.92L205.08 201.56ZM199.56 199.92L198.19 193.95L192.67 192.31L188.51 196.64L189.87 202.61L195.40 204.25ZM212.05 186.94L210.69 180.96L205.16 179.32L201.00 183.65L202.36 189.62L207.89 191.26ZM202.36 189.62L201.00 183.65L195.47 182.01L191.30 186.34L192.67 192.31L198.19 193.95ZM216.14 204.85L214.78 198.88L209.25 197.24L205.08 201.56L206.45 207.53L211.97 209.17ZM206.45 207.53L205.08 201.56L199.56 199.92L195.40 204.25L196.76 210.21L202.28 211.86ZM218.95 194.55L217.58 188.58L212.05 186.94L207.89 191.26L209.25 197.24L214.78 198.88ZM182.98 195.00L181.62 189.03L176.09 187.40L171.93 191.73L173.30 197.69L178.82 199.33ZM173.30 197.69L171.93 191.73L166.41 190.09L162.25 194.42L163.62 200.39L169.14 202.02ZM185.78 184.70L184.41 178.73L178.88 177.10L174.72 181.43L176.09 187.40L181.62 189.03ZM176.09 187.40L174.72 181.43L169.20 179.79L165.04 184.13L166.41 190.09L171.93 191.73ZM189.87 202.61L188.51 196.64L182.98 195.00L178.82 199.33L180.19 205.30L185.71 206.93ZM180.19 205.30L178.82 199.33L173.30 197.69L169.14 202.02L170.51 207.99L176.03 209.62ZM192.67 192.31L191.30 186.34L185.78 184.70L181.62 189.03L182.98 195.00L188.51 196.64ZM224.56 173.95L223.20 167.97L217.67 166.33L213.50 170.66L214.86 176.63L220.39 178.28ZM214.86 176.63L213.50 170.66L207.97 169.02L203.80 173.35L205.16 179.32L210.69 180.96ZM227.38 163.64L226.01 157.66L220.48 156.02L216.31 160.35L217.67 166.33L223.20 167.97ZM217.67 166.33L216.31 160.35L210.77 158.71L206.60 163.04L207.97 169.02L213.50 170.66ZM231.46 181.57L230.10 175.59L224.56 173.95L220.39 178.28L221.75 184.25L227.28 185.90ZM221.75 184.25L220.39 178.28L214.86 176.63L210.69 180.96L212.05 186.94L217.58 188.58ZM234.27 171.27L232.91 165.29L227.38 163.64L223.20 167.97L224.56 173.95L230.10 175.59ZM198.27 171.71L196.90 165.74L191.37 164.10L187.21 168.43L188.57 174.40L194.10 176.04ZM188.57 174.40L187.21 168.43L181.68 166.79L177.51 171.13L178.88 177.10L184.41 178.73ZM201.07 161.40L199.70 155.43L194.17 153.79L190.00 158.12L191.37 164.10L196.90 165.74ZM191.37 164.10L190.00 158.12L184.47 156.49L180.31 160.82L181.68 166.79L187.21 168.43ZM205.16 179.32L203.80 173.35L198.27 171.71L194.10 176.04L195.47 182.01L201.00 183.65ZM195.47 182.01L194.10 176.04L188.57 174.40L184.41 178.73L185.78 184.70L191.30 186.34ZM207.97 169.02L206.60 163.04L201.07 161.40L196.90 165.74L198.27 171.71L203.80 173.35ZM223.03 212.46L221.67 206.49L216.14 204.85L211.97 209.17L213.33 215.14L218.86 216.79ZM184.28 223.19L182.92 217.22L177.40 215.59L173.24 219.91L174.61 225.87L180.13 227.51ZM196.76 210.21L195.40 204.25L189.87 202.61L185.71 206.93L187.08 212.90L192.60 214.54ZM187.08 212.90L185.71 206.93L180.19 205.30L176.03 209.62L177.40 215.59L182.92 217.22ZM235.53 199.49L234.18 193.52L228.64 191.87L224.47 196.20L225.83 202.17L231.36 203.82ZM225.83 202.17L224.47 196.20L218.95 194.55L214.78 198.88L216.14 204.85L221.67 206.49ZM238.35 189.19L236.99 183.22L231.46 181.57L227.28 185.90L228.64 191.87L234.18 193.52ZM228.64 191.87L227.28 185.90L221.75 184.25L217.58 188.58L218.95 194.55L224.47 196.20ZM242.42 207.11L241.06 201.14L235.53 199.49L231.36 203.82L232.72 209.79L238.25 211.44ZM232.72 209.79L231.36 203.82L225.83 202.17L221.67 206.49L223.03 212.46L228.55 214.11ZM245.24 196.82L243.88 190.84L238.35 189.19L234.18 193.52L235.53 199.49L241.06 201.14ZM260.93 106.67L259.57 100.68L254.02 99.03L249.84 103.37L251.20 109.36L256.74 111.01ZM263.76 96.34L262.41 90.35L256.85 88.70L252.66 93.04L254.02 99.03L259.57 100.68ZM14.50 90.00L13.11 84.04L7.59 82.44L3.46 86.80L4.85 92.76L10.37 94.36ZM4.85 92.76L3.46 86.80L-2.07 85.20L-6.19 89.57L-4.80 95.52L0.72 97.12ZM44.90 109.95L43.51 103.99L37.99 102.38L33.86 106.74L35.24 112.70L40.77 114.31ZM35.24 112.70L33.86 106.74L28.33 105.13L24.20 109.49L25.59 115.45L31.11 117.05ZM47.65 99.64L46.26 93.67L40.74 92.06L36.60 96.42L37.99 102.38L43.51 103.99ZM37.99 102.38L36.60 96.42L31.08 94.82L26.94 99.17L28.33 105.13L33.86 106.74ZM51.81 117.52L50.43 111.56L44.90 109.95L40.77 114.31L42.16 120.27L47.68 121.87ZM42.16 120.27L40.77 114.31L35.24 112.70L31.11 117.05L32.50 123.01L38.02 124.62ZM54.56 107.21L53.18 101.24L47.65 99.64L43.51 103.99L44.90 109.95L50.43 111.56ZM18.68 107.88L17.29 101.93L11.77 100.32L7.64 104.68L9.03 110.64L14.55 112.24ZM9.03 110.64L7.64 104.68L2.12 103.08L-2.01 107.44L-0.61 113.39L4.90 114.99ZM21.42 97.57L20.03 91.61L14.50 90.00L10.37 94.36L11.77 100.32L17.29 101.93ZM11.77 100.32L10.37 94.36L4.85 92.76L0.72 97.12L2.12 103.08L7.64 104.68ZM25.59 115.45L24.20 109.49L18.68 107.88L14.55 112.24L15.94 118.20L21.46 119.80ZM15.94 118.20L14.55 112.24L9.03 110.64L4.90 114.99L6.30 120.95L11.82 122.55ZM28.33 105.13L26.94 99.17L21.42 97.57L17.29 101.93L18.68 107.88L24.20 109.49ZM60.07 86.57L58.68 80.60L53.15 78.99L49.01 83.35L50.40 89.32L55.93 90.92ZM50.40 89.32L49.01 83.35L43.49 81.74L39.35 86.10L40.74 92.06L46.26 93.67ZM62.83 76.24L61.44 70.27L55.91 68.66L51.77 73.02L53.15 78.99L58.68 80.60ZM53.15 78.99L51.77 73.02L46.24 71.42L42.10 75.78L43.49 81.74L49.01 83.35ZM66.99 94.15L65.60 88.18L60.07 86.57L55.93 90.92L57.32 96.89L62.84 98.50ZM57.32 96.89L55.93 90.92L50.40 89.32L46.26 93.67L47.65 99.64L53.18 101.24ZM69.75 83.82L68.36 77.85L62.83 76.24L58.68 80.60L60.07 86.57L65.60 88.18ZM24.16 87.25L22.77 81.29L17.24 79.68L13.11 84.04L14.50 90.00L20.03 91.61ZM40.74 92.06L39.35 86.10L33.82 84.49L29.68 88.85L31.08 94.82L36.60 96.42ZM31.08 94.82L29.68 88.85L24.16 87.25L20.03 91.61L21.42 97.57L26.94 99.17ZM55.97 135.40L54.59 129.45L49.06 127.83L44.93 132.18L46.32 138.14L51.84 139.75ZM46.32 138.14L44.93 132.18L39.41 130.58L35.28 134.93L36.67 140.88L42.18 142.49ZM58.72 125.10L57.34 119.13L51.81 117.52L47.68 121.87L49.06 127.83L54.59 129.45ZM49.06 127.83L47.68 121.87L42.16 120.27L38.02 124.62L39.41 130.58L44.93 132.18ZM62.88 142.98L61.49 137.02L55.97 135.40L51.84 139.75L53.22 145.71L58.74 147.32ZM53.22 145.71L51.84 139.75L46.32 138.14L42.18 142.49L43.57 148.45L49.09 150.06ZM65.63 132.67L64.25 126.71L58.72 125.10L54.59 129.45L55.97 135.40L61.49 137.02ZM29.76 133.32L28.37 127.36L22.85 125.76L18.72 130.11L20.11 136.06L25.63 137.67ZM20.11 136.06L18.72 130.11L13.21 128.51L9.08 132.86L10.47 138.81L15.99 140.41ZM32.50 123.01L31.11 117.05L25.59 115.45L21.46 119.80L22.85 125.76L28.37 127.36ZM22.85 125.76L21.46 119.80L15.94 118.20L11.82 122.55L13.21 128.51L18.72 130.11ZM36.67 140.88L35.28 134.93L29.76 133.32L25.63 137.67L27.02 143.62L32.54 145.23ZM27.02 143.62L25.63 137.67L20.11 136.06L15.99 140.41L17.38 146.37L22.89 147.97ZM39.41 130.58L38.02 124.62L32.50 123.01L28.37 127.36L29.76 133.32L35.28 134.93ZM71.14 112.04L69.76 106.08L64.23 104.47L60.09 108.82L61.47 114.78L67.00 116.39ZM61.47 114.78L60.09 108.82L54.56 107.21L50.43 111.56L51.81 117.52L57.34 119.13ZM73.90 101.73L72.52 95.76L66.99 94.15L62.84 98.50L64.23 104.47L69.76 106.08ZM64.23 104.47L62.84 98.50L57.32 96.89L53.18 101.24L54.56 107.21L60.09 108.82ZM78.05 119.62L76.67 113.66L71.14 112.04L67.00 116.39L68.38 122.36L73.91 123.97ZM68.38 122.36L67.00 116.39L61.47 114.78L57.34 119.13L58.72 125.10L64.25 126.71ZM80.81 109.31L79.43 103.34L73.90 101.73L69.76 106.08L71.14 112.04L76.67 113.66ZM2.12 103.08L0.72 97.12L-4.80 95.52L-8.92 99.88L-7.53 105.84L-2.01 107.44ZM3.57 131.26L2.17 125.30L-3.34 123.70L-7.46 128.06L-6.07 134.01L-0.56 135.61ZM6.30 120.95L4.90 114.99L-0.61 113.39L-4.74 117.75L-3.34 123.70L2.17 125.30ZM10.47 138.81L9.08 132.86L3.57 131.26L-0.56 135.61L0.84 141.56L6.35 143.16ZM0.84 141.56L-0.56 135.61L-6.07 134.01L-10.19 138.36L-8.80 144.31L-3.28 145.91ZM13.21 128.51L11.82 122.55L6.30 120.95L2.17 125.30L3.57 131.26L9.08 132.86ZM72.51 73.50L71.12 67.52L65.59 65.91L61.44 70.27L62.83 76.24L68.36 77.85ZM73.95 235.00L72.57 229.05L67.07 227.43L62.94 231.76L64.32 237.71L69.83 239.33ZM64.32 237.71L62.94 231.76L57.43 230.15L53.31 234.48L54.69 240.42L60.20 242.04ZM76.70 224.72L75.32 218.77L69.81 217.15L65.69 221.48L67.07 227.43L72.57 229.05ZM67.07 227.43L65.69 221.48L60.18 219.87L56.05 224.20L57.43 230.15L62.94 231.76ZM80.84 242.56L79.46 236.62L73.95 235.00L69.83 239.33L71.21 245.27L76.71 246.89ZM71.21 245.27L69.83 239.33L64.32 237.71L60.20 242.04L61.58 247.98L67.08 249.60ZM83.59 232.29L82.21 226.34L76.70 224.72L72.57 229.05L73.95 235.00L79.46 236.62ZM47.81 232.86L46.42 226.92L40.92 225.31L36.80 229.64L38.18 235.58L43.69 237.20ZM38.18 235.58L36.80 229.64L31.30 228.03L27.18 232.36L28.56 238.30L34.06 239.91ZM50.55 222.59L49.16 216.64L43.66 215.03L39.54 219.36L40.92 225.31L46.42 226.92ZM40.92 225.31L39.54 219.36L34.03 217.75L29.91 222.09L31.30 228.03L36.80 229.64ZM54.69 240.42L53.31 234.48L47.81 232.86L43.69 237.20L45.07 243.14L50.57 244.75ZM45.07 243.14L43.69 237.20L38.18 235.58L34.06 239.91L35.45 245.86L40.95 247.47ZM57.43 230.15L56.05 224.20L50.55 222.59L46.42 226.92L47.81 232.86L53.31 234.48ZM89.10 211.72L87.72 205.77L82.21 204.15L78.08 208.49L79.46 214.44L84.97 216.06ZM79.46 214.44L78.08 208.49L72.56 206.87L68.43 211.20L69.81 217.15L75.32 218.77ZM91.86 201.44L90.48 195.48L84.96 193.86L80.83 198.20L82.21 204.15L87.72 205.77ZM82.21 204.15L80.83 198.20L75.32 196.58L71.18 200.92L72.56 206.87L78.08 208.49ZM95.99 219.30L94.61 213.35L89.10 211.72L84.97 216.06L86.34 222.01L91.85 223.63ZM86.34 222.01L84.97 216.06L79.46 214.44L75.32 218.77L76.70 224.72L82.21 226.34ZM98.75 209.01L97.37 203.06L91.86 201.44L87.72 205.77L89.10 211.72L94.61 213.35ZM62.92 209.59L61.54 203.64L56.03 202.02L51.91 206.36L53.29 212.31L58.80 213.92ZM53.29 212.31L51.91 206.36L46.40 204.75L42.27 209.08L43.66 215.03L49.16 216.64ZM65.67 199.30L64.29 193.35L58.78 191.74L54.65 196.07L56.03 202.02L61.54 203.64ZM56.03 202.02L54.65 196.07L49.14 194.46L45.01 198.80L46.40 204.75L51.91 206.36ZM69.81 217.15L68.43 211.20L62.92 209.59L58.80 213.92L60.18 219.87L65.69 221.48ZM60.18 219.87L58.80 213.92L53.29 212.31L49.16 216.64L50.55 222.59L56.05 224.20ZM72.56 206.87L71.18 200.92L65.67 199.30L61.54 203.64L62.92 209.59L68.43 211.20ZM84.97 260.40L83.59 254.46L78.09 252.84L73.96 257.16L75.34 263.10L80.84 264.72ZM75.34 263.10L73.96 257.16L68.46 255.54L64.34 259.87L65.72 265.81L71.22 267.43ZM87.72 250.13L86.34 244.18L80.84 242.56L76.71 246.89L78.09 252.84L83.59 254.46ZM78.09 252.84L76.71 246.89L71.21 245.27L67.08 249.60L68.46 255.54L73.96 257.16ZM94.60 257.70L93.23 251.75L87.72 250.13L83.59 254.46L84.97 260.40L90.47 262.02ZM58.83 258.25L57.45 252.31L51.95 250.69L47.83 255.02L49.21 260.96L54.71 262.58ZM49.21 260.96L47.83 255.02L42.33 253.41L38.22 257.74L39.60 263.67L45.10 265.29ZM61.58 247.98L60.20 242.04L54.69 240.42L50.57 244.75L51.95 250.69L57.45 252.31ZM51.95 250.69L50.57 244.75L45.07 243.14L40.95 247.47L42.33 253.41L47.83 255.02ZM68.46 255.54L67.08 249.60L61.58 247.98L57.45 252.31L58.83 258.25L64.34 259.87ZM100.12 237.15L98.74 231.20L93.23 229.58L89.10 233.91L90.48 239.86L95.98 241.48ZM90.48 239.86L89.10 233.91L83.59 232.29L79.46 236.62L80.84 242.56L86.34 244.18ZM102.88 226.87L101.50 220.92L95.99 219.30L91.85 223.63L93.23 229.58L98.74 231.20ZM93.23 229.58L91.85 223.63L86.34 222.01L82.21 226.34L83.59 232.29L89.10 233.91ZM107.00 244.73L105.63 238.78L100.12 237.15L95.98 241.48L97.36 247.43L102.87 249.05ZM97.36 247.43L95.98 241.48L90.48 239.86L86.34 244.18L87.72 250.13L93.23 251.75ZM109.76 234.45L108.39 228.50L102.88 226.87L98.74 231.20L100.12 237.15L105.63 238.78ZM6.61 254.02L5.23 248.08L-0.27 246.48L-4.38 250.81L-2.99 256.74L2.51 258.35ZM9.34 243.75L7.95 237.81L2.45 236.21L-1.66 240.54L-0.27 246.48L5.23 248.08ZM13.50 261.56L12.11 255.63L6.61 254.02L2.51 258.35L3.89 264.28L9.39 265.89ZM16.22 251.30L14.84 245.36L9.34 243.75L5.23 248.08L6.61 254.02L12.11 255.63ZM21.68 230.75L20.29 224.81L14.79 223.21L10.67 227.54L12.06 233.48L17.56 235.09ZM12.06 233.48L10.67 227.54L5.17 225.94L1.06 230.27L2.45 236.21L7.95 237.81ZM24.41 220.48L23.02 214.53L17.52 212.93L13.40 217.26L14.79 223.21L20.29 224.81ZM14.79 223.21L13.40 217.26L7.90 215.66L3.78 219.99L5.17 225.94L10.67 227.54ZM28.56 238.30L27.18 232.36L21.68 230.75L17.56 235.09L18.95 241.03L24.45 242.64ZM18.95 241.03L17.56 235.09L12.06 233.48L7.95 237.81L9.34 243.75L14.84 245.36ZM31.30 228.03L29.91 222.09L24.41 220.48L20.29 224.81L21.68 230.75L27.18 232.36ZM2.45 236.21L1.06 230.27L-4.44 228.67L-8.55 233.00L-7.16 238.94L-1.66 240.54ZM5.17 225.94L3.78 219.99L-1.72 218.39L-5.83 222.73L-4.44 228.67L1.06 230.27ZM32.72 256.12L31.33 250.18L25.83 248.57L21.72 252.90L23.10 258.84L28.60 260.45ZM23.10 258.84L21.72 252.90L16.22 251.30L12.11 255.63L13.50 261.56L18.99 263.17ZM35.45 245.86L34.06 239.91L28.56 238.30L24.45 242.64L25.83 248.57L31.33 250.18ZM25.83 248.57L24.45 242.64L18.95 241.03L14.84 245.36L16.22 251.30L21.72 252.90ZM42.33 253.41L40.95 247.47L35.45 245.86L31.33 250.18L32.72 256.12L38.22 257.74ZM93.24 162.98L91.86 157.02L86.34 155.40L82.20 159.74L83.58 165.70L89.10 167.32ZM83.58 165.70L82.20 159.74L76.68 158.12L72.55 162.47L73.93 168.42L79.44 170.04ZM96.01 152.67L94.63 146.71L89.10 145.09L84.96 149.44L86.34 155.40L91.86 157.02ZM86.34 155.40L84.96 149.44L79.44 147.82L75.30 152.16L76.68 158.12L82.20 159.74ZM100.14 170.56L98.76 164.60L93.24 162.98L89.10 167.32L90.48 173.28L96.00 174.90ZM90.48 173.28L89.10 167.32L83.58 165.70L79.44 170.04L80.83 176.00L86.34 177.62ZM102.91 160.26L101.53 154.29L96.01 152.67L91.86 157.02L93.24 162.98L98.76 164.60ZM67.03 160.85L65.64 154.89L60.13 153.28L55.99 157.62L57.38 163.58L62.89 165.19ZM57.38 163.58L55.99 157.62L50.47 156.01L46.34 160.36L47.73 166.31L53.24 167.92ZM69.78 150.55L68.40 144.59L62.88 142.98L58.74 147.32L60.13 153.28L65.64 154.89ZM60.13 153.28L58.74 147.32L53.22 145.71L49.09 150.06L50.47 156.01L55.99 157.62ZM73.93 168.42L72.55 162.47L67.03 160.85L62.89 165.19L64.28 171.15L69.79 172.76ZM64.28 171.15L62.89 165.19L57.38 163.58L53.24 167.92L54.63 173.88L60.14 175.49ZM76.68 158.12L75.30 152.16L69.78 150.55L65.64 154.89L67.03 160.85L72.55 162.47ZM108.44 139.65L107.06 133.68L101.54 132.06L97.39 136.40L98.77 142.37L104.29 143.99ZM98.77 142.37L97.39 136.40L91.87 134.79L87.72 139.13L89.10 145.09L94.63 146.71ZM111.21 129.33L109.83 123.37L104.31 121.75L100.16 126.09L101.54 132.06L107.06 133.68ZM101.54 132.06L100.16 126.09L94.63 124.47L90.48 128.82L91.87 134.79L97.39 136.40ZM115.35 147.23L113.97 141.27L108.44 139.65L104.29 143.99L105.67 149.95L111.20 151.57ZM105.67 149.95L104.29 143.99L98.77 142.37L94.63 146.71L96.01 152.67L101.53 154.29ZM118.12 136.92L116.74 130.96L111.21 129.33L107.06 133.68L108.44 139.65L113.97 141.27ZM82.20 137.51L80.82 131.55L75.29 129.94L71.15 134.28L72.54 140.24L78.06 141.86ZM72.54 140.24L71.15 134.28L65.63 132.67L61.49 137.02L62.88 142.98L68.40 144.59ZM84.96 127.20L83.58 121.24L78.05 119.62L73.91 123.97L75.29 129.94L80.82 131.55ZM75.29 129.94L73.91 123.97L68.38 122.36L64.25 126.71L65.63 132.67L71.15 134.28ZM89.10 145.09L87.72 139.13L82.20 137.51L78.06 141.86L79.44 147.82L84.96 149.44ZM79.44 147.82L78.06 141.86L72.54 140.24L68.40 144.59L69.78 150.55L75.30 152.16ZM91.87 134.79L90.48 128.82L84.96 127.20L80.82 131.55L82.20 137.51L87.72 139.13ZM104.27 188.43L102.90 182.48L97.38 180.85L93.24 185.19L94.62 191.15L100.13 192.77ZM94.62 191.15L93.24 185.19L87.72 183.57L83.59 187.91L84.96 193.86L90.48 195.48ZM107.04 178.14L105.66 172.18L100.14 170.56L96.00 174.90L97.38 180.85L102.90 182.48ZM97.38 180.85L96.00 174.90L90.48 173.28L86.34 177.62L87.72 183.57L93.24 185.19ZM111.17 196.02L109.79 190.06L104.27 188.43L100.13 192.77L101.51 198.73L107.03 200.35ZM101.51 198.73L100.13 192.77L94.62 191.15L90.48 195.48L91.86 201.44L97.37 203.06ZM113.93 185.72L112.56 179.76L107.04 178.14L102.90 182.48L104.27 188.43L109.79 190.06ZM78.07 186.29L76.69 180.34L71.17 178.72L67.04 183.06L68.42 189.01L73.94 190.63ZM68.42 189.01L67.04 183.06L61.53 181.44L57.40 185.78L58.78 191.74L64.29 193.35ZM80.83 176.00L79.44 170.04L73.93 168.42L69.79 172.76L71.17 178.72L76.69 180.34ZM71.17 178.72L69.79 172.76L64.28 171.15L60.14 175.49L61.53 181.44L67.04 183.06ZM84.96 193.86L83.59 187.91L78.07 186.29L73.94 190.63L75.32 196.58L80.83 198.20ZM75.32 196.58L73.94 190.63L68.42 189.01L64.29 193.35L65.67 199.30L71.18 200.92ZM87.72 183.57L86.34 177.62L80.83 176.00L76.69 180.34L78.07 186.29L83.59 187.91ZM119.47 165.13L118.10 159.16L112.57 157.54L108.43 161.88L109.81 167.84L115.33 169.46ZM109.81 167.84L108.43 161.88L102.91 160.26L98.76 164.60L100.14 170.56L105.66 172.18ZM122.25 154.82L120.87 148.86L115.35 147.23L111.20 151.57L112.57 157.54L118.10 159.16ZM112.57 157.54L111.20 151.57L105.67 149.95L101.53 154.29L102.91 160.26L108.43 161.88ZM126.37 172.71L125.00 166.75L119.47 165.13L115.33 169.46L116.70 175.43L122.22 177.05ZM116.70 175.43L115.33 169.46L109.81 167.84L105.66 172.18L107.04 178.14L112.56 179.76ZM129.15 162.41L127.77 156.45L122.25 154.82L118.10 159.16L119.47 165.13L125.00 166.75ZM25.71 182.07L24.32 176.12L18.81 174.52L14.69 178.86L16.08 184.81L21.59 186.41ZM16.08 184.81L14.69 178.86L9.18 177.26L5.07 181.60L6.46 187.55L11.96 189.15ZM28.45 171.78L27.06 165.83L21.55 164.22L17.43 168.57L18.81 174.52L24.32 176.12ZM18.81 174.52L17.43 168.57L11.91 166.96L7.79 171.31L9.18 177.26L14.69 178.86ZM32.61 189.63L31.22 183.68L25.71 182.07L21.59 186.41L22.98 192.36L28.49 193.97ZM22.98 192.36L21.59 186.41L16.08 184.81L11.96 189.15L13.35 195.09L18.86 196.70ZM35.35 179.34L33.96 173.39L28.45 171.78L24.32 176.12L25.71 182.07L31.22 183.68ZM2.28 169.71L0.89 163.76L-4.62 162.16L-8.73 166.50L-7.34 172.45L-1.83 174.05ZM6.46 187.55L5.07 181.60L-0.44 180.00L-4.56 184.34L-3.17 190.28L2.34 191.89ZM9.18 177.26L7.79 171.31L2.28 169.71L-1.83 174.05L-0.44 180.00L5.07 181.60ZM40.83 158.75L39.44 152.79L33.93 151.19L29.80 155.53L31.19 161.48L36.70 163.09ZM31.19 161.48L29.80 155.53L24.28 153.93L20.16 158.27L21.55 164.22L27.06 165.83ZM43.57 148.45L42.18 142.49L36.67 140.88L32.54 145.23L33.93 151.19L39.44 152.79ZM33.93 151.19L32.54 145.23L27.02 143.62L22.89 147.97L24.28 153.93L29.80 155.53ZM47.73 166.31L46.34 160.36L40.83 158.75L36.70 163.09L38.09 169.04L43.60 170.65ZM38.09 169.04L36.70 163.09L31.19 161.48L27.06 165.83L28.45 171.78L33.96 173.39ZM50.47 156.01L49.09 150.06L43.57 148.45L39.44 152.79L40.83 158.75L46.34 160.36ZM14.65 156.67L13.26 150.72L7.74 149.11L3.62 153.46L5.01 159.41L10.52 161.01ZM5.01 159.41L3.62 153.46L-1.89 151.86L-6.01 156.21L-4.62 162.16L0.89 163.76ZM17.38 146.37L15.99 140.41L10.47 138.81L6.35 143.16L7.74 149.11L13.26 150.72ZM7.74 149.11L6.35 143.16L0.84 141.56L-3.28 145.91L-1.89 151.86L3.62 153.46ZM21.55 164.22L20.16 158.27L14.65 156.67L10.52 161.01L11.91 166.96L17.43 168.57ZM11.91 166.96L10.52 161.01L5.01 159.41L0.89 163.76L2.28 169.71L7.79 171.31ZM24.28 153.93L22.89 147.97L17.38 146.37L13.26 150.72L14.65 156.67L20.16 158.27ZM36.77 207.47L35.38 201.52L29.87 199.92L25.75 204.25L27.14 210.20L32.64 211.81ZM27.14 210.20L25.75 204.25L20.25 202.65L16.13 206.98L17.52 212.93L23.02 214.53ZM39.50 197.19L38.12 191.24L32.61 189.63L28.49 193.97L29.87 199.92L35.38 201.52ZM29.87 199.92L28.49 193.97L22.98 192.36L18.86 196.70L20.25 202.65L25.75 204.25ZM43.66 215.03L42.27 209.08L36.77 207.47L32.64 211.81L34.03 217.75L39.54 219.36ZM34.03 217.75L32.64 211.81L27.14 210.20L23.02 214.53L24.41 220.48L29.91 222.09ZM46.40 204.75L45.01 198.80L39.50 197.19L35.38 201.52L36.77 207.47L42.27 209.08ZM10.62 205.38L9.24 199.43L3.73 197.83L-0.38 202.17L1.01 208.11L6.51 209.72ZM1.01 208.11L-0.38 202.17L-5.89 200.57L-10.00 204.91L-8.61 210.85L-3.11 212.45ZM13.35 195.09L11.96 189.15L6.46 187.55L2.34 191.89L3.73 197.83L9.24 199.43ZM3.73 197.83L2.34 191.89L-3.17 190.28L-7.28 194.63L-5.89 200.57L-0.38 202.17ZM17.52 212.93L16.13 206.98L10.62 205.38L6.51 209.72L7.90 215.66L13.40 217.26ZM7.90 215.66L6.51 209.72L1.01 208.11L-3.11 212.45L-1.72 218.39L3.78 219.99ZM20.25 202.65L18.86 196.70L13.35 195.09L9.24 199.43L10.62 205.38L16.13 206.98ZM51.88 184.17L50.50 178.22L44.99 176.61L40.86 180.95L42.24 186.90L47.76 188.51ZM42.24 186.90L40.86 180.95L35.35 179.34L31.22 183.68L32.61 189.63L38.12 191.24ZM54.63 173.88L53.24 167.92L47.73 166.31L43.60 170.65L44.99 176.61L50.50 178.22ZM44.99 176.61L43.60 170.65L38.09 169.04L33.96 173.39L35.35 179.34L40.86 180.95ZM58.78 191.74L57.40 185.78L51.88 184.17L47.76 188.51L49.14 194.46L54.65 196.07ZM49.14 194.46L47.76 188.51L42.24 186.90L38.12 191.24L39.50 197.19L45.01 198.80ZM61.53 181.44L60.14 175.49L54.63 173.88L50.50 178.22L51.88 184.17L57.40 185.78ZM113.88 252.30L112.51 246.35L107.00 244.73L102.87 249.05L104.24 255.00L109.75 256.63ZM104.24 255.00L102.87 249.05L97.36 247.43L93.23 251.75L94.60 257.70L100.11 259.32ZM120.76 259.88L119.39 253.93L113.88 252.30L109.75 256.63L111.12 262.57L116.63 264.20ZM141.50 216.07L140.13 210.11L134.61 208.48L130.47 212.81L131.84 218.77L137.35 220.40ZM131.84 218.77L130.47 212.81L124.95 211.18L120.81 215.51L122.18 221.47L127.69 223.10ZM144.28 205.78L142.91 199.82L137.39 198.19L133.24 202.52L134.61 208.48L140.13 210.11ZM134.61 208.48L133.24 202.52L127.72 200.89L123.58 205.22L124.95 211.18L130.47 212.81ZM148.39 223.66L147.02 217.70L141.50 216.07L137.35 220.40L138.72 226.35L144.24 227.98ZM138.72 226.35L137.35 220.40L131.84 218.77L127.69 223.10L129.07 229.05L134.58 230.68ZM151.17 213.37L149.80 207.41L144.28 205.78L140.13 210.11L141.50 216.07L147.02 217.70ZM115.29 213.89L113.92 207.93L108.40 206.31L104.26 210.64L105.64 216.59L111.15 218.22ZM105.64 216.59L104.26 210.64L98.75 209.01L94.61 213.35L95.99 219.30L101.50 220.92ZM118.06 203.60L116.68 197.64L111.17 196.02L107.03 200.35L108.40 206.31L113.92 207.93ZM108.40 206.31L107.03 200.35L101.51 198.73L97.37 203.06L98.75 209.01L104.26 210.64ZM122.18 221.47L120.81 215.51L115.29 213.89L111.15 218.22L112.53 224.17L118.04 225.80ZM112.53 224.17L111.15 218.22L105.64 216.59L101.50 220.92L102.88 226.87L108.39 228.50ZM124.95 211.18L123.58 205.22L118.06 203.60L113.92 207.93L115.29 213.89L120.81 215.51ZM156.73 192.79L155.36 186.82L149.84 185.19L145.68 189.53L147.06 195.49L152.58 197.12ZM147.06 195.49L145.68 189.53L140.16 187.90L136.01 192.23L137.39 198.19L142.91 199.82ZM159.51 182.49L158.14 176.53L152.62 174.89L148.47 179.23L149.84 185.19L155.36 186.82ZM149.84 185.19L148.47 179.23L142.94 177.60L138.79 181.93L140.16 187.90L145.68 189.53ZM163.62 200.39L162.25 194.42L156.73 192.79L152.58 197.12L153.95 203.08L159.47 204.72ZM153.95 203.08L152.58 197.12L147.06 195.49L142.91 199.82L144.28 205.78L149.80 207.41ZM166.41 190.09L165.04 184.13L159.51 182.49L155.36 186.82L156.73 192.79L162.25 194.42ZM130.49 190.60L129.12 184.64L123.60 183.01L119.45 187.35L120.83 193.31L126.35 194.93ZM120.83 193.31L119.45 187.35L113.93 185.72L109.79 190.06L111.17 196.02L116.68 197.64ZM133.27 180.30L131.89 174.34L126.37 172.71L122.22 177.05L123.60 183.01L129.12 184.64ZM123.60 183.01L122.22 177.05L116.70 175.43L112.56 179.76L113.93 185.72L119.45 187.35ZM137.39 198.19L136.01 192.23L130.49 190.60L126.35 194.93L127.72 200.89L133.24 202.52ZM127.72 200.89L126.35 194.93L120.83 193.31L116.68 197.64L118.06 203.60L123.58 205.22ZM140.16 187.90L138.79 181.93L133.27 180.30L129.12 184.64L130.49 190.60L136.01 192.23ZM142.83 244.22L141.46 238.27L135.95 236.64L131.81 240.96L133.18 246.91L138.69 248.54ZM145.61 233.94L144.24 227.98L138.72 226.35L134.58 230.68L135.95 236.64L141.46 238.27ZM126.30 239.33L124.92 233.38L119.41 231.75L115.27 236.08L116.65 242.03L122.16 243.65ZM116.65 242.03L115.27 236.08L109.76 234.45L105.63 238.78L107.00 244.73L112.51 246.35ZM129.07 229.05L127.69 223.10L122.18 221.47L118.04 225.80L119.41 231.75L124.92 233.38ZM119.41 231.75L118.04 225.80L112.53 224.17L108.39 228.50L109.76 234.45L115.27 236.08ZM123.53 249.61L122.16 243.65L116.65 242.03L112.51 246.35L113.88 252.30L119.39 253.93ZM135.95 236.64L134.58 230.68L129.07 229.05L124.92 233.38L126.30 239.33L131.81 240.96ZM167.72 218.27L166.36 212.31L160.84 210.68L156.68 215.01L158.05 220.97L163.57 222.60ZM158.05 220.97L156.68 215.01L151.17 213.37L147.02 217.70L148.39 223.66L153.90 225.29ZM170.51 207.99L169.14 202.02L163.62 200.39L159.47 204.72L160.84 210.68L166.36 212.31ZM160.84 210.68L159.47 204.72L153.95 203.08L149.80 207.41L151.17 213.37L156.68 215.01ZM174.61 225.87L173.24 219.91L167.72 218.27L163.57 222.60L164.94 228.56L170.46 230.20ZM164.94 228.56L163.57 222.60L158.05 220.97L153.90 225.29L155.27 231.25L160.79 232.88ZM177.40 215.59L176.03 209.62L170.51 207.99L166.36 212.31L167.72 218.27L173.24 219.91ZM180.55 71.71L179.18 65.73L173.64 64.09L169.46 68.45L170.84 74.43L176.38 76.06ZM170.84 74.43L169.46 68.45L163.92 66.82L159.75 71.17L161.12 77.15L166.66 78.78ZM187.47 79.33L186.10 73.35L180.55 71.71L176.38 76.06L177.75 82.05L183.29 83.68ZM177.75 82.05L176.38 76.06L170.84 74.43L166.66 78.78L168.04 84.76L173.58 86.39ZM144.50 72.27L143.12 66.29L137.58 64.66L133.42 69.02L134.79 74.99L140.33 76.62ZM161.12 77.15L159.75 71.17L154.21 69.54L150.04 73.89L151.41 79.87L156.95 81.50ZM151.41 79.87L150.04 73.89L144.50 72.27L140.33 76.62L141.71 82.60L147.25 84.23ZM202.81 55.94L201.44 49.95L195.89 48.31L191.71 52.67L193.08 58.66L198.63 60.29ZM191.57 97.28L190.21 91.30L184.66 89.66L180.49 94.01L181.86 99.99L187.40 101.63ZM181.86 99.99L180.49 94.01L174.95 92.38L170.78 96.72L172.15 102.70L177.69 104.34ZM194.38 86.95L193.01 80.97L187.47 79.33L183.29 83.68L184.66 89.66L190.21 91.30ZM184.66 89.66L183.29 83.68L177.75 82.05L173.58 86.39L174.95 92.38L180.49 94.01ZM198.48 104.90L197.12 98.92L191.57 97.28L187.40 101.63L188.77 107.61L194.31 109.24ZM188.77 107.61L187.40 101.63L181.86 99.99L177.69 104.34L179.06 110.32L184.60 111.95ZM201.29 94.57L199.92 88.59L194.38 86.95L190.21 91.30L191.57 97.28L197.12 98.92ZM165.24 95.09L163.87 89.11L158.33 87.48L154.16 91.83L155.54 97.81L161.07 99.44ZM155.54 97.81L154.16 91.83L148.62 90.20L144.46 94.55L145.84 100.53L151.37 102.16ZM168.04 84.76L166.66 78.78L161.12 77.15L156.95 81.50L158.33 87.48L163.87 89.11ZM158.33 87.48L156.95 81.50L151.41 79.87L147.25 84.23L148.62 90.20L154.16 91.83ZM172.15 102.70L170.78 96.72L165.24 95.09L161.07 99.44L162.45 105.42L167.98 107.05ZM162.45 105.42L161.07 99.44L155.54 97.81L151.37 102.16L152.75 108.13L158.28 109.76ZM174.95 92.38L173.58 86.39L168.04 84.76L163.87 89.11L165.24 95.09L170.78 96.72ZM206.91 73.91L205.55 67.92L200.00 66.28L195.82 70.63L197.19 76.62L202.73 78.25ZM197.19 76.62L195.82 70.63L190.27 68.99L186.10 73.35L187.47 79.33L193.01 80.97ZM209.73 63.57L208.36 57.58L202.81 55.94L198.63 60.29L200.00 66.28L205.55 67.92ZM200.00 66.28L198.63 60.29L193.08 58.66L188.90 63.01L190.27 68.99L195.82 70.63ZM213.83 81.53L212.46 75.54L206.91 73.91L202.73 78.25L204.10 84.24L209.65 85.88ZM204.10 84.24L202.73 78.25L197.19 76.62L193.01 80.97L194.38 86.95L199.92 88.59ZM216.64 71.20L215.28 65.21L209.73 63.57L205.55 67.92L206.91 73.91L212.46 75.54ZM112.62 90.78L111.24 84.81L105.71 83.19L101.56 87.54L102.94 93.52L108.47 95.14ZM102.94 93.52L101.56 87.54L96.02 85.93L91.87 90.28L93.25 96.25L98.78 97.87ZM115.40 80.46L114.02 74.48L108.48 72.86L104.33 77.22L105.71 83.19L111.24 84.81ZM105.71 83.19L104.33 77.22L98.79 75.60L94.64 79.95L96.02 85.93L101.56 87.54ZM119.54 98.38L118.16 92.41L112.62 90.78L108.47 95.14L109.85 101.11L115.38 102.73ZM109.85 101.11L108.47 95.14L102.94 93.52L98.78 97.87L100.17 103.84L105.70 105.46ZM122.31 88.05L120.94 82.08L115.40 80.46L111.24 84.81L112.62 90.78L118.16 92.41ZM86.34 88.66L84.96 82.69L79.42 81.08L75.28 85.44L76.66 91.40L82.19 93.02ZM76.66 91.40L75.28 85.44L69.75 83.82L65.60 88.18L66.99 94.15L72.52 95.76ZM89.11 78.34L87.72 72.37L82.19 70.75L78.04 75.11L79.42 81.08L84.96 82.69ZM79.42 81.08L78.04 75.11L72.51 73.50L68.36 77.85L69.75 83.82L75.28 85.44ZM93.25 96.25L91.87 90.28L86.34 88.66L82.19 93.02L83.57 98.99L89.10 100.60ZM83.57 98.99L82.19 93.02L76.66 91.40L72.52 95.76L73.90 101.73L79.43 103.34ZM96.02 85.93L94.64 79.95L89.11 78.34L84.96 82.69L86.34 88.66L91.87 90.28ZM134.79 74.99L133.42 69.02L127.88 67.39L123.72 71.75L125.09 77.72L130.63 79.35ZM125.09 77.72L123.72 71.75L118.18 70.13L114.02 74.48L115.40 80.46L120.94 82.08ZM108.48 72.86L107.10 66.89L101.56 65.27L97.41 69.62L98.79 75.60L104.33 77.22ZM98.79 75.60L97.41 69.62L91.87 68.01L87.72 72.37L89.11 78.34L94.64 79.95ZM123.67 116.29L122.29 110.32L116.76 108.70L112.61 113.05L113.99 119.02L119.52 120.64ZM113.99 119.02L112.61 113.05L107.08 111.43L102.93 115.78L104.31 121.75L109.83 123.37ZM126.45 105.98L125.07 100.00L119.54 98.38L115.38 102.73L116.76 108.70L122.29 110.32ZM116.76 108.70L115.38 102.73L109.85 101.11L105.70 105.46L107.08 111.43L112.61 113.05ZM130.58 123.89L129.20 117.92L123.67 116.29L119.52 120.64L120.89 126.61L126.42 128.24ZM120.89 126.61L119.52 120.64L113.99 119.02L109.83 123.37L111.21 129.33L116.74 130.96ZM133.36 113.57L131.98 107.60L126.45 105.98L122.29 110.32L123.67 116.29L129.20 117.92ZM97.40 114.16L96.02 108.19L90.49 106.57L86.34 110.92L87.72 116.89L93.25 118.51ZM87.72 116.89L86.34 110.92L80.81 109.31L76.67 113.66L78.05 119.62L83.58 121.24ZM100.17 103.84L98.78 97.87L93.25 96.25L89.10 100.60L90.49 106.57L96.02 108.19ZM90.49 106.57L89.10 100.60L83.57 98.99L79.43 103.34L80.81 109.31L86.34 110.92ZM104.31 121.75L102.93 115.78L97.40 114.16L93.25 118.51L94.63 124.47L100.16 126.09ZM94.63 124.47L93.25 118.51L87.72 116.89L83.58 121.24L84.96 127.20L90.48 128.82ZM107.08 111.43L105.70 105.46L100.17 103.84L96.02 108.19L97.40 114.16L102.93 115.78ZM138.92 92.93L137.55 86.95L132.01 85.32L127.85 89.68L129.23 95.65L134.76 97.28ZM129.23 95.65L127.85 89.68L122.31 88.05L118.16 92.41L119.54 98.38L125.07 100.00ZM141.71 82.60L140.33 76.62L134.79 74.99L130.63 79.35L132.01 85.32L137.55 86.95ZM132.01 85.32L130.63 79.35L125.09 77.72L120.94 82.08L122.31 88.05L127.85 89.68ZM145.84 100.53L144.46 94.55L138.92 92.93L134.76 97.28L136.14 103.25L141.67 104.88ZM136.14 103.25L134.76 97.28L129.23 95.65L125.07 100.00L126.45 105.98L131.98 107.60ZM148.62 90.20L147.25 84.23L141.71 82.60L137.55 86.95L138.92 92.93L144.46 94.55ZM228.92 125.07L227.56 119.09L222.02 117.44L217.84 121.78L219.20 127.77L224.74 129.41ZM219.20 127.77L217.84 121.78L212.30 120.14L208.12 124.48L209.49 130.46L215.03 132.10ZM231.74 114.75L230.38 108.76L224.83 107.12L220.65 111.46L222.02 117.44L227.56 119.09ZM222.02 117.44L220.65 111.46L215.11 109.82L210.93 114.16L212.30 120.14L217.84 121.78ZM235.82 132.70L234.46 126.72L228.92 125.07L224.74 129.41L226.11 135.39L231.65 137.04ZM226.11 135.39L224.74 129.41L219.20 127.77L215.03 132.10L216.39 138.08L221.93 139.73ZM238.64 122.38L237.28 116.39L231.74 114.75L227.56 119.09L228.92 125.07L234.46 126.72ZM202.58 122.84L201.22 116.86L195.68 115.22L191.51 119.57L192.87 125.54L198.41 127.18ZM192.87 125.54L191.51 119.57L185.97 117.93L181.80 122.27L183.17 128.25L188.70 129.89ZM205.39 112.52L204.03 106.54L198.48 104.90L194.31 109.24L195.68 115.22L201.22 116.86ZM195.68 115.22L194.31 109.24L188.77 107.61L184.60 111.95L185.97 117.93L191.51 119.57ZM209.49 130.46L208.12 124.48L202.58 122.84L198.41 127.18L199.78 133.16L205.32 134.80ZM199.78 133.16L198.41 127.18L192.87 125.54L188.70 129.89L190.07 135.86L195.61 137.50ZM212.30 120.14L210.93 114.16L205.39 112.52L201.22 116.86L202.58 122.84L208.12 124.48ZM244.29 101.73L242.93 95.74L237.38 94.09L233.20 98.43L234.56 104.42L240.10 106.07ZM234.56 104.42L233.20 98.43L227.65 96.79L223.47 101.13L224.83 107.12L230.38 108.76ZM247.12 91.39L245.75 85.40L240.20 83.76L236.02 88.10L237.38 94.09L242.93 95.74ZM237.38 94.09L236.02 88.10L230.47 86.46L226.29 90.80L227.65 96.79L233.20 98.43ZM251.20 109.36L249.84 103.37L244.29 101.73L240.10 106.07L241.47 112.05L247.01 113.70ZM241.47 112.05L240.10 106.07L234.56 104.42L230.38 108.76L231.74 114.75L237.28 116.39ZM254.02 99.03L252.66 93.04L247.12 91.39L242.93 95.74L244.29 101.73L249.84 103.37ZM217.92 99.49L216.56 93.51L211.01 91.87L206.84 96.21L208.20 102.19L213.75 103.83ZM208.20 102.19L206.84 96.21L201.29 94.57L197.12 98.92L198.48 104.90L204.03 106.54ZM220.74 89.16L219.37 83.17L213.83 81.53L209.65 85.88L211.01 91.87L216.56 93.51ZM211.01 91.87L209.65 85.88L204.10 84.24L199.92 88.59L201.29 94.57L206.84 96.21ZM224.83 107.12L223.47 101.13L217.92 99.49L213.75 103.83L215.11 109.82L220.65 111.46ZM215.11 109.82L213.75 103.83L208.20 102.19L204.03 106.54L205.39 112.52L210.93 114.16ZM227.65 96.79L226.29 90.80L220.74 89.16L216.56 93.51L217.92 99.49L223.47 101.13ZM239.91 150.64L238.55 144.66L233.01 143.02L228.83 147.35L230.19 153.33L235.73 154.98ZM230.19 153.33L228.83 147.35L223.29 145.71L219.12 150.04L220.48 156.02L226.01 157.66ZM242.73 140.33L241.37 134.35L235.82 132.70L231.65 137.04L233.01 143.02L238.55 144.66ZM233.01 143.02L231.65 137.04L226.11 135.39L221.93 139.73L223.29 145.71L228.83 147.35ZM246.80 158.27L245.44 152.29L239.91 150.64L235.73 154.98L237.09 160.96L242.62 162.60ZM237.09 160.96L235.73 154.98L230.19 153.33L226.01 157.66L227.38 163.64L232.91 165.29ZM249.62 147.96L248.27 141.98L242.73 140.33L238.55 144.66L239.91 150.64L245.44 152.29ZM213.58 148.40L212.22 142.42L206.68 140.78L202.51 145.12L203.87 151.09L209.41 152.73ZM203.87 151.09L202.51 145.12L196.97 143.48L192.81 147.81L194.17 153.79L199.70 155.43ZM216.39 138.08L215.03 132.10L209.49 130.46L205.32 134.80L206.68 140.78L212.22 142.42ZM206.68 140.78L205.32 134.80L199.78 133.16L195.61 137.50L196.97 143.48L202.51 145.12ZM220.48 156.02L219.12 150.04L213.58 148.40L209.41 152.73L210.77 158.71L216.31 160.35ZM210.77 158.71L209.41 152.73L203.87 151.09L199.70 155.43L201.07 161.40L206.60 163.04ZM223.29 145.71L221.93 139.73L216.39 138.08L212.22 142.42L213.58 148.40L219.12 150.04ZM255.27 127.32L253.92 121.34L248.37 119.69L244.19 124.03L245.55 130.01L251.09 131.66ZM245.55 130.01L244.19 124.03L238.64 122.38L234.46 126.72L235.82 132.70L241.37 134.35ZM258.10 117.00L256.74 111.01L251.20 109.36L247.01 113.70L248.37 119.69L253.92 121.34ZM248.37 119.69L247.01 113.70L241.47 112.05L237.28 116.39L238.64 122.38L244.19 124.03ZM262.18 134.96L260.82 128.97L255.27 127.32L251.09 131.66L252.45 137.64L257.99 139.29ZM252.45 137.64L251.09 131.66L245.55 130.01L241.37 134.35L242.73 140.33L248.27 141.98ZM265.01 124.64L263.65 118.65L258.10 117.00L253.92 121.34L255.27 127.32L260.82 128.97ZM160.98 143.98L159.61 138.00L154.08 136.37L149.92 140.71L151.29 146.68L156.82 148.32ZM151.29 146.68L149.92 140.71L144.39 139.09L140.23 143.43L141.60 149.40L147.13 151.02ZM163.77 133.66L162.40 127.69L156.86 126.06L152.70 130.40L154.08 136.37L159.61 138.00ZM154.08 136.37L152.70 130.40L147.17 128.77L143.01 133.11L144.39 139.09L149.92 140.71ZM167.88 151.58L166.51 145.61L160.98 143.98L156.82 148.32L158.19 154.29L163.72 155.92ZM158.19 154.29L156.82 148.32L151.29 146.68L147.13 151.02L148.50 156.99L154.03 158.62ZM170.67 141.27L169.30 135.30L163.77 133.66L159.61 138.00L160.98 143.98L166.51 145.61ZM134.70 141.80L133.33 135.83L127.80 134.20L123.65 138.55L125.02 144.52L130.55 146.14ZM125.02 144.52L123.65 138.55L118.12 136.92L113.97 141.27L115.35 147.23L120.87 148.86ZM137.48 131.49L136.11 125.52L130.58 123.89L126.42 128.24L127.80 134.20L133.33 135.83ZM127.80 134.20L126.42 128.24L120.89 126.61L116.74 130.96L118.12 136.92L123.65 138.55ZM141.60 149.40L140.23 143.43L134.70 141.80L130.55 146.14L131.92 152.11L137.45 153.74ZM131.92 152.11L130.55 146.14L125.02 144.52L120.87 148.86L122.25 154.82L127.77 156.45ZM144.39 139.09L143.01 133.11L137.48 131.49L133.33 135.83L134.70 141.80L140.23 143.43ZM176.26 120.64L174.89 114.66L169.36 113.03L165.19 117.37L166.56 123.35L172.10 124.98ZM166.56 123.35L165.19 117.37L159.65 115.74L155.49 120.08L156.86 126.06L162.40 127.69ZM179.06 110.32L177.69 104.34L172.15 102.70L167.98 107.05L169.36 113.03L174.89 114.66ZM169.36 113.03L167.98 107.05L162.45 105.42L158.28 109.76L159.65 115.74L165.19 117.37ZM183.17 128.25L181.80 122.27L176.26 120.64L172.10 124.98L173.47 130.96L179.00 132.59ZM173.47 130.96L172.10 124.98L166.56 123.35L162.40 127.69L163.77 133.66L169.30 135.30ZM185.97 117.93L184.60 111.95L179.06 110.32L174.89 114.66L176.26 120.64L181.80 122.27ZM149.96 118.45L148.58 112.48L143.05 110.85L138.89 115.20L140.27 121.17L145.80 122.80ZM140.27 121.17L138.89 115.20L133.36 113.57L129.20 117.92L130.58 123.89L136.11 125.52ZM152.75 108.13L151.37 102.16L145.84 100.53L141.67 104.88L143.05 110.85L148.58 112.48ZM143.05 110.85L141.67 104.88L136.14 103.25L131.98 107.60L133.36 113.57L138.89 115.20ZM156.86 126.06L155.49 120.08L149.96 118.45L145.80 122.80L147.17 128.77L152.70 130.40ZM147.17 128.77L145.80 122.80L140.27 121.17L136.11 125.52L137.48 131.49L143.01 133.11ZM159.65 115.74L158.28 109.76L152.75 108.13L148.58 112.48L149.96 118.45L155.49 120.08ZM171.99 169.49L170.62 163.52L165.09 161.89L160.93 166.22L162.30 172.19L167.83 173.83ZM162.30 172.19L160.93 166.22L155.40 164.59L151.25 168.93L152.62 174.89L158.14 176.53ZM174.78 159.19L173.41 153.21L167.88 151.58L163.72 155.92L165.09 161.89L170.62 163.52ZM165.09 161.89L163.72 155.92L158.19 154.29L154.03 158.62L155.40 164.59L160.93 166.22ZM178.88 177.10L177.51 171.13L171.99 169.49L167.83 173.83L169.20 179.79L174.72 181.43ZM169.20 179.79L167.83 173.83L162.30 172.19L158.14 176.53L159.51 182.49L165.04 184.13ZM181.68 166.79L180.31 160.82L174.78 159.19L170.62 163.52L171.99 169.49L177.51 171.13ZM145.72 167.30L144.35 161.33L138.82 159.70L134.67 164.04L136.04 170.01L141.57 171.63ZM136.04 170.01L134.67 164.04L129.15 162.41L125.00 166.75L126.37 172.71L131.89 174.34ZM148.50 156.99L147.13 151.02L141.60 149.40L137.45 153.74L138.82 159.70L144.35 161.33ZM138.82 159.70L137.45 153.74L131.92 152.11L127.77 156.45L129.15 162.41L134.67 164.04ZM152.62 174.89L151.25 168.93L145.72 167.30L141.57 171.63L142.94 177.60L148.47 179.23ZM142.94 177.60L141.57 171.63L136.04 170.01L131.89 174.34L133.27 180.30L138.79 181.93ZM155.40 164.59L154.03 158.62L148.50 156.99L144.35 161.33L145.72 167.30L151.25 168.93ZM187.27 146.18L185.90 140.20L180.37 138.57L176.20 142.90L177.57 148.88L183.11 150.51ZM177.57 148.88L176.20 142.90L170.67 141.27L166.51 145.61L167.88 151.58L173.41 153.21ZM190.07 135.86L188.70 129.89L183.17 128.25L179.00 132.59L180.37 138.57L185.90 140.20ZM180.37 138.57L179.00 132.59L173.47 130.96L169.30 135.30L170.67 141.27L176.20 142.90ZM194.17 153.79L192.81 147.81L187.27 146.18L183.11 150.51L184.47 156.49L190.00 158.12ZM184.47 156.49L183.11 150.51L177.57 148.88L173.41 153.21L174.78 159.19L180.31 160.82ZM196.97 143.48L195.61 137.50L190.07 135.86L185.90 140.20L187.27 146.18L192.81 147.81ZM238.94 55.44L237.58 49.45L232.02 47.80L227.83 52.15L229.20 58.15L234.75 59.79ZM255.60 60.38L254.24 54.38L248.69 52.74L244.50 57.08L245.86 63.08L251.41 64.73ZM245.86 63.08L244.50 57.08L238.94 55.44L234.75 59.79L236.12 65.78L241.67 67.43ZM229.20 58.15L227.83 52.15L222.28 50.51L218.09 54.86L219.46 60.86L225.01 62.50ZM219.46 60.86L218.09 54.86L212.54 53.22L208.36 57.58L209.73 63.57L215.28 65.21ZM259.69 78.36L258.33 72.37L252.77 70.72L248.58 75.07L249.94 81.06L255.49 82.71ZM249.94 81.06L248.58 75.07L243.03 73.42L238.84 77.77L240.20 83.76L245.75 85.40ZM262.52 68.02L261.16 62.03L255.60 60.38L251.41 64.73L252.77 70.72L258.33 72.37ZM252.77 70.72L251.41 64.73L245.86 63.08L241.67 67.43L243.03 73.42L248.58 75.07ZM266.60 86.01L265.24 80.01L259.69 78.36L255.49 82.71L256.85 88.70L262.41 90.35ZM256.85 88.70L255.49 82.71L249.94 81.06L245.75 85.40L247.12 91.39L252.66 93.04ZM233.29 76.12L231.93 70.13L226.38 68.49L222.19 72.84L223.56 78.83L229.11 80.47ZM223.56 78.83L222.19 72.84L216.64 71.20L212.46 75.54L213.83 81.53L219.37 83.17ZM236.12 65.78L234.75 59.79L229.20 58.15L225.01 62.50L226.38 68.49L231.93 70.13ZM226.38 68.49L225.01 62.50L219.46 60.86L215.28 65.21L216.64 71.20L222.19 72.84ZM240.20 83.76L238.84 77.77L233.29 76.12L229.11 80.47L230.47 86.46L236.02 88.10ZM230.47 86.46L229.11 80.47L223.56 78.83L219.37 83.17L220.74 89.16L226.29 90.80ZM243.03 73.42L241.67 67.43L236.12 65.78L231.93 70.13L233.29 76.12L238.84 77.77ZM265.36 57.68L263.99 51.68L258.44 50.03L254.24 54.38L255.60 60.38L261.16 62.03Z"/><path data-band="3" fill="#dc2626" fill-opacity="0.35" d="M257.44 250.56L256.08 244.59L250.56 242.94L246.39 247.25L247.74 253.22L253.27 254.87ZM247.74 253.22L246.39 247.25L240.86 245.60L236.70 249.92L238.05 255.88L243.58 257.53ZM260.25 240.28L258.90 234.31L253.37 232.65L249.20 236.97L250.56 242.94L256.08 244.59ZM250.56 242.94L249.20 236.97L243.68 235.32L239.51 239.63L240.86 245.60L246.39 247.25ZM264.31 258.18L262.96 252.21L257.44 250.56L253.27 254.87L254.62 260.84L260.14 262.49ZM254.62 260.84L253.27 254.87L247.74 253.22L243.58 257.53L244.93 263.50L250.45 265.15ZM231.18 248.27L229.82 242.30L224.30 240.65L220.13 244.97L221.49 250.94L227.01 252.58ZM221.49 250.94L220.13 244.97L214.61 243.33L210.45 247.64L211.81 253.61L217.33 255.25ZM233.98 237.99L232.63 232.02L227.10 230.37L222.94 234.69L224.30 240.65L229.82 242.30ZM224.30 240.65L222.94 234.69L217.41 233.04L213.25 237.36L214.61 243.33L220.13 244.97ZM238.05 255.88L236.70 249.92L231.18 248.27L227.01 252.58L228.37 258.55L233.89 260.20ZM228.37 258.55L227.01 252.58L221.49 250.94L217.33 255.25L218.69 261.21L224.21 262.86ZM240.86 245.60L239.51 239.63L233.98 237.99L229.82 242.30L231.18 248.27L236.70 249.92ZM263.07 229.99L261.72 224.02L256.19 222.36L252.02 226.68L253.37 232.65L258.90 234.31ZM265.90 219.70L264.54 213.72L259.01 212.07L254.84 216.39L256.19 222.36L261.72 224.02ZM246.49 225.03L245.14 219.06L239.61 217.41L235.44 221.73L236.80 227.70L242.32 229.35ZM236.80 227.70L235.44 221.73L229.91 220.08L225.74 224.40L227.10 230.37L232.63 232.02ZM249.31 214.74L247.95 208.76L242.42 207.11L238.25 211.44L239.61 217.41L245.14 219.06ZM239.61 217.41L238.25 211.44L232.72 209.79L228.55 214.11L229.91 220.08L235.44 221.73ZM253.37 232.65L252.02 226.68L246.49 225.03L242.32 229.35L243.68 235.32L249.20 236.97ZM243.68 235.32L242.32 229.35L236.80 227.70L232.63 232.02L233.98 237.99L239.51 239.63ZM256.19 222.36L254.84 216.39L249.31 214.74L245.14 219.06L246.49 225.03L252.02 226.68ZM244.93 263.50L243.58 257.53L238.05 255.88L233.89 260.20L235.25 266.16L240.76 267.81ZM192.46 258.95L191.10 252.99L185.58 251.35L181.43 255.67L182.80 261.63L188.31 263.27ZM182.80 261.63L181.43 255.67L175.92 254.03L171.77 258.35L173.13 264.31L178.64 265.95ZM166.25 256.71L164.89 250.76L159.37 249.12L155.23 253.44L156.59 259.40L162.11 261.03ZM156.59 259.40L155.23 253.44L149.71 251.81L145.57 256.13L146.94 262.08L152.45 263.72ZM204.93 246.00L203.57 240.04L198.05 238.39L193.89 242.71L195.26 248.68L200.77 250.32ZM195.26 248.68L193.89 242.71L188.38 241.07L184.22 245.39L185.58 251.35L191.10 252.99ZM207.73 235.72L206.37 229.75L200.85 228.11L196.69 232.43L198.05 238.39L203.57 240.04ZM198.05 238.39L196.69 232.43L191.17 230.79L187.01 235.11L188.38 241.07L193.89 242.71ZM211.81 253.61L210.45 247.64L204.93 246.00L200.77 250.32L202.13 256.28L207.65 257.92ZM202.13 256.28L200.77 250.32L195.26 248.68L191.10 252.99L192.46 258.95L197.98 260.60ZM214.61 243.33L213.25 237.36L207.73 235.72L203.57 240.04L204.93 246.00L210.45 247.64ZM178.70 243.75L177.34 237.79L171.82 236.16L167.67 240.48L169.04 246.44L174.55 248.07ZM169.04 246.44L167.67 240.48L162.15 238.84L158.01 243.17L159.37 249.12L164.89 250.76ZM181.49 233.47L180.13 227.51L174.61 225.87L170.46 230.20L171.82 236.16L177.34 237.79ZM171.82 236.16L170.46 230.20L164.94 228.56L160.79 232.88L162.15 238.84L167.67 240.48ZM185.58 251.35L184.22 245.39L178.70 243.75L174.55 248.07L175.92 254.03L181.43 255.67ZM175.92 254.03L174.55 248.07L169.04 246.44L164.89 250.76L166.25 256.71L171.77 258.35ZM188.38 241.07L187.01 235.11L181.49 233.47L177.34 237.79L178.70 243.75L184.22 245.39ZM218.69 261.21L217.33 255.25L211.81 253.61L207.65 257.92L209.01 263.88L214.53 265.53ZM261.83 201.77L260.48 195.80L254.95 194.14L250.77 198.47L252.13 204.44L257.66 206.09ZM259.01 212.07L257.66 206.09L252.13 204.44L247.95 208.76L249.31 214.74L254.84 216.39ZM220.22 222.76L218.86 216.79L213.33 215.14L209.17 219.47L210.53 225.43L216.05 227.08ZM210.53 225.43L209.17 219.47L203.65 217.82L199.49 222.15L200.85 228.11L206.37 229.75ZM213.33 215.14L211.97 209.17L206.45 207.53L202.28 211.86L203.65 217.82L209.17 219.47ZM227.10 230.37L225.74 224.40L220.22 222.76L216.05 227.08L217.41 233.04L222.94 234.69ZM217.41 233.04L216.05 227.08L210.53 225.43L206.37 229.75L207.73 235.72L213.25 237.36ZM229.91 220.08L228.55 214.11L223.03 212.46L218.86 216.79L220.22 222.76L225.74 224.40ZM193.96 220.50L192.60 214.54L187.08 212.90L182.92 217.22L184.28 223.19L189.80 224.83ZM200.85 228.11L199.49 222.15L193.96 220.50L189.80 224.83L191.17 230.79L196.69 232.43ZM191.17 230.79L189.80 224.83L184.28 223.19L180.13 227.51L181.49 233.47L187.01 235.11ZM203.65 217.82L202.28 211.86L196.76 210.21L192.60 214.54L193.96 220.50L199.49 222.15ZM140.06 254.50L138.69 248.54L133.18 246.91L129.04 251.24L130.41 257.19L135.92 258.82ZM130.41 257.19L129.04 251.24L123.53 249.61L119.39 253.93L120.76 259.88L126.27 261.51ZM146.94 262.08L145.57 256.13L140.06 254.50L135.92 258.82L137.29 264.77L142.80 266.40ZM111.12 262.57L109.75 256.63L104.24 255.00L100.11 259.32L101.48 265.27L106.99 266.90ZM152.49 241.53L151.12 235.57L145.61 233.94L141.46 238.27L142.83 244.22L148.35 245.85ZM155.27 231.25L153.90 225.29L148.39 223.66L144.24 227.98L145.61 233.94L151.12 235.57ZM159.37 249.12L158.01 243.17L152.49 241.53L148.35 245.85L149.71 251.81L155.23 253.44ZM149.71 251.81L148.35 245.85L142.83 244.22L138.69 248.54L140.06 254.50L145.57 256.13ZM162.15 238.84L160.79 232.88L155.27 231.25L151.12 235.57L152.49 241.53L158.01 243.17ZM133.18 246.91L131.81 240.96L126.30 239.33L122.16 243.65L123.53 249.61L129.04 251.24Z"/></svg>
