<svg xmlns="http://www.w3.org/2000/svg" width="256" height="256" viewBox="0 0 256 256"><path data-band="2" fill="#f97316" fill-opacity="0.35" d="M83.61 175.31L82.24 169.39L76.77 167.77L72.66 172.06L74.03 177.98L79.51 179.60ZM74.03 177.98L72.66 172.06L67.19 170.44L63.08 174.73L64.46 180.65L69.93 182.27ZM86.35 165.10L84.98 159.18L79.50 157.55L75.40 161.85L76.77 167.77L82.24 169.39ZM76.77 167.77L75.40 161.85L69.92 160.22L65.81 164.52L67.19 170.44L72.66 172.06ZM57.61 173.11L56.24 167.19L50.76 165.57L46.66 169.87L48.04 175.78L53.51 177.40ZM48.04 175.78L46.66 169.87L41.19 168.25L37.10 172.55L38.47 178.46L43.94 180.08ZM60.34 162.90L58.97 156.98L53.49 155.36L49.39 159.65L50.76 165.57L56.24 167.19ZM50.76 165.57L49.39 159.65L43.91 158.03L39.82 162.33L41.19 168.25L46.66 169.87ZM64.46 180.65L63.08 174.73L57.61 173.11L53.51 177.40L54.88 183.32L60.36 184.94ZM54.88 183.32L53.51 177.40L48.04 175.78L43.94 180.08L45.32 185.99L50.79 187.61ZM67.19 170.44L65.81 164.52L60.34 162.90L56.24 167.19L57.61 173.11L63.08 174.73ZM89.09 154.88L87.72 148.96L82.24 147.33L78.13 151.63L79.50 157.55L84.98 159.18ZM72.65 150.00L71.28 144.08L65.80 142.46L61.70 146.76L63.07 152.68L68.55 154.30ZM63.07 152.68L61.70 146.76L56.22 145.14L52.11 149.44L53.49 155.36L58.97 156.98ZM75.39 139.78L74.02 133.86L68.53 132.23L64.43 136.54L65.80 142.46L71.28 144.08ZM65.80 142.46L64.43 136.54L58.95 134.91L54.84 139.22L56.22 145.14L61.70 146.76ZM79.50 157.55L78.13 151.63L72.65 150.00L68.55 154.30L69.92 160.22L75.40 161.85ZM69.92 160.22L68.55 154.30L63.07 152.68L58.97 156.98L60.34 162.90L65.81 164.52ZM82.24 147.33L80.87 141.41L75.39 139.78L71.28 144.08L72.65 150.00L78.13 151.63ZM68.57 198.39L67.20 192.48L61.73 190.86L57.63 195.15L59.00 201.06L64.47 202.68ZM59.00 201.06L57.63 195.15L52.16 193.53L48.06 197.82L49.44 203.73L54.91 205.35ZM71.30 188.19L69.93 182.27L64.46 180.65L60.36 184.94L61.73 190.86L67.20 192.48ZM61.73 190.86L60.36 184.94L54.88 183.32L50.79 187.61L52.16 193.53L57.63 195.15ZM75.41 205.93L74.04 200.02L68.57 198.39L64.47 202.68L65.84 208.60L71.31 210.22ZM65.84 208.60L64.47 202.68L59.00 201.06L54.91 205.35L56.28 211.26L61.75 212.88ZM76.75 101.54L75.37 95.61L69.88 93.99L65.77 98.30L67.15 104.23L72.63 105.85ZM67.15 104.23L65.77 98.30L60.29 96.68L56.18 100.98L57.55 106.91L63.04 108.53ZM79.49 91.30L78.11 85.37L72.62 83.75L68.51 88.06L69.88 93.99L75.37 95.61ZM69.88 93.99L68.51 88.06L63.02 86.44L58.91 90.75L60.29 96.68L65.77 98.30ZM83.61 109.09L82.23 103.16L76.75 101.54L72.63 105.85L74.01 111.77L79.49 113.40ZM74.01 111.77L72.63 105.85L67.15 104.23L63.04 108.53L64.41 114.46L69.90 116.08ZM86.35 98.86L84.98 92.93L79.49 91.30L75.37 95.61L76.75 101.54L82.23 103.16ZM82.23 81.06L80.86 75.13L75.36 73.50L71.25 77.82L72.62 83.75L78.11 85.37ZM84.97 70.82L83.60 64.88L78.11 63.26L73.99 67.57L75.36 73.50L80.86 75.13ZM89.09 88.62L87.72 82.68L82.23 81.06L78.11 85.37L79.49 91.30L84.98 92.93ZM87.72 126.88L86.35 120.95L80.86 119.33L76.75 123.63L78.13 129.56L83.61 131.18ZM78.13 129.56L76.75 123.63L71.27 122.01L67.16 126.31L68.53 132.23L74.02 133.86ZM80.86 119.33L79.49 113.40L74.01 111.77L69.90 116.08L71.27 122.01L76.75 123.63ZM84.98 137.11L83.61 131.18L78.13 129.56L74.02 133.86L75.39 139.78L80.87 141.41ZM1.51 151.03L0.13 145.12L-5.34 143.51L-9.43 147.82L-8.05 153.73L-2.58 155.34ZM4.22 140.82L2.84 134.90L-2.64 133.29L-6.73 137.60L-5.34 143.51L0.13 145.12ZM2.62 46.59L1.23 40.66L-4.26 39.05L-8.36 43.38L-6.97 49.30L-1.48 50.91ZM5.33 36.34L3.95 30.41L-1.54 28.80L-5.65 33.12L-4.26 39.05L1.23 40.66ZM9.49 54.12L8.10 48.20L2.62 46.59L-1.48 50.91L-0.10 56.84L5.39 58.44ZM12.21 43.87L10.82 37.94L5.33 36.34L1.23 40.66L2.62 46.59L8.10 48.20ZM1.34 84.85L-0.04 78.93L-5.52 77.32L-9.62 81.64L-8.23 87.56L-2.75 89.16ZM5.49 102.61L4.11 96.69L-1.37 95.09L-5.46 99.40L-4.08 105.32L1.40 106.93ZM8.21 92.38L6.82 86.46L1.34 84.85L-2.75 89.16L-1.37 95.09L4.11 96.69ZM13.64 71.90L12.26 65.98L6.77 64.37L2.67 68.69L4.06 74.61L9.54 76.22ZM4.06 74.61L2.67 68.69L-2.81 67.08L-6.91 71.40L-5.52 77.32L-0.04 78.93ZM16.36 61.66L14.98 55.73L9.49 54.12L5.39 58.44L6.77 64.37L12.26 65.98ZM6.77 64.37L5.39 58.44L-0.10 56.84L-4.20 61.15L-2.81 67.08L2.67 68.69ZM20.51 79.44L19.13 73.51L13.64 71.90L9.54 76.22L10.92 82.14L16.41 83.75ZM10.92 82.14L9.54 76.22L4.06 74.61L-0.04 78.93L1.34 84.85L6.82 86.46ZM23.23 69.20L21.85 63.27L16.36 61.66L12.26 65.98L13.64 71.90L19.13 73.51ZM16.64 194.02L15.26 188.11L9.79 186.50L5.71 190.79L7.09 196.70L12.55 198.31ZM7.09 196.70L5.71 190.79L0.24 189.18L-3.84 193.48L-2.46 199.38L3.00 201.00ZM19.35 183.82L17.97 177.91L12.50 176.29L8.41 180.59L9.79 186.50L15.26 188.11ZM9.79 186.50L8.41 180.59L2.95 178.98L-1.14 183.27L0.24 189.18L5.71 190.79ZM23.48 201.54L22.10 195.64L16.64 194.02L12.55 198.31L13.93 204.22L19.39 205.84ZM13.93 204.22L12.55 198.31L7.09 196.70L3.00 201.00L4.38 206.90L9.84 208.51ZM26.19 191.34L24.82 185.43L19.35 183.82L15.26 188.11L16.64 194.02L22.10 195.64ZM0.24 189.18L-1.14 183.27L-6.60 181.66L-10.69 185.96L-9.31 191.87L-3.84 193.48ZM31.62 170.93L30.25 165.01L24.77 163.40L20.68 167.70L22.06 173.61L27.53 175.23ZM22.06 173.61L20.68 167.70L15.21 166.08L11.12 170.38L12.50 176.29L17.97 177.91ZM34.34 160.72L32.96 154.80L27.49 153.18L23.40 157.48L24.77 163.40L30.25 165.01ZM24.77 163.40L23.40 157.48L17.92 155.87L13.83 160.17L15.21 166.08L20.68 167.70ZM38.47 178.46L37.10 172.55L31.62 170.93L27.53 175.23L28.91 181.14L34.38 182.75ZM28.91 181.14L27.53 175.23L22.06 173.61L17.97 177.91L19.35 183.82L24.82 185.43ZM41.19 168.25L39.82 162.33L34.34 160.72L30.25 165.01L31.62 170.93L37.10 172.55ZM5.65 168.77L4.27 162.86L-1.20 161.25L-5.28 165.55L-3.90 171.46L1.57 173.07ZM8.36 158.56L6.98 152.65L1.51 151.03L-2.58 155.34L-1.20 161.25L4.27 162.86ZM12.50 176.29L11.12 170.38L5.65 168.77L1.57 173.07L2.95 178.98L8.41 180.59ZM2.95 178.98L1.57 173.07L-3.90 171.46L-7.99 175.76L-6.60 181.66L-1.14 183.27ZM15.21 166.08L13.83 160.17L8.36 158.56L4.27 162.86L5.65 168.77L11.12 170.38ZM27.61 219.27L26.23 213.36L20.77 211.74L16.68 216.03L18.06 221.94L23.52 223.55ZM18.06 221.94L16.68 216.03L11.22 214.42L7.14 218.71L8.52 224.61L13.98 226.23ZM30.32 209.07L28.95 203.16L23.48 201.54L19.39 205.84L20.77 211.74L26.23 213.36ZM20.77 211.74L19.39 205.84L13.93 204.22L9.84 208.51L11.22 214.42L16.68 216.03ZM34.45 226.79L33.07 220.88L27.61 219.27L23.52 223.55L24.90 229.46L30.36 231.08ZM24.90 229.46L23.52 223.55L18.06 221.94L13.98 226.23L15.35 232.13L20.81 233.75ZM37.16 216.60L35.79 210.69L30.32 209.07L26.23 213.36L27.61 219.27L33.07 220.88ZM1.68 217.10L0.30 211.19L-5.16 209.58L-9.24 213.87L-7.86 219.77L-2.40 221.39ZM4.38 206.90L3.00 201.00L-2.46 199.38L-6.54 203.68L-5.16 209.58L0.30 211.19ZM8.52 224.61L7.14 218.71L1.68 217.10L-2.40 221.39L-1.02 227.29L4.43 228.90ZM11.22 214.42L9.84 208.51L4.38 206.90L0.30 211.19L1.68 217.10L7.14 218.71ZM42.60 196.20L41.22 190.29L35.75 188.67L31.66 192.96L33.04 198.87L38.50 200.49ZM33.04 198.87L31.66 192.96L26.19 191.34L22.10 195.64L23.48 201.54L28.95 203.16ZM45.32 185.99L43.94 180.08L38.47 178.46L34.38 182.75L35.75 188.67L41.22 190.29ZM35.75 188.67L34.38 182.75L28.91 181.14L24.82 185.43L26.19 191.34L31.66 192.96ZM49.44 203.73L48.06 197.82L42.60 196.20L38.50 200.49L39.88 206.40L45.34 208.02ZM39.88 206.40L38.50 200.49L33.04 198.87L28.95 203.16L30.32 209.07L35.79 210.69ZM52.16 193.53L50.79 187.61L45.32 185.99L41.22 190.29L42.60 196.20L48.06 197.82ZM35.65 122.52L34.27 116.60L28.79 114.98L24.69 119.29L26.07 125.21L31.55 126.82ZM26.07 125.21L24.69 119.29L19.22 117.68L15.12 121.98L16.50 127.90L21.98 129.52ZM38.38 112.29L37.00 106.37L31.51 104.75L27.41 109.06L28.79 114.98L34.27 116.60ZM28.79 114.98L27.41 109.06L21.93 107.45L17.83 111.76L19.22 117.68L24.69 119.29ZM42.51 130.06L41.13 124.14L35.65 122.52L31.55 126.82L32.93 132.74L38.41 134.36ZM32.93 132.74L31.55 126.82L26.07 125.21L21.98 129.52L23.36 135.43L28.83 137.05ZM45.23 119.83L43.86 113.91L38.38 112.29L34.27 116.60L35.65 122.52L41.13 124.14ZM9.64 120.37L8.26 114.45L2.78 112.84L-1.31 117.15L0.07 123.07L5.55 124.68ZM0.07 123.07L-1.31 117.15L-6.79 115.55L-10.88 119.85L-9.49 125.77L-4.02 127.38ZM12.36 110.14L10.97 104.22L5.49 102.61L1.40 106.93L2.78 112.84L8.26 114.45ZM2.78 112.84L1.40 106.93L-4.08 105.32L-8.17 109.63L-6.79 115.55L-1.31 117.15ZM16.50 127.90L15.12 121.98L9.64 120.37L5.55 124.68L6.93 130.60L12.40 132.21ZM6.93 130.60L5.55 124.68L0.07 123.07L-4.02 127.38L-2.64 133.29L2.84 134.90ZM19.22 117.68L17.83 111.76L12.36 110.14L8.26 114.45L9.64 120.37L15.12 121.98ZM50.69 99.37L49.31 93.44L43.83 91.82L39.72 96.13L41.10 102.06L46.58 103.67ZM41.10 102.06L39.72 96.13L34.24 94.52L30.14 98.83L31.51 104.75L37.00 106.37ZM53.42 89.13L52.05 83.20L46.56 81.58L42.45 85.90L43.83 91.82L49.31 93.44ZM43.83 91.82L42.45 85.90L36.96 84.28L32.86 88.59L34.24 94.52L39.72 96.13ZM57.55 106.91L56.18 100.98L50.69 99.37L46.58 103.67L47.96 109.60L53.44 111.22ZM47.96 109.60L46.58 103.67L41.10 102.06L37.00 106.37L38.38 112.29L43.86 113.91ZM60.29 96.68L58.91 90.75L53.42 89.13L49.31 93.44L50.69 99.37L56.18 100.98ZM24.65 97.21L23.27 91.29L17.79 89.68L13.69 93.99L15.07 99.91L20.55 101.53ZM15.07 99.91L13.69 93.99L8.21 92.38L4.11 96.69L5.49 102.61L10.97 104.22ZM27.37 86.98L25.99 81.05L20.51 79.44L16.41 83.75L17.79 89.68L23.27 91.29ZM17.79 89.68L16.41 83.75L10.92 82.14L6.82 86.46L8.21 92.38L13.69 93.99ZM31.51 104.75L30.14 98.83L24.65 97.21L20.55 101.53L21.93 107.45L27.41 109.06ZM21.93 107.45L20.55 101.53L15.07 99.91L10.97 104.22L12.36 110.14L17.83 111.76ZM34.24 94.52L32.86 88.59L27.37 86.98L23.27 91.29L24.65 97.21L30.14 98.83ZM46.64 147.82L45.26 141.90L39.78 140.28L35.69 144.58L37.06 150.50L42.54 152.12ZM37.06 150.50L35.69 144.58L30.21 142.97L26.11 147.27L27.49 153.18L32.96 154.80ZM49.36 137.60L47.99 131.67L42.51 130.06L38.41 134.36L39.78 140.28L45.26 141.90ZM39.78 140.28L38.41 134.36L32.93 132.74L28.83 137.05L30.21 142.97L35.69 144.58ZM53.49 155.36L52.11 149.44L46.64 147.82L42.54 152.12L43.91 158.03L49.39 159.65ZM43.91 158.03L42.54 152.12L37.06 150.50L32.96 154.80L34.34 160.72L39.82 162.33ZM56.22 145.14L54.84 139.22L49.36 137.60L45.26 141.90L46.64 147.82L52.11 149.44ZM20.64 145.65L19.26 139.74L13.78 138.12L9.69 142.43L11.07 148.34L16.54 149.96ZM11.07 148.34L9.69 142.43L4.22 140.82L0.13 145.12L1.51 151.03L6.98 152.65ZM23.36 135.43L21.98 129.52L16.50 127.90L12.40 132.21L13.78 138.12L19.26 139.74ZM13.78 138.12L12.40 132.21L6.93 130.60L2.84 134.90L4.22 140.82L9.69 142.43ZM27.49 153.18L26.11 147.27L20.64 145.65L16.54 149.96L17.92 155.87L23.40 157.48ZM17.92 155.87L16.54 149.96L11.07 148.34L6.98 152.65L8.36 158.56L13.83 160.17ZM30.21 142.97L28.83 137.05L23.36 135.43L19.26 139.74L20.64 145.65L26.11 147.27ZM61.68 124.69L60.30 118.76L54.82 117.14L50.72 121.45L52.09 127.37L57.57 128.99ZM52.09 127.37L50.72 121.45L45.23 119.83L41.13 124.14L42.51 130.06L47.99 131.67ZM64.41 114.46L63.04 108.53L57.55 106.91L53.44 111.22L54.82 117.14L60.30 118.76ZM54.82 117.14L53.44 111.22L47.96 109.60L43.86 113.91L45.23 119.83L50.72 121.45ZM68.53 132.23L67.16 126.31L61.68 124.69L57.57 128.99L58.95 134.91L64.43 136.54ZM58.95 134.91L57.57 128.99L52.09 127.37L47.99 131.67L49.36 137.60L54.84 139.22ZM71.27 122.01L69.90 116.08L64.41 114.46L60.30 118.76L61.68 124.69L67.16 126.31ZM64.50 246.71L63.13 240.81L57.67 239.18L53.58 243.47L54.95 249.37L60.41 251.00ZM54.95 249.37L53.58 243.47L48.12 241.84L44.03 246.13L45.40 252.03L50.86 253.65ZM67.23 236.53L65.86 230.62L60.39 228.99L56.30 233.28L57.67 239.18L63.13 240.81ZM57.67 239.18L56.30 233.28L50.83 231.65L46.74 235.94L48.12 241.84L53.58 243.47ZM71.33 254.25L69.96 248.34L64.50 246.71L60.41 251.00L61.78 256.90L67.24 258.53ZM61.78 256.90L60.41 251.00L54.95 249.37L50.86 253.65L52.23 259.56L57.69 261.18ZM74.06 244.06L72.69 238.15L67.23 236.53L63.13 240.81L64.50 246.71L69.96 248.34ZM38.57 244.51L37.19 238.60L31.73 236.98L27.65 241.27L29.02 247.17L34.48 248.79ZM29.02 247.17L27.65 241.27L22.19 239.65L18.10 243.93L19.48 249.83L24.94 251.45ZM41.28 234.32L39.91 228.41L34.45 226.79L30.36 231.08L31.73 236.98L37.19 238.60ZM31.73 236.98L30.36 231.08L24.90 229.46L20.81 233.75L22.19 239.65L27.65 241.27ZM45.40 252.03L44.03 246.13L38.57 244.51L34.48 248.79L35.85 254.69L41.31 256.31ZM35.85 254.69L34.48 248.79L29.02 247.17L24.94 251.45L26.31 257.35L31.77 258.97ZM48.12 241.84L46.74 235.94L41.28 234.32L37.19 238.60L38.57 244.51L44.03 246.13ZM69.95 226.33L68.58 220.42L63.12 218.80L59.02 223.08L60.39 228.99L65.86 230.62ZM72.68 216.13L71.31 210.22L65.84 208.60L61.75 212.88L63.12 218.80L68.58 220.42ZM76.79 233.87L75.42 227.96L69.95 226.33L65.86 230.62L67.23 236.53L72.69 238.15ZM53.56 221.46L52.18 215.55L46.72 213.93L42.62 218.22L44.00 224.12L49.46 225.75ZM44.00 224.12L42.62 218.22L37.16 216.60L33.07 220.88L34.45 226.79L39.91 228.41ZM56.28 211.26L54.91 205.35L49.44 203.73L45.34 208.02L46.72 213.93L52.18 215.55ZM46.72 213.93L45.34 208.02L39.88 206.40L35.79 210.69L37.16 216.60L42.62 218.22ZM60.39 228.99L59.02 223.08L53.56 221.46L49.46 225.75L50.83 231.65L56.30 233.28ZM50.83 231.65L49.46 225.75L44.00 224.12L39.91 228.41L41.28 234.32L46.74 235.94ZM63.12 218.80L61.75 212.88L56.28 211.26L52.18 215.55L53.56 221.46L59.02 223.08ZM52.23 259.56L50.86 253.65L45.40 252.03L41.31 256.31L42.68 262.21L48.14 263.84ZM42.68 262.21L41.31 256.31L35.85 254.69L31.77 258.97L33.14 264.87L38.60 266.49ZM0.41 255.17L-0.97 249.27L-6.42 247.66L-10.50 251.95L-9.12 257.84L-3.67 259.45ZM7.24 262.68L5.86 256.79L0.41 255.17L-3.67 259.45L-2.29 265.35L3.16 266.96ZM12.65 242.32L11.27 236.42L5.81 234.80L1.73 239.09L3.11 244.99L8.57 246.60ZM3.11 244.99L1.73 239.09L-3.72 237.48L-7.80 241.76L-6.42 247.66L-0.97 249.27ZM15.35 232.13L13.98 226.23L8.52 224.61L4.43 228.90L5.81 234.80L11.27 236.42ZM5.81 234.80L4.43 228.90L-1.02 227.29L-5.10 231.58L-3.72 237.48L1.73 239.09ZM19.48 249.83L18.10 243.93L12.65 242.32L8.57 246.60L9.94 252.50L15.40 254.12ZM9.94 252.50L8.57 246.60L3.11 244.99L-0.97 249.27L0.41 255.17L5.86 256.79ZM22.19 239.65L20.81 233.75L15.35 232.13L11.27 236.42L12.65 242.32L18.10 243.93ZM26.31 257.35L24.94 251.45L19.48 249.83L15.40 254.12L16.77 260.02L22.23 261.63ZM16.77 260.02L15.40 254.12L9.94 252.50L5.86 256.79L7.24 262.68L12.69 264.30ZM84.97 4.40L83.59 -1.54L78.09 -3.16L73.96 1.16L75.34 7.10L80.84 8.72ZM75.34 7.10L73.96 1.16L68.46 -0.46L64.34 3.87L65.72 9.81L71.22 11.43ZM78.09 -3.16L76.71 -9.11L71.21 -10.73L67.08 -6.40L68.46 -0.46L73.96 1.16ZM91.85 11.97L90.47 6.02L84.97 4.40L80.84 8.72L82.22 14.67L87.72 16.29ZM82.22 14.67L80.84 8.72L75.34 7.10L71.22 11.43L72.59 17.37L78.09 18.99ZM94.60 1.70L93.23 -4.25L87.72 -5.87L83.59 -1.54L84.97 4.40L90.47 6.02ZM58.83 2.25L57.45 -3.69L51.95 -5.31L47.83 -0.98L49.21 4.96L54.71 6.58ZM49.21 4.96L47.83 -0.98L42.33 -2.59L38.22 1.74L39.60 7.67L45.10 9.29ZM65.72 9.81L64.34 3.87L58.83 2.25L54.71 6.58L56.09 12.52L61.59 14.13ZM56.09 12.52L54.71 6.58L49.21 4.96L45.10 9.29L46.48 15.23L51.98 16.84ZM68.46 -0.46L67.08 -6.40L61.58 -8.02L57.45 -3.69L58.83 2.25L64.34 3.87ZM6.61 -1.98L5.23 -7.92L-0.27 -9.52L-4.38 -5.19L-2.99 0.74L2.51 2.35ZM13.50 5.56L12.11 -0.37L6.61 -1.98L2.51 2.35L3.89 8.28L9.39 9.89ZM3.89 8.28L2.51 2.35L-2.99 0.74L-7.09 5.07L-5.71 11.01L-0.21 12.61ZM17.65 23.36L16.27 17.43L10.77 15.82L6.67 20.15L8.05 26.08L13.55 27.69ZM8.05 26.08L6.67 20.15L1.17 18.54L-2.93 22.87L-1.54 28.80L3.95 30.41ZM20.38 13.10L18.99 7.17L13.50 5.56L9.39 9.89L10.77 15.82L16.27 17.43ZM10.77 15.82L9.39 9.89L3.89 8.28L-0.21 12.61L1.17 18.54L6.67 20.15ZM24.53 30.91L23.15 24.97L17.65 23.36L13.55 27.69L14.93 33.62L20.42 35.23ZM14.93 33.62L13.55 27.69L8.05 26.08L3.95 30.41L5.33 36.34L10.82 37.94ZM27.26 20.65L25.87 14.71L20.38 13.10L16.27 17.43L17.65 23.36L23.15 24.97ZM1.17 18.54L-0.21 12.61L-5.71 11.01L-9.81 15.33L-8.42 21.26L-2.93 22.87ZM32.72 0.12L31.33 -5.82L25.83 -7.43L21.72 -3.10L23.10 2.84L28.60 4.45ZM23.10 2.84L21.72 -3.10L16.22 -4.70L12.11 -0.37L13.50 5.56L18.99 7.17ZM39.60 7.67L38.22 1.74L32.72 0.12L28.60 4.45L29.99 10.39L35.48 12.00ZM29.99 10.39L28.60 4.45L23.10 2.84L18.99 7.17L20.38 13.10L25.87 14.71ZM42.33 -2.59L40.95 -8.53L35.45 -10.14L31.33 -5.82L32.72 0.12L38.22 1.74ZM95.97 29.80L94.60 23.86L89.10 22.23L84.97 26.55L86.35 32.49L91.85 34.12ZM86.35 32.49L84.97 26.55L79.47 24.93L75.35 29.25L76.72 35.19L82.22 36.81ZM98.73 19.54L97.35 13.59L91.85 11.97L87.72 16.29L89.10 22.23L94.60 23.86ZM89.10 22.23L87.72 16.29L82.22 14.67L78.09 18.99L79.47 24.93L84.97 26.55ZM93.22 40.06L91.85 34.12L86.35 32.49L82.22 36.81L83.60 42.75L89.10 44.37ZM101.48 9.27L100.11 3.32L94.60 1.70L90.47 6.02L91.85 11.97L97.35 13.59ZM113.88 -3.70L112.51 -9.65L107.00 -11.27L102.87 -6.95L104.24 -1.00L109.75 0.63ZM104.24 -1.00L102.87 -6.95L97.36 -8.57L93.23 -4.25L94.60 1.70L100.11 3.32ZM120.76 3.88L119.39 -2.07L113.88 -3.70L109.75 0.63L111.12 6.57L116.63 8.20ZM100.09 47.62L98.72 41.68L93.22 40.06L89.10 44.37L90.47 50.31L95.97 51.94ZM54.76 50.84L53.38 44.91L47.88 43.29L43.77 47.61L45.15 53.55L50.64 55.16ZM45.15 53.55L43.77 47.61L38.28 46.00L34.17 50.32L35.55 56.25L41.04 57.86ZM57.49 40.59L56.11 34.65L50.62 33.04L46.50 37.36L47.88 43.29L53.38 44.91ZM47.88 43.29L46.50 37.36L41.01 35.74L36.90 40.07L38.28 46.00L43.77 47.61ZM61.63 58.40L60.25 52.46L54.76 50.84L50.64 55.16L52.02 61.09L57.51 62.71ZM52.02 61.09L50.64 55.16L45.15 53.55L41.04 57.86L42.42 63.79L47.91 65.41ZM64.37 48.15L62.99 42.21L57.49 40.59L53.38 44.91L54.76 50.84L60.25 52.46ZM28.68 48.70L27.30 42.77L21.81 41.16L17.70 45.48L19.08 51.41L24.57 53.02ZM19.08 51.41L17.70 45.48L12.21 43.87L8.10 48.20L9.49 54.12L14.98 55.73ZM31.41 38.45L30.02 32.52L24.53 30.91L20.42 35.23L21.81 41.16L27.30 42.77ZM21.81 41.16L20.42 35.23L14.93 33.62L10.82 37.94L12.21 43.87L17.70 45.48ZM35.55 56.25L34.17 50.32L28.68 48.70L24.57 53.02L25.95 58.95L31.44 60.57ZM25.95 58.95L24.57 53.02L19.08 51.41L14.98 55.73L16.36 61.66L21.85 63.27ZM38.28 46.00L36.90 40.07L31.41 38.45L27.30 42.77L28.68 48.70L34.17 50.32ZM69.85 27.63L68.47 21.69L62.97 20.07L58.85 24.40L60.23 30.33L65.73 31.95ZM60.23 30.33L58.85 24.40L53.36 22.78L49.24 27.10L50.62 33.04L56.11 34.65ZM72.59 17.37L71.22 11.43L65.72 9.81L61.59 14.13L62.97 20.07L68.47 21.69ZM62.97 20.07L61.59 14.13L56.09 12.52L51.98 16.84L53.36 22.78L58.85 24.40ZM76.72 35.19L75.35 29.25L69.85 27.63L65.73 31.95L67.11 37.89L72.60 39.51ZM67.11 37.89L65.73 31.95L60.23 30.33L56.11 34.65L57.49 40.59L62.99 42.21ZM79.47 24.93L78.09 18.99L72.59 17.37L68.47 21.69L69.85 27.63L75.35 29.25ZM43.74 25.49L42.36 19.55L36.87 17.94L32.75 22.26L34.13 28.20L39.63 29.81ZM34.13 28.20L32.75 22.26L27.26 20.65L23.15 24.97L24.53 30.91L30.02 32.52ZM46.48 15.23L45.10 9.29L39.60 7.67L35.48 12.00L36.87 17.94L42.36 19.55ZM36.87 17.94L35.48 12.00L29.99 10.39L25.87 14.71L27.26 20.65L32.75 22.26ZM50.62 33.04L49.24 27.10L43.74 25.49L39.63 29.81L41.01 35.74L46.50 37.36ZM41.01 35.74L39.63 29.81L34.13 28.20L30.02 32.52L31.41 38.45L36.90 40.07ZM53.36 22.78L51.98 16.84L46.48 15.23L42.36 19.55L43.74 25.49L49.24 27.10ZM65.76 76.20L64.38 70.26L58.89 68.64L54.78 72.96L56.16 78.89L61.64 80.51ZM56.16 78.89L54.78 72.96L49.29 71.34L45.18 75.65L46.56 81.58L52.05 83.20ZM68.50 65.95L67.12 60.02L61.63 58.40L57.51 62.71L58.89 68.64L64.38 70.26ZM58.89 68.64L57.51 62.71L52.02 61.09L47.91 65.41L49.29 71.34L54.78 72.96ZM72.62 83.75L71.25 77.82L65.76 76.20L61.64 80.51L63.02 86.44L68.51 88.06ZM63.02 86.44L61.64 80.51L56.16 78.89L52.05 83.20L53.42 89.13L58.91 90.75ZM75.36 73.50L73.99 67.57L68.50 65.95L64.38 70.26L65.76 76.20L71.25 77.82ZM39.69 74.04L38.31 68.11L32.82 66.50L28.72 70.81L30.10 76.74L35.58 78.35ZM30.10 76.74L28.72 70.81L23.23 69.20L19.13 73.51L20.51 79.44L25.99 81.05ZM42.42 63.79L41.04 57.86L35.55 56.25L31.44 60.57L32.82 66.50L38.31 68.11ZM32.82 66.50L31.44 60.57L25.95 58.95L21.85 63.27L23.23 69.20L28.72 70.81ZM46.56 81.58L45.18 75.65L39.69 74.04L35.58 78.35L36.96 84.28L42.45 85.90ZM36.96 84.28L35.58 78.35L30.10 76.74L25.99 81.05L27.37 86.98L32.86 88.59ZM49.29 71.34L47.91 65.41L42.42 63.79L38.31 68.11L39.69 74.04L45.18 75.65ZM80.85 53.01L79.48 47.07L73.98 45.45L69.86 49.76L71.24 55.70L76.73 57.32ZM71.24 55.70L69.86 49.76L64.37 48.15L60.25 52.46L61.63 58.40L67.12 60.02ZM83.60 42.75L82.22 36.81L76.72 35.19L72.60 39.51L73.98 45.45L79.48 47.07ZM73.98 45.45L72.60 39.51L67.11 37.89L62.99 42.21L64.37 48.15L69.86 49.76ZM87.72 60.57L86.35 54.63L80.85 53.01L76.73 57.32L78.11 63.26L83.60 64.88ZM78.11 63.26L76.73 57.32L71.24 55.70L67.12 60.02L68.50 65.95L73.99 67.57ZM90.47 50.31L89.10 44.37L83.60 42.75L79.48 47.07L80.85 53.01L86.35 54.63Z"/><path data-band="3" fill="#dc2626" fill-opacity="0.35" d="M266.09 191.35L264.74 185.41L259.25 183.75L255.10 188.03L256.45 193.97L261.94 195.63ZM256.45 193.97L255.10 188.03L249.61 186.37L245.46 190.65L246.81 196.59L252.30 198.25ZM259.25 183.75L257.90 177.81L252.41 176.15L248.26 180.43L249.61 186.37L255.10 188.03ZM263.28 201.57L261.94 195.63L256.45 193.97L252.30 198.25L253.65 204.19L259.14 205.85ZM239.97 189.00L238.62 183.06L233.13 181.40L228.99 185.68L230.34 191.62L235.83 193.28ZM230.34 191.62L228.99 185.68L223.50 184.03L219.36 188.31L220.71 194.25L226.20 195.90ZM242.77 178.78L241.42 172.84L235.93 171.18L231.78 175.46L233.13 181.40L238.62 183.06ZM233.13 181.40L231.78 175.46L226.29 173.81L222.15 178.09L223.50 184.03L228.99 185.68ZM246.81 196.59L245.46 190.65L239.97 189.00L235.83 193.28L237.18 199.21L242.67 200.87ZM237.18 199.21L235.83 193.28L230.34 191.62L226.20 195.90L227.55 201.83L233.04 203.49ZM249.61 186.37L248.26 180.43L242.77 178.78L238.62 183.06L239.97 189.00L245.46 190.65ZM255.21 165.93L253.86 159.98L248.36 158.33L244.22 162.61L245.56 168.55L251.06 170.21ZM245.56 168.55L244.22 162.61L238.72 160.95L234.58 165.24L235.93 171.18L241.42 172.84ZM258.01 155.70L256.66 149.75L251.17 148.10L247.02 152.38L248.36 158.33L253.86 159.98ZM248.36 158.33L247.02 152.38L241.52 150.73L237.37 155.01L238.72 160.95L244.22 162.61ZM262.05 173.53L260.71 167.59L255.21 165.93L251.06 170.21L252.41 176.15L257.90 177.81ZM252.41 176.15L251.06 170.21L245.56 168.55L241.42 172.84L242.77 178.78L248.26 180.43ZM264.86 163.30L263.51 157.36L258.01 155.70L253.86 159.98L255.21 165.93L260.71 167.59ZM250.85 214.40L249.50 208.46L244.01 206.81L239.87 211.08L241.22 217.02L246.71 218.67ZM241.22 217.02L239.87 211.08L234.39 209.42L230.25 213.70L231.60 219.63L237.08 221.29ZM253.65 204.19L252.30 198.25L246.81 196.59L242.67 200.87L244.01 206.81L249.50 208.46ZM244.01 206.81L242.67 200.87L237.18 199.21L233.04 203.49L234.39 209.42L239.87 211.08ZM257.68 222.00L256.34 216.06L250.85 214.40L246.71 218.67L248.05 224.61L253.54 226.27ZM248.05 224.61L246.71 218.67L241.22 217.02L237.08 221.29L238.43 227.22L243.91 228.88ZM260.48 211.79L259.14 205.85L253.65 204.19L249.50 208.46L250.85 214.40L256.34 216.06ZM259.58 117.38L258.23 111.43L252.73 109.78L248.57 114.07L249.92 120.02L255.43 121.68ZM249.92 120.02L248.57 114.07L243.07 112.41L238.92 116.71L240.27 122.65L245.77 124.31ZM262.39 107.14L261.04 101.19L255.54 99.53L251.38 103.82L252.73 109.78L258.23 111.43ZM252.73 109.78L251.38 103.82L245.87 102.17L241.72 106.46L243.07 112.41L248.57 114.07ZM266.43 124.99L265.09 119.04L259.58 117.38L255.43 121.68L256.77 127.62L262.28 129.28ZM256.77 127.62L255.43 121.68L249.92 120.02L245.77 124.31L247.12 130.26L252.62 131.91ZM265.20 96.89L263.85 90.94L258.34 89.28L254.19 93.58L255.54 99.53L261.04 101.19ZM260.82 145.47L259.47 139.52L253.97 137.86L249.82 142.15L251.17 148.10L256.66 149.75ZM263.62 135.23L262.28 129.28L256.77 127.62L252.62 131.91L253.97 137.86L259.47 139.52ZM150.79 156.69L149.43 150.76L143.95 149.12L139.82 153.42L141.19 159.35L146.67 160.99ZM141.19 159.35L139.82 153.42L134.34 151.78L130.22 156.08L131.58 162.00L137.06 163.64ZM153.56 146.47L152.20 140.54L146.71 138.90L142.58 143.19L143.95 149.12L149.43 150.76ZM143.95 149.12L142.58 143.19L137.10 141.56L132.97 145.85L134.34 151.78L139.82 153.42ZM157.64 164.26L156.28 158.33L150.79 156.69L146.67 160.99L148.03 166.92L153.52 168.55ZM148.03 166.92L146.67 160.99L141.19 159.35L137.06 163.64L138.43 169.57L143.91 171.21ZM160.41 154.04L159.05 148.11L153.56 146.47L149.43 150.76L150.79 156.69L156.28 158.33ZM124.73 154.44L123.37 148.51L117.88 146.88L113.76 151.18L115.13 157.10L120.61 158.74ZM115.13 157.10L113.76 151.18L108.28 149.54L104.17 153.84L105.53 159.77L111.01 161.40ZM127.49 144.22L126.12 138.29L120.63 136.65L116.51 140.95L117.88 146.88L123.37 148.51ZM117.88 146.88L116.51 140.95L111.03 139.32L106.91 143.62L108.28 149.54L113.76 151.18ZM131.58 162.00L130.22 156.08L124.73 154.44L120.61 158.74L121.98 164.66L127.46 166.30ZM121.98 164.66L120.61 158.74L115.13 157.10L111.01 161.40L112.38 167.32L117.86 168.95ZM134.34 151.78L132.97 145.85L127.49 144.22L123.37 148.51L124.73 154.44L130.22 156.08ZM165.95 133.59L164.59 127.65L159.09 126.01L154.96 130.31L156.33 136.24L161.82 137.88ZM156.33 136.24L154.96 130.31L149.47 128.67L145.35 132.96L146.71 138.90L152.20 140.54ZM168.72 123.35L167.36 117.41L161.86 115.77L157.73 120.07L159.09 126.01L164.59 127.65ZM159.09 126.01L157.73 120.07L152.24 118.43L148.11 122.73L149.47 128.67L154.96 130.31ZM172.80 141.16L171.44 135.23L165.95 133.59L161.82 137.88L163.18 143.82L168.67 145.46ZM163.18 143.82L161.82 137.88L156.33 136.24L152.20 140.54L153.56 146.47L159.05 148.11ZM175.57 130.93L174.21 124.99L168.72 123.35L164.59 127.65L165.95 133.59L171.44 135.23ZM139.86 131.33L138.49 125.39L133.00 123.76L128.88 128.06L130.24 133.99L135.73 135.62ZM130.24 133.99L128.88 128.06L123.39 126.42L119.27 130.72L120.63 136.65L126.12 138.29ZM142.62 121.10L141.25 115.16L135.76 113.52L131.64 117.83L133.00 123.76L138.49 125.39ZM133.00 123.76L131.64 117.83L126.15 116.19L122.02 120.49L123.39 126.42L128.88 128.06ZM146.71 138.90L145.35 132.96L139.86 131.33L135.73 135.62L137.10 141.56L142.58 143.19ZM137.10 141.56L135.73 135.62L130.24 133.99L126.12 138.29L127.49 144.22L132.97 145.85ZM149.47 128.67L148.11 122.73L142.62 121.10L138.49 125.39L139.86 131.33L145.35 132.96ZM161.72 182.05L160.36 176.12L154.88 174.48L150.75 178.77L152.11 184.70L157.60 186.34ZM152.11 184.70L150.75 178.77L145.27 177.13L141.15 181.42L142.51 187.35L147.99 188.99ZM164.49 171.84L163.13 165.91L157.64 164.26L153.52 168.55L154.88 174.48L160.36 176.12ZM154.88 174.48L153.52 168.55L148.03 166.92L143.91 171.21L145.27 177.13L150.75 178.77ZM168.56 189.62L167.20 183.70L161.72 182.05L157.60 186.34L158.96 192.27L164.44 193.91ZM158.96 192.27L157.60 186.34L152.11 184.70L147.99 188.99L149.35 194.91L154.83 196.55ZM171.33 179.41L169.97 173.48L164.49 171.84L160.36 176.12L161.72 182.05L167.20 183.70ZM135.67 179.78L134.31 173.86L128.82 172.22L124.71 176.51L126.07 182.44L131.55 184.07ZM126.07 182.44L124.71 176.51L119.23 174.88L115.11 179.17L116.48 185.09L121.96 186.73ZM138.43 169.57L137.06 163.64L131.58 162.00L127.46 166.30L128.82 172.22L134.31 173.86ZM128.82 172.22L127.46 166.30L121.98 164.66L117.86 168.95L119.23 174.88L124.71 176.51ZM142.51 187.35L141.15 181.42L135.67 179.78L131.55 184.07L132.91 190.00L138.39 191.63ZM132.91 190.00L131.55 184.07L126.07 182.44L121.96 186.73L123.32 192.65L128.80 194.28ZM145.27 177.13L143.91 171.21L138.43 169.57L134.31 173.86L135.67 179.78L141.15 181.42ZM176.87 158.97L175.52 153.03L170.03 151.39L165.90 155.68L167.26 161.62L172.74 163.26ZM167.26 161.62L165.90 155.68L160.41 154.04L156.28 158.33L157.64 164.26L163.13 165.91ZM179.65 148.74L178.29 142.81L172.80 141.16L168.67 145.46L170.03 151.39L175.52 153.03ZM170.03 151.39L168.67 145.46L163.18 143.82L159.05 148.11L160.41 154.04L165.90 155.68ZM183.72 166.55L182.36 160.61L176.87 158.97L172.74 163.26L174.10 169.19L179.59 170.84ZM174.10 169.19L172.74 163.26L167.26 161.62L163.13 165.91L164.49 171.84L169.97 173.48ZM186.50 156.32L185.14 150.39L179.65 148.74L175.52 153.03L176.87 158.97L182.36 160.61ZM90.46 182.86L89.09 176.94L83.61 175.31L79.51 179.60L80.88 185.52L86.35 187.15ZM80.88 185.52L79.51 179.60L74.03 177.98L69.93 182.27L71.30 188.19L76.77 189.81ZM93.20 172.65L91.83 166.72L86.35 165.10L82.24 169.39L83.61 175.31L89.09 176.94ZM98.68 152.21L97.32 146.29L91.83 144.66L87.72 148.96L89.09 154.88L94.57 156.51ZM101.43 141.99L100.06 136.06L94.58 134.43L90.46 138.73L91.83 144.66L97.32 146.29ZM91.83 144.66L90.46 138.73L84.98 137.11L80.87 141.41L82.24 147.33L87.72 148.96ZM105.53 159.77L104.17 153.84L98.68 152.21L94.57 156.51L95.94 162.43L101.42 164.06ZM95.94 162.43L94.57 156.51L89.09 154.88L84.98 159.18L86.35 165.10L91.83 166.72ZM108.28 149.54L106.91 143.62L101.43 141.99L97.32 146.29L98.68 152.21L104.17 153.84ZM94.56 200.61L93.20 194.70L87.72 193.07L83.62 197.36L84.99 203.27L90.46 204.90ZM84.99 203.27L83.62 197.36L78.14 195.73L74.04 200.02L75.41 205.93L80.88 207.56ZM97.30 190.41L95.94 184.49L90.46 182.86L86.35 187.15L87.72 193.07L93.20 194.70ZM87.72 193.07L86.35 187.15L80.88 185.52L76.77 189.81L78.14 195.73L83.62 197.36ZM101.40 208.16L100.04 202.24L94.56 200.61L90.46 204.90L91.82 210.82L97.30 212.45ZM91.82 210.82L90.46 204.90L84.99 203.27L80.88 207.56L82.25 213.48L87.72 215.10ZM104.14 197.96L102.78 192.04L97.30 190.41L93.20 194.70L94.56 200.61L100.04 202.24ZM78.14 195.73L76.77 189.81L71.30 188.19L67.20 192.48L68.57 198.39L74.04 200.02ZM109.63 177.54L108.27 171.61L102.79 169.98L98.68 174.28L100.04 180.20L105.52 181.83ZM100.04 180.20L98.68 174.28L93.20 172.65L89.09 176.94L90.46 182.86L95.94 184.49ZM112.38 167.32L111.01 161.40L105.53 159.77L101.42 164.06L102.79 169.98L108.27 171.61ZM102.79 169.98L101.42 164.06L95.94 162.43L91.83 166.72L93.20 172.65L98.68 174.28ZM116.48 185.09L115.11 179.17L109.63 177.54L105.52 181.83L106.89 187.75L112.36 189.38ZM106.89 187.75L105.52 181.83L100.04 180.20L95.94 184.49L97.30 190.41L102.78 192.04ZM119.23 174.88L117.86 168.95L112.38 167.32L108.27 171.61L109.63 177.54L115.11 179.17ZM170.19 85.05L168.83 79.10L163.32 77.46L159.19 81.77L160.55 87.71L166.05 89.35ZM160.55 87.71L159.19 81.77L153.69 80.13L149.55 84.44L150.92 90.38L156.42 92.01ZM172.96 74.80L171.60 68.85L166.10 67.21L161.96 71.52L163.32 77.46L168.83 79.10ZM163.32 77.46L161.96 71.52L156.46 69.88L152.32 74.19L153.69 80.13L159.19 81.77ZM177.05 92.63L175.69 86.69L170.19 85.05L166.05 89.35L167.41 95.29L172.91 96.93ZM167.41 95.29L166.05 89.35L160.55 87.71L156.42 92.01L157.78 97.96L163.28 99.59ZM179.83 82.38L178.47 76.44L172.96 74.80L168.83 79.10L170.19 85.05L175.69 86.69ZM144.06 82.80L142.69 76.86L137.19 75.22L133.06 79.53L134.43 85.47L139.92 87.11ZM134.43 85.47L133.06 79.53L127.56 77.90L123.44 82.21L124.80 88.14L130.30 89.78ZM146.82 72.55L145.46 66.61L139.96 64.97L135.82 69.28L137.19 75.22L142.69 76.86ZM137.19 75.22L135.82 69.28L130.33 67.65L126.20 71.96L127.56 77.90L133.06 79.53ZM150.92 90.38L149.55 84.44L144.06 82.80L139.92 87.11L141.29 93.05L146.79 94.68ZM141.29 93.05L139.92 87.11L134.43 85.47L130.30 89.78L131.67 95.72L137.16 97.35ZM153.69 80.13L152.32 74.19L146.82 72.55L142.69 76.86L144.06 82.80L149.55 84.44ZM185.39 61.88L184.03 55.93L178.53 54.29L174.38 58.60L175.74 64.54L181.25 66.19ZM175.74 64.54L174.38 58.60L168.88 56.96L164.74 61.26L166.10 67.21L171.60 68.85ZM188.18 51.62L186.82 45.67L181.31 44.03L177.16 48.34L178.53 54.29L184.03 55.93ZM178.53 54.29L177.16 48.34L171.66 46.70L167.51 51.01L168.88 56.96L174.38 58.60ZM192.26 69.47L190.90 63.52L185.39 61.88L181.25 66.19L182.61 72.13L188.11 73.78ZM182.61 72.13L181.25 66.19L175.74 64.54L171.60 68.85L172.96 74.80L178.47 76.44ZM195.05 59.22L193.69 53.26L188.18 51.62L184.03 55.93L185.39 61.88L190.90 63.52ZM159.23 59.63L157.87 53.68L152.37 52.04L148.23 56.35L149.59 62.30L155.10 63.94ZM149.59 62.30L148.23 56.35L142.73 54.72L138.59 59.03L139.96 64.97L145.46 66.61ZM162.01 49.37L160.65 43.42L155.14 41.78L151.00 46.10L152.37 52.04L157.87 53.68ZM152.37 52.04L151.00 46.10L145.50 44.46L141.36 48.77L142.73 54.72L148.23 56.35ZM166.10 67.21L164.74 61.26L159.23 59.63L155.10 63.94L156.46 69.88L161.96 71.52ZM156.46 69.88L155.10 63.94L149.59 62.30L145.46 66.61L146.82 72.55L152.32 74.19ZM168.88 56.96L167.51 51.01L162.01 49.37L157.87 53.68L159.23 59.63L164.74 61.26ZM181.13 110.46L179.77 104.52L174.27 102.88L170.13 107.18L171.49 113.12L176.99 114.76ZM171.49 113.12L170.13 107.18L164.64 105.53L160.50 109.83L161.86 115.77L167.36 117.41ZM183.91 100.22L182.55 94.27L177.05 92.63L172.91 96.93L174.27 102.88L179.77 104.52ZM174.27 102.88L172.91 96.93L167.41 95.29L163.28 99.59L164.64 105.53L170.13 107.18ZM187.98 118.04L186.63 112.10L181.13 110.46L176.99 114.76L178.35 120.70L183.85 122.34ZM178.35 120.70L176.99 114.76L171.49 113.12L167.36 117.41L168.72 123.35L174.21 124.99ZM190.77 107.81L189.41 101.86L183.91 100.22L179.77 104.52L181.13 110.46L186.63 112.10ZM155.01 108.20L153.65 102.26L148.15 100.62L144.02 104.92L145.38 110.86L150.88 112.50ZM145.38 110.86L144.02 104.92L138.52 103.29L134.40 107.59L135.76 113.52L141.25 115.16ZM157.78 97.96L156.42 92.01L150.92 90.38L146.79 94.68L148.15 100.62L153.65 102.26ZM148.15 100.62L146.79 94.68L141.29 93.05L137.16 97.35L138.52 103.29L144.02 104.92ZM161.86 115.77L160.50 109.83L155.01 108.20L150.88 112.50L152.24 118.43L157.73 120.07ZM152.24 118.43L150.88 112.50L145.38 110.86L141.25 115.16L142.62 121.10L148.11 122.73ZM164.64 105.53L163.28 99.59L157.78 97.96L153.65 102.26L155.01 108.20L160.50 109.83ZM196.33 87.32L194.98 81.37L189.47 79.72L185.33 84.03L186.69 89.97L192.19 91.62ZM186.69 89.97L185.33 84.03L179.83 82.38L175.69 86.69L177.05 92.63L182.55 94.27ZM199.12 77.06L197.76 71.12L192.26 69.47L188.11 73.78L189.47 79.72L194.98 81.37ZM189.47 79.72L188.11 73.78L182.61 72.13L178.47 76.44L179.83 82.38L185.33 84.03ZM203.19 94.91L201.84 88.96L196.33 87.32L192.19 91.62L193.55 97.56L199.05 99.21ZM193.55 97.56L192.19 91.62L186.69 89.97L182.55 94.27L183.91 100.22L189.41 101.86ZM205.98 84.66L204.63 78.71L199.12 77.06L194.98 81.37L196.33 87.32L201.84 88.96ZM102.82 103.74L101.45 97.80L95.96 96.18L91.84 100.48L93.21 106.41L98.70 108.04ZM93.21 106.41L91.84 100.48L86.35 98.86L82.23 103.16L83.61 109.09L89.09 110.72ZM105.57 93.50L104.20 87.56L98.71 85.94L94.59 90.24L95.96 96.18L101.45 97.80ZM95.96 96.18L94.59 90.24L89.09 88.62L84.98 92.93L86.35 98.86L91.84 100.48ZM109.68 111.30L108.31 105.37L102.82 103.74L98.70 108.04L100.07 113.97L105.56 115.60ZM100.07 113.97L98.70 108.04L93.21 106.41L89.09 110.72L90.46 116.65L95.95 118.27ZM112.43 101.06L111.06 95.13L105.57 93.50L101.45 97.80L102.82 103.74L108.31 105.37ZM117.94 80.58L116.57 74.64L111.08 73.01L106.95 77.32L108.32 83.25L113.81 84.88ZM108.32 83.25L106.95 77.32L101.46 75.69L97.33 80.00L98.71 85.94L104.20 87.56ZM120.70 70.33L119.33 64.39L113.83 62.76L109.70 67.07L111.08 73.01L116.57 74.64ZM111.08 73.01L109.70 67.07L104.21 65.44L100.08 69.75L101.46 75.69L106.95 77.32ZM124.80 88.14L123.44 82.21L117.94 80.58L113.81 84.88L115.18 90.82L120.68 92.45ZM115.18 90.82L113.81 84.88L108.32 83.25L104.20 87.56L105.57 93.50L111.06 95.13ZM127.56 77.90L126.20 71.96L120.70 70.33L116.57 74.64L117.94 80.58L123.44 82.21ZM91.84 78.37L90.47 72.44L84.97 70.82L80.86 75.13L82.23 81.06L87.72 82.68ZM94.59 68.13L93.22 62.19L87.72 60.57L83.60 64.88L84.97 70.82L90.47 72.44ZM98.71 85.94L97.33 80.00L91.84 78.37L87.72 82.68L89.09 88.62L94.59 90.24ZM101.46 75.69L100.08 69.75L94.59 68.13L90.47 72.44L91.84 78.37L97.33 80.00ZM113.78 129.09L112.41 123.16L106.93 121.53L102.81 125.83L104.18 131.76L109.66 133.39ZM104.18 131.76L102.81 125.83L97.32 124.20L93.21 128.51L94.58 134.43L100.06 136.06ZM116.53 118.86L115.17 112.93L109.68 111.30L105.56 115.60L106.93 121.53L112.41 123.16ZM106.93 121.53L105.56 115.60L100.07 113.97L95.95 118.27L97.32 124.20L102.81 125.83ZM120.63 136.65L119.27 130.72L113.78 129.09L109.66 133.39L111.03 139.32L116.51 140.95ZM111.03 139.32L109.66 133.39L104.18 131.76L100.06 136.06L101.43 141.99L106.91 143.62ZM123.39 126.42L122.02 120.49L116.53 118.86L112.41 123.16L113.78 129.09L119.27 130.72ZM90.46 116.65L89.09 110.72L83.61 109.09L79.49 113.40L80.86 119.33L86.35 120.95ZM94.58 134.43L93.21 128.51L87.72 126.88L83.61 131.18L84.98 137.11L90.46 138.73ZM97.32 124.20L95.95 118.27L90.46 116.65L86.35 120.95L87.72 126.88L93.21 128.51ZM128.90 105.96L127.54 100.02L122.04 98.39L117.92 102.69L119.29 108.63L124.78 110.26ZM119.29 108.63L117.92 102.69L112.43 101.06L108.31 105.37L109.68 111.30L115.17 112.93ZM131.67 95.72L130.30 89.78L124.80 88.14L120.68 92.45L122.04 98.39L127.54 100.02ZM122.04 98.39L120.68 92.45L115.18 90.82L111.06 95.13L112.43 101.06L117.92 102.69ZM135.76 113.52L134.40 107.59L128.90 105.96L124.78 110.26L126.15 116.19L131.64 117.83ZM126.15 116.19L124.78 110.26L119.29 108.63L115.17 112.93L116.53 118.86L122.02 120.49ZM138.52 103.29L137.16 97.35L131.67 95.72L127.54 100.02L128.90 105.96L134.40 107.59ZM198.69 209.72L197.34 203.79L191.85 202.14L187.72 206.42L189.08 212.35L194.56 213.99ZM189.08 212.35L187.72 206.42L182.24 204.77L178.11 209.05L179.47 214.98L184.95 216.63ZM201.47 199.50L200.11 193.57L194.63 191.92L190.50 196.21L191.85 202.14L197.34 203.79ZM191.85 202.14L190.50 196.21L185.01 194.56L180.89 198.84L182.24 204.77L187.72 206.42ZM205.52 217.30L204.17 211.37L198.69 209.72L194.56 213.99L195.91 219.92L201.39 221.57ZM195.91 219.92L194.56 213.99L189.08 212.35L184.95 216.63L186.31 222.55L191.79 224.20ZM208.31 207.09L206.95 201.16L201.47 199.50L197.34 203.79L198.69 209.72L204.17 211.37ZM172.63 207.41L171.28 201.48L165.80 199.84L161.67 204.12L163.03 210.04L168.51 211.69ZM163.03 210.04L161.67 204.12L156.19 202.48L152.07 206.76L153.43 212.68L158.91 214.33ZM175.40 197.20L174.05 191.27L168.56 189.62L164.44 193.91L165.80 199.84L171.28 201.48ZM165.80 199.84L164.44 193.91L158.96 192.27L154.83 196.55L156.19 202.48L161.67 204.12ZM179.47 214.98L178.11 209.05L172.63 207.41L168.51 211.69L169.87 217.61L175.35 219.26ZM169.87 217.61L168.51 211.69L163.03 210.04L158.91 214.33L160.27 220.25L165.75 221.89ZM182.24 204.77L180.89 198.84L175.40 197.20L171.28 201.48L172.63 207.41L178.11 209.05ZM213.87 186.66L212.52 180.72L207.03 179.07L202.90 183.36L204.25 189.29L209.74 190.94ZM204.25 189.29L202.90 183.36L197.41 181.71L193.27 185.99L194.63 191.92L200.11 193.57ZM216.66 176.44L215.31 170.50L209.81 168.85L205.68 173.14L207.03 179.07L212.52 180.72ZM207.03 179.07L205.68 173.14L200.19 171.49L196.05 175.77L197.41 181.71L202.90 183.36ZM220.71 194.25L219.36 188.31L213.87 186.66L209.74 190.94L211.09 196.87L216.57 198.53ZM211.09 196.87L209.74 190.94L204.25 189.29L200.11 193.57L201.47 199.50L206.95 201.16ZM223.50 184.03L222.15 178.09L216.66 176.44L212.52 180.72L213.87 186.66L219.36 188.31ZM187.79 184.35L186.43 178.41L180.95 176.77L176.82 181.05L178.17 186.98L183.66 188.63ZM178.17 186.98L176.82 181.05L171.33 179.41L167.20 183.70L168.56 189.62L174.05 191.27ZM190.56 174.13L189.21 168.19L183.72 166.55L179.59 170.84L180.95 176.77L186.43 178.41ZM180.95 176.77L179.59 170.84L174.10 169.19L169.97 173.48L171.33 179.41L176.82 181.05ZM194.63 191.92L193.27 185.99L187.79 184.35L183.66 188.63L185.01 194.56L190.50 196.21ZM185.01 194.56L183.66 188.63L178.17 186.98L174.05 191.27L175.40 197.20L180.89 198.84ZM197.41 181.71L196.05 175.77L190.56 174.13L186.43 178.41L187.79 184.35L193.27 185.99ZM209.58 235.08L208.23 229.15L202.75 227.50L198.62 231.78L199.97 237.70L205.45 239.35ZM199.97 237.70L198.62 231.78L193.14 230.13L189.01 234.40L190.37 240.33L195.84 241.98ZM212.36 224.88L211.01 218.95L205.52 217.30L201.39 221.57L202.75 227.50L208.23 229.15ZM202.75 227.50L201.39 221.57L195.91 219.92L191.79 224.20L193.14 230.13L198.62 231.78ZM216.41 242.66L215.06 236.73L209.58 235.08L205.45 239.35L206.80 245.28L212.28 246.93ZM206.80 245.28L205.45 239.35L199.97 237.70L195.84 241.98L197.19 247.90L202.67 249.55ZM219.19 232.46L217.84 226.53L212.36 224.88L208.23 229.15L209.58 235.08L215.06 236.73ZM183.53 232.75L182.18 226.83L176.70 225.18L172.58 229.46L173.93 235.38L179.41 237.03ZM173.93 235.38L172.58 229.46L167.10 227.82L162.98 232.09L164.34 238.01L169.81 239.66ZM186.31 222.55L184.95 216.63L179.47 214.98L175.35 219.26L176.70 225.18L182.18 226.83ZM176.70 225.18L175.35 219.26L169.87 217.61L165.75 221.89L167.10 227.82L172.58 229.46ZM190.37 240.33L189.01 234.40L183.53 232.75L179.41 237.03L180.77 242.95L186.24 244.60ZM180.77 242.95L179.41 237.03L173.93 235.38L169.81 239.66L171.17 245.58L176.64 247.23ZM193.14 230.13L191.79 224.20L186.31 222.55L182.18 226.83L183.53 232.75L189.01 234.40ZM224.76 212.05L223.41 206.11L217.93 204.46L213.79 208.74L215.14 214.67L220.63 216.32ZM215.14 214.67L213.79 208.74L208.31 207.09L204.17 211.37L205.52 217.30L211.01 218.95ZM227.55 201.83L226.20 195.90L220.71 194.25L216.57 198.53L217.93 204.46L223.41 206.11ZM217.93 204.46L216.57 198.53L211.09 196.87L206.95 201.16L208.31 207.09L213.79 208.74ZM231.60 219.63L230.25 213.70L224.76 212.05L220.63 216.32L221.97 222.25L227.46 223.91ZM221.97 222.25L220.63 216.32L215.14 214.67L211.01 218.95L212.36 224.88L217.84 226.53ZM234.39 209.42L233.04 203.49L227.55 201.83L223.41 206.11L224.76 212.05L230.25 213.70ZM131.49 228.17L130.13 222.25L124.66 220.61L120.55 224.90L121.91 230.81L127.38 232.45ZM121.91 230.81L120.55 224.90L115.08 223.26L110.97 227.54L112.33 233.46L117.80 235.09ZM134.25 217.97L132.88 212.05L127.41 210.41L123.30 214.70L124.66 220.61L130.13 222.25ZM124.66 220.61L123.30 214.70L117.82 213.06L113.71 217.34L115.08 223.26L120.55 224.90ZM138.33 235.73L136.97 229.81L131.49 228.17L127.38 232.45L128.74 238.37L134.22 240.00ZM128.74 238.37L127.38 232.45L121.91 230.81L117.80 235.09L119.17 241.01L124.64 242.64ZM141.08 225.53L139.72 219.61L134.25 217.97L130.13 222.25L131.49 228.17L136.97 229.81ZM105.50 225.91L104.13 220.00L98.66 218.36L94.56 222.65L95.92 228.56L101.39 230.19ZM95.92 228.56L94.56 222.65L89.09 221.02L84.99 225.30L86.35 231.21L91.82 232.84ZM108.24 215.71L106.88 209.79L101.40 208.16L97.30 212.45L98.66 218.36L104.13 220.00ZM98.66 218.36L97.30 212.45L91.82 210.82L87.72 215.10L89.09 221.02L94.56 222.65ZM112.33 233.46L110.97 227.54L105.50 225.91L101.39 230.19L102.76 236.11L108.23 237.74ZM102.76 236.11L101.39 230.19L95.92 228.56L91.82 232.84L93.19 238.76L98.66 240.39ZM115.08 223.26L113.71 217.34L108.24 215.71L104.13 220.00L105.50 225.91L110.97 227.54ZM146.59 205.12L145.23 199.20L139.75 197.56L135.64 201.84L137.00 207.77L142.48 209.40ZM137.00 207.77L135.64 201.84L130.16 200.21L126.05 204.49L127.41 210.41L132.88 212.05ZM149.35 194.91L147.99 188.99L142.51 187.35L138.39 191.63L139.75 197.56L145.23 199.20ZM139.75 197.56L138.39 191.63L132.91 190.00L128.80 194.28L130.16 200.21L135.64 201.84ZM153.43 212.68L152.07 206.76L146.59 205.12L142.48 209.40L143.84 215.33L149.31 216.97ZM143.84 215.33L142.48 209.40L137.00 207.77L132.88 212.05L134.25 217.97L139.72 219.61ZM156.19 202.48L154.83 196.55L149.35 194.91L145.23 199.20L146.59 205.12L152.07 206.76ZM120.57 202.86L119.21 196.94L113.73 195.30L109.62 199.59L110.98 205.51L116.46 207.14ZM110.98 205.51L109.62 199.59L104.14 197.96L100.04 202.24L101.40 208.16L106.88 209.79ZM123.32 192.65L121.96 186.73L116.48 185.09L112.36 189.38L113.73 195.30L119.21 196.94ZM113.73 195.30L112.36 189.38L106.89 187.75L102.78 192.04L104.14 197.96L109.62 199.59ZM127.41 210.41L126.05 204.49L120.57 202.86L116.46 207.14L117.82 213.06L123.30 214.70ZM117.82 213.06L116.46 207.14L110.98 205.51L106.88 209.79L108.24 215.71L113.71 217.34ZM130.16 200.21L128.80 194.28L123.32 192.65L119.21 196.94L120.57 202.86L126.05 204.49ZM142.41 253.48L141.05 247.56L135.58 245.92L131.47 250.20L132.83 256.11L138.30 257.75ZM132.83 256.11L131.47 250.20L126.00 248.56L121.89 252.84L123.25 258.75L128.72 260.39ZM145.16 243.28L143.80 237.37L138.33 235.73L134.22 240.00L135.58 245.92L141.05 247.56ZM135.58 245.92L134.22 240.00L128.74 238.37L124.64 242.64L126.00 248.56L131.47 250.20ZM149.23 261.03L147.88 255.12L142.41 253.48L138.30 257.75L139.65 263.67L145.12 265.31ZM151.99 250.84L150.63 244.92L145.16 243.28L141.05 247.56L142.41 253.48L147.88 255.12ZM116.42 251.20L115.06 245.29L109.59 243.65L105.49 247.93L106.85 253.84L112.32 255.48ZM106.85 253.84L105.49 247.93L100.02 246.30L95.92 250.58L97.28 256.49L102.75 258.12ZM119.17 241.01L117.80 235.09L112.33 233.46L108.23 237.74L109.59 243.65L115.06 245.29ZM109.59 243.65L108.23 237.74L102.76 236.11L98.66 240.39L100.02 246.30L105.49 247.93ZM123.25 258.75L121.89 252.84L116.42 251.20L112.32 255.48L113.68 261.39L119.15 263.02ZM113.68 261.39L112.32 255.48L106.85 253.84L102.75 258.12L104.11 264.03L109.58 265.66ZM126.00 248.56L124.64 242.64L119.17 241.01L115.06 245.29L116.42 251.20L121.89 252.84ZM157.51 230.45L156.15 224.53L150.67 222.89L146.56 227.17L147.91 233.09L153.39 234.73ZM147.91 233.09L146.56 227.17L141.08 225.53L136.97 229.81L138.33 235.73L143.80 237.37ZM160.27 220.25L158.91 214.33L153.43 212.68L149.31 216.97L150.67 222.89L156.15 224.53ZM150.67 222.89L149.31 216.97L143.84 215.33L139.72 219.61L141.08 225.53L146.56 227.17ZM164.34 238.01L162.98 232.09L157.51 230.45L153.39 234.73L154.75 240.65L160.22 242.29ZM154.75 240.65L153.39 234.73L147.91 233.09L143.80 237.37L145.16 243.28L150.63 244.92ZM167.10 227.82L165.75 221.89L160.27 220.25L156.15 224.53L157.51 230.45L162.98 232.09ZM218.18 138.17L216.83 132.23L211.33 130.58L207.19 134.87L208.54 140.81L214.04 142.46ZM208.54 140.81L207.19 134.87L201.69 133.22L197.55 137.51L198.91 143.45L204.40 145.10ZM220.97 127.93L219.62 121.99L214.12 120.34L209.97 124.63L211.33 130.58L216.83 132.23ZM211.33 130.58L209.97 124.63L204.48 122.98L200.33 127.28L201.69 133.22L207.19 134.87ZM225.03 145.76L223.68 139.82L218.18 138.17L214.04 142.46L215.39 148.40L220.88 150.05ZM215.39 148.40L214.04 142.46L208.54 140.81L204.40 145.10L205.75 151.04L211.25 152.69ZM227.82 135.53L226.47 129.59L220.97 127.93L216.83 132.23L218.18 138.17L223.68 139.82ZM192.06 135.87L190.70 129.93L185.20 128.28L181.07 132.58L182.43 138.51L187.92 140.16ZM182.43 138.51L181.07 132.58L175.57 130.93L171.44 135.23L172.80 141.16L178.29 142.81ZM194.84 125.63L193.48 119.69L187.98 118.04L183.85 122.34L185.20 128.28L190.70 129.93ZM185.20 128.28L183.85 122.34L178.35 120.70L174.21 124.99L175.57 130.93L181.07 132.58ZM198.91 143.45L197.55 137.51L192.06 135.87L187.92 140.16L189.28 146.10L194.77 147.74ZM189.28 146.10L187.92 140.16L182.43 138.51L178.29 142.81L179.65 148.74L185.14 150.39ZM201.69 133.22L200.33 127.28L194.84 125.63L190.70 129.93L192.06 135.87L197.55 137.51ZM233.41 115.05L232.06 109.11L226.56 107.45L222.41 111.75L223.76 117.70L229.26 119.35ZM223.76 117.70L222.41 111.75L216.91 110.10L212.76 114.39L214.12 120.34L219.62 121.99ZM236.21 104.81L234.86 98.86L229.36 97.21L225.21 101.50L226.56 107.45L232.06 109.11ZM226.56 107.45L225.21 101.50L219.70 99.85L215.55 104.15L216.91 110.10L222.41 111.75ZM240.27 122.65L238.92 116.71L233.41 115.05L229.26 119.35L230.62 125.29L236.12 126.95ZM230.62 125.29L229.26 119.35L223.76 117.70L219.62 121.99L220.97 127.93L226.47 129.59ZM243.07 112.41L241.72 106.46L236.21 104.81L232.06 109.11L233.41 115.05L238.92 116.71ZM207.26 112.75L205.91 106.80L200.41 105.15L196.26 109.45L197.62 115.39L203.12 117.04ZM197.62 115.39L196.26 109.45L190.77 107.81L186.63 112.10L187.98 118.04L193.48 119.69ZM210.05 102.50L208.70 96.56L203.19 94.91L199.05 99.21L200.41 105.15L205.91 106.80ZM200.41 105.15L199.05 99.21L193.55 97.56L189.41 101.86L190.77 107.81L196.26 109.45ZM214.12 120.34L212.76 114.39L207.26 112.75L203.12 117.04L204.48 122.98L209.97 124.63ZM204.48 122.98L203.12 117.04L197.62 115.39L193.48 119.69L194.84 125.63L200.33 127.28ZM216.91 110.10L215.55 104.15L210.05 102.50L205.91 106.80L207.26 112.75L212.76 114.39ZM229.08 163.59L227.73 157.65L222.24 155.99L218.09 160.28L219.45 166.22L224.94 167.87ZM219.45 166.22L218.09 160.28L212.60 158.63L208.46 162.92L209.81 168.85L215.31 170.50ZM231.88 153.36L230.52 147.42L225.03 145.76L220.88 150.05L222.24 155.99L227.73 157.65ZM222.24 155.99L220.88 150.05L215.39 148.40L211.25 152.69L212.60 158.63L218.09 160.28ZM235.93 171.18L234.58 165.24L229.08 163.59L224.94 167.87L226.29 173.81L231.78 175.46ZM226.29 173.81L224.94 167.87L219.45 166.22L215.31 170.50L216.66 176.44L222.15 178.09ZM238.72 160.95L237.37 155.01L231.88 153.36L227.73 157.65L229.08 163.59L234.58 165.24ZM202.97 161.27L201.62 155.33L196.12 153.68L191.99 157.97L193.34 163.91L198.83 165.55ZM193.34 163.91L191.99 157.97L186.50 156.32L182.36 160.61L183.72 166.55L189.21 168.19ZM205.75 151.04L204.40 145.10L198.91 143.45L194.77 147.74L196.12 153.68L201.62 155.33ZM196.12 153.68L194.77 147.74L189.28 146.10L185.14 150.39L186.50 156.32L191.99 157.97ZM209.81 168.85L208.46 162.92L202.97 161.27L198.83 165.55L200.19 171.49L205.68 173.14ZM200.19 171.49L198.83 165.55L193.34 163.91L189.21 168.19L190.56 174.13L196.05 175.77ZM212.60 158.63L211.25 152.69L205.75 151.04L201.62 155.33L202.97 161.27L208.46 162.92ZM244.32 140.49L242.97 134.55L237.47 132.89L233.32 137.18L234.67 143.13L240.17 144.78ZM234.67 143.13L233.32 137.18L227.82 135.53L223.68 139.82L225.03 145.76L230.52 147.42ZM247.12 130.26L245.77 124.31L240.27 122.65L236.12 126.95L237.47 132.89L242.97 134.55ZM237.47 132.89L236.12 126.95L230.62 125.29L226.47 129.59L227.82 135.53L233.32 137.18ZM251.17 148.10L249.82 142.15L244.32 140.49L240.17 144.78L241.52 150.73L247.02 152.38ZM241.52 150.73L240.17 144.78L234.67 143.13L230.52 147.42L231.88 153.36L237.37 155.01ZM253.97 137.86L252.62 131.91L247.12 130.26L242.97 134.55L244.32 140.49L249.82 142.15ZM247.74 -2.78L246.39 -8.75L240.86 -10.40L236.70 -6.08L238.05 -0.12L243.58 1.53ZM264.31 2.18L262.96 -3.79L257.44 -5.44L253.27 -1.13L254.62 4.84L260.14 6.49ZM254.62 4.84L253.27 -1.13L247.74 -2.78L243.58 1.53L244.93 7.50L250.45 9.15ZM238.05 -0.12L236.70 -6.08L231.18 -7.73L227.01 -3.42L228.37 2.55L233.89 4.20ZM228.37 2.55L227.01 -3.42L221.49 -5.06L217.33 -0.75L218.69 5.21L224.21 6.86ZM258.68 22.74L257.33 16.77L251.80 15.12L247.64 19.43L248.99 25.39L254.51 27.05ZM261.49 12.46L260.14 6.49L254.62 4.84L250.45 9.15L251.80 15.12L257.33 16.77ZM265.55 30.36L264.20 24.39L258.68 22.74L254.51 27.05L255.86 33.01L261.38 34.66ZM242.12 17.78L240.76 11.81L235.25 10.16L231.08 14.47L232.44 20.44L237.96 22.09ZM232.44 20.44L231.08 14.47L225.56 12.82L221.40 17.14L222.76 23.10L228.28 24.75ZM244.93 7.50L243.58 1.53L238.05 -0.12L233.89 4.20L235.25 10.16L240.76 11.81ZM235.25 10.16L233.89 4.20L228.37 2.55L224.21 6.86L225.56 12.82L231.08 14.47ZM248.99 25.39L247.64 19.43L242.12 17.78L237.96 22.09L239.31 28.05L244.83 29.70ZM239.31 28.05L237.96 22.09L232.44 20.44L228.28 24.75L229.63 30.71L235.15 32.36ZM251.80 15.12L250.45 9.15L244.93 7.50L240.76 11.81L242.12 17.78L247.64 19.43ZM189.67 13.23L188.31 7.27L182.80 5.63L178.64 9.95L180.01 15.90L185.52 17.54ZM180.01 15.90L178.64 9.95L173.13 8.31L168.98 12.62L170.35 18.58L175.86 20.22ZM192.46 2.95L191.10 -3.01L185.58 -4.65L181.43 -0.33L182.80 5.63L188.31 7.27ZM182.80 5.63L181.43 -0.33L175.92 -1.97L171.77 2.35L173.13 8.31L178.64 9.95ZM196.55 20.83L195.19 14.87L189.67 13.23L185.52 17.54L186.88 23.50L192.39 25.14ZM186.88 23.50L185.52 17.54L180.01 15.90L175.86 20.22L177.22 26.17L182.73 27.81ZM199.34 10.55L197.98 4.60L192.46 2.95L188.31 7.27L189.67 13.23L195.19 14.87ZM163.47 10.99L162.11 5.03L156.59 3.40L152.45 7.72L153.82 13.67L159.33 15.30ZM153.82 13.67L152.45 7.72L146.94 6.08L142.80 10.40L144.17 16.35L149.67 17.99ZM166.25 0.71L164.89 -5.24L159.37 -6.88L155.23 -2.56L156.59 3.40L162.11 5.03ZM156.59 3.40L155.23 -2.56L149.71 -4.19L145.57 0.13L146.94 6.08L152.45 7.72ZM170.35 18.58L168.98 12.62L163.47 10.99L159.33 15.30L160.69 21.26L166.20 22.89ZM160.69 21.26L159.33 15.30L153.82 13.67L149.67 17.99L151.04 23.94L156.55 25.57ZM173.13 8.31L171.77 2.35L166.25 0.71L162.11 5.03L163.47 10.99L168.98 12.62ZM211.81 -2.39L210.45 -8.36L204.93 -10.00L200.77 -5.68L202.13 0.28L207.65 1.92ZM202.13 0.28L200.77 -5.68L195.26 -7.32L191.10 -3.01L192.46 2.95L197.98 4.60ZM175.92 -1.97L174.55 -7.93L169.04 -9.56L164.89 -5.24L166.25 0.71L171.77 2.35ZM200.63 38.69L199.27 32.74L193.76 31.09L189.61 35.41L190.97 41.36L196.48 43.00ZM190.97 41.36L189.61 35.41L184.10 33.76L179.95 38.08L181.31 44.03L186.82 45.67ZM203.42 28.43L202.06 22.47L196.55 20.83L192.39 25.14L193.76 31.09L199.27 32.74ZM193.76 31.09L192.39 25.14L186.88 23.50L182.73 27.81L184.10 33.76L189.61 35.41ZM207.50 46.29L206.14 40.34L200.63 38.69L196.48 43.00L197.84 48.96L203.34 50.60ZM197.84 48.96L196.48 43.00L190.97 41.36L186.82 45.67L188.18 51.62L193.69 53.26ZM210.29 36.03L208.93 30.07L203.42 28.43L199.27 32.74L200.63 38.69L206.14 40.34ZM174.44 36.44L173.08 30.48L167.57 28.85L163.42 33.16L164.79 39.11L170.29 40.75ZM164.79 39.11L163.42 33.16L157.92 31.52L153.77 35.84L155.14 41.78L160.65 43.42ZM177.22 26.17L175.86 20.22L170.35 18.58L166.20 22.89L167.57 28.85L173.08 30.48ZM167.57 28.85L166.20 22.89L160.69 21.26L156.55 25.57L157.92 31.52L163.42 33.16ZM181.31 44.03L179.95 38.08L174.44 36.44L170.29 40.75L171.66 46.70L177.16 48.34ZM171.66 46.70L170.29 40.75L164.79 39.11L160.65 43.42L162.01 49.37L167.51 51.01ZM184.10 33.76L182.73 27.81L177.22 26.17L173.08 30.48L174.44 36.44L179.95 38.08ZM215.89 15.49L214.53 9.53L209.01 7.88L204.86 12.20L206.22 18.16L211.73 19.80ZM206.22 18.16L204.86 12.20L199.34 10.55L195.19 14.87L196.55 20.83L202.06 22.47ZM218.69 5.21L217.33 -0.75L211.81 -2.39L207.65 1.92L209.01 7.88L214.53 9.53ZM209.01 7.88L207.65 1.92L202.13 0.28L197.98 4.60L199.34 10.55L204.86 12.20ZM222.76 23.10L221.40 17.14L215.89 15.49L211.73 19.80L213.09 25.76L218.60 27.41ZM213.09 25.76L211.73 19.80L206.22 18.16L202.06 22.47L203.42 28.43L208.93 30.07ZM225.56 12.82L224.21 6.86L218.69 5.21L214.53 9.53L215.89 15.49L221.40 17.14ZM237.76 66.45L236.41 60.49L230.90 58.84L226.74 63.15L228.09 69.10L233.60 70.75ZM228.09 69.10L226.74 63.15L221.23 61.50L217.08 65.80L218.43 71.75L223.94 73.40ZM240.57 56.19L239.21 50.23L233.70 48.58L229.54 52.89L230.90 58.84L236.41 60.49ZM230.90 58.84L229.54 52.89L224.03 51.24L219.87 55.54L221.23 61.50L226.74 63.15ZM244.62 74.06L243.27 68.10L237.76 66.45L233.60 70.75L234.96 76.71L240.47 78.36ZM234.96 76.71L233.60 70.75L228.09 69.10L223.94 73.40L225.30 79.36L230.80 81.01ZM247.43 63.80L246.08 57.84L240.57 56.19L236.41 60.49L237.76 66.45L243.27 68.10ZM211.57 64.15L210.21 58.20L204.70 56.55L200.55 60.86L201.91 66.81L207.42 68.46ZM201.91 66.81L200.55 60.86L195.05 59.22L190.90 63.52L192.26 69.47L197.76 71.12ZM214.36 53.89L213.01 47.94L207.50 46.29L203.34 50.60L204.70 56.55L210.21 58.20ZM204.70 56.55L203.34 50.60L197.84 48.96L193.69 53.26L195.05 59.22L200.55 60.86ZM218.43 71.75L217.08 65.80L211.57 64.15L207.42 68.46L208.78 74.41L214.28 76.06ZM208.78 74.41L207.42 68.46L201.91 66.81L197.76 71.12L199.12 77.06L204.63 78.71ZM221.23 61.50L219.87 55.54L214.36 53.89L210.21 58.20L211.57 64.15L217.08 65.80ZM253.05 43.28L251.70 37.31L246.18 35.66L242.02 39.97L243.37 45.93L248.89 47.58ZM243.37 45.93L242.02 39.97L236.50 38.32L232.34 42.62L233.70 48.58L239.21 50.23ZM255.86 33.01L254.51 27.05L248.99 25.39L244.83 29.70L246.18 35.66L251.70 37.31ZM246.18 35.66L244.83 29.70L239.31 28.05L235.15 32.36L236.50 38.32L242.02 39.97ZM259.92 50.89L258.57 44.93L253.05 43.28L248.89 47.58L250.24 53.54L255.75 55.20ZM250.24 53.54L248.89 47.58L243.37 45.93L239.21 50.23L240.57 56.19L246.08 57.84ZM262.73 40.63L261.38 34.66L255.86 33.01L251.70 37.31L253.05 43.28L258.57 44.93ZM226.83 40.97L225.47 35.02L219.96 33.37L215.80 37.68L217.16 43.63L222.67 45.28ZM217.16 43.63L215.80 37.68L210.29 36.03L206.14 40.34L207.50 46.29L213.01 47.94ZM229.63 30.71L228.28 24.75L222.76 23.10L218.60 27.41L219.96 33.37L225.47 35.02ZM219.96 33.37L218.60 27.41L213.09 25.76L208.93 30.07L210.29 36.03L215.80 37.68ZM233.70 48.58L232.34 42.62L226.83 40.97L222.67 45.28L224.03 51.24L229.54 52.89ZM224.03 51.24L222.67 45.28L217.16 43.63L213.01 47.94L214.36 53.89L219.87 55.54ZM236.50 38.32L235.15 32.36L229.63 30.71L225.47 35.02L226.83 40.97L232.34 42.62ZM248.68 91.92L247.33 85.97L241.82 84.31L237.66 88.61L239.02 94.56L244.52 96.22ZM239.02 94.56L237.66 88.61L232.16 86.96L228.00 91.26L229.36 97.21L234.86 98.86ZM251.48 81.67L250.13 75.71L244.62 74.06L240.47 78.36L241.82 84.31L247.33 85.97ZM241.82 84.31L240.47 78.36L234.96 76.71L230.80 81.01L232.16 86.96L237.66 88.61ZM255.54 99.53L254.19 93.58L248.68 91.92L244.52 96.22L245.87 102.17L251.38 103.82ZM245.87 102.17L244.52 96.22L239.02 94.56L234.86 98.86L236.21 104.81L241.72 106.46ZM258.34 89.28L256.99 83.32L251.48 81.67L247.33 85.97L248.68 91.92L254.19 93.58ZM222.50 89.61L221.14 83.66L215.64 82.01L211.49 86.31L212.84 92.26L218.35 93.91ZM212.84 92.26L211.49 86.31L205.98 84.66L201.84 88.96L203.19 94.91L208.70 96.56ZM225.30 79.36L223.94 73.40L218.43 71.75L214.28 76.06L215.64 82.01L221.14 83.66ZM215.64 82.01L214.28 76.06L208.78 74.41L204.63 78.71L205.98 84.66L211.49 86.31ZM229.36 97.21L228.00 91.26L222.50 89.61L218.35 93.91L219.70 99.85L225.21 101.50ZM219.70 99.85L218.35 93.91L212.84 92.26L208.70 96.56L210.05 102.50L215.55 104.15ZM232.16 86.96L230.80 81.01L225.30 79.36L221.14 83.66L222.50 89.61L228.00 91.26ZM263.97 68.77L262.62 62.81L257.10 61.15L252.94 65.46L254.29 71.41L259.81 73.07ZM254.29 71.41L252.94 65.46L247.43 63.80L243.27 68.10L244.62 74.06L250.13 75.71ZM266.78 58.51L265.43 52.55L259.92 50.89L255.75 55.20L257.10 61.15L262.62 62.81ZM257.10 61.15L255.75 55.20L250.24 53.54L246.08 57.84L247.43 63.80L252.94 65.46ZM261.16 79.03L259.81 73.07L254.29 71.41L250.13 75.71L251.48 81.67L256.99 83.32ZM246.50 262.80L245.16 256.87L239.68 255.21L235.54 259.48L236.89 265.41L242.37 267.07ZM249.29 252.60L247.95 246.67L242.47 245.01L238.33 249.28L239.68 255.21L245.16 256.87ZM239.68 255.21L238.33 249.28L232.85 247.63L228.72 251.90L230.06 257.82L235.54 259.48ZM256.12 260.19L254.78 254.27L249.29 252.60L245.16 256.87L246.50 262.80L251.98 264.46ZM220.45 260.44L219.11 254.51L213.63 252.86L209.50 257.13L210.85 263.05L216.32 264.70ZM210.85 263.05L209.50 257.13L204.02 255.47L199.90 259.74L201.25 265.67L206.72 267.32ZM223.24 250.24L221.89 244.31L216.41 242.66L212.28 246.93L213.63 252.86L219.11 254.51ZM213.63 252.86L212.28 246.93L206.80 245.28L202.67 249.55L204.02 255.47L209.50 257.13ZM230.06 257.82L228.72 251.90L223.24 250.24L219.11 254.51L220.45 260.44L225.93 262.09ZM261.71 239.80L260.37 233.86L254.88 232.20L250.74 236.47L252.09 242.40L257.57 244.07ZM252.09 242.40L250.74 236.47L245.26 234.81L241.12 239.08L242.47 245.01L247.95 246.67ZM264.51 229.59L263.17 223.66L257.68 222.00L253.54 226.27L254.88 232.20L260.37 233.86ZM254.88 232.20L253.54 226.27L248.05 224.61L243.91 228.88L245.26 234.81L250.74 236.47ZM258.91 250.00L257.57 244.07L252.09 242.40L247.95 246.67L249.29 252.60L254.78 254.27ZM235.64 237.43L234.29 231.50L228.81 229.84L224.67 234.11L226.02 240.04L231.50 241.70ZM226.02 240.04L224.67 234.11L219.19 232.46L215.06 236.73L216.41 242.66L221.89 244.31ZM238.43 227.22L237.08 221.29L231.60 219.63L227.46 223.91L228.81 229.84L234.29 231.50ZM228.81 229.84L227.46 223.91L221.97 222.25L217.84 226.53L219.19 232.46L224.67 234.11ZM242.47 245.01L241.12 239.08L235.64 237.43L231.50 241.70L232.85 247.63L238.33 249.28ZM232.85 247.63L231.50 241.70L226.02 240.04L221.89 244.31L223.24 250.24L228.72 251.90ZM245.26 234.81L243.91 228.88L238.43 227.22L234.29 231.50L235.64 237.43L241.12 239.08ZM265.74 257.59L264.40 251.66L258.91 250.00L254.78 254.27L256.12 260.19L261.60 261.86ZM194.42 258.09L193.07 252.17L187.59 250.52L183.47 254.79L184.83 260.72L190.30 262.36ZM184.83 260.72L183.47 254.79L178.00 253.15L173.88 257.42L175.23 263.34L180.70 264.99ZM197.19 247.90L195.84 241.98L190.37 240.33L186.24 244.60L187.59 250.52L193.07 252.17ZM187.59 250.52L186.24 244.60L180.77 242.95L176.64 247.23L178.00 253.15L183.47 254.79ZM204.02 255.47L202.67 249.55L197.19 247.90L193.07 252.17L194.42 258.09L199.90 259.74ZM168.41 255.77L167.05 249.85L161.58 248.21L157.46 252.48L158.82 258.40L164.29 260.05ZM158.82 258.40L157.46 252.48L151.99 250.84L147.88 255.12L149.23 261.03L154.70 262.68ZM171.17 245.58L169.81 239.66L164.34 238.01L160.22 242.29L161.58 248.21L167.05 249.85ZM161.58 248.21L160.22 242.29L154.75 240.65L150.63 244.92L151.99 250.84L157.46 252.48ZM175.23 263.34L173.88 257.42L168.41 255.77L164.29 260.05L165.64 265.96L171.12 267.61ZM178.00 253.15L176.64 247.23L171.17 245.58L167.05 249.85L168.41 255.77L173.88 257.42ZM79.52 223.67L78.15 217.76L72.68 216.13L68.58 220.42L69.95 226.33L75.42 227.96ZM82.25 213.48L80.88 207.56L75.41 205.93L71.31 210.22L72.68 216.13L78.15 217.76ZM86.35 231.21L84.99 225.30L79.52 223.67L75.42 227.96L76.79 233.87L82.25 235.50ZM89.09 221.02L87.72 215.10L82.25 213.48L78.15 217.76L79.52 223.67L84.99 225.30ZM78.16 261.78L76.80 255.88L71.33 254.25L67.24 258.53L68.61 264.43L74.07 266.06ZM90.45 248.95L89.09 243.04L83.62 241.41L79.52 245.69L80.89 251.60L86.36 253.23ZM80.89 251.60L79.52 245.69L74.06 244.06L69.96 248.34L71.33 254.25L76.80 255.88ZM93.19 238.76L91.82 232.84L86.35 231.21L82.25 235.50L83.62 241.41L89.09 243.04ZM83.62 241.41L82.25 235.50L76.79 233.87L72.69 238.15L74.06 244.06L79.52 245.69ZM97.28 256.49L95.92 250.58L90.45 248.95L86.36 253.23L87.72 259.13L93.18 260.76ZM87.72 259.13L86.36 253.23L80.89 251.60L76.80 255.88L78.16 261.78L83.62 263.41ZM100.02 246.30L98.66 240.39L93.19 238.76L89.09 243.04L90.45 248.95L95.92 250.58ZM122.11 31.99L120.74 26.04L115.24 24.41L111.11 28.73L112.48 34.68L117.98 36.30ZM112.48 34.68L111.11 28.73L105.60 27.11L101.47 31.42L102.85 37.37L108.35 38.99ZM124.88 21.73L123.51 15.78L118.00 14.15L113.87 18.47L115.24 24.41L120.74 26.04ZM115.24 24.41L113.87 18.47L108.36 16.84L104.23 21.16L105.60 27.11L111.11 28.73ZM128.98 39.56L127.62 33.62L122.11 31.99L117.98 36.30L119.35 42.25L124.85 43.88ZM119.35 42.25L117.98 36.30L112.48 34.68L108.35 38.99L109.72 44.94L115.22 46.56ZM131.75 29.30L130.38 23.36L124.88 21.73L120.74 26.04L122.11 31.99L127.62 33.62ZM102.85 37.37L101.47 31.42L95.97 29.80L91.85 34.12L93.22 40.06L98.72 41.68ZM105.60 27.11L104.23 21.16L98.73 19.54L94.60 23.86L95.97 29.80L101.47 31.42ZM137.29 8.77L135.92 2.82L130.41 1.19L126.27 5.51L127.64 11.46L133.15 13.09ZM127.64 11.46L126.27 5.51L120.76 3.88L116.63 8.20L118.00 14.15L123.51 15.78ZM140.06 -1.50L138.69 -7.46L133.18 -9.09L129.04 -4.76L130.41 1.19L135.92 2.82ZM130.41 1.19L129.04 -4.76L123.53 -6.39L119.39 -2.07L120.76 3.88L126.27 5.51ZM144.17 16.35L142.80 10.40L137.29 8.77L133.15 13.09L134.52 19.04L140.03 20.67ZM134.52 19.04L133.15 13.09L127.64 11.46L123.51 15.78L124.88 21.73L130.38 23.36ZM146.94 6.08L145.57 0.13L140.06 -1.50L135.92 2.82L137.29 8.77L142.80 10.40ZM111.12 6.57L109.75 0.63L104.24 -1.00L100.11 3.32L101.48 9.27L106.99 10.90ZM118.00 14.15L116.63 8.20L111.12 6.57L106.99 10.90L108.36 16.84L113.87 18.47ZM108.36 16.84L106.99 10.90L101.48 9.27L97.35 13.59L98.73 19.54L104.23 21.16ZM133.09 57.40L131.72 51.45L126.22 49.82L122.09 54.14L123.46 60.08L128.96 61.71ZM123.46 60.08L122.09 54.14L116.59 52.51L112.46 56.82L113.83 62.76L119.33 64.39ZM135.86 47.14L134.49 41.20L128.98 39.56L124.85 43.88L126.22 49.82L131.72 51.45ZM126.22 49.82L124.85 43.88L119.35 42.25L115.22 46.56L116.59 52.51L122.09 54.14ZM139.96 64.97L138.59 59.03L133.09 57.40L128.96 61.71L130.33 67.65L135.82 69.28ZM130.33 67.65L128.96 61.71L123.46 60.08L119.33 64.39L120.70 70.33L126.20 71.96ZM142.73 54.72L141.36 48.77L135.86 47.14L131.72 51.45L133.09 57.40L138.59 59.03ZM106.96 55.19L105.59 49.25L100.09 47.62L95.97 51.94L97.34 57.88L102.84 59.50ZM97.34 57.88L95.97 51.94L90.47 50.31L86.35 54.63L87.72 60.57L93.22 62.19ZM109.72 44.94L108.35 38.99L102.85 37.37L98.72 41.68L100.09 47.62L105.59 49.25ZM113.83 62.76L112.46 56.82L106.96 55.19L102.84 59.50L104.21 65.44L109.70 67.07ZM104.21 65.44L102.84 59.50L97.34 57.88L93.22 62.19L94.59 68.13L100.08 69.75ZM116.59 52.51L115.22 46.56L109.72 44.94L105.59 49.25L106.96 55.19L112.46 56.82ZM148.27 34.20L146.90 28.25L141.39 26.62L137.26 30.93L138.62 36.88L144.13 38.52ZM138.62 36.88L137.26 30.93L131.75 29.30L127.62 33.62L128.98 39.56L134.49 41.20ZM151.04 23.94L149.67 17.99L144.17 16.35L140.03 20.67L141.39 26.62L146.90 28.25ZM141.39 26.62L140.03 20.67L134.52 19.04L130.38 23.36L131.75 29.30L137.26 30.93ZM155.14 41.78L153.77 35.84L148.27 34.20L144.13 38.52L145.50 44.46L151.00 46.10ZM145.50 44.46L144.13 38.52L138.62 36.88L134.49 41.20L135.86 47.14L141.36 48.77ZM157.92 31.52L156.55 25.57L151.04 23.94L146.90 28.25L148.27 34.20L153.77 35.84ZM149.71 -4.19L148.35 -10.15L142.83 -11.78L138.69 -7.46L140.06 -1.50L145.57 0.13Z"/></svg>
