<svg xmlns="http://www.w3.org/2000/svg" width="256" height="256" viewBox="0 0 256 256"><path data-band="2" fill="#f97316" fill-opacity="0.35" d="M3.76 -4.20L2.39 -10.06L-3.02 -11.68L-7.07 -7.44L-5.70 -1.58L-0.29 0.04ZM1.08 5.90L-0.29 0.04L-5.70 -1.58L-9.74 2.66L-8.38 8.52L-2.97 10.14ZM2.50 33.56L1.13 27.71L-4.27 26.08L-8.31 30.32L-6.95 36.17L-1.54 37.79Z"/><path data-band="3" fill="#dc2626" fill-opacity="0.35" d="M10.54 3.29L9.17 -2.57L3.76 -4.20L-0.29 0.04L1.08 5.90L6.49 7.52ZM6.60 51.12L5.23 45.27L-0.18 43.65L-4.22 47.88L-2.85 53.73L2.56 55.35ZM9.27 41.04L7.91 35.19L2.50 33.56L-1.54 37.79L-0.18 43.65L5.23 45.27ZM14.63 20.87L13.27 15.01L7.86 13.38L3.81 17.62L5.18 23.47L10.59 25.10ZM5.18 23.47L3.81 17.62L-1.60 15.99L-5.64 20.23L-4.27 26.08L1.13 27.71ZM17.32 10.77L15.95 4.91L10.54 3.29L6.49 7.52L7.86 13.38L13.27 15.01ZM7.86 13.38L6.49 7.52L1.08 5.90L-2.97 10.14L-1.60 15.99L3.81 17.62ZM21.41 28.35L20.05 22.49L14.63 20.87L10.59 25.10L11.95 30.96L17.36 32.58ZM11.95 30.96L10.59 25.10L5.18 23.47L1.13 27.71L2.50 33.56L7.91 35.19ZM24.10 18.26L22.73 12.40L17.32 10.77L13.27 15.01L14.63 20.87L20.05 22.49ZM197.20 158.11L195.87 152.24L190.46 150.58L186.38 154.78L187.72 160.64L193.13 162.30ZM187.72 160.64L186.38 154.78L180.97 153.12L176.90 157.32L178.24 163.18L183.65 164.84ZM199.94 148.05L198.61 142.18L193.19 140.52L189.12 144.72L190.46 150.58L195.87 152.24ZM190.46 150.58L189.12 144.72L183.71 143.06L179.64 147.26L180.97 153.12L186.38 154.78ZM203.94 165.63L202.61 159.77L197.20 158.11L193.13 162.30L194.46 168.16L199.87 169.83ZM194.46 168.16L193.13 162.30L187.72 160.64L183.65 164.84L184.98 170.69L190.39 172.36ZM206.69 155.57L205.35 149.71L199.94 148.05L195.87 152.24L197.20 158.11L202.61 159.77ZM171.49 155.66L170.16 149.80L164.75 148.14L160.68 152.34L162.02 158.20L167.43 159.86ZM162.02 158.20L160.68 152.34L155.27 150.69L151.21 154.89L152.55 160.74L157.96 162.40ZM174.23 145.60L172.89 139.74L167.48 138.08L163.41 142.28L164.75 148.14L170.16 149.80ZM164.75 148.14L163.41 142.28L158.00 140.63L153.93 144.83L155.27 150.69L160.68 152.34ZM178.24 163.18L176.90 157.32L171.49 155.66L167.43 159.86L168.77 165.71L174.17 167.37ZM168.77 165.71L167.43 159.86L162.02 158.20L157.96 162.40L159.29 168.25L164.70 169.91ZM180.97 153.12L179.64 147.26L174.23 145.60L170.16 149.80L171.49 155.66L176.90 157.32ZM212.18 135.45L210.84 129.58L205.43 127.92L201.35 132.12L202.68 137.98L208.10 139.65ZM202.68 137.98L201.35 132.12L195.93 130.46L191.86 134.66L193.19 140.52L198.61 142.18ZM214.93 125.38L213.59 119.51L208.17 117.85L204.09 122.05L205.43 127.92L210.84 129.58ZM205.43 127.92L204.09 122.05L198.68 120.39L194.60 124.59L195.93 130.46L201.35 132.12ZM218.93 142.98L217.59 137.11L212.18 135.45L208.10 139.65L209.43 145.51L214.85 147.18ZM209.43 145.51L208.10 139.65L202.68 137.98L198.61 142.18L199.94 148.05L205.35 149.71ZM221.68 132.92L220.34 127.05L214.93 125.38L210.84 129.58L212.18 135.45L217.59 137.11ZM186.45 133.00L185.11 127.13L179.69 125.47L175.62 129.67L176.96 135.54L182.37 137.20ZM176.96 135.54L175.62 129.67L170.21 128.02L166.14 132.22L167.48 138.08L172.89 139.74ZM189.18 122.93L187.85 117.06L182.43 115.40L178.36 119.61L179.69 125.47L185.11 127.13ZM179.69 125.47L178.36 119.61L172.94 117.95L168.87 122.15L170.21 128.02L175.62 129.67ZM193.19 140.52L191.86 134.66L186.45 133.00L182.37 137.20L183.71 143.06L189.12 144.72ZM183.71 143.06L182.37 137.20L176.96 135.54L172.89 139.74L174.23 145.60L179.64 147.26ZM195.93 130.46L194.60 124.59L189.18 122.93L185.11 127.13L186.45 133.00L191.86 134.66ZM207.94 183.21L206.61 177.35L201.20 175.69L197.13 179.88L198.46 185.74L203.87 187.40ZM198.46 185.74L197.13 179.88L191.72 178.22L187.65 182.41L188.99 188.26L194.39 189.93ZM210.69 173.16L209.35 167.30L203.94 165.63L199.87 169.83L201.20 175.69L206.61 177.35ZM201.20 175.69L199.87 169.83L194.46 168.16L190.39 172.36L191.72 178.22L197.13 179.88ZM214.68 190.74L213.35 184.88L207.94 183.21L203.87 187.40L205.20 193.26L210.61 194.93ZM205.20 193.26L203.87 187.40L198.46 185.74L194.39 189.93L195.73 195.78L201.13 197.45ZM217.43 180.69L216.10 174.83L210.69 173.16L206.61 177.35L207.94 183.21L213.35 184.88ZM182.25 180.75L180.91 174.89L175.51 173.23L171.44 177.42L172.78 183.28L178.18 184.94ZM172.78 183.28L171.44 177.42L166.04 175.77L161.97 179.96L163.31 185.81L168.71 187.47ZM184.98 170.69L183.65 164.84L178.24 163.18L174.17 167.37L175.51 173.23L180.91 174.89ZM175.51 173.23L174.17 167.37L168.77 165.71L164.70 169.91L166.04 175.77L171.44 177.42ZM188.99 188.26L187.65 182.41L182.25 180.75L178.18 184.94L179.52 190.79L184.92 192.46ZM179.52 190.79L178.18 184.94L172.78 183.28L168.71 187.47L170.05 193.33L175.45 194.99ZM191.72 178.22L190.39 172.36L184.98 170.69L180.91 174.89L182.25 180.75L187.65 182.41ZM222.92 160.58L221.59 154.71L216.18 153.04L212.10 157.24L213.43 163.10L218.84 164.77ZM213.43 163.10L212.10 157.24L206.69 155.57L202.61 159.77L203.94 165.63L209.35 167.30ZM225.67 150.52L224.34 144.65L218.93 142.98L214.85 147.18L216.18 153.04L221.59 154.71ZM216.18 153.04L214.85 147.18L209.43 145.51L205.35 149.71L206.69 155.57L212.10 157.24ZM229.66 168.11L228.33 162.24L222.92 160.58L218.84 164.77L220.17 170.63L225.58 172.30ZM220.17 170.63L218.84 164.77L213.43 163.10L209.35 167.30L210.69 173.16L216.10 174.83ZM232.42 158.05L231.09 152.18L225.67 150.52L221.59 154.71L222.92 160.58L228.33 162.24ZM130.91 175.88L129.56 170.03L124.16 168.38L120.11 172.58L121.45 178.43L126.85 180.08ZM121.45 178.43L120.11 172.58L114.71 170.93L110.66 175.13L112.00 180.98L117.40 182.63ZM133.62 165.83L132.28 159.98L126.88 158.33L122.82 162.53L124.16 168.38L129.56 170.03ZM124.16 168.38L122.82 162.53L117.42 160.88L113.36 165.08L114.71 170.93L120.11 172.58ZM137.65 183.38L136.31 177.53L130.91 175.88L126.85 180.08L128.19 185.93L133.59 187.58ZM128.19 185.93L126.85 180.08L121.45 178.43L117.40 182.63L118.74 188.47L124.14 190.12ZM140.37 173.34L139.02 167.49L133.62 165.83L129.56 170.03L130.91 175.88L136.31 177.53ZM105.26 173.48L103.91 167.63L98.52 165.99L94.47 170.19L95.81 176.03L101.21 177.68ZM95.81 176.03L94.47 170.19L89.07 168.54L85.02 172.75L86.37 178.59L91.77 180.23ZM107.96 163.43L106.62 157.58L101.22 155.94L97.17 160.14L98.52 165.99L103.91 167.63ZM98.52 165.99L97.17 160.14L91.77 158.49L87.72 162.70L89.07 168.54L94.47 170.19ZM112.00 180.98L110.66 175.13L105.26 173.48L101.21 177.68L102.56 183.53L107.95 185.17ZM102.56 183.53L101.21 177.68L95.81 176.03L91.77 180.23L93.11 186.08L98.51 187.72ZM114.71 170.93L113.36 165.08L107.96 163.43L103.91 167.63L105.26 173.48L110.66 175.13ZM145.80 153.23L144.46 147.38L139.06 145.72L135.00 149.93L136.34 155.78L141.74 157.43ZM136.34 155.78L135.00 149.93L129.59 148.27L125.53 152.48L126.88 158.33L132.28 159.98ZM148.53 143.17L147.18 137.32L141.78 135.66L137.71 139.87L139.06 145.72L144.46 147.38ZM139.06 145.72L137.71 139.87L132.31 138.22L128.25 142.42L129.59 148.27L135.00 149.93ZM152.55 160.74L151.21 154.89L145.80 153.23L141.74 157.43L143.08 163.29L148.49 164.94ZM143.08 163.29L141.74 157.43L136.34 155.78L132.28 159.98L133.62 165.83L139.02 167.49ZM155.27 150.69L153.93 144.83L148.53 143.17L144.46 147.38L145.80 153.23L151.21 154.89ZM120.13 150.83L118.78 144.97L113.38 143.33L109.33 147.53L110.67 153.38L116.07 155.03ZM110.67 153.38L109.33 147.53L103.92 145.88L99.87 150.09L101.22 155.94L106.62 157.58ZM122.84 140.77L121.50 134.91L116.09 133.27L112.03 137.47L113.38 143.33L118.78 144.97ZM113.38 143.33L112.03 137.47L106.63 135.83L102.58 140.03L103.92 145.88L109.33 147.53ZM126.88 158.33L125.53 152.48L120.13 150.83L116.07 155.03L117.42 160.88L122.82 162.53ZM117.42 160.88L116.07 155.03L110.67 153.38L106.62 157.58L107.96 163.43L113.36 165.08ZM129.59 148.27L128.25 142.42L122.84 140.77L118.78 144.97L120.13 150.83L125.53 152.48ZM141.67 200.93L140.33 195.08L134.93 193.43L130.88 197.62L132.22 203.47L137.62 205.12ZM132.22 203.47L130.88 197.62L125.48 195.97L121.43 200.16L122.77 206.01L128.17 207.66ZM144.39 190.89L143.05 185.04L137.65 183.38L133.59 187.58L134.93 193.43L140.33 195.08ZM134.93 193.43L133.59 187.58L128.19 185.93L124.14 190.12L125.48 195.97L130.88 197.62ZM148.41 208.43L147.07 202.59L141.67 200.93L137.62 205.12L138.96 210.97L144.35 212.62ZM138.96 210.97L137.62 205.12L132.22 203.47L128.17 207.66L129.51 213.51L134.90 215.16ZM151.13 198.39L149.79 192.54L144.39 190.89L140.33 195.08L141.67 200.93L147.07 202.59ZM116.04 198.51L114.69 192.67L109.30 191.02L105.25 195.22L106.59 201.06L111.99 202.71ZM106.59 201.06L105.25 195.22L99.85 193.57L95.81 197.76L97.16 203.61L102.55 205.25ZM118.74 188.47L117.40 182.63L112.00 180.98L107.95 185.17L109.30 191.02L114.69 192.67ZM109.30 191.02L107.95 185.17L102.56 183.53L98.51 187.72L99.85 193.57L105.25 195.22ZM122.77 206.01L121.43 200.16L116.04 198.51L111.99 202.71L113.33 208.55L118.72 210.20ZM113.33 208.55L111.99 202.71L106.59 201.06L102.55 205.25L103.89 211.10L109.28 212.74ZM125.48 195.97L124.14 190.12L118.74 188.47L114.69 192.67L116.04 198.51L121.43 200.16ZM156.57 178.30L155.23 172.45L149.83 170.79L145.77 174.99L147.11 180.84L152.51 182.50ZM147.11 180.84L145.77 174.99L140.37 173.34L136.31 177.53L137.65 183.38L143.05 185.04ZM159.29 168.25L157.96 162.40L152.55 160.74L148.49 164.94L149.83 170.79L155.23 172.45ZM149.83 170.79L148.49 164.94L143.08 163.29L139.02 167.49L140.37 173.34L145.77 174.99ZM163.31 185.81L161.97 179.96L156.57 178.30L152.51 182.50L153.85 188.35L159.25 190.01ZM153.85 188.35L152.51 182.50L147.11 180.84L143.05 185.04L144.39 190.89L149.79 192.54ZM166.04 175.77L164.70 169.91L159.29 168.25L155.23 172.45L156.57 178.30L161.97 179.96ZM216.42 87.62L215.09 81.74L209.67 80.08L205.58 84.29L206.92 90.16L212.34 91.82ZM206.92 90.16L205.58 84.29L200.16 82.62L196.07 86.83L197.41 92.71L202.83 94.37ZM219.18 77.53L217.84 71.66L212.42 69.99L208.33 74.20L209.67 80.08L215.09 81.74ZM209.67 80.08L208.33 74.20L202.91 72.54L198.82 76.75L200.16 82.62L205.58 84.29ZM223.18 95.16L221.85 89.28L216.42 87.62L212.34 91.82L213.67 97.70L219.09 99.36ZM213.67 97.70L212.34 91.82L206.92 90.16L202.83 94.37L204.17 100.24L209.59 101.90ZM225.94 85.07L224.60 79.20L219.18 77.53L215.09 81.74L216.42 87.62L221.85 89.28ZM190.65 85.17L189.31 79.30L183.89 77.64L179.81 81.85L181.15 87.72L186.57 89.38ZM181.15 87.72L179.81 81.85L174.39 80.20L170.31 84.41L171.66 90.28L177.07 91.93ZM193.40 75.09L192.06 69.22L186.63 67.56L182.55 71.77L183.89 77.64L189.31 79.30ZM183.89 77.64L182.55 71.77L177.13 70.11L173.05 74.33L174.39 80.20L179.81 81.85ZM197.41 92.71L196.07 86.83L190.65 85.17L186.57 89.38L187.91 95.25L193.33 96.91ZM187.91 95.25L186.57 89.38L181.15 87.72L177.07 91.93L178.41 97.80L183.83 99.46ZM200.16 82.62L198.82 76.75L193.40 75.09L189.31 79.30L190.65 85.17L196.07 86.83ZM231.45 64.90L230.12 59.02L224.69 57.35L220.60 61.57L221.93 67.44L227.36 69.11ZM221.93 67.44L220.60 61.57L215.17 59.90L211.08 64.11L212.42 69.99L217.84 71.66ZM234.22 54.81L232.88 48.93L227.45 47.26L223.36 51.47L224.69 57.35L230.12 59.02ZM224.69 57.35L223.36 51.47L217.93 49.81L213.83 54.02L215.17 59.90L220.60 61.57ZM238.22 72.45L236.88 66.57L231.45 64.90L227.36 69.11L228.69 74.99L234.12 76.66ZM228.69 74.99L227.36 69.11L221.93 67.44L217.84 71.66L219.18 77.53L224.60 79.20ZM240.98 62.36L239.65 56.47L234.22 54.81L230.12 59.02L231.45 64.90L236.88 66.57ZM205.65 62.45L204.32 56.58L198.89 54.91L194.80 59.13L196.14 65.00L201.57 66.67ZM196.14 65.00L194.80 59.13L189.38 57.47L185.29 61.68L186.63 67.56L192.06 69.22ZM208.41 52.36L207.07 46.48L201.64 44.82L197.55 49.04L198.89 54.91L204.32 56.58ZM198.89 54.91L197.55 49.04L192.12 47.38L188.04 51.59L189.38 57.47L194.80 59.13ZM212.42 69.99L211.08 64.11L205.65 62.45L201.57 66.67L202.91 72.54L208.33 74.20ZM202.91 72.54L201.57 66.67L196.14 65.00L192.06 69.22L193.40 75.09L198.82 76.75ZM215.17 59.90L213.83 54.02L208.41 52.36L204.32 56.58L205.65 62.45L211.08 64.11ZM227.18 112.77L225.85 106.90L220.43 105.23L216.34 109.44L217.68 115.31L223.10 116.98ZM217.68 115.31L216.34 109.44L210.92 107.77L206.84 111.98L208.17 117.85L213.59 119.51ZM229.94 102.70L228.60 96.82L223.18 95.16L219.09 99.36L220.43 105.23L225.85 106.90ZM220.43 105.23L219.09 99.36L213.67 97.70L209.59 101.90L210.92 107.77L216.34 109.44ZM233.93 120.31L232.60 114.44L227.18 112.77L223.10 116.98L224.43 122.85L229.85 124.51ZM224.43 122.85L223.10 116.98L217.68 115.31L213.59 119.51L214.93 125.38L220.34 127.05ZM236.69 110.24L235.36 104.37L229.94 102.70L225.85 106.90L227.18 112.77L232.60 114.44ZM201.42 110.31L200.09 104.45L194.67 102.78L190.59 106.99L191.92 112.86L197.34 114.52ZM191.92 112.86L190.59 106.99L185.17 105.33L181.09 109.54L182.43 115.40L187.85 117.06ZM204.17 100.24L202.83 94.37L197.41 92.71L193.33 96.91L194.67 102.78L200.09 104.45ZM194.67 102.78L193.33 96.91L187.91 95.25L183.83 99.46L185.17 105.33L190.59 106.99ZM208.17 117.85L206.84 111.98L201.42 110.31L197.34 114.52L198.68 120.39L204.09 122.05ZM198.68 120.39L197.34 114.52L191.92 112.86L187.85 117.06L189.18 122.93L194.60 124.59ZM210.92 107.77L209.59 101.90L204.17 100.24L200.09 104.45L201.42 110.31L206.84 111.98ZM242.21 90.08L240.88 84.20L235.45 82.53L231.36 86.74L232.69 92.62L238.12 94.29ZM232.69 92.62L231.36 86.74L225.94 85.07L221.85 89.28L223.18 95.16L228.60 96.82ZM244.98 79.99L243.64 74.12L238.22 72.45L234.12 76.66L235.45 82.53L240.88 84.20ZM235.45 82.53L234.12 76.66L228.69 74.99L224.60 79.20L225.94 85.07L231.36 86.74ZM248.97 97.63L247.64 91.75L242.21 90.08L238.12 94.29L239.45 100.16L244.87 101.83ZM239.45 100.16L238.12 94.29L232.69 92.62L228.60 96.82L229.94 102.70L235.36 104.37ZM251.73 87.54L250.40 81.67L244.98 79.99L240.88 84.20L242.21 90.08L247.64 91.75ZM149.95 105.46L148.60 99.60L143.19 97.95L139.12 102.16L140.47 108.02L145.88 109.67ZM140.47 108.02L139.12 102.16L133.71 100.51L129.64 104.72L130.99 110.58L136.40 112.23ZM152.67 95.39L151.33 89.52L145.92 87.87L141.85 92.08L143.19 97.95L148.60 99.60ZM143.19 97.95L141.85 92.08L136.43 90.43L132.36 94.64L133.71 100.51L139.12 102.16ZM156.70 112.98L155.36 107.12L149.95 105.46L145.88 109.67L147.22 115.53L152.63 117.19ZM147.22 115.53L145.88 109.67L140.47 108.02L136.40 112.23L137.75 118.09L143.16 119.74ZM159.43 102.91L158.09 97.04L152.67 95.39L148.60 99.60L149.95 105.46L155.36 107.12ZM124.23 103.07L122.89 97.21L117.48 95.56L113.41 99.77L114.76 105.63L120.17 107.28ZM114.76 105.63L113.41 99.77L108.00 98.13L103.94 102.34L105.29 108.20L110.70 109.84ZM126.95 92.99L125.60 87.13L120.19 85.48L116.13 89.70L117.48 95.56L122.89 97.21ZM117.48 95.56L116.13 89.70L110.72 88.05L106.65 92.27L108.00 98.13L113.41 99.77ZM130.99 110.58L129.64 104.72L124.23 103.07L120.17 107.28L121.52 113.14L126.93 114.79ZM121.52 113.14L120.17 107.28L114.76 105.63L110.70 109.84L112.05 115.70L117.46 117.35ZM133.71 100.51L132.36 94.64L126.95 92.99L122.89 97.21L124.23 103.07L129.64 104.72ZM164.90 82.75L163.55 76.88L158.13 75.23L154.06 79.44L155.40 85.31L160.82 86.97ZM155.40 85.31L154.06 79.44L148.64 77.79L144.57 82.00L145.92 87.87L151.33 89.52ZM167.63 72.67L166.29 66.80L160.87 65.15L156.79 69.36L158.13 75.23L163.55 76.88ZM158.13 75.23L156.79 69.36L151.37 67.71L147.30 71.92L148.64 77.79L154.06 79.44ZM171.66 90.28L170.31 84.41L164.90 82.75L160.82 86.97L162.16 92.83L167.58 94.49ZM162.16 92.83L160.82 86.97L155.40 85.31L151.33 89.52L152.67 95.39L158.09 97.04ZM174.39 80.20L173.05 74.33L167.63 72.67L163.55 76.88L164.90 82.75L170.31 84.41ZM139.16 80.35L137.81 74.49L132.39 72.84L128.32 77.05L129.67 82.92L135.09 84.57ZM129.67 82.92L128.32 77.05L122.91 75.41L118.84 79.62L120.19 85.48L125.60 87.13ZM141.88 70.27L140.53 64.40L135.12 62.75L131.05 66.97L132.39 72.84L137.81 74.49ZM132.39 72.84L131.05 66.97L125.63 65.32L121.56 69.54L122.91 75.41L128.32 77.05ZM145.92 87.87L144.57 82.00L139.16 80.35L135.09 84.57L136.43 90.43L141.85 92.08ZM136.43 90.43L135.09 84.57L129.67 82.92L125.60 87.13L126.95 92.99L132.36 94.64ZM148.64 77.79L147.30 71.92L141.88 70.27L137.81 74.49L139.16 80.35L144.57 82.00ZM160.73 130.56L159.39 124.70L153.98 123.05L149.91 127.25L151.25 133.11L156.66 134.77ZM151.25 133.11L149.91 127.25L144.50 125.60L140.43 129.81L141.78 135.66L147.18 137.32ZM163.46 120.50L162.12 114.63L156.70 112.98L152.63 117.19L153.98 123.05L159.39 124.70ZM153.98 123.05L152.63 117.19L147.22 115.53L143.16 119.74L144.50 125.60L149.91 127.25ZM167.48 138.08L166.14 132.22L160.73 130.56L156.66 134.77L158.00 140.63L163.41 142.28ZM158.00 140.63L156.66 134.77L151.25 133.11L147.18 137.32L148.53 143.17L153.93 144.83ZM170.21 128.02L168.87 122.15L163.46 120.50L159.39 124.70L160.73 130.56L166.14 132.22ZM135.03 128.15L133.68 122.30L128.27 120.64L124.21 124.85L125.56 130.71L130.96 132.36ZM125.56 130.71L124.21 124.85L118.80 123.20L114.74 127.41L116.09 133.27L121.50 134.91ZM137.75 118.09L136.40 112.23L130.99 110.58L126.93 114.79L128.27 120.64L133.68 122.30ZM128.27 120.64L126.93 114.79L121.52 113.14L117.46 117.35L118.80 123.20L124.21 124.85ZM141.78 135.66L140.43 129.81L135.03 128.15L130.96 132.36L132.31 138.22L137.71 139.87ZM132.31 138.22L130.96 132.36L125.56 130.71L121.50 134.91L122.84 140.77L128.25 142.42ZM144.50 125.60L143.16 119.74L137.75 118.09L133.68 122.30L135.03 128.15L140.43 129.81ZM175.68 107.88L174.34 102.01L168.92 100.35L164.85 104.56L166.19 110.43L171.60 112.08ZM166.19 110.43L164.85 104.56L159.43 102.91L155.36 107.12L156.70 112.98L162.12 114.63ZM178.41 97.80L177.07 91.93L171.66 90.28L167.58 94.49L168.92 100.35L174.34 102.01ZM168.92 100.35L167.58 94.49L162.16 92.83L158.09 97.04L159.43 102.91L164.85 104.56ZM182.43 115.40L181.09 109.54L175.68 107.88L171.60 112.08L172.94 117.95L178.36 119.61ZM172.94 117.95L171.60 112.08L166.19 110.43L162.12 114.63L163.46 120.50L168.87 122.15ZM185.17 105.33L183.83 99.46L178.41 97.80L174.34 102.01L175.68 107.88L181.09 109.54ZM244.37 210.81L243.05 204.95L237.64 203.28L233.56 207.46L234.89 213.32L240.29 214.99ZM234.89 213.32L233.56 207.46L228.16 205.79L224.08 209.98L225.41 215.83L230.81 217.51ZM247.13 200.76L245.80 194.90L240.39 193.23L236.31 197.42L237.64 203.28L243.05 204.95ZM237.64 203.28L236.31 197.42L230.90 195.75L226.83 199.93L228.16 205.79L233.56 207.46ZM251.11 218.34L249.78 212.48L244.37 210.81L240.29 214.99L241.62 220.85L247.03 222.53ZM241.62 220.85L240.29 214.99L234.89 213.32L230.81 217.51L232.14 223.36L237.54 225.03ZM253.86 208.30L252.54 202.44L247.13 200.76L243.05 204.95L244.37 210.81L249.78 212.48ZM218.67 208.31L217.34 202.45L211.94 200.78L207.87 204.97L209.20 210.83L214.60 212.49ZM209.20 210.83L207.87 204.97L202.46 203.30L198.39 207.49L199.73 213.35L205.13 215.01ZM221.42 198.26L220.09 192.40L214.68 190.74L210.61 194.93L211.94 200.78L217.34 202.45ZM211.94 200.78L210.61 194.93L205.20 193.26L201.13 197.45L202.46 203.30L207.87 204.97ZM225.41 215.83L224.08 209.98L218.67 208.31L214.60 212.49L215.93 218.35L221.33 220.02ZM215.93 218.35L214.60 212.49L209.20 210.83L205.13 215.01L206.46 220.87L211.86 222.53ZM228.16 205.79L226.83 199.93L221.42 198.26L217.34 202.45L218.67 208.31L224.08 209.98ZM259.38 188.20L258.05 182.34L252.64 180.66L248.56 184.85L249.88 190.72L255.29 192.39ZM249.88 190.72L248.56 184.85L243.15 183.18L239.06 187.37L240.39 193.23L245.80 194.90ZM262.14 178.15L260.81 172.28L255.40 170.61L251.31 174.80L252.64 180.66L258.05 182.34ZM252.64 180.66L251.31 174.80L245.90 173.12L241.82 177.32L243.15 183.18L248.56 184.85ZM266.12 195.74L264.79 189.88L259.38 188.20L255.29 192.39L256.62 198.25L262.03 199.93ZM256.62 198.25L255.29 192.39L249.88 190.72L245.80 194.90L247.13 200.76L252.54 202.44ZM233.65 185.70L232.32 179.83L226.91 178.16L222.84 182.35L224.17 188.22L229.57 189.89ZM224.17 188.22L222.84 182.35L217.43 180.69L213.35 184.88L214.68 190.74L220.09 192.40ZM236.41 175.64L235.08 169.78L229.66 168.11L225.58 172.30L226.91 178.16L232.32 179.83ZM226.91 178.16L225.58 172.30L220.17 170.63L216.10 174.83L217.43 180.69L222.84 182.35ZM240.39 193.23L239.06 187.37L233.65 185.70L229.57 189.89L230.90 195.75L236.31 197.42ZM230.90 195.75L229.57 189.89L224.17 188.22L220.09 192.40L221.42 198.26L226.83 199.93ZM243.15 183.18L241.82 177.32L236.41 175.64L232.32 179.83L233.65 185.70L239.06 187.37ZM255.08 235.92L253.76 230.06L248.35 228.38L244.27 232.56L245.60 238.42L251.00 240.09ZM245.60 238.42L244.27 232.56L238.87 230.89L234.79 235.07L236.12 240.92L241.52 242.60ZM257.84 225.88L256.51 220.02L251.11 218.34L247.03 222.53L248.35 228.38L253.76 230.06ZM248.35 228.38L247.03 222.53L241.62 220.85L237.54 225.03L238.87 230.89L244.27 232.56ZM261.81 243.45L260.48 237.59L255.08 235.92L251.00 240.09L252.33 245.95L257.73 247.63ZM252.33 245.95L251.00 240.09L245.60 238.42L241.52 242.60L242.85 248.45L248.25 250.13ZM264.56 233.41L263.24 227.56L257.84 225.88L253.76 230.06L255.08 235.92L260.48 237.59ZM229.39 233.40L228.07 227.54L222.66 225.87L218.59 230.06L219.92 235.91L225.32 237.58ZM219.92 235.91L218.59 230.06L213.19 228.39L209.12 232.57L210.45 238.42L215.85 240.09ZM232.14 223.36L230.81 217.51L225.41 215.83L221.33 220.02L222.66 225.87L228.07 227.54ZM222.66 225.87L221.33 220.02L215.93 218.35L211.86 222.53L213.19 228.39L218.59 230.06ZM236.12 240.92L234.79 235.07L229.39 233.40L225.32 237.58L226.65 243.43L232.05 245.10ZM226.65 243.43L225.32 237.58L219.92 235.91L215.85 240.09L217.18 245.94L222.58 247.61ZM238.87 230.89L237.54 225.03L232.14 223.36L228.07 227.54L229.39 233.40L234.79 235.07ZM260.59 215.84L259.27 209.98L253.86 208.30L249.78 212.48L251.11 218.34L256.51 220.02ZM263.35 205.79L262.03 199.93L256.62 198.25L252.54 202.44L253.86 208.30L259.27 209.98ZM178.07 228.43L176.73 222.58L171.33 220.92L167.27 225.10L168.61 230.95L174.01 232.61ZM168.61 230.95L167.27 225.10L161.88 223.44L157.82 227.63L159.16 233.48L164.55 235.14ZM180.79 218.39L179.46 212.54L174.06 210.88L170.00 215.07L171.33 220.92L176.73 222.58ZM171.33 220.92L170.00 215.07L164.60 213.41L160.54 217.60L161.88 223.44L167.27 225.10ZM184.80 235.94L183.46 230.09L178.07 228.43L174.01 232.61L175.34 238.46L180.74 240.12ZM175.34 238.46L174.01 232.61L168.61 230.95L164.55 235.14L165.89 240.98L171.28 242.64ZM187.53 225.90L186.19 220.05L180.79 218.39L176.73 222.58L178.07 228.43L183.46 230.09ZM152.43 225.97L151.09 220.13L145.69 218.47L141.64 222.66L142.98 228.50L148.37 230.16ZM142.98 228.50L141.64 222.66L136.25 221.00L132.19 225.19L133.53 231.04L138.93 232.69ZM155.15 215.94L153.81 210.09L148.41 208.43L144.35 212.62L145.69 218.47L151.09 220.13ZM145.69 218.47L144.35 212.62L138.96 210.97L134.90 215.16L136.25 221.00L141.64 222.66ZM159.16 233.48L157.82 227.63L152.43 225.97L148.37 230.16L149.71 236.00L155.10 237.66ZM149.71 236.00L148.37 230.16L142.98 228.50L138.93 232.69L140.27 238.53L145.66 240.19ZM161.88 223.44L160.54 217.60L155.15 215.94L151.09 220.13L152.43 225.97L157.82 227.63ZM192.99 205.83L191.66 199.97L186.26 198.31L182.19 202.50L183.52 208.35L188.92 210.02ZM183.52 208.35L182.19 202.50L176.79 200.84L172.72 205.03L174.06 210.88L179.46 212.54ZM195.73 195.78L194.39 189.93L188.99 188.26L184.92 192.46L186.26 198.31L191.66 199.97ZM186.26 198.31L184.92 192.46L179.52 190.79L175.45 194.99L176.79 200.84L182.19 202.50ZM199.73 213.35L198.39 207.49L192.99 205.83L188.92 210.02L190.26 215.87L195.66 217.53ZM190.26 215.87L188.92 210.02L183.52 208.35L179.46 212.54L180.79 218.39L186.19 220.05ZM202.46 203.30L201.13 197.45L195.73 195.78L191.66 199.97L192.99 205.83L198.39 207.49ZM167.32 203.37L165.99 197.52L160.59 195.86L156.53 200.05L157.87 205.90L163.26 207.56ZM157.87 205.90L156.53 200.05L151.13 198.39L147.07 202.59L148.41 208.43L153.81 210.09ZM170.05 193.33L168.71 187.47L163.31 185.81L159.25 190.01L160.59 195.86L165.99 197.52ZM160.59 195.86L159.25 190.01L153.85 188.35L149.79 192.54L151.13 198.39L156.53 200.05ZM174.06 210.88L172.72 205.03L167.32 203.37L163.26 207.56L164.60 213.41L170.00 215.07ZM164.60 213.41L163.26 207.56L157.87 205.90L153.81 210.09L155.15 215.94L160.54 217.60ZM176.79 200.84L175.45 194.99L170.05 193.33L165.99 197.52L167.32 203.37L172.72 205.03ZM188.80 253.48L187.46 247.63L182.07 245.97L178.01 250.15L179.34 255.99L184.74 257.66ZM179.34 255.99L178.01 250.15L172.62 248.49L168.56 252.67L169.89 258.51L175.28 260.17ZM191.53 243.45L190.19 237.60L184.80 235.94L180.74 240.12L182.07 245.97L187.46 247.63ZM182.07 245.97L180.74 240.12L175.34 238.46L171.28 242.64L172.62 248.49L178.01 250.15ZM195.52 260.99L194.19 255.14L188.80 253.48L184.74 257.66L186.07 263.50L191.46 265.17ZM186.07 263.50L184.74 257.66L179.34 255.99L175.28 260.17L176.62 266.02L182.01 267.68ZM198.25 250.96L196.92 245.12L191.53 243.45L187.46 247.63L188.80 253.48L194.19 255.14ZM163.17 251.01L161.83 245.16L156.44 243.50L152.39 247.69L153.72 253.53L159.11 255.19ZM153.72 253.53L152.39 247.69L146.99 246.03L142.94 250.21L144.28 256.05L149.67 257.71ZM165.89 240.98L164.55 235.14L159.16 233.48L155.10 237.66L156.44 243.50L161.83 245.16ZM156.44 243.50L155.10 237.66L149.71 236.00L145.66 240.19L146.99 246.03L152.39 247.69ZM169.89 258.51L168.56 252.67L163.17 251.01L159.11 255.19L160.45 261.03L165.84 262.69ZM160.45 261.03L159.11 255.19L153.72 253.53L149.67 257.71L151.01 263.55L156.40 265.21ZM172.62 248.49L171.28 242.64L165.89 240.98L161.83 245.16L163.17 251.01L168.56 252.67ZM203.72 230.90L202.39 225.05L196.99 223.38L192.93 227.57L194.26 233.42L199.66 235.08ZM194.26 233.42L192.93 227.57L187.53 225.90L183.46 230.09L184.80 235.94L190.19 237.60ZM206.46 220.87L205.13 215.01L199.73 213.35L195.66 217.53L196.99 223.38L202.39 225.05ZM196.99 223.38L195.66 217.53L190.26 215.87L186.19 220.05L187.53 225.90L192.93 227.57ZM210.45 238.42L209.12 232.57L203.72 230.90L199.66 235.08L200.99 240.93L206.38 242.60ZM200.99 240.93L199.66 235.08L194.26 233.42L190.19 237.60L191.53 243.45L196.92 245.12ZM213.19 228.39L211.86 222.53L206.46 220.87L202.39 225.05L203.72 230.90L209.12 232.57ZM263.69 140.42L262.36 134.55L256.94 132.87L252.85 137.07L254.18 142.94L259.60 144.61ZM254.18 142.94L252.85 137.07L247.43 135.40L243.34 139.59L244.67 145.46L250.09 147.14ZM266.46 130.35L265.13 124.48L259.71 122.80L255.62 127.00L256.94 132.87L262.36 134.55ZM256.94 132.87L255.62 127.00L250.19 125.33L246.10 129.53L247.43 135.40L252.85 137.07ZM260.93 150.49L259.60 144.61L254.18 142.94L250.09 147.14L251.42 153.01L256.84 154.68ZM237.93 137.92L236.60 132.05L231.18 130.38L227.09 134.58L228.42 140.45L233.84 142.12ZM228.42 140.45L227.09 134.58L221.68 132.92L217.59 137.11L218.93 142.98L224.34 144.65ZM240.68 127.85L239.35 121.98L233.93 120.31L229.85 124.51L231.18 130.38L236.60 132.05ZM231.18 130.38L229.85 124.51L224.43 122.85L220.34 127.05L221.68 132.92L227.09 134.58ZM244.67 145.46L243.34 139.59L237.93 137.92L233.84 142.12L235.17 147.99L240.59 149.66ZM235.17 147.99L233.84 142.12L228.42 140.45L224.34 144.65L225.67 150.52L231.09 152.18ZM247.43 135.40L246.10 129.53L240.68 127.85L236.60 132.05L237.93 137.92L243.34 139.59ZM252.96 115.25L251.63 109.38L246.21 107.71L242.11 111.91L243.44 117.78L248.87 119.45ZM243.44 117.78L242.11 111.91L236.69 110.24L232.60 114.44L233.93 120.31L239.35 121.98ZM255.72 105.18L254.39 99.30L248.97 97.63L244.87 101.83L246.21 107.71L251.63 109.38ZM246.21 107.71L244.87 101.83L239.45 100.16L235.36 104.37L236.69 110.24L242.11 111.91ZM259.71 122.80L258.38 116.93L252.96 115.25L248.87 119.45L250.19 125.33L255.62 127.00ZM250.19 125.33L248.87 119.45L243.44 117.78L239.35 121.98L240.68 127.85L246.10 129.53ZM262.48 112.73L261.15 106.85L255.72 105.18L251.63 109.38L252.96 115.25L258.38 116.93ZM264.90 168.09L263.58 162.22L258.16 160.55L254.07 164.74L255.40 170.61L260.81 172.28ZM248.66 163.07L247.33 157.20L241.92 155.53L237.83 159.72L239.16 165.59L244.57 167.26ZM239.16 165.59L237.83 159.72L232.42 158.05L228.33 162.24L229.66 168.11L235.08 169.78ZM251.42 153.01L250.09 147.14L244.67 145.46L240.59 149.66L241.92 155.53L247.33 157.20ZM241.92 155.53L240.59 149.66L235.17 147.99L231.09 152.18L232.42 158.05L237.83 159.72ZM255.40 170.61L254.07 164.74L248.66 163.07L244.57 167.26L245.90 173.12L251.31 174.80ZM245.90 173.12L244.57 167.26L239.16 165.59L235.08 169.78L236.41 175.64L241.82 177.32ZM258.16 160.55L256.84 154.68L251.42 153.01L247.33 157.20L248.66 163.07L254.07 164.74ZM17.59 141.42L16.23 135.58L10.83 133.95L6.80 138.16L8.16 144.00L13.55 145.63ZM8.16 144.00L6.80 138.16L1.41 136.53L-2.62 140.74L-1.26 146.58L4.13 148.21ZM20.26 131.36L18.90 125.52L13.51 123.89L9.47 128.11L10.83 133.95L16.23 135.58ZM10.83 133.95L9.47 128.11L4.08 126.48L0.05 130.69L1.41 136.53L6.80 138.16ZM24.34 148.89L22.98 143.05L17.59 141.42L13.55 145.63L14.91 151.47L20.30 153.10ZM14.91 151.47L13.55 145.63L8.16 144.00L4.13 148.21L5.49 154.05L10.88 155.68ZM27.01 138.84L25.66 133.00L20.26 131.36L16.23 135.58L17.59 141.42L22.98 143.05ZM1.41 136.53L0.05 130.69L-5.34 129.07L-9.37 133.28L-8.01 139.12L-2.62 140.74ZM32.37 118.72L31.02 112.88L25.62 111.25L21.58 115.46L22.94 121.31L28.34 122.94ZM22.94 121.31L21.58 115.46L16.18 113.83L12.15 118.05L13.51 123.89L18.90 125.52ZM35.06 108.66L33.70 102.81L28.30 101.18L24.26 105.40L25.62 111.25L31.02 112.88ZM25.62 111.25L24.26 105.40L18.86 103.77L14.82 107.99L16.18 113.83L21.58 115.46ZM39.13 126.20L37.77 120.36L32.37 118.72L28.34 122.94L29.69 128.78L35.09 130.42ZM29.69 128.78L28.34 122.94L22.94 121.31L18.90 125.52L20.26 131.36L25.66 133.00ZM41.81 116.14L40.46 110.30L35.06 108.66L31.02 112.88L32.37 118.72L37.77 120.36ZM6.75 116.42L5.39 110.58L-0.01 108.95L-4.04 113.17L-2.68 119.01L2.72 120.64ZM9.42 106.36L8.06 100.51L2.66 98.89L-1.37 103.11L-0.01 108.95L5.39 110.58ZM13.51 123.89L12.15 118.05L6.75 116.42L2.72 120.64L4.08 126.48L9.47 128.11ZM4.08 126.48L2.72 120.64L-2.68 119.01L-6.71 123.23L-5.34 129.07L0.05 130.69ZM16.18 113.83L14.82 107.99L9.42 106.36L5.39 110.58L6.75 116.42L12.15 118.05ZM28.41 166.41L27.05 160.57L21.66 158.94L17.63 163.14L18.99 168.98L24.38 170.61ZM18.99 168.98L17.63 163.14L12.24 161.51L8.21 165.72L9.57 171.56L14.96 173.19ZM31.09 156.36L29.73 150.52L24.34 148.89L20.30 153.10L21.66 158.94L27.05 160.57ZM21.66 158.94L20.30 153.10L14.91 151.47L10.88 155.68L12.24 161.51L17.63 163.14ZM35.16 173.88L33.80 168.04L28.41 166.41L24.38 170.61L25.74 176.45L31.12 178.08ZM25.74 176.45L24.38 170.61L18.99 168.98L14.96 173.19L16.32 179.02L21.70 180.65ZM37.84 163.84L36.48 158.00L31.09 156.36L27.05 160.57L28.41 166.41L33.80 168.04ZM2.83 164.09L1.47 158.26L-3.92 156.63L-7.95 160.84L-6.59 166.67L-1.20 168.30ZM5.49 154.05L4.13 148.21L-1.26 146.58L-5.28 150.79L-3.92 156.63L1.47 158.26ZM9.57 171.56L8.21 165.72L2.83 164.09L-1.20 168.30L0.16 174.13L5.55 175.76ZM0.16 174.13L-1.20 168.30L-6.59 166.67L-10.61 170.88L-9.25 176.71L-3.86 178.34ZM12.24 161.51L10.88 155.68L5.49 154.05L1.47 158.26L2.83 164.09L8.21 165.72ZM43.20 143.74L41.84 137.89L36.45 136.26L32.41 140.47L33.77 146.31L39.16 147.95ZM33.77 146.31L32.41 140.47L27.01 138.84L22.98 143.05L24.34 148.89L29.73 150.52ZM45.88 133.68L44.53 127.84L39.13 126.20L35.09 130.42L36.45 136.26L41.84 137.89ZM36.45 136.26L35.09 130.42L29.69 128.78L25.66 133.00L27.01 138.84L32.41 140.47ZM49.95 151.22L48.59 145.37L43.20 143.74L39.16 147.95L40.52 153.79L45.91 155.42ZM40.52 153.79L39.16 147.95L33.77 146.31L29.73 150.52L31.09 156.36L36.48 158.00ZM52.64 141.16L51.28 135.32L45.88 133.68L41.84 137.89L43.20 143.74L48.59 145.37ZM36.35 70.97L34.99 65.12L29.58 63.49L25.54 67.71L26.90 73.56L32.30 75.19ZM26.90 73.56L25.54 67.71L20.13 66.08L16.09 70.31L17.45 76.16L22.86 77.79ZM39.04 60.89L37.68 55.04L32.27 53.41L28.22 57.63L29.58 63.49L34.99 65.12ZM29.58 63.49L28.22 57.63L22.81 56.00L18.77 60.23L20.13 66.08L25.54 67.71ZM43.11 78.46L41.75 72.60L36.35 70.97L32.30 75.19L33.66 81.05L39.07 82.68ZM33.66 81.05L32.30 75.19L26.90 73.56L22.86 77.79L24.22 83.64L29.62 85.27ZM45.80 68.38L44.44 62.53L39.04 60.89L34.99 65.12L36.35 70.97L41.75 72.60ZM10.69 68.68L9.32 62.83L3.92 61.20L-0.12 65.43L1.25 71.28L6.65 72.90ZM1.25 71.28L-0.12 65.43L-5.52 63.80L-9.56 68.03L-8.19 73.88L-2.79 75.50ZM13.36 58.60L12.00 52.75L6.60 51.12L2.56 55.35L3.92 61.20L9.32 62.83ZM3.92 61.20L2.56 55.35L-2.85 53.73L-6.89 57.95L-5.52 63.80L-0.12 65.43ZM17.45 76.16L16.09 70.31L10.69 68.68L6.65 72.90L8.01 78.75L13.41 80.38ZM8.01 78.75L6.65 72.90L1.25 71.28L-2.79 75.50L-1.43 81.35L3.97 82.97ZM20.13 66.08L18.77 60.23L13.36 58.60L9.32 62.83L10.69 68.68L16.09 70.31ZM51.19 48.22L49.83 42.36L44.42 40.73L40.37 44.95L41.73 50.81L47.14 52.44ZM41.73 50.81L40.37 44.95L34.96 43.32L30.91 47.55L32.27 53.41L37.68 55.04ZM53.88 38.13L52.52 32.27L47.11 30.64L43.06 34.87L44.42 40.73L49.83 42.36ZM44.42 40.73L43.06 34.87L37.64 33.24L33.59 37.47L34.96 43.32L40.37 44.95ZM57.96 55.71L56.60 49.85L51.19 48.22L47.14 52.44L48.49 58.30L53.90 59.94ZM48.49 58.30L47.14 52.44L41.73 50.81L37.68 55.04L39.04 60.89L44.44 62.53ZM60.65 45.63L59.30 39.77L53.88 38.13L49.83 42.36L51.19 48.22L56.60 49.85ZM25.50 45.92L24.14 40.07L18.73 38.44L14.68 42.67L16.04 48.52L21.45 50.15ZM16.04 48.52L14.68 42.67L9.27 41.04L5.23 45.27L6.60 51.12L12.00 52.75ZM28.18 35.84L26.82 29.98L21.41 28.35L17.36 32.58L18.73 38.44L24.14 40.07ZM18.73 38.44L17.36 32.58L11.95 30.96L7.91 35.19L9.27 41.04L14.68 42.67ZM32.27 53.41L30.91 47.55L25.50 45.92L21.45 50.15L22.81 56.00L28.22 57.63ZM22.81 56.00L21.45 50.15L16.04 48.52L12.00 52.75L13.36 58.60L18.77 60.23ZM34.96 43.32L33.59 37.47L28.18 35.84L24.14 40.07L25.50 45.92L30.91 47.55ZM47.19 96.01L45.83 90.16L40.43 88.53L36.38 92.75L37.74 98.60L43.14 100.23ZM37.74 98.60L36.38 92.75L30.98 91.12L26.94 95.34L28.30 101.18L33.70 102.81ZM49.88 85.94L48.52 80.09L43.11 78.46L39.07 82.68L40.43 88.53L45.83 90.16ZM40.43 88.53L39.07 82.68L33.66 81.05L29.62 85.27L30.98 91.12L36.38 92.75ZM53.95 103.50L52.59 97.65L47.19 96.01L43.14 100.23L44.50 106.08L49.90 107.72ZM44.50 106.08L43.14 100.23L37.74 98.60L33.70 102.81L35.06 108.66L40.46 110.30ZM56.64 93.43L55.28 87.58L49.88 85.94L45.83 90.16L47.19 96.01L52.59 97.65ZM21.54 93.71L20.18 87.86L14.77 86.23L10.74 90.45L12.10 96.30L17.50 97.92ZM12.10 96.30L10.74 90.45L5.34 88.82L1.30 93.04L2.66 98.89L8.06 100.51ZM24.22 83.64L22.86 77.79L17.45 76.16L13.41 80.38L14.77 86.23L20.18 87.86ZM14.77 86.23L13.41 80.38L8.01 78.75L3.97 82.97L5.34 88.82L10.74 90.45ZM28.30 101.18L26.94 95.34L21.54 93.71L17.50 97.92L18.86 103.77L24.26 105.40ZM18.86 103.77L17.50 97.92L12.10 96.30L8.06 100.51L9.42 106.36L14.82 107.99ZM30.98 91.12L29.62 85.27L24.22 83.64L20.18 87.86L21.54 93.71L26.94 95.34ZM62.03 73.28L60.67 67.43L55.26 65.79L51.21 70.01L52.57 75.87L57.98 77.51ZM52.57 75.87L51.21 70.01L45.80 68.38L41.75 72.60L43.11 78.46L48.52 80.09ZM64.72 63.21L63.37 57.35L57.96 55.71L53.90 59.94L55.26 65.79L60.67 67.43ZM55.26 65.79L53.90 59.94L48.49 58.30L44.44 62.53L45.80 68.38L51.21 70.01ZM68.79 80.78L67.44 74.92L62.03 73.28L57.98 77.51L59.33 83.36L64.74 85.00ZM59.33 83.36L57.98 77.51L52.57 75.87L48.52 80.09L49.88 85.94L55.28 87.58ZM71.49 70.70L70.13 64.84L64.72 63.21L60.67 67.43L62.03 73.28L67.44 74.92ZM2.66 98.89L1.30 93.04L-4.10 91.42L-8.13 95.64L-6.77 101.48L-1.37 103.11ZM5.34 88.82L3.97 82.97L-1.43 81.35L-5.46 85.57L-4.10 91.42L1.30 93.04ZM64.81 193.74L63.46 187.90L58.07 186.27L54.03 190.47L55.39 196.30L60.77 197.94ZM55.39 196.30L54.03 190.47L48.64 188.83L44.61 193.03L45.96 198.86L51.35 200.50ZM67.50 183.71L66.15 177.86L60.76 176.22L56.72 180.43L58.07 186.27L63.46 187.90ZM58.07 186.27L56.72 180.43L51.33 178.79L47.29 182.99L48.64 188.83L54.03 190.47ZM71.55 201.22L70.20 195.39L64.81 193.74L60.77 197.94L62.12 203.78L67.51 205.42ZM62.12 203.78L60.77 197.94L55.39 196.30L51.35 200.50L52.70 206.34L58.09 207.98ZM74.24 191.19L72.89 185.35L67.50 183.71L63.46 187.90L64.81 193.74L70.20 195.39ZM39.22 191.39L37.87 185.55L32.48 183.92L28.45 188.12L29.80 193.96L35.19 195.59ZM29.80 193.96L28.45 188.12L23.06 186.49L19.03 190.69L20.39 196.52L25.77 198.16ZM41.90 181.35L40.55 175.51L35.16 173.88L31.12 178.08L32.48 183.92L37.87 185.55ZM32.48 183.92L31.12 178.08L25.74 176.45L21.70 180.65L23.06 186.49L28.45 188.12ZM45.96 198.86L44.61 193.03L39.22 191.39L35.19 195.59L36.54 201.43L41.93 203.06ZM36.54 201.43L35.19 195.59L29.80 193.96L25.77 198.16L27.13 203.99L32.51 205.62ZM48.64 188.83L47.29 182.99L41.90 181.35L37.87 185.55L39.22 191.39L44.61 193.03ZM79.63 171.10L78.28 165.26L72.88 163.62L68.84 167.82L70.19 173.66L75.58 175.30ZM70.19 173.66L68.84 167.82L63.44 166.18L59.40 170.38L60.76 176.22L66.15 177.86ZM82.32 161.05L80.97 155.21L75.58 153.57L71.53 157.77L72.88 163.62L78.28 165.26ZM72.88 163.62L71.53 157.77L66.13 156.13L62.09 160.34L63.44 166.18L68.84 167.82ZM86.37 178.59L85.02 172.75L79.63 171.10L75.58 175.30L76.93 181.15L82.33 182.79ZM76.93 181.15L75.58 175.30L70.19 173.66L66.15 177.86L67.50 183.71L72.89 185.35ZM89.07 168.54L87.72 162.70L82.32 161.05L78.28 165.26L79.63 171.10L85.02 172.75ZM54.01 168.74L52.66 162.90L47.26 161.27L43.23 165.47L44.58 171.31L49.97 172.95ZM44.58 171.31L43.23 165.47L37.84 163.84L33.80 168.04L35.16 173.88L40.55 175.51ZM56.70 158.70L55.34 152.85L49.95 151.22L45.91 155.42L47.26 161.27L52.66 162.90ZM47.26 161.27L45.91 155.42L40.52 153.79L36.48 158.00L37.84 163.84L43.23 165.47ZM60.76 176.22L59.40 170.38L54.01 168.74L49.97 172.95L51.33 178.79L56.72 180.43ZM51.33 178.79L49.97 172.95L44.58 171.31L40.55 175.51L41.90 181.35L47.29 182.99ZM63.44 166.18L62.09 160.34L56.70 158.70L52.66 162.90L54.01 168.74L59.40 170.38ZM75.60 218.74L74.25 212.90L68.86 211.26L64.83 215.45L66.18 221.29L71.56 222.93ZM66.18 221.29L64.83 215.45L59.44 213.81L55.41 218.01L56.76 223.84L62.14 225.48ZM78.29 208.71L76.94 202.87L71.55 201.22L67.51 205.42L68.86 211.26L74.25 212.90ZM68.86 211.26L67.51 205.42L62.12 203.78L58.09 207.98L59.44 213.81L64.83 215.45ZM82.33 226.22L80.99 220.38L75.60 218.74L71.56 222.93L72.91 228.77L78.30 230.41ZM72.91 228.77L71.56 222.93L66.18 221.29L62.14 225.48L63.49 231.32L68.87 232.96ZM85.03 216.19L83.68 210.35L78.29 208.71L74.25 212.90L75.60 218.74L80.99 220.38ZM50.02 216.37L48.67 210.53L43.28 208.90L39.25 213.09L40.61 218.93L45.99 220.56ZM40.61 218.93L39.25 213.09L33.87 211.46L29.84 215.65L31.20 221.49L36.58 223.12ZM52.70 206.34L51.35 200.50L45.96 198.86L41.93 203.06L43.28 208.90L48.67 210.53ZM43.28 208.90L41.93 203.06L36.54 201.43L32.51 205.62L33.87 211.46L39.25 213.09ZM56.76 223.84L55.41 218.01L50.02 216.37L45.99 220.56L47.34 226.40L52.72 228.03ZM47.34 226.40L45.99 220.56L40.61 218.93L36.58 223.12L37.93 228.95L43.31 230.59ZM59.44 213.81L58.09 207.98L52.70 206.34L48.67 210.53L50.02 216.37L55.41 218.01ZM90.42 196.12L89.07 190.28L83.68 188.63L79.63 192.83L80.98 198.67L86.37 200.31ZM80.98 198.67L79.63 192.83L74.24 191.19L70.20 195.39L71.55 201.22L76.94 202.87ZM93.11 186.08L91.77 180.23L86.37 178.59L82.33 182.79L83.68 188.63L89.07 190.28ZM83.68 188.63L82.33 182.79L76.93 181.15L72.89 185.35L74.24 191.19L79.63 192.83ZM97.16 203.61L95.81 197.76L90.42 196.12L86.37 200.31L87.72 206.16L93.11 207.80ZM87.72 206.16L86.37 200.31L80.98 198.67L76.94 202.87L78.29 208.71L83.68 210.35ZM99.85 193.57L98.51 187.72L93.11 186.08L89.07 190.28L90.42 196.12L95.81 197.76ZM1.57 201.66L0.22 195.83L-5.17 194.21L-9.19 198.41L-7.83 204.24L-2.45 205.86ZM5.65 219.15L4.29 213.32L-1.09 211.69L-5.11 215.89L-3.75 221.72L1.63 223.35ZM8.31 209.12L6.96 203.29L1.57 201.66L-2.45 205.86L-1.09 211.69L4.29 213.32ZM13.65 189.06L12.29 183.23L6.91 181.60L2.88 185.80L4.24 191.63L9.62 193.26ZM4.24 191.63L2.88 185.80L-2.50 184.17L-6.53 188.37L-5.17 194.21L0.22 195.83ZM16.32 179.02L14.96 173.19L9.57 171.56L5.55 175.76L6.91 181.60L12.29 183.23ZM6.91 181.60L5.55 175.76L0.16 174.13L-3.86 178.34L-2.50 184.17L2.88 185.80ZM20.39 196.52L19.03 190.69L13.65 189.06L9.62 193.26L10.98 199.09L16.36 200.72ZM10.98 199.09L9.62 193.26L4.24 191.63L0.22 195.83L1.57 201.66L6.96 203.29ZM23.06 186.49L21.70 180.65L16.32 179.02L12.29 183.23L13.65 189.06L19.03 190.69ZM9.72 236.63L8.36 230.80L2.99 229.17L-1.03 233.37L0.33 239.19L5.70 240.82ZM0.33 239.19L-1.03 233.37L-6.41 231.74L-10.42 235.94L-9.06 241.76L-3.69 243.39ZM12.39 226.61L11.03 220.78L5.65 219.15L1.63 223.35L2.99 229.17L8.36 230.80ZM2.99 229.17L1.63 223.35L-3.75 221.72L-7.77 225.91L-6.41 231.74L-1.03 233.37ZM16.45 244.09L15.10 238.26L9.72 236.63L5.70 240.82L7.06 246.65L12.43 248.28ZM7.06 246.65L5.70 240.82L0.33 239.19L-3.69 243.39L-2.33 249.21L3.04 250.84ZM19.12 234.07L17.76 228.24L12.39 226.61L8.36 230.80L9.72 236.63L15.10 238.26ZM24.46 214.02L23.10 208.19L17.72 206.56L13.70 210.75L15.05 216.58L20.43 218.22ZM15.05 216.58L13.70 210.75L8.31 209.12L4.29 213.32L5.65 219.15L11.03 220.78ZM27.13 203.99L25.77 198.16L20.39 196.52L16.36 200.72L17.72 206.56L23.10 208.19ZM17.72 206.56L16.36 200.72L10.98 199.09L6.96 203.29L8.31 209.12L13.70 210.75ZM31.20 221.49L29.84 215.65L24.46 214.02L20.43 218.22L21.79 224.05L27.17 225.68ZM21.79 224.05L20.43 218.22L15.05 216.58L11.03 220.78L12.39 226.61L17.76 228.24ZM33.87 211.46L32.51 205.62L27.13 203.99L23.10 208.19L24.46 214.02L29.84 215.65ZM83.67 123.40L82.32 117.54L76.91 115.90L72.86 120.11L74.22 125.97L79.62 127.61ZM74.22 125.97L72.86 120.11L67.46 118.48L63.41 122.69L64.77 128.54L70.17 130.18ZM86.37 113.33L85.02 107.48L79.61 105.84L75.56 110.05L76.91 115.90L82.32 117.54ZM76.91 115.90L75.56 110.05L70.16 108.41L66.11 112.62L67.46 118.48L72.86 120.11ZM90.42 130.89L89.07 125.04L83.67 123.40L79.62 127.61L80.97 133.46L86.37 135.10ZM80.97 133.46L79.62 127.61L74.22 125.97L70.17 130.18L71.52 136.02L76.92 137.66ZM93.12 120.83L91.77 114.98L86.37 113.33L82.32 117.54L83.67 123.40L89.07 125.04ZM58.01 121.05L56.66 115.20L51.26 113.56L47.21 117.78L48.57 123.63L53.97 125.26ZM48.57 123.63L47.21 117.78L41.81 116.14L37.77 120.36L39.13 126.20L44.53 127.84ZM60.70 110.99L59.35 105.14L53.95 103.50L49.90 107.72L51.26 113.56L56.66 115.20ZM51.26 113.56L49.90 107.72L44.50 106.08L40.46 110.30L41.81 116.14L47.21 117.78ZM64.77 128.54L63.41 122.69L58.01 121.05L53.97 125.26L55.32 131.11L60.72 132.75ZM55.32 131.11L53.97 125.26L48.57 123.63L44.53 127.84L45.88 133.68L51.28 135.32ZM67.46 118.48L66.11 112.62L60.70 110.99L56.66 115.20L58.01 121.05L63.41 122.69ZM98.54 100.70L97.19 94.84L91.78 93.19L87.72 97.41L89.07 103.27L94.48 104.91ZM89.07 103.27L87.72 97.41L82.31 95.77L78.26 99.98L79.61 105.84L85.02 107.48ZM101.24 90.62L99.89 84.76L94.48 83.12L90.43 87.34L91.78 93.19L97.19 94.84ZM91.78 93.19L90.43 87.34L85.02 85.70L80.96 89.91L82.31 95.77L87.72 97.41ZM105.29 108.20L103.94 102.34L98.54 100.70L94.48 104.91L95.83 110.76L101.24 112.41ZM95.83 110.76L94.48 104.91L89.07 103.27L85.02 107.48L86.37 113.33L91.77 114.98ZM108.00 98.13L106.65 92.27L101.24 90.62L97.19 94.84L98.54 100.70L103.94 102.34ZM72.85 98.34L71.50 92.49L66.09 90.85L62.04 95.07L63.40 100.92L68.80 102.56ZM63.40 100.92L62.04 95.07L56.64 93.43L52.59 97.65L53.95 103.50L59.35 105.14ZM75.55 88.27L74.20 82.42L68.79 80.78L64.74 85.00L66.09 90.85L71.50 92.49ZM66.09 90.85L64.74 85.00L59.33 83.36L55.28 87.58L56.64 93.43L62.04 95.07ZM79.61 105.84L78.26 99.98L72.85 98.34L68.80 102.56L70.16 108.41L75.56 110.05ZM70.16 108.41L68.80 102.56L63.40 100.92L59.35 105.14L60.70 110.99L66.11 112.62ZM82.31 95.77L80.96 89.91L75.55 88.27L71.50 92.49L72.85 98.34L78.26 99.98ZM94.47 148.44L93.12 142.59L87.72 140.95L83.67 145.16L85.02 151.00L90.42 152.65ZM85.02 151.00L83.67 145.16L78.27 143.51L74.22 147.72L75.58 153.57L80.97 155.21ZM97.17 138.39L95.82 132.53L90.42 130.89L86.37 135.10L87.72 140.95L93.12 142.59ZM87.72 140.95L86.37 135.10L80.97 133.46L76.92 137.66L78.27 143.51L83.67 145.16ZM101.22 155.94L99.87 150.09L94.47 148.44L90.42 152.65L91.77 158.49L97.17 160.14ZM91.77 158.49L90.42 152.65L85.02 151.00L80.97 155.21L82.32 161.05L87.72 162.70ZM103.92 145.88L102.58 140.03L97.17 138.39L93.12 142.59L94.47 148.44L99.87 150.09ZM68.83 146.08L67.47 140.23L62.08 138.59L58.03 142.80L59.39 148.65L64.78 150.29ZM59.39 148.65L58.03 142.80L52.64 141.16L48.59 145.37L49.95 151.22L55.34 152.85ZM71.52 136.02L70.17 130.18L64.77 128.54L60.72 132.75L62.08 138.59L67.47 140.23ZM62.08 138.59L60.72 132.75L55.32 131.11L51.28 135.32L52.64 141.16L58.03 142.80ZM75.58 153.57L74.22 147.72L68.83 146.08L64.78 150.29L66.13 156.13L71.53 157.77ZM66.13 156.13L64.78 150.29L59.39 148.65L55.34 152.85L56.70 158.70L62.09 160.34ZM78.27 143.51L76.92 137.66L71.52 136.02L67.47 140.23L68.83 146.08L74.22 147.72ZM109.34 125.76L107.99 119.91L102.58 118.26L98.53 122.47L99.88 128.33L105.28 129.97ZM99.88 128.33L98.53 122.47L93.12 120.83L89.07 125.04L90.42 130.89L95.82 132.53ZM112.05 115.70L110.70 109.84L105.29 108.20L101.24 112.41L102.58 118.26L107.99 119.91ZM102.58 118.26L101.24 112.41L95.83 110.76L91.77 114.98L93.12 120.83L98.53 122.47ZM116.09 133.27L114.74 127.41L109.34 125.76L105.28 129.97L106.63 135.83L112.03 137.47ZM106.63 135.83L105.28 129.97L99.88 128.33L95.82 132.53L97.17 138.39L102.58 140.03ZM118.80 123.20L117.46 117.35L112.05 115.70L107.99 119.91L109.34 125.76L114.74 127.41ZM235.74 16.95L234.40 11.07L228.97 9.40L224.87 13.62L226.20 19.51L231.64 21.17ZM226.20 19.51L224.87 13.62L219.43 11.96L215.33 16.18L216.67 22.06L222.11 23.73ZM238.51 6.85L237.17 0.96L231.73 -0.71L227.63 3.51L228.97 9.40L234.40 11.07ZM228.97 9.40L227.63 3.51L222.19 1.85L218.09 6.07L219.43 11.96L224.87 13.62ZM242.51 24.51L241.18 18.62L235.74 16.95L231.64 21.17L232.97 27.06L238.41 28.73ZM232.97 27.06L231.64 21.17L226.20 19.51L222.11 23.73L223.44 29.61L228.88 31.28ZM245.28 14.40L243.94 8.51L238.51 6.85L234.40 11.07L235.74 16.95L241.18 18.62ZM209.90 14.52L208.56 8.63L203.13 6.97L199.03 11.20L200.37 17.08L205.81 18.74ZM200.37 17.08L199.03 11.20L193.60 9.54L189.51 13.76L190.85 19.64L196.28 21.30ZM212.66 4.41L211.32 -1.48L205.88 -3.14L201.79 1.09L203.13 6.97L208.56 8.63ZM203.13 6.97L201.79 1.09L196.35 -0.57L192.26 3.65L193.60 9.54L199.03 11.20ZM216.67 22.06L215.33 16.18L209.90 14.52L205.81 18.74L207.15 24.62L212.58 26.28ZM207.15 24.62L205.81 18.74L200.37 17.08L196.28 21.30L197.62 27.18L203.05 28.84ZM219.43 11.96L218.09 6.07L212.66 4.41L208.56 8.63L209.90 14.52L215.33 16.18ZM241.27 -3.27L239.94 -9.16L234.50 -10.82L230.39 -6.60L231.73 -0.71L237.17 0.96ZM257.60 1.74L256.26 -4.15L250.82 -5.82L246.71 -1.60L248.05 4.29L253.49 5.96ZM248.05 4.29L246.71 -1.60L241.27 -3.27L237.17 0.96L238.51 6.85L243.94 8.51ZM231.73 -0.71L230.39 -6.60L224.95 -8.26L220.85 -4.04L222.19 1.85L227.63 3.51ZM222.19 1.85L220.85 -4.04L215.42 -5.70L211.32 -1.48L212.66 4.41L218.09 6.07ZM246.51 42.16L245.18 36.28L239.74 34.61L235.64 38.83L236.98 44.71L242.41 46.38ZM236.98 44.71L235.64 38.83L230.21 37.16L226.11 41.38L227.45 47.26L232.88 48.93ZM249.28 32.06L247.95 26.18L242.51 24.51L238.41 28.73L239.74 34.61L245.18 36.28ZM239.74 34.61L238.41 28.73L232.97 27.06L228.88 31.28L230.21 37.16L235.64 38.83ZM253.28 49.72L251.94 43.83L246.51 42.16L242.41 46.38L243.74 52.26L249.17 53.93ZM243.74 52.26L242.41 46.38L236.98 44.71L232.88 48.93L234.22 54.81L239.65 56.47ZM256.05 39.62L254.71 33.73L249.28 32.06L245.18 36.28L246.51 42.16L251.94 43.83ZM220.68 39.71L219.35 33.83L213.92 32.17L209.82 36.38L211.16 42.26L216.59 43.93ZM211.16 42.26L209.82 36.38L204.39 34.72L200.30 38.94L201.64 44.82L207.07 46.48ZM223.44 29.61L222.11 23.73L216.67 22.06L212.58 26.28L213.92 32.17L219.35 33.83ZM213.92 32.17L212.58 26.28L207.15 24.62L203.05 28.84L204.39 34.72L209.82 36.38ZM227.45 47.26L226.11 41.38L220.68 39.71L216.59 43.93L217.93 49.81L223.36 51.47ZM217.93 49.81L216.59 43.93L211.16 42.26L207.07 46.48L208.41 52.36L213.83 54.02ZM230.21 37.16L228.88 31.28L223.44 29.61L219.35 33.83L220.68 39.71L226.11 41.38ZM261.59 19.41L260.26 13.52L254.82 11.85L250.72 16.07L252.05 21.96L257.49 23.63ZM252.05 21.96L250.72 16.07L245.28 14.40L241.18 18.62L242.51 24.51L247.95 26.18ZM264.37 9.30L263.04 3.41L257.60 1.74L253.49 5.96L254.82 11.85L260.26 13.52ZM254.82 11.85L253.49 5.96L248.05 4.29L243.94 8.51L245.28 14.40L250.72 16.07ZM258.82 29.52L257.49 23.63L252.05 21.96L247.95 26.18L249.28 32.06L254.71 33.73ZM257.27 67.37L255.94 61.49L250.51 59.81L246.41 64.03L247.74 69.91L253.17 71.58ZM247.74 69.91L246.41 64.03L240.98 62.36L236.88 66.57L238.22 72.45L243.64 74.12ZM260.04 57.27L258.71 51.39L253.28 49.72L249.17 53.93L250.51 59.81L255.94 61.49ZM250.51 59.81L249.17 53.93L243.74 52.26L239.65 56.47L240.98 62.36L246.41 64.03ZM264.03 74.92L262.70 69.04L257.27 67.37L253.17 71.58L254.50 77.46L259.93 79.13ZM254.50 77.46L253.17 71.58L247.74 69.91L243.64 74.12L244.98 79.99L250.40 81.67ZM266.80 64.83L265.47 58.95L260.04 57.27L255.94 61.49L257.27 67.37L262.70 69.04ZM262.81 47.18L261.48 41.29L256.05 39.62L251.94 43.83L253.28 49.72L258.71 51.39ZM265.59 37.08L264.26 31.19L258.82 29.52L254.71 33.73L256.05 39.62L261.48 41.29ZM258.49 95.09L257.16 89.22L251.73 87.54L247.64 91.75L248.97 97.63L254.39 99.30ZM261.26 85.01L259.93 79.13L254.50 77.46L250.40 81.67L251.73 87.54L257.16 89.22ZM265.24 102.65L263.92 96.77L258.49 95.09L254.39 99.30L255.72 105.18L261.15 106.85ZM132.48 7.34L131.13 1.46L125.70 -0.18L121.63 4.05L122.98 9.92L128.40 11.57ZM122.98 9.92L121.63 4.05L116.20 2.40L112.13 6.63L113.48 12.50L118.90 14.15ZM135.21 -2.77L133.86 -8.64L128.43 -10.29L124.35 -6.06L125.70 -0.18L131.13 1.46ZM125.70 -0.18L124.35 -6.06L118.92 -7.70L114.85 -3.47L116.20 2.40L121.63 4.05ZM139.25 14.86L137.91 8.99L132.48 7.34L128.40 11.57L129.75 17.44L135.18 19.09ZM129.75 17.44L128.40 11.57L122.98 9.92L118.90 14.15L120.25 20.02L125.68 21.67ZM141.98 4.76L140.64 -1.12L135.21 -2.77L131.13 1.46L132.48 7.34L137.91 8.99ZM106.70 4.99L105.35 -0.88L99.93 -2.52L95.86 1.71L97.21 7.58L102.63 9.22ZM97.21 7.58L95.86 1.71L90.43 0.07L86.37 4.30L87.72 10.17L93.14 11.81ZM99.93 -2.52L98.57 -8.40L93.15 -10.04L89.08 -5.80L90.43 0.07L95.86 1.71ZM113.48 12.50L112.13 6.63L106.70 4.99L102.63 9.22L103.99 15.09L109.41 16.73ZM103.99 15.09L102.63 9.22L97.21 7.58L93.14 11.81L94.50 17.68L99.92 19.32ZM116.20 2.40L114.85 -3.47L109.42 -5.11L105.35 -0.88L106.70 4.99L112.13 6.63ZM55.20 0.35L53.84 -5.51L48.42 -7.14L44.36 -2.91L45.72 2.96L51.14 4.59ZM45.72 2.96L44.36 -2.91L38.94 -4.54L34.89 -0.30L36.25 5.56L41.67 7.19ZM61.98 7.85L60.62 1.99L55.20 0.35L51.14 4.59L52.50 10.45L57.92 12.09ZM52.50 10.45L51.14 4.59L45.72 2.96L41.67 7.19L43.03 13.05L48.44 14.68ZM64.68 -2.25L63.32 -8.11L57.90 -9.75L53.84 -5.51L55.20 0.35L60.62 1.99ZM29.47 -1.93L28.11 -7.80L22.69 -9.42L18.64 -5.18L20.00 0.68L25.42 2.30ZM20.00 0.68L18.64 -5.18L13.22 -6.81L9.17 -2.57L10.54 3.29L15.95 4.91ZM36.25 5.56L34.89 -0.30L29.47 -1.93L25.42 2.30L26.78 8.17L32.20 9.79ZM26.78 8.17L25.42 2.30L20.00 0.68L15.95 4.91L17.32 10.77L22.73 12.40ZM66.05 25.45L64.69 19.58L59.28 17.95L55.22 22.18L56.58 28.04L61.99 29.68ZM56.58 28.04L55.22 22.18L49.80 20.55L45.75 24.78L47.11 30.64L52.52 32.27ZM68.75 15.35L67.40 9.49L61.98 7.85L57.92 12.09L59.28 17.95L64.69 19.58ZM59.28 17.95L57.92 12.09L52.50 10.45L48.44 14.68L49.80 20.55L55.22 22.18ZM72.83 32.95L71.47 27.09L66.05 25.45L61.99 29.68L63.35 35.54L68.77 37.18ZM63.35 35.54L61.99 29.68L56.58 28.04L52.52 32.27L53.88 38.13L59.30 39.77ZM75.53 22.86L74.17 16.99L68.75 15.35L64.69 19.58L66.05 25.45L71.47 27.09ZM40.34 23.15L38.97 17.29L33.56 15.66L29.51 19.89L30.87 25.75L36.28 27.38ZM30.87 25.75L29.51 19.89L24.10 18.26L20.05 22.49L21.41 28.35L26.82 29.98ZM43.03 13.05L41.67 7.19L36.25 5.56L32.20 9.79L33.56 15.66L38.97 17.29ZM33.56 15.66L32.20 9.79L26.78 8.17L22.73 12.40L24.10 18.26L29.51 19.89ZM47.11 30.64L45.75 24.78L40.34 23.15L36.28 27.38L37.64 33.24L43.06 34.87ZM37.64 33.24L36.28 27.38L30.87 25.75L26.82 29.98L28.18 35.84L33.59 37.47ZM49.80 20.55L48.44 14.68L43.03 13.05L38.97 17.29L40.34 23.15L45.75 24.78ZM80.94 2.66L79.59 -3.21L74.16 -4.85L70.10 -0.61L71.46 5.26L76.88 6.89ZM71.46 5.26L70.10 -0.61L64.68 -2.25L60.62 1.99L61.98 7.85L67.40 9.49ZM87.72 10.17L86.37 4.30L80.94 2.66L76.88 6.89L78.24 12.76L83.66 14.40ZM78.24 12.76L76.88 6.89L71.46 5.26L67.40 9.49L68.75 15.35L74.17 16.99ZM90.43 0.07L89.08 -5.80L83.65 -7.44L79.59 -3.21L80.94 2.66L86.37 4.30ZM169.08 34.87L167.73 29.00L162.31 27.34L158.23 31.56L159.57 37.44L165.00 39.09ZM159.57 37.44L158.23 31.56L152.80 29.91L148.72 34.13L150.07 40.01L155.49 41.66ZM171.82 24.77L170.47 18.90L165.04 17.24L160.96 21.47L162.31 27.34L167.73 29.00ZM162.31 27.34L160.96 21.47L155.53 19.81L151.45 24.04L152.80 29.91L158.23 31.56ZM175.85 42.40L174.50 36.53L169.08 34.87L165.00 39.09L166.34 44.97L171.76 46.62ZM166.34 44.97L165.00 39.09L159.57 37.44L155.49 41.66L156.84 47.53L162.26 49.19ZM178.59 32.31L177.25 26.43L171.82 24.77L167.73 29.00L169.08 34.87L174.50 36.53ZM143.30 32.48L141.95 26.61L136.53 24.96L132.45 29.19L133.80 35.06L139.22 36.71ZM133.80 35.06L132.45 29.19L127.03 27.54L122.95 31.76L124.30 37.63L129.73 39.28ZM146.03 22.39L144.68 16.51L139.25 14.86L135.18 19.09L136.53 24.96L141.95 26.61ZM136.53 24.96L135.18 19.09L129.75 17.44L125.68 21.67L127.03 27.54L132.45 29.19ZM150.07 40.01L148.72 34.13L143.30 32.48L139.22 36.71L140.57 42.58L145.99 44.23ZM140.57 42.58L139.22 36.71L133.80 35.06L129.73 39.28L131.07 45.15L136.49 46.80ZM152.80 29.91L151.45 24.04L146.03 22.39L141.95 26.61L143.30 32.48L148.72 34.13ZM184.08 12.10L182.73 6.22L177.30 4.57L173.22 8.79L174.56 14.67L179.99 16.33ZM174.56 14.67L173.22 8.79L167.78 7.14L163.70 11.36L165.04 17.24L170.47 18.90ZM186.83 2.00L185.48 -3.89L180.05 -5.54L175.96 -1.32L177.30 4.57L182.73 6.22ZM177.30 4.57L175.96 -1.32L170.53 -2.97L166.44 1.26L167.78 7.14L173.22 8.79ZM190.85 19.64L189.51 13.76L184.08 12.10L179.99 16.33L181.33 22.21L186.76 23.86ZM181.33 22.21L179.99 16.33L174.56 14.67L170.47 18.90L171.82 24.77L177.25 26.43ZM193.60 9.54L192.26 3.65L186.83 2.00L182.73 6.22L184.08 12.10L189.51 13.76ZM158.27 9.71L156.92 3.83L151.49 2.18L147.41 6.41L148.76 12.29L154.19 13.94ZM148.76 12.29L147.41 6.41L141.98 4.76L137.91 8.99L139.25 14.86L144.68 16.51ZM161.01 -0.40L159.66 -6.28L154.23 -7.93L150.15 -3.70L151.49 2.18L156.92 3.83ZM151.49 2.18L150.15 -3.70L144.72 -5.35L140.64 -1.12L141.98 4.76L147.41 6.41ZM165.04 17.24L163.70 11.36L158.27 9.71L154.19 13.94L155.53 19.81L160.96 21.47ZM155.53 19.81L154.19 13.94L148.76 12.29L144.68 16.51L146.03 22.39L151.45 24.04ZM167.78 7.14L166.44 1.26L161.01 -0.40L156.92 3.83L158.27 9.71L163.70 11.36ZM179.87 60.03L178.53 54.15L173.11 52.50L169.02 56.71L170.37 62.58L175.79 64.24ZM170.37 62.58L169.02 56.71L163.60 55.06L159.52 59.27L160.87 65.15L166.29 66.80ZM182.61 49.94L181.27 44.06L175.85 42.40L171.76 46.62L173.11 52.50L178.53 54.15ZM173.11 52.50L171.76 46.62L166.34 44.97L162.26 49.19L163.60 55.06L169.02 56.71ZM186.63 67.56L185.29 61.68L179.87 60.03L175.79 64.24L177.13 70.11L182.55 71.77ZM177.13 70.11L175.79 64.24L170.37 62.58L166.29 66.80L167.63 72.67L173.05 74.33ZM189.38 57.47L188.04 51.59L182.61 49.94L178.53 54.15L179.87 60.03L185.29 61.68ZM154.10 57.62L152.76 51.75L147.34 50.10L143.26 54.32L144.61 60.19L150.03 61.84ZM144.61 60.19L143.26 54.32L137.84 52.67L133.77 56.89L135.12 62.75L140.53 64.40ZM156.84 47.53L155.49 41.66L150.07 40.01L145.99 44.23L147.34 50.10L152.76 51.75ZM147.34 50.10L145.99 44.23L140.57 42.58L136.49 46.80L137.84 52.67L143.26 54.32ZM160.87 65.15L159.52 59.27L154.10 57.62L150.03 61.84L151.37 67.71L156.79 69.36ZM151.37 67.71L150.03 61.84L144.61 60.19L140.53 64.40L141.88 70.27L147.30 71.92ZM163.60 55.06L162.26 49.19L156.84 47.53L152.76 51.75L154.10 57.62L159.52 59.27ZM194.87 37.28L193.53 31.40L188.10 29.74L184.02 33.96L185.36 39.84L190.78 41.50ZM185.36 39.84L184.02 33.96L178.59 32.31L174.50 36.53L175.85 42.40L181.27 44.06ZM197.62 27.18L196.28 21.30L190.85 19.64L186.76 23.86L188.10 29.74L193.53 31.40ZM188.10 29.74L186.76 23.86L181.33 22.21L177.25 26.43L178.59 32.31L184.02 33.96ZM201.64 44.82L200.30 38.94L194.87 37.28L190.78 41.50L192.12 47.38L197.55 49.04ZM192.12 47.38L190.78 41.50L185.36 39.84L181.27 44.06L182.61 49.94L188.04 51.59ZM204.39 34.72L203.05 28.84L197.62 27.18L193.53 31.40L194.87 37.28L200.30 38.94ZM102.61 52.88L101.26 47.01L95.85 45.37L91.78 49.59L93.14 55.46L98.55 57.10ZM93.14 55.46L91.78 49.59L86.37 47.95L82.31 52.18L83.66 58.04L89.07 59.68ZM105.33 42.79L103.98 36.92L98.56 35.28L94.49 39.51L95.85 45.37L101.26 47.01ZM95.85 45.37L94.49 39.51L89.07 37.86L85.01 42.09L86.37 47.95L91.78 49.59ZM109.38 60.39L108.03 54.52L102.61 52.88L98.55 57.10L99.90 62.96L105.32 64.61ZM99.90 62.96L98.55 57.10L93.14 55.46L89.07 59.68L90.43 65.54L95.84 67.18ZM112.10 50.30L110.75 44.43L105.33 42.79L101.26 47.01L102.61 52.88L108.03 54.52ZM76.89 50.54L75.54 44.68L70.12 43.04L66.07 47.26L67.42 53.12L72.83 54.76ZM67.42 53.12L66.07 47.26L60.65 45.63L56.60 49.85L57.96 55.71L63.37 57.35ZM79.60 40.45L78.24 34.59L72.83 32.95L68.77 37.18L70.12 43.04L75.54 44.68ZM70.12 43.04L68.77 37.18L63.35 35.54L59.30 39.77L60.65 45.63L66.07 47.26ZM83.66 58.04L82.31 52.18L76.89 50.54L72.83 54.76L74.19 60.62L79.60 62.26ZM74.19 60.62L72.83 54.76L67.42 53.12L63.37 57.35L64.72 63.21L70.13 64.84ZM86.37 47.95L85.01 42.09L79.60 40.45L75.54 44.68L76.89 50.54L82.31 52.18ZM117.53 30.12L116.18 24.25L110.76 22.60L106.69 26.83L108.04 32.70L113.46 34.34ZM108.04 32.70L106.69 26.83L101.27 25.19L97.20 29.41L98.56 35.28L103.98 36.92ZM120.25 20.02L118.90 14.15L113.48 12.50L109.41 16.73L110.76 22.60L116.18 24.25ZM110.76 22.60L109.41 16.73L103.99 15.09L99.92 19.32L101.27 25.19L106.69 26.83ZM124.30 37.63L122.95 31.76L117.53 30.12L113.46 34.34L114.81 40.21L120.23 41.86ZM114.81 40.21L113.46 34.34L108.04 32.70L103.98 36.92L105.33 42.79L110.75 44.43ZM127.03 27.54L125.68 21.67L120.25 20.02L116.18 24.25L117.53 30.12L122.95 31.76ZM91.78 27.77L90.43 21.91L85.01 20.27L80.95 24.49L82.30 30.36L87.72 32.00ZM82.30 30.36L80.95 24.49L75.53 22.86L71.47 27.09L72.83 32.95L78.24 34.59ZM94.50 17.68L93.14 11.81L87.72 10.17L83.66 14.40L85.01 20.27L90.43 21.91ZM85.01 20.27L83.66 14.40L78.24 12.76L74.17 16.99L75.53 22.86L80.95 24.49ZM98.56 35.28L97.20 29.41L91.78 27.77L87.72 32.00L89.07 37.86L94.49 39.51ZM89.07 37.86L87.72 32.00L82.30 30.36L78.24 34.59L79.60 40.45L85.01 42.09ZM101.27 25.19L99.92 19.32L94.50 17.68L90.43 21.91L91.78 27.77L97.20 29.41ZM113.43 77.98L112.08 72.11L106.67 70.47L102.60 74.69L103.95 80.55L109.37 82.19ZM103.95 80.55L102.60 74.69L97.19 73.04L93.13 77.26L94.48 83.12L99.89 84.76ZM116.15 67.90L114.80 62.03L109.38 60.39L105.32 64.61L106.67 70.47L112.08 72.11ZM106.67 70.47L105.32 64.61L99.90 62.96L95.84 67.18L97.19 73.04L102.60 74.69ZM120.19 85.48L118.84 79.62L113.43 77.98L109.37 82.19L110.72 88.05L116.13 89.70ZM110.72 88.05L109.37 82.19L103.95 80.55L99.89 84.76L101.24 90.62L106.65 92.27ZM122.91 75.41L121.56 69.54L116.15 67.90L112.08 72.11L113.43 77.98L118.84 79.62ZM87.72 75.62L86.37 69.76L80.96 68.12L76.90 72.34L78.25 78.20L83.66 79.84ZM78.25 78.20L76.90 72.34L71.49 70.70L67.44 74.92L68.79 80.78L74.20 82.42ZM90.43 65.54L89.07 59.68L83.66 58.04L79.60 62.26L80.96 68.12L86.37 69.76ZM80.96 68.12L79.60 62.26L74.19 60.62L70.13 64.84L71.49 70.70L76.90 72.34ZM94.48 83.12L93.13 77.26L87.72 75.62L83.66 79.84L85.02 85.70L90.43 87.34ZM85.02 85.70L83.66 79.84L78.25 78.20L74.20 82.42L75.55 88.27L80.96 89.91ZM97.19 73.04L95.84 67.18L90.43 65.54L86.37 69.76L87.72 75.62L93.13 77.26ZM128.35 55.24L127.00 49.37L121.58 47.72L117.51 51.95L118.86 57.81L124.28 59.46ZM118.86 57.81L117.51 51.95L112.10 50.30L108.03 54.52L109.38 60.39L114.80 62.03ZM131.07 45.15L129.73 39.28L124.30 37.63L120.23 41.86L121.58 47.72L127.00 49.37ZM121.58 47.72L120.23 41.86L114.81 40.21L110.75 44.43L112.10 50.30L117.51 51.95ZM135.12 62.75L133.77 56.89L128.35 55.24L124.28 59.46L125.63 65.32L131.05 66.97ZM125.63 65.32L124.28 59.46L118.86 57.81L114.80 62.03L116.15 67.90L121.56 69.54ZM137.84 52.67L136.49 46.80L131.07 45.15L127.00 49.37L128.35 55.24L133.77 56.89ZM205.88 -3.14L204.54 -9.02L199.10 -10.68L195.01 -6.46L196.35 -0.57L201.79 1.09ZM196.35 -0.57L195.01 -6.46L189.57 -8.11L185.48 -3.89L186.83 2.00L192.26 3.65ZM170.53 -2.97L169.18 -8.85L163.75 -10.50L159.66 -6.28L161.01 -0.40L166.44 1.26ZM265.77 261.02L264.45 255.16L259.05 253.48L254.97 257.66L256.30 263.51L261.70 265.19ZM256.30 263.51L254.97 257.66L249.57 255.98L245.50 260.16L246.82 266.01L252.22 267.69ZM259.05 253.48L257.73 247.63L252.33 245.95L248.25 250.13L249.57 255.98L254.97 257.66ZM240.10 258.48L238.77 252.63L233.37 250.96L229.30 255.13L230.63 260.98L236.03 262.66ZM230.63 260.98L229.30 255.13L223.91 253.46L219.84 257.64L221.16 263.49L226.56 265.16ZM242.85 248.45L241.52 242.60L236.12 240.92L232.05 245.10L233.37 250.96L238.77 252.63ZM233.37 250.96L232.05 245.10L226.65 243.43L222.58 247.61L223.91 253.46L229.30 255.13ZM249.57 255.98L248.25 250.13L242.85 248.45L238.77 252.63L240.10 258.48L245.50 260.16ZM214.44 255.97L213.11 250.12L207.71 248.45L203.65 252.63L204.98 258.48L210.37 260.15ZM204.98 258.48L203.65 252.63L198.25 250.96L194.19 255.14L195.52 260.99L200.91 262.66ZM217.18 245.94L215.85 240.09L210.45 238.42L206.38 242.60L207.71 248.45L213.11 250.12ZM207.71 248.45L206.38 242.60L200.99 240.93L196.92 245.12L198.25 250.96L203.65 252.63ZM221.16 263.49L219.84 257.64L214.44 255.97L210.37 260.15L211.70 265.99L217.10 267.66ZM223.91 253.46L222.58 247.61L217.18 245.94L213.11 250.12L214.44 255.97L219.84 257.64ZM111.96 246.13L110.61 240.29L105.23 238.64L101.18 242.83L102.53 248.67L107.91 250.32ZM102.53 248.67L101.18 242.83L95.80 241.18L91.76 245.37L93.10 251.21L98.49 252.85ZM114.66 236.11L113.32 230.27L107.93 228.62L103.88 232.81L105.23 238.64L110.61 240.29ZM105.23 238.64L103.88 232.81L98.49 231.16L94.45 235.35L95.80 241.18L101.18 242.83ZM118.68 253.62L117.34 247.78L111.96 246.13L107.91 250.32L109.26 256.15L114.64 257.80ZM109.26 256.15L107.91 250.32L102.53 248.67L98.49 252.85L99.83 258.69L105.21 260.34ZM121.39 243.60L120.05 237.76L114.66 236.11L110.61 240.29L111.96 246.13L117.34 247.78ZM86.37 243.72L85.03 237.89L79.64 236.24L75.61 240.43L76.95 246.27L82.34 247.91ZM76.95 246.27L75.61 240.43L70.22 238.79L66.19 242.98L67.54 248.81L72.92 250.46ZM89.07 233.70L87.72 227.86L82.33 226.22L78.30 230.41L79.64 236.24L85.03 237.89ZM79.64 236.24L78.30 230.41L72.91 228.77L68.87 232.96L70.22 238.79L75.61 240.43ZM93.10 251.21L91.76 245.37L86.37 243.72L82.34 247.91L83.68 253.74L89.07 255.39ZM83.68 253.74L82.34 247.91L76.95 246.27L72.92 250.46L74.27 256.29L79.65 257.93ZM95.80 241.18L94.45 235.35L89.07 233.70L85.03 237.89L86.37 243.72L91.76 245.37ZM126.80 223.54L125.46 217.70L120.07 216.04L116.02 220.24L117.36 226.08L122.75 227.73ZM117.36 226.08L116.02 220.24L110.63 218.59L106.58 222.78L107.93 228.62L113.32 230.27ZM129.51 213.51L128.17 207.66L122.77 206.01L118.72 210.20L120.07 216.04L125.46 217.70ZM120.07 216.04L118.72 210.20L113.33 208.55L109.28 212.74L110.63 218.59L116.02 220.24ZM133.53 231.04L132.19 225.19L126.80 223.54L122.75 227.73L124.09 233.57L129.48 235.22ZM124.09 233.57L122.75 227.73L117.36 226.08L113.32 230.27L114.66 236.11L120.05 237.76ZM136.25 221.00L134.90 215.16L129.51 213.51L125.46 217.70L126.80 223.54L132.19 225.19ZM101.19 221.13L99.85 215.29L94.46 213.64L90.41 217.83L91.76 223.67L97.15 225.32ZM91.76 223.67L90.41 217.83L85.03 216.19L80.99 220.38L82.33 226.22L87.72 227.86ZM103.89 211.10L102.55 205.25L97.16 203.61L93.11 207.80L94.46 213.64L99.85 215.29ZM94.46 213.64L93.11 207.80L87.72 206.16L83.68 210.35L85.03 216.19L90.41 217.83ZM107.93 228.62L106.58 222.78L101.19 221.13L97.15 225.32L98.49 231.16L103.88 232.81ZM98.49 231.16L97.15 225.32L91.76 223.67L87.72 227.86L89.07 233.70L94.45 235.35ZM110.63 218.59L109.28 212.74L103.89 211.10L99.85 215.29L101.19 221.13L106.58 222.78ZM125.41 261.11L124.07 255.27L118.68 253.62L114.64 257.80L115.98 263.64L121.37 265.29ZM99.83 258.69L98.49 252.85L93.10 251.21L89.07 255.39L90.41 261.22L95.79 262.87ZM90.41 261.22L89.07 255.39L83.68 253.74L79.65 257.93L80.99 263.76L86.37 265.41ZM137.55 248.56L136.21 242.72L130.82 241.06L126.78 245.25L128.12 251.09L133.51 252.74ZM128.12 251.09L126.78 245.25L121.39 243.60L117.34 247.78L118.68 253.62L124.07 255.27ZM140.27 238.53L138.93 232.69L133.53 231.04L129.48 235.22L130.82 241.06L136.21 242.72ZM130.82 241.06L129.48 235.22L124.09 233.57L120.05 237.76L121.39 243.60L126.78 245.25ZM144.28 256.05L142.94 250.21L137.55 248.56L133.51 252.74L134.84 258.58L140.23 260.24ZM134.84 258.58L133.51 252.74L128.12 251.09L124.07 255.27L125.41 261.11L130.80 262.76ZM146.99 246.03L145.66 240.19L140.27 238.53L136.21 242.72L137.55 248.56L142.94 250.21ZM48.72 253.91L47.37 248.08L41.99 246.44L37.96 250.63L39.31 256.46L44.69 258.09ZM39.31 256.46L37.96 250.63L32.58 248.99L28.56 253.18L29.91 259.01L35.29 260.64ZM55.45 261.37L54.10 255.55L48.72 253.91L44.69 258.09L46.04 263.92L51.42 265.56ZM20.52 261.56L19.16 255.74L13.79 254.10L9.77 258.29L11.13 264.12L16.50 265.75ZM23.19 251.55L21.83 245.72L16.45 244.09L12.43 248.28L13.79 254.10L19.16 255.74ZM13.79 254.10L12.43 248.28L7.06 246.65L3.04 250.84L4.40 256.66L9.77 258.29ZM29.91 259.01L28.56 253.18L23.19 251.55L19.16 255.74L20.52 261.56L25.89 263.20ZM60.81 241.34L59.46 235.51L54.08 233.87L50.04 238.06L51.40 243.89L56.78 245.53ZM51.40 243.89L50.04 238.06L44.66 236.42L40.64 240.61L41.99 246.44L47.37 248.08ZM63.49 231.32L62.14 225.48L56.76 223.84L52.72 228.03L54.08 233.87L59.46 235.51ZM54.08 233.87L52.72 228.03L47.34 226.40L43.31 230.59L44.66 236.42L50.04 238.06ZM67.54 248.81L66.19 242.98L60.81 241.34L56.78 245.53L58.13 251.36L63.51 253.00ZM58.13 251.36L56.78 245.53L51.40 243.89L47.37 248.08L48.72 253.91L54.10 255.55ZM70.22 238.79L68.87 232.96L63.49 231.32L59.46 235.51L60.81 241.34L66.19 242.98ZM35.26 238.97L33.90 233.14L28.52 231.51L24.50 235.70L25.85 241.53L31.23 243.17ZM25.85 241.53L24.50 235.70L19.12 234.07L15.10 238.26L16.45 244.09L21.83 245.72ZM37.93 228.95L36.58 223.12L31.20 221.49L27.17 225.68L28.52 231.51L33.90 233.14ZM28.52 231.51L27.17 225.68L21.79 224.05L17.76 228.24L19.12 234.07L24.50 235.70ZM41.99 246.44L40.64 240.61L35.26 238.97L31.23 243.17L32.58 248.99L37.96 250.63ZM32.58 248.99L31.23 243.17L25.85 241.53L21.83 245.72L23.19 251.55L28.56 253.18ZM44.66 236.42L43.31 230.59L37.93 228.95L33.90 233.14L35.26 238.97L40.64 240.61ZM74.27 256.29L72.92 250.46L67.54 248.81L63.51 253.00L64.85 258.83L70.23 260.47ZM64.85 258.83L63.51 253.00L58.13 251.36L54.10 255.55L55.45 261.37L60.82 263.02ZM4.40 256.66L3.04 250.84L-2.33 249.21L-6.35 253.40L-4.99 259.22L0.38 260.85Z"/></svg>
