<svg xmlns="http://www.w3.org/2000/svg" width="256" height="256" viewBox="0 0 256 256"><path data-band="3" fill="#dc2626" fill-opacity="0.35" d="M188.80 -2.52L187.46 -8.37L182.07 -10.03L178.01 -5.85L179.34 -0.01L184.74 1.66ZM179.34 -0.01L178.01 -5.85L172.62 -7.51L168.56 -3.33L169.89 2.51L175.28 4.17ZM195.52 4.99L194.19 -0.86L188.80 -2.52L184.74 1.66L186.07 7.50L191.46 9.17ZM186.07 7.50L184.74 1.66L179.34 -0.01L175.28 4.17L176.62 10.02L182.01 11.68ZM153.72 -2.47L152.39 -8.31L146.99 -9.97L142.94 -5.79L144.28 0.05L149.67 1.71ZM169.89 2.51L168.56 -3.33L163.17 -4.99L159.11 -0.81L160.45 5.03L165.84 6.69ZM160.45 5.03L159.11 -0.81L153.72 -2.47L149.67 1.71L151.01 7.55L156.40 9.21ZM262.68 80.17L261.36 74.33L255.97 72.65L251.91 76.81L253.23 82.65L258.61 84.33ZM265.43 70.16L264.11 64.32L258.72 62.64L254.65 66.80L255.97 72.65L261.36 74.33ZM246.52 75.13L245.20 69.29L239.81 67.61L235.74 71.78L237.07 77.62L242.45 79.29ZM237.07 77.62L235.74 71.78L230.36 70.10L226.30 74.26L227.62 80.10L233.00 81.78ZM249.26 65.12L247.94 59.28L242.55 57.60L238.49 61.77L239.81 67.61L245.20 69.29ZM239.81 67.61L238.49 61.77L233.10 60.09L229.03 64.26L230.36 70.10L235.74 71.78ZM253.23 82.65L251.91 76.81L246.52 75.13L242.45 79.29L243.78 85.13L249.16 86.81ZM243.78 85.13L242.45 79.29L237.07 77.62L233.00 81.78L234.33 87.62L239.71 89.29ZM255.97 72.65L254.65 66.80L249.26 65.12L245.20 69.29L246.52 75.13L251.91 76.81ZM261.47 52.63L260.15 46.78L254.76 45.10L250.69 49.27L252.01 55.11L257.40 56.79ZM252.01 55.11L250.69 49.27L245.30 47.59L241.23 51.76L242.55 57.60L247.94 59.28ZM264.23 42.61L262.91 36.76L257.51 35.08L253.44 39.25L254.76 45.10L260.15 46.78ZM254.76 45.10L253.44 39.25L248.04 37.58L243.97 41.75L245.30 47.59L250.69 49.27ZM258.72 62.64L257.40 56.79L252.01 55.11L247.94 59.28L249.26 65.12L254.65 66.80ZM257.19 100.17L255.87 94.33L250.48 92.65L246.42 96.81L247.74 102.65L253.12 104.33ZM247.74 102.65L246.42 96.81L241.03 95.13L236.97 99.29L238.29 105.13L243.68 106.80ZM259.93 90.17L258.61 84.33L253.23 82.65L249.16 86.81L250.48 92.65L255.87 94.33ZM250.48 92.65L249.16 86.81L243.78 85.13L239.71 89.29L241.03 95.13L246.42 96.81ZM263.89 107.69L262.57 101.85L257.19 100.17L253.12 104.33L254.44 110.16L259.82 111.85ZM254.44 110.16L253.12 104.33L247.74 102.65L243.68 106.80L245.00 112.64L250.38 114.32ZM266.64 97.69L265.32 91.85L259.93 90.17L255.87 94.33L257.19 100.17L262.57 101.85ZM206.01 95.08L204.68 89.25L199.30 87.58L195.25 91.74L196.57 97.57L201.95 99.24ZM196.57 97.57L195.25 91.74L189.87 90.07L185.82 94.23L187.15 100.06L192.52 101.73ZM208.74 85.08L207.41 79.25L202.03 77.58L197.97 81.74L199.30 87.58L204.68 89.25ZM199.30 87.58L197.97 81.74L192.59 80.07L188.54 84.24L189.87 90.07L195.25 91.74ZM212.71 102.58L211.39 96.75L206.01 95.08L201.95 99.24L203.28 105.07L208.66 106.74ZM203.28 105.07L201.95 99.24L196.57 97.57L192.52 101.73L193.85 107.56L199.23 109.23ZM215.44 92.59L214.12 86.75L208.74 85.08L204.68 89.25L206.01 95.08L211.39 96.75ZM180.44 92.57L179.11 86.74L173.73 85.07L169.68 89.24L171.02 95.06L176.39 96.73ZM171.02 95.06L169.68 89.24L164.31 87.57L160.26 91.74L161.60 97.56L166.97 99.23ZM183.16 82.57L181.83 76.74L176.45 75.07L172.40 79.24L173.73 85.07L179.11 86.74ZM173.73 85.07L172.40 79.24L167.02 77.57L162.98 81.74L164.31 87.57L169.68 89.24ZM187.15 100.06L185.82 94.23L180.44 92.57L176.39 96.73L177.72 102.56L183.10 104.23ZM177.72 102.56L176.39 96.73L171.02 95.06L166.97 99.23L168.30 105.06L173.68 106.72ZM189.87 90.07L188.54 84.24L183.16 82.57L179.11 86.74L180.44 92.57L185.82 94.23ZM220.91 72.59L219.58 66.75L214.20 65.08L210.14 69.25L211.47 75.08L216.85 76.75ZM211.47 75.08L210.14 69.25L204.76 67.57L200.70 71.74L202.03 77.58L207.41 79.25ZM223.65 62.59L222.32 56.74L216.93 55.07L212.87 59.24L214.20 65.08L219.58 66.75ZM214.20 65.08L212.87 59.24L207.49 57.57L203.43 61.74L204.76 67.57L210.14 69.25ZM227.62 80.10L226.30 74.26L220.91 72.59L216.85 76.75L218.18 82.59L223.56 84.27ZM218.18 82.59L216.85 76.75L211.47 75.08L207.41 79.25L208.74 85.08L214.12 86.75ZM230.36 70.10L229.03 64.26L223.65 62.59L219.58 66.75L220.91 72.59L226.30 74.26ZM195.32 70.07L193.99 64.24L188.60 62.57L184.55 66.74L185.88 72.57L191.26 74.24ZM185.88 72.57L184.55 66.74L179.17 65.07L175.12 69.24L176.45 75.07L181.83 76.74ZM198.04 60.07L196.71 54.23L191.33 52.56L187.27 56.73L188.60 62.57L193.99 64.24ZM188.60 62.57L187.27 56.73L181.89 55.07L177.84 59.24L179.17 65.07L184.55 66.74ZM202.03 77.58L200.70 71.74L195.32 70.07L191.26 74.24L192.59 80.07L197.97 81.74ZM192.59 80.07L191.26 74.24L185.88 72.57L181.83 76.74L183.16 82.57L188.54 84.24ZM204.76 67.57L203.43 61.74L198.04 60.07L193.99 64.24L195.32 70.07L200.70 71.74ZM216.69 120.08L215.36 114.25L209.98 112.58L205.93 116.73L207.26 122.56L212.63 124.24ZM207.26 122.56L205.93 116.73L200.56 115.06L196.51 119.22L197.83 125.05L203.21 126.72ZM219.42 110.09L218.09 104.26L212.71 102.58L208.66 106.74L209.98 112.58L215.36 114.25ZM209.98 112.58L208.66 106.74L203.28 105.07L199.23 109.23L200.56 115.06L205.93 116.73ZM223.39 127.59L222.06 121.75L216.69 120.08L212.63 124.24L213.96 130.07L219.33 131.74ZM213.96 130.07L212.63 124.24L207.26 122.56L203.21 126.72L204.53 132.55L209.91 134.22ZM226.12 117.60L224.80 111.77L219.42 110.09L215.36 114.25L216.69 120.08L222.06 121.75ZM191.13 117.55L189.80 111.72L184.43 110.05L180.38 114.21L181.71 120.04L187.08 121.71ZM181.71 120.04L180.38 114.21L175.01 112.55L170.96 116.71L172.29 122.53L177.67 124.20ZM193.85 107.56L192.52 101.73L187.15 100.06L183.10 104.23L184.43 110.05L189.80 111.72ZM184.43 110.05L183.10 104.23L177.72 102.56L173.68 106.72L175.01 112.55L180.38 114.21ZM197.83 125.05L196.51 119.22L191.13 117.55L187.08 121.71L188.41 127.54L193.78 129.21ZM188.41 127.54L187.08 121.71L181.71 120.04L177.67 124.20L178.99 130.02L184.37 131.69ZM200.56 115.06L199.23 109.23L193.85 107.56L189.80 111.72L191.13 117.55L196.51 119.22ZM231.59 97.61L230.27 91.78L224.88 90.10L220.83 94.26L222.15 100.10L227.53 101.77ZM222.15 100.10L220.83 94.26L215.44 92.59L211.39 96.75L212.71 102.58L218.09 104.26ZM234.33 87.62L233.00 81.78L227.62 80.10L223.56 84.27L224.88 90.10L230.27 91.78ZM224.88 90.10L223.56 84.27L218.18 82.59L214.12 86.75L215.44 92.59L220.83 94.26ZM238.29 105.13L236.97 99.29L231.59 97.61L227.53 101.77L228.85 107.61L234.23 109.28ZM228.85 107.61L227.53 101.77L222.15 100.10L218.09 104.26L219.42 110.09L224.80 111.77ZM241.03 95.13L239.71 89.29L234.33 87.62L230.27 91.78L231.59 97.61L236.97 99.29ZM265.77 5.02L264.45 -0.84L259.05 -2.52L254.97 1.66L256.30 7.51L261.70 9.19ZM256.30 7.51L254.97 1.66L249.57 -0.02L245.50 4.16L246.82 10.01L252.22 11.69ZM259.05 -2.52L257.73 -8.37L252.33 -10.05L248.25 -5.87L249.57 -0.02L254.97 1.66ZM263.02 15.04L261.70 9.19L256.30 7.51L252.22 11.69L253.54 17.54L258.94 19.21ZM225.15 25.03L223.82 19.18L218.42 17.51L214.36 21.69L215.69 27.53L221.08 29.20ZM215.69 27.53L214.36 21.69L208.97 20.02L204.90 24.19L206.23 30.03L211.62 31.70ZM227.89 15.01L226.56 9.16L221.16 7.49L217.10 11.66L218.42 17.51L223.82 19.18ZM218.42 17.51L217.10 11.66L211.70 9.99L207.64 14.17L208.97 20.02L214.36 21.69ZM231.86 32.55L230.54 26.70L225.15 25.03L221.08 29.20L222.41 35.05L227.80 36.72ZM222.41 35.05L221.08 29.20L215.69 27.53L211.62 31.70L212.95 37.55L218.34 39.22ZM234.61 22.53L233.28 16.68L227.89 15.01L223.82 19.18L225.15 25.03L230.54 26.70ZM199.51 22.52L198.18 16.68L192.79 15.01L188.73 19.19L190.06 25.03L195.45 26.70ZM190.06 25.03L188.73 19.19L183.34 17.52L179.28 21.70L180.62 27.54L186.01 29.21ZM202.24 12.50L200.91 6.66L195.52 4.99L191.46 9.17L192.79 15.01L198.18 16.68ZM192.79 15.01L191.46 9.17L186.07 7.50L182.01 11.68L183.34 17.52L188.73 19.19ZM206.23 30.03L204.90 24.19L199.51 22.52L195.45 26.70L196.78 32.54L202.17 34.21ZM196.78 32.54L195.45 26.70L190.06 25.03L186.01 29.21L187.34 35.05L192.72 36.71ZM208.97 20.02L207.64 14.17L202.24 12.50L198.18 16.68L199.51 22.52L204.90 24.19ZM240.10 2.48L238.77 -3.37L233.37 -5.04L229.30 -0.87L230.63 4.98L236.03 6.66ZM230.63 4.98L229.30 -0.87L223.91 -2.54L219.84 1.64L221.16 7.49L226.56 9.16ZM246.82 10.01L245.50 4.16L240.10 2.48L236.03 6.66L237.35 12.51L242.75 14.18ZM237.35 12.51L236.03 6.66L230.63 4.98L226.56 9.16L227.89 15.01L233.28 16.68ZM249.57 -0.02L248.25 -5.87L242.85 -7.55L238.77 -3.37L240.10 2.48L245.50 4.16ZM214.44 -0.03L213.11 -5.88L207.71 -7.55L203.65 -3.37L204.98 2.48L210.37 4.15ZM204.98 2.48L203.65 -3.37L198.25 -5.04L194.19 -0.86L195.52 4.99L200.91 6.66ZM221.16 7.49L219.84 1.64L214.44 -0.03L210.37 4.15L211.70 9.99L217.10 11.66ZM211.70 9.99L210.37 4.15L204.98 2.48L200.91 6.66L202.24 12.50L207.64 14.17ZM223.91 -2.54L222.58 -8.39L217.18 -10.06L213.11 -5.88L214.44 -0.03L219.84 1.64ZM235.84 50.08L234.51 44.24L229.12 42.56L225.06 46.73L226.38 52.58L231.77 54.25ZM226.38 52.58L225.06 46.73L219.67 45.06L215.61 49.23L216.93 55.07L222.32 56.74ZM238.58 40.07L237.26 34.22L231.86 32.55L227.80 36.72L229.12 42.56L234.51 44.24ZM229.12 42.56L227.80 36.72L222.41 35.05L218.34 39.22L219.67 45.06L225.06 46.73ZM242.55 57.60L241.23 51.76L235.84 50.08L231.77 54.25L233.10 60.09L238.49 61.77ZM233.10 60.09L231.77 54.25L226.38 52.58L222.32 56.74L223.65 62.59L229.03 64.26ZM245.30 47.59L243.97 41.75L238.58 40.07L234.51 44.24L235.84 50.08L241.23 51.76ZM210.22 47.56L208.89 41.72L203.50 40.05L199.44 44.22L200.77 50.06L206.16 51.73ZM200.77 50.06L199.44 44.22L194.05 42.55L190.00 46.72L191.33 52.56L196.71 54.23ZM212.95 37.55L211.62 31.70L206.23 30.03L202.17 34.21L203.50 40.05L208.89 41.72ZM203.50 40.05L202.17 34.21L196.78 32.54L192.72 36.71L194.05 42.55L199.44 44.22ZM216.93 55.07L215.61 49.23L210.22 47.56L206.16 51.73L207.49 57.57L212.87 59.24ZM207.49 57.57L206.16 51.73L200.77 50.06L196.71 54.23L198.04 60.07L203.43 61.74ZM219.67 45.06L218.34 39.22L212.95 37.55L208.89 41.72L210.22 47.56L215.61 49.23ZM250.79 27.56L249.47 21.71L244.07 20.03L240.00 24.20L241.33 30.05L246.72 31.73ZM241.33 30.05L240.00 24.20L234.61 22.53L230.54 26.70L231.86 32.55L237.26 34.22ZM253.54 17.54L252.22 11.69L246.82 10.01L242.75 14.18L244.07 20.03L249.47 21.71ZM244.07 20.03L242.75 14.18L237.35 12.51L233.28 16.68L234.61 22.53L240.00 24.20ZM257.51 35.08L256.19 29.24L250.79 27.56L246.72 31.73L248.04 37.58L253.44 39.25ZM248.04 37.58L246.72 31.73L241.33 30.05L237.26 34.22L238.58 40.07L243.97 41.75ZM260.26 25.07L258.94 19.21L253.54 17.54L249.47 21.71L250.79 27.56L256.19 29.24ZM252.91 147.64L251.59 141.81L246.22 140.13L242.16 144.28L243.48 150.11L248.85 151.79ZM243.48 150.11L242.16 144.28L236.78 142.60L232.73 146.75L234.05 152.58L239.42 154.26ZM255.65 137.66L254.34 131.82L248.96 130.14L244.90 134.30L246.22 140.13L251.59 141.81ZM246.22 140.13L244.90 134.30L239.52 132.62L235.46 136.77L236.78 142.60L242.16 144.28ZM259.61 155.15L258.29 149.32L252.91 147.64L248.85 151.79L250.17 157.62L255.55 159.30ZM250.17 157.62L248.85 151.79L243.48 150.11L239.42 154.26L240.74 160.09L246.12 161.77ZM262.35 145.17L261.03 139.34L255.65 137.66L251.59 141.81L252.91 147.64L258.29 149.32ZM227.35 145.07L226.03 139.25L220.66 137.57L216.60 141.72L217.93 147.55L223.30 149.23ZM217.93 147.55L216.60 141.72L211.23 140.05L207.18 144.20L208.51 150.03L213.88 151.70ZM230.09 135.09L228.76 129.26L223.39 127.59L219.33 131.74L220.66 137.57L226.03 139.25ZM220.66 137.57L219.33 131.74L213.96 130.07L209.91 134.22L211.23 140.05L216.60 141.72ZM234.05 152.58L232.73 146.75L227.35 145.07L223.30 149.23L224.62 155.05L230.00 156.73ZM224.62 155.05L223.30 149.23L217.93 147.55L213.88 151.70L215.20 157.53L220.57 159.20ZM236.78 142.60L235.46 136.77L230.09 135.09L226.03 139.25L227.35 145.07L232.73 146.75ZM258.40 127.67L257.08 121.84L251.70 120.16L247.64 124.31L248.96 130.14L254.34 131.82ZM261.14 117.68L259.82 111.85L254.44 110.16L250.38 114.32L251.70 120.16L257.08 121.84ZM265.10 135.19L263.78 129.35L258.40 127.67L254.34 131.82L255.65 137.66L261.03 139.34ZM242.26 122.63L240.94 116.80L235.56 115.12L231.50 119.27L232.82 125.11L238.20 126.78ZM232.82 125.11L231.50 119.27L226.12 117.60L222.06 121.75L223.39 127.59L228.76 129.26ZM245.00 112.64L243.68 106.80L238.29 105.13L234.23 109.28L235.56 115.12L240.94 116.80ZM235.56 115.12L234.23 109.28L228.85 107.61L224.80 111.77L226.12 117.60L231.50 119.27ZM248.96 130.14L247.64 124.31L242.26 122.63L238.20 126.78L239.52 132.62L244.90 134.30ZM239.52 132.62L238.20 126.78L232.82 125.11L228.76 129.26L230.09 135.09L235.46 136.77ZM251.70 120.16L250.38 114.32L245.00 112.64L240.94 116.80L242.26 122.63L247.64 124.31ZM263.56 172.64L262.24 166.81L256.86 165.13L252.81 169.28L254.12 175.10L259.50 176.79ZM254.12 175.10L252.81 169.28L247.43 167.59L243.38 171.74L244.70 177.57L250.07 179.25ZM266.30 162.67L264.98 156.84L259.61 155.15L255.55 159.30L256.86 165.13L262.24 166.81ZM256.86 165.13L255.55 159.30L250.17 157.62L246.12 161.77L247.43 167.59L252.81 169.28ZM260.81 182.61L259.50 176.79L254.12 175.10L250.07 179.25L251.39 185.07L256.76 186.76ZM238.01 170.06L236.69 164.23L231.32 162.56L227.26 166.70L228.59 172.53L233.96 174.21ZM228.59 172.53L227.26 166.70L221.89 165.03L217.84 169.18L219.17 175.00L224.54 176.67ZM240.74 160.09L239.42 154.26L234.05 152.58L230.00 156.73L231.32 162.56L236.69 164.23ZM231.32 162.56L230.00 156.73L224.62 155.05L220.57 159.20L221.89 165.03L227.26 166.70ZM244.70 177.57L243.38 171.74L238.01 170.06L233.96 174.21L235.27 180.03L240.65 181.71ZM235.27 180.03L233.96 174.21L228.59 172.53L224.54 176.67L225.86 182.50L231.22 184.18ZM247.43 167.59L246.12 161.77L240.74 160.09L236.69 164.23L238.01 170.06L243.38 171.74ZM93.09 60.21L91.75 54.38L86.38 52.74L82.35 56.91L83.69 62.74L89.06 64.38ZM83.69 62.74L82.35 56.91L76.97 55.27L72.95 59.44L74.29 65.26L79.66 66.91ZM95.78 50.21L94.44 44.38L89.06 42.73L85.03 46.91L86.38 52.74L91.75 54.38ZM86.38 52.74L85.03 46.91L79.66 45.26L75.63 49.44L76.97 55.27L82.35 56.91ZM99.81 67.68L98.47 61.86L93.09 60.21L89.06 64.38L90.41 70.21L95.78 71.86ZM90.41 70.21L89.06 64.38L83.69 62.74L79.66 66.91L81.01 72.73L86.38 74.38ZM102.50 57.69L101.16 51.86L95.78 50.21L91.75 54.38L93.09 60.21L98.47 61.86ZM67.58 57.80L66.23 51.97L60.86 50.33L56.84 54.51L58.18 60.33L63.55 61.97ZM58.18 60.33L56.84 54.51L51.46 52.87L47.44 57.04L48.79 62.86L54.16 64.51ZM70.26 47.80L68.91 41.97L63.54 40.33L59.51 44.51L60.86 50.33L66.23 51.97ZM60.86 50.33L59.51 44.51L54.14 42.87L50.12 47.05L51.46 52.87L56.84 54.51ZM74.29 65.26L72.95 59.44L67.58 57.80L63.55 61.97L64.90 67.79L70.27 69.44ZM64.90 67.79L63.55 61.97L58.18 60.33L54.16 64.51L55.51 70.32L60.88 71.97ZM76.97 55.27L75.63 49.44L70.26 47.80L66.23 51.97L67.58 57.80L72.95 59.44ZM107.89 37.68L106.55 31.85L101.17 30.20L97.13 34.38L98.47 40.20L103.85 41.85ZM98.47 40.20L97.13 34.38L91.75 32.73L87.72 36.91L89.06 42.73L94.44 44.38ZM110.58 27.67L109.24 21.84L103.86 20.19L99.82 24.37L101.17 30.20L106.55 31.85ZM101.17 30.20L99.82 24.37L94.44 22.72L90.41 26.90L91.75 32.73L97.13 34.38ZM114.61 45.16L113.27 39.33L107.89 37.68L103.85 41.85L105.19 47.68L110.57 49.33ZM105.19 47.68L103.85 41.85L98.47 40.20L94.44 44.38L95.78 50.21L101.16 51.86ZM117.31 35.15L115.96 29.32L110.58 27.67L106.55 31.85L107.89 37.68L113.27 39.33ZM82.34 35.26L81.00 29.43L75.62 27.79L71.59 31.97L72.94 37.79L78.31 39.44ZM72.94 37.79L71.59 31.97L66.22 30.32L62.19 34.50L63.54 40.33L68.91 41.97ZM85.03 25.25L83.69 19.42L78.31 17.78L74.28 21.96L75.62 27.79L81.00 29.43ZM75.62 27.79L74.28 21.96L68.90 20.31L64.87 24.50L66.22 30.32L71.59 31.97ZM89.06 42.73L87.72 36.91L82.34 35.26L78.31 39.44L79.66 45.26L85.03 46.91ZM79.66 45.26L78.31 39.44L72.94 37.79L68.91 41.97L70.26 47.80L75.63 49.44ZM91.75 32.73L90.41 26.90L85.03 25.25L81.00 29.43L82.34 35.26L87.72 36.91ZM103.83 85.15L102.49 79.33L97.12 77.68L93.09 81.85L94.43 87.67L99.80 89.32ZM94.43 87.67L93.09 81.85L87.72 80.20L83.69 84.37L85.04 90.19L90.40 91.84ZM106.52 75.16L105.18 69.34L99.81 67.68L95.78 71.86L97.12 77.68L102.49 79.33ZM97.12 77.68L95.78 71.86L90.41 70.21L86.38 74.38L87.72 80.20L93.09 81.85ZM110.54 92.63L109.20 86.81L103.83 85.15L99.80 89.32L101.14 95.14L106.51 96.80ZM101.14 95.14L99.80 89.32L94.43 87.67L90.40 91.84L91.75 97.66L97.11 99.31ZM113.23 82.64L111.89 76.81L106.52 75.16L102.49 79.33L103.83 85.15L109.20 86.81ZM78.32 82.72L76.98 76.90L71.61 75.26L67.59 79.43L68.93 85.25L74.30 86.89ZM68.93 85.25L67.59 79.43L62.22 77.79L58.20 81.96L59.55 87.77L64.91 89.42ZM81.01 72.73L79.66 66.91L74.29 65.26L70.27 69.44L71.61 75.26L76.98 76.90ZM71.61 75.26L70.27 69.44L64.90 67.79L60.88 71.97L62.22 77.79L67.59 79.43ZM85.04 90.19L83.69 84.37L78.32 82.72L74.30 86.89L75.64 92.71L81.01 94.36ZM75.64 92.71L74.30 86.89L68.93 85.25L64.91 89.42L66.26 95.24L71.62 96.88ZM87.72 80.20L86.38 74.38L81.01 72.73L76.98 76.90L78.32 82.72L83.69 84.37ZM118.63 62.64L117.29 56.82L111.91 55.16L107.87 59.34L109.22 65.16L114.59 66.82ZM109.22 65.16L107.87 59.34L102.50 57.69L98.47 61.86L99.81 67.68L105.18 69.34ZM121.32 52.64L119.99 46.81L114.61 45.16L110.57 49.33L111.91 55.16L117.29 56.82ZM111.91 55.16L110.57 49.33L105.19 47.68L101.16 51.86L102.50 57.69L107.87 59.34ZM125.34 70.13L124.00 64.30L118.63 62.64L114.59 66.82L115.93 72.64L121.30 74.30ZM115.93 72.64L114.59 66.82L109.22 65.16L105.18 69.34L106.52 75.16L111.89 76.81ZM128.04 60.13L126.70 54.30L121.32 52.64L117.29 56.82L118.63 62.64L124.00 64.30ZM27.36 77.93L26.01 72.11L20.65 70.48L16.63 74.65L17.99 80.47L23.35 82.10ZM17.99 80.47L16.63 74.65L11.27 73.02L7.26 77.19L8.62 83.01L13.98 84.64ZM30.02 67.94L28.67 62.12L23.31 60.48L19.29 64.66L20.65 70.48L26.01 72.11ZM20.65 70.48L19.29 64.66L13.93 63.03L9.92 67.21L11.27 73.02L16.63 74.65ZM34.07 85.38L32.72 79.57L27.36 77.93L23.35 82.10L24.70 87.91L30.06 89.55ZM24.70 87.91L23.35 82.10L17.99 80.47L13.98 84.64L15.33 90.45L20.69 92.09ZM36.74 75.39L35.39 69.58L30.02 67.94L26.01 72.11L27.36 77.93L32.72 79.57ZM1.90 75.56L0.55 69.75L-4.81 68.12L-8.82 72.30L-7.46 78.11L-2.10 79.74ZM4.56 65.57L3.20 59.76L-2.16 58.13L-6.17 62.31L-4.81 68.12L0.55 69.75ZM8.62 83.01L7.26 77.19L1.90 75.56L-2.10 79.74L-0.75 85.55L4.61 87.18ZM11.27 73.02L9.92 67.21L4.56 65.57L0.55 69.75L1.90 75.56L7.26 77.19ZM42.08 55.40L40.73 49.58L35.36 47.95L31.34 52.13L32.69 57.94L38.06 59.58ZM32.69 57.94L31.34 52.13L25.97 50.49L21.96 54.67L23.31 60.48L28.67 62.12ZM44.75 45.40L43.40 39.58L38.03 37.94L34.01 42.13L35.36 47.95L40.73 49.58ZM35.36 47.95L34.01 42.13L28.64 40.49L24.62 44.67L25.97 50.49L31.34 52.13ZM48.79 62.86L47.44 57.04L42.08 55.40L38.06 59.58L39.41 65.40L44.77 67.04ZM39.41 65.40L38.06 59.58L32.69 57.94L28.67 62.12L30.02 67.94L35.39 69.58ZM51.46 52.87L50.12 47.05L44.75 45.40L40.73 49.58L42.08 55.40L47.44 57.04ZM16.59 53.03L15.24 47.22L9.87 45.58L5.86 49.76L7.21 55.58L12.58 57.21ZM7.21 55.58L5.86 49.76L0.49 48.13L-3.52 52.31L-2.16 58.13L3.20 59.76ZM19.25 43.03L17.90 37.22L12.53 35.58L8.52 39.77L9.87 45.58L15.24 47.22ZM9.87 45.58L8.52 39.77L3.15 38.13L-0.86 42.32L0.49 48.13L5.86 49.76ZM23.31 60.48L21.96 54.67L16.59 53.03L12.58 57.21L13.93 63.03L19.29 64.66ZM13.93 63.03L12.58 57.21L7.21 55.58L3.20 59.76L4.56 65.57L9.92 67.21ZM25.97 50.49L24.62 44.67L19.25 43.03L15.24 47.22L16.59 53.03L21.96 54.67ZM38.12 102.82L36.77 97.00L31.41 95.36L27.40 99.54L28.75 105.35L34.11 106.99ZM28.75 105.35L27.40 99.54L22.04 97.90L18.03 102.07L19.38 107.88L24.74 109.52ZM40.79 92.83L39.44 87.02L34.07 85.38L30.06 89.55L31.41 95.36L36.77 97.00ZM31.41 95.36L30.06 89.55L24.70 87.91L20.69 92.09L22.04 97.90L27.40 99.54ZM44.83 110.27L43.48 104.46L38.12 102.82L34.11 106.99L35.46 112.80L40.81 114.44ZM35.46 112.80L34.11 106.99L28.75 105.35L24.74 109.52L26.09 115.32L31.45 116.96ZM47.49 100.29L46.15 94.47L40.79 92.83L36.77 97.00L38.12 102.82L43.48 104.46ZM12.67 100.43L11.32 94.62L5.96 92.99L1.96 97.16L3.31 102.97L8.67 104.60ZM3.31 102.97L1.96 97.16L-3.40 95.53L-7.40 99.70L-6.05 105.51L-0.69 107.14ZM15.33 90.45L13.98 84.64L8.62 83.01L4.61 87.18L5.96 92.99L11.32 94.62ZM5.96 92.99L4.61 87.18L-0.75 85.55L-4.76 89.72L-3.40 95.53L1.96 97.16ZM19.38 107.88L18.03 102.07L12.67 100.43L8.67 104.60L10.02 110.41L15.37 112.05ZM10.02 110.41L8.67 104.60L3.31 102.97L-0.69 107.14L0.66 112.95L6.01 114.58ZM22.04 97.90L20.69 92.09L15.33 90.45L11.32 94.62L12.67 100.43L18.03 102.07ZM52.83 80.32L51.49 74.50L46.12 72.86L42.10 77.03L43.45 82.85L48.82 84.49ZM43.45 82.85L42.10 77.03L36.74 75.39L32.72 79.57L34.07 85.38L39.44 87.02ZM55.51 70.32L54.16 64.51L48.79 62.86L44.77 67.04L46.12 72.86L51.49 74.50ZM46.12 72.86L44.77 67.04L39.41 65.40L35.39 69.58L36.74 75.39L42.10 77.03ZM59.55 87.77L58.20 81.96L52.83 80.32L48.82 84.49L50.16 90.30L55.53 91.95ZM50.16 90.30L48.82 84.49L43.45 82.85L39.44 87.02L40.79 92.83L46.15 94.47ZM62.22 77.79L60.88 71.97L55.51 70.32L51.49 74.50L52.83 80.32L58.20 81.96ZM118.68 -2.38L117.34 -8.22L111.96 -9.87L107.91 -5.68L109.26 0.15L114.64 1.80ZM109.26 0.15L107.91 -5.68L102.53 -7.33L98.49 -3.15L99.83 2.69L105.21 4.34ZM83.68 -2.26L82.34 -8.09L76.95 -9.73L72.92 -5.54L74.27 0.29L79.65 1.93ZM122.71 15.13L121.37 9.29L115.98 7.64L111.94 11.82L113.28 17.66L118.67 19.31ZM113.28 17.66L111.94 11.82L106.56 10.17L102.52 14.35L103.86 20.19L109.24 21.84ZM125.41 5.11L124.07 -0.73L118.68 -2.38L114.64 1.80L115.98 7.64L121.37 9.29ZM115.98 7.64L114.64 1.80L109.26 0.15L105.21 4.34L106.56 10.17L111.94 11.82ZM129.43 22.62L128.09 16.78L122.71 15.13L118.67 19.31L120.01 25.14L125.39 26.79ZM120.01 25.14L118.67 19.31L113.28 17.66L109.24 21.84L110.58 27.67L115.96 29.32ZM132.14 12.60L130.80 6.76L125.41 5.11L121.37 9.29L122.71 15.13L128.09 16.78ZM97.14 12.70L95.79 6.87L90.41 5.22L86.37 9.41L87.72 15.24L93.10 16.89ZM87.72 15.24L86.37 9.41L80.99 7.76L76.96 11.95L78.31 17.78L83.69 19.42ZM99.83 2.69L98.49 -3.15L93.10 -4.79L89.07 -0.61L90.41 5.22L95.79 6.87ZM90.41 5.22L89.07 -0.61L83.68 -2.26L79.65 1.93L80.99 7.76L86.37 9.41ZM103.86 20.19L102.52 14.35L97.14 12.70L93.10 16.89L94.44 22.72L99.82 24.37ZM94.44 22.72L93.10 16.89L87.72 15.24L83.69 19.42L85.03 25.25L90.41 26.90ZM106.56 10.17L105.21 4.34L99.83 2.69L95.79 6.87L97.14 12.70L102.52 14.35ZM144.28 0.05L142.94 -5.79L137.55 -7.44L133.51 -3.26L134.84 2.58L140.23 4.24ZM134.84 2.58L133.51 -3.26L128.12 -4.91L124.07 -0.73L125.41 5.11L130.80 6.76ZM46.04 7.92L44.69 2.09L39.31 0.46L35.29 4.64L36.64 10.47L42.02 12.11ZM36.64 10.47L35.29 4.64L29.91 3.01L25.89 7.20L27.25 13.02L32.62 14.66ZM48.72 -2.09L47.37 -7.92L41.99 -9.56L37.96 -5.37L39.31 0.46L44.69 2.09ZM39.31 0.46L37.96 -5.37L32.58 -7.01L28.56 -2.82L29.91 3.01L35.29 4.64ZM52.77 15.39L51.42 9.56L46.04 7.92L42.02 12.11L43.37 17.93L48.74 19.57ZM43.37 17.93L42.02 12.11L36.64 10.47L32.62 14.66L33.97 20.48L39.34 22.12ZM55.45 5.37L54.10 -0.45L48.72 -2.09L44.69 2.09L46.04 7.92L51.42 9.56ZM20.52 5.56L19.16 -0.26L13.79 -1.90L9.77 2.29L11.13 8.12L16.50 9.75ZM11.13 8.12L9.77 2.29L4.40 0.66L0.38 4.85L1.74 10.67L7.11 12.31ZM13.79 -1.90L12.43 -7.72L7.06 -9.35L3.04 -5.16L4.40 0.66L9.77 2.29ZM27.25 13.02L25.89 7.20L20.52 5.56L16.50 9.75L17.85 15.57L23.23 17.21ZM17.85 15.57L16.50 9.75L11.13 8.12L7.11 12.31L8.47 18.13L13.84 19.76ZM29.91 3.01L28.56 -2.82L23.19 -4.45L19.16 -0.26L20.52 5.56L25.89 7.20ZM56.82 32.86L55.47 27.04L50.09 25.40L46.07 29.58L47.42 35.40L52.79 37.04ZM47.42 35.40L46.07 29.58L40.70 27.94L36.67 32.12L38.03 37.94L43.40 39.58ZM59.49 22.85L58.14 17.03L52.77 15.39L48.74 19.57L50.09 25.40L55.47 27.04ZM50.09 25.40L48.74 19.57L43.37 17.93L39.34 22.12L40.70 27.94L46.07 29.58ZM63.54 40.33L62.19 34.50L56.82 32.86L52.79 37.04L54.14 42.87L59.51 44.51ZM54.14 42.87L52.79 37.04L47.42 35.40L43.40 39.58L44.75 45.40L50.12 47.05ZM66.22 30.32L64.87 24.50L59.49 22.85L55.47 27.04L56.82 32.86L62.19 34.50ZM31.30 30.49L29.95 24.66L24.58 23.03L20.56 27.21L21.91 33.03L27.28 34.67ZM21.91 33.03L20.56 27.21L15.19 25.58L11.18 29.76L12.53 35.58L17.90 37.22ZM33.97 20.48L32.62 14.66L27.25 13.02L23.23 17.21L24.58 23.03L29.95 24.66ZM24.58 23.03L23.23 17.21L17.85 15.57L13.84 19.76L15.19 25.58L20.56 27.21ZM38.03 37.94L36.67 32.12L31.30 30.49L27.28 34.67L28.64 40.49L34.01 42.13ZM28.64 40.49L27.28 34.67L21.91 33.03L17.90 37.22L19.25 43.03L24.62 44.67ZM40.70 27.94L39.34 22.12L33.97 20.48L29.95 24.66L31.30 30.49L36.67 32.12ZM71.58 10.30L70.23 4.47L64.85 2.83L60.82 7.02L62.17 12.84L67.55 14.49ZM62.17 12.84L60.82 7.02L55.45 5.37L51.42 9.56L52.77 15.39L58.14 17.03ZM74.27 0.29L72.92 -5.54L67.54 -7.19L63.51 -3.00L64.85 2.83L70.23 4.47ZM64.85 2.83L63.51 -3.00L58.13 -4.64L54.10 -0.45L55.45 5.37L60.82 7.02ZM78.31 17.78L76.96 11.95L71.58 10.30L67.55 14.49L68.90 20.31L74.28 21.96ZM68.90 20.31L67.55 14.49L62.17 12.84L58.14 17.03L59.49 22.85L64.87 24.50ZM80.99 7.76L79.65 1.93L74.27 0.29L70.23 4.47L71.58 10.30L76.96 11.95ZM140.07 112.56L138.73 106.73L133.36 105.07L129.33 109.24L130.66 115.06L136.03 116.72ZM130.66 115.06L129.33 109.24L123.96 107.58L119.92 111.75L121.26 117.56L126.63 119.22ZM142.77 102.57L141.43 96.74L136.06 95.09L132.02 99.25L133.36 105.07L138.73 106.73ZM133.36 105.07L132.02 99.25L126.65 97.59L122.62 101.76L123.96 107.58L129.33 109.24ZM146.77 120.04L145.44 114.22L140.07 112.56L136.03 116.72L137.36 122.54L142.73 124.20ZM137.36 122.54L136.03 116.72L130.66 115.06L126.63 119.22L127.96 125.04L133.33 126.70ZM149.47 110.05L148.14 104.23L142.77 102.57L138.73 106.73L140.07 112.56L145.44 114.22ZM114.56 110.09L113.22 104.27L107.85 102.62L103.82 106.78L105.16 112.60L110.53 114.25ZM105.16 112.60L103.82 106.78L98.45 105.13L94.43 109.30L95.77 115.11L101.13 116.76ZM117.25 100.10L115.91 94.28L110.54 92.63L106.51 96.80L107.85 102.62L113.22 104.27ZM107.85 102.62L106.51 96.80L101.14 95.14L97.11 99.31L98.45 105.13L103.82 106.78ZM121.26 117.56L119.92 111.75L114.56 110.09L110.53 114.25L111.86 120.07L117.23 121.73ZM111.86 120.07L110.53 114.25L105.16 112.60L101.13 116.76L102.47 122.58L107.84 124.23ZM123.96 107.58L122.62 101.76L117.25 100.10L113.22 104.27L114.56 110.09L119.92 111.75ZM154.89 90.07L153.55 84.25L148.18 82.59L144.14 86.75L145.47 92.58L150.85 94.24ZM145.47 92.58L144.14 86.75L138.76 85.09L134.72 89.26L136.06 95.09L141.43 96.74ZM157.60 80.08L156.26 74.25L150.89 72.59L146.84 76.76L148.18 82.59L153.55 84.25ZM148.18 82.59L146.84 76.76L141.47 75.10L137.43 79.27L138.76 85.09L144.14 86.75ZM161.60 97.56L160.26 91.74L154.89 90.07L150.85 94.24L152.18 100.07L157.55 101.73ZM152.18 100.07L150.85 94.24L145.47 92.58L141.43 96.74L142.77 102.57L148.14 104.23ZM164.31 87.57L162.98 81.74L157.60 80.08L153.55 84.25L154.89 90.07L160.26 91.74ZM129.35 87.60L128.01 81.78L122.64 80.12L118.61 84.29L119.94 90.11L125.32 91.77ZM119.94 90.11L118.61 84.29L113.23 82.64L109.20 86.81L110.54 92.63L115.91 94.28ZM132.05 77.61L130.72 71.78L125.34 70.13L121.30 74.30L122.64 80.12L128.01 81.78ZM122.64 80.12L121.30 74.30L115.93 72.64L111.89 76.81L113.23 82.64L118.61 84.29ZM136.06 95.09L134.72 89.26L129.35 87.60L125.32 91.77L126.65 97.59L132.02 99.25ZM126.65 97.59L125.32 91.77L119.94 90.11L115.91 94.28L117.25 100.10L122.62 101.76ZM138.76 85.09L137.43 79.27L132.05 77.61L128.01 81.78L129.35 87.60L134.72 89.26ZM150.77 137.50L149.43 131.68L144.07 130.02L140.03 134.18L141.37 140.00L146.73 141.66ZM141.37 140.00L140.03 134.18L134.67 132.52L130.63 136.68L131.97 142.50L137.33 144.15ZM153.47 127.52L152.14 121.70L146.77 120.04L142.73 124.20L144.07 130.02L149.43 131.68ZM144.07 130.02L142.73 124.20L137.36 122.54L133.33 126.70L134.67 132.52L140.03 134.18ZM157.47 144.98L156.13 139.16L150.77 137.50L146.73 141.66L148.06 147.48L153.43 149.14ZM148.06 147.48L146.73 141.66L141.37 140.00L137.33 144.15L138.67 149.97L144.03 151.63ZM160.17 135.01L158.84 129.19L153.47 127.52L149.43 131.68L150.77 137.50L156.13 139.16ZM125.27 135.02L123.93 129.20L118.57 127.55L114.54 131.71L115.88 137.52L121.24 139.18ZM115.88 137.52L114.54 131.71L109.17 130.05L105.15 134.21L106.49 140.03L111.85 141.68ZM127.96 125.04L126.63 119.22L121.26 117.56L117.23 121.73L118.57 127.55L123.93 129.20ZM118.57 127.55L117.23 121.73L111.86 120.07L107.84 124.23L109.17 130.05L114.54 131.71ZM131.97 142.50L130.63 136.68L125.27 135.02L121.24 139.18L122.57 144.99L127.94 146.65ZM122.57 144.99L121.24 139.18L115.88 137.52L111.85 141.68L113.19 147.50L118.55 149.15ZM134.67 132.52L133.33 126.70L127.96 125.04L123.93 129.20L125.27 135.02L130.63 136.68ZM165.59 115.04L164.26 109.22L158.89 107.55L154.85 111.72L156.18 117.54L161.55 119.20ZM156.18 117.54L154.85 111.72L149.47 110.05L145.44 114.22L146.77 120.04L152.14 121.70ZM168.30 105.06L166.97 99.23L161.60 97.56L157.55 101.73L158.89 107.55L164.26 109.22ZM158.89 107.55L157.55 101.73L152.18 100.07L148.14 104.23L149.47 110.05L154.85 111.72ZM172.29 122.53L170.96 116.71L165.59 115.04L161.55 119.20L162.88 125.03L168.25 126.69ZM162.88 125.03L161.55 119.20L156.18 117.54L152.14 121.70L153.47 127.52L158.84 129.19ZM175.01 112.55L173.68 106.72L168.30 105.06L164.26 109.22L165.59 115.04L170.96 116.71ZM74.32 130.12L72.98 124.31L67.61 122.66L63.60 126.82L64.94 132.63L70.30 134.28ZM64.94 132.63L63.60 126.82L58.24 125.18L54.22 129.34L55.57 135.15L60.93 136.80ZM76.99 120.14L75.65 114.33L70.29 112.68L66.27 116.85L67.61 122.66L72.98 124.31ZM67.61 122.66L66.27 116.85L60.91 115.20L56.89 119.37L58.24 125.18L63.60 126.82ZM81.02 137.58L79.68 131.77L74.32 130.12L70.30 134.28L71.64 140.09L77.00 141.74ZM71.64 140.09L70.30 134.28L64.94 132.63L60.93 136.80L62.27 142.60L67.63 144.25ZM83.70 127.60L82.36 121.79L76.99 120.14L72.98 124.31L74.32 130.12L79.68 131.77ZM48.87 127.70L47.52 121.89L42.16 120.25L38.15 124.41L39.50 130.22L44.85 131.86ZM39.50 130.22L38.15 124.41L32.79 122.77L28.79 126.94L30.13 132.74L35.49 134.38ZM51.53 117.72L50.19 111.91L44.83 110.27L40.81 114.44L42.16 120.25L47.52 121.89ZM42.16 120.25L40.81 114.44L35.46 112.80L31.45 116.96L32.79 122.77L38.15 124.41ZM55.57 135.15L54.22 129.34L48.87 127.70L44.85 131.86L46.20 137.67L51.56 139.31ZM46.20 137.67L44.85 131.86L39.50 130.22L35.49 134.38L36.84 140.19L42.19 141.83ZM58.24 125.18L56.89 119.37L51.53 117.72L47.52 121.89L48.87 127.70L54.22 129.34ZM89.06 107.64L87.72 101.83L82.35 100.18L78.33 104.35L79.67 110.16L85.04 111.81ZM79.67 110.16L78.33 104.35L72.97 102.70L68.95 106.87L70.29 112.68L75.65 114.33ZM91.75 97.66L90.40 91.84L85.04 90.19L81.01 94.36L82.35 100.18L87.72 101.83ZM82.35 100.18L81.01 94.36L75.64 92.71L71.62 96.88L72.97 102.70L78.33 104.35ZM95.77 115.11L94.43 109.30L89.06 107.64L85.04 111.81L86.38 117.63L91.74 119.28ZM86.38 117.63L85.04 111.81L79.67 110.16L75.65 114.33L76.99 120.14L82.36 121.79ZM98.45 105.13L97.11 99.31L91.75 97.66L87.72 101.83L89.06 107.64L94.43 109.30ZM63.58 105.22L62.24 99.41L56.87 97.76L52.86 101.93L54.20 107.74L59.56 109.39ZM54.20 107.74L52.86 101.93L47.49 100.29L43.48 104.46L44.83 110.27L50.19 111.91ZM66.26 95.24L64.91 89.42L59.55 87.77L55.53 91.95L56.87 97.76L62.24 99.41ZM56.87 97.76L55.53 91.95L50.16 90.30L46.15 94.47L47.49 100.29L52.86 101.93ZM70.29 112.68L68.95 106.87L63.58 105.22L59.56 109.39L60.91 115.20L66.27 116.85ZM60.91 115.20L59.56 109.39L54.20 107.74L50.19 111.91L51.53 117.72L56.89 119.37ZM72.97 102.70L71.62 96.88L66.26 95.24L62.24 99.41L63.58 105.22L68.95 106.87ZM85.04 155.01L83.70 149.20L78.34 147.55L74.33 151.71L75.67 157.52L81.02 159.17ZM75.67 157.52L74.33 151.71L68.97 150.06L64.96 154.22L66.30 160.03L71.65 161.67ZM87.72 145.04L86.38 139.23L81.02 137.58L77.00 141.74L78.34 147.55L83.70 149.20ZM78.34 147.55L77.00 141.74L71.64 140.09L67.63 144.25L68.97 150.06L74.33 151.71ZM91.74 162.47L90.40 156.66L85.04 155.01L81.02 159.17L82.36 164.97L87.72 166.63ZM82.36 164.97L81.02 159.17L75.67 157.52L71.65 161.67L72.99 167.48L78.35 169.13ZM94.42 152.50L93.08 146.69L87.72 145.04L83.70 149.20L85.04 155.01L90.40 156.66ZM59.60 152.57L58.26 146.77L52.90 145.12L48.89 149.28L50.24 155.09L55.59 156.73ZM50.24 155.09L48.89 149.28L43.54 147.64L39.53 151.80L40.87 157.60L46.23 159.25ZM62.27 142.60L60.93 136.80L55.57 135.15L51.56 139.31L52.90 145.12L58.26 146.77ZM52.90 145.12L51.56 139.31L46.20 137.67L42.19 141.83L43.54 147.64L48.89 149.28ZM66.30 160.03L64.96 154.22L59.60 152.57L55.59 156.73L56.93 162.54L62.29 164.18ZM56.93 162.54L55.59 156.73L50.24 155.09L46.23 159.25L47.57 165.05L52.92 166.70ZM68.97 150.06L67.63 144.25L62.27 142.60L58.26 146.77L59.60 152.57L64.96 154.22ZM99.79 132.56L98.45 126.74L93.08 125.09L89.06 129.25L90.40 135.07L95.76 136.72ZM90.40 135.07L89.06 129.25L83.70 127.60L79.68 131.77L81.02 137.58L86.38 139.23ZM102.47 122.58L101.13 116.76L95.77 115.11L91.74 119.28L93.08 125.09L98.45 126.74ZM93.08 125.09L91.74 119.28L86.38 117.63L82.36 121.79L83.70 127.60L89.06 129.25ZM106.49 140.03L105.15 134.21L99.79 132.56L95.76 136.72L97.10 142.53L102.46 144.19ZM97.10 142.53L95.76 136.72L90.40 135.07L86.38 139.23L87.72 145.04L93.08 146.69ZM109.17 130.05L107.84 124.23L102.47 122.58L98.45 126.74L99.79 132.56L105.15 134.21ZM159.02 42.58L157.69 36.74L152.30 35.08L148.26 39.26L149.59 45.09L154.97 46.75ZM149.59 45.09L148.26 39.26L142.87 37.60L138.83 41.77L140.17 47.61L145.55 49.26ZM161.74 32.57L160.40 26.73L155.02 25.07L150.97 29.24L152.30 35.08L157.69 36.74ZM152.30 35.08L150.97 29.24L145.58 27.59L141.54 31.76L142.87 37.60L148.26 39.26ZM165.74 50.07L164.41 44.24L159.02 42.58L154.97 46.75L156.31 52.58L161.69 54.25ZM156.31 52.58L154.97 46.75L149.59 45.09L145.55 49.26L146.88 55.10L152.26 56.76ZM168.46 40.06L167.12 34.23L161.74 32.57L157.69 36.74L159.02 42.58L164.41 44.24ZM133.45 40.12L132.11 34.28L126.73 32.63L122.69 36.81L124.02 42.64L129.40 44.29ZM124.02 42.64L122.69 36.81L117.31 35.15L113.27 39.33L114.61 45.16L119.99 46.81ZM136.15 30.11L134.81 24.27L129.43 22.62L125.39 26.79L126.73 32.63L132.11 34.28ZM126.73 32.63L125.39 26.79L120.01 25.14L115.96 29.32L117.31 35.15L122.69 36.81ZM140.17 47.61L138.83 41.77L133.45 40.12L129.40 44.29L130.74 50.12L136.12 51.78ZM130.74 50.12L129.40 44.29L124.02 42.64L119.99 46.81L121.32 52.64L126.70 54.30ZM142.87 37.60L141.54 31.76L136.15 30.11L132.11 34.28L133.45 40.12L138.83 41.77ZM173.90 20.04L172.56 14.20L167.17 12.53L163.12 16.71L164.45 22.55L169.84 24.21ZM164.45 22.55L163.12 16.71L157.73 15.05L153.68 19.23L155.02 25.07L160.40 26.73ZM176.62 10.02L175.28 4.17L169.89 2.51L165.84 6.69L167.17 12.53L172.56 14.20ZM167.17 12.53L165.84 6.69L160.45 5.03L156.40 9.21L157.73 15.05L163.12 16.71ZM180.62 27.54L179.28 21.70L173.90 20.04L169.84 24.21L171.17 30.05L176.56 31.72ZM171.17 30.05L169.84 24.21L164.45 22.55L160.40 26.73L161.74 32.57L167.12 34.23ZM183.34 17.52L182.01 11.68L176.62 10.02L172.56 14.20L173.90 20.04L179.28 21.70ZM148.29 17.57L146.96 11.73L141.57 10.08L137.52 14.26L138.86 20.09L144.25 21.75ZM138.86 20.09L137.52 14.26L132.14 12.60L128.09 16.78L129.43 22.62L134.81 24.27ZM151.01 7.55L149.67 1.71L144.28 0.05L140.23 4.24L141.57 10.08L146.96 11.73ZM141.57 10.08L140.23 4.24L134.84 2.58L130.80 6.76L132.14 12.60L137.52 14.26ZM155.02 25.07L153.68 19.23L148.29 17.57L144.25 21.75L145.58 27.59L150.97 29.24ZM145.58 27.59L144.25 21.75L138.86 20.09L134.81 24.27L136.15 30.11L141.54 31.76ZM157.73 15.05L156.40 9.21L151.01 7.55L146.96 11.73L148.29 17.57L153.68 19.23ZM169.74 67.57L168.40 61.74L163.02 60.08L158.98 64.25L160.31 70.08L165.69 71.74ZM160.31 70.08L158.98 64.25L153.60 62.59L149.55 66.76L150.89 72.59L156.26 74.25ZM172.45 57.57L171.12 51.74L165.74 50.07L161.69 54.25L163.02 60.08L168.40 61.74ZM163.02 60.08L161.69 54.25L156.31 52.58L152.26 56.76L153.60 62.59L158.98 64.25ZM176.45 75.07L175.12 69.24L169.74 67.57L165.69 71.74L167.02 77.57L172.40 79.24ZM167.02 77.57L165.69 71.74L160.31 70.08L156.26 74.25L157.60 80.08L162.98 81.74ZM179.17 65.07L177.84 59.24L172.45 57.57L168.40 61.74L169.74 67.57L175.12 69.24ZM144.17 65.10L142.84 59.27L137.46 57.61L133.42 61.78L134.75 67.61L140.13 69.27ZM134.75 67.61L133.42 61.78L128.04 60.13L124.00 64.30L125.34 70.13L130.72 71.78ZM146.88 55.10L145.55 49.26L140.17 47.61L136.12 51.78L137.46 57.61L142.84 59.27ZM137.46 57.61L136.12 51.78L130.74 50.12L126.70 54.30L128.04 60.13L133.42 61.78ZM150.89 72.59L149.55 66.76L144.17 65.10L140.13 69.27L141.47 75.10L146.84 76.76ZM141.47 75.10L140.13 69.27L134.75 67.61L130.72 71.78L132.05 77.61L137.43 79.27ZM153.60 62.59L152.26 56.76L146.88 55.10L142.84 59.27L144.17 65.10L149.55 66.76ZM184.61 45.06L183.28 39.22L177.89 37.55L173.84 41.73L175.17 47.56L180.56 49.23ZM175.17 47.56L173.84 41.73L168.46 40.06L164.41 44.24L165.74 50.07L171.12 51.74ZM187.34 35.05L186.01 29.21L180.62 27.54L176.56 31.72L177.89 37.55L183.28 39.22ZM177.89 37.55L176.56 31.72L171.17 30.05L167.12 34.23L168.46 40.06L173.84 41.73ZM191.33 52.56L190.00 46.72L184.61 45.06L180.56 49.23L181.89 55.07L187.27 56.73ZM181.89 55.07L180.56 49.23L175.17 47.56L171.12 51.74L172.45 57.57L177.84 59.24ZM194.05 42.55L192.72 36.71L187.34 35.05L183.28 39.22L184.61 45.06L190.00 46.72ZM257.75 257.37L256.44 251.55L251.08 249.87L247.03 254.00L248.34 259.81L253.70 261.50ZM248.34 259.81L247.03 254.00L241.67 252.32L237.63 256.45L238.94 262.26L244.30 263.94ZM260.48 247.42L259.17 241.61L253.81 239.92L249.76 244.05L251.08 249.87L256.44 251.55ZM263.22 237.47L261.91 231.65L256.54 229.97L252.49 234.10L253.81 239.92L259.17 241.61ZM264.76 200.09L263.44 194.27L258.07 192.58L254.02 196.72L255.33 202.55L260.70 204.23ZM1.74 10.67L0.38 4.85L-4.99 3.22L-9.00 7.41L-7.65 13.23L-2.28 14.86ZM4.40 0.66L3.04 -5.16L-2.33 -6.79L-6.35 -2.60L-4.99 3.22L0.38 4.85ZM0.49 48.13L-0.86 42.32L-6.23 40.68L-10.24 44.87L-8.88 50.68L-3.52 52.31ZM5.81 28.13L4.45 22.31L-0.92 20.68L-4.93 24.87L-3.57 30.68L1.79 32.32ZM8.47 18.13L7.11 12.31L1.74 10.67L-2.28 14.86L-0.92 20.68L4.45 22.31ZM12.53 35.58L11.18 29.76L5.81 28.13L1.79 32.32L3.15 38.13L8.52 39.77ZM3.15 38.13L1.79 32.32L-3.57 30.68L-7.58 34.87L-6.23 40.68L-0.86 42.32ZM15.19 25.58L13.84 19.76L8.47 18.13L4.45 22.31L5.81 28.13L11.18 29.76ZM168.00 234.67L166.67 228.86L161.32 227.19L157.29 231.34L158.62 237.14L163.97 238.81ZM158.62 237.14L157.29 231.34L151.94 229.67L147.91 233.81L149.24 239.61L154.59 241.28ZM170.70 224.72L169.37 218.91L164.02 217.24L159.99 221.39L161.32 227.19L166.67 228.86ZM161.32 227.19L159.99 221.39L154.63 219.72L150.61 223.86L151.94 229.67L157.29 231.34ZM174.68 242.15L173.35 236.34L168.00 234.67L163.97 238.81L165.29 244.62L170.65 246.28ZM165.29 244.62L163.97 238.81L158.62 237.14L154.59 241.28L155.92 247.09L161.27 248.75ZM177.38 232.20L176.06 226.39L170.70 224.72L166.67 228.86L168.00 234.67L173.35 236.34ZM142.56 232.15L141.23 226.34L135.88 224.68L131.86 228.82L133.19 234.62L138.54 236.29ZM133.19 234.62L131.86 228.82L126.50 227.16L122.49 231.30L123.82 237.10L129.17 238.76ZM145.25 222.20L143.92 216.39L138.57 214.73L134.55 218.87L135.88 224.68L141.23 226.34ZM135.88 224.68L134.55 218.87L129.19 217.21L125.17 221.35L126.50 227.16L131.86 228.82ZM149.24 239.61L147.91 233.81L142.56 232.15L138.54 236.29L139.87 242.09L145.22 243.75ZM139.87 242.09L138.54 236.29L133.19 234.62L129.17 238.76L130.50 244.57L135.85 246.23ZM151.94 229.67L150.61 223.86L145.25 222.20L141.23 226.34L142.56 232.15L147.91 233.81ZM182.80 212.30L181.47 206.49L176.11 204.82L172.08 208.96L173.40 214.77L178.76 216.44ZM173.40 214.77L172.08 208.96L166.72 207.29L162.69 211.43L164.02 217.24L169.37 218.91ZM185.51 202.34L184.18 196.53L178.82 194.86L174.79 199.00L176.11 204.82L181.47 206.49ZM176.11 204.82L174.79 199.00L169.43 197.33L165.39 201.48L166.72 207.29L172.08 208.96ZM189.48 219.78L188.16 213.97L182.80 212.30L178.76 216.44L180.09 222.25L185.45 223.92ZM180.09 222.25L178.76 216.44L173.40 214.77L169.37 218.91L170.70 224.72L176.06 226.39ZM192.19 209.83L190.87 204.01L185.51 202.34L181.47 206.49L182.80 212.30L188.16 213.97ZM157.33 209.77L156.00 203.96L150.65 202.29L146.62 206.44L147.95 212.25L153.30 213.91ZM147.95 212.25L146.62 206.44L141.26 204.78L137.24 208.92L138.57 214.73L143.92 216.39ZM160.03 199.81L158.71 194.00L153.35 192.34L149.32 196.48L150.65 202.29L156.00 203.96ZM150.65 202.29L149.32 196.48L143.96 194.82L139.93 198.97L141.26 204.78L146.62 206.44ZM164.02 217.24L162.69 211.43L157.33 209.77L153.30 213.91L154.63 219.72L159.99 221.39ZM154.63 219.72L153.30 213.91L147.95 212.25L143.92 216.39L145.25 222.20L150.61 223.86ZM166.72 207.29L165.39 201.48L160.03 199.81L156.00 203.96L157.33 209.77L162.69 211.43ZM178.65 259.57L177.32 253.76L171.97 252.09L167.95 256.23L169.27 262.03L174.62 263.70ZM169.27 262.03L167.95 256.23L162.59 254.56L158.57 258.69L159.90 264.49L165.25 266.16ZM181.35 249.63L180.03 243.82L174.68 242.15L170.65 246.28L171.97 252.09L177.32 253.76ZM171.97 252.09L170.65 246.28L165.29 244.62L161.27 248.75L162.59 254.56L167.95 256.23ZM188.03 257.10L186.71 251.30L181.35 249.63L177.32 253.76L178.65 259.57L184.00 261.24ZM153.22 257.02L151.89 251.22L146.54 249.56L142.52 253.69L143.85 259.50L149.20 261.16ZM143.85 259.50L142.52 253.69L137.18 252.03L133.16 256.17L134.49 261.97L139.83 263.63ZM155.92 247.09L154.59 241.28L149.24 239.61L145.22 243.75L146.54 249.56L151.89 251.22ZM146.54 249.56L145.22 243.75L139.87 242.09L135.85 246.23L137.18 252.03L142.52 253.69ZM162.59 254.56L161.27 248.75L155.92 247.09L151.89 251.22L153.22 257.02L158.57 258.69ZM193.45 237.22L192.13 231.41L186.77 229.73L182.74 233.87L184.06 239.68L189.42 241.35ZM184.06 239.68L182.74 233.87L177.38 232.20L173.35 236.34L174.68 242.15L180.03 243.82ZM196.16 227.27L194.84 221.45L189.48 219.78L185.45 223.92L186.77 229.73L192.13 231.41ZM186.77 229.73L185.45 223.92L180.09 222.25L176.06 226.39L177.38 232.20L182.74 233.87ZM200.13 244.70L198.81 238.89L193.45 237.22L189.42 241.35L190.74 247.16L196.09 248.84ZM190.74 247.16L189.42 241.35L184.06 239.68L180.03 243.82L181.35 249.63L186.71 251.30ZM202.84 234.75L201.52 228.94L196.16 227.27L192.13 231.41L193.45 237.22L198.81 238.89ZM102.42 252.01L101.08 246.21L95.74 244.55L91.73 248.69L93.06 254.49L98.41 256.14ZM93.06 254.49L91.73 248.69L86.38 247.04L82.38 251.18L83.71 256.97L89.06 258.63ZM105.09 242.07L103.76 236.27L98.41 234.61L94.40 238.75L95.74 244.55L101.08 246.21ZM95.74 244.55L94.40 238.75L89.06 237.10L85.05 241.24L86.38 247.04L91.73 248.69ZM109.09 259.46L107.76 253.66L102.42 252.01L98.41 256.14L99.74 261.94L105.08 263.60ZM99.74 261.94L98.41 256.14L93.06 254.49L89.06 258.63L90.39 264.42L95.73 266.08ZM111.77 249.52L110.44 243.72L105.09 242.07L101.08 246.21L102.42 252.01L107.76 253.66ZM77.04 249.53L75.70 243.73L70.36 242.08L66.35 246.22L67.69 252.02L73.03 253.67ZM67.69 252.02L66.35 246.22L61.01 244.57L57.01 248.72L58.35 254.51L63.69 256.16ZM79.70 239.59L78.37 233.79L73.02 232.14L69.02 236.29L70.36 242.08L75.70 243.73ZM70.36 242.08L69.02 236.29L63.67 234.64L59.67 238.78L61.01 244.57L66.35 246.22ZM83.71 256.97L82.38 251.18L77.04 249.53L73.03 253.67L74.37 259.46L79.71 261.11ZM74.37 259.46L73.03 253.67L67.69 252.02L63.69 256.16L65.03 261.95L70.37 263.60ZM86.38 247.04L85.05 241.24L79.70 239.59L75.70 243.73L77.04 249.53L82.38 251.18ZM117.14 229.64L115.80 223.84L110.45 222.18L106.44 226.32L107.77 232.13L113.12 233.78ZM107.77 232.13L106.44 226.32L101.09 224.67L97.08 228.81L98.41 234.61L103.76 236.27ZM119.82 219.69L118.49 213.89L113.14 212.23L109.12 216.38L110.45 222.18L115.80 223.84ZM110.45 222.18L109.12 216.38L103.77 214.72L99.75 218.87L101.09 224.67L106.44 226.32ZM123.82 237.10L122.49 231.30L117.14 229.64L113.12 233.78L114.45 239.58L119.80 241.24ZM114.45 239.58L113.12 233.78L107.77 232.13L103.76 236.27L105.09 242.07L110.44 243.72ZM126.50 227.16L125.17 221.35L119.82 219.69L115.80 223.84L117.14 229.64L122.49 231.30ZM91.73 227.16L90.39 221.36L85.05 219.70L81.04 223.85L82.37 229.65L87.72 231.30ZM82.37 229.65L81.04 223.85L75.69 222.20L71.68 226.34L73.02 232.14L78.37 233.79ZM94.41 217.21L93.07 211.41L87.72 209.76L83.71 213.90L85.05 219.70L90.39 221.36ZM85.05 219.70L83.71 213.90L78.36 212.25L74.35 216.40L75.69 222.20L81.04 223.85ZM98.41 234.61L97.08 228.81L91.73 227.16L87.72 231.30L89.06 237.10L94.40 238.75ZM89.06 237.10L87.72 231.30L82.37 229.65L78.37 233.79L79.70 239.59L85.05 241.24ZM101.09 224.67L99.75 218.87L94.41 217.21L90.39 221.36L91.73 227.16L97.08 228.81ZM127.81 254.50L126.48 248.70L121.13 247.04L117.12 251.18L118.45 256.98L123.80 258.64ZM118.45 256.98L117.12 251.18L111.77 249.52L107.76 253.66L109.09 259.46L114.44 261.12ZM130.50 244.57L129.17 238.76L123.82 237.10L119.80 241.24L121.13 247.04L126.48 248.70ZM121.13 247.04L119.80 241.24L114.45 239.58L110.44 243.72L111.77 249.52L117.12 251.18ZM134.49 261.97L133.16 256.17L127.81 254.50L123.80 258.64L125.13 264.44L130.47 266.10ZM137.18 252.03L135.85 246.23L130.50 244.57L126.48 248.70L127.81 254.50L133.16 256.17ZM186.96 164.96L185.63 159.14L180.26 157.47L176.22 161.62L177.55 167.44L182.92 169.11ZM177.55 167.44L176.22 161.62L170.86 159.95L166.82 164.11L168.15 169.92L173.51 171.59ZM189.67 154.99L188.35 149.16L182.98 147.50L178.94 151.65L180.26 157.47L185.63 159.14ZM180.26 157.47L178.94 151.65L173.57 149.98L169.53 154.14L170.86 159.95L176.22 161.62ZM193.65 172.45L192.32 166.63L186.96 164.96L182.92 169.11L184.24 174.93L189.61 176.60ZM184.24 174.93L182.92 169.11L177.55 167.44L173.51 171.59L174.84 177.41L180.20 179.08ZM196.37 162.48L195.04 156.66L189.67 154.99L185.63 159.14L186.96 164.96L192.32 166.63ZM161.46 162.44L160.13 156.62L154.76 154.96L150.73 159.11L152.06 164.93L157.42 166.59ZM152.06 164.93L150.73 159.11L145.36 157.45L141.33 161.60L142.66 167.42L148.03 169.08ZM164.16 152.47L162.83 146.65L157.47 144.98L153.43 149.14L154.76 154.96L160.13 156.62ZM154.76 154.96L153.43 149.14L148.06 147.48L144.03 151.63L145.36 157.45L150.73 159.11ZM168.15 169.92L166.82 164.11L161.46 162.44L157.42 166.59L158.75 172.41L164.11 174.07ZM158.75 172.41L157.42 166.59L152.06 164.93L148.03 169.08L149.36 174.90L154.72 176.56ZM170.86 159.95L169.53 154.14L164.16 152.47L160.13 156.62L161.46 162.44L166.82 164.11ZM201.81 142.53L200.48 136.70L195.11 135.03L191.07 139.19L192.39 145.01L197.76 146.68ZM192.39 145.01L191.07 139.19L185.69 137.52L181.65 141.67L182.98 147.50L188.35 149.16ZM204.53 132.55L203.21 126.72L197.83 125.05L193.78 129.21L195.11 135.03L200.48 136.70ZM195.11 135.03L193.78 129.21L188.41 127.54L184.37 131.69L185.69 137.52L191.07 139.19ZM208.51 150.03L207.18 144.20L201.81 142.53L197.76 146.68L199.09 152.51L204.46 154.18ZM199.09 152.51L197.76 146.68L192.39 145.01L188.35 149.16L189.67 154.99L195.04 156.66ZM211.23 140.05L209.91 134.22L204.53 132.55L200.48 136.70L201.81 142.53L207.18 144.20ZM176.28 140.00L174.95 134.18L169.58 132.52L165.54 136.67L166.87 142.49L172.24 144.16ZM166.87 142.49L165.54 136.67L160.17 135.01L156.13 139.16L157.47 144.98L162.83 146.65ZM178.99 130.02L177.67 124.20L172.29 122.53L168.25 126.69L169.58 132.52L174.95 134.18ZM169.58 132.52L168.25 126.69L162.88 125.03L158.84 129.19L160.17 135.01L165.54 136.67ZM182.98 147.50L181.65 141.67L176.28 140.00L172.24 144.16L173.57 149.98L178.94 151.65ZM173.57 149.98L172.24 144.16L166.87 142.49L162.83 146.65L164.16 152.47L169.53 154.14ZM185.69 137.52L184.37 131.69L178.99 130.02L174.95 134.18L176.28 140.00L181.65 141.67ZM197.62 189.91L196.30 184.09L190.93 182.42L186.89 186.56L188.22 192.38L193.58 194.05ZM188.22 192.38L186.89 186.56L181.53 184.89L177.49 189.04L178.82 194.86L184.18 196.53ZM200.34 179.94L199.02 174.12L193.65 172.45L189.61 176.60L190.93 182.42L196.30 184.09ZM190.93 182.42L189.61 176.60L184.24 174.93L180.20 179.08L181.53 184.89L186.89 186.56ZM204.31 197.40L202.99 191.58L197.62 189.91L193.58 194.05L194.91 199.87L200.27 201.54ZM194.91 199.87L193.58 194.05L188.22 192.38L184.18 196.53L185.51 202.34L190.87 204.01ZM207.03 187.44L205.71 181.62L200.34 179.94L196.30 184.09L197.62 189.91L202.99 191.58ZM172.13 187.37L170.80 181.56L165.44 179.89L161.41 184.04L162.74 189.85L168.10 191.52ZM162.74 189.85L161.41 184.04L156.05 182.37L152.02 186.52L153.35 192.34L158.71 194.00ZM174.84 177.41L173.51 171.59L168.15 169.92L164.11 174.07L165.44 179.89L170.80 181.56ZM165.44 179.89L164.11 174.07L158.75 172.41L154.72 176.56L156.05 182.37L161.41 184.04ZM178.82 194.86L177.49 189.04L172.13 187.37L168.10 191.52L169.43 197.33L174.79 199.00ZM169.43 197.33L168.10 191.52L162.74 189.85L158.71 194.00L160.03 199.81L165.39 201.48ZM181.53 184.89L180.20 179.08L174.84 177.41L170.80 181.56L172.13 187.37L177.49 189.04ZM212.48 167.50L211.15 161.68L205.78 160.00L201.74 164.15L203.06 169.97L208.43 171.65ZM203.06 169.97L201.74 164.15L196.37 162.48L192.32 166.63L193.65 172.45L199.02 174.12ZM215.20 157.53L213.88 151.70L208.51 150.03L204.46 154.18L205.78 160.00L211.15 161.68ZM205.78 160.00L204.46 154.18L199.09 152.51L195.04 156.66L196.37 162.48L201.74 164.15ZM219.17 175.00L217.84 169.18L212.48 167.50L208.43 171.65L209.75 177.47L215.12 179.14ZM209.75 177.47L208.43 171.65L203.06 169.97L199.02 174.12L200.34 179.94L205.71 181.62ZM221.89 165.03L220.57 159.20L215.20 157.53L211.15 161.68L212.48 167.50L217.84 169.18ZM121.20 182.37L119.86 176.56L114.50 174.90L110.48 179.05L111.82 184.86L117.17 186.52ZM111.82 184.86L110.48 179.05L105.13 177.39L101.11 181.55L102.44 187.35L107.80 189.01ZM123.89 172.40L122.55 166.59L117.19 164.93L113.17 169.09L114.50 174.90L119.86 176.56ZM114.50 174.90L113.17 169.09L107.81 167.43L103.79 171.59L105.13 177.39L110.48 179.05ZM127.89 189.83L126.55 184.02L121.20 182.37L117.17 186.52L118.51 192.32L123.86 193.98ZM118.51 192.32L117.17 186.52L111.82 184.86L107.80 189.01L109.13 194.82L114.49 196.47ZM130.58 179.87L129.25 174.06L123.89 172.40L119.86 176.56L121.20 182.37L126.55 184.02ZM95.75 179.89L94.41 174.09L89.06 172.43L85.04 176.59L86.38 182.39L91.74 184.05ZM86.38 182.39L85.04 176.59L79.69 174.94L75.68 179.09L77.01 184.89L82.37 186.55ZM98.43 169.93L97.09 164.12L91.74 162.47L87.72 166.63L89.06 172.43L94.41 174.09ZM89.06 172.43L87.72 166.63L82.36 164.97L78.35 169.13L79.69 174.94L85.04 176.59ZM102.44 187.35L101.11 181.55L95.75 179.89L91.74 184.05L93.07 189.85L98.43 191.51ZM93.07 189.85L91.74 184.05L86.38 182.39L82.37 186.55L83.71 192.35L89.06 194.00ZM105.13 177.39L103.79 171.59L98.43 169.93L94.41 174.09L95.75 179.89L101.11 181.55ZM135.97 159.94L134.64 154.13L129.27 152.47L125.24 156.62L126.58 162.44L131.94 164.10ZM126.58 162.44L125.24 156.62L119.88 154.97L115.86 159.12L117.19 164.93L122.55 166.59ZM138.67 149.97L137.33 144.15L131.97 142.50L127.94 146.65L129.27 152.47L134.64 154.13ZM129.27 152.47L127.94 146.65L122.57 144.99L118.55 149.15L119.88 154.97L125.24 156.62ZM142.66 167.42L141.33 161.60L135.97 159.94L131.94 164.10L133.27 169.91L138.63 171.57ZM133.27 169.91L131.94 164.10L126.58 162.44L122.55 166.59L123.89 172.40L129.25 174.06ZM145.36 157.45L144.03 151.63L138.67 149.97L134.64 154.13L135.97 159.94L141.33 161.60ZM110.50 157.47L109.16 151.65L103.80 150.00L99.78 154.16L101.12 159.97L106.47 161.62ZM101.12 159.97L99.78 154.16L94.42 152.50L90.40 156.66L91.74 162.47L97.09 164.12ZM113.19 147.50L111.85 141.68L106.49 140.03L102.46 144.19L103.80 150.00L109.16 151.65ZM103.80 150.00L102.46 144.19L97.10 142.53L93.08 146.69L94.42 152.50L99.78 154.16ZM117.19 164.93L115.86 159.12L110.50 157.47L106.47 161.62L107.81 167.43L113.17 169.09ZM107.81 167.43L106.47 161.62L101.12 159.97L97.09 164.12L98.43 169.93L103.79 171.59ZM119.88 154.97L118.55 149.15L113.19 147.50L109.16 151.65L110.50 157.47L115.86 159.12ZM131.88 207.26L130.55 201.45L125.20 199.79L121.18 203.94L122.51 209.74L127.86 211.40ZM122.51 209.74L121.18 203.94L115.82 202.28L111.80 206.43L113.14 212.23L118.49 213.89ZM134.58 197.30L133.24 191.49L127.89 189.83L123.86 193.98L125.20 199.79L130.55 201.45ZM125.20 199.79L123.86 193.98L118.51 192.32L114.49 196.47L115.82 202.28L121.18 203.94ZM138.57 214.73L137.24 208.92L131.88 207.26L127.86 211.40L129.19 217.21L134.55 218.87ZM129.19 217.21L127.86 211.40L122.51 209.74L118.49 213.89L119.82 219.69L125.17 221.35ZM141.26 204.78L139.93 198.97L134.58 197.30L130.55 201.45L131.88 207.26L137.24 208.92ZM106.45 204.77L105.12 198.97L99.76 197.31L95.75 201.46L97.08 207.26L102.43 208.92ZM97.08 207.26L95.75 201.46L90.40 199.81L86.38 203.95L87.72 209.76L93.07 211.41ZM109.13 194.82L107.80 189.01L102.44 187.35L98.43 191.51L99.76 197.31L105.12 198.97ZM99.76 197.31L98.43 191.51L93.07 189.85L89.06 194.00L90.40 199.81L95.75 201.46ZM113.14 212.23L111.80 206.43L106.45 204.77L102.43 208.92L103.77 214.72L109.12 216.38ZM103.77 214.72L102.43 208.92L97.08 207.26L93.07 211.41L94.41 217.21L99.75 218.87ZM115.82 202.28L114.49 196.47L109.13 194.82L105.12 198.97L106.45 204.77L111.80 206.43ZM146.66 184.86L145.33 179.05L139.97 177.38L135.94 181.53L137.27 187.35L142.63 189.01ZM137.27 187.35L135.94 181.53L130.58 179.87L126.55 184.02L127.89 189.83L133.24 191.49ZM149.36 174.90L148.03 169.08L142.66 167.42L138.63 171.57L139.97 177.38L145.33 179.05ZM139.97 177.38L138.63 171.57L133.27 169.91L129.25 174.06L130.58 179.87L135.94 181.53ZM153.35 192.34L152.02 186.52L146.66 184.86L142.63 189.01L143.96 194.82L149.32 196.48ZM143.96 194.82L142.63 189.01L137.27 187.35L133.24 191.49L134.58 197.30L139.93 198.97ZM156.05 182.37L154.72 176.56L149.36 174.90L145.33 179.05L146.66 184.86L152.02 186.52ZM232.27 254.77L230.95 248.95L225.59 247.27L221.55 251.41L222.87 257.22L228.23 258.90ZM222.87 257.22L221.55 251.41L216.20 249.73L212.16 253.86L213.48 259.67L218.83 261.35ZM238.94 262.26L237.63 256.45L232.27 254.77L228.23 258.90L229.55 264.71L234.90 266.39ZM204.09 262.13L202.77 256.32L197.41 254.64L193.38 258.78L194.70 264.58L200.06 266.26ZM206.80 252.19L205.48 246.38L200.13 244.70L196.09 248.84L197.41 254.64L202.77 256.32ZM197.41 254.64L196.09 248.84L190.74 247.16L186.71 251.30L188.03 257.10L193.38 258.78ZM213.48 259.67L212.16 253.86L206.80 252.19L202.77 256.32L204.09 262.13L209.44 263.80ZM233.77 217.42L232.45 211.60L227.09 209.92L223.04 214.06L224.36 219.88L229.73 221.56ZM224.36 219.88L223.04 214.06L217.68 212.38L213.64 216.52L214.96 222.34L220.32 224.02ZM236.50 207.46L235.18 201.64L229.82 199.96L225.77 204.10L227.09 209.92L232.45 211.60ZM227.09 209.92L225.77 204.10L220.40 202.43L216.36 206.57L217.68 212.38L223.04 214.06ZM240.45 224.92L239.13 219.10L233.77 217.42L229.73 221.56L231.04 227.38L236.41 229.06ZM231.04 227.38L229.73 221.56L224.36 219.88L220.32 224.02L221.64 229.83L227.00 231.51ZM243.18 214.96L241.87 209.14L236.50 207.46L232.45 211.60L233.77 217.42L239.13 219.10ZM208.28 214.85L206.95 209.03L201.59 207.36L197.55 211.50L198.88 217.31L204.24 218.99ZM198.88 217.31L197.55 211.50L192.19 209.83L188.16 213.97L189.48 219.78L194.84 221.45ZM211.00 204.89L209.67 199.07L204.31 197.40L200.27 201.54L201.59 207.36L206.95 209.03ZM201.59 207.36L200.27 201.54L194.91 199.87L190.87 204.01L192.19 209.83L197.55 211.50ZM214.96 222.34L213.64 216.52L208.28 214.85L204.24 218.99L205.56 224.80L210.92 226.48ZM205.56 224.80L204.24 218.99L198.88 217.31L194.84 221.45L196.16 227.27L201.52 228.94ZM217.68 212.38L216.36 206.57L211.00 204.89L206.95 209.03L208.28 214.85L213.64 216.52ZM248.65 195.04L247.33 189.22L241.96 187.54L237.91 191.68L239.23 197.50L244.60 199.18ZM239.23 197.50L237.91 191.68L232.54 190.00L228.50 194.14L229.82 199.96L235.18 201.64ZM251.39 185.07L250.07 179.25L244.70 177.57L240.65 181.71L241.96 187.54L247.33 189.22ZM241.96 187.54L240.65 181.71L235.27 180.03L231.22 184.18L232.54 190.00L237.91 191.68ZM255.33 202.55L254.02 196.72L248.65 195.04L244.60 199.18L245.92 205.00L251.28 206.69ZM245.92 205.00L244.60 199.18L239.23 197.50L235.18 201.64L236.50 207.46L241.87 209.14ZM258.07 192.58L256.76 186.76L251.39 185.07L247.33 189.22L248.65 195.04L254.02 196.72ZM223.13 192.46L221.81 186.64L216.44 184.97L212.40 189.11L213.72 194.93L219.08 196.61ZM213.72 194.93L212.40 189.11L207.03 187.44L202.99 191.58L204.31 197.40L209.67 199.07ZM225.86 182.50L224.54 176.67L219.17 175.00L215.12 179.14L216.44 184.97L221.81 186.64ZM216.44 184.97L215.12 179.14L209.75 177.47L205.71 181.62L207.03 187.44L212.40 189.11ZM229.82 199.96L228.50 194.14L223.13 192.46L219.08 196.61L220.40 202.43L225.77 204.10ZM220.40 202.43L219.08 196.61L213.72 194.93L209.67 199.07L211.00 204.89L216.36 206.57ZM232.54 190.00L231.22 184.18L225.86 182.50L221.81 186.64L223.13 192.46L228.50 194.14ZM244.40 242.37L243.08 236.55L237.72 234.87L233.68 239.01L234.99 244.82L240.35 246.50ZM234.99 244.82L233.68 239.01L228.32 237.33L224.28 241.46L225.59 247.27L230.95 248.95ZM247.13 232.42L245.82 226.60L240.45 224.92L236.41 229.06L237.72 234.87L243.08 236.55ZM237.72 234.87L236.41 229.06L231.04 227.38L227.00 231.51L228.32 237.33L233.68 239.01ZM251.08 249.87L249.76 244.05L244.40 242.37L240.35 246.50L241.67 252.32L247.03 254.00ZM241.67 252.32L240.35 246.50L234.99 244.82L230.95 248.95L232.27 254.77L237.63 256.45ZM253.81 239.92L252.49 234.10L247.13 232.42L243.08 236.55L244.40 242.37L249.76 244.05ZM218.92 239.78L217.60 233.97L212.24 232.29L208.20 236.43L209.52 242.24L214.88 243.92ZM209.52 242.24L208.20 236.43L202.84 234.75L198.81 238.89L200.13 244.70L205.48 246.38ZM221.64 229.83L220.32 224.02L214.96 222.34L210.92 226.48L212.24 232.29L217.60 233.97ZM212.24 232.29L210.92 226.48L205.56 224.80L201.52 228.94L202.84 234.75L208.20 236.43ZM225.59 247.27L224.28 241.46L218.92 239.78L214.88 243.92L216.20 249.73L221.55 251.41ZM216.20 249.73L214.88 243.92L209.52 242.24L205.48 246.38L206.80 252.19L212.16 253.86ZM228.32 237.33L227.00 231.51L221.64 229.83L217.60 233.97L218.92 239.78L224.28 241.46ZM259.28 220.01L257.97 214.19L252.60 212.51L248.55 216.65L249.86 222.47L255.23 224.15ZM249.86 222.47L248.55 216.65L243.18 214.96L239.13 219.10L240.45 224.92L245.82 226.60ZM262.02 210.05L260.70 204.23L255.33 202.55L251.28 206.69L252.60 212.51L257.97 214.19ZM252.60 212.51L251.28 206.69L245.92 205.00L241.87 209.14L243.18 214.96L248.55 216.65ZM265.96 227.52L264.65 221.70L259.28 220.01L255.23 224.15L256.54 229.97L261.91 231.65ZM256.54 229.97L255.23 224.15L249.86 222.47L245.82 226.60L247.13 232.42L252.49 234.10ZM4.87 195.02L3.52 189.23L-1.82 187.59L-5.81 191.75L-4.46 197.54L0.88 199.18ZM7.52 185.07L6.17 179.28L0.82 177.64L-3.17 181.80L-1.82 187.59L3.52 189.23ZM11.56 202.45L10.21 196.66L4.87 195.02L0.88 199.18L2.23 204.97L7.57 206.61ZM2.23 204.97L0.88 199.18L-4.46 197.54L-8.45 201.70L-7.10 207.49L-1.76 209.12ZM14.21 192.51L12.86 186.71L7.52 185.07L3.52 189.23L4.87 195.02L10.21 196.66ZM0.99 242.21L-0.36 236.43L-5.70 234.79L-9.68 238.94L-8.33 244.72L-3.00 246.36ZM3.63 232.28L2.28 226.49L-3.06 224.85L-7.04 229.00L-5.70 234.79L-0.36 236.43ZM7.67 249.64L6.32 243.85L0.99 242.21L-3.00 246.36L-1.65 252.14L3.68 253.78ZM10.31 239.70L8.96 233.92L3.63 232.28L-0.36 236.43L0.99 242.21L6.32 243.85ZM15.60 219.83L14.26 214.04L8.92 212.40L4.92 216.55L6.27 222.34L11.61 223.98ZM6.27 222.34L4.92 216.55L-0.42 214.91L-4.41 219.06L-3.06 224.85L2.28 226.49ZM18.25 209.89L16.90 204.09L11.56 202.45L7.57 206.61L8.92 212.40L14.26 214.04ZM8.92 212.40L7.57 206.61L2.23 204.97L-1.76 209.12L-0.42 214.91L4.92 216.55ZM22.29 227.26L20.94 221.47L15.60 219.83L11.61 223.98L12.96 229.77L18.29 231.41ZM12.96 229.77L11.61 223.98L6.27 222.34L2.28 226.49L3.63 232.28L8.96 233.92ZM24.94 217.32L23.59 211.53L18.25 209.89L14.26 214.04L15.60 219.83L20.94 221.47ZM8.77 147.76L7.42 141.96L2.06 140.33L-1.93 144.49L-0.58 150.29L4.77 151.93ZM11.42 137.80L10.07 131.99L4.71 130.36L0.71 134.52L2.06 140.33L7.42 141.96ZM2.06 140.33L0.71 134.52L-4.64 132.89L-8.64 137.06L-7.28 142.86L-1.93 144.49ZM15.47 155.20L14.12 149.40L8.77 147.76L4.77 151.93L6.12 157.73L11.47 159.36ZM6.12 157.73L4.77 151.93L-0.58 150.29L-4.58 154.45L-3.23 160.25L2.12 161.89ZM18.12 145.24L16.77 139.43L11.42 137.80L7.42 141.96L8.77 147.76L14.12 149.40ZM23.43 125.30L22.08 119.49L16.72 117.85L12.72 122.02L14.07 127.83L19.42 129.47ZM14.07 127.83L12.72 122.02L7.36 120.39L3.36 124.55L4.71 130.36L10.07 131.99ZM26.09 115.32L24.74 109.52L19.38 107.88L15.37 112.05L16.72 117.85L22.08 119.49ZM16.72 117.85L15.37 112.05L10.02 110.41L6.01 114.58L7.36 120.39L12.72 122.02ZM30.13 132.74L28.79 126.94L23.43 125.30L19.42 129.47L20.77 135.27L26.13 136.91ZM20.77 135.27L19.42 129.47L14.07 127.83L10.07 131.99L11.42 137.80L16.77 139.43ZM32.79 122.77L31.45 116.96L26.09 115.32L22.08 119.49L23.43 125.30L28.79 126.94ZM0.66 112.95L-0.69 107.14L-6.05 105.51L-10.05 109.68L-8.70 115.48L-3.34 117.12ZM4.71 130.36L3.36 124.55L-1.99 122.92L-5.99 127.09L-4.64 132.89L0.71 134.52ZM7.36 120.39L6.01 114.58L0.66 112.95L-3.34 117.12L-1.99 122.92L3.36 124.55ZM19.51 172.60L18.16 166.80L12.81 165.16L8.82 169.32L10.16 175.12L15.51 176.76ZM10.16 175.12L8.82 169.32L3.47 167.68L-0.53 171.84L0.82 177.64L6.17 179.28ZM22.16 162.64L20.82 156.84L15.47 155.20L11.47 159.36L12.81 165.16L18.16 166.80ZM12.81 165.16L11.47 159.36L6.12 157.73L2.12 161.89L3.47 167.68L8.82 169.32ZM26.20 180.04L24.86 174.24L19.51 172.60L15.51 176.76L16.86 182.55L22.20 184.19ZM16.86 182.55L15.51 176.76L10.16 175.12L6.17 179.28L7.52 185.07L12.86 186.71ZM28.86 170.08L27.51 164.28L22.16 162.64L18.16 166.80L19.51 172.60L24.86 174.24ZM0.82 177.64L-0.53 171.84L-5.87 170.21L-9.87 174.37L-8.51 180.16L-3.17 181.80ZM3.47 167.68L2.12 161.89L-3.23 160.25L-7.22 164.41L-5.87 170.21L-0.53 171.84ZM34.18 150.16L32.83 144.35L27.48 142.71L23.47 146.88L24.82 152.68L30.17 154.32ZM24.82 152.68L23.47 146.88L18.12 145.24L14.12 149.40L15.47 155.20L20.82 156.84ZM36.84 140.19L35.49 134.38L30.13 132.74L26.13 136.91L27.48 142.71L32.83 144.35ZM27.48 142.71L26.13 136.91L20.77 135.27L16.77 139.43L18.12 145.24L23.47 146.88ZM40.87 157.60L39.53 151.80L34.18 150.16L30.17 154.32L31.52 160.12L36.87 161.76ZM31.52 160.12L30.17 154.32L24.82 152.68L20.82 156.84L22.16 162.64L27.51 164.28ZM43.54 147.64L42.19 141.83L36.84 140.19L32.83 144.35L34.18 150.16L39.53 151.80ZM39.68 259.50L38.34 253.71L33.00 252.06L29.01 256.21L30.35 261.99L35.69 263.64ZM30.35 261.99L29.01 256.21L23.67 254.56L19.68 258.70L21.03 264.49L26.36 266.13ZM14.35 257.06L13.00 251.28L7.67 249.64L3.68 253.78L5.03 259.57L10.36 261.21ZM5.03 259.57L3.68 253.78L-1.65 252.14L-5.64 256.29L-4.29 262.07L1.04 263.71ZM51.67 247.07L50.33 241.28L44.99 239.63L40.99 243.77L42.33 249.56L47.67 251.21ZM42.33 249.56L40.99 243.77L35.65 242.13L31.66 246.27L33.00 252.06L38.34 253.71ZM54.33 237.13L52.99 231.34L47.65 229.69L43.65 233.84L44.99 239.63L50.33 241.28ZM44.99 239.63L43.65 233.84L38.31 232.19L34.31 236.34L35.65 242.13L40.99 243.77ZM58.35 254.51L57.01 248.72L51.67 247.07L47.67 251.21L49.01 257.00L54.35 258.65ZM49.01 257.00L47.67 251.21L42.33 249.56L38.34 253.71L39.68 259.50L45.02 261.14ZM61.01 244.57L59.67 238.78L54.33 237.13L50.33 241.28L51.67 247.07L57.01 248.72ZM26.32 244.63L24.98 238.84L19.64 237.20L15.65 241.35L16.99 247.13L22.33 248.77ZM16.99 247.13L15.65 241.35L10.31 239.70L6.32 243.85L7.67 249.64L13.00 251.28ZM28.97 234.69L27.63 228.90L22.29 227.26L18.29 231.41L19.64 237.20L24.98 238.84ZM19.64 237.20L18.29 231.41L12.96 229.77L8.96 233.92L10.31 239.70L15.65 241.35ZM33.00 252.06L31.66 246.27L26.32 244.63L22.33 248.77L23.67 254.56L29.01 256.21ZM23.67 254.56L22.33 248.77L16.99 247.13L13.00 251.28L14.35 257.06L19.68 258.70ZM35.65 242.13L34.31 236.34L28.97 234.69L24.98 238.84L26.32 244.63L31.66 246.27ZM65.03 261.95L63.69 256.16L58.35 254.51L54.35 258.65L55.69 264.44L61.03 266.09ZM55.63 199.86L54.29 194.06L48.94 192.41L44.94 196.56L46.28 202.36L51.62 204.01ZM46.28 202.36L44.94 196.56L39.59 194.92L35.59 199.07L36.93 204.87L42.28 206.51ZM58.29 189.90L56.95 184.10L51.60 182.46L47.60 186.61L48.94 192.41L54.29 194.06ZM48.94 192.41L47.60 186.61L42.25 184.97L38.24 189.12L39.59 194.92L44.94 196.56ZM62.32 207.30L60.98 201.50L55.63 199.86L51.62 204.01L52.97 209.80L58.31 211.45ZM52.97 209.80L51.62 204.01L46.28 202.36L42.28 206.51L43.62 212.31L48.96 213.95ZM64.98 197.35L63.64 191.55L58.29 189.90L54.29 194.06L55.63 199.86L60.98 201.50ZM30.24 197.43L28.90 191.63L23.55 189.99L19.55 194.15L20.90 199.94L26.24 201.58ZM20.90 199.94L19.55 194.15L14.21 192.51L10.21 196.66L11.56 202.45L16.90 204.09ZM32.90 187.48L31.55 181.68L26.20 180.04L22.20 184.19L23.55 189.99L28.90 191.63ZM23.55 189.99L22.20 184.19L16.86 182.55L12.86 186.71L14.21 192.51L19.55 194.15ZM36.93 204.87L35.59 199.07L30.24 197.43L26.24 201.58L27.59 207.38L32.93 209.02ZM27.59 207.38L26.24 201.58L20.90 199.94L16.90 204.09L18.25 209.89L23.59 211.53ZM39.59 194.92L38.24 189.12L32.90 187.48L28.90 191.63L30.24 197.43L35.59 199.07ZM70.32 177.44L68.98 171.64L63.63 169.99L59.62 174.14L60.96 179.95L66.31 181.60ZM60.96 179.95L59.62 174.14L54.27 172.50L50.26 176.65L51.60 182.46L56.95 184.10ZM72.99 167.48L71.65 161.67L66.30 160.03L62.29 164.18L63.63 169.99L68.98 171.64ZM63.63 169.99L62.29 164.18L56.93 162.54L52.92 166.70L54.27 172.50L59.62 174.14ZM77.01 184.89L75.68 179.09L70.32 177.44L66.31 181.60L67.65 187.40L73.00 189.05ZM67.65 187.40L66.31 181.60L60.96 179.95L56.95 184.10L58.29 189.90L63.64 191.55ZM79.69 174.94L78.35 169.13L72.99 167.48L68.98 171.64L70.32 177.44L75.68 179.09ZM44.91 175.01L43.56 169.21L38.21 167.56L34.21 171.72L35.55 177.52L40.90 179.17ZM35.55 177.52L34.21 171.72L28.86 170.08L24.86 174.24L26.20 180.04L31.55 181.68ZM47.57 165.05L46.23 159.25L40.87 157.60L36.87 161.76L38.21 167.56L43.56 169.21ZM38.21 167.56L36.87 161.76L31.52 160.12L27.51 164.28L28.86 170.08L34.21 171.72ZM51.60 182.46L50.26 176.65L44.91 175.01L40.90 179.17L42.25 184.97L47.60 186.61ZM42.25 184.97L40.90 179.17L35.55 177.52L31.55 181.68L32.90 187.48L38.24 189.12ZM54.27 172.50L52.92 166.70L47.57 165.05L43.56 169.21L44.91 175.01L50.26 176.65ZM66.34 224.69L65.00 218.90L59.65 217.25L55.65 221.40L56.99 227.19L62.33 228.84ZM56.99 227.19L55.65 221.40L50.31 219.75L46.30 223.90L47.65 229.69L52.99 231.34ZM69.00 214.75L67.67 208.95L62.32 207.30L58.31 211.45L59.65 217.25L65.00 218.90ZM59.65 217.25L58.31 211.45L52.97 209.80L48.96 213.95L50.31 219.75L55.65 221.40ZM73.02 232.14L71.68 226.34L66.34 224.69L62.33 228.84L63.67 234.64L69.02 236.29ZM63.67 234.64L62.33 228.84L56.99 227.19L52.99 231.34L54.33 237.13L59.67 238.78ZM75.69 222.20L74.35 216.40L69.00 214.75L65.00 218.90L66.34 224.69L71.68 226.34ZM40.96 222.25L39.62 216.46L34.28 214.81L30.28 218.96L31.62 224.76L36.96 226.40ZM31.62 224.76L30.28 218.96L24.94 217.32L20.94 221.47L22.29 227.26L27.63 228.90ZM43.62 212.31L42.28 206.51L36.93 204.87L32.93 209.02L34.28 214.81L39.62 216.46ZM34.28 214.81L32.93 209.02L27.59 207.38L23.59 211.53L24.94 217.32L30.28 218.96ZM47.65 229.69L46.30 223.90L40.96 222.25L36.96 226.40L38.31 232.19L43.65 233.84ZM38.31 232.19L36.96 226.40L31.62 224.76L27.63 228.90L28.97 234.69L34.31 236.34ZM50.31 219.75L48.96 213.95L43.62 212.31L39.62 216.46L40.96 222.25L46.30 223.90ZM81.03 202.30L79.69 196.50L74.34 194.85L70.33 199.00L71.67 204.80L77.02 206.45ZM71.67 204.80L70.33 199.00L64.98 197.35L60.98 201.50L62.32 207.30L67.67 208.95ZM83.71 192.35L82.37 186.55L77.01 184.89L73.00 189.05L74.34 194.85L79.69 196.50ZM74.34 194.85L73.00 189.05L67.65 187.40L63.64 191.55L64.98 197.35L70.33 199.00ZM87.72 209.76L86.38 203.95L81.03 202.30L77.02 206.45L78.36 212.25L83.71 213.90ZM78.36 212.25L77.02 206.45L71.67 204.80L67.67 208.95L69.00 214.75L74.35 216.40ZM90.40 199.81L89.06 194.00L83.71 192.35L79.69 196.50L81.03 202.30L86.38 203.95Z"/></svg>
