<svg xmlns="http://www.w3.org/2000/svg" width="256" height="256" viewBox="0 0 256 256"><path data-band="3" fill="#dc2626" fill-opacity="0.35" d="M213.05 224.44L211.75 218.71L206.47 217.02L202.49 221.06L203.79 226.80L209.07 228.49ZM203.79 226.80L202.49 221.06L197.21 219.37L193.24 223.42L194.54 229.16L199.82 230.84ZM215.73 214.66L214.43 208.92L209.15 207.23L205.17 211.28L206.47 217.02L211.75 218.71ZM206.47 217.02L205.17 211.28L199.89 209.59L195.91 213.64L197.21 219.37L202.49 221.06ZM219.64 231.87L218.34 226.13L213.05 224.44L209.07 228.49L210.38 234.22L215.65 235.92ZM210.38 234.22L209.07 228.49L203.79 226.80L199.82 230.84L201.12 236.58L206.40 238.27ZM222.32 222.09L221.02 216.35L215.73 214.66L211.75 218.71L213.05 224.44L218.34 226.13ZM187.96 221.73L186.65 216.00L181.37 214.31L177.40 218.36L178.71 224.10L183.98 225.78ZM178.71 224.10L177.40 218.36L172.12 216.68L168.15 220.73L169.46 226.46L174.73 228.14ZM190.63 211.95L189.32 206.21L184.04 204.53L180.07 208.58L181.37 214.31L186.65 216.00ZM181.37 214.31L180.07 208.58L174.79 206.89L170.82 210.95L172.12 216.68L177.40 218.36ZM194.54 229.16L193.24 223.42L187.96 221.73L183.98 225.78L185.29 231.52L190.56 233.20ZM185.29 231.52L183.98 225.78L178.71 224.10L174.73 228.14L176.04 233.88L181.32 235.56ZM197.21 219.37L195.91 213.64L190.63 211.95L186.65 216.00L187.96 221.73L193.24 223.42ZM227.69 202.51L226.39 196.77L221.10 195.08L217.12 199.13L218.42 204.87L223.70 206.56ZM218.42 204.87L217.12 199.13L211.83 197.44L207.85 201.49L209.15 207.23L214.43 208.92ZM230.37 192.72L229.07 186.97L223.79 185.28L219.80 189.33L221.10 195.08L226.39 196.77ZM221.10 195.08L219.80 189.33L214.51 187.64L210.53 191.70L211.83 197.44L217.12 199.13ZM234.27 209.95L232.97 204.21L227.69 202.51L223.70 206.56L225.00 212.30L230.29 214.00ZM225.00 212.30L223.70 206.56L218.42 204.87L214.43 208.92L215.73 214.66L221.02 216.35ZM236.96 200.16L235.66 194.41L230.37 192.72L226.39 196.77L227.69 202.51L232.97 204.21ZM202.56 199.80L201.26 194.06L195.98 192.37L192.00 196.42L193.30 202.16L198.58 203.85ZM193.30 202.16L192.00 196.42L186.71 194.74L182.74 198.79L184.04 204.53L189.32 206.21ZM205.24 190.01L203.94 184.26L198.65 182.58L194.67 186.63L195.98 192.37L201.26 194.06ZM195.98 192.37L194.67 186.63L189.39 184.94L185.41 189.00L186.71 194.74L192.00 196.42ZM209.15 207.23L207.85 201.49L202.56 199.80L198.58 203.85L199.89 209.59L205.17 211.28ZM199.89 209.59L198.58 203.85L193.30 202.16L189.32 206.21L190.63 211.95L195.91 213.64ZM211.83 197.44L210.53 191.70L205.24 190.01L201.26 194.06L202.56 199.80L207.85 201.49ZM223.53 249.08L222.23 243.34L216.95 241.65L212.98 245.69L214.28 251.43L219.55 253.12ZM214.28 251.43L212.98 245.69L207.70 244.00L203.72 248.05L205.02 253.78L210.30 255.47ZM226.21 239.30L224.92 233.56L219.64 231.87L215.65 235.92L216.95 241.65L222.23 243.34ZM216.95 241.65L215.65 235.92L210.38 234.22L206.40 238.27L207.70 244.00L212.98 245.69ZM230.11 256.51L228.81 250.77L223.53 249.08L219.55 253.12L220.85 258.85L226.13 260.55ZM220.85 258.85L219.55 253.12L214.28 251.43L210.30 255.47L211.60 261.20L216.87 262.89ZM232.79 246.73L231.49 241.00L226.21 239.30L222.23 243.34L223.53 249.08L228.81 250.77ZM198.45 246.36L197.14 240.62L191.87 238.94L187.90 242.98L189.20 248.71L194.47 250.40ZM189.20 248.71L187.90 242.98L182.62 241.29L178.65 245.34L179.95 251.07L185.23 252.75ZM201.12 236.58L199.82 230.84L194.54 229.16L190.56 233.20L191.87 238.94L197.14 240.62ZM191.87 238.94L190.56 233.20L185.29 231.52L181.32 235.56L182.62 241.29L187.90 242.98ZM205.02 253.78L203.72 248.05L198.45 246.36L194.47 250.40L195.77 256.13L201.05 257.82ZM195.77 256.13L194.47 250.40L189.20 248.71L185.23 252.75L186.53 258.48L191.80 260.17ZM207.70 244.00L206.40 238.27L201.12 236.58L197.14 240.62L198.45 246.36L203.72 248.05ZM238.17 227.17L236.87 221.43L231.58 219.74L227.60 223.78L228.90 229.52L234.18 231.22ZM228.90 229.52L227.60 223.78L222.32 222.09L218.34 226.13L219.64 231.87L224.92 233.56ZM240.85 217.39L239.56 211.64L234.27 209.95L230.29 214.00L231.58 219.74L236.87 221.43ZM231.58 219.74L230.29 214.00L225.00 212.30L221.02 216.35L222.32 222.09L227.60 223.78ZM244.75 234.61L243.45 228.87L238.17 227.17L234.18 231.22L235.48 236.95L240.76 238.65ZM235.48 236.95L234.18 231.22L228.90 229.52L224.92 233.56L226.21 239.30L231.49 241.00ZM247.44 224.82L246.14 219.08L240.85 217.39L236.87 221.43L238.17 227.17L243.45 228.87ZM148.32 240.97L147.01 235.24L141.74 233.56L137.78 237.61L139.09 243.34L144.36 245.01ZM139.09 243.34L137.78 237.61L132.51 235.93L128.55 239.98L129.86 245.70L135.13 247.38ZM150.97 231.19L149.67 225.46L144.39 223.78L140.43 227.83L141.74 233.56L147.01 235.24ZM141.74 233.56L140.43 227.83L135.16 226.16L131.20 230.21L132.51 235.93L137.78 237.61ZM154.90 248.38L153.59 242.65L148.32 240.97L144.36 245.01L145.67 250.74L150.94 252.42ZM145.67 250.74L144.36 245.01L139.09 243.34L135.13 247.38L136.44 253.11L141.71 254.79ZM157.56 238.60L156.25 232.87L150.97 231.19L147.01 235.24L148.32 240.97L153.59 242.65ZM123.28 238.30L121.97 232.58L116.70 230.91L112.74 234.96L114.05 240.68L119.32 242.35ZM114.05 240.68L112.74 234.96L107.47 233.28L103.52 237.33L104.83 243.05L110.10 244.73ZM125.92 228.53L124.61 222.80L119.34 221.13L115.38 225.18L116.70 230.91L121.97 232.58ZM116.70 230.91L115.38 225.18L110.11 223.51L106.16 227.56L107.47 233.28L112.74 234.96ZM129.86 245.70L128.55 239.98L123.28 238.30L119.32 242.35L120.63 248.08L125.90 249.75ZM120.63 248.08L119.32 242.35L114.05 240.68L110.10 244.73L111.41 250.45L116.68 252.12ZM132.51 235.93L131.20 230.21L125.92 228.53L121.97 232.58L123.28 238.30L128.55 239.98ZM162.88 219.05L161.57 213.31L156.29 211.63L152.32 215.68L153.63 221.41L158.91 223.10ZM153.63 221.41L152.32 215.68L147.05 214.00L143.08 218.06L144.39 223.78L149.67 225.46ZM165.54 209.26L164.23 203.53L158.95 201.85L154.98 205.90L156.29 211.63L161.57 213.31ZM156.29 211.63L154.98 205.90L149.70 204.22L145.74 208.27L147.05 214.00L152.32 215.68ZM169.46 226.46L168.15 220.73L162.88 219.05L158.91 223.10L160.21 228.83L165.49 230.51ZM160.21 228.83L158.91 223.10L153.63 221.41L149.67 225.46L150.97 231.19L156.25 232.87ZM172.12 216.68L170.82 210.95L165.54 209.26L161.57 213.31L162.88 219.05L168.15 220.73ZM137.81 216.38L136.50 210.65L131.22 208.97L127.26 213.02L128.57 218.75L133.85 220.43ZM128.57 218.75L127.26 213.02L121.99 211.35L118.03 215.40L119.34 221.13L124.61 222.80ZM140.46 206.59L139.15 200.86L133.87 199.19L129.91 203.24L131.22 208.97L136.50 210.65ZM131.22 208.97L129.91 203.24L124.64 201.57L120.67 205.62L121.99 211.35L127.26 213.02ZM144.39 223.78L143.08 218.06L137.81 216.38L133.85 220.43L135.16 226.16L140.43 227.83ZM135.16 226.16L133.85 220.43L128.57 218.75L124.61 222.80L125.92 228.53L131.20 230.21ZM147.05 214.00L145.74 208.27L140.46 206.59L136.50 210.65L137.81 216.38L143.08 218.06ZM161.48 255.78L160.17 250.06L154.90 248.38L150.94 252.42L152.24 258.15L157.51 259.83ZM152.24 258.15L150.94 252.42L145.67 250.74L141.71 254.79L143.01 260.51L148.28 262.19ZM168.05 263.19L166.75 257.47L161.48 255.78L157.51 259.83L158.82 265.55L164.09 267.24ZM133.79 262.87L132.48 257.15L127.21 255.47L123.26 259.52L124.57 265.24L129.83 266.92ZM136.44 253.11L135.13 247.38L129.86 245.70L125.90 249.75L127.21 255.47L132.48 257.15ZM127.21 255.47L125.90 249.75L120.63 248.08L116.68 252.12L117.99 257.84L123.26 259.52ZM143.01 260.51L141.71 254.79L136.44 253.11L132.48 257.15L133.79 262.87L139.05 264.55ZM173.38 243.65L172.07 237.92L166.80 236.24L162.83 240.29L164.14 246.01L169.41 247.70ZM164.14 246.01L162.83 240.29L157.56 238.60L153.59 242.65L154.90 248.38L160.17 250.06ZM176.04 233.88L174.73 228.14L169.46 226.46L165.49 230.51L166.80 236.24L172.07 237.92ZM166.80 236.24L165.49 230.51L160.21 228.83L156.25 232.87L157.56 238.60L162.83 240.29ZM179.95 251.07L178.65 245.34L173.38 243.65L169.41 247.70L170.71 253.43L175.98 255.11ZM170.71 253.43L169.41 247.70L164.14 246.01L160.17 250.06L161.48 255.78L166.75 257.47ZM182.62 241.29L181.32 235.56L176.04 233.88L172.07 237.92L173.38 243.65L178.65 245.34ZM231.85 155.87L230.55 150.12L225.26 148.43L221.27 152.49L222.57 158.24L227.86 159.93ZM222.57 158.24L221.27 152.49L215.97 150.80L211.99 154.86L213.29 160.61L218.58 162.30ZM234.55 146.07L233.25 140.31L227.95 138.62L223.96 142.68L225.26 148.43L230.55 150.12ZM225.26 148.43L223.96 142.68L218.66 140.99L214.67 145.05L215.97 150.80L221.27 152.49ZM238.45 163.32L237.15 157.57L231.85 155.87L227.86 159.93L229.16 165.68L234.45 167.37ZM229.16 165.68L227.86 159.93L222.57 158.24L218.58 162.30L219.88 168.04L225.17 169.74ZM241.14 153.51L239.84 147.76L234.55 146.07L230.55 150.12L231.85 155.87L237.15 157.57ZM206.69 153.17L205.39 147.42L200.10 145.74L196.11 149.80L197.42 155.54L202.71 157.23ZM197.42 155.54L196.11 149.80L190.82 148.11L186.84 152.17L188.15 157.92L193.43 159.60ZM209.38 143.36L208.07 137.61L202.78 135.93L198.79 139.99L200.10 145.74L205.39 147.42ZM200.10 145.74L198.79 139.99L193.50 138.30L189.52 142.37L190.82 148.11L196.11 149.80ZM213.29 160.61L211.99 154.86L206.69 153.17L202.71 157.23L204.01 162.98L209.30 164.67ZM204.01 162.98L202.71 157.23L197.42 155.54L193.43 159.60L194.74 165.35L200.03 167.03ZM215.97 150.80L214.67 145.05L209.38 143.36L205.39 147.42L206.69 153.17L211.99 154.86ZM246.54 133.89L245.24 128.13L239.94 126.44L235.94 130.50L237.24 136.25L242.54 137.95ZM237.24 136.25L235.94 130.50L230.64 128.81L226.65 132.87L227.95 138.62L233.25 140.31ZM249.24 124.07L247.94 118.31L242.64 116.62L238.64 120.68L239.94 126.44L245.24 128.13ZM239.94 126.44L238.64 120.68L233.34 118.99L229.34 123.05L230.64 128.81L235.94 130.50ZM253.13 141.34L251.84 135.58L246.54 133.89L242.54 137.95L243.84 143.70L249.14 145.39ZM243.84 143.70L242.54 137.95L237.24 136.25L233.25 140.31L234.55 146.07L239.84 147.76ZM255.84 131.52L254.54 125.76L249.24 124.07L245.24 128.13L246.54 133.89L251.84 135.58ZM221.35 131.18L220.05 125.43L214.75 123.74L210.76 127.80L212.06 133.55L217.36 135.24ZM212.06 133.55L210.76 127.80L205.46 126.11L201.47 130.18L202.78 135.93L208.07 137.61ZM224.04 121.36L222.74 115.61L217.44 113.92L213.45 117.98L214.75 123.74L220.05 125.43ZM214.75 123.74L213.45 117.98L208.15 116.30L204.16 120.36L205.46 126.11L210.76 127.80ZM227.95 138.62L226.65 132.87L221.35 131.18L217.36 135.24L218.66 140.99L223.96 142.68ZM218.66 140.99L217.36 135.24L212.06 133.55L208.07 137.61L209.38 143.36L214.67 145.05ZM230.64 128.81L229.34 123.05L224.04 121.36L220.05 125.43L221.35 131.18L226.65 132.87ZM242.35 180.56L241.05 174.82L235.75 173.12L231.76 177.18L233.06 182.92L238.35 184.62ZM233.06 182.92L231.76 177.18L226.47 175.48L222.49 179.54L223.79 185.28L229.07 186.97ZM245.04 170.76L243.74 165.01L238.45 163.32L234.45 167.37L235.75 173.12L241.05 174.82ZM235.75 173.12L234.45 167.37L229.16 165.68L225.17 169.74L226.47 175.48L231.76 177.18ZM248.93 188.01L247.64 182.26L242.35 180.56L238.35 184.62L239.65 190.36L244.94 192.06ZM239.65 190.36L238.35 184.62L233.06 182.92L229.07 186.97L230.37 192.72L235.66 194.41ZM251.63 178.21L250.33 172.46L245.04 170.76L241.05 174.82L242.35 180.56L247.64 182.26ZM217.20 177.85L215.89 172.10L210.61 170.41L206.62 174.47L207.92 180.21L213.21 181.90ZM207.92 180.21L206.62 174.47L201.33 172.78L197.35 176.83L198.65 182.58L203.94 184.26ZM219.88 168.04L218.58 162.30L213.29 160.61L209.30 164.67L210.61 170.41L215.89 172.10ZM210.61 170.41L209.30 164.67L204.01 162.98L200.03 167.03L201.33 172.78L206.62 174.47ZM223.79 185.28L222.49 179.54L217.20 177.85L213.21 181.90L214.51 187.64L219.80 189.33ZM214.51 187.64L213.21 181.90L207.92 180.21L203.94 184.26L205.24 190.01L210.53 191.70ZM226.47 175.48L225.17 169.74L219.88 168.04L215.89 172.10L217.20 177.85L222.49 179.54ZM257.03 158.60L255.73 152.84L250.43 151.15L246.44 155.21L247.74 160.96L253.03 162.65ZM247.74 160.96L246.44 155.21L241.14 153.51L237.15 157.57L238.45 163.32L243.74 165.01ZM259.73 148.79L258.43 143.03L253.13 141.34L249.14 145.39L250.43 151.15L255.73 152.84ZM250.43 151.15L249.14 145.39L243.84 143.70L239.84 147.76L241.14 153.51L246.44 155.21ZM263.62 166.05L262.32 160.29L257.03 158.60L253.03 162.65L254.33 168.40L259.62 170.10ZM254.33 168.40L253.03 162.65L247.74 160.96L243.74 165.01L245.04 170.76L250.33 172.46ZM266.32 156.24L265.03 150.48L259.73 148.79L255.73 152.84L257.03 158.60L262.32 160.29ZM166.94 172.47L165.64 166.73L160.35 165.05L156.38 169.11L157.69 174.85L162.97 176.53ZM157.69 174.85L156.38 169.11L151.09 167.43L147.12 171.49L148.43 177.23L153.71 178.91ZM169.61 162.67L168.30 156.93L163.02 155.25L159.04 159.31L160.35 165.05L165.64 166.73ZM160.35 165.05L159.04 159.31L153.76 157.63L149.78 161.69L151.09 167.43L156.38 169.11ZM173.54 179.89L172.23 174.15L166.94 172.47L162.97 176.53L164.28 182.27L169.56 183.95ZM164.28 182.27L162.97 176.53L157.69 174.85L153.71 178.91L155.02 184.64L160.31 186.32ZM176.21 170.09L174.90 164.35L169.61 162.67L165.64 166.73L166.94 172.47L172.23 174.15ZM141.84 169.81L140.53 164.07L135.25 162.40L131.28 166.46L132.59 172.20L137.87 173.87ZM132.59 172.20L131.28 166.46L126.00 164.79L122.03 168.85L123.34 174.58L128.62 176.26ZM144.50 160.01L143.19 154.27L137.90 152.60L133.93 156.66L135.25 162.40L140.53 164.07ZM135.25 162.40L133.93 156.66L128.65 154.99L124.68 159.05L126.00 164.79L131.28 166.46ZM148.43 177.23L147.12 171.49L141.84 169.81L137.87 173.87L139.18 179.61L144.46 181.28ZM139.18 179.61L137.87 173.87L132.59 172.20L128.62 176.26L129.94 181.99L135.22 183.66ZM151.09 167.43L149.78 161.69L144.50 160.01L140.53 164.07L141.84 169.81L147.12 171.49ZM181.55 150.49L180.24 144.74L174.95 143.06L170.97 147.12L172.28 152.87L177.57 154.55ZM172.28 152.87L170.97 147.12L165.68 145.44L161.71 149.51L163.02 155.25L168.30 156.93ZM184.22 140.68L182.92 134.94L177.62 133.25L173.64 137.32L174.95 143.06L180.24 144.74ZM174.95 143.06L173.64 137.32L168.35 135.64L164.37 139.70L165.68 145.44L170.97 147.12ZM188.15 157.92L186.84 152.17L181.55 150.49L177.57 154.55L178.88 160.29L184.16 161.98ZM178.88 160.29L177.57 154.55L172.28 152.87L168.30 156.93L169.61 162.67L174.90 164.35ZM190.82 148.11L189.52 142.37L184.22 140.68L180.24 144.74L181.55 150.49L186.84 152.17ZM156.42 147.83L155.11 142.08L149.82 140.41L145.85 144.47L147.16 150.21L152.44 151.89ZM147.16 150.21L145.85 144.47L140.56 142.79L136.59 146.86L137.90 152.60L143.19 154.27ZM159.09 138.02L157.77 132.28L152.48 130.60L148.51 134.66L149.82 140.41L155.11 142.08ZM149.82 140.41L148.51 134.66L143.22 132.99L139.25 137.05L140.56 142.79L145.85 144.47ZM163.02 155.25L161.71 149.51L156.42 147.83L152.44 151.89L153.76 157.63L159.04 159.31ZM153.76 157.63L152.44 151.89L147.16 150.21L143.19 154.27L144.50 160.01L149.78 161.69ZM165.68 145.44L164.37 139.70L159.09 138.02L155.11 142.08L156.42 147.83L161.71 149.51ZM177.46 197.11L176.15 191.37L170.87 189.69L166.89 193.74L168.20 199.48L173.48 201.16ZM168.20 199.48L166.89 193.74L161.61 192.06L157.64 196.11L158.95 201.85L164.23 203.53ZM180.13 187.31L178.82 181.57L173.54 179.89L169.56 183.95L170.87 189.69L176.15 191.37ZM170.87 189.69L169.56 183.95L164.28 182.27L160.31 186.32L161.61 192.06L166.89 193.74ZM184.04 204.53L182.74 198.79L177.46 197.11L173.48 201.16L174.79 206.89L180.07 208.58ZM174.79 206.89L173.48 201.16L168.20 199.48L164.23 203.53L165.54 209.26L170.82 210.95ZM186.71 194.74L185.41 189.00L180.13 187.31L176.15 191.37L177.46 197.11L182.74 198.79ZM152.36 194.43L151.05 188.70L145.77 187.02L141.81 191.08L143.12 196.81L148.40 198.49ZM143.12 196.81L141.81 191.08L136.53 189.40L132.56 193.45L133.87 199.19L139.15 200.86ZM155.02 184.64L153.71 178.91L148.43 177.23L144.46 181.28L145.77 187.02L151.05 188.70ZM145.77 187.02L144.46 181.28L139.18 179.61L135.22 183.66L136.53 189.40L141.81 191.08ZM158.95 201.85L157.64 196.11L152.36 194.43L148.40 198.49L149.70 204.22L154.98 205.90ZM149.70 204.22L148.40 198.49L143.12 196.81L139.15 200.86L140.46 206.59L145.74 208.27ZM161.61 192.06L160.31 186.32L155.02 184.64L151.05 188.70L152.36 194.43L157.64 196.11ZM192.06 175.15L190.76 169.41L185.47 167.72L181.49 171.78L182.80 177.52L188.08 179.20ZM182.80 177.52L181.49 171.78L176.21 170.09L172.23 174.15L173.54 179.89L178.82 181.57ZM194.74 165.35L193.43 159.60L188.15 157.92L184.16 161.98L185.47 167.72L190.76 169.41ZM185.47 167.72L184.16 161.98L178.88 160.29L174.90 164.35L176.21 170.09L181.49 171.78ZM198.65 182.58L197.35 176.83L192.06 175.15L188.08 179.20L189.39 184.94L194.67 186.63ZM189.39 184.94L188.08 179.20L182.80 177.52L178.82 181.57L180.13 187.31L185.41 189.00ZM201.33 172.78L200.03 167.03L194.74 165.35L190.76 169.41L192.06 175.15L197.35 176.83ZM264.48 256.92L263.18 251.18L257.90 249.48L253.91 253.52L255.21 259.26L260.49 260.96ZM248.63 251.82L247.34 246.08L242.06 244.39L238.07 248.43L239.37 254.16L244.65 255.86ZM239.37 254.16L238.07 248.43L232.79 246.73L228.81 250.77L230.11 256.51L235.39 258.20ZM251.32 242.04L250.03 236.30L244.75 234.61L240.76 238.65L242.06 244.39L247.34 246.08ZM242.06 244.39L240.76 238.65L235.48 236.95L231.49 241.00L232.79 246.73L238.07 248.43ZM255.21 259.26L253.91 253.52L248.63 251.82L244.65 255.86L245.94 261.60L251.22 263.30ZM245.94 261.60L244.65 255.86L239.37 254.16L235.39 258.20L236.68 263.94L241.96 265.64ZM257.90 249.48L256.61 243.74L251.32 242.04L247.34 246.08L248.63 251.82L253.91 253.52ZM211.60 261.20L210.30 255.47L205.02 253.78L201.05 257.82L202.35 263.55L207.62 265.24ZM186.53 258.48L185.23 252.75L179.95 251.07L175.98 255.11L177.29 260.84L182.56 262.52ZM177.29 260.84L175.98 255.11L170.71 253.43L166.75 257.47L168.05 263.19L173.32 264.88ZM252.82 205.24L251.53 199.50L246.24 197.80L242.25 201.85L243.55 207.60L248.83 209.29ZM243.55 207.60L242.25 201.85L236.96 200.16L232.97 204.21L234.27 209.95L239.56 211.64ZM255.52 195.45L254.22 189.70L248.93 188.01L244.94 192.06L246.24 197.80L251.53 199.50ZM246.24 197.80L244.94 192.06L239.65 190.36L235.66 194.41L236.96 200.16L242.25 201.85ZM259.41 212.69L258.11 206.94L252.82 205.24L248.83 209.29L250.13 215.04L255.42 216.73ZM250.13 215.04L248.83 209.29L243.55 207.60L239.56 211.64L240.85 217.39L246.14 219.08ZM262.11 202.90L260.81 197.15L255.52 195.45L251.53 199.50L252.82 205.24L258.11 206.94ZM258.22 185.65L256.92 179.90L251.63 178.21L247.64 182.26L248.93 188.01L254.22 189.70ZM260.92 175.85L259.62 170.10L254.33 168.40L250.33 172.46L251.63 178.21L256.92 179.90ZM264.81 193.10L263.51 187.35L258.22 185.65L254.22 189.70L255.52 195.45L260.81 197.15ZM263.29 229.92L262.00 224.18L256.71 222.48L252.72 226.52L254.02 232.26L259.30 233.96ZM254.02 232.26L252.72 226.52L247.44 224.82L243.45 228.87L244.75 234.61L250.03 236.30ZM265.99 220.13L264.70 214.39L259.41 212.69L255.42 216.73L256.71 222.48L262.00 224.18ZM256.71 222.48L255.42 216.73L250.13 215.04L246.14 219.08L247.44 224.82L252.72 226.52ZM260.59 239.70L259.30 233.96L254.02 232.26L250.03 236.30L251.32 242.04L256.61 243.74ZM250.74 87.14L249.44 81.38L244.13 79.68L240.13 83.75L241.43 89.51L246.74 91.21ZM241.43 89.51L240.13 83.75L234.82 82.06L230.82 86.13L232.12 91.89L237.43 93.58ZM253.44 77.30L252.14 71.54L246.83 69.85L242.83 73.92L244.13 79.68L249.44 81.38ZM244.13 79.68L242.83 73.92L237.52 72.23L233.52 76.30L234.82 82.06L240.13 83.75ZM257.35 94.60L256.05 88.83L250.74 87.14L246.74 91.21L248.04 96.97L253.34 98.66ZM248.04 96.97L246.74 91.21L241.43 89.51L237.43 93.58L238.73 99.34L244.03 101.03ZM260.05 84.76L258.75 79.00L253.44 77.30L249.44 81.38L250.74 87.14L256.05 88.83ZM225.52 84.44L224.21 78.68L218.91 76.99L214.91 81.06L216.22 86.82L221.52 88.51ZM216.22 86.82L214.91 81.06L209.61 79.38L205.61 83.45L206.92 89.21L212.22 90.89ZM228.21 74.61L226.91 68.85L221.60 67.16L217.60 71.23L218.91 76.99L224.21 78.68ZM218.91 76.99L217.60 71.23L212.30 69.54L208.30 73.62L209.61 79.38L214.91 81.06ZM232.12 91.89L230.82 86.13L225.52 84.44L221.52 88.51L222.82 94.27L228.13 95.96ZM222.82 94.27L221.52 88.51L216.22 86.82L212.22 90.89L213.52 96.65L218.83 98.34ZM234.82 82.06L233.52 76.30L228.21 74.61L224.21 78.68L225.52 84.44L230.82 86.13ZM265.47 65.09L264.17 59.32L258.86 57.63L254.85 61.70L256.15 67.47L261.46 69.16ZM256.15 67.47L254.85 61.70L249.54 60.01L245.53 64.08L246.83 69.85L252.14 71.54ZM258.86 57.63L257.56 51.86L252.25 50.17L248.24 54.24L249.54 60.01L254.85 61.70ZM262.76 74.93L261.46 69.16L256.15 67.47L252.14 71.54L253.44 77.30L258.75 79.00ZM240.22 62.39L238.92 56.62L233.61 54.93L229.61 59.01L230.91 64.77L236.22 66.46ZM230.91 64.77L229.61 59.01L224.30 57.32L220.30 61.40L221.60 67.16L226.91 68.85ZM242.93 52.55L241.62 46.78L236.31 45.09L232.31 49.17L233.61 54.93L238.92 56.62ZM233.61 54.93L232.31 49.17L227.00 47.48L222.99 51.56L224.30 57.32L229.61 59.01ZM246.83 69.85L245.53 64.08L240.22 62.39L236.22 66.46L237.52 72.23L242.83 73.92ZM237.52 72.23L236.22 66.46L230.91 64.77L226.91 68.85L228.21 74.61L233.52 76.30ZM249.54 60.01L248.24 54.24L242.93 52.55L238.92 56.62L240.22 62.39L245.53 64.08ZM261.24 111.88L259.95 106.12L254.64 104.42L250.64 108.49L251.94 114.25L257.24 115.94ZM251.94 114.25L250.64 108.49L245.34 106.79L241.33 110.86L242.64 116.62L247.94 118.31ZM263.95 102.05L262.65 96.29L257.35 94.60L253.34 98.66L254.64 104.42L259.95 106.12ZM254.64 104.42L253.34 98.66L248.04 96.97L244.03 101.03L245.34 106.79L250.64 108.49ZM258.54 121.70L257.24 115.94L251.94 114.25L247.94 118.31L249.24 124.07L254.54 125.76ZM236.03 109.17L234.73 103.41L229.43 101.72L225.43 105.79L226.73 111.54L232.03 113.23ZM226.73 111.54L225.43 105.79L220.13 104.10L216.14 108.16L217.44 113.92L222.74 115.61ZM238.73 99.34L237.43 93.58L232.12 91.89L228.13 95.96L229.43 101.72L234.73 103.41ZM229.43 101.72L228.13 95.96L222.82 94.27L218.83 98.34L220.13 104.10L225.43 105.79ZM242.64 116.62L241.33 110.86L236.03 109.17L232.03 113.23L233.34 118.99L238.64 120.68ZM233.34 118.99L232.03 113.23L226.73 111.54L222.74 115.61L224.04 121.36L229.34 123.05ZM245.34 106.79L244.03 101.03L238.73 99.34L234.73 103.41L236.03 109.17L241.33 110.86ZM260.38 20.62L259.08 14.84L253.76 13.15L249.74 17.23L251.05 23.01L256.36 24.70ZM263.09 10.76L261.79 4.99L256.47 3.29L252.45 7.38L253.76 13.15L259.08 14.84ZM244.43 15.54L243.12 9.77L237.80 8.08L233.79 12.16L235.10 17.93L240.41 19.62ZM235.10 17.93L233.79 12.16L228.48 10.47L224.47 14.56L225.78 20.33L231.09 22.02ZM247.13 5.69L245.83 -0.09L240.51 -1.78L236.50 2.31L237.80 8.08L243.12 9.77ZM237.80 8.08L236.50 2.31L231.18 0.62L227.17 4.70L228.48 10.47L233.79 12.16ZM251.05 23.01L249.74 17.23L244.43 15.54L240.41 19.62L241.72 25.39L247.03 27.09ZM241.72 25.39L240.41 19.62L235.10 17.93L231.09 22.02L232.40 27.79L237.71 29.47ZM253.76 13.15L252.45 7.38L247.13 5.69L243.12 9.77L244.43 15.54L249.74 17.23ZM265.81 0.90L264.50 -4.87L259.18 -6.57L255.17 -2.48L256.47 3.29L261.79 4.99ZM256.47 3.29L255.17 -2.48L249.84 -4.17L245.83 -0.09L247.13 5.69L252.45 7.38ZM254.96 40.32L253.65 34.55L248.34 32.86L244.33 36.94L245.63 42.70L250.94 44.40ZM245.63 42.70L244.33 36.94L239.01 35.24L235.01 39.32L236.31 45.09L241.62 46.78ZM257.67 30.47L256.36 24.70L251.05 23.01L247.03 27.09L248.34 32.86L253.65 34.55ZM248.34 32.86L247.03 27.09L241.72 25.39L237.71 29.47L239.01 35.24L244.33 36.94ZM261.57 47.78L260.27 42.01L254.96 40.32L250.94 44.40L252.25 50.17L257.56 51.86ZM252.25 50.17L250.94 44.40L245.63 42.70L241.62 46.78L242.93 52.55L248.24 54.24ZM264.28 37.94L262.98 32.17L257.67 30.47L253.65 34.55L254.96 40.32L260.27 42.01ZM262.43 138.97L261.14 133.22L255.84 131.52L251.84 135.58L253.13 141.34L258.43 143.03ZM265.14 129.16L263.84 123.40L258.54 121.70L254.54 125.76L255.84 131.52L261.14 133.22ZM37.69 205.90L36.36 200.18L31.10 198.52L27.16 202.58L28.49 208.30L33.75 209.96ZM28.49 208.30L27.16 202.58L21.90 200.93L17.96 204.99L19.29 210.70L24.55 212.36ZM40.31 196.12L38.98 190.40L33.72 188.74L29.77 192.80L31.10 198.52L36.36 200.18ZM31.10 198.52L29.77 192.80L24.51 191.15L20.57 195.21L21.90 200.93L27.16 202.58ZM44.28 213.28L42.95 207.56L37.69 205.90L33.75 209.96L35.07 215.68L40.34 217.34ZM35.07 215.68L33.75 209.96L28.49 208.30L24.55 212.36L25.87 218.07L31.13 219.73ZM46.90 203.50L45.57 197.78L40.31 196.12L36.36 200.18L37.69 205.90L42.95 207.56ZM12.70 203.33L11.37 197.61L6.11 195.96L2.17 200.02L3.50 205.74L8.76 207.39ZM3.50 205.74L2.17 200.02L-3.09 198.37L-7.02 202.43L-5.69 208.14L-0.43 209.80ZM15.31 193.55L13.98 187.83L8.71 186.18L4.78 190.24L6.11 195.96L11.37 197.61ZM6.11 195.96L4.78 190.24L-0.49 188.59L-4.42 192.65L-3.09 198.37L2.17 200.02ZM19.29 210.70L17.96 204.99L12.70 203.33L8.76 207.39L10.09 213.10L15.35 214.76ZM10.09 213.10L8.76 207.39L3.50 205.74L-0.43 209.80L0.90 215.51L6.16 217.16ZM21.90 200.93L20.57 195.21L15.31 193.55L11.37 197.61L12.70 203.33L17.96 204.99ZM52.14 183.94L50.82 178.21L45.55 176.55L41.60 180.62L42.93 186.34L48.19 188.00ZM42.93 186.34L41.60 180.62L36.33 178.96L32.39 183.02L33.72 188.74L38.98 190.40ZM54.77 174.15L53.44 168.42L48.17 166.76L44.22 170.83L45.55 176.55L50.82 178.21ZM45.55 176.55L44.22 170.83L38.95 169.17L35.01 173.23L36.33 178.96L41.60 180.62ZM58.73 191.32L57.41 185.60L52.14 183.94L48.19 188.00L49.52 193.72L54.79 195.38ZM49.52 193.72L48.19 188.00L42.93 186.34L38.98 190.40L40.31 196.12L45.57 197.78ZM61.36 181.54L60.04 175.81L54.77 174.15L50.82 178.21L52.14 183.94L57.41 185.60ZM27.12 181.36L25.80 175.64L20.53 173.99L16.59 178.05L17.92 183.77L23.18 185.43ZM17.92 183.77L16.59 178.05L11.32 176.40L7.38 180.46L8.71 186.18L13.98 187.83ZM29.74 171.58L28.41 165.85L23.14 164.20L19.20 168.26L20.53 173.99L25.80 175.64ZM20.53 173.99L19.20 168.26L13.93 166.61L9.99 170.68L11.32 176.40L16.59 178.05ZM33.72 188.74L32.39 183.02L27.12 181.36L23.18 185.43L24.51 191.15L29.77 192.80ZM24.51 191.15L23.18 185.43L17.92 183.77L13.98 187.83L15.31 193.55L20.57 195.21ZM36.33 178.96L35.01 173.23L29.74 171.58L25.80 175.64L27.12 181.36L32.39 183.02ZM48.24 230.43L46.92 224.71L41.66 223.05L37.72 227.11L39.04 232.82L44.30 234.48ZM39.04 232.82L37.72 227.11L32.46 225.45L28.52 229.50L29.85 235.22L35.11 236.88ZM50.86 220.66L49.54 214.94L44.28 213.28L40.34 217.34L41.66 223.05L46.92 224.71ZM41.66 223.05L40.34 217.34L35.07 215.68L31.13 219.73L32.46 225.45L37.72 227.11ZM54.83 237.81L53.51 232.09L48.24 230.43L44.30 234.48L45.63 240.20L50.89 241.86ZM45.63 240.20L44.30 234.48L39.04 232.82L35.11 236.88L36.43 242.59L41.69 244.25ZM57.45 228.04L56.13 222.32L50.86 220.66L46.92 224.71L48.24 230.43L53.51 232.09ZM23.26 227.84L21.94 222.13L16.68 220.47L12.74 224.53L14.07 230.24L19.33 231.90ZM14.07 230.24L12.74 224.53L7.48 222.88L3.55 226.93L4.88 232.64L10.14 234.30ZM25.87 218.07L24.55 212.36L19.29 210.70L15.35 214.76L16.68 220.47L21.94 222.13ZM16.68 220.47L15.35 214.76L10.09 213.10L6.16 217.16L7.48 222.88L12.74 224.53ZM29.85 235.22L28.52 229.50L23.26 227.84L19.33 231.90L20.65 237.61L25.91 239.27ZM20.65 237.61L19.33 231.90L14.07 230.24L10.14 234.30L11.46 240.01L16.72 241.67ZM32.46 225.45L31.13 219.73L25.87 218.07L21.94 222.13L23.26 227.84L28.52 229.50ZM62.70 208.49L61.38 202.77L56.11 201.11L52.16 205.16L53.48 210.88L58.75 212.55ZM53.48 210.88L52.16 205.16L46.90 203.50L42.95 207.56L44.28 213.28L49.54 214.94ZM65.32 198.71L64.00 192.99L58.73 191.32L54.79 195.38L56.11 201.11L61.38 202.77ZM56.11 201.11L54.79 195.38L49.52 193.72L45.57 197.78L46.90 203.50L52.16 205.16ZM69.28 215.88L67.96 210.15L62.70 208.49L58.75 212.55L60.07 218.27L65.34 219.93ZM60.07 218.27L58.75 212.55L53.48 210.88L49.54 214.94L50.86 220.66L56.13 222.32ZM71.91 206.10L70.59 200.37L65.32 198.71L61.38 202.77L62.70 208.49L67.96 210.15ZM0.90 215.51L-0.43 209.80L-5.69 208.14L-9.62 212.20L-8.29 217.92L-3.03 219.57ZM4.88 232.64L3.55 226.93L-1.70 225.28L-5.63 229.34L-4.30 235.05L0.95 236.70ZM7.48 222.88L6.16 217.16L0.90 215.51L-3.03 219.57L-1.70 225.28L3.55 226.93ZM56.05 137.37L54.72 131.64L49.45 129.98L45.49 134.06L46.82 139.79L52.10 141.44ZM46.82 139.79L45.49 134.06L40.22 132.40L36.27 136.47L37.60 142.20L42.87 143.86ZM58.68 127.57L57.35 121.84L52.07 120.18L48.12 124.25L49.45 129.98L54.72 131.64ZM49.45 129.98L48.12 124.25L42.84 122.59L38.89 126.67L40.22 132.40L45.49 134.06ZM62.65 144.77L61.33 139.04L56.05 137.37L52.10 141.44L53.42 147.17L58.70 148.84ZM53.42 147.17L52.10 141.44L46.82 139.79L42.87 143.86L44.20 149.58L49.47 151.24ZM65.28 134.97L63.96 129.23L58.68 127.57L54.72 131.64L56.05 137.37L61.33 139.04ZM30.99 134.81L29.67 129.08L24.39 127.43L20.44 131.50L21.77 137.23L27.05 138.88ZM21.77 137.23L20.44 131.50L15.17 129.85L11.23 133.92L12.56 139.65L17.83 141.30ZM33.61 125.01L32.29 119.28L27.01 117.62L23.06 121.70L24.39 127.43L29.67 129.08ZM24.39 127.43L23.06 121.70L17.79 120.04L13.84 124.12L15.17 129.85L20.44 131.50ZM37.60 142.20L36.27 136.47L30.99 134.81L27.05 138.88L28.37 144.61L33.65 146.27ZM28.37 144.61L27.05 138.88L21.77 137.23L17.83 141.30L19.16 147.03L24.43 148.68ZM40.22 132.40L38.89 126.67L33.61 125.01L29.67 129.08L30.99 134.81L36.27 136.47ZM70.55 115.35L69.23 109.62L63.94 107.96L59.99 112.03L61.31 117.77L66.59 119.43ZM61.31 117.77L59.99 112.03L54.70 110.37L50.75 114.44L52.07 120.18L57.35 121.84ZM73.19 105.54L71.86 99.80L66.58 98.14L62.62 102.22L63.94 107.96L69.23 109.62ZM63.94 107.96L62.62 102.22L57.34 100.56L53.38 104.63L54.70 110.37L59.99 112.03ZM77.15 122.75L75.83 117.02L70.55 115.35L66.59 119.43L67.91 125.16L73.20 126.82ZM67.91 125.16L66.59 119.43L61.31 117.77L57.35 121.84L58.68 127.57L63.96 129.23ZM79.79 112.94L78.47 107.21L73.19 105.54L69.23 109.62L70.55 115.35L75.83 117.02ZM45.47 112.79L44.14 107.05L38.86 105.39L34.91 109.47L36.24 115.20L41.52 116.86ZM36.24 115.20L34.91 109.47L29.63 107.82L25.68 111.89L27.01 117.62L32.29 119.28ZM48.10 102.98L46.77 97.24L41.49 95.58L37.53 99.66L38.86 105.39L44.14 107.05ZM38.86 105.39L37.53 99.66L32.25 98.00L28.30 102.08L29.63 107.82L34.91 109.47ZM52.07 120.18L50.75 114.44L45.47 112.79L41.52 116.86L42.84 122.59L48.12 124.25ZM42.84 122.59L41.52 116.86L36.24 115.20L32.29 119.28L33.61 125.01L38.89 126.67ZM54.70 110.37L53.38 104.63L48.10 102.98L44.14 107.05L45.47 112.79L50.75 114.44ZM66.62 161.96L65.30 156.23L60.02 154.57L56.07 158.63L57.39 164.36L62.67 166.02ZM57.39 164.36L56.07 158.63L50.79 156.97L46.85 161.04L48.17 166.76L53.44 168.42ZM69.25 152.16L67.93 146.43L62.65 144.77L58.70 148.84L60.02 154.57L65.30 156.23ZM60.02 154.57L58.70 148.84L53.42 147.17L49.47 151.24L50.79 156.97L56.07 158.63ZM73.21 169.35L71.89 163.62L66.62 161.96L62.67 166.02L63.99 171.75L69.26 173.41ZM63.99 171.75L62.67 166.02L57.39 164.36L53.44 168.42L54.77 174.15L60.04 175.81ZM75.85 159.56L74.53 153.83L69.25 152.16L65.30 156.23L66.62 161.96L71.89 163.62ZM41.57 159.38L40.25 153.65L34.97 151.99L31.03 156.06L32.36 161.79L37.63 163.44ZM32.36 161.79L31.03 156.06L25.76 154.41L21.81 158.47L23.14 164.20L28.41 165.85ZM44.20 149.58L42.87 143.86L37.60 142.20L33.65 146.27L34.97 151.99L40.25 153.65ZM34.97 151.99L33.65 146.27L28.37 144.61L24.43 148.68L25.76 154.41L31.03 156.06ZM48.17 166.76L46.85 161.04L41.57 159.38L37.63 163.44L38.95 169.17L44.22 170.83ZM38.95 169.17L37.63 163.44L32.36 161.79L28.41 165.85L29.74 171.58L35.01 173.23ZM50.79 156.97L49.47 151.24L44.20 149.58L40.25 153.65L41.57 159.38L46.85 161.04ZM81.12 139.96L79.80 134.22L74.52 132.56L70.56 136.63L71.88 142.36L77.16 144.03ZM71.88 142.36L70.56 136.63L65.28 134.97L61.33 139.04L62.65 144.77L67.93 146.43ZM83.76 130.15L82.44 124.42L77.15 122.75L73.20 126.82L74.52 132.56L79.80 134.22ZM74.52 132.56L73.20 126.82L67.91 125.16L63.96 129.23L65.28 134.97L70.56 136.63ZM87.72 147.36L86.40 141.62L81.12 139.96L77.16 144.03L78.48 149.76L83.76 151.42ZM78.48 149.76L77.16 144.03L71.88 142.36L67.93 146.43L69.25 152.16L74.53 153.83ZM90.36 137.56L89.04 131.82L83.76 130.15L79.80 134.22L81.12 139.96L86.40 141.62ZM0.74 151.86L-0.60 146.14L-5.87 144.49L-9.80 148.56L-8.47 154.28L-3.20 155.93ZM5.95 132.27L4.62 126.54L-0.65 124.89L-4.59 128.97L-3.26 134.69L2.01 136.34ZM8.57 122.47L7.23 116.74L1.96 115.09L-1.98 119.16L-0.65 124.89L4.62 126.54ZM12.56 139.65L11.23 133.92L5.95 132.27L2.01 136.34L3.34 142.07L8.61 143.72ZM3.34 142.07L2.01 136.34L-3.26 134.69L-7.20 138.76L-5.87 144.49L-0.60 146.14ZM15.17 129.85L13.84 124.12L8.57 122.47L4.62 126.54L5.95 132.27L11.23 133.92ZM2.12 178.81L0.79 173.09L-4.48 171.44L-8.41 175.51L-7.08 181.22L-1.82 182.87ZM4.73 169.02L3.40 163.30L-1.87 161.65L-5.81 165.72L-4.48 171.44L0.79 173.09ZM8.71 186.18L7.38 180.46L2.12 178.81L-1.82 182.87L-0.49 188.59L4.78 190.24ZM11.32 176.40L9.99 170.68L4.73 169.02L0.79 173.09L2.12 178.81L7.38 180.46ZM16.54 156.82L15.22 151.10L9.94 149.44L6.00 153.51L7.33 159.23L12.60 160.89ZM7.33 159.23L6.00 153.51L0.74 151.86L-3.20 155.93L-1.87 161.65L3.40 163.30ZM19.16 147.03L17.83 141.30L12.56 139.65L8.61 143.72L9.94 149.44L15.22 151.10ZM9.94 149.44L8.61 143.72L3.34 142.07L-0.60 146.14L0.74 151.86L6.00 153.51ZM23.14 164.20L21.81 158.47L16.54 156.82L12.60 160.89L13.93 166.61L19.20 168.26ZM13.93 166.61L12.60 160.89L7.33 159.23L3.40 163.30L4.73 169.02L9.99 170.68ZM25.76 154.41L24.43 148.68L19.16 147.03L15.22 151.10L16.54 156.82L21.81 158.47ZM83.77 257.57L82.46 251.86L77.19 250.19L73.25 254.24L74.57 259.95L79.83 261.62ZM74.57 259.95L73.25 254.24L67.99 252.57L64.05 256.62L65.36 262.33L70.62 264.00ZM86.40 247.81L85.09 242.09L79.82 240.42L75.88 244.47L77.19 250.19L82.46 251.86ZM77.19 250.19L75.88 244.47L70.61 242.80L66.67 246.85L67.99 252.57L73.25 254.24ZM92.98 255.20L91.67 249.48L86.40 247.81L82.46 251.86L83.77 257.57L89.03 259.24ZM58.79 254.95L57.47 249.24L52.21 247.58L48.27 251.63L49.59 257.34L54.85 259.00ZM49.59 257.34L48.27 251.63L43.01 249.96L39.07 254.01L40.39 259.72L45.65 261.39ZM61.41 245.19L60.09 239.47L54.83 237.81L50.89 241.86L52.21 247.58L57.47 249.24ZM52.21 247.58L50.89 241.86L45.63 240.20L41.69 244.25L43.01 249.96L48.27 251.63ZM65.36 262.33L64.05 256.62L58.79 254.95L54.85 259.00L56.17 264.71L61.42 266.38ZM67.99 252.57L66.67 246.85L61.41 245.19L57.47 249.24L58.79 254.95L64.05 256.62ZM98.25 235.66L96.94 229.94L91.67 228.27L87.72 232.32L89.04 238.04L94.30 239.71ZM89.04 238.04L87.72 232.32L82.45 230.65L78.50 234.70L79.82 240.42L85.09 242.09ZM100.89 225.89L99.57 220.16L94.30 218.49L90.35 222.55L91.67 228.27L96.94 229.94ZM91.67 228.27L90.35 222.55L85.08 220.88L81.14 224.93L82.45 230.65L87.72 232.32ZM104.83 243.05L103.52 237.33L98.25 235.66L94.30 239.71L95.62 245.43L100.88 247.10ZM95.62 245.43L94.30 239.71L89.04 238.04L85.09 242.09L86.40 247.81L91.67 249.48ZM107.47 233.28L106.16 227.56L100.89 225.89L96.94 229.94L98.25 235.66L103.52 237.33ZM73.24 233.04L71.92 227.32L66.66 225.65L62.71 229.70L64.03 235.42L69.29 237.09ZM64.03 235.42L62.71 229.70L57.45 228.04L53.51 232.09L54.83 237.81L60.09 239.47ZM75.87 223.26L74.55 217.54L69.28 215.88L65.34 219.93L66.66 225.65L71.92 227.32ZM66.66 225.65L65.34 219.93L60.07 218.27L56.13 222.32L57.45 228.04L62.71 229.70ZM79.82 240.42L78.50 234.70L73.24 233.04L69.29 237.09L70.61 242.80L75.88 244.47ZM70.61 242.80L69.29 237.09L64.03 235.42L60.09 239.47L61.41 245.19L66.67 246.85ZM82.45 230.65L81.14 224.93L75.87 223.26L71.92 227.32L73.24 233.04L78.50 234.70ZM108.77 260.21L107.46 254.49L102.20 252.82L98.25 256.87L99.56 262.59L104.82 264.26ZM99.56 262.59L98.25 256.87L92.98 255.20L89.03 259.24L90.35 264.96L95.61 266.63ZM111.41 250.45L110.10 244.73L104.83 243.05L100.88 247.10L102.20 252.82L107.46 254.49ZM102.20 252.82L100.88 247.10L95.62 245.43L91.67 249.48L92.98 255.20L98.25 256.87ZM117.99 257.84L116.68 252.12L111.41 250.45L107.46 254.49L108.77 260.21L114.04 261.89ZM33.82 252.35L32.49 246.64L27.24 244.98L23.30 249.03L24.63 254.74L29.88 256.40ZM24.63 254.74L23.30 249.03L18.05 247.38L14.12 251.43L15.44 257.14L20.69 258.79ZM36.43 242.59L35.11 236.88L29.85 235.22L25.91 239.27L27.24 244.98L32.49 246.64ZM27.24 244.98L25.91 239.27L20.65 237.61L16.72 241.67L18.05 247.38L23.30 249.03ZM40.39 259.72L39.07 254.01L33.82 252.35L29.88 256.40L31.20 262.11L36.46 263.77ZM31.20 262.11L29.88 256.40L24.63 254.74L20.69 258.79L22.02 264.50L27.27 266.16ZM43.01 249.96L41.69 244.25L36.43 242.59L32.49 246.64L33.82 252.35L39.07 254.01ZM8.86 249.77L7.53 244.06L2.28 242.41L-1.65 246.46L-0.32 252.17L4.93 253.82ZM11.46 240.01L10.14 234.30L4.88 232.64L0.95 236.70L2.28 242.41L7.53 244.06ZM2.28 242.41L0.95 236.70L-4.30 235.05L-8.23 239.10L-6.90 244.81L-1.65 246.46ZM15.44 257.14L14.12 251.43L8.86 249.77L4.93 253.82L6.26 259.53L11.51 261.19ZM6.26 259.53L4.93 253.82L-0.32 252.17L-4.25 256.22L-2.92 261.93L2.33 263.58ZM18.05 247.38L16.72 241.67L11.46 240.01L7.53 244.06L8.86 249.77L14.12 251.43ZM102.22 189.15L100.91 183.42L95.63 181.75L91.67 185.81L92.99 191.53L98.26 193.20ZM92.99 191.53L91.67 185.81L86.40 184.14L82.45 188.20L83.76 193.92L89.04 195.59ZM104.86 179.36L103.55 173.63L98.27 171.96L94.31 176.02L95.63 181.75L100.91 183.42ZM95.63 181.75L94.31 176.02L89.04 174.35L85.08 178.41L86.40 184.14L91.67 185.81ZM108.81 196.55L107.50 190.82L102.22 189.15L98.26 193.20L99.58 198.93L104.85 200.60ZM99.58 198.93L98.26 193.20L92.99 191.53L89.04 195.59L90.35 201.32L95.63 202.99ZM111.46 186.76L110.14 181.03L104.86 179.36L100.91 183.42L102.22 189.15L107.50 190.82ZM77.17 186.53L75.85 180.81L70.58 179.14L66.63 183.20L67.95 188.93L73.22 190.59ZM67.95 188.93L66.63 183.20L61.36 181.54L57.41 185.60L58.73 191.32L64.00 192.99ZM79.81 176.74L78.49 171.01L73.21 169.35L69.26 173.41L70.58 179.14L75.85 180.81ZM70.58 179.14L69.26 173.41L63.99 171.75L60.04 175.81L61.36 181.54L66.63 183.20ZM83.76 193.92L82.45 188.20L77.17 186.53L73.22 190.59L74.54 196.32L79.81 197.98ZM74.54 196.32L73.22 190.59L67.95 188.93L64.00 192.99L65.32 198.71L70.59 200.37ZM86.40 184.14L85.08 178.41L79.81 176.74L75.85 180.81L77.17 186.53L82.45 188.20ZM116.75 167.17L115.44 161.44L110.16 159.77L106.19 163.83L107.51 169.56L112.79 171.24ZM107.51 169.56L106.19 163.83L100.91 162.16L96.95 166.22L98.27 171.96L103.55 173.63ZM119.40 157.38L118.08 151.64L112.80 149.97L108.84 154.03L110.16 159.77L115.44 161.44ZM110.16 159.77L108.84 154.03L103.56 152.36L99.60 156.43L100.91 162.16L106.19 163.83ZM123.34 174.58L122.03 168.85L116.75 167.17L112.79 171.24L114.10 176.97L119.38 178.64ZM114.10 176.97L112.79 171.24L107.51 169.56L103.55 173.63L104.86 179.36L110.14 181.03ZM126.00 164.79L124.68 159.05L119.40 157.38L115.44 161.44L116.75 167.17L122.03 168.85ZM91.68 164.56L90.36 158.82L85.08 157.16L81.12 161.22L82.44 166.95L87.72 168.62ZM82.44 166.95L81.12 161.22L75.85 159.56L71.89 163.62L73.21 169.35L78.49 171.01ZM94.32 154.76L93.00 149.03L87.72 147.36L83.76 151.42L85.08 157.16L90.36 158.82ZM85.08 157.16L83.76 151.42L78.48 149.76L74.53 153.83L75.85 159.56L81.12 161.22ZM98.27 171.96L96.95 166.22L91.68 164.56L87.72 168.62L89.04 174.35L94.31 176.02ZM89.04 174.35L87.72 168.62L82.44 166.95L78.49 171.01L79.81 176.74L85.08 178.41ZM100.91 162.16L99.60 156.43L94.32 154.76L90.36 158.82L91.68 164.56L96.95 166.22ZM112.76 213.73L111.44 208.00L106.17 206.33L102.21 210.38L103.53 216.11L108.80 217.78ZM103.53 216.11L102.21 210.38L96.94 208.71L92.99 212.77L94.30 218.49L99.57 220.16ZM115.40 203.95L114.09 198.22L108.81 196.55L104.85 200.60L106.17 206.33L111.44 208.00ZM106.17 206.33L104.85 200.60L99.58 198.93L95.63 202.99L96.94 208.71L102.21 210.38ZM119.34 221.13L118.03 215.40L112.76 213.73L108.80 217.78L110.11 223.51L115.38 225.18ZM110.11 223.51L108.80 217.78L103.53 216.11L99.57 220.16L100.89 225.89L106.16 227.56ZM121.99 211.35L120.67 205.62L115.40 203.95L111.44 208.00L112.76 213.73L118.03 215.40ZM87.72 211.10L86.40 205.38L81.13 203.71L77.18 207.76L78.50 213.49L83.77 215.15ZM78.50 213.49L77.18 207.76L71.91 206.10L67.96 210.15L69.28 215.88L74.55 217.54ZM90.35 201.32L89.04 195.59L83.76 193.92L79.81 197.98L81.13 203.71L86.40 205.38ZM81.13 203.71L79.81 197.98L74.54 196.32L70.59 200.37L71.91 206.10L77.18 207.76ZM94.30 218.49L92.99 212.77L87.72 211.10L83.77 215.15L85.08 220.88L90.35 222.55ZM85.08 220.88L83.77 215.15L78.50 213.49L74.55 217.54L75.87 223.26L81.14 224.93ZM96.94 208.71L95.63 202.99L90.35 201.32L86.40 205.38L87.72 211.10L92.99 212.77ZM127.29 191.78L125.97 186.05L120.69 184.37L116.73 188.43L118.05 194.16L123.32 195.84ZM118.05 194.16L116.73 188.43L111.46 186.76L107.50 190.82L108.81 196.55L114.09 198.22ZM129.94 181.99L128.62 176.26L123.34 174.58L119.38 178.64L120.69 184.37L125.97 186.05ZM120.69 184.37L119.38 178.64L114.10 176.97L110.14 181.03L111.46 186.76L116.73 188.43ZM133.87 199.19L132.56 193.45L127.29 191.78L123.32 195.84L124.64 201.57L129.91 203.24ZM124.64 201.57L123.32 195.84L118.05 194.16L114.09 198.22L115.40 203.95L120.67 205.62ZM136.53 189.40L135.22 183.66L129.94 181.99L125.97 186.05L127.29 191.78L132.56 193.45ZM139.38 51.78L138.06 46.03L132.76 44.36L128.78 48.44L130.10 54.19L135.39 55.86ZM130.10 54.19L128.78 48.44L123.48 46.77L119.50 50.85L120.82 56.60L126.12 58.27ZM142.04 41.95L140.73 36.19L135.42 34.52L131.44 38.60L132.76 44.36L138.06 46.03ZM132.76 44.36L131.44 38.60L126.14 36.93L122.16 41.01L123.48 46.77L128.78 48.44ZM145.99 59.21L144.68 53.46L139.38 51.78L135.39 55.86L136.71 61.62L142.01 63.29ZM136.71 61.62L135.39 55.86L130.10 54.19L126.12 58.27L127.43 64.02L132.73 65.70ZM148.66 49.38L147.35 43.62L142.04 41.95L138.06 46.03L139.38 51.78L144.68 53.46ZM114.20 49.18L112.88 43.43L107.58 41.76L103.61 45.85L104.93 51.60L110.23 53.27ZM104.93 51.60L103.61 45.85L98.31 44.18L94.34 48.27L95.66 54.01L100.96 55.68ZM116.86 39.35L115.54 33.59L110.24 31.92L106.26 36.01L107.58 41.76L112.88 43.43ZM107.58 41.76L106.26 36.01L100.96 34.34L96.99 38.43L98.31 44.18L103.61 45.85ZM120.82 56.60L119.50 50.85L114.20 49.18L110.23 53.27L111.55 59.02L116.84 60.68ZM111.55 59.02L110.23 53.27L104.93 51.60L100.96 55.68L102.28 61.43L107.57 63.10ZM123.48 46.77L122.16 41.01L116.86 39.35L112.88 43.43L114.20 49.18L119.50 50.85ZM154.00 29.70L152.69 23.94L147.38 22.26L143.40 26.35L144.71 32.11L150.02 33.78ZM144.71 32.11L143.40 26.35L138.09 24.67L134.11 28.76L135.42 34.52L140.73 36.19ZM156.68 19.85L155.36 14.09L150.05 12.41L146.07 16.50L147.38 22.26L152.69 23.94ZM147.38 22.26L146.07 16.50L140.76 14.83L136.77 18.92L138.09 24.67L143.40 26.35ZM160.62 37.13L159.31 31.37L154.00 29.70L150.02 33.78L151.33 39.54L156.63 41.21ZM151.33 39.54L150.02 33.78L144.71 32.11L140.73 36.19L142.04 41.95L147.35 43.62ZM163.30 27.29L161.98 21.53L156.68 19.85L152.69 23.94L154.00 29.70L159.31 31.37ZM128.80 27.09L127.48 21.33L122.18 19.66L118.20 23.75L119.52 29.51L124.82 31.18ZM119.52 29.51L118.20 23.75L112.90 22.08L108.92 26.17L110.24 31.92L115.54 33.59ZM131.47 17.24L130.15 11.49L124.84 9.82L120.86 13.90L122.18 19.66L127.48 21.33ZM122.18 19.66L120.86 13.90L115.56 12.24L111.58 16.33L112.90 22.08L118.20 23.75ZM135.42 34.52L134.11 28.76L128.80 27.09L124.82 31.18L126.14 36.93L131.44 38.60ZM126.14 36.93L124.82 31.18L119.52 29.51L115.54 33.59L116.86 39.35L122.16 41.01ZM138.09 24.67L136.77 18.92L131.47 17.24L127.48 21.33L128.80 27.09L134.11 28.76ZM149.94 76.47L148.62 70.72L143.33 69.04L139.34 73.12L140.66 78.87L145.96 80.55ZM140.66 78.87L139.34 73.12L134.05 71.45L130.07 75.53L131.39 81.28L136.68 82.95ZM152.61 66.64L151.29 60.89L145.99 59.21L142.01 63.29L143.33 69.04L148.62 70.72ZM143.33 69.04L142.01 63.29L136.71 61.62L132.73 65.70L134.05 71.45L139.34 73.12ZM156.55 83.90L155.23 78.15L149.94 76.47L145.96 80.55L147.27 86.30L152.57 87.97ZM147.27 86.30L145.96 80.55L140.66 78.87L136.68 82.95L138.00 88.70L143.29 90.37ZM159.22 74.07L157.91 68.32L152.61 66.64L148.62 70.72L149.94 76.47L155.23 78.15ZM124.77 73.85L123.46 68.10L118.16 66.43L114.19 70.51L115.50 76.26L120.80 77.93ZM115.50 76.26L114.19 70.51L108.89 68.84L104.92 72.92L106.24 78.67L111.53 80.34ZM127.43 64.02L126.12 58.27L120.82 56.60L116.84 60.68L118.16 66.43L123.46 68.10ZM118.16 66.43L116.84 60.68L111.55 59.02L107.57 63.10L108.89 68.84L114.19 70.51ZM131.39 81.28L130.07 75.53L124.77 73.85L120.80 77.93L122.12 83.68L127.41 85.35ZM122.12 83.68L120.80 77.93L115.50 76.26L111.53 80.34L112.85 86.09L118.14 87.76ZM134.05 71.45L132.73 65.70L127.43 64.02L123.46 68.10L124.77 73.85L130.07 75.53ZM164.57 54.40L163.25 48.65L157.95 46.97L153.96 51.05L155.28 56.81L160.58 58.48ZM155.28 56.81L153.96 51.05L148.66 49.38L144.68 53.46L145.99 59.21L151.29 60.89ZM167.24 44.57L165.93 38.81L160.62 37.13L156.63 41.21L157.95 46.97L163.25 48.65ZM157.95 46.97L156.63 41.21L151.33 39.54L147.35 43.62L148.66 49.38L153.96 51.05ZM171.18 61.84L169.87 56.08L164.57 54.40L160.58 58.48L161.89 64.24L167.19 65.92ZM161.89 64.24L160.58 58.48L155.28 56.81L151.29 60.89L152.61 66.64L157.91 68.32ZM173.86 52.00L172.55 46.24L167.24 44.57L163.25 48.65L164.57 54.40L169.87 56.08ZM74.49 68.68L73.17 62.94L67.88 61.28L63.91 65.36L65.24 71.10L70.53 72.76ZM65.24 71.10L63.91 65.36L58.62 63.70L54.66 67.78L55.99 73.52L61.28 75.18ZM77.13 58.85L75.81 53.11L70.52 51.45L66.55 55.53L67.88 61.28L73.17 62.94ZM67.88 61.28L66.55 55.53L61.26 53.87L57.30 57.96L58.62 63.70L63.91 65.36ZM81.11 76.09L79.78 70.34L74.49 68.68L70.53 72.76L71.85 78.50L77.14 80.17ZM71.85 78.50L70.53 72.76L65.24 71.10L61.28 75.18L62.60 80.92L67.89 82.58ZM83.75 66.26L82.43 60.52L77.13 58.85L73.17 62.94L74.49 68.68L79.78 70.34ZM49.37 66.12L48.05 60.38L42.76 58.73L38.80 62.81L40.13 68.55L45.42 70.21ZM40.13 68.55L38.80 62.81L33.51 61.16L29.56 65.24L30.89 70.98L36.17 72.63ZM52.01 56.30L50.68 50.55L45.39 48.90L41.43 52.98L42.76 58.73L48.05 60.38ZM42.76 58.73L41.43 52.98L36.14 51.33L32.18 55.42L33.51 61.16L38.80 62.81ZM55.99 73.52L54.66 67.78L49.37 66.12L45.42 70.21L46.74 75.95L52.03 77.60ZM46.74 75.95L45.42 70.21L40.13 68.55L36.17 72.63L37.50 78.37L42.79 80.03ZM58.62 63.70L57.30 57.96L52.01 56.30L48.05 60.38L49.37 66.12L54.66 67.78ZM89.04 46.60L87.72 40.85L82.42 39.19L78.45 43.27L79.78 49.02L85.07 50.69ZM79.78 49.02L78.45 43.27L73.16 41.61L69.19 45.70L70.52 51.45L75.81 53.11ZM91.69 36.77L90.37 31.01L85.07 29.35L81.10 33.44L82.42 39.19L87.72 40.85ZM82.42 39.19L81.10 33.44L75.80 31.78L71.83 35.87L73.16 41.61L78.45 43.27ZM95.66 54.01L94.34 48.27L89.04 46.60L85.07 50.69L86.40 56.43L91.69 58.10ZM86.40 56.43L85.07 50.69L79.78 49.02L75.81 53.11L77.13 58.85L82.43 60.52ZM98.31 44.18L96.99 38.43L91.69 36.77L87.72 40.85L89.04 46.60L94.34 48.27ZM63.90 44.04L62.57 38.29L57.28 36.63L53.31 40.72L54.64 46.47L59.93 48.13ZM54.64 46.47L53.31 40.72L48.02 39.07L44.06 43.15L45.39 48.90L50.68 50.55ZM66.54 34.21L65.21 28.46L59.92 26.80L55.95 30.89L57.28 36.63L62.57 38.29ZM57.28 36.63L55.95 30.89L50.66 29.23L46.69 33.32L48.02 39.07L53.31 40.72ZM70.52 51.45L69.19 45.70L63.90 44.04L59.93 48.13L61.26 53.87L66.55 55.53ZM61.26 53.87L59.93 48.13L54.64 46.47L50.68 50.55L52.01 56.30L57.30 57.96ZM73.16 41.61L71.83 35.87L66.54 34.21L62.57 38.29L63.90 44.04L69.19 45.70ZM85.08 93.31L83.75 87.57L78.46 85.91L74.50 89.99L75.82 95.73L81.11 97.39ZM75.82 95.73L74.50 89.99L69.21 88.32L65.25 92.40L66.58 98.14L71.86 99.80ZM87.72 83.49L86.40 77.75L81.11 76.09L77.14 80.17L78.46 85.91L83.75 87.57ZM78.46 85.91L77.14 80.17L71.85 78.50L67.89 82.58L69.21 88.32L74.50 89.99ZM91.68 100.72L90.36 94.98L85.08 93.31L81.11 97.39L82.43 103.13L87.72 104.80ZM82.43 103.13L81.11 97.39L75.82 95.73L71.86 99.80L73.19 105.54L78.47 107.21ZM94.33 90.90L93.01 85.16L87.72 83.49L83.75 87.57L85.08 93.31L90.36 94.98ZM59.97 90.74L58.64 85.00L53.36 83.34L49.40 87.42L50.73 93.16L56.01 94.82ZM50.73 93.16L49.40 87.42L44.11 85.77L40.16 89.85L41.49 95.58L46.77 97.24ZM62.60 80.92L61.28 75.18L55.99 73.52L52.03 77.60L53.36 83.34L58.64 85.00ZM53.36 83.34L52.03 77.60L46.74 75.95L42.79 80.03L44.11 85.77L49.40 87.42ZM66.58 98.14L65.25 92.40L59.97 90.74L56.01 94.82L57.34 100.56L62.62 102.22ZM57.34 100.56L56.01 94.82L50.73 93.16L46.77 97.24L48.10 102.98L53.38 104.63ZM69.21 88.32L67.89 82.58L62.60 80.92L58.64 85.00L59.97 90.74L65.25 92.40ZM99.63 71.26L98.30 65.51L93.01 63.84L89.04 67.93L90.36 73.67L95.66 75.34ZM90.36 73.67L89.04 67.93L83.75 66.26L79.78 70.34L81.11 76.09L86.40 77.75ZM102.28 61.43L100.96 55.68L95.66 54.01L91.69 58.10L93.01 63.84L98.30 65.51ZM93.01 63.84L91.69 58.10L86.40 56.43L82.43 60.52L83.75 66.26L89.04 67.93ZM106.24 78.67L104.92 72.92L99.63 71.26L95.66 75.34L96.98 81.08L102.27 82.75ZM96.98 81.08L95.66 75.34L90.36 73.67L86.40 77.75L87.72 83.49L93.01 85.16ZM108.89 68.84L107.57 63.10L102.28 61.43L98.30 65.51L99.63 71.26L104.92 72.92ZM168.66 7.59L167.34 1.82L162.03 0.15L158.04 4.24L159.35 10.00L164.66 11.68ZM159.35 10.00L158.04 4.24L152.73 2.56L148.74 6.65L150.05 12.41L155.36 14.09ZM171.34 -2.27L170.02 -8.03L164.71 -9.71L160.72 -5.62L162.03 0.15L167.34 1.82ZM162.03 0.15L160.72 -5.62L155.40 -7.29L151.41 -3.20L152.73 2.56L158.04 4.24ZM175.28 15.03L173.97 9.27L168.66 7.59L164.66 11.68L165.98 17.44L171.29 19.12ZM165.98 17.44L164.66 11.68L159.35 10.00L155.36 14.09L156.68 19.85L161.98 21.53ZM177.96 5.18L176.65 -0.59L171.34 -2.27L167.34 1.82L168.66 7.59L173.97 9.27ZM143.43 4.98L142.11 -0.78L136.80 -2.46L132.82 1.64L134.14 7.40L139.44 9.07ZM134.14 7.40L132.82 1.64L127.51 -0.03L123.52 4.06L124.84 9.82L130.15 11.49ZM136.80 -2.46L135.48 -8.22L130.18 -9.89L126.19 -5.80L127.51 -0.03L132.82 1.64ZM150.05 12.41L148.74 6.65L143.43 4.98L139.44 9.07L140.76 14.83L146.07 16.50ZM140.76 14.83L139.44 9.07L134.14 7.40L130.15 11.49L131.47 17.24L136.77 18.92ZM152.73 2.56L151.41 -3.20L146.10 -4.88L142.11 -0.78L143.43 4.98L148.74 6.65ZM93.02 -0.18L91.70 -5.94L86.39 -7.60L82.42 -3.51L83.74 2.25L89.04 3.91ZM83.74 2.25L82.42 -3.51L77.11 -5.17L73.14 -1.07L74.47 4.68L79.77 6.34ZM99.65 7.24L98.32 1.48L93.02 -0.18L89.04 3.91L90.37 9.67L95.67 11.33ZM90.37 9.67L89.04 3.91L83.74 2.25L79.77 6.34L81.09 12.09L86.39 13.76ZM102.30 -2.61L100.98 -8.37L95.68 -10.03L91.70 -5.94L93.02 -0.18L98.32 1.48ZM67.84 -2.73L66.51 -8.49L61.21 -10.14L57.24 -6.05L58.57 -0.30L63.87 1.36ZM58.57 -0.30L57.24 -6.05L51.94 -7.70L47.97 -3.61L49.30 2.14L54.60 3.80ZM74.47 4.68L73.14 -1.07L67.84 -2.73L63.87 1.36L65.20 7.11L70.50 8.77ZM65.20 7.11L63.87 1.36L58.57 -0.30L54.60 3.80L55.93 9.55L61.23 11.21ZM103.62 24.50L102.30 18.75L96.99 17.08L93.02 21.17L94.34 26.93L99.64 28.59ZM94.34 26.93L93.02 21.17L87.72 19.51L83.75 23.60L85.07 29.35L90.37 31.01ZM106.27 14.66L104.95 8.90L99.65 7.24L95.67 11.33L96.99 17.08L102.30 18.75ZM96.99 17.08L95.67 11.33L90.37 9.67L86.39 13.76L87.72 19.51L93.02 21.17ZM110.24 31.92L108.92 26.17L103.62 24.50L99.64 28.59L100.96 34.34L106.26 36.01ZM100.96 34.34L99.64 28.59L94.34 26.93L90.37 31.01L91.69 36.77L96.99 38.43ZM112.90 22.08L111.58 16.33L106.27 14.66L102.30 18.75L103.62 24.50L108.92 26.17ZM78.45 21.94L77.12 16.19L71.82 14.53L67.85 18.62L69.18 24.37L74.48 26.03ZM69.18 24.37L67.85 18.62L62.56 16.96L58.59 21.05L59.92 26.80L65.21 28.46ZM81.09 12.09L79.77 6.34L74.47 4.68L70.50 8.77L71.82 14.53L77.12 16.19ZM71.82 14.53L70.50 8.77L65.20 7.11L61.23 11.21L62.56 16.96L67.85 18.62ZM85.07 29.35L83.75 23.60L78.45 21.94L74.48 26.03L75.80 31.78L81.10 33.44ZM75.80 31.78L74.48 26.03L69.18 24.37L65.21 28.46L66.54 34.21L71.83 35.87ZM87.72 19.51L86.39 13.76L81.09 12.09L77.12 16.19L78.45 21.94L83.75 23.60ZM118.22 2.39L116.90 -3.37L111.59 -5.04L107.61 -0.95L108.93 4.81L114.24 6.48ZM108.93 4.81L107.61 -0.95L102.30 -2.61L98.32 1.48L99.65 7.24L104.95 8.90ZM124.84 9.82L123.52 4.06L118.22 2.39L114.24 6.48L115.56 12.24L120.86 13.90ZM115.56 12.24L114.24 6.48L108.93 4.81L104.95 8.90L106.27 14.66L111.58 16.33ZM127.51 -0.03L126.19 -5.80L120.88 -7.46L116.90 -3.37L118.22 2.39L123.52 4.06ZM185.65 103.80L184.34 98.05L179.05 96.37L175.06 100.44L176.37 106.19L181.67 107.87ZM176.37 106.19L175.06 100.44L169.77 98.76L165.78 102.83L167.09 108.58L172.39 110.26ZM188.33 93.98L187.02 88.23L181.73 86.54L177.74 90.62L179.05 96.37L184.34 98.05ZM179.05 96.37L177.74 90.62L172.44 88.93L168.45 93.01L169.77 98.76L175.06 100.44ZM192.26 111.24L190.95 105.49L185.65 103.80L181.67 107.87L182.98 113.62L188.27 115.31ZM182.98 113.62L181.67 107.87L176.37 106.19L172.39 110.26L173.70 116.01L178.99 117.69ZM194.94 101.42L193.63 95.66L188.33 93.98L184.34 98.05L185.65 103.80L190.95 105.49ZM160.49 101.15L159.17 95.40L153.88 93.72L149.90 97.80L151.21 103.54L156.51 105.22ZM151.21 103.54L149.90 97.80L144.61 96.12L140.63 100.19L141.94 105.94L147.23 107.62ZM163.16 91.33L161.85 85.58L156.55 83.90L152.57 87.97L153.88 93.72L159.17 95.40ZM153.88 93.72L152.57 87.97L147.27 86.30L143.29 90.37L144.61 96.12L149.90 97.80ZM167.09 108.58L165.78 102.83L160.49 101.15L156.51 105.22L157.82 110.97L163.11 112.65ZM157.82 110.97L156.51 105.22L151.21 103.54L147.23 107.62L148.55 113.36L153.84 115.04ZM169.77 98.76L168.45 93.01L163.16 91.33L159.17 95.40L160.49 101.15L165.78 102.83ZM200.31 81.76L199.00 76.01L193.70 74.32L189.71 78.40L191.02 84.15L196.32 85.84ZM191.02 84.15L189.71 78.40L184.41 76.71L180.42 80.79L181.73 86.54L187.02 88.23ZM203.00 71.93L201.69 66.17L196.38 64.49L192.39 68.56L193.70 74.32L199.00 76.01ZM193.70 74.32L192.39 68.56L187.09 66.88L183.10 70.96L184.41 76.71L189.71 78.40ZM206.92 89.21L205.61 83.45L200.31 81.76L196.32 85.84L197.62 91.59L202.92 93.28ZM197.62 91.59L196.32 85.84L191.02 84.15L187.02 88.23L188.33 93.98L193.63 95.66ZM209.61 79.38L208.30 73.62L203.00 71.93L199.00 76.01L200.31 81.76L205.61 83.45ZM175.12 79.11L173.80 73.35L168.50 71.67L164.52 75.75L165.83 81.50L171.13 83.18ZM165.83 81.50L164.52 75.75L159.22 74.07L155.23 78.15L156.55 83.90L161.85 85.58ZM177.79 69.28L176.48 63.52L171.18 61.84L167.19 65.92L168.50 71.67L173.80 73.35ZM168.50 71.67L167.19 65.92L161.89 64.24L157.91 68.32L159.22 74.07L164.52 75.75ZM181.73 86.54L180.42 80.79L175.12 79.11L171.13 83.18L172.44 88.93L177.74 90.62ZM172.44 88.93L171.13 83.18L165.83 81.50L161.85 85.58L163.16 91.33L168.45 93.01ZM184.41 76.71L183.10 70.96L177.79 69.28L173.80 73.35L175.12 79.11L180.42 80.79ZM196.18 128.49L194.87 122.74L189.58 121.06L185.59 125.12L186.90 130.87L192.19 132.56ZM186.90 130.87L185.59 125.12L180.30 123.44L176.32 127.51L177.62 133.25L182.92 134.94ZM198.86 118.68L197.56 112.92L192.26 111.24L188.27 115.31L189.58 121.06L194.87 122.74ZM189.58 121.06L188.27 115.31L182.98 113.62L178.99 117.69L180.30 123.44L185.59 125.12ZM202.78 135.93L201.47 130.18L196.18 128.49L192.19 132.56L193.50 138.30L198.79 139.99ZM193.50 138.30L192.19 132.56L186.90 130.87L182.92 134.94L184.22 140.68L189.52 142.37ZM205.46 126.11L204.16 120.36L198.86 118.68L194.87 122.74L196.18 128.49L201.47 130.18ZM171.02 125.82L169.71 120.08L164.42 118.40L160.44 122.46L161.75 128.21L167.04 129.89ZM161.75 128.21L160.44 122.46L155.15 120.79L151.17 124.85L152.48 130.60L157.77 132.28ZM173.70 116.01L172.39 110.26L167.09 108.58L163.11 112.65L164.42 118.40L169.71 120.08ZM164.42 118.40L163.11 112.65L157.82 110.97L153.84 115.04L155.15 120.79L160.44 122.46ZM177.62 133.25L176.32 127.51L171.02 125.82L167.04 129.89L168.35 135.64L173.64 137.32ZM168.35 135.64L167.04 129.89L161.75 128.21L157.77 132.28L159.09 138.02L164.37 139.70ZM180.30 123.44L178.99 117.69L173.70 116.01L169.71 120.08L171.02 125.82L176.32 127.51ZM210.84 106.48L209.53 100.72L204.23 99.03L200.24 103.10L201.55 108.86L206.84 110.54ZM201.55 108.86L200.24 103.10L194.94 101.42L190.95 105.49L192.26 111.24L197.56 112.92ZM213.52 96.65L212.22 90.89L206.92 89.21L202.92 93.28L204.23 99.03L209.53 100.72ZM204.23 99.03L202.92 93.28L197.62 91.59L193.63 95.66L194.94 101.42L200.24 103.10ZM217.44 113.92L216.14 108.16L210.84 106.48L206.84 110.54L208.15 116.30L213.45 117.98ZM208.15 116.30L206.84 110.54L201.55 108.86L197.56 112.92L198.86 118.68L204.16 120.36ZM220.13 104.10L218.83 98.34L213.52 96.65L209.53 100.72L210.84 106.48L216.14 108.16ZM120.76 120.55L119.44 114.81L114.15 113.14L110.18 117.21L111.50 122.95L116.79 124.62ZM111.50 122.95L110.18 117.21L104.90 115.54L100.93 119.61L102.25 125.35L107.53 127.02ZM123.41 110.74L122.09 104.99L116.81 103.32L112.83 107.39L114.15 113.14L119.44 114.81ZM114.15 113.14L112.83 107.39L107.55 105.72L103.58 109.80L104.90 115.54L110.18 117.21ZM127.36 127.96L126.04 122.22L120.76 120.55L116.79 124.62L118.10 130.36L123.39 132.03ZM118.10 130.36L116.79 124.62L111.50 122.95L107.53 127.02L108.85 132.76L114.14 134.43ZM130.02 118.15L128.70 112.41L123.41 110.74L119.44 114.81L120.76 120.55L126.04 122.22ZM95.65 117.94L94.33 112.20L89.04 110.54L85.08 114.61L86.40 120.35L91.68 122.01ZM86.40 120.35L85.08 114.61L79.79 112.94L75.83 117.02L77.15 122.75L82.44 124.42ZM98.29 108.13L96.97 102.39L91.68 100.72L87.72 104.80L89.04 110.54L94.33 112.20ZM89.04 110.54L87.72 104.80L82.43 103.13L78.47 107.21L79.79 112.94L85.08 114.61ZM102.25 125.35L100.93 119.61L95.65 117.94L91.68 122.01L93.00 127.75L98.28 129.42ZM93.00 127.75L91.68 122.01L86.40 120.35L82.44 124.42L83.76 130.15L89.04 131.82ZM104.90 115.54L103.58 109.80L98.29 108.13L94.33 112.20L95.65 117.94L100.93 119.61ZM135.33 98.52L134.02 92.77L128.73 91.10L124.75 95.17L126.07 100.92L131.36 102.59ZM126.07 100.92L124.75 95.17L119.46 93.50L115.49 97.58L116.81 103.32L122.09 104.99ZM138.00 88.70L136.68 82.95L131.39 81.28L127.41 85.35L128.73 91.10L134.02 92.77ZM128.73 91.10L127.41 85.35L122.12 83.68L118.14 87.76L119.46 93.50L124.75 95.17ZM141.94 105.94L140.63 100.19L135.33 98.52L131.36 102.59L132.67 108.34L137.97 110.01ZM132.67 108.34L131.36 102.59L126.07 100.92L122.09 104.99L123.41 110.74L128.70 112.41ZM144.61 96.12L143.29 90.37L138.00 88.70L134.02 92.77L135.33 98.52L140.63 100.19ZM110.20 95.91L108.88 90.16L103.59 88.49L99.62 92.57L100.94 98.31L106.23 99.98ZM100.94 98.31L99.62 92.57L94.33 90.90L90.36 94.98L91.68 100.72L96.97 102.39ZM112.85 86.09L111.53 80.34L106.24 78.67L102.27 82.75L103.59 88.49L108.88 90.16ZM103.59 88.49L102.27 82.75L96.98 81.08L93.01 85.16L94.33 90.90L99.62 92.57ZM116.81 103.32L115.49 97.58L110.20 95.91L106.23 99.98L107.55 105.72L112.83 107.39ZM107.55 105.72L106.23 99.98L100.94 98.31L96.97 102.39L98.29 108.13L103.58 109.80ZM119.46 93.50L118.14 87.76L112.85 86.09L108.88 90.16L110.20 95.91L115.49 97.58ZM131.30 145.18L129.99 139.44L124.70 137.77L120.74 141.84L122.05 147.58L127.33 149.25ZM122.05 147.58L120.74 141.84L115.45 140.17L111.49 144.23L112.80 149.97L118.08 151.64ZM133.96 135.38L132.65 129.64L127.36 127.96L123.39 132.03L124.70 137.77L129.99 139.44ZM124.70 137.77L123.39 132.03L118.10 130.36L114.14 134.43L115.45 140.17L120.74 141.84ZM137.90 152.60L136.59 146.86L131.30 145.18L127.33 149.25L128.65 154.99L133.93 156.66ZM128.65 154.99L127.33 149.25L122.05 147.58L118.08 151.64L119.40 157.38L124.68 159.05ZM140.56 142.79L139.25 137.05L133.96 135.38L129.99 139.44L131.30 145.18L136.59 146.86ZM106.20 142.56L104.89 136.82L99.60 135.16L95.64 139.22L96.96 144.96L102.24 146.63ZM96.96 144.96L95.64 139.22L90.36 137.56L86.40 141.62L87.72 147.36L93.00 149.03ZM108.85 132.76L107.53 127.02L102.25 125.35L98.28 129.42L99.60 135.16L104.89 136.82ZM99.60 135.16L98.28 129.42L93.00 127.75L89.04 131.82L90.36 137.56L95.64 139.22ZM112.80 149.97L111.49 144.23L106.20 142.56L102.24 146.63L103.56 152.36L108.84 154.03ZM103.56 152.36L102.24 146.63L96.96 144.96L93.00 149.03L94.32 154.76L99.60 156.43ZM115.45 140.17L114.14 134.43L108.85 132.76L104.89 136.82L106.20 142.56L111.49 144.23ZM145.88 123.18L144.57 117.43L139.28 115.76L135.30 119.83L136.62 125.57L141.91 127.24ZM136.62 125.57L135.30 119.83L130.02 118.15L126.04 122.22L127.36 127.96L132.65 129.64ZM148.55 113.36L147.23 107.62L141.94 105.94L137.97 110.01L139.28 115.76L144.57 117.43ZM139.28 115.76L137.97 110.01L132.67 108.34L128.70 112.41L130.02 118.15L135.30 119.83ZM152.48 130.60L151.17 124.85L145.88 123.18L141.91 127.24L143.22 132.99L148.51 134.66ZM143.22 132.99L141.91 127.24L136.62 125.57L132.65 129.64L133.96 135.38L139.25 137.05ZM155.15 120.79L153.84 115.04L148.55 113.36L144.57 117.43L145.88 123.18L151.17 124.85ZM204.45 34.97L203.14 29.20L197.83 27.52L193.83 31.60L195.14 37.36L200.45 39.05ZM195.14 37.36L193.83 31.60L188.52 29.92L184.53 34.00L185.84 39.76L191.14 41.45ZM207.14 25.12L205.83 19.35L200.52 17.67L196.52 21.75L197.83 27.52L203.14 29.20ZM197.83 27.52L196.52 21.75L191.21 20.07L187.21 24.15L188.52 29.92L193.83 31.60ZM211.07 42.42L209.76 36.65L204.45 34.97L200.45 39.05L201.76 44.81L207.07 46.50ZM201.76 44.81L200.45 39.05L195.14 37.36L191.14 41.45L192.46 47.21L197.76 48.89ZM213.76 32.57L212.45 26.80L207.14 25.12L203.14 29.20L204.45 34.97L209.76 36.65ZM179.22 32.32L177.91 26.56L172.60 24.88L168.61 28.96L169.92 34.72L175.23 36.40ZM169.92 34.72L168.61 28.96L163.30 27.29L159.31 31.37L160.62 37.13L165.93 38.81ZM181.90 22.47L180.59 16.71L175.28 15.03L171.29 19.12L172.60 24.88L177.91 26.56ZM172.60 24.88L171.29 19.12L165.98 17.44L161.98 21.53L163.30 27.29L168.61 28.96ZM185.84 39.76L184.53 34.00L179.22 32.32L175.23 36.40L176.54 42.16L181.84 43.84ZM176.54 42.16L175.23 36.40L169.92 34.72L165.93 38.81L167.24 44.57L172.55 46.24ZM188.52 29.92L187.21 24.15L181.90 22.47L177.91 26.56L179.22 32.32L184.53 34.00ZM219.15 12.87L217.85 7.10L212.53 5.41L208.53 9.50L209.84 15.27L215.15 16.95ZM209.84 15.27L208.53 9.50L203.21 7.82L199.21 11.90L200.52 17.67L205.83 19.35ZM221.85 3.01L220.55 -2.76L215.23 -4.44L211.22 -0.36L212.53 5.41L217.85 7.10ZM212.53 5.41L211.22 -0.36L205.91 -2.04L201.90 2.05L203.21 7.82L208.53 9.50ZM225.78 20.33L224.47 14.56L219.15 12.87L215.15 16.95L216.46 22.72L221.77 24.41ZM216.46 22.72L215.15 16.95L209.84 15.27L205.83 19.35L207.14 25.12L212.45 26.80ZM228.48 10.47L227.17 4.70L221.85 3.01L217.85 7.10L219.15 12.87L224.47 14.56ZM193.90 10.22L192.59 4.45L187.27 2.77L183.27 6.86L184.59 12.62L189.90 14.30ZM184.59 12.62L183.27 6.86L177.96 5.18L173.97 9.27L175.28 15.03L180.59 16.71ZM196.59 0.36L195.28 -5.41L189.96 -7.09L185.96 -3.00L187.27 2.77L192.59 4.45ZM187.27 2.77L185.96 -3.00L180.65 -4.68L176.65 -0.59L177.96 5.18L183.27 6.86ZM200.52 17.67L199.21 11.90L193.90 10.22L189.90 14.30L191.21 20.07L196.52 21.75ZM191.21 20.07L189.90 14.30L184.59 12.62L180.59 16.71L181.90 22.47L187.21 24.15ZM203.21 7.82L201.90 2.05L196.59 0.36L192.59 4.45L193.90 10.22L199.21 11.90ZM214.99 59.71L213.68 53.94L208.38 52.26L204.38 56.34L205.68 62.10L210.99 63.78ZM205.68 62.10L204.38 56.34L199.07 54.65L195.07 58.73L196.38 64.49L201.69 66.17ZM217.68 49.87L216.38 44.10L211.07 42.42L207.07 46.50L208.38 52.26L213.68 53.94ZM208.38 52.26L207.07 46.50L201.76 44.81L197.76 48.89L199.07 54.65L204.38 56.34ZM221.60 67.16L220.30 61.40L214.99 59.71L210.99 63.78L212.30 69.54L217.60 71.23ZM212.30 69.54L210.99 63.78L205.68 62.10L201.69 66.17L203.00 71.93L208.30 73.62ZM224.30 57.32L222.99 51.56L217.68 49.87L213.68 53.94L214.99 59.71L220.30 61.40ZM189.77 57.05L188.46 51.29L183.15 49.60L179.16 53.68L180.47 59.44L185.78 61.12ZM180.47 59.44L179.16 53.68L173.86 52.00L169.87 56.08L171.18 61.84L176.48 63.52ZM192.46 47.21L191.14 41.45L185.84 39.76L181.84 43.84L183.15 49.60L188.46 51.29ZM183.15 49.60L181.84 43.84L176.54 42.16L172.55 46.24L173.86 52.00L179.16 53.68ZM196.38 64.49L195.07 58.73L189.77 57.05L185.78 61.12L187.09 66.88L192.39 68.56ZM187.09 66.88L185.78 61.12L180.47 59.44L176.48 63.52L177.79 69.28L183.10 70.96ZM199.07 54.65L197.76 48.89L192.46 47.21L188.46 51.29L189.77 57.05L195.07 58.73ZM229.70 37.63L228.39 31.87L223.08 30.18L219.07 34.26L220.38 40.02L225.69 41.71ZM220.38 40.02L219.07 34.26L213.76 32.57L209.76 36.65L211.07 42.42L216.38 44.10ZM232.40 27.79L231.09 22.02L225.78 20.33L221.77 24.41L223.08 30.18L228.39 31.87ZM223.08 30.18L221.77 24.41L216.46 22.72L212.45 26.80L213.76 32.57L219.07 34.26ZM236.31 45.09L235.01 39.32L229.70 37.63L225.69 41.71L227.00 47.48L232.31 49.17ZM227.00 47.48L225.69 41.71L220.38 40.02L216.38 44.10L217.68 49.87L222.99 51.56ZM239.01 35.24L237.71 29.47L232.40 27.79L228.39 31.87L229.70 37.63L235.01 39.32ZM9.80 85.66L8.47 79.92L3.19 78.27L-0.76 82.36L0.57 88.09L5.85 89.74ZM0.57 88.09L-0.76 82.36L-6.04 80.71L-9.98 84.79L-8.65 90.52L-3.37 92.17ZM12.42 75.84L11.08 70.11L5.80 68.45L1.85 72.54L3.19 78.27L8.47 79.92ZM3.19 78.27L1.85 72.54L-3.43 70.89L-7.37 74.98L-6.04 80.71L-0.76 82.36ZM16.41 93.04L15.08 87.31L9.80 85.66L5.85 89.74L7.18 95.47L12.46 97.12ZM7.18 95.47L5.85 89.74L0.57 88.09L-3.37 92.17L-2.04 97.90L3.24 99.55ZM19.03 83.23L17.70 77.49L12.42 75.84L8.47 79.92L9.80 85.66L15.08 87.31ZM24.27 63.59L22.94 57.85L17.65 56.20L13.70 60.28L15.03 66.02L20.32 67.67ZM15.03 66.02L13.70 60.28L8.42 58.63L4.47 62.72L5.80 68.45L11.08 70.11ZM26.90 53.76L25.56 48.02L20.28 46.37L16.32 50.46L17.65 56.20L22.94 57.85ZM17.65 56.20L16.32 50.46L11.04 48.81L7.08 52.89L8.42 58.63L13.70 60.28ZM30.89 70.98L29.56 65.24L24.27 63.59L20.32 67.67L21.65 73.41L26.93 75.06ZM21.65 73.41L20.32 67.67L15.03 66.02L11.08 70.11L12.42 75.84L17.70 77.49ZM33.51 61.16L32.18 55.42L26.90 53.76L22.94 57.85L24.27 63.59L29.56 65.24ZM1.80 51.25L0.46 45.51L-4.82 43.86L-8.77 47.95L-7.43 53.69L-2.15 55.33ZM5.80 68.45L4.47 62.72L-0.82 61.07L-4.76 65.16L-3.43 70.89L1.85 72.54ZM8.42 58.63L7.08 52.89L1.80 51.25L-2.15 55.33L-0.82 61.07L4.47 62.72ZM20.40 110.24L19.07 104.51L13.79 102.85L9.85 106.93L11.18 112.66L16.46 114.31ZM11.18 112.66L9.85 106.93L4.57 105.28L0.63 109.36L1.96 115.09L7.23 116.74ZM23.02 100.43L21.69 94.70L16.41 93.04L12.46 97.12L13.79 102.85L19.07 104.51ZM13.79 102.85L12.46 97.12L7.18 95.47L3.24 99.55L4.57 105.28L9.85 106.93ZM27.01 117.62L25.68 111.89L20.40 110.24L16.46 114.31L17.79 120.04L23.06 121.70ZM17.79 120.04L16.46 114.31L11.18 112.66L7.23 116.74L8.57 122.47L13.84 124.12ZM29.63 107.82L28.30 102.08L23.02 100.43L19.07 104.51L20.40 110.24L25.68 111.89ZM1.96 115.09L0.63 109.36L-4.65 107.71L-8.59 111.79L-7.26 117.52L-1.98 119.16ZM4.57 105.28L3.24 99.55L-2.04 97.90L-5.98 101.98L-4.65 107.71L0.63 109.36ZM34.88 88.19L33.55 82.45L28.26 80.80L24.31 84.88L25.64 90.62L30.92 92.27ZM25.64 90.62L24.31 84.88L19.03 83.23L15.08 87.31L16.41 93.04L21.69 94.70ZM37.50 78.37L36.17 72.63L30.89 70.98L26.93 75.06L28.26 80.80L33.55 82.45ZM28.26 80.80L26.93 75.06L21.65 73.41L17.70 77.49L19.03 83.23L24.31 84.88ZM41.49 95.58L40.16 89.85L34.88 88.19L30.92 92.27L32.25 98.00L37.53 99.66ZM32.25 98.00L30.92 92.27L25.64 90.62L21.69 94.70L23.02 100.43L28.30 102.08ZM44.11 85.77L42.79 80.03L37.50 78.37L33.55 82.45L34.88 88.19L40.16 89.85ZM28.15 16.87L26.82 11.12L21.53 9.47L17.57 13.56L18.90 19.31L24.19 20.96ZM18.90 19.31L17.57 13.56L12.27 11.91L8.32 16.01L9.65 21.75L14.94 23.40ZM30.78 7.02L29.45 1.28L24.15 -0.37L20.19 3.72L21.53 9.47L26.82 11.12ZM21.53 9.47L20.19 3.72L14.90 2.07L10.94 6.17L12.27 11.91L17.57 13.56ZM34.78 24.26L33.45 18.52L28.15 16.87L24.19 20.96L25.53 26.70L30.82 28.36ZM25.53 26.70L24.19 20.96L18.90 19.31L14.94 23.40L16.28 29.14L21.57 30.80ZM37.41 14.43L36.08 8.68L30.78 7.02L26.82 11.12L28.15 16.87L33.45 18.52ZM3.03 14.36L1.69 8.62L-3.60 6.97L-7.55 11.07L-6.22 16.81L-0.93 18.46ZM5.65 4.52L4.31 -1.23L-0.98 -2.87L-4.94 1.23L-3.60 6.97L1.69 8.62ZM9.65 21.75L8.32 16.01L3.03 14.36L-0.93 18.46L0.41 24.20L5.70 25.85ZM0.41 24.20L-0.93 18.46L-6.22 16.81L-10.17 20.90L-8.83 26.64L-3.54 28.29ZM12.27 11.91L10.94 6.17L5.65 4.52L1.69 8.62L3.03 14.36L8.32 16.01ZM33.41 -2.82L32.08 -8.57L26.78 -10.22L22.82 -6.12L24.15 -0.37L29.45 1.28ZM49.30 2.14L47.97 -3.61L42.67 -5.26L38.71 -1.17L40.04 4.58L45.34 6.24ZM40.04 4.58L38.71 -1.17L33.41 -2.82L29.45 1.28L30.78 7.02L36.08 8.68ZM24.15 -0.37L22.82 -6.12L17.52 -7.77L13.56 -3.67L14.90 2.07L20.19 3.72ZM14.90 2.07L13.56 -3.67L8.27 -5.32L4.31 -1.23L5.65 4.52L10.94 6.17ZM38.77 41.50L37.44 35.75L32.15 34.10L28.19 38.19L29.52 43.93L34.81 45.59ZM29.52 43.93L28.19 38.19L22.90 36.54L18.94 40.63L20.28 46.37L25.56 48.02ZM41.40 31.66L40.07 25.92L34.78 24.26L30.82 28.36L32.15 34.10L37.44 35.75ZM32.15 34.10L30.82 28.36L25.53 26.70L21.57 30.80L22.90 36.54L28.19 38.19ZM45.39 48.90L44.06 43.15L38.77 41.50L34.81 45.59L36.14 51.33L41.43 52.98ZM36.14 51.33L34.81 45.59L29.52 43.93L25.56 48.02L26.90 53.76L32.18 55.42ZM48.02 39.07L46.69 33.32L41.40 31.66L37.44 35.75L38.77 41.50L44.06 43.15ZM13.66 38.98L12.32 33.24L7.03 31.59L3.08 35.68L4.42 41.42L9.70 43.07ZM4.42 41.42L3.08 35.68L-2.21 34.03L-6.16 38.12L-4.82 43.86L0.46 45.51ZM16.28 29.14L14.94 23.40L9.65 21.75L5.70 25.85L7.03 31.59L12.32 33.24ZM7.03 31.59L5.70 25.85L0.41 24.20L-3.54 28.29L-2.21 34.03L3.08 35.68ZM20.28 46.37L18.94 40.63L13.66 38.98L9.70 43.07L11.04 48.81L16.32 50.46ZM11.04 48.81L9.70 43.07L4.42 41.42L0.46 45.51L1.80 51.25L7.08 52.89ZM22.90 36.54L21.57 30.80L16.28 29.14L12.32 33.24L13.66 38.98L18.94 40.63ZM53.29 19.39L51.96 13.64L46.67 11.99L42.70 16.08L44.03 21.83L49.33 23.48ZM44.03 21.83L42.70 16.08L37.41 14.43L33.45 18.52L34.78 24.26L40.07 25.92ZM55.93 9.55L54.60 3.80L49.30 2.14L45.34 6.24L46.67 11.99L51.96 13.64ZM46.67 11.99L45.34 6.24L40.04 4.58L36.08 8.68L37.41 14.43L42.70 16.08ZM59.92 26.80L58.59 21.05L53.29 19.39L49.33 23.48L50.66 29.23L55.95 30.89ZM50.66 29.23L49.33 23.48L44.03 21.83L40.07 25.92L41.40 31.66L46.69 33.32ZM62.56 16.96L61.23 11.21L55.93 9.55L51.96 13.64L53.29 19.39L58.59 21.05ZM240.51 -1.78L239.20 -7.56L233.89 -9.24L229.87 -5.16L231.18 0.62L236.50 2.31ZM231.18 0.62L229.87 -5.16L224.56 -6.84L220.55 -2.76L221.85 3.01L227.17 4.70ZM205.91 -2.04L204.60 -7.81L199.28 -9.49L195.28 -5.41L196.59 0.36L201.90 2.05Z"/></svg>
