<svg xmlns="http://www.w3.org/2000/svg" width="256" height="256" viewBox="0 0 256 256"><path data-band="1" fill="#fde68a" fill-opacity="0.35" d="M256.87 207.50L255.60 201.83L250.39 200.12L246.46 204.08L247.73 209.75L252.94 211.46ZM259.53 197.88L258.26 192.21L253.04 190.50L249.11 194.46L250.39 200.12L255.60 201.83ZM250.39 200.12L249.11 194.46L243.90 192.75L239.97 196.70L241.25 202.37L246.46 204.08ZM263.36 214.88L262.08 209.21L256.87 207.50L252.94 211.46L254.22 217.12L259.43 218.83ZM254.22 217.12L252.94 211.46L247.73 209.75L243.80 213.70L245.08 219.36L250.29 221.07ZM266.02 205.26L264.74 199.59L259.53 197.88L255.60 201.83L256.87 207.50L262.08 209.21ZM258.05 234.11L256.77 228.45L251.56 226.74L247.64 230.69L248.91 236.35L254.12 238.06ZM260.70 224.50L259.43 218.83L254.22 217.12L250.29 221.07L251.56 226.74L256.77 228.45ZM264.53 241.49L263.25 235.83L258.05 234.11L254.12 238.06L255.39 243.72L260.60 245.44ZM242.43 228.98L241.15 223.32L235.95 221.61L232.02 225.56L233.30 231.22L238.50 232.93ZM233.30 231.22L232.02 225.56L226.82 223.85L222.89 227.81L224.17 233.47L229.38 235.17ZM245.08 219.36L243.80 213.70L238.60 211.99L234.67 215.95L235.95 221.61L241.15 223.32ZM248.91 236.35L247.64 230.69L242.43 228.98L238.50 232.93L239.78 238.59L244.98 240.30ZM239.78 238.59L238.50 232.93L233.30 231.22L229.38 235.17L230.65 240.83L235.86 242.54ZM251.56 226.74L250.29 221.07L245.08 219.36L241.15 223.32L242.43 228.98L247.64 230.69ZM203.30 247.56L202.01 241.91L196.82 240.21L192.90 244.16L194.18 249.81L199.38 251.51ZM194.18 249.81L192.90 244.16L187.70 242.46L183.79 246.41L185.08 252.06L190.27 253.76ZM209.77 254.92L208.49 249.27L203.30 247.56L199.38 251.51L200.66 257.17L205.86 258.87ZM200.66 257.17L199.38 251.51L194.18 249.81L190.27 253.76L191.55 259.41L196.75 261.12ZM212.41 245.32L211.13 239.66L205.93 237.96L202.01 241.91L203.30 247.56L208.49 249.27ZM178.60 244.71L177.31 239.06L172.11 237.36L168.20 241.31L169.49 246.96L174.69 248.66ZM185.08 252.06L183.79 246.41L178.60 244.71L174.69 248.66L175.97 254.31L181.16 256.01ZM175.97 254.31L174.69 248.66L169.49 246.96L165.58 250.91L166.87 256.56L172.06 258.26ZM187.70 242.46L186.42 236.80L181.22 235.10L177.31 239.06L178.60 244.71L183.79 246.41ZM224.17 233.47L222.89 227.81L217.69 226.10L213.77 230.05L215.05 235.71L220.25 237.42ZM215.05 235.71L213.77 230.05L208.57 228.35L204.65 232.30L205.93 237.96L211.13 239.66ZM216.25 262.28L214.97 256.63L209.77 254.92L205.86 258.87L207.14 264.52L212.33 266.23ZM252.74 253.33L251.46 247.67L246.26 245.96L242.34 249.91L243.61 255.57L248.81 257.28ZM243.61 255.57L242.34 249.91L237.13 248.20L233.21 252.15L234.49 257.80L239.69 259.51ZM255.39 243.72L254.12 238.06L248.91 236.35L244.98 240.30L246.26 245.96L251.46 247.67ZM246.26 245.96L244.98 240.30L239.78 238.59L235.86 242.54L237.13 248.20L242.34 249.91ZM259.22 260.70L257.94 255.04L252.74 253.33L248.81 257.28L250.09 262.94L255.29 264.65ZM250.09 262.94L248.81 257.28L243.61 255.57L239.69 259.51L240.96 265.17L246.16 266.88ZM261.87 251.10L260.60 245.44L255.39 243.72L251.46 247.67L252.74 253.33L257.94 255.04ZM228.01 250.44L226.73 244.78L221.53 243.07L217.61 247.02L218.89 252.68L224.09 254.39ZM218.89 252.68L217.61 247.02L212.41 245.32L208.49 249.27L209.77 254.92L214.97 256.63ZM230.65 240.83L229.38 235.17L224.17 233.47L220.25 237.42L221.53 243.07L226.73 244.78ZM221.53 243.07L220.25 237.42L215.05 235.71L211.13 239.66L212.41 245.32L217.61 247.02ZM234.49 257.80L233.21 252.15L228.01 250.44L224.09 254.39L225.37 260.04L230.57 261.75ZM225.37 260.04L224.09 254.39L218.89 252.68L214.97 256.63L216.25 262.28L221.45 263.99ZM237.13 248.20L235.86 242.54L230.65 240.83L226.73 244.78L228.01 250.44L233.21 252.15ZM139.59 263.33L138.30 257.68L133.11 255.99L129.21 259.94L130.50 265.59L135.69 267.28ZM148.68 261.07L147.39 255.43L142.20 253.73L138.30 257.68L139.59 263.33L144.78 265.02ZM56.63 257.22L55.33 251.58L50.15 249.91L46.27 253.86L47.57 259.50L52.75 261.17ZM47.57 259.50L46.27 253.86L41.09 252.19L37.21 256.14L38.51 261.78L43.69 263.45ZM38.51 261.78L37.21 256.14L32.03 254.47L28.16 258.43L29.46 264.06L34.64 265.73ZM191.55 259.41L190.27 253.76L185.08 252.06L181.16 256.01L182.45 261.66L187.64 263.36ZM182.45 261.66L181.16 256.01L175.97 254.31L172.06 258.26L173.35 263.91L178.54 265.61ZM166.87 256.56L165.58 250.91L160.39 249.22L156.48 253.17L157.77 258.82L162.96 260.51ZM157.77 258.82L156.48 253.17L151.29 251.47L147.39 255.43L148.68 261.07L153.87 262.77ZM4.89 261.32L3.58 255.69L-1.59 254.02L-5.46 257.98L-4.15 263.61L1.02 265.28ZM22.98 256.75L21.68 251.12L16.50 249.45L12.63 253.41L13.93 259.04L19.11 260.71ZM13.93 259.04L12.63 253.41L7.45 251.74L3.58 255.69L4.89 261.32L10.06 262.99ZM0.97 244.44L-0.34 238.81L-5.51 237.14L-9.38 241.10L-8.07 246.73L-2.90 248.40Z"/><path data-band="2" fill="#f97316" fill-opacity="0.35" d="M247.73 209.75L246.46 204.08L241.25 202.37L237.32 206.33L238.60 211.99L243.80 213.70ZM232.11 204.62L230.83 198.95L225.62 197.25L221.70 201.21L222.98 206.87L228.18 208.57ZM222.98 206.87L221.70 201.21L216.49 199.50L212.56 203.46L213.85 209.12L219.05 210.82ZM234.76 195.00L233.48 189.33L228.27 187.62L224.34 191.58L225.62 197.25L230.83 198.95ZM225.62 197.25L224.34 191.58L219.13 189.88L215.21 193.84L216.49 199.50L221.70 201.21ZM238.60 211.99L237.32 206.33L232.11 204.62L228.18 208.57L229.46 214.24L234.67 215.95ZM229.46 214.24L228.18 208.57L222.98 206.87L219.05 210.82L220.33 216.49L225.54 218.19ZM241.25 202.37L239.97 196.70L234.76 195.00L230.83 198.95L232.11 204.62L237.32 206.33ZM262.19 188.25L260.91 182.58L255.70 180.87L251.77 184.83L253.04 190.50L258.26 192.21ZM264.85 178.62L263.58 172.95L258.36 171.24L254.42 175.20L255.70 180.87L260.91 182.58ZM246.55 183.12L245.27 177.45L240.06 175.74L236.13 179.70L237.41 185.37L242.62 187.08ZM237.41 185.37L236.13 179.70L230.92 178.00L226.99 181.96L228.27 187.62L233.48 189.33ZM249.21 173.49L247.93 167.82L242.72 166.11L238.78 170.07L240.06 175.74L245.27 177.45ZM240.06 175.74L238.78 170.07L233.57 168.36L229.64 172.33L230.92 178.00L236.13 179.70ZM253.04 190.50L251.77 184.83L246.55 183.12L242.62 187.08L243.90 192.75L249.11 194.46ZM243.90 192.75L242.62 187.08L237.41 185.37L233.48 189.33L234.76 195.00L239.97 196.70ZM255.70 180.87L254.42 175.20L249.21 173.49L245.27 177.45L246.55 183.12L251.77 184.83ZM235.95 221.61L234.67 215.95L229.46 214.24L225.54 218.19L226.82 223.85L232.02 225.56ZM192.97 223.24L191.68 217.58L186.48 215.88L182.56 219.84L183.85 225.50L189.05 227.20ZM183.85 225.50L182.56 219.84L177.37 218.14L173.45 222.10L174.74 227.75L179.94 229.45ZM195.60 213.63L194.31 207.97L189.11 206.27L185.19 210.23L186.48 215.88L191.68 217.58ZM186.48 215.88L185.19 210.23L179.99 208.53L176.08 212.48L177.37 218.14L182.56 219.84ZM199.45 230.60L198.17 224.94L192.97 223.24L189.05 227.20L190.33 232.85L195.53 234.55ZM190.33 232.85L189.05 227.20L183.85 225.50L179.94 229.45L181.22 235.10L186.42 236.80ZM202.08 220.99L200.80 215.33L195.60 213.63L191.68 217.58L192.97 223.24L198.17 224.94ZM168.25 220.40L166.97 214.75L161.77 213.05L157.86 217.01L159.15 222.66L164.34 224.36ZM159.15 222.66L157.86 217.01L152.66 215.31L148.75 219.27L150.04 224.92L155.24 226.62ZM170.88 210.79L169.59 205.13L164.39 203.43L160.48 207.39L161.77 213.05L166.97 214.75ZM161.77 213.05L160.48 207.39L155.28 205.70L151.37 209.66L152.66 215.31L157.86 217.01ZM174.74 227.75L173.45 222.10L168.25 220.40L164.34 224.36L165.63 230.01L170.83 231.71ZM165.63 230.01L164.34 224.36L159.15 222.66L155.24 226.62L156.53 232.27L161.72 233.96ZM177.37 218.14L176.08 212.48L170.88 210.79L166.97 214.75L168.25 220.40L173.45 222.10ZM207.36 201.75L206.08 196.09L200.87 194.39L196.95 198.35L198.23 204.01L203.44 205.71ZM198.23 204.01L196.95 198.35L191.74 196.65L187.83 200.61L189.11 206.27L194.31 207.97ZM210.00 192.13L208.72 186.47L203.51 184.77L199.59 188.73L200.87 194.39L206.08 196.09ZM200.87 194.39L199.59 188.73L194.38 187.03L190.46 190.99L191.74 196.65L196.95 198.35ZM213.85 209.12L212.56 203.46L207.36 201.75L203.44 205.71L204.72 211.37L209.92 213.08ZM204.72 211.37L203.44 205.71L198.23 204.01L194.31 207.97L195.60 213.63L200.80 215.33ZM216.49 199.50L215.21 193.84L210.00 192.13L206.08 196.09L207.36 201.75L212.56 203.46ZM182.62 198.91L181.34 193.25L176.13 191.55L172.22 195.51L173.50 201.17L178.71 202.87ZM173.50 201.17L172.22 195.51L167.02 193.82L163.10 197.78L164.39 203.43L169.59 205.13ZM185.25 189.29L183.97 183.63L178.76 181.93L174.85 185.89L176.13 191.55L181.34 193.25ZM176.13 191.55L174.85 185.89L169.64 184.20L165.73 188.16L167.02 193.82L172.22 195.51ZM189.11 206.27L187.83 200.61L182.62 198.91L178.71 202.87L179.99 208.53L185.19 210.23ZM179.99 208.53L178.71 202.87L173.50 201.17L169.59 205.13L170.88 210.79L176.08 212.48ZM191.74 196.65L190.46 190.99L185.25 189.29L181.34 193.25L182.62 198.91L187.83 200.61ZM205.93 237.96L204.65 232.30L199.45 230.60L195.53 234.55L196.82 240.21L202.01 241.91ZM196.82 240.21L195.53 234.55L190.33 232.85L186.42 236.80L187.70 242.46L192.90 244.16ZM169.49 246.96L168.20 241.31L163.01 239.61L159.10 243.57L160.39 249.22L165.58 250.91ZM181.22 235.10L179.94 229.45L174.74 227.75L170.83 231.71L172.11 237.36L177.31 239.06ZM172.11 237.36L170.83 231.71L165.63 230.01L161.72 233.96L163.01 239.61L168.20 241.31ZM217.69 226.10L216.41 220.44L211.21 218.74L207.29 222.69L208.57 228.35L213.77 230.05ZM208.57 228.35L207.29 222.69L202.08 220.99L198.17 224.94L199.45 230.60L204.65 232.30ZM220.33 216.49L219.05 210.82L213.85 209.12L209.92 213.08L211.21 218.74L216.41 220.44ZM211.21 218.74L209.92 213.08L204.72 211.37L200.80 215.33L202.08 220.99L207.29 222.69ZM226.82 223.85L225.54 218.19L220.33 216.49L216.41 220.44L217.69 226.10L222.89 227.81ZM266.35 142.32L265.07 136.64L259.85 134.93L255.91 138.90L257.19 144.58L262.41 146.29ZM250.69 137.19L249.41 131.51L244.19 129.80L240.25 133.77L241.53 139.45L246.75 141.16ZM241.53 139.45L240.25 133.77L235.03 132.07L231.09 136.04L232.38 141.71L237.59 143.42ZM253.35 127.54L252.07 121.86L246.85 120.16L242.91 124.13L244.19 129.80L249.41 131.51ZM244.19 129.80L242.91 124.13L237.69 122.42L233.75 126.39L235.03 132.07L240.25 133.77ZM257.19 144.58L255.91 138.90L250.69 137.19L246.75 141.16L248.03 146.83L253.25 148.54ZM248.03 146.83L246.75 141.16L241.53 139.45L237.59 143.42L238.87 149.09L244.09 150.80ZM259.85 134.93L258.57 129.25L253.35 127.54L249.41 131.51L250.69 137.19L255.91 138.90ZM265.18 115.63L263.90 109.95L258.68 108.24L254.73 112.21L256.01 117.89L261.24 119.60ZM256.01 117.89L254.73 112.21L249.51 110.50L245.57 114.48L246.85 120.16L252.07 121.86ZM258.68 108.24L257.40 102.56L252.17 100.85L248.23 104.82L249.51 110.50L254.73 112.21ZM262.51 125.28L261.24 119.60L256.01 117.89L252.07 121.86L253.35 127.54L258.57 129.25ZM261.02 161.60L259.74 155.93L254.53 154.22L250.59 158.18L251.87 163.85L257.08 165.56ZM251.87 163.85L250.59 158.18L245.37 156.47L241.44 160.44L242.72 166.11L247.93 167.82ZM263.68 151.96L262.41 146.29L257.19 144.58L253.25 148.54L254.53 154.22L259.74 155.93ZM254.53 154.22L253.25 148.54L248.03 146.83L244.09 150.80L245.37 156.47L250.59 158.18ZM258.36 171.24L257.08 165.56L251.87 163.85L247.93 167.82L249.21 173.49L254.42 175.20ZM211.43 155.88L210.15 150.21L204.94 148.50L201.01 152.47L202.29 158.14L207.51 159.84ZM202.29 158.14L201.01 152.47L195.80 150.77L191.87 154.74L193.16 160.41L198.37 162.11ZM214.08 146.24L212.80 140.57L207.58 138.86L203.65 142.83L204.94 148.50L210.15 150.21ZM204.94 148.50L203.65 142.83L198.44 141.13L194.51 145.10L195.80 150.77L201.01 152.47ZM217.93 163.25L216.65 157.58L211.43 155.88L207.51 159.84L208.79 165.51L214.00 167.21ZM208.79 165.51L207.51 159.84L202.29 158.14L198.37 162.11L199.65 167.77L204.86 169.47ZM220.58 153.61L219.29 147.94L214.08 146.24L210.15 150.21L211.43 155.88L216.65 157.58ZM186.66 153.04L185.37 147.37L180.16 145.68L176.24 149.65L177.53 155.31L182.74 157.01ZM177.53 155.31L176.24 149.65L171.03 147.95L167.11 151.92L168.40 157.58L173.61 159.28ZM189.30 143.40L188.01 137.73L182.80 136.04L178.87 140.01L180.16 145.68L185.37 147.37ZM180.16 145.68L178.87 140.01L173.66 138.31L169.74 142.28L171.03 147.95L176.24 149.65ZM193.16 160.41L191.87 154.74L186.66 153.04L182.74 157.01L184.03 162.67L189.24 164.37ZM184.03 162.67L182.74 157.01L177.53 155.31L173.61 159.28L174.90 164.94L180.11 166.64ZM195.80 150.77L194.51 145.10L189.30 143.40L185.37 147.37L186.66 153.04L191.87 154.74ZM225.88 134.33L224.59 128.66L219.38 126.95L215.44 130.92L216.73 136.60L221.94 138.30ZM216.73 136.60L215.44 130.92L210.23 129.22L206.29 133.19L207.58 138.86L212.80 140.57ZM228.53 124.69L227.25 119.01L222.03 117.31L218.09 121.28L219.38 126.95L224.59 128.66ZM219.38 126.95L218.09 121.28L212.87 119.58L208.94 123.55L210.23 129.22L215.44 130.92ZM232.38 141.71L231.09 136.04L225.88 134.33L221.94 138.30L223.23 143.97L228.44 145.68ZM223.23 143.97L221.94 138.30L216.73 136.60L212.80 140.57L214.08 146.24L219.29 147.94ZM235.03 132.07L233.75 126.39L228.53 124.69L224.59 128.66L225.88 134.33L231.09 136.04ZM201.08 131.49L199.79 125.82L194.58 124.12L190.65 128.09L191.94 133.76L197.15 135.46ZM191.94 133.76L190.65 128.09L185.43 126.40L181.51 130.37L182.80 136.04L188.01 137.73ZM203.72 121.85L202.44 116.17L197.22 114.47L193.29 118.45L194.58 124.12L199.79 125.82ZM194.58 124.12L193.29 118.45L188.07 116.75L184.15 120.72L185.43 126.40L190.65 128.09ZM207.58 138.86L206.29 133.19L201.08 131.49L197.15 135.46L198.44 141.13L203.65 142.83ZM198.44 141.13L197.15 135.46L191.94 133.76L188.01 137.73L189.30 143.40L194.51 145.10ZM210.23 129.22L208.94 123.55L203.72 121.85L199.79 125.82L201.08 131.49L206.29 133.19ZM221.78 180.25L220.50 174.58L215.29 172.88L211.36 176.84L212.64 182.51L217.85 184.21ZM212.64 182.51L211.36 176.84L206.15 175.14L202.22 179.10L203.51 184.77L208.72 186.47ZM224.42 170.62L223.14 164.95L217.93 163.25L214.00 167.21L215.29 172.88L220.50 174.58ZM215.29 172.88L214.00 167.21L208.79 165.51L204.86 169.47L206.15 175.14L211.36 176.84ZM228.27 187.62L226.99 181.96L221.78 180.25L217.85 184.21L219.13 189.88L224.34 191.58ZM219.13 189.88L217.85 184.21L212.64 182.51L208.72 186.47L210.00 192.13L215.21 193.84ZM230.92 178.00L229.64 172.33L224.42 170.62L220.50 174.58L221.78 180.25L226.99 181.96ZM197.02 177.40L195.73 171.74L190.52 170.04L186.60 174.00L187.89 179.66L193.09 181.36ZM187.89 179.66L186.60 174.00L181.39 172.30L177.48 176.27L178.76 181.93L183.97 183.63ZM199.65 167.77L198.37 162.11L193.16 160.41L189.24 164.37L190.52 170.04L195.73 171.74ZM190.52 170.04L189.24 164.37L184.03 162.67L180.11 166.64L181.39 172.30L186.60 174.00ZM203.51 184.77L202.22 179.10L197.02 177.40L193.09 181.36L194.38 187.03L199.59 188.73ZM194.38 187.03L193.09 181.36L187.89 179.66L183.97 183.63L185.25 189.29L190.46 190.99ZM206.15 175.14L204.86 169.47L199.65 167.77L195.73 171.74L197.02 177.40L202.22 179.10ZM236.22 158.73L234.94 153.06L229.72 151.35L225.79 155.32L227.07 160.99L232.29 162.69ZM227.07 160.99L225.79 155.32L220.58 153.61L216.65 157.58L217.93 163.25L223.14 164.95ZM238.87 149.09L237.59 143.42L232.38 141.71L228.44 145.68L229.72 151.35L234.94 153.06ZM229.72 151.35L228.44 145.68L223.23 143.97L219.29 147.94L220.58 153.61L225.79 155.32ZM242.72 166.11L241.44 160.44L236.22 158.73L232.29 162.69L233.57 168.36L238.78 170.07ZM233.57 168.36L232.29 162.69L227.07 160.99L223.14 164.95L224.42 170.62L229.64 172.33ZM245.37 156.47L244.09 150.80L238.87 149.09L234.94 153.06L236.22 158.73L241.44 160.44ZM83.82 187.72L82.52 182.07L77.33 180.39L73.43 184.36L74.73 190.00L79.93 191.68ZM74.73 190.00L73.43 184.36L68.24 182.68L64.35 186.64L65.65 192.29L70.84 193.97ZM86.42 178.10L85.12 172.45L79.92 170.77L76.03 174.74L77.33 180.39L82.52 182.07ZM77.33 180.39L76.03 174.74L70.83 173.06L66.94 177.03L68.24 182.68L73.43 184.36ZM90.31 195.05L89.02 189.40L83.82 187.72L79.93 191.68L81.23 197.33L86.42 199.01ZM81.23 197.33L79.93 191.68L74.73 190.00L70.84 193.97L72.14 199.62L77.33 201.30ZM92.91 185.43L91.61 179.78L86.42 178.10L82.52 182.07L83.82 187.72L89.02 189.40ZM59.16 184.97L57.86 179.32L52.66 177.64L48.78 181.61L50.08 187.26L55.27 188.94ZM50.08 187.26L48.78 181.61L43.58 179.94L39.70 183.91L41.00 189.55L46.19 191.23ZM61.75 175.35L60.44 169.70L55.25 168.03L51.36 172.00L52.66 177.64L57.86 179.32ZM52.66 177.64L51.36 172.00L46.17 170.32L42.28 174.29L43.58 179.94L48.78 181.61ZM65.65 192.29L64.35 186.64L59.16 184.97L55.27 188.94L56.57 194.58L61.76 196.26ZM56.57 194.58L55.27 188.94L50.08 187.26L46.19 191.23L47.50 196.87L52.68 198.55ZM68.24 182.68L66.94 177.03L61.75 175.35L57.86 179.32L59.16 184.97L64.35 186.64ZM98.12 166.19L96.82 160.54L91.62 158.86L87.72 162.83L89.02 168.48L94.21 170.16ZM89.02 168.48L87.72 162.83L82.52 161.15L78.62 165.12L79.92 170.77L85.12 172.45ZM100.72 156.57L99.42 150.91L94.22 149.23L90.32 153.20L91.62 158.86L96.82 160.54ZM91.62 158.86L90.32 153.20L85.12 151.52L81.22 155.49L82.52 161.15L87.72 162.83ZM104.61 173.53L103.31 167.88L98.12 166.19L94.21 170.16L95.51 175.81L100.71 177.50ZM95.51 175.81L94.21 170.16L89.02 168.48L85.12 172.45L86.42 178.10L91.61 179.78ZM107.22 163.91L105.92 158.25L100.72 156.57L96.82 160.54L98.12 166.19L103.31 167.88ZM73.43 163.44L72.12 157.79L66.93 156.11L63.03 160.08L64.34 165.73L69.53 167.41ZM64.34 165.73L63.03 160.08L57.84 158.40L53.95 162.38L55.25 168.03L60.44 169.70ZM76.02 153.81L74.72 148.16L69.52 146.48L65.62 150.46L66.93 156.11L72.12 157.79ZM66.93 156.11L65.62 150.46L60.43 148.78L56.53 152.75L57.84 158.40L63.03 160.08ZM79.92 170.77L78.62 165.12L73.43 163.44L69.53 167.41L70.83 173.06L76.03 174.74ZM70.83 173.06L69.53 167.41L64.34 165.73L60.44 169.70L61.75 175.35L66.94 177.03ZM82.52 161.15L81.22 155.49L76.02 153.81L72.12 157.79L73.43 163.44L78.62 165.12ZM94.21 211.99L92.91 206.34L87.72 204.66L83.82 208.62L85.12 214.27L90.31 215.95ZM85.12 214.27L83.82 208.62L78.63 206.94L74.74 210.91L76.04 216.55L81.23 218.23ZM96.81 202.38L95.51 196.73L90.31 195.05L86.42 199.01L87.72 204.66L92.91 206.34ZM87.72 204.66L86.42 199.01L81.23 197.33L77.33 201.30L78.63 206.94L83.82 208.62ZM100.69 219.32L99.40 213.68L94.21 211.99L90.31 215.95L91.61 221.60L96.80 223.28ZM91.61 221.60L90.31 215.95L85.12 214.27L81.23 218.23L82.53 223.87L87.72 225.56ZM103.29 209.71L102.00 204.07L96.81 202.38L92.91 206.34L94.21 211.99L99.40 213.68ZM69.55 209.23L68.25 203.58L63.06 201.90L59.18 205.87L60.48 211.51L65.66 213.19ZM60.48 211.51L59.18 205.87L53.99 204.19L50.10 208.15L51.40 213.80L56.59 215.47ZM72.14 199.62L70.84 193.97L65.65 192.29L61.76 196.26L63.06 201.90L68.25 203.58ZM63.06 201.90L61.76 196.26L56.57 194.58L52.68 198.55L53.99 204.19L59.18 205.87ZM76.04 216.55L74.74 210.91L69.55 209.23L65.66 213.19L66.97 218.83L72.15 220.51ZM66.97 218.83L65.66 213.19L60.48 211.51L56.59 215.47L57.89 221.11L63.08 222.79ZM78.63 206.94L77.33 201.30L72.14 199.62L68.25 203.58L69.55 209.23L74.74 210.91ZM108.50 190.49L107.20 184.84L102.01 183.15L98.11 187.12L99.41 192.77L104.60 194.45ZM99.41 192.77L98.11 187.12L92.91 185.43L89.02 189.40L90.31 195.05L95.51 196.73ZM111.11 180.87L109.81 175.22L104.61 173.53L100.71 177.50L102.01 183.15L107.20 184.84ZM102.01 183.15L100.71 177.50L95.51 175.81L91.61 179.78L92.91 185.43L98.11 187.12ZM114.99 197.83L113.70 192.17L108.50 190.49L104.60 194.45L105.90 200.10L111.09 201.79ZM105.90 200.10L104.60 194.45L99.41 192.77L95.51 196.73L96.81 202.38L102.00 204.07ZM117.60 188.21L116.30 182.56L111.11 180.87L107.20 184.84L108.50 190.49L113.70 192.17ZM20.29 203.75L18.98 198.11L13.80 196.44L9.92 200.41L11.23 206.05L16.41 207.72ZM11.23 206.05L9.92 200.41L4.74 198.74L0.86 202.71L2.17 208.35L7.35 210.01ZM22.86 194.14L21.56 188.50L16.37 186.83L12.49 190.80L13.80 196.44L18.98 198.11ZM13.80 196.44L12.49 190.80L7.31 189.13L3.43 193.10L4.74 198.74L9.92 200.41ZM26.78 211.06L25.48 205.42L20.29 203.75L16.41 207.72L17.72 213.35L22.90 215.03ZM17.72 213.35L16.41 207.72L11.23 206.05L7.35 210.01L8.66 215.65L13.84 217.32ZM29.36 201.46L28.05 195.82L22.86 194.14L18.98 198.11L20.29 203.75L25.48 205.42ZM2.17 208.35L0.86 202.71L-4.32 201.04L-8.19 205.01L-6.88 210.64L-1.70 212.31ZM4.74 198.74L3.43 193.10L-1.76 191.44L-5.63 195.41L-4.32 201.04L0.86 202.71ZM34.51 182.24L33.20 176.59L28.01 174.92L24.13 178.89L25.44 184.53L30.63 186.21ZM25.44 184.53L24.13 178.89L18.94 177.22L15.06 181.19L16.37 186.83L21.56 188.50ZM37.09 172.62L35.78 166.97L30.59 165.30L26.71 169.27L28.01 174.92L33.20 176.59ZM28.01 174.92L26.71 169.27L21.52 167.60L17.63 171.58L18.94 177.22L24.13 178.89ZM41.00 189.55L39.70 183.91L34.51 182.24L30.63 186.21L31.93 191.85L37.12 193.52ZM31.93 191.85L30.63 186.21L25.44 184.53L21.56 188.50L22.86 194.14L28.05 195.82ZM43.58 179.94L42.28 174.29L37.09 172.62L33.20 176.59L34.51 182.24L39.70 183.91ZM9.87 179.52L8.57 173.88L3.38 172.21L-0.50 176.19L0.81 181.83L6.00 183.49ZM0.81 181.83L-0.50 176.19L-5.69 174.52L-9.56 178.49L-8.25 184.13L-3.07 185.80ZM12.44 169.91L11.14 164.26L5.95 162.60L2.07 166.57L3.38 172.21L8.57 173.88ZM3.38 172.21L2.07 166.57L-3.12 164.90L-7.00 168.88L-5.69 174.52L-0.50 176.19ZM16.37 186.83L15.06 181.19L9.87 179.52L6.00 183.49L7.31 189.13L12.49 190.80ZM7.31 189.13L6.00 183.49L0.81 181.83L-3.07 185.80L-1.76 191.44L3.43 193.10ZM18.94 177.22L17.63 171.58L12.44 169.91L8.57 173.88L9.87 179.52L15.06 181.19ZM30.70 227.97L29.39 222.34L24.21 220.66L20.33 224.63L21.64 230.26L26.82 231.93ZM21.64 230.26L20.33 224.63L15.15 222.95L11.28 226.92L12.58 232.55L17.76 234.22ZM33.27 218.37L31.97 212.73L26.78 211.06L22.90 215.03L24.21 220.66L29.39 222.34ZM24.21 220.66L22.90 215.03L17.72 213.35L13.84 217.32L15.15 222.95L20.33 224.63ZM37.18 235.28L35.88 229.65L30.70 227.97L26.82 231.93L28.12 237.57L33.30 239.24ZM28.12 237.57L26.82 231.93L21.64 230.26L17.76 234.22L19.07 239.86L24.25 241.53ZM39.76 225.68L38.45 220.05L33.27 218.37L29.39 222.34L30.70 227.97L35.88 229.65ZM6.10 225.25L4.79 219.61L-0.39 217.95L-4.26 221.91L-2.95 227.54L2.22 229.21ZM8.66 215.65L7.35 210.01L2.17 208.35L-1.70 212.31L-0.39 217.95L4.79 219.61ZM12.58 232.55L11.28 226.92L6.10 225.25L2.22 229.21L3.53 234.84L8.71 236.51ZM3.53 234.84L2.22 229.21L-2.95 227.54L-6.82 231.51L-5.51 237.14L-0.34 238.81ZM15.15 222.95L13.84 217.32L8.66 215.65L4.79 219.61L6.10 225.25L11.28 226.92ZM44.91 206.48L43.61 200.84L38.42 199.16L34.54 203.13L35.85 208.77L41.03 210.44ZM35.85 208.77L34.54 203.13L29.36 201.46L25.48 205.42L26.78 211.06L31.97 212.73ZM47.50 196.87L46.19 191.23L41.00 189.55L37.12 193.52L38.42 199.16L43.61 200.84ZM38.42 199.16L37.12 193.52L31.93 191.85L28.05 195.82L29.36 201.46L34.54 203.13ZM51.40 213.80L50.10 208.15L44.91 206.48L41.03 210.44L42.34 216.08L47.52 217.76ZM42.34 216.08L41.03 210.44L35.85 208.77L31.97 212.73L33.27 218.37L38.45 220.05ZM53.99 204.19L52.68 198.55L47.50 196.87L43.61 200.84L44.91 206.48L50.10 208.15ZM118.93 151.99L117.64 146.33L112.43 144.65L108.53 148.62L109.82 154.28L115.03 155.97ZM109.82 154.28L108.53 148.62L103.32 146.94L99.42 150.91L100.72 156.57L105.92 158.25ZM85.12 151.52L83.82 145.86L78.62 144.18L74.72 148.16L76.02 153.81L81.22 155.49ZM38.33 136.43L37.03 130.78L31.83 129.11L27.94 133.09L29.25 138.73L34.44 140.41ZM29.25 138.73L27.94 133.09L22.74 131.41L18.86 135.39L20.17 141.04L25.36 142.71ZM44.84 143.75L43.53 138.10L38.33 136.43L34.44 140.41L35.75 146.06L40.95 147.73ZM35.75 146.06L34.44 140.41L29.25 138.73L25.36 142.71L26.67 148.36L31.86 150.03ZM13.66 133.73L12.35 128.08L7.16 126.41L3.27 130.39L4.59 136.04L9.78 137.71ZM4.59 136.04L3.27 130.39L-1.92 128.73L-5.80 132.71L-4.49 138.35L0.70 140.02ZM7.16 126.41L5.85 120.76L0.65 119.09L-3.23 123.08L-1.92 128.73L3.27 130.39ZM20.17 141.04L18.86 135.39L13.66 133.73L9.78 137.71L11.09 143.35L16.28 145.02ZM11.09 143.35L9.78 137.71L4.59 136.04L0.70 140.02L2.01 145.66L7.21 147.33ZM48.75 160.70L47.45 155.05L42.25 153.38L38.36 157.35L39.67 163.00L44.86 164.67ZM39.67 163.00L38.36 157.35L33.17 155.68L29.28 159.66L30.59 165.30L35.78 166.97ZM51.34 151.08L50.03 145.43L44.84 143.75L40.95 147.73L42.25 153.38L47.45 155.05ZM42.25 153.38L40.95 147.73L35.75 146.06L31.86 150.03L33.17 155.68L38.36 157.35ZM55.25 168.03L53.95 162.38L48.75 160.70L44.86 164.67L46.17 170.32L51.36 172.00ZM46.17 170.32L44.86 164.67L39.67 163.00L35.78 166.97L37.09 172.62L42.28 174.29ZM57.84 158.40L56.53 152.75L51.34 151.08L47.45 155.05L48.75 160.70L53.95 162.38ZM24.09 157.98L22.78 152.34L17.59 150.67L13.71 154.64L15.02 160.29L20.21 161.96ZM15.02 160.29L13.71 154.64L8.52 152.98L4.64 156.95L5.95 162.60L11.14 164.26ZM26.67 148.36L25.36 142.71L20.17 141.04L16.28 145.02L17.59 150.67L22.78 152.34ZM17.59 150.67L16.28 145.02L11.09 143.35L7.21 147.33L8.52 152.98L13.71 154.64ZM30.59 165.30L29.28 159.66L24.09 157.98L20.21 161.96L21.52 167.60L26.71 169.27ZM21.52 167.60L20.21 161.96L15.02 160.29L11.14 164.26L12.44 169.91L17.63 171.58ZM33.17 155.68L31.86 150.03L26.67 148.36L22.78 152.34L24.09 157.98L29.28 159.66ZM129.24 239.05L127.95 233.41L122.75 231.72L118.86 235.67L120.15 241.32L125.34 243.01ZM120.15 241.32L118.86 235.67L113.67 233.99L109.77 237.94L111.06 243.59L116.25 245.28ZM131.85 229.45L130.55 223.80L125.36 222.11L121.46 226.07L122.75 231.72L127.95 233.41ZM122.75 231.72L121.46 226.07L116.27 224.38L112.37 228.34L113.67 233.99L118.86 235.67ZM135.72 246.39L134.43 240.75L129.24 239.05L125.34 243.01L126.63 248.66L131.82 250.35ZM126.63 248.66L125.34 243.01L120.15 241.32L116.25 245.28L117.54 250.92L122.73 252.61ZM138.33 236.79L137.04 231.14L131.85 229.45L127.95 233.41L129.24 239.05L134.43 240.75ZM104.58 236.26L103.29 230.61L98.10 228.93L94.20 232.88L95.50 238.53L100.69 240.21ZM95.50 238.53L94.20 232.88L89.01 231.20L85.12 235.16L86.42 240.80L91.61 242.48ZM107.18 226.65L105.89 221.01L100.69 219.32L96.80 223.28L98.10 228.93L103.29 230.61ZM98.10 228.93L96.80 223.28L91.61 221.60L87.72 225.56L89.01 231.20L94.20 232.88ZM111.06 243.59L109.77 237.94L104.58 236.26L100.69 240.21L101.98 245.86L107.17 247.54ZM101.98 245.86L100.69 240.21L95.50 238.53L91.61 242.48L92.90 248.13L98.09 249.81ZM113.67 233.99L112.37 228.34L107.18 226.65L103.29 230.61L104.58 236.26L109.77 237.94ZM143.56 217.58L142.27 211.93L137.07 210.23L133.17 214.19L134.46 219.84L139.65 221.54ZM134.46 219.84L133.17 214.19L127.97 212.50L124.07 216.46L125.36 222.11L130.55 223.80ZM146.17 207.97L144.88 202.31L139.68 200.62L135.78 204.58L137.07 210.23L142.27 211.93ZM137.07 210.23L135.78 204.58L130.58 202.89L126.68 206.85L127.97 212.50L133.17 214.19ZM150.04 224.92L148.75 219.27L143.56 217.58L139.65 221.54L140.94 227.19L146.14 228.88ZM140.94 227.19L139.65 221.54L134.46 219.84L130.55 223.80L131.85 229.45L137.04 231.14ZM152.66 215.31L151.37 209.66L146.17 207.97L142.27 211.93L143.56 217.58L148.75 219.27ZM118.87 214.77L117.58 209.13L112.39 207.44L108.49 211.40L109.78 217.05L114.98 218.73ZM109.78 217.05L108.49 211.40L103.29 209.71L99.40 213.68L100.69 219.32L105.89 221.01ZM121.48 205.16L120.19 199.51L114.99 197.83L111.09 201.79L112.39 207.44L117.58 209.13ZM112.39 207.44L111.09 201.79L105.90 200.10L102.00 204.07L103.29 209.71L108.49 211.40ZM125.36 222.11L124.07 216.46L118.87 214.77L114.98 218.73L116.27 224.38L121.46 226.07ZM116.27 224.38L114.98 218.73L109.78 217.05L105.89 221.01L107.18 226.65L112.37 228.34ZM127.97 212.50L126.68 206.85L121.48 205.16L117.58 209.13L118.87 214.77L124.07 216.46ZM142.20 253.73L140.91 248.09L135.72 246.39L131.82 250.35L133.11 255.99L138.30 257.68ZM133.11 255.99L131.82 250.35L126.63 248.66L122.73 252.61L124.02 258.25L129.21 259.94ZM114.94 260.51L113.65 254.87L108.46 253.18L104.57 257.14L105.86 262.78L111.05 264.47ZM105.86 262.78L104.57 257.14L99.38 255.45L95.49 259.40L96.79 265.04L101.97 266.73ZM117.54 250.92L116.25 245.28L111.06 243.59L107.17 247.54L108.46 253.18L113.65 254.87ZM108.46 253.18L107.17 247.54L101.98 245.86L98.09 249.81L99.38 255.45L104.57 257.14ZM124.02 258.25L122.73 252.61L117.54 250.92L113.65 254.87L114.94 260.51L120.13 262.20ZM153.91 241.87L152.62 236.22L147.43 234.53L143.52 238.48L144.81 244.13L150.00 245.83ZM144.81 244.13L143.52 238.48L138.33 236.79L134.43 240.75L135.72 246.39L140.91 248.09ZM156.53 232.27L155.24 226.62L150.04 224.92L146.14 228.88L147.43 234.53L152.62 236.22ZM147.43 234.53L146.14 228.88L140.94 227.19L137.04 231.14L138.33 236.79L143.52 238.48ZM160.39 249.22L159.10 243.57L153.91 241.87L150.00 245.83L151.29 251.47L156.48 253.17ZM151.29 251.47L150.00 245.83L144.81 244.13L140.91 248.09L142.20 253.73L147.39 255.43ZM163.01 239.61L161.72 233.96L156.53 232.27L152.62 236.22L153.91 241.87L159.10 243.57ZM65.69 254.94L64.39 249.31L59.21 247.63L55.33 251.58L56.63 257.22L61.81 258.90ZM68.28 245.35L66.98 239.71L61.79 238.03L57.91 241.99L59.21 247.63L64.39 249.31ZM59.21 247.63L57.91 241.99L52.73 240.31L48.85 244.27L50.15 249.91L55.33 251.58ZM72.17 262.26L70.87 256.62L65.69 254.94L61.81 258.90L63.11 264.53L68.29 266.21ZM74.76 252.67L73.46 247.03L68.28 245.35L64.39 249.31L65.69 254.94L70.87 256.62ZM41.09 252.19L39.79 246.55L34.61 244.88L30.73 248.84L32.03 254.47L37.21 256.14ZM32.03 254.47L30.73 248.84L25.55 247.16L21.68 251.12L22.98 256.75L28.16 258.43ZM43.67 242.59L42.36 236.96L37.18 235.28L33.30 239.24L34.61 244.88L39.79 246.55ZM34.61 244.88L33.30 239.24L28.12 237.57L24.25 241.53L25.55 247.16L30.73 248.84ZM50.15 249.91L48.85 244.27L43.67 242.59L39.79 246.55L41.09 252.19L46.27 253.86ZM79.94 233.48L78.64 227.83L73.45 226.15L69.56 230.11L70.86 235.75L76.05 237.43ZM70.86 235.75L69.56 230.11L64.38 228.43L60.49 232.39L61.79 238.03L66.98 239.71ZM82.53 223.87L81.23 218.23L76.04 216.55L72.15 220.51L73.45 226.15L78.64 227.83ZM73.45 226.15L72.15 220.51L66.97 218.83L63.08 222.79L64.38 228.43L69.56 230.11ZM86.42 240.80L85.12 235.16L79.94 233.48L76.05 237.43L77.35 243.07L82.53 244.76ZM77.35 243.07L76.05 237.43L70.86 235.75L66.98 239.71L68.28 245.35L73.46 247.03ZM89.01 231.20L87.72 225.56L82.53 223.87L78.64 227.83L79.94 233.48L85.12 235.16ZM55.31 230.71L54.01 225.08L48.82 223.40L44.94 227.36L46.24 233.00L51.43 234.68ZM46.24 233.00L44.94 227.36L39.76 225.68L35.88 229.65L37.18 235.28L42.36 236.96ZM57.89 221.11L56.59 215.47L51.40 213.80L47.52 217.76L48.82 223.40L54.01 225.08ZM48.82 223.40L47.52 217.76L42.34 216.08L38.45 220.05L39.76 225.68L44.94 227.36ZM61.79 238.03L60.49 232.39L55.31 230.71L51.43 234.68L52.73 240.31L57.91 241.99ZM52.73 240.31L51.43 234.68L46.24 233.00L42.36 236.96L43.67 242.59L48.85 244.27ZM64.38 228.43L63.08 222.79L57.89 221.11L54.01 225.08L55.31 230.71L60.49 232.39ZM90.31 257.72L89.01 252.08L83.83 250.40L79.94 254.35L81.24 259.99L86.42 261.67ZM81.24 259.99L79.94 254.35L74.76 252.67L70.87 256.62L72.17 262.26L77.35 263.94ZM92.90 248.13L91.61 242.48L86.42 240.80L82.53 244.76L83.83 250.40L89.01 252.08ZM83.83 250.40L82.53 244.76L77.35 243.07L73.46 247.03L74.76 252.67L79.94 254.35ZM99.38 255.45L98.09 249.81L92.90 248.13L89.01 252.08L90.31 257.72L95.49 259.40ZM147.54 171.76L146.25 166.10L141.04 164.41L137.13 168.38L138.42 174.03L143.63 175.73ZM138.42 174.03L137.13 168.38L131.93 166.69L128.02 170.65L129.31 176.31L134.51 178.00ZM150.16 162.13L148.87 156.47L143.66 154.78L139.75 158.75L141.04 164.41L146.25 166.10ZM141.04 164.41L139.75 158.75L134.54 157.06L130.63 161.03L131.93 166.69L137.13 168.38ZM154.03 179.11L152.74 173.45L147.54 171.76L143.63 175.73L144.92 181.38L150.12 183.08ZM144.92 181.38L143.63 175.73L138.42 174.03L134.51 178.00L135.81 183.66L141.01 185.35ZM156.65 169.49L155.36 163.82L150.16 162.13L146.25 166.10L147.54 171.76L152.74 173.45ZM122.82 168.97L121.52 163.31L116.32 161.62L112.42 165.59L113.71 171.25L118.91 172.93ZM113.71 171.25L112.42 165.59L107.22 163.91L103.31 167.88L104.61 173.53L109.81 175.22ZM125.43 159.34L124.14 153.68L118.93 151.99L115.03 155.97L116.32 161.62L121.52 163.31ZM116.32 161.62L115.03 155.97L109.82 154.28L105.92 158.25L107.22 163.91L112.42 165.59ZM129.31 176.31L128.02 170.65L122.82 168.97L118.91 172.93L120.21 178.59L125.41 180.28ZM120.21 178.59L118.91 172.93L113.71 171.25L109.81 175.22L111.11 180.87L116.30 182.56ZM131.93 166.69L130.63 161.03L125.43 159.34L121.52 163.31L122.82 168.97L128.02 170.65ZM161.90 150.22L160.61 144.56L155.40 142.87L151.49 146.84L152.78 152.50L157.99 154.19ZM152.78 152.50L151.49 146.84L146.28 145.15L142.37 149.12L143.66 154.78L148.87 156.47ZM164.53 140.59L163.24 134.92L158.03 133.23L154.11 137.20L155.40 142.87L160.61 144.56ZM155.40 142.87L154.11 137.20L148.90 135.51L144.99 139.48L146.28 145.15L151.49 146.84ZM168.40 157.58L167.11 151.92L161.90 150.22L157.99 154.19L159.28 159.86L164.48 161.55ZM159.28 159.86L157.99 154.19L152.78 152.50L148.87 156.47L150.16 162.13L155.36 163.82ZM171.03 147.95L169.74 142.28L164.53 140.59L160.61 144.56L161.90 150.22L167.11 151.92ZM137.16 147.43L135.87 141.77L130.66 140.08L126.75 144.05L128.04 149.71L133.25 151.40ZM128.04 149.71L126.75 144.05L121.54 142.36L117.64 146.33L118.93 151.99L124.14 153.68ZM139.78 137.79L138.49 132.13L133.28 130.44L129.37 134.41L130.66 140.08L135.87 141.77ZM130.66 140.08L129.37 134.41L124.16 132.73L120.25 136.70L121.54 142.36L126.75 144.05ZM143.66 154.78L142.37 149.12L137.16 147.43L133.25 151.40L134.54 157.06L139.75 158.75ZM134.54 157.06L133.25 151.40L128.04 149.71L124.14 153.68L125.43 159.34L130.63 161.03ZM146.28 145.15L144.99 139.48L139.78 137.79L135.87 141.77L137.16 147.43L142.37 149.12ZM157.90 196.08L156.61 190.43L151.41 188.73L147.50 192.70L148.79 198.35L153.99 200.04ZM148.79 198.35L147.50 192.70L142.30 191.00L138.39 194.97L139.68 200.62L144.88 202.31ZM160.52 186.46L159.23 180.80L154.03 179.11L150.12 183.08L151.41 188.73L156.61 190.43ZM151.41 188.73L150.12 183.08L144.92 181.38L141.01 185.35L142.30 191.00L147.50 192.70ZM164.39 203.43L163.10 197.78L157.90 196.08L153.99 200.04L155.28 205.70L160.48 207.39ZM155.28 205.70L153.99 200.04L148.79 198.35L144.88 202.31L146.17 207.97L151.37 209.66ZM167.02 193.82L165.73 188.16L160.52 186.46L156.61 190.43L157.90 196.08L163.10 197.78ZM133.19 193.28L131.90 187.62L126.70 185.93L122.80 189.90L124.09 195.55L129.29 197.24ZM124.09 195.55L122.80 189.90L117.60 188.21L113.70 192.17L114.99 197.83L120.19 199.51ZM135.81 183.66L134.51 178.00L129.31 176.31L125.41 180.28L126.70 185.93L131.90 187.62ZM126.70 185.93L125.41 180.28L120.21 178.59L116.30 182.56L117.60 188.21L122.80 189.90ZM139.68 200.62L138.39 194.97L133.19 193.28L129.29 197.24L130.58 202.89L135.78 204.58ZM130.58 202.89L129.29 197.24L124.09 195.55L120.19 199.51L121.48 205.16L126.68 206.85ZM142.30 191.00L141.01 185.35L135.81 183.66L131.90 187.62L133.19 193.28L138.39 194.97ZM172.27 174.57L170.98 168.91L165.77 167.21L161.86 171.18L163.15 176.84L168.35 178.54ZM163.15 176.84L161.86 171.18L156.65 169.49L152.74 173.45L154.03 179.11L159.23 180.80ZM174.90 164.94L173.61 159.28L168.40 157.58L164.48 161.55L165.77 167.21L170.98 168.91ZM165.77 167.21L164.48 161.55L159.28 159.86L155.36 163.82L156.65 169.49L161.86 171.18ZM178.76 181.93L177.48 176.27L172.27 174.57L168.35 178.54L169.64 184.20L174.85 185.89ZM169.64 184.20L168.35 178.54L163.15 176.84L159.23 180.80L160.52 186.46L165.73 188.16ZM181.39 172.30L180.11 166.64L174.90 164.94L170.98 168.91L172.27 174.57L177.48 176.27ZM260.17 71.86L258.89 66.18L253.66 64.47L249.71 68.45L250.99 74.13L256.22 75.84ZM262.84 62.20L261.56 56.51L256.32 54.80L252.37 58.78L253.66 64.47L258.89 66.18ZM229.99 88.34L228.70 82.66L223.48 80.96L219.54 84.94L220.82 90.62L226.05 92.32ZM220.82 90.62L219.54 84.94L214.31 83.23L210.38 87.21L211.66 92.89L216.89 94.59ZM232.64 78.68L231.36 73.00L226.13 71.29L222.19 75.27L223.48 80.96L228.70 82.66ZM223.48 80.96L222.19 75.27L216.97 73.57L213.03 77.55L214.31 83.23L219.54 84.94ZM236.50 95.73L235.21 90.05L229.99 88.34L226.05 92.32L227.33 98.00L232.55 99.70ZM227.33 98.00L226.05 92.32L220.82 90.62L216.89 94.59L218.17 100.27L223.39 101.98ZM239.15 86.07L237.87 80.39L232.64 78.68L228.70 82.66L229.99 88.34L235.21 90.05ZM205.15 85.51L203.87 79.83L198.64 78.13L194.71 82.12L196.00 87.79L201.22 89.49ZM211.66 92.89L210.38 87.21L205.15 85.51L201.22 89.49L202.51 95.17L207.73 96.87ZM202.51 95.17L201.22 89.49L196.00 87.79L192.07 91.77L193.35 97.45L198.57 99.15ZM214.31 83.23L213.03 77.55L207.80 75.85L203.87 79.83L205.15 85.51L210.38 87.21ZM244.48 66.74L243.19 61.05L237.96 59.35L234.02 63.33L235.30 69.02L240.53 70.72ZM235.30 69.02L234.02 63.33L228.79 61.63L224.85 65.61L226.13 71.29L231.36 73.00ZM247.14 57.07L245.86 51.38L240.63 49.68L236.68 53.66L237.96 59.35L243.19 61.05ZM237.96 59.35L236.68 53.66L231.45 51.96L227.50 55.94L228.79 61.63L234.02 63.33ZM250.99 74.13L249.71 68.45L244.48 66.74L240.53 70.72L241.82 76.41L247.04 78.11ZM241.82 76.41L240.53 70.72L235.30 69.02L231.36 73.00L232.64 78.68L237.87 80.39ZM253.66 64.47L252.37 58.78L247.14 57.07L243.19 61.05L244.48 66.74L249.71 68.45ZM219.62 63.91L218.33 58.22L213.10 56.52L209.16 60.51L210.45 66.19L215.68 67.89ZM222.27 54.24L220.99 48.55L215.76 46.85L211.82 50.84L213.10 56.52L218.33 58.22ZM213.10 56.52L211.82 50.84L206.59 49.14L202.65 53.12L203.94 58.81L209.16 60.51ZM226.13 71.29L224.85 65.61L219.62 63.91L215.68 67.89L216.97 73.57L222.19 75.27ZM216.97 73.57L215.68 67.89L210.45 66.19L206.51 70.17L207.80 75.85L213.03 77.55ZM228.79 61.63L227.50 55.94L222.27 54.24L218.33 58.22L219.62 63.91L224.85 65.61ZM240.34 112.77L239.06 107.09L233.84 105.38L229.90 109.36L231.18 115.04L236.40 116.74ZM231.18 115.04L229.90 109.36L224.68 107.65L220.74 111.63L222.03 117.31L227.25 119.01ZM243.00 103.12L241.72 97.44L236.50 95.73L232.55 99.70L233.84 105.38L239.06 107.09ZM233.84 105.38L232.55 99.70L227.33 98.00L223.39 101.98L224.68 107.65L229.90 109.36ZM246.85 120.16L245.57 114.48L240.34 112.77L236.40 116.74L237.69 122.42L242.91 124.13ZM237.69 122.42L236.40 116.74L231.18 115.04L227.25 119.01L228.53 124.69L233.75 126.39ZM249.51 110.50L248.23 104.82L243.00 103.12L239.06 107.09L240.34 112.77L245.57 114.48ZM215.52 109.93L214.24 104.25L209.01 102.55L205.08 106.52L206.37 112.20L211.59 113.90ZM206.37 112.20L205.08 106.52L199.86 104.82L195.93 108.80L197.22 114.47L202.44 116.17ZM218.17 100.27L216.89 94.59L211.66 92.89L207.73 96.87L209.01 102.55L214.24 104.25ZM209.01 102.55L207.73 96.87L202.51 95.17L198.57 99.15L199.86 104.82L205.08 106.52ZM222.03 117.31L220.74 111.63L215.52 109.93L211.59 113.90L212.87 119.58L218.09 121.28ZM212.87 119.58L211.59 113.90L206.37 112.20L202.44 116.17L203.72 121.85L208.94 123.55ZM224.68 107.65L223.39 101.98L218.17 100.27L214.24 104.25L215.52 109.93L220.74 111.63ZM254.83 91.19L253.55 85.51L248.33 83.80L244.38 87.78L245.66 93.46L250.89 95.17ZM245.66 93.46L244.38 87.78L239.15 86.07L235.21 90.05L236.50 95.73L241.72 97.44ZM257.50 81.53L256.22 75.84L250.99 74.13L247.04 78.11L248.33 83.80L253.55 85.51ZM248.33 83.80L247.04 78.11L241.82 76.41L237.87 80.39L239.15 86.07L244.38 87.78ZM261.34 98.58L260.06 92.90L254.83 91.19L250.89 95.17L252.17 100.85L257.40 102.56ZM252.17 100.85L250.89 95.17L245.66 93.46L241.72 97.44L243.00 103.12L248.23 104.82ZM264.01 88.92L262.73 83.24L257.50 81.53L253.55 85.51L254.83 91.19L260.06 92.90ZM176.30 128.67L175.01 123.00L169.79 121.31L165.87 125.28L167.16 130.95L172.37 132.64ZM167.16 130.95L165.87 125.28L160.66 123.59L156.74 127.56L158.03 133.23L163.24 134.92ZM178.93 119.03L177.64 113.36L172.43 111.66L168.50 115.64L169.79 121.31L175.01 123.00ZM182.80 136.04L181.51 130.37L176.30 128.67L172.37 132.64L173.66 138.31L178.87 140.01ZM173.66 138.31L172.37 132.64L167.16 130.95L163.24 134.92L164.53 140.59L169.74 142.28ZM185.43 126.40L184.15 120.72L178.93 119.03L175.01 123.00L176.30 128.67L181.51 130.37ZM190.71 107.10L189.42 101.43L184.21 99.73L180.28 103.71L181.57 109.38L186.78 111.08ZM181.57 109.38L180.28 103.71L175.06 102.01L171.13 105.99L172.43 111.66L177.64 113.36ZM193.35 97.45L192.07 91.77L186.85 90.08L182.92 94.05L184.21 99.73L189.42 101.43ZM197.22 114.47L195.93 108.80L190.71 107.10L186.78 111.08L188.07 116.75L193.29 118.45ZM188.07 116.75L186.78 111.08L181.57 109.38L177.64 113.36L178.93 119.03L184.15 120.72ZM199.86 104.82L198.57 99.15L193.35 97.45L189.42 101.43L190.71 107.10L195.93 108.80ZM248.62 20.64L247.34 14.95L242.10 13.24L238.15 17.23L239.44 22.93L244.67 24.63ZM239.44 22.93L238.15 17.23L232.91 15.53L228.96 19.52L230.25 25.21L235.49 26.92ZM251.29 10.96L250.01 5.26L244.77 3.56L240.82 7.55L242.10 13.24L247.34 14.95ZM242.10 13.24L240.82 7.55L235.58 5.84L231.63 9.84L232.91 15.53L238.15 17.23ZM255.14 28.04L253.86 22.35L248.62 20.64L244.67 24.63L245.96 30.32L251.19 32.03ZM245.96 30.32L244.67 24.63L239.44 22.93L235.49 26.92L236.77 32.61L242.01 34.31ZM257.82 18.36L256.53 12.66L251.29 10.96L247.34 14.95L248.62 20.64L253.86 22.35ZM226.39 8.13L225.10 2.44L219.86 0.74L215.92 4.73L217.20 10.43L222.44 12.13ZM230.25 25.21L228.96 19.52L223.73 17.82L219.78 21.81L221.07 27.50L226.30 29.20ZM232.91 15.53L231.63 9.84L226.39 8.13L222.44 12.13L223.73 17.82L228.96 19.52ZM263.16 -1.02L261.88 -6.72L256.64 -8.42L252.68 -4.43L253.96 1.27L259.20 2.98ZM253.96 1.27L252.68 -4.43L247.44 -6.13L243.48 -2.14L244.77 3.56L250.01 5.26ZM260.49 8.67L259.20 2.98L253.96 1.27L250.01 5.26L251.29 10.96L256.53 12.66ZM238.24 -3.84L236.96 -9.54L231.72 -11.24L227.76 -7.25L229.05 -1.55L234.29 0.15ZM244.77 3.56L243.48 -2.14L238.24 -3.84L234.29 0.15L235.58 5.84L240.82 7.55ZM235.58 5.84L234.29 0.15L229.05 -1.55L225.10 2.44L226.39 8.13L231.63 9.84ZM258.99 45.12L257.71 39.43L252.48 37.72L248.52 41.71L249.81 47.40L255.04 49.11ZM249.81 47.40L248.52 41.71L243.29 40.00L239.34 43.99L240.63 49.68L245.86 51.38ZM261.66 35.45L260.38 29.75L255.14 28.04L251.19 32.03L252.48 37.72L257.71 39.43ZM252.48 37.72L251.19 32.03L245.96 30.32L242.01 34.31L243.29 40.00L248.52 41.71ZM265.51 52.52L264.23 46.83L258.99 45.12L255.04 49.11L256.32 54.80L261.56 56.51ZM256.32 54.80L255.04 49.11L249.81 47.40L245.86 51.38L247.14 57.07L252.37 58.78ZM234.11 42.28L232.82 36.59L227.59 34.89L223.64 38.88L224.93 44.57L230.16 46.27ZM224.93 44.57L223.64 38.88L218.41 37.18L214.47 41.16L215.76 46.85L220.99 48.55ZM236.77 32.61L235.49 26.92L230.25 25.21L226.30 29.20L227.59 34.89L232.82 36.59ZM227.59 34.89L226.30 29.20L221.07 27.50L217.13 31.49L218.41 37.18L223.64 38.88ZM240.63 49.68L239.34 43.99L234.11 42.28L230.16 46.27L231.45 51.96L236.68 53.66ZM231.45 51.96L230.16 46.27L224.93 44.57L220.99 48.55L222.27 54.24L227.50 55.94ZM243.29 40.00L242.01 34.31L236.77 32.61L232.82 36.59L234.11 42.28L239.34 43.99ZM264.34 25.76L263.05 20.07L257.82 18.36L253.86 22.35L255.14 28.04L260.38 29.75ZM2.01 145.66L0.70 140.02L-4.49 138.35L-8.37 142.33L-7.06 147.98L-1.86 149.64ZM5.95 162.60L4.64 156.95L-0.55 155.29L-4.43 159.26L-3.12 164.90L2.07 166.57ZM8.52 152.98L7.21 147.33L2.01 145.66L-1.86 149.64L-0.55 155.29L4.64 156.95ZM16.50 249.45L15.19 243.82L10.02 242.15L6.15 246.11L7.45 251.74L12.63 253.41ZM7.45 251.74L6.15 246.11L0.97 244.44L-2.90 248.40L-1.59 254.02L3.58 255.69ZM19.07 239.86L17.76 234.22L12.58 232.55L8.71 236.51L10.02 242.15L15.19 243.82ZM10.02 242.15L8.71 236.51L3.53 234.84L-0.34 238.81L0.97 244.44L6.15 246.11ZM25.55 247.16L24.25 241.53L19.07 239.86L15.19 243.82L16.50 249.45L21.68 251.12Z"/><path data-band="3" fill="#dc2626" fill-opacity="0.35" d="M10.81 17.60L9.49 11.93L4.28 10.27L0.38 14.27L1.70 19.94L6.91 21.60ZM1.70 19.94L0.38 14.27L-4.83 12.61L-8.72 16.61L-7.40 22.28L-2.20 23.94ZM13.39 7.93L12.07 2.26L6.86 0.60L2.96 4.60L4.28 10.27L9.49 11.93ZM4.28 10.27L2.96 4.60L-2.25 2.94L-6.15 6.95L-4.83 12.61L0.38 14.27ZM17.33 24.93L16.02 19.27L10.81 17.60L6.91 21.60L8.22 27.27L13.43 28.93ZM8.22 27.27L6.91 21.60L1.70 19.94L-2.20 23.94L-0.88 29.60L4.33 31.27ZM19.92 15.27L18.60 9.60L13.39 7.93L9.49 11.93L10.81 17.60L16.02 19.27ZM15.97 -1.74L14.66 -7.41L9.44 -9.07L5.54 -5.07L6.86 0.60L12.07 2.26ZM31.62 3.26L30.31 -2.41L25.09 -4.08L21.19 -0.07L22.50 5.59L27.72 7.26ZM22.50 5.59L21.19 -0.07L15.97 -1.74L12.07 2.26L13.39 7.93L18.60 9.60ZM6.86 0.60L5.54 -5.07L0.33 -6.73L-3.57 -2.72L-2.25 2.94L2.96 4.60ZM21.27 41.93L19.96 36.26L14.75 34.60L10.85 38.59L12.17 44.26L17.38 45.92ZM12.17 44.26L10.85 38.59L5.64 36.93L1.75 40.93L3.07 46.59L8.27 48.25ZM23.86 32.26L22.54 26.60L17.33 24.93L13.43 28.93L14.75 34.60L19.96 36.26ZM14.75 34.60L13.43 28.93L8.22 27.27L4.33 31.27L5.64 36.93L10.85 38.59ZM27.79 49.26L26.48 43.59L21.27 41.93L17.38 45.92L18.69 51.58L23.90 53.25ZM18.69 51.58L17.38 45.92L12.17 44.26L8.27 48.25L9.59 53.91L14.79 55.58ZM30.38 39.60L29.07 33.93L23.86 32.26L19.96 36.26L21.27 41.93L26.48 43.59ZM3.07 46.59L1.75 40.93L-3.46 39.26L-7.35 43.26L-6.03 48.92L-0.83 50.58ZM5.64 36.93L4.33 31.27L-0.88 29.60L-4.77 33.60L-3.46 39.26L1.75 40.93ZM35.56 20.27L34.25 14.60L29.03 12.93L25.13 16.93L26.44 22.60L31.66 24.27ZM26.44 22.60L25.13 16.93L19.92 15.27L16.02 19.27L17.33 24.93L22.54 26.60ZM38.15 10.60L36.84 4.93L31.62 3.26L27.72 7.26L29.03 12.93L34.25 14.60ZM29.03 12.93L27.72 7.26L22.50 5.59L18.60 9.60L19.92 15.27L25.13 16.93ZM42.08 27.61L40.77 21.94L35.56 20.27L31.66 24.27L32.97 29.93L38.18 31.60ZM32.97 29.93L31.66 24.27L26.44 22.60L22.54 26.60L23.86 32.26L29.07 33.93ZM44.68 17.94L43.37 12.27L38.15 10.60L34.25 14.60L35.56 20.27L40.77 21.94ZM56.46 68.94L55.15 63.27L49.94 61.60L46.04 65.59L47.35 71.26L52.56 72.93ZM47.35 71.26L46.04 65.59L40.83 63.92L36.93 67.91L38.24 73.57L43.45 75.24ZM59.05 59.28L57.75 53.62L52.53 51.94L48.63 55.94L49.94 61.60L55.15 63.27ZM49.94 61.60L48.63 55.94L43.42 54.27L39.52 58.26L40.83 63.92L46.04 65.59ZM62.97 76.28L61.67 70.61L56.46 68.94L52.56 72.93L53.86 78.59L59.07 80.26ZM53.86 78.59L52.56 72.93L47.35 71.26L43.45 75.24L44.76 80.91L49.96 82.58ZM65.57 66.62L64.26 60.96L59.05 59.28L55.15 63.27L56.46 68.94L61.67 70.61ZM31.73 66.24L30.41 60.58L25.21 58.91L21.31 62.91L22.62 68.57L27.83 70.23ZM22.62 68.57L21.31 62.91L16.11 61.24L12.21 65.23L13.53 70.89L18.73 72.56ZM34.31 56.59L33.00 50.93L27.79 49.26L23.90 53.25L25.21 58.91L30.41 60.58ZM25.21 58.91L23.90 53.25L18.69 51.58L14.79 55.58L16.11 61.24L21.31 62.91ZM38.24 73.57L36.93 67.91L31.73 66.24L27.83 70.23L29.14 75.89L34.35 77.56ZM29.14 75.89L27.83 70.23L22.62 68.57L18.73 72.56L20.04 78.21L25.25 79.88ZM40.83 63.92L39.52 58.26L34.31 56.59L30.41 60.58L31.73 66.24L36.93 67.91ZM70.77 47.31L69.46 41.64L64.25 39.96L60.34 43.96L61.65 49.62L66.86 51.30ZM61.65 49.62L60.34 43.96L55.13 42.28L51.23 46.28L52.53 51.94L57.75 53.62ZM73.37 37.64L72.07 31.97L66.85 30.30L62.94 34.29L64.25 39.96L69.46 41.64ZM64.25 39.96L62.94 34.29L57.73 32.62L53.82 36.62L55.13 42.28L60.34 43.96ZM77.29 54.65L75.98 48.98L70.77 47.31L66.86 51.30L68.17 56.97L73.38 58.64ZM68.17 56.97L66.86 51.30L61.65 49.62L57.75 53.62L59.05 59.28L64.26 60.96ZM79.89 44.99L78.59 39.32L73.37 37.64L69.46 41.64L70.77 47.31L75.98 48.98ZM46.01 44.61L44.70 38.94L39.49 37.27L35.59 41.27L36.90 46.93L42.11 48.60ZM36.90 46.93L35.59 41.27L30.38 39.60L26.48 43.59L27.79 49.26L33.00 50.93ZM48.61 34.94L47.30 29.28L42.08 27.61L38.18 31.60L39.49 37.27L44.70 38.94ZM39.49 37.27L38.18 31.60L32.97 29.93L29.07 33.93L30.38 39.60L35.59 41.27ZM52.53 51.94L51.23 46.28L46.01 44.61L42.11 48.60L43.42 54.27L48.63 55.94ZM43.42 54.27L42.11 48.60L36.90 46.93L33.00 50.93L34.31 56.59L39.52 58.26ZM55.13 42.28L53.82 36.62L48.61 34.94L44.70 38.94L46.01 44.61L51.23 46.28ZM66.89 93.26L65.58 87.60L60.38 85.93L56.48 89.91L57.78 95.57L62.99 97.25ZM57.78 95.57L56.48 89.91L51.27 88.24L47.37 92.22L48.68 97.88L53.88 99.56ZM69.49 83.62L68.18 77.95L62.97 76.28L59.07 80.26L60.38 85.93L65.58 87.60ZM60.38 85.93L59.07 80.26L53.86 78.59L49.96 82.58L51.27 88.24L56.48 89.91ZM73.40 100.60L72.10 94.94L66.89 93.26L62.99 97.25L64.29 102.91L69.50 104.58ZM64.29 102.91L62.99 97.25L57.78 95.57L53.88 99.56L55.19 105.22L60.39 106.89ZM76.00 90.95L74.70 85.29L69.49 83.62L65.58 87.60L66.89 93.26L72.10 94.94ZM42.17 90.55L40.86 84.89L35.65 83.22L31.76 87.21L33.07 92.87L38.27 94.54ZM33.07 92.87L31.76 87.21L26.56 85.54L22.66 89.53L23.97 95.18L29.18 96.85ZM44.76 80.91L43.45 75.24L38.24 73.57L34.35 77.56L35.65 83.22L40.86 84.89ZM35.65 83.22L34.35 77.56L29.14 75.89L25.25 79.88L26.56 85.54L31.76 87.21ZM48.68 97.88L47.37 92.22L42.17 90.55L38.27 94.54L39.58 100.20L44.78 101.87ZM39.58 100.20L38.27 94.54L33.07 92.87L29.18 96.85L30.49 102.51L35.69 104.18ZM51.27 88.24L49.96 82.58L44.76 80.91L40.86 84.89L42.17 90.55L47.37 92.22ZM81.20 71.65L79.90 65.99L74.69 64.31L70.78 68.30L72.09 73.96L77.30 75.64ZM72.09 73.96L70.78 68.30L65.57 66.62L61.67 70.61L62.97 76.28L68.18 77.95ZM83.81 62.00L82.50 56.33L77.29 54.65L73.38 58.64L74.69 64.31L79.90 65.99ZM74.69 64.31L73.38 58.64L68.17 56.97L64.26 60.96L65.57 66.62L70.78 68.30ZM87.72 79.00L86.42 73.33L81.20 71.65L77.30 75.64L78.60 81.31L83.81 82.98ZM78.60 81.31L77.30 75.64L72.09 73.96L68.18 77.95L69.49 83.62L74.70 85.29ZM90.32 69.34L89.02 63.68L83.81 62.00L79.90 65.99L81.20 71.65L86.42 73.33ZM1.86 82.86L0.54 77.21L-4.66 75.54L-8.54 79.53L-7.23 85.19L-2.03 86.85ZM7.01 63.57L5.69 57.91L0.49 56.24L-3.40 60.24L-2.09 65.89L3.12 67.56ZM9.59 53.91L8.27 48.25L3.07 46.59L-0.83 50.58L0.49 56.24L5.69 57.91ZM0.49 56.24L-0.83 50.58L-6.03 48.92L-9.92 52.92L-8.60 58.57L-3.40 60.24ZM13.53 70.89L12.21 65.23L7.01 63.57L3.12 67.56L4.43 73.22L9.64 74.88ZM4.43 73.22L3.12 67.56L-2.09 65.89L-5.97 69.89L-4.66 75.54L0.54 77.21ZM16.11 61.24L14.79 55.58L9.59 53.91L5.69 57.91L7.01 63.57L12.21 65.23ZM3.22 109.46L1.91 103.81L-3.29 102.14L-7.17 106.13L-5.86 111.78L-0.66 113.45ZM5.80 99.82L4.48 94.17L-0.72 92.50L-4.60 96.49L-3.29 102.14L1.91 103.81ZM9.73 116.78L8.42 111.13L3.22 109.46L-0.66 113.45L0.65 119.09L5.85 120.76ZM0.65 119.09L-0.66 113.45L-5.86 111.78L-9.74 115.77L-8.43 121.41L-3.23 123.08ZM12.31 107.14L10.99 101.49L5.80 99.82L1.91 103.81L3.22 109.46L8.42 111.13ZM17.46 87.86L16.15 82.20L10.95 80.54L7.06 84.53L8.37 90.18L13.57 91.85ZM8.37 90.18L7.06 84.53L1.86 82.86L-2.03 86.85L-0.72 92.50L4.48 94.17ZM20.04 78.21L18.73 72.56L13.53 70.89L9.64 74.88L10.95 80.54L16.15 82.20ZM10.95 80.54L9.64 74.88L4.43 73.22L0.54 77.21L1.86 82.86L7.06 84.53ZM23.97 95.18L22.66 89.53L17.46 87.86L13.57 91.85L14.88 97.50L20.08 99.17ZM14.88 97.50L13.57 91.85L8.37 90.18L4.48 94.17L5.80 99.82L10.99 101.49ZM26.56 85.54L25.25 79.88L20.04 78.21L16.15 82.20L17.46 87.86L22.66 89.53ZM74.66 1.28L73.36 -4.40L68.13 -6.07L64.22 -2.07L65.53 3.61L70.75 5.28ZM65.53 3.61L64.22 -2.07L59.00 -3.74L55.09 0.26L56.40 5.94L61.62 7.61ZM81.19 8.63L79.88 2.96L74.66 1.28L70.75 5.28L72.06 10.96L77.28 12.63ZM72.06 10.96L70.75 5.28L65.53 3.61L61.62 7.61L62.93 13.28L68.15 14.96ZM83.80 -1.05L82.49 -6.72L77.27 -8.40L73.36 -4.40L74.66 1.28L79.88 2.96ZM49.87 -1.41L48.56 -7.08L43.34 -8.75L39.43 -4.75L40.74 0.92L45.96 2.59ZM40.74 0.92L39.43 -4.75L34.21 -6.42L30.31 -2.41L31.62 3.26L36.84 4.93ZM56.40 5.94L55.09 0.26L49.87 -1.41L45.96 2.59L47.27 8.27L52.49 9.94ZM47.27 8.27L45.96 2.59L40.74 0.92L36.84 4.93L38.15 10.60L43.37 12.27ZM59.00 -3.74L57.69 -9.42L52.47 -11.09L48.56 -7.08L49.87 -1.41L55.09 0.26ZM85.11 25.66L83.80 19.98L78.58 18.31L74.67 22.30L75.98 27.98L81.20 29.65ZM75.98 27.98L74.67 22.30L69.45 20.63L65.54 24.63L66.85 30.30L72.07 31.97ZM87.72 15.98L86.41 10.31L81.19 8.63L77.28 12.63L78.58 18.31L83.80 19.98ZM78.58 18.31L77.28 12.63L72.06 10.96L68.15 14.96L69.45 20.63L74.67 22.30ZM91.63 33.01L90.33 27.33L85.11 25.66L81.20 29.65L82.50 35.32L87.72 37.00ZM82.50 35.32L81.20 29.65L75.98 27.98L72.07 31.97L73.37 37.64L78.59 39.32ZM94.24 23.34L92.94 17.66L87.72 15.98L83.80 19.98L85.11 25.66L90.33 27.33ZM60.33 22.95L59.02 17.28L53.80 15.61L49.89 19.61L51.20 25.28L56.42 26.95ZM51.20 25.28L49.89 19.61L44.68 17.94L40.77 21.94L42.08 27.61L47.30 29.28ZM62.93 13.28L61.62 7.61L56.40 5.94L52.49 9.94L53.80 15.61L59.02 17.28ZM53.80 15.61L52.49 9.94L47.27 8.27L43.37 12.27L44.68 17.94L49.89 19.61ZM66.85 30.30L65.54 24.63L60.33 22.95L56.42 26.95L57.73 32.62L62.94 34.29ZM57.73 32.62L56.42 26.95L51.20 25.28L47.30 29.28L48.61 34.94L53.82 36.62ZM69.45 20.63L68.15 14.96L62.93 13.28L59.02 17.28L60.33 22.95L65.54 24.63ZM99.47 3.99L98.17 -1.69L92.94 -3.37L89.02 0.63L90.33 6.31L95.55 7.99ZM90.33 6.31L89.02 0.63L83.80 -1.05L79.88 2.96L81.19 8.63L86.41 10.31ZM92.94 -3.37L91.64 -9.05L86.41 -10.73L82.49 -6.72L83.80 -1.05L89.02 0.63ZM106.00 11.35L104.69 5.67L99.47 3.99L95.55 7.99L96.86 13.67L102.08 15.35ZM96.86 13.67L95.55 7.99L90.33 6.31L86.41 10.31L87.72 15.98L92.94 17.66ZM108.62 1.67L107.31 -4.01L102.09 -5.69L98.17 -1.69L99.47 3.99L104.69 5.67ZM102.03 120.32L100.73 114.66L95.53 112.98L91.62 116.96L92.92 122.62L98.13 124.30ZM92.92 122.62L91.62 116.96L86.42 115.28L82.51 119.26L83.82 124.92L89.02 126.60ZM104.64 110.68L103.34 105.02L98.13 103.34L94.23 107.32L95.53 112.98L100.73 114.66ZM95.53 112.98L94.23 107.32L89.02 105.64L85.11 109.62L86.42 115.28L91.62 116.96ZM108.54 127.67L107.24 122.01L102.03 120.32L98.13 124.30L99.43 129.96L104.63 131.65ZM99.43 129.96L98.13 124.30L92.92 122.62L89.02 126.60L90.32 132.26L95.52 133.94ZM111.15 118.03L109.85 112.37L104.64 110.68L100.73 114.66L102.03 120.32L107.24 122.01ZM77.31 117.58L76.01 111.92L70.80 110.24L66.90 114.22L68.21 119.88L73.41 121.56ZM68.21 119.88L66.90 114.22L61.70 112.55L57.80 116.53L59.11 122.19L64.31 123.86ZM79.91 107.94L78.61 102.28L73.40 100.60L69.50 104.58L70.80 110.24L76.01 111.92ZM70.80 110.24L69.50 104.58L64.29 102.91L60.39 106.89L61.70 112.55L66.90 114.22ZM83.82 124.92L82.51 119.26L77.31 117.58L73.41 121.56L74.71 127.22L79.91 128.90ZM74.71 127.22L73.41 121.56L68.21 119.88L64.31 123.86L65.61 129.52L70.81 131.20ZM86.42 115.28L85.11 109.62L79.91 107.94L76.01 111.92L77.31 117.58L82.51 119.26ZM116.37 98.74L115.08 93.07L109.86 91.39L105.95 95.37L107.25 101.04L112.46 102.72ZM107.25 101.04L105.95 95.37L100.74 93.69L96.83 97.67L98.13 103.34L103.34 105.02ZM118.99 89.09L117.69 83.42L112.48 81.74L108.56 85.72L109.86 91.39L115.08 93.07ZM109.86 91.39L108.56 85.72L103.35 84.04L99.44 88.02L100.74 93.69L105.95 95.37ZM122.88 106.09L121.59 100.43L116.37 98.74L112.46 102.72L113.76 108.39L118.97 110.07ZM113.76 108.39L112.46 102.72L107.25 101.04L103.34 105.02L104.64 110.68L109.85 112.37ZM125.50 96.45L124.20 90.78L118.99 89.09L115.08 93.07L116.37 98.74L121.59 100.43ZM91.62 95.99L90.32 90.33L85.11 88.65L81.21 92.63L82.51 98.30L87.72 99.98ZM82.51 98.30L81.21 92.63L76.00 90.95L72.10 94.94L73.40 100.60L78.61 102.28ZM94.23 86.34L92.93 80.68L87.72 79.00L83.81 82.98L85.11 88.65L90.32 90.33ZM85.11 88.65L83.81 82.98L78.60 81.31L74.70 85.29L76.00 90.95L81.21 92.63ZM98.13 103.34L96.83 97.67L91.62 95.99L87.72 99.98L89.02 105.64L94.23 107.32ZM89.02 105.64L87.72 99.98L82.51 98.30L78.61 102.28L79.91 107.94L85.11 109.62ZM100.74 93.69L99.44 88.02L94.23 86.34L90.32 90.33L91.62 95.99L96.83 97.67ZM112.43 144.65L111.13 138.99L105.93 137.31L102.03 141.28L103.32 146.94L108.53 148.62ZM103.32 146.94L102.03 141.28L96.82 139.60L92.92 143.57L94.22 149.23L99.42 150.91ZM115.04 135.02L113.75 129.35L108.54 127.67L104.63 131.65L105.93 137.31L111.13 138.99ZM105.93 137.31L104.63 131.65L99.43 129.96L95.52 133.94L96.82 139.60L102.03 141.28ZM121.54 142.36L120.25 136.70L115.04 135.02L111.13 138.99L112.43 144.65L117.64 146.33ZM87.72 141.89L86.42 136.23L81.22 134.55L77.32 138.53L78.62 144.18L83.82 145.86ZM78.62 144.18L77.32 138.53L72.11 136.85L68.22 140.83L69.52 146.48L74.72 148.16ZM90.32 132.26L89.02 126.60L83.82 124.92L79.91 128.90L81.22 134.55L86.42 136.23ZM81.22 134.55L79.91 128.90L74.71 127.22L70.81 131.20L72.11 136.85L77.32 138.53ZM94.22 149.23L92.92 143.57L87.72 141.89L83.82 145.86L85.12 151.52L90.32 153.20ZM96.82 139.60L95.52 133.94L90.32 132.26L86.42 136.23L87.72 141.89L92.92 143.57ZM126.77 123.09L125.48 117.42L120.27 115.74L116.36 119.71L117.65 125.38L122.86 127.06ZM117.65 125.38L116.36 119.71L111.15 118.03L107.24 122.01L108.54 127.67L113.75 129.35ZM129.39 113.45L128.09 107.78L122.88 106.09L118.97 110.07L120.27 115.74L125.48 117.42ZM120.27 115.74L118.97 110.07L113.76 108.39L109.85 112.37L111.15 118.03L116.36 119.71ZM133.28 130.44L131.98 124.78L126.77 123.09L122.86 127.06L124.16 132.73L129.37 134.41ZM124.16 132.73L122.86 127.06L117.65 125.38L113.75 129.35L115.04 135.02L120.25 136.70ZM135.90 120.80L134.60 115.13L129.39 113.45L125.48 117.42L126.77 123.09L131.98 124.78ZM40.92 126.80L39.61 121.14L34.41 119.47L30.52 123.45L31.83 129.11L37.03 130.78ZM31.83 129.11L30.52 123.45L25.32 121.78L21.43 125.76L22.74 131.41L27.94 133.09ZM47.42 134.12L46.12 128.47L40.92 126.80L37.03 130.78L38.33 136.43L43.53 138.10ZM16.24 124.10L14.93 118.45L9.73 116.78L5.85 120.76L7.16 126.41L12.35 128.08ZM22.74 131.41L21.43 125.76L16.24 124.10L12.35 128.08L13.66 133.73L18.86 135.39ZM52.60 114.85L51.29 109.20L46.09 107.52L42.20 111.51L43.50 117.16L48.70 118.84ZM43.50 117.16L42.20 111.51L36.99 109.84L33.10 113.82L34.41 119.47L39.61 121.14ZM55.19 105.22L53.88 99.56L48.68 97.88L44.78 101.87L46.09 107.52L51.29 109.20ZM46.09 107.52L44.78 101.87L39.58 100.20L35.69 104.18L36.99 109.84L42.20 111.51ZM59.11 122.19L57.80 116.53L52.60 114.85L48.70 118.84L50.01 124.49L55.21 126.17ZM50.01 124.49L48.70 118.84L43.50 117.16L39.61 121.14L40.92 126.80L46.12 128.47ZM61.70 112.55L60.39 106.89L55.19 105.22L51.29 109.20L52.60 114.85L57.80 116.53ZM27.90 112.15L26.59 106.49L21.39 104.82L17.50 108.81L18.82 114.46L24.01 116.13ZM18.82 114.46L17.50 108.81L12.31 107.14L8.42 111.13L9.73 116.78L14.93 118.45ZM30.49 102.51L29.18 96.85L23.97 95.18L20.08 99.17L21.39 104.82L26.59 106.49ZM21.39 104.82L20.08 99.17L14.88 97.50L10.99 101.49L12.31 107.14L17.50 108.81ZM34.41 119.47L33.10 113.82L27.90 112.15L24.01 116.13L25.32 121.78L30.52 123.45ZM25.32 121.78L24.01 116.13L18.82 114.46L14.93 118.45L16.24 124.10L21.43 125.76ZM36.99 109.84L35.69 104.18L30.49 102.51L26.59 106.49L27.90 112.15L33.10 113.82ZM63.02 139.15L61.71 133.50L56.51 131.82L52.62 135.80L53.93 141.45L59.12 143.13ZM53.93 141.45L52.62 135.80L47.42 134.12L43.53 138.10L44.84 143.75L50.03 145.43ZM65.61 129.52L64.31 123.86L59.11 122.19L55.21 126.17L56.51 131.82L61.71 133.50ZM56.51 131.82L55.21 126.17L50.01 124.49L46.12 128.47L47.42 134.12L52.62 135.80ZM69.52 146.48L68.22 140.83L63.02 139.15L59.12 143.13L60.43 148.78L65.62 150.46ZM60.43 148.78L59.12 143.13L53.93 141.45L50.03 145.43L51.34 151.08L56.53 152.75ZM72.11 136.85L70.81 131.20L65.61 129.52L61.71 133.50L63.02 139.15L68.22 140.83ZM184.38 36.66L183.09 30.98L177.86 29.29L173.93 33.28L175.22 38.96L180.45 40.65ZM175.22 38.96L173.93 33.28L168.70 31.58L164.77 35.58L166.06 41.26L171.29 42.95ZM187.03 26.99L185.74 21.30L180.51 19.61L176.57 23.60L177.86 29.29L183.09 30.98ZM177.86 29.29L176.57 23.60L171.34 21.91L167.41 25.90L168.70 31.58L173.93 33.28ZM190.90 44.04L189.61 38.36L184.38 36.66L180.45 40.65L181.74 46.34L186.97 48.03ZM181.74 46.34L180.45 40.65L175.22 38.96L171.29 42.95L172.58 48.63L177.81 50.32ZM193.55 34.37L192.26 28.69L187.03 26.99L183.09 30.98L184.38 36.66L189.61 38.36ZM159.54 33.88L158.25 28.20L153.02 26.51L149.09 30.50L150.39 36.19L155.61 37.87ZM150.39 36.19L149.09 30.50L143.87 28.82L139.94 32.81L141.24 38.49L146.46 40.18ZM162.18 24.21L160.88 18.53L155.66 16.84L151.72 20.83L153.02 26.51L158.25 28.20ZM153.02 26.51L151.72 20.83L146.50 19.14L142.57 23.14L143.87 28.82L149.09 30.50ZM166.06 41.26L164.77 35.58L159.54 33.88L155.61 37.87L156.91 43.55L162.13 45.25ZM156.91 43.55L155.61 37.87L150.39 36.19L146.46 40.18L147.76 45.85L152.98 47.54ZM168.70 31.58L167.41 25.90L162.18 24.21L158.25 28.20L159.54 33.88L164.77 35.58ZM198.85 15.01L197.56 9.32L192.32 7.63L188.38 11.62L189.68 17.31L194.91 19.01ZM189.68 17.31L188.38 11.62L183.15 9.93L179.21 13.92L180.51 19.61L185.74 21.30ZM201.50 5.33L200.21 -0.36L194.97 -2.06L191.03 1.94L192.32 7.63L197.56 9.32ZM192.32 7.63L191.03 1.94L185.80 0.24L181.86 4.24L183.15 9.93L188.38 11.62ZM205.37 22.40L204.08 16.71L198.85 15.01L194.91 19.01L196.20 24.69L201.43 26.39ZM196.20 24.69L194.91 19.01L189.68 17.31L185.74 21.30L187.03 26.99L192.26 28.69ZM208.02 12.72L206.73 7.03L201.50 5.33L197.56 9.32L198.85 15.01L204.08 16.71ZM173.98 12.23L172.69 6.54L167.46 4.85L163.52 8.85L164.82 14.53L170.05 16.22ZM164.82 14.53L163.52 8.85L158.29 7.16L154.36 11.15L155.66 16.84L160.88 18.53ZM176.62 2.55L175.33 -3.14L170.10 -4.83L166.16 -0.84L167.46 4.85L172.69 6.54ZM167.46 4.85L166.16 -0.84L160.93 -2.53L156.99 1.47L158.29 7.16L163.52 8.85ZM180.51 19.61L179.21 13.92L173.98 12.23L170.05 16.22L171.34 21.91L176.57 23.60ZM171.34 21.91L170.05 16.22L164.82 14.53L160.88 18.53L162.18 24.21L167.41 25.90ZM183.15 9.93L181.86 4.24L176.62 2.55L172.69 6.54L173.98 12.23L179.21 13.92ZM194.77 61.09L193.48 55.41L188.26 53.71L184.32 57.70L185.62 63.38L190.84 65.08ZM185.62 63.38L184.32 57.70L179.10 56.00L175.17 59.99L176.46 65.67L181.68 67.36ZM197.42 51.43L196.13 45.74L190.90 44.04L186.97 48.03L188.26 53.71L193.48 55.41ZM188.26 53.71L186.97 48.03L181.74 46.34L177.81 50.32L179.10 56.00L184.32 57.70ZM201.29 68.47L200.00 62.79L194.77 61.09L190.84 65.08L192.13 70.76L197.35 72.45ZM192.13 70.76L190.84 65.08L185.62 63.38L181.68 67.36L182.97 73.04L188.20 74.74ZM203.94 58.81L202.65 53.12L197.42 51.43L193.48 55.41L194.77 61.09L200.00 62.79ZM169.94 58.30L168.65 52.62L163.43 50.93L159.50 54.91L160.79 60.59L166.02 62.28ZM160.79 60.59L159.50 54.91L154.28 53.22L150.35 57.21L151.65 62.89L156.87 64.58ZM172.58 48.63L171.29 42.95L166.06 41.26L162.13 45.25L163.43 50.93L168.65 52.62ZM163.43 50.93L162.13 45.25L156.91 43.55L152.98 47.54L154.28 53.22L159.50 54.91ZM176.46 65.67L175.17 59.99L169.94 58.30L166.02 62.28L167.31 67.96L172.53 69.65ZM167.31 67.96L166.02 62.28L160.79 60.59L156.87 64.58L158.16 70.25L163.38 71.94ZM179.10 56.00L177.81 50.32L172.58 48.63L168.65 52.62L169.94 58.30L175.17 59.99ZM209.24 39.46L207.95 33.78L202.72 32.08L198.78 36.07L200.07 41.75L205.30 43.45ZM200.07 41.75L198.78 36.07L193.55 34.37L189.61 38.36L190.90 44.04L196.13 45.74ZM211.89 29.79L210.60 24.10L205.37 22.40L201.43 26.39L202.72 32.08L207.95 33.78ZM202.72 32.08L201.43 26.39L196.20 24.69L192.26 28.69L193.55 34.37L198.78 36.07ZM215.76 46.85L214.47 41.16L209.24 39.46L205.30 43.45L206.59 49.14L211.82 50.84ZM206.59 49.14L205.30 43.45L200.07 41.75L196.13 45.74L197.42 51.43L202.65 53.12ZM218.41 37.18L217.13 31.49L211.89 29.79L207.95 33.78L209.24 39.46L214.47 41.16ZM120.33 52.76L119.03 47.09L113.81 45.41L109.89 49.40L111.19 55.07L116.41 56.75ZM111.19 55.07L109.89 49.40L104.67 47.71L100.76 51.71L102.06 57.38L107.28 59.06ZM122.95 43.10L121.65 37.42L116.43 35.74L112.51 39.73L113.81 45.41L119.03 47.09ZM113.81 45.41L112.51 39.73L107.29 38.05L103.37 42.04L104.67 47.71L109.89 49.40ZM126.85 60.12L125.55 54.45L120.33 52.76L116.41 56.75L117.71 62.43L122.93 64.11ZM117.71 62.43L116.41 56.75L111.19 55.07L107.28 59.06L108.58 64.73L113.79 66.41ZM129.47 50.46L128.17 44.78L122.95 43.10L119.03 47.09L120.33 52.76L125.55 54.45ZM95.54 50.03L94.24 44.35L89.02 42.67L85.11 46.67L86.41 52.34L91.63 54.02ZM86.41 52.34L85.11 46.67L79.89 44.99L75.98 48.98L77.29 54.65L82.50 56.33ZM98.15 40.36L96.85 34.69L91.63 33.01L87.72 37.00L89.02 42.67L94.24 44.35ZM89.02 42.67L87.72 37.00L82.50 35.32L78.59 39.32L79.89 44.99L85.11 46.67ZM102.06 57.38L100.76 51.71L95.54 50.03L91.63 54.02L92.93 59.69L98.15 61.37ZM92.93 59.69L91.63 54.02L86.41 52.34L82.50 56.33L83.81 62.00L89.02 63.68ZM104.67 47.71L103.37 42.04L98.15 40.36L94.24 44.35L95.54 50.03L100.76 51.71ZM134.72 31.12L133.42 25.44L128.19 23.76L124.27 27.75L125.57 33.43L130.79 35.11ZM125.57 33.43L124.27 27.75L119.05 26.07L115.13 30.06L116.43 35.74L121.65 37.42ZM137.34 21.45L136.05 15.77L130.82 14.08L126.89 18.08L128.19 23.76L133.42 25.44ZM128.19 23.76L126.89 18.08L121.67 16.39L117.75 20.39L119.05 26.07L124.27 27.75ZM141.24 38.49L139.94 32.81L134.72 31.12L130.79 35.11L132.09 40.79L137.31 42.48ZM132.09 40.79L130.79 35.11L125.57 33.43L121.65 37.42L122.95 43.10L128.17 44.78ZM143.87 28.82L142.57 23.14L137.34 21.45L133.42 25.44L134.72 31.12L139.94 32.81ZM109.91 28.38L108.60 22.70L103.38 21.02L99.46 25.02L100.77 30.69L105.99 32.37ZM100.77 30.69L99.46 25.02L94.24 23.34L90.33 27.33L91.63 33.01L96.85 34.69ZM112.52 18.71L111.22 13.03L106.00 11.35L102.08 15.35L103.38 21.02L108.60 22.70ZM103.38 21.02L102.08 15.35L96.86 13.67L92.94 17.66L94.24 23.34L99.46 25.02ZM116.43 35.74L115.13 30.06L109.91 28.38L105.99 32.37L107.29 38.05L112.51 39.73ZM107.29 38.05L105.99 32.37L100.77 30.69L96.85 34.69L98.15 40.36L103.37 42.04ZM119.05 26.07L117.75 20.39L112.52 18.71L108.60 22.70L109.91 28.38L115.13 30.06ZM130.74 77.14L129.44 71.47L124.23 69.78L120.31 73.77L121.61 79.44L126.82 81.12ZM121.61 79.44L120.31 73.77L115.09 72.08L111.18 76.07L112.48 81.74L117.69 83.42ZM133.36 67.48L132.06 61.81L126.85 60.12L122.93 64.11L124.23 69.78L129.44 71.47ZM124.23 69.78L122.93 64.11L117.71 62.43L113.79 66.41L115.09 72.08L120.31 73.77ZM137.25 84.50L135.96 78.83L130.74 77.14L126.82 81.12L128.12 86.79L133.33 88.48ZM128.12 86.79L126.82 81.12L121.61 79.44L117.69 83.42L118.99 89.09L124.20 90.78ZM139.88 74.84L138.58 69.17L133.36 67.48L129.44 71.47L130.74 77.14L135.96 78.83ZM105.96 74.39L104.66 68.72L99.45 67.04L95.54 71.02L96.84 76.69L102.05 78.37ZM96.84 76.69L95.54 71.02L90.32 69.34L86.42 73.33L87.72 79.00L92.93 80.68ZM108.58 64.73L107.28 59.06L102.06 57.38L98.15 61.37L99.45 67.04L104.66 68.72ZM99.45 67.04L98.15 61.37L92.93 59.69L89.02 63.68L90.32 69.34L95.54 71.02ZM112.48 81.74L111.18 76.07L105.96 74.39L102.05 78.37L103.35 84.04L108.56 85.72ZM103.35 84.04L102.05 78.37L96.84 76.69L92.93 80.68L94.23 86.34L99.44 88.02ZM115.09 72.08L113.79 66.41L108.58 64.73L104.66 68.72L105.96 74.39L111.18 76.07ZM145.13 55.52L143.83 49.84L138.61 48.16L134.69 52.15L135.99 57.82L141.21 59.51ZM135.99 57.82L134.69 52.15L129.47 50.46L125.55 54.45L126.85 60.12L132.06 61.81ZM147.76 45.85L146.46 40.18L141.24 38.49L137.31 42.48L138.61 48.16L143.83 49.84ZM138.61 48.16L137.31 42.48L132.09 40.79L128.17 44.78L129.47 50.46L134.69 52.15ZM151.65 62.89L150.35 57.21L145.13 55.52L141.21 59.51L142.50 65.18L147.72 66.87ZM142.50 65.18L141.21 59.51L135.99 57.82L132.06 61.81L133.36 67.48L138.58 69.17ZM154.28 53.22L152.98 47.54L147.76 45.85L143.83 49.84L145.13 55.52L150.35 57.21ZM219.86 0.74L218.57 -4.95L213.34 -6.65L209.39 -2.66L210.68 3.03L215.92 4.73ZM210.68 3.03L209.39 -2.66L204.15 -4.36L200.21 -0.36L201.50 5.33L206.73 7.03ZM194.97 -2.06L193.68 -7.75L188.45 -9.44L184.50 -5.45L185.80 0.24L191.03 1.94ZM185.80 0.24L184.50 -5.45L179.27 -7.14L175.33 -3.14L176.62 2.55L181.86 4.24ZM149.13 9.46L147.83 3.78L142.60 2.09L138.67 6.09L139.97 11.77L145.20 13.46ZM139.97 11.77L138.67 6.09L133.45 4.40L129.52 8.40L130.82 14.08L136.05 15.77ZM151.76 -0.22L150.47 -5.90L145.24 -7.59L141.30 -3.59L142.60 2.09L147.83 3.78ZM142.60 2.09L141.30 -3.59L136.08 -5.28L132.15 -1.28L133.45 4.40L138.67 6.09ZM155.66 16.84L154.36 11.15L149.13 9.46L145.20 13.46L146.50 19.14L151.72 20.83ZM146.50 19.14L145.20 13.46L139.97 11.77L136.05 15.77L137.34 21.45L142.57 23.14ZM158.29 7.16L156.99 1.47L151.76 -0.22L147.83 3.78L149.13 9.46L154.36 11.15ZM124.29 6.72L122.99 1.03L117.77 -0.65L113.84 3.35L115.14 9.03L120.37 10.71ZM115.14 9.03L113.84 3.35L108.62 1.67L104.69 5.67L106.00 11.35L111.22 13.03ZM126.92 -2.96L125.62 -8.65L120.39 -10.33L116.46 -6.33L117.77 -0.65L122.99 1.03ZM117.77 -0.65L116.46 -6.33L111.24 -8.01L107.31 -4.01L108.62 1.67L113.84 3.35ZM130.82 14.08L129.52 8.40L124.29 6.72L120.37 10.71L121.67 16.39L126.89 18.08ZM121.67 16.39L120.37 10.71L115.14 9.03L111.22 13.03L112.52 18.71L117.75 20.39ZM133.45 4.40L132.15 -1.28L126.92 -2.96L122.99 1.03L124.29 6.72L129.52 8.40ZM160.93 -2.53L159.63 -8.21L154.40 -9.90L150.47 -5.90L151.76 -0.22L156.99 1.47ZM196.00 87.79L194.71 82.12L189.49 80.42L185.56 84.40L186.85 90.08L192.07 91.77ZM207.80 75.85L206.51 70.17L201.29 68.47L197.35 72.45L198.64 78.13L203.87 79.83ZM198.64 78.13L197.35 72.45L192.13 70.76L188.20 74.74L189.49 80.42L194.71 82.12ZM210.45 66.19L209.16 60.51L203.94 58.81L200.00 62.79L201.29 68.47L206.51 70.17ZM165.92 104.30L164.63 98.62L159.41 96.93L155.49 100.91L156.78 106.58L162.00 108.27ZM156.78 106.58L155.49 100.91L150.27 99.22L146.35 103.20L147.65 108.87L152.86 110.56ZM168.55 94.64L167.26 88.97L162.04 87.28L158.12 91.26L159.41 96.93L164.63 98.62ZM159.41 96.93L158.12 91.26L152.90 89.57L148.98 93.55L150.27 99.22L155.49 100.91ZM172.43 111.66L171.13 105.99L165.92 104.30L162.00 108.27L163.29 113.94L168.50 115.64ZM163.29 113.94L162.00 108.27L156.78 106.58L152.86 110.56L154.15 116.23L159.37 117.92ZM175.06 102.01L173.77 96.34L168.55 94.64L164.63 98.62L165.92 104.30L171.13 105.99ZM141.14 101.51L139.84 95.84L134.63 94.15L130.71 98.13L132.01 103.80L137.22 105.49ZM132.01 103.80L130.71 98.13L125.50 96.45L121.59 100.43L122.88 106.09L128.09 107.78ZM143.76 91.86L142.47 86.19L137.25 84.50L133.33 88.48L134.63 94.15L139.84 95.84ZM134.63 94.15L133.33 88.48L128.12 86.79L124.20 90.78L125.50 96.45L130.71 98.13ZM147.65 108.87L146.35 103.20L141.14 101.51L137.22 105.49L138.52 111.16L143.73 112.85ZM138.52 111.16L137.22 105.49L132.01 103.80L128.09 107.78L129.39 113.45L134.60 115.13ZM150.27 99.22L148.98 93.55L143.76 91.86L139.84 95.84L141.14 101.51L146.35 103.20ZM180.33 82.70L179.04 77.03L173.82 75.33L169.89 79.31L171.19 84.99L176.41 86.68ZM171.19 84.99L169.89 79.31L164.67 77.62L160.75 81.60L162.04 87.28L167.26 88.97ZM182.97 73.04L181.68 67.36L176.46 65.67L172.53 69.65L173.82 75.33L179.04 77.03ZM173.82 75.33L172.53 69.65L167.31 67.96L163.38 71.94L164.67 77.62L169.89 79.31ZM186.85 90.08L185.56 84.40L180.33 82.70L176.41 86.68L177.70 92.36L182.92 94.05ZM177.70 92.36L176.41 86.68L171.19 84.99L167.26 88.97L168.55 94.64L173.77 96.34ZM189.49 80.42L188.20 74.74L182.97 73.04L179.04 77.03L180.33 82.70L185.56 84.40ZM155.53 79.91L154.24 74.24L149.02 72.55L145.09 76.53L146.39 82.20L151.61 83.89ZM146.39 82.20L145.09 76.53L139.88 74.84L135.96 78.83L137.25 84.50L142.47 86.19ZM158.16 70.25L156.87 64.58L151.65 62.89L147.72 66.87L149.02 72.55L154.24 74.24ZM149.02 72.55L147.72 66.87L142.50 65.18L138.58 69.17L139.88 74.84L145.09 76.53ZM162.04 87.28L160.75 81.60L155.53 79.91L151.61 83.89L152.90 89.57L158.12 91.26ZM152.90 89.57L151.61 83.89L146.39 82.20L142.47 86.19L143.76 91.86L148.98 93.55ZM164.67 77.62L163.38 71.94L158.16 70.25L154.24 74.24L155.53 79.91L160.75 81.60ZM169.79 121.31L168.50 115.64L163.29 113.94L159.37 117.92L160.66 123.59L165.87 125.28ZM151.53 125.87L150.23 120.20L145.02 118.51L141.11 122.49L142.40 128.15L147.61 129.84ZM142.40 128.15L141.11 122.49L135.90 120.80L131.98 124.78L133.28 130.44L138.49 132.13ZM154.15 116.23L152.86 110.56L147.65 108.87L143.73 112.85L145.02 118.51L150.23 120.20ZM145.02 118.51L143.73 112.85L138.52 111.16L134.60 115.13L135.90 120.80L141.11 122.49ZM158.03 133.23L156.74 127.56L151.53 125.87L147.61 129.84L148.90 135.51L154.11 137.20ZM148.90 135.51L147.61 129.84L142.40 128.15L138.49 132.13L139.78 137.79L144.99 139.48ZM160.66 123.59L159.37 117.92L154.15 116.23L150.23 120.20L151.53 125.87L156.74 127.56ZM184.21 99.73L182.92 94.05L177.70 92.36L173.77 96.34L175.06 102.01L180.28 103.71ZM223.73 17.82L222.44 12.13L217.20 10.43L213.26 14.42L214.55 20.11L219.78 21.81ZM214.55 20.11L213.26 14.42L208.02 12.72L204.08 16.71L205.37 22.40L210.60 24.10ZM217.20 10.43L215.92 4.73L210.68 3.03L206.73 7.03L208.02 12.72L213.26 14.42ZM221.07 27.50L219.78 21.81L214.55 20.11L210.60 24.10L211.89 29.79L217.13 31.49ZM229.05 -1.55L227.76 -7.25L222.52 -8.95L218.57 -4.95L219.86 0.74L225.10 2.44Z"/></svg>
