<svg xmlns="http://www.w3.org/2000/svg" width="256" height="256" viewBox="0 0 256 256"><path data-band="1" fill="#fde68a" fill-opacity="0.35" d="M255.81 5.03L255.14 2.23L252.56 1.42L250.66 3.40L251.33 6.20L253.90 7.01ZM251.33 6.20L250.66 3.40L248.09 2.59L246.19 4.57L246.86 7.37L249.43 8.18ZM257.04 0.25L256.37 -2.55L253.80 -3.37L251.89 -1.38L252.56 1.42L255.14 2.23ZM252.56 1.42L251.89 -1.38L249.32 -2.19L247.42 -0.21L248.09 2.59L250.66 3.40ZM259.05 8.64L258.38 5.84L255.81 5.03L253.90 7.01L254.57 9.81L257.14 10.62ZM254.57 9.81L253.90 7.01L251.33 6.20L249.43 8.18L250.10 10.98L252.67 11.79ZM260.28 3.86L259.61 1.06L257.04 0.25L255.14 2.23L255.81 5.03L258.38 5.84ZM257.81 13.42L257.14 10.62L254.57 9.81L252.67 11.79L253.34 14.59L255.91 15.40ZM243.62 3.76L242.95 0.97L240.38 0.16L238.48 2.14L239.15 4.94L241.72 5.75ZM239.15 4.94L238.48 2.14L235.91 1.33L234.01 3.32L234.68 6.11L237.25 6.92ZM244.85 -1.02L244.18 -3.81L241.61 -4.63L239.71 -2.64L240.38 0.16L242.95 0.97ZM240.38 0.16L239.71 -2.64L237.13 -3.45L235.24 -1.46L235.91 1.33L238.48 2.14ZM248.09 2.59L247.42 -0.21L244.85 -1.02L242.95 0.97L243.62 3.76L246.19 4.57ZM228.20 -1.09L227.52 -3.89L224.95 -4.70L223.06 -2.71L223.73 0.08L226.30 0.89ZM234.68 6.11L234.01 3.32L231.44 2.51L229.54 4.49L230.22 7.29L232.78 8.10ZM235.91 1.33L235.24 -1.46L232.67 -2.27L230.77 -0.29L231.44 2.51L234.01 3.32ZM253.34 14.59L252.67 11.79L250.10 10.98L248.20 12.96L248.87 15.76L251.44 16.57Z"/></svg>
