<svg xmlns="http://www.w3.org/2000/svg" width="256" height="256" viewBox="0 0 256 256"><path data-band="1" fill="#fde68a" fill-opacity="0.35" d="M238.71 231.59L238.00 228.63L235.26 227.86L233.24 230.04L233.96 232.99L236.69 233.76ZM240.02 226.46L239.30 223.50L236.57 222.73L234.55 224.91L235.26 227.86L238.00 228.63ZM235.26 227.86L234.55 224.91L231.81 224.14L229.79 226.32L230.51 229.27L233.24 230.04ZM242.16 235.31L241.45 232.36L238.71 231.59L236.69 233.76L237.40 236.72L240.14 237.49ZM243.47 230.18L242.75 227.23L240.02 226.46L238.00 228.63L238.71 231.59L241.45 232.36ZM229.20 234.40L228.49 231.45L225.76 230.68L223.74 232.86L224.45 235.81L227.19 236.58ZM230.51 229.27L229.79 226.32L227.06 225.55L225.04 227.73L225.76 230.68L228.49 231.45ZM246.08 219.92L245.37 216.96L242.63 216.19L240.61 218.37L241.32 221.32L244.06 222.10ZM241.32 221.32L240.61 218.37L237.87 217.60L235.85 219.78L236.57 222.73L239.30 223.50ZM247.40 214.78L246.68 211.83L243.94 211.05L241.92 213.23L242.63 216.19L245.37 216.96ZM242.63 216.19L241.92 213.23L239.18 212.46L237.16 214.64L237.87 217.60L240.61 218.37ZM249.54 223.65L248.82 220.69L246.08 219.92L244.06 222.10L244.78 225.05L247.51 225.83ZM244.78 225.05L244.06 222.10L241.32 221.32L239.30 223.50L240.02 226.46L242.75 227.23ZM250.85 218.51L250.13 215.56L247.40 214.78L245.37 216.96L246.08 219.92L248.82 220.69ZM236.57 222.73L235.85 219.78L233.12 219.00L231.10 221.18L231.81 224.14L234.55 224.91ZM237.87 217.60L237.16 214.64L234.42 213.87L232.40 216.05L233.12 219.00L235.85 219.78ZM244.30 244.17L243.59 241.22L240.85 240.44L238.83 242.62L239.55 245.57L242.28 246.34ZM245.61 239.04L244.89 236.09L242.16 235.31L240.14 237.49L240.85 240.44L243.59 241.22ZM247.75 247.89L247.03 244.94L244.30 244.17L242.28 246.34L242.99 249.29L245.72 250.07ZM242.99 249.29L242.28 246.34L239.55 245.57L237.53 247.74L238.24 250.69L240.97 251.47ZM249.05 242.77L248.34 239.81L245.61 239.04L243.59 241.22L244.30 244.17L247.03 244.94ZM234.80 246.97L234.08 244.02L231.35 243.25L229.33 245.42L230.05 248.37L232.78 249.15ZM236.10 241.84L235.39 238.89L232.65 238.12L230.63 240.30L231.35 243.25L234.08 244.02ZM251.67 232.51L250.96 229.55L248.23 228.78L246.20 230.96L246.92 233.91L249.65 234.69ZM246.92 233.91L246.20 230.96L243.47 230.18L241.45 232.36L242.16 235.31L244.89 236.09ZM252.99 227.38L252.27 224.42L249.54 223.65L247.51 225.83L248.23 228.78L250.96 229.55ZM248.23 228.78L247.51 225.83L244.78 225.05L242.75 227.23L243.47 230.18L246.20 230.96ZM255.12 236.24L254.41 233.28L251.67 232.51L249.65 234.69L250.36 237.64L253.10 238.41ZM250.36 237.64L249.65 234.69L246.92 233.91L244.89 236.09L245.61 239.04L248.34 239.81ZM256.44 231.11L255.72 228.15L252.99 227.38L250.96 229.55L251.67 232.51L254.41 233.28ZM251.33 199.36L250.62 196.41L247.88 195.63L245.85 197.82L246.56 200.77L249.30 201.55ZM260.05 182.52L259.34 179.56L256.59 178.78L254.56 180.97L255.28 183.93L258.02 184.71ZM253.47 208.24L252.76 205.28L250.02 204.50L247.99 206.69L248.71 209.64L251.45 210.42ZM248.71 209.64L247.99 206.69L245.25 205.91L243.23 208.10L243.94 211.05L246.68 211.83ZM254.79 203.10L254.07 200.14L251.33 199.36L249.30 201.55L250.02 204.50L252.76 205.28ZM250.02 204.50L249.30 201.55L246.56 200.77L244.54 202.96L245.25 205.91L247.99 206.69ZM256.93 211.97L256.21 209.01L253.47 208.24L251.45 210.42L252.16 213.38L254.90 214.15ZM252.16 213.38L251.45 210.42L248.71 209.64L246.68 211.83L247.40 214.78L250.13 215.56ZM258.24 206.83L257.53 203.87L254.79 203.10L252.76 205.28L253.47 208.24L256.21 209.01ZM243.94 211.05L243.23 208.10L240.49 207.32L238.47 209.51L239.18 212.46L241.92 213.23ZM245.25 205.91L244.54 202.96L241.80 202.18L239.77 204.37L240.49 207.32L243.23 208.10ZM260.87 196.55L260.16 193.59L257.42 192.81L255.39 195.00L256.10 197.96L258.84 198.73ZM256.10 197.96L255.39 195.00L252.65 194.22L250.62 196.41L251.33 199.36L254.07 200.14ZM257.42 192.81L256.70 189.85L253.96 189.08L251.93 191.26L252.65 194.22L255.39 195.00ZM259.56 201.69L258.84 198.73L256.10 197.96L254.07 200.14L254.79 203.10L257.53 203.87ZM258.08 259.08L257.37 256.13L254.63 255.35L252.61 257.52L253.33 260.47L256.06 261.25ZM259.39 253.95L258.68 251.00L255.95 250.22L253.92 252.40L254.63 255.35L257.37 256.13ZM249.88 256.74L249.17 253.79L246.44 253.02L244.42 255.19L245.13 258.14L247.86 258.92ZM245.13 258.14L244.42 255.19L241.69 254.42L239.67 256.59L240.38 259.54L243.11 260.31ZM251.19 251.62L250.48 248.67L247.75 247.89L245.72 250.07L246.44 253.02L249.17 253.79ZM246.44 253.02L245.72 250.07L242.99 249.29L240.97 251.47L241.69 254.42L244.42 255.19ZM254.63 255.35L253.92 252.40L251.19 251.62L249.17 253.79L249.88 256.74L252.61 257.52ZM257.26 245.10L256.55 242.14L253.81 241.37L251.79 243.54L252.50 246.49L255.23 247.27ZM252.50 246.49L251.79 243.54L249.05 242.77L247.03 244.94L247.75 247.89L250.48 248.67ZM258.57 239.97L257.86 237.02L255.12 236.24L253.10 238.41L253.81 241.37L256.55 242.14ZM253.81 241.37L253.10 238.41L250.36 237.64L248.34 239.81L249.05 242.77L251.79 243.54ZM260.70 248.83L259.99 245.87L257.26 245.10L255.23 247.27L255.95 250.22L258.68 251.00ZM255.95 250.22L255.23 247.27L252.50 246.49L250.48 248.67L251.19 251.62L253.92 252.40ZM236.94 255.82L236.22 252.87L233.49 252.09L231.48 254.27L232.19 257.22L234.92 257.99ZM238.24 250.69L237.53 247.74L234.80 246.97L232.78 249.15L233.49 252.09L236.22 252.87ZM233.49 252.09L232.78 249.15L230.05 248.37L228.03 250.55L228.75 253.50L231.48 254.27ZM240.38 259.54L239.67 256.59L236.94 255.82L234.92 257.99L235.63 260.94L238.36 261.71ZM241.69 254.42L240.97 251.47L238.24 250.69L236.22 252.87L236.94 255.82L239.67 256.59ZM259.06 220.84L258.35 217.88L255.61 217.11L253.59 219.29L254.30 222.24L257.04 223.02ZM254.30 222.24L253.59 219.29L250.85 218.51L248.82 220.69L249.54 223.65L252.27 224.42ZM260.38 215.70L259.67 212.75L256.93 211.97L254.90 214.15L255.61 217.11L258.35 217.88ZM255.61 217.11L254.90 214.15L252.16 213.38L250.13 215.56L250.85 218.51L253.59 219.29ZM257.75 225.97L257.04 223.02L254.30 222.24L252.27 224.42L252.99 227.38L255.72 228.15ZM259.88 234.84L259.17 231.88L256.44 231.11L254.41 233.28L255.12 236.24L257.86 237.02ZM261.20 229.71L260.49 226.75L257.75 225.97L255.72 228.15L256.44 231.11L259.17 231.88Z"/></svg>
