<svg xmlns="http://www.w3.org/2000/svg" width="256" height="256" viewBox="0 0 256 256"><path data-band="1" fill="#fde68a" fill-opacity="0.35" d="M270.42 123.55L267.69 111.52L256.53 108.23L248.12 116.97L250.85 129.00L262.00 132.29ZM164.42 114.80L161.67 102.78L150.53 99.52L142.13 108.27L144.88 120.29L156.02 123.55ZM197.85 124.62L195.11 112.60L183.96 109.33L175.56 118.07L178.30 130.09L189.45 133.37ZM178.30 130.09L175.56 118.07L164.42 114.80L156.02 123.55L158.77 135.57L169.91 138.84ZM144.88 120.29L142.13 108.27L130.99 105.01L122.60 113.76L125.35 125.77L136.49 129.04ZM125.35 125.77L122.60 113.76L111.47 110.50L103.08 119.25L105.84 131.26L116.97 134.52ZM206.07 160.68L203.33 148.66L192.19 145.38L183.79 154.13L186.53 166.14L197.67 169.42ZM186.53 166.14L183.79 154.13L172.65 150.85L164.26 159.59L167.00 171.61L178.13 174.88ZM211.73 139.92L208.99 127.90L197.85 124.62L189.45 133.37L192.19 145.38L203.33 148.66ZM192.19 145.38L189.45 133.37L178.30 130.09L169.91 138.84L172.65 150.85L183.79 154.13ZM219.94 175.97L217.21 163.96L206.07 160.68L197.67 169.42L200.40 181.43L211.54 184.71ZM200.40 181.43L197.67 169.42L186.53 166.14L178.13 174.88L180.87 186.89L192.01 190.16ZM225.61 155.22L222.88 143.20L211.73 139.92L203.33 148.66L206.07 160.68L217.21 163.96ZM153.12 156.32L150.38 144.31L139.24 141.05L130.85 149.79L133.60 161.80L144.73 165.07ZM133.60 161.80L130.85 149.79L119.72 146.53L111.34 155.28L114.09 167.28L125.22 170.54ZM158.77 135.57L156.02 123.55L144.88 120.29L136.49 129.04L139.24 141.05L150.38 144.31ZM139.24 141.05L136.49 129.04L125.35 125.77L116.97 134.52L119.72 146.53L130.85 149.79ZM167.00 171.61L164.26 159.59L153.12 156.32L144.73 165.07L147.48 177.08L158.61 180.34ZM147.48 177.08L144.73 165.07L133.60 161.80L125.22 170.54L127.97 182.55L139.10 185.81ZM172.65 150.85L169.91 138.84L158.77 135.57L150.38 144.31L153.12 156.32L164.26 159.59ZM236.96 113.69L234.23 101.66L223.08 98.38L214.66 107.13L217.40 119.15L228.55 122.43ZM217.40 119.15L214.66 107.13L203.52 103.85L195.11 112.60L197.85 124.62L208.99 127.90ZM250.85 129.00L248.12 116.97L236.96 113.69L228.55 122.43L231.29 134.46L242.43 137.74ZM231.29 134.46L228.55 122.43L217.40 119.15L208.99 127.90L211.73 139.92L222.88 143.20ZM261.55 221.88L258.82 209.87L247.68 206.58L239.28 215.30L242.01 227.32L253.14 230.61ZM267.23 201.14L264.50 189.12L253.36 185.83L244.95 194.56L247.68 206.58L258.82 209.87ZM275.41 237.19L272.68 225.18L261.55 221.88L253.14 230.61L255.87 242.62L267.00 245.91ZM228.14 212.02L225.41 200.01L214.28 196.72L205.88 205.45L208.61 217.46L219.74 220.75ZM208.61 217.46L205.88 205.45L194.75 202.17L186.35 210.91L189.09 222.91L200.22 226.19ZM233.81 191.27L231.08 179.26L219.94 175.97L211.54 184.71L214.28 196.72L225.41 200.01ZM214.28 196.72L211.54 184.71L200.40 181.43L192.01 190.16L194.75 202.17L205.88 205.45ZM242.01 227.32L239.28 215.30L228.14 212.02L219.74 220.75L222.48 232.75L233.61 236.04ZM222.48 232.75L219.74 220.75L208.61 217.46L200.22 226.19L202.96 238.20L214.08 241.48ZM247.68 206.58L244.95 194.56L233.81 191.27L225.41 200.01L228.14 212.02L239.28 215.30ZM259.04 165.08L256.31 153.05L245.17 149.77L236.76 158.50L239.49 170.52L250.63 173.81ZM239.49 170.52L236.76 158.50L225.61 155.22L217.21 163.96L219.94 175.97L231.08 179.26ZM264.73 144.32L262.00 132.29L250.85 129.00L242.43 137.74L245.17 149.77L256.31 153.05ZM245.17 149.77L242.43 137.74L231.29 134.46L222.88 143.20L225.61 155.22L236.76 158.50ZM272.92 180.39L270.19 168.37L259.04 165.08L250.63 173.81L253.36 185.83L264.50 189.12ZM253.36 185.83L250.63 173.81L239.49 170.52L231.08 179.26L233.81 191.27L244.95 194.56ZM250.20 263.35L247.47 251.34L236.34 248.05L227.94 256.77L230.67 268.77L241.80 272.06ZM230.67 268.77L227.94 256.77L216.82 253.48L208.42 262.20L211.16 274.21L222.28 277.49ZM255.87 242.62L253.14 230.61L242.01 227.32L233.61 236.04L236.34 248.05L247.47 251.34ZM236.34 248.05L233.61 236.04L222.48 232.75L214.08 241.48L216.82 253.48L227.94 256.77ZM269.73 257.92L267.00 245.91L255.87 242.62L247.47 251.34L250.20 263.35L261.32 266.64ZM47.33 147.76L44.57 135.76L33.44 132.51L25.08 141.27L27.85 153.27L38.97 156.51ZM27.85 153.27L25.08 141.27L13.96 138.03L5.60 146.78L8.37 158.78L19.49 162.02ZM52.94 127.00L50.18 115.00L39.05 111.76L30.68 120.51L33.44 132.51L44.57 135.76ZM33.44 132.51L30.68 120.51L19.55 117.27L11.19 126.03L13.96 138.03L25.08 141.27ZM61.21 163.01L58.46 151.01L47.33 147.76L38.97 156.51L41.73 168.51L52.85 171.75ZM41.73 168.51L38.97 156.51L27.85 153.27L19.49 162.02L22.25 174.01L33.37 177.25ZM66.82 142.26L64.07 130.25L52.94 127.00L44.57 135.76L47.33 147.76L58.46 151.01ZM0.07 122.79L-2.70 110.80L-13.82 107.56L-22.17 116.32L-19.40 128.32L-8.28 131.55ZM8.37 158.78L5.60 146.78L-5.52 143.55L-13.87 152.30L-11.10 164.29L0.02 167.53ZM13.96 138.03L11.19 126.03L0.07 122.79L-8.28 131.55L-5.52 143.55L5.60 146.78ZM91.95 116.00L89.19 103.99L78.06 100.74L69.68 109.49L72.44 121.50L83.57 124.75ZM72.44 121.50L69.68 109.49L58.55 106.24L50.18 115.00L52.94 127.00L64.07 130.25ZM39.05 111.76L36.28 99.75L25.15 96.51L16.79 105.27L19.55 117.27L30.68 120.51ZM19.55 117.27L16.79 105.27L5.66 102.03L-2.70 110.80L0.07 122.79L11.19 126.03ZM69.48 198.99L66.73 187.00L55.61 183.75L47.25 192.49L50.00 204.48L61.12 207.73ZM50.00 204.48L47.25 192.49L36.13 189.24L27.77 197.99L30.54 209.98L41.65 213.22ZM75.09 178.26L72.34 166.26L61.21 163.01L52.85 171.75L55.61 183.75L66.73 187.00ZM55.61 183.75L52.85 171.75L41.73 168.51L33.37 177.25L36.13 189.24L47.25 192.49ZM83.35 214.24L80.60 202.25L69.48 198.99L61.12 207.73L63.88 219.73L74.99 222.98ZM63.88 219.73L61.12 207.73L50.00 204.48L41.65 213.22L44.41 225.21L55.52 228.46ZM88.97 193.51L86.22 181.51L75.09 178.26L66.73 187.00L69.48 198.99L80.60 202.25ZM16.66 194.75L13.90 182.76L2.78 179.52L-5.56 188.26L-2.80 200.25L8.31 203.49ZM22.25 174.01L19.49 162.02L8.37 158.78L0.02 167.53L2.78 179.52L13.90 182.76ZM2.78 179.52L0.02 167.53L-11.10 164.29L-19.44 173.04L-16.68 185.03L-5.56 188.26ZM30.54 209.98L27.77 197.99L16.66 194.75L8.31 203.49L11.07 215.47L22.18 218.72ZM11.07 215.47L8.31 203.49L-2.80 200.25L-11.14 209.00L-8.38 220.98L2.73 224.22ZM36.13 189.24L33.37 177.25L22.25 174.01L13.90 182.76L16.66 194.75L27.77 197.99ZM100.21 152.02L97.46 140.01L86.33 136.76L77.95 145.51L80.71 157.51L91.83 160.77ZM80.71 157.51L77.95 145.51L66.82 142.26L58.46 151.01L61.21 163.01L72.34 166.26ZM105.84 131.26L103.08 119.25L91.95 116.00L83.57 124.75L86.33 136.76L97.46 140.01ZM86.33 136.76L83.57 124.75L72.44 121.50L64.07 130.25L66.82 142.26L77.95 145.51ZM114.09 167.28L111.34 155.28L100.21 152.02L91.83 160.77L94.59 172.77L105.71 176.03ZM94.59 172.77L91.83 160.77L80.71 157.51L72.34 166.26L75.09 178.26L86.22 181.51ZM119.72 146.53L116.97 134.52L105.84 131.26L97.46 140.01L100.21 152.02L111.34 155.28ZM144.44 254.55L141.70 242.55L130.58 239.28L122.20 248.01L124.95 260.00L136.06 263.27ZM124.95 260.00L122.20 248.01L111.09 244.75L102.72 253.48L105.47 265.47L116.58 268.73ZM150.07 233.82L147.33 221.82L136.21 218.55L127.83 227.29L130.58 239.28L141.70 242.55ZM130.58 239.28L127.83 227.29L116.71 224.02L108.34 232.75L111.09 244.75L122.20 248.01ZM158.30 269.81L155.56 257.82L144.44 254.55L136.06 263.27L138.81 275.26L149.92 278.53ZM163.94 249.09L161.20 237.09L150.07 233.82L141.70 242.55L144.44 254.55L155.56 257.82ZM91.61 250.22L88.86 238.23L77.74 234.97L69.38 243.70L72.14 255.69L83.25 258.95ZM72.14 255.69L69.38 243.70L58.27 240.45L49.92 249.18L52.67 261.17L63.78 264.42ZM97.22 229.49L94.47 217.50L83.35 214.24L74.99 222.98L77.74 234.97L88.86 238.23ZM77.74 234.97L74.99 222.98L63.88 219.73L55.52 228.46L58.27 240.45L69.38 243.70ZM105.47 265.47L102.72 253.48L91.61 250.22L83.25 258.95L86.00 270.93L97.11 274.19ZM86.00 270.93L83.25 258.95L72.14 255.69L63.78 264.42L66.53 276.40L77.64 279.66ZM111.09 244.75L108.34 232.75L97.22 229.49L88.86 238.23L91.61 250.22L102.72 253.48ZM175.22 207.63L172.48 195.62L161.35 192.35L152.97 201.09L155.71 213.09L166.84 216.36ZM155.71 213.09L152.97 201.09L141.84 197.82L133.46 206.55L136.21 218.55L147.33 221.82ZM180.87 186.89L178.13 174.88L167.00 171.61L158.61 180.34L161.35 192.35L172.48 195.62ZM161.35 192.35L158.61 180.34L147.48 177.08L139.10 185.81L141.84 197.82L152.97 201.09ZM189.09 222.91L186.35 210.91L175.22 207.63L166.84 216.36L169.58 228.36L180.70 231.64ZM169.58 228.36L166.84 216.36L155.71 213.09L147.33 221.82L150.07 233.82L161.20 237.09ZM194.75 202.17L192.01 190.16L180.87 186.89L172.48 195.62L175.22 207.63L186.35 210.91ZM122.34 203.29L119.59 191.29L108.46 188.03L100.09 196.77L102.84 208.76L113.96 212.02ZM102.84 208.76L100.09 196.77L88.97 193.51L80.60 202.25L83.35 214.24L94.47 217.50ZM127.97 182.55L125.22 170.54L114.09 167.28L105.71 176.03L108.46 188.03L119.59 191.29ZM108.46 188.03L105.71 176.03L94.59 172.77L86.22 181.51L88.97 193.51L100.09 196.77ZM136.21 218.55L133.46 206.55L122.34 203.29L113.96 212.02L116.71 224.02L127.83 227.29ZM116.71 224.02L113.96 212.02L102.84 208.76L94.47 217.50L97.22 229.49L108.34 232.75ZM141.84 197.82L139.10 185.81L127.97 182.55L119.59 191.29L122.34 203.29L133.46 206.55ZM197.30 258.92L194.57 246.92L183.44 243.64L175.06 252.37L177.79 264.37L188.91 267.64ZM177.79 264.37L175.06 252.37L163.94 249.09L155.56 257.82L158.30 269.81L169.41 273.09ZM202.96 238.20L200.22 226.19L189.09 222.91L180.70 231.64L183.44 243.64L194.57 246.92ZM183.44 243.64L180.70 231.64L169.58 228.36L161.20 237.09L163.94 249.09L175.06 252.37ZM216.82 253.48L214.08 241.48L202.96 238.20L194.57 246.92L197.30 258.92L208.42 262.20ZM38.81 245.93L36.05 233.95L24.94 230.70L16.60 239.44L19.36 251.42L30.46 254.67ZM19.36 251.42L16.60 239.44L5.49 236.20L-2.85 244.94L-0.09 256.91L11.01 260.16ZM44.41 225.21L41.65 213.22L30.54 209.98L22.18 218.72L24.94 230.70L36.05 233.95ZM24.94 230.70L22.18 218.72L11.07 215.47L2.73 224.22L5.49 236.20L16.60 239.44ZM52.67 261.17L49.92 249.18L38.81 245.93L30.46 254.67L33.22 266.65L44.32 269.90ZM33.22 266.65L30.46 254.67L19.36 251.42L11.01 260.16L13.77 272.13L24.88 275.38ZM58.27 240.45L55.52 228.46L44.41 225.21L36.05 233.95L38.81 245.93L49.92 249.18ZM5.49 236.20L2.73 224.22L-8.38 220.98L-16.72 229.72L-13.95 241.70L-2.85 244.94Z"/></svg>
