<svg xmlns="http://www.w3.org/2000/svg" width="256" height="256" viewBox="0 0 256 256"><path data-band="3" fill="#dc2626" fill-opacity="0.35" d="M263.16 234.77L260.47 222.87L249.46 219.55L241.15 228.14L243.85 240.04L254.85 243.35ZM243.85 240.04L241.15 228.14L230.14 224.83L221.83 233.41L224.54 245.31L235.54 248.62ZM268.78 214.28L266.09 202.37L255.07 199.06L246.76 207.65L249.46 219.55L260.47 222.87ZM249.46 219.55L246.76 207.65L235.75 204.34L227.44 212.93L230.14 224.83L241.15 228.14ZM276.87 249.99L274.17 238.09L263.16 234.77L254.85 243.35L257.55 255.25L268.56 258.57ZM257.55 255.25L254.85 243.35L243.85 240.04L235.54 248.62L238.24 260.52L249.24 263.83ZM274.40 193.78L271.71 181.88L260.69 178.56L252.37 187.15L255.07 199.06L266.09 202.37ZM271.25 270.46L268.56 258.57L257.55 255.25L249.24 263.83L251.94 275.72L262.94 279.04ZM75.90 267.17L73.17 255.30L62.19 252.02L53.93 260.61L56.65 272.48L67.63 275.76ZM81.44 246.70L78.72 234.83L67.73 231.55L59.47 240.14L62.19 252.02L73.17 255.30ZM62.19 252.02L59.47 240.14L48.48 236.87L40.22 245.46L42.95 257.33L53.93 260.61ZM95.15 261.86L92.43 249.99L81.44 246.70L73.17 255.30L75.90 267.17L86.88 270.45ZM23.71 262.66L20.98 250.79L10.00 247.52L1.76 256.12L4.49 267.98L15.46 271.25ZM4.49 267.98L1.76 256.12L-9.22 252.85L-17.46 261.45L-14.73 273.31L-3.76 276.57ZM29.24 242.19L26.51 230.32L15.52 227.05L7.27 235.65L10.00 247.52L20.98 250.79ZM10.00 247.52L7.27 235.65L-3.71 232.38L-11.95 240.98L-9.22 252.85L1.76 256.12ZM42.95 257.33L40.22 245.46L29.24 242.19L20.98 250.79L23.71 262.66L34.69 265.93ZM84.37 170.09L81.65 158.20L70.65 154.93L62.37 163.54L65.10 175.42L76.10 178.70ZM65.10 175.42L62.37 163.54L51.38 160.26L43.11 168.87L45.84 180.75L56.83 184.03ZM89.93 149.59L87.21 137.70L76.20 134.42L67.92 143.04L70.65 154.93L81.65 158.20ZM70.65 154.93L67.92 143.04L56.92 139.76L48.65 148.37L51.38 160.26L62.37 163.54ZM98.10 185.26L95.37 173.37L84.37 170.09L76.10 178.70L78.82 190.58L89.82 193.87ZM78.82 190.58L76.10 178.70L65.10 175.42L56.83 184.03L59.56 195.91L70.55 199.19ZM103.66 164.77L100.93 152.88L89.93 149.59L81.65 158.20L84.37 170.09L95.37 173.37ZM32.11 165.60L29.38 153.72L18.38 150.45L10.12 159.06L12.85 170.94L23.85 174.21ZM12.85 170.94L10.12 159.06L-0.87 155.80L-9.13 164.41L-6.39 176.29L4.60 179.55ZM37.65 145.10L34.92 133.22L23.92 129.95L15.65 138.57L18.38 150.45L29.38 153.72ZM18.38 150.45L15.65 138.57L4.65 135.30L-3.61 143.92L-0.87 155.80L10.12 159.06ZM45.84 180.75L43.11 168.87L32.11 165.60L23.85 174.21L26.58 186.09L37.57 189.36ZM26.58 186.09L23.85 174.21L12.85 170.94L4.60 179.55L7.33 191.43L18.32 194.70ZM51.38 160.26L48.65 148.37L37.65 145.10L29.38 153.72L32.11 165.60L43.11 168.87ZM114.79 123.76L112.07 111.86L101.05 108.58L92.77 117.19L95.49 129.09L106.50 132.37ZM95.49 129.09L92.77 117.19L81.76 113.91L73.47 122.53L76.20 134.42L87.21 137.70ZM120.36 103.24L117.64 91.34L106.62 88.06L98.33 96.68L101.05 108.58L112.07 111.86ZM101.05 108.58L98.33 96.68L87.32 93.40L79.03 102.02L81.76 113.91L92.77 117.19ZM128.52 138.94L125.80 127.04L114.79 123.76L106.50 132.37L109.22 144.27L120.23 147.55ZM109.22 144.27L106.50 132.37L95.49 129.09L87.21 137.70L89.93 149.59L100.93 152.88ZM134.09 118.43L131.37 106.53L120.36 103.24L112.07 111.86L114.79 123.76L125.80 127.04ZM62.47 119.25L59.74 107.36L48.73 104.09L40.46 112.71L43.19 124.60L54.19 127.87ZM43.19 124.60L40.46 112.71L29.45 109.44L21.18 118.06L23.92 129.95L34.92 133.22ZM68.02 98.74L65.29 86.84L54.28 83.57L46.00 92.19L48.73 104.09L59.74 107.36ZM48.73 104.09L46.00 92.19L34.99 88.92L26.72 97.55L29.45 109.44L40.46 112.71ZM76.20 134.42L73.47 122.53L62.47 119.25L54.19 127.87L56.92 139.76L67.92 143.04ZM56.92 139.76L54.19 127.87L43.19 124.60L34.92 133.22L37.65 145.10L48.65 148.37ZM81.76 113.91L79.03 102.02L68.02 98.74L59.74 107.36L62.47 119.25L73.47 122.53ZM106.26 220.92L103.54 209.03L92.54 205.75L84.27 214.35L86.99 226.23L97.98 229.51ZM86.99 226.23L84.27 214.35L73.27 211.07L65.01 219.67L67.73 231.55L78.72 234.83ZM111.81 200.44L109.10 188.55L98.10 185.26L89.82 193.87L92.54 205.75L103.54 209.03ZM92.54 205.75L89.82 193.87L78.82 190.58L70.55 199.19L73.27 211.07L84.27 214.35ZM119.97 236.09L117.25 224.21L106.26 220.92L97.98 229.51L100.70 241.40L111.69 244.68ZM100.70 241.40L97.98 229.51L86.99 226.23L78.72 234.83L81.44 246.70L92.43 249.99ZM125.53 215.61L122.81 203.72L111.81 200.44L103.54 209.03L106.26 220.92L117.25 224.21ZM54.02 216.39L51.29 204.51L40.30 201.24L32.04 209.84L34.77 221.72L45.75 224.99ZM34.77 221.72L32.04 209.84L21.05 206.57L12.79 215.18L15.52 227.05L26.51 230.32ZM59.56 195.91L56.83 184.03L45.84 180.75L37.57 189.36L40.30 201.24L51.29 204.51ZM40.30 201.24L37.57 189.36L26.58 186.09L18.32 194.70L21.05 206.57L32.04 209.84ZM67.73 231.55L65.01 219.67L54.02 216.39L45.75 224.99L48.48 236.87L59.47 240.14ZM48.48 236.87L45.75 224.99L34.77 221.72L26.51 230.32L29.24 242.19L40.22 245.46ZM73.27 211.07L70.55 199.19L59.56 195.91L51.29 204.51L54.02 216.39L65.01 219.67ZM136.67 174.63L133.95 162.74L122.95 159.45L114.66 168.05L117.38 179.94L128.38 183.23ZM117.38 179.94L114.66 168.05L103.66 164.77L95.37 173.37L98.10 185.26L109.10 188.55ZM142.24 154.13L139.53 142.23L128.52 138.94L120.23 147.55L122.95 159.45L133.95 162.74ZM122.95 159.45L120.23 147.55L109.22 144.27L100.93 152.88L103.66 164.77L114.66 168.05ZM150.39 189.82L147.68 177.92L136.67 174.63L128.38 183.23L131.10 195.12L142.10 198.42ZM131.10 195.12L128.38 183.23L117.38 179.94L109.10 188.55L111.81 200.44L122.81 203.72ZM155.97 169.32L153.25 157.42L142.24 154.13L133.95 162.74L136.67 174.63L147.68 177.92ZM1.81 211.91L-0.92 200.04L-11.91 196.77L-20.16 205.38L-17.42 217.25L-6.44 220.51ZM7.33 191.43L4.60 179.55L-6.39 176.29L-14.65 184.90L-11.91 196.77L-0.92 200.04ZM15.52 227.05L12.79 215.18L1.81 211.91L-6.44 220.51L-3.71 232.38L7.27 235.65ZM21.05 206.57L18.32 194.70L7.33 191.43L-0.92 200.04L1.81 211.91L12.79 215.18ZM185.94 255.87L183.23 243.98L172.24 240.68L163.95 249.27L166.66 261.15L177.65 264.45ZM166.66 261.15L163.95 249.27L152.95 245.97L144.67 254.56L147.38 266.44L158.37 269.74ZM199.64 271.06L196.94 259.17L185.94 255.87L177.65 264.45L180.36 276.34L191.35 279.64ZM133.67 251.26L130.96 239.38L119.97 236.09L111.69 244.68L114.41 256.56L125.40 259.85ZM114.41 256.56L111.69 244.68L100.70 241.40L92.43 249.99L95.15 261.86L106.13 265.15ZM147.38 266.44L144.67 254.56L133.67 251.26L125.40 259.85L128.11 271.73L139.10 275.03ZM210.83 230.11L208.12 218.21L197.12 214.91L188.82 223.50L191.53 235.39L202.53 238.69ZM191.53 235.39L188.82 223.50L177.82 220.20L169.53 228.79L172.24 240.68L183.23 243.98ZM216.43 209.62L213.72 197.72L202.71 194.42L194.41 203.01L197.12 214.91L208.12 218.21ZM197.12 214.91L194.41 203.01L183.41 199.71L175.11 208.30L177.82 220.20L188.82 223.50ZM224.54 245.31L221.83 233.41L210.83 230.11L202.53 238.69L205.23 250.59L216.24 253.89ZM205.23 250.59L202.53 238.69L191.53 235.39L183.23 243.98L185.94 255.87L196.94 259.17ZM230.14 224.83L227.44 212.93L216.43 209.62L208.12 218.21L210.83 230.11L221.83 233.41ZM158.53 225.49L155.81 213.60L144.81 210.31L136.53 218.90L139.24 230.79L150.24 234.08ZM139.24 230.79L136.53 218.90L125.53 215.61L117.25 224.21L119.97 236.09L130.96 239.38ZM164.11 205.01L161.39 193.11L150.39 189.82L142.10 198.42L144.81 210.31L155.81 213.60ZM144.81 210.31L142.10 198.42L131.10 195.12L122.81 203.72L125.53 215.61L136.53 218.90ZM172.24 240.68L169.53 228.79L158.53 225.49L150.24 234.08L152.95 245.97L163.95 249.27ZM152.95 245.97L150.24 234.08L139.24 230.79L130.96 239.38L133.67 251.26L144.67 254.56ZM177.82 220.20L175.11 208.30L164.11 205.01L155.81 213.60L158.53 225.49L169.53 228.79ZM238.24 260.52L235.54 248.62L224.54 245.31L216.24 253.89L218.94 265.79L229.94 269.10ZM218.94 265.79L216.24 253.89L205.23 250.59L196.94 259.17L199.64 271.06L210.64 274.37ZM239.49 -5.56L236.78 -17.49L225.73 -20.80L217.40 -12.16L220.11 -0.23L231.15 3.07ZM272.63 4.37L269.92 -7.57L258.87 -10.88L250.53 -2.25L253.24 9.68L264.28 12.99ZM253.24 9.68L250.53 -2.25L239.49 -5.56L231.15 3.07L233.86 15.00L244.90 18.30ZM220.11 -0.23L217.40 -12.16L206.35 -15.46L198.02 -6.83L200.74 5.10L211.78 8.40ZM200.74 5.10L198.02 -6.83L186.98 -10.13L178.66 -1.49L181.38 10.43L192.41 13.73ZM261.36 45.47L258.65 33.54L247.61 30.23L239.28 38.86L241.98 50.78L253.02 54.09ZM266.99 24.92L264.28 12.99L253.24 9.68L244.90 18.30L247.61 30.23L258.65 33.54ZM275.10 60.71L272.40 48.78L261.36 45.47L253.02 54.09L255.73 66.02L266.76 69.33ZM228.24 35.55L225.53 23.62L214.49 20.32L206.16 28.95L208.88 40.87L219.91 44.17ZM208.88 40.87L206.16 28.95L195.13 25.65L186.81 34.27L189.52 46.19L200.56 49.49ZM233.86 15.00L231.15 3.07L220.11 -0.23L211.78 8.40L214.49 20.32L225.53 23.62ZM214.49 20.32L211.78 8.40L200.74 5.10L192.41 13.73L195.13 25.65L206.16 28.95ZM241.98 50.78L239.28 38.86L228.24 35.55L219.91 44.17L222.62 56.09L233.66 59.40ZM222.62 56.09L219.91 44.17L208.88 40.87L200.56 49.49L203.27 61.41L214.30 64.71ZM247.61 30.23L244.90 18.30L233.86 15.00L225.53 23.62L228.24 35.55L239.28 38.86ZM123.34 26.45L120.62 14.54L109.59 11.26L101.29 19.89L104.02 31.80L115.04 35.08ZM104.02 31.80L101.29 19.89L90.26 16.61L81.97 25.25L84.70 37.16L95.72 40.43ZM128.93 5.91L126.20 -6.01L115.17 -9.29L106.86 -0.66L109.59 11.26L120.62 14.54ZM109.59 11.26L106.86 -0.66L95.83 -3.94L87.53 4.70L90.26 16.61L101.29 19.89ZM137.09 41.65L134.37 29.74L123.34 26.45L115.04 35.08L117.77 46.99L128.79 50.28ZM117.77 46.99L115.04 35.08L104.02 31.80L95.72 40.43L98.45 52.34L109.47 55.62ZM142.68 21.11L139.96 9.19L128.93 5.91L120.62 14.54L123.34 26.45L134.37 29.74ZM70.94 21.97L68.21 10.06L57.19 6.79L48.90 15.43L51.63 27.34L62.65 30.61ZM51.63 27.34L48.90 15.43L37.88 12.16L29.59 20.80L32.33 32.70L43.35 35.97ZM76.51 1.43L73.78 -10.49L62.75 -13.76L54.45 -5.12L57.19 6.79L68.21 10.06ZM57.19 6.79L54.45 -5.12L43.43 -8.38L35.14 0.26L37.88 12.16L48.90 15.43ZM84.70 37.16L81.97 25.25L70.94 21.97L62.65 30.61L65.39 42.51L76.40 45.79ZM65.39 42.51L62.65 30.61L51.63 27.34L43.35 35.97L46.08 47.87L57.10 51.14ZM90.26 16.61L87.53 4.70L76.51 1.43L68.21 10.06L70.94 21.97L81.97 25.25ZM167.62 -4.79L164.90 -16.71L153.86 -20.00L145.55 -11.36L148.27 0.56L159.30 3.85ZM148.27 0.56L145.55 -11.36L134.51 -14.65L126.20 -6.01L128.93 5.91L139.96 9.19ZM95.83 -3.94L93.10 -15.85L82.07 -19.13L73.78 -10.49L76.51 1.43L87.53 4.70ZM145.25 77.39L142.53 65.48L131.51 62.19L123.21 70.81L125.93 82.72L136.95 86.01ZM125.93 82.72L123.21 70.81L112.19 67.53L103.90 76.15L106.62 88.06L117.64 91.34ZM150.84 56.85L148.12 44.94L137.09 41.65L128.79 50.28L131.51 62.19L142.53 65.48ZM131.51 62.19L128.79 50.28L117.77 46.99L109.47 55.62L112.19 67.53L123.21 70.81ZM158.99 92.59L156.28 80.68L145.25 77.39L136.95 86.01L139.67 97.91L150.69 101.20ZM139.67 97.91L136.95 86.01L125.93 82.72L117.64 91.34L120.36 103.24L131.37 106.53ZM164.58 72.06L161.87 60.14L150.84 56.85L142.53 65.48L145.25 77.39L156.28 80.68ZM92.88 72.87L90.15 60.97L79.13 57.69L70.85 66.32L73.57 78.22L84.59 81.50ZM73.57 78.22L70.85 66.32L59.83 63.04L51.55 71.67L54.28 83.57L65.29 86.84ZM98.45 52.34L95.72 40.43L84.70 37.16L76.40 45.79L79.13 57.69L90.15 60.97ZM79.13 57.69L76.40 45.79L65.39 42.51L57.10 51.14L59.83 63.04L70.85 66.32ZM106.62 88.06L103.90 76.15L92.88 72.87L84.59 81.50L87.32 93.40L98.33 96.68ZM87.32 93.40L84.59 81.50L73.57 78.22L65.29 86.84L68.02 98.74L79.03 102.02ZM112.19 67.53L109.47 55.62L98.45 52.34L90.15 60.97L92.88 72.87L103.90 76.15ZM175.78 30.98L173.06 19.06L162.02 15.77L153.71 24.40L156.43 36.31L167.46 39.61ZM156.43 36.31L153.71 24.40L142.68 21.11L134.37 29.74L137.09 41.65L148.12 44.94ZM181.38 10.43L178.66 -1.49L167.62 -4.79L159.30 3.85L162.02 15.77L173.06 19.06ZM162.02 15.77L159.30 3.85L148.27 0.56L139.96 9.19L142.68 21.11L153.71 24.40ZM189.52 46.19L186.81 34.27L175.78 30.98L167.46 39.61L170.18 51.52L181.21 54.82ZM170.18 51.52L167.46 39.61L156.43 36.31L148.12 44.94L150.84 56.85L161.87 60.14ZM195.13 25.65L192.41 13.73L181.38 10.43L173.06 19.06L175.78 30.98L186.81 34.27ZM219.52 132.90L216.81 120.99L205.79 117.69L197.48 126.29L200.19 138.20L211.21 141.50ZM200.19 138.20L197.48 126.29L186.46 122.99L178.15 131.60L180.87 143.51L191.88 146.81ZM225.13 112.38L222.42 100.47L211.40 97.16L203.08 105.77L205.79 117.69L216.81 120.99ZM205.79 117.69L203.08 105.77L192.06 102.47L183.75 111.09L186.46 122.99L197.48 126.29ZM233.25 148.12L230.54 136.21L219.52 132.90L211.21 141.50L213.91 153.41L224.93 156.72ZM213.91 153.41L211.21 141.50L200.19 138.20L191.88 146.81L194.59 158.71L205.61 162.01ZM238.86 127.60L236.16 115.69L225.13 112.38L216.81 120.99L219.52 132.90L230.54 136.21ZM167.14 128.31L164.42 116.40L153.41 113.11L145.11 121.72L147.82 133.62L158.84 136.92ZM147.82 133.62L145.11 121.72L134.09 118.43L125.80 127.04L128.52 138.94L139.53 142.23ZM172.73 107.79L170.01 95.88L158.99 92.59L150.69 101.20L153.41 113.11L164.42 116.40ZM153.41 113.11L150.69 101.20L139.67 97.91L131.37 106.53L134.09 118.43L145.11 121.72ZM180.87 143.51L178.15 131.60L167.14 128.31L158.84 136.92L161.55 148.82L172.56 152.11ZM161.55 148.82L158.84 136.92L147.82 133.62L139.53 142.23L142.24 154.13L153.25 157.42ZM186.46 122.99L183.75 111.09L172.73 107.79L164.42 116.40L167.14 128.31L178.15 131.60ZM250.10 86.55L247.40 74.63L236.36 71.32L228.04 79.94L230.75 91.86L241.77 95.16ZM230.75 91.86L228.04 79.94L217.01 76.63L208.69 85.25L211.40 97.16L222.42 100.47ZM255.73 66.02L253.02 54.09L241.98 50.78L233.66 59.40L236.36 71.32L247.40 74.63ZM236.36 71.32L233.66 59.40L222.62 56.09L214.30 64.71L217.01 76.63L228.04 79.94ZM263.83 101.78L261.13 89.86L250.10 86.55L241.77 95.16L244.48 107.08L255.51 110.39ZM244.48 107.08L241.77 95.16L230.75 91.86L222.42 100.47L225.13 112.38L236.16 115.69ZM269.46 81.25L266.76 69.33L255.73 66.02L247.40 74.63L250.10 86.55L261.13 89.86ZM197.66 81.95L194.95 70.03L183.92 66.73L175.61 75.35L178.32 87.26L189.35 90.56ZM178.32 87.26L175.61 75.35L164.58 72.06L156.28 80.68L158.99 92.59L170.01 95.88ZM203.27 61.41L200.56 49.49L189.52 46.19L181.21 54.82L183.92 66.73L194.95 70.03ZM183.92 66.73L181.21 54.82L170.18 51.52L161.87 60.14L164.58 72.06L175.61 75.35ZM211.40 97.16L208.69 85.25L197.66 81.95L189.35 90.56L192.06 102.47L203.08 105.77ZM192.06 102.47L189.35 90.56L178.32 87.26L170.01 95.88L172.73 107.79L183.75 111.09ZM217.01 76.63L214.30 64.71L203.27 61.41L194.95 70.03L197.66 81.95L208.69 85.25ZM241.36 183.84L238.65 171.93L227.64 168.63L219.33 177.22L222.03 189.13L233.04 192.43ZM222.03 189.13L219.33 177.22L208.31 173.92L200.01 182.52L202.71 194.42L213.72 197.72ZM246.97 163.34L244.27 151.43L233.25 148.12L224.93 156.72L227.64 168.63L238.65 171.93ZM227.64 168.63L224.93 156.72L213.91 153.41L205.61 162.01L208.31 173.92L219.33 177.22ZM255.07 199.06L252.37 187.15L241.36 183.84L233.04 192.43L235.75 204.34L246.76 207.65ZM235.75 204.34L233.04 192.43L222.03 189.13L213.72 197.72L216.43 209.62L227.44 212.93ZM260.69 178.56L257.99 166.65L246.97 163.34L238.65 171.93L241.36 183.84L252.37 187.15ZM189.00 179.21L186.29 167.31L175.28 164.01L166.98 172.62L169.69 184.51L180.70 187.81ZM169.69 184.51L166.98 172.62L155.97 169.32L147.68 177.92L150.39 189.82L161.39 193.11ZM194.59 158.71L191.88 146.81L180.87 143.51L172.56 152.11L175.28 164.01L186.29 167.31ZM175.28 164.01L172.56 152.11L161.55 148.82L153.25 157.42L155.97 169.32L166.98 172.62ZM202.71 194.42L200.01 182.52L189.00 179.21L180.70 187.81L183.41 199.71L194.41 203.01ZM183.41 199.71L180.70 187.81L169.69 184.51L161.39 193.11L164.11 205.01L175.11 208.30ZM208.31 173.92L205.61 162.01L194.59 158.71L186.29 167.31L189.00 179.21L200.01 182.52ZM271.94 137.54L269.24 125.62L258.21 122.31L249.89 130.91L252.59 142.83L263.61 146.14ZM252.59 142.83L249.89 130.91L238.86 127.60L230.54 136.21L233.25 148.12L244.27 151.43ZM277.57 117.02L274.87 105.10L263.83 101.78L255.51 110.39L258.21 122.31L269.24 125.62ZM258.21 122.31L255.51 110.39L244.48 107.08L236.16 115.69L238.86 127.60L249.89 130.91ZM266.31 158.05L263.61 146.14L252.59 142.83L244.27 151.43L246.97 163.34L257.99 166.65ZM1.97 79.13L-0.77 67.24L-11.78 63.98L-20.04 72.61L-17.30 84.50L-6.30 87.76ZM7.50 58.61L4.76 46.71L-6.25 43.45L-14.52 52.09L-11.78 63.98L-0.77 67.24ZM18.58 17.54L15.84 5.64L4.82 2.37L-3.46 11.02L-0.72 22.92L10.30 26.18ZM24.12 -3.01L21.38 -14.91L10.36 -18.17L2.08 -9.53L4.82 2.37L15.84 5.64ZM4.82 2.37L2.08 -9.53L-8.94 -12.79L-17.22 -4.14L-14.47 7.76L-3.46 11.02ZM32.33 32.70L29.59 20.80L18.58 17.54L10.30 26.18L13.04 38.08L24.05 41.34ZM13.04 38.08L10.30 26.18L-0.72 22.92L-8.99 31.55L-6.25 43.45L4.76 46.71ZM37.88 12.16L35.14 0.26L24.12 -3.01L15.84 5.64L18.58 17.54L29.59 20.80ZM10.18 114.80L7.44 102.91L-3.56 99.65L-11.82 108.27L-9.08 120.15L1.92 123.42ZM15.71 94.28L12.98 82.39L1.97 79.13L-6.30 87.76L-3.56 99.65L7.44 102.91ZM23.92 129.95L21.18 118.06L10.18 114.80L1.92 123.42L4.65 135.30L15.65 138.57ZM4.65 135.30L1.92 123.42L-9.08 120.15L-17.34 128.78L-14.60 140.66L-3.61 143.92ZM29.45 109.44L26.72 97.55L15.71 94.28L7.44 102.91L10.18 114.80L21.18 118.06ZM40.53 68.40L37.80 56.50L26.79 53.24L18.51 61.87L21.25 73.76L32.26 77.03ZM21.25 73.76L18.51 61.87L7.50 58.61L-0.77 67.24L1.97 79.13L12.98 82.39ZM46.08 47.87L43.35 35.97L32.33 32.70L24.05 41.34L26.79 53.24L37.80 56.50ZM26.79 53.24L24.05 41.34L13.04 38.08L4.76 46.71L7.50 58.61L18.51 61.87ZM54.28 83.57L51.55 71.67L40.53 68.40L32.26 77.03L34.99 88.92L46.00 92.19ZM34.99 88.92L32.26 77.03L21.25 73.76L12.98 82.39L15.71 94.28L26.72 97.55ZM59.83 63.04L57.10 51.14L46.08 47.87L37.80 56.50L40.53 68.40L51.55 71.67ZM43.43 -8.38L40.69 -20.29L29.67 -23.56L21.38 -14.91L24.12 -3.01L35.14 0.26Z"/></svg>
