<svg xmlns="http://www.w3.org/2000/svg" width="256" height="256" viewBox="0 0 256 256"><path data-band="3" fill="#dc2626" fill-opacity="0.35" d="M276.17 126.71L273.48 114.83L262.50 111.51L254.20 120.07L256.89 131.94L267.88 135.27ZM256.89 131.94L254.20 120.07L243.21 116.75L234.92 125.31L237.62 137.18L248.60 140.50ZM262.50 111.51L259.80 99.62L248.81 96.30L240.52 104.87L243.21 116.75L254.20 120.07ZM270.57 147.14L267.88 135.27L256.89 131.94L248.60 140.50L251.29 152.37L262.27 155.70ZM223.94 121.99L221.25 110.12L210.26 106.80L201.98 115.37L204.68 127.24L215.66 130.55ZM204.68 127.24L201.98 115.37L191.00 112.06L182.72 120.62L185.42 132.49L196.40 135.80ZM229.53 101.55L226.84 89.67L215.85 86.36L207.56 94.93L210.26 106.80L221.25 110.12ZM210.26 106.80L207.56 94.93L196.58 91.62L188.30 100.19L191.00 112.06L201.98 115.37ZM237.62 137.18L234.92 125.31L223.94 121.99L215.66 130.55L218.35 142.42L229.33 145.74ZM218.35 142.42L215.66 130.55L204.68 127.24L196.40 135.80L199.10 147.67L210.07 150.98ZM243.21 116.75L240.52 104.87L229.53 101.55L221.25 110.12L223.94 121.99L234.92 125.31ZM254.42 75.85L251.72 63.97L240.73 60.65L232.43 69.22L235.13 81.11L246.12 84.42ZM235.13 81.11L232.43 69.22L221.44 65.91L213.15 74.48L215.85 86.36L226.84 89.67ZM260.02 55.40L257.33 43.51L246.33 40.19L238.03 48.77L240.73 60.65L251.72 63.97ZM240.73 60.65L238.03 48.77L227.04 45.45L218.74 54.03L221.44 65.91L232.43 69.22ZM268.10 91.06L265.41 79.17L254.42 75.85L246.12 84.42L248.81 96.30L259.80 99.62ZM248.81 96.30L246.12 84.42L235.13 81.11L226.84 89.67L229.53 101.55L240.52 104.87ZM273.71 70.61L271.02 58.72L260.02 55.40L251.72 63.97L254.42 75.85L265.41 79.17ZM245.70 172.80L243.00 160.93L232.03 157.61L223.75 166.16L226.44 178.03L237.41 181.35ZM226.44 178.03L223.75 166.16L212.77 162.85L204.49 171.40L207.19 183.27L218.16 186.58ZM251.29 152.37L248.60 140.50L237.62 137.18L229.33 145.74L232.03 157.61L243.00 160.93ZM232.03 157.61L229.33 145.74L218.35 142.42L210.07 150.98L212.77 162.85L223.75 166.16ZM259.36 187.99L256.67 176.12L245.70 172.80L237.41 181.35L240.10 193.22L251.08 196.54ZM240.10 193.22L237.41 181.35L226.44 178.03L218.16 186.58L220.86 198.45L231.82 201.76ZM264.96 167.57L262.27 155.70L251.29 152.37L243.00 160.93L245.70 172.80L256.67 176.12ZM276.87 -6.01L274.17 -17.91L263.16 -21.23L254.85 -12.65L257.55 -0.75L268.56 2.57ZM257.55 -0.75L254.85 -12.65L243.85 -15.96L235.54 -7.38L238.24 4.52L249.24 7.83ZM265.63 34.94L262.94 23.04L251.94 19.72L243.64 28.30L246.33 40.19L257.33 43.51ZM271.25 14.46L268.56 2.57L257.55 -0.75L249.24 7.83L251.94 19.72L262.94 23.04ZM45.59 57.39L42.87 45.52L31.89 42.25L23.64 50.84L26.37 62.70L37.34 65.97ZM26.37 62.70L23.64 50.84L12.67 47.56L4.43 56.15L7.16 68.01L18.13 71.28ZM51.12 36.94L48.40 25.07L37.42 21.80L29.17 30.39L31.89 42.25L42.87 45.52ZM31.89 42.25L29.17 30.39L18.19 27.11L9.94 35.70L12.67 47.56L23.64 50.84ZM59.28 72.53L56.56 60.67L45.59 57.39L37.34 65.97L40.06 77.83L51.03 81.11ZM40.06 77.83L37.34 65.97L26.37 62.70L18.13 71.28L20.85 83.14L31.82 86.41ZM64.82 52.08L62.10 40.22L51.12 36.94L42.87 45.52L45.59 57.39L56.56 60.67ZM7.16 68.01L4.43 56.15L-6.54 52.88L-14.77 61.47L-12.04 73.32L-1.08 76.59ZM12.67 47.56L9.94 35.70L-1.03 32.43L-9.27 41.03L-6.54 52.88L4.43 56.15ZM75.90 11.17L73.17 -0.70L62.19 -3.98L53.93 4.61L56.65 16.48L67.63 19.76ZM56.65 16.48L53.93 4.61L42.95 1.33L34.69 9.93L37.42 21.80L48.40 25.07ZM62.19 -3.98L59.47 -15.86L48.48 -19.13L40.22 -10.54L42.95 1.33L53.93 4.61ZM89.60 26.33L86.88 14.45L75.90 11.17L67.63 19.76L70.35 31.63L81.33 34.91ZM70.35 31.63L67.63 19.76L56.65 16.48L48.40 25.07L51.12 36.94L62.10 40.22ZM95.15 5.86L92.43 -6.01L81.44 -9.30L73.17 -0.70L75.90 11.17L86.88 14.45ZM23.71 6.66L20.98 -5.21L10.00 -8.48L1.76 0.12L4.49 11.98L15.46 15.25ZM4.49 11.98L1.76 0.12L-9.22 -3.15L-17.46 5.45L-14.73 17.31L-3.76 20.57ZM10.00 -8.48L7.27 -20.35L-3.71 -23.62L-11.95 -15.02L-9.22 -3.15L1.76 0.12ZM37.42 21.80L34.69 9.93L23.71 6.66L15.46 15.25L18.19 27.11L29.17 30.39ZM18.19 27.11L15.46 15.25L4.49 11.98L-3.76 20.57L-1.03 32.43L9.94 35.70ZM42.95 1.33L40.22 -10.54L29.24 -13.81L20.98 -5.21L23.71 6.66L34.69 9.93ZM67.44 108.11L64.72 96.25L53.75 92.97L45.51 101.54L48.23 113.40L59.19 116.68ZM48.23 113.40L45.51 101.54L34.54 98.27L26.30 106.84L29.02 118.69L39.99 121.97ZM72.97 87.67L70.26 75.81L59.28 72.53L51.03 81.11L53.75 92.97L64.72 96.25ZM53.75 92.97L51.03 81.11L40.06 77.83L31.82 86.41L34.54 98.27L45.51 101.54ZM81.13 123.25L78.41 111.39L67.44 108.11L59.19 116.68L61.91 128.53L72.88 131.82ZM61.91 128.53L59.19 116.68L48.23 113.40L39.99 121.97L42.71 133.82L53.67 137.10ZM86.66 102.82L83.95 90.96L72.97 87.67L64.72 96.25L67.44 108.11L78.41 111.39ZM15.34 103.57L12.61 91.72L1.65 88.44L-6.59 97.03L-3.86 108.87L7.10 112.15ZM20.85 83.14L18.13 71.28L7.16 68.01L-1.08 76.59L1.65 88.44L12.61 91.72ZM1.65 88.44L-1.08 76.59L-12.04 73.32L-20.28 81.91L-17.55 93.76L-6.59 97.03ZM29.02 118.69L26.30 106.84L15.34 103.57L7.10 112.15L9.83 123.99L20.79 127.27ZM9.83 123.99L7.10 112.15L-3.86 108.87L-12.09 117.45L-9.36 129.30L1.60 132.57ZM34.54 98.27L31.82 86.41L20.85 83.14L12.61 91.72L15.34 103.57L26.30 106.84ZM97.75 61.94L95.03 50.07L84.05 46.78L75.79 55.37L78.51 67.23L89.49 70.52ZM78.51 67.23L75.79 55.37L64.82 52.08L56.56 60.67L59.28 72.53L70.26 75.81ZM103.30 41.49L100.58 29.61L89.60 26.33L81.33 34.91L84.05 46.78L95.03 50.07ZM84.05 46.78L81.33 34.91L70.35 31.63L62.10 40.22L64.82 52.08L75.79 55.37ZM111.44 77.09L108.73 65.23L97.75 61.94L89.49 70.52L92.20 82.38L103.18 85.67ZM92.20 82.38L89.49 70.52L78.51 67.23L70.26 75.81L72.97 87.67L83.95 90.96ZM116.99 56.65L114.28 44.78L103.30 41.49L95.03 50.07L97.75 61.94L108.73 65.23ZM141.38 163.43L138.67 151.57L127.70 148.27L119.45 156.84L122.16 168.69L133.12 171.99ZM122.16 168.69L119.45 156.84L108.48 153.54L100.23 162.10L102.94 173.96L113.90 177.25ZM146.94 143.01L144.23 131.15L133.26 127.85L125.00 136.41L127.70 148.27L138.67 151.57ZM127.70 148.27L125.00 136.41L114.03 133.12L105.77 141.69L108.48 153.54L119.45 156.84ZM155.05 178.59L152.35 166.73L141.38 163.43L133.12 171.99L135.83 183.84L146.79 187.14ZM135.83 183.84L133.12 171.99L122.16 168.69L113.90 177.25L116.61 189.10L127.57 192.40ZM160.61 158.17L157.91 146.31L146.94 143.01L138.67 151.57L141.38 163.43L152.35 166.73ZM89.27 158.81L86.55 146.96L75.59 143.67L67.35 152.24L70.06 164.09L81.02 167.38ZM70.06 164.09L67.35 152.24L56.39 148.95L48.15 157.52L50.86 169.37L61.82 172.65ZM94.81 138.39L92.09 126.54L81.13 123.25L72.88 131.82L75.59 143.67L86.55 146.96ZM75.59 143.67L72.88 131.82L61.91 128.53L53.67 137.10L56.39 148.95L67.35 152.24ZM102.94 173.96L100.23 162.10L89.27 158.81L81.02 167.38L83.73 179.23L94.69 182.52ZM83.73 179.23L81.02 167.38L70.06 164.09L61.82 172.65L64.54 184.50L75.49 187.79ZM108.48 153.54L105.77 141.69L94.81 138.39L86.55 146.96L89.27 158.81L100.23 162.10ZM171.74 117.32L169.04 105.45L158.06 102.15L149.79 110.72L152.50 122.58L163.47 125.88ZM152.50 122.58L149.79 110.72L138.81 107.42L130.55 115.99L133.26 127.85L144.23 131.15ZM177.32 96.88L174.61 85.01L163.63 81.70L155.35 90.28L158.06 102.15L169.04 105.45ZM158.06 102.15L155.35 90.28L144.38 86.98L136.11 95.55L138.81 107.42L149.79 110.72ZM185.42 132.49L182.72 120.62L171.74 117.32L163.47 125.88L166.18 137.75L177.15 141.05ZM166.18 137.75L163.47 125.88L152.50 122.58L144.23 131.15L146.94 143.01L157.91 146.31ZM191.00 112.06L188.30 100.19L177.32 96.88L169.04 105.45L171.74 117.32L182.72 120.62ZM119.58 112.69L116.87 100.83L105.89 97.53L97.63 106.11L100.35 117.97L111.32 121.26ZM100.35 117.97L97.63 106.11L86.66 102.82L78.41 111.39L81.13 123.25L92.09 126.54ZM125.13 92.25L122.42 80.39L111.44 77.09L103.18 85.67L105.89 97.53L116.87 100.83ZM105.89 97.53L103.18 85.67L92.20 82.38L83.95 90.96L86.66 102.82L97.63 106.11ZM133.26 127.85L130.55 115.99L119.58 112.69L111.32 121.26L114.03 133.12L125.00 136.41ZM114.03 133.12L111.32 121.26L100.35 117.97L92.09 126.54L94.81 138.39L105.77 141.69ZM138.81 107.42L136.11 95.55L125.13 92.25L116.87 100.83L119.58 112.69L130.55 115.99ZM163.16 214.16L160.45 202.30L149.49 199.00L141.24 207.55L143.94 219.40L154.90 222.71ZM143.94 219.40L141.24 207.55L130.28 204.25L122.02 212.80L124.73 224.65L135.69 227.95ZM168.72 193.75L166.02 181.89L155.05 178.59L146.79 187.14L149.49 199.00L160.45 202.30ZM149.49 199.00L146.79 187.14L135.83 183.84L127.57 192.40L130.28 204.25L141.24 207.55ZM176.82 229.32L174.12 217.46L163.16 214.16L154.90 222.71L157.60 234.56L168.56 237.86ZM157.60 234.56L154.90 222.71L143.94 219.40L135.69 227.95L138.39 239.80L149.34 243.10ZM182.38 208.92L179.68 197.06L168.72 193.75L160.45 202.30L163.16 214.16L174.12 217.46ZM111.07 209.51L108.36 197.66L97.40 194.37L89.16 202.92L91.87 214.77L102.82 218.06ZM91.87 214.77L89.16 202.92L78.20 199.63L69.96 208.19L72.68 220.03L83.63 223.32ZM116.61 189.10L113.90 177.25L102.94 173.96L94.69 182.52L97.40 194.37L108.36 197.66ZM97.40 194.37L94.69 182.52L83.73 179.23L75.49 187.79L78.20 199.63L89.16 202.92ZM124.73 224.65L122.02 212.80L111.07 209.51L102.82 218.06L105.53 229.90L116.48 233.20ZM105.53 229.90L102.82 218.06L91.87 214.77L83.63 223.32L86.34 235.16L97.29 238.45ZM130.28 204.25L127.57 192.40L116.61 189.10L108.36 197.66L111.07 209.51L122.02 212.80ZM193.52 168.09L190.82 156.23L179.85 152.92L171.58 161.48L174.28 173.34L185.25 176.65ZM174.28 173.34L171.58 161.48L160.61 158.17L152.35 166.73L155.05 178.59L166.02 181.89ZM199.10 147.67L196.40 135.80L185.42 132.49L177.15 141.05L179.85 152.92L190.82 156.23ZM179.85 152.92L177.15 141.05L166.18 137.75L157.91 146.31L160.61 158.17L171.58 161.48ZM207.19 183.27L204.49 171.40L193.52 168.09L185.25 176.65L187.95 188.51L198.92 191.82ZM187.95 188.51L185.25 176.65L174.28 173.34L166.02 181.89L168.72 193.75L179.68 197.06ZM212.77 162.85L210.07 150.98L199.10 147.67L190.82 156.23L193.52 168.09L204.49 171.40ZM6.99 200.34L4.27 188.50L-6.68 185.23L-14.90 193.79L-12.18 205.63L-1.23 208.90ZM12.49 179.94L9.77 168.10L-1.18 164.82L-9.41 173.39L-6.68 185.23L4.27 188.50ZM20.66 215.45L17.94 203.61L6.99 200.34L-1.23 208.90L1.49 220.73L12.43 224.01ZM1.49 220.73L-1.23 208.90L-12.18 205.63L-20.39 214.19L-17.67 226.02L-6.73 229.29ZM26.16 195.05L23.44 183.21L12.49 179.94L4.27 188.50L6.99 200.34L17.94 203.61ZM37.19 154.24L34.47 142.39L23.51 139.12L15.28 147.69L18.00 159.53L28.95 162.81ZM18.00 159.53L15.28 147.69L4.32 144.41L-3.91 152.98L-1.18 164.82L9.77 168.10ZM42.71 133.82L39.99 121.97L29.02 118.69L20.79 127.27L23.51 139.12L34.47 142.39ZM23.51 139.12L20.79 127.27L9.83 123.99L1.60 132.57L4.32 144.41L15.28 147.69ZM50.86 169.37L48.15 157.52L37.19 154.24L28.95 162.81L31.67 174.65L42.63 177.93ZM31.67 174.65L28.95 162.81L18.00 159.53L9.77 168.10L12.49 179.94L23.44 183.21ZM56.39 148.95L53.67 137.10L42.71 133.82L34.47 142.39L37.19 154.24L48.15 157.52ZM4.32 144.41L1.60 132.57L-9.36 129.30L-17.59 137.87L-14.86 149.71L-3.91 152.98ZM28.81 250.95L26.09 239.12L15.15 235.84L6.93 244.39L9.65 256.22L20.59 259.50ZM9.65 256.22L6.93 244.39L-4.01 241.12L-12.22 249.67L-9.50 261.50L1.44 264.77ZM34.32 230.57L31.60 218.73L20.66 215.45L12.43 224.01L15.15 235.84L26.09 239.12ZM15.15 235.84L12.43 224.01L1.49 220.73L-6.73 229.29L-4.01 241.12L6.93 244.39ZM42.47 266.07L39.75 254.23L28.81 250.95L20.59 259.50L23.31 271.33L34.24 274.61ZM47.98 245.68L45.26 233.85L34.32 230.57L26.09 239.12L28.81 250.95L39.75 254.23ZM59.01 204.90L56.30 193.06L45.34 189.77L37.11 198.33L39.83 210.17L50.78 213.46ZM39.83 210.17L37.11 198.33L26.16 195.05L17.94 203.61L20.66 215.45L31.60 218.73ZM64.54 184.50L61.82 172.65L50.86 169.37L42.63 177.93L45.34 189.77L56.30 193.06ZM45.34 189.77L42.63 177.93L31.67 174.65L23.44 183.21L26.16 195.05L37.11 198.33ZM72.68 220.03L69.96 208.19L59.01 204.90L50.78 213.46L53.49 225.30L64.44 228.58ZM53.49 225.30L50.78 213.46L39.83 210.17L31.60 218.73L34.32 230.57L45.26 233.85ZM78.20 199.63L75.49 187.79L64.54 184.50L56.30 193.06L59.01 204.90L69.96 208.19ZM180.36 20.34L177.65 8.45L166.66 5.15L158.37 13.74L161.08 25.62L172.07 28.92ZM161.08 25.62L158.37 13.74L147.38 10.44L139.10 19.03L141.81 30.90L152.80 34.20ZM185.94 -0.13L183.23 -12.02L172.24 -15.32L163.95 -6.73L166.66 5.15L177.65 8.45ZM166.66 5.15L163.95 -6.73L152.95 -10.03L144.67 -1.44L147.38 10.44L158.37 13.74ZM194.06 35.53L191.35 23.64L180.36 20.34L172.07 28.92L174.78 40.80L185.77 44.10ZM174.78 40.80L172.07 28.92L161.08 25.62L152.80 34.20L155.51 46.08L166.50 49.38ZM199.64 15.06L196.94 3.17L185.94 -0.13L177.65 8.45L180.36 20.34L191.35 23.64ZM128.11 15.73L125.40 3.85L114.41 0.56L106.13 9.15L108.85 21.03L119.84 24.32ZM108.85 21.03L106.13 9.15L95.15 5.86L86.88 14.45L89.60 26.33L100.58 29.61ZM133.67 -4.74L130.96 -16.62L119.97 -19.91L111.69 -11.32L114.41 0.56L125.40 3.85ZM114.41 0.56L111.69 -11.32L100.70 -14.60L92.43 -6.01L95.15 5.86L106.13 9.15ZM141.81 30.90L139.10 19.03L128.11 15.73L119.84 24.32L122.55 36.19L133.54 39.49ZM122.55 36.19L119.84 24.32L108.85 21.03L100.58 29.61L103.30 41.49L114.28 44.78ZM147.38 10.44L144.67 -1.44L133.67 -4.74L125.40 3.85L128.11 15.73L139.10 19.03ZM205.23 -5.41L202.53 -17.31L191.53 -20.61L183.23 -12.02L185.94 -0.13L196.94 3.17ZM202.16 71.17L199.46 59.29L188.47 55.98L180.19 64.56L182.89 76.44L193.88 79.74ZM182.89 76.44L180.19 64.56L169.20 61.26L160.92 69.83L163.63 81.70L174.61 85.01ZM207.75 50.72L205.05 38.83L194.06 35.53L185.77 44.10L188.47 55.98L199.46 59.29ZM188.47 55.98L185.77 44.10L174.78 40.80L166.50 49.38L169.20 61.26L180.19 64.56ZM215.85 86.36L213.15 74.48L202.16 71.17L193.88 79.74L196.58 91.62L207.56 94.93ZM196.58 91.62L193.88 79.74L182.89 76.44L174.61 85.01L177.32 96.88L188.30 100.19ZM221.44 65.91L218.74 54.03L207.75 50.72L199.46 59.29L202.16 71.17L213.15 74.48ZM149.94 66.53L147.23 54.66L136.25 51.36L127.98 59.94L130.69 71.81L141.67 75.11ZM130.69 71.81L127.98 59.94L116.99 56.65L108.73 65.23L111.44 77.09L122.42 80.39ZM155.51 46.08L152.80 34.20L141.81 30.90L133.54 39.49L136.25 51.36L147.23 54.66ZM136.25 51.36L133.54 39.49L122.55 36.19L114.28 44.78L116.99 56.65L127.98 59.94ZM163.63 81.70L160.92 69.83L149.94 66.53L141.67 75.11L144.38 86.98L155.35 90.28ZM144.38 86.98L141.67 75.11L130.69 71.81L122.42 80.39L125.13 92.25L136.11 95.55ZM169.20 61.26L166.50 49.38L155.51 46.08L147.23 54.66L149.94 66.53L160.92 69.83ZM232.64 24.99L229.94 13.10L218.94 9.79L210.64 18.37L213.34 30.25L224.34 33.56ZM213.34 30.25L210.64 18.37L199.64 15.06L191.35 23.64L194.06 35.53L205.05 38.83ZM238.24 4.52L235.54 -7.38L224.54 -10.69L216.24 -2.11L218.94 9.79L229.94 13.10ZM218.94 9.79L216.24 -2.11L205.23 -5.41L196.94 3.17L199.64 15.06L210.64 18.37ZM246.33 40.19L243.64 28.30L232.64 24.99L224.34 33.56L227.04 45.45L238.03 48.77ZM227.04 45.45L224.34 33.56L213.34 30.25L205.05 38.83L207.75 50.72L218.74 54.03ZM251.94 19.72L249.24 7.83L238.24 4.52L229.94 13.10L232.64 24.99L243.64 28.30ZM237.00 269.60L234.31 257.74L223.35 254.43L215.08 262.96L217.77 274.81L228.73 278.13ZM242.59 249.21L239.90 237.35L228.93 234.03L220.66 242.57L223.35 254.43L234.31 257.74ZM223.35 254.43L220.66 242.57L209.70 239.25L201.43 247.79L204.13 259.65L215.08 262.96ZM256.24 264.39L253.55 252.53L242.59 249.21L234.31 257.74L237.00 269.60L247.96 272.92ZM184.91 264.87L182.21 253.02L171.25 249.71L163.00 258.25L165.70 270.10L176.65 273.41ZM165.70 270.10L163.00 258.25L152.04 254.95L143.79 263.49L146.49 275.33L157.44 278.64ZM190.47 244.48L187.78 232.63L176.82 229.32L168.56 237.86L171.25 249.71L182.21 253.02ZM171.25 249.71L168.56 237.86L157.60 234.56L149.34 243.10L152.04 254.95L163.00 258.25ZM204.13 259.65L201.43 247.79L190.47 244.48L182.21 253.02L184.91 264.87L195.86 268.18ZM267.43 223.59L264.74 211.73L253.77 208.40L245.49 216.95L248.17 228.81L259.14 232.13ZM248.17 228.81L245.49 216.95L234.52 213.63L226.24 222.17L228.93 234.03L239.90 237.35ZM273.02 203.18L270.34 191.31L259.36 187.99L251.08 196.54L253.77 208.40L264.74 211.73ZM253.77 208.40L251.08 196.54L240.10 193.22L231.82 201.76L234.52 213.63L245.49 216.95ZM261.83 243.99L259.14 232.13L248.17 228.81L239.90 237.35L242.59 249.21L253.55 252.53ZM215.27 218.85L212.58 206.99L201.61 203.68L193.34 212.23L196.04 224.08L207.00 227.40ZM196.04 224.08L193.34 212.23L182.38 208.92L174.12 217.46L176.82 229.32L187.78 232.63ZM220.86 198.45L218.16 186.58L207.19 183.27L198.92 191.82L201.61 203.68L212.58 206.99ZM201.61 203.68L198.92 191.82L187.95 188.51L179.68 197.06L182.38 208.92L193.34 212.23ZM228.93 234.03L226.24 222.17L215.27 218.85L207.00 227.40L209.70 239.25L220.66 242.57ZM209.70 239.25L207.00 227.40L196.04 224.08L187.78 232.63L190.47 244.48L201.43 247.79ZM234.52 213.63L231.82 201.76L220.86 198.45L212.58 206.99L215.27 218.85L226.24 222.17ZM275.48 259.18L272.80 247.32L261.83 243.99L253.55 252.53L256.24 264.39L267.20 267.72ZM132.84 260.19L130.14 248.34L119.19 245.04L110.94 253.59L113.65 265.43L124.60 268.73ZM113.65 265.43L110.94 253.59L100.00 250.29L91.76 258.84L94.47 270.68L105.41 273.97ZM138.39 239.80L135.69 227.95L124.73 224.65L116.48 233.20L119.19 245.04L130.14 248.34ZM119.19 245.04L116.48 233.20L105.53 229.90L97.29 238.45L100.00 250.29L110.94 253.59ZM152.04 254.95L149.34 243.10L138.39 239.80L130.14 248.34L132.84 260.19L143.79 263.49ZM80.81 255.55L78.10 243.71L67.15 240.42L58.92 248.97L61.64 260.80L72.58 264.09ZM61.64 260.80L58.92 248.97L47.98 245.68L39.75 254.23L42.47 266.07L53.41 269.35ZM86.34 235.16L83.63 223.32L72.68 220.03L64.44 228.58L67.15 240.42L78.10 243.71ZM67.15 240.42L64.44 228.58L53.49 225.30L45.26 233.85L47.98 245.68L58.92 248.97ZM94.47 270.68L91.76 258.84L80.81 255.55L72.58 264.09L75.29 275.93L86.23 279.22ZM100.00 250.29L97.29 238.45L86.34 235.16L78.10 243.71L80.81 255.55L91.76 258.84Z"/></svg>
