<svg xmlns="http://www.w3.org/2000/svg" width="256" height="256" viewBox="0 0 256 256"><path data-band="3" fill="#dc2626" fill-opacity="0.35" d="M66.58 -7.69L63.88 -19.49L52.98 -22.79L44.78 -14.28L47.48 -2.48L58.38 0.81ZM99.30 2.21L96.60 -9.60L85.69 -12.90L77.49 -4.40L80.19 7.40L91.09 10.70ZM80.19 7.40L77.49 -4.40L66.58 -7.69L58.38 0.81L61.09 12.61L71.99 15.90ZM47.48 -2.48L44.78 -14.28L33.87 -17.57L25.68 -9.07L28.39 2.73L39.29 6.02ZM28.39 2.73L25.68 -9.07L14.78 -12.35L6.59 -3.85L9.30 7.94L20.20 11.23ZM274.10 11.39L271.43 -0.43L260.50 -3.77L252.26 4.72L254.93 16.54L265.86 19.87ZM241.34 1.39L238.66 -10.43L227.74 -13.76L219.50 -5.26L222.18 6.55L233.10 9.88ZM222.18 6.55L219.50 -5.26L208.58 -8.59L200.34 -0.10L203.02 11.72L213.94 15.04ZM254.93 16.54L252.26 4.72L241.34 1.39L233.10 9.88L235.77 21.70L246.69 25.03ZM235.77 21.70L233.10 9.88L222.18 6.55L213.94 15.04L216.62 26.86L227.54 30.18ZM260.50 -3.77L257.83 -15.59L246.90 -18.92L238.66 -10.43L241.34 1.39L252.26 4.72ZM262.96 51.99L260.29 40.18L249.37 36.84L241.13 45.32L243.81 57.14L254.72 60.47ZM243.81 57.14L241.13 45.32L230.22 41.99L221.98 50.48L224.66 62.29L235.57 65.62ZM268.53 31.69L265.86 19.87L254.93 16.54L246.69 25.03L249.37 36.84L260.29 40.18ZM249.37 36.84L246.69 25.03L235.77 21.70L227.54 30.18L230.22 41.99L241.13 45.32ZM276.55 67.14L273.87 55.33L262.96 51.99L254.72 60.47L257.39 72.28L268.30 75.62ZM257.39 72.28L254.72 60.47L243.81 57.14L235.57 65.62L238.25 77.42L249.16 80.76ZM159.21 42.36L156.52 30.55L145.62 27.24L137.40 35.73L140.09 47.53L151.00 50.84ZM140.09 47.53L137.40 35.73L126.50 32.42L118.29 40.91L120.98 52.71L131.88 56.02ZM164.75 22.06L162.06 10.25L151.15 6.94L142.93 15.43L145.62 27.24L156.52 30.55ZM145.62 27.24L142.93 15.43L132.02 12.12L123.81 20.62L126.50 32.42L137.40 35.73ZM172.81 57.48L170.12 45.67L159.21 42.36L151.00 50.84L153.68 62.64L164.59 65.96ZM153.68 62.64L151.00 50.84L140.09 47.53L131.88 56.02L134.57 67.81L145.47 71.13ZM178.34 37.19L175.66 25.38L164.75 22.06L156.52 30.55L159.21 42.36L170.12 45.67ZM107.39 37.60L104.69 25.81L93.79 22.50L85.59 31.00L88.28 42.79L99.18 46.10ZM88.28 42.79L85.59 31.00L74.69 27.70L66.49 36.19L69.19 47.98L80.08 51.28ZM112.90 17.31L110.20 5.51L99.30 2.21L91.09 10.70L93.79 22.50L104.69 25.81ZM93.79 22.50L91.09 10.70L80.19 7.40L71.99 15.90L74.69 27.70L85.59 31.00ZM120.98 52.71L118.29 40.91L107.39 37.60L99.18 46.10L101.88 57.89L112.78 61.20ZM101.88 57.89L99.18 46.10L88.28 42.79L80.08 51.28L82.78 63.08L93.68 66.38ZM126.50 32.42L123.81 20.62L112.90 17.31L104.69 25.81L107.39 37.60L118.29 40.91ZM189.42 -3.42L186.74 -15.23L175.82 -18.55L167.59 -10.05L170.28 1.76L181.19 5.08ZM170.28 1.76L167.59 -10.05L156.68 -13.37L148.45 -4.87L151.15 6.94L162.06 10.25ZM203.02 11.72L200.34 -0.10L189.42 -3.42L181.19 5.08L183.88 16.89L194.79 20.21ZM183.88 16.89L181.19 5.08L170.28 1.76L162.06 10.25L164.75 22.06L175.66 25.38ZM137.54 -8.18L134.85 -19.99L123.94 -23.29L115.72 -14.79L118.42 -2.99L129.33 0.32ZM118.42 -2.99L115.72 -14.79L104.81 -18.10L96.60 -9.60L99.30 2.21L110.20 5.51ZM151.15 6.94L148.45 -4.87L137.54 -8.18L129.33 0.32L132.02 12.12L142.93 15.43ZM132.02 12.12L129.33 0.32L118.42 -2.99L110.20 5.51L112.90 17.31L123.81 20.62ZM180.86 92.88L178.17 81.08L167.27 77.76L159.06 86.24L161.74 98.03L172.64 101.35ZM161.74 98.03L159.06 86.24L148.16 82.92L139.95 91.40L142.64 103.20L153.53 106.51ZM186.39 72.60L183.71 60.79L172.81 57.48L164.59 65.96L167.27 77.76L178.17 81.08ZM167.27 77.76L164.59 65.96L153.68 62.64L145.47 71.13L148.16 82.92L159.06 86.24ZM194.44 108.00L191.76 96.20L180.86 92.88L172.64 101.35L175.33 113.15L186.22 116.47ZM175.33 113.15L172.64 101.35L161.74 98.03L153.53 106.51L156.22 118.30L167.11 121.62ZM199.98 87.72L197.30 75.92L186.39 72.60L178.17 81.08L180.86 92.88L191.76 96.20ZM129.06 88.09L126.36 76.30L115.47 72.99L107.27 81.47L109.96 93.26L120.85 96.57ZM109.96 93.26L107.27 81.47L96.37 78.17L88.18 86.65L90.87 98.44L101.76 101.75ZM134.57 67.81L131.88 56.02L120.98 52.71L112.78 61.20L115.47 72.99L126.36 76.30ZM115.47 72.99L112.78 61.20L101.88 57.89L93.68 66.38L96.37 78.17L107.27 81.47ZM142.64 103.20L139.95 91.40L129.06 88.09L120.85 96.57L123.54 108.36L134.43 111.67ZM123.54 108.36L120.85 96.57L109.96 93.26L101.76 101.75L104.45 113.53L115.34 116.84ZM148.16 82.92L145.47 71.13L134.57 67.81L126.36 76.30L129.06 88.09L139.95 91.40ZM211.07 47.15L208.39 35.34L197.48 32.02L189.25 40.51L191.93 52.31L202.84 55.63ZM191.93 52.31L189.25 40.51L178.34 37.19L170.12 45.67L172.81 57.48L183.71 60.79ZM216.62 26.86L213.94 15.04L203.02 11.72L194.79 20.21L197.48 32.02L208.39 35.34ZM197.48 32.02L194.79 20.21L183.88 16.89L175.66 25.38L178.34 37.19L189.25 40.51ZM224.66 62.29L221.98 50.48L211.07 47.15L202.84 55.63L205.52 67.44L216.43 70.77ZM205.52 67.44L202.84 55.63L191.93 52.31L183.71 60.79L186.39 72.60L197.30 75.92ZM230.22 41.99L227.54 30.18L216.62 26.86L208.39 35.34L211.07 47.15L221.98 50.48ZM221.01 269.69L218.34 257.91L207.46 254.58L199.26 263.03L201.93 274.80L212.81 278.13ZM169.31 264.82L166.64 253.05L155.76 249.73L147.57 258.18L150.25 269.95L161.12 273.27ZM150.25 269.95L147.57 258.18L136.70 254.86L128.52 263.31L131.20 275.07L142.07 278.39ZM245.64 244.36L242.97 232.57L232.09 229.24L223.88 237.69L226.55 249.47L237.43 252.80ZM226.55 249.47L223.88 237.69L212.99 234.35L204.79 242.80L207.46 254.58L218.34 257.91ZM251.19 224.12L248.52 212.34L237.63 209.00L229.42 217.45L232.09 229.24L242.97 232.57ZM232.09 229.24L229.42 217.45L218.53 214.12L210.32 222.57L212.99 234.35L223.88 237.69ZM259.19 259.48L256.52 247.70L245.64 244.36L237.43 252.80L240.10 264.58L250.98 267.92ZM240.10 264.58L237.43 252.80L226.55 249.47L218.34 257.91L221.01 269.69L231.89 273.03ZM264.74 239.25L262.08 227.46L251.19 224.12L242.97 232.57L245.64 244.36L256.52 247.70ZM193.91 239.47L191.23 227.70L180.35 224.37L172.15 232.82L174.83 244.60L185.71 247.92ZM174.83 244.60L172.15 232.82L161.28 229.50L153.08 237.95L155.76 249.73L166.64 253.05ZM199.44 219.24L196.76 207.46L185.88 204.13L177.68 212.59L180.35 224.37L191.23 227.70ZM180.35 224.37L177.68 212.59L166.80 209.27L158.60 217.72L161.28 229.50L172.15 232.82ZM207.46 254.58L204.79 242.80L193.91 239.47L185.71 247.92L188.38 259.70L199.26 263.03ZM188.38 259.70L185.71 247.92L174.83 244.60L166.64 253.05L169.31 264.82L180.19 268.15ZM212.99 234.35L210.32 222.57L199.44 219.24L191.23 227.70L193.91 239.47L204.79 242.80ZM254.29 148.25L251.62 136.45L240.72 133.11L232.49 141.58L235.16 153.37L246.06 156.71ZM235.16 153.37L232.49 141.58L221.59 138.25L213.37 146.71L216.05 158.51L226.94 161.84ZM259.85 127.98L257.18 116.18L246.27 112.84L238.04 121.31L240.72 133.11L251.62 136.45ZM240.72 133.11L238.04 121.31L227.14 117.98L218.92 126.45L221.59 138.25L232.49 141.58ZM267.86 163.38L265.19 151.58L254.29 148.25L246.06 156.71L248.73 168.50L259.63 171.84ZM248.73 168.50L246.06 156.71L235.16 153.37L226.94 161.84L229.62 173.63L240.51 176.96ZM273.42 143.12L270.75 131.32L259.85 127.98L251.62 136.45L254.29 148.25L265.19 151.58ZM202.48 143.38L199.80 131.59L188.90 128.27L180.69 136.74L183.37 148.53L194.26 151.85ZM183.37 148.53L180.69 136.74L169.80 133.41L161.59 141.88L164.27 153.67L175.16 156.99ZM208.02 123.12L205.34 111.32L194.44 108.00L186.22 116.47L188.90 128.27L199.80 131.59ZM188.90 128.27L186.22 116.47L175.33 113.15L167.11 121.62L169.80 133.41L180.69 136.74ZM216.05 158.51L213.37 146.71L202.48 143.38L194.26 151.85L196.94 163.64L207.83 166.97ZM196.94 163.64L194.26 151.85L183.37 148.53L175.16 156.99L177.84 168.78L188.73 172.10ZM221.59 138.25L218.92 126.45L208.02 123.12L199.80 131.59L202.48 143.38L213.37 146.71ZM265.41 107.71L262.74 95.90L251.83 92.56L243.60 101.04L246.27 112.84L257.18 116.18ZM270.98 87.43L268.30 75.62L257.39 72.28L249.16 80.76L251.83 92.56L262.74 95.90ZM232.69 97.71L230.02 85.90L219.11 82.57L210.88 91.05L213.56 102.85L224.46 106.18ZM213.56 102.85L210.88 91.05L199.98 87.72L191.76 96.20L194.44 108.00L205.34 111.32ZM238.25 77.42L235.57 65.62L224.66 62.29L216.43 70.77L219.11 82.57L230.02 85.90ZM219.11 82.57L216.43 70.77L205.52 67.44L197.30 75.92L199.98 87.72L210.88 91.05ZM246.27 112.84L243.60 101.04L232.69 97.71L224.46 106.18L227.14 117.98L238.04 121.31ZM227.14 117.98L224.46 106.18L213.56 102.85L205.34 111.32L208.02 123.12L218.92 126.45ZM251.83 92.56L249.16 80.76L238.25 77.42L230.02 85.90L232.69 97.71L243.60 101.04ZM275.86 198.77L273.19 186.98L262.30 183.64L254.07 192.09L256.74 203.88L267.63 207.22ZM256.74 203.88L254.07 192.09L243.18 188.76L234.96 197.21L237.63 209.00L248.52 212.34ZM262.30 183.64L259.63 171.84L248.73 168.50L240.51 176.96L243.18 188.76L254.07 192.09ZM270.30 219.02L267.63 207.22L256.74 203.88L248.52 212.34L251.19 224.12L262.08 227.46ZM224.07 193.88L221.40 182.09L210.51 178.76L202.30 187.22L204.97 199.00L215.86 202.33ZM204.97 199.00L202.30 187.22L191.41 183.89L183.20 192.35L185.88 204.13L196.76 207.46ZM229.62 173.63L226.94 161.84L216.05 158.51L207.83 166.97L210.51 178.76L221.40 182.09ZM210.51 178.76L207.83 166.97L196.94 163.64L188.73 172.10L191.41 183.89L202.30 187.22ZM237.63 209.00L234.96 197.21L224.07 193.88L215.86 202.33L218.53 214.12L229.42 217.45ZM218.53 214.12L215.86 202.33L204.97 199.00L196.76 207.46L199.44 219.24L210.32 222.57ZM243.18 188.76L240.51 176.96L229.62 173.63L221.40 182.09L224.07 193.88L234.96 197.21ZM0.86 235.42L-1.84 223.67L-12.70 220.38L-20.86 228.84L-18.15 240.59L-7.30 243.88ZM6.31 215.20L3.61 203.44L-7.25 200.15L-15.41 208.62L-12.70 220.38L-1.84 223.67ZM17.24 174.74L14.54 162.97L3.67 159.68L-4.50 168.16L-1.79 179.92L9.07 183.21ZM22.71 154.49L20.00 142.72L9.13 139.43L0.96 147.91L3.67 159.68L14.54 162.97ZM3.67 159.68L0.96 147.91L-9.91 144.62L-18.07 153.10L-15.37 164.87L-4.50 168.16ZM30.81 189.80L28.11 178.03L17.24 174.74L9.07 183.21L11.77 194.97L22.64 198.27ZM11.77 194.97L9.07 183.21L-1.79 179.92L-9.96 188.39L-7.25 200.15L3.61 203.44ZM36.28 169.56L33.58 157.79L22.71 154.49L14.54 162.97L17.24 174.74L28.11 178.03ZM8.96 270.68L6.26 258.93L-4.60 255.63L-12.75 264.09L-10.05 275.84L0.81 279.13ZM14.42 250.47L11.72 238.71L0.86 235.42L-7.30 243.88L-4.60 255.63L6.26 258.93ZM27.97 265.52L25.27 253.76L14.42 250.47L6.26 258.93L8.96 270.68L19.81 273.97ZM38.90 225.09L36.21 213.32L25.34 210.03L17.18 218.49L19.88 230.25L30.74 233.55ZM19.88 230.25L17.18 218.49L6.31 215.20L-1.84 223.67L0.86 235.42L11.72 238.71ZM44.37 204.86L41.68 193.09L30.81 189.80L22.64 198.27L25.34 210.03L36.21 213.32ZM25.34 210.03L22.64 198.27L11.77 194.97L3.61 203.44L6.31 215.20L17.18 218.49ZM52.46 240.15L49.77 228.38L38.90 225.09L30.74 233.55L33.43 245.31L44.29 248.60ZM33.43 245.31L30.74 233.55L19.88 230.25L11.72 238.71L14.42 250.47L25.27 253.76ZM57.94 219.92L55.24 208.16L44.37 204.86L36.21 213.32L38.90 225.09L49.77 228.38ZM25.54 78.65L22.84 66.87L11.95 63.58L3.77 72.07L6.48 83.85L17.36 87.14ZM6.48 83.85L3.77 72.07L-7.11 68.79L-15.28 77.28L-12.57 89.06L-1.69 92.34ZM31.02 58.38L28.32 46.59L17.43 43.30L9.25 51.80L11.95 63.58L22.84 66.87ZM11.95 63.58L9.25 51.80L-1.64 48.51L-9.82 57.01L-7.11 68.79L3.77 72.07ZM39.13 93.73L36.43 81.95L25.54 78.65L17.36 87.14L20.07 98.92L30.95 102.21ZM20.07 98.92L17.36 87.14L6.48 83.85L-1.69 92.34L1.01 104.12L11.89 107.41ZM44.62 73.46L41.91 61.67L31.02 58.38L22.84 66.87L25.54 78.65L36.43 81.95ZM55.59 32.90L52.89 21.10L41.99 17.81L33.80 26.31L36.51 38.10L47.40 41.39ZM36.51 38.10L33.80 26.31L22.91 23.02L14.72 31.52L17.43 43.30L28.32 46.59ZM61.09 12.61L58.38 0.81L47.48 -2.48L39.29 6.02L41.99 17.81L52.89 21.10ZM41.99 17.81L39.29 6.02L28.39 2.73L20.20 11.23L22.91 23.02L33.80 26.31ZM69.19 47.98L66.49 36.19L55.59 32.90L47.40 41.39L50.10 53.18L60.99 56.48ZM50.10 53.18L47.40 41.39L36.51 38.10L28.32 46.59L31.02 58.38L41.91 61.67ZM74.69 27.70L71.99 15.90L61.09 12.61L52.89 21.10L55.59 32.90L66.49 36.19ZM3.83 28.23L1.12 16.45L-9.77 13.16L-17.95 21.66L-15.24 33.45L-4.35 36.73ZM9.30 7.94L6.59 -3.85L-4.30 -7.13L-12.49 1.38L-9.77 13.16L1.12 16.45ZM17.43 43.30L14.72 31.52L3.83 28.23L-4.35 36.73L-1.64 48.51L9.25 51.80ZM22.91 23.02L20.20 11.23L9.30 7.94L1.12 16.45L3.83 28.23L14.72 31.52ZM47.24 129.06L44.54 117.28L33.65 113.99L25.48 122.47L28.18 134.25L39.06 137.54ZM28.18 134.25L25.48 122.47L14.60 119.18L6.43 127.66L9.13 139.43L20.00 142.72ZM52.72 108.80L50.02 97.02L39.13 93.73L30.95 102.21L33.65 113.99L44.54 117.28ZM33.65 113.99L30.95 102.21L20.07 98.92L11.89 107.41L14.60 119.18L25.48 122.47ZM60.81 144.14L58.12 132.36L47.24 129.06L39.06 137.54L41.76 149.31L52.63 152.61ZM41.76 149.31L39.06 137.54L28.18 134.25L20.00 142.72L22.71 154.49L33.58 157.79ZM66.30 123.88L63.60 112.10L52.72 108.80L44.54 117.28L47.24 129.06L58.12 132.36ZM1.01 104.12L-1.69 92.34L-12.57 89.06L-20.74 97.55L-18.03 109.32L-7.16 112.60ZM9.13 139.43L6.43 127.66L-4.45 124.37L-12.62 132.86L-9.91 144.62L0.96 147.91ZM14.60 119.18L11.89 107.41L1.01 104.12L-7.16 112.60L-4.45 124.37L6.43 127.66ZM77.28 83.35L74.59 71.56L63.69 68.26L55.50 76.75L58.20 88.54L69.09 91.84ZM58.20 88.54L55.50 76.75L44.62 73.46L36.43 81.95L39.13 93.73L50.02 97.02ZM82.78 63.08L80.08 51.28L69.19 47.98L60.99 56.48L63.69 68.26L74.59 71.56ZM63.69 68.26L60.99 56.48L50.10 53.18L41.91 61.67L44.62 73.46L55.50 76.75ZM90.87 98.44L88.18 86.65L77.28 83.35L69.09 91.84L71.79 103.62L82.68 106.92ZM71.79 103.62L69.09 91.84L58.20 88.54L50.02 97.02L52.72 108.80L63.60 112.10ZM96.37 78.17L93.68 66.38L82.78 63.08L74.59 71.56L77.28 83.35L88.18 86.65ZM117.65 259.99L114.96 248.23L104.10 244.91L95.92 253.37L98.61 265.13L109.47 268.44ZM98.61 265.13L95.92 253.37L85.05 250.06L76.88 258.51L79.57 270.27L90.43 273.58ZM66.02 255.21L63.32 243.45L52.46 240.15L44.29 248.60L46.99 260.36L57.85 263.66ZM46.99 260.36L44.29 248.60L33.43 245.31L25.27 253.76L27.97 265.52L38.83 268.82ZM79.57 270.27L76.88 258.51L66.02 255.21L57.85 263.66L60.54 275.42L71.40 278.73ZM120.59 184.22L117.90 172.44L107.02 169.13L98.84 177.60L101.53 189.37L112.40 192.68ZM101.53 189.37L98.84 177.60L87.96 174.29L79.77 182.76L82.47 194.53L93.34 197.84ZM126.10 163.97L123.41 152.19L112.53 148.88L104.33 157.35L107.02 169.13L117.90 172.44ZM107.02 169.13L104.33 157.35L93.45 154.05L85.27 162.52L87.96 174.29L98.84 177.60ZM134.16 199.31L131.47 187.53L120.59 184.22L112.40 192.68L115.09 204.46L125.97 207.77ZM115.09 204.46L112.40 192.68L101.53 189.37L93.34 197.84L96.03 209.61L106.90 212.92ZM139.67 179.07L136.98 167.29L126.10 163.97L117.90 172.44L120.59 184.22L131.47 187.53ZM68.90 179.46L66.21 167.68L55.33 164.38L47.15 172.86L49.85 184.62L60.72 187.92ZM49.85 184.62L47.15 172.86L36.28 169.56L28.11 178.03L30.81 189.80L41.68 193.09ZM74.39 159.21L71.69 147.44L60.81 144.14L52.63 152.61L55.33 164.38L66.21 167.68ZM55.33 164.38L52.63 152.61L41.76 149.31L33.58 157.79L36.28 169.56L47.15 172.86ZM82.47 194.53L79.77 182.76L68.90 179.46L60.72 187.92L63.42 199.69L74.29 203.00ZM63.42 199.69L60.72 187.92L49.85 184.62L41.68 193.09L44.37 204.86L55.24 208.16ZM87.96 174.29L85.27 162.52L74.39 159.21L66.21 167.68L68.90 179.46L79.77 182.76ZM150.70 138.57L148.01 126.78L137.12 123.46L128.92 131.94L131.61 143.72L142.50 147.04ZM131.61 143.72L128.92 131.94L118.03 128.63L109.84 137.10L112.53 148.88L123.41 152.19ZM156.22 118.30L153.53 106.51L142.64 103.20L134.43 111.67L137.12 123.46L148.01 126.78ZM137.12 123.46L134.43 111.67L123.54 108.36L115.34 116.84L118.03 128.63L128.92 131.94ZM164.27 153.67L161.59 141.88L150.70 138.57L142.50 147.04L145.18 158.82L156.07 162.14ZM145.18 158.82L142.50 147.04L131.61 143.72L123.41 152.19L126.10 163.97L136.98 167.29ZM169.80 133.41L167.11 121.62L156.22 118.30L148.01 126.78L150.70 138.57L161.59 141.88ZM98.95 133.79L96.26 122.01L85.37 118.70L77.18 127.18L79.88 138.96L90.76 142.27ZM79.88 138.96L77.18 127.18L66.30 123.88L58.12 132.36L60.81 144.14L71.69 147.44ZM104.45 113.53L101.76 101.75L90.87 98.44L82.68 106.92L85.37 118.70L96.26 122.01ZM85.37 118.70L82.68 106.92L71.79 103.62L63.60 112.10L66.30 123.88L77.18 127.18ZM112.53 148.88L109.84 137.10L98.95 133.79L90.76 142.27L93.45 154.05L104.33 157.35ZM93.45 154.05L90.76 142.27L79.88 138.96L71.69 147.44L74.39 159.21L85.27 162.52ZM118.03 128.63L115.34 116.84L104.45 113.53L96.26 122.01L98.95 133.79L109.84 137.10ZM142.21 234.64L139.53 222.86L128.65 219.55L120.46 228.00L123.15 239.77L134.02 243.09ZM123.15 239.77L120.46 228.00L109.59 224.69L101.41 233.15L104.10 244.91L114.96 248.23ZM147.72 214.40L145.04 202.63L134.16 199.31L125.97 207.77L128.65 219.55L139.53 222.86ZM128.65 219.55L125.97 207.77L115.09 204.46L106.90 212.92L109.59 224.69L120.46 228.00ZM155.76 249.73L153.08 237.95L142.21 234.64L134.02 243.09L136.70 254.86L147.57 258.18ZM136.70 254.86L134.02 243.09L123.15 239.77L114.96 248.23L117.65 259.99L128.52 263.31ZM161.28 229.50L158.60 217.72L147.72 214.40L139.53 222.86L142.21 234.64L153.08 237.95ZM90.54 229.84L87.85 218.07L76.98 214.76L68.80 223.23L71.50 234.99L82.36 238.30ZM71.50 234.99L68.80 223.23L57.94 219.92L49.77 228.38L52.46 240.15L63.32 243.45ZM96.03 209.61L93.34 197.84L82.47 194.53L74.29 203.00L76.98 214.76L87.85 218.07ZM76.98 214.76L74.29 203.00L63.42 199.69L55.24 208.16L57.94 219.92L68.80 223.23ZM104.10 244.91L101.41 233.15L90.54 229.84L82.36 238.30L85.05 250.06L95.92 253.37ZM85.05 250.06L82.36 238.30L71.50 234.99L63.32 243.45L66.02 255.21L76.88 258.51ZM109.59 224.69L106.90 212.92L96.03 209.61L87.85 218.07L90.54 229.84L101.41 233.15ZM172.32 189.03L169.64 177.24L158.75 173.92L150.55 182.39L153.23 194.17L164.11 197.49ZM153.23 194.17L150.55 182.39L139.67 179.07L131.47 187.53L134.16 199.31L145.04 202.63ZM177.84 168.78L175.16 156.99L164.27 153.67L156.07 162.14L158.75 173.92L169.64 177.24ZM158.75 173.92L156.07 162.14L145.18 158.82L136.98 167.29L139.67 179.07L150.55 182.39ZM185.88 204.13L183.20 192.35L172.32 189.03L164.11 197.49L166.80 209.27L177.68 212.59ZM166.80 209.27L164.11 197.49L153.23 194.17L145.04 202.63L147.72 214.40L158.60 217.72ZM191.41 183.89L188.73 172.10L177.84 168.78L169.64 177.24L172.32 189.03L183.20 192.35Z"/></svg>
