<svg xmlns="http://www.w3.org/2000/svg" width="256" height="256" viewBox="0 0 256 256"><path data-band="3" fill="#dc2626" fill-opacity="0.35" d="M238.27 267.37L235.66 255.82L225.02 252.44L217.00 260.61L219.61 272.16L230.24 275.54ZM262.37 242.86L259.76 231.31L249.11 227.92L241.08 236.10L243.69 247.65L254.33 251.03ZM243.69 247.65L241.08 236.10L230.44 232.72L222.41 240.89L225.02 252.44L235.66 255.82ZM267.80 223.13L265.19 211.57L254.54 208.19L246.50 216.37L249.11 227.92L259.76 231.31ZM249.11 227.92L246.50 216.37L235.86 212.99L227.83 221.16L230.44 232.72L241.08 236.10ZM275.61 257.81L273.01 246.25L262.37 242.86L254.33 251.03L256.94 262.59L267.58 265.97ZM256.94 262.59L254.33 251.03L243.69 247.65L235.66 255.82L238.27 267.37L248.91 270.75ZM1.92 53.41L-0.73 41.85L-11.38 38.52L-19.37 46.74L-16.72 58.29L-6.08 61.63ZM9.86 88.06L7.21 76.51L-3.43 73.18L-11.42 81.39L-8.77 92.94L1.87 96.27ZM15.21 68.30L12.56 56.74L1.92 53.41L-6.08 61.63L-3.43 73.18L7.21 76.51ZM1.76 181.92L-0.88 170.38L-11.51 167.05L-19.49 175.24L-16.84 186.78L-6.22 190.11ZM7.10 162.18L4.46 150.65L-6.17 147.31L-14.15 155.51L-11.51 167.05L-0.88 170.38ZM17.79 122.70L15.15 111.15L4.51 107.82L-3.48 116.02L-0.83 127.57L9.80 130.90ZM23.14 102.94L20.50 91.40L9.86 88.06L1.87 96.27L4.51 107.82L15.15 111.15ZM4.51 107.82L1.87 96.27L-8.77 92.94L-16.76 101.15L-14.11 112.69L-3.48 116.02ZM31.07 137.58L28.43 126.04L17.79 122.70L9.80 130.90L12.45 142.44L23.08 145.78ZM12.45 142.44L9.80 130.90L-0.83 127.57L-8.82 135.77L-6.17 147.31L4.46 150.65ZM36.42 117.83L33.78 106.28L23.14 102.94L15.15 111.15L17.79 122.70L28.43 126.04ZM17.98 -5.94L15.33 -17.50L4.67 -20.83L-3.33 -12.60L-0.68 -1.04L9.97 2.29ZM25.92 28.75L23.27 17.19L12.62 13.85L4.62 22.08L7.27 33.63L17.92 36.97ZM7.27 33.63L4.62 22.08L-6.03 18.74L-14.03 26.97L-11.38 38.52L-0.73 41.85ZM31.28 8.96L28.63 -2.60L17.98 -5.94L9.97 2.29L12.62 13.85L23.27 17.19ZM12.62 13.85L9.97 2.29L-0.68 -1.04L-8.68 7.19L-6.03 18.74L4.62 22.08ZM39.22 43.64L36.57 32.08L25.92 28.75L17.92 36.97L20.56 48.52L31.21 51.86ZM20.56 48.52L17.92 36.97L7.27 33.63L-0.73 41.85L1.92 53.41L12.56 56.74ZM44.58 23.86L41.94 12.30L31.28 8.96L23.27 17.19L25.92 28.75L36.57 32.08ZM68.62 -0.81L65.98 -12.38L55.32 -15.72L47.30 -7.49L49.95 4.08L60.61 7.42ZM49.95 4.08L47.30 -7.49L36.65 -10.83L28.63 -2.60L31.28 8.96L41.94 12.30ZM60.16 221.70L57.53 210.16L46.90 206.82L38.91 215.00L41.55 226.54L52.17 229.88ZM41.55 226.54L38.91 215.00L28.29 211.66L20.31 219.85L22.95 231.38L33.57 234.72ZM65.52 201.98L62.89 190.44L52.26 187.09L44.27 195.28L46.90 206.82L57.53 210.16ZM46.90 206.82L44.27 195.28L33.64 191.94L25.65 200.13L28.29 211.66L38.91 215.00ZM73.42 236.58L70.79 225.05L60.16 221.70L52.17 229.88L54.81 241.41L65.43 244.76ZM54.81 241.41L52.17 229.88L41.55 226.54L33.57 234.72L36.20 246.25L46.82 249.60ZM78.78 216.86L76.15 205.33L65.52 201.98L57.53 210.16L60.16 221.70L70.79 225.05ZM9.69 216.51L7.05 204.98L-3.57 201.64L-11.55 209.83L-8.91 221.36L1.71 224.70ZM15.03 196.79L12.39 185.25L1.76 181.92L-6.22 190.11L-3.57 201.64L7.05 204.98ZM22.95 231.38L20.31 219.85L9.69 216.51L1.71 224.70L4.35 236.22L14.97 239.56ZM4.35 236.22L1.71 224.70L-8.91 221.36L-16.88 229.55L-14.24 241.07L-3.62 244.41ZM28.29 211.66L25.65 200.13L15.03 196.79L7.05 204.98L9.69 216.51L20.31 219.85ZM89.52 177.40L86.89 165.86L76.25 162.51L68.25 170.70L70.88 182.25L81.52 185.60ZM70.88 182.25L68.25 170.70L57.62 167.35L49.62 175.55L52.26 187.09L62.89 190.44ZM94.89 157.66L92.26 146.12L81.62 142.76L73.61 150.96L76.25 162.51L86.89 165.86ZM76.25 162.51L73.61 150.96L62.98 147.61L54.98 155.81L57.62 167.35L68.25 170.70ZM102.78 192.30L100.15 180.76L89.52 177.40L81.52 185.60L84.15 197.14L94.78 200.49ZM84.15 197.14L81.52 185.60L70.88 182.25L62.89 190.44L65.52 201.98L76.15 205.33ZM108.16 172.57L105.53 161.02L94.89 157.66L86.89 165.86L89.52 177.40L100.15 180.76ZM38.99 172.20L36.35 160.67L25.72 157.32L17.73 165.52L20.37 177.06L31.00 180.40ZM20.37 177.06L17.73 165.52L7.10 162.18L-0.88 170.38L1.76 181.92L12.39 185.25ZM44.34 152.47L41.71 140.92L31.07 137.58L23.08 145.78L25.72 157.32L36.35 160.67ZM25.72 157.32L23.08 145.78L12.45 142.44L4.46 150.65L7.10 162.18L17.73 165.52ZM52.26 187.09L49.62 175.55L38.99 172.20L31.00 180.40L33.64 191.94L44.27 195.28ZM33.64 191.94L31.00 180.40L20.37 177.06L12.39 185.25L15.03 196.79L25.65 200.13ZM57.62 167.35L54.98 155.81L44.34 152.47L36.35 160.67L38.99 172.20L49.62 175.55ZM86.68 251.47L84.05 239.94L73.42 236.58L65.43 244.76L68.06 256.29L78.68 259.65ZM68.06 256.29L65.43 244.76L54.81 241.41L46.82 249.60L49.46 261.12L60.08 264.47ZM99.93 266.36L97.30 254.82L86.68 251.47L78.68 259.65L81.31 271.18L91.93 274.53ZM30.86 265.96L28.22 254.43L17.61 251.09L9.63 259.27L12.27 270.79L22.88 274.13ZM12.27 270.79L9.63 259.27L-0.98 255.93L-8.95 264.11L-6.31 275.63L4.30 278.97ZM36.20 246.25L33.57 234.72L22.95 231.38L14.97 239.56L17.61 251.09L28.22 254.43ZM17.61 251.09L14.97 239.56L4.35 236.22L-3.62 244.41L-0.98 255.93L9.63 259.27ZM49.46 261.12L46.82 249.60L36.20 246.25L28.22 254.43L30.86 265.96L41.48 269.30ZM110.67 226.93L108.04 215.39L97.41 212.03L89.41 220.22L92.04 231.75L102.67 235.11ZM92.04 231.75L89.41 220.22L78.78 216.86L70.79 225.05L73.42 236.58L84.05 239.94ZM116.05 207.20L113.42 195.66L102.78 192.30L94.78 200.49L97.41 212.03L108.04 215.39ZM97.41 212.03L94.78 200.49L84.15 197.14L76.15 205.33L78.78 216.86L89.41 220.22ZM123.92 241.83L121.30 230.29L110.67 226.93L102.67 235.11L105.30 246.65L115.92 250.01ZM105.30 246.65L102.67 235.11L92.04 231.75L84.05 239.94L86.68 251.47L97.30 254.82ZM129.31 222.11L126.68 210.56L116.05 207.20L108.04 215.39L110.67 226.93L121.30 230.29ZM187.71 262.03L185.09 250.48L174.46 247.11L166.44 255.29L169.06 266.83L179.69 270.20ZM169.06 266.83L166.44 255.29L155.81 251.92L147.81 260.09L150.43 271.63L161.05 275.00ZM137.18 256.73L134.55 245.19L123.92 241.83L115.92 250.01L118.55 261.54L129.17 264.90ZM118.55 261.54L115.92 250.01L105.30 246.65L97.30 254.82L99.93 266.36L110.55 269.72ZM228.60 49.58L225.98 38.00L215.31 34.63L207.26 42.84L209.89 54.41L220.55 57.79ZM209.89 54.41L207.26 42.84L196.60 39.47L188.55 47.68L191.18 59.25L201.84 62.62ZM234.04 29.79L231.42 18.20L220.74 14.83L212.69 23.04L215.31 34.63L225.98 38.00ZM215.31 34.63L212.69 23.04L202.02 19.67L193.97 27.89L196.60 39.47L207.26 42.84ZM241.89 64.54L239.27 52.95L228.60 49.58L220.55 57.79L223.17 69.36L233.84 72.74ZM223.17 69.36L220.55 57.79L209.89 54.41L201.84 62.62L204.46 74.20L215.13 77.57ZM247.33 44.75L244.71 33.16L234.04 29.79L225.98 38.00L228.60 49.58L239.27 52.95ZM177.89 44.31L175.26 32.73L164.59 29.37L156.56 37.58L159.19 49.16L169.85 52.52ZM159.19 49.16L156.56 37.58L145.89 34.22L137.86 42.44L140.49 54.01L151.15 57.37ZM183.30 24.52L180.68 12.94L170.01 9.58L161.97 17.79L164.59 29.37L175.26 32.73ZM164.59 29.37L161.97 17.79L151.30 14.43L143.26 22.65L145.89 34.22L156.56 37.58ZM191.18 59.25L188.55 47.68L177.89 44.31L169.85 52.52L172.47 64.09L183.14 67.46ZM172.47 64.09L169.85 52.52L159.19 49.16L151.15 57.37L153.78 68.94L164.44 72.30ZM196.60 39.47L193.97 27.89L183.30 24.52L175.26 32.73L177.89 44.31L188.55 47.68ZM258.21 5.15L255.60 -6.44L244.92 -9.82L236.86 -1.60L239.47 9.99L250.15 13.37ZM239.47 9.99L236.86 -1.60L226.18 -4.97L218.12 3.24L220.74 14.83L231.42 18.20ZM271.51 20.12L268.89 8.53L258.21 5.15L250.15 13.37L252.77 24.95L263.45 28.33ZM252.77 24.95L250.15 13.37L239.47 9.99L231.42 18.20L234.04 29.79L244.71 33.16ZM276.96 0.32L274.35 -11.27L263.66 -14.65L255.60 -6.44L258.21 5.15L268.89 8.53ZM207.45 -0.13L204.82 -11.71L194.15 -15.08L186.10 -6.86L188.72 4.72L199.40 8.09ZM188.72 4.72L186.10 -6.86L175.42 -10.22L167.38 -2.00L170.01 9.58L180.68 12.94ZM220.74 14.83L218.12 3.24L207.45 -0.13L199.40 8.09L202.02 19.67L212.69 23.04ZM202.02 19.67L199.40 8.09L188.72 4.72L180.68 12.94L183.30 24.52L193.97 27.89ZM226.18 -4.97L223.56 -16.56L212.88 -19.93L204.82 -11.71L207.45 -0.13L218.12 3.24ZM249.74 99.27L247.12 87.69L236.46 84.32L228.41 92.52L231.03 104.09L241.69 107.47ZM231.03 104.09L228.41 92.52L217.75 89.14L209.70 97.34L212.32 108.91L222.98 112.29ZM255.17 79.49L252.56 67.91L241.89 64.54L233.84 72.74L236.46 84.32L247.12 87.69ZM236.46 84.32L233.84 72.74L223.17 69.36L215.13 77.57L217.75 89.14L228.41 92.52ZM263.01 114.23L260.40 102.65L249.74 99.27L241.69 107.47L244.30 119.04L254.96 122.42ZM244.30 119.04L241.69 107.47L231.03 104.09L222.98 112.29L225.60 123.86L236.26 127.23ZM268.45 94.46L265.84 82.88L255.17 79.49L247.12 87.69L249.74 99.27L260.40 102.65ZM199.04 93.97L196.42 82.40L185.76 79.03L177.72 87.23L180.35 98.80L191.01 102.17ZM180.35 98.80L177.72 87.23L167.07 83.87L159.04 92.07L161.66 103.64L172.32 107.00ZM204.46 74.20L201.84 62.62L191.18 59.25L183.14 67.46L185.76 79.03L196.42 82.40ZM185.76 79.03L183.14 67.46L172.47 64.09L164.44 72.30L167.07 83.87L177.72 87.23ZM212.32 108.91L209.70 97.34L199.04 93.97L191.01 102.17L193.63 113.74L204.28 117.11ZM193.63 113.74L191.01 102.17L180.35 98.80L172.32 107.00L174.94 118.57L185.59 121.93ZM217.75 89.14L215.13 77.57L204.46 74.20L196.42 82.40L199.04 93.97L209.70 97.34ZM260.62 59.71L258.00 48.13L247.33 44.75L239.27 52.95L241.89 64.54L252.56 67.91ZM266.06 39.92L263.45 28.33L252.77 24.95L244.71 33.16L247.33 44.75L258.00 48.13ZM273.90 74.68L271.29 63.09L260.62 59.71L252.56 67.91L255.17 79.49L265.84 82.88ZM97.75 83.49L95.11 71.93L84.46 68.58L76.45 76.79L79.08 88.35L89.73 91.70ZM79.08 88.35L76.45 76.79L65.80 73.45L57.79 81.66L60.43 93.21L71.07 96.56ZM103.13 63.72L100.49 52.16L89.84 48.81L81.82 57.02L84.46 68.58L95.11 71.93ZM84.46 68.58L81.82 57.02L71.17 53.67L63.16 61.89L65.80 73.45L76.45 76.79ZM111.03 98.40L108.40 86.84L97.75 83.49L89.73 91.70L92.37 103.26L103.01 106.61ZM92.37 103.26L89.73 91.70L79.08 88.35L71.07 96.56L73.71 108.11L84.36 111.46ZM116.42 78.64L113.78 67.07L103.13 63.72L95.11 71.93L97.75 83.49L108.40 86.84ZM47.14 78.31L44.50 66.76L33.85 63.42L25.85 71.63L28.50 83.18L39.14 86.52ZM28.50 83.18L25.85 71.63L15.21 68.30L7.21 76.51L9.86 88.06L20.50 91.40ZM52.51 58.54L49.87 46.98L39.22 43.64L31.21 51.86L33.85 63.42L44.50 66.76ZM33.85 63.42L31.21 51.86L20.56 48.52L12.56 56.74L15.21 68.30L25.85 71.63ZM60.43 93.21L57.79 81.66L47.14 78.31L39.14 86.52L41.78 98.08L52.42 101.42ZM41.78 98.08L39.14 86.52L28.50 83.18L20.50 91.40L23.14 102.94L33.78 106.28ZM65.80 73.45L63.16 61.89L52.51 58.54L44.50 66.76L47.14 78.31L57.79 81.66ZM127.20 39.08L124.57 27.51L113.91 24.16L105.88 32.37L108.52 43.94L119.17 47.30ZM108.52 43.94L105.88 32.37L95.22 29.02L87.20 37.24L89.84 48.81L100.49 52.16ZM132.60 19.29L129.97 7.72L119.30 4.36L111.27 12.59L113.91 24.16L124.57 27.51ZM113.91 24.16L111.27 12.59L100.61 9.23L92.58 17.45L95.22 29.02L105.88 32.37ZM140.49 54.01L137.86 42.44L127.20 39.08L119.17 47.30L121.81 58.86L132.46 62.22ZM121.81 58.86L119.17 47.30L108.52 43.94L100.49 52.16L103.13 63.72L113.78 67.07ZM145.89 34.22L143.26 22.65L132.60 19.29L124.57 27.51L127.20 39.08L137.86 42.44ZM76.55 33.89L73.91 22.33L63.25 18.98L55.23 27.20L57.88 38.77L68.53 42.11ZM57.88 38.77L55.23 27.20L44.58 23.86L36.57 32.08L39.22 43.64L49.87 46.98ZM81.92 14.11L79.29 2.54L68.62 -0.81L60.61 7.42L63.25 18.98L73.91 22.33ZM63.25 18.98L60.61 7.42L49.95 4.08L41.94 12.30L44.58 23.86L55.23 27.20ZM89.84 48.81L87.20 37.24L76.55 33.89L68.53 42.11L71.17 53.67L81.82 57.02ZM71.17 53.67L68.53 42.11L57.88 38.77L49.87 46.98L52.51 58.54L63.16 61.89ZM95.22 29.02L92.58 17.45L81.92 14.11L73.91 22.33L76.55 33.89L87.20 37.24ZM118.92 133.08L116.29 121.52L105.65 118.16L97.63 126.37L100.27 137.92L110.91 141.27ZM100.27 137.92L97.63 126.37L86.99 123.01L78.98 131.21L81.62 142.76L92.26 146.12ZM124.31 113.32L121.68 101.76L111.03 98.40L103.01 106.61L105.65 118.16L116.29 121.52ZM105.65 118.16L103.01 106.61L92.37 103.26L84.36 111.46L86.99 123.01L97.63 126.37ZM132.20 147.99L129.57 136.43L118.92 133.08L110.91 141.27L113.54 152.82L124.18 156.18ZM113.54 152.82L110.91 141.27L100.27 137.92L92.26 146.12L94.89 157.66L105.53 161.02ZM137.59 128.24L134.96 116.68L124.31 113.32L116.29 121.52L118.92 133.08L129.57 136.43ZM68.34 127.87L65.71 116.32L55.06 112.97L47.06 121.17L49.70 132.72L60.34 136.07ZM49.70 132.72L47.06 121.17L36.42 117.83L28.43 126.04L31.07 137.58L41.71 140.92ZM73.71 108.11L71.07 96.56L60.43 93.21L52.42 101.42L55.06 112.97L65.71 116.32ZM55.06 112.97L52.42 101.42L41.78 98.08L33.78 106.28L36.42 117.83L47.06 121.17ZM81.62 142.76L78.98 131.21L68.34 127.87L60.34 136.07L62.98 147.61L73.61 150.96ZM62.98 147.61L60.34 136.07L49.70 132.72L41.71 140.92L44.34 152.47L54.98 155.81ZM86.99 123.01L84.36 111.46L73.71 108.11L65.71 116.32L68.34 127.87L78.98 131.21ZM148.38 88.71L145.75 77.14L135.10 73.79L127.07 81.99L129.70 93.56L140.35 96.91ZM129.70 93.56L127.07 81.99L116.42 78.64L108.40 86.84L111.03 98.40L121.68 101.76ZM153.78 68.94L151.15 57.37L140.49 54.01L132.46 62.22L135.10 73.79L145.75 77.14ZM135.10 73.79L132.46 62.22L121.81 58.86L113.78 67.07L116.42 78.64L127.07 81.99ZM161.66 103.64L159.04 92.07L148.38 88.71L140.35 96.91L142.98 108.48L153.63 111.84ZM142.98 108.48L140.35 96.91L129.70 93.56L121.68 101.76L124.31 113.32L134.96 116.68ZM167.07 83.87L164.44 72.30L153.78 68.94L145.75 77.14L148.38 88.71L159.04 92.07ZM156.71 -5.36L154.08 -16.95L143.40 -20.30L135.37 -12.08L138.00 -0.50L148.67 2.86ZM138.00 -0.50L135.37 -12.08L124.70 -15.43L116.67 -7.21L119.30 4.36L129.97 7.72ZM170.01 9.58L167.38 -2.00L156.71 -5.36L148.67 2.86L151.30 14.43L161.97 17.79ZM151.30 14.43L148.67 2.86L138.00 -0.50L129.97 7.72L132.60 19.29L143.26 22.65ZM87.31 -5.69L84.67 -17.26L74.00 -20.60L65.98 -12.38L68.62 -0.81L79.29 2.54ZM119.30 4.36L116.67 -7.21L106.00 -10.56L97.97 -2.34L100.61 9.23L111.27 12.59ZM100.61 9.23L97.97 -2.34L87.31 -5.69L79.29 2.54L81.92 14.11L92.58 17.45ZM270.84 148.95L268.23 137.38L257.57 133.99L249.53 142.18L252.14 153.75L262.80 157.13ZM252.14 153.75L249.53 142.18L238.87 138.80L230.83 146.99L233.44 158.56L244.10 161.94ZM276.29 129.19L273.68 117.61L263.01 114.23L254.96 122.42L257.57 133.99L268.23 137.38ZM257.57 133.99L254.96 122.42L244.30 119.04L236.26 127.23L238.87 138.80L249.53 142.18ZM265.41 168.70L262.80 157.13L252.14 153.75L244.10 161.94L246.71 173.50L257.36 176.88ZM273.23 203.40L270.62 191.83L259.97 188.45L251.93 196.63L254.54 208.19L265.19 211.57ZM190.66 187.93L188.05 176.37L177.40 173.00L169.38 181.19L172.00 192.74L182.64 196.11ZM172.00 192.74L169.38 181.19L158.73 177.82L150.72 186.01L153.34 197.56L163.98 200.92ZM196.07 168.18L193.45 156.62L182.81 153.25L174.78 161.44L177.40 173.00L188.05 176.37ZM177.40 173.00L174.78 161.44L164.13 158.08L156.11 166.27L158.73 177.82L169.38 181.19ZM203.93 202.85L201.31 191.30L190.66 187.93L182.64 196.11L185.26 207.66L195.90 211.03ZM185.26 207.66L182.64 196.11L172.00 192.74L163.98 200.92L166.60 212.47L177.24 215.84ZM209.34 183.11L206.72 171.56L196.07 168.18L188.05 176.37L190.66 187.93L201.31 191.30ZM140.08 182.64L137.45 171.09L126.81 167.73L118.80 175.92L121.43 187.47L132.06 190.83ZM121.43 187.47L118.80 175.92L108.16 172.57L100.15 180.76L102.78 192.30L113.42 195.66ZM145.47 162.90L142.84 151.35L132.20 147.99L124.18 156.18L126.81 167.73L137.45 171.09ZM126.81 167.73L124.18 156.18L113.54 152.82L105.53 161.02L108.16 172.57L118.80 175.92ZM153.34 197.56L150.72 186.01L140.08 182.64L132.06 190.83L134.69 202.38L145.33 205.74ZM134.69 202.38L132.06 190.83L121.43 187.47L113.42 195.66L116.05 207.20L126.68 210.56ZM158.73 177.82L156.11 166.27L145.47 162.90L137.45 171.09L140.08 182.64L150.72 186.01ZM220.17 143.62L217.56 132.05L206.90 128.68L198.87 136.87L201.49 148.43L212.14 151.81ZM201.49 148.43L198.87 136.87L188.21 133.50L180.18 141.69L182.81 153.25L193.45 156.62ZM225.60 123.86L222.98 112.29L212.32 108.91L204.28 117.11L206.90 128.68L217.56 132.05ZM206.90 128.68L204.28 117.11L193.63 113.74L185.59 121.93L188.21 133.50L198.87 136.87ZM233.44 158.56L230.83 146.99L220.17 143.62L212.14 151.81L214.75 163.37L225.41 166.74ZM214.75 163.37L212.14 151.81L201.49 148.43L193.45 156.62L196.07 168.18L206.72 171.56ZM238.87 138.80L236.26 127.23L225.60 123.86L217.56 132.05L220.17 143.62L230.83 146.99ZM169.53 138.33L166.91 126.76L156.26 123.40L148.24 131.60L150.86 143.16L161.51 146.52ZM150.86 143.16L148.24 131.60L137.59 128.24L129.57 136.43L132.20 147.99L142.84 151.35ZM174.94 118.57L172.32 107.00L161.66 103.64L153.63 111.84L156.26 123.40L166.91 126.76ZM156.26 123.40L153.63 111.84L142.98 108.48L134.96 116.68L137.59 128.24L148.24 131.60ZM182.81 153.25L180.18 141.69L169.53 138.33L161.51 146.52L164.13 158.08L174.78 161.44ZM164.13 158.08L161.51 146.52L150.86 143.16L142.84 151.35L145.47 162.90L156.11 166.27ZM188.21 133.50L185.59 121.93L174.94 118.57L166.91 126.76L169.53 138.33L180.18 141.69ZM211.77 237.51L209.16 225.96L198.52 222.59L190.49 230.76L193.11 242.31L203.75 245.69ZM193.11 242.31L190.49 230.76L179.86 227.39L171.84 235.57L174.46 247.11L185.09 250.48ZM217.18 217.78L214.57 206.23L203.93 202.85L195.90 211.03L198.52 222.59L209.16 225.96ZM198.52 222.59L195.90 211.03L185.26 207.66L177.24 215.84L179.86 227.39L190.49 230.76ZM225.02 252.44L222.41 240.89L211.77 237.51L203.75 245.69L206.36 257.23L217.00 260.61ZM206.36 257.23L203.75 245.69L193.11 242.31L185.09 250.48L187.71 262.03L198.34 265.40ZM230.44 232.72L227.83 221.16L217.18 217.78L209.16 225.96L211.77 237.51L222.41 240.89ZM161.20 232.20L158.58 220.65L147.95 217.29L139.94 225.47L142.56 237.01L153.19 240.38ZM142.56 237.01L139.94 225.47L129.31 222.11L121.30 230.29L123.92 241.83L134.55 245.19ZM166.60 212.47L163.98 200.92L153.34 197.56L145.33 205.74L147.95 217.29L158.58 220.65ZM147.95 217.29L145.33 205.74L134.69 202.38L126.68 210.56L129.31 222.11L139.94 225.47ZM174.46 247.11L171.84 235.57L161.20 232.20L153.19 240.38L155.81 251.92L166.44 255.29ZM155.81 251.92L153.19 240.38L142.56 237.01L134.55 245.19L137.18 256.73L147.81 260.09ZM179.86 227.39L177.24 215.84L166.60 212.47L158.58 220.65L161.20 232.20L171.84 235.57ZM241.28 193.25L238.67 181.69L228.02 178.31L219.99 186.49L222.60 198.05L233.25 201.43ZM222.60 198.05L219.99 186.49L209.34 183.11L201.31 191.30L203.93 202.85L214.57 206.23ZM246.71 173.50L244.10 161.94L233.44 158.56L225.41 166.74L228.02 178.31L238.67 181.69ZM228.02 178.31L225.41 166.74L214.75 163.37L206.72 171.56L209.34 183.11L219.99 186.49ZM254.54 208.19L251.93 196.63L241.28 193.25L233.25 201.43L235.86 212.99L246.50 216.37ZM235.86 212.99L233.25 201.43L222.60 198.05L214.57 206.23L217.18 217.78L227.83 221.16ZM259.97 188.45L257.36 176.88L246.71 173.50L238.67 181.69L241.28 193.25L251.93 196.63Z"/></svg>
