<svg xmlns="http://www.w3.org/2000/svg" width="256" height="256" viewBox="0 0 256 256"><path data-band="3" fill="#dc2626" fill-opacity="0.35" d="M170.11 192.89L167.51 181.41L156.94 178.03L148.99 186.13L151.59 197.60L162.15 200.98ZM151.59 197.60L148.99 186.13L138.43 182.75L130.47 190.84L133.08 202.31L143.64 205.69ZM175.47 173.32L172.87 161.84L162.30 158.46L154.34 166.55L156.94 178.03L167.51 181.41ZM156.94 178.03L154.34 166.55L143.78 163.18L135.82 171.28L138.43 182.75L148.99 186.13ZM183.27 207.74L180.67 196.27L170.11 192.89L162.15 200.98L164.75 212.45L175.31 215.83ZM164.75 212.45L162.15 200.98L151.59 197.60L143.64 205.69L146.24 217.16L156.80 220.54ZM188.63 188.18L186.04 176.70L175.47 173.32L167.51 181.41L170.11 192.89L180.67 196.27ZM119.92 187.47L117.31 176.00L106.75 172.63L98.80 180.73L101.41 192.19L111.97 195.56ZM101.41 192.19L98.80 180.73L88.25 177.36L80.30 185.46L82.92 196.92L93.47 200.29ZM125.26 167.90L122.65 156.43L112.09 153.06L104.14 161.16L106.75 172.63L117.31 176.00ZM106.75 172.63L104.14 161.16L93.58 157.79L85.63 165.89L88.25 177.36L98.80 180.73ZM133.08 202.31L130.47 190.84L119.92 187.47L111.97 195.56L114.58 207.03L125.13 210.40ZM114.58 207.03L111.97 195.56L101.41 192.19L93.47 200.29L96.08 211.75L106.63 215.12ZM138.43 182.75L135.82 171.28L125.26 167.90L117.31 176.00L119.92 187.47L130.47 190.84ZM199.37 149.02L196.77 137.54L186.20 134.15L178.23 142.26L180.83 153.74L191.40 157.12ZM180.83 153.74L178.23 142.26L167.66 138.87L159.70 146.98L162.30 158.46L172.87 161.84ZM204.75 129.44L202.15 117.95L191.57 114.56L183.60 122.67L186.20 134.15L196.77 137.54ZM186.20 134.15L183.60 122.67L173.03 119.29L165.06 127.39L167.66 138.87L178.23 142.26ZM212.54 163.90L209.95 152.41L199.37 149.02L191.40 157.12L194.00 168.60L204.57 171.99ZM194.00 168.60L191.40 157.12L180.83 153.74L172.87 161.84L175.47 173.32L186.04 176.70ZM217.92 144.31L215.32 132.82L204.75 129.44L196.77 137.54L199.37 149.02L209.95 152.41ZM149.13 143.60L146.52 132.12L135.95 128.74L128.00 136.85L130.60 148.33L141.17 151.70ZM130.60 148.33L128.00 136.85L117.43 133.48L109.48 141.58L112.09 153.06L122.65 156.43ZM154.49 124.01L151.88 112.53L141.31 109.15L133.35 117.26L135.95 128.74L146.52 132.12ZM135.95 128.74L133.35 117.26L122.78 113.89L114.82 122.00L117.43 133.48L128.00 136.85ZM162.30 158.46L159.70 146.98L149.13 143.60L141.17 151.70L143.78 163.18L154.34 166.55ZM143.78 163.18L141.17 151.70L130.60 148.33L122.65 156.43L125.26 167.90L135.82 171.28ZM167.66 138.87L165.06 127.39L154.49 124.01L146.52 132.12L149.13 143.60L159.70 146.98ZM191.06 242.16L188.47 230.69L177.91 227.30L169.95 235.39L172.55 246.86L183.11 250.24ZM172.55 246.86L169.95 235.39L159.40 232.01L151.45 240.09L154.05 251.56L164.60 254.94ZM196.43 222.60L193.83 211.13L183.27 207.74L175.31 215.83L177.91 227.30L188.47 230.69ZM177.91 227.30L175.31 215.83L164.75 212.45L156.80 220.54L159.40 232.01L169.95 235.39ZM204.22 257.02L201.62 245.55L191.06 242.16L183.11 250.24L185.70 261.71L196.26 265.10ZM185.70 261.71L183.11 250.24L172.55 246.86L164.60 254.94L167.20 266.40L177.75 269.79ZM209.58 237.47L206.99 225.99L196.43 222.60L188.47 230.69L191.06 242.16L201.62 245.55ZM140.89 236.71L138.29 225.25L127.74 221.87L119.79 229.96L122.40 241.42L132.95 244.80ZM122.40 241.42L119.79 229.96L109.24 226.59L101.30 234.68L103.91 246.13L114.45 249.51ZM146.24 217.16L143.64 205.69L133.08 202.31L125.13 210.40L127.74 221.87L138.29 225.25ZM127.74 221.87L125.13 210.40L114.58 207.03L106.63 215.12L109.24 226.59L119.79 229.96ZM154.05 251.56L151.45 240.09L140.89 236.71L132.95 244.80L135.55 256.26L146.10 259.64ZM135.55 256.26L132.95 244.80L122.40 241.42L114.45 249.51L117.06 260.97L127.61 264.34ZM159.40 232.01L156.80 220.54L146.24 217.16L138.29 225.25L140.89 236.71L151.45 240.09ZM220.33 198.34L217.74 186.86L207.17 183.47L199.20 191.56L201.80 203.04L212.36 206.43ZM201.80 203.04L199.20 191.56L188.63 188.18L180.67 196.27L183.27 207.74L193.83 211.13ZM225.71 178.77L223.11 167.29L212.54 163.90L204.57 171.99L207.17 183.47L217.74 186.86ZM207.17 183.47L204.57 171.99L194.00 168.60L186.04 176.70L188.63 188.18L199.20 191.56ZM233.49 213.21L230.90 201.73L220.33 198.34L212.36 206.43L214.96 217.91L225.52 221.30ZM214.96 217.91L212.36 206.43L201.80 203.04L193.83 211.13L196.43 222.60L206.99 225.99ZM238.87 193.65L236.28 182.16L225.71 178.77L217.74 186.86L220.33 198.34L230.90 201.73ZM40.64 225.94L38.02 214.48L27.48 211.12L19.55 219.22L22.17 230.67L32.71 234.03ZM22.17 230.67L19.55 219.22L9.01 215.87L1.09 223.96L3.72 235.41L14.25 238.76ZM45.95 206.39L43.33 194.93L32.78 191.57L24.86 199.67L27.48 211.12L38.02 214.48ZM27.48 211.12L24.86 199.67L14.31 196.31L6.39 204.41L9.01 215.87L19.55 219.22ZM53.80 240.75L51.18 229.30L40.64 225.94L32.71 234.03L35.33 245.48L45.87 248.84ZM35.33 245.48L32.71 234.03L22.17 230.67L14.25 238.76L16.87 250.21L27.41 253.57ZM59.11 221.21L56.50 209.75L45.95 206.39L38.02 214.48L40.64 225.94L51.18 229.30ZM3.72 235.41L1.09 223.96L-9.44 220.61L-17.36 228.71L-14.73 240.15L-4.20 243.50ZM9.01 215.87L6.39 204.41L-4.15 201.06L-12.07 209.16L-9.44 220.61L1.09 223.96ZM69.75 182.09L67.14 170.63L56.58 167.27L48.65 175.37L51.26 186.83L61.81 190.19ZM51.26 186.83L48.65 175.37L38.10 172.01L30.17 180.11L32.78 191.57L43.33 194.93ZM75.08 162.53L72.46 151.06L61.90 147.69L53.96 155.80L56.58 167.27L67.14 170.63ZM56.58 167.27L53.96 155.80L43.41 152.44L35.48 160.55L38.10 172.01L48.65 175.37ZM82.92 196.92L80.30 185.46L69.75 182.09L61.81 190.19L64.43 201.65L74.98 205.02ZM64.43 201.65L61.81 190.19L51.26 186.83L43.33 194.93L45.95 206.39L56.50 209.75ZM88.25 177.36L85.63 165.89L75.08 162.53L67.14 170.63L69.75 182.09L80.30 185.46ZM19.62 176.76L16.99 165.30L6.45 161.94L-1.48 170.05L1.15 181.50L11.69 184.86ZM1.15 181.50L-1.48 170.05L-12.02 166.70L-19.94 174.80L-17.32 186.26L-6.77 189.61ZM24.92 157.19L22.30 145.73L11.75 142.37L3.82 150.48L6.45 161.94L16.99 165.30ZM6.45 161.94L3.82 150.48L-6.73 147.13L-14.65 155.24L-12.02 166.70L-1.48 170.05ZM32.78 191.57L30.17 180.11L19.62 176.76L11.69 184.86L14.31 196.31L24.86 199.67ZM14.31 196.31L11.69 184.86L1.15 181.50L-6.77 189.61L-4.15 201.06L6.39 204.41ZM38.10 172.01L35.48 160.55L24.92 157.19L16.99 165.30L19.62 176.76L30.17 180.11ZM66.95 255.57L64.34 244.12L53.80 240.75L45.87 248.84L48.49 260.29L59.02 263.66ZM48.49 260.29L45.87 248.84L35.33 245.48L27.41 253.57L30.03 265.02L40.56 268.38ZM80.10 270.39L77.49 258.94L66.95 255.57L59.02 263.66L61.64 275.10L72.18 278.47ZM11.58 269.75L8.96 258.30L-1.58 254.95L-9.49 263.04L-6.87 274.48L3.66 277.83ZM16.87 250.21L14.25 238.76L3.72 235.41L-4.20 243.50L-1.58 254.95L8.96 258.30ZM30.03 265.02L27.41 253.57L16.87 250.21L8.96 258.30L11.58 269.75L22.11 273.10ZM90.75 231.30L88.14 219.85L77.59 216.48L69.66 224.57L72.27 236.03L82.82 239.39ZM72.27 236.03L69.66 224.57L59.11 221.21L51.18 229.30L53.80 240.75L64.34 244.12ZM96.08 211.75L93.47 200.29L82.92 196.92L74.98 205.02L77.59 216.48L88.14 219.85ZM77.59 216.48L74.98 205.02L64.43 201.65L56.50 209.75L59.11 221.21L69.66 224.57ZM103.91 246.13L101.30 234.68L90.75 231.30L82.82 239.39L85.43 250.85L95.97 254.22ZM85.43 250.85L82.82 239.39L72.27 236.03L64.34 244.12L66.95 255.57L77.49 258.94ZM109.24 226.59L106.63 215.12L96.08 211.75L88.14 219.85L90.75 231.30L101.30 234.68ZM207.71 55.75L205.11 44.25L194.52 40.87L186.53 48.98L189.14 60.48L199.72 63.86ZM189.14 60.48L186.53 48.98L175.95 45.60L167.97 53.72L170.58 65.22L181.16 68.60ZM213.09 36.13L210.49 24.63L199.90 21.24L191.91 29.36L194.52 40.87L205.11 44.25ZM194.52 40.87L191.91 29.36L181.32 25.98L173.34 34.10L175.95 45.60L186.53 48.98ZM220.90 70.64L218.30 59.14L207.71 55.75L199.72 63.86L202.33 75.36L212.91 78.75ZM202.33 75.36L199.72 63.86L189.14 60.48L181.16 68.60L183.76 80.09L194.35 83.47ZM226.28 51.02L223.68 39.52L213.09 36.13L205.11 44.25L207.71 55.75L218.30 59.14ZM157.39 50.34L154.78 38.85L144.20 35.47L136.22 43.60L138.84 55.09L149.42 58.46ZM138.84 55.09L136.22 43.60L125.64 40.23L117.68 48.35L120.29 59.84L130.87 63.21ZM162.76 30.73L160.15 19.23L149.56 15.85L141.58 23.98L144.20 35.47L154.78 38.85ZM144.20 35.47L141.58 23.98L131.00 20.61L123.03 28.73L125.64 40.23L136.22 43.60ZM170.58 65.22L167.97 53.72L157.39 50.34L149.42 58.46L152.02 69.95L162.60 73.33ZM152.02 69.95L149.42 58.46L138.84 55.09L130.87 63.21L133.48 74.70L144.06 78.07ZM175.95 45.60L173.34 34.10L162.76 30.73L154.78 38.85L157.39 50.34L167.97 53.72ZM237.07 11.77L234.47 0.26L223.87 -3.13L215.88 5.00L218.48 16.51L229.08 19.89ZM218.48 16.51L215.88 5.00L205.28 1.61L197.29 9.74L199.90 21.24L210.49 24.63ZM242.47 -7.86L239.87 -19.38L229.27 -22.77L221.27 -14.64L223.87 -3.13L234.47 0.26ZM223.87 -3.13L221.27 -14.64L210.67 -18.02L202.68 -9.90L205.28 1.61L215.88 5.00ZM250.27 26.67L247.67 15.16L237.07 11.77L229.08 19.89L231.68 31.40L242.27 34.79ZM231.68 31.40L229.08 19.89L218.48 16.51L210.49 24.63L213.09 36.13L223.68 39.52ZM255.67 7.04L253.07 -4.47L242.47 -7.86L234.47 0.26L237.07 11.77L247.67 15.16ZM186.70 6.36L184.10 -5.15L173.50 -8.53L165.52 -0.40L168.13 11.10L178.72 14.48ZM168.13 11.10L165.52 -0.40L154.93 -3.77L146.95 4.35L149.56 15.85L160.15 19.23ZM199.90 21.24L197.29 9.74L186.70 6.36L178.72 14.48L181.32 25.98L191.91 29.36ZM181.32 25.98L178.72 14.48L168.13 11.10L160.15 19.23L162.76 30.73L173.34 34.10ZM205.28 1.61L202.68 -9.90L192.08 -13.28L184.10 -5.15L186.70 6.36L197.29 9.74ZM228.69 105.13L226.09 93.63L215.51 90.24L207.53 98.35L210.13 109.84L220.71 113.23ZM210.13 109.84L207.53 98.35L196.95 94.97L188.97 103.07L191.57 114.56L202.15 117.95ZM234.08 85.52L231.48 74.02L220.90 70.64L212.91 78.75L215.51 90.24L226.09 93.63ZM215.51 90.24L212.91 78.75L202.33 75.36L194.35 83.47L196.95 94.97L207.53 98.35ZM241.87 120.01L239.27 108.52L228.69 105.13L220.71 113.23L223.30 124.72L233.88 128.11ZM223.30 124.72L220.71 113.23L210.13 109.84L202.15 117.95L204.75 129.44L215.32 132.82ZM247.26 100.41L244.66 88.92L234.08 85.52L226.09 93.63L228.69 105.13L239.27 108.52ZM178.39 99.69L175.79 88.20L165.21 84.82L157.24 92.93L159.85 104.42L170.42 107.80ZM159.85 104.42L157.24 92.93L146.66 89.56L138.70 97.67L141.31 109.15L151.88 112.53ZM183.76 80.09L181.16 68.60L170.58 65.22L162.60 73.33L165.21 84.82L175.79 88.20ZM165.21 84.82L162.60 73.33L152.02 69.95L144.06 78.07L146.66 89.56L157.24 92.93ZM191.57 114.56L188.97 103.07L178.39 99.69L170.42 107.80L173.03 119.29L183.60 122.67ZM173.03 119.29L170.42 107.80L159.85 104.42L151.88 112.53L154.49 124.01L165.06 127.39ZM196.95 94.97L194.35 83.47L183.76 80.09L175.79 88.20L178.39 99.69L188.97 103.07ZM258.06 61.19L255.46 49.69L244.87 46.30L236.87 54.41L239.47 65.91L250.06 69.31ZM239.47 65.91L236.87 54.41L226.28 51.02L218.30 59.14L220.90 70.64L231.48 74.02ZM263.46 41.57L260.86 30.06L250.27 26.67L242.27 34.79L244.87 46.30L255.46 49.69ZM244.87 46.30L242.27 34.79L231.68 31.40L223.68 39.52L226.28 51.02L236.87 54.41ZM271.24 76.09L268.65 64.59L258.06 61.19L250.06 69.31L252.66 80.81L263.24 84.20ZM252.66 80.81L250.06 69.31L239.47 65.91L231.48 74.02L234.08 85.52L244.66 88.92ZM276.65 56.48L274.06 44.97L263.46 41.57L255.46 49.69L258.06 61.19L268.65 64.59ZM77.89 88.94L75.27 77.46L64.70 74.10L56.75 82.22L59.37 93.69L69.94 97.06ZM59.37 93.69L56.75 82.22L46.19 78.86L38.24 86.98L40.87 98.45L51.43 101.81ZM83.22 69.34L80.61 57.86L70.03 54.50L62.08 62.62L64.70 74.10L75.27 77.46ZM64.70 74.10L62.08 62.62L51.51 59.26L43.56 67.38L46.19 78.86L56.75 82.22ZM91.07 103.78L88.46 92.30L77.89 88.94L69.94 97.06L72.56 108.53L83.12 111.90ZM72.56 108.53L69.94 97.06L59.37 93.69L51.43 101.81L54.05 113.28L64.61 116.64ZM96.41 84.19L93.80 72.71L83.22 69.34L75.27 77.46L77.89 88.94L88.46 92.30ZM27.68 83.62L25.06 72.15L14.49 68.80L6.55 76.92L9.18 88.39L19.74 91.74ZM9.18 88.39L6.55 76.92L-4.01 73.57L-11.94 81.69L-9.31 93.16L1.25 96.51ZM33.00 64.03L30.37 52.55L19.80 49.20L11.86 57.32L14.49 68.80L25.06 72.15ZM14.49 68.80L11.86 57.32L1.30 53.97L-6.64 62.10L-4.01 73.57L6.55 76.92ZM40.87 98.45L38.24 86.98L27.68 83.62L19.74 91.74L22.37 103.21L32.93 106.57ZM22.37 103.21L19.74 91.74L9.18 88.39L1.25 96.51L3.87 107.98L14.43 111.33ZM46.19 78.86L43.56 67.38L33.00 64.03L25.06 72.15L27.68 83.62L38.24 86.98ZM107.10 44.98L104.48 33.49L93.90 30.12L85.94 38.25L88.56 49.74L99.14 53.10ZM88.56 49.74L85.94 38.25L75.37 34.89L67.41 43.01L70.03 54.50L80.61 57.86ZM112.45 25.36L109.83 13.87L99.25 10.50L91.29 18.63L93.90 30.12L104.48 33.49ZM93.90 30.12L91.29 18.63L80.71 15.27L72.75 23.40L75.37 34.89L85.94 38.25ZM120.29 59.84L117.68 48.35L107.10 44.98L99.14 53.10L101.75 64.59L112.33 67.95ZM101.75 64.59L99.14 53.10L88.56 49.74L80.61 57.86L83.22 69.34L93.80 72.71ZM125.64 40.23L123.03 28.73L112.45 25.36L104.48 33.49L107.10 44.98L117.68 48.35ZM56.84 39.65L54.22 28.17L43.64 24.81L35.69 32.94L38.32 44.42L48.89 47.78ZM38.32 44.42L35.69 32.94L25.12 29.59L17.18 37.72L19.80 49.20L30.37 52.55ZM62.17 20.04L59.55 8.55L48.97 5.20L41.02 13.33L43.64 24.81L54.22 28.17ZM43.64 24.81L41.02 13.33L30.44 9.97L22.49 18.11L25.12 29.59L35.69 32.94ZM70.03 54.50L67.41 43.01L56.84 39.65L48.89 47.78L51.51 59.26L62.08 62.62ZM51.51 59.26L48.89 47.78L38.32 44.42L30.37 52.55L33.00 64.03L43.56 67.38ZM75.37 34.89L72.75 23.40L62.17 20.04L54.22 28.17L56.84 39.65L67.41 43.01ZM98.91 138.21L96.30 126.74L85.74 123.37L77.79 131.48L80.40 142.95L90.96 146.32ZM80.40 142.95L77.79 131.48L67.23 128.12L59.29 136.23L61.90 147.69L72.46 151.06ZM104.25 118.63L101.64 107.15L91.07 103.78L83.12 111.90L85.74 123.37L96.30 126.74ZM85.74 123.37L83.12 111.90L72.56 108.53L64.61 116.64L67.23 128.12L77.79 131.48ZM112.09 153.06L109.48 141.58L98.91 138.21L90.96 146.32L93.58 157.79L104.14 161.16ZM93.58 157.79L90.96 146.32L80.40 142.95L72.46 151.06L75.08 162.53L85.63 165.89ZM117.43 133.48L114.82 122.00L104.25 118.63L96.30 126.74L98.91 138.21L109.48 141.58ZM48.73 132.87L46.11 121.40L35.55 118.04L27.61 126.15L30.23 137.62L40.79 140.97ZM30.23 137.62L27.61 126.15L17.06 122.80L9.12 130.91L11.75 142.37L22.30 145.73ZM54.05 113.28L51.43 101.81L40.87 98.45L32.93 106.57L35.55 118.04L46.11 121.40ZM35.55 118.04L32.93 106.57L22.37 103.21L14.43 111.33L17.06 122.80L27.61 126.15ZM61.90 147.69L59.29 136.23L48.73 132.87L40.79 140.97L43.41 152.44L53.96 155.80ZM43.41 152.44L40.79 140.97L30.23 137.62L22.30 145.73L24.92 157.19L35.48 160.55ZM67.23 128.12L64.61 116.64L54.05 113.28L46.11 121.40L48.73 132.87L59.29 136.23ZM128.13 94.30L125.51 82.81L114.94 79.44L106.98 87.56L109.60 99.04L120.17 102.41ZM109.60 99.04L106.98 87.56L96.41 84.19L88.46 92.30L91.07 103.78L101.64 107.15ZM133.48 74.70L130.87 63.21L120.29 59.84L112.33 67.95L114.94 79.44L125.51 82.81ZM114.94 79.44L112.33 67.95L101.75 64.59L93.80 72.71L96.41 84.19L106.98 87.56ZM141.31 109.15L138.70 97.67L128.13 94.30L120.17 102.41L122.78 113.89L133.35 117.26ZM122.78 113.89L120.17 102.41L109.60 99.04L101.64 107.15L104.25 118.63L114.82 122.00ZM146.66 89.56L144.06 78.07L133.48 74.70L125.51 82.81L128.13 94.30L138.70 97.67ZM272.95 257.84L270.36 246.36L259.80 242.96L251.83 251.04L254.41 262.52L264.97 265.92ZM241.26 247.65L238.67 236.17L228.11 232.78L220.14 240.86L222.74 252.33L233.29 255.72ZM222.74 252.33L220.14 240.86L209.58 237.47L201.62 245.55L204.22 257.02L214.77 260.41ZM246.65 228.09L244.06 216.61L233.49 213.21L225.52 221.30L228.11 232.78L238.67 236.17ZM228.11 232.78L225.52 221.30L214.96 217.91L206.99 225.99L209.58 237.47L220.14 240.86ZM254.41 262.52L251.83 251.04L241.26 247.65L233.29 255.72L235.89 267.20L246.44 270.59ZM235.89 267.20L233.29 255.72L222.74 252.33L214.77 260.41L217.36 271.88L227.92 275.27ZM259.80 242.96L257.21 231.49L246.65 228.09L238.67 236.17L241.26 247.65L251.83 251.04ZM167.20 266.40L164.60 254.94L154.05 251.56L146.10 259.64L148.70 271.10L159.25 274.48ZM117.06 260.97L114.45 249.51L103.91 246.13L95.97 254.22L98.58 265.68L109.12 269.05ZM98.58 265.68L95.97 254.22L85.43 250.85L77.49 258.94L80.10 270.39L90.64 273.76ZM249.65 154.49L247.06 143.00L236.48 139.61L228.50 147.70L231.09 159.19L241.67 162.58ZM231.09 159.19L228.50 147.70L217.92 144.31L209.95 152.41L212.54 163.90L223.11 167.29ZM255.04 134.90L252.45 123.41L241.87 120.01L233.88 128.11L236.48 139.61L247.06 143.00ZM236.48 139.61L233.88 128.11L223.30 124.72L215.32 132.82L217.92 144.31L228.50 147.70ZM262.82 169.38L260.23 157.89L249.65 154.49L241.67 162.58L244.26 174.07L254.83 177.47ZM244.26 174.07L241.67 162.58L231.09 159.19L223.11 167.29L225.71 178.77L236.28 182.16ZM268.21 149.79L265.62 138.30L255.04 134.90L247.06 143.00L249.65 154.49L260.23 157.89ZM260.44 115.31L257.84 103.81L247.26 100.41L239.27 108.52L241.87 120.01L252.45 123.41ZM265.84 95.70L263.24 84.20L252.66 80.81L244.66 88.92L247.26 100.41L257.84 103.81ZM273.61 130.20L271.02 118.70L260.44 115.31L252.45 123.41L255.04 134.90L265.62 138.30ZM270.58 203.84L267.99 192.35L257.42 188.95L249.44 197.04L252.03 208.52L262.60 211.92ZM252.03 208.52L249.44 197.04L238.87 193.65L230.90 201.73L233.49 213.21L244.06 216.61ZM275.98 184.26L273.39 172.77L262.82 169.38L254.83 177.47L257.42 188.95L267.99 192.35ZM257.42 188.95L254.83 177.47L244.26 174.07L236.28 182.16L238.87 193.65L249.44 197.04ZM265.19 223.40L262.60 211.92L252.03 208.52L244.06 216.61L246.65 228.09L257.21 231.49ZM268.87 21.95L266.27 10.43L255.67 7.04L247.67 15.16L250.27 26.67L260.86 30.06ZM274.28 2.31L271.68 -9.20L261.08 -12.60L253.07 -4.47L255.67 7.04L266.27 10.43ZM3.87 107.98L1.25 96.51L-9.31 93.16L-17.24 101.28L-14.61 112.75L-4.06 116.09ZM11.75 142.37L9.12 130.91L-1.43 127.56L-9.36 135.67L-6.73 147.13L3.82 150.48ZM17.06 122.80L14.43 111.33L3.87 107.98L-4.06 116.09L-1.43 127.56L9.12 130.91ZM136.36 0.98L133.75 -10.52L123.16 -13.89L115.19 -5.76L117.80 5.74L128.39 9.11ZM117.80 5.74L115.19 -5.76L104.60 -9.12L96.63 -0.99L99.25 10.50L109.83 13.87ZM149.56 15.85L146.95 4.35L136.36 0.98L128.39 9.11L131.00 20.61L141.58 23.98ZM131.00 20.61L128.39 9.11L117.80 5.74L109.83 13.87L112.45 25.36L123.03 28.73ZM154.93 -3.77L152.32 -15.28L141.72 -18.65L133.75 -10.52L136.36 0.98L146.95 4.35ZM86.05 -4.35L83.43 -15.85L72.84 -19.21L64.88 -11.07L67.51 0.42L78.09 3.78ZM67.51 0.42L64.88 -11.07L54.30 -14.43L46.35 -6.29L48.97 5.20L59.55 8.55ZM99.25 10.50L96.63 -0.99L86.05 -4.35L78.09 3.78L80.71 15.27L91.29 18.63ZM80.71 15.27L78.09 3.78L67.51 0.42L59.55 8.55L62.17 20.04L72.75 23.40ZM6.61 34.37L3.98 22.89L-6.59 19.54L-14.53 27.67L-11.90 39.15L-1.33 42.50ZM11.92 14.76L9.29 3.27L-1.28 -0.07L-9.22 8.06L-6.59 19.54L3.98 22.89ZM19.80 49.20L17.18 37.72L6.61 34.37L-1.33 42.50L1.30 53.97L11.86 57.32ZM1.30 53.97L-1.33 42.50L-11.90 39.15L-19.83 47.28L-17.20 58.75L-6.64 62.10ZM25.12 29.59L22.49 18.11L11.92 14.76L3.98 22.89L6.61 34.37L17.18 37.72ZM17.24 -4.86L14.61 -16.35L4.03 -19.70L-3.91 -11.56L-1.28 -0.07L9.29 3.27ZM48.97 5.20L46.35 -6.29L35.77 -9.65L27.82 -1.51L30.44 9.97L41.02 13.33ZM30.44 9.97L27.82 -1.51L17.24 -4.86L9.29 3.27L11.92 14.76L22.49 18.11Z"/></svg>
