<svg xmlns="http://www.w3.org/2000/svg" width="256" height="256" viewBox="0 0 256 256"><path data-band="2" fill="#f97316" fill-opacity="0.35" d="M266.26 19.86L263.69 8.42L253.17 5.02L245.23 13.05L247.80 24.48L258.32 27.88ZM271.63 0.39L269.06 -11.05L258.53 -14.45L250.59 -6.42L253.17 5.02L263.69 8.42ZM268.62 73.60L266.05 62.17L255.54 58.77L247.60 66.79L250.18 78.21L260.69 81.62ZM273.99 54.15L271.41 42.72L260.90 39.32L252.96 47.34L255.54 58.77L266.05 62.17ZM260.26 166.14L257.69 154.73L247.19 151.32L239.27 159.32L241.85 170.73L252.34 174.14ZM265.62 146.73L263.05 135.31L252.55 131.90L244.62 139.91L247.19 151.32L257.69 154.73ZM273.33 180.96L270.76 169.55L260.26 166.14L252.34 174.14L254.91 185.55L265.40 188.96ZM241.85 170.73L239.27 159.32L228.78 155.92L220.86 163.92L223.43 175.33L233.93 178.73ZM223.43 175.33L220.86 163.92L210.37 160.52L202.45 168.52L205.03 179.92L215.52 183.33ZM247.19 151.32L244.62 139.91L234.12 136.50L226.20 144.51L228.78 155.92L239.27 159.32ZM257.90 112.47L255.33 101.05L244.82 97.65L236.89 105.66L239.47 117.08L249.97 120.48ZM263.26 93.04L260.69 81.62L250.18 78.21L242.24 86.23L244.82 97.65L255.33 101.05ZM244.82 97.65L242.24 86.23L231.74 82.82L223.81 90.84L226.39 102.25L236.89 105.66ZM270.98 127.30L268.41 115.88L257.90 112.47L249.97 120.48L252.55 131.90L263.05 135.31ZM252.55 131.90L249.97 120.48L239.47 117.08L231.54 125.09L234.12 136.50L244.62 139.91ZM276.34 107.87L273.77 96.45L263.26 93.04L255.33 101.05L257.90 112.47L268.41 115.88ZM249.56 204.95L246.99 193.54L236.50 190.14L228.58 198.13L231.16 209.54L241.65 212.94ZM231.16 209.54L228.58 198.13L218.10 194.73L210.19 202.72L212.76 214.12L223.25 217.53ZM254.91 185.55L252.34 174.14L241.85 170.73L233.93 178.73L236.50 190.14L246.99 193.54ZM236.50 190.14L233.93 178.73L223.43 175.33L215.52 183.33L218.10 194.73L228.58 198.13ZM262.62 219.77L260.05 208.36L249.56 204.95L241.65 212.94L244.22 224.34L254.70 227.76ZM244.22 224.34L241.65 212.94L231.16 209.54L223.25 217.53L225.82 228.93L236.30 232.33ZM267.97 200.37L265.40 188.96L254.91 185.55L246.99 193.54L249.56 204.95L260.05 208.36ZM218.10 194.73L215.52 183.33L205.03 179.92L197.12 187.92L199.70 199.32L210.19 202.72ZM270.33 253.97L267.76 242.57L257.27 239.16L249.36 247.14L251.93 258.54L262.41 261.95ZM251.93 258.54L249.36 247.14L238.88 243.73L230.97 251.72L233.54 263.11L244.02 266.52ZM275.68 234.58L273.11 223.18L262.62 219.77L254.70 227.76L257.27 239.16L267.76 242.57ZM257.27 239.16L254.70 227.76L244.22 224.34L236.30 232.33L238.88 243.73L249.36 247.14ZM220.49 248.31L217.91 236.92L207.43 233.51L199.53 241.50L202.10 252.89L212.58 256.30ZM225.82 228.93L223.25 217.53L212.76 214.12L204.85 222.12L207.43 233.51L217.91 236.92ZM233.54 263.11L230.97 251.72L220.49 248.31L212.58 256.30L215.15 267.69L225.63 271.10ZM215.15 267.69L212.58 256.30L202.10 252.89L194.20 260.88L196.78 272.27L207.25 275.67ZM238.88 243.73L236.30 232.33L225.82 228.93L217.91 236.92L220.49 248.31L230.97 251.72Z"/><path data-band="3" fill="#dc2626" fill-opacity="0.35" d="M247.80 24.48L245.23 13.05L234.71 9.64L226.77 17.67L229.35 29.10L239.87 32.50ZM253.17 5.02L250.59 -6.42L240.07 -9.82L232.13 -1.79L234.71 9.64L245.23 13.05ZM260.90 39.32L258.32 27.88L247.80 24.48L239.87 32.50L242.45 43.93L252.96 47.34ZM187.13 57.80L184.55 46.38L174.04 42.99L166.12 51.02L168.71 62.43L179.21 65.83ZM168.71 62.43L166.12 51.02L155.62 47.62L147.70 55.65L150.29 67.06L160.80 70.46ZM192.47 38.36L189.88 26.93L179.37 23.54L171.45 31.57L174.04 42.99L184.55 46.38ZM174.04 42.99L171.45 31.57L160.94 28.18L153.03 36.21L155.62 47.62L166.12 51.02ZM200.22 72.62L197.64 61.20L187.13 57.80L179.21 65.83L181.80 77.24L192.30 80.64ZM181.80 77.24L179.21 65.83L168.71 62.43L160.80 70.46L163.38 81.87L173.88 85.26ZM205.56 53.18L202.98 41.75L192.47 38.36L184.55 46.38L187.13 57.80L197.64 61.20ZM137.20 52.26L134.61 40.85L124.11 37.46L116.20 45.49L118.80 56.91L129.30 60.29ZM118.80 56.91L116.20 45.49L105.70 42.11L97.80 50.14L100.40 61.55L110.89 64.93ZM142.52 32.82L139.93 21.40L129.43 18.02L121.52 26.05L124.11 37.46L134.61 40.85ZM124.11 37.46L121.52 26.05L111.01 22.67L103.11 30.70L105.70 42.11L116.20 45.49ZM150.29 67.06L147.70 55.65L137.20 52.26L129.30 60.29L131.89 71.70L142.38 75.09ZM131.89 71.70L129.30 60.29L118.80 56.91L110.89 64.93L113.49 76.34L123.98 79.72ZM155.62 47.62L153.03 36.21L142.52 32.82L134.61 40.85L137.20 52.26L147.70 55.65ZM216.25 14.27L213.67 2.84L203.16 -0.56L195.23 7.48L197.81 18.90L208.32 22.30ZM197.81 18.90L195.23 7.48L184.71 4.08L176.79 12.11L179.37 23.54L189.88 26.93ZM221.61 -5.19L219.02 -16.63L208.50 -20.02L200.57 -11.99L203.16 -0.56L213.67 2.84ZM203.16 -0.56L200.57 -11.99L190.05 -15.38L182.12 -7.35L184.71 4.08L195.23 7.48ZM229.35 29.10L226.77 17.67L216.25 14.27L208.32 22.30L210.91 33.73L221.42 37.13ZM210.91 33.73L208.32 22.30L197.81 18.90L189.88 26.93L192.47 38.36L202.98 41.75ZM234.71 9.64L232.13 -1.79L221.61 -5.19L213.67 2.84L216.25 14.27L226.77 17.67ZM166.28 8.72L163.69 -2.70L153.17 -6.09L145.25 1.95L147.85 13.37L158.36 16.76ZM147.85 13.37L145.25 1.95L134.75 -1.44L126.83 6.60L129.43 18.02L139.93 21.40ZM153.17 -6.09L150.58 -17.52L140.07 -20.90L132.15 -12.86L134.75 -1.44L145.25 1.95ZM179.37 23.54L176.79 12.11L166.28 8.72L158.36 16.76L160.94 28.18L171.45 31.57ZM160.94 28.18L158.36 16.76L147.85 13.37L139.93 21.40L142.52 32.82L153.03 36.21ZM184.71 4.08L182.12 -7.35L171.61 -10.74L163.69 -2.70L166.28 8.72L176.79 12.11ZM207.97 106.87L205.38 95.45L194.88 92.05L186.97 100.07L189.55 111.48L200.05 114.88ZM189.55 111.48L186.97 100.07L176.47 96.67L168.56 104.69L171.14 116.10L181.64 119.49ZM213.31 87.44L210.73 76.02L200.22 72.62L192.30 80.64L194.88 92.05L205.38 95.45ZM194.88 92.05L192.30 80.64L181.80 77.24L173.88 85.26L176.47 96.67L186.97 100.07ZM221.04 121.68L218.47 110.27L207.97 106.87L200.05 114.88L202.63 126.29L213.12 129.69ZM202.63 126.29L200.05 114.88L189.55 111.48L181.64 119.49L184.22 130.90L194.71 134.30ZM226.39 102.25L223.81 90.84L213.31 87.44L205.38 95.45L207.97 106.87L218.47 110.27ZM158.06 101.30L155.47 89.89L144.97 86.50L137.07 94.52L139.66 105.93L150.15 109.31ZM139.66 105.93L137.07 94.52L126.57 91.13L118.67 99.15L121.26 110.56L131.76 113.94ZM163.38 81.87L160.80 70.46L150.29 67.06L142.38 75.09L144.97 86.50L155.47 89.89ZM144.97 86.50L142.38 75.09L131.89 71.70L123.98 79.72L126.57 91.13L137.07 94.52ZM171.14 116.10L168.56 104.69L158.06 101.30L150.15 109.31L152.74 120.72L163.23 124.11ZM152.74 120.72L150.15 109.31L139.66 105.93L131.76 113.94L134.35 125.35L144.83 128.73ZM176.47 96.67L173.88 85.26L163.38 81.87L155.47 89.89L158.06 101.30L168.56 104.69ZM237.09 63.38L234.51 51.95L224.00 48.55L216.07 56.58L218.65 68.00L229.16 71.40ZM218.65 68.00L216.07 56.58L205.56 53.18L197.64 61.20L200.22 72.62L210.73 76.02ZM242.45 43.93L239.87 32.50L229.35 29.10L221.42 37.13L224.00 48.55L234.51 51.95ZM224.00 48.55L221.42 37.13L210.91 33.73L202.98 41.75L205.56 53.18L216.07 56.58ZM250.18 78.21L247.60 66.79L237.09 63.38L229.16 71.40L231.74 82.82L242.24 86.23ZM231.74 82.82L229.16 71.40L218.65 68.00L210.73 76.02L213.31 87.44L223.81 90.84ZM255.54 58.77L252.96 47.34L242.45 43.93L234.51 51.95L237.09 63.38L247.60 66.79ZM228.78 155.92L226.20 144.51L215.70 141.10L207.79 149.11L210.37 160.52L220.86 163.92ZM210.37 160.52L207.79 149.11L197.29 145.71L189.38 153.72L191.96 165.12L202.45 168.52ZM234.12 136.50L231.54 125.09L221.04 121.68L213.12 129.69L215.70 141.10L226.20 144.51ZM215.70 141.10L213.12 129.69L202.63 126.29L194.71 134.30L197.29 145.71L207.79 149.11ZM239.47 117.08L236.89 105.66L226.39 102.25L218.47 110.27L221.04 121.68L231.54 125.09ZM0.69 50.64L-1.92 39.24L-12.41 35.88L-20.28 43.92L-17.67 55.31L-7.19 58.67ZM5.96 31.20L3.35 19.80L-7.14 16.44L-15.02 24.48L-12.41 35.88L-1.92 39.24ZM16.51 -7.69L13.90 -19.10L3.40 -22.46L-4.48 -14.41L-1.87 -3.00L8.62 0.36ZM29.62 7.09L27.01 -4.32L16.51 -7.69L8.62 0.36L11.23 11.76L21.73 15.13ZM11.23 11.76L8.62 0.36L-1.87 -3.00L-9.75 5.04L-7.14 16.44L3.35 19.80ZM58.33 90.28L55.73 78.88L45.24 75.51L37.36 83.53L39.96 94.93L50.45 98.30ZM39.96 94.93L37.36 83.53L26.88 80.16L19.00 88.19L21.60 99.59L32.08 102.95ZM63.62 70.85L61.02 59.45L50.53 56.08L42.64 64.11L45.24 75.51L55.73 78.88ZM45.24 75.51L42.64 64.11L32.15 60.74L24.27 68.77L26.88 80.16L37.36 83.53ZM71.42 105.05L68.82 93.65L58.33 90.28L50.45 98.30L53.05 109.70L63.53 113.07ZM53.05 109.70L50.45 98.30L39.96 94.93L32.08 102.95L34.69 114.35L45.17 117.72ZM76.71 85.63L74.11 74.23L63.62 70.85L55.73 78.88L58.33 90.28L68.82 93.65ZM8.51 84.83L5.91 73.43L-4.58 70.07L-12.45 78.10L-9.84 89.49L0.64 92.85ZM13.78 65.40L11.18 54.00L0.69 50.64L-7.19 58.67L-4.58 70.07L5.91 73.43ZM21.60 99.59L19.00 88.19L8.51 84.83L0.64 92.85L3.25 104.24L13.73 107.61ZM3.25 104.24L0.64 92.85L-9.84 89.49L-17.71 97.52L-15.10 108.91L-4.62 112.27ZM26.88 80.16L24.27 68.77L13.78 65.40L5.91 73.43L8.51 84.83L19.00 88.19ZM87.30 46.76L84.71 35.35L74.21 31.98L66.31 40.01L68.91 51.42L79.41 54.79ZM68.91 51.42L66.31 40.01L55.82 36.64L47.93 44.67L50.53 56.08L61.02 59.45ZM92.61 27.32L90.01 15.91L79.51 12.53L71.61 20.57L74.21 31.98L84.71 35.35ZM74.21 31.98L71.61 20.57L61.11 17.20L53.21 25.23L55.82 36.64L66.31 40.01ZM100.40 61.55L97.80 50.14L87.30 46.76L79.41 54.79L82.01 66.20L92.50 69.58ZM82.01 66.20L79.41 54.79L68.91 51.42L61.02 59.45L63.62 70.85L74.11 74.23ZM105.70 42.11L103.11 30.70L92.61 27.32L84.71 35.35L87.30 46.76L97.80 50.14ZM37.43 41.30L34.83 29.90L24.34 26.53L16.45 34.57L19.06 45.97L29.55 49.34ZM19.06 45.97L16.45 34.57L5.96 31.20L-1.92 39.24L0.69 50.64L11.18 54.00ZM42.72 21.86L40.11 10.45L29.62 7.09L21.73 15.13L24.34 26.53L34.83 29.90ZM24.34 26.53L21.73 15.13L11.23 11.76L3.35 19.80L5.96 31.20L16.45 34.57ZM50.53 56.08L47.93 44.67L37.43 41.30L29.55 49.34L32.15 60.74L42.64 64.11ZM32.15 60.74L29.55 49.34L19.06 45.97L11.18 54.00L13.78 65.40L24.27 68.77ZM55.82 36.64L53.21 25.23L42.72 21.86L34.83 29.90L37.43 41.30L47.93 44.67ZM79.21 139.24L76.61 127.84L66.13 124.47L58.25 132.48L60.85 143.88L71.32 147.25ZM60.85 143.88L58.25 132.48L47.77 129.11L39.89 137.13L42.49 148.52L52.97 151.89ZM84.50 119.83L81.90 108.43L71.42 105.05L63.53 113.07L66.13 124.47L76.61 127.84ZM66.13 124.47L63.53 113.07L53.05 109.70L45.17 117.72L47.77 129.11L58.25 132.48ZM92.28 154.01L89.69 142.62L79.21 139.24L71.32 147.25L73.92 158.64L84.40 162.02ZM73.92 158.64L71.32 147.25L60.85 143.88L52.97 151.89L55.56 163.28L66.04 166.65ZM97.58 134.60L94.99 123.21L84.50 119.83L76.61 127.84L79.21 139.24L89.69 142.62ZM29.41 133.76L26.81 122.37L16.33 119.00L8.46 127.02L11.06 138.41L21.54 141.77ZM11.06 138.41L8.46 127.02L-2.02 123.65L-9.88 131.68L-7.28 143.06L3.19 146.42ZM34.69 114.35L32.08 102.95L21.60 99.59L13.73 107.61L16.33 119.00L26.81 122.37ZM16.33 119.00L13.73 107.61L3.25 104.24L-4.62 112.27L-2.02 123.65L8.46 127.02ZM42.49 148.52L39.89 137.13L29.41 133.76L21.54 141.77L24.14 153.16L34.61 156.53ZM24.14 153.16L21.54 141.77L11.06 138.41L3.19 146.42L5.80 157.81L16.27 161.17ZM47.77 129.11L45.17 117.72L34.69 114.35L26.81 122.37L29.41 133.76L39.89 137.13ZM108.18 95.77L105.59 84.36L95.09 80.98L87.20 89.01L89.80 100.41L100.28 103.79ZM89.80 100.41L87.20 89.01L76.71 85.63L68.82 93.65L71.42 105.05L81.90 108.43ZM113.49 76.34L110.89 64.93L100.40 61.55L92.50 69.58L95.09 80.98L105.59 84.36ZM95.09 80.98L92.50 69.58L82.01 66.20L74.11 74.23L76.71 85.63L87.20 89.01ZM121.26 110.56L118.67 99.15L108.18 95.77L100.28 103.79L102.88 115.19L113.37 118.57ZM102.88 115.19L100.28 103.79L89.80 100.41L81.90 108.43L84.50 119.83L94.99 123.21ZM126.57 91.13L123.98 79.72L113.49 76.34L105.59 84.36L108.18 95.77L118.67 99.15ZM116.32 3.21L113.73 -8.21L103.22 -11.59L95.31 -3.55L97.91 7.87L108.42 11.25ZM97.91 7.87L95.31 -3.55L84.81 -6.92L76.91 1.12L79.51 12.53L90.01 15.91ZM129.43 18.02L126.83 6.60L116.32 3.21L108.42 11.25L111.01 22.67L121.52 26.05ZM111.01 22.67L108.42 11.25L97.91 7.87L90.01 15.91L92.61 27.32L103.11 30.70ZM134.75 -1.44L132.15 -12.86L121.64 -16.25L113.73 -8.21L116.32 3.21L126.83 6.60ZM66.40 -2.26L63.80 -13.67L53.30 -17.04L45.40 -9.00L48.01 2.41L58.51 5.78ZM48.01 2.41L45.40 -9.00L34.90 -12.37L27.01 -4.32L29.62 7.09L40.11 10.45ZM79.51 12.53L76.91 1.12L66.40 -2.26L58.51 5.78L61.11 17.20L71.61 20.57ZM61.11 17.20L58.51 5.78L48.01 2.41L40.11 10.45L42.72 21.86L53.21 25.23ZM84.81 -6.92L82.21 -18.34L71.70 -21.71L63.80 -13.67L66.40 -2.26L76.91 1.12ZM147.00 266.66L144.42 255.28L133.95 251.89L126.06 259.88L128.65 271.26L139.11 274.65ZM97.25 261.09L94.66 249.72L84.19 246.33L76.32 254.33L78.91 265.70L89.37 269.08ZM78.91 265.70L76.32 254.33L65.86 250.95L57.99 258.94L60.58 270.31L71.04 273.69ZM149.87 193.73L147.28 182.34L136.80 178.95L128.91 186.95L131.49 198.34L141.97 201.73ZM131.49 198.34L128.91 186.95L118.43 183.56L110.54 191.57L113.13 202.96L123.60 206.34ZM155.18 174.34L152.59 162.94L142.11 159.55L134.21 167.55L136.80 178.95L147.28 182.34ZM136.80 178.95L134.21 167.55L123.73 164.16L115.84 172.17L118.43 183.56L128.91 186.95ZM162.93 208.52L160.35 197.13L149.87 193.73L141.97 201.73L144.56 213.12L155.03 216.52ZM144.56 213.12L141.97 201.73L131.49 198.34L123.60 206.34L126.19 217.73L136.66 221.12ZM168.25 189.13L165.66 177.73L155.18 174.34L147.28 182.34L149.87 193.73L160.35 197.13ZM100.06 188.18L97.47 176.79L86.99 173.41L79.11 181.42L81.70 192.81L92.18 196.19ZM81.70 192.81L79.11 181.42L68.64 178.04L60.76 186.05L63.35 197.43L73.82 200.81ZM105.36 168.79L102.77 157.39L92.28 154.01L84.40 162.02L86.99 173.41L97.47 176.79ZM86.99 173.41L84.40 162.02L73.92 158.64L66.04 166.65L68.64 178.04L79.11 181.42ZM113.13 202.96L110.54 191.57L100.06 188.18L92.18 196.19L94.77 207.57L105.24 210.96ZM94.77 207.57L92.18 196.19L81.70 192.81L73.82 200.81L76.42 212.19L86.89 215.57ZM118.43 183.56L115.84 172.17L105.36 168.79L97.47 176.79L100.06 188.18L110.54 191.57ZM178.89 150.32L176.31 138.91L165.82 135.52L157.91 143.53L160.50 154.93L170.98 158.32ZM160.50 154.93L157.91 143.53L147.42 140.14L139.52 148.15L142.11 159.55L152.59 162.94ZM184.22 130.90L181.64 119.49L171.14 116.10L163.23 124.11L165.82 135.52L176.31 138.91ZM165.82 135.52L163.23 124.11L152.74 120.72L144.83 128.73L147.42 140.14L157.91 143.53ZM191.96 165.12L189.38 153.72L178.89 150.32L170.98 158.32L173.57 169.73L184.05 173.12ZM173.57 169.73L170.98 158.32L160.50 154.93L152.59 162.94L155.18 174.34L165.66 177.73ZM197.29 145.71L194.71 134.30L184.22 130.90L176.31 138.91L178.89 150.32L189.38 153.72ZM129.04 144.76L126.45 133.36L115.96 129.97L108.06 137.99L110.66 149.38L121.14 152.77ZM110.66 149.38L108.06 137.99L97.58 134.60L89.69 142.62L92.28 154.01L102.77 157.39ZM134.35 125.35L131.76 113.94L121.26 110.56L113.37 118.57L115.96 129.97L126.45 133.36ZM115.96 129.97L113.37 118.57L102.88 115.19L94.99 123.21L97.58 134.60L108.06 137.99ZM142.11 159.55L139.52 148.15L129.04 144.76L121.14 152.77L123.73 164.16L134.21 167.55ZM123.73 164.16L121.14 152.77L110.66 149.38L102.77 157.39L105.36 168.79L115.84 172.17ZM147.42 140.14L144.83 128.73L134.35 125.35L126.45 133.36L129.04 144.76L139.52 148.15ZM170.67 242.69L168.09 231.30L157.62 227.91L149.72 235.90L152.31 247.29L162.78 250.68ZM152.31 247.29L149.72 235.90L139.25 232.51L131.36 240.50L133.95 251.89L144.42 255.28ZM175.99 223.31L173.41 211.92L162.93 208.52L155.03 216.52L157.62 227.91L168.09 231.30ZM157.62 227.91L155.03 216.52L144.56 213.12L136.66 221.12L139.25 232.51L149.72 235.90ZM183.73 257.48L181.15 246.09L170.67 242.69L162.78 250.68L165.36 262.07L175.83 265.47ZM165.36 262.07L162.78 250.68L152.31 247.29L144.42 255.28L147.00 266.66L157.47 270.06ZM189.05 238.10L186.47 226.71L175.99 223.31L168.09 231.30L170.67 242.69L181.15 246.09ZM120.89 237.11L118.30 225.73L107.83 222.34L99.95 230.34L102.54 241.72L113.01 245.11ZM102.54 241.72L99.95 230.34L89.48 226.96L81.60 234.95L84.19 246.33L94.66 249.72ZM126.19 217.73L123.60 206.34L113.13 202.96L105.24 210.96L107.83 222.34L118.30 225.73ZM107.83 222.34L105.24 210.96L94.77 207.57L86.89 215.57L89.48 226.96L99.95 230.34ZM133.95 251.89L131.36 240.50L120.89 237.11L113.01 245.11L115.59 256.49L126.06 259.88ZM115.59 256.49L113.01 245.11L102.54 241.72L94.66 249.72L97.25 261.09L107.71 264.48ZM139.25 232.51L136.66 221.12L126.19 217.73L118.30 225.73L120.89 237.11L131.36 240.50ZM199.70 199.32L197.12 187.92L186.64 184.52L178.73 192.52L181.31 203.92L191.79 207.32ZM181.31 203.92L178.73 192.52L168.25 189.13L160.35 197.13L162.93 208.52L173.41 211.92ZM205.03 179.92L202.45 168.52L191.96 165.12L184.05 173.12L186.64 184.52L197.12 187.92ZM186.64 184.52L184.05 173.12L173.57 169.73L165.66 177.73L168.25 189.13L178.73 192.52ZM212.76 214.12L210.19 202.72L199.70 199.32L191.79 207.32L194.37 218.72L204.85 222.12ZM194.37 218.72L191.79 207.32L181.31 203.92L173.41 211.92L175.99 223.31L186.47 226.71ZM21.41 226.07L18.81 214.70L8.35 211.33L0.49 219.33L3.09 230.70L13.55 234.07ZM3.09 230.70L0.49 219.33L-9.97 215.97L-17.83 223.97L-15.22 235.34L-4.77 238.70ZM26.68 206.69L24.08 195.31L13.61 191.94L5.75 199.95L8.35 211.33L18.81 214.70ZM8.35 211.33L5.75 199.95L-4.72 196.59L-12.58 204.59L-9.97 215.97L0.49 219.33ZM34.47 240.82L31.87 229.44L21.41 226.07L13.55 234.07L16.15 245.44L26.61 248.81ZM16.15 245.44L13.55 234.07L3.09 230.70L-4.77 238.70L-2.16 250.07L8.29 253.44ZM39.74 221.44L37.14 210.06L26.68 206.69L18.81 214.70L21.41 226.07L31.87 229.44ZM50.29 182.67L47.69 171.29L37.21 167.91L29.34 175.93L31.94 187.31L42.41 190.68ZM31.94 187.31L29.34 175.93L18.87 172.56L11.01 180.57L13.61 191.94L24.08 195.31ZM55.56 163.28L52.97 151.89L42.49 148.52L34.61 156.53L37.21 167.91L47.69 171.29ZM37.21 167.91L34.61 156.53L24.14 153.16L16.27 161.17L18.87 172.56L29.34 175.93ZM63.35 197.43L60.76 186.05L50.29 182.67L42.41 190.68L45.01 202.06L55.48 205.44ZM45.01 202.06L42.41 190.68L31.94 187.31L24.08 195.31L26.68 206.69L37.14 210.06ZM68.64 178.04L66.04 166.65L55.56 163.28L47.69 171.29L50.29 182.67L60.76 186.05ZM0.54 177.20L-2.07 165.82L-12.53 162.46L-20.39 170.47L-17.79 181.85L-7.32 185.21ZM5.80 157.81L3.19 146.42L-7.28 143.06L-15.14 151.08L-12.53 162.46L-2.07 165.82ZM13.61 191.94L11.01 180.57L0.54 177.20L-7.32 185.21L-4.72 196.59L5.75 199.95ZM18.87 172.56L16.27 161.17L5.80 157.81L-2.07 165.82L0.54 177.20L11.01 180.57ZM47.53 255.56L44.93 244.19L34.47 240.82L26.61 248.81L29.21 260.18L39.67 263.56ZM29.21 260.18L26.61 248.81L16.15 245.44L8.29 253.44L10.89 264.81L21.35 268.18ZM60.58 270.31L57.99 258.94L47.53 255.56L39.67 263.56L42.26 274.93L52.72 278.30ZM10.89 264.81L8.29 253.44L-2.16 250.07L-10.02 258.07L-7.41 269.43L3.04 272.80ZM71.14 231.57L68.54 220.19L58.08 216.82L50.20 224.82L52.80 236.19L63.26 239.57ZM52.80 236.19L50.20 224.82L39.74 221.44L31.87 229.44L34.47 240.82L44.93 244.19ZM76.42 212.19L73.82 200.81L63.35 197.43L55.48 205.44L58.08 216.82L68.54 220.19ZM58.08 216.82L55.48 205.44L45.01 202.06L37.14 210.06L39.74 221.44L50.20 224.82ZM84.19 246.33L81.60 234.95L71.14 231.57L63.26 239.57L65.86 250.95L76.32 254.33ZM65.86 250.95L63.26 239.57L52.80 236.19L44.93 244.19L47.53 255.56L57.99 258.94ZM89.48 226.96L86.89 215.57L76.42 212.19L68.54 220.19L71.14 231.57L81.60 234.95ZM202.10 252.89L199.53 241.50L189.05 238.10L181.15 246.09L183.73 257.48L194.20 260.88ZM207.43 233.51L204.85 222.12L194.37 218.72L186.47 226.71L189.05 238.10L199.53 241.50Z"/></svg>
