<svg xmlns="http://www.w3.org/2000/svg" width="256" height="256" viewBox="0 0 256 256"><path data-band="1" fill="#fde68a" fill-opacity="0.35" d="M257.75 159.00L255.20 147.67L244.78 144.25L236.91 152.16L239.47 163.49L249.88 166.91ZM263.06 139.76L260.51 128.42L250.09 125.00L242.22 132.91L244.78 144.25L255.20 147.67ZM244.78 144.25L242.22 132.91L231.80 129.49L223.94 137.41L226.49 148.74L236.91 152.16ZM270.72 173.76L268.17 162.43L257.75 159.00L249.88 166.91L252.44 178.24L262.85 181.67ZM252.44 178.24L249.88 166.91L239.47 163.49L231.61 171.40L234.16 182.73L244.58 186.15ZM276.04 154.52L273.49 143.18L263.06 139.76L255.20 147.67L257.75 159.00L268.17 162.43ZM260.09 212.23L257.54 200.90L247.13 197.48L239.27 205.38L241.82 216.70L252.23 220.12ZM265.40 193.00L262.85 181.67L252.44 178.24L244.58 186.15L247.13 197.48L257.54 200.90ZM273.05 226.98L270.50 215.65L260.09 212.23L252.23 220.12L254.78 231.45L265.19 234.87ZM228.86 201.96L226.30 190.63L215.89 187.22L208.04 195.12L210.60 206.44L221.01 209.86ZM210.60 206.44L208.04 195.12L197.63 191.71L189.79 199.61L192.35 210.93L202.75 214.35ZM234.16 182.73L231.61 171.40L221.19 167.98L213.34 175.89L215.89 187.22L226.30 190.63ZM241.82 216.70L239.27 205.38L228.86 201.96L221.01 209.86L223.56 221.18L233.97 224.60ZM223.56 221.18L221.01 209.86L210.60 206.44L202.75 214.35L205.31 225.66L215.71 229.08ZM247.13 197.48L244.58 186.15L234.16 182.73L226.30 190.63L228.86 201.96L239.27 205.38ZM150.59 239.13L148.03 227.82L137.63 224.41L129.80 232.32L132.37 243.62L142.76 247.03ZM132.37 243.62L129.80 232.32L119.41 228.91L111.58 236.82L114.15 248.12L124.54 251.52ZM163.55 253.84L160.99 242.54L150.59 239.13L142.76 247.03L145.32 258.33L155.72 261.74ZM145.32 258.33L142.76 247.03L132.37 243.62L124.54 251.52L127.11 262.83L137.50 266.23ZM168.82 234.64L166.26 223.33L155.86 219.92L148.03 227.82L150.59 239.13L160.99 242.54ZM101.19 233.42L98.62 222.11L88.23 218.72L80.41 226.62L82.98 237.92L93.37 241.32ZM114.15 248.12L111.58 236.82L101.19 233.42L93.37 241.32L95.94 252.62L106.33 256.02ZM95.94 252.62L93.37 241.32L82.98 237.92L75.17 245.83L77.74 257.13L88.12 260.52ZM119.41 228.91L116.84 217.61L106.44 214.21L98.62 222.11L101.19 233.42L111.58 236.82ZM192.35 210.93L189.79 199.61L179.38 196.20L171.54 204.11L174.10 215.42L184.50 218.83ZM174.10 215.42L171.54 204.11L161.14 200.70L153.30 208.60L155.86 219.92L166.26 223.33ZM176.50 268.56L173.94 257.26L163.55 253.84L155.72 261.74L158.28 273.05L168.67 276.46ZM249.48 250.66L246.93 239.34L236.52 235.92L228.67 243.82L231.22 255.13L241.63 258.56ZM231.22 255.13L228.67 243.82L218.27 240.40L210.42 248.29L212.98 259.61L223.38 263.03ZM254.78 231.45L252.23 220.12L241.82 216.70L233.97 224.60L236.52 235.92L246.93 239.34ZM236.52 235.92L233.97 224.60L223.56 221.18L215.71 229.08L218.27 240.40L228.67 243.82ZM262.43 265.41L259.88 254.09L249.48 250.66L241.63 258.56L244.18 269.87L254.58 273.30ZM244.18 269.87L241.63 258.56L231.22 255.13L223.38 263.03L225.93 274.34L236.33 277.76ZM267.74 246.20L265.19 234.87L254.78 231.45L246.93 239.34L249.48 250.66L259.88 254.09ZM200.02 244.88L197.46 233.56L187.06 230.15L179.22 238.05L181.78 249.36L192.18 252.77ZM181.78 249.36L179.22 238.05L168.82 234.64L160.99 242.54L163.55 253.84L173.94 257.26ZM205.31 225.66L202.75 214.35L192.35 210.93L184.50 218.83L187.06 230.15L197.46 233.56ZM187.06 230.15L184.50 218.83L174.10 215.42L166.26 223.33L168.82 234.64L179.22 238.05ZM212.98 259.61L210.42 248.29L200.02 244.88L192.18 252.77L194.74 264.08L205.13 267.50ZM194.74 264.08L192.18 252.77L181.78 249.36L173.94 257.26L176.50 268.56L186.90 271.98ZM218.27 240.40L215.71 229.08L205.31 225.66L197.46 233.56L200.02 244.88L210.42 248.29ZM23.18 270.65L20.60 259.37L10.22 255.98L2.42 263.89L5.00 275.17L15.38 278.56ZM41.36 266.14L38.78 254.85L28.40 251.46L20.60 259.37L23.18 270.65L33.55 274.04ZM127.11 262.83L124.54 251.52L114.15 248.12L106.33 256.02L108.90 267.32L119.28 270.72ZM108.90 267.32L106.33 256.02L95.94 252.62L88.12 260.52L90.69 271.82L101.08 275.22ZM77.74 257.13L75.17 245.83L64.78 242.43L56.97 250.34L59.54 261.63L69.93 265.03ZM59.54 261.63L56.97 250.34L46.59 246.95L38.78 254.85L41.36 266.14L51.74 269.53Z"/><path data-band="2" fill="#f97316" fill-opacity="0.35" d="M239.47 163.49L236.91 152.16L226.49 148.74L218.63 156.65L221.19 167.98L231.61 171.40ZM208.22 153.24L205.66 141.91L195.24 138.49L187.39 146.41L189.95 157.74L200.37 161.15ZM189.95 157.74L187.39 146.41L176.98 143.00L169.13 150.92L171.69 162.24L182.10 165.65ZM213.52 133.99L210.96 122.66L200.54 119.25L192.68 127.17L195.24 138.49L205.66 141.91ZM195.24 138.49L192.68 127.17L182.26 123.75L174.41 131.67L176.98 143.00L187.39 146.41ZM221.19 167.98L218.63 156.65L208.22 153.24L200.37 161.15L202.92 172.48L213.34 175.89ZM202.92 172.48L200.37 161.15L189.95 157.74L182.10 165.65L184.67 176.97L195.07 180.38ZM226.49 148.74L223.94 137.41L213.52 133.99L205.66 141.91L208.22 153.24L218.63 156.65ZM268.38 120.50L265.83 109.16L255.40 105.74L247.53 113.66L250.09 125.00L260.51 128.42ZM273.70 101.24L271.15 89.90L260.72 86.48L252.85 94.40L255.40 105.74L265.83 109.16ZM237.11 110.24L234.55 98.90L224.12 95.48L216.26 103.40L218.82 114.74L229.24 118.16ZM218.82 114.74L216.26 103.40L205.84 99.99L197.98 107.91L200.54 119.25L210.96 122.66ZM242.42 90.98L239.86 79.63L229.43 76.22L221.56 84.14L224.12 95.48L234.55 98.90ZM224.12 95.48L221.56 84.14L211.14 80.73L203.27 88.65L205.84 99.99L216.26 103.40ZM250.09 125.00L247.53 113.66L237.11 110.24L229.24 118.16L231.80 129.49L242.22 132.91ZM231.80 129.49L229.24 118.16L218.82 114.74L210.96 122.66L213.52 133.99L223.94 137.41ZM255.40 105.74L252.85 94.40L242.42 90.98L234.55 98.90L237.11 110.24L247.53 113.66ZM215.89 187.22L213.34 175.89L202.92 172.48L195.07 180.38L197.63 191.71L208.04 195.12ZM129.93 190.48L127.36 179.17L116.96 175.77L109.13 183.68L111.70 194.99L122.10 198.39ZM111.70 194.99L109.13 183.68L98.73 180.28L90.90 188.19L93.48 199.50L103.87 202.90ZM135.20 171.25L132.63 159.94L122.22 156.54L114.39 164.45L116.96 175.77L127.36 179.17ZM116.96 175.77L114.39 164.45L103.99 161.05L96.16 168.97L98.73 180.28L109.13 183.68ZM142.90 205.20L140.33 193.88L129.93 190.48L122.10 198.39L124.67 209.70L135.06 213.10ZM124.67 209.70L122.10 198.39L111.70 194.99L103.87 202.90L106.44 214.21L116.84 217.61ZM148.17 185.97L145.60 174.66L135.20 171.25L127.36 179.17L129.93 190.48L140.33 193.88ZM80.51 184.80L77.93 173.49L67.54 170.10L59.72 178.02L62.29 189.32L72.69 192.71ZM62.29 189.32L59.72 178.02L49.32 174.63L41.51 182.54L44.09 193.85L54.48 197.23ZM85.76 165.57L83.18 154.26L72.78 150.87L64.96 158.79L67.54 170.10L77.93 173.49ZM67.54 170.10L64.96 158.79L54.56 155.40L46.74 163.32L49.32 174.63L59.72 178.02ZM93.48 199.50L90.90 188.19L80.51 184.80L72.69 192.71L75.26 204.02L85.66 207.41ZM75.26 204.02L72.69 192.71L62.29 189.32L54.48 197.23L57.05 208.54L67.44 211.93ZM98.73 180.28L96.16 168.97L85.76 165.57L77.93 173.49L80.51 184.80L90.90 188.19ZM158.72 147.51L156.15 136.19L145.74 132.78L137.90 140.70L140.47 152.02L150.88 155.43ZM140.47 152.02L137.90 140.70L127.49 137.30L119.65 145.22L122.22 156.54L132.63 159.94ZM164.00 128.27L161.43 116.94L151.02 113.53L143.17 121.46L145.74 132.78L156.15 136.19ZM145.74 132.78L143.17 121.46L132.76 118.05L124.92 125.98L127.49 137.30L137.90 140.70ZM171.69 162.24L169.13 150.92L158.72 147.51L150.88 155.43L153.44 166.75L163.85 170.15ZM153.44 166.75L150.88 155.43L140.47 152.02L132.63 159.94L135.20 171.25L145.60 174.66ZM176.98 143.00L174.41 131.67L164.00 128.27L156.15 136.19L158.72 147.51L169.13 150.92ZM109.25 141.82L106.67 130.50L96.27 127.10L88.44 135.03L91.01 146.34L101.41 149.74ZM91.01 146.34L88.44 135.03L78.03 131.63L70.20 139.56L72.78 150.87L83.18 154.26ZM114.51 122.58L111.94 111.25L101.53 107.86L93.69 115.78L96.27 127.10L106.67 130.50ZM96.27 127.10L93.69 115.78L83.28 112.39L75.45 120.32L78.03 131.63L88.44 135.03ZM122.22 156.54L119.65 145.22L109.25 141.82L101.41 149.74L103.99 161.05L114.39 164.45ZM103.99 161.05L101.41 149.74L91.01 146.34L83.18 154.26L85.76 165.57L96.16 168.97ZM127.49 137.30L124.92 125.98L114.51 122.58L106.67 130.50L109.25 141.82L119.65 145.22ZM155.86 219.92L153.30 208.60L142.90 205.20L135.06 213.10L137.63 224.41L148.03 227.82ZM137.63 224.41L135.06 213.10L124.67 209.70L116.84 217.61L119.41 228.91L129.80 232.32ZM82.98 237.92L80.41 226.62L70.02 223.23L62.21 231.14L64.78 242.43L75.17 245.83ZM106.44 214.21L103.87 202.90L93.48 199.50L85.66 207.41L88.23 218.72L98.62 222.11ZM88.23 218.72L85.66 207.41L75.26 204.02L67.44 211.93L70.02 223.23L80.41 226.62ZM179.38 196.20L176.82 184.88L166.41 181.47L158.57 189.38L161.14 200.70L171.54 204.11ZM161.14 200.70L158.57 189.38L148.17 185.97L140.33 193.88L142.90 205.20L153.30 208.60ZM184.67 176.97L182.10 165.65L171.69 162.24L163.85 170.15L166.41 181.47L176.82 184.88ZM166.41 181.47L163.85 170.15L153.44 166.75L145.60 174.66L148.17 185.97L158.57 189.38ZM197.63 191.71L195.07 180.38L184.67 176.97L176.82 184.88L179.38 196.20L189.79 199.61ZM276.70 28.64L274.14 17.29L263.70 13.86L255.82 21.80L258.37 33.15L268.81 36.57ZM245.38 18.38L242.82 7.03L232.38 3.61L224.50 11.55L227.06 22.90L237.50 26.32ZM227.06 22.90L224.50 11.55L214.06 8.13L206.19 16.07L208.75 27.42L219.19 30.83ZM250.70 -0.91L248.14 -12.27L237.69 -15.69L229.81 -7.75L232.38 3.61L242.82 7.03ZM232.38 3.61L229.81 -7.75L219.37 -11.16L211.50 -3.22L214.06 8.13L224.50 11.55ZM258.37 33.15L255.82 21.80L245.38 18.38L237.50 26.32L240.06 37.67L250.49 41.08ZM240.06 37.67L237.50 26.32L227.06 22.90L219.19 30.83L221.75 42.18L232.18 45.60ZM263.70 13.86L261.14 2.51L250.70 -0.91L242.82 7.03L245.38 18.38L255.82 21.80ZM269.03 -5.43L266.47 -16.79L256.02 -20.21L248.14 -12.27L250.70 -0.91L261.14 2.51ZM266.04 67.20L263.49 55.86L253.05 52.43L245.18 60.36L247.73 71.71L258.17 75.13ZM247.73 71.71L245.18 60.36L234.74 56.94L226.87 64.87L229.43 76.22L239.86 79.63ZM271.37 47.93L268.81 36.57L258.37 33.15L250.49 41.08L253.05 52.43L263.49 55.86ZM253.05 52.43L250.49 41.08L240.06 37.67L232.18 45.60L234.74 56.94L245.18 60.36ZM260.72 86.48L258.17 75.13L247.73 71.71L239.86 79.63L242.42 90.98L252.85 94.40ZM166.87 55.75L164.30 44.41L153.87 41.01L146.02 48.94L148.59 60.28L159.01 63.68ZM148.59 60.28L146.02 48.94L135.60 45.54L127.75 53.48L130.32 64.81L140.74 68.21ZM172.16 36.48L169.59 25.13L159.16 21.73L151.30 29.67L153.87 41.01L164.30 44.41ZM153.87 41.01L151.30 29.67L140.88 26.27L133.02 34.21L135.60 45.54L146.02 48.94ZM179.86 70.49L177.29 59.16L166.87 55.75L159.01 63.68L161.58 75.02L172.00 78.42ZM161.58 75.02L159.01 63.68L148.59 60.28L140.74 68.21L143.31 79.54L153.73 82.95ZM185.15 51.22L182.59 39.88L172.16 36.48L164.30 44.41L166.87 55.75L177.29 59.16ZM117.32 50.08L114.75 38.75L104.33 35.35L96.48 43.29L99.06 54.62L109.48 58.02ZM99.06 54.62L96.48 43.29L86.06 39.90L78.23 47.84L80.81 59.17L91.22 62.56ZM122.60 30.81L120.02 19.47L109.60 16.07L101.75 24.02L104.33 35.35L114.75 38.75ZM104.33 35.35L101.75 24.02L91.33 20.62L83.48 28.57L86.06 39.90L96.48 43.29ZM130.32 64.81L127.75 53.48L117.32 50.08L109.48 58.02L112.05 69.35L122.47 72.74ZM112.05 69.35L109.48 58.02L99.06 54.62L91.22 62.56L93.80 73.88L104.21 77.28ZM135.60 45.54L133.02 34.21L122.60 30.81L114.75 38.75L117.32 50.08L127.75 53.48ZM195.75 12.66L193.19 1.31L182.75 -2.09L174.88 5.85L177.45 17.19L187.89 20.60ZM177.45 17.19L174.88 5.85L164.45 2.44L156.59 10.39L159.16 21.73L169.59 25.13ZM201.06 -6.63L198.49 -17.98L188.05 -21.39L180.18 -13.44L182.75 -2.09L193.19 1.31ZM182.75 -2.09L180.18 -13.44L169.74 -16.85L161.88 -8.90L164.45 2.44L174.88 5.85ZM208.75 27.42L206.19 16.07L195.75 12.66L187.89 20.60L190.45 31.95L200.88 35.36ZM190.45 31.95L187.89 20.60L177.45 17.19L169.59 25.13L172.16 36.48L182.59 39.88ZM214.06 8.13L211.50 -3.22L201.06 -6.63L193.19 1.31L195.75 12.66L206.19 16.07ZM146.16 6.98L143.59 -4.36L133.15 -7.76L125.30 0.19L127.87 11.53L138.30 14.93ZM127.87 11.53L125.30 0.19L114.87 -3.21L107.02 4.74L109.60 16.07L120.02 19.47ZM133.15 -7.76L130.58 -19.10L120.15 -22.50L112.29 -14.55L114.87 -3.21L125.30 0.19ZM159.16 21.73L156.59 10.39L146.16 6.98L138.30 14.93L140.88 26.27L151.30 29.67ZM140.88 26.27L138.30 14.93L127.87 11.53L120.02 19.47L122.60 30.81L133.02 34.21ZM164.45 2.44L161.88 -8.90L151.45 -12.31L143.59 -4.36L146.16 6.98L156.59 10.39ZM187.56 104.50L184.99 93.17L174.57 89.76L166.72 97.68L169.28 109.02L179.70 112.42ZM169.28 109.02L166.72 97.68L156.30 94.28L148.45 102.20L151.02 113.53L161.43 116.94ZM192.85 85.24L190.29 73.90L179.86 70.49L172.00 78.42L174.57 89.76L184.99 93.17ZM174.57 89.76L172.00 78.42L161.58 75.02L153.73 82.95L156.30 94.28L166.72 97.68ZM200.54 119.25L197.98 107.91L187.56 104.50L179.70 112.42L182.26 123.75L192.68 127.17ZM182.26 123.75L179.70 112.42L169.28 109.02L161.43 116.94L164.00 128.27L174.41 131.67ZM205.84 99.99L203.27 88.65L192.85 85.24L184.99 93.17L187.56 104.50L197.98 107.91ZM138.03 98.80L135.46 87.47L125.05 84.07L117.20 92.00L119.78 103.33L130.19 106.73ZM119.78 103.33L117.20 92.00L106.79 88.61L98.95 96.53L101.53 107.86L111.94 111.25ZM143.31 79.54L140.74 68.21L130.32 64.81L122.47 72.74L125.05 84.07L135.46 87.47ZM125.05 84.07L122.47 72.74L112.05 69.35L104.21 77.28L106.79 88.61L117.20 92.00ZM151.02 113.53L148.45 102.20L138.03 98.80L130.19 106.73L132.76 118.05L143.17 121.46ZM132.76 118.05L130.19 106.73L119.78 103.33L111.94 111.25L114.51 122.58L124.92 125.98ZM156.30 94.28L153.73 82.95L143.31 79.54L135.46 87.47L138.03 98.80L148.45 102.20ZM216.44 61.46L213.88 50.11L203.45 46.70L195.58 54.63L198.15 65.98L208.57 69.39ZM198.15 65.98L195.58 54.63L185.15 51.22L177.29 59.16L179.86 70.49L190.29 73.90ZM221.75 42.18L219.19 30.83L208.75 27.42L200.88 35.36L203.45 46.70L213.88 50.11ZM203.45 46.70L200.88 35.36L190.45 31.95L182.59 39.88L185.15 51.22L195.58 54.63ZM229.43 76.22L226.87 64.87L216.44 61.46L208.57 69.39L211.14 80.73L221.56 84.14ZM211.14 80.73L208.57 69.39L198.15 65.98L190.29 73.90L192.85 85.24L203.27 88.65ZM234.74 56.94L232.18 45.60L221.75 42.18L213.88 50.11L216.44 61.46L226.87 64.87ZM2.47 222.11L-0.11 210.82L-10.49 207.44L-18.29 215.35L-15.70 226.64L-5.32 230.02ZM7.69 202.90L5.11 191.61L-5.28 188.23L-13.08 196.14L-10.49 207.44L-0.11 210.82ZM15.44 236.79L12.86 225.49L2.47 222.11L-5.32 230.02L-2.74 241.31L7.64 244.69ZM20.66 217.58L18.08 206.29L7.69 202.90L-0.11 210.82L2.47 222.11L12.86 225.49ZM31.11 179.16L28.53 167.85L18.14 164.47L10.33 172.39L12.91 183.69L23.30 187.07ZM12.91 183.69L10.33 172.39L-0.06 169.01L-7.86 176.93L-5.28 188.23L5.11 191.61ZM36.35 159.93L33.76 148.63L23.37 145.24L15.56 153.16L18.14 164.47L28.53 167.85ZM18.14 164.47L15.56 153.16L5.16 149.78L-2.64 157.71L-0.06 169.01L10.33 172.39ZM44.09 193.85L41.51 182.54L31.11 179.16L23.30 187.07L25.89 198.37L36.27 201.76ZM25.89 198.37L23.30 187.07L12.91 183.69L5.11 191.61L7.69 202.90L18.08 206.29ZM49.32 174.63L46.74 163.32L36.35 159.93L28.53 167.85L31.11 179.16L41.51 182.54ZM28.40 251.46L25.82 240.17L15.44 236.79L7.64 244.69L10.22 255.98L20.60 259.37ZM10.22 255.98L7.64 244.69L-2.74 241.31L-10.53 249.22L-7.95 260.50L2.42 263.89ZM51.82 227.75L49.24 216.45L38.85 213.06L31.05 220.97L33.62 232.26L44.01 235.65ZM33.62 232.26L31.05 220.97L20.66 217.58L12.86 225.49L15.44 236.79L25.82 240.17ZM57.05 208.54L54.48 197.23L44.09 193.85L36.27 201.76L38.85 213.06L49.24 216.45ZM38.85 213.06L36.27 201.76L25.89 198.37L18.08 206.29L20.66 217.58L31.05 220.97ZM64.78 242.43L62.21 231.14L51.82 227.75L44.01 235.65L46.59 246.95L56.97 250.34ZM46.59 246.95L44.01 235.65L33.62 232.26L25.82 240.17L28.40 251.46L38.78 254.85ZM70.02 223.23L67.44 211.93L57.05 208.54L49.24 216.45L51.82 227.75L62.21 231.14ZM39.07 87.52L36.49 76.20L26.08 72.82L18.26 80.75L20.85 92.07L31.25 95.45ZM20.85 92.07L18.26 80.75L7.86 77.37L0.04 85.31L2.63 96.62L13.03 100.00ZM44.32 68.26L41.73 56.94L31.32 53.56L23.50 61.50L26.08 72.82L36.49 76.20ZM26.08 72.82L23.50 61.50L13.09 58.12L5.27 66.06L7.86 77.37L18.26 80.75ZM52.06 102.22L49.48 90.90L39.07 87.52L31.25 95.45L33.84 106.77L44.24 110.15ZM33.84 106.77L31.25 95.45L20.85 92.07L13.03 100.00L15.62 111.31L26.02 114.70ZM57.31 82.97L54.73 71.65L44.32 68.26L36.49 76.20L39.07 87.52L49.48 90.90ZM2.63 96.62L0.04 85.31L-10.36 81.93L-18.17 89.87L-15.58 101.18L-5.18 104.55ZM7.86 77.37L5.27 66.06L-5.14 62.68L-12.95 70.62L-10.36 81.93L0.04 85.31ZM67.81 44.45L65.23 33.12L54.81 29.73L46.98 37.68L49.56 49.00L59.98 52.39ZM49.56 49.00L46.98 37.68L36.56 34.29L28.73 42.23L31.32 53.56L41.73 56.94ZM73.06 25.18L70.48 13.84L60.06 10.46L52.23 18.40L54.81 29.73L65.23 33.12ZM54.81 29.73L52.23 18.40L41.81 15.02L33.98 22.97L36.56 34.29L46.98 37.68ZM80.81 59.17L78.23 47.84L67.81 44.45L59.98 52.39L62.56 63.71L72.97 67.10ZM62.56 63.71L59.98 52.39L49.56 49.00L41.73 56.94L44.32 68.26L54.73 71.65ZM86.06 39.90L83.48 28.57L73.06 25.18L65.23 33.12L67.81 44.45L78.23 47.84ZM18.32 38.85L15.73 27.53L5.32 24.15L-2.50 32.10L0.09 43.42L10.50 46.80ZM0.09 43.42L-2.50 32.10L-12.91 28.72L-20.73 36.67L-18.14 47.99L-7.73 51.36ZM23.56 19.58L20.97 8.26L10.56 4.88L2.73 12.83L5.32 24.15L15.73 27.53ZM5.32 24.15L2.73 12.83L-7.68 9.45L-15.50 17.40L-12.91 28.72L-2.50 32.10ZM31.32 53.56L28.73 42.23L18.32 38.85L10.50 46.80L13.09 58.12L23.50 61.50ZM13.09 58.12L10.50 46.80L0.09 43.42L-7.73 51.36L-5.14 62.68L5.27 66.06ZM36.56 34.29L33.98 22.97L23.56 19.58L15.73 27.53L18.32 38.85L28.73 42.23ZM59.80 136.17L57.22 124.85L46.82 121.46L39.00 129.39L41.58 140.70L51.98 144.09ZM41.58 140.70L39.00 129.39L28.60 126.01L20.78 133.93L23.37 145.24L33.76 148.63ZM65.05 116.93L62.47 105.61L52.06 102.22L44.24 110.15L46.82 121.46L57.22 124.85ZM46.82 121.46L44.24 110.15L33.84 106.77L26.02 114.70L28.60 126.01L39.00 129.39ZM72.78 150.87L70.20 139.56L59.80 136.17L51.98 144.09L54.56 155.40L64.96 158.79ZM54.56 155.40L51.98 144.09L41.58 140.70L33.76 148.63L36.35 159.93L46.74 163.32ZM78.03 131.63L75.45 120.32L65.05 116.93L57.22 124.85L59.80 136.17L70.20 139.56ZM10.39 130.55L7.80 119.24L-2.60 115.86L-10.41 123.79L-7.82 135.10L2.58 138.48ZM15.62 111.31L13.03 100.00L2.63 96.62L-5.18 104.55L-2.60 115.86L7.80 119.24ZM23.37 145.24L20.78 133.93L10.39 130.55L2.58 138.48L5.16 149.78L15.56 153.16ZM5.16 149.78L2.58 138.48L-7.82 135.10L-15.62 143.03L-13.04 154.33L-2.64 157.71ZM28.60 126.01L26.02 114.70L15.62 111.31L7.80 119.24L10.39 130.55L20.78 133.93ZM88.54 93.14L85.96 81.82L75.55 78.43L67.72 86.36L70.30 97.68L80.71 101.07ZM70.30 97.68L67.72 86.36L57.31 82.97L49.48 90.90L52.06 102.22L62.47 105.61ZM93.80 73.88L91.22 62.56L80.81 59.17L72.97 67.10L75.55 78.43L85.96 81.82ZM75.55 78.43L72.97 67.10L62.56 63.71L54.73 71.65L57.31 82.97L67.72 86.36ZM101.53 107.86L98.95 96.53L88.54 93.14L80.71 101.07L83.28 112.39L93.69 115.78ZM83.28 112.39L80.71 101.07L70.30 97.68L62.47 105.61L65.05 116.93L75.45 120.32ZM106.79 88.61L104.21 77.28L93.80 73.88L85.96 81.82L88.54 93.14L98.95 96.53ZM96.59 1.34L94.01 -10.00L83.59 -13.39L75.74 -5.44L78.32 5.90L88.75 9.29ZM78.32 5.90L75.74 -5.44L65.32 -8.82L57.48 -0.88L60.06 10.46L70.48 13.84ZM109.60 16.07L107.02 4.74L96.59 1.34L88.75 9.29L91.33 20.62L101.75 24.02ZM91.33 20.62L88.75 9.29L78.32 5.90L70.48 13.84L73.06 25.18L83.48 28.57ZM114.87 -3.21L112.29 -14.55L101.86 -17.94L94.01 -10.00L96.59 1.34L107.02 4.74Z"/><path data-band="3" fill="#dc2626" fill-opacity="0.35" d="M10.56 4.88L7.96 -6.45L-2.45 -9.82L-10.28 -1.87L-7.68 9.45L2.73 12.83ZM47.06 -4.26L44.47 -15.59L34.05 -18.98L26.21 -11.02L28.80 0.31L39.22 3.69ZM28.80 0.31L26.21 -11.02L15.79 -14.40L7.96 -6.45L10.56 4.88L20.97 8.26ZM60.06 10.46L57.48 -0.88L47.06 -4.26L39.22 3.69L41.81 15.02L52.23 18.40ZM41.81 15.02L39.22 3.69L28.80 0.31L20.97 8.26L23.56 19.58L33.98 22.97Z"/></svg>
