<svg xmlns="http://www.w3.org/2000/svg" width="256" height="256" viewBox="0 0 256 256"><path data-band="2" fill="#f97316" fill-opacity="0.35" d="M253.36 119.74L250.68 107.75L239.58 104.40L231.17 113.04L233.85 125.02L244.94 128.37ZM233.85 125.02L231.17 113.04L220.08 109.69L211.67 118.33L214.35 130.31L225.44 133.66ZM259.10 99.12L256.42 87.13L245.32 83.78L236.90 92.42L239.58 104.40L250.68 107.75ZM239.58 104.40L236.90 92.42L225.81 89.07L217.39 97.71L220.08 109.69L231.17 113.04ZM267.13 135.08L264.45 123.10L253.36 119.74L244.94 128.37L247.62 140.36L258.71 143.71ZM272.88 114.46L270.20 102.47L259.10 99.12L250.68 107.75L253.36 119.74L264.45 123.10ZM42.41 101.00L39.70 89.03L28.63 85.72L20.26 94.38L22.97 106.34L34.04 109.65ZM22.97 106.34L20.26 94.38L9.19 91.07L0.82 99.73L3.54 111.68L14.61 114.99ZM48.07 80.38L45.37 68.41L34.29 65.10L25.92 73.76L28.63 85.72L39.70 89.03ZM28.63 85.72L25.92 73.76L14.84 70.45L6.47 79.11L9.19 91.07L20.26 94.38ZM56.19 116.27L53.49 104.31L42.41 101.00L34.04 109.65L36.75 121.61L47.82 124.92ZM36.75 121.61L34.04 109.65L22.97 106.34L14.61 114.99L17.32 126.94L28.39 130.25ZM61.86 95.66L59.16 83.69L48.07 80.38L39.70 89.03L42.41 101.00L53.49 104.31ZM3.54 111.68L0.82 99.73L-10.25 96.42L-18.60 105.08L-15.89 117.03L-4.82 120.33ZM9.19 91.07L6.47 79.11L-4.60 75.81L-12.96 84.47L-10.25 96.42L0.82 99.73ZM73.21 54.41L70.50 42.44L59.41 39.12L51.03 47.78L53.74 59.75L64.83 63.07ZM53.74 59.75L51.03 47.78L39.95 44.47L31.58 53.13L34.29 65.10L45.37 68.41ZM78.89 33.78L76.18 21.80L65.09 18.48L56.71 27.15L59.41 39.12L70.50 42.44ZM59.41 39.12L56.71 27.15L45.62 23.84L37.24 32.50L39.95 44.47L51.03 47.78ZM87.00 69.70L84.29 57.73L73.21 54.41L64.83 63.07L67.53 75.04L78.62 78.35ZM67.53 75.04L64.83 63.07L53.74 59.75L45.37 68.41L48.07 80.38L59.16 83.69ZM92.68 49.07L89.98 37.09L78.89 33.78L70.50 42.44L73.21 54.41L84.29 57.73ZM20.49 49.83L17.78 37.86L6.70 34.56L-1.67 43.22L1.05 55.19L12.12 58.49ZM1.05 55.19L-1.67 43.22L-12.75 39.92L-21.11 48.59L-18.39 60.55L-7.32 63.85ZM26.15 29.19L23.44 17.22L12.35 13.92L3.98 22.59L6.70 34.56L17.78 37.86ZM6.70 34.56L3.98 22.59L-7.10 19.29L-15.47 27.96L-12.75 39.92L-1.67 43.22ZM34.29 65.10L31.58 53.13L20.49 49.83L12.12 58.49L14.84 70.45L25.92 73.76ZM14.84 70.45L12.12 58.49L1.05 55.19L-7.32 63.85L-4.60 75.81L6.47 79.11ZM39.95 44.47L37.24 32.50L26.15 29.19L17.78 37.86L20.49 49.83L31.58 53.13ZM69.97 131.55L67.27 119.59L56.19 116.27L47.82 124.92L50.53 136.88L61.60 140.19ZM50.53 136.88L47.82 124.92L36.75 121.61L28.39 130.25L31.09 142.21L42.16 145.52ZM17.32 126.94L14.61 114.99L3.54 111.68L-4.82 120.33L-2.11 132.29L8.96 135.59ZM95.10 105.61L92.40 93.64L81.32 90.32L72.94 98.97L75.64 110.94L86.72 114.26ZM75.64 110.94L72.94 98.97L61.86 95.66L53.49 104.31L56.19 116.27L67.27 119.59ZM100.78 84.99L98.08 73.02L87.00 69.70L78.62 78.35L81.32 90.32L92.40 93.64ZM81.32 90.32L78.62 78.35L67.53 75.04L59.16 83.69L61.86 95.66L72.94 98.97ZM108.88 120.90L106.18 108.94L95.10 105.61L86.72 114.26L89.42 126.22L100.50 129.55ZM89.42 126.22L86.72 114.26L75.64 110.94L67.27 119.59L69.97 131.55L81.04 134.87ZM114.57 100.29L111.87 88.32L100.78 84.99L92.40 93.64L95.10 105.61L106.18 108.94ZM122.65 136.20L119.96 124.23L108.88 120.90L100.50 129.55L103.20 141.51L114.27 144.84ZM104.06 7.79L101.36 -4.19L90.26 -7.51L81.86 1.15L84.57 13.13L95.67 16.45ZM84.57 13.13L81.86 1.15L70.77 -2.16L62.38 6.51L65.09 18.48L76.18 21.80ZM90.26 -7.51L87.55 -19.50L76.45 -22.81L68.06 -14.14L70.77 -2.16L81.86 1.15ZM117.86 23.10L115.16 11.11L104.06 7.79L95.67 16.45L98.37 28.43L109.46 31.75ZM98.37 28.43L95.67 16.45L84.57 13.13L76.18 21.80L78.89 33.78L89.98 37.09ZM123.56 2.45L120.86 -9.54L109.75 -12.86L101.36 -4.19L104.06 7.79L115.16 11.11ZM51.29 3.19L48.58 -8.78L37.48 -12.09L29.10 -3.42L31.82 8.55L42.91 11.86ZM31.82 8.55L29.10 -3.42L18.01 -6.73L9.64 1.95L12.35 13.92L23.44 17.22ZM65.09 18.48L62.38 6.51L51.29 3.19L42.91 11.86L45.62 23.84L56.71 27.15ZM45.62 23.84L42.91 11.86L31.82 8.55L23.44 17.22L26.15 29.19L37.24 32.50ZM70.77 -2.16L68.06 -14.14L56.96 -17.45L48.58 -8.78L51.29 3.19L62.38 6.51ZM262.56 21.85L259.88 9.85L248.77 6.50L240.34 15.15L243.02 27.15L254.13 30.50ZM243.02 27.15L240.34 15.15L229.23 11.81L220.80 20.46L223.49 32.46L234.60 35.80ZM268.32 1.20L265.64 -10.81L254.52 -14.16L246.09 -5.50L248.77 6.50L259.88 9.85ZM248.77 6.50L246.09 -5.50L234.97 -8.85L226.54 -0.19L229.23 11.81L240.34 15.15ZM276.35 37.21L273.67 25.21L262.56 21.85L254.13 30.50L256.81 42.50L267.92 45.85ZM256.81 42.50L254.13 30.50L243.02 27.15L234.60 35.80L237.28 47.80L248.38 51.15ZM264.85 78.49L262.17 66.49L251.07 63.14L242.64 71.79L245.32 83.78L256.42 87.13ZM270.60 57.85L267.92 45.85L256.81 42.50L248.38 51.15L251.07 63.14L262.17 66.49ZM178.73 63.72L176.04 51.73L164.94 48.39L156.54 57.05L159.23 69.03L170.33 72.36ZM159.23 69.03L156.54 57.05L145.44 53.72L137.05 62.37L139.74 74.35L150.83 77.68ZM184.45 43.08L181.76 31.09L170.66 27.75L162.25 36.41L164.94 48.39L176.04 51.73ZM164.94 48.39L162.25 36.41L151.15 33.08L142.75 41.73L145.44 53.72L156.54 57.05ZM192.52 79.04L189.83 67.05L178.73 63.72L170.33 72.36L173.02 84.35L184.11 87.68ZM173.02 84.35L170.33 72.36L159.23 69.03L150.83 77.68L153.52 89.66L164.61 92.99ZM198.24 58.41L195.55 46.42L184.45 43.08L176.04 51.73L178.73 63.72L189.83 67.05ZM125.95 59.04L123.26 47.06L112.16 43.74L103.77 52.39L106.47 64.37L117.56 67.69ZM106.47 64.37L103.77 52.39L92.68 49.07L84.29 57.73L87.00 69.70L98.08 73.02ZM131.65 38.40L128.95 26.42L117.86 23.10L109.46 31.75L112.16 43.74L123.26 47.06ZM112.16 43.74L109.46 31.75L98.37 28.43L89.98 37.09L92.68 49.07L103.77 52.39ZM139.74 74.35L137.05 62.37L125.95 59.04L117.56 67.69L120.26 79.67L131.35 83.00ZM120.26 79.67L117.56 67.69L106.47 64.37L98.08 73.02L100.78 84.99L111.87 88.32ZM145.44 53.72L142.75 41.73L131.65 38.40L123.26 47.06L125.95 59.04L137.05 62.37ZM209.70 17.12L207.01 5.12L195.90 1.78L187.48 10.44L190.17 22.43L201.28 25.77ZM190.17 22.43L187.48 10.44L176.38 7.11L167.97 15.76L170.66 27.75L181.76 31.09ZM215.43 -3.54L212.74 -15.54L201.63 -18.88L193.21 -10.21L195.90 1.78L207.01 5.12ZM195.90 1.78L193.21 -10.21L182.10 -13.55L173.68 -4.89L176.38 7.11L187.48 10.44ZM223.49 32.46L220.80 20.46L209.70 17.12L201.28 25.77L203.97 37.77L215.07 41.11ZM203.97 37.77L201.28 25.77L190.17 22.43L181.76 31.09L184.45 43.08L195.55 46.42ZM229.23 11.81L226.54 -0.19L215.43 -3.54L207.01 5.12L209.70 17.12L220.80 20.46ZM156.86 12.43L154.17 0.44L143.06 -2.89L134.66 5.77L137.36 17.76L148.46 21.09ZM137.36 17.76L134.66 5.77L123.56 2.45L115.16 11.11L117.86 23.10L128.95 26.42ZM162.58 -8.22L159.88 -20.22L148.77 -23.54L140.36 -14.88L143.06 -2.89L154.17 0.44ZM143.06 -2.89L140.36 -14.88L129.26 -18.21L120.86 -9.54L123.56 2.45L134.66 5.77ZM170.66 27.75L167.97 15.76L156.86 12.43L148.46 21.09L151.15 33.08L162.25 36.41ZM151.15 33.08L148.46 21.09L137.36 17.76L128.95 26.42L131.65 38.40L142.75 41.73ZM176.38 7.11L173.68 -4.89L162.58 -8.22L154.17 0.44L156.86 12.43L167.97 15.76ZM200.57 114.99L197.89 103.00L186.80 99.66L178.39 108.31L181.08 120.28L192.17 123.62ZM181.08 120.28L178.39 108.31L167.31 104.97L158.91 113.61L161.60 125.58L172.68 128.92ZM206.30 94.36L203.61 82.38L192.52 79.04L184.11 87.68L186.80 99.66L197.89 103.00ZM186.80 99.66L184.11 87.68L173.02 84.35L164.61 92.99L167.31 104.97L178.39 108.31ZM214.35 130.31L211.67 118.33L200.57 114.99L192.17 123.62L194.86 135.60L205.94 138.94ZM194.86 135.60L192.17 123.62L181.08 120.28L172.68 128.92L175.37 140.89L186.45 144.23ZM220.08 109.69L217.39 97.71L206.30 94.36L197.89 103.00L200.57 114.99L211.67 118.33ZM147.82 110.28L145.13 98.30L134.04 94.97L125.65 103.62L128.35 115.59L139.43 118.92ZM128.35 115.59L125.65 103.62L114.57 100.29L106.18 108.94L108.88 120.90L119.96 124.23ZM153.52 89.66L150.83 77.68L139.74 74.35L131.35 83.00L134.04 94.97L145.13 98.30ZM134.04 94.97L131.35 83.00L120.26 79.67L111.87 88.32L114.57 100.29L125.65 103.62ZM161.60 125.58L158.91 113.61L147.82 110.28L139.43 118.92L142.12 130.89L153.20 134.22ZM142.12 130.89L139.43 118.92L128.35 115.59L119.96 124.23L122.65 136.20L133.73 139.53ZM167.31 104.97L164.61 92.99L153.52 89.66L145.13 98.30L147.82 110.28L158.91 113.61ZM231.54 68.44L228.86 56.45L217.75 53.10L209.34 61.75L212.02 73.74L223.12 77.08ZM212.02 73.74L209.34 61.75L198.24 58.41L189.83 67.05L192.52 79.04L203.61 82.38ZM237.28 47.80L234.60 35.80L223.49 32.46L215.07 41.11L217.75 53.10L228.86 56.45ZM217.75 53.10L215.07 41.11L203.97 37.77L195.55 46.42L198.24 58.41L209.34 61.75ZM245.32 83.78L242.64 71.79L231.54 68.44L223.12 77.08L225.81 89.07L236.90 92.42ZM225.81 89.07L223.12 77.08L212.02 73.74L203.61 82.38L206.30 94.36L217.39 97.71ZM251.07 63.14L248.38 51.15L237.28 47.80L228.86 56.45L231.54 68.44L242.64 71.79ZM12.35 13.92L9.64 1.95L-1.45 -1.35L-9.82 7.32L-7.10 19.29L3.98 22.59ZM18.01 -6.73L15.30 -18.70L4.21 -22.00L-4.17 -13.33L-1.45 -1.35L9.64 1.95Z"/><path data-band="3" fill="#dc2626" fill-opacity="0.35" d="M265.95 268.72L263.28 256.75L252.20 253.39L243.80 262.00L246.48 273.97L257.55 277.32ZM271.68 248.14L269.01 236.17L257.93 232.81L249.53 241.43L252.20 253.39L263.28 256.75ZM252.20 253.39L249.53 241.43L238.46 238.07L230.06 246.68L232.73 258.65L243.80 262.00ZM213.27 263.91L210.59 251.95L199.52 248.60L191.13 257.21L193.82 269.17L204.88 272.52ZM193.82 269.17L191.13 257.21L180.07 253.87L171.69 262.48L174.37 274.44L185.43 277.78ZM218.98 243.33L216.31 231.37L205.23 228.02L196.84 236.64L199.52 248.60L210.59 251.95ZM199.52 248.60L196.84 236.64L185.77 233.29L177.39 241.91L180.07 253.87L191.13 257.21ZM232.73 258.65L230.06 246.68L218.98 243.33L210.59 251.95L213.27 263.91L224.34 267.26ZM275.15 171.03L272.48 159.05L261.39 155.69L252.97 164.32L255.65 176.30L266.74 179.65ZM255.65 176.30L252.97 164.32L241.89 160.97L233.48 169.59L236.15 181.57L247.24 184.92ZM261.39 155.69L258.71 143.71L247.62 140.36L239.21 148.99L241.89 160.97L252.97 164.32ZM269.41 191.63L266.74 179.65L255.65 176.30L247.24 184.92L249.91 196.90L261.00 200.25ZM222.39 166.24L219.71 154.27L208.63 150.92L200.22 159.55L202.91 171.52L213.99 174.87ZM202.91 171.52L200.22 159.55L189.14 156.21L180.74 164.84L183.43 176.81L194.51 180.15ZM228.12 145.64L225.44 133.66L214.35 130.31L205.94 138.94L208.63 150.92L219.71 154.27ZM208.63 150.92L205.94 138.94L194.86 135.60L186.45 144.23L189.14 156.21L200.22 159.55ZM236.15 181.57L233.48 169.59L222.39 166.24L213.99 174.87L216.67 186.84L227.75 190.19ZM216.67 186.84L213.99 174.87L202.91 171.52L194.51 180.15L197.19 192.12L208.27 195.47ZM241.89 160.97L239.21 148.99L228.12 145.64L219.71 154.27L222.39 166.24L233.48 169.59ZM247.62 140.36L244.94 128.37L233.85 125.02L225.44 133.66L228.12 145.64L239.21 148.99ZM277.42 227.56L274.75 215.59L263.67 212.23L255.26 220.84L257.93 232.81L269.01 236.17ZM244.18 217.49L241.51 205.52L230.43 202.16L222.03 210.78L224.70 222.75L235.78 226.10ZM224.70 222.75L222.03 210.78L210.95 207.43L202.55 216.05L205.23 228.02L216.31 231.37ZM249.91 196.90L247.24 184.92L236.15 181.57L227.75 190.19L230.43 202.16L241.51 205.52ZM230.43 202.16L227.75 190.19L216.67 186.84L208.27 195.47L210.95 207.43L222.03 210.78ZM257.93 232.81L255.26 220.84L244.18 217.49L235.78 226.10L238.46 238.07L249.53 241.43ZM238.46 238.07L235.78 226.10L224.70 222.75L216.31 231.37L218.98 243.33L230.06 246.68ZM263.67 212.23L261.00 200.25L249.91 196.90L241.51 205.52L244.18 217.49L255.26 220.84ZM2.87 245.12L0.16 233.18L-10.89 229.88L-19.22 238.51L-16.51 250.44L-5.47 253.75ZM8.51 224.55L5.80 212.61L-5.25 209.30L-13.59 217.94L-10.89 229.88L0.16 233.18ZM16.63 260.37L13.92 248.43L2.87 245.12L-5.47 253.75L-2.76 265.68L8.28 268.99ZM22.27 239.80L19.56 227.86L8.51 224.55L0.16 233.18L2.87 245.12L13.92 248.43ZM33.56 198.65L30.85 186.70L19.79 183.39L11.44 192.03L14.15 203.98L25.21 207.29ZM14.15 203.98L11.44 192.03L0.38 188.72L-7.96 197.36L-5.25 209.30L5.80 212.61ZM39.21 178.07L36.51 166.12L25.44 162.80L17.09 171.45L19.79 183.39L30.85 186.70ZM19.79 183.39L17.09 171.45L6.03 168.14L-2.33 176.78L0.38 188.72L11.44 192.03ZM47.32 213.91L44.62 201.97L33.56 198.65L25.21 207.29L27.91 219.23L38.97 222.54ZM27.91 219.23L25.21 207.29L14.15 203.98L5.80 212.61L8.51 224.55L19.56 227.86ZM52.98 193.33L50.28 181.38L39.21 178.07L30.85 186.70L33.56 198.65L44.62 201.97ZM0.38 188.72L-2.33 176.78L-13.38 173.48L-21.73 182.12L-19.02 194.06L-7.96 197.36ZM55.42 249.75L52.72 237.80L41.67 234.49L33.32 243.11L36.02 255.05L47.07 258.37ZM36.02 255.05L33.32 243.11L22.27 239.80L13.92 248.43L16.63 260.37L27.67 263.68ZM61.08 229.18L58.38 217.23L47.32 213.91L38.97 222.54L41.67 234.49L52.72 237.80ZM41.67 234.49L38.97 222.54L27.91 219.23L19.56 227.86L22.27 239.80L33.32 243.11ZM69.18 265.01L66.48 253.07L55.42 249.75L47.07 258.37L49.77 270.31L60.82 273.63ZM49.77 270.31L47.07 258.37L36.02 255.05L27.67 263.68L30.38 275.61L41.42 278.93ZM74.84 244.44L72.14 232.50L61.08 229.18L52.72 237.80L55.42 249.75L66.48 253.07ZM64.30 152.15L61.60 140.19L50.53 136.88L42.16 145.52L44.87 157.48L55.94 160.79ZM44.87 157.48L42.16 145.52L31.09 142.21L22.74 150.85L25.44 162.80L36.51 166.12ZM78.07 167.43L75.37 155.47L64.30 152.15L55.94 160.79L58.64 172.75L69.70 176.06ZM58.64 172.75L55.94 160.79L44.87 157.48L36.51 166.12L39.21 178.07L50.28 181.38ZM83.74 146.83L81.04 134.87L69.97 131.55L61.60 140.19L64.30 152.15L75.37 155.47ZM11.67 147.54L8.96 135.59L-2.11 132.29L-10.46 140.94L-7.75 152.88L3.32 156.19ZM25.44 162.80L22.74 150.85L11.67 147.54L3.32 156.19L6.03 168.14L17.09 171.45ZM6.03 168.14L3.32 156.19L-7.75 152.88L-16.10 161.53L-13.38 173.48L-2.33 176.78ZM31.09 142.21L28.39 130.25L17.32 126.94L8.96 135.59L11.67 147.54L22.74 150.85ZM138.81 207.98L136.12 196.02L125.05 192.69L116.67 201.32L119.36 213.27L130.43 216.60ZM119.36 213.27L116.67 201.32L105.60 197.99L97.23 206.62L99.93 218.57L110.99 221.90ZM144.50 187.39L141.81 175.43L130.74 172.09L122.35 180.73L125.05 192.69L136.12 196.02ZM125.05 192.69L122.35 180.73L111.28 177.40L102.91 186.03L105.60 197.99L116.67 201.32ZM152.56 223.27L149.88 211.31L138.81 207.98L130.43 216.60L133.12 228.56L144.19 231.89ZM133.12 228.56L130.43 216.60L119.36 213.27L110.99 221.90L113.68 233.85L124.75 237.18ZM158.26 202.69L155.57 190.73L144.50 187.39L136.12 196.02L138.81 207.98L149.88 211.31ZM86.17 203.29L83.47 191.34L72.40 188.02L64.04 196.65L66.74 208.60L77.80 211.92ZM66.74 208.60L64.04 196.65L52.98 193.33L44.62 201.97L47.32 213.91L58.38 217.23ZM91.84 182.71L89.14 170.75L78.07 167.43L69.70 176.06L72.40 188.02L83.47 191.34ZM72.40 188.02L69.70 176.06L58.64 172.75L50.28 181.38L52.98 193.33L64.04 196.65ZM99.93 218.57L97.23 206.62L86.17 203.29L77.80 211.92L80.50 223.87L91.56 227.20ZM80.50 223.87L77.80 211.92L66.74 208.60L58.38 217.23L61.08 229.18L72.14 232.50ZM105.60 197.99L102.91 186.03L91.84 182.71L83.47 191.34L86.17 203.29L97.23 206.62ZM169.66 161.50L166.98 149.53L155.89 146.19L147.51 154.83L150.20 166.80L161.27 170.13ZM150.20 166.80L147.51 154.83L136.43 151.50L128.04 160.13L130.74 172.09L141.81 175.43ZM175.37 140.89L172.68 128.92L161.60 125.58L153.20 134.22L155.89 146.19L166.98 149.53ZM155.89 146.19L153.20 134.22L142.12 130.89L133.73 139.53L136.43 151.50L147.51 154.83ZM183.43 176.81L180.74 164.84L169.66 161.50L161.27 170.13L163.96 182.10L175.04 185.44ZM163.96 182.10L161.27 170.13L150.20 166.80L141.81 175.43L144.50 187.39L155.57 190.73ZM189.14 156.21L186.45 144.23L175.37 140.89L166.98 149.53L169.66 161.50L180.74 164.84ZM116.97 156.80L114.27 144.84L103.20 141.51L94.82 150.15L97.52 162.11L108.59 165.44ZM97.52 162.11L94.82 150.15L83.74 146.83L75.37 155.47L78.07 167.43L89.14 170.75ZM103.20 141.51L100.50 129.55L89.42 126.22L81.04 134.87L83.74 146.83L94.82 150.15ZM130.74 172.09L128.04 160.13L116.97 156.80L108.59 165.44L111.28 177.40L122.35 180.73ZM111.28 177.40L108.59 165.44L97.52 162.11L89.14 170.75L91.84 182.71L102.91 186.03ZM136.43 151.50L133.73 139.53L122.65 136.20L114.27 144.84L116.97 156.80L128.04 160.13ZM160.62 259.14L157.94 247.19L146.87 243.85L138.50 252.47L141.19 264.42L152.25 267.76ZM141.19 264.42L138.50 252.47L127.44 249.13L119.07 257.75L121.76 269.70L132.81 273.03ZM166.32 238.57L163.63 226.61L152.56 223.27L144.19 231.89L146.87 243.85L157.94 247.19ZM146.87 243.85L144.19 231.89L133.12 228.56L124.75 237.18L127.44 249.13L138.50 252.47ZM180.07 253.87L177.39 241.91L166.32 238.57L157.94 247.19L160.62 259.14L171.69 262.48ZM108.01 254.42L105.32 242.47L94.26 239.15L85.89 247.77L88.59 259.71L99.64 263.04ZM88.59 259.71L85.89 247.77L74.84 244.44L66.48 253.07L69.18 265.01L80.23 268.33ZM113.68 233.85L110.99 221.90L99.93 218.57L91.56 227.20L94.26 239.15L105.32 242.47ZM94.26 239.15L91.56 227.20L80.50 223.87L72.14 232.50L74.84 244.44L85.89 247.77ZM121.76 269.70L119.07 257.75L108.01 254.42L99.64 263.04L102.34 274.99L113.39 278.32ZM127.44 249.13L124.75 237.18L113.68 233.85L105.32 242.47L108.01 254.42L119.07 257.75ZM191.48 212.71L188.80 200.74L177.72 197.40L169.33 206.03L172.02 217.99L183.09 221.33ZM172.02 217.99L169.33 206.03L158.26 202.69L149.88 211.31L152.56 223.27L163.63 226.61ZM197.19 192.12L194.51 180.15L183.43 176.81L175.04 185.44L177.72 197.40L188.80 200.74ZM177.72 197.40L175.04 185.44L163.96 182.10L155.57 190.73L158.26 202.69L169.33 206.03ZM205.23 228.02L202.55 216.05L191.48 212.71L183.09 221.33L185.77 233.29L196.84 236.64ZM185.77 233.29L183.09 221.33L172.02 217.99L163.63 226.61L166.32 238.57L177.39 241.91ZM210.95 207.43L208.27 195.47L197.19 192.12L188.80 200.74L191.48 212.71L202.55 216.05Z"/></svg>
