<svg xmlns="http://www.w3.org/2000/svg" width="256" height="256" viewBox="0 0 256 256"><path data-band="3" fill="#dc2626" fill-opacity="0.35" d="M155.37 90.18L152.70 78.27L141.69 74.93L133.36 83.48L136.03 95.38L147.04 98.73ZM136.03 95.38L133.36 83.48L122.35 80.14L114.02 88.70L116.70 100.59L127.70 103.94ZM161.03 69.72L158.36 57.81L147.35 54.46L139.01 63.02L141.69 74.93L152.70 78.27ZM141.69 74.93L139.01 63.02L128.00 59.68L119.67 68.24L122.35 80.14L133.36 83.48ZM169.05 105.43L166.38 93.53L155.37 90.18L147.04 98.73L149.71 110.63L160.71 113.98ZM149.71 110.63L147.04 98.73L136.03 95.38L127.70 103.94L130.38 115.83L141.38 119.18ZM174.72 84.97L172.05 73.07L161.03 69.72L152.70 78.27L155.37 90.18L166.38 93.53ZM103.02 85.36L100.34 73.46L89.34 70.12L81.02 78.68L83.70 90.58L94.70 93.92ZM83.70 90.58L81.02 78.68L70.02 75.35L61.70 83.91L64.39 95.80L75.38 99.14ZM108.67 64.90L105.99 53.00L94.98 49.66L86.66 58.22L89.34 70.12L100.34 73.46ZM89.34 70.12L86.66 58.22L75.65 54.89L67.33 63.46L70.02 75.35L81.02 78.68ZM116.70 100.59L114.02 88.70L103.02 85.36L94.70 93.92L97.38 105.81L108.38 109.15ZM97.38 105.81L94.70 93.92L83.70 90.58L75.38 99.14L78.06 111.03L89.06 114.36ZM122.35 80.14L119.67 68.24L108.67 64.90L100.34 73.46L103.02 85.36L114.02 88.70ZM186.07 44.04L183.40 32.12L172.38 28.77L164.03 37.34L166.70 49.25L177.72 52.60ZM166.70 49.25L164.03 37.34L153.01 33.99L144.67 42.55L147.35 54.46L158.36 57.81ZM191.75 23.56L189.08 11.64L178.05 8.29L169.70 16.86L172.38 28.77L183.40 32.12ZM172.38 28.77L169.70 16.86L158.68 13.51L150.34 22.08L153.01 33.99L164.03 37.34ZM199.75 59.31L197.08 47.39L186.07 44.04L177.72 52.60L180.39 64.51L191.40 67.86ZM180.39 64.51L177.72 52.60L166.70 49.25L158.36 57.81L161.03 69.72L172.05 73.07ZM205.44 38.83L202.77 26.92L191.75 23.56L183.40 32.12L186.07 44.04L197.08 47.39ZM133.66 39.21L130.98 27.30L119.97 23.96L111.64 32.53L114.32 44.43L125.33 47.77ZM114.32 44.43L111.64 32.53L100.62 29.19L92.30 37.76L94.98 49.66L105.99 53.00ZM139.32 18.73L136.65 6.82L125.63 3.48L117.29 12.05L119.97 23.96L130.98 27.30ZM119.97 23.96L117.29 12.05L106.27 8.71L97.94 17.28L100.62 29.19L111.64 32.53ZM147.35 54.46L144.67 42.55L133.66 39.21L125.33 47.77L128.00 59.68L139.01 63.02ZM128.00 59.68L125.33 47.77L114.32 44.43L105.99 53.00L108.67 64.90L119.67 68.24ZM153.01 33.99L150.34 22.08L139.32 18.73L130.98 27.30L133.66 39.21L144.67 42.55ZM177.05 141.13L174.38 129.23L163.38 125.88L155.05 134.43L157.72 146.32L168.72 149.67ZM157.72 146.32L155.05 134.43L144.05 131.08L135.72 139.62L138.40 151.52L149.39 154.87ZM182.72 120.69L180.05 108.78L169.05 105.43L160.71 113.98L163.38 125.88L174.38 129.23ZM163.38 125.88L160.71 113.98L149.71 110.63L141.38 119.18L144.05 131.08L155.05 134.43ZM190.72 156.38L188.05 144.49L177.05 141.13L168.72 149.67L171.39 161.57L182.38 164.92ZM171.39 161.57L168.72 149.67L157.72 146.32L149.39 154.87L152.06 166.76L163.06 170.11ZM196.39 135.94L193.73 124.04L182.72 120.69L174.38 129.23L177.05 141.13L188.05 144.49ZM124.73 136.28L122.05 124.39L111.05 121.04L102.74 129.59L105.41 141.48L116.41 144.83ZM105.41 141.48L102.74 129.59L91.74 126.26L83.43 134.81L86.11 146.69L97.10 150.03ZM130.38 115.83L127.70 103.94L116.70 100.59L108.38 109.15L111.05 121.04L122.05 124.39ZM111.05 121.04L108.38 109.15L97.38 105.81L89.06 114.36L91.74 126.26L102.74 129.59ZM138.40 151.52L135.72 139.62L124.73 136.28L116.41 144.83L119.08 156.72L130.07 160.06ZM119.08 156.72L116.41 144.83L105.41 141.48L97.10 150.03L99.77 161.92L110.76 165.26ZM144.05 131.08L141.38 119.18L130.38 115.83L122.05 124.39L124.73 136.28L135.72 139.62ZM207.75 95.04L205.08 83.13L194.07 79.77L185.73 88.33L188.39 100.23L199.40 103.59ZM188.39 100.23L185.73 88.33L174.72 84.97L166.38 93.53L169.05 105.43L180.05 108.78ZM213.43 74.58L210.77 62.66L199.75 59.31L191.40 67.86L194.07 79.77L205.08 83.13ZM194.07 79.77L191.40 67.86L180.39 64.51L172.05 73.07L174.72 84.97L185.73 88.33ZM221.42 110.31L218.76 98.40L207.75 95.04L199.40 103.59L202.07 115.50L213.08 118.86ZM202.07 115.50L199.40 103.59L188.39 100.23L180.05 108.78L182.72 120.69L193.73 124.04ZM227.11 89.85L224.45 77.94L213.43 74.58L205.08 83.13L207.75 95.04L218.76 98.40ZM20.17 126.71L17.48 114.83L6.50 111.51L-1.80 120.07L0.89 131.94L11.88 135.27ZM0.89 131.94L-1.80 120.07L-12.79 116.75L-21.08 125.31L-18.38 137.18L-7.40 140.50ZM25.78 106.27L23.09 94.38L12.10 91.06L3.80 99.62L6.50 111.51L17.48 114.83ZM6.50 111.51L3.80 99.62L-7.19 96.30L-15.48 104.87L-12.79 116.75L-1.80 120.07ZM33.85 141.92L31.16 130.03L20.17 126.71L11.88 135.27L14.57 147.14L25.55 150.47ZM14.57 147.14L11.88 135.27L0.89 131.94L-7.40 140.50L-4.71 152.37L6.27 155.70ZM39.46 121.48L36.78 109.59L25.78 106.27L17.48 114.83L20.17 126.71L31.16 130.03ZM50.70 80.58L48.02 68.69L37.02 65.36L28.71 73.93L31.40 85.82L42.39 89.15ZM31.40 85.82L28.71 73.93L17.71 70.61L9.41 79.17L12.10 91.06L23.09 94.38ZM56.33 60.13L53.64 48.23L42.64 44.90L34.33 53.47L37.02 65.36L48.02 68.69ZM37.02 65.36L34.33 53.47L23.33 50.15L15.02 58.72L17.71 70.61L28.71 73.93ZM64.39 95.80L61.70 83.91L50.70 80.58L42.39 89.15L45.08 101.03L56.07 104.36ZM45.08 101.03L42.39 89.15L31.40 85.82L23.09 94.38L25.78 106.27L36.78 109.59ZM70.02 75.35L67.33 63.46L56.33 60.13L48.02 68.69L50.70 80.58L61.70 83.91ZM4.02 55.40L1.33 43.51L-9.67 40.19L-17.97 48.77L-15.27 60.65L-4.28 63.97ZM12.10 91.06L9.41 79.17L-1.58 75.85L-9.88 84.42L-7.19 96.30L3.80 99.62ZM17.71 70.61L15.02 58.72L4.02 55.40L-4.28 63.97L-1.58 75.85L9.41 79.17ZM41.90 177.55L39.22 165.67L28.24 162.35L19.94 170.89L22.63 182.77L33.61 186.10ZM22.63 182.77L19.94 170.89L8.96 167.57L0.67 176.12L3.36 187.99L14.34 191.31ZM47.52 157.12L44.83 145.24L33.85 141.92L25.55 150.47L28.24 162.35L39.22 165.67ZM28.24 162.35L25.55 150.47L14.57 147.14L6.27 155.70L8.96 167.57L19.94 170.89ZM55.57 192.76L52.88 180.88L41.90 177.55L33.61 186.10L36.29 197.97L47.27 201.30ZM36.29 197.97L33.61 186.10L22.63 182.77L14.34 191.31L17.02 203.18L28.00 206.51ZM61.19 172.34L58.50 160.46L47.52 157.12L39.22 165.67L41.90 177.55L52.88 180.88ZM3.36 187.99L0.67 176.12L-10.30 172.80L-18.59 181.35L-15.90 193.22L-4.92 196.54ZM8.96 167.57L6.27 155.70L-4.71 152.37L-13.00 160.93L-10.30 172.80L0.67 176.12ZM72.43 131.47L69.75 119.58L58.76 116.25L50.45 124.81L53.14 136.69L64.13 140.02ZM53.14 136.69L50.45 124.81L39.46 121.48L31.16 130.03L33.85 141.92L44.83 145.24ZM78.06 111.03L75.38 99.14L64.39 95.80L56.07 104.36L58.76 116.25L69.75 119.58ZM58.76 116.25L56.07 104.36L45.08 101.03L36.78 109.59L39.46 121.48L50.45 124.81ZM86.11 146.69L83.43 134.81L72.43 131.47L64.13 140.02L66.81 151.91L77.80 155.24ZM66.81 151.91L64.13 140.02L53.14 136.69L44.83 145.24L47.52 157.12L58.50 160.46ZM91.74 126.26L89.06 114.36L78.06 111.03L69.75 119.58L72.43 131.47L83.43 134.81ZM216.82 -2.13L214.15 -14.06L203.12 -17.41L194.76 -8.85L197.43 3.08L208.46 6.43ZM197.43 3.08L194.76 -8.85L183.73 -12.20L175.38 -3.63L178.05 8.29L189.08 11.64ZM230.51 13.15L227.85 1.22L216.82 -2.13L208.46 6.43L211.12 18.35L222.15 21.71ZM211.12 18.35L208.46 6.43L197.43 3.08L189.08 11.64L191.75 23.56L202.77 26.92ZM236.21 -7.34L233.55 -19.27L222.51 -22.63L214.15 -14.06L216.82 -2.13L227.85 1.22ZM164.36 -6.98L161.68 -18.90L150.66 -22.24L142.31 -13.67L144.99 -1.75L156.01 1.59ZM144.99 -1.75L142.31 -13.67L131.29 -17.01L122.95 -8.43L125.63 3.48L136.65 6.82ZM178.05 8.29L175.38 -3.63L164.36 -6.98L156.01 1.59L158.68 13.51L169.70 16.86ZM158.68 13.51L156.01 1.59L144.99 -1.75L136.65 6.82L139.32 18.73L150.34 22.08ZM73.23 -1.29L70.54 -13.20L59.53 -16.53L51.21 -7.95L53.90 3.96L64.91 7.29ZM53.90 3.96L51.21 -7.95L40.19 -11.27L31.88 -2.69L34.57 9.21L45.58 12.53ZM20.87 -6.01L18.17 -17.91L7.16 -21.23L-1.15 -12.65L1.55 -0.75L12.56 2.57ZM1.55 -0.75L-1.15 -12.65L-12.15 -15.96L-20.46 -7.38L-17.76 4.52L-6.76 7.83ZM81.29 34.42L78.60 22.52L67.59 19.19L59.27 27.76L61.96 39.66L72.97 42.99ZM61.96 39.66L59.27 27.76L48.27 24.43L39.95 33.01L42.64 44.90L53.64 48.23ZM86.93 13.95L84.25 2.04L73.23 -1.29L64.91 7.29L67.59 19.19L78.60 22.52ZM67.59 19.19L64.91 7.29L53.90 3.96L45.58 12.53L48.27 24.43L59.27 27.76ZM94.98 49.66L92.30 37.76L81.29 34.42L72.97 42.99L75.65 54.89L86.66 58.22ZM75.65 54.89L72.97 42.99L61.96 39.66L53.64 48.23L56.33 60.13L67.33 63.46ZM100.62 29.19L97.94 17.28L86.93 13.95L78.60 22.52L81.29 34.42L92.30 37.76ZM28.95 29.68L26.25 17.79L15.25 14.46L6.94 23.04L9.63 34.94L20.64 38.26ZM9.63 34.94L6.94 23.04L-4.06 19.72L-12.36 28.30L-9.67 40.19L1.33 43.51ZM34.57 9.21L31.88 -2.69L20.87 -6.01L12.56 2.57L15.25 14.46L26.25 17.79ZM15.25 14.46L12.56 2.57L1.55 -0.75L-6.76 7.83L-4.06 19.72L6.94 23.04ZM42.64 44.90L39.95 33.01L28.95 29.68L20.64 38.26L23.33 50.15L34.33 53.47ZM23.33 50.15L20.64 38.26L9.63 34.94L1.33 43.51L4.02 55.40L15.02 58.72ZM48.27 24.43L45.58 12.53L34.57 9.21L26.25 17.79L28.95 29.68L39.95 33.01ZM92.58 -6.53L89.89 -18.44L78.87 -21.78L70.54 -13.20L73.23 -1.29L84.25 2.04ZM125.63 3.48L122.95 -8.43L111.93 -11.77L103.59 -3.20L106.27 8.71L117.29 12.05ZM106.27 8.71L103.59 -3.20L92.58 -6.53L84.25 2.04L86.93 13.95L97.94 17.28ZM251.04 197.00L248.38 185.10L237.38 181.73L229.04 190.27L231.70 202.16L242.70 205.53ZM231.70 202.16L229.04 190.27L218.04 186.90L209.70 195.43L212.36 207.33L223.36 210.69ZM256.73 176.57L254.08 164.67L243.07 161.30L234.72 169.83L237.38 181.73L248.38 185.10ZM237.38 181.73L234.72 169.83L223.72 166.47L215.38 175.00L218.04 186.90L229.04 190.27ZM264.69 212.27L262.04 200.37L251.04 197.00L242.70 205.53L245.35 217.43L256.35 220.80ZM245.35 217.43L242.70 205.53L231.70 202.16L223.36 210.69L226.02 222.58L237.01 225.95ZM270.39 191.85L267.74 179.94L256.73 176.57L248.38 185.10L251.04 197.00L262.04 200.37ZM198.71 192.07L196.05 180.18L185.05 176.82L176.72 185.36L179.38 197.25L190.38 200.60ZM179.38 197.25L176.72 185.36L165.72 182.00L157.40 190.54L160.07 202.43L171.06 205.78ZM204.38 171.64L201.72 159.74L190.72 156.38L182.38 164.92L185.05 176.82L196.05 180.18ZM185.05 176.82L182.38 164.92L171.39 161.57L163.06 170.11L165.72 182.00L176.72 185.36ZM212.36 207.33L209.70 195.43L198.71 192.07L190.38 200.60L193.04 212.49L204.03 215.86ZM193.04 212.49L190.38 200.60L179.38 197.25L171.06 205.78L173.72 217.67L184.71 221.02ZM218.04 186.90L215.38 175.00L204.38 171.64L196.05 180.18L198.71 192.07L209.70 195.43ZM262.43 156.13L259.77 144.22L248.76 140.86L240.41 149.39L243.07 161.30L254.08 164.67ZM268.13 135.69L265.47 123.78L254.46 120.41L246.11 128.95L248.76 140.86L259.77 144.22ZM276.09 171.41L273.44 159.50L262.43 156.13L254.08 164.67L256.73 176.57L267.74 179.94ZM229.41 146.03L226.75 134.12L215.74 130.76L207.40 139.30L210.06 151.20L221.06 154.57ZM210.06 151.20L207.40 139.30L196.39 135.94L188.05 144.49L190.72 156.38L201.72 159.74ZM235.10 125.58L232.44 113.67L221.42 110.31L213.08 118.86L215.74 130.76L226.75 134.12ZM215.74 130.76L213.08 118.86L202.07 115.50L193.73 124.04L196.39 135.94L207.40 139.30ZM243.07 161.30L240.41 149.39L229.41 146.03L221.06 154.57L223.72 166.47L234.72 169.83ZM223.72 166.47L221.06 154.57L210.06 151.20L201.72 159.74L204.38 171.64L215.38 175.00ZM248.76 140.86L246.11 128.95L235.10 125.58L226.75 134.12L229.41 146.03L240.41 149.39ZM272.65 247.96L270.00 236.07L259.00 232.69L250.66 241.21L253.31 253.11L264.30 256.48ZM253.31 253.11L250.66 241.21L239.67 237.84L231.33 246.37L233.98 258.25L244.97 261.62ZM259.00 232.69L256.35 220.80L245.35 217.43L237.01 225.95L239.67 237.84L250.66 241.21ZM266.95 268.37L264.30 256.48L253.31 253.11L244.97 261.62L247.63 273.51L258.61 276.89ZM220.34 243.00L217.68 231.11L206.69 227.75L198.36 236.27L201.02 248.16L212.01 251.52ZM201.02 248.16L198.36 236.27L187.37 232.91L179.05 241.44L181.71 253.32L192.70 256.68ZM226.02 222.58L223.36 210.69L212.36 207.33L204.03 215.86L206.69 227.75L217.68 231.11ZM206.69 227.75L204.03 215.86L193.04 212.49L184.71 221.02L187.37 232.91L198.36 236.27ZM233.98 258.25L231.33 246.37L220.34 243.00L212.01 251.52L214.67 263.41L225.65 266.77ZM214.67 263.41L212.01 251.52L201.02 248.16L192.70 256.68L195.36 268.56L206.34 271.93ZM239.67 237.84L237.01 225.95L226.02 222.58L217.68 231.11L220.34 243.00L231.33 246.37ZM115.82 233.21L113.15 221.33L102.17 217.98L93.86 226.52L96.54 238.39L107.51 241.74ZM96.54 238.39L93.86 226.52L82.88 223.18L74.58 231.71L77.26 243.59L88.23 246.93ZM121.46 212.79L118.79 200.91L107.80 197.57L99.49 206.11L102.17 217.98L113.15 221.33ZM102.17 217.98L99.49 206.11L88.51 202.77L80.21 211.30L82.88 223.18L93.86 226.52ZM129.47 248.43L126.80 236.55L115.82 233.21L107.51 241.74L110.19 253.61L121.16 256.96ZM110.19 253.61L107.51 241.74L96.54 238.39L88.23 246.93L90.91 258.80L101.88 262.14ZM135.11 228.02L132.44 216.14L121.46 212.79L113.15 221.33L115.82 233.21L126.80 236.55ZM63.61 228.38L60.93 216.51L49.95 213.17L41.66 221.71L44.34 233.58L55.31 236.91ZM44.34 233.58L41.66 221.71L30.68 218.38L22.40 226.92L25.08 238.79L36.05 242.11ZM69.23 207.97L66.55 196.09L55.57 192.76L47.27 201.30L49.95 213.17L60.93 216.51ZM49.95 213.17L47.27 201.30L36.29 197.97L28.00 206.51L30.68 218.38L41.66 221.71ZM77.26 243.59L74.58 231.71L63.61 228.38L55.31 236.91L57.99 248.78L68.96 252.12ZM57.99 248.78L55.31 236.91L44.34 233.58L36.05 242.11L38.73 253.98L49.70 257.31ZM82.88 223.18L80.21 211.30L69.23 207.97L60.93 216.51L63.61 228.38L74.58 231.71ZM146.41 187.19L143.74 175.30L132.75 171.95L124.43 180.49L127.10 192.38L138.09 195.72ZM127.10 192.38L124.43 180.49L113.44 177.15L105.13 185.69L107.80 197.57L118.79 200.91ZM152.06 166.76L149.39 154.87L138.40 151.52L130.07 160.06L132.75 171.95L143.74 175.30ZM132.75 171.95L130.07 160.06L119.08 156.72L110.76 165.26L113.44 177.15L124.43 180.49ZM160.07 202.43L157.40 190.54L146.41 187.19L138.09 195.72L140.76 207.61L151.75 210.96ZM140.76 207.61L138.09 195.72L127.10 192.38L118.79 200.91L121.46 212.79L132.44 216.14ZM165.72 182.00L163.06 170.11L152.06 166.76L143.74 175.30L146.41 187.19L157.40 190.54ZM94.14 182.35L91.46 170.46L80.48 167.12L72.17 175.67L74.85 187.55L85.83 190.89ZM74.85 187.55L72.17 175.67L61.19 172.34L52.88 180.88L55.57 192.76L66.55 196.09ZM99.77 161.92L97.10 150.03L86.11 146.69L77.80 155.24L80.48 167.12L91.46 170.46ZM80.48 167.12L77.80 155.24L66.81 151.91L58.50 160.46L61.19 172.34L72.17 175.67ZM107.80 197.57L105.13 185.69L94.14 182.35L85.83 190.89L88.51 202.77L99.49 206.11ZM88.51 202.77L85.83 190.89L74.85 187.55L66.55 196.09L69.23 207.97L80.21 211.30ZM113.44 177.15L110.76 165.26L99.77 161.92L91.46 170.46L94.14 182.35L105.13 185.69ZM143.12 263.66L140.45 251.78L129.47 248.43L121.16 256.96L123.83 268.83L134.81 272.18ZM123.83 268.83L121.16 256.96L110.19 253.61L101.88 262.14L104.55 274.01L115.53 277.36ZM90.91 258.80L88.23 246.93L77.26 243.59L68.96 252.12L71.64 263.98L82.61 267.32ZM71.64 263.98L68.96 252.12L57.99 248.78L49.70 257.31L52.38 269.18L63.35 272.51ZM168.06 238.08L165.40 226.20L154.41 222.84L146.10 231.37L148.76 243.25L159.75 246.61ZM148.76 243.25L146.10 231.37L135.11 228.02L126.80 236.55L129.47 248.43L140.45 251.78ZM173.72 217.67L171.06 205.78L160.07 202.43L151.75 210.96L154.41 222.84L165.40 226.20ZM154.41 222.84L151.75 210.96L140.76 207.61L132.44 216.14L135.11 228.02L146.10 231.37ZM181.71 253.32L179.05 241.44L168.06 238.08L159.75 246.61L162.41 258.49L173.39 261.84ZM162.41 258.49L159.75 246.61L148.76 243.25L140.45 251.78L143.12 263.66L154.10 267.01ZM187.37 232.91L184.71 221.02L173.72 217.67L165.40 226.20L168.06 238.08L179.05 241.44ZM271.57 59.02L268.91 47.09L257.89 43.72L249.52 52.28L252.18 64.20L263.21 67.57ZM277.28 38.54L274.63 26.61L263.60 23.24L255.23 31.80L257.89 43.72L268.91 47.09ZM238.50 48.91L235.84 36.99L224.81 33.63L216.46 42.19L219.12 54.11L230.14 57.47ZM219.12 54.11L216.46 42.19L205.44 38.83L197.08 47.39L199.75 59.31L210.77 62.66ZM244.20 28.44L241.54 16.51L230.51 13.15L222.15 21.71L224.81 33.63L235.84 36.99ZM224.81 33.63L222.15 21.71L211.12 18.35L202.77 26.92L205.44 38.83L216.46 42.19ZM252.18 64.20L249.52 52.28L238.50 48.91L230.14 57.47L232.81 69.39L243.82 72.75ZM232.81 69.39L230.14 57.47L219.12 54.11L210.77 62.66L213.43 74.58L224.45 77.94ZM257.89 43.72L255.23 31.80L244.20 28.44L235.84 36.99L238.50 48.91L249.52 52.28ZM269.31 2.75L266.65 -9.18L255.61 -12.54L247.24 -3.98L249.91 7.95L260.94 11.32ZM249.91 7.95L247.24 -3.98L236.21 -7.34L227.85 1.22L230.51 13.15L241.54 16.51ZM263.60 23.24L260.94 11.32L249.91 7.95L241.54 16.51L244.20 28.44L255.23 31.80ZM260.16 99.95L257.50 88.03L246.48 84.67L238.13 93.22L240.79 105.13L251.80 108.49ZM240.79 105.13L238.13 93.22L227.11 89.85L218.76 98.40L221.42 110.31L232.44 113.67ZM265.86 79.49L263.21 67.57L252.18 64.20L243.82 72.75L246.48 84.67L257.50 88.03ZM246.48 84.67L243.82 72.75L232.81 69.39L224.45 77.94L227.11 89.85L238.13 93.22ZM273.83 115.23L271.18 103.32L260.16 99.95L251.80 108.49L254.46 120.41L265.47 123.78ZM254.46 120.41L251.80 108.49L240.79 105.13L232.44 113.67L235.10 125.58L246.11 128.95ZM195.36 268.56L192.70 256.68L181.71 253.32L173.39 261.84L176.05 273.72L187.03 277.08ZM0.24 264.39L-2.45 252.53L-13.41 249.21L-21.69 257.74L-19.00 269.60L-8.04 272.92ZM11.43 223.59L8.74 211.73L-2.23 208.40L-10.51 216.95L-7.83 228.81L3.14 232.13ZM17.02 203.18L14.34 191.31L3.36 187.99L-4.92 196.54L-2.23 208.40L8.74 211.73ZM25.08 238.79L22.40 226.92L11.43 223.59L3.14 232.13L5.83 243.99L16.80 247.32ZM5.83 243.99L3.14 232.13L-7.83 228.81L-16.10 237.35L-13.41 249.21L-2.45 252.53ZM30.68 218.38L28.00 206.51L17.02 203.18L8.74 211.73L11.43 223.59L22.40 226.92ZM38.73 253.98L36.05 242.11L25.08 238.79L16.80 247.32L19.48 259.18L30.45 262.51ZM19.48 259.18L16.80 247.32L5.83 243.99L-2.45 252.53L0.24 264.39L11.20 267.72ZM52.38 269.18L49.70 257.31L38.73 253.98L30.45 262.51L33.13 274.37L44.09 277.71Z"/></svg>
