<svg xmlns="http://www.w3.org/2000/svg" width="256" height="256" viewBox="0 0 256 256"><path data-band="3" fill="#dc2626" fill-opacity="0.35" d="M272.65 -8.04L270.00 -19.93L259.00 -23.31L250.66 -14.79L253.31 -2.89L264.30 0.48ZM253.31 -2.89L250.66 -14.79L239.67 -18.16L231.33 -9.63L233.98 2.25L244.97 5.62ZM266.95 12.37L264.30 0.48L253.31 -2.89L244.97 5.62L247.63 17.51L258.61 20.89ZM201.02 -7.84L198.36 -19.73L187.37 -23.09L179.05 -14.56L181.71 -2.68L192.70 0.68ZM233.98 2.25L231.33 -9.63L220.34 -13.00L212.01 -4.48L214.67 7.41L225.65 10.77ZM214.67 7.41L212.01 -4.48L201.02 -7.84L192.70 0.68L195.36 12.56L206.34 15.93ZM129.47 -7.57L126.80 -19.45L115.82 -22.79L107.51 -14.26L110.19 -2.39L121.16 0.96ZM110.19 -2.39L107.51 -14.26L96.54 -17.61L88.23 -9.07L90.91 2.80L101.88 6.14ZM57.99 -7.22L55.31 -19.09L44.34 -22.42L36.05 -13.89L38.73 -2.02L49.70 1.31ZM137.47 28.05L134.81 16.18L123.83 12.83L115.53 21.36L118.20 33.22L129.17 36.57ZM118.20 33.22L115.53 21.36L104.55 18.01L96.26 26.53L98.93 38.40L109.90 41.75ZM143.12 7.66L140.45 -4.22L129.47 -7.57L121.16 0.96L123.83 12.83L134.81 16.18ZM123.83 12.83L121.16 0.96L110.19 -2.39L101.88 6.14L104.55 18.01L115.53 21.36ZM151.11 43.28L148.45 31.41L137.47 28.05L129.17 36.57L131.84 48.44L142.81 51.80ZM131.84 48.44L129.17 36.57L118.20 33.22L109.90 41.75L112.57 53.61L123.53 56.96ZM156.76 22.89L154.10 11.01L143.12 7.66L134.81 16.18L137.47 28.05L148.45 31.41ZM85.29 23.19L82.61 11.32L71.64 7.98L63.35 16.51L66.02 28.38L76.99 31.72ZM66.02 28.38L63.35 16.51L52.38 13.18L44.09 21.71L46.77 33.57L57.74 36.90ZM90.91 2.80L88.23 -9.07L77.26 -12.41L68.96 -3.88L71.64 7.98L82.61 11.32ZM71.64 7.98L68.96 -3.88L57.99 -7.22L49.70 1.31L52.38 13.18L63.35 16.51ZM98.93 38.40L96.26 26.53L85.29 23.19L76.99 31.72L79.67 43.58L90.63 46.92ZM79.67 43.58L76.99 31.72L66.02 28.38L57.74 36.90L60.41 48.76L71.38 52.10ZM104.55 18.01L101.88 6.14L90.91 2.80L82.61 11.32L85.29 23.19L96.26 26.53ZM181.71 -2.68L179.05 -14.56L168.06 -17.92L159.75 -9.39L162.41 2.49L173.39 5.84ZM162.41 2.49L159.75 -9.39L148.76 -12.75L140.45 -4.22L143.12 7.66L154.10 11.01ZM254.43 185.52L251.79 173.65L240.82 170.28L232.51 178.77L235.16 190.63L246.12 194.00ZM235.16 190.63L232.51 178.77L221.55 175.39L213.24 183.88L215.89 195.74L226.85 199.11ZM260.10 165.17L257.46 153.30L246.49 149.92L238.18 158.41L240.82 170.28L251.79 173.65ZM240.82 170.28L238.18 158.41L227.21 155.04L218.90 163.53L221.55 175.39L232.51 178.77ZM268.04 200.76L265.39 188.90L254.43 185.52L246.12 194.00L248.76 205.86L259.72 209.24ZM248.76 205.86L246.12 194.00L235.16 190.63L226.85 199.11L229.50 210.97L240.45 214.35ZM273.71 180.41L271.07 168.55L260.10 165.17L251.79 173.65L254.43 185.52L265.39 188.90ZM265.78 144.81L263.14 132.94L252.17 129.56L243.85 138.05L246.49 149.92L257.46 153.30ZM271.46 124.44L268.82 112.57L257.84 109.19L249.52 117.69L252.17 129.56L263.14 132.94ZM275.96 236.34L273.32 224.48L262.36 221.10L254.05 229.58L256.69 241.44L267.64 244.82ZM256.69 241.44L254.05 229.58L243.10 226.20L234.79 234.68L237.43 246.53L248.38 249.91ZM262.36 221.10L259.72 209.24L248.76 205.86L240.45 214.35L243.10 226.20L254.05 229.58ZM270.29 256.67L267.64 244.82L256.69 241.44L248.38 249.91L251.03 261.76L261.98 265.14ZM171.75 226.31L169.09 214.46L158.14 211.10L149.85 219.59L152.51 231.43L163.46 234.79ZM152.51 231.43L149.85 219.59L138.91 216.23L130.63 224.72L133.29 236.56L144.23 239.92ZM177.38 205.98L174.73 194.13L163.78 190.76L155.49 199.25L158.14 211.10L169.09 214.46ZM158.14 211.10L155.49 199.25L144.54 195.89L136.25 204.38L138.91 216.23L149.85 219.59ZM185.34 241.52L182.69 229.68L171.75 226.31L163.46 234.79L166.11 246.64L177.05 250.00ZM166.11 246.64L163.46 234.79L152.51 231.43L144.23 239.92L146.88 251.76L157.82 255.12ZM190.99 221.19L188.33 209.34L177.38 205.98L169.09 214.46L171.75 226.31L182.69 229.68ZM119.68 221.36L117.02 209.52L106.08 206.17L97.80 214.66L100.47 226.50L111.41 229.85ZM100.47 226.50L97.80 214.66L86.86 211.31L78.59 219.80L81.26 231.64L92.20 234.98ZM125.30 201.03L122.64 189.18L111.70 185.83L103.42 194.32L106.08 206.17L117.02 209.52ZM106.08 206.17L103.42 194.32L92.47 190.98L84.20 199.47L86.86 211.31L97.80 214.66ZM133.29 236.56L130.63 224.72L119.68 221.36L111.41 229.85L114.07 241.69L125.01 245.04ZM114.07 241.69L111.41 229.85L100.47 226.50L92.20 234.98L94.86 246.82L105.79 250.17ZM138.91 216.23L136.25 204.38L125.30 201.03L117.02 209.52L119.68 221.36L130.63 224.72ZM202.28 180.51L199.63 168.65L188.67 165.29L180.37 173.78L183.03 185.64L193.98 189.00ZM183.03 185.64L180.37 173.78L169.42 170.42L161.12 178.91L163.78 190.76L174.73 194.13ZM207.94 160.16L205.29 148.30L194.32 144.93L186.02 153.43L188.67 165.29L199.63 168.65ZM188.67 165.29L186.02 153.43L175.06 150.07L166.76 158.56L169.42 170.42L180.37 173.78ZM215.89 195.74L213.24 183.88L202.28 180.51L193.98 189.00L196.63 200.86L207.59 204.23ZM196.63 200.86L193.98 189.00L183.03 185.64L174.73 194.13L177.38 205.98L188.33 209.34ZM221.55 175.39L218.90 163.53L207.94 160.16L199.63 168.65L202.28 180.51L213.24 183.88ZM150.17 175.55L147.51 163.70L136.56 160.34L128.27 168.84L130.93 180.69L141.88 184.04ZM130.93 180.69L128.27 168.84L117.32 165.49L109.03 173.98L111.70 185.83L122.64 189.18ZM155.80 155.20L153.14 143.35L142.19 139.99L133.89 148.49L136.56 160.34L147.51 163.70ZM136.56 160.34L133.89 148.49L122.94 145.14L114.65 153.64L117.32 165.49L128.27 168.84ZM163.78 190.76L161.12 178.91L150.17 175.55L141.88 184.04L144.54 195.89L155.49 199.25ZM144.54 195.89L141.88 184.04L130.93 180.69L122.64 189.18L125.30 201.03L136.25 204.38ZM169.42 170.42L166.76 158.56L155.80 155.20L147.51 163.70L150.17 175.55L161.12 178.91ZM198.94 256.74L196.29 244.89L185.34 241.52L177.05 250.00L179.71 261.85L190.65 265.21ZM179.71 261.85L177.05 250.00L166.11 246.64L157.82 255.12L160.48 266.96L171.42 270.32ZM146.88 251.76L144.23 239.92L133.29 236.56L125.01 245.04L127.67 256.88L138.60 260.24ZM127.67 256.88L125.01 245.04L114.07 241.69L105.79 250.17L108.46 262.01L119.39 265.36ZM160.48 266.96L157.82 255.12L146.88 251.76L138.60 260.24L141.26 272.07L152.20 275.43ZM223.84 231.31L221.19 219.45L210.24 216.08L201.94 224.56L204.59 236.41L215.53 239.78ZM204.59 236.41L201.94 224.56L190.99 221.19L182.69 229.68L185.34 241.52L196.29 244.89ZM229.50 210.97L226.85 199.11L215.89 195.74L207.59 204.23L210.24 216.08L221.19 219.45ZM210.24 216.08L207.59 204.23L196.63 200.86L188.33 209.34L190.99 221.19L201.94 224.56ZM237.43 246.53L234.79 234.68L223.84 231.31L215.53 239.78L218.18 251.63L229.13 255.01ZM218.18 251.63L215.53 239.78L204.59 236.41L196.29 244.89L198.94 256.74L209.88 260.11ZM243.10 226.20L240.45 214.35L229.50 210.97L221.19 219.45L223.84 231.31L234.79 234.68ZM274.90 48.04L272.25 36.15L261.26 32.77L252.93 41.28L255.58 53.17L266.56 56.54ZM211.30 83.83L208.64 71.95L197.67 68.59L189.35 77.10L192.01 88.97L202.98 92.33ZM192.01 88.97L189.35 77.10L178.38 73.74L170.07 82.25L172.73 94.11L183.70 97.47ZM216.96 63.44L214.31 51.57L203.33 48.20L195.01 56.71L197.67 68.59L208.64 71.95ZM197.67 68.59L195.01 56.71L184.04 53.35L175.72 61.86L178.38 73.74L189.35 77.10ZM224.92 99.07L222.27 87.20L211.30 83.83L202.98 92.33L205.64 104.20L216.61 107.57ZM205.64 104.20L202.98 92.33L192.01 88.97L183.70 97.47L186.36 109.34L197.32 112.71ZM230.59 78.69L227.94 66.81L216.96 63.44L208.64 71.95L211.30 83.83L222.27 87.20ZM159.10 78.89L156.44 67.02L145.47 63.66L137.17 72.18L139.83 84.04L150.80 87.40ZM139.83 84.04L137.17 72.18L126.20 68.83L117.90 77.34L120.57 89.20L131.53 92.55ZM164.75 58.51L162.09 46.63L151.11 43.28L142.81 51.80L145.47 63.66L156.44 67.02ZM145.47 63.66L142.81 51.80L131.84 48.44L123.53 56.96L126.20 68.83L137.17 72.18ZM172.73 94.11L170.07 82.25L159.10 78.89L150.80 87.40L153.46 99.26L164.43 102.62ZM153.46 99.26L150.80 87.40L139.83 84.04L131.53 92.55L134.20 104.41L145.16 107.77ZM178.38 73.74L175.72 61.86L164.75 58.51L156.44 67.02L159.10 78.89L170.07 82.25ZM241.94 37.91L239.29 26.03L228.31 22.66L219.98 31.17L222.63 43.05L233.61 46.42ZM222.63 43.05L219.98 31.17L209.00 27.81L200.67 36.32L203.33 48.20L214.31 51.57ZM247.63 17.51L244.97 5.62L233.98 2.25L225.65 10.77L228.31 22.66L239.29 26.03ZM228.31 22.66L225.65 10.77L214.67 7.41L206.34 15.93L209.00 27.81L219.98 31.17ZM255.58 53.17L252.93 41.28L241.94 37.91L233.61 46.42L236.27 58.30L247.25 61.68ZM236.27 58.30L233.61 46.42L222.63 43.05L214.31 51.57L216.96 63.44L227.94 66.81ZM261.26 32.77L258.61 20.89L247.63 17.51L239.29 26.03L241.94 37.91L252.93 41.28ZM189.69 32.96L187.03 21.08L176.05 17.72L167.74 26.24L170.40 38.12L181.38 41.48ZM170.40 38.12L167.74 26.24L156.76 22.89L148.45 31.41L151.11 43.28L162.09 46.63ZM195.36 12.56L192.70 0.68L181.71 -2.68L173.39 5.84L176.05 17.72L187.03 21.08ZM176.05 17.72L173.39 5.84L162.41 2.49L154.10 11.01L156.76 22.89L167.74 26.24ZM203.33 48.20L200.67 36.32L189.69 32.96L181.38 41.48L184.04 53.35L195.01 56.71ZM184.04 53.35L181.38 41.48L170.40 38.12L162.09 46.63L164.75 58.51L175.72 61.86ZM209.00 27.81L206.34 15.93L195.36 12.56L187.03 21.08L189.69 32.96L200.67 36.32ZM232.88 134.68L230.23 122.81L219.26 119.44L210.94 127.94L213.60 139.80L224.56 143.17ZM213.60 139.80L210.94 127.94L199.98 124.57L191.67 133.07L194.32 144.93L205.29 148.30ZM238.55 114.31L235.90 102.44L224.92 99.07L216.61 107.57L219.26 119.44L230.23 122.81ZM219.26 119.44L216.61 107.57L205.64 104.20L197.32 112.71L199.98 124.57L210.94 127.94ZM246.49 149.92L243.85 138.05L232.88 134.68L224.56 143.17L227.21 155.04L238.18 158.41ZM227.21 155.04L224.56 143.17L213.60 139.80L205.29 148.30L207.94 160.16L218.90 163.53ZM252.17 129.56L249.52 117.69L238.55 114.31L230.23 122.81L232.88 134.68L243.85 138.05ZM180.71 129.71L178.05 117.84L167.09 114.48L158.78 122.99L161.44 134.85L172.40 138.21ZM161.44 134.85L158.78 122.99L147.82 119.63L139.52 128.13L142.19 139.99L153.14 143.35ZM186.36 109.34L183.70 97.47L172.73 94.11L164.43 102.62L167.09 114.48L178.05 117.84ZM167.09 114.48L164.43 102.62L153.46 99.26L145.16 107.77L147.82 119.63L158.78 122.99ZM194.32 144.93L191.67 133.07L180.71 129.71L172.40 138.21L175.06 150.07L186.02 153.43ZM175.06 150.07L172.40 138.21L161.44 134.85L153.14 143.35L155.80 155.20L166.76 158.56ZM199.98 124.57L197.32 112.71L186.36 109.34L178.05 117.84L180.71 129.71L191.67 133.07ZM263.52 88.81L260.88 76.93L249.90 73.56L241.57 82.06L244.22 93.94L255.20 97.31ZM244.22 93.94L241.57 82.06L230.59 78.69L222.27 87.20L224.92 99.07L235.90 102.44ZM269.21 68.43L266.56 56.54L255.58 53.17L247.25 61.68L249.90 73.56L260.88 76.93ZM249.90 73.56L247.25 61.68L236.27 58.30L227.94 66.81L230.59 78.69L241.57 82.06ZM277.15 104.07L274.50 92.19L263.52 88.81L255.20 97.31L257.84 109.19L268.82 112.57ZM257.84 109.19L255.20 97.31L244.22 93.94L235.90 102.44L238.55 114.31L249.52 117.69ZM251.03 261.76L248.38 249.91L237.43 246.53L229.13 255.01L231.77 266.86L242.72 270.23ZM231.77 266.86L229.13 255.01L218.18 251.63L209.88 260.11L212.53 271.96L223.48 275.33ZM7.62 176.10L4.95 164.26L-5.99 160.93L-14.25 169.44L-11.57 181.27L-0.63 184.60ZM13.21 155.76L10.53 143.92L-0.42 140.59L-8.67 149.10L-5.99 160.93L4.95 164.26ZM0.24 8.39L-2.45 -3.47L-13.41 -6.79L-21.69 1.74L-19.00 13.60L-8.04 16.92ZM2.70 64.33L0.02 52.48L-10.94 49.16L-19.20 57.68L-16.52 69.53L-5.57 72.86ZM8.29 43.96L5.61 32.10L-5.35 28.78L-13.62 37.31L-10.94 49.16L0.02 52.48ZM16.34 79.51L13.66 67.66L2.70 64.33L-5.57 72.86L-2.88 84.70L8.07 88.03ZM21.93 59.14L19.25 47.29L8.29 43.96L0.02 52.48L2.70 64.33L13.66 67.66ZM33.13 18.37L30.45 6.51L19.48 3.18L11.20 11.72L13.88 23.57L24.85 26.90ZM13.88 23.57L11.20 11.72L0.24 8.39L-8.04 16.92L-5.35 28.78L5.61 32.10ZM38.73 -2.02L36.05 -13.89L25.08 -17.21L16.80 -8.68L19.48 3.18L30.45 6.51ZM19.48 3.18L16.80 -8.68L5.83 -12.01L-2.45 -3.47L0.24 8.39L11.20 11.72ZM46.77 33.57L44.09 21.71L33.13 18.37L24.85 26.90L27.53 38.76L38.49 42.09ZM27.53 38.76L24.85 26.90L13.88 23.57L5.61 32.10L8.29 43.96L19.25 47.29ZM52.38 13.18L49.70 1.31L38.73 -2.02L30.45 6.51L33.13 18.37L44.09 21.71ZM37.28 262.24L34.61 250.41L23.68 247.08L15.43 255.57L18.10 267.39L29.03 270.73ZM18.10 267.39L15.43 255.57L4.50 252.23L-3.74 260.72L-1.07 272.54L9.86 275.87ZM42.87 241.93L40.19 230.10L29.26 226.76L21.01 235.25L23.68 247.08L34.61 250.41ZM23.68 247.08L21.01 235.25L10.08 231.92L1.83 240.41L4.50 252.23L15.43 255.57ZM56.47 257.10L53.80 245.27L42.87 241.93L34.61 250.41L37.28 262.24L48.21 265.58ZM4.50 252.23L1.83 240.41L-9.10 237.08L-17.34 245.57L-14.66 257.39L-3.74 260.72ZM67.66 216.46L64.99 204.62L54.05 201.28L45.78 209.77L48.45 221.61L59.39 224.95ZM48.45 221.61L45.78 209.77L34.85 206.43L26.59 214.93L29.26 226.76L40.19 230.10ZM73.26 196.12L70.59 184.28L59.64 180.94L51.38 189.44L54.05 201.28L64.99 204.62ZM54.05 201.28L51.38 189.44L40.44 186.10L32.17 194.60L34.85 206.43L45.78 209.77ZM81.26 231.64L78.59 219.80L67.66 216.46L59.39 224.95L62.06 236.78L72.99 240.12ZM62.06 236.78L59.39 224.95L48.45 221.61L40.19 230.10L42.87 241.93L53.80 245.27ZM86.86 211.31L84.20 199.47L73.26 196.12L64.99 204.62L67.66 216.46L78.59 219.80ZM15.66 211.59L12.98 199.76L2.05 196.43L-6.21 204.93L-3.53 216.76L7.40 220.09ZM21.24 191.26L18.56 179.43L7.62 176.10L-0.63 184.60L2.05 196.43L12.98 199.76ZM2.05 196.43L-0.63 184.60L-11.57 181.27L-19.82 189.77L-17.14 201.60L-6.21 204.93ZM29.26 226.76L26.59 214.93L15.66 211.59L7.40 220.09L10.08 231.92L21.01 235.25ZM10.08 231.92L7.40 220.09L-3.53 216.76L-11.78 225.25L-9.10 237.08L1.83 240.41ZM34.85 206.43L32.17 194.60L21.24 191.26L12.98 199.76L15.66 211.59L26.59 214.93ZM89.25 267.14L86.59 255.30L75.66 251.96L67.39 260.44L70.06 272.27L80.99 275.62ZM94.86 246.82L92.20 234.98L81.26 231.64L72.99 240.12L75.66 251.96L86.59 255.30ZM75.66 251.96L72.99 240.12L62.06 236.78L53.80 245.27L56.47 257.10L67.39 260.44ZM108.46 262.01L105.79 250.17L94.86 246.82L86.59 255.30L89.25 267.14L100.19 270.49ZM76.46 119.89L73.79 108.04L62.83 104.70L54.55 113.21L57.23 125.06L68.18 128.40ZM57.23 125.06L54.55 113.21L43.60 109.88L35.33 118.39L38.00 130.23L48.95 133.57ZM82.07 99.53L79.40 87.68L68.44 84.33L60.16 92.85L62.83 104.70L73.79 108.04ZM62.83 104.70L60.16 92.85L49.20 89.51L40.92 98.03L43.60 109.88L54.55 113.21ZM90.08 135.09L87.41 123.24L76.46 119.89L68.18 128.40L70.85 140.25L81.80 143.59ZM70.85 140.25L68.18 128.40L57.23 125.06L48.95 133.57L51.63 145.42L62.57 148.76ZM95.70 114.73L93.03 102.88L82.07 99.53L73.79 108.04L76.46 119.89L87.41 123.24ZM24.38 115.05L21.70 103.21L10.75 99.88L2.48 108.39L5.17 120.24L16.11 123.57ZM5.17 120.24L2.48 108.39L-8.46 105.07L-16.72 113.58L-14.04 125.42L-3.10 128.75ZM29.97 94.69L27.29 82.84L16.34 79.51L8.07 88.03L10.75 99.88L21.70 103.21ZM10.75 99.88L8.07 88.03L-2.88 84.70L-11.15 93.22L-8.46 105.07L2.48 108.39ZM38.00 130.23L35.33 118.39L24.38 115.05L16.11 123.57L18.79 135.41L29.74 138.74ZM18.79 135.41L16.11 123.57L5.17 120.24L-3.10 128.75L-0.42 140.59L10.53 143.92ZM43.60 109.88L40.92 98.03L29.97 94.69L21.70 103.21L24.38 115.05L35.33 118.39ZM106.94 73.99L104.27 62.13L93.30 58.78L85.01 67.30L87.68 79.16L98.65 82.51ZM87.68 79.16L85.01 67.30L74.05 63.96L65.76 72.48L68.44 84.33L79.40 87.68ZM112.57 53.61L109.90 41.75L98.93 38.40L90.63 46.92L93.30 58.78L104.27 62.13ZM93.30 58.78L90.63 46.92L79.67 43.58L71.38 52.10L74.05 63.96L85.01 67.30ZM120.57 89.20L117.90 77.34L106.94 73.99L98.65 82.51L101.32 94.36L112.28 97.71ZM101.32 94.36L98.65 82.51L87.68 79.16L79.40 87.68L82.07 99.53L93.03 102.88ZM126.20 68.83L123.53 56.96L112.57 53.61L104.27 62.13L106.94 73.99L117.90 77.34ZM54.81 69.14L52.13 57.28L41.17 53.95L32.89 62.47L35.57 74.32L46.52 77.66ZM35.57 74.32L32.89 62.47L21.93 59.14L13.66 67.66L16.34 79.51L27.29 82.84ZM60.41 48.76L57.74 36.90L46.77 33.57L38.49 42.09L41.17 53.95L52.13 57.28ZM41.17 53.95L38.49 42.09L27.53 38.76L19.25 47.29L21.93 59.14L32.89 62.47ZM68.44 84.33L65.76 72.48L54.81 69.14L46.52 77.66L49.20 89.51L60.16 92.85ZM49.20 89.51L46.52 77.66L35.57 74.32L27.29 82.84L29.97 94.69L40.92 98.03ZM74.05 63.96L71.38 52.10L60.41 48.76L52.13 57.28L54.81 69.14L65.76 72.48ZM98.08 170.63L95.42 158.79L84.47 155.44L76.19 163.94L78.86 175.79L89.80 179.13ZM78.86 175.79L76.19 163.94L65.25 160.60L56.97 169.10L59.64 180.94L70.59 184.28ZM103.70 150.29L101.03 138.44L90.08 135.09L81.80 143.59L84.47 155.44L95.42 158.79ZM84.47 155.44L81.80 143.59L70.85 140.25L62.57 148.76L65.25 160.60L76.19 163.94ZM111.70 185.83L109.03 173.98L98.08 170.63L89.80 179.13L92.47 190.98L103.42 194.32ZM92.47 190.98L89.80 179.13L78.86 175.79L70.59 184.28L73.26 196.12L84.20 199.47ZM117.32 165.49L114.65 153.64L103.70 150.29L95.42 158.79L98.08 170.63L109.03 173.98ZM46.03 165.76L43.36 153.92L32.41 150.58L24.15 159.09L26.82 170.93L37.76 174.26ZM26.82 170.93L24.15 159.09L13.21 155.76L4.95 164.26L7.62 176.10L18.56 179.43ZM51.63 145.42L48.95 133.57L38.00 130.23L29.74 138.74L32.41 150.58L43.36 153.92ZM32.41 150.58L29.74 138.74L18.79 135.41L10.53 143.92L13.21 155.76L24.15 159.09ZM59.64 180.94L56.97 169.10L46.03 165.76L37.76 174.26L40.44 186.10L51.38 189.44ZM40.44 186.10L37.76 174.26L26.82 170.93L18.56 179.43L21.24 191.26L32.17 194.60ZM65.25 160.60L62.57 148.76L51.63 145.42L43.36 153.92L46.03 165.76L56.97 169.10ZM128.57 124.78L125.90 112.92L114.94 109.57L106.65 118.08L109.32 129.93L120.27 133.28ZM109.32 129.93L106.65 118.08L95.70 114.73L87.41 123.24L90.08 135.09L101.03 138.44ZM134.20 104.41L131.53 92.55L120.57 89.20L112.28 97.71L114.94 109.57L125.90 112.92ZM114.94 109.57L112.28 97.71L101.32 94.36L93.03 102.88L95.70 114.73L106.65 118.08ZM142.19 139.99L139.52 128.13L128.57 124.78L120.27 133.28L122.94 145.14L133.89 148.49ZM122.94 145.14L120.27 133.28L109.32 129.93L101.03 138.44L103.70 150.29L114.65 153.64ZM147.82 119.63L145.16 107.77L134.20 104.41L125.90 112.92L128.57 124.78L139.52 128.13Z"/></svg>
