<svg xmlns="http://www.w3.org/2000/svg" width="256" height="256" viewBox="0 0 256 256"><path data-band="3" fill="#dc2626" fill-opacity="0.35" d="M270.18 64.06L267.55 52.25L256.65 48.86L248.38 57.28L251.01 69.08L261.91 72.47ZM251.01 69.08L248.38 57.28L237.48 53.89L229.22 62.31L231.85 74.11L242.75 77.50ZM275.83 43.83L273.20 32.02L262.30 28.63L254.02 37.05L256.65 48.86L267.55 52.25ZM256.65 48.86L254.02 37.05L243.12 33.66L234.85 42.08L237.48 53.89L248.38 57.28ZM264.54 84.28L261.91 72.47L251.01 69.08L242.75 77.50L245.38 89.30L256.27 92.69ZM272.42 119.68L269.79 107.88L258.90 104.49L250.64 112.90L253.26 124.69L264.15 128.09ZM20.92 260.70L18.26 248.95L7.42 245.60L-0.77 254.00L1.89 265.74L12.73 269.09ZM1.89 265.74L-0.77 254.00L-11.61 250.65L-19.79 259.05L-17.13 270.79L-6.30 274.14ZM45.50 235.51L42.85 223.75L31.99 220.40L23.80 228.80L26.45 240.55L37.30 243.91ZM26.45 240.55L23.80 228.80L12.95 225.45L4.76 233.85L7.42 245.60L18.26 248.95ZM51.05 215.35L48.39 203.59L37.54 200.24L29.34 208.64L31.99 220.40L42.85 223.75ZM31.99 220.40L29.34 208.64L18.49 205.29L10.29 213.70L12.95 225.45L23.80 228.80ZM59.00 250.62L56.35 238.86L45.50 235.51L37.30 243.91L39.95 255.66L50.80 259.01ZM39.95 255.66L37.30 243.91L26.45 240.55L18.26 248.95L20.92 260.70L31.76 264.05ZM64.55 230.47L61.90 218.71L51.05 215.35L42.85 223.75L45.50 235.51L56.35 238.86ZM7.42 245.60L4.76 233.85L-6.08 230.51L-14.27 238.91L-11.61 250.65L-0.77 254.00ZM12.95 225.45L10.29 213.70L-0.55 210.35L-8.74 218.76L-6.08 230.51L4.76 233.85ZM72.49 265.73L69.85 253.98L59.00 250.62L50.80 259.01L53.45 270.76L64.29 274.12ZM53.45 270.76L50.80 259.01L39.95 255.66L31.76 264.05L34.41 275.80L45.25 279.15ZM93.20 -1.74L90.54 -13.54L79.65 -16.90L71.41 -8.45L74.07 3.34L84.96 6.69ZM74.07 3.34L71.41 -8.45L60.52 -11.81L52.29 -3.37L54.95 8.42L65.84 11.78ZM106.74 13.41L104.09 1.61L93.20 -1.74L84.96 6.69L87.61 18.49L98.50 21.84ZM87.61 18.49L84.96 6.69L74.07 3.34L65.84 11.78L68.49 23.56L79.38 26.92ZM112.33 -6.82L109.68 -18.62L98.78 -21.98L90.54 -13.54L93.20 -1.74L104.09 1.61ZM41.40 -6.71L38.74 -18.51L27.85 -21.85L19.63 -13.41L22.29 -1.62L33.18 1.73ZM22.29 -1.62L19.63 -13.41L8.74 -16.75L0.52 -8.30L3.19 3.48L14.07 6.82ZM54.95 8.42L52.29 -3.37L41.40 -6.71L33.18 1.73L35.84 13.51L46.72 16.86ZM35.84 13.51L33.18 1.73L22.29 -1.62L14.07 6.82L16.74 18.61L27.62 21.95ZM114.69 48.79L112.04 37.00L101.15 33.64L92.92 42.07L95.57 53.85L106.46 57.21ZM95.57 53.85L92.92 42.07L82.04 38.71L73.81 47.14L76.46 58.92L87.34 62.28ZM120.28 28.57L117.63 16.77L106.74 13.41L98.50 21.84L101.15 33.64L112.04 37.00ZM101.15 33.64L98.50 21.84L87.61 18.49L79.38 26.92L82.04 38.71L92.92 42.07ZM128.23 63.94L125.58 52.15L114.69 48.79L106.46 57.21L109.11 69.00L119.99 72.37ZM109.11 69.00L106.46 57.21L95.57 53.85L87.34 62.28L89.99 74.07L100.87 77.43ZM133.82 43.73L131.17 31.93L120.28 28.57L112.04 37.00L114.69 48.79L125.58 52.15ZM62.92 43.78L60.27 32.00L49.38 28.65L41.16 37.08L43.82 48.86L54.70 52.22ZM43.82 48.86L41.16 37.08L30.28 33.73L22.06 42.17L24.72 53.95L35.60 57.30ZM68.49 23.56L65.84 11.78L54.95 8.42L46.72 16.86L49.38 28.65L60.27 32.00ZM49.38 28.65L46.72 16.86L35.84 13.51L27.62 21.95L30.28 33.73L41.16 37.08ZM76.46 58.92L73.81 47.14L62.92 43.78L54.70 52.22L57.36 64.00L68.23 67.35ZM57.36 64.00L54.70 52.22L43.82 48.86L35.60 57.30L38.26 69.07L49.14 72.43ZM82.04 38.71L79.38 26.92L68.49 23.56L60.27 32.00L62.92 43.78L73.81 47.14ZM145.02 3.27L142.37 -8.53L131.47 -11.90L123.23 -3.46L125.88 8.34L136.77 11.70ZM125.88 8.34L123.23 -3.46L112.33 -6.82L104.09 1.61L106.74 13.41L117.63 16.77ZM158.56 18.44L155.92 6.64L145.02 3.27L136.77 11.70L139.42 23.50L150.31 26.87ZM139.42 23.50L136.77 11.70L125.88 8.34L117.63 16.77L120.28 28.57L131.17 31.93ZM164.17 -1.79L161.53 -13.60L150.63 -16.97L142.37 -8.53L145.02 3.27L155.92 6.64ZM3.19 3.48L0.52 -8.30L-10.36 -11.64L-18.57 -3.20L-15.90 8.58L-5.02 11.92ZM0.09 79.24L-2.57 67.47L-13.44 64.13L-21.65 72.56L-18.98 84.33L-8.11 87.67ZM11.18 38.83L8.52 27.05L-2.36 23.70L-10.57 32.14L-7.90 43.92L2.97 47.26ZM16.74 18.61L14.07 6.82L3.19 3.48L-5.02 11.92L-2.36 23.70L8.52 27.05ZM24.72 53.95L22.06 42.17L11.18 38.83L2.97 47.26L5.64 59.04L16.51 62.38ZM5.64 59.04L2.97 47.26L-7.90 43.92L-16.11 52.35L-13.44 64.13L-2.57 67.47ZM30.28 33.73L27.62 21.95L16.74 18.61L8.52 27.05L11.18 38.83L22.06 42.17ZM187.94 104.38L185.30 92.59L174.41 89.22L166.17 97.63L168.81 109.42L179.69 112.80ZM168.81 109.42L166.17 97.63L155.29 94.26L147.04 102.68L149.69 114.46L160.57 117.83ZM193.55 84.18L190.91 72.38L180.02 69.00L171.77 77.42L174.41 89.22L185.30 92.59ZM174.41 89.22L171.77 77.42L160.89 74.05L152.64 82.47L155.29 94.26L166.17 97.63ZM201.46 119.56L198.83 107.76L187.94 104.38L179.69 112.80L182.33 124.59L193.21 127.96ZM182.33 124.59L179.69 112.80L168.81 109.42L160.57 117.83L163.21 129.62L174.09 132.99ZM207.08 99.35L204.44 87.56L193.55 84.18L185.30 92.59L187.94 104.38L198.83 107.76ZM136.16 99.31L133.52 87.52L122.64 84.15L114.40 92.57L117.05 104.36L127.93 107.72ZM117.05 104.36L114.40 92.57L103.52 89.21L95.30 97.63L97.94 109.41L108.82 112.77ZM141.76 79.10L139.11 67.31L128.23 63.94L119.99 72.37L122.64 84.15L133.52 87.52ZM122.64 84.15L119.99 72.37L109.11 69.00L100.87 77.43L103.52 89.21L114.40 92.57ZM149.69 114.46L147.04 102.68L136.16 99.31L127.93 107.72L130.57 119.50L141.45 122.87ZM130.57 119.50L127.93 107.72L117.05 104.36L108.82 112.77L111.47 124.55L122.34 127.92ZM155.29 94.26L152.64 82.47L141.76 79.10L133.52 87.52L136.16 99.31L147.04 102.68ZM218.32 58.92L215.69 47.12L204.79 43.74L196.53 52.16L199.17 63.96L210.06 67.34ZM199.17 63.96L196.53 52.16L185.64 48.79L177.38 57.21L180.02 69.00L190.91 72.38ZM223.95 38.70L221.32 26.89L210.41 23.51L202.15 31.94L204.79 43.74L215.69 47.12ZM204.79 43.74L202.15 31.94L191.25 28.56L183.00 36.99L185.64 48.79L196.53 52.16ZM231.85 74.11L229.22 62.31L218.32 58.92L210.06 67.34L212.70 79.14L223.59 82.53ZM212.70 79.14L210.06 67.34L199.17 63.96L190.91 72.38L193.55 84.18L204.44 87.56ZM237.48 53.89L234.85 42.08L223.95 38.70L215.69 47.12L218.32 58.92L229.22 62.31ZM166.49 53.83L163.85 42.04L152.96 38.67L144.71 47.09L147.36 58.89L158.24 62.26ZM147.36 58.89L144.71 47.09L133.82 43.73L125.58 52.15L128.23 63.94L139.11 67.31ZM172.10 33.61L169.46 21.81L158.56 18.44L150.31 26.87L152.96 38.67L163.85 42.04ZM152.96 38.67L150.31 26.87L139.42 23.50L131.17 31.93L133.82 43.73L144.71 47.09ZM180.02 69.00L177.38 57.21L166.49 53.83L158.24 62.26L160.89 74.05L171.77 77.42ZM160.89 74.05L158.24 62.26L147.36 58.89L139.11 67.31L141.76 79.10L152.64 82.47ZM185.64 48.79L183.00 36.99L172.10 33.61L163.85 42.04L166.49 53.83L177.38 57.21ZM209.36 154.92L206.73 143.13L195.85 139.75L187.60 148.16L190.24 159.94L201.12 163.32ZM190.24 159.94L187.60 148.16L176.72 144.78L168.49 153.18L171.12 164.97L182.00 168.34ZM214.98 134.73L212.35 122.94L201.46 119.56L193.21 127.96L195.85 139.75L206.73 143.13ZM195.85 139.75L193.21 127.96L182.33 124.59L174.09 132.99L176.72 144.78L187.60 148.16ZM222.87 170.09L220.24 158.31L209.36 154.92L201.12 163.32L203.75 175.11L214.62 178.49ZM203.75 175.11L201.12 163.32L190.24 159.94L182.00 168.34L184.63 180.12L195.51 183.51ZM228.49 149.90L225.86 138.11L214.98 134.73L206.73 143.13L209.36 154.92L220.24 158.31ZM157.61 149.81L154.97 138.03L144.09 134.66L135.86 143.07L138.50 154.84L149.38 158.22ZM138.50 154.84L135.86 143.07L124.99 139.70L116.76 148.11L119.40 159.88L130.27 163.25ZM163.21 129.62L160.57 117.83L149.69 114.46L141.45 122.87L144.09 134.66L154.97 138.03ZM144.09 134.66L141.45 122.87L130.57 119.50L122.34 127.92L124.99 139.70L135.86 143.07ZM171.12 164.97L168.49 153.18L157.61 149.81L149.38 158.22L152.02 169.99L162.89 173.37ZM152.02 169.99L149.38 158.22L138.50 154.84L130.27 163.25L132.92 175.03L143.79 178.40ZM176.72 144.78L174.09 132.99L163.21 129.62L154.97 138.03L157.61 149.81L168.49 153.18ZM239.75 109.51L237.11 97.71L226.22 94.32L217.97 102.74L220.60 114.53L231.49 117.92ZM220.60 114.53L217.97 102.74L207.08 99.35L198.83 107.76L201.46 119.56L212.35 122.94ZM245.38 89.30L242.75 77.50L231.85 74.11L223.59 82.53L226.22 94.32L237.11 97.71ZM226.22 94.32L223.59 82.53L212.70 79.14L204.44 87.56L207.08 99.35L217.97 102.74ZM253.26 124.69L250.64 112.90L239.75 109.51L231.49 117.92L234.12 129.71L245.00 133.10ZM234.12 129.71L231.49 117.92L220.60 114.53L212.35 122.94L214.98 134.73L225.86 138.11ZM258.90 104.49L256.27 92.69L245.38 89.30L237.11 97.71L239.75 109.51L250.64 112.90ZM54.20 139.72L51.54 127.95L40.68 124.59L32.47 133.01L35.12 144.78L45.99 148.13ZM35.12 144.78L32.47 133.01L21.60 129.66L13.40 138.08L16.06 149.85L26.92 153.19ZM59.76 119.53L57.10 107.76L46.23 104.40L38.02 112.82L40.68 124.59L51.54 127.95ZM40.68 124.59L38.02 112.82L27.15 109.47L18.94 117.90L21.60 129.66L32.47 133.01ZM67.72 154.84L65.06 143.07L54.20 139.72L45.99 148.13L48.64 159.90L59.50 163.25ZM48.64 159.90L45.99 148.13L35.12 144.78L26.92 153.19L29.57 164.96L40.43 168.31ZM73.28 134.66L70.63 122.89L59.76 119.53L51.54 127.95L54.20 139.72L65.06 143.07ZM2.54 134.74L-0.12 122.97L-10.99 119.63L-19.18 128.05L-16.52 139.81L-5.66 143.15ZM8.08 114.55L5.42 102.78L-5.45 99.44L-13.65 107.86L-10.99 119.63L-0.12 122.97ZM16.06 149.85L13.40 138.08L2.54 134.74L-5.66 143.15L-3.00 154.92L7.86 158.26ZM21.60 129.66L18.94 117.90L8.08 114.55L-0.12 122.97L2.54 134.74L13.40 138.08ZM84.42 94.27L81.77 82.49L70.89 79.13L62.67 87.56L65.32 99.33L76.20 102.69ZM65.32 99.33L62.67 87.56L51.79 84.20L43.58 92.63L46.23 104.40L57.10 107.76ZM89.99 74.07L87.34 62.28L76.46 58.92L68.23 67.35L70.89 79.13L81.77 82.49ZM70.89 79.13L68.23 67.35L57.36 64.00L49.14 72.43L51.79 84.20L62.67 87.56ZM97.94 109.41L95.30 97.63L84.42 94.27L76.20 102.69L78.85 114.47L89.72 117.83ZM78.85 114.47L76.20 102.69L65.32 99.33L57.10 107.76L59.76 119.53L70.63 122.89ZM103.52 89.21L100.87 77.43L89.99 74.07L81.77 82.49L84.42 94.27L95.30 97.63ZM32.70 89.28L30.04 77.50L19.17 74.16L10.96 82.58L13.62 94.36L24.49 97.70ZM13.62 94.36L10.96 82.58L0.09 79.24L-8.11 87.67L-5.45 99.44L5.42 102.78ZM38.26 69.07L35.60 57.30L24.72 53.95L16.51 62.38L19.17 74.16L30.04 77.50ZM19.17 74.16L16.51 62.38L5.64 59.04L-2.57 67.47L0.09 79.24L10.96 82.58ZM46.23 104.40L43.58 92.63L32.70 89.28L24.49 97.70L27.15 109.47L38.02 112.82ZM27.15 109.47L24.49 97.70L13.62 94.36L5.42 102.78L8.08 114.55L18.94 117.90ZM51.79 84.20L49.14 72.43L38.26 69.07L30.04 77.50L32.70 89.28L43.58 92.63ZM75.67 190.14L73.02 178.38L62.16 175.02L53.95 183.43L56.60 195.19L67.46 198.55ZM56.60 195.19L53.95 183.43L43.09 180.07L34.89 188.48L37.54 200.24L48.39 203.59ZM81.23 169.97L78.58 158.20L67.72 154.84L59.50 163.25L62.16 175.02L73.02 178.38ZM62.16 175.02L59.50 163.25L48.64 159.90L40.43 168.31L43.09 180.07L53.95 183.43ZM89.17 205.27L86.53 193.50L75.67 190.14L67.46 198.55L70.11 210.31L80.96 213.67ZM70.11 210.31L67.46 198.55L56.60 195.19L48.39 203.59L51.05 215.35L61.90 218.71ZM94.74 185.10L92.09 173.33L81.23 169.97L73.02 178.38L75.67 190.14L86.53 193.50ZM24.03 185.13L21.37 173.37L10.52 170.02L2.32 178.43L4.98 190.19L15.83 193.54ZM4.98 190.19L2.32 178.43L-8.53 175.09L-16.72 183.50L-14.06 195.25L-3.21 198.60ZM29.57 164.96L26.92 153.19L16.06 149.85L7.86 158.26L10.52 170.02L21.37 173.37ZM10.52 170.02L7.86 158.26L-3.00 154.92L-11.19 163.33L-8.53 175.09L2.32 178.43ZM37.54 200.24L34.89 188.48L24.03 185.13L15.83 193.54L18.49 205.29L29.34 208.64ZM18.49 205.29L15.83 193.54L4.98 190.19L-3.21 198.60L-0.55 210.35L10.29 213.70ZM43.09 180.07L40.43 168.31L29.57 164.96L21.37 173.37L24.03 185.13L34.89 188.48ZM105.89 144.74L103.24 132.97L92.37 129.60L84.15 138.02L86.80 149.79L97.67 153.15ZM86.80 149.79L84.15 138.02L73.28 134.66L65.06 143.07L67.72 154.84L78.58 158.20ZM111.47 124.55L108.82 112.77L97.94 109.41L89.72 117.83L92.37 129.60L103.24 132.97ZM92.37 129.60L89.72 117.83L78.85 114.47L70.63 122.89L73.28 134.66L84.15 138.02ZM119.40 159.88L116.76 148.11L105.89 144.74L97.67 153.15L100.31 164.92L111.18 168.29ZM100.31 164.92L97.67 153.15L86.80 149.79L78.58 158.20L81.23 169.97L92.09 173.33ZM124.99 139.70L122.34 127.92L111.47 124.55L103.24 132.97L105.89 144.74L116.76 148.11ZM248.76 13.43L246.13 1.62L235.22 -1.77L226.95 6.66L229.58 18.47L240.49 21.85ZM229.58 18.47L226.95 6.66L216.04 3.28L207.78 11.71L210.41 23.51L221.32 26.89ZM254.40 -6.81L251.77 -18.63L240.86 -22.01L232.58 -13.58L235.22 -1.77L246.13 1.62ZM235.22 -1.77L232.58 -13.58L221.67 -16.96L213.40 -8.53L216.04 3.28L226.95 6.66ZM262.30 28.63L259.67 16.82L248.76 13.43L240.49 21.85L243.12 33.66L254.02 37.05ZM243.12 33.66L240.49 21.85L229.58 18.47L221.32 26.89L223.95 38.70L234.85 42.08ZM267.94 8.39L265.31 -3.42L254.40 -6.81L246.13 1.62L248.76 13.43L259.67 16.82ZM196.87 8.33L194.23 -3.48L183.33 -6.85L175.07 1.58L177.71 13.38L188.61 16.76ZM177.71 13.38L175.07 1.58L164.17 -1.79L155.92 6.64L158.56 18.44L169.46 21.81ZM183.33 -6.85L180.69 -18.66L169.78 -22.03L161.53 -13.60L164.17 -1.79L175.07 1.58ZM210.41 23.51L207.78 11.71L196.87 8.33L188.61 16.76L191.25 28.56L202.15 31.94ZM191.25 28.56L188.61 16.76L177.71 13.38L169.46 21.81L172.10 33.61L183.00 36.99ZM216.04 3.28L213.40 -8.53L202.50 -11.91L194.23 -3.48L196.87 8.33L207.78 11.71ZM263.38 215.62L260.76 203.84L249.88 200.44L241.63 208.83L244.26 220.62L255.13 224.01ZM269.02 195.45L266.39 183.66L255.51 180.26L247.26 188.66L249.88 200.44L260.76 203.84ZM276.88 230.80L274.26 219.02L263.38 215.62L255.13 224.01L257.75 235.79L268.63 239.19ZM230.76 205.44L228.13 193.66L217.25 190.27L209.01 198.67L211.64 210.45L222.51 213.83ZM211.64 210.45L209.01 198.67L198.14 195.28L189.90 203.68L192.53 215.46L203.40 218.84ZM236.38 185.27L233.75 173.48L222.87 170.09L214.62 178.49L217.25 190.27L228.13 193.66ZM217.25 190.27L214.62 178.49L203.75 175.11L195.51 183.51L198.14 195.28L209.01 198.67ZM244.26 220.62L241.63 208.83L230.76 205.44L222.51 213.83L225.14 225.61L236.01 229.00ZM225.14 225.61L222.51 213.83L211.64 210.45L203.40 218.84L206.03 230.62L216.90 234.00ZM249.88 200.44L247.26 188.66L236.38 185.27L228.13 193.66L230.76 205.44L241.63 208.83ZM261.14 160.08L258.52 148.28L247.63 144.89L239.38 153.29L242.00 165.08L252.89 168.47ZM242.00 165.08L239.38 153.29L228.49 149.90L220.24 158.31L222.87 170.09L233.75 173.48ZM266.78 139.88L264.15 128.09L253.26 124.69L245.00 133.10L247.63 144.89L258.52 148.28ZM247.63 144.89L245.00 133.10L234.12 129.71L225.86 138.11L228.49 149.90L239.38 153.29ZM274.65 175.26L272.03 163.47L261.14 160.08L252.89 168.47L255.51 180.26L266.39 183.66ZM255.51 180.26L252.89 168.47L242.00 165.08L233.75 173.48L236.38 185.27L247.26 188.66ZM252.13 255.95L249.51 244.17L238.64 240.78L230.39 249.17L233.02 260.94L243.89 264.33ZM233.02 260.94L230.39 249.17L219.53 245.78L211.29 254.16L213.92 265.93L224.78 269.32ZM257.75 235.79L255.13 224.01L244.26 220.62L236.01 229.00L238.64 240.78L249.51 244.17ZM238.64 240.78L236.01 229.00L225.14 225.61L216.90 234.00L219.53 245.78L230.39 249.17ZM265.62 271.12L263.00 259.35L252.13 255.95L243.89 264.33L246.51 276.11L257.37 279.50ZM271.25 250.97L268.63 239.19L257.75 235.79L249.51 244.17L252.13 255.95L263.00 259.35ZM148.75 245.64L146.12 233.88L135.26 230.50L127.04 238.90L129.68 250.66L140.53 254.03ZM129.68 250.66L127.04 238.90L116.18 235.53L107.96 243.92L110.61 255.68L121.46 259.05ZM154.34 225.48L151.70 213.71L140.84 210.34L132.62 218.74L135.26 230.50L146.12 233.88ZM135.26 230.50L132.62 218.74L121.75 215.37L113.54 223.76L116.18 235.53L127.04 238.90ZM162.25 260.78L159.61 249.02L148.75 245.64L140.53 254.03L143.17 265.80L154.03 269.17ZM143.17 265.80L140.53 254.03L129.68 250.66L121.46 259.05L124.10 270.81L134.95 274.18ZM167.84 240.63L165.20 228.86L154.34 225.48L146.12 233.88L148.75 245.64L159.61 249.02ZM97.11 240.55L94.47 228.79L83.61 225.43L75.40 233.83L78.05 245.58L88.90 248.95ZM78.05 245.58L75.40 233.83L64.55 230.47L56.35 238.86L59.00 250.62L69.85 253.98ZM102.68 220.40L100.03 208.63L89.17 205.27L80.96 213.67L83.61 225.43L94.47 228.79ZM83.61 225.43L80.96 213.67L70.11 210.31L61.90 218.71L64.55 230.47L75.40 233.83ZM110.61 255.68L107.96 243.92L97.11 240.55L88.90 248.95L91.55 260.70L102.40 264.07ZM91.55 260.70L88.90 248.95L78.05 245.58L69.85 253.98L72.49 265.73L83.34 269.10ZM116.18 235.53L113.54 223.76L102.68 220.40L94.47 228.79L97.11 240.55L107.96 243.92ZM179.03 200.30L176.40 188.52L165.52 185.15L157.29 193.54L159.93 205.32L170.80 208.70ZM159.93 205.32L157.29 193.54L146.42 190.17L138.20 198.57L140.84 210.34L151.70 213.71ZM184.63 180.12L182.00 168.34L171.12 164.97L162.89 173.37L165.52 185.15L176.40 188.52ZM165.52 185.15L162.89 173.37L152.02 169.99L143.79 178.40L146.42 190.17L157.29 193.54ZM192.53 215.46L189.90 203.68L179.03 200.30L170.80 208.70L173.43 220.47L184.30 223.85ZM173.43 220.47L170.80 208.70L159.93 205.32L151.70 213.71L154.34 225.48L165.20 228.86ZM198.14 195.28L195.51 183.51L184.63 180.12L176.40 188.52L179.03 200.30L189.90 203.68ZM127.33 195.20L124.69 183.43L113.82 180.06L105.60 188.46L108.25 200.23L119.11 203.60ZM108.25 200.23L105.60 188.46L94.74 185.10L86.53 193.50L89.17 205.27L100.03 208.63ZM132.92 175.03L130.27 163.25L119.40 159.88L111.18 168.29L113.82 180.06L124.69 183.43ZM113.82 180.06L111.18 168.29L100.31 164.92L92.09 173.33L94.74 185.10L105.60 188.46ZM140.84 210.34L138.20 198.57L127.33 195.20L119.11 203.60L121.75 215.37L132.62 218.74ZM121.75 215.37L119.11 203.60L108.25 200.23L100.03 208.63L102.68 220.40L113.54 223.76ZM146.42 190.17L143.79 178.40L132.92 175.03L124.69 183.43L127.33 195.20L138.20 198.57ZM124.10 270.81L121.46 259.05L110.61 255.68L102.40 264.07L105.04 275.83L115.89 279.20ZM200.43 250.78L197.80 239.00L186.93 235.62L178.70 244.01L181.33 255.78L192.19 259.16ZM181.33 255.78L178.70 244.01L167.84 240.63L159.61 249.02L162.25 260.78L173.11 264.16ZM206.03 230.62L203.40 218.84L192.53 215.46L184.30 223.85L186.93 235.62L197.80 239.00ZM186.93 235.62L184.30 223.85L173.43 220.47L165.20 228.86L167.84 240.63L178.70 244.01ZM213.92 265.93L211.29 254.16L200.43 250.78L192.19 259.16L194.82 270.93L205.68 274.31ZM194.82 270.93L192.19 259.16L181.33 255.78L173.11 264.16L175.74 275.93L186.60 279.31ZM219.53 245.78L216.90 234.00L206.03 230.62L197.80 239.00L200.43 250.78L211.29 254.16Z"/></svg>
