<svg xmlns="http://www.w3.org/2000/svg" width="256" height="256" viewBox="0 0 256 256"><path data-band="3" fill="#dc2626" fill-opacity="0.35" d="M126.12 4.81L123.50 -6.87L112.73 -10.26L104.58 -1.95L107.20 9.73L117.97 13.11ZM107.20 9.73L104.58 -1.95L93.80 -5.34L85.66 2.96L88.28 14.64L99.05 18.02ZM139.51 19.88L136.89 8.20L126.12 4.81L117.97 13.11L120.59 24.79L131.36 28.18ZM120.59 24.79L117.97 13.11L107.20 9.73L99.05 18.02L101.67 29.70L112.44 33.09ZM145.05 -0.10L142.43 -11.78L131.66 -15.17L123.50 -6.87L126.12 4.81L136.89 8.20ZM74.89 -0.41L72.26 -12.09L61.49 -15.47L53.35 -7.16L55.98 4.51L66.75 7.89ZM55.98 4.51L53.35 -7.16L42.58 -10.53L34.45 -2.23L37.08 9.44L47.85 12.82ZM88.28 14.64L85.66 2.96L74.89 -0.41L66.75 7.89L69.38 19.56L80.14 22.94ZM69.38 19.56L66.75 7.89L55.98 4.51L47.85 12.82L50.48 24.49L61.24 27.86ZM93.80 -5.34L91.18 -17.02L80.41 -20.40L72.26 -12.09L74.89 -0.41L85.66 2.96ZM147.36 54.93L144.75 43.25L133.98 39.86L125.83 48.15L128.44 59.83L139.21 63.21ZM128.44 59.83L125.83 48.15L115.06 44.76L106.92 53.05L109.54 64.73L120.30 68.11ZM152.90 34.96L150.28 23.27L139.51 19.88L131.36 28.18L133.98 39.86L144.75 43.25ZM133.98 39.86L131.36 28.18L120.59 24.79L112.44 33.09L115.06 44.76L125.83 48.15ZM160.74 70.00L158.13 58.32L147.36 54.93L139.21 63.21L141.83 74.89L152.59 78.28ZM141.83 74.89L139.21 63.21L128.44 59.83L120.30 68.11L122.92 79.78L133.68 83.17ZM166.29 50.03L163.67 38.35L152.90 34.96L144.75 43.25L147.36 54.93L158.13 58.32ZM96.15 49.67L93.53 38.00L82.77 34.62L74.63 42.91L77.25 54.58L88.01 57.96ZM77.25 54.58L74.63 42.91L63.87 39.53L55.73 47.83L58.36 59.50L69.12 62.87ZM101.67 29.70L99.05 18.02L88.28 14.64L80.14 22.94L82.77 34.62L93.53 38.00ZM82.77 34.62L80.14 22.94L69.38 19.56L61.24 27.86L63.87 39.53L74.63 42.91ZM109.54 64.73L106.92 53.05L96.15 49.67L88.01 57.96L90.64 69.63L101.39 73.01ZM90.64 69.63L88.01 57.96L77.25 54.58L69.12 62.87L71.74 74.54L82.50 77.92ZM115.06 44.76L112.44 33.09L101.67 29.70L93.53 38.00L96.15 49.67L106.92 53.05ZM177.38 10.08L174.77 -1.61L163.99 -5.00L155.83 3.29L158.44 14.98L169.22 18.38ZM158.44 14.98L155.83 3.29L145.05 -0.10L136.89 8.20L139.51 19.88L150.28 23.27ZM163.99 -5.00L161.37 -16.69L150.59 -20.08L142.43 -11.78L145.05 -0.10L155.83 3.29ZM190.77 25.17L188.16 13.48L177.38 10.08L169.22 18.38L171.83 30.06L182.61 33.46ZM171.83 30.06L169.22 18.38L158.44 14.98L150.28 23.27L152.90 34.96L163.67 38.35ZM196.33 5.19L193.72 -6.51L182.94 -9.90L174.77 -1.61L177.38 10.08L188.16 13.48ZM7.21 54.31L4.58 42.64L-6.18 39.28L-14.29 47.58L-11.66 59.24L-0.90 62.60ZM12.70 34.35L10.07 22.68L-0.69 19.31L-8.81 27.62L-6.18 39.28L4.58 42.64ZM23.69 -5.60L21.05 -17.27L10.29 -20.64L2.16 -12.33L4.80 -0.66L15.56 2.71ZM4.80 -0.66L2.16 -12.33L-8.60 -15.69L-16.73 -7.38L-14.09 4.29L-3.33 7.65ZM37.08 9.44L34.45 -2.23L23.69 -5.60L15.56 2.71L18.19 14.38L28.95 17.75ZM18.19 14.38L15.56 2.71L4.80 -0.66L-3.33 7.65L-0.69 19.31L10.07 22.68ZM15.11 89.28L12.48 77.63L1.73 74.26L-6.38 82.55L-3.75 94.21L7.00 97.57ZM20.60 69.34L17.97 57.67L7.21 54.31L-0.90 62.60L1.73 74.26L12.48 77.63ZM1.73 74.26L-0.90 62.60L-11.66 59.24L-19.77 67.53L-17.13 79.19L-6.38 82.55ZM28.49 104.31L25.86 92.65L15.11 89.28L7.00 97.57L9.63 109.23L20.37 112.60ZM9.63 109.23L7.00 97.57L-3.75 94.21L-11.86 102.50L-9.23 114.15L1.51 117.51ZM33.98 84.37L31.35 72.70L20.60 69.34L12.48 77.63L15.11 89.28L25.86 92.65ZM44.97 44.45L42.34 32.79L31.58 29.41L23.46 37.71L26.09 49.38L36.85 52.75ZM26.09 49.38L23.46 37.71L12.70 34.35L4.58 42.64L7.21 54.31L17.97 57.67ZM50.48 24.49L47.85 12.82L37.08 9.44L28.95 17.75L31.58 29.41L42.34 32.79ZM31.58 29.41L28.95 17.75L18.19 14.38L10.07 22.68L12.70 34.35L23.46 37.71ZM58.36 59.50L55.73 47.83L44.97 44.45L36.85 52.75L39.47 64.41L50.23 67.79ZM39.47 64.41L36.85 52.75L26.09 49.38L17.97 57.67L20.60 69.34L31.35 72.70ZM63.87 39.53L61.24 27.86L50.48 24.49L42.34 32.79L44.97 44.45L55.73 47.83ZM180.96 249.86L178.36 238.20L167.62 234.80L159.48 243.05L162.09 254.70L172.83 258.11ZM162.09 254.70L159.48 243.05L148.74 239.65L140.61 247.91L143.22 259.56L153.96 262.95ZM186.50 229.95L183.89 218.29L173.15 214.89L165.01 223.14L167.62 234.80L178.36 238.20ZM167.62 234.80L165.01 223.14L154.27 219.75L146.13 228.00L148.74 239.65L159.48 243.05ZM194.30 264.91L191.70 253.26L180.96 249.86L172.83 258.11L175.43 269.76L186.17 273.16ZM175.43 269.76L172.83 258.11L162.09 254.70L153.96 262.95L156.56 274.60L167.30 278.00ZM199.84 245.01L197.24 233.35L186.50 229.95L178.36 238.20L180.96 249.86L191.70 253.26ZM129.88 244.51L127.27 232.87L116.53 229.47L108.41 237.73L111.02 249.38L121.75 252.77ZM111.02 249.38L108.41 237.73L97.67 234.34L89.55 242.60L92.17 254.24L102.90 257.63ZM135.39 224.61L132.78 212.96L122.04 209.56L113.92 217.82L116.53 229.47L127.27 232.87ZM116.53 229.47L113.92 217.82L103.18 214.43L95.06 222.70L97.67 234.34L108.41 237.73ZM143.22 259.56L140.61 247.91L129.88 244.51L121.75 252.77L124.36 264.41L135.10 267.81ZM124.36 264.41L121.75 252.77L111.02 249.38L102.90 257.63L105.51 269.27L116.24 272.66ZM148.74 239.65L146.13 228.00L135.39 224.61L127.27 232.87L129.88 244.51L140.61 247.91ZM210.94 205.18L208.33 193.52L197.58 190.11L189.43 198.37L192.04 210.03L202.79 213.44ZM192.04 210.03L189.43 198.37L178.69 194.97L170.54 203.23L173.15 214.89L183.89 218.29ZM216.49 185.26L213.88 173.59L203.13 170.18L194.98 178.45L197.58 190.11L208.33 193.52ZM197.58 190.11L194.98 178.45L184.22 175.04L176.08 183.31L178.69 194.97L189.43 198.37ZM224.29 220.25L221.69 208.59L210.94 205.18L202.79 213.44L205.39 225.10L216.14 228.51ZM205.39 225.10L202.79 213.44L192.04 210.03L183.89 218.29L186.50 229.95L197.24 233.35ZM229.84 200.34L227.24 188.67L216.49 185.26L208.33 193.52L210.94 205.18L221.69 208.59ZM159.80 199.83L157.19 188.17L146.44 184.78L138.31 193.04L140.92 204.70L151.66 208.09ZM140.92 204.70L138.31 193.04L127.56 189.65L119.43 197.91L122.04 209.56L132.78 212.96ZM165.33 179.91L162.72 168.25L151.97 164.85L143.83 173.12L146.44 184.78L157.19 188.17ZM146.44 184.78L143.83 173.12L133.08 169.72L124.95 177.99L127.56 189.65L138.31 193.04ZM173.15 214.89L170.54 203.23L159.80 199.83L151.66 208.09L154.27 219.75L165.01 223.14ZM154.27 219.75L151.66 208.09L140.92 204.70L132.78 212.96L135.39 224.61L146.13 228.00ZM178.69 194.97L176.08 183.31L165.33 179.91L157.19 188.17L159.80 199.83L170.54 203.23ZM232.08 255.24L229.48 243.58L218.73 240.17L210.59 248.42L213.19 260.07L223.93 263.48ZM213.19 260.07L210.59 248.42L199.84 245.01L191.70 253.26L194.30 264.91L205.04 268.32ZM237.63 235.33L235.04 223.67L224.29 220.25L216.14 228.51L218.73 240.17L229.48 243.58ZM218.73 240.17L216.14 228.51L205.39 225.10L197.24 233.35L199.84 245.01L210.59 248.42ZM245.42 270.31L242.82 258.65L232.08 255.24L223.93 263.48L226.53 275.14L237.27 278.55ZM250.98 250.41L248.38 238.74L237.63 235.33L229.48 243.58L232.08 255.24L242.82 258.65ZM54.49 263.99L51.87 252.35L41.15 248.97L33.04 257.23L35.66 268.86L46.39 272.24ZM35.66 268.86L33.04 257.23L22.32 253.85L14.22 262.11L16.85 273.74L27.57 277.12ZM3.50 258.74L0.87 247.11L-9.85 243.74L-17.94 252.00L-15.31 263.63L-4.59 267.00ZM78.82 239.21L76.20 227.57L65.47 224.19L57.36 232.45L59.98 244.09L70.71 247.47ZM59.98 244.09L57.36 232.45L46.63 229.07L38.52 237.33L41.15 248.97L51.87 252.35ZM84.32 219.31L81.70 207.66L70.97 204.28L62.85 212.54L65.47 224.19L76.20 227.57ZM65.47 224.19L62.85 212.54L52.12 209.16L44.01 217.43L46.63 229.07L57.36 232.45ZM92.17 254.24L89.55 242.60L78.82 239.21L70.71 247.47L73.33 259.11L84.05 262.50ZM73.33 259.11L70.71 247.47L59.98 244.09L51.87 252.35L54.49 263.99L65.22 267.37ZM97.67 234.34L95.06 222.70L84.32 219.31L76.20 227.57L78.82 239.21L89.55 242.60ZM27.80 233.96L25.17 222.32L14.44 218.95L6.34 227.21L8.97 238.85L19.69 242.22ZM8.97 238.85L6.34 227.21L-4.38 223.84L-12.48 232.11L-9.85 243.74L0.87 247.11ZM33.28 214.05L30.65 202.41L19.92 199.04L11.82 207.31L14.44 218.95L25.17 222.32ZM14.44 218.95L11.82 207.31L1.09 203.94L-7.01 212.21L-4.38 223.84L6.34 227.21ZM41.15 248.97L38.52 237.33L27.80 233.96L19.69 242.22L22.32 253.85L33.04 257.23ZM22.32 253.85L19.69 242.22L8.97 238.85L0.87 247.11L3.50 258.74L14.22 262.11ZM46.63 229.07L44.01 217.43L33.28 214.05L25.17 222.32L27.80 233.96L38.52 237.33ZM105.51 269.27L102.90 257.63L92.17 254.24L84.05 262.50L86.67 274.14L97.40 277.52ZM219.79 110.36L217.19 98.68L206.42 95.27L198.26 103.55L200.87 115.23L211.63 118.63ZM200.87 115.23L198.26 103.55L187.49 100.15L179.34 108.42L181.95 120.10L192.71 123.50ZM225.35 90.40L222.75 78.72L211.98 75.31L203.81 83.59L206.42 95.27L217.19 98.68ZM206.42 95.27L203.81 83.59L193.05 80.19L184.89 88.47L187.49 100.15L198.26 103.55ZM233.16 125.45L230.56 113.77L219.79 110.36L211.63 118.63L214.23 130.31L225.00 133.71ZM214.23 130.31L211.63 118.63L200.87 115.23L192.71 123.50L195.32 135.17L206.08 138.58ZM238.73 105.49L236.12 93.81L225.35 90.40L217.19 98.68L219.79 110.36L230.56 113.77ZM168.58 105.03L165.97 93.35L155.20 89.96L147.05 98.24L149.67 109.91L160.43 113.30ZM149.67 109.91L147.05 98.24L136.29 94.85L128.15 103.13L130.76 114.79L141.52 118.19ZM174.12 85.07L171.51 73.39L160.74 70.00L152.59 78.28L155.20 89.96L165.97 93.35ZM155.20 89.96L152.59 78.28L141.83 74.89L133.68 83.17L136.29 94.85L147.05 98.24ZM181.95 120.10L179.34 108.42L168.58 105.03L160.43 113.30L163.04 124.97L173.80 128.37ZM163.04 124.97L160.43 113.30L149.67 109.91L141.52 118.19L144.13 129.85L154.89 133.25ZM187.49 100.15L184.89 88.47L174.12 85.07L165.97 93.35L168.58 105.03L179.34 108.42ZM249.87 65.57L247.27 53.88L236.49 50.47L228.32 58.75L230.92 70.44L241.69 73.85ZM230.92 70.44L228.32 58.75L217.54 55.35L209.37 63.63L211.98 75.31L222.75 78.72ZM255.44 45.60L252.84 33.90L242.06 30.49L233.88 38.78L236.49 50.47L247.27 53.88ZM236.49 50.47L233.88 38.78L223.11 35.37L214.93 43.66L217.54 55.35L228.32 58.75ZM263.24 80.67L260.64 68.98L249.87 65.57L241.69 73.85L244.29 85.54L255.07 88.95ZM244.29 85.54L241.69 73.85L230.92 70.44L222.75 78.72L225.35 90.40L236.12 93.81ZM268.82 60.70L266.23 49.01L255.44 45.60L247.27 53.88L249.87 65.57L260.64 68.98ZM198.60 60.23L195.99 48.54L185.22 45.14L177.06 53.43L179.67 65.11L190.44 68.51ZM179.67 65.11L177.06 53.43L166.29 50.03L158.13 58.32L160.74 70.00L171.51 73.39ZM204.16 40.26L201.55 28.57L190.77 25.17L182.61 33.46L185.22 45.14L195.99 48.54ZM185.22 45.14L182.61 33.46L171.83 30.06L163.67 38.35L166.29 50.03L177.06 53.43ZM211.98 75.31L209.37 63.63L198.60 60.23L190.44 68.51L193.05 80.19L203.81 83.59ZM193.05 80.19L190.44 68.51L179.67 65.11L171.51 73.39L174.12 85.07L184.89 88.47ZM217.54 55.35L214.93 43.66L204.16 40.26L195.99 48.54L198.60 60.23L209.37 63.63ZM240.96 160.47L238.36 148.80L227.60 145.39L219.44 153.66L222.04 165.33L232.80 168.74ZM222.04 165.33L219.44 153.66L208.68 150.25L200.53 158.52L203.13 170.18L213.88 173.59ZM246.53 140.53L243.93 128.86L233.16 125.45L225.00 133.71L227.60 145.39L238.36 148.80ZM227.60 145.39L225.00 133.71L214.23 130.31L206.08 138.58L208.68 150.25L219.44 153.66ZM254.32 175.56L251.72 163.89L240.96 160.47L232.80 168.74L235.40 180.41L246.16 183.82ZM235.40 180.41L232.80 168.74L222.04 165.33L213.88 173.59L216.49 185.26L227.24 188.67ZM259.89 155.63L257.29 143.95L246.53 140.53L238.36 148.80L240.96 160.47L251.72 163.89ZM189.77 155.11L187.16 143.44L176.40 140.04L168.26 148.31L170.86 159.98L181.62 163.38ZM170.86 159.98L168.26 148.31L157.50 144.91L149.36 153.18L151.97 164.85L162.72 168.25ZM195.32 135.17L192.71 123.50L181.95 120.10L173.80 128.37L176.40 140.04L187.16 143.44ZM176.40 140.04L173.80 128.37L163.04 124.97L154.89 133.25L157.50 144.91L168.26 148.31ZM203.13 170.18L200.53 158.52L189.77 155.11L181.62 163.38L184.22 175.04L194.98 178.45ZM184.22 175.04L181.62 163.38L170.86 159.98L162.72 168.25L165.33 179.91L176.08 183.31ZM208.68 150.25L206.08 138.58L195.32 135.17L187.16 143.44L189.77 155.11L200.53 158.52ZM271.04 115.73L268.44 104.05L257.67 100.63L249.50 108.90L252.09 120.59L262.86 124.00ZM252.09 120.59L249.50 108.90L238.73 105.49L230.56 113.77L233.16 125.45L243.93 128.86ZM276.62 95.78L274.02 84.09L263.24 80.67L255.07 88.95L257.67 100.63L268.44 104.05ZM257.67 100.63L255.07 88.95L244.29 85.54L236.12 93.81L238.73 105.49L249.50 108.90ZM265.46 135.68L262.86 124.00L252.09 120.59L243.93 128.86L246.53 140.53L257.29 143.95ZM87.47 144.51L84.85 132.85L74.11 129.47L65.98 137.75L68.60 149.41L79.35 152.79ZM68.60 149.41L65.98 137.75L55.23 134.37L47.12 142.65L49.74 154.30L60.48 157.68ZM92.98 124.58L90.36 112.91L79.61 109.53L71.48 117.81L74.11 129.47L84.85 132.85ZM74.11 129.47L71.48 117.81L60.73 114.43L52.61 122.72L55.23 134.37L65.98 137.75ZM100.84 159.55L98.22 147.90L87.47 144.51L79.35 152.79L81.97 164.44L92.71 167.83ZM81.97 164.44L79.35 152.79L68.60 149.41L60.48 157.68L63.10 169.33L73.85 172.71ZM106.35 139.62L103.74 127.96L92.98 124.58L84.85 132.85L87.47 144.51L98.22 147.90ZM36.37 139.28L33.75 127.62L23.00 124.25L14.89 132.53L17.52 144.18L28.26 147.55ZM17.52 144.18L14.89 132.53L4.15 129.16L-3.96 137.45L-1.33 149.09L9.41 152.46ZM41.86 119.34L39.24 107.68L28.49 104.31L20.37 112.60L23.00 124.25L33.75 127.62ZM23.00 124.25L20.37 112.60L9.63 109.23L1.51 117.51L4.15 129.16L14.89 132.53ZM49.74 154.30L47.12 142.65L36.37 139.28L28.26 147.55L30.88 159.20L41.62 162.58ZM30.88 159.20L28.26 147.55L17.52 144.18L9.41 152.46L12.04 164.11L22.77 167.48ZM55.23 134.37L52.61 122.72L41.86 119.34L33.75 127.62L36.37 139.28L47.12 142.65ZM117.39 99.74L114.77 88.07L104.02 84.68L95.88 92.97L98.50 104.63L109.25 108.02ZM98.50 104.63L95.88 92.97L85.12 89.58L76.99 97.87L79.61 109.53L90.36 112.91ZM122.92 79.78L120.30 68.11L109.54 64.73L101.39 73.01L104.02 84.68L114.77 88.07ZM104.02 84.68L101.39 73.01L90.64 69.63L82.50 77.92L85.12 89.58L95.88 92.97ZM130.76 114.79L128.15 103.13L117.39 99.74L109.25 108.02L111.87 119.68L122.62 123.07ZM111.87 119.68L109.25 108.02L98.50 104.63L90.36 112.91L92.98 124.58L103.74 127.96ZM136.29 94.85L133.68 83.17L122.92 79.78L114.77 88.07L117.39 99.74L128.15 103.13ZM66.24 94.49L63.61 82.83L52.86 79.45L44.73 87.74L47.36 99.40L58.11 102.77ZM47.36 99.40L44.73 87.74L33.98 84.37L25.86 92.65L28.49 104.31L39.24 107.68ZM71.74 74.54L69.12 62.87L58.36 59.50L50.23 67.79L52.86 79.45L63.61 82.83ZM52.86 79.45L50.23 67.79L39.47 64.41L31.35 72.70L33.98 84.37L44.73 87.74ZM79.61 109.53L76.99 97.87L66.24 94.49L58.11 102.77L60.73 114.43L71.48 117.81ZM60.73 114.43L58.11 102.77L47.36 99.40L39.24 107.68L41.86 119.34L52.61 122.72ZM85.12 89.58L82.50 77.92L71.74 74.54L63.61 82.83L66.24 94.49L76.99 97.87ZM108.69 194.52L106.07 182.87L95.33 179.48L87.21 187.75L89.82 199.40L100.56 202.78ZM89.82 199.40L87.21 187.75L76.47 184.36L68.35 192.63L70.97 204.28L81.70 207.66ZM114.20 174.60L111.59 162.94L100.84 159.55L92.71 167.83L95.33 179.48L106.07 182.87ZM95.33 179.48L92.71 167.83L81.97 164.44L73.85 172.71L76.47 184.36L87.21 187.75ZM122.04 209.56L119.43 197.91L108.69 194.52L100.56 202.78L103.18 214.43L113.92 217.82ZM103.18 214.43L100.56 202.78L89.82 199.40L81.70 207.66L84.32 219.31L95.06 222.70ZM127.56 189.65L124.95 177.99L114.20 174.60L106.07 182.87L108.69 194.52L119.43 197.91ZM57.61 189.25L54.99 177.60L44.25 174.23L36.14 182.50L38.76 194.14L49.50 197.52ZM38.76 194.14L36.14 182.50L25.40 179.12L17.29 187.40L19.92 199.04L30.65 202.41ZM63.10 169.33L60.48 157.68L49.74 154.30L41.62 162.58L44.25 174.23L54.99 177.60ZM44.25 174.23L41.62 162.58L30.88 159.20L22.77 167.48L25.40 179.12L36.14 182.50ZM70.97 204.28L68.35 192.63L57.61 189.25L49.50 197.52L52.12 209.16L62.85 212.54ZM52.12 209.16L49.50 197.52L38.76 194.14L30.65 202.41L33.28 214.05L44.01 217.43ZM76.47 184.36L73.85 172.71L63.10 169.33L54.99 177.60L57.61 189.25L68.35 192.63ZM138.61 149.79L135.99 138.13L125.24 134.74L117.10 143.01L119.72 154.67L130.47 158.06ZM119.72 154.67L117.10 143.01L106.35 139.62L98.22 147.90L100.84 159.55L111.59 162.94ZM144.13 129.85L141.52 118.19L130.76 114.79L122.62 123.07L125.24 134.74L135.99 138.13ZM125.24 134.74L122.62 123.07L111.87 119.68L103.74 127.96L106.35 139.62L117.10 143.01ZM151.97 164.85L149.36 153.18L138.61 149.79L130.47 158.06L133.08 169.72L143.83 173.12ZM133.08 169.72L130.47 158.06L119.72 154.67L111.59 162.94L114.20 174.60L124.95 177.99ZM157.50 144.91L154.89 133.25L144.13 129.85L135.99 138.13L138.61 149.79L149.36 153.18ZM262.10 210.58L259.51 198.91L248.75 195.49L240.59 203.75L243.19 215.41L253.94 218.83ZM243.19 215.41L240.59 203.75L229.84 200.34L221.69 208.59L224.29 220.25L235.04 223.67ZM267.67 190.65L265.08 178.98L254.32 175.56L246.16 183.82L248.75 195.49L259.51 198.91ZM248.75 195.49L246.16 183.82L235.40 180.41L227.24 188.67L229.84 200.34L240.59 203.75ZM275.45 225.66L272.86 213.99L262.10 210.58L253.94 218.83L256.54 230.49L267.29 233.91ZM256.54 230.49L253.94 218.83L243.19 215.41L235.04 223.67L237.63 235.33L248.38 238.74ZM273.25 170.72L270.65 159.04L259.89 155.63L251.72 163.89L254.32 175.56L265.08 178.98ZM264.32 265.49L261.72 253.82L250.98 250.41L242.82 258.65L245.42 270.31L256.16 273.73ZM269.88 245.58L267.29 233.91L256.54 230.49L248.38 238.74L250.98 250.41L261.72 253.82ZM261.02 25.62L258.42 13.92L247.64 10.51L239.46 18.80L242.06 30.49L252.84 33.90ZM266.61 5.63L264.01 -6.07L253.22 -9.48L245.03 -1.19L247.64 10.51L258.42 13.92ZM274.41 40.73L271.81 29.03L261.02 25.62L252.84 33.90L255.44 45.60L266.23 49.01ZM228.67 15.39L226.07 3.70L215.28 0.29L207.11 8.59L209.72 20.28L220.50 23.68ZM209.72 20.28L207.11 8.59L196.33 5.19L188.16 13.48L190.77 25.17L201.55 28.57ZM234.25 -4.59L231.64 -16.29L220.85 -19.70L212.68 -11.40L215.28 0.29L226.07 3.70ZM215.28 0.29L212.68 -11.40L201.89 -14.80L193.72 -6.51L196.33 5.19L207.11 8.59ZM242.06 30.49L239.46 18.80L228.67 15.39L220.50 23.68L223.11 35.37L233.88 38.78ZM223.11 35.37L220.50 23.68L209.72 20.28L201.55 28.57L204.16 40.26L214.93 43.66ZM247.64 10.51L245.03 -1.19L234.25 -4.59L226.07 3.70L228.67 15.39L239.46 18.80ZM4.15 129.16L1.51 117.51L-9.23 114.15L-17.33 122.43L-14.70 134.08L-3.96 137.45ZM6.56 184.03L3.93 172.38L-6.80 169.02L-14.90 177.29L-12.27 188.93L-1.54 192.30ZM12.04 164.11L9.41 152.46L-1.33 149.09L-9.43 157.37L-6.80 169.02L3.93 172.38ZM19.92 199.04L17.29 187.40L6.56 184.03L-1.54 192.30L1.09 203.94L11.82 207.31ZM1.09 203.94L-1.54 192.30L-12.27 188.93L-20.37 197.20L-17.74 208.84L-7.01 212.21ZM25.40 179.12L22.77 167.48L12.04 164.11L3.93 172.38L6.56 184.03L17.29 187.40Z"/></svg>
