<svg xmlns="http://www.w3.org/2000/svg" width="256" height="256" viewBox="0 0 256 256"><path data-band="3" fill="#dc2626" fill-opacity="0.35" d="M180.96 -6.14L178.36 -17.80L167.62 -21.20L159.48 -12.95L162.09 -1.30L172.83 2.11ZM162.09 -1.30L159.48 -12.95L148.74 -16.35L140.61 -8.09L143.22 3.56L153.96 6.95ZM194.30 8.91L191.70 -2.74L180.96 -6.14L172.83 2.11L175.43 13.76L186.17 17.16ZM175.43 13.76L172.83 2.11L162.09 -1.30L153.96 6.95L156.56 18.60L167.30 22.00ZM111.02 -6.62L108.41 -18.27L97.67 -21.66L89.55 -13.40L92.17 -1.76L102.90 1.63ZM143.22 3.56L140.61 -8.09L129.88 -11.49L121.75 -3.23L124.36 8.41L135.10 11.81ZM124.36 8.41L121.75 -3.23L111.02 -6.62L102.90 1.63L105.51 13.27L116.24 16.66ZM202.10 43.87L199.50 32.22L188.77 28.81L180.63 37.05L183.24 48.70L193.97 52.11ZM183.24 48.70L180.63 37.05L169.90 33.65L161.77 41.89L164.38 53.54L175.11 56.94ZM207.64 23.97L205.04 12.32L194.30 8.91L186.17 17.16L188.77 28.81L199.50 32.22ZM188.77 28.81L186.17 17.16L175.43 13.76L167.30 22.00L169.90 33.65L180.63 37.05ZM215.44 58.92L212.84 47.27L202.10 43.87L193.97 52.11L196.57 63.75L207.30 67.16ZM196.57 63.75L193.97 52.11L183.24 48.70L175.11 56.94L177.71 68.58L188.44 71.99ZM220.98 39.04L218.38 27.38L207.64 23.97L199.50 32.22L202.10 43.87L212.84 47.27ZM151.04 38.49L148.44 26.85L137.70 23.45L129.58 31.70L132.19 43.34L142.92 46.74ZM132.19 43.34L129.58 31.70L118.85 28.31L110.74 36.55L113.35 48.19L124.07 51.58ZM156.56 18.60L153.96 6.95L143.22 3.56L135.10 11.81L137.70 23.45L148.44 26.85ZM137.70 23.45L135.10 11.81L124.36 8.41L116.24 16.66L118.85 28.31L129.58 31.70ZM164.38 53.54L161.77 41.89L151.04 38.49L142.92 46.74L145.52 58.38L156.25 61.78ZM145.52 58.38L142.92 46.74L132.19 43.34L124.07 51.58L126.68 63.22L137.40 66.62ZM169.90 33.65L167.30 22.00L156.56 18.60L148.44 26.85L151.04 38.49L161.77 41.89ZM232.08 -0.76L229.48 -12.42L218.73 -15.83L210.59 -7.58L213.19 4.07L223.93 7.48ZM213.19 4.07L210.59 -7.58L199.84 -10.99L191.70 -2.74L194.30 8.91L205.04 12.32ZM245.42 14.31L242.82 2.65L232.08 -0.76L223.93 7.48L226.53 19.14L237.27 22.55ZM226.53 19.14L223.93 7.48L213.19 4.07L205.04 12.32L207.64 23.97L218.38 27.38ZM250.98 -5.59L248.38 -17.26L237.63 -20.67L229.48 -12.42L232.08 -0.76L242.82 2.65ZM49.01 27.87L46.39 16.24L35.66 12.86L27.57 21.12L30.19 32.75L40.91 36.12ZM30.19 32.75L27.57 21.12L16.85 17.74L8.75 26.00L11.38 37.62L22.09 41.00ZM54.49 7.99L51.87 -3.65L41.15 -7.03L33.04 1.23L35.66 12.86L46.39 16.24ZM35.66 12.86L33.04 1.23L22.32 -2.15L14.22 6.11L16.85 17.74L27.57 21.12ZM62.35 42.89L59.73 31.25L49.01 27.87L40.91 36.12L43.53 47.75L54.24 51.13ZM43.53 47.75L40.91 36.12L30.19 32.75L22.09 41.00L24.71 52.62L35.43 56.00ZM67.83 23.00L65.22 11.37L54.49 7.99L46.39 16.24L49.01 27.87L59.73 31.25ZM3.50 2.74L0.87 -8.89L-9.85 -12.26L-17.94 -4.00L-15.31 7.63L-4.59 11.00ZM11.38 37.62L8.75 26.00L-1.97 22.63L-10.06 30.88L-7.43 42.50L3.28 45.88ZM16.85 17.74L14.22 6.11L3.50 2.74L-4.59 11.00L-1.97 22.63L8.75 26.00ZM92.17 -1.76L89.55 -13.40L78.82 -16.79L70.71 -8.53L73.33 3.11L84.05 6.50ZM73.33 3.11L70.71 -8.53L59.98 -11.91L51.87 -3.65L54.49 7.99L65.22 11.37ZM41.15 -7.03L38.52 -18.67L27.80 -22.04L19.69 -13.78L22.32 -2.15L33.04 1.23ZM22.32 -2.15L19.69 -13.78L8.97 -17.15L0.87 -8.89L3.50 2.74L14.22 6.11ZM70.19 77.78L67.58 66.15L56.86 62.76L48.76 71.01L51.38 82.63L62.09 86.02ZM51.38 82.63L48.76 71.01L38.05 67.63L29.96 75.87L32.58 87.50L43.29 90.88ZM75.68 57.90L73.07 46.27L62.35 42.89L54.24 51.13L56.86 62.76L67.58 66.15ZM56.86 62.76L54.24 51.13L43.53 47.75L35.43 56.00L38.05 67.63L48.76 71.01ZM83.52 92.79L80.91 81.16L70.19 77.78L62.09 86.02L64.71 97.64L75.42 101.03ZM64.71 97.64L62.09 86.02L51.38 82.63L43.29 90.88L45.90 102.50L56.61 105.88ZM89.01 72.92L86.40 61.29L75.68 57.90L67.58 66.15L70.19 77.78L80.91 81.16ZM19.24 72.50L16.62 60.87L5.91 57.50L-2.18 65.75L0.45 77.37L11.16 80.74ZM0.45 77.37L-2.18 65.75L-12.89 62.38L-20.97 70.63L-18.34 82.24L-7.64 85.61ZM24.71 52.62L22.09 41.00L11.38 37.62L3.28 45.88L5.91 57.50L16.62 60.87ZM5.91 57.50L3.28 45.88L-7.43 42.50L-15.51 50.76L-12.89 62.38L-2.18 65.75ZM32.58 87.50L29.96 75.87L19.24 72.50L11.16 80.74L13.78 92.36L24.49 95.74ZM13.78 92.36L11.16 80.74L0.45 77.37L-7.64 85.61L-5.01 97.23L5.69 100.60ZM38.05 67.63L35.43 56.00L24.71 52.62L16.62 60.87L19.24 72.50L29.96 75.87ZM100.01 33.16L97.40 21.52L86.67 18.14L78.56 26.39L81.17 38.02L91.90 41.41ZM81.17 38.02L78.56 26.39L67.83 23.00L59.73 31.25L62.35 42.89L73.07 46.27ZM105.51 13.27L102.90 1.63L92.17 -1.76L84.05 6.50L86.67 18.14L97.40 21.52ZM86.67 18.14L84.05 6.50L73.33 3.11L65.22 11.37L67.83 23.00L78.56 26.39ZM113.35 48.19L110.74 36.55L100.01 33.16L91.90 41.41L94.51 53.04L105.23 56.43ZM94.51 53.04L91.90 41.41L81.17 38.02L73.07 46.27L75.68 57.90L86.40 61.29ZM118.85 28.31L116.24 16.66L105.51 13.27L97.40 21.52L100.01 33.16L110.74 36.55ZM274.29 99.31L271.70 87.66L260.97 84.24L252.82 92.46L255.41 104.11L266.14 107.53ZM255.41 104.11L252.82 92.46L242.09 89.05L233.95 97.28L236.54 108.92L247.27 112.34ZM260.97 84.24L258.38 72.58L247.64 69.17L239.50 77.40L242.09 89.05L252.82 92.46ZM268.73 119.18L266.14 107.53L255.41 104.11L247.27 112.34L249.86 123.98L260.59 127.40ZM223.22 93.86L220.63 82.22L209.90 78.80L201.76 87.04L204.36 98.68L215.09 102.09ZM204.36 98.68L201.76 87.04L191.04 83.63L182.91 91.86L185.51 103.50L196.23 106.91ZM228.76 73.98L226.17 62.34L215.44 58.92L207.30 67.16L209.90 78.80L220.63 82.22ZM209.90 78.80L207.30 67.16L196.57 63.75L188.44 71.99L191.04 83.63L201.76 87.04ZM236.54 108.92L233.95 97.28L223.22 93.86L215.09 102.09L217.68 113.73L228.41 117.15ZM217.68 113.73L215.09 102.09L204.36 98.68L196.23 106.91L198.83 118.55L209.55 121.96ZM242.09 89.05L239.50 77.40L228.76 73.98L220.63 82.22L223.22 93.86L233.95 97.28ZM253.20 49.28L250.60 37.62L239.86 34.21L231.72 42.45L234.31 54.10L245.05 57.52ZM234.31 54.10L231.72 42.45L220.98 39.04L212.84 47.27L215.44 58.92L226.17 62.34ZM258.75 29.39L256.16 17.73L245.42 14.31L237.27 22.55L239.86 34.21L250.60 37.62ZM239.86 34.21L237.27 22.55L226.53 19.14L218.38 27.38L220.98 39.04L231.72 42.45ZM266.52 64.35L263.94 52.70L253.20 49.28L245.05 57.52L247.64 69.17L258.38 72.58ZM247.64 69.17L245.05 57.52L234.31 54.10L226.17 62.34L228.76 73.98L239.50 77.40ZM272.09 44.46L269.50 32.81L258.75 29.39L250.60 37.62L253.20 49.28L263.94 52.70ZM276.49 154.11L273.90 142.47L263.18 139.04L255.04 147.26L257.62 158.90L268.35 162.32ZM244.31 143.84L241.72 132.20L231.00 128.79L222.87 137.01L225.46 148.64L236.18 152.06ZM225.46 148.64L222.87 137.01L212.14 133.59L204.02 141.82L206.61 153.45L217.33 156.86ZM249.86 123.98L247.27 112.34L236.54 108.92L228.41 117.15L231.00 128.79L241.72 132.20ZM231.00 128.79L228.41 117.15L217.68 113.73L209.55 121.96L212.14 133.59L222.87 137.01ZM257.62 158.90L255.04 147.26L244.31 143.84L236.18 152.06L238.77 163.70L249.49 167.12ZM238.77 163.70L236.18 152.06L225.46 148.64L217.33 156.86L219.92 168.50L230.64 171.91ZM263.18 139.04L260.59 127.40L249.86 123.98L241.72 132.20L244.31 143.84L255.04 147.26ZM142.31 133.01L139.71 121.39L128.99 117.99L120.88 126.22L123.49 137.84L134.20 141.24ZM123.49 137.84L120.88 126.22L110.17 122.82L102.07 131.05L104.67 142.68L115.38 146.07ZM147.82 113.16L145.22 101.52L134.50 98.12L126.39 106.36L128.99 117.99L139.71 121.39ZM128.99 117.99L126.39 106.36L115.67 102.96L107.56 111.20L110.17 122.82L120.88 126.22ZM155.63 148.04L153.03 136.42L142.31 133.01L134.20 141.24L136.81 152.87L147.52 156.27ZM136.81 152.87L134.20 141.24L123.49 137.84L115.38 146.07L117.99 157.69L128.70 161.09ZM161.14 128.19L158.54 116.56L147.82 113.16L139.71 121.39L142.31 133.01L153.03 136.42ZM91.36 127.66L88.75 116.04L78.03 112.65L69.94 120.89L72.55 132.51L83.26 135.89ZM72.55 132.51L69.94 120.89L59.23 117.50L51.14 125.74L53.75 137.35L64.46 140.74ZM96.85 107.81L94.24 96.18L83.52 92.79L75.42 101.03L78.03 112.65L88.75 116.04ZM78.03 112.65L75.42 101.03L64.71 97.64L56.61 105.88L59.23 117.50L69.94 120.89ZM104.67 142.68L102.07 131.05L91.36 127.66L83.26 135.89L85.87 147.51L96.57 150.90ZM85.87 147.51L83.26 135.89L72.55 132.51L64.46 140.74L67.07 152.35L77.77 155.74ZM110.17 122.82L107.56 111.20L96.85 107.81L88.75 116.04L91.36 127.66L102.07 131.05ZM172.18 88.46L169.58 76.82L158.85 73.42L150.73 81.65L153.34 93.29L164.06 96.69ZM153.34 93.29L150.73 81.65L140.01 78.25L131.89 86.49L134.50 98.12L145.22 101.52ZM177.71 68.58L175.11 56.94L164.38 53.54L156.25 61.78L158.85 73.42L169.58 76.82ZM158.85 73.42L156.25 61.78L145.52 58.38L137.40 66.62L140.01 78.25L150.73 81.65ZM185.51 103.50L182.91 91.86L172.18 88.46L164.06 96.69L166.66 108.33L177.38 111.73ZM166.66 108.33L164.06 96.69L153.34 93.29L145.22 101.52L147.82 113.16L158.54 116.56ZM191.04 83.63L188.44 71.99L177.71 68.58L169.58 76.82L172.18 88.46L182.91 91.86ZM121.17 83.10L118.56 71.46L107.84 68.07L99.73 76.31L102.34 87.94L113.06 91.33ZM102.34 87.94L99.73 76.31L89.01 72.92L80.91 81.16L83.52 92.79L94.24 96.18ZM126.68 63.22L124.07 51.58L113.35 48.19L105.23 56.43L107.84 68.07L118.56 71.46ZM107.84 68.07L105.23 56.43L94.51 53.04L86.40 61.29L89.01 72.92L99.73 76.31ZM134.50 98.12L131.89 86.49L121.17 83.10L113.06 91.33L115.67 102.96L126.39 106.36ZM115.67 102.96L113.06 91.33L102.34 87.94L94.24 96.18L96.85 107.81L107.56 111.20ZM140.01 78.25L137.40 66.62L126.68 63.22L118.56 71.46L121.17 83.10L131.89 86.49ZM163.43 182.92L160.83 171.29L150.12 167.89L142.01 176.11L144.61 187.73L155.32 191.14ZM144.61 187.73L142.01 176.11L131.30 172.71L123.20 180.93L125.80 192.55L136.51 195.95ZM168.94 163.07L166.34 151.45L155.63 148.04L147.52 156.27L150.12 167.89L160.83 171.29ZM150.12 167.89L147.52 156.27L136.81 152.87L128.70 161.09L131.30 172.71L142.01 176.11ZM176.73 197.95L174.14 186.32L163.43 182.92L155.32 191.14L157.92 202.76L168.62 206.16ZM157.92 202.76L155.32 191.14L144.61 187.73L136.51 195.95L139.11 207.57L149.81 210.97ZM182.25 178.11L179.65 166.48L168.94 163.07L160.83 171.29L163.43 182.92L174.14 186.32ZM112.49 177.54L109.89 165.92L99.18 162.52L91.09 170.75L93.69 182.36L104.40 185.76ZM93.69 182.36L91.09 170.75L80.38 167.36L72.29 175.58L74.90 187.19L85.60 190.58ZM117.99 157.69L115.38 146.07L104.67 142.68L96.57 150.90L99.18 162.52L109.89 165.92ZM99.18 162.52L96.57 150.90L85.87 147.51L77.77 155.74L80.38 167.36L91.09 170.75ZM125.80 192.55L123.20 180.93L112.49 177.54L104.40 185.76L107.00 197.37L117.70 200.77ZM107.00 197.37L104.40 185.76L93.69 182.36L85.60 190.58L88.21 202.20L98.91 205.59ZM131.30 172.71L128.70 161.09L117.99 157.69L109.89 165.92L112.49 177.54L123.20 180.93ZM193.30 138.41L190.70 126.77L179.98 123.37L171.86 131.59L174.46 143.22L185.18 146.63ZM174.46 143.22L171.86 131.59L161.14 128.19L153.03 136.42L155.63 148.04L166.34 151.45ZM198.83 118.55L196.23 106.91L185.51 103.50L177.38 111.73L179.98 123.37L190.70 126.77ZM179.98 123.37L177.38 111.73L166.66 108.33L158.54 116.56L161.14 128.19L171.86 131.59ZM206.61 153.45L204.02 141.82L193.30 138.41L185.18 146.63L187.77 158.26L198.49 161.67ZM187.77 158.26L185.18 146.63L174.46 143.22L166.34 151.45L168.94 163.07L179.65 166.48ZM212.14 133.59L209.55 121.96L198.83 118.55L190.70 126.77L193.30 138.41L204.02 141.82ZM264.32 9.49L261.72 -2.18L250.98 -5.59L242.82 2.65L245.42 14.31L256.16 17.73ZM235.46 238.26L232.87 226.64L222.16 223.22L214.04 231.43L216.63 243.05L227.34 246.47ZM216.63 243.05L214.04 231.43L203.33 228.01L195.22 236.22L197.81 247.84L208.52 251.25ZM240.99 218.43L238.41 206.80L227.69 203.39L219.57 211.60L222.16 223.22L232.87 226.64ZM222.16 223.22L219.57 211.60L208.86 208.18L200.74 216.39L203.33 228.01L214.04 231.43ZM248.75 253.31L246.17 241.68L235.46 238.26L227.34 246.47L229.92 258.09L240.63 261.51ZM229.92 258.09L227.34 246.47L216.63 243.05L208.52 251.25L211.11 262.87L221.81 266.29ZM254.29 233.48L251.71 221.85L240.99 218.43L232.87 226.64L235.46 238.26L246.17 241.68ZM184.52 232.81L181.92 221.19L171.22 217.78L163.11 225.99L165.71 237.61L176.41 241.01ZM165.71 237.61L163.11 225.99L152.41 222.59L144.31 230.80L146.91 242.41L157.60 245.81ZM190.04 212.98L187.44 201.36L176.73 197.95L168.62 206.16L171.22 217.78L181.92 221.19ZM171.22 217.78L168.62 206.16L157.92 202.76L149.81 210.97L152.41 222.59L163.11 225.99ZM197.81 247.84L195.22 236.22L184.52 232.81L176.41 241.01L179.00 252.63L189.70 256.04ZM179.00 252.63L176.41 241.01L165.71 237.61L157.60 245.81L160.20 257.43L170.90 260.83ZM203.33 228.01L200.74 216.39L190.04 212.98L181.92 221.19L184.52 232.81L195.22 236.22ZM265.38 193.81L262.80 182.17L252.08 178.75L243.95 186.96L246.53 198.60L257.25 202.02ZM246.53 198.60L243.95 186.96L233.23 183.54L225.10 191.76L227.69 203.39L238.41 206.80ZM270.93 173.96L268.35 162.32L257.62 158.90L249.49 167.12L252.08 178.75L262.80 182.17ZM252.08 178.75L249.49 167.12L238.77 163.70L230.64 171.91L233.23 183.54L243.95 186.96ZM259.83 213.65L257.25 202.02L246.53 198.60L238.41 206.80L240.99 218.43L251.71 221.85ZM214.39 188.34L211.80 176.71L201.08 173.30L192.96 181.52L195.56 193.14L206.27 196.56ZM195.56 193.14L192.96 181.52L182.25 178.11L174.14 186.32L176.73 197.95L187.44 201.36ZM219.92 168.50L217.33 156.86L206.61 153.45L198.49 161.67L201.08 173.30L211.80 176.71ZM201.08 173.30L198.49 161.67L187.77 158.26L179.65 166.48L182.25 178.11L192.96 181.52ZM227.69 203.39L225.10 191.76L214.39 188.34L206.27 196.56L208.86 208.18L219.57 211.60ZM208.86 208.18L206.27 196.56L195.56 193.14L187.44 201.36L190.04 212.98L200.74 216.39ZM233.23 183.54L230.64 171.91L219.92 168.50L211.80 176.71L214.39 188.34L225.10 191.76ZM262.04 268.35L259.46 256.73L248.75 253.31L240.63 261.51L243.21 273.13L253.92 276.55ZM211.11 262.87L208.52 251.25L197.81 247.84L189.70 256.04L192.30 267.66L202.99 271.07ZM192.30 267.66L189.70 256.04L179.00 252.63L170.90 260.83L173.49 272.45L184.19 275.86ZM267.58 248.53L265.00 236.90L254.29 233.48L246.17 241.68L248.75 253.31L259.46 256.73ZM273.13 228.70L270.55 217.07L259.83 213.65L251.71 221.85L254.29 233.48L265.00 236.90ZM2.21 261.15L-0.40 249.56L-11.08 246.18L-19.14 254.40L-16.53 265.99L-5.85 269.37ZM7.66 241.35L5.05 229.75L-5.64 226.37L-13.70 234.59L-11.08 246.18L-0.40 249.56ZM20.96 256.32L18.35 244.73L7.66 241.35L-0.40 249.56L2.21 261.15L12.89 264.53ZM10.72 166.90L8.10 155.29L-2.60 151.91L-10.67 160.14L-8.05 171.75L2.64 175.12ZM16.18 147.06L13.56 135.44L2.86 132.07L-5.22 140.30L-2.60 151.91L8.10 155.29ZM24.03 181.88L21.41 170.27L10.72 166.90L2.64 175.12L5.26 186.73L15.95 190.11ZM5.26 186.73L2.64 175.12L-8.05 171.75L-16.12 179.98L-13.50 191.58L-2.81 194.95ZM29.49 162.04L26.88 150.43L16.18 147.06L8.10 155.29L10.72 166.90L21.41 170.27ZM40.43 122.35L37.81 110.74L27.11 107.36L19.02 115.59L21.64 127.21L32.34 130.59ZM21.64 127.21L19.02 115.59L8.31 112.22L0.23 120.46L2.86 132.07L13.56 135.44ZM45.90 102.50L43.29 90.88L32.58 87.50L24.49 95.74L27.11 107.36L37.81 110.74ZM27.11 107.36L24.49 95.74L13.78 92.36L5.69 100.60L8.31 112.22L19.02 115.59ZM53.75 137.35L51.14 125.74L40.43 122.35L32.34 130.59L34.96 142.20L45.66 145.58ZM34.96 142.20L32.34 130.59L21.64 127.21L13.56 135.44L16.18 147.06L26.88 150.43ZM59.23 117.50L56.61 105.88L45.90 102.50L37.81 110.74L40.43 122.35L51.14 125.74ZM2.86 132.07L0.23 120.46L-10.47 117.08L-18.54 125.32L-15.92 136.93L-5.22 140.30ZM8.31 112.22L5.69 100.60L-5.01 97.23L-13.09 105.47L-10.47 117.08L0.23 120.46ZM31.88 216.69L29.26 205.09L18.57 201.71L10.50 209.93L13.11 221.53L23.80 224.91ZM13.11 221.53L10.50 209.93L-0.19 206.55L-8.26 214.78L-5.64 226.37L5.05 229.75ZM37.34 196.87L34.72 185.26L24.03 181.88L15.95 190.11L18.57 201.71L29.26 205.09ZM18.57 201.71L15.95 190.11L5.26 186.73L-2.81 194.95L-0.19 206.55L10.50 209.93ZM45.18 231.68L42.57 220.08L31.88 216.69L23.80 224.91L26.42 236.51L37.10 239.89ZM26.42 236.51L23.80 224.91L13.11 221.53L5.05 229.75L7.66 241.35L18.35 244.73ZM50.65 211.86L48.03 200.25L37.34 196.87L29.26 205.09L31.88 216.69L42.57 220.08ZM61.59 172.19L58.98 160.58L48.28 157.20L40.19 165.43L42.81 177.04L53.50 180.42ZM42.81 177.04L40.19 165.43L29.49 162.04L21.41 170.27L24.03 181.88L34.72 185.26ZM67.07 152.35L64.46 140.74L53.75 137.35L45.66 145.58L48.28 157.20L58.98 160.58ZM48.28 157.20L45.66 145.58L34.96 142.20L26.88 150.43L29.49 162.04L40.19 165.43ZM74.90 187.19L72.29 175.58L61.59 172.19L53.50 180.42L56.12 192.03L66.81 195.42ZM56.12 192.03L53.50 180.42L42.81 177.04L34.72 185.26L37.34 196.87L48.03 200.25ZM80.38 167.36L77.77 155.74L67.07 152.35L58.98 160.58L61.59 172.19L72.29 175.58ZM109.33 252.02L106.72 240.42L96.03 237.02L87.94 245.23L90.55 256.84L101.24 260.23ZM90.55 256.84L87.94 245.23L77.25 241.84L69.17 250.05L71.78 261.65L82.46 265.05ZM122.62 267.03L120.02 255.42L109.33 252.02L101.24 260.23L103.84 271.84L114.53 275.23ZM53.01 266.47L50.40 254.88L39.72 251.49L31.64 259.70L34.26 271.30L44.94 274.68ZM58.48 246.66L55.87 235.06L45.18 231.68L37.10 239.89L39.72 251.49L50.40 254.88ZM39.72 251.49L37.10 239.89L26.42 236.51L18.35 244.73L20.96 256.32L31.64 259.70ZM71.78 261.65L69.17 250.05L58.48 246.66L50.40 254.88L53.01 266.47L63.70 269.86ZM133.61 227.39L131.01 215.78L120.31 212.38L112.21 220.60L114.81 232.21L125.51 235.61ZM114.81 232.21L112.21 220.60L101.51 217.20L93.42 225.42L96.03 237.02L106.72 240.42ZM139.11 207.57L136.51 195.95L125.80 192.55L117.70 200.77L120.31 212.38L131.01 215.78ZM120.31 212.38L117.70 200.77L107.00 197.37L98.91 205.59L101.51 217.20L112.21 220.60ZM146.91 242.41L144.31 230.80L133.61 227.39L125.51 235.61L128.11 247.22L138.81 250.62ZM128.11 247.22L125.51 235.61L114.81 232.21L106.72 240.42L109.33 252.02L120.02 255.42ZM152.41 222.59L149.81 210.97L139.11 207.57L131.01 215.78L133.61 227.39L144.31 230.80ZM82.73 222.02L80.12 210.41L69.42 207.02L61.34 215.24L63.95 226.85L74.64 230.24ZM63.95 226.85L61.34 215.24L50.65 211.86L42.57 220.08L45.18 231.68L55.87 235.06ZM88.21 202.20L85.60 190.58L74.90 187.19L66.81 195.42L69.42 207.02L80.12 210.41ZM69.42 207.02L66.81 195.42L56.12 192.03L48.03 200.25L50.65 211.86L61.34 215.24ZM96.03 237.02L93.42 225.42L82.73 222.02L74.64 230.24L77.25 241.84L87.94 245.23ZM77.25 241.84L74.64 230.24L63.95 226.85L55.87 235.06L58.48 246.66L69.17 250.05ZM101.51 217.20L98.91 205.59L88.21 202.20L80.12 210.41L82.73 222.02L93.42 225.42ZM160.20 257.43L157.60 245.81L146.91 242.41L138.81 250.62L141.41 262.23L152.10 265.63ZM141.41 262.23L138.81 250.62L128.11 247.22L120.02 255.42L122.62 267.03L133.31 270.43Z"/></svg>
