<svg xmlns="http://www.w3.org/2000/svg" width="256" height="256" viewBox="0 0 256 256"><path data-band="2" fill="#f97316" fill-opacity="0.35" d="M274.05 212.16L271.49 200.61L260.85 197.17L252.78 205.29L255.35 216.84L265.98 220.28ZM159.67 185.99L157.09 174.45L146.46 171.03L138.41 179.16L140.99 190.70L151.62 194.12ZM183.83 161.61L181.25 150.06L170.61 146.64L162.56 154.77L165.14 166.32L175.77 169.74ZM189.31 141.93L186.73 130.37L176.09 126.95L168.03 135.08L170.61 146.64L181.25 150.06ZM209.04 8.68L206.46 -2.90L195.80 -6.32L187.72 1.84L190.30 13.41L200.96 16.83ZM222.28 23.68L219.70 12.10L209.04 8.68L200.96 16.83L203.54 28.41L214.20 31.83ZM203.54 28.41L200.96 16.83L190.30 13.41L182.23 21.57L184.81 33.14L195.46 36.56ZM227.79 3.95L225.21 -7.63L214.54 -11.06L206.46 -2.90L209.04 8.68L219.70 12.10ZM212.47 245.86L209.90 234.32L199.28 230.89L191.22 239.00L193.80 250.54L204.42 253.97ZM193.80 250.54L191.22 239.00L180.60 235.58L172.55 243.70L175.13 255.23L185.75 258.66ZM217.96 226.20L215.39 214.66L204.76 211.23L196.70 219.35L199.28 230.89L209.90 234.32ZM199.28 230.89L196.70 219.35L186.08 215.92L178.02 224.04L180.60 235.58L191.22 239.00ZM225.67 260.83L223.10 249.29L212.47 245.86L204.42 253.97L206.99 265.51L217.61 268.94ZM206.99 265.51L204.42 253.97L193.80 250.54L185.75 258.66L188.32 270.19L198.94 273.62ZM231.16 241.18L228.59 229.63L217.96 226.20L209.90 234.32L212.47 245.86L223.10 249.29ZM161.93 240.27L159.36 228.74L148.73 225.32L140.69 233.44L143.27 244.97L153.89 248.39ZM167.40 220.62L164.82 209.08L154.20 205.66L146.15 213.78L148.73 225.32L159.36 228.74ZM175.13 255.23L172.55 243.70L161.93 240.27L153.89 248.39L156.47 259.92L167.09 263.34ZM156.47 259.92L153.89 248.39L143.27 244.97L135.24 253.09L137.82 264.62L148.43 268.04ZM180.60 235.58L178.02 224.04L167.40 220.62L159.36 228.74L161.93 240.27L172.55 243.70ZM242.15 201.85L239.58 190.30L228.94 186.87L220.88 194.99L223.45 206.54L234.08 209.97ZM223.45 206.54L220.88 194.99L210.24 191.56L202.18 199.68L204.76 211.23L215.39 214.66ZM247.65 182.18L245.08 170.62L234.44 167.19L226.37 175.31L228.94 186.87L239.58 190.30ZM228.94 186.87L226.37 175.31L215.73 171.88L207.67 180.01L210.24 191.56L220.88 194.99ZM255.35 216.84L252.78 205.29L242.15 201.85L234.08 209.97L236.65 221.52L247.28 224.95ZM236.65 221.52L234.08 209.97L223.45 206.54L215.39 214.66L217.96 226.20L228.59 229.63ZM260.85 197.17L258.28 185.61L247.65 182.18L239.58 190.30L242.15 201.85L252.78 205.29ZM191.55 196.26L188.98 184.71L178.35 181.29L170.29 189.41L172.87 200.95L183.50 204.38ZM172.87 200.95L170.29 189.41L159.67 185.99L151.62 194.12L154.20 205.66L164.82 209.08ZM197.04 176.58L194.46 165.03L183.83 161.61L175.77 169.74L178.35 181.29L188.98 184.71ZM178.35 181.29L175.77 169.74L165.14 166.32L157.09 174.45L159.67 185.99L170.29 189.41ZM204.76 211.23L202.18 199.68L191.55 196.26L183.50 204.38L186.08 215.92L196.70 219.35ZM186.08 215.92L183.50 204.38L172.87 200.95L164.82 209.08L167.40 220.62L178.02 224.04ZM210.24 191.56L207.67 180.01L197.04 176.58L188.98 184.71L191.55 196.26L202.18 199.68ZM188.32 270.19L185.75 258.66L175.13 255.23L167.09 263.34L169.66 274.88L180.28 278.30ZM263.04 251.49L260.48 239.94L249.85 236.50L241.78 244.61L244.35 256.16L254.98 259.59ZM244.35 256.16L241.78 244.61L231.16 241.18L223.10 249.29L225.67 260.83L236.29 264.26ZM268.54 231.83L265.98 220.28L255.35 216.84L247.28 224.95L249.85 236.50L260.48 239.94ZM249.85 236.50L247.28 224.95L236.65 221.52L228.59 229.63L231.16 241.18L241.78 244.61ZM276.23 266.47L273.67 254.92L263.04 251.49L254.98 259.59L257.54 271.14L268.17 274.58ZM250.95 108.11L248.38 96.55L237.73 93.12L229.65 101.25L232.22 112.82L242.87 116.25ZM232.22 112.82L229.65 101.25L219.00 97.83L210.93 105.96L213.51 117.52L224.15 120.95ZM256.46 88.41L253.89 76.84L243.24 73.41L235.16 81.55L237.73 93.12L248.38 96.55ZM237.73 93.12L235.16 81.55L224.50 78.12L216.43 86.26L219.00 97.83L229.65 101.25ZM264.17 123.12L261.60 111.55L250.95 108.11L242.87 116.25L245.44 127.81L256.09 131.25ZM245.44 127.81L242.87 116.25L232.22 112.82L224.15 120.95L226.72 132.51L237.37 135.94ZM269.68 103.41L267.12 91.84L256.46 88.41L248.38 96.55L250.95 108.11L261.60 111.55ZM200.28 102.54L197.71 90.98L187.06 87.55L178.99 95.70L181.57 107.25L192.22 110.68ZM181.57 107.25L178.99 95.70L168.35 92.28L160.29 100.42L162.87 111.98L173.51 115.39ZM205.78 82.83L203.20 71.27L192.55 67.85L184.48 75.99L187.06 87.55L197.71 90.98ZM213.51 117.52L210.93 105.96L200.28 102.54L192.22 110.68L194.79 122.24L205.44 125.66ZM194.79 122.24L192.22 110.68L181.57 107.25L173.51 115.39L176.09 126.95L186.73 130.37ZM219.00 97.83L216.43 86.26L205.78 82.83L197.71 90.98L200.28 102.54L210.93 105.96ZM261.98 68.70L259.41 57.12L248.75 53.69L240.66 61.83L243.24 73.41L253.89 76.84ZM267.50 48.98L264.92 37.40L254.26 33.97L246.17 42.11L248.75 53.69L259.41 57.12ZM275.20 83.71L272.63 72.13L261.98 68.70L253.89 76.84L256.46 88.41L267.12 91.84ZM230.01 58.40L227.43 46.83L216.77 43.41L208.70 51.55L211.27 63.12L221.93 66.55ZM211.27 63.12L208.70 51.55L198.04 48.13L189.97 56.28L192.55 67.85L203.20 71.27ZM235.51 38.68L232.94 27.11L222.28 23.68L214.20 31.83L216.77 43.41L227.43 46.83ZM216.77 43.41L214.20 31.83L203.54 28.41L195.46 36.56L198.04 48.13L208.70 51.55ZM243.24 73.41L240.66 61.83L230.01 58.40L221.93 66.55L224.50 78.12L235.16 81.55ZM224.50 78.12L221.93 66.55L211.27 63.12L203.20 71.27L205.78 82.83L216.43 86.26ZM248.75 53.69L246.17 42.11L235.51 38.68L227.43 46.83L230.01 58.40L240.66 61.83ZM271.87 157.81L269.30 146.25L258.66 142.81L250.58 150.94L253.15 162.50L263.79 165.93ZM253.15 162.50L250.58 150.94L239.94 147.50L231.87 155.63L234.44 167.19L245.08 170.62ZM258.66 142.81L256.09 131.25L245.44 127.81L237.37 135.94L239.94 147.50L250.58 150.94ZM266.36 177.49L263.79 165.93L253.15 162.50L245.08 170.62L247.65 182.18L258.28 185.61ZM221.23 152.20L218.65 140.64L208.01 137.22L199.95 145.35L202.52 156.90L213.16 160.33ZM202.52 156.90L199.95 145.35L189.31 141.93L181.25 150.06L183.83 161.61L194.46 165.03ZM226.72 132.51L224.15 120.95L213.51 117.52L205.44 125.66L208.01 137.22L218.65 140.64ZM208.01 137.22L205.44 125.66L194.79 122.24L186.73 130.37L189.31 141.93L199.95 145.35ZM234.44 167.19L231.87 155.63L221.23 152.20L213.16 160.33L215.73 171.88L226.37 175.31ZM215.73 171.88L213.16 160.33L202.52 156.90L194.46 165.03L197.04 176.58L207.67 180.01ZM239.94 147.50L237.37 135.94L226.72 132.51L218.65 140.64L221.23 152.20L231.87 155.63ZM259.78 14.24L257.21 2.65L246.54 -0.78L238.45 7.38L241.03 18.96L251.69 22.39ZM241.03 18.96L238.45 7.38L227.79 3.95L219.70 12.10L222.28 23.68L232.94 27.11ZM265.30 -5.50L262.73 -17.09L252.06 -20.52L243.97 -12.36L246.54 -0.78L257.21 2.65ZM246.54 -0.78L243.97 -12.36L233.30 -15.79L225.21 -7.63L227.79 3.95L238.45 7.38ZM273.02 29.25L270.45 17.67L259.78 14.24L251.69 22.39L254.26 33.97L264.92 37.40ZM254.26 33.97L251.69 22.39L241.03 18.96L232.94 27.11L235.51 38.68L246.17 42.11Z"/><path data-band="3" fill="#dc2626" fill-opacity="0.35" d="M120.03 141.11L117.44 129.56L106.81 126.16L98.77 134.30L101.35 145.84L111.98 149.25ZM101.35 145.84L98.77 134.30L88.14 130.89L80.10 139.03L82.69 150.57L93.32 153.98ZM125.49 121.43L122.90 109.87L112.27 106.47L104.22 114.61L106.81 126.16L117.44 129.56ZM106.81 126.16L104.22 114.61L93.59 111.20L85.54 119.34L88.14 130.89L98.77 134.30ZM133.24 156.07L130.66 144.52L120.03 141.11L111.98 149.25L114.57 160.79L125.20 164.20ZM114.57 160.79L111.98 149.25L101.35 145.84L93.32 153.98L95.90 165.52L106.53 168.92ZM138.71 136.39L136.12 124.84L125.49 121.43L117.44 129.56L120.03 141.11L130.66 144.52ZM69.47 135.63L66.88 124.09L56.25 120.69L48.22 128.83L50.81 140.37L61.44 143.77ZM50.81 140.37L48.22 128.83L37.59 125.43L29.57 133.58L32.17 145.11L42.79 148.51ZM74.91 115.94L72.32 104.40L61.69 101.00L53.65 109.14L56.25 120.69L66.88 124.09ZM56.25 120.69L53.65 109.14L43.02 105.75L35.00 113.89L37.59 125.43L48.22 128.83ZM82.69 150.57L80.10 139.03L69.47 135.63L61.44 143.77L64.03 155.30L74.66 158.71ZM64.03 155.30L61.44 143.77L50.81 140.37L42.79 148.51L45.38 160.04L56.00 163.44ZM88.14 130.89L85.54 119.34L74.91 115.94L66.88 124.09L69.47 135.63L80.10 139.03ZM149.65 97.00L147.06 85.45L136.42 82.03L128.37 90.18L130.95 101.73L141.59 105.14ZM130.95 101.73L128.37 90.18L117.73 86.77L109.68 94.91L112.27 106.47L122.90 109.87ZM155.12 77.30L152.54 65.74L141.89 62.33L133.83 70.47L136.42 82.03L147.06 85.45ZM136.42 82.03L133.83 70.47L123.19 67.06L115.14 75.21L117.73 86.77L128.37 90.18ZM162.87 111.98L160.29 100.42L149.65 97.00L141.59 105.14L144.18 116.70L154.81 120.11ZM144.18 116.70L141.59 105.14L130.95 101.73L122.90 109.87L125.49 121.43L136.12 124.84ZM168.35 92.28L165.77 80.72L155.12 77.30L147.06 85.45L149.65 97.00L160.29 100.42ZM99.04 91.51L96.45 79.96L85.81 76.55L77.77 84.70L80.36 96.25L90.99 99.65ZM80.36 96.25L77.77 84.70L67.13 81.30L59.09 89.45L61.69 101.00L72.32 104.40ZM104.50 71.81L101.90 60.25L91.26 56.85L83.22 65.00L85.81 76.55L96.45 79.96ZM85.81 76.55L83.22 65.00L72.58 61.60L64.54 69.75L67.13 81.30L77.77 84.70ZM112.27 106.47L109.68 94.91L99.04 91.51L90.99 99.65L93.59 111.20L104.22 114.61ZM93.59 111.20L90.99 99.65L80.36 96.25L72.32 104.40L74.91 115.94L85.54 119.34ZM117.73 86.77L115.14 75.21L104.50 71.81L96.45 79.96L99.04 91.51L109.68 94.91ZM140.99 190.70L138.41 179.16L127.78 175.74L119.74 183.87L122.33 195.41L132.95 198.83ZM122.33 195.41L119.74 183.87L109.12 180.46L101.08 188.59L103.67 200.13L114.29 203.54ZM146.46 171.03L143.87 159.48L133.24 156.07L125.20 164.20L127.78 175.74L138.41 179.16ZM127.78 175.74L125.20 164.20L114.57 160.79L106.53 168.92L109.12 180.46L119.74 183.87ZM154.20 205.66L151.62 194.12L140.99 190.70L132.95 198.83L135.53 210.36L146.15 213.78ZM135.53 210.36L132.95 198.83L122.33 195.41L114.29 203.54L116.87 215.07L127.49 218.49ZM90.46 185.19L87.87 173.65L77.25 170.24L69.22 178.38L71.81 189.91L82.43 193.31ZM71.81 189.91L69.22 178.38L58.60 174.98L50.57 183.11L53.17 194.64L63.78 198.04ZM95.90 165.52L93.32 153.98L82.69 150.57L74.66 158.71L77.25 170.24L87.87 173.65ZM77.25 170.24L74.66 158.71L64.03 155.30L56.00 163.44L58.60 174.98L69.22 178.38ZM103.67 200.13L101.08 188.59L90.46 185.19L82.43 193.31L85.02 204.85L95.63 208.25ZM85.02 204.85L82.43 193.31L71.81 189.91L63.78 198.04L66.37 209.57L76.99 212.97ZM109.12 180.46L106.53 168.92L95.90 165.52L87.87 173.65L90.46 185.19L101.08 188.59ZM170.61 146.64L168.03 135.08L157.40 131.67L149.34 139.80L151.92 151.35L162.56 154.77ZM151.92 151.35L149.34 139.80L138.71 136.39L130.66 144.52L133.24 156.07L143.87 159.48ZM176.09 126.95L173.51 115.39L162.87 111.98L154.81 120.11L157.40 131.67L168.03 135.08ZM157.40 131.67L154.81 120.11L144.18 116.70L136.12 124.84L138.71 136.39L149.34 139.80ZM165.14 166.32L162.56 154.77L151.92 151.35L143.87 159.48L146.46 171.03L157.09 174.45ZM2.69 189.19L0.09 177.67L-10.52 174.28L-18.53 182.41L-15.93 193.94L-5.32 197.32ZM8.11 169.53L5.51 158.00L-5.11 154.61L-13.12 162.75L-10.52 174.28L0.09 177.67ZM18.94 130.18L16.34 118.65L5.72 115.26L-2.30 123.40L0.30 134.94L10.92 138.33ZM0.30 134.94L-2.30 123.40L-12.92 120.02L-20.93 128.16L-18.33 139.69L-7.71 143.08ZM24.37 110.50L21.77 98.96L11.14 95.57L3.12 103.72L5.72 115.26L16.34 118.65ZM5.72 115.26L3.12 103.72L-7.51 100.33L-15.52 108.48L-12.92 120.02L-2.30 123.40ZM32.17 145.11L29.57 133.58L18.94 130.18L10.92 138.33L13.52 149.86L24.14 153.25ZM13.52 149.86L10.92 138.33L0.30 134.94L-7.71 143.08L-5.11 154.61L5.51 158.00ZM37.59 125.43L35.00 113.89L24.37 110.50L16.34 118.65L18.94 130.18L29.57 133.58ZM10.49 223.76L7.89 212.24L-2.72 208.85L-10.72 216.98L-8.12 228.49L2.48 231.89ZM15.90 204.11L13.30 192.58L2.69 189.19L-5.32 197.32L-2.72 208.85L7.89 212.24ZM23.69 238.67L21.10 227.15L10.49 223.76L2.48 231.89L5.08 243.40L15.68 246.80ZM5.08 243.40L2.48 231.89L-8.12 228.49L-16.13 236.62L-13.53 248.14L-2.93 251.53ZM29.11 219.03L26.51 207.50L15.90 204.11L7.89 212.24L10.49 223.76L21.10 227.15ZM39.95 179.71L37.36 168.18L26.74 164.78L18.72 172.92L21.32 184.45L31.93 187.84ZM21.32 184.45L18.72 172.92L8.11 169.53L0.09 177.67L2.69 189.19L13.30 192.58ZM45.38 160.04L42.79 148.51L32.17 145.11L24.14 153.25L26.74 164.78L37.36 168.18ZM26.74 164.78L24.14 153.25L13.52 149.86L5.51 158.00L8.11 169.53L18.72 172.92ZM53.17 194.64L50.57 183.11L39.95 179.71L31.93 187.84L34.53 199.37L45.14 202.77ZM34.53 199.37L31.93 187.84L21.32 184.45L13.30 192.58L15.90 204.11L26.51 207.50ZM58.60 174.98L56.00 163.44L45.38 160.04L37.36 168.18L39.95 179.71L50.57 183.11ZM158.33 3.17L155.74 -8.41L145.08 -11.82L137.01 -3.66L139.60 7.91L150.26 11.32ZM139.60 7.91L137.01 -3.66L126.36 -7.07L118.30 1.10L120.89 12.66L131.54 16.07ZM171.57 18.15L168.98 6.58L158.33 3.17L150.26 11.32L152.85 22.89L163.50 26.31ZM152.85 22.89L150.26 11.32L139.60 7.91L131.54 16.07L134.13 27.64L144.78 31.05ZM177.06 -1.58L174.47 -13.15L163.81 -16.57L155.74 -8.41L158.33 3.17L168.98 6.58ZM107.64 -2.31L105.05 -13.88L94.40 -17.28L86.34 -9.11L88.94 2.45L99.59 5.85ZM88.94 2.45L86.34 -9.11L75.69 -12.51L67.64 -4.35L70.24 7.21L80.88 10.61ZM120.89 12.66L118.30 1.10L107.64 -2.31L99.59 5.85L102.18 17.42L112.83 20.82ZM102.18 17.42L99.59 5.85L88.94 2.45L80.88 10.61L83.48 22.17L94.13 25.58ZM126.36 -7.07L123.77 -18.64L113.11 -22.04L105.05 -13.88L107.64 -2.31L118.30 1.10ZM179.32 52.86L176.74 41.29L166.08 37.87L158.02 46.03L160.60 57.59L171.25 61.01ZM160.60 57.59L158.02 46.03L147.37 42.61L139.30 50.76L141.89 62.33L152.54 65.74ZM184.81 33.14L182.23 21.57L171.57 18.15L163.50 26.31L166.08 37.87L176.74 41.29ZM166.08 37.87L163.50 26.31L152.85 22.89L144.78 31.05L147.37 42.61L158.02 46.03ZM192.55 67.85L189.97 56.28L179.32 52.86L171.25 61.01L173.83 72.57L184.48 75.99ZM173.83 72.57L171.25 61.01L160.60 57.59L152.54 65.74L155.12 77.30L165.77 80.72ZM198.04 48.13L195.46 36.56L184.81 33.14L176.74 41.29L179.32 52.86L189.97 56.28ZM128.66 47.35L126.07 35.79L115.42 32.38L107.37 40.54L109.96 52.10L120.60 55.51ZM109.96 52.10L107.37 40.54L96.72 37.14L88.67 45.29L91.26 56.85L101.90 60.25ZM134.13 27.64L131.54 16.07L120.89 12.66L112.83 20.82L115.42 32.38L126.07 35.79ZM115.42 32.38L112.83 20.82L102.18 17.42L94.13 25.58L96.72 37.14L107.37 40.54ZM141.89 62.33L139.30 50.76L128.66 47.35L120.60 55.51L123.19 67.06L133.83 70.47ZM123.19 67.06L120.60 55.51L109.96 52.10L101.90 60.25L104.50 71.81L115.14 75.21ZM147.37 42.61L144.78 31.05L134.13 27.64L126.07 35.79L128.66 47.35L139.30 50.76ZM190.30 13.41L187.72 1.84L177.06 -1.58L168.98 6.58L171.57 18.15L182.23 21.57ZM195.80 -6.32L193.21 -17.90L182.55 -21.32L174.47 -13.15L177.06 -1.58L187.72 1.84ZM27.42 36.47L24.82 24.91L14.18 21.53L6.15 29.69L8.76 41.24L19.39 44.63ZM8.76 41.24L6.15 29.69L-4.49 26.30L-12.51 34.47L-9.91 46.01L0.73 49.40ZM32.86 16.75L30.26 5.20L19.61 1.81L11.58 9.97L14.18 21.53L24.82 24.91ZM14.18 21.53L11.58 9.97L0.94 6.59L-7.09 14.75L-4.49 26.30L6.15 29.69ZM40.66 51.41L38.06 39.86L27.42 36.47L19.39 44.63L21.99 56.17L32.63 59.57ZM21.99 56.17L19.39 44.63L8.76 41.24L0.73 49.40L3.33 60.94L13.96 64.33ZM46.10 31.70L43.50 20.14L32.86 16.75L24.82 24.91L27.42 36.47L38.06 39.86ZM56.99 -7.74L54.39 -19.30L43.74 -22.70L35.70 -14.53L38.30 -2.97L48.94 0.42ZM38.30 -2.97L35.70 -14.53L25.05 -17.92L17.01 -9.75L19.61 1.81L30.26 5.20ZM70.24 7.21L67.64 -4.35L56.99 -7.74L48.94 0.42L51.54 11.98L62.19 15.38ZM51.54 11.98L48.94 0.42L38.30 -2.97L30.26 5.20L32.86 16.75L43.50 20.14ZM19.61 1.81L17.01 -9.75L6.37 -13.14L-1.67 -4.97L0.94 6.59L11.58 9.97ZM0.94 6.59L-1.67 -4.97L-12.31 -8.35L-20.34 -0.18L-17.73 11.37L-7.09 14.75ZM48.46 86.05L45.86 74.51L35.23 71.11L27.20 79.27L29.80 90.81L40.43 94.20ZM29.80 90.81L27.20 79.27L16.57 75.88L8.54 84.03L11.14 95.57L21.77 98.96ZM53.90 66.35L51.30 54.80L40.66 51.41L32.63 59.57L35.23 71.11L45.86 74.51ZM35.23 71.11L32.63 59.57L21.99 56.17L13.96 64.33L16.57 75.88L27.20 79.27ZM61.69 101.00L59.09 89.45L48.46 86.05L40.43 94.20L43.02 105.75L53.65 109.14ZM43.02 105.75L40.43 94.20L29.80 90.81L21.77 98.96L24.37 110.50L35.00 113.89ZM67.13 81.30L64.54 69.75L53.90 66.35L45.86 74.51L48.46 86.05L59.09 89.45ZM3.33 60.94L0.73 49.40L-9.91 46.01L-17.93 54.17L-15.32 65.71L-4.69 69.10ZM11.14 95.57L8.54 84.03L-2.09 80.64L-10.11 88.79L-7.51 100.33L3.12 103.72ZM16.57 75.88L13.96 64.33L3.33 60.94L-4.69 69.10L-2.09 80.64L8.54 84.03ZM78.03 41.89L75.43 30.33L64.79 26.93L56.74 35.09L59.34 46.65L69.98 50.05ZM59.34 46.65L56.74 35.09L46.10 31.70L38.06 39.86L40.66 51.41L51.30 54.80ZM83.48 22.17L80.88 10.61L70.24 7.21L62.19 15.38L64.79 26.93L75.43 30.33ZM64.79 26.93L62.19 15.38L51.54 11.98L43.50 20.14L46.10 31.70L56.74 35.09ZM91.26 56.85L88.67 45.29L78.03 41.89L69.98 50.05L72.58 61.60L83.22 65.00ZM72.58 61.60L69.98 50.05L59.34 46.65L51.30 54.80L53.90 66.35L64.54 69.75ZM96.72 37.14L94.13 25.58L83.48 22.17L75.43 30.33L78.03 41.89L88.67 45.29ZM143.27 244.97L140.69 233.44L130.07 230.02L122.04 238.14L124.62 249.67L135.24 253.09ZM148.73 225.32L146.15 213.78L135.53 210.36L127.49 218.49L130.07 230.02L140.69 233.44ZM87.34 259.08L84.75 247.56L74.14 244.15L66.12 252.27L68.71 263.79L79.32 267.20ZM68.71 263.79L66.12 252.27L55.51 248.87L47.50 256.99L50.09 268.51L60.69 271.91ZM36.89 253.59L34.30 242.07L23.69 238.67L15.68 246.80L18.28 258.31L28.88 261.71ZM18.28 258.31L15.68 246.80L5.08 243.40L-2.93 251.53L-0.33 263.04L10.27 266.43ZM50.09 268.51L47.50 256.99L36.89 253.59L28.88 261.71L31.47 273.23L42.08 276.63ZM111.42 234.73L108.84 223.20L98.22 219.79L90.19 227.91L92.78 239.44L103.39 242.85ZM92.78 239.44L90.19 227.91L79.58 224.50L71.55 232.63L74.14 244.15L84.75 247.56ZM116.87 215.07L114.29 203.54L103.67 200.13L95.63 208.25L98.22 219.79L108.84 223.20ZM98.22 219.79L95.63 208.25L85.02 204.85L76.99 212.97L79.58 224.50L90.19 227.91ZM124.62 249.67L122.04 238.14L111.42 234.73L103.39 242.85L105.98 254.38L116.59 257.79ZM105.98 254.38L103.39 242.85L92.78 239.44L84.75 247.56L87.34 259.08L97.95 262.49ZM130.07 230.02L127.49 218.49L116.87 215.07L108.84 223.20L111.42 234.73L122.04 238.14ZM60.94 229.22L58.35 217.70L47.74 214.30L39.72 222.42L42.31 233.95L52.92 237.35ZM42.31 233.95L39.72 222.42L29.11 219.03L21.10 227.15L23.69 238.67L34.30 242.07ZM66.37 209.57L63.78 198.04L53.17 194.64L45.14 202.77L47.74 214.30L58.35 217.70ZM47.74 214.30L45.14 202.77L34.53 199.37L26.51 207.50L29.11 219.03L39.72 222.42ZM74.14 244.15L71.55 232.63L60.94 229.22L52.92 237.35L55.51 248.87L66.12 252.27ZM55.51 248.87L52.92 237.35L42.31 233.95L34.30 242.07L36.89 253.59L47.50 256.99ZM79.58 224.50L76.99 212.97L66.37 209.57L58.35 217.70L60.94 229.22L71.55 232.63ZM137.82 264.62L135.24 253.09L124.62 249.67L116.59 257.79L119.17 269.32L129.78 272.73ZM119.17 269.32L116.59 257.79L105.98 254.38L97.95 262.49L100.53 274.02L111.14 277.43ZM187.06 87.55L184.48 75.99L173.83 72.57L165.77 80.72L168.35 92.28L178.99 95.70Z"/></svg>
