<svg xmlns="http://www.w3.org/2000/svg" width="256" height="256" viewBox="0 0 256 256"><path data-band="1" fill="#fde68a" fill-opacity="0.35" d="M271.66 265.43L269.11 253.96L258.56 250.51L250.56 258.53L253.11 269.99L263.65 273.45ZM253.11 269.99L250.56 258.53L240.01 255.08L232.02 263.10L234.56 274.56L245.11 278.01ZM258.56 250.51L256.02 239.04L245.47 235.59L237.47 243.61L240.01 255.08L250.56 258.53Z"/><path data-band="2" fill="#f97316" fill-opacity="0.35" d="M260.79 -4.51L258.24 -16.02L247.65 -19.46L239.62 -11.40L242.17 0.11L252.76 3.55ZM268.45 30.01L265.90 18.50L255.31 15.06L247.28 23.12L249.84 34.62L260.42 38.06ZM273.94 10.44L271.38 -1.06L260.79 -4.51L252.76 3.55L255.31 15.06L265.90 18.50ZM236.70 19.67L234.14 8.17L223.56 4.73L215.54 12.79L218.10 24.29L228.68 27.73ZM218.10 24.29L215.54 12.79L204.95 9.36L196.94 17.42L199.50 28.92L210.07 32.35ZM242.17 0.11L239.62 -11.40L229.03 -14.84L221.00 -6.77L223.56 4.73L234.14 8.17ZM223.56 4.73L221.00 -6.77L210.42 -10.21L202.39 -2.14L204.95 9.36L215.54 12.79ZM249.84 34.62L247.28 23.12L236.70 19.67L228.68 27.73L231.23 39.23L241.81 42.67ZM231.23 39.23L228.68 27.73L218.10 24.29L210.07 32.35L212.63 43.85L223.21 47.29ZM255.31 15.06L252.76 3.55L242.17 0.11L234.14 8.17L236.70 19.67L247.28 23.12ZM136.04 8.34L133.47 -3.15L122.89 -6.57L114.89 1.50L117.46 12.99L128.04 16.41ZM117.46 12.99L114.89 1.50L104.32 -1.92L96.32 6.15L98.90 17.64L109.47 21.06ZM122.89 -6.57L120.32 -18.06L109.75 -21.48L101.74 -13.41L104.32 -1.92L114.89 1.50ZM149.18 23.26L146.61 11.77L136.04 8.34L128.04 16.41L130.61 27.90L141.18 31.32ZM130.61 27.90L128.04 16.41L117.46 12.99L109.47 21.06L112.04 32.54L122.61 35.96ZM154.62 3.70L152.05 -7.79L141.48 -11.22L133.47 -3.15L136.04 8.34L146.61 11.77ZM85.75 2.74L83.18 -8.75L72.60 -12.16L64.61 -4.09L67.19 7.40L77.76 10.81ZM98.90 17.64L96.32 6.15L85.75 2.74L77.76 10.81L80.34 22.29L90.90 25.70ZM104.32 -1.92L101.74 -13.41L91.17 -16.82L83.18 -8.75L85.75 2.74L96.32 6.15ZM156.88 57.72L154.32 46.23L143.75 42.81L135.75 50.87L138.31 62.35L148.88 65.78ZM138.31 62.35L135.75 50.87L125.18 47.44L117.18 55.51L119.75 66.99L130.32 70.41ZM162.32 38.17L159.76 26.68L149.18 23.26L141.18 31.32L143.75 42.81L154.32 46.23ZM143.75 42.81L141.18 31.32L130.61 27.90L122.61 35.96L125.18 47.44L135.75 50.87ZM170.01 72.64L167.45 61.15L156.88 57.72L148.88 65.78L151.45 77.26L162.01 80.69ZM151.45 77.26L148.88 65.78L138.31 62.35L130.32 70.41L132.88 81.89L143.45 85.31ZM175.46 53.09L172.89 41.60L162.32 38.17L154.32 46.23L156.88 57.72L167.45 61.15ZM106.62 52.09L104.04 40.60L93.48 37.19L85.49 45.25L88.06 56.73L98.63 60.15ZM88.06 56.73L85.49 45.25L74.93 41.84L66.94 49.90L69.52 61.38L80.08 64.79ZM112.04 32.54L109.47 21.06L98.90 17.64L90.90 25.70L93.48 37.19L104.04 40.60ZM93.48 37.19L90.90 25.70L80.34 22.29L72.35 30.36L74.93 41.84L85.49 45.25ZM119.75 66.99L117.18 55.51L106.62 52.09L98.63 60.15L101.20 71.62L111.76 75.04ZM101.20 71.62L98.63 60.15L88.06 56.73L80.08 64.79L82.65 76.26L93.21 79.68ZM125.18 47.44L122.61 35.96L112.04 32.54L104.04 40.60L106.62 52.09L117.18 55.51ZM186.36 13.99L183.79 2.49L173.21 -0.94L165.20 7.13L167.77 18.62L178.34 22.05ZM167.77 18.62L165.20 7.13L154.62 3.70L146.61 11.77L149.18 23.26L159.76 26.68ZM191.81 -5.58L189.25 -17.08L178.66 -20.51L170.65 -12.44L173.21 -0.94L183.79 2.49ZM173.21 -0.94L170.65 -12.44L160.07 -15.86L152.05 -7.79L154.62 3.70L165.20 7.13ZM199.50 28.92L196.94 17.42L186.36 13.99L178.34 22.05L180.91 33.54L191.48 36.98ZM180.91 33.54L178.34 22.05L167.77 18.62L159.76 26.68L162.32 38.17L172.89 41.60ZM204.95 9.36L202.39 -2.14L191.81 -5.58L183.79 2.49L186.36 13.99L196.94 17.42ZM227.97 112.79L225.42 101.30L214.85 97.86L206.84 105.91L209.39 117.39L219.96 120.83ZM209.39 117.39L206.84 105.91L196.27 102.47L188.26 110.52L190.82 122.00L201.39 125.43ZM233.43 93.26L230.88 81.77L220.31 78.32L212.29 86.37L214.85 97.86L225.42 101.30ZM214.85 97.86L212.29 86.37L201.72 82.94L193.71 90.99L196.27 102.47L206.84 105.91ZM241.09 127.72L238.54 116.23L227.97 112.79L219.96 120.83L222.51 132.31L233.08 135.76ZM222.51 132.31L219.96 120.83L209.39 117.39L201.39 125.43L203.94 136.91L214.50 140.35ZM246.56 108.19L244.00 96.70L233.43 93.26L225.42 101.30L227.97 112.79L238.54 116.23ZM177.70 107.08L175.14 95.60L164.57 92.17L156.57 100.22L159.14 111.70L169.70 115.13ZM159.14 111.70L156.57 100.22L146.01 96.79L138.02 104.84L140.58 116.32L151.14 119.75ZM183.14 87.55L180.58 76.07L170.01 72.64L162.01 80.69L164.57 92.17L175.14 95.60ZM164.57 92.17L162.01 80.69L151.45 77.26L143.45 85.31L146.01 96.79L156.57 100.22ZM190.82 122.00L188.26 110.52L177.70 107.08L169.70 115.13L172.26 126.61L182.82 130.04ZM172.26 126.61L169.70 115.13L159.14 111.70L151.14 119.75L153.71 131.22L164.26 134.65ZM196.27 102.47L193.71 90.99L183.14 87.55L175.14 95.60L177.70 107.08L188.26 110.52ZM257.50 69.11L254.95 57.61L244.37 54.17L236.34 62.22L238.90 73.72L249.47 77.16ZM238.90 73.72L236.34 62.22L225.77 58.78L217.75 66.83L220.31 78.32L230.88 81.77ZM262.97 49.56L260.42 38.06L249.84 34.62L241.81 42.67L244.37 54.17L254.95 57.61ZM244.37 54.17L241.81 42.67L231.23 39.23L223.21 47.29L225.77 58.78L236.34 62.22ZM270.63 84.05L268.08 72.56L257.50 69.11L249.47 77.16L252.03 88.65L262.60 92.10ZM252.03 88.65L249.47 77.16L238.90 73.72L230.88 81.77L233.43 93.26L244.00 96.70ZM276.10 64.51L273.56 53.01L262.97 49.56L254.95 57.61L257.50 69.11L268.08 72.56ZM207.18 63.40L204.62 51.90L194.04 48.47L186.03 56.53L188.59 68.01L199.16 71.45ZM188.59 68.01L186.03 56.53L175.46 53.09L167.45 61.15L170.01 72.64L180.58 76.07ZM212.63 43.85L210.07 32.35L199.50 28.92L191.48 36.98L194.04 48.47L204.62 51.90ZM194.04 48.47L191.48 36.98L180.91 33.54L172.89 41.60L175.46 53.09L186.03 56.53ZM220.31 78.32L217.75 66.83L207.18 63.40L199.16 71.45L201.72 82.94L212.29 86.37ZM201.72 82.94L199.16 71.45L188.59 68.01L180.58 76.07L183.14 87.55L193.71 90.99ZM225.77 58.78L223.21 47.29L212.63 43.85L204.62 51.90L207.18 63.40L217.75 66.83ZM248.74 162.17L246.19 150.68L235.63 147.24L227.62 155.28L230.17 166.75L240.73 170.20ZM230.17 166.75L227.62 155.28L217.06 151.83L209.05 159.87L211.61 171.35L222.17 174.79ZM254.21 142.65L251.66 131.16L241.09 127.72L233.08 135.76L235.63 147.24L246.19 150.68ZM235.63 147.24L233.08 135.76L222.51 132.31L214.50 140.35L217.06 151.83L227.62 155.28ZM261.85 177.09L259.31 165.61L248.74 162.17L240.73 170.20L243.28 181.68L253.84 185.12ZM243.28 181.68L240.73 170.20L230.17 166.75L222.17 174.79L224.72 186.26L235.27 189.71ZM267.32 157.58L264.77 146.10L254.21 142.65L246.19 150.68L248.74 162.17L259.31 165.61ZM198.50 156.43L195.94 144.95L185.38 141.52L177.38 149.56L179.94 161.03L190.49 164.47ZM179.94 161.03L177.38 149.56L166.82 146.13L158.83 154.17L161.39 165.64L171.94 169.07ZM203.94 136.91L201.39 125.43L190.82 122.00L182.82 130.04L185.38 141.52L195.94 144.95ZM185.38 141.52L182.82 130.04L172.26 126.61L164.26 134.65L166.82 146.13L177.38 149.56ZM211.61 171.35L209.05 159.87L198.50 156.43L190.49 164.47L193.05 175.94L203.61 179.38ZM193.05 175.94L190.49 164.47L179.94 161.03L171.94 169.07L174.50 180.54L185.05 183.97ZM217.06 151.83L214.50 140.35L203.94 136.91L195.94 144.95L198.50 156.43L209.05 159.87ZM259.68 123.12L257.13 111.63L246.56 108.19L238.54 116.23L241.09 127.72L251.66 131.16ZM265.15 103.59L262.60 92.10L252.03 88.65L244.00 96.70L246.56 108.19L257.13 111.63ZM272.79 138.06L270.25 126.57L259.68 123.12L251.66 131.16L254.21 142.65L264.77 146.10ZM69.52 61.38L66.94 49.90L56.38 46.49L48.40 54.55L50.98 66.03L61.54 69.44ZM74.93 41.84L72.35 30.36L61.79 26.95L53.80 35.01L56.38 46.49L66.94 49.90ZM269.49 211.53L266.95 200.05L256.39 196.60L248.38 204.63L250.93 216.10L261.48 219.55ZM250.93 216.10L248.38 204.63L237.82 201.18L229.82 209.21L232.37 220.68L242.92 224.12ZM274.96 192.02L272.42 180.54L261.85 177.09L253.84 185.12L256.39 196.60L266.95 200.05ZM256.39 196.60L253.84 185.12L243.28 181.68L235.27 189.71L237.82 201.18L248.38 204.63ZM264.03 231.02L261.48 219.55L250.93 216.10L242.92 224.12L245.47 235.59L256.02 239.04ZM65.69 262.02L63.12 250.57L52.59 247.16L44.63 255.19L47.21 266.63L57.73 270.04ZM47.21 266.63L44.63 255.19L34.11 251.77L26.16 259.80L28.73 271.24L39.25 274.65ZM15.63 256.39L13.06 244.95L2.53 241.55L-5.41 249.58L-2.83 261.02L7.69 264.42ZM89.58 237.94L87.01 226.49L76.47 223.07L68.51 231.10L71.08 242.55L81.61 245.96ZM71.08 242.55L68.51 231.10L57.98 227.68L50.02 235.71L52.59 247.16L63.12 250.57ZM94.98 218.45L92.41 207.00L81.87 203.58L73.90 211.62L76.47 223.07L87.01 226.49ZM76.47 223.07L73.90 211.62L63.37 208.20L55.40 216.23L57.98 227.68L68.51 231.10ZM102.68 252.81L100.11 241.36L89.58 237.94L81.61 245.96L84.18 257.41L94.71 260.83ZM84.18 257.41L81.61 245.96L71.08 242.55L63.12 250.57L65.69 262.02L76.22 265.44ZM108.08 233.33L105.52 221.88L94.98 218.45L87.01 226.49L89.58 237.94L100.11 241.36ZM39.49 232.30L36.91 220.86L26.38 217.44L18.43 225.48L21.01 236.92L31.53 240.33ZM44.87 212.82L42.30 201.37L31.76 197.96L23.81 206.00L26.38 217.44L36.91 220.86ZM52.59 247.16L50.02 235.71L39.49 232.30L31.53 240.33L34.11 251.77L44.63 255.19ZM34.11 251.77L31.53 240.33L21.01 236.92L13.06 244.95L15.63 256.39L26.16 259.80ZM57.98 227.68L55.40 216.23L44.87 212.82L36.91 220.86L39.49 232.30L50.02 235.71ZM115.77 267.68L113.21 256.23L102.68 252.81L94.71 260.83L97.27 272.28L107.80 275.70ZM98.08 145.08L95.51 133.62L84.96 130.20L76.99 138.24L79.56 149.71L90.11 153.13ZM79.56 149.71L76.99 138.24L66.44 134.83L58.47 142.88L61.04 154.34L71.59 157.75ZM103.50 125.57L100.93 114.10L90.37 110.68L82.39 118.73L84.96 130.20L95.51 133.62ZM84.96 130.20L82.39 118.73L71.84 115.31L63.86 123.37L66.44 134.83L76.99 138.24ZM111.20 159.97L108.63 148.50L98.08 145.08L90.11 153.13L92.68 164.59L103.22 168.01ZM92.68 164.59L90.11 153.13L79.56 149.71L71.59 157.75L74.16 169.21L84.70 172.63ZM116.62 140.46L114.05 128.99L103.50 125.57L95.51 133.62L98.08 145.08L108.63 148.50ZM61.04 154.34L58.47 142.88L47.92 139.47L39.96 147.51L42.53 158.97L53.07 162.38ZM42.53 158.97L39.96 147.51L29.41 144.10L21.45 152.15L24.03 163.61L34.57 167.02ZM66.44 134.83L63.86 123.37L53.32 119.95L45.35 128.00L47.92 139.47L58.47 142.88ZM127.46 101.42L124.89 89.94L114.33 86.52L106.34 94.57L108.91 106.05L119.47 109.47ZM108.91 106.05L106.34 94.57L95.78 91.15L87.80 99.21L90.37 110.68L100.93 114.10ZM132.88 81.89L130.32 70.41L119.75 66.99L111.76 75.04L114.33 86.52L124.89 89.94ZM114.33 86.52L111.76 75.04L101.20 71.62L93.21 79.68L95.78 91.15L106.34 94.57ZM140.58 116.32L138.02 104.84L127.46 101.42L119.47 109.47L122.04 120.94L132.59 124.37ZM122.04 120.94L119.47 109.47L108.91 106.05L100.93 114.10L103.50 125.57L114.05 128.99ZM146.01 96.79L143.45 85.31L132.88 81.89L124.89 89.94L127.46 101.42L138.02 104.84ZM77.24 95.79L74.67 84.32L64.11 80.91L56.14 88.97L58.71 100.43L69.27 103.85ZM58.71 100.43L56.14 88.97L45.58 85.56L37.61 93.61L40.19 105.08L50.74 108.49ZM82.65 76.26L80.08 64.79L69.52 61.38L61.54 69.44L64.11 80.91L74.67 84.32ZM64.11 80.91L61.54 69.44L50.98 66.03L43.00 74.09L45.58 85.56L56.14 88.97ZM90.37 110.68L87.80 99.21L77.24 95.79L69.27 103.85L71.84 115.31L82.39 118.73ZM71.84 115.31L69.27 103.85L58.71 100.43L50.74 108.49L53.32 119.95L63.86 123.37ZM95.78 91.15L93.21 79.68L82.65 76.26L74.67 84.32L77.24 95.79L87.80 99.21ZM118.90 194.35L116.34 182.89L105.79 179.47L97.81 187.51L100.38 198.97L110.92 202.39ZM100.38 198.97L97.81 187.51L87.27 184.09L79.30 192.13L81.87 203.58L92.41 207.00ZM124.32 174.86L121.75 163.39L111.20 159.97L103.22 168.01L105.79 179.47L116.34 182.89ZM105.79 179.47L103.22 168.01L92.68 164.59L84.70 172.63L87.27 184.09L97.81 187.51ZM132.01 209.24L129.44 197.78L118.90 194.35L110.92 202.39L113.49 213.85L124.03 217.27ZM113.49 213.85L110.92 202.39L100.38 198.97L92.41 207.00L94.98 218.45L105.52 221.88ZM137.43 189.75L134.86 178.28L124.32 174.86L116.34 182.89L118.90 194.35L129.44 197.78ZM68.76 188.71L66.19 177.25L55.65 173.84L47.68 181.88L50.26 193.33L60.79 196.75ZM50.26 193.33L47.68 181.88L37.15 178.47L29.19 186.51L31.76 197.96L42.30 201.37ZM74.16 169.21L71.59 157.75L61.04 154.34L53.07 162.38L55.65 173.84L66.19 177.25ZM55.65 173.84L53.07 162.38L42.53 158.97L34.57 167.02L37.15 178.47L47.68 181.88ZM81.87 203.58L79.30 192.13L68.76 188.71L60.79 196.75L63.37 208.20L73.90 211.62ZM63.37 208.20L60.79 196.75L50.26 193.33L42.30 201.37L44.87 212.82L55.40 216.23ZM87.27 184.09L84.70 172.63L74.16 169.21L66.19 177.25L68.76 188.71L79.30 192.13ZM148.28 150.74L145.71 139.27L135.16 135.84L127.17 143.88L129.73 155.35L140.29 158.78ZM129.73 155.35L127.17 143.88L116.62 140.46L108.63 148.50L111.20 159.97L121.75 163.39ZM153.71 131.22L151.14 119.75L140.58 116.32L132.59 124.37L135.16 135.84L145.71 139.27ZM135.16 135.84L132.59 124.37L122.04 120.94L114.05 128.99L116.62 140.46L127.17 143.88ZM161.39 165.64L158.83 154.17L148.28 150.74L140.29 158.78L142.85 170.24L153.40 173.67ZM142.85 170.24L140.29 158.78L129.73 155.35L121.75 163.39L124.32 174.86L134.86 178.28ZM166.82 146.13L164.26 134.65L153.71 131.22L145.71 139.27L148.28 150.74L158.83 154.17ZM37.15 178.47L34.57 167.02L24.03 163.61L16.07 171.65L18.65 183.10L29.19 186.51ZM189.84 249.33L187.29 237.87L176.74 234.43L168.75 242.45L171.31 253.91L181.85 257.35ZM171.31 253.91L168.75 242.45L158.21 239.02L150.23 247.04L152.79 258.50L163.33 261.93ZM195.28 229.84L192.72 218.38L182.17 214.94L174.18 222.97L176.74 234.43L187.29 237.87ZM176.74 234.43L174.18 222.97L163.64 219.53L155.65 227.56L158.21 239.02L168.75 242.45ZM202.93 264.23L200.38 252.77L189.84 249.33L181.85 257.35L184.41 268.80L194.95 272.24ZM184.41 268.80L181.85 257.35L171.31 253.91L163.33 261.93L165.89 273.39L176.42 276.82ZM208.37 244.75L205.82 233.28L195.28 229.84L187.29 237.87L189.84 249.33L200.38 252.77ZM139.69 243.61L137.13 232.16L126.59 228.73L118.62 236.76L121.18 248.21L131.72 251.64ZM121.18 248.21L118.62 236.76L108.08 233.33L100.11 241.36L102.68 252.81L113.21 256.23ZM145.11 224.13L142.55 212.67L132.01 209.24L124.03 217.27L126.59 228.73L137.13 232.16ZM126.59 228.73L124.03 217.27L113.49 213.85L105.52 221.88L108.08 233.33L118.62 236.76ZM152.79 258.50L150.23 247.04L139.69 243.61L131.72 251.64L134.28 263.09L144.81 266.52ZM134.28 263.09L131.72 251.64L121.18 248.21L113.21 256.23L115.77 267.68L126.31 271.11ZM158.21 239.02L155.65 227.56L145.11 224.13L137.13 232.16L139.69 243.61L150.23 247.04ZM219.27 205.76L216.71 194.29L206.16 190.85L198.16 198.88L200.72 210.35L211.27 213.79ZM200.72 210.35L198.16 198.88L187.61 195.44L179.62 203.47L182.17 214.94L192.72 218.38ZM224.72 186.26L222.17 174.79L211.61 171.35L203.61 179.38L206.16 190.85L216.71 194.29ZM206.16 190.85L203.61 179.38L193.05 175.94L185.05 183.97L187.61 195.44L198.16 198.88ZM232.37 220.68L229.82 209.21L219.27 205.76L211.27 213.79L213.82 225.26L224.37 228.70ZM213.82 225.26L211.27 213.79L200.72 210.35L192.72 218.38L195.28 229.84L205.82 233.28ZM237.82 201.18L235.27 189.71L224.72 186.26L216.71 194.29L219.27 205.76L229.82 209.21ZM169.07 200.04L166.51 188.57L155.96 185.14L147.97 193.17L150.53 204.64L161.08 208.07ZM150.53 204.64L147.97 193.17L137.43 189.75L129.44 197.78L132.01 209.24L142.55 212.67ZM174.50 180.54L171.94 169.07L161.39 165.64L153.40 173.67L155.96 185.14L166.51 188.57ZM155.96 185.14L153.40 173.67L142.85 170.24L134.86 178.28L137.43 189.75L147.97 193.17ZM182.17 214.94L179.62 203.47L169.07 200.04L161.08 208.07L163.64 219.53L174.18 222.97ZM163.64 219.53L161.08 208.07L150.53 204.64L142.55 212.67L145.11 224.13L155.65 227.56ZM187.61 195.44L185.05 183.97L174.50 180.54L166.51 188.57L169.07 200.04L179.62 203.47ZM240.01 255.08L237.47 243.61L226.92 240.17L218.92 248.19L221.47 259.65L232.02 263.10ZM221.47 259.65L218.92 248.19L208.37 244.75L200.38 252.77L202.93 264.23L213.48 267.67ZM245.47 235.59L242.92 224.12L232.37 220.68L224.37 228.70L226.92 240.17L237.47 243.61ZM226.92 240.17L224.37 228.70L213.82 225.26L205.82 233.28L208.37 244.75L218.92 248.19Z"/><path data-band="3" fill="#dc2626" fill-opacity="0.35" d="M67.19 7.40L64.61 -4.09L54.05 -7.50L46.06 0.58L48.64 12.06L59.21 15.47ZM80.34 22.29L77.76 10.81L67.19 7.40L59.21 15.47L61.79 26.95L72.35 30.36ZM6.17 40.93L3.59 29.46L-6.97 26.06L-14.94 34.13L-12.35 45.60L-1.79 49.00ZM11.56 21.39L8.97 9.92L-1.59 6.52L-9.56 14.59L-6.97 26.06L3.59 29.46ZM19.31 55.81L16.73 44.34L6.17 40.93L-1.79 49.00L0.79 60.47L11.34 63.87ZM0.79 60.47L-1.79 49.00L-12.35 45.60L-20.31 53.67L-17.72 65.13L-7.17 68.53ZM24.70 36.27L22.12 24.79L11.56 21.39L3.59 29.46L6.17 40.93L16.73 44.34ZM35.49 -2.83L32.91 -14.31L22.34 -17.71L14.36 -9.64L16.95 1.84L27.51 5.25ZM16.95 1.84L14.36 -9.64L3.80 -13.04L-4.17 -4.96L-1.59 6.52L8.97 9.92ZM48.64 12.06L46.06 0.58L35.49 -2.83L27.51 5.25L30.10 16.72L40.66 20.13ZM30.10 16.72L27.51 5.25L16.95 1.84L8.97 9.92L11.56 21.39L22.12 24.79ZM54.05 -7.50L51.46 -18.98L40.89 -22.39L32.91 -14.31L35.49 -2.83L46.06 0.58ZM27.06 90.21L24.48 78.74L13.93 75.34L5.96 83.40L8.54 94.86L19.09 98.26ZM8.54 94.86L5.96 83.40L-4.59 80.00L-12.55 88.06L-9.96 99.52L0.58 102.92ZM32.45 70.68L29.87 59.21L19.31 55.81L11.34 63.87L13.93 75.34L24.48 78.74ZM13.93 75.34L11.34 63.87L0.79 60.47L-7.17 68.53L-4.59 80.00L5.96 83.40ZM40.19 105.08L37.61 93.61L27.06 90.21L19.09 98.26L21.67 109.73L32.22 113.13ZM21.67 109.73L19.09 98.26L8.54 94.86L0.58 102.92L3.16 114.38L13.71 117.78ZM45.58 85.56L43.00 74.09L32.45 70.68L24.48 78.74L27.06 90.21L37.61 93.61ZM56.38 46.49L53.80 35.01L43.24 31.61L35.26 39.67L37.84 51.15L48.40 54.55ZM37.84 51.15L35.26 39.67L24.70 36.27L16.73 44.34L19.31 55.81L29.87 59.21ZM61.79 26.95L59.21 15.47L48.64 12.06L40.66 20.13L43.24 31.61L53.80 35.01ZM43.24 31.61L40.66 20.13L30.10 16.72L22.12 24.79L24.70 36.27L35.26 39.67ZM50.98 66.03L48.40 54.55L37.84 51.15L29.87 59.21L32.45 70.68L43.00 74.09ZM21.01 236.92L18.43 225.48L7.90 222.07L-0.05 230.11L2.53 241.55L13.06 244.95ZM26.38 217.44L23.81 206.00L13.27 202.59L5.32 210.63L7.90 222.07L18.43 225.48ZM47.92 139.47L45.35 128.00L34.80 124.59L26.83 132.65L29.41 144.10L39.96 147.51ZM29.41 144.10L26.83 132.65L16.29 129.24L8.33 137.29L10.91 148.75L21.45 152.15ZM53.32 119.95L50.74 108.49L40.19 105.08L32.22 113.13L34.80 124.59L45.35 128.00ZM34.80 124.59L32.22 113.13L21.67 109.73L13.71 117.78L16.29 129.24L26.83 132.65ZM3.16 114.38L0.58 102.92L-9.96 99.52L-17.92 107.58L-15.34 119.03L-4.79 122.43ZM10.91 148.75L8.33 137.29L-2.21 133.89L-10.17 141.94L-7.58 153.39L2.95 156.80ZM16.29 129.24L13.71 117.78L3.16 114.38L-4.79 122.43L-2.21 133.89L8.33 137.29ZM2.53 241.55L-0.05 230.11L-10.57 226.70L-18.52 234.74L-15.93 246.18L-5.41 249.58ZM7.90 222.07L5.32 210.63L-5.21 207.23L-13.15 215.26L-10.57 226.70L-0.05 230.11ZM18.65 183.10L16.07 171.65L5.53 168.25L-2.42 176.29L0.16 187.74L10.69 191.14ZM0.16 187.74L-2.42 176.29L-12.95 172.89L-20.90 180.93L-18.32 192.38L-7.79 195.78ZM24.03 163.61L21.45 152.15L10.91 148.75L2.95 156.80L5.53 168.25L16.07 171.65ZM5.53 168.25L2.95 156.80L-7.58 153.39L-15.54 161.44L-12.95 172.89L-2.42 176.29ZM31.76 197.96L29.19 186.51L18.65 183.10L10.69 191.14L13.27 202.59L23.81 206.00ZM13.27 202.59L10.69 191.14L0.16 187.74L-7.79 195.78L-5.21 207.23L5.32 210.63Z"/></svg>
