<svg xmlns="http://www.w3.org/2000/svg" width="256" height="256" viewBox="0 0 256 256"><path data-band="1" fill="#fde68a" fill-opacity="0.35" d="M262.91 102.21L260.37 90.76L249.83 87.30L241.84 95.30L244.38 106.75L254.92 110.21ZM268.36 82.76L265.82 71.30L255.28 67.85L247.29 75.85L249.83 87.30L260.37 90.76ZM275.98 117.12L273.44 105.67L262.91 102.21L254.92 110.21L257.46 121.66L267.99 125.11ZM231.31 91.86L228.76 80.40L218.23 76.96L210.25 84.96L212.79 96.41L223.32 99.86ZM244.38 106.75L241.84 95.30L231.31 91.86L223.32 99.86L225.87 111.30L236.40 114.75ZM249.83 87.30L247.29 75.85L236.75 72.40L228.76 80.40L231.31 91.86L241.84 95.30ZM260.74 48.38L258.19 36.92L247.65 33.47L239.66 41.48L242.20 52.94L252.74 56.39ZM266.20 28.91L263.65 17.45L253.11 13.99L245.11 22.01L247.65 33.47L258.19 36.92ZM273.82 63.30L271.28 51.84L260.74 48.38L252.74 56.39L255.28 67.85L265.82 71.30ZM255.28 67.85L252.74 56.39L242.20 52.94L234.21 60.95L236.75 72.40L247.29 75.85ZM252.01 141.10L249.47 129.65L238.94 126.20L230.96 134.19L233.50 145.64L244.02 149.09ZM233.50 145.64L230.96 134.19L220.43 130.74L212.45 138.74L215.00 150.18L225.52 153.63ZM257.46 121.66L254.92 110.21L244.38 106.75L236.40 114.75L238.94 126.20L249.47 129.65ZM238.94 126.20L236.40 114.75L225.87 111.30L217.89 119.30L220.43 130.74L230.96 134.19ZM265.07 156.00L262.54 144.55L252.01 141.10L244.02 149.09L246.56 160.53L257.09 163.98ZM246.56 160.53L244.02 149.09L233.50 145.64L225.52 153.63L228.06 165.07L238.58 168.52ZM270.53 136.56L267.99 125.11L257.46 121.66L249.47 129.65L252.01 141.10L262.54 144.55ZM271.66 9.43L269.11 -2.04L258.56 -5.49L250.56 2.53L253.11 13.99L263.65 17.45ZM253.11 13.99L250.56 2.53L240.01 -0.92L232.02 7.10L234.56 18.56L245.11 22.01ZM258.56 -5.49L256.02 -16.96L245.47 -20.41L237.47 -12.39L240.01 -0.92L250.56 2.53ZM243.30 233.67L240.77 222.24L230.25 218.79L222.28 226.77L224.82 238.19L235.33 241.65ZM224.82 238.19L222.28 226.77L211.77 223.32L203.81 231.30L206.35 242.72L216.86 246.17ZM248.74 214.26L246.20 202.83L235.69 199.38L227.71 207.36L230.25 218.79L240.77 222.24ZM230.25 218.79L227.71 207.36L217.20 203.91L209.23 211.89L211.77 223.32L222.28 226.77ZM256.35 248.56L253.82 237.13L243.30 233.67L235.33 241.65L237.87 253.07L248.38 256.53ZM237.87 253.07L235.33 241.65L224.82 238.19L216.86 246.17L219.40 257.59L229.90 261.04ZM261.79 229.15L259.26 217.72L248.74 214.26L240.77 222.24L243.30 233.67L253.82 237.13ZM206.35 242.72L203.81 231.30L193.30 227.85L185.34 235.83L187.88 247.25L198.39 250.70ZM211.77 223.32L209.23 211.89L198.72 208.44L190.75 216.42L193.30 227.85L203.81 231.30ZM272.68 190.32L270.15 178.88L259.63 175.42L251.64 183.41L254.18 194.85L264.70 198.30ZM254.18 194.85L251.64 183.41L241.12 179.96L233.15 187.94L235.69 199.38L246.20 202.83ZM259.63 175.42L257.09 163.98L246.56 160.53L238.58 168.52L241.12 179.96L251.64 183.41ZM267.24 209.74L264.70 198.30L254.18 194.85L246.20 202.83L248.74 214.26L259.26 217.72ZM222.63 184.49L220.09 173.05L209.57 169.61L201.60 177.59L204.14 189.03L214.66 192.47ZM204.14 189.03L201.60 177.59L191.08 174.15L183.11 182.14L185.66 193.57L196.17 197.01ZM228.06 165.07L225.52 153.63L215.00 150.18L207.02 158.17L209.57 169.61L220.09 173.05ZM235.69 199.38L233.15 187.94L222.63 184.49L214.66 192.47L217.20 203.91L227.71 207.36ZM217.20 203.91L214.66 192.47L204.14 189.03L196.17 197.01L198.72 208.44L209.23 211.89ZM241.12 179.96L238.58 168.52L228.06 165.07L220.09 173.05L222.63 184.49L233.15 187.94ZM269.40 263.44L266.86 252.01L256.35 248.56L248.38 256.53L250.91 267.95L261.42 271.41ZM250.91 267.95L248.38 256.53L237.87 253.07L229.90 261.04L232.44 272.47L242.94 275.92ZM219.40 257.59L216.86 246.17L206.35 242.72L198.39 250.70L200.93 262.12L211.43 265.56ZM200.93 262.12L198.39 250.70L187.88 247.25L179.93 255.22L182.47 266.64L192.97 270.09ZM274.84 244.04L272.31 232.61L261.79 229.15L253.82 237.13L256.35 248.56L266.86 252.01ZM182.47 266.64L179.93 255.22L169.42 251.78L161.47 259.76L164.02 271.17L174.52 274.62Z"/><path data-band="2" fill="#f97316" fill-opacity="0.35" d="M212.79 96.41L210.25 84.96L199.72 81.52L191.74 89.52L194.29 100.97L204.81 104.41ZM236.75 72.40L234.21 60.95L223.67 57.50L215.68 65.51L218.23 76.96L228.76 80.40ZM218.23 76.96L215.68 65.51L205.15 62.06L197.17 70.07L199.72 81.52L210.25 84.96ZM225.87 111.30L223.32 99.86L212.79 96.41L204.81 104.41L207.36 115.86L217.89 119.30ZM242.20 52.94L239.66 41.48L229.12 38.03L221.12 46.04L223.67 57.50L234.21 60.95ZM247.65 33.47L245.11 22.01L234.56 18.56L226.57 26.57L229.12 38.03L239.66 41.48ZM60.30 25.48L57.73 14.04L47.21 10.63L39.25 18.65L41.83 30.09L52.35 33.51ZM41.83 30.09L39.25 18.65L28.73 15.24L20.78 23.27L23.36 34.70L33.88 38.11ZM65.69 6.02L63.12 -5.43L52.59 -8.84L44.63 -0.81L47.21 10.63L57.73 14.04ZM47.21 10.63L44.63 -0.81L34.11 -4.23L26.16 3.80L28.73 15.24L39.25 18.65ZM73.39 40.34L70.83 28.90L60.30 25.48L52.35 33.51L54.92 44.94L65.44 48.36ZM54.92 44.94L52.35 33.51L41.83 30.09L33.88 38.11L36.45 49.55L46.97 52.96ZM78.78 20.88L76.22 9.44L65.69 6.02L57.73 14.04L60.30 25.48L70.83 28.90ZM10.26 19.86L7.69 8.42L-2.83 5.02L-10.77 13.05L-8.20 24.48L2.32 27.88ZM15.63 0.39L13.06 -11.05L2.53 -14.45L-5.41 -6.42L-2.83 5.02L7.69 8.42ZM23.36 34.70L20.78 23.27L10.26 19.86L2.32 27.88L4.90 39.32L15.41 42.72ZM28.73 15.24L26.16 3.80L15.63 0.39L7.69 8.42L10.26 19.86L20.78 23.27ZM102.68 -3.19L100.11 -14.64L89.58 -18.06L81.61 -10.04L84.18 1.41L94.71 4.83ZM84.18 1.41L81.61 -10.04L71.08 -13.45L63.12 -5.43L65.69 6.02L76.22 9.44ZM34.11 -4.23L31.53 -15.67L21.01 -19.08L13.06 -11.05L15.63 0.39L26.16 3.80ZM81.09 74.65L78.53 63.22L68.01 59.80L60.06 67.81L62.62 79.24L73.14 82.66ZM62.62 79.24L60.06 67.81L49.54 64.40L41.59 72.41L44.16 83.84L54.67 87.26ZM86.48 55.20L83.92 43.76L73.39 40.34L65.44 48.36L68.01 59.80L78.53 63.22ZM68.01 59.80L65.44 48.36L54.92 44.94L46.97 52.96L49.54 64.40L60.06 67.81ZM94.17 89.51L91.61 78.08L81.09 74.65L73.14 82.66L75.70 94.10L86.22 97.52ZM75.70 94.10L73.14 82.66L62.62 79.24L54.67 87.26L57.24 98.69L67.76 102.11ZM99.57 70.06L97.01 58.63L86.48 55.20L78.53 63.22L81.09 74.65L91.61 78.08ZM31.08 69.00L28.50 57.57L17.99 54.15L10.05 62.17L12.62 73.60L23.13 77.01ZM12.62 73.60L10.05 62.17L-0.46 58.77L-8.40 66.79L-5.82 78.21L4.69 81.62ZM36.45 49.55L33.88 38.11L23.36 34.70L15.41 42.72L17.99 54.15L28.50 57.57ZM17.99 54.15L15.41 42.72L4.90 39.32L-3.04 47.34L-0.46 58.77L10.05 62.17ZM44.16 83.84L41.59 72.41L31.08 69.00L23.13 77.01L25.71 88.44L36.22 91.85ZM25.71 88.44L23.13 77.01L12.62 73.60L4.69 81.62L7.26 93.04L17.77 96.45ZM49.54 64.40L46.97 52.96L36.45 49.55L28.50 57.57L31.08 69.00L41.59 72.41ZM110.37 31.15L107.80 19.70L97.27 16.28L89.31 24.30L91.88 35.74L102.40 39.17ZM91.88 35.74L89.31 24.30L78.78 20.88L70.83 28.90L73.39 40.34L83.92 43.76ZM115.77 11.68L113.21 0.23L102.68 -3.19L94.71 4.83L97.27 16.28L107.80 19.70ZM97.27 16.28L94.71 4.83L84.18 1.41L76.22 9.44L78.78 20.88L89.31 24.30ZM123.46 46.02L120.90 34.58L110.37 31.15L102.40 39.17L104.97 50.61L115.49 54.04ZM104.97 50.61L102.40 39.17L91.88 35.74L83.92 43.76L86.48 55.20L97.01 58.63ZM128.87 26.56L126.31 15.11L115.77 11.68L107.80 19.70L110.37 31.15L120.90 34.58ZM151.88 129.53L149.33 118.09L138.81 114.66L130.85 122.66L133.40 134.09L143.92 137.53ZM133.40 134.09L130.85 122.66L120.33 119.23L112.37 127.23L114.93 138.66L125.44 142.09ZM157.29 110.09L154.74 98.65L144.22 95.22L136.25 103.22L138.81 114.66L149.33 118.09ZM138.81 114.66L136.25 103.22L125.73 99.79L117.77 107.80L120.33 119.23L130.85 122.66ZM164.95 144.40L162.40 132.97L151.88 129.53L143.92 137.53L146.47 148.96L156.99 152.40ZM146.47 148.96L143.92 137.53L133.40 134.09L125.44 142.09L128.00 153.52L138.51 156.96ZM170.37 124.97L167.81 113.53L157.29 110.09L149.33 118.09L151.88 129.53L162.40 132.97ZM101.86 123.81L99.30 112.38L88.78 108.95L80.83 116.96L83.40 128.38L93.91 131.81ZM83.40 128.38L80.83 116.96L70.32 113.53L62.38 121.54L64.94 132.96L75.45 136.39ZM107.25 104.37L104.69 92.94L94.17 89.51L86.22 97.52L88.78 108.95L99.30 112.38ZM88.78 108.95L86.22 97.52L75.70 94.10L67.76 102.11L70.32 113.53L80.83 116.96ZM114.93 138.66L112.37 127.23L101.86 123.81L93.91 131.81L96.47 143.23L106.98 146.66ZM96.47 143.23L93.91 131.81L83.40 128.38L75.45 136.39L78.01 147.81L88.52 151.23ZM120.33 119.23L117.77 107.80L107.25 104.37L99.30 112.38L101.86 123.81L112.37 127.23ZM181.21 86.08L178.66 74.64L168.13 71.20L160.15 79.21L162.71 90.65L173.23 94.09ZM162.71 90.65L160.15 79.21L149.63 75.77L141.66 83.78L144.22 95.22L154.74 98.65ZM186.63 66.63L184.08 55.18L173.55 51.74L165.57 59.75L168.13 71.20L178.66 74.64ZM168.13 71.20L165.57 59.75L155.04 56.32L147.07 64.33L149.63 75.77L160.15 79.21ZM194.29 100.97L191.74 89.52L181.21 86.08L173.23 94.09L175.79 105.53L186.31 108.97ZM175.79 105.53L173.23 94.09L162.71 90.65L154.74 98.65L157.29 110.09L167.81 113.53ZM199.72 81.52L197.17 70.07L186.63 66.63L178.66 74.64L181.21 86.08L191.74 89.52ZM131.14 80.35L128.58 68.91L118.05 65.48L110.09 73.49L112.65 84.93L123.17 88.36ZM112.65 84.93L110.09 73.49L99.57 70.06L91.61 78.08L94.17 89.51L104.69 92.94ZM136.54 60.90L133.99 49.45L123.46 46.02L115.49 54.04L118.05 65.48L128.58 68.91ZM118.05 65.48L115.49 54.04L104.97 50.61L97.01 58.63L99.57 70.06L110.09 73.49ZM144.22 95.22L141.66 83.78L131.14 80.35L123.17 88.36L125.73 99.79L136.25 103.22ZM125.73 99.79L123.17 88.36L112.65 84.93L104.69 92.94L107.25 104.37L117.77 107.80ZM149.63 75.77L147.07 64.33L136.54 60.90L128.58 68.91L131.14 80.35L141.66 83.78ZM172.60 178.70L170.05 167.27L159.54 163.83L151.58 171.82L154.13 183.25L164.64 186.69ZM154.13 183.25L151.58 171.82L141.07 168.38L133.11 176.38L135.66 187.80L146.17 191.24ZM178.02 159.27L175.47 147.84L164.95 144.40L156.99 152.40L159.54 163.83L170.05 167.27ZM159.54 163.83L156.99 152.40L146.47 148.96L138.51 156.96L141.07 168.38L151.58 171.82ZM185.66 193.57L183.11 182.14L172.60 178.70L164.64 186.69L167.19 198.11L177.70 201.55ZM167.19 198.11L164.64 186.69L154.13 183.25L146.17 191.24L148.72 202.66L159.23 206.10ZM191.08 174.15L188.53 162.72L178.02 159.27L170.05 167.27L172.60 178.70L183.11 182.14ZM122.60 172.94L120.05 161.52L109.54 158.09L101.59 166.08L104.15 177.51L114.65 180.94ZM104.15 177.51L101.59 166.08L91.08 162.66L83.14 170.65L85.70 182.07L96.20 185.50ZM128.00 153.52L125.44 142.09L114.93 138.66L106.98 146.66L109.54 158.09L120.05 161.52ZM109.54 158.09L106.98 146.66L96.47 143.23L88.52 151.23L91.08 162.66L101.59 166.08ZM135.66 187.80L133.11 176.38L122.60 172.94L114.65 180.94L117.21 192.36L127.71 195.79ZM117.21 192.36L114.65 180.94L104.15 177.51L96.20 185.50L98.76 196.92L109.26 200.35ZM141.07 168.38L138.51 156.96L128.00 153.52L120.05 161.52L122.60 172.94L133.11 176.38ZM201.93 135.29L199.38 123.85L188.86 120.41L180.89 128.41L183.44 139.85L193.96 143.29ZM183.44 139.85L180.89 128.41L170.37 124.97L162.40 132.97L164.95 144.40L175.47 147.84ZM207.36 115.86L204.81 104.41L194.29 100.97L186.31 108.97L188.86 120.41L199.38 123.85ZM188.86 120.41L186.31 108.97L175.79 105.53L167.81 113.53L170.37 124.97L180.89 128.41ZM215.00 150.18L212.45 138.74L201.93 135.29L193.96 143.29L196.50 154.73L207.02 158.17ZM196.50 154.73L193.96 143.29L183.44 139.85L175.47 147.84L178.02 159.27L188.53 162.72ZM220.43 130.74L217.89 119.30L207.36 115.86L199.38 123.85L201.93 135.29L212.45 138.74ZM22.69 161.55L20.12 150.14L9.62 146.73L1.69 154.73L4.26 166.14L14.76 169.55ZM4.26 166.14L1.69 154.73L-8.81 151.32L-16.73 159.32L-14.15 170.73L-3.66 174.14ZM28.05 142.13L25.48 130.72L14.98 127.30L7.05 135.31L9.62 146.73L20.12 150.14ZM9.62 146.73L7.05 135.31L-3.45 131.90L-11.38 139.91L-8.81 151.32L1.69 154.73ZM35.76 176.38L33.19 164.97L22.69 161.55L14.76 169.55L17.33 180.96L27.83 184.38ZM17.33 180.96L14.76 169.55L4.26 166.14L-3.66 174.14L-1.09 185.55L9.40 188.96ZM41.12 156.97L38.56 145.55L28.05 142.13L20.12 150.14L22.69 161.55L33.19 164.97ZM51.87 118.12L49.30 106.69L38.79 103.28L30.85 111.29L33.42 122.71L43.92 126.13ZM33.42 122.71L30.85 111.29L20.34 107.87L12.41 115.88L14.98 127.30L25.48 130.72ZM57.24 98.69L54.67 87.26L44.16 83.84L36.22 91.85L38.79 103.28L49.30 106.69ZM38.79 103.28L36.22 91.85L25.71 88.44L17.77 96.45L20.34 107.87L30.85 111.29ZM64.94 132.96L62.38 121.54L51.87 118.12L43.92 126.13L46.49 137.55L57.00 140.97ZM46.49 137.55L43.92 126.13L33.42 122.71L25.48 130.72L28.05 142.13L38.56 145.55ZM70.32 113.53L67.76 102.11L57.24 98.69L49.30 106.69L51.87 118.12L62.38 121.54ZM1.90 112.47L-0.67 101.05L-11.18 97.65L-19.11 105.66L-16.53 117.08L-6.03 120.48ZM7.26 93.04L4.69 81.62L-5.82 78.21L-13.76 86.23L-11.18 97.65L-0.67 101.05ZM14.98 127.30L12.41 115.88L1.90 112.47L-6.03 120.48L-3.45 131.90L7.05 135.31ZM20.34 107.87L17.77 96.45L7.26 93.04L-0.67 101.05L1.90 112.47L12.41 115.88ZM43.45 210.62L40.89 199.21L30.39 195.79L22.47 203.78L25.03 215.19L35.53 218.61ZM25.03 215.19L22.47 203.78L11.97 200.37L4.05 208.36L6.62 219.77L17.11 223.18ZM48.82 191.21L46.26 179.80L35.76 176.38L27.83 184.38L30.39 195.79L40.89 199.21ZM30.39 195.79L27.83 184.38L17.33 180.96L9.40 188.96L11.97 200.37L22.47 203.78ZM56.51 225.45L53.95 214.04L43.45 210.62L35.53 218.61L38.09 230.01L48.58 233.43ZM38.09 230.01L35.53 218.61L25.03 215.19L17.11 223.18L19.68 234.58L30.17 238.00ZM61.88 206.05L59.32 194.63L48.82 191.21L40.89 199.21L43.45 210.62L53.95 214.04ZM6.62 219.77L4.05 208.36L-6.44 204.95L-14.35 212.94L-11.78 224.34L-1.30 227.76ZM11.97 200.37L9.40 188.96L-1.09 185.55L-9.01 193.54L-6.44 204.95L4.05 208.36ZM72.63 167.23L70.07 155.81L59.56 152.39L51.62 160.39L54.19 171.80L64.69 175.22ZM54.19 171.80L51.62 160.39L41.12 156.97L33.19 164.97L35.76 176.38L46.26 179.80ZM78.01 147.81L75.45 136.39L64.94 132.96L57.00 140.97L59.56 152.39L70.07 155.81ZM59.56 152.39L57.00 140.97L46.49 137.55L38.56 145.55L41.12 156.97L51.62 160.39ZM85.70 182.07L83.14 170.65L72.63 167.23L64.69 175.22L67.25 186.64L77.75 190.06ZM67.25 186.64L64.69 175.22L54.19 171.80L46.26 179.80L48.82 191.21L59.32 194.63ZM91.08 162.66L88.52 151.23L78.01 147.81L70.07 155.81L72.63 167.23L83.14 170.65ZM189.84 -6.67L187.29 -18.13L176.74 -21.57L168.75 -13.55L171.31 -2.09L181.85 1.35ZM171.31 -2.09L168.75 -13.55L158.21 -16.98L150.23 -8.96L152.79 2.50L163.33 5.93ZM202.93 8.23L200.38 -3.23L189.84 -6.67L181.85 1.35L184.41 12.80L194.95 16.24ZM184.41 12.80L181.85 1.35L171.31 -2.09L163.33 5.93L165.89 17.39L176.42 20.82ZM121.18 -7.79L118.62 -19.24L108.08 -22.67L100.11 -14.64L102.68 -3.19L113.21 0.23ZM152.79 2.50L150.23 -8.96L139.69 -12.39L131.72 -4.36L134.28 7.09L144.81 10.52ZM134.28 7.09L131.72 -4.36L121.18 -7.79L113.21 0.23L115.77 11.68L126.31 15.11ZM210.59 42.60L208.04 31.14L197.50 27.70L189.51 35.71L192.06 47.17L202.60 50.61ZM192.06 47.17L189.51 35.71L178.98 32.28L171.00 40.29L173.55 51.74L184.08 55.18ZM216.03 23.13L213.48 11.67L202.93 8.23L194.95 16.24L197.50 27.70L208.04 31.14ZM197.50 27.70L194.95 16.24L184.41 12.80L176.42 20.82L178.98 32.28L189.51 35.71ZM223.67 57.50L221.12 46.04L210.59 42.60L202.60 50.61L205.15 62.06L215.68 65.51ZM205.15 62.06L202.60 50.61L192.06 47.17L184.08 55.18L186.63 66.63L197.17 70.07ZM229.12 38.03L226.57 26.57L216.03 23.13L208.04 31.14L210.59 42.60L221.12 46.04ZM160.46 36.85L157.91 25.40L147.37 21.97L139.40 29.99L141.96 41.44L152.49 44.87ZM141.96 41.44L139.40 29.99L128.87 26.56L120.90 34.58L123.46 46.02L133.99 49.45ZM165.89 17.39L163.33 5.93L152.79 2.50L144.81 10.52L147.37 21.97L157.91 25.40ZM147.37 21.97L144.81 10.52L134.28 7.09L126.31 15.11L128.87 26.56L139.40 29.99ZM173.55 51.74L171.00 40.29L160.46 36.85L152.49 44.87L155.04 56.32L165.57 59.75ZM155.04 56.32L152.49 44.87L141.96 41.44L133.99 49.45L136.54 60.90L147.07 64.33ZM178.98 32.28L176.42 20.82L165.89 17.39L157.91 25.40L160.46 36.85L171.00 40.29ZM240.01 -0.92L237.47 -12.39L226.92 -15.83L218.92 -7.81L221.47 3.65L232.02 7.10ZM221.47 3.65L218.92 -7.81L208.37 -11.25L200.38 -3.23L202.93 8.23L213.48 11.67ZM234.56 18.56L232.02 7.10L221.47 3.65L213.48 11.67L216.03 23.13L226.57 26.57ZM193.30 227.85L190.75 216.42L180.25 212.98L172.29 220.96L174.83 232.38L185.34 235.83ZM174.83 232.38L172.29 220.96L161.78 217.52L153.83 225.50L156.37 236.92L166.88 240.36ZM198.72 208.44L196.17 197.01L185.66 193.57L177.70 201.55L180.25 212.98L190.75 216.42ZM180.25 212.98L177.70 201.55L167.19 198.11L159.23 206.10L161.78 217.52L172.29 220.96ZM187.88 247.25L185.34 235.83L174.83 232.38L166.88 240.36L169.42 251.78L179.93 255.22ZM209.57 169.61L207.02 158.17L196.50 154.73L188.53 162.72L191.08 174.15L201.60 177.59ZM114.09 265.40L111.54 253.99L101.04 250.56L93.11 258.54L95.66 269.94L106.15 273.38ZM95.66 269.94L93.11 258.54L82.62 255.11L74.68 263.09L77.24 274.49L87.73 277.92ZM119.48 246.01L116.93 234.60L106.43 231.16L98.49 239.15L101.04 250.56L111.54 253.99ZM101.04 250.56L98.49 239.15L87.99 235.72L80.06 243.70L82.62 255.11L93.11 258.54ZM132.53 260.86L129.98 249.44L119.48 246.01L111.54 253.99L114.09 265.40L124.59 268.83ZM64.19 259.66L61.63 248.26L51.14 244.84L43.22 252.82L45.78 264.22L56.27 267.64ZM45.78 264.22L43.22 252.82L32.73 249.40L24.81 257.38L27.38 268.78L37.86 272.20ZM69.57 240.28L67.00 228.87L56.51 225.45L48.58 233.43L51.14 244.84L61.63 248.26ZM51.14 244.84L48.58 233.43L38.09 230.01L30.17 238.00L32.73 249.40L43.22 252.82ZM82.62 255.11L80.06 243.70L69.57 240.28L61.63 248.26L64.19 259.66L74.68 263.09ZM143.32 222.07L140.77 210.65L130.27 207.21L122.32 215.20L124.87 226.61L135.37 230.05ZM124.87 226.61L122.32 215.20L111.82 211.76L103.87 219.75L106.43 231.16L116.93 234.60ZM148.72 202.66L146.17 191.24L135.66 187.80L127.71 195.79L130.27 207.21L140.77 210.65ZM130.27 207.21L127.71 195.79L117.21 192.36L109.26 200.35L111.82 211.76L122.32 215.20ZM156.37 236.92L153.83 225.50L143.32 222.07L135.37 230.05L137.92 241.46L148.42 244.90ZM137.92 241.46L135.37 230.05L124.87 226.61L116.93 234.60L119.48 246.01L129.98 249.44ZM161.78 217.52L159.23 206.10L148.72 202.66L140.77 210.65L143.32 222.07L153.83 225.50ZM93.37 216.32L90.82 204.91L80.32 201.48L72.38 209.47L74.94 220.88L85.43 224.31ZM74.94 220.88L72.38 209.47L61.88 206.05L53.95 214.04L56.51 225.45L67.00 228.87ZM98.76 196.92L96.20 185.50L85.70 182.07L77.75 190.06L80.32 201.48L90.82 204.91ZM80.32 201.48L77.75 190.06L67.25 186.64L59.32 194.63L61.88 206.05L72.38 209.47ZM106.43 231.16L103.87 219.75L93.37 216.32L85.43 224.31L87.99 235.72L98.49 239.15ZM87.99 235.72L85.43 224.31L74.94 220.88L67.00 228.87L69.57 240.28L80.06 243.70ZM111.82 211.76L109.26 200.35L98.76 196.92L90.82 204.91L93.37 216.32L103.87 219.75ZM169.42 251.78L166.88 240.36L156.37 236.92L148.42 244.90L150.97 256.32L161.47 259.76ZM150.97 256.32L148.42 244.90L137.92 241.46L129.98 249.44L132.53 260.86L143.03 264.29ZM14.33 253.97L11.76 242.57L1.27 239.16L-6.64 247.14L-4.07 258.54L6.41 261.95ZM19.68 234.58L17.11 223.18L6.62 219.77L-1.30 227.76L1.27 239.16L11.76 242.57ZM1.27 239.16L-1.30 227.76L-11.78 224.34L-19.70 232.33L-17.12 243.73L-6.64 247.14ZM27.38 268.78L24.81 257.38L14.33 253.97L6.41 261.95L8.98 273.35L19.46 276.76ZM32.73 249.40L30.17 238.00L19.68 234.58L11.76 242.57L14.33 253.97L24.81 257.38Z"/><path data-band="3" fill="#dc2626" fill-opacity="0.35" d="M4.90 39.32L2.32 27.88L-8.20 24.48L-16.13 32.50L-13.55 43.93L-3.04 47.34Z"/></svg>
