<svg xmlns="http://www.w3.org/2000/svg" width="256" height="256" viewBox="0 0 256 256"><path data-band="1" fill="#fde68a" fill-opacity="0.35" d="M205.34 113.34L202.80 101.94L192.32 98.49L184.37 106.44L186.91 117.84L197.39 121.29ZM186.91 117.84L184.37 106.44L173.88 103.00L165.94 110.95L168.49 122.35L178.97 125.80ZM210.75 93.98L208.22 82.57L197.72 79.12L189.78 87.08L192.32 98.49L202.80 101.94ZM192.32 98.49L189.78 87.08L179.29 83.63L171.34 91.59L173.88 103.00L184.37 106.44ZM218.37 128.20L215.83 116.79L205.34 113.34L197.39 121.29L199.93 132.69L210.42 136.15ZM199.93 132.69L197.39 121.29L186.91 117.84L178.97 125.80L181.51 137.20L191.99 140.64ZM223.78 108.84L221.25 97.43L210.75 93.98L202.80 101.94L205.34 113.34L215.83 116.79ZM155.46 107.51L152.92 96.11L142.43 92.67L134.50 100.63L137.04 112.02L147.52 115.46ZM168.49 122.35L165.94 110.95L155.46 107.51L147.52 115.46L150.07 126.86L160.55 130.30ZM173.88 103.00L171.34 91.59L160.86 88.15L152.92 96.11L155.46 107.51L165.94 110.95ZM234.62 70.11L232.09 58.69L221.59 55.24L213.63 63.20L216.17 74.61L226.66 78.06ZM216.17 74.61L213.63 63.20L203.14 59.75L195.18 67.71L197.72 79.12L208.22 82.57ZM240.05 50.73L237.51 39.31L227.01 35.86L219.05 43.82L221.59 55.24L232.09 58.69ZM221.59 55.24L219.05 43.82L208.55 40.37L200.60 48.34L203.14 59.75L213.63 63.20ZM247.65 84.98L245.12 73.56L234.62 70.11L226.66 78.06L229.20 89.48L239.69 92.93ZM229.20 89.48L226.66 78.06L216.17 74.61L208.22 82.57L210.75 93.98L221.25 97.43ZM253.08 65.60L250.55 54.19L240.05 50.73L232.09 58.69L234.62 70.11L245.12 73.56ZM184.69 64.26L182.15 52.85L171.66 49.41L163.71 57.38L166.25 68.78L176.74 72.23ZM190.10 44.89L187.56 33.47L177.06 30.03L169.11 38.00L171.66 49.41L182.15 52.85ZM197.72 79.12L195.18 67.71L184.69 64.26L176.74 72.23L179.29 83.63L189.78 87.08ZM179.29 83.63L176.74 72.23L166.25 68.78L158.31 76.75L160.86 88.15L171.34 91.59ZM203.14 59.75L200.60 48.34L190.10 44.89L182.15 52.85L184.69 64.26L195.18 67.71ZM225.97 162.40L223.43 151.00L212.95 147.55L205.01 155.49L207.54 166.89L218.02 170.34ZM207.54 166.89L205.01 155.49L194.53 152.04L186.59 159.99L189.12 171.38L199.60 174.83ZM231.38 143.05L228.85 131.65L218.37 128.20L210.42 136.15L212.95 147.55L223.43 151.00ZM212.95 147.55L210.42 136.15L199.93 132.69L191.99 140.64L194.53 152.04L205.01 155.49ZM238.98 177.26L236.45 165.86L225.97 162.40L218.02 170.34L220.56 181.74L231.03 185.20ZM220.56 181.74L218.02 170.34L207.54 166.89L199.60 174.83L202.14 186.23L212.61 189.68ZM244.40 157.91L241.87 146.51L231.38 143.05L223.43 151.00L225.97 162.40L236.45 165.86ZM176.11 156.54L173.57 145.15L163.09 141.70L155.16 149.65L157.70 161.04L168.17 164.49ZM157.70 161.04L155.16 149.65L144.68 146.21L136.75 154.16L139.30 165.55L149.77 168.99ZM181.51 137.20L178.97 125.80L168.49 122.35L160.55 130.30L163.09 141.70L173.57 145.15ZM163.09 141.70L160.55 130.30L150.07 126.86L142.14 134.81L144.68 146.21L155.16 149.65ZM189.12 171.38L186.59 159.99L176.11 156.54L168.17 164.49L170.71 175.88L181.19 179.33ZM170.71 175.88L168.17 164.49L157.70 161.04L149.77 168.99L152.31 180.38L162.78 183.82ZM194.53 152.04L191.99 140.64L181.51 137.20L173.57 145.15L176.11 156.54L186.59 159.99ZM255.25 119.21L252.72 107.80L242.23 104.34L234.27 112.29L236.80 123.70L247.29 127.16ZM236.80 123.70L234.27 112.29L223.78 108.84L215.83 116.79L218.37 128.20L228.85 131.65ZM260.68 99.85L258.15 88.43L247.65 84.98L239.69 92.93L242.23 104.34L252.72 107.80ZM242.23 104.34L239.69 92.93L229.20 89.48L221.25 97.43L223.78 108.84L234.27 112.29ZM268.27 134.08L265.74 122.67L255.25 119.21L247.29 127.16L249.82 138.57L260.31 142.03ZM249.82 138.57L247.29 127.16L236.80 123.70L228.85 131.65L231.38 143.05L241.87 146.51ZM273.71 114.72L271.18 103.31L260.68 99.85L252.72 107.80L255.25 119.21L265.74 122.67ZM256.35 -7.44L253.82 -18.87L243.30 -22.33L235.33 -14.35L237.87 -2.93L248.38 0.53ZM237.87 -2.93L235.33 -14.35L224.82 -17.81L216.86 -9.83L219.40 1.59L229.90 5.04ZM263.96 26.84L261.42 15.41L250.91 11.95L242.94 19.92L245.48 31.34L255.98 34.80ZM245.48 31.34L242.94 19.92L232.44 16.47L224.48 24.44L227.01 35.86L237.51 39.31ZM269.40 7.44L266.86 -3.99L256.35 -7.44L248.38 0.53L250.91 11.95L261.42 15.41ZM250.91 11.95L248.38 0.53L237.87 -2.93L229.90 5.04L232.44 16.47L242.94 19.92ZM276.99 41.72L274.46 30.30L263.96 26.84L255.98 34.80L258.52 46.22L269.02 49.68ZM258.52 46.22L255.98 34.80L245.48 31.34L237.51 39.31L240.05 50.73L250.55 54.19ZM213.97 20.99L211.43 9.56L200.93 6.12L192.97 14.09L195.51 25.51L206.01 28.95ZM195.51 25.51L192.97 14.09L182.47 10.64L174.52 18.62L177.06 30.03L187.56 33.47ZM219.40 1.59L216.86 -9.83L206.35 -13.28L198.39 -5.30L200.93 6.12L211.43 9.56ZM200.93 6.12L198.39 -5.30L187.88 -8.75L179.93 -0.78L182.47 10.64L192.97 14.09ZM227.01 35.86L224.48 24.44L213.97 20.99L206.01 28.95L208.55 40.37L219.05 43.82ZM208.55 40.37L206.01 28.95L195.51 25.51L187.56 33.47L190.10 44.89L200.60 48.34ZM232.44 16.47L229.90 5.04L219.40 1.59L211.43 9.56L213.97 20.99L224.48 24.44ZM182.47 10.64L179.93 -0.78L169.42 -4.22L161.47 3.76L164.02 15.17L174.52 18.62ZM246.57 211.45L244.04 200.05L233.57 196.59L225.62 204.53L228.15 215.92L238.63 219.38ZM228.15 215.92L225.62 204.53L215.15 201.07L207.21 209.01L209.74 220.40L220.21 223.85ZM251.99 192.11L249.46 180.72L238.98 177.26L231.03 185.20L233.57 196.59L244.04 200.05ZM233.57 196.59L231.03 185.20L220.56 181.74L212.61 189.68L215.15 201.07L225.62 204.53ZM259.58 226.30L257.05 214.91L246.57 211.45L238.63 219.38L241.16 230.77L251.63 234.23ZM241.16 230.77L238.63 219.38L228.15 215.92L220.21 223.85L222.74 235.24L233.21 238.70ZM265.00 206.97L262.47 195.58L251.99 192.11L244.04 200.05L246.57 211.45L257.05 214.91ZM275.86 168.30L273.33 156.90L262.84 153.43L254.89 161.37L257.42 172.78L267.90 176.24ZM257.42 172.78L254.89 161.37L244.40 157.91L236.45 165.86L238.98 177.26L249.46 180.72ZM262.84 153.43L260.31 142.03L249.82 138.57L241.87 146.51L244.40 157.91L254.89 161.37ZM270.43 187.64L267.90 176.24L257.42 172.78L249.46 180.72L251.99 192.11L262.47 195.58ZM267.15 260.47L264.63 249.08L254.16 245.62L246.21 253.55L248.74 264.93L259.21 268.40ZM248.74 264.93L246.21 253.55L235.74 250.09L227.80 258.01L230.33 269.40L240.80 272.86ZM272.58 241.16L270.05 229.77L259.58 226.30L251.63 234.23L254.16 245.62L264.63 249.08ZM254.16 245.62L251.63 234.23L241.16 230.77L233.21 238.70L235.74 250.09L246.21 253.55ZM167.55 248.68L165.01 237.30L154.55 233.85L146.63 241.78L149.17 253.16L159.63 256.61ZM149.17 253.16L146.63 241.78L136.17 238.34L128.25 246.27L130.79 257.65L141.25 261.09ZM172.94 229.36L170.40 217.98L159.93 214.53L152.01 222.47L154.55 233.85L165.01 237.30ZM154.55 233.85L152.01 222.47L141.55 219.03L133.62 226.96L136.17 238.34L146.63 241.78ZM180.55 263.50L178.01 252.12L167.55 248.68L159.63 256.61L162.17 267.98L172.63 271.43ZM162.17 267.98L159.63 256.61L149.17 253.16L141.25 261.09L143.79 272.46L154.25 275.91ZM185.94 244.19L183.41 232.81L172.94 229.36L165.01 237.30L167.55 248.68L178.01 252.12ZM130.79 257.65L128.25 246.27L117.79 242.83L109.88 250.77L112.43 262.14L122.88 265.58ZM112.43 262.14L109.88 250.77L99.43 247.33L91.52 255.27L94.06 266.63L104.52 270.07ZM136.17 238.34L133.62 226.96L123.16 223.52L115.25 231.46L117.79 242.83L128.25 246.27ZM196.74 205.56L194.20 194.17L183.73 190.72L175.79 198.66L178.33 210.04L188.80 213.49ZM178.33 210.04L175.79 198.66L165.32 195.21L157.39 203.15L159.93 214.53L170.40 217.98ZM202.14 186.23L199.60 174.83L189.12 171.38L181.19 179.33L183.73 190.72L194.20 194.17ZM183.73 190.72L181.19 179.33L170.71 175.88L162.78 183.82L165.32 195.21L175.79 198.66ZM209.74 220.40L207.21 209.01L196.74 205.56L188.80 213.49L191.34 224.88L201.80 228.33ZM191.34 224.88L188.80 213.49L178.33 210.04L170.40 217.98L172.94 229.36L183.41 232.81ZM215.15 201.07L212.61 189.68L202.14 186.23L194.20 194.17L196.74 205.56L207.21 209.01ZM146.93 199.70L144.38 188.32L133.92 184.88L125.99 192.82L128.54 204.20L139.00 207.65ZM159.93 214.53L157.39 203.15L146.93 199.70L139.00 207.65L141.55 219.03L152.01 222.47ZM141.55 219.03L139.00 207.65L128.54 204.20L120.62 212.14L123.16 223.52L133.62 226.96ZM165.32 195.21L162.78 183.82L152.31 180.38L144.38 188.32L146.93 199.70L157.39 203.15ZM217.34 254.56L214.81 243.17L204.34 239.72L196.41 247.65L198.94 259.03L209.40 262.48ZM198.94 259.03L196.41 247.65L185.94 244.19L178.01 252.12L180.55 263.50L191.01 266.96ZM222.74 235.24L220.21 223.85L209.74 220.40L201.80 228.33L204.34 239.72L214.81 243.17ZM204.34 239.72L201.80 228.33L191.34 224.88L183.41 232.81L185.94 244.19L196.41 247.65ZM230.33 269.40L227.80 258.01L217.34 254.56L209.40 262.48L211.94 273.86L222.40 277.32ZM235.74 250.09L233.21 238.70L222.74 235.24L214.81 243.17L217.34 254.56L227.80 258.01ZM266.12 80.48L263.58 69.06L253.08 65.60L245.12 73.56L247.65 84.98L258.15 88.43ZM271.55 61.10L269.02 49.68L258.52 46.22L250.55 54.19L253.08 65.60L263.58 69.06Z"/><path data-band="2" fill="#f97316" fill-opacity="0.35" d="M44.37 260.84L41.81 249.48L31.37 246.05L23.47 253.99L26.03 265.35L36.47 268.78ZM26.03 265.35L23.47 253.99L13.03 250.57L5.14 258.51L7.70 269.86L18.14 273.29ZM7.70 269.86L5.14 258.51L-5.30 255.09L-13.18 263.03L-10.62 274.38L-0.18 277.80ZM68.06 237.03L65.51 225.66L55.06 222.23L47.16 230.17L49.71 241.54L60.16 244.97ZM49.71 241.54L47.16 230.17L36.70 226.75L28.81 234.69L31.37 246.05L41.81 249.48ZM73.42 217.72L70.86 206.35L60.41 202.92L52.50 210.86L55.06 222.23L65.51 225.66ZM55.06 222.23L52.50 210.86L42.05 207.44L34.15 215.38L36.70 226.75L47.16 230.17ZM81.07 251.83L78.52 240.46L68.06 237.03L60.16 244.97L62.71 256.34L73.16 259.77ZM62.71 256.34L60.16 244.97L49.71 241.54L41.81 249.48L44.37 260.84L54.81 264.27ZM86.42 232.53L83.87 221.15L73.42 217.72L65.51 225.66L68.06 237.03L78.52 240.46ZM18.36 231.27L15.80 219.90L5.35 216.48L-2.54 224.43L0.02 235.79L10.47 239.21ZM0.02 235.79L-2.54 224.43L-12.98 221.01L-20.87 228.95L-18.31 240.31L-7.86 243.73ZM23.70 211.96L21.14 200.59L10.68 197.17L2.79 205.12L5.35 216.48L15.80 219.90ZM5.35 216.48L2.79 205.12L-7.66 201.70L-15.55 209.65L-12.98 221.01L-2.54 224.43ZM31.37 246.05L28.81 234.69L18.36 231.27L10.47 239.21L13.03 250.57L23.47 253.99ZM13.03 250.57L10.47 239.21L0.02 235.79L-7.86 243.73L-5.30 255.09L5.14 258.51ZM36.70 226.75L34.15 215.38L23.70 211.96L15.80 219.90L18.36 231.27L28.81 234.69ZM94.06 266.63L91.52 255.27L81.07 251.83L73.16 259.77L75.71 271.13L86.16 274.56ZM137.04 112.02L134.50 100.63L124.02 97.19L116.09 105.15L118.63 116.54L129.11 119.98ZM160.86 88.15L158.31 76.75L147.82 73.30L139.88 81.27L142.43 92.67L152.92 96.11ZM142.43 92.67L139.88 81.27L129.40 77.83L121.47 85.79L124.02 97.19L134.50 100.63ZM150.07 126.86L147.52 115.46L137.04 112.02L129.11 119.98L131.66 131.37L142.14 134.81ZM166.25 68.78L163.71 57.38L153.22 53.93L145.28 61.90L147.82 73.30L158.31 76.75ZM171.66 49.41L169.11 38.00L158.62 34.56L150.67 42.53L153.22 53.93L163.71 57.38ZM76.48 144.93L73.92 133.55L63.45 130.12L55.54 138.08L58.10 149.46L68.56 152.89ZM58.10 149.46L55.54 138.08L45.07 134.65L37.17 142.61L39.72 153.99L50.19 157.41ZM81.84 125.59L79.29 114.20L68.81 110.78L60.90 118.74L63.45 130.12L73.92 133.55ZM63.45 130.12L60.90 118.74L50.43 115.31L42.51 123.27L45.07 134.65L55.54 138.08ZM89.50 159.75L86.94 148.36L76.48 144.93L68.56 152.89L71.12 164.27L81.58 167.70ZM71.12 164.27L68.56 152.89L58.10 149.46L50.19 157.41L52.74 168.79L63.21 172.22ZM94.86 140.41L92.31 129.02L81.84 125.59L73.92 133.55L76.48 144.93L86.94 148.36ZM26.70 139.19L24.14 127.81L13.68 124.39L5.77 132.35L8.34 143.73L18.80 147.15ZM8.34 143.73L5.77 132.35L-4.69 128.94L-12.58 136.90L-10.02 148.27L0.44 151.69ZM32.05 119.85L29.49 108.47L19.02 105.05L11.11 113.01L13.68 124.39L24.14 127.81ZM13.68 124.39L11.11 113.01L0.65 109.59L-7.25 117.56L-4.69 128.94L5.77 132.35ZM39.72 153.99L37.17 142.61L26.70 139.19L18.80 147.15L21.36 158.52L31.82 161.94ZM21.36 158.52L18.80 147.15L8.34 143.73L0.44 151.69L3.00 163.06L13.46 166.48ZM45.07 134.65L42.51 123.27L32.05 119.85L24.14 127.81L26.70 139.19L37.17 142.61ZM105.61 101.72L103.06 90.32L92.58 86.89L84.65 94.85L87.21 106.24L97.68 109.68ZM87.21 106.24L84.65 94.85L74.18 91.42L66.26 99.39L68.81 110.78L79.29 114.20ZM110.98 82.36L108.43 70.96L97.95 67.53L90.02 75.49L92.58 86.89L103.06 90.32ZM92.58 86.89L90.02 75.49L79.54 72.06L71.62 80.03L74.18 91.42L84.65 94.85ZM118.63 116.54L116.09 105.15L105.61 101.72L97.68 109.68L100.23 121.07L110.71 124.50ZM100.23 121.07L97.68 109.68L87.21 106.24L79.29 114.20L81.84 125.59L92.31 129.02ZM124.02 97.19L121.47 85.79L110.98 82.36L103.06 90.32L105.61 101.72L116.09 105.15ZM55.78 95.96L53.22 84.57L42.75 81.15L34.84 89.12L37.40 100.50L47.87 103.92ZM37.40 100.50L34.84 89.12L24.36 85.70L16.46 93.66L19.02 105.05L29.49 108.47ZM61.14 76.60L58.58 65.21L48.11 61.79L40.19 69.76L42.75 81.15L53.22 84.57ZM42.75 81.15L40.19 69.76L29.71 66.34L21.80 74.31L24.36 85.70L34.84 89.12ZM68.81 110.78L66.26 99.39L55.78 95.96L47.87 103.92L50.43 115.31L60.90 118.74ZM50.43 115.31L47.87 103.92L37.40 100.50L29.49 108.47L32.05 119.85L42.51 123.27ZM74.18 91.42L71.62 80.03L61.14 76.60L53.22 84.57L55.78 95.96L66.26 99.39ZM97.15 193.89L94.60 182.51L84.13 179.08L76.22 187.03L78.77 198.40L89.23 201.84ZM78.77 198.40L76.22 187.03L65.76 183.60L57.85 191.54L60.41 202.92L70.86 206.35ZM102.51 174.57L99.96 163.18L89.50 159.75L81.58 167.70L84.13 179.08L94.60 182.51ZM84.13 179.08L81.58 167.70L71.12 164.27L63.21 172.22L65.76 183.60L76.22 187.03ZM110.16 208.71L107.61 197.33L97.15 193.89L89.23 201.84L91.78 213.21L102.24 216.65ZM91.78 213.21L89.23 201.84L78.77 198.40L70.86 206.35L73.42 217.72L83.87 221.15ZM115.53 189.38L112.98 178.00L102.51 174.57L94.60 182.51L97.15 193.89L107.61 197.33ZM47.39 188.12L44.84 176.74L34.38 173.32L26.48 181.27L29.04 192.64L39.49 196.07ZM29.04 192.64L26.48 181.27L16.02 177.85L8.12 185.80L10.68 197.17L21.14 200.59ZM52.74 168.79L50.19 157.41L39.72 153.99L31.82 161.94L34.38 173.32L44.84 176.74ZM34.38 173.32L31.82 161.94L21.36 158.52L13.46 166.48L16.02 177.85L26.48 181.27ZM60.41 202.92L57.85 191.54L47.39 188.12L39.49 196.07L42.05 207.44L52.50 210.86ZM42.05 207.44L39.49 196.07L29.04 192.64L21.14 200.59L23.70 211.96L34.15 215.38ZM65.76 183.60L63.21 172.22L52.74 168.79L44.84 176.74L47.39 188.12L57.85 191.54ZM126.28 150.72L123.73 139.33L113.26 135.89L105.33 143.84L107.88 155.23L118.35 158.67ZM107.88 155.23L105.33 143.84L94.86 140.41L86.94 148.36L89.50 159.75L99.96 163.18ZM131.66 131.37L129.11 119.98L118.63 116.54L110.71 124.50L113.26 135.89L123.73 139.33ZM113.26 135.89L110.71 124.50L100.23 121.07L92.31 129.02L94.86 140.41L105.33 143.84ZM139.30 165.55L136.75 154.16L126.28 150.72L118.35 158.67L120.90 170.05L131.37 173.49ZM120.90 170.05L118.35 158.67L107.88 155.23L99.96 163.18L102.51 174.57L112.98 178.00ZM144.68 146.21L142.14 134.81L131.66 131.37L123.73 139.33L126.28 150.72L136.75 154.16ZM114.09 9.40L111.54 -2.01L101.04 -5.44L93.11 2.54L95.66 13.94L106.15 17.38ZM95.66 13.94L93.11 2.54L82.62 -0.89L74.68 7.09L77.24 18.49L87.73 21.92ZM101.04 -5.44L98.49 -16.85L87.99 -20.28L80.06 -12.30L82.62 -0.89L93.11 2.54ZM127.14 24.24L124.59 12.83L114.09 9.40L106.15 17.38L108.71 28.78L119.20 32.22ZM108.71 28.78L106.15 17.38L95.66 13.94L87.73 21.92L90.29 33.32L100.77 36.75ZM132.53 4.86L129.98 -6.56L119.48 -9.99L111.54 -2.01L114.09 9.40L124.59 12.83ZM64.19 3.66L61.63 -7.74L51.14 -11.16L43.22 -3.18L45.78 8.22L56.27 11.64ZM45.78 8.22L43.22 -3.18L32.73 -6.60L24.81 1.38L27.38 12.78L37.86 16.20ZM77.24 18.49L74.68 7.09L64.19 3.66L56.27 11.64L58.83 23.05L69.31 26.47ZM58.83 23.05L56.27 11.64L45.78 8.22L37.86 16.20L40.42 27.60L50.90 31.02ZM82.62 -0.89L80.06 -12.30L69.57 -15.72L61.63 -7.74L64.19 3.66L74.68 7.09ZM134.79 58.46L132.24 47.06L121.75 43.62L113.81 51.59L116.37 62.99L126.85 66.43ZM116.37 62.99L113.81 51.59L103.33 48.16L95.40 56.13L97.95 67.53L108.43 70.96ZM140.18 39.09L137.63 27.68L127.14 24.24L119.20 32.22L121.75 43.62L132.24 47.06ZM121.75 43.62L119.20 32.22L108.71 28.78L100.77 36.75L103.33 48.16L113.81 51.59ZM147.82 73.30L145.28 61.90L134.79 58.46L126.85 66.43L129.40 77.83L139.88 81.27ZM129.40 77.83L126.85 66.43L116.37 62.99L108.43 70.96L110.98 82.36L121.47 85.79ZM153.22 53.93L150.67 42.53L140.18 39.09L132.24 47.06L134.79 58.46L145.28 61.90ZM84.91 52.70L82.36 41.30L71.87 37.87L63.95 45.84L66.51 57.24L76.99 60.67ZM66.51 57.24L63.95 45.84L53.47 42.42L45.54 50.39L48.11 61.79L58.58 65.21ZM90.29 33.32L87.73 21.92L77.24 18.49L69.31 26.47L71.87 37.87L82.36 41.30ZM71.87 37.87L69.31 26.47L58.83 23.05L50.90 31.02L53.47 42.42L63.95 45.84ZM97.95 67.53L95.40 56.13L84.91 52.70L76.99 60.67L79.54 72.06L90.02 75.49ZM79.54 72.06L76.99 60.67L66.51 57.24L58.58 65.21L61.14 76.60L71.62 80.03ZM103.33 48.16L100.77 36.75L90.29 33.32L82.36 41.30L84.91 52.70L95.40 56.13ZM164.02 15.17L161.47 3.76L150.97 0.32L143.03 8.29L145.57 19.71L156.07 23.15ZM145.57 19.71L143.03 8.29L132.53 4.86L124.59 12.83L127.14 24.24L137.63 27.68ZM169.42 -4.22L166.88 -15.64L156.37 -19.08L148.42 -11.10L150.97 0.32L161.47 3.76ZM150.97 0.32L148.42 -11.10L137.92 -14.54L129.98 -6.56L132.53 4.86L143.03 8.29ZM177.06 30.03L174.52 18.62L164.02 15.17L156.07 23.15L158.62 34.56L169.11 38.00ZM158.62 34.56L156.07 23.15L145.57 19.71L137.63 27.68L140.18 39.09L150.67 42.53ZM117.79 242.83L115.25 231.46L104.79 228.02L96.88 235.96L99.43 247.33L109.88 250.77ZM99.43 247.33L96.88 235.96L86.42 232.53L78.52 240.46L81.07 251.83L91.52 255.27ZM123.16 223.52L120.62 212.14L110.16 208.71L102.24 216.65L104.79 228.02L115.25 231.46ZM104.79 228.02L102.24 216.65L91.78 213.21L83.87 221.15L86.42 232.53L96.88 235.96ZM128.54 204.20L125.99 192.82L115.53 189.38L107.61 197.33L110.16 208.71L120.62 212.14ZM152.31 180.38L149.77 168.99L139.30 165.55L131.37 173.49L133.92 184.88L144.38 188.32ZM133.92 184.88L131.37 173.49L120.90 170.05L112.98 178.00L115.53 189.38L125.99 192.82ZM3.00 163.06L0.44 151.69L-10.02 148.27L-17.91 156.23L-15.35 167.60L-4.89 171.01ZM10.68 197.17L8.12 185.80L-2.33 182.38L-10.22 190.33L-7.66 201.70L2.79 205.12ZM16.02 177.85L13.46 166.48L3.00 163.06L-4.89 171.01L-2.33 182.38L8.12 185.80ZM3.63 36.72L1.06 25.33L-9.41 21.92L-17.32 29.90L-14.75 41.29L-4.28 44.70ZM14.33 -2.03L11.76 -13.43L1.27 -16.84L-6.64 -8.86L-4.07 2.54L6.41 5.95ZM27.38 12.78L24.81 1.38L14.33 -2.03L6.41 5.95L8.98 17.35L19.46 20.76ZM8.98 17.35L6.41 5.95L-4.07 2.54L-11.98 10.52L-9.41 21.92L1.06 25.33ZM32.73 -6.60L30.17 -18.00L19.68 -21.42L11.76 -13.43L14.33 -2.03L24.81 1.38ZM5.99 90.25L3.42 78.86L-7.05 75.45L-14.95 83.42L-12.38 94.80L-1.92 98.21ZM11.33 70.89L8.76 59.50L-1.71 56.09L-9.62 64.06L-7.05 75.45L3.42 78.86ZM19.02 105.05L16.46 93.66L5.99 90.25L-1.92 98.21L0.65 109.59L11.11 113.01ZM0.65 109.59L-1.92 98.21L-12.38 94.80L-20.28 102.77L-17.72 114.14L-7.25 117.56ZM24.36 85.70L21.80 74.31L11.33 70.89L3.42 78.86L5.99 90.25L16.46 93.66ZM35.07 46.97L32.50 35.58L22.02 32.16L14.11 40.14L16.67 51.53L27.15 54.95ZM16.67 51.53L14.11 40.14L3.63 36.72L-4.28 44.70L-1.71 56.09L8.76 59.50ZM40.42 27.60L37.86 16.20L27.38 12.78L19.46 20.76L22.02 32.16L32.50 35.58ZM22.02 32.16L19.46 20.76L8.98 17.35L1.06 25.33L3.63 36.72L14.11 40.14ZM48.11 61.79L45.54 50.39L35.07 46.97L27.15 54.95L29.71 66.34L40.19 69.76ZM29.71 66.34L27.15 54.95L16.67 51.53L8.76 59.50L11.33 70.89L21.80 74.31ZM53.47 42.42L50.90 31.02L40.42 27.60L32.50 35.58L35.07 46.97L45.54 50.39Z"/></svg>
