<svg xmlns="http://www.w3.org/2000/svg" width="256" height="256" viewBox="0 0 256 256"><path data-band="1" fill="#fde68a" fill-opacity="0.35" d="M1.75 159.00L-0.80 147.67L-11.22 144.25L-19.09 152.16L-16.53 163.49L-6.12 166.91ZM7.06 139.76L4.51 128.42L-5.91 125.00L-13.78 132.91L-11.22 144.25L-0.80 147.67ZM14.72 173.76L12.17 162.43L1.75 159.00L-6.12 166.91L-3.56 178.24L6.85 181.67ZM20.04 154.52L17.49 143.18L7.06 139.76L-0.80 147.67L1.75 159.00L12.17 162.43ZM43.66 130.79L41.12 119.44L30.69 116.01L22.81 123.93L25.36 135.27L35.79 138.70ZM49.00 111.53L46.45 100.18L36.02 96.75L28.14 104.67L30.69 116.01L41.12 119.44ZM22.37 207.75L19.82 196.42L9.40 193.00L1.54 200.90L4.09 212.23L14.50 215.65ZM4.09 212.23L1.54 200.90L-8.87 197.48L-16.73 205.38L-14.18 216.70L-3.77 220.12ZM27.69 188.52L25.14 177.19L14.72 173.76L6.85 181.67L9.40 193.00L19.82 196.42ZM9.40 193.00L6.85 181.67L-3.56 178.24L-11.42 186.15L-8.87 197.48L1.54 200.90ZM35.33 222.51L32.78 211.18L22.37 207.75L14.50 215.65L17.05 226.98L27.46 230.41ZM17.05 226.98L14.50 215.65L4.09 212.23L-3.77 220.12L-1.22 231.45L9.19 234.87ZM40.65 203.28L38.10 191.95L27.69 188.52L19.82 196.42L22.37 207.75L32.78 211.18ZM51.31 164.81L48.76 153.47L38.33 150.04L30.46 157.95L33.01 169.28L43.43 172.71ZM33.01 169.28L30.46 157.95L20.04 154.52L12.17 162.43L14.72 173.76L25.14 177.19ZM56.64 145.56L54.09 134.22L43.66 130.79L35.79 138.70L38.33 150.04L48.76 153.47ZM38.33 150.04L35.79 138.70L25.36 135.27L17.49 143.18L20.04 154.52L30.46 157.95ZM64.27 179.58L61.73 168.24L51.31 164.81L43.43 172.71L45.98 184.05L56.40 187.48ZM45.98 184.05L43.43 172.71L33.01 169.28L25.14 177.19L27.69 188.52L38.10 191.95ZM69.61 160.34L67.07 148.99L56.64 145.56L48.76 153.47L51.31 164.81L61.73 168.24ZM72.66 87.78L70.11 76.42L59.67 72.99L51.78 80.91L54.33 92.26L64.77 95.69ZM107.06 25.44L104.52 14.07L94.06 10.63L86.16 18.56L88.71 29.93L99.16 33.37ZM92.48 262.35L89.94 251.02L79.53 247.58L71.65 255.47L74.19 266.79L84.60 270.23ZM74.19 266.79L71.65 255.47L61.24 252.03L53.37 259.92L55.91 271.24L66.32 274.68ZM97.82 243.13L95.28 231.80L84.86 228.36L76.99 236.25L79.53 247.58L89.94 251.02ZM79.53 247.58L76.99 236.25L66.57 232.81L58.70 240.70L61.24 252.03L71.65 255.47ZM110.77 257.90L108.23 246.57L97.82 243.13L89.94 251.02L92.48 262.35L102.89 265.79ZM42.96 256.49L40.42 245.16L30.01 241.73L22.15 249.62L24.69 260.94L35.10 264.38ZM24.69 260.94L22.15 249.62L11.74 246.20L3.88 254.09L6.43 265.41L16.84 268.83ZM48.29 237.27L45.74 225.94L35.33 222.51L27.46 230.41L30.01 241.73L40.42 245.16ZM30.01 241.73L27.46 230.41L17.05 226.98L9.19 234.87L11.74 246.20L22.15 249.62ZM61.24 252.03L58.70 240.70L48.29 237.27L40.42 245.16L42.96 256.49L53.37 259.92ZM121.47 219.46L118.93 208.12L108.51 204.67L100.62 212.57L103.16 223.91L113.58 227.35ZM103.16 223.91L100.62 212.57L90.20 209.13L82.32 217.02L84.86 228.36L95.28 231.80ZM126.82 200.22L124.29 188.88L113.86 185.43L105.97 193.33L108.51 204.67L118.93 208.12ZM108.51 204.67L105.97 193.33L95.55 189.89L87.66 197.79L90.20 209.13L100.62 212.57ZM134.42 234.24L131.89 222.90L121.47 219.46L113.58 227.35L116.12 238.68L126.54 242.13ZM116.12 238.68L113.58 227.35L103.16 223.91L95.28 231.80L97.82 243.13L108.23 246.57ZM139.78 215.01L137.25 203.67L126.82 200.22L118.93 208.12L121.47 219.46L131.89 222.90ZM71.90 213.59L69.36 202.25L58.94 198.82L51.07 206.72L53.61 218.05L64.03 221.48ZM53.61 218.05L51.07 206.72L40.65 203.28L32.78 211.18L35.33 222.51L45.74 225.94ZM77.24 194.35L74.70 183.01L64.27 179.58L56.40 187.48L58.94 198.82L69.36 202.25ZM58.94 198.82L56.40 187.48L45.98 184.05L38.10 191.95L40.65 203.28L51.07 206.72ZM84.86 228.36L82.32 217.02L71.90 213.59L64.03 221.48L66.57 232.81L76.99 236.25ZM66.57 232.81L64.03 221.48L53.61 218.05L45.74 225.94L48.29 237.27L58.70 240.70ZM90.20 209.13L87.66 197.79L77.24 194.35L69.36 202.25L71.90 213.59L82.32 217.02ZM142.02 268.25L139.49 256.91L129.07 253.46L121.19 261.35L123.72 272.68L134.13 276.13ZM147.38 249.03L144.85 237.69L134.42 234.24L126.54 242.13L129.07 253.46L139.49 256.91ZM129.07 253.46L126.54 242.13L116.12 238.68L108.23 246.57L110.77 257.90L121.19 261.35ZM160.33 263.82L157.80 252.48L147.38 249.03L139.49 256.91L142.02 268.25L152.44 271.70ZM6.43 265.41L3.88 254.09L-6.52 250.66L-14.37 258.56L-11.82 269.87L-1.42 273.30ZM11.74 246.20L9.19 234.87L-1.22 231.45L-9.07 239.34L-6.52 250.66L3.88 254.09ZM129.93 127.68L127.39 116.32L116.95 112.88L109.06 120.79L111.60 132.14L122.03 135.59ZM111.60 132.14L109.06 120.79L98.62 117.35L90.73 125.26L93.27 136.61L103.70 140.05ZM135.29 108.41L132.76 97.06L122.31 93.61L114.41 101.53L116.95 112.88L127.39 116.32ZM116.95 112.88L114.41 101.53L103.97 98.09L96.08 106.00L98.62 117.35L109.06 120.79ZM142.90 142.48L140.37 131.12L129.93 127.68L122.03 135.59L124.57 146.94L135.00 150.38ZM124.57 146.94L122.03 135.59L111.60 132.14L103.70 140.05L106.24 151.40L116.67 154.84ZM148.27 123.22L145.74 111.86L135.29 108.41L127.39 116.32L129.93 127.68L140.37 131.12ZM80.29 121.83L77.75 110.48L67.32 107.04L59.43 114.96L61.98 126.30L72.41 129.74ZM61.98 126.30L59.43 114.96L49.00 111.53L41.12 119.44L43.66 130.79L54.09 134.22ZM85.64 102.56L83.10 91.21L72.66 87.78L64.77 95.69L67.32 107.04L77.75 110.48ZM67.32 107.04L64.77 95.69L54.33 92.26L46.45 100.18L49.00 111.53L59.43 114.96ZM93.27 136.61L90.73 125.26L80.29 121.83L72.41 129.74L74.95 141.08L85.38 144.52ZM74.95 141.08L72.41 129.74L61.98 126.30L54.09 134.22L56.64 145.56L67.07 148.99ZM98.62 117.35L96.08 106.00L85.64 102.56L77.75 110.48L80.29 121.83L90.73 125.26ZM159.02 84.67L156.48 73.31L146.03 69.86L138.12 77.78L140.66 89.14L151.11 92.59ZM140.66 89.14L138.12 77.78L127.68 74.33L119.77 82.25L122.31 93.61L132.76 97.06ZM164.39 65.39L161.86 54.02L151.41 50.58L143.49 58.50L146.03 69.86L156.48 73.31ZM146.03 69.86L143.49 58.50L133.05 55.05L125.14 62.97L127.68 74.33L138.12 77.78ZM172.00 99.49L169.46 88.12L159.02 84.67L151.11 92.59L153.64 103.95L164.09 107.40ZM153.64 103.95L151.11 92.59L140.66 89.14L132.76 97.06L135.29 108.41L145.74 111.86ZM177.38 80.21L174.85 68.84L164.39 65.39L156.48 73.31L159.02 84.67L169.46 88.12ZM109.33 78.81L106.79 67.45L96.34 64.01L88.45 71.94L90.99 83.29L101.43 86.73ZM90.99 83.29L88.45 71.94L78.00 68.50L70.11 76.42L72.66 87.78L83.10 91.21ZM114.69 59.53L112.15 48.17L101.70 44.73L93.80 52.65L96.34 64.01L106.79 67.45ZM96.34 64.01L93.80 52.65L83.35 49.22L75.46 57.14L78.00 68.50L88.45 71.94ZM122.31 93.61L119.77 82.25L109.33 78.81L101.43 86.73L103.97 98.09L114.41 101.53ZM103.97 98.09L101.43 86.73L90.99 83.29L83.10 91.21L85.64 102.56L96.08 106.00ZM127.68 74.33L125.14 62.97L114.69 59.53L106.79 67.45L109.33 78.81L119.77 82.25ZM150.51 176.53L147.97 165.18L137.54 161.73L129.64 169.63L132.18 180.98L142.61 184.43ZM132.18 180.98L129.64 169.63L119.21 166.19L111.32 174.09L113.86 185.43L124.29 188.88ZM155.87 157.28L153.34 145.93L142.90 142.48L135.00 150.38L137.54 161.73L147.97 165.18ZM137.54 161.73L135.00 150.38L124.57 146.94L116.67 154.84L119.21 166.19L129.64 169.63ZM163.47 191.33L160.94 179.98L150.51 176.53L142.61 184.43L145.14 195.77L155.57 199.22ZM145.14 195.77L142.61 184.43L132.18 180.98L124.29 188.88L126.82 200.22L137.25 203.67ZM168.84 172.08L166.31 160.73L155.87 157.28L147.97 165.18L150.51 176.53L160.94 179.98ZM100.89 170.65L98.35 159.31L87.92 155.87L80.04 163.77L82.58 175.11L93.01 178.55ZM82.58 175.11L80.04 163.77L69.61 160.34L61.73 168.24L64.27 179.58L74.70 183.01ZM106.24 151.40L103.70 140.05L93.27 136.61L85.38 144.52L87.92 155.87L98.35 159.31ZM87.92 155.87L85.38 144.52L74.95 141.08L67.07 148.99L69.61 160.34L80.04 163.77ZM113.86 185.43L111.32 174.09L100.89 170.65L93.01 178.55L95.55 189.89L105.97 193.33ZM95.55 189.89L93.01 178.55L82.58 175.11L74.70 183.01L77.24 194.35L87.66 197.79ZM119.21 166.19L116.67 154.84L106.24 151.40L98.35 159.31L100.89 170.65L111.32 174.09ZM179.59 133.57L177.06 122.21L166.62 118.76L158.71 126.67L161.25 138.02L171.68 141.47ZM161.25 138.02L158.71 126.67L148.27 123.22L140.37 131.12L142.90 142.48L153.34 145.93ZM184.98 114.30L182.44 102.94L172.00 99.49L164.09 107.40L166.62 118.76L177.06 122.21ZM166.62 118.76L164.09 107.40L153.64 103.95L145.74 111.86L148.27 123.22L158.71 126.67ZM192.57 148.38L190.04 137.02L179.59 133.57L171.68 141.47L174.22 152.83L184.65 156.28ZM174.22 152.83L171.68 141.47L161.25 138.02L153.34 145.93L155.87 157.28L166.31 160.73ZM197.95 129.12L195.42 117.76L184.98 114.30L177.06 122.21L179.59 133.57L190.04 137.02ZM267.15 4.47L264.63 -6.92L254.16 -10.38L246.21 -2.45L248.74 8.93L259.21 12.40ZM248.74 8.93L246.21 -2.45L235.74 -5.91L227.80 2.01L230.33 13.40L240.80 16.86ZM261.73 23.78L259.21 12.40L248.74 8.93L240.80 16.86L243.33 28.24L253.79 31.70ZM167.55 -7.32L165.01 -18.70L154.55 -22.15L146.63 -14.22L149.17 -2.84L159.63 0.61ZM149.17 -2.84L146.63 -14.22L136.17 -17.66L128.25 -9.73L130.79 1.65L141.25 5.09ZM180.55 7.50L178.01 -3.88L167.55 -7.32L159.63 0.61L162.17 11.98L172.63 15.43ZM162.17 11.98L159.63 0.61L149.17 -2.84L141.25 5.09L143.79 16.46L154.25 19.91ZM130.79 1.65L128.25 -9.73L117.79 -13.17L109.88 -5.23L112.43 6.14L122.88 9.58ZM112.43 6.14L109.88 -5.23L99.43 -8.67L91.52 -0.73L94.06 10.63L104.52 14.07ZM188.15 41.63L185.62 30.26L175.16 26.81L167.24 34.73L169.78 46.10L180.23 49.55ZM169.78 46.10L167.24 34.73L156.78 31.28L148.87 39.21L151.41 50.58L161.86 54.02ZM193.54 22.33L191.01 10.96L180.55 7.50L172.63 15.43L175.16 26.81L185.62 30.26ZM175.16 26.81L172.63 15.43L162.17 11.98L154.25 19.91L156.78 31.28L167.24 34.73ZM201.14 56.46L198.61 45.09L188.15 41.63L180.23 49.55L182.76 60.92L193.22 64.38ZM182.76 60.92L180.23 49.55L169.78 46.10L161.86 54.02L164.39 65.39L174.85 68.84ZM206.54 37.17L204.00 25.79L193.54 22.33L185.62 30.26L188.15 41.63L198.61 45.09ZM138.42 35.76L135.88 24.39L125.42 20.95L117.51 28.88L120.05 40.24L130.51 43.69ZM120.05 40.24L117.51 28.88L107.06 25.44L99.16 33.37L101.70 44.73L112.15 48.17ZM143.79 16.46L141.25 5.09L130.79 1.65L122.88 9.58L125.42 20.95L135.88 24.39ZM125.42 20.95L122.88 9.58L112.43 6.14L104.52 14.07L107.06 25.44L117.51 28.88ZM151.41 50.58L148.87 39.21L138.42 35.76L130.51 43.69L133.05 55.05L143.49 58.50ZM133.05 55.05L130.51 43.69L120.05 40.24L112.15 48.17L114.69 59.53L125.14 62.97ZM156.78 31.28L154.25 19.91L143.79 16.46L135.88 24.39L138.42 35.76L148.87 39.21ZM217.34 -1.44L214.81 -12.83L204.34 -16.28L196.41 -8.35L198.94 3.03L209.40 6.48ZM198.94 3.03L196.41 -8.35L185.94 -11.81L178.01 -3.88L180.55 7.50L191.01 10.96ZM230.33 13.40L227.80 2.01L217.34 -1.44L209.40 6.48L211.94 17.86L222.40 21.32ZM211.94 17.86L209.40 6.48L198.94 3.03L191.01 10.96L193.54 22.33L204.00 25.79ZM235.74 -5.91L233.21 -17.30L222.74 -20.76L214.81 -12.83L217.34 -1.44L227.80 2.01ZM220.68 231.31L218.16 219.96L207.72 216.50L199.82 224.39L202.34 235.74L212.77 239.20ZM202.34 235.74L199.82 224.39L189.39 220.93L181.49 228.82L184.01 240.16L194.44 243.62ZM226.07 212.08L223.55 200.72L213.11 197.26L205.20 205.15L207.72 216.50L218.16 219.96ZM207.72 216.50L205.20 205.15L194.77 201.69L186.86 209.59L189.39 220.93L199.82 224.39ZM233.63 246.12L231.11 234.78L220.68 231.31L212.77 239.20L215.29 250.54L225.72 254.01ZM215.29 250.54L212.77 239.20L202.34 235.74L194.44 243.62L196.96 254.96L207.39 258.42ZM239.02 226.89L236.50 215.54L226.07 212.08L218.16 219.96L220.68 231.31L231.11 234.78ZM171.06 225.37L168.53 214.02L158.10 210.57L150.21 218.46L152.74 229.80L163.16 233.25ZM152.74 229.80L150.21 218.46L139.78 215.01L131.89 222.90L134.42 234.24L144.85 237.69ZM176.43 206.13L173.90 194.78L163.47 191.33L155.57 199.22L158.10 210.57L168.53 214.02ZM158.10 210.57L155.57 199.22L145.14 195.77L137.25 203.67L139.78 215.01L150.21 218.46ZM184.01 240.16L181.49 228.82L171.06 225.37L163.16 233.25L165.69 244.59L176.12 248.05ZM165.69 244.59L163.16 233.25L152.74 229.80L144.85 237.69L147.38 249.03L157.80 252.48ZM189.39 220.93L186.86 209.59L176.43 206.13L168.53 214.02L171.06 225.37L181.49 228.82ZM249.82 188.40L247.30 177.05L236.86 173.58L228.94 181.47L231.46 192.83L241.90 196.30ZM231.46 192.83L228.94 181.47L218.50 178.01L210.58 185.91L213.11 197.26L223.55 200.72ZM255.22 169.15L252.70 157.79L242.25 154.32L234.33 162.22L236.86 173.58L247.30 177.05ZM236.86 173.58L234.33 162.22L223.89 158.76L215.97 166.66L218.50 178.01L228.94 181.47ZM262.78 203.23L260.26 191.87L249.82 188.40L241.90 196.30L244.42 207.65L254.86 211.12ZM244.42 207.65L241.90 196.30L231.46 192.83L223.55 200.72L226.07 212.08L236.50 215.54ZM268.18 183.98L265.66 172.62L255.22 169.15L247.30 177.05L249.82 188.40L260.26 191.87ZM200.15 182.45L197.62 171.09L187.18 167.64L179.28 175.54L181.81 186.89L192.24 190.34ZM181.81 186.89L179.28 175.54L168.84 172.08L160.94 179.98L163.47 191.33L173.90 194.78ZM205.53 163.20L203.01 151.84L192.57 148.38L184.65 156.28L187.18 167.64L197.62 171.09ZM187.18 167.64L184.65 156.28L174.22 152.83L166.31 160.73L168.84 172.08L179.28 175.54ZM213.11 197.26L210.58 185.91L200.15 182.45L192.24 190.34L194.77 201.69L205.20 205.15ZM194.77 201.69L192.24 190.34L181.81 186.89L173.90 194.78L176.43 206.13L186.86 209.59ZM218.50 178.01L215.97 166.66L205.53 163.20L197.62 171.09L200.15 182.45L210.58 185.91ZM228.24 265.35L225.72 254.01L215.29 250.54L207.39 258.42L209.91 269.77L220.34 273.23ZM196.96 254.96L194.44 243.62L184.01 240.16L176.12 248.05L178.64 259.39L189.06 262.85ZM178.64 259.39L176.12 248.05L165.69 244.59L157.80 252.48L160.33 263.82L170.75 267.27ZM209.91 269.77L207.39 258.42L196.96 254.96L189.06 262.85L191.59 274.19L202.01 277.65ZM251.98 241.71L249.46 230.36L239.02 226.89L231.11 234.78L233.63 246.12L244.06 249.59ZM275.73 218.06L273.22 206.70L262.78 203.23L254.86 211.12L257.37 222.47L267.81 225.94ZM257.37 222.47L254.86 211.12L244.42 207.65L236.50 215.54L239.02 226.89L249.46 230.36ZM258.47 96.51L255.95 85.14L245.49 81.67L237.56 89.58L240.09 100.95L250.54 104.42ZM240.09 100.95L237.56 89.58L227.11 86.12L219.18 94.03L221.71 105.40L232.16 108.86ZM263.89 77.22L261.36 65.85L250.90 62.38L242.97 70.30L245.49 81.67L255.95 85.14ZM245.49 81.67L242.97 70.30L232.51 66.83L224.58 74.75L227.11 86.12L237.56 89.58ZM271.45 111.35L268.93 99.98L258.47 96.51L250.54 104.42L253.06 115.79L263.52 119.25ZM253.06 115.79L250.54 104.42L240.09 100.95L232.16 108.86L234.68 120.23L245.13 123.69ZM276.87 92.07L274.35 80.69L263.89 77.22L255.95 85.14L258.47 96.51L268.93 99.98ZM208.73 90.57L206.20 79.20L195.75 75.75L187.83 83.66L190.36 95.03L200.81 98.48ZM190.36 95.03L187.83 83.66L177.38 80.21L169.46 88.12L172.00 99.49L182.44 102.94ZM214.13 71.29L211.60 59.92L201.14 56.46L193.22 64.38L195.75 75.75L206.20 79.20ZM195.75 75.75L193.22 64.38L182.76 60.92L174.85 68.84L177.38 80.21L187.83 83.66ZM221.71 105.40L219.18 94.03L208.73 90.57L200.81 98.48L203.34 109.85L213.79 113.31ZM203.34 109.85L200.81 98.48L190.36 95.03L182.44 102.94L184.98 114.30L195.42 117.76ZM227.11 86.12L224.58 74.75L214.13 71.29L206.20 79.20L208.73 90.57L219.18 94.03ZM269.30 57.93L266.78 46.55L256.32 43.09L248.38 51.00L250.90 62.38L261.36 65.85ZM274.72 38.63L272.20 27.25L261.73 23.78L253.79 31.70L256.32 43.09L266.78 46.55ZM237.92 47.54L235.39 36.16L224.93 32.70L217.00 40.62L219.53 52.00L229.98 55.46ZM219.53 52.00L217.00 40.62L206.54 37.17L198.61 45.09L201.14 56.46L211.60 59.92ZM243.33 28.24L240.80 16.86L230.33 13.40L222.40 21.32L224.93 32.70L235.39 36.16ZM224.93 32.70L222.40 21.32L211.94 17.86L204.00 25.79L206.54 37.17L217.00 40.62ZM250.90 62.38L248.38 51.00L237.92 47.54L229.98 55.46L232.51 66.83L242.97 70.30ZM232.51 66.83L229.98 55.46L219.53 52.00L211.60 59.92L214.13 71.29L224.58 74.75ZM256.32 43.09L253.79 31.70L243.33 28.24L235.39 36.16L237.92 47.54L248.38 51.00ZM260.63 149.89L258.11 138.52L247.66 135.06L239.73 142.96L242.25 154.32L252.70 157.79ZM266.04 130.62L263.52 119.25L253.06 115.79L245.13 123.69L247.66 135.06L258.11 138.52ZM273.59 164.73L271.07 153.36L260.63 149.89L252.70 157.79L255.22 169.15L265.66 172.62ZM229.29 139.50L226.76 128.13L216.31 124.67L208.39 132.58L210.92 143.94L221.37 147.40ZM210.92 143.94L208.39 132.58L197.95 129.12L190.04 137.02L192.57 148.38L203.01 151.84ZM234.68 120.23L232.16 108.86L221.71 105.40L213.79 113.31L216.31 124.67L226.76 128.13ZM216.31 124.67L213.79 113.31L203.34 109.85L195.42 117.76L197.95 129.12L208.39 132.58ZM242.25 154.32L239.73 142.96L229.29 139.50L221.37 147.40L223.89 158.76L234.33 162.22ZM223.89 158.76L221.37 147.40L210.92 143.94L203.01 151.84L205.53 163.20L215.97 166.66ZM247.66 135.06L245.13 123.69L234.68 120.23L226.76 128.13L229.29 139.50L239.73 142.96Z"/><path data-band="2" fill="#f97316" fill-opacity="0.35" d="M30.69 116.01L28.14 104.67L17.70 101.24L9.83 109.16L12.38 120.50L22.81 123.93ZM12.38 120.50L9.83 109.16L-0.60 105.74L-8.47 113.66L-5.91 125.00L4.51 128.42ZM36.02 96.75L33.46 85.40L23.03 81.98L15.15 89.90L17.70 101.24L28.14 104.67ZM17.70 101.24L15.15 89.90L4.72 86.48L-3.15 94.40L-0.60 105.74L9.83 109.16ZM25.36 135.27L22.81 123.93L12.38 120.50L4.51 128.42L7.06 139.76L17.49 143.18ZM39.03 24.14L36.47 12.78L26.03 9.35L18.14 17.29L20.70 28.64L31.14 32.07ZM20.70 28.64L18.14 17.29L7.70 13.86L-0.18 21.80L2.37 33.15L12.81 36.57ZM44.37 4.84L41.81 -6.52L31.37 -9.95L23.47 -2.01L26.03 9.35L36.47 12.78ZM26.03 9.35L23.47 -2.01L13.03 -5.43L5.14 2.51L7.70 13.86L18.14 17.29ZM52.02 38.92L49.47 27.56L39.03 24.14L31.14 32.07L33.69 43.42L44.13 46.85ZM33.69 43.42L31.14 32.07L20.70 28.64L12.81 36.57L15.37 47.93L25.81 51.35ZM57.37 19.63L54.81 8.27L44.37 4.84L36.47 12.78L39.03 24.14L49.47 27.56ZM2.37 33.15L-0.18 21.80L-10.62 18.38L-18.50 26.32L-15.94 37.67L-5.51 41.08ZM7.70 13.86L5.14 2.51L-5.30 -0.91L-13.18 7.03L-10.62 18.38L-0.18 21.80ZM81.07 -4.17L78.52 -15.54L68.06 -18.97L60.16 -11.03L62.71 0.34L73.16 3.77ZM62.71 0.34L60.16 -11.03L49.71 -14.46L41.81 -6.52L44.37 4.84L54.81 8.27ZM13.03 -5.43L10.47 -16.79L0.02 -20.21L-7.86 -12.27L-5.30 -0.91L5.14 2.51ZM59.67 72.99L57.12 61.63L46.68 58.21L38.80 66.13L41.35 77.48L51.78 80.91ZM41.35 77.48L38.80 66.13L28.36 62.70L20.48 70.63L23.03 81.98L33.46 85.40ZM65.02 53.71L62.47 42.35L52.02 38.92L44.13 46.85L46.68 58.21L57.12 61.63ZM46.68 58.21L44.13 46.85L33.69 43.42L25.81 51.35L28.36 62.70L38.80 66.13ZM54.33 92.26L51.78 80.91L41.35 77.48L33.46 85.40L36.02 96.75L46.45 100.18ZM78.00 68.50L75.46 57.14L65.02 53.71L57.12 61.63L59.67 72.99L70.11 76.42ZM10.04 67.20L7.49 55.86L-2.95 52.43L-10.82 60.36L-8.27 71.71L2.17 75.13ZM15.37 47.93L12.81 36.57L2.37 33.15L-5.51 41.08L-2.95 52.43L7.49 55.86ZM23.03 81.98L20.48 70.63L10.04 67.20L2.17 75.13L4.72 86.48L15.15 89.90ZM4.72 86.48L2.17 75.13L-8.27 71.71L-16.14 79.63L-13.58 90.98L-3.15 94.40ZM28.36 62.70L25.81 51.35L15.37 47.93L7.49 55.86L10.04 67.20L20.48 70.63ZM88.71 29.93L86.16 18.56L75.71 15.13L67.81 23.06L70.36 34.42L80.81 37.86ZM70.36 34.42L67.81 23.06L57.37 19.63L49.47 27.56L52.02 38.92L62.47 42.35ZM94.06 10.63L91.52 -0.73L81.07 -4.17L73.16 3.77L75.71 15.13L86.16 18.56ZM75.71 15.13L73.16 3.77L62.71 0.34L54.81 8.27L57.37 19.63L67.81 23.06ZM101.70 44.73L99.16 33.37L88.71 29.93L80.81 37.86L83.35 49.22L93.80 52.65ZM83.35 49.22L80.81 37.86L70.36 34.42L62.47 42.35L65.02 53.71L75.46 57.14Z"/></svg>
