<svg xmlns="http://www.w3.org/2000/svg" width="256" height="256" viewBox="0 0 256 256"><path data-band="1" fill="#fde68a" fill-opacity="0.35" d="M244.26 -7.26L241.36 -18.81L230.68 -21.82L222.91 -13.27L225.82 -1.72L236.49 1.28ZM131.89 175.37L128.98 163.86L118.35 160.87L110.62 169.39L113.53 180.89L124.16 183.88ZM136.71 155.34L133.80 143.82L123.16 140.83L115.44 149.36L118.35 160.87L128.98 163.86ZM99.99 166.40L97.08 154.89L86.45 151.91L78.74 160.43L81.65 171.94L92.28 174.92ZM81.65 171.94L78.74 160.43L68.11 157.45L60.40 165.98L63.32 177.48L73.94 180.46ZM104.80 146.37L101.89 134.86L91.26 131.88L83.54 140.40L86.45 151.91L97.08 154.89ZM86.45 151.91L83.54 140.40L72.91 137.42L65.19 145.95L68.11 157.45L78.74 160.43ZM113.53 180.89L110.62 169.39L99.99 166.40L92.28 174.92L95.19 186.42L105.82 189.41ZM95.19 186.42L92.28 174.92L81.65 171.94L73.94 180.46L76.85 191.96L87.48 194.94ZM118.35 160.87L115.44 149.36L104.80 146.37L97.08 154.89L99.99 166.40L110.62 169.39ZM159.90 129.77L157.00 118.25L146.35 115.25L138.62 123.78L141.53 135.30L152.17 138.29ZM164.74 109.72L161.83 98.20L151.18 95.20L143.45 103.73L146.35 115.25L157.00 118.25ZM127.98 120.79L125.07 109.28L114.43 106.29L106.70 114.82L109.61 126.33L120.25 129.32ZM109.61 126.33L106.70 114.82L96.06 111.84L88.34 120.37L91.26 131.88L101.89 134.86ZM132.80 100.74L129.89 89.22L119.25 86.24L111.52 94.77L114.43 106.29L125.07 109.28ZM114.43 106.29L111.52 94.77L100.87 91.79L93.15 100.32L96.06 111.84L106.70 114.82ZM141.53 135.30L138.62 123.78L127.98 120.79L120.25 129.32L123.16 140.83L133.80 143.82ZM123.16 140.83L120.25 129.32L109.61 126.33L101.89 134.86L104.80 146.37L115.44 149.36ZM146.35 115.25L143.45 103.73L132.80 100.74L125.07 109.28L127.98 120.79L138.62 123.78ZM122.26 215.40L119.35 203.90L108.72 200.91L101.01 209.43L103.92 220.92L114.54 223.91ZM103.92 220.92L101.01 209.43L90.39 206.44L82.68 214.95L85.59 226.45L96.21 229.43ZM127.07 195.39L124.16 183.88L113.53 180.89L105.82 189.41L108.72 200.91L119.35 203.90ZM108.72 200.91L105.82 189.41L95.19 186.42L87.48 194.94L90.39 206.44L101.01 209.43ZM135.79 229.90L132.88 218.40L122.26 215.40L114.54 223.91L117.45 235.41L128.07 238.40ZM117.45 235.41L114.54 223.91L103.92 220.92L96.21 229.43L99.12 240.93L109.73 243.92ZM35.43 223.04L32.51 211.55L21.89 208.57L14.20 217.09L17.12 228.58L27.73 231.55ZM17.12 228.58L14.20 217.09L3.59 214.12L-4.09 222.64L-1.17 234.12L9.43 237.09ZM40.21 203.03L37.29 191.54L26.67 188.57L18.97 197.09L21.89 208.57L32.51 211.55ZM49.78 163.00L46.86 151.50L36.23 148.53L28.53 157.05L31.45 168.55L42.07 171.52ZM31.45 168.55L28.53 157.05L17.91 154.08L10.21 162.61L13.13 174.10L23.75 177.07ZM54.56 142.97L51.65 131.47L41.02 128.50L33.31 137.03L36.23 148.53L46.86 151.50ZM36.23 148.53L33.31 137.03L22.69 134.06L14.99 142.58L17.91 154.08L28.53 157.05ZM63.32 177.48L60.40 165.98L49.78 163.00L42.07 171.52L44.99 183.02L55.61 186.00ZM44.99 183.02L42.07 171.52L31.45 168.55L23.75 177.07L26.67 188.57L37.29 191.54ZM68.11 157.45L65.19 145.95L54.56 142.97L46.86 151.50L49.78 163.00L60.40 165.98ZM44.17 257.50L41.26 246.01L30.65 243.04L22.96 251.55L25.88 263.03L36.48 266.00ZM25.88 263.03L22.96 251.55L12.35 248.57L4.67 257.08L7.59 268.56L18.19 271.53ZM48.95 237.50L46.04 226.01L35.43 223.04L27.73 231.55L30.65 243.04L41.26 246.01ZM30.65 243.04L27.73 231.55L17.12 228.58L9.43 237.09L12.35 248.57L22.96 251.55ZM62.48 251.97L59.57 240.48L48.95 237.50L41.26 246.01L44.17 257.50L54.78 260.48ZM7.59 268.56L4.67 257.08L-5.94 254.11L-13.62 262.62L-10.69 274.09L-0.10 277.06ZM12.35 248.57L9.43 237.09L-1.17 234.12L-8.86 242.63L-5.94 254.11L4.67 257.08ZM72.06 211.97L69.14 200.47L58.53 197.49L50.82 206.01L53.74 217.50L64.35 220.48ZM53.74 217.50L50.82 206.01L40.21 203.03L32.51 211.55L35.43 223.04L46.04 226.01ZM76.85 191.96L73.94 180.46L63.32 177.48L55.61 186.00L58.53 197.49L69.14 200.47ZM58.53 197.49L55.61 186.00L44.99 183.02L37.29 191.54L40.21 203.03L50.82 206.01ZM85.59 226.45L82.68 214.95L72.06 211.97L64.35 220.48L67.27 231.97L77.88 234.96ZM67.27 231.97L64.35 220.48L53.74 217.50L46.04 226.01L48.95 237.50L59.57 240.48ZM90.39 206.44L87.48 194.94L76.85 191.96L69.14 200.47L72.06 211.97L82.68 214.95ZM184.10 29.46L181.20 17.92L170.53 14.93L162.78 23.47L165.69 35.01L176.35 38.00ZM165.69 35.01L162.78 23.47L152.12 20.48L144.38 29.03L147.29 40.56L157.94 43.55ZM188.95 9.38L186.04 -2.17L175.38 -5.16L167.62 3.39L170.53 14.93L181.20 17.92ZM170.53 14.93L167.62 3.39L156.96 0.40L149.21 8.95L152.12 20.48L162.78 23.47ZM179.26 49.53L176.35 38.00L165.69 35.01L157.94 43.55L160.85 55.08L171.51 58.07ZM202.52 23.91L199.62 12.37L188.95 9.38L181.20 17.92L184.10 29.46L194.76 32.45ZM133.72 26.04L130.81 14.51L120.15 11.53L112.41 20.07L115.32 31.60L125.98 34.59ZM115.32 31.60L112.41 20.07L101.75 17.09L94.02 25.64L96.94 37.17L107.59 40.15ZM138.55 5.96L135.64 -5.57L124.97 -8.56L117.23 -0.01L120.15 11.53L130.81 14.51ZM120.15 11.53L117.23 -0.01L106.57 -2.99L98.84 5.57L101.75 17.09L112.41 20.07ZM147.29 40.56L144.38 29.03L133.72 26.04L125.98 34.59L128.89 46.11L139.54 49.10ZM128.89 46.11L125.98 34.59L115.32 31.60L107.59 40.15L110.50 51.67L121.15 54.65ZM152.12 20.48L149.21 8.95L138.55 5.96L130.81 14.51L133.72 26.04L144.38 29.03ZM225.82 -1.72L222.91 -13.27L212.24 -16.27L204.47 -7.72L207.38 3.83L218.05 6.83ZM207.38 3.83L204.47 -7.72L193.80 -10.71L186.04 -2.17L188.95 9.38L199.62 12.37ZM175.38 -5.16L172.47 -16.70L161.80 -19.69L154.05 -11.14L156.96 0.40L167.62 3.39ZM156.96 0.40L154.05 -11.14L143.38 -14.13L135.64 -5.57L138.55 5.96L149.21 8.95ZM156.02 75.14L153.11 63.62L142.46 60.63L134.72 69.17L137.63 80.69L148.27 83.68ZM137.63 80.69L134.72 69.17L124.07 66.18L116.33 74.72L119.25 86.24L129.89 89.22ZM160.85 55.08L157.94 43.55L147.29 40.56L139.54 49.10L142.46 60.63L153.11 63.62ZM142.46 60.63L139.54 49.10L128.89 46.11L121.15 54.65L124.07 66.18L134.72 69.17ZM151.18 95.20L148.27 83.68L137.63 80.69L129.89 89.22L132.80 100.74L143.45 103.73ZM174.41 69.60L171.51 58.07L160.85 55.08L153.11 63.62L156.02 75.14L166.67 78.14ZM220.95 18.37L218.05 6.83L207.38 3.83L199.62 12.37L202.52 23.91L213.19 26.91ZM55.39 68.36L52.47 56.85L41.83 53.88L34.12 62.42L37.04 73.93L47.68 76.90ZM37.04 73.93L34.12 62.42L23.48 59.45L15.77 68.00L18.70 79.50L29.33 82.47ZM68.95 82.85L66.03 71.34L55.39 68.36L47.68 76.90L50.60 88.41L61.23 91.39ZM50.60 88.41L47.68 76.90L37.04 73.93L29.33 82.47L32.25 93.98L42.89 96.95ZM73.76 62.80L70.84 51.28L60.19 48.30L52.47 56.85L55.39 68.36L66.03 71.34ZM18.70 79.50L15.77 68.00L5.14 65.03L-2.57 73.58L0.36 85.08L10.99 88.04ZM0.36 85.08L-2.57 73.58L-13.20 70.61L-20.90 79.16L-17.97 90.66L-7.34 93.62ZM83.37 22.66L80.45 11.14L69.80 8.16L62.07 16.72L64.99 28.24L75.64 31.21ZM64.99 28.24L62.07 16.72L51.42 13.74L43.70 22.30L46.63 33.81L57.27 36.79ZM69.80 8.16L66.88 -3.36L56.22 -6.33L48.50 2.22L51.42 13.74L62.07 16.72ZM96.94 37.17L94.02 25.64L83.37 22.66L75.64 31.21L78.56 42.73L89.21 45.71ZM78.56 42.73L75.64 31.21L64.99 28.24L57.27 36.79L60.19 48.30L70.84 51.28ZM101.75 17.09L98.84 5.57L88.18 2.59L80.45 11.14L83.37 22.66L94.02 25.64ZM33.06 19.33L30.13 7.81L19.48 4.84L11.77 13.40L14.70 24.91L25.34 27.88ZM14.70 24.91L11.77 13.40L1.13 10.44L-6.58 18.99L-3.65 30.50L6.99 33.46ZM46.63 33.81L43.70 22.30L33.06 19.33L25.34 27.88L28.27 39.39L38.91 42.36ZM51.42 13.74L48.50 2.22L37.85 -0.75L30.13 7.81L33.06 19.33L43.70 22.30ZM77.71 117.39L74.79 105.88L64.15 102.90L56.44 111.43L59.36 122.94L69.99 125.92ZM59.36 122.94L56.44 111.43L45.81 108.46L38.10 116.99L41.02 128.50L51.65 131.47ZM82.51 97.34L79.59 85.83L68.95 82.85L61.23 91.39L64.15 102.90L74.79 105.88ZM64.15 102.90L61.23 91.39L50.60 88.41L42.89 96.95L45.81 108.46L56.44 111.43ZM91.26 131.88L88.34 120.37L77.71 117.39L69.99 125.92L72.91 137.42L83.54 140.40ZM72.91 137.42L69.99 125.92L59.36 122.94L51.65 131.47L54.56 142.97L65.19 145.95ZM96.06 111.84L93.15 100.32L82.51 97.34L74.79 105.88L77.71 117.39L88.34 120.37ZM32.25 93.98L29.33 82.47L18.70 79.50L10.99 88.04L13.91 99.55L24.54 102.52ZM41.02 128.50L38.10 116.99L27.47 114.02L19.76 122.55L22.69 134.06L33.31 137.03ZM45.81 108.46L42.89 96.95L32.25 93.98L24.54 102.52L27.47 114.02L38.10 116.99ZM105.69 71.73L102.77 60.21L92.13 57.23L84.40 65.77L87.32 77.29L97.96 80.27ZM87.32 77.29L84.40 65.77L73.76 62.80L66.03 71.34L68.95 82.85L79.59 85.83ZM110.50 51.67L107.59 40.15L96.94 37.17L89.21 45.71L92.13 57.23L102.77 60.21ZM92.13 57.23L89.21 45.71L78.56 42.73L70.84 51.28L73.76 62.80L84.40 65.77ZM119.25 86.24L116.33 74.72L105.69 71.73L97.96 80.27L100.87 91.79L111.52 94.77ZM100.87 91.79L97.96 80.27L87.32 77.29L79.59 85.83L82.51 97.34L93.15 100.32ZM124.07 66.18L121.15 54.65L110.50 51.67L102.77 60.21L105.69 71.73L116.33 74.72ZM130.97 249.90L128.07 238.40L117.45 235.41L109.73 243.92L112.64 255.41L123.26 258.41ZM94.32 260.93L91.41 249.44L80.79 246.45L73.09 254.96L76.00 266.44L86.61 269.43ZM76.00 266.44L73.09 254.96L62.48 251.97L54.78 260.48L57.69 271.96L68.30 274.95ZM99.12 240.93L96.21 229.43L85.59 226.45L77.88 234.96L80.79 246.45L91.41 249.44ZM80.79 246.45L77.88 234.96L67.27 231.97L59.57 240.48L62.48 251.97L73.09 254.96Z"/><path data-band="2" fill="#f97316" fill-opacity="0.35" d="M276.29 1.76L273.39 -9.79L262.71 -12.80L254.94 -4.26L257.84 7.29L268.51 10.30ZM257.84 7.29L254.94 -4.26L244.26 -7.26L236.49 1.28L239.39 12.83L250.06 15.84ZM266.53 41.94L263.63 30.39L252.96 27.38L245.19 35.92L248.09 47.47L258.76 50.47ZM271.41 21.85L268.51 10.30L257.84 7.29L250.06 15.84L252.96 27.38L263.63 30.39ZM150.25 169.84L147.34 158.33L136.71 155.34L128.98 163.86L131.89 175.37L142.52 178.36ZM155.07 149.81L152.17 138.29L141.53 135.30L133.80 143.82L136.71 155.34L147.34 158.33ZM163.79 184.35L160.88 172.84L150.25 169.84L142.52 178.36L145.42 189.87L156.06 192.86ZM145.42 189.87L142.52 178.36L131.89 175.37L124.16 183.88L127.07 195.39L137.70 198.38ZM168.62 164.32L165.71 152.80L155.07 149.81L147.34 158.33L150.25 169.84L160.88 172.84ZM178.29 124.24L175.38 112.72L164.74 109.72L157.00 118.25L159.90 129.77L170.55 132.76ZM183.13 104.19L180.22 92.66L169.57 89.66L161.83 98.20L164.74 109.72L175.38 112.72ZM191.84 138.76L188.93 127.24L178.29 124.24L170.55 132.76L173.45 144.28L184.09 147.28ZM173.45 144.28L170.55 132.76L159.90 129.77L152.17 138.29L155.07 149.81L165.71 152.80ZM196.68 118.71L193.78 107.19L183.13 104.19L175.38 112.72L178.29 124.24L188.93 127.24ZM172.49 218.88L169.59 207.37L158.96 204.37L151.23 212.88L154.13 224.39L164.76 227.39ZM154.13 224.39L151.23 212.88L140.60 209.89L132.88 218.40L135.79 229.90L146.41 232.89ZM177.32 198.86L174.42 187.35L163.79 184.35L156.06 192.86L158.96 204.37L169.59 207.37ZM158.96 204.37L156.06 192.86L145.42 189.87L137.70 198.38L140.60 209.89L151.23 212.88ZM186.02 233.39L183.12 221.88L172.49 218.88L164.76 227.39L167.66 238.89L178.29 241.89ZM167.66 238.89L164.76 227.39L154.13 224.39L146.41 232.89L149.31 244.39L159.94 247.39ZM190.86 213.37L187.96 201.86L177.32 198.86L169.59 207.37L172.49 218.88L183.12 221.88ZM140.60 209.89L137.70 198.38L127.07 195.39L119.35 203.90L122.26 215.40L132.88 218.40ZM200.54 173.32L197.64 161.80L187.00 158.80L179.26 167.32L182.16 178.83L192.80 181.84ZM182.16 178.83L179.26 167.32L168.62 164.32L160.88 172.84L163.79 184.35L174.42 187.35ZM205.38 153.28L202.48 141.76L191.84 138.76L184.09 147.28L187.00 158.80L197.64 161.80ZM187.00 158.80L184.09 147.28L173.45 144.28L165.71 152.80L168.62 164.32L179.26 167.32ZM214.07 187.84L211.18 176.33L200.54 173.32L192.80 181.84L195.69 193.35L206.33 196.36ZM195.69 193.35L192.80 181.84L182.16 178.83L174.42 187.35L177.32 198.86L187.96 201.86ZM218.92 167.81L216.03 156.29L205.38 153.28L197.64 161.80L200.54 173.32L211.18 176.33ZM197.67 43.99L194.76 32.45L184.10 29.46L176.35 38.00L179.26 49.53L189.91 52.53ZM206.38 78.60L203.48 67.06L192.82 64.06L185.07 72.60L187.97 84.13L198.63 87.13ZM187.97 84.13L185.07 72.60L174.41 69.60L166.67 78.14L169.57 89.66L180.22 92.66ZM211.23 58.53L208.33 46.99L197.67 43.99L189.91 52.53L192.82 64.06L203.48 67.06ZM192.82 64.06L189.91 52.53L179.26 49.53L171.51 58.07L174.41 69.60L185.07 72.60ZM219.94 93.13L217.04 81.60L206.38 78.60L198.63 87.13L201.53 98.66L212.18 101.66ZM201.53 98.66L198.63 87.13L187.97 84.13L180.22 92.66L183.13 104.19L193.78 107.19ZM224.80 73.07L221.90 61.53L211.23 58.53L203.48 67.06L206.38 78.60L217.04 81.60ZM169.57 89.66L166.67 78.14L156.02 75.14L148.27 83.68L151.18 95.20L161.83 98.20ZM234.52 32.92L231.62 21.37L220.95 18.37L213.19 26.91L216.09 38.45L226.76 41.46ZM216.09 38.45L213.19 26.91L202.52 23.91L194.76 32.45L197.67 43.99L208.33 46.99ZM239.39 12.83L236.49 1.28L225.82 -1.72L218.05 6.83L220.95 18.37L231.62 21.37ZM248.09 47.47L245.19 35.92L234.52 32.92L226.76 41.46L229.66 53.00L240.32 56.00ZM229.66 53.00L226.76 41.46L216.09 38.45L208.33 46.99L211.23 58.53L221.90 61.53ZM252.96 27.38L250.06 15.84L239.39 12.83L231.62 21.37L234.52 32.92L245.19 35.92ZM194.71 267.91L191.81 256.40L181.19 253.40L173.46 261.90L176.36 273.40L186.98 276.40ZM199.55 247.90L196.65 236.39L186.02 233.39L178.29 241.89L181.19 253.40L191.81 256.40ZM181.19 253.40L178.29 241.89L167.66 238.89L159.94 247.39L162.84 258.89L173.46 261.90ZM213.07 262.42L210.18 250.91L199.55 247.90L191.81 256.40L194.71 267.91L205.34 270.91ZM222.76 222.39L219.87 210.88L209.23 207.87L201.49 216.38L204.39 227.89L215.02 230.90ZM204.39 227.89L201.49 216.38L190.86 213.37L183.12 221.88L186.02 233.39L196.65 236.39ZM227.61 202.37L224.72 190.85L214.07 187.84L206.33 196.36L209.23 207.87L219.87 210.88ZM209.23 207.87L206.33 196.36L195.69 193.35L187.96 201.86L190.86 213.37L201.49 216.38ZM144.50 264.40L141.59 252.90L130.97 249.90L123.26 258.41L126.16 269.90L136.78 272.90ZM126.16 269.90L123.26 258.41L112.64 255.41L104.93 263.92L107.84 275.41L118.45 278.40ZM149.31 244.39L146.41 232.89L135.79 229.90L128.07 238.40L130.97 249.90L141.59 252.90ZM162.84 258.89L159.94 247.39L149.31 244.39L141.59 252.90L144.50 264.40L155.12 267.39ZM112.64 255.41L109.73 243.92L99.12 240.93L91.41 249.44L94.32 260.93L104.93 263.92ZM228.63 127.73L225.73 116.20L215.08 113.19L207.33 121.71L210.23 133.24L220.88 136.25ZM210.23 133.24L207.33 121.71L196.68 118.71L188.93 127.24L191.84 138.76L202.48 141.76ZM233.49 107.67L230.59 96.14L219.94 93.13L212.18 101.66L215.08 113.19L225.73 116.20ZM215.08 113.19L212.18 101.66L201.53 98.66L193.78 107.19L196.68 118.71L207.33 121.71ZM242.18 142.26L239.28 130.73L228.63 127.73L220.88 136.25L223.78 147.77L234.42 150.78ZM223.78 147.77L220.88 136.25L210.23 133.24L202.48 141.76L205.38 153.28L216.03 156.29ZM247.04 122.21L244.15 110.68L233.49 107.67L225.73 116.20L228.63 127.73L239.28 130.73ZM256.78 82.09L253.88 70.55L243.22 67.54L235.46 76.07L238.35 87.61L249.01 90.62ZM238.35 87.61L235.46 76.07L224.80 73.07L217.04 81.60L219.94 93.13L230.59 96.14ZM261.65 62.02L258.76 50.47L248.09 47.47L240.32 56.00L243.22 67.54L253.88 70.55ZM243.22 67.54L240.32 56.00L229.66 53.00L221.90 61.53L224.80 73.07L235.46 76.07ZM270.34 96.64L267.44 85.10L256.78 82.09L249.01 90.62L251.91 102.15L262.57 105.17ZM251.91 102.15L249.01 90.62L238.35 87.61L230.59 96.14L233.49 107.67L244.15 110.68ZM275.21 76.57L272.32 65.03L261.65 62.02L253.88 70.55L256.78 82.09L267.44 85.10ZM250.86 176.84L247.97 165.32L237.32 162.31L229.57 170.82L232.46 182.34L243.11 185.35ZM232.46 182.34L229.57 170.82L218.92 167.81L211.18 176.33L214.07 187.84L224.72 190.85ZM255.72 156.80L252.83 145.27L242.18 142.26L234.42 150.78L237.32 162.31L247.97 165.32ZM237.32 162.31L234.42 150.78L223.78 147.77L216.03 156.29L218.92 167.81L229.57 170.82Z"/><path data-band="3" fill="#dc2626" fill-opacity="0.35" d="M249.81 251.45L246.92 239.93L236.29 236.92L228.55 245.42L231.44 256.93L242.07 259.94ZM231.44 256.93L228.55 245.42L217.91 242.41L210.18 250.91L213.07 262.42L223.70 265.43ZM263.34 265.98L260.45 254.46L249.81 251.45L242.07 259.94L244.96 271.45L255.59 274.47ZM273.06 225.95L270.18 214.43L259.53 211.41L251.78 219.91L254.67 231.43L265.31 234.45ZM254.67 231.43L251.78 219.91L241.14 216.90L233.40 225.40L236.29 236.92L246.92 239.93ZM259.53 211.41L256.64 199.89L246.00 196.87L238.25 205.38L241.14 216.90L251.78 219.91ZM268.20 245.97L265.31 234.45L254.67 231.43L246.92 239.93L249.81 251.45L260.45 254.46ZM236.29 236.92L233.40 225.40L222.76 222.39L215.02 230.90L217.91 242.41L228.55 245.42ZM217.91 242.41L215.02 230.90L204.39 227.89L196.65 236.39L199.55 247.90L210.18 250.91ZM241.14 216.90L238.25 205.38L227.61 202.37L219.87 210.88L222.76 222.39L233.40 225.40ZM260.59 136.76L257.70 125.22L247.04 122.21L239.28 130.73L242.18 142.26L252.83 145.27ZM265.46 116.70L262.57 105.17L251.91 102.15L244.15 110.68L247.04 122.21L257.70 125.22ZM274.14 151.30L271.25 139.77L260.59 136.76L252.83 145.27L255.72 156.80L266.38 159.82ZM264.40 191.38L261.51 179.86L250.86 176.84L243.11 185.35L246.00 196.87L256.64 199.89ZM246.00 196.87L243.11 185.35L232.46 182.34L224.72 190.85L227.61 202.37L238.25 205.38ZM269.27 171.35L266.38 159.82L255.72 156.80L247.97 165.32L250.86 176.84L261.51 179.86Z"/></svg>
