<svg xmlns="http://www.w3.org/2000/svg" width="256" height="256" viewBox="0 0 256 256"><path data-band="1" fill="#fde68a" fill-opacity="0.35" d="M44.17 1.50L41.26 -9.99L30.65 -12.96L22.96 -4.45L25.88 7.03L36.48 10.00ZM25.88 7.03L22.96 -4.45L12.35 -7.43L4.67 1.08L7.59 12.56L18.19 15.53ZM57.69 15.96L54.78 4.48L44.17 1.50L36.48 10.00L39.40 21.49L50.00 24.47ZM39.40 21.49L36.48 10.00L25.88 7.03L18.19 15.53L21.11 27.01L31.71 29.99ZM62.48 -4.03L59.57 -15.52L48.95 -18.50L41.26 -9.99L44.17 1.50L54.78 4.48ZM7.59 12.56L4.67 1.08L-5.94 -1.89L-13.62 6.62L-10.69 18.09L-0.10 21.06ZM12.35 -7.43L9.43 -18.91L-1.17 -21.88L-8.86 -13.37L-5.94 -1.89L4.67 1.08ZM116.55 53.88L113.65 42.39L103.04 39.40L95.34 47.89L98.24 59.38L108.85 62.37ZM98.24 59.38L95.34 47.89L84.73 44.90L77.03 53.40L79.94 64.88L90.54 67.87ZM103.04 39.40L100.13 27.91L89.52 24.92L81.82 33.42L84.73 44.90L95.34 47.89ZM130.06 68.36L127.16 56.87L116.55 53.88L108.85 62.37L111.75 73.85L122.36 76.85ZM111.75 73.85L108.85 62.37L98.24 59.38L90.54 67.87L93.45 79.35L104.05 82.34ZM66.43 50.41L63.52 38.93L52.91 35.95L45.22 44.45L48.13 55.92L58.73 58.91ZM48.13 55.92L45.22 44.45L34.62 41.47L26.94 49.97L29.85 61.44L40.45 64.42ZM71.21 30.43L68.30 18.95L57.69 15.96L50.00 24.47L52.91 35.95L63.52 38.93ZM52.91 35.95L50.00 24.47L39.40 21.49L31.71 29.99L34.62 41.47L45.22 44.45ZM79.94 64.88L77.03 53.40L66.43 50.41L58.73 58.91L61.64 70.39L72.24 73.37ZM61.64 70.39L58.73 58.91L48.13 55.92L40.45 64.42L43.36 75.89L53.96 78.88ZM84.73 44.90L81.82 33.42L71.21 30.43L63.52 38.93L66.43 50.41L77.03 53.40ZM130.97 -6.10L128.07 -17.60L117.45 -20.59L109.73 -12.08L112.64 -0.59L123.26 2.41ZM94.32 4.93L91.41 -6.56L80.79 -9.55L73.09 -1.04L76.00 10.44L86.61 13.43ZM76.00 10.44L73.09 -1.04L62.48 -4.03L54.78 4.48L57.69 15.96L68.30 18.95ZM107.84 19.41L104.93 7.92L94.32 4.93L86.61 13.43L89.52 24.92L100.13 27.91ZM89.52 24.92L86.61 13.43L76.00 10.44L68.30 18.95L71.21 30.43L81.82 33.42ZM120.46 108.30L117.55 96.82L106.95 93.82L99.26 102.31L102.16 113.78L112.76 116.78ZM125.26 88.33L122.36 76.85L111.75 73.85L104.05 82.34L106.95 93.82L117.55 96.82ZM133.96 122.77L131.06 111.29L120.46 108.30L112.76 116.78L115.66 128.26L126.25 131.25ZM88.66 99.31L85.75 87.84L75.15 84.85L67.46 93.34L70.37 104.81L80.96 107.80ZM70.37 104.81L67.46 93.34L56.87 90.35L49.18 98.84L52.09 110.31L62.68 113.30ZM93.45 79.35L90.54 67.87L79.94 64.88L72.24 73.37L75.15 84.85L85.75 87.84ZM75.15 84.85L72.24 73.37L61.64 70.39L53.96 78.88L56.87 90.35L67.46 93.34ZM102.16 113.78L99.26 102.31L88.66 99.31L80.96 107.80L83.87 119.27L94.46 122.27ZM83.87 119.27L80.96 107.80L70.37 104.81L62.68 113.30L65.59 124.77L76.18 127.76ZM106.95 93.82L104.05 82.34L93.45 79.35L85.75 87.84L88.66 99.31L99.26 102.31ZM5.27 235.40L2.36 223.95L-8.21 220.97L-15.86 229.44L-12.95 240.88L-2.38 243.86ZM10.02 215.49L7.11 204.04L-3.46 201.06L-11.12 209.53L-8.21 220.97L2.36 223.95ZM18.75 249.83L15.84 238.38L5.27 235.40L-2.38 243.86L0.53 255.31L11.09 258.29ZM0.53 255.31L-2.38 243.86L-12.95 240.88L-20.60 249.35L-17.69 260.79L-7.13 263.77ZM23.50 229.92L20.59 218.47L10.02 215.49L2.36 223.95L5.27 235.40L15.84 238.38ZM16.34 46.99L13.42 35.51L2.82 32.54L-4.86 41.04L-1.94 52.51L8.66 55.49ZM21.11 27.01L18.19 15.53L7.59 12.56L-0.10 21.06L2.82 32.54L13.42 35.51ZM29.85 61.44L26.94 49.97L16.34 46.99L8.66 55.49L11.57 66.96L22.17 69.94ZM11.57 66.96L8.66 55.49L-1.94 52.51L-9.61 61.01L-6.69 72.48L3.90 75.45ZM34.62 41.47L31.71 29.99L21.11 27.01L13.42 35.51L16.34 46.99L26.94 49.97ZM10.80 141.26L7.88 129.80L-2.70 126.83L-10.37 135.31L-7.45 146.77L3.13 149.74ZM15.56 121.32L12.64 109.85L2.06 106.88L-5.61 115.37L-2.70 126.83L7.88 129.80ZM24.29 155.70L21.38 144.24L10.80 141.26L3.13 149.74L6.04 161.20L16.62 164.18ZM6.04 161.20L3.13 149.74L-7.45 146.77L-15.11 155.25L-12.20 166.70L-1.62 169.68ZM29.05 135.76L26.14 124.30L15.56 121.32L7.88 129.80L10.80 141.26L21.38 144.24ZM38.59 95.86L35.68 84.39L25.08 81.41L17.40 89.90L20.32 101.37L30.91 104.35ZM20.32 101.37L17.40 89.90L6.81 86.92L-0.86 95.41L2.06 106.88L12.64 109.85ZM43.36 75.89L40.45 64.42L29.85 61.44L22.17 69.94L25.08 81.41L35.68 84.39ZM25.08 81.41L22.17 69.94L11.57 66.96L3.90 75.45L6.81 86.92L17.40 89.90ZM52.09 110.31L49.18 98.84L38.59 95.86L30.91 104.35L33.82 115.81L44.41 118.80ZM33.82 115.81L30.91 104.35L20.32 101.37L12.64 109.85L15.56 121.32L26.14 124.30ZM56.87 90.35L53.96 78.88L43.36 75.89L35.68 84.39L38.59 95.86L49.18 98.84ZM82.16 267.77L79.26 256.32L68.69 253.32L61.02 261.78L63.92 273.23L74.49 276.22ZM32.22 264.26L29.31 252.81L18.75 249.83L11.09 258.29L14.00 269.73L24.56 272.71ZM14.00 269.73L11.09 258.29L0.53 255.31L-7.13 263.77L-4.22 275.20L6.34 278.19ZM83.01 193.56L80.11 182.10L69.53 179.11L61.85 187.58L64.75 199.04L75.33 202.03ZM64.75 199.04L61.85 187.58L51.27 184.59L43.59 193.06L46.50 204.52L57.08 207.51ZM87.79 173.63L84.89 162.16L74.30 159.17L66.62 167.65L69.53 179.11L80.11 182.10ZM69.53 179.11L66.62 167.65L56.04 164.66L48.36 173.13L51.27 184.59L61.85 187.58ZM96.50 208.02L93.60 196.56L83.01 193.56L75.33 202.03L78.23 213.49L88.81 216.48ZM78.23 213.49L75.33 202.03L64.75 199.04L57.08 207.51L59.98 218.96L70.56 221.95ZM101.28 188.09L98.38 176.62L87.79 173.63L80.11 182.10L83.01 193.56L93.60 196.56ZM33.02 190.08L30.11 178.62L19.53 175.64L11.86 184.11L14.77 195.57L25.35 198.55ZM14.77 195.57L11.86 184.11L1.29 181.13L-6.37 189.61L-3.46 201.06L7.11 204.04ZM37.78 170.15L34.87 158.69L24.29 155.70L16.62 164.18L19.53 175.64L30.11 178.62ZM19.53 175.64L16.62 164.18L6.04 161.20L-1.62 169.68L1.29 181.13L11.86 184.11ZM46.50 204.52L43.59 193.06L33.02 190.08L25.35 198.55L28.26 210.00L38.83 212.99ZM28.26 210.00L25.35 198.55L14.77 195.57L7.11 204.04L10.02 215.49L20.59 218.47ZM51.27 184.59L48.36 173.13L37.78 170.15L30.11 178.62L33.02 190.08L43.59 193.06ZM115.66 128.26L112.76 116.78L102.16 113.78L94.46 122.27L97.37 133.74L107.96 136.73ZM97.37 133.74L94.46 122.27L83.87 119.27L76.18 127.76L79.09 139.23L89.68 142.22ZM60.81 144.72L57.91 133.25L47.32 130.26L39.64 138.74L42.55 150.21L53.13 153.19ZM42.55 150.21L39.64 138.74L29.05 135.76L21.38 144.24L24.29 155.70L34.87 158.69ZM65.59 124.77L62.68 113.30L52.09 110.31L44.41 118.80L47.32 130.26L57.91 133.25ZM47.32 130.26L44.41 118.80L33.82 115.81L26.14 124.30L29.05 135.76L39.64 138.74ZM74.30 159.17L71.40 147.70L60.81 144.72L53.13 153.19L56.04 164.66L66.62 167.65ZM56.04 164.66L53.13 153.19L42.55 150.21L34.87 158.69L37.78 170.15L48.36 173.13ZM79.09 139.23L76.18 127.76L65.59 124.77L57.91 133.25L60.81 144.72L71.40 147.70ZM86.93 247.86L84.03 236.40L73.46 233.41L65.79 241.87L68.69 253.32L79.26 256.32ZM109.98 222.48L107.08 211.02L96.50 208.02L88.81 216.48L91.71 227.94L102.29 230.94ZM91.71 227.94L88.81 216.48L78.23 213.49L70.56 221.95L73.46 233.41L84.03 236.40ZM55.21 238.88L52.31 227.43L41.74 224.44L34.07 232.90L36.98 244.35L47.55 247.34ZM36.98 244.35L34.07 232.90L23.50 229.92L15.84 238.38L18.75 249.83L29.31 252.81ZM59.98 218.96L57.08 207.51L46.50 204.52L38.83 212.99L41.74 224.44L52.31 227.43ZM41.74 224.44L38.83 212.99L28.26 210.00L20.59 218.47L23.50 229.92L34.07 232.90ZM68.69 253.32L65.79 241.87L55.21 238.88L47.55 247.34L50.45 258.79L61.02 261.78ZM50.45 258.79L47.55 247.34L36.98 244.35L29.31 252.81L32.22 264.26L42.78 267.25ZM73.46 233.41L70.56 221.95L59.98 218.96L52.31 227.43L55.21 238.88L65.79 241.87Z"/><path data-band="2" fill="#f97316" fill-opacity="0.35" d="M226.59 20.93L223.70 9.43L213.07 6.42L205.34 14.91L208.23 26.42L218.85 29.43ZM258.48 29.98L255.59 18.47L244.96 15.45L237.22 23.95L240.11 35.46L250.74 38.47ZM240.11 35.46L237.22 23.95L226.59 20.93L218.85 29.43L221.75 40.93L232.37 43.95ZM194.71 11.91L191.81 0.40L181.19 -2.60L173.46 5.90L176.36 17.40L186.98 20.40ZM176.36 17.40L173.46 5.90L162.84 2.89L155.12 11.39L158.02 22.89L168.64 25.89ZM199.55 -8.10L196.65 -19.61L186.02 -22.61L178.29 -14.11L181.19 -2.60L191.81 0.40ZM181.19 -2.60L178.29 -14.11L167.66 -17.11L159.94 -8.61L162.84 2.89L173.46 5.90ZM208.23 26.42L205.34 14.91L194.71 11.91L186.98 20.40L189.88 31.90L200.50 34.91ZM189.88 31.90L186.98 20.40L176.36 17.40L168.64 25.89L171.53 37.39L182.15 40.40ZM213.07 6.42L210.18 -5.09L199.55 -8.10L191.81 0.40L194.71 11.91L205.34 14.91ZM267.13 64.51L264.25 53.00L253.62 49.98L245.88 58.47L248.77 69.97L259.39 72.99ZM248.77 69.97L245.88 58.47L235.26 55.45L227.53 63.94L230.41 75.44L241.03 78.45ZM271.99 44.51L269.11 33.00L258.48 29.98L250.74 38.47L253.62 49.98L264.25 53.00ZM253.62 49.98L250.74 38.47L240.11 35.46L232.37 43.95L235.26 55.45L245.88 58.47ZM262.28 84.49L259.39 72.99L248.77 69.97L241.03 78.45L243.92 89.95L254.54 92.97ZM216.90 60.92L214.01 49.42L203.39 46.41L195.67 54.90L198.56 66.40L209.18 69.41ZM198.56 66.40L195.67 54.90L185.05 51.89L177.33 60.38L180.22 71.88L190.84 74.88ZM221.75 40.93L218.85 29.43L208.23 26.42L200.50 34.91L203.39 46.41L214.01 49.42ZM203.39 46.41L200.50 34.91L189.88 31.90L182.15 40.40L185.05 51.89L195.67 54.90ZM230.41 75.44L227.53 63.94L216.90 60.92L209.18 69.41L212.07 80.90L222.68 83.92ZM212.07 80.90L209.18 69.41L198.56 66.40L190.84 74.88L193.73 86.38L204.34 89.39ZM235.26 55.45L232.37 43.95L221.75 40.93L214.01 49.42L216.90 60.92L227.53 63.94ZM276.86 24.51L273.97 13.00L263.34 9.98L255.59 18.47L258.48 29.98L269.11 33.00ZM121.36 33.89L118.45 22.40L107.84 19.41L100.13 27.91L103.04 39.40L113.65 42.39ZM134.87 48.38L131.97 36.89L121.36 33.89L113.65 42.39L116.55 53.88L127.16 56.87ZM144.50 8.40L141.59 -3.10L130.97 -6.10L123.26 2.41L126.16 13.90L136.78 16.90ZM126.16 13.90L123.26 2.41L112.64 -0.59L104.93 7.92L107.84 19.41L118.45 22.40ZM158.02 22.89L155.12 11.39L144.50 8.40L136.78 16.90L139.68 28.39L150.30 31.39ZM139.68 28.39L136.78 16.90L126.16 13.90L118.45 22.40L121.36 33.89L131.97 36.89ZM162.84 2.89L159.94 -8.61L149.31 -11.61L141.59 -3.10L144.50 8.40L155.12 11.39ZM112.64 -0.59L109.73 -12.08L99.12 -15.07L91.41 -6.56L94.32 4.93L104.93 7.92ZM138.76 102.81L135.86 91.33L125.26 88.33L117.55 96.82L120.46 108.30L131.06 111.29ZM143.57 82.84L140.67 71.36L130.06 68.36L122.36 76.85L125.26 88.33L135.86 91.33ZM152.26 117.30L149.37 105.81L138.76 102.81L131.06 111.29L133.96 122.77L144.56 125.78ZM157.08 97.33L154.18 85.84L143.57 82.84L135.86 91.33L138.76 102.81L149.37 105.81ZM166.71 57.38L163.81 45.88L153.20 42.88L145.48 51.38L148.38 62.87L158.99 65.87ZM148.38 62.87L145.48 51.38L134.87 48.38L127.16 56.87L130.06 68.36L140.67 71.36ZM171.53 37.39L168.64 25.89L158.02 22.89L150.30 31.39L153.20 42.88L163.81 45.88ZM153.20 42.88L150.30 31.39L139.68 28.39L131.97 36.89L134.87 48.38L145.48 51.38ZM180.22 71.88L177.33 60.38L166.71 57.38L158.99 65.87L161.89 77.36L172.50 80.36ZM161.89 77.36L158.99 65.87L148.38 62.87L140.67 71.36L143.57 82.84L154.18 85.84ZM185.05 51.89L182.15 40.40L171.53 37.39L163.81 45.88L166.71 57.38L177.33 60.38ZM255.32 253.20L252.45 241.72L241.85 238.70L234.14 247.15L237.02 258.62L247.61 261.65ZM237.02 258.62L234.14 247.15L223.54 244.13L215.83 252.58L218.72 264.05L229.31 267.07ZM260.17 233.27L257.29 221.79L246.69 218.76L238.97 227.22L241.85 238.70L252.45 241.72ZM241.85 238.70L238.97 227.22L228.37 224.20L220.66 232.65L223.54 244.13L234.14 247.15ZM268.80 267.70L265.92 256.23L255.32 253.20L247.61 261.65L250.49 273.12L261.08 276.15ZM273.64 247.78L270.77 236.30L260.17 233.27L252.45 241.72L255.32 253.20L265.92 256.23ZM265.01 213.33L262.13 201.85L251.53 198.82L243.81 207.28L246.69 218.76L257.29 221.79ZM269.86 193.39L266.98 181.90L256.37 178.88L248.65 187.34L251.53 198.82L262.13 201.85ZM205.24 249.56L202.36 238.09L191.77 235.07L184.07 243.53L186.95 255.00L197.54 258.01ZM186.95 255.00L184.07 243.53L173.48 240.51L165.78 248.97L168.67 260.43L179.26 263.45ZM210.07 229.63L207.18 218.16L196.59 215.14L188.88 223.60L191.77 235.07L202.36 238.09ZM191.77 235.07L188.88 223.60L178.29 220.59L170.59 229.05L173.48 240.51L184.07 243.53ZM200.42 269.48L197.54 258.01L186.95 255.00L179.26 263.45L182.14 274.91L192.72 277.93ZM223.54 244.13L220.66 232.65L210.07 229.63L202.36 238.09L205.24 249.56L215.83 252.58ZM155.20 245.96L152.31 234.49L141.72 231.49L134.03 239.95L136.93 251.41L147.51 254.41ZM136.93 251.41L134.03 239.95L123.45 236.94L115.77 245.40L118.66 256.86L129.24 259.86ZM160.00 226.04L157.11 214.57L146.52 211.56L138.83 220.02L141.72 231.49L152.31 234.49ZM141.72 231.49L138.83 220.02L128.25 217.02L120.56 225.48L123.45 236.94L134.03 239.95ZM168.67 260.43L165.78 248.97L155.20 245.96L147.51 254.41L150.40 265.88L160.98 268.89ZM150.40 265.88L147.51 254.41L136.93 251.41L129.24 259.86L132.13 271.32L142.71 274.33ZM173.48 240.51L170.59 229.05L160.00 226.04L152.31 234.49L155.20 245.96L165.78 248.97ZM270.93 118.99L268.04 107.49L257.42 104.47L249.69 112.95L252.57 124.44L263.19 127.47ZM275.78 99.02L272.90 87.51L262.28 84.49L254.54 92.97L257.42 104.47L268.04 107.49ZM211.07 155.31L208.18 143.82L197.57 140.81L189.86 149.28L192.75 160.77L203.35 163.78ZM192.75 160.77L189.86 149.28L179.26 146.27L171.55 154.75L174.44 166.22L185.04 169.24ZM215.90 135.35L213.01 123.86L202.40 120.85L194.68 129.33L197.57 140.81L208.18 143.82ZM197.57 140.81L194.68 129.33L184.08 126.32L176.36 134.79L179.26 146.27L189.86 149.28ZM224.56 169.81L221.67 158.33L211.07 155.31L203.35 163.78L206.24 175.26L216.84 178.28ZM206.24 175.26L203.35 163.78L192.75 160.77L185.04 169.24L187.93 180.71L198.52 183.73ZM229.39 149.86L226.51 138.37L215.90 135.35L208.18 143.82L211.07 155.31L221.67 158.33ZM160.95 151.74L158.05 140.26L147.45 137.26L139.75 145.73L142.65 157.21L153.24 160.21ZM142.65 157.21L139.75 145.73L129.15 142.73L121.46 151.20L124.35 162.68L134.95 165.68ZM165.76 131.78L162.87 120.30L152.26 117.30L144.56 125.78L147.45 137.26L158.05 140.26ZM147.45 137.26L144.56 125.78L133.96 122.77L126.25 131.25L129.15 142.73L139.75 145.73ZM174.44 166.22L171.55 154.75L160.95 151.74L153.24 160.21L156.14 171.69L166.73 174.69ZM156.14 171.69L153.24 160.21L142.65 157.21L134.95 165.68L137.84 177.15L148.44 180.16ZM179.26 146.27L176.36 134.79L165.76 131.78L158.05 140.26L160.95 151.74L171.55 154.75ZM239.07 109.93L236.19 98.43L225.57 95.41L217.85 103.89L220.73 115.39L231.35 118.40ZM220.73 115.39L217.85 103.89L207.23 100.88L199.51 109.36L202.40 120.85L213.01 123.86ZM243.92 89.95L241.03 78.45L230.41 75.44L222.68 83.92L225.57 95.41L236.19 98.43ZM225.57 95.41L222.68 83.92L212.07 80.90L204.34 89.39L207.23 100.88L217.85 103.89ZM252.57 124.44L249.69 112.95L239.07 109.93L231.35 118.40L234.23 129.90L244.84 132.92ZM234.23 129.90L231.35 118.40L220.73 115.39L213.01 123.86L215.90 135.35L226.51 138.37ZM257.42 104.47L254.54 92.97L243.92 89.95L236.19 98.43L239.07 109.93L249.69 112.95ZM188.90 106.35L186.01 94.86L175.40 91.85L167.68 100.34L170.58 111.82L181.18 114.83ZM170.58 111.82L167.68 100.34L157.08 97.33L149.37 105.81L152.26 117.30L162.87 120.30ZM193.73 86.38L190.84 74.88L180.22 71.88L172.50 80.36L175.40 91.85L186.01 94.86ZM175.40 91.85L172.50 80.36L161.89 77.36L154.18 85.84L157.08 97.33L167.68 100.34ZM202.40 120.85L199.51 109.36L188.90 106.35L181.18 114.83L184.08 126.32L194.68 129.33ZM184.08 126.32L181.18 114.83L170.58 111.82L162.87 120.30L165.76 131.78L176.36 134.79ZM207.23 100.88L204.34 89.39L193.73 86.38L186.01 94.86L188.90 106.35L199.51 109.36ZM233.21 204.26L230.32 192.78L219.72 189.76L212.01 198.22L214.89 209.70L225.49 212.72ZM214.89 209.70L212.01 198.22L201.41 195.21L193.70 203.67L196.59 215.14L207.18 218.16ZM238.04 184.32L235.16 172.83L224.56 169.81L216.84 178.28L219.72 189.76L230.32 192.78ZM219.72 189.76L216.84 178.28L206.24 175.26L198.52 183.73L201.41 195.21L212.01 198.22ZM246.69 218.76L243.81 207.28L233.21 204.26L225.49 212.72L228.37 224.20L238.97 227.22ZM228.37 224.20L225.49 212.72L214.89 209.70L207.18 218.16L210.07 229.63L220.66 232.65ZM251.53 198.82L248.65 187.34L238.04 184.32L230.32 192.78L233.21 204.26L243.81 207.28ZM183.11 200.65L180.22 189.18L169.62 186.17L161.92 194.63L164.81 206.11L175.40 209.12ZM164.81 206.11L161.92 194.63L151.33 191.63L143.63 200.09L146.52 211.56L157.11 214.57ZM187.93 180.71L185.04 169.24L174.44 166.22L166.73 174.69L169.62 186.17L180.22 189.18ZM169.62 186.17L166.73 174.69L156.14 171.69L148.44 180.16L151.33 191.63L161.92 194.63ZM196.59 215.14L193.70 203.67L183.11 200.65L175.40 209.12L178.29 220.59L188.88 223.60ZM178.29 220.59L175.40 209.12L164.81 206.11L157.11 214.57L160.00 226.04L170.59 229.05ZM201.41 195.21L198.52 183.73L187.93 180.71L180.22 189.18L183.11 200.65L193.70 203.67ZM261.22 158.92L258.34 147.43L247.73 144.41L240.00 152.88L242.88 164.37L253.49 167.39ZM242.88 164.37L240.00 152.88L229.39 149.86L221.67 158.33L224.56 169.81L235.16 172.83ZM266.07 138.96L263.19 127.47L252.57 124.44L244.84 132.92L247.73 144.41L258.34 147.43ZM247.73 144.41L244.84 132.92L234.23 129.90L226.51 138.37L229.39 149.86L240.00 152.88ZM274.71 173.44L271.83 161.95L261.22 158.92L253.49 167.39L256.37 178.88L266.98 181.90ZM256.37 178.88L253.49 167.39L242.88 164.37L235.16 172.83L238.04 184.32L248.65 187.34ZM110.86 148.21L107.96 136.73L97.37 133.74L89.68 142.22L92.58 153.69L103.17 156.68ZM92.58 153.69L89.68 142.22L79.09 139.23L71.40 147.70L74.30 159.17L84.89 162.16ZM124.35 162.68L121.46 151.20L110.86 148.21L103.17 156.68L106.07 168.15L116.66 171.15ZM106.07 168.15L103.17 156.68L92.58 153.69L84.89 162.16L87.79 173.63L98.38 176.62ZM129.15 142.73L126.25 131.25L115.66 128.26L107.96 136.73L110.86 148.21L121.46 151.20ZM105.19 242.40L102.29 230.94L91.71 227.94L84.03 236.40L86.93 247.86L97.51 250.86ZM118.66 256.86L115.77 245.40L105.19 242.40L97.51 250.86L100.41 262.31L110.98 265.31ZM100.41 262.31L97.51 250.86L86.93 247.86L79.26 256.32L82.16 267.77L92.73 270.77ZM123.45 236.94L120.56 225.48L109.98 222.48L102.29 230.94L105.19 242.40L115.77 245.40ZM133.04 197.09L130.15 185.62L119.56 182.62L111.87 191.09L114.76 202.55L125.35 205.55ZM114.76 202.55L111.87 191.09L101.28 188.09L93.60 196.56L96.50 208.02L107.08 211.02ZM137.84 177.15L134.95 165.68L124.35 162.68L116.66 171.15L119.56 182.62L130.15 185.62ZM119.56 182.62L116.66 171.15L106.07 168.15L98.38 176.62L101.28 188.09L111.87 191.09ZM146.52 211.56L143.63 200.09L133.04 197.09L125.35 205.55L128.25 217.02L138.83 220.02ZM128.25 217.02L125.35 205.55L114.76 202.55L107.08 211.02L109.98 222.48L120.56 225.48ZM151.33 191.63L148.44 180.16L137.84 177.15L130.15 185.62L133.04 197.09L143.63 200.09Z"/><path data-band="3" fill="#dc2626" fill-opacity="0.35" d="M244.96 15.45L242.07 3.94L231.44 0.93L223.70 9.43L226.59 20.93L237.22 23.95ZM249.81 -4.55L246.92 -16.07L236.29 -19.08L228.55 -10.58L231.44 0.93L242.07 3.94ZM231.44 0.93L228.55 -10.58L217.91 -13.59L210.18 -5.09L213.07 6.42L223.70 9.43ZM263.34 9.98L260.45 -1.54L249.81 -4.55L242.07 3.94L244.96 15.45L255.59 18.47ZM218.72 264.05L215.83 252.58L205.24 249.56L197.54 258.01L200.42 269.48L211.01 272.50Z"/></svg>
