<svg xmlns="http://www.w3.org/2000/svg" width="256" height="256" viewBox="0 0 256 256"><path data-band="1" fill="#fde68a" fill-opacity="0.35" d="M227.61 246.65L224.78 235.33L214.34 232.27L206.75 240.53L209.59 251.85L220.02 254.91ZM71.21 200.95L68.35 189.64L57.93 186.61L50.37 194.88L53.23 206.19L63.65 209.22ZM53.23 206.19L50.37 194.88L39.95 191.86L32.40 200.14L35.26 211.44L45.68 214.47ZM75.92 181.36L73.06 170.05L62.63 167.01L55.07 175.30L57.93 186.61L68.35 189.64ZM57.93 186.61L55.07 175.30L44.65 172.27L37.09 180.55L39.95 191.86L50.37 194.88ZM84.49 215.29L81.63 203.98L71.21 200.95L63.65 209.22L66.51 220.53L76.93 223.56ZM66.51 220.53L63.65 209.22L53.23 206.19L45.68 214.47L48.54 225.77L58.95 228.80ZM89.20 195.70L86.34 184.39L75.92 181.36L68.35 189.64L71.21 200.95L81.63 203.98ZM21.99 197.11L19.12 185.81L8.70 182.79L1.16 191.07L4.02 202.37L14.44 205.39ZM4.02 202.37L1.16 191.07L-9.26 188.05L-16.80 196.33L-13.93 207.63L-3.52 210.65ZM26.67 177.53L23.81 166.22L13.39 163.20L5.84 171.48L8.70 182.79L19.12 185.81ZM8.70 182.79L5.84 171.48L-4.58 168.46L-12.13 176.75L-9.26 188.05L1.16 191.07ZM17.30 216.69L14.44 205.39L4.02 202.37L-3.52 210.65L-0.65 221.94L9.76 224.96ZM39.95 191.86L37.09 180.55L26.67 177.53L19.12 185.81L21.99 197.11L32.40 200.14ZM98.63 156.51L95.77 145.19L85.34 142.16L77.77 150.45L80.63 161.76L91.05 164.80ZM80.63 161.76L77.77 150.45L67.34 147.42L59.77 155.70L62.63 167.01L73.06 170.05ZM103.34 136.91L100.49 125.59L90.05 122.55L82.48 130.84L85.34 142.16L95.77 145.19ZM85.34 142.16L82.48 130.84L72.04 127.81L64.47 136.10L67.34 147.42L77.77 150.45ZM111.91 170.87L109.06 159.55L98.63 156.51L91.05 164.80L93.91 176.11L104.34 179.15ZM93.91 176.11L91.05 164.80L80.63 161.76L73.06 170.05L75.92 181.36L86.34 184.39ZM116.63 151.27L113.78 139.95L103.34 136.91L95.77 145.19L98.63 156.51L109.06 159.55ZM49.35 152.67L46.48 141.36L36.06 138.34L28.50 146.62L31.36 157.93L41.78 160.96ZM31.36 157.93L28.50 146.62L18.07 143.60L10.52 151.89L13.39 163.20L23.81 166.22ZM54.05 133.07L51.18 121.76L40.75 118.73L33.19 127.02L36.06 138.34L46.48 141.36ZM36.06 138.34L33.19 127.02L22.76 124.00L15.20 132.29L18.07 143.60L28.50 146.62ZM62.63 167.01L59.77 155.70L49.35 152.67L41.78 160.96L44.65 172.27L55.07 175.30ZM44.65 172.27L41.78 160.96L31.36 157.93L23.81 166.22L26.67 177.53L37.09 180.55ZM67.34 147.42L64.47 136.10L54.05 133.07L46.48 141.36L49.35 152.67L59.77 155.70ZM93.06 249.21L90.20 237.90L79.79 234.87L72.23 243.13L75.08 254.44L85.50 257.47ZM75.08 254.44L72.23 243.13L61.81 240.10L54.26 248.37L57.12 259.67L67.53 262.70ZM97.77 229.63L94.91 218.32L84.49 215.29L76.93 223.56L79.79 234.87L90.20 237.90ZM79.79 234.87L76.93 223.56L66.51 220.53L58.95 228.80L61.81 240.10L72.23 243.13ZM106.33 263.55L103.47 252.25L93.06 249.21L85.50 257.47L88.35 268.77L98.76 271.81ZM88.35 268.77L85.50 257.47L75.08 254.44L67.53 262.70L70.38 274.00L80.79 277.03ZM111.04 243.98L108.19 232.67L97.77 229.63L90.20 237.90L93.06 249.21L103.47 252.25ZM43.85 245.34L40.99 234.04L30.58 231.01L23.03 239.28L25.89 250.58L36.30 253.61ZM25.89 250.58L23.03 239.28L12.62 236.26L5.08 244.53L7.94 255.82L18.35 258.85ZM30.58 231.01L27.71 219.71L17.30 216.69L9.76 224.96L12.62 236.26L23.03 239.28ZM57.12 259.67L54.26 248.37L43.85 245.34L36.30 253.61L39.16 264.90L49.57 267.93ZM39.16 264.90L36.30 253.61L25.89 250.58L18.35 258.85L21.21 270.14L31.61 273.17ZM61.81 240.10L58.95 228.80L48.54 225.77L40.99 234.04L43.85 245.34L54.26 248.37ZM120.47 204.82L117.62 193.50L107.19 190.46L99.62 198.74L102.48 210.05L112.90 213.09ZM102.48 210.05L99.62 198.74L89.20 195.70L81.63 203.98L84.49 215.29L94.91 218.32ZM125.20 185.23L122.34 173.91L111.91 170.87L104.34 179.15L107.19 190.46L117.62 193.50ZM107.19 190.46L104.34 179.15L93.91 176.11L86.34 184.39L89.20 195.70L99.62 198.74ZM133.75 219.18L130.90 207.86L120.47 204.82L112.90 213.09L115.75 224.40L126.18 227.44ZM115.75 224.40L112.90 213.09L102.48 210.05L94.91 218.32L97.77 229.63L108.19 232.67ZM138.48 199.59L135.63 188.27L125.20 185.23L117.62 193.50L120.47 204.82L130.90 207.86ZM7.94 255.82L5.08 244.53L-5.33 241.51L-12.86 249.78L-10.00 261.07L0.40 264.09ZM12.62 236.26L9.76 224.96L-0.65 221.94L-8.19 230.22L-5.33 241.51L5.08 244.53ZM104.21 63.68L101.35 52.35L90.90 49.32L83.32 57.62L86.18 68.95L96.63 71.98ZM86.18 68.95L83.32 57.62L72.88 54.59L65.30 62.90L68.16 74.22L78.60 77.25ZM108.94 44.05L106.08 32.71L95.63 29.68L88.04 37.98L90.90 49.32L101.35 52.35ZM90.90 49.32L88.04 37.98L77.59 34.96L70.01 43.26L72.88 54.59L83.32 57.62ZM117.52 78.05L114.66 66.72L104.21 63.68L96.63 71.98L99.49 83.31L109.93 86.35ZM99.49 83.31L96.63 71.98L86.18 68.95L78.60 77.25L81.47 88.58L91.91 91.61ZM122.25 58.42L119.39 47.08L108.94 44.05L101.35 52.35L104.21 63.68L114.66 66.72ZM54.86 59.87L51.99 48.54L41.55 45.52L33.98 53.83L36.85 65.15L47.29 68.17ZM36.85 65.15L33.98 53.83L23.54 50.81L15.97 59.11L18.85 70.43L29.28 73.45ZM41.55 45.52L38.68 34.19L28.24 31.17L20.67 39.48L23.54 50.81L33.98 53.83ZM68.16 74.22L65.30 62.90L54.86 59.87L47.29 68.17L50.15 79.50L60.59 82.52ZM50.15 79.50L47.29 68.17L36.85 65.15L29.28 73.45L32.15 84.77L42.58 87.80ZM72.88 54.59L70.01 43.26L59.57 40.24L51.99 48.54L54.86 59.87L65.30 62.90ZM131.72 19.13L128.86 7.79L118.40 4.75L110.80 13.06L113.67 24.40L124.12 27.44ZM113.67 24.40L110.80 13.06L100.35 10.03L92.76 18.34L95.63 29.68L106.08 32.71ZM145.03 33.51L142.17 22.17L131.72 19.13L124.12 27.44L126.98 38.78L137.43 41.81ZM126.98 38.78L124.12 27.44L113.67 24.40L106.08 32.71L108.94 44.05L119.39 47.08ZM149.77 13.86L146.92 2.51L136.46 -0.52L128.86 7.79L131.72 19.13L142.17 22.17ZM95.63 29.68L92.76 18.34L82.31 15.31L74.73 23.62L77.59 34.96L88.04 37.98ZM126.09 112.04L123.23 100.71L112.79 97.68L105.21 105.97L108.06 117.30L118.50 120.33ZM108.06 117.30L105.21 105.97L94.77 102.94L87.19 111.23L90.05 122.55L100.49 125.59ZM130.82 92.42L127.96 81.09L117.52 78.05L109.93 86.35L112.79 97.68L123.23 100.71ZM112.79 97.68L109.93 86.35L99.49 83.31L91.91 91.61L94.77 102.94L105.21 105.97ZM139.38 126.41L136.53 115.08L126.09 112.04L118.50 120.33L121.36 131.66L131.80 134.70ZM121.36 131.66L118.50 120.33L108.06 117.30L100.49 125.59L103.34 136.91L113.78 139.95ZM144.12 106.79L141.26 95.46L130.82 92.42L123.23 100.71L126.09 112.04L136.53 115.08ZM76.75 108.20L73.89 96.87L63.45 93.85L55.88 102.14L58.75 113.46L69.18 116.49ZM58.75 113.46L55.88 102.14L45.45 99.12L37.88 107.41L40.75 118.73L51.18 121.76ZM81.47 88.58L78.60 77.25L68.16 74.22L60.59 82.52L63.45 93.85L73.89 96.87ZM63.45 93.85L60.59 82.52L50.15 79.50L42.58 87.80L45.45 99.12L55.88 102.14ZM90.05 122.55L87.19 111.23L76.75 108.20L69.18 116.49L72.04 127.81L82.48 130.84ZM72.04 127.81L69.18 116.49L58.75 113.46L51.18 121.76L54.05 133.07L64.47 136.10ZM94.77 102.94L91.91 91.61L81.47 88.58L73.89 96.87L76.75 108.20L87.19 111.23ZM153.60 67.53L150.74 56.19L140.29 53.15L132.70 61.45L135.55 72.79L146.00 75.83ZM135.55 72.79L132.70 61.45L122.25 58.42L114.66 66.72L117.52 78.05L127.96 81.09ZM158.34 47.89L155.49 36.55L145.03 33.51L137.43 41.81L140.29 53.15L150.74 56.19ZM140.29 53.15L137.43 41.81L126.98 38.78L119.39 47.08L122.25 58.42L132.70 61.45ZM166.90 81.92L164.05 70.58L153.60 67.53L146.00 75.83L148.86 87.17L159.30 90.21ZM148.86 87.17L146.00 75.83L135.55 72.79L127.96 81.09L130.82 92.42L141.26 95.46ZM171.65 62.28L168.80 50.94L158.34 47.89L150.74 56.19L153.60 67.53L164.05 70.58ZM10.23 36.47L7.36 25.14L-3.08 22.13L-10.64 30.44L-7.77 41.76L2.67 44.78ZM13.39 163.20L10.52 151.89L0.10 148.87L-7.45 157.16L-4.58 168.46L5.84 171.48ZM18.07 143.60L15.20 132.29L4.78 129.27L-2.77 137.57L0.10 148.87L10.52 151.89ZM27.45 104.39L24.59 93.07L14.15 90.05L6.60 98.35L9.47 109.67L19.89 112.69ZM9.47 109.67L6.60 98.35L-3.83 95.34L-11.39 103.64L-8.51 114.95L1.91 117.96ZM32.15 84.77L29.28 73.45L18.85 70.43L11.28 78.74L14.15 90.05L24.59 93.07ZM40.75 118.73L37.88 107.41L27.45 104.39L19.89 112.69L22.76 124.00L33.19 127.02ZM22.76 124.00L19.89 112.69L9.47 109.67L1.91 117.96L4.78 129.27L15.20 132.29ZM45.45 99.12L42.58 87.80L32.15 84.77L24.59 93.07L27.45 104.39L37.88 107.41ZM191.57 257.06L188.73 245.74L178.30 242.68L170.72 250.95L173.57 262.26L183.99 265.32ZM173.57 262.26L170.72 250.95L160.30 247.90L152.72 256.16L155.57 267.47L165.99 270.52ZM196.32 237.48L193.48 226.16L183.05 223.10L175.46 231.37L178.30 242.68L188.73 245.74ZM178.30 242.68L175.46 231.37L165.03 228.32L157.45 236.58L160.30 247.90L170.72 250.95ZM209.59 251.85L206.75 240.53L196.32 237.48L188.73 245.74L191.57 257.06L202.00 260.11ZM142.30 253.11L139.45 241.80L129.03 238.76L121.46 247.02L124.31 258.33L134.73 261.37ZM124.31 258.33L121.46 247.02L111.04 243.98L103.47 252.25L106.33 263.55L116.74 266.59ZM147.03 233.53L144.18 222.22L133.75 219.18L126.18 227.44L129.03 238.76L139.45 241.80ZM129.03 238.76L126.18 227.44L115.75 224.40L108.19 232.67L111.04 243.98L121.46 247.02ZM155.57 267.47L152.72 256.16L142.30 253.11L134.73 261.37L137.57 272.68L147.99 275.73ZM160.30 247.90L157.45 236.58L147.03 233.53L139.45 241.80L142.30 253.11L152.72 256.16ZM21.21 270.14L18.35 258.85L7.94 255.82L0.40 264.09L3.27 275.38L13.67 278.40ZM197.29 164.31L194.44 152.98L184.00 149.93L176.41 158.21L179.25 169.53L189.69 172.59ZM179.25 169.53L176.41 158.21L165.97 155.16L158.38 163.44L161.23 174.76L171.66 177.81ZM202.04 144.70L199.20 133.36L188.75 130.31L181.15 138.59L184.00 149.93L194.44 152.98ZM184.00 149.93L181.15 138.59L170.71 135.55L163.12 143.83L165.97 155.16L176.41 158.21ZM210.57 178.69L207.73 167.36L197.29 164.31L189.69 172.59L192.54 183.91L202.98 186.97ZM192.54 183.91L189.69 172.59L179.25 169.53L171.66 177.81L174.51 189.14L184.95 192.19ZM215.33 159.09L212.49 147.75L202.04 144.70L194.44 152.98L197.29 164.31L207.73 167.36ZM147.94 160.39L145.09 149.07L134.65 146.02L127.07 154.31L129.92 165.63L140.36 168.67ZM129.92 165.63L127.07 154.31L116.63 151.27L109.06 159.55L111.91 170.87L122.34 173.91ZM152.68 140.78L149.82 129.45L139.38 126.41L131.80 134.70L134.65 146.02L145.09 149.07ZM134.65 146.02L131.80 134.70L121.36 131.66L113.78 139.95L116.63 151.27L127.07 154.31ZM161.23 174.76L158.38 163.44L147.94 160.39L140.36 168.67L143.21 179.99L153.64 183.04ZM143.21 179.99L140.36 168.67L129.92 165.63L122.34 173.91L125.20 185.23L135.63 188.27ZM165.97 155.16L163.12 143.83L152.68 140.78L145.09 149.07L147.94 160.39L158.38 163.44ZM224.86 119.85L222.01 108.51L211.56 105.45L203.95 113.74L206.80 125.08L217.25 128.13ZM206.80 125.08L203.95 113.74L193.50 110.69L185.90 118.98L188.75 130.31L199.20 133.36ZM229.62 100.22L226.78 88.87L216.32 85.82L208.71 94.11L211.56 105.45L222.01 108.51ZM211.56 105.45L208.71 94.11L198.26 91.06L190.65 99.35L193.50 110.69L203.95 113.74ZM238.15 134.25L235.31 122.91L224.86 119.85L217.25 128.13L220.09 139.47L230.54 142.53ZM220.09 139.47L217.25 128.13L206.80 125.08L199.20 133.36L202.04 144.70L212.49 147.75ZM242.92 114.62L240.08 103.28L229.62 100.22L222.01 108.51L224.86 119.85L235.31 122.91ZM175.45 115.93L172.60 104.59L162.16 101.55L154.56 109.84L157.41 121.17L167.86 124.21ZM157.41 121.17L154.56 109.84L144.12 106.79L136.53 115.08L139.38 126.41L149.82 129.45ZM180.20 96.30L177.35 84.96L166.90 81.92L159.30 90.21L162.16 101.55L172.60 104.59ZM162.16 101.55L159.30 90.21L148.86 87.17L141.26 95.46L144.12 106.79L154.56 109.84ZM188.75 130.31L185.90 118.98L175.45 115.93L167.86 124.21L170.71 135.55L181.15 138.59ZM170.71 135.55L167.86 124.21L157.41 121.17L149.82 129.45L152.68 140.78L163.12 143.83ZM193.50 110.69L190.65 99.35L180.20 96.30L172.60 104.59L175.45 115.93L185.90 118.98ZM219.10 212.68L216.26 201.35L205.82 198.29L198.23 206.56L201.07 217.89L211.50 220.95ZM201.07 217.89L198.23 206.56L187.79 203.51L180.20 211.78L183.05 223.10L193.48 226.16ZM223.86 193.08L221.02 181.75L210.57 178.69L202.98 186.97L205.82 198.29L216.26 201.35ZM205.82 198.29L202.98 186.97L192.54 183.91L184.95 192.19L187.79 203.51L198.23 206.56ZM232.37 227.07L229.54 215.74L219.10 212.68L211.50 220.95L214.34 232.27L224.78 235.33ZM214.34 232.27L211.50 220.95L201.07 217.89L193.48 226.16L196.32 237.48L206.75 240.53ZM237.14 207.47L234.30 196.14L223.86 193.08L216.26 201.35L219.10 212.68L229.54 215.74ZM169.77 208.73L166.92 197.41L156.49 194.36L148.91 202.63L151.76 213.95L162.19 217.00ZM151.76 213.95L148.91 202.63L138.48 199.59L130.90 207.86L133.75 219.18L144.18 222.22ZM174.51 189.14L171.66 177.81L161.23 174.76L153.64 183.04L156.49 194.36L166.92 197.41ZM156.49 194.36L153.64 183.04L143.21 179.99L135.63 188.27L138.48 199.59L148.91 202.63ZM183.05 223.10L180.20 211.78L169.77 208.73L162.19 217.00L165.03 228.32L175.46 231.37ZM165.03 228.32L162.19 217.00L151.76 213.95L144.18 222.22L147.03 233.53L157.45 236.58ZM187.79 203.51L184.95 192.19L174.51 189.14L166.92 197.41L169.77 208.73L180.20 211.78ZM246.67 168.26L243.83 156.93L233.38 153.87L225.78 162.14L228.62 173.48L239.06 176.54ZM228.62 173.48L225.78 162.14L215.33 159.09L207.73 167.36L210.57 178.69L221.02 181.75ZM251.44 148.65L248.60 137.31L238.15 134.25L230.54 142.53L233.38 153.87L243.83 156.93ZM233.38 153.87L230.54 142.53L220.09 139.47L212.49 147.75L215.33 159.09L225.78 162.14ZM264.73 163.05L261.89 151.71L251.44 148.65L243.83 156.93L246.67 168.26L257.12 171.33ZM154.52 -5.80L151.66 -17.15L141.20 -20.19L133.60 -11.87L136.46 -0.52L146.92 2.51ZM212.54 32.13L209.70 20.78L199.23 17.73L191.62 26.03L194.47 37.38L204.93 40.43ZM225.86 46.53L223.01 35.18L212.54 32.13L204.93 40.43L207.78 51.78L218.24 54.83ZM181.16 22.99L178.30 11.64L167.84 8.59L160.23 16.90L163.09 28.25L173.55 31.29ZM163.09 28.25L160.23 16.90L149.77 13.86L142.17 22.17L145.03 33.51L155.49 36.55ZM185.91 3.33L183.06 -8.03L172.59 -11.07L164.98 -2.76L167.84 8.59L178.30 11.64ZM167.84 8.59L164.98 -2.76L154.52 -5.80L146.92 2.51L149.77 13.86L160.23 16.90ZM194.47 37.38L191.62 26.03L181.16 22.99L173.55 31.29L176.40 42.64L186.86 45.68ZM176.40 42.64L173.55 31.29L163.09 28.25L155.49 36.55L158.34 47.89L168.80 50.94ZM199.23 17.73L196.38 6.37L185.91 3.33L178.30 11.64L181.16 22.99L191.62 26.03ZM203.99 -1.93L201.14 -13.29L190.67 -16.34L183.06 -8.03L185.91 3.33L196.38 6.37ZM234.39 80.58L231.55 69.23L221.09 66.18L213.47 74.47L216.32 85.82L226.78 88.87ZM239.17 60.94L236.32 49.59L225.86 46.53L218.24 54.83L221.09 66.18L231.55 69.23ZM203.02 71.42L200.17 60.08L189.71 57.03L182.10 65.33L184.96 76.67L195.41 79.72ZM184.96 76.67L182.10 65.33L171.65 62.28L164.05 70.58L166.90 81.92L177.35 84.96ZM207.78 51.78L204.93 40.43L194.47 37.38L186.86 45.68L189.71 57.03L200.17 60.08ZM189.71 57.03L186.86 45.68L176.40 42.64L168.80 50.94L171.65 62.28L182.10 65.33ZM216.32 85.82L213.47 74.47L203.02 71.42L195.41 79.72L198.26 91.06L208.71 94.11ZM198.26 91.06L195.41 79.72L184.96 76.67L177.35 84.96L180.20 96.30L190.65 99.35ZM221.09 66.18L218.24 54.83L207.78 51.78L200.17 60.08L203.02 71.42L213.47 74.47Z"/><path data-band="2" fill="#f97316" fill-opacity="0.35" d="M272.18 270.24L269.35 258.91L258.92 255.85L251.32 264.10L254.15 275.42L264.58 278.49ZM240.88 261.04L238.05 249.71L227.61 246.65L220.02 254.91L222.86 266.23L233.29 269.29ZM222.86 266.23L220.02 254.91L209.59 251.85L202.00 260.11L204.84 271.43L215.27 274.49ZM245.65 241.45L242.81 230.13L232.37 227.07L224.78 235.33L227.61 246.65L238.05 249.71ZM258.92 255.85L256.08 244.52L245.65 241.45L238.05 249.71L240.88 261.04L251.32 264.10ZM268.46 216.67L265.63 205.33L255.18 202.27L247.58 210.53L250.41 221.86L260.85 224.93ZM250.41 221.86L247.58 210.53L237.14 207.47L229.54 215.74L232.37 227.07L242.81 230.13ZM273.24 197.07L270.40 185.73L259.95 182.66L252.35 190.93L255.18 202.27L265.63 205.33ZM255.18 202.27L252.35 190.93L241.90 187.87L234.30 196.14L237.14 207.47L247.58 210.53ZM263.69 236.26L260.85 224.93L250.41 221.86L242.81 230.13L245.65 241.45L256.08 244.52ZM274.29 123.81L271.45 112.46L260.99 109.40L253.38 117.68L256.22 129.03L266.67 132.09ZM256.22 129.03L253.38 117.68L242.92 114.62L235.31 122.91L238.15 134.25L248.60 137.31ZM260.99 109.40L258.15 98.05L247.69 94.99L240.08 103.28L242.92 114.62L253.38 117.68ZM269.51 143.43L266.67 132.09L256.22 129.03L248.60 137.31L251.44 148.65L261.89 151.71ZM35.26 211.44L32.40 200.14L21.99 197.11L14.44 205.39L17.30 216.69L27.71 219.71ZM48.54 225.77L45.68 214.47L35.26 211.44L27.71 219.71L30.58 231.01L40.99 234.04ZM59.57 40.24L56.70 28.91L46.25 25.88L38.68 34.19L41.55 45.52L51.99 48.54ZM136.46 -0.52L133.60 -11.87L123.13 -14.91L115.54 -6.59L118.40 4.75L128.86 7.79ZM118.40 4.75L115.54 -6.59L105.08 -9.62L97.49 -1.31L100.35 10.03L110.80 13.06ZM82.31 15.31L79.44 3.97L68.99 0.95L61.41 9.26L64.28 20.60L74.73 23.62ZM64.28 20.60L61.41 9.26L50.96 6.24L43.38 14.55L46.25 25.88L56.70 28.91ZM87.03 -4.34L84.17 -15.68L73.71 -18.71L66.12 -10.39L68.99 0.95L79.44 3.97ZM68.99 0.95L66.12 -10.39L55.67 -13.41L48.09 -5.10L50.96 6.24L61.41 9.26ZM77.59 34.96L74.73 23.62L64.28 20.60L56.70 28.91L59.57 40.24L70.01 43.26ZM100.35 10.03L97.49 -1.31L87.03 -4.34L79.44 3.97L82.31 15.31L92.76 18.34ZM5.54 56.10L2.67 44.78L-7.77 41.76L-15.33 50.07L-12.45 61.39L-2.02 64.40ZM18.85 70.43L15.97 59.11L5.54 56.10L-2.02 64.40L0.85 75.72L11.28 78.74ZM0.85 75.72L-2.02 64.40L-12.45 61.39L-20.01 69.69L-17.13 81.01L-6.70 84.02ZM23.54 50.81L20.67 39.48L10.23 36.47L2.67 44.78L5.54 56.10L15.97 59.11ZM0.10 148.87L-2.77 137.57L-13.19 134.55L-20.74 142.84L-17.87 154.14L-7.45 157.16ZM4.78 129.27L1.91 117.96L-8.51 114.95L-16.06 123.24L-13.19 134.55L-2.77 137.57ZM14.15 90.05L11.28 78.74L0.85 75.72L-6.70 84.02L-3.83 95.34L6.60 98.35ZM259.95 182.66L257.12 171.33L246.67 168.26L239.06 176.54L241.90 187.87L252.35 190.93ZM241.90 187.87L239.06 176.54L228.62 173.48L221.02 181.75L223.86 193.08L234.30 196.14ZM230.63 26.88L227.78 15.52L217.31 12.47L209.70 20.78L212.54 32.13L223.01 35.18ZM235.40 7.22L232.56 -4.14L222.08 -7.19L214.46 1.12L217.31 12.47L227.78 15.52ZM217.31 12.47L214.46 1.12L203.99 -1.93L196.38 6.37L199.23 17.73L209.70 20.78ZM243.94 41.29L241.10 29.93L230.63 26.88L223.01 35.18L225.86 46.53L236.32 49.59ZM248.72 21.63L245.88 10.27L235.40 7.22L227.78 15.52L230.63 26.88L241.10 29.93ZM271.61 -3.28L268.77 -14.64L258.29 -17.70L250.66 -9.39L253.50 1.97L263.98 5.03ZM253.50 1.97L250.66 -9.39L240.18 -12.45L232.56 -4.14L235.40 7.22L245.88 10.27ZM222.08 -7.19L219.24 -18.55L208.76 -21.60L201.14 -13.29L203.99 -1.93L214.46 1.12ZM252.47 75.35L249.63 64.00L239.17 60.94L231.55 69.23L234.39 80.58L244.85 83.64ZM257.25 55.70L254.41 44.35L243.94 41.29L236.32 49.59L239.17 60.94L249.63 64.00ZM265.77 89.76L262.93 78.41L252.47 75.35L244.85 83.64L247.69 94.99L258.15 98.05ZM247.69 94.99L244.85 83.64L234.39 80.58L226.78 88.87L229.62 100.22L240.08 103.28ZM270.56 70.12L267.72 58.76L257.25 55.70L249.63 64.00L252.47 75.35L262.93 78.41ZM262.03 36.05L259.19 24.69L248.72 21.63L241.10 29.93L243.94 41.29L254.41 44.35ZM266.82 16.39L263.98 5.03L253.50 1.97L245.88 10.27L248.72 21.63L259.19 24.69ZM275.35 50.47L272.50 39.11L262.03 36.05L254.41 44.35L257.25 55.70L267.72 58.76ZM32.94 11.53L30.07 0.20L19.62 -2.82L12.05 5.50L14.92 16.83L25.37 19.85ZM14.92 16.83L12.05 5.50L1.61 2.49L-5.96 10.80L-3.08 22.13L7.36 25.14ZM37.64 -8.12L34.77 -19.45L24.32 -22.47L16.75 -14.15L19.62 -2.82L30.07 0.20ZM19.62 -2.82L16.75 -14.15L6.30 -17.16L-1.27 -8.84L1.61 2.49L12.05 5.50ZM46.25 25.88L43.38 14.55L32.94 11.53L25.37 19.85L28.24 31.17L38.68 34.19ZM28.24 31.17L25.37 19.85L14.92 16.83L7.36 25.14L10.23 36.47L20.67 39.48ZM50.96 6.24L48.09 -5.10L37.64 -8.12L30.07 0.20L32.94 11.53L43.38 14.55ZM1.61 2.49L-1.27 -8.84L-11.71 -11.85L-19.28 -3.53L-16.40 7.79L-5.96 10.80Z"/></svg>
