<svg xmlns="http://www.w3.org/2000/svg" width="256" height="256" viewBox="0 0 256 256"><path data-band="1" fill="#fde68a" fill-opacity="0.35" d="M5.67 218.44L2.82 207.18L-7.56 204.15L-15.07 212.38L-12.21 223.64L-1.84 226.67ZM10.33 198.95L7.48 187.69L-2.90 184.66L-10.41 192.89L-7.56 204.15L2.82 207.18ZM18.90 232.73L16.04 221.47L5.67 218.44L-1.84 226.67L1.01 237.92L11.38 240.96ZM1.01 237.92L-1.84 226.67L-12.21 223.64L-19.72 231.87L-16.86 243.12L-6.50 246.15ZM23.56 213.25L20.71 201.98L10.33 198.95L2.82 207.18L5.67 218.44L16.04 221.47ZM32.90 174.25L30.05 162.98L19.67 159.95L12.14 168.19L15.00 179.45L25.38 182.49ZM15.00 179.45L12.14 168.19L1.76 165.16L-5.76 173.39L-2.90 184.66L7.48 187.69ZM37.58 154.75L34.72 143.47L24.34 140.44L16.81 148.68L19.67 159.95L30.05 162.98ZM19.67 159.95L16.81 148.68L6.43 145.65L-1.10 153.89L1.76 165.16L12.14 168.19ZM46.13 188.56L43.28 177.29L32.90 174.25L25.38 182.49L28.23 193.75L38.61 196.79ZM28.23 193.75L25.38 182.49L15.00 179.45L7.48 187.69L10.33 198.95L20.71 201.98ZM50.81 169.05L47.96 157.78L37.58 154.75L30.05 162.98L32.90 174.25L43.28 177.29ZM1.76 165.16L-1.10 153.89L-11.47 150.86L-18.99 159.10L-16.13 170.37L-5.76 173.39ZM27.45 266.50L24.60 255.25L14.23 252.21L6.72 260.43L9.57 271.68L19.94 274.72ZM32.12 247.03L29.27 235.77L18.90 232.73L11.38 240.96L14.23 252.21L24.60 255.25ZM14.23 252.21L11.38 240.96L1.01 237.92L-6.50 246.15L-3.64 257.40L6.72 260.43ZM45.33 261.32L42.49 250.07L32.12 247.03L24.60 255.25L27.45 266.50L37.82 269.54ZM54.68 222.36L51.83 211.09L41.46 208.05L33.93 216.28L36.79 227.54L47.16 230.58ZM36.79 227.54L33.93 216.28L23.56 213.25L16.04 221.47L18.90 232.73L29.27 235.77ZM59.36 202.87L56.51 191.60L46.13 188.56L38.61 196.79L41.46 208.05L51.83 211.09ZM41.46 208.05L38.61 196.79L28.23 193.75L20.71 201.98L23.56 213.25L33.93 216.28ZM67.91 236.67L65.06 225.40L54.68 222.36L47.16 230.58L50.01 241.84L60.38 244.89ZM50.01 241.84L47.16 230.58L36.79 227.54L29.27 235.77L32.12 247.03L42.49 250.07ZM72.59 217.18L69.74 205.91L59.36 202.87L51.83 211.09L54.68 222.36L65.06 225.40ZM93.06 -6.79L90.20 -18.10L79.79 -21.13L72.23 -12.87L75.08 -1.56L85.50 1.47ZM75.08 -1.56L72.23 -12.87L61.81 -15.90L54.26 -7.63L57.12 3.67L67.53 6.70ZM106.33 7.55L103.47 -3.75L93.06 -6.79L85.50 1.47L88.35 12.77L98.76 15.81ZM88.35 12.77L85.50 1.47L75.08 -1.56L67.53 6.70L70.38 18.00L80.79 21.03ZM25.89 -5.42L23.03 -16.72L12.62 -19.74L5.08 -11.47L7.94 -0.18L18.35 2.85ZM57.12 3.67L54.26 -7.63L43.85 -10.66L36.30 -2.39L39.16 8.90L49.57 11.93ZM39.16 8.90L36.30 -2.39L25.89 -5.42L18.35 2.85L21.21 14.14L31.61 17.17ZM7.94 -0.18L5.08 -11.47L-5.33 -14.49L-12.86 -6.22L-10.00 5.07L0.40 8.09ZM164.10 45.39L161.26 34.09L150.84 31.04L143.27 39.29L146.11 50.60L156.53 53.65ZM146.11 50.60L143.27 39.29L132.85 36.24L125.29 44.50L128.14 55.80L138.55 58.85ZM150.84 31.04L147.99 19.73L137.57 16.68L130.01 24.94L132.85 36.24L143.27 39.29ZM159.37 64.95L156.53 53.65L146.11 50.60L138.55 58.85L141.39 70.15L151.80 73.20ZM96.91 46.67L94.06 35.37L83.65 32.33L76.09 40.59L78.95 51.89L89.35 54.92ZM119.59 21.90L116.74 10.59L106.33 7.55L98.76 15.81L101.62 27.11L112.03 30.15ZM101.62 27.11L98.76 15.81L88.35 12.77L80.79 21.03L83.65 32.33L94.06 35.37ZM132.85 36.24L130.01 24.94L119.59 21.90L112.03 30.15L114.88 41.46L125.29 44.50ZM191.57 1.06L188.73 -10.26L178.30 -13.32L170.72 -5.05L173.57 6.26L183.99 9.32ZM173.57 6.26L170.72 -5.05L160.30 -8.10L152.72 0.16L155.57 11.47L165.99 14.52ZM209.59 -4.15L206.75 -15.47L196.32 -18.52L188.73 -10.26L191.57 1.06L202.00 4.11ZM142.30 -2.89L139.45 -14.20L129.03 -17.24L121.46 -8.98L124.31 2.33L134.73 5.37ZM124.31 2.33L121.46 -8.98L111.04 -12.02L103.47 -3.75L106.33 7.55L116.74 10.59ZM155.57 11.47L152.72 0.16L142.30 -2.89L134.73 5.37L137.57 16.68L147.99 19.73ZM137.57 16.68L134.73 5.37L124.31 2.33L116.74 10.59L119.59 21.90L130.01 24.94ZM160.30 -8.10L157.45 -19.42L147.03 -22.47L139.45 -14.20L142.30 -2.89L152.72 0.16ZM136.67 89.69L133.83 78.40L123.42 75.35L115.86 83.60L118.71 94.89L129.11 97.94ZM118.71 94.89L115.86 83.60L105.46 80.55L97.90 88.80L100.75 100.09L111.15 103.14ZM141.39 70.15L138.55 58.85L128.14 55.80L120.57 64.05L123.42 75.35L133.83 78.40ZM123.42 75.35L120.57 64.05L110.17 61.01L102.61 69.26L105.46 80.55L115.86 83.60ZM131.96 109.23L129.11 97.94L118.71 94.89L111.15 103.14L114.00 114.43L124.40 117.47ZM38.37 81.87L35.51 70.58L25.11 67.55L17.58 75.80L20.44 87.09L30.83 90.12ZM20.44 87.09L17.58 75.80L7.18 72.78L-0.35 81.03L2.52 92.31L12.90 95.34ZM43.05 62.33L40.19 51.04L29.79 48.01L22.25 56.27L25.11 67.55L35.51 70.58ZM25.11 67.55L22.25 56.27L11.86 53.24L4.32 61.50L7.18 72.78L17.58 75.80ZM51.62 96.18L48.76 84.90L38.37 81.87L30.83 90.12L33.69 101.40L44.08 104.43ZM33.69 101.40L30.83 90.12L20.44 87.09L12.90 95.34L15.76 106.61L26.15 109.64ZM56.30 76.65L53.45 65.36L43.05 62.33L35.51 70.58L38.37 81.87L48.76 84.90ZM2.52 92.31L-0.35 81.03L-10.74 78.01L-18.26 86.26L-15.40 97.54L-5.01 100.56ZM7.18 72.78L4.32 61.50L-6.07 58.47L-13.60 66.73L-10.74 78.01L-0.35 81.03ZM65.69 37.56L62.83 26.26L52.42 23.23L44.88 31.49L47.74 42.78L58.14 45.81ZM47.74 42.78L44.88 31.49L34.47 28.46L26.93 36.72L29.79 48.01L40.19 51.04ZM70.38 18.00L67.53 6.70L57.12 3.67L49.57 11.93L52.42 23.23L62.83 26.26ZM52.42 23.23L49.57 11.93L39.16 8.90L31.61 17.17L34.47 28.46L44.88 31.49ZM78.95 51.89L76.09 40.59L65.69 37.56L58.14 45.81L60.99 57.10L71.40 60.14ZM60.99 57.10L58.14 45.81L47.74 42.78L40.19 51.04L43.05 62.33L53.45 65.36ZM83.65 32.33L80.79 21.03L70.38 18.00L62.83 26.26L65.69 37.56L76.09 40.59ZM16.53 33.69L13.67 22.40L3.27 19.38L-4.27 27.64L-1.40 38.93L8.99 41.95ZM21.21 14.14L18.35 2.85L7.94 -0.18L0.40 8.09L3.27 19.38L13.67 22.40ZM3.27 19.38L0.40 8.09L-10.00 5.07L-17.53 13.34L-14.66 24.62L-4.27 27.64ZM29.79 48.01L26.93 36.72L16.53 33.69L8.99 41.95L11.86 53.24L22.25 56.27ZM11.86 53.24L8.99 41.95L-1.40 38.93L-8.93 47.19L-6.07 58.47L4.32 61.50ZM34.47 28.46L31.61 17.17L21.21 14.14L13.67 22.40L16.53 33.69L26.93 36.72ZM60.18 130.03L57.33 118.75L46.93 115.71L39.40 123.95L42.25 135.23L52.64 138.27ZM42.25 135.23L39.40 123.95L29.01 120.92L21.48 129.17L24.34 140.44L34.72 143.47ZM46.93 115.71L44.08 104.43L33.69 101.40L26.15 109.64L29.01 120.92L39.40 123.95ZM73.42 144.34L70.57 133.06L60.18 130.03L52.64 138.27L55.49 149.54L65.88 152.58ZM55.49 149.54L52.64 138.27L42.25 135.23L34.72 143.47L37.58 154.75L47.96 157.78ZM11.09 126.14L8.24 114.86L-2.15 111.83L-9.67 120.08L-6.81 131.35L3.57 134.38ZM15.76 106.61L12.90 95.34L2.52 92.31L-5.01 100.56L-2.15 111.83L8.24 114.86ZM24.34 140.44L21.48 129.17L11.09 126.14L3.57 134.38L6.43 145.65L16.81 148.68ZM6.43 145.65L3.57 134.38L-6.81 131.35L-14.33 139.60L-11.47 150.86L-1.10 153.89ZM29.01 120.92L26.15 109.64L15.76 106.61L8.24 114.86L11.09 126.14L21.48 129.17ZM87.50 85.76L84.65 74.47L74.25 71.43L66.70 79.68L69.56 90.97L79.95 94.01ZM69.56 90.97L66.70 79.68L56.30 76.65L48.76 84.90L51.62 96.18L62.01 99.22ZM92.20 66.22L89.35 54.92L78.95 51.89L71.40 60.14L74.25 71.43L84.65 74.47ZM74.25 71.43L71.40 60.14L60.99 57.10L53.45 65.36L56.30 76.65L66.70 79.68ZM100.75 100.09L97.90 88.80L87.50 85.76L79.95 94.01L82.81 105.30L93.20 108.34ZM105.46 80.55L102.61 69.26L92.20 66.22L84.65 74.47L87.50 85.76L97.90 88.80ZM63.23 256.15L60.38 244.89L50.01 241.84L42.49 250.07L45.33 261.32L55.70 264.37ZM64.05 183.37L61.20 172.09L50.81 169.05L43.28 177.29L46.13 188.56L56.51 191.60ZM68.73 163.86L65.88 152.58L55.49 149.54L47.96 157.78L50.81 169.05L61.20 172.09ZM114.00 114.43L111.15 103.14L100.75 100.09L93.20 108.34L96.05 119.62L106.45 122.67ZM127.25 128.76L124.40 117.47L114.00 114.43L106.45 122.67L109.30 133.95L119.69 137.00Z"/><path data-band="2" fill="#f97316" fill-opacity="0.35" d="M272.18 14.24L269.35 2.91L258.92 -0.15L251.32 8.10L254.15 19.42L264.58 22.49ZM240.88 5.04L238.05 -6.29L227.61 -9.35L220.02 -1.09L222.86 10.23L233.29 13.29ZM222.86 10.23L220.02 -1.09L209.59 -4.15L202.00 4.11L204.84 15.43L215.27 18.49ZM254.15 19.42L251.32 8.10L240.88 5.04L233.29 13.29L236.12 24.61L246.55 27.68ZM236.12 24.61L233.29 13.29L222.86 10.23L215.27 18.49L218.11 29.80L228.53 32.87ZM258.92 -0.15L256.08 -11.48L245.65 -14.55L238.05 -6.29L240.88 5.04L251.32 8.10ZM262.65 53.38L259.82 42.07L249.39 39.00L241.79 47.25L244.63 58.56L255.05 61.63ZM244.63 58.56L241.79 47.25L231.37 44.18L223.78 52.43L226.61 63.74L237.04 66.81ZM267.41 33.82L264.58 22.49L254.15 19.42L246.55 27.68L249.39 39.00L259.82 42.07ZM249.39 39.00L246.55 27.68L236.12 24.61L228.53 32.87L231.37 44.18L241.79 47.25ZM275.90 67.77L273.08 56.46L262.65 53.38L255.05 61.63L257.88 72.95L268.31 76.02ZM257.88 72.95L255.05 61.63L244.63 58.56L237.04 66.81L239.87 78.12L250.29 81.19ZM168.83 25.83L165.99 14.52L155.57 11.47L147.99 19.73L150.84 31.04L161.26 34.09ZM177.36 59.75L174.52 48.45L164.10 45.39L156.53 53.65L159.37 64.95L169.78 68.00ZM182.09 40.19L179.25 28.88L168.83 25.83L161.26 34.09L164.10 45.39L174.52 48.45ZM114.88 41.46L112.03 30.15L101.62 27.11L94.06 35.37L96.91 46.67L107.32 49.71ZM128.14 55.80L125.29 44.50L114.88 41.46L107.32 49.71L110.17 61.01L120.57 64.05ZM110.17 61.01L107.32 49.71L96.91 46.67L89.35 54.92L92.20 66.22L102.61 69.26ZM204.84 15.43L202.00 4.11L191.57 1.06L183.99 9.32L186.83 20.63L197.26 23.69ZM186.83 20.63L183.99 9.32L173.57 6.26L165.99 14.52L168.83 25.83L179.25 28.88ZM185.88 93.66L183.04 82.36L172.63 79.31L165.06 87.55L167.90 98.85L178.31 101.91ZM167.90 98.85L165.06 87.55L154.65 84.50L147.08 92.74L149.92 104.04L160.33 107.09ZM190.61 74.12L187.78 62.81L177.36 59.75L169.78 68.00L172.63 79.31L183.04 82.36ZM172.63 79.31L169.78 68.00L159.37 64.95L151.80 73.20L154.65 84.50L165.06 87.55ZM199.13 108.02L196.29 96.72L185.88 93.66L178.31 101.91L181.14 113.21L191.55 116.26ZM181.14 113.21L178.31 101.91L167.90 98.85L160.33 107.09L163.17 118.39L173.58 121.44ZM203.87 88.48L201.03 77.17L190.61 74.12L183.04 82.36L185.88 93.66L196.29 96.72ZM149.92 104.04L147.08 92.74L136.67 89.69L129.11 97.94L131.96 109.23L142.36 112.28ZM154.65 84.50L151.80 73.20L141.39 70.15L133.83 78.40L136.67 89.69L147.08 92.74ZM213.36 49.37L210.52 38.06L200.10 35.00L192.51 43.25L195.35 54.56L205.77 57.62ZM195.35 54.56L192.51 43.25L182.09 40.19L174.52 48.45L177.36 59.75L187.78 62.81ZM218.11 29.80L215.27 18.49L204.84 15.43L197.26 23.69L200.10 35.00L210.52 38.06ZM200.10 35.00L197.26 23.69L186.83 20.63L179.25 28.88L182.09 40.19L192.51 43.25ZM226.61 63.74L223.78 52.43L213.36 49.37L205.77 57.62L208.61 68.93L219.03 71.99ZM208.61 68.93L205.77 57.62L195.35 54.56L187.78 62.81L190.61 74.12L201.03 77.17ZM231.37 44.18L228.53 32.87L218.11 29.80L210.52 38.06L213.36 49.37L223.78 52.43ZM64.87 110.50L62.01 99.22L51.62 96.18L44.08 104.43L46.93 115.71L57.33 118.75ZM78.11 124.82L75.26 113.54L64.87 110.50L57.33 118.75L60.18 130.03L70.57 133.06ZM82.81 105.30L79.95 94.01L69.56 90.97L62.01 99.22L64.87 110.50L75.26 113.54ZM228.36 263.04L225.54 251.76L215.15 248.69L207.58 256.90L210.41 268.18L220.80 271.25ZM210.41 268.18L207.58 256.90L197.19 253.83L189.64 262.04L192.47 273.32L202.85 276.39ZM179.25 258.98L176.42 247.70L166.03 244.64L158.48 252.86L161.32 264.13L171.70 267.19ZM161.32 264.13L158.48 252.86L148.10 249.80L140.55 258.01L143.39 269.28L153.77 272.34ZM251.07 238.41L248.25 227.12L237.85 224.04L230.28 232.26L233.10 243.54L243.50 246.62ZM233.10 243.54L230.28 232.26L219.88 229.19L212.32 237.40L215.15 248.69L225.54 251.76ZM255.82 218.90L253.00 207.61L242.59 204.53L235.02 212.75L237.85 224.04L248.25 227.12ZM237.85 224.04L235.02 212.75L224.62 209.68L217.05 217.90L219.88 229.19L230.28 232.26ZM264.29 252.77L261.47 241.48L251.07 238.41L243.50 246.62L246.32 257.90L256.72 260.98ZM246.32 257.90L243.50 246.62L233.10 243.54L225.54 251.76L228.36 263.04L238.76 266.11ZM269.05 233.27L266.22 221.98L255.82 218.90L248.25 227.12L251.07 238.41L261.47 241.48ZM201.92 234.34L199.09 223.05L188.70 219.99L181.14 228.21L183.97 239.49L194.36 242.55ZM183.97 239.49L181.14 228.21L170.75 225.15L163.20 233.37L166.03 244.64L176.42 247.70ZM206.66 214.83L203.82 203.55L193.43 200.48L185.87 208.71L188.70 219.99L199.09 223.05ZM188.70 219.99L185.87 208.71L175.47 205.64L167.92 213.87L170.75 225.15L181.14 228.21ZM215.15 248.69L212.32 237.40L201.92 234.34L194.36 242.55L197.19 253.83L207.58 256.90ZM197.19 253.83L194.36 242.55L183.97 239.49L176.42 247.70L179.25 258.98L189.64 262.04ZM219.88 229.19L217.05 217.90L206.66 214.83L199.09 223.05L201.92 234.34L212.32 237.40ZM130.17 254.96L127.33 243.69L116.95 240.64L109.41 248.85L112.26 260.12L122.63 263.17ZM112.26 260.12L109.41 248.85L99.04 245.80L91.50 254.02L94.35 265.29L104.72 268.34ZM143.39 269.28L140.55 258.01L130.17 254.96L122.63 263.17L125.47 274.44L135.85 277.50ZM81.13 250.97L78.28 239.71L67.91 236.67L60.38 244.89L63.23 256.15L73.60 259.19ZM94.35 265.29L91.50 254.02L81.13 250.97L73.60 259.19L76.44 270.45L86.82 273.50ZM256.85 145.96L254.02 134.66L243.61 131.59L236.03 139.82L238.86 151.12L249.27 154.19ZM238.86 151.12L236.03 139.82L225.62 136.75L218.04 144.99L220.87 156.29L231.28 159.35ZM261.61 126.43L258.78 115.12L248.36 112.05L240.78 120.29L243.61 131.59L254.02 134.66ZM243.61 131.59L240.78 120.29L230.36 117.22L222.78 125.45L225.62 136.75L236.03 139.82ZM270.09 160.34L267.26 149.04L256.85 145.96L249.27 154.19L252.10 165.49L262.50 168.57ZM252.10 165.49L249.27 154.19L238.86 151.12L231.28 159.35L234.11 170.65L244.52 173.72ZM274.85 140.81L272.03 129.50L261.61 126.43L254.02 134.66L256.85 145.96L267.26 149.04ZM207.63 141.92L204.80 130.62L194.39 127.56L186.82 135.80L189.66 147.09L200.06 150.16ZM189.66 147.09L186.82 135.80L176.41 132.74L168.85 140.98L171.69 152.27L182.09 155.33ZM194.39 127.56L191.55 116.26L181.14 113.21L173.58 121.44L176.41 132.74L186.82 135.80ZM220.87 156.29L218.04 144.99L207.63 141.92L200.06 150.16L202.89 161.45L213.30 164.51ZM202.89 161.45L200.06 150.16L189.66 147.09L182.09 155.33L184.93 166.62L195.33 169.68ZM266.37 106.88L263.54 95.57L253.12 92.50L245.53 100.74L248.36 112.05L258.78 115.12ZM271.14 87.33L268.31 76.02L257.88 72.95L250.29 81.19L253.12 92.50L263.54 95.57ZM235.12 97.67L232.28 86.36L221.86 83.30L214.28 91.54L217.12 102.85L227.53 105.91ZM217.12 102.85L214.28 91.54L203.87 88.48L196.29 96.72L199.13 108.02L209.54 111.09ZM239.87 78.12L237.04 66.81L226.61 63.74L219.03 71.99L221.86 83.30L232.28 86.36ZM221.86 83.30L219.03 71.99L208.61 68.93L201.03 77.17L203.87 88.48L214.28 91.54ZM248.36 112.05L245.53 100.74L235.12 97.67L227.53 105.91L230.36 117.22L240.78 120.29ZM230.36 117.22L227.53 105.91L217.12 102.85L209.54 111.09L212.37 122.39L222.78 125.45ZM253.12 92.50L250.29 81.19L239.87 78.12L232.28 86.36L235.12 97.67L245.53 100.74ZM260.57 199.39L257.75 188.09L247.34 185.02L239.77 193.24L242.59 204.53L253.00 207.61ZM265.33 179.87L262.50 168.57L252.10 165.49L244.52 173.72L247.34 185.02L257.75 188.09ZM273.80 213.76L270.98 202.46L260.57 199.39L253.00 207.61L255.82 218.90L266.22 221.98ZM229.36 190.17L226.53 178.88L216.13 175.81L208.56 184.03L211.39 195.33L221.79 198.39ZM211.39 195.33L208.56 184.03L198.16 180.97L190.59 189.20L193.43 200.48L203.82 203.55ZM216.13 175.81L213.30 164.51L202.89 161.45L195.33 169.68L198.16 180.97L208.56 184.03ZM242.59 204.53L239.77 193.24L229.36 190.17L221.79 198.39L224.62 209.68L235.02 212.75ZM224.62 209.68L221.79 198.39L211.39 195.33L203.82 203.55L206.66 214.83L217.05 217.90ZM247.34 185.02L244.52 173.72L234.11 170.65L226.53 178.88L229.36 190.17L239.77 193.24ZM131.06 182.14L128.22 170.85L117.83 167.80L110.28 176.04L113.13 187.31L123.52 190.36ZM113.13 187.31L110.28 176.04L99.89 172.99L92.35 181.22L95.20 192.50L105.58 195.54ZM135.77 162.62L132.93 151.34L122.54 148.29L114.99 156.52L117.83 167.80L128.22 170.85ZM117.83 167.80L114.99 156.52L104.59 153.47L97.05 161.71L99.89 172.99L110.28 176.04ZM144.30 196.47L141.46 185.19L131.06 182.14L123.52 190.36L126.36 201.64L136.75 204.70ZM126.36 201.64L123.52 190.36L113.13 187.31L105.58 195.54L108.43 206.82L118.81 209.87ZM149.01 176.96L146.17 165.68L135.77 162.62L128.22 170.85L131.06 182.14L141.46 185.19ZM81.97 178.18L79.12 166.90L68.73 163.86L61.20 172.09L64.05 183.37L74.43 186.41ZM86.66 158.67L83.81 147.39L73.42 144.34L65.88 152.58L68.73 163.86L79.12 166.90ZM95.20 192.50L92.35 181.22L81.97 178.18L74.43 186.41L77.28 197.68L87.66 200.72ZM77.28 197.68L74.43 186.41L64.05 183.37L56.51 191.60L59.36 202.87L69.74 205.91ZM99.89 172.99L97.05 161.71L86.66 158.67L79.12 166.90L81.97 178.18L92.35 181.22ZM158.45 137.92L155.61 126.63L145.20 123.57L137.65 131.81L140.49 143.10L150.89 146.15ZM140.49 143.10L137.65 131.81L127.25 128.76L119.69 137.00L122.54 148.29L132.93 151.34ZM163.17 118.39L160.33 107.09L149.92 104.04L142.36 112.28L145.20 123.57L155.61 126.63ZM145.20 123.57L142.36 112.28L131.96 109.23L124.40 117.47L127.25 128.76L137.65 131.81ZM171.69 152.27L168.85 140.98L158.45 137.92L150.89 146.15L153.73 157.44L164.13 160.50ZM153.73 157.44L150.89 146.15L140.49 143.10L132.93 151.34L135.77 162.62L146.17 165.68ZM176.41 132.74L173.58 121.44L163.17 118.39L155.61 126.63L158.45 137.92L168.85 140.98ZM109.30 133.95L106.45 122.67L96.05 119.62L88.51 127.86L91.35 139.15L101.75 142.19ZM91.35 139.15L88.51 127.86L78.11 124.82L70.57 133.06L73.42 144.34L83.81 147.39ZM96.05 119.62L93.20 108.34L82.81 105.30L75.26 113.54L78.11 124.82L88.51 127.86ZM122.54 148.29L119.69 137.00L109.30 133.95L101.75 142.19L104.59 153.47L114.99 156.52ZM104.59 153.47L101.75 142.19L91.35 139.15L83.81 147.39L86.66 158.67L97.05 161.71ZM152.81 230.31L149.97 219.03L139.59 215.97L132.04 224.20L134.88 235.47L145.26 238.53ZM134.88 235.47L132.04 224.20L121.65 221.14L114.11 229.36L116.95 240.64L127.33 243.69ZM157.53 210.81L154.69 199.53L144.30 196.47L136.75 204.70L139.59 215.97L149.97 219.03ZM139.59 215.97L136.75 204.70L126.36 201.64L118.81 209.87L121.65 221.14L132.04 224.20ZM166.03 244.64L163.20 233.37L152.81 230.31L145.26 238.53L148.10 249.80L158.48 252.86ZM148.10 249.80L145.26 238.53L134.88 235.47L127.33 243.69L130.17 254.96L140.55 258.01ZM170.75 225.15L167.92 213.87L157.53 210.81L149.97 219.03L152.81 230.31L163.20 233.37ZM103.73 226.31L100.89 215.04L90.50 212.00L82.97 220.22L85.81 231.49L96.19 234.54ZM85.81 231.49L82.97 220.22L72.59 217.18L65.06 225.40L67.91 236.67L78.28 239.71ZM108.43 206.82L105.58 195.54L95.20 192.50L87.66 200.72L90.50 212.00L100.89 215.04ZM90.50 212.00L87.66 200.72L77.28 197.68L69.74 205.91L72.59 217.18L82.97 220.22ZM116.95 240.64L114.11 229.36L103.73 226.31L96.19 234.54L99.04 245.80L109.41 248.85ZM99.04 245.80L96.19 234.54L85.81 231.49L78.28 239.71L81.13 250.97L91.50 254.02ZM121.65 221.14L118.81 209.87L108.43 206.82L100.89 215.04L103.73 226.31L114.11 229.36ZM180.20 186.13L177.36 174.85L166.96 171.79L159.41 180.02L162.24 191.30L172.64 194.36ZM162.24 191.30L159.41 180.02L149.01 176.96L141.46 185.19L144.30 196.47L154.69 199.53ZM184.93 166.62L182.09 155.33L171.69 152.27L164.13 160.50L166.96 171.79L177.36 174.85ZM166.96 171.79L164.13 160.50L153.73 157.44L146.17 165.68L149.01 176.96L159.41 180.02ZM193.43 200.48L190.59 189.20L180.20 186.13L172.64 194.36L175.47 205.64L185.87 208.71ZM175.47 205.64L172.64 194.36L162.24 191.30L154.69 199.53L157.53 210.81L167.92 213.87ZM198.16 180.97L195.33 169.68L184.93 166.62L177.36 174.85L180.20 186.13L190.59 189.20Z"/><path data-band="3" fill="#dc2626" fill-opacity="0.35" d="M212.37 122.39L209.54 111.09L199.13 108.02L191.55 116.26L194.39 127.56L204.80 130.62ZM225.62 136.75L222.78 125.45L212.37 122.39L204.80 130.62L207.63 141.92L218.04 144.99ZM234.11 170.65L231.28 159.35L220.87 156.29L213.30 164.51L216.13 175.81L226.53 178.88Z"/></svg>
