<svg xmlns="http://www.w3.org/2000/svg" width="256" height="256" viewBox="0 0 256 256"><path data-band="1" fill="#fde68a" fill-opacity="0.35" d="M0.26 54.61L-2.59 43.36L-12.94 40.33L-20.45 48.54L-17.59 59.79L-7.24 62.82ZM4.92 35.15L2.06 23.90L-8.30 20.87L-15.80 29.09L-12.94 40.33L-2.59 43.36ZM13.47 68.89L10.62 57.64L0.26 54.61L-7.24 62.82L-4.39 74.06L5.97 77.09ZM18.13 49.43L15.28 38.19L4.92 35.15L-2.59 43.36L0.26 54.61L10.62 57.64ZM8.06 160.91L5.21 149.68L-5.13 146.64L-12.62 154.83L-9.77 166.06L0.57 169.10ZM12.71 141.48L9.86 130.25L-0.48 127.21L-7.98 135.41L-5.13 146.64L5.21 149.68ZM22.01 102.62L19.17 91.37L8.82 88.34L1.32 96.54L4.16 107.78L14.51 110.81ZM4.16 107.78L1.32 96.54L-9.03 93.50L-16.53 101.71L-13.68 112.94L-3.33 115.98ZM26.67 83.17L23.82 71.93L13.47 68.89L5.97 77.09L8.82 88.34L19.17 91.37ZM8.82 88.34L5.97 77.09L-4.39 74.06L-11.89 82.27L-9.03 93.50L1.32 96.54ZM35.21 116.90L32.37 105.66L22.01 102.62L14.51 110.81L17.36 122.05L27.71 125.09ZM17.36 122.05L14.51 110.81L4.16 107.78L-3.33 115.98L-0.48 127.21L9.86 130.25ZM39.87 97.46L37.03 86.21L26.67 83.17L19.17 91.37L22.01 102.62L32.37 105.66ZM27.45 10.50L24.60 -0.75L14.23 -3.79L6.72 4.43L9.57 15.68L19.94 18.72ZM9.57 15.68L6.72 4.43L-3.64 1.40L-11.15 9.62L-8.30 20.87L2.06 23.90ZM14.23 -3.79L11.38 -15.04L1.01 -18.08L-6.50 -9.85L-3.64 1.40L6.72 4.43ZM40.66 24.80L37.82 13.54L27.45 10.50L19.94 18.72L22.79 29.97L33.15 33.01ZM22.79 29.97L19.94 18.72L9.57 15.68L2.06 23.90L4.92 35.15L15.28 38.19ZM45.33 5.32L42.49 -5.93L32.12 -8.97L24.60 -0.75L27.45 10.50L37.82 13.54ZM3.41 180.32L0.57 169.10L-9.77 166.06L-17.26 174.25L-14.41 185.47L-4.08 188.51ZM30.55 136.33L27.71 125.09L17.36 122.05L9.86 130.25L12.71 141.48L23.05 144.52ZM31.33 63.72L28.49 52.47L18.13 49.43L10.62 57.64L13.47 68.89L23.82 71.93ZM36.00 44.26L33.15 33.01L22.79 29.97L15.28 38.19L18.13 49.43L28.49 52.47ZM44.54 78.01L41.69 66.76L31.33 63.72L23.82 71.93L26.67 83.17L37.03 86.21ZM58.55 19.62L55.70 8.37L45.33 5.32L37.82 13.54L40.66 24.80L51.03 27.84ZM63.23 0.15L60.38 -11.11L50.01 -14.16L42.49 -5.93L45.33 5.32L55.70 8.37Z"/><path data-band="2" fill="#f97316" fill-opacity="0.35" d="M65.45 198.59L62.61 187.36L52.27 184.31L44.77 192.50L47.61 203.72L57.94 206.77ZM70.11 179.18L67.28 167.94L56.93 164.89L49.43 173.08L52.27 184.31L62.61 187.36ZM52.27 184.31L49.43 173.08L39.08 170.03L31.58 178.22L34.43 189.45L44.77 192.50ZM83.30 193.47L80.46 182.23L70.11 179.18L62.61 187.36L65.45 198.59L75.79 201.65ZM16.59 194.59L13.75 183.36L3.41 180.32L-4.08 188.51L-1.23 199.73L9.10 202.77ZM21.24 175.18L18.40 163.95L8.06 160.91L0.57 169.10L3.41 180.32L13.75 183.36ZM29.77 208.86L26.93 197.63L16.59 194.59L9.10 202.77L11.95 213.99L22.28 217.04ZM11.95 213.99L9.10 202.77L-1.23 199.73L-8.71 207.91L-5.87 219.13L4.46 222.17ZM34.43 189.45L31.58 178.22L21.24 175.18L13.75 183.36L16.59 194.59L26.93 197.63ZM92.65 154.62L89.81 143.38L79.46 140.33L71.95 148.52L74.78 159.76L85.13 162.81ZM74.78 159.76L71.95 148.52L61.60 145.47L54.09 153.66L56.93 164.89L67.28 167.94ZM97.33 135.19L94.49 123.94L84.13 120.89L76.62 129.08L79.46 140.33L89.81 143.38ZM79.46 140.33L76.62 129.08L66.27 126.03L58.75 134.23L61.60 145.47L71.95 148.52ZM87.97 174.05L85.13 162.81L74.78 159.76L67.28 167.94L70.11 179.18L80.46 182.23ZM110.52 149.49L107.68 138.24L97.33 135.19L89.81 143.38L92.65 154.62L103.00 157.67ZM43.74 150.61L40.90 139.37L30.55 136.33L23.05 144.52L25.90 155.76L36.24 158.80ZM25.90 155.76L23.05 144.52L12.71 141.48L5.21 149.68L8.06 160.91L18.40 163.95ZM48.40 131.18L45.56 119.94L35.21 116.90L27.71 125.09L30.55 136.33L40.90 139.37ZM56.93 164.89L54.09 153.66L43.74 150.61L36.24 158.80L39.08 170.03L49.43 173.08ZM39.08 170.03L36.24 158.80L25.90 155.76L18.40 163.95L21.24 175.18L31.58 178.22ZM61.60 145.47L58.75 134.23L48.40 131.18L40.90 139.37L43.74 150.61L54.09 153.66ZM20.48 247.66L17.63 236.44L7.30 233.39L-0.18 241.57L2.66 252.79L12.99 255.83ZM25.12 228.26L22.28 217.04L11.95 213.99L4.46 222.17L7.30 233.39L17.63 236.44ZM2.66 252.79L-0.18 241.57L-10.51 238.53L-17.98 246.70L-15.14 257.92L-4.82 260.96ZM7.30 233.39L4.46 222.17L-5.87 219.13L-13.35 227.31L-10.51 238.53L-0.18 241.57ZM184.90 254.75L182.07 243.51L171.73 240.44L164.20 248.61L167.03 259.84L177.37 262.92ZM167.03 259.84L164.20 248.61L153.86 245.54L146.34 253.71L149.16 264.94L159.51 268.01ZM189.60 235.34L186.78 224.10L176.43 221.03L168.90 229.20L171.73 240.44L182.07 243.51ZM171.73 240.44L168.90 229.20L158.55 226.13L151.03 234.30L153.86 245.54L164.20 248.61ZM198.06 269.07L195.24 257.83L184.90 254.75L177.37 262.92L180.19 274.15L190.54 277.23ZM202.77 249.66L199.95 238.42L189.60 235.34L182.07 243.51L184.90 254.75L195.24 257.83ZM223.63 26.53L220.80 15.25L210.41 12.18L202.85 20.39L205.68 31.66L216.07 34.73ZM205.68 31.66L202.85 20.39L192.47 17.32L184.92 25.53L187.75 36.80L198.13 39.87ZM228.36 7.04L225.54 -4.24L215.15 -7.31L207.58 0.90L210.41 12.18L220.80 15.25ZM210.41 12.18L207.58 0.90L197.19 -2.17L189.64 6.04L192.47 17.32L202.85 20.39ZM236.84 40.88L234.01 29.60L223.63 26.53L216.07 34.73L218.89 46.01L229.28 49.08ZM218.89 46.01L216.07 34.73L205.68 31.66L198.13 39.87L200.96 51.14L211.34 54.21ZM241.58 21.40L238.76 10.11L228.36 7.04L220.80 15.25L223.63 26.53L234.01 29.60ZM174.53 22.47L171.70 11.19L161.32 8.13L153.77 16.34L156.60 27.61L166.98 30.67ZM156.60 27.61L153.77 16.34L143.39 13.28L135.85 21.50L138.69 32.76L149.06 35.82ZM179.25 2.98L176.42 -8.30L166.03 -11.36L158.48 -3.14L161.32 8.13L171.70 11.19ZM161.32 8.13L158.48 -3.14L148.10 -6.20L140.55 2.01L143.39 13.28L153.77 16.34ZM187.75 36.80L184.92 25.53L174.53 22.47L166.98 30.67L169.82 41.94L180.20 45.01ZM169.82 41.94L166.98 30.67L156.60 27.61L149.06 35.82L151.90 47.09L162.27 50.15ZM192.47 17.32L189.64 6.04L179.25 2.98L171.70 11.19L174.53 22.47L184.92 25.53ZM264.29 -3.23L261.47 -14.52L251.07 -17.59L243.50 -9.38L246.32 1.90L256.72 4.98ZM246.32 1.90L243.50 -9.38L233.10 -12.46L225.54 -4.24L228.36 7.04L238.76 10.11ZM215.15 -7.31L212.32 -18.60L201.92 -21.66L194.36 -13.45L197.19 -2.17L207.58 0.90ZM197.19 -2.17L194.36 -13.45L183.97 -16.51L176.42 -8.30L179.25 2.98L189.64 6.04ZM245.31 74.71L242.49 63.43L232.10 60.36L224.54 68.56L227.37 79.83L237.75 82.90ZM227.37 79.83L224.54 68.56L214.16 65.48L206.61 73.68L209.43 84.95L219.81 88.02ZM250.05 55.23L247.23 43.96L236.84 40.88L229.28 49.08L232.10 60.36L242.49 63.43ZM232.10 60.36L229.28 49.08L218.89 46.01L211.34 54.21L214.16 65.48L224.54 68.56ZM258.51 89.06L255.69 77.79L245.31 74.71L237.75 82.90L240.57 94.18L250.95 97.25ZM240.57 94.18L237.75 82.90L227.37 79.83L219.81 88.02L222.64 99.29L233.01 102.37ZM263.25 69.59L260.44 58.31L250.05 55.23L242.49 63.43L245.31 74.71L255.69 77.79ZM196.23 70.61L193.40 59.34L183.03 56.28L175.48 64.48L178.31 75.75L188.68 78.81ZM178.31 75.75L175.48 64.48L165.10 61.42L157.56 69.62L160.39 80.88L170.77 83.94ZM200.96 51.14L198.13 39.87L187.75 36.80L180.20 45.01L183.03 56.28L193.40 59.34ZM183.03 56.28L180.20 45.01L169.82 41.94L162.27 50.15L165.10 61.42L175.48 64.48ZM209.43 84.95L206.61 73.68L196.23 70.61L188.68 78.81L191.51 90.08L201.88 93.15ZM191.51 90.08L188.68 78.81L178.31 75.75L170.77 83.94L173.59 95.21L183.97 98.27ZM214.16 65.48L211.34 54.21L200.96 51.14L193.40 59.34L196.23 70.61L206.61 73.68ZM272.75 30.63L269.93 19.34L259.54 16.27L251.97 24.47L254.79 35.75L265.18 38.83ZM254.79 35.75L251.97 24.47L241.58 21.40L234.01 29.60L236.84 40.88L247.23 43.96ZM259.54 16.27L256.72 4.98L246.32 1.90L238.76 10.11L241.58 21.40L251.97 24.47ZM268.00 50.11L265.18 38.83L254.79 35.75L247.23 43.96L250.05 55.23L260.44 58.31ZM98.18 62.54L95.34 51.28L84.97 48.23L77.45 56.44L80.29 67.69L90.66 70.74ZM80.29 67.69L77.45 56.44L67.09 53.39L59.57 61.60L62.41 72.85L72.77 75.89ZM102.87 43.07L100.03 31.81L89.66 28.76L82.13 36.97L84.97 48.23L95.34 51.28ZM84.97 48.23L82.13 36.97L71.76 33.93L64.24 42.14L67.09 53.39L77.45 56.44ZM111.39 76.85L108.55 65.59L98.18 62.54L90.66 70.74L93.50 81.99L103.86 85.05ZM93.50 81.99L90.66 70.74L80.29 67.69L72.77 75.89L75.61 87.15L85.97 90.19ZM116.08 57.38L113.24 46.12L102.87 43.07L95.34 51.28L98.18 62.54L108.55 65.59ZM49.21 58.55L46.36 47.30L36.00 44.26L28.49 52.47L31.33 63.72L41.69 66.76ZM53.88 39.09L51.03 27.84L40.66 24.80L33.15 33.01L36.00 44.26L46.36 47.30ZM62.41 72.85L59.57 61.60L49.21 58.55L41.69 66.76L44.54 78.01L54.90 81.05ZM67.09 53.39L64.24 42.14L53.88 39.09L46.36 47.30L49.21 58.55L59.57 61.60ZM125.47 18.44L122.63 7.17L112.26 4.12L104.72 12.34L107.56 23.60L117.93 26.65ZM107.56 23.60L104.72 12.34L94.35 9.29L86.82 17.50L89.66 28.76L100.03 31.81ZM130.17 -1.04L127.33 -12.31L116.95 -15.36L109.41 -7.15L112.26 4.12L122.63 7.17ZM112.26 4.12L109.41 -7.15L99.04 -10.20L91.50 -1.98L94.35 9.29L104.72 12.34ZM138.69 32.76L135.85 21.50L125.47 18.44L117.93 26.65L120.77 37.92L131.15 40.97ZM120.77 37.92L117.93 26.65L107.56 23.60L100.03 31.81L102.87 43.07L113.24 46.12ZM143.39 13.28L140.55 2.01L130.17 -1.04L122.63 7.17L125.47 18.44L135.85 21.50ZM76.44 14.45L73.60 3.19L63.23 0.15L55.70 8.37L58.55 19.62L68.92 22.67ZM81.13 -5.03L78.28 -16.29L67.91 -19.33L60.38 -11.11L63.23 0.15L73.60 3.19ZM89.66 28.76L86.82 17.50L76.44 14.45L68.92 22.67L71.76 33.93L82.13 36.97ZM71.76 33.93L68.92 22.67L58.55 19.62L51.03 27.84L53.88 39.09L64.24 42.14ZM94.35 9.29L91.50 -1.98L81.13 -5.03L73.60 3.19L76.44 14.45L86.82 17.50ZM119.89 110.61L117.06 99.35L106.70 96.30L99.17 104.50L102.01 115.75L112.37 118.80ZM102.01 115.75L99.17 104.50L88.81 101.44L81.29 109.64L84.13 120.89L94.49 123.94ZM124.59 91.16L121.75 79.90L111.39 76.85L103.86 85.05L106.70 96.30L117.06 99.35ZM106.70 96.30L103.86 85.05L93.50 81.99L85.97 90.19L88.81 101.44L99.17 104.50ZM133.09 124.92L130.26 113.67L119.89 110.61L112.37 118.80L115.20 130.05L125.56 133.11ZM115.20 130.05L112.37 118.80L102.01 115.75L94.49 123.94L97.33 135.19L107.68 138.24ZM137.79 105.47L134.95 94.21L124.59 91.16L117.06 99.35L119.89 110.61L130.26 113.67ZM70.94 106.59L68.10 95.35L57.74 92.30L50.23 100.50L53.07 111.74L63.42 114.79ZM53.07 111.74L50.23 100.50L39.87 97.46L32.37 105.66L35.21 116.90L45.56 119.94ZM75.61 87.15L72.77 75.89L62.41 72.85L54.90 81.05L57.74 92.30L68.10 95.35ZM57.74 92.30L54.90 81.05L44.54 78.01L37.03 86.21L39.87 97.46L50.23 100.50ZM84.13 120.89L81.29 109.64L70.94 106.59L63.42 114.79L66.27 126.03L76.62 129.08ZM66.27 126.03L63.42 114.79L53.07 111.74L45.56 119.94L48.40 131.18L58.75 134.23ZM88.81 101.44L85.97 90.19L75.61 87.15L68.10 95.35L70.94 106.59L81.29 109.64ZM147.19 66.56L144.36 55.29L133.98 52.23L126.45 60.44L129.28 71.70L139.65 74.76ZM129.28 71.70L126.45 60.44L116.08 57.38L108.55 65.59L111.39 76.85L121.75 79.90ZM151.90 47.09L149.06 35.82L138.69 32.76L131.15 40.97L133.98 52.23L144.36 55.29ZM133.98 52.23L131.15 40.97L120.77 37.92L113.24 46.12L116.08 57.38L126.45 60.44ZM160.39 80.88L157.56 69.62L147.19 66.56L139.65 74.76L142.49 86.02L152.86 89.08ZM142.49 86.02L139.65 74.76L129.28 71.70L121.75 79.90L124.59 91.16L134.95 94.21ZM165.10 61.42L162.27 50.15L151.90 47.09L144.36 55.29L147.19 66.56L157.56 69.62ZM148.10 -6.20L145.26 -17.47L134.88 -20.53L127.33 -12.31L130.17 -1.04L140.55 2.01ZM266.96 122.88L264.15 111.61L253.77 108.52L246.21 116.71L249.03 127.98L259.40 131.06ZM249.03 127.98L246.21 116.71L235.83 113.64L228.28 121.82L231.10 133.09L241.47 136.17ZM271.71 103.42L268.89 92.14L258.51 89.06L250.95 97.25L253.77 108.52L264.15 111.61ZM253.77 108.52L250.95 97.25L240.57 94.18L233.01 102.37L235.83 113.64L246.21 116.71ZM262.22 142.33L259.40 131.06L249.03 127.98L241.47 136.17L244.29 147.43L254.66 150.51ZM276.46 83.95L273.64 72.67L263.25 69.59L255.69 77.79L258.51 89.06L268.89 92.14ZM270.67 176.12L267.85 164.86L257.48 161.77L249.93 169.95L252.74 181.21L263.11 184.30ZM275.41 156.68L272.60 145.41L262.22 142.33L254.66 150.51L257.48 161.77L267.85 164.86ZM190.56 162.75L187.73 151.50L177.37 148.43L169.83 156.61L172.66 167.86L183.02 170.93ZM172.66 167.86L169.83 156.61L159.47 153.55L151.94 161.73L154.77 172.98L165.13 176.05ZM195.27 143.31L192.45 132.05L182.08 128.98L174.54 137.17L177.37 148.43L187.73 151.50ZM177.37 148.43L174.54 137.17L164.18 134.11L156.64 142.29L159.47 153.55L169.83 156.61ZM203.74 177.08L200.92 165.82L190.56 162.75L183.02 170.93L185.84 182.18L196.20 185.26ZM185.84 182.18L183.02 170.93L172.66 167.86L165.13 176.05L167.95 187.29L178.31 190.36ZM208.46 157.64L205.64 146.38L195.27 143.31L187.73 151.50L190.56 162.75L200.92 165.82ZM141.58 158.67L138.75 147.42L128.40 144.36L120.87 152.55L123.70 163.79L134.06 166.85ZM123.70 163.79L120.87 152.55L110.52 149.49L103.00 157.67L105.83 168.92L116.18 171.97ZM146.28 139.23L143.45 127.98L133.09 124.92L125.56 133.11L128.40 144.36L138.75 147.42ZM128.40 144.36L125.56 133.11L115.20 130.05L107.68 138.24L110.52 149.49L120.87 152.55ZM154.77 172.98L151.94 161.73L141.58 158.67L134.06 166.85L136.89 178.10L147.24 181.16ZM159.47 153.55L156.64 142.29L146.28 139.23L138.75 147.42L141.58 158.67L151.94 161.73ZM217.91 118.75L215.08 107.48L204.71 104.41L197.16 112.60L199.99 123.87L210.36 126.94ZM199.99 123.87L197.16 112.60L186.79 109.53L179.25 117.73L182.08 128.98L192.45 132.05ZM222.64 99.29L219.81 88.02L209.43 84.95L201.88 93.15L204.71 104.41L215.08 107.48ZM204.71 104.41L201.88 93.15L191.51 90.08L183.97 98.27L186.79 109.53L197.16 112.60ZM231.10 133.09L228.28 121.82L217.91 118.75L210.36 126.94L213.18 138.20L223.55 141.27ZM213.18 138.20L210.36 126.94L199.99 123.87L192.45 132.05L195.27 143.31L205.64 146.38ZM235.83 113.64L233.01 102.37L222.64 99.29L215.08 107.48L217.91 118.75L228.28 121.82ZM168.88 114.66L166.05 103.40L155.69 100.34L148.15 108.53L150.98 119.79L161.35 122.85ZM150.98 119.79L148.15 108.53L137.79 105.47L130.26 113.67L133.09 124.92L143.45 127.98ZM173.59 95.21L170.77 83.94L160.39 80.88L152.86 89.08L155.69 100.34L166.05 103.40ZM155.69 100.34L152.86 89.08L142.49 86.02L134.95 94.21L137.79 105.47L148.15 108.53ZM182.08 128.98L179.25 117.73L168.88 114.66L161.35 122.85L164.18 134.11L174.54 137.17ZM164.18 134.11L161.35 122.85L150.98 119.79L143.45 127.98L146.28 139.23L156.64 142.29ZM186.79 109.53L183.97 98.27L173.59 95.21L166.05 103.40L168.88 114.66L179.25 117.73ZM212.20 210.83L209.38 199.58L199.02 196.51L191.49 204.68L194.31 215.93L204.67 219.00ZM194.31 215.93L191.49 204.68L181.13 201.61L173.60 209.78L176.43 221.03L186.78 224.10ZM216.92 191.41L214.10 180.15L203.74 177.08L196.20 185.26L199.02 196.51L209.38 199.58ZM199.02 196.51L196.20 185.26L185.84 182.18L178.31 190.36L181.13 201.61L191.49 204.68ZM225.38 225.16L222.56 213.91L212.20 210.83L204.67 219.00L207.49 230.25L217.84 233.33ZM207.49 230.25L204.67 219.00L194.31 215.93L186.78 224.10L189.60 235.34L199.95 238.42ZM230.10 205.74L227.28 194.48L216.92 191.41L209.38 199.58L212.20 210.83L222.56 213.91ZM163.25 206.71L160.43 195.47L150.07 192.40L142.55 200.58L145.38 211.82L155.73 214.89ZM167.95 187.29L165.13 176.05L154.77 172.98L147.24 181.16L150.07 192.40L160.43 195.47ZM150.07 192.40L147.24 181.16L136.89 178.10L129.37 186.28L132.20 197.52L142.55 200.58ZM176.43 221.03L173.60 209.78L163.25 206.71L155.73 214.89L158.55 226.13L168.90 229.20ZM181.13 201.61L178.31 190.36L167.95 187.29L160.43 195.47L163.25 206.71L173.60 209.78ZM239.56 166.87L236.74 155.61L226.37 152.53L218.83 160.72L221.65 171.97L232.01 175.05ZM221.65 171.97L218.83 160.72L208.46 157.64L200.92 165.82L203.74 177.08L214.10 180.15ZM244.29 147.43L241.47 136.17L231.10 133.09L223.55 141.27L226.37 152.53L236.74 155.61ZM226.37 152.53L223.55 141.27L213.18 138.20L205.64 146.38L208.46 157.64L218.83 160.72ZM252.74 181.21L249.93 169.95L239.56 166.87L232.01 175.05L234.83 186.31L245.19 189.39ZM234.83 186.31L232.01 175.05L221.65 171.97L214.10 180.15L216.92 191.41L227.28 194.48ZM257.48 161.77L254.66 150.51L244.29 147.43L236.74 155.61L239.56 166.87L249.93 169.95ZM264.89 268.16L262.08 256.91L251.72 253.82L244.18 261.98L246.99 273.23L257.35 276.31ZM269.63 248.74L266.81 237.49L256.45 234.41L248.91 242.57L251.72 253.82L262.08 256.91ZM233.83 258.90L231.01 247.65L220.66 244.57L213.12 252.74L215.94 263.98L226.29 267.06ZM215.94 263.98L213.12 252.74L202.77 249.66L195.24 257.83L198.06 269.07L208.41 272.14ZM238.55 239.49L235.74 228.24L225.38 225.16L217.84 233.33L220.66 244.57L231.01 247.65ZM220.66 244.57L217.84 233.33L207.49 230.25L199.95 238.42L202.77 249.66L213.12 252.74ZM251.72 253.82L248.91 242.57L238.55 239.49L231.01 247.65L233.83 258.90L244.18 261.98ZM261.19 214.98L258.37 203.73L248.01 200.65L240.46 208.82L243.28 220.07L253.64 223.15ZM243.28 220.07L240.46 208.82L230.10 205.74L222.56 213.91L225.38 225.16L235.74 228.24ZM265.93 195.56L263.11 184.30L252.74 181.21L245.19 189.39L248.01 200.65L258.37 203.73ZM248.01 200.65L245.19 189.39L234.83 186.31L227.28 194.48L230.10 205.74L240.46 208.82ZM274.36 229.33L271.55 218.07L261.19 214.98L253.64 223.15L256.45 234.41L266.81 237.49ZM256.45 234.41L253.64 223.15L243.28 220.07L235.74 228.24L238.55 239.49L248.91 242.57Z"/><path data-band="3" fill="#dc2626" fill-opacity="0.35" d="M15.83 267.04L12.99 255.83L2.66 252.79L-4.82 260.96L-1.97 272.17L8.35 275.21ZM47.61 203.72L44.77 192.50L34.43 189.45L26.93 197.63L29.77 208.86L40.11 211.90ZM78.62 212.88L75.79 201.65L65.45 198.59L57.94 206.77L60.78 218.00L71.12 221.05ZM60.78 218.00L57.94 206.77L47.61 203.72L40.11 211.90L42.95 223.13L53.28 226.18ZM105.83 168.92L103.00 157.67L92.65 154.62L85.13 162.81L87.97 174.05L98.32 177.10ZM87.13 246.57L84.29 235.34L73.96 232.28L66.46 240.46L69.29 251.68L79.63 254.74ZM69.29 251.68L66.46 240.46L56.12 237.40L48.63 245.58L51.46 256.80L61.80 259.85ZM91.80 227.16L88.97 215.93L78.62 212.88L71.12 221.05L73.96 232.28L84.29 235.34ZM73.96 232.28L71.12 221.05L60.78 218.00L53.28 226.18L56.12 237.40L66.46 240.46ZM100.30 260.85L97.47 249.62L87.13 246.57L79.63 254.74L82.46 265.96L92.79 269.02ZM82.46 265.96L79.63 254.74L69.29 251.68L61.80 259.85L64.63 271.07L74.96 274.13ZM104.97 241.45L102.14 230.22L91.80 227.16L84.29 235.34L87.13 246.57L97.47 249.62ZM38.29 242.53L35.46 231.31L25.12 228.26L17.63 236.44L20.48 247.66L30.80 250.70ZM42.95 223.13L40.11 211.90L29.77 208.86L22.28 217.04L25.12 228.26L35.46 231.31ZM51.46 256.80L48.63 245.58L38.29 242.53L30.80 250.70L33.64 261.92L43.97 264.97ZM33.64 261.92L30.80 250.70L20.48 247.66L12.99 255.83L15.83 267.04L26.16 270.09ZM56.12 237.40L53.28 226.18L42.95 223.13L35.46 231.31L38.29 242.53L48.63 245.58ZM114.33 202.64L111.50 191.40L101.15 188.34L93.64 196.52L96.47 207.76L106.82 210.81ZM96.47 207.76L93.64 196.52L83.30 193.47L75.79 201.65L78.62 212.88L88.97 215.93ZM119.02 183.22L116.18 171.97L105.83 168.92L98.32 177.10L101.15 188.34L111.50 191.40ZM101.15 188.34L98.32 177.10L87.97 174.05L80.46 182.23L83.30 193.47L93.64 196.52ZM127.51 216.93L124.68 205.70L114.33 202.64L106.82 210.81L109.65 222.05L119.99 225.11ZM109.65 222.05L106.82 210.81L96.47 207.76L88.97 215.93L91.80 227.16L102.14 230.22ZM132.20 197.52L129.37 186.28L119.02 183.22L111.50 191.40L114.33 202.64L124.68 205.70ZM136.00 250.64L133.17 239.41L122.82 236.34L115.31 244.51L118.14 255.74L128.48 258.81ZM118.14 255.74L115.31 244.51L104.97 241.45L97.47 249.62L100.30 260.85L110.63 263.91ZM140.68 231.24L137.86 220.00L127.51 216.93L119.99 225.11L122.82 236.34L133.17 239.41ZM122.82 236.34L119.99 225.11L109.65 222.05L102.14 230.22L104.97 241.45L115.31 244.51ZM149.16 264.94L146.34 253.71L136.00 250.64L128.48 258.81L131.31 270.04L141.65 273.10ZM131.31 270.04L128.48 258.81L118.14 255.74L110.63 263.91L113.46 275.14L123.80 278.20ZM153.86 245.54L151.03 234.30L140.68 231.24L133.17 239.41L136.00 250.64L146.34 253.71ZM136.89 178.10L134.06 166.85L123.70 163.79L116.18 171.97L119.02 183.22L129.37 186.28ZM145.38 211.82L142.55 200.58L132.20 197.52L124.68 205.70L127.51 216.93L137.86 220.00ZM158.55 226.13L155.73 214.89L145.38 211.82L137.86 220.00L140.68 231.24L151.03 234.30Z"/></svg>
