<svg xmlns="http://www.w3.org/2000/svg" width="256" height="256" viewBox="0 0 256 256"><path data-band="2" fill="#f97316" fill-opacity="0.35" d="M32.86 78.31L30.03 67.10L19.71 64.05L12.23 72.21L15.07 83.42L25.38 86.47ZM15.07 83.42L12.23 72.21L1.92 69.17L-5.56 77.33L-2.72 88.53L7.60 91.57ZM46.01 92.57L43.18 81.36L32.86 78.31L25.38 86.47L28.22 97.67L38.53 100.72ZM28.22 97.67L25.38 86.47L15.07 83.42L7.60 91.57L10.43 102.77L20.74 105.82ZM1.92 69.17L-0.92 57.96L-11.24 54.92L-18.71 63.08L-15.87 74.28L-5.56 77.33ZM6.55 49.80L3.71 38.59L-6.61 35.55L-14.08 43.71L-11.24 54.92L-0.92 57.96ZM54.51 126.18L51.68 114.98L41.37 111.93L33.89 120.07L36.72 131.28L47.03 134.33ZM36.72 131.28L33.89 120.07L23.58 117.02L16.11 125.17L18.94 136.37L29.25 139.42ZM59.16 106.83L56.33 95.62L46.01 92.57L38.53 100.72L41.37 111.93L51.68 114.98ZM41.37 111.93L38.53 100.72L28.22 97.67L20.74 105.82L23.58 117.02L33.89 120.07ZM67.65 140.44L64.82 129.24L54.51 126.18L47.03 134.33L49.86 145.53L60.17 148.59ZM49.86 145.53L47.03 134.33L36.72 131.28L29.25 139.42L32.08 150.62L42.39 153.67ZM72.31 121.09L69.48 109.89L59.16 106.83L51.68 114.98L54.51 126.18L64.82 129.24ZM5.80 122.12L2.96 110.93L-7.34 107.88L-14.81 116.03L-11.97 127.23L-1.67 130.27ZM10.43 102.77L7.60 91.57L-2.72 88.53L-10.18 96.68L-7.34 107.88L2.96 110.93ZM18.94 136.37L16.11 125.17L5.80 122.12L-1.67 130.27L1.17 141.47L11.47 144.52ZM1.17 141.47L-1.67 130.27L-11.97 127.23L-19.43 135.38L-16.59 146.57L-6.29 149.61ZM23.58 117.02L20.74 105.82L10.43 102.77L2.96 110.93L5.80 122.12L16.11 125.17ZM81.63 82.37L78.80 71.16L68.47 68.10L60.98 76.26L63.82 87.47L74.14 90.53ZM94.78 96.65L91.95 85.43L81.63 82.37L74.14 90.53L76.97 101.74L87.28 104.80ZM76.97 101.74L74.14 90.53L63.82 87.47L56.33 95.62L59.16 106.83L69.48 109.89ZM99.44 77.28L96.61 66.06L86.29 63.00L78.80 71.16L81.63 82.37L91.95 85.43ZM2.66 -3.21L-0.18 -14.43L-10.51 -17.47L-17.98 -9.30L-15.14 1.92L-4.82 4.96ZM124.86 178.17L122.04 166.97L111.73 163.90L104.24 172.04L107.06 183.24L117.37 186.31ZM107.06 183.24L104.24 172.04L93.93 168.97L86.45 177.11L89.27 188.31L99.58 191.37ZM129.54 158.83L126.71 147.62L116.40 144.55L108.91 152.69L111.73 163.90L122.04 166.97ZM111.73 163.90L108.91 152.69L98.59 149.63L91.10 157.77L93.93 168.97L104.24 172.04ZM138.00 192.45L135.18 181.24L124.86 178.17L117.37 186.31L120.19 197.51L130.50 200.58ZM120.19 197.51L117.37 186.31L107.06 183.24L99.58 191.37L102.40 202.57L112.71 205.64ZM142.67 173.11L139.85 161.90L129.54 158.83L122.04 166.97L124.86 178.17L135.18 181.24ZM76.14 174.04L73.31 162.85L63.00 159.79L55.53 167.93L58.35 179.12L68.66 182.18ZM58.35 179.12L55.53 167.93L45.22 164.87L37.75 173.01L40.58 184.20L50.88 187.26ZM80.79 154.71L77.97 143.50L67.65 140.44L60.17 148.59L63.00 159.79L73.31 162.85ZM63.00 159.79L60.17 148.59L49.86 145.53L42.39 153.67L45.22 164.87L55.53 167.93ZM89.27 188.31L86.45 177.11L76.14 174.04L68.66 182.18L71.49 193.38L81.79 196.44ZM71.49 193.38L68.66 182.18L58.35 179.12L50.88 187.26L53.71 198.45L64.01 201.51ZM93.93 168.97L91.10 157.77L80.79 154.71L73.31 162.85L76.14 174.04L86.45 177.11ZM152.03 134.41L149.21 123.20L138.89 120.13L131.39 128.27L134.21 139.48L144.53 142.55ZM134.21 139.48L131.39 128.27L121.07 125.20L113.57 133.34L116.40 144.55L126.71 147.62ZM156.72 115.05L153.90 103.83L143.57 100.76L136.07 108.91L138.89 120.13L149.21 123.20ZM138.89 120.13L136.07 108.91L125.74 105.84L118.25 113.99L121.07 125.20L131.39 128.27ZM165.17 148.70L162.36 137.49L152.03 134.41L144.53 142.55L147.35 153.76L157.67 156.84ZM147.35 153.76L144.53 142.55L134.21 139.48L126.71 147.62L129.54 158.83L139.85 161.90ZM169.86 129.35L167.05 118.13L156.72 115.05L149.21 123.20L152.03 134.41L162.36 137.49ZM103.26 130.28L100.43 119.07L90.11 116.01L82.62 124.15L85.45 135.36L95.77 138.42ZM85.45 135.36L82.62 124.15L72.31 121.09L64.82 129.24L67.65 140.44L77.97 143.50ZM107.92 110.92L105.10 99.71L94.78 96.65L87.28 104.80L90.11 116.01L100.43 119.07ZM90.11 116.01L87.28 104.80L76.97 101.74L69.48 109.89L72.31 121.09L82.62 124.15ZM116.40 144.55L113.57 133.34L103.26 130.28L95.77 138.42L98.59 149.63L108.91 152.69ZM98.59 149.63L95.77 138.42L85.45 135.36L77.97 143.50L80.79 154.71L91.10 157.77ZM121.07 125.20L118.25 113.99L107.92 110.92L100.43 119.07L103.26 130.28L113.57 133.34ZM146.45 226.05L143.63 214.85L133.32 211.78L125.83 219.91L128.65 231.10L138.96 234.18ZM128.65 231.10L125.83 219.91L115.53 216.84L108.04 224.96L110.86 236.16L121.17 239.23ZM151.13 206.73L148.31 195.52L138.00 192.45L130.50 200.58L133.32 211.78L143.63 214.85ZM133.32 211.78L130.50 200.58L120.19 197.51L112.71 205.64L115.53 216.84L125.83 219.91ZM159.57 240.33L156.76 229.13L146.45 226.05L138.96 234.18L141.77 245.37L152.08 248.45ZM141.77 245.37L138.96 234.18L128.65 231.10L121.17 239.23L123.99 250.42L134.29 253.49ZM164.25 221.01L161.44 209.80L151.13 206.73L143.63 214.85L146.45 226.05L156.76 229.13ZM97.74 221.89L94.92 210.70L84.62 207.63L77.14 215.76L79.96 226.96L90.26 230.02ZM79.96 226.96L77.14 215.76L66.84 212.70L59.36 220.83L62.19 232.02L72.49 235.08ZM102.40 202.57L99.58 191.37L89.27 188.31L81.79 196.44L84.62 207.63L94.92 210.70ZM84.62 207.63L81.79 196.44L71.49 193.38L64.01 201.51L66.84 212.70L77.14 215.76ZM110.86 236.16L108.04 224.96L97.74 221.89L90.26 230.02L93.08 241.21L103.38 244.28ZM93.08 241.21L90.26 230.02L79.96 226.96L72.49 235.08L75.31 246.27L85.61 249.33ZM115.53 216.84L112.71 205.64L102.40 202.57L94.92 210.70L97.74 221.89L108.04 224.96ZM173.62 182.34L170.81 171.13L160.49 168.05L152.99 176.18L155.81 187.39L166.12 190.47ZM155.81 187.39L152.99 176.18L142.67 173.11L135.18 181.24L138.00 192.45L148.31 195.52ZM178.31 162.99L175.50 151.78L165.17 148.70L157.67 156.84L160.49 168.05L170.81 171.13ZM160.49 168.05L157.67 156.84L147.35 153.76L139.85 161.90L142.67 173.11L152.99 176.18ZM186.75 196.63L183.94 185.42L173.62 182.34L166.12 190.47L168.94 201.67L179.25 204.75ZM168.94 201.67L166.12 190.47L155.81 187.39L148.31 195.52L151.13 206.73L161.44 209.80ZM191.45 177.29L188.63 166.07L178.31 162.99L170.81 171.13L173.62 182.34L183.94 185.42ZM0.43 213.68L-2.41 202.50L-12.70 199.45L-20.16 207.59L-17.32 218.77L-7.03 221.82ZM5.05 194.37L2.22 183.18L-8.08 180.13L-15.54 188.27L-12.70 199.45L-2.41 202.50ZM13.55 227.92L10.72 216.74L0.43 213.68L-7.03 221.82L-4.20 233.00L6.09 236.05ZM18.18 208.60L15.35 197.42L5.05 194.37L-2.41 202.50L0.43 213.68L10.72 216.74ZM27.45 169.95L24.61 158.76L14.31 155.71L6.84 163.85L9.68 175.04L19.98 178.09ZM9.68 175.04L6.84 163.85L-3.46 160.80L-10.92 168.94L-8.08 180.13L2.22 183.18ZM32.08 150.62L29.25 139.42L18.94 136.37L11.47 144.52L14.31 155.71L24.61 158.76ZM14.31 155.71L11.47 144.52L1.17 141.47L-6.29 149.61L-3.46 160.80L6.84 163.85ZM40.58 184.20L37.75 173.01L27.45 169.95L19.98 178.09L22.81 189.28L33.11 192.34ZM22.81 189.28L19.98 178.09L9.68 175.04L2.22 183.18L5.05 194.37L15.35 197.42ZM45.22 164.87L42.39 153.67L32.08 150.62L24.61 158.76L27.45 169.95L37.75 173.01ZM22.04 261.46L19.21 250.28L8.93 247.23L1.47 255.35L4.30 266.53L14.59 269.58ZM4.30 266.53L1.47 255.35L-8.81 252.30L-16.26 260.43L-13.43 271.60L-3.15 274.65ZM26.67 242.15L23.84 230.97L13.55 227.92L6.09 236.05L8.93 247.23L19.21 250.28ZM8.93 247.23L6.09 236.05L-4.20 233.00L-11.65 241.12L-8.81 252.30L1.47 255.35ZM39.79 256.39L36.96 245.21L26.67 242.15L19.21 250.28L22.04 261.46L32.33 264.52ZM49.07 217.77L46.24 206.58L35.94 203.53L28.47 211.66L31.31 222.84L41.60 225.90ZM31.31 222.84L28.47 211.66L18.18 208.60L10.72 216.74L13.55 227.92L23.84 230.97ZM53.71 198.45L50.88 187.26L40.58 184.20L33.11 192.34L35.94 203.53L46.24 206.58ZM35.94 203.53L33.11 192.34L22.81 189.28L15.35 197.42L18.18 208.60L28.47 211.66ZM62.19 232.02L59.36 220.83L49.07 217.77L41.60 225.90L44.43 237.09L54.72 240.15ZM44.43 237.09L41.60 225.90L31.31 222.84L23.84 230.97L26.67 242.15L36.96 245.21ZM66.84 212.70L64.01 201.51L53.71 198.45L46.24 206.58L49.07 217.77L59.36 220.83ZM157.63 42.63L154.81 31.40L144.47 28.33L136.96 36.49L139.79 47.72L150.12 50.79ZM170.79 56.93L167.97 45.70L157.63 42.63L150.12 50.79L152.94 62.02L163.28 65.09ZM152.94 62.02L150.12 50.79L139.79 47.72L132.28 55.88L135.10 67.10L145.43 70.17ZM175.49 37.55L172.67 26.31L162.33 23.24L154.81 31.40L157.63 42.63L167.97 45.70ZM184.90 -1.25L182.07 -12.49L171.73 -15.56L164.20 -7.39L167.03 3.84L177.37 6.92ZM167.03 3.84L164.20 -7.39L153.86 -10.46L146.34 -2.29L149.16 8.94L159.51 12.01ZM198.06 13.07L195.24 1.83L184.90 -1.25L177.37 6.92L180.19 18.15L190.54 21.23ZM180.19 18.15L177.37 6.92L167.03 3.84L159.51 12.01L162.33 23.24L172.67 26.31ZM202.77 -6.34L199.95 -17.58L189.60 -20.66L182.07 -12.49L184.90 -1.25L195.24 1.83ZM179.25 90.61L176.43 79.39L166.10 76.31L158.59 84.46L161.41 95.69L171.74 98.76ZM161.41 95.69L158.59 84.46L148.26 81.39L140.75 89.54L143.57 100.76L153.90 103.83ZM183.95 71.24L181.13 60.01L170.79 56.93L163.28 65.09L166.10 76.31L176.43 79.39ZM166.10 76.31L163.28 65.09L152.94 62.02L145.43 70.17L148.26 81.39L158.59 84.46ZM192.40 104.91L189.58 93.69L179.25 90.61L171.74 98.76L174.56 109.98L184.89 113.06ZM174.56 109.98L171.74 98.76L161.41 95.69L153.90 103.83L156.72 115.05L167.05 118.13ZM197.10 85.54L194.29 74.31L183.95 71.24L176.43 79.39L179.25 90.61L189.58 93.69ZM130.42 86.47L127.60 75.26L117.27 72.19L109.77 80.34L112.60 91.56L122.92 94.63ZM112.60 91.56L109.77 80.34L99.44 77.28L91.95 85.43L94.78 96.65L105.10 99.71ZM135.10 67.10L132.28 55.88L121.95 52.81L114.44 60.97L117.27 72.19L127.60 75.26ZM117.27 72.19L114.44 60.97L104.11 57.91L96.61 66.06L99.44 77.28L109.77 80.34ZM143.57 100.76L140.75 89.54L130.42 86.47L122.92 94.63L125.74 105.84L136.07 108.91ZM125.74 105.84L122.92 94.63L112.60 91.56L105.10 99.71L107.92 110.92L118.25 113.99ZM148.26 81.39L145.43 70.17L135.10 67.10L127.60 75.26L130.42 86.47L140.75 89.54ZM206.52 46.78L203.70 35.54L193.36 32.46L185.83 40.62L188.65 51.85L198.99 54.93ZM188.65 51.85L185.83 40.62L175.49 37.55L167.97 45.70L170.79 56.93L181.13 60.01ZM211.23 27.38L208.41 16.14L198.06 13.07L190.54 21.23L193.36 32.46L203.70 35.54ZM193.36 32.46L190.54 21.23L180.19 18.15L172.67 26.31L175.49 37.55L185.83 40.62ZM219.67 61.09L216.86 49.86L206.52 46.78L198.99 54.93L201.81 66.16L212.15 69.24ZM201.81 66.16L198.99 54.93L188.65 51.85L181.13 60.01L183.95 71.24L194.29 74.31ZM224.39 41.70L221.57 30.46L211.23 27.38L203.70 35.54L206.52 46.78L216.86 49.86ZM221.43 258.83L218.62 247.63L208.31 244.54L200.81 252.66L203.62 263.86L213.93 266.95ZM203.62 263.86L200.81 252.66L190.50 249.57L183.00 257.69L185.81 268.89L196.12 271.98ZM172.69 254.61L169.88 243.41L159.57 240.33L152.08 248.45L154.89 259.65L165.20 262.73ZM154.89 259.65L152.08 248.45L141.77 245.37L134.29 253.49L137.10 264.69L147.41 267.76ZM185.81 268.89L183.00 257.69L172.69 254.61L165.20 262.73L168.01 273.92L178.31 277.01ZM243.96 234.48L241.16 223.27L230.84 220.18L223.33 228.30L226.13 239.51L236.45 242.60ZM226.13 239.51L223.33 228.30L213.01 225.21L205.50 233.34L208.31 244.54L218.62 247.63ZM248.67 215.15L245.87 203.93L235.55 200.84L228.03 208.97L230.84 220.18L241.16 223.27ZM230.84 220.18L228.03 208.97L217.71 205.88L210.20 214.00L213.01 225.21L223.33 228.30ZM257.08 248.79L254.28 237.58L243.96 234.48L236.45 242.60L239.25 253.81L249.57 256.90ZM239.25 253.81L236.45 242.60L226.13 239.51L218.62 247.63L221.43 258.83L231.74 261.93ZM261.80 229.46L259.00 218.24L248.67 215.15L241.16 223.27L243.96 234.48L254.28 237.58ZM195.19 230.25L192.38 219.04L182.06 215.96L174.56 224.09L177.38 235.29L187.69 238.37ZM177.38 235.29L174.56 224.09L164.25 221.01L156.76 229.13L159.57 240.33L169.88 243.41ZM199.88 210.92L197.07 199.71L186.75 196.63L179.25 204.75L182.06 215.96L192.38 219.04ZM182.06 215.96L179.25 204.75L168.94 201.67L161.44 209.80L164.25 221.01L174.56 224.09ZM208.31 244.54L205.50 233.34L195.19 230.25L187.69 238.37L190.50 249.57L200.81 252.66ZM190.50 249.57L187.69 238.37L177.38 235.29L169.88 243.41L172.69 254.61L183.00 257.69ZM213.01 225.21L210.20 214.00L199.88 210.92L192.38 219.04L195.19 230.25L205.50 233.34ZM270.20 263.10L267.40 251.89L257.08 248.79L249.57 256.90L252.37 268.11L262.69 271.21ZM252.37 268.11L249.57 256.90L239.25 253.81L231.74 261.93L234.55 273.13L244.86 276.22ZM119.32 269.73L116.50 258.54L106.20 255.47L98.73 263.59L101.55 274.78L111.84 277.85ZM123.99 250.42L121.17 239.23L110.86 236.16L103.38 244.28L106.20 255.47L116.50 258.54ZM106.20 255.47L103.38 244.28L93.08 241.21L85.61 249.33L88.43 260.52L98.73 263.59ZM137.10 264.69L134.29 253.49L123.99 250.42L116.50 258.54L119.32 269.73L129.62 272.81ZM70.67 265.58L67.84 254.39L57.55 251.33L50.08 259.45L52.91 270.63L63.20 273.70ZM75.31 246.27L72.49 235.08L62.19 232.02L54.72 240.15L57.55 251.33L67.84 254.39ZM57.55 251.33L54.72 240.15L44.43 237.09L36.96 245.21L39.79 256.39L50.08 259.45ZM88.43 260.52L85.61 249.33L75.31 246.27L67.84 254.39L70.67 265.58L80.96 268.64ZM249.69 142.79L246.88 131.56L236.55 128.47L229.02 136.61L231.83 147.84L242.16 150.92ZM231.83 147.84L229.02 136.61L218.69 133.53L211.17 141.66L213.98 152.88L224.31 155.97ZM254.41 123.42L251.60 112.19L241.26 109.10L233.74 117.25L236.55 128.47L246.88 131.56ZM236.55 128.47L233.74 117.25L223.40 114.16L215.88 122.30L218.69 133.53L229.02 136.61ZM262.83 157.11L260.02 145.88L249.69 142.79L242.16 150.92L244.97 162.15L255.30 165.24ZM244.97 162.15L242.16 150.92L231.83 147.84L224.31 155.97L227.12 167.19L237.45 170.28ZM267.55 137.74L264.75 126.51L254.41 123.42L246.88 131.56L249.69 142.79L260.02 145.88ZM200.84 138.58L198.03 127.36L187.70 124.28L180.19 132.42L183.01 143.64L193.33 146.72ZM183.01 143.64L180.19 132.42L169.86 129.35L162.36 137.49L165.17 148.70L175.50 151.78ZM205.55 119.22L202.73 107.99L192.40 104.91L184.89 113.06L187.70 124.28L198.03 127.36ZM187.70 124.28L184.89 113.06L174.56 109.98L167.05 118.13L169.86 129.35L180.19 132.42ZM213.98 152.88L211.17 141.66L200.84 138.58L193.33 146.72L196.14 157.94L206.47 161.02ZM196.14 157.94L193.33 146.72L183.01 143.64L175.50 151.78L178.31 162.99L188.63 166.07ZM218.69 133.53L215.88 122.30L205.55 119.22L198.03 127.36L200.84 138.58L211.17 141.66ZM259.13 104.05L256.32 92.82L245.98 89.73L238.45 97.87L241.26 109.10L251.60 112.19ZM263.86 84.67L261.05 73.43L250.70 70.35L243.17 78.49L245.98 89.73L256.32 92.82ZM272.28 118.38L269.47 107.14L259.13 104.05L251.60 112.19L254.41 123.42L264.75 126.51ZM228.11 94.79L225.30 83.56L214.96 80.47L207.44 88.62L210.25 99.85L220.59 102.93ZM210.25 99.85L207.44 88.62L197.10 85.54L189.58 93.69L192.40 104.91L202.73 107.99ZM232.83 75.41L230.02 64.17L219.67 61.09L212.15 69.24L214.96 80.47L225.30 83.56ZM214.96 80.47L212.15 69.24L201.81 66.16L194.29 74.31L197.10 85.54L207.44 88.62ZM241.26 109.10L238.45 97.87L228.11 94.79L220.59 102.93L223.40 114.16L233.74 117.25ZM223.40 114.16L220.59 102.93L210.25 99.85L202.73 107.99L205.55 119.22L215.88 122.30ZM245.98 89.73L243.17 78.49L232.83 75.41L225.30 83.56L228.11 94.79L238.45 97.87ZM271.24 190.78L268.44 179.55L258.11 176.46L250.58 184.59L253.39 195.81L263.71 198.90ZM253.39 195.81L250.58 184.59L240.26 181.50L232.74 189.63L235.55 200.84L245.87 203.93ZM275.96 171.43L273.16 160.20L262.83 157.11L255.30 165.24L258.11 176.46L268.44 179.55ZM258.11 176.46L255.30 165.24L244.97 162.15L237.45 170.28L240.26 181.50L250.58 184.59ZM266.52 210.12L263.71 198.90L253.39 195.81L245.87 203.93L248.67 215.15L259.00 218.24ZM222.41 186.54L219.61 175.32L209.28 172.24L201.77 180.37L204.58 191.58L214.90 194.67ZM204.58 191.58L201.77 180.37L191.45 177.29L183.94 185.42L186.75 196.63L197.07 199.71ZM227.12 167.19L224.31 155.97L213.98 152.88L206.47 161.02L209.28 172.24L219.61 175.32ZM209.28 172.24L206.47 161.02L196.14 157.94L188.63 166.07L191.45 177.29L201.77 180.37ZM235.55 200.84L232.74 189.63L222.41 186.54L214.90 194.67L217.71 205.88L228.03 208.97ZM217.71 205.88L214.90 194.67L204.58 191.58L197.07 199.71L199.88 210.92L210.20 214.00ZM240.26 181.50L237.45 170.28L227.12 167.19L219.61 175.32L222.41 186.54L232.74 189.63ZM264.89 12.16L262.08 0.91L251.72 -2.18L244.18 5.98L246.99 17.23L257.35 20.31ZM269.63 -7.26L266.81 -18.51L256.45 -21.59L248.91 -13.43L251.72 -2.18L262.08 0.91ZM233.83 2.90L231.01 -8.35L220.66 -11.43L213.12 -3.26L215.94 7.98L226.29 11.06ZM215.94 7.98L213.12 -3.26L202.77 -6.34L195.24 1.83L198.06 13.07L208.41 16.14ZM246.99 17.23L244.18 5.98L233.83 2.90L226.29 11.06L229.11 22.30L239.46 25.39ZM229.11 22.30L226.29 11.06L215.94 7.98L208.41 16.14L211.23 27.38L221.57 30.46ZM251.72 -2.18L248.91 -13.43L238.55 -16.51L231.01 -8.35L233.83 2.90L244.18 5.98ZM255.43 50.96L252.62 39.71L242.27 36.63L234.74 44.78L237.55 56.02L247.89 59.11ZM237.55 56.02L234.74 44.78L224.39 41.70L216.86 49.86L219.67 61.09L230.02 64.17ZM260.16 31.56L257.35 20.31L246.99 17.23L239.46 25.39L242.27 36.63L252.62 39.71ZM242.27 36.63L239.46 25.39L229.11 22.30L221.57 30.46L224.39 41.70L234.74 44.78ZM268.59 65.29L265.78 54.04L255.43 50.96L247.89 59.11L250.70 70.35L261.05 73.43ZM250.70 70.35L247.89 59.11L237.55 56.02L230.02 64.17L232.83 75.41L243.17 78.49ZM273.32 45.89L270.51 34.65L260.16 31.56L252.62 39.71L255.43 50.96L265.78 54.04ZM274.92 243.77L272.12 232.55L261.80 229.46L254.28 237.58L257.08 248.79L267.40 251.89Z"/><path data-band="3" fill="#dc2626" fill-opacity="0.35" d="M37.51 58.94L34.67 47.73L24.35 44.68L16.87 52.85L19.71 64.05L30.03 67.10ZM19.71 64.05L16.87 52.85L6.55 49.80L-0.92 57.96L1.92 69.17L12.23 72.21ZM50.66 73.21L47.83 61.99L37.51 58.94L30.03 67.10L32.86 78.31L43.18 81.36ZM59.97 34.46L57.14 23.24L46.81 20.19L39.32 28.35L42.16 39.57L52.48 42.62ZM42.16 39.57L39.32 28.35L29.00 25.31L21.51 33.47L24.35 44.68L34.67 47.73ZM64.63 15.07L61.80 3.85L51.46 0.80L43.97 8.97L46.81 20.19L57.14 23.24ZM46.81 20.19L43.97 8.97L33.64 5.92L26.16 14.09L29.00 25.31L39.32 28.35ZM73.13 48.73L70.30 37.51L59.97 34.46L52.48 42.62L55.32 53.83L65.64 56.89ZM55.32 53.83L52.48 42.62L42.16 39.57L34.67 47.73L37.51 58.94L47.83 61.99ZM77.79 29.35L74.96 18.13L64.63 15.07L57.14 23.24L59.97 34.46L70.30 37.51ZM11.19 30.43L8.35 19.21L-1.97 16.17L-9.45 24.34L-6.61 35.55L3.71 38.59ZM15.83 11.04L12.99 -0.17L2.66 -3.21L-4.82 4.96L-1.97 16.17L8.35 19.21ZM24.35 44.68L21.51 33.47L11.19 30.43L3.71 38.59L6.55 49.80L16.87 52.85ZM29.00 25.31L26.16 14.09L15.83 11.04L8.35 19.21L11.19 30.43L21.51 33.47ZM63.82 87.47L60.98 76.26L50.66 73.21L43.18 81.36L46.01 92.57L56.33 95.62ZM86.29 63.00L83.46 51.79L73.13 48.73L65.64 56.89L68.47 68.10L78.80 71.16ZM68.47 68.10L65.64 56.89L55.32 53.83L47.83 61.99L50.66 73.21L60.98 76.26ZM69.29 -4.32L66.46 -15.54L56.12 -18.60L48.63 -10.42L51.46 0.80L61.80 3.85ZM100.30 4.85L97.47 -6.38L87.13 -9.43L79.63 -1.26L82.46 9.96L92.79 13.02ZM82.46 9.96L79.63 -1.26L69.29 -4.32L61.80 3.85L64.63 15.07L74.96 18.13ZM51.46 0.80L48.63 -10.42L38.29 -13.47L30.80 -5.30L33.64 5.92L43.97 8.97ZM33.64 5.92L30.80 -5.30L20.48 -8.34L12.99 -0.17L15.83 11.04L26.16 14.09ZM139.79 47.72L136.96 36.49L126.63 33.43L119.12 41.59L121.95 52.81L132.28 55.88ZM162.33 23.24L159.51 12.01L149.16 8.94L141.65 17.10L144.47 28.33L154.81 31.40ZM144.47 28.33L141.65 17.10L131.31 14.04L123.80 22.20L126.63 33.43L136.96 36.49ZM108.79 38.53L105.96 27.30L95.62 24.24L88.12 32.41L90.96 43.63L101.28 46.69ZM90.96 43.63L88.12 32.41L77.79 29.35L70.30 37.51L73.13 48.73L83.46 51.79ZM113.46 19.14L110.63 7.91L100.30 4.85L92.79 13.02L95.62 24.24L105.96 27.30ZM95.62 24.24L92.79 13.02L82.46 9.96L74.96 18.13L77.79 29.35L88.12 32.41ZM121.95 52.81L119.12 41.59L108.79 38.53L101.28 46.69L104.11 57.91L114.44 60.97ZM104.11 57.91L101.28 46.69L90.96 43.63L83.46 51.79L86.29 63.00L96.61 66.06ZM126.63 33.43L123.80 22.20L113.46 19.14L105.96 27.30L108.79 38.53L119.12 41.59ZM136.00 -5.36L133.17 -16.59L122.82 -19.66L115.31 -11.49L118.14 -0.26L128.48 2.81ZM118.14 -0.26L115.31 -11.49L104.97 -14.55L97.47 -6.38L100.30 4.85L110.63 7.91ZM149.16 8.94L146.34 -2.29L136.00 -5.36L128.48 2.81L131.31 14.04L141.65 17.10ZM131.31 14.04L128.48 2.81L118.14 -0.26L110.63 7.91L113.46 19.14L123.80 22.20Z"/></svg>
