<svg xmlns="http://www.w3.org/2000/svg" width="256" height="256" viewBox="0 0 256 256"><path data-band="1" fill="#fde68a" fill-opacity="0.35" d="M94.36 -1.86L91.55 -13.01L81.29 -16.09L73.84 -8.01L76.66 3.14L86.91 6.21ZM76.66 3.14L73.84 -8.01L63.59 -11.08L56.15 -3.01L58.96 8.14L69.22 11.21ZM45.90 -6.08L43.08 -17.22L32.83 -20.29L25.39 -12.21L28.21 -1.07L38.46 2.00ZM28.21 -1.07L25.39 -12.21L15.14 -15.28L7.71 -7.20L10.53 3.94L20.78 7.01ZM275.47 1.09L272.68 -10.08L262.40 -13.19L254.92 -5.12L257.71 6.05L267.98 9.15ZM257.71 6.05L254.92 -5.12L244.64 -8.23L237.15 -0.16L239.95 11.01L250.22 14.11ZM270.77 20.33L267.98 9.15L257.71 6.05L250.22 14.11L253.01 25.28L263.29 28.39ZM226.88 -3.26L224.08 -14.43L213.81 -17.53L206.33 -9.45L209.13 1.71L219.40 4.81ZM209.13 1.71L206.33 -9.45L196.06 -12.55L188.59 -4.48L191.39 6.68L201.65 9.78ZM239.95 11.01L237.15 -0.16L226.88 -3.26L219.40 4.81L222.20 15.97L232.47 19.07ZM222.20 15.97L219.40 4.81L209.13 1.71L201.65 9.78L204.45 20.94L214.72 24.04ZM248.32 44.51L245.53 33.34L235.26 30.24L227.78 38.30L230.58 49.46L240.84 52.56ZM230.58 49.46L227.78 38.30L217.51 35.20L210.04 43.26L212.84 54.42L223.10 57.52ZM253.01 25.28L250.22 14.11L239.95 11.01L232.47 19.07L235.26 30.24L245.53 33.34ZM235.26 30.24L232.47 19.07L222.20 15.97L214.72 24.04L217.51 35.20L227.78 38.30ZM261.38 58.78L258.59 47.61L248.32 44.51L240.84 52.56L243.63 63.73L253.90 66.83ZM243.63 63.73L240.84 52.56L230.58 49.46L223.10 57.52L225.89 68.68L236.16 71.78ZM266.08 39.55L263.29 28.39L253.01 25.28L245.53 33.34L248.32 44.51L258.59 47.61ZM151.27 35.86L148.46 24.70L138.20 21.62L130.75 29.68L133.55 40.83L143.81 43.92ZM133.55 40.83L130.75 29.68L120.49 26.60L113.04 34.67L115.85 45.81L126.10 48.90ZM155.92 16.64L153.12 5.48L142.86 2.39L135.40 10.46L138.20 21.62L148.46 24.70ZM138.20 21.62L135.40 10.46L125.14 7.38L117.69 15.45L120.49 26.60L130.75 29.68ZM164.33 50.10L161.53 38.94L151.27 35.86L143.81 43.92L146.61 55.07L156.87 58.16ZM146.61 55.07L143.81 43.92L133.55 40.83L126.10 48.90L128.91 60.04L139.16 63.13ZM168.99 30.88L166.19 19.73L155.92 16.64L148.46 24.70L151.27 35.86L161.53 38.94ZM102.79 31.58L99.98 20.44L89.72 17.36L82.28 25.43L85.09 36.57L95.34 39.65ZM85.09 36.57L82.28 25.43L72.03 22.35L64.59 30.42L67.40 41.56L77.65 44.64ZM107.43 12.37L104.62 1.22L94.36 -1.86L86.91 6.21L89.72 17.36L99.98 20.44ZM89.72 17.36L86.91 6.21L76.66 3.14L69.22 11.21L72.03 22.35L82.28 25.43ZM115.85 45.81L113.04 34.67L102.79 31.58L95.34 39.65L98.15 50.79L108.40 53.88ZM98.15 50.79L95.34 39.65L85.09 36.57L77.65 44.64L80.46 55.78L90.71 58.86ZM120.49 26.60L117.69 15.45L107.43 12.37L99.98 20.44L102.79 31.58L113.04 34.67ZM178.32 -7.57L175.52 -18.73L165.24 -21.82L157.78 -13.75L160.58 -2.59L170.85 0.50ZM160.58 -2.59L157.78 -13.75L147.51 -16.84L140.05 -8.76L142.86 2.39L153.12 5.48ZM191.39 6.68L188.59 -4.48L178.32 -7.57L170.85 0.50L173.65 11.66L183.92 14.75ZM173.65 11.66L170.85 0.50L160.58 -2.59L153.12 5.48L155.92 16.64L166.19 19.73ZM112.07 -6.86L109.26 -18.01L99.00 -21.09L91.55 -13.01L94.36 -1.86L104.62 1.22ZM142.86 2.39L140.05 -8.76L129.79 -11.85L122.33 -3.77L125.14 7.38L135.40 10.46ZM125.14 7.38L122.33 -3.77L112.07 -6.86L104.62 1.22L107.43 12.37L117.69 15.45ZM172.72 83.55L169.93 72.40L159.67 69.31L152.22 77.36L155.02 88.51L165.27 91.60ZM155.02 88.51L152.22 77.36L141.96 74.27L134.51 82.33L137.32 93.47L147.56 96.56ZM177.38 64.34L174.59 53.19L164.33 50.10L156.87 58.16L159.67 69.31L169.93 72.40ZM159.67 69.31L156.87 58.16L146.61 55.07L139.16 63.13L141.96 74.27L152.22 77.36ZM185.77 97.79L182.98 86.64L172.72 83.55L165.27 91.60L168.07 102.74L178.32 105.84ZM168.07 102.74L165.27 91.60L155.02 88.51L147.56 96.56L150.36 107.70L160.61 110.80ZM190.44 78.59L187.64 67.44L177.38 64.34L169.93 72.40L172.72 83.55L182.98 86.64ZM124.26 79.24L121.46 68.10L111.21 65.02L103.77 73.08L106.57 84.22L116.82 87.30ZM106.57 84.22L103.77 73.08L93.52 70.00L86.08 78.06L88.89 89.19L99.13 92.27ZM128.91 60.04L126.10 48.90L115.85 45.81L108.40 53.88L111.21 65.02L121.46 68.10ZM111.21 65.02L108.40 53.88L98.15 50.79L90.71 58.86L93.52 70.00L103.77 73.08ZM137.32 93.47L134.51 82.33L124.26 79.24L116.82 87.30L119.62 98.44L129.87 101.53ZM119.62 98.44L116.82 87.30L106.57 84.22L99.13 92.27L101.94 103.41L112.18 106.49ZM141.96 74.27L139.16 63.13L128.91 60.04L121.46 68.10L124.26 79.24L134.51 82.33ZM199.78 40.16L196.98 29.00L186.72 25.91L179.25 33.97L182.05 45.13L192.31 48.22ZM182.05 45.13L179.25 33.97L168.99 30.88L161.53 38.94L164.33 50.10L174.59 53.19ZM204.45 20.94L201.65 9.78L191.39 6.68L183.92 14.75L186.72 25.91L196.98 29.00ZM186.72 25.91L183.92 14.75L173.65 11.66L166.19 19.73L168.99 30.88L179.25 33.97ZM212.84 54.42L210.04 43.26L199.78 40.16L192.31 48.22L195.11 59.38L205.37 62.48ZM195.11 59.38L192.31 48.22L182.05 45.13L174.59 53.19L177.38 64.34L187.64 67.44ZM217.51 35.20L214.72 24.04L204.45 20.94L196.98 29.00L199.78 40.16L210.04 43.26ZM267.69 235.88L264.90 224.74L254.66 221.63L247.20 229.66L249.98 240.79L260.22 243.90ZM272.37 216.72L269.59 205.58L259.34 202.47L251.88 210.49L254.66 221.63L264.90 224.74ZM241.63 207.38L238.85 196.24L228.60 193.14L221.15 201.17L223.93 212.30L234.17 215.41ZM223.93 212.30L221.15 201.17L210.90 198.06L203.45 206.09L206.24 217.22L216.48 220.33ZM242.63 135.59L239.84 124.44L229.59 121.34L222.12 129.38L224.91 140.53L235.17 143.64ZM224.91 140.53L222.12 129.38L211.87 126.28L204.41 134.33L207.20 145.47L217.45 148.57ZM247.31 116.40L244.53 105.25L234.27 102.14L226.80 110.19L229.59 121.34L239.84 124.44ZM229.59 121.34L226.80 110.19L216.54 107.09L209.08 115.13L211.87 126.28L222.12 129.38ZM255.67 149.85L252.89 138.70L242.63 135.59L235.17 143.64L237.95 154.78L248.21 157.89ZM237.95 154.78L235.17 143.64L224.91 140.53L217.45 148.57L220.24 159.71L230.49 162.82ZM260.36 130.66L257.57 119.51L247.31 116.40L239.84 124.44L242.63 135.59L252.89 138.70ZM194.16 131.23L191.36 120.08L181.11 116.98L173.66 125.03L176.45 136.17L186.70 139.27ZM176.45 136.17L173.66 125.03L163.41 121.94L155.96 129.98L158.76 141.12L169.00 144.22ZM198.82 112.03L196.03 100.89L185.77 97.79L178.32 105.84L181.11 116.98L191.36 120.08ZM181.11 116.98L178.32 105.84L168.07 102.74L160.61 110.80L163.41 121.94L173.66 125.03ZM207.20 145.47L204.41 134.33L194.16 131.23L186.70 139.27L189.50 150.41L199.74 153.51ZM189.50 150.41L186.70 139.27L176.45 136.17L169.00 144.22L171.80 155.35L182.04 158.45ZM211.87 126.28L209.08 115.13L198.82 112.03L191.36 120.08L194.16 131.23L204.41 134.33ZM269.74 92.26L266.96 81.10L256.69 77.99L249.21 86.04L252.00 97.20L262.26 100.31ZM252.00 97.20L249.21 86.04L238.95 82.94L231.48 90.99L234.27 102.14L244.53 105.25ZM274.44 73.05L271.65 61.88L261.38 58.78L253.90 66.83L256.69 77.99L266.96 81.10ZM256.69 77.99L253.90 66.83L243.63 63.73L236.16 71.78L238.95 82.94L249.21 86.04ZM265.05 111.46L262.26 100.31L252.00 97.20L244.53 105.25L247.31 116.40L257.57 119.51ZM221.22 87.88L218.42 76.73L208.16 73.63L200.70 81.68L203.49 92.84L213.75 95.94ZM203.49 92.84L200.70 81.68L190.44 78.59L182.98 86.64L185.77 97.79L196.03 100.89ZM225.89 68.68L223.10 57.52L212.84 54.42L205.37 62.48L208.16 73.63L218.42 76.73ZM208.16 73.63L205.37 62.48L195.11 59.38L187.64 67.44L190.44 78.59L200.70 81.68ZM234.27 102.14L231.48 90.99L221.22 87.88L213.75 95.94L216.54 107.09L226.80 110.19ZM216.54 107.09L213.75 95.94L203.49 92.84L196.03 100.89L198.82 112.03L209.08 115.13ZM238.95 82.94L236.16 71.78L225.89 68.68L218.42 76.73L221.22 87.88L231.48 90.99ZM264.03 183.29L261.24 172.15L250.99 169.04L243.53 177.07L246.31 188.21L256.56 191.32ZM246.31 188.21L243.53 177.07L233.28 173.96L225.82 182.00L228.60 193.14L238.85 196.24ZM268.71 164.11L265.93 152.96L255.67 149.85L248.21 157.89L250.99 169.04L261.24 172.15ZM250.99 169.04L248.21 157.89L237.95 154.78L230.49 162.82L233.28 173.96L243.53 177.07ZM259.34 202.47L256.56 191.32L246.31 188.21L238.85 196.24L241.63 207.38L251.88 210.49ZM215.57 178.89L212.78 167.75L202.53 164.65L195.08 172.69L197.87 183.82L208.11 186.93ZM197.87 183.82L195.08 172.69L184.84 169.59L177.39 177.62L180.18 188.76L190.42 191.86ZM220.24 159.71L217.45 148.57L207.20 145.47L199.74 153.51L202.53 164.65L212.78 167.75ZM202.53 164.65L199.74 153.51L189.50 150.41L182.04 158.45L184.84 169.59L195.08 172.69ZM228.60 193.14L225.82 182.00L215.57 178.89L208.11 186.93L210.90 198.06L221.15 201.17ZM210.90 198.06L208.11 186.93L197.87 183.82L190.42 191.86L193.21 202.99L203.45 206.09ZM233.28 173.96L230.49 162.82L220.24 159.71L212.78 167.75L215.57 178.89L225.82 182.00ZM273.40 144.93L270.62 133.77L260.36 130.66L252.89 138.70L255.67 149.85L265.93 152.96ZM12.88 199.96L10.07 188.85L-0.15 185.78L-7.55 193.82L-4.74 204.93L5.48 208.00ZM22.07 161.65L19.26 150.53L9.03 147.46L1.63 155.51L4.44 166.62L14.66 169.69ZM4.44 166.62L1.63 155.51L-8.60 152.44L-16.00 160.49L-13.18 171.60L-2.97 174.67ZM26.67 142.48L23.86 131.36L13.63 128.30L6.22 136.35L9.03 147.46L19.26 150.53ZM9.03 147.46L6.22 136.35L-4.01 133.28L-11.41 141.33L-8.60 152.44L1.63 155.51ZM17.47 180.81L14.66 169.69L4.44 166.62L-2.97 174.67L-0.15 185.78L10.07 188.85ZM27.44 70.75L24.63 59.62L14.39 56.55L6.97 64.61L9.78 75.74L20.02 78.81ZM9.78 75.74L6.97 64.61L-3.27 61.55L-10.69 69.62L-7.87 80.74L2.37 83.80ZM32.05 51.55L29.23 40.42L18.99 37.35L11.57 45.42L14.39 56.55L24.63 59.62ZM14.39 56.55L11.57 45.42L1.33 42.35L-6.09 50.42L-3.27 61.55L6.97 64.61ZM40.49 84.95L37.68 73.82L27.44 70.75L20.02 78.81L22.84 89.94L33.07 93.01ZM22.84 89.94L20.02 78.81L9.78 75.74L2.37 83.80L5.18 94.93L15.42 98.00ZM45.11 65.76L42.29 54.62L32.05 51.55L24.63 59.62L27.44 70.75L37.68 73.82ZM54.34 27.35L51.53 16.21L41.28 13.14L33.85 21.21L36.66 32.35L46.91 35.42ZM36.66 32.35L33.85 21.21L23.60 18.14L16.17 26.22L18.99 37.35L29.23 40.42ZM58.96 8.14L56.15 -3.01L45.90 -6.08L38.46 2.00L41.28 13.14L51.53 16.21ZM41.28 13.14L38.46 2.00L28.21 -1.07L20.78 7.01L23.60 18.14L33.85 21.21ZM67.40 41.56L64.59 30.42L54.34 27.35L46.91 35.42L49.72 46.56L59.97 49.63ZM49.72 46.56L46.91 35.42L36.66 32.35L29.23 40.42L32.05 51.55L42.29 54.62ZM72.03 22.35L69.22 11.21L58.96 8.14L51.53 16.21L54.34 27.35L64.59 30.42ZM5.93 23.15L3.11 12.02L-7.14 8.95L-14.56 17.03L-11.73 28.16L-1.49 31.22ZM10.53 3.94L7.71 -7.20L-2.53 -10.26L-9.96 -2.18L-7.14 8.95L3.11 12.02ZM18.99 37.35L16.17 26.22L5.93 23.15L-1.49 31.22L1.33 42.35L11.57 45.42ZM1.33 42.35L-1.49 31.22L-11.73 28.16L-19.15 36.23L-16.33 47.36L-6.09 50.42ZM23.60 18.14L20.78 7.01L10.53 3.94L3.11 12.02L5.93 23.15L16.17 26.22ZM48.93 118.33L46.12 107.21L35.88 104.13L28.46 112.19L31.28 123.31L41.51 126.38ZM31.28 123.31L28.46 112.19L18.23 109.12L10.82 117.17L13.63 128.30L23.86 131.36ZM53.54 99.15L50.73 88.02L40.49 84.95L33.07 93.01L35.88 104.13L46.12 107.21ZM35.88 104.13L33.07 93.01L22.84 89.94L15.42 98.00L18.23 109.12L28.46 112.19ZM61.97 132.53L59.17 121.41L48.93 118.33L41.51 126.38L44.32 137.51L54.55 140.58ZM44.32 137.51L41.51 126.38L31.28 123.31L23.86 131.36L26.67 142.48L36.90 145.56ZM66.59 113.36L63.78 102.23L53.54 99.15L46.12 107.21L48.93 118.33L59.17 121.41ZM0.59 114.11L-2.23 102.99L-12.46 99.92L-19.87 107.98L-17.05 119.10L-6.82 122.16ZM5.18 94.93L2.37 83.80L-7.87 80.74L-15.28 88.80L-12.46 99.92L-2.23 102.99ZM13.63 128.30L10.82 117.17L0.59 114.11L-6.82 122.16L-4.01 133.28L6.22 136.35ZM18.23 109.12L15.42 98.00L5.18 94.93L-2.23 102.99L0.59 114.11L10.82 117.17ZM75.84 74.98L73.03 63.84L62.78 60.77L55.35 68.83L58.16 79.96L68.40 83.04ZM58.16 79.96L55.35 68.83L45.11 65.76L37.68 73.82L40.49 84.95L50.73 88.02ZM80.46 55.78L77.65 44.64L67.40 41.56L59.97 49.63L62.78 60.77L73.03 63.84ZM62.78 60.77L59.97 49.63L49.72 46.56L42.29 54.62L45.11 65.76L55.35 68.83ZM88.89 89.19L86.08 78.06L75.84 74.98L68.40 83.04L71.21 94.17L81.45 97.25ZM71.21 94.17L68.40 83.04L58.16 79.96L50.73 88.02L53.54 99.15L63.78 102.23ZM93.52 70.00L90.71 58.86L80.46 55.78L73.03 63.84L75.84 74.98L86.08 78.06ZM118.76 170.20L115.96 159.07L105.72 155.98L98.29 164.03L101.09 175.15L111.32 178.24ZM123.39 151.03L120.59 139.90L110.35 136.81L102.92 144.86L105.72 155.98L115.96 159.07ZM105.72 155.98L102.92 144.86L92.68 141.77L85.25 149.82L88.05 160.94L98.29 164.03ZM136.43 165.25L133.63 154.12L123.39 151.03L115.96 159.07L118.76 170.20L128.99 173.29ZM75.02 146.74L72.21 135.61L61.97 132.53L54.55 140.58L57.36 151.71L67.59 154.78ZM57.36 151.71L54.55 140.58L44.32 137.51L36.90 145.56L39.71 156.68L49.94 159.75ZM88.05 160.94L85.25 149.82L75.02 146.74L67.59 154.78L70.40 165.91L80.63 168.99ZM145.72 126.89L142.92 115.75L132.67 112.66L125.23 120.71L128.03 131.85L138.27 134.94ZM128.03 131.85L125.23 120.71L114.99 117.63L107.55 125.68L110.35 136.81L120.59 139.90ZM150.36 107.70L147.56 96.56L137.32 93.47L129.87 101.53L132.67 112.66L142.92 115.75ZM132.67 112.66L129.87 101.53L119.62 98.44L112.18 106.49L114.99 117.63L125.23 120.71ZM158.76 141.12L155.96 129.98L145.72 126.89L138.27 134.94L141.07 146.07L151.31 149.16ZM141.07 146.07L138.27 134.94L128.03 131.85L120.59 139.90L123.39 151.03L133.63 154.12ZM163.41 121.94L160.61 110.80L150.36 107.70L142.92 115.75L145.72 126.89L155.96 129.98ZM97.31 122.59L94.50 111.46L84.26 108.38L76.83 116.43L79.64 127.56L89.87 130.64ZM79.64 127.56L76.83 116.43L66.59 113.36L59.17 121.41L61.97 132.53L72.21 135.61ZM101.94 103.41L99.13 92.27L88.89 89.19L81.45 97.25L84.26 108.38L94.50 111.46ZM84.26 108.38L81.45 97.25L71.21 94.17L63.78 102.23L66.59 113.36L76.83 116.43ZM110.35 136.81L107.55 125.68L97.31 122.59L89.87 130.64L92.68 141.77L102.92 144.86ZM92.68 141.77L89.87 130.64L79.64 127.56L72.21 135.61L75.02 146.74L85.25 149.82ZM114.99 117.63L112.18 106.49L101.94 103.41L94.50 111.46L97.31 122.59L107.55 125.68ZM167.15 174.53L164.35 163.39L154.11 160.30L146.67 168.34L149.46 179.47L159.70 182.56ZM149.46 179.47L146.67 168.34L136.43 165.25L128.99 173.29L131.79 184.41L142.03 187.51ZM171.80 155.35L169.00 144.22L158.76 141.12L151.31 149.16L154.11 160.30L164.35 163.39ZM154.11 160.30L151.31 149.16L141.07 146.07L133.63 154.12L136.43 165.25L146.67 168.34ZM184.84 169.59L182.04 158.45L171.80 155.35L164.35 163.39L167.15 174.53L177.39 177.62Z"/></svg>
