<svg xmlns="http://www.w3.org/2000/svg" width="256" height="256" viewBox="0 0 256 256"><path data-band="1" fill="#fde68a" fill-opacity="0.35" d="M260.28 57.14L259.55 54.27L256.90 53.53L254.98 55.66L255.71 58.53L258.36 59.27ZM257.90 67.14L257.17 64.27L254.52 63.53L252.60 65.65L253.33 68.52L255.98 69.27ZM259.09 62.14L258.36 59.27L255.71 58.53L253.79 60.66L254.52 63.53L257.17 64.27ZM260.67 19.88L259.94 17.00L257.28 16.26L255.36 18.39L256.09 21.27L258.75 22.01ZM256.09 21.27L255.36 18.39L252.70 17.65L250.78 19.79L251.51 22.66L254.16 23.40ZM259.67 6.23L258.94 3.35L256.28 2.61L254.35 4.75L255.09 7.63L257.75 8.37ZM251.83 216.64L251.11 213.79L248.48 213.04L246.58 215.14L247.31 217.99L249.93 218.74ZM247.31 217.99L246.58 215.14L243.95 214.39L242.05 216.49L242.78 219.34L245.40 220.09ZM253.01 211.69L252.29 208.84L249.66 208.10L247.76 210.20L248.48 213.04L251.11 213.79ZM248.48 213.04L247.76 210.20L245.13 209.45L243.23 211.55L243.95 214.39L246.58 215.14ZM255.18 220.23L254.46 217.39L251.83 216.64L249.93 218.74L250.65 221.58L253.28 222.33ZM250.65 221.58L249.93 218.74L247.31 217.99L245.40 220.09L246.13 222.93L248.75 223.68ZM256.36 215.29L255.64 212.44L253.01 211.69L251.11 213.79L251.83 216.64L254.46 217.39ZM242.78 219.34L242.05 216.49L239.43 215.75L237.53 217.85L238.26 220.69L240.88 221.44ZM258.72 205.39L258.00 202.54L255.37 201.79L253.47 203.89L254.19 206.74L256.82 207.49ZM254.19 206.74L253.47 203.89L250.84 203.15L248.94 205.25L249.66 208.10L252.29 208.84ZM259.91 200.44L259.18 197.59L256.55 196.84L254.65 198.94L255.37 201.79L258.00 202.54ZM255.37 201.79L254.65 198.94L252.02 198.20L250.11 200.30L250.84 203.15L253.47 203.89ZM257.54 210.34L256.82 207.49L254.19 206.74L252.29 208.84L253.01 211.69L255.64 212.44ZM249.66 208.10L248.94 205.25L246.31 204.50L244.41 206.60L245.13 209.45L247.76 210.20ZM250.84 203.15L250.11 200.30L247.49 199.55L245.58 201.65L246.31 204.50L248.94 205.25ZM257.35 228.77L256.63 225.93L254.00 225.18L252.10 227.27L252.83 230.12L255.45 230.87ZM252.83 230.12L252.10 227.27L249.48 226.52L247.58 228.62L248.30 231.47L250.92 232.21ZM258.53 223.83L257.81 220.98L255.18 220.23L253.28 222.33L254.00 225.18L256.63 225.93ZM254.00 225.18L253.28 222.33L250.65 221.58L248.75 223.68L249.48 226.52L252.10 227.27ZM260.70 232.37L259.98 229.52L257.35 228.77L255.45 230.87L256.17 233.71L258.80 234.46ZM256.17 233.71L255.45 230.87L252.83 230.12L250.92 232.21L251.65 235.06L254.27 235.81ZM244.95 227.87L244.23 225.03L241.61 224.28L239.71 226.38L240.43 229.22L243.05 229.97ZM240.43 229.22L239.71 226.38L237.08 225.63L235.19 227.73L235.91 230.57L238.53 231.32ZM246.13 222.93L245.40 220.09L242.78 219.34L240.88 221.44L241.61 224.28L244.23 225.03ZM241.61 224.28L240.88 221.44L238.26 220.69L236.36 222.79L237.08 225.63L239.71 226.38ZM248.30 231.47L247.58 228.62L244.95 227.87L243.05 229.97L243.78 232.81L246.40 233.56ZM243.78 232.81L243.05 229.97L240.43 229.22L238.53 231.32L239.26 234.16L241.88 234.91ZM249.48 226.52L248.75 223.68L246.13 222.93L244.23 225.03L244.95 227.87L247.58 228.62ZM259.71 218.88L258.99 216.04L256.36 215.29L254.46 217.39L255.18 220.23L257.81 220.98ZM260.89 213.94L260.17 211.09L257.54 210.34L255.64 212.44L256.36 215.29L258.99 216.04ZM260.10 181.97L259.38 179.12L256.74 178.37L254.84 180.48L255.56 183.33L258.19 184.08ZM255.56 183.33L254.84 180.48L252.20 179.73L250.30 181.84L251.02 184.69L253.65 185.44ZM256.74 178.37L256.02 175.52L253.39 174.77L251.48 176.88L252.20 179.73L254.84 180.48ZM258.92 186.93L258.19 184.08L255.56 183.33L253.65 185.44L254.38 188.29L257.01 189.04ZM247.67 181.09L246.94 178.24L244.31 177.49L242.40 179.60L243.13 182.45L245.76 183.20ZM243.13 182.45L242.40 179.60L239.77 178.86L237.87 180.96L238.60 183.81L241.23 184.56ZM248.85 176.13L248.12 173.28L245.49 172.54L243.58 174.64L244.31 177.49L246.94 178.24ZM244.31 177.49L243.58 174.64L240.95 173.90L239.05 176.01L239.77 178.86L242.40 179.60ZM251.02 184.69L250.30 181.84L247.67 181.09L245.76 183.20L246.49 186.05L249.12 186.79ZM246.49 186.05L245.76 183.20L243.13 182.45L241.23 184.56L241.95 187.41L244.58 188.15ZM252.20 179.73L251.48 176.88L248.85 176.13L246.94 178.24L247.67 181.09L250.30 181.84ZM254.57 169.81L253.84 166.96L251.21 166.21L249.30 168.32L250.03 171.17L252.66 171.92ZM250.03 171.17L249.30 168.32L246.67 167.58L244.76 169.68L245.49 172.54L248.12 173.28ZM255.75 164.85L255.02 162.00L252.39 161.25L250.48 163.36L251.21 166.21L253.84 166.96ZM251.21 166.21L250.48 163.36L247.85 162.61L245.94 164.72L246.67 167.58L249.30 168.32ZM257.93 173.41L257.20 170.56L254.57 169.81L252.66 171.92L253.39 174.77L256.02 175.52ZM253.39 174.77L252.66 171.92L250.03 171.17L248.12 173.28L248.85 176.13L251.48 176.88ZM259.11 168.45L258.39 165.60L255.75 164.85L253.84 166.96L254.57 169.81L257.20 170.56ZM261.09 195.49L260.37 192.64L257.73 191.89L255.83 193.99L256.55 196.84L259.18 197.59ZM253.20 193.24L252.47 190.39L249.84 189.64L247.94 191.75L248.66 194.60L251.29 195.35ZM248.66 194.60L247.94 191.75L245.31 191.00L243.41 193.11L244.13 195.96L246.76 196.70ZM254.38 188.29L253.65 185.44L251.02 184.69L249.12 186.79L249.84 189.64L252.47 190.39ZM249.84 189.64L249.12 186.79L246.49 186.05L244.58 188.15L245.31 191.00L247.94 191.75ZM256.55 196.84L255.83 193.99L253.20 193.24L251.29 195.35L252.02 198.20L254.65 198.94ZM252.02 198.20L251.29 195.35L248.66 194.60L246.76 196.70L247.49 199.55L250.11 200.30ZM257.73 191.89L257.01 189.04L254.38 188.29L252.47 190.39L253.20 193.24L255.83 193.99ZM258.34 242.25L257.62 239.40L254.99 238.65L253.09 240.75L253.82 243.59L256.44 244.34ZM259.52 237.31L258.80 234.46L256.17 233.71L254.27 235.81L254.99 238.65L257.62 239.40ZM223.53 229.69L222.80 226.85L220.18 226.11L218.29 228.21L219.02 231.05L221.64 231.79ZM219.02 231.05L218.29 228.21L215.67 227.46L213.78 229.56L214.51 232.40L217.13 233.14ZM225.71 238.21L224.98 235.37L222.36 234.63L220.47 236.73L221.20 239.57L223.82 240.31ZM221.20 239.57L220.47 236.73L217.85 235.98L215.96 238.08L216.69 240.92L219.31 241.66ZM226.88 233.28L226.15 230.44L223.53 229.69L221.64 231.79L222.36 234.63L224.98 235.37ZM222.36 234.63L221.64 231.79L219.02 231.05L217.13 233.14L217.85 235.98L220.47 236.73ZM229.06 241.80L228.33 238.96L225.71 238.21L223.82 240.31L224.54 243.15L227.16 243.89ZM224.54 243.15L223.82 240.31L221.20 239.57L219.31 241.66L220.03 244.50L222.65 245.24ZM230.22 236.86L229.50 234.02L226.88 233.28L224.98 235.37L225.71 238.21L228.33 238.96ZM217.85 235.98L217.13 233.14L214.51 232.40L212.61 234.50L213.34 237.34L215.96 238.08ZM232.56 226.99L231.84 224.14L229.22 223.40L227.32 225.50L228.05 228.34L230.67 229.08ZM228.05 228.34L227.32 225.50L224.70 224.75L222.80 226.85L223.53 229.69L226.15 230.44ZM235.91 230.57L235.19 227.73L232.56 226.99L230.67 229.08L231.39 231.93L234.02 232.67ZM231.39 231.93L230.67 229.08L228.05 228.34L226.15 230.44L226.88 233.28L229.50 234.02ZM237.08 225.63L236.36 222.79L233.73 222.05L231.84 224.14L232.56 226.99L235.19 227.73ZM235.24 180.22L234.51 177.37L231.88 176.63L229.98 178.73L230.71 181.58L233.34 182.32ZM236.42 175.26L235.69 172.41L233.06 171.67L231.15 173.77L231.88 176.63L234.51 177.37ZM238.60 183.81L237.87 180.96L235.24 180.22L233.34 182.32L234.07 185.17L236.69 185.92ZM234.07 185.17L233.34 182.32L230.71 181.58L228.81 183.69L229.54 186.54L232.16 187.28ZM239.77 178.86L239.05 176.01L236.42 175.26L234.51 177.37L235.24 180.22L237.87 180.96ZM251.58 129.20L250.85 126.34L248.21 125.59L246.30 127.71L247.03 130.57L249.67 131.31ZM254.95 132.80L254.22 129.94L251.58 129.20L249.67 131.31L250.39 134.17L253.03 134.92ZM257.32 122.85L256.59 119.99L253.95 119.24L252.04 121.36L252.76 124.22L255.40 124.97ZM258.51 117.87L257.78 115.01L255.14 114.26L253.22 116.38L253.95 119.24L256.59 119.99ZM260.69 126.46L259.96 123.60L257.32 122.85L255.40 124.97L256.13 127.83L258.77 128.57ZM256.13 127.83L255.40 124.97L252.76 124.22L250.85 126.34L251.58 129.20L254.22 129.94ZM260.08 75.75L259.36 72.88L256.71 72.14L254.79 74.26L255.52 77.13L258.16 77.87ZM261.28 70.75L260.55 67.88L257.90 67.14L255.98 69.27L256.71 72.14L259.36 72.88ZM258.89 80.74L258.16 77.87L255.52 77.13L253.60 79.25L254.33 82.12L256.97 82.86ZM258.70 99.32L257.97 96.45L255.33 95.71L253.41 97.83L254.14 100.69L256.78 101.44ZM259.89 94.33L259.16 91.46L256.51 90.72L254.60 92.84L255.33 95.71L257.97 96.45ZM257.51 104.30L256.78 101.44L254.14 100.69L252.22 102.81L252.95 105.68L255.59 106.42ZM261.08 89.34L260.35 86.47L257.70 85.73L255.78 87.85L256.51 90.72L259.16 91.46ZM255.94 146.35L255.21 143.49L252.58 142.75L250.67 144.86L251.39 147.71L254.03 148.46ZM251.39 147.71L250.67 144.86L248.03 144.11L246.12 146.23L246.85 149.08L249.48 149.83ZM257.13 141.38L256.40 138.52L253.76 137.77L251.85 139.89L252.58 142.75L255.21 143.49ZM259.30 149.95L258.58 147.09L255.94 146.35L254.03 148.46L254.76 151.32L257.39 152.06ZM254.76 151.32L254.03 148.46L251.39 147.71L249.48 149.83L250.21 152.68L252.85 153.43ZM260.49 144.98L259.76 142.12L257.13 141.38L255.21 143.49L255.94 146.35L258.58 147.09ZM258.31 136.41L257.59 133.55L254.95 132.80L253.03 134.92L253.76 137.77L256.40 138.52ZM259.50 131.43L258.77 128.57L256.13 127.83L254.22 129.94L254.95 132.80L257.59 133.55ZM256.93 159.89L256.21 157.03L253.57 156.28L251.66 158.39L252.39 161.25L255.02 162.00ZM258.12 154.92L257.39 152.06L254.76 151.32L252.85 153.43L253.57 156.28L256.21 157.03ZM260.30 163.49L259.57 160.63L256.93 159.89L255.02 162.00L255.75 164.85L258.39 165.60ZM242.13 168.94L241.40 166.09L238.77 165.34L236.86 167.45L237.59 170.30L240.22 171.05ZM237.59 170.30L236.86 167.45L234.23 166.71L232.33 168.82L233.06 171.67L235.69 172.41ZM245.49 172.54L244.76 169.68L242.13 168.94L240.22 171.05L240.95 173.90L243.58 174.64ZM240.95 173.90L240.22 171.05L237.59 170.30L235.69 172.41L236.42 175.26L239.05 176.01ZM246.67 167.58L245.94 164.72L243.31 163.98L241.40 166.09L242.13 168.94L244.76 169.68ZM249.03 157.65L248.30 154.79L245.67 154.05L243.76 156.16L244.49 159.01L247.12 159.76ZM250.21 152.68L249.48 149.83L246.85 149.08L244.94 151.19L245.67 154.05L248.30 154.79ZM252.39 161.25L251.66 158.39L249.03 157.65L247.12 159.76L247.85 162.61L250.48 163.36ZM247.85 162.61L247.12 159.76L244.49 159.01L242.58 161.12L243.31 163.98L245.94 164.72ZM253.57 156.28L252.85 153.43L250.21 152.68L248.30 154.79L249.03 157.65L251.66 158.39ZM259.69 112.89L258.97 110.03L256.32 109.28L254.41 111.40L255.14 114.26L257.78 115.01ZM260.88 107.91L260.16 105.05L257.51 104.30L255.59 106.42L256.32 109.28L258.97 110.03ZM243.60 251.21L242.88 248.37L240.26 247.62L238.36 249.72L239.09 252.56L241.71 253.31ZM239.09 252.56L238.36 249.72L235.74 248.97L233.85 251.06L234.57 253.90L237.19 254.65ZM244.78 246.28L244.05 243.44L241.43 242.69L239.54 244.78L240.26 247.62L242.88 248.37ZM240.26 247.62L239.54 244.78L236.91 244.04L235.02 246.13L235.74 248.97L238.36 249.72ZM246.95 254.80L246.22 251.96L243.60 251.21L241.71 253.31L242.43 256.15L245.05 256.89ZM242.43 256.15L241.71 253.31L239.09 252.56L237.19 254.65L237.92 257.49L240.54 258.24ZM248.12 249.87L247.40 247.03L244.78 246.28L242.88 248.37L243.60 251.21L246.22 251.96ZM231.23 250.32L230.51 247.48L227.89 246.73L226.00 248.83L226.72 251.67L229.34 252.41ZM226.72 251.67L226.00 248.83L223.38 248.08L221.49 250.18L222.21 253.01L224.83 253.76ZM232.40 245.38L231.68 242.54L229.06 241.80L227.16 243.89L227.89 246.73L230.51 247.48ZM227.89 246.73L227.16 243.89L224.54 243.15L222.65 245.24L223.38 248.08L226.00 248.83ZM234.57 253.90L233.85 251.06L231.23 250.32L229.34 252.41L230.06 255.25L232.68 256.00ZM230.06 255.25L229.34 252.41L226.72 251.67L224.83 253.76L225.55 256.60L228.17 257.34ZM235.74 248.97L235.02 246.13L232.40 245.38L230.51 247.48L231.23 250.32L233.85 251.06ZM250.47 240.00L249.75 237.15L247.13 236.41L245.23 238.50L245.95 241.34L248.57 242.09ZM245.95 241.34L245.23 238.50L242.60 237.75L240.71 239.85L241.43 242.69L244.05 243.44ZM251.65 235.06L250.92 232.21L248.30 231.47L246.40 233.56L247.13 236.41L249.75 237.15ZM247.13 236.41L246.40 233.56L243.78 232.81L241.88 234.91L242.60 237.75L245.23 238.50ZM253.82 243.59L253.09 240.75L250.47 240.00L248.57 242.09L249.30 244.93L251.92 245.68ZM249.30 244.93L248.57 242.09L245.95 241.34L244.05 243.44L244.78 246.28L247.40 247.03ZM254.99 238.65L254.27 235.81L251.65 235.06L249.75 237.15L250.47 240.00L253.09 240.75ZM238.09 239.10L237.36 236.26L234.74 235.51L232.84 237.61L233.57 240.45L236.19 241.20ZM233.57 240.45L232.84 237.61L230.22 236.86L228.33 238.96L229.06 241.80L231.68 242.54ZM239.26 234.16L238.53 231.32L235.91 230.57L234.02 232.67L234.74 235.51L237.36 236.26ZM234.74 235.51L234.02 232.67L231.39 231.93L229.50 234.02L230.22 236.86L232.84 237.61ZM241.43 242.69L240.71 239.85L238.09 239.10L236.19 241.20L236.91 244.04L239.54 244.78ZM236.91 244.04L236.19 241.20L233.57 240.45L231.68 242.54L232.40 245.38L235.02 246.13ZM242.60 237.75L241.88 234.91L239.26 234.16L237.36 236.26L238.09 239.10L240.71 239.85ZM250.29 258.39L249.57 255.55L246.95 254.80L245.05 256.89L245.77 259.73L248.39 260.48ZM233.41 258.83L232.68 256.00L230.06 255.25L228.17 257.34L228.90 260.18L231.51 260.93ZM260.50 250.78L259.78 247.93L257.16 247.18L255.26 249.28L255.98 252.12L258.60 252.87ZM213.20 255.71L212.47 252.88L209.86 252.14L207.97 254.23L208.70 257.06L211.31 257.81ZM208.70 257.06L207.97 254.23L205.36 253.49L203.47 255.58L204.20 258.42L206.81 259.16ZM216.54 259.29L215.82 256.46L213.20 255.71L211.31 257.81L212.04 260.64L214.65 261.38ZM218.87 249.43L218.14 246.60L215.52 245.85L213.64 247.95L214.36 250.78L216.98 251.53ZM214.36 250.78L213.64 247.95L211.02 247.20L209.13 249.30L209.86 252.14L212.47 252.88ZM220.03 244.50L219.31 241.66L216.69 240.92L214.80 243.01L215.52 245.85L218.14 246.60ZM215.52 245.85L214.80 243.01L212.18 242.27L210.29 244.37L211.02 247.20L213.64 247.95ZM222.21 253.01L221.49 250.18L218.87 249.43L216.98 251.53L217.71 254.36L220.32 255.11ZM217.71 254.36L216.98 251.53L214.36 250.78L212.47 252.88L213.20 255.71L215.82 256.46ZM223.38 248.08L222.65 245.24L220.03 244.50L218.14 246.60L218.87 249.43L221.49 250.18ZM206.51 248.56L205.79 245.72L203.17 244.98L201.28 247.08L202.01 249.91L204.63 250.65ZM209.86 252.14L209.13 249.30L206.51 248.56L204.63 250.65L205.36 253.49L207.97 254.23ZM211.02 247.20L210.29 244.37L207.67 243.63L205.79 245.72L206.51 248.56L209.13 249.30ZM225.55 256.60L224.83 253.76L222.21 253.01L220.32 255.11L221.05 257.94L223.66 258.69ZM221.05 257.94L220.32 255.11L217.71 254.36L215.82 256.46L216.54 259.29L219.16 260.04Z"/></svg>
