<svg xmlns="http://www.w3.org/2000/svg" width="256" height="256" viewBox="0 0 256 256"><path data-band="1" fill="#fde68a" fill-opacity="0.35" d="M199.72 260.57L198.27 254.74L192.88 253.24L188.94 257.55L190.40 263.37L195.78 264.88ZM211.53 247.62L210.08 241.79L204.69 240.28L200.75 244.60L202.20 250.43L207.59 251.93ZM202.20 250.43L200.75 244.60L195.36 243.10L191.43 247.42L192.88 253.24L198.27 254.74ZM209.04 257.76L207.59 251.93L202.20 250.43L198.27 254.74L199.72 260.57L205.10 262.07ZM174.25 258.86L172.79 253.05L167.41 251.54L163.48 255.86L164.93 261.68L170.32 263.18ZM164.93 261.68L163.48 255.86L158.10 254.36L154.17 258.68L155.63 264.50L161.01 266.00ZM195.36 243.10L193.91 237.27L188.52 235.77L184.58 240.09L186.04 245.91L191.43 247.42Z"/></svg>
