<svg xmlns="http://www.w3.org/2000/svg" width="256" height="256" viewBox="0 0 256 256"><path data-band="1" fill="#fde68a" fill-opacity="0.35" d="M173.80 180.90L172.35 175.11L167.00 173.60L163.09 177.89L164.54 183.68L169.89 185.19ZM164.54 183.68L163.09 177.89L157.74 176.38L153.83 180.67L155.28 186.46L160.63 187.96ZM176.26 170.82L174.81 165.03L169.46 163.52L165.55 167.81L167.00 173.60L172.35 175.11ZM167.00 173.60L165.55 167.81L160.19 166.30L156.29 170.59L157.74 176.38L163.09 177.89ZM180.60 188.21L179.15 182.41L173.80 180.90L169.89 185.19L171.34 190.98L176.69 192.49ZM171.34 190.98L169.89 185.19L164.54 183.68L160.63 187.96L162.08 193.75L167.43 195.26ZM183.06 178.13L181.62 172.33L176.26 170.82L172.35 175.11L173.80 180.90L179.15 182.41ZM148.48 179.16L147.03 173.37L141.68 171.87L137.77 176.16L139.23 181.94L144.58 183.45ZM139.23 181.94L137.77 176.16L132.42 174.65L128.53 178.94L129.98 184.73L135.33 186.23ZM150.93 169.08L149.48 163.29L144.13 161.79L140.22 166.08L141.68 171.87L147.03 173.37ZM141.68 171.87L140.22 166.08L134.87 164.58L130.97 168.87L132.42 174.65L137.77 176.16ZM155.28 186.46L153.83 180.67L148.48 179.16L144.58 183.45L146.03 189.23L151.38 190.74ZM146.03 189.23L144.58 183.45L139.23 181.94L135.33 186.23L136.78 192.01L142.13 193.52ZM157.74 176.38L156.29 170.59L150.93 169.08L147.03 173.37L148.48 179.16L153.83 180.67ZM188.00 157.97L186.55 152.17L181.19 150.66L177.28 154.95L178.72 160.74L184.08 162.25ZM178.72 160.74L177.28 154.95L171.92 153.44L168.01 157.73L169.46 163.52L174.81 165.03ZM190.47 147.88L189.02 142.08L183.66 140.57L179.74 144.86L181.19 150.66L186.55 152.17ZM181.19 150.66L179.74 144.86L174.38 143.35L170.47 147.64L171.92 153.44L177.28 154.95ZM194.80 165.28L193.36 159.48L188.00 157.97L184.08 162.25L185.53 168.05L190.89 169.56ZM185.53 168.05L184.08 162.25L178.72 160.74L174.81 165.03L176.26 170.82L181.62 172.33ZM197.27 155.19L195.83 149.39L190.47 147.88L186.55 152.17L188.00 157.97L193.36 159.48ZM162.65 156.22L161.20 150.43L155.84 148.92L151.93 153.21L153.39 159.00L158.74 160.51ZM153.39 159.00L151.93 153.21L146.58 151.71L142.67 156.00L144.13 161.79L149.48 163.29ZM165.11 146.14L163.66 140.34L158.30 138.83L154.39 143.13L155.84 148.92L161.20 150.43ZM155.84 148.92L154.39 143.13L149.03 141.62L145.13 145.91L146.58 151.71L151.93 153.21ZM169.46 163.52L168.01 157.73L162.65 156.22L158.74 160.51L160.19 166.30L165.55 167.81ZM160.19 166.30L158.74 160.51L153.39 159.00L149.48 163.29L150.93 169.08L156.29 170.59ZM171.92 153.44L170.47 147.64L165.11 146.14L161.20 150.43L162.65 156.22L168.01 157.73ZM187.40 195.51L185.96 189.72L180.60 188.21L176.69 192.49L178.14 198.28L183.49 199.79ZM178.14 198.28L176.69 192.49L171.34 190.98L167.43 195.26L168.88 201.05L174.23 202.56ZM159.63 203.82L158.18 198.03L152.83 196.53L148.93 200.81L150.38 206.59L155.72 208.10ZM150.38 206.59L148.93 200.81L143.58 199.30L139.68 203.59L141.13 209.37L146.48 210.87ZM162.08 193.75L160.63 187.96L155.28 186.46L151.38 190.74L152.83 196.53L158.18 198.03ZM152.83 196.53L151.38 190.74L146.03 189.23L142.13 193.52L143.58 199.30L148.93 200.81ZM166.42 211.12L164.98 205.33L159.63 203.82L155.72 208.10L157.17 213.89L162.52 215.39ZM157.17 213.89L155.72 208.10L150.38 206.59L146.48 210.87L147.93 216.66L153.27 218.17ZM168.88 201.05L167.43 195.26L162.08 193.75L158.18 198.03L159.63 203.82L164.98 205.33ZM199.14 182.67L197.69 176.87L192.33 175.36L188.42 179.64L189.87 185.43L195.22 186.95ZM189.87 185.43L188.42 179.64L183.06 178.13L179.15 182.41L180.60 188.21L185.96 189.72ZM201.61 172.59L200.16 166.79L194.80 165.28L190.89 169.56L192.33 175.36L197.69 176.87ZM192.33 175.36L190.89 169.56L185.53 168.05L181.62 172.33L183.06 178.13L188.42 179.64ZM196.67 192.74L195.22 186.95L189.87 185.43L185.96 189.72L187.40 195.51L192.76 197.02ZM208.41 179.90L206.97 174.10L201.61 172.59L197.69 176.87L199.14 182.67L204.49 184.18ZM109.06 200.36L107.60 194.58L102.26 193.09L98.37 197.37L99.83 203.15L105.17 204.65ZM99.83 203.15L98.37 197.37L93.03 195.88L89.14 200.16L90.60 205.94L95.94 207.43ZM111.49 190.30L110.04 184.51L104.69 183.02L100.80 187.30L102.26 193.09L107.60 194.58ZM102.26 193.09L100.80 187.30L95.46 185.81L91.57 190.10L93.03 195.88L98.37 197.37ZM115.86 207.64L114.40 201.86L109.06 200.36L105.17 204.65L106.62 210.43L111.97 211.93ZM106.62 210.43L105.17 204.65L99.83 203.15L95.94 207.43L97.40 213.21L102.74 214.71ZM118.29 197.58L116.84 191.80L111.49 190.30L107.60 194.58L109.06 200.36L114.40 201.86ZM90.60 205.94L89.14 200.16L83.80 198.67L79.92 202.95L81.38 208.73L86.72 210.22ZM93.03 195.88L91.57 190.10L86.23 188.60L82.34 192.89L83.80 198.67L89.14 200.16ZM129.98 184.73L128.53 178.94L123.18 177.44L119.28 181.73L120.73 187.51L126.08 189.01ZM120.73 187.51L119.28 181.73L113.93 180.23L110.04 184.51L111.49 190.30L116.84 191.80ZM132.42 174.65L130.97 168.87L125.62 167.37L121.72 171.65L123.18 177.44L128.53 178.94ZM120.21 224.98L118.76 219.20L113.42 217.71L109.53 221.98L110.99 227.76L116.33 229.26ZM110.99 227.76L109.53 221.98L104.19 220.49L100.31 224.77L101.76 230.54L107.10 232.04ZM122.65 214.93L121.20 209.14L115.86 207.64L111.97 211.93L113.42 217.71L118.76 219.20ZM113.42 217.71L111.97 211.93L106.62 210.43L102.74 214.71L104.19 220.49L109.53 221.98ZM127.01 232.26L125.56 226.49L120.21 224.98L116.33 229.26L117.78 235.04L123.12 236.54ZM117.78 235.04L116.33 229.26L110.99 227.76L107.10 232.04L108.55 237.82L113.89 239.32ZM129.45 222.21L128.00 216.43L122.65 214.93L118.76 219.20L120.21 224.98L125.56 226.49ZM94.97 223.27L93.51 217.49L88.17 216.00L84.29 220.28L85.75 226.05L91.08 227.55ZM97.40 213.21L95.94 207.43L90.60 205.94L86.72 210.22L88.17 216.00L93.51 217.49ZM101.76 230.54L100.31 224.77L94.97 223.27L91.08 227.55L92.54 233.32L97.88 234.82ZM92.54 233.32L91.08 227.55L85.75 226.05L81.87 230.33L83.32 236.11L88.66 237.60ZM104.19 220.49L102.74 214.71L97.40 213.21L93.51 217.49L94.97 223.27L100.31 224.77ZM134.33 202.08L132.88 196.30L127.53 194.80L123.64 199.08L125.09 204.86L130.44 206.36ZM125.09 204.86L123.64 199.08L118.29 197.58L114.40 201.86L115.86 207.64L121.20 209.14ZM136.78 192.01L135.33 186.23L129.98 184.73L126.08 189.01L127.53 194.80L132.88 196.30ZM127.53 194.80L126.08 189.01L120.73 187.51L116.84 191.80L118.29 197.58L123.64 199.08ZM141.13 209.37L139.68 203.59L134.33 202.08L130.44 206.36L131.89 212.15L137.24 213.65ZM131.89 212.15L130.44 206.36L125.09 204.86L121.20 209.14L122.65 214.93L128.00 216.43ZM143.58 199.30L142.13 193.52L136.78 192.01L132.88 196.30L134.33 202.08L139.68 203.59ZM191.07 110.28L189.62 104.48L184.25 102.97L180.33 107.26L181.78 113.07L187.15 114.58ZM181.78 113.07L180.33 107.26L174.96 105.76L171.05 110.06L172.50 115.86L177.86 117.36ZM193.54 100.18L192.09 94.37L186.72 92.86L182.80 97.16L184.25 102.97L189.62 104.48ZM184.25 102.97L182.80 97.16L177.43 95.65L173.51 99.95L174.96 105.76L180.33 107.26ZM197.88 117.60L196.44 111.79L191.07 110.28L187.15 114.58L188.60 120.38L193.96 121.89ZM188.60 120.38L187.15 114.58L181.78 113.07L177.86 117.36L179.31 123.17L184.68 124.67ZM200.36 107.50L198.91 101.69L193.54 100.18L189.62 104.48L191.07 110.28L196.44 111.79ZM165.68 108.55L164.23 102.75L158.86 101.24L154.95 105.54L156.40 111.34L161.77 112.85ZM156.40 111.34L154.95 105.54L149.59 104.04L145.68 108.34L147.13 114.14L152.49 115.64ZM168.15 98.45L166.69 92.64L161.33 91.14L157.41 95.44L158.86 101.24L164.23 102.75ZM158.86 101.24L157.41 95.44L152.04 93.94L148.13 98.24L149.59 104.04L154.95 105.54ZM172.50 115.86L171.05 110.06L165.68 108.55L161.77 112.85L163.22 118.65L168.58 120.15ZM163.22 118.65L161.77 112.85L156.40 111.34L152.49 115.64L153.94 121.44L159.31 122.94ZM174.96 105.76L173.51 99.95L168.15 98.45L164.23 102.75L165.68 108.55L171.05 110.06ZM205.31 87.28L203.87 81.47L198.49 79.96L194.57 84.26L196.02 90.07L201.39 91.58ZM196.02 90.07L194.57 84.26L189.19 82.75L185.27 87.05L186.72 92.86L192.09 94.37ZM207.80 77.17L206.35 71.36L200.97 69.85L197.04 74.15L198.49 79.96L203.87 81.47ZM198.49 79.96L197.04 74.15L191.67 72.64L187.75 76.94L189.19 82.75L194.57 84.26ZM212.13 94.60L210.69 88.79L205.31 87.28L201.39 91.58L202.84 97.39L208.21 98.90ZM202.84 97.39L201.39 91.58L196.02 90.07L192.09 94.37L193.54 100.18L198.91 101.69ZM214.62 84.49L213.17 78.68L207.80 77.17L203.87 81.47L205.31 87.28L210.69 88.79ZM170.61 88.34L169.16 82.54L163.79 81.03L159.87 85.34L161.33 91.14L166.69 92.64ZM186.72 92.86L185.27 87.05L179.90 85.55L175.98 89.85L177.43 95.65L182.80 97.16ZM177.43 95.65L175.98 89.85L170.61 88.34L166.69 92.64L168.15 98.45L173.51 99.95ZM189.19 82.75L187.75 76.94L182.37 75.44L178.45 79.74L179.90 85.55L185.27 87.05ZM202.22 135.01L200.78 129.21L195.41 127.69L191.49 131.99L192.94 137.79L198.30 139.30ZM192.94 137.79L191.49 131.99L186.12 130.48L182.21 134.77L183.66 140.57L189.02 142.08ZM204.70 124.91L203.25 119.11L197.88 117.60L193.96 121.89L195.41 127.69L200.78 129.21ZM195.41 127.69L193.96 121.89L188.60 120.38L184.68 124.67L186.12 130.48L191.49 131.99ZM209.03 142.33L207.59 136.52L202.22 135.01L198.30 139.30L199.75 145.10L205.11 146.61ZM199.75 145.10L198.30 139.30L192.94 137.79L189.02 142.08L190.47 147.88L195.83 149.39ZM211.51 132.23L210.07 126.43L204.70 124.91L200.78 129.21L202.22 135.01L207.59 136.52ZM176.85 133.26L175.40 127.46L170.03 125.95L166.12 130.25L167.57 136.05L172.93 137.55ZM167.57 136.05L166.12 130.25L160.76 128.74L156.85 133.04L158.30 138.83L163.66 140.34ZM179.31 123.17L177.86 117.36L172.50 115.86L168.58 120.15L170.03 125.95L175.40 127.46ZM170.03 125.95L168.58 120.15L163.22 118.65L159.31 122.94L160.76 128.74L166.12 130.25ZM183.66 140.57L182.21 134.77L176.85 133.26L172.93 137.55L174.38 143.35L179.74 144.86ZM174.38 143.35L172.93 137.55L167.57 136.05L163.66 140.34L165.11 146.14L170.47 147.64ZM186.12 130.48L184.68 124.67L179.31 123.17L175.40 127.46L176.85 133.26L182.21 134.77ZM216.47 112.03L215.03 106.22L209.65 104.71L205.73 109.01L207.17 114.81L212.54 116.33ZM207.17 114.81L205.73 109.01L200.36 107.50L196.44 111.79L197.88 117.60L203.25 119.11ZM218.95 101.93L217.51 96.12L212.13 94.60L208.21 98.90L209.65 104.71L215.03 106.22ZM209.65 104.71L208.21 98.90L202.84 97.39L198.91 101.69L200.36 107.50L205.73 109.01ZM223.29 119.36L221.84 113.55L216.47 112.03L212.54 116.33L213.99 122.13L219.36 123.65ZM213.99 122.13L212.54 116.33L207.17 114.81L203.25 119.11L204.70 124.91L210.07 126.43ZM225.77 109.25L224.33 103.44L218.95 101.93L215.03 106.22L216.47 112.03L221.84 113.55ZM135.41 127.03L133.95 121.23L128.59 119.73L124.69 124.03L126.15 129.83L131.50 131.32ZM142.77 96.74L141.31 90.94L135.95 89.44L132.04 93.74L133.49 99.54L138.86 101.04ZM147.13 114.14L145.68 108.34L140.31 106.84L136.41 111.14L137.86 116.94L143.22 118.44ZM149.59 104.04L148.13 98.24L142.77 96.74L138.86 101.04L140.31 106.84L145.68 108.34ZM144.13 161.79L142.67 156.00L137.32 154.50L133.42 158.79L134.87 164.58L140.22 166.08ZM151.49 131.53L150.03 125.74L144.67 124.23L140.77 128.53L142.22 134.32L147.58 135.83ZM153.94 121.44L152.49 115.64L147.13 114.14L143.22 118.44L144.67 124.23L150.03 125.74ZM144.67 124.23L143.22 118.44L137.86 116.94L133.95 121.23L135.41 127.03L140.77 128.53ZM158.30 138.83L156.85 133.04L151.49 131.53L147.58 135.83L149.03 141.62L154.39 143.13ZM160.76 128.74L159.31 122.94L153.94 121.44L150.03 125.74L151.49 131.53L156.85 133.04ZM235.61 209.16L234.17 203.36L228.81 201.84L224.89 206.12L226.33 211.92L231.69 213.44ZM226.33 211.92L224.89 206.12L219.54 204.60L215.62 208.88L217.06 214.67L222.41 216.19ZM238.09 199.09L236.65 193.29L231.29 191.77L227.37 196.05L228.81 201.84L234.17 203.36ZM228.81 201.84L227.37 196.05L222.01 194.53L218.09 198.80L219.54 204.60L224.89 206.12ZM242.40 216.48L240.97 210.68L235.61 209.16L231.69 213.44L233.13 219.23L238.48 220.75ZM233.13 219.23L231.69 213.44L226.33 211.92L222.41 216.19L223.85 221.98L229.21 223.50ZM244.89 206.41L243.45 200.61L238.09 199.09L234.17 203.36L235.61 209.16L240.97 210.68ZM219.54 204.60L218.09 198.80L212.74 197.29L208.82 201.57L210.26 207.36L215.62 208.88ZM232.48 256.73L231.04 250.94L225.69 249.42L221.78 253.69L223.22 259.48L228.57 261.00ZM234.96 246.67L233.52 240.88L228.17 239.36L224.25 243.63L225.69 249.42L231.04 250.94ZM241.75 253.99L240.31 248.20L234.96 246.67L231.04 250.94L232.48 256.73L237.83 258.26ZM246.71 233.87L245.28 228.07L239.92 226.55L236.00 230.82L237.44 236.61L242.79 238.14ZM249.20 223.80L247.76 218.00L242.40 216.48L238.48 220.75L239.92 226.55L245.28 228.07ZM239.92 226.55L238.48 220.75L233.13 219.23L229.21 223.50L230.65 229.30L236.00 230.82ZM253.50 241.19L252.07 235.39L246.71 233.87L242.79 238.14L244.23 243.93L249.58 245.46ZM244.23 243.93L242.79 238.14L237.44 236.61L233.52 240.88L234.96 246.67L240.31 248.20ZM255.99 231.12L254.56 225.33L249.20 223.80L245.28 228.07L246.71 233.87L252.07 235.39ZM122.13 252.37L120.68 246.59L115.34 245.09L111.46 249.37L112.91 255.14L118.24 256.64ZM133.80 239.55L132.35 233.77L127.01 232.26L123.12 236.54L124.57 242.32L129.91 243.82ZM124.57 242.32L123.12 236.54L117.78 235.04L113.89 239.32L115.34 245.09L120.68 246.59ZM163.97 221.18L162.52 215.39L157.17 213.89L153.27 218.17L154.72 223.95L160.07 225.46ZM145.48 226.72L144.03 220.94L138.69 219.43L134.79 223.71L136.24 229.49L141.58 231.00ZM136.24 229.49L134.79 223.71L129.45 222.21L125.56 226.49L127.01 232.26L132.35 233.77ZM147.93 216.66L146.48 210.87L141.13 209.37L137.24 213.65L138.69 219.43L144.03 220.94ZM138.69 219.43L137.24 213.65L131.89 212.15L128.00 216.43L129.45 222.21L134.79 223.71ZM154.72 223.95L153.27 218.17L147.93 216.66L144.03 220.94L145.48 226.72L150.82 228.23ZM238.75 161.52L237.31 155.71L231.94 154.19L228.01 158.48L229.45 164.28L234.82 165.80ZM229.45 164.28L228.01 158.48L222.65 156.96L218.73 161.25L220.17 167.05L225.53 168.57ZM241.23 151.43L239.79 145.62L234.42 144.10L230.50 148.39L231.94 154.19L237.31 155.71ZM245.55 168.84L244.11 163.04L238.75 161.52L234.82 165.80L236.26 171.60L241.62 173.13ZM236.26 171.60L234.82 165.80L229.45 164.28L225.53 168.57L226.97 174.37L232.34 175.89ZM248.04 158.76L246.60 152.95L241.23 151.43L237.31 155.71L238.75 161.52L244.11 163.04ZM204.08 162.50L202.64 156.70L197.27 155.19L193.36 159.48L194.80 165.28L200.16 166.79ZM215.84 149.64L214.40 143.84L209.03 142.33L205.11 146.61L206.56 152.42L211.92 153.93ZM206.56 152.42L205.11 146.61L199.75 145.10L195.83 149.39L197.27 155.19L202.64 156.70ZM220.17 167.05L218.73 161.25L213.36 159.73L209.44 164.02L210.89 169.82L216.25 171.33ZM210.89 169.82L209.44 164.02L204.08 162.50L200.16 166.79L201.61 172.59L206.97 174.10ZM259.83 145.90L258.40 140.09L253.02 138.57L249.09 142.86L250.53 148.66L255.90 150.19ZM250.53 148.66L249.09 142.86L243.72 141.33L239.79 145.62L241.23 151.43L246.60 152.95ZM262.33 135.80L260.89 129.99L255.52 128.47L251.59 132.76L253.02 138.57L258.40 140.09ZM227.61 136.78L226.17 130.97L220.80 129.46L216.88 133.75L218.32 139.55L223.69 141.07ZM218.32 139.55L216.88 133.75L211.51 132.23L207.59 136.52L209.03 142.33L214.40 143.84ZM230.10 126.68L228.66 120.87L223.29 119.36L219.36 123.65L220.80 129.46L226.17 130.97ZM220.80 129.46L219.36 123.65L213.99 122.13L210.07 126.43L211.51 132.23L216.88 133.75ZM249.86 186.25L248.43 180.45L243.06 178.93L239.14 183.21L240.58 189.01L245.94 190.53ZM240.58 189.01L239.14 183.21L233.77 181.69L229.85 185.97L231.29 191.77L236.65 193.29ZM252.35 176.17L250.92 170.37L245.55 168.84L241.62 173.13L243.06 178.93L248.43 180.45ZM243.06 178.93L241.62 173.13L236.26 171.60L232.34 175.89L233.77 181.69L239.14 183.21ZM256.66 193.58L255.23 187.78L249.86 186.25L245.94 190.53L247.38 196.33L252.74 197.86ZM247.38 196.33L245.94 190.53L240.58 189.01L236.65 193.29L238.09 199.09L243.45 200.61ZM259.16 183.50L257.72 177.69L252.35 176.17L248.43 180.45L249.86 186.25L255.23 187.78ZM224.49 184.45L223.05 178.65L217.69 177.13L213.77 181.41L215.21 187.21L220.57 188.73ZM215.21 187.21L213.77 181.41L208.41 179.90L204.49 184.18L205.94 189.98L211.30 191.49ZM226.97 174.37L225.53 168.57L220.17 167.05L216.25 171.33L217.69 177.13L223.05 178.65ZM217.69 177.13L216.25 171.33L210.89 169.82L206.97 174.10L208.41 179.90L213.77 181.41ZM231.29 191.77L229.85 185.97L224.49 184.45L220.57 188.73L222.01 194.53L227.37 196.05ZM222.01 194.53L220.57 188.73L215.21 187.21L211.30 191.49L212.74 197.29L218.09 198.80ZM233.77 181.69L232.34 175.89L226.97 174.37L223.05 178.65L224.49 184.45L229.85 185.97ZM264.15 163.33L262.71 157.52L257.34 155.99L253.41 160.28L254.85 166.08L260.21 167.61ZM254.85 166.08L253.41 160.28L248.04 158.76L244.11 163.04L245.55 168.84L250.92 170.37ZM266.64 153.23L265.21 147.42L259.83 145.90L255.90 150.19L257.34 155.99L262.71 157.52ZM257.34 155.99L255.90 150.19L250.53 148.66L246.60 152.95L248.04 158.76L253.41 160.28ZM261.65 173.41L260.21 167.61L254.85 166.08L250.92 170.37L252.35 176.17L257.72 177.69ZM67.32 231.63L65.86 225.86L60.53 224.37L56.65 228.65L58.11 234.42L63.44 235.91ZM208.42 39.48L206.97 33.67L201.59 32.16L197.65 36.47L199.10 42.28L204.48 43.79ZM199.10 42.28L197.65 36.47L192.27 34.96L188.34 39.27L189.80 45.08L195.17 46.59ZM210.90 29.36L209.45 23.54L204.07 22.03L200.14 26.34L201.59 32.16L206.97 33.67ZM201.59 32.16L200.14 26.34L194.75 24.83L190.82 29.14L192.27 34.96L197.65 36.47ZM205.93 49.61L204.48 43.79L199.10 42.28L195.17 46.59L196.62 52.41L202.00 53.92ZM217.73 36.69L216.29 30.87L210.90 29.36L206.97 33.67L208.42 39.48L213.80 40.99ZM182.97 37.76L181.51 31.95L176.13 30.45L172.21 34.76L173.66 40.57L179.04 42.07ZM173.66 40.57L172.21 34.76L166.83 33.25L162.91 37.57L164.36 43.38L169.74 44.88ZM185.44 27.64L183.99 21.82L178.61 20.32L174.68 24.63L176.13 30.45L181.51 31.95ZM176.13 30.45L174.68 24.63L169.30 23.13L165.38 27.44L166.83 33.25L172.21 34.76ZM189.80 45.08L188.34 39.27L182.97 37.76L179.04 42.07L180.49 47.89L185.87 49.39ZM180.49 47.89L179.04 42.07L173.66 40.57L169.74 44.88L171.19 50.69L176.57 52.20ZM192.27 34.96L190.82 29.14L185.44 27.64L181.51 31.95L182.97 37.76L188.34 39.27ZM213.39 19.23L211.94 13.40L206.55 11.89L202.62 16.21L204.07 22.03L209.45 23.54ZM197.23 14.70L195.78 8.88L190.40 7.37L186.47 11.69L187.92 17.51L193.30 19.01ZM187.92 17.51L186.47 11.69L181.08 10.19L177.15 14.50L178.61 20.32L183.99 21.82ZM199.72 4.57L198.27 -1.26L192.88 -2.76L188.94 1.55L190.40 7.37L195.78 8.88ZM190.40 7.37L188.94 1.55L183.56 0.05L179.63 4.37L181.08 10.19L186.47 11.69ZM204.07 22.03L202.62 16.21L197.23 14.70L193.30 19.01L194.75 24.83L200.14 26.34ZM194.75 24.83L193.30 19.01L187.92 17.51L183.99 21.82L185.44 27.64L190.82 29.14ZM206.55 11.89L205.10 6.07L199.72 4.57L195.78 8.88L197.23 14.70L202.62 16.21ZM219.59 64.26L218.14 58.45L212.76 56.94L208.83 61.24L210.28 67.05L215.66 68.57ZM210.28 67.05L208.83 61.24L203.45 59.73L199.52 64.03L200.97 69.85L206.35 71.36ZM222.08 54.14L220.63 48.32L215.25 46.81L211.31 51.12L212.76 56.94L218.14 58.45ZM212.76 56.94L211.31 51.12L205.93 49.61L202.00 53.92L203.45 59.73L208.83 61.24ZM226.41 71.59L224.97 65.78L219.59 64.26L215.66 68.57L217.10 74.38L222.48 75.89ZM217.10 74.38L215.66 68.57L210.28 67.05L206.35 71.36L207.80 77.17L213.17 78.68ZM228.90 61.47L227.46 55.66L222.08 54.14L218.14 58.45L219.59 64.26L224.97 65.78ZM194.15 62.53L192.70 56.71L187.32 55.21L183.39 59.51L184.84 65.32L190.22 66.83ZM184.84 65.32L183.39 59.51L178.02 58.01L174.10 62.31L175.55 68.12L180.92 69.63ZM196.62 52.41L195.17 46.59L189.80 45.08L185.87 49.39L187.32 55.21L192.70 56.71ZM187.32 55.21L185.87 49.39L180.49 47.89L176.57 52.20L178.02 58.01L183.39 59.51ZM200.97 69.85L199.52 64.03L194.15 62.53L190.22 66.83L191.67 72.64L197.04 74.15ZM191.67 72.64L190.22 66.83L184.84 65.32L180.92 69.63L182.37 75.44L187.75 76.94ZM203.45 59.73L202.00 53.92L196.62 52.41L192.70 56.71L194.15 62.53L199.52 64.03ZM231.39 51.35L229.95 45.53L224.56 44.02L220.63 48.32L222.08 54.14L227.46 55.66ZM209.04 1.76L207.59 -4.07L202.20 -5.57L198.27 -1.26L199.72 4.57L205.10 6.07ZM263.01 98.15L261.57 92.33L256.19 90.81L252.26 95.11L253.70 100.92L259.07 102.45ZM265.52 88.04L264.08 82.22L258.69 80.70L254.75 85.00L256.19 90.81L261.57 92.33ZM230.75 89.04L229.30 83.22L223.92 81.71L219.99 86.01L221.44 91.82L226.81 93.33ZM221.44 91.82L219.99 86.01L214.62 84.49L210.69 88.79L212.13 94.60L217.51 96.12ZM233.24 78.92L231.79 73.11L226.41 71.59L222.48 75.89L223.92 81.71L229.30 83.22ZM223.92 81.71L222.48 75.89L217.10 74.38L213.17 78.68L214.62 84.49L219.99 86.01ZM237.57 96.37L236.12 90.55L230.75 89.04L226.81 93.33L228.26 99.15L233.63 100.66ZM228.26 99.15L226.81 93.33L221.44 91.82L217.51 96.12L218.95 101.93L224.33 103.44ZM245.05 66.02L243.60 60.20L238.22 58.69L234.28 62.99L235.73 68.81L241.11 70.32ZM235.73 68.81L234.28 62.99L228.90 61.47L224.97 65.78L226.41 71.59L231.79 73.11ZM238.22 58.69L236.78 52.87L231.39 51.35L227.46 55.66L228.90 61.47L234.28 62.99ZM241.89 113.81L240.45 107.99L235.08 106.48L231.14 110.77L232.59 116.58L237.96 118.10ZM232.59 116.58L231.14 110.77L225.77 109.25L221.84 113.55L223.29 119.36L228.66 120.87ZM244.38 103.70L242.94 97.89L237.57 96.37L233.63 100.66L235.08 106.48L240.45 107.99ZM235.08 106.48L233.63 100.66L228.26 99.15L224.33 103.44L225.77 109.25L231.14 110.77ZM157.53 36.07L156.07 30.25L150.70 28.75L146.78 33.07L148.24 38.88L153.61 40.38ZM160.00 25.94L158.54 20.13L153.16 18.63L149.24 22.94L150.70 28.75L156.07 30.25ZM164.36 43.38L162.91 37.57L157.53 36.07L153.61 40.38L155.07 46.19L160.44 47.69ZM155.07 46.19L153.61 40.38L148.24 38.88L144.32 43.19L145.77 49.00L151.15 50.50ZM166.83 33.25L165.38 27.44L160.00 25.94L156.07 30.25L157.53 36.07L162.91 37.57ZM154.50 83.83L153.05 78.03L147.68 76.53L143.77 80.83L145.22 86.64L150.59 88.14ZM156.97 73.73L155.51 67.92L150.14 66.42L146.23 70.72L147.68 76.53L153.05 78.03ZM161.33 91.14L159.87 85.34L154.50 83.83L150.59 88.14L152.04 93.94L157.41 95.44ZM152.04 93.94L150.59 88.14L145.22 86.64L141.31 90.94L142.77 96.74L148.13 98.24ZM163.79 81.03L162.34 75.23L156.97 73.73L153.05 78.03L154.50 83.83L159.87 85.34ZM168.72 60.81L167.27 55.00L161.89 53.50L157.98 57.80L159.43 63.61L164.80 65.12ZM159.43 63.61L157.98 57.80L152.60 56.30L148.69 60.61L150.14 66.42L155.51 67.92ZM171.19 50.69L169.74 44.88L164.36 43.38L160.44 47.69L161.89 53.50L167.27 55.00ZM161.89 53.50L160.44 47.69L155.07 46.19L151.15 50.50L152.60 56.30L157.98 57.80ZM166.25 70.92L164.80 65.12L159.43 63.61L155.51 67.92L156.97 73.73L162.34 75.23ZM171.77 13.00L170.32 7.18L164.93 5.68L161.01 10.00L162.46 15.81L167.85 17.31ZM162.46 15.81L161.01 10.00L155.63 8.50L151.71 12.81L153.16 18.63L158.54 20.13ZM174.25 2.86L172.79 -2.95L167.41 -4.46L163.48 -0.14L164.93 5.68L170.32 7.18ZM164.93 5.68L163.48 -0.14L158.10 -1.64L154.17 2.68L155.63 8.50L161.01 10.00ZM178.61 20.32L177.15 14.50L171.77 13.00L167.85 17.31L169.30 23.13L174.68 24.63ZM169.30 23.13L167.85 17.31L162.46 15.81L158.54 20.13L160.00 25.94L165.38 27.44ZM181.08 10.19L179.63 4.37L174.25 2.86L170.32 7.18L171.77 13.00L177.15 14.50ZM155.63 8.50L154.17 2.68L148.79 1.18L144.87 5.50L146.33 11.32L151.71 12.81ZM257.80 258.57L256.37 252.77L251.02 251.25L247.10 255.51L248.53 261.31L253.88 262.83ZM248.53 261.31L247.10 255.51L241.75 253.99L237.83 258.26L239.27 264.05L244.62 265.57ZM260.29 248.51L258.86 242.71L253.50 241.19L249.58 245.46L251.02 251.25L256.37 252.77ZM251.02 251.25L249.58 245.46L244.23 243.93L240.31 248.20L241.75 253.99L247.10 255.51ZM94.48 260.69L93.02 254.92L87.69 253.42L83.81 257.69L85.27 263.46L90.60 264.96ZM69.27 258.98L67.82 253.21L62.49 251.72L58.62 256.00L60.07 261.76L65.40 263.25ZM60.07 261.76L58.62 256.00L53.29 254.51L49.42 258.78L50.88 264.55L56.20 266.04ZM106.12 247.87L104.67 242.09L99.33 240.59L95.45 244.87L96.90 250.64L102.24 252.14ZM96.90 250.64L95.45 244.87L90.11 243.37L86.23 247.65L87.69 253.42L93.02 254.92ZM108.55 237.82L107.10 232.04L101.76 230.54L97.88 234.82L99.33 240.59L104.67 242.09ZM99.33 240.59L97.88 234.82L92.54 233.32L88.66 237.60L90.11 243.37L95.45 244.87ZM112.91 255.14L111.46 249.37L106.12 247.87L102.24 252.14L103.69 257.91L109.02 259.41ZM103.69 257.91L102.24 252.14L96.90 250.64L93.02 254.92L94.48 260.69L99.81 262.19ZM115.34 245.09L113.89 239.32L108.55 237.82L104.67 242.09L106.12 247.87L111.46 249.37ZM74.11 238.89L72.65 233.12L67.32 231.63L63.44 235.91L64.90 241.68L70.23 243.17ZM87.69 253.42L86.23 247.65L80.90 246.15L77.02 250.43L78.48 256.20L83.81 257.69ZM78.48 256.20L77.02 250.43L71.69 248.94L67.82 253.21L69.27 258.98L74.60 260.47ZM90.11 243.37L88.66 237.60L83.32 236.11L79.44 240.38L80.90 246.15L86.23 247.65ZM34.90 260.08L33.44 254.32L28.11 252.83L24.25 257.11L25.71 262.87L31.04 264.36ZM25.71 262.87L24.25 257.11L18.93 255.63L15.07 259.90L16.53 265.66L21.85 267.15ZM260.97 210.98L259.54 205.18L254.17 203.66L250.25 207.93L251.68 213.73L257.04 215.26ZM251.68 213.73L250.25 207.93L244.89 206.41L240.97 210.68L242.40 216.48L247.76 218.00ZM263.46 200.91L262.03 195.10L256.66 193.58L252.74 197.86L254.17 203.66L259.54 205.18ZM254.17 203.66L252.74 197.86L247.38 196.33L243.45 200.61L244.89 206.41L250.25 207.93ZM258.48 221.05L257.04 215.26L251.68 213.73L247.76 218.00L249.20 223.80L254.56 225.33ZM265.96 190.83L264.52 185.02L259.16 183.50L255.23 187.78L256.66 193.58L262.03 195.10ZM262.78 238.45L261.35 232.65L255.99 231.12L252.07 235.39L253.50 241.19L258.86 242.71ZM265.27 228.38L263.84 222.58L258.48 221.05L254.56 225.33L255.99 231.12L261.35 232.65Z"/><path data-band="2" fill="#f97316" fill-opacity="0.35" d="M184.94 205.58L183.49 199.79L178.14 198.28L174.23 202.56L175.68 208.35L181.03 209.86ZM175.68 208.35L174.23 202.56L168.88 201.05L164.98 205.33L166.42 211.12L171.77 212.63ZM191.73 212.88L190.29 207.09L184.94 205.58L181.03 209.86L182.47 215.65L187.82 217.16ZM182.47 215.65L181.03 209.86L175.68 208.35L171.77 212.63L173.22 218.41L178.57 219.92ZM194.20 202.81L192.76 197.02L187.40 195.51L183.49 199.79L184.94 205.58L190.29 207.09ZM205.94 189.98L204.49 184.18L199.14 182.67L195.22 186.95L196.67 192.74L202.02 194.26ZM221.38 232.05L219.94 226.26L214.59 224.74L210.67 229.01L212.11 234.80L217.46 236.32ZM212.11 234.80L210.67 229.01L205.32 227.49L201.41 231.77L202.85 237.56L208.20 239.07ZM223.85 221.98L222.41 216.19L217.06 214.67L213.15 218.95L214.59 224.74L219.94 226.26ZM214.59 224.74L213.15 218.95L207.79 217.43L203.88 221.70L205.32 227.49L210.67 229.01ZM228.17 239.36L226.73 233.57L221.38 232.05L217.46 236.32L218.90 242.11L224.25 243.63ZM218.90 242.11L217.46 236.32L212.11 234.80L208.20 239.07L209.64 244.86L214.99 246.38ZM230.65 229.30L229.21 223.50L223.85 221.98L219.94 226.26L221.38 232.05L226.73 233.57ZM196.06 230.25L194.62 224.46L189.27 222.95L185.36 227.22L186.80 233.01L192.15 234.53ZM186.80 233.01L185.36 227.22L180.01 225.71L176.11 229.99L177.55 235.77L182.90 237.28ZM198.53 220.19L197.09 214.40L191.73 212.88L187.82 217.16L189.27 222.95L194.62 224.46ZM189.27 222.95L187.82 217.16L182.47 215.65L178.57 219.92L180.01 225.71L185.36 227.22ZM202.85 237.56L201.41 231.77L196.06 230.25L192.15 234.53L193.60 240.31L198.94 241.83ZM193.60 240.31L192.15 234.53L186.80 233.01L182.90 237.28L184.34 243.07L189.69 244.58ZM205.32 227.49L203.88 221.70L198.53 220.19L194.62 224.46L196.06 230.25L201.41 231.77ZM210.26 207.36L208.82 201.57L203.47 200.05L199.55 204.33L201.00 210.12L206.35 211.64ZM201.00 210.12L199.55 204.33L194.20 202.81L190.29 207.09L191.73 212.88L197.09 214.40ZM212.74 197.29L211.30 191.49L205.94 189.98L202.02 194.26L203.47 200.05L208.82 201.57ZM203.47 200.05L202.02 194.26L196.67 192.74L192.76 197.02L194.20 202.81L199.55 204.33ZM217.06 214.67L215.62 208.88L210.26 207.36L206.35 211.64L207.79 217.43L213.15 218.95ZM207.79 217.43L206.35 211.64L201.00 210.12L197.09 214.40L198.53 220.19L203.88 221.70ZM223.22 259.48L221.78 253.69L216.43 252.17L212.52 256.44L213.96 262.22L219.31 263.74ZM225.69 249.42L224.25 243.63L218.90 242.11L214.99 246.38L216.43 252.17L221.78 253.69ZM207.17 254.92L205.73 249.13L200.39 247.61L196.48 251.88L197.92 257.67L203.27 259.19ZM197.92 257.67L196.48 251.88L191.13 250.37L187.23 254.64L188.67 260.42L194.02 261.94ZM209.64 244.86L208.20 239.07L202.85 237.56L198.94 241.83L200.39 247.61L205.73 249.13ZM200.39 247.61L198.94 241.83L193.60 240.31L189.69 244.58L191.13 250.37L196.48 251.88ZM213.96 262.22L212.52 256.44L207.17 254.92L203.27 259.19L204.71 264.97L210.05 266.49ZM216.43 252.17L214.99 246.38L209.64 244.86L205.73 249.13L207.17 254.92L212.52 256.44ZM237.44 236.61L236.00 230.82L230.65 229.30L226.73 233.57L228.17 239.36L233.52 240.88ZM156.61 251.35L155.17 245.57L149.82 244.06L145.93 248.34L147.38 254.12L152.72 255.62ZM147.38 254.12L145.93 248.34L140.59 246.83L136.70 251.10L138.15 256.88L143.48 258.39ZM159.06 241.30L157.62 235.52L152.27 234.01L148.38 238.28L149.82 244.06L155.17 245.57ZM149.82 244.06L148.38 238.28L143.03 236.78L139.14 241.05L140.59 246.83L145.93 248.34ZM163.40 258.64L161.95 252.86L156.61 251.35L152.72 255.62L154.16 261.40L159.50 262.91ZM154.16 261.40L152.72 255.62L147.38 254.12L143.48 258.39L144.93 264.16L150.27 265.67ZM165.85 248.59L164.41 242.81L159.06 241.30L155.17 245.57L156.61 251.35L161.95 252.86ZM131.36 249.60L129.91 243.82L124.57 242.32L120.68 246.59L122.13 252.37L127.47 253.87ZM138.15 256.88L136.70 251.10L131.36 249.60L127.47 253.87L128.92 259.65L134.26 261.15ZM128.92 259.65L127.47 253.87L122.13 252.37L118.24 256.64L119.69 262.42L125.03 263.92ZM140.59 246.83L139.14 241.05L133.80 239.55L129.91 243.82L131.36 249.60L136.70 251.10ZM170.76 228.48L169.32 222.69L163.97 221.18L160.07 225.46L161.51 231.24L166.86 232.75ZM161.51 231.24L160.07 225.46L154.72 223.95L150.82 228.23L152.27 234.01L157.62 235.52ZM173.22 218.41L171.77 212.63L166.42 211.12L162.52 215.39L163.97 221.18L169.32 222.69ZM177.55 235.77L176.11 229.99L170.76 228.48L166.86 232.75L168.31 238.53L173.65 240.05ZM168.31 238.53L166.86 232.75L161.51 231.24L157.62 235.52L159.06 241.30L164.41 242.81ZM180.01 225.71L178.57 219.92L173.22 218.41L169.32 222.69L170.76 228.48L176.11 229.99ZM152.27 234.01L150.82 228.23L145.48 226.72L141.58 231.00L143.03 236.78L148.38 238.28ZM143.03 236.78L141.58 231.00L136.24 229.49L132.35 233.77L133.80 239.55L139.14 241.05ZM181.88 253.12L180.44 247.34L175.10 245.83L171.20 250.10L172.64 255.88L177.98 257.39ZM172.64 255.88L171.20 250.10L165.85 248.59L161.95 252.86L163.40 258.64L168.74 260.15ZM184.34 243.07L182.90 237.28L177.55 235.77L173.65 240.05L175.10 245.83L180.44 247.34ZM175.10 245.83L173.65 240.05L168.31 238.53L164.41 242.81L165.85 248.59L171.20 250.10ZM188.67 260.42L187.23 254.64L181.88 253.12L177.98 257.39L179.43 263.18L184.77 264.69ZM179.43 263.18L177.98 257.39L172.64 255.88L168.74 260.15L170.19 265.93L175.53 267.44ZM191.13 250.37L189.69 244.58L184.34 243.07L180.44 247.34L181.88 253.12L187.23 254.64ZM119.69 262.42L118.24 256.64L112.91 255.14L109.02 259.41L110.48 265.19L115.81 266.69Z"/></svg>
