<svg xmlns="http://www.w3.org/2000/svg" width="256" height="256" viewBox="0 0 256 256"><path data-band="1" fill="#fde68a" fill-opacity="0.35" d="M232.48 0.73L231.04 -5.06L225.69 -6.58L221.78 -2.31L223.22 3.48L228.57 5.00ZM239.27 8.05L237.83 2.26L232.48 0.73L228.57 5.00L230.00 10.79L235.35 12.31ZM241.75 -2.01L240.31 -7.80L234.96 -9.33L231.04 -5.06L232.48 0.73L237.83 2.26ZM122.13 -3.63L120.68 -9.41L115.34 -10.91L111.46 -6.63L112.91 -0.86L118.24 0.64ZM251.50 97.53L250.07 91.75L244.73 90.22L240.83 94.47L242.26 100.25L247.59 101.78ZM253.98 87.50L252.55 81.72L247.21 80.19L243.30 84.44L244.73 90.22L250.07 91.75ZM258.27 104.84L256.84 99.06L251.50 97.53L247.59 101.78L249.02 107.55L254.36 109.08ZM260.75 94.81L259.32 89.03L253.98 87.50L250.07 91.75L251.50 97.53L256.84 99.06ZM265.71 74.75L264.28 68.97L258.94 67.44L255.03 71.69L256.46 77.47L261.80 79.00ZM256.46 77.47L255.03 71.69L249.69 70.16L245.78 74.41L247.21 80.19L252.55 81.72ZM258.94 67.44L257.51 61.65L252.17 60.12L248.25 64.38L249.69 70.16L255.03 71.69ZM263.23 84.78L261.80 79.00L256.46 77.47L252.55 81.72L253.98 87.50L259.32 89.03ZM247.21 80.19L245.78 74.41L240.44 72.88L236.53 77.14L237.96 82.92L243.30 84.44ZM249.69 70.16L248.25 64.38L242.91 62.85L239.00 67.10L240.44 72.88L245.78 74.41ZM262.55 122.17L261.12 116.39L255.79 114.86L251.88 119.10L253.31 124.88L258.64 126.41ZM265.03 112.15L263.60 106.37L258.27 104.84L254.36 109.08L255.79 114.86L261.12 116.39ZM255.79 114.86L254.36 109.08L249.02 107.55L245.12 111.80L246.55 117.57L251.88 119.10ZM259.62 29.99L258.18 24.20L252.83 22.68L248.92 26.94L250.35 32.72L255.70 34.25ZM262.10 19.94L260.67 14.15L255.32 12.62L251.40 16.89L252.83 22.68L258.18 24.20ZM266.40 37.31L264.96 31.52L259.62 29.99L255.70 34.25L257.13 40.04L262.48 41.57ZM243.57 25.41L242.14 19.62L236.79 18.10L232.88 22.36L234.31 28.15L239.66 29.67ZM246.05 15.36L244.62 9.57L239.27 8.05L235.35 12.31L236.79 18.10L242.14 19.62ZM252.83 22.68L251.40 16.89L246.05 15.36L242.14 19.62L243.57 25.41L248.92 26.94ZM257.80 2.57L256.37 -3.23L251.02 -4.75L247.10 -0.49L248.53 5.31L253.88 6.83ZM248.53 5.31L247.10 -0.49L241.75 -2.01L237.83 2.26L239.27 8.05L244.62 9.57ZM264.59 9.89L263.16 4.10L257.80 2.57L253.88 6.83L255.32 12.62L260.67 14.15ZM255.32 12.62L253.88 6.83L248.53 5.31L244.62 9.57L246.05 15.36L251.40 16.89ZM254.65 50.08L253.22 44.30L247.87 42.77L243.96 47.03L245.39 52.81L250.73 54.34ZM257.13 40.04L255.70 34.25L250.35 32.72L246.44 36.98L247.87 42.77L253.22 44.30ZM261.42 57.40L259.99 51.61L254.65 50.08L250.73 54.34L252.17 60.12L257.51 61.65ZM263.91 47.36L262.48 41.57L257.13 40.04L253.22 44.30L254.65 50.08L259.99 51.61ZM65.94 87.68L64.49 81.93L59.17 80.43L55.31 84.69L56.77 90.45L62.08 91.94ZM68.35 77.67L66.90 71.91L61.58 70.42L57.72 74.68L59.17 80.43L64.49 81.93ZM50.00 83.20L48.54 77.45L43.23 75.96L39.37 80.22L40.83 85.97L46.14 87.46ZM40.83 85.97L39.37 80.22L34.05 78.73L30.20 82.99L31.66 88.74L36.97 90.23ZM52.40 73.19L50.94 67.43L45.63 65.94L41.77 70.20L43.23 75.96L48.54 77.45ZM43.23 75.96L41.77 70.20L36.45 68.71L32.60 72.98L34.05 78.73L39.37 80.22ZM56.77 90.45L55.31 84.69L50.00 83.20L46.14 87.46L47.59 93.21L52.91 94.70ZM47.59 93.21L46.14 87.46L40.83 85.97L36.97 90.23L38.43 95.98L43.74 97.47ZM59.17 80.43L57.72 74.68L52.40 73.19L48.54 77.45L50.00 83.20L55.31 84.69ZM79.95 64.88L78.50 59.12L73.18 57.63L69.31 61.89L70.76 67.65L76.08 69.15ZM82.37 54.86L80.92 49.10L75.59 47.60L71.72 51.87L73.18 57.63L78.50 59.12ZM63.99 60.40L62.53 54.64L57.21 53.14L53.35 57.41L54.81 63.17L60.13 64.66ZM54.81 63.17L53.35 57.41L48.03 55.92L44.17 60.18L45.63 65.94L50.94 67.43ZM66.40 50.37L64.95 44.61L59.62 43.12L55.76 47.39L57.21 53.14L62.53 54.64ZM57.21 53.14L55.76 47.39L50.44 45.89L46.57 50.16L48.03 55.92L53.35 57.41ZM70.76 67.65L69.31 61.89L63.99 60.40L60.13 64.66L61.58 70.42L66.90 71.91ZM61.58 70.42L60.13 64.66L54.81 63.17L50.94 67.43L52.40 73.19L57.72 74.68ZM73.18 57.63L71.72 51.87L66.40 50.37L62.53 54.64L63.99 60.40L69.31 61.89ZM61.13 107.70L59.68 101.95L54.36 100.46L50.50 104.71L51.96 110.46L57.27 111.96ZM51.96 110.46L50.50 104.71L45.19 103.22L41.34 107.48L42.79 113.22L48.10 114.72ZM63.54 97.69L62.08 91.94L56.77 90.45L52.91 94.70L54.36 100.46L59.68 101.95ZM54.36 100.46L52.91 94.70L47.59 93.21L43.74 97.47L45.19 103.22L50.50 104.71ZM67.89 114.95L66.44 109.20L61.13 107.70L57.27 111.96L58.72 117.71L64.03 119.20ZM58.72 117.71L57.27 111.96L51.96 110.46L48.10 114.72L49.56 120.46L54.87 121.96ZM17.71 111.52L16.25 105.77L10.95 104.29L7.10 108.55L8.56 114.29L13.87 115.78ZM8.56 114.29L7.10 108.55L1.80 107.06L-2.05 111.32L-0.59 117.06L4.72 118.54ZM20.10 101.52L18.64 95.77L13.34 94.28L9.49 98.54L10.95 104.29L16.25 105.77ZM24.89 81.50L23.43 75.75L18.12 74.26L14.26 78.53L15.72 84.27L21.04 85.76ZM15.72 84.27L14.26 78.53L8.95 77.04L5.11 81.30L6.57 87.05L11.88 88.54ZM27.28 71.49L25.82 65.73L20.51 64.25L16.66 68.51L18.12 74.26L23.43 75.75ZM18.12 74.26L16.66 68.51L11.34 67.03L7.49 71.29L8.95 77.04L14.26 78.53ZM31.66 88.74L30.20 82.99L24.89 81.50L21.04 85.76L22.49 91.51L27.80 93.00ZM22.49 91.51L21.04 85.76L15.72 84.27L11.88 88.54L13.34 94.28L18.64 95.77ZM34.05 78.73L32.60 72.98L27.28 71.49L23.43 75.75L24.89 81.50L30.20 82.99ZM22.09 128.75L20.63 123.01L15.32 121.52L11.48 125.77L12.94 131.51L18.24 133.00ZM12.94 131.51L11.48 125.77L6.18 124.29L2.33 128.54L3.79 134.28L9.09 135.77ZM24.48 118.75L23.02 113.01L17.71 111.52L13.87 115.78L15.32 121.52L20.63 123.01ZM15.32 121.52L13.87 115.78L8.56 114.29L4.72 118.54L6.18 124.29L11.48 125.77ZM28.85 135.98L27.39 130.24L22.09 128.75L18.24 133.00L19.70 138.74L25.00 140.23ZM19.70 138.74L18.24 133.00L12.94 131.51L9.09 135.77L10.55 141.51L15.85 142.99ZM31.24 125.99L29.78 120.24L24.48 118.75L20.63 123.01L22.09 128.75L27.39 130.24ZM3.79 134.28L2.33 128.54L-2.97 127.06L-6.81 131.31L-5.35 137.05L-0.05 138.53ZM6.18 124.29L4.72 118.54L-0.59 117.06L-4.43 121.32L-2.97 127.06L2.33 128.54ZM36.03 105.98L34.57 100.24L29.26 98.75L25.41 103.00L26.87 108.75L32.18 110.24ZM26.87 108.75L25.41 103.00L20.10 101.52L16.25 105.77L17.71 111.52L23.02 113.01ZM38.43 95.98L36.97 90.23L31.66 88.74L27.80 93.00L29.26 98.75L34.57 100.24ZM29.26 98.75L27.80 93.00L22.49 91.51L18.64 95.77L20.10 101.52L25.41 103.00ZM42.79 113.22L41.34 107.48L36.03 105.98L32.18 110.24L33.63 115.99L38.94 117.48ZM33.63 115.99L32.18 110.24L26.87 108.75L23.02 113.01L24.48 118.75L29.78 120.24ZM45.19 103.22L43.74 97.47L38.43 95.98L34.57 100.24L36.03 105.98L41.34 107.48ZM92.05 14.73L90.60 8.96L85.27 7.46L81.39 11.74L82.85 17.50L88.17 19.00ZM82.85 17.50L81.39 11.74L76.06 10.24L72.19 14.51L73.64 20.28L78.97 21.77ZM94.48 4.69L93.02 -1.08L87.69 -2.58L83.81 1.69L85.27 7.46L90.60 8.96ZM85.27 7.46L83.81 1.69L78.48 0.20L74.60 4.47L76.06 10.24L81.39 11.74ZM89.63 24.77L88.17 19.00L82.85 17.50L78.97 21.77L80.43 27.54L85.75 29.04ZM101.26 11.96L99.81 6.19L94.48 4.69L90.60 8.96L92.05 14.73L97.38 16.23ZM66.86 13.02L65.40 7.25L60.07 5.76L56.20 10.04L57.66 15.80L62.99 17.29ZM57.66 15.80L56.20 10.04L50.88 8.55L47.01 12.82L48.47 18.58L53.79 20.07ZM69.27 2.98L67.82 -2.79L62.49 -4.28L58.62 0.00L60.07 5.76L65.40 7.25ZM60.07 5.76L58.62 0.00L53.29 -1.49L49.42 2.78L50.88 8.55L56.20 10.04ZM73.64 20.28L72.19 14.51L66.86 13.02L62.99 17.29L64.45 23.06L69.77 24.55ZM64.45 23.06L62.99 17.29L57.66 15.80L53.79 20.07L55.25 25.84L60.58 27.33ZM76.06 10.24L74.60 4.47L69.27 2.98L65.40 7.25L66.86 13.02L72.19 14.51ZM112.91 -0.86L111.46 -6.63L106.12 -8.13L102.24 -3.86L103.69 1.91L109.02 3.41ZM103.69 1.91L102.24 -3.86L96.90 -5.36L93.02 -1.08L94.48 4.69L99.81 6.19ZM87.69 -2.58L86.23 -8.35L80.90 -9.85L77.02 -5.57L78.48 0.20L83.81 1.69ZM78.48 0.20L77.02 -5.57L71.69 -7.06L67.82 -2.79L69.27 2.98L74.60 4.47ZM78.01 37.57L76.55 31.81L71.23 30.31L67.36 34.58L68.81 40.34L74.14 41.84ZM68.81 40.34L67.36 34.58L62.03 33.09L58.17 37.36L59.62 43.12L64.95 44.61ZM80.43 27.54L78.97 21.77L73.64 20.28L69.77 24.55L71.23 30.31L76.55 31.81ZM71.23 30.31L69.77 24.55L64.45 23.06L60.58 27.33L62.03 33.09L67.36 34.58ZM75.59 47.60L74.14 41.84L68.81 40.34L64.95 44.61L66.40 50.37L71.72 51.87ZM87.21 34.80L85.75 29.04L80.43 27.54L76.55 31.81L78.01 37.57L83.33 39.07ZM110.48 9.19L109.02 3.41L103.69 1.91L99.81 6.19L101.26 11.96L106.59 13.46ZM27.70 34.18L26.24 28.42L20.92 26.94L17.06 31.21L18.52 36.97L23.84 38.45ZM18.52 36.97L17.06 31.21L11.74 29.73L7.88 34.00L9.35 39.75L14.66 41.24ZM34.48 41.43L33.02 35.67L27.70 34.18L23.84 38.45L25.30 44.21L30.62 45.69ZM25.30 44.21L23.84 38.45L18.52 36.97L14.66 41.24L16.13 46.99L21.44 48.48ZM36.88 31.40L35.42 25.64L30.10 24.15L26.24 28.42L27.70 34.18L33.02 35.67ZM9.35 39.75L7.88 34.00L2.57 32.52L-1.28 36.79L0.18 42.54L5.49 44.02ZM0.18 42.54L-1.28 36.79L-6.60 35.31L-10.45 39.58L-8.98 45.33L-3.67 46.81ZM41.69 11.33L40.23 5.57L34.90 4.08L31.04 8.36L32.50 14.12L37.82 15.61ZM32.50 14.12L31.04 8.36L25.71 6.87L21.85 11.15L23.31 16.91L28.64 18.39ZM34.90 4.08L33.44 -1.68L28.11 -3.17L24.25 1.11L25.71 6.87L31.04 8.36ZM48.47 18.58L47.01 12.82L41.69 11.33L37.82 15.61L39.28 21.37L44.60 22.86ZM39.28 21.37L37.82 15.61L32.50 14.12L28.64 18.39L30.10 24.15L35.42 25.64ZM50.88 8.55L49.42 2.78L44.09 1.29L40.23 5.57L41.69 11.33L47.01 12.82ZM16.53 9.66L15.07 3.90L9.74 2.42L5.88 6.70L7.35 12.46L12.67 13.94ZM7.35 12.46L5.88 6.70L0.56 5.22L-3.29 9.50L-1.83 15.25L3.49 16.73ZM23.31 16.91L21.85 11.15L16.53 9.66L12.67 13.94L14.13 19.70L19.45 21.18ZM25.71 6.87L24.25 1.11L18.93 -0.37L15.07 3.90L16.53 9.66L21.85 11.15ZM38.85 58.69L37.39 52.94L32.08 51.45L28.22 55.72L29.68 61.47L34.99 62.96ZM29.68 61.47L28.22 55.72L22.90 54.23L19.05 58.50L20.51 64.25L25.82 65.73ZM41.25 48.67L39.80 42.91L34.48 41.43L30.62 45.69L32.08 51.45L37.39 52.94ZM32.08 51.45L30.62 45.69L25.30 44.21L21.44 48.48L22.90 54.23L28.22 55.72ZM45.63 65.94L44.17 60.18L38.85 58.69L34.99 62.96L36.45 68.71L41.77 70.20ZM36.45 68.71L34.99 62.96L29.68 61.47L25.82 65.73L27.28 71.49L32.60 72.98ZM48.03 55.92L46.57 50.16L41.25 48.67L37.39 52.94L38.85 58.69L44.17 60.18ZM16.13 46.99L14.66 41.24L9.35 39.75L5.49 44.02L6.96 49.77L12.27 51.26ZM20.51 64.25L19.05 58.50L13.73 57.01L9.88 61.28L11.34 67.03L16.66 68.51ZM22.90 54.23L21.44 48.48L16.13 46.99L12.27 51.26L13.73 57.01L19.05 58.50ZM52.84 35.87L51.39 30.11L46.06 28.62L42.20 32.89L43.66 38.65L48.98 40.14ZM43.66 38.65L42.20 32.89L36.88 31.40L33.02 35.67L34.48 41.43L39.80 42.91ZM55.25 25.84L53.79 20.07L48.47 18.58L44.60 22.86L46.06 28.62L51.39 30.11ZM46.06 28.62L44.60 22.86L39.28 21.37L35.42 25.64L36.88 31.40L42.20 32.89ZM59.62 43.12L58.17 37.36L52.84 35.87L48.98 40.14L50.44 45.89L55.76 47.39ZM50.44 45.89L48.98 40.14L43.66 38.65L39.80 42.91L41.25 48.67L46.57 50.16ZM62.03 33.09L60.58 27.33L55.25 25.84L51.39 30.11L52.84 35.87L58.17 37.36ZM58.28 154.94L56.82 149.19L51.52 147.70L47.67 151.95L49.12 157.69L54.42 159.18ZM49.12 157.69L47.67 151.95L42.36 150.45L38.52 154.70L39.97 160.44L45.27 161.93ZM51.52 147.70L50.07 141.95L44.76 140.46L40.91 144.71L42.36 150.45L47.67 151.95ZM65.03 162.18L63.58 156.44L58.28 154.94L54.42 159.18L55.88 164.93L61.18 166.42ZM55.88 164.93L54.42 159.18L49.12 157.69L45.27 161.93L46.72 167.67L52.02 169.17ZM33.21 153.21L31.76 147.47L26.46 145.97L22.61 150.22L24.07 155.96L29.37 157.45ZM24.07 155.96L22.61 150.22L17.31 148.73L13.47 152.98L14.92 158.72L20.22 160.21ZM35.61 143.22L34.15 137.47L28.85 135.98L25.00 140.23L26.46 145.97L31.76 147.47ZM26.46 145.97L25.00 140.23L19.70 138.74L15.85 142.99L17.31 148.73L22.61 150.22ZM39.97 160.44L38.52 154.70L33.21 153.21L29.37 157.45L30.82 163.19L36.12 164.69ZM30.82 163.19L29.37 157.45L24.07 155.96L20.22 160.21L21.68 165.95L26.98 167.44ZM42.36 150.45L40.91 144.71L35.61 143.22L31.76 147.47L33.21 153.21L38.52 154.70ZM65.49 124.95L64.03 119.20L58.72 117.71L54.87 121.96L56.32 127.71L61.63 129.20ZM47.16 130.46L45.70 124.72L40.40 123.22L36.55 127.48L38.00 133.22L43.31 134.71ZM38.00 133.22L36.55 127.48L31.24 125.99L27.39 130.24L28.85 135.98L34.15 137.47ZM49.56 120.46L48.10 114.72L42.79 113.22L38.94 117.48L40.40 123.22L45.70 124.72ZM40.40 123.22L38.94 117.48L33.63 115.99L29.78 120.24L31.24 125.99L36.55 127.48ZM53.92 137.70L52.47 131.96L47.16 130.46L43.31 134.71L44.76 140.46L50.07 141.95ZM44.76 140.46L43.31 134.71L38.00 133.22L34.15 137.47L35.61 143.22L40.91 144.71ZM60.23 182.15L58.78 176.41L53.48 174.91L49.63 179.15L51.08 184.89L56.38 186.39ZM62.63 172.17L61.18 166.42L55.88 164.93L52.02 169.17L53.48 174.91L58.78 176.41ZM66.98 189.39L65.53 183.65L60.23 182.15L56.38 186.39L57.83 192.13L63.13 193.63ZM44.33 177.66L42.88 171.92L37.58 170.42L33.73 174.67L35.18 180.41L40.48 181.90ZM35.18 180.41L33.73 174.67L28.43 173.18L24.59 177.42L26.04 183.16L31.34 184.65ZM46.72 167.67L45.27 161.93L39.97 160.44L36.12 164.69L37.58 170.42L42.88 171.92ZM37.58 170.42L36.12 164.69L30.82 163.19L26.98 167.44L28.43 173.18L33.73 174.67ZM51.08 184.89L49.63 179.15L44.33 177.66L40.48 181.90L41.93 187.64L47.23 189.13ZM41.93 187.64L40.48 181.90L35.18 180.41L31.34 184.65L32.79 190.38L38.09 191.88ZM53.48 174.91L52.02 169.17L46.72 167.67L42.88 171.92L44.33 177.66L49.63 179.15ZM2.64 245.70L1.18 239.98L-4.10 238.49L-7.93 242.72L-6.47 248.44L-1.19 249.93ZM5.01 235.74L3.56 230.02L-1.73 228.53L-5.56 232.76L-4.10 238.49L1.18 239.98ZM9.37 252.91L7.92 247.19L2.64 245.70L-1.19 249.93L0.26 255.65L5.54 257.14ZM0.26 255.65L-1.19 249.93L-6.47 248.44L-10.30 252.67L-8.84 258.39L-3.56 259.88ZM11.75 242.96L10.30 237.23L5.01 235.74L1.18 239.98L2.64 245.70L7.92 247.19ZM8.17 151.49L6.71 145.76L1.41 144.27L-2.43 148.52L-0.97 154.26L4.33 155.74ZM10.55 141.51L9.09 135.77L3.79 134.28L-0.05 138.53L1.41 144.27L6.71 145.76ZM14.92 158.72L13.47 152.98L8.17 151.49L4.33 155.74L5.79 161.48L11.08 162.97ZM5.79 161.48L4.33 155.74L-0.97 154.26L-4.81 158.51L-3.35 164.24L1.95 165.73ZM17.31 148.73L15.85 142.99L10.55 141.51L6.71 145.76L8.17 151.49L13.47 152.98ZM5.40 198.63L3.94 192.90L-1.35 191.41L-5.18 195.66L-3.73 201.38L1.56 202.87ZM7.78 188.66L6.32 182.93L1.03 181.44L-2.81 185.68L-1.35 191.41L3.94 192.90ZM12.15 205.85L10.69 200.12L5.40 198.63L1.56 202.87L3.02 208.60L8.31 210.09ZM3.02 208.60L1.56 202.87L-3.73 201.38L-7.56 205.62L-6.10 211.35L-0.81 212.84ZM14.53 195.88L13.07 190.15L7.78 188.66L3.94 192.90L5.40 198.63L10.69 200.12ZM19.29 175.93L17.84 170.19L12.54 168.70L8.70 172.95L10.16 178.68L15.45 180.17ZM10.16 178.68L8.70 172.95L3.41 171.46L-0.43 175.71L1.03 181.44L6.32 182.93ZM21.68 165.95L20.22 160.21L14.92 158.72L11.08 162.97L12.54 168.70L17.84 170.19ZM12.54 168.70L11.08 162.97L5.79 161.48L1.95 165.73L3.41 171.46L8.70 172.95ZM26.04 183.16L24.59 177.42L19.29 175.93L15.45 180.17L16.91 185.91L22.20 187.40ZM16.91 185.91L15.45 180.17L10.16 178.68L6.32 182.93L7.78 188.66L13.07 190.15ZM28.43 173.18L26.98 167.44L21.68 165.95L17.84 170.19L19.29 175.93L24.59 177.42ZM41.08 261.88L39.63 256.16L34.34 254.66L30.51 258.89L31.96 264.61L37.24 266.11ZM16.11 260.13L14.66 254.41L9.37 252.91L5.54 257.14L7.00 262.86L12.28 264.36ZM7.00 262.86L5.54 257.14L0.26 255.65L-3.56 259.88L-2.11 265.60L3.17 267.09ZM41.51 224.78L40.06 219.05L34.76 217.55L30.92 221.79L32.38 227.52L37.67 229.02ZM32.38 227.52L30.92 221.79L25.63 220.30L21.80 224.53L23.25 230.26L28.54 231.75ZM43.90 214.81L42.45 209.08L37.15 207.59L33.31 211.82L34.76 217.55L40.06 219.05ZM34.76 217.55L33.31 211.82L28.02 210.33L24.18 214.57L25.63 220.30L30.92 221.79ZM48.25 232.01L46.80 226.28L41.51 224.78L37.67 229.02L39.12 234.74L44.41 236.24ZM39.12 234.74L37.67 229.02L32.38 227.52L28.54 231.75L29.99 237.48L35.28 238.98ZM50.64 222.04L49.19 216.31L43.90 214.81L40.06 219.05L41.51 224.78L46.80 226.28ZM16.51 223.04L15.05 217.31L9.77 215.82L5.93 220.06L7.39 225.78L12.67 227.27ZM7.39 225.78L5.93 220.06L0.64 218.57L-3.19 222.80L-1.73 228.53L3.56 230.02ZM18.89 213.07L17.44 207.34L12.15 205.85L8.31 210.09L9.77 215.82L15.05 217.31ZM9.77 215.82L8.31 210.09L3.02 208.60L-0.81 212.84L0.64 218.57L5.93 220.06ZM23.25 230.26L21.80 224.53L16.51 223.04L12.67 227.27L14.13 233.00L19.42 234.49ZM14.13 233.00L12.67 227.27L7.39 225.78L3.56 230.02L5.01 235.74L10.30 237.23ZM25.63 220.30L24.18 214.57L18.89 213.07L15.05 217.31L16.51 223.04L21.80 224.53ZM57.83 192.13L56.38 186.39L51.08 184.89L47.23 189.13L48.68 194.87L53.98 196.37ZM48.68 194.87L47.23 189.13L41.93 187.64L38.09 191.88L39.54 197.61L44.84 199.11ZM30.41 200.36L28.95 194.62L23.66 193.13L19.82 197.37L21.27 203.10L26.57 204.60ZM21.27 203.10L19.82 197.37L14.53 195.88L10.69 200.12L12.15 205.85L17.44 207.34ZM32.79 190.38L31.34 184.65L26.04 183.16L22.20 187.40L23.66 193.13L28.95 194.62ZM23.66 193.13L22.20 187.40L16.91 185.91L13.07 190.15L14.53 195.88L19.82 197.37ZM37.15 207.59L35.70 201.85L30.41 200.36L26.57 204.60L28.02 210.33L33.31 211.82ZM28.02 210.33L26.57 204.60L21.27 203.10L17.44 207.34L18.89 213.07L24.18 214.57ZM39.54 197.61L38.09 191.88L32.79 190.38L28.95 194.62L30.41 200.36L35.70 201.85ZM43.47 251.93L42.02 246.20L36.73 244.70L32.89 248.94L34.34 254.66L39.63 256.16ZM54.99 239.24L53.54 233.51L48.25 232.01L44.41 236.24L45.86 241.97L51.15 243.47ZM45.86 241.97L44.41 236.24L39.12 234.74L35.28 238.98L36.73 244.70L42.02 246.20ZM27.61 247.44L26.15 241.71L20.87 240.22L17.04 244.45L18.49 250.18L23.77 251.67ZM18.49 250.18L17.04 244.45L11.75 242.96L7.92 247.19L9.37 252.91L14.66 254.41ZM29.99 237.48L28.54 231.75L23.25 230.26L19.42 234.49L20.87 240.22L26.15 241.71ZM20.87 240.22L19.42 234.49L14.13 233.00L10.30 237.23L11.75 242.96L17.04 244.45ZM34.34 254.66L32.89 248.94L27.61 247.44L23.77 251.67L25.22 257.39L30.51 258.89ZM25.22 257.39L23.77 251.67L18.49 250.18L14.66 254.41L16.11 260.13L21.39 261.62ZM36.73 244.70L35.28 238.98L29.99 237.48L26.15 241.71L27.61 247.44L32.89 248.94Z"/><path data-band="2" fill="#f97316" fill-opacity="0.35" d="M223.22 3.48L221.78 -2.31L216.43 -3.83L212.52 0.44L213.96 6.22L219.31 7.74ZM230.00 10.79L228.57 5.00L223.22 3.48L219.31 7.74L220.74 13.53L226.09 15.05ZM207.17 -1.08L205.73 -6.87L200.39 -8.39L196.48 -4.12L197.92 1.67L203.27 3.19ZM197.92 1.67L196.48 -4.12L191.13 -5.63L187.23 -1.36L188.67 4.42L194.02 5.94ZM213.96 6.22L212.52 0.44L207.17 -1.08L203.27 3.19L204.71 8.97L210.05 10.49ZM204.71 8.97L203.27 3.19L197.92 1.67L194.02 5.94L195.46 11.72L200.80 13.24ZM216.43 -3.83L214.99 -9.62L209.64 -11.14L205.73 -6.87L207.17 -1.08L212.52 0.44ZM147.38 -1.88L145.93 -7.66L140.59 -9.17L136.70 -4.90L138.15 0.88L143.48 2.39ZM163.40 2.64L161.95 -3.14L156.61 -4.65L152.72 -0.38L154.16 5.40L159.50 6.91ZM154.16 5.40L152.72 -0.38L147.38 -1.88L143.48 2.39L144.93 8.16L150.27 9.67ZM138.15 0.88L136.70 -4.90L131.36 -6.40L127.47 -2.13L128.92 3.65L134.26 5.15ZM128.92 3.65L127.47 -2.13L122.13 -3.63L118.24 0.64L119.69 6.42L125.03 7.92ZM167.73 19.98L166.29 14.20L160.95 12.69L157.05 16.96L158.50 22.73L163.84 24.24ZM158.50 22.73L157.05 16.96L151.72 15.45L147.82 19.72L149.27 25.49L154.61 27.00ZM170.19 9.93L168.74 4.15L163.40 2.64L159.50 6.91L160.95 12.69L166.29 14.20ZM160.95 12.69L159.50 6.91L154.16 5.40L150.27 9.67L151.72 15.45L157.05 16.96ZM174.51 27.27L173.07 21.49L167.73 19.98L163.84 24.24L165.28 30.02L170.62 31.53ZM165.28 30.02L163.84 24.24L158.50 22.73L154.61 27.00L156.05 32.77L161.39 34.28ZM176.97 17.22L175.53 11.44L170.19 9.93L166.29 14.20L167.73 19.98L173.07 21.49ZM142.49 18.21L141.04 12.43L135.70 10.93L131.82 15.20L133.26 20.97L138.60 22.48ZM133.26 20.97L131.82 15.20L126.48 13.69L122.59 17.96L124.04 23.73L129.38 25.24ZM144.93 8.16L143.48 2.39L138.15 0.88L134.26 5.15L135.70 10.93L141.04 12.43ZM135.70 10.93L134.26 5.15L128.92 3.65L125.03 7.92L126.48 13.69L131.82 15.20ZM149.27 25.49L147.82 19.72L142.49 18.21L138.60 22.48L140.05 28.25L145.38 29.76ZM140.05 28.25L138.60 22.48L133.26 20.97L129.38 25.24L130.83 31.01L136.16 32.51ZM151.72 15.45L150.27 9.67L144.93 8.16L141.04 12.43L142.49 18.21L147.82 19.72ZM181.88 -2.88L180.44 -8.66L175.10 -10.17L171.20 -5.90L172.64 -0.12L177.98 1.39ZM172.64 -0.12L171.20 -5.90L165.85 -7.41L161.95 -3.14L163.40 2.64L168.74 4.15ZM188.67 4.42L187.23 -1.36L181.88 -2.88L177.98 1.39L179.43 7.18L184.77 8.69ZM179.43 7.18L177.98 1.39L172.64 -0.12L168.74 4.15L170.19 9.93L175.53 11.44ZM242.26 100.25L240.83 94.47L235.49 92.94L231.59 97.19L233.02 102.97L238.35 104.49ZM244.73 90.22L243.30 84.44L237.96 82.92L234.06 87.17L235.49 92.94L240.83 94.47ZM249.02 107.55L247.59 101.78L242.26 100.25L238.35 104.49L239.78 110.27L245.12 111.80ZM226.25 95.67L224.82 89.89L219.48 88.37L215.58 92.62L217.02 98.39L222.35 99.92ZM217.02 98.39L215.58 92.62L210.25 91.10L206.35 95.35L207.79 101.12L213.12 102.64ZM228.72 85.64L227.29 79.86L221.95 78.34L218.05 82.59L219.48 88.37L224.82 89.89ZM219.48 88.37L218.05 82.59L212.71 81.07L208.81 85.32L210.25 91.10L215.58 92.62ZM233.02 102.97L231.59 97.19L226.25 95.67L222.35 99.92L223.78 105.69L229.12 107.21ZM223.78 105.69L222.35 99.92L217.02 98.39L213.12 102.64L214.55 108.41L219.89 109.94ZM235.49 92.94L234.06 87.17L228.72 85.64L224.82 89.89L226.25 95.67L231.59 97.19ZM240.44 72.88L239.00 67.10L233.66 65.58L229.76 69.83L231.19 75.61L236.53 77.14ZM231.19 75.61L229.76 69.83L224.42 68.31L220.52 72.56L221.95 78.34L227.29 79.86ZM242.91 62.85L241.48 57.07L236.14 55.54L232.23 59.80L233.66 65.58L239.00 67.10ZM233.66 65.58L232.23 59.80L226.89 58.27L222.98 62.53L224.42 68.31L229.76 69.83ZM237.96 82.92L236.53 77.14L231.19 75.61L227.29 79.86L228.72 85.64L234.06 87.17ZM253.31 124.88L251.88 119.10L246.55 117.57L242.64 121.82L244.07 127.59L249.41 129.12ZM260.07 132.18L258.64 126.41L253.31 124.88L249.41 129.12L250.84 134.89L256.17 136.43ZM237.31 120.29L235.88 114.52L230.55 112.99L226.65 117.23L228.08 123.01L233.41 124.53ZM228.08 123.01L226.65 117.23L221.32 115.71L217.42 119.95L218.85 125.72L224.18 127.25ZM239.78 110.27L238.35 104.49L233.02 102.97L229.12 107.21L230.55 112.99L235.88 114.52ZM230.55 112.99L229.12 107.21L223.78 105.69L219.89 109.94L221.32 115.71L226.65 117.23ZM244.07 127.59L242.64 121.82L237.31 120.29L233.41 124.53L234.84 130.30L240.17 131.83ZM234.84 130.30L233.41 124.53L228.08 123.01L224.18 127.25L225.62 133.02L230.94 134.55ZM246.55 117.57L245.12 111.80L239.78 110.27L235.88 114.52L237.31 120.29L242.64 121.82ZM186.89 116.59L185.45 110.82L180.12 109.31L176.24 113.55L177.67 119.32L183.00 120.84ZM177.67 119.32L176.24 113.55L170.91 112.04L167.03 116.29L168.46 122.05L173.79 123.57ZM189.34 106.58L187.90 100.81L182.57 99.29L178.68 103.54L180.12 109.31L185.45 110.82ZM180.12 109.31L178.68 103.54L173.36 102.02L169.47 106.27L170.91 112.04L176.24 113.55ZM193.65 123.88L192.21 118.11L186.89 116.59L183.00 120.84L184.44 126.60L189.76 128.12ZM184.44 126.60L183.00 120.84L177.67 119.32L173.79 123.57L175.23 129.33L180.55 130.85ZM196.11 113.86L194.67 108.09L189.34 106.58L185.45 110.82L186.89 116.59L192.21 118.11ZM161.70 114.77L160.26 109.01L154.94 107.50L151.05 111.75L152.50 117.51L157.82 119.02ZM152.50 117.51L151.05 111.75L145.73 110.23L141.85 114.48L143.30 120.24L148.62 121.76ZM164.14 104.76L162.70 98.99L157.38 97.48L153.49 101.73L154.94 107.50L160.26 109.01ZM154.94 107.50L153.49 101.73L148.17 100.22L144.29 104.47L145.73 110.23L151.05 111.75ZM170.91 112.04L169.47 106.27L164.14 104.76L160.26 109.01L161.70 114.77L167.03 116.29ZM201.02 93.82L199.58 88.05L194.25 86.53L190.36 90.79L191.80 96.56L197.13 98.08ZM191.80 96.56L190.36 90.79L185.03 89.27L181.14 93.52L182.57 99.29L187.90 100.81ZM203.48 83.80L202.04 78.03L196.71 76.51L192.81 80.76L194.25 86.53L199.58 88.05ZM194.25 86.53L192.81 80.76L187.48 79.24L183.59 83.50L185.03 89.27L190.36 90.79ZM207.79 101.12L206.35 95.35L201.02 93.82L197.13 98.08L198.56 103.85L203.89 105.37ZM198.56 103.85L197.13 98.08L191.80 96.56L187.90 100.81L189.34 106.58L194.67 108.09ZM210.25 91.10L208.81 85.32L203.48 83.80L199.58 88.05L201.02 93.82L206.35 95.35ZM175.81 92.00L174.37 86.23L169.04 84.72L165.15 88.97L166.59 94.74L171.92 96.26ZM166.59 94.74L165.15 88.97L159.82 87.46L155.94 91.71L157.38 97.48L162.70 98.99ZM178.26 81.98L176.82 76.21L171.49 74.69L167.60 78.95L169.04 84.72L174.37 86.23ZM169.04 84.72L167.60 78.95L162.27 77.44L158.38 81.69L159.82 87.46L165.15 88.97ZM182.57 99.29L181.14 93.52L175.81 92.00L171.92 96.26L173.36 102.02L178.68 103.54ZM173.36 102.02L171.92 96.26L166.59 94.74L162.70 98.99L164.14 104.76L169.47 106.27ZM185.03 89.27L183.59 83.50L178.26 81.98L174.37 86.23L175.81 92.00L181.14 93.52ZM197.96 141.17L196.52 135.41L191.20 133.89L187.31 138.13L188.75 143.89L194.07 145.41ZM188.75 143.89L187.31 138.13L181.99 136.61L178.10 140.86L179.54 146.62L184.86 148.14ZM200.41 131.16L198.98 125.40L193.65 123.88L189.76 128.12L191.20 133.89L196.52 135.41ZM191.20 133.89L189.76 128.12L184.44 126.60L180.55 130.85L181.99 136.61L187.31 138.13ZM195.50 151.18L194.07 145.41L188.75 143.89L184.86 148.14L186.30 153.90L191.62 155.42ZM172.78 139.34L171.34 133.58L166.02 132.06L162.14 136.30L163.58 142.06L168.90 143.58ZM175.23 129.33L173.79 123.57L168.46 122.05L164.58 126.30L166.02 132.06L171.34 133.58ZM179.54 146.62L178.10 140.86L172.78 139.34L168.90 143.58L170.34 149.34L175.66 150.86ZM170.34 149.34L168.90 143.58L163.58 142.06L159.70 146.31L161.14 152.07L166.46 153.58ZM181.99 136.61L180.55 130.85L175.23 129.33L171.34 133.58L172.78 139.34L178.10 140.86ZM212.09 118.43L210.66 112.66L205.33 111.14L201.43 115.38L202.87 121.15L208.20 122.67ZM202.87 121.15L201.43 115.38L196.11 113.86L192.21 118.11L193.65 123.88L198.98 125.40ZM214.55 108.41L213.12 102.64L207.79 101.12L203.89 105.37L205.33 111.14L210.66 112.66ZM205.33 111.14L203.89 105.37L198.56 103.85L194.67 108.09L196.11 113.86L201.43 115.38ZM218.85 125.72L217.42 119.95L212.09 118.43L208.20 122.67L209.63 128.44L214.96 129.97ZM209.63 128.44L208.20 122.67L202.87 121.15L198.98 125.40L200.41 131.16L205.74 132.69ZM221.32 115.71L219.89 109.94L214.55 108.41L210.66 112.66L212.09 118.43L217.42 119.95ZM234.31 28.15L232.88 22.36L227.53 20.84L223.62 25.10L225.06 30.89L230.40 32.41ZM236.79 18.10L235.35 12.31L230.00 10.79L226.09 15.05L227.53 20.84L232.88 22.36ZM250.35 32.72L248.92 26.94L243.57 25.41L239.66 29.67L241.09 35.46L246.44 36.98ZM241.09 35.46L239.66 29.67L234.31 28.15L230.40 32.41L231.84 38.19L237.18 39.72ZM245.39 52.81L243.96 47.03L238.61 45.50L234.70 49.76L236.14 55.54L241.48 57.07ZM247.87 42.77L246.44 36.98L241.09 35.46L237.18 39.72L238.61 45.50L243.96 47.03ZM252.17 60.12L250.73 54.34L245.39 52.81L241.48 57.07L242.91 62.85L248.25 64.38ZM204.09 46.41L202.65 40.63L197.31 39.11L193.41 43.37L194.85 49.15L200.19 50.67ZM194.85 49.15L193.41 43.37L188.08 41.85L184.18 46.11L185.62 51.89L190.95 53.41ZM206.56 36.37L205.12 30.59L199.78 29.07L195.87 33.33L197.31 39.11L202.65 40.63ZM197.31 39.11L195.87 33.33L190.53 31.81L186.63 36.08L188.08 41.85L193.41 43.37ZM210.87 53.71L209.43 47.93L204.09 46.41L200.19 50.67L201.63 56.44L206.97 57.96ZM201.63 56.44L200.19 50.67L194.85 49.15L190.95 53.41L192.39 59.18L197.73 60.70ZM213.34 43.67L211.90 37.89L206.56 36.37L202.65 40.63L204.09 46.41L209.43 47.93ZM178.84 44.60L177.40 38.82L172.06 37.31L168.17 41.57L169.61 47.35L174.95 48.86ZM169.61 47.35L168.17 41.57L162.83 40.06L158.94 44.32L160.38 50.10L165.72 51.61ZM181.30 34.56L179.85 28.78L174.51 27.27L170.62 31.53L172.06 37.31L177.40 38.82ZM172.06 37.31L170.62 31.53L165.28 30.02L161.39 34.28L162.83 40.06L168.17 41.57ZM185.62 51.89L184.18 46.11L178.84 44.60L174.95 48.86L176.39 54.63L181.72 56.15ZM176.39 54.63L174.95 48.86L169.61 47.35L165.72 51.61L167.16 57.38L172.49 58.89ZM188.08 41.85L186.63 36.08L181.30 34.56L177.40 38.82L178.84 44.60L184.18 46.11ZM218.27 23.58L216.84 17.79L211.49 16.27L207.58 20.54L209.02 26.32L214.37 27.84ZM209.02 26.32L207.58 20.54L202.24 19.02L198.34 23.29L199.78 29.07L205.12 30.59ZM220.74 13.53L219.31 7.74L213.96 6.22L210.05 10.49L211.49 16.27L216.84 17.79ZM211.49 16.27L210.05 10.49L204.71 8.97L200.80 13.24L202.24 19.02L207.58 20.54ZM225.06 30.89L223.62 25.10L218.27 23.58L214.37 27.84L215.80 33.63L221.15 35.15ZM215.80 33.63L214.37 27.84L209.02 26.32L205.12 30.59L206.56 36.37L211.90 37.89ZM227.53 20.84L226.09 15.05L220.74 13.53L216.84 17.79L218.27 23.58L223.62 25.10ZM192.99 21.77L191.55 15.99L186.21 14.47L182.31 18.74L183.75 24.52L189.09 26.03ZM183.75 24.52L182.31 18.74L176.97 17.22L173.07 21.49L174.51 27.27L179.85 28.78ZM195.46 11.72L194.02 5.94L188.67 4.42L184.77 8.69L186.21 14.47L191.55 15.99ZM186.21 14.47L184.77 8.69L179.43 7.18L175.53 11.44L176.97 17.22L182.31 18.74ZM199.78 29.07L198.34 23.29L192.99 21.77L189.09 26.03L190.53 31.81L195.87 33.33ZM190.53 31.81L189.09 26.03L183.75 24.52L179.85 28.78L181.30 34.56L186.63 36.08ZM202.24 19.02L200.80 13.24L195.46 11.72L191.55 15.99L192.99 21.77L198.34 23.29ZM215.18 71.04L213.74 65.26L208.40 63.74L204.50 68.00L205.94 73.77L211.28 75.29ZM205.94 73.77L204.50 68.00L199.17 66.48L195.27 70.73L196.71 76.51L202.04 78.03ZM217.64 61.01L216.21 55.23L210.87 53.71L206.97 57.96L208.40 63.74L213.74 65.26ZM208.40 63.74L206.97 57.96L201.63 56.44L197.73 60.70L199.17 66.48L204.50 68.00ZM221.95 78.34L220.52 72.56L215.18 71.04L211.28 75.29L212.71 81.07L218.05 82.59ZM212.71 81.07L211.28 75.29L205.94 73.77L202.04 78.03L203.48 83.80L208.81 85.32ZM224.42 68.31L222.98 62.53L217.64 61.01L213.74 65.26L215.18 71.04L220.52 72.56ZM189.94 69.21L188.50 63.44L183.16 61.92L179.27 66.18L180.71 71.95L186.04 73.47ZM180.71 71.95L179.27 66.18L173.94 64.67L170.04 68.92L171.49 74.69L176.82 76.21ZM192.39 59.18L190.95 53.41L185.62 51.89L181.72 56.15L183.16 61.92L188.50 63.44ZM183.16 61.92L181.72 56.15L176.39 54.63L172.49 58.89L173.94 64.67L179.27 66.18ZM196.71 76.51L195.27 70.73L189.94 69.21L186.04 73.47L187.48 79.24L192.81 80.76ZM187.48 79.24L186.04 73.47L180.71 71.95L176.82 76.21L178.26 81.98L183.59 83.50ZM199.17 66.48L197.73 60.70L192.39 59.18L188.50 63.44L189.94 69.21L195.27 70.73ZM229.36 48.23L227.93 42.45L222.58 40.93L218.68 45.19L220.11 50.97L225.45 52.49ZM220.11 50.97L218.68 45.19L213.34 43.67L209.43 47.93L210.87 53.71L216.21 55.23ZM231.84 38.19L230.40 32.41L225.06 30.89L221.15 35.15L222.58 40.93L227.93 42.45ZM222.58 40.93L221.15 35.15L215.80 33.63L211.90 37.89L213.34 43.67L218.68 45.19ZM236.14 55.54L234.70 49.76L229.36 48.23L225.45 52.49L226.89 58.27L232.23 59.80ZM226.89 58.27L225.45 52.49L220.11 50.97L216.21 55.23L217.64 61.01L222.98 62.53ZM238.61 45.50L237.18 39.72L231.84 38.19L227.93 42.45L229.36 48.23L234.70 49.76ZM264.35 149.50L262.93 143.73L257.59 142.20L253.69 146.44L255.12 152.21L260.45 153.74ZM243.42 164.92L241.99 159.15L236.66 157.62L232.77 161.86L234.20 167.62L239.52 169.15ZM199.81 168.46L198.37 162.70L193.05 161.18L189.17 165.42L190.60 171.18L195.92 172.70ZM248.36 144.90L246.93 139.13L241.60 137.60L237.70 141.84L239.13 147.61L244.46 149.14ZM239.13 147.61L237.70 141.84L232.37 140.32L228.48 144.56L229.91 150.32L235.23 151.85ZM250.84 134.89L249.41 129.12L244.07 127.59L240.17 131.83L241.60 137.60L246.93 139.13ZM241.60 137.60L240.17 131.83L234.84 130.30L230.94 134.55L232.37 140.32L237.70 141.84ZM255.12 152.21L253.69 146.44L248.36 144.90L244.46 149.14L245.89 154.91L251.22 156.44ZM245.89 154.91L244.46 149.14L239.13 147.61L235.23 151.85L236.66 157.62L241.99 159.15ZM257.59 142.20L256.17 136.43L250.84 134.89L246.93 139.13L248.36 144.90L253.69 146.44ZM223.15 143.03L221.72 137.26L216.39 135.74L212.50 139.98L213.93 145.74L219.26 147.27ZM225.62 133.02L224.18 127.25L218.85 125.72L214.96 129.97L216.39 135.74L221.72 137.26ZM216.39 135.74L214.96 129.97L209.63 128.44L205.74 132.69L207.17 138.45L212.50 139.98ZM229.91 150.32L228.48 144.56L223.15 143.03L219.26 147.27L220.69 153.03L226.01 154.56ZM232.37 140.32L230.94 134.55L225.62 133.02L221.72 137.26L223.15 143.03L228.48 144.56ZM245.23 192.21L243.81 186.45L238.48 184.91L234.59 189.15L236.02 194.91L241.34 196.44ZM236.02 194.91L234.59 189.15L229.27 187.62L225.38 191.85L226.81 197.61L232.13 199.14ZM247.70 182.21L246.27 176.45L240.95 174.92L237.05 179.15L238.48 184.91L243.81 186.45ZM251.98 199.51L250.55 193.74L245.23 192.21L241.34 196.44L242.76 202.20L248.08 203.73ZM242.76 202.20L241.34 196.44L236.02 194.91L232.13 199.14L233.55 204.90L238.87 206.43ZM254.45 189.51L253.02 183.75L247.70 182.21L243.81 186.45L245.23 192.21L250.55 193.74ZM220.06 190.32L218.63 184.56L213.31 183.03L209.42 187.27L210.85 193.03L216.17 194.55ZM210.85 193.03L209.42 187.27L204.10 185.74L200.22 189.97L201.65 195.73L206.97 197.26ZM213.31 183.03L211.88 177.27L206.56 175.75L202.67 179.98L204.10 185.74L209.42 187.27ZM226.81 197.61L225.38 191.85L220.06 190.32L216.17 194.55L217.60 200.31L222.92 201.84ZM217.60 200.31L216.17 194.55L210.85 193.03L206.97 197.26L208.40 203.01L213.71 204.54ZM259.40 169.52L257.97 163.75L252.64 162.21L248.74 166.45L250.17 172.22L255.50 173.75ZM250.17 172.22L248.74 166.45L243.42 164.92L239.52 169.15L240.95 174.92L246.27 176.45ZM261.87 159.51L260.45 153.74L255.12 152.21L251.22 156.44L252.64 162.21L257.97 163.75ZM252.64 162.21L251.22 156.44L245.89 154.91L241.99 159.15L243.42 164.92L248.74 166.45ZM266.15 176.82L264.73 171.05L259.40 169.52L255.50 173.75L256.92 179.52L262.25 181.05ZM256.92 179.52L255.50 173.75L250.17 172.22L246.27 176.45L247.70 182.21L253.02 183.75ZM75.12 84.92L73.67 79.16L68.35 77.67L64.49 81.93L65.94 87.68L71.26 89.18ZM77.54 74.90L76.08 69.15L70.76 67.65L66.90 71.91L68.35 77.67L73.67 79.16ZM81.89 92.17L80.44 86.42L75.12 84.92L71.26 89.18L72.71 94.93L78.03 96.43ZM72.71 94.93L71.26 89.18L65.94 87.68L62.08 91.94L63.54 97.69L68.85 99.19ZM84.31 82.16L82.86 76.40L77.54 74.90L73.67 79.16L75.12 84.92L80.44 86.42ZM89.14 62.12L87.69 56.36L82.37 54.86L78.50 59.12L79.95 64.88L85.27 66.38ZM91.56 52.09L90.11 46.33L84.79 44.83L80.92 49.10L82.37 54.86L87.69 56.36ZM95.92 69.38L94.47 63.62L89.14 62.12L85.27 66.38L86.73 72.14L92.05 73.64ZM86.73 72.14L85.27 66.38L79.95 64.88L76.08 69.15L77.54 74.90L82.86 76.40ZM98.34 59.36L96.89 53.59L91.56 52.09L87.69 56.36L89.14 62.12L94.47 63.62ZM86.25 109.44L84.80 103.68L79.48 102.19L75.62 106.44L77.07 112.19L82.38 113.69ZM77.07 112.19L75.62 106.44L70.30 104.94L66.44 109.20L67.89 114.95L73.21 116.45ZM88.66 99.43L87.21 93.67L81.89 92.17L78.03 96.43L79.48 102.19L84.80 103.68ZM79.48 102.19L78.03 96.43L72.71 94.93L68.85 99.19L70.30 104.94L75.62 106.44ZM93.01 116.69L91.56 110.94L86.25 109.44L82.38 113.69L83.83 119.45L89.14 120.95ZM83.83 119.45L82.38 113.69L77.07 112.19L73.21 116.45L74.66 122.20L79.97 123.70ZM95.43 106.69L93.98 100.93L88.66 99.43L84.80 103.68L86.25 109.44L91.56 110.94ZM70.30 104.94L68.85 99.19L63.54 97.69L59.68 101.95L61.13 107.70L66.44 109.20ZM100.27 86.66L98.82 80.90L93.50 79.40L89.63 83.66L91.08 89.42L96.40 90.92ZM91.08 89.42L89.63 83.66L84.31 82.16L80.44 86.42L81.89 92.17L87.21 93.67ZM102.69 76.64L101.24 70.88L95.92 69.38L92.05 73.64L93.50 79.40L98.82 80.90ZM93.50 79.40L92.05 73.64L86.73 72.14L82.86 76.40L84.31 82.16L89.63 83.66ZM107.04 93.92L105.59 88.16L100.27 86.66L96.40 90.92L97.85 96.68L103.17 98.18ZM97.85 96.68L96.40 90.92L91.08 89.42L87.21 93.67L88.66 99.43L93.98 100.93ZM109.46 83.91L108.01 78.14L102.69 76.64L98.82 80.90L100.27 86.66L105.59 88.16ZM98.83 22.00L97.38 16.23L92.05 14.73L88.17 19.00L89.63 24.77L94.96 26.27ZM103.19 39.30L101.74 33.53L96.41 32.03L92.53 36.30L93.99 42.06L99.31 43.56ZM93.99 42.06L92.53 36.30L87.21 34.80L83.33 39.07L84.79 44.83L90.11 46.33ZM105.62 29.26L104.17 23.50L98.83 22.00L94.96 26.27L96.41 32.03L101.74 33.53ZM96.41 32.03L94.96 26.27L89.63 24.77L85.75 29.04L87.21 34.80L92.53 36.30ZM109.97 46.57L108.52 40.80L103.19 39.30L99.31 43.56L100.76 49.33L106.09 50.83ZM100.76 49.33L99.31 43.56L93.99 42.06L90.11 46.33L91.56 52.09L96.89 53.59ZM112.40 36.53L110.95 30.77L105.62 29.26L101.74 33.53L103.19 39.30L108.52 40.80ZM84.79 44.83L83.33 39.07L78.01 37.57L74.14 41.84L75.59 47.60L80.92 49.10ZM117.26 16.46L115.81 10.69L110.48 9.19L106.59 13.46L108.05 19.23L113.38 20.73ZM108.05 19.23L106.59 13.46L101.26 11.96L97.38 16.23L98.83 22.00L104.17 23.50ZM119.69 6.42L118.24 0.64L112.91 -0.86L109.02 3.41L110.48 9.19L115.81 10.69ZM124.04 23.73L122.59 17.96L117.26 16.46L113.38 20.73L114.83 26.50L120.16 28.00ZM114.83 26.50L113.38 20.73L108.05 19.23L104.17 23.50L105.62 29.26L110.95 30.77ZM126.48 13.69L125.03 7.92L119.69 6.42L115.81 10.69L117.26 16.46L122.59 17.96ZM113.30 138.47L111.85 132.71L106.53 131.21L102.67 135.46L104.11 141.21L109.43 142.71ZM129.24 142.99L127.80 137.24L122.48 135.73L118.61 139.97L120.05 145.73L125.37 147.24ZM120.05 145.73L118.61 139.97L113.30 138.47L109.43 142.71L110.87 148.47L116.19 149.97ZM97.36 133.95L95.91 128.20L90.59 126.70L86.73 130.95L88.18 136.70L93.49 138.20ZM88.18 136.70L86.73 130.95L81.42 129.45L77.56 133.70L79.01 139.45L84.32 140.95ZM99.77 123.95L98.33 118.20L93.01 116.69L89.14 120.95L90.59 126.70L95.91 128.20ZM90.59 126.70L89.14 120.95L83.83 119.45L79.97 123.70L81.42 129.45L86.73 130.95ZM104.11 141.21L102.67 135.46L97.36 133.95L93.49 138.20L94.94 143.95L100.25 145.46ZM94.94 143.95L93.49 138.20L88.18 136.70L84.32 140.95L85.77 146.70L91.08 148.20ZM106.53 131.21L105.09 125.45L99.77 123.95L95.91 128.20L97.36 133.95L102.67 135.46ZM143.30 120.24L141.85 114.48L136.53 112.97L132.66 117.22L134.10 122.98L139.42 124.49ZM111.38 111.20L109.93 105.44L104.61 103.94L100.74 108.19L102.19 113.94L107.51 115.45ZM102.19 113.94L100.74 108.19L95.43 106.69L91.56 110.94L93.01 116.69L98.33 118.20ZM113.81 101.19L112.36 95.43L107.04 93.92L103.17 98.18L104.61 103.94L109.93 105.44ZM104.61 103.94L103.17 98.18L97.85 96.68L93.98 100.93L95.43 106.69L100.74 108.19ZM133.57 160.25L132.12 154.50L126.81 152.99L122.94 157.23L124.38 162.98L129.70 164.49ZM124.38 162.98L122.94 157.23L117.63 155.72L113.76 159.97L115.21 165.72L120.52 167.23ZM136.00 150.26L134.55 144.50L129.24 142.99L125.37 147.24L126.81 152.99L132.12 154.50ZM126.81 152.99L125.37 147.24L120.05 145.73L116.19 149.97L117.63 155.72L122.94 157.23ZM140.32 167.52L138.88 161.76L133.57 160.25L129.70 164.49L131.14 170.25L136.45 171.76ZM131.14 170.25L129.70 164.49L124.38 162.98L120.52 167.23L121.96 172.98L127.27 174.49ZM142.75 157.52L141.31 151.77L136.00 150.26L132.12 154.50L133.57 160.25L138.88 161.76ZM108.45 158.46L107.01 152.71L101.70 151.21L97.83 155.45L99.28 161.20L104.59 162.70ZM99.28 161.20L97.83 155.45L92.52 153.95L88.66 158.19L90.11 163.94L95.42 165.44ZM110.87 148.47L109.43 142.71L104.11 141.21L100.25 145.46L101.70 151.21L107.01 152.71ZM101.70 151.21L100.25 145.46L94.94 143.95L91.08 148.20L92.52 153.95L97.83 155.45ZM115.21 165.72L113.76 159.97L108.45 158.46L104.59 162.70L106.03 168.45L111.34 169.96ZM106.03 168.45L104.59 162.70L99.28 161.20L95.42 165.44L96.86 171.19L102.17 172.69ZM117.63 155.72L116.19 149.97L110.87 148.47L107.01 152.71L108.45 158.46L113.76 159.97ZM147.62 137.52L146.18 131.76L140.86 130.25L136.99 134.50L138.43 140.26L143.75 141.77ZM138.43 140.26L136.99 134.50L131.67 132.99L127.80 137.24L129.24 142.99L134.55 144.50ZM150.06 127.52L148.62 121.76L143.30 120.24L139.42 124.49L140.86 130.25L146.18 131.76ZM140.86 130.25L139.42 124.49L134.10 122.98L130.22 127.23L131.67 132.99L136.99 134.50ZM145.19 147.52L143.75 141.77L138.43 140.26L134.55 144.50L136.00 150.26L141.31 151.77ZM60.68 144.95L59.23 139.20L53.92 137.70L50.07 141.95L51.52 147.70L56.82 149.19ZM67.44 152.19L65.98 146.44L60.68 144.95L56.82 149.19L58.28 154.94L63.58 156.44ZM72.25 132.20L70.80 126.45L65.49 124.95L61.63 129.20L63.08 134.95L68.39 136.45ZM63.08 134.95L61.63 129.20L56.32 127.71L52.47 131.96L53.92 137.70L59.23 139.20ZM74.66 122.20L73.21 116.45L67.89 114.95L64.03 119.20L65.49 124.95L70.80 126.45ZM79.01 139.45L77.56 133.70L72.25 132.20L68.39 136.45L69.84 142.20L75.15 143.69ZM69.84 142.20L68.39 136.45L63.08 134.95L59.23 139.20L60.68 144.95L65.98 146.44ZM81.42 129.45L79.97 123.70L74.66 122.20L70.80 126.45L72.25 132.20L77.56 133.70ZM56.32 127.71L54.87 121.96L49.56 120.46L45.70 124.72L47.16 130.46L52.47 131.96ZM69.38 179.41L67.93 173.66L62.63 172.17L58.78 176.41L60.23 182.15L65.53 183.65ZM71.79 169.42L70.34 163.68L65.03 162.18L61.18 166.42L62.63 172.17L67.93 173.66ZM76.13 186.65L74.68 180.91L69.38 179.41L65.53 183.65L66.98 189.39L72.28 190.89ZM78.54 176.67L77.09 170.92L71.79 169.42L67.93 173.66L69.38 179.41L74.68 180.91ZM83.36 156.69L81.91 150.94L76.60 149.44L72.74 153.69L74.19 159.43L79.50 160.93ZM74.19 159.43L72.74 153.69L67.44 152.19L63.58 156.44L65.03 162.18L70.34 163.68ZM85.77 146.70L84.32 140.95L79.01 139.45L75.15 143.69L76.60 149.44L81.91 150.94ZM76.60 149.44L75.15 143.69L69.84 142.20L65.98 146.44L67.44 152.19L72.74 153.69ZM90.11 163.94L88.66 158.19L83.36 156.69L79.50 160.93L80.95 166.68L86.25 168.18ZM80.95 166.68L79.50 160.93L74.19 159.43L70.34 163.68L71.79 169.42L77.09 170.92ZM92.52 153.95L91.08 148.20L85.77 146.70L81.91 150.94L83.36 156.69L88.66 158.19ZM141.94 55.60L140.50 49.83L135.17 48.32L131.28 52.58L132.73 58.35L138.06 59.86ZM114.32 63.86L112.87 58.10L107.54 56.60L103.67 60.86L105.12 66.62L110.44 68.12ZM105.12 66.62L103.67 60.86L98.34 59.36L94.47 63.62L95.92 69.38L101.24 70.88ZM116.75 53.84L115.30 48.07L109.97 46.57L106.09 50.83L107.54 56.60L112.87 58.10ZM107.54 56.60L106.09 50.83L100.76 49.33L96.89 53.59L98.34 59.36L103.67 60.86ZM121.09 71.13L119.64 65.37L114.32 63.86L110.44 68.12L111.89 73.89L117.21 75.39ZM111.89 73.89L110.44 68.12L105.12 66.62L101.24 70.88L102.69 76.64L108.01 78.14ZM123.52 61.11L122.07 55.34L116.75 53.84L112.87 58.10L114.32 63.86L119.64 65.37ZM144.38 45.57L142.94 39.79L137.61 38.29L133.72 42.55L135.17 48.32L140.50 49.83ZM156.05 32.77L154.61 27.00L149.27 25.49L145.38 29.76L146.83 35.53L152.16 37.04ZM146.83 35.53L145.38 29.76L140.05 28.25L136.16 32.51L137.61 38.29L142.94 39.79ZM162.83 40.06L161.39 34.28L156.05 32.77L152.16 37.04L153.61 42.81L158.94 44.32ZM128.39 41.05L126.94 35.28L121.61 33.77L117.73 38.04L119.18 43.80L124.51 45.31ZM119.18 43.80L117.73 38.04L112.40 36.53L108.52 40.80L109.97 46.57L115.30 48.07ZM130.83 31.01L129.38 25.24L124.04 23.73L120.16 28.00L121.61 33.77L126.94 35.28ZM121.61 33.77L120.16 28.00L114.83 26.50L110.95 30.77L112.40 36.53L117.73 38.04ZM135.17 48.32L133.72 42.55L128.39 41.05L124.51 45.31L125.95 51.08L131.28 52.58ZM125.95 51.08L124.51 45.31L119.18 43.80L115.30 48.07L116.75 53.84L122.07 55.34ZM137.61 38.29L136.16 32.51L130.83 31.01L126.94 35.28L128.39 41.05L133.72 42.55ZM157.38 97.48L155.94 91.71L150.61 90.20L146.73 94.46L148.17 100.22L153.49 101.73ZM159.82 87.46L158.38 81.69L153.05 80.18L149.17 84.44L150.61 90.20L155.94 91.71ZM125.43 88.42L123.98 82.66L118.66 81.15L114.78 85.41L116.23 91.17L121.55 92.68ZM116.23 91.17L114.78 85.41L109.46 83.91L105.59 88.16L107.04 93.92L112.36 95.43ZM127.86 78.40L126.42 72.64L121.09 71.13L117.21 75.39L118.66 81.15L123.98 82.66ZM118.66 81.15L117.21 75.39L111.89 73.89L108.01 78.14L109.46 83.91L114.78 85.41ZM167.16 57.38L165.72 51.61L160.38 50.10L156.49 54.36L157.94 60.13L163.27 61.64ZM162.27 77.44L160.82 71.67L155.49 70.16L151.61 74.41L153.05 80.18L158.38 81.69ZM173.94 64.67L172.49 58.89L167.16 57.38L163.27 61.64L164.71 67.41L170.04 68.92ZM255.59 254.03L254.16 248.27L248.85 246.74L244.96 250.96L246.38 256.71L251.70 258.25ZM246.38 256.71L244.96 250.96L239.65 249.42L235.76 253.64L237.19 259.39L242.50 260.93ZM262.32 261.32L260.90 255.56L255.59 254.03L251.70 258.25L253.12 264.00L258.43 265.54ZM256.25 216.79L254.83 211.03L249.51 209.50L245.62 213.72L247.04 219.48L252.36 221.02ZM247.04 219.48L245.62 213.72L240.30 212.19L236.41 216.42L237.83 222.18L243.15 223.71ZM258.73 206.80L257.30 201.04L251.98 199.51L248.08 203.73L249.51 209.50L254.83 211.03ZM249.51 209.50L248.08 203.73L242.76 202.20L238.87 206.43L240.30 212.19L245.62 213.72ZM263.00 224.09L261.57 218.33L256.25 216.79L252.36 221.02L253.78 226.78L259.10 228.31ZM253.78 226.78L252.36 221.02L247.04 219.48L243.15 223.71L244.58 229.47L249.89 231.00ZM265.47 214.10L264.05 208.34L258.73 206.80L254.83 211.03L256.25 216.79L261.57 218.33ZM261.20 196.81L259.77 191.05L254.45 189.51L250.55 193.74L251.98 199.51L257.30 201.04ZM263.67 186.82L262.25 181.05L256.92 179.52L253.02 183.75L254.45 189.51L259.77 191.05ZM258.06 244.05L256.63 238.29L251.32 236.76L247.43 240.98L248.85 246.74L254.16 248.27ZM260.53 234.07L259.10 228.31L253.78 226.78L249.89 231.00L251.32 236.76L256.63 238.29ZM264.79 251.35L263.37 245.59L258.06 244.05L254.16 248.27L255.59 254.03L260.90 255.56ZM152.72 256.44L151.28 250.70L145.98 249.18L142.12 253.40L143.56 259.15L148.86 260.66ZM143.56 259.15L142.12 253.40L136.82 251.89L132.96 256.11L134.40 261.85L139.70 263.37ZM155.15 246.47L153.71 240.73L148.41 239.21L144.55 243.44L145.98 249.18L151.28 250.70ZM145.98 249.18L144.55 243.44L139.25 241.92L135.38 246.15L136.82 251.89L142.12 253.40ZM161.89 253.74L160.45 247.99L155.15 246.47L151.28 250.70L152.72 256.44L158.02 257.96ZM127.66 254.60L126.22 248.86L120.93 247.35L117.07 251.57L118.51 257.31L123.80 258.82ZM118.51 257.31L117.07 251.57L111.77 250.06L107.92 254.29L109.36 260.02L114.65 261.54ZM130.08 244.63L128.64 238.89L123.34 237.38L119.49 241.61L120.93 247.35L126.22 248.86ZM120.93 247.35L119.49 241.61L114.19 240.10L110.33 244.33L111.77 250.06L117.07 251.57ZM134.40 261.85L132.96 256.11L127.66 254.60L123.80 258.82L125.24 264.56L130.54 266.07ZM136.82 251.89L135.38 246.15L130.08 244.63L126.22 248.86L127.66 254.60L132.96 256.11ZM166.76 233.80L165.32 228.05L160.01 226.53L156.15 230.76L157.58 236.50L162.89 238.02ZM157.58 236.50L156.15 230.76L150.84 229.24L146.97 233.47L148.41 239.21L153.71 240.73ZM169.19 223.82L167.76 218.07L162.45 216.55L158.58 220.78L160.01 226.53L165.32 228.05ZM160.01 226.53L158.58 220.78L153.27 219.27L149.40 223.50L150.84 229.24L156.15 230.76ZM173.50 241.06L172.06 235.32L166.76 233.80L162.89 238.02L164.32 243.77L169.62 245.29ZM164.32 243.77L162.89 238.02L157.58 236.50L153.71 240.73L155.15 246.47L160.45 247.99ZM175.93 231.09L174.50 225.34L169.19 223.82L165.32 228.05L166.76 233.80L172.06 235.32ZM141.67 231.95L140.23 226.21L134.93 224.69L131.07 228.92L132.51 234.67L137.81 236.18ZM132.51 234.67L131.07 228.92L125.76 227.41L121.90 231.64L123.34 237.38L128.64 238.89ZM144.10 221.98L142.66 216.23L137.36 214.72L133.49 218.95L134.93 224.69L140.23 226.21ZM134.93 224.69L133.49 218.95L128.19 217.44L124.32 221.67L125.76 227.41L131.07 228.92ZM148.41 239.21L146.97 233.47L141.67 231.95L137.81 236.18L139.25 241.92L144.55 243.44ZM139.25 241.92L137.81 236.18L132.51 234.67L128.64 238.89L130.08 244.63L135.38 246.15ZM177.79 258.30L176.36 252.55L171.06 251.03L167.19 255.26L168.62 261.00L173.92 262.52ZM168.62 261.00L167.19 255.26L161.89 253.74L158.02 257.96L159.45 263.70L164.75 265.22ZM180.23 248.33L178.80 242.58L173.50 241.06L169.62 245.29L171.06 251.03L176.36 252.55ZM171.06 251.03L169.62 245.29L164.32 243.77L160.45 247.99L161.89 253.74L167.19 255.26ZM186.97 255.60L185.54 249.85L180.23 248.33L176.36 252.55L177.79 258.30L183.10 259.82ZM102.62 252.78L101.18 247.04L95.89 245.54L92.03 249.76L93.48 255.50L98.77 257.01ZM93.48 255.50L92.03 249.76L86.74 248.26L82.89 252.48L84.34 258.22L89.63 259.72ZM105.03 242.82L103.59 237.08L98.29 235.57L94.44 239.80L95.89 245.54L101.18 247.04ZM95.89 245.54L94.44 239.80L89.15 238.29L85.30 242.52L86.74 248.26L92.03 249.76ZM100.21 262.74L98.77 257.01L93.48 255.50L89.63 259.72L91.07 265.46L96.36 266.96ZM111.77 250.06L110.33 244.33L105.03 242.82L101.18 247.04L102.62 252.78L107.92 254.29ZM77.60 250.98L76.15 245.25L70.86 243.74L67.02 247.97L68.46 253.70L73.75 255.21ZM68.46 253.70L67.02 247.97L61.73 246.47L57.88 250.70L59.33 256.43L64.62 257.93ZM80.00 241.02L78.56 235.28L73.26 233.78L69.42 238.01L70.86 243.74L76.15 245.25ZM70.86 243.74L69.42 238.01L64.12 236.51L60.28 240.74L61.73 246.47L67.02 247.97ZM84.34 258.22L82.89 252.48L77.60 250.98L73.75 255.21L75.20 260.94L80.49 262.44ZM75.20 260.94L73.75 255.21L68.46 253.70L64.62 257.93L66.07 263.66L71.35 265.16ZM86.74 248.26L85.30 242.52L80.00 241.02L76.15 245.25L77.60 250.98L82.89 252.48ZM169.76 186.60L168.33 180.85L163.01 179.33L159.14 183.57L160.58 189.32L165.89 190.84ZM160.58 189.32L159.14 183.57L153.83 182.05L149.95 186.29L151.39 192.04L156.70 193.55ZM172.21 176.61L170.77 170.85L165.45 169.34L161.58 173.58L163.01 179.33L168.33 180.85ZM163.01 179.33L161.58 173.58L156.26 172.06L152.39 176.30L153.83 182.05L159.14 183.57ZM167.32 196.59L165.89 190.84L160.58 189.32L156.70 193.55L158.14 199.30L163.45 200.82ZM178.96 183.89L177.52 178.13L172.21 176.61L168.33 180.85L169.76 186.60L175.08 188.12ZM144.64 184.77L143.20 179.02L137.89 177.51L134.02 181.75L135.46 187.50L140.77 189.01ZM135.46 187.50L134.02 181.75L128.71 180.24L124.85 184.47L126.29 190.22L131.59 191.73ZM147.07 174.78L145.63 169.03L140.32 167.52L136.45 171.76L137.89 177.51L143.20 179.02ZM137.89 177.51L136.45 171.76L131.14 170.25L127.27 174.49L128.71 180.24L134.02 181.75ZM151.39 192.04L149.95 186.29L144.64 184.77L140.77 189.01L142.21 194.76L147.52 196.27ZM142.21 194.76L140.77 189.01L135.46 187.50L131.59 191.73L133.04 197.48L138.34 198.99ZM153.83 182.05L152.39 176.30L147.07 174.78L143.20 179.02L144.64 184.77L149.95 186.29ZM183.85 163.90L182.41 158.14L177.09 156.62L173.21 160.86L174.65 166.62L179.97 168.14ZM174.65 166.62L173.21 160.86L167.89 159.34L164.01 163.58L165.45 169.34L170.77 170.85ZM186.30 153.90L184.86 148.14L179.54 146.62L175.66 150.86L177.09 156.62L182.41 158.14ZM177.09 156.62L175.66 150.86L170.34 149.34L166.46 153.58L167.89 159.34L173.21 160.86ZM190.60 171.18L189.17 165.42L183.85 163.90L179.97 168.14L181.40 173.89L186.72 175.41ZM181.40 173.89L179.97 168.14L174.65 166.62L170.77 170.85L172.21 176.61L177.52 178.13ZM193.05 161.18L191.62 155.42L186.30 153.90L182.41 158.14L183.85 163.90L189.17 165.42ZM158.70 162.06L157.26 156.31L151.94 154.79L148.07 159.04L149.51 164.79L154.82 166.30ZM149.51 164.79L148.07 159.04L142.75 157.52L138.88 161.76L140.32 167.52L145.63 169.03ZM151.94 154.79L150.50 149.04L145.19 147.52L141.31 151.77L142.75 157.52L148.07 159.04ZM165.45 169.34L164.01 163.58L158.70 162.06L154.82 166.30L156.26 172.06L161.58 173.58ZM156.26 172.06L154.82 166.30L149.51 164.79L145.63 169.03L147.07 174.78L152.39 176.30ZM167.89 159.34L166.46 153.58L161.14 152.07L157.26 156.31L158.70 162.06L164.01 163.58ZM180.82 211.13L179.38 205.38L174.07 203.86L170.20 208.09L171.63 213.84L176.94 215.36ZM171.63 213.84L170.20 208.09L164.89 206.57L161.01 210.80L162.45 216.55L167.76 218.07ZM183.26 201.15L181.83 195.40L176.51 193.87L172.64 198.11L174.07 203.86L179.38 205.38ZM174.07 203.86L172.64 198.11L167.32 196.59L163.45 200.82L164.89 206.57L170.20 208.09ZM187.56 218.41L186.13 212.66L180.82 211.13L176.94 215.36L178.37 221.11L183.68 222.64ZM178.37 221.11L176.94 215.36L171.63 213.84L167.76 218.07L169.19 223.82L174.50 225.34ZM190.01 208.43L188.57 202.67L183.26 201.15L179.38 205.38L180.82 211.13L186.13 212.66ZM155.70 209.29L154.27 203.54L148.96 202.02L145.09 206.26L146.53 212.00L151.83 213.52ZM146.53 212.00L145.09 206.26L139.78 204.74L135.92 208.97L137.36 214.72L142.66 216.23ZM158.14 199.30L156.70 193.55L151.39 192.04L147.52 196.27L148.96 202.02L154.27 203.54ZM148.96 202.02L147.52 196.27L142.21 194.76L138.34 198.99L139.78 204.74L145.09 206.26ZM162.45 216.55L161.01 210.80L155.70 209.29L151.83 213.52L153.27 219.27L158.58 220.78ZM153.27 219.27L151.83 213.52L146.53 212.00L142.66 216.23L144.10 221.98L149.40 223.50ZM164.89 206.57L163.45 200.82L158.14 199.30L154.27 203.54L155.70 209.29L161.01 210.80ZM194.90 188.45L193.47 182.69L188.15 181.17L184.27 185.41L185.71 191.16L191.02 192.68ZM185.71 191.16L184.27 185.41L178.96 183.89L175.08 188.12L176.51 193.87L181.83 195.40ZM197.35 178.46L195.92 172.70L190.60 171.18L186.72 175.41L188.15 181.17L193.47 182.69ZM188.15 181.17L186.72 175.41L181.40 173.89L177.52 178.13L178.96 183.89L184.27 185.41ZM105.53 205.66L104.09 199.91L98.79 198.41L94.93 202.64L96.37 208.38L101.68 209.89ZM96.37 208.38L94.93 202.64L89.63 201.14L85.77 205.37L87.22 211.11L92.52 212.62ZM107.95 195.68L106.51 189.93L101.20 188.42L97.34 192.66L98.79 198.41L104.09 199.91ZM98.79 198.41L97.34 192.66L92.04 191.16L88.18 195.40L89.63 201.14L94.93 202.64ZM112.28 212.91L110.84 207.16L105.53 205.66L101.68 209.89L103.12 215.63L108.42 217.14ZM103.12 215.63L101.68 209.89L96.37 208.38L92.52 212.62L93.96 218.36L99.26 219.86ZM114.70 202.93L113.25 197.18L107.95 195.68L104.09 199.91L105.53 205.66L110.84 207.16ZM80.47 203.87L79.03 198.13L73.73 196.63L69.88 200.87L71.32 206.60L76.62 208.11ZM71.32 206.60L69.88 200.87L64.58 199.36L60.73 203.60L62.18 209.34L67.47 210.84ZM82.88 193.89L81.43 188.15L76.13 186.65L72.28 190.89L73.73 196.63L79.03 198.13ZM73.73 196.63L72.28 190.89L66.98 189.39L63.13 193.63L64.58 199.36L69.88 200.87ZM87.22 211.11L85.77 205.37L80.47 203.87L76.62 208.11L78.07 213.84L83.37 215.35ZM78.07 213.84L76.62 208.11L71.32 206.60L67.47 210.84L68.92 216.58L74.22 218.08ZM89.63 201.14L88.18 195.40L82.88 193.89L79.03 198.13L80.47 203.87L85.77 205.37ZM119.54 182.96L118.09 177.22L112.79 175.71L108.92 179.95L110.37 185.69L115.67 187.20ZM110.37 185.69L108.92 179.95L103.62 178.44L99.76 182.68L101.20 188.42L106.51 189.93ZM121.96 172.98L120.52 167.23L115.21 165.72L111.34 169.96L112.79 175.71L118.09 177.22ZM112.79 175.71L111.34 169.96L106.03 168.45L102.17 172.69L103.62 178.44L108.92 179.95ZM126.29 190.22L124.85 184.47L119.54 182.96L115.67 187.20L117.12 192.95L122.42 194.46ZM117.12 192.95L115.67 187.20L110.37 185.69L106.51 189.93L107.95 195.68L113.25 197.18ZM128.71 180.24L127.27 174.49L121.96 172.98L118.09 177.22L119.54 182.96L124.85 184.47ZM94.45 181.17L93.00 175.43L87.70 173.93L83.84 178.17L85.29 183.91L90.59 185.41ZM85.29 183.91L83.84 178.17L78.54 176.67L74.68 180.91L76.13 186.65L81.43 188.15ZM96.86 171.19L95.42 165.44L90.11 163.94L86.25 168.18L87.70 173.93L93.00 175.43ZM87.70 173.93L86.25 168.18L80.95 166.68L77.09 170.92L78.54 176.67L83.84 178.17ZM101.20 188.42L99.76 182.68L94.45 181.17L90.59 185.41L92.04 191.16L97.34 192.66ZM92.04 191.16L90.59 185.41L85.29 183.91L81.43 188.15L82.88 193.89L88.18 195.40ZM103.62 178.44L102.17 172.69L96.86 171.19L93.00 175.43L94.45 181.17L99.76 182.68ZM116.60 230.13L115.16 224.39L109.86 222.88L106.00 227.11L107.45 232.85L112.75 234.36ZM107.45 232.85L106.00 227.11L100.71 225.60L96.85 229.83L98.29 235.57L103.59 237.08ZM119.02 220.16L117.58 214.42L112.28 212.91L108.42 217.14L109.86 222.88L115.16 224.39ZM109.86 222.88L108.42 217.14L103.12 215.63L99.26 219.86L100.71 225.60L106.00 227.11ZM123.34 237.38L121.90 231.64L116.60 230.13L112.75 234.36L114.19 240.10L119.49 241.61ZM114.19 240.10L112.75 234.36L107.45 232.85L103.59 237.08L105.03 242.82L110.33 244.33ZM125.76 227.41L124.32 221.67L119.02 220.16L115.16 224.39L116.60 230.13L121.90 231.64ZM91.55 228.33L90.11 222.59L84.81 221.08L80.96 225.32L82.41 231.05L87.70 232.56ZM82.41 231.05L80.96 225.32L75.66 223.81L71.82 228.05L73.26 233.78L78.56 235.28ZM93.96 218.36L92.52 212.62L87.22 211.11L83.37 215.35L84.81 221.08L90.11 222.59ZM84.81 221.08L83.37 215.35L78.07 213.84L74.22 218.08L75.66 223.81L80.96 225.32ZM98.29 235.57L96.85 229.83L91.55 228.33L87.70 232.56L89.15 238.29L94.44 239.80ZM89.15 238.29L87.70 232.56L82.41 231.05L78.56 235.28L80.00 241.02L85.30 242.52ZM100.71 225.60L99.26 219.86L93.96 218.36L90.11 222.59L91.55 228.33L96.85 229.83ZM130.61 207.46L129.17 201.72L123.86 200.20L120.00 204.44L121.44 210.18L126.75 211.69ZM121.44 210.18L120.00 204.44L114.70 202.93L110.84 207.16L112.28 212.91L117.58 214.42ZM133.04 197.48L131.59 191.73L126.29 190.22L122.42 194.46L123.86 200.20L129.17 201.72ZM123.86 200.20L122.42 194.46L117.12 192.95L113.25 197.18L114.70 202.93L120.00 204.44ZM137.36 214.72L135.92 208.97L130.61 207.46L126.75 211.69L128.19 217.44L133.49 218.95ZM128.19 217.44L126.75 211.69L121.44 210.18L117.58 214.42L119.02 220.16L124.32 221.67ZM139.78 204.74L138.34 198.99L133.04 197.48L129.17 201.72L130.61 207.46L135.92 208.97ZM216.98 237.54L215.55 231.79L210.24 230.26L206.35 234.49L207.78 240.24L213.09 241.77ZM207.78 240.24L206.35 234.49L201.04 232.96L197.17 237.18L198.60 242.93L203.90 244.46ZM219.43 227.56L218.00 221.81L212.69 220.28L208.81 224.51L210.24 230.26L215.55 231.79ZM210.24 230.26L208.81 224.51L203.49 222.98L199.61 227.21L201.04 232.96L206.35 234.49ZM223.71 244.82L222.29 239.07L216.98 237.54L213.09 241.77L214.52 247.52L219.83 249.05ZM214.52 247.52L213.09 241.77L207.78 240.24L203.90 244.46L205.33 250.21L210.64 251.74ZM226.17 234.85L224.74 229.09L219.43 227.56L215.55 231.79L216.98 237.54L222.29 239.07ZM191.86 235.66L190.43 229.91L185.12 228.39L181.24 232.61L182.67 238.36L187.98 239.88ZM182.67 238.36L181.24 232.61L175.93 231.09L172.06 235.32L173.50 241.06L178.80 242.58ZM194.30 225.68L192.87 219.93L187.56 218.41L183.68 222.64L185.12 228.39L190.43 229.91ZM185.12 228.39L183.68 222.64L178.37 221.11L174.50 225.34L175.93 231.09L181.24 232.61ZM198.60 242.93L197.17 237.18L191.86 235.66L187.98 239.88L189.41 245.63L194.72 247.16ZM189.41 245.63L187.98 239.88L182.67 238.36L178.80 242.58L180.23 248.33L185.54 249.85ZM201.04 232.96L199.61 227.21L194.30 225.68L190.43 229.91L191.86 235.66L197.17 237.18ZM231.09 214.89L229.66 209.13L224.35 207.60L220.46 211.83L221.89 217.58L227.20 219.11ZM221.89 217.58L220.46 211.83L215.14 210.30L211.26 214.53L212.69 220.28L218.00 221.81ZM233.55 204.90L232.13 199.14L226.81 197.61L222.92 201.84L224.35 207.60L229.66 209.13ZM224.35 207.60L222.92 201.84L217.60 200.31L213.71 204.54L215.14 210.30L220.46 211.83ZM237.83 222.18L236.41 216.42L231.09 214.89L227.20 219.11L228.63 224.87L233.95 226.40ZM228.63 224.87L227.20 219.11L221.89 217.58L218.00 221.81L219.43 227.56L224.74 229.09ZM240.30 212.19L238.87 206.43L233.55 204.90L229.66 209.13L231.09 214.89L236.41 216.42ZM205.95 213.00L204.51 207.24L199.20 205.72L195.32 209.95L196.75 215.70L202.06 217.23ZM196.75 215.70L195.32 209.95L190.01 208.43L186.13 212.66L187.56 218.41L192.87 219.93ZM208.40 203.01L206.97 197.26L201.65 195.73L197.77 199.96L199.20 205.72L204.51 207.24ZM199.20 205.72L197.77 199.96L192.45 198.44L188.57 202.67L190.01 208.43L195.32 209.95ZM212.69 220.28L211.26 214.53L205.95 213.00L202.06 217.23L203.49 222.98L208.81 224.51ZM203.49 222.98L202.06 217.23L196.75 215.70L192.87 219.93L194.30 225.68L199.61 227.21ZM227.99 262.08L226.57 256.33L221.26 254.80L217.38 259.02L218.80 264.77L224.11 266.30ZM230.45 252.11L229.03 246.36L223.71 244.82L219.83 249.05L221.26 254.80L226.57 256.33ZM221.26 254.80L219.83 249.05L214.52 247.52L210.64 251.74L212.07 257.49L217.38 259.02ZM237.19 259.39L235.76 253.64L230.45 252.11L226.57 256.33L227.99 262.08L233.30 263.61ZM202.89 260.18L201.46 254.43L196.15 252.90L192.27 257.13L193.71 262.87L199.01 264.40ZM193.71 262.87L192.27 257.13L186.97 255.60L183.10 259.82L184.53 265.57L189.83 267.09ZM205.33 250.21L203.90 244.46L198.60 242.93L194.72 247.16L196.15 252.90L201.46 254.43ZM196.15 252.90L194.72 247.16L189.41 245.63L185.54 249.85L186.97 255.60L192.27 257.13ZM212.07 257.49L210.64 251.74L205.33 250.21L201.46 254.43L202.89 260.18L208.19 261.71ZM242.11 239.45L240.69 233.69L235.37 232.16L231.48 236.38L232.91 242.13L238.22 243.67ZM232.91 242.13L231.48 236.38L226.17 234.85L222.29 239.07L223.71 244.82L229.03 246.36ZM244.58 229.47L243.15 223.71L237.83 222.18L233.95 226.40L235.37 232.16L240.69 233.69ZM235.37 232.16L233.95 226.40L228.63 224.87L224.74 229.09L226.17 234.85L231.48 236.38ZM248.85 246.74L247.43 240.98L242.11 239.45L238.22 243.67L239.65 249.42L244.96 250.96ZM239.65 249.42L238.22 243.67L232.91 242.13L229.03 246.36L230.45 252.11L235.76 253.64ZM251.32 236.76L249.89 231.00L244.58 229.47L240.69 233.69L242.11 239.45L247.43 240.98ZM55.43 202.10L53.98 196.37L48.68 194.87L44.84 199.11L46.29 204.84L51.58 206.34ZM46.29 204.84L44.84 199.11L39.54 197.61L35.70 201.85L37.15 207.59L42.45 209.08ZM62.18 209.34L60.73 203.60L55.43 202.10L51.58 206.34L53.03 212.08L58.33 213.57ZM53.03 212.08L51.58 206.34L46.29 204.84L42.45 209.08L43.90 214.81L49.19 216.31ZM64.58 199.36L63.13 193.63L57.83 192.13L53.98 196.37L55.43 202.10L60.73 203.60ZM52.59 249.20L51.15 243.47L45.86 241.97L42.02 246.20L43.47 251.93L48.75 253.43ZM59.33 256.43L57.88 250.70L52.59 249.20L48.75 253.43L50.20 259.16L55.49 260.66ZM50.20 259.16L48.75 253.43L43.47 251.93L39.63 256.16L41.08 261.88L46.36 263.38ZM61.73 246.47L60.28 240.74L54.99 239.24L51.15 243.47L52.59 249.20L57.88 250.70ZM66.52 226.54L65.07 220.81L59.78 219.31L55.93 223.54L57.38 229.28L62.68 230.78ZM57.38 229.28L55.93 223.54L50.64 222.04L46.80 226.28L48.25 232.01L53.54 233.51ZM68.92 216.58L67.47 210.84L62.18 209.34L58.33 213.57L59.78 219.31L65.07 220.81ZM59.78 219.31L58.33 213.57L53.03 212.08L49.19 216.31L50.64 222.04L55.93 223.54ZM73.26 233.78L71.82 228.05L66.52 226.54L62.68 230.78L64.12 236.51L69.42 238.01ZM64.12 236.51L62.68 230.78L57.38 229.28L53.54 233.51L54.99 239.24L60.28 240.74ZM75.66 223.81L74.22 218.08L68.92 216.58L65.07 220.81L66.52 226.54L71.82 228.05Z"/><path data-band="3" fill="#dc2626" fill-opacity="0.35" d="M168.46 122.05L167.03 116.29L161.70 114.77L157.82 119.02L159.26 124.78L164.58 126.30ZM159.26 124.78L157.82 119.02L152.50 117.51L148.62 121.76L150.06 127.52L155.38 129.03ZM204.71 148.46L203.28 142.70L197.96 141.17L194.07 145.41L195.50 151.18L200.83 152.70ZM207.17 138.45L205.74 132.69L200.41 131.16L196.52 135.41L197.96 141.17L203.28 142.70ZM163.58 142.06L162.14 136.30L156.82 134.79L152.94 139.04L154.38 144.79L159.70 146.31ZM166.02 132.06L164.58 126.30L159.26 124.78L155.38 129.03L156.82 134.79L162.14 136.30ZM234.20 167.62L232.77 161.86L227.44 160.33L223.55 164.56L224.98 170.33L230.30 171.86ZM224.98 170.33L223.55 164.56L218.23 163.04L214.34 167.27L215.77 173.04L221.09 174.56ZM236.66 157.62L235.23 151.85L229.91 150.32L226.01 154.56L227.44 160.33L232.77 161.86ZM227.44 160.33L226.01 154.56L220.69 153.03L216.80 157.27L218.23 163.04L223.55 164.56ZM240.95 174.92L239.52 169.15L234.20 167.62L230.30 171.86L231.73 177.62L237.05 179.15ZM231.73 177.62L230.30 171.86L224.98 170.33L221.09 174.56L222.52 180.33L227.84 181.85ZM209.01 165.75L207.58 159.99L202.26 158.46L198.37 162.70L199.81 168.46L205.13 169.99ZM211.47 155.75L210.04 149.98L204.71 148.46L200.83 152.70L202.26 158.46L207.58 159.99ZM202.26 158.46L200.83 152.70L195.50 151.18L191.62 155.42L193.05 161.18L198.37 162.70ZM215.77 173.04L214.34 167.27L209.01 165.75L205.13 169.99L206.56 175.75L211.88 177.27ZM206.56 175.75L205.13 169.99L199.81 168.46L195.92 172.70L197.35 178.46L202.67 179.98ZM218.23 163.04L216.80 157.27L211.47 155.75L207.58 159.99L209.01 165.75L214.34 167.27ZM213.93 145.74L212.50 139.98L207.17 138.45L203.28 142.70L204.71 148.46L210.04 149.98ZM220.69 153.03L219.26 147.27L213.93 145.74L210.04 149.98L211.47 155.75L216.80 157.27ZM238.48 184.91L237.05 179.15L231.73 177.62L227.84 181.85L229.27 187.62L234.59 189.15ZM222.52 180.33L221.09 174.56L215.77 173.04L211.88 177.27L213.31 183.03L218.63 184.56ZM229.27 187.62L227.84 181.85L222.52 180.33L218.63 184.56L220.06 190.32L225.38 191.85ZM122.48 135.73L121.03 129.97L115.72 128.47L111.85 132.71L113.30 138.47L118.61 139.97ZM124.91 125.72L123.46 119.97L118.14 118.46L114.27 122.71L115.72 128.47L121.03 129.97ZM115.72 128.47L114.27 122.71L108.96 121.20L105.09 125.45L106.53 131.21L111.85 132.71ZM131.67 132.99L130.22 127.23L124.91 125.72L121.03 129.97L122.48 135.73L127.80 137.24ZM136.53 112.97L135.09 107.21L129.77 105.71L125.89 109.96L127.34 115.72L132.66 117.22ZM127.34 115.72L125.89 109.96L120.57 108.45L116.70 112.70L118.14 118.46L123.46 119.97ZM138.97 102.96L137.52 97.20L132.20 95.69L128.32 99.94L129.77 105.71L135.09 107.21ZM129.77 105.71L128.32 99.94L123.00 98.44L119.13 102.69L120.57 108.45L125.89 109.96ZM134.10 122.98L132.66 117.22L127.34 115.72L123.46 119.97L124.91 125.72L130.22 127.23ZM145.73 110.23L144.29 104.47L138.97 102.96L135.09 107.21L136.53 112.97L141.85 114.48ZM118.14 118.46L116.70 112.70L111.38 111.20L107.51 115.45L108.96 121.20L114.27 122.71ZM108.96 121.20L107.51 115.45L102.19 113.94L98.33 118.20L99.77 123.95L105.09 125.45ZM120.57 108.45L119.13 102.69L113.81 101.19L109.93 105.44L111.38 111.20L116.70 112.70ZM154.38 144.79L152.94 139.04L147.62 137.52L143.75 141.77L145.19 147.52L150.50 149.04ZM156.82 134.79L155.38 129.03L150.06 127.52L146.18 131.76L147.62 137.52L152.94 139.04ZM139.51 65.63L138.06 59.86L132.73 58.35L128.85 62.61L130.30 68.38L135.62 69.89ZM130.30 68.38L128.85 62.61L123.52 61.11L119.64 65.37L121.09 71.13L126.42 72.64ZM132.73 58.35L131.28 52.58L125.95 51.08L122.07 55.34L123.52 61.11L128.85 62.61ZM146.28 72.90L144.83 67.14L139.51 65.63L135.62 69.89L137.07 75.65L142.40 77.16ZM137.07 75.65L135.62 69.89L130.30 68.38L126.42 72.64L127.86 78.40L133.19 79.91ZM148.72 62.88L147.28 57.11L141.94 55.60L138.06 59.86L139.51 65.63L144.83 67.14ZM153.61 42.81L152.16 37.04L146.83 35.53L142.94 39.79L144.38 45.57L149.72 47.07ZM160.38 50.10L158.94 44.32L153.61 42.81L149.72 47.07L151.16 52.85L156.49 54.36ZM151.16 52.85L149.72 47.07L144.38 45.57L140.50 49.83L141.94 55.60L147.28 57.11ZM150.61 90.20L149.17 84.44L143.84 82.93L139.96 87.18L141.40 92.95L146.73 94.46ZM141.40 92.95L139.96 87.18L134.63 85.67L130.75 89.93L132.20 95.69L137.52 97.20ZM153.05 80.18L151.61 74.41L146.28 72.90L142.40 77.16L143.84 82.93L149.17 84.44ZM143.84 82.93L142.40 77.16L137.07 75.65L133.19 79.91L134.63 85.67L139.96 87.18ZM148.17 100.22L146.73 94.46L141.40 92.95L137.52 97.20L138.97 102.96L144.29 104.47ZM132.20 95.69L130.75 89.93L125.43 88.42L121.55 92.68L123.00 98.44L128.32 99.94ZM123.00 98.44L121.55 92.68L116.23 91.17L112.36 95.43L113.81 101.19L119.13 102.69ZM134.63 85.67L133.19 79.91L127.86 78.40L123.98 82.66L125.43 88.42L130.75 89.93ZM164.71 67.41L163.27 61.64L157.94 60.13L154.05 64.39L155.49 70.16L160.82 71.67ZM155.49 70.16L154.05 64.39L148.72 62.88L144.83 67.14L146.28 72.90L151.61 74.41ZM157.94 60.13L156.49 54.36L151.16 52.85L147.28 57.11L148.72 62.88L154.05 64.39ZM171.49 74.69L170.04 68.92L164.71 67.41L160.82 71.67L162.27 77.44L167.60 78.95ZM150.84 229.24L149.40 223.50L144.10 221.98L140.23 226.21L141.67 231.95L146.97 233.47ZM109.36 260.02L107.92 254.29L102.62 252.78L98.77 257.01L100.21 262.74L105.51 264.25ZM176.51 193.87L175.08 188.12L169.76 186.60L165.89 190.84L167.32 196.59L172.64 198.11ZM161.14 152.07L159.70 146.31L154.38 144.79L150.50 149.04L151.94 154.79L157.26 156.31ZM201.65 195.73L200.22 189.97L194.90 188.45L191.02 192.68L192.45 198.44L197.77 199.96ZM192.45 198.44L191.02 192.68L185.71 191.16L181.83 195.40L183.26 201.15L188.57 202.67ZM204.10 185.74L202.67 179.98L197.35 178.46L193.47 182.69L194.90 188.45L200.22 189.97ZM215.14 210.30L213.71 204.54L208.40 203.01L204.51 207.24L205.95 213.00L211.26 214.53Z"/></svg>
