<svg xmlns="http://www.w3.org/2000/svg" width="256" height="256" viewBox="0 0 256 256"><path data-band="1" fill="#fde68a" fill-opacity="0.35" d="M113.81 251.33L112.39 245.66L107.17 244.13L103.38 248.27L104.80 253.93L110.01 255.46ZM35.61 228.47L34.18 222.82L28.97 221.30L25.19 225.44L26.62 231.10L31.83 232.61ZM26.62 231.10L25.19 225.44L19.98 223.93L16.20 228.07L17.63 233.72L22.84 235.23ZM37.96 218.68L36.53 213.02L31.32 211.51L27.54 215.65L28.97 221.30L34.18 222.82ZM28.97 221.30L27.54 215.65L22.32 214.13L18.55 218.28L19.98 223.93L25.19 225.44ZM42.25 235.64L40.82 229.99L35.61 228.47L31.83 232.61L33.26 238.26L38.46 239.78ZM33.26 238.26L31.83 232.61L26.62 231.10L22.84 235.23L24.27 240.88L29.48 242.40ZM44.60 225.85L43.17 220.20L37.96 218.68L34.18 222.82L35.61 228.47L40.82 229.99ZM10.99 226.56L9.56 220.90L4.35 219.39L0.58 223.53L2.01 229.18L7.22 230.69ZM2.01 229.18L0.58 223.53L-4.63 222.02L-8.40 226.17L-6.96 231.81L-1.76 233.32ZM13.34 216.76L11.90 211.11L6.69 209.60L2.92 213.74L4.35 219.39L9.56 220.90ZM4.35 219.39L2.92 213.74L-2.29 212.23L-6.06 216.37L-4.63 222.02L0.58 223.53ZM8.65 236.34L7.22 230.69L2.01 229.18L-1.76 233.32L-0.33 238.97L4.88 240.48ZM19.98 223.93L18.55 218.28L13.34 216.76L9.56 220.90L10.99 226.56L16.20 228.07ZM49.31 206.26L47.88 200.60L42.67 199.08L38.88 203.22L40.31 208.88L45.53 210.40ZM40.31 208.88L38.88 203.22L33.67 201.71L29.89 205.85L31.32 211.51L36.53 213.02ZM51.67 196.45L50.24 190.79L45.02 189.28L41.24 193.42L42.67 199.08L47.88 200.60ZM42.67 199.08L41.24 193.42L36.02 191.91L32.24 196.05L33.67 201.71L38.88 203.22ZM55.96 213.43L54.53 207.78L49.31 206.26L45.53 210.40L46.96 216.06L52.17 217.57ZM46.96 216.06L45.53 210.40L40.31 208.88L36.53 213.02L37.96 218.68L43.17 220.20ZM58.32 203.63L56.89 197.97L51.67 196.45L47.88 200.60L49.31 206.26L54.53 207.78ZM24.67 204.34L23.24 198.68L18.03 197.17L14.25 201.31L15.68 206.97L20.89 208.48ZM15.68 206.97L14.25 201.31L9.04 199.80L5.26 203.95L6.69 209.60L11.90 211.11ZM27.02 194.54L25.59 188.88L20.38 187.37L16.59 191.51L18.03 197.17L23.24 198.68ZM18.03 197.17L16.59 191.51L11.38 190.00L7.60 194.15L9.04 199.80L14.25 201.31ZM31.32 211.51L29.89 205.85L24.67 204.34L20.89 208.48L22.32 214.13L27.54 215.65ZM22.32 214.13L20.89 208.48L15.68 206.97L11.90 211.11L13.34 216.76L18.55 218.28ZM33.67 201.71L32.24 196.05L27.02 194.54L23.24 198.68L24.67 204.34L29.89 205.85ZM46.53 252.60L45.10 246.95L39.89 245.43L36.11 249.57L37.54 255.22L42.75 256.74ZM37.54 255.22L36.11 249.57L30.91 248.05L27.13 252.18L28.56 257.83L33.76 259.35ZM48.88 242.82L47.46 237.16L42.25 235.64L38.46 239.78L39.89 245.43L45.10 246.95ZM39.89 245.43L38.46 239.78L33.26 238.26L29.48 242.40L30.91 248.05L36.11 249.57ZM53.16 259.77L51.74 254.12L46.53 252.60L42.75 256.74L44.18 262.39L49.38 263.91ZM44.18 262.39L42.75 256.74L37.54 255.22L33.76 259.35L35.19 265.00L40.40 266.52ZM55.52 249.99L54.09 244.34L48.88 242.82L45.10 246.95L46.53 252.60L51.74 254.12ZM21.92 250.67L20.49 245.02L15.29 243.51L11.51 247.64L12.95 253.29L18.15 254.80ZM12.95 253.29L11.51 247.64L6.31 246.13L2.54 250.27L3.97 255.91L9.17 257.42ZM15.29 243.51L13.86 237.86L8.65 236.34L4.88 240.48L6.31 246.13L11.51 247.64ZM28.56 257.83L27.13 252.18L21.92 250.67L18.15 254.80L19.58 260.45L24.78 261.97ZM19.58 260.45L18.15 254.80L12.95 253.29L9.17 257.42L10.61 263.07L15.81 264.58ZM30.91 248.05L29.48 242.40L24.27 240.88L20.49 245.02L21.92 250.67L27.13 252.18ZM60.24 230.41L58.81 224.75L53.60 223.23L49.81 227.37L51.24 233.03L56.45 234.55ZM51.24 233.03L49.81 227.37L44.60 225.85L40.82 229.99L42.25 235.64L47.46 237.16ZM62.60 220.61L61.17 214.95L55.96 213.43L52.17 217.57L53.60 223.23L58.81 224.75ZM53.60 223.23L52.17 217.57L46.96 216.06L43.17 220.20L44.60 225.85L49.81 227.37ZM66.88 237.59L65.45 231.93L60.24 230.41L56.45 234.55L57.88 240.20L63.09 241.72ZM57.88 240.20L56.45 234.55L51.24 233.03L47.46 237.16L48.88 242.82L54.09 244.34ZM69.24 227.79L67.81 222.13L62.60 220.61L58.81 224.75L60.24 230.41L65.45 231.93ZM3.97 255.91L2.54 250.27L-2.66 248.75L-6.43 252.89L-5.00 258.53L0.20 260.05ZM6.31 246.13L4.88 240.48L-0.33 238.97L-4.10 243.11L-2.66 248.75L2.54 250.27ZM52.11 159.84L50.67 154.17L45.45 152.66L41.66 156.81L43.09 162.48L48.31 163.99ZM43.09 162.48L41.66 156.81L36.44 155.30L32.65 159.45L34.08 165.11L39.30 166.63ZM54.47 150.02L53.04 144.35L47.81 142.84L44.02 146.99L45.45 152.66L50.67 154.17ZM45.45 152.66L44.02 146.99L38.80 145.48L35.01 149.63L36.44 155.30L41.66 156.81ZM58.76 167.03L57.33 161.36L52.11 159.84L48.31 163.99L49.74 169.66L54.96 171.17ZM49.74 169.66L48.31 163.99L43.09 162.48L39.30 166.63L40.73 172.29L45.95 173.80ZM61.12 157.21L59.69 151.54L54.47 150.02L50.67 154.17L52.11 159.84L57.33 161.36ZM27.43 157.94L26.00 152.27L20.77 150.76L16.99 154.91L18.42 160.58L23.64 162.09ZM18.42 160.58L16.99 154.91L11.77 153.40L7.99 157.56L9.42 163.22L14.64 164.73ZM20.77 150.76L19.34 145.10L14.12 143.59L10.33 147.74L11.77 153.40L16.99 154.91ZM34.08 165.11L32.65 159.45L27.43 157.94L23.64 162.09L25.08 167.75L30.29 169.26ZM25.08 167.75L23.64 162.09L18.42 160.58L14.64 164.73L16.07 170.39L21.29 171.90ZM36.44 155.30L35.01 149.63L29.78 148.12L26.00 152.27L27.43 157.94L32.65 159.45ZM65.86 137.56L64.43 131.89L59.20 130.38L55.40 134.53L56.83 140.20L62.06 141.72ZM56.83 140.20L55.40 134.53L50.18 133.02L46.38 137.17L47.81 142.84L53.04 144.35ZM72.51 144.76L71.09 139.08L65.86 137.56L62.06 141.72L63.49 147.39L68.72 148.91ZM63.49 147.39L62.06 141.72L56.83 140.20L53.04 144.35L54.47 150.02L59.69 151.54ZM74.89 134.93L73.46 129.26L68.23 127.74L64.43 131.89L65.86 137.56L71.09 139.08ZM47.81 142.84L46.38 137.17L41.16 135.66L37.36 139.81L38.80 145.48L44.02 146.99ZM63.04 184.02L61.62 178.36L56.39 176.84L52.60 180.99L54.03 186.65L59.25 188.17ZM54.03 186.65L52.60 180.99L47.38 179.47L43.59 183.61L45.02 189.28L50.24 190.79ZM65.41 174.21L63.98 168.54L58.76 167.03L54.96 171.17L56.39 176.84L61.62 178.36ZM56.39 176.84L54.96 171.17L49.74 169.66L45.95 173.80L47.38 179.47L52.60 180.99ZM69.69 191.21L68.26 185.54L63.04 184.02L59.25 188.17L60.68 193.83L65.90 195.35ZM60.68 193.83L59.25 188.17L54.03 186.65L50.24 190.79L51.67 196.45L56.89 197.97ZM72.06 181.40L70.63 175.73L65.41 174.21L61.62 178.36L63.04 184.02L68.26 185.54ZM38.38 182.10L36.95 176.44L31.73 174.92L27.94 179.07L29.37 184.73L34.59 186.25ZM29.37 184.73L27.94 179.07L22.73 177.56L18.94 181.71L20.38 187.37L25.59 188.88ZM40.73 172.29L39.30 166.63L34.08 165.11L30.29 169.26L31.73 174.92L36.95 176.44ZM31.73 174.92L30.29 169.26L25.08 167.75L21.29 171.90L22.73 177.56L27.94 179.07ZM45.02 189.28L43.59 183.61L38.38 182.10L34.59 186.25L36.02 191.91L41.24 193.42ZM36.02 191.91L34.59 186.25L29.37 184.73L25.59 188.88L27.02 194.54L32.24 196.05ZM47.38 179.47L45.95 173.80L40.73 172.29L36.95 176.44L38.38 182.10L43.59 183.61ZM76.80 161.77L75.37 156.10L70.14 154.58L66.35 158.73L67.78 164.40L73.00 165.92ZM67.78 164.40L66.35 158.73L61.12 157.21L57.33 161.36L58.76 167.03L63.98 168.54ZM79.17 151.95L77.74 146.28L72.51 144.76L68.72 148.91L70.14 154.58L75.37 156.10ZM70.14 154.58L68.72 148.91L63.49 147.39L59.69 151.54L61.12 157.21L66.35 158.73ZM83.45 168.96L82.02 163.29L76.80 161.77L73.00 165.92L74.43 171.58L79.65 173.10ZM74.43 171.58L73.00 165.92L67.78 164.40L63.98 168.54L65.41 174.21L70.63 175.73ZM85.82 159.14L84.40 153.47L79.17 151.95L75.37 156.10L76.80 161.77L82.02 163.29ZM5.12 146.23L3.68 140.57L-1.54 139.06L-5.32 143.22L-3.88 148.88L1.33 150.39ZM6.69 209.60L5.26 203.95L0.05 202.44L-3.72 206.58L-2.29 212.23L2.92 213.74ZM9.04 199.80L7.60 194.15L2.39 192.64L-1.39 196.78L0.05 202.44L5.26 203.95ZM13.73 180.20L12.29 174.54L7.08 173.03L3.30 177.18L4.73 182.83L9.95 184.34ZM4.73 182.83L3.30 177.18L-1.92 175.67L-5.69 179.82L-4.26 185.47L0.96 186.98ZM16.07 170.39L14.64 164.73L9.42 163.22L5.64 167.37L7.08 173.03L12.29 174.54ZM20.38 187.37L18.94 181.71L13.73 180.20L9.95 184.34L11.38 190.00L16.59 191.51ZM11.38 190.00L9.95 184.34L4.73 182.83L0.96 186.98L2.39 192.64L7.60 194.15ZM22.73 177.56L21.29 171.90L16.07 170.39L12.29 174.54L13.73 180.20L18.94 181.71ZM95.79 256.53L94.37 250.87L89.15 249.34L85.36 253.47L86.78 259.13L92.00 260.66ZM86.78 259.13L85.36 253.47L80.15 251.95L76.36 256.08L77.78 261.74L82.99 263.26ZM98.16 246.74L96.74 241.08L91.52 239.55L87.73 243.68L89.15 249.34L94.37 250.87ZM89.15 249.34L87.73 243.68L82.52 242.16L78.73 246.29L80.15 251.95L85.36 253.47ZM104.80 253.93L103.38 248.27L98.16 246.74L94.37 250.87L95.79 256.53L101.00 258.06ZM71.15 254.56L69.73 248.90L64.51 247.38L60.73 251.51L62.15 257.16L67.36 258.69ZM62.15 257.16L60.73 251.51L55.52 249.99L51.74 254.12L53.16 259.77L58.37 261.30ZM73.51 244.77L72.09 239.11L66.88 237.59L63.09 241.72L64.51 247.38L69.73 248.90ZM64.51 247.38L63.09 241.72L57.88 240.20L54.09 244.34L55.52 249.99L60.73 251.51ZM77.78 261.74L76.36 256.08L71.15 254.56L67.36 258.69L68.79 264.34L74.00 265.86ZM80.15 251.95L78.73 246.29L73.51 244.77L69.73 248.90L71.15 254.56L76.36 256.08ZM10.61 263.07L9.17 257.42L3.97 255.91L0.20 260.05L1.63 265.69L6.83 267.20ZM98.64 210.15L97.22 204.49L92.00 202.96L88.20 207.10L89.63 212.77L94.85 214.29ZM89.63 212.77L88.20 207.10L82.98 205.58L79.19 209.72L80.61 215.38L85.83 216.91ZM101.02 200.35L99.60 194.68L94.37 193.16L90.58 197.30L92.00 202.96L97.22 204.49ZM92.00 202.96L90.58 197.30L85.35 195.77L81.56 199.91L82.98 205.58L88.20 207.10ZM105.29 217.35L103.87 211.68L98.64 210.15L94.85 214.29L96.27 219.96L101.49 221.48ZM96.27 219.96L94.85 214.29L89.63 212.77L85.83 216.91L87.25 222.57L92.47 224.09ZM107.67 207.54L106.24 201.88L101.02 200.35L97.22 204.49L98.64 210.15L103.87 211.68ZM73.97 208.20L72.54 202.53L67.33 201.01L63.53 205.15L64.96 210.81L70.18 212.34ZM64.96 210.81L63.53 205.15L58.32 203.63L54.53 207.78L55.96 213.43L61.17 214.95ZM76.34 198.39L74.91 192.73L69.69 191.21L65.90 195.35L67.33 201.01L72.54 202.53ZM67.33 201.01L65.90 195.35L60.68 193.83L56.89 197.97L58.32 203.63L63.53 205.15ZM80.61 215.38L79.19 209.72L73.97 208.20L70.18 212.34L71.60 218.00L76.82 219.52ZM71.60 218.00L70.18 212.34L64.96 210.81L61.17 214.95L62.60 220.61L67.81 222.13ZM82.98 205.58L81.56 199.91L76.34 198.39L72.54 202.53L73.97 208.20L79.19 209.72ZM112.43 187.92L111.01 182.25L105.78 180.73L101.98 184.87L103.40 190.54L108.62 192.07ZM103.40 190.54L101.98 184.87L96.75 183.34L92.95 187.49L94.37 193.16L99.60 194.68ZM114.81 178.11L113.39 172.44L108.16 170.91L104.36 175.06L105.78 180.73L111.01 182.25ZM105.78 180.73L104.36 175.06L99.13 173.53L95.33 177.67L96.75 183.34L101.98 184.87ZM119.07 195.12L117.65 189.45L112.43 187.92L108.62 192.07L110.05 197.74L115.27 199.26ZM110.05 197.74L108.62 192.07L103.40 190.54L99.60 194.68L101.02 200.35L106.24 201.88ZM121.46 185.31L120.04 179.64L114.81 178.11L111.01 182.25L112.43 187.92L117.65 189.45ZM87.73 185.96L86.30 180.30L81.08 178.77L77.28 182.92L78.71 188.58L83.93 190.11ZM78.71 188.58L77.28 182.92L72.06 181.40L68.26 185.54L69.69 191.21L74.91 192.73ZM90.10 176.15L88.68 170.48L83.45 168.96L79.65 173.10L81.08 178.77L86.30 180.30ZM81.08 178.77L79.65 173.10L74.43 171.58L70.63 175.73L72.06 181.40L77.28 182.92ZM94.37 193.16L92.95 187.49L87.73 185.96L83.93 190.11L85.35 195.77L90.58 197.30ZM85.35 195.77L83.93 190.11L78.71 188.58L74.91 192.73L76.34 198.39L81.56 199.91ZM96.75 183.34L95.33 177.67L90.10 176.15L86.30 180.30L87.73 185.96L92.95 187.49ZM109.55 234.34L108.13 228.68L102.91 227.15L99.11 231.28L100.53 236.94L105.75 238.47ZM100.53 236.94L99.11 231.28L93.89 229.76L90.10 233.89L91.52 239.55L96.74 241.08ZM111.93 224.54L110.51 218.88L105.29 217.35L101.49 221.48L102.91 227.15L108.13 228.68ZM102.91 227.15L101.49 221.48L96.27 219.96L92.47 224.09L93.89 229.76L99.11 231.28ZM116.19 241.53L114.77 235.87L109.55 234.34L105.75 238.47L107.17 244.13L112.39 245.66ZM107.17 244.13L105.75 238.47L100.53 236.94L96.74 241.08L98.16 246.74L103.38 248.27ZM118.57 231.74L117.15 226.07L111.93 224.54L108.13 228.68L109.55 234.34L114.77 235.87ZM84.88 232.36L83.46 226.70L78.24 225.18L74.45 229.32L75.88 234.98L81.09 236.50ZM75.88 234.98L74.45 229.32L69.24 227.79L65.45 231.93L66.88 237.59L72.09 239.11ZM87.25 222.57L85.83 216.91L80.61 215.38L76.82 219.52L78.24 225.18L83.46 226.70ZM78.24 225.18L76.82 219.52L71.60 218.00L67.81 222.13L69.24 227.79L74.45 229.32ZM91.52 239.55L90.10 233.89L84.88 232.36L81.09 236.50L82.52 242.16L87.73 243.68ZM82.52 242.16L81.09 236.50L75.88 234.98L72.09 239.11L73.51 244.77L78.73 246.29ZM93.89 229.76L92.47 224.09L87.25 222.57L83.46 226.70L84.88 232.36L90.10 233.89ZM123.33 212.13L121.92 206.46L116.69 204.93L112.89 209.07L114.31 214.74L119.53 216.27ZM114.31 214.74L112.89 209.07L107.67 207.54L103.87 211.68L105.29 217.35L110.51 218.88ZM125.72 202.32L124.30 196.65L119.07 195.12L115.27 199.26L116.69 204.93L121.92 206.46ZM116.69 204.93L115.27 199.26L110.05 197.74L106.24 201.88L107.67 207.54L112.89 209.07ZM132.36 209.53L130.95 203.86L125.72 202.32L121.92 206.46L123.33 212.13L128.56 213.66ZM49.54 -4.09L48.10 -9.78L42.85 -11.29L39.04 -7.11L40.48 -1.42L45.73 0.09ZM40.48 -1.42L39.04 -7.11L33.80 -8.61L29.99 -4.43L31.43 1.26L36.67 2.76ZM56.22 3.11L54.79 -2.58L49.54 -4.09L45.73 0.09L47.17 5.78L52.41 7.29ZM47.17 5.78L45.73 0.09L40.48 -1.42L36.67 2.76L38.11 8.45L43.36 9.96ZM15.70 -3.26L14.25 -8.94L9.01 -10.45L5.21 -6.26L6.65 -0.58L11.89 0.92ZM31.43 1.26L29.99 -4.43L24.74 -5.94L20.94 -1.75L22.38 3.93L27.62 5.44ZM22.38 3.93L20.94 -1.75L15.70 -3.26L11.89 0.92L13.34 6.61L18.58 8.11ZM107.26 70.62L105.83 64.93L100.59 63.41L96.78 67.57L98.20 73.26L103.45 74.78ZM98.20 73.26L96.78 67.57L91.53 66.05L87.72 70.22L89.15 75.90L94.39 77.42ZM100.59 63.41L99.16 57.72L93.92 56.20L90.10 60.37L91.53 66.05L96.78 67.57ZM104.87 80.47L103.45 74.78L98.20 73.26L94.39 77.42L95.82 83.11L101.06 84.63ZM68.68 91.04L67.25 85.36L62.01 83.84L58.21 88.01L59.64 93.68L64.88 95.20ZM59.64 93.68L58.21 88.01L52.98 86.49L49.17 90.66L50.61 96.33L55.84 97.85ZM71.05 81.20L69.62 75.51L64.39 74.00L60.58 78.16L62.01 83.84L67.25 85.36ZM62.01 83.84L60.58 78.16L55.34 76.65L51.54 80.82L52.98 86.49L58.21 88.01ZM75.35 98.23L73.92 92.56L68.68 91.04L64.88 95.20L66.31 100.88L71.54 102.40ZM66.31 100.88L64.88 95.20L59.64 93.68L55.84 97.85L57.27 103.52L62.51 105.04ZM77.72 88.39L76.29 82.71L71.05 81.20L67.25 85.36L68.68 91.04L73.92 92.56ZM43.94 89.14L42.51 83.47L37.27 81.96L33.48 86.12L34.91 91.80L40.14 93.31ZM34.91 91.80L33.48 86.12L28.24 84.61L24.45 88.78L25.89 94.45L31.12 95.96ZM46.31 79.30L44.87 73.62L39.64 72.11L35.84 76.28L37.27 81.96L42.51 83.47ZM37.27 81.96L35.84 76.28L30.60 74.77L26.81 78.94L28.24 84.61L33.48 86.12ZM50.61 96.33L49.17 90.66L43.94 89.14L40.14 93.31L41.58 98.98L46.81 100.49ZM41.58 98.98L40.14 93.31L34.91 91.80L31.12 95.96L32.55 101.63L37.78 103.14ZM52.98 86.49L51.54 80.82L46.31 79.30L42.51 83.47L43.94 89.14L49.17 90.66ZM82.48 68.70L81.05 63.02L75.81 61.50L72.00 65.67L73.43 71.35L78.67 72.87ZM73.43 71.35L72.00 65.67L66.76 64.15L62.95 68.32L64.39 74.00L69.62 75.51ZM84.86 58.85L83.43 53.16L78.19 51.65L74.38 55.81L75.81 61.50L81.05 63.02ZM75.81 61.50L74.38 55.81L69.13 54.30L65.33 58.47L66.76 64.15L72.00 65.67ZM89.15 75.90L87.72 70.22L82.48 68.70L78.67 72.87L80.10 78.55L85.34 80.07ZM80.10 78.55L78.67 72.87L73.43 71.35L69.62 75.51L71.05 81.20L76.29 82.71ZM91.53 66.05L90.10 60.37L84.86 58.85L81.05 63.02L82.48 68.70L87.72 70.22ZM57.71 66.80L56.28 61.12L51.04 59.61L47.24 63.78L48.67 69.46L53.91 70.97ZM48.67 69.46L47.24 63.78L42.00 62.27L38.20 66.43L39.64 72.11L44.87 73.62ZM60.09 56.95L58.65 51.27L53.41 49.76L49.61 53.93L51.04 59.61L56.28 61.12ZM51.04 59.61L49.61 53.93L44.37 52.42L40.57 56.59L42.00 62.27L47.24 63.78ZM64.39 74.00L62.95 68.32L57.71 66.80L53.91 70.97L55.34 76.65L60.58 78.16ZM55.34 76.65L53.91 70.97L48.67 69.46L44.87 73.62L46.31 79.30L51.54 80.82ZM66.76 64.15L65.33 58.47L60.09 56.95L56.28 61.12L57.71 66.80L62.95 68.32ZM79.64 115.27L78.21 109.59L72.97 108.07L69.17 112.23L70.60 117.91L75.83 119.43ZM70.60 117.91L69.17 112.23L63.94 110.71L60.14 114.87L61.57 120.55L66.80 122.06ZM82.01 105.43L80.58 99.75L75.35 98.23L71.54 102.40L72.97 108.07L78.21 109.59ZM72.97 108.07L71.54 102.40L66.31 100.88L62.51 105.04L63.94 110.71L69.17 112.23ZM86.30 122.47L84.87 116.79L79.64 115.27L75.83 119.43L77.26 125.10L82.49 126.62ZM77.26 125.10L75.83 119.43L70.60 117.91L66.80 122.06L68.23 127.74L73.46 129.26ZM88.67 112.63L87.25 106.95L82.01 105.43L78.21 109.59L79.64 115.27L84.87 116.79ZM93.44 92.95L92.01 87.27L86.77 85.75L82.96 89.91L84.39 95.59L89.63 97.11ZM84.39 95.59L82.96 89.91L77.72 88.39L73.92 92.56L75.35 98.23L80.58 99.75ZM95.82 83.11L94.39 77.42L89.15 75.90L85.34 80.07L86.77 85.75L92.01 87.27ZM86.77 85.75L85.34 80.07L80.10 78.55L76.29 82.71L77.72 88.39L82.96 89.91ZM100.10 100.16L98.68 94.47L93.44 92.95L89.63 97.11L91.05 102.79L96.29 104.32ZM91.05 102.79L89.63 97.11L84.39 95.59L80.58 99.75L82.01 105.43L87.25 106.95ZM102.49 90.31L101.06 84.63L95.82 83.11L92.01 87.27L93.44 92.95L98.68 94.47ZM85.33 22.06L83.90 16.37L78.65 14.86L74.84 19.03L76.27 24.72L81.52 26.24ZM76.27 24.72L74.84 19.03L69.59 17.52L65.78 21.69L67.21 27.38L72.46 28.90ZM87.72 12.20L86.29 6.50L81.03 4.99L77.22 9.16L78.65 14.86L83.90 16.37ZM78.65 14.86L77.22 9.16L71.97 7.65L68.15 11.83L69.59 17.52L74.84 19.03ZM92.01 29.27L90.58 23.58L85.33 22.06L81.52 26.24L82.95 31.93L88.20 33.45ZM82.95 31.93L81.52 26.24L76.27 24.72L72.46 28.90L73.89 34.58L79.13 36.10ZM94.40 19.41L92.97 13.71L87.72 12.20L83.90 16.37L85.33 22.06L90.58 23.58ZM60.53 20.18L59.10 14.49L53.85 12.98L50.04 17.16L51.48 22.84L56.72 24.36ZM51.48 22.84L50.04 17.16L44.80 15.65L40.99 19.82L42.43 25.51L47.67 27.02ZM62.91 10.31L61.47 4.62L56.22 3.11L52.41 7.29L53.85 12.98L59.10 14.49ZM53.85 12.98L52.41 7.29L47.17 5.78L43.36 9.96L44.80 15.65L50.04 17.16ZM67.21 27.38L65.78 21.69L60.53 20.18L56.72 24.36L58.16 30.04L63.40 31.56ZM58.16 30.04L56.72 24.36L51.48 22.84L47.67 27.02L49.11 32.70L54.35 34.22ZM69.59 17.52L68.15 11.83L62.91 10.31L59.10 14.49L60.53 20.18L65.78 21.69ZM99.18 -0.34L97.75 -6.03L92.49 -7.55L88.67 -3.37L90.10 2.32L95.36 3.84ZM90.10 2.32L88.67 -3.37L83.42 -4.89L79.60 -0.71L81.03 4.99L86.29 6.50ZM105.86 6.88L104.43 1.18L99.18 -0.34L95.36 3.84L96.79 9.54L102.04 11.06ZM96.79 9.54L95.36 3.84L90.10 2.32L86.29 6.50L87.72 12.20L92.97 13.71ZM74.35 -2.22L72.92 -7.92L67.66 -9.43L63.85 -5.25L65.28 0.44L70.53 1.96ZM65.28 0.44L63.85 -5.25L58.60 -6.76L54.79 -2.58L56.22 3.11L61.47 4.62ZM81.03 4.99L79.60 -0.71L74.35 -2.22L70.53 1.96L71.97 7.65L77.22 9.16ZM71.97 7.65L70.53 1.96L65.28 0.44L61.47 4.62L62.91 10.31L68.15 11.83ZM96.30 46.34L94.87 40.65L89.63 39.13L85.81 43.31L87.24 48.99L92.49 50.51ZM87.24 48.99L85.81 43.31L80.57 41.79L76.75 45.96L78.19 51.65L83.43 53.16ZM98.69 36.48L97.26 30.79L92.01 29.27L88.20 33.45L89.63 39.13L94.87 40.65ZM89.63 39.13L88.20 33.45L82.95 31.93L79.13 36.10L80.57 41.79L85.81 43.31ZM102.98 53.55L101.55 47.86L96.30 46.34L92.49 50.51L93.92 56.20L99.16 57.72ZM93.92 56.20L92.49 50.51L87.24 48.99L83.43 53.16L84.86 58.85L90.10 60.37ZM71.51 44.44L70.08 38.76L64.83 37.24L61.03 41.41L62.46 47.10L67.70 48.61ZM62.46 47.10L61.03 41.41L55.78 39.90L51.98 44.07L53.41 49.76L58.65 51.27ZM73.89 34.58L72.46 28.90L67.21 27.38L63.40 31.56L64.83 37.24L70.08 38.76ZM64.83 37.24L63.40 31.56L58.16 30.04L54.35 34.22L55.78 39.90L61.03 41.41ZM78.19 51.65L76.75 45.96L71.51 44.44L67.70 48.61L69.13 54.30L74.38 55.81ZM69.13 54.30L67.70 48.61L62.46 47.10L58.65 51.27L60.09 56.95L65.33 58.47ZM80.57 41.79L79.13 36.10L73.89 34.58L70.08 38.76L71.51 44.44L76.75 45.96ZM101.08 26.62L99.65 20.93L94.40 19.41L90.58 23.58L92.01 29.27L97.26 30.79ZM103.47 16.75L102.04 11.06L96.79 9.54L92.97 13.71L94.40 19.41L99.65 20.93ZM106.27 144.06L104.85 138.39L99.62 136.86L95.81 141.02L97.23 146.69L102.47 148.22ZM112.93 151.27L111.50 145.59L106.27 144.06L102.47 148.22L103.89 153.89L109.12 155.42ZM90.58 139.49L89.15 133.82L83.92 132.30L80.12 136.45L81.54 142.12L86.77 143.64ZM81.54 142.12L80.12 136.45L74.89 134.93L71.09 139.08L72.51 144.76L77.74 146.28ZM92.96 129.66L91.53 123.99L86.30 122.47L82.49 126.62L83.92 132.30L89.15 133.82ZM83.92 132.30L82.49 126.62L77.26 125.10L73.46 129.26L74.89 134.93L80.12 136.45ZM97.23 146.69L95.81 141.02L90.58 139.49L86.77 143.64L88.20 149.32L93.43 150.84ZM88.20 149.32L86.77 143.64L81.54 142.12L77.74 146.28L79.17 151.95L84.40 153.47ZM99.62 136.86L98.19 131.19L92.96 129.66L89.15 133.82L90.58 139.49L95.81 141.02ZM104.38 117.20L102.96 111.52L97.72 110.00L93.91 114.15L95.34 119.83L100.57 121.35ZM95.34 119.83L93.91 114.15L88.67 112.63L84.87 116.79L86.30 122.47L91.53 123.99ZM106.77 107.36L105.34 101.68L100.10 100.16L96.29 104.32L97.72 110.00L102.96 111.52ZM97.72 110.00L96.29 104.32L91.05 102.79L87.25 106.95L88.67 112.63L93.91 114.15ZM102.00 127.03L100.57 121.35L95.34 119.83L91.53 123.99L92.96 129.66L98.19 131.19ZM117.20 168.29L115.77 162.62L110.54 161.09L106.74 165.24L108.16 170.91L113.39 172.44ZM119.58 158.47L118.16 152.79L112.93 151.27L109.12 155.42L110.54 161.09L115.77 162.62ZM101.51 163.71L100.08 158.04L94.86 156.51L91.05 160.66L92.48 166.33L97.70 167.86ZM92.48 166.33L91.05 160.66L85.82 159.14L82.02 163.29L83.45 168.96L88.68 170.48ZM103.89 153.89L102.47 148.22L97.23 146.69L93.43 150.84L94.86 156.51L100.08 158.04ZM94.86 156.51L93.43 150.84L88.20 149.32L84.40 153.47L85.82 159.14L91.05 160.66ZM108.16 170.91L106.74 165.24L101.51 163.71L97.70 167.86L99.13 173.53L104.36 175.06ZM99.13 173.53L97.70 167.86L92.48 166.33L88.68 170.48L90.10 176.15L95.33 177.67ZM110.54 161.09L109.12 155.42L103.89 153.89L100.08 158.04L101.51 163.71L106.74 165.24ZM5.50 109.59L4.06 103.92L-1.17 102.42L-4.95 106.58L-3.51 112.25L1.71 113.75ZM7.85 99.76L6.41 94.09L1.18 92.59L-2.61 96.75L-1.17 102.42L4.06 103.92ZM3.15 119.42L1.71 113.75L-3.51 112.25L-7.30 116.41L-5.86 122.07L-0.63 123.58ZM19.22 87.27L17.78 81.59L12.55 80.09L8.76 84.25L10.20 89.93L15.43 91.43ZM10.20 89.93L8.76 84.25L3.53 82.75L-0.26 86.92L1.18 92.59L6.41 94.09ZM21.58 77.43L20.14 71.75L14.91 70.25L11.11 74.41L12.55 80.09L17.78 81.59ZM12.55 80.09L11.11 74.41L5.88 72.91L2.09 77.08L3.53 82.75L8.76 84.25ZM28.24 84.61L26.81 78.94L21.58 77.43L17.78 81.59L19.22 87.27L24.45 88.78ZM1.18 92.59L-0.26 86.92L-5.49 85.41L-9.27 89.58L-7.83 95.25L-2.61 96.75ZM3.53 82.75L2.09 77.08L-3.14 75.57L-6.93 79.74L-5.49 85.41L-0.26 86.92ZM21.98 40.70L20.54 35.02L15.30 33.51L11.50 37.69L12.94 43.37L18.18 44.87ZM12.94 43.37L11.50 37.69L6.27 36.19L2.47 40.36L3.91 46.04L9.15 47.54ZM24.34 30.84L22.90 25.16L17.66 23.66L13.86 27.83L15.30 33.51L20.54 35.02ZM15.30 33.51L13.86 27.83L8.62 26.33L4.82 30.51L6.27 36.19L11.50 37.69ZM28.65 47.89L27.22 42.21L21.98 40.70L18.18 44.87L19.62 50.55L24.85 52.06ZM19.62 50.55L18.18 44.87L12.94 43.37L9.15 47.54L10.59 53.22L15.82 54.72ZM31.02 38.03L29.58 32.35L24.34 30.84L20.54 35.02L21.98 40.70L27.22 42.21ZM3.91 46.04L2.47 40.36L-2.76 38.86L-6.56 43.03L-5.11 48.71L0.12 50.21ZM6.27 36.19L4.82 30.51L-0.41 29.00L-4.21 33.18L-2.76 38.86L2.47 40.36ZM35.75 18.32L34.31 12.63L29.06 11.12L25.26 15.30L26.70 20.99L31.94 22.49ZM26.70 20.99L25.26 15.30L20.02 13.80L16.22 17.97L17.66 23.66L22.90 25.16ZM38.11 8.45L36.67 2.76L31.43 1.26L27.62 5.44L29.06 11.12L34.31 12.63ZM29.06 11.12L27.62 5.44L22.38 3.93L18.58 8.11L20.02 13.80L25.26 15.30ZM42.43 25.51L40.99 19.82L35.75 18.32L31.94 22.49L33.38 28.18L38.62 29.68ZM33.38 28.18L31.94 22.49L26.70 20.99L22.90 25.16L24.34 30.84L29.58 32.35ZM44.80 15.65L43.36 9.96L38.11 8.45L34.31 12.63L35.75 18.32L40.99 19.82ZM10.98 16.47L9.54 10.79L4.30 9.29L0.50 13.47L1.94 19.15L7.18 20.65ZM1.94 19.15L0.50 13.47L-4.74 11.96L-8.54 16.14L-7.09 21.82L-1.85 23.32ZM13.34 6.61L11.89 0.92L6.65 -0.58L2.85 3.60L4.30 9.29L9.54 10.79ZM17.66 23.66L16.22 17.97L10.98 16.47L7.18 20.65L8.62 26.33L13.86 27.83ZM8.62 26.33L7.18 20.65L1.94 19.15L-1.85 23.32L-0.41 29.00L4.82 30.51ZM20.02 13.80L18.58 8.11L13.34 6.61L9.54 10.79L10.98 16.47L16.22 17.97ZM32.97 64.92L31.53 59.25L26.29 57.74L22.50 61.91L23.93 67.58L29.17 69.09ZM23.93 67.58L22.50 61.91L17.26 60.40L13.47 64.57L14.91 70.25L20.14 71.75ZM35.33 55.08L33.89 49.40L28.65 47.89L24.85 52.06L26.29 57.74L31.53 59.25ZM26.29 57.74L24.85 52.06L19.62 50.55L15.82 54.72L17.26 60.40L22.50 61.91ZM39.64 72.11L38.20 66.43L32.97 64.92L29.17 69.09L30.60 74.77L35.84 76.28ZM30.60 74.77L29.17 69.09L23.93 67.58L20.14 71.75L21.58 77.43L26.81 78.94ZM42.00 62.27L40.57 56.59L35.33 55.08L31.53 59.25L32.97 64.92L38.20 66.43ZM8.23 63.07L6.79 57.39L1.56 55.89L-2.23 60.06L-0.79 65.73L4.44 67.24ZM10.59 53.22L9.15 47.54L3.91 46.04L0.12 50.21L1.56 55.89L6.79 57.39ZM1.56 55.89L0.12 50.21L-5.11 48.71L-8.90 52.88L-7.46 58.56L-2.23 60.06ZM14.91 70.25L13.47 64.57L8.23 63.07L4.44 67.24L5.88 72.91L11.11 74.41ZM5.88 72.91L4.44 67.24L-0.79 65.73L-4.58 69.90L-3.14 75.57L2.09 77.08ZM17.26 60.40L15.82 54.72L10.59 53.22L6.79 57.39L8.23 63.07L13.47 64.57ZM46.74 42.56L45.30 36.88L40.06 35.37L36.26 39.54L37.69 45.22L42.93 46.73ZM37.69 45.22L36.26 39.54L31.02 38.03L27.22 42.21L28.65 47.89L33.89 49.40ZM49.11 32.70L47.67 27.02L42.43 25.51L38.62 29.68L40.06 35.37L45.30 36.88ZM40.06 35.37L38.62 29.68L33.38 28.18L29.58 32.35L31.02 38.03L36.26 39.54ZM53.41 49.76L51.98 44.07L46.74 42.56L42.93 46.73L44.37 52.42L49.61 53.93ZM44.37 52.42L42.93 46.73L37.69 45.22L33.89 49.40L35.33 55.08L40.57 56.59Z"/><path data-band="2" fill="#f97316" fill-opacity="0.35" d="M208.37 242.43L206.97 236.75L201.74 235.21L197.92 239.34L199.32 245.01L204.55 246.56ZM199.32 245.01L197.92 239.34L192.69 237.79L188.87 241.92L190.28 247.59L195.51 249.14ZM210.79 232.62L209.38 226.95L204.15 225.40L200.33 229.53L201.74 235.21L206.97 236.75ZM201.74 235.21L200.33 229.53L195.10 227.99L191.28 232.12L192.69 237.79L197.92 239.34ZM215.01 249.65L213.60 243.98L208.37 242.43L204.55 246.56L205.96 252.23L211.19 253.78ZM205.96 252.23L204.55 246.56L199.32 245.01L195.51 249.14L196.91 254.81L202.14 256.36ZM217.43 239.85L216.02 234.17L210.79 232.62L206.97 236.75L208.37 242.43L213.60 243.98ZM183.64 240.38L182.23 234.71L177.00 233.16L173.19 237.29L174.60 242.96L179.83 244.51ZM174.60 242.96L173.19 237.29L167.96 235.75L164.15 239.88L165.57 245.55L170.79 247.09ZM186.05 230.57L184.64 224.90L179.41 223.36L175.59 227.49L177.00 233.16L182.23 234.71ZM177.00 233.16L175.59 227.49L170.36 225.95L166.55 230.08L167.96 235.75L173.19 237.29ZM190.28 247.59L188.87 241.92L183.64 240.38L179.83 244.51L181.24 250.18L186.46 251.72ZM181.24 250.18L179.83 244.51L174.60 242.96L170.79 247.09L172.20 252.76L177.42 254.30ZM192.69 237.79L191.28 232.12L186.05 230.57L182.23 234.71L183.64 240.38L188.87 241.92ZM222.27 220.23L220.86 214.55L215.62 213.00L211.80 217.14L213.20 222.82L218.44 224.36ZM213.20 222.82L211.80 217.14L206.56 215.59L202.74 219.72L204.15 225.40L209.38 226.95ZM224.69 210.42L223.28 204.74L218.04 203.19L214.21 207.32L215.62 213.00L220.86 214.55ZM215.62 213.00L214.21 207.32L208.98 205.78L205.15 209.91L206.56 215.59L211.80 217.14ZM228.91 227.46L227.50 221.78L222.27 220.23L218.44 224.36L219.85 230.04L225.08 231.59ZM219.85 230.04L218.44 224.36L213.20 222.82L209.38 226.95L210.79 232.62L216.02 234.17ZM231.33 217.65L229.92 211.97L224.69 210.42L220.86 214.55L222.27 220.23L227.50 221.78ZM197.51 218.18L196.10 212.50L190.86 210.96L187.04 215.09L188.46 220.77L193.69 222.31ZM188.46 220.77L187.04 215.09L181.81 213.55L178.00 217.68L179.41 223.36L184.64 224.90ZM199.92 208.37L198.51 202.69L193.28 201.14L189.45 205.28L190.86 210.96L196.10 212.50ZM190.86 210.96L189.45 205.28L184.22 203.74L180.40 207.87L181.81 213.55L187.04 215.09ZM204.15 225.40L202.74 219.72L197.51 218.18L193.69 222.31L195.10 227.99L200.33 229.53ZM195.10 227.99L193.69 222.31L188.46 220.77L184.64 224.90L186.05 230.57L191.28 232.12ZM206.56 215.59L205.15 209.91L199.92 208.37L196.10 212.50L197.51 218.18L202.74 219.72ZM221.65 256.88L220.24 251.20L215.01 249.65L211.19 253.78L212.59 259.45L217.82 261.00ZM212.59 259.45L211.19 253.78L205.96 252.23L202.14 256.36L203.55 262.03L208.77 263.58ZM196.91 254.81L195.51 249.14L190.28 247.59L186.46 251.72L187.87 257.39L193.10 258.94ZM187.87 257.39L186.46 251.72L181.24 250.18L177.42 254.30L178.84 259.97L184.06 261.52ZM203.55 262.03L202.14 256.36L196.91 254.81L193.10 258.94L194.51 264.61L199.73 266.15ZM233.12 244.50L231.72 238.82L226.48 237.27L222.66 241.40L224.06 247.07L229.29 248.63ZM224.06 247.07L222.66 241.40L217.43 239.85L213.60 243.98L215.01 249.65L220.24 251.20ZM235.55 234.69L234.14 229.01L228.91 227.46L225.08 231.59L226.48 237.27L231.72 238.82ZM226.48 237.27L225.08 231.59L219.85 230.04L216.02 234.17L217.43 239.85L222.66 241.40ZM239.76 251.73L238.35 246.05L233.12 244.50L229.29 248.63L230.70 254.30L235.93 255.85ZM230.70 254.30L229.29 248.63L224.06 247.07L220.24 251.20L221.65 256.88L226.87 258.43ZM242.18 241.93L240.78 236.25L235.55 234.69L231.72 238.82L233.12 244.50L238.35 246.05ZM145.11 260.53L143.70 254.86L138.48 253.33L134.68 257.46L136.09 263.12L141.31 264.66ZM136.09 263.12L134.68 257.46L129.46 255.92L125.66 260.05L127.08 265.71L132.29 267.25ZM147.50 250.74L146.09 245.07L140.87 243.53L137.06 247.66L138.48 253.33L143.70 254.86ZM138.48 253.33L137.06 247.66L131.84 246.13L128.04 250.26L129.46 255.92L134.68 257.46ZM154.14 257.94L152.72 252.27L147.50 250.74L143.70 254.86L145.11 260.53L150.33 262.07ZM120.44 258.52L119.02 252.86L113.81 251.33L110.01 255.46L111.43 261.12L116.64 262.65ZM111.43 261.12L110.01 255.46L104.80 253.93L101.00 258.06L102.42 263.71L107.63 265.24ZM122.82 248.73L121.41 243.06L116.19 241.53L112.39 245.66L113.81 251.33L119.02 252.86ZM129.46 255.92L128.04 250.26L122.82 248.73L119.02 252.86L120.44 258.52L125.66 260.05ZM158.93 238.35L157.51 232.68L152.29 231.14L148.48 235.27L149.90 240.94L155.12 242.48ZM149.90 240.94L148.48 235.27L143.26 233.74L139.45 237.87L140.87 243.53L146.09 245.07ZM161.32 228.54L159.91 222.87L154.68 221.34L150.87 225.47L152.29 231.14L157.51 232.68ZM152.29 231.14L150.87 225.47L145.65 223.93L141.84 228.07L143.26 233.74L148.48 235.27ZM165.57 245.55L164.15 239.88L158.93 238.35L155.12 242.48L156.53 248.14L161.75 249.68ZM156.53 248.14L155.12 242.48L149.90 240.94L146.09 245.07L147.50 250.74L152.72 252.27ZM167.96 235.75L166.55 230.08L161.32 228.54L157.51 232.68L158.93 238.35L164.15 239.88ZM134.23 236.33L132.81 230.67L127.59 229.13L123.79 233.27L125.21 238.93L130.43 240.46ZM125.21 238.93L123.79 233.27L118.57 231.74L114.77 235.87L116.19 241.53L121.41 243.06ZM136.62 226.53L135.20 220.86L129.98 219.33L126.17 223.47L127.59 229.13L132.81 230.67ZM127.59 229.13L126.17 223.47L120.95 221.94L117.15 226.07L118.57 231.74L123.79 233.27ZM140.87 243.53L139.45 237.87L134.23 236.33L130.43 240.46L131.84 246.13L137.06 247.66ZM131.84 246.13L130.43 240.46L125.21 238.93L121.41 243.06L122.82 248.73L128.04 250.26ZM143.26 233.74L141.84 228.07L136.62 226.53L132.81 230.67L134.23 236.33L139.45 237.87ZM169.80 262.56L168.39 256.89L163.17 255.35L159.36 259.48L160.77 265.14L165.99 266.68ZM172.20 252.76L170.79 247.09L165.57 245.55L161.75 249.68L163.17 255.35L168.39 256.89ZM163.17 255.35L161.75 249.68L156.53 248.14L152.72 252.27L154.14 257.94L159.36 259.48ZM178.84 259.97L177.42 254.30L172.20 252.76L168.39 256.89L169.80 262.56L175.02 264.10ZM225.31 173.72L223.90 168.03L218.66 166.49L214.83 170.63L216.24 176.32L221.48 177.86ZM216.24 176.32L214.83 170.63L209.59 169.08L205.76 173.23L207.17 178.91L212.41 180.46ZM227.74 163.89L226.33 158.20L221.08 156.66L217.25 160.80L218.66 166.49L223.90 168.03ZM218.66 166.49L217.25 160.80L212.01 159.25L208.18 163.40L209.59 169.08L214.83 170.63ZM231.96 180.96L230.55 175.27L225.31 173.72L221.48 177.86L222.89 183.55L228.13 185.10ZM222.89 183.55L221.48 177.86L216.24 176.32L212.41 180.46L213.82 186.14L219.06 187.69ZM234.39 171.13L232.98 165.44L227.74 163.89L223.90 168.03L225.31 173.72L230.55 175.27ZM200.52 171.68L199.11 166.00L193.87 164.45L190.04 168.60L191.45 174.28L196.69 175.82ZM191.45 174.28L190.04 168.60L184.80 167.06L180.98 171.20L182.39 176.88L187.63 178.42ZM202.93 161.85L201.52 156.17L196.28 154.63L192.45 158.77L193.87 164.45L199.11 166.00ZM193.87 164.45L192.45 158.77L187.21 157.23L183.39 161.37L184.80 167.06L190.04 168.60ZM207.17 178.91L205.76 173.23L200.52 171.68L196.69 175.82L198.10 181.51L203.34 183.05ZM198.10 181.51L196.69 175.82L191.45 174.28L187.63 178.42L189.04 184.10L194.28 185.65ZM209.59 169.08L208.18 163.40L202.93 161.85L199.11 166.00L200.52 171.68L205.76 173.23ZM239.25 151.47L237.84 145.77L232.59 144.22L228.76 148.37L230.16 154.06L235.41 155.61ZM230.16 154.06L228.76 148.37L223.51 146.82L219.67 150.97L221.08 156.66L226.33 158.20ZM241.68 141.63L240.27 135.93L235.02 134.39L231.18 138.53L232.59 144.22L237.84 145.77ZM232.59 144.22L231.18 138.53L225.94 136.98L222.10 141.13L223.51 146.82L228.76 148.37ZM245.90 158.71L244.50 153.02L239.25 151.47L235.41 155.61L236.82 161.30L242.06 162.85ZM236.82 161.30L235.41 155.61L230.16 154.06L226.33 158.20L227.74 163.89L232.98 165.44ZM248.34 148.87L246.93 143.18L241.68 141.63L237.84 145.77L239.25 151.47L244.50 153.02ZM214.43 149.42L213.02 143.73L207.77 142.19L203.94 146.33L205.35 152.02L210.60 153.57ZM205.35 152.02L203.94 146.33L198.70 144.79L194.87 148.94L196.28 154.63L201.52 156.17ZM216.85 139.59L215.44 133.89L210.19 132.35L206.36 136.50L207.77 142.19L213.02 143.73ZM207.77 142.19L206.36 136.50L201.12 134.96L197.28 139.10L198.70 144.79L203.94 146.33ZM221.08 156.66L219.67 150.97L214.43 149.42L210.60 153.57L212.01 159.25L217.25 160.80ZM212.01 159.25L210.60 153.57L205.35 152.02L201.52 156.17L202.93 161.85L208.18 163.40ZM223.51 146.82L222.10 141.13L216.85 139.59L213.02 143.73L214.43 149.42L219.67 150.97ZM236.18 198.02L234.77 192.33L229.53 190.78L225.70 194.92L227.11 200.60L232.35 202.15ZM227.11 200.60L225.70 194.92L220.46 193.37L216.63 197.51L218.04 203.19L223.28 204.74ZM238.61 188.20L237.20 182.51L231.96 180.96L228.13 185.10L229.53 190.78L234.77 192.33ZM229.53 190.78L228.13 185.10L222.89 183.55L219.06 187.69L220.46 193.37L225.70 194.92ZM242.83 205.25L241.42 199.57L236.18 198.02L232.35 202.15L233.75 207.84L238.99 209.39ZM233.75 207.84L232.35 202.15L227.11 200.60L223.28 204.74L224.69 210.42L229.92 211.97ZM245.26 195.43L243.85 189.75L238.61 188.20L234.77 192.33L236.18 198.02L241.42 199.57ZM211.40 195.96L209.99 190.28L204.75 188.73L200.92 192.87L202.33 198.55L207.57 200.10ZM202.33 198.55L200.92 192.87L195.69 191.33L191.86 195.46L193.28 201.14L198.51 202.69ZM213.82 186.14L212.41 180.46L207.17 178.91L203.34 183.05L204.75 188.73L209.99 190.28ZM204.75 188.73L203.34 183.05L198.10 181.51L194.28 185.65L195.69 191.33L200.92 192.87ZM218.04 203.19L216.63 197.51L211.40 195.96L207.57 200.10L208.98 205.78L214.21 207.32ZM208.98 205.78L207.57 200.10L202.33 198.55L198.51 202.69L199.92 208.37L205.15 209.91ZM220.46 193.37L219.06 187.69L213.82 186.14L209.99 190.28L211.40 195.96L216.63 197.51ZM250.12 175.78L248.72 170.09L243.47 168.54L239.63 172.68L241.04 178.37L246.28 179.92ZM241.04 178.37L239.63 172.68L234.39 171.13L230.55 175.27L231.96 180.96L237.20 182.51ZM252.56 165.95L251.15 160.26L245.90 158.71L242.06 162.85L243.47 168.54L248.72 170.09ZM243.47 168.54L242.06 162.85L236.82 161.30L232.98 165.44L234.39 171.13L239.63 172.68ZM256.77 183.03L255.37 177.34L250.12 175.78L246.28 179.92L247.69 185.61L252.93 187.16ZM247.69 185.61L246.28 179.92L241.04 178.37L237.20 182.51L238.61 188.20L243.85 189.75ZM259.21 173.20L257.80 167.50L252.56 165.95L248.72 170.09L250.12 175.78L255.37 177.34ZM161.88 191.90L160.46 186.23L155.23 184.69L151.42 188.83L152.83 194.51L158.06 196.04ZM152.83 194.51L151.42 188.83L146.19 187.30L142.37 191.44L143.79 197.11L149.02 198.65ZM164.28 182.09L162.86 176.41L157.63 174.87L153.81 179.01L155.23 184.69L160.46 186.23ZM155.23 184.69L153.81 179.01L148.58 177.48L144.77 181.62L146.19 187.30L151.42 188.83ZM168.53 199.12L167.11 193.44L161.88 191.90L158.06 196.04L159.48 201.72L164.71 203.26ZM159.48 201.72L158.06 196.04L152.83 194.51L149.02 198.65L150.44 204.32L155.67 205.86ZM170.93 189.30L169.51 183.62L164.28 182.09L160.46 186.23L161.88 191.90L167.11 193.44ZM137.14 189.90L135.73 184.23L130.50 182.70L126.69 186.84L128.11 192.51L133.34 194.04ZM128.11 192.51L126.69 186.84L121.46 185.31L117.65 189.45L119.07 195.12L124.30 196.65ZM139.54 180.09L138.12 174.41L132.89 172.88L129.08 177.02L130.50 182.70L135.73 184.23ZM130.50 182.70L129.08 177.02L123.85 175.49L120.04 179.64L121.46 185.31L126.69 186.84ZM143.79 197.11L142.37 191.44L137.14 189.90L133.34 194.04L134.75 199.72L139.98 201.25ZM134.75 199.72L133.34 194.04L128.11 192.51L124.30 196.65L125.72 202.32L130.95 203.86ZM146.19 187.30L144.77 181.62L139.54 180.09L135.73 184.23L137.14 189.90L142.37 191.44ZM175.74 169.66L174.32 163.98L169.09 162.44L165.27 166.58L166.68 172.27L171.92 173.80ZM166.68 172.27L165.27 166.58L160.03 165.05L156.21 169.19L157.63 174.87L162.86 176.41ZM178.15 159.83L176.73 154.15L171.49 152.61L167.67 156.76L169.09 162.44L174.32 163.98ZM169.09 162.44L167.67 156.76L162.43 155.22L158.61 159.37L160.03 165.05L165.27 166.58ZM182.39 176.88L180.98 171.20L175.74 169.66L171.92 173.80L173.33 179.48L178.57 181.02ZM173.33 179.48L171.92 173.80L166.68 172.27L162.86 176.41L164.28 182.09L169.51 183.62ZM184.80 167.06L183.39 161.37L178.15 159.83L174.32 163.98L175.74 169.66L180.98 171.20ZM150.98 167.66L149.56 161.98L144.33 160.45L140.51 164.59L141.93 170.27L147.16 171.80ZM141.93 170.27L140.51 164.59L135.28 163.06L131.47 167.21L132.89 172.88L138.12 174.41ZM153.38 157.83L151.96 152.15L146.72 150.62L142.91 154.77L144.33 160.45L149.56 161.98ZM144.33 160.45L142.91 154.77L137.67 153.23L133.86 157.38L135.28 163.06L140.51 164.59ZM157.63 174.87L156.21 169.19L150.98 167.66L147.16 171.80L148.58 177.48L153.81 179.01ZM148.58 177.48L147.16 171.80L141.93 170.27L138.12 174.41L139.54 180.09L144.77 181.62ZM160.03 165.05L158.61 159.37L153.38 157.83L149.56 161.98L150.98 167.66L156.21 169.19ZM172.77 216.14L171.35 210.47L166.12 208.93L162.31 213.07L163.72 218.74L168.95 220.28ZM163.72 218.74L162.31 213.07L157.08 211.53L153.27 215.66L154.68 221.34L159.91 222.87ZM175.17 206.33L173.76 200.66L168.53 199.12L164.71 203.26L166.12 208.93L171.35 210.47ZM166.12 208.93L164.71 203.26L159.48 201.72L155.67 205.86L157.08 211.53L162.31 213.07ZM179.41 223.36L178.00 217.68L172.77 216.14L168.95 220.28L170.36 225.95L175.59 227.49ZM170.36 225.95L168.95 220.28L163.72 218.74L159.91 222.87L161.32 228.54L166.55 230.08ZM181.81 213.55L180.40 207.87L175.17 206.33L171.35 210.47L172.77 216.14L178.00 217.68ZM148.04 214.13L146.63 208.46L141.40 206.92L137.59 211.06L139.01 216.73L144.23 218.26ZM139.01 216.73L137.59 211.06L132.36 209.53L128.56 213.66L129.98 219.33L135.20 220.86ZM150.44 204.32L149.02 198.65L143.79 197.11L139.98 201.25L141.40 206.92L146.63 208.46ZM141.40 206.92L139.98 201.25L134.75 199.72L130.95 203.86L132.36 209.53L137.59 211.06ZM154.68 221.34L153.27 215.66L148.04 214.13L144.23 218.26L145.65 223.93L150.87 225.47ZM145.65 223.93L144.23 218.26L139.01 216.73L135.20 220.86L136.62 226.53L141.84 228.07ZM157.08 211.53L155.67 205.86L150.44 204.32L146.63 208.46L148.04 214.13L153.27 215.66ZM186.63 193.92L185.22 188.24L179.98 186.70L176.16 190.84L177.58 196.52L182.81 198.06ZM177.58 196.52L176.16 190.84L170.93 189.30L167.11 193.44L168.53 199.12L173.76 200.66ZM189.04 184.10L187.63 178.42L182.39 176.88L178.57 181.02L179.98 186.70L185.22 188.24ZM179.98 186.70L178.57 181.02L173.33 179.48L169.51 183.62L170.93 189.30L176.16 190.84ZM193.28 201.14L191.86 195.46L186.63 193.92L182.81 198.06L184.22 203.74L189.45 205.28ZM184.22 203.74L182.81 198.06L177.58 196.52L173.76 200.66L175.17 206.33L180.40 207.87ZM195.69 191.33L194.28 185.65L189.04 184.10L185.22 188.24L186.63 193.92L191.86 195.46ZM246.39 258.96L244.99 253.28L239.76 251.73L235.93 255.85L237.33 261.53L242.56 263.08ZM237.33 261.53L235.93 255.85L230.70 254.30L226.87 258.43L228.28 264.10L233.51 265.65ZM262.75 226.97L261.35 221.29L256.11 219.73L252.28 223.86L253.68 229.54L258.92 231.10ZM265.19 217.16L263.79 211.47L258.55 209.91L254.71 214.05L256.11 219.73L261.35 221.29ZM247.04 222.31L245.64 216.62L240.40 215.07L236.57 219.20L237.97 224.88L243.21 226.44ZM237.97 224.88L236.57 219.20L231.33 217.65L227.50 221.78L228.91 227.46L234.14 229.01ZM249.47 212.49L248.07 206.81L242.83 205.25L238.99 209.39L240.40 215.07L245.64 216.62ZM240.40 215.07L238.99 209.39L233.75 207.84L229.92 211.97L231.33 217.65L236.57 219.20ZM253.68 229.54L252.28 223.86L247.04 222.31L243.21 226.44L244.61 232.12L249.85 233.67ZM244.61 232.12L243.21 226.44L237.97 224.88L234.14 229.01L235.55 234.69L240.78 236.25ZM256.11 219.73L254.71 214.05L249.47 212.49L245.64 216.62L247.04 222.31L252.28 223.86ZM260.98 200.09L259.58 194.41L254.34 192.85L250.50 196.99L251.90 202.67L257.14 204.23ZM251.90 202.67L250.50 196.99L245.26 195.43L241.42 199.57L242.83 205.25L248.07 206.81ZM263.42 190.27L262.02 184.58L256.77 183.03L252.93 187.16L254.34 192.85L259.58 194.41ZM254.34 192.85L252.93 187.16L247.69 185.61L243.85 189.75L245.26 195.43L250.50 196.99ZM258.55 209.91L257.14 204.23L251.90 202.67L248.07 206.81L249.47 212.49L254.71 214.05ZM257.89 246.59L256.48 240.91L251.25 239.35L247.42 243.48L248.82 249.16L254.05 250.71ZM248.82 249.16L247.42 243.48L242.18 241.93L238.35 246.05L239.76 251.73L244.99 253.28ZM260.32 236.78L258.92 231.10L253.68 229.54L249.85 233.67L251.25 239.35L256.48 240.91ZM251.25 239.35L249.85 233.67L244.61 232.12L240.78 236.25L242.18 241.93L247.42 243.48ZM264.52 253.83L263.12 248.15L257.89 246.59L254.05 250.71L255.45 256.39L260.69 257.95ZM255.45 256.39L254.05 250.71L248.82 249.16L244.99 253.28L246.39 258.96L251.62 260.52ZM242.33 104.85L240.92 99.14L235.66 97.60L231.82 101.75L233.23 107.45L238.48 109.00ZM233.23 107.45L231.82 101.75L226.56 100.21L222.72 104.36L224.13 110.06L229.39 111.60ZM244.76 94.99L243.35 89.29L238.10 87.74L234.25 91.90L235.66 97.60L240.92 99.14ZM235.66 97.60L234.25 91.90L229.00 90.35L225.15 94.51L226.56 100.21L231.82 101.75ZM248.99 112.09L247.58 106.39L242.33 104.85L238.48 109.00L239.89 114.70L245.14 116.24ZM239.89 114.70L238.48 109.00L233.23 107.45L229.39 111.60L230.80 117.30L236.05 118.85ZM251.43 102.24L250.02 96.54L244.76 94.99L240.92 99.14L242.33 104.85L247.58 106.39ZM217.47 102.81L216.06 97.12L210.80 95.57L206.97 99.73L208.38 105.43L213.63 106.97ZM208.38 105.43L206.97 99.73L201.71 98.19L197.88 102.34L199.29 108.04L204.54 109.58ZM219.90 92.96L218.49 87.26L213.23 85.72L209.39 89.88L210.80 95.57L216.06 97.12ZM210.80 95.57L209.39 89.88L204.14 88.34L200.30 92.49L201.71 98.19L206.97 99.73ZM224.13 110.06L222.72 104.36L217.47 102.81L213.63 106.97L215.04 112.66L220.29 114.21ZM215.04 112.66L213.63 106.97L208.38 105.43L204.54 109.58L205.96 115.27L211.21 116.81ZM226.56 100.21L225.15 94.51L219.90 92.96L216.06 97.12L217.47 102.81L222.72 104.36ZM256.31 82.53L254.90 76.82L249.64 75.27L245.79 79.43L247.20 85.13L252.46 86.68ZM247.20 85.13L245.79 79.43L240.53 77.88L236.69 82.04L238.10 87.74L243.35 89.29ZM258.76 72.67L257.35 66.96L252.09 65.41L248.23 69.57L249.64 75.27L254.90 76.82ZM249.64 75.27L248.23 69.57L242.97 68.02L239.12 72.18L240.53 77.88L245.79 79.43ZM262.98 89.78L261.57 84.08L256.31 82.53L252.46 86.68L253.87 92.39L259.13 93.94ZM253.87 92.39L252.46 86.68L247.20 85.13L243.35 89.29L244.76 94.99L250.02 96.54ZM265.43 79.92L264.02 74.22L258.76 72.67L254.90 76.82L256.31 82.53L261.57 84.08ZM231.43 80.49L230.02 74.79L224.76 73.25L220.91 77.41L222.33 83.11L227.58 84.65ZM222.33 83.11L220.91 77.41L215.66 75.86L211.82 80.02L213.23 85.72L218.49 87.26ZM233.86 70.63L232.45 64.93L227.19 63.38L223.35 67.54L224.76 73.25L230.02 74.79ZM224.76 73.25L223.35 67.54L218.09 66.00L214.24 70.16L215.66 75.86L220.91 77.41ZM238.10 87.74L236.69 82.04L231.43 80.49L227.58 84.65L229.00 90.35L234.25 91.90ZM229.00 90.35L227.58 84.65L222.33 83.11L218.49 87.26L219.90 92.96L225.15 94.51ZM240.53 77.88L239.12 72.18L233.86 70.63L230.02 74.79L231.43 80.49L236.69 82.04ZM253.21 129.19L251.81 123.49L246.55 121.94L242.71 126.09L244.12 131.79L249.37 133.34ZM244.12 131.79L242.71 126.09L237.46 124.54L233.62 128.69L235.02 134.39L240.27 135.93ZM255.65 119.34L254.24 113.64L248.99 112.09L245.14 116.24L246.55 121.94L251.81 123.49ZM246.55 121.94L245.14 116.24L239.89 114.70L236.05 118.85L237.46 124.54L242.71 126.09ZM259.87 136.44L258.47 130.74L253.21 129.19L249.37 133.34L250.77 139.03L256.03 140.58ZM250.77 139.03L249.37 133.34L244.12 131.79L240.27 135.93L241.68 141.63L246.93 143.18ZM262.31 126.59L260.91 120.90L255.65 119.34L251.81 123.49L253.21 129.19L258.47 130.74ZM228.37 127.14L226.96 121.45L221.71 119.90L217.87 124.05L219.28 129.75L224.53 131.29ZM219.28 129.75L217.87 124.05L212.62 122.51L208.78 126.66L210.19 132.35L215.44 133.89ZM230.80 117.30L229.39 111.60L224.13 110.06L220.29 114.21L221.71 119.90L226.96 121.45ZM221.71 119.90L220.29 114.21L215.04 112.66L211.21 116.81L212.62 122.51L217.87 124.05ZM235.02 134.39L233.62 128.69L228.37 127.14L224.53 131.29L225.94 136.98L231.18 138.53ZM225.94 136.98L224.53 131.29L219.28 129.75L215.44 133.89L216.85 139.59L222.10 141.13ZM237.46 124.54L236.05 118.85L230.80 117.30L226.96 121.45L228.37 127.14L233.62 128.69ZM258.09 109.49L256.69 103.79L251.43 102.24L247.58 106.39L248.99 112.09L254.24 113.64ZM260.54 99.64L259.13 93.94L253.87 92.39L250.02 96.54L251.43 102.24L256.69 103.79ZM264.76 116.75L263.35 111.05L258.09 109.49L254.24 113.64L255.65 119.34L260.91 120.90ZM259.42 35.80L258.01 30.08L252.74 28.54L248.89 32.70L250.30 38.41L255.56 39.96ZM250.30 38.41L248.89 32.70L243.62 31.15L239.77 35.32L241.18 41.03L246.44 42.58ZM261.87 25.92L260.46 20.20L255.19 18.66L251.33 22.82L252.74 28.54L258.01 30.08ZM252.74 28.54L251.33 22.82L246.06 21.28L242.21 25.44L243.62 31.15L248.89 32.70ZM266.10 43.06L264.69 37.35L259.42 35.80L255.56 39.96L256.97 45.67L262.24 47.22ZM256.97 45.67L255.56 39.96L250.30 38.41L246.44 42.58L247.85 48.29L253.12 49.83ZM234.50 33.78L233.09 28.07L227.82 26.52L223.97 30.69L225.39 36.40L230.65 37.94ZM225.39 36.40L223.97 30.69L218.71 29.15L214.86 33.31L216.28 39.02L221.54 40.56ZM236.94 23.90L235.53 18.19L230.26 16.64L226.41 20.81L227.82 26.52L233.09 28.07ZM227.82 26.52L226.41 20.81L221.14 19.27L217.29 23.44L218.71 29.15L223.97 30.69ZM241.18 41.03L239.77 35.32L234.50 33.78L230.65 37.94L232.06 43.65L237.33 45.19ZM232.06 43.65L230.65 37.94L225.39 36.40L221.54 40.56L222.95 46.27L228.21 47.81ZM243.62 31.15L242.21 25.44L236.94 23.90L233.09 28.07L234.50 33.78L239.77 35.32ZM264.32 16.04L262.91 10.32L257.64 8.77L253.78 12.94L255.19 18.66L260.46 20.20ZM248.51 11.39L247.09 5.68L241.82 4.13L237.97 8.31L239.38 14.02L244.65 15.56ZM239.38 14.02L237.97 8.31L232.70 6.76L228.84 10.93L230.26 16.64L235.53 18.19ZM250.95 1.51L249.54 -4.21L244.27 -5.75L240.41 -1.58L241.82 4.13L247.09 5.68ZM241.82 4.13L240.41 -1.58L235.14 -3.12L231.28 1.05L232.70 6.76L237.97 8.31ZM255.19 18.66L253.78 12.94L248.51 11.39L244.65 15.56L246.06 21.28L251.33 22.82ZM246.06 21.28L244.65 15.56L239.38 14.02L235.53 18.19L236.94 23.90L242.21 25.44ZM257.64 8.77L256.23 3.06L250.95 1.51L247.09 5.68L248.51 11.39L253.78 12.94ZM261.20 62.80L259.79 57.09L254.53 55.54L250.68 59.70L252.09 65.41L257.35 66.96ZM263.65 52.93L262.24 47.22L256.97 45.67L253.12 49.83L254.53 55.54L259.79 57.09ZM245.41 58.15L244.00 52.45L238.74 50.90L234.89 55.06L236.30 60.77L241.56 62.31ZM236.30 60.77L234.89 55.06L229.63 53.52L225.78 57.68L227.19 63.38L232.45 64.93ZM247.85 48.29L246.44 42.58L241.18 41.03L237.33 45.19L238.74 50.90L244.00 52.45ZM238.74 50.90L237.33 45.19L232.06 43.65L228.21 47.81L229.63 53.52L234.89 55.06ZM252.09 65.41L250.68 59.70L245.41 58.15L241.56 62.31L242.97 68.02L248.23 69.57ZM242.97 68.02L241.56 62.31L236.30 60.77L232.45 64.93L233.86 70.63L239.12 72.18ZM254.53 55.54L253.12 49.83L247.85 48.29L244.00 52.45L245.41 58.15L250.68 59.70ZM264.09 153.53L262.68 147.83L257.43 146.28L253.59 150.42L254.99 156.12L260.24 157.67ZM254.99 156.12L253.59 150.42L248.34 148.87L244.50 153.02L245.90 158.71L251.15 160.26ZM257.43 146.28L256.03 140.58L250.77 139.03L246.93 143.18L248.34 148.87L253.59 150.42ZM261.65 163.37L260.24 157.67L254.99 156.12L251.15 160.26L252.56 165.95L257.80 167.50ZM265.86 180.44L264.45 174.75L259.21 173.20L255.37 177.34L256.77 183.03L262.02 184.58ZM17.63 233.72L16.20 228.07L10.99 226.56L7.22 230.69L8.65 236.34L13.86 237.86ZM24.27 240.88L22.84 235.23L17.63 233.72L13.86 237.86L15.29 243.51L20.49 245.02ZM29.78 148.12L28.35 142.45L23.13 140.94L19.34 145.10L20.77 150.76L26.00 152.27ZM68.23 127.74L66.80 122.06L61.57 120.55L57.77 124.70L59.20 130.38L64.43 131.89ZM59.20 130.38L57.77 124.70L52.54 123.19L48.74 127.34L50.18 133.02L55.40 134.53ZM41.16 135.66L39.72 129.99L34.50 128.47L30.71 132.63L32.14 138.30L37.36 139.81ZM32.14 138.30L30.71 132.63L25.48 131.12L21.69 135.28L23.13 140.94L28.35 142.45ZM43.52 125.83L42.08 120.16L36.86 118.65L33.06 122.81L34.50 128.47L39.72 129.99ZM34.50 128.47L33.06 122.81L27.84 121.29L24.05 125.45L25.48 131.12L30.71 132.63ZM38.80 145.48L37.36 139.81L32.14 138.30L28.35 142.45L29.78 148.12L35.01 149.63ZM50.18 133.02L48.74 127.34L43.52 125.83L39.72 129.99L41.16 135.66L46.38 137.17ZM2.77 156.05L1.33 150.39L-3.88 148.88L-7.66 153.04L-6.23 158.69L-1.01 160.20ZM9.42 163.22L7.99 157.56L2.77 156.05L-1.01 160.20L0.43 165.86L5.64 167.37ZM0.43 165.86L-1.01 160.20L-6.23 158.69L-10.00 162.85L-8.57 168.50L-3.35 170.01ZM11.77 153.40L10.33 147.74L5.12 146.23L1.33 150.39L2.77 156.05L7.99 157.56ZM0.05 202.44L-1.39 196.78L-6.60 195.27L-10.37 199.42L-8.93 205.07L-3.72 206.58ZM2.39 192.64L0.96 186.98L-4.26 185.47L-8.03 189.62L-6.60 195.27L-1.39 196.78ZM7.08 173.03L5.64 167.37L0.43 165.86L-3.35 170.01L-1.92 175.67L3.30 177.18ZM129.98 219.33L128.56 213.66L123.33 212.13L119.53 216.27L120.95 221.94L126.17 223.47ZM120.95 221.94L119.53 216.27L114.31 214.74L110.51 218.88L111.93 224.54L117.15 226.07ZM132.06 72.55L130.64 66.86L125.39 65.34L121.57 69.50L123.00 75.19L128.24 76.72ZM123.00 75.19L121.57 69.50L116.32 67.98L112.51 72.14L113.93 77.83L119.18 79.35ZM134.46 62.70L133.04 57.01L127.79 55.48L123.97 59.65L125.39 65.34L130.64 66.86ZM125.39 65.34L123.97 59.65L118.72 58.12L114.90 62.29L116.32 67.98L121.57 69.50ZM138.73 79.77L137.31 74.08L132.06 72.55L128.24 76.72L129.66 82.41L134.91 83.93ZM129.66 82.41L128.24 76.72L123.00 75.19L119.18 79.35L120.60 85.04L125.84 86.57ZM141.13 69.92L139.71 64.23L134.46 62.70L130.64 66.86L132.06 72.55L137.31 74.08ZM109.65 60.76L108.22 55.08L102.98 53.55L99.16 57.72L100.59 63.41L105.83 64.93ZM113.93 77.83L112.51 72.14L107.26 70.62L103.45 74.78L104.87 80.47L110.12 81.99ZM116.32 67.98L114.90 62.29L109.65 60.76L105.83 64.93L107.26 70.62L112.51 72.14ZM145.94 50.20L144.52 44.51L139.26 42.98L135.44 47.15L136.86 52.84L142.11 54.37ZM136.86 52.84L135.44 47.15L130.19 45.62L126.36 49.79L127.79 55.48L133.04 57.01ZM148.34 40.34L146.92 34.64L141.67 33.11L137.84 37.28L139.26 42.98L144.52 44.51ZM139.26 42.98L137.84 37.28L132.59 35.76L128.76 39.93L130.19 45.62L135.44 47.15ZM152.61 57.43L151.19 51.73L145.94 50.20L142.11 54.37L143.54 60.06L148.79 61.59ZM143.54 60.06L142.11 54.37L136.86 52.84L133.04 57.01L134.46 62.70L139.71 64.23ZM155.02 47.57L153.60 41.87L148.34 40.34L144.52 44.51L145.94 50.20L151.19 51.73ZM121.11 48.26L119.69 42.57L114.44 41.05L110.62 45.22L112.04 50.91L117.29 52.43ZM112.04 50.91L110.62 45.22L105.37 43.69L101.55 47.86L102.98 53.55L108.22 55.08ZM123.51 38.40L122.08 32.71L116.83 31.18L113.01 35.35L114.44 41.05L119.69 42.57ZM114.44 41.05L113.01 35.35L107.76 33.83L103.94 38.00L105.37 43.69L110.62 45.22ZM127.79 55.48L126.36 49.79L121.11 48.26L117.29 52.43L118.72 58.12L123.97 59.65ZM118.72 58.12L117.29 52.43L112.04 50.91L108.22 55.08L109.65 60.76L114.90 62.29ZM130.19 45.62L128.76 39.93L123.51 38.40L119.69 42.57L121.11 48.26L126.36 49.79ZM143.00 96.84L141.58 91.15L136.33 89.62L132.51 93.78L133.94 99.47L139.18 101.00ZM133.94 99.47L132.51 93.78L127.27 92.25L123.45 96.41L124.87 102.10L130.12 103.63ZM145.40 86.99L143.98 81.30L138.73 79.77L134.91 83.93L136.33 89.62L141.58 91.15ZM136.33 89.62L134.91 83.93L129.66 82.41L125.84 86.57L127.27 92.25L132.51 93.78ZM149.66 104.06L148.24 98.37L143.00 96.84L139.18 101.00L140.60 106.68L145.84 108.21ZM140.60 106.68L139.18 101.00L133.94 99.47L130.12 103.63L131.54 109.31L136.78 110.84ZM152.07 94.21L150.65 88.52L145.40 86.99L141.58 91.15L143.00 96.84L148.24 98.37ZM118.21 94.89L116.78 89.20L111.54 87.68L107.73 91.84L109.15 97.52L114.39 99.05ZM109.15 97.52L107.73 91.84L102.49 90.31L98.68 94.47L100.10 100.16L105.34 101.68ZM120.60 85.04L119.18 79.35L113.93 77.83L110.12 81.99L111.54 87.68L116.78 89.20ZM111.54 87.68L110.12 81.99L104.87 80.47L101.06 84.63L102.49 90.31L107.73 91.84ZM124.87 102.10L123.45 96.41L118.21 94.89L114.39 99.05L115.82 104.73L121.06 106.26ZM115.82 104.73L114.39 99.05L109.15 97.52L105.34 101.68L106.77 107.36L112.00 108.89ZM127.27 92.25L125.84 86.57L120.60 85.04L116.78 89.20L118.21 94.89L123.45 96.41ZM156.88 74.51L155.46 68.82L150.21 67.29L146.38 71.45L147.80 77.14L153.05 78.67ZM147.80 77.14L146.38 71.45L141.13 69.92L137.31 74.08L138.73 79.77L143.98 81.30ZM159.29 64.65L157.86 58.96L152.61 57.43L148.79 61.59L150.21 67.29L155.46 68.82ZM150.21 67.29L148.79 61.59L143.54 60.06L139.71 64.23L141.13 69.92L146.38 71.45ZM163.55 81.74L162.13 76.04L156.88 74.51L153.05 78.67L154.47 84.36L159.72 85.89ZM154.47 84.36L153.05 78.67L147.80 77.14L143.98 81.30L145.40 86.99L150.65 88.52ZM165.96 71.88L164.54 66.19L159.29 64.65L155.46 68.82L156.88 74.51L162.13 76.04ZM54.91 113.36L53.47 107.68L48.24 106.17L44.45 110.33L45.88 116.00L51.11 117.52ZM45.88 116.00L44.45 110.33L39.22 108.82L35.42 112.98L36.86 118.65L42.08 120.16ZM57.27 103.52L55.84 97.85L50.61 96.33L46.81 100.49L48.24 106.17L53.47 107.68ZM48.24 106.17L46.81 100.49L41.58 98.98L37.78 103.14L39.22 108.82L44.45 110.33ZM61.57 120.55L60.14 114.87L54.91 113.36L51.11 117.52L52.54 123.19L57.77 124.70ZM52.54 123.19L51.11 117.52L45.88 116.00L42.08 120.16L43.52 125.83L48.74 127.34ZM63.94 110.71L62.51 105.04L57.27 103.52L53.47 107.68L54.91 113.36L60.14 114.87ZM148.89 3.50L147.46 -2.21L142.20 -3.73L138.37 0.44L139.80 6.14L145.05 7.67ZM139.80 6.14L138.37 0.44L133.11 -1.08L129.28 3.09L130.71 8.79L135.96 10.32ZM142.20 -3.73L140.78 -9.44L135.52 -10.96L131.68 -6.78L133.11 -1.08L138.37 0.44ZM155.57 10.73L154.15 5.02L148.89 3.50L145.05 7.67L146.48 13.37L151.74 14.90ZM146.48 13.37L145.05 7.67L139.80 6.14L135.96 10.32L137.39 16.02L142.65 17.55ZM157.98 0.85L156.56 -4.86L151.30 -6.38L147.46 -2.21L148.89 3.50L154.15 5.02ZM124.02 1.57L122.60 -4.13L117.34 -5.65L113.51 -1.47L114.94 4.22L120.20 5.75ZM114.94 4.22L113.51 -1.47L108.26 -2.99L104.43 1.18L105.86 6.88L111.12 8.40ZM130.71 8.79L129.28 3.09L124.02 1.57L120.20 5.75L121.63 11.45L126.88 12.97ZM121.63 11.45L120.20 5.75L114.94 4.22L111.12 8.40L112.55 14.10L117.80 15.62ZM133.11 -1.08L131.68 -6.78L126.43 -8.31L122.60 -4.13L124.02 1.57L129.28 3.09ZM159.84 27.83L158.42 22.13L153.16 20.60L149.33 24.77L150.75 30.47L156.01 32.00ZM150.75 30.47L149.33 24.77L144.07 23.24L140.24 27.42L141.67 33.11L146.92 34.64ZM162.25 17.96L160.83 12.26L155.57 10.73L151.74 14.90L153.16 20.60L158.42 22.13ZM153.16 20.60L151.74 14.90L146.48 13.37L142.65 17.55L144.07 23.24L149.33 24.77ZM166.52 35.06L165.10 29.36L159.84 27.83L156.01 32.00L157.43 37.70L162.69 39.23ZM157.43 37.70L156.01 32.00L150.75 30.47L146.92 34.64L148.34 40.34L153.60 41.87ZM168.93 25.19L167.51 19.49L162.25 17.96L158.42 22.13L159.84 27.83L165.10 29.36ZM134.99 25.89L133.56 20.19L128.31 18.67L124.48 22.84L125.91 28.54L131.16 30.06ZM125.91 28.54L124.48 22.84L119.23 21.32L115.40 25.49L116.83 31.18L122.08 32.71ZM137.39 16.02L135.96 10.32L130.71 8.79L126.88 12.97L128.31 18.67L133.56 20.19ZM128.31 18.67L126.88 12.97L121.63 11.45L117.80 15.62L119.23 21.32L124.48 22.84ZM141.67 33.11L140.24 27.42L134.99 25.89L131.16 30.06L132.59 35.76L137.84 37.28ZM132.59 35.76L131.16 30.06L125.91 28.54L122.08 32.71L123.51 38.40L128.76 39.93ZM144.07 23.24L142.65 17.55L137.39 16.02L133.56 20.19L134.99 25.89L140.24 27.42ZM173.77 5.44L172.34 -0.26L167.08 -1.80L163.24 2.38L164.67 8.08L169.93 9.61ZM164.67 8.08L163.24 2.38L157.98 0.85L154.15 5.02L155.57 10.73L160.83 12.26ZM167.08 -1.80L165.66 -7.50L160.40 -9.03L156.56 -4.86L157.98 0.85L163.24 2.38ZM180.45 12.68L179.03 6.97L173.77 5.44L169.93 9.61L171.35 15.32L176.61 16.85ZM171.35 15.32L169.93 9.61L164.67 8.08L160.83 12.26L162.25 17.96L167.51 19.49ZM182.87 2.80L181.45 -2.91L176.19 -4.44L172.34 -0.26L173.77 5.44L179.03 6.97ZM108.26 -2.99L106.83 -8.69L101.57 -10.21L97.75 -6.03L99.18 -0.34L104.43 1.18ZM105.37 43.69L103.94 38.00L98.69 36.48L94.87 40.65L96.30 46.34L101.55 47.86ZM110.15 23.97L108.72 18.27L103.47 16.75L99.65 20.93L101.08 26.62L106.33 28.14ZM112.55 14.10L111.12 8.40L105.86 6.88L102.04 11.06L103.47 16.75L108.72 18.27ZM116.83 31.18L115.40 25.49L110.15 23.97L106.33 28.14L107.76 33.83L113.01 35.35ZM107.76 33.83L106.33 28.14L101.08 26.62L97.26 30.79L98.69 36.48L103.94 38.00ZM119.23 21.32L117.80 15.62L112.55 14.10L108.72 18.27L110.15 23.97L115.40 25.49ZM178.72 123.11L177.31 117.42L172.06 115.88L168.23 120.03L169.65 125.72L174.89 127.26ZM169.65 125.72L168.23 120.03L162.99 118.50L159.17 122.65L160.59 128.34L165.83 129.87ZM181.13 113.27L179.72 107.57L174.47 106.04L170.64 110.19L172.06 115.88L177.31 117.42ZM172.06 115.88L170.64 110.19L165.40 108.66L161.57 112.81L162.99 118.50L168.23 120.03ZM185.38 130.33L183.97 124.65L178.72 123.11L174.89 127.26L176.31 132.95L181.55 134.48ZM176.31 132.95L174.89 127.26L169.65 125.72L165.83 129.87L167.24 135.56L172.49 137.10ZM187.80 120.49L186.38 114.80L181.13 113.27L177.31 117.42L178.72 123.11L183.97 124.65ZM153.92 121.12L152.50 115.43L147.26 113.90L143.44 118.05L144.86 123.74L150.10 125.27ZM144.86 123.74L143.44 118.05L138.20 116.52L134.38 120.68L135.81 126.36L141.04 127.89ZM156.33 111.28L154.91 105.59L149.66 104.06L145.84 108.21L147.26 113.90L152.50 115.43ZM147.26 113.90L145.84 108.21L140.60 106.68L136.78 110.84L138.20 116.52L143.44 118.05ZM160.59 128.34L159.17 122.65L153.92 121.12L150.10 125.27L151.52 130.96L156.76 132.49ZM151.52 130.96L150.10 125.27L144.86 123.74L141.04 127.89L142.46 133.57L147.70 135.11ZM162.99 118.50L161.57 112.81L156.33 111.28L152.50 115.43L153.92 121.12L159.17 122.65ZM192.63 100.80L191.21 95.11L185.96 93.57L182.13 97.73L183.55 103.42L188.80 104.96ZM183.55 103.42L182.13 97.73L176.88 96.19L173.05 100.35L174.47 106.04L179.72 107.57ZM195.05 90.95L193.63 85.26L188.38 83.72L184.55 87.88L185.96 93.57L191.21 95.11ZM185.96 93.57L184.55 87.88L179.30 86.34L175.46 90.50L176.88 96.19L182.13 97.73ZM199.29 108.04L197.88 102.34L192.63 100.80L188.80 104.96L190.21 110.65L195.46 112.19ZM190.21 110.65L188.80 104.96L183.55 103.42L179.72 107.57L181.13 113.27L186.38 114.80ZM201.71 98.19L200.30 92.49L195.05 90.95L191.21 95.11L192.63 100.80L197.88 102.34ZM167.81 98.81L166.39 93.12L161.14 91.59L157.31 95.74L158.73 101.43L163.98 102.97ZM158.73 101.43L157.31 95.74L152.07 94.21L148.24 98.37L149.66 104.06L154.91 105.59ZM170.22 88.96L168.80 83.27L163.55 81.74L159.72 85.89L161.14 91.59L166.39 93.12ZM161.14 91.59L159.72 85.89L154.47 84.36L150.65 88.52L152.07 94.21L157.31 95.74ZM174.47 106.04L173.05 100.35L167.81 98.81L163.98 102.97L165.40 108.66L170.64 110.19ZM165.40 108.66L163.98 102.97L158.73 101.43L154.91 105.59L156.33 111.28L161.57 112.81ZM176.88 96.19L175.46 90.50L170.22 88.96L166.39 93.12L167.81 98.81L173.05 100.35ZM189.63 147.40L188.21 141.71L182.97 140.17L179.14 144.32L180.56 150.00L185.80 151.54ZM180.56 150.00L179.14 144.32L173.90 142.78L170.08 146.93L171.49 152.61L176.73 154.15ZM192.04 137.56L190.63 131.87L185.38 130.33L181.55 134.48L182.97 140.17L188.21 141.71ZM182.97 140.17L181.55 134.48L176.31 132.95L172.49 137.10L173.90 142.78L179.14 144.32ZM196.28 154.63L194.87 148.94L189.63 147.40L185.80 151.54L187.21 157.23L192.45 158.77ZM187.21 157.23L185.80 151.54L180.56 150.00L176.73 154.15L178.15 159.83L183.39 161.37ZM198.70 144.79L197.28 139.10L192.04 137.56L188.21 141.71L189.63 147.40L194.87 148.94ZM164.84 145.39L163.42 139.71L158.18 138.17L154.36 142.32L155.78 148.01L161.02 149.54ZM155.78 148.01L154.36 142.32L149.12 140.79L145.30 144.94L146.72 150.62L151.96 152.15ZM167.24 135.56L165.83 129.87L160.59 128.34L156.76 132.49L158.18 138.17L163.42 139.71ZM158.18 138.17L156.76 132.49L151.52 130.96L147.70 135.11L149.12 140.79L154.36 142.32ZM171.49 152.61L170.08 146.93L164.84 145.39L161.02 149.54L162.43 155.22L167.67 156.76ZM162.43 155.22L161.02 149.54L155.78 148.01L151.96 152.15L153.38 157.83L158.61 159.37ZM173.90 142.78L172.49 137.10L167.24 135.56L163.42 139.71L164.84 145.39L170.08 146.93ZM203.54 125.12L202.12 119.42L196.87 117.88L193.04 122.03L194.46 127.72L199.70 129.27ZM194.46 127.72L193.04 122.03L187.80 120.49L183.97 124.65L185.38 130.33L190.63 131.87ZM205.96 115.27L204.54 109.58L199.29 108.04L195.46 112.19L196.87 117.88L202.12 119.42ZM196.87 117.88L195.46 112.19L190.21 110.65L186.38 114.80L187.80 120.49L193.04 122.03ZM210.19 132.35L208.78 126.66L203.54 125.12L199.70 129.27L201.12 134.96L206.36 136.50ZM201.12 134.96L199.70 129.27L194.46 127.72L190.63 131.87L192.04 137.56L197.28 139.10ZM212.62 122.51L211.21 116.81L205.96 115.27L202.12 119.42L203.54 125.12L208.78 126.66ZM115.31 141.44L113.89 135.76L108.66 134.24L104.85 138.39L106.27 144.06L111.50 145.59ZM117.70 131.61L116.28 125.93L111.04 124.40L107.23 128.56L108.66 134.24L113.89 135.76ZM108.66 134.24L107.23 128.56L102.00 127.03L98.19 131.19L99.62 136.86L104.85 138.39ZM121.97 148.65L120.55 142.97L115.31 141.44L111.50 145.59L112.93 151.27L118.16 152.79ZM124.36 138.82L122.94 133.14L117.70 131.61L113.89 135.76L115.31 141.44L120.55 142.97ZM129.14 119.15L127.72 113.47L122.48 111.94L118.67 116.09L120.09 121.78L125.33 123.30ZM120.09 121.78L118.67 116.09L113.43 114.57L109.62 118.72L111.04 124.40L116.28 125.93ZM131.54 109.31L130.12 103.63L124.87 102.10L121.06 106.26L122.48 111.94L127.72 113.47ZM122.48 111.94L121.06 106.26L115.82 104.73L112.00 108.89L113.43 114.57L118.67 116.09ZM135.81 126.36L134.38 120.68L129.14 119.15L125.33 123.30L126.75 128.98L131.99 130.51ZM126.75 128.98L125.33 123.30L120.09 121.78L116.28 125.93L117.70 131.61L122.94 133.14ZM138.20 116.52L136.78 110.84L131.54 109.31L127.72 113.47L129.14 119.15L134.38 120.68ZM111.04 124.40L109.62 118.72L104.38 117.20L100.57 121.35L102.00 127.03L107.23 128.56ZM113.43 114.57L112.00 108.89L106.77 107.36L102.96 111.52L104.38 117.20L109.62 118.72ZM126.24 165.68L124.81 160.00L119.58 158.47L115.77 162.62L117.20 168.29L122.43 169.82ZM128.63 155.85L127.20 150.17L121.97 148.65L118.16 152.79L119.58 158.47L124.81 160.00ZM132.89 172.88L131.47 167.21L126.24 165.68L122.43 169.82L123.85 175.49L129.08 177.02ZM123.85 175.49L122.43 169.82L117.20 168.29L113.39 172.44L114.81 178.11L120.04 179.64ZM135.28 163.06L133.86 157.38L128.63 155.85L124.81 160.00L126.24 165.68L131.47 167.21ZM140.07 143.41L138.65 137.73L133.41 136.20L129.60 140.35L131.02 146.03L136.25 147.56ZM131.02 146.03L129.60 140.35L124.36 138.82L120.55 142.97L121.97 148.65L127.20 150.17ZM142.46 133.57L141.04 127.89L135.81 126.36L131.99 130.51L133.41 136.20L138.65 137.73ZM133.41 136.20L131.99 130.51L126.75 128.98L122.94 133.14L124.36 138.82L129.60 140.35ZM146.72 150.62L145.30 144.94L140.07 143.41L136.25 147.56L137.67 153.23L142.91 154.77ZM137.67 153.23L136.25 147.56L131.02 146.03L127.20 150.17L128.63 155.85L133.86 157.38ZM149.12 140.79L147.70 135.11L142.46 133.57L138.65 137.73L140.07 143.41L145.30 144.94ZM195.64 54.14L194.22 48.44L188.97 46.90L185.13 51.07L186.55 56.77L191.80 58.30ZM186.55 56.77L185.13 51.07L179.87 49.53L176.04 53.70L177.46 59.39L182.71 60.93ZM198.07 44.27L196.65 38.57L191.39 37.03L187.55 41.20L188.97 46.90L194.22 48.44ZM188.97 46.90L187.55 41.20L182.29 39.66L178.45 43.83L179.87 49.53L185.13 51.07ZM202.32 61.38L200.90 55.68L195.64 54.14L191.80 58.30L193.22 64.00L198.48 65.54ZM193.22 64.00L191.80 58.30L186.55 56.77L182.71 60.93L184.13 66.63L189.38 68.16ZM204.74 51.51L203.33 45.81L198.07 44.27L194.22 48.44L195.64 54.14L200.90 55.68ZM170.78 52.16L169.36 46.46L164.11 44.93L160.27 49.10L161.70 54.79L166.95 56.33ZM161.70 54.79L160.27 49.10L155.02 47.57L151.19 51.73L152.61 57.43L157.86 58.96ZM173.20 42.30L171.78 36.60L166.52 35.06L162.69 39.23L164.11 44.93L169.36 46.46ZM164.11 44.93L162.69 39.23L157.43 37.70L153.60 41.87L155.02 47.57L160.27 49.10ZM177.46 59.39L176.04 53.70L170.78 52.16L166.95 56.33L168.37 62.02L173.62 63.56ZM168.37 62.02L166.95 56.33L161.70 54.79L157.86 58.96L159.29 64.65L164.54 66.19ZM179.87 49.53L178.45 43.83L173.20 42.30L169.36 46.46L170.78 52.16L176.04 53.70ZM209.60 31.77L208.18 26.07L202.92 24.53L199.07 28.70L200.49 34.40L205.75 35.94ZM200.49 34.40L199.07 28.70L193.81 27.16L189.97 31.33L191.39 37.03L196.65 38.57ZM212.03 21.90L210.61 16.19L205.35 14.65L201.50 18.82L202.92 24.53L208.18 26.07ZM202.92 24.53L201.50 18.82L196.24 17.29L192.39 21.46L193.81 27.16L199.07 28.70ZM216.28 39.02L214.86 33.31L209.60 31.77L205.75 35.94L207.17 41.65L212.43 43.19ZM207.17 41.65L205.75 35.94L200.49 34.40L196.65 38.57L198.07 44.27L203.33 45.81ZM218.71 29.15L217.29 23.44L212.03 21.90L208.18 26.07L209.60 31.77L214.86 33.31ZM184.71 29.79L183.29 24.09L178.03 22.56L174.19 26.73L175.61 32.43L180.87 33.96ZM175.61 32.43L174.19 26.73L168.93 25.19L165.10 29.36L166.52 35.06L171.78 36.60ZM187.13 19.92L185.71 14.21L180.45 12.68L176.61 16.85L178.03 22.56L183.29 24.09ZM178.03 22.56L176.61 16.85L171.35 15.32L167.51 19.49L168.93 25.19L174.19 26.73ZM191.39 37.03L189.97 31.33L184.71 29.79L180.87 33.96L182.29 39.66L187.55 41.20ZM182.29 39.66L180.87 33.96L175.61 32.43L171.78 36.60L173.20 42.30L178.45 43.83ZM193.81 27.16L192.39 21.46L187.13 19.92L183.29 24.09L184.71 29.79L189.97 31.33ZM206.56 78.48L205.15 72.78L199.89 71.24L196.05 75.40L197.47 81.10L202.72 82.64ZM197.47 81.10L196.05 75.40L190.80 73.86L186.96 78.02L188.38 83.72L193.63 85.26ZM208.99 68.62L207.57 62.92L202.32 61.38L198.48 65.54L199.89 71.24L205.15 72.78ZM199.89 71.24L198.48 65.54L193.22 64.00L189.38 68.16L190.80 73.86L196.05 75.40ZM213.23 85.72L211.82 80.02L206.56 78.48L202.72 82.64L204.14 88.34L209.39 89.88ZM204.14 88.34L202.72 82.64L197.47 81.10L193.63 85.26L195.05 90.95L200.30 92.49ZM215.66 75.86L214.24 70.16L208.99 68.62L205.15 72.78L206.56 78.48L211.82 80.02ZM181.71 76.49L180.29 70.79L175.04 69.25L171.21 73.41L172.63 79.11L177.88 80.64ZM172.63 79.11L171.21 73.41L165.96 71.88L162.13 76.04L163.55 81.74L168.80 83.27ZM184.13 66.63L182.71 60.93L177.46 59.39L173.62 63.56L175.04 69.25L180.29 70.79ZM175.04 69.25L173.62 63.56L168.37 62.02L164.54 66.19L165.96 71.88L171.21 73.41ZM188.38 83.72L186.96 78.02L181.71 76.49L177.88 80.64L179.30 86.34L184.55 87.88ZM179.30 86.34L177.88 80.64L172.63 79.11L168.80 83.27L170.22 88.96L175.46 90.50ZM190.80 73.86L189.38 68.16L184.13 66.63L180.29 70.79L181.71 76.49L186.96 78.02ZM220.52 56.14L219.10 50.43L213.84 48.89L210.00 53.05L211.42 58.76L216.67 60.30ZM211.42 58.76L210.00 53.05L204.74 51.51L200.90 55.68L202.32 61.38L207.57 62.92ZM222.95 46.27L221.54 40.56L216.28 39.02L212.43 43.19L213.84 48.89L219.10 50.43ZM213.84 48.89L212.43 43.19L207.17 41.65L203.33 45.81L204.74 51.51L210.00 53.05ZM227.19 63.38L225.78 57.68L220.52 56.14L216.67 60.30L218.09 66.00L223.35 67.54ZM218.09 66.00L216.67 60.30L211.42 58.76L207.57 62.92L208.99 68.62L214.24 70.16ZM229.63 53.52L228.21 47.81L222.95 46.27L219.10 50.43L220.52 56.14L225.78 57.68ZM12.16 116.77L10.72 111.10L5.50 109.59L1.71 113.75L3.15 119.42L8.37 120.93ZM14.51 106.94L13.07 101.27L7.85 99.76L4.06 103.92L5.50 109.59L10.72 111.10ZM25.89 94.45L24.45 88.78L19.22 87.27L15.43 91.43L16.86 97.10L22.09 98.61ZM16.86 97.10L15.43 91.43L10.20 89.93L6.41 94.09L7.85 99.76L13.07 101.27ZM16.47 133.77L15.03 128.10L9.81 126.59L6.03 130.75L7.46 136.41L12.68 137.92ZM7.46 136.41L6.03 130.75L0.80 129.24L-2.98 133.40L-1.54 139.06L3.68 140.57ZM18.82 123.94L17.39 118.27L12.16 116.77L8.37 120.93L9.81 126.59L15.03 128.10ZM9.81 126.59L8.37 120.93L3.15 119.42L-0.63 123.58L0.80 129.24L6.03 130.75ZM23.13 140.94L21.69 135.28L16.47 133.77L12.68 137.92L14.12 143.59L19.34 145.10ZM14.12 143.59L12.68 137.92L7.46 136.41L3.68 140.57L5.12 146.23L10.33 147.74ZM25.48 131.12L24.05 125.45L18.82 123.94L15.03 128.10L16.47 133.77L21.69 135.28ZM0.80 129.24L-0.63 123.58L-5.86 122.07L-9.64 126.23L-8.20 131.90L-2.98 133.40ZM30.19 111.46L28.76 105.79L23.53 104.28L19.74 108.45L21.17 114.11L26.40 115.62ZM21.17 114.11L19.74 108.45L14.51 106.94L10.72 111.10L12.16 116.77L17.39 118.27ZM32.55 101.63L31.12 95.96L25.89 94.45L22.09 98.61L23.53 104.28L28.76 105.79ZM23.53 104.28L22.09 98.61L16.86 97.10L13.07 101.27L14.51 106.94L19.74 108.45ZM36.86 118.65L35.42 112.98L30.19 111.46L26.40 115.62L27.84 121.29L33.06 122.81ZM27.84 121.29L26.40 115.62L21.17 114.11L17.39 118.27L18.82 123.94L24.05 125.45ZM39.22 108.82L37.78 103.14L32.55 101.63L28.76 105.79L30.19 111.46L35.42 112.98ZM55.78 39.90L54.35 34.22L49.11 32.70L45.30 36.88L46.74 42.56L51.98 44.07ZM260.09 -1.11L258.68 -6.83L253.40 -8.38L249.54 -4.21L250.95 1.51L256.23 3.06ZM223.58 9.39L222.16 3.68L216.89 2.14L213.04 6.31L214.46 12.02L219.73 13.56ZM214.46 12.02L213.04 6.31L207.78 4.77L203.93 8.94L205.35 14.65L210.61 16.19ZM226.01 -0.49L224.60 -6.21L219.33 -7.75L215.48 -3.57L216.89 2.14L222.16 3.68ZM216.89 2.14L215.48 -3.57L210.21 -5.11L206.36 -0.94L207.78 4.77L213.04 6.31ZM230.26 16.64L228.84 10.93L223.58 9.39L219.73 13.56L221.14 19.27L226.41 20.81ZM221.14 19.27L219.73 13.56L214.46 12.02L210.61 16.19L212.03 21.90L217.29 23.44ZM232.70 6.76L231.28 1.05L226.01 -0.49L222.16 3.68L223.58 9.39L228.84 10.93ZM198.66 7.41L197.24 1.70L191.98 0.16L188.14 4.33L189.55 10.04L194.82 11.58ZM189.55 10.04L188.14 4.33L182.87 2.80L179.03 6.97L180.45 12.68L185.71 14.21ZM201.09 -2.48L199.67 -8.19L194.41 -9.72L190.56 -5.55L191.98 0.16L197.24 1.70ZM191.98 0.16L190.56 -5.55L185.29 -7.08L181.45 -2.91L182.87 2.80L188.14 4.33ZM205.35 14.65L203.93 8.94L198.66 7.41L194.82 11.58L196.24 17.29L201.50 18.82ZM196.24 17.29L194.82 11.58L189.55 10.04L185.71 14.21L187.13 19.92L192.39 21.46ZM207.78 4.77L206.36 -0.94L201.09 -2.48L197.24 1.70L198.66 7.41L203.93 8.94ZM235.14 -3.12L233.72 -8.84L228.45 -10.38L224.60 -6.21L226.01 -0.49L231.28 1.05Z"/></svg>
