<svg xmlns="http://www.w3.org/2000/svg" width="256" height="256" viewBox="0 0 256 256"><path data-band="1" fill="#fde68a" fill-opacity="0.35" d="M0.13 155.30L-1.29 149.68L-6.47 148.17L-10.22 152.27L-8.80 157.89L-3.62 159.41ZM2.46 145.58L1.03 139.95L-4.15 138.43L-7.90 142.54L-6.47 148.17L-1.29 149.68ZM6.73 162.44L5.31 156.82L0.13 155.30L-3.62 159.41L-2.19 165.03L2.98 166.55ZM9.06 152.72L7.64 147.09L2.46 145.58L-1.29 149.68L0.13 155.30L5.31 156.82ZM4.03 208.45L2.61 202.84L-2.56 201.32L-6.31 205.42L-4.89 211.03L0.28 212.55ZM6.35 198.74L4.93 193.12L-0.24 191.61L-3.99 195.70L-2.56 201.32L2.61 202.84ZM11.01 179.31L9.58 173.69L4.41 172.17L0.66 176.27L2.08 181.89L7.26 183.41ZM2.08 181.89L0.66 176.27L-4.52 174.75L-8.26 178.85L-6.84 184.47L-1.67 185.99ZM13.34 169.59L11.91 163.96L6.73 162.44L2.98 166.55L4.41 172.17L9.58 173.69ZM4.41 172.17L2.98 166.55L-2.19 165.03L-5.94 169.13L-4.52 174.75L0.66 176.27ZM17.61 186.45L16.18 180.83L11.01 179.31L7.26 183.41L8.68 189.03L13.85 190.55ZM8.68 189.03L7.26 183.41L2.08 181.89L-1.67 185.99L-0.24 191.61L4.93 193.12ZM19.94 176.73L18.51 171.11L13.34 169.59L9.58 173.69L11.01 179.31L16.18 180.83ZM2.84 109.22L1.41 103.59L-3.78 102.08L-7.53 106.19L-6.11 111.82L-0.92 113.33ZM5.17 99.48L3.74 93.84L-1.45 92.33L-5.21 96.45L-3.78 102.08L1.41 103.59ZM9.45 116.37L8.02 110.74L2.84 109.22L-0.92 113.33L0.51 118.96L5.69 120.48ZM0.51 118.96L-0.92 113.33L-6.11 111.82L-9.86 115.93L-8.43 121.56L-3.25 123.07ZM11.78 106.62L10.35 100.99L5.17 99.48L1.41 103.59L2.84 109.22L8.02 110.74ZM16.45 87.13L15.02 81.49L9.83 79.98L6.07 84.09L7.50 89.73L12.69 91.24ZM7.50 89.73L6.07 84.09L0.88 82.58L-2.88 86.70L-1.45 92.33L3.74 93.84ZM18.79 77.37L17.36 71.74L12.17 70.22L8.40 74.34L9.83 79.98L15.02 81.49ZM9.83 79.98L8.40 74.34L3.21 72.83L-0.55 76.95L0.88 82.58L6.07 84.09ZM23.07 94.28L21.64 88.64L16.45 87.13L12.69 91.24L14.11 96.88L19.30 98.39ZM14.11 96.88L12.69 91.24L7.50 89.73L3.74 93.84L5.17 99.48L10.35 100.99ZM25.41 84.53L23.98 78.89L18.79 77.37L15.02 81.49L16.45 87.13L21.64 88.64ZM0.88 82.58L-0.55 76.95L-5.74 75.43L-9.50 79.55L-8.07 85.18L-2.88 86.70ZM13.72 133.25L12.30 127.62L7.12 126.11L3.36 130.22L4.79 135.84L9.97 137.36ZM4.79 135.84L3.36 130.22L-1.82 128.70L-5.58 132.81L-4.15 138.43L1.03 139.95ZM16.06 123.51L14.63 117.88L9.45 116.37L5.69 120.48L7.12 126.11L12.30 127.62ZM7.12 126.11L5.69 120.48L0.51 118.96L-3.25 123.07L-1.82 128.70L3.36 130.22ZM20.33 140.40L18.91 134.77L13.72 133.25L9.97 137.36L11.39 142.99L16.57 144.50ZM11.39 142.99L9.97 137.36L4.79 135.84L1.03 139.95L2.46 145.58L7.64 147.09ZM22.67 130.66L21.24 125.03L16.06 123.51L12.30 127.62L13.72 133.25L18.91 134.77ZM27.34 111.18L25.92 105.55L20.73 104.03L16.97 108.14L18.39 113.77L23.58 115.29ZM18.39 113.77L16.97 108.14L11.78 106.62L8.02 110.74L9.45 116.37L14.63 117.88ZM29.68 101.43L28.26 95.80L23.07 94.28L19.30 98.39L20.73 104.03L25.92 105.55ZM20.73 104.03L19.30 98.39L14.11 96.88L10.35 100.99L11.78 106.62L16.97 108.14ZM33.95 118.33L32.53 112.70L27.34 111.18L23.58 115.29L25.00 120.92L30.19 122.44ZM25.00 120.92L23.58 115.29L18.39 113.77L14.63 117.88L16.06 123.51L21.24 125.03ZM36.30 108.59L34.87 102.95L29.68 101.43L25.92 105.55L27.34 111.18L32.53 112.70ZM46.53 -3.40L45.10 -9.05L39.89 -10.57L36.11 -6.43L37.54 -0.78L42.75 0.74ZM37.54 -0.78L36.11 -6.43L30.91 -7.95L27.13 -3.82L28.56 1.83L33.76 3.35ZM53.16 3.77L51.74 -1.88L46.53 -3.40L42.75 0.74L44.18 6.39L49.38 7.91ZM44.18 6.39L42.75 0.74L37.54 -0.78L33.76 3.35L35.19 9.00L40.40 10.52ZM12.95 -2.71L11.51 -8.36L6.31 -9.87L2.54 -5.73L3.97 -0.09L9.17 1.42ZM28.56 1.83L27.13 -3.82L21.92 -5.33L18.15 -1.20L19.58 4.45L24.78 5.97ZM19.58 4.45L18.15 -1.20L12.95 -2.71L9.17 1.42L10.61 7.07L15.81 8.58ZM3.97 -0.09L2.54 -5.73L-2.66 -7.25L-6.43 -3.11L-5.00 2.53L0.20 4.05ZM82.05 22.70L80.63 17.04L75.42 15.52L71.63 19.65L73.06 25.30L78.26 26.82ZM73.06 25.30L71.63 19.65L66.43 18.12L62.64 22.25L64.07 27.90L69.27 29.42ZM75.42 15.52L74.00 9.86L68.79 8.34L65.00 12.47L66.43 18.12L71.63 19.65ZM79.69 32.47L78.26 26.82L73.06 25.30L69.27 29.42L70.70 35.07L75.90 36.60ZM48.45 23.33L47.03 17.69L41.82 16.17L38.05 20.30L39.47 25.94L44.68 27.46ZM59.80 10.95L58.37 5.30L53.16 3.77L49.38 7.91L50.81 13.56L56.01 15.08ZM50.81 13.56L49.38 7.91L44.18 6.39L40.40 10.52L41.82 16.17L47.03 17.69ZM66.43 18.12L65.00 12.47L59.80 10.95L56.01 15.08L57.44 20.73L62.64 22.25ZM95.79 0.53L94.37 -5.13L89.15 -6.66L85.36 -2.53L86.78 3.13L92.00 4.66ZM86.78 3.13L85.36 -2.53L80.15 -4.05L76.36 0.08L77.78 5.74L82.99 7.26ZM104.80 -2.07L103.38 -7.73L98.16 -9.26L94.37 -5.13L95.79 0.53L101.00 2.06ZM71.15 -1.44L69.73 -7.10L64.51 -8.62L60.73 -4.49L62.15 1.16L67.36 2.69ZM62.15 1.16L60.73 -4.49L55.52 -6.01L51.74 -1.88L53.16 3.77L58.37 5.30ZM77.78 5.74L76.36 0.08L71.15 -1.44L67.36 2.69L68.79 8.34L74.00 9.86ZM68.79 8.34L67.36 2.69L62.15 1.16L58.37 5.30L59.80 10.95L65.00 12.47ZM80.15 -4.05L78.73 -9.71L73.51 -11.23L69.73 -7.10L71.15 -1.44L76.36 0.08ZM68.34 44.85L66.91 39.20L61.71 37.67L57.93 41.80L59.35 47.45L64.56 48.97ZM59.35 47.45L57.93 41.80L52.73 40.28L48.95 44.40L50.38 50.05L55.58 51.57ZM70.70 35.07L69.27 29.42L64.07 27.90L60.29 32.03L61.71 37.67L66.91 39.20ZM61.71 37.67L60.29 32.03L55.08 30.50L51.30 34.63L52.73 40.28L57.93 41.80ZM65.98 54.62L64.56 48.97L59.35 47.45L55.58 51.57L57.00 57.21L62.20 58.74ZM19.18 40.93L17.75 35.29L12.56 33.78L8.79 37.90L10.22 43.54L15.41 45.06ZM10.22 43.54L8.79 37.90L3.59 36.39L-0.17 40.52L1.26 46.15L6.45 47.67ZM21.52 31.16L20.10 25.52L14.90 24.00L11.13 28.13L12.56 33.78L17.75 35.29ZM12.56 33.78L11.13 28.13L5.93 26.62L2.16 30.75L3.59 36.39L8.79 37.90ZM25.81 48.09L24.38 42.45L19.18 40.93L15.41 45.06L16.84 50.70L22.04 52.21ZM16.84 50.70L15.41 45.06L10.22 43.54L6.45 47.67L7.88 53.31L13.08 54.82ZM28.15 38.32L26.72 32.68L21.52 31.16L17.75 35.29L19.18 40.93L24.38 42.45ZM1.26 46.15L-0.17 40.52L-5.37 39.00L-9.13 43.13L-7.70 48.77L-2.51 50.28ZM3.59 36.39L2.16 30.75L-3.04 29.24L-6.80 33.36L-5.37 39.00L-0.17 40.52ZM32.84 18.78L31.42 13.13L26.21 11.61L22.44 15.74L23.87 21.39L29.07 22.91ZM23.87 21.39L22.44 15.74L17.24 14.23L13.47 18.36L14.90 24.00L20.10 25.52ZM35.19 9.00L33.76 3.35L28.56 1.83L24.78 5.97L26.21 11.61L31.42 13.13ZM26.21 11.61L24.78 5.97L19.58 4.45L15.81 8.58L17.24 14.23L22.44 15.74ZM39.47 25.94L38.05 20.30L32.84 18.78L29.07 22.91L30.50 28.55L35.70 30.07ZM30.50 28.55L29.07 22.91L23.87 21.39L20.10 25.52L21.52 31.16L26.72 32.68ZM41.82 16.17L40.40 10.52L35.19 9.00L31.42 13.13L32.84 18.78L38.05 20.30ZM8.27 16.85L6.83 11.20L1.63 9.69L-2.13 13.82L-0.70 19.46L4.50 20.98ZM10.61 7.07L9.17 1.42L3.97 -0.09L0.20 4.05L1.63 9.69L6.83 11.20ZM1.63 9.69L0.20 4.05L-5.00 2.53L-8.77 6.67L-7.33 12.31L-2.13 13.82ZM14.90 24.00L13.47 18.36L8.27 16.85L4.50 20.98L5.93 26.62L11.13 28.13ZM5.93 26.62L4.50 20.98L-0.70 19.46L-4.47 23.60L-3.04 29.24L2.16 30.75ZM17.24 14.23L15.81 8.58L10.61 7.07L6.83 11.20L8.27 16.85L13.47 18.36ZM30.09 65.01L28.66 59.37L23.47 57.86L19.70 61.98L21.13 67.62L26.32 69.13ZM21.13 67.62L19.70 61.98L14.50 60.46L10.74 64.58L12.17 70.22L17.36 71.74ZM23.47 57.86L22.04 52.21L16.84 50.70L13.08 54.82L14.50 60.46L19.70 61.98ZM36.71 72.17L35.28 66.53L30.09 65.01L26.32 69.13L27.75 74.77L32.94 76.29ZM27.75 74.77L26.32 69.13L21.13 67.62L17.36 71.74L18.79 77.37L23.98 78.89ZM5.55 63.07L4.12 57.43L-1.08 55.92L-4.84 60.04L-3.41 65.68L1.78 67.19ZM7.88 53.31L6.45 47.67L1.26 46.15L-2.51 50.28L-1.08 55.92L4.12 57.43ZM12.17 70.22L10.74 64.58L5.55 63.07L1.78 67.19L3.21 72.83L8.40 74.34ZM3.21 72.83L1.78 67.19L-3.41 65.68L-7.17 69.80L-5.74 75.43L-0.55 76.95ZM14.50 60.46L13.08 54.82L7.88 53.31L4.12 57.43L5.55 63.07L10.74 64.58ZM43.75 42.88L42.33 37.23L37.13 35.72L33.35 39.84L34.78 45.48L39.98 47.00ZM34.78 45.48L33.35 39.84L28.15 38.32L24.38 42.45L25.81 48.09L31.01 49.61ZM46.10 33.11L44.68 27.46L39.47 25.94L35.70 30.07L37.13 35.72L42.33 37.23ZM37.13 35.72L35.70 30.07L30.50 28.55L26.72 32.68L28.15 38.32L33.35 39.84ZM50.38 50.05L48.95 44.40L43.75 42.88L39.98 47.00L41.40 52.65L46.60 54.17ZM52.73 40.28L51.30 34.63L46.10 33.11L42.33 37.23L43.75 42.88L48.95 44.40ZM1.71 218.16L0.28 212.55L-4.89 211.03L-8.63 215.12L-7.20 220.74L-2.04 222.25ZM15.28 196.17L13.85 190.55L8.68 189.03L4.93 193.12L6.35 198.74L11.53 200.26ZM15.67 159.86L14.24 154.24L9.06 152.72L5.31 156.82L6.73 162.44L11.91 163.96ZM18.00 150.13L16.57 144.50L11.39 142.99L7.64 147.09L9.06 152.72L14.24 154.24ZM22.27 167.00L20.85 161.38L15.67 159.86L11.91 163.96L13.34 169.59L18.51 171.11ZM29.28 137.81L27.85 132.18L22.67 130.66L18.91 134.77L20.33 140.40L25.51 141.92ZM31.61 128.07L30.19 122.44L25.00 120.92L21.24 125.03L22.67 130.66L27.85 132.18ZM32.02 91.68L30.60 86.05L25.41 84.53L21.64 88.64L23.07 94.28L28.26 95.80ZM34.37 81.93L32.94 76.29L27.75 74.77L23.98 78.89L25.41 84.53L30.60 86.05ZM57.00 57.21L55.58 51.57L50.38 50.05L46.60 54.17L48.03 59.81L53.22 61.33ZM63.62 64.38L62.20 58.74L57.00 57.21L53.22 61.33L54.65 66.98L59.85 68.50Z"/><path data-band="2" fill="#f97316" fill-opacity="0.35" d="M205.96 -3.77L204.55 -9.44L199.32 -10.99L195.51 -6.86L196.91 -1.19L202.14 0.36ZM219.23 10.67L217.82 5.00L212.59 3.45L208.77 7.58L210.18 13.25L215.41 14.80ZM210.18 13.25L208.77 7.58L203.55 6.03L199.73 10.15L201.14 15.82L206.36 17.37ZM221.65 0.88L220.24 -4.80L215.01 -6.35L211.19 -2.22L212.59 3.45L217.82 5.00ZM212.59 3.45L211.19 -2.22L205.96 -3.77L202.14 0.36L203.55 6.03L208.77 7.58ZM225.86 17.90L224.46 12.22L219.23 10.67L215.41 14.80L216.81 20.47L222.04 22.02ZM216.81 20.47L215.41 14.80L210.18 13.25L206.36 17.37L207.77 23.04L212.99 24.59ZM228.28 8.10L226.87 2.43L221.65 0.88L217.82 5.00L219.23 10.67L224.46 12.22ZM194.51 8.61L193.10 2.94L187.87 1.39L184.06 5.52L185.47 11.19L190.69 12.73ZM185.47 11.19L184.06 5.52L178.84 3.97L175.02 8.10L176.43 13.77L181.66 15.31ZM196.91 -1.19L195.51 -6.86L190.28 -8.41L186.46 -4.28L187.87 1.39L193.10 2.94ZM187.87 1.39L186.46 -4.28L181.24 -5.82L177.42 -1.70L178.84 3.97L184.06 5.52ZM201.14 15.82L199.73 10.15L194.51 8.61L190.69 12.73L192.10 18.40L197.32 19.94ZM192.10 18.40L190.69 12.73L185.47 11.19L181.66 15.31L183.07 20.98L188.29 22.52ZM203.55 6.03L202.14 0.36L196.91 -1.19L193.10 2.94L194.51 8.61L199.73 10.15ZM230.70 -1.70L229.29 -7.37L224.06 -8.93L220.24 -4.80L221.65 0.88L226.87 2.43ZM145.11 4.53L143.70 -1.14L138.48 -2.67L134.68 1.46L136.09 7.12L141.31 8.66ZM136.09 7.12L134.68 1.46L129.46 -0.08L125.66 4.05L127.08 9.71L132.29 11.25ZM138.48 -2.67L137.06 -8.34L131.84 -9.87L128.04 -5.74L129.46 -0.08L134.68 1.46ZM151.75 11.73L150.33 6.07L145.11 4.53L141.31 8.66L142.72 14.32L147.94 15.86ZM142.72 14.32L141.31 8.66L136.09 7.12L132.29 11.25L133.71 16.91L138.92 18.44ZM154.14 1.94L152.72 -3.73L147.50 -5.26L143.70 -1.14L145.11 4.53L150.33 6.07ZM120.44 2.52L119.02 -3.14L113.81 -4.67L110.01 -0.54L111.43 5.12L116.64 6.65ZM111.43 5.12L110.01 -0.54L104.80 -2.07L101.00 2.06L102.42 7.71L107.63 9.24ZM127.08 9.71L125.66 4.05L120.44 2.52L116.64 6.65L118.06 12.31L123.28 13.84ZM118.06 12.31L116.64 6.65L111.43 5.12L107.63 9.24L109.05 14.90L114.27 16.43ZM129.46 -0.08L128.04 -5.74L122.82 -7.27L119.02 -3.14L120.44 2.52L125.66 4.05ZM155.99 28.72L154.57 23.06L149.36 21.52L145.55 25.64L146.97 31.30L152.18 32.84ZM146.97 31.30L145.55 25.64L140.34 24.10L136.54 28.23L137.95 33.89L143.17 35.42ZM158.38 18.93L156.97 13.27L151.75 11.73L147.94 15.86L149.36 21.52L154.57 23.06ZM149.36 21.52L147.94 15.86L142.72 14.32L138.92 18.44L140.34 24.10L145.55 25.64ZM162.61 35.92L161.20 30.26L155.99 28.72L152.18 32.84L153.59 38.50L158.81 40.04ZM153.59 38.50L152.18 32.84L146.97 31.30L143.17 35.42L144.58 41.08L149.79 42.62ZM165.01 26.14L163.60 20.47L158.38 18.93L154.57 23.06L155.99 28.72L161.20 30.26ZM131.32 26.69L129.91 21.03L124.69 19.50L120.90 23.62L122.31 29.28L127.53 30.82ZM122.31 29.28L120.90 23.62L115.68 22.09L111.89 26.22L113.31 31.87L118.52 33.40ZM133.71 16.91L132.29 11.25L127.08 9.71L123.28 13.84L124.69 19.50L129.91 21.03ZM124.69 19.50L123.28 13.84L118.06 12.31L114.27 16.43L115.68 22.09L120.90 23.62ZM137.95 33.89L136.54 28.23L131.32 26.69L127.53 30.82L128.94 36.47L134.15 38.01ZM128.94 36.47L127.53 30.82L122.31 29.28L118.52 33.40L119.93 39.06L125.15 40.59ZM140.34 24.10L138.92 18.44L133.71 16.91L129.91 21.03L131.32 26.69L136.54 28.23ZM169.80 6.56L168.39 0.89L163.17 -0.65L159.36 3.48L160.77 9.14L165.99 10.68ZM160.77 9.14L159.36 3.48L154.14 1.94L150.33 6.07L151.75 11.73L156.97 13.27ZM172.20 -3.24L170.79 -8.91L165.57 -10.45L161.75 -6.32L163.17 -0.65L168.39 0.89ZM163.17 -0.65L161.75 -6.32L156.53 -7.86L152.72 -3.73L154.14 1.94L159.36 3.48ZM176.43 13.77L175.02 8.10L169.80 6.56L165.99 10.68L167.40 16.35L172.62 17.89ZM167.40 16.35L165.99 10.68L160.77 9.14L156.97 13.27L158.38 18.93L163.60 20.47ZM178.84 3.97L177.42 -1.70L172.20 -3.24L168.39 0.89L169.80 6.56L175.02 8.10ZM254.80 37.01L253.40 31.34L248.17 29.78L244.34 33.90L245.75 39.57L250.97 41.13ZM245.75 39.57L244.34 33.90L239.12 32.35L235.30 36.46L236.70 42.14L241.92 43.69ZM257.23 27.22L255.83 21.55L250.60 19.99L246.77 24.11L248.17 29.78L253.40 31.34ZM248.17 29.78L246.77 24.11L241.54 22.56L237.72 26.67L239.12 32.35L244.34 33.90ZM261.42 44.25L260.03 38.57L254.80 37.01L250.97 41.13L252.37 46.80L257.60 48.36ZM252.37 46.80L250.97 41.13L245.75 39.57L241.92 43.69L243.32 49.36L248.55 50.92ZM263.86 34.46L262.46 28.78L257.23 27.22L253.40 31.34L254.80 37.01L260.03 38.57ZM230.07 34.91L228.67 29.24L223.44 27.69L219.62 31.81L221.03 37.48L226.25 39.03ZM221.03 37.48L219.62 31.81L214.40 30.26L210.58 34.38L211.99 40.04L217.21 41.59ZM232.49 25.12L231.09 19.45L225.86 17.90L222.04 22.02L223.44 27.69L228.67 29.24ZM223.44 27.69L222.04 22.02L216.81 20.47L212.99 24.59L214.40 30.26L219.62 31.81ZM236.70 42.14L235.30 36.46L230.07 34.91L226.25 39.03L227.65 44.70L232.88 46.25ZM227.65 44.70L226.25 39.03L221.03 37.48L217.21 41.59L218.61 47.26L223.83 48.81ZM239.12 32.35L237.72 26.67L232.49 25.12L228.67 29.24L230.07 34.91L235.30 36.46ZM259.66 17.43L258.26 11.75L253.03 10.19L249.20 14.31L250.60 19.99L255.83 21.55ZM262.09 7.63L260.69 1.95L255.45 0.39L251.62 4.52L253.03 10.19L258.26 11.75ZM266.29 24.66L264.89 18.99L259.66 17.43L255.83 21.55L257.23 27.22L262.46 28.78ZM243.97 12.76L242.56 7.08L237.33 5.53L233.51 9.65L234.91 15.33L240.14 16.88ZM234.91 15.33L233.51 9.65L228.28 8.10L224.46 12.22L225.86 17.90L231.09 19.45ZM246.39 2.96L244.99 -2.72L239.76 -4.27L235.93 -0.15L237.33 5.53L242.56 7.08ZM237.33 5.53L235.93 -0.15L230.70 -1.70L226.87 2.43L228.28 8.10L233.51 9.65ZM250.60 19.99L249.20 14.31L243.97 12.76L240.14 16.88L241.54 22.56L246.77 24.11ZM241.54 22.56L240.14 16.88L234.91 15.33L231.09 19.45L232.49 25.12L237.72 26.67ZM253.03 10.19L251.62 4.52L246.39 2.96L242.56 7.08L243.97 12.76L249.20 14.31ZM265.62 61.26L264.22 55.59L259.00 54.03L255.17 58.14L256.57 63.81L261.79 65.37ZM256.57 63.81L255.17 58.14L249.95 56.59L246.12 60.70L247.52 66.37L252.75 67.93ZM259.00 54.03L257.60 48.36L252.37 46.80L248.55 50.92L249.95 56.59L255.17 58.14ZM263.19 71.04L261.79 65.37L256.57 63.81L252.75 67.93L254.14 73.59L259.37 75.15ZM240.90 59.14L239.50 53.48L234.28 51.92L230.46 56.03L231.86 61.70L237.08 63.26ZM231.86 61.70L230.46 56.03L225.24 54.48L221.42 58.60L222.82 64.26L228.04 65.81ZM243.32 49.36L241.92 43.69L236.70 42.14L232.88 46.25L234.28 51.92L239.50 53.48ZM234.28 51.92L232.88 46.25L227.65 44.70L223.83 48.81L225.24 54.48L230.46 56.03ZM247.52 66.37L246.12 60.70L240.90 59.14L237.08 63.26L238.48 68.92L243.70 70.48ZM238.48 68.92L237.08 63.26L231.86 61.70L228.04 65.81L229.44 71.48L234.66 73.03ZM249.95 56.59L248.55 50.92L243.32 49.36L239.50 53.48L240.90 59.14L246.12 60.70ZM191.51 54.96L190.11 49.30L184.89 47.75L181.08 51.87L182.49 57.53L187.70 59.08ZM182.49 57.53L181.08 51.87L175.87 50.33L172.06 54.44L173.47 60.10L178.68 61.65ZM193.92 45.18L192.51 39.52L187.29 37.97L183.48 42.09L184.89 47.75L190.11 49.30ZM184.89 47.75L183.48 42.09L178.26 40.55L174.46 44.67L175.87 50.33L181.08 51.87ZM198.14 62.17L196.73 56.51L191.51 54.96L187.70 59.08L189.11 64.74L194.33 66.29ZM189.11 64.74L187.70 59.08L182.49 57.53L178.68 61.65L180.09 67.31L185.30 68.85ZM200.54 52.40L199.14 46.73L193.92 45.18L190.11 49.30L191.51 54.96L196.73 56.51ZM166.85 52.90L165.44 47.24L160.22 45.70L156.42 49.82L157.83 55.48L163.04 57.02ZM157.83 55.48L156.42 49.82L151.20 48.28L147.40 52.40L148.82 58.05L154.03 59.59ZM169.24 43.12L167.83 37.46L162.61 35.92L158.81 40.04L160.22 45.70L165.44 47.24ZM160.22 45.70L158.81 40.04L153.59 38.50L149.79 42.62L151.20 48.28L156.42 49.82ZM173.47 60.10L172.06 54.44L166.85 52.90L163.04 57.02L164.45 62.68L169.66 64.22ZM164.45 62.68L163.04 57.02L157.83 55.48L154.03 59.59L155.44 65.25L160.65 66.79ZM175.87 50.33L174.46 44.67L169.24 43.12L165.44 47.24L166.85 52.90L172.06 54.44ZM205.36 32.83L203.95 27.16L198.73 25.61L194.92 29.73L196.32 35.40L201.54 36.95ZM196.32 35.40L194.92 29.73L189.70 28.19L185.88 32.31L187.29 37.97L192.51 39.52ZM207.77 23.04L206.36 17.37L201.14 15.82L197.32 19.94L198.73 25.61L203.95 27.16ZM198.73 25.61L197.32 19.94L192.10 18.40L188.29 22.52L189.70 28.19L194.92 29.73ZM211.99 40.04L210.58 34.38L205.36 32.83L201.54 36.95L202.95 42.61L208.17 44.16ZM202.95 42.61L201.54 36.95L196.32 35.40L192.51 39.52L193.92 45.18L199.14 46.73ZM214.40 30.26L212.99 24.59L207.77 23.04L203.95 27.16L205.36 32.83L210.58 34.38ZM180.66 30.76L179.25 25.10L174.03 23.56L170.23 27.68L171.64 33.34L176.85 34.88ZM171.64 33.34L170.23 27.68L165.01 26.14L161.20 30.26L162.61 35.92L167.83 37.46ZM183.07 20.98L181.66 15.31L176.43 13.77L172.62 17.89L174.03 23.56L179.25 25.10ZM174.03 23.56L172.62 17.89L167.40 16.35L163.60 20.47L165.01 26.14L170.23 27.68ZM187.29 37.97L185.88 32.31L180.66 30.76L176.85 34.88L178.26 40.55L183.48 42.09ZM178.26 40.55L176.85 34.88L171.64 33.34L167.83 37.46L169.24 43.12L174.46 44.67ZM189.70 28.19L188.29 22.52L183.07 20.98L179.25 25.10L180.66 30.76L185.88 32.31ZM202.35 79.16L200.95 73.50L195.73 71.95L191.92 76.06L193.33 81.72L198.54 83.27ZM193.33 81.72L191.92 76.06L186.71 74.51L182.91 78.63L184.31 84.28L189.52 85.83ZM204.76 69.38L203.35 63.72L198.14 62.17L194.33 66.29L195.73 71.95L200.95 73.50ZM195.73 71.95L194.33 66.29L189.11 64.74L185.30 68.85L186.71 74.51L191.92 76.06ZM208.97 86.37L207.57 80.71L202.35 79.16L198.54 83.27L199.95 88.93L205.16 90.48ZM199.95 88.93L198.54 83.27L193.33 81.72L189.52 85.83L190.93 91.49L196.14 93.04ZM211.38 76.60L209.98 70.93L204.76 69.38L200.95 73.50L202.35 79.16L207.57 80.71ZM177.69 77.08L176.29 71.42L171.07 69.88L167.27 73.99L168.68 79.65L173.89 81.19ZM168.68 79.65L167.27 73.99L162.06 72.45L158.26 76.56L159.67 82.22L164.88 83.76ZM180.09 67.31L178.68 61.65L173.47 60.10L169.66 64.22L171.07 69.88L176.29 71.42ZM171.07 69.88L169.66 64.22L164.45 62.68L160.65 66.79L162.06 72.45L167.27 73.99ZM184.31 84.28L182.91 78.63L177.69 77.08L173.89 81.19L175.30 86.85L180.51 88.39ZM175.30 86.85L173.89 81.19L168.68 79.65L164.88 83.76L166.29 89.41L171.50 90.96ZM186.71 74.51L185.30 68.85L180.09 67.31L176.29 71.42L177.69 77.08L182.91 78.63ZM216.20 57.04L214.80 51.38L209.58 49.83L205.76 53.94L207.17 59.61L212.38 61.16ZM207.17 59.61L205.76 53.94L200.54 52.40L196.73 56.51L198.14 62.17L203.35 63.72ZM218.61 47.26L217.21 41.59L211.99 40.04L208.17 44.16L209.58 49.83L214.80 51.38ZM209.58 49.83L208.17 44.16L202.95 42.61L199.14 46.73L200.54 52.40L205.76 53.94ZM222.82 64.26L221.42 58.60L216.20 57.04L212.38 61.16L213.79 66.82L219.01 68.37ZM213.79 66.82L212.38 61.16L207.17 59.61L203.35 63.72L204.76 69.38L209.98 70.93ZM225.24 54.48L223.83 48.81L218.61 47.26L214.80 51.38L216.20 57.04L221.42 58.60ZM264.52 -2.17L263.12 -7.85L257.89 -9.41L254.05 -5.29L255.45 0.39L260.69 1.95ZM255.45 0.39L254.05 -5.29L248.82 -6.84L244.99 -2.72L246.39 2.96L251.62 4.52ZM259.44 153.85L258.05 148.19L252.84 146.63L249.03 150.73L250.42 156.38L255.63 157.94ZM250.42 156.38L249.03 150.73L243.82 149.17L240.01 153.26L241.40 158.92L246.61 160.48ZM261.87 144.10L260.47 138.44L255.26 136.88L251.44 140.97L252.84 146.63L258.05 148.19ZM252.84 146.63L251.44 140.97L246.23 139.41L242.42 143.51L243.82 149.17L249.03 150.73ZM266.05 161.07L264.65 155.41L259.44 153.85L255.63 157.94L257.02 163.60L262.23 165.16ZM257.02 163.60L255.63 157.94L250.42 156.38L246.61 160.48L248.00 166.13L253.21 167.69ZM264.29 134.34L262.89 128.68L257.68 127.12L253.86 131.22L255.26 136.88L260.47 138.44ZM261.21 180.56L259.81 174.91L254.61 173.34L250.79 177.44L252.19 183.09L257.39 184.65ZM263.63 170.82L262.23 165.16L257.02 163.60L253.21 167.69L254.61 173.34L259.81 174.91ZM220.97 173.73L219.57 168.08L214.37 166.53L210.57 170.62L211.97 176.27L217.17 177.82ZM211.97 176.27L210.57 170.62L205.37 169.07L201.57 173.16L202.97 178.81L208.17 180.36ZM223.38 163.99L221.98 158.34L216.77 156.78L212.97 160.88L214.37 166.53L219.57 168.08ZM214.37 166.53L212.97 160.88L207.77 159.32L203.96 163.42L205.37 169.07L210.57 170.62ZM227.57 180.94L226.17 175.29L220.97 173.73L217.17 177.82L218.56 183.47L223.77 185.03ZM218.56 183.47L217.17 177.82L211.97 176.27L208.17 180.36L209.56 186.01L214.76 187.56ZM229.98 171.20L228.58 165.55L223.38 163.99L219.57 168.08L220.97 173.73L226.17 175.29ZM196.37 171.61L194.96 165.96L189.76 164.41L185.97 168.51L187.37 174.15L192.57 175.70ZM187.37 174.15L185.97 168.51L180.77 166.96L176.98 171.05L178.38 176.70L183.58 178.25ZM198.76 161.87L197.36 156.22L192.16 154.67L188.36 158.77L189.76 164.41L194.96 165.96ZM189.76 164.41L188.36 158.77L183.16 157.22L179.37 161.31L180.77 166.96L185.97 168.51ZM202.97 178.81L201.57 173.16L196.37 171.61L192.57 175.70L193.97 181.35L199.17 182.90ZM193.97 181.35L192.57 175.70L187.37 174.15L183.58 178.25L184.98 183.89L190.17 185.44ZM205.37 169.07L203.96 163.42L198.76 161.87L194.96 165.96L196.37 171.61L201.57 173.16ZM234.80 151.70L233.40 146.05L228.19 144.49L224.38 148.59L225.78 154.24L230.99 155.80ZM225.78 154.24L224.38 148.59L219.18 147.03L215.37 151.13L216.77 156.78L221.98 158.34ZM237.21 141.95L235.81 136.30L230.60 134.74L226.79 138.84L228.19 144.49L233.40 146.05ZM228.19 144.49L226.79 138.84L221.59 137.28L217.78 141.38L219.18 147.03L224.38 148.59ZM241.40 158.92L240.01 153.26L234.80 151.70L230.99 155.80L232.39 161.45L237.59 163.01ZM232.39 161.45L230.99 155.80L225.78 154.24L221.98 158.34L223.38 163.99L228.58 165.55ZM243.82 149.17L242.42 143.51L237.21 141.95L233.40 146.05L234.80 151.70L240.01 153.26ZM210.17 149.58L208.77 143.93L203.56 142.37L199.76 146.47L201.16 152.12L206.36 153.68ZM201.16 152.12L199.76 146.47L194.56 144.92L190.76 149.02L192.16 154.67L197.36 156.22ZM212.57 139.83L211.17 134.18L205.96 132.62L202.16 136.72L203.56 142.37L208.77 143.93ZM203.56 142.37L202.16 136.72L196.95 135.17L193.15 139.27L194.56 144.92L199.76 146.47ZM216.77 156.78L215.37 151.13L210.17 149.58L206.36 153.68L207.77 159.32L212.97 160.88ZM207.77 159.32L206.36 153.68L201.16 152.12L197.36 156.22L198.76 161.87L203.96 163.42ZM219.18 147.03L217.78 141.38L212.57 139.83L208.77 143.93L210.17 149.58L215.37 151.13ZM231.76 197.88L230.36 192.23L225.16 190.68L221.36 194.76L222.76 200.41L227.96 201.97ZM222.76 200.41L221.36 194.76L216.16 193.21L212.36 197.30L213.76 202.94L218.96 204.50ZM234.17 188.14L232.77 182.50L227.57 180.94L223.77 185.03L225.16 190.68L230.36 192.23ZM225.16 190.68L223.77 185.03L218.56 183.47L214.76 187.56L216.16 193.21L221.36 194.76ZM238.35 205.09L236.96 199.44L231.76 197.88L227.96 201.97L229.35 207.61L234.55 209.17ZM229.35 207.61L227.96 201.97L222.76 200.41L218.96 204.50L220.35 210.14L225.55 211.70ZM240.76 195.35L239.37 189.70L234.17 188.14L230.36 192.23L231.76 197.88L236.96 199.44ZM207.17 195.74L205.77 190.10L200.57 188.54L196.77 192.63L198.17 198.28L203.37 199.83ZM198.17 198.28L196.77 192.63L191.58 191.08L187.78 195.17L189.18 200.81L194.38 202.37ZM209.56 186.01L208.17 180.36L202.97 178.81L199.17 182.90L200.57 188.54L205.77 190.10ZM200.57 188.54L199.17 182.90L193.97 181.35L190.17 185.44L191.58 191.08L196.77 192.63ZM213.76 202.94L212.36 197.30L207.17 195.74L203.37 199.83L204.77 205.47L209.96 207.03ZM204.77 205.47L203.37 199.83L198.17 198.28L194.38 202.37L195.78 208.01L200.97 209.56ZM216.16 193.21L214.76 187.56L209.56 186.01L205.77 190.10L207.17 195.74L212.36 197.30ZM245.59 175.87L244.19 170.22L238.99 168.66L235.18 172.75L236.58 178.41L241.78 179.96ZM236.58 178.41L235.18 172.75L229.98 171.20L226.17 175.29L227.57 180.94L232.77 182.50ZM248.00 166.13L246.61 160.48L241.40 158.92L237.59 163.01L238.99 168.66L244.19 170.22ZM238.99 168.66L237.59 163.01L232.39 161.45L228.58 165.55L229.98 171.20L235.18 172.75ZM252.19 183.09L250.79 177.44L245.59 175.87L241.78 179.96L243.18 185.62L248.38 187.18ZM243.18 185.62L241.78 179.96L236.58 178.41L232.77 182.50L234.17 188.14L239.37 189.70ZM254.61 173.34L253.21 167.69L248.00 166.13L244.19 170.22L245.59 175.87L250.79 177.44ZM237.85 105.46L236.45 99.80L231.23 98.24L227.42 102.35L228.82 108.01L234.03 109.56ZM228.82 108.01L227.42 102.35L222.20 100.79L218.39 104.90L219.79 110.56L225.00 112.11ZM240.26 95.69L238.86 90.03L233.65 88.47L229.83 92.58L231.23 98.24L236.45 99.80ZM231.23 98.24L229.83 92.58L224.61 91.03L220.80 95.13L222.20 100.79L227.42 102.35ZM244.46 112.68L243.06 107.02L237.85 105.46L234.03 109.56L235.43 115.22L240.64 116.78ZM235.43 115.22L234.03 109.56L228.82 108.01L225.00 112.11L226.40 117.77L231.62 119.32ZM246.88 102.91L245.48 97.25L240.26 95.69L236.45 99.80L237.85 105.46L243.06 107.02ZM213.18 103.35L211.78 97.69L206.56 96.14L202.76 100.24L204.16 105.90L209.37 107.45ZM204.16 105.90L202.76 100.24L197.55 98.69L193.74 102.80L195.14 108.46L200.35 110.01ZM215.59 93.58L214.19 87.92L208.97 86.37L205.16 90.48L206.56 96.14L211.78 97.69ZM206.56 96.14L205.16 90.48L199.95 88.93L196.14 93.04L197.55 98.69L202.76 100.24ZM219.79 110.56L218.39 104.90L213.18 103.35L209.37 107.45L210.77 113.11L215.98 114.66ZM210.77 113.11L209.37 107.45L204.16 105.90L200.35 110.01L201.76 115.66L206.97 117.21ZM222.20 100.79L220.80 95.13L215.59 93.58L211.78 97.69L213.18 103.35L218.39 104.90ZM251.72 83.37L250.32 77.70L245.10 76.15L241.28 80.26L242.68 85.92L247.90 87.48ZM242.68 85.92L241.28 80.26L236.06 78.70L232.25 82.81L233.65 88.47L238.86 90.03ZM254.14 73.59L252.75 67.93L247.52 66.37L243.70 70.48L245.10 76.15L250.32 77.70ZM245.10 76.15L243.70 70.48L238.48 68.92L234.66 73.03L236.06 78.70L241.28 80.26ZM258.34 90.60L256.94 84.93L251.72 83.37L247.90 87.48L249.30 93.14L254.52 94.70ZM249.30 93.14L247.90 87.48L242.68 85.92L238.86 90.03L240.26 95.69L245.48 97.25ZM260.76 80.82L259.37 75.15L254.14 73.59L250.32 77.70L251.72 83.37L256.94 84.93ZM227.03 81.25L225.63 75.59L220.41 74.04L216.59 78.15L218.00 83.81L223.21 85.36ZM218.00 83.81L216.59 78.15L211.38 76.60L207.57 80.71L208.97 86.37L214.19 87.92ZM229.44 71.48L228.04 65.81L222.82 64.26L219.01 68.37L220.41 74.04L225.63 75.59ZM220.41 74.04L219.01 68.37L213.79 66.82L209.98 70.93L211.38 76.60L216.59 78.15ZM233.65 88.47L232.25 82.81L227.03 81.25L223.21 85.36L224.61 91.03L229.83 92.58ZM224.61 91.03L223.21 85.36L218.00 83.81L214.19 87.92L215.59 93.58L220.80 95.13ZM236.06 78.70L234.66 73.03L229.44 71.48L225.63 75.59L227.03 81.25L232.25 82.81ZM248.65 129.66L247.25 124.00L242.04 122.44L238.23 126.54L239.62 132.20L244.84 133.76ZM239.62 132.20L238.23 126.54L233.02 124.98L229.20 129.08L230.60 134.74L235.81 136.30ZM251.07 119.90L249.67 114.24L244.46 112.68L240.64 116.78L242.04 122.44L247.25 124.00ZM242.04 122.44L240.64 116.78L235.43 115.22L231.62 119.32L233.02 124.98L238.23 126.54ZM255.26 136.88L253.86 131.22L248.65 129.66L244.84 133.76L246.23 139.41L251.44 140.97ZM246.23 139.41L244.84 133.76L239.62 132.20L235.81 136.30L237.21 141.95L242.42 143.51ZM257.68 127.12L256.28 121.46L251.07 119.90L247.25 124.00L248.65 129.66L253.86 131.22ZM223.99 127.53L222.59 121.87L217.38 120.32L213.58 124.42L214.98 130.07L220.19 131.63ZM214.98 130.07L213.58 124.42L208.37 122.87L204.56 126.97L205.96 132.62L211.17 134.18ZM226.40 117.77L225.00 112.11L219.79 110.56L215.98 114.66L217.38 120.32L222.59 121.87ZM217.38 120.32L215.98 114.66L210.77 113.11L206.97 117.21L208.37 122.87L213.58 124.42ZM230.60 134.74L229.20 129.08L223.99 127.53L220.19 131.63L221.59 137.28L226.79 138.84ZM221.59 137.28L220.19 131.63L214.98 130.07L211.17 134.18L212.57 139.83L217.78 141.38ZM233.02 124.98L231.62 119.32L226.40 117.77L222.59 121.87L223.99 127.53L229.20 129.08ZM262.53 107.59L261.13 101.93L255.91 100.37L252.09 104.47L253.49 110.13L258.71 111.69ZM253.49 110.13L252.09 104.47L246.88 102.91L243.06 107.02L244.46 112.68L249.67 114.24ZM264.95 97.82L263.56 92.16L258.34 90.60L254.52 94.70L255.91 100.37L261.13 101.93ZM255.91 100.37L254.52 94.70L249.30 93.14L245.48 97.25L246.88 102.91L252.09 104.47ZM260.10 117.36L258.71 111.69L253.49 110.13L249.67 114.24L251.07 119.90L256.28 121.46ZM258.13 226.71L256.74 221.07L251.54 219.50L247.73 223.58L249.13 229.23L254.32 230.79ZM260.55 216.98L259.15 211.34L253.95 209.77L250.15 213.86L251.54 219.50L256.74 221.07ZM264.72 233.92L263.33 228.28L258.13 226.71L254.32 230.79L255.72 236.44L260.91 238.00ZM242.54 222.02L241.14 216.38L235.95 214.82L232.14 218.90L233.54 224.54L238.73 226.10ZM233.54 224.54L232.14 218.90L226.95 217.34L223.15 221.43L224.54 227.07L229.74 228.63ZM244.95 212.29L243.55 206.65L238.35 205.09L234.55 209.17L235.95 214.82L241.14 216.38ZM235.95 214.82L234.55 209.17L229.35 207.61L225.55 211.70L226.95 217.34L232.14 218.90ZM249.13 229.23L247.73 223.58L242.54 222.02L238.73 226.10L240.13 231.75L245.32 233.31ZM240.13 231.75L238.73 226.10L233.54 224.54L229.74 228.63L231.13 234.27L236.33 235.83ZM251.54 219.50L250.15 213.86L244.95 212.29L241.14 216.38L242.54 222.02L247.73 223.58ZM256.37 200.04L254.98 194.39L249.77 192.83L245.97 196.91L247.36 202.56L252.56 204.12ZM247.36 202.56L245.97 196.91L240.76 195.35L236.96 199.44L238.35 205.09L243.55 206.65ZM258.79 190.30L257.39 184.65L252.19 183.09L248.38 187.18L249.77 192.83L254.98 194.39ZM249.77 192.83L248.38 187.18L243.18 185.62L239.37 189.70L240.76 195.35L245.97 196.91ZM262.96 207.25L261.57 201.60L256.37 200.04L252.56 204.12L253.95 209.77L259.15 211.34ZM253.95 209.77L252.56 204.12L247.36 202.56L243.55 206.65L244.95 212.29L250.15 213.86ZM265.38 197.52L263.99 191.86L258.79 190.30L254.98 194.39L256.37 200.04L261.57 201.60ZM253.30 246.16L251.91 240.52L246.72 238.95L242.91 243.03L244.31 248.67L249.50 250.24ZM244.31 248.67L242.91 243.03L237.72 241.47L233.92 245.55L235.31 251.19L240.51 252.75ZM255.72 236.44L254.32 230.79L249.13 229.23L245.32 233.31L246.72 238.95L251.91 240.52ZM246.72 238.95L245.32 233.31L240.13 231.75L236.33 235.83L237.72 241.47L242.91 243.03ZM259.89 253.37L258.50 247.72L253.30 246.16L249.50 250.24L250.89 255.88L256.09 257.44ZM250.89 255.88L249.50 250.24L244.31 248.67L240.51 252.75L241.90 258.39L247.09 259.95ZM262.30 243.65L260.91 238.00L255.72 236.44L251.91 240.52L253.30 246.16L258.50 247.72ZM84.42 12.92L82.99 7.26L77.78 5.74L74.00 9.86L75.42 15.52L80.63 17.04ZM88.68 29.88L87.26 24.22L82.05 22.70L78.26 26.82L79.69 32.47L84.89 34.00ZM91.05 20.10L89.63 14.44L84.42 12.92L80.63 17.04L82.05 22.70L87.26 24.22ZM57.44 20.73L56.01 15.08L50.81 13.56L47.03 17.69L48.45 23.33L53.66 24.86ZM64.07 27.90L62.64 22.25L57.44 20.73L53.66 24.86L55.08 30.50L60.29 32.03ZM55.08 30.50L53.66 24.86L48.45 23.33L44.68 27.46L46.10 33.11L51.30 34.63ZM102.42 7.71L101.00 2.06L95.79 0.53L92.00 4.66L93.42 10.31L98.63 11.84ZM93.42 10.31L92.00 4.66L86.78 3.13L82.99 7.26L84.42 12.92L89.63 14.44ZM92.94 46.83L91.52 41.18L86.31 39.65L82.53 43.78L83.95 49.43L89.15 50.95ZM83.95 49.43L82.53 43.78L77.32 42.25L73.54 46.37L74.96 52.02L80.16 53.55ZM95.31 37.06L93.89 31.40L88.68 29.88L84.89 34.00L86.31 39.65L91.52 41.18ZM86.31 39.65L84.89 34.00L79.69 32.47L75.90 36.60L77.32 42.25L82.53 43.78ZM99.56 54.01L98.15 48.36L92.94 46.83L89.15 50.95L90.57 56.60L95.78 58.13ZM90.57 56.60L89.15 50.95L83.95 49.43L80.16 53.55L81.59 59.19L86.79 60.72ZM101.93 44.24L100.52 38.59L95.31 37.06L91.52 41.18L92.94 46.83L98.15 48.36ZM74.96 52.02L73.54 46.37L68.34 44.85L64.56 48.97L65.98 54.62L71.18 56.14ZM77.32 42.25L75.90 36.60L70.70 35.07L66.91 39.20L68.34 44.85L73.54 46.37ZM106.68 24.68L105.26 19.03L100.05 17.50L96.26 21.63L97.68 27.28L102.89 28.81ZM97.68 27.28L96.26 21.63L91.05 20.10L87.26 24.22L88.68 29.88L93.89 31.40ZM109.05 14.90L107.63 9.24L102.42 7.71L98.63 11.84L100.05 17.50L105.26 19.03ZM100.05 17.50L98.63 11.84L93.42 10.31L89.63 14.44L91.05 20.10L96.26 21.63ZM113.31 31.87L111.89 26.22L106.68 24.68L102.89 28.81L104.31 34.46L109.51 36.00ZM104.31 34.46L102.89 28.81L97.68 27.28L93.89 31.40L95.31 37.06L100.52 38.59ZM115.68 22.09L114.27 16.43L109.05 14.90L105.26 19.03L106.68 24.68L111.89 26.22ZM32.43 55.25L31.01 49.61L25.81 48.09L22.04 52.21L23.47 57.86L28.66 59.37ZM39.06 62.41L37.63 56.77L32.43 55.25L28.66 59.37L30.09 65.01L35.28 66.53ZM41.40 52.65L39.98 47.00L34.78 45.48L31.01 49.61L32.43 55.25L37.63 56.77ZM32.72 227.30L31.30 221.68L26.13 220.16L22.38 224.25L23.80 229.86L28.97 231.39ZM35.06 217.59L33.64 211.97L28.46 210.45L24.71 214.54L26.13 220.16L31.30 221.68ZM26.13 220.16L24.71 214.54L19.54 213.02L15.79 217.11L17.21 222.72L22.38 224.25ZM41.65 224.73L40.23 219.11L35.06 217.59L31.30 221.68L32.72 227.30L37.89 228.82ZM8.30 225.29L6.88 219.68L1.71 218.16L-2.04 222.25L-0.61 227.87L4.55 229.39ZM10.62 215.59L9.20 209.97L4.03 208.45L0.28 212.55L1.71 218.16L6.88 219.68ZM14.89 232.43L13.47 226.82L8.30 225.29L4.55 229.39L5.97 235.00L11.14 236.52ZM5.97 235.00L4.55 229.39L-0.61 227.87L-4.36 231.96L-2.93 237.57L2.23 239.09ZM17.21 222.72L15.79 217.11L10.62 215.59L6.88 219.68L8.30 225.29L13.47 226.82ZM46.32 205.31L44.90 199.69L39.73 198.16L35.97 202.26L37.39 207.88L42.57 209.40ZM37.39 207.88L35.97 202.26L30.80 200.73L27.04 204.83L28.46 210.45L33.64 211.97ZM48.66 195.59L47.24 189.97L42.07 188.44L38.31 192.54L39.73 198.16L44.90 199.69ZM39.73 198.16L38.31 192.54L33.13 191.02L29.38 195.11L30.80 200.73L35.97 202.26ZM43.98 215.02L42.57 209.40L37.39 207.88L33.64 211.97L35.06 217.59L40.23 219.11ZM55.26 202.74L53.84 197.12L48.66 195.59L44.90 199.69L46.32 205.31L51.50 206.84ZM21.87 203.31L20.45 197.69L15.28 196.17L11.53 200.26L12.95 205.88L18.12 207.40ZM12.95 205.88L11.53 200.26L6.35 198.74L2.61 202.84L4.03 208.45L9.20 209.97ZM24.20 193.59L22.78 187.97L17.61 186.45L13.85 190.55L15.28 196.17L20.45 197.69ZM28.46 210.45L27.04 204.83L21.87 203.31L18.12 207.40L19.54 213.02L24.71 214.54ZM19.54 213.02L18.12 207.40L12.95 205.88L9.20 209.97L10.62 215.59L15.79 217.11ZM30.80 200.73L29.38 195.11L24.20 193.59L20.45 197.69L21.87 203.31L27.04 204.83ZM10.24 251.83L8.82 246.22L3.65 244.70L-0.09 248.78L1.33 254.39L6.50 255.91ZM12.56 242.13L11.14 236.52L5.97 235.00L2.23 239.09L3.65 244.70L8.82 246.22ZM1.33 254.39L-0.09 248.78L-5.25 247.26L-8.99 251.35L-7.57 256.96L-2.41 258.48ZM3.65 244.70L2.23 239.09L-2.93 237.57L-6.68 241.66L-5.25 247.26L-0.09 248.78ZM92.45 255.38L91.04 249.76L85.86 248.22L82.10 252.30L83.51 257.92L88.69 259.46ZM83.51 257.92L82.10 252.30L76.93 250.77L73.17 254.85L74.58 260.47L79.75 262.00ZM94.80 245.67L93.39 240.05L88.21 238.51L84.45 242.60L85.86 248.22L91.04 249.76ZM85.86 248.22L84.45 242.60L79.28 241.07L75.52 245.15L76.93 250.77L82.10 252.30ZM99.03 262.53L97.62 256.91L92.45 255.38L88.69 259.46L90.10 265.08L95.27 266.61ZM101.39 252.83L99.98 247.21L94.80 245.67L91.04 249.76L92.45 255.38L97.62 256.91ZM111.81 141.26L110.40 135.62L105.21 134.09L101.43 138.19L102.84 143.83L108.03 145.37ZM102.84 143.83L101.43 138.19L96.23 136.66L92.46 140.77L93.87 146.40L99.06 147.93ZM114.18 131.52L112.77 125.88L107.57 124.34L103.79 128.45L105.21 134.09L110.40 135.62ZM105.21 134.09L103.79 128.45L98.60 126.92L94.82 131.02L96.23 136.66L101.43 138.19ZM118.42 148.44L117.01 142.80L111.81 141.26L108.03 145.37L109.45 151.00L114.64 152.54ZM109.45 151.00L108.03 145.37L102.84 143.83L99.06 147.93L100.48 153.57L105.67 155.11ZM120.79 138.70L119.38 133.06L114.18 131.52L110.40 135.62L111.81 141.26L117.01 142.80ZM87.27 139.23L85.85 133.60L80.66 132.07L76.89 136.17L78.30 141.81L83.49 143.34ZM78.30 141.81L76.89 136.17L71.70 134.64L67.92 138.75L69.34 144.38L74.53 145.91ZM89.63 129.49L88.21 123.85L83.02 122.32L79.24 126.43L80.66 132.07L85.85 133.60ZM80.66 132.07L79.24 126.43L74.05 124.90L70.28 129.01L71.70 134.64L76.89 136.17ZM93.87 146.40L92.46 140.77L87.27 139.23L83.49 143.34L84.91 148.97L90.10 150.50ZM84.91 148.97L83.49 143.34L78.30 141.81L74.53 145.91L75.95 151.54L81.14 153.07ZM96.23 136.66L94.82 131.02L89.63 129.49L85.85 133.60L87.27 139.23L92.46 140.77ZM125.54 119.20L124.12 113.56L118.92 112.02L115.14 116.13L116.55 121.77L121.75 123.31ZM116.55 121.77L115.14 116.13L109.94 114.59L106.16 118.70L107.57 124.34L112.77 125.88ZM127.91 109.45L126.50 103.80L121.30 102.27L117.51 106.38L118.92 112.02L124.12 113.56ZM118.92 112.02L117.51 106.38L112.31 104.84L108.53 108.95L109.94 114.59L115.14 116.13ZM132.15 126.39L130.73 120.74L125.54 119.20L121.75 123.31L123.16 128.95L128.36 130.49ZM123.16 128.95L121.75 123.31L116.55 121.77L112.77 125.88L114.18 131.52L119.38 133.06ZM134.52 116.63L133.11 110.99L127.91 109.45L124.12 113.56L125.54 119.20L130.73 120.74ZM100.96 117.17L99.55 111.53L94.35 109.99L90.57 114.10L91.99 119.74L97.18 121.28ZM91.99 119.74L90.57 114.10L85.38 112.57L81.60 116.68L83.02 122.32L88.21 123.85ZM103.33 107.42L101.91 101.77L96.71 100.24L92.93 104.35L94.35 109.99L99.55 111.53ZM94.35 109.99L92.93 104.35L87.74 102.82L83.96 106.93L85.38 112.57L90.57 114.10ZM107.57 124.34L106.16 118.70L100.96 117.17L97.18 121.28L98.60 126.92L103.79 128.45ZM98.60 126.92L97.18 121.28L91.99 119.74L88.21 123.85L89.63 129.49L94.82 131.02ZM109.94 114.59L108.53 108.95L103.33 107.42L99.55 111.53L100.96 117.17L106.16 118.70ZM122.65 165.35L121.24 159.72L116.05 158.18L112.27 162.28L113.68 167.91L118.87 169.45ZM113.68 167.91L112.27 162.28L107.08 160.74L103.30 164.84L104.72 170.48L109.91 172.01ZM125.02 155.62L123.61 149.98L118.42 148.44L114.64 152.54L116.05 158.18L121.24 159.72ZM116.05 158.18L114.64 152.54L109.45 151.00L105.67 155.11L107.08 160.74L112.27 162.28ZM129.25 172.53L127.85 166.89L122.65 165.35L118.87 169.45L120.28 175.09L125.47 176.63ZM120.28 175.09L118.87 169.45L113.68 167.91L109.91 172.01L111.32 177.65L116.51 179.18ZM131.63 162.80L130.22 157.16L125.02 155.62L121.24 159.72L122.65 165.35L127.85 166.89ZM98.12 163.31L96.70 157.67L91.51 156.14L87.74 160.24L89.15 165.87L94.34 167.41ZM89.15 165.87L87.74 160.24L82.55 158.71L78.78 162.81L80.20 168.44L85.38 169.97ZM100.48 153.57L99.06 147.93L93.87 146.40L90.10 150.50L91.51 156.14L96.70 157.67ZM91.51 156.14L90.10 150.50L84.91 148.97L81.14 153.07L82.55 158.71L87.74 160.24ZM104.72 170.48L103.30 164.84L98.12 163.31L94.34 167.41L95.76 173.04L100.94 174.57ZM95.76 173.04L94.34 167.41L89.15 165.87L85.38 169.97L86.80 175.60L91.98 177.14ZM107.08 160.74L105.67 155.11L100.48 153.57L96.70 157.67L98.12 163.31L103.30 164.84ZM136.38 143.31L134.97 137.67L129.77 136.13L125.99 140.24L127.40 145.88L132.59 147.42ZM127.40 145.88L125.99 140.24L120.79 138.70L117.01 142.80L118.42 148.44L123.61 149.98ZM138.75 133.57L137.34 127.92L132.15 126.39L128.36 130.49L129.77 136.13L134.97 137.67ZM129.77 136.13L128.36 130.49L123.16 128.95L119.38 133.06L120.79 138.70L125.99 140.24ZM142.98 150.50L141.57 144.86L136.38 143.31L132.59 147.42L134.00 153.06L139.20 154.60ZM134.00 153.06L132.59 147.42L127.40 145.88L123.61 149.98L125.02 155.62L130.22 157.16ZM145.36 140.75L143.95 135.11L138.75 133.57L134.97 137.67L136.38 143.31L141.57 144.86ZM49.09 159.27L47.67 153.64L42.49 152.11L38.72 156.22L40.15 161.85L45.33 163.37ZM40.15 161.85L38.72 156.22L33.54 154.70L29.78 158.80L31.21 164.42L36.39 165.95ZM51.43 149.54L50.01 143.91L44.83 142.38L41.07 146.49L42.49 152.11L47.67 153.64ZM42.49 152.11L41.07 146.49L35.88 144.96L32.12 149.07L33.54 154.70L38.72 156.22ZM55.69 166.42L54.27 160.79L49.09 159.27L45.33 163.37L46.75 169.00L51.93 170.52ZM46.75 169.00L45.33 163.37L40.15 161.85L36.39 165.95L37.81 171.57L42.99 173.10ZM58.04 156.69L56.62 151.06L51.43 149.54L47.67 153.64L49.09 159.27L54.27 160.79ZM24.60 157.28L23.18 151.65L18.00 150.13L14.24 154.24L15.67 159.86L20.85 161.38ZM26.94 147.55L25.51 141.92L20.33 140.40L16.57 144.50L18.00 150.13L23.18 151.65ZM31.21 164.42L29.78 158.80L24.60 157.28L20.85 161.38L22.27 167.00L27.45 168.53ZM33.54 154.70L32.12 149.07L26.94 147.55L23.18 151.65L24.60 157.28L29.78 158.80ZM62.74 137.22L61.32 131.59L56.13 130.06L52.36 134.17L53.78 139.80L58.97 141.33ZM53.78 139.80L52.36 134.17L47.17 132.64L43.41 136.75L44.83 142.38L50.01 143.91ZM65.09 127.48L63.67 121.84L58.48 120.32L54.71 124.43L56.13 130.06L61.32 131.59ZM56.13 130.06L54.71 124.43L49.52 122.90L45.75 127.01L47.17 132.64L52.36 134.17ZM69.34 144.38L67.92 138.75L62.74 137.22L58.97 141.33L60.39 146.96L65.57 148.49ZM60.39 146.96L58.97 141.33L53.78 139.80L50.01 143.91L51.43 149.54L56.62 151.06ZM71.70 134.64L70.28 129.01L65.09 127.48L61.32 131.59L62.74 137.22L67.92 138.75ZM38.22 135.23L36.80 129.60L31.61 128.07L27.85 132.18L29.28 137.81L34.46 139.33ZM40.56 125.49L39.14 119.85L33.95 118.33L30.19 122.44L31.61 128.07L36.80 129.60ZM44.83 142.38L43.41 136.75L38.22 135.23L34.46 139.33L35.88 144.96L41.07 146.49ZM35.88 144.96L34.46 139.33L29.28 137.81L25.51 141.92L26.94 147.55L32.12 149.07ZM47.17 132.64L45.75 127.01L40.56 125.49L36.80 129.60L38.22 135.23L43.41 136.75ZM59.95 183.30L58.53 177.68L53.35 176.15L49.59 180.25L51.00 185.87L56.18 187.40ZM51.00 185.87L49.59 180.25L44.41 178.72L40.65 182.82L42.07 188.44L47.24 189.97ZM62.29 173.58L60.88 167.95L55.69 166.42L51.93 170.52L53.35 176.15L58.53 177.68ZM53.35 176.15L51.93 170.52L46.75 169.00L42.99 173.10L44.41 178.72L49.59 180.25ZM66.54 190.46L65.13 184.83L59.95 183.30L56.18 187.40L57.60 193.03L62.78 194.55ZM57.60 193.03L56.18 187.40L51.00 185.87L47.24 189.97L48.66 195.59L53.84 197.12ZM68.89 180.74L67.48 175.11L62.29 173.58L58.53 177.68L59.95 183.30L65.13 184.83ZM35.47 181.30L34.05 175.67L28.87 174.15L25.11 178.25L26.54 183.87L31.71 185.39ZM26.54 183.87L25.11 178.25L19.94 176.73L16.18 180.83L17.61 186.45L22.78 187.97ZM37.81 171.57L36.39 165.95L31.21 164.42L27.45 168.53L28.87 174.15L34.05 175.67ZM28.87 174.15L27.45 168.53L22.27 167.00L18.51 171.11L19.94 176.73L25.11 178.25ZM42.07 188.44L40.65 182.82L35.47 181.30L31.71 185.39L33.13 191.02L38.31 192.54ZM33.13 191.02L31.71 185.39L26.54 183.87L22.78 187.97L24.20 193.59L29.38 195.11ZM44.41 178.72L42.99 173.10L37.81 171.57L34.05 175.67L35.47 181.30L40.65 182.82ZM73.59 161.28L72.18 155.65L66.99 154.12L63.22 158.22L64.64 163.85L69.83 165.38ZM64.64 163.85L63.22 158.22L58.04 156.69L54.27 160.79L55.69 166.42L60.88 167.95ZM75.95 151.54L74.53 145.91L69.34 144.38L65.57 148.49L66.99 154.12L72.18 155.65ZM66.99 154.12L65.57 148.49L60.39 146.96L56.62 151.06L58.04 156.69L63.22 158.22ZM80.20 168.44L78.78 162.81L73.59 161.28L69.83 165.38L71.24 171.01L76.43 172.54ZM71.24 171.01L69.83 165.38L64.64 163.85L60.88 167.95L62.29 173.58L67.48 175.11ZM82.55 158.71L81.14 153.07L75.95 151.54L72.18 155.65L73.59 161.28L78.78 162.81ZM128.43 72.98L127.01 67.33L121.80 65.79L118.01 69.91L119.43 75.56L124.63 77.10ZM119.43 75.56L118.01 69.91L112.81 68.38L109.02 72.49L110.44 78.14L115.64 79.68ZM130.80 63.21L129.39 57.56L124.18 56.02L120.39 60.14L121.80 65.79L127.01 67.33ZM121.80 65.79L120.39 60.14L115.18 58.61L111.39 62.73L112.81 68.38L118.01 69.91ZM135.04 80.17L133.63 74.52L128.43 72.98L124.63 77.10L126.05 82.75L131.25 84.28ZM126.05 82.75L124.63 77.10L119.43 75.56L115.64 79.68L117.05 85.32L122.26 86.86ZM137.43 70.40L136.01 64.75L130.80 63.21L127.01 67.33L128.43 72.98L133.63 74.52ZM103.82 70.96L102.40 65.31L97.19 63.78L93.41 67.90L94.83 73.55L100.03 75.08ZM94.83 73.55L93.41 67.90L88.21 66.37L84.42 70.49L85.84 76.13L91.04 77.66ZM97.19 63.78L95.78 58.13L90.57 56.60L86.79 60.72L88.21 66.37L93.41 67.90ZM110.44 78.14L109.02 72.49L103.82 70.96L100.03 75.08L101.45 80.72L106.65 82.26ZM101.45 80.72L100.03 75.08L94.83 73.55L91.04 77.66L92.46 83.31L97.66 84.84ZM142.19 50.86L140.78 45.20L135.57 43.67L131.77 47.79L133.19 53.44L138.40 54.98ZM133.19 53.44L131.77 47.79L126.56 46.25L122.77 50.37L124.18 56.02L129.39 57.56ZM144.58 41.08L143.17 35.42L137.95 33.89L134.15 38.01L135.57 43.67L140.78 45.20ZM135.57 43.67L134.15 38.01L128.94 36.47L125.15 40.59L126.56 46.25L131.77 47.79ZM148.82 58.05L147.40 52.40L142.19 50.86L138.40 54.98L139.81 60.63L145.02 62.17ZM139.81 60.63L138.40 54.98L133.19 53.44L129.39 57.56L130.80 63.21L136.01 64.75ZM151.20 48.28L149.79 42.62L144.58 41.08L140.78 45.20L142.19 50.86L147.40 52.40ZM117.56 48.84L116.14 43.18L110.93 41.65L107.14 45.77L108.56 51.42L113.77 52.96ZM108.56 51.42L107.14 45.77L101.93 44.24L98.15 48.36L99.56 54.01L104.77 55.54ZM119.93 39.06L118.52 33.40L113.31 31.87L109.51 36.00L110.93 41.65L116.14 43.18ZM110.93 41.65L109.51 36.00L104.31 34.46L100.52 38.59L101.93 44.24L107.14 45.77ZM124.18 56.02L122.77 50.37L117.56 48.84L113.77 52.96L115.18 58.61L120.39 60.14ZM115.18 58.61L113.77 52.96L108.56 51.42L104.77 55.54L106.19 61.19L111.39 62.73ZM126.56 46.25L125.15 40.59L119.93 39.06L116.14 43.18L117.56 48.84L122.77 50.37ZM139.28 97.12L137.87 91.47L132.67 89.93L128.87 94.05L130.29 99.69L135.49 101.23ZM130.29 99.69L128.87 94.05L123.67 92.51L119.88 96.62L121.30 102.27L126.50 103.80ZM141.66 87.36L140.25 81.71L135.04 80.17L131.25 84.28L132.67 89.93L137.87 91.47ZM132.67 89.93L131.25 84.28L126.05 82.75L122.26 86.86L123.67 92.51L128.87 94.05ZM145.90 104.31L144.49 98.66L139.28 97.12L135.49 101.23L136.90 106.88L142.10 108.42ZM136.90 106.88L135.49 101.23L130.29 99.69L126.50 103.80L127.91 109.45L133.11 110.99ZM148.28 94.55L146.87 88.90L141.66 87.36L137.87 91.47L139.28 97.12L144.49 98.66ZM114.68 95.08L113.27 89.44L108.07 87.90L104.28 92.02L105.70 97.66L110.90 99.20ZM105.70 97.66L104.28 92.02L99.08 90.48L95.30 94.60L96.71 100.24L101.91 101.77ZM108.07 87.90L106.65 82.26L101.45 80.72L97.66 84.84L99.08 90.48L104.28 92.02ZM121.30 102.27L119.88 96.62L114.68 95.08L110.90 99.20L112.31 104.84L117.51 106.38ZM112.31 104.84L110.90 99.20L105.70 97.66L101.91 101.77L103.33 107.42L108.53 108.95ZM123.67 92.51L122.26 86.86L117.05 85.32L113.27 89.44L114.68 95.08L119.88 96.62ZM153.05 75.02L151.64 69.37L146.43 67.83L142.63 71.94L144.05 77.60L149.25 79.14ZM144.05 77.60L142.63 71.94L137.43 70.40L133.63 74.52L135.04 80.17L140.25 81.71ZM155.44 65.25L154.03 59.59L148.82 58.05L145.02 62.17L146.43 67.83L151.64 69.37ZM146.43 67.83L145.02 62.17L139.81 60.63L136.01 64.75L137.43 70.40L142.63 71.94ZM159.67 82.22L158.26 76.56L153.05 75.02L149.25 79.14L150.66 84.79L155.87 86.33ZM150.66 84.79L149.25 79.14L144.05 77.60L140.25 81.71L141.66 87.36L146.87 88.90ZM162.06 72.45L160.65 66.79L155.44 65.25L151.64 69.37L153.05 75.02L158.26 76.56ZM65.53 91.07L64.11 85.43L58.92 83.90L55.14 88.02L56.56 93.66L61.76 95.18ZM56.56 93.66L55.14 88.02L49.95 86.49L46.18 90.61L47.60 96.25L52.79 97.77ZM67.89 81.31L66.47 75.67L61.27 74.14L57.49 78.26L58.92 83.90L64.11 85.43ZM58.92 83.90L57.49 78.26L52.30 76.74L48.52 80.85L49.95 86.49L55.14 88.02ZM72.15 98.24L70.73 92.59L65.53 91.07L61.76 95.18L63.18 100.82L68.37 102.35ZM63.18 100.82L61.76 95.18L56.56 93.66L52.79 97.77L54.21 103.41L59.41 104.93ZM74.51 88.48L73.09 82.84L67.89 81.31L64.11 85.43L65.53 91.07L70.73 92.59ZM40.98 89.09L39.56 83.45L34.37 81.93L30.60 86.05L32.02 91.68L37.21 93.20ZM43.33 79.33L41.90 73.69L36.71 72.17L32.94 76.29L34.37 81.93L39.56 83.45ZM47.60 96.25L46.18 90.61L40.98 89.09L37.21 93.20L38.64 98.84L43.83 100.36ZM38.64 98.84L37.21 93.20L32.02 91.68L28.26 95.80L29.68 101.43L34.87 102.95ZM49.95 86.49L48.52 80.85L43.33 79.33L39.56 83.45L40.98 89.09L46.18 90.61ZM79.22 68.96L77.80 63.31L72.60 61.79L68.82 65.91L70.24 71.55L75.44 73.08ZM70.24 71.55L68.82 65.91L63.62 64.38L59.85 68.50L61.27 74.14L66.47 75.67ZM81.59 59.19L80.16 53.55L74.96 52.02L71.18 56.14L72.60 61.79L77.80 63.31ZM72.60 61.79L71.18 56.14L65.98 54.62L62.20 58.74L63.62 64.38L68.82 65.91ZM85.84 76.13L84.42 70.49L79.22 68.96L75.44 73.08L76.86 78.72L82.06 80.25ZM76.86 78.72L75.44 73.08L70.24 71.55L66.47 75.67L67.89 81.31L73.09 82.84ZM88.21 66.37L86.79 60.72L81.59 59.19L77.80 63.31L79.22 68.96L84.42 70.49ZM54.65 66.98L53.22 61.33L48.03 59.81L44.25 63.93L45.68 69.57L50.87 71.10ZM45.68 69.57L44.25 63.93L39.06 62.41L35.28 66.53L36.71 72.17L41.90 73.69ZM48.03 59.81L46.60 54.17L41.40 52.65L37.63 56.77L39.06 62.41L44.25 63.93ZM61.27 74.14L59.85 68.50L54.65 66.98L50.87 71.10L52.30 76.74L57.49 78.26ZM52.30 76.74L50.87 71.10L45.68 69.57L41.90 73.69L43.33 79.33L48.52 80.85ZM76.41 115.15L74.99 109.51L69.79 107.99L66.02 112.10L67.44 117.73L72.63 119.26ZM67.44 117.73L66.02 112.10L60.83 110.57L57.06 114.68L58.48 120.32L63.67 121.84ZM78.76 105.40L77.34 99.76L72.15 98.24L68.37 102.35L69.79 107.99L74.99 109.51ZM69.79 107.99L68.37 102.35L63.18 100.82L59.41 104.93L60.83 110.57L66.02 112.10ZM83.02 122.32L81.60 116.68L76.41 115.15L72.63 119.26L74.05 124.90L79.24 126.43ZM74.05 124.90L72.63 119.26L67.44 117.73L63.67 121.84L65.09 127.48L70.28 129.01ZM85.38 112.57L83.96 106.93L78.76 105.40L74.99 109.51L76.41 115.15L81.60 116.68ZM51.87 113.16L50.44 107.52L45.25 106.00L41.48 110.11L42.91 115.74L48.10 117.27ZM42.91 115.74L41.48 110.11L36.30 108.59L32.53 112.70L33.95 118.33L39.14 119.85ZM54.21 103.41L52.79 97.77L47.60 96.25L43.83 100.36L45.25 106.00L50.44 107.52ZM45.25 106.00L43.83 100.36L38.64 98.84L34.87 102.95L36.30 108.59L41.48 110.11ZM58.48 120.32L57.06 114.68L51.87 113.16L48.10 117.27L49.52 122.90L54.71 124.43ZM49.52 122.90L48.10 117.27L42.91 115.74L39.14 119.85L40.56 125.49L45.75 127.01ZM60.83 110.57L59.41 104.93L54.21 103.41L50.44 107.52L51.87 113.16L57.06 114.68ZM90.10 93.07L88.68 87.42L83.48 85.89L79.70 90.01L81.12 95.65L86.32 97.18ZM81.12 95.65L79.70 90.01L74.51 88.48L70.73 92.59L72.15 98.24L77.34 99.76ZM92.46 83.31L91.04 77.66L85.84 76.13L82.06 80.25L83.48 85.89L88.68 87.42ZM83.48 85.89L82.06 80.25L76.86 78.72L73.09 82.84L74.51 88.48L79.70 90.01ZM96.71 100.24L95.30 94.60L90.10 93.07L86.32 97.18L87.74 102.82L92.93 104.35ZM87.74 102.82L86.32 97.18L81.12 95.65L77.34 99.76L78.76 105.40L83.96 106.93ZM99.08 90.48L97.66 84.84L92.46 83.31L88.68 87.42L90.10 93.07L95.30 94.60ZM158.03 191.52L156.62 185.88L151.43 184.34L147.64 188.43L149.05 194.07L154.24 195.61ZM149.05 194.07L147.64 188.43L142.45 186.89L138.67 190.98L140.08 196.62L145.27 198.16ZM160.41 181.79L159.00 176.15L153.81 174.60L150.02 178.70L151.43 184.34L156.62 185.88ZM151.43 184.34L150.02 178.70L144.83 177.16L141.05 181.25L142.45 186.89L147.64 188.43ZM164.62 198.70L163.22 193.07L158.03 191.52L154.24 195.61L155.65 201.25L160.84 202.79ZM155.65 201.25L154.24 195.61L149.05 194.07L145.27 198.16L146.67 203.79L151.86 205.34ZM167.01 188.98L165.60 183.34L160.41 181.79L156.62 185.88L158.03 191.52L163.22 193.07ZM133.48 189.44L132.07 183.80L126.88 182.26L123.10 186.36L124.51 191.99L129.70 193.53ZM124.51 191.99L123.10 186.36L117.92 184.82L114.14 188.91L115.55 194.54L120.74 196.08ZM135.85 179.71L134.45 174.07L129.25 172.53L125.47 176.63L126.88 182.26L132.07 183.80ZM126.88 182.26L125.47 176.63L120.28 175.09L116.51 179.18L117.92 184.82L123.10 186.36ZM140.08 196.62L138.67 190.98L133.48 189.44L129.70 193.53L131.11 199.16L136.30 200.71ZM131.11 199.16L129.70 193.53L124.51 191.99L120.74 196.08L122.15 201.72L127.33 203.26ZM142.45 186.89L141.05 181.25L135.85 179.71L132.07 183.80L133.48 189.44L138.67 190.98ZM171.78 169.51L170.37 163.86L165.18 162.32L161.39 166.41L162.79 172.05L167.99 173.60ZM162.79 172.05L161.39 166.41L156.19 164.87L152.40 168.96L153.81 174.60L159.00 176.15ZM174.17 159.77L172.76 154.12L167.56 152.57L163.77 156.67L165.18 162.32L170.37 163.86ZM165.18 162.32L163.77 156.67L158.57 155.13L154.78 159.23L156.19 164.87L161.39 166.41ZM178.38 176.70L176.98 171.05L171.78 169.51L167.99 173.60L169.39 179.24L174.59 180.79ZM169.39 179.24L167.99 173.60L162.79 172.05L159.00 176.15L160.41 181.79L165.60 183.34ZM180.77 166.96L179.37 161.31L174.17 159.77L170.37 163.86L171.78 169.51L176.98 171.05ZM147.21 167.42L145.80 161.78L140.61 160.24L136.82 164.34L138.23 169.97L143.42 171.52ZM138.23 169.97L136.82 164.34L131.63 162.80L127.85 166.89L129.25 172.53L134.45 174.07ZM149.59 157.68L148.18 152.04L142.98 150.50L139.20 154.60L140.61 160.24L145.80 161.78ZM140.61 160.24L139.20 154.60L134.00 153.06L130.22 157.16L131.63 162.80L136.82 164.34ZM153.81 174.60L152.40 168.96L147.21 167.42L143.42 171.52L144.83 177.16L150.02 178.70ZM144.83 177.16L143.42 171.52L138.23 169.97L134.45 174.07L135.85 179.71L141.05 181.25ZM156.19 164.87L154.78 159.23L149.59 157.68L145.80 161.78L147.21 167.42L152.40 168.96ZM168.83 215.61L167.43 209.98L162.24 208.43L158.46 212.52L159.86 218.15L165.05 219.70ZM159.86 218.15L158.46 212.52L153.27 210.97L149.49 215.06L150.89 220.69L156.08 222.24ZM171.22 205.89L169.81 200.25L164.62 198.70L160.84 202.79L162.24 208.43L167.43 209.98ZM162.24 208.43L160.84 202.79L155.65 201.25L151.86 205.34L153.27 210.97L158.46 212.52ZM175.42 222.80L174.02 217.16L168.83 215.61L165.05 219.70L166.45 225.34L171.64 226.88ZM166.45 225.34L165.05 219.70L159.86 218.15L156.08 222.24L157.48 227.87L162.67 229.42ZM177.81 213.08L176.41 207.44L171.22 205.89L167.43 209.98L168.83 215.61L174.02 217.16ZM144.30 213.52L142.89 207.88L137.71 206.34L133.93 210.43L135.33 216.06L140.52 217.60ZM135.33 216.06L133.93 210.43L128.74 208.89L124.96 212.98L126.37 218.61L131.56 220.15ZM146.67 203.79L145.27 198.16L140.08 196.62L136.30 200.71L137.71 206.34L142.89 207.88ZM137.71 206.34L136.30 200.71L131.11 199.16L127.33 203.26L128.74 208.89L133.93 210.43ZM150.89 220.69L149.49 215.06L144.30 213.52L140.52 217.60L141.92 223.24L147.11 224.78ZM141.92 223.24L140.52 217.60L135.33 216.06L131.56 220.15L132.96 225.78L138.15 227.32ZM153.27 210.97L151.86 205.34L146.67 203.79L142.89 207.88L144.30 213.52L149.49 215.06ZM182.59 193.62L181.19 187.98L175.99 186.43L172.20 190.52L173.60 196.16L178.80 197.71ZM173.60 196.16L172.20 190.52L167.01 188.98L163.22 193.07L164.62 198.70L169.81 200.25ZM184.98 183.89L183.58 178.25L178.38 176.70L174.59 180.79L175.99 186.43L181.19 187.98ZM175.99 186.43L174.59 180.79L169.39 179.24L165.60 183.34L167.01 188.98L172.20 190.52ZM189.18 200.81L187.78 195.17L182.59 193.62L178.80 197.71L180.20 203.35L185.39 204.90ZM180.20 203.35L178.80 197.71L173.60 196.16L169.81 200.25L171.22 205.89L176.41 207.44ZM191.58 191.08L190.17 185.44L184.98 183.89L181.19 187.98L182.59 193.62L187.78 195.17ZM95.28 209.38L93.87 203.75L88.68 202.21L84.92 206.31L86.33 211.93L91.51 213.47ZM86.33 211.93L84.92 206.31L79.74 204.77L75.97 208.87L77.39 214.49L82.56 216.02ZM97.64 199.66L96.22 194.03L91.04 192.49L87.27 196.59L88.68 202.21L93.87 203.75ZM88.68 202.21L87.27 196.59L82.09 195.05L78.32 199.15L79.74 204.77L84.92 206.31ZM101.87 216.54L100.46 210.91L95.28 209.38L91.51 213.47L92.92 219.09L98.10 220.63ZM92.92 219.09L91.51 213.47L86.33 211.93L82.56 216.02L83.98 221.65L89.15 223.18ZM104.23 206.82L102.82 201.19L97.64 199.66L93.87 203.75L95.28 209.38L100.46 210.91ZM70.79 207.33L69.38 201.71L64.20 200.18L60.44 204.27L61.85 209.90L67.03 211.43ZM61.85 209.90L60.44 204.27L55.26 202.74L51.50 206.84L52.92 212.46L58.09 213.99ZM73.14 197.62L71.73 191.99L66.54 190.46L62.78 194.55L64.20 200.18L69.38 201.71ZM64.20 200.18L62.78 194.55L57.60 193.03L53.84 197.12L55.26 202.74L60.44 204.27ZM77.39 214.49L75.97 208.87L70.79 207.33L67.03 211.43L68.44 217.05L73.62 218.58ZM79.74 204.77L78.32 199.15L73.14 197.62L69.38 201.71L70.79 207.33L75.97 208.87ZM108.95 187.37L107.54 181.74L102.36 180.21L98.58 184.30L99.99 189.93L105.18 191.47ZM99.99 189.93L98.58 184.30L93.40 182.77L89.63 186.86L91.04 192.49L96.22 194.03ZM111.32 177.65L109.91 172.01L104.72 170.48L100.94 174.57L102.36 180.21L107.54 181.74ZM102.36 180.21L100.94 174.57L95.76 173.04L91.98 177.14L93.40 182.77L98.58 184.30ZM115.55 194.54L114.14 188.91L108.95 187.37L105.18 191.47L106.59 197.10L111.78 198.64ZM106.59 197.10L105.18 191.47L99.99 189.93L96.22 194.03L97.64 199.66L102.82 201.19ZM117.92 184.82L116.51 179.18L111.32 177.65L107.54 181.74L108.95 187.37L114.14 188.91ZM84.44 185.33L83.03 179.70L77.84 178.17L74.08 182.27L75.49 187.89L80.67 189.43ZM75.49 187.89L74.08 182.27L68.89 180.74L65.13 184.83L66.54 190.46L71.73 191.99ZM86.80 175.60L85.38 169.97L80.20 168.44L76.43 172.54L77.84 178.17L83.03 179.70ZM77.84 178.17L76.43 172.54L71.24 171.01L67.48 175.11L68.89 180.74L74.08 182.27ZM91.04 192.49L89.63 186.86L84.44 185.33L80.67 189.43L82.09 195.05L87.27 196.59ZM82.09 195.05L80.67 189.43L75.49 187.89L71.73 191.99L73.14 197.62L78.32 199.15ZM93.40 182.77L91.98 177.14L86.80 175.60L83.03 179.70L84.44 185.33L89.63 186.86ZM106.10 233.42L104.69 227.79L99.51 226.25L95.74 230.34L97.16 235.96L102.33 237.50ZM97.16 235.96L95.74 230.34L90.57 228.80L86.80 232.89L88.21 238.51L93.39 240.05ZM108.46 223.70L107.05 218.08L101.87 216.54L98.10 220.63L99.51 226.25L104.69 227.79ZM99.51 226.25L98.10 220.63L92.92 219.09L89.15 223.18L90.57 228.80L95.74 230.34ZM112.69 240.58L111.28 234.95L106.10 233.42L102.33 237.50L103.74 243.12L108.92 244.66ZM103.74 243.12L102.33 237.50L97.16 235.96L93.39 240.05L94.80 245.67L99.98 247.21ZM115.05 230.87L113.64 225.24L108.46 223.70L104.69 227.79L106.10 233.42L111.28 234.95ZM81.63 231.36L80.21 225.74L75.04 224.20L71.27 228.29L72.69 233.91L77.86 235.44ZM83.98 221.65L82.56 216.02L77.39 214.49L73.62 218.58L75.04 224.20L80.21 225.74ZM75.04 224.20L73.62 218.58L68.44 217.05L64.68 221.14L66.10 226.76L71.27 228.29ZM88.21 238.51L86.80 232.89L81.63 231.36L77.86 235.44L79.28 241.07L84.45 242.60ZM90.57 228.80L89.15 223.18L83.98 221.65L80.21 225.74L81.63 231.36L86.80 232.89ZM119.78 211.44L118.37 205.81L113.19 204.27L109.41 208.36L110.82 213.99L116.01 215.53ZM110.82 213.99L109.41 208.36L104.23 206.82L100.46 210.91L101.87 216.54L107.05 218.08ZM122.15 201.72L120.74 196.08L115.55 194.54L111.78 198.64L113.19 204.27L118.37 205.81ZM113.19 204.27L111.78 198.64L106.59 197.10L102.82 201.19L104.23 206.82L109.41 208.36ZM126.37 218.61L124.96 212.98L119.78 211.44L116.01 215.53L117.41 221.15L122.60 222.69ZM117.41 221.15L116.01 215.53L110.82 213.99L107.05 218.08L108.46 223.70L113.64 225.24ZM128.74 208.89L127.33 203.26L122.15 201.72L118.37 205.81L119.78 211.44L124.96 212.98ZM174.73 123.33L173.33 117.68L168.12 116.13L164.32 120.24L165.73 125.89L170.93 127.43ZM165.73 125.89L164.32 120.24L159.12 118.69L155.33 122.80L156.74 128.45L161.94 129.99ZM177.12 113.57L175.72 107.92L170.51 106.37L166.71 110.48L168.12 116.13L173.33 117.68ZM168.12 116.13L166.71 110.48L161.51 108.94L157.71 113.04L159.12 118.69L164.32 120.24ZM181.34 130.52L179.94 124.87L174.73 123.33L170.93 127.43L172.34 133.08L177.54 134.63ZM172.34 133.08L170.93 127.43L165.73 125.89L161.94 129.99L163.34 135.64L168.54 137.18ZM183.74 120.77L182.33 115.12L177.12 113.57L173.33 117.68L174.73 123.33L179.94 124.87ZM150.13 121.26L148.72 115.61L143.51 114.07L139.72 118.17L141.13 123.82L146.33 125.36ZM141.13 123.82L139.72 118.17L134.52 116.63L130.73 120.74L132.15 126.39L137.34 127.92ZM152.51 111.50L151.10 105.85L145.90 104.31L142.10 108.42L143.51 114.07L148.72 115.61ZM143.51 114.07L142.10 108.42L136.90 106.88L133.11 110.99L134.52 116.63L139.72 118.17ZM156.74 128.45L155.33 122.80L150.13 121.26L146.33 125.36L147.74 131.01L152.94 132.55ZM147.74 131.01L146.33 125.36L141.13 123.82L137.34 127.92L138.75 133.57L143.95 135.11ZM159.12 118.69L157.71 113.04L152.51 111.50L148.72 115.61L150.13 121.26L155.33 122.80ZM188.53 101.25L187.12 95.60L181.91 94.05L178.11 98.16L179.52 103.81L184.73 105.36ZM179.52 103.81L178.11 98.16L172.90 96.61L169.10 100.72L170.51 106.37L175.72 107.92ZM190.93 91.49L189.52 85.83L184.31 84.28L180.51 88.39L181.91 94.05L187.12 95.60ZM181.91 94.05L180.51 88.39L175.30 86.85L171.50 90.96L172.90 96.61L178.11 98.16ZM195.14 108.46L193.74 102.80L188.53 101.25L184.73 105.36L186.13 111.01L191.34 112.56ZM186.13 111.01L184.73 105.36L179.52 103.81L175.72 107.92L177.12 113.57L182.33 115.12ZM197.55 98.69L196.14 93.04L190.93 91.49L187.12 95.60L188.53 101.25L193.74 102.80ZM163.90 99.18L162.49 93.52L157.28 91.98L153.49 96.09L154.89 101.74L160.10 103.29ZM154.89 101.74L153.49 96.09L148.28 94.55L144.49 98.66L145.90 104.31L151.10 105.85ZM166.29 89.41L164.88 83.76L159.67 82.22L155.87 86.33L157.28 91.98L162.49 93.52ZM157.28 91.98L155.87 86.33L150.66 84.79L146.87 88.90L148.28 94.55L153.49 96.09ZM170.51 106.37L169.10 100.72L163.90 99.18L160.10 103.29L161.51 108.94L166.71 110.48ZM161.51 108.94L160.10 103.29L154.89 101.74L151.10 105.85L152.51 111.50L157.71 113.04ZM172.90 96.61L171.50 90.96L166.29 89.41L162.49 93.52L163.90 99.18L169.10 100.72ZM185.55 147.47L184.15 141.82L178.95 140.27L175.15 144.38L176.56 150.02L181.76 151.57ZM176.56 150.02L175.15 144.38L169.95 142.83L166.16 146.93L167.56 152.57L172.76 154.12ZM187.95 137.72L186.55 132.07L181.34 130.52L177.54 134.63L178.95 140.27L184.15 141.82ZM178.95 140.27L177.54 134.63L172.34 133.08L168.54 137.18L169.95 142.83L175.15 144.38ZM192.16 154.67L190.76 149.02L185.55 147.47L181.76 151.57L183.16 157.22L188.36 158.77ZM183.16 157.22L181.76 151.57L176.56 150.02L172.76 154.12L174.17 159.77L179.37 161.31ZM194.56 144.92L193.15 139.27L187.95 137.72L184.15 141.82L185.55 147.47L190.76 149.02ZM160.96 145.38L159.55 139.74L154.35 138.19L150.56 142.30L151.97 147.94L157.17 149.48ZM151.97 147.94L150.56 142.30L145.36 140.75L141.57 144.86L142.98 150.50L148.18 152.04ZM163.34 135.64L161.94 129.99L156.74 128.45L152.94 132.55L154.35 138.19L159.55 139.74ZM154.35 138.19L152.94 132.55L147.74 131.01L143.95 135.11L145.36 140.75L150.56 142.30ZM167.56 152.57L166.16 146.93L160.96 145.38L157.17 149.48L158.57 155.13L163.77 156.67ZM158.57 155.13L157.17 149.48L151.97 147.94L148.18 152.04L149.59 157.68L154.78 159.23ZM169.95 142.83L168.54 137.18L163.34 135.64L159.55 139.74L160.96 145.38L166.16 146.93ZM199.35 125.42L197.95 119.76L192.74 118.22L188.94 122.32L190.35 127.97L195.55 129.52ZM190.35 127.97L188.94 122.32L183.74 120.77L179.94 124.87L181.34 130.52L186.55 132.07ZM201.76 115.66L200.35 110.01L195.14 108.46L191.34 112.56L192.74 118.22L197.95 119.76ZM192.74 118.22L191.34 112.56L186.13 111.01L182.33 115.12L183.74 120.77L188.94 122.32ZM205.96 132.62L204.56 126.97L199.35 125.42L195.55 129.52L196.95 135.17L202.16 136.72ZM196.95 135.17L195.55 129.52L190.35 127.97L186.55 132.07L187.95 137.72L193.15 139.27ZM208.37 122.87L206.97 117.21L201.76 115.66L197.95 119.76L199.35 125.42L204.56 126.97ZM204.17 241.84L202.77 236.20L197.58 234.64L193.79 238.73L195.19 244.36L200.38 245.92ZM195.19 244.36L193.79 238.73L188.60 237.17L184.82 241.25L186.22 246.89L191.40 248.44ZM206.57 232.12L205.17 226.48L199.98 224.92L196.18 229.01L197.58 234.64L202.77 236.20ZM197.58 234.64L196.18 229.01L190.99 227.45L187.20 231.54L188.60 237.17L193.79 238.73ZM210.76 249.03L209.36 243.39L204.17 241.84L200.38 245.92L201.78 251.55L206.97 253.11ZM201.78 251.55L200.38 245.92L195.19 244.36L191.40 248.44L192.80 254.07L197.99 255.63ZM213.15 239.31L211.76 233.67L206.57 232.12L202.77 236.20L204.17 241.84L209.36 243.39ZM179.63 239.70L178.23 234.07L173.04 232.52L169.26 236.60L170.66 242.23L175.84 243.78ZM170.66 242.23L169.26 236.60L164.07 235.05L160.29 239.14L161.69 244.77L166.87 246.32ZM182.02 229.99L180.61 224.35L175.42 222.80L171.64 226.88L173.04 232.52L178.23 234.07ZM173.04 232.52L171.64 226.88L166.45 225.34L162.67 229.42L164.07 235.05L169.26 236.60ZM186.22 246.89L184.82 241.25L179.63 239.70L175.84 243.78L177.24 249.42L182.43 250.97ZM177.24 249.42L175.84 243.78L170.66 242.23L166.87 246.32L168.28 251.95L173.46 253.50ZM188.60 237.17L187.20 231.54L182.02 229.99L178.23 234.07L179.63 239.70L184.82 241.25ZM217.95 219.87L216.56 214.23L211.36 212.67L207.56 216.75L208.96 222.39L214.16 223.95ZM208.96 222.39L207.56 216.75L202.37 215.20L198.58 219.28L199.98 224.92L205.17 226.48ZM220.35 210.14L218.96 204.50L213.76 202.94L209.96 207.03L211.36 212.67L216.56 214.23ZM211.36 212.67L209.96 207.03L204.77 205.47L200.97 209.56L202.37 215.20L207.56 216.75ZM224.54 227.07L223.15 221.43L217.95 219.87L214.16 223.95L215.55 229.59L220.75 231.15ZM215.55 229.59L214.16 223.95L208.96 222.39L205.17 226.48L206.57 232.12L211.76 233.67ZM226.95 217.34L225.55 211.70L220.35 210.14L216.56 214.23L217.95 219.87L223.15 221.43ZM193.38 217.73L191.98 212.09L186.79 210.54L183.00 214.63L184.40 220.26L189.59 221.82ZM184.40 220.26L183.00 214.63L177.81 213.08L174.02 217.16L175.42 222.80L180.61 224.35ZM195.78 208.01L194.38 202.37L189.18 200.81L185.39 204.90L186.79 210.54L191.98 212.09ZM186.79 210.54L185.39 204.90L180.20 203.35L176.41 207.44L177.81 213.08L183.00 214.63ZM199.98 224.92L198.58 219.28L193.38 217.73L189.59 221.82L190.99 227.45L196.18 229.01ZM190.99 227.45L189.59 221.82L184.40 220.26L180.61 224.35L182.02 229.99L187.20 231.54ZM202.37 215.20L200.97 209.56L195.78 208.01L191.98 212.09L193.38 217.73L198.58 219.28ZM217.34 256.22L215.95 250.59L210.76 249.03L206.97 253.11L208.36 258.74L213.55 260.30ZM208.36 258.74L206.97 253.11L201.78 251.55L197.99 255.63L199.39 261.26L204.57 262.82ZM192.80 254.07L191.40 248.44L186.22 246.89L182.43 250.97L183.83 256.60L189.01 258.15ZM183.83 256.60L182.43 250.97L177.24 249.42L173.46 253.50L174.86 259.13L180.04 260.68ZM199.39 261.26L197.99 255.63L192.80 254.07L189.01 258.15L190.41 263.78L195.60 265.34ZM228.73 243.99L227.33 238.35L222.14 236.79L218.35 240.87L219.74 246.51L224.93 248.07ZM219.74 246.51L218.35 240.87L213.15 239.31L209.36 243.39L210.76 249.03L215.95 250.59ZM231.13 234.27L229.74 228.63L224.54 227.07L220.75 231.15L222.14 236.79L227.33 238.35ZM222.14 236.79L220.75 231.15L215.55 229.59L211.76 233.67L213.15 239.31L218.35 240.87ZM235.31 251.19L233.92 245.55L228.73 243.99L224.93 248.07L226.33 253.70L231.52 255.26ZM226.33 253.70L224.93 248.07L219.74 246.51L215.95 250.59L217.34 256.22L222.53 257.78ZM237.72 241.47L236.33 235.83L231.13 234.27L227.33 238.35L228.73 243.99L233.92 245.55ZM141.40 259.54L139.99 253.92L134.81 252.37L131.04 256.45L132.45 262.08L137.62 263.62ZM132.45 262.08L131.04 256.45L125.86 254.91L122.09 258.99L123.50 264.61L128.67 266.16ZM143.77 249.84L142.36 244.21L137.18 242.66L133.41 246.75L134.81 252.37L139.99 253.92ZM134.81 252.37L133.41 246.75L128.23 245.20L124.45 249.29L125.86 254.91L131.04 256.45ZM150.35 257.01L148.95 251.38L143.77 249.84L139.99 253.92L141.40 259.54L146.58 261.09ZM116.91 257.45L115.51 251.83L110.33 250.29L106.56 254.37L107.97 259.99L113.15 261.53ZM107.97 259.99L106.56 254.37L101.39 252.83L97.62 256.91L99.03 262.53L104.20 264.07ZM119.28 247.74L117.87 242.12L112.69 240.58L108.92 244.66L110.33 250.29L115.51 251.83ZM110.33 250.29L108.92 244.66L103.74 243.12L99.98 247.21L101.39 252.83L106.56 254.37ZM125.86 254.91L124.45 249.29L119.28 247.74L115.51 251.83L116.91 257.45L122.09 258.99ZM155.10 237.59L153.70 231.96L148.51 230.41L144.74 234.50L146.14 240.13L151.32 241.67ZM146.14 240.13L144.74 234.50L139.55 232.95L135.78 237.04L137.18 242.66L142.36 244.21ZM157.48 227.87L156.08 222.24L150.89 220.69L147.11 224.78L148.51 230.41L153.70 231.96ZM148.51 230.41L147.11 224.78L141.92 223.24L138.15 227.32L139.55 232.95L144.74 234.50ZM161.69 244.77L160.29 239.14L155.10 237.59L151.32 241.67L152.73 247.30L157.91 248.85ZM152.73 247.30L151.32 241.67L146.14 240.13L142.36 244.21L143.77 249.84L148.95 251.38ZM164.07 235.05L162.67 229.42L157.48 227.87L153.70 231.96L155.10 237.59L160.29 239.14ZM130.59 235.49L129.19 229.86L124.01 228.32L120.23 232.41L121.64 238.04L126.82 239.58ZM121.64 238.04L120.23 232.41L115.05 230.87L111.28 234.95L112.69 240.58L117.87 242.12ZM132.96 225.78L131.56 220.15L126.37 218.61L122.60 222.69L124.01 228.32L129.19 229.86ZM124.01 228.32L122.60 222.69L117.41 221.15L113.64 225.24L115.05 230.87L120.23 232.41ZM137.18 242.66L135.78 237.04L130.59 235.49L126.82 239.58L128.23 245.20L133.41 246.75ZM128.23 245.20L126.82 239.58L121.64 238.04L117.87 242.12L119.28 247.74L124.45 249.29ZM139.55 232.95L138.15 227.32L132.96 225.78L129.19 229.86L130.59 235.49L135.78 237.04ZM165.90 261.65L164.50 256.03L159.31 254.48L155.53 258.56L156.94 264.18L162.12 265.73ZM168.28 251.95L166.87 246.32L161.69 244.77L157.91 248.85L159.31 254.48L164.50 256.03ZM159.31 254.48L157.91 248.85L152.73 247.30L148.95 251.38L150.35 257.01L155.53 258.56ZM174.86 259.13L173.46 253.50L168.28 251.95L164.50 256.03L165.90 261.65L171.08 263.20ZM257.48 263.08L256.09 257.44L250.89 255.88L247.09 259.95L248.48 265.59L253.67 267.16ZM241.90 258.39L240.51 252.75L235.31 251.19L231.52 255.26L232.91 260.90L238.10 262.46ZM232.91 260.90L231.52 255.26L226.33 253.70L222.53 257.78L223.93 263.42L229.11 264.98Z"/><path data-band="3" fill="#dc2626" fill-opacity="0.35" d="M7.92 261.52L6.50 255.91L1.33 254.39L-2.41 258.48L-0.99 264.09L4.17 265.61ZM23.80 229.86L22.38 224.25L17.21 222.72L13.47 226.82L14.89 232.43L20.05 233.95ZM39.31 234.44L37.89 228.82L32.72 227.30L28.97 231.39L30.39 237.00L35.56 238.53ZM30.39 237.00L28.97 231.39L23.80 229.86L20.05 233.95L21.47 239.57L26.64 241.09ZM52.92 212.46L51.50 206.84L46.32 205.31L42.57 209.40L43.98 215.02L49.16 216.55ZM43.56 251.28L42.15 245.67L36.98 244.14L33.23 248.23L34.65 253.84L39.81 255.37ZM34.65 253.84L33.23 248.23L28.06 246.70L24.31 250.79L25.73 256.40L30.90 257.93ZM45.90 241.58L44.48 235.97L39.31 234.44L35.56 238.53L36.98 244.14L42.15 245.67ZM36.98 244.14L35.56 238.53L30.39 237.00L26.64 241.09L28.06 246.70L33.23 248.23ZM50.15 258.43L48.73 252.81L43.56 251.28L39.81 255.37L41.23 260.98L46.40 262.51ZM41.23 260.98L39.81 255.37L34.65 253.84L30.90 257.93L32.32 263.54L37.48 265.06ZM52.49 248.73L51.07 243.11L45.90 241.58L42.15 245.67L43.56 251.28L48.73 252.81ZM19.15 249.26L17.73 243.65L12.56 242.13L8.82 246.22L10.24 251.83L15.40 253.35ZM21.47 239.57L20.05 233.95L14.89 232.43L11.14 236.52L12.56 242.13L17.73 243.65ZM25.73 256.40L24.31 250.79L19.15 249.26L15.40 253.35L16.82 258.96L21.99 260.48ZM16.82 258.96L15.40 253.35L10.24 251.83L6.50 255.91L7.92 261.52L13.08 263.05ZM28.06 246.70L26.64 241.09L21.47 239.57L17.73 243.65L19.15 249.26L24.31 250.79ZM57.17 229.32L55.75 223.70L50.58 222.17L46.82 226.26L48.24 231.88L53.41 233.41ZM48.24 231.88L46.82 226.26L41.65 224.73L37.89 228.82L39.31 234.44L44.48 235.97ZM59.51 219.61L58.09 213.99L52.92 212.46L49.16 216.55L50.58 222.17L55.75 223.70ZM50.58 222.17L49.16 216.55L43.98 215.02L40.23 219.11L41.65 224.73L46.82 226.26ZM63.75 236.47L62.34 230.85L57.17 229.32L53.41 233.41L54.83 239.02L60.00 240.55ZM54.83 239.02L53.41 233.41L48.24 231.88L44.48 235.97L45.90 241.58L51.07 243.11ZM66.10 226.76L64.68 221.14L59.51 219.61L55.75 223.70L57.17 229.32L62.34 230.85ZM68.00 253.32L66.58 247.70L61.41 246.17L57.66 250.26L59.07 255.87L64.24 257.40ZM59.07 255.87L57.66 250.26L52.49 248.73L48.73 252.81L50.15 258.43L55.32 259.96ZM70.34 243.62L68.93 238.00L63.75 236.47L60.00 240.55L61.41 246.17L66.58 247.70ZM61.41 246.17L60.00 240.55L54.83 239.02L51.07 243.11L52.49 248.73L57.66 250.26ZM74.58 260.47L73.17 254.85L68.00 253.32L64.24 257.40L65.65 263.02L70.82 264.55ZM65.65 263.02L64.24 257.40L59.07 255.87L55.32 259.96L56.73 265.57L61.90 267.10ZM76.93 250.77L75.52 245.15L70.34 243.62L66.58 247.70L68.00 253.32L73.17 254.85ZM106.19 61.19L104.77 55.54L99.56 54.01L95.78 58.13L97.19 63.78L102.40 65.31ZM112.81 68.38L111.39 62.73L106.19 61.19L102.40 65.31L103.82 70.96L109.02 72.49ZM117.05 85.32L115.64 79.68L110.44 78.14L106.65 82.26L108.07 87.90L113.27 89.44ZM68.44 217.05L67.03 211.43L61.85 209.90L58.09 213.99L59.51 219.61L64.68 221.14ZM72.69 233.91L71.27 228.29L66.10 226.76L62.34 230.85L63.75 236.47L68.93 238.00ZM79.28 241.07L77.86 235.44L72.69 233.91L68.93 238.00L70.34 243.62L75.52 245.15Z"/></svg>
