<svg xmlns="http://www.w3.org/2000/svg" width="256" height="256" viewBox="0 0 256 256"><path data-band="1" fill="#fde68a" fill-opacity="0.35" d="M210.73 7.18L209.34 1.58L204.19 0.02L200.43 4.05L201.82 9.64L206.96 11.21ZM201.82 9.64L200.43 4.05L195.28 2.48L191.53 6.51L192.91 12.10L198.06 13.67ZM217.26 14.34L215.87 8.74L210.73 7.18L206.96 11.21L208.35 16.80L213.50 18.37ZM208.35 16.80L206.96 11.21L201.82 9.64L198.06 13.67L199.44 19.26L204.59 20.83ZM219.64 4.72L218.25 -0.88L213.10 -2.45L209.34 1.58L210.73 7.18L215.87 8.74ZM186.38 4.95L184.99 -0.64L179.85 -2.21L176.09 1.83L177.48 7.42L182.62 8.98ZM177.48 7.42L176.09 1.83L170.95 0.26L167.19 4.30L168.58 9.89L173.73 11.45ZM192.91 12.10L191.53 6.51L186.38 4.95L182.62 8.98L184.01 14.57L189.16 16.13ZM184.01 14.57L182.62 8.98L177.48 7.42L173.73 11.45L175.12 17.04L180.26 18.60ZM195.28 2.48L193.90 -3.11L188.75 -4.68L184.99 -0.64L186.38 4.95L191.53 6.51ZM245.76 33.39L244.38 27.79L239.23 26.22L235.47 30.24L236.85 35.83L241.99 37.41ZM236.85 35.83L235.47 30.24L230.32 28.67L226.56 32.69L227.94 38.29L233.08 39.86ZM248.15 23.77L246.77 18.17L241.62 16.59L237.85 20.62L239.23 26.22L244.38 27.79ZM239.23 26.22L237.85 20.62L232.70 19.05L228.94 23.07L230.32 28.67L235.47 30.24ZM252.29 40.56L250.91 34.96L245.76 33.39L241.99 37.41L243.38 43.00L248.52 44.58ZM243.38 43.00L241.99 37.41L236.85 35.83L233.08 39.86L234.46 45.45L239.61 47.02ZM221.41 31.12L220.03 25.53L214.88 23.96L211.12 27.99L212.50 33.58L217.65 35.15ZM212.50 33.58L211.12 27.99L205.98 26.42L202.22 30.44L203.60 36.03L208.74 37.60ZM223.79 21.50L222.41 15.91L217.26 14.34L213.50 18.37L214.88 23.96L220.03 25.53ZM214.88 23.96L213.50 18.37L208.35 16.80L204.59 20.83L205.98 26.42L211.12 27.99ZM227.94 38.29L226.56 32.69L221.41 31.12L217.65 35.15L219.03 40.74L224.18 42.31ZM219.03 40.74L217.65 35.15L212.50 33.58L208.74 37.60L210.13 43.19L215.27 44.76ZM230.32 28.67L228.94 23.07L223.79 21.50L220.03 25.53L221.41 31.12L226.56 32.69ZM232.70 19.05L231.32 13.45L226.17 11.88L222.41 15.91L223.79 21.50L228.94 23.07ZM256.42 57.34L255.05 51.75L249.90 50.17L246.13 54.19L247.51 59.78L252.66 61.36ZM247.51 59.78L246.13 54.19L240.99 52.62L237.23 56.63L238.61 62.22L243.75 63.80ZM258.82 47.73L257.44 42.13L252.29 40.56L248.52 44.58L249.90 50.17L255.05 51.75ZM249.90 50.17L248.52 44.58L243.38 43.00L239.61 47.02L240.99 52.62L246.13 54.19ZM262.95 64.51L261.57 58.92L256.42 57.34L252.66 61.36L254.04 66.95L259.18 68.53ZM254.04 66.95L252.66 61.36L247.51 59.78L243.75 63.80L245.13 69.39L250.27 70.96ZM265.34 54.90L263.96 49.30L258.82 47.73L255.05 51.75L256.42 57.34L261.57 58.92ZM232.08 55.06L230.70 49.47L225.56 47.90L221.80 51.92L223.18 57.51L228.32 59.08ZM223.18 57.51L221.80 51.92L216.65 50.35L212.90 54.37L214.28 59.96L219.42 61.53ZM234.46 45.45L233.08 39.86L227.94 38.29L224.18 42.31L225.56 47.90L230.70 49.47ZM225.56 47.90L224.18 42.31L219.03 40.74L215.27 44.76L216.65 50.35L221.80 51.92ZM238.61 62.22L237.23 56.63L232.08 55.06L228.32 59.08L229.70 64.67L234.84 66.24ZM229.70 64.67L228.32 59.08L223.18 57.51L219.42 61.53L220.80 67.12L225.94 68.69ZM240.99 52.62L239.61 47.02L234.46 45.45L230.70 49.47L232.08 55.06L237.23 56.63ZM261.21 38.11L259.83 32.51L254.68 30.94L250.91 34.96L252.29 40.56L257.44 42.13ZM47.18 -0.93L45.77 -6.51L40.64 -8.04L36.92 -4.01L38.33 1.57L43.46 3.11ZM38.33 1.57L36.92 -4.01L31.79 -5.54L28.07 -1.50L29.48 4.07L34.61 5.60ZM22.95 -3.04L21.54 -8.61L16.41 -10.14L12.70 -6.11L14.11 -0.53L19.23 1.00ZM14.11 -0.53L12.70 -6.11L7.57 -7.64L3.86 -3.60L5.27 1.97L10.39 3.50ZM137.74 0.54L136.34 -5.04L131.20 -6.60L127.46 -2.56L128.85 3.02L133.99 4.58ZM128.85 3.02L127.46 -2.56L122.32 -4.11L118.58 -0.08L119.97 5.50L125.11 7.06ZM144.27 7.69L142.88 2.10L137.74 0.54L133.99 4.58L135.39 10.16L140.52 11.72ZM135.39 10.16L133.99 4.58L128.85 3.02L125.11 7.06L126.51 12.64L131.64 14.19ZM146.62 -1.93L145.23 -7.52L140.09 -9.08L136.34 -5.04L137.74 0.54L142.88 2.10ZM113.44 -1.63L112.04 -7.21L106.90 -8.76L103.17 -4.73L104.56 0.86L109.70 2.40ZM104.56 0.86L103.17 -4.73L98.03 -6.27L94.29 -2.24L95.69 3.34L100.83 4.89ZM119.97 5.50L118.58 -0.08L113.44 -1.63L109.70 2.40L111.10 7.99L116.23 9.54ZM111.10 7.99L109.70 2.40L104.56 0.86L100.83 4.89L102.23 10.47L107.36 12.02ZM148.45 24.44L147.06 18.86L141.92 17.30L138.17 21.33L139.57 26.91L144.70 28.47ZM139.57 26.91L138.17 21.33L133.04 19.78L129.30 23.81L130.69 29.39L135.83 30.94ZM150.80 14.83L149.41 9.24L144.27 7.69L140.52 11.72L141.92 17.30L147.06 18.86ZM141.92 17.30L140.52 11.72L135.39 10.16L131.64 14.19L133.04 19.78L138.17 21.33ZM154.98 31.59L153.59 26.00L148.45 24.44L144.70 28.47L146.10 34.05L151.23 35.61ZM146.10 34.05L144.70 28.47L139.57 26.91L135.83 30.94L137.22 36.52L142.35 38.08ZM157.33 21.97L155.94 16.39L150.80 14.83L147.06 18.86L148.45 24.44L153.59 26.00ZM124.16 22.25L122.77 16.67L117.63 15.12L113.89 19.15L115.29 24.73L120.42 26.28ZM115.29 24.73L113.89 19.15L108.76 17.60L105.02 21.63L106.42 27.21L111.55 28.76ZM126.51 12.64L125.11 7.06L119.97 5.50L116.23 9.54L117.63 15.12L122.77 16.67ZM117.63 15.12L116.23 9.54L111.10 7.99L107.36 12.02L108.76 17.60L113.89 19.15ZM130.69 29.39L129.30 23.81L124.16 22.25L120.42 26.28L121.82 31.86L126.95 33.42ZM121.82 31.86L120.42 26.28L115.29 24.73L111.55 28.76L112.95 34.34L118.08 35.89ZM133.04 19.78L131.64 14.19L126.51 12.64L122.77 16.67L124.16 22.25L129.30 23.81ZM162.05 2.74L160.66 -2.85L155.52 -4.41L151.77 -0.38L153.16 5.21L158.30 6.77ZM153.16 5.21L151.77 -0.38L146.62 -1.93L142.88 2.10L144.27 7.69L149.41 9.24ZM168.58 9.89L167.19 4.30L162.05 2.74L158.30 6.77L159.69 12.36L164.83 13.92ZM159.69 12.36L158.30 6.77L153.16 5.21L149.41 9.24L150.80 14.83L155.94 16.39ZM170.95 0.26L169.56 -5.33L164.41 -6.89L160.66 -2.85L162.05 2.74L167.19 4.30ZM75.63 17.93L74.23 12.35L69.10 10.81L65.37 14.84L66.78 20.42L71.91 21.96ZM66.78 20.42L65.37 14.84L60.25 13.30L56.52 17.33L57.92 22.91L63.05 24.45ZM77.96 8.32L76.56 2.74L71.43 1.20L67.70 5.23L69.10 10.81L74.23 12.35ZM69.10 10.81L67.70 5.23L62.57 3.69L58.84 7.72L60.25 13.30L65.37 14.84ZM82.16 25.05L80.76 19.47L75.63 17.93L71.91 21.96L73.31 27.53L78.43 29.08ZM73.31 27.53L71.91 21.96L66.78 20.42L63.05 24.45L64.45 30.02L69.58 31.56ZM84.49 15.44L83.09 9.86L77.96 8.32L74.23 12.35L75.63 17.93L80.76 19.47ZM51.39 15.79L49.99 10.22L44.86 8.68L41.14 12.71L42.55 18.29L47.67 19.83ZM42.55 18.29L41.14 12.71L36.01 11.18L32.30 15.21L33.70 20.78L38.83 22.32ZM53.71 6.18L52.31 0.61L47.18 -0.93L43.46 3.11L44.86 8.68L49.99 10.22ZM44.86 8.68L43.46 3.11L38.33 1.57L34.61 5.60L36.01 11.18L41.14 12.71ZM57.92 22.91L56.52 17.33L51.39 15.79L47.67 19.83L49.08 25.40L54.20 26.94ZM49.08 25.40L47.67 19.83L42.55 18.29L38.83 22.32L40.23 27.89L45.36 29.43ZM60.25 13.30L58.84 7.72L53.71 6.18L49.99 10.22L51.39 15.79L56.52 17.33ZM89.16 -3.79L87.76 -9.37L82.62 -10.91L78.89 -6.88L80.29 -1.30L85.42 0.25ZM80.29 -1.30L78.89 -6.88L73.76 -8.42L70.03 -4.38L71.43 1.20L76.56 2.74ZM95.69 3.34L94.29 -2.24L89.16 -3.79L85.42 0.25L86.83 5.83L91.96 7.38ZM86.83 5.83L85.42 0.25L80.29 -1.30L76.56 2.74L77.96 8.32L83.09 9.86ZM56.03 -3.43L54.63 -9.00L49.50 -10.54L45.77 -6.51L47.18 -0.93L52.31 0.61ZM71.43 1.20L70.03 -4.38L64.89 -5.92L61.17 -1.89L62.57 3.69L67.70 5.23ZM62.57 3.69L61.17 -1.89L56.03 -3.43L52.31 0.61L53.71 6.18L58.84 7.72ZM86.36 41.77L84.96 36.20L79.83 34.65L76.11 38.68L77.51 44.25L82.63 45.80ZM77.51 44.25L76.11 38.68L70.98 37.14L67.26 41.17L68.66 46.74L73.78 48.28ZM88.69 32.17L87.29 26.59L82.16 25.05L78.43 29.08L79.83 34.65L84.96 36.20ZM79.83 34.65L78.43 29.08L73.31 27.53L69.58 31.56L70.98 37.14L76.11 38.68ZM92.89 48.89L91.49 43.32L86.36 41.77L82.63 45.80L84.03 51.37L89.16 52.92ZM84.03 51.37L82.63 45.80L77.51 44.25L73.78 48.28L75.18 53.85L80.31 55.40ZM95.22 39.29L93.82 33.72L88.69 32.17L84.96 36.20L86.36 41.77L91.49 43.32ZM62.13 39.62L60.73 34.05L55.60 32.51L51.88 36.54L53.29 42.11L58.41 43.65ZM53.29 42.11L51.88 36.54L46.76 35.00L43.04 39.03L44.44 44.60L49.57 46.14ZM64.45 30.02L63.05 24.45L57.92 22.91L54.20 26.94L55.60 32.51L60.73 34.05ZM55.60 32.51L54.20 26.94L49.08 25.40L45.36 29.43L46.76 35.00L51.88 36.54ZM68.66 46.74L67.26 41.17L62.13 39.62L58.41 43.65L59.81 49.22L64.93 50.76ZM59.81 49.22L58.41 43.65L53.29 42.11L49.57 46.14L50.97 51.70L56.09 53.25ZM70.98 37.14L69.58 31.56L64.45 30.02L60.73 34.05L62.13 39.62L67.26 41.17ZM99.89 20.08L98.49 14.50L93.36 12.95L89.62 16.99L91.02 22.56L96.16 24.11ZM91.02 22.56L89.62 16.99L84.49 15.44L80.76 19.47L82.16 25.05L87.29 26.59ZM102.23 10.47L100.83 4.89L95.69 3.34L91.96 7.38L93.36 12.95L98.49 14.50ZM93.36 12.95L91.96 7.38L86.83 5.83L83.09 9.86L84.49 15.44L89.62 16.99ZM106.42 27.21L105.02 21.63L99.89 20.08L96.16 24.11L97.55 29.69L102.68 31.24ZM97.55 29.69L96.16 24.11L91.02 22.56L87.29 26.59L88.69 32.17L93.82 33.72ZM108.76 17.60L107.36 12.02L102.23 10.47L98.49 14.50L99.89 20.08L105.02 21.63ZM265.76 153.17L264.39 147.59L259.26 146.01L255.50 150.01L256.87 155.59L262.00 157.17ZM250.37 148.43L248.99 142.85L243.86 141.27L240.11 145.28L241.48 150.85L246.61 152.43ZM241.48 150.85L240.11 145.28L234.98 143.70L231.22 147.70L232.60 153.28L237.73 154.85ZM252.75 138.85L251.38 133.27L246.24 131.69L242.49 135.69L243.86 141.27L248.99 142.85ZM243.86 141.27L242.49 135.69L237.35 134.12L233.60 138.12L234.98 143.70L240.11 145.28ZM256.87 155.59L255.50 150.01L250.37 148.43L246.61 152.43L247.99 158.01L253.12 159.59ZM247.99 158.01L246.61 152.43L241.48 150.85L237.73 154.85L239.11 160.43L244.23 162.01ZM259.26 146.01L257.88 140.43L252.75 138.85L248.99 142.85L250.37 148.43L255.50 150.01ZM264.03 126.84L262.66 121.25L257.52 119.68L253.76 123.68L255.13 129.26L260.27 130.84ZM255.13 129.26L253.76 123.68L248.62 122.10L244.87 126.11L246.24 131.69L251.38 133.27ZM257.52 119.68L256.14 114.09L251.01 112.51L247.25 116.52L248.62 122.10L253.76 123.68ZM261.64 136.43L260.27 130.84L255.13 129.26L251.38 133.27L252.75 138.85L257.88 140.43ZM260.99 172.32L259.62 166.75L254.49 165.17L250.74 169.16L252.11 174.74L257.24 176.32ZM252.11 174.74L250.74 169.16L245.61 167.58L241.86 171.58L243.23 177.15L248.36 178.73ZM263.38 162.75L262.00 157.17L256.87 155.59L253.12 159.59L254.49 165.17L259.62 166.75ZM254.49 165.17L253.12 159.59L247.99 158.01L244.23 162.01L245.61 167.58L250.74 169.16ZM258.17 83.72L256.79 78.13L251.65 76.56L247.88 80.57L249.26 86.16L254.40 87.73ZM260.56 74.12L259.18 68.53L254.04 66.95L250.27 70.96L251.65 76.56L256.79 78.13ZM264.68 90.89L263.31 85.30L258.17 83.72L254.40 87.73L255.78 93.32L260.92 94.90ZM166.93 117.72L165.55 112.15L160.42 110.59L156.68 114.60L158.07 120.17L163.19 121.73ZM158.07 120.17L156.68 114.60L151.56 113.04L147.82 117.05L149.21 122.62L154.33 124.18ZM169.29 108.14L167.90 102.56L162.77 101.00L159.03 105.01L160.42 110.59L165.55 112.15ZM160.42 110.59L159.03 105.01L153.91 103.45L150.17 107.47L151.56 113.04L156.68 114.60ZM173.44 124.86L172.06 119.29L166.93 117.72L163.19 121.73L164.58 127.30L169.70 128.87ZM164.58 127.30L163.19 121.73L158.07 120.17L154.33 124.18L155.72 129.75L160.84 131.31ZM175.80 115.28L174.41 109.70L169.29 108.14L165.55 112.15L166.93 117.72L172.06 119.29ZM142.70 115.49L141.31 109.92L136.18 108.36L132.45 112.37L133.84 117.94L138.96 119.50ZM133.84 117.94L132.45 112.37L127.33 110.82L123.60 114.83L124.99 120.40L130.11 121.95ZM145.04 105.91L143.65 100.33L138.53 98.78L134.79 102.79L136.18 108.36L141.31 109.92ZM136.18 108.36L134.79 102.79L129.67 101.23L125.94 105.25L127.33 110.82L132.45 112.37ZM151.56 113.04L150.17 107.47L145.04 105.91L141.31 109.92L142.70 115.49L147.82 117.05ZM180.52 96.10L179.13 90.52L174.00 88.96L170.26 92.97L171.64 98.55L176.77 100.11ZM171.64 98.55L170.26 92.97L165.13 91.41L161.38 95.43L162.77 101.00L167.90 102.56ZM182.88 86.51L181.49 80.93L176.36 79.36L172.61 83.38L174.00 88.96L179.13 90.52ZM174.00 88.96L172.61 83.38L167.48 81.82L163.74 85.83L165.13 91.41L170.26 92.97ZM187.03 103.24L185.65 97.67L180.52 96.10L176.77 100.11L178.16 105.69L183.29 107.26ZM178.16 105.69L176.77 100.11L171.64 98.55L167.90 102.56L169.29 108.14L174.41 109.70ZM189.39 93.65L188.01 88.07L182.88 86.51L179.13 90.52L180.52 96.10L185.65 97.67ZM156.26 93.86L154.87 88.29L149.74 86.73L146.00 90.75L147.39 96.32L152.52 97.88ZM147.39 96.32L146.00 90.75L140.87 89.19L137.14 93.20L138.53 98.78L143.65 100.33ZM158.61 84.27L157.22 78.70L152.09 77.14L148.35 81.15L149.74 86.73L154.87 88.29ZM149.74 86.73L148.35 81.15L143.22 79.60L139.48 83.61L140.87 89.19L146.00 90.75ZM162.77 101.00L161.38 95.43L156.26 93.86L152.52 97.88L153.91 103.45L159.03 105.01ZM153.91 103.45L152.52 97.88L147.39 96.32L143.65 100.33L145.04 105.91L150.17 107.47ZM165.13 91.41L163.74 85.83L158.61 84.27L154.87 88.29L156.26 93.86L161.38 95.43ZM177.60 141.57L176.21 136.00L171.09 134.44L167.35 138.44L168.74 144.01L173.86 145.58ZM179.95 132.00L178.57 126.42L173.44 124.86L169.70 128.87L171.09 134.44L176.21 136.00ZM171.09 134.44L169.70 128.87L164.58 127.30L160.84 131.31L162.23 136.88L167.35 138.44ZM184.10 148.71L182.72 143.14L177.60 141.57L173.86 145.58L175.24 151.15L180.36 152.71ZM186.46 139.14L185.08 133.56L179.95 132.00L176.21 136.00L177.60 141.57L182.72 143.14ZM155.72 129.75L154.33 124.18L149.21 122.62L145.48 126.63L146.86 132.20L151.98 133.76ZM191.18 119.97L189.80 114.40L184.67 112.83L180.93 116.84L182.31 122.42L187.44 123.98ZM182.31 122.42L180.93 116.84L175.80 115.28L172.06 119.29L173.44 124.86L178.57 126.42ZM193.55 110.39L192.16 104.81L187.03 103.24L183.29 107.26L184.67 112.83L189.80 114.40ZM184.67 112.83L183.29 107.26L178.16 105.69L174.41 109.70L175.80 115.28L180.93 116.84ZM197.69 127.12L196.31 121.54L191.18 119.97L187.44 123.98L188.82 129.56L193.95 131.12ZM188.82 129.56L187.44 123.98L182.31 122.42L178.57 126.42L179.95 132.00L185.08 133.56ZM200.06 117.53L198.68 111.96L193.55 110.39L189.80 114.40L191.18 119.97L196.31 121.54ZM120.82 103.69L119.42 98.12L114.30 96.57L110.57 100.58L111.97 106.15L117.09 107.71ZM111.97 106.15L110.57 100.58L105.45 99.03L101.73 103.05L103.12 108.61L108.24 110.16ZM183.44 50.56L182.06 44.97L176.92 43.41L173.17 47.43L174.56 53.02L179.69 54.58ZM174.56 53.02L173.17 47.43L168.03 45.87L164.28 49.90L165.67 55.48L170.81 57.04ZM185.81 40.95L184.42 35.36L179.28 33.80L175.53 37.82L176.92 43.41L182.06 44.97ZM176.92 43.41L175.53 37.82L170.39 36.26L166.64 40.29L168.03 45.87L173.17 47.43ZM189.97 57.71L188.58 52.12L183.44 50.56L179.69 54.58L181.08 60.16L186.22 61.73ZM181.08 60.16L179.69 54.58L174.56 53.02L170.81 57.04L172.20 62.62L177.33 64.18ZM192.34 48.10L190.95 42.51L185.81 40.95L182.06 44.97L183.44 50.56L188.58 52.12ZM159.15 48.34L157.76 42.75L152.62 41.19L148.88 45.22L150.27 50.80L155.40 52.36ZM150.27 50.80L148.88 45.22L143.75 43.66L140.00 47.69L141.40 53.27L146.53 54.82ZM161.51 38.73L160.12 33.14L154.98 31.59L151.23 35.61L152.62 41.19L157.76 42.75ZM152.62 41.19L151.23 35.61L146.10 34.05L142.35 38.08L143.75 43.66L148.88 45.22ZM165.67 55.48L164.28 49.90L159.15 48.34L155.40 52.36L156.79 57.94L161.93 59.50ZM156.79 57.94L155.40 52.36L150.27 50.80L146.53 54.82L147.92 60.40L153.05 61.96ZM168.03 45.87L166.64 40.29L161.51 38.73L157.76 42.75L159.15 48.34L164.28 49.90ZM197.07 28.88L195.69 23.29L190.54 21.72L186.79 25.75L188.18 31.34L193.32 32.90ZM188.18 31.34L186.79 25.75L181.65 24.19L177.89 28.21L179.28 33.80L184.42 35.36ZM199.44 19.26L198.06 13.67L192.91 12.10L189.16 16.13L190.54 21.72L195.69 23.29ZM190.54 21.72L189.16 16.13L184.01 14.57L180.26 18.60L181.65 24.19L186.79 25.75ZM203.60 36.03L202.22 30.44L197.07 28.88L193.32 32.90L194.70 38.49L199.84 40.06ZM194.70 38.49L193.32 32.90L188.18 31.34L184.42 35.36L185.81 40.95L190.95 42.51ZM205.98 26.42L204.59 20.83L199.44 19.26L195.69 23.29L197.07 28.88L202.22 30.44ZM172.75 26.65L171.36 21.06L166.22 19.50L162.47 23.53L163.86 29.12L169.00 30.68ZM163.86 29.12L162.47 23.53L157.33 21.97L153.59 26.00L154.98 31.59L160.12 33.14ZM175.12 17.04L173.73 11.45L168.58 9.89L164.83 13.92L166.22 19.50L171.36 21.06ZM166.22 19.50L164.83 13.92L159.69 12.36L155.94 16.39L157.33 21.97L162.47 23.53ZM179.28 33.80L177.89 28.21L172.75 26.65L169.00 30.68L170.39 36.26L175.53 37.82ZM170.39 36.26L169.00 30.68L163.86 29.12L160.12 33.14L161.51 38.73L166.64 40.29ZM181.65 24.19L180.26 18.60L175.12 17.04L171.36 21.06L172.75 26.65L177.89 28.21ZM194.12 74.46L192.74 68.88L187.60 67.31L183.85 71.33L185.24 76.91L190.37 78.48ZM185.24 76.91L183.85 71.33L178.72 69.77L174.97 73.78L176.36 79.36L181.49 80.93ZM196.49 64.86L195.11 59.27L189.97 57.71L186.22 61.73L187.60 67.31L192.74 68.88ZM187.60 67.31L186.22 61.73L181.08 60.16L177.33 64.18L178.72 69.77L183.85 71.33ZM200.64 81.61L199.26 76.03L194.12 74.46L190.37 78.48L191.76 84.06L196.89 85.63ZM191.76 84.06L190.37 78.48L185.24 76.91L181.49 80.93L182.88 86.51L188.01 88.07ZM203.01 72.01L201.63 66.43L196.49 64.86L192.74 68.88L194.12 74.46L199.26 76.03ZM169.84 72.22L168.45 66.64L163.32 65.08L159.57 69.10L160.96 74.68L166.09 76.24ZM160.96 74.68L159.57 69.10L154.44 67.54L150.70 71.56L152.09 77.14L157.22 78.70ZM172.20 62.62L170.81 57.04L165.67 55.48L161.93 59.50L163.32 65.08L168.45 66.64ZM163.32 65.08L161.93 59.50L156.79 57.94L153.05 61.96L154.44 67.54L159.57 69.10ZM176.36 79.36L174.97 73.78L169.84 72.22L166.09 76.24L167.48 81.82L172.61 83.38ZM167.48 81.82L166.09 76.24L160.96 74.68L157.22 78.70L158.61 84.27L163.74 85.83ZM178.72 69.77L177.33 64.18L172.20 62.62L168.45 66.64L169.84 72.22L174.97 73.78ZM207.76 52.80L206.37 47.21L201.23 45.65L197.47 49.67L198.86 55.25L204.00 56.82ZM198.86 55.25L197.47 49.67L192.34 48.10L188.58 52.12L189.97 57.71L195.11 59.27ZM210.13 43.19L208.74 37.60L203.60 36.03L199.84 40.06L201.23 45.65L206.37 47.21ZM201.23 45.65L199.84 40.06L194.70 38.49L190.95 42.51L192.34 48.10L197.47 49.67ZM214.28 59.96L212.90 54.37L207.76 52.80L204.00 56.82L205.38 62.41L210.52 63.98ZM205.38 62.41L204.00 56.82L198.86 55.25L195.11 59.27L196.49 64.86L201.63 66.43ZM216.65 50.35L215.27 44.76L210.13 43.19L206.37 47.21L207.76 52.80L212.90 54.37ZM121.32 67.80L119.92 62.22L114.79 60.67L111.06 64.69L112.46 70.27L117.58 71.82ZM112.46 70.27L111.06 64.69L105.93 63.14L102.20 67.16L103.60 72.73L108.73 74.29ZM123.66 58.20L122.26 52.62L117.13 51.07L113.40 55.09L114.79 60.67L119.92 62.22ZM114.79 60.67L113.40 55.09L108.27 53.54L104.54 57.57L105.93 63.14L111.06 64.69ZM127.84 74.93L126.44 69.35L121.32 67.80L117.58 71.82L118.98 77.39L124.10 78.95ZM118.98 77.39L117.58 71.82L112.46 70.27L108.73 74.29L110.12 79.86L115.24 81.41ZM130.18 65.33L128.79 59.75L123.66 58.20L119.92 62.22L121.32 67.80L126.44 69.35ZM97.08 65.61L95.68 60.04L90.56 58.49L86.83 62.52L88.23 68.09L93.35 69.63ZM88.23 68.09L86.83 62.52L81.71 60.97L77.98 64.99L79.38 70.56L84.50 72.11ZM99.41 56.02L98.01 50.44L92.89 48.89L89.16 52.92L90.56 58.49L95.68 60.04ZM90.56 58.49L89.16 52.92L84.03 51.37L80.31 55.40L81.71 60.97L86.83 62.52ZM103.60 72.73L102.20 67.16L97.08 65.61L93.35 69.63L94.75 75.20L99.87 76.75ZM94.75 75.20L93.35 69.63L88.23 68.09L84.50 72.11L85.90 77.68L91.02 79.22ZM105.93 63.14L104.54 57.57L99.41 56.02L95.68 60.04L97.08 65.61L102.20 67.16ZM134.87 46.13L133.48 40.55L128.34 39.00L124.61 43.02L126.00 48.60L131.13 50.15ZM126.00 48.60L124.61 43.02L119.47 41.47L115.74 45.49L117.13 51.07L122.26 52.62ZM137.22 36.52L135.83 30.94L130.69 29.39L126.95 33.42L128.34 39.00L133.48 40.55ZM128.34 39.00L126.95 33.42L121.82 31.86L118.08 35.89L119.47 41.47L124.61 43.02ZM141.40 53.27L140.00 47.69L134.87 46.13L131.13 50.15L132.52 55.73L137.66 57.29ZM132.52 55.73L131.13 50.15L126.00 48.60L122.26 52.62L123.66 58.20L128.79 59.75ZM143.75 43.66L142.35 38.08L137.22 36.52L133.48 40.55L134.87 46.13L140.00 47.69ZM110.61 43.94L109.21 38.37L104.08 36.82L100.35 40.84L101.75 46.42L106.87 47.97ZM101.75 46.42L100.35 40.84L95.22 39.29L91.49 43.32L92.89 48.89L98.01 50.44ZM112.95 34.34L111.55 28.76L106.42 27.21L102.68 31.24L104.08 36.82L109.21 38.37ZM104.08 36.82L102.68 31.24L97.55 29.69L93.82 33.72L95.22 39.29L100.35 40.84ZM117.13 51.07L115.74 45.49L110.61 43.94L106.87 47.97L108.27 53.54L113.40 55.09ZM108.27 53.54L106.87 47.97L101.75 46.42L98.01 50.44L99.41 56.02L104.54 57.57ZM119.47 41.47L118.08 35.89L112.95 34.34L109.21 38.37L110.61 43.94L115.74 45.49ZM132.01 91.65L130.62 86.07L125.50 84.52L121.76 88.54L123.16 94.11L128.28 95.66ZM123.16 94.11L121.76 88.54L116.64 86.98L112.91 91.00L114.30 96.57L119.42 98.12ZM134.36 82.06L132.96 76.48L127.84 74.93L124.10 78.95L125.50 84.52L130.62 86.07ZM125.50 84.52L124.10 78.95L118.98 77.39L115.24 81.41L116.64 86.98L121.76 88.54ZM138.53 98.78L137.14 93.20L132.01 91.65L128.28 95.66L129.67 101.23L134.79 102.79ZM129.67 101.23L128.28 95.66L123.16 94.11L119.42 98.12L120.82 103.69L125.94 105.25ZM140.87 89.19L139.48 83.61L134.36 82.06L130.62 86.07L132.01 91.65L137.14 93.20ZM107.78 89.45L106.39 83.88L101.27 82.32L97.54 86.34L98.94 91.91L104.06 93.46ZM98.94 91.91L97.54 86.34L92.42 84.79L88.69 88.81L90.09 94.38L95.21 95.93ZM110.12 79.86L108.73 74.29L103.60 72.73L99.87 76.75L101.27 82.32L106.39 83.88ZM101.27 82.32L99.87 76.75L94.75 75.20L91.02 79.22L92.42 84.79L97.54 86.34ZM114.30 96.57L112.91 91.00L107.78 89.45L104.06 93.46L105.45 99.03L110.57 100.58ZM105.45 99.03L104.06 93.46L98.94 91.91L95.21 95.93L96.61 101.49L101.73 103.05ZM116.64 86.98L115.24 81.41L110.12 79.86L106.39 83.88L107.78 89.45L112.91 91.00ZM145.57 70.00L144.18 64.42L139.05 62.87L135.31 66.89L136.70 72.46L141.83 74.02ZM136.70 72.46L135.31 66.89L130.18 65.33L126.44 69.35L127.84 74.93L132.96 76.48ZM147.92 60.40L146.53 54.82L141.40 53.27L137.66 57.29L139.05 62.87L144.18 64.42ZM139.05 62.87L137.66 57.29L132.52 55.73L128.79 59.75L130.18 65.33L135.31 66.89ZM152.09 77.14L150.70 71.56L145.57 70.00L141.83 74.02L143.22 79.60L148.35 81.15ZM143.22 79.60L141.83 74.02L136.70 72.46L132.96 76.48L134.36 82.06L139.48 83.61ZM154.44 67.54L153.05 61.96L147.92 60.40L144.18 64.42L145.57 70.00L150.70 71.56ZM214.85 158.13L213.47 152.56L208.34 150.99L204.60 154.99L205.98 160.56L211.10 162.13ZM221.35 165.28L219.97 159.70L214.85 158.13L211.10 162.13L212.48 167.70L217.61 169.28ZM226.09 146.13L224.72 140.55L219.59 138.98L215.84 142.98L217.22 148.56L222.34 150.13ZM217.22 148.56L215.84 142.98L210.71 141.41L206.96 145.41L208.34 150.99L213.47 152.56ZM228.47 136.55L227.09 130.97L221.96 129.40L218.21 133.40L219.59 138.98L224.72 140.55ZM219.59 138.98L218.21 133.40L213.08 131.83L209.33 135.83L210.71 141.41L215.84 142.98ZM232.60 153.28L231.22 147.70L226.09 146.13L222.34 150.13L223.72 155.70L228.85 157.28ZM223.72 155.70L222.34 150.13L217.22 148.56L213.47 152.56L214.85 158.13L219.97 159.70ZM234.98 143.70L233.60 138.12L228.47 136.55L224.72 140.55L226.09 146.13L231.22 147.70ZM201.84 143.84L200.46 138.27L195.33 136.70L191.59 140.70L192.97 146.28L198.09 147.84ZM192.97 146.28L191.59 140.70L186.46 139.14L182.72 143.14L184.10 148.71L189.23 150.28ZM204.20 134.26L202.82 128.69L197.69 127.12L193.95 131.12L195.33 136.70L200.46 138.27ZM195.33 136.70L193.95 131.12L188.82 129.56L185.08 133.56L186.46 139.14L191.59 140.70ZM208.34 150.99L206.96 145.41L201.84 143.84L198.09 147.84L199.47 153.42L204.60 154.99ZM210.71 141.41L209.33 135.83L204.20 134.26L200.46 138.27L201.84 143.84L206.96 145.41ZM239.11 160.43L237.73 154.85L232.60 153.28L228.85 157.28L230.23 162.85L235.35 164.43ZM230.23 162.85L228.85 157.28L223.72 155.70L219.97 159.70L221.35 165.28L226.48 166.85ZM229.08 100.63L227.70 95.04L222.57 93.47L218.81 97.48L220.19 103.07L225.33 104.64ZM220.19 103.07L218.81 97.48L213.68 95.91L209.93 99.93L211.31 105.51L216.44 107.08ZM231.46 91.03L230.08 85.45L224.94 83.87L221.19 87.89L222.57 93.47L227.70 95.04ZM222.57 93.47L221.19 87.89L216.05 86.32L212.30 90.33L213.68 95.91L218.81 97.48ZM235.60 107.79L234.22 102.20L229.08 100.63L225.33 104.64L226.71 110.22L231.84 111.79ZM226.71 110.22L225.33 104.64L220.19 103.07L216.44 107.08L217.82 112.66L222.95 114.23ZM237.98 98.19L236.60 92.61L231.46 91.03L227.70 95.04L229.08 100.63L234.22 102.20ZM204.79 98.36L203.41 92.77L198.28 91.21L194.53 95.22L195.91 100.80L201.04 102.37ZM195.91 100.80L194.53 95.22L189.39 93.65L185.65 97.67L187.03 103.24L192.16 104.81ZM207.16 88.76L205.78 83.18L200.64 81.61L196.89 85.63L198.28 91.21L203.41 92.77ZM198.28 91.21L196.89 85.63L191.76 84.06L188.01 88.07L189.39 93.65L194.53 95.22ZM211.31 105.51L209.93 99.93L204.79 98.36L201.04 102.37L202.42 107.95L207.56 109.52ZM202.42 107.95L201.04 102.37L195.91 100.80L192.16 104.81L193.55 110.39L198.68 111.96ZM213.68 95.91L212.30 90.33L207.16 88.76L203.41 92.77L204.79 98.36L209.93 99.93ZM242.74 78.99L241.36 73.40L236.22 71.83L232.46 75.85L233.84 81.43L238.98 83.01ZM233.84 81.43L232.46 75.85L227.32 74.27L223.56 78.29L224.94 83.87L230.08 85.45ZM245.13 69.39L243.75 63.80L238.61 62.22L234.84 66.24L236.22 71.83L241.36 73.40ZM236.22 71.83L234.84 66.24L229.70 64.67L225.94 68.69L227.32 74.27L232.46 75.85ZM249.26 86.16L247.88 80.57L242.74 78.99L238.98 83.01L240.36 88.59L245.50 90.17ZM240.36 88.59L238.98 83.01L233.84 81.43L230.08 85.45L231.46 91.03L236.60 92.61ZM251.65 76.56L250.27 70.96L245.13 69.39L241.36 73.40L242.74 78.99L247.88 80.57ZM218.43 76.72L217.04 71.13L211.90 69.56L208.15 73.58L209.53 79.16L214.67 80.73ZM209.53 79.16L208.15 73.58L203.01 72.01L199.26 76.03L200.64 81.61L205.78 83.18ZM220.80 67.12L219.42 61.53L214.28 59.96L210.52 63.98L211.90 69.56L217.04 71.13ZM211.90 69.56L210.52 63.98L205.38 62.41L201.63 66.43L203.01 72.01L208.15 73.58ZM224.94 83.87L223.56 78.29L218.43 76.72L214.67 80.73L216.05 86.32L221.19 87.89ZM216.05 86.32L214.67 80.73L209.53 79.16L205.78 83.18L207.16 88.76L212.30 90.33ZM227.32 74.27L225.94 68.69L220.80 67.12L217.04 71.13L218.43 76.72L223.56 78.29ZM239.73 124.53L238.35 118.95L233.22 117.38L229.47 121.38L230.84 126.96L235.98 128.54ZM230.84 126.96L229.47 121.38L224.33 119.81L220.58 123.82L221.96 129.40L227.09 130.97ZM242.11 114.94L240.73 109.36L235.60 107.79L231.84 111.79L233.22 117.38L238.35 118.95ZM233.22 117.38L231.84 111.79L226.71 110.22L222.95 114.23L224.33 119.81L229.47 121.38ZM246.24 131.69L244.87 126.11L239.73 124.53L235.98 128.54L237.35 134.12L242.49 135.69ZM237.35 134.12L235.98 128.54L230.84 126.96L227.09 130.97L228.47 136.55L233.60 138.12ZM248.62 122.10L247.25 116.52L242.11 114.94L238.35 118.95L239.73 124.53L244.87 126.11ZM215.45 122.24L214.07 116.67L208.94 115.10L205.19 119.10L206.57 124.68L211.70 126.25ZM206.57 124.68L205.19 119.10L200.06 117.53L196.31 121.54L197.69 127.12L202.82 128.69ZM217.82 112.66L216.44 107.08L211.31 105.51L207.56 109.52L208.94 115.10L214.07 116.67ZM208.94 115.10L207.56 109.52L202.42 107.95L198.68 111.96L200.06 117.53L205.19 119.10ZM221.96 129.40L220.58 123.82L215.45 122.24L211.70 126.25L213.08 131.83L218.21 133.40ZM213.08 131.83L211.70 126.25L206.57 124.68L202.82 128.69L204.20 134.26L209.33 135.83ZM224.33 119.81L222.95 114.23L217.82 112.66L214.07 116.67L215.45 122.24L220.58 123.82ZM253.39 102.92L252.02 97.33L246.88 95.76L243.12 99.77L244.49 105.35L249.63 106.93ZM244.49 105.35L243.12 99.77L237.98 98.19L234.22 102.20L235.60 107.79L240.73 109.36ZM255.78 93.32L254.40 87.73L249.26 86.16L245.50 90.17L246.88 95.76L252.02 97.33ZM246.88 95.76L245.50 90.17L240.36 88.59L236.60 92.61L237.98 98.19L243.12 99.77ZM259.91 110.08L258.53 104.50L253.39 102.92L249.63 106.93L251.01 112.51L256.14 114.09ZM251.01 112.51L249.63 106.93L244.49 105.35L240.73 109.36L242.11 114.94L247.25 116.52ZM262.29 100.49L260.92 94.90L255.78 93.32L252.02 97.33L253.39 102.92L258.53 104.50ZM6.44 99.98L5.03 94.42L-0.08 92.89L-3.78 96.91L-2.37 102.46L2.74 104.00ZM11.04 80.82L9.63 75.27L4.52 73.73L0.81 77.76L2.22 83.31L7.33 84.85ZM2.22 83.31L0.81 77.76L-4.30 76.22L-8.00 80.25L-6.59 85.80L-1.48 87.33ZM13.34 71.24L11.93 65.68L6.82 64.15L3.11 68.17L4.52 73.73L9.63 75.27ZM4.52 73.73L3.11 68.17L-2.00 66.64L-5.71 70.67L-4.30 76.22L0.81 77.76ZM8.74 90.40L7.33 84.85L2.22 83.31L-1.48 87.33L-0.08 92.89L5.03 94.42ZM13.72 35.37L12.31 29.81L7.19 28.28L3.48 32.31L4.89 37.87L10.01 39.40ZM4.89 37.87L3.48 32.31L-1.64 30.78L-5.34 34.81L-3.93 40.37L1.18 41.90ZM16.03 25.78L14.62 20.21L9.50 18.68L5.78 22.71L7.19 28.28L12.31 29.81ZM7.19 28.28L5.78 22.71L0.66 21.18L-3.05 25.21L-1.64 30.78L3.48 32.31ZM20.25 42.47L18.84 36.91L13.72 35.37L10.01 39.40L11.42 44.97L16.54 46.50ZM11.42 44.97L10.01 39.40L4.89 37.87L1.18 41.90L2.59 47.46L7.71 49.00ZM22.55 32.88L21.15 27.31L16.03 25.78L12.31 29.81L13.72 35.37L18.84 36.91ZM27.17 13.68L25.76 8.10L20.64 6.57L16.92 10.61L18.33 16.17L23.45 17.71ZM18.33 16.17L16.92 10.61L11.80 9.07L8.09 13.11L9.50 18.68L14.62 20.21ZM29.48 4.07L28.07 -1.50L22.95 -3.04L19.23 1.00L20.64 6.57L25.76 8.10ZM20.64 6.57L19.23 1.00L14.11 -0.53L10.39 3.50L11.80 9.07L16.92 10.61ZM33.70 20.78L32.30 15.21L27.17 13.68L23.45 17.71L24.86 23.28L29.98 24.81ZM24.86 23.28L23.45 17.71L18.33 16.17L14.62 20.21L16.03 25.78L21.15 27.31ZM36.01 11.18L34.61 5.60L29.48 4.07L25.76 8.10L27.17 13.68L32.30 15.21ZM2.96 11.58L1.55 6.01L-3.57 4.48L-7.28 8.51L-5.87 14.08L-0.75 15.61ZM5.27 1.97L3.86 -3.60L-1.27 -5.13L-4.98 -1.09L-3.57 4.48L1.55 6.01ZM9.50 18.68L8.09 13.11L2.96 11.58L-0.75 15.61L0.66 21.18L5.78 22.71ZM0.66 21.18L-0.75 15.61L-5.87 14.08L-9.58 18.12L-8.16 23.68L-3.05 25.21ZM11.80 9.07L10.39 3.50L5.27 1.97L1.55 6.01L2.96 11.58L8.09 13.11ZM24.47 59.17L23.06 53.60L17.94 52.07L14.23 56.09L15.64 61.66L20.75 63.19ZM15.64 61.66L14.23 56.09L9.12 54.56L5.41 58.59L6.82 64.15L11.93 65.68ZM26.77 49.58L25.37 44.01L20.25 42.47L16.54 46.50L17.94 52.07L23.06 53.60ZM17.94 52.07L16.54 46.50L11.42 44.97L7.71 49.00L9.12 54.56L14.23 56.09ZM30.99 66.27L29.58 60.70L24.47 59.17L20.75 63.19L22.16 68.75L27.28 70.29ZM22.16 68.75L20.75 63.19L15.64 61.66L11.93 65.68L13.34 71.24L18.45 72.78ZM33.30 56.68L31.89 51.11L26.77 49.58L23.06 53.60L24.47 59.17L29.58 60.70ZM0.29 57.05L-1.11 51.49L-6.23 49.96L-9.93 53.99L-8.52 59.55L-3.41 61.08ZM2.59 47.46L1.18 41.90L-3.93 40.37L-7.64 44.40L-6.23 49.96L-1.11 51.49ZM6.82 64.15L5.41 58.59L0.29 57.05L-3.41 61.08L-2.00 66.64L3.11 68.17ZM9.12 54.56L7.71 49.00L2.59 47.46L-1.11 51.49L0.29 57.05L5.41 58.59ZM37.92 37.49L36.51 31.92L31.39 30.38L27.67 34.41L29.08 39.98L34.20 41.52ZM29.08 39.98L27.67 34.41L22.55 32.88L18.84 36.91L20.25 42.47L25.37 44.01ZM40.23 27.89L38.83 22.32L33.70 20.78L29.98 24.81L31.39 30.38L36.51 31.92ZM31.39 30.38L29.98 24.81L24.86 23.28L21.15 27.31L22.55 32.88L27.67 34.41ZM44.44 44.60L43.04 39.03L37.92 37.49L34.20 41.52L35.61 47.09L40.73 48.62ZM35.61 47.09L34.20 41.52L29.08 39.98L25.37 44.01L26.77 49.58L31.89 51.11ZM46.76 35.00L45.36 29.43L40.23 27.89L36.51 31.92L37.92 37.49L43.04 39.03ZM59.38 85.10L57.98 79.54L52.86 77.99L49.14 82.01L50.55 87.58L55.66 89.12ZM61.70 75.51L60.30 69.95L55.18 68.40L51.46 72.43L52.86 77.99L57.98 79.54ZM52.86 77.99L51.46 72.43L46.34 70.89L42.62 74.91L44.03 80.47L49.14 82.01ZM68.21 82.62L66.82 77.06L61.70 75.51L57.98 79.54L59.38 85.10L64.50 86.64ZM37.51 73.37L36.10 67.81L30.99 66.27L27.28 70.29L28.68 75.85L33.80 77.39ZM28.68 75.85L27.28 70.29L22.16 68.75L18.45 72.78L19.86 78.34L24.97 79.88ZM44.03 80.47L42.62 74.91L37.51 73.37L33.80 77.39L35.20 82.95L40.31 84.49ZM72.86 63.45L71.46 57.88L66.34 56.33L62.61 60.36L64.01 65.92L69.14 67.47ZM64.01 65.92L62.61 60.36L57.49 58.81L53.77 62.84L55.18 68.40L60.30 69.95ZM75.18 53.85L73.78 48.28L68.66 46.74L64.93 50.76L66.34 56.33L71.46 57.88ZM66.34 56.33L64.93 50.76L59.81 49.22L56.09 53.25L57.49 58.81L62.61 60.36ZM79.38 70.56L77.98 64.99L72.86 63.45L69.14 67.47L70.54 73.04L75.66 74.58ZM70.54 73.04L69.14 67.47L64.01 65.92L60.30 69.95L61.70 75.51L66.82 77.06ZM81.71 60.97L80.31 55.40L75.18 53.85L71.46 57.88L72.86 63.45L77.98 64.99ZM48.65 61.30L47.25 55.73L42.13 54.19L38.41 58.22L39.82 63.78L44.94 65.32ZM39.82 63.78L38.41 58.22L33.30 56.68L29.58 60.70L30.99 66.27L36.10 67.81ZM50.97 51.70L49.57 46.14L44.44 44.60L40.73 48.62L42.13 54.19L47.25 55.73ZM42.13 54.19L40.73 48.62L35.61 47.09L31.89 51.11L33.30 56.68L38.41 58.22ZM55.18 68.40L53.77 62.84L48.65 61.30L44.94 65.32L46.34 70.89L51.46 72.43ZM46.34 70.89L44.94 65.32L39.82 63.78L36.10 67.81L37.51 73.37L42.62 74.91ZM57.49 58.81L56.09 53.25L50.97 51.70L47.25 55.73L48.65 61.30L53.77 62.84ZM83.57 87.26L82.18 81.70L77.06 80.15L73.33 84.17L74.73 89.73L79.85 91.28ZM74.73 89.73L73.33 84.17L68.21 82.62L64.50 86.64L65.90 92.21L71.01 93.75ZM85.90 77.68L84.50 72.11L79.38 70.56L75.66 74.58L77.06 80.15L82.18 81.70ZM77.06 80.15L75.66 74.58L70.54 73.04L66.82 77.06L68.21 82.62L73.33 84.17ZM92.42 84.79L91.02 79.22L85.90 77.68L82.18 81.70L83.57 87.26L88.69 88.81Z"/><path data-band="2" fill="#f97316" fill-opacity="0.35" d="M246.40 -2.66L245.02 -8.26L239.86 -9.83L236.09 -5.80L237.47 -0.20L242.63 1.37ZM213.10 -2.45L211.72 -8.05L206.57 -9.61L202.81 -5.58L204.19 0.02L209.34 1.58ZM204.19 0.02L202.81 -5.58L197.66 -7.14L193.90 -3.11L195.28 2.48L200.43 4.05ZM179.85 -2.21L178.46 -7.80L173.31 -9.36L169.56 -5.33L170.95 0.26L176.09 1.83ZM254.68 30.94L253.30 25.34L248.15 23.77L244.38 27.79L245.76 33.39L250.91 34.96ZM259.47 11.69L258.09 6.09L252.93 4.52L249.16 8.54L250.54 14.14L255.69 15.72ZM250.54 14.14L249.16 8.54L244.01 6.97L240.24 11.00L241.62 16.59L246.77 18.17ZM261.86 2.06L260.48 -3.54L255.33 -5.12L251.55 -1.09L252.93 4.52L258.09 6.09ZM252.93 4.52L251.55 -1.09L246.40 -2.66L242.63 1.37L244.01 6.97L249.16 8.54ZM266.00 18.87L264.62 13.27L259.47 11.69L255.69 15.72L257.07 21.32L262.22 22.89ZM257.07 21.32L255.69 15.72L250.54 14.14L246.77 18.17L248.15 23.77L253.30 25.34ZM235.09 9.42L233.71 3.83L228.55 2.26L224.79 6.28L226.17 11.88L231.32 13.45ZM226.17 11.88L224.79 6.28L219.64 4.72L215.87 8.74L217.26 14.34L222.41 15.91ZM237.47 -0.20L236.09 -5.80L230.94 -7.37L227.17 -3.34L228.55 2.26L233.71 3.83ZM228.55 2.26L227.17 -3.34L222.02 -4.91L218.25 -0.88L219.64 4.72L224.79 6.28ZM241.62 16.59L240.24 11.00L235.09 9.42L231.32 13.45L232.70 19.05L237.85 20.62ZM244.01 6.97L242.63 1.37L237.47 -0.20L233.71 3.83L235.09 9.42L240.24 11.00ZM263.60 28.49L262.22 22.89L257.07 21.32L253.30 25.34L254.68 30.94L259.83 32.51Z"/></svg>
