<svg xmlns="http://www.w3.org/2000/svg" width="256" height="256" viewBox="0 0 256 256"><path data-band="1" fill="#fde68a" fill-opacity="0.35" d="M32.84 243.93L32.20 240.91L29.41 240.02L27.26 242.16L27.89 245.18L30.69 246.06ZM27.89 245.18L27.26 242.16L24.46 241.28L22.31 243.42L22.95 246.44L25.74 247.32ZM34.36 238.77L33.72 235.75L30.93 234.86L28.77 237.00L29.41 240.02L32.20 240.91ZM29.41 240.02L28.77 237.00L25.98 236.12L23.82 238.26L24.46 241.28L27.26 242.16ZM36.27 247.83L35.63 244.81L32.84 243.93L30.69 246.06L31.32 249.08L34.11 249.97ZM31.32 249.08L30.69 246.06L27.89 245.18L25.74 247.32L26.38 250.34L29.17 251.22ZM37.79 242.67L37.15 239.65L34.36 238.77L32.20 240.91L32.84 243.93L35.63 244.81ZM19.52 242.54L18.88 239.52L16.09 238.64L13.93 240.78L14.57 243.80L17.36 244.68ZM21.03 237.38L20.39 234.36L17.60 233.48L15.45 235.62L16.09 238.64L18.88 239.52ZM16.09 238.64L15.45 235.62L12.65 234.74L10.50 236.88L11.14 239.90L13.93 240.78ZM22.95 246.44L22.31 243.42L19.52 242.54L17.36 244.68L18.00 247.70L20.79 248.58ZM24.46 241.28L23.82 238.26L21.03 237.38L18.88 239.52L19.52 242.54L22.31 243.42ZM40.84 232.35L40.20 229.33L37.40 228.44L35.24 230.58L35.88 233.61L38.68 234.49ZM35.88 233.61L35.24 230.58L32.45 229.70L30.29 231.84L30.93 234.86L33.72 235.75ZM42.36 227.19L41.72 224.16L38.93 223.28L36.77 225.42L37.40 228.44L40.20 229.33ZM37.40 228.44L36.77 225.42L33.97 224.54L31.81 226.68L32.45 229.70L35.24 230.58ZM44.27 236.26L43.63 233.23L40.84 232.35L38.68 234.49L39.31 237.51L42.11 238.40ZM39.31 237.51L38.68 234.49L35.88 233.61L33.72 235.75L34.36 238.77L37.15 239.65ZM45.79 231.10L45.16 228.07L42.36 227.19L40.20 229.33L40.84 232.35L43.63 233.23ZM27.50 230.96L26.86 227.94L24.06 227.06L21.91 229.20L22.55 232.22L25.34 233.10ZM22.55 232.22L21.91 229.20L19.11 228.32L16.96 230.46L17.60 233.48L20.39 234.36ZM29.02 225.80L28.38 222.77L25.58 221.89L23.42 224.03L24.06 227.06L26.86 227.94ZM24.06 227.06L23.42 224.03L20.63 223.15L18.47 225.30L19.11 228.32L21.91 229.20ZM30.93 234.86L30.29 231.84L27.50 230.96L25.34 233.10L25.98 236.12L28.77 237.00ZM25.98 236.12L25.34 233.10L22.55 232.22L20.39 234.36L21.03 237.38L23.82 238.26ZM32.45 229.70L31.81 226.68L29.02 225.80L26.86 227.94L27.50 230.96L30.29 231.84ZM38.18 256.89L37.54 253.87L34.75 252.99L32.60 255.12L33.23 258.14L36.02 259.03ZM33.23 258.14L32.60 255.12L29.81 254.24L27.65 256.38L28.29 259.40L31.08 260.28ZM39.70 251.74L39.06 248.71L36.27 247.83L34.11 249.97L34.75 252.99L37.54 253.87ZM34.75 252.99L34.11 249.97L31.32 249.08L29.17 251.22L29.81 254.24L32.60 255.12ZM43.13 255.64L42.49 252.62L39.70 251.74L37.54 253.87L38.18 256.89L40.97 257.78ZM24.86 255.50L24.22 252.48L21.43 251.60L19.28 253.73L19.92 256.75L22.71 257.63ZM19.92 256.75L19.28 253.73L16.49 252.85L14.34 254.99L14.98 258.01L17.77 258.89ZM26.38 250.34L25.74 247.32L22.95 246.44L20.79 248.58L21.43 251.60L24.22 252.48ZM21.43 251.60L20.79 248.58L18.00 247.70L15.85 249.84L16.49 252.85L19.28 253.73ZM28.29 259.40L27.65 256.38L24.86 255.50L22.71 257.63L23.35 260.65L26.14 261.53ZM29.81 254.24L29.17 251.22L26.38 250.34L24.22 252.48L24.86 255.50L27.65 256.38ZM46.17 245.33L45.54 242.30L42.74 241.42L40.58 243.56L41.22 246.58L44.01 247.46ZM41.22 246.58L40.58 243.56L37.79 242.67L35.63 244.81L36.27 247.83L39.06 248.71ZM47.70 240.17L47.06 237.14L44.27 236.26L42.11 238.40L42.74 241.42L45.54 242.30ZM42.74 241.42L42.11 238.40L39.31 237.51L37.15 239.65L37.79 242.67L40.58 243.56ZM49.60 249.23L48.97 246.21L46.17 245.33L44.01 247.46L44.65 250.48L47.44 251.37ZM44.65 250.48L44.01 247.46L41.22 246.58L39.06 248.71L39.70 251.74L42.49 252.62ZM51.13 244.08L50.49 241.05L47.70 240.17L45.54 242.30L46.17 245.33L48.97 246.21ZM64.84 259.72L64.20 256.69L61.41 255.81L59.25 257.94L59.88 260.96L62.67 261.85ZM66.37 254.56L65.73 251.54L62.94 250.65L60.78 252.78L61.41 255.81L64.20 256.69ZM61.41 255.81L60.78 252.78L57.98 251.89L55.82 254.03L56.46 257.05L59.25 257.94ZM69.79 258.47L69.16 255.45L66.37 254.56L64.20 256.69L64.84 259.72L67.63 260.61ZM51.50 258.30L50.87 255.28L48.08 254.39L45.92 256.53L46.55 259.55L49.35 260.43ZM46.55 259.55L45.92 256.53L43.13 255.64L40.97 257.78L41.61 260.79L44.40 261.68ZM53.03 253.14L52.39 250.12L49.60 249.23L47.44 251.37L48.08 254.39L50.87 255.28ZM48.08 254.39L47.44 251.37L44.65 250.48L42.49 252.62L43.13 255.64L45.92 256.53ZM56.46 257.05L55.82 254.03L53.03 253.14L50.87 255.28L51.50 258.30L54.30 259.19ZM64.90 197.57L64.27 194.54L61.46 193.65L59.30 195.80L59.93 198.83L62.73 199.71ZM59.93 198.83L59.30 195.80L56.49 194.91L54.32 197.05L54.96 200.08L57.76 200.97ZM61.46 193.65L60.83 190.62L58.02 189.73L55.86 191.88L56.49 194.91L59.30 195.80ZM68.34 201.49L67.71 198.46L64.90 197.57L62.73 199.71L63.37 202.74L66.17 203.63ZM63.37 202.74L62.73 199.71L59.93 198.83L57.76 200.97L58.40 204.00L61.20 204.89ZM70.24 210.58L69.61 207.55L66.80 206.66L64.64 208.80L65.27 211.83L68.07 212.72ZM65.27 211.83L64.64 208.80L61.83 207.92L59.67 210.06L60.30 213.09L63.10 213.98ZM71.78 205.41L71.14 202.38L68.34 201.49L66.17 203.63L66.80 206.66L69.61 207.55ZM66.80 206.66L66.17 203.63L63.37 202.74L61.20 204.89L61.83 207.92L64.64 208.80ZM73.67 214.50L73.04 211.47L70.24 210.58L68.07 212.72L68.70 215.75L71.50 216.64ZM68.70 215.75L68.07 212.72L65.27 211.83L63.10 213.98L63.74 217.00L66.54 217.89ZM43.50 207.77L42.86 204.75L40.06 203.86L37.90 206.01L38.54 209.03L41.34 209.92ZM38.54 209.03L37.90 206.01L35.10 205.12L32.94 207.27L33.58 210.29L36.38 211.18ZM45.03 202.60L44.39 199.57L41.59 198.69L39.42 200.83L40.06 203.86L42.86 204.75ZM40.06 203.86L39.42 200.83L36.62 199.95L34.46 202.10L35.10 205.12L37.90 206.01ZM46.94 211.69L46.30 208.66L43.50 207.77L41.34 209.92L41.97 212.94L44.77 213.83ZM41.97 212.94L41.34 209.92L38.54 209.03L36.38 211.18L37.01 214.20L39.81 215.09ZM48.46 206.51L47.83 203.49L45.03 202.60L42.86 204.75L43.50 207.77L46.30 208.66ZM30.14 206.39L29.50 203.36L26.70 202.48L24.54 204.63L25.18 207.65L27.98 208.53ZM25.18 207.65L24.54 204.63L21.74 203.75L19.59 205.89L20.23 208.92L23.02 209.80ZM31.66 201.22L31.02 198.19L28.22 197.31L26.06 199.45L26.70 202.48L29.50 203.36ZM26.70 202.48L26.06 199.45L23.26 198.57L21.10 200.72L21.74 203.75L24.54 204.63ZM33.58 210.29L32.94 207.27L30.14 206.39L27.98 208.53L28.62 211.56L31.42 212.44ZM28.62 211.56L27.98 208.53L25.18 207.65L23.02 209.80L23.66 212.82L26.46 213.70ZM35.10 205.12L34.46 202.10L31.66 201.22L29.50 203.36L30.14 206.39L32.94 207.27ZM51.52 196.17L50.89 193.14L48.08 192.25L45.92 194.40L46.55 197.43L49.36 198.31ZM46.55 197.43L45.92 194.40L43.12 193.52L40.95 195.66L41.59 198.69L44.39 199.57ZM53.05 190.99L52.42 187.96L49.61 187.08L47.45 189.22L48.08 192.25L50.89 193.14ZM48.08 192.25L47.45 189.22L44.64 188.34L42.48 190.49L43.12 193.52L45.92 194.40ZM54.96 200.08L54.32 197.05L51.52 196.17L49.36 198.31L49.99 201.34L52.79 202.23ZM49.99 201.34L49.36 198.31L46.55 197.43L44.39 199.57L45.03 202.60L47.83 203.49ZM56.49 194.91L55.86 191.88L53.05 190.99L50.89 193.14L51.52 196.17L54.32 197.05ZM38.15 194.78L37.51 191.75L34.71 190.87L32.55 193.01L33.19 196.04L35.99 196.92ZM33.19 196.04L32.55 193.01L29.75 192.13L27.58 194.28L28.22 197.31L31.02 198.19ZM39.68 189.60L39.04 186.57L36.23 185.69L34.07 187.84L34.71 190.87L37.51 191.75ZM34.71 190.87L34.07 187.84L31.27 186.96L29.11 189.10L29.75 192.13L32.55 193.01ZM41.59 198.69L40.95 195.66L38.15 194.78L35.99 196.92L36.62 199.95L39.42 200.83ZM36.62 199.95L35.99 196.92L33.19 196.04L31.02 198.19L31.66 201.22L34.46 202.10ZM43.12 193.52L42.48 190.49L39.68 189.60L37.51 191.75L38.15 194.78L40.95 195.66ZM48.84 220.77L48.21 217.74L45.41 216.85L43.25 219.00L43.88 222.02L46.68 222.91ZM43.88 222.02L43.25 219.00L40.45 218.11L38.29 220.25L38.93 223.28L41.72 224.16ZM50.37 215.60L49.74 212.57L46.94 211.69L44.77 213.83L45.41 216.85L48.21 217.74ZM45.41 216.85L44.77 213.83L41.97 212.94L39.81 215.09L40.45 218.11L43.25 219.00ZM52.28 224.68L51.64 221.65L48.84 220.77L46.68 222.91L47.32 225.93L50.11 226.82ZM47.32 225.93L46.68 222.91L43.88 222.02L41.72 224.16L42.36 227.19L45.16 228.07ZM53.81 219.51L53.17 216.48L50.37 215.60L48.21 217.74L48.84 220.77L51.64 221.65ZM35.49 219.37L34.85 216.35L32.06 215.46L29.90 217.61L30.54 220.63L33.33 221.51ZM30.54 220.63L29.90 217.61L27.10 216.72L24.94 218.87L25.58 221.89L28.38 222.77ZM37.01 214.20L36.38 211.18L33.58 210.29L31.42 212.44L32.06 215.46L34.85 216.35ZM32.06 215.46L31.42 212.44L28.62 211.56L26.46 213.70L27.10 216.72L29.90 217.61ZM38.93 223.28L38.29 220.25L35.49 219.37L33.33 221.51L33.97 224.54L36.77 225.42ZM33.97 224.54L33.33 221.51L30.54 220.63L28.38 222.77L29.02 225.80L31.81 226.68ZM40.45 218.11L39.81 215.09L37.01 214.20L34.85 216.35L35.49 219.37L38.29 220.25ZM56.87 209.17L56.23 206.14L53.43 205.26L51.26 207.40L51.90 210.43L54.70 211.31ZM51.90 210.43L51.26 207.40L48.46 206.51L46.30 208.66L46.94 211.69L49.74 212.57ZM58.40 204.00L57.76 200.97L54.96 200.08L52.79 202.23L53.43 205.26L56.23 206.14ZM53.43 205.26L52.79 202.23L49.99 201.34L47.83 203.49L48.46 206.51L51.26 207.40ZM60.30 213.09L59.67 210.06L56.87 209.17L54.70 211.31L55.33 214.34L58.13 215.23ZM55.33 214.34L54.70 211.31L51.90 210.43L49.74 212.57L50.37 215.60L53.17 216.48ZM61.83 207.92L61.20 204.89L58.40 204.00L56.23 206.14L56.87 209.17L59.67 210.06ZM54.21 171.54L53.57 168.50L50.77 167.62L48.60 169.77L49.23 172.80L52.04 173.68ZM49.23 172.80L48.60 169.77L45.79 168.88L43.62 171.03L44.26 174.07L47.06 174.95ZM52.68 176.72L52.04 173.68L49.23 172.80L47.06 174.95L47.70 177.98L50.51 178.87ZM40.82 170.15L40.18 167.12L37.37 166.24L35.20 168.39L35.84 171.42L38.65 172.30ZM35.84 171.42L35.20 168.39L32.40 167.51L30.23 169.66L30.87 172.69L33.68 173.57ZM42.34 164.97L41.71 161.93L38.90 161.05L36.73 163.20L37.37 166.24L40.18 167.12ZM37.37 166.24L36.73 163.20L33.92 162.32L31.76 164.47L32.40 167.51L35.20 168.39ZM44.26 174.07L43.62 171.03L40.82 170.15L38.65 172.30L39.29 175.33L42.09 176.21ZM39.29 175.33L38.65 172.30L35.84 171.42L33.68 173.57L34.32 176.60L37.12 177.48ZM45.79 168.88L45.15 165.85L42.34 164.97L40.18 167.12L40.82 170.15L43.62 171.03ZM47.32 163.70L46.68 160.66L43.87 159.78L41.71 161.93L42.34 164.97L45.15 165.85ZM54.58 185.82L53.95 182.78L51.14 181.90L48.98 184.05L49.61 187.08L52.42 187.96ZM58.02 189.73L57.39 186.70L54.58 185.82L52.42 187.96L53.05 190.99L55.86 191.88ZM46.17 183.16L45.53 180.13L42.73 179.25L40.56 181.39L41.20 184.43L44.01 185.31ZM41.20 184.43L40.56 181.39L37.76 180.51L35.60 182.66L36.23 185.69L39.04 186.57ZM47.70 177.98L47.06 174.95L44.26 174.07L42.09 176.21L42.73 179.25L45.53 180.13ZM42.73 179.25L42.09 176.21L39.29 175.33L37.12 177.48L37.76 180.51L40.56 181.39ZM49.61 187.08L48.98 184.05L46.17 183.16L44.01 185.31L44.64 188.34L47.45 189.22ZM44.64 188.34L44.01 185.31L41.20 184.43L39.04 186.57L39.68 189.60L42.48 190.49ZM51.14 181.90L50.51 178.87L47.70 177.98L45.53 180.13L46.17 183.16L48.98 184.05ZM67.53 235.17L66.90 232.14L64.10 231.25L61.94 233.39L62.57 236.42L65.37 237.30ZM62.57 236.42L61.94 233.39L59.14 232.50L56.98 234.64L57.61 237.66L60.41 238.55ZM69.07 230.00L68.43 226.98L65.63 226.09L63.47 228.23L64.10 231.25L66.90 232.14ZM64.10 231.25L63.47 228.23L60.67 227.34L58.51 229.48L59.14 232.50L61.94 233.39ZM70.96 239.08L70.33 236.06L67.53 235.17L65.37 237.30L66.00 240.33L68.80 241.22ZM66.00 240.33L65.37 237.30L62.57 236.42L60.41 238.55L61.04 241.58L63.84 242.47ZM72.50 233.92L71.87 230.89L69.07 230.00L66.90 232.14L67.53 235.17L70.33 236.06ZM54.18 233.75L53.55 230.73L50.75 229.84L48.59 231.98L49.22 235.00L52.02 235.89ZM49.22 235.00L48.59 231.98L45.79 231.10L43.63 233.23L44.27 236.26L47.06 237.14ZM55.71 228.59L55.07 225.56L52.28 224.68L50.11 226.82L50.75 229.84L53.55 230.73ZM50.75 229.84L50.11 226.82L47.32 225.93L45.16 228.07L45.79 231.10L48.59 231.98ZM57.61 237.66L56.98 234.64L54.18 233.75L52.02 235.89L52.65 238.91L55.45 239.80ZM52.65 238.91L52.02 235.89L49.22 235.00L47.06 237.14L47.70 240.17L50.49 241.05ZM59.14 232.50L58.51 229.48L55.71 228.59L53.55 230.73L54.18 233.75L56.98 234.64ZM75.57 223.59L74.94 220.56L72.14 219.67L69.97 221.81L70.60 224.84L73.40 225.73ZM70.60 224.84L69.97 221.81L67.17 220.92L65.00 223.06L65.63 226.09L68.43 226.98ZM72.14 219.67L71.50 216.64L68.70 215.75L66.54 217.89L67.17 220.92L69.97 221.81ZM79.00 227.51L78.37 224.48L75.57 223.59L73.40 225.73L74.03 228.76L76.83 229.65ZM74.03 228.76L73.40 225.73L70.60 224.84L68.43 226.98L69.07 230.00L71.87 230.89ZM62.20 222.17L61.57 219.14L58.77 218.26L56.60 220.40L57.24 223.42L60.04 224.31ZM57.24 223.42L56.60 220.40L53.81 219.51L51.64 221.65L52.28 224.68L55.07 225.56ZM63.74 217.00L63.10 213.98L60.30 213.09L58.13 215.23L58.77 218.26L61.57 219.14ZM58.77 218.26L58.13 215.23L55.33 214.34L53.17 216.48L53.81 219.51L56.60 220.40ZM65.63 226.09L65.00 223.06L62.20 222.17L60.04 224.31L60.67 227.34L63.47 228.23ZM60.67 227.34L60.04 224.31L57.24 223.42L55.07 225.56L55.71 228.59L58.51 229.48ZM67.17 220.92L66.54 217.89L63.74 217.00L61.57 219.14L62.20 222.17L65.00 223.06ZM72.86 248.16L72.23 245.13L69.43 244.24L67.26 246.38L67.90 249.40L70.69 250.29ZM67.90 249.40L67.26 246.38L64.47 245.49L62.31 247.63L62.94 250.65L65.73 251.54ZM74.39 243.00L73.76 239.97L70.96 239.08L68.80 241.22L69.43 244.24L72.23 245.13ZM69.43 244.24L68.80 241.22L66.00 240.33L63.84 242.47L64.47 245.49L67.26 246.38ZM76.28 252.08L75.65 249.05L72.86 248.16L70.69 250.29L71.32 253.32L74.12 254.21ZM71.32 253.32L70.69 250.29L67.90 249.40L65.73 251.54L66.37 254.56L69.16 255.45ZM77.82 246.92L77.19 243.89L74.39 243.00L72.23 245.13L72.86 248.16L75.65 249.05ZM59.51 246.74L58.88 243.71L56.08 242.83L53.92 244.96L54.56 247.98L57.35 248.87ZM54.56 247.98L53.92 244.96L51.13 244.08L48.97 246.21L49.60 249.23L52.39 250.12ZM61.04 241.58L60.41 238.55L57.61 237.66L55.45 239.80L56.08 242.83L58.88 243.71ZM56.08 242.83L55.45 239.80L52.65 238.91L50.49 241.05L51.13 244.08L53.92 244.96ZM62.94 250.65L62.31 247.63L59.51 246.74L57.35 248.87L57.98 251.89L60.78 252.78ZM57.98 251.89L57.35 248.87L54.56 247.98L52.39 250.12L53.03 253.14L55.82 254.03ZM64.47 245.49L63.84 242.47L61.04 241.58L58.88 243.71L59.51 246.74L62.31 247.63ZM80.89 236.59L80.26 233.57L77.46 232.68L75.30 234.81L75.93 237.84L78.72 238.73ZM75.93 237.84L75.30 234.81L72.50 233.92L70.33 236.06L70.96 239.08L73.76 239.97ZM77.46 232.68L76.83 229.65L74.03 228.76L71.87 230.89L72.50 233.92L75.30 234.81ZM84.32 240.51L83.69 237.49L80.89 236.59L78.72 238.73L79.36 241.76L82.15 242.65ZM79.36 241.76L78.72 238.73L75.93 237.84L73.76 239.97L74.39 243.00L77.19 243.89ZM85.86 235.35L85.23 232.32L82.43 231.43L80.26 233.57L80.89 236.59L83.69 237.49ZM1.52 194.58L0.87 191.55L-1.93 190.68L-4.08 192.83L-3.44 195.85L-0.64 196.73ZM3.03 189.40L2.38 186.38L-0.41 185.50L-2.57 187.65L-1.93 190.68L0.87 191.55ZM0.26 151.79L-0.39 148.76L-3.19 147.89L-5.35 150.04L-4.71 153.07L-1.90 153.95ZM3.29 141.41L2.64 138.38L-0.16 137.51L-2.32 139.67L-1.68 142.70L1.13 143.57ZM4.81 136.22L4.16 133.19L1.35 132.32L-0.81 134.48L-0.16 137.51L2.64 138.38ZM6.74 145.32L6.10 142.29L3.29 141.41L1.13 143.57L1.77 146.60L4.58 147.48ZM1.77 146.60L1.13 143.57L-1.68 142.70L-3.84 144.86L-3.19 147.89L-0.39 148.76ZM8.26 140.13L7.61 137.10L4.81 136.22L2.64 138.38L3.29 141.41L6.10 142.29ZM0.68 166.06L0.03 163.04L-2.77 162.16L-4.93 164.32L-4.28 167.34L-1.48 168.22ZM2.19 160.88L1.55 157.85L-1.26 156.98L-3.41 159.13L-2.77 162.16L0.03 163.04ZM4.12 169.97L3.48 166.94L0.68 166.06L-1.48 168.22L-0.84 171.25L1.97 172.12ZM5.64 164.79L5.00 161.76L2.19 160.88L0.03 163.04L0.68 166.06L3.48 166.94ZM8.67 154.42L8.03 151.39L5.22 150.51L3.06 152.67L3.71 155.70L6.51 156.57ZM3.71 155.70L3.06 152.67L0.26 151.79L-1.90 153.95L-1.26 156.98L1.55 157.85ZM10.19 149.23L9.55 146.20L6.74 145.32L4.58 147.48L5.22 150.51L8.03 151.39ZM5.22 150.51L4.58 147.48L1.77 146.60L-0.39 148.76L0.26 151.79L3.06 152.67ZM12.12 158.32L11.48 155.29L8.67 154.42L6.51 156.57L7.16 159.60L9.96 160.48ZM7.16 159.60L6.51 156.57L3.71 155.70L1.55 157.85L2.19 160.88L5.00 161.76ZM13.64 153.14L13.00 150.11L10.19 149.23L8.03 151.39L8.67 154.42L11.48 155.29ZM8.81 216.62L8.17 213.59L5.37 212.72L3.22 214.86L3.86 217.88L6.66 218.76ZM3.86 217.88L3.22 214.86L0.42 213.99L-1.73 216.13L-1.08 219.15L1.71 220.03ZM10.32 211.45L9.68 208.43L6.88 207.55L4.73 209.70L5.37 212.72L8.17 213.59ZM5.37 212.72L4.73 209.70L1.93 208.82L-0.22 210.97L0.42 213.99L3.22 214.86ZM12.24 220.52L11.60 217.49L8.81 216.62L6.66 218.76L7.30 221.78L10.09 222.66ZM7.30 221.78L6.66 218.76L3.86 217.88L1.71 220.03L2.35 223.05L5.14 223.93ZM13.76 215.35L13.12 212.33L10.32 211.45L8.17 213.59L8.81 216.62L11.60 217.49ZM16.79 205.01L16.15 201.99L13.35 201.11L11.19 203.26L11.84 206.28L14.63 207.16ZM11.84 206.28L11.19 203.26L8.40 202.38L6.24 204.53L6.88 207.55L9.68 208.43ZM18.31 199.84L17.67 196.82L14.87 195.94L12.71 198.08L13.35 201.11L16.15 201.99ZM13.35 201.11L12.71 198.08L9.91 197.21L7.75 199.35L8.40 202.38L11.19 203.26ZM20.23 208.92L19.59 205.89L16.79 205.01L14.63 207.16L15.27 210.18L18.07 211.06ZM15.27 210.18L14.63 207.16L11.84 206.28L9.68 208.43L10.32 211.45L13.12 212.33ZM21.74 203.75L21.10 200.72L18.31 199.84L16.15 201.99L16.79 205.01L19.59 205.89ZM3.44 203.65L2.80 200.63L0.01 199.75L-2.15 201.90L-1.50 204.92L1.29 205.80ZM4.96 198.48L4.31 195.45L1.52 194.58L-0.64 196.73L0.01 199.75L2.80 200.63ZM0.01 199.75L-0.64 196.73L-3.44 195.85L-5.59 198.00L-4.94 201.02L-2.15 201.90ZM6.88 207.55L6.24 204.53L3.44 203.65L1.29 205.80L1.93 208.82L4.73 209.70ZM1.93 208.82L1.29 205.80L-1.50 204.92L-3.66 207.07L-3.01 210.09L-0.22 210.97ZM8.40 202.38L7.75 199.35L4.96 198.48L2.80 200.63L3.44 203.65L6.24 204.53ZM14.17 229.58L13.53 226.56L10.73 225.68L8.58 227.82L9.22 230.84L12.01 231.72ZM9.22 230.84L8.58 227.82L5.79 226.95L3.63 229.09L4.28 232.11L7.07 232.99ZM15.68 224.42L15.04 221.39L12.24 220.52L10.09 222.66L10.73 225.68L13.53 226.56ZM10.73 225.68L10.09 222.66L7.30 221.78L5.14 223.93L5.79 226.95L8.58 227.82ZM17.60 233.48L16.96 230.46L14.17 229.58L12.01 231.72L12.65 234.74L15.45 235.62ZM12.65 234.74L12.01 231.72L9.22 230.84L7.07 232.99L7.71 236.00L10.50 236.88ZM19.11 228.32L18.47 225.30L15.68 224.42L13.53 226.56L14.17 229.58L16.96 230.46ZM22.15 217.99L21.51 214.96L18.71 214.08L16.55 216.23L17.19 219.25L19.99 220.13ZM17.19 219.25L16.55 216.23L13.76 215.35L11.60 217.49L12.24 220.52L15.04 221.39ZM23.66 212.82L23.02 209.80L20.23 208.92L18.07 211.06L18.71 214.08L21.51 214.96ZM18.71 214.08L18.07 211.06L15.27 210.18L13.12 212.33L13.76 215.35L16.55 216.23ZM25.58 221.89L24.94 218.87L22.15 217.99L19.99 220.13L20.63 223.15L23.42 224.03ZM20.63 223.15L19.99 220.13L17.19 219.25L15.04 221.39L15.68 224.42L18.47 225.30ZM27.10 216.72L26.46 213.70L23.66 212.82L21.51 214.96L22.15 217.99L24.94 218.87ZM19.42 180.41L18.78 177.38L15.98 176.50L13.82 178.65L14.46 181.68L17.26 182.56ZM14.46 181.68L13.82 178.65L11.01 177.78L8.86 179.93L9.50 182.95L12.30 183.83ZM20.94 175.23L20.30 172.20L17.50 171.32L15.33 173.47L15.98 176.50L18.78 177.38ZM15.98 176.50L15.33 173.47L12.53 172.60L10.37 174.75L11.01 177.78L13.82 178.65ZM22.86 184.32L22.22 181.29L19.42 180.41L17.26 182.56L17.90 185.59L20.70 186.47ZM17.90 185.59L17.26 182.56L14.46 181.68L12.30 183.83L12.94 186.86L15.74 187.74ZM24.38 179.14L23.74 176.11L20.94 175.23L18.78 177.38L19.42 180.41L22.22 181.29ZM6.06 179.05L5.41 176.02L2.61 175.15L0.45 177.30L1.10 180.33L3.90 181.20ZM1.10 180.33L0.45 177.30L-2.35 176.43L-4.50 178.58L-3.86 181.60L-1.06 182.48ZM7.57 173.87L6.93 170.84L4.12 169.97L1.97 172.12L2.61 175.15L5.41 176.02ZM2.61 175.15L1.97 172.12L-0.84 171.25L-2.99 173.40L-2.35 176.43L0.45 177.30ZM9.50 182.95L8.86 179.93L6.06 179.05L3.90 181.20L4.54 184.23L7.34 185.10ZM4.54 184.23L3.90 181.20L1.10 180.33L-1.06 182.48L-0.41 185.50L2.38 186.38ZM11.01 177.78L10.37 174.75L7.57 173.87L5.41 176.02L6.06 179.05L8.86 179.93ZM27.43 168.78L26.79 165.75L23.98 164.87L21.82 167.02L22.46 170.05L25.27 170.93ZM22.46 170.05L21.82 167.02L19.02 166.14L16.85 168.29L17.50 171.32L20.30 172.20ZM28.95 163.59L28.31 160.56L25.51 159.68L23.34 161.83L23.98 164.87L26.79 165.75ZM23.98 164.87L23.34 161.83L20.54 160.96L18.37 163.11L19.02 166.14L21.82 167.02ZM30.87 172.69L30.23 169.66L27.43 168.78L25.27 170.93L25.91 173.96L28.71 174.84ZM25.91 173.96L25.27 170.93L22.46 170.05L20.30 172.20L20.94 175.23L23.74 176.11ZM32.40 167.51L31.76 164.47L28.95 163.59L26.79 165.75L27.43 168.78L30.23 169.66ZM14.05 167.41L13.41 164.38L10.60 163.51L8.44 165.66L9.09 168.69L11.89 169.57ZM9.09 168.69L8.44 165.66L5.64 164.79L3.48 166.94L4.12 169.97L6.93 170.84ZM15.57 162.23L14.93 159.20L12.12 158.32L9.96 160.48L10.60 163.51L13.41 164.38ZM10.60 163.51L9.96 160.48L7.16 159.60L5.00 161.76L5.64 164.79L8.44 165.66ZM17.50 171.32L16.85 168.29L14.05 167.41L11.89 169.57L12.53 172.60L15.33 173.47ZM12.53 172.60L11.89 169.57L9.09 168.69L6.93 170.84L7.57 173.87L10.37 174.75ZM19.02 166.14L18.37 163.11L15.57 162.23L13.41 164.38L14.05 167.41L16.85 168.29ZM24.78 193.40L24.14 190.37L21.34 189.49L19.18 191.64L19.82 194.67L22.62 195.55ZM19.82 194.67L19.18 191.64L16.38 190.76L14.22 192.91L14.87 195.94L17.67 196.82ZM26.30 188.22L25.66 185.20L22.86 184.32L20.70 186.47L21.34 189.49L24.14 190.37ZM21.34 189.49L20.70 186.47L17.90 185.59L15.74 187.74L16.38 190.76L19.18 191.64ZM28.22 197.31L27.58 194.28L24.78 193.40L22.62 195.55L23.26 198.57L26.06 199.45ZM23.26 198.57L22.62 195.55L19.82 194.67L17.67 196.82L18.31 199.84L21.10 200.72ZM29.75 192.13L29.11 189.10L26.30 188.22L24.14 190.37L24.78 193.40L27.58 194.28ZM11.43 192.03L10.78 189.01L7.98 188.13L5.83 190.28L6.47 193.31L9.27 194.18ZM6.47 193.31L5.83 190.28L3.03 189.40L0.87 191.55L1.52 194.58L4.31 195.45ZM12.94 186.86L12.30 183.83L9.50 182.95L7.34 185.10L7.98 188.13L10.78 189.01ZM7.98 188.13L7.34 185.10L4.54 184.23L2.38 186.38L3.03 189.40L5.83 190.28ZM14.87 195.94L14.22 192.91L11.43 192.03L9.27 194.18L9.91 197.21L12.71 198.08ZM9.91 197.21L9.27 194.18L6.47 193.31L4.31 195.45L4.96 198.48L7.75 199.35ZM16.38 190.76L15.74 187.74L12.94 186.86L10.78 189.01L11.43 192.03L14.22 192.91ZM32.79 181.78L32.15 178.75L29.35 177.87L27.19 180.02L27.83 183.05L30.63 183.93ZM27.83 183.05L27.19 180.02L24.38 179.14L22.22 181.29L22.86 184.32L25.66 185.20ZM34.32 176.60L33.68 173.57L30.87 172.69L28.71 174.84L29.35 177.87L32.15 178.75ZM29.35 177.87L28.71 174.84L25.91 173.96L23.74 176.11L24.38 179.14L27.19 180.02ZM36.23 185.69L35.60 182.66L32.79 181.78L30.63 183.93L31.27 186.96L34.07 187.84ZM31.27 186.96L30.63 183.93L27.83 183.05L25.66 185.20L26.30 188.22L29.11 189.10ZM37.76 180.51L37.12 177.48L34.32 176.60L32.15 178.75L32.79 181.78L35.60 182.66ZM79.71 255.99L79.08 252.97L76.28 252.08L74.12 254.21L74.75 257.23L77.54 258.12ZM74.75 257.23L74.12 254.21L71.32 253.32L69.16 255.45L69.79 258.47L72.59 259.36ZM83.13 259.91L82.50 256.88L79.71 255.99L77.54 258.12L78.17 261.15L80.97 262.04ZM81.25 250.83L80.62 247.81L77.82 246.92L75.65 249.05L76.28 252.08L79.08 252.97ZM82.78 245.68L82.15 242.65L79.36 241.76L77.19 243.89L77.82 246.92L80.62 247.81ZM84.67 254.75L84.04 251.73L81.25 250.83L79.08 252.97L79.71 255.99L82.50 256.88ZM9.78 134.94L9.13 131.91L6.33 131.03L4.16 133.19L4.81 136.22L7.61 137.10ZM1.35 132.32L0.71 129.28L-2.10 128.41L-4.26 130.57L-3.62 133.60L-0.81 134.48ZM25.11 145.39L24.46 142.36L21.66 141.48L19.49 143.64L20.13 146.67L22.94 147.55ZM28.56 149.31L27.91 146.27L25.11 145.39L22.94 147.55L23.58 150.58L26.39 151.46ZM16.68 142.76L16.04 139.73L13.23 138.85L11.07 141.01L11.71 144.04L14.52 144.92ZM11.71 144.04L11.07 141.01L8.26 140.13L6.10 142.29L6.74 145.32L9.55 146.20ZM13.23 138.85L12.59 135.82L9.78 134.94L7.61 137.10L8.26 140.13L11.07 141.01ZM20.13 146.67L19.49 143.64L16.68 142.76L14.52 144.92L15.16 147.95L17.97 148.83ZM15.16 147.95L14.52 144.92L11.71 144.04L9.55 146.20L10.19 149.23L13.00 150.11ZM21.66 141.48L21.01 138.45L18.20 137.57L16.04 139.73L16.68 142.76L19.49 143.64ZM35.45 157.14L34.81 154.10L32.00 153.22L29.84 155.37L30.48 158.41L33.29 159.29ZM30.48 158.41L29.84 155.37L27.03 154.49L24.87 156.65L25.51 159.68L28.31 160.56ZM32.00 153.22L31.36 150.19L28.56 149.31L26.39 151.46L27.03 154.49L29.84 155.37ZM33.92 162.32L33.29 159.29L30.48 158.41L28.31 160.56L28.95 163.59L31.76 164.47ZM22.06 155.77L21.42 152.74L18.61 151.86L16.45 154.01L17.09 157.05L19.89 157.92ZM17.09 157.05L16.45 154.01L13.64 153.14L11.48 155.29L12.12 158.32L14.93 159.20ZM23.58 150.58L22.94 147.55L20.13 146.67L17.97 148.83L18.61 151.86L21.42 152.74ZM18.61 151.86L17.97 148.83L15.16 147.95L13.00 150.11L13.64 153.14L16.45 154.01ZM25.51 159.68L24.87 156.65L22.06 155.77L19.89 157.92L20.54 160.96L23.34 161.83ZM20.54 160.96L19.89 157.92L17.09 157.05L14.93 159.20L15.57 162.23L18.37 163.11ZM27.03 154.49L26.39 151.46L23.58 150.58L21.42 152.74L22.06 155.77L24.87 156.65Z"/><path data-band="2" fill="#f97316" fill-opacity="0.35" d="M14.57 243.80L13.93 240.78L11.14 239.90L8.99 242.04L9.63 245.06L12.42 245.94ZM18.00 247.70L17.36 244.68L14.57 243.80L12.42 245.94L13.06 248.96L15.85 249.84ZM1.68 256.63L1.04 253.62L-1.75 252.74L-3.90 254.88L-3.26 257.89L-0.47 258.77ZM3.18 251.48L2.54 248.46L-0.25 247.58L-2.39 249.72L-1.75 252.74L1.04 253.62ZM6.20 241.16L5.56 238.15L2.77 237.27L0.62 239.41L1.26 242.43L4.05 243.30ZM1.26 242.43L0.62 239.41L-2.17 238.53L-4.32 240.68L-3.68 243.69L-0.89 244.57ZM7.71 236.00L7.07 232.99L4.28 232.11L2.13 234.25L2.77 237.27L5.56 238.15ZM2.77 237.27L2.13 234.25L-0.67 233.37L-2.81 235.52L-2.17 238.53L0.62 239.41ZM9.63 245.06L8.99 242.04L6.20 241.16L4.05 243.30L4.69 246.32L7.48 247.20ZM4.69 246.32L4.05 243.30L1.26 242.43L-0.89 244.57L-0.25 247.58L2.54 248.46ZM11.14 239.90L10.50 236.88L7.71 236.00L5.56 238.15L6.20 241.16L8.99 242.04ZM11.55 254.11L10.91 251.09L8.12 250.22L5.97 252.35L6.61 255.37L9.40 256.25ZM6.61 255.37L5.97 252.35L3.18 251.48L1.04 253.62L1.68 256.63L4.46 257.51ZM13.06 248.96L12.42 245.94L9.63 245.06L7.48 247.20L8.12 250.22L10.91 251.09ZM8.12 250.22L7.48 247.20L4.69 246.32L2.54 248.46L3.18 251.48L5.97 252.35ZM14.98 258.01L14.34 254.99L11.55 254.11L9.40 256.25L10.04 259.27L12.83 260.14ZM10.04 259.27L9.40 256.25L6.61 255.37L4.46 257.51L5.11 260.52L7.89 261.40ZM16.49 252.85L15.85 249.84L13.06 248.96L10.91 251.09L11.55 254.11L14.34 254.99ZM0.42 213.99L-0.22 210.97L-3.01 210.09L-5.17 212.24L-4.52 215.26L-1.73 216.13ZM0.84 228.21L0.20 225.19L-2.59 224.32L-4.74 226.46L-4.10 229.48L-1.31 230.36ZM2.35 223.05L1.71 220.03L-1.08 219.15L-3.24 221.30L-2.59 224.32L0.20 225.19ZM4.28 232.11L3.63 229.09L0.84 228.21L-1.31 230.36L-0.67 233.37L2.13 234.25ZM5.79 226.95L5.14 223.93L2.35 223.05L0.20 225.19L0.84 228.21L3.63 229.09Z"/></svg>
