<svg xmlns="http://www.w3.org/2000/svg" width="256" height="256" viewBox="0 0 256 256"><path data-band="1" fill="#fde68a" fill-opacity="0.35" d="M4.05 194.50L3.42 191.51L0.66 190.63L-1.46 192.73L-0.83 195.72L1.93 196.60ZM5.54 189.40L4.91 186.42L2.15 185.53L0.03 187.64L0.66 190.63L3.42 191.51ZM0.66 190.63L0.03 187.64L-2.73 186.76L-4.85 188.86L-4.22 191.85L-1.46 192.73ZM7.44 198.37L6.81 195.38L4.05 194.50L1.93 196.60L2.56 199.59L5.32 200.47ZM2.56 199.59L1.93 196.60L-0.83 195.72L-2.95 197.82L-2.31 200.81L0.44 201.69ZM8.94 193.27L8.30 190.29L5.54 189.40L3.42 191.51L4.05 194.50L6.81 195.38ZM11.92 183.09L11.29 180.10L8.53 179.22L6.40 181.32L7.04 184.31L9.80 185.19ZM7.04 184.31L6.40 181.32L3.64 180.44L1.52 182.55L2.15 185.53L4.91 186.42ZM13.42 177.99L12.78 175.00L10.02 174.12L7.90 176.23L8.53 179.22L11.29 180.10ZM8.53 179.22L7.90 176.23L5.14 175.34L3.01 177.45L3.64 180.44L6.40 181.32ZM15.31 186.96L14.68 183.97L11.92 183.09L9.80 185.19L10.43 188.18L13.19 189.07ZM10.43 188.18L9.80 185.19L7.04 184.31L4.91 186.42L5.54 189.40L8.30 190.29ZM16.81 181.87L16.18 178.88L13.42 177.99L11.29 180.10L11.92 183.09L14.68 183.97ZM0.25 176.57L-0.38 173.58L-3.14 172.70L-5.27 174.81L-4.63 177.80L-1.87 178.68ZM2.15 185.53L1.52 182.55L-1.24 181.66L-3.36 183.77L-2.73 186.76L0.03 187.64ZM3.64 180.44L3.01 177.45L0.25 176.57L-1.87 178.68L-1.24 181.66L1.52 182.55ZM9.34 207.32L8.71 204.34L5.95 203.45L3.83 205.56L4.46 208.54L7.22 209.42ZM4.46 208.54L3.83 205.56L1.08 204.67L-1.05 206.78L-0.41 209.76L2.34 210.64ZM10.83 202.24L10.20 199.25L7.44 198.37L5.32 200.47L5.95 203.45L8.71 204.34ZM5.95 203.45L5.32 200.47L2.56 199.59L0.44 201.69L1.08 204.67L3.83 205.56ZM12.73 211.19L12.10 208.21L9.34 207.32L7.22 209.42L7.85 212.41L10.61 213.29ZM7.85 212.41L7.22 209.42L4.46 208.54L2.34 210.64L2.98 213.63L5.73 214.51ZM14.22 206.11L13.59 203.12L10.83 202.24L8.71 204.34L9.34 207.32L12.10 208.21ZM1.08 204.67L0.44 201.69L-2.31 200.81L-4.43 202.91L-3.80 205.89L-1.05 206.78ZM17.21 195.93L16.58 192.94L13.82 192.05L11.69 194.16L12.33 197.15L15.08 198.03ZM12.33 197.15L11.69 194.16L8.94 193.27L6.81 195.38L7.44 198.37L10.20 199.25ZM18.70 190.84L18.07 187.85L15.31 186.96L13.19 189.07L13.82 192.05L16.58 192.94ZM13.82 192.05L13.19 189.07L10.43 188.18L8.30 190.29L8.94 193.27L11.69 194.16ZM20.60 199.80L19.97 196.81L17.21 195.93L15.08 198.03L15.71 201.02L18.47 201.90ZM15.71 201.02L15.08 198.03L12.33 197.15L10.20 199.25L10.83 202.24L13.59 203.12ZM22.09 194.71L21.46 191.72L18.70 190.84L16.58 192.94L17.21 195.93L19.97 196.81ZM14.51 158.82L13.88 155.82L11.11 154.94L8.98 157.05L9.62 160.04L12.38 160.93ZM9.62 160.04L8.98 157.05L6.22 156.17L4.09 158.28L4.73 161.27L7.49 162.15ZM16.01 153.71L15.37 150.72L12.61 149.84L10.48 151.95L11.11 154.94L13.88 155.82ZM11.11 154.94L10.48 151.95L7.71 151.07L5.58 153.18L6.22 156.17L8.98 157.05ZM17.91 162.70L17.27 159.70L14.51 158.82L12.38 160.93L13.01 163.92L15.78 164.80ZM13.01 163.92L12.38 160.93L9.62 160.04L7.49 162.15L8.12 165.15L10.88 166.03ZM19.40 157.59L18.77 154.60L16.01 153.71L13.88 155.82L14.51 158.82L17.27 159.70ZM1.33 157.40L0.69 154.41L-2.07 153.53L-4.20 155.64L-3.56 158.63L-0.80 159.51ZM2.82 152.30L2.19 149.30L-0.58 148.42L-2.71 150.53L-2.07 153.53L0.69 154.41ZM4.73 161.27L4.09 158.28L1.33 157.40L-0.80 159.51L-0.16 162.50L2.60 163.38ZM6.22 156.17L5.58 153.18L2.82 152.30L0.69 154.41L1.33 157.40L4.09 158.28ZM22.40 147.38L21.77 144.39L19.01 143.50L16.87 145.61L17.51 148.61L20.27 149.49ZM17.51 148.61L16.87 145.61L14.11 144.73L11.97 146.84L12.61 149.84L15.37 150.72ZM23.91 142.27L23.27 139.28L20.51 138.39L18.37 140.51L19.01 143.50L21.77 144.39ZM19.01 143.50L18.37 140.51L15.61 139.62L13.47 141.74L14.11 144.73L16.87 145.61ZM25.80 151.26L25.17 148.27L22.40 147.38L20.27 149.49L20.90 152.49L23.67 153.37ZM20.90 152.49L20.27 149.49L17.51 148.61L15.37 150.72L16.01 153.71L18.77 154.60ZM27.31 146.16L26.67 143.16L23.91 142.27L21.77 144.39L22.40 147.38L25.17 148.27ZM9.21 145.96L8.57 142.97L5.81 142.08L3.68 144.20L4.31 147.19L7.08 148.07ZM4.31 147.19L3.68 144.20L0.91 143.32L-1.21 145.43L-0.58 148.42L2.19 149.30ZM10.71 140.85L10.07 137.86L7.31 136.97L5.17 139.09L5.81 142.08L8.57 142.97ZM5.81 142.08L5.17 139.09L2.41 138.21L0.28 140.32L0.91 143.32L3.68 144.20ZM12.61 149.84L11.97 146.84L9.21 145.96L7.08 148.07L7.71 151.07L10.48 151.95ZM7.71 151.07L7.08 148.07L4.31 147.19L2.19 149.30L2.82 152.30L5.58 153.18ZM14.11 144.73L13.47 141.74L10.71 140.85L8.57 142.97L9.21 145.96L11.97 146.84ZM19.80 171.67L19.17 168.68L16.41 167.80L14.28 169.90L14.91 172.90L17.67 173.78ZM14.91 172.90L14.28 169.90L11.52 169.02L9.39 171.13L10.02 174.12L12.78 175.00ZM21.30 166.57L20.67 163.58L17.91 162.70L15.78 164.80L16.41 167.80L19.17 168.68ZM16.41 167.80L15.78 164.80L13.01 163.92L10.88 166.03L11.52 169.02L14.28 169.90ZM23.20 175.55L22.56 172.56L19.80 171.67L17.67 173.78L18.31 176.77L21.07 177.66ZM18.31 176.77L17.67 173.78L14.91 172.90L12.78 175.00L13.42 177.99L16.18 178.88ZM24.70 170.45L24.06 167.46L21.30 166.57L19.17 168.68L19.80 171.67L22.56 172.56ZM6.63 170.25L5.99 167.25L3.23 166.37L1.11 168.48L1.74 171.47L4.50 172.35ZM1.74 171.47L1.11 168.48L-1.65 167.60L-3.78 169.71L-3.14 172.70L-0.38 173.58ZM8.12 165.15L7.49 162.15L4.73 161.27L2.60 163.38L3.23 166.37L5.99 167.25ZM3.23 166.37L2.60 163.38L-0.16 162.50L-2.29 164.61L-1.65 167.60L1.11 168.48ZM10.02 174.12L9.39 171.13L6.63 170.25L4.50 172.35L5.14 175.34L7.90 176.23ZM5.14 175.34L4.50 172.35L1.74 171.47L-0.38 173.58L0.25 176.57L3.01 177.45ZM11.52 169.02L10.88 166.03L8.12 165.15L5.99 167.25L6.63 170.25L9.39 171.13ZM27.70 160.25L27.07 157.25L24.30 156.37L22.17 158.48L22.80 161.47L25.56 162.36ZM22.80 161.47L22.17 158.48L19.40 157.59L17.27 159.70L17.91 162.70L20.67 163.58ZM29.20 155.14L28.57 152.15L25.80 151.26L23.67 153.37L24.30 156.37L27.07 157.25ZM24.30 156.37L23.67 153.37L20.90 152.49L18.77 154.60L19.40 157.59L22.17 158.48ZM31.09 164.13L30.46 161.13L27.70 160.25L25.56 162.36L26.20 165.35L28.96 166.24ZM26.20 165.35L25.56 162.36L22.80 161.47L20.67 163.58L21.30 166.57L24.06 167.46ZM32.60 159.03L31.97 156.03L29.20 155.14L27.07 157.25L27.70 160.25L30.46 161.13ZM27.76 221.59L27.13 218.61L24.38 217.72L22.25 219.82L22.88 222.80L25.64 223.69ZM22.88 222.80L22.25 219.82L19.50 218.93L17.38 221.03L18.01 224.02L20.76 224.90ZM29.26 216.51L28.63 213.52L25.88 212.64L23.75 214.73L24.38 217.72L27.13 218.61ZM24.38 217.72L23.75 214.73L20.99 213.85L18.87 215.95L19.50 218.93L22.25 219.82ZM31.15 225.47L30.52 222.48L27.76 221.59L25.64 223.69L26.27 226.68L29.02 227.56ZM26.27 226.68L25.64 223.69L22.88 222.80L20.76 224.90L21.39 227.89L24.14 228.77ZM32.65 220.38L32.02 217.40L29.26 216.51L27.13 218.61L27.76 221.59L30.52 222.48ZM14.62 220.15L13.99 217.16L11.24 216.28L9.11 218.38L9.75 221.36L12.50 222.24ZM9.75 221.36L9.11 218.38L6.36 217.49L4.24 219.59L4.87 222.58L7.63 223.46ZM16.11 215.06L15.48 212.08L12.73 211.19L10.61 213.29L11.24 216.28L13.99 217.16ZM11.24 216.28L10.61 213.29L7.85 212.41L5.73 214.51L6.36 217.49L9.11 218.38ZM18.01 224.02L17.38 221.03L14.62 220.15L12.50 222.24L13.13 225.23L15.88 226.11ZM13.13 225.23L12.50 222.24L9.75 221.36L7.63 223.46L8.26 226.44L11.01 227.33ZM19.50 218.93L18.87 215.95L16.11 215.06L13.99 217.16L14.62 220.15L17.38 221.03ZM35.64 210.21L35.02 207.22L32.26 206.34L30.13 208.44L30.76 211.42L33.52 212.31ZM30.76 211.42L30.13 208.44L27.37 207.55L25.25 209.65L25.88 212.64L28.63 213.52ZM37.15 205.12L36.52 202.14L33.76 201.25L31.63 203.35L32.26 206.34L35.02 207.22ZM32.26 206.34L31.63 203.35L28.87 202.46L26.74 204.56L27.37 207.55L30.13 208.44ZM39.03 214.09L38.40 211.10L35.64 210.21L33.52 212.31L34.14 215.30L36.90 216.19ZM34.14 215.30L33.52 212.31L30.76 211.42L28.63 213.52L29.26 216.51L32.02 217.40ZM40.53 209.00L39.90 206.01L37.15 205.12L35.02 207.22L35.64 210.21L38.40 211.10ZM22.49 208.76L21.86 205.78L19.10 204.89L16.98 206.99L17.61 209.98L20.36 210.86ZM17.61 209.98L16.98 206.99L14.22 206.11L12.10 208.21L12.73 211.19L15.48 212.08ZM23.99 203.67L23.36 200.69L20.60 199.80L18.47 201.90L19.10 204.89L21.86 205.78ZM19.10 204.89L18.47 201.90L15.71 201.02L13.59 203.12L14.22 206.11L16.98 206.99ZM25.88 212.64L25.25 209.65L22.49 208.76L20.36 210.86L20.99 213.85L23.75 214.73ZM20.99 213.85L20.36 210.86L17.61 209.98L15.48 212.08L16.11 215.06L18.87 215.95ZM27.37 207.55L26.74 204.56L23.99 203.67L21.86 205.78L22.49 208.76L25.25 209.65ZM33.03 234.42L32.40 231.44L29.65 230.55L27.53 232.64L28.15 235.63L30.91 236.52ZM28.15 235.63L27.53 232.64L24.77 231.76L22.65 233.85L23.28 236.83L26.03 237.72ZM34.53 229.34L33.90 226.35L31.15 225.47L29.02 227.56L29.65 230.55L32.40 231.44ZM29.65 230.55L29.02 227.56L26.27 226.68L24.14 228.77L24.77 231.76L27.53 232.64ZM36.41 238.29L35.79 235.31L33.03 234.42L30.91 236.52L31.53 239.50L34.29 240.39ZM31.53 239.50L30.91 236.52L28.15 235.63L26.03 237.72L26.66 240.70L29.41 241.59ZM37.91 233.21L37.28 230.23L34.53 229.34L32.40 231.44L33.03 234.42L35.79 235.31ZM19.90 232.97L19.27 229.98L16.51 229.10L14.39 231.19L15.02 234.18L17.77 235.06ZM15.02 234.18L14.39 231.19L11.64 230.31L9.52 232.41L10.15 235.39L12.90 236.27ZM21.39 227.89L20.76 224.90L18.01 224.02L15.88 226.11L16.51 229.10L19.27 229.98ZM16.51 229.10L15.88 226.11L13.13 225.23L11.01 227.33L11.64 230.31L14.39 231.19ZM23.28 236.83L22.65 233.85L19.90 232.97L17.77 235.06L18.40 238.04L21.16 238.93ZM18.40 238.04L17.77 235.06L15.02 234.18L12.90 236.27L13.53 239.25L16.28 240.14ZM24.77 231.76L24.14 228.77L21.39 227.89L19.27 229.98L19.90 232.97L22.65 233.85ZM40.91 223.05L40.29 220.06L37.53 219.17L35.40 221.27L36.03 224.26L38.78 225.15ZM36.03 224.26L35.40 221.27L32.65 220.38L30.52 222.48L31.15 225.47L33.90 226.35ZM42.41 217.97L41.79 214.98L39.03 214.09L36.90 216.19L37.53 219.17L40.29 220.06ZM37.53 219.17L36.90 216.19L34.14 215.30L32.02 217.40L32.65 220.38L35.40 221.27ZM39.41 228.13L38.78 225.15L36.03 224.26L33.90 226.35L34.53 229.34L37.28 230.23ZM1.49 218.71L0.85 215.73L-1.90 214.85L-4.02 216.95L-3.38 219.93L-0.63 220.81ZM2.98 213.63L2.34 210.64L-0.41 209.76L-2.53 211.86L-1.90 214.85L0.85 215.73ZM4.87 222.58L4.24 219.59L1.49 218.71L-0.63 220.81L0.00 223.79L2.75 224.67ZM0.00 223.79L-0.63 220.81L-3.38 219.93L-5.50 222.03L-4.87 225.01L-2.12 225.89ZM6.36 217.49L5.73 214.51L2.98 213.63L0.85 215.73L1.49 218.71L4.24 219.59ZM0.41 237.81L-0.22 234.83L-2.97 233.95L-5.09 236.05L-4.45 239.03L-1.70 239.91ZM2.31 246.75L1.68 243.77L-1.07 242.89L-3.19 244.98L-2.55 247.96L0.19 248.85ZM3.79 241.68L3.16 238.70L0.41 237.81L-1.70 239.91L-1.07 242.89L1.68 243.77ZM6.77 231.52L6.14 228.54L3.39 227.66L1.27 229.75L1.90 232.74L4.65 233.62ZM1.90 232.74L1.27 229.75L-1.48 228.87L-3.60 230.97L-2.97 233.95L-0.22 234.83ZM8.26 226.44L7.63 223.46L4.87 222.58L2.75 224.67L3.39 227.66L6.14 228.54ZM3.39 227.66L2.75 224.67L0.00 223.79L-2.12 225.89L-1.48 228.87L1.27 229.75ZM10.15 235.39L9.52 232.41L6.77 231.52L4.65 233.62L5.28 236.60L8.03 237.48ZM5.28 236.60L4.65 233.62L1.90 232.74L-0.22 234.83L0.41 237.81L3.16 238.70ZM11.64 230.31L11.01 227.33L8.26 226.44L6.14 228.54L6.77 231.52L9.52 232.41ZM38.27 185.97L37.64 182.98L34.87 182.09L32.74 184.19L33.37 187.18L36.13 188.07ZM33.37 187.18L32.74 184.19L29.98 183.31L27.85 185.41L28.48 188.40L31.24 189.29ZM39.77 180.87L39.14 177.88L36.38 176.99L34.24 179.10L34.87 182.09L37.64 182.98ZM34.87 182.09L34.24 179.10L31.48 178.21L29.35 180.31L29.98 183.31L32.74 184.19ZM41.66 189.85L41.03 186.86L38.27 185.97L36.13 188.07L36.76 191.06L39.52 191.95ZM36.76 191.06L36.13 188.07L33.37 187.18L31.24 189.29L31.87 192.28L34.63 193.17ZM43.16 184.76L42.53 181.76L39.77 180.87L37.64 182.98L38.27 185.97L41.03 186.86ZM25.09 184.52L24.46 181.53L21.70 180.65L19.57 182.75L20.20 185.74L22.96 186.63ZM20.20 185.74L19.57 182.75L16.81 181.87L14.68 183.97L15.31 186.96L18.07 187.85ZM26.59 179.43L25.96 176.44L23.20 175.55L21.07 177.66L21.70 180.65L24.46 181.53ZM21.70 180.65L21.07 177.66L18.31 176.77L16.18 178.88L16.81 181.87L19.57 182.75ZM28.48 188.40L27.85 185.41L25.09 184.52L22.96 186.63L23.59 189.62L26.35 190.50ZM23.59 189.62L22.96 186.63L20.20 185.74L18.07 187.85L18.70 190.84L21.46 191.72ZM29.98 183.31L29.35 180.31L26.59 179.43L24.46 181.53L25.09 184.52L27.85 185.41ZM46.17 174.56L45.55 171.57L42.78 170.68L40.65 172.78L41.27 175.78L44.04 176.66ZM41.27 175.78L40.65 172.78L37.88 171.89L35.75 174.00L36.38 176.99L39.14 177.88ZM47.68 169.46L47.05 166.46L44.29 165.58L42.15 167.68L42.78 170.68L45.55 171.57ZM42.78 170.68L42.15 167.68L39.39 166.79L37.25 168.90L37.88 171.89L40.65 172.78ZM49.57 178.45L48.94 175.45L46.17 174.56L44.04 176.66L44.67 179.66L47.43 180.55ZM44.67 179.66L44.04 176.66L41.27 175.78L39.14 177.88L39.77 180.87L42.53 181.76ZM51.07 173.35L50.45 170.35L47.68 169.46L45.55 171.57L46.17 174.56L48.94 175.45ZM32.98 173.11L32.35 170.12L29.59 169.23L27.46 171.34L28.09 174.33L30.85 175.22ZM28.09 174.33L27.46 171.34L24.70 170.45L22.56 172.56L23.20 175.55L25.96 176.44ZM34.49 168.01L33.86 165.02L31.09 164.13L28.96 166.24L29.59 169.23L32.35 170.12ZM29.59 169.23L28.96 166.24L26.20 165.35L24.06 167.46L24.70 170.45L27.46 171.34ZM36.38 176.99L35.75 174.00L32.98 173.11L30.85 175.22L31.48 178.21L34.24 179.10ZM31.48 178.21L30.85 175.22L28.09 174.33L25.96 176.44L26.59 179.43L29.35 180.31ZM37.88 171.89L37.25 168.90L34.49 168.01L32.35 170.12L32.98 173.11L35.75 174.00ZM43.54 198.82L42.91 195.83L40.15 194.94L38.02 197.04L38.65 200.03L41.41 200.92ZM38.65 200.03L38.02 197.04L35.26 196.16L33.13 198.26L33.76 201.25L36.52 202.14ZM45.04 193.73L44.42 190.74L41.66 189.85L39.52 191.95L40.15 194.94L42.91 195.83ZM40.15 194.94L39.52 191.95L36.76 191.06L34.63 193.17L35.26 196.16L38.02 197.04ZM46.93 202.70L46.30 199.71L43.54 198.82L41.41 200.92L42.04 203.91L44.79 204.80ZM42.04 203.91L41.41 200.92L38.65 200.03L36.52 202.14L37.15 205.12L39.90 206.01ZM48.43 197.61L47.81 194.62L45.04 193.73L42.91 195.83L43.54 198.82L46.30 199.71ZM30.37 197.37L29.74 194.38L26.98 193.49L24.85 195.60L25.48 198.58L28.24 199.47ZM25.48 198.58L24.85 195.60L22.09 194.71L19.97 196.81L20.60 199.80L23.36 200.69ZM31.87 192.28L31.24 189.29L28.48 188.40L26.35 190.50L26.98 193.49L29.74 194.38ZM26.98 193.49L26.35 190.50L23.59 189.62L21.46 191.72L22.09 194.71L24.85 195.60ZM33.76 201.25L33.13 198.26L30.37 197.37L28.24 199.47L28.87 202.46L31.63 203.35ZM28.87 202.46L28.24 199.47L25.48 198.58L23.36 200.69L23.99 203.67L26.74 204.56ZM35.26 196.16L34.63 193.17L31.87 192.28L29.74 194.38L30.37 197.37L33.13 198.26ZM51.45 187.43L50.82 184.43L48.06 183.54L45.92 185.65L46.55 188.64L49.31 189.53ZM46.55 188.64L45.92 185.65L43.16 184.76L41.03 186.86L41.66 189.85L44.42 190.74ZM52.96 182.33L52.33 179.34L49.57 178.45L47.43 180.55L48.06 183.54L50.82 184.43ZM48.06 183.54L47.43 180.55L44.67 179.66L42.53 181.76L43.16 184.76L45.92 185.65ZM54.84 191.31L54.21 188.32L51.45 187.43L49.31 189.53L49.94 192.52L52.70 193.41ZM49.94 192.52L49.31 189.53L46.55 188.64L44.42 190.74L45.04 193.73L47.81 194.62ZM33.42 248.45L32.79 245.46L30.04 244.58L27.92 246.67L28.54 249.65L31.29 250.54ZM34.91 243.37L34.29 240.39L31.53 239.50L29.41 241.59L30.04 244.58L32.79 245.46ZM36.80 252.32L36.17 249.34L33.42 248.45L31.29 250.54L31.92 253.52L34.67 254.41ZM17.31 257.13L16.68 254.15L13.93 253.27L11.82 255.36L12.45 258.34L15.19 259.23ZM12.45 258.34L11.82 255.36L9.07 254.48L6.95 256.57L7.58 259.55L10.33 260.43ZM18.80 252.06L18.17 249.08L15.42 248.19L13.30 250.29L13.93 253.27L16.68 254.15ZM13.93 253.27L13.30 250.29L10.56 249.40L8.44 251.50L9.07 254.48L11.82 255.36ZM22.18 255.93L21.55 252.95L18.80 252.06L16.68 254.15L17.31 257.13L20.06 258.02ZM4.20 255.68L3.57 252.71L0.82 251.82L-1.29 253.92L-0.66 256.89L2.09 257.78ZM5.69 250.61L5.06 247.63L2.31 246.75L0.19 248.85L0.82 251.82L3.57 252.71ZM0.82 251.82L0.19 248.85L-2.55 247.96L-4.67 250.06L-4.04 253.04L-1.29 253.92ZM7.58 259.55L6.95 256.57L4.20 255.68L2.09 257.78L2.72 260.75L5.47 261.64ZM9.07 254.48L8.44 251.50L5.69 250.61L3.57 252.71L4.20 255.68L6.95 256.57ZM25.16 245.78L24.54 242.80L21.79 241.91L19.66 244.01L20.29 246.99L23.04 247.87ZM20.29 246.99L19.66 244.01L16.91 243.12L14.79 245.21L15.42 248.19L18.17 249.08ZM26.66 240.70L26.03 237.72L23.28 236.83L21.16 238.93L21.79 241.91L24.54 242.80ZM21.79 241.91L21.16 238.93L18.40 238.04L16.28 240.14L16.91 243.12L19.66 244.01ZM28.54 249.65L27.92 246.67L25.16 245.78L23.04 247.87L23.67 250.85L26.42 251.74ZM23.67 250.85L23.04 247.87L20.29 246.99L18.17 249.08L18.80 252.06L21.55 252.95ZM30.04 244.58L29.41 241.59L26.66 240.70L24.54 242.80L25.16 245.78L27.92 246.67ZM12.04 244.33L11.41 241.35L8.66 240.46L6.54 242.56L7.18 245.54L9.92 246.42ZM7.18 245.54L6.54 242.56L3.79 241.68L1.68 243.77L2.31 246.75L5.06 247.63ZM13.53 239.25L12.90 236.27L10.15 235.39L8.03 237.48L8.66 240.46L11.41 241.35ZM8.66 240.46L8.03 237.48L5.28 236.60L3.16 238.70L3.79 241.68L6.54 242.56ZM15.42 248.19L14.79 245.21L12.04 244.33L9.92 246.42L10.56 249.40L13.30 250.29ZM10.56 249.40L9.92 246.42L7.18 245.54L5.06 247.63L5.69 250.61L8.44 251.50ZM16.91 243.12L16.28 240.14L13.53 239.25L11.41 241.35L12.04 244.33L14.79 245.21ZM30.43 258.59L29.80 255.61L27.05 254.72L24.93 256.82L25.56 259.79L28.31 260.68ZM25.56 259.79L24.93 256.82L22.18 255.93L20.06 258.02L20.69 261.00L23.44 261.89ZM31.92 253.52L31.29 250.54L28.54 249.65L26.42 251.74L27.05 254.72L29.80 255.61ZM27.05 254.72L26.42 251.74L23.67 250.85L21.55 252.95L22.18 255.93L24.93 256.82ZM25.66 27.89L25.02 24.88L22.23 24.00L20.08 26.13L20.72 29.14L23.51 30.02ZM27.17 22.75L26.53 19.73L23.75 18.85L21.60 20.98L22.23 24.00L25.02 24.88ZM30.20 12.45L29.56 9.43L26.77 8.55L24.62 10.68L25.26 13.70L28.05 14.58ZM31.72 7.30L31.08 4.28L28.29 3.40L26.14 5.53L26.77 8.55L29.56 9.43ZM26.77 8.55L26.14 5.53L23.35 4.65L21.20 6.78L21.83 9.80L24.62 10.68ZM33.62 16.35L32.99 13.33L30.20 12.45L28.05 14.58L28.68 17.60L31.47 18.48ZM28.68 17.60L28.05 14.58L25.26 13.70L23.11 15.83L23.75 18.85L26.53 19.73ZM35.14 11.20L34.50 8.18L31.72 7.30L29.56 9.43L30.20 12.45L32.99 13.33ZM21.83 9.80L21.20 6.78L18.41 5.90L16.26 8.04L16.90 11.06L19.68 11.94ZM27.56 36.93L26.93 33.92L24.14 33.04L22.00 35.17L22.63 38.18L25.42 39.06ZM29.08 31.79L28.44 28.77L25.66 27.89L23.51 30.02L24.14 33.04L26.93 33.92ZM30.98 40.83L30.35 37.82L27.56 36.93L25.42 39.06L26.05 42.07L28.84 42.96ZM26.05 42.07L25.42 39.06L22.63 38.18L20.49 40.31L21.12 43.32L23.90 44.20ZM32.50 35.69L31.86 32.67L29.08 31.79L26.93 33.92L27.56 36.93L30.35 37.82ZM35.53 25.40L34.89 22.38L32.11 21.50L29.96 23.63L30.59 26.64L33.38 27.53ZM30.59 26.64L29.96 23.63L27.17 22.75L25.02 24.88L25.66 27.89L28.44 28.77ZM37.05 20.25L36.41 17.23L33.62 16.35L31.47 18.48L32.11 21.50L34.89 22.38ZM32.11 21.50L31.47 18.48L28.68 17.60L26.53 19.73L27.17 22.75L29.96 23.63ZM38.95 29.30L38.32 26.28L35.53 25.40L33.38 27.53L34.01 30.54L36.80 31.43ZM34.01 30.54L33.38 27.53L30.59 26.64L28.44 28.77L29.08 31.79L31.86 32.67ZM40.47 24.15L39.84 21.13L37.05 20.25L34.89 22.38L35.53 25.40L38.32 26.28ZM38.18 0.89L37.54 -2.13L34.75 -3.01L32.60 -0.88L33.23 2.14L36.02 3.03ZM33.23 2.14L32.60 -0.88L29.81 -1.76L27.65 0.38L28.29 3.40L31.08 4.28ZM41.61 4.79L40.97 1.78L38.18 0.89L36.02 3.03L36.66 6.04L39.45 6.93ZM36.66 6.04L36.02 3.03L33.23 2.14L31.08 4.28L31.72 7.30L34.50 8.18ZM43.13 -0.36L42.49 -3.38L39.70 -4.26L37.54 -2.13L38.18 0.89L40.97 1.78ZM24.86 -0.50L24.22 -3.52L21.43 -4.40L19.28 -2.27L19.92 0.75L22.71 1.63ZM19.92 0.75L19.28 -2.27L16.49 -3.15L14.34 -1.01L14.98 2.01L17.77 2.89ZM28.29 3.40L27.65 0.38L24.86 -0.50L22.71 1.63L23.35 4.65L26.14 5.53ZM23.35 4.65L22.71 1.63L19.92 0.75L17.77 2.89L18.41 5.90L21.20 6.78ZM29.81 -1.76L29.17 -4.78L26.38 -5.66L24.22 -3.52L24.86 -0.50L27.65 0.38ZM46.17 51.28L45.54 48.27L42.76 47.38L40.61 49.51L41.24 52.52L44.02 53.41ZM41.24 52.52L40.61 49.51L37.82 48.62L35.67 50.75L36.31 53.76L39.09 54.65ZM47.69 46.14L47.06 43.13L44.27 42.24L42.12 44.37L42.76 47.38L45.54 48.27ZM42.76 47.38L42.12 44.37L39.34 43.48L37.19 45.61L37.82 48.62L40.61 49.51ZM49.59 55.18L48.96 52.17L46.17 51.28L44.02 53.41L44.65 56.42L47.44 57.31ZM44.65 56.42L44.02 53.41L41.24 52.52L39.09 54.65L39.72 57.66L42.50 58.54ZM51.11 50.04L50.48 47.03L47.69 46.14L45.54 48.27L46.17 51.28L48.96 52.17ZM32.89 49.86L32.25 46.85L29.47 45.97L27.32 48.10L27.96 51.11L30.74 51.99ZM27.96 51.11L27.32 48.10L24.54 47.21L22.39 49.34L23.03 52.35L25.81 53.23ZM34.40 44.72L33.77 41.71L30.98 40.83L28.84 42.96L29.47 45.97L32.25 46.85ZM29.47 45.97L28.84 42.96L26.05 42.07L23.90 44.20L24.54 47.21L27.32 48.10ZM36.31 53.76L35.67 50.75L32.89 49.86L30.74 51.99L31.38 55.00L34.16 55.89ZM31.38 55.00L30.74 51.99L27.96 51.11L25.81 53.23L26.45 56.24L29.23 57.13ZM37.82 48.62L37.19 45.61L34.40 44.72L32.25 46.85L32.89 49.86L35.67 50.75ZM54.15 39.76L53.52 36.74L50.73 35.86L48.58 37.98L49.21 41.00L52.00 41.89ZM49.21 41.00L48.58 37.98L45.79 37.10L43.64 39.23L44.27 42.24L47.06 43.13ZM55.68 34.62L55.04 31.60L52.26 30.71L50.10 32.84L50.73 35.86L53.52 36.74ZM50.73 35.86L50.10 32.84L47.31 31.95L45.16 34.08L45.79 37.10L48.58 37.98ZM57.57 43.66L56.94 40.65L54.15 39.76L52.00 41.89L52.63 44.90L55.42 45.79ZM52.63 44.90L52.00 41.89L49.21 41.00L47.06 43.13L47.69 46.14L50.48 47.03ZM59.09 38.52L58.46 35.50L55.68 34.62L53.52 36.74L54.15 39.76L56.94 40.65ZM40.85 38.34L40.22 35.33L37.43 34.44L35.28 36.57L35.92 39.58L38.70 40.47ZM35.92 39.58L35.28 36.57L32.50 35.69L30.35 37.82L30.98 40.83L33.77 41.71ZM42.37 33.20L41.74 30.18L38.95 29.30L36.80 31.43L37.43 34.44L40.22 35.33ZM37.43 34.44L36.80 31.43L34.01 30.54L31.86 32.67L32.50 35.69L35.28 36.57ZM44.27 42.24L43.64 39.23L40.85 38.34L38.70 40.47L39.34 43.48L42.12 44.37ZM39.34 43.48L38.70 40.47L35.92 39.58L33.77 41.71L34.40 44.72L37.19 45.61ZM45.79 37.10L45.16 34.08L42.37 33.20L40.22 35.33L40.85 38.34L43.64 39.23ZM51.48 64.22L50.85 61.21L48.07 60.32L45.92 62.44L46.55 65.45L49.33 66.34ZM46.55 65.45L45.92 62.44L43.14 61.55L40.99 63.68L41.62 66.69L44.40 67.58ZM53.00 59.08L52.37 56.07L49.59 55.18L47.44 57.31L48.07 60.32L50.85 61.21ZM48.07 60.32L47.44 57.31L44.65 56.42L42.50 58.54L43.14 61.55L45.92 62.44ZM54.90 68.12L54.27 65.11L51.48 64.22L49.33 66.34L49.97 69.35L52.75 70.24ZM49.97 69.35L49.33 66.34L46.55 65.45L44.40 67.58L45.04 70.59L47.82 71.47ZM56.42 62.98L55.79 59.97L53.00 59.08L50.85 61.21L51.48 64.22L54.27 65.11ZM38.21 62.79L37.57 59.78L34.79 58.90L32.65 61.02L33.28 64.03L36.06 64.92ZM33.28 64.03L32.65 61.02L29.86 60.14L27.72 62.26L28.35 65.27L31.13 66.16ZM39.72 57.66L39.09 54.65L36.31 53.76L34.16 55.89L34.79 58.90L37.57 59.78ZM34.79 58.90L34.16 55.89L31.38 55.00L29.23 57.13L29.86 60.14L32.65 61.02ZM41.62 66.69L40.99 63.68L38.21 62.79L36.06 64.92L36.69 67.93L39.47 68.81ZM36.69 67.93L36.06 64.92L33.28 64.03L31.13 66.16L31.77 69.17L34.55 70.05ZM43.14 61.55L42.50 58.54L39.72 57.66L37.57 59.78L38.21 62.79L40.99 63.68ZM59.46 52.71L58.83 49.69L56.05 48.80L53.89 50.93L54.53 53.94L57.31 54.83ZM54.53 53.94L53.89 50.93L51.11 50.04L48.96 52.17L49.59 55.18L52.37 56.07ZM60.99 47.57L60.36 44.55L57.57 43.66L55.42 45.79L56.05 48.80L58.83 49.69ZM56.05 48.80L55.42 45.79L52.63 44.90L50.48 47.03L51.11 50.04L53.89 50.93ZM62.88 56.61L62.25 53.60L59.46 52.71L57.31 54.83L57.94 57.85L60.72 58.74ZM57.94 57.85L57.31 54.83L54.53 53.94L52.37 56.07L53.00 59.08L55.79 59.97ZM64.40 51.47L63.77 48.46L60.99 47.57L58.83 49.69L59.46 52.71L62.25 53.60ZM20.41 76.78L19.78 73.77L17.00 72.89L14.86 75.01L15.50 78.02L18.27 78.90ZM21.92 71.65L21.29 68.64L18.51 67.76L16.36 69.88L17.00 72.89L19.78 73.77ZM24.94 61.38L24.30 58.37L21.52 57.49L19.38 59.62L20.01 62.62L22.79 63.51ZM20.01 62.62L19.38 59.62L16.60 58.73L14.45 60.86L15.09 63.87L17.87 64.75ZM26.45 56.24L25.81 53.23L23.03 52.35L20.89 54.48L21.52 57.49L24.30 58.37ZM28.35 65.27L27.72 62.26L24.94 61.38L22.79 63.51L23.43 66.51L26.21 67.40ZM23.43 66.51L22.79 63.51L20.01 62.62L17.87 64.75L18.51 67.76L21.29 68.64ZM29.86 60.14L29.23 57.13L26.45 56.24L24.30 58.37L24.94 61.38L27.72 62.26ZM56.83 15.27L56.19 12.25L53.40 11.36L51.25 13.49L51.88 16.51L54.67 17.40ZM51.88 16.51L51.25 13.49L48.46 12.60L46.30 14.74L46.93 17.75L49.72 18.64ZM58.35 10.11L57.72 7.09L54.93 6.21L52.77 8.34L53.40 11.36L56.19 12.25ZM53.40 11.36L52.77 8.34L49.98 7.45L47.82 9.59L48.46 12.60L51.25 13.49ZM60.25 19.17L59.62 16.15L56.83 15.27L54.67 17.40L55.30 20.42L58.09 21.30ZM55.30 20.42L54.67 17.40L51.88 16.51L49.72 18.64L50.36 21.66L53.15 22.55ZM61.78 14.02L61.15 11.00L58.35 10.11L56.19 12.25L56.83 15.27L59.62 16.15ZM43.51 13.85L42.87 10.83L40.08 9.95L37.93 12.08L38.57 15.10L41.35 15.98ZM38.57 15.10L37.93 12.08L35.14 11.20L32.99 13.33L33.62 16.35L36.41 17.23ZM45.03 8.70L44.40 5.68L41.61 4.79L39.45 6.93L40.08 9.95L42.87 10.83ZM40.08 9.95L39.45 6.93L36.66 6.04L34.50 8.18L35.14 11.20L37.93 12.08ZM46.93 17.75L46.30 14.74L43.51 13.85L41.35 15.98L41.99 19.00L44.78 19.89ZM41.99 19.00L41.35 15.98L38.57 15.10L36.41 17.23L37.05 20.25L39.84 21.13ZM48.46 12.60L47.82 9.59L45.03 8.70L42.87 10.83L43.51 13.85L46.30 14.74ZM64.84 3.72L64.20 0.69L61.41 -0.19L59.25 1.94L59.88 4.96L62.67 5.85ZM59.88 4.96L59.25 1.94L56.46 1.05L54.30 3.19L54.93 6.21L57.72 7.09ZM66.37 -1.44L65.73 -4.46L62.94 -5.35L60.78 -3.22L61.41 -0.19L64.20 0.69ZM61.41 -0.19L60.78 -3.22L57.98 -4.11L55.82 -1.97L56.46 1.05L59.25 1.94ZM68.26 7.63L67.63 4.61L64.84 3.72L62.67 5.85L63.31 8.87L66.10 9.76ZM63.31 8.87L62.67 5.85L59.88 4.96L57.72 7.09L58.35 10.11L61.15 11.00ZM69.79 2.47L69.16 -0.55L66.37 -1.44L64.20 0.69L64.84 3.72L67.63 4.61ZM51.50 2.30L50.87 -0.72L48.08 -1.61L45.92 0.53L46.55 3.55L49.35 4.43ZM46.55 3.55L45.92 0.53L43.13 -0.36L40.97 1.78L41.61 4.79L44.40 5.68ZM48.08 -1.61L47.44 -4.63L44.65 -5.52L42.49 -3.38L43.13 -0.36L45.92 0.53ZM54.93 6.21L54.30 3.19L51.50 2.30L49.35 4.43L49.98 7.45L52.77 8.34ZM49.98 7.45L49.35 4.43L46.55 3.55L44.40 5.68L45.03 8.70L47.82 9.59ZM56.46 1.05L55.82 -1.97L53.03 -2.86L50.87 -0.72L51.50 2.30L54.30 3.19ZM62.15 28.23L61.51 25.21L58.72 24.32L56.57 26.45L57.20 29.47L59.99 30.36ZM57.20 29.47L56.57 26.45L53.78 25.56L51.62 27.69L52.26 30.71L55.04 31.60ZM63.67 23.08L63.04 20.06L60.25 19.17L58.09 21.30L58.72 24.32L61.51 25.21ZM58.72 24.32L58.09 21.30L55.30 20.42L53.15 22.55L53.78 25.56L56.57 26.45ZM65.57 32.14L64.93 29.12L62.15 28.23L59.99 30.36L60.62 33.38L63.41 34.27ZM60.62 33.38L59.99 30.36L57.20 29.47L55.04 31.60L55.68 34.62L58.46 35.50ZM67.09 26.99L66.46 23.97L63.67 23.08L61.51 25.21L62.15 28.23L64.93 29.12ZM48.83 26.81L48.20 23.79L45.41 22.90L43.26 25.03L43.89 28.05L46.68 28.94ZM43.89 28.05L43.26 25.03L40.47 24.15L38.32 26.28L38.95 29.30L41.74 30.18ZM50.36 21.66L49.72 18.64L46.93 17.75L44.78 19.89L45.41 22.90L48.20 23.79ZM45.41 22.90L44.78 19.89L41.99 19.00L39.84 21.13L40.47 24.15L43.26 25.03ZM52.26 30.71L51.62 27.69L48.83 26.81L46.68 28.94L47.31 31.95L50.10 32.84ZM47.31 31.95L46.68 28.94L43.89 28.05L41.74 30.18L42.37 33.20L45.16 34.08ZM53.78 25.56L53.15 22.55L50.36 21.66L48.20 23.79L48.83 26.81L51.62 27.69ZM70.15 16.69L69.52 13.67L66.73 12.78L64.57 14.91L65.20 17.93L67.99 18.82ZM65.20 17.93L64.57 14.91L61.78 14.02L59.62 16.15L60.25 19.17L63.04 20.06ZM71.68 11.54L71.05 8.52L68.26 7.63L66.10 9.76L66.73 12.78L69.52 13.67ZM66.73 12.78L66.10 9.76L63.31 8.87L61.15 11.00L61.78 14.02L64.57 14.91ZM73.57 20.61L72.94 17.58L70.15 16.69L67.99 18.82L68.62 21.84L71.41 22.73ZM68.62 21.84L67.99 18.82L65.20 17.93L63.04 20.06L63.67 23.08L66.46 23.97ZM75.11 15.45L74.48 12.43L71.68 11.54L69.52 13.67L70.15 16.69L72.94 17.58ZM59.42 114.47L58.79 111.46L56.01 110.57L53.87 112.69L54.50 115.69L57.27 116.58ZM54.50 115.69L53.87 112.69L51.09 111.80L48.95 113.91L49.58 116.92L52.35 117.81ZM60.93 109.35L60.31 106.34L57.53 105.45L55.38 107.57L56.01 110.57L58.79 111.46ZM56.01 110.57L55.38 107.57L52.61 106.68L50.46 108.79L51.09 111.80L53.87 112.69ZM62.82 118.37L62.19 115.36L59.42 114.47L57.27 116.58L57.90 119.59L60.67 120.48ZM57.90 119.59L57.27 116.58L54.50 115.69L52.35 117.81L52.98 120.81L55.75 121.70ZM64.34 113.25L63.71 110.24L60.93 109.35L58.79 111.46L59.42 114.47L62.19 115.36ZM46.17 113.03L45.54 110.02L42.77 109.13L40.63 111.25L41.26 114.25L44.03 115.14ZM41.26 114.25L40.63 111.25L37.85 110.36L35.71 112.48L36.34 115.48L39.11 116.37ZM47.69 107.91L47.06 104.90L44.28 104.01L42.14 106.13L42.77 109.13L45.54 110.02ZM42.77 109.13L42.14 106.13L39.36 105.24L37.22 107.36L37.85 110.36L40.63 111.25ZM49.58 116.92L48.95 113.91L46.17 113.03L44.03 115.14L44.66 118.14L47.43 119.03ZM44.66 118.14L44.03 115.14L41.26 114.25L39.11 116.37L39.75 119.37L42.52 120.26ZM51.09 111.80L50.46 108.79L47.69 107.91L45.54 110.02L46.17 113.03L48.95 113.91ZM67.38 103.00L66.75 100.00L63.97 99.10L61.83 101.22L62.45 104.23L65.23 105.12ZM62.45 104.23L61.83 101.22L59.05 100.33L56.90 102.45L57.53 105.45L60.31 106.34ZM68.90 97.88L68.28 94.87L65.50 93.98L63.35 96.10L63.97 99.10L66.75 100.00ZM63.97 99.10L63.35 96.10L60.57 95.21L58.42 97.32L59.05 100.33L61.83 101.22ZM70.79 106.90L70.16 103.90L67.38 103.00L65.23 105.12L65.86 108.13L68.64 109.02ZM65.86 108.13L65.23 105.12L62.45 104.23L60.31 106.34L60.93 109.35L63.71 110.24ZM72.31 101.78L71.68 98.77L68.90 97.88L66.75 100.00L67.38 103.00L70.16 103.90ZM54.12 101.56L53.49 98.55L50.72 97.66L48.57 99.78L49.20 102.78L51.98 103.67ZM49.20 102.78L48.57 99.78L45.79 98.89L43.65 101.01L44.28 104.01L47.06 104.90ZM55.64 96.43L55.01 93.42L52.23 92.54L50.09 94.65L50.72 97.66L53.49 98.55ZM50.72 97.66L50.09 94.65L47.31 93.77L45.16 95.88L45.79 98.89L48.57 99.78ZM57.53 105.45L56.90 102.45L54.12 101.56L51.98 103.67L52.61 106.68L55.38 107.57ZM52.61 106.68L51.98 103.67L49.20 102.78L47.06 104.90L47.69 107.91L50.46 108.79ZM59.05 100.33L58.42 97.32L55.64 96.43L53.49 98.55L54.12 101.56L56.90 102.45ZM64.70 127.38L64.07 124.38L61.30 123.48L59.16 125.60L59.78 128.60L62.56 129.49ZM59.78 128.60L59.16 125.60L56.38 124.70L54.24 126.82L54.87 129.82L57.64 130.71ZM66.22 122.26L65.59 119.26L62.82 118.37L60.67 120.48L61.30 123.48L64.07 124.38ZM61.30 123.48L60.67 120.48L57.90 119.59L55.75 121.70L56.38 124.70L59.16 125.60ZM63.18 132.49L62.56 129.49L59.78 128.60L57.64 130.71L58.27 133.71L61.04 134.60ZM51.47 125.93L50.84 122.92L48.06 122.03L45.92 124.15L46.55 127.15L49.32 128.04ZM46.55 127.15L45.92 124.15L43.15 123.26L41.01 125.37L41.64 128.37L44.41 129.26ZM52.98 120.81L52.35 117.81L49.58 116.92L47.43 119.03L48.06 122.03L50.84 122.92ZM48.06 122.03L47.43 119.03L44.66 118.14L42.52 120.26L43.15 123.26L45.92 124.15ZM54.87 129.82L54.24 126.82L51.47 125.93L49.32 128.04L49.95 131.04L52.72 131.93ZM49.95 131.04L49.32 128.04L46.55 127.15L44.41 129.26L45.04 132.26L47.81 133.15ZM56.38 124.70L55.75 121.70L52.98 120.81L50.84 122.92L51.47 125.93L54.24 126.82ZM72.67 115.93L72.04 112.92L69.26 112.03L67.11 114.14L67.74 117.15L70.52 118.04ZM67.74 117.15L67.11 114.14L64.34 113.25L62.19 115.36L62.82 118.37L65.59 119.26ZM69.26 112.03L68.64 109.02L65.86 108.13L63.71 110.24L64.34 113.25L67.11 114.14ZM71.14 121.04L70.52 118.04L67.74 117.15L65.59 119.26L66.22 122.26L69.00 123.16ZM25.01 123.06L24.38 120.06L21.61 119.17L19.47 121.29L20.11 124.29L22.88 125.17ZM20.11 124.29L19.47 121.29L16.70 120.40L14.57 122.52L15.20 125.52L17.97 126.40ZM26.52 117.94L25.89 114.94L23.11 114.06L20.98 116.17L21.61 119.17L24.38 120.06ZM21.61 119.17L20.98 116.17L18.21 115.29L16.07 117.41L16.70 120.40L19.47 121.29ZM28.42 126.94L27.78 123.94L25.01 123.06L22.88 125.17L23.51 128.17L26.28 129.06ZM23.51 128.17L22.88 125.17L20.11 124.29L17.97 126.40L18.61 129.40L21.37 130.28ZM29.92 121.83L29.29 118.83L26.52 117.94L24.38 120.06L25.01 123.06L27.78 123.94ZM11.80 121.64L11.16 118.64L8.39 117.76L6.26 119.88L6.90 122.87L9.66 123.75ZM6.90 122.87L6.26 119.88L3.49 118.99L1.36 121.11L2.00 124.11L4.76 124.99ZM13.30 116.52L12.66 113.52L9.89 112.64L7.76 114.76L8.39 117.76L11.16 118.64ZM8.39 117.76L7.76 114.76L4.99 113.88L2.85 116.00L3.49 118.99L6.26 119.88ZM15.20 125.52L14.57 122.52L11.80 121.64L9.66 123.75L10.30 126.75L13.07 127.63ZM10.30 126.75L9.66 123.75L6.90 122.87L4.76 124.99L5.40 127.99L8.17 128.87ZM16.70 120.40L16.07 117.41L13.30 116.52L11.16 118.64L11.80 121.64L14.57 122.52ZM32.94 111.59L32.30 108.59L29.53 107.70L27.39 109.82L28.02 112.82L30.80 113.71ZM28.02 112.82L27.39 109.82L24.62 108.94L22.48 111.05L23.11 114.06L25.89 114.94ZM34.45 106.47L33.81 103.47L31.04 102.58L28.90 104.70L29.53 107.70L32.30 108.59ZM29.53 107.70L28.90 104.70L26.12 103.82L23.98 105.93L24.62 108.94L27.39 109.82ZM36.34 115.48L35.71 112.48L32.94 111.59L30.80 113.71L31.43 116.71L34.20 117.60ZM31.43 116.71L30.80 113.71L28.02 112.82L25.89 114.94L26.52 117.94L29.29 118.83ZM37.85 110.36L37.22 107.36L34.45 106.47L32.30 108.59L32.94 111.59L35.71 112.48ZM19.71 110.17L19.07 107.17L16.30 106.29L14.16 108.41L14.80 111.41L17.57 112.29ZM14.80 111.41L14.16 108.41L11.39 107.52L9.26 109.64L9.89 112.64L12.66 113.52ZM21.21 105.05L20.58 102.05L17.80 101.17L15.67 103.29L16.30 106.29L19.07 107.17ZM16.30 106.29L15.67 103.29L12.89 102.40L10.76 104.52L11.39 107.52L14.16 108.41ZM23.11 114.06L22.48 111.05L19.71 110.17L17.57 112.29L18.21 115.29L20.98 116.17ZM18.21 115.29L17.57 112.29L14.80 111.41L12.66 113.52L13.30 116.52L16.07 117.41ZM24.62 108.94L23.98 105.93L21.21 105.05L19.07 107.17L19.71 110.17L22.48 111.05ZM30.31 135.94L29.68 132.94L26.91 132.05L24.78 134.17L25.41 137.17L28.18 138.05ZM25.41 137.17L24.78 134.17L22.01 133.28L19.87 135.40L20.51 138.39L23.27 139.28ZM31.82 130.83L31.19 127.83L28.42 126.94L26.28 129.06L26.91 132.05L29.68 132.94ZM26.91 132.05L26.28 129.06L23.51 128.17L21.37 130.28L22.01 133.28L24.78 134.17ZM33.71 139.82L33.08 136.82L30.31 135.94L28.18 138.05L28.81 141.05L31.58 141.93ZM28.81 141.05L28.18 138.05L25.41 137.17L23.27 139.28L23.91 142.27L26.67 143.16ZM35.22 134.71L34.59 131.71L31.82 130.83L29.68 132.94L30.31 135.94L33.08 136.82ZM17.10 134.51L16.47 131.52L13.70 130.63L11.57 132.75L12.20 135.74L14.97 136.63ZM12.20 135.74L11.57 132.75L8.80 131.86L6.67 133.98L7.31 136.97L10.07 137.86ZM18.61 129.40L17.97 126.40L15.20 125.52L13.07 127.63L13.70 130.63L16.47 131.52ZM13.70 130.63L13.07 127.63L10.30 126.75L8.17 128.87L8.80 131.86L11.57 132.75ZM20.51 138.39L19.87 135.40L17.10 134.51L14.97 136.63L15.61 139.62L18.37 140.51ZM15.61 139.62L14.97 136.63L12.20 135.74L10.07 137.86L10.71 140.85L13.47 141.74ZM22.01 133.28L21.37 130.28L18.61 129.40L16.47 131.52L17.10 134.51L19.87 135.40ZM38.24 124.49L37.61 121.48L34.83 120.60L32.69 122.71L33.33 125.71L36.10 126.60ZM33.33 125.71L32.69 122.71L29.92 121.83L27.78 123.94L28.42 126.94L31.19 127.83ZM39.75 119.37L39.11 116.37L36.34 115.48L34.20 117.60L34.83 120.60L37.61 121.48ZM34.83 120.60L34.20 117.60L31.43 116.71L29.29 118.83L29.92 121.83L32.69 122.71ZM41.64 128.37L41.01 125.37L38.24 124.49L36.10 126.60L36.73 129.60L39.50 130.49ZM36.73 129.60L36.10 126.60L33.33 125.71L31.19 127.83L31.82 130.83L34.59 131.71ZM43.15 123.26L42.52 120.26L39.75 119.37L37.61 121.48L38.24 124.49L41.01 125.37ZM70.07 78.59L69.44 75.58L66.66 74.69L64.50 76.81L65.13 79.82L67.91 80.71ZM65.13 79.82L64.50 76.81L61.72 75.92L59.57 78.04L60.20 81.05L62.98 81.94ZM71.59 73.46L70.96 70.45L68.18 69.56L66.03 71.68L66.66 74.69L69.44 75.58ZM66.66 74.69L66.03 71.68L63.24 70.79L61.09 72.91L61.72 75.92L64.50 76.81ZM73.48 82.50L72.85 79.49L70.07 78.59L67.91 80.71L68.54 83.72L71.32 84.62ZM68.54 83.72L67.91 80.71L65.13 79.82L62.98 81.94L63.61 84.95L66.39 85.84ZM75.00 77.37L74.38 74.35L71.59 73.46L69.44 75.58L70.07 78.59L72.85 79.49ZM56.79 77.15L56.16 74.14L53.38 73.25L51.23 75.37L51.86 78.38L54.64 79.27ZM51.86 78.38L51.23 75.37L48.45 74.48L46.30 76.61L46.93 79.61L49.71 80.50ZM58.31 72.02L57.68 69.01L54.90 68.12L52.75 70.24L53.38 73.25L56.16 74.14ZM53.38 73.25L52.75 70.24L49.97 69.35L47.82 71.47L48.45 74.48L51.23 75.37ZM60.20 81.05L59.57 78.04L56.79 77.15L54.64 79.27L55.27 82.28L58.05 83.17ZM55.27 82.28L54.64 79.27L51.86 78.38L49.71 80.50L50.34 83.51L53.12 84.40ZM61.72 75.92L61.09 72.91L58.31 72.02L56.16 74.14L56.79 77.15L59.57 78.04ZM78.06 67.10L77.43 64.09L74.65 63.19L72.49 65.31L73.12 68.33L75.90 69.22ZM73.12 68.33L72.49 65.31L69.71 64.42L67.55 66.54L68.18 69.56L70.96 70.45ZM79.59 61.96L78.96 58.95L76.18 58.06L74.02 60.18L74.65 63.19L77.43 64.09ZM74.65 63.19L74.02 60.18L71.23 59.29L69.08 61.41L69.71 64.42L72.49 65.31ZM81.47 71.01L80.84 67.99L78.06 67.10L75.90 69.22L76.53 72.23L79.31 73.13ZM76.53 72.23L75.90 69.22L73.12 68.33L70.96 70.45L71.59 73.46L74.38 74.35ZM83.00 65.87L82.37 62.86L79.59 61.96L77.43 64.09L78.06 67.10L80.84 67.99ZM64.77 65.65L64.14 62.64L61.36 61.75L59.20 63.87L59.83 66.88L62.62 67.78ZM59.83 66.88L59.20 63.87L56.42 62.98L54.27 65.11L54.90 68.12L57.68 69.01ZM66.29 60.52L65.66 57.50L62.88 56.61L60.72 58.74L61.36 61.75L64.14 62.64ZM61.36 61.75L60.72 58.74L57.94 57.85L55.79 59.97L56.42 62.98L59.20 63.87ZM68.18 69.56L67.55 66.54L64.77 65.65L62.62 67.78L63.24 70.79L66.03 71.68ZM63.24 70.79L62.62 67.78L59.83 66.88L57.68 69.01L58.31 72.02L61.09 72.91ZM69.71 64.42L69.08 61.41L66.29 60.52L64.14 62.64L64.77 65.65L67.55 66.54ZM75.36 91.53L74.73 88.52L71.95 87.63L69.80 89.75L70.43 92.75L73.21 93.65ZM70.43 92.75L69.80 89.75L67.02 88.85L64.87 90.97L65.50 93.98L68.28 94.87ZM76.89 86.40L76.26 83.39L73.48 82.50L71.32 84.62L71.95 87.63L74.73 88.52ZM71.95 87.63L71.32 84.62L68.54 83.72L66.39 85.84L67.02 88.85L69.80 89.75ZM78.77 95.44L78.14 92.43L75.36 91.53L73.21 93.65L73.83 96.66L76.61 97.55ZM73.83 96.66L73.21 93.65L70.43 92.75L68.28 94.87L68.90 97.88L71.68 98.77ZM62.09 90.08L61.46 87.07L58.68 86.18L56.53 88.30L57.16 91.31L59.94 92.20ZM57.16 91.31L56.53 88.30L53.75 87.41L51.60 89.53L52.23 92.54L55.01 93.42ZM63.61 84.95L62.98 81.94L60.20 81.05L58.05 83.17L58.68 86.18L61.46 87.07ZM58.68 86.18L58.05 83.17L55.27 82.28L53.12 84.40L53.75 87.41L56.53 88.30ZM65.50 93.98L64.87 90.97L62.09 90.08L59.94 92.20L60.57 95.21L63.35 96.10ZM60.57 95.21L59.94 92.20L57.16 91.31L55.01 93.42L55.64 96.43L58.42 97.32ZM67.02 88.85L66.39 85.84L63.61 84.95L61.46 87.07L62.09 90.08L64.87 90.97ZM83.35 80.05L82.72 77.04L79.94 76.14L77.79 78.26L78.41 81.27L81.20 82.17ZM78.41 81.27L77.79 78.26L75.00 77.37L72.85 79.49L73.48 82.50L76.26 83.39ZM84.88 74.92L84.26 71.90L81.47 71.01L79.31 73.13L79.94 76.14L82.72 77.04ZM79.94 76.14L79.31 73.13L76.53 72.23L74.38 74.35L75.00 77.37L77.79 78.26ZM35.57 87.21L34.94 84.20L32.16 83.32L30.01 85.44L30.65 88.45L33.42 89.33ZM30.65 88.45L30.01 85.44L27.24 84.56L25.10 86.68L25.73 89.68L28.51 90.57ZM37.08 82.08L36.45 79.08L33.67 78.19L31.52 80.31L32.16 83.32L34.94 84.20ZM32.16 83.32L31.52 80.31L28.75 79.43L26.60 81.55L27.24 84.56L30.01 85.44ZM38.98 91.10L38.35 88.10L35.57 87.21L33.42 89.33L34.06 92.34L36.83 93.22ZM34.06 92.34L33.42 89.33L30.65 88.45L28.51 90.57L29.14 93.57L31.91 94.46ZM40.49 85.98L39.86 82.97L37.08 82.08L34.94 84.20L35.57 87.21L38.35 88.10ZM22.32 85.79L21.68 82.79L18.91 81.91L16.77 84.03L17.40 87.03L20.18 87.92ZM17.40 87.03L16.77 84.03L13.99 83.15L11.85 85.27L12.49 88.27L15.26 89.15ZM23.83 80.67L23.19 77.66L20.41 76.78L18.27 78.90L18.91 81.91L21.68 82.79ZM25.73 89.68L25.10 86.68L22.32 85.79L20.18 87.92L20.81 90.92L23.59 91.80ZM20.81 90.92L20.18 87.92L17.40 87.03L15.26 89.15L15.90 92.16L18.67 93.04ZM27.24 84.56L26.60 81.55L23.83 80.67L21.68 82.79L22.32 85.79L25.10 86.68ZM43.52 75.72L42.89 72.71L40.11 71.82L37.96 73.94L38.59 76.95L41.37 77.84ZM38.59 76.95L37.96 73.94L35.18 73.06L33.04 75.18L33.67 78.19L36.45 79.08ZM45.04 70.59L44.40 67.58L41.62 66.69L39.47 68.81L40.11 71.82L42.89 72.71ZM40.11 71.82L39.47 68.81L36.69 67.93L34.55 70.05L35.18 73.06L37.96 73.94ZM46.93 79.61L46.30 76.61L43.52 75.72L41.37 77.84L42.00 80.85L44.78 81.74ZM42.00 80.85L41.37 77.84L38.59 76.95L36.45 79.08L37.08 82.08L39.86 82.97ZM48.45 74.48L47.82 71.47L45.04 70.59L42.89 72.71L43.52 75.72L46.30 76.61ZM30.26 74.30L29.62 71.29L26.84 70.41L24.70 72.53L25.33 75.54L28.11 76.42ZM25.33 75.54L24.70 72.53L21.92 71.65L19.78 73.77L20.41 76.78L23.19 77.66ZM31.77 69.17L31.13 66.16L28.35 65.27L26.21 67.40L26.84 70.41L29.62 71.29ZM26.84 70.41L26.21 67.40L23.43 66.51L21.29 68.64L21.92 71.65L24.70 72.53ZM33.67 78.19L33.04 75.18L30.26 74.30L28.11 76.42L28.75 79.43L31.52 80.31ZM28.75 79.43L28.11 76.42L25.33 75.54L23.19 77.66L23.83 80.67L26.60 81.55ZM35.18 73.06L34.55 70.05L31.77 69.17L29.62 71.29L30.26 74.30L33.04 75.18ZM40.87 100.12L40.24 97.11L37.47 96.23L35.32 98.35L35.96 101.35L38.73 102.24ZM35.96 101.35L35.32 98.35L32.55 97.46L30.41 99.58L31.04 102.58L33.81 103.47ZM42.39 95.00L41.75 91.99L38.98 91.10L36.83 93.22L37.47 96.23L40.24 97.11ZM37.47 96.23L36.83 93.22L34.06 92.34L31.91 94.46L32.55 97.46L35.32 98.35ZM44.28 104.01L43.65 101.01L40.87 100.12L38.73 102.24L39.36 105.24L42.14 106.13ZM39.36 105.24L38.73 102.24L35.96 101.35L33.81 103.47L34.45 106.47L37.22 107.36ZM45.79 98.89L45.16 95.88L42.39 95.00L40.24 97.11L40.87 100.12L43.65 101.01ZM27.63 98.69L27.00 95.69L24.22 94.81L22.08 96.93L22.72 99.93L25.49 100.81ZM22.72 99.93L22.08 96.93L19.31 96.04L17.17 98.16L17.80 101.17L20.58 102.05ZM29.14 93.57L28.51 90.57L25.73 89.68L23.59 91.80L24.22 94.81L27.00 95.69ZM24.22 94.81L23.59 91.80L20.81 90.92L18.67 93.04L19.31 96.04L22.08 96.93ZM31.04 102.58L30.41 99.58L27.63 98.69L25.49 100.81L26.12 103.82L28.90 104.70ZM26.12 103.82L25.49 100.81L22.72 99.93L20.58 102.05L21.21 105.05L23.98 105.93ZM32.55 97.46L31.91 94.46L29.14 93.57L27.00 95.69L27.63 98.69L30.41 99.58ZM48.82 88.64L48.19 85.63L45.42 84.74L43.27 86.86L43.90 89.87L46.68 90.76ZM43.90 89.87L43.27 86.86L40.49 85.98L38.35 88.10L38.98 91.10L41.75 91.99ZM50.34 83.51L49.71 80.50L46.93 79.61L44.78 81.74L45.42 84.74L48.19 85.63ZM45.42 84.74L44.78 81.74L42.00 80.85L39.86 82.97L40.49 85.98L43.27 86.86ZM52.23 92.54L51.60 89.53L48.82 88.64L46.68 90.76L47.31 93.77L50.09 94.65ZM47.31 93.77L46.68 90.76L43.90 89.87L41.75 91.99L42.39 95.00L45.16 95.88ZM53.75 87.41L53.12 84.40L50.34 83.51L48.19 85.63L48.82 88.64L51.60 89.53ZM65.07 141.50L64.44 138.50L61.67 137.61L59.52 139.72L60.15 142.72L62.92 143.61ZM66.58 136.39L65.96 133.39L63.18 132.49L61.04 134.60L61.67 137.61L64.44 138.50ZM48.82 150.26L48.19 147.26L45.42 146.37L43.28 148.48L43.91 151.48L46.68 152.37ZM43.91 151.48L43.28 148.48L40.51 147.59L38.37 149.70L39.00 152.70L41.77 153.59ZM50.33 145.15L49.70 142.15L46.93 141.26L44.79 143.37L45.42 146.37L48.19 147.26ZM45.42 146.37L44.79 143.37L42.02 142.49L39.88 144.60L40.51 147.59L43.28 148.48ZM52.21 154.15L51.58 151.15L48.82 150.26L46.68 152.37L47.31 155.37L50.07 156.26ZM47.31 155.37L46.68 152.37L43.91 151.48L41.77 153.59L42.40 156.59L45.17 157.48ZM53.72 149.04L53.10 146.04L50.33 145.15L48.19 147.26L48.82 150.26L51.58 151.15ZM35.61 148.82L34.98 145.82L32.21 144.93L30.07 147.04L30.70 150.04L33.47 150.93ZM30.70 150.04L30.07 147.04L27.31 146.16L25.17 148.27L25.80 151.26L28.57 152.15ZM37.11 143.71L36.48 140.71L33.71 139.82L31.58 141.93L32.21 144.93L34.98 145.82ZM32.21 144.93L31.58 141.93L28.81 141.05L26.67 143.16L27.31 146.16L30.07 147.04ZM39.00 152.70L38.37 149.70L35.61 148.82L33.47 150.93L34.10 153.92L36.87 154.81ZM34.10 153.92L33.47 150.93L30.70 150.04L28.57 152.15L29.20 155.14L31.97 156.03ZM40.51 147.59L39.88 144.60L37.11 143.71L34.98 145.82L35.61 148.82L38.37 149.70ZM56.75 138.82L56.12 135.82L53.35 134.93L51.21 137.04L51.84 140.04L54.61 140.93ZM51.84 140.04L51.21 137.04L48.44 136.15L46.30 138.26L46.93 141.26L49.70 142.15ZM58.27 133.71L57.64 130.71L54.87 129.82L52.72 131.93L53.35 134.93L56.12 135.82ZM53.35 134.93L52.72 131.93L49.95 131.04L47.81 133.15L48.44 136.15L51.21 137.04ZM60.15 142.72L59.52 139.72L56.75 138.82L54.61 140.93L55.24 143.93L58.01 144.83ZM55.24 143.93L54.61 140.93L51.84 140.04L49.70 142.15L50.33 145.15L53.10 146.04ZM61.67 137.61L61.04 134.60L58.27 133.71L56.12 135.82L56.75 138.82L59.52 139.72ZM43.53 137.38L42.90 134.38L40.13 133.49L37.99 135.60L38.62 138.60L41.39 139.49ZM38.62 138.60L37.99 135.60L35.22 134.71L33.08 136.82L33.71 139.82L36.48 140.71ZM45.04 132.26L44.41 129.26L41.64 128.37L39.50 130.49L40.13 133.49L42.90 134.38ZM40.13 133.49L39.50 130.49L36.73 129.60L34.59 131.71L35.22 134.71L37.99 135.60ZM46.93 141.26L46.30 138.26L43.53 137.38L41.39 139.49L42.02 142.49L44.79 143.37ZM42.02 142.49L41.39 139.49L38.62 138.60L36.48 140.71L37.11 143.71L39.88 144.60ZM48.44 136.15L47.81 133.15L45.04 132.26L42.90 134.38L43.53 137.38L46.30 138.26ZM54.10 163.14L53.47 160.15L50.70 159.26L48.56 161.36L49.19 164.36L51.96 165.25ZM49.19 164.36L48.56 161.36L45.80 160.47L43.66 162.58L44.29 165.58L47.05 166.46ZM55.61 158.04L54.98 155.04L52.21 154.15L50.07 156.26L50.70 159.26L53.47 160.15ZM50.70 159.26L50.07 156.26L47.31 155.37L45.17 157.48L45.80 160.47L48.56 161.36ZM57.49 167.03L56.86 164.04L54.10 163.14L51.96 165.25L52.58 168.25L55.35 169.14ZM52.58 168.25L51.96 165.25L49.19 164.36L47.05 166.46L47.68 169.46L50.45 170.35ZM59.00 161.93L58.38 158.93L55.61 158.04L53.47 160.15L54.10 163.14L56.86 164.04ZM40.89 161.69L40.26 158.69L37.50 157.81L35.36 159.91L35.99 162.91L38.76 163.80ZM35.99 162.91L35.36 159.91L32.60 159.03L30.46 161.13L31.09 164.13L33.86 165.02ZM42.40 156.59L41.77 153.59L39.00 152.70L36.87 154.81L37.50 157.81L40.26 158.69ZM37.50 157.81L36.87 154.81L34.10 153.92L31.97 156.03L32.60 159.03L35.36 159.91ZM44.29 165.58L43.66 162.58L40.89 161.69L38.76 163.80L39.39 166.79L42.15 167.68ZM39.39 166.79L38.76 163.80L35.99 162.91L33.86 165.02L34.49 168.01L37.25 168.90ZM45.80 160.47L45.17 157.48L42.40 156.59L40.26 158.69L40.89 161.69L43.66 162.58ZM57.12 152.93L56.49 149.93L53.72 149.04L51.58 151.15L52.21 154.15L54.98 155.04ZM58.64 147.83L58.01 144.83L55.24 143.93L53.10 146.04L53.72 149.04L56.49 149.93ZM60.52 156.82L59.89 153.83L57.12 152.93L54.98 155.04L55.61 158.04L58.38 158.93ZM75.71 105.68L75.09 102.68L72.31 101.78L70.16 103.90L70.79 106.90L73.56 107.80ZM77.24 100.56L76.61 97.55L73.83 96.66L71.68 98.77L72.31 101.78L75.09 102.68ZM2.00 124.11L1.36 121.11L-1.41 120.23L-3.54 122.35L-2.90 125.35L-0.14 126.23ZM3.90 133.10L3.27 130.10L0.50 129.22L-1.63 131.34L-0.99 134.33L1.77 135.21ZM5.40 127.99L4.76 124.99L2.00 124.11L-0.14 126.23L0.50 129.22L3.27 130.10ZM7.31 136.97L6.67 133.98L3.90 133.10L1.77 135.21L2.41 138.21L5.17 139.09ZM2.41 138.21L1.77 135.21L-0.99 134.33L-3.12 136.45L-2.49 139.44L0.28 140.32ZM8.80 131.86L8.17 128.87L5.40 127.99L3.27 130.10L3.90 133.10L6.67 133.98ZM7.99 103.64L7.35 100.64L4.58 99.76L2.44 101.88L3.08 104.88L5.85 105.76ZM9.89 112.64L9.26 109.64L6.49 108.76L4.35 110.88L4.99 113.88L7.76 114.76ZM11.39 107.52L10.76 104.52L7.99 103.64L5.85 105.76L6.49 108.76L9.26 109.64ZM14.40 97.28L13.76 94.28L10.99 93.40L8.85 95.52L9.49 98.52L12.26 99.40ZM15.90 92.16L15.26 89.15L12.49 88.27L10.35 90.39L10.99 93.40L13.76 94.28ZM17.80 101.17L17.17 98.16L14.40 97.28L12.26 99.40L12.89 102.40L15.67 103.29ZM12.89 102.40L12.26 99.40L9.49 98.52L7.35 100.64L7.99 103.64L10.76 104.52ZM19.31 96.04L18.67 93.04L15.90 92.16L13.76 94.28L14.40 97.28L17.17 98.16ZM80.77 42.63L80.14 39.62L77.35 38.72L75.19 40.85L75.82 43.87L78.61 44.76ZM75.82 43.87L75.19 40.85L72.40 39.96L70.24 42.08L70.87 45.10L73.66 45.99ZM82.30 37.49L81.67 34.47L78.88 33.58L76.72 35.70L77.35 38.72L80.14 39.62ZM77.35 38.72L76.72 35.70L73.93 34.81L71.77 36.94L72.40 39.96L75.19 40.85ZM84.18 46.55L83.56 43.53L80.77 42.63L78.61 44.76L79.24 47.78L82.02 48.67ZM79.24 47.78L78.61 44.76L75.82 43.87L73.66 45.99L74.29 49.01L77.08 49.90ZM85.72 41.40L85.09 38.38L82.30 37.49L80.14 39.62L80.77 42.63L83.56 43.53ZM67.46 41.19L66.83 38.17L64.04 37.28L61.88 39.41L62.51 42.43L65.30 43.32ZM62.51 42.43L61.88 39.41L59.09 38.52L56.94 40.65L57.57 43.66L60.36 44.55ZM68.98 36.05L68.35 33.03L65.57 32.14L63.41 34.27L64.04 37.28L66.83 38.17ZM64.04 37.28L63.41 34.27L60.62 33.38L58.46 35.50L59.09 38.52L61.88 39.41ZM70.87 45.10L70.24 42.08L67.46 41.19L65.30 43.32L65.93 46.33L68.72 47.22ZM65.93 46.33L65.30 43.32L62.51 42.43L60.36 44.55L60.99 47.57L63.77 48.46ZM72.40 39.96L71.77 36.94L68.98 36.05L66.83 38.17L67.46 41.19L70.24 42.08ZM88.79 31.11L88.16 28.09L85.37 27.20L83.21 29.32L83.83 32.34L86.63 33.24ZM83.83 32.34L83.21 29.32L80.42 28.43L78.25 30.56L78.88 33.58L81.67 34.47ZM90.33 25.96L89.70 22.94L86.91 22.05L84.74 24.18L85.37 27.20L88.16 28.09ZM85.37 27.20L84.74 24.18L81.95 23.28L79.79 25.41L80.42 28.43L83.21 29.32ZM92.21 35.03L91.58 32.01L88.79 31.11L86.63 33.24L87.25 36.26L90.04 37.15ZM87.25 36.26L86.63 33.24L83.83 32.34L81.67 34.47L82.30 37.49L85.09 38.38ZM75.46 29.67L74.83 26.65L72.04 25.75L69.88 27.88L70.51 30.90L73.30 31.79ZM70.51 30.90L69.88 27.88L67.09 26.99L64.93 29.12L65.57 32.14L68.35 33.03ZM77.00 24.52L76.37 21.50L73.57 20.61L71.41 22.73L72.04 25.75L74.83 26.65ZM72.04 25.75L71.41 22.73L68.62 21.84L66.46 23.97L67.09 26.99L69.88 27.88ZM78.88 33.58L78.25 30.56L75.46 29.67L73.30 31.79L73.93 34.81L76.72 35.70ZM73.93 34.81L73.30 31.79L70.51 30.90L68.35 33.03L68.98 36.05L71.77 36.94ZM80.42 28.43L79.79 25.41L77.00 24.52L74.83 26.65L75.46 29.67L78.25 30.56ZM86.07 55.60L85.44 52.58L82.65 51.69L80.49 53.81L81.12 56.83L83.91 57.72ZM81.12 56.83L80.49 53.81L77.71 52.92L75.55 55.04L76.18 58.06L78.96 58.95ZM87.60 50.46L86.97 47.44L84.18 46.55L82.02 48.67L82.65 51.69L85.44 52.58ZM82.65 51.69L82.02 48.67L79.24 47.78L77.08 49.90L77.71 52.92L80.49 53.81ZM84.53 60.74L83.91 57.72L81.12 56.83L78.96 58.95L79.59 61.96L82.37 62.86ZM72.76 54.15L72.13 51.13L69.35 50.24L67.19 52.36L67.82 55.38L70.60 56.27ZM67.82 55.38L67.19 52.36L64.40 51.47L62.25 53.60L62.88 56.61L65.66 57.50ZM74.29 49.01L73.66 45.99L70.87 45.10L68.72 47.22L69.35 50.24L72.13 51.13ZM69.35 50.24L68.72 47.22L65.93 46.33L63.77 48.46L64.40 51.47L67.19 52.36ZM76.18 58.06L75.55 55.04L72.76 54.15L70.60 56.27L71.23 59.29L74.02 60.18ZM71.23 59.29L70.60 56.27L67.82 55.38L65.66 57.50L66.29 60.52L69.08 61.41ZM77.71 52.92L77.08 49.90L74.29 49.01L72.13 51.13L72.76 54.15L75.55 55.04ZM89.13 45.32L88.51 42.30L85.72 41.40L83.56 43.53L84.18 46.55L86.97 47.44ZM90.67 40.17L90.04 37.15L87.25 36.26L85.09 38.38L85.72 41.40L88.51 42.30ZM86.56 7.83L85.93 4.80L83.13 3.91L80.97 6.04L81.60 9.06L84.39 9.96ZM89.98 11.74L89.35 8.72L86.56 7.83L84.39 9.96L85.02 12.98L87.81 13.87ZM78.17 5.15L77.54 2.12L74.75 1.23L72.59 3.36L73.22 6.39L76.01 7.28ZM73.22 6.39L72.59 3.36L69.79 2.47L67.63 4.61L68.26 7.63L71.05 8.52ZM79.71 -0.01L79.08 -3.03L76.28 -3.92L74.12 -1.79L74.75 1.23L77.54 2.12ZM74.75 1.23L74.12 -1.79L71.32 -2.68L69.16 -0.55L69.79 2.47L72.59 3.36ZM81.60 9.06L80.97 6.04L78.17 5.15L76.01 7.28L76.64 10.30L79.43 11.19ZM76.64 10.30L76.01 7.28L73.22 6.39L71.05 8.52L71.68 11.54L74.48 12.43ZM83.13 3.91L82.50 0.88L79.71 -0.01L77.54 2.12L78.17 5.15L80.97 6.04ZM84.67 -1.25L84.04 -4.27L81.25 -5.17L79.08 -3.03L79.71 -0.01L82.50 0.88ZM91.86 20.82L91.24 17.79L88.44 16.90L86.28 19.03L86.91 22.05L89.70 22.94ZM83.48 18.13L82.86 15.11L80.06 14.22L77.90 16.35L78.53 19.37L81.32 20.26ZM78.53 19.37L77.90 16.35L75.11 15.45L72.94 17.58L73.57 20.61L76.37 21.50ZM85.02 12.98L84.39 9.96L81.60 9.06L79.43 11.19L80.06 14.22L82.86 15.11ZM80.06 14.22L79.43 11.19L76.64 10.30L74.48 12.43L75.11 15.45L77.90 16.35ZM86.91 22.05L86.28 19.03L83.48 18.13L81.32 20.26L81.95 23.28L84.74 24.18ZM81.95 23.28L81.32 20.26L78.53 19.37L76.37 21.50L77.00 24.52L79.79 25.41ZM88.44 16.90L87.81 13.87L85.02 12.98L82.86 15.11L83.48 18.13L86.28 19.03ZM45.42 207.79L44.79 204.80L42.04 203.91L39.90 206.01L40.53 209.00L43.29 209.89ZM54.47 177.23L53.84 174.24L51.07 173.35L48.94 175.45L49.57 178.45L52.33 179.34ZM55.98 172.13L55.35 169.14L52.58 168.25L50.45 170.35L51.07 173.35L53.84 174.24Z"/><path data-band="2" fill="#f97316" fill-opacity="0.35" d="M22.23 24.00L21.60 20.98L18.81 20.10L16.66 22.23L17.30 25.25L20.08 26.13ZM17.30 25.25L16.66 22.23L13.88 21.35L11.73 23.49L12.37 26.50L15.15 27.38ZM23.75 18.85L23.11 15.83L20.32 14.95L18.17 17.09L18.81 20.10L21.60 20.98ZM18.81 20.10L18.17 17.09L15.38 16.20L13.24 18.34L13.88 21.35L16.66 22.23ZM20.72 29.14L20.08 26.13L17.30 25.25L15.15 27.38L15.79 30.39L18.57 31.27ZM8.94 22.61L8.30 19.59L5.52 18.72L3.37 20.85L4.01 23.86L6.80 24.74ZM4.01 23.86L3.37 20.85L0.59 19.97L-1.56 22.11L-0.91 25.12L1.87 26.00ZM10.45 17.46L9.81 14.45L7.03 13.57L4.88 15.70L5.52 18.72L8.30 19.59ZM5.52 18.72L4.88 15.70L2.09 14.82L-0.05 16.96L0.59 19.97L3.37 20.85ZM12.37 26.50L11.73 23.49L8.94 22.61L6.80 24.74L7.44 27.75L10.22 28.63ZM7.44 27.75L6.80 24.74L4.01 23.86L1.87 26.00L2.51 29.01L5.29 29.89ZM13.88 21.35L13.24 18.34L10.45 17.46L8.30 19.59L8.94 22.61L11.73 23.49ZM25.26 13.70L24.62 10.68L21.83 9.80L19.68 11.94L20.32 14.95L23.11 15.83ZM16.90 11.06L16.26 8.04L13.47 7.16L11.32 9.30L11.96 12.31L14.75 13.19ZM11.96 12.31L11.32 9.30L8.53 8.42L6.39 10.55L7.03 13.57L9.81 14.45ZM18.41 5.90L17.77 2.89L14.98 2.01L12.83 4.14L13.47 7.16L16.26 8.04ZM13.47 7.16L12.83 4.14L10.04 3.27L7.89 5.40L8.53 8.42L11.32 9.30ZM20.32 14.95L19.68 11.94L16.90 11.06L14.75 13.19L15.38 16.20L18.17 17.09ZM15.38 16.20L14.75 13.19L11.96 12.31L9.81 14.45L10.45 17.46L13.24 18.34ZM22.63 38.18L22.00 35.17L19.21 34.29L17.06 36.42L17.70 39.43L20.49 40.31ZM24.14 33.04L23.51 30.02L20.72 29.14L18.57 31.27L19.21 34.29L22.00 35.17ZM14.28 35.54L13.64 32.52L10.86 31.64L8.71 33.78L9.35 36.79L12.14 37.67ZM9.35 36.79L8.71 33.78L5.93 32.90L3.79 35.03L4.43 38.04L7.21 38.92ZM15.79 30.39L15.15 27.38L12.37 26.50L10.22 28.63L10.86 31.64L13.64 32.52ZM10.86 31.64L10.22 28.63L7.44 27.75L5.29 29.89L5.93 32.90L8.71 33.78ZM17.70 39.43L17.06 36.42L14.28 35.54L12.14 37.67L12.77 40.68L15.56 41.56ZM12.77 40.68L12.14 37.67L9.35 36.79L7.21 38.92L7.85 41.93L10.63 42.81ZM19.21 34.29L18.57 31.27L15.79 30.39L13.64 32.52L14.28 35.54L17.06 36.42ZM0.59 19.97L-0.05 16.96L-2.84 16.08L-4.98 18.22L-4.34 21.23L-1.56 22.11ZM1.01 34.15L0.37 31.14L-2.42 30.26L-4.56 32.40L-3.92 35.41L-1.14 36.28ZM2.51 29.01L1.87 26.00L-0.91 25.12L-3.06 27.25L-2.42 30.26L0.37 31.14ZM4.43 38.04L3.79 35.03L1.01 34.15L-1.14 36.28L-0.50 39.29L2.28 40.17ZM5.93 32.90L5.29 29.89L2.51 29.01L0.37 31.14L1.01 34.15L3.79 35.03ZM1.68 0.63L1.04 -2.38L-1.75 -3.26L-3.90 -1.12L-3.26 1.89L-0.47 2.77ZM3.60 9.68L2.96 6.66L0.17 5.78L-1.97 7.92L-1.33 10.93L1.45 11.81ZM5.11 4.52L4.46 1.51L1.68 0.63L-0.47 2.77L0.17 5.78L2.96 6.66ZM0.17 5.78L-0.47 2.77L-3.26 1.89L-5.40 4.03L-4.76 7.04L-1.97 7.92ZM7.03 13.57L6.39 10.55L3.60 9.68L1.45 11.81L2.09 14.82L4.88 15.70ZM2.09 14.82L1.45 11.81L-1.33 10.93L-3.48 13.07L-2.84 16.08L-0.05 16.96ZM8.53 8.42L7.89 5.40L5.11 4.52L2.96 6.66L3.60 9.68L6.39 10.55ZM11.55 -1.89L10.91 -4.91L8.12 -5.78L5.97 -3.65L6.61 -0.63L9.40 0.25ZM6.61 -0.63L5.97 -3.65L3.18 -4.52L1.04 -2.38L1.68 0.63L4.46 1.51ZM14.98 2.01L14.34 -1.01L11.55 -1.89L9.40 0.25L10.04 3.27L12.83 4.14ZM10.04 3.27L9.40 0.25L6.61 -0.63L4.46 1.51L5.11 4.52L7.89 5.40ZM11.68 59.98L11.04 56.97L8.26 56.09L6.12 58.22L6.75 61.23L9.53 62.11ZM6.75 61.23L6.12 58.22L3.34 57.34L1.20 59.47L1.84 62.47L4.61 63.35ZM13.18 54.84L12.54 51.84L9.76 50.96L7.62 53.08L8.26 56.09L11.04 56.97ZM8.26 56.09L7.62 53.08L4.84 52.20L2.70 54.33L3.34 57.34L6.12 58.22ZM15.09 63.87L14.45 60.86L11.68 59.98L9.53 62.11L10.17 65.11L12.95 65.99ZM10.17 65.11L9.53 62.11L6.75 61.23L4.61 63.35L5.25 66.36L8.03 67.24ZM16.60 58.73L15.96 55.73L13.18 54.84L11.04 56.97L11.68 59.98L14.45 60.86ZM1.84 62.47L1.20 59.47L-1.58 58.59L-3.72 60.72L-3.08 63.72L-0.30 64.60ZM3.34 57.34L2.70 54.33L-0.08 53.46L-2.22 55.58L-1.58 58.59L1.20 59.47ZM19.61 48.46L18.98 45.45L16.19 44.57L14.05 46.70L14.69 49.71L17.47 50.59ZM14.69 49.71L14.05 46.70L11.27 45.82L9.12 47.95L9.76 50.96L12.54 51.84ZM21.12 43.32L20.49 40.31L17.70 39.43L15.56 41.56L16.19 44.57L18.98 45.45ZM16.19 44.57L15.56 41.56L12.77 40.68L10.63 42.81L11.27 45.82L14.05 46.70ZM23.03 52.35L22.39 49.34L19.61 48.46L17.47 50.59L18.10 53.60L20.89 54.48ZM18.10 53.60L17.47 50.59L14.69 49.71L12.54 51.84L13.18 54.84L15.96 55.73ZM24.54 47.21L23.90 44.20L21.12 43.32L18.98 45.45L19.61 48.46L22.39 49.34ZM6.34 47.07L5.70 44.06L2.92 43.18L0.78 45.31L1.42 48.32L4.20 49.20ZM1.42 48.32L0.78 45.31L-2.00 44.43L-4.14 46.56L-3.50 49.57L-0.72 50.45ZM7.85 41.93L7.21 38.92L4.43 38.04L2.28 40.17L2.92 43.18L5.70 44.06ZM2.92 43.18L2.28 40.17L-0.50 39.29L-2.64 41.42L-2.00 44.43L0.78 45.31ZM9.76 50.96L9.12 47.95L6.34 47.07L4.20 49.20L4.84 52.20L7.62 53.08ZM4.84 52.20L4.20 49.20L1.42 48.32L-0.72 50.45L-0.08 53.46L2.70 54.33ZM11.27 45.82L10.63 42.81L7.85 41.93L5.70 44.06L6.34 47.07L9.12 47.95ZM17.00 72.89L16.36 69.88L13.59 69.00L11.45 71.13L12.08 74.13L14.86 75.01ZM12.08 74.13L11.45 71.13L8.67 70.25L6.53 72.37L7.17 75.38L9.94 76.26ZM18.51 67.76L17.87 64.75L15.09 63.87L12.95 65.99L13.59 69.00L16.36 69.88ZM13.59 69.00L12.95 65.99L10.17 65.11L8.03 67.24L8.67 70.25L11.45 71.13ZM15.50 78.02L14.86 75.01L12.08 74.13L9.94 76.26L10.58 79.26L13.36 80.14ZM3.75 71.49L3.11 68.49L0.34 67.61L-1.80 69.73L-1.16 72.74L1.61 73.62ZM5.25 66.36L4.61 63.35L1.84 62.47L-0.30 64.60L0.34 67.61L3.11 68.49ZM0.34 67.61L-0.30 64.60L-3.08 63.72L-5.22 65.85L-4.58 68.86L-1.80 69.73ZM7.17 75.38L6.53 72.37L3.75 71.49L1.61 73.62L2.25 76.62L5.03 77.50ZM2.25 76.62L1.61 73.62L-1.16 72.74L-3.30 74.86L-2.66 77.87L0.11 78.75ZM8.67 70.25L8.03 67.24L5.25 66.36L3.11 68.49L3.75 71.49L6.53 72.37ZM21.52 57.49L20.89 54.48L18.10 53.60L15.96 55.73L16.60 58.73L19.38 59.62ZM18.91 81.91L18.27 78.90L15.50 78.02L13.36 80.14L13.99 83.15L16.77 84.03ZM0.09 115.12L-0.55 112.12L-3.32 111.24L-5.45 113.36L-4.81 116.36L-2.05 117.23ZM3.49 118.99L2.85 116.00L0.09 115.12L-2.05 117.23L-1.41 120.23L1.36 121.11ZM0.91 143.32L0.28 140.32L-2.49 139.44L-4.61 141.56L-3.98 144.55L-1.21 145.43ZM0.50 129.22L-0.14 126.23L-2.90 125.35L-5.03 127.46L-4.40 130.46L-1.63 131.34ZM1.17 95.88L0.53 92.88L-2.24 92.00L-4.38 94.12L-3.74 97.12L-0.97 98.00ZM2.67 90.76L2.03 87.75L-0.75 86.87L-2.88 89.00L-2.24 92.00L0.53 92.88ZM4.58 99.76L3.94 96.76L1.17 95.88L-0.97 98.00L-0.33 101.00L2.44 101.88ZM6.08 94.64L5.44 91.64L2.67 90.76L0.53 92.88L1.17 95.88L3.94 96.76ZM9.08 84.39L8.44 81.38L5.66 80.50L3.53 82.63L4.16 85.63L6.94 86.51ZM4.16 85.63L3.53 82.63L0.75 81.75L-1.38 83.87L-0.75 86.87L2.03 87.75ZM10.58 79.26L9.94 76.26L7.17 75.38L5.03 77.50L5.66 80.50L8.44 81.38ZM5.66 80.50L5.03 77.50L2.25 76.62L0.11 78.75L0.75 81.75L3.53 82.63ZM12.49 88.27L11.85 85.27L9.08 84.39L6.94 86.51L7.58 89.51L10.35 90.39ZM7.58 89.51L6.94 86.51L4.16 85.63L2.03 87.75L2.67 90.76L5.44 91.64ZM13.99 83.15L13.36 80.14L10.58 79.26L8.44 81.38L9.08 84.39L11.85 85.27ZM0.75 81.75L0.11 78.75L-2.66 77.87L-4.80 79.99L-4.16 82.99L-1.38 83.87ZM6.49 108.76L5.85 105.76L3.08 104.88L0.94 107.00L1.58 110.00L4.35 110.88ZM1.58 110.00L0.94 107.00L-1.83 106.12L-3.96 108.24L-3.32 111.24L-0.55 112.12ZM3.08 104.88L2.44 101.88L-0.33 101.00L-2.46 103.12L-1.83 106.12L0.94 107.00ZM4.99 113.88L4.35 110.88L1.58 110.00L-0.55 112.12L0.09 115.12L2.85 116.00ZM9.49 98.52L8.85 95.52L6.08 94.64L3.94 96.76L4.58 99.76L7.35 100.64ZM10.99 93.40L10.35 90.39L7.58 89.51L5.44 91.64L6.08 94.64L8.85 95.52Z"/></svg>
