<svg xmlns="http://www.w3.org/2000/svg" width="256" height="256" viewBox="0 0 256 256"><path data-band="1" fill="#fde68a" fill-opacity="0.35" d="M22.57 211.66L19.92 199.58L8.72 196.18L0.19 204.87L2.85 216.95L14.04 220.35ZM2.85 216.95L0.19 204.87L-11.00 201.48L-19.53 210.17L-16.87 222.25L-5.69 225.64ZM28.46 190.89L25.80 178.80L14.61 175.40L6.07 184.10L8.72 196.18L19.92 199.58ZM8.72 196.18L6.07 184.10L-5.13 180.71L-13.66 189.40L-11.00 201.48L0.19 204.87ZM36.42 227.14L33.77 215.06L22.57 211.66L14.04 220.35L16.69 232.42L27.88 235.82ZM16.69 232.42L14.04 220.35L2.85 216.95L-5.69 225.64L-3.03 237.72L8.16 241.11ZM42.31 206.37L39.66 194.28L28.46 190.89L19.92 199.58L22.57 211.66L33.77 215.06ZM54.10 164.81L51.45 152.72L40.24 149.32L31.69 158.01L34.35 170.10L45.55 173.50ZM34.35 170.10L31.69 158.01L20.49 154.62L11.95 163.32L14.61 175.40L25.80 178.80ZM60.00 144.02L57.35 131.92L46.14 128.52L37.59 137.22L40.24 149.32L51.45 152.72ZM40.24 149.32L37.59 137.22L26.38 133.83L17.83 142.53L20.49 154.62L31.69 158.01ZM67.95 180.30L65.30 168.21L54.10 164.81L45.55 173.50L48.20 185.59L59.40 188.99ZM48.20 185.59L45.55 173.50L34.35 170.10L25.80 178.80L28.46 190.89L39.66 194.28ZM73.86 159.52L71.21 147.42L60.00 144.02L51.45 152.72L54.10 164.81L65.30 168.21ZM0.75 159.93L-1.91 147.84L-13.11 144.45L-21.65 153.15L-18.99 165.24L-7.79 168.62ZM6.63 139.14L3.97 127.04L-7.23 123.66L-15.78 132.36L-13.11 144.45L-1.91 147.84ZM14.61 175.40L11.95 163.32L0.75 159.93L-7.79 168.62L-5.13 180.71L6.07 184.10ZM20.49 154.62L17.83 142.53L6.63 139.14L-1.91 147.84L0.75 159.93L11.95 163.32ZM44.37 263.38L41.72 251.30L30.53 247.90L22.00 256.58L24.65 268.66L35.84 272.05ZM24.65 268.66L22.00 256.58L10.81 253.18L2.28 261.86L4.94 273.94L16.12 277.33ZM50.26 242.62L47.61 230.54L36.42 227.14L27.88 235.82L30.53 247.90L41.72 251.30ZM30.53 247.90L27.88 235.82L16.69 232.42L8.16 241.11L10.81 253.18L22.00 256.58ZM64.10 258.10L61.45 246.02L50.26 242.62L41.72 251.30L44.37 263.38L55.56 266.78ZM10.81 253.18L8.16 241.11L-3.03 237.72L-11.56 246.40L-8.90 258.47L2.28 261.86ZM75.90 216.58L73.25 204.49L62.05 201.08L53.50 209.77L56.15 221.86L67.35 225.26ZM56.15 221.86L53.50 209.77L42.31 206.37L33.77 215.06L36.42 227.14L47.61 230.54ZM81.80 195.80L79.16 183.71L67.95 180.30L59.40 188.99L62.05 201.08L73.25 204.49ZM62.05 201.08L59.40 188.99L48.20 185.59L39.66 194.28L42.31 206.37L53.50 209.77ZM89.74 232.07L87.10 219.98L75.90 216.58L67.35 225.26L70.00 237.34L81.19 240.75ZM70.00 237.34L67.35 225.26L56.15 221.86L47.61 230.54L50.26 242.62L61.45 246.02ZM95.65 211.30L93.01 199.21L81.80 195.80L73.25 204.49L75.90 216.58L87.10 219.98ZM85.68 117.93L83.03 105.82L71.82 102.42L63.25 111.12L65.91 123.22L77.12 126.63ZM65.91 123.22L63.25 111.12L52.04 107.72L43.48 116.42L46.14 128.52L57.35 131.92ZM99.55 133.44L96.90 121.33L85.68 117.93L77.12 126.63L79.77 138.73L90.98 142.13ZM79.77 138.73L77.12 126.63L65.91 123.22L57.35 131.92L60.00 144.02L71.21 147.42ZM105.47 112.63L102.82 100.53L91.60 97.12L83.03 105.82L85.68 117.93L96.90 121.33ZM32.27 113.03L29.62 100.93L18.41 97.54L9.86 106.25L12.52 118.34L23.72 121.73ZM12.52 118.34L9.86 106.25L-1.35 102.86L-9.90 111.56L-7.23 123.66L3.97 127.04ZM46.14 128.52L43.48 116.42L32.27 113.03L23.72 121.73L26.38 133.83L37.59 137.22ZM26.38 133.83L23.72 121.73L12.52 118.34L3.97 127.04L6.63 139.14L17.83 142.53ZM156.93 252.57L154.30 240.48L143.09 237.05L134.53 245.73L137.17 257.82L148.37 261.24ZM137.17 257.82L134.53 245.73L123.33 242.31L114.78 250.98L117.42 263.07L128.61 266.49ZM170.76 268.09L168.13 255.99L156.93 252.57L148.37 261.24L151.00 273.33L162.20 276.75ZM97.67 268.33L95.03 256.25L83.84 252.84L75.29 261.51L77.93 273.59L89.12 277.00ZM103.58 247.57L100.94 235.48L89.74 232.07L81.19 240.75L83.84 252.84L95.03 256.25ZM83.84 252.84L81.19 240.75L70.00 237.34L61.45 246.02L64.10 258.10L75.29 261.51ZM117.42 263.07L114.78 250.98L103.58 247.57L95.03 256.25L97.67 268.33L108.86 271.74ZM259.95 148.47L257.32 136.34L246.09 132.91L237.49 141.59L240.12 153.71L251.34 157.15ZM240.12 153.71L237.49 141.59L226.27 138.15L217.67 146.84L220.30 158.95L231.52 162.39ZM267.81 184.82L265.19 172.70L253.97 169.26L245.37 177.94L247.99 190.05L259.21 193.49ZM247.99 190.05L245.37 177.94L234.15 174.50L225.56 183.18L228.18 195.29L239.40 198.73ZM273.80 164.03L271.17 151.91L259.95 148.47L251.34 157.15L253.97 169.26L265.19 172.70ZM253.97 169.26L251.34 157.15L240.12 153.71L231.52 162.39L234.15 174.50L245.37 177.94ZM261.84 205.61L259.21 193.49L247.99 190.05L239.40 198.73L242.02 210.84L253.24 214.28ZM160.90 174.72L158.26 162.61L147.04 159.19L138.47 167.88L141.11 179.98L152.32 183.40ZM141.11 179.98L138.47 167.88L127.26 164.47L118.69 173.15L121.33 185.25L132.54 188.67ZM166.84 153.93L164.20 141.82L152.98 138.40L144.40 147.09L147.04 159.19L158.26 162.61ZM147.04 159.19L144.40 147.09L133.19 143.67L124.62 152.36L127.26 164.47L138.47 167.88ZM174.74 190.25L172.11 178.14L160.90 174.72L152.32 183.40L154.96 195.51L166.17 198.93ZM154.96 195.51L152.32 183.40L141.11 179.98L132.54 188.67L135.18 200.77L146.39 204.18ZM180.69 169.46L178.05 157.35L166.84 153.93L158.26 162.61L160.90 174.72L172.11 178.14ZM107.48 169.74L104.84 157.64L93.63 154.23L85.07 162.92L87.71 175.02L98.92 178.43ZM87.71 175.02L85.07 162.92L73.86 159.52L65.30 168.21L67.95 180.30L79.16 183.71ZM113.40 148.95L110.76 136.85L99.55 133.44L90.98 142.13L93.63 154.23L104.84 157.64ZM93.63 154.23L90.98 142.13L79.77 138.73L71.21 147.42L73.86 159.52L85.07 162.92ZM121.33 185.25L118.69 173.15L107.48 169.74L98.92 178.43L101.56 190.53L112.77 193.94ZM101.56 190.53L98.92 178.43L87.71 175.02L79.16 183.71L81.80 195.80L93.01 199.21ZM127.26 164.47L124.62 152.36L113.40 148.95L104.84 157.64L107.48 169.74L118.69 173.15ZM192.59 127.86L189.96 115.75L178.73 112.32L170.15 121.02L172.78 133.13L184.00 136.55ZM172.78 133.13L170.15 121.02L158.92 117.60L150.34 126.29L152.98 138.40L164.20 141.82ZM178.73 112.32L176.10 100.21L164.87 96.79L156.28 105.48L158.92 117.60L170.15 121.02ZM206.45 143.41L203.82 131.29L192.59 127.86L184.00 136.55L186.64 148.67L197.86 152.09ZM186.64 148.67L184.00 136.55L172.78 133.13L164.20 141.82L166.84 153.93L178.05 157.35ZM139.12 122.87L136.48 110.76L125.26 107.35L116.69 116.04L119.33 128.15L130.55 131.57ZM119.33 128.15L116.69 116.04L105.47 112.63L96.90 121.33L99.55 133.44L110.76 136.85ZM152.98 138.40L150.34 126.29L139.12 122.87L130.55 131.57L133.19 143.67L144.40 147.09ZM133.19 143.67L130.55 131.57L119.33 128.15L110.76 136.85L113.40 148.95L124.62 152.36ZM158.92 117.60L156.28 105.48L145.06 102.06L136.48 110.76L139.12 122.87L150.34 126.29ZM182.64 226.55L180.01 214.45L168.80 211.03L160.23 219.70L162.86 231.80L174.07 235.23ZM162.86 231.80L160.23 219.70L149.02 216.28L140.46 224.96L143.09 237.05L154.30 240.48ZM188.59 205.78L185.96 193.67L174.74 190.25L166.17 198.93L168.80 211.03L180.01 214.45ZM168.80 211.03L166.17 198.93L154.96 195.51L146.39 204.18L149.02 216.28L160.23 219.70ZM196.48 242.08L193.85 229.98L182.64 226.55L174.07 235.23L176.70 247.32L187.90 250.75ZM176.70 247.32L174.07 235.23L162.86 231.80L154.30 240.48L156.93 252.57L168.13 255.99ZM202.43 221.31L199.80 209.21L188.59 205.78L180.01 214.45L182.64 226.55L193.85 229.98ZM129.25 221.54L126.61 209.45L115.41 206.03L106.85 214.71L109.49 226.80L120.69 230.22ZM109.49 226.80L106.85 214.71L95.65 211.30L87.10 219.98L89.74 232.07L100.94 235.48ZM135.18 200.77L132.54 188.67L121.33 185.25L112.77 193.94L115.41 206.03L126.61 209.45ZM115.41 206.03L112.77 193.94L101.56 190.53L93.01 199.21L95.65 211.30L106.85 214.71ZM143.09 237.05L140.46 224.96L129.25 221.54L120.69 230.22L123.33 242.31L134.53 245.73ZM123.33 242.31L120.69 230.22L109.49 226.80L100.94 235.48L103.58 247.57L114.78 250.98ZM149.02 216.28L146.39 204.18L135.18 200.77L126.61 209.45L129.25 221.54L140.46 224.96ZM214.34 179.75L211.71 167.64L200.49 164.21L191.91 172.89L194.54 185.00L205.75 188.43ZM194.54 185.00L191.91 172.89L180.69 169.46L172.11 178.14L174.74 190.25L185.96 193.67ZM220.30 158.95L217.67 146.84L206.45 143.41L197.86 152.09L200.49 164.21L211.71 167.64ZM200.49 164.21L197.86 152.09L186.64 148.67L178.05 157.35L180.69 169.46L191.91 172.89ZM228.18 195.29L225.56 183.18L214.34 179.75L205.75 188.43L208.38 200.53L219.60 203.97ZM208.38 200.53L205.75 188.43L194.54 185.00L185.96 193.67L188.59 205.78L199.80 209.21ZM234.15 174.50L231.52 162.39L220.30 158.95L211.71 167.64L214.34 179.75L225.56 183.18ZM263.72 262.71L261.10 250.60L249.89 247.16L241.31 255.82L243.93 267.93L255.13 271.37ZM243.93 267.93L241.31 255.82L230.10 252.39L221.52 261.05L224.14 273.15L235.34 276.59ZM210.31 257.62L207.68 245.52L196.48 242.08L187.90 250.75L190.53 262.85L201.73 266.28ZM190.53 262.85L187.90 250.75L176.70 247.32L168.13 255.99L170.76 268.09L181.96 271.51ZM269.70 241.94L267.08 229.83L255.86 226.39L247.27 235.05L249.89 247.16L261.10 250.60ZM275.67 221.16L273.05 209.05L261.84 205.61L253.24 214.28L255.86 226.39L267.08 229.83ZM236.06 231.62L233.43 219.51L222.22 216.07L213.64 224.74L216.26 236.85L227.47 240.28ZM216.26 236.85L213.64 224.74L202.43 221.31L193.85 229.98L196.48 242.08L207.68 245.52ZM242.02 210.84L239.40 198.73L228.18 195.29L219.60 203.97L222.22 216.07L233.43 219.51ZM222.22 216.07L219.60 203.97L208.38 200.53L199.80 209.21L202.43 221.31L213.64 224.74ZM249.89 247.16L247.27 235.05L236.06 231.62L227.47 240.28L230.10 252.39L241.31 255.82ZM230.10 252.39L227.47 240.28L216.26 236.85L207.68 245.52L210.31 257.62L221.52 261.05ZM255.86 226.39L253.24 214.28L242.02 210.84L233.43 219.51L236.06 231.62L247.27 235.05Z"/></svg>
