<svg xmlns="http://www.w3.org/2000/svg" width="256" height="256" viewBox="0 0 256 256"><path data-band="2" fill="#f97316" fill-opacity="0.35" d="M99.83 4.69L97.20 -7.36L86.04 -10.77L77.53 -2.14L80.16 9.90L91.31 13.32ZM80.16 9.90L77.53 -2.14L66.38 -5.56L57.87 3.07L60.50 15.12L71.65 18.53ZM113.61 20.16L110.98 8.11L99.83 4.69L91.31 13.32L93.94 25.36L105.09 28.78ZM93.94 25.36L91.31 13.32L80.16 9.90L71.65 18.53L74.28 30.57L85.43 33.99ZM119.50 -0.51L116.87 -12.57L105.72 -15.99L97.20 -7.36L99.83 4.69L110.98 8.11ZM46.72 -0.34L44.08 -12.38L32.93 -15.78L24.43 -7.15L27.07 4.89L38.21 8.30ZM27.07 4.89L24.43 -7.15L13.28 -10.55L4.78 -1.92L7.43 10.12L18.57 13.52ZM60.50 15.12L57.87 3.07L46.72 -0.34L38.21 8.30L40.85 20.34L52.00 23.75ZM40.85 20.34L38.21 8.30L27.07 4.89L18.57 13.52L21.21 25.56L32.35 28.96ZM66.38 -5.56L63.74 -17.60L52.59 -21.01L44.08 -12.38L46.72 -0.34L57.87 3.07ZM7.43 10.12L4.78 -1.92L-6.36 -5.31L-14.85 3.32L-12.20 15.35L-1.07 18.75ZM174.61 61.40L171.99 49.35L160.84 45.92L152.31 54.53L154.93 66.58L166.08 70.01ZM154.93 66.58L152.31 54.53L141.16 51.10L132.64 59.72L135.26 71.76L146.41 75.19ZM180.52 40.74L177.90 28.68L166.74 25.25L158.21 33.87L160.84 45.92L171.99 49.35ZM160.84 45.92L158.21 33.87L147.06 30.44L138.54 39.06L141.16 51.10L152.31 54.53ZM188.37 76.89L185.76 64.84L174.61 61.40L166.08 70.01L168.70 82.06L179.84 85.49ZM168.70 82.06L166.08 70.01L154.93 66.58L146.41 75.19L149.03 87.23L160.17 90.67ZM194.29 56.23L191.67 44.17L180.52 40.74L171.99 49.35L174.61 61.40L185.76 64.84ZM121.49 56.29L118.87 44.25L107.72 40.83L99.21 49.45L101.84 61.49L112.98 64.91ZM101.84 61.49L99.21 49.45L88.06 46.03L79.55 54.65L82.18 66.69L93.32 70.10ZM127.39 35.63L124.76 23.58L113.61 20.16L105.09 28.78L107.72 40.83L118.87 44.25ZM107.72 40.83L105.09 28.78L93.94 25.36L85.43 33.99L88.06 46.03L99.21 49.45ZM135.26 71.76L132.64 59.72L121.49 56.29L112.98 64.91L115.61 76.95L126.75 80.38ZM115.61 76.95L112.98 64.91L101.84 61.49L93.32 70.10L95.95 82.14L107.09 85.56ZM141.16 51.10L138.54 39.06L127.39 35.63L118.87 44.25L121.49 56.29L132.64 59.72ZM206.14 14.89L203.52 2.83L192.36 -0.61L183.82 8.01L186.44 20.07L197.59 23.50ZM186.44 20.07L183.82 8.01L172.66 4.57L164.12 13.20L166.74 25.25L177.90 28.68ZM212.06 -5.80L209.45 -17.86L198.28 -21.30L189.74 -12.67L192.36 -0.61L203.52 2.83ZM192.36 -0.61L189.74 -12.67L178.57 -16.11L170.04 -7.48L172.66 4.57L183.82 8.01ZM219.91 30.39L217.30 18.33L206.14 14.89L197.59 23.50L200.21 35.56L211.37 39.00ZM200.21 35.56L197.59 23.50L186.44 20.07L177.90 28.68L180.52 40.74L191.67 44.17ZM225.84 9.71L223.23 -2.35L212.06 -5.80L203.52 2.83L206.14 14.89L217.30 18.33ZM152.97 9.76L150.34 -2.29L139.18 -5.72L130.66 2.91L133.28 14.96L144.44 18.39ZM133.28 14.96L130.66 2.91L119.50 -0.51L110.98 8.11L113.61 20.16L124.76 23.58ZM139.18 -5.72L136.56 -17.77L125.40 -21.20L116.87 -12.57L119.50 -0.51L130.66 2.91ZM166.74 25.25L164.12 13.20L152.97 9.76L144.44 18.39L147.06 30.44L158.21 33.87ZM147.06 30.44L144.44 18.39L133.28 14.96L124.76 23.58L127.39 35.63L138.54 39.06ZM172.66 4.57L170.04 -7.48L158.88 -10.91L150.34 -2.29L152.97 9.76L164.12 13.20ZM196.22 113.02L193.61 100.98L182.46 97.54L173.94 106.14L176.55 118.18L187.69 121.62ZM176.55 118.18L173.94 106.14L162.79 102.71L154.27 111.31L156.89 123.35L168.03 126.79ZM202.14 92.37L199.52 80.33L188.37 76.89L179.84 85.49L182.46 97.54L193.61 100.98ZM182.46 97.54L179.84 85.49L168.70 82.06L160.17 90.67L162.79 102.71L173.94 106.14ZM209.98 128.51L207.36 116.46L196.22 113.02L187.69 121.62L190.31 133.66L201.45 137.11ZM190.31 133.66L187.69 121.62L176.55 118.18L168.03 126.79L170.65 138.82L181.79 142.26ZM215.90 107.86L213.28 95.82L202.14 92.37L193.61 100.98L196.22 113.02L207.36 116.46ZM143.13 107.88L140.51 95.84L129.37 92.41L120.86 101.02L123.48 113.06L134.62 116.49ZM149.03 87.23L146.41 75.19L135.26 71.76L126.75 80.38L129.37 92.41L140.51 95.84ZM129.37 92.41L126.75 80.38L115.61 76.95L107.09 85.56L109.72 97.60L120.86 101.02ZM156.89 123.35L154.27 111.31L143.13 107.88L134.62 116.49L137.24 128.52L148.38 131.95ZM162.79 102.71L160.17 90.67L149.03 87.23L140.51 95.84L143.13 107.88L154.27 111.31ZM227.75 66.55L225.14 54.50L213.98 51.06L205.44 59.67L208.06 71.72L219.21 75.16ZM208.06 71.72L205.44 59.67L194.29 56.23L185.76 64.84L188.37 76.89L199.52 80.33ZM233.68 45.89L231.07 33.83L219.91 30.39L211.37 39.00L213.98 51.06L225.14 54.50ZM213.98 51.06L211.37 39.00L200.21 35.56L191.67 44.17L194.29 56.23L205.44 59.67ZM241.51 82.06L238.90 70.00L227.75 66.55L219.21 75.16L221.82 87.21L232.97 90.66ZM221.82 87.21L219.21 75.16L208.06 71.72L199.52 80.33L202.14 92.37L213.28 95.82ZM247.45 61.40L244.84 49.34L233.68 45.89L225.14 54.50L227.75 66.55L238.90 70.00ZM37.05 97.74L34.41 85.71L23.28 82.31L14.79 90.93L17.43 102.95L28.56 106.36ZM17.43 102.95L14.79 90.93L3.66 87.52L-4.82 96.14L-2.18 108.16L8.95 111.57ZM42.91 77.10L40.27 65.06L29.14 61.66L20.64 70.28L23.28 82.31L34.41 85.71ZM23.28 82.31L20.64 70.28L9.51 66.87L1.02 75.50L3.66 87.52L14.79 90.93ZM56.68 92.54L54.04 80.51L42.91 77.10L34.41 85.71L37.05 97.74L48.18 101.15ZM3.66 87.52L1.02 75.50L-10.11 72.10L-18.59 80.72L-15.94 92.74L-4.82 96.14ZM68.41 51.23L65.78 39.20L54.63 35.78L46.13 44.41L48.77 56.44L59.91 59.85ZM48.77 56.44L46.13 44.41L34.99 41.00L26.50 49.63L29.14 61.66L40.27 65.06ZM74.28 30.57L71.65 18.53L60.50 15.12L52.00 23.75L54.63 35.78L65.78 39.20ZM54.63 35.78L52.00 23.75L40.85 20.34L32.35 28.96L34.99 41.00L46.13 44.41ZM82.18 66.69L79.55 54.65L68.41 51.23L59.91 59.85L62.54 71.89L73.68 75.30ZM62.54 71.89L59.91 59.85L48.77 56.44L40.27 65.06L42.91 77.10L54.04 80.51ZM88.06 46.03L85.43 33.99L74.28 30.57L65.78 39.20L68.41 51.23L79.55 54.65ZM15.36 46.22L12.72 34.19L1.58 30.79L-6.91 39.42L-4.27 51.44L6.87 54.85ZM21.21 25.56L18.57 13.52L7.43 10.12L-1.07 18.75L1.58 30.79L12.72 34.19ZM1.58 30.79L-1.07 18.75L-12.20 15.35L-20.69 23.99L-18.05 36.02L-6.91 39.42ZM29.14 61.66L26.50 49.63L15.36 46.22L6.87 54.85L9.51 66.87L20.64 70.28ZM9.51 66.87L6.87 54.85L-4.27 51.44L-12.75 60.07L-10.11 72.10L1.02 75.50ZM34.99 41.00L32.35 28.96L21.21 25.56L12.72 34.19L15.36 46.22L26.50 49.63ZM90.08 102.79L87.45 90.76L76.31 87.34L67.81 95.95L70.44 107.98L81.57 111.40ZM70.44 107.98L67.81 95.95L56.68 92.54L48.18 101.15L50.82 113.18L61.95 116.59ZM95.95 82.14L93.32 70.10L82.18 66.69L73.68 75.30L76.31 87.34L87.45 90.76ZM76.31 87.34L73.68 75.30L62.54 71.89L54.04 80.51L56.68 92.54L67.81 95.95ZM109.72 97.60L107.09 85.56L95.95 82.14L87.45 90.76L90.08 102.79L101.21 106.21ZM270.90 169.85L268.30 157.80L257.15 154.35L248.62 162.94L251.22 174.98L262.36 178.44ZM276.84 149.22L274.24 137.17L263.09 133.71L254.55 142.30L257.15 154.35L268.30 157.80ZM257.15 154.35L254.55 142.30L243.41 138.85L234.87 147.44L237.48 159.49L248.62 162.94ZM237.48 159.49L234.87 147.44L223.73 144.00L215.20 152.59L217.81 164.63L228.95 168.08ZM249.34 118.21L246.73 106.16L235.58 102.71L227.04 111.31L229.65 123.36L240.80 126.81ZM229.65 123.36L227.04 111.31L215.90 107.86L207.36 116.46L209.98 128.51L221.12 131.95ZM255.27 97.56L252.67 85.51L241.51 82.06L232.97 90.66L235.58 102.71L246.73 106.16ZM235.58 102.71L232.97 90.66L221.82 87.21L213.28 95.82L215.90 107.86L227.04 111.31ZM263.09 133.71L260.49 121.66L249.34 118.21L240.80 126.81L243.41 138.85L254.55 142.30ZM243.41 138.85L240.80 126.81L229.65 123.36L221.12 131.95L223.73 144.00L234.87 147.44ZM269.03 113.07L266.43 101.01L255.27 97.56L246.73 106.16L249.34 118.21L260.49 121.66ZM170.65 138.82L168.03 126.79L156.89 123.35L148.38 131.95L151.00 143.99L162.13 147.42ZM259.34 20.05L256.73 7.99L245.56 4.54L237.01 13.16L239.62 25.22L250.78 28.67ZM239.62 25.22L237.01 13.16L225.84 9.71L217.30 18.33L219.91 30.39L231.07 33.83ZM265.28 -0.63L262.67 -12.70L251.50 -16.15L242.95 -7.53L245.56 4.54L256.73 7.99ZM245.56 4.54L242.95 -7.53L231.78 -10.97L223.23 -2.35L225.84 9.71L237.01 13.16ZM273.11 35.57L270.50 23.51L259.34 20.05L250.78 28.67L253.39 40.73L264.55 44.18ZM253.39 40.73L250.78 28.67L239.62 25.22L231.07 33.83L233.68 45.89L244.84 49.34ZM261.21 76.90L258.61 64.85L247.45 61.40L238.90 70.00L241.51 82.06L252.67 85.51ZM267.16 56.24L264.55 44.18L253.39 40.73L244.84 49.34L247.45 61.40L258.61 64.85ZM274.97 92.41L272.37 80.36L261.21 76.90L252.67 85.51L255.27 97.56L266.43 101.01Z"/><path data-band="3" fill="#dc2626" fill-opacity="0.35" d="M1.99 221.47L-0.65 209.46L-11.75 206.06L-20.22 214.66L-17.58 226.66L-6.48 230.06ZM9.90 257.47L7.26 245.47L-3.84 242.06L-12.30 250.66L-9.66 262.65L1.44 266.06ZM15.73 236.88L13.10 224.88L1.99 221.47L-6.48 230.06L-3.84 242.06L7.26 245.47ZM27.41 195.67L24.78 183.66L13.66 180.25L5.19 188.86L7.83 200.86L18.94 204.27ZM7.83 200.86L5.19 188.86L-5.92 185.45L-14.39 194.05L-11.75 206.06L-0.65 209.46ZM33.26 175.06L30.62 163.05L19.50 159.64L11.02 168.24L13.66 180.25L24.78 183.66ZM13.66 180.25L11.02 168.24L-0.09 164.84L-8.56 173.44L-5.92 185.45L5.19 188.86ZM41.16 211.10L38.52 199.09L27.41 195.67L18.94 204.27L21.57 216.28L32.68 219.69ZM21.57 216.28L18.94 204.27L7.83 200.86L-0.65 209.46L1.99 221.47L13.10 224.88ZM47.01 190.49L44.37 178.47L33.26 175.06L24.78 183.66L27.41 195.67L38.52 199.09ZM49.05 247.12L46.42 235.11L35.31 231.70L26.84 240.29L29.47 252.29L40.58 255.71ZM29.47 252.29L26.84 240.29L15.73 236.88L7.26 245.47L9.90 257.47L21.00 260.88ZM54.90 226.52L52.27 214.51L41.16 211.10L32.68 219.69L35.31 231.70L46.42 235.11ZM35.31 231.70L32.68 219.69L21.57 216.28L13.10 224.88L15.73 236.88L26.84 240.29ZM62.79 262.54L60.16 250.54L49.05 247.12L40.58 255.71L43.21 267.71L54.31 271.13ZM43.21 267.71L40.58 255.71L29.47 252.29L21.00 260.88L23.63 272.88L34.73 276.30ZM68.64 241.95L66.01 229.94L54.90 226.52L46.42 235.11L49.05 247.12L60.16 250.54ZM123.48 113.06L120.86 101.02L109.72 97.60L101.21 106.21L103.84 118.24L114.97 121.67ZM137.24 128.52L134.62 116.49L123.48 113.06L114.97 121.67L117.60 133.70L128.73 137.12ZM50.82 113.18L48.18 101.15L37.05 97.74L28.56 106.36L31.20 118.38L42.32 121.79ZM31.20 118.38L28.56 106.36L17.43 102.95L8.95 111.57L11.59 123.59L22.71 126.99ZM58.72 149.25L56.08 137.23L44.96 133.81L36.47 142.42L39.11 154.44L50.23 157.85ZM39.11 154.44L36.47 142.42L25.35 139.01L16.87 147.62L19.50 159.64L30.62 163.05ZM64.58 128.62L61.95 116.59L50.82 113.18L42.32 121.79L44.96 133.81L56.08 137.23ZM44.96 133.81L42.32 121.79L31.20 118.38L22.71 126.99L25.35 139.01L36.47 142.42ZM72.47 164.69L69.84 152.66L58.72 149.25L50.23 157.85L52.86 169.87L63.98 173.29ZM52.86 169.87L50.23 157.85L39.11 154.44L30.62 163.05L33.26 175.06L44.37 178.47ZM78.34 144.06L75.71 132.04L64.58 128.62L56.08 137.23L58.72 149.25L69.84 152.66ZM5.75 144.21L3.11 132.20L-8.01 128.79L-16.49 137.41L-13.85 149.42L-2.73 152.82ZM11.59 123.59L8.95 111.57L-2.18 108.16L-10.66 116.78L-8.01 128.79L3.11 132.20ZM19.50 159.64L16.87 147.62L5.75 144.21L-2.73 152.82L-0.09 164.84L11.02 168.24ZM25.35 139.01L22.71 126.99L11.59 123.59L3.11 132.20L5.75 144.21L16.87 147.62ZM103.84 118.24L101.21 106.21L90.08 102.79L81.57 111.40L84.20 123.43L95.33 126.85ZM84.20 123.43L81.57 111.40L70.44 107.98L61.95 116.59L64.58 128.62L75.71 132.04ZM260.91 267.80L258.31 255.77L247.18 252.31L238.66 260.89L241.26 272.91L252.38 276.37ZM266.83 247.20L264.23 235.17L253.10 231.71L244.58 240.29L247.18 252.31L258.31 255.77ZM247.18 252.31L244.58 240.29L233.45 236.83L224.93 245.41L227.53 257.44L238.66 260.89ZM207.90 262.56L205.29 250.54L194.17 247.09L185.66 255.67L188.27 267.69L199.39 271.13ZM188.27 267.69L185.66 255.67L174.54 252.23L166.03 260.81L168.65 272.82L179.76 276.26ZM213.81 241.96L211.20 229.93L200.07 226.49L191.56 235.07L194.17 247.09L205.29 250.54ZM194.17 247.09L191.56 235.07L180.44 231.62L171.93 240.21L174.54 252.23L185.66 255.67ZM227.53 257.44L224.93 245.41L213.81 241.96L205.29 250.54L207.90 262.56L219.02 266.01ZM251.22 174.98L248.62 162.94L237.48 159.49L228.95 168.08L231.55 180.12L242.69 183.57ZM264.96 190.48L262.36 178.44L251.22 174.98L242.69 183.57L245.29 195.60L256.43 199.06ZM217.81 164.63L215.20 152.59L204.06 149.14L195.54 157.74L198.15 169.78L209.28 173.22ZM198.15 169.78L195.54 157.74L184.40 154.30L175.88 162.89L178.50 174.93L189.63 178.37ZM223.73 144.00L221.12 131.95L209.98 128.51L201.45 137.11L204.06 149.14L215.20 152.59ZM204.06 149.14L201.45 137.11L190.31 133.66L181.79 142.26L184.40 154.30L195.54 157.74ZM231.55 180.12L228.95 168.08L217.81 164.63L209.28 173.22L211.89 185.25L223.03 188.70ZM211.89 185.25L209.28 173.22L198.15 169.78L189.63 178.37L192.24 190.40L203.37 193.84ZM272.77 226.59L270.17 214.55L259.03 211.10L250.50 219.68L253.10 231.71L264.23 235.17ZM239.37 216.22L236.77 204.19L225.63 200.74L217.11 209.32L219.72 221.35L230.85 224.80ZM219.72 221.35L217.11 209.32L205.98 205.87L197.46 214.46L200.07 226.49L211.20 229.93ZM245.29 195.60L242.69 183.57L231.55 180.12L223.03 188.70L225.63 200.74L236.77 204.19ZM225.63 200.74L223.03 188.70L211.89 185.25L203.37 193.84L205.98 205.87L217.11 209.32ZM253.10 231.71L250.50 219.68L239.37 216.22L230.85 224.80L233.45 236.83L244.58 240.29ZM233.45 236.83L230.85 224.80L219.72 221.35L211.20 229.93L213.81 241.96L224.93 245.41ZM259.03 211.10L256.43 199.06L245.29 195.60L236.77 204.19L239.37 216.22L250.50 219.68ZM133.33 205.85L130.71 193.83L119.59 190.40L111.09 199.00L113.71 211.01L124.83 214.44ZM113.71 211.01L111.09 199.00L99.97 195.57L91.47 204.16L94.10 216.18L105.22 219.60ZM139.22 185.24L136.60 173.21L125.47 169.78L116.96 178.38L119.59 190.40L130.71 193.83ZM119.59 190.40L116.96 178.38L105.84 174.95L97.34 183.55L99.97 195.57L111.09 199.00ZM147.07 221.31L144.45 209.29L133.33 205.85L124.83 214.44L127.45 226.46L138.57 229.90ZM127.45 226.46L124.83 214.44L113.71 211.01L105.22 219.60L107.84 231.62L118.95 235.05ZM152.96 200.70L150.34 188.67L139.22 185.24L130.71 193.83L133.33 205.85L144.45 209.29ZM80.36 200.74L77.73 188.72L66.61 185.30L58.12 193.90L60.75 205.92L71.87 209.34ZM60.75 205.92L58.12 193.90L47.01 190.49L38.52 199.09L41.16 211.10L52.27 214.51ZM86.22 180.13L83.59 168.11L72.47 164.69L63.98 173.29L66.61 185.30L77.73 188.72ZM66.61 185.30L63.98 173.29L52.86 169.87L44.37 178.47L47.01 190.49L58.12 193.90ZM94.10 216.18L91.47 204.16L80.36 200.74L71.87 209.34L74.50 221.35L85.61 224.77ZM74.50 221.35L71.87 209.34L60.75 205.92L52.27 214.51L54.90 226.52L66.01 229.94ZM99.97 195.57L97.34 183.55L86.22 180.13L77.73 188.72L80.36 200.74L91.47 204.16ZM164.75 159.46L162.13 147.42L151.00 143.99L142.48 152.59L145.10 164.62L156.23 168.05ZM145.10 164.62L142.48 152.59L131.35 149.16L122.85 157.76L125.47 169.78L136.60 173.21ZM151.00 143.99L148.38 131.95L137.24 128.52L128.73 137.12L131.35 149.16L142.48 152.59ZM178.50 174.93L175.88 162.89L164.75 159.46L156.23 168.05L158.85 180.08L169.98 183.52ZM158.85 180.08L156.23 168.05L145.10 164.62L136.60 173.21L139.22 185.24L150.34 188.67ZM184.40 154.30L181.79 142.26L170.65 138.82L162.13 147.42L164.75 159.46L175.88 162.89ZM111.72 154.33L109.09 142.30L97.96 138.88L89.46 147.48L92.09 159.50L103.22 162.93ZM92.09 159.50L89.46 147.48L78.34 144.06L69.84 152.66L72.47 164.69L83.59 168.11ZM117.60 133.70L114.97 121.67L103.84 118.24L95.33 126.85L97.96 138.88L109.09 142.30ZM97.96 138.88L95.33 126.85L84.20 123.43L75.71 132.04L78.34 144.06L89.46 147.48ZM125.47 169.78L122.85 157.76L111.72 154.33L103.22 162.93L105.84 174.95L116.96 178.38ZM105.84 174.95L103.22 162.93L92.09 159.50L83.59 168.11L86.22 180.13L97.34 183.55ZM131.35 149.16L128.73 137.12L117.60 133.70L109.09 142.30L111.72 154.33L122.85 157.76ZM154.92 257.37L152.30 245.35L141.19 241.91L132.69 250.50L135.31 262.51L146.42 265.95ZM135.31 262.51L132.69 250.50L121.57 247.06L113.08 255.65L115.70 267.66L126.81 271.09ZM160.81 236.77L158.19 224.75L147.07 221.31L138.57 229.90L141.19 241.91L152.30 245.35ZM141.19 241.91L138.57 229.90L127.45 226.46L118.95 235.05L121.57 247.06L132.69 250.50ZM174.54 252.23L171.93 240.21L160.81 236.77L152.30 245.35L154.92 257.37L166.03 260.81ZM101.97 252.22L99.35 240.21L88.23 236.78L79.75 245.37L82.37 257.38L93.48 260.80ZM82.37 257.38L79.75 245.37L68.64 241.95L60.16 250.54L62.79 262.54L73.89 265.96ZM107.84 231.62L105.22 219.60L94.10 216.18L85.61 224.77L88.23 236.78L99.35 240.21ZM88.23 236.78L85.61 224.77L74.50 221.35L66.01 229.94L68.64 241.95L79.75 245.37ZM115.70 267.66L113.08 255.65L101.97 252.22L93.48 260.80L96.10 272.81L107.21 276.24ZM121.57 247.06L118.95 235.05L107.84 231.62L99.35 240.21L101.97 252.22L113.08 255.65ZM186.34 211.01L183.72 198.99L172.60 195.55L164.08 204.13L166.70 216.16L177.82 219.60ZM166.70 216.16L164.08 204.13L152.96 200.70L144.45 209.29L147.07 221.31L158.19 224.75ZM192.24 190.40L189.63 178.37L178.50 174.93L169.98 183.52L172.60 195.55L183.72 198.99ZM172.60 195.55L169.98 183.52L158.85 180.08L150.34 188.67L152.96 200.70L164.08 204.13ZM200.07 226.49L197.46 214.46L186.34 211.01L177.82 219.60L180.44 231.62L191.56 235.07ZM180.44 231.62L177.82 219.60L166.70 216.16L158.19 224.75L160.81 236.77L171.93 240.21ZM205.98 205.87L203.37 193.84L192.24 190.40L183.72 198.99L186.34 211.01L197.46 214.46Z"/></svg>
