<svg xmlns="http://www.w3.org/2000/svg" width="256" height="256" viewBox="0 0 256 256"><path data-band="2" fill="#f97316" fill-opacity="0.35" d="M213.11 232.58L210.53 220.67L199.52 217.20L191.10 225.65L193.69 237.56L204.69 241.03ZM218.95 212.22L216.37 200.30L205.37 196.83L196.94 205.29L199.52 217.20L210.53 220.67ZM226.69 247.97L224.11 236.05L213.11 232.58L204.69 241.03L207.26 252.94L218.26 256.41ZM207.26 252.94L204.69 241.03L193.69 237.56L185.27 246.01L187.85 257.91L198.85 261.38ZM232.54 227.61L229.96 215.69L218.95 212.22L210.53 220.67L213.11 232.58L224.11 236.05ZM252.25 33.65L249.67 21.71L238.63 18.24L230.18 26.72L232.76 38.66L243.80 42.13ZM228.78 115.30L226.20 103.37L215.17 99.90L206.74 108.37L209.32 120.30L220.34 123.76ZM236.52 151.09L233.94 139.16L222.92 135.69L214.48 144.15L217.07 156.08L228.08 159.55ZM242.38 130.70L239.80 118.77L228.78 115.30L220.34 123.76L222.92 135.69L233.94 139.16ZM254.12 89.90L251.54 77.96L240.51 74.49L232.06 82.96L234.64 94.90L245.67 98.37ZM259.99 69.49L257.41 57.55L246.38 54.08L237.93 62.55L240.51 74.49L251.54 77.96ZM267.72 105.32L265.15 93.38L254.12 89.90L245.67 98.37L248.25 110.31L259.27 113.78ZM248.25 110.31L245.67 98.37L234.64 94.90L226.20 103.37L228.78 115.30L239.80 118.77ZM273.60 84.91L271.02 72.97L259.99 69.49L251.54 77.96L254.12 89.90L265.15 93.38ZM240.26 263.35L237.69 251.44L226.69 247.97L218.26 256.41L220.84 268.32L231.84 271.79ZM220.84 268.32L218.26 256.41L207.26 252.94L198.85 261.38L201.43 273.29L212.42 276.75ZM277.29 197.30L274.72 185.38L263.70 181.90L255.26 190.35L257.84 202.27L268.85 205.75ZM244.25 186.87L241.67 174.95L230.66 171.48L222.23 179.93L224.80 191.85L235.81 195.32ZM250.11 166.49L247.54 154.57L236.52 151.09L228.08 159.55L230.66 171.48L241.67 174.95ZM230.66 171.48L228.08 159.55L217.07 156.08L208.63 164.54L211.21 176.46L222.23 179.93ZM257.84 202.27L255.26 190.35L244.25 186.87L235.81 195.32L238.39 207.24L249.40 210.72ZM238.39 207.24L235.81 195.32L224.80 191.85L216.37 200.30L218.95 212.22L229.96 215.69ZM263.70 181.90L261.13 169.97L250.11 166.49L241.67 174.95L244.25 186.87L255.26 190.35ZM275.45 141.13L272.87 129.19L261.85 125.72L253.40 134.18L255.98 146.11L267.00 149.58ZM255.98 146.11L253.40 134.18L242.38 130.70L233.94 139.16L236.52 151.09L247.54 154.57ZM261.85 125.72L259.27 113.78L248.25 110.31L239.80 118.77L242.38 130.70L253.40 134.18ZM269.57 161.52L267.00 149.58L255.98 146.11L247.54 154.57L250.11 166.49L261.13 169.97ZM265.55 238.04L262.98 226.12L251.97 222.64L243.54 231.08L246.12 243.00L257.12 246.48ZM246.12 243.00L243.54 231.08L232.54 227.61L224.11 236.05L226.69 247.97L237.69 251.44ZM271.42 217.67L268.85 205.75L257.84 202.27L249.40 210.72L251.97 222.64L262.98 226.12ZM251.97 222.64L249.40 210.72L238.39 207.24L229.96 215.69L232.54 227.61L243.54 231.08ZM259.69 258.39L257.12 246.48L246.12 243.00L237.69 251.44L240.26 263.35L251.26 266.83ZM277.64 8.22L275.06 -3.74L264.01 -7.21L255.55 1.27L258.13 13.23L269.17 16.70ZM258.13 13.23L255.55 1.27L244.51 -2.20L236.05 6.29L238.63 18.24L249.67 21.71ZM265.87 49.08L263.29 37.13L252.25 33.65L243.80 42.13L246.38 54.08L257.41 57.55ZM271.75 28.65L269.17 16.70L258.13 13.23L249.67 21.71L252.25 33.65L263.29 37.13Z"/><path data-band="3" fill="#dc2626" fill-opacity="0.35" d="M1.56 155.17L-1.05 143.27L-12.05 139.84L-20.42 148.32L-17.81 160.21L-6.82 163.64ZM119.84 -7.84L117.24 -19.78L106.21 -23.22L97.78 -14.73L100.38 -2.79L111.41 0.65ZM100.38 -2.79L97.78 -14.73L86.75 -18.16L78.33 -9.67L80.93 2.27L91.96 5.70ZM47.86 -8.04L45.25 -19.97L34.22 -23.40L25.81 -14.89L28.43 -2.97L39.45 0.46ZM127.64 27.97L125.04 16.03L114.01 12.59L105.59 21.08L108.19 33.01L119.21 36.45ZM108.19 33.01L105.59 21.08L94.56 17.64L86.14 26.13L88.75 38.06L99.77 41.50ZM133.47 7.54L130.87 -4.39L119.84 -7.84L111.41 0.65L114.01 12.59L125.04 16.03ZM114.01 12.59L111.41 0.65L100.38 -2.79L91.96 5.70L94.56 17.64L105.59 21.08ZM141.26 43.35L138.66 31.42L127.64 27.97L119.21 36.45L121.81 48.39L132.83 51.83ZM121.81 48.39L119.21 36.45L108.19 33.01L99.77 41.50L102.37 53.42L113.39 56.87ZM147.10 22.93L144.50 10.99L133.47 7.54L125.04 16.03L127.64 27.97L138.66 31.42ZM75.12 22.69L72.51 10.76L61.49 7.32L53.08 15.82L55.69 27.75L66.71 31.18ZM55.69 27.75L53.08 15.82L42.06 12.39L33.65 20.88L36.26 32.81L47.28 36.24ZM80.93 2.27L78.33 -9.67L67.30 -13.10L58.88 -4.61L61.49 7.32L72.51 10.76ZM61.49 7.32L58.88 -4.61L47.86 -8.04L39.45 0.46L42.06 12.39L53.08 15.82ZM88.75 38.06L86.14 26.13L75.12 22.69L66.71 31.18L69.31 43.10L80.33 46.54ZM69.31 43.10L66.71 31.18L55.69 27.75L47.28 36.24L49.89 48.16L60.90 51.59ZM94.56 17.64L91.96 5.70L80.93 2.27L72.51 10.76L75.12 22.69L86.14 26.13ZM172.41 -2.53L169.82 -14.48L158.78 -17.93L150.34 -9.44L152.94 2.50L163.97 5.96ZM152.94 2.50L150.34 -9.44L139.31 -12.89L130.87 -4.39L133.47 7.54L144.50 10.99ZM5.28 78.68L2.66 66.77L-8.34 63.34L-16.73 71.83L-14.12 83.74L-3.11 87.17ZM11.06 58.28L8.44 46.36L-2.57 42.94L-10.96 51.43L-8.34 63.34L2.66 66.77ZM22.63 17.45L20.02 5.53L9.00 2.11L0.60 10.61L3.22 22.53L14.23 25.95ZM3.22 22.53L0.60 10.61L-10.42 7.18L-18.81 15.68L-16.19 27.60L-5.18 31.02ZM28.43 -2.97L25.81 -14.89L14.79 -18.32L6.38 -9.82L9.00 2.11L20.02 5.53ZM9.00 2.11L6.38 -9.82L-4.63 -13.24L-13.03 -4.74L-10.42 7.18L0.60 10.61ZM36.26 32.81L33.65 20.88L22.63 17.45L14.23 25.95L16.84 37.87L27.86 41.30ZM16.84 37.87L14.23 25.95L3.22 22.53L-5.18 31.02L-2.57 42.94L8.44 46.36ZM42.06 12.39L39.45 0.46L28.43 -2.97L20.02 5.53L22.63 17.45L33.65 20.88ZM160.69 227.17L158.10 215.26L147.11 211.81L138.70 220.26L141.29 232.17L152.28 235.62ZM141.29 232.17L138.70 220.26L127.70 216.81L119.30 225.26L121.89 237.16L132.88 240.62ZM166.52 206.81L163.93 194.90L152.93 191.44L144.52 199.90L147.11 211.81L158.10 215.26ZM147.11 211.81L144.52 199.90L133.52 196.44L125.11 204.90L127.70 216.81L138.70 220.26ZM174.27 242.54L171.69 230.63L160.69 227.17L152.28 235.62L154.87 247.53L165.86 250.99ZM154.87 247.53L152.28 235.62L141.29 232.17L132.88 240.62L135.47 252.52L146.46 255.97ZM180.10 222.19L177.52 210.27L166.52 206.81L158.10 215.26L160.69 227.17L171.69 230.63ZM108.30 221.81L105.71 209.91L94.72 206.46L86.32 214.92L88.91 226.82L99.91 230.26ZM88.91 226.82L86.32 214.92L75.33 211.47L66.94 219.93L69.53 231.83L80.52 235.27ZM114.11 201.45L111.52 189.54L100.52 186.10L92.12 194.56L94.72 206.46L105.71 209.91ZM94.72 206.46L92.12 194.56L81.12 191.11L72.73 199.57L75.33 211.47L86.32 214.92ZM121.89 237.16L119.30 225.26L108.30 221.81L99.91 230.26L102.50 242.16L113.49 245.61ZM102.50 242.16L99.91 230.26L88.91 226.82L80.52 235.27L83.12 247.17L94.10 250.61ZM127.70 216.81L125.11 204.90L114.11 201.45L105.71 209.91L108.30 221.81L119.30 225.26ZM191.78 181.45L189.19 169.53L178.18 166.07L169.76 174.53L172.35 186.44L183.36 189.91ZM172.35 186.44L169.76 174.53L158.76 171.07L150.34 179.53L152.93 191.44L163.93 194.90ZM197.62 161.07L195.04 149.15L184.02 145.69L175.60 154.15L178.18 166.07L189.19 169.53ZM178.18 166.07L175.60 154.15L164.59 150.69L156.17 159.15L158.76 171.07L169.76 174.53ZM205.37 196.83L202.79 184.92L191.78 181.45L183.36 189.91L185.94 201.82L196.94 205.29ZM185.94 201.82L183.36 189.91L172.35 186.44L163.93 194.90L166.52 206.81L177.52 210.27ZM211.21 176.46L208.63 164.54L197.62 161.07L189.19 169.53L191.78 181.45L202.79 184.92ZM139.34 176.07L136.75 164.16L125.74 160.71L117.33 169.17L119.92 181.08L130.93 184.53ZM119.92 181.08L117.33 169.17L106.33 165.72L97.92 174.19L100.52 186.10L111.52 189.54ZM145.16 155.70L142.57 143.78L131.56 140.33L123.15 148.79L125.74 160.71L136.75 164.16ZM125.74 160.71L123.15 148.79L112.14 145.35L103.73 153.81L106.33 165.72L117.33 169.17ZM152.93 191.44L150.34 179.53L139.34 176.07L130.93 184.53L133.52 196.44L144.52 199.90ZM133.52 196.44L130.93 184.53L119.92 181.08L111.52 189.54L114.11 201.45L125.11 204.90ZM158.76 171.07L156.17 159.15L145.16 155.70L136.75 164.16L139.34 176.07L150.34 179.53ZM187.85 257.91L185.27 246.01L174.27 242.54L165.86 250.99L168.44 262.89L179.44 266.35ZM168.44 262.89L165.86 250.99L154.87 247.53L146.46 255.97L149.05 267.88L160.04 271.33ZM135.47 252.52L132.88 240.62L121.89 237.16L113.49 245.61L116.08 257.51L127.07 260.96ZM116.08 257.51L113.49 245.61L102.50 242.16L94.10 250.61L96.70 262.51L107.68 265.96ZM149.05 267.88L146.46 255.97L135.47 252.52L127.07 260.96L129.66 272.86L140.64 276.32ZM193.69 237.56L191.10 225.65L180.10 222.19L171.69 230.63L174.27 242.54L185.27 246.01ZM199.52 217.20L196.94 205.29L185.94 201.82L177.52 210.27L180.10 222.19L191.10 225.65ZM25.02 262.21L22.42 250.32L11.44 246.89L3.07 255.34L5.67 267.23L16.65 270.66ZM5.67 267.23L3.07 255.34L-7.91 251.91L-16.28 260.37L-13.67 272.25L-2.69 275.68ZM30.80 241.86L28.19 229.97L17.21 226.54L8.83 235.00L11.44 246.89L22.42 250.32ZM11.44 246.89L8.83 235.00L-2.15 231.57L-10.52 240.03L-7.91 251.91L3.07 255.34ZM44.38 257.19L41.78 245.30L30.80 241.86L22.42 250.32L25.02 262.21L36.00 265.64ZM55.95 216.49L53.34 204.59L42.35 201.16L33.97 209.62L36.57 221.51L47.56 224.95ZM36.57 221.51L33.97 209.62L22.98 206.18L14.60 214.65L17.21 226.54L28.19 229.97ZM61.74 196.13L59.13 184.23L48.14 180.79L39.75 189.26L42.35 201.16L53.34 204.59ZM42.35 201.16L39.75 189.26L28.76 185.82L20.38 194.29L22.98 206.18L33.97 209.62ZM69.53 231.83L66.94 219.93L55.95 216.49L47.56 224.95L50.16 236.84L61.15 240.28ZM50.16 236.84L47.56 224.95L36.57 221.51L28.19 229.97L30.80 241.86L41.78 245.30ZM75.33 211.47L72.73 199.57L61.74 196.13L53.34 204.59L55.95 216.49L66.94 219.93ZM3.62 211.22L1.01 199.32L-9.98 195.90L-18.35 204.36L-15.74 216.25L-4.76 219.68ZM9.39 190.86L6.78 178.96L-4.21 175.54L-12.59 184.01L-9.98 195.90L1.01 199.32ZM17.21 226.54L14.60 214.65L3.62 211.22L-4.76 219.68L-2.15 231.57L8.83 235.00ZM22.98 206.18L20.38 194.29L9.39 190.86L1.01 199.32L3.62 211.22L14.60 214.65ZM77.33 267.51L74.73 255.62L63.74 252.18L55.36 260.63L57.96 272.52L68.94 275.96ZM83.12 247.17L80.52 235.27L69.53 231.83L61.15 240.28L63.74 252.18L74.73 255.62ZM63.74 252.18L61.15 240.28L50.16 236.84L41.78 245.30L44.38 257.19L55.36 260.63ZM96.70 262.51L94.10 250.61L83.12 247.17L74.73 255.62L77.33 267.51L88.31 270.96ZM201.57 84.50L198.98 72.57L187.95 69.10L179.52 77.58L182.11 89.51L193.13 92.97ZM182.11 89.51L179.52 77.58L168.49 74.12L160.06 82.60L162.66 94.53L173.67 97.98ZM207.42 64.09L204.84 52.15L193.81 48.69L185.37 57.17L187.95 69.10L198.98 72.57ZM187.95 69.10L185.37 57.17L174.34 53.71L165.90 62.19L168.49 74.12L179.52 77.58ZM215.17 99.90L212.59 87.96L201.57 84.50L193.13 92.97L195.71 104.90L206.74 108.37ZM195.71 104.90L193.13 92.97L182.11 89.51L173.67 97.98L176.26 109.91L187.28 113.37ZM221.03 79.49L218.45 67.56L207.42 64.09L198.98 72.57L201.57 84.50L212.59 87.96ZM149.04 79.14L146.45 67.21L135.43 63.76L127.00 72.24L129.60 84.17L140.62 87.62ZM129.60 84.17L127.00 72.24L115.99 68.80L107.57 77.28L110.17 89.20L121.18 92.65ZM154.88 58.73L152.29 46.80L141.26 43.35L132.83 51.83L135.43 63.76L146.45 67.21ZM135.43 63.76L132.83 51.83L121.81 48.39L113.39 56.87L115.99 68.80L127.00 72.24ZM162.66 94.53L160.06 82.60L149.04 79.14L140.62 87.62L143.21 99.55L154.23 103.00ZM143.21 99.55L140.62 87.62L129.60 84.17L121.18 92.65L123.78 104.57L134.79 108.02ZM168.49 74.12L165.90 62.19L154.88 58.73L146.45 67.21L149.04 79.14L160.06 82.60ZM232.76 38.66L230.18 26.72L219.14 23.25L210.69 31.73L213.28 43.67L224.31 47.14ZM213.28 43.67L210.69 31.73L199.66 28.27L191.22 36.75L193.81 48.69L204.84 52.15ZM238.63 18.24L236.05 6.29L225.01 2.82L216.56 11.30L219.14 23.25L230.18 26.72ZM219.14 23.25L216.56 11.30L205.52 7.84L197.07 16.33L199.66 28.27L210.69 31.73ZM246.38 54.08L243.80 42.13L232.76 38.66L224.31 47.14L226.90 59.08L237.93 62.55ZM226.90 59.08L224.31 47.14L213.28 43.67L204.84 52.15L207.42 64.09L218.45 67.56ZM180.19 33.29L177.59 21.35L166.56 17.90L158.13 26.38L160.72 38.32L171.75 41.77ZM160.72 38.32L158.13 26.38L147.10 22.93L138.66 31.42L141.26 43.35L152.29 46.80ZM186.04 12.87L183.45 0.92L172.41 -2.53L163.97 5.96L166.56 17.90L177.59 21.35ZM166.56 17.90L163.97 5.96L152.94 2.50L144.50 10.99L147.10 22.93L158.13 26.38ZM193.81 48.69L191.22 36.75L180.19 33.29L171.75 41.77L174.34 53.71L185.37 57.17ZM174.34 53.71L171.75 41.77L160.72 38.32L152.29 46.80L154.88 58.73L165.90 62.19ZM199.66 28.27L197.07 16.33L186.04 12.87L177.59 21.35L180.19 33.29L191.22 36.75ZM222.92 135.69L220.34 123.76L209.32 120.30L200.88 128.76L203.47 140.69L214.48 144.15ZM203.47 140.69L200.88 128.76L189.87 125.30L181.44 133.76L184.02 145.69L195.04 149.15ZM209.32 120.30L206.74 108.37L195.71 104.90L187.28 113.37L189.87 125.30L200.88 128.76ZM217.07 156.08L214.48 144.15L203.47 140.69L195.04 149.15L197.62 161.07L208.63 164.54ZM170.42 130.30L167.84 118.38L156.82 114.92L148.40 123.39L150.99 135.31L162.00 138.77ZM150.99 135.31L148.40 123.39L137.38 119.94L128.97 128.41L131.56 140.33L142.57 143.78ZM176.26 109.91L173.67 97.98L162.66 94.53L154.23 103.00L156.82 114.92L167.84 118.38ZM156.82 114.92L154.23 103.00L143.21 99.55L134.79 108.02L137.38 119.94L148.40 123.39ZM184.02 145.69L181.44 133.76L170.42 130.30L162.00 138.77L164.59 150.69L175.60 154.15ZM164.59 150.69L162.00 138.77L150.99 135.31L142.57 143.78L145.16 155.70L156.17 159.15ZM189.87 125.30L187.28 113.37L176.26 109.91L167.84 118.38L170.42 130.30L181.44 133.76ZM234.64 94.90L232.06 82.96L221.03 79.49L212.59 87.96L215.17 99.90L226.20 103.37ZM240.51 74.49L237.93 62.55L226.90 59.08L218.45 67.56L221.03 79.49L232.06 82.96ZM65.52 119.66L62.92 107.75L51.91 104.31L43.51 112.79L46.12 124.70L57.12 128.14ZM46.12 124.70L43.51 112.79L32.51 109.36L24.11 117.84L26.72 129.74L37.72 133.18ZM71.32 99.27L68.72 87.35L57.71 83.92L49.30 92.40L51.91 104.31L62.92 107.75ZM51.91 104.31L49.30 92.40L38.30 88.96L29.90 97.45L32.51 109.36L43.51 112.79ZM79.13 135.01L76.52 123.10L65.52 119.66L57.12 128.14L59.72 140.05L70.72 143.48ZM59.72 140.05L57.12 128.14L46.12 124.70L37.72 133.18L40.33 145.08L51.33 148.52ZM84.93 114.63L82.33 102.71L71.32 99.27L62.92 107.75L65.52 119.66L76.52 123.10ZM13.11 114.41L10.50 102.50L-0.50 99.07L-8.89 107.56L-6.28 119.46L4.72 122.89ZM18.89 94.02L16.28 82.11L5.28 78.68L-3.11 87.17L-0.50 99.07L10.50 102.50ZM26.72 129.74L24.11 117.84L13.11 114.41L4.72 122.89L7.33 134.79L18.33 138.22ZM7.33 134.79L4.72 122.89L-6.28 119.46L-14.66 127.94L-12.05 139.84L-1.05 143.27ZM32.51 109.36L29.90 97.45L18.89 94.02L10.50 102.50L13.11 114.41L24.11 117.84ZM96.55 73.83L93.95 61.91L82.93 58.47L74.52 66.95L77.12 78.87L88.14 82.31ZM77.12 78.87L74.52 66.95L63.51 63.51L55.10 72.00L57.71 83.92L68.72 87.35ZM102.37 53.42L99.77 41.50L88.75 38.06L80.33 46.54L82.93 58.47L93.95 61.91ZM82.93 58.47L80.33 46.54L69.31 43.10L60.90 51.59L63.51 63.51L74.52 66.95ZM110.17 89.20L107.57 77.28L96.55 73.83L88.14 82.31L90.74 94.23L101.75 97.68ZM90.74 94.23L88.14 82.31L77.12 78.87L68.72 87.35L71.32 99.27L82.33 102.71ZM115.99 68.80L113.39 56.87L102.37 53.42L93.95 61.91L96.55 73.83L107.57 77.28ZM44.09 68.57L41.48 56.65L30.47 53.22L22.07 61.70L24.68 73.62L35.69 77.05ZM24.68 73.62L22.07 61.70L11.06 58.28L2.66 66.77L5.28 78.68L16.28 82.11ZM49.89 48.16L47.28 36.24L36.26 32.81L27.86 41.30L30.47 53.22L41.48 56.65ZM30.47 53.22L27.86 41.30L16.84 37.87L8.44 46.36L11.06 58.28L22.07 61.70ZM57.71 83.92L55.10 72.00L44.09 68.57L35.69 77.05L38.30 88.96L49.30 92.40ZM38.30 88.96L35.69 77.05L24.68 73.62L16.28 82.11L18.89 94.02L29.90 97.45ZM63.51 63.51L60.90 51.59L49.89 48.16L41.48 56.65L44.09 68.57L55.10 72.00ZM86.92 170.74L84.33 158.83L73.32 155.39L64.93 163.86L67.53 175.77L78.52 179.21ZM67.53 175.77L64.93 163.86L53.93 160.42L45.54 168.89L48.14 180.79L59.13 184.23ZM92.73 150.37L90.13 138.45L79.13 135.01L70.72 143.48L73.32 155.39L84.33 158.83ZM73.32 155.39L70.72 143.48L59.72 140.05L51.33 148.52L53.93 160.42L64.93 163.86ZM100.52 186.10L97.92 174.19L86.92 170.74L78.52 179.21L81.12 191.11L92.12 194.56ZM81.12 191.11L78.52 179.21L67.53 175.77L59.13 184.23L61.74 196.13L72.73 199.57ZM106.33 165.72L103.73 153.81L92.73 150.37L84.33 158.83L86.92 170.74L97.92 174.19ZM34.54 165.46L31.94 153.55L20.94 150.12L12.55 158.59L15.16 170.49L26.15 173.92ZM15.16 170.49L12.55 158.59L1.56 155.17L-6.82 163.64L-4.21 175.54L6.78 178.96ZM40.33 145.08L37.72 133.18L26.72 129.74L18.33 138.22L20.94 150.12L31.94 153.55ZM20.94 150.12L18.33 138.22L7.33 134.79L-1.05 143.27L1.56 155.17L12.55 158.59ZM48.14 180.79L45.54 168.89L34.54 165.46L26.15 173.92L28.76 185.82L39.75 189.26ZM28.76 185.82L26.15 173.92L15.16 170.49L6.78 178.96L9.39 190.86L20.38 194.29ZM53.93 160.42L51.33 148.52L40.33 145.08L31.94 153.55L34.54 165.46L45.54 168.89ZM117.96 124.96L115.36 113.04L104.35 109.60L95.94 118.07L98.54 129.98L109.54 133.43ZM98.54 129.98L95.94 118.07L84.93 114.63L76.52 123.10L79.13 135.01L90.13 138.45ZM123.78 104.57L121.18 92.65L110.17 89.20L101.75 97.68L104.35 109.60L115.36 113.04ZM104.35 109.60L101.75 97.68L90.74 94.23L82.33 102.71L84.93 114.63L95.94 118.07ZM131.56 140.33L128.97 128.41L117.96 124.96L109.54 133.43L112.14 145.35L123.15 148.79ZM112.14 145.35L109.54 133.43L98.54 129.98L90.13 138.45L92.73 150.37L103.73 153.81ZM137.38 119.94L134.79 108.02L123.78 104.57L115.36 113.04L117.96 124.96L128.97 128.41ZM224.80 191.85L222.23 179.93L211.21 176.46L202.79 184.92L205.37 196.83L216.37 200.30ZM264.01 -7.21L261.43 -19.17L250.39 -22.64L241.93 -14.15L244.51 -2.20L255.55 1.27ZM244.51 -2.20L241.93 -14.15L230.88 -17.62L222.42 -9.13L225.01 2.82L236.05 6.29ZM191.89 -7.56L189.30 -19.51L178.26 -22.97L169.82 -14.48L172.41 -2.53L183.45 0.92ZM225.01 2.82L222.42 -9.13L211.38 -12.59L202.93 -4.10L205.52 7.84L216.56 11.30ZM205.52 7.84L202.93 -4.10L191.89 -7.56L183.45 0.92L186.04 12.87L197.07 16.33Z"/></svg>
