<svg xmlns="http://www.w3.org/2000/svg" width="256" height="256" viewBox="0 0 256 256"><path data-band="2" fill="#f97316" fill-opacity="0.35" d="M274.76 262.09L272.20 250.21L261.24 246.73L252.84 255.12L255.40 267.00L266.36 270.48ZM214.82 220.93L212.25 209.05L201.28 205.57L192.89 213.98L195.47 225.85L206.43 229.33ZM195.47 225.85L192.89 213.98L181.93 210.51L173.55 218.91L176.12 230.79L187.08 234.26ZM220.65 200.64L218.08 188.76L207.11 185.29L198.71 193.69L201.28 205.57L212.25 209.05ZM201.28 205.57L198.71 193.69L187.75 190.22L179.36 198.63L181.93 210.51L192.89 213.98ZM228.35 236.28L225.78 224.40L214.82 220.93L206.43 229.33L209.00 241.20L219.96 244.68ZM209.00 241.20L206.43 229.33L195.47 225.85L187.08 234.26L189.65 246.13L200.61 249.60ZM234.18 216.00L231.61 204.12L220.65 200.64L212.25 209.05L214.82 220.93L225.78 224.40ZM162.59 215.45L160.01 203.57L149.05 200.11L140.67 208.52L143.25 220.39L154.21 223.85ZM143.25 220.39L140.67 208.52L129.71 205.06L121.34 213.47L123.92 225.34L134.88 228.80ZM168.39 195.16L165.82 183.29L154.85 179.82L146.47 188.24L149.05 200.11L160.01 203.57ZM149.05 200.11L146.47 188.24L135.51 184.78L127.13 193.19L129.71 205.06L140.67 208.52ZM176.12 230.79L173.55 218.91L162.59 215.45L154.21 223.85L156.78 235.72L167.74 239.19ZM156.78 235.72L154.21 223.85L143.25 220.39L134.88 228.80L137.45 240.66L148.41 244.12ZM181.93 210.51L179.36 198.63L168.39 195.16L160.01 203.57L162.59 215.45L173.55 218.91ZM245.85 175.42L243.29 163.54L232.31 160.06L223.91 168.47L226.48 180.35L237.45 183.83ZM226.48 180.35L223.91 168.47L212.93 164.99L204.54 173.40L207.11 185.29L218.08 188.76ZM251.69 155.12L249.13 143.23L238.15 139.75L229.74 148.17L232.31 160.06L243.29 163.54ZM232.31 160.06L229.74 148.17L218.77 144.69L210.36 153.11L212.93 164.99L223.91 168.47ZM259.39 190.79L256.83 178.91L245.85 175.42L237.45 183.83L240.01 195.72L250.98 199.20ZM240.01 195.72L237.45 183.83L226.48 180.35L218.08 188.76L220.65 200.64L231.61 204.12ZM265.24 170.50L262.67 158.61L251.69 155.12L243.29 163.54L245.85 175.42L256.83 178.91ZM193.57 169.93L190.99 158.05L180.02 154.58L171.63 163.00L174.21 174.88L185.17 178.34ZM174.21 174.88L171.63 163.00L160.66 159.53L152.27 167.95L154.85 179.82L165.82 183.29ZM199.39 149.63L196.82 137.75L185.84 134.28L177.45 142.70L180.02 154.58L190.99 158.05ZM180.02 154.58L177.45 142.70L166.47 139.23L158.08 147.65L160.66 159.53L171.63 163.00ZM207.11 185.29L204.54 173.40L193.57 169.93L185.17 178.34L187.75 190.22L198.71 193.69ZM187.75 190.22L185.17 178.34L174.21 174.88L165.82 183.29L168.39 195.16L179.36 198.63ZM212.93 164.99L210.36 153.11L199.39 149.63L190.99 158.05L193.57 169.93L204.54 173.40ZM241.88 251.64L239.31 239.76L228.35 236.28L219.96 244.68L222.52 256.55L233.48 260.03ZM222.52 256.55L219.96 244.68L209.00 241.20L200.61 249.60L203.18 261.47L214.13 264.95ZM255.40 267.00L252.84 255.12L241.88 251.64L233.48 260.03L236.05 271.90L247.00 275.39ZM183.84 266.39L181.27 254.53L170.31 251.06L161.94 259.46L164.51 271.32L175.46 274.79ZM164.51 271.32L161.94 259.46L150.98 255.99L142.61 264.39L145.19 276.25L156.14 279.72ZM189.65 246.13L187.08 234.26L176.12 230.79L167.74 239.19L170.31 251.06L181.27 254.53ZM170.31 251.06L167.74 239.19L156.78 235.72L148.41 244.12L150.98 255.99L161.94 259.46ZM203.18 261.47L200.61 249.60L189.65 246.13L181.27 254.53L183.84 266.39L194.79 269.87ZM267.08 226.45L264.52 214.57L253.55 211.08L245.15 219.48L247.71 231.36L258.68 234.85ZM247.71 231.36L245.15 219.48L234.18 216.00L225.78 224.40L228.35 236.28L239.31 239.76ZM272.93 206.17L270.36 194.28L259.39 190.79L250.98 199.20L253.55 211.08L264.52 214.57ZM253.55 211.08L250.98 199.20L240.01 195.72L231.61 204.12L234.18 216.00L245.15 219.48ZM261.24 246.73L258.68 234.85L247.71 231.36L239.31 239.76L241.88 251.64L252.84 255.12ZM129.71 205.06L127.13 193.19L116.17 189.73L107.80 198.14L110.39 210.01L121.34 213.47ZM131.66 260.93L129.08 249.06L118.13 245.61L109.77 254.01L112.35 265.87L123.29 269.33ZM137.45 240.66L134.88 228.80L123.92 225.34L115.55 233.74L118.13 245.61L129.08 249.06ZM150.98 255.99L148.41 244.12L137.45 240.66L129.08 249.06L131.66 260.93L142.61 264.39ZM195.59 37.63L193.01 25.72L182.02 22.26L173.61 30.70L176.19 42.60L187.18 46.06ZM201.43 17.29L198.85 5.38L187.85 1.91L179.44 10.35L182.02 22.26L193.01 25.72ZM226.69 -8.03L224.11 -19.95L213.11 -23.42L204.69 -14.97L207.26 -3.06L218.26 0.41ZM207.26 -3.06L204.69 -14.97L193.69 -18.44L185.27 -9.99L187.85 1.91L198.85 5.38ZM255.69 78.80L253.12 66.90L242.13 63.42L233.71 71.85L236.28 83.75L247.27 87.22ZM236.28 83.75L233.71 71.85L222.72 68.37L214.31 76.80L216.88 88.70L227.87 92.17ZM261.54 58.47L258.97 46.56L247.98 43.08L239.56 51.51L242.13 63.42L253.12 66.90ZM242.13 63.42L239.56 51.51L228.56 48.04L220.15 56.47L222.72 68.37L233.71 71.85ZM269.24 94.19L266.68 82.28L255.69 78.80L247.27 87.22L249.84 99.13L260.82 102.61ZM249.84 99.13L247.27 87.22L236.28 83.75L227.87 92.17L230.44 104.07L241.42 107.55ZM275.10 73.86L272.54 61.95L261.54 58.47L253.12 66.90L255.69 78.80L266.68 82.28ZM203.32 73.33L200.75 61.43L189.76 57.96L181.35 66.39L183.93 78.29L194.91 81.76ZM183.93 78.29L181.35 66.39L170.37 62.93L161.97 71.36L164.55 83.25L175.53 86.72ZM209.16 53.00L206.58 41.10L195.59 37.63L187.18 46.06L189.76 57.96L200.75 61.43ZM189.76 57.96L187.18 46.06L176.19 42.60L167.79 51.03L170.37 62.93L181.35 66.39ZM216.88 88.70L214.31 76.80L203.32 73.33L194.91 81.76L197.49 93.65L208.47 97.12ZM197.49 93.65L194.91 81.76L183.93 78.29L175.53 86.72L178.11 98.61L189.09 102.08ZM222.72 68.37L220.15 56.47L209.16 53.00L200.75 61.43L203.32 73.33L214.31 76.80ZM267.40 38.13L264.83 26.22L253.83 22.74L245.41 31.17L247.98 43.08L258.97 46.56ZM273.26 17.79L270.69 5.87L259.69 2.39L251.26 10.83L253.83 22.74L264.83 26.22ZM234.41 27.70L231.84 15.79L220.84 12.32L212.42 20.75L215.00 32.66L225.99 36.13ZM215.00 32.66L212.42 20.75L201.43 17.29L193.01 25.72L195.59 37.63L206.58 41.10ZM240.26 7.35L237.69 -4.56L226.69 -8.03L218.26 0.41L220.84 12.32L231.84 15.79ZM220.84 12.32L218.26 0.41L207.26 -3.06L198.85 5.38L201.43 17.29L212.42 20.75ZM247.98 43.08L245.41 31.17L234.41 27.70L225.99 36.13L228.56 48.04L239.56 51.51ZM228.56 48.04L225.99 36.13L215.00 32.66L206.58 41.10L209.16 53.00L220.15 56.47ZM253.83 22.74L251.26 10.83L240.26 7.35L231.84 15.79L234.41 27.70L245.41 31.17ZM276.94 129.89L274.38 117.99L263.39 114.51L254.97 122.92L257.54 134.82L268.52 138.30ZM257.54 134.82L254.97 122.92L243.99 119.44L235.58 127.86L238.15 139.75L249.13 143.23ZM263.39 114.51L260.82 102.61L249.84 99.13L241.42 107.55L243.99 119.44L254.97 122.92ZM271.09 150.20L268.52 138.30L257.54 134.82L249.13 143.23L251.69 155.12L262.67 158.61ZM224.60 124.38L222.03 112.49L211.05 109.02L202.64 117.44L205.22 129.33L216.19 132.80ZM205.22 129.33L202.64 117.44L191.66 113.97L183.26 122.39L185.84 134.28L196.82 137.75ZM230.44 104.07L227.87 92.17L216.88 88.70L208.47 97.12L211.05 109.02L222.03 112.49ZM211.05 109.02L208.47 97.12L197.49 93.65L189.09 102.08L191.66 113.97L202.64 117.44ZM238.15 139.75L235.58 127.86L224.60 124.38L216.19 132.80L218.77 144.69L229.74 148.17ZM218.77 144.69L216.19 132.80L205.22 129.33L196.82 137.75L199.39 149.63L210.36 153.11ZM243.99 119.44L241.42 107.55L230.44 104.07L222.03 112.49L224.60 124.38L235.58 127.86ZM154.85 179.82L152.27 167.95L141.31 164.48L132.93 172.90L135.51 184.78L146.47 188.24ZM160.66 159.53L158.08 147.65L147.11 144.19L138.73 152.61L141.31 164.48L152.27 167.95ZM172.29 118.92L169.71 107.04L158.73 103.57L150.34 112.00L152.92 123.88L163.89 127.35ZM152.92 123.88L150.34 112.00L139.37 108.54L130.98 116.96L133.56 128.85L144.53 132.31ZM178.11 98.61L175.53 86.72L164.55 83.25L156.15 91.68L158.73 103.57L169.71 107.04ZM158.73 103.57L156.15 91.68L145.17 88.22L136.78 96.65L139.37 108.54L150.34 112.00ZM185.84 134.28L183.26 122.39L172.29 118.92L163.89 127.35L166.47 139.23L177.45 142.70ZM166.47 139.23L163.89 127.35L152.92 123.88L144.53 132.31L147.11 144.19L158.08 147.65ZM191.66 113.97L189.09 102.08L178.11 98.61L169.71 107.04L172.29 118.92L183.26 122.39ZM259.69 2.39L257.12 -9.52L246.12 -13.00L237.69 -4.56L240.26 7.35L251.26 10.83Z"/><path data-band="3" fill="#dc2626" fill-opacity="0.35" d="M4.02 143.41L1.42 131.55L-9.54 128.12L-17.89 136.55L-15.28 148.41L-4.33 151.84ZM15.53 102.81L12.93 90.94L1.97 87.51L-6.39 95.95L-3.79 107.81L7.17 111.25ZM21.29 82.50L18.69 70.63L7.73 67.19L-0.64 75.63L1.97 87.51L12.93 90.94ZM1.97 87.51L-0.64 75.63L-11.60 72.20L-19.96 80.65L-17.35 92.52L-6.39 95.95ZM29.09 118.12L26.49 106.25L15.53 102.81L7.17 111.25L9.77 123.12L20.73 126.55ZM9.77 123.12L7.17 111.25L-3.79 107.81L-12.14 116.25L-9.54 128.12L1.42 131.55ZM34.86 97.81L32.26 85.94L21.29 82.50L12.93 90.94L15.53 102.81L26.49 106.25ZM6.07 199.28L3.47 187.42L-7.48 183.99L-15.82 192.41L-13.22 204.26L-2.28 207.69ZM11.82 179.00L9.22 167.14L-1.73 163.70L-10.08 172.13L-7.48 183.99L3.47 187.42ZM19.61 214.57L17.01 202.71L6.07 199.28L-2.28 207.69L0.32 219.55L11.26 222.98ZM0.32 219.55L-2.28 207.69L-13.22 204.26L-21.56 212.68L-18.96 224.53L-8.02 227.96ZM25.36 194.29L22.77 182.43L11.82 179.00L3.47 187.42L6.07 199.28L17.01 202.71ZM36.88 153.72L34.29 141.86L23.33 138.42L14.97 146.85L17.57 158.71L28.53 162.15ZM17.57 158.71L14.97 146.85L4.02 143.41L-4.33 151.84L-1.73 163.70L9.22 167.14ZM42.65 133.43L40.05 121.56L29.09 118.12L20.73 126.55L23.33 138.42L34.29 141.86ZM23.33 138.42L20.73 126.55L9.77 123.12L1.42 131.55L4.02 143.41L14.97 146.85ZM50.43 169.03L47.84 157.17L36.88 153.72L28.53 162.15L31.12 174.01L42.08 177.45ZM31.12 174.01L28.53 162.15L17.57 158.71L9.22 167.14L11.82 179.00L22.77 182.43ZM56.20 148.74L53.61 136.87L42.65 133.43L34.29 141.86L36.88 153.72L47.84 157.17ZM79.51 255.50L76.93 243.65L65.98 240.20L57.63 248.61L60.22 260.46L71.16 263.91ZM60.22 260.46L57.63 248.61L46.69 245.16L38.34 253.57L40.93 265.42L51.87 268.86ZM85.29 235.24L82.70 223.38L71.75 219.93L63.39 228.34L65.98 240.20L76.93 243.65ZM65.98 240.20L63.39 228.34L52.45 224.89L44.09 233.31L46.69 245.16L57.63 248.61ZM93.04 270.81L90.46 258.96L79.51 255.50L71.16 263.91L73.75 275.76L84.69 279.21ZM98.82 250.55L96.24 238.69L85.29 235.24L76.93 243.65L79.51 255.50L90.46 258.96ZM27.40 250.13L24.80 238.28L13.86 234.84L5.52 243.25L8.11 255.10L19.05 258.54ZM8.11 255.10L5.52 243.25L-5.42 239.81L-13.76 248.23L-11.16 260.07L-0.22 263.51ZM33.15 229.86L30.56 218.01L19.61 214.57L11.26 222.98L13.86 234.84L24.80 238.28ZM13.86 234.84L11.26 222.98L0.32 219.55L-8.02 227.96L-5.42 239.81L5.52 243.25ZM40.93 265.42L38.34 253.57L27.40 250.13L19.05 258.54L21.65 270.38L32.58 273.82ZM21.65 270.38L19.05 258.54L8.11 255.10L-0.22 263.51L2.37 275.35L13.31 278.79ZM46.69 245.16L44.09 233.31L33.15 229.86L24.80 238.28L27.40 250.13L38.34 253.57ZM110.39 210.01L107.80 198.14L96.85 194.69L88.48 203.10L91.06 214.97L102.02 218.42ZM91.06 214.97L88.48 203.10L77.52 199.65L69.16 208.07L71.75 219.93L82.70 223.38ZM116.17 189.73L113.59 177.86L102.63 174.41L94.26 182.82L96.85 194.69L107.80 198.14ZM96.85 194.69L94.26 182.82L83.30 179.37L74.94 187.79L77.52 199.65L88.48 203.10ZM123.92 225.34L121.34 213.47L110.39 210.01L102.02 218.42L104.60 230.29L115.55 233.74ZM104.60 230.29L102.02 218.42L91.06 214.97L82.70 223.38L85.29 235.24L96.24 238.69ZM58.21 204.62L55.62 192.76L44.67 189.32L36.31 197.73L38.91 209.59L49.85 213.04ZM38.91 209.59L36.31 197.73L25.36 194.29L17.01 202.71L19.61 214.57L30.56 218.01ZM63.98 184.34L61.39 172.48L50.43 169.03L42.08 177.45L44.67 189.32L55.62 192.76ZM44.67 189.32L42.08 177.45L31.12 174.01L22.77 182.43L25.36 194.29L36.31 197.73ZM71.75 219.93L69.16 208.07L58.21 204.62L49.85 213.04L52.45 224.89L63.39 228.34ZM52.45 224.89L49.85 213.04L38.91 209.59L30.56 218.01L33.15 229.86L44.09 233.31ZM77.52 199.65L74.94 187.79L63.98 184.34L55.62 192.76L58.21 204.62L69.16 208.07ZM112.35 265.87L109.77 254.01L98.82 250.55L90.46 258.96L93.04 270.81L103.99 274.27ZM118.13 245.61L115.55 233.74L104.60 230.29L96.24 238.69L98.82 250.55L109.77 254.01ZM182.02 22.26L179.44 10.35L168.44 6.89L160.04 15.33L162.62 27.24L173.61 30.70ZM162.62 27.24L160.04 15.33L149.05 11.88L140.64 20.32L143.23 32.22L154.22 35.67ZM187.85 1.91L185.27 -9.99L174.27 -13.46L165.86 -5.01L168.44 6.89L179.44 10.35ZM168.44 6.89L165.86 -5.01L154.87 -8.47L146.46 -0.03L149.05 11.88L160.04 15.33ZM176.19 42.60L173.61 30.70L162.62 27.24L154.22 35.67L156.80 47.57L167.79 51.03ZM129.66 16.86L127.07 4.96L116.08 1.51L107.68 9.96L110.28 21.85L121.26 25.31ZM110.28 21.85L107.68 9.96L96.70 6.51L88.31 14.96L90.90 26.85L101.88 30.30ZM135.47 -3.48L132.88 -15.38L121.89 -18.84L113.49 -10.39L116.08 1.51L127.07 4.96ZM116.08 1.51L113.49 -10.39L102.50 -13.84L94.10 -5.39L96.70 6.51L107.68 9.96ZM143.23 32.22L140.64 20.32L129.66 16.86L121.26 25.31L123.85 37.20L134.83 40.66ZM123.85 37.20L121.26 25.31L110.28 21.85L101.88 30.30L104.48 42.19L115.46 45.64ZM149.05 11.88L146.46 -0.03L135.47 -3.48L127.07 4.96L129.66 16.86L140.64 20.32ZM25.02 6.21L22.42 -5.68L11.44 -9.11L3.07 -0.66L5.67 11.23L16.65 14.66ZM5.67 11.23L3.07 -0.66L-7.91 -4.09L-16.28 4.37L-13.67 16.25L-2.69 19.68ZM38.60 21.53L36.00 9.64L25.02 6.21L16.65 14.66L19.25 26.54L30.23 29.98ZM19.25 26.54L16.65 14.66L5.67 11.23L-2.69 19.68L-0.09 31.56L10.88 34.99ZM44.38 1.19L41.78 -10.70L30.80 -14.14L22.42 -5.68L25.02 6.21L36.00 9.64ZM46.40 57.18L43.80 45.30L32.83 41.86L24.46 50.30L27.06 62.18L38.03 65.62ZM27.06 62.18L24.46 50.30L13.49 46.87L5.12 55.32L7.73 67.19L18.69 70.63ZM52.18 36.85L49.58 24.97L38.60 21.53L30.23 29.98L32.83 41.86L43.80 45.30ZM32.83 41.86L30.23 29.98L19.25 26.54L10.88 34.99L13.49 46.87L24.46 50.30ZM59.97 72.50L57.37 60.62L46.40 57.18L38.03 65.62L40.63 77.50L51.60 80.94ZM40.63 77.50L38.03 65.62L27.06 62.18L18.69 70.63L21.29 82.50L32.26 85.94ZM65.75 52.18L63.15 40.29L52.18 36.85L43.80 45.30L46.40 57.18L57.37 60.62ZM7.73 67.19L5.12 55.32L-5.85 51.88L-14.21 60.33L-11.60 72.20L-0.64 75.63ZM13.49 46.87L10.88 34.99L-0.09 31.56L-8.45 40.01L-5.85 51.88L5.12 55.32ZM77.33 11.51L74.73 -0.38L63.74 -3.82L55.36 4.63L57.96 16.52L68.94 19.96ZM57.96 16.52L55.36 4.63L44.38 1.19L36.00 9.64L38.60 21.53L49.58 24.97ZM63.74 -3.82L61.15 -15.72L50.16 -19.16L41.78 -10.70L44.38 1.19L55.36 4.63ZM90.90 26.85L88.31 14.96L77.33 11.51L68.94 19.96L71.54 31.85L82.52 35.29ZM71.54 31.85L68.94 19.96L57.96 16.52L49.58 24.97L52.18 36.85L63.15 40.29ZM96.70 6.51L94.10 -5.39L83.12 -8.83L74.73 -0.38L77.33 11.51L88.31 14.96ZM120.01 113.51L117.42 101.63L106.45 98.17L98.07 106.60L100.66 118.48L111.62 121.93ZM100.66 118.48L98.07 106.60L87.10 103.15L78.72 111.58L81.31 123.46L92.28 126.91ZM125.81 93.20L123.22 81.31L112.24 77.86L103.86 86.29L106.45 98.17L117.42 101.63ZM106.45 98.17L103.86 86.29L92.89 82.84L84.51 91.27L87.10 103.15L98.07 106.60ZM133.56 128.85L130.98 116.96L120.01 113.51L111.62 121.93L114.21 133.81L125.18 137.27ZM114.21 133.81L111.62 121.93L100.66 118.48L92.28 126.91L94.87 138.79L105.83 142.24ZM139.37 108.54L136.78 96.65L125.81 93.20L117.42 101.63L120.01 113.51L130.98 116.96ZM67.75 108.14L65.16 96.26L54.19 92.82L45.82 101.25L48.42 113.13L59.38 116.57ZM48.42 113.13L45.82 101.25L34.86 97.81L26.49 106.25L29.09 118.12L40.05 121.56ZM73.54 87.83L70.94 75.94L59.97 72.50L51.60 80.94L54.19 92.82L65.16 96.26ZM54.19 92.82L51.60 80.94L40.63 77.50L32.26 85.94L34.86 97.81L45.82 101.25ZM81.31 123.46L78.72 111.58L67.75 108.14L59.38 116.57L61.98 128.44L72.94 131.89ZM61.98 128.44L59.38 116.57L48.42 113.13L40.05 121.56L42.65 133.43L53.61 136.87ZM87.10 103.15L84.51 91.27L73.54 87.83L65.16 96.26L67.75 108.14L78.72 111.58ZM150.99 67.90L148.40 56.01L137.42 52.55L129.02 60.99L131.61 72.88L142.59 76.33ZM131.61 72.88L129.02 60.99L118.05 57.53L109.66 65.97L112.24 77.86L123.22 81.31ZM156.80 47.57L154.22 35.67L143.23 32.22L134.83 40.66L137.42 52.55L148.40 56.01ZM137.42 52.55L134.83 40.66L123.85 37.20L115.46 45.64L118.05 57.53L129.02 60.99ZM164.55 83.25L161.97 71.36L150.99 67.90L142.59 76.33L145.17 88.22L156.15 91.68ZM145.17 88.22L142.59 76.33L131.61 72.88L123.22 81.31L125.81 93.20L136.78 96.65ZM170.37 62.93L167.79 51.03L156.80 47.57L148.40 56.01L150.99 67.90L161.97 71.36ZM98.68 62.52L96.09 50.63L85.11 47.18L76.73 55.62L79.32 67.51L90.29 70.95ZM79.32 67.51L76.73 55.62L65.75 52.18L57.37 60.62L59.97 72.50L70.94 75.94ZM104.48 42.19L101.88 30.30L90.90 26.85L82.52 35.29L85.11 47.18L96.09 50.63ZM85.11 47.18L82.52 35.29L71.54 31.85L63.15 40.29L65.75 52.18L76.73 55.62ZM112.24 77.86L109.66 65.97L98.68 62.52L90.29 70.95L92.89 82.84L103.86 86.29ZM92.89 82.84L90.29 70.95L79.32 67.51L70.94 75.94L73.54 87.83L84.51 91.27ZM118.05 57.53L115.46 45.64L104.48 42.19L96.09 50.63L98.68 62.52L109.66 65.97ZM141.31 164.48L138.73 152.61L127.76 149.15L119.38 157.57L121.97 169.44L132.93 172.90ZM121.97 169.44L119.38 157.57L108.42 154.11L100.04 162.53L102.63 174.41L113.59 177.86ZM147.11 144.19L144.53 132.31L133.56 128.85L125.18 137.27L127.76 149.15L138.73 152.61ZM127.76 149.15L125.18 137.27L114.21 133.81L105.83 142.24L108.42 154.11L119.38 157.57ZM135.51 184.78L132.93 172.90L121.97 169.44L113.59 177.86L116.17 189.73L127.13 193.19ZM89.08 159.08L86.49 147.21L75.53 143.76L67.16 152.19L69.75 164.05L80.71 167.50ZM69.75 164.05L67.16 152.19L56.20 148.74L47.84 157.17L50.43 169.03L61.39 172.48ZM94.87 138.79L92.28 126.91L81.31 123.46L72.94 131.89L75.53 143.76L86.49 147.21ZM75.53 143.76L72.94 131.89L61.98 128.44L53.61 136.87L56.20 148.74L67.16 152.19ZM102.63 174.41L100.04 162.53L89.08 159.08L80.71 167.50L83.30 179.37L94.26 182.82ZM83.30 179.37L80.71 167.50L69.75 164.05L61.39 172.48L63.98 184.34L74.94 187.79ZM108.42 154.11L105.83 142.24L94.87 138.79L86.49 147.21L89.08 159.08L100.04 162.53Z"/></svg>
