<svg xmlns="http://www.w3.org/2000/svg" width="256" height="256" viewBox="0 0 256 256"><path data-band="2" fill="#f97316" fill-opacity="0.35" d="M257.25 66.87L254.69 55.00L243.74 51.52L235.35 59.90L237.91 71.76L248.86 75.25ZM237.91 71.76L235.35 59.90L224.40 56.42L216.01 64.80L218.58 76.66L229.52 80.15ZM263.08 46.62L260.52 34.74L249.57 31.26L241.17 39.65L243.74 51.52L254.69 55.00ZM243.74 51.52L241.17 39.65L230.22 36.16L221.83 44.55L224.40 56.42L235.35 59.90ZM270.76 82.22L268.20 70.36L257.25 66.87L248.86 75.25L251.42 87.11L262.37 90.60ZM251.42 87.11L248.86 75.25L237.91 71.76L229.52 80.15L232.09 92.01L243.03 95.49ZM276.59 61.98L274.04 50.10L263.08 46.62L254.69 55.00L257.25 66.87L268.20 70.36ZM268.92 26.36L266.36 14.48L255.40 11.00L247.00 19.39L249.57 31.26L260.52 34.74ZM274.76 6.09L272.20 -5.79L261.24 -9.27L252.84 -0.88L255.40 11.00L266.36 14.48ZM259.09 122.70L256.54 110.84L245.59 107.35L237.21 115.73L239.77 127.58L250.71 131.07ZM264.92 102.46L262.37 90.60L251.42 87.11L243.03 95.49L245.59 107.35L256.54 110.84ZM272.59 138.05L270.04 126.19L259.09 122.70L250.71 131.07L253.27 142.92L264.21 146.41ZM174.14 106.71L171.57 94.86L160.63 91.39L152.27 99.77L154.84 111.62L165.78 115.09ZM154.84 111.62L152.27 99.77L141.33 96.31L132.98 104.69L135.55 116.54L146.48 120.00ZM179.94 86.48L177.37 74.62L166.43 71.15L158.06 79.54L160.63 91.39L171.57 94.86ZM160.63 91.39L158.06 79.54L147.12 76.07L138.76 84.46L141.33 96.31L152.27 99.77ZM187.65 122.04L185.08 110.19L174.14 106.71L165.78 115.09L168.35 126.94L179.28 130.41ZM168.35 126.94L165.78 115.09L154.84 111.62L146.48 120.00L149.05 131.85L159.98 135.32ZM193.45 101.81L190.88 89.95L179.94 86.48L171.57 94.86L174.14 106.71L185.08 110.19ZM122.04 101.23L119.47 89.38L108.53 85.92L100.18 94.31L102.76 106.15L113.69 109.61ZM127.82 80.99L125.25 69.14L114.31 65.68L105.95 74.07L108.53 85.92L119.47 89.38ZM108.53 85.92L105.95 74.07L95.02 70.61L86.67 79.01L89.25 90.85L100.18 94.31ZM135.55 116.54L132.98 104.69L122.04 101.23L113.69 109.61L116.27 121.45L127.19 124.92ZM116.27 121.45L113.69 109.61L102.76 106.15L94.41 114.53L96.99 126.37L107.92 129.83ZM141.33 96.31L138.76 84.46L127.82 80.99L119.47 89.38L122.04 101.23L132.98 104.69ZM205.07 61.33L202.50 49.46L191.55 45.99L183.17 54.38L185.74 66.24L196.69 69.71ZM185.74 66.24L183.17 54.38L172.23 50.91L163.86 59.29L166.43 71.15L177.37 74.62ZM210.88 41.07L208.31 29.21L197.36 25.73L188.98 34.12L191.55 45.99L202.50 49.46ZM191.55 45.99L188.98 34.12L178.03 30.65L169.66 39.05L172.23 50.91L183.17 54.38ZM218.58 76.66L216.01 64.80L205.07 61.33L196.69 69.71L199.26 81.57L210.20 85.05ZM199.26 81.57L196.69 69.71L185.74 66.24L177.37 74.62L179.94 86.48L190.88 89.95ZM224.40 56.42L221.83 44.55L210.88 41.07L202.50 49.46L205.07 61.33L216.01 64.80ZM152.91 55.83L150.34 43.97L139.40 40.50L131.03 48.90L133.61 60.75L144.55 64.22ZM133.61 60.75L131.03 48.90L120.09 45.44L111.73 53.83L114.31 65.68L125.25 69.14ZM158.71 35.58L156.14 23.72L145.19 20.25L136.82 28.65L139.40 40.50L150.34 43.97ZM139.40 40.50L136.82 28.65L125.87 25.19L117.51 33.58L120.09 45.44L131.03 48.90ZM166.43 71.15L163.86 59.29L152.91 55.83L144.55 64.22L147.12 76.07L158.06 79.54ZM147.12 76.07L144.55 64.22L133.61 60.75L125.25 69.14L127.82 80.99L138.76 84.46ZM172.23 50.91L169.66 39.05L158.71 35.58L150.34 43.97L152.91 55.83L163.86 59.29ZM195.34 157.58L192.78 145.74L181.85 142.26L173.48 150.63L176.05 162.48L186.98 165.95ZM176.05 162.48L173.48 150.63L162.55 147.16L154.20 155.53L156.77 167.37L167.69 170.85ZM201.15 137.36L198.58 125.51L187.65 122.04L179.28 130.41L181.85 142.26L192.78 145.74ZM181.85 142.26L179.28 130.41L168.35 126.94L159.98 135.32L162.55 147.16L173.48 150.63ZM208.84 172.91L206.27 161.06L195.34 157.58L186.98 165.95L189.54 177.79L200.47 181.27ZM189.54 177.79L186.98 165.95L176.05 162.48L167.69 170.85L170.26 182.69L181.18 186.16ZM214.64 152.69L212.08 140.84L201.15 137.36L192.78 145.74L195.34 157.58L206.27 161.06ZM143.27 152.07L140.70 140.22L129.77 136.76L121.42 145.13L123.99 156.97L134.92 160.44ZM123.99 156.97L121.42 145.13L110.49 141.67L102.15 150.05L104.72 161.89L115.65 165.35ZM149.05 131.85L146.48 120.00L135.55 116.54L127.19 124.92L129.77 136.76L140.70 140.22ZM129.77 136.76L127.19 124.92L116.27 121.45L107.92 129.83L110.49 141.67L121.42 145.13ZM156.77 167.37L154.20 155.53L143.27 152.07L134.92 160.44L137.49 172.28L148.41 175.74ZM137.49 172.28L134.92 160.44L123.99 156.97L115.65 165.35L118.22 177.18L129.14 180.65ZM162.55 147.16L159.98 135.32L149.05 131.85L140.70 140.22L143.27 152.07L154.20 155.53ZM226.27 112.24L223.71 100.38L212.76 96.90L204.39 105.28L206.95 117.14L217.89 120.62ZM206.95 117.14L204.39 105.28L193.45 101.81L185.08 110.19L187.65 122.04L198.58 125.51ZM232.09 92.01L229.52 80.15L218.58 76.66L210.20 85.05L212.76 96.90L223.71 100.38ZM212.76 96.90L210.20 85.05L199.26 81.57L190.88 89.95L193.45 101.81L204.39 105.28ZM239.77 127.58L237.21 115.73L226.27 112.24L217.89 120.62L220.45 132.47L231.39 135.95ZM220.45 132.47L217.89 120.62L206.95 117.14L198.58 125.51L201.15 137.36L212.08 140.84ZM245.59 107.35L243.03 95.49L232.09 92.01L223.71 100.38L226.27 112.24L237.21 115.73ZM236.05 15.90L233.48 4.03L222.52 0.55L214.13 8.95L216.70 20.82L227.65 24.30ZM216.70 20.82L214.13 8.95L203.18 5.47L194.79 13.87L197.36 25.73L208.31 29.21ZM241.88 -4.36L239.31 -16.24L228.35 -19.72L219.96 -11.32L222.52 0.55L233.48 4.03ZM222.52 0.55L219.96 -11.32L209.00 -14.80L200.61 -6.40L203.18 5.47L214.13 8.95ZM249.57 31.26L247.00 19.39L236.05 15.90L227.65 24.30L230.22 36.16L241.17 39.65ZM230.22 36.16L227.65 24.30L216.70 20.82L208.31 29.21L210.88 41.07L221.83 44.55ZM255.40 11.00L252.84 -0.88L241.88 -4.36L233.48 4.03L236.05 15.90L247.00 19.39ZM183.84 10.39L181.27 -1.47L170.31 -4.94L161.94 3.46L164.51 15.32L175.46 18.79ZM164.51 15.32L161.94 3.46L150.98 -0.01L142.61 8.39L145.19 20.25L156.14 23.72ZM170.31 -4.94L167.74 -16.81L156.78 -20.28L148.41 -11.88L150.98 -0.01L161.94 3.46ZM197.36 25.73L194.79 13.87L183.84 10.39L175.46 18.79L178.03 30.65L188.98 34.12ZM178.03 30.65L175.46 18.79L164.51 15.32L156.14 23.72L158.71 35.58L169.66 39.05ZM203.18 5.47L200.61 -6.40L189.65 -9.87L181.27 -1.47L183.84 10.39L194.79 13.87ZM268.60 214.03L266.04 202.18L255.11 198.69L246.74 207.05L249.29 218.90L260.22 222.39ZM249.29 218.90L246.74 207.05L235.81 203.56L227.44 211.92L230.00 223.76L240.93 227.25ZM274.42 193.83L271.87 181.98L260.93 178.48L252.56 186.85L255.11 198.69L266.04 202.18ZM255.11 198.69L252.56 186.85L241.63 183.36L233.25 191.72L235.81 203.56L246.74 207.05ZM262.77 234.23L260.22 222.39L249.29 218.90L240.93 227.25L243.48 239.09L254.40 242.58ZM216.52 208.44L213.96 196.60L203.03 193.12L194.67 201.48L197.23 213.32L208.16 216.80ZM197.23 213.32L194.67 201.48L183.75 198.00L175.39 206.36L177.96 218.20L188.88 221.68ZM222.33 188.23L219.77 176.39L208.84 172.91L200.47 181.27L203.03 193.12L213.96 196.60ZM203.03 193.12L200.47 181.27L189.54 177.79L181.18 186.16L183.75 198.00L194.67 201.48ZM230.00 223.76L227.44 211.92L216.52 208.44L208.16 216.80L210.72 228.63L221.64 232.12ZM210.72 228.63L208.16 216.80L197.23 213.32L188.88 221.68L191.44 233.51L202.36 236.99ZM235.81 203.56L233.25 191.72L222.33 188.23L213.96 196.60L216.52 208.44L227.44 211.92ZM247.44 163.14L244.89 151.29L233.95 147.81L225.58 156.17L228.14 168.02L239.07 171.51ZM228.14 168.02L225.58 156.17L214.64 152.69L206.27 161.06L208.84 172.91L219.77 176.39ZM253.27 142.92L250.71 131.07L239.77 127.58L231.39 135.95L233.95 147.81L244.89 151.29ZM233.95 147.81L231.39 135.95L220.45 132.47L212.08 140.84L214.64 152.69L225.58 156.17ZM260.93 178.48L258.38 166.63L247.44 163.14L239.07 171.51L241.63 183.36L252.56 186.85ZM241.63 183.36L239.07 171.51L228.14 168.02L219.77 176.39L222.33 188.23L233.25 191.72ZM266.76 158.27L264.21 146.41L253.27 142.92L244.89 151.29L247.44 163.14L258.38 166.63ZM270.43 269.75L267.88 257.91L256.96 254.42L248.59 262.77L251.14 274.60L262.06 278.10ZM276.25 249.57L273.70 237.72L262.77 234.23L254.40 242.58L256.96 254.42L267.88 257.91ZM237.67 259.28L235.11 247.44L224.19 243.96L215.83 252.31L218.39 264.14L229.31 267.63ZM218.39 264.14L215.83 252.31L204.92 248.82L196.56 257.18L199.12 269.01L210.04 272.49ZM243.48 239.09L240.93 227.25L230.00 223.76L221.64 232.12L224.19 243.96L235.11 247.44ZM224.19 243.96L221.64 232.12L210.72 228.63L202.36 236.99L204.92 248.82L215.83 252.31ZM256.96 254.42L254.40 242.58L243.48 239.09L235.11 247.44L237.67 259.28L248.59 262.77ZM60.46 191.92L57.88 180.10L46.97 176.65L38.64 185.02L41.23 196.84L52.13 200.29ZM73.95 207.20L71.37 195.38L60.46 191.92L52.13 200.29L54.72 212.12L65.62 215.57ZM79.71 187.01L77.13 175.18L66.21 171.72L57.88 180.10L60.46 191.92L71.37 195.38ZM91.23 146.59L88.65 134.76L77.72 131.30L69.38 139.68L71.97 151.51L82.88 154.97ZM96.99 126.37L94.41 114.53L83.48 111.08L75.14 119.46L77.72 131.30L88.65 134.76ZM104.72 161.89L102.15 150.05L91.23 146.59L82.88 154.97L85.46 166.80L96.38 170.26ZM85.46 166.80L82.88 154.97L71.97 151.51L63.63 159.89L66.21 171.72L77.13 175.18ZM110.49 141.67L107.92 129.83L96.99 126.37L88.65 134.76L91.23 146.59L102.15 150.05ZM114.31 65.68L111.73 53.83L100.79 50.37L92.44 58.77L95.02 70.61L105.95 74.07ZM120.09 45.44L117.51 33.58L106.57 30.12L98.21 38.52L100.79 50.37L111.73 53.83ZM131.66 4.93L129.08 -6.94L118.13 -10.39L109.77 -1.99L112.35 9.87L123.29 13.33ZM145.19 20.25L142.61 8.39L131.66 4.93L123.29 13.33L125.87 25.19L136.82 28.65ZM150.98 -0.01L148.41 -11.88L137.45 -15.34L129.08 -6.94L131.66 4.93L142.61 8.39ZM133.65 248.16L131.08 236.34L120.17 232.87L111.83 241.23L114.41 253.05L125.31 256.52ZM114.41 253.05L111.83 241.23L100.93 237.77L92.59 246.13L95.17 257.95L106.07 261.41ZM139.43 227.97L136.86 216.15L125.94 212.68L117.60 221.04L120.17 232.87L131.08 236.34ZM120.17 232.87L117.60 221.04L106.69 217.58L98.35 225.94L100.93 237.77L111.83 241.23ZM147.13 263.46L144.56 251.63L133.65 248.16L125.31 256.52L127.88 268.34L138.79 271.81ZM127.88 268.34L125.31 256.52L114.41 253.05L106.07 261.41L108.65 273.23L119.55 276.69ZM152.91 243.27L150.34 231.44L139.43 227.97L131.08 236.34L133.65 248.16L144.56 251.63ZM81.69 242.67L79.11 230.85L68.20 227.39L59.88 235.76L62.46 247.57L73.36 251.03ZM62.46 247.57L59.88 235.76L48.97 232.30L40.65 240.67L43.24 252.48L54.14 255.94ZM87.44 222.48L84.86 210.66L73.95 207.20L65.62 215.57L68.20 227.39L79.11 230.85ZM68.20 227.39L65.62 215.57L54.72 212.12L46.39 220.49L48.97 232.30L59.88 235.76ZM95.17 257.95L92.59 246.13L81.69 242.67L73.36 251.03L75.94 262.85L86.84 266.31ZM75.94 262.85L73.36 251.03L62.46 247.57L54.14 255.94L56.72 267.75L67.62 271.21ZM100.93 237.77L98.35 225.94L87.44 222.48L79.11 230.85L81.69 242.67L92.59 246.13ZM164.47 202.89L161.90 191.05L150.98 187.58L142.63 195.95L145.20 207.78L156.12 211.25ZM145.20 207.78L142.63 195.95L131.71 192.48L123.37 200.85L125.94 212.68L136.86 216.15ZM170.26 182.69L167.69 170.85L156.77 167.37L148.41 175.74L150.98 187.58L161.90 191.05ZM150.98 187.58L148.41 175.74L137.49 172.28L129.14 180.65L131.71 192.48L142.63 195.95ZM177.96 218.20L175.39 206.36L164.47 202.89L156.12 211.25L158.69 223.08L169.60 226.56ZM158.69 223.08L156.12 211.25L145.20 207.78L136.86 216.15L139.43 227.97L150.34 231.44ZM183.75 198.00L181.18 186.16L170.26 182.69L161.90 191.05L164.47 202.89L175.39 206.36ZM112.45 197.38L109.88 185.55L98.96 182.09L90.62 190.46L93.20 202.29L104.11 205.75ZM93.20 202.29L90.62 190.46L79.71 187.01L71.37 195.38L73.95 207.20L84.86 210.66ZM118.22 177.18L115.65 165.35L104.72 161.89L96.38 170.26L98.96 182.09L109.88 185.55ZM98.96 182.09L96.38 170.26L85.46 166.80L77.13 175.18L79.71 187.01L90.62 190.46ZM125.94 212.68L123.37 200.85L112.45 197.38L104.11 205.75L106.69 217.58L117.60 221.04ZM106.69 217.58L104.11 205.75L93.20 202.29L84.86 210.66L87.44 222.48L98.35 225.94ZM131.71 192.48L129.14 180.65L118.22 177.18L109.88 185.55L112.45 197.38L123.37 200.85ZM185.65 253.70L183.08 241.87L172.17 238.39L163.82 246.75L166.39 258.57L177.30 262.05ZM166.39 258.57L163.82 246.75L152.91 243.27L144.56 251.63L147.13 263.46L158.04 266.93ZM191.44 233.51L188.88 221.68L177.96 218.20L169.60 226.56L172.17 238.39L183.08 241.87ZM172.17 238.39L169.60 226.56L158.69 223.08L150.34 231.44L152.91 243.27L163.82 246.75ZM199.12 269.01L196.56 257.18L185.65 253.70L177.30 262.05L179.86 273.88L190.77 277.36ZM204.92 248.82L202.36 236.99L191.44 233.51L183.08 241.87L185.65 253.70L196.56 257.18ZM56.72 267.75L54.14 255.94L43.24 252.48L34.92 260.85L37.50 272.66L48.40 276.11Z"/><path data-band="3" fill="#dc2626" fill-opacity="0.35" d="M102.76 106.15L100.18 94.31L89.25 90.85L80.90 99.24L83.48 111.08L94.41 114.53ZM2.37 19.35L-0.22 7.51L-11.16 4.07L-19.49 12.48L-16.89 24.32L-5.96 27.76ZM10.16 54.88L7.56 43.04L-3.37 39.60L-11.70 48.00L-9.10 59.84L1.82 63.27ZM15.90 34.63L13.31 22.79L2.37 19.35L-5.96 27.76L-3.37 39.60L7.56 43.04ZM39.21 141.16L36.62 129.33L25.71 125.89L17.38 134.27L19.97 146.10L30.88 149.54ZM19.97 146.10L17.38 134.27L6.46 130.83L-1.86 139.22L0.73 151.04L11.64 154.48ZM44.96 120.95L42.37 109.11L31.45 105.67L23.12 114.05L25.71 125.89L36.62 129.33ZM25.71 125.89L23.12 114.05L12.20 110.61L3.87 119.00L6.46 130.83L17.38 134.27ZM52.71 156.44L50.13 144.61L39.21 141.16L30.88 149.54L33.47 161.37L44.38 164.82ZM33.47 161.37L30.88 149.54L19.97 146.10L11.64 154.48L14.23 166.31L25.14 169.75ZM58.46 136.23L55.88 124.40L44.96 120.95L36.62 129.33L39.21 141.16L50.13 144.61ZM0.73 151.04L-1.86 139.22L-12.77 135.78L-21.09 144.16L-18.50 155.98L-7.59 159.42ZM6.46 130.83L3.87 119.00L-7.05 115.56L-15.37 123.95L-12.77 135.78L-1.86 139.22ZM69.97 95.78L67.39 83.94L56.46 80.49L48.12 88.88L50.71 100.72L61.63 104.17ZM50.71 100.72L48.12 88.88L37.19 85.44L28.86 93.83L31.45 105.67L42.37 109.11ZM75.74 75.55L73.15 63.71L62.22 60.26L53.87 68.65L56.46 80.49L67.39 83.94ZM56.46 80.49L53.87 68.65L42.94 65.20L34.60 73.60L37.19 85.44L48.12 88.88ZM83.48 111.08L80.90 99.24L69.97 95.78L61.63 104.17L64.22 116.01L75.14 119.46ZM64.22 116.01L61.63 104.17L50.71 100.72L42.37 109.11L44.96 120.95L55.88 124.40ZM89.25 90.85L86.67 79.01L75.74 75.55L67.39 83.94L69.97 95.78L80.90 99.24ZM17.93 90.39L15.34 78.55L4.42 75.11L-3.91 83.51L-1.32 95.34L9.60 98.78ZM23.68 70.16L21.09 58.32L10.16 54.88L1.82 63.27L4.42 75.11L15.34 78.55ZM4.42 75.11L1.82 63.27L-9.10 59.84L-17.43 68.24L-14.83 80.07L-3.91 83.51ZM31.45 105.67L28.86 93.83L17.93 90.39L9.60 98.78L12.20 110.61L23.12 114.05ZM12.20 110.61L9.60 98.78L-1.32 95.34L-9.64 103.73L-7.05 115.56L3.87 119.00ZM37.19 85.44L34.60 73.60L23.68 70.16L15.34 78.55L17.93 90.39L28.86 93.83ZM41.23 196.84L38.64 185.02L27.73 181.57L19.41 189.95L22.00 201.77L32.90 205.22ZM66.21 171.72L63.63 159.89L52.71 156.44L44.38 164.82L46.97 176.65L57.88 180.10ZM46.97 176.65L44.38 164.82L33.47 161.37L25.14 169.75L27.73 181.57L38.64 185.02ZM54.72 212.12L52.13 200.29L41.23 196.84L32.90 205.22L35.49 217.04L46.39 220.49ZM8.50 186.51L5.91 174.69L-5.00 171.24L-13.31 179.62L-10.72 191.44L0.19 194.88ZM14.23 166.31L11.64 154.48L0.73 151.04L-7.59 159.42L-5.00 171.24L5.91 174.69ZM22.00 201.77L19.41 189.95L8.50 186.51L0.19 194.88L2.77 206.70L13.68 210.14ZM2.77 206.70L0.19 194.88L-10.72 191.44L-19.03 199.82L-16.44 211.63L-5.54 215.07ZM27.73 181.57L25.14 169.75L14.23 166.31L5.91 174.69L8.50 186.51L19.41 189.95ZM71.97 151.51L69.38 139.68L58.46 136.23L50.13 144.61L52.71 156.44L63.63 159.89ZM77.72 131.30L75.14 119.46L64.22 116.01L55.88 124.40L58.46 136.23L69.38 139.68ZM79.51 -0.50L76.93 -12.35L65.98 -15.80L57.63 -7.39L60.22 4.46L71.16 7.91ZM60.22 4.46L57.63 -7.39L46.69 -10.84L38.34 -2.43L40.93 9.42L51.87 12.86ZM93.04 14.81L90.46 2.96L79.51 -0.50L71.16 7.91L73.75 19.76L84.69 23.21ZM73.75 19.76L71.16 7.91L60.22 4.46L51.87 12.86L54.46 24.71L65.39 28.16ZM98.82 -5.45L96.24 -17.31L85.29 -20.76L76.93 -12.35L79.51 -0.50L90.46 2.96ZM27.40 -5.87L24.80 -17.72L13.86 -21.16L5.52 -12.75L8.11 -0.90L19.05 2.54ZM8.11 -0.90L5.52 -12.75L-5.42 -16.19L-13.76 -7.77L-11.16 4.07L-0.22 7.51ZM40.93 9.42L38.34 -2.43L27.40 -5.87L19.05 2.54L21.65 14.38L32.58 17.82ZM21.65 14.38L19.05 2.54L8.11 -0.90L-0.22 7.51L2.37 19.35L13.31 22.79ZM100.79 50.37L98.21 38.52L87.27 35.07L78.92 43.46L81.50 55.31L92.44 58.77ZM81.50 55.31L78.92 43.46L67.98 40.01L59.63 48.41L62.22 60.26L73.15 63.71ZM106.57 30.12L103.99 18.27L93.04 14.81L84.69 23.21L87.27 35.07L98.21 38.52ZM87.27 35.07L84.69 23.21L73.75 19.76L65.39 28.16L67.98 40.01L78.92 43.46ZM95.02 70.61L92.44 58.77L81.50 55.31L73.15 63.71L75.74 75.55L86.67 79.01ZM48.70 44.96L46.11 33.12L35.17 29.67L26.83 38.07L29.42 49.92L40.35 53.36ZM29.42 49.92L26.83 38.07L15.90 34.63L7.56 43.04L10.16 54.88L21.09 58.32ZM54.46 24.71L51.87 12.86L40.93 9.42L32.58 17.82L35.17 29.67L46.11 33.12ZM35.17 29.67L32.58 17.82L21.65 14.38L13.31 22.79L15.90 34.63L26.83 38.07ZM62.22 60.26L59.63 48.41L48.70 44.96L40.35 53.36L42.94 65.20L53.87 68.65ZM42.94 65.20L40.35 53.36L29.42 49.92L21.09 58.32L23.68 70.16L34.60 73.60ZM67.98 40.01L65.39 28.16L54.46 24.71L46.11 33.12L48.70 44.96L59.63 48.41ZM112.35 9.87L109.77 -1.99L98.82 -5.45L90.46 2.96L93.04 14.81L103.99 18.27ZM125.87 25.19L123.29 13.33L112.35 9.87L103.99 18.27L106.57 30.12L117.51 33.58ZM4.82 262.31L2.23 250.51L-8.67 247.06L-16.97 255.43L-14.38 267.24L-3.49 270.68ZM29.75 237.22L27.17 225.40L16.27 221.96L7.95 230.33L10.54 242.14L21.44 245.59ZM10.54 242.14L7.95 230.33L-2.95 226.88L-11.26 235.25L-8.67 247.06L2.23 250.51ZM35.49 217.04L32.90 205.22L22.00 201.77L13.68 210.14L16.27 221.96L27.17 225.40ZM16.27 221.96L13.68 210.14L2.77 206.70L-5.54 215.07L-2.95 226.88L7.95 230.33ZM43.24 252.48L40.65 240.67L29.75 237.22L21.44 245.59L24.02 257.40L34.92 260.85ZM24.02 257.40L21.44 245.59L10.54 242.14L2.23 250.51L4.82 262.31L15.71 265.76ZM48.97 232.30L46.39 220.49L35.49 217.04L27.17 225.40L29.75 237.22L40.65 240.67Z"/></svg>
