<svg xmlns="http://www.w3.org/2000/svg" width="256" height="256" viewBox="0 0 256 256"><path data-band="1" fill="#fde68a" fill-opacity="0.35" d="M270.10 200.78L267.56 188.97L256.67 185.47L248.32 193.79L250.87 205.60L261.76 209.09ZM250.87 205.60L248.32 193.79L237.43 190.30L229.09 198.61L231.64 210.42L242.53 213.91ZM275.91 180.66L273.36 168.84L262.47 165.34L254.12 173.66L256.67 185.47L267.56 188.97ZM256.67 185.47L254.12 173.66L243.23 170.17L234.88 178.49L237.43 190.30L248.32 193.79ZM264.30 220.90L261.76 209.09L250.87 205.60L242.53 213.91L245.07 225.71L255.96 229.21ZM271.93 256.32L269.38 244.51L258.50 241.01L250.16 249.32L252.71 261.12L263.59 264.62ZM277.73 236.21L275.19 224.40L264.30 220.90L255.96 229.21L258.50 241.01L269.38 244.51ZM239.28 245.82L236.74 234.02L225.86 230.53L217.52 238.84L220.07 250.64L230.95 254.13ZM252.71 261.12L250.16 249.32L239.28 245.82L230.95 254.13L233.50 265.93L244.37 269.42ZM233.50 265.93L230.95 254.13L220.07 250.64L211.74 258.94L214.29 270.74L225.17 274.23ZM258.50 241.01L255.96 229.21L245.07 225.71L236.74 234.02L239.28 245.82L250.16 249.32ZM262.47 165.34L259.92 153.53L249.03 150.03L240.68 158.36L243.23 170.17L254.12 173.66ZM268.27 145.21L265.73 133.39L254.83 129.89L246.48 138.22L249.03 150.03L259.92 153.53ZM274.08 125.06L271.54 113.24L260.63 109.75L252.28 118.07L254.83 129.89L265.73 133.39Z"/><path data-band="2" fill="#f97316" fill-opacity="0.35" d="M270.43 13.75L267.88 1.91L256.96 -1.58L248.59 6.77L251.14 18.60L262.06 22.10ZM276.25 -6.43L273.70 -18.28L262.77 -21.77L254.40 -13.42L256.96 -1.58L267.88 1.91ZM237.67 3.28L235.11 -8.56L224.19 -12.04L215.83 -3.69L218.39 8.14L229.31 11.63ZM218.39 8.14L215.83 -3.69L204.92 -7.18L196.56 1.18L199.12 13.01L210.04 16.49ZM251.14 18.60L248.59 6.77L237.67 3.28L229.31 11.63L231.86 23.46L242.78 26.95ZM231.86 23.46L229.31 11.63L218.39 8.14L210.04 16.49L212.59 28.32L223.51 31.80ZM256.96 -1.58L254.40 -13.42L243.48 -16.91L235.11 -8.56L237.67 3.28L248.59 6.77ZM93.35 133.27L90.78 121.47L79.90 118.01L71.59 126.35L74.16 138.15L85.04 141.61ZM74.16 138.15L71.59 126.35L60.71 122.89L52.40 131.23L54.98 143.02L65.85 146.48ZM99.10 113.13L96.53 101.33L85.64 97.87L77.33 106.21L79.90 118.01L90.78 121.47ZM79.90 118.01L77.33 106.21L66.44 102.75L58.13 111.09L60.71 122.89L71.59 126.35ZM106.81 148.54L104.24 136.74L93.35 133.27L85.04 141.61L87.61 153.40L98.49 156.87ZM87.61 153.40L85.04 141.61L74.16 138.15L65.85 146.48L68.43 158.27L79.30 161.74ZM112.55 128.40L109.99 116.60L99.10 113.13L90.78 121.47L93.35 133.27L104.24 136.74ZM41.52 127.77L38.94 115.98L28.06 112.53L19.76 120.87L22.34 132.66L33.22 136.11ZM22.34 132.66L19.76 120.87L8.89 117.42L0.59 125.76L3.18 137.55L14.05 141.00ZM47.25 107.64L44.67 95.84L33.79 92.38L25.48 100.73L28.06 112.53L38.94 115.98ZM28.06 112.53L25.48 100.73L14.60 97.28L6.30 105.63L8.89 117.42L19.76 120.87ZM54.98 143.02L52.40 131.23L41.52 127.77L33.22 136.11L35.80 147.90L46.67 151.36ZM35.80 147.90L33.22 136.11L22.34 132.66L14.05 141.00L16.63 152.79L27.50 156.24ZM60.71 122.89L58.13 111.09L47.25 107.64L38.94 115.98L41.52 127.77L52.40 131.23ZM124.06 88.12L121.50 76.30L110.60 72.84L102.28 81.18L104.85 92.99L115.74 96.46ZM104.85 92.99L102.28 81.18L91.39 77.72L83.07 86.06L85.64 97.87L96.53 101.33ZM129.83 67.96L127.26 56.15L116.36 52.68L108.03 61.03L110.60 72.84L121.50 76.30ZM110.60 72.84L108.03 61.03L97.14 57.56L88.81 65.91L91.39 77.72L102.28 81.18ZM137.52 103.40L134.96 91.59L124.06 88.12L115.74 96.46L118.31 108.26L129.20 111.73ZM118.31 108.26L115.74 96.46L104.85 92.99L96.53 101.33L99.10 113.13L109.99 116.60ZM143.29 83.24L140.72 71.43L129.83 67.96L121.50 76.30L124.06 88.12L134.96 91.59ZM72.18 82.60L69.60 70.80L58.71 67.34L50.40 75.69L52.98 87.49L63.87 90.95ZM52.98 87.49L50.40 75.69L39.51 72.24L31.21 80.58L33.79 92.38L44.67 95.84ZM77.92 62.45L75.35 50.64L64.45 47.18L56.14 55.53L58.71 67.34L69.60 70.80ZM58.71 67.34L56.14 55.53L45.24 52.08L36.93 60.43L39.51 72.24L50.40 75.69ZM85.64 97.87L83.07 86.06L72.18 82.60L63.87 90.95L66.44 102.75L77.33 106.21ZM66.44 102.75L63.87 90.95L52.98 87.49L44.67 95.84L47.25 107.64L58.13 111.09ZM91.39 77.72L88.81 65.91L77.92 62.45L69.60 70.80L72.18 82.60L83.07 86.06ZM114.50 183.93L111.94 172.13L101.06 168.66L92.75 176.99L95.32 188.78L106.19 192.25ZM95.32 188.78L92.75 176.99L81.87 173.53L73.57 181.86L76.14 193.65L87.01 197.11ZM120.25 163.80L117.69 152.01L106.81 148.54L98.49 156.87L101.06 168.66L111.94 172.13ZM101.06 168.66L98.49 156.87L87.61 153.40L79.30 161.74L81.87 173.53L92.75 176.99ZM127.95 199.19L125.38 187.40L114.50 183.93L106.19 192.25L108.76 204.04L119.63 207.51ZM108.76 204.04L106.19 192.25L95.32 188.78L87.01 197.11L89.58 208.90L100.45 212.36ZM133.70 179.07L131.14 167.28L120.25 163.80L111.94 172.13L114.50 183.93L125.38 187.40ZM62.70 178.40L60.12 166.61L49.25 163.15L40.95 171.48L43.53 183.27L54.40 186.72ZM43.53 183.27L40.95 171.48L30.08 168.03L21.79 176.36L24.36 188.14L35.23 191.60ZM68.43 158.27L65.85 146.48L54.98 143.02L46.67 151.36L49.25 163.15L60.12 166.61ZM49.25 163.15L46.67 151.36L35.80 147.90L27.50 156.24L30.08 168.03L40.95 171.48ZM76.14 193.65L73.57 181.86L62.70 178.40L54.40 186.72L56.97 198.51L67.84 201.97ZM56.97 198.51L54.40 186.72L43.53 183.27L35.23 191.60L37.81 203.38L48.67 206.84ZM81.87 173.53L79.30 161.74L68.43 158.27L60.12 166.61L62.70 178.40L73.57 181.86ZM145.22 138.82L142.65 127.01L131.76 123.54L123.44 131.87L126.01 143.68L136.89 147.15ZM126.01 143.68L123.44 131.87L112.55 128.40L104.24 136.74L106.81 148.54L117.69 152.01ZM150.98 118.68L148.42 106.87L137.52 103.40L129.20 111.73L131.76 123.54L142.65 127.01ZM131.76 123.54L129.20 111.73L118.31 108.26L109.99 116.60L112.55 128.40L123.44 131.87ZM158.66 154.10L156.10 142.29L145.22 138.82L136.89 147.15L139.45 158.95L150.34 162.42ZM139.45 158.95L136.89 147.15L126.01 143.68L117.69 152.01L120.25 163.80L131.14 167.28ZM164.43 133.96L161.87 122.15L150.98 118.68L142.65 127.01L145.22 138.82L156.10 142.29ZM10.92 172.91L8.34 161.12L-2.53 157.68L-10.82 166.01L-8.24 177.79L2.63 181.24ZM16.63 152.79L14.05 141.00L3.18 137.55L-5.12 145.89L-2.53 157.68L8.34 161.12ZM24.36 188.14L21.79 176.36L10.92 172.91L2.63 181.24L5.21 193.02L16.08 196.47ZM30.08 168.03L27.50 156.24L16.63 152.79L8.34 161.12L10.92 172.91L21.79 176.36ZM133.65 -7.84L131.08 -19.66L120.17 -23.13L111.83 -14.77L114.41 -2.95L125.31 0.52ZM114.41 -2.95L111.83 -14.77L100.93 -18.23L92.59 -9.87L95.17 1.95L106.07 5.41ZM147.13 7.46L144.56 -4.37L133.65 -7.84L125.31 0.52L127.88 12.34L138.79 15.81ZM127.88 12.34L125.31 0.52L114.41 -2.95L106.07 5.41L108.65 17.23L119.55 20.69ZM95.17 1.95L92.59 -9.87L81.69 -13.33L73.36 -4.97L75.94 6.85L86.84 10.31ZM75.94 6.85L73.36 -4.97L62.46 -8.43L54.14 -0.06L56.72 11.75L67.62 15.21ZM154.83 42.92L152.26 31.10L141.36 27.63L133.02 35.98L135.59 47.80L146.49 51.27ZM135.59 47.80L133.02 35.98L122.12 32.51L113.79 40.86L116.36 52.68L127.26 56.15ZM160.61 22.75L158.04 10.93L147.13 7.46L138.79 15.81L141.36 27.63L152.26 31.10ZM141.36 27.63L138.79 15.81L127.88 12.34L119.55 20.69L122.12 32.51L133.02 35.98ZM168.30 58.22L165.73 46.40L154.83 42.92L146.49 51.27L149.06 63.09L159.96 66.56ZM149.06 63.09L146.49 51.27L135.59 47.80L127.26 56.15L129.83 67.96L140.72 71.43ZM174.08 38.05L171.51 26.23L160.61 22.75L152.26 31.10L154.83 42.92L165.73 46.40ZM102.89 37.40L100.32 25.58L89.42 22.12L81.09 30.48L83.67 42.29L94.56 45.75ZM83.67 42.29L81.09 30.48L70.19 27.02L61.87 35.37L64.45 47.18L75.35 50.64ZM108.65 17.23L106.07 5.41L95.17 1.95L86.84 10.31L89.42 22.12L100.32 25.58ZM89.42 22.12L86.84 10.31L75.94 6.85L67.62 15.21L70.19 27.02L81.09 30.48ZM116.36 52.68L113.79 40.86L102.89 37.40L94.56 45.75L97.14 57.56L108.03 61.03ZM97.14 57.56L94.56 45.75L83.67 42.29L75.35 50.64L77.92 62.45L88.81 65.91ZM122.12 32.51L119.55 20.69L108.65 17.23L100.32 25.58L102.89 37.40L113.79 40.86ZM185.65 -2.30L183.08 -14.13L172.17 -17.61L163.82 -9.25L166.39 2.57L177.30 6.05ZM166.39 2.57L163.82 -9.25L152.91 -12.73L144.56 -4.37L147.13 7.46L158.04 10.93ZM199.12 13.01L196.56 1.18L185.65 -2.30L177.30 6.05L179.86 17.88L190.77 21.36ZM179.86 17.88L177.30 6.05L166.39 2.57L158.04 10.93L160.61 22.75L171.51 26.23ZM204.92 -7.18L202.36 -19.01L191.44 -22.49L183.08 -14.13L185.65 -2.30L196.56 1.18ZM33.79 92.38L31.21 80.58L20.32 77.13L12.02 85.48L14.60 97.28L25.48 100.73ZM39.51 72.24L36.93 60.43L26.04 56.98L17.74 65.33L20.32 77.13L31.21 80.58ZM50.98 31.92L48.40 20.11L37.50 16.66L29.19 25.02L31.77 36.82L42.66 40.27ZM56.72 11.75L54.14 -0.06L43.24 -3.52L34.92 4.85L37.50 16.66L48.40 20.11ZM64.45 47.18L61.87 35.37L50.98 31.92L42.66 40.27L45.24 52.08L56.14 55.53ZM45.24 52.08L42.66 40.27L31.77 36.82L23.46 45.18L26.04 56.98L36.93 60.43ZM70.19 27.02L67.62 15.21L56.72 11.75L48.40 20.11L50.98 31.92L61.87 35.37ZM187.44 240.17L184.89 228.38L174.01 224.90L165.69 233.21L168.25 245.00L179.12 248.48ZM168.25 245.00L165.69 233.21L154.82 229.73L146.50 238.04L149.06 249.83L159.93 253.31ZM193.21 220.06L190.66 208.27L179.78 204.78L171.46 213.10L174.01 224.90L184.89 228.38ZM174.01 224.90L171.46 213.10L160.58 209.62L152.26 217.94L154.82 229.73L165.69 233.21ZM200.87 255.45L198.32 243.66L187.44 240.17L179.12 248.48L181.67 260.27L192.55 263.76ZM181.67 260.27L179.12 248.48L168.25 245.00L159.93 253.31L162.49 265.10L173.36 268.58ZM206.64 235.35L204.09 223.55L193.21 220.06L184.89 228.38L187.44 240.17L198.32 243.66ZM135.63 234.57L133.07 222.78L122.20 219.30L113.89 227.62L116.45 239.41L127.32 242.88ZM116.45 239.41L113.89 227.62L103.02 224.15L94.71 232.47L97.28 244.25L108.15 247.72ZM141.38 214.46L138.82 202.67L127.95 199.19L119.63 207.51L122.20 219.30L133.07 222.78ZM122.20 219.30L119.63 207.51L108.76 204.04L100.45 212.36L103.02 224.15L113.89 227.62ZM149.06 249.83L146.50 238.04L135.63 234.57L127.32 242.88L129.88 254.67L140.75 258.14ZM129.88 254.67L127.32 242.88L116.45 239.41L108.15 247.72L110.71 259.51L121.57 262.98ZM154.82 229.73L152.26 217.94L141.38 214.46L133.07 222.78L135.63 234.57L146.50 238.04ZM218.21 195.12L215.66 183.31L204.77 179.83L196.44 188.15L198.99 199.95L209.87 203.44ZM198.99 199.95L196.44 188.15L185.55 184.66L177.22 192.98L179.78 204.78L190.66 208.27ZM223.99 175.00L221.44 163.19L210.55 159.70L202.22 168.02L204.77 179.83L215.66 183.31ZM204.77 179.83L202.22 168.02L191.33 164.54L183.00 172.86L185.55 184.66L196.44 188.15ZM231.64 210.42L229.09 198.61L218.21 195.12L209.87 203.44L212.42 215.24L223.31 218.73ZM212.42 215.24L209.87 203.44L198.99 199.95L190.66 208.27L193.21 220.06L204.09 223.55ZM237.43 190.30L234.88 178.49L223.99 175.00L215.66 183.31L218.21 195.12L229.09 198.61ZM166.34 189.50L163.78 177.70L152.90 174.22L144.58 182.55L147.14 194.35L158.02 197.82ZM147.14 194.35L144.58 182.55L133.70 179.07L125.38 187.40L127.95 199.19L138.82 202.67ZM172.11 169.38L169.55 157.57L158.66 154.10L150.34 162.42L152.90 174.22L163.78 177.70ZM152.90 174.22L150.34 162.42L139.45 158.95L131.14 167.28L133.70 179.07L144.58 182.55ZM179.78 204.78L177.22 192.98L166.34 189.50L158.02 197.82L160.58 209.62L171.46 213.10ZM160.58 209.62L158.02 197.82L147.14 194.35L138.82 202.67L141.38 214.46L152.26 217.94ZM185.55 184.66L183.00 172.86L172.11 169.38L163.78 177.70L166.34 189.50L177.22 192.98ZM214.29 270.74L211.74 258.94L200.87 255.45L192.55 263.76L195.10 275.55L205.97 279.04ZM162.49 265.10L159.93 253.31L149.06 249.83L140.75 258.14L143.31 269.93L154.17 273.41ZM143.31 269.93L140.75 258.14L129.88 254.67L121.57 262.98L124.14 274.76L135.00 278.24ZM220.07 250.64L217.52 238.84L206.64 235.35L198.32 243.66L200.87 255.45L211.74 258.94ZM245.07 225.71L242.53 213.91L231.64 210.42L223.31 218.73L225.86 230.53L236.74 234.02ZM225.86 230.53L223.31 218.73L212.42 215.24L204.09 223.55L206.64 235.35L217.52 238.84ZM58.96 253.96L56.39 242.18L45.53 238.72L37.24 247.04L39.81 258.81L50.67 262.27ZM39.81 258.81L37.24 247.04L26.38 243.58L18.10 251.90L20.67 263.67L31.53 267.13ZM72.39 269.20L69.82 257.42L58.96 253.96L50.67 262.27L53.24 274.05L64.10 277.51ZM1.54 268.54L-1.04 256.77L-11.89 253.32L-20.16 261.64L-17.58 273.41L-6.73 276.86ZM7.24 248.45L4.66 236.68L-6.19 233.23L-14.47 241.55L-11.89 253.32L-1.04 256.77ZM20.67 263.67L18.10 251.90L7.24 248.45L-1.04 256.77L1.54 268.54L12.39 271.99ZM83.85 229.00L81.28 217.22L70.41 213.76L62.11 222.08L64.68 233.86L75.55 237.32ZM64.68 233.86L62.11 222.08L51.25 218.62L42.96 226.94L45.53 238.72L56.39 242.18ZM89.58 208.90L87.01 197.11L76.14 193.65L67.84 201.97L70.41 213.76L81.28 217.22ZM70.41 213.76L67.84 201.97L56.97 198.51L48.67 206.84L51.25 218.62L62.11 222.08ZM97.28 244.25L94.71 232.47L83.85 229.00L75.55 237.32L78.12 249.10L88.98 252.57ZM78.12 249.10L75.55 237.32L64.68 233.86L56.39 242.18L58.96 253.96L69.82 257.42ZM103.02 224.15L100.45 212.36L89.58 208.90L81.28 217.22L83.85 229.00L94.71 232.47ZM32.09 223.48L29.52 211.71L18.65 208.25L10.37 216.58L12.95 228.35L23.81 231.81ZM12.95 228.35L10.37 216.58L-0.49 213.13L-8.77 221.46L-6.19 233.23L4.66 236.68ZM37.81 203.38L35.23 191.60L24.36 188.14L16.08 196.47L18.65 208.25L29.52 211.71ZM18.65 208.25L16.08 196.47L5.21 193.02L-3.07 201.35L-0.49 213.13L10.37 216.58ZM45.53 238.72L42.96 226.94L32.09 223.48L23.81 231.81L26.38 243.58L37.24 247.04ZM26.38 243.58L23.81 231.81L12.95 228.35L4.66 236.68L7.24 248.45L18.10 251.90ZM51.25 218.62L48.67 206.84L37.81 203.38L29.52 211.71L32.09 223.48L42.96 226.94ZM110.71 259.51L108.15 247.72L97.28 244.25L88.98 252.57L91.55 264.35L102.41 267.82ZM91.55 264.35L88.98 252.57L78.12 249.10L69.82 257.42L72.39 269.20L83.25 272.66ZM227.92 99.27L225.37 87.45L214.47 83.96L206.12 92.30L208.68 104.12L219.58 107.60ZM208.68 104.12L206.12 92.30L195.22 88.81L186.88 97.15L189.44 108.97L200.33 112.45ZM233.72 79.11L231.17 67.29L220.26 63.80L211.91 72.14L214.47 83.96L225.37 87.45ZM214.47 83.96L211.91 72.14L201.01 68.66L192.66 77.00L195.22 88.81L206.12 92.30ZM241.38 114.58L238.83 102.76L227.92 99.27L219.58 107.60L222.13 119.42L233.03 122.91ZM222.13 119.42L219.58 107.60L208.68 104.12L200.33 112.45L202.89 124.26L213.79 127.75ZM247.18 94.43L244.63 82.60L233.72 79.11L225.37 87.45L227.92 99.27L238.83 102.76ZM175.98 93.67L173.42 81.86L162.52 78.38L154.19 86.72L156.75 98.53L167.64 102.01ZM156.75 98.53L154.19 86.72L143.29 83.24L134.96 91.59L137.52 103.40L148.42 106.87ZM181.76 73.52L179.20 61.70L168.30 58.22L159.96 66.56L162.52 78.38L173.42 81.86ZM162.52 78.38L159.96 66.56L149.06 63.09L140.72 71.43L143.29 83.24L154.19 86.72ZM189.44 108.97L186.88 97.15L175.98 93.67L167.64 102.01L170.20 113.82L181.10 117.30ZM170.20 113.82L167.64 102.01L156.75 98.53L148.42 106.87L150.98 118.68L161.87 122.15ZM195.22 88.81L192.66 77.00L181.76 73.52L173.42 81.86L175.98 93.67L186.88 97.15ZM258.80 54.10L256.25 42.27L245.33 38.78L236.97 47.12L239.53 58.95L250.44 62.44ZM239.53 58.95L236.97 47.12L226.06 43.63L217.71 51.98L220.26 63.80L231.17 67.29ZM264.61 33.93L262.06 22.10L251.14 18.60L242.78 26.95L245.33 38.78L256.25 42.27ZM245.33 38.78L242.78 26.95L231.86 23.46L223.51 31.80L226.06 43.63L236.97 47.12ZM272.26 69.43L269.71 57.60L258.80 54.10L250.44 62.44L252.99 74.27L263.90 77.76ZM252.99 74.27L250.44 62.44L239.53 58.95L231.17 67.29L233.72 79.11L244.63 82.60ZM206.80 48.49L204.24 36.67L193.33 33.18L184.98 41.53L187.54 53.35L198.45 56.83ZM187.54 53.35L184.98 41.53L174.08 38.05L165.73 46.40L168.30 58.22L179.20 61.70ZM212.59 28.32L210.04 16.49L199.12 13.01L190.77 21.36L193.33 33.18L204.24 36.67ZM193.33 33.18L190.77 21.36L179.86 17.88L171.51 26.23L174.08 38.05L184.98 41.53ZM220.26 63.80L217.71 51.98L206.80 48.49L198.45 56.83L201.01 68.66L211.91 72.14ZM201.01 68.66L198.45 56.83L187.54 53.35L179.20 61.70L181.76 73.52L192.66 77.00ZM226.06 43.63L223.51 31.80L212.59 28.32L204.24 36.67L206.80 48.49L217.71 51.98ZM249.03 150.03L246.48 138.22L235.58 134.73L227.23 143.05L229.78 154.86L240.68 158.36ZM229.78 154.86L227.23 143.05L216.34 139.56L208.00 147.89L210.55 159.70L221.44 163.19ZM254.83 129.89L252.28 118.07L241.38 114.58L233.03 122.91L235.58 134.73L246.48 138.22ZM235.58 134.73L233.03 122.91L222.13 119.42L213.79 127.75L216.34 139.56L227.23 143.05ZM243.23 170.17L240.68 158.36L229.78 154.86L221.44 163.19L223.99 175.00L234.88 178.49ZM197.11 144.40L194.55 132.59L183.66 129.11L175.32 137.44L177.88 149.25L188.77 152.73ZM177.88 149.25L175.32 137.44L164.43 133.96L156.10 142.29L158.66 154.10L169.55 157.57ZM202.89 124.26L200.33 112.45L189.44 108.97L181.10 117.30L183.66 129.11L194.55 132.59ZM183.66 129.11L181.10 117.30L170.20 113.82L161.87 122.15L164.43 133.96L175.32 137.44ZM210.55 159.70L208.00 147.89L197.11 144.40L188.77 152.73L191.33 164.54L202.22 168.02ZM191.33 164.54L188.77 152.73L177.88 149.25L169.55 157.57L172.11 169.38L183.00 172.86ZM216.34 139.56L213.79 127.75L202.89 124.26L194.55 132.59L197.11 144.40L208.00 147.89ZM260.63 109.75L258.09 97.92L247.18 94.43L238.83 102.76L241.38 114.58L252.28 118.07ZM266.44 89.59L263.90 77.76L252.99 74.27L244.63 82.60L247.18 94.43L258.09 97.92Z"/><path data-band="3" fill="#dc2626" fill-opacity="0.35" d="M3.18 137.55L0.59 125.76L-10.28 122.32L-18.57 130.66L-15.99 142.45L-5.12 145.89ZM8.89 117.42L6.30 105.63L-4.57 102.18L-12.87 110.53L-10.28 122.32L0.59 125.76ZM5.21 193.02L2.63 181.24L-8.24 177.79L-16.52 186.13L-13.94 197.90L-3.07 201.35ZM4.82 6.31L2.23 -5.49L-8.67 -8.94L-16.97 -0.57L-14.38 11.24L-3.49 14.68ZM12.57 41.73L9.99 29.93L-0.90 26.48L-9.21 34.84L-6.62 46.64L4.27 50.09ZM18.29 21.57L15.71 9.76L4.82 6.31L-3.49 14.68L-0.90 26.48L9.99 29.93ZM43.24 -3.52L40.65 -15.33L29.75 -18.78L21.44 -10.41L24.02 1.40L34.92 4.85ZM24.02 1.40L21.44 -10.41L10.54 -13.86L2.23 -5.49L4.82 6.31L15.71 9.76ZM20.32 77.13L17.74 65.33L6.85 61.89L-1.45 70.24L1.14 82.04L12.02 85.48ZM1.14 82.04L-1.45 70.24L-12.33 66.80L-20.63 75.15L-18.04 86.94L-7.16 90.39ZM26.04 56.98L23.46 45.18L12.57 41.73L4.27 50.09L6.85 61.89L17.74 65.33ZM6.85 61.89L4.27 50.09L-6.62 46.64L-14.92 55.00L-12.33 66.80L-1.45 70.24ZM14.60 97.28L12.02 85.48L1.14 82.04L-7.16 90.39L-4.57 102.18L6.30 105.63ZM31.77 36.82L29.19 25.02L18.29 21.57L9.99 29.93L12.57 41.73L23.46 45.18ZM37.50 16.66L34.92 4.85L24.02 1.40L15.71 9.76L18.29 21.57L29.19 25.02Z"/></svg>
