<svg xmlns="http://www.w3.org/2000/svg" width="256" height="256" viewBox="0 0 256 256"><path data-band="1" fill="#fde68a" fill-opacity="0.35" d="M32.01 254.48L29.47 242.86L18.77 239.38L10.61 247.52L13.15 259.14L23.84 262.62ZM13.15 259.14L10.61 247.52L-0.08 244.04L-8.24 252.18L-5.70 263.80L4.99 267.28ZM37.63 234.72L35.10 223.10L24.39 219.62L16.23 227.76L18.77 239.38L29.47 242.86ZM18.77 239.38L16.23 227.76L5.53 224.28L-2.62 232.43L-0.08 244.04L10.61 247.52ZM45.24 269.59L42.70 257.97L32.01 254.48L23.84 262.62L26.38 274.24L37.07 277.72ZM50.87 249.83L48.33 238.21L37.63 234.72L29.47 242.86L32.01 254.48L42.70 257.97ZM173.69 127.68L171.17 116.02L160.44 112.52L152.23 120.67L154.76 132.33L165.48 135.83ZM154.76 132.33L152.23 120.67L141.50 117.17L133.30 125.33L135.83 136.98L146.55 140.48ZM179.38 107.87L176.86 96.21L166.13 92.71L157.91 100.86L160.44 112.52L171.17 116.02ZM160.44 112.52L157.91 100.86L147.18 97.36L138.97 105.52L141.50 117.17L152.23 120.67ZM186.94 142.84L184.42 131.18L173.69 127.68L165.48 135.83L168.01 147.48L178.73 150.99ZM168.01 147.48L165.48 135.83L154.76 132.33L146.55 140.48L149.08 152.13L159.80 155.63ZM192.64 123.03L190.12 111.38L179.38 107.87L171.17 116.02L173.69 127.68L184.42 131.18ZM122.57 121.83L120.04 110.18L109.31 106.69L101.12 114.84L103.65 126.49L114.37 129.99ZM103.65 126.49L101.12 114.84L90.39 111.35L82.20 119.51L84.74 131.16L95.46 134.65ZM128.24 102.02L125.72 90.37L114.98 86.87L106.78 95.03L109.31 106.69L120.04 110.18ZM109.31 106.69L106.78 95.03L96.05 91.54L87.86 99.71L90.39 111.35L101.12 114.84ZM135.83 136.98L133.30 125.33L122.57 121.83L114.37 129.99L116.90 141.63L127.63 145.13ZM116.90 141.63L114.37 129.99L103.65 126.49L95.46 134.65L97.99 146.29L108.71 149.78ZM141.50 117.17L138.97 105.52L128.24 102.02L120.04 110.18L122.57 121.83L133.30 125.33ZM204.04 83.40L201.52 71.74L190.78 68.23L182.56 76.39L185.08 88.05L195.82 91.56ZM185.08 88.05L182.56 76.39L171.82 72.89L163.60 81.05L166.13 92.71L176.86 96.21ZM209.74 63.58L207.22 51.91L196.48 48.40L188.25 56.56L190.78 68.23L201.52 71.74ZM190.78 68.23L188.25 56.56L177.51 53.06L169.29 61.22L171.82 72.89L182.56 76.39ZM217.30 98.58L214.78 86.91L204.04 83.40L195.82 91.56L198.34 103.22L209.07 106.73ZM198.34 103.22L195.82 91.56L185.08 88.05L176.86 96.21L179.38 107.87L190.12 111.38ZM223.00 78.76L220.49 67.09L209.74 63.58L201.52 71.74L204.04 83.40L214.78 86.91ZM152.86 77.55L150.34 65.88L139.60 62.39L131.39 70.55L133.92 82.21L144.65 85.71ZM133.92 82.21L131.39 70.55L120.66 67.05L112.45 75.22L114.98 86.87L125.72 90.37ZM158.55 57.72L156.02 46.06L145.28 42.56L137.07 50.72L139.60 62.39L150.34 65.88ZM139.60 62.39L137.07 50.72L126.33 47.23L118.12 55.40L120.66 67.05L131.39 70.55ZM166.13 92.71L163.60 81.05L152.86 77.55L144.65 85.71L147.18 97.36L157.91 100.86ZM147.18 97.36L144.65 85.71L133.92 82.21L125.72 90.37L128.24 102.02L138.97 105.52ZM171.82 72.89L169.29 61.22L158.55 57.72L150.34 65.88L152.86 77.55L163.60 81.05ZM194.50 177.80L191.98 166.15L181.25 162.64L173.05 170.78L175.57 182.43L186.29 185.94ZM175.57 182.43L173.05 170.78L162.32 167.28L154.12 175.42L156.64 187.07L167.36 190.57ZM200.19 158.00L197.67 146.35L186.94 142.84L178.73 150.99L181.25 162.64L191.98 166.15ZM181.25 162.64L178.73 150.99L168.01 147.48L159.80 155.63L162.32 167.28L173.05 170.78ZM207.74 192.96L205.22 181.31L194.50 177.80L186.29 185.94L188.81 197.58L199.53 201.09ZM188.81 197.58L186.29 185.94L175.57 182.43L167.36 190.57L169.88 202.21L180.60 205.72ZM213.44 173.17L210.92 161.51L200.19 158.00L191.98 166.15L194.50 177.80L205.22 181.31ZM143.40 171.92L140.88 160.27L130.15 156.77L121.96 164.92L124.48 176.56L135.20 180.06ZM124.48 176.56L121.96 164.92L111.24 161.43L103.05 169.57L105.58 181.21L116.29 184.71ZM149.08 152.13L146.55 140.48L135.83 136.98L127.63 145.13L130.15 156.77L140.88 160.27ZM130.15 156.77L127.63 145.13L116.90 141.63L108.71 149.78L111.24 161.43L121.96 164.92ZM156.64 187.07L154.12 175.42L143.40 171.92L135.20 180.06L137.73 191.70L148.45 195.21ZM137.73 191.70L135.20 180.06L124.48 176.56L116.29 184.71L118.82 196.35L129.54 199.85ZM162.32 167.28L159.80 155.63L149.08 152.13L140.88 160.27L143.40 171.92L154.12 175.42ZM224.84 133.57L222.33 121.91L211.59 118.39L203.37 126.54L205.89 138.20L216.62 141.71ZM205.89 138.20L203.37 126.54L192.64 123.03L184.42 131.18L186.94 142.84L197.67 146.35ZM230.55 113.76L228.04 102.09L217.30 98.58L209.07 106.73L211.59 118.39L222.33 121.91ZM211.59 118.39L209.07 106.73L198.34 103.22L190.12 111.38L192.64 123.03L203.37 126.54ZM238.09 148.74L235.58 137.08L224.84 133.57L216.62 141.71L219.14 153.37L229.87 156.89ZM219.14 153.37L216.62 141.71L205.89 138.20L197.67 146.35L200.19 158.00L210.92 161.51ZM243.80 128.94L241.29 117.27L230.55 113.76L222.33 121.91L224.84 133.57L235.58 137.08ZM41.29 160.29L38.75 148.65L28.04 145.17L19.87 153.33L22.41 164.96L33.12 168.44ZM22.41 164.96L19.87 153.33L9.15 149.85L0.99 158.01L3.53 169.64L14.24 173.11ZM46.93 140.50L44.39 128.86L33.67 125.38L25.50 133.54L28.04 145.17L38.75 148.65ZM28.04 145.17L25.50 133.54L14.78 130.06L6.61 138.22L9.15 149.85L19.87 153.33ZM54.54 175.40L52.00 163.77L41.29 160.29L33.12 168.44L35.65 180.07L46.36 183.55ZM35.65 180.07L33.12 168.44L22.41 164.96L14.24 173.11L16.78 184.74L27.48 188.22ZM60.18 155.62L57.65 143.98L46.93 140.50L38.75 148.65L41.29 160.29L52.00 163.77ZM3.53 169.64L0.99 158.01L-9.72 154.53L-17.88 162.69L-15.34 174.32L-4.63 177.79ZM9.15 149.85L6.61 138.22L-4.10 134.74L-12.27 142.90L-9.72 154.53L0.99 158.01ZM71.48 116.02L68.94 104.38L58.22 100.89L50.03 109.06L52.57 120.70L63.29 124.18ZM52.57 120.70L50.03 109.06L39.31 105.58L31.13 113.74L33.67 125.38L44.39 128.86ZM77.13 96.22L74.60 84.57L63.87 81.08L55.68 89.25L58.22 100.89L68.94 104.38ZM58.22 100.89L55.68 89.25L44.96 85.77L36.77 93.93L39.31 105.58L50.03 109.06ZM84.74 131.16L82.20 119.51L71.48 116.02L63.29 124.18L65.83 135.82L76.55 139.31ZM65.83 135.82L63.29 124.18L52.57 120.70L44.39 128.86L46.93 140.50L57.65 143.98ZM90.39 111.35L87.86 99.71L77.13 96.22L68.94 104.38L71.48 116.02L82.20 119.51ZM20.41 110.26L17.87 98.62L7.15 95.14L-1.02 103.31L1.52 114.95L12.24 118.42ZM1.52 114.95L-1.02 103.31L-11.74 99.84L-19.91 108.01L-17.36 119.64L-6.65 123.11ZM26.05 90.45L23.51 78.81L12.78 75.33L4.61 83.50L7.15 95.14L17.87 98.62ZM7.15 95.14L4.61 83.50L-6.12 80.03L-14.29 88.20L-11.74 99.84L-1.02 103.31ZM33.67 125.38L31.13 113.74L20.41 110.26L12.24 118.42L14.78 130.06L25.50 133.54ZM14.78 130.06L12.24 118.42L1.52 114.95L-6.65 123.11L-4.10 134.74L6.61 138.22ZM39.31 105.58L36.77 93.93L26.05 90.45L17.87 98.62L20.41 110.26L31.13 113.74ZM62.14 210.30L59.61 198.67L48.90 195.18L40.73 203.33L43.26 214.96L53.97 218.44ZM43.26 214.96L40.73 203.33L30.02 199.85L21.86 207.99L24.39 219.62L35.10 223.10ZM67.78 190.52L65.25 178.89L54.54 175.40L46.36 183.55L48.90 195.18L59.61 198.67ZM48.90 195.18L46.36 183.55L35.65 180.07L27.48 188.22L30.02 199.85L40.73 203.33ZM75.38 225.42L72.85 213.79L62.14 210.30L53.97 218.44L56.50 230.07L67.21 233.56ZM56.50 230.07L53.97 218.44L43.26 214.96L35.10 223.10L37.63 234.72L48.33 238.21ZM81.03 205.65L78.50 194.01L67.78 190.52L59.61 198.67L62.14 210.30L72.85 213.79ZM11.15 204.52L8.61 192.89L-2.09 189.42L-10.25 197.57L-7.71 209.19L2.99 212.66ZM16.78 184.74L14.24 173.11L3.53 169.64L-4.63 177.79L-2.09 189.42L8.61 192.89ZM24.39 219.62L21.86 207.99L11.15 204.52L2.99 212.66L5.53 224.28L16.23 227.76ZM5.53 224.28L2.99 212.66L-7.71 209.19L-15.86 217.33L-13.32 228.95L-2.62 232.43ZM30.02 199.85L27.48 188.22L16.78 184.74L8.61 192.89L11.15 204.52L21.86 207.99ZM92.33 166.08L89.80 154.44L79.08 150.95L70.90 159.10L73.43 170.74L84.15 174.23ZM73.43 170.74L70.90 159.10L60.18 155.62L52.00 163.77L54.54 175.40L65.25 178.89ZM97.99 146.29L95.46 134.65L84.74 131.16L76.55 139.31L79.08 150.95L89.80 154.44ZM79.08 150.95L76.55 139.31L65.83 135.82L57.65 143.98L60.18 155.62L70.90 159.10ZM105.58 181.21L103.05 169.57L92.33 166.08L84.15 174.23L86.68 185.87L97.39 189.36ZM86.68 185.87L84.15 174.23L73.43 170.74L65.25 178.89L67.78 190.52L78.50 194.01ZM111.24 161.43L108.71 149.78L97.99 146.29L89.80 154.44L92.33 166.08L103.05 169.57ZM194.62 -6.46L192.09 -18.14L181.34 -21.65L173.11 -13.47L175.63 -1.79L186.39 1.71ZM226.88 4.06L224.36 -7.62L213.61 -11.13L205.37 -2.96L207.89 8.72L218.65 12.23ZM207.89 8.72L205.37 -2.96L194.62 -6.46L186.39 1.71L188.91 13.38L199.66 16.89ZM175.63 -1.79L173.11 -13.47L162.36 -16.97L154.13 -8.79L156.66 2.88L167.41 6.38ZM156.66 2.88L154.13 -8.79L143.38 -12.29L135.16 -4.11L137.69 7.56L148.44 11.05ZM234.43 39.10L231.92 27.42L221.16 23.91L212.93 32.07L215.45 43.75L226.20 47.26ZM215.45 43.75L212.93 32.07L202.18 28.56L193.96 36.73L196.48 48.40L207.22 51.91ZM240.15 19.26L237.64 7.57L226.88 4.06L218.65 12.23L221.16 23.91L231.92 27.42ZM221.16 23.91L218.65 12.23L207.89 8.72L199.66 16.89L202.18 28.56L212.93 32.07ZM247.70 54.29L245.19 42.61L234.43 39.10L226.20 47.26L228.72 58.93L239.47 62.45ZM228.72 58.93L226.20 47.26L215.45 43.75L207.22 51.91L209.74 63.58L220.49 67.09ZM253.42 34.45L250.91 22.77L240.15 19.26L231.92 27.42L234.43 39.10L245.19 42.61ZM183.21 33.23L180.68 21.55L169.94 18.05L161.72 26.22L164.24 37.89L174.99 41.39ZM164.24 37.89L161.72 26.22L150.97 22.72L142.75 30.89L145.28 42.56L156.02 46.06ZM188.91 13.38L186.39 1.71L175.63 -1.79L167.41 6.38L169.94 18.05L180.68 21.55ZM169.94 18.05L167.41 6.38L156.66 2.88L148.44 11.05L150.97 22.72L161.72 26.22ZM196.48 48.40L193.96 36.73L183.21 33.23L174.99 41.39L177.51 53.06L188.25 56.56ZM177.51 53.06L174.99 41.39L164.24 37.89L156.02 46.06L158.55 57.72L169.29 61.22ZM202.18 28.56L199.66 16.89L188.91 13.38L180.68 21.55L183.21 33.23L193.96 36.73ZM264.88 -5.25L262.37 -16.93L251.61 -20.45L243.36 -12.28L245.88 -0.59L256.64 2.92ZM245.88 -0.59L243.36 -12.28L232.60 -15.79L224.36 -7.62L226.88 4.06L237.64 7.57ZM259.15 14.61L256.64 2.92L245.88 -0.59L237.64 7.57L240.15 19.26L250.91 22.77ZM80.84 21.61L78.30 9.95L67.56 6.46L59.37 14.64L61.91 26.30L72.64 29.78ZM61.91 26.30L59.37 14.64L48.63 11.16L40.44 19.34L42.98 30.99L53.71 34.47ZM86.51 1.77L83.97 -9.89L73.23 -13.38L65.02 -5.20L67.56 6.46L78.30 9.95ZM67.56 6.46L65.02 -5.20L54.28 -8.68L46.09 -0.50L48.63 11.16L59.37 14.64ZM94.12 36.76L91.58 25.09L80.84 21.61L72.64 29.78L75.18 41.44L85.92 44.93ZM75.18 41.44L72.64 29.78L61.91 26.30L53.71 34.47L56.25 46.13L66.98 49.61ZM99.79 16.92L97.25 5.26L86.51 1.77L78.30 9.95L80.84 21.61L91.58 25.09ZM29.70 15.86L27.16 4.21L16.42 0.73L8.23 8.91L10.78 20.57L21.51 24.04ZM10.78 20.57L8.23 8.91L-2.50 5.44L-10.68 13.63L-8.13 25.28L2.60 28.75ZM35.35 -3.97L32.80 -15.63L22.06 -19.11L13.87 -10.92L16.42 0.73L27.16 4.21ZM42.98 30.99L40.44 19.34L29.70 15.86L21.51 24.04L24.06 35.69L34.79 39.17ZM24.06 35.69L21.51 24.04L10.78 20.57L2.60 28.75L5.15 40.40L15.87 43.87ZM48.63 11.16L46.09 -0.50L35.35 -3.97L27.16 4.21L29.70 15.86L40.44 19.34ZM124.42 -7.61L121.88 -19.28L111.13 -22.77L102.92 -14.59L105.46 -2.92L116.20 0.57ZM105.46 -2.92L102.92 -14.59L92.18 -18.08L83.97 -9.89L86.51 1.77L97.25 5.26ZM101.72 71.73L99.19 60.07L88.45 56.58L80.25 64.75L82.79 76.40L93.52 79.89ZM82.79 76.40L80.25 64.75L69.52 61.27L61.33 69.43L63.87 81.08L74.60 84.57ZM107.39 51.90L104.85 40.24L94.12 36.76L85.92 44.93L88.45 56.58L99.19 60.07ZM88.45 56.58L85.92 44.93L75.18 41.44L66.98 49.61L69.52 61.27L80.25 64.75ZM114.98 86.87L112.45 75.22L101.72 71.73L93.52 79.89L96.05 91.54L106.78 95.03ZM96.05 91.54L93.52 79.89L82.79 76.40L74.60 84.57L77.13 96.22L87.86 99.71ZM120.66 67.05L118.12 55.40L107.39 51.90L99.19 60.07L101.72 71.73L112.45 75.22ZM50.60 65.95L48.06 54.30L37.33 50.82L29.15 58.99L31.69 70.64L42.41 74.12ZM31.69 70.64L29.15 58.99L18.42 55.52L10.24 63.69L12.78 75.33L23.51 78.81ZM56.25 46.13L53.71 34.47L42.98 30.99L34.79 39.17L37.33 50.82L48.06 54.30ZM37.33 50.82L34.79 39.17L24.06 35.69L15.87 43.87L18.42 55.52L29.15 58.99ZM63.87 81.08L61.33 69.43L50.60 65.95L42.41 74.12L44.96 85.77L55.68 89.25ZM44.96 85.77L42.41 74.12L31.69 70.64L23.51 78.81L26.05 90.45L36.77 93.93ZM69.52 61.27L66.98 49.61L56.25 46.13L48.06 54.30L50.60 65.95L61.33 69.43ZM132.01 27.40L129.48 15.73L118.74 12.24L110.53 20.41L113.06 32.07L123.80 35.57ZM113.06 32.07L110.53 20.41L99.79 16.92L91.58 25.09L94.12 36.76L104.85 40.24ZM137.69 7.56L135.16 -4.11L124.42 -7.61L116.20 0.57L118.74 12.24L129.48 15.73ZM118.74 12.24L116.20 0.57L105.46 -2.92L97.25 5.26L99.79 16.92L110.53 20.41ZM145.28 42.56L142.75 30.89L132.01 27.40L123.80 35.57L126.33 47.23L137.07 50.72ZM126.33 47.23L123.80 35.57L113.06 32.07L104.85 40.24L107.39 51.90L118.12 55.40ZM150.97 22.72L148.44 11.05L137.69 7.56L129.48 15.73L132.01 27.40L142.75 30.89ZM215.28 227.90L212.76 216.25L202.04 212.74L193.84 220.87L196.35 232.52L207.07 236.03ZM196.35 232.52L193.84 220.87L183.12 217.36L174.92 225.50L177.44 237.14L188.15 240.65ZM220.97 208.12L218.46 196.47L207.74 192.96L199.53 201.09L202.04 212.74L212.76 216.25ZM202.04 212.74L199.53 201.09L188.81 197.58L180.60 205.72L183.12 217.36L193.84 220.87ZM209.58 247.67L207.07 236.03L196.35 232.52L188.15 240.65L190.67 252.29L201.38 255.80ZM133.96 266.15L131.44 254.52L120.73 251.02L112.55 259.15L115.08 270.78L125.78 274.28ZM115.08 270.78L112.55 259.15L101.85 255.66L93.67 263.79L96.20 275.41L106.90 278.91ZM139.63 246.39L137.11 234.76L126.40 231.26L118.21 239.39L120.73 251.02L131.44 254.52ZM120.73 251.02L118.21 239.39L107.50 235.89L99.32 244.03L101.85 255.66L112.55 259.15ZM152.86 261.53L150.34 249.89L139.63 246.39L131.44 254.52L133.96 266.15L144.67 269.65ZM82.97 260.30L80.44 248.67L69.74 245.18L61.57 253.32L64.10 264.94L74.80 268.43ZM64.10 264.94L61.57 253.32L50.87 249.83L42.70 257.97L45.24 269.59L55.93 273.07ZM88.62 240.54L86.09 228.91L75.38 225.42L67.21 233.56L69.74 245.18L80.44 248.67ZM69.74 245.18L67.21 233.56L56.50 230.07L48.33 238.21L50.87 249.83L61.57 253.32ZM101.85 255.66L99.32 244.03L88.62 240.54L80.44 248.67L82.97 260.30L93.67 263.79ZM164.20 221.99L161.68 210.35L150.97 206.85L142.77 214.98L145.30 226.62L156.01 230.12ZM145.30 226.62L142.77 214.98L132.06 211.48L123.87 219.62L126.40 231.26L137.11 234.76ZM169.88 202.21L167.36 190.57L156.64 187.07L148.45 195.21L150.97 206.85L161.68 210.35ZM150.97 206.85L148.45 195.21L137.73 191.70L129.54 199.85L132.06 211.48L142.77 214.98ZM177.44 237.14L174.92 225.50L164.20 221.99L156.01 230.12L158.53 241.76L169.24 245.27ZM158.53 241.76L156.01 230.12L145.30 226.62L137.11 234.76L139.63 246.39L150.34 249.89ZM183.12 217.36L180.60 205.72L169.88 202.21L161.68 210.35L164.20 221.99L174.92 225.50ZM113.16 216.12L110.63 204.49L99.92 201.00L91.74 209.14L94.27 220.77L104.98 224.26ZM94.27 220.77L91.74 209.14L81.03 205.65L72.85 213.79L75.38 225.42L86.09 228.91ZM118.82 196.35L116.29 184.71L105.58 181.21L97.39 189.36L99.92 201.00L110.63 204.49ZM99.92 201.00L97.39 189.36L86.68 185.87L78.50 194.01L81.03 205.65L91.74 209.14ZM126.40 231.26L123.87 219.62L113.16 216.12L104.98 224.26L107.50 235.89L118.21 239.39ZM107.50 235.89L104.98 224.26L94.27 220.77L86.09 228.91L88.62 240.54L99.32 244.03ZM132.06 211.48L129.54 199.85L118.82 196.35L110.63 204.49L113.16 216.12L123.87 219.62ZM190.67 252.29L188.15 240.65L177.44 237.14L169.24 245.27L171.76 256.90L182.47 260.41ZM171.76 256.90L169.24 245.27L158.53 241.76L150.34 249.89L152.86 261.53L163.57 265.03ZM236.26 93.94L233.75 82.27L223.00 78.76L214.78 86.91L217.30 98.58L228.04 102.09ZM260.96 69.48L258.45 57.80L247.70 54.29L239.47 62.45L241.98 74.12L252.73 77.63ZM241.98 74.12L239.47 62.45L228.72 58.93L220.49 67.09L223.00 78.76L233.75 82.27ZM266.69 49.65L264.18 37.97L253.42 34.45L245.19 42.61L247.70 54.29L258.45 57.80ZM272.42 29.81L269.91 18.12L259.15 14.61L250.91 22.77L253.42 34.45L264.18 37.97ZM12.78 75.33L10.24 63.69L-0.49 60.22L-8.66 68.39L-6.12 80.03L4.61 83.50ZM18.42 55.52L15.87 43.87L5.15 40.40L-3.03 48.57L-0.49 60.22L10.24 63.69Z"/><path data-band="2" fill="#f97316" fill-opacity="0.35" d="M16.42 0.73L13.87 -10.92L3.14 -14.40L-5.05 -6.21L-2.50 5.44L8.23 8.91ZM5.15 40.40L2.60 28.75L-8.13 25.28L-16.31 33.46L-13.76 45.10L-3.03 48.57Z"/></svg>
