<svg xmlns="http://www.w3.org/2000/svg" width="256" height="256" viewBox="0 0 256 256"><path data-band="1" fill="#fde68a" fill-opacity="0.35" d="M135.90 248.08L133.39 236.49L122.72 232.98L114.57 241.07L117.08 252.66L127.75 256.17ZM117.08 252.66L114.57 241.07L103.90 237.57L95.75 245.66L98.27 257.25L108.93 260.75ZM141.55 228.40L139.03 216.80L128.36 213.30L120.20 221.39L122.72 232.98L133.39 236.49ZM122.72 232.98L120.20 221.39L109.53 217.89L101.38 225.98L103.90 237.57L114.57 241.07ZM149.08 263.18L146.57 251.59L135.90 248.08L127.75 256.17L130.26 267.76L140.93 271.27ZM130.26 267.76L127.75 256.17L117.08 252.66L108.93 260.75L111.45 272.34L122.11 275.84ZM147.20 208.71L144.68 197.11L134.01 193.60L125.85 201.70L128.36 213.30L139.03 216.80ZM152.85 189.01L150.34 177.41L139.66 173.90L131.49 182.00L134.01 193.60L144.68 197.11ZM175.50 110.16L172.99 98.54L162.29 95.03L154.11 103.14L156.63 114.76L167.32 118.27ZM156.63 114.76L154.11 103.14L143.42 99.63L135.24 107.75L137.76 119.36L148.45 122.86ZM181.17 90.43L178.66 78.80L167.96 75.29L159.78 83.41L162.29 95.03L172.99 98.54ZM162.29 95.03L159.78 83.41L149.08 79.90L140.90 88.02L143.42 99.63L154.11 103.14ZM169.83 129.88L167.32 118.27L156.63 114.76L148.45 122.86L150.97 134.48L161.65 137.99ZM186.85 70.69L184.33 59.06L173.63 55.55L165.44 63.67L167.96 75.29L178.66 78.80ZM192.52 50.94L190.01 39.31L179.31 35.80L171.12 43.92L173.63 55.55L184.33 59.06ZM200.06 85.83L197.55 74.20L186.85 70.69L178.66 78.80L181.17 90.43L191.87 93.94ZM5.92 151.68L3.38 140.09L-7.29 136.61L-15.42 144.72L-12.89 156.31L-2.22 159.79ZM11.52 131.97L8.99 120.38L-1.69 116.89L-9.82 125.01L-7.29 136.61L3.38 140.09ZM2.31 225.82L-0.22 214.24L-10.88 210.76L-19.00 218.86L-16.47 230.44L-5.81 233.92ZM13.52 186.45L10.98 174.86L0.32 171.38L-7.82 179.49L-5.28 191.07L5.38 194.55ZM19.12 166.75L16.59 155.16L5.92 151.68L-2.22 159.79L0.32 171.38L10.98 174.86ZM0.32 171.38L-2.22 159.79L-12.89 156.31L-21.02 164.42L-18.48 176.01L-7.82 179.49ZM26.71 201.52L24.18 189.94L13.52 186.45L5.38 194.55L7.91 206.14L18.58 209.62ZM7.91 206.14L5.38 194.55L-5.28 191.07L-13.41 199.18L-10.88 210.76L-0.22 214.24ZM32.32 181.83L29.79 170.24L19.12 166.75L10.98 174.86L13.52 186.45L24.18 189.94ZM1.92 42.63L-0.62 31.02L-11.31 27.55L-19.45 35.68L-16.91 47.29L-6.23 50.76ZM7.53 22.89L4.99 11.28L-5.70 7.80L-13.85 15.94L-11.31 27.55L-0.62 31.02ZM15.14 57.72L12.61 46.11L1.92 42.63L-6.23 50.76L-3.69 62.37L6.99 65.85ZM20.76 37.98L18.22 26.37L7.53 22.89L-0.62 31.02L1.92 42.63L12.61 46.11ZM32.01 -1.52L29.47 -13.14L18.77 -16.62L10.61 -8.48L13.15 3.14L23.84 6.62ZM13.15 3.14L10.61 -8.48L-0.08 -11.96L-8.24 -3.82L-5.70 7.80L4.99 11.28ZM45.24 13.59L42.70 1.97L32.01 -1.52L23.84 6.62L26.38 18.24L37.07 21.72ZM26.38 18.24L23.84 6.62L13.15 3.14L4.99 11.28L7.53 22.89L18.22 26.37ZM50.87 -6.17L48.33 -17.79L37.63 -21.28L29.47 -13.14L32.01 -1.52L42.70 1.97ZM22.75 92.54L20.21 80.93L9.53 77.45L1.38 85.58L3.92 97.18L14.60 100.66ZM3.92 97.18L1.38 85.58L-9.30 82.10L-17.44 90.22L-14.90 101.82L-4.22 105.30ZM28.36 72.81L25.83 61.20L15.14 57.72L6.99 65.85L9.53 77.45L20.21 80.93ZM9.53 77.45L6.99 65.85L-3.69 62.37L-11.83 70.49L-9.30 82.10L1.38 85.58ZM35.96 107.62L33.43 96.02L22.75 92.54L14.60 100.66L17.13 112.26L27.81 115.74ZM17.13 112.26L14.60 100.66L3.92 97.18L-4.22 105.30L-1.69 116.89L8.99 120.38ZM41.58 87.90L39.05 76.29L28.36 72.81L20.21 80.93L22.75 92.54L33.43 96.02ZM52.83 48.43L50.30 36.82L39.61 33.33L31.45 41.46L33.98 53.07L44.67 56.56ZM33.98 53.07L31.45 41.46L20.76 37.98L12.61 46.11L15.14 57.72L25.83 61.20ZM58.46 28.69L55.93 17.07L45.24 13.59L37.07 21.72L39.61 33.33L50.30 36.82ZM39.61 33.33L37.07 21.72L26.38 18.24L18.22 26.37L20.76 37.98L31.45 41.46ZM66.05 63.54L63.52 51.92L52.83 48.43L44.67 56.56L47.20 68.17L57.89 71.66ZM47.20 68.17L44.67 56.56L33.98 53.07L25.83 61.20L28.36 72.81L39.05 76.29ZM71.69 43.80L69.16 32.18L58.46 28.69L50.30 36.82L52.83 48.43L63.52 51.92ZM60.66 266.43L58.14 254.85L47.48 251.35L39.35 259.44L41.87 271.02L52.53 274.51ZM41.87 271.02L39.35 259.44L28.69 255.95L20.56 264.04L23.09 275.62L33.74 279.11ZM9.90 260.56L7.38 248.98L-3.28 245.50L-11.40 253.59L-8.87 265.17L1.78 268.65ZM85.08 242.16L82.56 230.57L71.90 227.08L63.76 235.17L66.28 246.75L76.94 250.25ZM66.28 246.75L63.76 235.17L53.09 231.68L44.95 239.77L47.48 251.35L58.14 254.85ZM90.71 222.48L88.19 210.89L77.52 207.39L69.38 215.49L71.90 227.08L82.56 230.57ZM71.90 227.08L69.38 215.49L58.71 211.99L50.57 220.09L53.09 231.68L63.76 235.17ZM98.27 257.25L95.75 245.66L85.08 242.16L76.94 250.25L79.46 261.84L90.12 265.33ZM79.46 261.84L76.94 250.25L66.28 246.75L58.14 254.85L60.66 266.43L71.32 269.92ZM103.90 237.57L101.38 225.98L90.71 222.48L82.56 230.57L85.08 242.16L95.75 245.66ZM34.29 236.28L31.77 224.70L21.11 221.21L12.97 229.31L15.50 240.89L26.16 244.37ZM15.50 240.89L12.97 229.31L2.31 225.82L-5.81 233.92L-3.28 245.50L7.38 248.98ZM39.90 216.60L37.38 205.01L26.71 201.52L18.58 209.62L21.11 221.21L31.77 224.70ZM21.11 221.21L18.58 209.62L7.91 206.14L-0.22 214.24L2.31 225.82L12.97 229.31ZM47.48 251.35L44.95 239.77L34.29 236.28L26.16 244.37L28.69 255.95L39.35 259.44ZM28.69 255.95L26.16 244.37L15.50 240.89L7.38 248.98L9.90 260.56L20.56 264.04ZM53.09 231.68L50.57 220.09L39.90 216.60L31.77 224.70L34.29 236.28L44.95 239.77ZM94.42 148.29L91.89 136.68L81.21 133.19L73.06 141.30L75.58 152.90L86.26 156.40ZM75.58 152.90L73.06 141.30L62.38 137.81L54.23 145.92L56.75 157.51L67.43 161.01ZM100.05 128.58L97.53 116.97L86.85 113.47L78.69 121.58L81.21 133.19L91.89 136.68ZM81.21 133.19L78.69 121.58L68.00 118.09L59.85 126.20L62.38 137.81L73.06 141.30ZM107.62 163.39L105.10 151.79L94.42 148.29L86.26 156.40L88.78 168.00L99.46 171.49ZM88.78 168.00L86.26 156.40L75.58 152.90L67.43 161.01L69.95 172.60L80.63 176.10ZM113.26 143.68L110.74 132.07L100.05 128.58L91.89 136.68L94.42 148.29L105.10 151.79ZM43.55 142.43L41.02 130.83L30.34 127.34L22.20 135.46L24.73 147.05L35.40 150.54ZM24.73 147.05L22.20 135.46L11.52 131.97L3.38 140.09L5.92 151.68L16.59 155.16ZM49.17 122.71L46.64 111.11L35.96 107.62L27.81 115.74L30.34 127.34L41.02 130.83ZM30.34 127.34L27.81 115.74L17.13 112.26L8.99 120.38L11.52 131.97L22.20 135.46ZM56.75 157.51L54.23 145.92L43.55 142.43L35.40 150.54L37.93 162.13L48.61 165.62ZM37.93 162.13L35.40 150.54L24.73 147.05L16.59 155.16L19.12 166.75L29.79 170.24ZM62.38 137.81L59.85 126.20L49.17 122.71L41.02 130.83L43.55 142.43L54.23 145.92ZM124.55 104.24L122.03 92.63L111.34 89.13L103.17 97.24L105.70 108.86L116.38 112.35ZM105.70 108.86L103.17 97.24L92.49 93.75L84.32 101.86L86.85 113.47L97.53 116.97ZM130.21 84.51L127.69 72.89L116.99 69.39L108.82 77.51L111.34 89.13L122.03 92.63ZM111.34 89.13L108.82 77.51L98.13 74.02L89.96 82.13L92.49 93.75L103.17 97.24ZM137.76 119.36L135.24 107.75L124.55 104.24L116.38 112.35L118.90 123.97L129.59 127.47ZM118.90 123.97L116.38 112.35L105.70 108.86L97.53 116.97L100.05 128.58L110.74 132.07ZM143.42 99.63L140.90 88.02L130.21 84.51L122.03 92.63L124.55 104.24L135.24 107.75ZM73.64 98.37L71.11 86.76L60.42 83.27L52.27 91.39L54.79 103.00L65.48 106.49ZM54.79 103.00L52.27 91.39L41.58 87.90L33.43 96.02L35.96 107.62L46.64 111.11ZM79.27 78.64L76.74 67.03L66.05 63.54L57.89 71.66L60.42 83.27L71.11 86.76ZM60.42 83.27L57.89 71.66L47.20 68.17L39.05 76.29L41.58 87.90L52.27 91.39ZM86.85 113.47L84.32 101.86L73.64 98.37L65.48 106.49L68.00 118.09L78.69 121.58ZM68.00 118.09L65.48 106.49L54.79 103.00L46.64 111.11L49.17 122.71L59.85 126.20ZM92.49 93.75L89.96 82.13L79.27 78.64L71.11 86.76L73.64 98.37L84.32 101.86ZM115.17 198.19L112.65 186.59L101.98 183.09L93.82 191.19L96.34 202.79L107.01 206.29ZM96.34 202.79L93.82 191.19L83.15 187.70L75.00 195.80L77.52 207.39L88.19 210.89ZM120.81 178.50L118.30 166.89L107.62 163.39L99.46 171.49L101.98 183.09L112.65 186.59ZM101.98 183.09L99.46 171.49L88.78 168.00L80.63 176.10L83.15 187.70L93.82 191.19ZM128.36 213.30L125.85 201.70L115.17 198.19L107.01 206.29L109.53 217.89L120.20 221.39ZM109.53 217.89L107.01 206.29L96.34 202.79L88.19 210.89L90.71 222.48L101.38 225.98ZM134.01 193.60L131.49 182.00L120.81 178.50L112.65 186.59L115.17 198.19L125.85 201.70ZM64.33 192.30L61.80 180.71L51.13 177.22L42.99 185.32L45.52 196.91L56.18 200.40ZM45.52 196.91L42.99 185.32L32.32 181.83L24.18 189.94L26.71 201.52L37.38 205.01ZM69.95 172.60L67.43 161.01L56.75 157.51L48.61 165.62L51.13 177.22L61.80 180.71ZM51.13 177.22L48.61 165.62L37.93 162.13L29.79 170.24L32.32 181.83L42.99 185.32ZM77.52 207.39L75.00 195.80L64.33 192.30L56.18 200.40L58.71 211.99L69.38 215.49ZM58.71 211.99L56.18 200.40L45.52 196.91L37.38 205.01L39.90 216.60L50.57 220.09ZM83.15 187.70L80.63 176.10L69.95 172.60L61.80 180.71L64.33 192.30L75.00 195.80ZM145.31 154.19L142.79 142.58L132.11 139.08L123.94 147.18L126.46 158.79L137.14 162.29ZM126.46 158.79L123.94 147.18L113.26 143.68L105.10 151.79L107.62 163.39L118.30 166.89ZM150.97 134.48L148.45 122.86L137.76 119.36L129.59 127.47L132.11 139.08L142.79 142.58ZM132.11 139.08L129.59 127.47L118.90 123.97L110.74 132.07L113.26 143.68L123.94 147.18ZM158.51 169.31L155.99 157.70L145.31 154.19L137.14 162.29L139.66 173.90L150.34 177.41ZM139.66 173.90L137.14 162.29L126.46 158.79L118.30 166.89L120.81 178.50L131.49 182.00ZM164.17 149.60L161.65 137.99L150.97 134.48L142.79 142.58L145.31 154.19L155.99 157.70ZM133.96 10.15L131.44 -1.48L120.73 -4.98L112.55 3.15L115.08 14.78L125.78 18.28ZM115.08 14.78L112.55 3.15L101.85 -0.34L93.67 7.79L96.20 19.41L106.90 22.91ZM120.73 -4.98L118.21 -16.61L107.50 -20.11L99.32 -11.97L101.85 -0.34L112.55 3.15ZM147.19 25.28L144.67 13.65L133.96 10.15L125.78 18.28L128.30 29.91L139.00 33.41ZM128.30 29.91L125.78 18.28L115.08 14.78L106.90 22.91L109.42 34.53L120.12 38.03ZM152.86 5.53L150.34 -6.11L139.63 -9.61L131.44 -1.48L133.96 10.15L144.67 13.65ZM82.97 4.30L80.44 -7.33L69.74 -10.82L61.57 -2.68L64.10 8.94L74.80 12.43ZM64.10 8.94L61.57 -2.68L50.87 -6.17L42.70 1.97L45.24 13.59L55.93 17.07ZM96.20 19.41L93.67 7.79L82.97 4.30L74.80 12.43L77.33 24.05L88.03 27.54ZM77.33 24.05L74.80 12.43L64.10 8.94L55.93 17.07L58.46 28.69L69.16 32.18ZM101.85 -0.34L99.32 -11.97L88.62 -15.46L80.44 -7.33L82.97 4.30L93.67 7.79ZM154.74 60.16L152.23 48.54L141.52 45.03L133.34 53.15L135.86 64.78L146.56 68.28ZM135.86 64.78L133.34 53.15L122.65 49.65L114.47 57.78L116.99 69.39L127.69 72.89ZM160.41 40.42L157.89 28.79L147.19 25.28L139.00 33.41L141.52 45.03L152.23 48.54ZM141.52 45.03L139.00 33.41L128.30 29.91L120.12 38.03L122.65 49.65L133.34 53.15ZM167.96 75.29L165.44 63.67L154.74 60.16L146.56 68.28L149.08 79.90L159.78 83.41ZM149.08 79.90L146.56 68.28L135.86 64.78L127.69 72.89L130.21 84.51L140.90 88.02ZM173.63 55.55L171.12 43.92L160.41 40.42L152.23 48.54L154.74 60.16L165.44 63.67ZM103.77 54.28L101.25 42.66L90.55 39.16L82.38 47.29L84.91 58.91L95.60 62.40ZM84.91 58.91L82.38 47.29L71.69 43.80L63.52 51.92L66.05 63.54L76.74 67.03ZM109.42 34.53L106.90 22.91L96.20 19.41L88.03 27.54L90.55 39.16L101.25 42.66ZM90.55 39.16L88.03 27.54L77.33 24.05L69.16 32.18L71.69 43.80L82.38 47.29ZM116.99 69.39L114.47 57.78L103.77 54.28L95.60 62.40L98.13 74.02L108.82 77.51ZM98.13 74.02L95.60 62.40L84.91 58.91L76.74 67.03L79.27 78.64L89.96 82.13ZM122.65 49.65L120.12 38.03L109.42 34.53L101.25 42.66L103.77 54.28L114.47 57.78ZM184.98 16.05L182.47 4.41L171.76 0.90L163.57 9.03L166.08 20.66L176.79 24.17ZM166.08 20.66L163.57 9.03L152.86 5.53L144.67 13.65L147.19 25.28L157.89 28.79ZM190.67 -3.71L188.15 -15.35L177.44 -18.86L169.24 -10.73L171.76 0.90L182.47 4.41ZM171.76 0.90L169.24 -10.73L158.53 -14.24L150.34 -6.11L152.86 5.53L163.57 9.03ZM198.21 31.19L195.69 19.56L184.98 16.05L176.79 24.17L179.31 35.80L190.01 39.31ZM179.31 35.80L176.79 24.17L166.08 20.66L157.89 28.79L160.41 40.42L171.12 43.92Z"/></svg>
