<svg xmlns="http://www.w3.org/2000/svg" width="256" height="256" viewBox="0 0 256 256"><path data-band="1" fill="#fde68a" fill-opacity="0.35" d="M135.90 -7.92L133.39 -19.51L122.72 -23.02L114.57 -14.93L117.08 -3.34L127.75 0.17ZM117.08 -3.34L114.57 -14.93L103.90 -18.43L95.75 -10.34L98.27 1.25L108.93 4.75ZM149.08 7.18L146.57 -4.41L135.90 -7.92L127.75 0.17L130.26 11.76L140.93 15.27ZM130.26 11.76L127.75 0.17L117.08 -3.34L108.93 4.75L111.45 16.34L122.11 19.84ZM55.05 30.09L52.53 18.51L41.87 15.02L33.74 23.11L36.26 34.69L46.92 38.18ZM36.26 34.69L33.74 23.11L23.09 19.62L14.96 27.71L17.49 39.28L28.14 42.77ZM60.66 10.43L58.14 -1.15L47.48 -4.65L39.35 3.44L41.87 15.02L52.53 18.51ZM41.87 15.02L39.35 3.44L28.69 -0.05L20.56 8.04L23.09 19.62L33.74 23.11ZM68.22 45.17L65.70 33.59L55.05 30.09L46.92 38.18L49.44 49.75L60.09 53.25ZM49.44 49.75L46.92 38.18L36.26 34.69L28.14 42.77L30.66 54.34L41.31 57.83ZM73.84 25.50L71.32 13.92L60.66 10.43L52.53 18.51L55.05 30.09L65.70 33.59ZM4.31 24.22L1.78 12.65L-8.87 9.17L-16.99 17.26L-14.46 28.83L-3.81 32.31ZM9.90 4.56L7.38 -7.02L-3.28 -10.50L-11.40 -2.41L-8.87 9.17L1.78 12.65ZM17.49 39.28L14.96 27.71L4.31 24.22L-3.81 32.31L-1.28 43.88L9.37 47.37ZM23.09 19.62L20.56 8.04L9.90 4.56L1.78 12.65L4.31 24.22L14.96 27.71ZM98.27 1.25L95.75 -10.34L85.08 -13.84L76.94 -5.75L79.46 5.84L90.12 9.33ZM79.46 5.84L76.94 -5.75L66.28 -9.25L58.14 -1.15L60.66 10.43L71.32 13.92ZM47.48 -4.65L44.95 -16.23L34.29 -19.72L26.16 -11.63L28.69 -0.05L39.35 3.44ZM28.69 -0.05L26.16 -11.63L15.50 -15.11L7.38 -7.02L9.90 4.56L20.56 8.04ZM75.78 79.89L73.26 68.32L62.61 64.82L54.48 72.90L57.00 84.47L67.65 87.96ZM57.00 84.47L54.48 72.90L43.83 69.40L35.71 77.48L38.23 89.05L48.88 92.54ZM81.40 60.24L78.88 48.66L68.22 45.17L60.09 53.25L62.61 64.82L73.26 68.32ZM62.61 64.82L60.09 53.25L49.44 49.75L41.31 57.83L43.83 69.40L54.48 72.90ZM88.94 94.96L86.43 83.39L75.78 79.89L67.65 87.96L70.17 99.53L80.81 103.03ZM70.17 99.53L67.65 87.96L57.00 84.47L48.88 92.54L51.40 104.11L62.04 107.61ZM94.56 75.32L92.05 63.74L81.40 60.24L73.26 68.32L75.78 79.89L86.43 83.39ZM25.06 73.99L22.54 62.42L11.89 58.94L3.77 67.02L6.30 78.58L16.94 82.07ZM6.30 78.58L3.77 67.02L-6.87 63.53L-14.98 71.61L-12.45 83.18L-1.81 86.66ZM30.66 54.34L28.14 42.77L17.49 39.28L9.37 47.37L11.89 58.94L22.54 62.42ZM11.89 58.94L9.37 47.37L-1.28 43.88L-9.40 51.97L-6.87 63.53L3.77 67.02ZM38.23 89.05L35.71 77.48L25.06 73.99L16.94 82.07L19.47 93.63L30.11 97.12ZM19.47 93.63L16.94 82.07L6.30 78.58L-1.81 86.66L0.71 98.22L11.35 101.71ZM43.83 69.40L41.31 57.83L30.66 54.34L22.54 62.42L25.06 73.99L35.71 77.48ZM105.81 36.00L103.30 24.42L92.64 20.92L84.50 29.00L87.02 40.58L97.67 44.08ZM87.02 40.58L84.50 29.00L73.84 25.50L65.70 33.59L68.22 45.17L78.88 48.66ZM111.45 16.34L108.93 4.75L98.27 1.25L90.12 9.33L92.64 20.92L103.30 24.42ZM92.64 20.92L90.12 9.33L79.46 5.84L71.32 13.92L73.84 25.50L84.50 29.00ZM118.99 51.09L116.47 39.51L105.81 36.00L97.67 44.08L100.19 55.66L110.84 59.17ZM100.19 55.66L97.67 44.08L87.02 40.58L78.88 48.66L81.40 60.24L92.05 63.74ZM124.62 31.43L122.11 19.84L111.45 16.34L103.30 24.42L105.81 36.00L116.47 39.51ZM57.25 266.93L54.74 255.39L44.12 251.89L36.01 259.93L38.53 271.47L49.14 274.97ZM62.84 247.34L60.33 235.80L49.71 232.30L41.60 240.35L44.12 251.89L54.74 255.39ZM44.12 251.89L41.60 240.35L30.98 236.85L22.88 244.90L25.40 256.44L36.01 259.93ZM75.98 262.39L73.47 250.84L62.84 247.34L54.74 255.39L57.25 266.93L67.87 270.43ZM68.44 227.75L65.93 216.20L55.30 212.70L47.19 220.75L49.71 232.30L60.33 235.80ZM74.04 208.15L71.53 196.59L60.90 193.09L52.79 201.15L55.30 212.70L65.93 216.20ZM6.68 260.99L4.16 249.46L-6.45 245.97L-14.54 254.02L-12.02 265.55L-1.41 269.04ZM12.26 241.41L9.74 229.87L-0.88 226.38L-8.97 234.43L-6.45 245.97L4.16 249.46ZM25.40 256.44L22.88 244.90L12.26 241.41L4.16 249.46L6.68 260.99L17.30 264.49ZM96.49 129.67L93.97 118.10L83.33 114.60L75.20 122.67L77.72 134.24L88.36 137.74ZM77.72 134.24L75.20 122.67L64.56 119.17L56.43 127.24L58.95 138.80L69.59 142.30ZM102.11 110.04L99.59 98.47L88.94 94.96L80.81 103.03L83.33 114.60L93.97 118.10ZM83.33 114.60L80.81 103.03L70.17 99.53L62.04 107.61L64.56 119.17L75.20 122.67ZM90.87 149.30L88.36 137.74L77.72 134.24L69.59 142.30L72.11 153.86L82.74 157.36ZM126.52 85.83L124.01 74.25L113.36 70.75L105.22 78.82L107.73 90.40L118.38 93.90ZM107.73 90.40L105.22 78.82L94.56 75.32L86.43 83.39L88.94 94.96L99.59 98.47ZM113.36 70.75L110.84 59.17L100.19 55.66L92.05 63.74L94.56 75.32L105.22 78.82ZM120.89 105.48L118.38 93.90L107.73 90.40L99.59 98.47L102.11 110.04L112.75 113.54ZM98.40 183.99L95.89 172.43L85.26 168.92L77.13 176.98L79.65 188.54L90.28 192.04ZM15.86 167.56L13.34 156.01L2.71 152.52L-5.40 160.59L-2.87 172.14L7.75 175.62ZM21.45 147.94L18.93 136.39L8.29 132.90L0.18 140.97L2.71 152.52L13.34 156.01ZM2.71 152.52L0.18 140.97L-10.45 137.48L-18.55 145.55L-16.03 157.10L-5.40 160.59ZM29.01 182.61L26.49 171.05L15.86 167.56L7.75 175.62L10.28 187.17L20.90 190.66ZM10.28 187.17L7.75 175.62L-2.87 172.14L-10.97 180.20L-8.45 191.75L2.17 195.23ZM34.60 162.99L32.08 151.44L21.45 147.94L13.34 156.01L15.86 167.56L26.49 171.05ZM45.79 123.74L43.27 112.18L32.63 108.69L24.52 116.76L27.04 128.32L37.68 131.81ZM27.04 128.32L24.52 116.76L13.88 113.27L5.77 121.34L8.29 132.90L18.93 136.39ZM51.40 104.11L48.88 92.54L38.23 89.05L30.11 97.12L32.63 108.69L43.27 112.18ZM32.63 108.69L30.11 97.12L19.47 93.63L11.35 101.71L13.88 113.27L24.52 116.76ZM58.95 138.80L56.43 127.24L45.79 123.74L37.68 131.81L40.20 143.37L50.83 146.87ZM40.20 143.37L37.68 131.81L27.04 128.32L18.93 136.39L21.45 147.94L32.08 151.44ZM64.56 119.17L62.04 107.61L51.40 104.11L43.27 112.18L45.79 123.74L56.43 127.24ZM0.71 98.22L-1.81 86.66L-12.45 83.18L-20.56 91.26L-18.03 102.81L-7.40 106.30ZM8.29 132.90L5.77 121.34L-4.87 117.86L-12.98 125.93L-10.45 137.48L0.18 140.97ZM13.88 113.27L11.35 101.71L0.71 98.22L-7.40 106.30L-4.87 117.86L5.77 121.34ZM36.57 217.25L34.05 205.71L23.42 202.21L15.32 210.27L17.84 221.81L28.46 225.31ZM17.84 221.81L15.32 210.27L4.70 206.78L-3.40 214.83L-0.88 226.38L9.74 229.87ZM42.16 197.65L39.64 186.10L29.01 182.61L20.90 190.66L23.42 202.21L34.05 205.71ZM23.42 202.21L20.90 190.66L10.28 187.17L2.17 195.23L4.70 206.78L15.32 210.27ZM49.71 232.30L47.19 220.75L36.57 217.25L28.46 225.31L30.98 236.85L41.60 240.35ZM30.98 236.85L28.46 225.31L17.84 221.81L9.74 229.87L12.26 241.41L22.88 244.90ZM55.30 212.70L52.79 201.15L42.16 197.65L34.05 205.71L36.57 217.25L47.19 220.75ZM4.70 206.78L2.17 195.23L-8.45 191.75L-16.55 199.80L-14.02 211.35L-3.40 214.83ZM66.50 173.48L63.99 161.92L53.35 158.43L45.23 166.49L47.75 178.04L58.38 181.54ZM47.75 178.04L45.23 166.49L34.60 162.99L26.49 171.05L29.01 182.61L39.64 186.10ZM72.11 153.86L69.59 142.30L58.95 138.80L50.83 146.87L53.35 158.43L63.99 161.92ZM53.35 158.43L50.83 146.87L40.20 143.37L32.08 151.44L34.60 162.99L45.23 166.49ZM79.65 188.54L77.13 176.98L66.50 173.48L58.38 181.54L60.90 193.09L71.53 196.59ZM60.90 193.09L58.38 181.54L47.75 178.04L39.64 186.10L42.16 197.65L52.79 201.15ZM85.26 168.92L82.74 157.36L72.11 153.86L63.99 161.92L66.50 173.48L77.13 176.98Z"/></svg>
