<svg xmlns="http://www.w3.org/2000/svg" width="256" height="256" viewBox="0 0 256 256"><path data-band="1" fill="#fde68a" fill-opacity="0.35" d="M1.50 206.43L-1.01 194.93L-11.59 191.43L-19.66 199.45L-17.14 210.95L-6.56 214.44ZM7.06 186.91L4.55 175.40L-6.04 171.91L-14.11 179.93L-11.59 191.43L-1.01 194.93ZM3.49 260.44L0.98 248.95L-9.60 245.45L-17.66 253.46L-15.15 264.95L-4.58 268.45ZM57.25 10.93L54.74 -0.61L44.12 -4.11L36.01 3.93L38.53 15.47L49.14 18.97ZM38.53 15.47L36.01 3.93L25.40 0.44L17.30 8.49L19.82 20.02L30.43 23.52ZM44.12 -4.11L41.60 -15.65L30.98 -19.15L22.88 -11.10L25.40 0.44L36.01 3.93ZM70.38 25.97L67.87 14.43L57.25 10.93L49.14 18.97L51.66 30.51L62.27 34.01ZM51.66 30.51L49.14 18.97L38.53 15.47L30.43 23.52L32.95 35.05L43.56 38.55ZM75.98 6.39L73.47 -5.16L62.84 -8.66L54.74 -0.61L57.25 10.93L67.87 14.43ZM6.68 4.99L4.16 -6.54L-6.45 -10.03L-14.54 -1.98L-12.02 9.55L-1.41 13.04ZM19.82 20.02L17.30 8.49L6.68 4.99L-1.41 13.04L1.11 24.57L11.72 28.06ZM1.11 24.57L-1.41 13.04L-12.02 9.55L-20.11 17.60L-17.59 29.13L-6.98 32.62ZM25.40 0.44L22.88 -11.10L12.26 -14.59L4.16 -6.54L6.68 4.99L17.30 8.49ZM3.10 78.73L0.58 67.20L-10.02 63.71L-18.11 71.75L-15.59 83.27L-4.99 86.76ZM10.65 113.30L8.13 101.78L-2.47 98.28L-10.55 106.31L-8.03 117.83L2.57 121.32ZM16.22 93.75L13.70 82.22L3.10 78.73L-4.99 86.76L-2.47 98.28L8.13 101.78ZM27.37 54.62L24.85 43.09L14.24 39.60L6.15 47.64L8.67 59.17L19.27 62.66ZM8.67 59.17L6.15 47.64L-4.46 44.15L-12.54 52.19L-10.02 63.71L0.58 67.20ZM32.95 35.05L30.43 23.52L19.82 20.02L11.72 28.06L14.24 39.60L24.85 43.09ZM14.24 39.60L11.72 28.06L1.11 24.57L-6.98 32.62L-4.46 44.15L6.15 47.64ZM40.49 69.65L37.97 58.12L27.37 54.62L19.27 62.66L21.79 74.19L32.39 77.68ZM21.79 74.19L19.27 62.66L8.67 59.17L0.58 67.20L3.10 78.73L13.70 82.22ZM46.07 50.09L43.56 38.55L32.95 35.05L24.85 43.09L27.37 54.62L37.97 58.12ZM18.19 147.85L15.68 136.34L5.08 132.84L-3.00 140.87L-0.48 152.38L10.11 155.87ZM23.76 128.31L21.25 116.79L10.65 113.30L2.57 121.32L5.08 132.84L15.68 136.34ZM5.08 132.84L2.57 121.32L-8.03 117.83L-16.11 125.86L-13.59 137.37L-3.00 140.87ZM12.62 167.39L10.11 155.87L-0.48 152.38L-8.55 160.40L-6.04 171.91L4.55 175.40ZM48.02 104.24L45.51 92.71L34.91 89.21L26.82 97.24L29.33 108.77L39.93 112.26ZM29.33 108.77L26.82 97.24L16.22 93.75L8.13 101.78L10.65 113.30L21.25 116.79ZM53.61 84.68L51.10 73.15L40.49 69.65L32.39 77.68L34.91 89.21L45.51 92.71ZM34.91 89.21L32.39 77.68L21.79 74.19L13.70 82.22L16.22 93.75L26.82 97.24ZM42.44 123.79L39.93 112.26L29.33 108.77L21.25 116.79L23.76 128.31L34.36 131.81ZM20.16 201.92L17.65 190.41L7.06 186.91L-1.01 194.93L1.50 206.43L12.09 209.93ZM25.73 182.40L23.21 170.88L12.62 167.39L4.55 175.40L7.06 186.91L17.65 190.41Z"/></svg>
