<svg xmlns="http://www.w3.org/2000/svg" width="256" height="256" viewBox="0 0 256 256"><path data-band="1" fill="#fde68a" fill-opacity="0.35" d="M22.19 3.69L20.86 -2.35L15.27 -4.05L11.00 0.29L12.33 6.33L17.92 8.03ZM12.33 6.33L11.00 0.29L5.41 -1.41L1.14 2.93L2.47 8.97L8.06 10.67ZM15.27 -4.05L13.94 -10.09L8.35 -11.79L4.08 -7.45L5.41 -1.41L11.00 0.29ZM29.10 11.43L27.78 5.39L22.19 3.69L17.92 8.03L19.24 14.06L24.83 15.77ZM19.24 14.06L17.92 8.03L12.33 6.33L8.06 10.67L9.39 16.70L14.98 18.40ZM32.05 1.05L30.73 -4.99L25.13 -6.69L20.86 -2.35L22.19 3.69L27.78 5.39ZM2.47 8.97L1.14 2.93L-4.45 1.24L-8.71 5.58L-7.38 11.61L-1.79 13.31ZM5.41 -1.41L4.08 -7.45L-1.51 -9.14L-5.78 -4.80L-4.45 1.24L1.14 2.93ZM57.75 70.87L56.44 64.84L50.85 63.13L46.58 67.45L47.90 73.49L53.49 75.19ZM59.71 32.03L58.39 25.99L52.80 24.29L48.52 28.62L49.84 34.66L55.43 36.36ZM49.84 34.66L48.52 28.62L42.93 26.91L38.66 31.25L39.98 37.28L45.57 38.99ZM62.66 21.66L61.35 15.62L55.75 13.91L51.48 18.25L52.80 24.29L58.39 25.99ZM52.80 24.29L51.48 18.25L45.88 16.54L41.61 20.87L42.93 26.91L48.52 28.62ZM66.62 39.78L65.30 33.74L59.71 32.03L55.43 36.36L56.75 42.40L62.34 44.11ZM56.75 42.40L55.43 36.36L49.84 34.66L45.57 38.99L46.89 45.02L52.48 46.73ZM69.58 29.41L68.26 23.37L62.66 21.66L58.39 25.99L59.71 32.03L65.30 33.74ZM33.07 29.54L31.75 23.50L26.16 21.80L21.89 26.14L23.22 32.17L28.80 33.87ZM23.22 32.17L21.89 26.14L16.30 24.44L12.04 28.77L13.36 34.80L18.95 36.50ZM36.02 19.17L34.70 13.13L29.10 11.43L24.83 15.77L26.16 21.80L31.75 23.50ZM26.16 21.80L24.83 15.77L19.24 14.06L14.98 18.40L16.30 24.44L21.89 26.14ZM39.98 37.28L38.66 31.25L33.07 29.54L28.80 33.87L30.13 39.91L35.72 41.61ZM30.13 39.91L28.80 33.87L23.22 32.17L18.95 36.50L20.27 42.54L25.86 44.24ZM42.93 26.91L41.61 20.87L36.02 19.17L31.75 23.50L33.07 29.54L38.66 31.25ZM75.50 8.66L74.18 2.62L68.58 0.91L64.30 5.24L65.62 11.29L71.22 13.00ZM65.62 11.29L64.30 5.24L58.71 3.54L54.43 7.87L55.75 13.91L61.35 15.62ZM78.47 -1.72L77.15 -7.76L71.55 -9.47L67.27 -5.14L68.58 0.91L74.18 2.62ZM68.58 0.91L67.27 -5.14L61.67 -6.84L57.39 -2.51L58.71 3.54L64.30 5.24ZM82.41 16.42L81.10 10.38L75.50 8.66L71.22 13.00L72.54 19.04L78.13 20.75ZM72.54 19.04L71.22 13.00L65.62 11.29L61.35 15.62L62.66 21.66L68.26 23.37ZM85.38 6.04L84.07 0.00L78.47 -1.72L74.18 2.62L75.50 8.66L81.10 10.38ZM48.84 6.16L47.51 0.12L41.92 -1.58L37.64 2.76L38.97 8.80L44.56 10.50ZM38.97 8.80L37.64 2.76L32.05 1.05L27.78 5.39L29.10 11.43L34.70 13.13ZM51.79 -4.21L50.47 -10.26L44.87 -11.96L40.60 -7.62L41.92 -1.58L47.51 0.12ZM41.92 -1.58L40.60 -7.62L35.00 -9.33L30.73 -4.99L32.05 1.05L37.64 2.76ZM55.75 13.91L54.43 7.87L48.84 6.16L44.56 10.50L45.88 16.54L51.48 18.25ZM45.88 16.54L44.56 10.50L38.97 8.80L34.70 13.13L36.02 19.17L41.61 20.87ZM58.71 3.54L57.39 -2.51L51.79 -4.21L47.51 0.12L48.84 6.16L54.43 7.87ZM70.57 57.90L69.25 51.86L63.66 50.15L59.39 54.48L60.71 60.51L66.30 62.22ZM60.71 60.51L59.39 54.48L53.80 52.77L49.53 57.09L50.85 63.13L56.44 64.84ZM73.53 47.53L72.21 41.49L66.62 39.78L62.34 44.11L63.66 50.15L69.25 51.86ZM63.66 50.15L62.34 44.11L56.75 42.40L52.48 46.73L53.80 52.77L59.39 54.48ZM77.47 65.65L76.16 59.61L70.57 57.90L66.30 62.22L67.61 68.26L73.20 69.97ZM67.61 68.26L66.30 62.22L60.71 60.51L56.44 64.84L57.75 70.87L63.34 72.58ZM80.43 55.28L79.12 49.25L73.53 47.53L69.25 51.86L70.57 57.90L76.16 59.61ZM43.94 55.39L42.62 49.35L37.04 47.65L32.77 51.98L34.09 58.01L39.68 59.71ZM46.89 45.02L45.57 38.99L39.98 37.28L35.72 41.61L37.04 47.65L42.62 49.35ZM37.04 47.65L35.72 41.61L30.13 39.91L25.86 44.24L27.18 50.27L32.77 51.98ZM50.85 63.13L49.53 57.09L43.94 55.39L39.68 59.71L41.00 65.75L46.58 67.45ZM41.00 65.75L39.68 59.71L34.09 58.01L29.83 62.34L31.15 68.37L36.73 70.07ZM53.80 52.77L52.48 46.73L46.89 45.02L42.62 49.35L43.94 55.39L49.53 57.09ZM86.36 34.55L85.05 28.51L79.45 26.80L75.17 31.12L76.49 37.17L82.08 38.88ZM76.49 37.17L75.17 31.12L69.58 29.41L65.30 33.74L66.62 39.78L72.21 41.49ZM89.33 24.18L88.01 18.13L82.41 16.42L78.13 20.75L79.45 26.80L85.05 28.51ZM79.45 26.80L78.13 20.75L72.54 19.04L68.26 23.37L69.58 29.41L75.17 31.12ZM93.27 42.31L91.96 36.27L86.36 34.55L82.08 38.88L83.40 44.92L88.99 46.63ZM83.40 44.92L82.08 38.88L76.49 37.17L72.21 41.49L73.53 47.53L79.12 49.25ZM96.24 31.94L94.92 25.89L89.33 24.18L85.05 28.51L86.36 34.55L91.96 36.27ZM0.58 47.80L-0.74 41.77L-6.33 40.08L-10.58 44.41L-9.26 50.44L-3.67 52.13ZM6.45 27.07L5.12 21.04L-0.46 19.34L-4.73 23.68L-3.40 29.71L2.19 31.41ZM9.39 16.70L8.06 10.67L2.47 8.97L-1.79 13.31L-0.46 19.34L5.12 21.04ZM13.36 34.80L12.04 28.77L6.45 27.07L2.19 31.41L3.52 37.44L9.10 39.14ZM3.52 37.44L2.19 31.41L-3.40 29.71L-7.66 34.05L-6.33 40.08L-0.74 41.77ZM16.30 24.44L14.98 18.40L9.39 16.70L5.12 21.04L6.45 27.07L12.04 28.77ZM17.34 52.90L16.01 46.87L10.43 45.17L6.17 49.50L7.49 55.53L13.08 57.23ZM20.27 42.54L18.95 36.50L13.36 34.80L9.10 39.14L10.43 45.17L16.01 46.87ZM10.43 45.17L9.10 39.14L3.52 37.44L-0.74 41.77L0.58 47.80L6.17 49.50ZM27.18 50.27L25.86 44.24L20.27 42.54L16.01 46.87L17.34 52.90L22.92 54.60ZM123.86 62.99L122.55 56.94L116.96 55.22L112.67 59.55L113.98 65.59L119.58 67.31ZM113.98 65.59L112.67 59.55L107.08 57.83L102.80 62.15L104.11 68.19L109.70 69.91ZM126.84 52.62L125.53 46.58L119.93 44.86L115.65 49.18L116.96 55.22L122.55 56.94ZM116.96 55.22L115.65 49.18L110.05 47.46L105.77 51.78L107.08 57.83L112.67 59.55ZM130.76 70.75L129.45 64.71L123.86 62.99L119.58 67.31L120.88 73.35L126.48 75.07ZM133.74 60.39L132.44 54.35L126.84 52.62L122.55 56.94L123.86 62.99L129.45 64.71ZM97.21 60.43L95.89 54.39L90.30 52.67L86.02 57.00L87.34 63.04L92.93 64.75ZM87.34 63.04L86.02 57.00L80.43 55.28L76.16 59.61L77.47 65.65L83.06 67.36ZM100.18 50.07L98.86 44.02L93.27 42.31L88.99 46.63L90.30 52.67L95.89 54.39ZM90.30 52.67L88.99 46.63L83.40 44.92L79.12 49.25L80.43 55.28L86.02 57.00ZM104.11 68.19L102.80 62.15L97.21 60.43L92.93 64.75L94.24 70.79L99.83 72.51ZM94.24 70.79L92.93 64.75L87.34 63.04L83.06 67.36L84.37 73.40L89.96 75.11ZM107.08 57.83L105.77 51.78L100.18 50.07L95.89 54.39L97.21 60.43L102.80 62.15ZM137.66 78.52L136.36 72.48L130.76 70.75L126.48 75.07L127.78 81.11L133.38 82.84ZM144.56 86.29L143.25 80.25L137.66 78.52L133.38 82.84L134.68 88.88L140.27 90.60ZM188.32 -1.87L187.02 -7.93L181.41 -9.66L177.10 -5.33L178.41 0.73L184.02 2.46ZM205.16 3.34L203.86 -2.72L198.25 -4.46L193.94 -0.13L195.24 5.93L200.85 7.66ZM195.24 5.93L193.94 -0.13L188.32 -1.87L184.02 2.46L185.32 8.52L190.93 10.25ZM178.41 0.73L177.10 -5.33L171.49 -7.06L167.19 -2.73L168.49 3.33L174.10 5.06ZM168.49 3.33L167.19 -2.73L161.58 -4.46L157.28 -0.13L158.58 5.92L164.19 7.65ZM209.05 21.52L207.76 15.46L202.15 13.72L197.84 18.05L199.13 24.10L204.74 25.84ZM199.13 24.10L197.84 18.05L192.23 16.31L187.92 20.63L189.22 26.69L194.83 28.43ZM212.07 11.14L210.77 5.08L205.16 3.34L200.85 7.66L202.15 13.72L207.76 15.46ZM202.15 13.72L200.85 7.66L195.24 5.93L190.93 10.25L192.23 16.31L197.84 18.05ZM215.96 29.32L214.66 23.26L209.05 21.52L204.74 25.84L206.04 31.90L211.65 33.64ZM206.04 31.90L204.74 25.84L199.13 24.10L194.83 28.43L196.13 34.48L201.73 36.22ZM218.98 18.94L217.68 12.88L212.07 11.14L207.76 15.46L209.05 21.52L214.66 23.26ZM182.31 18.90L181.01 12.84L175.40 11.11L171.10 15.44L172.40 21.49L178.01 23.22ZM172.40 21.49L171.10 15.44L165.49 13.71L161.19 18.03L162.50 24.09L168.10 25.82ZM185.32 8.52L184.02 2.46L178.41 0.73L174.10 5.06L175.40 11.11L181.01 12.84ZM175.40 11.11L174.10 5.06L168.49 3.33L164.19 7.65L165.49 13.71L171.10 15.44ZM189.22 26.69L187.92 20.63L182.31 18.90L178.01 23.22L179.31 29.28L184.92 31.01ZM179.31 29.28L178.01 23.22L172.40 21.49L168.10 25.82L169.40 31.87L175.01 33.60ZM192.23 16.31L190.93 10.25L185.32 8.52L181.01 12.84L182.31 18.90L187.92 20.63ZM225.02 -1.83L223.72 -7.90L218.10 -9.64L213.79 -5.31L215.08 0.75L220.70 2.49ZM215.08 0.75L213.79 -5.31L208.17 -7.05L203.86 -2.72L205.16 3.34L210.77 5.08ZM231.93 5.97L230.63 -0.09L225.02 -1.83L220.70 2.49L221.99 8.55L227.61 10.30ZM221.99 8.55L220.70 2.49L215.08 0.75L210.77 5.08L212.07 11.14L217.68 12.88ZM128.88 13.74L127.57 7.68L121.96 5.96L117.67 10.29L118.98 16.34L124.58 18.06ZM118.98 16.34L117.67 10.29L112.07 8.57L107.78 12.91L109.09 18.95L114.69 20.67ZM131.86 3.35L130.55 -2.70L124.95 -4.42L120.65 -0.09L121.96 5.96L127.57 7.68ZM121.96 5.96L120.65 -0.09L115.05 -1.81L110.76 2.52L112.07 8.57L117.67 10.29ZM135.79 21.51L134.48 15.46L128.88 13.74L124.58 18.06L125.89 24.11L131.49 25.83ZM125.89 24.11L124.58 18.06L118.98 16.34L114.69 20.67L116.00 26.72L121.60 28.44ZM138.77 11.13L137.47 5.08L131.86 3.35L127.57 7.68L128.88 13.74L134.48 15.46ZM102.18 11.19L100.87 5.14L95.27 3.42L90.98 7.76L92.30 13.80L97.89 15.52ZM92.30 13.80L90.98 7.76L85.38 6.04L81.10 10.38L82.41 16.42L88.01 18.13ZM105.16 0.81L103.84 -5.24L98.24 -6.96L93.95 -2.62L95.27 3.42L100.87 5.14ZM95.27 3.42L93.95 -2.62L88.35 -4.34L84.07 0.00L85.38 6.04L90.98 7.76ZM109.09 18.95L107.78 12.91L102.18 11.19L97.89 15.52L99.21 21.56L104.81 23.28ZM99.21 21.56L97.89 15.52L92.30 13.80L88.01 18.13L89.33 24.18L94.92 25.89ZM112.07 8.57L110.76 2.52L105.16 0.81L100.87 5.14L102.18 11.19L107.78 12.91ZM151.67 -1.86L150.36 -7.91L144.75 -9.64L140.45 -5.31L141.76 0.75L147.37 2.47ZM141.76 0.75L140.45 -5.31L134.85 -7.03L130.55 -2.70L131.86 3.35L137.47 5.08ZM115.05 -1.81L113.74 -7.86L108.13 -9.58L103.84 -5.24L105.16 0.81L110.76 2.52ZM139.71 39.66L138.40 33.61L132.80 31.88L128.51 36.21L129.82 42.25L135.42 43.98ZM129.82 42.25L128.51 36.21L122.91 34.49L118.62 38.81L119.93 44.86L125.53 46.58ZM142.70 29.28L141.39 23.23L135.79 21.51L131.49 25.83L132.80 31.88L138.40 33.61ZM132.80 31.88L131.49 25.83L125.89 24.11L121.60 28.44L122.91 34.49L128.51 36.21ZM146.62 47.43L145.31 41.38L139.71 39.66L135.42 43.98L136.73 50.02L142.32 51.75ZM136.73 50.02L135.42 43.98L129.82 42.25L125.53 46.58L126.84 52.62L132.44 54.35ZM149.60 37.06L148.30 31.01L142.70 29.28L138.40 33.61L139.71 39.66L145.31 41.38ZM113.03 37.09L111.72 31.05L106.12 29.33L101.83 33.65L103.15 39.70L108.74 41.42ZM103.15 39.70L101.83 33.65L96.24 31.94L91.96 36.27L93.27 42.31L98.86 44.02ZM116.00 26.72L114.69 20.67L109.09 18.95L104.81 23.28L106.12 29.33L111.72 31.05ZM106.12 29.33L104.81 23.28L99.21 21.56L94.92 25.89L96.24 31.94L101.83 33.65ZM119.93 44.86L118.62 38.81L113.03 37.09L108.74 41.42L110.05 47.46L115.65 49.18ZM110.05 47.46L108.74 41.42L103.15 39.70L98.86 44.02L100.18 50.07L105.77 51.78ZM122.91 34.49L121.60 28.44L116.00 26.72L111.72 31.05L113.03 37.09L118.62 38.81ZM155.59 16.31L154.28 10.25L148.68 8.53L144.38 12.85L145.69 18.91L151.29 20.63ZM145.69 18.91L144.38 12.85L138.77 11.13L134.48 15.46L135.79 21.51L141.39 23.23ZM158.58 5.92L157.28 -0.13L151.67 -1.86L147.37 2.47L148.68 8.53L154.28 10.25ZM148.68 8.53L147.37 2.47L141.76 0.75L137.47 5.08L138.77 11.13L144.38 12.85ZM162.50 24.09L161.19 18.03L155.59 16.31L151.29 20.63L152.59 26.68L158.20 28.41ZM152.59 26.68L151.29 20.63L145.69 18.91L141.39 23.23L142.70 29.28L148.30 31.01ZM165.49 13.71L164.19 7.65L158.58 5.92L154.28 10.25L155.59 16.31L161.19 18.03ZM225.46 122.67L224.17 116.63L218.57 114.88L214.27 119.19L215.57 125.23L221.16 126.97ZM215.57 125.23L214.27 119.19L208.68 117.45L204.38 121.75L205.68 127.79L211.27 129.53ZM228.47 112.32L227.18 106.27L221.58 104.53L217.28 108.84L218.57 114.88L224.17 116.63ZM218.57 114.88L217.28 108.84L211.69 107.10L207.39 111.40L208.68 117.45L214.27 119.19ZM232.35 130.46L231.06 124.42L225.46 122.67L221.16 126.97L222.45 133.02L228.04 134.76ZM222.45 133.02L221.16 126.97L215.57 125.23L211.27 129.53L212.56 135.58L218.15 137.32ZM235.36 120.12L234.07 114.07L228.47 112.32L224.17 116.63L225.46 122.67L231.06 124.42ZM201.79 109.66L200.50 103.62L194.90 101.88L190.60 106.19L191.90 112.23L197.49 113.97ZM208.68 117.45L207.39 111.40L201.79 109.66L197.49 113.97L198.79 120.01L204.38 121.75ZM241.39 99.41L240.10 93.36L234.50 91.61L230.20 95.92L231.49 101.97L237.09 103.71ZM231.49 101.97L230.20 95.92L224.60 94.18L220.29 98.48L221.58 104.53L227.18 106.27ZM244.41 89.05L243.12 83.00L237.52 81.25L233.21 85.56L234.50 91.61L240.10 93.36ZM234.50 91.61L233.21 85.56L227.61 83.82L223.30 88.12L224.60 94.18L230.20 95.92ZM248.28 107.21L246.99 101.16L241.39 99.41L237.09 103.71L238.38 109.76L243.97 111.51ZM238.38 109.76L237.09 103.71L231.49 101.97L227.18 106.27L228.47 112.32L234.07 114.07ZM251.31 96.85L250.02 90.80L244.41 89.05L240.10 93.36L241.39 99.41L246.99 101.16ZM214.69 96.74L213.40 90.69L207.80 88.95L203.50 93.26L204.80 99.31L210.39 101.05ZM204.80 99.31L203.50 93.26L197.90 91.52L193.60 95.83L194.90 101.88L200.50 103.62ZM217.70 86.38L216.41 80.33L210.81 78.59L206.51 82.90L207.80 88.95L213.40 90.69ZM207.80 88.95L206.51 82.90L200.91 81.16L196.61 85.47L197.90 91.52L203.50 93.26ZM221.58 104.53L220.29 98.48L214.69 96.74L210.39 101.05L211.69 107.10L217.28 108.84ZM211.69 107.10L210.39 101.05L204.80 99.31L200.50 103.62L201.79 109.66L207.39 111.40ZM224.60 94.18L223.30 88.12L217.70 86.38L213.40 90.69L214.69 96.74L220.29 98.48ZM239.23 138.26L237.94 132.21L232.35 130.46L228.04 134.76L229.33 140.81L234.93 142.55ZM246.11 146.05L244.82 140.00L239.23 138.26L234.93 142.55L236.22 148.60L241.81 150.34ZM252.15 125.36L250.86 119.31L245.26 117.56L240.96 121.86L242.25 127.91L247.84 129.66ZM242.25 127.91L240.96 121.86L235.36 120.12L231.06 124.42L232.35 130.46L237.94 132.21ZM255.17 115.01L253.88 108.96L248.28 107.21L243.97 111.51L245.26 117.56L250.86 119.31ZM245.26 117.56L243.97 111.51L238.38 109.76L234.07 114.07L235.36 120.12L240.96 121.86ZM259.03 133.16L257.75 127.11L252.15 125.36L247.84 129.66L249.13 135.70L254.72 137.45ZM249.13 135.70L247.84 129.66L242.25 127.91L237.94 132.21L239.23 138.26L244.82 140.00ZM262.06 122.81L260.77 116.76L255.17 115.01L250.86 119.31L252.15 125.36L257.75 127.11ZM246.59 50.15L245.30 44.09L239.69 42.34L235.37 46.66L236.67 52.72L242.27 54.46ZM236.67 52.72L235.37 46.66L229.77 44.92L225.45 49.23L226.75 55.29L232.35 57.03ZM249.62 39.78L248.32 33.71L242.71 31.97L238.40 36.28L239.69 42.34L245.30 44.09ZM239.69 42.34L238.40 36.28L232.79 34.54L228.47 38.86L229.77 44.92L235.37 46.66ZM253.49 57.96L252.20 51.90L246.59 50.15L242.27 54.46L243.56 60.52L249.17 62.27ZM243.56 60.52L242.27 54.46L236.67 52.72L232.35 57.03L233.65 63.09L239.25 64.83ZM256.52 47.58L255.23 41.52L249.62 39.78L245.30 44.09L246.59 50.15L252.20 51.90ZM219.85 47.49L218.55 41.43L212.94 39.69L208.64 44.01L209.93 50.07L215.54 51.81ZM209.93 50.07L208.64 44.01L203.03 42.27L198.72 46.59L200.02 52.64L205.63 54.38ZM222.86 37.12L221.57 31.06L215.96 29.32L211.65 33.64L212.94 39.69L218.55 41.43ZM212.94 39.69L211.65 33.64L206.04 31.90L201.73 36.22L203.03 42.27L208.64 44.01ZM226.75 55.29L225.45 49.23L219.85 47.49L215.54 51.81L216.83 57.86L222.44 59.60ZM216.83 57.86L215.54 51.81L209.93 50.07L205.63 54.38L206.92 60.44L212.52 62.17ZM229.77 44.92L228.47 38.86L222.86 37.12L218.55 41.43L219.85 47.49L225.45 49.23ZM262.58 26.83L261.29 20.76L255.68 19.02L251.35 23.33L252.64 29.40L258.26 31.14ZM252.64 29.40L251.35 23.33L245.74 21.59L241.42 25.91L242.71 31.97L248.32 33.71ZM265.61 16.45L264.32 10.38L258.71 8.63L254.38 12.95L255.68 19.02L261.29 20.76ZM255.68 19.02L254.38 12.95L248.77 11.20L244.45 15.52L245.74 21.59L251.35 23.33ZM259.55 37.21L258.26 31.14L252.64 29.40L248.32 33.71L249.62 39.78L255.23 41.52ZM235.81 24.16L234.51 18.10L228.90 16.36L224.59 20.68L225.88 26.74L231.49 28.48ZM225.88 26.74L224.59 20.68L218.98 18.94L214.66 23.26L215.96 29.32L221.57 31.06ZM238.83 13.78L237.54 7.72L231.93 5.97L227.61 10.30L228.90 16.36L234.51 18.10ZM228.90 16.36L227.61 10.30L221.99 8.55L217.68 12.88L218.98 18.94L224.59 20.68ZM242.71 31.97L241.42 25.91L235.81 24.16L231.49 28.48L232.79 34.54L238.40 36.28ZM232.79 34.54L231.49 28.48L225.88 26.74L221.57 31.06L222.86 37.12L228.47 38.86ZM245.74 21.59L244.45 15.52L238.83 13.78L234.51 18.10L235.81 24.16L241.42 25.91ZM257.36 76.13L256.07 70.07L250.46 68.32L246.15 72.63L247.44 78.69L253.04 80.44ZM247.44 78.69L246.15 72.63L240.54 70.89L236.23 75.20L237.52 81.25L243.12 83.00ZM260.38 65.76L259.10 59.70L253.49 57.96L249.17 62.27L250.46 68.32L256.07 70.07ZM250.46 68.32L249.17 62.27L243.56 60.52L239.25 64.83L240.54 70.89L246.15 72.63ZM264.25 83.94L262.96 77.88L257.36 76.13L253.04 80.44L254.33 86.49L259.93 88.24ZM254.33 86.49L253.04 80.44L247.44 78.69L243.12 83.00L244.41 89.05L250.02 90.80ZM230.63 73.45L229.33 67.40L223.73 65.66L219.42 69.97L220.72 76.02L226.32 77.76ZM220.72 76.02L219.42 69.97L213.82 68.23L209.51 72.54L210.81 78.59L216.41 80.33ZM233.65 63.09L232.35 57.03L226.75 55.29L222.44 59.60L223.73 65.66L229.33 67.40ZM223.73 65.66L222.44 59.60L216.83 57.86L212.52 62.17L213.82 68.23L219.42 69.97ZM237.52 81.25L236.23 75.20L230.63 73.45L226.32 77.76L227.61 83.82L233.21 85.56ZM227.61 83.82L226.32 77.76L220.72 76.02L216.41 80.33L217.70 86.38L223.30 88.12ZM240.54 70.89L239.25 64.83L233.65 63.09L229.33 67.40L230.63 73.45L236.23 75.20ZM263.42 55.39L262.13 49.33L256.52 47.58L252.20 51.90L253.49 57.96L259.10 59.70ZM266.45 45.02L265.16 38.96L259.55 37.21L255.23 41.52L256.52 47.58L262.13 49.33ZM177.21 68.17L175.91 62.12L170.31 60.39L166.02 64.71L167.32 70.76L172.92 72.49ZM167.32 70.76L166.02 64.71L160.42 62.98L156.13 67.30L157.43 73.34L163.03 75.07ZM180.21 57.81L178.91 51.76L173.31 50.02L169.01 54.34L170.31 60.39L175.91 62.12ZM170.31 60.39L169.01 54.34L163.41 52.61L159.12 56.93L160.42 62.98L166.02 64.71ZM184.11 75.95L182.81 69.91L177.21 68.17L172.92 72.49L174.22 78.53L179.81 80.27ZM174.22 78.53L172.92 72.49L167.32 70.76L163.03 75.07L164.33 81.12L169.92 82.85ZM187.11 65.59L185.81 59.54L180.21 57.81L175.91 62.12L177.21 68.17L182.81 69.91ZM150.53 65.57L149.23 59.52L143.63 57.80L139.34 62.12L140.64 68.16L146.24 69.89ZM140.64 68.16L139.34 62.12L133.74 60.39L129.45 64.71L130.76 70.75L136.36 72.48ZM153.52 55.20L152.21 49.16L146.62 47.43L142.32 51.75L143.63 57.80L149.23 59.52ZM143.63 57.80L142.32 51.75L136.73 50.02L132.44 54.35L133.74 60.39L139.34 62.12ZM157.43 73.34L156.13 67.30L150.53 65.57L146.24 69.89L147.54 75.93L153.14 77.66ZM147.54 75.93L146.24 69.89L140.64 68.16L136.36 72.48L137.66 78.52L143.25 80.25ZM160.42 62.98L159.12 56.93L153.52 55.20L149.23 59.52L150.53 65.57L156.13 67.30ZM193.12 44.85L191.82 38.80L186.22 37.07L181.91 41.39L183.21 47.44L188.82 49.17ZM183.21 47.44L181.91 41.39L176.31 39.65L172.01 43.97L173.31 50.02L178.91 51.76ZM196.13 34.48L194.83 28.43L189.22 26.69L184.92 31.01L186.22 37.07L191.82 38.80ZM186.22 37.07L184.92 31.01L179.31 29.28L175.01 33.60L176.31 39.65L181.91 41.39ZM200.02 52.64L198.72 46.59L193.12 44.85L188.82 49.17L190.12 55.22L195.72 56.96ZM190.12 55.22L188.82 49.17L183.21 47.44L178.91 51.76L180.21 57.81L185.81 59.54ZM203.03 42.27L201.73 36.22L196.13 34.48L191.82 38.80L193.12 44.85L198.72 46.59ZM166.41 42.24L165.10 36.19L159.50 34.46L155.20 38.79L156.51 44.83L162.11 46.56ZM156.51 44.83L155.20 38.79L149.60 37.06L145.31 41.38L146.62 47.43L152.21 49.16ZM169.40 31.87L168.10 25.82L162.50 24.09L158.20 28.41L159.50 34.46L165.10 36.19ZM159.50 34.46L158.20 28.41L152.59 26.68L148.30 31.01L149.60 37.06L155.20 38.79ZM173.31 50.02L172.01 43.97L166.41 42.24L162.11 46.56L163.41 52.61L169.01 54.34ZM163.41 52.61L162.11 46.56L156.51 44.83L152.21 49.16L153.52 55.20L159.12 56.93ZM176.31 39.65L175.01 33.60L169.40 31.87L165.10 36.19L166.41 42.24L172.01 43.97ZM188.01 94.10L186.71 88.05L181.11 86.31L176.82 90.63L178.12 96.67L183.71 98.41ZM178.12 96.67L176.82 90.63L171.22 88.89L166.93 93.21L168.23 99.25L173.82 100.98ZM191.01 83.74L189.71 77.69L184.11 75.95L179.81 80.27L181.11 86.31L186.71 88.05ZM181.11 86.31L179.81 80.27L174.22 78.53L169.92 82.85L171.22 88.89L176.82 90.63ZM194.90 101.88L193.60 95.83L188.01 94.10L183.71 98.41L185.01 104.45L190.60 106.19ZM197.90 91.52L196.61 85.47L191.01 83.74L186.71 88.05L188.01 94.10L193.60 95.83ZM164.33 81.12L163.03 75.07L157.43 73.34L153.14 77.66L154.44 83.70L160.04 85.43ZM154.44 83.70L153.14 77.66L147.54 75.93L143.25 80.25L144.56 86.29L150.15 88.02ZM168.23 99.25L166.93 93.21L161.34 91.47L157.05 95.79L158.35 101.83L163.94 103.56ZM171.22 88.89L169.92 82.85L164.33 81.12L160.04 85.43L161.34 91.47L166.93 93.21ZM203.91 70.80L202.62 64.75L197.02 63.01L192.71 67.33L194.01 73.38L199.61 75.11ZM194.01 73.38L192.71 67.33L187.11 65.59L182.81 69.91L184.11 75.95L189.71 77.69ZM206.92 60.44L205.63 54.38L200.02 52.64L195.72 56.96L197.02 63.01L202.62 64.75ZM197.02 63.01L195.72 56.96L190.12 55.22L185.81 59.54L187.11 65.59L192.71 67.33ZM210.81 78.59L209.51 72.54L203.91 70.80L199.61 75.11L200.91 81.16L206.51 82.90ZM200.91 81.16L199.61 75.11L194.01 73.38L189.71 77.69L191.01 83.74L196.61 85.47ZM213.82 68.23L212.52 62.17L206.92 60.44L202.62 64.75L203.91 70.80L209.51 72.54ZM263.72 179.77L262.44 173.73L256.85 171.97L252.54 176.26L253.83 182.31L259.42 184.06ZM266.74 169.44L265.46 163.39L259.87 161.64L255.56 165.93L256.85 171.97L262.44 173.73ZM249.97 164.18L248.69 158.14L243.09 156.39L238.79 160.68L240.08 166.72L245.67 168.47ZM262.89 151.30L261.60 145.25L256.01 143.50L251.70 147.80L252.99 153.84L258.58 155.59ZM252.99 153.84L251.70 147.80L246.11 146.05L241.81 150.34L243.09 156.39L248.69 158.14ZM265.91 140.96L264.63 134.91L259.03 133.16L254.72 137.45L256.01 143.50L261.60 145.25ZM256.01 143.50L254.72 137.45L249.13 135.70L244.82 140.00L246.11 146.05L251.70 147.80ZM259.87 161.64L258.58 155.59L252.99 153.84L248.69 158.14L249.97 164.18L255.56 165.93ZM258.19 104.65L256.91 98.60L251.31 96.85L246.99 101.16L248.28 107.21L253.88 108.96ZM261.22 94.30L259.93 88.24L254.33 86.49L250.02 90.80L251.31 96.85L256.91 98.60ZM265.08 112.46L263.80 106.40L258.19 104.65L253.88 108.96L255.17 115.01L260.77 116.76ZM251.80 0.82L250.51 -5.25L244.89 -6.99L240.57 -2.67L241.86 3.39L247.48 5.14ZM241.86 3.39L240.57 -2.67L234.95 -4.41L230.63 -0.09L231.93 5.97L237.54 7.72ZM258.71 8.63L257.42 2.56L251.80 0.82L247.48 5.14L248.77 11.20L254.38 12.95ZM248.77 11.20L247.48 5.14L241.86 3.39L237.54 7.72L238.83 13.78L244.45 15.52Z"/><path data-band="2" fill="#f97316" fill-opacity="0.35" d="M39.07 104.54L37.75 98.51L32.17 96.81L27.91 101.13L29.23 107.15L34.81 108.86ZM29.23 107.15L27.91 101.13L22.33 99.42L18.08 103.74L19.40 109.77L24.97 111.47ZM42.01 94.19L40.69 88.16L35.11 86.46L30.85 90.78L32.17 96.81L37.75 98.51ZM32.17 96.81L30.85 90.78L25.27 89.07L21.01 93.40L22.33 99.42L27.91 101.13ZM45.96 112.27L44.65 106.25L39.07 104.54L34.81 108.86L36.13 114.88L41.70 116.59ZM36.13 114.88L34.81 108.86L29.23 107.15L24.97 111.47L26.29 117.49L31.87 119.20ZM48.91 101.93L47.59 95.90L42.01 94.19L37.75 98.51L39.07 104.54L44.65 106.25ZM12.50 102.04L11.18 96.02L5.60 94.32L1.35 98.64L2.67 104.66L8.25 106.36ZM2.67 104.66L1.35 98.64L-4.23 96.94L-8.48 101.27L-7.15 107.29L-1.58 108.98ZM15.43 91.69L14.11 85.67L8.53 83.97L4.28 88.29L5.60 94.32L11.18 96.02ZM5.60 94.32L4.28 88.29L-1.30 86.59L-5.55 90.92L-4.23 96.94L1.35 98.64ZM19.40 109.77L18.08 103.74L12.50 102.04L8.25 106.36L9.57 112.38L15.14 114.09ZM9.57 112.38L8.25 106.36L2.67 104.66L-1.58 108.98L-0.25 115.00L5.32 116.70ZM22.33 99.42L21.01 93.40L15.43 91.69L11.18 96.02L12.50 102.04L18.08 103.74ZM54.80 81.23L53.49 75.19L47.90 73.49L43.64 77.81L44.95 83.84L50.54 85.55ZM44.95 83.84L43.64 77.81L38.05 76.10L33.79 80.43L35.11 86.46L40.69 88.16ZM47.90 73.49L46.58 67.45L41.00 65.75L36.73 70.07L38.05 76.10L43.64 77.81ZM61.70 88.97L60.39 82.94L54.80 81.23L50.54 85.55L51.86 91.58L57.44 93.29ZM51.86 91.58L50.54 85.55L44.95 83.84L40.69 88.16L42.01 94.19L47.59 95.90ZM64.66 78.61L63.34 72.58L57.75 70.87L53.49 75.19L54.80 81.23L60.39 82.94ZM28.21 78.72L26.89 72.69L21.30 70.99L17.05 75.32L18.37 81.34L23.95 83.05ZM18.37 81.34L17.05 75.32L11.46 73.62L7.21 77.94L8.53 83.97L14.11 85.67ZM31.15 68.37L29.83 62.34L24.24 60.63L19.98 64.96L21.30 70.99L26.89 72.69ZM21.30 70.99L19.98 64.96L14.40 63.26L10.14 67.59L11.46 73.62L17.05 75.32ZM35.11 86.46L33.79 80.43L28.21 78.72L23.95 83.05L25.27 89.07L30.85 90.78ZM25.27 89.07L23.95 83.05L18.37 81.34L14.11 85.67L15.43 91.69L21.01 93.40ZM38.05 76.10L36.73 70.07L31.15 68.37L26.89 72.69L28.21 78.72L33.79 80.43ZM49.91 130.35L48.60 124.32L43.02 122.61L38.76 126.93L40.08 132.95L45.66 134.66ZM40.08 132.95L38.76 126.93L33.19 125.22L28.93 129.54L30.25 135.56L35.82 137.26ZM52.86 120.01L51.54 113.98L45.96 112.27L41.70 116.59L43.02 122.61L48.60 124.32ZM43.02 122.61L41.70 116.59L36.13 114.88L31.87 119.20L33.19 125.22L38.76 126.93ZM56.80 138.08L55.49 132.06L49.91 130.35L45.66 134.66L46.97 140.68L52.55 142.39ZM46.97 140.68L45.66 134.66L40.08 132.95L35.82 137.26L37.14 143.29L42.71 144.99ZM59.75 127.74L58.44 121.72L52.86 120.01L48.60 124.32L49.91 130.35L55.49 132.06ZM23.36 127.83L22.04 121.81L16.47 120.11L12.21 124.43L13.54 130.45L19.11 132.15ZM13.54 130.45L12.21 124.43L6.64 122.72L2.39 127.04L3.71 133.06L9.29 134.76ZM26.29 117.49L24.97 111.47L19.40 109.77L15.14 114.09L16.47 120.11L22.04 121.81ZM16.47 120.11L15.14 114.09L9.57 112.38L5.32 116.70L6.64 122.72L12.21 124.43ZM30.25 135.56L28.93 129.54L23.36 127.83L19.11 132.15L20.43 138.17L26.00 139.87ZM20.43 138.17L19.11 132.15L13.54 130.45L9.29 134.76L10.61 140.78L16.18 142.48ZM33.19 125.22L31.87 119.20L26.29 117.49L22.04 121.81L23.36 127.83L28.93 129.54ZM65.65 107.06L64.34 101.03L58.75 99.32L54.49 103.64L55.80 109.66L61.38 111.37ZM55.80 109.66L54.49 103.64L48.91 101.93L44.65 106.25L45.96 112.27L51.54 113.98ZM68.60 96.71L67.29 90.68L61.70 88.97L57.44 93.29L58.75 99.32L64.34 101.03ZM58.75 99.32L57.44 93.29L51.86 91.58L47.59 95.90L48.91 101.93L54.49 103.64ZM72.54 114.80L71.23 108.77L65.65 107.06L61.38 111.37L62.70 117.40L68.28 119.11ZM62.70 117.40L61.38 111.37L55.80 109.66L51.54 113.98L52.86 120.01L58.44 121.72ZM75.50 104.45L74.19 98.42L68.60 96.71L64.34 101.03L65.65 107.06L71.23 108.77ZM3.71 133.06L2.39 127.04L-3.18 125.34L-7.43 129.66L-6.10 135.68L-0.53 137.38ZM6.64 122.72L5.32 116.70L-0.25 115.00L-4.50 119.32L-3.18 125.34L2.39 127.04ZM34.09 58.01L32.77 51.98L27.18 50.27L22.92 54.60L24.24 60.63L29.83 62.34ZM1.63 76.24L0.30 70.22L-5.28 68.52L-9.53 72.85L-8.20 78.87L-2.63 80.57ZM4.56 65.89L3.23 59.86L-2.35 58.16L-6.60 62.49L-5.28 68.52L0.30 70.22ZM8.53 83.97L7.21 77.94L1.63 76.24L-2.63 80.57L-1.30 86.59L4.28 88.29ZM11.46 73.62L10.14 67.59L4.56 65.89L0.30 70.22L1.63 76.24L7.21 77.94ZM7.49 55.53L6.17 49.50L0.58 47.80L-3.67 52.13L-2.35 58.16L3.23 59.86ZM24.24 60.63L22.92 54.60L17.34 52.90L13.08 57.23L14.40 63.26L19.98 64.96ZM14.40 63.26L13.08 57.23L7.49 55.53L3.23 59.86L4.56 65.89L10.14 67.59ZM87.30 158.70L85.99 152.68L80.42 150.96L76.15 155.27L77.47 161.29L83.04 163.01ZM77.47 161.29L76.15 155.27L70.58 153.55L66.32 157.86L67.63 163.88L73.20 165.60ZM90.26 148.37L88.95 142.34L83.37 140.62L79.11 144.93L80.42 150.96L85.99 152.68ZM80.42 150.96L79.11 144.93L73.53 143.22L69.27 147.53L70.58 153.55L76.15 155.27ZM94.19 166.44L92.88 160.42L87.30 158.70L83.04 163.01L84.35 169.03L89.92 170.75ZM84.35 169.03L83.04 163.01L77.47 161.29L73.20 165.60L74.52 171.62L80.09 173.33ZM97.15 156.11L95.84 150.09L90.26 148.37L85.99 152.68L87.30 158.70L92.88 160.42ZM60.75 156.15L59.43 150.13L53.86 148.41L49.60 152.72L50.92 158.74L56.49 160.46ZM50.92 158.74L49.60 152.72L44.03 151.01L39.78 155.32L41.09 161.34L46.66 163.05ZM63.69 145.82L62.38 139.79L56.80 138.08L52.55 142.39L53.86 148.41L59.43 150.13ZM53.86 148.41L52.55 142.39L46.97 140.68L42.71 144.99L44.03 151.01L49.60 152.72ZM67.63 163.88L66.32 157.86L60.75 156.15L56.49 160.46L57.80 166.47L63.37 168.19ZM57.80 166.47L56.49 160.46L50.92 158.74L46.66 163.05L47.98 169.07L53.55 170.78ZM70.58 153.55L69.27 147.53L63.69 145.82L59.43 150.13L60.75 156.15L66.32 157.86ZM103.07 135.44L101.76 129.41L96.18 127.69L91.91 132.00L93.22 138.03L98.80 139.75ZM93.22 138.03L91.91 132.00L86.33 130.29L82.06 134.60L83.37 140.62L88.95 142.34ZM106.03 125.10L104.72 119.07L99.14 117.35L94.87 121.66L96.18 127.69L101.76 129.41ZM96.18 127.69L94.87 121.66L89.29 119.95L85.02 124.26L86.33 130.29L91.91 132.00ZM109.96 143.19L108.65 137.16L103.07 135.44L98.80 139.75L100.11 145.78L105.68 147.50ZM100.11 145.78L98.80 139.75L93.22 138.03L88.95 142.34L90.26 148.37L95.84 150.09ZM112.92 132.85L111.61 126.82L106.03 125.10L101.76 129.41L103.07 135.44L108.65 137.16ZM76.48 132.88L75.17 126.86L69.59 125.14L65.33 129.45L66.64 135.48L72.22 137.19ZM66.64 135.48L65.33 129.45L59.75 127.74L55.49 132.06L56.80 138.08L62.38 139.79ZM79.44 122.54L78.13 116.51L72.54 114.80L68.28 119.11L69.59 125.14L75.17 126.86ZM69.59 125.14L68.28 119.11L62.70 117.40L58.44 121.72L59.75 127.74L65.33 129.45ZM83.37 140.62L82.06 134.60L76.48 132.88L72.22 137.19L73.53 143.22L79.11 144.93ZM73.53 143.22L72.22 137.19L66.64 135.48L62.38 139.79L63.69 145.82L69.27 147.53ZM86.33 130.29L85.02 124.26L79.44 122.54L75.17 126.86L76.48 132.88L82.06 134.60ZM98.11 184.51L96.80 178.49L91.23 176.77L86.97 181.07L88.28 187.09L93.85 188.81ZM88.28 187.09L86.97 181.07L81.40 179.35L77.14 183.66L78.45 189.68L84.02 191.39ZM101.07 174.19L99.76 168.16L94.19 166.44L89.92 170.75L91.23 176.77L96.80 178.49ZM91.23 176.77L89.92 170.75L84.35 169.03L80.09 173.33L81.40 179.35L86.97 181.07ZM104.99 192.25L103.68 186.23L98.11 184.51L93.85 188.81L95.15 194.83L100.72 196.55ZM95.15 194.83L93.85 188.81L88.28 187.09L84.02 191.39L85.32 197.41L90.89 199.13ZM107.95 181.93L106.64 175.91L101.07 174.19L96.80 178.49L98.11 184.51L103.68 186.23ZM71.57 181.94L70.26 175.92L64.69 174.21L60.43 178.51L61.74 184.53L67.31 186.24ZM74.52 171.62L73.20 165.60L67.63 163.88L63.37 168.19L64.69 174.21L70.26 175.92ZM64.69 174.21L63.37 168.19L57.80 166.47L53.55 170.78L54.86 176.80L60.43 178.51ZM78.45 189.68L77.14 183.66L71.57 181.94L67.31 186.24L68.62 192.26L74.19 193.98ZM81.40 179.35L80.09 173.33L74.52 171.62L70.26 175.92L71.57 181.94L77.14 183.66ZM113.87 161.28L112.57 155.25L106.99 153.53L102.72 157.83L104.03 163.86L109.60 165.58ZM104.03 163.86L102.72 157.83L97.15 156.11L92.88 160.42L94.19 166.44L99.76 168.16ZM116.84 150.94L115.54 144.92L109.96 143.19L105.68 147.50L106.99 153.53L112.57 155.25ZM106.99 153.53L105.68 147.50L100.11 145.78L95.84 150.09L97.15 156.11L102.72 157.83ZM120.76 169.03L119.45 163.00L113.87 161.28L109.60 165.58L110.91 171.61L116.49 173.33ZM110.91 171.61L109.60 165.58L104.03 163.86L99.76 168.16L101.07 174.19L106.64 175.91ZM123.73 158.70L122.42 152.67L116.84 150.94L112.57 155.25L113.87 161.28L119.45 163.00ZM18.53 176.87L17.21 170.86L11.64 169.15L7.40 173.46L8.72 179.47L14.28 181.18ZM8.72 179.47L7.40 173.46L1.83 171.76L-2.41 176.07L-1.09 182.08L4.47 183.78ZM21.45 166.55L20.14 160.53L14.57 158.83L10.32 163.14L11.64 169.15L17.21 170.86ZM11.64 169.15L10.32 163.14L4.76 161.44L0.51 165.75L1.83 171.76L7.40 173.46ZM28.34 174.27L27.02 168.25L21.45 166.55L17.21 170.86L18.53 176.87L24.09 178.58ZM1.83 171.76L0.51 165.75L-5.05 164.05L-9.29 168.36L-7.97 174.37L-2.41 176.07ZM34.21 153.62L32.89 147.60L27.32 145.89L23.07 150.20L24.38 156.22L29.95 157.93ZM24.38 156.22L23.07 150.20L17.50 148.50L13.25 152.81L14.57 158.83L20.14 160.53ZM37.14 143.29L35.82 137.26L30.25 135.56L26.00 139.87L27.32 145.89L32.89 147.60ZM27.32 145.89L26.00 139.87L20.43 138.17L16.18 142.48L17.50 148.50L23.07 150.20ZM41.09 161.34L39.78 155.32L34.21 153.62L29.95 157.93L31.27 163.94L36.84 165.65ZM31.27 163.94L29.95 157.93L24.38 156.22L20.14 160.53L21.45 166.55L27.02 168.25ZM44.03 151.01L42.71 144.99L37.14 143.29L32.89 147.60L34.21 153.62L39.78 155.32ZM7.68 151.11L6.36 145.09L0.79 143.39L-3.46 147.71L-2.13 153.72L3.43 155.42ZM10.61 140.78L9.29 134.76L3.71 133.06L-0.53 137.38L0.79 143.39L6.36 145.09ZM0.79 143.39L-0.53 137.38L-6.10 135.68L-10.35 139.99L-9.02 146.01L-3.46 147.71ZM14.57 158.83L13.25 152.81L7.68 151.11L3.43 155.42L4.76 161.44L10.32 163.14ZM4.76 161.44L3.43 155.42L-2.13 153.72L-6.38 158.04L-5.05 164.05L0.51 165.75ZM17.50 148.50L16.18 142.48L10.61 140.78L6.36 145.09L7.68 151.11L13.25 152.81ZM45.04 179.39L43.72 173.38L38.16 171.67L33.91 175.98L35.22 181.99L40.79 183.70ZM35.22 181.99L33.91 175.98L28.34 174.27L24.09 178.58L25.41 184.59L30.97 186.30ZM47.98 169.07L46.66 163.05L41.09 161.34L36.84 165.65L38.16 171.67L43.72 173.38ZM38.16 171.67L36.84 165.65L31.27 163.94L27.02 168.25L28.34 174.27L33.91 175.98ZM54.86 176.80L53.55 170.78L47.98 169.07L43.72 173.38L45.04 179.39L50.61 181.10ZM108.04 86.30L106.73 80.27L101.14 78.55L96.86 82.87L98.17 88.90L103.76 90.62ZM98.17 88.90L96.86 82.87L91.28 81.15L87.00 85.47L88.31 91.50L93.90 93.22ZM111.01 75.95L109.70 69.91L104.11 68.19L99.83 72.51L101.14 78.55L106.73 80.27ZM101.14 78.55L99.83 72.51L94.24 70.79L89.96 75.11L91.28 81.15L96.86 82.87ZM114.94 94.06L113.63 88.02L108.04 86.30L103.76 90.62L105.07 96.66L110.66 98.38ZM105.07 96.66L103.76 90.62L98.17 88.90L93.90 93.22L95.21 99.25L100.80 100.97ZM117.91 83.71L116.60 77.67L111.01 75.95L106.73 80.27L108.04 86.30L113.63 88.02ZM81.41 83.75L80.10 77.72L74.51 76.00L70.24 80.33L71.56 86.36L77.14 88.07ZM71.56 86.36L70.24 80.33L64.66 78.61L60.39 82.94L61.70 88.97L67.29 90.68ZM84.37 73.40L83.06 67.36L77.47 65.65L73.20 69.97L74.51 76.00L80.10 77.72ZM74.51 76.00L73.20 69.97L67.61 68.26L63.34 72.58L64.66 78.61L70.24 80.33ZM88.31 91.50L87.00 85.47L81.41 83.75L77.14 88.07L78.46 94.11L84.04 95.82ZM78.46 94.11L77.14 88.07L71.56 86.36L67.29 90.68L68.60 96.71L74.19 98.42ZM91.28 81.15L89.96 75.11L84.37 73.40L80.10 77.72L81.41 83.75L87.00 85.47ZM120.88 73.35L119.58 67.31L113.98 65.59L109.70 69.91L111.01 75.95L116.60 77.67ZM118.86 112.17L117.55 106.13L111.97 104.41L107.69 108.73L109.00 114.76L114.58 116.48ZM109.00 114.76L107.69 108.73L102.11 107.01L97.83 111.32L99.14 117.35L104.72 119.07ZM121.83 101.82L120.53 95.78L114.94 94.06L110.66 98.38L111.97 104.41L117.55 106.13ZM111.97 104.41L110.66 98.38L105.07 96.66L100.80 100.97L102.11 107.01L107.69 108.73ZM125.75 119.93L124.45 113.89L118.86 112.17L114.58 116.48L115.89 122.51L121.47 124.24ZM115.89 122.51L114.58 116.48L109.00 114.76L104.72 119.07L106.03 125.10L111.61 126.82ZM128.73 109.58L127.42 103.54L121.83 101.82L117.55 106.13L118.86 112.17L124.45 113.89ZM92.25 109.60L90.94 103.57L85.35 101.85L81.08 106.17L82.39 112.20L87.98 113.92ZM82.39 112.20L81.08 106.17L75.50 104.45L71.23 108.77L72.54 114.80L78.13 116.51ZM95.21 99.25L93.90 93.22L88.31 91.50L84.04 95.82L85.35 101.85L90.94 103.57ZM85.35 101.85L84.04 95.82L78.46 94.11L74.19 98.42L75.50 104.45L81.08 106.17ZM99.14 117.35L97.83 111.32L92.25 109.60L87.98 113.92L89.29 119.95L94.87 121.66ZM89.29 119.95L87.98 113.92L82.39 112.20L78.13 116.51L79.44 122.54L85.02 124.26ZM102.11 107.01L100.80 100.97L95.21 99.25L90.94 103.57L92.25 109.60L97.83 111.32ZM134.68 88.88L133.38 82.84L127.78 81.11L123.50 85.43L124.81 91.47L130.40 93.19ZM124.81 91.47L123.50 85.43L117.91 83.71L113.63 88.02L114.94 94.06L120.53 95.78ZM127.78 81.11L126.48 75.07L120.88 73.35L116.60 77.67L117.91 83.71L123.50 85.43ZM141.58 96.64L140.27 90.60L134.68 88.88L130.40 93.19L131.70 99.23L137.29 100.96ZM131.70 99.23L130.40 93.19L124.81 91.47L120.53 95.78L121.83 101.82L127.42 103.54ZM252.50 249.48L251.21 243.45L245.64 241.70L241.34 245.98L242.63 252.01L248.20 253.76ZM242.63 252.01L241.34 245.98L235.77 244.23L231.48 248.51L232.76 254.53L238.34 256.28ZM255.51 239.17L254.22 233.14L248.64 231.38L244.35 235.66L245.64 241.70L251.21 243.45ZM245.64 241.70L244.35 235.66L238.77 233.91L234.48 238.20L235.77 244.23L241.34 245.98ZM259.35 257.26L258.07 251.23L252.50 249.48L248.20 253.76L249.49 259.79L255.06 261.54ZM249.49 259.79L248.20 253.76L242.63 252.01L238.34 256.28L239.62 262.31L245.20 264.06ZM262.37 246.95L261.09 240.92L255.51 239.17L251.21 243.45L252.50 249.48L258.07 251.23ZM225.90 246.76L224.62 240.73L219.04 238.98L214.76 243.27L216.04 249.29L221.62 251.04ZM216.04 249.29L214.76 243.27L209.18 241.52L204.90 245.80L206.19 251.83L211.76 253.57ZM228.91 236.45L227.62 230.42L222.04 228.67L217.75 232.96L219.04 238.98L224.62 240.73ZM219.04 238.98L217.75 232.96L212.18 231.21L207.89 235.49L209.18 241.52L214.76 243.27ZM232.76 254.53L231.48 248.51L225.90 246.76L221.62 251.04L222.90 257.06L228.48 258.81ZM222.90 257.06L221.62 251.04L216.04 249.29L211.76 253.57L213.05 259.60L218.62 261.34ZM235.77 244.23L234.48 238.20L228.91 236.45L224.62 240.73L225.90 246.76L231.48 248.51ZM258.52 228.85L257.24 222.82L251.66 221.07L247.36 225.35L248.64 231.38L254.22 233.14ZM261.54 218.54L260.25 212.50L254.67 210.75L250.37 215.03L251.66 221.07L257.24 222.82ZM265.38 236.64L264.10 230.61L258.52 228.85L254.22 233.14L255.51 239.17L261.09 240.92ZM241.78 223.60L240.49 217.57L234.91 215.82L230.62 220.10L231.91 226.13L237.49 227.88ZM231.91 226.13L230.62 220.10L225.04 218.36L220.75 222.64L222.04 228.67L227.62 230.42ZM244.79 213.28L243.50 207.25L237.92 205.50L233.63 209.78L234.91 215.82L240.49 217.57ZM234.91 215.82L233.63 209.78L228.05 208.04L223.75 212.32L225.04 218.36L230.62 220.10ZM248.64 231.38L247.36 225.35L241.78 223.60L237.49 227.88L238.77 233.91L244.35 235.66ZM238.77 233.91L237.49 227.88L231.91 226.13L227.62 230.42L228.91 236.45L234.48 238.20ZM251.66 221.07L250.37 215.03L244.79 213.28L240.49 217.57L241.78 223.60L247.36 225.35ZM239.62 262.31L238.34 256.28L232.76 254.53L228.48 258.81L229.76 264.84L235.33 266.59ZM135.45 212.92L134.15 206.90L128.58 205.17L124.31 209.47L125.61 215.49L131.18 217.22ZM138.42 202.61L137.12 196.58L131.55 194.86L127.27 199.15L128.58 205.17L134.15 206.90ZM128.58 205.17L127.27 199.15L121.70 197.43L117.44 201.72L118.74 207.74L124.31 209.47ZM142.32 220.68L141.02 214.65L135.45 212.92L131.18 217.22L132.48 223.24L138.05 224.97ZM145.29 210.36L143.99 204.34L138.42 202.61L134.15 206.90L135.45 212.92L141.02 214.65ZM118.74 207.74L117.44 201.72L111.86 200.00L107.60 204.29L108.90 210.31L114.47 212.04ZM151.24 189.72L149.94 183.69L144.37 181.96L140.09 186.26L141.39 192.29L146.97 194.02ZM141.39 192.29L140.09 186.26L134.52 184.53L130.24 188.83L131.55 194.86L137.12 196.58ZM154.22 179.40L152.92 173.37L147.34 171.64L143.06 175.94L144.37 181.96L149.94 183.69ZM144.37 181.96L143.06 175.94L137.49 174.21L133.21 178.51L134.52 184.53L140.09 186.26ZM158.12 197.48L156.82 191.45L151.24 189.72L146.97 194.02L148.27 200.04L153.84 201.77ZM148.27 200.04L146.97 194.02L141.39 192.29L137.12 196.58L138.42 202.61L143.99 204.34ZM161.10 187.16L159.80 181.13L154.22 179.40L149.94 183.69L151.24 189.72L156.82 191.45ZM124.67 187.10L123.37 181.08L117.79 179.35L113.52 183.65L114.83 189.68L120.40 191.40ZM114.83 189.68L113.52 183.65L107.95 181.93L103.68 186.23L104.99 192.25L110.56 193.98ZM127.64 176.78L126.33 170.75L120.76 169.03L116.49 173.33L117.79 179.35L123.37 181.08ZM117.79 179.35L116.49 173.33L110.91 171.61L106.64 175.91L107.95 181.93L113.52 183.65ZM131.55 194.86L130.24 188.83L124.67 187.10L120.40 191.40L121.70 197.43L127.27 199.15ZM121.70 197.43L120.40 191.40L114.83 189.68L110.56 193.98L111.86 200.00L117.44 201.72ZM134.52 184.53L133.21 178.51L127.64 176.78L123.37 181.08L124.67 187.10L130.24 188.83ZM149.19 228.43L147.89 222.41L142.32 220.68L138.05 224.97L139.35 230.99L144.92 232.72ZM156.06 236.18L154.76 230.16L149.19 228.43L144.92 232.72L146.22 238.74L151.79 240.47ZM162.01 215.56L160.71 209.53L155.14 207.80L150.86 212.09L152.16 218.12L157.74 219.85ZM152.16 218.12L150.86 212.09L145.29 210.36L141.02 214.65L142.32 220.68L147.89 222.41ZM164.99 205.24L163.69 199.21L158.12 197.48L153.84 201.77L155.14 207.80L160.71 209.53ZM155.14 207.80L153.84 201.77L148.27 200.04L143.99 204.34L145.29 210.36L150.86 212.09ZM168.88 223.32L167.58 217.29L162.01 215.56L157.74 219.85L159.03 225.87L164.60 227.61ZM159.03 225.87L157.74 219.85L152.16 218.12L147.89 222.41L149.19 228.43L154.76 230.16ZM171.86 213.00L170.57 206.98L164.99 205.24L160.71 209.53L162.01 215.56L167.58 217.29ZM85.32 197.41L84.02 191.39L78.45 189.68L74.19 193.98L75.50 199.99L81.07 201.71ZM186.49 256.91L185.20 250.89L179.63 249.15L175.35 253.43L176.65 259.45L182.21 261.19ZM176.65 259.45L175.35 253.43L169.79 251.69L165.51 255.98L166.81 262.00L172.37 263.73ZM199.33 244.06L198.04 238.04L192.46 236.29L188.18 240.58L189.48 246.60L195.05 248.34ZM189.48 246.60L188.18 240.58L182.61 238.84L178.33 243.13L179.63 249.15L185.20 250.89ZM202.32 233.75L201.03 227.72L195.45 225.98L191.17 230.27L192.46 236.29L198.04 238.04ZM192.46 236.29L191.17 230.27L185.60 228.53L181.32 232.82L182.61 238.84L188.18 240.58ZM206.19 251.83L204.90 245.80L199.33 244.06L195.05 248.34L196.34 254.37L201.91 256.11ZM196.34 254.37L195.05 248.34L189.48 246.60L185.20 250.89L186.49 256.91L192.06 258.65ZM209.18 241.52L207.89 235.49L202.32 233.75L198.04 238.04L199.33 244.06L204.90 245.80ZM172.76 241.39L171.47 235.37L165.90 233.63L161.63 237.92L162.92 243.94L168.49 245.67ZM162.92 243.94L161.63 237.92L156.06 236.18L151.79 240.47L153.08 246.49L158.65 248.22ZM175.75 231.08L174.45 225.05L168.88 223.32L164.60 227.61L165.90 233.63L171.47 235.37ZM165.90 233.63L164.60 227.61L159.03 225.87L154.76 230.16L156.06 236.18L161.63 237.92ZM179.63 249.15L178.33 243.13L172.76 241.39L168.49 245.67L169.79 251.69L175.35 253.43ZM169.79 251.69L168.49 245.67L162.92 243.94L158.65 248.22L159.95 254.24L165.51 255.98ZM182.61 238.84L181.32 232.82L175.75 231.08L171.47 235.37L172.76 241.39L178.33 243.13ZM213.05 259.60L211.76 253.57L206.19 251.83L201.91 256.11L203.20 262.13L208.77 263.88ZM203.20 262.13L201.91 256.11L196.34 254.37L192.06 258.65L193.35 264.67L198.92 266.41ZM198.79 120.01L197.49 113.97L191.90 112.23L187.61 116.54L188.90 122.58L194.49 124.32ZM188.90 122.58L187.61 116.54L182.01 114.80L177.72 119.11L179.02 125.15L184.61 126.88ZM191.90 112.23L190.60 106.19L185.01 104.45L180.72 108.76L182.01 114.80L187.61 116.54ZM205.68 127.79L204.38 121.75L198.79 120.01L194.49 124.32L195.79 130.36L201.38 132.10ZM195.79 130.36L194.49 124.32L188.90 122.58L184.61 126.88L185.91 132.92L191.49 134.66ZM236.22 148.60L234.93 142.55L229.33 140.81L225.03 145.11L226.32 151.15L231.91 152.89ZM226.32 151.15L225.03 145.11L219.44 143.36L215.15 147.66L216.44 153.70L222.03 155.45ZM229.33 140.81L228.04 134.76L222.45 133.02L218.15 137.32L219.44 143.36L225.03 145.11ZM243.09 156.39L241.81 150.34L236.22 148.60L231.91 152.89L233.20 158.94L238.79 160.68ZM233.20 158.94L231.91 152.89L226.32 151.15L222.03 155.45L223.32 161.49L228.90 163.23ZM209.56 145.92L208.26 139.88L202.67 138.14L198.38 142.44L199.67 148.48L205.26 150.22ZM199.67 148.48L198.38 142.44L192.79 140.70L188.50 145.00L189.79 151.04L195.38 152.78ZM212.56 135.58L211.27 129.53L205.68 127.79L201.38 132.10L202.67 138.14L208.26 139.88ZM202.67 138.14L201.38 132.10L195.79 130.36L191.49 134.66L192.79 140.70L198.38 142.44ZM216.44 153.70L215.15 147.66L209.56 145.92L205.26 150.22L206.55 156.26L212.14 158.00ZM206.55 156.26L205.26 150.22L199.67 148.48L195.38 152.78L196.68 158.82L202.26 160.56ZM219.44 143.36L218.15 137.32L212.56 135.58L208.26 139.88L209.56 145.92L215.15 147.66ZM156.28 140.63L154.98 134.60L149.40 132.87L145.11 137.17L146.42 143.21L152.00 144.94ZM146.42 143.21L145.11 137.17L139.53 135.45L135.25 139.75L136.55 145.78L142.14 147.51ZM159.27 130.29L157.97 124.26L152.38 122.53L148.09 126.83L149.40 132.87L154.98 134.60ZM149.40 132.87L148.09 126.83L142.51 125.10L138.23 129.41L139.53 135.45L145.11 137.17ZM163.17 148.40L161.87 142.37L156.28 140.63L152.00 144.94L153.30 150.97L158.88 152.70ZM153.30 150.97L152.00 144.94L146.42 143.21L142.14 147.51L143.44 153.54L149.02 155.27ZM166.15 138.06L164.85 132.02L159.27 130.29L154.98 134.60L156.28 140.63L161.87 142.37ZM129.67 138.03L128.36 131.99L122.78 130.27L118.50 134.58L119.81 140.61L125.39 142.33ZM119.81 140.61L118.50 134.58L112.92 132.85L108.65 137.16L109.96 143.19L115.54 144.92ZM132.64 127.69L131.34 121.65L125.75 119.93L121.47 124.24L122.78 130.27L128.36 131.99ZM122.78 130.27L121.47 124.24L115.89 122.51L111.61 126.82L112.92 132.85L118.50 134.58ZM136.55 145.78L135.25 139.75L129.67 138.03L125.39 142.33L126.70 148.36L132.28 150.09ZM126.70 148.36L125.39 142.33L119.81 140.61L115.54 144.92L116.84 150.94L122.42 152.67ZM139.53 135.45L138.23 129.41L132.64 127.69L128.36 131.99L129.67 138.03L135.25 139.75ZM172.13 117.37L170.83 111.33L165.24 109.60L160.95 113.91L162.25 119.95L167.84 121.68ZM162.25 119.95L160.95 113.91L155.36 112.18L151.08 116.49L152.38 122.53L157.97 124.26ZM175.12 107.02L173.82 100.98L168.23 99.25L163.94 103.56L165.24 109.60L170.83 111.33ZM165.24 109.60L163.94 103.56L158.35 101.83L154.06 106.14L155.36 112.18L160.95 113.91ZM179.02 125.15L177.72 119.11L172.13 117.37L167.84 121.68L169.14 127.72L174.73 129.45ZM169.14 127.72L167.84 121.68L162.25 119.95L157.97 124.26L159.27 130.29L164.85 132.02ZM182.01 114.80L180.72 108.76L175.12 107.02L170.83 111.33L172.13 117.37L177.72 119.11ZM145.49 114.76L144.18 108.72L138.60 106.99L134.31 111.31L135.62 117.34L141.20 119.07ZM135.62 117.34L134.31 111.31L128.73 109.58L124.45 113.89L125.75 119.93L131.34 121.65ZM148.47 104.41L147.17 98.37L141.58 96.64L137.29 100.96L138.60 106.99L144.18 108.72ZM138.60 106.99L137.29 100.96L131.70 99.23L127.42 103.54L128.73 109.58L134.31 111.31ZM152.38 122.53L151.08 116.49L145.49 114.76L141.20 119.07L142.51 125.10L148.09 126.83ZM142.51 125.10L141.20 119.07L135.62 117.34L131.34 121.65L132.64 127.69L138.23 129.41ZM155.36 112.18L154.06 106.14L148.47 104.41L144.18 108.72L145.49 114.76L151.08 116.49ZM167.06 166.50L165.76 160.47L160.18 158.74L155.90 163.04L157.20 169.07L162.78 170.80ZM157.20 169.07L155.90 163.04L150.32 161.31L146.04 165.61L147.34 171.64L152.92 173.37ZM170.05 156.17L168.75 150.13L163.17 148.40L158.88 152.70L160.18 158.74L165.76 160.47ZM160.18 158.74L158.88 152.70L153.30 150.97L149.02 155.27L150.32 161.31L155.90 163.04ZM173.94 174.27L172.64 168.24L167.06 166.50L162.78 170.80L164.08 176.83L169.66 178.57ZM164.08 176.83L162.78 170.80L157.20 169.07L152.92 173.37L154.22 179.40L159.80 181.13ZM176.93 163.94L175.63 157.90L170.05 156.17L165.76 160.47L167.06 166.50L172.64 168.24ZM140.46 163.88L139.16 157.85L133.58 156.12L129.30 160.42L130.61 166.45L136.19 168.18ZM130.61 166.45L129.30 160.42L123.73 158.70L119.45 163.00L120.76 169.03L126.33 170.75ZM143.44 153.54L142.14 147.51L136.55 145.78L132.28 150.09L133.58 156.12L139.16 157.85ZM133.58 156.12L132.28 150.09L126.70 148.36L122.42 152.67L123.73 158.70L129.30 160.42ZM147.34 171.64L146.04 165.61L140.46 163.88L136.19 168.18L137.49 174.21L143.06 175.94ZM137.49 174.21L136.19 168.18L130.61 166.45L126.33 170.75L127.64 176.78L133.21 178.51ZM150.32 161.31L149.02 155.27L143.44 153.54L139.16 157.85L140.46 163.88L146.04 165.61ZM182.91 143.26L181.61 137.23L176.03 135.49L171.74 139.79L173.04 145.83L178.62 147.57ZM173.04 145.83L171.74 139.79L166.15 138.06L161.87 142.37L163.17 148.40L168.75 150.13ZM185.91 132.92L184.61 126.88L179.02 125.15L174.73 129.45L176.03 135.49L181.61 137.23ZM176.03 135.49L174.73 129.45L169.14 127.72L164.85 132.02L166.15 138.06L171.74 139.79ZM189.79 151.04L188.50 145.00L182.91 143.26L178.62 147.57L179.92 153.60L185.50 155.34ZM179.92 153.60L178.62 147.57L173.04 145.83L168.75 150.13L170.05 156.17L175.63 157.90ZM192.79 140.70L191.49 134.66L185.91 132.92L181.61 137.23L182.91 143.26L188.50 145.00ZM185.01 104.45L183.71 98.41L178.12 96.67L173.82 100.98L175.12 107.02L180.72 108.76ZM161.34 91.47L160.04 85.43L154.44 83.70L150.15 88.02L151.45 94.06L157.05 95.79ZM151.45 94.06L150.15 88.02L144.56 86.29L140.27 90.60L141.58 96.64L147.17 98.37ZM158.35 101.83L157.05 95.79L151.45 94.06L147.17 98.37L148.47 104.41L154.06 106.14ZM246.96 174.51L245.67 168.47L240.08 166.72L235.78 171.02L237.07 177.06L242.66 178.81ZM237.07 177.06L235.78 171.02L230.19 169.27L225.90 173.56L227.19 179.60L232.77 181.35ZM240.08 166.72L238.79 160.68L233.20 158.94L228.90 163.23L230.19 169.27L235.78 171.02ZM253.83 182.31L252.54 176.26L246.96 174.51L242.66 178.81L243.94 184.85L249.53 186.60ZM243.94 184.85L242.66 178.81L237.07 177.06L232.77 181.35L234.06 187.39L239.64 189.14ZM256.85 171.97L255.56 165.93L249.97 164.18L245.67 168.47L246.96 174.51L252.54 176.26ZM257.68 200.42L256.40 194.39L250.81 192.63L246.52 196.92L247.80 202.96L253.38 204.71ZM247.80 202.96L246.52 196.92L240.93 195.17L236.63 199.46L237.92 205.50L243.50 207.25ZM260.70 190.10L259.42 184.06L253.83 182.31L249.53 186.60L250.81 192.63L256.40 194.39ZM250.81 192.63L249.53 186.60L243.94 184.85L239.64 189.14L240.93 195.17L246.52 196.92ZM264.55 208.22L263.27 202.18L257.68 200.42L253.38 204.71L254.67 210.75L260.25 212.50ZM254.67 210.75L253.38 204.71L247.80 202.96L243.50 207.25L244.79 213.28L250.37 215.03ZM204.43 195.03L203.14 188.99L197.56 187.25L193.27 191.54L194.57 197.58L200.15 199.32ZM194.57 197.58L193.27 191.54L187.69 189.81L183.41 194.10L184.70 200.13L190.28 201.87ZM207.43 184.70L206.14 178.67L200.56 176.92L196.27 181.22L197.56 187.25L203.14 188.99ZM197.56 187.25L196.27 181.22L190.69 179.48L186.40 183.77L187.69 189.81L193.27 191.54ZM211.31 202.80L210.01 196.77L204.43 195.03L200.15 199.32L201.44 205.35L207.02 207.09ZM201.44 205.35L200.15 199.32L194.57 197.58L190.28 201.87L191.58 207.90L197.15 209.64ZM214.31 192.48L213.01 186.44L207.43 184.70L203.14 188.99L204.43 195.03L210.01 196.77ZM177.83 192.36L176.53 186.33L170.96 184.60L166.67 188.89L167.97 194.92L173.55 196.66ZM167.97 194.92L166.67 188.89L161.10 187.16L156.82 191.45L158.12 197.48L163.69 199.21ZM180.82 182.04L179.52 176.00L173.94 174.27L169.66 178.57L170.96 184.60L176.53 186.33ZM170.96 184.60L169.66 178.57L164.08 176.83L159.80 181.13L161.10 187.16L166.67 188.89ZM184.70 200.13L183.41 194.10L177.83 192.36L173.55 196.66L174.84 202.68L180.42 204.42ZM174.84 202.68L173.55 196.66L167.97 194.92L163.69 199.21L164.99 205.24L170.57 206.98ZM187.69 189.81L186.40 183.77L180.82 182.04L176.53 186.33L177.83 192.36L183.41 194.10ZM220.31 171.82L219.02 165.78L213.43 164.04L209.14 168.33L210.43 174.37L216.02 176.11ZM210.43 174.37L209.14 168.33L203.55 166.59L199.26 170.89L200.56 176.92L206.14 178.67ZM223.32 161.49L222.03 155.45L216.44 153.70L212.14 158.00L213.43 164.04L219.02 165.78ZM213.43 164.04L212.14 158.00L206.55 156.26L202.26 160.56L203.55 166.59L209.14 168.33ZM227.19 179.60L225.90 173.56L220.31 171.82L216.02 176.11L217.31 182.15L222.89 183.90ZM217.31 182.15L216.02 176.11L210.43 174.37L206.14 178.67L207.43 184.70L213.01 186.44ZM230.19 169.27L228.90 163.23L223.32 161.49L219.02 165.78L220.31 171.82L225.90 173.56ZM193.68 169.15L192.38 163.11L186.80 161.38L182.51 165.67L183.81 171.71L189.39 173.45ZM183.81 171.71L182.51 165.67L176.93 163.94L172.64 168.24L173.94 174.27L179.52 176.00ZM196.68 158.82L195.38 152.78L189.79 151.04L185.50 155.34L186.80 161.38L192.38 163.11ZM186.80 161.38L185.50 155.34L179.92 153.60L175.63 157.90L176.93 163.94L182.51 165.67ZM200.56 176.92L199.26 170.89L193.68 169.15L189.39 173.45L190.69 179.48L196.27 181.22ZM190.69 179.48L189.39 173.45L183.81 171.71L179.52 176.00L180.82 182.04L186.40 183.77ZM203.55 166.59L202.26 160.56L196.68 158.82L192.38 163.11L193.68 169.15L199.26 170.89ZM215.18 220.90L213.89 214.87L208.31 213.12L204.02 217.41L205.31 223.44L210.89 225.18ZM205.31 223.44L204.02 217.41L198.44 215.67L194.16 219.96L195.45 225.98L201.03 227.72ZM218.18 210.58L216.89 204.55L211.31 202.80L207.02 207.09L208.31 213.12L213.89 214.87ZM208.31 213.12L207.02 207.09L201.44 205.35L197.15 209.64L198.44 215.67L204.02 217.41ZM222.04 228.67L220.75 222.64L215.18 220.90L210.89 225.18L212.18 231.21L217.75 232.96ZM212.18 231.21L210.89 225.18L205.31 223.44L201.03 227.72L202.32 233.75L207.89 235.49ZM225.04 218.36L223.75 212.32L218.18 210.58L213.89 214.87L215.18 220.90L220.75 222.64ZM188.59 218.22L187.29 212.19L181.72 210.45L177.44 214.74L178.73 220.77L184.30 222.50ZM178.73 220.77L177.44 214.74L171.86 213.00L167.58 217.29L168.88 223.32L174.45 225.05ZM191.58 207.90L190.28 201.87L184.70 200.13L180.42 204.42L181.72 210.45L187.29 212.19ZM181.72 210.45L180.42 204.42L174.84 202.68L170.57 206.98L171.86 213.00L177.44 214.74ZM195.45 225.98L194.16 219.96L188.59 218.22L184.30 222.50L185.60 228.53L191.17 230.27ZM185.60 228.53L184.30 222.50L178.73 220.77L174.45 225.05L175.75 231.08L181.32 232.82ZM198.44 215.67L197.15 209.64L191.58 207.90L187.29 212.19L188.59 218.22L194.16 219.96ZM231.05 197.71L229.76 191.68L224.18 189.93L219.89 194.22L221.18 200.26L226.76 202.00ZM221.18 200.26L219.89 194.22L214.31 192.48L210.01 196.77L211.31 202.80L216.89 204.55ZM234.06 187.39L232.77 181.35L227.19 179.60L222.89 183.90L224.18 189.93L229.76 191.68ZM224.18 189.93L222.89 183.90L217.31 182.15L213.01 186.44L214.31 192.48L219.89 194.22ZM237.92 205.50L236.63 199.46L231.05 197.71L226.76 202.00L228.05 208.04L233.63 209.78ZM228.05 208.04L226.76 202.00L221.18 200.26L216.89 204.55L218.18 210.58L223.75 212.32ZM240.93 195.17L239.64 189.14L234.06 187.39L229.76 191.68L231.05 197.71L236.63 199.46Z"/><path data-band="3" fill="#dc2626" fill-opacity="0.35" d="M1.00 238.73L-0.32 232.73L-5.88 231.03L-10.11 235.33L-8.79 241.33L-3.24 243.03ZM4.95 256.74L3.63 250.74L-1.92 249.03L-6.15 253.33L-4.83 259.33L0.72 261.03ZM7.87 246.44L6.55 240.44L1.00 238.73L-3.24 243.03L-1.92 249.03L3.63 250.74ZM13.71 225.84L12.39 219.83L6.83 218.13L2.59 222.43L3.91 228.43L9.47 230.14ZM3.91 228.43L2.59 222.43L-2.96 220.73L-7.20 225.03L-5.88 231.03L-0.32 232.73ZM16.63 215.53L15.31 209.52L9.75 207.82L5.51 212.12L6.83 218.13L12.39 219.83ZM6.83 218.13L5.51 212.12L-0.05 210.42L-4.28 214.72L-2.96 220.73L2.59 222.43ZM20.58 233.55L19.26 227.54L13.71 225.84L9.47 230.14L10.79 236.14L16.34 237.85ZM10.79 236.14L9.47 230.14L3.91 228.43L-0.32 232.73L1.00 238.73L6.55 240.44ZM23.50 223.24L22.19 217.24L16.63 215.53L12.39 219.83L13.71 225.84L19.26 227.54ZM24.53 251.56L23.21 245.56L17.66 243.85L13.42 248.15L14.74 254.15L20.29 255.85ZM14.74 254.15L13.42 248.15L7.87 246.44L3.63 250.74L4.95 256.74L10.50 258.44ZM27.45 241.26L26.13 235.26L20.58 233.55L16.34 237.85L17.66 243.85L23.21 245.56ZM17.66 243.85L16.34 237.85L10.79 236.14L6.55 240.44L7.87 246.44L13.42 248.15ZM31.39 259.27L30.08 253.27L24.53 251.56L20.29 255.85L21.60 261.85L27.15 263.56ZM21.60 261.85L20.29 255.85L14.74 254.15L10.50 258.44L11.82 264.44L17.37 266.15ZM34.32 248.97L33.01 242.97L27.45 241.26L23.21 245.56L24.53 251.56L30.08 253.27ZM61.74 184.53L60.43 178.51L54.86 176.80L50.61 181.10L51.92 187.12L57.49 188.83ZM68.62 192.26L67.31 186.24L61.74 184.53L57.49 188.83L58.80 194.85L64.37 196.56ZM25.41 184.59L24.09 178.58L18.53 176.87L14.28 181.18L15.60 187.19L21.16 188.89ZM15.60 187.19L14.28 181.18L8.72 179.47L4.47 183.78L5.79 189.79L11.36 191.50ZM29.36 202.62L28.04 196.61L22.48 194.91L18.24 199.21L19.55 205.22L25.11 206.93ZM19.55 205.22L18.24 199.21L12.67 197.51L8.43 201.81L9.75 207.82L15.31 209.52ZM32.29 192.31L30.97 186.30L25.41 184.59L21.16 188.89L22.48 194.91L28.04 196.61ZM22.48 194.91L21.16 188.89L15.60 187.19L11.36 191.50L12.67 197.51L18.24 199.21ZM36.24 210.34L34.92 204.33L29.36 202.62L25.11 206.93L26.43 212.94L31.99 214.64ZM26.43 212.94L25.11 206.93L19.55 205.22L15.31 209.52L16.63 215.53L22.19 217.24ZM39.17 200.03L37.85 194.02L32.29 192.31L28.04 196.61L29.36 202.62L34.92 204.33ZM2.87 200.11L1.55 194.10L-4.01 192.40L-8.24 196.70L-6.92 202.71L-1.37 204.41ZM5.79 189.79L4.47 183.78L-1.09 182.08L-5.33 186.39L-4.01 192.40L1.55 194.10ZM9.75 207.82L8.43 201.81L2.87 200.11L-1.37 204.41L-0.05 210.42L5.51 212.12ZM12.67 197.51L11.36 191.50L5.79 189.79L1.55 194.10L2.87 200.11L8.43 201.81ZM51.92 187.12L50.61 181.10L45.04 179.39L40.79 183.70L42.10 189.71L47.67 191.42ZM42.10 189.71L40.79 183.70L35.22 181.99L30.97 186.30L32.29 192.31L37.85 194.02ZM130.45 261.90L129.15 255.89L123.59 254.16L119.33 258.44L120.63 264.46L126.19 266.18ZM133.42 251.60L132.12 245.58L126.55 243.85L122.29 248.14L123.59 254.16L129.15 255.89ZM123.59 254.16L122.29 248.14L116.73 246.42L112.46 250.70L113.77 256.72L119.33 258.44ZM140.28 259.35L138.98 253.33L133.42 251.60L129.15 255.89L130.45 261.90L136.02 263.63ZM103.95 259.28L102.64 253.27L97.08 251.55L92.83 255.83L94.13 261.84L99.69 263.57ZM94.13 261.84L92.83 255.83L87.27 254.11L83.02 258.40L84.32 264.41L89.88 266.13ZM106.90 248.98L105.60 242.97L100.04 241.24L95.78 245.53L97.08 251.55L102.64 253.27ZM97.08 251.55L95.78 245.53L90.22 243.81L85.96 248.10L87.27 254.11L92.83 255.83ZM113.77 256.72L112.46 250.70L106.90 248.98L102.64 253.27L103.95 259.28L109.51 261.00ZM125.61 215.49L124.31 209.47L118.74 207.74L114.47 212.04L115.78 218.06L121.34 219.78ZM132.48 223.24L131.18 217.22L125.61 215.49L121.34 219.78L122.65 225.80L128.21 227.53ZM108.90 210.31L107.60 204.29L102.03 202.57L97.77 206.87L99.07 212.89L104.64 214.61ZM99.07 212.89L97.77 206.87L92.20 205.15L87.94 209.45L89.25 215.46L94.81 217.18ZM111.86 200.00L110.56 193.98L104.99 192.25L100.72 196.55L102.03 202.57L107.60 204.29ZM102.03 202.57L100.72 196.55L95.15 194.83L90.89 199.13L92.20 205.15L97.77 206.87ZM115.78 218.06L114.47 212.04L108.90 210.31L104.64 214.61L105.95 220.63L111.51 222.35ZM105.95 220.63L104.64 214.61L99.07 212.89L94.81 217.18L96.12 223.20L101.69 224.92ZM146.22 238.74L144.92 232.72L139.35 230.99L135.08 235.28L136.38 241.29L141.95 243.03ZM136.38 241.29L135.08 235.28L129.52 233.55L125.25 237.84L126.55 243.85L132.12 245.58ZM139.35 230.99L138.05 224.97L132.48 223.24L128.21 227.53L129.52 233.55L135.08 235.28ZM153.08 246.49L151.79 240.47L146.22 238.74L141.95 243.03L143.25 249.04L148.81 250.78ZM143.25 249.04L141.95 243.03L136.38 241.29L132.12 245.58L133.42 251.60L138.98 253.33ZM119.69 236.11L118.38 230.09L112.82 228.37L108.55 232.66L109.86 238.68L115.42 240.40ZM109.86 238.68L108.55 232.66L102.99 230.94L98.73 235.23L100.04 241.24L105.60 242.97ZM122.65 225.80L121.34 219.78L115.78 218.06L111.51 222.35L112.82 228.37L118.38 230.09ZM112.82 228.37L111.51 222.35L105.95 220.63L101.69 224.92L102.99 230.94L108.55 232.66ZM126.55 243.85L125.25 237.84L119.69 236.11L115.42 240.40L116.73 246.42L122.29 248.14ZM116.73 246.42L115.42 240.40L109.86 238.68L105.60 242.97L106.90 248.98L112.46 250.70ZM129.52 233.55L128.21 227.53L122.65 225.80L118.38 230.09L119.69 236.11L125.25 237.84ZM66.67 230.93L65.36 224.92L59.79 223.20L55.54 227.50L56.86 233.51L62.42 235.22ZM56.86 233.51L55.54 227.50L49.98 225.78L45.74 230.08L47.05 236.09L52.61 237.80ZM69.61 220.62L68.30 214.61L62.73 212.89L58.48 217.19L59.79 223.20L65.36 224.92ZM59.79 223.20L58.48 217.19L52.92 215.48L48.67 219.77L49.98 225.78L55.54 227.50ZM73.54 238.65L72.23 232.64L66.67 230.93L62.42 235.22L63.73 241.23L69.28 242.95ZM63.73 241.23L62.42 235.22L56.86 233.51L52.61 237.80L53.92 243.81L59.48 245.52ZM76.48 228.35L75.17 222.34L69.61 220.62L65.36 224.92L66.67 230.93L72.23 232.64ZM40.18 228.37L38.86 222.36L33.30 220.65L29.06 224.95L30.38 230.96L35.93 232.67ZM30.38 230.96L29.06 224.95L23.50 223.24L19.26 227.54L20.58 233.55L26.13 235.26ZM43.11 218.06L41.80 212.05L36.24 210.34L31.99 214.64L33.30 220.65L38.86 222.36ZM33.30 220.65L31.99 214.64L26.43 212.94L22.19 217.24L23.50 223.24L29.06 224.95ZM47.05 236.09L45.74 230.08L40.18 228.37L35.93 232.67L37.25 238.67L42.80 240.39ZM37.25 238.67L35.93 232.67L30.38 230.96L26.13 235.26L27.45 241.26L33.01 242.97ZM49.98 225.78L48.67 219.77L43.11 218.06L38.86 222.36L40.18 228.37L45.74 230.08ZM82.37 207.73L81.07 201.71L75.50 199.99L71.24 204.29L72.55 210.31L78.12 212.03ZM72.55 210.31L71.24 204.29L65.68 202.58L61.42 206.88L62.73 212.89L68.30 214.61ZM75.50 199.99L74.19 193.98L68.62 192.26L64.37 196.56L65.68 202.58L71.24 204.29ZM89.25 215.46L87.94 209.45L82.37 207.73L78.12 212.03L79.43 218.04L84.99 219.76ZM79.43 218.04L78.12 212.03L72.55 210.31L68.30 214.61L69.61 220.62L75.17 222.34ZM92.20 205.15L90.89 199.13L85.32 197.41L81.07 201.71L82.37 207.73L87.94 209.45ZM55.86 205.16L54.55 199.15L48.98 197.44L44.73 201.74L46.04 207.75L51.61 209.46ZM46.04 207.75L44.73 201.74L39.17 200.03L34.92 204.33L36.24 210.34L41.80 212.05ZM58.80 194.85L57.49 188.83L51.92 187.12L47.67 191.42L48.98 197.44L54.55 199.15ZM48.98 197.44L47.67 191.42L42.10 189.71L37.85 194.02L39.17 200.03L44.73 201.74ZM62.73 212.89L61.42 206.88L55.86 205.16L51.61 209.46L52.92 215.48L58.48 217.19ZM52.92 215.48L51.61 209.46L46.04 207.75L41.80 212.05L43.11 218.06L48.67 219.77ZM65.68 202.58L64.37 196.56L58.80 194.85L54.55 199.15L55.86 205.16L61.42 206.88ZM77.46 256.68L76.15 250.67L70.59 248.96L66.34 253.25L67.65 259.26L73.21 260.97ZM67.65 259.26L66.34 253.25L60.79 251.53L56.54 255.82L57.85 261.83L63.41 263.55ZM80.40 246.38L79.10 240.37L73.54 238.65L69.28 242.95L70.59 248.96L76.15 250.67ZM70.59 248.96L69.28 242.95L63.73 241.23L59.48 245.52L60.79 251.53L66.34 253.25ZM87.27 254.11L85.96 248.10L80.40 246.38L76.15 250.67L77.46 256.68L83.02 258.40ZM50.98 254.11L49.67 248.10L44.12 246.39L39.87 250.69L41.19 256.69L46.74 258.40ZM41.19 256.69L39.87 250.69L34.32 248.97L30.08 253.27L31.39 259.27L36.95 260.98ZM53.92 243.81L52.61 237.80L47.05 236.09L42.80 240.39L44.12 246.39L49.67 248.10ZM44.12 246.39L42.80 240.39L37.25 238.67L33.01 242.97L34.32 248.97L39.87 250.69ZM57.85 261.83L56.54 255.82L50.98 254.11L46.74 258.40L48.05 264.41L53.61 266.12ZM60.79 251.53L59.48 245.52L53.92 243.81L49.67 248.10L50.98 254.11L56.54 255.82ZM93.17 233.51L91.86 227.49L86.30 225.77L82.04 230.07L83.35 236.08L88.91 237.80ZM83.35 236.08L82.04 230.07L76.48 228.35L72.23 232.64L73.54 238.65L79.10 240.37ZM96.12 223.20L94.81 217.18L89.25 215.46L84.99 219.76L86.30 225.77L91.86 227.49ZM86.30 225.77L84.99 219.76L79.43 218.04L75.17 222.34L76.48 228.35L82.04 230.07ZM100.04 241.24L98.73 235.23L93.17 233.51L88.91 237.80L90.22 243.81L95.78 245.53ZM90.22 243.81L88.91 237.80L83.35 236.08L79.10 240.37L80.40 246.38L85.96 248.10ZM102.99 230.94L101.69 224.92L96.12 223.20L91.86 227.49L93.17 233.51L98.73 235.23ZM159.95 254.24L158.65 248.22L153.08 246.49L148.81 250.78L150.11 256.79L155.68 258.53ZM150.11 256.79L148.81 250.78L143.25 249.04L138.98 253.33L140.28 259.35L145.84 261.08ZM166.81 262.00L165.51 255.98L159.95 254.24L155.68 258.53L156.97 264.54L162.54 266.28Z"/></svg>
