<svg xmlns="http://www.w3.org/2000/svg" width="256" height="256" viewBox="0 0 256 256"><path data-band="1" fill="#fde68a" fill-opacity="0.35" d="M259.99 248.22L258.72 242.22L253.18 240.46L248.92 244.70L250.19 250.69L255.73 252.45ZM266.80 255.97L265.53 249.98L259.99 248.22L255.73 252.45L257.00 258.44L262.54 260.20Z"/><path data-band="2" fill="#f97316" fill-opacity="0.35" d="M264.03 47.72L262.75 41.70L257.18 39.95L252.89 44.21L254.17 50.24L259.74 51.99ZM267.04 37.43L265.76 31.40L260.19 29.65L255.90 33.92L257.18 39.95L262.75 41.70ZM231.47 65.56L230.19 59.54L224.63 57.79L220.35 62.06L221.63 68.07L227.20 69.82ZM221.63 68.07L220.35 62.06L214.79 60.31L210.51 64.58L211.80 70.59L217.36 72.34ZM234.47 55.27L233.19 49.25L227.62 47.50L223.34 51.77L224.63 57.79L230.19 59.54ZM224.63 57.79L223.34 51.77L217.78 50.02L213.50 54.29L214.79 60.31L220.35 62.06ZM238.32 73.32L237.04 67.31L231.47 65.56L227.20 69.82L228.48 75.84L234.04 77.59ZM228.48 75.84L227.20 69.82L221.63 68.07L217.36 72.34L218.64 78.35L224.20 80.10ZM241.32 63.04L240.04 57.02L234.47 55.27L230.19 59.54L231.47 65.56L237.04 67.31ZM204.95 62.83L203.66 56.82L198.10 55.07L193.83 59.34L195.12 65.36L200.68 67.10ZM195.12 65.36L193.83 59.34L188.27 57.60L184.00 61.87L185.29 67.89L190.85 69.63ZM207.94 52.55L206.65 46.53L201.09 44.79L196.81 49.06L198.10 55.07L203.66 56.82ZM198.10 55.07L196.81 49.06L191.25 47.32L186.98 51.59L188.27 57.60L193.83 59.34ZM211.80 70.59L210.51 64.58L204.95 62.83L200.68 67.10L201.97 73.11L207.52 74.86ZM201.97 73.11L200.68 67.10L195.12 65.36L190.85 69.63L192.14 75.64L197.70 77.38ZM214.79 60.31L213.50 54.29L207.94 52.55L203.66 56.82L204.95 62.83L210.51 64.58ZM247.32 42.46L246.04 36.44L240.47 34.69L236.19 38.96L237.47 44.98L243.04 46.73ZM237.47 44.98L236.19 38.96L230.62 37.21L226.34 41.48L227.62 47.50L233.19 49.25ZM250.33 32.17L249.04 26.14L243.47 24.39L239.19 28.66L240.47 34.69L246.04 36.44ZM240.47 34.69L239.19 28.66L233.62 26.91L229.33 31.19L230.62 37.21L236.19 38.96ZM254.17 50.24L252.89 44.21L247.32 42.46L243.04 46.73L244.32 52.75L249.88 54.51ZM244.32 52.75L243.04 46.73L237.47 44.98L233.19 49.25L234.47 55.27L240.04 57.02ZM257.18 39.95L255.90 33.92L250.33 32.17L246.04 36.44L247.32 42.46L252.89 44.21ZM220.77 39.73L219.49 33.71L213.92 31.96L209.64 36.24L210.93 42.26L216.49 44.00ZM210.93 42.26L209.64 36.24L204.07 34.49L199.80 38.77L201.09 44.79L206.65 46.53ZM223.77 29.44L222.48 23.41L216.91 21.67L212.63 25.94L213.92 31.96L219.49 33.71ZM213.92 31.96L212.63 25.94L207.06 24.20L202.79 28.47L204.07 34.49L209.64 36.24ZM227.62 47.50L226.34 41.48L220.77 39.73L216.49 44.00L217.78 50.02L223.34 51.77ZM217.78 50.02L216.49 44.00L210.93 42.26L206.65 46.53L207.94 52.55L213.50 54.29ZM230.62 37.21L229.33 31.19L223.77 29.44L219.49 33.71L220.77 39.73L226.34 41.48ZM242.16 91.37L240.88 85.36L235.32 83.60L231.04 87.87L232.33 93.88L237.89 95.63ZM232.33 93.88L231.04 87.87L225.49 86.12L221.21 90.38L222.49 96.39L228.05 98.14ZM245.16 81.09L243.88 75.08L238.32 73.32L234.04 77.59L235.32 83.60L240.88 85.36ZM235.32 83.60L234.04 77.59L228.48 75.84L224.20 80.10L225.49 86.12L231.04 87.87ZM249.00 99.14L247.72 93.13L242.16 91.37L237.89 95.63L239.17 101.65L244.72 103.40ZM239.17 101.65L237.89 95.63L232.33 93.88L228.05 98.14L229.33 104.16L234.89 105.91ZM252.00 88.86L250.72 82.85L245.16 81.09L240.88 85.36L242.16 91.37L247.72 93.13ZM215.65 88.63L214.37 82.62L208.81 80.87L204.54 85.14L205.83 91.15L211.38 92.90ZM205.83 91.15L204.54 85.14L198.98 83.39L194.71 87.66L196.00 93.67L201.56 95.41ZM218.64 78.35L217.36 72.34L211.80 70.59L207.52 74.86L208.81 80.87L214.37 82.62ZM208.81 80.87L207.52 74.86L201.97 73.11L197.70 77.38L198.98 83.39L204.54 85.14ZM222.49 96.39L221.21 90.38L215.65 88.63L211.38 92.90L212.67 98.91L218.22 100.66ZM212.67 98.91L211.38 92.90L205.83 91.15L201.56 95.41L202.84 101.42L208.40 103.17ZM225.49 86.12L224.20 80.10L218.64 78.35L214.37 82.62L215.65 88.63L221.21 90.38ZM258.01 68.30L256.73 62.28L251.17 60.53L246.88 64.79L248.16 70.81L253.73 72.57ZM248.16 70.81L246.88 64.79L241.32 63.04L237.04 67.31L238.32 73.32L243.88 75.08ZM261.02 58.01L259.74 51.99L254.17 50.24L249.88 54.51L251.17 60.53L256.73 62.28ZM251.17 60.53L249.88 54.51L244.32 52.75L240.04 57.02L241.32 63.04L246.88 64.79ZM264.85 76.08L263.58 70.06L258.01 68.30L253.73 72.57L255.01 78.58L260.57 80.34ZM255.01 78.58L253.73 72.57L248.16 70.81L243.88 75.08L245.16 81.09L250.72 82.85ZM242.63 -3.99L241.34 -10.02L235.77 -11.77L231.48 -7.49L232.76 -1.47L238.34 0.28ZM259.35 1.26L258.07 -4.77L252.50 -6.52L248.20 -2.24L249.49 3.79L255.06 5.54ZM249.49 3.79L248.20 -2.24L242.63 -3.99L238.34 0.28L239.62 6.31L245.20 8.06ZM232.76 -1.47L231.48 -7.49L225.90 -9.24L221.62 -4.96L222.90 1.06L228.48 2.81ZM222.90 1.06L221.62 -4.96L216.04 -6.71L211.76 -2.43L213.05 3.60L218.62 5.34ZM263.20 19.35L261.92 13.32L256.34 11.57L252.05 15.84L253.33 21.87L258.91 23.62ZM253.33 21.87L252.05 15.84L246.48 14.09L242.19 18.36L243.47 24.39L249.04 26.14ZM266.21 9.05L264.93 3.02L259.35 1.26L255.06 5.54L256.34 11.57L261.92 13.32ZM256.34 11.57L255.06 5.54L249.49 3.79L245.20 8.06L246.48 14.09L252.05 15.84ZM260.19 29.65L258.91 23.62L253.33 21.87L249.04 26.14L250.33 32.17L255.90 33.92ZM236.62 16.61L235.33 10.59L229.76 8.84L225.48 13.12L226.76 19.14L232.33 20.89ZM226.76 19.14L225.48 13.12L219.91 11.37L215.62 15.65L216.91 21.67L222.48 23.41ZM239.62 6.31L238.34 0.28L232.76 -1.47L228.48 2.81L229.76 8.84L235.33 10.59ZM229.76 8.84L228.48 2.81L222.90 1.06L218.62 5.34L219.91 11.37L225.48 13.12ZM243.47 24.39L242.19 18.36L236.62 16.61L232.33 20.89L233.62 26.91L239.19 28.66ZM233.62 26.91L232.33 20.89L226.76 19.14L222.48 23.41L223.77 29.44L229.33 31.19ZM246.48 14.09L245.20 8.06L239.62 6.31L235.33 10.59L236.62 16.61L242.19 18.36ZM252.84 117.18L251.56 111.17L246.00 109.41L241.73 113.67L243.01 119.68L248.56 121.44ZM243.01 119.68L241.73 113.67L236.17 111.92L231.90 116.18L233.18 122.19L238.73 123.94ZM255.84 106.91L254.56 100.90L249.00 99.14L244.72 103.40L246.00 109.41L251.56 111.17ZM246.00 109.41L244.72 103.40L239.17 101.65L234.89 105.91L236.17 111.92L241.73 113.67ZM259.67 124.95L258.40 118.94L252.84 117.18L248.56 121.44L249.84 127.45L255.40 129.20ZM249.84 127.45L248.56 121.44L243.01 119.68L238.73 123.94L240.01 129.95L245.57 131.70ZM262.68 114.68L261.40 108.67L255.84 106.91L251.56 111.17L252.84 117.18L258.40 118.94ZM258.84 96.64L257.56 90.62L252.00 88.86L247.72 93.13L249.00 99.14L254.56 100.90ZM261.85 86.36L260.57 80.34L255.01 78.58L250.72 82.85L252.00 88.86L257.56 90.62ZM265.68 104.41L264.40 98.39L258.84 96.64L254.56 100.90L255.84 106.91L261.40 108.67ZM263.50 142.98L262.23 136.97L256.67 135.21L252.40 139.47L253.67 145.48L259.23 147.23ZM253.67 145.48L252.40 139.47L246.84 137.71L242.57 141.96L243.85 147.97L249.40 149.73ZM266.51 132.72L265.23 126.71L259.67 124.95L255.40 129.20L256.67 135.21L262.23 136.97ZM256.67 135.21L255.40 129.20L249.84 127.45L245.57 131.70L246.84 137.71L252.40 139.47ZM260.50 153.24L259.23 147.23L253.67 145.48L249.40 149.73L250.68 155.73L256.23 157.49ZM188.27 57.60L186.98 51.59L181.42 49.85L177.15 54.12L178.44 60.13L184.00 61.87ZM180.23 116.73L178.94 110.73L173.39 108.98L169.14 113.25L170.43 119.25L175.97 120.99ZM183.21 106.46L181.92 100.46L176.37 98.71L172.10 102.98L173.39 108.98L178.94 110.73ZM189.16 85.92L187.87 79.91L182.31 78.17L178.05 82.43L179.34 88.44L184.89 90.18ZM192.14 75.64L190.85 69.63L185.29 67.89L181.02 72.16L182.31 78.17L187.87 79.91ZM196.00 93.67L194.71 87.66L189.16 85.92L184.89 90.18L186.18 96.19L191.73 97.93ZM186.18 96.19L184.89 90.18L179.34 88.44L175.08 92.71L176.37 98.71L181.92 100.46ZM198.98 83.39L197.70 77.38L192.14 75.64L187.87 79.91L189.16 85.92L194.71 87.66ZM183.51 11.21L182.21 5.19L176.65 3.45L172.37 7.73L173.67 13.75L179.23 15.49ZM173.67 13.75L172.37 7.73L166.81 6.00L162.54 10.28L163.83 16.30L169.40 18.03ZM186.49 0.91L185.20 -5.11L179.63 -6.85L175.35 -2.57L176.65 3.45L182.21 5.19ZM176.65 3.45L175.35 -2.57L169.79 -4.31L165.51 -0.02L166.81 6.00L172.37 7.73ZM190.36 18.97L189.07 12.95L183.51 11.21L179.23 15.49L180.53 21.51L186.09 23.25ZM180.53 21.51L179.23 15.49L173.67 13.75L169.40 18.03L170.69 24.05L176.25 25.79ZM193.35 8.67L192.06 2.65L186.49 0.91L182.21 5.19L183.51 11.21L189.07 12.95ZM206.19 -4.17L204.90 -10.20L199.33 -11.94L195.05 -7.66L196.34 -1.63L201.91 0.11ZM196.34 -1.63L195.05 -7.66L189.48 -9.40L185.20 -5.11L186.49 0.91L192.06 2.65ZM194.24 37.02L192.95 31.01L187.38 29.27L183.11 33.54L184.40 39.56L189.96 41.30ZM197.22 26.73L195.93 20.71L190.36 18.97L186.09 23.25L187.38 29.27L192.95 31.01ZM187.38 29.27L186.09 23.25L180.53 21.51L176.25 25.79L177.55 31.80L183.11 33.54ZM201.09 44.79L199.80 38.77L194.24 37.02L189.96 41.30L191.25 47.32L196.81 49.06ZM191.25 47.32L189.96 41.30L184.40 39.56L180.13 43.83L181.42 49.85L186.98 51.59ZM204.07 34.49L202.79 28.47L197.22 26.73L192.95 31.01L194.24 37.02L199.80 38.77ZM177.55 31.80L176.25 25.79L170.69 24.05L166.42 28.33L167.71 34.34L173.28 36.08ZM210.06 13.90L208.77 7.88L203.20 6.13L198.92 10.41L200.21 16.43L205.78 18.18ZM200.21 16.43L198.92 10.41L193.35 8.67L189.07 12.95L190.36 18.97L195.93 20.71ZM213.05 3.60L211.76 -2.43L206.19 -4.17L201.91 0.11L203.20 6.13L208.77 7.88ZM203.20 6.13L201.91 0.11L196.34 -1.63L192.06 2.65L193.35 8.67L198.92 10.41ZM216.91 21.67L215.62 15.65L210.06 13.90L205.78 18.18L207.06 24.20L212.63 25.94ZM207.06 24.20L205.78 18.18L200.21 16.43L195.93 20.71L197.22 26.73L202.79 28.47ZM219.91 11.37L218.62 5.34L213.05 3.60L208.77 7.88L210.06 13.90L215.62 15.65ZM189.73 209.20L188.44 203.21L182.91 201.46L178.66 205.71L179.94 211.70L185.48 213.45ZM179.94 211.70L178.66 205.71L173.12 203.97L168.88 208.21L170.16 214.20L175.69 215.95ZM192.70 198.96L191.41 192.97L185.87 191.22L181.62 195.47L182.91 201.46L188.44 203.21ZM182.91 201.46L181.62 195.47L176.09 193.73L171.84 197.98L173.12 203.97L178.66 205.71ZM196.55 216.94L195.26 210.95L189.73 209.20L185.48 213.45L186.76 219.44L192.29 221.18ZM186.76 219.44L185.48 213.45L179.94 211.70L175.69 215.95L176.98 221.93L182.51 223.68ZM199.52 206.70L198.23 200.71L192.70 198.96L188.44 203.21L189.73 209.20L195.26 210.95ZM163.34 206.47L162.05 200.48L156.52 198.74L152.28 202.99L153.57 208.98L159.10 210.72ZM153.57 208.98L152.28 202.99L146.74 201.25L142.50 205.50L143.79 211.49L149.32 213.23ZM166.30 196.24L165.01 190.24L159.48 188.50L155.23 192.75L156.52 198.74L162.05 200.48ZM156.52 198.74L155.23 192.75L149.70 191.02L145.45 195.27L146.74 201.25L152.28 202.99ZM170.16 214.20L168.88 208.21L163.34 206.47L159.10 210.72L160.38 216.71L165.92 218.45ZM160.38 216.71L159.10 210.72L153.57 208.98L149.32 213.23L150.61 219.21L156.14 220.95ZM173.12 203.97L171.84 197.98L166.30 196.24L162.05 200.48L163.34 206.47L168.88 208.21ZM205.46 186.22L204.18 180.22L198.64 178.48L194.38 182.73L195.67 188.72L201.21 190.47ZM195.67 188.72L194.38 182.73L188.84 180.98L184.59 185.23L185.87 191.22L191.41 192.97ZM208.44 175.97L207.16 169.98L201.61 168.23L197.36 172.48L198.64 178.48L204.18 180.22ZM198.64 178.48L197.36 172.48L191.81 170.73L187.56 174.98L188.84 180.98L194.38 182.73ZM212.29 193.97L211.00 187.97L205.46 186.22L201.21 190.47L202.49 196.46L208.03 198.21ZM202.49 196.46L201.21 190.47L195.67 188.72L191.41 192.97L192.70 198.96L198.23 200.71ZM215.26 183.72L213.98 177.72L208.44 175.97L204.18 180.22L205.46 186.22L211.00 187.97ZM179.05 183.49L177.76 177.49L172.23 175.75L167.97 180.00L169.26 185.99L174.80 187.74ZM169.26 185.99L167.97 180.00L162.44 178.26L158.19 182.51L159.48 188.50L165.01 190.24ZM182.02 173.24L180.73 167.24L175.19 165.50L170.94 169.76L172.23 175.75L177.76 177.49ZM172.23 175.75L170.94 169.76L165.40 168.01L161.15 172.27L162.44 178.26L167.97 180.00ZM185.87 191.22L184.59 185.23L179.05 183.49L174.80 187.74L176.09 193.73L181.62 195.47ZM176.09 193.73L174.80 187.74L169.26 185.99L165.01 190.24L166.30 196.24L171.84 197.98ZM188.84 180.98L187.56 174.98L182.02 173.24L177.76 177.49L179.05 183.49L184.59 185.23ZM200.39 234.91L199.11 228.92L193.58 227.17L189.33 231.41L190.61 237.40L196.14 239.15ZM190.61 237.40L189.33 231.41L183.80 229.67L179.55 233.91L180.83 239.89L186.36 241.64ZM203.36 224.68L202.08 218.69L196.55 216.94L192.29 221.18L193.58 227.17L199.11 228.92ZM193.58 227.17L192.29 221.18L186.76 219.44L182.51 223.68L183.80 229.67L189.33 231.41ZM207.20 242.65L205.92 236.66L200.39 234.91L196.14 239.15L197.42 245.13L202.95 246.88ZM197.42 245.13L196.14 239.15L190.61 237.40L186.36 241.64L187.65 247.62L193.18 249.37ZM210.18 232.42L208.90 226.43L203.36 224.68L199.11 228.92L200.39 234.91L205.92 236.66ZM174.02 232.16L172.73 226.18L167.20 224.43L162.96 228.68L164.25 234.66L169.77 236.41ZM164.25 234.66L162.96 228.68L157.43 226.94L153.19 231.18L154.48 237.16L160.00 238.91ZM176.98 221.93L175.69 215.95L170.16 214.20L165.92 218.45L167.20 224.43L172.73 226.18ZM167.20 224.43L165.92 218.45L160.38 216.71L156.14 220.95L157.43 226.94L162.96 228.68ZM180.83 239.89L179.55 233.91L174.02 232.16L169.77 236.41L171.06 242.39L176.59 244.13ZM171.06 242.39L169.77 236.41L164.25 234.66L160.00 238.91L161.29 244.89L166.82 246.63ZM183.80 229.67L182.51 223.68L176.98 221.93L172.73 226.18L174.02 232.16L179.55 233.91ZM216.13 211.95L214.85 205.96L209.31 204.21L205.05 208.45L206.34 214.44L211.87 216.19ZM206.34 214.44L205.05 208.45L199.52 206.70L195.26 210.95L196.55 216.94L202.08 218.69ZM219.11 201.71L217.83 195.72L212.29 193.97L208.03 198.21L209.31 204.21L214.85 205.96ZM209.31 204.21L208.03 198.21L202.49 196.46L198.23 200.71L199.52 206.70L205.05 208.45ZM222.94 219.70L221.67 213.70L216.13 211.95L211.87 216.19L213.15 222.19L218.69 223.94ZM213.15 222.19L211.87 216.19L206.34 214.44L202.08 218.69L203.36 224.68L208.90 226.43ZM225.93 209.46L224.65 203.47L219.11 201.71L214.85 205.96L216.13 211.95L221.67 213.70ZM138.82 260.11L137.53 254.13L132.01 252.40L127.78 256.64L129.07 262.61L134.59 264.35ZM129.07 262.61L127.78 256.64L122.25 254.90L118.03 259.14L119.32 265.12L124.84 266.85ZM141.76 249.89L140.48 243.91L134.95 242.17L130.72 246.42L132.01 252.40L137.53 254.13ZM147.66 229.44L146.37 223.46L140.84 221.72L136.61 225.97L137.90 231.95L143.42 233.69ZM150.61 219.21L149.32 213.23L143.79 211.49L139.55 215.74L140.84 221.72L146.37 223.46ZM154.48 237.16L153.19 231.18L147.66 229.44L143.42 233.69L144.71 239.67L150.24 241.41ZM144.71 239.67L143.42 233.69L137.90 231.95L133.66 236.19L134.95 242.17L140.48 243.91ZM157.43 226.94L156.14 220.95L150.61 219.21L146.37 223.46L147.66 229.44L153.19 231.18ZM210.55 137.46L209.27 131.46L203.72 129.71L199.45 133.97L200.74 139.97L206.29 141.72ZM200.74 139.97L199.45 133.97L193.91 132.22L189.64 136.48L190.93 142.48L196.48 144.23ZM213.53 127.20L212.25 121.19L206.70 119.45L202.43 123.71L203.72 129.71L209.27 131.46ZM203.72 129.71L202.43 123.71L196.88 121.96L192.62 126.22L193.91 132.22L199.45 133.97ZM217.38 145.22L216.10 139.21L210.55 137.46L206.29 141.72L207.57 147.72L213.12 149.47ZM207.57 147.72L206.29 141.72L200.74 139.97L196.48 144.23L197.76 150.23L203.31 151.98ZM220.37 134.96L219.09 128.95L213.53 127.20L209.27 131.46L210.55 137.46L216.10 139.21ZM184.10 134.74L182.81 128.74L177.26 126.99L173.00 131.25L174.29 137.25L179.84 139.00ZM174.29 137.25L173.00 131.25L167.46 129.51L163.20 133.77L164.49 139.77L170.04 141.51ZM187.07 124.48L185.78 118.47L180.23 116.73L175.97 120.99L177.26 126.99L182.81 128.74ZM177.26 126.99L175.97 120.99L170.43 119.25L166.17 123.51L167.46 129.51L173.00 131.25ZM190.93 142.48L189.64 136.48L184.10 134.74L179.84 139.00L181.13 145.00L186.67 146.74ZM181.13 145.00L179.84 139.00L174.29 137.25L170.04 141.51L171.33 147.51L176.87 149.25ZM193.91 132.22L192.62 126.22L187.07 124.48L182.81 128.74L184.10 134.74L189.64 136.48ZM226.34 114.43L225.06 108.42L219.51 106.67L215.24 110.93L216.52 116.93L222.07 118.68ZM216.52 116.93L215.24 110.93L209.68 109.18L205.41 113.44L206.70 119.45L212.25 121.19ZM229.33 104.16L228.05 98.14L222.49 96.39L218.22 100.66L219.51 106.67L225.06 108.42ZM219.51 106.67L218.22 100.66L212.67 98.91L208.40 103.17L209.68 109.18L215.24 110.93ZM233.18 122.19L231.90 116.18L226.34 114.43L222.07 118.68L223.35 124.69L228.91 126.44ZM223.35 124.69L222.07 118.68L216.52 116.93L212.25 121.19L213.53 127.20L219.09 128.95ZM236.17 111.92L234.89 105.91L229.33 104.16L225.06 108.42L226.34 114.43L231.90 116.18ZM199.86 111.69L198.58 105.69L193.02 103.94L188.76 108.20L190.05 114.21L195.60 115.95ZM190.05 114.21L188.76 108.20L183.21 106.46L178.94 110.73L180.23 116.73L185.78 118.47ZM202.84 101.42L201.56 95.41L196.00 93.67L191.73 97.93L193.02 103.94L198.58 105.69ZM193.02 103.94L191.73 97.93L186.18 96.19L181.92 100.46L183.21 106.46L188.76 108.20ZM206.70 119.45L205.41 113.44L199.86 111.69L195.60 115.95L196.88 121.96L202.43 123.71ZM196.88 121.96L195.60 115.95L190.05 114.21L185.78 118.47L187.07 124.48L192.62 126.22ZM209.68 109.18L208.40 103.17L202.84 101.42L198.58 105.69L199.86 111.69L205.41 113.44ZM221.23 163.22L219.95 157.22L214.40 155.47L210.14 159.72L211.42 165.73L216.96 167.47ZM211.42 165.73L210.14 159.72L204.59 157.98L200.33 162.23L201.61 168.23L207.16 169.98ZM224.21 152.97L222.93 146.97L217.38 145.22L213.12 149.47L214.40 155.47L219.95 157.22ZM214.40 155.47L213.12 149.47L207.57 147.72L203.31 151.98L204.59 157.98L210.14 159.72ZM228.05 170.98L226.77 164.98L221.23 163.22L216.96 167.47L218.25 173.47L223.79 175.23ZM218.25 173.47L216.96 167.47L211.42 165.73L207.16 169.98L208.44 175.97L213.98 177.72ZM231.04 160.73L229.76 154.72L224.21 152.97L219.95 157.22L221.23 163.22L226.77 164.98ZM194.79 160.48L193.50 154.48L187.96 152.74L183.70 156.99L184.99 162.99L190.53 164.74ZM184.99 162.99L183.70 156.99L178.16 155.25L173.90 159.51L175.19 165.50L180.73 167.24ZM197.76 150.23L196.48 144.23L190.93 142.48L186.67 146.74L187.96 152.74L193.50 154.48ZM187.96 152.74L186.67 146.74L181.13 145.00L176.87 149.25L178.16 155.25L183.70 156.99ZM201.61 168.23L200.33 162.23L194.79 160.48L190.53 164.74L191.81 170.73L197.36 172.48ZM191.81 170.73L190.53 164.74L184.99 162.99L180.73 167.24L182.02 173.24L187.56 174.98ZM204.59 157.98L203.31 151.98L197.76 150.23L193.50 154.48L194.79 160.48L200.33 162.23ZM237.02 140.21L235.74 134.20L230.19 132.45L225.92 136.71L227.20 142.71L232.75 144.46ZM227.20 142.71L225.92 136.71L220.37 134.96L216.10 139.21L217.38 145.22L222.93 146.97ZM240.01 129.95L238.73 123.94L233.18 122.19L228.91 126.44L230.19 132.45L235.74 134.20ZM230.19 132.45L228.91 126.44L223.35 124.69L219.09 128.95L220.37 134.96L225.92 136.71ZM243.85 147.97L242.57 141.96L237.02 140.21L232.75 144.46L234.03 150.47L239.58 152.22ZM234.03 150.47L232.75 144.46L227.20 142.71L222.93 146.97L224.21 152.97L229.76 154.72ZM246.84 137.71L245.57 131.70L240.01 129.95L235.74 134.20L237.02 140.21L242.57 141.96ZM164.49 139.77L163.20 133.77L157.66 132.04L153.41 136.30L154.70 142.29L160.24 144.03ZM159.48 188.50L158.19 182.51L152.65 180.77L148.41 185.03L149.70 191.02L155.23 192.75ZM149.70 191.02L148.41 185.03L142.87 183.29L138.63 187.54L139.92 193.53L145.45 195.27ZM162.44 178.26L161.15 172.27L155.61 170.53L151.36 174.78L152.65 180.77L158.19 182.51ZM168.36 157.76L167.07 151.77L161.53 150.03L157.28 154.29L158.57 160.28L164.11 162.02ZM171.33 147.51L170.04 141.51L164.49 139.77L160.24 144.03L161.53 150.03L167.07 151.77ZM161.53 150.03L160.24 144.03L154.70 142.29L150.45 146.55L151.74 152.55L157.28 154.29ZM175.19 165.50L173.90 159.51L168.36 157.76L164.11 162.02L165.40 168.01L170.94 169.76ZM165.40 168.01L164.11 162.02L158.57 160.28L154.32 164.54L155.61 170.53L161.15 172.27ZM178.16 155.25L176.87 149.25L171.33 147.51L167.07 151.77L168.36 157.76L173.90 159.51ZM237.42 263.39L236.14 257.40L230.61 255.65L226.36 259.88L227.63 265.87L233.16 267.62ZM240.40 253.17L239.12 247.18L233.59 245.42L229.33 249.66L230.61 255.65L236.14 257.40ZM230.61 255.65L229.33 249.66L223.80 247.90L219.55 252.14L220.82 258.13L226.36 259.88ZM247.21 260.92L245.93 254.92L240.40 253.17L236.14 257.40L237.42 263.39L242.95 265.15ZM211.04 260.61L209.76 254.62L204.23 252.87L199.99 257.11L201.27 263.09L206.79 264.84ZM201.27 263.09L199.99 257.11L194.46 255.36L190.21 259.59L191.49 265.58L197.02 267.33ZM214.02 250.38L212.74 244.40L207.20 242.65L202.95 246.88L204.23 252.87L209.76 254.62ZM204.23 252.87L202.95 246.88L197.42 245.13L193.18 249.37L194.46 255.36L199.99 257.11ZM220.82 258.13L219.55 252.14L214.02 250.38L209.76 254.62L211.04 260.61L216.57 262.36ZM253.18 240.46L251.91 234.47L246.37 232.71L242.11 236.95L243.38 242.94L248.92 244.70ZM243.38 242.94L242.11 236.95L236.57 235.19L232.31 239.43L233.59 245.42L239.12 247.18ZM256.17 230.23L254.90 224.24L249.36 222.48L245.09 226.72L246.37 232.71L251.91 234.47ZM246.37 232.71L245.09 226.72L239.56 224.96L235.30 229.20L236.57 235.19L242.11 236.95ZM250.19 250.69L248.92 244.70L243.38 242.94L239.12 247.18L240.40 253.17L245.93 254.92ZM262.98 237.99L261.71 231.99L256.17 230.23L251.91 234.47L253.18 240.46L258.72 242.22ZM226.78 237.67L225.50 231.68L219.97 229.93L215.71 234.17L216.99 240.16L222.52 241.91ZM216.99 240.16L215.71 234.17L210.18 232.42L205.92 236.66L207.20 242.65L212.74 244.40ZM229.76 227.44L228.48 221.45L222.94 219.70L218.69 223.94L219.97 229.93L225.50 231.68ZM219.97 229.93L218.69 223.94L213.15 222.19L208.90 226.43L210.18 232.42L215.71 234.17ZM233.59 245.42L232.31 239.43L226.78 237.67L222.52 241.91L223.80 247.90L229.33 249.66ZM223.80 247.90L222.52 241.91L216.99 240.16L212.74 244.40L214.02 250.38L219.55 252.14ZM236.57 235.19L235.30 229.20L229.76 227.44L225.50 231.68L226.78 237.67L232.31 239.43ZM257.00 258.44L255.73 252.45L250.19 250.69L245.93 254.92L247.21 260.92L252.74 262.67ZM184.68 257.85L183.40 251.86L177.87 250.12L173.63 254.36L174.91 260.34L180.44 262.08ZM174.91 260.34L173.63 254.36L168.10 252.61L163.86 256.85L165.15 262.83L170.67 264.58ZM187.65 247.62L186.36 241.64L180.83 239.89L176.59 244.13L177.87 250.12L183.40 251.86ZM177.87 250.12L176.59 244.13L171.06 242.39L166.82 246.63L168.10 252.61L173.63 254.36ZM194.46 255.36L193.18 249.37L187.65 247.62L183.40 251.86L184.68 257.85L190.21 259.59ZM158.34 255.11L157.05 249.13L151.53 247.39L147.29 251.63L148.58 257.61L154.10 259.35ZM148.58 257.61L147.29 251.63L141.76 249.89L137.53 254.13L138.82 260.11L144.34 261.85ZM161.29 244.89L160.00 238.91L154.48 237.16L150.24 241.41L151.53 247.39L157.05 249.13ZM151.53 247.39L150.24 241.41L144.71 239.67L140.48 243.91L141.76 249.89L147.29 251.63ZM165.15 262.83L163.86 256.85L158.34 255.11L154.10 259.35L155.39 265.33L160.91 267.07ZM168.10 252.61L166.82 246.63L161.29 244.89L157.05 249.13L158.34 255.11L163.86 256.85ZM258.33 191.76L257.06 185.76L251.51 184.00L247.25 188.24L248.52 194.24L254.07 196.00ZM248.52 194.24L247.25 188.24L241.70 186.49L237.44 190.73L238.71 196.73L244.26 198.49ZM261.33 181.51L260.06 175.51L254.51 173.75L250.24 178.00L251.51 184.00L257.06 185.76ZM251.51 184.00L250.24 178.00L244.69 176.24L240.42 180.49L241.70 186.49L247.25 188.24ZM265.15 199.52L263.88 193.52L258.33 191.76L254.07 196.00L255.34 202.00L260.88 203.76ZM255.34 202.00L254.07 196.00L248.52 194.24L244.26 198.49L245.53 204.49L251.07 206.24ZM231.89 188.98L230.61 182.98L225.07 181.23L220.81 185.47L222.09 191.47L227.63 193.22ZM222.09 191.47L220.81 185.47L215.26 183.72L211.00 187.97L212.29 193.97L217.83 195.72ZM234.88 178.73L233.60 172.73L228.05 170.98L223.79 175.23L225.07 181.23L230.61 182.98ZM225.07 181.23L223.79 175.23L218.25 173.47L213.98 177.72L215.26 183.72L220.81 185.47ZM238.71 196.73L237.44 190.73L231.89 188.98L227.63 193.22L228.91 199.22L234.45 200.98ZM228.91 199.22L227.63 193.22L222.09 191.47L217.83 195.72L219.11 201.71L224.65 203.47ZM241.70 186.49L240.42 180.49L234.88 178.73L230.61 182.98L231.89 188.98L237.44 190.73ZM264.33 171.26L263.05 165.26L257.50 163.50L253.23 167.75L254.51 173.75L260.06 175.51ZM247.68 165.99L246.41 159.98L240.86 158.23L236.59 162.48L237.87 168.48L243.41 170.24ZM237.87 168.48L236.59 162.48L231.04 160.73L226.77 164.98L228.05 170.98L233.60 172.73ZM250.68 155.73L249.40 149.73L243.85 147.97L239.58 152.22L240.86 158.23L246.41 159.98ZM240.86 158.23L239.58 152.22L234.03 150.47L229.76 154.72L231.04 160.73L236.59 162.48ZM254.51 173.75L253.23 167.75L247.68 165.99L243.41 170.24L244.69 176.24L250.24 178.00ZM244.69 176.24L243.41 170.24L237.87 168.48L233.60 172.73L234.88 178.73L240.42 180.49ZM257.50 163.50L256.23 157.49L250.68 155.73L246.41 159.98L247.68 165.99L253.23 167.75ZM259.16 220.00L257.89 214.00L252.35 212.24L248.08 216.48L249.36 222.48L254.90 224.24ZM262.16 209.76L260.88 203.76L255.34 202.00L251.07 206.24L252.35 212.24L257.89 214.00ZM265.98 227.76L264.70 221.76L259.16 220.00L254.90 224.24L256.17 230.23L261.71 231.99ZM242.54 214.73L241.27 208.73L235.73 206.97L231.46 211.21L232.74 217.21L238.28 218.97ZM232.74 217.21L231.46 211.21L225.93 209.46L221.67 213.70L222.94 219.70L228.48 221.45ZM245.53 204.49L244.26 198.49L238.71 196.73L234.45 200.98L235.73 206.97L241.27 208.73ZM235.73 206.97L234.45 200.98L228.91 199.22L224.65 203.47L225.93 209.46L231.46 211.21ZM249.36 222.48L248.08 216.48L242.54 214.73L238.28 218.97L239.56 224.96L245.09 226.72ZM239.56 224.96L238.28 218.97L232.74 217.21L228.48 221.45L229.76 227.44L235.30 229.20ZM252.35 212.24L251.07 206.24L245.53 204.49L241.27 208.73L242.54 214.73L248.08 216.48Z"/><path data-band="3" fill="#dc2626" fill-opacity="0.35" d="M0.16 49.58L-1.15 43.59L-6.70 41.89L-10.92 46.17L-9.60 52.17L-4.06 53.87ZM3.07 39.30L1.76 33.31L-3.79 31.60L-8.01 35.89L-6.70 41.89L-1.15 43.59ZM4.11 67.55L2.79 61.56L-2.75 59.86L-6.97 64.14L-5.65 70.13L-0.11 71.84ZM7.02 57.28L5.71 51.29L0.16 49.58L-4.06 53.87L-2.75 59.86L2.79 61.56ZM10.96 75.25L9.65 69.26L4.11 67.55L-0.11 71.84L1.20 77.83L6.74 79.53ZM1.20 77.83L-0.11 71.84L-5.65 70.13L-9.87 74.42L-8.56 80.40L-3.02 82.11ZM13.88 64.98L12.56 58.99L7.02 57.28L2.79 61.56L4.11 67.55L9.65 69.26ZM4.95 0.74L3.63 -5.26L-1.92 -6.97L-6.15 -2.67L-4.83 3.33L0.72 5.03ZM8.90 18.73L7.58 12.73L2.04 11.03L-2.19 15.32L-0.88 21.32L4.67 23.02ZM11.82 8.44L10.50 2.44L4.95 0.74L0.72 5.03L2.04 11.03L7.58 12.73ZM2.04 11.03L0.72 5.03L-4.83 3.33L-9.06 7.62L-7.74 13.62L-2.19 15.32ZM15.76 26.44L14.45 20.44L8.90 18.73L4.67 23.02L5.99 29.02L11.53 30.72ZM5.99 29.02L4.67 23.02L-0.88 21.32L-5.11 25.61L-3.79 31.60L1.76 33.31ZM18.68 16.15L17.37 10.15L11.82 8.44L7.58 12.73L8.90 18.73L14.45 20.44ZM14.74 -1.85L13.42 -7.85L7.87 -9.56L3.63 -5.26L4.95 0.74L10.50 2.44ZM31.39 3.27L30.08 -2.73L24.53 -4.44L20.29 -0.15L21.60 5.85L27.15 7.56ZM21.60 5.85L20.29 -0.15L14.74 -1.85L10.50 2.44L11.82 8.44L17.37 10.15ZM5.34 190.59L4.03 184.61L-1.49 182.91L-5.70 187.17L-4.39 193.14L1.13 194.85ZM8.24 180.35L6.93 174.38L1.40 172.67L-2.81 176.93L-1.49 182.91L4.03 184.61ZM12.17 198.27L10.86 192.30L5.34 190.59L1.13 194.85L2.44 200.82L7.96 202.53ZM2.44 200.82L1.13 194.85L-4.39 193.14L-8.60 197.40L-7.29 203.37L-1.77 205.08ZM15.07 188.04L13.76 182.06L8.24 180.35L4.03 184.61L5.34 190.59L10.86 192.30ZM20.88 167.56L19.57 161.58L14.04 159.87L9.83 164.14L11.14 170.11L16.66 171.82ZM11.14 170.11L9.83 164.14L4.31 162.43L0.09 166.69L1.40 172.67L6.93 174.38ZM23.79 157.32L22.48 151.34L16.95 149.63L12.73 153.89L14.04 159.87L19.57 161.58ZM14.04 159.87L12.73 153.89L7.21 152.18L2.99 156.45L4.31 162.43L9.83 164.14ZM27.71 175.25L26.41 169.27L20.88 167.56L16.66 171.82L17.97 177.80L23.50 179.51ZM17.97 177.80L16.66 171.82L11.14 170.11L6.93 174.38L8.24 180.35L13.76 182.06ZM30.62 165.01L29.32 159.03L23.79 157.32L19.57 161.58L20.88 167.56L26.41 169.27ZM1.40 172.67L0.09 166.69L-5.43 164.99L-9.64 169.25L-8.33 175.23L-2.81 176.93ZM4.31 162.43L2.99 156.45L-2.53 154.74L-6.74 159.01L-5.43 164.99L0.09 166.69ZM16.09 216.18L14.78 210.21L9.27 208.50L5.06 212.76L6.37 218.72L11.88 220.44ZM6.37 218.72L5.06 212.76L-0.46 211.05L-4.66 215.30L-3.35 221.27L2.16 222.98ZM18.99 205.95L17.69 199.98L12.17 198.27L7.96 202.53L9.27 208.50L14.78 210.21ZM9.27 208.50L7.96 202.53L2.44 200.82L-1.77 205.08L-0.46 211.05L5.06 212.76ZM22.91 223.86L21.61 217.89L16.09 216.18L11.88 220.44L13.19 226.40L18.71 228.12ZM13.19 226.40L11.88 220.44L6.37 218.72L2.16 222.98L3.47 228.95L8.98 230.66ZM25.82 213.64L24.51 207.67L18.99 205.95L14.78 210.21L16.09 216.18L21.61 217.89ZM31.63 193.18L30.33 187.20L24.80 185.49L20.59 189.75L21.90 195.72L27.42 197.44ZM21.90 195.72L20.59 189.75L15.07 188.04L10.86 192.30L12.17 198.27L17.69 199.98ZM34.54 182.94L33.24 176.97L27.71 175.25L23.50 179.51L24.80 185.49L30.33 187.20ZM24.80 185.49L23.50 179.51L17.97 177.80L13.76 182.06L15.07 188.04L20.59 189.75ZM38.46 200.87L37.16 194.89L31.63 193.18L27.42 197.44L28.73 203.41L34.25 205.12ZM28.73 203.41L27.42 197.44L21.90 195.72L17.69 199.98L18.99 205.95L24.51 207.67ZM41.37 190.63L40.07 184.66L34.54 182.94L30.33 187.20L31.63 193.18L37.16 194.89ZM25.68 118.87L24.37 112.89L18.84 111.17L14.62 115.45L15.93 121.43L21.46 123.14ZM15.93 121.43L14.62 115.45L9.08 113.74L4.86 118.01L6.18 124.00L11.71 125.70ZM28.60 108.61L27.29 102.62L21.75 100.91L17.53 105.19L18.84 111.17L24.37 112.89ZM18.84 111.17L17.53 105.19L11.99 103.48L7.77 107.76L9.08 113.74L14.62 115.45ZM32.53 126.57L31.22 120.58L25.68 118.87L21.46 123.14L22.77 129.13L28.30 130.84ZM22.77 129.13L21.46 123.14L15.93 121.43L11.71 125.70L13.02 131.69L18.55 133.40ZM35.44 116.31L34.13 110.32L28.60 108.61L24.37 112.89L25.68 118.87L31.22 120.58ZM2.24 106.05L0.92 100.06L-4.61 98.36L-8.83 102.64L-7.51 108.62L-1.98 110.32ZM6.18 124.00L4.86 118.01L-0.67 116.31L-4.88 120.58L-3.57 126.56L1.96 128.27ZM9.08 113.74L7.77 107.76L2.24 106.05L-1.98 110.32L-0.67 116.31L4.86 118.01ZM41.28 95.79L39.97 89.80L34.43 88.08L30.20 92.36L31.51 98.35L37.05 100.06ZM31.51 98.35L30.20 92.36L24.67 90.65L20.44 94.93L21.75 100.91L27.29 102.62ZM44.20 85.52L42.89 79.53L37.35 77.81L33.12 82.09L34.43 88.08L39.97 89.80ZM34.43 88.08L33.12 82.09L27.58 80.38L23.35 84.66L24.67 90.65L30.20 92.36ZM48.13 103.49L46.82 97.50L41.28 95.79L37.05 100.06L38.36 106.05L43.90 107.77ZM38.36 106.05L37.05 100.06L31.51 98.35L27.29 102.62L28.60 108.61L34.13 110.32ZM51.05 93.23L49.74 87.23L44.20 85.52L39.97 89.80L41.28 95.79L46.82 97.50ZM14.90 93.22L13.59 87.23L8.05 85.52L3.83 89.80L5.14 95.79L10.68 97.49ZM5.14 95.79L3.83 89.80L-1.71 88.09L-5.93 92.37L-4.61 98.36L0.92 100.06ZM17.82 82.95L16.50 76.96L10.96 75.25L6.74 79.53L8.05 85.52L13.59 87.23ZM8.05 85.52L6.74 79.53L1.20 77.83L-3.02 82.11L-1.71 88.09L3.83 89.80ZM21.75 100.91L20.44 94.93L14.90 93.22L10.68 97.49L11.99 103.48L17.53 105.19ZM11.99 103.48L10.68 97.49L5.14 95.79L0.92 100.06L2.24 106.05L7.77 107.76ZM24.67 90.65L23.35 84.66L17.82 82.95L13.59 87.23L14.90 93.22L20.44 94.93ZM36.45 144.52L35.14 138.54L29.61 136.82L25.39 141.09L26.70 147.07L32.23 148.78ZM26.70 147.07L25.39 141.09L19.86 139.38L15.64 143.65L16.95 149.63L22.48 151.34ZM39.37 134.27L38.06 128.28L32.53 126.57L28.30 130.84L29.61 136.82L35.14 138.54ZM29.61 136.82L28.30 130.84L22.77 129.13L18.55 133.40L19.86 139.38L25.39 141.09ZM43.29 152.22L41.98 146.23L36.45 144.52L32.23 148.78L33.54 154.77L39.06 156.48ZM33.54 154.77L32.23 148.78L26.70 147.07L22.48 151.34L23.79 157.32L29.32 159.03ZM46.21 141.97L44.90 135.98L39.37 134.27L35.14 138.54L36.45 144.52L41.98 146.23ZM10.11 141.94L8.80 135.96L3.27 134.25L-0.94 138.52L0.37 144.50L5.90 146.21ZM0.37 144.50L-0.94 138.52L-6.47 136.81L-10.68 141.08L-9.37 147.06L-3.84 148.77ZM13.02 131.69L11.71 125.70L6.18 124.00L1.96 128.27L3.27 134.25L8.80 135.96ZM3.27 134.25L1.96 128.27L-3.57 126.56L-7.78 130.83L-6.47 136.81L-0.94 138.52ZM16.95 149.63L15.64 143.65L10.11 141.94L5.90 146.21L7.21 152.18L12.73 153.89ZM7.21 152.18L5.90 146.21L0.37 144.50L-3.84 148.77L-2.53 154.74L2.99 156.45ZM19.86 139.38L18.55 133.40L13.02 131.69L8.80 135.96L10.11 141.94L15.64 143.65ZM52.05 121.46L50.74 115.47L45.20 113.75L40.98 118.03L42.28 124.01L47.82 125.73ZM42.28 124.01L40.98 118.03L35.44 116.31L31.22 120.58L32.53 126.57L38.06 128.28ZM54.97 111.20L53.67 105.21L48.13 103.49L43.90 107.77L45.20 113.75L50.74 115.47ZM45.20 113.75L43.90 107.77L38.36 106.05L34.13 110.32L35.44 116.31L40.98 118.03ZM58.89 129.16L57.58 123.18L52.05 121.46L47.82 125.73L49.13 131.71L54.66 133.43ZM49.13 131.71L47.82 125.73L42.28 124.01L38.06 128.28L39.37 134.27L44.90 135.98ZM61.82 118.91L60.51 112.92L54.97 111.20L50.74 115.47L52.05 121.46L57.58 123.18ZM53.10 244.39L51.80 238.42L46.29 236.70L42.07 240.95L43.37 246.92L48.89 248.64ZM43.37 246.92L42.07 240.95L36.56 239.23L32.35 243.48L33.65 249.45L39.16 251.17ZM56.02 234.17L54.72 228.20L49.20 226.48L44.98 230.73L46.29 236.70L51.80 238.42ZM46.29 236.70L44.98 230.73L39.46 229.01L35.25 233.26L36.56 239.23L42.07 240.95ZM59.92 252.08L58.62 246.11L53.10 244.39L48.89 248.64L50.19 254.61L55.71 256.33ZM50.19 254.61L48.89 248.64L43.37 246.92L39.16 251.17L40.47 257.13L45.98 258.85ZM62.84 241.86L61.54 235.89L56.02 234.17L51.80 238.42L53.10 244.39L58.62 246.11ZM26.83 241.77L25.53 235.80L20.01 234.08L15.80 238.34L17.11 244.30L22.62 246.02ZM17.11 244.30L15.80 238.34L10.29 236.62L6.09 240.88L7.40 246.84L12.91 248.55ZM29.74 231.55L28.43 225.58L22.91 223.86L18.71 228.12L20.01 234.08L25.53 235.80ZM20.01 234.08L18.71 228.12L13.19 226.40L8.98 230.66L10.29 236.62L15.80 238.34ZM33.65 249.45L32.35 243.48L26.83 241.77L22.62 246.02L23.93 251.98L29.44 253.70ZM23.93 251.98L22.62 246.02L17.11 244.30L12.91 248.55L14.21 254.52L19.72 256.23ZM36.56 239.23L35.25 233.26L29.74 231.55L25.53 235.80L26.83 241.77L32.35 243.48ZM68.67 221.42L67.37 215.44L61.85 213.72L57.63 217.97L58.93 223.95L64.45 225.67ZM58.93 223.95L57.63 217.97L52.11 216.25L47.89 220.51L49.20 226.48L54.72 228.20ZM71.60 211.19L70.30 205.21L64.77 203.49L60.55 207.74L61.85 213.72L67.37 215.44ZM61.85 213.72L60.55 207.74L55.03 206.02L50.81 210.28L52.11 216.25L57.63 217.97ZM75.50 229.12L74.20 223.14L68.67 221.42L64.45 225.67L65.75 231.64L71.27 233.36ZM65.75 231.64L64.45 225.67L58.93 223.95L54.72 228.20L56.02 234.17L61.54 235.89ZM78.42 218.89L77.12 212.91L71.60 211.19L67.37 215.44L68.67 221.42L74.20 223.14ZM42.38 218.79L41.07 212.81L35.55 211.10L31.34 215.35L32.64 221.32L38.16 223.04ZM32.64 221.32L31.34 215.35L25.82 213.64L21.61 217.89L22.91 223.86L28.43 225.58ZM45.29 208.56L43.98 202.59L38.46 200.87L34.25 205.12L35.55 211.10L41.07 212.81ZM35.55 211.10L34.25 205.12L28.73 203.41L24.51 207.67L25.82 213.64L31.34 215.35ZM49.20 226.48L47.89 220.51L42.38 218.79L38.16 223.04L39.46 229.01L44.98 230.73ZM39.46 229.01L38.16 223.04L32.64 221.32L28.43 225.58L29.74 231.55L35.25 233.26ZM52.11 216.25L50.81 210.28L45.29 208.56L41.07 212.81L42.38 218.79L47.89 220.51ZM66.74 259.77L65.44 253.80L59.92 252.08L55.71 256.33L57.01 262.29L62.52 264.02ZM57.01 262.29L55.71 256.33L50.19 254.61L45.98 258.85L47.28 264.82L52.79 266.54ZM40.47 257.13L39.16 251.17L33.65 249.45L29.44 253.70L30.75 259.66L36.26 261.38ZM30.75 259.66L29.44 253.70L23.93 251.98L19.72 256.23L21.03 262.19L26.54 263.91ZM79.39 247.04L78.09 241.06L72.57 239.34L68.35 243.59L69.65 249.56L75.17 251.28ZM69.65 249.56L68.35 243.59L62.84 241.86L58.62 246.11L59.92 252.08L65.44 253.80ZM82.31 236.81L81.02 230.84L75.50 229.12L71.27 233.36L72.57 239.34L78.09 241.06ZM72.57 239.34L71.27 233.36L65.75 231.64L61.54 235.89L62.84 241.86L68.35 243.59ZM86.21 254.73L84.91 248.76L79.39 247.04L75.17 251.28L76.47 257.25L81.98 258.98ZM76.47 257.25L75.17 251.28L69.65 249.56L65.44 253.80L66.74 259.77L72.25 261.50ZM89.13 244.52L87.83 238.54L82.31 236.81L78.09 241.06L79.39 247.04L84.91 248.76ZM0.58 239.17L-0.73 233.20L-6.25 231.49L-10.45 235.75L-9.14 241.71L-3.63 243.42ZM3.47 228.95L2.16 222.98L-3.35 221.27L-7.56 225.53L-6.25 231.49L-0.73 233.20ZM7.40 246.84L6.09 240.88L0.58 239.17L-3.63 243.42L-2.32 249.38L3.19 251.09ZM10.29 236.62L8.98 230.66L3.47 228.95L-0.73 233.20L0.58 239.17L6.09 240.88ZM14.21 254.52L12.91 248.55L7.40 246.84L3.19 251.09L4.50 257.05L10.01 258.77ZM4.50 257.05L3.19 251.09L-2.32 249.38L-6.52 253.63L-5.21 259.59L0.30 261.30ZM21.03 262.19L19.72 256.23L14.21 254.52L10.01 258.77L11.32 264.73L16.83 266.44ZM73.54 172.78L72.24 166.79L66.71 165.07L62.49 169.33L63.79 175.32L69.32 177.04ZM63.79 175.32L62.49 169.33L56.96 167.61L52.73 171.88L54.04 177.86L59.56 179.58ZM76.47 162.53L75.17 156.55L69.64 154.83L65.41 159.09L66.71 165.07L72.24 166.79ZM66.71 165.07L65.41 159.09L59.88 157.37L55.65 161.63L56.96 167.61L62.49 169.33ZM80.37 180.48L79.07 174.50L73.54 172.78L69.32 177.04L70.62 183.02L76.15 184.74ZM70.62 183.02L69.32 177.04L63.79 175.32L59.56 179.58L60.87 185.55L66.39 187.28ZM83.30 170.24L82.00 164.26L76.47 162.53L72.24 166.79L73.54 172.78L79.07 174.50ZM47.20 170.16L45.90 164.18L40.37 162.46L36.15 166.72L37.46 172.70L42.98 174.42ZM37.46 172.70L36.15 166.72L30.62 165.01L26.41 169.27L27.71 175.25L33.24 176.97ZM50.12 159.91L48.82 153.93L43.29 152.22L39.06 156.48L40.37 162.46L45.90 164.18ZM40.37 162.46L39.06 156.48L33.54 154.77L29.32 159.03L30.62 165.01L36.15 166.72ZM54.04 177.86L52.73 171.88L47.20 170.16L42.98 174.42L44.29 180.40L49.81 182.12ZM44.29 180.40L42.98 174.42L37.46 172.70L33.24 176.97L34.54 182.94L40.07 184.66ZM56.96 167.61L55.65 161.63L50.12 159.91L45.90 164.18L47.20 170.16L52.73 171.88ZM89.17 149.75L87.87 143.76L82.33 142.04L78.10 146.30L79.40 152.29L84.94 154.01ZM79.40 152.29L78.10 146.30L72.57 144.58L68.34 148.84L69.64 154.83L75.17 156.55ZM92.11 139.50L90.81 133.51L85.27 131.78L81.03 136.05L82.33 142.04L87.87 143.76ZM82.33 142.04L81.03 136.05L75.50 134.32L71.26 138.59L72.57 144.58L78.10 146.30ZM96.00 157.46L94.70 151.47L89.17 149.75L84.94 154.01L86.24 160.00L91.77 161.72ZM86.24 160.00L84.94 154.01L79.40 152.29L75.17 156.55L76.47 162.53L82.00 164.26ZM98.94 147.21L97.64 141.22L92.11 139.50L87.87 143.76L89.17 149.75L94.70 151.47ZM62.80 147.12L61.50 141.14L55.96 139.42L51.74 143.68L53.04 149.67L58.57 151.39ZM53.04 149.67L51.74 143.68L46.21 141.97L41.98 146.23L43.29 152.22L48.82 153.93ZM65.73 136.87L64.42 130.88L58.89 129.16L54.66 133.43L55.96 139.42L61.50 141.14ZM55.96 139.42L54.66 133.43L49.13 131.71L44.90 135.98L46.21 141.97L51.74 143.68ZM69.64 154.83L68.34 148.84L62.80 147.12L58.57 151.39L59.88 157.37L65.41 159.09ZM59.88 157.37L58.57 151.39L53.04 149.67L48.82 153.93L50.12 159.91L55.65 161.63ZM72.57 144.58L71.26 138.59L65.73 136.87L61.50 141.14L62.80 147.12L68.34 148.84ZM84.27 198.43L82.97 192.45L77.45 190.72L73.22 194.98L74.52 200.96L80.05 202.68ZM74.52 200.96L73.22 194.98L67.69 193.26L63.47 197.51L64.77 203.49L70.30 205.21ZM87.20 188.19L85.90 182.21L80.37 180.48L76.15 184.74L77.45 190.72L82.97 192.45ZM77.45 190.72L76.15 184.74L70.62 183.02L66.39 187.28L67.69 193.26L73.22 194.98ZM91.10 206.13L89.80 200.15L84.27 198.43L80.05 202.68L81.34 208.66L86.87 210.39ZM81.34 208.66L80.05 202.68L74.52 200.96L70.30 205.21L71.60 211.19L77.12 212.91ZM94.03 195.90L92.73 189.92L87.20 188.19L82.97 192.45L84.27 198.43L89.80 200.15ZM57.95 195.79L56.64 189.81L51.12 188.09L46.90 192.35L48.20 198.33L53.72 200.05ZM48.20 198.33L46.90 192.35L41.37 190.63L37.16 194.89L38.46 200.87L43.98 202.59ZM60.87 185.55L59.56 179.58L54.04 177.86L49.81 182.12L51.12 188.09L56.64 189.81ZM51.12 188.09L49.81 182.12L44.29 180.40L40.07 184.66L41.37 190.63L46.90 192.35ZM64.77 203.49L63.47 197.51L57.95 195.79L53.72 200.05L55.03 206.02L60.55 207.74ZM55.03 206.02L53.72 200.05L48.20 198.33L43.98 202.59L45.29 208.56L50.81 210.28ZM67.69 193.26L66.39 187.28L60.87 185.55L56.64 189.81L57.95 195.79L63.47 197.51ZM99.90 175.42L98.60 169.43L93.07 167.71L88.84 171.97L90.13 177.95L95.66 179.68ZM90.13 177.95L88.84 171.97L83.30 170.24L79.07 174.50L80.37 180.48L85.90 182.21ZM102.84 165.18L101.54 159.19L96.00 157.46L91.77 161.72L93.07 167.71L98.60 169.43ZM93.07 167.71L91.77 161.72L86.24 160.00L82.00 164.26L83.30 170.24L88.84 171.97ZM106.73 183.13L105.43 177.15L99.90 175.42L95.66 179.68L96.96 185.66L102.49 187.39ZM96.96 185.66L95.66 179.68L90.13 177.95L85.90 182.21L87.20 188.19L92.73 189.92ZM109.67 172.89L108.37 166.90L102.84 165.18L98.60 169.43L99.90 175.42L105.43 177.15ZM93.02 262.43L91.72 256.46L86.21 254.73L81.98 258.98L83.28 264.95L88.80 266.68ZM114.72 29.05L113.42 23.04L107.86 21.31L103.60 25.59L104.91 31.60L110.46 33.33ZM104.91 31.60L103.60 25.59L98.05 23.87L93.79 28.15L95.10 34.16L100.65 35.88ZM117.67 18.75L116.37 12.74L110.81 11.02L106.55 15.30L107.86 21.31L113.42 23.04ZM107.86 21.31L106.55 15.30L101.00 13.58L96.74 17.86L98.05 23.87L103.60 25.59ZM121.57 36.78L120.27 30.77L114.72 29.05L110.46 33.33L111.76 39.33L117.32 41.06ZM111.76 39.33L110.46 33.33L104.91 31.60L100.65 35.88L101.96 41.89L107.51 43.61ZM124.53 26.49L123.23 20.48L117.67 18.75L113.42 23.04L114.72 29.05L120.27 30.77ZM88.24 26.43L86.93 20.43L81.38 18.71L77.13 22.99L78.44 29.00L83.99 30.72ZM78.44 29.00L77.13 22.99L71.58 21.27L67.33 25.56L68.64 31.56L74.19 33.28ZM91.19 16.14L89.88 10.13L84.32 8.41L80.07 12.70L81.38 18.71L86.93 20.43ZM81.38 18.71L80.07 12.70L74.52 10.98L70.27 15.27L71.58 21.27L77.13 22.99ZM95.10 34.16L93.79 28.15L88.24 26.43L83.99 30.72L85.30 36.72L90.85 38.44ZM85.30 36.72L83.99 30.72L78.44 29.00L74.19 33.28L75.50 39.28L81.05 41.00ZM98.05 23.87L96.74 17.86L91.19 16.14L86.93 20.43L88.24 26.43L93.79 28.15ZM130.45 5.90L129.15 -0.11L123.59 -1.84L119.33 2.44L120.63 8.46L126.19 10.18ZM120.63 8.46L119.33 2.44L113.77 0.72L109.51 5.00L110.81 11.02L116.37 12.74ZM123.59 -1.84L122.29 -7.86L116.73 -9.58L112.46 -5.30L113.77 0.72L119.33 2.44ZM137.31 13.64L136.02 7.63L130.45 5.90L126.19 10.18L127.49 16.20L133.05 17.93ZM127.49 16.20L126.19 10.18L120.63 8.46L116.37 12.74L117.67 18.75L123.23 20.48ZM140.28 3.35L138.98 -2.67L133.42 -4.40L129.15 -0.11L130.45 5.90L136.02 7.63ZM103.95 3.28L102.64 -2.73L97.08 -4.45L92.83 -0.17L94.13 5.84L99.69 7.57ZM94.13 5.84L92.83 -0.17L87.27 -1.89L83.02 2.40L84.32 8.41L89.88 10.13ZM110.81 11.02L109.51 5.00L103.95 3.28L99.69 7.57L101.00 13.58L106.55 15.30ZM101.00 13.58L99.69 7.57L94.13 5.84L89.88 10.13L91.19 16.14L96.74 17.86ZM113.77 0.72L112.46 -5.30L106.90 -7.02L102.64 -2.73L103.95 3.28L109.51 5.00ZM125.47 54.80L124.17 48.80L118.62 47.07L114.36 51.35L115.66 57.35L121.22 59.08ZM115.66 57.35L114.36 51.35L108.81 49.62L104.56 53.90L105.86 59.90L111.41 61.63ZM128.43 44.52L127.13 38.51L121.57 36.78L117.32 41.06L118.62 47.07L124.17 48.80ZM118.62 47.07L117.32 41.06L111.76 39.33L107.51 43.61L108.81 49.62L114.36 51.35ZM132.32 62.54L131.03 56.53L125.47 54.80L121.22 59.08L122.52 65.09L128.07 66.81ZM122.52 65.09L121.22 59.08L115.66 57.35L111.41 61.63L112.71 67.63L118.26 69.36ZM135.28 52.26L133.98 46.25L128.43 44.52L124.17 48.80L125.47 54.80L131.03 56.53ZM99.01 52.17L97.71 46.17L92.15 44.45L87.90 48.73L89.21 54.73L94.76 56.45ZM89.21 54.73L87.90 48.73L82.35 47.01L78.11 51.29L79.41 57.29L84.96 59.01ZM101.96 41.89L100.65 35.88L95.10 34.16L90.85 38.44L92.15 44.45L97.71 46.17ZM92.15 44.45L90.85 38.44L85.30 36.72L81.05 41.00L82.35 47.01L87.90 48.73ZM105.86 59.90L104.56 53.90L99.01 52.17L94.76 56.45L96.06 62.45L101.61 64.18ZM96.06 62.45L94.76 56.45L89.21 54.73L84.96 59.01L86.27 65.01L91.82 66.73ZM108.81 49.62L107.51 43.61L101.96 41.89L97.71 46.17L99.01 52.17L104.56 53.90ZM141.21 31.68L139.91 25.67L134.35 23.94L130.09 28.22L131.39 34.23L136.95 35.96ZM131.39 34.23L130.09 28.22L124.53 26.49L120.27 30.77L121.57 36.78L127.13 38.51ZM144.17 21.39L142.88 15.38L137.31 13.64L133.05 17.93L134.35 23.94L139.91 25.67ZM134.35 23.94L133.05 17.93L127.49 16.20L123.23 20.48L124.53 26.49L130.09 28.22ZM148.06 39.43L146.77 33.41L141.21 31.68L136.95 35.96L138.24 41.97L143.80 43.70ZM138.24 41.97L136.95 35.96L131.39 34.23L127.13 38.51L128.43 44.52L133.98 46.25ZM151.03 29.14L149.73 23.12L144.17 21.39L139.91 25.67L141.21 31.68L146.77 33.41ZM46.13 46.98L44.82 40.99L39.27 39.27L35.03 43.56L36.34 49.55L41.89 51.27ZM36.34 49.55L35.03 43.56L29.49 41.85L25.25 46.13L26.56 52.13L32.11 53.84ZM49.05 36.70L47.74 30.70L42.19 28.99L37.96 33.27L39.27 39.27L44.82 40.99ZM39.27 39.27L37.96 33.27L32.41 31.56L28.17 35.85L29.49 41.85L35.03 43.56ZM52.98 54.70L51.67 48.70L46.13 46.98L41.89 51.27L43.20 57.26L48.74 58.98ZM43.20 57.26L41.89 51.27L36.34 49.55L32.11 53.84L33.42 59.83L38.96 61.55ZM55.91 44.42L54.60 38.42L49.05 36.70L44.82 40.99L46.13 46.98L51.67 48.70ZM19.71 44.42L18.39 38.43L12.85 36.72L8.62 41.01L9.93 47.00L15.48 48.71ZM9.93 47.00L8.62 41.01L3.07 39.30L-1.15 43.59L0.16 49.58L5.71 51.29ZM22.63 34.14L21.31 28.14L15.76 26.44L11.53 30.72L12.85 36.72L18.39 38.43ZM12.85 36.72L11.53 30.72L5.99 29.02L1.76 33.31L3.07 39.30L8.62 41.01ZM26.56 52.13L25.25 46.13L19.71 44.42L15.48 48.71L16.79 54.70L22.33 56.41ZM16.79 54.70L15.48 48.71L9.93 47.00L5.71 51.29L7.02 57.28L12.56 58.99ZM29.49 41.85L28.17 35.85L22.63 34.14L18.39 38.43L19.71 44.42L25.25 46.13ZM61.78 23.84L60.47 17.84L54.92 16.12L50.67 20.41L51.98 26.41L57.54 28.13ZM51.98 26.41L50.67 20.41L45.12 18.70L40.88 22.99L42.19 28.99L47.74 30.70ZM64.71 13.55L63.41 7.55L57.85 5.83L53.61 10.12L54.92 16.12L60.47 17.84ZM54.92 16.12L53.61 10.12L48.05 8.41L43.81 12.70L45.12 18.70L50.67 20.41ZM68.64 31.56L67.33 25.56L61.78 23.84L57.54 28.13L58.84 34.13L64.39 35.85ZM58.84 34.13L57.54 28.13L51.98 26.41L47.74 30.70L49.05 36.70L54.60 38.42ZM71.58 21.27L70.27 15.27L64.71 13.55L60.47 17.84L61.78 23.84L67.33 25.56ZM35.33 21.28L34.02 15.27L28.47 13.56L24.23 17.86L25.55 23.85L31.09 25.56ZM25.55 23.85L24.23 17.86L18.68 16.15L14.45 20.44L15.76 26.44L21.31 28.14ZM38.26 10.98L36.95 4.98L31.39 3.27L27.15 7.56L28.47 13.56L34.02 15.27ZM28.47 13.56L27.15 7.56L21.60 5.85L17.37 10.15L18.68 16.15L24.23 17.86ZM42.19 28.99L40.88 22.99L35.33 21.28L31.09 25.56L32.41 31.56L37.96 33.27ZM32.41 31.56L31.09 25.56L25.55 23.85L21.31 28.14L22.63 34.14L28.17 35.85ZM45.12 18.70L43.81 12.70L38.26 10.98L34.02 15.27L35.33 21.28L40.88 22.99ZM56.91 72.69L55.60 66.69L50.05 64.97L45.82 69.25L47.13 75.25L52.67 76.96ZM47.13 75.25L45.82 69.25L40.27 67.54L36.04 71.82L37.35 77.81L42.89 79.53ZM59.84 62.41L58.53 56.41L52.98 54.70L48.74 58.98L50.05 64.97L55.60 66.69ZM50.05 64.97L48.74 58.98L43.20 57.26L38.96 61.55L40.27 67.54L45.82 69.25ZM63.76 80.40L62.45 74.40L56.91 72.69L52.67 76.96L53.98 82.96L59.52 84.67ZM53.98 82.96L52.67 76.96L47.13 75.25L42.89 79.53L44.20 85.52L49.74 87.23ZM66.69 70.12L65.38 64.13L59.84 62.41L55.60 66.69L56.91 72.69L62.45 74.40ZM30.50 70.11L29.19 64.12L23.65 62.41L19.42 66.69L20.73 72.68L26.27 74.39ZM20.73 72.68L19.42 66.69L13.88 64.98L9.65 69.26L10.96 75.25L16.50 76.96ZM33.42 59.83L32.11 53.84L26.56 52.13L22.33 56.41L23.65 62.41L29.19 64.12ZM23.65 62.41L22.33 56.41L16.79 54.70L12.56 58.99L13.88 64.98L19.42 66.69ZM37.35 77.81L36.04 71.82L30.50 70.11L26.27 74.39L27.58 80.38L33.12 82.09ZM27.58 80.38L26.27 74.39L20.73 72.68L16.50 76.96L17.82 82.95L23.35 84.66ZM40.27 67.54L38.96 61.55L33.42 59.83L29.19 64.12L30.50 70.11L36.04 71.82ZM72.56 49.57L71.25 43.57L65.70 41.85L61.46 46.13L62.77 52.13L68.32 53.85ZM62.77 52.13L61.46 46.13L55.91 44.42L51.67 48.70L52.98 54.70L58.53 56.41ZM75.50 39.28L74.19 33.28L68.64 31.56L64.39 35.85L65.70 41.85L71.25 43.57ZM65.70 41.85L64.39 35.85L58.84 34.13L54.60 38.42L55.91 44.42L61.46 46.13ZM79.41 57.29L78.11 51.29L72.56 49.57L68.32 53.85L69.62 59.85L75.17 61.57ZM69.62 59.85L68.32 53.85L62.77 52.13L58.53 56.41L59.84 62.41L65.38 64.13ZM82.35 47.01L81.05 41.00L75.50 39.28L71.25 43.57L72.56 49.57L78.11 51.29ZM77.46 0.68L76.15 -5.33L70.59 -7.04L66.34 -2.75L67.65 3.26L73.21 4.97ZM67.65 3.26L66.34 -2.75L60.79 -4.47L56.54 -0.18L57.85 5.83L63.41 7.55ZM84.32 8.41L83.02 2.40L77.46 0.68L73.21 4.97L74.52 10.98L80.07 12.70ZM74.52 10.98L73.21 4.97L67.65 3.26L63.41 7.55L64.71 13.55L70.27 15.27ZM87.27 -1.89L85.96 -7.90L80.40 -9.62L76.15 -5.33L77.46 0.68L83.02 2.40ZM50.98 -1.89L49.67 -7.90L44.12 -9.61L39.87 -5.31L41.19 0.69L46.74 2.40ZM41.19 0.69L39.87 -5.31L34.32 -7.03L30.08 -2.73L31.39 3.27L36.95 4.98ZM57.85 5.83L56.54 -0.18L50.98 -1.89L46.74 2.40L48.05 8.41L53.61 10.12ZM48.05 8.41L46.74 2.40L41.19 0.69L36.95 4.98L38.26 10.98L43.81 12.70ZM162.68 83.22L161.39 77.22L155.83 75.48L151.57 79.75L152.87 85.76L158.42 87.49ZM152.87 85.76L151.57 79.75L146.02 78.02L141.76 82.29L143.06 88.29L148.61 90.03ZM165.65 72.95L164.36 66.94L158.80 65.20L154.54 69.47L155.83 75.48L161.39 77.22ZM155.83 75.48L154.54 69.47L148.98 67.74L144.73 72.01L146.02 78.02L151.57 79.75ZM169.52 90.97L168.23 84.96L162.68 83.22L158.42 87.49L159.71 93.50L165.26 95.24ZM159.71 93.50L158.42 87.49L152.87 85.76L148.61 90.03L149.90 96.03L155.45 97.77ZM172.49 80.69L171.20 74.69L165.65 72.95L161.39 77.22L162.68 83.22L168.23 84.96ZM136.21 80.55L134.92 74.55L129.37 72.82L125.11 77.09L126.41 83.10L131.96 84.83ZM126.41 83.10L125.11 77.09L119.56 75.36L115.31 79.64L116.61 85.64L122.16 87.37ZM139.17 70.28L137.88 64.27L132.32 62.54L128.07 66.81L129.37 72.82L134.92 74.55ZM129.37 72.82L128.07 66.81L122.52 65.09L118.26 69.36L119.56 75.36L125.11 77.09ZM143.06 88.29L141.76 82.29L136.21 80.55L131.96 84.83L133.26 90.83L138.80 92.56ZM133.26 90.83L131.96 84.83L126.41 83.10L122.16 87.37L123.46 93.37L129.00 95.10ZM146.02 78.02L144.73 72.01L139.17 70.28L134.92 74.55L136.21 80.55L141.76 82.29ZM178.44 60.13L177.15 54.12L171.59 52.38L167.33 56.66L168.62 62.67L174.18 64.40ZM168.62 62.67L167.33 56.66L161.77 54.92L157.51 59.19L158.80 65.20L164.36 66.94ZM181.42 49.85L180.13 43.83L174.57 42.09L170.30 46.37L171.59 52.38L177.15 54.12ZM171.59 52.38L170.30 46.37L164.74 44.63L160.48 48.91L161.77 54.92L167.33 56.66ZM185.29 67.89L184.00 61.87L178.44 60.13L174.18 64.40L175.47 70.42L181.02 72.16ZM175.47 70.42L174.18 64.40L168.62 62.67L164.36 66.94L165.65 72.95L171.20 74.69ZM151.95 57.46L150.65 51.45L145.10 49.71L140.84 53.99L142.13 60.00L147.69 61.73ZM142.13 60.00L140.84 53.99L135.28 52.26L131.03 56.53L132.32 62.54L137.88 64.27ZM154.92 47.17L153.62 41.16L148.06 39.43L143.80 43.70L145.10 49.71L150.65 51.45ZM145.10 49.71L143.80 43.70L138.24 41.97L133.98 46.25L135.28 52.26L140.84 53.99ZM158.80 65.20L157.51 59.19L151.95 57.46L147.69 61.73L148.98 67.74L154.54 69.47ZM148.98 67.74L147.69 61.73L142.13 60.00L137.88 64.27L139.17 70.28L144.73 72.01ZM161.77 54.92L160.48 48.91L154.92 47.17L150.65 51.45L151.95 57.46L157.51 59.19ZM173.39 108.98L172.10 102.98L166.55 101.24L162.29 105.51L163.59 111.51L169.14 113.25ZM163.59 111.51L162.29 105.51L156.75 103.77L152.49 108.03L153.78 114.04L159.33 115.77ZM176.37 98.71L175.08 92.71L169.52 90.97L165.26 95.24L166.55 101.24L172.10 102.98ZM166.55 101.24L165.26 95.24L159.71 93.50L155.45 97.77L156.75 103.77L162.29 105.51ZM170.43 119.25L169.14 113.25L163.59 111.51L159.33 115.77L160.62 121.77L166.17 123.51ZM146.94 106.30L145.65 100.30L140.10 98.56L135.85 102.83L137.14 108.83L142.69 110.56ZM137.14 108.83L135.85 102.83L130.30 101.10L126.05 105.37L127.35 111.37L132.89 113.10ZM149.90 96.03L148.61 90.03L143.06 88.29L138.80 92.56L140.10 98.56L145.65 100.30ZM140.10 98.56L138.80 92.56L133.26 90.83L129.00 95.10L130.30 101.10L135.85 102.83ZM153.78 114.04L152.49 108.03L146.94 106.30L142.69 110.56L143.98 116.56L149.53 118.30ZM143.98 116.56L142.69 110.56L137.14 108.83L132.89 113.10L134.19 119.10L139.73 120.83ZM156.75 103.77L155.45 97.77L149.90 96.03L145.65 100.30L146.94 106.30L152.49 108.03ZM179.34 88.44L178.05 82.43L172.49 80.69L168.23 84.96L169.52 90.97L175.08 92.71ZM182.31 78.17L181.02 72.16L175.47 70.42L171.20 74.69L172.49 80.69L178.05 82.43ZM94.08 101.00L92.78 95.00L87.24 93.28L83.00 97.55L84.30 103.54L89.84 105.27ZM84.30 103.54L83.00 97.55L77.45 95.83L73.21 100.10L74.52 106.09L80.06 107.81ZM97.02 90.73L95.72 84.73L90.18 83.01L85.93 87.28L87.24 93.28L92.78 95.00ZM87.24 93.28L85.93 87.28L80.39 85.56L76.15 89.83L77.45 95.83L83.00 97.55ZM100.93 108.72L99.62 102.72L94.08 101.00L89.84 105.27L91.14 111.26L96.68 112.99ZM91.14 111.26L89.84 105.27L84.30 103.54L80.06 107.81L81.36 113.81L86.90 115.53ZM103.87 98.45L102.57 92.45L97.02 90.73L92.78 95.00L94.08 101.00L99.62 102.72ZM67.67 98.38L66.37 92.39L60.83 90.67L56.59 94.94L57.90 100.93L63.44 102.65ZM57.90 100.93L56.59 94.94L51.05 93.23L46.82 97.50L48.13 103.49L53.67 105.21ZM70.61 88.11L69.30 82.12L63.76 80.40L59.52 84.67L60.83 90.67L66.37 92.39ZM60.83 90.67L59.52 84.67L53.98 82.96L49.74 87.23L51.05 93.23L56.59 94.94ZM74.52 106.09L73.21 100.10L67.67 98.38L63.44 102.65L64.74 108.64L70.28 110.36ZM64.74 108.64L63.44 102.65L57.90 100.93L53.67 105.21L54.97 111.20L60.51 112.92ZM77.45 95.83L76.15 89.83L70.61 88.11L66.37 92.39L67.67 98.38L73.21 100.10ZM109.76 77.91L108.46 71.91L102.91 70.18L98.67 74.46L99.97 80.46L105.51 82.18ZM99.97 80.46L98.67 74.46L93.12 72.73L88.87 77.01L90.18 83.01L95.72 84.73ZM112.71 67.63L111.41 61.63L105.86 59.90L101.61 64.18L102.91 70.18L108.46 71.91ZM102.91 70.18L101.61 64.18L96.06 62.45L91.82 66.73L93.12 72.73L98.67 74.46ZM116.61 85.64L115.31 79.64L109.76 77.91L105.51 82.18L106.81 88.18L112.36 89.91ZM106.81 88.18L105.51 82.18L99.97 80.46L95.72 84.73L97.02 90.73L102.57 92.45ZM119.56 75.36L118.26 69.36L112.71 67.63L108.46 71.91L109.76 77.91L115.31 79.64ZM83.33 75.29L82.02 69.29L76.48 67.57L72.23 71.84L73.54 77.84L79.08 79.56ZM73.54 77.84L72.23 71.84L66.69 70.12L62.45 74.40L63.76 80.40L69.30 82.12ZM86.27 65.01L84.96 59.01L79.41 57.29L75.17 61.57L76.48 67.57L82.02 69.29ZM76.48 67.57L75.17 61.57L69.62 59.85L65.38 64.13L66.69 70.12L72.23 71.84ZM90.18 83.01L88.87 77.01L83.33 75.29L79.08 79.56L80.39 85.56L85.93 87.28ZM80.39 85.56L79.08 79.56L73.54 77.84L69.30 82.12L70.61 88.11L76.15 89.83ZM93.12 72.73L91.82 66.73L86.27 65.01L82.02 69.29L83.33 75.29L88.87 77.01ZM104.82 126.70L103.52 120.71L97.98 118.98L93.74 123.25L95.04 129.24L100.58 130.97ZM95.04 129.24L93.74 123.25L88.20 121.52L83.97 125.79L85.27 131.78L90.81 133.51ZM107.77 116.44L106.47 110.44L100.93 108.72L96.68 112.99L97.98 118.98L103.52 120.71ZM97.98 118.98L96.68 112.99L91.14 111.26L86.90 115.53L88.20 121.52L93.74 123.25ZM111.66 134.42L110.36 128.43L104.82 126.70L100.58 130.97L101.88 136.96L107.42 138.69ZM101.88 136.96L100.58 130.97L95.04 129.24L90.81 133.51L92.11 139.50L97.64 141.22ZM114.61 124.16L113.31 118.17L107.77 116.44L103.52 120.71L104.82 126.70L110.36 128.43ZM78.43 124.07L77.13 118.08L71.59 116.36L67.35 120.62L68.66 126.61L74.19 128.34ZM68.66 126.61L67.35 120.62L61.82 118.91L57.58 123.18L58.89 129.16L64.42 130.88ZM81.36 113.81L80.06 107.81L74.52 106.09L70.28 110.36L71.59 116.36L77.13 118.08ZM71.59 116.36L70.28 110.36L64.74 108.64L60.51 112.92L61.82 118.91L67.35 120.62ZM85.27 131.78L83.97 125.79L78.43 124.07L74.19 128.34L75.50 134.32L81.03 136.05ZM75.50 134.32L74.19 128.34L68.66 126.61L64.42 130.88L65.73 136.87L71.26 138.59ZM88.20 121.52L86.90 115.53L81.36 113.81L77.13 118.08L78.43 124.07L83.97 125.79ZM120.50 103.64L119.21 97.64L113.66 95.91L109.41 100.18L110.71 106.18L116.26 107.90ZM110.71 106.18L109.41 100.18L103.87 98.45L99.62 102.72L100.93 108.72L106.47 110.44ZM123.46 93.37L122.16 87.37L116.61 85.64L112.36 89.91L113.66 95.91L119.21 97.64ZM113.66 95.91L112.36 89.91L106.81 88.18L102.57 92.45L103.87 98.45L109.41 100.18ZM127.35 111.37L126.05 105.37L120.50 103.64L116.26 107.90L117.55 113.90L123.10 115.63ZM117.55 113.90L116.26 107.90L110.71 106.18L106.47 110.44L107.77 116.44L113.31 118.17ZM130.30 101.10L129.00 95.10L123.46 93.37L119.21 97.64L120.50 103.64L126.05 105.37ZM156.97 8.54L155.68 2.53L150.11 0.79L145.84 5.08L147.14 11.09L152.70 12.83ZM147.14 11.09L145.84 5.08L140.28 3.35L136.02 7.63L137.31 13.64L142.88 15.38ZM159.95 -1.76L158.65 -7.78L153.08 -9.51L148.81 -5.22L150.11 0.79L155.68 2.53ZM150.11 0.79L148.81 -5.22L143.25 -6.96L138.98 -2.67L140.28 3.35L145.84 5.08ZM163.83 16.30L162.54 10.28L156.97 8.54L152.70 12.83L154.00 18.84L159.56 20.58ZM154.00 18.84L152.70 12.83L147.14 11.09L142.88 15.38L144.17 21.39L149.73 23.12ZM166.81 6.00L165.51 -0.02L159.95 -1.76L155.68 2.53L156.97 8.54L162.54 10.28ZM184.40 39.56L183.11 33.54L177.55 31.80L173.28 36.08L174.57 42.09L180.13 43.83ZM167.71 34.34L166.42 28.33L160.86 26.59L156.59 30.87L157.89 36.88L163.45 38.62ZM157.89 36.88L156.59 30.87L151.03 29.14L146.77 33.41L148.06 39.43L153.62 41.16ZM170.69 24.05L169.40 18.03L163.83 16.30L159.56 20.58L160.86 26.59L166.42 28.33ZM160.86 26.59L159.56 20.58L154.00 18.84L149.73 23.12L151.03 29.14L156.59 30.87ZM174.57 42.09L173.28 36.08L167.71 34.34L163.45 38.62L164.74 44.63L170.30 46.37ZM164.74 44.63L163.45 38.62L157.89 36.88L153.62 41.16L154.92 47.17L160.48 48.91ZM121.32 226.74L120.02 220.76L114.50 219.03L110.27 223.28L111.56 229.26L117.08 230.99ZM111.56 229.26L110.27 223.28L104.74 221.55L100.51 225.80L101.81 231.78L107.33 233.51ZM124.26 216.52L122.97 210.53L117.44 208.80L113.20 213.05L114.50 219.03L120.02 220.76ZM114.50 219.03L113.20 213.05L107.68 211.32L103.45 215.57L104.74 221.55L110.27 223.28ZM128.13 234.46L126.84 228.48L121.32 226.74L117.08 230.99L118.38 236.97L123.90 238.70ZM118.38 236.97L117.08 230.99L111.56 229.26L107.33 233.51L108.62 239.48L114.15 241.21ZM131.08 224.23L129.79 218.25L124.26 216.52L120.02 220.76L121.32 226.74L126.84 228.48ZM94.99 224.07L93.69 218.09L88.17 216.36L83.94 220.61L85.24 226.59L90.76 228.32ZM85.24 226.59L83.94 220.61L78.42 218.89L74.20 223.14L75.50 229.12L81.02 230.84ZM97.92 213.84L96.62 207.86L91.10 206.13L86.87 210.39L88.17 216.36L93.69 218.09ZM88.17 216.36L86.87 210.39L81.34 208.66L77.12 212.91L78.42 218.89L83.94 220.61ZM101.81 231.78L100.51 225.80L94.99 224.07L90.76 228.32L92.06 234.29L97.58 236.02ZM92.06 234.29L90.76 228.32L85.24 226.59L81.02 230.84L82.31 236.81L87.83 238.54ZM104.74 221.55L103.45 215.57L97.92 213.84L93.69 218.09L94.99 224.07L100.51 225.80ZM136.97 203.77L135.68 197.78L130.15 196.05L125.91 200.30L127.20 206.28L132.73 208.02ZM127.20 206.28L125.91 200.30L120.38 198.57L116.14 202.82L117.44 208.80L122.97 210.53ZM139.92 193.53L138.63 187.54L133.09 185.81L128.85 190.06L130.15 196.05L135.68 197.78ZM130.15 196.05L128.85 190.06L123.32 188.33L119.08 192.58L120.38 198.57L125.91 200.30ZM143.79 211.49L142.50 205.50L136.97 203.77L132.73 208.02L134.02 214.00L139.55 215.74ZM134.02 214.00L132.73 208.02L127.20 206.28L122.97 210.53L124.26 216.52L129.79 218.25ZM146.74 201.25L145.45 195.27L139.92 193.53L135.68 197.78L136.97 203.77L142.50 205.50ZM110.61 201.09L109.32 195.10L103.79 193.37L99.56 197.63L100.85 203.61L106.38 205.34ZM100.85 203.61L99.56 197.63L94.03 195.90L89.80 200.15L91.10 206.13L96.62 207.86ZM113.55 190.85L112.26 184.86L106.73 183.13L102.49 187.39L103.79 193.37L109.32 195.10ZM103.79 193.37L102.49 187.39L96.96 185.66L92.73 189.92L94.03 195.90L99.56 197.63ZM117.44 208.80L116.14 202.82L110.61 201.09L106.38 205.34L107.68 211.32L113.20 213.05ZM107.68 211.32L106.38 205.34L100.85 203.61L96.62 207.86L97.92 213.84L103.45 215.57ZM120.38 198.57L119.08 192.58L113.55 190.85L109.32 195.10L110.61 201.09L116.14 202.82ZM132.01 252.40L130.72 246.42L125.19 244.68L120.96 248.93L122.25 254.90L127.78 256.64ZM122.25 254.90L120.96 248.93L115.44 247.19L111.21 251.44L112.51 257.41L118.03 259.14ZM134.95 242.17L133.66 236.19L128.13 234.46L123.90 238.70L125.19 244.68L130.72 246.42ZM125.19 244.68L123.90 238.70L118.38 236.97L114.15 241.21L115.44 247.19L120.96 248.93ZM105.69 249.70L104.40 243.73L98.88 242.00L94.65 246.24L95.95 252.22L101.47 253.95ZM95.95 252.22L94.65 246.24L89.13 244.52L84.91 248.76L86.21 254.73L91.72 256.46ZM108.62 239.48L107.33 233.51L101.81 231.78L97.58 236.02L98.88 242.00L104.40 243.73ZM98.88 242.00L97.58 236.02L92.06 234.29L87.83 238.54L89.13 244.52L94.65 246.24ZM112.51 257.41L111.21 251.44L105.69 249.70L101.47 253.95L102.76 259.92L108.28 261.65ZM102.76 259.92L101.47 253.95L95.95 252.22L91.72 256.46L93.02 262.43L98.54 264.16ZM115.44 247.19L114.15 241.21L108.62 239.48L104.40 243.73L105.69 249.70L111.21 251.44ZM137.90 231.95L136.61 225.97L131.08 224.23L126.84 228.48L128.13 234.46L133.66 236.19ZM140.84 221.72L139.55 215.74L134.02 214.00L129.79 218.25L131.08 224.23L136.61 225.97ZM141.95 155.07L140.66 149.08L135.12 147.34L130.87 151.60L132.16 157.59L137.70 159.33ZM132.16 157.59L130.87 151.60L125.33 149.87L121.09 154.13L122.38 160.12L127.92 161.85ZM144.90 144.82L143.61 138.82L138.07 137.09L133.82 141.35L135.12 147.34L140.66 149.08ZM135.12 147.34L133.82 141.35L128.28 139.61L124.04 143.88L125.33 149.87L130.87 151.60ZM148.78 162.80L147.49 156.81L141.95 155.07L137.70 159.33L139.00 165.32L144.53 167.05ZM139.00 165.32L137.70 159.33L132.16 157.59L127.92 161.85L129.22 167.84L134.75 169.57ZM151.74 152.55L150.45 146.55L144.90 144.82L140.66 149.08L141.95 155.07L147.49 156.81ZM115.55 152.40L114.26 146.41L108.72 144.68L104.48 148.94L105.78 154.93L111.31 156.66ZM105.78 154.93L104.48 148.94L98.94 147.21L94.70 151.47L96.00 157.46L101.54 159.19ZM118.50 142.14L117.20 136.15L111.66 134.42L107.42 138.69L108.72 144.68L114.26 146.41ZM108.72 144.68L107.42 138.69L101.88 136.96L97.64 141.22L98.94 147.21L104.48 148.94ZM122.38 160.12L121.09 154.13L115.55 152.40L111.31 156.66L112.61 162.65L118.14 164.38ZM112.61 162.65L111.31 156.66L105.78 154.93L101.54 159.19L102.84 165.18L108.37 166.90ZM125.33 149.87L124.04 143.88L118.50 142.14L114.26 146.41L115.55 152.40L121.09 154.13ZM157.66 132.04L156.37 126.04L150.82 124.30L146.57 128.56L147.86 134.56L153.41 136.30ZM147.86 134.56L146.57 128.56L141.03 126.83L136.78 131.09L138.07 137.09L143.61 138.82ZM160.62 121.77L159.33 115.77L153.78 114.04L149.53 118.30L150.82 124.30L156.37 126.04ZM150.82 124.30L149.53 118.30L143.98 116.56L139.73 120.83L141.03 126.83L146.57 128.56ZM154.70 142.29L153.41 136.30L147.86 134.56L143.61 138.82L144.90 144.82L150.45 146.55ZM167.46 129.51L166.17 123.51L160.62 121.77L156.37 126.04L157.66 132.04L163.20 133.77ZM131.23 129.36L129.94 123.36L124.39 121.63L120.15 125.89L121.45 131.89L126.99 133.62ZM121.45 131.89L120.15 125.89L114.61 124.16L110.36 128.43L111.66 134.42L117.20 136.15ZM134.19 119.10L132.89 113.10L127.35 111.37L123.10 115.63L124.39 121.63L129.94 123.36ZM124.39 121.63L123.10 115.63L117.55 113.90L113.31 118.17L114.61 124.16L120.15 125.89ZM138.07 137.09L136.78 131.09L131.23 129.36L126.99 133.62L128.28 139.61L133.82 141.35ZM128.28 139.61L126.99 133.62L121.45 131.89L117.20 136.15L118.50 142.14L124.04 143.88ZM141.03 126.83L139.73 120.83L134.19 119.10L129.94 123.36L131.23 129.36L136.78 131.09ZM152.65 180.77L151.36 174.78L145.82 173.05L141.58 177.30L142.87 183.29L148.41 185.03ZM142.87 183.29L141.58 177.30L136.04 175.56L131.80 179.82L133.09 185.81L138.63 187.54ZM155.61 170.53L154.32 164.54L148.78 162.80L144.53 167.05L145.82 173.05L151.36 174.78ZM145.82 173.05L144.53 167.05L139.00 165.32L134.75 169.57L136.04 175.56L141.58 177.30ZM126.27 178.09L124.97 172.10L119.44 170.37L115.20 174.62L116.50 180.61L122.03 182.34ZM116.50 180.61L115.20 174.62L109.67 172.89L105.43 177.15L106.73 183.13L112.26 184.86ZM129.22 167.84L127.92 161.85L122.38 160.12L118.14 164.38L119.44 170.37L124.97 172.10ZM119.44 170.37L118.14 164.38L112.61 162.65L108.37 166.90L109.67 172.89L115.20 174.62ZM133.09 185.81L131.80 179.82L126.27 178.09L122.03 182.34L123.32 188.33L128.85 190.06ZM123.32 188.33L122.03 182.34L116.50 180.61L112.26 184.86L113.55 190.85L119.08 192.58ZM136.04 175.56L134.75 169.57L129.22 167.84L124.97 172.10L126.27 178.09L131.80 179.82ZM158.57 160.28L157.28 154.29L151.74 152.55L147.49 156.81L148.78 162.80L154.32 164.54Z"/></svg>
