<svg xmlns="http://www.w3.org/2000/svg" width="256" height="256" viewBox="0 0 256 256"><path data-band="1" fill="#fde68a" fill-opacity="0.35" d="M192.60 254.52L191.33 248.57L185.84 246.82L181.63 251.01L182.90 256.95L188.39 258.71ZM195.55 244.38L194.28 238.43L188.79 236.67L184.57 240.87L185.84 246.82L191.33 248.57ZM201.44 224.08L200.17 218.13L194.68 216.38L190.46 220.58L191.73 226.53L197.22 228.28ZM204.39 213.93L203.12 207.98L197.62 206.22L193.40 210.42L194.68 216.38L200.17 218.13ZM208.21 231.79L206.94 225.84L201.44 224.08L197.22 228.28L198.49 234.23L203.99 235.99ZM198.49 234.23L197.22 228.28L191.73 226.53L187.51 230.72L188.79 236.67L194.28 238.43ZM211.16 221.64L209.89 215.69L204.39 213.93L200.17 218.13L201.44 224.08L206.94 225.84ZM199.36 262.22L198.09 256.27L192.60 254.52L188.39 258.71L189.66 264.65L195.15 266.41ZM238.21 252.50L236.94 246.54L231.45 244.78L227.22 248.97L228.49 254.92L233.98 256.68ZM228.49 254.92L227.22 248.97L221.73 247.21L217.51 251.40L218.78 257.35L224.27 259.11ZM241.17 242.35L239.90 236.40L234.41 234.64L230.18 238.83L231.45 244.78L236.94 246.54ZM231.45 244.78L230.18 238.83L224.69 237.07L220.46 241.26L221.73 247.21L227.22 248.97ZM244.96 260.21L243.70 254.26L238.21 252.50L233.98 256.68L235.25 262.64L240.74 264.40ZM235.25 262.64L233.98 256.68L228.49 254.92L224.27 259.11L225.53 265.06L231.02 266.82ZM247.93 250.07L246.66 244.12L241.17 242.35L236.94 246.54L238.21 252.50L243.70 254.26ZM212.02 249.64L210.75 243.69L205.26 241.94L201.04 246.13L202.31 252.08L207.80 253.84ZM202.31 252.08L201.04 246.13L195.55 244.38L191.33 248.57L192.60 254.52L198.09 256.27ZM214.97 239.50L213.70 233.55L208.21 231.79L203.99 235.99L205.26 241.94L210.75 243.69ZM205.26 241.94L203.99 235.99L198.49 234.23L194.28 238.43L195.55 244.38L201.04 246.13ZM218.78 257.35L217.51 251.40L212.02 249.64L207.80 253.84L209.07 259.78L214.56 261.54ZM209.07 259.78L207.80 253.84L202.31 252.08L198.09 256.27L199.36 262.22L204.85 263.97ZM221.73 247.21L220.46 241.26L214.97 239.50L210.75 243.69L212.02 249.64L217.51 251.40ZM264.11 132.99L262.84 127.02L257.33 125.25L253.08 129.46L254.35 135.44L259.86 137.20ZM254.35 135.44L253.08 129.46L247.57 127.70L243.32 131.91L244.59 137.88L250.11 139.64ZM257.33 125.25L256.06 119.28L250.54 117.52L246.30 121.73L247.57 127.70L253.08 129.46ZM261.13 143.17L259.86 137.20L254.35 135.44L250.11 139.64L251.37 145.61L256.88 147.38ZM237.81 130.15L236.54 124.18L231.03 122.42L226.79 126.63L228.06 132.60L233.57 134.36ZM228.06 132.60L226.79 126.63L221.28 124.88L217.04 129.09L218.32 135.06L223.82 136.81ZM240.78 119.97L239.51 114.00L234.00 112.24L229.76 116.45L231.03 122.42L236.54 124.18ZM231.03 122.42L229.76 116.45L224.24 114.69L220.01 118.91L221.28 124.88L226.79 126.63ZM244.59 137.88L243.32 131.91L237.81 130.15L233.57 134.36L234.84 140.33L240.35 142.09ZM234.84 140.33L233.57 134.36L228.06 132.60L223.82 136.81L225.10 142.78L230.60 144.54ZM247.57 127.70L246.30 121.73L240.78 119.97L236.54 124.18L237.81 130.15L243.32 131.91ZM253.52 107.33L252.25 101.35L246.73 99.59L242.49 103.81L243.76 109.78L249.27 111.54ZM243.76 109.78L242.49 103.81L236.97 102.05L232.73 106.26L234.00 112.24L239.51 114.00ZM256.50 97.14L255.23 91.16L249.71 89.40L245.46 93.62L246.73 99.59L252.25 101.35ZM246.73 99.59L245.46 93.62L239.94 91.86L235.70 96.07L236.97 102.05L242.49 103.81ZM260.31 115.07L259.04 109.09L253.52 107.33L249.27 111.54L250.54 117.52L256.06 119.28ZM250.54 117.52L249.27 111.54L243.76 109.78L239.51 114.00L240.78 119.97L246.30 121.73ZM263.29 104.88L262.02 98.90L256.50 97.14L252.25 101.35L253.52 107.33L259.04 109.09ZM264.93 161.08L263.66 155.11L258.15 153.35L253.91 157.55L255.18 163.52L260.68 165.29ZM248.40 155.79L247.13 149.82L241.62 148.06L237.38 152.27L238.65 158.23L244.16 159.99ZM238.65 158.23L237.38 152.27L231.88 150.51L227.64 154.71L228.91 160.68L234.42 162.44ZM251.37 145.61L250.11 139.64L244.59 137.88L240.35 142.09L241.62 148.06L247.13 149.82ZM241.62 148.06L240.35 142.09L234.84 140.33L230.60 144.54L231.88 150.51L237.38 152.27ZM255.18 163.52L253.91 157.55L248.40 155.79L244.16 159.99L245.43 165.96L250.94 167.72ZM245.43 165.96L244.16 159.99L238.65 158.23L234.42 162.44L235.69 168.40L241.19 170.17ZM258.15 153.35L256.88 147.38L251.37 145.61L247.13 149.82L248.40 155.79L253.91 157.55ZM213.25 183.46L211.98 177.50L206.48 175.74L202.25 179.95L203.53 185.91L209.03 187.66ZM216.21 173.30L214.94 167.33L209.44 165.58L205.21 169.78L206.48 175.74L211.98 177.50ZM222.13 152.96L220.86 146.99L215.35 145.23L211.12 149.44L212.39 155.41L217.90 157.16ZM225.10 142.78L223.82 136.81L218.32 135.06L214.08 139.27L215.35 145.23L220.86 146.99ZM228.91 160.68L227.64 154.71L222.13 152.96L217.90 157.16L219.17 163.13L224.68 164.89ZM219.17 163.13L217.90 157.16L212.39 155.41L208.16 159.62L209.44 165.58L214.94 167.33ZM231.88 150.51L230.60 144.54L225.10 142.78L220.86 146.99L222.13 152.96L227.64 154.71ZM258.66 58.80L257.39 52.81L251.86 51.05L247.61 55.28L248.88 61.26L254.40 63.02ZM248.88 61.26L247.61 55.28L242.08 53.52L237.83 57.74L239.10 63.72L244.63 65.48ZM261.64 48.59L260.37 42.61L254.84 40.84L250.59 45.07L251.86 51.05L257.39 52.81ZM251.86 51.05L250.59 45.07L245.06 43.31L240.81 47.53L242.08 53.52L247.61 55.28ZM265.45 66.54L264.18 60.56L258.66 58.80L254.40 63.02L255.67 69.00L261.20 70.76ZM255.67 69.00L254.40 63.02L248.88 61.26L244.63 65.48L245.90 71.46L251.42 73.22ZM264.63 38.38L263.36 32.39L257.83 30.63L253.57 34.86L254.84 40.84L260.37 42.61ZM259.48 86.94L258.21 80.96L252.69 79.20L248.44 83.42L249.71 89.40L255.23 91.16ZM262.47 76.75L261.20 70.76L255.67 69.00L251.42 73.22L252.69 79.20L258.21 80.96ZM266.27 94.69L265.00 88.71L259.48 86.94L255.23 91.16L256.50 97.14L262.02 98.90ZM236.97 102.05L235.70 96.07L230.18 94.31L225.94 98.53L227.21 104.51L232.73 106.26ZM242.92 81.66L241.65 75.68L236.13 73.92L231.88 78.14L233.15 84.12L238.67 85.88ZM245.90 71.46L244.63 65.48L239.10 63.72L234.86 67.94L236.13 73.92L241.65 75.68ZM236.13 73.92L234.86 67.94L229.33 66.19L225.09 70.41L226.36 76.39L231.88 78.14ZM249.71 89.40L248.44 83.42L242.92 81.66L238.67 85.88L239.94 91.86L245.46 93.62ZM239.94 91.86L238.67 85.88L233.15 84.12L228.91 88.34L230.18 94.31L235.70 96.07ZM252.69 79.20L251.42 73.22L245.90 71.46L241.65 75.68L242.92 81.66L248.44 83.42ZM243.30 204.18L242.03 198.22L236.53 196.46L232.30 200.66L233.56 206.61L239.06 208.38ZM233.56 206.61L232.30 200.66L226.80 198.90L222.57 203.09L223.84 209.05L229.33 210.81ZM246.26 194.02L245.00 188.06L239.49 186.29L235.26 190.50L236.53 196.46L242.03 198.22ZM236.53 196.46L235.26 190.50L229.76 188.73L225.53 192.94L226.80 198.90L232.30 200.66ZM250.06 211.90L248.80 205.94L243.30 204.18L239.06 208.38L240.33 214.33L245.83 216.10ZM240.33 214.33L239.06 208.38L233.56 206.61L229.33 210.81L230.60 216.77L236.10 218.53ZM253.03 201.74L251.76 195.78L246.26 194.02L242.03 198.22L243.30 204.18L248.80 205.94ZM217.07 201.34L215.80 195.38L210.30 193.62L206.07 197.82L207.34 203.78L212.84 205.54ZM220.03 191.18L218.75 185.22L213.25 183.46L209.03 187.66L210.30 193.62L215.80 195.38ZM210.30 193.62L209.03 187.66L203.53 185.91L199.30 190.11L200.57 196.07L206.07 197.82ZM223.84 209.05L222.57 203.09L217.07 201.34L212.84 205.54L214.11 211.49L219.61 213.25ZM214.11 211.49L212.84 205.54L207.34 203.78L203.12 207.98L204.39 213.93L209.89 215.69ZM226.80 198.90L225.53 192.94L220.03 191.18L215.80 195.38L217.07 201.34L222.57 203.09ZM258.98 181.42L257.71 175.45L252.20 173.69L247.96 177.89L249.23 183.86L254.74 185.62ZM249.23 183.86L247.96 177.89L242.46 176.13L238.22 180.33L239.49 186.29L245.00 188.06ZM261.95 171.25L260.68 165.29L255.18 163.52L250.94 167.72L252.20 173.69L257.71 175.45ZM252.20 173.69L250.94 167.72L245.43 165.96L241.19 170.17L242.46 176.13L247.96 177.89ZM265.75 189.15L264.48 183.19L258.98 181.42L254.74 185.62L256.00 191.58L261.51 193.35ZM256.00 191.58L254.74 185.62L249.23 183.86L245.00 188.06L246.26 194.02L251.76 195.78ZM232.72 178.57L231.45 172.61L225.95 170.85L221.71 175.05L222.98 181.01L228.49 182.77ZM222.98 181.01L221.71 175.05L216.21 173.30L211.98 177.50L213.25 183.46L218.75 185.22ZM235.69 168.40L234.42 162.44L228.91 160.68L224.68 164.89L225.95 170.85L231.45 172.61ZM225.95 170.85L224.68 164.89L219.17 163.13L214.94 167.33L216.21 173.30L221.71 175.05ZM239.49 186.29L238.22 180.33L232.72 178.57L228.49 182.77L229.76 188.73L235.26 190.50ZM229.76 188.73L228.49 182.77L222.98 181.01L218.75 185.22L220.03 191.18L225.53 192.94ZM242.46 176.13L241.19 170.17L235.69 168.40L231.45 172.61L232.72 178.57L238.22 180.33ZM253.86 229.78L252.59 223.82L247.09 222.06L242.86 226.25L244.13 232.21L249.63 233.97ZM244.13 232.21L242.86 226.25L237.37 224.49L233.14 228.68L234.41 234.64L239.90 236.40ZM256.83 219.63L255.56 213.67L250.06 211.90L245.83 216.10L247.09 222.06L252.59 223.82ZM247.09 222.06L245.83 216.10L240.33 214.33L236.10 218.53L237.37 224.49L242.86 226.25ZM260.62 237.50L259.36 231.54L253.86 229.78L249.63 233.97L250.89 239.93L256.39 241.69ZM250.89 239.93L249.63 233.97L244.13 232.21L239.90 236.40L241.17 242.35L246.66 244.12ZM263.59 227.35L262.33 221.39L256.83 219.63L252.59 223.82L253.86 229.78L259.36 231.54ZM227.64 226.92L226.37 220.96L220.88 219.21L216.65 223.40L217.92 229.36L223.42 231.11ZM217.92 229.36L216.65 223.40L211.16 221.64L206.94 225.84L208.21 231.79L213.70 233.55ZM230.60 216.77L229.33 210.81L223.84 209.05L219.61 213.25L220.88 219.21L226.37 220.96ZM220.88 219.21L219.61 213.25L214.11 211.49L209.89 215.69L211.16 221.64L216.65 223.40ZM234.41 234.64L233.14 228.68L227.64 226.92L223.42 231.11L224.69 237.07L230.18 238.83ZM224.69 237.07L223.42 231.11L217.92 229.36L213.70 233.55L214.97 239.50L220.46 241.26ZM237.37 224.49L236.10 218.53L230.60 216.77L226.37 220.96L227.64 226.92L233.14 228.68ZM259.80 209.47L258.53 203.51L253.03 201.74L248.80 205.94L250.06 211.90L255.56 213.67ZM262.77 199.31L261.51 193.35L256.00 191.58L251.76 195.78L253.03 201.74L258.53 203.51ZM266.56 217.20L265.30 211.24L259.80 209.47L255.56 213.67L256.83 219.63L262.33 221.39ZM264.41 255.37L263.14 249.41L257.65 247.65L253.42 251.84L254.68 257.79L260.18 259.56ZM254.68 257.79L253.42 251.84L247.93 250.07L243.70 254.26L244.96 260.21L250.45 261.98ZM257.65 247.65L256.39 241.69L250.89 239.93L246.66 244.12L247.93 250.07L253.42 251.84ZM254.84 40.84L253.57 34.86L248.04 33.10L243.79 37.32L245.06 43.31L250.59 45.07ZM263.81 10.20L262.54 4.20L257.00 2.44L252.74 6.67L254.01 12.66L259.55 14.43ZM266.80 -0.03L265.53 -6.02L259.99 -7.78L255.73 -3.55L257.00 2.44L262.54 4.20ZM260.82 20.42L259.55 14.43L254.01 12.66L249.75 16.89L251.03 22.88L256.56 24.64Z"/><path data-band="2" fill="#f97316" fill-opacity="0.35" d="M173.21 259.40L171.93 253.45L166.45 251.70L162.24 255.90L163.51 261.84L169.00 263.59ZM163.51 261.84L162.24 255.90L156.75 254.15L152.55 258.34L153.83 264.28L159.31 266.03ZM147.07 256.60L145.79 250.65L140.30 248.91L136.10 253.11L137.38 259.05L142.86 260.79ZM137.38 259.05L136.10 253.11L130.62 251.36L126.42 255.56L127.70 261.50L133.18 263.24ZM175.26 221.27L173.98 215.32L168.49 213.57L164.27 217.77L165.55 223.72L171.04 225.47ZM165.55 223.72L164.27 217.77L158.78 216.03L154.57 220.23L155.85 226.17L161.34 227.92ZM178.20 211.12L176.92 205.17L171.43 203.42L167.21 207.62L168.49 213.57L173.98 215.32ZM168.49 213.57L167.21 207.62L161.72 205.87L157.51 210.08L158.78 216.03L164.27 217.77ZM182.02 228.97L180.75 223.02L175.26 221.27L171.04 225.47L172.32 231.42L177.81 233.17ZM172.32 231.42L171.04 225.47L165.55 223.72L161.34 227.92L162.62 233.87L168.10 235.62ZM184.96 218.82L183.69 212.87L178.20 211.12L173.98 215.32L175.26 221.27L180.75 223.02ZM149.08 218.48L147.80 212.53L142.31 210.79L138.11 214.99L139.39 220.94L144.88 222.68ZM139.39 220.94L138.11 214.99L132.62 213.25L128.41 217.45L129.70 223.40L135.18 225.14ZM152.01 208.33L150.73 202.38L145.24 200.64L141.03 204.84L142.31 210.79L147.80 212.53ZM142.31 210.79L141.03 204.84L135.54 203.10L131.34 207.30L132.62 213.25L138.11 214.99ZM155.85 226.17L154.57 220.23L149.08 218.48L144.88 222.68L146.16 228.63L151.64 230.37ZM146.16 228.63L144.88 222.68L139.39 220.94L135.18 225.14L136.46 231.08L141.95 232.83ZM158.78 216.03L157.51 210.08L152.01 208.33L147.80 212.53L149.08 218.48L154.57 220.23ZM190.85 198.52L189.58 192.56L184.08 190.81L179.86 195.01L181.14 200.97L186.63 202.72ZM181.14 200.97L179.86 195.01L174.37 193.26L170.15 197.47L171.43 203.42L176.92 205.17ZM193.80 188.36L192.53 182.40L187.03 180.65L182.81 184.85L184.08 190.81L189.58 192.56ZM184.08 190.81L182.81 184.85L177.31 183.10L173.09 187.31L174.37 193.26L179.86 195.01ZM197.62 206.22L196.35 200.27L190.85 198.52L186.63 202.72L187.91 208.67L193.40 210.42ZM187.91 208.67L186.63 202.72L181.14 200.97L176.92 205.17L178.20 211.12L183.69 212.87ZM200.57 196.07L199.30 190.11L193.80 188.36L189.58 192.56L190.85 198.52L196.35 200.27ZM164.65 195.72L163.38 189.77L157.88 188.02L153.67 192.23L154.95 198.18L160.44 199.92ZM154.95 198.18L153.67 192.23L148.17 190.48L143.96 194.69L145.24 200.64L150.73 202.38ZM167.59 185.56L166.31 179.61L160.82 177.86L156.60 182.07L157.88 188.02L163.38 189.77ZM157.88 188.02L156.60 182.07L151.11 180.32L146.89 184.53L148.17 190.48L153.67 192.23ZM171.43 203.42L170.15 197.47L164.65 195.72L160.44 199.92L161.72 205.87L167.21 207.62ZM161.72 205.87L160.44 199.92L154.95 198.18L150.73 202.38L152.01 208.33L157.51 210.08ZM174.37 193.26L173.09 187.31L167.59 185.56L163.38 189.77L164.65 195.72L170.15 197.47ZM185.84 246.82L184.57 240.87L179.08 239.12L174.87 243.31L176.14 249.26L181.63 251.01ZM176.14 249.26L174.87 243.31L169.38 241.56L165.17 245.76L166.45 251.70L171.93 253.45ZM188.79 236.67L187.51 230.72L182.02 228.97L177.81 233.17L179.08 239.12L184.57 240.87ZM179.08 239.12L177.81 233.17L172.32 231.42L168.10 235.62L169.38 241.56L174.87 243.31ZM182.90 256.95L181.63 251.01L176.14 249.26L171.93 253.45L173.21 259.40L178.69 261.15ZM159.68 244.01L158.41 238.06L152.92 236.32L148.71 240.52L149.99 246.46L155.48 248.21ZM149.99 246.46L148.71 240.52L143.23 238.77L139.02 242.97L140.30 248.91L145.79 250.65ZM162.62 233.87L161.34 227.92L155.85 226.17L151.64 230.37L152.92 236.32L158.41 238.06ZM152.92 236.32L151.64 230.37L146.16 228.63L141.95 232.83L143.23 238.77L148.71 240.52ZM166.45 251.70L165.17 245.76L159.68 244.01L155.48 248.21L156.75 254.15L162.24 255.90ZM156.75 254.15L155.48 248.21L149.99 246.46L145.79 250.65L147.07 256.60L152.55 258.34ZM169.38 241.56L168.10 235.62L162.62 233.87L158.41 238.06L159.68 244.01L165.17 245.76ZM191.73 226.53L190.46 220.58L184.96 218.82L180.75 223.02L182.02 228.97L187.51 230.72ZM194.68 216.38L193.40 210.42L187.91 208.67L183.69 212.87L184.96 218.82L190.46 220.58ZM107.41 238.46L106.12 232.52L100.64 230.79L96.45 234.99L97.73 240.93L103.21 242.66ZM97.73 240.93L96.45 234.99L90.97 233.25L86.77 237.46L88.06 243.39L93.54 245.13ZM110.32 228.32L109.04 222.38L103.55 220.64L99.36 224.85L100.64 230.79L106.12 232.52ZM100.64 230.79L99.36 224.85L93.87 223.11L89.68 227.32L90.97 233.25L96.45 234.99ZM114.17 246.14L112.89 240.20L107.41 238.46L103.21 242.66L104.50 248.60L109.98 250.34ZM104.50 248.60L103.21 242.66L97.73 240.93L93.54 245.13L94.83 251.06L100.30 252.80ZM117.09 236.00L115.81 230.06L110.32 228.32L106.12 232.52L107.41 238.46L112.89 240.20ZM81.29 235.72L80.01 229.79L74.53 228.05L70.34 232.26L71.63 238.19L77.10 239.93ZM71.63 238.19L70.34 232.26L64.86 230.53L60.67 234.73L61.96 240.67L67.44 242.40ZM84.20 225.58L82.91 219.64L77.43 217.91L73.24 222.12L74.53 228.05L80.01 229.79ZM74.53 228.05L73.24 222.12L67.75 220.39L63.57 224.59L64.86 230.53L70.34 232.26ZM88.06 243.39L86.77 237.46L81.29 235.72L77.10 239.93L78.39 245.86L83.87 247.59ZM78.39 245.86L77.10 239.93L71.63 238.19L67.44 242.40L68.73 248.33L74.20 250.06ZM90.97 233.25L89.68 227.32L84.20 225.58L80.01 229.79L81.29 235.72L86.77 237.46ZM122.93 215.71L121.64 209.77L116.16 208.03L111.95 212.23L113.24 218.18L118.72 219.92ZM113.24 218.18L111.95 212.23L106.47 210.50L102.27 214.70L103.55 220.64L109.04 222.38ZM125.85 205.56L124.56 199.62L119.07 197.88L114.87 202.08L116.16 208.03L121.64 209.77ZM116.16 208.03L114.87 202.08L109.38 200.35L105.18 204.55L106.47 210.50L111.95 212.23ZM129.70 223.40L128.41 217.45L122.93 215.71L118.72 219.92L120.01 225.86L125.49 227.60ZM120.01 225.86L118.72 219.92L113.24 218.18L109.04 222.38L110.32 228.32L115.81 230.06ZM132.62 213.25L131.34 207.30L125.85 205.56L121.64 209.77L122.93 215.71L128.41 217.45ZM96.78 212.97L95.50 207.02L90.01 205.29L85.81 209.50L87.10 215.44L92.59 217.17ZM87.10 215.44L85.81 209.50L80.33 207.77L76.14 211.97L77.43 217.91L82.91 219.64ZM99.69 202.82L98.41 196.87L92.92 195.14L88.72 199.35L90.01 205.29L95.50 207.02ZM90.01 205.29L88.72 199.35L83.24 197.62L79.04 201.82L80.33 207.77L85.81 209.50ZM103.55 220.64L102.27 214.70L96.78 212.97L92.59 217.17L93.87 223.11L99.36 224.85ZM93.87 223.11L92.59 217.17L87.10 215.44L82.91 219.64L84.20 225.58L89.68 227.32ZM106.47 210.50L105.18 204.55L99.69 202.82L95.50 207.02L96.78 212.97L102.27 214.70ZM120.94 253.82L119.66 247.88L114.17 246.14L109.98 250.34L111.26 256.28L116.74 258.02ZM111.26 256.28L109.98 250.34L104.50 248.60L100.30 252.80L101.59 258.74L107.07 260.47ZM127.70 261.50L126.42 255.56L120.94 253.82L116.74 258.02L118.02 263.95L123.50 265.69ZM91.92 261.20L90.63 255.26L85.16 253.53L80.97 257.73L82.25 263.66L87.73 265.39ZM82.25 263.66L80.97 257.73L75.49 255.99L71.31 260.19L72.59 266.13L78.07 267.86ZM94.83 251.06L93.54 245.13L88.06 243.39L83.87 247.59L85.16 253.53L90.63 255.26ZM85.16 253.53L83.87 247.59L78.39 245.86L74.20 250.06L75.49 255.99L80.97 257.73ZM101.59 258.74L100.30 252.80L94.83 251.06L90.63 255.26L91.92 261.20L97.40 262.93ZM133.54 241.22L132.26 235.28L126.77 233.54L122.57 237.74L123.86 243.68L129.34 245.42ZM123.86 243.68L122.57 237.74L117.09 236.00L112.89 240.20L114.17 246.14L119.66 247.88ZM136.46 231.08L135.18 225.14L129.70 223.40L125.49 227.60L126.77 233.54L132.26 235.28ZM126.77 233.54L125.49 227.60L120.01 225.86L115.81 230.06L117.09 236.00L122.57 237.74ZM140.30 248.91L139.02 242.97L133.54 241.22L129.34 245.42L130.62 251.36L136.10 253.11ZM130.62 251.36L129.34 245.42L123.86 243.68L119.66 247.88L120.94 253.82L126.42 255.56ZM143.23 238.77L141.95 232.83L136.46 231.08L132.26 235.28L133.54 241.22L139.02 242.97ZM64.86 230.53L63.57 224.59L58.09 222.87L53.90 227.07L55.19 233.01L60.67 234.73ZM65.83 258.46L64.54 252.53L59.07 250.80L54.88 255.00L56.17 260.93L61.65 262.66ZM68.73 248.33L67.44 242.40L61.96 240.67L57.78 244.87L59.07 250.80L64.54 252.53ZM75.49 255.99L74.20 250.06L68.73 248.33L64.54 252.53L65.83 258.46L71.31 260.19ZM195.88 150.15L194.60 144.18L189.10 142.43L184.87 146.64L186.15 152.60L191.65 154.36ZM186.15 152.60L184.87 146.64L179.37 144.89L175.14 149.11L176.42 155.07L181.92 156.82ZM198.83 139.97L197.56 134.01L192.05 132.25L187.82 136.47L189.10 142.43L194.60 144.18ZM189.10 142.43L187.82 136.47L182.32 134.72L178.09 138.93L179.37 144.89L184.87 146.64ZM202.66 157.86L201.38 151.90L195.88 150.15L191.65 154.36L192.93 160.32L198.43 162.07ZM192.93 160.32L191.65 154.36L186.15 152.60L181.92 156.82L183.20 162.77L188.70 164.53ZM205.61 147.69L204.34 141.72L198.83 139.97L194.60 144.18L195.88 150.15L201.38 151.90ZM169.64 147.36L168.36 141.40L162.86 139.65L158.64 143.87L159.92 149.82L165.42 151.57ZM159.92 149.82L158.64 143.87L153.13 142.12L148.92 146.34L150.20 152.29L155.70 154.04ZM172.58 137.18L171.30 131.22L165.80 129.48L161.58 133.69L162.86 139.65L168.36 141.40ZM162.86 139.65L161.58 133.69L156.07 131.95L151.85 136.16L153.13 142.12L158.64 143.87ZM176.42 155.07L175.14 149.11L169.64 147.36L165.42 151.57L166.70 157.53L172.20 159.28ZM166.70 157.53L165.42 151.57L159.92 149.82L155.70 154.04L156.98 159.99L162.48 161.74ZM179.37 144.89L178.09 138.93L172.58 137.18L168.36 141.40L169.64 147.36L175.14 149.11ZM211.53 127.33L210.26 121.37L204.75 119.61L200.51 123.83L201.79 129.79L207.30 131.55ZM201.79 129.79L200.51 123.83L195.00 122.07L190.77 126.29L192.05 132.25L197.56 134.01ZM214.49 117.15L213.22 111.18L207.71 109.43L203.47 113.64L204.75 119.61L210.26 121.37ZM204.75 119.61L203.47 113.64L197.96 111.89L193.73 116.11L195.00 122.07L200.51 123.83ZM218.32 135.06L217.04 129.09L211.53 127.33L207.30 131.55L208.57 137.51L214.08 139.27ZM208.57 137.51L207.30 131.55L201.79 129.79L197.56 134.01L198.83 139.97L204.34 141.72ZM221.28 124.88L220.01 118.91L214.49 117.15L210.26 121.37L211.53 127.33L217.04 129.09ZM185.27 124.54L183.99 118.57L178.48 116.83L174.25 121.04L175.53 127.01L181.04 128.75ZM175.53 127.01L174.25 121.04L168.74 119.30L164.52 123.51L165.80 129.48L171.30 131.22ZM188.22 114.36L186.94 108.39L181.43 106.64L177.20 110.86L178.48 116.83L183.99 118.57ZM178.48 116.83L177.20 110.86L171.69 109.11L167.46 113.33L168.74 119.30L174.25 121.04ZM192.05 132.25L190.77 126.29L185.27 124.54L181.04 128.75L182.32 134.72L187.82 136.47ZM182.32 134.72L181.04 128.75L175.53 127.01L171.30 131.22L172.58 137.18L178.09 138.93ZM195.00 122.07L193.73 116.11L188.22 114.36L183.99 118.57L185.27 124.54L190.77 126.29ZM206.48 175.74L205.21 169.78L199.70 168.03L195.48 172.24L196.75 178.20L202.25 179.95ZM196.75 178.20L195.48 172.24L189.98 170.48L185.75 174.69L187.03 180.65L192.53 182.40ZM209.44 165.58L208.16 159.62L202.66 157.86L198.43 162.07L199.70 168.03L205.21 169.78ZM199.70 168.03L198.43 162.07L192.93 160.32L188.70 164.53L189.98 170.48L195.48 172.24ZM203.53 185.91L202.25 179.95L196.75 178.20L192.53 182.40L193.80 188.36L199.30 190.11ZM180.25 172.94L178.98 166.98L173.48 165.23L169.26 169.44L170.53 175.40L176.03 177.15ZM170.53 175.40L169.26 169.44L163.76 167.70L159.54 171.91L160.82 177.86L166.31 179.61ZM183.20 162.77L181.92 156.82L176.42 155.07L172.20 159.28L173.48 165.23L178.98 166.98ZM173.48 165.23L172.20 159.28L166.70 157.53L162.48 161.74L163.76 167.70L169.26 169.44ZM187.03 180.65L185.75 174.69L180.25 172.94L176.03 177.15L177.31 183.10L182.81 184.85ZM177.31 183.10L176.03 177.15L170.53 175.40L166.31 179.61L167.59 185.56L173.09 187.31ZM189.98 170.48L188.70 164.53L183.20 162.77L178.98 166.98L180.25 172.94L185.75 174.69ZM212.39 155.41L211.12 149.44L205.61 147.69L201.38 151.90L202.66 157.86L208.16 159.62ZM215.35 145.23L214.08 139.27L208.57 137.51L204.34 141.72L205.61 147.69L211.12 149.44ZM216.60 78.85L215.32 72.88L209.81 71.12L205.56 75.35L206.84 81.32L212.36 83.07ZM206.84 81.32L205.56 75.35L200.05 73.59L195.81 77.82L197.09 83.79L202.60 85.54ZM219.57 68.65L218.29 62.68L212.77 60.92L208.53 65.15L209.81 71.12L215.32 72.88ZM209.81 71.12L208.53 65.15L203.01 63.39L198.77 67.62L200.05 73.59L205.56 75.35ZM223.39 86.58L222.12 80.61L216.60 78.85L212.36 83.07L213.63 89.05L219.15 90.80ZM213.63 89.05L212.36 83.07L206.84 81.32L202.60 85.54L203.88 91.51L209.39 93.27ZM226.36 76.39L225.09 70.41L219.57 68.65L215.32 72.88L216.60 78.85L222.12 80.61ZM190.29 76.07L189.01 70.09L183.50 68.35L179.26 72.57L180.54 78.54L186.06 80.29ZM180.54 78.54L179.26 72.57L173.75 70.82L169.51 75.05L170.80 81.02L176.31 82.77ZM193.25 65.87L191.97 59.89L186.45 58.14L182.22 62.37L183.50 68.35L189.01 70.09ZM183.50 68.35L182.22 62.37L176.70 60.62L172.47 64.85L173.75 70.82L179.26 72.57ZM197.09 83.79L195.81 77.82L190.29 76.07L186.06 80.29L187.34 86.26L192.85 88.01ZM187.34 86.26L186.06 80.29L180.54 78.54L176.31 82.77L177.59 88.74L183.10 90.48ZM200.05 73.59L198.77 67.62L193.25 65.87L189.01 70.09L190.29 76.07L195.81 77.82ZM232.31 55.98L231.03 50.00L225.51 48.25L221.26 52.47L222.54 58.45L228.06 60.21ZM222.54 58.45L221.26 52.47L215.74 50.72L211.49 54.94L212.77 60.92L218.29 62.68ZM235.28 45.78L234.01 39.79L228.48 38.04L224.23 42.26L225.51 48.25L231.03 50.00ZM225.51 48.25L224.23 42.26L218.71 40.51L214.46 44.74L215.74 50.72L221.26 52.47ZM239.10 63.72L237.83 57.74L232.31 55.98L228.06 60.21L229.33 66.19L234.86 67.94ZM229.33 66.19L228.06 60.21L222.54 58.45L218.29 62.68L219.57 68.65L225.09 70.41ZM242.08 53.52L240.81 47.53L235.28 45.78L231.03 50.00L232.31 55.98L237.83 57.74ZM205.97 53.19L204.70 47.21L199.17 45.46L194.93 49.69L196.21 55.67L201.73 57.42ZM196.21 55.67L194.93 49.69L189.41 47.94L185.17 52.17L186.45 58.14L191.97 59.89ZM208.94 42.98L207.66 37.00L202.14 35.25L197.89 39.48L199.17 45.46L204.70 47.21ZM199.17 45.46L197.89 39.48L192.37 37.73L188.13 41.96L189.41 47.94L194.93 49.69ZM212.77 60.92L211.49 54.94L205.97 53.19L201.73 57.42L203.01 63.39L208.53 65.15ZM203.01 63.39L201.73 57.42L196.21 55.67L191.97 59.89L193.25 65.87L198.77 67.62ZM215.74 50.72L214.46 44.74L208.94 42.98L204.70 47.21L205.97 53.19L211.49 54.94ZM227.21 104.51L225.94 98.53L220.42 96.78L216.18 100.99L217.46 106.97L222.97 108.72ZM217.46 106.97L216.18 100.99L210.67 99.24L206.43 103.46L207.71 109.43L213.22 111.18ZM230.18 94.31L228.91 88.34L223.39 86.58L219.15 90.80L220.42 96.78L225.94 98.53ZM220.42 96.78L219.15 90.80L213.63 89.05L209.39 93.27L210.67 99.24L216.18 100.99ZM234.00 112.24L232.73 106.26L227.21 104.51L222.97 108.72L224.24 114.69L229.76 116.45ZM224.24 114.69L222.97 108.72L217.46 106.97L213.22 111.18L214.49 117.15L220.01 118.91ZM200.92 101.70L199.64 95.73L194.13 93.98L189.89 98.20L191.17 104.17L196.68 105.92ZM191.17 104.17L189.89 98.20L184.38 96.45L180.15 100.67L181.43 106.64L186.94 108.39ZM203.88 91.51L202.60 85.54L197.09 83.79L192.85 88.01L194.13 93.98L199.64 95.73ZM194.13 93.98L192.85 88.01L187.34 86.26L183.10 90.48L184.38 96.45L189.89 98.20ZM207.71 109.43L206.43 103.46L200.92 101.70L196.68 105.92L197.96 111.89L203.47 113.64ZM197.96 111.89L196.68 105.92L191.17 104.17L186.94 108.39L188.22 114.36L193.73 116.11ZM210.67 99.24L209.39 93.27L203.88 91.51L199.64 95.73L200.92 101.70L206.43 103.46ZM233.15 84.12L231.88 78.14L226.36 76.39L222.12 80.61L223.39 86.58L228.91 88.34ZM207.34 203.78L206.07 197.82L200.57 196.07L196.35 200.27L197.62 206.22L203.12 207.98ZM97.80 146.81L96.51 140.86L91.01 139.13L86.81 143.35L88.10 149.30L93.59 151.03ZM100.71 136.64L99.42 130.69L93.93 128.96L89.72 133.18L91.01 139.13L96.51 140.86ZM106.55 116.29L105.26 110.33L99.76 108.60L95.55 112.82L96.84 118.78L102.34 120.51ZM109.48 106.11L108.19 100.15L102.68 98.42L98.47 102.64L99.76 108.60L105.26 110.33ZM113.34 123.98L112.05 118.03L106.55 116.29L102.34 120.51L103.63 126.47L109.13 128.20ZM103.63 126.47L102.34 120.51L96.84 118.78L92.63 123.00L93.93 128.96L99.42 130.69ZM116.27 113.80L114.98 107.85L109.48 106.11L105.26 110.33L106.55 116.29L112.05 118.03ZM126.13 16.83L124.84 10.85L119.32 9.12L115.09 13.36L116.38 19.33L121.90 21.07ZM114.39 57.65L113.10 51.68L107.59 49.95L103.37 54.18L104.66 60.15L110.17 61.88ZM118.26 75.55L116.97 69.58L111.46 67.85L107.24 72.08L108.53 78.04L114.04 79.77ZM121.19 65.35L119.90 59.38L114.39 57.65L110.17 61.88L111.46 67.85L116.97 69.58ZM127.06 44.95L125.77 38.98L120.25 37.25L116.03 41.48L117.32 47.45L122.83 49.18ZM130.00 34.75L128.71 28.77L123.19 27.04L118.96 31.27L120.25 37.25L125.77 38.98ZM133.86 52.66L132.57 46.69L127.06 44.95L122.83 49.18L124.12 55.15L129.64 56.89ZM124.12 55.15L122.83 49.18L117.32 47.45L113.10 51.68L114.39 57.65L119.90 59.38ZM136.80 42.46L135.51 36.48L130.00 34.75L125.77 38.98L127.06 44.95L132.57 46.69ZM127.84 167.40L126.56 161.45L121.06 159.71L116.85 163.92L118.14 169.87L123.63 171.61ZM118.14 169.87L116.85 163.92L111.36 162.19L107.15 166.40L108.44 172.35L113.93 174.09ZM130.77 157.24L129.49 151.28L123.99 149.54L119.78 153.76L121.06 159.71L126.56 161.45ZM121.06 159.71L119.78 153.76L114.28 152.02L110.07 156.23L111.36 162.19L116.85 163.92ZM134.62 175.09L133.34 169.14L127.84 167.40L123.63 171.61L124.92 177.56L130.41 179.30ZM124.92 177.56L123.63 171.61L118.14 169.87L113.93 174.09L115.22 180.03L120.71 181.77ZM137.55 164.93L136.27 158.98L130.77 157.24L126.56 161.45L127.84 167.40L133.34 169.14ZM101.66 164.66L100.37 158.71L94.88 156.98L90.68 161.20L91.97 167.14L97.46 168.88ZM91.97 167.14L90.68 161.20L85.18 159.46L80.98 163.68L82.27 169.63L87.76 171.36ZM104.58 154.50L103.29 148.55L97.80 146.81L93.59 151.03L94.88 156.98L100.37 158.71ZM94.88 156.98L93.59 151.03L88.10 149.30L83.89 153.52L85.18 159.46L90.68 161.20ZM108.44 172.35L107.15 166.40L101.66 164.66L97.46 168.88L98.75 174.83L104.24 176.56ZM98.75 174.83L97.46 168.88L91.97 167.14L87.76 171.36L89.05 177.30L94.54 179.04ZM111.36 162.19L110.07 156.23L104.58 154.50L100.37 158.71L101.66 164.66L107.15 166.40ZM143.42 144.59L142.13 138.64L136.63 136.89L132.42 141.11L133.70 147.07L139.20 148.81ZM133.70 147.07L132.42 141.11L126.92 139.37L122.70 143.59L123.99 149.54L129.49 151.28ZM146.35 134.42L145.07 128.46L139.56 126.72L135.35 130.94L136.63 136.89L142.13 138.64ZM136.63 136.89L135.35 130.94L129.85 129.20L125.63 133.41L126.92 139.37L132.42 141.11ZM150.20 152.29L148.92 146.34L143.42 144.59L139.20 148.81L140.48 154.76L145.98 156.51ZM140.48 154.76L139.20 148.81L133.70 147.07L129.49 151.28L130.77 157.24L136.27 158.98ZM153.13 142.12L151.85 136.16L146.35 134.42L142.13 138.64L143.42 144.59L148.92 146.34ZM117.21 141.85L115.92 135.89L110.42 134.16L106.21 138.38L107.50 144.33L112.99 146.07ZM107.50 144.33L106.21 138.38L100.71 136.64L96.51 140.86L97.80 146.81L103.29 148.55ZM120.13 131.68L118.84 125.72L113.34 123.98L109.13 128.20L110.42 134.16L115.92 135.89ZM110.42 134.16L109.13 128.20L103.63 126.47L99.42 130.69L100.71 136.64L106.21 138.38ZM123.99 149.54L122.70 143.59L117.21 141.85L112.99 146.07L114.28 152.02L119.78 153.76ZM114.28 152.02L112.99 146.07L107.50 144.33L103.29 148.55L104.58 154.50L110.07 156.23ZM126.92 139.37L125.63 133.41L120.13 131.68L115.92 135.89L117.21 141.85L122.70 143.59ZM138.47 192.94L137.19 186.99L131.70 185.25L127.49 189.46L128.77 195.41L134.26 197.15ZM128.77 195.41L127.49 189.46L122.00 187.72L117.79 191.93L119.07 197.88L124.56 199.62ZM141.40 182.79L140.12 176.83L134.62 175.09L130.41 179.30L131.70 185.25L137.19 186.99ZM131.70 185.25L130.41 179.30L124.92 177.56L120.71 181.77L122.00 187.72L127.49 189.46ZM145.24 200.64L143.96 194.69L138.47 192.94L134.26 197.15L135.54 203.10L141.03 204.84ZM135.54 203.10L134.26 197.15L128.77 195.41L124.56 199.62L125.85 205.56L131.34 207.30ZM148.17 190.48L146.89 184.53L141.40 182.79L137.19 186.99L138.47 192.94L143.96 194.69ZM112.30 190.19L111.01 184.24L105.52 182.51L101.32 186.72L102.61 192.66L108.10 194.40ZM102.61 192.66L101.32 186.72L95.83 184.98L91.63 189.19L92.92 195.14L98.41 196.87ZM115.22 180.03L113.93 174.09L108.44 172.35L104.24 176.56L105.52 182.51L111.01 184.24ZM105.52 182.51L104.24 176.56L98.75 174.83L94.54 179.04L95.83 184.98L101.32 186.72ZM119.07 197.88L117.79 191.93L112.30 190.19L108.10 194.40L109.38 200.35L114.87 202.08ZM109.38 200.35L108.10 194.40L102.61 192.66L98.41 196.87L99.69 202.82L105.18 204.55ZM122.00 187.72L120.71 181.77L115.22 180.03L111.01 184.24L112.30 190.19L117.79 191.93ZM154.04 170.16L152.76 164.20L147.26 162.46L143.05 166.67L144.33 172.63L149.83 174.37ZM144.33 172.63L143.05 166.67L137.55 164.93L133.34 169.14L134.62 175.09L140.12 176.83ZM156.98 159.99L155.70 154.04L150.20 152.29L145.98 156.51L147.26 162.46L152.76 164.20ZM147.26 162.46L145.98 156.51L140.48 154.76L136.27 158.98L137.55 164.93L143.05 166.67ZM160.82 177.86L159.54 171.91L154.04 170.16L149.83 174.37L151.11 180.32L156.60 182.07ZM151.11 180.32L149.83 174.37L144.33 172.63L140.12 176.83L141.40 182.79L146.89 184.53ZM163.76 167.70L162.48 161.74L156.98 159.99L152.76 164.20L154.04 170.16L159.54 171.91ZM77.43 217.91L76.14 211.97L70.65 210.24L66.46 214.45L67.75 220.39L73.24 222.12ZM80.33 207.77L79.04 201.82L73.56 200.09L69.36 204.30L70.65 210.24L76.14 211.97ZM86.14 187.46L84.85 181.52L79.37 179.79L75.17 184.00L76.46 189.94L81.95 191.67ZM76.46 189.94L75.17 184.00L69.68 182.27L65.49 186.48L66.78 192.42L72.27 194.15ZM89.05 177.30L87.76 171.36L82.27 169.63L78.08 173.84L79.37 179.79L84.85 181.52ZM79.37 179.79L78.08 173.84L72.59 172.11L68.39 176.33L69.68 182.27L75.17 184.00ZM92.92 195.14L91.63 189.19L86.14 187.46L81.95 191.67L83.24 197.62L88.72 199.35ZM83.24 197.62L81.95 191.67L76.46 189.94L72.27 194.15L73.56 200.09L79.04 201.82ZM95.83 184.98L94.54 179.04L89.05 177.30L84.85 181.52L86.14 187.46L91.63 189.19ZM148.37 96.17L147.09 90.20L141.58 88.46L137.36 92.69L138.64 98.65L144.15 100.39ZM138.64 98.65L137.36 92.69L131.85 90.95L127.63 95.17L128.92 101.14L134.42 102.87ZM151.32 85.98L150.03 80.01L144.52 78.27L140.30 82.50L141.58 88.46L147.09 90.20ZM141.58 88.46L140.30 82.50L134.79 80.76L130.56 84.98L131.85 90.95L137.36 92.69ZM155.17 103.88L153.88 97.91L148.37 96.17L144.15 100.39L145.44 106.36L150.94 108.10ZM145.44 106.36L144.15 100.39L138.64 98.65L134.42 102.87L135.71 108.84L141.21 110.58ZM158.11 93.69L156.83 87.72L151.32 85.98L147.09 90.20L148.37 96.17L153.88 97.91ZM122.12 93.44L120.84 87.47L115.33 85.74L111.11 89.96L112.40 95.93L117.91 97.66ZM125.06 83.25L123.77 77.28L118.26 75.55L114.04 79.77L115.33 85.74L120.84 87.47ZM115.33 85.74L114.04 79.77L108.53 78.04L104.32 82.27L105.61 88.23L111.11 89.96ZM128.92 101.14L127.63 95.17L122.12 93.44L117.91 97.66L119.20 103.62L124.70 105.36ZM119.20 103.62L117.91 97.66L112.40 95.93L108.19 100.15L109.48 106.11L114.98 107.85ZM131.85 90.95L130.56 84.98L125.06 83.25L120.84 87.47L122.12 93.44L127.63 95.17ZM164.00 73.30L162.72 67.33L157.20 65.59L152.97 69.82L154.26 75.79L159.77 77.53ZM154.26 75.79L152.97 69.82L147.46 68.08L143.23 72.30L144.52 78.27L150.03 80.01ZM166.95 63.11L165.67 57.13L160.15 55.39L155.92 59.62L157.20 65.59L162.72 67.33ZM157.20 65.59L155.92 59.62L150.40 57.88L146.18 62.11L147.46 68.08L152.97 69.82ZM170.80 81.02L169.51 75.05L164.00 73.30L159.77 77.53L161.05 83.50L166.57 85.24ZM161.05 83.50L159.77 77.53L154.26 75.79L150.03 80.01L151.32 85.98L156.83 87.72ZM173.75 70.82L172.47 64.85L166.95 63.11L162.72 67.33L164.00 73.30L169.51 75.05ZM137.72 70.56L136.44 64.60L130.92 62.86L126.70 67.09L127.99 73.05L133.50 74.79ZM127.99 73.05L126.70 67.09L121.19 65.35L116.97 69.58L118.26 75.55L123.77 77.28ZM140.66 60.37L139.38 54.40L133.86 52.66L129.64 56.89L130.92 62.86L136.44 64.60ZM130.92 62.86L129.64 56.89L124.12 55.15L119.90 59.38L121.19 65.35L126.70 67.09ZM144.52 78.27L143.23 72.30L137.72 70.56L133.50 74.79L134.79 80.76L140.30 82.50ZM134.79 80.76L133.50 74.79L127.99 73.05L123.77 77.28L125.06 83.25L130.56 84.98ZM147.46 68.08L146.18 62.11L140.66 60.37L136.44 64.60L137.72 70.56L143.23 72.30ZM159.01 121.77L157.73 115.80L152.23 114.06L148.00 118.28L149.29 124.24L154.79 125.99ZM149.29 124.24L148.00 118.28L142.50 116.54L138.28 120.76L139.56 126.72L145.07 128.46ZM161.96 111.59L160.67 105.62L155.17 103.88L150.94 108.10L152.23 114.06L157.73 115.80ZM152.23 114.06L150.94 108.10L145.44 106.36L141.21 110.58L142.50 116.54L148.00 118.28ZM165.80 129.48L164.52 123.51L159.01 121.77L154.79 125.99L156.07 131.95L161.58 133.69ZM156.07 131.95L154.79 125.99L149.29 124.24L145.07 128.46L146.35 134.42L151.85 136.16ZM168.74 119.30L167.46 113.33L161.96 111.59L157.73 115.80L159.01 121.77L164.52 123.51ZM132.78 119.02L131.49 113.06L125.99 111.32L121.77 115.54L123.06 121.50L128.56 123.24ZM123.06 121.50L121.77 115.54L116.27 113.80L112.05 118.03L113.34 123.98L118.84 125.72ZM135.71 108.84L134.42 102.87L128.92 101.14L124.70 105.36L125.99 111.32L131.49 113.06ZM125.99 111.32L124.70 105.36L119.20 103.62L114.98 107.85L116.27 113.80L121.77 115.54ZM139.56 126.72L138.28 120.76L132.78 119.02L128.56 123.24L129.85 129.20L135.35 130.94ZM129.85 129.20L128.56 123.24L123.06 121.50L118.84 125.72L120.13 131.68L125.63 133.41ZM142.50 116.54L141.21 110.58L135.71 108.84L131.49 113.06L132.78 119.02L138.28 120.76ZM174.64 98.93L173.36 92.96L167.85 91.21L163.62 95.43L164.90 101.40L170.41 103.15ZM164.90 101.40L163.62 95.43L158.11 93.69L153.88 97.91L155.17 103.88L160.67 105.62ZM177.59 88.74L176.31 82.77L170.80 81.02L166.57 85.24L167.85 91.21L173.36 92.96ZM167.85 91.21L166.57 85.24L161.05 83.50L156.83 87.72L158.11 93.69L163.62 95.43ZM181.43 106.64L180.15 100.67L174.64 98.93L170.41 103.15L171.69 109.11L177.20 110.86ZM171.69 109.11L170.41 103.15L164.90 101.40L160.67 105.62L161.96 111.59L167.46 113.33ZM184.38 96.45L183.10 90.48L177.59 88.74L173.36 92.96L174.64 98.93L180.15 100.67ZM138.82 4.11L137.53 -1.87L132.01 -3.60L127.78 0.64L129.07 6.61L134.59 8.35ZM129.07 6.61L127.78 0.64L122.25 -1.10L118.03 3.14L119.32 9.12L124.84 10.85ZM237.42 7.39L236.14 1.40L230.61 -0.35L226.36 3.88L227.63 9.87L233.16 11.62ZM227.63 9.87L226.36 3.88L220.82 2.13L216.57 6.36L217.85 12.35L223.38 14.10ZM240.40 -2.83L239.12 -8.82L233.59 -10.58L229.33 -6.34L230.61 -0.35L236.14 1.40ZM230.61 -0.35L229.33 -6.34L223.80 -8.10L219.55 -3.86L220.82 2.13L226.36 3.88ZM244.22 15.14L242.95 9.15L237.42 7.39L233.16 11.62L234.44 17.61L239.97 19.37ZM234.44 17.61L233.16 11.62L227.63 9.87L223.38 14.10L224.66 20.08L230.18 21.84ZM247.21 4.92L245.93 -1.08L240.40 -2.83L236.14 1.40L237.42 7.39L242.95 9.15ZM211.04 4.61L209.76 -1.38L204.23 -3.13L199.99 1.11L201.27 7.09L206.79 8.84ZM201.27 7.09L199.99 1.11L194.46 -0.64L190.21 3.59L191.49 9.58L197.02 11.33ZM204.23 -3.13L202.95 -9.12L197.42 -10.87L193.18 -6.63L194.46 -0.64L199.99 1.11ZM217.85 12.35L216.57 6.36L211.04 4.61L206.79 8.84L208.07 14.83L213.60 16.58ZM208.07 14.83L206.79 8.84L201.27 7.09L197.02 11.33L198.30 17.31L203.83 19.06ZM220.82 2.13L219.55 -3.86L214.02 -5.62L209.76 -1.38L211.04 4.61L216.57 6.36ZM248.04 33.10L246.77 27.11L241.24 25.35L236.99 29.58L238.26 35.57L243.79 37.32ZM238.26 35.57L236.99 29.58L231.46 27.83L227.21 32.05L228.48 38.04L234.01 39.79ZM251.03 22.88L249.75 16.89L244.22 15.14L239.97 19.37L241.24 25.35L246.77 27.11ZM241.24 25.35L239.97 19.37L234.44 17.61L230.18 21.84L231.46 27.83L236.99 29.58ZM245.06 43.31L243.79 37.32L238.26 35.57L234.01 39.79L235.28 45.78L240.81 47.53ZM257.83 30.63L256.56 24.64L251.03 22.88L246.77 27.11L248.04 33.10L253.57 34.86ZM221.68 30.30L220.41 24.32L214.88 22.56L210.63 26.79L211.91 32.78L217.43 34.53ZM211.91 32.78L210.63 26.79L205.10 25.04L200.86 29.27L202.14 35.25L207.66 37.00ZM224.66 20.08L223.38 14.10L217.85 12.35L213.60 16.58L214.88 22.56L220.41 24.32ZM214.88 22.56L213.60 16.58L208.07 14.83L203.83 19.06L205.10 25.04L210.63 26.79ZM228.48 38.04L227.21 32.05L221.68 30.30L217.43 34.53L218.71 40.51L224.23 42.26ZM218.71 40.51L217.43 34.53L211.91 32.78L207.66 37.00L208.94 42.98L214.46 44.74ZM231.46 27.83L230.18 21.84L224.66 20.08L220.41 24.32L221.68 30.30L227.21 32.05ZM254.01 12.66L252.74 6.67L247.21 4.92L242.95 9.15L244.22 15.14L249.75 16.89ZM257.00 2.44L255.73 -3.55L250.19 -5.31L245.93 -1.08L247.21 4.92L252.74 6.67ZM169.00 24.77L167.72 18.79L162.20 17.05L157.96 21.28L159.24 27.26L164.77 29.00ZM159.24 27.26L157.96 21.28L152.44 19.54L148.20 23.78L149.49 29.75L155.01 31.49ZM171.96 14.56L170.67 8.58L165.15 6.83L160.91 11.07L162.20 17.05L167.72 18.79ZM162.20 17.05L160.91 11.07L155.39 9.33L151.15 13.57L152.44 19.54L157.96 21.28ZM175.81 32.49L174.52 26.51L169.00 24.77L164.77 29.00L166.05 34.98L171.57 36.72ZM166.05 34.98L164.77 29.00L159.24 27.26L155.01 31.49L156.30 37.47L161.81 39.21ZM178.76 22.28L177.48 16.30L171.96 14.56L167.72 18.79L169.00 24.77L174.52 26.51ZM142.68 22.04L141.40 16.06L135.88 14.33L131.65 18.56L132.94 24.54L138.45 26.28ZM132.94 24.54L131.65 18.56L126.13 16.83L121.90 21.07L123.19 27.04L128.71 28.77ZM145.63 11.83L144.34 5.85L138.82 4.11L134.59 8.35L135.88 14.33L141.40 16.06ZM135.88 14.33L134.59 8.35L129.07 6.61L124.84 10.85L126.13 16.83L131.65 18.56ZM149.49 29.75L148.20 23.78L142.68 22.04L138.45 26.28L139.74 32.25L145.26 33.99ZM139.74 32.25L138.45 26.28L132.94 24.54L128.71 28.77L130.00 34.75L135.51 36.48ZM152.44 19.54L151.15 13.57L145.63 11.83L141.40 16.06L142.68 22.04L148.20 23.78ZM184.68 1.85L183.40 -4.14L177.87 -5.88L173.63 -1.64L174.91 4.34L180.44 6.08ZM174.91 4.34L173.63 -1.64L168.10 -3.39L163.86 0.85L165.15 6.83L170.67 8.58ZM191.49 9.58L190.21 3.59L184.68 1.85L180.44 6.08L181.72 12.07L187.25 13.81ZM181.72 12.07L180.44 6.08L174.91 4.34L170.67 8.58L171.96 14.56L177.48 16.30ZM194.46 -0.64L193.18 -6.63L187.65 -8.38L183.40 -4.14L184.68 1.85L190.21 3.59ZM158.34 -0.89L157.05 -6.87L151.53 -8.61L147.29 -4.37L148.58 1.61L154.10 3.35ZM148.58 1.61L147.29 -4.37L141.76 -6.11L137.53 -1.87L138.82 4.11L144.34 5.85ZM165.15 6.83L163.86 0.85L158.34 -0.89L154.10 3.35L155.39 9.33L160.91 11.07ZM155.39 9.33L154.10 3.35L148.58 1.61L144.34 5.85L145.63 11.83L151.15 13.57ZM168.10 -3.39L166.82 -9.37L161.29 -11.11L157.05 -6.87L158.34 -0.89L163.86 0.85ZM179.65 50.42L178.37 44.45L172.85 42.70L168.62 46.93L169.90 52.91L175.42 54.65ZM169.90 52.91L168.62 46.93L163.10 45.19L158.87 49.42L160.15 55.39L165.67 57.13ZM182.61 40.22L181.33 34.24L175.81 32.49L171.57 36.72L172.85 42.70L178.37 44.45ZM172.85 42.70L171.57 36.72L166.05 34.98L161.81 39.21L163.10 45.19L168.62 46.93ZM186.45 58.14L185.17 52.17L179.65 50.42L175.42 54.65L176.70 60.62L182.22 62.37ZM176.70 60.62L175.42 54.65L169.90 52.91L165.67 57.13L166.95 63.11L172.47 64.85ZM189.41 47.94L188.13 41.96L182.61 40.22L178.37 44.45L179.65 50.42L185.17 52.17ZM153.35 47.68L152.06 41.70L146.55 39.96L142.32 44.19L143.60 50.17L149.12 51.91ZM143.60 50.17L142.32 44.19L136.80 42.46L132.57 46.69L133.86 52.66L139.38 54.40ZM156.30 37.47L155.01 31.49L149.49 29.75L145.26 33.99L146.55 39.96L152.06 41.70ZM146.55 39.96L145.26 33.99L139.74 32.25L135.51 36.48L136.80 42.46L142.32 44.19ZM160.15 55.39L158.87 49.42L153.35 47.68L149.12 51.91L150.40 57.88L155.92 59.62ZM150.40 57.88L149.12 51.91L143.60 50.17L139.38 54.40L140.66 60.37L146.18 62.11ZM163.10 45.19L161.81 39.21L156.30 37.47L152.06 41.70L153.35 47.68L158.87 49.42ZM195.34 27.52L194.05 21.54L188.53 19.79L184.29 24.03L185.57 30.01L191.09 31.75ZM185.57 30.01L184.29 24.03L178.76 22.28L174.52 26.51L175.81 32.49L181.33 34.24ZM198.30 17.31L197.02 11.33L191.49 9.58L187.25 13.81L188.53 19.79L194.05 21.54ZM188.53 19.79L187.25 13.81L181.72 12.07L177.48 16.30L178.76 22.28L184.29 24.03ZM202.14 35.25L200.86 29.27L195.34 27.52L191.09 31.75L192.37 37.73L197.89 39.48ZM192.37 37.73L191.09 31.75L185.57 30.01L181.33 34.24L182.61 40.22L188.13 41.96ZM205.10 25.04L203.83 19.06L198.30 17.31L194.05 21.54L195.34 27.52L200.86 29.27Z"/><path data-band="3" fill="#dc2626" fill-opacity="0.35" d="M0.78 77.58L-0.53 71.63L-6.02 69.92L-10.21 74.16L-8.91 80.11L-3.41 81.82ZM59.92 -3.92L58.62 -9.89L53.10 -11.61L48.89 -7.36L50.19 -1.39L55.71 0.33ZM50.19 -1.39L48.89 -7.36L43.37 -9.08L39.16 -4.83L40.47 1.13L45.98 2.85ZM23.93 -4.02L22.62 -9.98L17.11 -11.70L12.91 -7.45L14.21 -1.48L19.72 0.23ZM63.82 13.98L62.52 8.02L57.01 6.29L52.79 10.54L54.09 16.50L59.61 18.23ZM54.09 16.50L52.79 10.54L47.28 8.82L43.07 13.06L44.37 19.03L49.88 20.75ZM66.74 3.77L65.44 -2.20L59.92 -3.92L55.71 0.33L57.01 6.29L62.52 8.02ZM57.01 6.29L55.71 0.33L50.19 -1.39L45.98 2.85L47.28 8.82L52.79 10.54ZM70.63 21.68L69.33 15.71L63.82 13.98L59.61 18.23L60.91 24.19L66.42 25.92ZM60.91 24.19L59.61 18.23L54.09 16.50L49.88 20.75L51.18 26.71L56.69 28.43ZM73.55 11.47L72.25 5.50L66.74 3.77L62.52 8.02L63.82 13.98L69.33 15.71ZM37.56 11.34L36.26 5.38L30.75 3.66L26.54 7.91L27.84 13.87L33.35 15.59ZM27.84 13.87L26.54 7.91L21.03 6.19L16.83 10.44L18.13 16.40L23.64 18.12ZM40.47 1.13L39.16 -4.83L33.65 -6.55L29.44 -2.30L30.75 3.66L36.26 5.38ZM30.75 3.66L29.44 -2.30L23.93 -4.02L19.72 0.23L21.03 6.19L26.54 7.91ZM44.37 19.03L43.07 13.06L37.56 11.34L33.35 15.59L34.66 21.55L40.16 23.27ZM34.66 21.55L33.35 15.59L27.84 13.87L23.64 18.12L24.94 24.08L30.45 25.80ZM47.28 8.82L45.98 2.85L40.47 1.13L36.26 5.38L37.56 11.34L43.07 13.06ZM86.21 -1.27L84.91 -7.24L79.39 -8.96L75.17 -4.72L76.47 1.25L81.98 2.98ZM76.47 1.25L75.17 -4.72L69.65 -6.44L65.44 -2.20L66.74 3.77L72.25 5.50ZM2.64 39.34L1.33 33.38L-4.17 31.67L-8.37 35.92L-7.06 41.87L-1.56 43.58ZM5.53 29.14L4.22 23.18L-1.28 21.47L-5.48 25.72L-4.17 31.67L1.33 33.38ZM11.32 8.73L10.01 2.77L4.50 1.05L0.30 5.30L1.61 11.26L7.11 12.98ZM1.61 11.26L0.30 5.30L-5.21 3.59L-9.41 7.84L-8.10 13.80L-2.59 15.51ZM14.21 -1.48L12.91 -7.45L7.40 -9.16L3.19 -4.91L4.50 1.05L10.01 2.77ZM4.50 1.05L3.19 -4.91L-2.32 -6.62L-6.52 -2.37L-5.21 3.59L0.30 5.30ZM18.13 16.40L16.83 10.44L11.32 8.73L7.11 12.98L8.42 18.93L13.93 20.65ZM8.42 18.93L7.11 12.98L1.61 11.26L-2.59 15.51L-1.28 21.47L4.22 23.18ZM21.03 6.19L19.72 0.23L14.21 -1.48L10.01 2.77L11.32 8.73L16.83 10.44ZM2.01 199.71L0.71 193.77L-4.77 192.06L-8.94 196.27L-7.64 202.20L-2.17 203.92ZM7.77 179.41L6.47 173.47L0.98 171.75L-3.20 175.97L-1.89 181.91L3.59 183.62ZM10.65 169.25L9.35 163.31L3.86 161.60L-0.32 165.82L0.98 171.75L6.47 173.47ZM0.98 171.75L-0.32 165.82L-5.80 164.10L-9.98 168.32L-8.68 174.26L-3.20 175.97ZM14.55 187.06L13.25 181.12L7.77 179.41L3.59 183.62L4.89 189.56L10.37 191.28ZM4.89 189.56L3.59 183.62L-1.89 181.91L-6.07 186.13L-4.77 192.06L0.71 193.77ZM17.43 176.91L16.13 170.97L10.65 169.25L6.47 173.47L7.77 179.41L13.25 181.12ZM3.03 227.64L1.73 221.71L-3.74 219.99L-7.91 224.20L-6.61 230.13L-1.14 231.85ZM5.91 217.50L4.61 211.57L-0.87 209.85L-5.04 214.06L-3.74 219.99L1.73 221.71ZM9.81 235.28L8.51 229.36L3.03 227.64L-1.14 231.85L0.16 237.77L5.63 239.49ZM0.16 237.77L-1.14 231.85L-6.61 230.13L-10.78 234.34L-9.48 240.27L-4.01 241.98ZM12.68 225.15L11.38 219.22L5.91 217.50L1.73 221.71L3.03 227.64L8.51 229.36ZM18.44 204.86L17.14 198.93L11.67 197.21L7.49 201.42L8.79 207.36L14.26 209.07ZM8.79 207.36L7.49 201.42L2.01 199.71L-2.17 203.92L-0.87 209.85L4.61 211.57ZM21.33 194.71L20.03 188.78L14.55 187.06L10.37 191.28L11.67 197.21L17.14 198.93ZM11.67 197.21L10.37 191.28L4.89 189.56L0.71 193.77L2.01 199.71L7.49 201.42ZM25.22 212.52L23.92 206.58L18.44 204.86L14.26 209.07L15.56 215.01L21.04 216.73ZM15.56 215.01L14.26 209.07L8.79 207.36L4.61 211.57L5.91 217.50L11.38 219.22ZM28.10 202.37L26.81 196.44L21.33 194.71L17.14 198.93L18.44 204.86L23.92 206.58ZM39.76 255.75L38.46 249.82L32.99 248.10L28.81 252.30L30.11 258.23L35.58 259.95ZM30.11 258.23L28.81 252.30L23.34 250.58L19.17 254.78L20.46 260.71L25.93 262.43ZM42.64 245.62L41.35 239.69L35.88 237.96L31.70 242.17L32.99 248.10L38.46 249.82ZM32.99 248.10L31.70 242.17L26.22 240.45L22.05 244.65L23.34 250.58L28.81 252.30ZM46.52 263.41L45.23 257.48L39.76 255.75L35.58 259.95L36.87 265.88L42.34 267.61ZM49.41 253.28L48.12 247.35L42.64 245.62L38.46 249.82L39.76 255.75L45.23 257.48ZM13.70 253.06L12.40 247.14L6.93 245.42L2.76 249.62L4.06 255.55L9.53 257.27ZM4.06 255.55L2.76 249.62L-2.71 247.91L-6.88 252.11L-5.58 258.04L-0.11 259.75ZM16.57 242.93L15.28 237.00L9.81 235.28L5.63 239.49L6.93 245.42L12.40 247.14ZM6.93 245.42L5.63 239.49L0.16 237.77L-4.01 241.98L-2.71 247.91L2.76 249.62ZM20.46 260.71L19.17 254.78L13.70 253.06L9.53 257.27L10.82 263.19L16.29 264.91ZM10.82 263.19L9.53 257.27L4.06 255.55L-0.11 259.75L1.19 265.68L6.65 267.39ZM23.34 250.58L22.05 244.65L16.57 242.93L12.40 247.14L13.70 253.06L19.17 254.78ZM55.19 233.01L53.90 227.07L48.42 225.35L44.24 229.55L45.53 235.48L51.01 237.21ZM45.53 235.48L44.24 229.55L38.76 227.83L34.58 232.03L35.88 237.96L41.35 239.69ZM58.09 222.87L56.79 216.93L51.31 215.20L47.13 219.41L48.42 225.35L53.90 227.07ZM48.42 225.35L47.13 219.41L41.65 217.69L37.47 221.89L38.76 227.83L44.24 229.55ZM61.96 240.67L60.67 234.73L55.19 233.01L51.01 237.21L52.30 243.14L57.78 244.87ZM52.30 243.14L51.01 237.21L45.53 235.48L41.35 239.69L42.64 245.62L48.12 247.35ZM29.11 230.31L27.81 224.38L22.33 222.66L18.16 226.87L19.45 232.80L24.93 234.52ZM19.45 232.80L18.16 226.87L12.68 225.15L8.51 229.36L9.81 235.28L15.28 237.00ZM31.99 220.17L30.69 214.24L25.22 212.52L21.04 216.73L22.33 222.66L27.81 224.38ZM22.33 222.66L21.04 216.73L15.56 215.01L11.38 219.22L12.68 225.15L18.16 226.87ZM35.88 237.96L34.58 232.03L29.11 230.31L24.93 234.52L26.22 240.45L31.70 242.17ZM26.22 240.45L24.93 234.52L19.45 232.80L15.28 237.00L16.57 242.93L22.05 244.65ZM38.76 227.83L37.47 221.89L31.99 220.17L27.81 224.38L29.11 230.31L34.58 232.03ZM56.17 260.93L54.88 255.00L49.41 253.28L45.23 257.48L46.52 263.41L51.99 265.13ZM59.07 250.80L57.78 244.87L52.30 243.14L48.12 247.35L49.41 253.28L54.88 255.00ZM80.35 113.59L79.05 107.63L73.55 105.90L69.35 110.13L70.64 116.08L76.14 117.81ZM70.64 116.08L69.35 110.13L63.85 108.40L59.65 112.63L60.94 118.58L66.44 120.31ZM83.26 103.41L81.97 97.45L76.46 95.72L72.26 99.95L73.55 105.90L79.05 107.63ZM73.55 105.90L72.26 99.95L66.76 98.22L62.55 102.45L63.85 108.40L69.35 110.13ZM87.14 121.27L85.84 115.32L80.35 113.59L76.14 117.81L77.43 123.76L82.93 125.49ZM77.43 123.76L76.14 117.81L70.64 116.08L66.44 120.31L67.73 126.26L73.23 127.99ZM90.05 111.09L88.76 105.14L83.26 103.41L79.05 107.63L80.35 113.59L85.84 115.32ZM54.15 110.90L52.85 104.95L47.36 103.23L43.16 107.46L44.46 113.41L49.95 115.13ZM44.46 113.41L43.16 107.46L37.66 105.74L33.47 109.97L34.77 115.91L40.26 117.64ZM57.06 100.72L55.76 94.77L50.26 93.05L46.06 97.28L47.36 103.23L52.85 104.95ZM47.36 103.23L46.06 97.28L40.56 95.56L36.36 99.79L37.66 105.74L43.16 107.46ZM60.94 118.58L59.65 112.63L54.15 110.90L49.95 115.13L51.25 121.08L56.74 122.81ZM51.25 121.08L49.95 115.13L44.46 113.41L40.26 117.64L41.56 123.58L47.05 125.31ZM63.85 108.40L62.55 102.45L57.06 100.72L52.85 104.95L54.15 110.90L59.65 112.63ZM95.89 90.73L94.60 84.77L89.09 83.03L84.88 87.26L86.17 93.22L91.68 94.95ZM86.17 93.22L84.88 87.26L79.38 85.53L75.17 89.76L76.46 95.72L81.97 97.45ZM98.81 80.54L97.52 74.57L92.01 72.84L87.80 77.07L89.09 83.03L94.60 84.77ZM89.09 83.03L87.80 77.07L82.29 75.35L78.08 79.58L79.38 85.53L84.88 87.26ZM102.68 98.42L101.39 92.46L95.89 90.73L91.68 94.95L92.97 100.91L98.47 102.64ZM92.97 100.91L91.68 94.95L86.17 93.22L81.97 97.45L83.26 103.41L88.76 105.14ZM105.61 88.23L104.32 82.27L98.81 80.54L94.60 84.77L95.89 90.73L101.39 92.46ZM69.67 88.04L68.37 82.08L62.87 80.35L58.67 84.59L59.96 90.54L65.46 92.27ZM59.96 90.54L58.67 84.59L53.16 82.86L48.96 87.09L50.26 93.05L55.76 94.77ZM72.58 77.85L71.28 71.89L65.78 70.16L61.57 74.40L62.87 80.35L68.37 82.08ZM62.87 80.35L61.57 74.40L56.07 72.67L51.87 76.91L53.16 82.86L58.67 84.59ZM76.46 95.72L75.17 89.76L69.67 88.04L65.46 92.27L66.76 98.22L72.26 99.95ZM66.76 98.22L65.46 92.27L59.96 90.54L55.76 94.77L57.06 100.72L62.55 102.45ZM79.38 85.53L78.08 79.58L72.58 77.85L68.37 82.08L69.67 88.04L75.17 89.76ZM91.01 139.13L89.72 133.18L84.22 131.45L80.02 135.67L81.31 141.62L86.81 143.35ZM81.31 141.62L80.02 135.67L74.52 133.94L70.32 138.16L71.62 144.11L77.11 145.84ZM93.93 128.96L92.63 123.00L87.14 121.27L82.93 125.49L84.22 131.45L89.72 133.18ZM84.22 131.45L82.93 125.49L77.43 123.76L73.23 127.99L74.52 133.94L80.02 135.67ZM88.10 149.30L86.81 143.35L81.31 141.62L77.11 145.84L78.40 151.79L83.89 153.52ZM64.83 136.43L63.53 130.48L58.04 128.76L53.84 132.98L55.14 138.93L60.63 140.65ZM55.14 138.93L53.84 132.98L48.35 131.25L44.15 135.48L45.45 141.42L50.94 143.15ZM67.73 126.26L66.44 120.31L60.94 118.58L56.74 122.81L58.04 128.76L63.53 130.48ZM58.04 128.76L56.74 122.81L51.25 121.08L47.05 125.31L48.35 131.25L53.84 132.98ZM71.62 144.11L70.32 138.16L64.83 136.43L60.63 140.65L61.92 146.60L67.42 148.33ZM61.92 146.60L60.63 140.65L55.14 138.93L50.94 143.15L52.24 149.09L57.73 150.82ZM74.52 133.94L73.23 127.99L67.73 126.26L63.53 130.48L64.83 136.43L70.32 138.16ZM96.84 118.78L95.55 112.82L90.05 111.09L85.84 115.32L87.14 121.27L92.63 123.00ZM99.76 108.60L98.47 102.64L92.97 100.91L88.76 105.14L90.05 111.09L95.55 112.82ZM12.51 131.10L11.21 125.16L5.72 123.44L1.53 127.67L2.84 133.61L8.32 135.33ZM2.84 133.61L1.53 127.67L-3.95 125.96L-8.14 130.18L-6.83 136.12L-1.35 137.84ZM15.40 120.93L14.10 114.99L8.60 113.27L4.42 117.50L5.72 123.44L11.21 125.16ZM5.72 123.44L4.42 117.50L-1.07 115.78L-5.26 120.01L-3.95 125.96L1.53 127.67ZM19.30 138.76L18.00 132.82L12.51 131.10L8.32 135.33L9.63 141.27L15.11 142.99ZM9.63 141.27L8.32 135.33L2.84 133.61L-1.35 137.84L-0.04 143.78L5.44 145.49ZM22.19 128.59L20.89 122.65L15.40 120.93L11.21 125.16L12.51 131.10L18.00 132.82ZM27.97 108.25L26.67 102.30L21.18 100.58L16.98 104.81L18.29 110.76L23.78 112.47ZM18.29 110.76L16.98 104.81L11.49 103.09L7.30 107.32L8.60 113.27L14.10 114.99ZM30.87 98.07L29.57 92.12L24.07 90.40L19.88 94.63L21.18 100.58L26.67 102.30ZM21.18 100.58L19.88 94.63L14.38 92.91L10.19 97.14L11.49 103.09L16.98 104.81ZM34.77 115.91L33.47 109.97L27.97 108.25L23.78 112.47L25.08 118.42L30.57 120.14ZM25.08 118.42L23.78 112.47L18.29 110.76L14.10 114.99L15.40 120.93L20.89 122.65ZM37.66 105.74L36.36 99.79L30.87 98.07L26.67 102.30L27.97 108.25L33.47 109.97ZM1.81 105.61L0.50 99.66L-4.99 97.95L-9.17 102.18L-7.87 108.13L-2.38 109.84ZM4.69 95.43L3.39 89.48L-2.10 87.77L-6.29 92.00L-4.99 97.95L0.50 99.66ZM8.60 113.27L7.30 107.32L1.81 105.61L-2.38 109.84L-1.07 115.78L4.42 117.50ZM11.49 103.09L10.19 97.14L4.69 95.43L0.50 99.66L1.81 105.61L7.30 107.32ZM23.20 156.59L21.90 150.65L16.41 148.93L12.23 153.15L13.53 159.09L19.01 160.81ZM13.53 159.09L12.23 153.15L6.74 151.43L2.56 155.66L3.86 161.60L9.35 163.31ZM26.09 146.43L24.79 140.48L19.30 138.76L15.11 142.99L16.41 148.93L21.90 150.65ZM16.41 148.93L15.11 142.99L9.63 141.27L5.44 145.49L6.74 151.43L12.23 153.15ZM29.99 164.25L28.69 158.31L23.20 156.59L19.01 160.81L20.31 166.75L25.80 168.47ZM20.31 166.75L19.01 160.81L13.53 159.09L9.35 163.31L10.65 169.25L16.13 170.97ZM32.88 154.09L31.58 148.15L26.09 146.43L21.90 150.65L23.20 156.59L28.69 158.31ZM3.86 161.60L2.56 155.66L-2.92 153.94L-7.10 158.17L-5.80 164.10L-0.32 165.82ZM6.74 151.43L5.44 145.49L-0.04 143.78L-4.23 148.00L-2.92 153.94L2.56 155.66ZM38.66 133.76L37.36 127.81L31.87 126.09L27.68 130.31L28.98 136.26L34.47 137.98ZM28.98 136.26L27.68 130.31L22.19 128.59L18.00 132.82L19.30 138.76L24.79 140.48ZM41.56 123.58L40.26 117.64L34.77 115.91L30.57 120.14L31.87 126.09L37.36 127.81ZM31.87 126.09L30.57 120.14L25.08 118.42L20.89 122.65L22.19 128.59L27.68 130.31ZM45.45 141.42L44.15 135.48L38.66 133.76L34.47 137.98L35.77 143.92L41.26 145.65ZM35.77 143.92L34.47 137.98L28.98 136.26L24.79 140.48L26.09 146.43L31.58 148.15ZM48.35 131.25L47.05 125.31L41.56 123.58L37.36 127.81L38.66 133.76L44.15 135.48ZM100.78 42.25L99.49 36.28L93.98 34.55L89.76 38.79L91.05 44.76L96.56 46.49ZM91.05 44.76L89.76 38.79L84.25 37.06L80.03 41.30L81.33 47.26L86.84 48.99ZM103.71 32.05L102.42 26.08L96.90 24.35L92.68 28.58L93.98 34.55L99.49 36.28ZM93.98 34.55L92.68 28.58L87.17 26.86L82.95 31.09L84.25 37.06L89.76 38.79ZM107.59 49.95L106.30 43.98L100.78 42.25L96.56 46.49L97.86 52.45L103.37 54.18ZM97.86 52.45L96.56 46.49L91.05 44.76L86.84 48.99L88.13 54.96L93.64 56.69ZM110.52 39.75L109.22 33.78L103.71 32.05L99.49 36.28L100.78 42.25L106.30 43.98ZM74.52 39.57L73.23 33.61L67.71 31.88L63.50 36.12L64.80 42.08L70.31 43.81ZM64.80 42.08L63.50 36.12L57.99 34.40L53.78 38.64L55.08 44.60L60.59 46.32ZM77.44 29.37L76.14 23.40L70.63 21.68L66.42 25.92L67.71 31.88L73.23 33.61ZM67.71 31.88L66.42 25.92L60.91 24.19L56.69 28.43L57.99 34.40L63.50 36.12ZM81.33 47.26L80.03 41.30L74.52 39.57L70.31 43.81L71.61 49.77L77.11 51.50ZM71.61 49.77L70.31 43.81L64.80 42.08L60.59 46.32L61.89 52.28L67.40 54.01ZM84.25 37.06L82.95 31.09L77.44 29.37L73.23 33.61L74.52 39.57L80.03 41.30ZM116.38 19.33L115.09 13.36L109.57 11.63L105.35 15.87L106.64 21.84L112.16 23.57ZM106.64 21.84L105.35 15.87L99.83 14.13L95.61 18.38L96.90 24.35L102.42 26.08ZM119.32 9.12L118.03 3.14L112.51 1.41L108.28 5.65L109.57 11.63L115.09 13.36ZM109.57 11.63L108.28 5.65L102.76 3.92L98.54 8.16L99.83 14.13L105.35 15.87ZM123.19 27.04L121.90 21.07L116.38 19.33L112.16 23.57L113.45 29.54L118.96 31.27ZM113.45 29.54L112.16 23.57L106.64 21.84L102.42 26.08L103.71 32.05L109.22 33.78ZM90.09 16.65L88.80 10.68L83.28 8.95L79.06 13.19L80.36 19.16L85.87 20.89ZM80.36 19.16L79.06 13.19L73.55 11.47L69.33 15.71L70.63 21.68L76.14 23.40ZM93.02 6.43L91.72 0.46L86.21 -1.27L81.98 2.98L83.28 8.95L88.80 10.68ZM83.28 8.95L81.98 2.98L76.47 1.25L72.25 5.50L73.55 11.47L79.06 13.19ZM96.90 24.35L95.61 18.38L90.09 16.65L85.87 20.89L87.17 26.86L92.68 28.58ZM87.17 26.86L85.87 20.89L80.36 19.16L76.14 23.40L77.44 29.37L82.95 31.09ZM99.83 14.13L98.54 8.16L93.02 6.43L88.80 10.68L90.09 16.65L95.61 18.38ZM111.46 67.85L110.17 61.88L104.66 60.15L100.44 64.38L101.73 70.34L107.24 72.08ZM101.73 70.34L100.44 64.38L94.93 62.65L90.72 66.88L92.01 72.84L97.52 74.57ZM104.66 60.15L103.37 54.18L97.86 52.45L93.64 56.69L94.93 62.65L100.44 64.38ZM108.53 78.04L107.24 72.08L101.73 70.34L97.52 74.57L98.81 80.54L104.32 82.27ZM85.21 65.15L83.92 59.19L78.41 57.46L74.20 61.70L75.49 67.66L81.00 69.38ZM75.49 67.66L74.20 61.70L68.69 59.97L64.48 64.20L65.78 70.16L71.28 71.89ZM88.13 54.96L86.84 48.99L81.33 47.26L77.11 51.50L78.41 57.46L83.92 59.19ZM78.41 57.46L77.11 51.50L71.61 49.77L67.40 54.01L68.69 59.97L74.20 61.70ZM92.01 72.84L90.72 66.88L85.21 65.15L81.00 69.38L82.29 75.35L87.80 77.07ZM82.29 75.35L81.00 69.38L75.49 67.66L71.28 71.89L72.58 77.85L78.08 79.58ZM94.93 62.65L93.64 56.69L88.13 54.96L83.92 59.19L85.21 65.15L90.72 66.88ZM117.32 47.45L116.03 41.48L110.52 39.75L106.30 43.98L107.59 49.95L113.10 51.68ZM120.25 37.25L118.96 31.27L113.45 29.54L109.22 33.78L110.52 39.75L116.03 41.48ZM32.76 59.83L31.46 53.87L25.95 52.16L21.76 56.39L23.06 62.35L28.56 64.07ZM23.06 62.35L21.76 56.39L16.25 54.68L12.06 58.92L13.36 64.87L18.86 66.59ZM35.66 49.64L34.36 43.68L28.85 41.96L24.65 46.20L25.95 52.16L31.46 53.87ZM25.95 52.16L24.65 46.20L19.15 44.48L14.95 48.72L16.25 54.68L21.76 56.39ZM39.56 67.51L38.26 61.55L32.76 59.83L28.56 64.07L29.86 70.02L35.36 71.74ZM29.86 70.02L28.56 64.07L23.06 62.35L18.86 66.59L20.16 72.54L25.66 74.26ZM42.47 57.31L41.16 51.35L35.66 49.64L31.46 53.87L32.76 59.83L38.26 61.55ZM6.56 57.20L5.25 51.25L-0.25 49.54L-4.44 53.78L-3.14 59.73L2.36 61.44ZM9.45 47.01L8.14 41.05L2.64 39.34L-1.56 43.58L-0.25 49.54L5.25 51.25ZM13.36 64.87L12.06 58.92L6.56 57.20L2.36 61.44L3.67 67.40L9.17 69.11ZM3.67 67.40L2.36 61.44L-3.14 59.73L-7.33 63.97L-6.02 69.92L-0.53 71.63ZM16.25 54.68L14.95 48.72L9.45 47.01L5.25 51.25L6.56 57.20L12.06 58.92ZM48.28 36.92L46.98 30.95L41.47 29.23L37.26 33.48L38.56 39.44L44.07 41.16ZM38.56 39.44L37.26 33.48L31.75 31.76L27.55 36.00L28.85 41.96L34.36 43.68ZM51.18 26.71L49.88 20.75L44.37 19.03L40.16 23.27L41.47 29.23L46.98 30.95ZM41.47 29.23L40.16 23.27L34.66 21.55L30.45 25.80L31.75 31.76L37.26 33.48ZM55.08 44.60L53.78 38.64L48.28 36.92L44.07 41.16L45.37 47.12L50.88 48.84ZM45.37 47.12L44.07 41.16L38.56 39.44L34.36 43.68L35.66 49.64L41.16 51.35ZM57.99 34.40L56.69 28.43L51.18 26.71L46.98 30.95L48.28 36.92L53.78 38.64ZM22.04 34.28L20.74 28.32L15.23 26.61L11.03 30.85L12.34 36.81L17.84 38.53ZM12.34 36.81L11.03 30.85L5.53 29.14L1.33 33.38L2.64 39.34L8.14 41.05ZM24.94 24.08L23.64 18.12L18.13 16.40L13.93 20.65L15.23 26.61L20.74 28.32ZM15.23 26.61L13.93 20.65L8.42 18.93L4.22 23.18L5.53 29.14L11.03 30.85ZM28.85 41.96L27.55 36.00L22.04 34.28L17.84 38.53L19.15 44.48L24.65 46.20ZM19.15 44.48L17.84 38.53L12.34 36.81L8.14 41.05L9.45 47.01L14.95 48.72ZM31.75 31.76L30.45 25.80L24.94 24.08L20.74 28.32L22.04 34.28L27.55 36.00ZM43.46 85.37L42.16 79.42L36.66 77.70L32.46 81.93L33.76 87.88L39.26 89.60ZM33.76 87.88L32.46 81.93L26.96 80.21L22.77 84.45L24.07 90.40L29.57 92.12ZM46.36 75.18L45.07 69.23L39.56 67.51L35.36 71.74L36.66 77.70L42.16 79.42ZM36.66 77.70L35.36 71.74L29.86 70.02L25.66 74.26L26.96 80.21L32.46 81.93ZM50.26 93.05L48.96 87.09L43.46 85.37L39.26 89.60L40.56 95.56L46.06 97.28ZM40.56 95.56L39.26 89.60L33.76 87.88L29.57 92.12L30.87 98.07L36.36 99.79ZM53.16 82.86L51.87 76.91L46.36 75.18L42.16 79.42L43.46 85.37L48.96 87.09ZM17.27 82.73L15.97 76.78L10.47 75.06L6.28 79.30L7.58 85.25L13.08 86.96ZM7.58 85.25L6.28 79.30L0.78 77.58L-3.41 81.82L-2.10 87.77L3.39 89.48ZM20.16 72.54L18.86 66.59L13.36 64.87L9.17 69.11L10.47 75.06L15.97 76.78ZM10.47 75.06L9.17 69.11L3.67 67.40L-0.53 71.63L0.78 77.58L6.28 79.30ZM24.07 90.40L22.77 84.45L17.27 82.73L13.08 86.96L14.38 92.91L19.88 94.63ZM14.38 92.91L13.08 86.96L7.58 85.25L3.39 89.48L4.69 95.43L10.19 97.14ZM26.96 80.21L25.66 74.26L20.16 72.54L15.97 76.78L17.27 82.73L22.77 84.45ZM58.98 62.48L57.68 56.52L52.17 54.80L47.97 59.03L49.27 64.99L54.77 66.72ZM49.27 64.99L47.97 59.03L42.47 57.31L38.26 61.55L39.56 67.51L45.07 69.23ZM61.89 52.28L60.59 46.32L55.08 44.60L50.88 48.84L52.17 54.80L57.68 56.52ZM52.17 54.80L50.88 48.84L45.37 47.12L41.16 51.35L42.47 57.31L47.97 59.03ZM65.78 70.16L64.48 64.20L58.98 62.48L54.77 66.72L56.07 72.67L61.57 74.40ZM56.07 72.67L54.77 66.72L49.27 64.99L45.07 69.23L46.36 75.18L51.87 76.91ZM68.69 59.97L67.40 54.01L61.89 52.28L57.68 56.52L58.98 62.48L64.48 64.20ZM60.00 184.75L58.71 178.81L53.22 177.09L49.03 181.30L50.33 187.24L55.81 188.97ZM50.33 187.24L49.03 181.30L43.55 179.58L39.36 183.79L40.66 189.73L46.14 191.45ZM62.90 174.60L61.61 168.65L56.12 166.93L51.93 171.14L53.22 177.09L58.71 178.81ZM53.22 177.09L51.93 171.14L46.44 169.42L42.25 173.64L43.55 179.58L49.03 181.30ZM66.78 192.42L65.49 186.48L60.00 184.75L55.81 188.97L57.11 194.91L62.59 196.63ZM57.11 194.91L55.81 188.97L50.33 187.24L46.14 191.45L47.43 197.39L52.92 199.12ZM69.68 182.27L68.39 176.33L62.90 174.60L58.71 178.81L60.00 184.75L65.49 186.48ZM33.88 182.07L32.58 176.13L27.10 174.41L22.91 178.63L24.21 184.56L29.69 186.28ZM24.21 184.56L22.91 178.63L17.43 176.91L13.25 181.12L14.55 187.06L20.03 188.78ZM36.77 171.91L35.47 165.97L29.99 164.25L25.80 168.47L27.10 174.41L32.58 176.13ZM27.10 174.41L25.80 168.47L20.31 166.75L16.13 170.97L17.43 176.91L22.91 178.63ZM40.66 189.73L39.36 183.79L33.88 182.07L29.69 186.28L30.99 192.22L36.47 193.94ZM30.99 192.22L29.69 186.28L24.21 184.56L20.03 188.78L21.33 194.71L26.81 196.44ZM43.55 179.58L42.25 173.64L36.77 171.91L32.58 176.13L33.88 182.07L39.36 183.79ZM75.49 161.95L74.20 156.00L68.71 154.27L64.51 158.49L65.81 164.44L71.30 166.17ZM65.81 164.44L64.51 158.49L59.02 156.77L54.83 160.98L56.12 166.93L61.61 168.65ZM78.40 151.79L77.11 145.84L71.62 144.11L67.42 148.33L68.71 154.27L74.20 156.00ZM68.71 154.27L67.42 148.33L61.92 146.60L57.73 150.82L59.02 156.77L64.51 158.49ZM82.27 169.63L80.98 163.68L75.49 161.95L71.30 166.17L72.59 172.11L78.08 173.84ZM72.59 172.11L71.30 166.17L65.81 164.44L61.61 168.65L62.90 174.60L68.39 176.33ZM85.18 159.46L83.89 153.52L78.40 151.79L74.20 156.00L75.49 161.95L80.98 163.68ZM49.34 159.26L48.04 153.31L42.55 151.59L38.36 155.81L39.66 161.75L45.15 163.48ZM39.66 161.75L38.36 155.81L32.88 154.09L28.69 158.31L29.99 164.25L35.47 165.97ZM52.24 149.09L50.94 143.15L45.45 141.42L41.26 145.65L42.55 151.59L48.04 153.31ZM42.55 151.59L41.26 145.65L35.77 143.92L31.58 148.15L32.88 154.09L38.36 155.81ZM56.12 166.93L54.83 160.98L49.34 159.26L45.15 163.48L46.44 169.42L51.93 171.14ZM46.44 169.42L45.15 163.48L39.66 161.75L35.47 165.97L36.77 171.91L42.25 173.64ZM59.02 156.77L57.73 150.82L52.24 149.09L48.04 153.31L49.34 159.26L54.83 160.98ZM70.65 210.24L69.36 204.30L63.88 202.57L59.69 206.78L60.98 212.72L66.46 214.45ZM60.98 212.72L59.69 206.78L54.21 205.06L50.02 209.27L51.31 215.20L56.79 216.93ZM73.56 200.09L72.27 194.15L66.78 192.42L62.59 196.63L63.88 202.57L69.36 204.30ZM63.88 202.57L62.59 196.63L57.11 194.91L52.92 199.12L54.21 205.06L59.69 206.78ZM67.75 220.39L66.46 214.45L60.98 212.72L56.79 216.93L58.09 222.87L63.57 224.59ZM44.54 207.54L43.25 201.60L37.77 199.88L33.58 204.09L34.88 210.03L40.36 211.75ZM34.88 210.03L33.58 204.09L28.10 202.37L23.92 206.58L25.22 212.52L30.69 214.24ZM47.43 197.39L46.14 191.45L40.66 189.73L36.47 193.94L37.77 199.88L43.25 201.60ZM37.77 199.88L36.47 193.94L30.99 192.22L26.81 196.44L28.10 202.37L33.58 204.09ZM51.31 215.20L50.02 209.27L44.54 207.54L40.36 211.75L41.65 217.69L47.13 219.41ZM41.65 217.69L40.36 211.75L34.88 210.03L30.69 214.24L31.99 220.17L37.47 221.89ZM54.21 205.06L52.92 199.12L47.43 197.39L43.25 201.60L44.54 207.54L50.02 209.27ZM112.40 95.93L111.11 89.96L105.61 88.23L101.39 92.46L102.68 98.42L108.19 100.15ZM132.01 -3.60L130.72 -9.58L125.19 -11.32L120.96 -7.07L122.25 -1.10L127.78 0.64ZM122.25 -1.10L120.96 -7.07L115.44 -8.81L111.21 -4.56L112.51 1.41L118.03 3.14ZM95.95 -3.78L94.65 -9.76L89.13 -11.48L84.91 -7.24L86.21 -1.27L91.72 0.46ZM112.51 1.41L111.21 -4.56L105.69 -6.30L101.47 -2.05L102.76 3.92L108.28 5.65ZM102.76 3.92L101.47 -2.05L95.95 -3.78L91.72 0.46L93.02 6.43L98.54 8.16Z"/></svg>
