<svg xmlns="http://www.w3.org/2000/svg" width="256" height="256" viewBox="0 0 256 256"><path data-band="1" fill="#fde68a" fill-opacity="0.35" d="M174.98 59.29L173.71 53.35L168.23 51.60L164.03 55.78L165.30 61.72L170.78 63.47ZM180.85 39.04L179.58 33.10L174.10 31.35L169.89 35.54L171.16 41.48L176.64 43.23ZM183.78 28.92L182.51 22.98L177.03 21.22L172.82 25.41L174.10 31.35L179.58 33.10ZM187.60 46.74L186.33 40.80L180.85 39.04L176.64 43.23L177.91 49.17L183.39 50.92ZM177.91 49.17L176.64 43.23L171.16 41.48L166.96 45.66L168.23 51.60L173.71 53.35ZM190.54 36.61L189.27 30.67L183.78 28.92L179.58 33.10L180.85 39.04L186.33 40.80ZM192.60 -1.48L191.33 -7.43L185.84 -9.18L181.63 -4.99L182.90 0.95L188.39 2.71ZM201.96 90.05L200.69 84.11L195.22 82.36L191.01 86.53L192.28 92.47L197.76 94.22ZM192.28 92.47L191.01 86.53L185.54 84.78L181.34 88.95L182.61 94.89L188.08 96.64ZM204.90 79.94L203.63 74.00L198.16 72.24L193.95 76.42L195.22 82.36L200.69 84.11ZM195.22 82.36L193.95 76.42L188.48 74.66L184.27 78.84L185.54 84.78L191.01 86.53ZM208.70 97.74L207.44 91.81L201.96 90.05L197.76 94.22L199.02 100.16L204.50 101.91ZM199.02 100.16L197.76 94.22L192.28 92.47L188.08 96.64L189.35 102.57L194.82 104.33ZM211.64 87.63L210.38 81.70L204.90 79.94L200.69 84.11L201.96 90.05L207.44 91.81ZM175.87 87.20L174.60 81.27L169.12 79.52L164.92 83.70L166.20 89.63L171.67 91.38ZM166.20 89.63L164.92 83.70L159.45 81.94L155.26 86.12L156.53 92.05L162.00 93.80ZM178.80 77.09L177.53 71.16L172.05 69.40L167.85 73.58L169.12 79.52L174.60 81.27ZM169.12 79.52L167.85 73.58L162.38 71.83L158.18 76.01L159.45 81.94L164.92 83.70ZM182.61 94.89L181.34 88.95L175.87 87.20L171.67 91.38L172.94 97.31L178.41 99.06ZM172.94 97.31L171.67 91.38L166.20 89.63L162.00 93.80L163.27 99.73L168.74 101.48ZM185.54 84.78L184.27 78.84L178.80 77.09L174.60 81.27L175.87 87.20L181.34 88.95ZM217.53 67.40L216.27 61.46L210.79 59.70L206.57 63.88L207.84 69.82L213.32 71.58ZM207.84 69.82L206.57 63.88L201.10 62.13L196.89 66.31L198.16 72.24L203.63 74.00ZM220.48 57.28L219.21 51.34L213.73 49.58L209.52 53.76L210.79 59.70L216.27 61.46ZM210.79 59.70L209.52 53.76L204.04 52.01L199.83 56.19L201.10 62.13L206.57 63.88ZM224.28 75.10L223.01 69.16L217.53 67.40L213.32 71.58L214.59 77.52L220.06 79.28ZM214.59 77.52L213.32 71.58L207.84 69.82L203.63 74.00L204.90 79.94L210.38 81.70ZM227.23 64.99L225.96 59.05L220.48 57.28L216.27 61.46L217.53 67.40L223.01 69.16ZM191.41 64.55L190.14 58.61L184.66 56.86L180.46 61.04L181.73 66.98L187.21 68.73ZM181.73 66.98L180.46 61.04L174.98 59.29L170.78 63.47L172.05 69.40L177.53 71.16ZM194.35 54.43L193.08 48.49L187.60 46.74L183.39 50.92L184.66 56.86L190.14 58.61ZM184.66 56.86L183.39 50.92L177.91 49.17L173.71 53.35L174.98 59.29L180.46 61.04ZM198.16 72.24L196.89 66.31L191.41 64.55L187.21 68.73L188.48 74.66L193.95 76.42ZM188.48 74.66L187.21 68.73L181.73 66.98L177.53 71.16L178.80 77.09L184.27 78.84ZM201.10 62.13L199.83 56.19L194.35 54.43L190.14 58.61L191.41 64.55L196.89 66.31ZM212.50 115.54L211.23 109.61L205.76 107.85L201.56 112.02L202.82 117.95L208.29 119.71ZM202.82 117.95L201.56 112.02L196.09 110.26L191.89 114.43L193.15 120.36L198.62 122.12ZM215.44 105.43L214.18 99.50L208.70 97.74L204.50 101.91L205.76 107.85L211.23 109.61ZM205.76 107.85L204.50 101.91L199.02 100.16L194.82 104.33L196.09 110.26L201.56 112.02ZM219.23 123.23L217.97 117.30L212.50 115.54L208.29 119.71L209.56 125.64L215.03 127.40ZM209.56 125.64L208.29 119.71L202.82 117.95L198.62 122.12L199.89 128.05L205.36 129.81ZM222.18 113.13L220.91 107.20L215.44 105.43L211.23 109.61L212.50 115.54L217.97 117.30ZM186.42 112.68L185.15 106.75L179.68 104.99L175.48 109.17L176.75 115.09L182.22 116.85ZM176.75 115.09L175.48 109.17L170.01 107.41L165.82 111.59L167.09 117.51L172.55 119.27ZM189.35 102.57L188.08 96.64L182.61 94.89L178.41 99.06L179.68 104.99L185.15 106.75ZM179.68 104.99L178.41 99.06L172.94 97.31L168.74 101.48L170.01 107.41L175.48 109.17ZM193.15 120.36L191.89 114.43L186.42 112.68L182.22 116.85L183.49 122.77L188.95 124.53ZM183.49 122.77L182.22 116.85L176.75 115.09L172.55 119.27L173.83 125.19L179.29 126.95ZM196.09 110.26L194.82 104.33L189.35 102.57L185.15 106.75L186.42 112.68L191.89 114.43ZM228.07 92.92L226.81 86.98L221.33 85.22L217.12 89.39L218.38 95.33L223.86 97.09ZM218.38 95.33L217.12 89.39L211.64 87.63L207.44 91.81L208.70 97.74L214.18 99.50ZM231.02 82.81L229.75 76.87L224.28 75.10L220.06 79.28L221.33 85.22L226.81 86.98ZM221.33 85.22L220.06 79.28L214.59 77.52L210.38 81.70L211.64 87.63L217.12 89.39ZM234.81 100.62L233.55 94.68L228.07 92.92L223.86 97.09L225.12 103.03L230.60 104.79ZM225.12 103.03L223.86 97.09L218.38 95.33L214.18 99.50L215.44 105.43L220.91 107.20ZM237.76 90.51L236.50 84.57L231.02 82.81L226.81 86.98L228.07 92.92L233.55 94.68ZM151.60 140.12L150.32 134.20L144.86 132.45L140.67 136.62L141.95 142.54L147.41 144.29ZM154.51 130.03L153.24 124.11L147.78 122.36L143.59 126.53L144.86 132.45L150.32 134.20ZM163.27 99.73L162.00 93.80L156.53 92.05L152.34 96.23L153.61 102.16L159.08 103.91ZM167.09 117.51L165.82 111.59L160.35 109.83L156.16 114.01L157.43 119.93L162.90 121.69ZM170.01 107.41L168.74 101.48L163.27 99.73L159.08 103.91L160.35 109.83L165.82 111.59ZM222.58 19.20L221.31 13.25L215.82 11.49L211.61 15.68L212.88 21.62L218.36 23.38ZM212.88 21.62L211.61 15.68L206.12 13.92L201.90 18.11L203.17 24.05L208.66 25.81ZM225.53 9.06L224.27 3.11L218.78 1.35L214.56 5.54L215.82 11.49L221.31 13.25ZM215.82 11.49L214.56 5.54L209.07 3.78L204.85 7.97L206.12 13.92L211.61 15.68ZM229.33 26.91L228.07 20.96L222.58 19.20L218.36 23.38L219.63 29.33L225.11 31.09ZM219.63 29.33L218.36 23.38L212.88 21.62L208.66 25.81L209.93 31.75L215.41 33.51ZM232.29 16.77L231.02 10.82L225.53 9.06L221.31 13.25L222.58 19.20L228.07 20.96ZM196.42 16.35L195.15 10.41L189.66 8.65L185.45 12.84L186.72 18.79L192.21 20.54ZM186.72 18.79L185.45 12.84L179.97 11.09L175.76 15.28L177.03 21.22L182.51 22.98ZM199.36 6.22L198.09 0.27L192.60 -1.48L188.39 2.71L189.66 8.65L195.15 10.41ZM189.66 8.65L188.39 2.71L182.90 0.95L178.69 5.15L179.97 11.09L185.45 12.84ZM203.17 24.05L201.90 18.11L196.42 16.35L192.21 20.54L193.48 26.48L198.96 28.24ZM193.48 26.48L192.21 20.54L186.72 18.79L182.51 22.98L183.78 28.92L189.27 30.67ZM206.12 13.92L204.85 7.97L199.36 6.22L195.15 10.41L196.42 16.35L201.90 18.11ZM238.21 -3.50L236.94 -9.46L231.45 -11.22L227.22 -7.03L228.49 -1.08L233.98 0.68ZM228.49 -1.08L227.22 -7.03L221.73 -8.79L217.51 -4.60L218.78 1.35L224.27 3.11ZM244.96 4.21L243.70 -1.74L238.21 -3.50L233.98 0.68L235.25 6.64L240.74 8.40ZM235.25 6.64L233.98 0.68L228.49 -1.08L224.27 3.11L225.53 9.06L231.02 10.82ZM202.31 -3.92L201.04 -9.87L195.55 -11.62L191.33 -7.43L192.60 -1.48L198.09 0.27ZM218.78 1.35L217.51 -4.60L212.02 -6.36L207.80 -2.16L209.07 3.78L214.56 5.54ZM209.07 3.78L207.80 -2.16L202.31 -3.92L198.09 0.27L199.36 6.22L204.85 7.97ZM233.13 44.74L231.86 38.80L226.38 37.03L222.16 41.22L223.43 47.16L228.91 48.92ZM223.43 47.16L222.16 41.22L216.68 39.46L212.46 43.64L213.73 49.58L219.21 51.34ZM236.09 34.61L234.82 28.67L229.33 26.91L225.11 31.09L226.38 37.03L231.86 38.80ZM226.38 37.03L225.11 31.09L219.63 29.33L215.41 33.51L216.68 39.46L222.16 41.22ZM239.88 52.45L238.61 46.51L233.13 44.74L228.91 48.92L230.18 54.87L235.66 56.63ZM230.18 54.87L228.91 48.92L223.43 47.16L219.21 51.34L220.48 57.28L225.96 59.05ZM242.84 42.32L241.57 36.38L236.09 34.61L231.86 38.80L233.13 44.74L238.61 46.51ZM206.98 41.88L205.71 35.94L200.23 34.18L196.02 38.37L197.29 44.31L202.77 46.06ZM197.29 44.31L196.02 38.37L190.54 36.61L186.33 40.80L187.60 46.74L193.08 48.49ZM209.93 31.75L208.66 25.81L203.17 24.05L198.96 28.24L200.23 34.18L205.71 35.94ZM200.23 34.18L198.96 28.24L193.48 26.48L189.27 30.67L190.54 36.61L196.02 38.37ZM213.73 49.58L212.46 43.64L206.98 41.88L202.77 46.06L204.04 52.01L209.52 53.76ZM204.04 52.01L202.77 46.06L197.29 44.31L193.08 48.49L194.35 54.43L199.83 56.19ZM216.68 39.46L215.41 33.51L209.93 31.75L205.71 35.94L206.98 41.88L212.46 43.64ZM248.75 22.06L247.49 16.11L242.00 14.35L237.78 18.54L239.04 24.48L244.53 26.25ZM239.04 24.48L237.78 18.54L232.29 16.77L228.07 20.96L229.33 26.91L234.82 28.67ZM251.72 11.93L250.45 5.98L244.96 4.21L240.74 8.40L242.00 14.35L247.49 16.11ZM242.00 14.35L240.74 8.40L235.25 6.64L231.02 10.82L232.29 16.77L237.78 18.54ZM255.51 29.78L254.24 23.83L248.75 22.06L244.53 26.25L245.79 32.20L251.28 33.96ZM245.79 32.20L244.53 26.25L239.04 24.48L234.82 28.67L236.09 34.61L241.57 36.38ZM258.47 19.65L257.21 13.69L251.72 11.93L247.49 16.11L248.75 22.06L254.24 23.83ZM228.49 214.50L227.23 208.58L221.78 206.81L217.58 210.97L218.84 216.88L224.30 218.65ZM218.84 216.88L217.58 210.97L212.13 209.20L207.93 213.36L209.19 219.27L214.65 221.04ZM231.43 204.43L230.17 198.51L224.71 196.74L220.52 200.89L221.78 206.81L227.23 208.58ZM221.78 206.81L220.52 200.89L215.06 199.13L210.86 203.29L212.13 209.20L217.58 210.97ZM235.21 222.18L233.95 216.26L228.49 214.50L224.30 218.65L225.56 224.57L231.01 226.33ZM225.56 224.57L224.30 218.65L218.84 216.88L214.65 221.04L215.91 226.95L221.36 228.72ZM238.15 212.11L236.89 206.19L231.43 204.43L227.23 208.58L228.49 214.50L233.95 216.26ZM202.48 211.59L201.21 205.68L195.76 203.92L191.57 208.07L192.83 213.99L198.29 215.75ZM192.83 213.99L191.57 208.07L186.11 206.31L181.93 210.47L183.19 216.38L188.65 218.14ZM205.41 201.52L204.14 195.61L198.69 193.84L194.49 198.00L195.76 203.92L201.21 205.68ZM195.76 203.92L194.49 198.00L189.04 196.24L184.85 200.40L186.11 206.31L191.57 208.07ZM209.19 219.27L207.93 213.36L202.48 211.59L198.29 215.75L199.55 221.66L205.00 223.42ZM199.55 221.66L198.29 215.75L192.83 213.99L188.65 218.14L189.91 224.06L195.36 225.82ZM212.13 209.20L210.86 203.29L205.41 201.52L201.21 205.68L202.48 211.59L207.93 213.36ZM244.04 191.96L242.78 186.04L237.32 184.27L233.11 188.43L234.37 194.35L239.83 196.12ZM234.37 194.35L233.11 188.43L227.65 186.66L223.45 190.82L224.71 196.74L230.17 198.51ZM246.98 181.88L245.73 175.96L240.26 174.19L236.06 178.35L237.32 184.27L242.78 186.04ZM237.32 184.27L236.06 178.35L230.59 176.58L226.39 180.74L227.65 186.66L233.11 188.43ZM250.76 199.66L249.50 193.73L244.04 191.96L239.83 196.12L241.09 202.04L246.55 203.81ZM241.09 202.04L239.83 196.12L234.37 194.35L230.17 198.51L231.43 204.43L236.89 206.19ZM253.70 189.58L252.45 183.65L246.98 181.88L242.78 186.04L244.04 191.96L249.50 193.73ZM217.99 189.05L216.73 183.13L211.27 181.37L207.07 185.53L208.34 191.45L213.80 193.21ZM208.34 191.45L207.07 185.53L201.62 183.77L197.42 187.93L198.69 193.84L204.14 195.61ZM220.93 178.97L219.67 173.05L214.21 171.29L210.01 175.45L211.27 181.37L216.73 183.13ZM211.27 181.37L210.01 175.45L204.55 173.69L200.35 177.85L201.62 183.77L207.07 185.53ZM224.71 196.74L223.45 190.82L217.99 189.05L213.80 193.21L215.06 199.13L220.52 200.89ZM215.06 199.13L213.80 193.21L208.34 191.45L204.14 195.61L205.41 201.52L210.86 203.29ZM227.65 186.66L226.39 180.74L220.93 178.97L216.73 183.13L217.99 189.05L223.45 190.82ZM238.98 239.93L237.72 234.02L232.27 232.25L228.07 236.40L229.33 242.31L234.79 244.08ZM229.33 242.31L228.07 236.40L222.62 234.63L218.43 238.78L219.69 244.69L225.14 246.46ZM241.92 229.87L240.66 223.95L235.21 222.18L231.01 226.33L232.27 232.25L237.72 234.02ZM232.27 232.25L231.01 226.33L225.56 224.57L221.36 228.72L222.62 234.63L228.07 236.40ZM245.69 247.62L244.44 241.70L238.98 239.93L234.79 244.08L236.04 250.00L241.49 251.76ZM236.04 250.00L234.79 244.08L229.33 242.31L225.14 246.46L226.40 252.37L231.85 254.14ZM248.63 237.56L247.38 231.64L241.92 229.87L237.72 234.02L238.98 239.93L244.44 241.70ZM212.98 237.02L211.72 231.10L206.26 229.34L202.08 233.49L203.34 239.40L208.79 241.16ZM203.34 239.40L202.08 233.49L196.62 231.73L192.44 235.88L193.70 241.79L199.15 243.55ZM215.91 226.95L214.65 221.04L209.19 219.27L205.00 223.42L206.26 229.34L211.72 231.10ZM206.26 229.34L205.00 223.42L199.55 221.66L195.36 225.82L196.62 231.73L202.08 233.49ZM219.69 244.69L218.43 238.78L212.98 237.02L208.79 241.16L210.05 247.08L215.50 248.84ZM210.05 247.08L208.79 241.16L203.34 239.40L199.15 243.55L200.41 249.46L205.86 251.22ZM222.62 234.63L221.36 228.72L215.91 226.95L211.72 231.10L212.98 237.02L218.43 238.78ZM254.52 217.42L253.27 211.50L247.81 209.73L243.61 213.88L244.86 219.80L250.32 221.57ZM244.86 219.80L243.61 213.88L238.15 212.11L233.95 216.26L235.21 222.18L240.66 223.95ZM257.47 207.35L256.22 201.43L250.76 199.66L246.55 203.81L247.81 209.73L253.27 211.50ZM247.81 209.73L246.55 203.81L241.09 202.04L236.89 206.19L238.15 212.11L243.61 213.88ZM251.58 227.49L250.32 221.57L244.86 219.80L240.66 223.95L241.92 229.87L247.38 231.64ZM161.01 231.24L159.74 225.34L154.30 223.58L150.12 227.74L151.39 233.64L156.83 235.40ZM151.39 233.64L150.12 227.74L144.67 225.99L140.50 230.14L141.77 236.05L147.21 237.80ZM163.92 221.18L162.66 215.27L157.21 213.52L153.03 217.67L154.30 223.58L159.74 225.34ZM154.30 223.58L153.03 217.67L147.58 215.92L143.40 220.08L144.67 225.99L150.12 227.74ZM167.73 238.91L166.46 233.00L161.01 231.24L156.83 235.40L158.10 241.30L163.55 243.06ZM158.10 241.30L156.83 235.40L151.39 233.64L147.21 237.80L148.48 243.70L153.93 245.46ZM170.64 228.85L169.37 222.94L163.92 221.18L159.74 225.34L161.01 231.24L166.46 233.00ZM135.05 228.39L133.78 222.49L128.33 220.74L124.16 224.89L125.43 230.80L130.88 232.55ZM125.43 230.80L124.16 224.89L118.72 223.15L114.55 227.31L115.82 233.21L121.26 234.95ZM137.95 218.33L136.68 212.42L131.23 210.67L127.06 214.83L128.33 220.74L133.78 222.49ZM128.33 220.74L127.06 214.83L121.61 213.08L117.44 217.24L118.72 223.15L124.16 224.89ZM141.77 236.05L140.50 230.14L135.05 228.39L130.88 232.55L132.15 238.45L137.59 240.20ZM132.15 238.45L130.88 232.55L125.43 230.80L121.26 234.95L122.54 240.86L127.98 242.60ZM144.67 225.99L143.40 220.08L137.95 218.33L133.78 222.49L135.05 228.39L140.50 230.14ZM176.47 208.71L175.21 202.80L169.75 201.04L165.57 205.20L166.84 211.11L172.29 212.87ZM166.84 211.11L165.57 205.20L160.12 203.45L155.94 207.61L157.21 213.52L162.66 215.27ZM179.39 198.64L178.13 192.73L172.67 190.97L168.49 195.13L169.75 201.04L175.21 202.80ZM169.75 201.04L168.49 195.13L163.03 193.38L158.85 197.54L160.12 203.45L165.57 205.20ZM183.19 216.38L181.93 210.47L176.47 208.71L172.29 212.87L173.56 218.78L179.01 220.54ZM173.56 218.78L172.29 212.87L166.84 211.11L162.66 215.27L163.92 221.18L169.37 222.94ZM186.11 206.31L184.85 200.40L179.39 198.64L175.21 202.80L176.47 208.71L181.93 210.47ZM150.49 205.85L149.22 199.94L143.77 198.19L139.59 202.35L140.86 208.26L146.31 210.01ZM140.86 208.26L139.59 202.35L134.14 200.60L129.96 204.76L131.23 210.67L136.68 212.42ZM153.40 195.78L152.13 189.87L146.67 188.12L142.49 192.28L143.77 198.19L149.22 199.94ZM143.77 198.19L142.49 192.28L137.04 190.53L132.86 194.69L134.14 200.60L139.59 202.35ZM157.21 213.52L155.94 207.61L150.49 205.85L146.31 210.01L147.58 215.92L153.03 217.67ZM147.58 215.92L146.31 210.01L140.86 208.26L136.68 212.42L137.95 218.33L143.40 220.08ZM160.12 203.45L158.85 197.54L153.40 195.78L149.22 199.94L150.49 205.85L155.94 207.61ZM171.53 256.63L170.26 250.72L164.81 248.96L160.64 253.11L161.90 259.02L167.35 260.77ZM161.90 259.02L160.64 253.11L155.19 251.36L151.02 255.51L152.29 261.41L157.73 263.17ZM174.44 246.57L173.17 240.66L167.73 238.91L163.55 243.06L164.81 248.96L170.26 250.72ZM164.81 248.96L163.55 243.06L158.10 241.30L153.93 245.46L155.19 251.36L160.64 253.11ZM181.15 254.24L179.89 248.33L174.44 246.57L170.26 250.72L171.53 256.63L176.97 258.38ZM145.58 253.76L144.31 247.85L138.86 246.10L134.69 250.26L135.96 256.16L141.40 257.91ZM135.96 256.16L134.69 250.26L129.25 248.51L125.08 252.66L126.35 258.56L131.79 260.31ZM148.48 243.70L147.21 237.80L141.77 236.05L137.59 240.20L138.86 246.10L144.31 247.85ZM138.86 246.10L137.59 240.20L132.15 238.45L127.98 242.60L129.25 248.51L134.69 250.26ZM152.29 261.41L151.02 255.51L145.58 253.76L141.40 257.91L142.67 263.81L148.11 265.56ZM155.19 251.36L153.93 245.46L148.48 243.70L144.31 247.85L145.58 253.76L151.02 255.51ZM186.99 234.12L185.72 228.21L180.27 226.45L176.09 230.60L177.36 236.51L182.80 238.27ZM177.36 236.51L176.09 230.60L170.64 228.85L166.46 233.00L167.73 238.91L173.17 240.66ZM189.91 224.06L188.65 218.14L183.19 216.38L179.01 220.54L180.27 226.45L185.72 228.21ZM180.27 226.45L179.01 220.54L173.56 218.78L169.37 222.94L170.64 228.85L176.09 230.60ZM193.70 241.79L192.44 235.88L186.99 234.12L182.80 238.27L184.07 244.18L189.52 245.94ZM184.07 244.18L182.80 238.27L177.36 236.51L173.17 240.66L174.44 246.57L179.89 248.33ZM196.62 231.73L195.36 225.82L189.91 224.06L185.72 228.21L186.99 234.12L192.44 235.88ZM249.11 143.92L247.85 137.99L242.38 136.22L238.17 140.39L239.43 146.32L244.90 148.08ZM239.43 146.32L238.17 140.39L232.70 138.62L228.49 142.79L229.75 148.71L235.22 150.48ZM252.06 133.83L250.80 127.89L245.33 126.12L241.12 130.29L242.38 136.22L247.85 137.99ZM242.38 136.22L241.12 130.29L235.65 128.52L231.44 132.69L232.70 138.62L238.17 140.39ZM255.83 151.62L254.58 145.69L249.11 143.92L244.90 148.08L246.16 154.01L251.62 155.78ZM246.16 154.01L244.90 148.08L239.43 146.32L235.22 150.48L236.48 156.41L241.95 158.18ZM258.79 141.53L257.53 135.60L252.06 133.83L247.85 137.99L249.11 143.92L254.58 145.69ZM223.02 141.02L221.76 135.09L216.29 133.33L212.09 137.50L213.35 143.42L218.82 145.19ZM213.35 143.42L212.09 137.50L206.62 135.73L202.42 139.90L203.69 145.83L209.15 147.59ZM225.97 130.93L224.70 124.99L219.23 123.23L215.03 127.40L216.29 133.33L221.76 135.09ZM216.29 133.33L215.03 127.40L209.56 125.64L205.36 129.81L206.62 135.73L212.09 137.50ZM229.75 148.71L228.49 142.79L223.02 141.02L218.82 145.19L220.08 151.11L225.55 152.88ZM220.08 151.11L218.82 145.19L213.35 143.42L209.15 147.59L210.42 153.51L215.88 155.28ZM232.70 138.62L231.44 132.69L225.97 130.93L221.76 135.09L223.02 141.02L228.49 142.79ZM264.70 121.33L263.45 115.39L257.97 113.62L253.76 117.79L255.01 123.73L260.49 125.50ZM255.01 123.73L253.76 117.79L248.28 116.02L244.07 120.19L245.33 126.12L250.80 127.89ZM257.97 113.62L256.71 107.69L251.24 105.92L247.02 110.09L248.28 116.02L253.76 117.79ZM261.75 131.43L260.49 125.50L255.01 123.73L250.80 127.89L252.06 133.83L257.53 135.60ZM238.59 118.42L237.33 112.49L231.86 110.72L227.65 114.89L228.91 120.83L234.38 122.59ZM228.91 120.83L227.65 114.89L222.18 113.13L217.97 117.30L219.23 123.23L224.70 124.99ZM241.55 108.32L240.28 102.38L234.81 100.62L230.60 104.79L231.86 110.72L237.33 112.49ZM231.86 110.72L230.60 104.79L225.12 103.03L220.91 107.20L222.18 113.13L227.65 114.89ZM245.33 126.12L244.07 120.19L238.59 118.42L234.38 122.59L235.65 128.52L241.12 130.29ZM235.65 128.52L234.38 122.59L228.91 120.83L224.70 124.99L225.97 130.93L231.44 132.69ZM248.28 116.02L247.02 110.09L241.55 108.32L237.33 112.49L238.59 118.42L244.07 120.19ZM259.61 169.41L258.35 163.48L252.88 161.71L248.67 165.87L249.93 171.80L255.40 173.57ZM249.93 171.80L248.67 165.87L243.21 164.10L239.00 168.26L240.26 174.19L245.73 175.96ZM262.56 159.32L261.30 153.39L255.83 151.62L251.62 155.78L252.88 161.71L258.35 163.48ZM252.88 161.71L251.62 155.78L246.16 154.01L241.95 158.18L243.21 164.10L248.67 165.87ZM266.33 177.11L265.07 171.18L259.61 169.41L255.40 173.57L256.65 179.50L262.12 181.27ZM256.65 179.50L255.40 173.57L249.93 171.80L245.73 175.96L246.98 181.88L252.45 183.65ZM233.54 166.50L232.28 160.57L226.81 158.80L222.61 162.97L223.87 168.89L229.33 170.66ZM223.87 168.89L222.61 162.97L217.14 161.20L212.94 165.36L214.21 171.29L219.67 173.05ZM236.48 156.41L235.22 150.48L229.75 148.71L225.55 152.88L226.81 158.80L232.28 160.57ZM226.81 158.80L225.55 152.88L220.08 151.11L215.88 155.28L217.14 161.20L222.61 162.97ZM240.26 174.19L239.00 168.26L233.54 166.50L229.33 170.66L230.59 176.58L236.06 178.35ZM230.59 176.58L229.33 170.66L223.87 168.89L219.67 173.05L220.93 178.97L226.39 180.74ZM243.21 164.10L241.95 158.18L236.48 156.41L232.28 160.57L233.54 166.50L239.00 168.26ZM265.52 149.23L264.26 143.30L258.79 141.53L254.58 145.69L255.83 151.62L261.30 153.39ZM181.44 160.73L180.17 154.81L174.71 153.05L170.52 157.22L171.79 163.14L177.25 164.89ZM171.79 163.14L170.52 157.22L165.06 155.47L160.87 159.63L162.14 165.55L167.60 167.30ZM184.36 150.64L183.10 144.72L177.63 142.96L173.44 147.13L174.71 153.05L180.17 154.81ZM174.71 153.05L173.44 147.13L167.98 145.38L163.79 149.55L165.06 155.47L170.52 157.22ZM188.17 168.41L186.90 162.49L181.44 160.73L177.25 164.89L178.52 170.81L183.97 172.57ZM178.52 170.81L177.25 164.89L171.79 163.14L167.60 167.30L168.87 173.22L174.33 174.98ZM191.09 158.32L189.83 152.40L184.36 150.64L180.17 154.81L181.44 160.73L186.90 162.49ZM155.41 157.88L154.14 151.96L148.68 150.21L144.50 154.38L145.77 160.30L151.23 162.05ZM145.77 160.30L144.50 154.38L139.04 152.63L134.85 156.80L136.13 162.71L141.58 164.46ZM158.33 147.79L157.06 141.87L151.60 140.12L147.41 144.29L148.68 150.21L154.14 151.96ZM162.14 165.55L160.87 159.63L155.41 157.88L151.23 162.05L152.50 167.96L157.95 169.72ZM152.50 167.96L151.23 162.05L145.77 160.30L141.58 164.46L142.86 170.38L148.31 172.13ZM165.06 155.47L163.79 149.55L158.33 147.79L154.14 151.96L155.41 157.88L160.87 159.63ZM196.96 138.14L195.69 132.22L190.22 130.46L186.02 134.63L187.29 140.55L192.76 142.31ZM187.29 140.55L186.02 134.63L180.56 132.87L176.36 137.04L177.63 142.96L183.10 144.72ZM199.89 128.05L198.62 122.12L193.15 120.36L188.95 124.53L190.22 130.46L195.69 132.22ZM190.22 130.46L188.95 124.53L183.49 122.77L179.29 126.95L180.56 132.87L186.02 134.63ZM203.69 145.83L202.42 139.90L196.96 138.14L192.76 142.31L194.02 148.23L199.49 149.99ZM194.02 148.23L192.76 142.31L187.29 140.55L183.10 144.72L184.36 150.64L189.83 152.40ZM206.62 135.73L205.36 129.81L199.89 128.05L195.69 132.22L196.96 138.14L202.42 139.90ZM170.90 135.29L169.63 129.36L164.17 127.61L159.97 131.78L161.25 137.70L166.71 139.46ZM161.25 137.70L159.97 131.78L154.51 130.03L150.32 134.20L151.60 140.12L157.06 141.87ZM173.83 125.19L172.55 119.27L167.09 117.51L162.90 121.69L164.17 127.61L169.63 129.36ZM164.17 127.61L162.90 121.69L157.43 119.93L153.24 124.11L154.51 130.03L159.97 131.78ZM177.63 142.96L176.36 137.04L170.90 135.29L166.71 139.46L167.98 145.38L173.44 147.13ZM167.98 145.38L166.71 139.46L161.25 137.70L157.06 141.87L158.33 147.79L163.79 149.55ZM180.56 132.87L179.29 126.95L173.83 125.19L169.63 129.36L170.90 135.29L176.36 137.04ZM191.96 186.17L190.70 180.25L185.24 178.49L181.05 182.65L182.32 188.57L187.77 190.33ZM182.32 188.57L181.05 182.65L175.59 180.89L171.40 185.06L172.67 190.97L178.13 192.73ZM194.89 176.09L193.63 170.17L188.17 168.41L183.97 172.57L185.24 178.49L190.70 180.25ZM185.24 178.49L183.97 172.57L178.52 170.81L174.33 174.98L175.59 180.89L181.05 182.65ZM198.69 193.84L197.42 187.93L191.96 186.17L187.77 190.33L189.04 196.24L194.49 198.00ZM189.04 196.24L187.77 190.33L182.32 188.57L178.13 192.73L179.39 198.64L184.85 200.40ZM201.62 183.77L200.35 177.85L194.89 176.09L190.70 180.25L191.96 186.17L197.42 187.93ZM165.95 183.30L164.68 177.38L159.22 175.63L155.04 179.79L156.31 185.71L161.76 187.46ZM156.31 185.71L155.04 179.79L149.58 178.04L145.40 182.21L146.67 188.12L152.13 189.87ZM168.87 173.22L167.60 167.30L162.14 165.55L157.95 169.72L159.22 175.63L164.68 177.38ZM159.22 175.63L157.95 169.72L152.50 167.96L148.31 172.13L149.58 178.04L155.04 179.79ZM172.67 190.97L171.40 185.06L165.95 183.30L161.76 187.46L163.03 193.38L168.49 195.13ZM163.03 193.38L161.76 187.46L156.31 185.71L152.13 189.87L153.40 195.78L158.85 197.54ZM175.59 180.89L174.33 174.98L168.87 173.22L164.68 177.38L165.95 183.30L171.40 185.06ZM207.48 163.60L206.22 157.68L200.75 155.92L196.56 160.08L197.82 166.00L203.28 167.76ZM197.82 166.00L196.56 160.08L191.09 158.32L186.90 162.49L188.17 168.41L193.63 170.17ZM210.42 153.51L209.15 147.59L203.69 145.83L199.49 149.99L200.75 155.92L206.22 157.68ZM200.75 155.92L199.49 149.99L194.02 148.23L189.83 152.40L191.09 158.32L196.56 160.08ZM214.21 171.29L212.94 165.36L207.48 163.60L203.28 167.76L204.55 173.69L210.01 175.45ZM204.55 173.69L203.28 167.76L197.82 166.00L193.63 170.17L194.89 176.09L200.35 177.85ZM217.14 161.20L215.88 155.28L210.42 153.51L206.22 157.68L207.48 163.60L212.94 165.36ZM242.75 257.68L241.49 251.76L236.04 250.00L231.85 254.14L233.11 260.05L238.56 261.82ZM255.34 245.25L254.09 239.33L248.63 237.56L244.44 241.70L245.69 247.62L251.14 249.39ZM223.47 262.43L222.21 256.52L216.76 254.75L212.57 258.90L213.83 264.81L219.28 266.57ZM226.40 252.37L225.14 246.46L219.69 244.69L215.50 248.84L216.76 254.75L222.21 256.52ZM216.76 254.75L215.50 248.84L210.05 247.08L205.86 251.22L207.12 257.13L212.57 258.90ZM233.11 260.05L231.85 254.14L226.40 252.37L222.21 256.52L223.47 262.43L228.91 264.20ZM197.49 259.52L196.23 253.61L190.78 251.85L186.60 256.00L187.86 261.90L193.30 263.66ZM187.86 261.90L186.60 256.00L181.15 254.24L176.97 258.38L178.23 264.29L183.68 266.05ZM200.41 249.46L199.15 243.55L193.70 241.79L189.52 245.94L190.78 251.85L196.23 253.61ZM190.78 251.85L189.52 245.94L184.07 244.18L179.89 248.33L181.15 254.24L186.60 256.00ZM207.12 257.13L205.86 251.22L200.41 249.46L196.23 253.61L197.49 259.52L202.93 261.28ZM260.42 197.27L259.17 191.35L253.70 189.58L249.50 193.73L250.76 199.66L256.22 201.43ZM263.38 187.20L262.12 181.27L256.65 179.50L252.45 183.65L253.70 189.58L259.17 191.35ZM119.64 250.91L118.37 245.01L112.93 243.26L108.76 247.42L110.04 253.32L115.47 255.06ZM126.35 258.56L125.08 252.66L119.64 250.91L115.47 255.06L116.75 260.96L122.19 262.71ZM116.75 260.96L115.47 255.06L110.04 253.32L105.87 257.47L107.15 263.37L112.58 265.11ZM129.25 248.51L127.98 242.60L122.54 240.86L118.37 245.01L119.64 250.91L125.08 252.66ZM131.23 210.67L129.96 204.76L124.51 203.02L120.34 207.18L121.61 213.08L127.06 214.83ZM134.14 200.60L132.86 194.69L127.41 192.95L123.24 197.11L124.51 203.02L129.96 204.76ZM139.95 180.46L138.68 174.54L133.22 172.80L129.04 176.96L130.32 182.87L135.77 184.62ZM142.86 170.38L141.58 164.46L136.13 162.71L131.95 166.88L133.22 172.80L138.68 174.54ZM146.67 188.12L145.40 182.21L139.95 180.46L135.77 184.62L137.04 190.53L142.49 192.28ZM137.04 190.53L135.77 184.62L130.32 182.87L126.14 187.04L127.41 192.95L132.86 194.69ZM149.58 178.04L148.31 172.13L142.86 170.38L138.68 174.54L139.95 180.46L145.40 182.21ZM260.11 75.58L258.85 69.64L253.37 67.87L249.15 72.05L250.41 77.99L255.89 79.76ZM263.07 65.46L261.81 59.52L256.33 57.75L252.11 61.93L253.37 67.87L258.85 69.64ZM266.85 83.29L265.59 77.35L260.11 75.58L255.89 79.76L257.15 85.70L262.63 87.47ZM243.67 70.28L242.40 64.34L236.92 62.57L232.71 66.75L233.97 72.69L239.45 74.46ZM233.97 72.69L232.71 66.75L227.23 64.99L223.01 69.16L224.28 75.10L229.75 76.87ZM246.62 60.16L245.36 54.22L239.88 52.45L235.66 56.63L236.92 62.57L242.40 64.34ZM236.92 62.57L235.66 56.63L230.18 54.87L225.96 59.05L227.23 64.99L232.71 66.75ZM250.41 77.99L249.15 72.05L243.67 70.28L239.45 74.46L240.71 80.40L246.19 82.16ZM240.71 80.40L239.45 74.46L233.97 72.69L229.75 76.87L231.02 82.81L236.50 84.57ZM253.37 67.87L252.11 61.93L246.62 60.16L242.40 64.34L243.67 70.28L249.15 72.05ZM259.29 47.62L258.03 41.68L252.54 39.91L248.32 44.09L249.58 50.04L255.07 51.80ZM249.58 50.04L248.32 44.09L242.84 42.32L238.61 46.51L239.88 52.45L245.36 54.22ZM262.26 37.50L261.00 31.55L255.51 29.78L251.28 33.96L252.54 39.91L258.03 41.68ZM252.54 39.91L251.28 33.96L245.79 32.20L241.57 36.38L242.84 42.32L248.32 44.09ZM266.04 55.34L264.78 49.39L259.29 47.62L255.07 51.80L256.33 57.75L261.81 59.52ZM256.33 57.75L255.07 51.80L249.58 50.04L245.36 54.22L246.62 60.16L252.11 61.93ZM254.19 95.81L252.93 89.87L247.45 88.10L243.24 92.27L244.50 98.21L249.98 99.98ZM244.50 98.21L243.24 92.27L237.76 90.51L233.55 94.68L234.81 100.62L240.28 102.38ZM257.15 85.70L255.89 79.76L250.41 77.99L246.19 82.16L247.45 88.10L252.93 89.87ZM247.45 88.10L246.19 82.16L240.71 80.40L236.50 84.57L237.76 90.51L243.24 92.27ZM260.93 103.52L259.67 97.58L254.19 95.81L249.98 99.98L251.24 105.92L256.71 107.69ZM251.24 105.92L249.98 99.98L244.50 98.21L240.28 102.38L241.55 108.32L247.02 110.09ZM263.89 93.41L262.63 87.47L257.15 85.70L252.93 89.87L254.19 95.81L259.67 97.58ZM264.41 -0.63L263.14 -6.59L257.65 -8.35L253.42 -4.16L254.68 1.79L260.18 3.56ZM254.68 1.79L253.42 -4.16L247.93 -5.93L243.70 -1.74L244.96 4.21L250.45 5.98ZM261.44 9.51L260.18 3.56L254.68 1.79L250.45 5.98L251.72 11.93L257.21 13.69ZM265.22 27.37L263.96 21.41L258.47 19.65L254.24 23.83L255.51 29.78L261.00 31.55Z"/><path data-band="2" fill="#f97316" fill-opacity="0.35" d="M154.73 36.23L153.45 30.29L147.97 28.54L143.77 32.73L145.05 38.67L150.53 40.42ZM145.05 38.67L143.77 32.73L138.30 30.99L134.10 35.18L135.38 41.11L140.85 42.86ZM157.66 26.10L156.38 20.16L150.90 18.42L146.70 22.61L147.97 28.54L153.45 30.29ZM147.97 28.54L146.70 22.61L141.22 20.86L137.02 25.05L138.30 30.99L143.77 32.73ZM161.48 43.91L160.21 37.98L154.73 36.23L150.53 40.42L151.80 46.35L157.28 48.10ZM151.80 46.35L150.53 40.42L145.05 38.67L140.85 42.86L142.13 48.79L147.61 50.54ZM164.41 33.79L163.14 27.85L157.66 26.10L153.45 30.29L154.73 36.23L160.21 37.98ZM128.62 33.43L127.34 27.50L121.87 25.76L117.67 29.95L118.95 35.88L124.43 37.62ZM118.95 35.88L117.67 29.95L112.20 28.21L108.01 32.40L109.29 38.33L114.76 40.07ZM131.54 23.31L130.26 17.37L124.78 15.63L120.59 19.82L121.87 25.76L127.34 27.50ZM121.87 25.76L120.59 19.82L115.11 18.08L110.92 22.28L112.20 28.21L117.67 29.95ZM135.38 41.11L134.10 35.18L128.62 33.43L124.43 37.62L125.71 43.56L131.18 45.30ZM125.71 43.56L124.43 37.62L118.95 35.88L114.76 40.07L116.04 46.00L121.52 47.75ZM138.30 30.99L137.02 25.05L131.54 23.31L127.34 27.50L128.62 33.43L134.10 35.18ZM170.27 13.53L169.00 7.59L163.51 5.84L159.31 10.03L160.58 15.97L166.07 17.72ZM160.58 15.97L159.31 10.03L153.83 8.28L149.62 12.48L150.90 18.42L156.38 20.16ZM173.21 3.40L171.93 -2.55L166.45 -4.30L162.24 -0.10L163.51 5.84L169.00 7.59ZM163.51 5.84L162.24 -0.10L156.75 -1.85L152.55 2.34L153.83 8.28L159.31 10.03ZM177.03 21.22L175.76 15.28L170.27 13.53L166.07 17.72L167.34 23.66L172.82 25.41ZM167.34 23.66L166.07 17.72L160.58 15.97L156.38 20.16L157.66 26.10L163.14 27.85ZM179.97 11.09L178.69 5.15L173.21 3.40L169.00 7.59L170.27 13.53L175.76 15.28ZM144.14 10.73L142.86 4.79L137.38 3.05L133.18 7.24L134.46 13.18L139.94 14.92ZM134.46 13.18L133.18 7.24L127.70 5.50L123.50 9.69L124.78 15.63L130.26 17.37ZM147.07 0.60L145.79 -5.35L140.30 -7.09L136.10 -2.89L137.38 3.05L142.86 4.79ZM137.38 3.05L136.10 -2.89L130.62 -4.64L126.42 -0.44L127.70 5.50L133.18 7.24ZM150.90 18.42L149.62 12.48L144.14 10.73L139.94 14.92L141.22 20.86L146.70 22.61ZM141.22 20.86L139.94 14.92L134.46 13.18L130.26 17.37L131.54 23.31L137.02 25.05ZM153.83 8.28L152.55 2.34L147.07 0.60L142.86 4.79L144.14 10.73L149.62 12.48ZM165.30 61.72L164.03 55.78L158.56 54.03L154.36 58.22L155.63 64.15L161.10 65.90ZM155.63 64.15L154.36 58.22L148.88 56.47L144.68 60.65L145.96 66.59L151.43 68.33ZM168.23 51.60L166.96 45.66L161.48 43.91L157.28 48.10L158.56 54.03L164.03 55.78ZM158.56 54.03L157.28 48.10L151.80 46.35L147.61 50.54L148.88 56.47L154.36 58.22ZM172.05 69.40L170.78 63.47L165.30 61.72L161.10 65.90L162.38 71.83L167.85 73.58ZM162.38 71.83L161.10 65.90L155.63 64.15L151.43 68.33L152.71 74.26L158.18 76.01ZM139.21 58.91L137.93 52.98L132.46 51.23L128.27 55.42L129.55 61.35L135.02 63.09ZM129.55 61.35L128.27 55.42L122.80 53.68L118.60 57.86L119.88 63.79L125.35 65.53ZM142.13 48.79L140.85 42.86L135.38 41.11L131.18 45.30L132.46 51.23L137.93 52.98ZM132.46 51.23L131.18 45.30L125.71 43.56L121.52 47.75L122.80 53.68L128.27 55.42ZM145.96 66.59L144.68 60.65L139.21 58.91L135.02 63.09L136.30 69.02L141.77 70.77ZM136.30 69.02L135.02 63.09L129.55 61.35L125.35 65.53L126.63 71.46L132.10 73.21ZM148.88 56.47L147.61 50.54L142.13 48.79L137.93 52.98L139.21 58.91L144.68 60.65ZM171.16 41.48L169.89 35.54L164.41 33.79L160.21 37.98L161.48 43.91L166.96 45.66ZM174.10 31.35L172.82 25.41L167.34 23.66L163.14 27.85L164.41 33.79L169.89 35.54ZM87.07 53.36L85.79 47.43L80.32 45.69L76.13 49.89L77.42 55.81L82.89 57.55ZM77.42 55.81L76.13 49.89L70.67 48.15L66.49 52.34L67.78 58.27L73.24 60.00ZM89.97 43.24L88.69 37.31L83.21 35.58L79.03 39.77L80.32 45.69L85.79 47.43ZM80.32 45.69L79.03 39.77L73.56 38.04L69.38 42.23L70.67 48.15L76.13 49.89ZM93.82 61.02L92.54 55.09L87.07 53.36L82.89 57.55L84.17 63.47L89.64 65.21ZM84.17 63.47L82.89 57.55L77.42 55.81L73.24 60.00L74.53 65.92L79.99 67.66ZM96.72 50.90L95.44 44.98L89.97 43.24L85.79 47.43L87.07 53.36L92.54 55.09ZM61.02 50.61L59.73 44.69L54.27 42.96L50.09 47.15L51.38 53.08L56.84 54.80ZM63.91 40.50L62.62 34.57L57.15 32.84L52.98 37.04L54.27 42.96L59.73 44.69ZM54.27 42.96L52.98 37.04L47.51 35.31L43.33 39.50L44.62 45.43L50.09 47.15ZM67.78 58.27L66.49 52.34L61.02 50.61L56.84 54.80L58.13 60.73L63.60 62.46ZM58.13 60.73L56.84 54.80L51.38 53.08L47.21 57.27L48.50 63.19L53.96 64.92ZM70.67 48.15L69.38 42.23L63.91 40.50L59.73 44.69L61.02 50.61L66.49 52.34ZM102.53 30.66L101.25 24.73L95.78 22.99L91.59 27.19L92.87 33.12L98.34 34.86ZM92.87 33.12L91.59 27.19L86.11 25.45L81.93 29.65L83.21 35.58L88.69 37.31ZM105.44 20.54L104.16 14.60L98.68 12.87L94.49 17.06L95.78 22.99L101.25 24.73ZM95.78 22.99L94.49 17.06L89.02 15.33L84.83 19.52L86.11 25.45L91.59 27.19ZM109.29 38.33L108.01 32.40L102.53 30.66L98.34 34.86L99.63 40.78L105.10 42.52ZM99.63 40.78L98.34 34.86L92.87 33.12L88.69 37.31L89.97 43.24L95.44 44.98ZM112.20 28.21L110.92 22.28L105.44 20.54L101.25 24.73L102.53 30.66L108.01 32.40ZM76.46 27.91L75.17 21.98L69.70 20.25L65.52 24.45L66.80 30.38L72.27 32.11ZM66.80 30.38L65.52 24.45L60.04 22.72L55.86 26.92L57.15 32.84L62.62 34.57ZM79.36 17.79L78.07 11.86L72.59 10.13L68.41 14.32L69.70 20.25L75.17 21.98ZM69.70 20.25L68.41 14.32L62.94 12.59L58.76 16.79L60.04 22.72L65.52 24.45ZM83.21 35.58L81.93 29.65L76.46 27.91L72.27 32.11L73.56 38.04L79.03 39.77ZM73.56 38.04L72.27 32.11L66.80 30.38L62.62 34.57L63.91 40.50L69.38 42.23ZM86.11 25.45L84.83 19.52L79.36 17.79L75.17 21.98L76.46 27.91L81.93 29.65ZM97.67 78.79L96.39 72.87L90.92 71.13L86.74 75.32L88.03 81.24L93.49 82.98ZM88.03 81.24L86.74 75.32L81.28 73.58L77.10 77.77L78.38 83.69L83.85 85.42ZM100.57 68.68L99.29 62.76L93.82 61.02L89.64 65.21L90.92 71.13L96.39 72.87ZM90.92 71.13L89.64 65.21L84.17 63.47L79.99 67.66L81.28 73.58L86.74 75.32ZM104.42 86.45L103.14 80.53L97.67 78.79L93.49 82.98L94.77 88.90L100.24 90.64ZM94.77 88.90L93.49 82.98L88.03 81.24L83.85 85.42L85.13 91.34L90.59 93.08ZM107.32 76.35L106.04 70.42L100.57 68.68L96.39 72.87L97.67 78.79L103.14 80.53ZM71.63 76.03L70.35 70.11L64.88 68.38L60.71 72.57L62.00 78.49L67.46 80.22ZM62.00 78.49L60.71 72.57L55.25 70.84L51.07 75.03L52.36 80.94L57.82 82.67ZM74.53 65.92L73.24 60.00L67.78 58.27L63.60 62.46L64.88 68.38L70.35 70.11ZM64.88 68.38L63.60 62.46L58.13 60.73L53.96 64.92L55.25 70.84L60.71 72.57ZM78.38 83.69L77.10 77.77L71.63 76.03L67.46 80.22L68.74 86.14L74.21 87.87ZM68.74 86.14L67.46 80.22L62.00 78.49L57.82 82.67L59.11 88.59L64.57 90.32ZM81.28 73.58L79.99 67.66L74.53 65.92L70.35 70.11L71.63 76.03L77.10 77.77ZM113.13 56.12L111.85 50.19L106.38 48.45L102.19 52.64L103.48 58.57L108.95 60.31ZM103.48 58.57L102.19 52.64L96.72 50.90L92.54 55.09L93.82 61.02L99.29 62.76ZM116.04 46.00L114.76 40.07L109.29 38.33L105.10 42.52L106.38 48.45L111.85 50.19ZM106.38 48.45L105.10 42.52L99.63 40.78L95.44 44.98L96.72 50.90L102.19 52.64ZM119.88 63.79L118.60 57.86L113.13 56.12L108.95 60.31L110.23 66.24L115.70 67.98ZM110.23 66.24L108.95 60.31L103.48 58.57L99.29 62.76L100.57 68.68L106.04 70.42ZM122.80 53.68L121.52 47.75L116.04 46.00L111.85 50.19L113.13 56.12L118.60 57.86ZM182.90 0.95L181.63 -4.99L176.14 -6.74L171.93 -2.55L173.21 3.40L178.69 5.15ZM156.75 -1.85L155.48 -7.79L149.99 -9.54L145.79 -5.35L147.07 0.60L152.55 2.34ZM118.02 7.95L116.74 2.02L111.26 0.28L107.07 4.47L108.35 10.41L113.83 12.15ZM108.35 10.41L107.07 4.47L101.59 2.74L97.40 6.93L98.68 12.87L104.16 14.60ZM120.94 -2.18L119.66 -8.12L114.17 -9.86L109.98 -5.66L111.26 0.28L116.74 2.02ZM111.26 0.28L109.98 -5.66L104.50 -7.40L100.30 -3.20L101.59 2.74L107.07 4.47ZM124.78 15.63L123.50 9.69L118.02 7.95L113.83 12.15L115.11 18.08L120.59 19.82ZM115.11 18.08L113.83 12.15L108.35 10.41L104.16 14.60L105.44 20.54L110.92 22.28ZM127.70 5.50L126.42 -0.44L120.94 -2.18L116.74 2.02L118.02 7.95L123.50 9.69ZM91.92 5.20L90.63 -0.74L85.16 -2.47L80.97 1.73L82.25 7.66L87.73 9.39ZM82.25 7.66L80.97 1.73L75.49 -0.01L71.31 4.19L72.59 10.13L78.07 11.86ZM85.16 -2.47L83.87 -8.41L78.39 -10.14L74.20 -5.94L75.49 -0.01L80.97 1.73ZM98.68 12.87L97.40 6.93L91.92 5.20L87.73 9.39L89.02 15.33L94.49 17.06ZM89.02 15.33L87.73 9.39L82.25 7.66L78.07 11.86L79.36 17.79L84.83 19.52ZM101.59 2.74L100.30 -3.20L94.83 -4.94L90.63 -0.74L91.92 5.20L97.40 6.93ZM134.30 107.02L133.02 101.09L127.56 99.35L123.37 103.53L124.65 109.45L130.11 111.19ZM124.65 109.45L123.37 103.53L117.91 101.78L113.72 105.96L115.00 111.88L120.46 113.62ZM137.21 96.91L135.93 90.99L130.47 89.24L126.28 93.42L127.56 99.35L133.02 101.09ZM127.56 99.35L126.28 93.42L120.81 91.68L116.63 95.86L117.91 101.78L123.37 103.53ZM141.04 114.69L139.76 108.76L134.30 107.02L130.11 111.19L131.39 117.11L136.85 118.86ZM131.39 117.11L130.11 111.19L124.65 109.45L120.46 113.62L121.74 119.55L127.20 121.29ZM143.95 104.59L142.68 98.66L137.21 96.91L133.02 101.09L134.30 107.02L139.76 108.76ZM108.26 104.22L106.98 98.30L101.52 96.56L97.34 100.74L98.62 106.66L104.08 108.40ZM98.62 106.66L97.34 100.74L91.87 99.00L87.70 103.18L88.98 109.10L94.44 110.84ZM111.16 94.12L109.88 88.19L104.42 86.45L100.24 90.64L101.52 96.56L106.98 98.30ZM101.52 96.56L100.24 90.64L94.77 88.90L90.59 93.08L91.87 99.00L97.34 100.74ZM115.00 111.88L113.72 105.96L108.26 104.22L104.08 108.40L105.36 114.32L110.82 116.06ZM105.36 114.32L104.08 108.40L98.62 106.66L94.44 110.84L95.72 116.76L101.18 118.50ZM117.91 101.78L116.63 95.86L111.16 94.12L106.98 98.30L108.26 104.22L113.72 105.96ZM149.79 84.38L148.51 78.45L143.04 76.70L138.85 80.88L140.13 86.81L145.59 88.56ZM140.13 86.81L138.85 80.88L133.38 79.13L129.19 83.32L130.47 89.24L135.93 90.99ZM152.71 74.26L151.43 68.33L145.96 66.59L141.77 70.77L143.04 76.70L148.51 78.45ZM143.04 76.70L141.77 70.77L136.30 69.02L132.10 73.21L133.38 79.13L138.85 80.88ZM156.53 92.05L155.26 86.12L149.79 84.38L145.59 88.56L146.87 94.48L152.34 96.23ZM146.87 94.48L145.59 88.56L140.13 86.81L135.93 90.99L137.21 96.91L142.68 98.66ZM159.45 81.94L158.18 76.01L152.71 74.26L148.51 78.45L149.79 84.38L155.26 86.12ZM123.72 81.57L122.44 75.65L116.98 73.90L112.79 78.09L114.07 84.01L119.53 85.75ZM114.07 84.01L112.79 78.09L107.32 76.35L103.14 80.53L104.42 86.45L109.88 88.19ZM126.63 71.46L125.35 65.53L119.88 63.79L115.70 67.98L116.98 73.90L122.44 75.65ZM116.98 73.90L115.70 67.98L110.23 66.24L106.04 70.42L107.32 76.35L112.79 78.09ZM130.47 89.24L129.19 83.32L123.72 81.57L119.53 85.75L120.81 91.68L126.28 93.42ZM120.81 91.68L119.53 85.75L114.07 84.01L109.88 88.19L111.16 94.12L116.63 95.86ZM133.38 79.13L132.10 73.21L126.63 71.46L122.44 75.65L123.72 81.57L129.19 83.32ZM144.86 132.45L143.59 126.53L138.12 124.78L133.94 128.96L135.21 134.88L140.67 136.62ZM135.21 134.88L133.94 128.96L128.48 127.21L124.29 131.38L125.57 137.30L131.03 139.05ZM147.78 122.36L146.50 116.43L141.04 114.69L136.85 118.86L138.12 124.78L143.59 126.53ZM138.12 124.78L136.85 118.86L131.39 117.11L127.20 121.29L128.48 127.21L133.94 128.96ZM141.95 142.54L140.67 136.62L135.21 134.88L131.03 139.05L132.31 144.97L137.76 146.71ZM118.84 129.64L117.56 123.72L112.10 121.98L107.92 126.15L109.20 132.07L114.65 133.81ZM109.20 132.07L107.92 126.15L102.46 124.41L98.28 128.59L99.56 134.50L105.02 136.24ZM121.74 119.55L120.46 113.62L115.00 111.88L110.82 116.06L112.10 121.98L117.56 123.72ZM112.10 121.98L110.82 116.06L105.36 114.32L101.18 118.50L102.46 124.41L107.92 126.15ZM125.57 137.30L124.29 131.38L118.84 129.64L114.65 133.81L115.93 139.73L121.39 141.47ZM115.93 139.73L114.65 133.81L109.20 132.07L105.02 136.24L106.30 142.16L111.75 143.90ZM128.48 127.21L127.20 121.29L121.74 119.55L117.56 123.72L118.84 129.64L124.29 131.38ZM160.35 109.83L159.08 103.91L153.61 102.16L149.42 106.33L150.69 112.26L156.16 114.01ZM150.69 112.26L149.42 106.33L143.95 104.59L139.76 108.76L141.04 114.69L146.50 116.43ZM153.61 102.16L152.34 96.23L146.87 94.48L142.68 98.66L143.95 104.59L149.42 106.33ZM157.43 119.93L156.16 114.01L150.69 112.26L146.50 116.43L147.78 122.36L153.24 124.11ZM30.23 95.96L28.94 90.05L23.48 88.32L19.32 92.51L20.61 98.42L26.07 100.15ZM36.98 103.60L35.69 97.69L30.23 95.96L26.07 100.15L27.36 106.06L32.81 107.78ZM39.85 93.50L38.56 87.59L33.11 85.86L28.94 90.05L30.23 95.96L35.69 97.69ZM45.61 73.30L44.32 67.38L38.86 65.65L34.69 69.84L35.98 75.76L41.44 77.48ZM48.50 63.19L47.21 57.27L41.74 55.54L37.57 59.73L38.86 65.65L44.32 67.38ZM52.36 80.94L51.07 75.03L45.61 73.30L41.44 77.48L42.73 83.40L48.19 85.13ZM42.73 83.40L41.44 77.48L35.98 75.76L31.81 79.95L33.11 85.86L38.56 87.59ZM55.25 70.84L53.96 64.92L48.50 63.19L44.32 67.38L45.61 73.30L51.07 75.03ZM57.15 32.84L55.86 26.92L50.40 25.19L46.22 29.38L47.51 35.31L52.98 37.04ZM60.04 22.72L58.76 16.79L53.28 15.06L49.10 19.26L50.40 25.19L55.86 26.92ZM65.83 2.46L64.54 -3.47L59.07 -5.20L54.88 -1.00L56.17 4.93L61.65 6.66ZM72.59 10.13L71.31 4.19L65.83 2.46L61.65 6.66L62.94 12.59L68.41 14.32ZM75.49 -0.01L74.20 -5.94L68.73 -7.67L64.54 -3.47L65.83 2.46L71.31 4.19ZM148.68 150.21L147.41 144.29L141.95 142.54L137.76 146.71L139.04 152.63L144.50 154.38ZM46.68 194.64L45.39 188.74L39.95 187.01L35.79 191.17L37.08 197.07L42.52 198.80ZM37.08 197.07L35.79 191.17L30.35 189.44L26.20 193.61L27.49 199.51L32.93 201.24ZM49.55 184.57L48.26 178.67L42.82 176.93L38.66 181.10L39.95 187.01L45.39 188.74ZM39.95 187.01L38.66 181.10L33.22 179.37L29.07 183.55L30.35 189.44L35.79 191.17ZM53.40 202.27L52.12 196.37L46.68 194.64L42.52 198.80L43.81 204.70L49.25 206.43ZM43.81 204.70L42.52 198.80L37.08 197.07L32.93 201.24L34.21 207.14L39.65 208.87ZM56.28 192.20L54.99 186.30L49.55 184.57L45.39 188.74L46.68 194.64L52.12 196.37ZM20.76 191.89L19.47 185.99L14.03 184.26L9.88 188.43L11.17 194.33L16.61 196.06ZM11.17 194.33L9.88 188.43L4.44 186.71L0.30 190.88L1.59 196.78L7.02 198.50ZM23.62 181.82L22.34 175.92L16.89 174.19L12.74 178.36L14.03 184.26L19.47 185.99ZM14.03 184.26L12.74 178.36L7.30 176.64L3.15 180.81L4.44 186.71L9.88 188.43ZM27.49 199.51L26.20 193.61L20.76 191.89L16.61 196.06L17.90 201.95L23.34 203.68ZM17.90 201.95L16.61 196.06L11.17 194.33L7.02 198.50L8.31 204.39L13.75 206.12ZM30.35 189.44L29.07 183.55L23.62 181.82L19.47 185.99L20.76 191.89L26.20 193.61ZM62.03 172.06L60.75 166.15L55.30 164.42L51.14 168.59L52.42 174.49L57.87 176.23ZM52.42 174.49L51.14 168.59L45.69 166.86L41.53 171.03L42.82 176.93L48.26 178.67ZM64.91 161.98L63.63 156.07L58.18 154.34L54.02 158.51L55.30 164.42L60.75 166.15ZM55.30 164.42L54.02 158.51L48.57 156.78L44.41 160.96L45.69 166.86L51.14 168.59ZM68.76 179.70L67.48 173.79L62.03 172.06L57.87 176.23L59.15 182.13L64.60 183.87ZM59.15 182.13L57.87 176.23L52.42 174.49L48.26 178.67L49.55 184.57L54.99 186.30ZM71.64 169.62L70.36 163.72L64.91 161.98L60.75 166.15L62.03 172.06L67.48 173.79ZM36.09 169.30L34.80 163.40L29.36 161.67L25.20 165.84L26.49 171.75L31.93 173.47ZM26.49 171.75L25.20 165.84L19.76 164.12L15.60 168.29L16.89 174.19L22.34 175.92ZM38.96 159.22L37.67 153.32L32.23 151.59L28.07 155.77L29.36 161.67L34.80 163.40ZM29.36 161.67L28.07 155.77L22.62 154.04L18.47 158.22L19.76 164.12L25.20 165.84ZM42.82 176.93L41.53 171.03L36.09 169.30L31.93 173.47L33.22 179.37L38.66 181.10ZM33.22 179.37L31.93 173.47L26.49 171.75L22.34 175.92L23.62 181.82L29.07 183.55ZM45.69 166.86L44.41 160.96L38.96 159.22L34.80 163.40L36.09 169.30L41.53 171.03ZM57.25 219.96L55.97 214.07L50.53 212.33L46.38 216.50L47.66 222.39L53.10 224.13ZM47.66 222.39L46.38 216.50L40.94 214.76L36.78 218.93L38.07 224.82L43.51 226.55ZM60.13 209.90L58.84 204.00L53.40 202.27L49.25 206.43L50.53 212.33L55.97 214.07ZM50.53 212.33L49.25 206.43L43.81 204.70L39.65 208.87L40.94 214.76L46.38 216.50ZM63.97 227.60L62.69 221.70L57.25 219.96L53.10 224.13L54.38 230.02L59.82 231.76ZM54.38 230.02L53.10 224.13L47.66 222.39L43.51 226.55L44.79 232.45L50.23 234.18ZM66.85 217.54L65.57 211.64L60.13 209.90L55.97 214.07L57.25 219.96L62.69 221.70ZM31.35 217.20L30.06 211.30L24.62 209.57L20.48 213.74L21.76 219.63L27.20 221.36ZM21.76 219.63L20.48 213.74L15.04 212.01L10.89 216.18L12.18 222.07L17.62 223.80ZM34.21 207.14L32.93 201.24L27.49 199.51L23.34 203.68L24.62 209.57L30.06 211.30ZM24.62 209.57L23.34 203.68L17.90 201.95L13.75 206.12L15.04 212.01L20.48 213.74ZM38.07 224.82L36.78 218.93L31.35 217.20L27.20 221.36L28.48 227.26L33.92 228.99ZM28.48 227.26L27.20 221.36L21.76 219.63L17.62 223.80L18.90 229.69L24.34 231.42ZM40.94 214.76L39.65 208.87L34.21 207.14L30.06 211.30L31.35 217.20L36.78 218.93ZM72.61 197.41L71.33 191.51L65.88 189.77L61.72 193.94L63.00 199.84L68.45 201.57ZM63.00 199.84L61.72 193.94L56.28 192.20L52.12 196.37L53.40 202.27L58.84 204.00ZM75.49 187.34L74.21 181.43L68.76 179.70L64.60 183.87L65.88 189.77L71.33 191.51ZM65.88 189.77L64.60 183.87L59.15 182.13L54.99 186.30L56.28 192.20L61.72 193.94ZM79.33 205.05L78.05 199.15L72.61 197.41L68.45 201.57L69.73 207.47L75.17 209.21ZM69.73 207.47L68.45 201.57L63.00 199.84L58.84 204.00L60.13 209.90L65.57 211.64ZM82.22 194.98L80.94 189.08L75.49 187.34L71.33 191.51L72.61 197.41L78.05 199.15ZM5.46 214.45L4.17 208.56L-1.27 206.84L-5.41 211.01L-4.12 216.90L1.31 218.62ZM8.31 204.39L7.02 198.50L1.59 196.78L-2.56 200.95L-1.27 206.84L4.17 208.56ZM12.18 222.07L10.89 216.18L5.46 214.45L1.31 218.62L2.60 224.51L8.04 226.24ZM15.04 212.01L13.75 206.12L8.31 204.39L4.17 208.56L5.46 214.45L10.89 216.18ZM66.83 124.08L65.54 118.17L60.09 116.43L55.92 120.61L57.20 126.53L62.66 128.26ZM57.20 126.53L55.92 120.61L50.46 118.88L46.30 123.06L47.58 128.97L53.04 130.70ZM69.71 113.99L68.43 108.07L62.97 106.34L58.80 110.52L60.09 116.43L65.54 118.17ZM60.09 116.43L58.80 110.52L53.34 108.79L49.18 112.97L50.46 118.88L55.92 120.61ZM73.57 131.73L72.28 125.82L66.83 124.08L62.66 128.26L63.94 134.17L69.40 135.90ZM63.94 134.17L62.66 128.26L57.20 126.53L53.04 130.70L54.32 136.61L59.77 138.35ZM76.45 121.64L75.17 115.72L69.71 113.99L65.54 118.17L66.83 124.08L72.28 125.82ZM40.84 121.33L39.56 115.42L34.10 113.70L29.94 117.88L31.23 123.79L36.68 125.51ZM31.23 123.79L29.94 117.88L24.49 116.15L20.33 120.33L21.62 126.24L27.07 127.97ZM43.72 111.24L42.43 105.33L36.98 103.60L32.81 107.78L34.10 113.70L39.56 115.42ZM34.10 113.70L32.81 107.78L27.36 106.06L23.20 110.24L24.49 116.15L29.94 117.88ZM47.58 128.97L46.30 123.06L40.84 121.33L36.68 125.51L37.97 131.42L43.42 133.15ZM37.97 131.42L36.68 125.51L31.23 123.79L27.07 127.97L28.36 133.87L33.81 135.60ZM50.46 118.88L49.18 112.97L43.72 111.24L39.56 115.42L40.84 121.33L46.30 123.06ZM82.24 101.44L80.95 95.53L75.49 93.79L71.32 97.97L72.60 103.89L78.06 105.63ZM72.60 103.89L71.32 97.97L65.86 96.24L61.68 100.42L62.97 106.34L68.43 108.07ZM85.13 91.34L83.85 85.42L78.38 83.69L74.21 87.87L75.49 93.79L80.95 95.53ZM75.49 93.79L74.21 87.87L68.74 86.14L64.57 90.32L65.86 96.24L71.32 97.97ZM88.98 109.10L87.70 103.18L82.24 101.44L78.06 105.63L79.34 111.54L84.80 113.28ZM79.34 111.54L78.06 105.63L72.60 103.89L68.43 108.07L69.71 113.99L75.17 115.72ZM91.87 99.00L90.59 93.08L85.13 91.34L80.95 95.53L82.24 101.44L87.70 103.18ZM56.23 98.69L54.94 92.78L49.48 91.05L45.31 95.23L46.60 101.15L52.06 102.88ZM46.60 101.15L45.31 95.23L39.85 93.50L35.69 97.69L36.98 103.60L42.43 105.33ZM59.11 88.59L57.82 82.67L52.36 80.94L48.19 85.13L49.48 91.05L54.94 92.78ZM49.48 91.05L48.19 85.13L42.73 83.40L38.56 87.59L39.85 93.50L45.31 95.23ZM62.97 106.34L61.68 100.42L56.23 98.69L52.06 102.88L53.34 108.79L58.80 110.52ZM53.34 108.79L52.06 102.88L46.60 101.15L42.43 105.33L43.72 111.24L49.18 112.97ZM65.86 96.24L64.57 90.32L59.11 88.59L54.94 92.78L56.23 98.69L61.68 100.42ZM77.41 149.46L76.13 143.55L70.68 141.82L66.51 145.99L67.80 151.90L73.25 153.64ZM67.80 151.90L66.51 145.99L61.06 144.26L56.89 148.43L58.18 154.34L63.63 156.07ZM80.30 139.38L79.02 133.46L73.57 131.73L69.40 135.90L70.68 141.82L76.13 143.55ZM70.68 141.82L69.40 135.90L63.94 134.17L59.77 138.35L61.06 144.26L66.51 145.99ZM84.15 157.11L82.87 151.20L77.41 149.46L73.25 153.64L74.53 159.54L79.98 161.28ZM74.53 159.54L73.25 153.64L67.80 151.90L63.63 156.07L64.91 161.98L70.36 163.72ZM87.04 147.03L85.76 141.11L80.30 139.38L76.13 143.55L77.41 149.46L82.87 151.20ZM51.44 146.70L50.16 140.79L44.71 139.06L40.55 143.24L41.83 149.14L47.28 150.88ZM41.83 149.14L40.55 143.24L35.10 141.51L30.94 145.69L32.23 151.59L37.67 153.32ZM54.32 136.61L53.04 130.70L47.58 128.97L43.42 133.15L44.71 139.06L50.16 140.79ZM44.71 139.06L43.42 133.15L37.97 131.42L33.81 135.60L35.10 141.51L40.55 143.24ZM58.18 154.34L56.89 148.43L51.44 146.70L47.28 150.88L48.57 156.78L54.02 158.51ZM48.57 156.78L47.28 150.88L41.83 149.14L37.67 153.32L38.96 159.22L44.41 160.96ZM61.06 144.26L59.77 138.35L54.32 136.61L50.16 140.79L51.44 146.70L56.89 148.43ZM92.82 126.85L91.54 120.93L86.08 119.20L81.91 123.37L83.19 129.29L88.65 131.03ZM83.19 129.29L81.91 123.37L76.45 121.64L72.28 125.82L73.57 131.73L79.02 133.46ZM95.72 116.76L94.44 110.84L88.98 109.10L84.80 113.28L86.08 119.20L91.54 120.93ZM86.08 119.20L84.80 113.28L79.34 111.54L75.17 115.72L76.45 121.64L81.91 123.37ZM99.56 134.50L98.28 128.59L92.82 126.85L88.65 131.03L89.93 136.94L95.39 138.68ZM89.93 136.94L88.65 131.03L83.19 129.29L79.02 133.46L80.30 139.38L85.76 141.11ZM102.46 124.41L101.18 118.50L95.72 116.76L91.54 120.93L92.82 126.85L98.28 128.59ZM16.89 174.19L15.60 168.29L10.16 166.57L6.01 170.74L7.30 176.64L12.74 178.36ZM19.76 164.12L18.47 158.22L13.02 156.49L8.87 160.67L10.16 166.57L15.60 168.29ZM25.49 143.96L24.20 138.05L18.75 136.33L14.59 140.51L15.89 146.41L21.33 148.14ZM28.36 133.87L27.07 127.97L21.62 126.24L17.46 130.42L18.75 136.33L24.20 138.05ZM32.23 151.59L30.94 145.69L25.49 143.96L21.33 148.14L22.62 154.04L28.07 155.77ZM22.62 154.04L21.33 148.14L15.89 146.41L11.73 150.59L13.02 156.49L18.47 158.22ZM35.10 141.51L33.81 135.60L28.36 133.87L24.20 138.05L25.49 143.96L30.94 145.69ZM93.72 248.09L92.44 242.19L87.01 240.45L82.85 244.60L84.12 250.50L89.56 252.24ZM84.12 250.50L82.85 244.60L77.41 242.86L73.25 247.02L74.53 252.92L79.97 254.66ZM96.61 238.03L95.33 232.13L89.89 230.39L85.73 234.55L87.01 240.45L92.44 242.19ZM87.01 240.45L85.73 234.55L80.29 232.81L76.13 236.97L77.41 242.86L82.85 244.60ZM100.43 255.73L99.16 249.83L93.72 248.09L89.56 252.24L90.84 258.14L96.27 259.88ZM90.84 258.14L89.56 252.24L84.12 250.50L79.97 254.66L81.24 260.55L86.68 262.29ZM103.32 245.67L102.05 239.78L96.61 238.03L92.44 242.19L93.72 248.09L99.16 249.83ZM67.81 245.28L66.53 239.39L61.10 237.65L56.94 241.81L58.23 247.70L63.66 249.44ZM58.23 247.70L56.94 241.81L51.51 240.08L47.36 244.24L48.64 250.13L54.07 251.86ZM70.69 235.23L69.41 229.33L63.97 227.60L59.82 231.76L61.10 237.65L66.53 239.39ZM61.10 237.65L59.82 231.76L54.38 230.02L50.23 234.18L51.51 240.08L56.94 241.81ZM74.53 252.92L73.25 247.02L67.81 245.28L63.66 249.44L64.94 255.33L70.37 257.07ZM64.94 255.33L63.66 249.44L58.23 247.70L54.07 251.86L55.35 257.75L60.79 259.49ZM77.41 242.86L76.13 236.97L70.69 235.23L66.53 239.39L67.81 245.28L73.25 247.02ZM109.10 225.56L107.83 219.66L102.38 217.91L98.22 222.07L99.49 227.97L104.94 229.72ZM99.49 227.97L98.22 222.07L92.78 220.33L88.61 224.49L89.89 230.39L95.33 232.13ZM112.00 215.50L110.72 209.59L105.28 207.85L101.11 212.01L102.38 217.91L107.83 219.66ZM102.38 217.91L101.11 212.01L95.66 210.27L91.50 214.43L92.78 220.33L98.22 222.07ZM115.82 233.21L114.55 227.31L109.10 225.56L104.94 229.72L106.21 235.62L111.65 237.36ZM106.21 235.62L104.94 229.72L99.49 227.97L95.33 232.13L96.61 238.03L102.05 239.78ZM118.72 223.15L117.44 217.24L112.00 215.50L107.83 219.66L109.10 225.56L114.55 227.31ZM83.17 222.75L81.89 216.85L76.45 215.11L72.29 219.27L73.57 225.17L79.01 226.91ZM73.57 225.17L72.29 219.27L66.85 217.54L62.69 221.70L63.97 227.60L69.41 229.33ZM86.05 212.69L84.78 206.79L79.33 205.05L75.17 209.21L76.45 215.11L81.89 216.85ZM76.45 215.11L75.17 209.21L69.73 207.47L65.57 211.64L66.85 217.54L72.29 219.27ZM89.89 230.39L88.61 224.49L83.17 222.75L79.01 226.91L80.29 232.81L85.73 234.55ZM80.29 232.81L79.01 226.91L73.57 225.17L69.41 229.33L70.69 235.23L76.13 236.97ZM92.78 220.33L91.50 214.43L86.05 212.69L81.89 216.85L83.17 222.75L88.61 224.49ZM107.15 263.37L105.87 257.47L100.43 255.73L96.27 259.88L97.55 265.78L102.98 267.52ZM81.24 260.55L79.97 254.66L74.53 252.92L70.37 257.07L71.65 262.96L77.09 264.70ZM71.65 262.96L70.37 257.07L64.94 255.33L60.79 259.49L62.07 265.38L67.50 267.12ZM110.04 253.32L108.76 247.42L103.32 245.67L99.16 249.83L100.43 255.73L105.87 257.47ZM122.54 240.86L121.26 234.95L115.82 233.21L111.65 237.36L112.93 243.26L118.37 245.01ZM112.93 243.26L111.65 237.36L106.21 235.62L102.05 239.78L103.32 245.67L108.76 247.42ZM29.48 254.98L28.20 249.09L22.76 247.36L18.62 251.52L19.91 257.41L25.34 259.14ZM19.91 257.41L18.62 251.52L13.19 249.79L9.05 253.95L10.34 259.84L15.76 261.57ZM36.19 262.60L34.91 256.71L29.48 254.98L25.34 259.14L26.62 265.02L32.05 266.75ZM0.77 262.27L-0.52 256.39L-5.95 254.66L-10.08 258.82L-8.79 264.70L-3.37 266.43ZM3.62 252.23L2.33 246.34L-3.10 244.61L-7.24 248.78L-5.95 254.66L-0.52 256.39ZM10.34 259.84L9.05 253.95L3.62 252.23L-0.52 256.39L0.77 262.27L6.20 264.00ZM41.92 242.50L40.64 236.61L35.20 234.88L31.06 239.04L32.34 244.93L37.77 246.66ZM32.34 244.93L31.06 239.04L25.62 237.31L21.48 241.47L22.76 247.36L28.20 249.09ZM44.79 232.45L43.51 226.55L38.07 224.82L33.92 228.99L35.20 234.88L40.64 236.61ZM35.20 234.88L33.92 228.99L28.48 227.26L24.34 231.42L25.62 237.31L31.06 239.04ZM48.64 250.13L47.36 244.24L41.92 242.50L37.77 246.66L39.06 252.55L44.49 254.28ZM39.06 252.55L37.77 246.66L32.34 244.93L28.20 249.09L29.48 254.98L34.91 256.71ZM51.51 240.08L50.23 234.18L44.79 232.45L40.64 236.61L41.92 242.50L47.36 244.24ZM16.05 239.74L14.76 233.85L9.33 232.13L5.18 236.29L6.47 242.18L11.90 243.90ZM6.47 242.18L5.18 236.29L-0.25 234.56L-4.39 238.73L-3.10 244.61L2.33 246.34ZM18.90 229.69L17.62 223.80L12.18 222.07L8.04 226.24L9.33 232.13L14.76 233.85ZM9.33 232.13L8.04 226.24L2.60 224.51L-1.54 228.68L-0.25 234.56L5.18 236.29ZM22.76 247.36L21.48 241.47L16.05 239.74L11.90 243.90L13.19 249.79L18.62 251.52ZM13.19 249.79L11.90 243.90L6.47 242.18L2.33 246.34L3.62 252.23L9.05 253.95ZM25.62 237.31L24.34 231.42L18.90 229.69L14.76 233.85L16.05 239.74L21.48 241.47ZM55.35 257.75L54.07 251.86L48.64 250.13L44.49 254.28L45.77 260.17L51.20 261.91ZM45.77 260.17L44.49 254.28L39.06 252.55L34.91 256.71L36.19 262.60L41.63 264.33ZM113.96 177.64L112.69 171.72L107.23 169.98L103.06 174.15L104.34 180.06L109.79 181.80ZM104.34 180.06L103.06 174.15L97.61 172.41L93.44 176.58L94.72 182.48L100.17 184.22ZM116.86 167.56L115.58 161.64L110.13 159.90L105.96 164.07L107.23 169.98L112.69 171.72ZM107.23 169.98L105.96 164.07L100.50 162.33L96.33 166.50L97.61 172.41L103.06 174.15ZM120.69 185.29L119.41 179.38L113.96 177.64L109.79 181.80L111.06 187.71L116.51 189.45ZM111.06 187.71L109.79 181.80L104.34 180.06L100.17 184.22L101.44 190.13L106.89 191.87ZM123.59 175.21L122.31 169.30L116.86 167.56L112.69 171.72L113.96 177.64L119.41 179.38ZM87.99 174.84L86.71 168.93L81.26 167.19L77.09 171.36L78.37 177.27L83.82 179.00ZM78.37 177.27L77.09 171.36L71.64 169.62L67.48 173.79L68.76 179.70L74.21 181.43ZM90.88 164.76L89.60 158.85L84.15 157.11L79.98 161.28L81.26 167.19L86.71 168.93ZM81.26 167.19L79.98 161.28L74.53 159.54L70.36 163.72L71.64 169.62L77.09 171.36ZM94.72 182.48L93.44 176.58L87.99 174.84L83.82 179.00L85.10 184.91L90.55 186.65ZM85.10 184.91L83.82 179.00L78.37 177.27L74.21 181.43L75.49 187.34L80.94 189.08ZM97.61 172.41L96.33 166.50L90.88 164.76L86.71 168.93L87.99 174.84L93.44 176.58ZM129.40 155.05L128.12 149.14L122.67 147.39L118.49 151.56L119.76 157.48L125.22 159.22ZM119.76 157.48L118.49 151.56L113.03 149.82L108.85 153.99L110.13 159.90L115.58 161.64ZM132.31 144.97L131.03 139.05L125.57 137.30L121.39 141.47L122.67 147.39L128.12 149.14ZM122.67 147.39L121.39 141.47L115.93 139.73L111.75 143.90L113.03 149.82L118.49 151.56ZM136.13 162.71L134.85 156.80L129.40 155.05L125.22 159.22L126.49 165.13L131.95 166.88ZM126.49 165.13L125.22 159.22L119.76 157.48L115.58 161.64L116.86 167.56L122.31 169.30ZM139.04 152.63L137.76 146.71L132.31 144.97L128.12 149.14L129.40 155.05L134.85 156.80ZM103.40 152.25L102.12 146.33L96.67 144.59L92.49 148.76L93.77 154.68L99.22 156.42ZM93.77 154.68L92.49 148.76L87.04 147.03L82.87 151.20L84.15 157.11L89.60 158.85ZM106.30 142.16L105.02 136.24L99.56 134.50L95.39 138.68L96.67 144.59L102.12 146.33ZM96.67 144.59L95.39 138.68L89.93 136.94L85.76 141.11L87.04 147.03L92.49 148.76ZM110.13 159.90L108.85 153.99L103.40 152.25L99.22 156.42L100.50 162.33L105.96 164.07ZM100.50 162.33L99.22 156.42L93.77 154.68L89.60 158.85L90.88 164.76L96.33 166.50ZM113.03 149.82L111.75 143.90L106.30 142.16L102.12 146.33L103.40 152.25L108.85 153.99ZM124.51 203.02L123.24 197.11L117.79 195.36L113.62 199.53L114.89 205.43L120.34 207.18ZM114.89 205.43L113.62 199.53L108.17 197.78L104.00 201.94L105.28 207.85L110.72 209.59ZM127.41 192.95L126.14 187.04L120.69 185.29L116.51 189.45L117.79 195.36L123.24 197.11ZM117.79 195.36L116.51 189.45L111.06 187.71L106.89 191.87L108.17 197.78L113.62 199.53ZM121.61 213.08L120.34 207.18L114.89 205.43L110.72 209.59L112.00 215.50L117.44 217.24ZM98.55 200.20L97.28 194.30L91.83 192.56L87.66 196.72L88.94 202.62L94.39 204.36ZM88.94 202.62L87.66 196.72L82.22 194.98L78.05 199.15L79.33 205.05L84.78 206.79ZM101.44 190.13L100.17 184.22L94.72 182.48L90.55 186.65L91.83 192.56L97.28 194.30ZM91.83 192.56L90.55 186.65L85.10 184.91L80.94 189.08L82.22 194.98L87.66 196.72ZM105.28 207.85L104.00 201.94L98.55 200.20L94.39 204.36L95.66 210.27L101.11 212.01ZM95.66 210.27L94.39 204.36L88.94 202.62L84.78 206.79L86.05 212.69L91.50 214.43ZM108.17 197.78L106.89 191.87L101.44 190.13L97.28 194.30L98.55 200.20L104.00 201.94ZM130.32 182.87L129.04 176.96L123.59 175.21L119.41 179.38L120.69 185.29L126.14 187.04ZM133.22 172.80L131.95 166.88L126.49 165.13L122.31 169.30L123.59 175.21L129.04 176.96Z"/><path data-band="3" fill="#dc2626" fill-opacity="0.35" d="M51.38 53.08L50.09 47.15L44.62 45.43L40.45 49.62L41.74 55.54L47.21 57.27ZM1.19 9.68L-0.11 3.75L-5.58 2.04L-9.75 6.24L-8.45 12.16L-2.98 13.88ZM5.08 27.44L3.78 21.52L-1.68 19.80L-5.85 24.00L-4.55 29.92L0.91 31.64ZM7.95 17.32L6.65 11.39L1.19 9.68L-2.98 13.88L-1.68 19.80L3.78 21.52ZM19.61 70.58L18.31 64.67L12.85 62.94L8.69 67.14L9.98 73.05L15.44 74.77ZM9.98 73.05L8.69 67.14L3.23 65.41L-0.93 69.61L0.37 75.52L5.82 77.24ZM22.48 60.47L21.19 54.56L15.72 52.83L11.56 57.03L12.85 62.94L18.31 64.67ZM12.85 62.94L11.56 57.03L6.10 55.31L1.93 59.50L3.23 65.41L8.69 67.14ZM26.36 78.22L25.06 72.31L19.61 70.58L15.44 74.77L16.73 80.69L22.19 82.41ZM16.73 80.69L15.44 74.77L9.98 73.05L5.82 77.24L7.12 83.15L12.57 84.88ZM29.23 68.11L27.94 62.20L22.48 60.47L18.31 64.67L19.61 70.58L25.06 72.31ZM0.37 75.52L-0.93 69.61L-6.39 67.89L-10.55 72.08L-9.25 77.99L-3.79 79.71ZM3.23 65.41L1.93 59.50L-3.52 57.78L-7.68 61.98L-6.39 67.89L-0.93 69.61ZM34.99 47.89L33.69 41.97L28.23 40.25L24.06 44.44L25.35 50.36L30.82 52.09ZM25.35 50.36L24.06 44.44L18.60 42.72L14.43 46.92L15.72 52.83L21.19 54.56ZM37.87 37.78L36.58 31.85L31.11 30.13L26.94 34.33L28.23 40.25L33.69 41.97ZM28.23 40.25L26.94 34.33L21.47 32.60L17.30 36.80L18.60 42.72L24.06 44.44ZM41.74 55.54L40.45 49.62L34.99 47.89L30.82 52.09L32.11 58.01L37.57 59.73ZM32.11 58.01L30.82 52.09L25.35 50.36L21.19 54.56L22.48 60.47L27.94 62.20ZM44.62 45.43L43.33 39.50L37.87 37.78L33.69 41.97L34.99 47.89L40.45 49.62ZM8.97 45.19L7.67 39.28L2.21 37.56L-1.96 41.75L-0.66 47.67L4.80 49.39ZM11.84 35.08L10.54 29.16L5.08 27.44L0.91 31.64L2.21 37.56L7.67 39.28ZM2.21 37.56L0.91 31.64L-4.55 29.92L-8.71 34.12L-7.42 40.04L-1.96 41.75ZM15.72 52.83L14.43 46.92L8.97 45.19L4.80 49.39L6.10 55.31L11.56 57.03ZM6.10 55.31L4.80 49.39L-0.66 47.67L-4.82 51.87L-3.52 57.78L1.93 59.50ZM18.60 42.72L17.30 36.80L11.84 35.08L7.67 39.28L8.97 45.19L14.43 46.92ZM20.61 98.42L19.32 92.51L13.87 90.79L9.70 94.97L11.00 100.88L16.45 102.61ZM33.11 85.86L31.81 79.95L26.36 78.22L22.19 82.41L23.48 88.32L28.94 90.05ZM23.48 88.32L22.19 82.41L16.73 80.69L12.57 84.88L13.87 90.79L19.32 92.51ZM27.36 106.06L26.07 100.15L20.61 98.42L16.45 102.61L17.74 108.52L23.20 110.24ZM4.25 93.25L2.96 87.34L-2.50 85.62L-6.66 89.81L-5.36 95.72L0.09 97.44ZM7.12 83.15L5.82 77.24L0.37 75.52L-3.79 79.71L-2.50 85.62L2.96 87.34ZM11.00 100.88L9.70 94.97L4.25 93.25L0.09 97.44L1.39 103.35L6.84 105.07ZM1.39 103.35L0.09 97.44L-5.36 95.72L-9.52 99.91L-8.22 105.82L-2.77 107.54ZM13.87 90.79L12.57 84.88L7.12 83.15L2.96 87.34L4.25 93.25L9.70 94.97ZM35.98 75.76L34.69 69.84L29.23 68.11L25.06 72.31L26.36 78.22L31.81 79.95ZM38.86 65.65L37.57 59.73L32.11 58.01L27.94 62.20L29.23 68.11L34.69 69.84ZM39.76 -0.25L38.46 -6.18L32.99 -7.90L28.81 -3.70L30.11 2.23L35.58 3.95ZM30.11 2.23L28.81 -3.70L23.34 -5.42L19.17 -1.22L20.46 4.71L25.93 6.43ZM46.52 7.41L45.23 1.48L39.76 -0.25L35.58 3.95L36.87 9.88L42.34 11.61ZM36.87 9.88L35.58 3.95L30.11 2.23L25.93 6.43L27.23 12.36L32.70 14.08ZM49.41 -2.72L48.12 -8.65L42.64 -10.38L38.46 -6.18L39.76 -0.25L45.23 1.48ZM13.70 -2.94L12.40 -8.86L6.93 -10.58L2.76 -6.38L4.06 -0.45L9.53 1.27ZM4.06 -0.45L2.76 -6.38L-2.71 -8.09L-6.88 -3.89L-5.58 2.04L-0.11 3.75ZM20.46 4.71L19.17 -1.22L13.70 -2.94L9.53 1.27L10.82 7.19L16.29 8.91ZM10.82 7.19L9.53 1.27L4.06 -0.45L-0.11 3.75L1.19 9.68L6.65 11.39ZM50.40 25.19L49.10 19.26L43.63 17.53L39.46 21.73L40.75 27.66L46.22 29.38ZM40.75 27.66L39.46 21.73L33.99 20.01L29.82 24.21L31.11 30.13L36.58 31.85ZM53.28 15.06L51.99 9.13L46.52 7.41L42.34 11.61L43.63 17.53L49.10 19.26ZM43.63 17.53L42.34 11.61L36.87 9.88L32.70 14.08L33.99 20.01L39.46 21.73ZM47.51 35.31L46.22 29.38L40.75 27.66L36.58 31.85L37.87 37.78L43.33 39.50ZM24.35 22.48L23.05 16.56L17.59 14.84L13.42 19.04L14.71 24.96L20.18 26.68ZM14.71 24.96L13.42 19.04L7.95 17.32L3.78 21.52L5.08 27.44L10.54 29.16ZM27.23 12.36L25.93 6.43L20.46 4.71L16.29 8.91L17.59 14.84L23.05 16.56ZM17.59 14.84L16.29 8.91L10.82 7.19L6.65 11.39L7.95 17.32L13.42 19.04ZM31.11 30.13L29.82 24.21L24.35 22.48L20.18 26.68L21.47 32.60L26.94 34.33ZM21.47 32.60L20.18 26.68L14.71 24.96L10.54 29.16L11.84 35.08L17.30 36.80ZM33.99 20.01L32.70 14.08L27.23 12.36L23.05 16.56L24.35 22.48L29.82 24.21ZM56.17 4.93L54.88 -1.00L49.41 -2.72L45.23 1.48L46.52 7.41L51.99 9.13ZM62.94 12.59L61.65 6.66L56.17 4.93L51.99 9.13L53.28 15.06L58.76 16.79ZM1.59 196.78L0.30 190.88L-5.14 189.16L-9.29 193.33L-7.99 199.22L-2.56 200.95ZM4.44 186.71L3.15 180.81L-2.29 179.09L-6.43 183.26L-5.14 189.16L0.30 190.88ZM2.60 224.51L1.31 218.62L-4.12 216.90L-8.26 221.06L-6.97 226.95L-1.54 228.68ZM2.41 131.16L1.11 125.25L-4.33 123.53L-8.49 127.71L-7.19 133.62L-1.75 135.34ZM6.29 148.87L4.99 142.96L-0.45 141.24L-4.60 145.42L-3.31 151.32L2.13 153.04ZM9.15 138.78L7.86 132.88L2.41 131.16L-1.75 135.34L-0.45 141.24L4.99 142.96ZM14.88 118.61L13.58 112.70L8.13 110.98L3.98 115.16L5.27 121.07L10.72 122.79ZM5.27 121.07L3.98 115.16L-1.47 113.44L-5.63 117.63L-4.33 123.53L1.11 125.25ZM17.74 108.52L16.45 102.61L11.00 100.88L6.84 105.07L8.13 110.98L13.58 112.70ZM8.13 110.98L6.84 105.07L1.39 103.35L-2.77 107.54L-1.47 113.44L3.98 115.16ZM21.62 126.24L20.33 120.33L14.88 118.61L10.72 122.79L12.01 128.70L17.46 130.42ZM12.01 128.70L10.72 122.79L5.27 121.07L1.11 125.25L2.41 131.16L7.86 132.88ZM24.49 116.15L23.20 110.24L17.74 108.52L13.58 112.70L14.88 118.61L20.33 120.33ZM10.16 166.57L8.87 160.67L3.43 158.94L-0.72 163.12L0.57 169.02L6.01 170.74ZM0.57 169.02L-0.72 163.12L-6.17 161.40L-10.31 165.58L-9.02 171.47L-3.58 173.19ZM13.02 156.49L11.73 150.59L6.29 148.87L2.13 153.04L3.43 158.94L8.87 160.67ZM3.43 158.94L2.13 153.04L-3.31 151.32L-7.46 155.50L-6.17 161.40L-0.72 163.12ZM7.30 176.64L6.01 170.74L0.57 169.02L-3.58 173.19L-2.29 179.09L3.15 180.81ZM15.89 146.41L14.59 140.51L9.15 138.78L4.99 142.96L6.29 148.87L11.73 150.59ZM18.75 136.33L17.46 130.42L12.01 128.70L7.86 132.88L9.15 138.78L14.59 140.51Z"/></svg>
