<svg xmlns="http://www.w3.org/2000/svg" width="256" height="256" viewBox="0 0 256 256"><path data-band="1" fill="#fde68a" fill-opacity="0.35" d="M171.53 0.63L170.26 -5.28L164.81 -7.04L160.64 -2.89L161.90 3.02L167.35 4.77ZM161.90 3.02L160.64 -2.89L155.19 -4.64L151.02 -0.49L152.29 5.41L157.73 7.17ZM178.23 8.29L176.97 2.38L171.53 0.63L167.35 4.77L168.61 10.68L174.06 12.44ZM168.61 10.68L167.35 4.77L161.90 3.02L157.73 7.17L159.00 13.07L164.44 14.83ZM181.15 -1.76L179.89 -7.67L174.44 -9.43L170.26 -5.28L171.53 0.63L176.97 2.38ZM145.58 -2.24L144.31 -8.15L138.86 -9.90L134.69 -5.74L135.96 0.16L141.40 1.91ZM135.96 0.16L134.69 -5.74L129.25 -7.49L125.08 -3.34L126.35 2.56L131.79 4.31ZM152.29 5.41L151.02 -0.49L145.58 -2.24L141.40 1.91L142.67 7.81L148.11 9.56ZM142.67 7.81L141.40 1.91L135.96 0.16L131.79 4.31L133.06 10.21L138.50 11.96ZM239.81 11.73L238.56 5.82L233.11 4.05L228.91 8.20L230.17 14.11L235.62 15.88ZM242.75 1.68L241.49 -4.24L236.04 -6.00L231.85 -1.86L233.11 4.05L238.56 5.82ZM207.98 28.91L206.72 23.00L201.27 21.24L197.09 25.38L198.35 31.28L203.79 33.05ZM198.35 31.28L197.09 25.38L191.65 23.62L187.47 27.76L188.73 33.66L194.17 35.43ZM210.90 18.86L209.64 12.95L204.20 11.19L200.01 15.33L201.27 21.24L206.72 23.00ZM201.27 21.24L200.01 15.33L194.57 13.57L190.38 17.71L191.65 23.62L197.09 25.38ZM214.68 36.58L213.42 30.67L207.98 28.91L203.79 33.05L205.05 38.95L210.49 40.72ZM205.05 38.95L203.79 33.05L198.35 31.28L194.17 35.43L195.43 41.33L200.87 43.09ZM217.61 26.53L216.35 20.62L210.90 18.86L206.72 23.00L207.98 28.91L213.42 30.67ZM182.03 26.00L180.76 20.10L175.32 18.34L171.14 22.48L172.41 28.39L177.85 30.14ZM172.41 28.39L171.14 22.48L165.70 20.73L161.53 24.87L162.79 30.77L168.23 32.53ZM184.94 15.95L183.68 10.05L178.23 8.29L174.06 12.44L175.32 18.34L180.76 20.10ZM175.32 18.34L174.06 12.44L168.61 10.68L164.44 14.83L165.70 20.73L171.14 22.48ZM188.73 33.66L187.47 27.76L182.03 26.00L177.85 30.14L179.11 36.05L184.55 37.80ZM179.11 36.05L177.85 30.14L172.41 28.39L168.23 32.53L169.50 38.43L174.94 40.19ZM191.65 23.62L190.38 17.71L184.94 15.95L180.76 20.10L182.03 26.00L187.47 27.76ZM223.47 6.43L222.21 0.52L216.76 -1.25L212.57 2.90L213.83 8.81L219.28 10.57ZM213.83 8.81L212.57 2.90L207.12 1.13L202.93 5.28L204.20 11.19L209.64 12.95ZM226.40 -3.63L225.14 -9.54L219.69 -11.31L215.50 -7.16L216.76 -1.25L222.21 0.52ZM216.76 -1.25L215.50 -7.16L210.05 -8.92L205.86 -4.78L207.12 1.13L212.57 2.90ZM230.17 14.11L228.91 8.20L223.47 6.43L219.28 10.57L220.53 16.48L225.98 18.25ZM220.53 16.48L219.28 10.57L213.83 8.81L209.64 12.95L210.90 18.86L216.35 20.62ZM233.11 4.05L231.85 -1.86L226.40 -3.63L222.21 0.52L223.47 6.43L228.91 8.20ZM197.49 3.52L196.23 -2.39L190.78 -4.15L186.60 0.00L187.86 5.90L193.30 7.66ZM187.86 5.90L186.60 0.00L181.15 -1.76L176.97 2.38L178.23 8.29L183.68 10.05ZM204.20 11.19L202.93 5.28L197.49 3.52L193.30 7.66L194.57 13.57L200.01 15.33ZM194.57 13.57L193.30 7.66L187.86 5.90L183.68 10.05L184.94 15.95L190.38 17.71ZM207.12 1.13L205.86 -4.78L200.41 -6.54L196.23 -2.39L197.49 3.52L202.93 5.28ZM218.45 54.29L217.19 48.39L211.75 46.62L207.57 50.76L208.83 56.66L214.27 58.42ZM208.83 56.66L207.57 50.76L202.13 48.99L197.95 53.13L199.21 59.03L204.65 60.79ZM221.38 44.25L220.12 38.34L214.68 36.58L210.49 40.72L211.75 46.62L217.19 48.39ZM211.75 46.62L210.49 40.72L205.05 38.95L200.87 43.09L202.13 48.99L207.57 50.76ZM225.15 61.96L223.89 56.06L218.45 54.29L214.27 58.42L215.53 64.33L220.97 66.09ZM215.53 64.33L214.27 58.42L208.83 56.66L204.65 60.79L205.91 66.69L211.35 68.46ZM228.08 51.92L226.82 46.02L221.38 44.25L217.19 48.39L218.45 54.29L223.89 56.06ZM192.51 51.37L191.25 45.47L185.81 43.71L181.64 47.85L182.90 53.74L188.34 55.51ZM182.90 53.74L181.64 47.85L176.20 46.09L172.03 50.23L173.29 56.12L178.73 57.88ZM195.43 41.33L194.17 35.43L188.73 33.66L184.55 37.80L185.81 43.71L191.25 45.47ZM185.81 43.71L184.55 37.80L179.11 36.05L174.94 40.19L176.20 46.09L181.64 47.85ZM199.21 59.03L197.95 53.13L192.51 51.37L188.34 55.51L189.60 61.40L195.03 63.17ZM189.60 61.40L188.34 55.51L182.90 53.74L178.73 57.88L179.99 63.78L185.42 65.54ZM202.13 48.99L200.87 43.09L195.43 41.33L191.25 45.47L192.51 51.37L197.95 53.13ZM233.94 31.83L232.68 25.93L227.24 24.16L223.05 28.30L224.31 34.20L229.75 35.97ZM224.31 34.20L223.05 28.30L217.61 26.53L213.42 30.67L214.68 36.58L220.12 38.34ZM236.88 21.79L235.62 15.88L230.17 14.11L225.98 18.25L227.24 24.16L232.68 25.93ZM227.24 24.16L225.98 18.25L220.53 16.48L216.35 20.62L217.61 26.53L223.05 28.30ZM231.01 41.88L229.75 35.97L224.31 34.20L220.12 38.34L221.38 44.25L226.82 46.02ZM243.58 29.47L242.32 23.56L236.88 21.79L232.68 25.93L233.94 31.83L239.39 33.60ZM113.86 15.01L112.58 9.11L107.15 7.37L102.98 11.52L104.26 17.41L109.69 19.16ZM126.35 2.56L125.08 -3.34L119.64 -5.09L115.47 -0.94L116.75 4.96L122.19 6.71ZM116.75 4.96L115.47 -0.94L110.04 -2.68L105.87 1.47L107.15 7.37L112.58 9.11ZM208.47 149.80L207.21 143.91L201.79 142.14L197.62 146.26L198.88 152.15L204.30 153.92ZM198.88 152.15L197.62 146.26L192.20 144.50L188.03 148.62L189.29 154.50L194.71 156.27ZM201.79 142.14L200.53 136.25L195.11 134.49L190.94 138.61L192.20 144.50L197.62 146.26ZM205.55 159.80L204.30 153.92L198.88 152.15L194.71 156.27L195.97 162.15L201.39 163.92ZM214.30 129.77L213.05 123.88L207.62 122.12L203.44 126.24L204.70 132.13L210.13 133.90ZM217.22 119.76L215.96 113.87L210.53 112.10L206.36 116.22L207.62 122.12L213.05 123.88ZM228.91 79.66L227.66 73.76L222.22 71.99L218.04 76.13L219.30 82.02L224.73 83.79ZM219.30 82.02L218.04 76.13L212.60 74.36L208.42 78.49L209.68 84.39L215.12 86.16ZM231.84 69.63L230.59 63.73L225.15 61.96L220.97 66.09L222.22 71.99L227.66 73.76ZM222.22 71.99L220.97 66.09L215.53 64.33L211.35 68.46L212.60 74.36L218.04 76.13ZM53.58 225.22L52.30 219.36L46.91 217.62L42.78 221.74L44.06 227.60L49.46 229.34ZM65.96 212.87L64.68 207.01L59.28 205.27L55.16 209.39L56.43 215.25L61.83 216.99ZM56.43 215.25L55.16 209.39L49.76 207.65L45.63 211.76L46.91 217.62L52.30 219.36ZM68.81 202.89L67.54 197.03L62.14 195.28L58.01 199.40L59.28 205.27L64.68 207.01ZM80.25 255.62L78.98 249.77L73.58 248.02L69.46 252.13L70.73 257.99L76.12 259.73ZM70.73 257.99L69.46 252.13L64.06 250.39L59.94 254.50L61.21 260.35L66.60 262.10ZM83.11 245.65L81.84 239.80L76.44 238.05L72.31 242.16L73.58 248.02L78.98 249.77ZM73.58 248.02L72.31 242.16L66.92 240.42L62.79 244.53L64.06 250.39L69.46 252.13ZM86.91 263.23L85.64 257.37L80.25 255.62L76.12 259.73L77.39 265.59L82.78 267.33ZM89.77 253.26L88.50 247.40L83.11 245.65L78.98 249.77L80.25 255.62L85.64 257.37ZM54.55 252.76L53.27 246.90L47.88 245.16L43.76 249.28L45.04 255.13L50.43 256.87ZM45.04 255.13L43.76 249.28L38.37 247.54L34.25 251.65L35.53 257.50L40.92 259.24ZM57.40 242.79L56.12 236.93L50.73 235.19L46.61 239.31L47.88 245.16L53.27 246.90ZM61.21 260.35L59.94 254.50L54.55 252.76L50.43 256.87L51.70 262.72L57.09 264.46ZM51.70 262.72L50.43 256.87L45.04 255.13L40.92 259.24L42.19 265.09L47.58 266.83ZM64.06 250.39L62.79 244.53L57.40 242.79L53.27 246.90L54.55 252.76L59.94 254.50ZM95.50 233.32L94.23 227.46L88.83 225.71L84.70 229.82L85.97 235.68L91.37 237.43ZM85.97 235.68L84.70 229.82L79.30 228.08L75.17 232.19L76.44 238.05L81.84 239.80ZM98.36 223.34L97.10 217.48L91.69 215.73L87.56 219.85L88.83 225.71L94.23 227.46ZM88.83 225.71L87.56 219.85L82.16 218.10L78.03 222.22L79.30 228.08L84.70 229.82ZM102.16 240.93L100.90 235.07L95.50 233.32L91.37 237.43L92.63 243.29L98.03 245.04ZM92.63 243.29L91.37 237.43L85.97 235.68L81.84 239.80L83.11 245.65L88.50 247.40ZM105.03 230.96L103.77 225.09L98.36 223.34L94.23 227.46L95.50 233.32L100.90 235.07ZM69.77 230.45L68.50 224.59L63.10 222.85L58.98 226.96L60.25 232.82L65.64 234.56ZM60.25 232.82L58.98 226.96L53.58 225.22L49.46 229.34L50.73 235.19L56.12 236.93ZM72.63 220.47L71.36 214.61L65.96 212.87L61.83 216.99L63.10 222.85L68.50 224.59ZM63.10 222.85L61.83 216.99L56.43 215.25L52.30 219.36L53.58 225.22L58.98 226.96ZM76.44 238.05L75.17 232.19L69.77 230.45L65.64 234.56L66.92 240.42L72.31 242.16ZM66.92 240.42L65.64 234.56L60.25 232.82L56.12 236.93L57.40 242.79L62.79 244.53ZM79.30 228.08L78.03 222.22L72.63 220.47L68.50 224.59L69.77 230.45L75.17 232.19ZM105.96 258.51L104.70 252.65L99.30 250.90L95.17 255.01L96.43 260.87L101.83 262.62ZM96.43 260.87L95.17 255.01L89.77 253.26L85.64 257.37L86.91 263.23L92.30 264.97ZM108.83 248.54L107.56 242.68L102.16 240.93L98.03 245.04L99.30 250.90L104.70 252.65ZM99.30 250.90L98.03 245.04L92.63 243.29L88.50 247.40L89.77 253.26L95.17 255.01ZM115.49 256.15L114.23 250.29L108.83 248.54L104.70 252.65L105.96 258.51L111.36 260.26ZM120.44 115.77L119.17 109.89L113.75 108.14L109.60 112.27L110.87 118.15L116.29 119.90ZM110.87 118.15L109.60 112.27L104.18 110.52L100.03 114.66L101.30 120.54L106.72 122.28ZM123.33 105.75L122.06 99.87L116.64 98.12L112.48 102.25L113.75 108.14L119.17 109.89ZM113.75 108.14L112.48 102.25L107.06 100.51L102.91 104.64L104.18 110.52L109.60 112.27ZM127.13 123.40L125.86 117.52L120.44 115.77L116.29 119.90L117.56 125.78L122.98 127.53ZM117.56 125.78L116.29 119.90L110.87 118.15L106.72 122.28L107.99 128.16L113.41 129.91ZM130.02 113.39L128.75 107.50L123.33 105.75L119.17 109.89L120.44 115.77L125.86 117.52ZM94.61 112.91L93.34 107.03L87.92 105.29L83.77 109.42L85.05 115.30L90.47 117.04ZM97.49 102.90L96.22 97.01L90.79 95.27L86.65 99.41L87.92 105.29L93.34 107.03ZM101.30 120.54L100.03 114.66L94.61 112.91L90.47 117.04L91.74 122.92L97.16 124.67ZM91.74 122.92L90.47 117.04L85.05 115.30L80.90 119.43L82.18 125.31L87.59 127.05ZM104.18 110.52L102.91 104.64L97.49 102.90L93.34 107.03L94.61 112.91L100.03 114.66ZM135.80 93.35L134.53 87.46L129.10 85.71L124.95 89.85L126.21 95.74L131.64 97.49ZM126.21 95.74L124.95 89.85L119.52 88.10L115.37 92.24L116.64 98.12L122.06 99.87ZM138.69 83.33L137.42 77.44L132.00 75.69L127.84 79.83L129.10 85.71L134.53 87.46ZM129.10 85.71L127.84 79.83L122.41 78.08L118.25 82.21L119.52 88.10L124.95 89.85ZM142.49 100.99L141.22 95.11L135.80 93.35L131.64 97.49L132.91 103.37L138.33 105.13ZM132.91 103.37L131.64 97.49L126.21 95.74L122.06 99.87L123.33 105.75L128.75 107.50ZM145.39 90.97L144.12 85.08L138.69 83.33L134.53 87.46L135.80 93.35L141.22 95.11ZM109.94 90.49L108.67 84.60L103.25 82.86L99.09 86.99L100.37 92.88L105.79 94.62ZM100.37 92.88L99.09 86.99L93.67 85.25L89.52 89.39L90.79 95.27L96.22 97.01ZM112.83 80.46L111.55 74.58L106.13 72.83L101.97 76.97L103.25 82.86L108.67 84.60ZM103.25 82.86L101.97 76.97L96.55 75.22L92.40 79.36L93.67 85.25L99.09 86.99ZM116.64 98.12L115.37 92.24L109.94 90.49L105.79 94.62L107.06 100.51L112.48 102.25ZM107.06 100.51L105.79 94.62L100.37 92.88L96.22 97.01L97.49 102.90L102.91 104.64ZM119.52 88.10L118.25 82.21L112.83 80.46L108.67 84.60L109.94 90.49L115.37 92.24ZM130.93 141.04L129.66 135.16L124.25 133.41L120.09 137.54L121.36 143.42L126.78 145.17ZM121.36 143.42L120.09 137.54L114.68 135.79L110.53 139.92L111.80 145.79L117.21 147.54ZM133.82 131.04L132.55 125.15L127.13 123.40L122.98 127.53L124.25 133.41L129.66 135.16ZM124.25 133.41L122.98 127.53L117.56 125.78L113.41 129.91L114.68 135.79L120.09 137.54ZM137.61 148.68L136.35 142.80L130.93 141.04L126.78 145.17L128.05 151.05L133.46 152.80ZM128.05 151.05L126.78 145.17L121.36 143.42L117.21 147.54L118.48 153.42L123.90 155.17ZM140.50 138.67L139.24 132.79L133.82 131.04L129.66 135.16L130.93 141.04L136.35 142.80ZM105.11 138.17L103.84 132.29L98.43 130.54L94.28 134.67L95.55 140.55L100.97 142.30ZM95.55 140.55L94.28 134.67L88.87 132.93L84.72 137.06L86.00 142.93L91.41 144.68ZM107.99 128.16L106.72 122.28L101.30 120.54L97.16 124.67L98.43 130.54L103.84 132.29ZM98.43 130.54L97.16 124.67L91.74 122.92L87.59 127.05L88.87 132.93L94.28 134.67ZM111.80 145.79L110.53 139.92L105.11 138.17L100.97 142.30L102.24 148.17L107.65 149.92ZM102.24 148.17L100.97 142.30L95.55 140.55L91.41 144.68L92.68 150.55L98.09 152.30ZM114.68 135.79L113.41 129.91L107.99 128.16L103.84 132.29L105.11 138.17L110.53 139.92ZM146.29 118.65L145.02 112.76L139.60 111.01L135.44 115.14L136.71 121.02L142.13 122.78ZM136.71 121.02L135.44 115.14L130.02 113.39L125.86 117.52L127.13 123.40L132.55 125.15ZM149.18 108.63L147.92 102.75L142.49 100.99L138.33 105.13L139.60 111.01L145.02 112.76ZM139.60 111.01L138.33 105.13L132.91 103.37L128.75 107.50L130.02 113.39L135.44 115.14ZM152.97 126.29L151.71 120.41L146.29 118.65L142.13 122.78L143.39 128.66L148.82 130.42ZM143.39 128.66L142.13 122.78L136.71 121.02L132.55 125.15L133.82 131.04L139.24 132.79ZM155.87 116.28L154.61 110.39L149.18 108.63L145.02 112.76L146.29 118.65L151.71 120.41ZM70.72 165.31L69.44 159.45L64.03 157.70L59.90 161.83L61.17 167.70L66.58 169.44ZM79.31 135.32L78.04 129.44L72.62 127.70L68.48 131.83L69.76 137.70L75.17 139.45ZM86.00 142.93L84.72 137.06L79.31 135.32L75.17 139.45L76.44 145.32L81.85 147.06ZM76.44 145.32L75.17 139.45L69.76 137.70L65.62 141.84L66.89 147.71L72.30 149.45ZM88.87 132.93L87.59 127.05L82.18 125.31L78.04 129.44L79.31 135.32L84.72 137.06ZM140.68 45.59L139.41 39.70L133.98 37.94L129.81 42.09L131.08 47.98L136.51 49.73ZM131.08 47.98L129.81 42.09L124.38 40.34L120.22 44.48L121.49 50.38L126.92 52.12ZM143.58 35.55L142.31 29.65L136.87 27.90L132.71 32.05L133.98 37.94L139.41 39.70ZM133.98 37.94L132.71 32.05L127.27 30.30L123.11 34.44L124.38 40.34L129.81 42.09ZM147.38 53.24L146.11 47.34L140.68 45.59L136.51 49.73L137.78 55.63L143.22 57.38ZM137.78 55.63L136.51 49.73L131.08 47.98L126.92 52.12L128.19 58.02L133.62 59.77ZM150.28 43.20L149.01 37.30L143.58 35.55L139.41 39.70L140.68 45.59L146.11 47.34ZM114.78 42.73L113.51 36.84L108.08 35.10L103.92 39.24L105.19 45.13L110.62 46.88ZM105.19 45.13L103.92 39.24L98.49 37.50L94.33 41.64L95.61 47.53L101.04 49.28ZM117.67 32.70L116.40 26.80L110.97 25.05L106.81 29.20L108.08 35.10L113.51 36.84ZM121.49 50.38L120.22 44.48L114.78 42.73L110.62 46.88L111.90 52.77L117.33 54.52ZM111.90 52.77L110.62 46.88L105.19 45.13L101.04 49.28L102.31 55.17L107.74 56.91ZM124.38 40.34L123.11 34.44L117.67 32.70L113.51 36.84L114.78 42.73L120.22 44.48ZM156.09 23.12L154.82 17.22L149.38 15.46L145.21 19.61L146.48 25.51L151.92 27.26ZM146.48 25.51L145.21 19.61L139.77 17.86L135.60 22.01L136.87 27.90L142.31 29.65ZM159.00 13.07L157.73 7.17L152.29 5.41L148.11 9.56L149.38 15.46L154.82 17.22ZM149.38 15.46L148.11 9.56L142.67 7.81L138.50 11.96L139.77 17.86L145.21 19.61ZM162.79 30.77L161.53 24.87L156.09 23.12L151.92 27.26L153.18 33.16L158.62 34.92ZM153.18 33.16L151.92 27.26L146.48 25.51L142.31 29.65L143.58 35.55L149.01 37.30ZM165.70 20.73L164.44 14.83L159.00 13.07L154.82 17.22L156.09 23.12L161.53 24.87ZM130.17 20.25L128.90 14.36L123.46 12.61L119.29 16.76L120.57 22.65L126.00 24.40ZM120.57 22.65L119.29 16.76L113.86 15.01L109.69 19.16L110.97 25.05L116.40 26.80ZM133.06 10.21L131.79 4.31L126.35 2.56L122.19 6.71L123.46 12.61L128.90 14.36ZM123.46 12.61L122.19 6.71L116.75 4.96L112.58 9.11L113.86 15.01L119.29 16.76ZM136.87 27.90L135.60 22.01L130.17 20.25L126.00 24.40L127.27 30.30L132.71 32.05ZM127.27 30.30L126.00 24.40L120.57 22.65L116.40 26.80L117.67 32.70L123.11 34.44ZM139.77 17.86L138.50 11.96L133.06 10.21L128.90 14.36L130.17 20.25L135.60 22.01ZM151.18 70.92L149.91 65.03L144.48 63.27L140.32 67.41L141.59 73.30L147.02 75.06ZM141.59 73.30L140.32 67.41L134.89 65.66L130.73 69.80L132.00 75.69L137.42 77.44ZM154.08 60.89L152.82 54.99L147.38 53.24L143.22 57.38L144.48 63.27L149.91 65.03ZM144.48 63.27L143.22 57.38L137.78 55.63L133.62 59.77L134.89 65.66L140.32 67.41ZM157.88 78.57L156.61 72.67L151.18 70.92L147.02 75.06L148.28 80.95L153.71 82.70ZM148.28 80.95L147.02 75.06L141.59 73.30L137.42 77.44L138.69 83.33L144.12 85.08ZM160.78 68.54L159.51 62.64L154.08 60.89L149.91 65.03L151.18 70.92L156.61 72.67ZM125.30 68.05L124.03 62.16L118.60 60.41L114.44 64.55L115.71 70.44L121.14 72.19ZM115.71 70.44L114.44 64.55L109.01 62.80L104.86 66.94L106.13 72.83L111.55 74.58ZM128.19 58.02L126.92 52.12L121.49 50.38L117.33 54.52L118.60 60.41L124.03 62.16ZM118.60 60.41L117.33 54.52L111.90 52.77L107.74 56.91L109.01 62.80L114.44 64.55ZM132.00 75.69L130.73 69.80L125.30 68.05L121.14 72.19L122.41 78.08L127.84 79.83ZM122.41 78.08L121.14 72.19L115.71 70.44L111.55 74.58L112.83 80.46L118.25 82.21ZM134.89 65.66L133.62 59.77L128.19 58.02L124.03 62.16L125.30 68.05L130.73 69.80ZM166.59 48.47L165.33 42.57L159.89 40.81L155.72 44.96L156.98 50.85L162.42 52.61ZM156.98 50.85L155.72 44.96L150.28 43.20L146.11 47.34L147.38 53.24L152.82 54.99ZM169.50 38.43L168.23 32.53L162.79 30.77L158.62 34.92L159.89 40.81L165.33 42.57ZM159.89 40.81L158.62 34.92L153.18 33.16L149.01 37.30L150.28 43.20L155.72 44.96ZM173.29 56.12L172.03 50.23L166.59 48.47L162.42 52.61L163.68 58.50L169.12 60.26ZM163.68 58.50L162.42 52.61L156.98 50.85L152.82 54.99L154.08 60.89L159.51 62.64ZM176.20 46.09L174.94 40.19L169.50 38.43L165.33 42.57L166.59 48.47L172.03 50.23ZM90.79 95.27L89.52 89.39L84.10 87.64L79.95 91.78L81.23 97.66L86.65 99.41ZM93.67 85.25L92.40 79.36L86.97 77.62L82.82 81.76L84.10 87.64L89.52 89.39ZM102.31 55.17L101.04 49.28L95.61 47.53L91.45 51.68L92.73 57.57L98.16 59.31ZM106.13 72.83L104.86 66.94L99.43 65.20L95.28 69.34L96.55 75.22L101.97 76.97ZM109.01 62.80L107.74 56.91L102.31 55.17L98.16 59.31L99.43 65.20L104.86 66.94ZM167.23 169.22L165.97 163.34L160.55 161.58L156.39 165.70L157.65 171.58L163.07 173.34ZM157.65 171.58L156.39 165.70L150.98 163.94L146.82 168.07L148.08 173.94L153.50 175.70ZM170.12 159.22L168.86 153.34L163.44 151.58L159.29 155.70L160.55 161.58L165.97 163.34ZM160.55 161.58L159.29 155.70L153.87 153.94L149.71 158.07L150.98 163.94L156.39 165.70ZM173.90 176.86L172.64 170.98L167.23 169.22L163.07 173.34L164.33 179.22L169.74 180.98ZM164.33 179.22L163.07 173.34L157.65 171.58L153.50 175.70L154.76 181.58L160.17 183.33ZM176.80 166.86L175.54 160.98L170.12 159.22L165.97 163.34L167.23 169.22L172.64 170.98ZM141.41 166.31L140.14 160.43L134.73 158.68L130.58 162.80L131.84 168.68L137.26 170.43ZM131.84 168.68L130.58 162.80L125.16 161.05L121.01 165.17L122.28 171.05L127.69 172.80ZM144.30 156.31L143.03 150.43L137.61 148.68L133.46 152.80L134.73 158.68L140.14 160.43ZM134.73 158.68L133.46 152.80L128.05 151.05L123.90 155.17L125.16 161.05L130.58 162.80ZM148.08 173.94L146.82 168.07L141.41 166.31L137.26 170.43L138.52 176.31L143.93 178.06ZM138.52 176.31L137.26 170.43L131.84 168.68L127.69 172.80L128.96 178.67L134.37 180.43ZM150.98 163.94L149.71 158.07L144.30 156.31L140.14 160.43L141.41 166.31L146.82 168.07ZM182.61 146.86L181.35 140.97L175.93 139.21L171.76 143.33L173.02 149.22L178.45 150.98ZM173.02 149.22L171.76 143.33L166.34 141.57L162.18 145.70L163.44 151.58L168.86 153.34ZM185.51 136.85L184.26 130.96L178.83 129.20L174.67 133.32L175.93 139.21L181.35 140.97ZM175.93 139.21L174.67 133.32L169.24 131.56L165.08 135.69L166.34 141.57L171.76 143.33ZM189.29 154.50L188.03 148.62L182.61 146.86L178.45 150.98L179.70 156.86L185.12 158.62ZM179.70 156.86L178.45 150.98L173.02 149.22L168.86 153.34L170.12 159.22L175.54 160.98ZM192.20 144.50L190.94 138.61L185.51 136.85L181.35 140.97L182.61 146.86L188.03 148.62ZM156.76 143.94L155.50 138.06L150.08 136.30L145.92 140.43L147.19 146.31L152.61 148.06ZM147.19 146.31L145.92 140.43L140.50 138.67L136.35 142.80L137.61 148.68L143.03 150.43ZM159.66 133.93L158.40 128.05L152.97 126.29L148.82 130.42L150.08 136.30L155.50 138.06ZM150.08 136.30L148.82 130.42L143.39 128.66L139.24 132.79L140.50 138.67L145.92 140.43ZM163.44 151.58L162.18 145.70L156.76 143.94L152.61 148.06L153.87 153.94L159.29 155.70ZM153.87 153.94L152.61 148.06L147.19 146.31L143.03 150.43L144.30 156.31L149.71 158.07ZM166.34 141.57L165.08 135.69L159.66 133.93L155.50 138.06L156.76 143.94L162.18 145.70ZM177.68 194.49L176.42 188.62L171.00 186.86L166.85 190.97L168.11 196.85L173.52 198.61ZM168.11 196.85L166.85 190.97L161.44 189.21L157.28 193.33L158.54 199.20L163.95 200.96ZM180.58 184.50L179.32 178.62L173.90 176.86L169.74 180.98L171.00 186.86L176.42 188.62ZM171.00 186.86L169.74 180.98L164.33 179.22L160.17 183.33L161.44 189.21L166.85 190.97ZM184.35 202.13L183.09 196.26L177.68 194.49L173.52 198.61L174.78 204.48L180.19 206.25ZM174.78 204.48L173.52 198.61L168.11 196.85L163.95 200.96L165.21 206.83L170.62 208.60ZM187.25 192.14L185.99 186.27L180.58 184.50L176.42 188.62L177.68 194.49L183.09 196.26ZM151.87 191.57L150.61 185.69L145.20 183.94L141.05 188.05L142.31 193.93L147.72 195.68ZM142.31 193.93L141.05 188.05L135.63 186.30L131.49 190.42L132.75 196.29L138.16 198.04ZM154.76 181.58L153.50 175.70L148.08 173.94L143.93 178.06L145.20 183.94L150.61 185.69ZM145.20 183.94L143.93 178.06L138.52 176.31L134.37 180.43L135.63 186.30L141.05 188.05ZM158.54 199.20L157.28 193.33L151.87 191.57L147.72 195.68L148.98 201.56L154.39 203.32ZM148.98 201.56L147.72 195.68L142.31 193.93L138.16 198.04L139.42 203.91L144.83 205.67ZM161.44 189.21L160.17 183.33L154.76 181.58L150.61 185.69L151.87 191.57L157.28 193.33ZM193.06 172.15L191.80 166.27L186.38 164.51L182.22 168.63L183.48 174.51L188.90 176.27ZM183.48 174.51L182.22 168.63L176.80 166.86L172.64 170.98L173.90 176.86L179.32 178.62ZM195.97 162.15L194.71 156.27L189.29 154.50L185.12 158.62L186.38 164.51L191.80 166.27ZM186.38 164.51L185.12 158.62L179.70 156.86L175.54 160.98L176.80 166.86L182.22 168.63ZM190.15 182.15L188.90 176.27L183.48 174.51L179.32 178.62L180.58 184.50L185.99 186.27ZM100.30 185.78L99.03 179.91L93.62 178.16L89.48 182.28L90.75 188.15L96.16 189.90ZM90.75 188.15L89.48 182.28L84.07 180.54L79.94 184.66L81.21 190.53L86.62 192.27ZM103.17 175.79L101.90 169.92L96.49 168.17L92.35 172.29L93.62 178.16L99.03 179.91ZM93.62 178.16L92.35 172.29L86.94 170.55L82.80 174.67L84.07 180.54L89.48 182.28ZM106.97 193.40L105.71 187.53L100.30 185.78L96.16 189.90L97.43 195.77L102.83 197.52ZM97.43 195.77L96.16 189.90L90.75 188.15L86.62 192.27L87.89 198.14L93.29 199.89ZM109.85 183.41L108.58 177.54L103.17 175.79L99.03 179.91L100.30 185.78L105.71 187.53ZM74.53 182.92L73.26 177.05L67.85 175.31L63.72 179.43L65.00 185.30L70.40 187.04ZM65.00 185.30L63.72 179.43L58.32 177.69L54.19 181.82L55.46 187.68L60.86 189.42ZM77.40 172.93L76.12 167.06L70.72 165.31L66.58 169.44L67.85 175.31L73.26 177.05ZM67.85 175.31L66.58 169.44L61.17 167.70L57.04 171.83L58.32 177.69L63.72 179.43ZM81.21 190.53L79.94 184.66L74.53 182.92L70.40 187.04L71.67 192.90L77.08 194.65ZM71.67 192.90L70.40 187.04L65.00 185.30L60.86 189.42L62.14 195.28L67.54 197.03ZM84.07 180.54L82.80 174.67L77.40 172.93L73.26 177.05L74.53 182.92L79.94 184.66ZM115.60 163.42L114.33 157.55L108.92 155.80L104.78 159.92L106.04 165.79L111.46 167.54ZM106.04 165.79L104.78 159.92L99.36 158.17L95.22 162.30L96.49 168.17L101.90 169.92ZM118.48 153.42L117.21 147.54L111.80 145.79L107.65 149.92L108.92 155.80L114.33 157.55ZM108.92 155.80L107.65 149.92L102.24 148.17L98.09 152.30L99.36 158.17L104.78 159.92ZM122.28 171.05L121.01 165.17L115.60 163.42L111.46 167.54L112.72 173.42L118.13 175.17ZM112.72 173.42L111.46 167.54L106.04 165.79L101.90 169.92L103.17 175.79L108.58 177.54ZM125.16 161.05L123.90 155.17L118.48 153.42L114.33 157.55L115.60 163.42L121.01 165.17ZM89.81 160.55L88.54 154.68L83.13 152.93L78.99 157.06L80.26 162.93L85.67 164.68ZM80.26 162.93L78.99 157.06L73.58 155.32L69.44 159.45L70.72 165.31L76.12 167.06ZM92.68 150.55L91.41 144.68L86.00 142.93L81.85 147.06L83.13 152.93L88.54 154.68ZM83.13 152.93L81.85 147.06L76.44 145.32L72.30 149.45L73.58 155.32L78.99 157.06ZM96.49 168.17L95.22 162.30L89.81 160.55L85.67 164.68L86.94 170.55L92.35 172.29ZM86.94 170.55L85.67 164.68L80.26 162.93L76.12 167.06L77.40 172.93L82.80 174.67ZM99.36 158.17L98.09 152.30L92.68 150.55L88.54 154.68L89.81 160.55L95.22 162.30ZM110.77 211.00L109.51 205.13L104.10 203.38L99.96 207.50L101.23 213.37L106.64 215.12ZM101.23 213.37L99.96 207.50L94.56 205.75L90.42 209.87L91.69 215.73L97.10 217.48ZM113.65 201.02L112.38 195.15L106.97 193.40L102.83 197.52L104.10 203.38L109.51 205.13ZM104.10 203.38L102.83 197.52L97.43 195.77L93.29 199.89L94.56 205.75L99.96 207.50ZM117.44 218.62L116.18 212.75L110.77 211.00L106.64 215.12L107.90 220.98L113.31 222.73ZM107.90 220.98L106.64 215.12L101.23 213.37L97.10 217.48L98.36 223.34L103.77 225.09ZM120.32 208.64L119.05 202.77L113.65 201.02L109.51 205.13L110.77 211.00L116.18 212.75ZM85.02 208.12L83.75 202.26L78.35 200.51L74.22 204.63L75.49 210.49L80.89 212.24ZM75.49 210.49L74.22 204.63L68.81 202.89L64.68 207.01L65.96 212.87L71.36 214.61ZM87.89 198.14L86.62 192.27L81.21 190.53L77.08 194.65L78.35 200.51L83.75 202.26ZM78.35 200.51L77.08 194.65L71.67 192.90L67.54 197.03L68.81 202.89L74.22 204.63ZM91.69 215.73L90.42 209.87L85.02 208.12L80.89 212.24L82.16 218.10L87.56 219.85ZM82.16 218.10L80.89 212.24L75.49 210.49L71.36 214.61L72.63 220.47L78.03 222.22ZM94.56 205.75L93.29 199.89L87.89 198.14L83.75 202.26L85.02 208.12L90.42 209.87ZM126.08 188.66L124.81 182.79L119.40 181.04L115.26 185.16L116.52 191.03L121.93 192.78ZM116.52 191.03L115.26 185.16L109.85 183.41L105.71 187.53L106.97 193.40L112.38 195.15ZM128.96 178.67L127.69 172.80L122.28 171.05L118.13 175.17L119.40 181.04L124.81 182.79ZM119.40 181.04L118.13 175.17L112.72 173.42L108.58 177.54L109.85 183.41L115.26 185.16ZM132.75 196.29L131.49 190.42L126.08 188.66L121.93 192.78L123.20 198.65L128.61 200.40ZM123.20 198.65L121.93 192.78L116.52 191.03L112.38 195.15L113.65 201.02L119.05 202.77ZM135.63 186.30L134.37 180.43L128.96 178.67L124.81 182.79L126.08 188.66L131.49 190.42ZM187.55 99.15L186.29 93.25L180.86 91.49L176.69 95.62L177.95 101.52L183.38 103.28ZM177.95 101.52L176.69 95.62L171.26 93.87L167.10 98.00L168.36 103.89L173.79 105.65ZM190.47 89.12L189.21 83.23L183.77 81.47L179.60 85.60L180.86 91.49L186.29 93.25ZM180.86 91.49L179.60 85.60L174.17 83.84L170.00 87.97L171.26 93.87L176.69 95.62ZM194.24 106.80L192.98 100.91L187.55 99.15L183.38 103.28L184.64 109.17L190.07 110.93ZM184.64 109.17L183.38 103.28L177.95 101.52L173.79 105.65L175.05 111.54L180.48 113.30ZM197.16 96.78L195.90 90.89L190.47 89.12L186.29 93.25L187.55 99.15L192.98 100.91ZM161.67 96.24L160.41 90.35L154.98 88.59L150.81 92.73L152.08 98.61L157.50 100.37ZM152.08 98.61L150.81 92.73L145.39 90.97L141.22 95.11L142.49 100.99L147.92 102.75ZM164.57 86.22L163.31 80.32L157.88 78.57L153.71 82.70L154.98 88.59L160.41 90.35ZM154.98 88.59L153.71 82.70L148.28 80.95L144.12 85.08L145.39 90.97L150.81 92.73ZM168.36 103.89L167.10 98.00L161.67 96.24L157.50 100.37L158.77 106.26L164.19 108.02ZM158.77 106.26L157.50 100.37L152.08 98.61L147.92 102.75L149.18 108.63L154.61 110.39ZM171.26 93.87L170.00 87.97L164.57 86.22L160.41 90.35L161.67 96.24L167.10 98.00ZM202.99 76.73L201.73 70.83L196.29 69.06L192.12 73.20L193.38 79.10L198.81 80.86ZM193.38 79.10L192.12 73.20L186.68 71.44L182.51 75.57L183.77 81.47L189.21 83.23ZM205.91 66.69L204.65 60.79L199.21 59.03L195.03 63.17L196.29 69.06L201.73 70.83ZM196.29 69.06L195.03 63.17L189.60 61.40L185.42 65.54L186.68 71.44L192.12 73.20ZM209.68 84.39L208.42 78.49L202.99 76.73L198.81 80.86L200.07 86.76L205.51 88.52ZM200.07 86.76L198.81 80.86L193.38 79.10L189.21 83.23L190.47 89.12L195.90 90.89ZM212.60 74.36L211.35 68.46L205.91 66.69L201.73 70.83L202.99 76.73L208.42 78.49ZM177.08 73.81L175.82 67.92L170.38 66.16L166.21 70.29L167.48 76.19L172.91 77.95ZM167.48 76.19L166.21 70.29L160.78 68.54L156.61 72.67L157.88 78.57L163.31 80.32ZM179.99 63.78L178.73 57.88L173.29 56.12L169.12 60.26L170.38 66.16L175.82 67.92ZM170.38 66.16L169.12 60.26L163.68 58.50L159.51 62.64L160.78 68.54L166.21 70.29ZM183.77 81.47L182.51 75.57L177.08 73.81L172.91 77.95L174.17 83.84L179.60 85.60ZM174.17 83.84L172.91 77.95L167.48 76.19L163.31 80.32L164.57 86.22L170.00 87.97ZM186.68 71.44L185.42 65.54L179.99 63.78L175.82 67.92L177.08 73.81L182.51 75.57ZM198.02 124.48L196.76 118.59L191.33 116.82L187.16 120.95L188.42 126.84L193.85 128.60ZM188.42 126.84L187.16 120.95L181.74 119.19L177.57 123.31L178.83 129.20L184.26 130.96ZM200.93 114.46L199.67 108.57L194.24 106.80L190.07 110.93L191.33 116.82L196.76 118.59ZM191.33 116.82L190.07 110.93L184.64 109.17L180.48 113.30L181.74 119.19L187.16 120.95ZM204.70 132.13L203.44 126.24L198.02 124.48L193.85 128.60L195.11 134.49L200.53 136.25ZM195.11 134.49L193.85 128.60L188.42 126.84L184.26 130.96L185.51 136.85L190.94 138.61ZM207.62 122.12L206.36 116.22L200.93 114.46L196.76 118.59L198.02 124.48L203.44 126.24ZM172.14 121.55L170.88 115.66L165.46 113.91L161.29 118.03L162.56 123.92L167.98 125.68ZM162.56 123.92L161.29 118.03L155.87 116.28L151.71 120.41L152.97 126.29L158.40 128.05ZM175.05 111.54L173.79 105.65L168.36 103.89L164.19 108.02L165.46 113.91L170.88 115.66ZM165.46 113.91L164.19 108.02L158.77 106.26L154.61 110.39L155.87 116.28L161.29 118.03ZM178.83 129.20L177.57 123.31L172.14 121.55L167.98 125.68L169.24 131.56L174.67 133.32ZM169.24 131.56L167.98 125.68L162.56 123.92L158.40 128.05L159.66 133.93L165.08 135.69ZM181.74 119.19L180.48 113.30L175.05 111.54L170.88 115.66L172.14 121.55L177.57 123.31ZM213.45 102.08L212.20 96.18L206.76 94.42L202.59 98.55L203.85 104.44L209.28 106.21ZM203.85 104.44L202.59 98.55L197.16 96.78L192.98 100.91L194.24 106.80L199.67 108.57ZM216.37 92.05L215.12 86.16L209.68 84.39L205.51 88.52L206.76 94.42L212.20 96.18ZM206.76 94.42L205.51 88.52L200.07 86.76L195.90 90.89L197.16 96.78L202.59 98.55ZM220.14 109.74L218.89 103.85L213.45 102.08L209.28 106.21L210.53 112.10L215.96 113.87ZM210.53 112.10L209.28 106.21L203.85 104.44L199.67 108.57L200.93 114.46L206.36 116.22ZM178.55 222.11L177.29 216.23L171.88 214.47L167.73 218.58L168.99 224.45L174.40 226.21ZM181.45 212.12L180.19 206.25L174.78 204.48L170.62 208.60L171.88 214.47L177.29 216.23ZM185.22 229.74L183.96 223.87L178.55 222.11L174.40 226.21L175.65 232.09L181.06 233.85ZM193.92 199.79L192.67 193.91L187.25 192.14L183.09 196.26L184.35 202.13L189.76 203.90ZM196.83 189.80L195.57 183.92L190.15 182.15L185.99 186.27L187.25 192.14L192.67 193.91ZM146.99 239.13L145.73 233.26L140.33 231.50L136.18 235.61L137.45 241.48L142.85 243.23ZM137.45 241.48L136.18 235.61L130.78 233.86L126.64 237.97L127.90 243.83L133.30 245.59ZM149.88 229.15L148.62 223.28L143.21 221.52L139.06 225.64L140.33 231.50L145.73 233.26ZM140.33 231.50L139.06 225.64L133.66 223.88L129.52 227.99L130.78 233.86L136.18 235.61ZM153.66 246.75L152.40 240.89L146.99 239.13L142.85 243.23L144.11 249.10L149.51 250.86ZM144.11 249.10L142.85 243.23L137.45 241.48L133.30 245.59L134.57 251.45L139.97 253.21ZM156.54 236.78L155.28 230.91L149.88 229.15L145.73 233.26L146.99 239.13L152.40 240.89ZM121.24 236.21L119.97 230.35L114.57 228.60L110.43 232.71L111.70 238.57L117.10 240.32ZM111.70 238.57L110.43 232.71L105.03 230.96L100.90 235.07L102.16 240.93L107.56 242.68ZM124.11 226.24L122.85 220.37L117.44 218.62L113.31 222.73L114.57 228.60L119.97 230.35ZM114.57 228.60L113.31 222.73L107.90 220.98L103.77 225.09L105.03 230.96L110.43 232.71ZM127.90 243.83L126.64 237.97L121.24 236.21L117.10 240.32L118.36 246.18L123.76 247.94ZM118.36 246.18L117.10 240.32L111.70 238.57L107.56 242.68L108.83 248.54L114.23 250.29ZM130.78 233.86L129.52 227.99L124.11 226.24L119.97 230.35L121.24 236.21L126.64 237.97ZM162.32 216.82L161.06 210.95L155.65 209.19L151.50 213.30L152.76 219.17L158.17 220.93ZM152.76 219.17L151.50 213.30L146.09 211.54L141.95 215.65L143.21 221.52L148.62 223.28ZM165.21 206.83L163.95 200.96L158.54 199.20L154.39 203.32L155.65 209.19L161.06 210.95ZM155.65 209.19L154.39 203.32L148.98 201.56L144.83 205.67L146.09 211.54L151.50 213.30ZM168.99 224.45L167.73 218.58L162.32 216.82L158.17 220.93L159.43 226.80L164.84 228.56ZM159.43 226.80L158.17 220.93L152.76 219.17L148.62 223.28L149.88 229.15L155.28 230.91ZM171.88 214.47L170.62 208.60L165.21 206.83L161.06 210.95L162.32 216.82L167.73 218.58ZM136.54 213.90L135.28 208.03L129.87 206.27L125.73 210.39L126.99 216.26L132.40 218.01ZM126.99 216.26L125.73 210.39L120.32 208.64L116.18 212.75L117.44 218.62L122.85 220.37ZM139.42 203.91L138.16 198.04L132.75 196.29L128.61 200.40L129.87 206.27L135.28 208.03ZM129.87 206.27L128.61 200.40L123.20 198.65L119.05 202.77L120.32 208.64L125.73 210.39ZM143.21 221.52L141.95 215.65L136.54 213.90L132.40 218.01L133.66 223.88L139.06 225.64ZM133.66 223.88L132.40 218.01L126.99 216.26L122.85 220.37L124.11 226.24L129.52 227.99ZM146.09 211.54L144.83 205.67L139.42 203.91L135.28 208.03L136.54 213.90L141.95 215.65ZM160.32 254.38L159.06 248.51L153.66 246.75L149.51 250.86L150.77 256.72L156.17 258.48ZM150.77 256.72L149.51 250.86L144.11 249.10L139.97 253.21L141.23 259.07L146.63 260.83ZM166.98 262.01L165.72 256.14L160.32 254.38L156.17 258.48L157.43 264.35L162.83 266.11ZM131.69 261.42L130.43 255.56L125.03 253.80L120.89 257.91L122.15 263.77L127.55 265.52ZM134.57 251.45L133.30 245.59L127.90 243.83L123.76 247.94L125.03 253.80L130.43 255.56ZM125.03 253.80L123.76 247.94L118.36 246.18L114.23 250.29L115.49 256.15L120.89 257.91ZM141.23 259.07L139.97 253.21L134.57 251.45L130.43 255.56L131.69 261.42L137.09 263.17ZM172.76 242.06L171.50 236.19L166.10 234.43L161.95 238.54L163.21 244.41L168.61 246.17ZM163.21 244.41L161.95 238.54L156.54 236.78L152.40 240.89L153.66 246.75L159.06 248.51ZM175.65 232.09L174.40 226.21L168.99 224.45L164.84 228.56L166.10 234.43L171.50 236.19ZM166.10 234.43L164.84 228.56L159.43 226.80L155.28 230.91L156.54 236.78L161.95 238.54ZM179.42 249.69L178.17 243.83L172.76 242.06L168.61 246.17L169.87 252.04L175.27 253.80ZM169.87 252.04L168.61 246.17L163.21 244.41L159.06 248.51L160.32 254.38L165.72 256.14ZM182.32 239.72L181.06 233.85L175.65 232.09L171.50 236.19L172.76 242.06L178.17 243.83Z"/><path data-band="2" fill="#f97316" fill-opacity="0.35" d="M100.43 -0.27L99.16 -6.17L93.72 -7.91L89.56 -3.76L90.84 2.14L96.27 3.88ZM90.84 2.14L89.56 -3.76L84.12 -5.50L79.97 -1.34L81.24 4.55L86.68 6.29ZM74.53 -3.08L73.25 -8.98L67.81 -10.72L63.66 -6.56L64.94 -0.67L70.37 1.07ZM64.94 -0.67L63.66 -6.56L58.23 -8.30L54.07 -4.14L55.35 1.75L60.79 3.49ZM104.26 17.41L102.98 11.52L97.55 9.78L93.39 13.93L94.67 19.82L100.10 21.56ZM94.67 19.82L93.39 13.93L87.96 12.18L83.80 16.34L85.08 22.23L90.51 23.97ZM107.15 7.37L105.87 1.47L100.43 -0.27L96.27 3.88L97.55 9.78L102.98 11.52ZM97.55 9.78L96.27 3.88L90.84 2.14L86.68 6.29L87.96 12.18L93.39 13.93ZM110.97 25.05L109.69 19.16L104.26 17.41L100.10 21.56L101.37 27.46L106.81 29.20ZM101.37 27.46L100.10 21.56L94.67 19.82L90.51 23.97L91.78 29.86L97.22 31.61ZM78.37 14.60L77.09 8.70L71.65 6.96L67.50 11.12L68.78 17.01L74.21 18.75ZM68.78 17.01L67.50 11.12L62.07 9.38L57.92 13.53L59.20 19.42L64.63 21.16ZM81.24 4.55L79.97 -1.34L74.53 -3.08L70.37 1.07L71.65 6.96L77.09 8.70ZM71.65 6.96L70.37 1.07L64.94 -0.67L60.79 3.49L62.07 9.38L67.50 11.12ZM85.08 22.23L83.80 16.34L78.37 14.60L74.21 18.75L75.49 24.64L80.92 26.38ZM75.49 24.64L74.21 18.75L68.78 17.01L64.63 21.16L65.91 27.05L71.34 28.79ZM87.96 12.18L86.68 6.29L81.24 4.55L77.09 8.70L78.37 14.60L83.80 16.34ZM110.04 -2.68L108.76 -8.58L103.32 -10.33L99.16 -6.17L100.43 -0.27L105.87 1.47ZM26.62 9.02L25.34 3.14L19.91 1.41L15.76 5.57L17.05 11.45L22.48 13.18ZM17.05 11.45L15.76 5.57L10.34 3.84L6.20 8.00L7.48 13.88L12.91 15.61ZM29.48 -1.02L28.20 -6.91L22.76 -8.64L18.62 -4.48L19.91 1.41L25.34 3.14ZM19.91 1.41L18.62 -4.48L13.19 -6.21L9.05 -2.05L10.34 3.84L15.76 5.57ZM33.33 16.64L32.05 10.75L26.62 9.02L22.48 13.18L23.76 19.07L29.19 20.80ZM23.76 19.07L22.48 13.18L17.05 11.45L12.91 15.61L14.20 21.49L19.62 23.22ZM36.19 6.60L34.91 0.71L29.48 -1.02L25.34 3.14L26.62 9.02L32.05 10.75ZM0.77 6.27L-0.52 0.39L-5.95 -1.34L-10.08 2.82L-8.79 8.70L-3.37 10.43ZM3.62 -3.77L2.33 -9.66L-3.10 -11.39L-7.24 -7.22L-5.95 -1.34L-0.52 0.39ZM7.48 13.88L6.20 8.00L0.77 6.27L-3.37 10.43L-2.08 16.31L3.35 18.04ZM10.34 3.84L9.05 -2.05L3.62 -3.77L-0.52 0.39L0.77 6.27L6.20 8.00ZM39.06 -3.45L37.77 -9.34L32.34 -11.07L28.20 -6.91L29.48 -1.02L34.91 0.71ZM37.18 34.30L35.90 28.41L30.47 26.68L26.33 30.83L27.62 36.72L33.04 38.45ZM27.62 36.72L26.33 30.83L20.91 29.10L16.77 33.26L18.05 39.14L23.48 40.87ZM40.04 24.26L38.76 18.37L33.33 16.64L29.19 20.80L30.47 26.68L35.90 28.41ZM30.47 26.68L29.19 20.80L23.76 19.07L19.62 23.22L20.91 29.10L26.33 30.83ZM43.89 41.91L42.61 36.03L37.18 34.30L33.04 38.45L34.32 44.33L39.75 46.06ZM34.32 44.33L33.04 38.45L27.62 36.72L23.48 40.87L24.76 46.75L30.18 48.48ZM46.75 31.88L45.47 25.99L40.04 24.26L35.90 28.41L37.18 34.30L42.61 36.03ZM11.35 31.53L10.06 25.65L4.63 23.92L0.50 28.07L1.79 33.95L7.21 35.68ZM1.79 33.95L0.50 28.07L-4.92 26.35L-9.06 30.50L-7.77 36.38L-2.35 38.11ZM14.20 21.49L12.91 15.61L7.48 13.88L3.35 18.04L4.63 23.92L10.06 25.65ZM4.63 23.92L3.35 18.04L-2.08 16.31L-6.21 20.47L-4.92 26.35L0.50 28.07ZM18.05 39.14L16.77 33.26L11.35 31.53L7.21 35.68L8.50 41.56L13.92 43.29ZM8.50 41.56L7.21 35.68L1.79 33.95L-2.35 38.11L-1.06 43.99L4.36 45.71ZM20.91 29.10L19.62 23.22L14.20 21.49L10.06 25.65L11.35 31.53L16.77 33.26ZM52.49 11.80L51.20 5.91L45.77 4.17L41.63 8.33L42.91 14.22L48.34 15.95ZM42.91 14.22L41.63 8.33L36.19 6.60L32.05 10.75L33.33 16.64L38.76 18.37ZM55.35 1.75L54.07 -4.14L48.64 -5.87L44.49 -1.72L45.77 4.17L51.20 5.91ZM45.77 4.17L44.49 -1.72L39.06 -3.45L34.91 0.71L36.19 6.60L41.63 8.33ZM59.20 19.42L57.92 13.53L52.49 11.80L48.34 15.95L49.62 21.84L55.05 23.58ZM49.62 21.84L48.34 15.95L42.91 14.22L38.76 18.37L40.04 24.26L45.47 25.99ZM62.07 9.38L60.79 3.49L55.35 1.75L51.20 5.91L52.49 11.80L57.92 13.53ZM16.52 262.25L15.25 256.40L9.86 254.67L5.75 258.78L7.03 264.63L12.41 266.36ZM28.86 249.91L27.59 244.06L22.19 242.32L18.08 246.44L19.36 252.29L24.75 254.03ZM19.36 252.29L18.08 246.44L12.69 244.71L8.58 248.82L9.86 254.67L15.25 256.40ZM31.70 239.95L30.43 234.09L25.03 232.36L20.92 236.47L22.19 242.32L27.59 244.06ZM22.19 242.32L20.92 236.47L15.53 234.74L11.41 238.86L12.69 244.71L18.08 246.44ZM35.53 257.50L34.25 251.65L28.86 249.91L24.75 254.03L26.02 259.87L31.41 261.61ZM26.02 259.87L24.75 254.03L19.36 252.29L15.25 256.40L16.52 262.25L21.91 263.99ZM38.37 247.54L37.09 241.68L31.70 239.95L27.59 244.06L28.86 249.91L34.25 251.65ZM3.19 247.09L1.91 241.24L-3.48 239.51L-7.59 243.63L-6.31 249.47L-0.92 251.20ZM6.02 237.12L4.74 231.27L-0.65 229.54L-4.76 233.66L-3.48 239.51L1.91 241.24ZM9.86 254.67L8.58 248.82L3.19 247.09L-0.92 251.20L0.36 257.05L5.75 258.78ZM0.36 257.05L-0.92 251.20L-6.31 249.47L-10.41 253.59L-9.13 259.43L-3.75 261.16ZM12.69 244.71L11.41 238.86L6.02 237.12L1.91 241.24L3.19 247.09L8.58 248.82ZM33.56 202.43L32.28 196.57L26.88 194.84L22.76 198.96L24.04 204.82L29.44 206.55ZM24.04 204.82L22.76 198.96L17.36 197.23L13.25 201.35L14.53 207.21L19.92 208.94ZM36.40 192.45L35.13 186.59L29.73 184.85L25.60 188.98L26.88 194.84L32.28 196.57ZM26.88 194.84L25.60 188.98L20.20 187.24L16.08 191.37L17.36 197.23L22.76 198.96ZM40.23 210.03L38.96 204.17L33.56 202.43L29.44 206.55L30.71 212.41L36.11 214.15ZM30.71 212.41L29.44 206.55L24.04 204.82L19.92 208.94L21.20 214.79L26.60 216.53ZM43.08 200.05L41.81 194.19L36.40 192.45L32.28 196.57L33.56 202.43L38.96 204.17ZM7.85 199.62L6.57 193.76L1.17 192.03L-2.94 196.16L-1.66 202.01L3.73 203.74ZM10.69 189.64L9.41 183.78L4.01 182.05L-0.11 186.17L1.17 192.03L6.57 193.76ZM1.17 192.03L-0.11 186.17L-5.51 184.44L-9.62 188.57L-8.34 194.43L-2.94 196.16ZM14.53 207.21L13.25 201.35L7.85 199.62L3.73 203.74L5.01 209.60L10.41 211.33ZM5.01 209.60L3.73 203.74L-1.66 202.01L-5.77 206.13L-4.49 211.99L0.90 213.72ZM17.36 197.23L16.08 191.37L10.69 189.64L6.57 193.76L7.85 199.62L13.25 201.35ZM48.78 180.08L47.51 174.21L42.10 172.47L37.98 176.60L39.25 182.46L44.66 184.20ZM39.25 182.46L37.98 176.60L32.57 174.86L28.45 178.99L29.73 184.85L35.13 186.59ZM51.64 170.09L50.36 164.22L44.95 162.48L40.83 166.61L42.10 172.47L47.51 174.21ZM42.10 172.47L40.83 166.61L35.42 164.87L31.29 169.00L32.57 174.86L37.98 176.60ZM55.46 187.68L54.19 181.82L48.78 180.08L44.66 184.20L45.93 190.06L51.33 191.80ZM45.93 190.06L44.66 184.20L39.25 182.46L35.13 186.59L36.40 192.45L41.81 194.19ZM58.32 177.69L57.04 171.83L51.64 170.09L47.51 174.21L48.78 180.08L54.19 181.82ZM23.05 177.26L21.77 171.40L16.36 169.66L12.24 173.79L13.52 179.65L18.92 181.38ZM13.52 179.65L12.24 173.79L6.84 172.06L2.72 176.19L4.01 182.05L9.41 183.78ZM25.89 167.27L24.61 161.40L19.21 159.67L15.08 163.80L16.36 169.66L21.77 171.40ZM16.36 169.66L15.08 163.80L9.68 162.07L5.56 166.20L6.84 172.06L12.24 173.79ZM29.73 184.85L28.45 178.99L23.05 177.26L18.92 181.38L20.20 187.24L25.60 188.98ZM20.20 187.24L18.92 181.38L13.52 179.65L9.41 183.78L10.69 189.64L16.08 191.37ZM32.57 174.86L31.29 169.00L25.89 167.27L21.77 171.40L23.05 177.26L28.45 178.99ZM44.06 227.60L42.78 221.74L37.39 220.00L33.27 224.12L34.54 229.98L39.94 231.71ZM34.54 229.98L33.27 224.12L27.87 222.38L23.76 226.50L25.03 232.36L30.43 234.09ZM46.91 217.62L45.63 211.76L40.23 210.03L36.11 214.15L37.39 220.00L42.78 221.74ZM37.39 220.00L36.11 214.15L30.71 212.41L26.60 216.53L27.87 222.38L33.27 224.12ZM50.73 235.19L49.46 229.34L44.06 227.60L39.94 231.71L41.21 237.57L46.61 239.31ZM41.21 237.57L39.94 231.71L34.54 229.98L30.43 234.09L31.70 239.95L37.09 241.68ZM18.36 224.77L17.08 218.91L11.69 217.18L7.57 221.30L8.85 227.15L14.25 228.89ZM8.85 227.15L7.57 221.30L2.18 219.57L-1.93 223.69L-0.65 229.54L4.74 231.27ZM21.20 214.79L19.92 208.94L14.53 207.21L10.41 211.33L11.69 217.18L17.08 218.91ZM11.69 217.18L10.41 211.33L5.01 209.60L0.90 213.72L2.18 219.57L7.57 221.30ZM25.03 232.36L23.76 226.50L18.36 224.77L14.25 228.89L15.53 234.74L20.92 236.47ZM15.53 234.74L14.25 228.89L8.85 227.15L4.74 231.27L6.02 237.12L11.41 238.86ZM27.87 222.38L26.60 216.53L21.20 214.79L17.08 218.91L18.36 224.77L23.76 226.50ZM59.28 205.27L58.01 199.40L52.61 197.66L48.48 201.79L49.76 207.65L55.16 209.39ZM49.76 207.65L48.48 201.79L43.08 200.05L38.96 204.17L40.23 210.03L45.63 211.76ZM62.14 195.28L60.86 189.42L55.46 187.68L51.33 191.80L52.61 197.66L58.01 199.40ZM52.61 197.66L51.33 191.80L45.93 190.06L41.81 194.19L43.08 200.05L48.48 201.79ZM2.18 219.57L0.90 213.72L-4.49 211.99L-8.60 216.11L-7.32 221.96L-1.93 223.69ZM47.88 245.16L46.61 239.31L41.21 237.57L37.09 241.68L38.37 247.54L43.76 249.28ZM85.05 115.30L83.77 109.42L78.36 107.68L74.21 111.81L75.49 117.69L80.90 119.43ZM87.92 105.29L86.65 99.41L81.23 97.66L77.08 101.80L78.36 107.68L83.77 109.42ZM53.52 132.48L52.24 126.61L46.83 124.87L42.70 129.01L43.98 134.88L49.39 136.62ZM43.98 134.88L42.70 129.01L37.29 127.27L33.15 131.41L34.43 137.28L39.84 139.01ZM56.38 122.48L55.10 116.60L49.69 114.87L45.55 119.00L46.83 124.87L52.24 126.61ZM46.83 124.87L45.55 119.00L40.14 117.27L36.01 121.40L37.29 127.27L42.70 129.01ZM60.21 140.09L58.93 134.22L53.52 132.48L49.39 136.62L50.66 142.49L56.07 144.23ZM50.66 142.49L49.39 136.62L43.98 134.88L39.84 139.01L41.12 144.88L46.53 146.62ZM63.07 130.09L61.79 124.22L56.38 122.48L52.24 126.61L53.52 132.48L58.93 134.22ZM27.75 129.67L26.46 123.81L21.05 122.07L16.93 126.21L18.21 132.08L23.62 133.81ZM18.21 132.08L16.93 126.21L11.52 124.48L7.39 128.61L8.68 134.48L14.08 136.21ZM30.59 119.67L29.31 113.80L23.90 112.06L19.77 116.20L21.05 122.07L26.46 123.81ZM21.05 122.07L19.77 116.20L14.36 114.47L10.23 118.61L11.52 124.48L16.93 126.21ZM34.43 137.28L33.15 131.41L27.75 129.67L23.62 133.81L24.90 139.68L30.31 141.41ZM24.90 139.68L23.62 133.81L18.21 132.08L14.08 136.21L15.36 142.08L20.77 143.81ZM37.29 127.27L36.01 121.40L30.59 119.67L26.46 123.81L27.75 129.67L33.15 131.41ZM68.80 110.07L67.52 104.20L62.10 102.46L57.96 106.59L59.24 112.47L64.66 114.21ZM59.24 112.47L57.96 106.59L52.55 104.86L48.41 108.99L49.69 114.87L55.10 116.60ZM71.66 100.06L70.39 94.18L64.97 92.44L60.83 96.58L62.10 102.46L67.52 104.20ZM62.10 102.46L60.83 96.58L55.41 94.84L51.27 98.98L52.55 104.86L57.96 106.59ZM75.49 117.69L74.21 111.81L68.80 110.07L64.66 114.21L65.93 120.08L71.35 121.82ZM65.93 120.08L64.66 114.21L59.24 112.47L55.10 116.60L56.38 122.48L61.79 124.22ZM78.36 107.68L77.08 101.80L71.66 100.06L67.52 104.20L68.80 110.07L74.21 111.81ZM42.99 107.26L41.72 101.38L36.30 99.65L32.17 103.79L33.45 109.66L38.86 111.39ZM33.45 109.66L32.17 103.79L26.75 102.05L22.62 106.19L23.90 112.06L29.31 113.80ZM45.85 97.24L44.57 91.37L39.16 89.63L35.02 93.77L36.30 99.65L41.72 101.38ZM36.30 99.65L35.02 93.77L29.60 92.04L25.47 96.18L26.75 102.05L32.17 103.79ZM49.69 114.87L48.41 108.99L42.99 107.26L38.86 111.39L40.14 117.27L45.55 119.00ZM40.14 117.27L38.86 111.39L33.45 109.66L29.31 113.80L30.59 119.67L36.01 121.40ZM52.55 104.86L51.27 98.98L45.85 97.24L41.72 101.38L42.99 107.26L48.41 108.99ZM64.03 157.70L62.76 151.84L57.35 150.10L53.22 154.22L54.49 160.09L59.90 161.83ZM54.49 160.09L53.22 154.22L47.81 152.49L43.68 156.62L44.95 162.48L50.36 164.22ZM66.89 147.71L65.62 141.84L60.21 140.09L56.07 144.23L57.35 150.10L62.76 151.84ZM57.35 150.10L56.07 144.23L50.66 142.49L46.53 146.62L47.81 152.49L53.22 154.22ZM61.17 167.70L59.90 161.83L54.49 160.09L50.36 164.22L51.64 170.09L57.04 171.83ZM73.58 155.32L72.30 149.45L66.89 147.71L62.76 151.84L64.03 157.70L69.44 159.45ZM38.27 154.88L36.99 149.01L31.58 147.28L27.46 151.41L28.74 157.27L34.14 159.01ZM28.74 157.27L27.46 151.41L22.05 149.68L17.93 153.81L19.21 159.67L24.61 161.40ZM41.12 144.88L39.84 139.01L34.43 137.28L30.31 141.41L31.58 147.28L36.99 149.01ZM31.58 147.28L30.31 141.41L24.90 139.68L20.77 143.81L22.05 149.68L27.46 151.41ZM44.95 162.48L43.68 156.62L38.27 154.88L34.14 159.01L35.42 164.87L40.83 166.61ZM35.42 164.87L34.14 159.01L28.74 157.27L24.61 161.40L25.89 167.27L31.29 169.00ZM47.81 152.49L46.53 146.62L41.12 144.88L36.99 149.01L38.27 154.88L43.68 156.62ZM69.76 137.70L68.48 131.83L63.07 130.09L58.93 134.22L60.21 140.09L65.62 141.84ZM82.18 125.31L80.90 119.43L75.49 117.69L71.35 121.82L72.62 127.70L78.04 129.44ZM72.62 127.70L71.35 121.82L65.93 120.08L61.79 124.22L63.07 130.09L68.48 131.83ZM108.08 35.10L106.81 29.20L101.37 27.46L97.22 31.61L98.49 37.50L103.92 39.24ZM73.57 62.37L72.30 56.48L66.87 54.75L62.72 58.89L64.00 64.77L69.43 66.51ZM64.00 64.77L62.72 58.89L57.30 57.15L53.16 61.30L54.44 67.18L59.86 68.92ZM76.45 52.34L75.17 46.45L69.74 44.71L65.59 48.86L66.87 54.75L72.30 56.48ZM66.87 54.75L65.59 48.86L60.17 47.12L56.02 51.27L57.30 57.15L62.72 58.89ZM80.27 69.99L79.00 64.11L73.57 62.37L69.43 66.51L70.70 72.40L76.13 74.14ZM70.70 72.40L69.43 66.51L64.00 64.77L59.86 68.92L61.14 74.80L66.56 76.54ZM83.15 59.97L81.87 54.08L76.45 52.34L72.30 56.48L73.57 62.37L79.00 64.11ZM47.73 59.56L46.45 53.68L41.03 51.95L36.89 56.09L38.17 61.97L43.59 63.71ZM38.17 61.97L36.89 56.09L31.47 54.36L27.33 58.51L28.61 64.39L34.03 66.12ZM50.60 49.53L49.32 43.65L43.89 41.91L39.75 46.06L41.03 51.95L46.45 53.68ZM41.03 51.95L39.75 46.06L34.32 44.33L30.18 48.48L31.47 54.36L36.89 56.09ZM54.44 67.18L53.16 61.30L47.73 59.56L43.59 63.71L44.87 69.59L50.29 71.32ZM44.87 69.59L43.59 63.71L38.17 61.97L34.03 66.12L35.31 72.00L40.73 73.73ZM57.30 57.15L56.02 51.27L50.60 49.53L46.45 53.68L47.73 59.56L53.16 61.30ZM88.90 39.90L87.63 34.01L82.20 32.27L78.04 36.42L79.32 42.31L84.75 44.05ZM79.32 42.31L78.04 36.42L72.61 34.68L68.46 38.83L69.74 44.71L75.17 46.45ZM91.78 29.86L90.51 23.97L85.08 22.23L80.92 26.38L82.20 32.27L87.63 34.01ZM82.20 32.27L80.92 26.38L75.49 24.64L71.34 28.79L72.61 34.68L78.04 36.42ZM95.61 47.53L94.33 41.64L88.90 39.90L84.75 44.05L86.02 49.94L91.45 51.68ZM86.02 49.94L84.75 44.05L79.32 42.31L75.17 46.45L76.45 52.34L81.87 54.08ZM98.49 37.50L97.22 31.61L91.78 29.86L87.63 34.01L88.90 39.90L94.33 41.64ZM63.04 37.09L61.76 31.20L56.33 29.46L52.18 33.61L53.46 39.50L58.89 41.24ZM53.46 39.50L52.18 33.61L46.75 31.88L42.61 36.03L43.89 41.91L49.32 43.65ZM65.91 27.05L64.63 21.16L59.20 19.42L55.05 23.58L56.33 29.46L61.76 31.20ZM56.33 29.46L55.05 23.58L49.62 21.84L45.47 25.99L46.75 31.88L52.18 33.61ZM69.74 44.71L68.46 38.83L63.04 37.09L58.89 41.24L60.17 47.12L65.59 48.86ZM60.17 47.12L58.89 41.24L53.46 39.50L49.32 43.65L50.60 49.53L56.02 51.27ZM72.61 34.68L71.34 28.79L65.91 27.05L61.76 31.20L63.04 37.09L68.46 38.83ZM84.10 87.64L82.82 81.76L77.40 80.02L73.26 84.16L74.53 90.04L79.95 91.78ZM74.53 90.04L73.26 84.16L67.83 82.42L63.69 86.56L64.97 92.44L70.39 94.18ZM86.97 77.62L85.70 71.74L80.27 69.99L76.13 74.14L77.40 80.02L82.82 81.76ZM77.40 80.02L76.13 74.14L70.70 72.40L66.56 76.54L67.83 82.42L73.26 84.16ZM81.23 97.66L79.95 91.78L74.53 90.04L70.39 94.18L71.66 100.06L77.08 101.80ZM58.27 84.82L56.99 78.94L51.57 77.20L47.43 81.35L48.71 87.23L54.13 88.96ZM48.71 87.23L47.43 81.35L42.01 79.61L37.88 83.75L39.16 89.63L44.57 91.37ZM61.14 74.80L59.86 68.92L54.44 67.18L50.29 71.32L51.57 77.20L56.99 78.94ZM51.57 77.20L50.29 71.32L44.87 69.59L40.73 73.73L42.01 79.61L47.43 81.35ZM64.97 92.44L63.69 86.56L58.27 84.82L54.13 88.96L55.41 94.84L60.83 96.58ZM55.41 94.84L54.13 88.96L48.71 87.23L44.57 91.37L45.85 97.24L51.27 98.98ZM67.83 82.42L66.56 76.54L61.14 74.80L56.99 78.94L58.27 84.82L63.69 86.56ZM99.43 65.20L98.16 59.31L92.73 57.57L88.58 61.71L89.85 67.60L95.28 69.34ZM89.85 67.60L88.58 61.71L83.15 59.97L79.00 64.11L80.27 69.99L85.70 71.74ZM92.73 57.57L91.45 51.68L86.02 49.94L81.87 54.08L83.15 59.97L88.58 61.71ZM96.55 75.22L95.28 69.34L89.85 67.60L85.70 71.74L86.97 77.62L92.40 79.36ZM1.98 126.89L0.70 121.02L-4.71 119.29L-8.83 123.43L-7.54 129.29L-2.14 131.02ZM4.83 116.88L3.54 111.01L-1.87 109.28L-5.99 113.42L-4.71 119.29L0.70 121.02ZM8.68 134.48L7.39 128.61L1.98 126.89L-2.14 131.02L-0.85 136.89L4.55 138.62ZM11.52 124.48L10.23 118.61L4.83 116.88L0.70 121.02L1.98 126.89L7.39 128.61ZM0.16 164.47L-1.12 158.61L-6.53 156.88L-10.64 161.01L-9.36 166.87L-3.96 168.60ZM4.01 182.05L2.72 176.19L-2.68 174.46L-6.79 178.59L-5.51 184.44L-0.11 186.17ZM6.84 172.06L5.56 166.20L0.16 164.47L-3.96 168.60L-2.68 174.46L2.72 176.19ZM12.52 152.07L11.24 146.21L5.83 144.48L1.71 148.61L3.00 154.48L8.40 156.21ZM3.00 154.48L1.71 148.61L-3.69 146.89L-7.81 151.02L-6.53 156.88L-1.12 158.61ZM15.36 142.08L14.08 136.21L8.68 134.48L4.55 138.62L5.83 144.48L11.24 146.21ZM5.83 144.48L4.55 138.62L-0.85 136.89L-4.97 141.02L-3.69 146.89L1.71 148.61ZM19.21 159.67L17.93 153.81L12.52 152.07L8.40 156.21L9.68 162.07L15.08 163.80ZM9.68 162.07L8.40 156.21L3.00 154.48L-1.12 158.61L0.16 164.47L5.56 166.20ZM22.05 149.68L20.77 143.81L15.36 142.08L11.24 146.21L12.52 152.07L17.93 153.81ZM6.66 79.24L5.37 73.37L-0.04 71.64L-4.17 75.79L-2.89 81.66L2.53 83.39ZM9.50 69.22L8.22 63.35L2.80 61.62L-1.33 65.77L-0.04 71.64L5.37 73.37ZM13.36 86.84L12.07 80.97L6.66 79.24L2.53 83.39L3.81 89.26L9.23 90.99ZM3.81 89.26L2.53 83.39L-2.89 81.66L-7.01 85.81L-5.73 91.68L-0.31 93.40ZM16.21 76.83L14.92 70.95L9.50 69.22L5.37 73.37L6.66 79.24L12.07 80.97ZM21.91 56.78L20.62 50.90L15.20 49.17L11.07 53.32L12.35 59.20L17.77 60.93ZM12.35 59.20L11.07 53.32L5.65 51.59L1.51 55.74L2.80 61.62L8.22 63.35ZM24.76 46.75L23.48 40.87L18.05 39.14L13.92 43.29L15.20 49.17L20.62 50.90ZM15.20 49.17L13.92 43.29L8.50 41.56L4.36 45.71L5.65 51.59L11.07 53.32ZM28.61 64.39L27.33 58.51L21.91 56.78L17.77 60.93L19.06 66.80L24.47 68.53ZM19.06 66.80L17.77 60.93L12.35 59.20L8.22 63.35L9.50 69.22L14.92 70.95ZM31.47 54.36L30.18 48.48L24.76 46.75L20.62 50.90L21.91 56.78L27.33 58.51ZM2.80 61.62L1.51 55.74L-3.90 54.01L-8.03 58.16L-6.75 64.04L-1.33 65.77ZM5.65 51.59L4.36 45.71L-1.06 43.99L-5.19 48.14L-3.90 54.01L1.51 55.74ZM17.21 104.46L15.92 98.59L10.51 96.86L6.38 101.00L7.67 106.87L13.08 108.60ZM7.67 106.87L6.38 101.00L0.97 99.27L-3.15 103.42L-1.87 109.28L3.54 111.01ZM20.06 94.45L18.77 88.58L13.36 86.84L9.23 90.99L10.51 96.86L15.92 98.59ZM10.51 96.86L9.23 90.99L3.81 89.26L-0.31 93.40L0.97 99.27L6.38 101.00ZM23.90 112.06L22.62 106.19L17.21 104.46L13.08 108.60L14.36 114.47L19.77 116.20ZM14.36 114.47L13.08 108.60L7.67 106.87L3.54 111.01L4.83 116.88L10.23 118.61ZM26.75 102.05L25.47 96.18L20.06 94.45L15.92 98.59L17.21 104.46L22.62 106.19ZM0.97 99.27L-0.31 93.40L-5.73 91.68L-9.85 95.82L-8.56 101.69L-3.15 103.42ZM32.46 82.02L31.18 76.14L25.76 74.41L21.62 78.56L22.91 84.43L28.32 86.16ZM22.91 84.43L21.62 78.56L16.21 76.83L12.07 80.97L13.36 86.84L18.77 88.58ZM35.31 72.00L34.03 66.12L28.61 64.39L24.47 68.53L25.76 74.41L31.18 76.14ZM25.76 74.41L24.47 68.53L19.06 66.80L14.92 70.95L16.21 76.83L21.62 78.56ZM39.16 89.63L37.88 83.75L32.46 82.02L28.32 86.16L29.60 92.04L35.02 93.77ZM29.60 92.04L28.32 86.16L22.91 84.43L18.77 88.58L20.06 94.45L25.47 96.18ZM42.01 79.61L40.73 73.73L35.31 72.00L31.18 76.14L32.46 82.02L37.88 83.75Z"/></svg>
