<svg xmlns="http://www.w3.org/2000/svg" width="256" height="256" viewBox="0 0 256 256"><path data-band="1" fill="#fde68a" fill-opacity="0.35" d="M16.00 255.24L14.73 249.43L9.39 247.69L5.31 251.76L6.57 257.57L11.92 259.31ZM6.57 257.57L5.31 251.76L-0.04 250.02L-4.12 254.09L-2.85 259.90L2.50 261.64ZM18.82 245.36L17.55 239.55L12.20 237.81L8.12 241.88L9.39 247.69L14.73 249.43ZM9.39 247.69L8.12 241.88L2.77 240.14L-1.31 244.21L-0.04 250.02L5.31 251.76ZM22.62 262.79L21.35 256.98L16.00 255.24L11.92 259.31L13.19 265.12L18.54 266.86ZM25.43 252.92L24.17 247.10L18.82 245.36L14.73 249.43L16.00 255.24L21.35 256.98ZM30.83 48.90L29.56 43.06L24.18 41.32L20.07 45.43L21.34 51.27L26.73 53.01ZM42.19 9.09L40.92 3.24L35.53 1.50L31.41 5.61L32.69 11.46L38.08 13.20ZM46.01 26.64L44.74 20.79L39.35 19.05L35.24 23.16L36.51 29.00L41.90 30.74ZM48.85 16.68L47.58 10.83L42.19 9.09L38.08 13.20L39.35 19.05L44.74 20.79ZM60.29 69.30L59.02 63.45L53.64 61.71L49.52 65.81L50.79 71.65L56.18 73.40ZM50.79 71.65L49.52 65.81L44.14 64.07L40.03 68.17L41.30 74.01L46.68 75.75ZM63.13 59.35L61.86 53.51L56.48 51.76L52.37 55.87L53.64 61.71L59.02 63.45ZM53.64 61.71L52.37 55.87L46.98 54.12L42.87 58.23L44.14 64.07L49.52 65.81ZM66.94 76.89L65.67 71.04L60.29 69.30L56.18 73.40L57.44 79.24L62.82 80.98ZM57.44 79.24L56.18 73.40L50.79 71.65L46.68 75.75L47.95 81.59L53.33 83.33ZM69.79 66.94L68.52 61.10L63.13 59.35L59.02 63.45L60.29 69.30L65.67 71.04ZM34.65 66.43L33.38 60.59L28.00 58.85L23.89 62.95L25.17 68.79L30.55 70.53ZM37.49 56.49L36.22 50.64L30.83 48.90L26.73 53.01L28.00 58.85L33.38 60.59ZM28.00 58.85L26.73 53.01L21.34 51.27L17.24 55.37L18.51 61.21L23.89 62.95ZM41.30 74.01L40.03 68.17L34.65 66.43L30.55 70.53L31.82 76.37L37.20 78.11ZM31.82 76.37L30.55 70.53L25.17 68.79L21.06 72.89L22.34 78.73L27.71 80.47ZM44.14 64.07L42.87 58.23L37.49 56.49L33.38 60.59L34.65 66.43L40.03 68.17ZM75.49 47.05L74.22 41.20L68.83 39.46L64.71 43.56L65.98 49.41L71.37 51.15ZM65.98 49.41L64.71 43.56L59.33 41.82L55.21 45.92L56.48 51.76L61.86 53.51ZM78.34 37.10L77.07 31.25L71.68 29.50L67.56 33.61L68.83 39.46L74.22 41.20ZM68.83 39.46L67.56 33.61L62.17 31.86L58.06 35.97L59.33 41.82L64.71 43.56ZM82.14 54.65L80.87 48.80L75.49 47.05L71.37 51.15L72.63 57.00L78.02 58.75ZM72.63 57.00L71.37 51.15L65.98 49.41L61.86 53.51L63.13 59.35L68.52 61.10ZM84.99 44.70L83.73 38.85L78.34 37.10L74.22 41.20L75.49 47.05L80.87 48.80ZM49.82 44.18L48.55 38.33L43.17 36.59L39.06 40.69L40.33 46.54L45.71 48.28ZM40.33 46.54L39.06 40.69L33.67 38.95L29.56 43.06L30.83 48.90L36.22 50.64ZM52.67 34.23L51.40 28.38L46.01 26.64L41.90 30.74L43.17 36.59L48.55 38.33ZM43.17 36.59L41.90 30.74L36.51 29.00L32.40 33.11L33.67 38.95L39.06 40.69ZM56.48 51.76L55.21 45.92L49.82 44.18L45.71 48.28L46.98 54.12L52.37 55.87ZM46.98 54.12L45.71 48.28L40.33 46.54L36.22 50.64L37.49 56.49L42.87 58.23ZM59.33 41.82L58.06 35.97L52.67 34.23L48.55 38.33L49.82 44.18L55.21 45.92ZM70.74 94.41L69.47 88.57L64.09 86.82L59.98 90.92L61.25 96.76L66.63 98.50ZM61.25 96.76L59.98 90.92L54.60 89.17L50.49 93.27L51.76 99.11L57.14 100.85ZM73.59 84.47L72.32 78.63L66.94 76.89L62.82 80.98L64.09 86.82L69.47 88.57ZM64.09 86.82L62.82 80.98L57.44 79.24L53.33 83.33L54.60 89.17L59.98 90.92ZM77.38 102.00L76.12 96.16L70.74 94.41L66.63 98.50L67.89 104.34L73.27 106.09ZM67.89 104.34L66.63 98.50L61.25 96.76L57.14 100.85L58.41 106.69L63.78 108.43ZM80.23 92.06L78.97 86.22L73.59 84.47L69.47 88.57L70.74 94.41L76.12 96.16ZM45.12 91.53L43.85 85.69L38.47 83.95L34.36 88.04L35.63 93.88L41.01 95.62ZM35.63 93.88L34.36 88.04L28.99 86.30L24.88 90.40L26.15 96.24L31.53 97.98ZM47.95 81.59L46.68 75.75L41.30 74.01L37.20 78.11L38.47 83.95L43.85 85.69ZM38.47 83.95L37.20 78.11L31.82 76.37L27.71 80.47L28.99 86.30L34.36 88.04ZM51.76 99.11L50.49 93.27L45.12 91.53L41.01 95.62L42.28 101.46L47.66 103.20ZM42.28 101.46L41.01 95.62L35.63 93.88L31.53 97.98L32.80 103.81L38.18 105.55ZM54.60 89.17L53.33 83.33L47.95 81.59L43.85 85.69L45.12 91.53L50.49 93.27ZM85.94 72.19L84.67 66.34L79.29 64.59L75.17 68.69L76.44 74.54L81.82 76.28ZM76.44 74.54L75.17 68.69L69.79 66.94L65.67 71.04L66.94 76.89L72.32 78.63ZM88.79 62.24L87.53 56.40L82.14 54.65L78.02 58.75L79.29 64.59L84.67 66.34ZM79.29 64.59L78.02 58.75L72.63 57.00L68.52 61.10L69.79 66.94L75.17 68.69ZM92.59 79.78L91.32 73.94L85.94 72.19L81.82 76.28L83.08 82.13L88.47 83.88ZM83.08 82.13L81.82 76.28L76.44 74.54L72.32 78.63L73.59 84.47L78.97 86.22ZM95.44 69.84L94.18 63.99L88.79 62.24L84.67 66.34L85.94 72.19L91.32 73.94ZM26.15 96.24L24.88 90.40L19.51 88.66L15.41 92.76L16.68 98.59L22.05 100.33ZM16.68 98.59L15.41 92.76L10.03 91.02L5.93 95.12L7.21 100.95L12.58 102.69ZM28.99 86.30L27.71 80.47L22.34 78.73L18.23 82.83L19.51 88.66L24.88 90.40ZM80.25 -0.38L78.98 -6.23L73.58 -7.98L69.46 -3.87L70.73 1.99L76.12 3.73ZM70.73 1.99L69.46 -3.87L64.06 -5.61L59.94 -1.50L61.21 4.35L66.60 6.10ZM86.91 7.23L85.64 1.37L80.25 -0.38L76.12 3.73L77.39 9.59L82.78 11.33ZM77.39 9.59L76.12 3.73L70.73 1.99L66.60 6.10L67.87 11.95L73.27 13.69ZM89.77 -2.74L88.50 -8.60L83.11 -10.35L78.98 -6.23L80.25 -0.38L85.64 1.37ZM54.55 -3.24L53.27 -9.10L47.88 -10.84L43.76 -6.72L45.04 -0.87L50.43 0.87ZM45.04 -0.87L43.76 -6.72L38.37 -8.46L34.25 -4.35L35.53 1.50L40.92 3.24ZM61.21 4.35L59.94 -1.50L54.55 -3.24L50.43 0.87L51.70 6.72L57.09 8.46ZM51.70 6.72L50.43 0.87L45.04 -0.87L40.92 3.24L42.19 9.09L47.58 10.83ZM90.71 24.79L89.44 18.93L84.05 17.19L79.93 21.29L81.19 27.15L86.58 28.89ZM81.19 27.15L79.93 21.29L74.53 19.55L70.41 23.65L71.68 29.50L77.07 31.25ZM93.57 14.83L92.30 8.97L86.91 7.23L82.78 11.33L84.05 17.19L89.44 18.93ZM84.05 17.19L82.78 11.33L77.39 9.59L73.27 13.69L74.53 19.55L79.93 21.29ZM97.37 32.39L96.10 26.54L90.71 24.79L86.58 28.89L87.85 34.74L93.24 36.49ZM87.85 34.74L86.58 28.89L81.19 27.15L77.07 31.25L78.34 37.10L83.73 38.85ZM100.23 22.43L98.96 16.58L93.57 14.83L89.44 18.93L90.71 24.79L96.10 26.54ZM65.02 21.91L63.75 16.06L58.36 14.31L54.24 18.42L55.51 24.27L60.90 26.01ZM55.51 24.27L54.24 18.42L48.85 16.68L44.74 20.79L46.01 26.64L51.40 28.38ZM67.87 11.95L66.60 6.10L61.21 4.35L57.09 8.46L58.36 14.31L63.75 16.06ZM58.36 14.31L57.09 8.46L51.70 6.72L47.58 10.83L48.85 16.68L54.24 18.42ZM71.68 29.50L70.41 23.65L65.02 21.91L60.90 26.01L62.17 31.86L67.56 33.61ZM62.17 31.86L60.90 26.01L55.51 24.27L51.40 28.38L52.67 34.23L58.06 35.97ZM74.53 19.55L73.27 13.69L67.87 11.95L63.75 16.06L65.02 21.91L70.41 23.65ZM105.96 2.51L104.70 -3.35L99.30 -5.10L95.17 -0.99L96.43 4.87L101.83 6.62ZM96.43 4.87L95.17 -0.99L89.77 -2.74L85.64 1.37L86.91 7.23L92.30 8.97ZM112.62 10.12L111.36 4.26L105.96 2.51L101.83 6.62L103.09 12.47L108.49 14.22ZM103.09 12.47L101.83 6.62L96.43 4.87L92.30 8.97L93.57 14.83L98.96 16.58ZM115.49 0.15L114.23 -5.71L108.83 -7.46L104.70 -3.35L105.96 2.51L111.36 4.26ZM86.85 191.84L85.59 186.01L80.22 184.26L76.12 188.34L77.38 194.16L82.74 195.91ZM77.38 194.16L76.12 188.34L70.75 186.59L66.65 190.66L67.91 196.49L73.28 198.24ZM89.69 181.93L88.43 176.10L83.06 174.35L78.96 178.43L80.22 184.26L85.59 186.01ZM80.22 184.26L78.96 178.43L73.59 176.68L69.49 180.76L70.75 186.59L76.12 188.34ZM93.47 199.42L92.21 193.59L86.85 191.84L82.74 195.91L84.00 201.74L89.37 203.49ZM84.00 201.74L82.74 195.91L77.38 194.16L73.28 198.24L74.54 204.06L79.90 205.81ZM96.32 189.52L95.06 183.69L89.69 181.93L85.59 186.01L86.85 191.84L92.21 193.59ZM61.29 188.92L60.02 183.09L54.66 181.34L50.56 185.42L51.82 191.25L57.19 192.99ZM51.82 191.25L50.56 185.42L45.20 183.68L41.10 187.76L42.37 193.58L47.73 195.32ZM64.12 179.01L62.86 173.18L57.49 171.44L53.39 175.52L54.66 181.34L60.02 183.09ZM54.66 181.34L53.39 175.52L48.03 173.77L43.93 177.85L45.20 183.68L50.56 185.42ZM67.91 196.49L66.65 190.66L61.29 188.92L57.19 192.99L58.45 198.82L63.81 200.56ZM58.45 198.82L57.19 192.99L51.82 191.25L47.73 195.32L48.99 201.15L54.35 202.89ZM70.75 186.59L69.49 180.76L64.12 179.01L60.02 183.09L61.29 188.92L66.65 190.66ZM102.02 169.70L100.76 163.87L95.39 162.12L91.28 166.20L92.54 172.03L97.91 173.78ZM92.54 172.03L91.28 166.20L85.91 164.44L81.80 168.52L83.06 174.35L88.43 176.10ZM104.87 159.79L103.61 153.95L98.24 152.20L94.13 156.28L95.39 162.12L100.76 163.87ZM95.39 162.12L94.13 156.28L88.76 154.53L84.65 158.61L85.91 164.44L91.28 166.20ZM108.65 177.29L107.39 171.46L102.02 169.70L97.91 173.78L99.17 179.61L104.54 181.37ZM99.17 179.61L97.91 173.78L92.54 172.03L88.43 176.10L89.69 181.93L95.06 183.69ZM111.50 167.38L110.24 161.55L104.87 159.79L100.76 163.87L102.02 169.70L107.39 171.46ZM76.43 166.77L75.17 160.94L69.80 159.19L65.70 163.27L66.96 169.10L72.33 170.85ZM66.96 169.10L65.70 163.27L60.33 161.53L56.23 165.61L57.49 171.44L62.86 173.18ZM79.28 156.86L78.01 151.03L72.64 149.28L68.54 153.36L69.80 159.19L75.17 160.94ZM69.80 159.19L68.54 153.36L63.17 151.61L59.06 155.70L60.33 161.53L65.70 163.27ZM83.06 174.35L81.80 168.52L76.43 166.77L72.33 170.85L73.59 176.68L78.96 178.43ZM73.59 176.68L72.33 170.85L66.96 169.10L62.86 173.18L64.12 179.01L69.49 180.76ZM85.91 164.44L84.65 158.61L79.28 156.86L75.17 160.94L76.43 166.77L81.80 168.52ZM97.25 216.90L95.99 211.07L90.63 209.32L86.52 213.39L87.78 219.21L93.14 220.97ZM87.78 219.21L86.52 213.39L81.16 211.64L77.06 215.71L78.32 221.53L83.68 223.28ZM100.10 207.00L98.84 201.17L93.47 199.42L89.37 203.49L90.63 209.32L95.99 211.07ZM90.63 209.32L89.37 203.49L84.00 201.74L79.90 205.81L81.16 211.64L86.52 213.39ZM103.87 224.48L102.61 218.65L97.25 216.90L93.14 220.97L94.40 226.79L99.76 228.55ZM94.40 226.79L93.14 220.97L87.78 219.21L83.68 223.28L84.94 229.11L90.30 230.86ZM106.72 214.58L105.46 208.76L100.10 207.00L95.99 211.07L97.25 216.90L102.61 218.65ZM71.70 213.96L70.44 208.14L65.08 206.39L60.98 210.46L62.24 216.28L67.60 218.03ZM62.24 216.28L60.98 210.46L55.62 208.71L51.52 212.79L52.79 218.61L58.15 220.35ZM74.54 204.06L73.28 198.24L67.91 196.49L63.81 200.56L65.08 206.39L70.44 208.14ZM65.08 206.39L63.81 200.56L58.45 198.82L54.35 202.89L55.62 208.71L60.98 210.46ZM78.32 221.53L77.06 215.71L71.70 213.96L67.60 218.03L68.86 223.85L74.22 225.60ZM68.86 223.85L67.60 218.03L62.24 216.28L58.15 220.35L59.41 226.17L64.77 227.92ZM81.16 211.64L79.90 205.81L74.54 204.06L70.44 208.14L71.70 213.96L77.06 215.71ZM112.42 194.78L111.16 188.95L105.80 187.20L101.69 191.27L102.94 197.10L108.31 198.86ZM102.94 197.10L101.69 191.27L96.32 189.52L92.21 193.59L93.47 199.42L98.84 201.17ZM115.28 184.88L114.02 179.05L108.65 177.29L104.54 181.37L105.80 187.20L111.16 188.95ZM105.80 187.20L104.54 181.37L99.17 179.61L95.06 183.69L96.32 189.52L101.69 191.27ZM119.04 202.37L117.79 196.54L112.42 194.78L108.31 198.86L109.57 204.69L114.93 206.44ZM109.57 204.69L108.31 198.86L102.94 197.10L98.84 201.17L100.10 207.00L105.46 208.76ZM121.90 192.47L120.65 186.64L115.28 184.88L111.16 188.95L112.42 194.78L117.79 196.54ZM20.65 208.14L19.38 202.33L14.02 200.59L9.93 204.66L11.20 210.48L16.56 212.22ZM11.20 210.48L9.93 204.66L4.58 202.93L0.49 207.00L1.76 212.82L7.12 214.56ZM23.46 198.25L22.20 192.43L16.84 190.69L12.75 194.77L14.02 200.59L19.38 202.33ZM14.02 200.59L12.75 194.77L7.39 193.03L3.31 197.11L4.58 202.93L9.93 204.66ZM27.27 215.70L26.00 209.89L20.65 208.14L16.56 212.22L17.83 218.04L23.18 219.78ZM17.83 218.04L16.56 212.22L11.20 210.48L7.12 214.56L8.39 220.37L13.74 222.11ZM30.09 205.81L28.82 199.99L23.46 198.25L19.38 202.33L20.65 208.14L26.00 209.89ZM1.76 212.82L0.49 207.00L-4.86 205.27L-8.94 209.35L-7.67 215.16L-2.32 216.89ZM4.58 202.93L3.31 197.11L-2.05 195.37L-6.13 199.45L-4.86 205.27L0.49 207.00ZM35.74 186.01L34.47 180.19L29.11 178.45L25.02 182.53L26.29 188.35L31.65 190.09ZM26.29 188.35L25.02 182.53L19.66 180.79L15.57 184.87L16.84 190.69L22.20 192.43ZM38.57 176.11L37.30 170.28L31.93 168.54L27.84 172.62L29.11 178.45L34.47 180.19ZM29.11 178.45L27.84 172.62L22.48 170.88L18.39 174.97L19.66 180.79L25.02 182.53ZM42.37 193.58L41.10 187.76L35.74 186.01L31.65 190.09L32.91 195.91L38.27 197.66ZM32.91 195.91L31.65 190.09L26.29 188.35L22.20 192.43L23.46 198.25L28.82 199.99ZM45.20 183.68L43.93 177.85L38.57 176.11L34.47 180.19L35.74 186.01L41.10 187.76ZM10.21 183.13L8.94 177.31L3.58 175.57L-0.51 179.66L0.76 185.47L6.12 187.21ZM0.76 185.47L-0.51 179.66L-5.87 177.92L-9.95 182.00L-8.68 187.82L-3.32 189.56ZM13.02 173.23L11.75 167.40L6.39 165.67L2.30 169.75L3.58 175.57L8.94 177.31ZM3.58 175.57L2.30 169.75L-3.06 168.02L-7.14 172.10L-5.87 177.92L-0.51 179.66ZM16.84 190.69L15.57 184.87L10.21 183.13L6.12 187.21L7.39 193.03L12.75 194.77ZM7.39 193.03L6.12 187.21L0.76 185.47L-3.32 189.56L-2.05 195.37L3.31 197.11ZM19.66 180.79L18.39 174.97L13.02 173.23L8.94 177.31L10.21 183.13L15.57 184.87ZM31.07 233.15L29.80 227.33L24.45 225.59L20.36 229.67L21.63 235.48L26.98 237.22ZM21.63 235.48L20.36 229.67L15.01 227.92L10.93 232.00L12.20 237.81L17.55 239.55ZM33.89 223.26L32.63 217.45L27.27 215.70L23.18 219.78L24.45 225.59L29.80 227.33ZM24.45 225.59L23.18 219.78L17.83 218.04L13.74 222.11L15.01 227.92L20.36 229.67ZM37.69 240.71L36.42 234.89L31.07 233.15L26.98 237.22L28.25 243.03L33.60 244.78ZM28.25 243.03L26.98 237.22L21.63 235.48L17.55 239.55L18.82 245.36L24.17 247.10ZM40.51 230.82L39.25 225.01L33.89 223.26L29.80 227.33L31.07 233.15L36.42 234.89ZM5.58 230.26L4.31 224.45L-1.05 222.71L-5.13 226.78L-3.85 232.59L1.50 234.33ZM8.39 220.37L7.12 214.56L1.76 212.82L-2.32 216.89L-1.05 222.71L4.31 224.45ZM12.20 237.81L10.93 232.00L5.58 230.26L1.50 234.33L2.77 240.14L8.12 241.88ZM2.77 240.14L1.50 234.33L-3.85 232.59L-7.93 236.67L-6.66 242.48L-1.31 244.21ZM15.01 227.92L13.74 222.11L8.39 220.37L4.31 224.45L5.58 230.26L10.93 232.00ZM46.17 211.04L44.90 205.22L39.54 203.48L35.45 207.55L36.72 213.37L42.07 215.12ZM36.72 213.37L35.45 207.55L30.09 205.81L26.00 209.89L27.27 215.70L32.63 217.45ZM48.99 201.15L47.73 195.32L42.37 193.58L38.27 197.66L39.54 203.48L44.90 205.22ZM39.54 203.48L38.27 197.66L32.91 195.91L28.82 199.99L30.09 205.81L35.45 207.55ZM52.79 218.61L51.52 212.79L46.17 211.04L42.07 215.12L43.34 220.93L48.70 222.68ZM43.34 220.93L42.07 215.12L36.72 213.37L32.63 217.45L33.89 223.26L39.25 225.01ZM55.62 208.71L54.35 202.89L48.99 201.15L44.90 205.22L46.17 211.04L51.52 212.79ZM106.80 122.44L105.54 116.59L100.16 114.84L96.05 118.93L97.31 124.77L102.69 126.52ZM97.31 124.77L96.05 118.93L90.67 117.18L86.55 121.27L87.82 127.10L93.19 128.85ZM109.66 112.51L108.40 106.66L103.02 104.91L98.90 109.00L100.16 114.84L105.54 116.59ZM100.16 114.84L98.90 109.00L93.52 107.25L89.41 111.34L90.67 117.18L96.05 118.93ZM113.44 130.03L112.18 124.19L106.80 122.44L102.69 126.52L103.95 132.36L109.32 134.12ZM103.95 132.36L102.69 126.52L97.31 124.77L93.19 128.85L94.46 134.69L99.83 136.45ZM116.30 120.10L115.04 114.26L109.66 112.51L105.54 116.59L106.80 122.44L112.18 124.19ZM81.18 119.52L79.91 113.68L74.54 111.93L70.43 116.02L71.69 121.85L77.07 123.60ZM71.69 121.85L70.43 116.02L65.05 114.27L60.94 118.36L62.21 124.20L67.58 125.94ZM84.03 109.59L82.76 103.75L77.38 102.00L73.27 106.09L74.54 111.93L79.91 113.68ZM74.54 111.93L73.27 106.09L67.89 104.34L63.78 108.43L65.05 114.27L70.43 116.02ZM87.82 127.10L86.55 121.27L81.18 119.52L77.07 123.60L78.33 129.44L83.71 131.19ZM78.33 129.44L77.07 123.60L71.69 121.85L67.58 125.94L68.85 131.78L74.22 133.53ZM90.67 117.18L89.41 111.34L84.03 109.59L79.91 113.68L81.18 119.52L86.55 121.27ZM122.03 100.24L120.77 94.40L115.38 92.64L111.26 96.73L112.52 102.58L117.90 104.33ZM112.52 102.58L111.26 96.73L105.88 94.98L101.76 99.07L103.02 104.91L108.40 106.66ZM124.89 90.31L123.63 84.46L118.25 82.70L114.12 86.79L115.38 92.64L120.77 94.40ZM115.38 92.64L114.12 86.79L108.74 85.04L104.62 89.13L105.88 94.98L111.26 96.73ZM128.67 107.84L127.41 102.00L122.03 100.24L117.90 104.33L119.16 110.18L124.54 111.93ZM119.16 110.18L117.90 104.33L112.52 102.58L108.40 106.66L109.66 112.51L115.04 114.26ZM131.54 97.91L130.28 92.06L124.89 90.31L120.77 94.40L122.03 100.24L127.41 102.00ZM96.38 97.32L95.11 91.47L89.73 89.72L85.61 93.81L86.88 99.66L92.26 101.41ZM86.88 99.66L85.61 93.81L80.23 92.06L76.12 96.16L77.38 102.00L82.76 103.75ZM99.23 87.38L97.97 81.53L92.59 79.78L88.47 83.88L89.73 89.72L95.11 91.47ZM89.73 89.72L88.47 83.88L83.08 82.13L78.97 86.22L80.23 92.06L85.61 93.81ZM103.02 104.91L101.76 99.07L96.38 97.32L92.26 101.41L93.52 107.25L98.90 109.00ZM93.52 107.25L92.26 101.41L86.88 99.66L82.76 103.75L84.03 109.59L89.41 111.34ZM105.88 94.98L104.62 89.13L99.23 87.38L95.11 91.47L96.38 97.32L101.76 99.07ZM117.22 147.55L115.96 141.71L110.58 139.95L106.47 144.04L107.73 149.87L113.10 151.63ZM107.73 149.87L106.47 144.04L101.09 142.28L96.98 146.37L98.24 152.20L103.61 153.95ZM120.08 137.63L118.82 131.79L113.44 130.03L109.32 134.12L110.58 139.95L115.96 141.71ZM110.58 139.95L109.32 134.12L103.95 132.36L99.83 136.45L101.09 142.28L106.47 144.04ZM123.85 155.14L122.59 149.31L117.22 147.55L113.10 151.63L114.36 157.47L119.73 159.22ZM114.36 157.47L113.10 151.63L107.73 149.87L103.61 153.95L104.87 159.79L110.24 161.55ZM126.71 145.22L125.45 139.39L120.08 137.63L115.96 141.71L117.22 147.55L122.59 149.31ZM91.60 144.61L90.34 138.78L84.97 137.03L80.86 141.11L82.12 146.94L87.49 148.70ZM82.12 146.94L80.86 141.11L75.48 139.36L71.38 143.45L72.64 149.28L78.01 151.03ZM94.46 134.69L93.19 128.85L87.82 127.10L83.71 131.19L84.97 137.03L90.34 138.78ZM84.97 137.03L83.71 131.19L78.33 129.44L74.22 133.53L75.48 139.36L80.86 141.11ZM98.24 152.20L96.98 146.37L91.60 144.61L87.49 148.70L88.76 154.53L94.13 156.28ZM88.76 154.53L87.49 148.70L82.12 146.94L78.01 151.03L79.28 156.86L84.65 158.61ZM101.09 142.28L99.83 136.45L94.46 134.69L90.34 138.78L91.60 144.61L96.98 146.37ZM132.44 125.38L131.18 119.53L125.80 117.78L121.68 121.86L122.94 127.70L128.32 129.46ZM122.94 127.70L121.68 121.86L116.30 120.10L112.18 124.19L113.44 130.03L118.82 131.79ZM135.31 115.45L134.05 109.60L128.67 107.84L124.54 111.93L125.80 117.78L131.18 119.53ZM125.80 117.78L124.54 111.93L119.16 110.18L115.04 114.26L116.30 120.10L121.68 121.86ZM139.08 132.98L137.82 127.14L132.44 125.38L128.32 129.46L129.58 135.30L134.95 137.06ZM129.58 135.30L128.32 129.46L122.94 127.70L118.82 131.79L120.08 137.63L125.45 139.39ZM141.95 123.05L140.69 117.21L135.31 115.45L131.18 119.53L132.44 125.38L137.82 127.14ZM40.42 138.80L39.15 132.97L33.78 131.23L29.68 135.32L30.95 141.15L36.32 142.89ZM30.95 141.15L29.68 135.32L24.31 133.58L20.22 137.67L21.49 143.50L26.86 145.24ZM43.25 128.88L41.98 123.05L36.61 121.31L32.51 125.40L33.78 131.23L39.15 132.97ZM33.78 131.23L32.51 125.40L27.14 123.66L23.04 127.75L24.31 133.58L29.68 135.32ZM47.06 146.38L45.79 140.55L40.42 138.80L36.32 142.89L37.59 148.72L42.96 150.46ZM37.59 148.72L36.32 142.89L30.95 141.15L26.86 145.24L28.13 151.06L33.49 152.81ZM49.89 136.46L48.62 130.63L43.25 128.88L39.15 132.97L40.42 138.80L45.79 140.55ZM14.85 135.93L13.58 130.10L8.21 128.37L4.12 132.46L5.39 138.28L10.76 140.02ZM5.39 138.28L4.12 132.46L-1.25 130.72L-5.34 134.81L-4.07 140.64L1.30 142.37ZM17.67 126.01L16.40 120.18L11.03 118.45L6.94 122.54L8.21 128.37L13.58 130.10ZM21.49 143.50L20.22 137.67L14.85 135.93L10.76 140.02L12.03 145.85L17.39 147.58ZM12.03 145.85L10.76 140.02L5.39 138.28L1.30 142.37L2.57 148.20L7.94 149.93ZM24.31 133.58L23.04 127.75L17.67 126.01L13.58 130.10L14.85 135.93L20.22 137.67ZM55.57 116.62L54.30 110.78L48.92 109.04L44.82 113.13L46.09 118.96L51.46 120.71ZM46.09 118.96L44.82 113.13L39.45 111.39L35.34 115.48L36.61 121.31L41.98 123.05ZM58.41 106.69L57.14 100.85L51.76 99.11L47.66 103.20L48.92 109.04L54.30 110.78ZM48.92 109.04L47.66 103.20L42.28 101.46L38.18 105.55L39.45 111.39L44.82 113.13ZM62.21 124.20L60.94 118.36L55.57 116.62L51.46 120.71L52.73 126.54L58.10 128.28ZM52.73 126.54L51.46 120.71L46.09 118.96L41.98 123.05L43.25 128.88L48.62 130.63ZM65.05 114.27L63.78 108.43L58.41 106.69L54.30 110.78L55.57 116.62L60.94 118.36ZM29.97 113.74L28.70 107.90L23.33 106.16L19.23 110.26L20.50 116.09L25.87 117.83ZM20.50 116.09L19.23 110.26L13.85 108.52L9.76 112.62L11.03 118.45L16.40 120.18ZM32.80 103.81L31.53 97.98L26.15 96.24L22.05 100.33L23.33 106.16L28.70 107.90ZM23.33 106.16L22.05 100.33L16.68 98.59L12.58 102.69L13.85 108.52L19.23 110.26ZM36.61 121.31L35.34 115.48L29.97 113.74L25.87 117.83L27.14 123.66L32.51 125.40ZM27.14 123.66L25.87 117.83L20.50 116.09L16.40 120.18L17.67 126.01L23.04 127.75ZM39.45 111.39L38.18 105.55L32.80 103.81L28.70 107.90L29.97 113.74L35.34 115.48ZM50.86 163.86L49.59 158.04L44.23 156.29L40.13 160.38L41.39 166.20L46.76 167.95ZM41.39 166.20L40.13 160.38L34.76 158.63L30.67 162.72L31.93 168.54L37.30 170.28ZM53.69 153.95L52.43 148.12L47.06 146.38L42.96 150.46L44.23 156.29L49.59 158.04ZM44.23 156.29L42.96 150.46L37.59 148.72L33.49 152.81L34.76 158.63L40.13 160.38ZM57.49 171.44L56.23 165.61L50.86 163.86L46.76 167.95L48.03 173.77L53.39 175.52ZM48.03 173.77L46.76 167.95L41.39 166.20L37.30 170.28L38.57 176.11L43.93 177.85ZM60.33 161.53L59.06 155.70L53.69 153.95L49.59 158.04L50.86 163.86L56.23 165.61ZM25.30 160.98L24.03 155.15L18.67 153.41L14.57 157.50L15.84 163.32L21.21 165.06ZM15.84 163.32L14.57 157.50L9.21 155.76L5.12 159.84L6.39 165.67L11.75 167.40ZM28.13 151.06L26.86 145.24L21.49 143.50L17.39 147.58L18.67 153.41L24.03 155.15ZM18.67 153.41L17.39 147.58L12.03 145.85L7.94 149.93L9.21 155.76L14.57 157.50ZM31.93 168.54L30.67 162.72L25.30 160.98L21.21 165.06L22.48 170.88L27.84 172.62ZM22.48 170.88L21.21 165.06L15.84 163.32L11.75 167.40L13.02 173.23L18.39 174.97ZM34.76 158.63L33.49 152.81L28.13 151.06L24.03 155.15L25.30 160.98L30.67 162.72ZM66.01 141.70L64.74 135.86L59.37 134.12L55.26 138.21L56.53 144.04L61.90 145.78ZM56.53 144.04L55.26 138.21L49.89 136.46L45.79 140.55L47.06 146.38L52.43 148.12ZM68.85 131.78L67.58 125.94L62.21 124.20L58.10 128.28L59.37 134.12L64.74 135.86ZM59.37 134.12L58.10 128.28L52.73 126.54L48.62 130.63L49.89 136.46L55.26 138.21ZM72.64 149.28L71.38 143.45L66.01 141.70L61.90 145.78L63.17 151.61L68.54 153.36ZM63.17 151.61L61.90 145.78L56.53 144.04L52.43 148.12L53.69 153.95L59.06 155.70ZM75.48 139.36L74.22 133.53L68.85 131.78L64.74 135.86L66.01 141.70L71.38 143.45ZM107.64 241.95L106.38 236.13L101.02 234.37L96.92 238.44L98.18 244.26L103.54 246.01ZM98.18 244.26L96.92 238.44L91.56 236.68L87.46 240.75L88.72 246.57L94.08 248.32ZM110.49 232.06L109.23 226.24L103.87 224.48L99.76 228.55L101.02 234.37L106.38 236.13ZM101.02 234.37L99.76 228.55L94.40 226.79L90.30 230.86L91.56 236.68L96.92 238.44ZM104.79 251.84L103.54 246.01L98.18 244.26L94.08 248.32L95.33 254.14L100.69 255.90ZM66.98 261.08L65.72 255.26L60.37 253.51L56.28 257.58L57.54 263.39L62.89 265.14ZM57.54 263.39L56.28 257.58L50.92 255.83L46.84 259.89L48.10 265.71L53.45 267.45ZM69.81 251.19L68.55 245.38L63.20 243.63L59.11 247.70L60.37 253.51L65.72 255.26ZM60.37 253.51L59.11 247.70L53.75 245.95L49.66 250.01L50.92 255.83L56.28 257.58ZM76.43 258.76L75.17 252.95L69.81 251.19L65.72 255.26L66.98 261.08L72.33 262.83ZM41.49 258.15L40.22 252.34L34.87 250.59L30.78 254.66L32.05 260.47L37.40 262.21ZM32.05 260.47L30.78 254.66L25.43 252.92L21.35 256.98L22.62 262.79L27.97 264.54ZM44.31 248.27L43.04 242.45L37.69 240.71L33.60 244.78L34.87 250.59L40.22 252.34ZM34.87 250.59L33.60 244.78L28.25 243.03L24.17 247.10L25.43 252.92L30.78 254.66ZM50.92 255.83L49.66 250.01L44.31 248.27L40.22 252.34L41.49 258.15L46.84 259.89ZM82.10 239.00L80.84 233.18L75.48 231.42L71.39 235.49L72.65 241.31L78.00 243.06ZM72.65 241.31L71.39 235.49L66.03 233.74L61.94 237.81L63.20 243.63L68.55 245.38ZM84.94 229.11L83.68 223.28L78.32 221.53L74.22 225.60L75.48 231.42L80.84 233.18ZM75.48 231.42L74.22 225.60L68.86 223.85L64.77 227.92L66.03 233.74L71.39 235.49ZM88.72 246.57L87.46 240.75L82.10 239.00L78.00 243.06L79.26 248.88L84.62 250.63ZM79.26 248.88L78.00 243.06L72.65 241.31L68.55 245.38L69.81 251.19L75.17 252.95ZM91.56 236.68L90.30 230.86L84.94 229.11L80.84 233.18L82.10 239.00L87.46 240.75ZM56.58 236.06L55.32 230.24L49.96 228.50L45.87 232.57L47.13 238.38L52.49 240.13ZM47.13 238.38L45.87 232.57L40.51 230.82L36.42 234.89L37.69 240.71L43.04 242.45ZM59.41 226.17L58.15 220.35L52.79 218.61L48.70 222.68L49.96 228.50L55.32 230.24ZM49.96 228.50L48.70 222.68L43.34 220.93L39.25 225.01L40.51 230.82L45.87 232.57ZM63.20 243.63L61.94 237.81L56.58 236.06L52.49 240.13L53.75 245.95L59.11 247.70ZM53.75 245.95L52.49 240.13L47.13 238.38L43.04 242.45L44.31 248.27L49.66 250.01ZM66.03 233.74L64.77 227.92L59.41 226.17L55.32 230.24L56.58 236.06L61.94 237.81ZM95.33 254.14L94.08 248.32L88.72 246.57L84.62 250.63L85.88 256.45L91.23 258.21ZM85.88 256.45L84.62 250.63L79.26 248.88L75.17 252.95L76.43 258.76L81.78 260.52ZM118.13 174.97L116.87 169.14L111.50 167.38L107.39 171.46L108.65 177.29L114.02 179.05ZM130.48 162.74L129.23 156.90L123.85 155.14L119.73 159.22L120.99 165.06L126.36 166.82ZM120.99 165.06L119.73 159.22L114.36 157.47L110.24 161.55L111.50 167.38L116.87 169.14ZM133.34 152.82L132.09 146.98L126.71 145.22L122.59 149.31L123.85 155.14L129.23 156.90ZM136.21 142.90L134.95 137.06L129.58 135.30L125.45 139.39L126.71 145.22L132.09 146.98ZM6.39 165.67L5.12 159.84L-0.24 158.11L-4.33 162.19L-3.06 168.02L2.30 169.75ZM9.21 155.76L7.94 149.93L2.57 148.20L-1.52 152.29L-0.24 158.11L5.12 159.84ZM167.86 33.56L166.60 27.70L161.20 25.93L157.06 30.03L158.32 35.89L163.72 37.66ZM158.32 35.89L157.06 30.03L151.66 28.27L147.52 32.37L148.78 38.23L154.18 39.99ZM170.75 23.60L169.49 17.73L164.09 15.97L159.95 20.07L161.20 25.93L166.60 27.70ZM161.20 25.93L159.95 20.07L154.55 18.31L150.40 22.41L151.66 28.27L157.06 30.03ZM126.85 52.86L125.59 47.01L120.20 45.26L116.07 49.35L117.33 55.21L122.72 56.96ZM117.33 55.21L116.07 49.35L110.68 47.60L106.55 51.70L107.81 57.55L113.20 59.30ZM129.72 42.91L128.46 37.06L123.07 35.30L118.94 39.40L120.20 45.26L125.59 47.01ZM120.20 45.26L118.94 39.40L113.54 37.65L109.41 41.75L110.68 47.60L116.07 49.35ZM133.50 60.48L132.24 54.62L126.85 52.86L122.72 56.96L123.98 62.81L129.37 64.57ZM123.98 62.81L122.72 56.96L117.33 55.21L113.20 59.30L114.46 65.15L119.85 66.91ZM136.38 50.52L135.12 44.67L129.72 42.91L125.59 47.01L126.85 52.86L132.24 54.62ZM101.16 49.95L99.90 44.10L94.51 42.35L90.38 46.45L91.65 52.30L97.04 54.05ZM91.65 52.30L90.38 46.45L84.99 44.70L80.87 48.80L82.14 54.65L87.53 56.40ZM104.02 40.00L102.76 34.14L97.37 32.39L93.24 36.49L94.51 42.35L99.90 44.10ZM94.51 42.35L93.24 36.49L87.85 34.74L83.73 38.85L84.99 44.70L90.38 46.45ZM107.81 57.55L106.55 51.70L101.16 49.95L97.04 54.05L98.30 59.90L103.69 61.65ZM98.30 59.90L97.04 54.05L91.65 52.30L87.53 56.40L88.79 62.24L94.18 63.99ZM110.68 47.60L109.41 41.75L104.02 40.00L99.90 44.10L101.16 49.95L106.55 51.70ZM142.13 30.61L140.87 24.76L135.47 23.00L131.34 27.10L132.60 32.96L137.99 34.71ZM132.60 32.96L131.34 27.10L125.94 25.34L121.81 29.45L123.07 35.30L128.46 37.06ZM145.01 20.65L143.75 14.79L138.35 13.03L134.21 17.14L135.47 23.00L140.87 24.76ZM135.47 23.00L134.21 17.14L128.81 15.38L124.68 19.49L125.94 25.34L131.34 27.10ZM148.78 38.23L147.52 32.37L142.13 30.61L137.99 34.71L139.25 40.57L144.64 42.33ZM139.25 40.57L137.99 34.71L132.60 32.96L128.46 37.06L129.72 42.91L135.12 44.67ZM151.66 28.27L150.40 22.41L145.01 20.65L140.87 24.76L142.13 30.61L147.52 32.37ZM116.41 27.69L115.15 21.83L109.75 20.08L105.62 24.19L106.89 30.04L112.28 31.79ZM106.89 30.04L105.62 24.19L100.23 22.43L96.10 26.54L97.37 32.39L102.76 34.14ZM119.28 17.73L118.02 11.87L112.62 10.12L108.49 14.22L109.75 20.08L115.15 21.83ZM109.75 20.08L108.49 14.22L103.09 12.47L98.96 16.58L100.23 22.43L105.62 24.19ZM123.07 35.30L121.81 29.45L116.41 27.69L112.28 31.79L113.54 37.65L118.94 39.40ZM113.54 37.65L112.28 31.79L106.89 30.04L102.76 34.14L104.02 40.00L109.41 41.75ZM125.94 25.34L124.68 19.49L119.28 17.73L115.15 21.83L116.41 27.69L121.81 29.45ZM137.28 78.03L136.02 72.18L130.63 70.42L126.50 74.52L127.76 80.37L133.15 82.12ZM127.76 80.37L126.50 74.52L121.11 72.76L116.99 76.85L118.25 82.70L123.63 84.46ZM140.15 68.09L138.89 62.23L133.50 60.48L129.37 64.57L130.63 70.42L136.02 72.18ZM130.63 70.42L129.37 64.57L123.98 62.81L119.85 66.91L121.11 72.76L126.50 74.52ZM143.92 85.64L142.67 79.79L137.28 78.03L133.15 82.12L134.41 87.97L139.79 89.73ZM134.41 87.97L133.15 82.12L127.76 80.37L123.63 84.46L124.89 90.31L130.28 92.06ZM146.80 75.70L145.54 69.85L140.15 68.09L136.02 72.18L137.28 78.03L142.67 79.79ZM111.60 75.10L110.34 69.25L104.95 67.50L100.83 71.59L102.09 77.44L107.48 79.19ZM102.09 77.44L100.83 71.59L95.44 69.84L91.32 73.94L92.59 79.78L97.97 81.53ZM114.46 65.15L113.20 59.30L107.81 57.55L103.69 61.65L104.95 67.50L110.34 69.25ZM104.95 67.50L103.69 61.65L98.30 59.90L94.18 63.99L95.44 69.84L100.83 71.59ZM118.25 82.70L116.99 76.85L111.60 75.10L107.48 79.19L108.74 85.04L114.12 86.79ZM108.74 85.04L107.48 79.19L102.09 77.44L97.97 81.53L99.23 87.38L104.62 89.13ZM121.11 72.76L119.85 66.91L114.46 65.15L110.34 69.25L111.60 75.10L116.99 76.85ZM152.55 55.80L151.30 49.95L145.90 48.19L141.77 52.28L143.03 58.14L148.42 59.90ZM143.03 58.14L141.77 52.28L136.38 50.52L132.24 54.62L133.50 60.48L138.89 62.23ZM155.44 45.85L154.18 39.99L148.78 38.23L144.64 42.33L145.90 48.19L151.30 49.95ZM145.90 48.19L144.64 42.33L139.25 40.57L135.12 44.67L136.38 50.52L141.77 52.28ZM159.20 63.42L157.95 57.56L152.55 55.80L148.42 59.90L149.68 65.75L155.07 67.51ZM149.68 65.75L148.42 59.90L143.03 58.14L138.89 62.23L140.15 68.09L145.54 69.85ZM157.43 8.35L156.17 2.48L150.77 0.72L146.63 4.83L147.89 10.69L153.29 12.45ZM147.89 10.69L146.63 4.83L141.23 3.07L137.09 7.17L138.35 13.03L143.75 14.79ZM160.32 -1.62L159.06 -7.49L153.66 -9.25L149.51 -5.14L150.77 0.72L156.17 2.48ZM150.77 0.72L149.51 -5.14L144.11 -6.90L139.97 -2.79L141.23 3.07L146.63 4.83ZM164.09 15.97L162.83 10.11L157.43 8.35L153.29 12.45L154.55 18.31L159.95 20.07ZM154.55 18.31L153.29 12.45L147.89 10.69L143.75 14.79L145.01 20.65L150.40 22.41ZM166.98 6.01L165.72 0.14L160.32 -1.62L156.17 2.48L157.43 8.35L162.83 10.11ZM131.69 5.42L130.43 -0.44L125.03 -2.20L120.89 1.91L122.15 7.77L127.55 9.52ZM122.15 7.77L120.89 1.91L115.49 0.15L111.36 4.26L112.62 10.12L118.02 11.87ZM125.03 -2.20L123.76 -8.06L118.36 -9.82L114.23 -5.71L115.49 0.15L120.89 1.91ZM138.35 13.03L137.09 7.17L131.69 5.42L127.55 9.52L128.81 15.38L134.21 17.14ZM128.81 15.38L127.55 9.52L122.15 7.77L118.02 11.87L119.28 17.73L124.68 19.49ZM141.23 3.07L139.97 -2.79L134.57 -4.55L130.43 -0.44L131.69 5.42L137.09 7.17ZM169.87 -3.96L168.61 -9.83L163.21 -11.59L159.06 -7.49L160.32 -1.62L165.72 0.14ZM147.69 103.19L146.44 97.34L141.05 95.58L136.92 99.67L138.18 105.52L143.56 107.28ZM138.18 105.52L136.92 99.67L131.54 97.91L127.41 102.00L128.67 107.84L134.05 109.60ZM141.05 95.58L139.79 89.73L134.41 87.97L130.28 92.06L131.54 97.91L136.92 99.67ZM144.82 113.12L143.56 107.28L138.18 105.52L134.05 109.60L135.31 115.45L140.69 117.21ZM153.44 83.31L152.19 77.46L146.80 75.70L142.67 79.79L143.92 85.64L149.31 87.40ZM156.32 73.37L155.07 67.51L149.68 65.75L145.54 69.85L146.80 75.70L152.19 77.46ZM148.58 130.66L147.33 124.81L141.95 123.05L137.82 127.14L139.08 132.98L144.46 134.74Z"/><path data-band="2" fill="#f97316" fill-opacity="0.35" d="M13.69 16.21L12.41 10.36L7.03 8.63L2.92 12.74L4.20 18.59L9.58 20.32ZM4.20 18.59L2.92 12.74L-2.47 11.01L-6.57 15.12L-5.29 20.97L0.09 22.70ZM16.52 6.25L15.25 0.40L9.86 -1.33L5.75 2.78L7.03 8.63L12.41 10.36ZM7.03 8.63L5.75 2.78L0.36 1.05L-3.75 5.16L-2.47 11.01L2.92 12.74ZM20.35 23.79L19.08 17.94L13.69 16.21L9.58 20.32L10.86 26.16L16.24 27.90ZM10.86 26.16L9.58 20.32L4.20 18.59L0.09 22.70L1.37 28.54L6.75 30.27ZM23.19 13.83L21.91 7.99L16.52 6.25L12.41 10.36L13.69 16.21L19.08 17.94ZM19.36 -3.71L18.08 -9.56L12.69 -11.29L8.58 -7.18L9.86 -1.33L15.25 0.40ZM35.53 1.50L34.25 -4.35L28.86 -6.09L24.75 -1.97L26.02 3.87L31.41 5.61ZM26.02 3.87L24.75 -1.97L19.36 -3.71L15.25 0.40L16.52 6.25L21.91 7.99ZM9.86 -1.33L8.58 -7.18L3.19 -8.91L-0.92 -4.80L0.36 1.05L5.75 2.78ZM0.36 1.05L-0.92 -4.80L-6.31 -6.53L-10.41 -2.41L-9.13 3.43L-3.75 5.16ZM24.18 41.32L22.90 35.48L17.52 33.74L13.41 37.85L14.69 43.69L20.07 45.43ZM14.69 43.69L13.41 37.85L8.03 36.12L3.93 40.22L5.20 46.06L10.58 47.80ZM27.01 31.37L25.74 25.53L20.35 23.79L16.24 27.90L17.52 33.74L22.90 35.48ZM17.52 33.74L16.24 27.90L10.86 26.16L6.75 30.27L8.03 36.12L13.41 37.85ZM21.34 51.27L20.07 45.43L14.69 43.69L10.58 47.80L11.86 53.64L17.24 55.37ZM33.67 38.95L32.40 33.11L27.01 31.37L22.90 35.48L24.18 41.32L29.56 43.06ZM1.37 28.54L0.09 22.70L-5.29 20.97L-9.39 25.08L-8.11 30.92L-2.73 32.65ZM5.20 46.06L3.93 40.22L-1.46 38.49L-5.56 42.60L-4.28 48.44L1.10 50.17ZM8.03 36.12L6.75 30.27L1.37 28.54L-2.73 32.65L-1.46 38.49L3.93 40.22ZM39.35 19.05L38.08 13.20L32.69 11.46L28.57 15.57L29.85 21.42L35.24 23.16ZM29.85 21.42L28.57 15.57L23.19 13.83L19.08 17.94L20.35 23.79L25.74 25.53ZM32.69 11.46L31.41 5.61L26.02 3.87L21.91 7.99L23.19 13.83L28.57 15.57ZM36.51 29.00L35.24 23.16L29.85 21.42L25.74 25.53L27.01 31.37L32.40 33.11ZM25.17 68.79L23.89 62.95L18.51 61.21L14.41 65.32L15.69 71.15L21.06 72.89ZM0.56 93.39L-0.71 87.55L-6.09 85.82L-10.18 89.92L-8.91 95.75L-3.53 97.48ZM3.38 83.45L2.11 77.62L-3.27 75.89L-7.36 79.99L-6.09 85.82L-0.71 87.55ZM9.03 63.58L7.76 57.74L2.38 56.01L-1.72 60.11L-0.45 65.95L4.93 67.68ZM11.86 53.64L10.58 47.80L5.20 46.06L1.10 50.17L2.38 56.01L7.76 57.74ZM2.38 56.01L1.10 50.17L-4.28 48.44L-8.38 52.54L-7.10 58.38L-1.72 60.11ZM15.69 71.15L14.41 65.32L9.03 63.58L4.93 67.68L6.21 73.52L11.58 75.25ZM6.21 73.52L4.93 67.68L-0.45 65.95L-4.54 70.05L-3.27 75.89L2.11 77.62ZM18.51 61.21L17.24 55.37L11.86 53.64L7.76 57.74L9.03 63.58L14.41 65.32ZM4.39 110.88L3.11 105.05L-2.26 103.31L-6.35 107.41L-5.08 113.24L0.29 114.97ZM7.21 100.95L5.93 95.12L0.56 93.39L-3.53 97.48L-2.26 103.31L3.11 105.05ZM11.03 118.45L9.76 112.62L4.39 110.88L0.29 114.97L1.57 120.80L6.94 122.54ZM1.57 120.80L0.29 114.97L-5.08 113.24L-9.17 117.33L-7.89 123.16L-2.52 124.90ZM13.85 108.52L12.58 102.69L7.21 100.95L3.11 105.05L4.39 110.88L9.76 112.62ZM19.51 88.66L18.23 82.83L12.86 81.09L8.76 85.19L10.03 91.02L15.41 92.76ZM10.03 91.02L8.76 85.19L3.38 83.45L-0.71 87.55L0.56 93.39L5.93 95.12ZM22.34 78.73L21.06 72.89L15.69 71.15L11.58 75.25L12.86 81.09L18.23 82.83ZM12.86 81.09L11.58 75.25L6.21 73.52L2.11 77.62L3.38 83.45L8.76 85.19ZM8.21 128.37L6.94 122.54L1.57 120.80L-2.52 124.90L-1.25 130.72L4.12 132.46ZM2.57 148.20L1.30 142.37L-4.07 140.64L-8.15 144.73L-6.88 150.55L-1.52 152.29Z"/></svg>
