<svg xmlns="http://www.w3.org/2000/svg" width="256" height="256" viewBox="0 0 256 256"><path data-band="1" fill="#fde68a" fill-opacity="0.35" d="M23.12 1.59L22.48 -1.25L19.88 -2.11L17.91 -0.13L18.55 2.70L21.15 3.56ZM18.55 2.70L17.91 -0.13L15.31 -0.99L13.34 0.98L13.98 3.81L16.58 4.67ZM26.36 5.28L25.72 2.45L23.12 1.59L21.15 3.56L21.79 6.39L24.39 7.25ZM21.79 6.39L21.15 3.56L18.55 2.70L16.58 4.67L17.22 7.50L19.82 8.36ZM27.69 0.48L27.06 -2.36L24.45 -3.22L22.48 -1.25L23.12 1.59L25.72 2.45ZM10.74 0.12L10.10 -2.71L7.50 -3.57L5.54 -1.59L6.17 1.24L8.78 2.09ZM6.17 1.24L5.54 -1.59L2.93 -2.45L0.97 -0.48L1.61 2.35L4.21 3.21ZM13.98 3.81L13.34 0.98L10.74 0.12L8.78 2.09L9.41 4.92L12.01 5.78ZM9.41 4.92L8.78 2.09L6.17 1.24L4.21 3.21L4.85 6.04L7.45 6.90ZM15.31 -0.99L14.67 -3.82L12.07 -4.68L10.10 -2.71L10.74 0.12L13.34 0.98ZM28.26 13.77L27.62 10.94L25.02 10.08L23.05 12.05L23.69 14.88L26.29 15.74ZM23.69 14.88L23.05 12.05L20.45 11.19L18.49 13.16L19.12 15.99L21.72 16.85ZM29.59 8.97L28.96 6.14L26.36 5.28L24.39 7.25L25.02 10.08L27.62 10.94ZM25.02 10.08L24.39 7.25L21.79 6.39L19.82 8.36L20.45 11.19L23.05 12.05ZM31.49 17.47L30.86 14.64L28.26 13.77L26.29 15.74L26.92 18.57L29.52 19.43ZM26.92 18.57L26.29 15.74L23.69 14.88L21.72 16.85L22.35 19.68L24.95 20.54ZM32.83 12.67L32.20 9.83L29.59 8.97L27.62 10.94L28.26 13.77L30.86 14.64ZM15.88 12.30L15.25 9.47L12.65 8.61L10.68 10.58L11.32 13.41L13.92 14.27ZM11.32 13.41L10.68 10.58L8.08 9.72L6.12 11.70L6.75 14.52L9.35 15.38ZM17.22 7.50L16.58 4.67L13.98 3.81L12.01 5.78L12.65 8.61L15.25 9.47ZM12.65 8.61L12.01 5.78L9.41 4.92L7.45 6.90L8.08 9.72L10.68 10.58ZM19.12 15.99L18.49 13.16L15.88 12.30L13.92 14.27L14.55 17.10L17.15 17.96ZM14.55 17.10L13.92 14.27L11.32 13.41L9.35 15.38L9.99 18.21L12.59 19.07ZM20.45 11.19L19.82 8.36L17.22 7.50L15.25 9.47L15.88 12.30L18.49 13.16ZM35.50 3.06L34.87 0.23L32.27 -0.63L30.30 1.34L30.93 4.17L33.53 5.03ZM30.93 4.17L30.30 1.34L27.69 0.48L25.72 2.45L26.36 5.28L28.96 6.14ZM36.84 -1.74L36.21 -4.58L33.61 -5.44L31.63 -3.47L32.27 -0.63L34.87 0.23ZM32.27 -0.63L31.63 -3.47L29.03 -4.33L27.06 -2.36L27.69 0.48L30.30 1.34ZM38.74 6.76L38.11 3.92L35.50 3.06L33.53 5.03L34.17 7.87L36.77 8.73ZM34.17 7.87L33.53 5.03L30.93 4.17L28.96 6.14L29.59 8.97L32.20 9.83ZM40.08 1.95L39.45 -0.88L36.84 -1.74L34.87 0.23L35.50 3.06L38.11 3.92ZM1.61 2.35L0.97 -0.48L-1.63 -1.33L-3.59 0.64L-2.96 3.47L-0.36 4.32ZM0.87 20.43L0.23 17.61L-2.37 16.75L-4.33 18.72L-3.69 21.55L-1.09 22.40ZM3.52 10.84L2.88 8.01L0.28 7.15L-1.68 9.12L-1.04 11.95L1.56 12.81ZM4.85 6.04L4.21 3.21L1.61 2.35L-0.36 4.32L0.28 7.15L2.88 8.01ZM0.28 7.15L-0.36 4.32L-2.96 3.47L-4.92 5.44L-4.28 8.27L-1.68 9.12ZM6.75 14.52L6.12 11.70L3.52 10.84L1.56 12.81L2.19 15.64L4.79 16.49ZM2.19 15.64L1.56 12.81L-1.04 11.95L-3.01 13.92L-2.37 16.75L0.23 17.61ZM8.08 9.72L7.45 6.90L4.85 6.04L2.88 8.01L3.52 10.84L6.12 11.70ZM28.82 27.06L28.19 24.23L25.59 23.37L23.62 25.34L24.25 28.17L26.85 29.03ZM34.73 21.16L34.09 18.33L31.49 17.47L29.52 19.43L30.16 22.26L32.76 23.13ZM30.16 22.26L29.52 19.43L26.92 18.57L24.95 20.54L25.59 23.37L28.19 24.23ZM49.79 13.05L49.16 10.21L46.55 9.35L44.58 11.32L45.21 14.15L47.82 15.02ZM40.64 15.26L40.01 12.42L37.40 11.56L35.43 13.53L36.06 16.36L38.67 17.22ZM36.06 16.36L35.43 13.53L32.83 12.67L30.86 14.64L31.49 17.47L34.09 18.33ZM41.98 10.45L41.35 7.62L38.74 6.76L36.77 8.73L37.40 11.56L40.01 12.42ZM37.40 11.56L36.77 8.73L34.17 7.87L32.20 9.83L32.83 12.67L35.43 13.53ZM45.21 14.15L44.58 11.32L41.98 10.45L40.01 12.42L40.64 15.26L43.24 16.12ZM13.80 35.17L13.16 32.35L10.57 31.49L8.60 33.45L9.24 36.28L11.84 37.14ZM9.24 36.28L8.60 33.45L6.01 32.59L4.05 34.56L4.68 37.39L7.28 38.24ZM15.13 30.38L14.49 27.55L11.89 26.69L9.93 28.66L10.57 31.49L13.16 32.35ZM10.57 31.49L9.93 28.66L7.33 27.80L5.37 29.77L6.01 32.59L8.60 33.45ZM18.36 34.07L17.73 31.24L15.13 30.38L13.16 32.35L13.80 35.17L16.40 36.03ZM1.45 33.70L0.81 30.88L-1.78 30.02L-3.74 31.99L-3.11 34.81L-0.51 35.67ZM2.77 28.91L2.14 26.09L-0.46 25.23L-2.42 27.20L-1.78 30.02L0.81 30.88ZM4.68 37.39L4.05 34.56L1.45 33.70L-0.51 35.67L0.13 38.49L2.72 39.35ZM0.13 38.49L-0.51 35.67L-3.11 34.81L-5.06 36.78L-4.43 39.60L-1.83 40.46ZM6.01 32.59L5.37 29.77L2.77 28.91L0.81 30.88L1.45 33.70L4.05 34.56ZM21.02 24.48L20.39 21.65L17.79 20.79L15.82 22.76L16.46 25.58L19.06 26.44ZM16.46 25.58L15.82 22.76L13.22 21.90L11.26 23.87L11.89 26.69L14.49 27.55ZM22.35 19.68L21.72 16.85L19.12 15.99L17.15 17.96L17.79 20.79L20.39 21.65ZM17.79 20.79L17.15 17.96L14.55 17.10L12.59 19.07L13.22 21.90L15.82 22.76ZM24.25 28.17L23.62 25.34L21.02 24.48L19.06 26.44L19.69 29.27L22.29 30.13ZM19.69 29.27L19.06 26.44L16.46 25.58L14.49 27.55L15.13 30.38L17.73 31.24ZM25.59 23.37L24.95 20.54L22.35 19.68L20.39 21.65L21.02 24.48L23.62 25.34ZM8.66 23.01L8.03 20.18L5.43 19.32L3.46 21.29L4.10 24.12L6.70 24.97ZM4.10 24.12L3.46 21.29L0.87 20.43L-1.09 22.40L-0.46 25.23L2.14 26.09ZM9.99 18.21L9.35 15.38L6.75 14.52L4.79 16.49L5.43 19.32L8.03 20.18ZM5.43 19.32L4.79 16.49L2.19 15.64L0.23 17.61L0.87 20.43L3.46 21.29ZM11.89 26.69L11.26 23.87L8.66 23.01L6.70 24.97L7.33 27.80L9.93 28.66ZM7.33 27.80L6.70 24.97L4.10 24.12L2.14 26.09L2.77 28.91L5.37 29.77ZM13.22 21.90L12.59 19.07L9.99 18.21L8.03 20.18L8.66 23.01L11.26 23.87ZM7.91 41.07L7.28 38.24L4.68 37.39L2.72 39.35L3.36 42.17L5.95 43.03ZM3.36 42.17L2.72 39.35L0.13 38.49L-1.83 40.46L-1.20 43.28L1.40 44.14ZM53.82 -1.36L53.19 -4.20L50.59 -5.07L48.61 -3.09L49.24 -0.26L51.85 0.61ZM55.71 7.14L55.08 4.31L52.48 3.44L50.50 5.41L51.13 8.25L53.74 9.11ZM57.06 2.34L56.43 -0.50L53.82 -1.36L51.85 0.61L52.48 3.44L55.08 4.31ZM47.90 4.55L47.27 1.71L44.66 0.85L42.69 2.82L43.32 5.65L45.92 6.52ZM43.32 5.65L42.69 2.82L40.08 1.95L38.11 3.92L38.74 6.76L41.35 7.62ZM49.24 -0.26L48.61 -3.09L46.00 -3.96L44.03 -1.99L44.66 0.85L47.27 1.71ZM44.66 0.85L44.03 -1.99L41.42 -2.85L39.45 -0.88L40.08 1.95L42.69 2.82ZM51.13 8.25L50.50 5.41L47.90 4.55L45.92 6.52L46.55 9.35L49.16 10.21ZM46.55 9.35L45.92 6.52L43.32 5.65L41.35 7.62L41.98 10.45L44.58 11.32ZM52.48 3.44L51.85 0.61L49.24 -0.26L47.27 1.71L47.90 4.55L50.50 5.41Z"/></svg>
