<svg xmlns="http://www.w3.org/2000/svg" width="256" height="256" viewBox="0 0 256 256"><path data-band="1" fill="#fde68a" fill-opacity="0.35" d="M264.56 114.29L263.10 108.55L257.80 107.06L253.95 111.32L255.41 117.06L260.72 118.54ZM259.79 134.28L258.33 128.54L253.03 127.06L249.19 131.31L250.65 137.05L255.95 138.53ZM262.18 124.29L260.72 118.54L255.41 117.06L251.57 121.32L253.03 127.06L258.33 128.54ZM265.35 39.75L263.88 34.00L258.57 32.52L254.72 36.79L256.18 42.54L261.49 44.02ZM256.18 42.54L254.72 36.79L249.40 35.31L245.55 39.58L247.02 45.33L252.33 46.81ZM263.35 12.46L261.88 6.70L256.56 5.22L252.71 9.50L254.17 15.25L259.49 16.73ZM247.16 258.39L245.70 252.67L240.42 251.19L236.60 255.42L238.05 261.13L243.33 262.62ZM258.64 245.70L257.18 239.98L251.90 238.49L248.07 242.72L249.53 248.44L254.81 249.93ZM261.01 235.74L259.56 230.02L254.27 228.53L250.44 232.76L251.90 238.49L257.18 239.98ZM265.37 252.91L263.92 247.19L258.64 245.70L254.81 249.93L256.26 255.65L261.54 257.14ZM256.26 255.65L254.81 249.93L249.53 248.44L245.70 252.67L247.16 258.39L252.44 259.88ZM264.17 151.49L262.71 145.76L257.41 144.27L253.57 148.52L255.03 154.26L260.33 155.74ZM266.55 141.51L265.09 135.77L259.79 134.28L255.95 138.53L257.41 144.27L262.71 145.76ZM261.79 161.48L260.33 155.74L255.03 154.26L251.19 158.51L252.65 164.24L257.95 165.73ZM261.40 198.63L259.94 192.90L254.65 191.41L250.82 195.66L252.27 201.38L257.56 202.87ZM263.78 188.66L262.32 182.93L257.03 181.44L253.19 185.68L254.65 191.41L259.94 192.90ZM259.02 208.60L257.56 202.87L252.27 201.38L248.44 205.62L249.90 211.35L255.19 212.84ZM266.16 178.68L264.70 172.95L259.41 171.46L255.57 175.71L257.03 181.44L262.32 182.93ZM263.00 262.86L261.54 257.14L256.26 255.65L252.44 259.88L253.89 265.60L259.17 267.09ZM263.39 225.78L261.93 220.06L256.64 218.57L252.81 222.80L254.27 228.53L259.56 230.02ZM265.77 215.82L264.31 210.09L259.02 208.60L255.19 212.84L256.64 218.57L261.93 220.06Z"/></svg>
