<svg xmlns="http://www.w3.org/2000/svg" width="256" height="256" viewBox="0 0 256 256"><path data-band="1" fill="#fde68a" fill-opacity="0.35" d="M247.67 177.27L246.22 171.58L240.96 170.08L237.16 174.28L238.61 179.98L243.86 181.47ZM238.61 179.98L237.16 174.28L231.91 172.79L228.11 176.99L229.56 182.68L234.81 184.17ZM250.02 167.38L248.57 161.69L243.32 160.19L239.52 164.39L240.96 170.08L246.22 171.58ZM240.96 170.08L239.52 164.39L234.26 162.90L230.46 167.10L231.91 172.79L237.16 174.28ZM254.37 184.46L252.92 178.77L247.67 177.27L243.86 181.47L245.31 187.16L250.56 188.66ZM245.31 187.16L243.86 181.47L238.61 179.98L234.81 184.17L236.26 189.86L241.51 191.36ZM256.72 174.57L255.28 168.88L250.02 167.38L246.22 171.58L247.67 177.27L252.92 178.77ZM229.56 182.68L228.11 176.99L222.86 175.50L219.06 179.69L220.51 185.38L225.76 186.88ZM261.45 154.78L260.00 149.08L254.74 147.58L250.93 151.79L252.38 157.48L257.64 158.98ZM252.38 157.48L250.93 151.79L245.68 150.29L241.87 154.49L243.32 160.19L248.57 161.69ZM263.81 144.88L262.37 139.18L257.11 137.68L253.29 141.89L254.74 147.58L260.00 149.08ZM254.74 147.58L253.29 141.89L248.04 140.39L244.23 144.59L245.68 150.29L250.93 151.79ZM259.09 164.68L257.64 158.98L252.38 157.48L248.57 161.69L250.02 167.38L255.28 168.88ZM243.32 160.19L241.87 154.49L236.62 153.00L232.81 157.20L234.26 162.90L239.52 164.39ZM245.68 150.29L244.23 144.59L238.97 143.10L235.17 147.30L236.62 153.00L241.87 154.49ZM258.70 201.54L257.26 195.85L252.01 194.35L248.20 198.55L249.65 204.24L254.90 205.73ZM249.65 204.24L248.20 198.55L242.95 197.05L239.15 201.24L240.60 206.93L245.85 208.43ZM261.06 191.66L259.62 185.96L254.37 184.46L250.56 188.66L252.01 194.35L257.26 195.85ZM252.01 194.35L250.56 188.66L245.31 187.16L241.51 191.36L242.95 197.05L248.20 198.55ZM265.40 208.73L263.95 203.04L258.70 201.54L254.90 205.73L256.34 211.42L261.59 212.92ZM256.34 211.42L254.90 205.73L249.65 204.24L245.85 208.43L247.30 214.12L252.54 215.62ZM233.91 199.75L232.46 194.06L227.21 192.57L223.41 196.76L224.86 202.45L230.11 203.94ZM224.86 202.45L223.41 196.76L218.17 195.27L214.37 199.46L215.82 205.15L221.07 206.64ZM236.26 189.86L234.81 184.17L229.56 182.68L225.76 186.88L227.21 192.57L232.46 194.06ZM227.21 192.57L225.76 186.88L220.51 185.38L216.72 189.58L218.17 195.27L223.41 196.76ZM240.60 206.93L239.15 201.24L233.91 199.75L230.11 203.94L231.56 209.63L236.80 211.12ZM231.56 209.63L230.11 203.94L224.86 202.45L221.07 206.64L222.52 212.33L227.76 213.82ZM242.95 197.05L241.51 191.36L236.26 189.86L232.46 194.06L233.91 199.75L239.15 201.24ZM263.42 181.77L261.98 176.07L256.72 174.57L252.92 178.77L254.37 184.46L259.62 185.96ZM265.79 171.87L264.34 166.18L259.09 164.68L255.28 168.88L256.72 174.57L261.98 176.07ZM264.20 107.95L262.75 102.24L257.49 100.75L253.67 104.96L255.12 110.66L260.39 112.16ZM255.12 110.66L253.67 104.96L248.41 103.46L244.59 107.68L246.05 113.38L251.31 114.87ZM257.49 100.75L256.04 95.04L250.77 93.55L246.96 97.76L248.41 103.46L253.67 104.96ZM261.83 117.86L260.39 112.16L255.12 110.66L251.31 114.87L252.76 120.58L258.02 122.07ZM239.33 106.18L237.88 100.48L232.62 98.99L228.81 103.20L230.26 108.90L235.52 110.39ZM230.26 108.90L228.81 103.20L223.55 101.71L219.74 105.92L221.19 111.62L226.45 113.11ZM241.69 96.27L240.24 90.56L234.97 89.07L231.16 93.29L232.62 98.99L237.88 100.48ZM232.62 98.99L231.16 93.29L225.90 91.80L222.09 96.01L223.55 101.71L228.81 103.20ZM246.05 113.38L244.59 107.68L239.33 106.18L235.52 110.39L236.97 116.10L242.23 117.59ZM236.97 116.10L235.52 110.39L230.26 108.90L226.45 113.11L227.91 118.81L233.17 120.30ZM248.41 103.46L246.96 97.76L241.69 96.27L237.88 100.48L239.33 106.18L244.59 107.68ZM253.13 83.63L251.68 77.92L246.42 76.42L242.60 80.64L244.05 86.35L249.32 87.84ZM244.05 86.35L242.60 80.64L237.33 79.15L233.52 83.37L234.97 89.07L240.24 90.56ZM255.50 73.70L254.05 67.99L248.78 66.50L244.96 70.72L246.42 76.42L251.68 77.92ZM246.42 76.42L244.96 70.72L239.69 69.23L235.88 73.44L237.33 79.15L242.60 80.64ZM259.85 90.83L258.40 85.12L253.13 83.63L249.32 87.84L250.77 93.55L256.04 95.04ZM250.77 93.55L249.32 87.84L244.05 86.35L240.24 90.56L241.69 96.27L246.96 97.76ZM262.22 80.91L260.77 75.20L255.50 73.70L251.68 77.92L253.13 83.63L258.40 85.12ZM266.18 134.97L264.73 129.27L259.47 127.77L255.66 131.98L257.11 137.68L262.37 139.18ZM250.40 130.48L248.95 124.78L243.69 123.29L239.88 127.50L241.33 133.20L246.59 134.69ZM241.33 133.20L239.88 127.50L234.62 126.00L230.81 130.21L232.26 135.91L237.52 137.40ZM252.76 120.58L251.31 114.87L246.05 113.38L242.23 117.59L243.69 123.29L248.95 124.78ZM243.69 123.29L242.23 117.59L236.97 116.10L233.17 120.30L234.62 126.00L239.88 127.50ZM257.11 137.68L255.66 131.98L250.40 130.48L246.59 134.69L248.04 140.39L253.29 141.89ZM248.04 140.39L246.59 134.69L241.33 133.20L237.52 137.40L238.97 143.10L244.23 144.59ZM259.47 127.77L258.02 122.07L252.76 120.58L248.95 124.78L250.40 130.48L255.66 131.98ZM260.68 228.49L259.23 222.80L253.99 221.30L250.19 225.49L251.63 231.18L256.88 232.68ZM263.04 218.61L261.59 212.92L256.34 211.42L252.54 215.62L253.99 221.30L259.23 222.80ZM191.06 203.39L189.61 197.70L184.37 196.22L180.58 200.41L182.03 206.09L187.27 207.58ZM182.03 206.09L180.58 200.41L175.34 198.93L171.56 203.12L173.01 208.80L178.25 210.29ZM195.42 220.43L193.97 214.75L188.73 213.26L184.94 217.45L186.40 223.13L191.63 224.62ZM186.40 223.13L184.94 217.45L179.70 215.97L175.92 220.16L177.38 225.84L182.61 227.32ZM197.76 210.56L196.30 204.87L191.06 203.39L187.27 207.58L188.73 213.26L193.97 214.75ZM188.73 213.26L187.27 207.58L182.03 206.09L178.25 210.29L179.70 215.97L184.94 217.45ZM202.11 227.60L200.66 221.92L195.42 220.43L191.63 224.62L193.09 230.30L198.32 231.79ZM193.09 230.30L191.63 224.62L186.40 223.13L182.61 227.32L184.07 233.00L189.30 234.49ZM204.45 217.73L203.00 212.04L197.76 210.56L193.97 214.75L195.42 220.43L200.66 221.92ZM179.70 215.97L178.25 210.29L173.01 208.80L169.23 213.00L170.69 218.68L175.92 220.16ZM209.13 197.97L207.68 192.29L202.43 190.80L198.64 194.99L200.09 200.68L205.34 202.17ZM200.09 200.68L198.64 194.99L193.40 193.51L189.61 197.70L191.06 203.39L196.30 204.87ZM215.82 205.15L214.37 199.46L209.13 197.97L205.34 202.17L206.79 207.85L212.03 209.34ZM206.79 207.85L205.34 202.17L200.09 200.68L196.30 204.87L197.76 210.56L203.00 212.04ZM218.17 195.27L216.72 189.58L211.47 188.09L207.68 192.29L209.13 197.97L214.37 199.46ZM214.48 104.44L213.02 98.74L207.76 97.25L203.96 101.46L205.42 107.16L210.68 108.65ZM216.83 94.52L215.37 88.82L210.11 87.33L206.31 91.55L207.76 97.25L213.02 98.74ZM221.19 111.62L219.74 105.92L214.48 104.44L210.68 108.65L212.13 114.35L217.39 115.84ZM212.13 114.35L210.68 108.65L205.42 107.16L201.62 111.37L203.07 117.07L208.33 118.56ZM223.55 101.71L222.09 96.01L216.83 94.52L213.02 98.74L214.48 104.44L219.74 105.92ZM247.16 2.39L245.70 -3.33L240.42 -4.81L236.60 -0.58L238.05 5.13L243.33 6.62ZM253.89 9.60L252.44 3.88L247.16 2.39L243.33 6.62L244.79 12.34L250.07 13.83ZM265.37 -3.09L263.92 -8.81L258.64 -10.30L254.81 -6.07L256.26 -0.35L261.54 1.14ZM256.26 -0.35L254.81 -6.07L249.53 -7.56L245.70 -3.33L247.16 2.39L252.44 3.88ZM255.88 36.70L254.43 30.98L249.15 29.49L245.33 33.72L246.79 39.43L252.06 40.92ZM246.79 39.43L245.33 33.72L240.06 32.23L236.24 36.45L237.69 42.16L242.97 43.65ZM258.25 26.76L256.80 21.04L251.52 19.55L247.70 23.77L249.15 29.49L254.43 30.98ZM262.61 43.91L261.16 38.19L255.88 36.70L252.06 40.92L253.51 46.63L258.79 48.13ZM253.51 46.63L252.06 40.92L246.79 39.43L242.97 43.65L244.42 49.36L249.69 50.86ZM264.98 33.97L263.53 28.25L258.25 26.76L254.43 30.98L255.88 36.70L261.16 38.19ZM260.62 16.81L259.17 11.09L253.89 9.60L250.07 13.83L251.52 19.55L256.80 21.04ZM263.00 6.86L261.54 1.14L256.26 -0.35L252.44 3.88L253.89 9.60L259.17 11.09ZM257.87 63.77L256.42 58.06L251.15 56.57L247.33 60.79L248.78 66.50L254.05 67.99ZM260.24 53.84L258.79 48.13L253.51 46.63L249.69 50.86L251.15 56.57L256.42 58.06ZM264.59 70.98L263.14 65.27L257.87 63.77L254.05 67.99L255.50 73.70L260.77 75.20ZM228.26 81.88L226.80 76.17L221.54 74.68L217.73 78.90L219.18 84.60L224.45 86.09ZM219.18 84.60L217.73 78.90L212.46 77.41L208.66 81.63L210.11 87.33L215.37 88.82ZM234.97 89.07L233.52 83.37L228.26 81.88L224.45 86.09L225.90 91.80L231.16 93.29ZM225.90 91.80L224.45 86.09L219.18 84.60L215.37 88.82L216.83 94.52L222.09 96.01ZM237.33 79.15L235.88 73.44L230.61 71.95L226.80 76.17L228.26 81.88L233.52 83.37ZM242.06 59.30L240.60 53.59L235.33 52.10L231.52 56.32L232.97 62.03L238.24 63.52ZM244.42 49.36L242.97 43.65L237.69 42.16L233.88 46.39L235.33 52.10L240.60 53.59ZM248.78 66.50L247.33 60.79L242.06 59.30L238.24 63.52L239.69 69.23L244.96 70.72ZM239.69 69.23L238.24 63.52L232.97 62.03L229.16 66.25L230.61 71.95L235.88 73.44ZM251.15 56.57L249.69 50.86L244.42 49.36L240.60 53.59L242.06 59.30L247.33 60.79ZM231.21 246.43L229.76 240.74L224.52 239.25L220.73 243.44L222.18 249.12L227.41 250.61ZM222.18 249.12L220.73 243.44L215.49 241.94L211.70 246.13L213.15 251.81L218.39 253.30ZM233.55 236.56L232.11 230.87L226.86 229.38L223.07 233.57L224.52 239.25L229.76 240.74ZM224.52 239.25L223.07 233.57L217.83 232.07L214.04 236.26L215.49 241.94L220.73 243.44ZM237.89 253.60L236.45 247.92L231.21 246.43L227.41 250.61L228.86 256.29L234.10 257.79ZM228.86 256.29L227.41 250.61L222.18 249.12L218.39 253.30L219.83 258.98L225.07 260.47ZM240.24 243.74L238.79 238.05L233.55 236.56L229.76 240.74L231.21 246.43L236.45 247.92ZM206.46 244.64L205.01 238.96L199.78 237.47L195.99 241.66L197.44 247.33L202.68 248.82ZM197.44 247.33L195.99 241.66L190.75 240.17L186.97 244.35L188.42 250.03L193.66 251.52ZM208.80 234.77L207.35 229.09L202.11 227.60L198.32 231.79L199.78 237.47L205.01 238.96ZM199.78 237.47L198.32 231.79L193.09 230.30L189.30 234.49L190.75 240.17L195.99 241.66ZM213.15 251.81L211.70 246.13L206.46 244.64L202.68 248.82L204.13 254.50L209.36 255.99ZM204.13 254.50L202.68 248.82L197.44 247.33L193.66 251.52L195.11 257.19L200.34 258.68ZM215.49 241.94L214.04 236.26L208.80 234.77L205.01 238.96L206.46 244.64L211.70 246.13ZM244.94 223.99L243.50 218.31L238.25 216.81L234.45 221.00L235.90 226.69L241.14 228.18ZM235.90 226.69L234.45 221.00L229.21 219.51L225.41 223.70L226.86 229.38L232.11 230.87ZM247.30 214.12L245.85 208.43L240.60 206.93L236.80 211.12L238.25 216.81L243.50 218.31ZM238.25 216.81L236.80 211.12L231.56 209.63L227.76 213.82L229.21 219.51L234.45 221.00ZM251.63 231.18L250.19 225.49L244.94 223.99L241.14 228.18L242.59 233.87L247.83 235.37ZM242.59 233.87L241.14 228.18L235.90 226.69L232.11 230.87L233.55 236.56L238.79 238.05ZM253.99 221.30L252.54 215.62L247.30 214.12L243.50 218.31L244.94 223.99L250.19 225.49ZM220.17 222.20L218.72 216.52L213.48 215.03L209.69 219.22L211.14 224.90L216.38 226.39ZM211.14 224.90L209.69 219.22L204.45 217.73L200.66 221.92L202.11 227.60L207.35 229.09ZM222.52 212.33L221.07 206.64L215.82 205.15L212.03 209.34L213.48 215.03L218.72 216.52ZM213.48 215.03L212.03 209.34L206.79 207.85L203.00 212.04L204.45 217.73L209.69 219.22ZM226.86 229.38L225.41 223.70L220.17 222.20L216.38 226.39L217.83 232.07L223.07 233.57ZM217.83 232.07L216.38 226.39L211.14 224.90L207.35 229.09L208.80 234.77L214.04 236.26ZM229.21 219.51L227.76 213.82L222.52 212.33L218.72 216.52L220.17 222.20L225.41 223.70ZM244.58 260.78L243.13 255.10L237.89 253.60L234.10 257.79L235.54 263.47L240.78 264.97ZM210.81 261.67L209.36 255.99L204.13 254.50L200.34 258.68L201.79 264.36L207.03 265.85ZM265.01 245.55L263.57 239.87L258.32 238.37L254.52 242.55L255.97 248.23L261.21 249.74ZM170.40 255.43L168.95 249.76L163.72 248.27L159.94 252.46L161.40 258.13L166.63 259.61ZM161.40 258.13L159.94 252.46L154.71 250.97L150.94 255.16L152.39 260.83L157.62 262.31ZM177.08 262.59L175.63 256.91L170.40 255.43L166.63 259.61L168.08 265.28L173.31 266.77ZM181.74 242.87L180.28 237.19L175.05 235.70L171.27 239.89L172.72 245.57L177.96 247.05ZM172.72 245.57L171.27 239.89L166.04 238.41L162.26 242.60L163.72 248.27L168.95 249.76ZM184.07 233.00L182.61 227.32L177.38 225.84L173.60 230.03L175.05 235.70L180.28 237.19ZM175.05 235.70L173.60 230.03L168.36 228.54L164.58 232.74L166.04 238.41L171.27 239.89ZM188.42 250.03L186.97 244.35L181.74 242.87L177.96 247.05L179.41 252.73L184.64 254.22ZM179.41 252.73L177.96 247.05L172.72 245.57L168.95 249.76L170.40 255.43L175.63 256.91ZM190.75 240.17L189.30 234.49L184.07 233.00L180.28 237.19L181.74 242.87L186.97 244.35ZM157.03 241.12L155.57 235.44L150.34 233.96L146.57 238.15L148.03 243.82L153.26 245.30ZM163.72 248.27L162.26 242.60L157.03 241.12L153.26 245.30L154.71 250.97L159.94 252.46ZM166.04 238.41L164.58 232.74L159.35 231.25L155.57 235.44L157.03 241.12L162.26 242.60ZM195.11 257.19L193.66 251.52L188.42 250.03L184.64 254.22L186.09 259.89L191.33 261.38ZM186.09 259.89L184.64 254.22L179.41 252.73L175.63 256.91L177.08 262.59L182.32 264.07Z"/></svg>
