<svg xmlns="http://www.w3.org/2000/svg" width="256" height="256" viewBox="0 0 256 256"><path data-band="1" fill="#fde68a" fill-opacity="0.35" d="M258.01 229.18L256.58 223.53L251.37 222.02L247.60 226.17L249.04 231.81L254.24 233.32ZM260.35 219.39L258.92 213.74L253.71 212.23L249.94 216.37L251.37 222.02L256.58 223.53ZM264.65 236.34L263.22 230.69L258.01 229.18L254.24 233.32L255.67 238.97L260.88 240.48ZM228.77 246.86L227.33 241.22L222.13 239.71L218.37 243.85L219.81 249.49L225.00 251.00ZM231.09 237.08L229.66 231.43L224.46 229.93L220.69 234.07L222.13 239.71L227.33 241.22ZM222.13 239.71L220.69 234.07L215.49 232.56L211.73 236.70L213.17 242.35L218.37 243.85ZM235.40 254.01L233.97 248.37L228.77 246.86L225.00 251.00L226.44 256.64L231.64 258.14ZM237.73 244.23L236.30 238.58L231.09 237.08L227.33 241.22L228.77 246.86L233.97 248.37ZM249.04 231.81L247.60 226.17L242.40 224.66L238.63 228.80L240.06 234.44L245.27 235.95ZM240.06 234.44L238.63 228.80L233.42 227.29L229.66 231.43L231.09 237.08L236.30 238.58ZM251.37 222.02L249.94 216.37L244.73 214.87L240.96 219.01L242.40 224.66L247.60 226.17ZM217.82 222.78L216.38 217.13L211.18 215.63L207.41 219.77L208.85 225.42L214.05 226.92ZM208.85 225.42L207.41 219.77L202.21 218.27L198.45 222.42L199.89 228.06L205.09 229.56ZM224.46 229.93L223.02 224.28L217.82 222.78L214.05 226.92L215.49 232.56L220.69 234.07ZM215.49 232.56L214.05 226.92L208.85 225.42L205.09 229.56L206.53 235.20L211.73 236.70ZM226.78 220.14L225.35 214.49L220.14 212.99L216.38 217.13L217.82 222.78L223.02 224.28ZM242.04 261.16L240.60 255.52L235.40 254.01L231.64 258.14L233.07 263.78L238.27 265.29ZM253.34 248.75L251.90 243.11L246.70 241.60L242.93 245.74L244.37 251.38L249.57 252.89ZM244.37 251.38L242.93 245.74L237.73 244.23L233.97 248.37L235.40 254.01L240.60 255.52ZM255.67 238.97L254.24 233.32L249.04 231.81L245.27 235.95L246.70 241.60L251.90 243.11ZM246.70 241.60L245.27 235.95L240.06 234.44L236.30 238.58L237.73 244.23L242.93 245.74ZM259.97 255.91L258.54 250.27L253.34 248.75L249.57 252.89L251.00 258.53L256.20 260.05ZM251.00 258.53L249.57 252.89L244.37 251.38L240.60 255.52L242.04 261.16L247.23 262.67ZM262.31 246.13L260.88 240.48L255.67 238.97L251.90 243.11L253.34 248.75L258.54 250.27ZM247.43 168.50L246.00 162.85L240.78 161.34L237.01 165.49L238.44 171.15L243.66 172.66ZM254.08 175.67L252.65 170.01L247.43 168.50L243.66 172.66L245.09 178.31L250.31 179.82ZM220.48 176.45L219.04 170.79L213.83 169.29L210.06 173.44L211.50 179.10L216.71 180.60ZM211.50 179.10L210.06 173.44L204.85 171.95L201.09 176.10L202.53 181.75L207.74 183.25ZM222.81 166.64L221.37 160.99L216.16 159.49L212.39 163.64L213.83 169.29L219.04 170.79ZM213.83 169.29L212.39 163.64L207.18 162.14L203.41 166.29L204.85 171.95L210.06 173.44ZM227.13 183.60L225.69 177.95L220.48 176.45L216.71 180.60L218.15 186.25L223.36 187.75ZM218.15 186.25L216.71 180.60L211.50 179.10L207.74 183.25L209.18 188.90L214.38 190.40ZM229.46 173.80L228.02 168.14L222.81 166.64L219.04 170.79L220.48 176.45L225.69 177.95ZM249.77 158.69L248.34 153.04L243.12 151.53L239.34 155.68L240.78 161.34L246.00 162.85ZM261.12 146.23L259.68 140.57L254.46 139.06L250.68 143.22L252.12 148.88L257.33 150.39ZM252.12 148.88L250.68 143.22L245.46 141.71L241.68 145.87L243.12 151.53L248.34 153.04ZM234.13 154.18L232.69 148.52L227.47 147.02L223.70 151.18L225.14 156.83L230.35 158.33ZM225.14 156.83L223.70 151.18L218.49 149.68L214.71 153.83L216.16 159.49L221.37 160.99ZM236.46 144.37L235.02 138.71L229.81 137.21L226.03 141.36L227.47 147.02L232.69 148.52ZM227.47 147.02L226.03 141.36L220.82 139.86L217.04 144.02L218.49 149.68L223.70 151.18ZM240.78 161.34L239.34 155.68L234.13 154.18L230.35 158.33L231.79 163.99L237.01 165.49ZM231.79 163.99L230.35 158.33L225.14 156.83L221.37 160.99L222.81 166.64L228.02 168.14ZM243.12 151.53L241.68 145.87L236.46 144.37L232.69 148.52L234.13 154.18L239.34 155.68ZM262.69 209.60L261.26 203.95L256.05 202.44L252.28 206.58L253.71 212.23L258.92 213.74ZM253.71 212.23L252.28 206.58L247.07 205.07L243.29 209.22L244.73 214.87L249.94 216.37ZM265.04 199.80L263.60 194.15L258.39 192.64L254.61 196.78L256.05 202.44L261.26 203.95ZM231.44 200.55L230.01 194.90L224.80 193.40L221.03 197.55L222.47 203.20L227.67 204.70ZM233.78 190.76L232.34 185.10L227.13 183.60L223.36 187.75L224.80 193.40L230.01 194.90ZM224.80 193.40L223.36 187.75L218.15 186.25L214.38 190.40L215.82 196.04L221.03 197.55ZM229.11 210.35L227.67 204.70L222.47 203.20L218.70 207.34L220.14 212.99L225.35 214.49ZM260.73 182.83L259.30 177.18L254.08 175.67L250.31 179.82L251.74 185.47L256.96 186.98ZM95.18 213.66L93.72 208.03L88.53 206.55L84.80 210.70L86.26 216.33L91.44 217.81ZM86.26 216.33L84.80 210.70L79.61 209.22L75.88 213.37L77.34 219.00L82.52 220.48ZM97.46 203.88L96.00 198.25L90.81 196.77L87.08 200.92L88.53 206.55L93.72 208.03ZM88.53 206.55L87.08 200.92L81.89 199.44L78.16 203.60L79.61 209.22L84.80 210.70ZM101.82 220.78L100.36 215.15L95.18 213.66L91.44 217.81L92.90 223.44L98.08 224.92ZM92.90 223.44L91.44 217.81L86.26 216.33L82.52 220.48L83.98 226.11L89.16 227.59ZM104.10 211.00L102.65 205.36L97.46 203.88L93.72 208.03L95.18 213.66L100.36 215.15ZM99.74 194.10L98.29 188.47L93.09 186.99L89.36 191.14L90.81 196.77L96.00 198.25ZM110.96 181.64L109.50 176.00L104.31 174.52L100.57 178.68L102.02 184.31L107.22 185.79ZM102.02 184.31L100.57 178.68L95.38 177.20L91.64 181.35L93.09 186.99L98.29 188.47ZM99.53 230.55L98.08 224.92L92.90 223.44L89.16 227.59L90.62 233.21L95.80 234.70ZM57.25 234.11L55.80 228.49L50.62 227.02L46.90 231.17L48.35 236.79L53.53 238.26ZM59.52 224.34L58.06 218.72L52.88 217.25L49.16 221.40L50.62 227.02L55.80 228.49ZM50.62 227.02L49.16 221.40L43.98 219.92L40.26 224.07L41.72 229.69L46.90 231.17ZM63.89 241.21L62.43 235.59L57.25 234.11L53.53 238.26L54.99 243.88L60.17 245.36ZM54.99 243.88L53.53 238.26L48.35 236.79L44.64 240.93L46.09 246.55L51.27 248.03ZM66.16 231.44L64.70 225.82L59.52 224.34L55.80 228.49L57.25 234.11L62.43 235.59ZM70.70 211.90L69.24 206.27L64.06 204.79L60.33 208.95L61.79 214.57L66.97 216.05ZM61.79 214.57L60.33 208.95L55.15 207.47L51.42 211.62L52.88 217.25L58.06 218.72ZM72.97 202.12L71.51 196.49L66.33 195.01L62.60 199.17L64.06 204.79L69.24 206.27ZM64.06 204.79L62.60 199.17L57.41 197.69L53.69 201.85L55.15 207.47L60.33 208.95ZM77.34 219.00L75.88 213.37L70.70 211.90L66.97 216.05L68.43 221.67L73.61 223.15ZM68.43 221.67L66.97 216.05L61.79 214.57L58.06 218.72L59.52 224.34L64.70 225.82ZM79.61 209.22L78.16 203.60L72.97 202.12L69.24 206.27L70.70 211.90L75.88 213.37ZM68.26 258.07L66.80 252.45L61.62 250.98L57.90 255.12L59.36 260.74L64.54 262.22ZM59.36 260.74L57.90 255.12L52.73 253.64L49.01 257.79L50.47 263.40L55.64 264.88ZM70.53 248.31L69.07 242.69L63.89 241.21L60.17 245.36L61.62 250.98L66.80 252.45ZM61.62 250.98L60.17 245.36L54.99 243.88L51.27 248.03L52.73 253.64L57.90 255.12ZM77.16 255.41L75.71 249.79L70.53 248.31L66.80 252.45L68.26 258.07L73.44 259.55ZM52.73 253.64L51.27 248.03L46.09 246.55L42.38 250.69L43.83 256.31L49.01 257.79ZM81.70 235.88L80.25 230.25L75.07 228.77L71.34 232.92L72.80 238.54L77.98 240.02ZM72.80 238.54L71.34 232.92L66.16 231.44L62.43 235.59L63.89 241.21L69.07 242.69ZM83.98 226.11L82.52 220.48L77.34 219.00L73.61 223.15L75.07 228.77L80.25 230.25ZM75.07 228.77L73.61 223.15L68.43 221.67L64.70 225.82L66.16 231.44L71.34 232.92ZM88.34 242.98L86.89 237.36L81.70 235.88L77.98 240.02L79.43 245.65L84.61 247.13ZM79.43 245.65L77.98 240.02L72.80 238.54L69.07 242.69L70.53 248.31L75.71 249.79ZM90.62 233.21L89.16 227.59L83.98 226.11L80.25 230.25L81.70 235.88L86.89 237.36ZM111.18 145.13L109.72 139.48L104.52 138.00L100.78 142.17L102.23 147.81L107.43 149.29ZM102.23 147.81L100.78 142.17L95.58 140.69L91.83 144.85L93.29 150.49L98.49 151.97ZM113.47 135.32L112.01 129.68L106.81 128.20L103.06 132.36L104.52 138.00L109.72 139.48ZM104.52 138.00L103.06 132.36L97.86 130.88L94.12 135.05L95.58 140.69L100.78 142.17ZM117.83 152.25L116.38 146.61L111.18 145.13L107.43 149.29L108.89 154.93L114.08 156.41ZM108.89 154.93L107.43 149.29L102.23 147.81L98.49 151.97L99.94 157.61L105.14 159.09ZM120.12 142.45L118.67 136.80L113.47 135.32L109.72 139.48L111.18 145.13L116.38 146.61ZM124.72 122.83L123.26 117.18L118.06 115.70L114.31 119.87L115.76 125.51L120.96 126.99ZM115.76 125.51L114.31 119.87L109.10 118.39L105.35 122.55L106.81 128.20L112.01 129.68ZM127.01 113.02L125.56 107.37L120.35 105.88L116.60 110.05L118.06 115.70L123.26 117.18ZM118.06 115.70L116.60 110.05L111.39 108.57L107.64 112.74L109.10 118.39L114.31 119.87ZM122.42 132.64L120.96 126.99L115.76 125.51L112.01 129.68L113.47 135.32L118.67 136.80ZM133.67 120.15L132.22 114.50L127.01 113.02L123.26 117.18L124.72 122.83L129.92 124.31ZM122.19 169.17L120.74 163.53L115.54 162.05L111.79 166.21L113.25 171.85L118.44 173.33ZM113.25 171.85L111.79 166.21L106.60 164.73L102.85 168.88L104.31 174.52L109.50 176.00ZM115.54 162.05L114.08 156.41L108.89 154.93L105.14 159.09L106.60 164.73L111.79 166.21ZM119.90 178.97L118.44 173.33L113.25 171.85L109.50 176.00L110.96 181.64L116.15 183.12ZM73.15 165.65L71.69 160.02L66.50 158.54L62.76 162.70L64.22 168.34L69.41 169.81ZM64.22 168.34L62.76 162.70L57.57 161.23L53.84 165.39L55.30 171.02L60.49 172.49ZM75.42 155.86L73.96 150.22L68.77 148.75L65.04 152.91L66.50 158.54L71.69 160.02ZM66.50 158.54L65.04 152.91L59.84 151.43L56.11 155.60L57.57 161.23L62.76 162.70ZM79.80 172.76L78.34 167.13L73.15 165.65L69.41 169.81L70.87 175.44L76.06 176.92ZM70.87 175.44L69.41 169.81L64.22 168.34L60.49 172.49L61.95 178.12L67.14 179.60ZM82.08 162.97L80.62 157.33L75.42 155.86L71.69 160.02L73.15 165.65L78.34 167.13ZM48.65 163.92L47.19 158.29L42.00 156.82L38.27 160.98L39.74 166.61L44.93 168.08ZM50.92 154.13L49.46 148.49L44.27 147.02L40.54 151.19L42.00 156.82L47.19 158.29ZM42.00 156.82L40.54 151.19L35.35 149.72L31.62 153.88L33.09 159.51L38.27 160.98ZM55.30 171.02L53.84 165.39L48.65 163.92L44.93 168.08L46.39 173.71L51.57 175.18ZM46.39 173.71L44.93 168.08L39.74 166.61L36.01 170.77L37.47 176.40L42.66 177.87ZM57.57 161.23L56.11 155.60L50.92 154.13L47.19 158.29L48.65 163.92L53.84 165.39ZM86.64 143.37L85.18 137.73L79.98 136.26L76.24 140.42L77.70 146.06L82.90 147.53ZM77.70 146.06L76.24 140.42L71.05 138.95L67.31 143.11L68.77 148.75L73.96 150.22ZM88.92 133.57L87.46 127.93L82.26 126.45L78.52 130.62L79.98 136.26L85.18 137.73ZM79.98 136.26L78.52 130.62L73.32 129.14L69.59 133.31L71.05 138.95L76.24 140.42ZM93.29 150.49L91.83 144.85L86.64 143.37L82.90 147.53L84.36 153.17L89.55 154.65ZM84.36 153.17L82.90 147.53L77.70 146.06L73.96 150.22L75.42 155.86L80.62 157.33ZM95.58 140.69L94.12 135.05L88.92 133.57L85.18 137.73L86.64 143.37L91.83 144.85ZM62.12 141.64L60.65 136.00L55.46 134.53L51.73 138.69L53.19 144.33L58.38 145.80ZM53.19 144.33L51.73 138.69L46.53 137.22L42.80 141.39L44.27 147.02L49.46 148.49ZM64.39 131.84L62.93 126.20L57.73 124.73L54.00 128.89L55.46 134.53L60.65 136.00ZM55.46 134.53L54.00 128.89L48.80 127.42L45.07 131.59L46.53 137.22L51.73 138.69ZM68.77 148.75L67.31 143.11L62.12 141.64L58.38 145.80L59.84 151.43L65.04 152.91ZM59.84 151.43L58.38 145.80L53.19 144.33L49.46 148.49L50.92 154.13L56.11 155.60ZM71.05 138.95L69.59 133.31L64.39 131.84L60.65 136.00L62.12 141.64L67.31 143.11ZM84.17 189.66L82.71 184.03L77.52 182.55L73.79 186.71L75.25 192.34L80.43 193.81ZM75.25 192.34L73.79 186.71L68.60 185.23L64.87 189.38L66.33 195.01L71.51 196.49ZM86.45 179.87L84.99 174.24L79.80 172.76L76.06 176.92L77.52 182.55L82.71 184.03ZM77.52 182.55L76.06 176.92L70.87 175.44L67.14 179.60L68.60 185.23L73.79 186.71ZM90.81 196.77L89.36 191.14L84.17 189.66L80.43 193.81L81.89 199.44L87.08 200.92ZM81.89 199.44L80.43 193.81L75.25 192.34L71.51 196.49L72.97 202.12L78.16 203.60ZM93.09 186.99L91.64 181.35L86.45 179.87L82.71 184.03L84.17 189.66L89.36 191.14ZM59.68 187.91L58.22 182.28L53.03 180.81L49.31 184.96L50.77 190.59L55.95 192.06ZM61.95 178.12L60.49 172.49L55.30 171.02L51.57 175.18L53.03 180.81L58.22 182.28ZM53.03 180.81L51.57 175.18L46.39 173.71L42.66 177.87L44.12 183.49L49.31 184.96ZM66.33 195.01L64.87 189.38L59.68 187.91L55.95 192.06L57.41 197.69L62.60 199.17ZM57.41 197.69L55.95 192.06L50.77 190.59L47.04 194.75L48.50 200.37L53.69 201.85ZM68.60 185.23L67.14 179.60L61.95 178.12L58.22 182.28L59.68 187.91L64.87 189.38ZM97.66 167.40L96.20 161.77L91.01 160.29L87.27 164.45L88.73 170.08L93.92 171.56ZM88.73 170.08L87.27 164.45L82.08 162.97L78.34 167.13L79.80 172.76L84.99 174.24ZM99.94 157.61L98.49 151.97L93.29 150.49L89.55 154.65L91.01 160.29L96.20 161.77ZM91.01 160.29L89.55 154.65L84.36 153.17L80.62 157.33L82.08 162.97L87.27 164.45ZM104.31 174.52L102.85 168.88L97.66 167.40L93.92 171.56L95.38 177.20L100.57 178.68ZM95.38 177.20L93.92 171.56L88.73 170.08L84.99 174.24L86.45 179.87L91.64 181.35ZM106.60 164.73L105.14 159.09L99.94 157.61L96.20 161.77L97.66 167.40L102.85 168.88ZM83.79 262.51L82.34 256.89L77.16 255.41L73.44 259.55L74.89 265.17L80.07 266.65ZM86.07 252.75L84.61 247.13L79.43 245.65L75.71 249.79L77.16 255.41L82.34 256.89ZM198.20 164.80L196.76 159.14L191.55 157.65L187.79 161.80L189.23 167.45L194.44 168.95ZM202.53 181.75L201.09 176.10L195.88 174.60L192.12 178.75L193.56 184.40L198.77 185.90ZM204.85 171.95L203.41 166.29L198.20 164.80L194.44 168.95L195.88 174.60L201.09 176.10ZM206.85 198.69L205.41 193.04L200.21 191.54L196.45 195.69L197.89 201.34L203.09 202.84ZM209.18 188.90L207.74 183.25L202.53 181.75L198.77 185.90L200.21 191.54L205.41 193.04ZM204.53 208.48L203.09 202.84L197.89 201.34L194.13 205.49L195.57 211.13L200.77 212.63ZM215.82 196.04L214.38 190.40L209.18 188.90L205.41 193.04L206.85 198.69L212.06 200.19ZM214.82 59.41L213.38 53.74L208.15 52.24L204.37 56.42L205.82 62.08L211.04 63.58ZM205.82 62.08L204.37 56.42L199.14 54.92L195.37 59.10L196.82 64.76L202.04 66.26ZM217.16 49.56L215.71 43.89L210.48 42.40L206.70 46.57L208.15 52.24L213.38 53.74ZM208.15 52.24L206.70 46.57L201.47 45.08L197.70 49.25L199.14 54.92L204.37 56.42ZM221.49 66.57L220.05 60.90L214.82 59.41L211.04 63.58L212.49 69.25L217.71 70.74ZM212.49 69.25L211.04 63.58L205.82 62.08L202.04 66.26L203.49 71.92L208.71 73.42ZM223.83 56.73L222.39 51.06L217.16 49.56L213.38 53.74L214.82 59.41L220.05 60.90ZM190.14 57.60L188.69 51.94L183.47 50.45L179.70 54.62L181.15 60.29L186.37 61.78ZM181.15 60.29L179.70 54.62L174.47 53.13L170.70 57.31L172.15 62.97L177.37 64.46ZM192.47 47.76L191.02 42.09L185.79 40.60L182.02 44.78L183.47 50.45L188.69 51.94ZM183.47 50.45L182.02 44.78L176.79 43.29L173.02 47.47L174.47 53.13L179.70 54.62ZM196.82 64.76L195.37 59.10L190.14 57.60L186.37 61.78L187.82 67.44L193.04 68.93ZM187.82 67.44L186.37 61.78L181.15 60.29L177.37 64.46L178.82 70.12L184.04 71.61ZM199.14 54.92L197.70 49.25L192.47 47.76L188.69 51.94L190.14 57.60L195.37 59.10ZM228.51 37.03L227.07 31.36L221.83 29.86L218.05 34.04L219.50 39.71L224.73 41.21ZM219.50 39.71L218.05 34.04L212.82 32.55L209.04 36.72L210.48 42.40L215.71 43.89ZM230.86 27.18L229.41 21.51L224.18 20.01L220.39 24.19L221.83 29.86L227.07 31.36ZM221.83 29.86L220.39 24.19L215.16 22.69L211.37 26.87L212.82 32.55L218.05 34.04ZM237.53 34.36L236.09 28.68L230.86 27.18L227.07 31.36L228.51 37.03L233.74 38.53ZM203.81 35.23L202.36 29.56L197.13 28.07L193.35 32.25L194.80 37.92L200.03 39.41ZM194.80 37.92L193.35 32.25L188.12 30.76L184.34 34.94L185.79 40.60L191.02 42.09ZM206.14 25.38L204.69 19.71L199.46 18.22L195.68 22.40L197.13 28.07L202.36 29.56ZM197.13 28.07L195.68 22.40L190.45 20.91L186.67 25.09L188.12 30.76L193.35 32.25ZM210.48 42.40L209.04 36.72L203.81 35.23L200.03 39.41L201.47 45.08L206.70 46.57ZM201.47 45.08L200.03 39.41L194.80 37.92L191.02 42.09L192.47 47.76L197.70 49.25ZM212.82 32.55L211.37 26.87L206.14 25.38L202.36 29.56L203.81 35.23L209.04 36.72ZM225.83 83.57L224.38 77.91L219.16 76.41L215.38 80.58L216.82 86.24L222.05 87.74ZM216.82 86.24L215.38 80.58L210.16 79.08L206.38 83.25L207.82 88.92L213.05 90.41ZM228.17 73.74L226.72 68.07L221.49 66.57L217.71 70.74L219.16 76.41L224.38 77.91ZM219.16 76.41L217.71 70.74L212.49 69.25L208.71 73.42L210.16 79.08L215.38 80.58ZM232.49 90.74L231.05 85.07L225.83 83.57L222.05 87.74L223.49 93.41L228.71 94.91ZM223.49 93.41L222.05 87.74L216.82 86.24L213.05 90.41L214.49 96.08L219.71 97.57ZM234.83 80.91L233.39 75.24L228.17 73.74L224.38 77.91L225.83 83.57L231.05 85.07ZM201.16 81.76L199.71 76.09L194.49 74.60L190.71 78.77L192.16 84.43L197.38 85.93ZM192.16 84.43L190.71 78.77L185.49 77.28L181.72 81.45L183.17 87.11L188.39 88.60ZM203.49 71.92L202.04 66.26L196.82 64.76L193.04 68.93L194.49 74.60L199.71 76.09ZM194.49 74.60L193.04 68.93L187.82 67.44L184.04 71.61L185.49 77.28L190.71 78.77ZM207.82 88.92L206.38 83.25L201.16 81.76L197.38 85.93L198.83 91.59L204.05 93.08ZM198.83 91.59L197.38 85.93L192.16 84.43L188.39 88.60L189.84 94.26L195.06 95.75ZM210.16 79.08L208.71 73.42L203.49 71.92L199.71 76.09L201.16 81.76L206.38 83.25ZM239.52 61.23L238.08 55.55L232.85 54.05L229.06 58.23L230.51 63.90L235.73 65.40ZM230.51 63.90L229.06 58.23L223.83 56.73L220.05 60.90L221.49 66.57L226.72 68.07ZM241.86 51.38L240.42 45.71L235.19 44.21L231.40 48.38L232.85 54.05L238.08 55.55ZM232.85 54.05L231.40 48.38L226.17 46.88L222.39 51.06L223.83 56.73L229.06 58.23ZM246.19 68.40L244.75 62.73L239.52 61.23L235.73 65.40L237.18 71.07L242.40 72.57ZM237.18 71.07L235.73 65.40L230.51 63.90L226.72 68.07L228.17 73.74L233.39 75.24ZM248.54 58.56L247.10 52.88L241.86 51.38L238.08 55.55L239.52 61.23L244.75 62.73ZM151.87 78.18L150.41 72.52L145.20 71.03L141.44 75.21L142.89 80.86L148.11 82.35ZM142.89 80.86L141.44 75.21L136.22 73.73L132.46 77.90L133.92 83.55L139.13 85.04ZM154.18 68.35L152.73 62.69L147.51 61.20L143.74 65.38L145.20 71.03L150.41 72.52ZM145.20 71.03L143.74 65.38L138.53 63.89L134.77 68.07L136.22 73.73L141.44 75.21ZM158.54 85.32L157.08 79.66L151.87 78.18L148.11 82.35L149.56 88.01L154.77 89.49ZM149.56 88.01L148.11 82.35L142.89 80.86L139.13 85.04L140.58 90.69L145.80 92.18ZM160.85 75.49L159.40 69.83L154.18 68.35L150.41 72.52L151.87 78.18L157.08 79.66ZM127.25 76.42L125.79 70.76L120.58 69.28L116.82 73.46L118.28 79.11L123.49 80.59ZM129.55 66.59L128.10 60.93L122.88 59.45L119.12 63.63L120.58 69.28L125.79 70.76ZM133.92 83.55L132.46 77.90L127.25 76.42L123.49 80.59L124.95 86.24L130.16 87.72ZM124.95 86.24L123.49 80.59L118.28 79.11L114.53 83.28L115.98 88.93L121.19 90.41ZM136.22 73.73L134.77 68.07L129.55 66.59L125.79 70.76L127.25 76.42L132.46 77.90ZM156.49 58.51L155.04 52.85L149.82 51.36L146.05 55.54L147.51 61.20L152.73 62.69ZM167.80 45.98L166.35 40.32L161.12 38.83L157.35 43.01L158.81 48.67L164.03 50.16ZM158.81 48.67L157.35 43.01L152.13 41.52L148.36 45.70L149.82 51.36L155.04 52.85ZM172.15 62.97L170.70 57.31L165.48 55.82L161.71 60.00L163.16 65.66L168.38 67.15ZM163.16 65.66L161.71 60.00L156.49 58.51L152.73 62.69L154.18 68.35L159.40 69.83ZM174.47 53.13L173.02 47.47L167.80 45.98L164.03 50.16L165.48 55.82L170.70 57.31ZM140.84 54.06L139.38 48.40L134.16 46.92L130.40 51.10L131.86 56.75L137.07 58.24ZM131.86 56.75L130.40 51.10L125.18 49.62L121.42 53.79L122.88 59.45L128.10 60.93ZM143.14 44.22L141.69 38.56L136.47 37.08L132.70 41.26L134.16 46.92L139.38 48.40ZM147.51 61.20L146.05 55.54L140.84 54.06L137.07 58.24L138.53 63.89L143.74 65.38ZM138.53 63.89L137.07 58.24L131.86 56.75L128.10 60.93L129.55 66.59L134.77 68.07ZM149.82 51.36L148.36 45.70L143.14 44.22L139.38 48.40L140.84 54.06L146.05 55.54ZM162.89 102.29L161.44 96.64L156.22 95.15L152.46 99.32L153.91 104.97L159.13 106.46ZM153.91 104.97L152.46 99.32L147.25 97.83L143.49 102.00L144.94 107.65L150.15 109.14ZM165.20 92.47L163.75 86.81L158.54 85.32L154.77 89.49L156.22 95.15L161.44 96.64ZM156.22 95.15L154.77 89.49L149.56 88.01L145.80 92.18L147.25 97.83L152.46 99.32ZM138.28 100.51L136.83 94.86L131.61 93.38L127.86 97.55L129.31 103.20L134.52 104.68ZM129.31 103.20L127.86 97.55L122.65 96.07L118.90 100.24L120.35 105.88L125.56 107.37ZM140.58 90.69L139.13 85.04L133.92 83.55L130.16 87.72L131.61 93.38L136.83 94.86ZM131.61 93.38L130.16 87.72L124.95 86.24L121.19 90.41L122.65 96.07L127.86 97.55ZM144.94 107.65L143.49 102.00L138.28 100.51L134.52 104.68L135.98 110.33L141.19 111.82ZM135.98 110.33L134.52 104.68L129.31 103.20L125.56 107.37L127.01 113.02L132.22 114.50ZM147.25 97.83L145.80 92.18L140.58 90.69L136.83 94.86L138.28 100.51L143.49 102.00ZM176.50 79.96L175.05 74.30L169.83 72.81L166.07 76.98L167.52 82.64L172.74 84.13ZM167.52 82.64L166.07 76.98L160.85 75.49L157.08 79.66L158.54 85.32L163.75 86.81ZM178.82 70.12L177.37 64.46L172.15 62.97L168.38 67.15L169.83 72.81L175.05 74.30ZM169.83 72.81L168.38 67.15L163.16 65.66L159.40 69.83L160.85 75.49L166.07 76.98ZM183.17 87.11L181.72 81.45L176.50 79.96L172.74 84.13L174.18 89.79L179.40 91.28ZM174.18 89.79L172.74 84.13L167.52 82.64L163.75 86.81L165.20 92.47L170.42 93.96ZM185.49 77.28L184.04 71.61L178.82 70.12L175.05 74.30L176.50 79.96L181.72 81.45ZM237.89 -2.40L236.45 -8.08L231.21 -9.57L227.41 -5.39L228.86 0.29L234.10 1.79ZM228.86 0.29L227.41 -5.39L222.18 -6.88L218.39 -2.70L219.83 2.98L225.07 4.47ZM204.13 -1.50L202.68 -7.18L197.44 -8.67L193.66 -4.48L195.11 1.19L200.34 2.68ZM242.23 14.64L240.78 8.97L235.54 7.47L231.75 11.65L233.20 17.33L238.44 18.82ZM233.20 17.33L231.75 11.65L226.52 10.15L222.73 14.33L224.18 20.01L229.41 21.51ZM244.58 4.78L243.13 -0.90L237.89 -2.40L234.10 1.79L235.54 7.47L240.78 8.97ZM235.54 7.47L234.10 1.79L228.86 0.29L225.07 4.47L226.52 10.15L231.75 11.65ZM239.88 24.50L238.44 18.82L233.20 17.33L229.41 21.51L230.86 27.18L236.09 28.68ZM208.47 15.53L207.03 9.85L201.79 8.36L198.01 12.54L199.46 18.22L204.69 19.71ZM210.81 5.67L209.36 -0.01L204.13 -1.50L200.34 2.68L201.79 8.36L207.03 9.85ZM224.18 20.01L222.73 14.33L217.49 12.84L213.71 17.02L215.16 22.69L220.39 24.19ZM215.16 22.69L213.71 17.02L208.47 15.53L204.69 19.71L206.14 25.38L211.37 26.87ZM168.08 9.28L166.63 3.61L161.40 2.13L157.62 6.31L159.08 11.98L164.30 13.47ZM159.08 11.98L157.62 6.31L152.39 4.83L148.62 9.02L150.08 14.68L155.31 16.17ZM170.40 -0.57L168.95 -6.24L163.72 -7.73L159.94 -3.54L161.40 2.13L166.63 3.61ZM161.40 2.13L159.94 -3.54L154.71 -5.03L150.94 -0.84L152.39 4.83L157.62 6.31ZM174.76 16.44L173.31 10.77L168.08 9.28L164.30 13.47L165.76 19.14L170.99 20.62ZM165.76 19.14L164.30 13.47L159.08 11.98L155.31 16.17L156.76 21.83L161.99 23.32ZM177.08 6.59L175.63 0.91L170.40 -0.57L166.63 3.61L168.08 9.28L173.31 10.77ZM179.41 -3.27L177.96 -8.95L172.72 -10.43L168.95 -6.24L170.40 -0.57L175.63 0.91ZM179.12 33.45L177.67 27.78L172.44 26.29L168.66 30.47L170.12 36.14L175.34 37.63ZM170.12 36.14L168.66 30.47L163.44 28.99L159.67 33.17L161.12 38.83L166.35 40.32ZM181.44 23.60L179.99 17.93L174.76 16.44L170.99 20.62L172.44 26.29L177.67 27.78ZM172.44 26.29L170.99 20.62L165.76 19.14L161.99 23.32L163.44 28.99L168.66 30.47ZM185.79 40.60L184.34 34.94L179.12 33.45L175.34 37.63L176.79 43.29L182.02 44.78ZM176.79 43.29L175.34 37.63L170.12 36.14L166.35 40.32L167.80 45.98L173.02 47.47ZM188.12 30.76L186.67 25.09L181.44 23.60L177.67 27.78L179.12 33.45L184.34 34.94ZM154.44 31.68L152.99 26.02L147.77 24.53L144.00 28.71L145.45 34.38L150.68 35.86ZM145.45 34.38L144.00 28.71L138.78 27.23L135.01 31.41L136.47 37.08L141.69 38.56ZM156.76 21.83L155.31 16.17L150.08 14.68L146.31 18.87L147.77 24.53L152.99 26.02ZM147.77 24.53L146.31 18.87L141.09 17.39L137.32 21.57L138.78 27.23L144.00 28.71ZM161.12 38.83L159.67 33.17L154.44 31.68L150.68 35.86L152.13 41.52L157.35 43.01ZM152.13 41.52L150.68 35.86L145.45 34.38L141.69 38.56L143.14 44.22L148.36 45.70ZM163.44 28.99L161.99 23.32L156.76 21.83L152.99 26.02L154.44 31.68L159.67 33.17ZM192.78 11.05L191.33 5.38L186.09 3.89L182.32 8.07L183.77 13.74L189.00 15.23ZM183.77 13.74L182.32 8.07L177.08 6.59L173.31 10.77L174.76 16.44L179.99 17.93ZM195.11 1.19L193.66 -4.48L188.42 -5.97L184.64 -1.78L186.09 3.89L191.33 5.38ZM186.09 3.89L184.64 -1.78L179.41 -3.27L175.63 0.91L177.08 6.59L182.32 8.07ZM199.46 18.22L198.01 12.54L192.78 11.05L189.00 15.23L190.45 20.91L195.68 22.40ZM190.45 20.91L189.00 15.23L183.77 13.74L179.99 17.93L181.44 23.60L186.67 25.09ZM201.79 8.36L200.34 2.68L195.11 1.19L191.33 5.38L192.78 11.05L198.01 12.54ZM261.50 109.59L260.06 103.92L254.83 102.42L251.05 106.58L252.49 112.25L257.71 113.75ZM263.85 99.76L262.41 94.09L257.18 92.59L253.39 96.75L254.83 102.42L260.06 103.92ZM259.15 119.42L257.71 113.75L252.49 112.25L248.70 116.41L250.14 122.07L255.37 123.58ZM236.82 107.74L235.38 102.07L230.16 100.57L226.38 104.74L227.82 110.40L233.04 111.90ZM227.82 110.40L226.38 104.74L221.16 103.24L217.38 107.40L218.82 113.06L224.04 114.56ZM239.16 97.91L237.72 92.24L232.49 90.74L228.71 94.91L230.16 100.57L235.38 102.07ZM230.16 100.57L228.71 94.91L223.49 93.41L219.71 97.57L221.16 103.24L226.38 104.74ZM243.48 114.91L242.04 109.24L236.82 107.74L233.04 111.90L234.48 117.56L239.70 119.07ZM234.48 117.56L233.04 111.90L227.82 110.40L224.04 114.56L225.48 120.22L230.70 121.72ZM266.20 89.93L264.76 84.25L259.53 82.75L255.74 86.92L257.18 92.59L262.41 94.09ZM250.51 85.41L249.07 79.74L243.85 78.24L240.06 82.41L241.50 88.08L246.73 89.58ZM241.50 88.08L240.06 82.41L234.83 80.91L231.05 85.07L232.49 90.74L237.72 92.24ZM252.86 75.57L251.42 69.90L246.19 68.40L242.40 72.57L243.85 78.24L249.07 79.74ZM243.85 78.24L242.40 72.57L237.18 71.07L233.39 75.24L234.83 80.91L240.06 82.41ZM257.18 92.59L255.74 86.92L250.51 85.41L246.73 89.58L248.17 95.25L253.39 96.75ZM259.53 82.75L258.09 77.08L252.86 75.57L249.07 79.74L250.51 85.41L255.74 86.92ZM250.14 122.07L248.70 116.41L243.48 114.91L239.70 119.07L241.14 124.73L246.36 126.23ZM245.46 141.71L244.02 136.05L238.80 134.55L235.02 138.71L236.46 144.37L241.68 145.87ZM189.53 130.88L188.09 125.22L182.87 123.73L179.11 127.89L180.56 133.54L185.77 135.04ZM200.84 118.39L199.39 112.73L194.18 111.24L190.41 115.40L191.86 121.06L197.07 122.56ZM191.86 121.06L190.41 115.40L185.19 113.91L181.43 118.07L182.87 123.73L188.09 125.22ZM203.17 108.57L201.72 102.91L196.50 101.42L192.73 105.58L194.18 111.24L199.39 112.73ZM214.49 96.08L213.05 90.41L207.82 88.92L204.05 93.08L205.49 98.74L210.71 100.24ZM205.49 98.74L204.05 93.08L198.83 91.59L195.06 95.75L196.50 101.42L201.72 102.91ZM218.82 113.06L217.38 107.40L212.16 105.90L208.38 110.07L209.83 115.73L215.05 117.23ZM209.83 115.73L208.38 110.07L203.17 108.57L199.39 112.73L200.84 118.39L206.06 119.89ZM187.52 104.09L186.07 98.43L180.85 96.94L177.08 101.10L178.53 106.76L183.75 108.25ZM189.84 94.26L188.39 88.60L183.17 87.11L179.40 91.28L180.85 96.94L186.07 98.43ZM180.85 96.94L179.40 91.28L174.18 89.79L170.42 93.96L171.87 99.61L177.08 101.10ZM194.18 111.24L192.73 105.58L187.52 104.09L183.75 108.25L185.19 113.91L190.41 115.40ZM185.19 113.91L183.75 108.25L178.53 106.76L174.77 110.93L176.21 116.58L181.43 118.07ZM196.50 101.42L195.06 95.75L189.84 94.26L186.07 98.43L187.52 104.09L192.73 105.58ZM209.50 152.33L208.06 146.68L202.85 145.18L199.08 149.34L200.52 154.99L205.73 156.49ZM200.52 154.99L199.08 149.34L193.87 147.84L190.10 152.00L191.55 157.65L196.76 159.14ZM211.83 142.52L210.39 136.86L205.17 135.37L201.40 139.52L202.85 145.18L208.06 146.68ZM202.85 145.18L201.40 139.52L196.19 138.03L192.42 142.19L193.87 147.84L199.08 149.34ZM216.16 159.49L214.71 153.83L209.50 152.33L205.73 156.49L207.18 162.14L212.39 163.64ZM207.18 162.14L205.73 156.49L200.52 154.99L196.76 159.14L198.20 164.80L203.41 166.29ZM218.49 149.68L217.04 144.02L211.83 142.52L208.06 146.68L209.50 152.33L214.71 153.83ZM191.55 157.65L190.10 152.00L184.90 150.50L181.13 154.66L182.58 160.31L187.79 161.80ZM193.87 147.84L192.42 142.19L187.21 140.69L183.45 144.85L184.90 150.50L190.10 152.00ZM223.15 130.04L221.71 124.38L216.49 122.89L212.72 127.05L214.16 132.70L219.37 134.20ZM214.16 132.70L212.72 127.05L207.50 125.55L203.73 129.71L205.17 135.37L210.39 136.86ZM225.48 120.22L224.04 114.56L218.82 113.06L215.05 117.23L216.49 122.89L221.71 124.38ZM216.49 122.89L215.05 117.23L209.83 115.73L206.06 119.89L207.50 125.55L212.72 127.05ZM229.81 137.21L228.37 131.55L223.15 130.04L219.37 134.20L220.82 139.86L226.03 141.36ZM220.82 139.86L219.37 134.20L214.16 132.70L210.39 136.86L211.83 142.52L217.04 144.02ZM232.14 127.39L230.70 121.72L225.48 120.22L221.71 124.38L223.15 130.04L228.37 131.55ZM253.24 38.86L251.79 33.18L246.56 31.68L242.77 35.86L244.21 41.53L249.44 43.03ZM244.21 41.53L242.77 35.86L237.53 34.36L233.74 38.53L235.19 44.21L240.42 45.71ZM255.59 29.00L254.15 23.32L248.91 21.82L245.12 26.00L246.56 31.68L251.79 33.18ZM246.56 31.68L245.12 26.00L239.88 24.50L236.09 28.68L237.53 34.36L242.77 35.86ZM259.91 46.04L258.47 40.36L253.24 38.86L249.44 43.03L250.89 48.71L256.12 50.21ZM250.89 48.71L249.44 43.03L244.21 41.53L240.42 45.71L241.86 51.38L247.10 52.88ZM262.27 36.19L260.82 30.51L255.59 29.00L251.79 33.18L253.24 38.86L258.47 40.36ZM257.94 19.15L256.50 13.47L251.26 11.96L247.46 16.14L248.91 21.82L254.15 23.32ZM264.62 26.33L263.18 20.65L257.94 19.15L254.15 23.32L255.59 29.00L260.82 30.51ZM264.23 63.07L262.79 57.39L257.56 55.89L253.77 60.06L255.21 65.73L260.44 67.24ZM255.21 65.73L253.77 60.06L248.54 58.56L244.75 62.73L246.19 68.40L251.42 69.90ZM257.56 55.89L256.12 50.21L250.89 48.71L247.10 52.88L248.54 58.56L253.77 60.06ZM261.88 72.91L260.44 67.24L255.21 65.73L251.42 69.90L252.86 75.57L258.09 77.08ZM60.17 78.36L58.70 72.72L53.50 71.25L49.76 75.43L51.22 81.07L56.43 82.54ZM89.11 97.02L87.65 91.37L82.45 89.89L78.70 94.07L80.16 99.71L85.37 101.19ZM80.16 99.71L78.70 94.07L73.50 92.59L69.76 96.77L71.22 102.41L76.42 103.88ZM82.45 89.89L80.99 84.25L75.78 82.77L72.04 86.95L73.50 92.59L78.70 94.07ZM95.78 104.14L94.32 98.49L89.11 97.02L85.37 101.19L86.83 106.83L92.03 108.31ZM86.83 106.83L85.37 101.19L80.16 99.71L76.42 103.88L77.88 109.53L83.08 111.00ZM64.56 95.29L63.09 89.65L57.89 88.18L54.15 92.36L55.62 98.00L60.82 99.47ZM55.62 98.00L54.15 92.36L48.95 90.89L45.22 95.06L46.68 100.70L51.88 102.17ZM66.83 85.48L65.37 79.83L60.17 78.36L56.43 82.54L57.89 88.18L63.09 89.65ZM57.89 88.18L56.43 82.54L51.22 81.07L47.49 85.24L48.95 90.89L54.15 92.36ZM71.22 102.41L69.76 96.77L64.56 95.29L60.82 99.47L62.28 105.11L67.48 106.58ZM62.28 105.11L60.82 99.47L55.62 98.00L51.88 102.17L53.34 107.81L58.54 109.28ZM73.50 92.59L72.04 86.95L66.83 85.48L63.09 89.65L64.56 95.29L69.76 96.77ZM78.06 72.95L76.60 67.30L71.39 65.83L67.65 70.01L69.11 75.66L74.32 77.13ZM69.11 75.66L67.65 70.01L62.44 68.54L58.70 72.72L60.17 78.36L65.37 79.83ZM84.73 80.07L83.27 74.43L78.06 72.95L74.32 77.13L75.78 82.77L80.99 84.25ZM75.78 82.77L74.32 77.13L69.11 75.66L65.37 79.83L66.83 85.48L72.04 86.95ZM100.15 121.07L98.69 115.43L93.49 113.95L89.75 118.12L91.20 123.76L96.41 125.24ZM91.20 123.76L89.75 118.12L84.54 116.64L80.80 120.81L82.26 126.45L87.46 127.93ZM102.44 111.26L100.98 105.61L95.78 104.14L92.03 108.31L93.49 113.95L98.69 115.43ZM93.49 113.95L92.03 108.31L86.83 106.83L83.08 111.00L84.54 116.64L89.75 118.12ZM106.81 128.20L105.35 122.55L100.15 121.07L96.41 125.24L97.86 130.88L103.06 132.36ZM97.86 130.88L96.41 125.24L91.20 123.76L87.46 127.93L88.92 133.57L94.12 135.05ZM109.10 118.39L107.64 112.74L102.44 111.26L98.69 115.43L100.15 121.07L105.35 122.55ZM75.60 119.34L74.14 113.69L68.94 112.22L65.20 116.39L66.66 122.03L71.86 123.50ZM66.66 122.03L65.20 116.39L60.00 114.92L56.27 119.09L57.73 124.73L62.93 126.20ZM77.88 109.53L76.42 103.88L71.22 102.41L67.48 106.58L68.94 112.22L74.14 113.69ZM68.94 112.22L67.48 106.58L62.28 105.11L58.54 109.28L60.00 114.92L65.20 116.39ZM82.26 126.45L80.80 120.81L75.60 119.34L71.86 123.50L73.32 129.14L78.52 130.62ZM73.32 129.14L71.86 123.50L66.66 122.03L62.93 126.20L64.39 131.84L69.59 133.31ZM84.54 116.64L83.08 111.00L77.88 109.53L74.14 113.69L75.60 119.34L80.80 120.81ZM120.35 105.88L118.90 100.24L113.69 98.76L109.94 102.92L111.39 108.57L116.60 110.05ZM111.39 108.57L109.94 102.92L104.73 101.45L100.98 105.61L102.44 111.26L107.64 112.74ZM122.65 96.07L121.19 90.41L115.98 88.93L112.23 93.11L113.69 98.76L118.90 100.24ZM35.48 113.21L34.02 107.58L28.82 106.11L25.09 110.28L26.56 115.92L31.75 117.38ZM37.61 139.92L36.15 134.29L30.96 132.82L27.23 136.99L28.69 142.62L33.88 144.09ZM39.88 130.12L38.41 124.49L33.22 123.02L29.49 127.19L30.96 132.82L36.15 134.29ZM44.27 147.02L42.80 141.39L37.61 139.92L33.88 144.09L35.35 149.72L40.54 151.19ZM46.53 137.22L45.07 131.59L39.88 130.12L36.15 134.29L37.61 139.92L42.80 141.39ZM51.07 117.62L49.61 111.98L44.41 110.51L40.68 114.68L42.14 120.32L47.34 121.79ZM42.14 120.32L40.68 114.68L35.48 113.21L31.75 117.38L33.22 123.02L38.41 124.49ZM53.34 107.81L51.88 102.17L46.68 100.70L42.95 104.87L44.41 110.51L49.61 111.98ZM44.41 110.51L42.95 104.87L37.75 103.41L34.02 107.58L35.48 113.21L40.68 114.68ZM57.73 124.73L56.27 119.09L51.07 117.62L47.34 121.79L48.80 127.42L54.00 128.89ZM48.80 127.42L47.34 121.79L42.14 120.32L38.41 124.49L39.88 130.12L45.07 131.59ZM60.00 114.92L58.54 109.28L53.34 107.81L49.61 111.98L51.07 117.62L56.27 119.09Z"/><path data-band="2" fill="#f97316" fill-opacity="0.35" d="M219.81 249.49L218.37 243.85L213.17 242.35L209.41 246.48L210.85 252.12L216.05 253.63ZM226.44 256.64L225.00 251.00L219.81 249.49L216.05 253.63L217.48 259.27L222.68 260.77ZM204.21 244.98L202.77 239.34L197.58 237.84L193.82 241.98L195.26 247.62L200.46 249.12ZM206.53 235.20L205.09 229.56L199.89 228.06L196.14 232.20L197.58 237.84L202.77 239.34ZM197.58 237.84L196.14 232.20L190.94 230.70L187.18 234.84L188.62 240.48L193.82 241.98ZM210.85 252.12L209.41 246.48L204.21 244.98L200.46 249.12L201.90 254.76L207.09 256.26ZM213.17 242.35L211.73 236.70L206.53 235.20L202.77 239.34L204.21 244.98L209.41 246.48ZM242.40 224.66L240.96 219.01L235.76 217.50L231.99 221.64L233.42 227.29L238.63 228.80ZM233.42 227.29L231.99 221.64L226.78 220.14L223.02 224.28L224.46 229.93L229.66 231.43ZM244.73 214.87L243.29 209.22L238.09 207.71L234.32 211.85L235.76 217.50L240.96 219.01ZM235.76 217.50L234.32 211.85L229.11 210.35L225.35 214.49L226.78 220.14L231.99 221.64ZM220.14 212.99L218.70 207.34L213.50 205.84L209.74 209.98L211.18 215.63L216.38 217.13ZM211.18 215.63L209.74 209.98L204.53 208.48L200.77 212.63L202.21 218.27L207.41 219.77ZM217.48 259.27L216.05 253.63L210.85 252.12L207.09 256.26L208.53 261.90L213.72 263.40ZM208.53 261.90L207.09 256.26L201.90 254.76L198.14 258.89L199.58 264.53L204.77 266.03ZM245.09 178.31L243.66 172.66L238.44 171.15L234.67 175.30L236.11 180.96L241.32 182.46ZM236.11 180.96L234.67 175.30L229.46 173.80L225.69 177.95L227.13 183.60L232.34 185.10ZM238.44 171.15L237.01 165.49L231.79 163.99L228.02 168.14L229.46 173.80L234.67 175.30ZM251.74 185.47L250.31 179.82L245.09 178.31L241.32 182.46L242.76 188.11L247.97 189.62ZM242.76 188.11L241.32 182.46L236.11 180.96L232.34 185.10L233.78 190.76L238.98 192.26ZM258.77 156.05L257.33 150.39L252.12 148.88L248.34 153.04L249.77 158.69L254.99 160.20ZM265.42 163.22L263.99 157.56L258.77 156.05L254.99 160.20L256.43 165.86L261.64 167.37ZM256.43 165.86L254.99 160.20L249.77 158.69L246.00 162.85L247.43 168.50L252.65 170.01ZM256.05 202.44L254.61 196.78L249.40 195.27L245.63 199.42L247.07 205.07L252.28 206.58ZM247.07 205.07L245.63 199.42L240.42 197.91L236.65 202.06L238.09 207.71L243.29 209.22ZM258.39 192.64L256.96 186.98L251.74 185.47L247.97 189.62L249.40 195.27L254.61 196.78ZM249.40 195.27L247.97 189.62L242.76 188.11L238.98 192.26L240.42 197.91L245.63 199.42ZM222.47 203.20L221.03 197.55L215.82 196.04L212.06 200.19L213.50 205.84L218.70 207.34ZM238.09 207.71L236.65 202.06L231.44 200.55L227.67 204.70L229.11 210.35L234.32 211.85ZM240.42 197.91L238.98 192.26L233.78 190.76L230.01 194.90L231.44 200.55L236.65 202.06ZM263.08 173.03L261.64 167.37L256.43 165.86L252.65 170.01L254.08 175.67L259.30 177.18ZM119.67 215.45L118.22 209.82L113.03 208.33L109.29 212.48L110.74 218.11L115.93 219.60ZM110.74 218.11L109.29 212.48L104.10 211.00L100.36 215.15L101.82 220.78L107.00 222.26ZM121.96 205.67L120.51 200.03L115.32 198.55L111.58 202.70L113.03 208.33L118.22 209.82ZM113.03 208.33L111.58 202.70L106.38 201.21L102.65 205.36L104.10 211.00L109.29 212.48ZM126.31 222.57L124.86 216.93L119.67 215.45L115.93 219.60L117.38 225.23L122.57 226.71ZM117.38 225.23L115.93 219.60L110.74 218.11L107.00 222.26L108.46 227.89L113.64 229.37ZM128.60 212.79L127.15 207.15L121.96 205.67L118.22 209.82L119.67 215.45L124.86 216.93ZM133.19 193.22L131.74 187.58L126.54 186.09L122.80 190.24L124.25 195.88L129.45 197.37ZM124.25 195.88L122.80 190.24L117.60 188.76L113.86 192.91L115.32 198.55L120.51 200.03ZM135.49 183.42L134.04 177.78L128.84 176.30L125.09 180.45L126.54 186.09L131.74 187.58ZM126.54 186.09L125.09 180.45L119.90 178.97L116.15 183.12L117.60 188.76L122.80 190.24ZM139.84 200.34L138.39 194.70L133.19 193.22L129.45 197.37L130.90 203.00L136.09 204.49ZM130.90 203.00L129.45 197.37L124.25 195.88L120.51 200.03L121.96 205.67L127.15 207.15ZM142.13 190.55L140.68 184.91L135.49 183.42L131.74 187.58L133.19 193.22L138.39 194.70ZM108.67 191.43L107.22 185.79L102.02 184.31L98.29 188.47L99.74 194.10L104.93 195.58ZM115.32 198.55L113.86 192.91L108.67 191.43L104.93 195.58L106.38 201.21L111.58 202.70ZM106.38 201.21L104.93 195.58L99.74 194.10L96.00 198.25L97.46 203.88L102.65 205.36ZM117.60 188.76L116.15 183.12L110.96 181.64L107.22 185.79L108.67 191.43L113.86 192.91ZM130.66 239.46L129.21 233.83L124.02 232.34L120.28 236.49L121.73 242.12L126.92 243.61ZM121.73 242.12L120.28 236.49L115.09 235.00L111.36 239.15L112.81 244.77L117.99 246.26ZM132.95 229.69L131.50 224.06L126.31 222.57L122.57 226.71L124.02 232.34L129.21 233.83ZM124.02 232.34L122.57 226.71L117.38 225.23L113.64 229.37L115.09 235.00L120.28 236.49ZM137.29 246.58L135.84 240.95L130.66 239.46L126.92 243.61L128.37 249.24L133.55 250.72ZM128.37 249.24L126.92 243.61L121.73 242.12L117.99 246.26L119.44 251.89L124.63 253.38ZM139.59 236.81L138.14 231.18L132.95 229.69L129.21 233.83L130.66 239.46L135.84 240.95ZM106.17 237.66L104.72 232.03L99.53 230.55L95.80 234.70L97.25 240.32L102.44 241.81ZM97.25 240.32L95.80 234.70L90.62 233.21L86.89 237.36L88.34 242.98L93.52 244.47ZM108.46 227.89L107.00 222.26L101.82 220.78L98.08 224.92L99.53 230.55L104.72 232.03ZM112.81 244.77L111.36 239.15L106.17 237.66L102.44 241.81L103.89 247.43L109.07 248.92ZM103.89 247.43L102.44 241.81L97.25 240.32L93.52 244.47L94.98 250.09L100.16 251.57ZM115.09 235.00L113.64 229.37L108.46 227.89L104.72 232.03L106.17 237.66L111.36 239.15ZM144.18 217.25L142.73 211.62L137.54 210.13L133.79 214.27L135.24 219.91L140.43 221.40ZM135.24 219.91L133.79 214.27L128.60 212.79L124.86 216.93L126.31 222.57L131.50 224.06ZM146.48 207.47L145.03 201.83L139.84 200.34L136.09 204.49L137.54 210.13L142.73 211.62ZM137.54 210.13L136.09 204.49L130.90 203.00L127.15 207.15L128.60 212.79L133.79 214.27ZM150.82 224.38L149.37 218.74L144.18 217.25L140.43 221.40L141.88 227.03L147.07 228.52ZM141.88 227.03L140.43 221.40L135.24 219.91L131.50 224.06L132.95 229.69L138.14 231.18ZM153.12 214.60L151.67 208.96L146.48 207.47L142.73 211.62L144.18 217.25L149.37 218.74ZM135.73 146.90L134.28 141.25L129.08 139.77L125.33 143.93L126.78 149.57L131.98 151.06ZM126.78 149.57L125.33 143.93L120.12 142.45L116.38 146.61L117.83 152.25L123.03 153.73ZM138.03 137.09L136.58 131.45L131.37 129.96L127.62 134.12L129.08 139.77L134.28 141.25ZM129.08 139.77L127.62 134.12L122.42 132.64L118.67 136.80L120.12 142.45L125.33 143.93ZM142.39 154.03L140.93 148.39L135.73 146.90L131.98 151.06L133.43 156.70L138.63 158.19ZM133.43 156.70L131.98 151.06L126.78 149.57L123.03 153.73L124.48 159.38L129.68 160.86ZM144.69 144.23L143.24 138.58L138.03 137.09L134.28 141.25L135.73 146.90L140.93 148.39ZM149.30 124.61L147.85 118.95L142.64 117.47L138.88 121.63L140.33 127.28L145.54 128.77ZM140.33 127.28L138.88 121.63L133.67 120.15L129.92 124.31L131.37 129.96L136.58 131.45ZM151.61 114.79L150.15 109.14L144.94 107.65L141.19 111.82L142.64 117.47L147.85 118.95ZM142.64 117.47L141.19 111.82L135.98 110.33L132.22 114.50L133.67 120.15L138.88 121.63ZM155.96 131.74L154.51 126.09L149.30 124.61L145.54 128.77L146.99 134.42L152.20 135.90ZM146.99 134.42L145.54 128.77L140.33 127.28L136.58 131.45L138.03 137.09L143.24 138.58ZM158.27 121.93L156.82 116.28L151.61 114.79L147.85 118.95L149.30 124.61L154.51 126.09ZM131.37 129.96L129.92 124.31L124.72 122.83L120.96 126.99L122.42 132.64L127.62 134.12ZM146.74 170.96L145.29 165.32L140.08 163.83L136.33 167.99L137.78 173.63L142.98 175.12ZM137.78 173.63L136.33 167.99L131.13 166.50L127.39 170.66L128.84 176.30L134.04 177.78ZM149.04 161.16L147.59 155.52L142.39 154.03L138.63 158.19L140.08 163.83L145.29 165.32ZM140.08 163.83L138.63 158.19L133.43 156.70L129.68 160.86L131.13 166.50L136.33 167.99ZM153.38 178.10L151.94 172.45L146.74 170.96L142.98 175.12L144.43 180.76L149.63 182.25ZM144.43 180.76L142.98 175.12L137.78 173.63L134.04 177.78L135.49 183.42L140.68 184.91ZM155.69 168.30L154.24 162.65L149.04 161.16L145.29 165.32L146.74 170.96L151.94 172.45ZM124.48 159.38L123.03 153.73L117.83 152.25L114.08 156.41L115.54 162.05L120.74 163.53ZM128.84 176.30L127.39 170.66L122.19 169.17L118.44 173.33L119.90 178.97L125.09 180.45ZM131.13 166.50L129.68 160.86L124.48 159.38L120.74 163.53L122.19 169.17L127.39 170.66ZM160.30 148.69L158.86 143.04L153.65 141.55L149.89 145.71L151.34 151.36L156.55 152.85ZM151.34 151.36L149.89 145.71L144.69 144.23L140.93 148.39L142.39 154.03L147.59 155.52ZM162.61 138.88L161.17 133.23L155.96 131.74L152.20 135.90L153.65 141.55L158.86 143.04ZM153.65 141.55L152.20 135.90L146.99 134.42L143.24 138.58L144.69 144.23L149.89 145.71ZM166.96 155.83L165.51 150.18L160.30 148.69L156.55 152.85L158.00 158.50L163.20 159.99ZM158.00 158.50L156.55 152.85L151.34 151.36L147.59 155.52L149.04 161.16L154.24 162.65ZM169.27 146.02L167.82 140.37L162.61 138.88L158.86 143.04L160.30 148.69L165.51 150.18ZM168.43 255.54L166.98 249.91L161.79 248.41L158.05 252.55L159.49 258.18L164.68 259.68ZM159.49 258.18L158.05 252.55L152.86 251.06L149.11 255.20L150.56 260.83L155.75 262.32ZM175.06 262.67L173.62 257.04L168.43 255.54L164.68 259.68L166.12 265.31L171.31 266.81ZM143.93 253.70L142.48 248.07L137.29 246.58L133.55 250.72L135.00 256.35L140.19 257.84ZM135.00 256.35L133.55 250.72L128.37 249.24L124.63 253.38L126.08 259.00L131.26 260.49ZM150.56 260.83L149.11 255.20L143.93 253.70L140.19 257.84L141.63 263.47L146.82 264.96ZM179.68 243.12L178.23 237.49L173.04 235.99L169.29 240.13L170.73 245.77L175.93 247.26ZM170.73 245.77L169.29 240.13L164.10 238.64L160.35 242.78L161.79 248.41L166.98 249.91ZM181.99 233.34L180.54 227.71L175.35 226.21L171.60 230.35L173.04 235.99L178.23 237.49ZM173.04 235.99L171.60 230.35L166.40 228.86L162.65 233.00L164.10 238.64L169.29 240.13ZM177.37 252.90L175.93 247.26L170.73 245.77L166.98 249.91L168.43 255.54L173.62 257.04ZM188.62 240.48L187.18 234.84L181.99 233.34L178.23 237.49L179.68 243.12L184.87 244.62ZM155.16 241.28L153.71 235.65L148.52 234.16L144.78 238.30L146.22 243.93L151.41 245.43ZM146.22 243.93L144.78 238.30L139.59 236.81L135.84 240.95L137.29 246.58L142.48 248.07ZM157.46 231.51L156.01 225.87L150.82 224.38L147.07 228.52L148.52 234.16L153.71 235.65ZM148.52 234.16L147.07 228.52L141.88 227.03L138.14 231.18L139.59 236.81L144.78 238.30ZM161.79 248.41L160.35 242.78L155.16 241.28L151.41 245.43L152.86 251.06L158.05 252.55ZM152.86 251.06L151.41 245.43L146.22 243.93L142.48 248.07L143.93 253.70L149.11 255.20ZM164.10 238.64L162.65 233.00L157.46 231.51L153.71 235.65L155.16 241.28L160.35 242.78ZM117.16 261.65L115.71 256.03L110.52 254.54L106.79 258.68L108.24 264.31L113.42 265.79ZM119.44 251.89L117.99 246.26L112.81 244.77L109.07 248.92L110.52 254.54L115.71 256.03ZM110.52 254.54L109.07 248.92L103.89 247.43L100.16 251.57L101.61 257.20L106.79 258.68ZM126.08 259.00L124.63 253.38L119.44 251.89L115.71 256.03L117.16 261.65L122.34 263.14ZM92.70 259.86L91.25 254.23L86.07 252.75L82.34 256.89L83.79 262.51L88.97 263.99ZM94.98 250.09L93.52 244.47L88.34 242.98L84.61 247.13L86.07 252.75L91.25 254.23ZM101.61 257.20L100.16 251.57L94.98 250.09L91.25 254.23L92.70 259.86L97.88 261.34ZM182.28 196.85L180.84 191.20L175.64 189.71L171.88 193.86L173.33 199.50L178.53 201.00ZM173.33 199.50L171.88 193.86L166.68 192.36L162.93 196.51L164.37 202.16L169.57 203.65ZM184.60 187.05L183.15 181.41L177.95 179.91L174.19 184.06L175.64 189.71L180.84 191.20ZM175.64 189.71L174.19 184.06L168.99 182.57L165.23 186.72L166.68 192.36L171.88 193.86ZM188.93 203.99L187.48 198.34L182.28 196.85L178.53 201.00L179.97 206.64L185.17 208.13ZM179.97 206.64L178.53 201.00L173.33 199.50L169.57 203.65L171.02 209.29L176.21 210.78ZM191.24 194.20L189.80 188.55L184.60 187.05L180.84 191.20L182.28 196.85L187.48 198.34ZM157.73 195.02L156.28 189.38L151.08 187.89L147.33 192.04L148.78 197.68L153.98 199.17ZM148.78 197.68L147.33 192.04L142.13 190.55L138.39 194.70L139.84 200.34L145.03 201.83ZM151.08 187.89L149.63 182.25L144.43 180.76L140.68 184.91L142.13 190.55L147.33 192.04ZM164.37 202.16L162.93 196.51L157.73 195.02L153.98 199.17L155.42 204.81L160.62 206.30ZM155.42 204.81L153.98 199.17L148.78 197.68L145.03 201.83L146.48 207.47L151.67 208.96ZM195.88 174.60L194.44 168.95L189.23 167.45L185.47 171.61L186.91 177.25L192.12 178.75ZM186.91 177.25L185.47 171.61L180.26 170.11L176.50 174.27L177.95 179.91L183.15 181.41ZM189.23 167.45L187.79 161.80L182.58 160.31L178.82 164.46L180.26 170.11L185.47 171.61ZM193.56 184.40L192.12 178.75L186.91 177.25L183.15 181.41L184.60 187.05L189.80 188.55ZM171.30 172.77L169.85 167.13L164.65 165.63L160.89 169.79L162.34 175.43L167.54 176.93ZM173.61 162.97L172.16 157.32L166.96 155.83L163.20 159.99L164.65 165.63L169.85 167.13ZM164.65 165.63L163.20 159.99L158.00 158.50L154.24 162.65L155.69 168.30L160.89 169.79ZM177.95 179.91L176.50 174.27L171.30 172.77L167.54 176.93L168.99 182.57L174.19 184.06ZM180.26 170.11L178.82 164.46L173.61 162.97L169.85 167.13L171.30 172.77L176.50 174.27ZM193.25 220.92L191.81 215.27L186.61 213.78L182.86 217.92L184.30 223.56L189.50 225.06ZM184.30 223.56L182.86 217.92L177.66 216.43L173.90 220.57L175.35 226.21L180.54 227.71ZM195.57 211.13L194.13 205.49L188.93 203.99L185.17 208.13L186.61 213.78L191.81 215.27ZM186.61 213.78L185.17 208.13L179.97 206.64L176.21 210.78L177.66 216.43L182.86 217.92ZM199.89 228.06L198.45 222.42L193.25 220.92L189.50 225.06L190.94 230.70L196.14 232.20ZM190.94 230.70L189.50 225.06L184.30 223.56L180.54 227.71L181.99 233.34L187.18 234.84ZM202.21 218.27L200.77 212.63L195.57 211.13L191.81 215.27L193.25 220.92L198.45 222.42ZM168.71 219.08L167.26 213.44L162.07 211.94L158.32 216.09L159.76 221.73L164.96 223.22ZM159.76 221.73L158.32 216.09L153.12 214.60L149.37 218.74L150.82 224.38L156.01 225.87ZM171.02 209.29L169.57 203.65L164.37 202.16L160.62 206.30L162.07 211.94L167.26 213.44ZM162.07 211.94L160.62 206.30L155.42 204.81L151.67 208.96L153.12 214.60L158.32 216.09ZM175.35 226.21L173.90 220.57L168.71 219.08L164.96 223.22L166.40 228.86L171.60 230.35ZM166.40 228.86L164.96 223.22L159.76 221.73L156.01 225.87L157.46 231.51L162.65 233.00ZM177.66 216.43L176.21 210.78L171.02 209.29L167.26 213.44L168.71 219.08L173.90 220.57ZM197.89 201.34L196.45 195.69L191.24 194.20L187.48 198.34L188.93 203.99L194.13 205.49ZM200.21 191.54L198.77 185.90L193.56 184.40L189.80 188.55L191.24 194.20L196.45 195.69ZM213.50 205.84L212.06 200.19L206.85 198.69L203.09 202.84L204.53 208.48L209.74 209.98ZM169.55 109.44L168.10 103.78L162.89 102.29L159.13 106.46L160.58 112.11L165.79 113.60ZM160.58 112.11L159.13 106.46L153.91 104.97L150.15 109.14L151.61 114.79L156.82 116.28ZM171.87 99.61L170.42 93.96L165.20 92.47L161.44 96.64L162.89 102.29L168.10 103.78ZM252.49 112.25L251.05 106.58L245.83 105.08L242.04 109.24L243.48 114.91L248.70 116.41ZM254.83 102.42L253.39 96.75L248.17 95.25L244.38 99.41L245.83 105.08L251.05 106.58ZM245.83 105.08L244.38 99.41L239.16 97.91L235.38 102.07L236.82 107.74L242.04 109.24ZM248.17 95.25L246.73 89.58L241.50 88.08L237.72 92.24L239.16 97.91L244.38 99.41ZM263.46 136.41L262.03 130.75L256.80 129.24L253.02 133.40L254.46 139.06L259.68 140.57ZM265.81 126.59L264.37 120.93L259.15 119.42L255.37 123.58L256.80 129.24L262.03 130.75ZM247.80 131.90L246.36 126.23L241.14 124.73L237.36 128.89L238.80 134.55L244.02 136.05ZM238.80 134.55L237.36 128.89L232.14 127.39L228.37 131.55L229.81 137.21L235.02 138.71ZM241.14 124.73L239.70 119.07L234.48 117.56L230.70 121.72L232.14 127.39L237.36 128.89ZM254.46 139.06L253.02 133.40L247.80 131.90L244.02 136.05L245.46 141.71L250.68 143.22ZM256.80 129.24L255.37 123.58L250.14 122.07L246.36 126.23L247.80 131.90L253.02 133.40ZM198.51 128.21L197.07 122.56L191.86 121.06L188.09 125.22L189.53 130.88L194.75 132.37ZM205.17 135.37L203.73 129.71L198.51 128.21L194.75 132.37L196.19 138.03L201.40 139.52ZM196.19 138.03L194.75 132.37L189.53 130.88L185.77 135.04L187.21 140.69L192.42 142.19ZM207.50 125.55L206.06 119.89L200.84 118.39L197.07 122.56L198.51 128.21L203.73 129.71ZM173.90 126.40L172.45 120.75L167.24 119.25L163.48 123.42L164.93 129.07L170.14 130.56ZM164.93 129.07L163.48 123.42L158.27 121.93L154.51 126.09L155.96 131.74L161.17 133.23ZM176.21 116.58L174.77 110.93L169.55 109.44L165.79 113.60L167.24 119.25L172.45 120.75ZM167.24 119.25L165.79 113.60L160.58 112.11L156.82 116.28L158.27 121.93L163.48 123.42ZM180.56 133.54L179.11 127.89L173.90 126.40L170.14 130.56L171.58 136.21L176.79 137.70ZM171.58 136.21L170.14 130.56L164.93 129.07L161.17 133.23L162.61 138.88L167.82 140.37ZM182.87 123.73L181.43 118.07L176.21 116.58L172.45 120.75L173.90 126.40L179.11 127.89ZM212.16 105.90L210.71 100.24L205.49 98.74L201.72 102.91L203.17 108.57L208.38 110.07ZM221.16 103.24L219.71 97.57L214.49 96.08L210.71 100.24L212.16 105.90L217.38 107.40ZM178.53 106.76L177.08 101.10L171.87 99.61L168.10 103.78L169.55 109.44L174.77 110.93ZM184.90 150.50L183.45 144.85L178.24 143.36L174.48 147.52L175.92 153.17L181.13 154.66ZM175.92 153.17L174.48 147.52L169.27 146.02L165.51 150.18L166.96 155.83L172.16 157.32ZM187.21 140.69L185.77 135.04L180.56 133.54L176.79 137.70L178.24 143.36L183.45 144.85ZM178.24 143.36L176.79 137.70L171.58 136.21L167.82 140.37L169.27 146.02L174.48 147.52ZM182.58 160.31L181.13 154.66L175.92 153.17L172.16 157.32L173.61 162.97L178.82 164.46Z"/><path data-band="3" fill="#dc2626" fill-opacity="0.35" d="M195.26 247.62L193.82 241.98L188.62 240.48L184.87 244.62L186.31 250.26L191.51 251.76ZM201.90 254.76L200.46 249.12L195.26 247.62L191.51 251.76L192.95 257.39L198.14 258.89ZM186.31 250.26L184.87 244.62L179.68 243.12L175.93 247.26L177.37 252.90L182.56 254.40ZM192.95 257.39L191.51 251.76L186.31 250.26L182.56 254.40L184.00 260.03L189.19 261.53ZM184.00 260.03L182.56 254.40L177.37 252.90L173.62 257.04L175.06 262.67L180.25 264.17ZM160.03 185.23L158.59 179.59L153.38 178.10L149.63 182.25L151.08 187.89L156.28 189.38ZM166.68 192.36L165.23 186.72L160.03 185.23L156.28 189.38L157.73 195.02L162.93 196.51ZM162.34 175.43L160.89 169.79L155.69 168.30L151.94 172.45L153.38 178.10L158.59 179.59ZM168.99 182.57L167.54 176.93L162.34 175.43L158.59 179.59L160.03 185.23L165.23 186.72Z"/></svg>
