<svg xmlns="http://www.w3.org/2000/svg" width="256" height="256" viewBox="0 0 256 256"><path data-band="1" fill="#fde68a" fill-opacity="0.35" d="M104.49 15.77L103.05 10.19L97.91 8.69L94.21 12.78L95.65 18.37L100.79 19.86ZM111.07 22.85L109.63 17.27L104.49 15.77L100.79 19.86L102.23 25.45L107.37 26.94ZM115.60 3.50L114.16 -2.08L109.02 -3.58L105.32 0.51L106.76 6.10L111.90 7.59ZM106.76 6.10L105.32 0.51L100.17 -0.98L96.47 3.11L97.91 8.69L103.05 10.19ZM109.02 -3.58L107.58 -9.17L102.44 -10.66L98.73 -6.57L100.17 -0.98L105.32 0.51ZM122.18 10.59L120.75 5.00L115.60 3.50L111.90 7.59L113.34 13.18L118.48 14.68ZM124.45 0.91L123.02 -4.68L117.87 -6.18L114.16 -2.08L115.60 3.50L120.75 5.00ZM113.12 49.27L111.68 43.69L106.54 42.19L102.85 46.28L104.28 51.85L109.42 53.35ZM104.28 51.85L102.85 46.28L97.71 44.78L94.01 48.86L95.45 54.44L100.59 55.94ZM115.38 39.60L113.95 34.02L108.81 32.52L105.11 36.61L106.54 42.19L111.68 43.69ZM106.54 42.19L105.11 36.61L99.97 35.11L96.27 39.20L97.71 44.78L102.85 46.28ZM119.69 56.35L118.26 50.77L113.12 49.27L109.42 53.35L110.86 58.93L115.99 60.43ZM110.86 58.93L109.42 53.35L104.28 51.85L100.59 55.94L102.02 61.51L107.16 63.01ZM121.96 46.69L120.52 41.10L115.38 39.60L111.68 43.69L113.12 49.27L118.26 50.77ZM88.88 47.37L87.44 41.79L82.31 40.30L78.61 44.38L80.05 49.96L85.19 51.45ZM95.45 54.44L94.01 48.86L88.88 47.37L85.19 51.45L86.63 57.03L91.76 58.52ZM86.63 57.03L85.19 51.45L80.05 49.96L76.36 54.04L77.80 59.62L82.93 61.11ZM97.71 44.78L96.27 39.20L91.14 37.70L87.44 41.79L88.88 47.37L94.01 48.86ZM126.49 27.35L125.06 21.76L119.92 20.26L116.21 24.35L117.65 29.94L122.79 31.44ZM117.65 29.94L116.21 24.35L111.07 22.85L107.37 26.94L108.81 32.52L113.95 34.02ZM128.76 17.68L127.33 12.09L122.18 10.59L118.48 14.68L119.92 20.26L125.06 21.76ZM119.92 20.26L118.48 14.68L113.34 13.18L109.63 17.27L111.07 22.85L116.21 24.35ZM133.07 34.44L131.64 28.85L126.49 27.35L122.79 31.44L124.22 37.02L129.36 38.52ZM124.22 37.02L122.79 31.44L117.65 29.94L113.95 34.02L115.38 39.60L120.52 41.10ZM135.34 24.76L133.91 19.18L128.76 17.68L125.06 21.76L126.49 27.35L131.64 28.85ZM31.65 46.22L30.20 40.65L25.07 39.17L21.39 43.25L22.84 48.82L27.97 50.31ZM16.27 41.77L14.82 36.20L9.69 34.72L6.02 38.81L7.47 44.38L12.59 45.86ZM7.47 44.38L6.02 38.81L0.90 37.33L-2.78 41.42L-1.33 46.99L3.79 48.47ZM18.50 32.11L17.05 26.54L11.92 25.06L8.25 29.15L9.69 34.72L14.82 36.20ZM9.69 34.72L8.25 29.15L3.12 27.67L-0.56 31.76L0.90 37.33L6.02 38.81ZM22.84 48.82L21.39 43.25L16.27 41.77L12.59 45.86L14.04 51.43L19.16 52.91ZM25.07 39.17L23.63 33.60L18.50 32.11L14.82 36.20L16.27 41.77L21.39 43.25ZM29.54 19.84L28.09 14.27L22.96 12.79L19.28 16.88L20.73 22.45L25.86 23.93ZM20.73 22.45L19.28 16.88L14.15 15.40L10.47 19.49L11.92 25.06L17.05 26.54ZM31.78 10.18L30.33 4.60L25.20 3.12L21.51 7.21L22.96 12.79L28.09 14.27ZM22.96 12.79L21.51 7.21L16.38 5.73L12.70 9.83L14.15 15.40L19.28 16.88ZM27.31 29.51L25.86 23.93L20.73 22.45L17.05 26.54L18.50 32.11L23.63 33.60ZM57.93 74.45L56.49 68.88L51.36 67.39L47.68 71.47L49.12 77.04L54.25 78.53ZM49.12 77.04L47.68 71.47L42.55 69.98L38.87 74.06L40.32 79.63L45.44 81.12ZM124.00 73.09L122.56 67.51L117.43 66.01L113.73 70.09L115.16 75.67L120.30 77.17ZM115.16 75.67L113.73 70.09L108.59 68.59L104.90 72.67L106.33 78.24L111.47 79.74ZM126.26 63.43L124.83 57.85L119.69 56.35L115.99 60.43L117.43 66.01L122.56 67.51ZM117.43 66.01L115.99 60.43L110.86 58.93L107.16 63.01L108.59 68.59L113.73 70.09ZM137.37 51.19L135.94 45.61L130.80 44.10L127.10 48.19L128.53 53.77L133.67 55.27ZM128.53 53.77L127.10 48.19L121.96 46.69L118.26 50.77L119.69 56.35L124.83 57.85ZM139.65 41.52L138.21 35.94L133.07 34.44L129.36 38.52L130.80 44.10L135.94 45.61ZM130.80 44.10L129.36 38.52L124.22 37.02L120.52 41.10L121.96 46.69L127.10 48.19ZM135.10 60.85L133.67 55.27L128.53 53.77L124.83 57.85L126.26 63.43L131.40 64.93ZM146.22 48.61L144.79 43.03L139.65 41.52L135.94 45.61L137.37 51.19L142.51 52.69ZM88.69 83.40L87.25 77.83L82.12 76.34L78.43 80.42L79.87 85.99L85.00 87.48ZM79.87 85.99L78.43 80.42L73.31 78.92L69.62 83.00L71.06 88.57L76.19 90.06ZM93.00 100.12L91.56 94.55L86.44 93.05L82.75 97.13L84.19 102.70L89.31 104.19ZM95.26 90.47L93.82 84.90L88.69 83.40L85.00 87.48L86.44 93.05L91.56 94.55ZM62.25 91.15L60.81 85.59L55.69 84.10L52.01 88.17L53.45 93.74L58.57 95.23ZM53.45 93.74L52.01 88.17L46.88 86.68L43.20 90.76L44.65 96.33L49.77 97.82ZM64.50 81.51L63.05 75.94L57.93 74.45L54.25 78.53L55.69 84.10L60.81 85.59ZM55.69 84.10L54.25 78.53L49.12 77.04L45.44 81.12L46.88 86.68L52.01 88.17ZM68.82 98.21L67.38 92.65L62.25 91.15L58.57 95.23L60.01 100.80L65.13 102.29ZM60.01 100.80L58.57 95.23L53.45 93.74L49.77 97.82L51.21 103.38L56.33 104.87ZM71.06 88.57L69.62 83.00L64.50 81.51L60.81 85.59L62.25 91.15L67.38 92.65ZM99.77 71.17L98.33 65.59L93.20 64.10L89.50 68.18L90.94 73.75L96.07 75.25ZM90.94 73.75L89.50 68.18L84.37 66.68L80.68 70.76L82.12 76.34L87.25 77.83ZM102.02 61.51L100.59 55.94L95.45 54.44L91.76 58.52L93.20 64.10L98.33 65.59ZM93.20 64.10L91.76 58.52L86.63 57.03L82.93 61.11L84.37 66.68L89.50 68.18ZM106.33 78.24L104.90 72.67L99.77 71.17L96.07 75.25L97.51 80.82L102.64 82.32ZM97.51 80.82L96.07 75.25L90.94 73.75L87.25 77.83L88.69 83.40L93.82 84.90ZM108.59 68.59L107.16 63.01L102.02 61.51L98.33 65.59L99.77 71.17L104.90 72.67ZM75.55 69.27L74.11 63.70L68.99 62.21L65.30 66.29L66.74 71.86L71.87 73.35ZM66.74 71.86L65.30 66.29L60.17 64.80L56.49 68.88L57.93 74.45L63.05 75.94ZM82.12 76.34L80.68 70.76L75.55 69.27L71.87 73.35L73.31 78.92L78.43 80.42ZM73.31 78.92L71.87 73.35L66.74 71.86L63.05 75.94L64.50 81.51L69.62 83.00ZM84.37 66.68L82.93 61.11L77.80 59.62L74.11 63.70L75.55 69.27L80.68 70.76ZM97.31 116.83L95.87 111.26L90.75 109.76L87.06 113.83L88.50 119.40L93.62 120.90ZM88.50 119.40L87.06 113.83L81.94 112.34L78.25 116.41L79.69 121.97L84.81 123.47ZM99.56 107.19L98.13 101.62L93.00 100.12L89.31 104.19L90.75 109.76L95.87 111.26ZM90.75 109.76L89.31 104.19L84.19 102.70L80.50 106.77L81.94 112.34L87.06 113.83ZM103.87 123.89L102.43 118.33L97.31 116.83L93.62 120.90L95.06 126.46L100.18 127.96ZM106.13 114.26L104.69 108.68L99.56 107.19L95.87 111.26L97.31 116.83L102.43 118.33ZM73.13 114.91L71.69 109.35L66.57 107.85L62.89 111.93L64.33 117.49L69.45 118.98ZM64.33 117.49L62.89 111.93L57.77 110.44L54.09 114.51L55.53 120.07L60.65 121.56ZM66.57 107.85L65.13 102.29L60.01 100.80L56.33 104.87L57.77 110.44L62.89 111.93ZM79.69 121.97L78.25 116.41L73.13 114.91L69.45 118.98L70.89 124.55L76.01 126.04ZM70.89 124.55L69.45 118.98L64.33 117.49L60.65 121.56L62.09 127.12L67.21 128.62ZM81.94 112.34L80.50 106.77L75.38 105.27L71.69 109.35L73.13 114.91L78.25 116.41ZM110.64 94.97L109.21 89.39L104.08 87.89L100.38 91.97L101.82 97.54L106.95 99.04ZM101.82 97.54L100.38 91.97L95.26 90.47L91.56 94.55L93.00 100.12L98.13 101.62ZM112.90 85.32L111.47 79.74L106.33 78.24L102.64 82.32L104.08 87.89L109.21 89.39ZM104.08 87.89L102.64 82.32L97.51 80.82L93.82 84.90L95.26 90.47L100.38 91.97ZM108.38 104.61L106.95 99.04L101.82 97.54L98.13 101.62L99.56 107.19L104.69 108.68ZM139.89 5.41L138.46 -0.18L133.31 -1.68L129.60 2.41L131.04 8.00L136.18 9.50ZM131.04 8.00L129.60 2.41L124.45 0.91L120.75 5.00L122.18 10.59L127.33 12.09ZM133.31 -1.68L131.87 -7.27L126.73 -8.77L123.02 -4.68L124.45 0.91L129.60 2.41ZM137.62 15.09L136.18 9.50L131.04 8.00L127.33 12.09L128.76 17.68L133.91 19.18ZM150.77 29.27L149.34 23.68L144.20 22.18L140.49 26.27L141.92 31.85L147.06 33.36ZM141.92 31.85L140.49 26.27L135.34 24.76L131.64 28.85L133.07 34.44L138.21 35.94ZM153.05 19.60L151.62 14.00L146.47 12.50L142.76 16.59L144.20 22.18L149.34 23.68ZM144.20 22.18L142.76 16.59L137.62 15.09L133.91 19.18L135.34 24.76L140.49 26.27ZM157.35 36.36L155.92 30.78L150.77 29.27L147.06 33.36L148.50 38.94L153.64 40.45ZM148.50 38.94L147.06 33.36L141.92 31.85L138.21 35.94L139.65 41.52L144.79 43.03ZM159.63 26.69L158.20 21.10L153.05 19.60L149.34 23.68L150.77 29.27L155.92 30.78ZM263.57 248.36L262.16 242.79L257.03 241.26L253.32 245.30L254.73 250.87L259.86 252.40ZM0.90 37.33L-0.56 31.76L-5.68 30.29L-9.35 34.38L-7.90 39.94L-2.78 41.42ZM0.99 1.30L-0.46 -4.28L-5.59 -5.75L-9.27 -1.65L-7.81 3.92L-2.69 5.39ZM5.35 18.01L3.89 12.44L-1.23 10.96L-4.91 15.06L-3.46 20.63L1.67 22.11ZM7.57 8.35L6.12 2.78L0.99 1.30L-2.69 5.39L-1.23 10.96L3.89 12.44ZM11.92 25.06L10.47 19.49L5.35 18.01L1.67 22.11L3.12 27.67L8.25 29.15ZM3.12 27.67L1.67 22.11L-3.46 20.63L-7.13 24.72L-5.68 30.29L-0.56 31.76ZM14.15 15.40L12.70 9.83L7.57 8.35L3.89 12.44L5.35 18.01L10.47 19.49ZM18.61 -3.94L17.16 -9.51L12.03 -10.99L8.35 -6.89L9.80 -1.32L14.93 0.16ZM9.80 -1.32L8.35 -6.89L3.22 -8.37L-0.46 -4.28L0.99 1.30L6.12 2.78ZM25.20 3.12L23.75 -2.46L18.61 -3.94L14.93 0.16L16.38 5.73L21.51 7.21ZM16.38 5.73L14.93 0.16L9.80 -1.32L6.12 2.78L7.57 8.35L12.70 9.83ZM114.07 255.36L112.64 249.81L107.54 248.30L103.86 252.35L105.29 257.90L110.40 259.40ZM105.29 257.90L103.86 252.35L98.76 250.84L95.08 254.89L96.51 260.43L101.62 261.94ZM116.32 245.76L114.90 240.21L109.79 238.71L106.11 242.75L107.54 248.30L112.64 249.81ZM107.54 248.30L106.11 242.75L101.00 241.25L97.33 245.29L98.76 250.84L103.86 252.35ZM120.60 262.42L119.18 256.86L114.07 255.36L110.40 259.40L111.82 264.95L116.93 266.46ZM122.86 252.82L121.43 247.27L116.32 245.76L112.64 249.81L114.07 255.36L119.18 256.86ZM89.98 253.38L88.55 247.84L83.45 246.34L79.78 250.38L81.21 255.93L86.31 257.43ZM81.21 255.93L79.78 250.38L74.68 248.88L71.01 252.93L72.44 258.47L77.54 259.97ZM92.22 243.79L90.79 238.24L85.69 236.74L82.02 240.79L83.45 246.34L88.55 247.84ZM83.45 246.34L82.02 240.79L76.91 239.29L73.24 243.34L74.68 248.88L79.78 250.38ZM96.51 260.43L95.08 254.89L89.98 253.38L86.31 257.43L87.74 262.97L92.84 264.48ZM87.74 262.97L86.31 257.43L81.21 255.93L77.54 259.97L78.97 265.52L84.07 267.02ZM98.76 250.84L97.33 245.29L92.22 243.79L88.55 247.84L89.98 253.38L95.08 254.89ZM30.88 261.63L29.44 256.09L24.34 254.60L20.69 258.65L22.13 264.18L27.22 265.67ZM178.21 192.10L176.79 186.53L171.66 185.01L167.96 189.07L169.39 194.63L174.51 196.15ZM169.39 194.63L167.96 189.07L162.84 187.55L159.15 191.61L160.57 197.17L165.69 198.69ZM171.66 185.01L170.24 179.44L165.12 177.93L161.42 181.99L162.84 187.55L167.96 189.07ZM175.93 201.72L174.51 196.15L169.39 194.63L165.69 198.69L167.11 204.25L172.23 205.77ZM154.03 190.10L152.60 184.53L147.48 183.02L143.79 187.08L145.21 192.64L150.33 194.15ZM145.21 192.64L143.79 187.08L138.67 185.57L134.98 189.63L136.40 195.19L141.52 196.70ZM156.29 180.48L154.87 174.91L149.75 173.40L146.05 177.46L147.48 183.02L152.60 184.53ZM147.48 183.02L146.05 177.46L140.93 175.95L137.24 180.01L138.67 185.57L143.79 187.08ZM160.57 197.17L159.15 191.61L154.03 190.10L150.33 194.15L151.76 199.72L156.88 201.23ZM151.76 199.72L150.33 194.15L145.21 192.64L141.52 196.70L142.95 202.26L148.07 203.77ZM162.84 187.55L161.42 181.99L156.29 180.48L152.60 184.53L154.03 190.10L159.15 191.61ZM167.39 168.31L165.96 162.73L160.84 161.22L157.14 165.28L158.57 170.85L163.69 172.36ZM158.57 170.85L157.14 165.28L152.02 163.77L148.32 167.83L149.75 173.40L154.87 174.91ZM169.67 158.68L168.24 153.10L163.11 151.59L159.41 155.65L160.84 161.22L165.96 162.73ZM160.84 161.22L159.41 155.65L154.29 154.14L150.59 158.20L152.02 163.77L157.14 165.28ZM173.94 175.39L172.52 169.82L167.39 168.31L163.69 172.36L165.12 177.93L170.24 179.44ZM165.12 177.93L163.69 172.36L158.57 170.85L154.87 174.91L156.29 180.48L161.42 181.99ZM176.22 165.76L174.79 160.19L169.67 158.68L165.96 162.73L167.39 168.31L172.52 169.82ZM189.02 215.88L187.60 210.31L182.48 208.80L178.78 212.85L180.20 218.41L185.32 219.93ZM180.20 218.41L178.78 212.85L173.66 211.33L169.96 215.38L171.38 220.94L176.50 222.46ZM182.48 208.80L181.05 203.23L175.93 201.72L172.23 205.77L173.66 211.33L178.78 212.85ZM195.56 222.96L194.14 217.40L189.02 215.88L185.32 219.93L186.74 225.49L191.86 227.01ZM186.74 225.49L185.32 219.93L180.20 218.41L176.50 222.46L177.92 228.02L183.04 229.54ZM164.84 213.87L163.42 208.30L158.30 206.79L154.61 210.84L156.03 216.40L161.15 217.92ZM156.03 216.40L154.61 210.84L149.49 209.33L145.80 213.38L147.23 218.94L152.34 220.45ZM167.11 204.25L165.69 198.69L160.57 197.17L156.88 201.23L158.30 206.79L163.42 208.30ZM158.30 206.79L156.88 201.23L151.76 199.72L148.07 203.77L149.49 209.33L154.61 210.84ZM171.38 220.94L169.96 215.38L164.84 213.87L161.15 217.92L162.57 223.48L167.69 224.99ZM162.57 223.48L161.15 217.92L156.03 216.40L152.34 220.45L153.77 226.01L158.88 227.52ZM173.66 211.33L172.23 205.77L167.11 204.25L163.42 208.30L164.84 213.87L169.96 215.38ZM116.54 209.89L115.11 204.34L110.00 202.83L106.32 206.88L107.75 212.44L112.86 213.94ZM107.75 212.44L106.32 206.88L101.21 205.38L97.53 209.44L98.96 214.99L104.07 216.49ZM118.80 200.28L117.37 194.72L112.25 193.22L108.57 197.27L110.00 202.83L115.11 204.34ZM110.00 202.83L108.57 197.27L103.46 195.77L99.78 199.83L101.21 205.38L106.32 206.88ZM123.08 216.96L121.66 211.40L116.54 209.89L112.86 213.94L114.29 219.50L119.40 221.01ZM114.29 219.50L112.86 213.94L107.75 212.44L104.07 216.49L105.50 222.05L110.61 223.55ZM125.34 207.35L123.91 201.79L118.80 200.28L115.11 204.34L116.54 209.89L121.66 211.40ZM92.42 207.93L90.99 202.38L85.88 200.88L82.20 204.93L83.63 210.49L88.74 211.99ZM83.63 210.49L82.20 204.93L77.09 203.43L73.42 207.49L74.85 213.04L79.96 214.54ZM98.96 214.99L97.53 209.44L92.42 207.93L88.74 211.99L90.17 217.54L95.28 219.04ZM90.17 217.54L88.74 211.99L83.63 210.49L79.96 214.54L81.39 220.09L86.50 221.59ZM101.21 205.38L99.78 199.83L94.66 198.32L90.99 202.38L92.42 207.93L97.53 209.44ZM129.86 188.12L128.43 182.56L123.31 181.05L119.62 185.11L121.05 190.67L126.17 192.17ZM121.05 190.67L119.62 185.11L114.51 183.60L110.82 187.66L112.25 193.22L117.37 194.72ZM132.12 178.50L130.69 172.93L125.57 171.43L121.88 175.49L123.31 181.05L128.43 182.56ZM123.31 181.05L121.88 175.49L116.76 173.98L113.08 178.04L114.51 183.60L119.62 185.11ZM136.40 195.19L134.98 189.63L129.86 188.12L126.17 192.17L127.60 197.73L132.71 199.24ZM127.60 197.73L126.17 192.17L121.05 190.67L117.37 194.72L118.80 200.28L123.91 201.79ZM138.67 185.57L137.24 180.01L132.12 178.50L128.43 182.56L129.86 188.12L134.98 189.63ZM105.71 186.16L104.28 180.60L99.16 179.10L95.48 183.15L96.91 188.71L102.03 190.21ZM96.91 188.71L95.48 183.15L90.37 181.65L86.69 185.71L88.12 191.27L93.23 192.77ZM107.96 176.54L106.53 170.98L101.41 169.48L97.73 173.54L99.16 179.10L104.28 180.60ZM99.16 179.10L97.73 173.54L92.61 172.04L88.93 176.10L90.37 181.65L95.48 183.15ZM112.25 193.22L110.82 187.66L105.71 186.16L102.03 190.21L103.46 195.77L108.57 197.27ZM114.51 183.60L113.08 178.04L107.96 176.54L104.28 180.60L105.71 186.16L110.82 187.66ZM127.37 233.62L125.94 228.07L120.83 226.56L117.15 230.61L118.58 236.16L123.68 237.67ZM118.58 236.16L117.15 230.61L112.04 229.10L108.36 233.15L109.79 238.71L114.90 240.21ZM129.62 224.02L128.20 218.46L123.08 216.96L119.40 221.01L120.83 226.56L125.94 228.07ZM120.83 226.56L119.40 221.01L114.29 219.50L110.61 223.55L112.04 229.10L117.15 230.61ZM133.90 240.69L132.48 235.13L127.37 233.62L123.68 237.67L125.11 243.22L130.22 244.73ZM125.11 243.22L123.68 237.67L118.58 236.16L114.90 240.21L116.32 245.76L121.43 247.27ZM136.16 231.09L134.74 225.53L129.62 224.02L125.94 228.07L127.37 233.62L132.48 235.13ZM103.25 231.65L101.82 226.10L96.71 224.59L93.04 228.64L94.47 234.19L99.57 235.70ZM94.47 234.19L93.04 228.64L87.93 227.14L84.26 231.19L85.69 236.74L90.79 238.24ZM105.50 222.05L104.07 216.49L98.96 214.99L95.28 219.04L96.71 224.59L101.82 226.10ZM96.71 224.59L95.28 219.04L90.17 217.54L86.50 221.59L87.93 227.14L93.04 228.64ZM109.79 238.71L108.36 233.15L103.25 231.65L99.57 235.70L101.00 241.25L106.11 242.75ZM101.00 241.25L99.57 235.70L94.47 234.19L90.79 238.24L92.22 243.79L97.33 245.29ZM112.04 229.10L110.61 223.55L105.50 222.05L101.82 226.10L103.25 231.65L108.36 233.15ZM140.68 211.87L139.26 206.31L134.14 204.80L130.45 208.85L131.88 214.41L137.00 215.92ZM131.88 214.41L130.45 208.85L125.34 207.35L121.66 211.40L123.08 216.96L128.20 218.46ZM142.95 202.26L141.52 196.70L136.40 195.19L132.71 199.24L134.14 204.80L139.26 206.31ZM134.14 204.80L132.71 199.24L127.60 197.73L123.91 201.79L125.34 207.35L130.45 208.85ZM147.23 218.94L145.80 213.38L140.68 211.87L137.00 215.92L138.42 221.48L143.54 222.99ZM138.42 221.48L137.00 215.92L131.88 214.41L128.20 218.46L129.62 224.02L134.74 225.53ZM149.49 209.33L148.07 203.77L142.95 202.26L139.26 206.31L140.68 211.87L145.80 213.38ZM194.19 124.66L192.76 119.08L187.63 117.57L183.92 121.63L185.34 127.21L190.48 128.73ZM185.34 127.21L183.92 121.63L178.78 120.12L175.08 124.19L176.50 129.76L181.63 131.28ZM196.48 115.01L195.05 109.43L189.91 107.92L186.20 111.99L187.63 117.57L192.76 119.08ZM187.63 117.57L186.20 111.99L181.07 110.47L177.36 114.54L178.78 120.12L183.92 121.63ZM200.75 131.76L199.32 126.18L194.19 124.66L190.48 128.73L191.90 134.31L197.03 135.82ZM191.90 134.31L190.48 128.73L185.34 127.21L181.63 131.28L183.06 136.85L188.19 138.37ZM203.04 122.11L201.61 116.53L196.48 115.01L192.76 119.08L194.19 124.66L199.32 126.18ZM169.94 122.68L168.52 117.10L163.38 115.59L159.68 119.66L161.11 125.23L166.24 126.74ZM161.11 125.23L159.68 119.66L154.55 118.15L150.85 122.22L152.27 127.79L157.40 129.30ZM172.22 113.03L170.80 107.45L165.66 105.94L161.96 110.01L163.38 115.59L168.52 117.10ZM176.50 129.76L175.08 124.19L169.94 122.68L166.24 126.74L167.66 132.32L172.80 133.83ZM167.66 132.32L166.24 126.74L161.11 125.23L157.40 129.30L158.83 134.87L163.96 136.38ZM178.78 120.12L177.36 114.54L172.22 113.03L168.52 117.10L169.94 122.68L175.08 124.19ZM207.62 102.81L206.20 97.23L201.06 95.71L197.34 99.78L198.77 105.36L203.91 106.88ZM198.77 105.36L197.34 99.78L192.20 98.27L188.49 102.34L189.91 107.92L195.05 109.43ZM205.33 112.46L203.91 106.88L198.77 105.36L195.05 109.43L196.48 115.01L201.61 116.53ZM183.35 100.82L181.93 95.24L176.79 93.73L173.08 97.80L174.50 103.38L179.64 104.89ZM174.50 103.38L173.08 97.80L167.94 96.29L164.23 100.36L165.66 105.94L170.80 107.45ZM189.91 107.92L188.49 102.34L183.35 100.82L179.64 104.89L181.07 110.47L186.20 111.99ZM181.07 110.47L179.64 104.89L174.50 103.38L170.80 107.45L172.22 113.03L177.36 114.54ZM192.20 98.27L190.78 92.68L185.64 91.17L181.93 95.24L183.35 100.82L188.49 102.34ZM171.94 149.04L170.52 143.47L165.39 141.96L161.69 146.02L163.11 151.59L168.24 153.10ZM174.22 139.41L172.80 133.83L167.66 132.32L163.96 136.38L165.39 141.96L170.52 143.47ZM178.50 156.13L177.07 150.55L171.94 149.04L168.24 153.10L169.67 158.68L174.79 160.19ZM209.60 129.21L208.17 123.63L203.04 122.11L199.32 126.18L200.75 131.76L205.88 133.28ZM211.89 119.56L210.47 113.98L205.33 112.46L201.61 116.53L203.04 122.11L208.17 123.63ZM123.54 145.10L122.11 139.54L116.98 138.03L113.29 142.10L114.73 147.66L119.85 149.17ZM125.80 135.47L124.37 129.90L119.24 128.40L115.55 132.46L116.98 138.03L122.11 139.54ZM138.91 149.62L137.48 144.05L132.36 142.54L128.66 146.61L130.09 152.18L135.22 153.68ZM130.09 152.18L128.66 146.61L123.54 145.10L119.85 149.17L121.28 154.73L126.40 156.24ZM141.18 139.99L139.75 134.41L134.62 132.91L130.93 136.97L132.36 142.54L137.48 144.05ZM108.17 140.60L106.74 135.03L101.62 133.53L97.93 137.60L99.36 143.16L104.48 144.66ZM99.36 143.16L97.93 137.60L92.81 136.10L89.12 140.16L90.56 145.73L95.68 147.23ZM110.43 130.96L108.99 125.39L103.87 123.89L100.18 127.96L101.62 133.53L106.74 135.03ZM101.62 133.53L100.18 127.96L95.06 126.46L91.37 130.53L92.81 136.10L97.93 137.60ZM114.73 147.66L113.29 142.10L108.17 140.60L104.48 144.66L105.92 150.23L111.04 151.73ZM105.92 150.23L104.48 144.66L99.36 143.16L95.68 147.23L97.11 152.79L102.23 154.29ZM116.98 138.03L115.55 132.46L110.43 130.96L106.74 135.03L108.17 140.60L113.29 142.10ZM152.27 127.79L150.85 122.22L145.72 120.71L142.02 124.78L143.45 130.35L148.57 131.86ZM143.45 130.35L142.02 124.78L136.89 123.27L133.19 127.34L134.62 132.91L139.75 134.41ZM112.68 121.33L111.25 115.76L106.13 114.26L102.43 118.33L103.87 123.89L108.99 125.39ZM119.24 128.40L117.81 122.83L112.68 121.33L108.99 125.39L110.43 130.96L115.55 132.46ZM143.20 166.32L141.77 160.76L136.65 159.25L132.95 163.31L134.38 168.88L139.50 170.38ZM134.38 168.88L132.95 163.31L127.83 161.80L124.14 165.86L125.57 171.43L130.69 172.93ZM145.46 156.70L144.04 151.13L138.91 149.62L135.22 153.68L136.65 159.25L141.77 160.76ZM136.65 159.25L135.22 153.68L130.09 152.18L126.40 156.24L127.83 161.80L132.95 163.31ZM149.75 173.40L148.32 167.83L143.20 166.32L139.50 170.38L140.93 175.95L146.05 177.46ZM140.93 175.95L139.50 170.38L134.38 168.88L130.69 172.93L132.12 178.50L137.24 180.01ZM152.02 163.77L150.59 158.20L145.46 156.70L141.77 160.76L143.20 166.32L148.32 167.83ZM119.02 164.36L117.59 158.80L112.47 157.29L108.78 161.35L110.21 166.92L115.33 168.42ZM110.21 166.92L108.78 161.35L103.66 159.85L99.98 163.91L101.41 169.48L106.53 170.98ZM121.28 154.73L119.85 149.17L114.73 147.66L111.04 151.73L112.47 157.29L117.59 158.80ZM112.47 157.29L111.04 151.73L105.92 150.23L102.23 154.29L103.66 159.85L108.78 161.35ZM125.57 171.43L124.14 165.86L119.02 164.36L115.33 168.42L116.76 173.98L121.88 175.49ZM116.76 173.98L115.33 168.42L110.21 166.92L106.53 170.98L107.96 176.54L113.08 178.04ZM127.83 161.80L126.40 156.24L121.28 154.73L117.59 158.80L119.02 164.36L124.14 165.86ZM156.56 144.51L155.13 138.94L150.00 137.43L146.30 141.49L147.73 147.06L152.86 148.57ZM147.73 147.06L146.30 141.49L141.18 139.99L137.48 144.05L138.91 149.62L144.04 151.13ZM158.83 134.87L157.40 129.30L152.27 127.79L148.57 131.86L150.00 137.43L155.13 138.94ZM150.00 137.43L148.57 131.86L143.45 130.35L139.75 134.41L141.18 139.99L146.30 141.49ZM163.11 151.59L161.69 146.02L156.56 144.51L152.86 148.57L154.29 154.14L159.41 155.65ZM154.29 154.14L152.86 148.57L147.73 147.06L144.04 151.13L145.46 156.70L150.59 158.20ZM165.39 141.96L163.96 136.38L158.83 134.87L155.13 138.94L156.56 144.51L161.69 146.02ZM215.17 244.22L213.76 238.66L208.64 237.14L204.93 241.18L206.35 246.74L211.47 248.27ZM230.53 248.80L229.12 243.23L224.00 241.71L220.29 245.75L221.71 251.31L226.83 252.84ZM221.71 251.31L220.29 245.75L215.17 244.22L211.47 248.27L212.89 253.83L218.00 255.35ZM232.83 239.19L231.41 233.62L226.29 232.10L222.58 236.14L224.00 241.71L229.12 243.23ZM199.82 239.66L198.40 234.09L193.28 232.57L189.58 236.62L191.00 242.18L196.12 243.70ZM191.00 242.18L189.58 236.62L184.46 235.10L180.77 239.15L182.19 244.71L187.30 246.22ZM202.10 230.05L200.68 224.48L195.56 222.96L191.86 227.01L193.28 232.57L198.40 234.09ZM193.28 232.57L191.86 227.01L186.74 225.49L183.04 229.54L184.46 235.10L189.58 236.62ZM206.35 246.74L204.93 241.18L199.82 239.66L196.12 243.70L197.53 249.26L202.65 250.78ZM197.53 249.26L196.12 243.70L191.00 242.18L187.30 246.22L188.72 251.79L193.84 253.31ZM208.64 237.14L207.22 231.57L202.10 230.05L198.40 234.09L199.82 239.66L204.93 241.18ZM237.07 255.89L235.65 250.32L230.53 248.80L226.83 252.84L228.24 258.40L233.36 259.93ZM228.24 258.40L226.83 252.84L221.71 251.31L218.00 255.35L219.42 260.92L224.54 262.44ZM243.60 262.99L242.19 257.42L237.07 255.89L233.36 259.93L234.77 265.49L239.89 267.02ZM212.89 253.83L211.47 248.27L206.35 246.74L202.65 250.78L204.07 256.35L209.18 257.87ZM204.07 256.35L202.65 250.78L197.53 249.26L193.84 253.31L195.25 258.87L200.37 260.39ZM219.42 260.92L218.00 255.35L212.89 253.83L209.18 257.87L210.60 263.43L215.72 264.95ZM248.20 243.77L246.78 238.20L241.66 236.67L237.95 240.72L239.36 246.28L244.49 247.81ZM239.36 246.28L237.95 240.72L232.83 239.19L229.12 243.23L230.53 248.80L235.65 250.32ZM250.50 234.16L249.08 228.59L243.96 227.06L240.25 231.10L241.66 236.67L246.78 238.20ZM241.66 236.67L240.25 231.10L235.12 229.58L231.41 233.62L232.83 239.19L237.95 240.72ZM254.73 250.87L253.32 245.30L248.20 243.77L244.49 247.81L245.90 253.38L251.02 254.91ZM245.90 253.38L244.49 247.81L239.36 246.28L235.65 250.32L237.07 255.89L242.19 257.42ZM257.03 241.26L255.62 235.69L250.50 234.16L246.78 238.20L248.20 243.77L253.32 245.30ZM162.30 259.36L160.88 253.80L155.77 252.29L152.08 256.33L153.51 261.89L158.62 263.40ZM153.51 261.89L152.08 256.33L146.97 254.82L143.29 258.86L144.71 264.41L149.82 265.93ZM164.57 249.76L163.15 244.20L158.04 242.69L154.35 246.73L155.77 252.29L160.88 253.80ZM155.77 252.29L154.35 246.73L149.24 245.22L145.55 249.26L146.97 254.82L152.08 256.33ZM171.11 256.83L169.68 251.28L164.57 249.76L160.88 253.80L162.30 259.36L167.41 260.87ZM138.18 257.35L136.75 251.80L131.65 250.29L127.96 254.33L129.39 259.88L134.50 261.39ZM129.39 259.88L127.96 254.33L122.86 252.82L119.18 256.86L120.60 262.42L125.71 263.92ZM140.44 247.75L139.01 242.20L133.90 240.69L130.22 244.73L131.65 250.29L136.75 251.80ZM131.65 250.29L130.22 244.73L125.11 243.22L121.43 247.27L122.86 252.82L127.96 254.33ZM146.97 254.82L145.55 249.26L140.44 247.75L136.75 251.80L138.18 257.35L143.29 258.86ZM175.65 237.63L174.23 232.07L169.11 230.55L165.42 234.60L166.84 240.16L171.96 241.67ZM166.84 240.16L165.42 234.60L160.30 233.08L156.61 237.13L158.04 242.69L163.15 244.20ZM177.92 228.02L176.50 222.46L171.38 220.94L167.69 224.99L169.11 230.55L174.23 232.07ZM169.11 230.55L167.69 224.99L162.57 223.48L158.88 227.52L160.30 233.08L165.42 234.60ZM182.19 244.71L180.77 239.15L175.65 237.63L171.96 241.67L173.38 247.23L178.49 248.75ZM173.38 247.23L171.96 241.67L166.84 240.16L163.15 244.20L164.57 249.76L169.68 251.28ZM184.46 235.10L183.04 229.54L177.92 228.02L174.23 232.07L175.65 237.63L180.77 239.15ZM151.50 235.62L150.08 230.06L144.96 228.55L141.27 232.60L142.70 238.15L147.81 239.66ZM142.70 238.15L141.27 232.60L136.16 231.09L132.48 235.13L133.90 240.69L139.01 242.20ZM153.77 226.01L152.34 220.45L147.23 218.94L143.54 222.99L144.96 228.55L150.08 230.06ZM144.96 228.55L143.54 222.99L138.42 221.48L134.74 225.53L136.16 231.09L141.27 232.60ZM158.04 242.69L156.61 237.13L151.50 235.62L147.81 239.66L149.24 245.22L154.35 246.73ZM149.24 245.22L147.81 239.66L142.70 238.15L139.01 242.20L140.44 247.75L145.55 249.26ZM160.30 233.08L158.88 227.52L153.77 226.01L150.08 230.06L151.50 235.62L156.61 237.13ZM186.44 261.39L185.02 255.83L179.91 254.31L176.22 258.35L177.64 263.91L182.75 265.43ZM188.72 251.79L187.30 246.22L182.19 244.71L178.49 248.75L179.91 254.31L185.02 255.83ZM179.91 254.31L178.49 248.75L173.38 247.23L169.68 251.28L171.11 256.83L176.22 258.35ZM195.25 258.87L193.84 253.31L188.72 251.79L185.02 255.83L186.44 261.39L191.56 262.91ZM9.27 178.49L7.83 172.94L2.73 171.46L-0.93 175.52L0.51 181.07L5.61 182.55ZM0.51 181.07L-0.93 175.52L-6.03 174.04L-9.69 178.10L-8.25 183.64L-3.15 185.13ZM11.49 168.88L10.05 163.33L4.94 161.84L1.28 165.91L2.73 171.46L7.83 172.94ZM2.73 171.46L1.28 165.91L-3.82 164.43L-7.48 168.49L-6.03 174.04L-0.93 175.52ZM15.82 185.52L14.38 179.98L9.27 178.49L5.61 182.55L7.06 188.10L12.16 189.58ZM7.06 188.10L5.61 182.55L0.51 181.07L-3.15 185.13L-1.70 190.67L3.40 192.16ZM18.04 175.91L16.60 170.36L11.49 168.88L7.83 172.94L9.27 178.49L14.38 179.98ZM22.48 156.69L21.04 151.13L15.93 149.65L12.27 153.71L13.71 159.26L18.82 160.75ZM13.71 159.26L12.27 153.71L7.16 152.23L3.50 156.29L4.94 161.84L10.05 163.33ZM24.71 147.07L23.27 141.51L18.15 140.02L14.49 144.09L15.93 149.65L21.04 151.13ZM15.93 149.65L14.49 144.09L9.38 142.61L5.72 146.68L7.16 152.23L12.27 153.71ZM29.03 163.73L27.59 158.17L22.48 156.69L18.82 160.75L20.26 166.30L25.37 167.79ZM20.26 166.30L18.82 160.75L13.71 159.26L10.05 163.33L11.49 168.88L16.60 170.36ZM31.26 154.11L29.82 148.55L24.71 147.07L21.04 151.13L22.48 156.69L27.59 158.17ZM0.61 145.19L-0.84 139.64L-5.95 138.16L-9.61 142.23L-8.16 147.78L-3.05 149.26ZM4.94 161.84L3.50 156.29L-1.61 154.81L-5.27 158.88L-3.82 164.43L1.28 165.91ZM7.16 152.23L5.72 146.68L0.61 145.19L-3.05 149.26L-1.61 154.81L3.50 156.29ZM20.14 202.16L18.70 196.62L13.60 195.13L9.94 199.19L11.38 204.73L16.48 206.22ZM11.38 204.73L9.94 199.19L4.84 197.70L1.19 201.76L2.63 207.30L7.73 208.79ZM22.36 192.56L20.92 187.01L15.82 185.52L12.16 189.58L13.60 195.13L18.70 196.62ZM13.60 195.13L12.16 189.58L7.06 188.10L3.40 192.16L4.84 197.70L9.94 199.19ZM26.69 209.20L25.25 203.65L20.14 202.16L16.48 206.22L17.93 211.76L23.03 213.25ZM17.93 211.76L16.48 206.22L11.38 204.73L7.73 208.79L9.17 214.33L14.27 215.82ZM28.91 199.59L27.47 194.05L22.36 192.56L18.70 196.62L20.14 202.16L25.25 203.65ZM2.63 207.30L1.19 201.76L-3.91 200.27L-7.57 204.33L-6.12 209.87L-1.03 211.36ZM4.84 197.70L3.40 192.16L-1.70 190.67L-5.36 194.73L-3.91 200.27L1.19 201.76ZM33.36 180.38L31.92 174.83L26.81 173.34L23.15 177.40L24.59 182.95L29.69 184.44ZM24.59 182.95L23.15 177.40L18.04 175.91L14.38 179.98L15.82 185.52L20.92 187.01ZM35.58 170.77L34.14 165.21L29.03 163.73L25.37 167.79L26.81 173.34L31.92 174.83ZM26.81 173.34L25.37 167.79L20.26 166.30L16.60 170.36L18.04 175.91L23.15 177.40ZM39.90 187.42L38.46 181.87L33.36 180.38L29.69 184.44L31.13 189.99L36.24 191.48ZM31.13 189.99L29.69 184.44L24.59 182.95L20.92 187.01L22.36 192.56L27.47 194.05ZM42.13 177.81L40.69 172.26L35.58 170.77L31.92 174.83L33.36 180.38L38.46 181.87ZM24.83 111.14L23.39 105.58L18.27 104.10L14.60 108.17L16.04 113.73L21.16 115.21ZM16.04 113.73L14.60 108.17L9.48 106.69L5.82 110.76L7.26 116.32L12.38 117.80ZM27.06 101.50L25.61 95.94L20.49 94.46L16.82 98.54L18.27 104.10L23.39 105.58ZM18.27 104.10L16.82 98.54L11.71 97.05L8.04 101.13L9.48 106.69L14.60 108.17ZM31.39 118.19L29.95 112.63L24.83 111.14L21.16 115.21L22.60 120.77L27.72 122.26ZM22.60 120.77L21.16 115.21L16.04 113.73L12.38 117.80L13.82 123.36L18.93 124.84ZM33.62 108.55L32.18 102.99L27.06 101.50L23.39 105.58L24.83 111.14L29.95 112.63ZM0.70 109.28L-0.74 103.72L-5.86 102.24L-9.52 106.32L-8.07 111.87L-2.96 113.36ZM2.92 99.65L1.48 94.09L-3.64 92.61L-7.31 96.69L-5.86 102.24L-0.74 103.72ZM7.26 116.32L5.82 110.76L0.70 109.28L-2.96 113.36L-1.51 118.91L3.60 120.39ZM9.48 106.69L8.04 101.13L2.92 99.65L-0.74 103.72L0.70 109.28L5.82 110.76ZM29.29 91.87L27.84 86.30L22.72 84.82L19.05 88.90L20.49 94.46L25.61 95.94ZM44.65 96.33L43.20 90.76L38.08 89.27L34.41 93.35L35.85 98.92L40.97 100.40ZM35.85 98.92L34.41 93.35L29.29 91.87L25.61 95.94L27.06 101.50L32.18 102.99ZM46.88 86.68L45.44 81.12L40.32 79.63L36.64 83.71L38.08 89.27L43.20 90.76ZM13.93 87.41L12.48 81.85L7.37 80.37L3.70 84.45L5.14 90.01L10.26 91.49ZM5.14 90.01L3.70 84.45L-1.42 82.97L-5.09 87.05L-3.64 92.61L1.48 94.09ZM20.49 94.46L19.05 88.90L13.93 87.41L10.26 91.49L11.71 97.05L16.82 98.54ZM11.71 97.05L10.26 91.49L5.14 90.01L1.48 94.09L2.92 99.65L8.04 101.13ZM22.72 84.82L21.28 79.25L16.16 77.77L12.48 81.85L13.93 87.41L19.05 88.90ZM35.72 134.86L34.27 129.30L29.16 127.82L25.49 131.89L26.93 137.44L32.05 138.93ZM26.93 137.44L25.49 131.89L20.38 130.40L16.71 134.47L18.15 140.02L23.27 141.51ZM37.95 125.23L36.50 119.67L31.39 118.19L27.72 122.26L29.16 127.82L34.27 129.30ZM29.16 127.82L27.72 122.26L22.60 120.77L18.93 124.84L20.38 130.40L25.49 131.89ZM42.27 141.91L40.83 136.35L35.72 134.86L32.05 138.93L33.49 144.49L38.60 145.97ZM33.49 144.49L32.05 138.93L26.93 137.44L23.27 141.51L24.71 147.07L29.82 148.55ZM44.50 132.28L43.06 126.72L37.95 125.23L34.27 129.30L35.72 134.86L40.83 136.35ZM11.60 132.99L10.15 127.43L5.04 125.95L1.38 130.02L2.82 135.57L7.93 137.06ZM2.82 135.57L1.38 130.02L-3.73 128.54L-7.39 132.61L-5.95 138.16L-0.84 139.64ZM13.82 123.36L12.38 117.80L7.26 116.32L3.60 120.39L5.04 125.95L10.15 127.43ZM5.04 125.95L3.60 120.39L-1.51 118.91L-5.18 122.98L-3.73 128.54L1.38 130.02ZM18.15 140.02L16.71 134.47L11.60 132.99L7.93 137.06L9.38 142.61L14.49 144.09ZM9.38 142.61L7.93 137.06L2.82 135.57L-0.84 139.64L0.61 145.19L5.72 146.68ZM20.38 130.40L18.93 124.84L13.82 123.36L10.15 127.43L11.60 132.99L16.71 134.47ZM48.97 113.02L47.53 107.45L42.41 105.97L38.74 110.04L40.18 115.60L45.30 117.09ZM40.18 115.60L38.74 110.04L33.62 108.55L29.95 112.63L31.39 118.19L36.50 119.67ZM51.21 103.38L49.77 97.82L44.65 96.33L40.97 100.40L42.41 105.97L47.53 107.45ZM42.41 105.97L40.97 100.40L35.85 98.92L32.18 102.99L33.62 108.55L38.74 110.04ZM55.53 120.07L54.09 114.51L48.97 113.02L45.30 117.09L46.74 122.65L51.85 124.14ZM46.74 122.65L45.30 117.09L40.18 115.60L36.50 119.67L37.95 125.23L43.06 126.72ZM57.77 110.44L56.33 104.87L51.21 103.38L47.53 107.45L48.97 113.02L54.09 114.51ZM55.07 227.75L53.63 222.20L48.53 220.71L44.87 224.76L46.30 230.31L51.40 231.80ZM46.30 230.31L44.87 224.76L39.77 223.27L36.10 227.32L37.54 232.86L42.64 234.36ZM57.30 218.15L55.86 212.60L50.76 211.11L47.09 215.16L48.53 220.71L53.63 222.20ZM48.53 220.71L47.09 215.16L41.99 213.67L38.33 217.72L39.77 223.27L44.87 224.76ZM61.61 234.79L60.17 229.25L55.07 227.75L51.40 231.80L52.84 237.35L57.94 238.84ZM52.84 237.35L51.40 231.80L46.30 230.31L42.64 234.36L44.08 239.90L49.18 241.40ZM63.84 225.20L62.40 219.65L57.30 218.15L53.63 222.20L55.07 227.75L60.17 229.25ZM31.00 225.83L29.57 220.29L24.47 218.80L20.81 222.85L22.25 228.39L27.34 229.88ZM22.25 228.39L20.81 222.85L15.71 221.36L12.05 225.41L13.49 230.95L18.59 232.44ZM33.23 216.23L31.79 210.69L26.69 209.20L23.03 213.25L24.47 218.80L29.57 220.29ZM24.47 218.80L23.03 213.25L17.93 211.76L14.27 215.82L15.71 221.36L20.81 222.85ZM37.54 232.86L36.10 227.32L31.00 225.83L27.34 229.88L28.78 235.42L33.88 236.91ZM28.78 235.42L27.34 229.88L22.25 228.39L18.59 232.44L20.03 237.98L25.12 239.47ZM39.77 223.27L38.33 217.72L33.23 216.23L29.57 220.29L31.00 225.83L36.10 227.32ZM68.31 205.99L66.87 200.44L61.77 198.94L58.10 203.00L59.53 208.55L64.64 210.05ZM59.53 208.55L58.10 203.00L52.99 201.51L49.32 205.56L50.76 211.11L55.86 212.60ZM70.55 196.38L69.11 190.83L64.00 189.34L60.33 193.39L61.77 198.94L66.87 200.44ZM61.77 198.94L60.33 193.39L55.22 191.90L51.55 195.96L52.99 201.51L58.10 203.00ZM74.85 213.04L73.42 207.49L68.31 205.99L64.64 210.05L66.07 215.60L71.18 217.09ZM66.07 215.60L64.64 210.05L59.53 208.55L55.86 212.60L57.30 218.15L62.40 219.65ZM77.09 203.43L75.66 197.88L70.55 196.38L66.87 200.44L68.31 205.99L73.42 207.49ZM44.22 204.07L42.78 198.52L37.68 197.03L34.01 201.08L35.45 206.63L40.55 208.12ZM35.45 206.63L34.01 201.08L28.91 199.59L25.25 203.65L26.69 209.20L31.79 210.69ZM46.45 194.46L45.01 188.91L39.90 187.42L36.24 191.48L37.68 197.03L42.78 198.52ZM37.68 197.03L36.24 191.48L31.13 189.99L27.47 194.05L28.91 199.59L34.01 201.08ZM50.76 211.11L49.32 205.56L44.22 204.07L40.55 208.12L41.99 213.67L47.09 215.16ZM41.99 213.67L40.55 208.12L35.45 206.63L31.79 210.69L33.23 216.23L38.33 217.72ZM52.99 201.51L51.55 195.96L46.45 194.46L42.78 198.52L44.22 204.07L49.32 205.56ZM65.91 251.43L64.47 245.88L59.37 244.39L55.71 248.43L57.14 253.98L62.24 255.47ZM57.14 253.98L55.71 248.43L50.61 246.94L46.95 250.99L48.38 256.53L53.48 258.02ZM68.14 241.84L66.71 236.29L61.61 234.79L57.94 238.84L59.37 244.39L64.47 245.88ZM59.37 244.39L57.94 238.84L52.84 237.35L49.18 241.40L50.61 246.94L55.71 248.43ZM72.44 258.47L71.01 252.93L65.91 251.43L62.24 255.47L63.68 261.02L68.77 262.52ZM63.68 261.02L62.24 255.47L57.14 253.98L53.48 258.02L54.92 263.56L60.01 265.06ZM74.68 248.88L73.24 243.34L68.14 241.84L64.47 245.88L65.91 251.43L71.01 252.93ZM41.85 249.49L40.42 243.95L35.32 242.46L31.66 246.50L33.10 252.04L38.19 253.54ZM33.10 252.04L31.66 246.50L26.56 245.01L22.91 249.06L24.34 254.60L29.44 256.09ZM44.08 239.90L42.64 234.36L37.54 232.86L33.88 236.91L35.32 242.46L40.42 243.95ZM35.32 242.46L33.88 236.91L28.78 235.42L25.12 239.47L26.56 245.01L31.66 246.50ZM48.38 256.53L46.95 250.99L41.85 249.49L38.19 253.54L39.63 259.08L44.72 260.57ZM39.63 259.08L38.19 253.54L33.10 252.04L29.44 256.09L30.88 261.63L35.97 263.12ZM50.61 246.94L49.18 241.40L44.08 239.90L40.42 243.95L41.85 249.49L46.95 250.99ZM79.15 229.69L77.72 224.14L72.61 222.64L68.94 226.69L70.38 232.24L75.48 233.74ZM70.38 232.24L68.94 226.69L63.84 225.20L60.17 229.25L61.61 234.79L66.71 236.29ZM81.39 220.09L79.96 214.54L74.85 213.04L71.18 217.09L72.61 222.64L77.72 224.14ZM72.61 222.64L71.18 217.09L66.07 215.60L62.40 219.65L63.84 225.20L68.94 226.69ZM85.69 236.74L84.26 231.19L79.15 229.69L75.48 233.74L76.91 239.29L82.02 240.79ZM76.91 239.29L75.48 233.74L70.38 232.24L66.71 236.29L68.14 241.84L73.24 243.34ZM87.93 227.14L86.50 221.59L81.39 220.09L77.72 224.14L79.15 229.69L84.26 231.19ZM0.32 252.69L-1.12 247.15L-6.21 245.67L-9.86 249.72L-8.42 255.25L-3.33 256.74ZM2.53 243.10L1.09 237.57L-4.00 236.08L-7.65 240.13L-6.21 245.67L-1.12 247.15ZM6.96 223.92L5.51 218.38L0.42 216.90L-3.24 220.95L-1.79 226.49L3.30 227.98ZM9.17 214.33L7.73 208.79L2.63 207.30L-1.03 211.36L0.42 216.90L5.51 218.38ZM0.42 216.90L-1.03 211.36L-6.12 209.87L-9.78 213.93L-8.33 219.47L-3.24 220.95ZM13.49 230.95L12.05 225.41L6.96 223.92L3.30 227.98L4.74 233.52L9.84 235.00ZM4.74 233.52L3.30 227.98L-1.79 226.49L-5.45 230.54L-4.00 236.08L1.09 237.57ZM15.71 221.36L14.27 215.82L9.17 214.33L5.51 218.38L6.96 223.92L12.05 225.41ZM6.85 259.71L5.41 254.18L0.32 252.69L-3.33 256.74L-1.89 262.27L3.20 263.76ZM17.81 247.57L16.37 242.03L11.28 240.54L7.62 244.59L9.07 250.13L14.16 251.62ZM9.07 250.13L7.62 244.59L2.53 243.10L-1.12 247.15L0.32 252.69L5.41 254.18ZM20.03 237.98L18.59 232.44L13.49 230.95L9.84 235.00L11.28 240.54L16.37 242.03ZM11.28 240.54L9.84 235.00L4.74 233.52L1.09 237.57L2.53 243.10L7.62 244.59ZM24.34 254.60L22.91 249.06L17.81 247.57L14.16 251.62L15.60 257.16L20.69 258.65ZM15.60 257.16L14.16 251.62L9.07 250.13L5.41 254.18L6.85 259.71L11.94 261.20ZM26.56 245.01L25.12 239.47L20.03 237.98L16.37 242.03L17.81 247.57L22.91 249.06ZM72.96 150.86L71.52 145.30L66.41 143.81L62.73 147.87L64.17 153.43L69.28 154.93ZM46.59 158.58L45.15 153.02L40.04 151.53L36.37 155.60L37.81 161.15L42.92 162.64ZM37.81 161.15L36.37 155.60L31.26 154.11L27.59 158.17L29.03 163.73L34.14 165.21ZM48.83 148.96L47.39 143.40L42.27 141.91L38.60 145.97L40.04 151.53L45.15 153.02ZM40.04 151.53L38.60 145.97L33.49 144.49L29.82 148.55L31.26 154.11L36.37 155.60ZM53.14 165.62L51.70 160.07L46.59 158.58L42.92 162.64L44.36 168.19L49.47 169.69ZM44.36 168.19L42.92 162.64L37.81 161.15L34.14 165.21L35.58 170.77L40.69 172.26ZM55.38 156.00L53.94 150.45L48.83 148.96L45.15 153.02L46.59 158.58L51.70 160.07ZM84.00 138.67L82.57 133.10L77.45 131.61L73.77 135.67L75.20 141.24L80.32 142.73ZM75.20 141.24L73.77 135.67L68.65 134.18L64.97 138.25L66.41 143.81L71.52 145.30ZM86.25 129.03L84.81 123.47L79.69 121.97L76.01 126.04L77.45 131.61L82.57 133.10ZM77.45 131.61L76.01 126.04L70.89 124.55L67.21 128.62L68.65 134.18L73.77 135.67ZM90.56 145.73L89.12 140.16L84.00 138.67L80.32 142.73L81.76 148.29L86.87 149.79ZM81.76 148.29L80.32 142.73L75.20 141.24L71.52 145.30L72.96 150.86L78.08 152.36ZM92.81 136.10L91.37 130.53L86.25 129.03L82.57 133.10L84.00 138.67L89.12 140.16ZM59.85 136.75L58.41 131.19L53.30 129.70L49.62 133.77L51.06 139.33L56.17 140.82ZM51.06 139.33L49.62 133.77L44.50 132.28L40.83 136.35L42.27 141.91L47.39 143.40ZM62.09 127.12L60.65 121.56L55.53 120.07L51.85 124.14L53.30 129.70L58.41 131.19ZM53.30 129.70L51.85 124.14L46.74 122.65L43.06 126.72L44.50 132.28L49.62 133.77ZM66.41 143.81L64.97 138.25L59.85 136.75L56.17 140.82L57.61 146.38L62.73 147.87ZM57.61 146.38L56.17 140.82L51.06 139.33L47.39 143.40L48.83 148.96L53.94 150.45ZM68.65 134.18L67.21 128.62L62.09 127.12L58.41 131.19L59.85 136.75L64.97 138.25ZM90.37 181.65L88.93 176.10L83.82 174.60L80.14 178.66L81.57 184.21L86.69 185.71ZM48.68 184.85L47.24 179.30L42.13 177.81L38.46 181.87L39.90 187.42L45.01 188.91ZM64.00 189.34L62.57 183.78L57.46 182.29L53.79 186.35L55.22 191.90L60.33 193.39ZM55.22 191.90L53.79 186.35L48.68 184.85L45.01 188.91L46.45 194.46L51.55 195.96ZM94.86 162.41L93.43 156.85L88.31 155.35L84.63 159.42L86.06 164.98L91.18 166.48ZM97.11 152.79L95.68 147.23L90.56 145.73L86.87 149.79L88.31 155.35L93.43 156.85ZM101.41 169.48L99.98 163.91L94.86 162.41L91.18 166.48L92.61 172.04L97.73 173.54ZM92.61 172.04L91.18 166.48L86.06 164.98L82.38 169.04L83.82 174.60L88.93 176.10ZM103.66 159.85L102.23 154.29L97.11 152.79L93.43 156.85L94.86 162.41L99.98 163.91ZM261.27 257.97L259.86 252.40L254.73 250.87L251.02 254.91L252.43 260.48L257.55 262.01ZM252.43 260.48L251.02 254.91L245.90 253.38L242.19 257.42L243.60 262.99L248.72 264.51Z"/><path data-band="2" fill="#f97316" fill-opacity="0.35" d="M263.53 41.71L262.12 36.11L256.96 34.58L253.22 38.66L254.64 44.26L259.80 45.79ZM248.07 37.14L246.65 31.54L241.49 30.02L237.76 34.10L239.18 39.70L244.33 41.22ZM239.18 39.70L237.76 34.10L232.60 32.58L228.87 36.66L230.29 42.26L235.45 43.78ZM250.38 27.46L248.96 21.86L243.80 20.34L240.07 24.42L241.49 30.02L246.65 31.54ZM241.49 30.02L240.07 24.42L234.91 22.90L231.18 26.98L232.60 32.58L237.76 34.10ZM254.64 44.26L253.22 38.66L248.07 37.14L244.33 41.22L245.75 46.82L250.91 48.34ZM245.75 46.82L244.33 41.22L239.18 39.70L235.45 43.78L236.87 49.38L242.02 50.90ZM256.96 34.58L255.54 28.98L250.38 27.46L246.65 31.54L248.07 37.14L253.22 38.66ZM252.70 17.77L251.27 12.17L246.12 10.65L242.38 14.73L243.80 20.34L248.96 21.86ZM255.01 8.09L253.59 2.48L248.43 0.96L244.69 5.04L246.12 10.65L251.27 12.17ZM259.28 24.90L257.86 19.30L252.70 17.77L248.96 21.86L250.38 27.46L255.54 28.98ZM258.90 61.06L257.48 55.46L252.33 53.94L248.59 58.02L250.01 63.61L255.17 65.14ZM250.01 63.61L248.59 58.02L243.44 56.49L239.71 60.57L241.13 66.17L246.28 67.69ZM261.22 51.39L259.80 45.79L254.64 44.26L250.91 48.34L252.33 53.94L257.48 55.46ZM252.33 53.94L250.91 48.34L245.75 46.82L242.02 50.90L243.44 56.49L248.59 58.02ZM265.47 68.18L264.05 62.59L258.90 61.06L255.17 65.14L256.59 70.73L261.74 72.26ZM256.59 70.73L255.17 65.14L250.01 63.61L246.28 67.69L247.70 73.28L252.85 74.81ZM210.24 57.06L208.81 51.47L203.67 49.95L199.94 54.03L201.37 59.62L206.52 61.14ZM201.37 59.62L199.94 54.03L194.80 52.52L191.08 56.59L192.51 62.18L197.65 63.70ZM212.54 47.39L211.11 41.79L205.96 40.28L202.24 44.36L203.67 49.95L208.81 51.47ZM203.67 49.95L202.24 44.36L197.09 42.84L193.37 46.92L194.80 52.52L199.94 54.03ZM216.81 64.17L215.39 58.57L210.24 57.06L206.52 61.14L207.94 66.73L213.09 68.24ZM207.94 66.73L206.52 61.14L201.37 59.62L197.65 63.70L199.08 69.29L204.22 70.80ZM219.11 54.50L217.69 48.90L212.54 47.39L208.81 51.47L210.24 57.06L215.39 58.57ZM185.93 55.08L184.51 49.49L179.36 47.98L175.64 52.06L177.07 57.65L182.22 59.16ZM177.07 57.65L175.64 52.06L170.50 50.55L166.79 54.63L168.22 60.22L173.36 61.73ZM188.22 45.41L186.80 39.82L181.65 38.31L177.93 42.39L179.36 47.98L184.51 49.49ZM179.36 47.98L177.93 42.39L172.79 40.88L169.07 44.97L170.50 50.55L175.64 52.06ZM192.51 62.18L191.08 56.59L185.93 55.08L182.22 59.16L183.65 64.75L188.79 66.26ZM183.65 64.75L182.22 59.16L177.07 57.65L173.36 61.73L174.79 67.32L179.93 68.83ZM194.80 52.52L193.37 46.92L188.22 45.41L184.51 49.49L185.93 55.08L191.08 56.59ZM223.72 35.15L222.29 29.55L217.14 28.03L213.41 32.11L214.84 37.71L219.99 39.23ZM214.84 37.71L213.41 32.11L208.26 30.60L204.54 34.68L205.96 40.28L211.11 41.79ZM226.02 25.47L224.60 19.87L219.44 18.35L215.72 22.43L217.14 28.03L222.29 29.55ZM217.14 28.03L215.72 22.43L210.56 20.92L206.84 25.00L208.26 30.60L213.41 32.11ZM230.29 42.26L228.87 36.66L223.72 35.15L219.99 39.23L221.41 44.82L226.57 46.34ZM221.41 44.82L219.99 39.23L214.84 37.71L211.11 41.79L212.54 47.39L217.69 48.90ZM232.60 32.58L231.18 26.98L226.02 25.47L222.29 29.55L223.72 35.15L228.87 36.66ZM199.39 33.17L197.96 27.57L192.81 26.06L189.09 30.15L190.52 35.74L195.66 37.25ZM190.52 35.74L189.09 30.15L183.94 28.64L180.22 32.72L181.65 38.31L186.80 39.82ZM201.68 23.49L200.26 17.89L195.10 16.38L191.38 20.47L192.81 26.06L197.96 27.57ZM192.81 26.06L191.38 20.47L186.23 18.96L182.51 23.04L183.94 28.64L189.09 30.15ZM205.96 40.28L204.54 34.68L199.39 33.17L195.66 37.25L197.09 42.84L202.24 44.36ZM197.09 42.84L195.66 37.25L190.52 35.74L186.80 39.82L188.22 45.41L193.37 46.92ZM208.26 30.60L206.84 25.00L201.68 23.49L197.96 27.57L199.39 33.17L204.54 34.68ZM221.08 80.94L219.66 75.35L214.51 73.83L210.79 77.91L212.21 83.50L217.36 85.01ZM212.21 83.50L210.79 77.91L205.65 76.39L201.93 80.46L203.35 86.05L208.49 87.57ZM223.38 71.28L221.96 65.68L216.81 64.17L213.09 68.24L214.51 73.83L219.66 75.35ZM214.51 73.83L213.09 68.24L207.94 66.73L204.22 70.80L205.65 76.39L210.79 77.91ZM227.65 88.05L226.23 82.46L221.08 80.94L217.36 85.01L218.78 90.60L223.92 92.12ZM218.78 90.60L217.36 85.01L212.21 83.50L208.49 87.57L209.92 93.16L215.06 94.67ZM229.95 78.39L228.53 72.79L223.38 71.28L219.66 75.35L221.08 80.94L226.23 82.46ZM196.78 78.95L195.36 73.36L190.22 71.85L186.50 75.92L187.93 81.51L193.07 83.02ZM187.93 81.51L186.50 75.92L181.36 74.41L177.64 78.49L179.07 84.07L184.21 85.58ZM199.08 69.29L197.65 63.70L192.51 62.18L188.79 66.26L190.22 71.85L195.36 73.36ZM190.22 71.85L188.79 66.26L183.65 64.75L179.93 68.83L181.36 74.41L186.50 75.92ZM203.35 86.05L201.93 80.46L196.78 78.95L193.07 83.02L194.49 88.61L199.63 90.12ZM194.49 88.61L193.07 83.02L187.93 81.51L184.21 85.58L185.64 91.17L190.78 92.68ZM205.65 76.39L204.22 70.80L199.08 69.29L195.36 73.36L196.78 78.95L201.93 80.46ZM234.56 59.05L233.14 53.45L227.99 51.94L224.26 56.01L225.68 61.61L230.83 63.13ZM225.68 61.61L224.26 56.01L219.11 54.50L215.39 58.57L216.81 64.17L221.96 65.68ZM236.87 49.38L235.45 43.78L230.29 42.26L226.57 46.34L227.99 51.94L233.14 53.45ZM227.99 51.94L226.57 46.34L221.41 44.82L217.69 48.90L219.11 54.50L224.26 56.01ZM241.13 66.17L239.71 60.57L234.56 59.05L230.83 63.13L232.26 68.72L237.40 70.24ZM232.26 68.72L230.83 63.13L225.68 61.61L221.96 65.68L223.38 71.28L228.53 72.79ZM243.44 56.49L242.02 50.90L236.87 49.38L233.14 53.45L234.56 59.05L239.71 60.57ZM232.95 -3.60L231.52 -9.20L226.36 -10.72L222.63 -6.63L224.06 -1.02L229.21 0.49ZM224.06 -1.02L222.63 -6.63L217.47 -8.14L213.74 -4.05L215.17 1.55L220.32 3.06ZM199.70 -2.99L198.27 -8.59L193.11 -10.10L189.39 -6.01L190.82 -0.41L195.97 1.10ZM237.22 13.22L235.80 7.61L230.64 6.09L226.91 10.18L228.33 15.78L233.49 17.30ZM228.33 15.78L226.91 10.18L221.75 8.66L218.02 12.75L219.44 18.35L224.60 19.87ZM239.53 3.53L238.11 -2.08L232.95 -3.60L229.21 0.49L230.64 6.09L235.80 7.61ZM230.64 6.09L229.21 0.49L224.06 -1.02L220.32 3.06L221.75 8.66L226.91 10.18ZM243.80 20.34L242.38 14.73L237.22 13.22L233.49 17.30L234.91 22.90L240.07 24.42ZM234.91 22.90L233.49 17.30L228.33 15.78L224.60 19.87L226.02 25.47L231.18 26.98ZM246.12 10.65L244.69 5.04L239.53 3.53L235.80 7.61L237.22 13.22L242.38 14.73ZM212.86 11.24L211.44 5.64L206.28 4.12L202.55 8.21L203.98 13.81L209.14 15.32ZM203.98 13.81L202.55 8.21L197.40 6.70L193.68 10.79L195.10 16.38L200.26 17.89ZM215.17 1.55L213.74 -4.05L208.58 -5.57L204.85 -1.48L206.28 4.12L211.44 5.64ZM206.28 4.12L204.85 -1.48L199.70 -2.99L195.97 1.10L197.40 6.70L202.55 8.21ZM219.44 18.35L218.02 12.75L212.86 11.24L209.14 15.32L210.56 20.92L215.72 22.43ZM210.56 20.92L209.14 15.32L203.98 13.81L200.26 17.89L201.68 23.49L206.84 25.00ZM221.75 8.66L220.32 3.06L215.17 1.55L211.44 5.64L212.86 11.24L218.02 12.75ZM257.33 -1.61L255.91 -7.22L250.75 -8.74L247.01 -4.65L248.43 0.96L253.59 2.48ZM248.43 0.96L247.01 -4.65L241.85 -6.17L238.11 -2.08L239.53 3.53L244.69 5.04ZM256.21 106.84L254.80 101.25L249.65 99.73L245.92 103.79L247.34 109.38L252.49 110.91ZM247.34 109.38L245.92 103.79L240.78 102.27L237.05 106.34L238.47 111.93L243.62 113.45ZM258.53 97.18L257.11 91.59L251.96 90.07L248.23 94.13L249.65 99.73L254.80 101.25ZM249.65 99.73L248.23 94.13L243.08 92.61L239.36 96.68L240.78 102.27L245.92 103.79ZM262.78 113.96L261.36 108.37L256.21 106.84L252.49 110.91L253.90 116.50L259.05 118.02ZM253.90 116.50L252.49 110.91L247.34 109.38L243.62 113.45L245.03 119.04L250.18 120.56ZM265.09 104.30L263.67 98.71L258.53 97.18L254.80 101.25L256.21 106.84L261.36 108.37ZM231.91 104.82L230.49 99.23L225.35 97.71L221.62 101.78L223.05 107.37L228.19 108.88ZM223.05 107.37L221.62 101.78L216.48 100.26L212.76 104.33L214.19 109.91L219.33 111.43ZM234.21 95.16L232.79 89.57L227.65 88.05L223.92 92.12L225.35 97.71L230.49 99.23ZM225.35 97.71L223.92 92.12L218.78 90.60L215.06 94.67L216.48 100.26L221.62 101.78ZM238.47 111.93L237.05 106.34L231.91 104.82L228.19 108.88L229.61 114.47L234.75 115.99ZM229.61 114.47L228.19 108.88L223.05 107.37L219.33 111.43L220.75 117.02L225.89 118.54ZM240.78 102.27L239.36 96.68L234.21 95.16L230.49 99.23L231.91 104.82L237.05 106.34ZM260.84 87.52L259.42 81.93L254.27 80.40L250.54 84.47L251.96 90.07L257.11 91.59ZM263.15 77.85L261.74 72.26L256.59 70.73L252.85 74.81L254.27 80.40L259.42 81.93ZM245.39 82.95L243.97 77.36L238.82 75.83L235.10 79.91L236.52 85.50L241.67 87.02ZM236.52 85.50L235.10 79.91L229.95 78.39L226.23 82.46L227.65 88.05L232.79 89.57ZM247.70 73.28L246.28 67.69L241.13 66.17L237.40 70.24L238.82 75.83L243.97 77.36ZM238.82 75.83L237.40 70.24L232.26 68.72L228.53 72.79L229.95 78.39L235.10 79.91ZM251.96 90.07L250.54 84.47L245.39 82.95L241.67 87.02L243.08 92.61L248.23 94.13ZM243.08 92.61L241.67 87.02L236.52 85.50L232.79 89.57L234.21 95.16L239.36 96.68ZM254.27 80.40L252.85 74.81L247.70 73.28L243.97 77.36L245.39 82.95L250.54 84.47ZM258.15 133.26L256.74 127.68L251.59 126.15L247.87 130.21L249.29 135.80L254.43 137.32ZM260.46 123.61L259.05 118.02L253.90 116.50L250.18 120.56L251.59 126.15L256.74 127.68ZM264.71 140.38L263.29 134.79L258.15 133.26L254.43 137.32L255.84 142.91L260.98 144.44ZM242.73 128.69L241.31 123.10L236.17 121.58L232.45 125.64L233.87 131.23L239.00 132.75ZM233.87 131.23L232.45 125.64L227.31 124.12L223.59 128.19L225.01 133.77L230.15 135.29ZM245.03 119.04L243.62 113.45L238.47 111.93L234.75 115.99L236.17 121.58L241.31 123.10ZM236.17 121.58L234.75 115.99L229.61 114.47L225.89 118.54L227.31 124.12L232.45 125.64ZM249.29 135.80L247.87 130.21L242.73 128.69L239.00 132.75L240.42 138.34L245.56 139.86ZM240.42 138.34L239.00 132.75L233.87 131.23L230.15 135.29L231.56 140.87L236.70 142.40ZM251.59 126.15L250.18 120.56L245.03 119.04L241.31 123.10L242.73 128.69L247.87 130.21ZM102.23 25.45L100.79 19.86L95.65 18.37L91.95 22.46L93.39 28.04L98.53 29.53ZM93.39 28.04L91.95 22.46L86.82 20.96L83.12 25.05L84.56 30.63L89.70 32.13ZM95.65 18.37L94.21 12.78L89.07 11.29L85.37 15.38L86.82 20.96L91.95 22.46ZM108.81 32.52L107.37 26.94L102.23 25.45L98.53 29.53L99.97 35.11L105.11 36.61ZM99.97 35.11L98.53 29.53L93.39 28.04L89.70 32.13L91.14 37.70L96.27 39.20ZM77.98 23.56L76.54 17.98L71.40 16.49L67.71 20.58L69.15 26.16L74.29 27.65ZM69.15 26.16L67.71 20.58L62.58 19.09L58.89 23.18L60.33 28.76L65.46 30.25ZM80.24 13.89L78.79 8.31L73.66 6.82L69.96 10.91L71.40 16.49L76.54 17.98ZM71.40 16.49L69.96 10.91L64.82 9.42L61.13 13.51L62.58 19.09L67.71 20.58ZM84.56 30.63L83.12 25.05L77.98 23.56L74.29 27.65L75.73 33.23L80.87 34.72ZM75.73 33.23L74.29 27.65L69.15 26.16L65.46 30.25L66.91 35.82L72.04 37.31ZM86.82 20.96L85.37 15.38L80.24 13.89L76.54 17.98L77.98 23.56L83.12 25.05ZM113.34 13.18L111.90 7.59L106.76 6.10L103.05 10.19L104.49 15.77L109.63 17.27ZM91.33 1.62L89.89 -3.97L84.75 -5.46L81.05 -1.37L82.49 4.22L87.63 5.71ZM82.49 4.22L81.05 -1.37L75.91 -2.86L72.21 1.24L73.66 6.82L78.79 8.31ZM97.91 8.69L96.47 3.11L91.33 1.62L87.63 5.71L89.07 11.29L94.21 12.78ZM89.07 11.29L87.63 5.71L82.49 4.22L78.79 8.31L80.24 13.89L85.37 15.38ZM100.17 -0.98L98.73 -6.57L93.59 -8.06L89.89 -3.97L91.33 1.62L96.47 3.11ZM80.05 49.96L78.61 44.38L73.48 42.89L69.79 46.98L71.23 52.55L76.36 54.04ZM91.14 37.70L89.70 32.13L84.56 30.63L80.87 34.72L82.31 40.30L87.44 41.79ZM82.31 40.30L80.87 34.72L75.73 33.23L72.04 37.31L73.48 42.89L78.61 44.38ZM40.46 43.62L39.01 38.05L33.88 36.56L30.20 40.65L31.65 46.22L36.77 47.71ZM42.69 33.96L41.25 28.39L36.12 26.90L32.44 30.99L33.88 36.56L39.01 38.05ZM33.88 36.56L32.44 30.99L27.31 29.51L23.63 33.60L25.07 39.17L30.20 40.65ZM47.03 50.68L45.58 45.11L40.46 43.62L36.77 47.71L38.22 53.28L43.35 54.76ZM38.22 53.28L36.77 47.71L31.65 46.22L27.97 50.31L29.41 55.88L34.54 57.36ZM49.27 41.02L47.82 35.45L42.69 33.96L39.01 38.05L40.46 43.62L45.58 45.11ZM14.04 51.43L12.59 45.86L7.47 44.38L3.79 48.47L5.24 54.03L10.37 55.51ZM53.75 21.69L52.31 16.12L47.17 14.63L43.49 18.72L44.93 24.30L50.07 25.78ZM44.93 24.30L43.49 18.72L38.36 17.24L34.67 21.33L36.12 26.90L41.25 28.39ZM56.00 12.02L54.55 6.45L49.42 4.96L45.73 9.05L47.17 14.63L52.31 16.12ZM47.17 14.63L45.73 9.05L40.59 7.57L36.91 11.66L38.36 17.24L43.49 18.72ZM60.33 28.76L58.89 23.18L53.75 21.69L50.07 25.78L51.51 31.36L56.64 32.85ZM51.51 31.36L50.07 25.78L44.93 24.30L41.25 28.39L42.69 33.96L47.82 35.45ZM62.58 19.09L61.13 13.51L56.00 12.02L52.31 16.12L53.75 21.69L58.89 23.18ZM36.12 26.90L34.67 21.33L29.54 19.84L25.86 23.93L27.31 29.51L32.44 30.99ZM38.36 17.24L36.91 11.66L31.78 10.18L28.09 14.27L29.54 19.84L34.67 21.33ZM51.36 67.39L49.92 61.82L44.79 60.33L41.11 64.41L42.55 69.98L47.68 71.47ZM42.55 69.98L41.11 64.41L35.98 62.93L32.31 67.01L33.75 72.58L38.87 74.06ZM53.60 57.74L52.16 52.17L47.03 50.68L43.35 54.76L44.79 60.33L49.92 61.82ZM44.79 60.33L43.35 54.76L38.22 53.28L34.54 57.36L35.98 62.93L41.11 64.41ZM60.17 64.80L58.73 59.23L53.60 57.74L49.92 61.82L51.36 67.39L56.49 68.88ZM27.18 65.53L25.74 59.96L20.61 58.48L16.94 62.56L18.38 68.13L23.51 69.61ZM18.38 68.13L16.94 62.56L11.81 61.08L8.14 65.16L9.59 70.73L14.71 72.21ZM29.41 55.88L27.97 50.31L22.84 48.82L19.16 52.91L20.61 58.48L25.74 59.96ZM20.61 58.48L19.16 52.91L14.04 51.43L10.37 55.51L11.81 61.08L16.94 62.56ZM33.75 72.58L32.31 67.01L27.18 65.53L23.51 69.61L24.95 75.17L30.07 76.66ZM24.95 75.17L23.51 69.61L18.38 68.13L14.71 72.21L16.16 77.77L21.28 79.25ZM35.98 62.93L34.54 57.36L29.41 55.88L25.74 59.96L27.18 65.53L32.31 67.01ZM64.66 45.48L63.22 39.91L58.09 38.42L54.40 42.51L55.84 48.08L60.97 49.57ZM55.84 48.08L54.40 42.51L49.27 41.02L45.58 45.11L47.03 50.68L52.16 52.17ZM66.91 35.82L65.46 30.25L60.33 28.76L56.64 32.85L58.09 38.42L63.22 39.91ZM58.09 38.42L56.64 32.85L51.51 31.36L47.82 35.45L49.27 41.02L54.40 42.51ZM71.23 52.55L69.79 46.98L64.66 45.48L60.97 49.57L62.41 55.14L67.54 56.63ZM62.41 55.14L60.97 49.57L55.84 48.08L52.16 52.17L53.60 57.74L58.73 59.23ZM73.48 42.89L72.04 37.31L66.91 35.82L63.22 39.91L64.66 45.48L69.79 46.98ZM67.07 -0.25L65.63 -5.84L60.49 -7.32L56.80 -3.23L58.24 2.35L63.38 3.84ZM58.24 2.35L56.80 -3.23L51.66 -4.71L47.97 -0.62L49.42 4.96L54.55 6.45ZM73.66 6.82L72.21 1.24L67.07 -0.25L63.38 3.84L64.82 9.42L69.96 10.91ZM64.82 9.42L63.38 3.84L58.24 2.35L54.55 6.45L56.00 12.02L61.13 13.51ZM75.91 -2.86L74.47 -8.44L69.33 -9.93L65.63 -5.84L67.07 -0.25L72.21 1.24ZM42.84 -2.10L41.39 -7.68L36.25 -9.17L32.57 -5.07L34.01 0.51L39.15 1.99ZM34.01 0.51L32.57 -5.07L27.43 -6.55L23.75 -2.46L25.20 3.12L30.33 4.60ZM49.42 4.96L47.97 -0.62L42.84 -2.10L39.15 1.99L40.59 7.57L45.73 9.05ZM40.59 7.57L39.15 1.99L34.01 0.51L30.33 4.60L31.78 10.18L36.91 11.66ZM148.24 75.02L146.81 69.44L141.67 67.94L137.97 72.02L139.40 77.60L144.54 79.10ZM139.40 77.60L137.97 72.02L132.83 70.51L129.13 74.59L130.56 80.17L135.70 81.67ZM150.52 65.36L149.09 59.78L143.95 58.28L140.24 62.36L141.67 67.94L146.81 69.44ZM141.67 67.94L140.24 62.36L135.10 60.85L131.40 64.93L132.83 70.51L137.97 72.02ZM154.81 82.11L153.38 76.53L148.24 75.02L144.54 79.10L145.97 84.68L151.10 86.19ZM145.97 84.68L144.54 79.10L139.40 77.60L135.70 81.67L137.13 87.25L142.26 88.75ZM157.09 72.45L155.66 66.87L150.52 65.36L146.81 69.44L148.24 75.02L153.38 76.53ZM130.56 80.17L129.13 74.59L124.00 73.09L120.30 77.17L121.73 82.74L126.86 84.24ZM121.73 82.74L120.30 77.17L115.16 75.67L111.47 79.74L112.90 85.32L118.03 86.82ZM132.83 70.51L131.40 64.93L126.26 63.43L122.56 67.51L124.00 73.09L129.13 74.59ZM161.65 53.13L160.21 47.54L155.07 46.03L151.36 50.12L152.79 55.70L157.93 57.21ZM152.79 55.70L151.36 50.12L146.22 48.61L142.51 52.69L143.95 58.28L149.09 59.78ZM163.93 43.46L162.50 37.87L157.35 36.36L153.64 40.45L155.07 46.03L160.21 47.54ZM155.07 46.03L153.64 40.45L148.50 38.94L144.79 43.03L146.22 48.61L151.36 50.12ZM168.22 60.22L166.79 54.63L161.65 53.13L157.93 57.21L159.37 62.79L164.51 64.30ZM159.37 62.79L157.93 57.21L152.79 55.70L149.09 59.78L150.52 65.36L155.66 66.87ZM170.50 50.55L169.07 44.97L163.93 43.46L160.21 47.54L161.65 53.13L166.79 54.63ZM143.95 58.28L142.51 52.69L137.37 51.19L133.67 55.27L135.10 60.85L140.24 62.36ZM159.10 98.85L157.67 93.27L152.53 91.77L148.83 95.84L150.26 101.42L155.39 102.92ZM150.26 101.42L148.83 95.84L143.70 94.33L139.99 98.41L141.42 103.98L146.56 105.49ZM161.38 89.20L159.95 83.62L154.81 82.11L151.10 86.19L152.53 91.77L157.67 93.27ZM152.53 91.77L151.10 86.19L145.97 84.68L142.26 88.75L143.70 94.33L148.83 95.84ZM165.66 105.94L164.23 100.36L159.10 98.85L155.39 102.92L156.82 108.50L161.96 110.01ZM156.82 108.50L155.39 102.92L150.26 101.42L146.56 105.49L147.99 111.06L153.12 112.57ZM167.94 96.29L166.51 90.71L161.38 89.20L157.67 93.27L159.10 98.85L164.23 100.36ZM134.86 96.90L133.43 91.32L128.30 89.82L124.60 93.90L126.03 99.47L131.16 100.97ZM126.03 99.47L124.60 93.90L119.47 92.39L115.77 96.47L117.20 102.04L122.33 103.54ZM137.13 87.25L135.70 81.67L130.56 80.17L126.86 84.24L128.30 89.82L133.43 91.32ZM128.30 89.82L126.86 84.24L121.73 82.74L118.03 86.82L119.47 92.39L124.60 93.90ZM141.42 103.98L139.99 98.41L134.86 96.90L131.16 100.97L132.59 106.55L137.72 108.05ZM132.59 106.55L131.16 100.97L126.03 99.47L122.33 103.54L123.77 109.12L128.90 110.62ZM143.70 94.33L142.26 88.75L137.13 87.25L133.43 91.32L134.86 96.90L139.99 98.41ZM172.50 76.98L171.08 71.39L165.94 69.88L162.23 73.96L163.65 79.54L168.79 81.05ZM163.65 79.54L162.23 73.96L157.09 72.45L153.38 76.53L154.81 82.11L159.95 83.62ZM174.79 67.32L173.36 61.73L168.22 60.22L164.51 64.30L165.94 69.88L171.08 71.39ZM165.94 69.88L164.51 64.30L159.37 62.79L155.66 66.87L157.09 72.45L162.23 73.96ZM179.07 84.07L177.64 78.49L172.50 76.98L168.79 81.05L170.22 86.64L175.36 88.15ZM170.22 86.64L168.79 81.05L163.65 79.54L159.95 83.62L161.38 89.20L166.51 90.71ZM181.36 74.41L179.93 68.83L174.79 67.32L171.08 71.39L172.50 76.98L177.64 78.49ZM86.44 93.05L85.00 87.48L79.87 85.99L76.19 90.06L77.63 95.63L82.75 97.13ZM77.63 95.63L76.19 90.06L71.06 88.57L67.38 92.65L68.82 98.21L73.94 99.71ZM84.19 102.70L82.75 97.13L77.63 95.63L73.94 99.71L75.38 105.27L80.50 106.77ZM77.80 59.62L76.36 54.04L71.23 52.55L67.54 56.63L68.99 62.21L74.11 63.70ZM68.99 62.21L67.54 56.63L62.41 55.14L58.73 59.23L60.17 64.80L65.30 66.29ZM95.06 126.46L93.62 120.90L88.50 119.40L84.81 123.47L86.25 129.03L91.37 130.53ZM75.38 105.27L73.94 99.71L68.82 98.21L65.13 102.29L66.57 107.85L71.69 109.35ZM117.20 102.04L115.77 96.47L110.64 94.97L106.95 99.04L108.38 104.61L113.51 106.11ZM119.47 92.39L118.03 86.82L112.90 85.32L109.21 89.39L110.64 94.97L115.77 96.47ZM164.20 7.33L162.77 1.74L157.62 0.23L153.90 4.32L155.33 9.92L160.48 11.42ZM155.33 9.92L153.90 4.32L148.75 2.82L145.04 6.91L146.47 12.50L151.62 14.00ZM166.49 -2.35L165.05 -7.95L159.90 -9.45L156.18 -5.36L157.62 0.23L162.77 1.74ZM157.62 0.23L156.18 -5.36L151.03 -6.86L147.32 -2.77L148.75 2.82L153.90 4.32ZM170.78 14.43L169.35 8.84L164.20 7.33L160.48 11.42L161.92 17.01L167.06 18.52ZM161.92 17.01L160.48 11.42L155.33 9.92L151.62 14.00L153.05 19.60L158.20 21.10ZM173.07 4.75L171.64 -0.85L166.49 -2.35L162.77 1.74L164.20 7.33L169.35 8.84ZM146.47 12.50L145.04 6.91L139.89 5.41L136.18 9.50L137.62 15.09L142.76 16.59ZM148.75 2.82L147.32 -2.77L142.17 -4.27L138.46 -0.18L139.89 5.41L145.04 6.91ZM175.07 31.21L173.64 25.62L168.49 24.11L164.78 28.20L166.21 33.79L171.36 35.29ZM166.21 33.79L164.78 28.20L159.63 26.69L155.92 30.78L157.35 36.36L162.50 37.87ZM177.36 21.53L175.93 15.94L170.78 14.43L167.06 18.52L168.49 24.11L173.64 25.62ZM168.49 24.11L167.06 18.52L161.92 17.01L158.20 21.10L159.63 26.69L164.78 28.20ZM181.65 38.31L180.22 32.72L175.07 31.21L171.36 35.29L172.79 40.88L177.93 42.39ZM172.79 40.88L171.36 35.29L166.21 33.79L162.50 37.87L163.93 43.46L169.07 44.97ZM183.94 28.64L182.51 23.04L177.36 21.53L173.64 25.62L175.07 31.21L180.22 32.72ZM188.52 9.28L187.09 3.68L181.94 2.17L178.22 6.26L179.65 11.85L184.80 13.36ZM179.65 11.85L178.22 6.26L173.07 4.75L169.35 8.84L170.78 14.43L175.93 15.94ZM190.82 -0.41L189.39 -6.01L184.23 -7.52L180.51 -3.43L181.94 2.17L187.09 3.68ZM181.94 2.17L180.51 -3.43L175.36 -4.94L171.64 -0.85L173.07 4.75L178.22 6.26ZM195.10 16.38L193.68 10.79L188.52 9.28L184.80 13.36L186.23 18.96L191.38 20.47ZM186.23 18.96L184.80 13.36L179.65 11.85L175.93 15.94L177.36 21.53L182.51 23.04ZM197.40 6.70L195.97 1.10L190.82 -0.41L187.09 3.68L188.52 9.28L193.68 10.79ZM261.64 222.03L260.23 216.45L255.10 214.92L251.39 218.97L252.80 224.54L257.93 226.07ZM252.80 224.54L251.39 218.97L246.26 217.44L242.54 221.49L243.96 227.06L249.08 228.59ZM263.95 212.41L262.54 206.83L257.41 205.30L253.69 209.35L255.10 214.92L260.23 216.45ZM255.10 214.92L253.69 209.35L248.56 207.82L244.84 211.87L246.26 217.44L251.39 218.97ZM259.34 231.65L257.93 226.07L252.80 224.54L249.08 228.59L250.50 234.16L255.62 235.69ZM266.26 202.78L264.84 197.21L259.71 195.68L255.99 199.73L257.41 205.30L262.54 206.83ZM265.88 238.75L264.47 233.18L259.34 231.65L255.62 235.69L257.03 241.26L262.16 242.79ZM3.02 63.68L1.57 58.12L-3.55 56.64L-7.22 60.72L-5.77 66.29L-0.65 67.76ZM5.24 54.03L3.79 48.47L-1.33 46.99L-5.00 51.07L-3.55 56.64L1.57 58.12ZM9.59 70.73L8.14 65.16L3.02 63.68L-0.65 67.76L0.80 73.33L5.92 74.81ZM0.80 73.33L-0.65 67.76L-5.77 66.29L-9.44 70.37L-7.99 75.93L-2.87 77.41ZM11.81 61.08L10.37 55.51L5.24 54.03L1.57 58.12L3.02 63.68L8.14 65.16ZM180.49 182.47L179.06 176.90L173.94 175.39L170.24 179.44L171.66 185.01L176.79 186.53ZM184.75 199.18L183.33 193.61L178.21 192.10L174.51 196.15L175.93 201.72L181.05 203.23ZM187.03 189.56L185.61 183.99L180.49 182.47L176.79 186.53L178.21 192.10L183.33 193.61ZM191.60 170.31L190.18 164.73L185.05 163.22L181.34 167.27L182.77 172.85L187.89 174.36ZM182.77 172.85L181.34 167.27L176.22 165.76L172.52 169.82L173.94 175.39L179.06 176.90ZM193.88 160.67L192.46 155.10L187.33 153.58L183.63 157.64L185.05 163.22L190.18 164.73ZM185.05 163.22L183.63 157.64L178.50 156.13L174.79 160.19L176.22 165.76L181.34 167.27ZM198.15 177.40L196.73 171.82L191.60 170.31L187.89 174.36L189.32 179.93L194.44 181.45ZM189.32 179.93L187.89 174.36L182.77 172.85L179.06 176.90L180.49 182.47L185.61 183.99ZM200.44 167.77L199.01 162.19L193.88 160.67L190.18 164.73L191.60 170.31L196.73 171.82ZM191.30 206.26L189.88 200.70L184.75 199.18L181.05 203.23L182.48 208.80L187.60 210.31ZM197.84 213.35L196.42 207.78L191.30 206.26L187.60 210.31L189.02 215.88L194.14 217.40ZM202.41 194.11L200.99 188.54L195.86 187.02L192.16 191.07L193.58 196.64L198.70 198.16ZM193.58 196.64L192.16 191.07L187.03 189.56L183.33 193.61L184.75 199.18L189.88 200.70ZM204.70 184.49L203.28 178.91L198.15 177.40L194.44 181.45L195.86 187.02L200.99 188.54ZM195.86 187.02L194.44 181.45L189.32 179.93L185.61 183.99L187.03 189.56L192.16 191.07ZM208.96 201.20L207.54 195.63L202.41 194.11L198.70 198.16L200.12 203.73L205.25 205.25ZM200.12 203.73L198.70 198.16L193.58 196.64L189.88 200.70L191.30 206.26L196.42 207.78ZM211.24 191.58L209.82 186.01L204.70 184.49L200.99 188.54L202.41 194.11L207.54 195.63ZM163.38 115.59L161.96 110.01L156.82 108.50L153.12 112.57L154.55 118.15L159.68 119.66ZM209.92 93.16L208.49 87.57L203.35 86.05L199.63 90.12L201.06 95.71L206.20 97.23ZM201.06 95.71L199.63 90.12L194.49 88.61L190.78 92.68L192.20 98.27L197.34 99.78ZM214.19 109.91L212.76 104.33L207.62 102.81L203.91 106.88L205.33 112.46L210.47 113.98ZM216.48 100.26L215.06 94.67L209.92 93.16L206.20 97.23L207.62 102.81L212.76 104.33ZM185.64 91.17L184.21 85.58L179.07 84.07L175.36 88.15L176.79 93.73L181.93 95.24ZM176.79 93.73L175.36 88.15L170.22 86.64L166.51 90.71L167.94 96.29L173.08 97.80ZM205.01 148.50L203.59 142.92L198.46 141.40L194.75 145.46L196.17 151.04L201.30 152.56ZM196.17 151.04L194.75 145.46L189.62 143.95L185.91 148.01L187.33 153.58L192.46 155.10ZM207.30 138.86L205.88 133.28L200.75 131.76L197.03 135.82L198.46 141.40L203.59 142.92ZM198.46 141.40L197.03 135.82L191.90 134.31L188.19 138.37L189.62 143.95L194.75 145.46ZM211.57 155.59L210.15 150.01L205.01 148.50L201.30 152.56L202.72 158.13L207.85 159.65ZM202.72 158.13L201.30 152.56L196.17 151.04L192.46 155.10L193.88 160.67L199.01 162.19ZM213.86 145.95L212.44 140.37L207.30 138.86L203.59 142.92L205.01 148.50L210.15 150.01ZM180.78 146.49L179.35 140.92L174.22 139.41L170.52 143.47L171.94 149.04L177.07 150.55ZM183.06 136.85L181.63 131.28L176.50 129.76L172.80 133.83L174.22 139.41L179.35 140.92ZM187.33 153.58L185.91 148.01L180.78 146.49L177.07 150.55L178.50 156.13L183.63 157.64ZM189.62 143.95L188.19 138.37L183.06 136.85L179.35 140.92L180.78 146.49L185.91 148.01ZM218.45 126.67L217.03 121.08L211.89 119.56L208.17 123.63L209.60 129.21L214.73 130.73ZM220.75 117.02L219.33 111.43L214.19 109.91L210.47 113.98L211.89 119.56L217.03 121.08ZM225.01 133.77L223.59 128.19L218.45 126.67L214.73 130.73L216.15 136.31L221.29 137.83ZM216.15 136.31L214.73 130.73L209.60 129.21L205.88 133.28L207.30 138.86L212.44 140.37ZM227.31 124.12L225.89 118.54L220.75 117.02L217.03 121.08L218.45 126.67L223.59 128.19ZM132.36 142.54L130.93 136.97L125.80 135.47L122.11 139.54L123.54 145.10L128.66 146.61ZM134.62 132.91L133.19 127.34L128.06 125.83L124.37 129.90L125.80 135.47L130.93 136.97ZM145.72 120.71L144.29 115.13L139.16 113.63L135.46 117.70L136.89 123.27L142.02 124.78ZM136.89 123.27L135.46 117.70L130.33 116.19L126.63 120.26L128.06 125.83L133.19 127.34ZM147.99 111.06L146.56 105.49L141.42 103.98L137.72 108.05L139.16 113.63L144.29 115.13ZM139.16 113.63L137.72 108.05L132.59 106.55L128.90 110.62L130.33 116.19L135.46 117.70ZM154.55 118.15L153.12 112.57L147.99 111.06L144.29 115.13L145.72 120.71L150.85 122.22ZM121.50 118.76L120.07 113.19L114.94 111.69L111.25 115.76L112.68 121.33L117.81 122.83ZM123.77 109.12L122.33 103.54L117.20 102.04L113.51 106.11L114.94 111.69L120.07 113.19ZM114.94 111.69L113.51 106.11L108.38 104.61L104.69 108.68L106.13 114.26L111.25 115.76ZM128.06 125.83L126.63 120.26L121.50 118.76L117.81 122.83L119.24 128.40L124.37 129.90ZM130.33 116.19L128.90 110.62L123.77 109.12L120.07 113.19L121.50 118.76L126.63 120.26ZM224.00 241.71L222.58 236.14L217.46 234.62L213.76 238.66L215.17 244.22L220.29 245.75ZM226.29 232.10L224.87 226.53L219.75 225.00L216.04 229.05L217.46 234.62L222.58 236.14ZM217.46 234.62L216.04 229.05L210.92 227.53L207.22 231.57L208.64 237.14L213.76 238.66ZM237.42 219.96L236.00 214.39L230.88 212.86L227.17 216.91L228.58 222.48L233.71 224.01ZM228.58 222.48L227.17 216.91L222.04 215.39L218.33 219.43L219.75 225.00L224.87 226.53ZM239.72 210.34L238.30 204.77L233.17 203.24L229.46 207.29L230.88 212.86L236.00 214.39ZM230.88 212.86L229.46 207.29L224.33 205.77L220.62 209.82L222.04 215.39L227.17 216.91ZM243.96 227.06L242.54 221.49L237.42 219.96L233.71 224.01L235.12 229.58L240.25 231.10ZM235.12 229.58L233.71 224.01L228.58 222.48L224.87 226.53L226.29 232.10L231.41 233.62ZM246.26 217.44L244.84 211.87L239.72 210.34L236.00 214.39L237.42 219.96L242.54 221.49ZM213.21 217.91L211.79 212.34L206.67 210.82L202.96 214.87L204.38 220.44L209.50 221.96ZM204.38 220.44L202.96 214.87L197.84 213.35L194.14 217.40L195.56 222.96L200.68 224.48ZM215.50 208.29L214.08 202.72L208.96 201.20L205.25 205.25L206.67 210.82L211.79 212.34ZM206.67 210.82L205.25 205.25L200.12 203.73L196.42 207.78L197.84 213.35L202.96 214.87ZM219.75 225.00L218.33 219.43L213.21 217.91L209.50 221.96L210.92 227.53L216.04 229.05ZM210.92 227.53L209.50 221.96L204.38 220.44L200.68 224.48L202.10 230.05L207.22 231.57ZM222.04 215.39L220.62 209.82L215.50 208.29L211.79 212.34L213.21 217.91L218.33 219.43ZM240.07 174.36L238.65 168.78L233.52 167.26L229.80 171.31L231.22 176.89L236.35 178.41ZM231.22 176.89L229.80 171.31L224.67 169.79L220.96 173.84L222.38 179.42L227.51 180.94ZM242.37 164.72L240.95 159.14L235.82 157.62L232.10 161.68L233.52 167.26L238.65 168.78ZM233.52 167.26L232.10 161.68L226.97 160.15L223.25 164.21L224.67 169.79L229.80 171.31ZM246.62 181.46L245.20 175.88L240.07 174.36L236.35 178.41L237.77 183.99L242.90 185.52ZM237.77 183.99L236.35 178.41L231.22 176.89L227.51 180.94L228.92 186.52L234.05 188.04ZM248.92 171.83L247.51 166.25L242.37 164.72L238.65 168.78L240.07 174.36L245.20 175.88ZM215.83 172.32L214.41 166.75L209.28 165.23L205.57 169.28L206.99 174.86L212.11 176.38ZM206.99 174.86L205.57 169.28L200.44 167.77L196.73 171.82L198.15 177.40L203.28 178.91ZM218.12 162.69L216.70 157.11L211.57 155.59L207.85 159.65L209.28 165.23L214.41 166.75ZM209.28 165.23L207.85 159.65L202.72 158.13L199.01 162.19L200.44 167.77L205.57 169.28ZM222.38 179.42L220.96 173.84L215.83 172.32L212.11 176.38L213.53 181.95L218.66 183.47ZM213.53 181.95L212.11 176.38L206.99 174.86L203.28 178.91L204.70 184.49L209.82 186.01ZM224.67 169.79L223.25 164.21L218.12 162.69L214.41 166.75L215.83 172.32L220.96 173.84ZM253.53 152.55L252.12 146.97L246.98 145.44L243.26 149.50L244.67 155.09L249.81 156.61ZM244.67 155.09L243.26 149.50L238.12 147.98L234.40 152.04L235.82 157.62L240.95 159.14ZM255.84 142.91L254.43 137.32L249.29 135.80L245.56 139.86L246.98 145.44L252.12 146.97ZM246.98 145.44L245.56 139.86L240.42 138.34L236.70 142.40L238.12 147.98L243.26 149.50ZM260.09 159.67L258.67 154.08L253.53 152.55L249.81 156.61L251.23 162.19L256.36 163.72ZM251.23 162.19L249.81 156.61L244.67 155.09L240.95 159.14L242.37 164.72L247.51 166.25ZM262.40 150.02L260.98 144.44L255.84 142.91L252.12 146.97L253.53 152.55L258.67 154.08ZM229.26 150.52L227.85 144.93L222.71 143.41L218.99 147.47L220.41 153.05L225.55 154.57ZM220.41 153.05L218.99 147.47L213.86 145.95L210.15 150.01L211.57 155.59L216.70 157.11ZM231.56 140.87L230.15 135.29L225.01 133.77L221.29 137.83L222.71 143.41L227.85 144.93ZM222.71 143.41L221.29 137.83L216.15 136.31L212.44 140.37L213.86 145.95L218.99 147.47ZM235.82 157.62L234.40 152.04L229.26 150.52L225.55 154.57L226.97 160.15L232.10 161.68ZM226.97 160.15L225.55 154.57L220.41 153.05L216.70 157.11L218.12 162.69L223.25 164.21ZM238.12 147.98L236.70 142.40L231.56 140.87L227.85 144.93L229.26 150.52L234.40 152.04ZM250.86 198.20L249.45 192.62L244.32 191.09L240.60 195.14L242.01 200.72L247.14 202.25ZM242.01 200.72L240.60 195.14L235.47 193.62L231.76 197.67L233.17 203.24L238.30 204.77ZM253.17 188.57L251.75 182.99L246.62 181.46L242.90 185.52L244.32 191.09L249.45 192.62ZM244.32 191.09L242.90 185.52L237.77 183.99L234.05 188.04L235.47 193.62L240.60 195.14ZM257.41 205.30L255.99 199.73L250.86 198.20L247.14 202.25L248.56 207.82L253.69 209.35ZM248.56 207.82L247.14 202.25L242.01 200.72L238.30 204.77L239.72 210.34L244.84 211.87ZM259.71 195.68L258.30 190.10L253.17 188.57L249.45 192.62L250.86 198.20L255.99 199.73ZM226.63 196.15L225.21 190.57L220.08 189.05L216.37 193.10L217.79 198.67L222.92 200.20ZM217.79 198.67L216.37 193.10L211.24 191.58L207.54 195.63L208.96 201.20L214.08 202.72ZM228.92 186.52L227.51 180.94L222.38 179.42L218.66 183.47L220.08 189.05L225.21 190.57ZM220.08 189.05L218.66 183.47L213.53 181.95L209.82 186.01L211.24 191.58L216.37 193.10ZM233.17 203.24L231.76 197.67L226.63 196.15L222.92 200.20L224.33 205.77L229.46 207.29ZM224.33 205.77L222.92 200.20L217.79 198.67L214.08 202.72L215.50 208.29L220.62 209.82ZM235.47 193.62L234.05 188.04L228.92 186.52L225.21 190.57L226.63 196.15L231.76 197.67ZM264.33 176.41L262.92 170.83L257.78 169.30L254.06 173.36L255.47 178.94L260.61 180.47ZM255.47 178.94L254.06 173.36L248.92 171.83L245.20 175.88L246.62 181.46L251.75 182.99ZM257.78 169.30L256.36 163.72L251.23 162.19L247.51 166.25L248.92 171.83L254.06 173.36ZM262.02 186.05L260.61 180.47L255.47 178.94L251.75 182.99L253.17 188.57L258.30 190.10ZM38.08 89.27L36.64 83.71L31.52 82.22L27.84 86.30L29.29 91.87L34.41 93.35ZM40.32 79.63L38.87 74.06L33.75 72.58L30.07 76.66L31.52 82.22L36.64 83.71ZM31.52 82.22L30.07 76.66L24.95 75.17L21.28 79.25L22.72 84.82L27.84 86.30ZM16.16 77.77L14.71 72.21L9.59 70.73L5.92 74.81L7.37 80.37L12.48 81.85ZM7.37 80.37L5.92 74.81L0.80 73.33L-2.87 77.41L-1.42 82.97L3.70 84.45Z"/><path data-band="3" fill="#dc2626" fill-opacity="0.35" d="M265.85 32.03L264.44 26.42L259.28 24.90L255.54 28.98L256.96 34.58L262.12 36.11ZM261.60 15.21L260.17 9.61L255.01 8.09L251.27 12.17L252.70 17.77L257.86 19.30ZM263.92 5.52L262.50 -0.09L257.33 -1.61L253.59 2.48L255.01 8.09L260.17 9.61Z"/></svg>
