<svg xmlns="http://www.w3.org/2000/svg" width="256" height="256" viewBox="0 0 256 256"><path data-band="1" fill="#fde68a" fill-opacity="0.35" d="M221.42 207.17L219.99 201.27L214.52 199.72L210.48 204.08L211.91 209.98L217.38 211.53ZM224.03 196.91L222.61 191.01L217.13 189.46L213.09 193.82L214.52 199.72L219.99 201.27ZM214.52 199.72L213.09 193.82L207.62 192.27L203.58 196.63L205.01 202.54L210.48 204.08ZM228.32 214.63L226.89 208.72L221.42 207.17L217.38 211.53L218.81 217.43L224.28 218.98ZM230.93 204.36L229.51 198.46L224.03 196.91L219.99 201.27L221.42 207.17L226.89 208.72ZM202.41 212.80L200.98 206.90L195.51 205.35L191.48 209.71L192.91 215.61L198.37 217.15ZM205.01 202.54L203.58 196.63L198.11 195.09L194.08 199.45L195.51 205.35L200.98 206.90ZM236.17 183.83L234.74 177.92L229.27 176.38L225.22 180.74L226.65 186.65L232.12 188.19ZM226.65 186.65L225.22 180.74L219.75 179.19L215.70 183.55L217.13 189.46L222.61 191.01ZM238.79 173.56L237.36 167.65L231.88 166.10L227.84 170.47L229.27 176.38L234.74 177.92ZM229.27 176.38L227.84 170.47L222.36 168.92L218.32 173.28L219.75 179.19L225.22 180.74ZM243.07 191.29L241.64 185.38L236.17 183.83L232.12 188.19L233.55 194.10L239.02 195.65ZM233.55 194.10L232.12 188.19L226.65 186.65L222.61 191.01L224.03 196.91L229.51 198.46ZM245.69 181.02L244.27 175.11L238.79 173.56L234.74 177.92L236.17 183.83L241.64 185.38ZM217.13 189.46L215.70 183.55L210.23 182.01L206.19 186.37L207.62 192.27L213.09 193.82ZM219.75 179.19L218.32 173.28L212.84 171.74L208.80 176.10L210.23 182.01L215.70 183.55ZM232.60 232.33L231.17 226.43L225.70 224.88L221.67 229.23L223.09 235.14L228.56 236.68ZM235.21 222.08L233.79 216.17L228.32 214.63L224.28 218.98L225.70 224.88L231.17 226.43ZM239.49 239.79L238.07 233.88L232.60 232.33L228.56 236.68L229.98 242.58L235.45 244.14ZM229.98 242.58L228.56 236.68L223.09 235.14L219.06 239.49L220.48 245.38L225.95 246.93ZM242.11 229.53L240.68 223.63L235.21 222.08L231.17 226.43L232.60 232.33L238.07 233.88ZM213.59 237.94L212.16 232.04L206.70 230.49L202.67 234.85L204.10 240.74L209.56 242.29ZM216.20 227.69L214.77 221.79L209.31 220.24L205.27 224.60L206.70 230.49L212.16 232.04ZM247.35 209.02L245.92 203.11L240.45 201.56L236.41 205.91L237.83 211.82L243.30 213.37ZM237.83 211.82L236.41 205.91L230.93 204.36L226.89 208.72L228.32 214.63L233.79 216.17ZM249.97 198.75L248.55 192.84L243.07 191.29L239.02 195.65L240.45 201.56L245.92 203.11ZM240.45 201.56L239.02 195.65L233.55 194.10L229.51 198.46L230.93 204.36L236.41 205.91ZM254.25 216.48L252.82 210.57L247.35 209.02L243.30 213.37L244.73 219.28L250.20 220.83ZM244.73 219.28L243.30 213.37L237.83 211.82L233.79 216.17L235.21 222.08L240.68 223.63ZM256.87 206.21L255.45 200.31L249.97 198.75L245.92 203.11L247.35 209.02L252.82 210.57ZM246.66 142.73L245.23 136.81L239.75 135.26L235.70 139.63L237.13 145.55L242.61 147.09ZM264.10 109.04L262.68 103.12L257.19 101.57L253.12 105.94L254.55 111.86L260.04 113.41ZM250.95 160.47L249.52 154.56L244.04 153.01L239.98 157.37L241.41 163.29L246.89 164.84ZM241.41 163.29L239.98 157.37L234.51 155.83L230.46 160.19L231.88 166.10L237.36 167.65ZM253.57 150.19L252.15 144.28L246.66 142.73L242.61 147.09L244.04 153.01L249.52 154.56ZM244.04 153.01L242.61 147.09L237.13 145.55L233.08 149.91L234.51 155.83L239.98 157.37ZM257.85 167.94L256.43 162.03L250.95 160.47L246.89 164.84L248.32 170.75L253.80 172.30ZM248.32 170.75L246.89 164.84L241.41 163.29L237.36 167.65L238.79 173.56L244.27 175.11ZM260.48 157.66L259.06 151.75L253.57 150.19L249.52 154.56L250.95 160.47L256.43 162.03ZM231.88 166.10L230.46 160.19L224.98 158.64L220.93 163.01L222.36 168.92L227.84 170.47ZM234.51 155.83L233.08 149.91L227.60 148.37L223.55 152.73L224.98 158.64L230.46 160.19ZM265.75 137.10L264.32 131.18L258.83 129.62L254.78 133.99L256.20 139.91L261.69 141.46ZM256.20 139.91L254.78 133.99L249.29 132.44L245.23 136.81L246.66 142.73L252.15 144.28ZM258.83 129.62L257.41 123.70L251.92 122.15L247.86 126.52L249.29 132.44L254.78 133.99ZM263.11 147.38L261.69 141.46L256.20 139.91L252.15 144.28L253.57 150.19L259.06 151.75ZM260.16 262.15L258.74 256.25L253.27 254.70L249.23 259.04L250.65 264.94L256.11 266.50ZM262.78 251.91L261.36 246.00L255.89 244.45L251.85 248.79L253.27 254.70L258.74 256.25ZM243.76 257.49L242.34 251.59L236.87 250.04L232.84 254.38L234.26 260.28L239.72 261.83ZM234.26 260.28L232.84 254.38L227.37 252.83L223.34 257.18L224.76 263.08L230.22 264.63ZM246.38 247.24L244.96 241.34L239.49 239.79L235.45 244.14L236.87 250.04L242.34 251.59ZM236.87 250.04L235.45 244.14L229.98 242.58L225.95 246.93L227.37 252.83L232.84 254.38ZM253.27 254.70L251.85 248.79L246.38 247.24L242.34 251.59L243.76 257.49L249.23 259.04ZM258.52 234.19L257.09 228.29L251.62 226.73L247.58 231.09L249.00 236.99L254.47 238.54ZM249.00 236.99L247.58 231.09L242.11 229.53L238.07 233.88L239.49 239.79L244.96 241.34ZM261.14 223.94L259.72 218.03L254.25 216.48L250.20 220.83L251.62 226.73L257.09 228.29ZM251.62 226.73L250.20 220.83L244.73 219.28L240.68 223.63L242.11 229.53L247.58 231.09ZM265.41 241.65L263.98 235.75L258.52 234.19L254.47 238.54L255.89 244.45L261.36 246.00ZM255.89 244.45L254.47 238.54L249.00 236.99L244.96 241.34L246.38 247.24L251.85 248.79ZM217.88 255.63L216.45 249.73L210.99 248.19L206.95 252.54L208.38 258.43L213.84 259.98ZM220.48 245.38L219.06 239.49L213.59 237.94L209.56 242.29L210.99 248.19L216.45 249.73ZM210.99 248.19L209.56 242.29L204.10 240.74L200.06 245.10L201.49 250.99L206.95 252.54ZM224.76 263.08L223.34 257.18L217.88 255.63L213.84 259.98L215.27 265.87L220.73 267.42ZM227.37 252.83L225.95 246.93L220.48 245.38L216.45 249.73L217.88 255.63L223.34 257.18ZM262.13 185.68L260.70 179.77L255.22 178.22L251.17 182.57L252.60 188.49L258.07 190.04ZM252.60 188.49L251.17 182.57L245.69 181.02L241.64 185.38L243.07 191.29L248.55 192.84ZM264.76 175.41L263.33 169.49L257.85 167.94L253.80 172.30L255.22 178.22L260.70 179.77ZM255.22 178.22L253.80 172.30L248.32 170.75L244.27 175.11L245.69 181.02L251.17 182.57ZM259.50 195.95L258.07 190.04L252.60 188.49L248.55 192.84L249.97 198.75L255.45 200.31ZM263.77 213.68L262.34 207.77L256.87 206.21L252.82 210.57L254.25 216.48L259.72 218.03ZM266.40 203.41L264.97 197.50L259.50 195.95L255.45 200.31L256.87 206.21L262.34 207.77Z"/></svg>
