<svg xmlns="http://www.w3.org/2000/svg" width="256" height="256" viewBox="0 0 256 256"><path data-band="1" fill="#fde68a" fill-opacity="0.35" d="M203.65 40.30L202.23 34.44L196.82 32.89L192.82 37.18L194.24 43.03L199.65 44.59ZM206.23 30.15L204.81 24.29L199.40 22.74L195.40 27.04L196.82 32.89L202.23 34.44ZM218.23 17.26L216.81 11.40L211.39 9.84L207.39 14.14L208.81 20.00L214.23 21.55ZM207.89 57.85L206.48 52.00L201.07 50.44L197.08 54.73L198.49 60.58L203.90 62.14ZM210.48 47.70L209.06 41.85L203.65 40.30L199.65 44.59L201.07 50.44L206.48 52.00ZM201.07 50.44L199.65 44.59L194.24 43.03L190.25 47.33L191.67 53.18L197.08 54.73ZM214.72 65.25L213.30 59.41L207.89 57.85L203.90 62.14L205.32 67.98L210.72 69.54ZM205.32 67.98L203.90 62.14L198.49 60.58L194.50 64.87L195.92 70.72L201.32 72.27ZM217.30 55.11L215.89 49.26L210.48 47.70L206.48 52.00L207.89 57.85L213.30 59.41ZM222.47 34.82L221.06 28.97L215.64 27.41L211.64 31.71L213.06 37.56L218.47 39.12ZM213.06 37.56L211.64 31.71L206.23 30.15L202.23 34.44L203.65 40.30L209.06 41.85ZM225.06 24.67L223.64 18.82L218.23 17.26L214.23 21.55L215.64 27.41L221.06 28.97ZM215.64 27.41L214.23 21.55L208.81 20.00L204.81 24.29L206.23 30.15L211.64 31.71ZM229.30 42.24L227.89 36.38L222.47 34.82L218.47 39.12L219.89 44.97L225.30 46.53ZM219.89 44.97L218.47 39.12L213.06 37.56L209.06 41.85L210.48 47.70L215.89 49.26ZM231.89 32.09L230.48 26.23L225.06 24.67L221.06 28.97L222.47 34.82L227.89 36.38ZM96.13 53.01L94.70 47.17L89.30 45.64L85.34 49.94L86.77 55.77L92.16 57.31ZM98.67 42.87L97.24 37.04L91.84 35.50L87.87 39.80L89.30 45.64L94.70 47.17ZM148.99 84.40L147.57 78.56L142.17 77.02L138.19 81.31L139.61 87.14L145.01 88.69ZM139.61 87.14L138.19 81.31L132.79 79.76L128.82 84.05L130.25 89.89L135.64 91.43ZM123.43 82.51L122.00 76.67L116.60 75.13L112.63 79.42L114.06 85.26L119.46 86.80ZM114.06 85.26L112.63 79.42L107.24 77.88L103.27 82.18L104.70 88.01L110.09 89.55ZM244.59 84.77L243.18 78.92L237.77 77.35L233.77 81.64L235.18 87.49L240.59 89.05ZM235.18 87.49L233.77 81.64L228.36 80.07L224.37 84.36L225.78 90.21L231.18 91.77ZM247.18 74.63L245.77 68.78L240.36 67.22L236.36 71.50L237.77 77.35L243.18 78.92ZM237.77 77.35L236.36 71.50L230.95 69.94L226.95 74.23L228.36 80.07L233.77 81.64ZM251.41 92.19L250.00 86.34L244.59 84.77L240.59 89.05L242.00 94.90L247.41 96.47ZM242.00 94.90L240.59 89.05L235.18 87.49L231.18 91.77L232.60 97.62L238.00 99.18ZM254.00 82.05L252.59 76.20L247.18 74.63L243.18 78.92L244.59 84.77L250.00 86.34ZM218.96 82.80L217.55 76.95L212.14 75.39L208.15 79.68L209.56 85.52L214.97 87.08ZM209.56 85.52L208.15 79.68L202.74 78.12L198.75 82.41L200.16 88.25L205.57 89.81ZM221.54 72.66L220.13 66.81L214.72 65.25L210.72 69.54L212.14 75.39L217.55 76.95ZM212.14 75.39L210.72 69.54L205.32 67.98L201.32 72.27L202.74 78.12L208.15 79.68ZM225.78 90.21L224.37 84.36L218.96 82.80L214.97 87.08L216.38 92.93L221.78 94.49ZM216.38 92.93L214.97 87.08L209.56 85.52L205.57 89.81L206.98 95.65L212.39 97.21ZM228.36 80.07L226.95 74.23L221.54 72.66L217.55 76.95L218.96 82.80L224.37 84.36ZM259.20 61.77L257.79 55.92L252.37 54.35L248.37 58.64L249.78 64.49L255.19 66.06ZM249.78 64.49L248.37 58.64L242.95 57.07L238.95 61.36L240.36 67.22L245.77 68.78ZM261.80 51.63L260.39 45.77L254.97 44.20L250.96 48.49L252.37 54.35L257.79 55.92ZM252.37 54.35L250.96 48.49L245.55 46.93L241.54 51.22L242.95 57.07L248.37 58.64ZM266.02 69.20L264.61 63.34L259.20 61.77L255.19 66.06L256.60 71.91L262.01 73.48ZM256.60 71.91L255.19 66.06L249.78 64.49L245.77 68.78L247.18 74.63L252.59 76.20ZM233.54 59.80L232.12 53.95L226.71 52.38L222.71 56.67L224.13 62.53L229.54 64.09ZM224.13 62.53L222.71 56.67L217.30 55.11L213.30 59.41L214.72 65.25L220.13 66.81ZM236.13 49.66L234.71 43.80L229.30 42.24L225.30 46.53L226.71 52.38L232.12 53.95ZM226.71 52.38L225.30 46.53L219.89 44.97L215.89 49.26L217.30 55.11L222.71 56.67ZM240.36 67.22L238.95 61.36L233.54 59.80L229.54 64.09L230.95 69.94L236.36 71.50ZM230.95 69.94L229.54 64.09L224.13 62.53L220.13 66.81L221.54 72.66L226.95 74.23ZM242.95 57.07L241.54 51.22L236.13 49.66L232.12 53.95L233.54 59.80L238.95 61.36ZM230.01 107.75L228.60 101.90L223.19 100.34L219.20 104.62L220.61 110.46L226.02 112.03ZM220.61 110.46L219.20 104.62L213.80 103.06L209.81 107.34L211.22 113.18L216.62 114.74ZM232.60 97.62L231.18 91.77L225.78 90.21L221.78 94.49L223.19 100.34L228.60 101.90ZM223.19 100.34L221.78 94.49L216.38 92.93L212.39 97.21L213.80 103.06L219.20 104.62ZM263.42 79.34L262.01 73.48L256.60 71.91L252.59 76.20L254.00 82.05L259.41 83.62ZM178.82 103.83L177.40 98.00L172.00 96.44L168.02 100.73L169.44 106.57L174.84 108.12ZM169.44 106.57L168.02 100.73L162.63 99.18L158.65 103.46L160.07 109.30L165.46 110.85ZM181.39 93.71L179.97 87.87L174.57 86.32L170.59 90.60L172.00 96.44L177.40 98.00ZM172.00 96.44L170.59 90.60L165.19 89.05L161.21 93.34L162.63 99.18L168.02 100.73ZM185.64 111.23L184.22 105.39L178.82 103.83L174.84 108.12L176.26 113.96L181.65 115.51ZM176.26 113.96L174.84 108.12L169.44 106.57L165.46 110.85L166.88 116.68L172.28 118.24ZM188.20 101.11L186.79 95.27L181.39 93.71L177.40 98.00L178.82 103.83L184.22 105.39ZM153.25 101.91L151.83 96.08L146.43 94.53L142.46 98.81L143.88 104.65L149.28 106.20ZM143.88 104.65L142.46 98.81L137.06 97.27L133.09 101.55L134.52 107.39L139.91 108.93ZM155.81 91.79L154.39 85.95L148.99 84.40L145.01 88.69L146.43 94.53L151.83 96.08ZM146.43 94.53L145.01 88.69L139.61 87.14L135.64 91.43L137.06 97.27L142.46 98.81ZM160.07 109.30L158.65 103.46L153.25 101.91L149.28 106.20L150.70 112.03L156.09 113.58ZM150.70 112.03L149.28 106.20L143.88 104.65L139.91 108.93L141.33 114.77L146.72 116.31ZM162.63 99.18L161.21 93.34L155.81 91.79L151.83 96.08L153.25 101.91L158.65 103.46ZM193.34 80.85L191.93 75.01L186.52 73.45L182.54 77.74L183.95 83.58L189.36 85.14ZM183.95 83.58L182.54 77.74L177.13 76.19L173.15 80.47L174.57 86.32L179.97 87.87ZM200.16 88.25L198.75 82.41L193.34 80.85L189.36 85.14L190.77 90.98L196.18 92.54ZM190.77 90.98L189.36 85.14L183.95 83.58L179.97 87.87L181.39 93.71L186.79 95.27ZM202.74 78.12L201.32 72.27L195.92 70.72L191.93 75.01L193.34 80.85L198.75 82.41ZM158.37 81.66L156.94 75.82L151.54 74.27L147.57 78.56L148.99 84.40L154.39 85.95ZM174.57 86.32L173.15 80.47L167.75 78.92L163.77 83.21L165.19 89.05L170.59 90.60ZM165.19 89.05L163.77 83.21L158.37 81.66L154.39 85.95L155.81 91.79L161.21 93.34ZM189.88 128.74L188.47 122.90L183.07 121.35L179.09 125.63L180.51 131.46L185.90 133.02ZM180.51 131.46L179.09 125.63L173.69 124.07L169.72 128.35L171.13 134.19L176.53 135.74ZM192.45 118.62L191.03 112.79L185.64 111.23L181.65 115.51L183.07 121.35L188.47 122.90ZM183.07 121.35L181.65 115.51L176.26 113.96L172.28 118.24L173.69 124.07L179.09 125.63ZM196.69 136.14L195.28 130.30L189.88 128.74L185.90 133.02L187.31 138.85L192.71 140.41ZM187.31 138.85L185.90 133.02L180.51 131.46L176.53 135.74L177.94 141.58L183.34 143.13ZM199.26 126.02L197.85 120.18L192.45 118.62L188.47 122.90L189.88 128.74L195.28 130.30ZM164.32 126.80L162.90 120.97L157.51 119.42L153.54 123.70L154.96 129.53L160.35 131.08ZM154.96 129.53L153.54 123.70L148.14 122.15L144.17 126.43L145.59 132.26L150.98 133.81ZM166.88 116.68L165.46 110.85L160.07 109.30L156.09 113.58L157.51 119.42L162.90 120.97ZM157.51 119.42L156.09 113.58L150.70 112.03L146.72 116.31L148.14 122.15L153.54 123.70ZM171.13 134.19L169.72 128.35L164.32 126.80L160.35 131.08L161.77 136.91L167.16 138.47ZM161.77 136.91L160.35 131.08L154.96 129.53L150.98 133.81L152.40 139.64L157.79 141.19ZM173.69 124.07L172.28 118.24L166.88 116.68L162.90 120.97L164.32 126.80L169.72 128.35ZM204.41 105.78L202.99 99.94L197.59 98.38L193.60 102.66L195.02 108.50L200.42 110.06ZM195.02 108.50L193.60 102.66L188.20 101.11L184.22 105.39L185.64 111.23L191.03 112.79ZM206.98 95.65L205.57 89.81L200.16 88.25L196.18 92.54L197.59 98.38L202.99 99.94ZM197.59 98.38L196.18 92.54L190.77 90.98L186.79 95.27L188.20 101.11L193.60 102.66ZM211.22 113.18L209.81 107.34L204.41 105.78L200.42 110.06L201.83 115.90L207.23 117.46ZM201.83 115.90L200.42 110.06L195.02 108.50L191.03 112.79L192.45 118.62L197.85 120.18ZM213.80 103.06L212.39 97.21L206.98 95.65L202.99 99.94L204.41 105.78L209.81 107.34ZM262.77 13.74L261.36 7.88L255.94 6.31L251.93 10.61L253.34 16.47L258.76 18.04ZM253.34 16.47L251.93 10.61L246.50 9.05L242.49 13.34L243.91 19.20L249.33 20.77ZM265.38 3.58L263.97 -2.28L258.54 -3.85L254.53 0.45L255.94 6.31L261.36 7.88ZM255.94 6.31L254.53 0.45L249.10 -1.11L245.09 3.19L246.50 9.05L251.93 10.61ZM260.17 23.90L258.76 18.04L253.34 16.47L249.33 20.77L250.74 26.63L256.16 28.19ZM237.07 11.78L235.66 5.92L230.24 4.36L226.23 8.66L227.65 14.52L233.07 16.08ZM227.65 14.52L226.23 8.66L220.81 7.10L216.81 11.40L218.23 17.26L223.64 18.82ZM243.91 19.20L242.49 13.34L237.07 11.78L233.07 16.08L234.48 21.94L239.90 23.50ZM234.48 21.94L233.07 16.08L227.65 14.52L223.64 18.82L225.06 24.67L230.48 26.23ZM246.50 9.05L245.09 3.19L239.67 1.62L235.66 5.92L237.07 11.78L242.49 13.34ZM258.54 -3.85L257.13 -9.71L251.70 -11.28L247.69 -6.98L249.10 -1.11L254.53 0.45ZM249.10 -1.11L247.69 -6.98L242.27 -8.54L238.25 -4.24L239.67 1.62L245.09 3.19ZM264.40 41.48L262.99 35.62L257.57 34.05L253.56 38.35L254.97 44.20L260.39 45.77ZM248.14 36.78L246.73 30.92L241.31 29.36L237.31 33.65L238.72 39.51L244.13 41.07ZM238.72 39.51L237.31 33.65L231.89 32.09L227.89 36.38L229.30 42.24L234.71 43.80ZM250.74 26.63L249.33 20.77L243.91 19.20L239.90 23.50L241.31 29.36L246.73 30.92ZM241.31 29.36L239.90 23.50L234.48 21.94L230.48 26.23L231.89 32.09L237.31 33.65ZM254.97 44.20L253.56 38.35L248.14 36.78L244.13 41.07L245.55 46.93L250.96 48.49ZM245.55 46.93L244.13 41.07L238.72 39.51L234.71 43.80L236.13 49.66L241.54 51.22ZM257.57 34.05L256.16 28.19L250.74 26.63L246.73 30.92L248.14 36.78L253.56 38.35ZM200.93 153.64L199.52 147.81L194.12 146.25L190.14 150.52L191.56 156.36L196.95 157.92ZM191.56 156.36L190.14 150.52L184.75 148.97L180.77 153.24L182.19 159.07L187.58 160.63ZM203.50 143.53L202.09 137.70L196.69 136.14L192.71 140.41L194.12 146.25L199.52 147.81ZM194.12 146.25L192.71 140.41L187.31 138.85L183.34 143.13L184.75 148.97L190.14 150.52ZM198.36 163.75L196.95 157.92L191.56 156.36L187.58 160.63L188.99 166.46L194.38 168.02ZM210.31 150.93L208.90 145.09L203.50 143.53L199.52 147.81L200.93 153.64L206.32 155.20ZM215.46 130.70L214.05 124.86L208.65 123.30L204.66 127.58L206.07 133.42L211.47 134.98ZM206.07 133.42L204.66 127.58L199.26 126.02L195.28 130.30L196.69 136.14L202.09 137.70ZM218.03 120.58L216.62 114.74L211.22 113.18L207.23 117.46L208.65 123.30L214.05 124.86ZM208.65 123.30L207.23 117.46L201.83 115.90L197.85 120.18L199.26 126.02L204.66 127.58ZM222.27 138.11L220.86 132.27L215.46 130.70L211.47 134.98L212.88 140.82L218.28 142.38ZM212.88 140.82L211.47 134.98L206.07 133.42L202.09 137.70L203.50 143.53L208.90 145.09ZM224.85 127.99L223.44 122.15L218.03 120.58L214.05 124.86L215.46 130.70L220.86 132.27ZM3.83 145.90L2.40 140.09L-2.98 138.57L-6.91 142.86L-5.47 148.66L-0.10 150.19ZM6.33 135.80L4.89 129.99L-0.48 128.47L-4.41 132.76L-2.98 138.57L2.40 140.09ZM0.66 193.58L-0.77 187.78L-6.14 186.25L-10.06 190.53L-8.62 196.33L-3.26 197.86ZM3.16 183.50L1.72 177.69L-3.65 176.17L-7.57 180.45L-6.14 186.25L-0.77 187.78ZM8.15 163.33L6.71 157.52L1.34 155.99L-2.59 160.28L-1.15 166.08L4.21 167.61ZM10.64 153.23L9.21 147.42L3.83 145.90L-0.10 150.19L1.34 155.99L6.71 157.52ZM1.34 155.99L-0.10 150.19L-5.47 148.66L-9.40 152.95L-7.96 158.76L-2.59 160.28ZM14.95 170.66L13.51 164.85L8.15 163.33L4.21 167.61L5.65 173.41L11.02 174.94ZM5.65 173.41L4.21 167.61L-1.15 166.08L-5.08 170.37L-3.65 176.17L1.72 177.69ZM17.45 160.57L16.01 154.76L10.64 153.23L6.71 157.52L8.15 163.33L13.51 164.85ZM31.39 34.64L29.95 28.81L24.56 27.29L20.61 31.59L22.05 37.42L27.44 38.94ZM38.22 41.99L36.79 36.16L31.39 34.64L27.44 38.94L28.88 44.77L34.27 46.30ZM40.74 31.86L39.30 26.03L33.91 24.50L29.95 28.81L31.39 34.64L36.79 36.16ZM86.77 55.77L85.34 49.94L79.94 48.40L75.98 52.70L77.41 58.53L82.80 60.07ZM89.30 45.64L87.87 39.80L82.47 38.27L78.51 42.57L79.94 48.40L85.34 49.94ZM76.65 96.27L75.21 90.44L69.83 88.91L65.87 93.20L67.30 99.02L72.69 100.56ZM67.30 99.02L65.87 93.20L60.48 91.67L56.53 95.96L57.96 101.78L63.35 103.32ZM79.17 86.15L77.74 80.32L72.35 78.79L68.39 83.08L69.83 88.91L75.21 90.44ZM83.46 103.63L82.03 97.80L76.65 96.27L72.69 100.56L74.12 106.38L79.51 107.92ZM74.12 106.38L72.69 100.56L67.30 99.02L63.35 103.32L64.78 109.14L70.16 110.67ZM85.99 93.51L84.56 87.68L79.17 86.15L75.21 90.44L76.65 96.27L82.03 97.80ZM41.81 97.19L40.38 91.37L34.99 89.84L31.04 94.14L32.48 99.96L37.86 101.48ZM57.96 101.78L56.53 95.96L51.14 94.43L47.19 98.72L48.63 104.54L54.01 106.07ZM48.63 104.54L47.19 98.72L41.81 97.19L37.86 101.48L39.30 107.30L44.68 108.83ZM97.88 80.64L96.45 74.80L91.06 73.27L87.10 77.56L88.52 83.39L93.92 84.93ZM88.52 83.39L87.10 77.56L81.70 76.03L77.74 80.32L79.17 86.15L84.56 87.68ZM7.01 98.15L5.57 92.33L0.19 90.81L-3.74 95.11L-2.30 100.92L3.07 102.45ZM9.52 88.04L8.08 82.22L2.69 80.70L-1.25 85.00L0.19 90.81L5.57 92.33ZM21.35 75.15L19.91 69.32L14.52 67.80L10.58 72.10L12.02 77.92L17.40 79.45ZM13.83 105.49L12.39 99.67L7.01 98.15L3.07 102.45L4.51 108.26L9.89 109.78ZM18.14 122.94L16.71 117.12L11.33 115.60L7.39 119.89L8.83 125.70L14.21 127.23ZM20.65 112.83L19.21 107.02L13.83 105.49L9.89 109.78L11.33 115.60L16.71 117.12ZM16.34 95.38L14.90 89.56L9.52 88.04L5.57 92.33L7.01 98.15L12.39 99.67ZM28.17 82.49L26.73 76.67L21.35 75.15L17.40 79.45L18.84 85.27L24.22 86.79ZM18.84 85.27L17.40 79.45L12.02 77.92L8.08 82.22L9.52 88.04L14.90 89.56ZM32.48 99.96L31.04 94.14L25.66 92.61L21.72 96.90L23.15 102.72L28.53 104.25ZM94.38 25.36L92.95 19.52L87.54 17.98L83.57 22.29L85.01 28.13L90.41 29.66ZM85.01 28.13L83.57 22.29L78.17 20.76L74.21 25.06L75.64 30.90L81.04 32.43ZM91.84 35.50L90.41 29.66L85.01 28.13L81.04 32.43L82.47 38.27L87.87 39.80ZM78.17 20.76L76.74 14.92L71.34 13.39L67.37 17.69L68.81 23.53L74.21 25.06ZM108.84 2.30L107.41 -3.55L102.00 -5.08L98.03 -0.78L99.46 5.07L104.86 6.60ZM99.46 5.07L98.03 -0.78L92.62 -2.31L88.65 2.00L90.08 7.84L95.49 9.37ZM27.15 260.42L25.72 254.63L20.36 253.10L16.43 257.36L17.87 263.16L23.22 264.69ZM17.87 263.16L16.43 257.36L11.08 255.83L7.16 260.10L8.59 265.89L13.94 267.42ZM29.64 250.36L28.21 244.56L22.85 243.03L18.93 247.30L20.36 253.10L25.72 254.63ZM20.36 253.10L18.93 247.30L13.57 245.77L9.65 250.04L11.08 255.83L16.43 257.36ZM36.43 257.69L35.00 251.90L29.64 250.36L25.72 254.63L27.15 260.42L32.50 261.96ZM1.80 258.57L0.37 252.77L-4.98 251.25L-8.90 255.51L-7.47 261.31L-2.12 262.83ZM4.29 248.51L2.86 242.71L-2.50 241.19L-6.42 245.46L-4.98 251.25L0.37 252.77ZM11.08 255.83L9.65 250.04L4.29 248.51L0.37 252.77L1.80 258.57L7.16 260.10ZM86.20 196.41L84.78 190.59L79.40 189.05L75.46 193.33L76.88 199.14L82.26 200.68ZM70.08 191.79L68.66 185.98L63.28 184.44L59.34 188.72L60.77 194.53L66.14 196.06ZM60.77 194.53L59.34 188.72L53.97 187.18L50.03 191.46L51.46 197.26L56.83 198.80ZM72.60 181.70L71.18 175.89L65.80 174.35L61.86 178.63L63.28 184.44L68.66 185.98ZM63.28 184.44L61.86 178.63L56.48 177.09L52.54 181.37L53.97 187.18L59.34 188.72ZM76.88 199.14L75.46 193.33L70.08 191.79L66.14 196.06L67.57 201.87L72.94 203.41ZM67.57 201.87L66.14 196.06L60.77 194.53L56.83 198.80L58.26 204.61L63.63 206.14ZM79.40 189.05L77.98 183.24L72.60 181.70L68.66 185.98L70.08 191.79L75.46 193.33ZM109.92 170.76L108.50 164.94L103.11 163.40L99.16 167.68L100.58 173.50L105.96 175.04ZM100.58 173.50L99.16 167.68L93.78 166.14L89.83 170.41L91.25 176.23L96.63 177.77ZM112.45 160.67L111.03 154.84L105.65 153.30L101.69 157.58L103.11 163.40L108.50 164.94ZM103.11 163.40L101.69 157.58L96.31 156.04L92.35 160.32L93.78 166.14L99.16 167.68ZM116.72 178.13L115.30 172.31L109.92 170.76L105.96 175.04L107.39 180.86L112.76 182.40ZM119.26 168.03L117.84 162.21L112.45 160.67L108.50 164.94L109.92 170.76L115.30 172.31ZM81.93 178.96L80.50 173.15L75.12 171.61L71.18 175.89L72.60 181.70L77.98 183.24ZM93.78 166.14L92.35 160.32L86.98 158.78L83.02 163.06L84.45 168.87L89.83 170.41ZM97.27 221.20L95.85 215.39L90.48 213.84L86.53 218.11L87.95 223.92L93.32 225.46ZM113.38 225.83L111.96 220.02L106.59 218.47L102.64 222.74L104.06 228.55L109.43 230.10ZM104.06 228.55L102.64 222.74L97.27 221.20L93.32 225.46L94.75 231.27L100.11 232.82ZM115.92 215.75L114.49 209.94L109.12 208.39L105.17 212.66L106.59 218.47L111.96 220.02ZM81.16 216.57L79.73 210.76L74.36 209.22L70.42 213.49L71.85 219.30L77.22 220.84ZM71.85 219.30L70.42 213.49L65.05 211.95L61.11 216.22L62.54 222.03L67.91 223.57ZM83.68 206.49L82.26 200.68L76.88 199.14L72.94 203.41L74.36 209.22L79.73 210.76ZM74.36 209.22L72.94 203.41L67.57 201.87L63.63 206.14L65.05 211.95L70.42 213.49ZM87.95 223.92L86.53 218.11L81.16 216.57L77.22 220.84L78.64 226.65L84.01 228.19ZM78.64 226.65L77.22 220.84L71.85 219.30L67.91 223.57L69.33 229.37L74.70 230.91ZM90.48 213.84L89.05 208.03L83.68 206.49L79.73 210.76L81.16 216.57L86.53 218.11ZM120.98 195.58L119.56 189.77L114.19 188.22L110.23 192.49L111.65 198.31L117.03 199.85ZM123.52 185.49L122.10 179.67L116.72 178.13L112.76 182.40L114.19 188.22L119.56 189.77ZM127.78 202.95L126.36 197.13L120.98 195.58L117.03 199.85L118.45 205.67L123.83 207.22ZM130.32 192.86L128.90 187.04L123.52 185.49L119.56 189.77L120.98 195.58L126.36 197.13ZM30.35 212.82L28.92 207.02L23.55 205.49L19.62 209.76L21.06 215.57L26.42 217.10ZM21.06 215.57L19.62 209.76L14.26 208.24L10.33 212.51L11.77 218.31L17.13 219.84ZM32.85 202.75L31.42 196.94L26.05 195.41L22.12 199.69L23.55 205.49L28.92 207.02ZM23.55 205.49L22.12 199.69L16.76 198.16L12.83 202.43L14.26 208.24L19.62 209.76ZM37.14 220.16L35.71 214.36L30.35 212.82L26.42 217.10L27.85 222.90L33.21 224.43ZM27.85 222.90L26.42 217.10L21.06 215.57L17.13 219.84L18.56 225.64L23.92 227.17ZM39.65 210.08L38.22 204.28L32.85 202.75L28.92 207.02L30.35 212.82L35.71 214.36ZM4.97 210.98L3.54 205.18L-1.83 203.66L-5.75 207.93L-4.32 213.73L1.04 215.26ZM7.46 200.91L6.03 195.10L0.66 193.58L-3.26 197.86L-1.83 203.66L3.54 205.18ZM11.77 218.31L10.33 212.51L4.97 210.98L1.04 215.26L2.48 221.05L7.84 222.58ZM2.48 221.05L1.04 215.26L-4.32 213.73L-8.24 218.00L-6.80 223.80L-1.44 225.33ZM14.26 208.24L12.83 202.43L7.46 200.91L3.54 205.18L4.97 210.98L10.33 212.51ZM44.66 189.92L43.23 184.11L37.86 182.58L33.92 186.86L35.35 192.67L40.72 194.20ZM35.35 192.67L33.92 186.86L28.55 185.33L24.62 189.61L26.05 195.41L31.42 196.94ZM47.17 179.84L45.74 174.03L40.37 172.49L36.43 176.77L37.86 182.58L43.23 184.11ZM37.86 182.58L36.43 176.77L31.06 175.24L27.12 179.52L28.55 185.33L33.92 186.86ZM51.46 197.26L50.03 191.46L44.66 189.92L40.72 194.20L42.15 200.00L47.52 201.54ZM42.15 200.00L40.72 194.20L35.35 192.67L31.42 196.94L32.85 202.75L38.22 204.28ZM53.97 187.18L52.54 181.37L47.17 179.84L43.23 184.11L44.66 189.92L50.03 191.46ZM19.25 188.08L17.82 182.27L12.45 180.74L8.52 185.02L9.96 190.83L15.32 192.35ZM9.96 190.83L8.52 185.02L3.16 183.50L-0.77 187.78L0.66 193.58L6.03 195.10ZM21.75 177.99L20.32 172.19L14.95 170.66L11.02 174.94L12.45 180.74L17.82 182.27ZM12.45 180.74L11.02 174.94L5.65 173.41L1.72 177.69L3.16 183.50L8.52 185.02ZM26.05 195.41L24.62 189.61L19.25 188.08L15.32 192.35L16.76 198.16L22.12 199.69ZM16.76 198.16L15.32 192.35L9.96 190.83L6.03 195.10L7.46 200.91L12.83 202.43ZM28.55 185.33L27.12 179.52L21.75 177.99L17.82 182.27L19.25 188.08L24.62 189.61ZM41.43 237.56L40.00 231.76L34.64 230.23L30.71 234.50L32.14 240.30L37.50 241.83ZM32.14 240.30L30.71 234.50L25.35 232.97L21.42 237.24L22.85 243.03L28.21 244.56ZM43.94 227.49L42.51 221.69L37.14 220.16L33.21 224.43L34.64 230.23L40.00 231.76ZM34.64 230.23L33.21 224.43L27.85 222.90L23.92 227.17L25.35 232.97L30.71 234.50ZM48.22 244.90L46.79 239.10L41.43 237.56L37.50 241.83L38.93 247.63L44.29 249.16ZM38.93 247.63L37.50 241.83L32.14 240.30L28.21 244.56L29.64 250.36L35.00 251.90ZM50.73 234.83L49.30 229.03L43.94 227.49L40.00 231.76L41.43 237.56L46.79 239.10ZM16.06 235.71L14.63 229.91L9.27 228.38L5.35 232.65L6.78 238.45L12.14 239.97ZM6.78 238.45L5.35 232.65L-0.01 231.12L-3.93 235.39L-2.50 241.19L2.86 242.71ZM18.56 225.64L17.13 219.84L11.77 218.31L7.84 222.58L9.27 228.38L14.63 229.91ZM9.27 228.38L7.84 222.58L2.48 221.05L-1.44 225.33L-0.01 231.12L5.35 232.65ZM22.85 243.03L21.42 237.24L16.06 235.71L12.14 239.97L13.57 245.77L18.93 247.30ZM13.57 245.77L12.14 239.97L6.78 238.45L2.86 242.71L4.29 248.51L9.65 250.04ZM25.35 232.97L23.92 227.17L18.56 225.64L14.63 229.91L16.06 235.71L21.42 237.24ZM55.75 214.69L54.32 208.88L48.95 207.34L45.01 211.62L46.44 217.42L51.81 218.96ZM46.44 217.42L45.01 211.62L39.65 210.08L35.71 214.36L37.14 220.16L42.51 221.69ZM58.26 204.61L56.83 198.80L51.46 197.26L47.52 201.54L48.95 207.34L54.32 208.88ZM48.95 207.34L47.52 201.54L42.15 200.00L38.22 204.28L39.65 210.08L45.01 211.62ZM62.54 222.03L61.11 216.22L55.75 214.69L51.81 218.96L53.24 224.76L58.60 226.30ZM53.24 224.76L51.81 218.96L46.44 217.42L42.51 221.69L43.94 227.49L49.30 229.03ZM65.05 211.95L63.63 206.14L58.26 204.61L54.32 208.88L55.75 214.69L61.11 216.22ZM113.26 122.98L111.83 117.15L106.44 115.61L102.48 119.90L103.91 125.72L109.29 127.27ZM103.91 125.72L102.48 119.90L97.09 118.36L93.13 122.64L94.56 128.47L99.95 130.01ZM115.80 112.87L114.37 107.04L108.98 105.50L105.02 109.79L106.44 115.61L111.83 117.15ZM106.44 115.61L105.02 109.79L99.63 108.24L95.67 112.53L97.09 118.36L102.48 119.90ZM120.07 130.35L118.64 124.53L113.26 122.98L109.29 127.27L110.72 133.09L116.10 134.64ZM110.72 133.09L109.29 127.27L103.91 125.72L99.95 130.01L101.37 135.83L106.76 137.37ZM122.61 120.24L121.19 114.41L115.80 112.87L111.83 117.15L113.26 122.98L118.64 124.53ZM87.75 121.11L86.32 115.28L80.93 113.74L76.98 118.03L78.41 123.85L83.79 125.39ZM78.41 123.85L76.98 118.03L71.59 116.50L67.64 120.78L69.07 126.60L74.45 128.14ZM90.28 110.99L88.85 105.17L83.46 103.63L79.51 107.92L80.93 113.74L86.32 115.28ZM80.93 113.74L79.51 107.92L74.12 106.38L70.16 110.67L71.59 116.50L76.98 118.03ZM94.56 128.47L93.13 122.64L87.75 121.11L83.79 125.39L85.22 131.21L90.60 132.75ZM85.22 131.21L83.79 125.39L78.41 123.85L74.45 128.14L75.88 133.96L81.27 135.50ZM97.09 118.36L95.67 112.53L90.28 110.99L86.32 115.28L87.75 121.11L93.13 122.64ZM127.70 100.01L126.27 94.18L120.88 92.63L116.91 96.92L118.34 102.75L123.73 104.30ZM118.34 102.75L116.91 96.92L111.52 95.38L107.55 99.67L108.98 105.50L114.37 107.04ZM130.25 89.89L128.82 84.05L123.43 82.51L119.46 86.80L120.88 92.63L126.27 94.18ZM120.88 92.63L119.46 86.80L114.06 85.26L110.09 89.55L111.52 95.38L116.91 96.92ZM134.52 107.39L133.09 101.55L127.70 100.01L123.73 104.30L125.15 110.13L130.55 111.67ZM125.15 110.13L123.73 104.30L118.34 102.75L114.37 107.04L115.80 112.87L121.19 114.41ZM137.06 97.27L135.64 91.43L130.25 89.89L126.27 94.18L127.70 100.01L133.09 101.55ZM102.16 98.13L100.74 92.30L95.34 90.76L91.38 95.05L92.81 100.88L98.20 102.42ZM92.81 100.88L91.38 95.05L85.99 93.51L82.03 97.80L83.46 103.63L88.85 105.17ZM104.70 88.01L103.27 82.18L97.88 80.64L93.92 84.93L95.34 90.76L100.74 92.30ZM95.34 90.76L93.92 84.93L88.52 83.39L84.56 87.68L85.99 93.51L91.38 95.05ZM108.98 105.50L107.55 99.67L102.16 98.13L98.20 102.42L99.63 108.24L105.02 109.79ZM99.63 108.24L98.20 102.42L92.81 100.88L88.85 105.17L90.28 110.99L95.67 112.53ZM111.52 95.38L110.09 89.55L104.70 88.01L100.74 92.30L102.16 98.13L107.55 99.67ZM124.34 147.83L122.91 142.01L117.53 140.46L113.57 144.74L114.99 150.57L120.37 152.11ZM114.99 150.57L113.57 144.74L108.18 143.20L104.22 147.48L105.65 153.30L111.03 154.84ZM126.88 137.73L125.46 131.90L120.07 130.35L116.10 134.64L117.53 140.46L122.91 142.01ZM117.53 140.46L116.10 134.64L110.72 133.09L106.76 137.37L108.18 143.20L113.57 144.74ZM131.14 155.20L129.72 149.38L124.34 147.83L120.37 152.11L121.80 157.93L127.18 159.48ZM121.80 157.93L120.37 152.11L114.99 150.57L111.03 154.84L112.45 160.67L117.84 162.21ZM133.69 145.10L132.27 139.27L126.88 137.73L122.91 142.01L124.34 147.83L129.72 149.38ZM98.84 145.94L97.41 140.11L92.03 138.57L88.08 142.86L89.50 148.68L94.88 150.22ZM101.37 135.83L99.95 130.01L94.56 128.47L90.60 132.75L92.03 138.57L97.41 140.11ZM92.03 138.57L90.60 132.75L85.22 131.21L81.27 135.50L82.69 141.32L88.08 142.86ZM105.65 153.30L104.22 147.48L98.84 145.94L94.88 150.22L96.31 156.04L101.69 157.58ZM96.31 156.04L94.88 150.22L89.50 148.68L85.55 152.96L86.98 158.78L92.35 160.32ZM108.18 143.20L106.76 137.37L101.37 135.83L97.41 140.11L98.84 145.94L104.22 147.48ZM138.78 124.88L137.36 119.05L131.97 117.50L128.00 121.79L129.42 127.62L134.81 129.16ZM129.42 127.62L128.00 121.79L122.61 120.24L118.64 124.53L120.07 130.35L125.46 131.90ZM141.33 114.77L139.91 108.93L134.52 107.39L130.55 111.67L131.97 117.50L137.36 119.05ZM131.97 117.50L130.55 111.67L125.15 110.13L121.19 114.41L122.61 120.24L128.00 121.79ZM145.59 132.26L144.17 126.43L138.78 124.88L134.81 129.16L136.23 134.99L141.62 136.54ZM136.23 134.99L134.81 129.16L129.42 127.62L125.46 131.90L126.88 137.73L132.27 139.27ZM148.14 122.15L146.72 116.31L141.33 114.77L137.36 119.05L138.78 124.88L144.17 126.43ZM47.90 142.21L46.47 136.39L41.09 134.86L37.14 139.15L38.58 144.96L43.95 146.49ZM38.58 144.96L37.14 139.15L31.77 137.62L27.83 141.91L29.26 147.72L34.64 149.25ZM50.41 132.11L48.98 126.29L43.60 124.76L39.65 129.05L41.09 134.86L46.47 136.39ZM41.09 134.86L39.65 129.05L34.28 127.52L30.33 131.81L31.77 137.62L37.14 139.15ZM54.71 149.56L53.28 143.74L47.90 142.21L43.95 146.49L45.39 152.31L50.76 153.84ZM45.39 152.31L43.95 146.49L38.58 144.96L34.64 149.25L36.07 155.06L41.44 156.59ZM57.22 139.46L55.79 133.64L50.41 132.11L46.47 136.39L47.90 142.21L53.28 143.74ZM22.45 140.38L21.02 134.57L15.64 133.04L11.70 137.33L13.14 143.14L18.51 144.66ZM13.14 143.14L11.70 137.33L6.33 135.80L2.40 140.09L3.83 145.90L9.21 147.42ZM24.96 130.28L23.52 124.46L18.14 122.94L14.21 127.23L15.64 133.04L21.02 134.57ZM15.64 133.04L14.21 127.23L8.83 125.70L4.89 129.99L6.33 135.80L11.70 137.33ZM29.26 147.72L27.83 141.91L22.45 140.38L18.51 144.66L19.95 150.48L25.32 152.00ZM19.95 150.48L18.51 144.66L13.14 143.14L9.21 147.42L10.64 153.23L16.01 154.76ZM31.77 137.62L30.33 131.81L24.96 130.28L21.02 134.57L22.45 140.38L27.83 141.91ZM62.26 119.25L60.83 113.43L55.44 111.90L51.49 116.18L52.93 122.00L58.31 123.54ZM52.93 122.00L51.49 116.18L46.11 114.65L42.17 118.94L43.60 124.76L48.98 126.29ZM64.78 109.14L63.35 103.32L57.96 101.78L54.01 106.07L55.44 111.90L60.83 113.43ZM55.44 111.90L54.01 106.07L48.63 104.54L44.68 108.83L46.11 114.65L51.49 116.18ZM69.07 126.60L67.64 120.78L62.26 119.25L58.31 123.54L59.74 129.36L65.12 130.89ZM59.74 129.36L58.31 123.54L52.93 122.00L48.98 126.29L50.41 132.11L55.79 133.64ZM71.59 116.50L70.16 110.67L64.78 109.14L60.83 113.43L62.26 119.25L67.64 120.78ZM36.79 117.41L35.35 111.60L29.97 110.07L26.03 114.36L27.46 120.17L32.84 121.70ZM27.46 120.17L26.03 114.36L20.65 112.83L16.71 117.12L18.14 122.94L23.52 124.46ZM39.30 107.30L37.86 101.48L32.48 99.96L28.53 104.25L29.97 110.07L35.35 111.60ZM29.97 110.07L28.53 104.25L23.15 102.72L19.21 107.02L20.65 112.83L26.03 114.36ZM43.60 124.76L42.17 118.94L36.79 117.41L32.84 121.70L34.28 127.52L39.65 129.05ZM34.28 127.52L32.84 121.70L27.46 120.17L23.52 124.46L24.96 130.28L30.33 131.81ZM46.11 114.65L44.68 108.83L39.30 107.30L35.35 111.60L36.79 117.41L42.17 118.94ZM59.00 167.00L57.57 161.19L52.19 159.66L48.25 163.94L49.68 169.75L55.05 171.28ZM49.68 169.75L48.25 163.94L42.88 162.40L38.94 166.68L40.37 172.49L45.74 174.03ZM61.51 156.91L60.08 151.09L54.71 149.56L50.76 153.84L52.19 159.66L57.57 161.19ZM52.19 159.66L50.76 153.84L45.39 152.31L41.44 156.59L42.88 162.40L48.25 163.94ZM65.80 174.35L64.37 168.54L59.00 167.00L55.05 171.28L56.48 177.09L61.86 178.63ZM56.48 177.09L55.05 171.28L49.68 169.75L45.74 174.03L47.17 179.84L52.54 181.37ZM68.32 164.26L66.89 158.44L61.51 156.91L57.57 161.19L59.00 167.00L64.37 168.54ZM33.56 165.15L32.13 159.34L26.76 157.81L22.82 162.10L24.25 167.91L29.62 169.43ZM24.25 167.91L22.82 162.10L17.45 160.57L13.51 164.85L14.95 170.66L20.32 172.19ZM36.07 155.06L34.64 149.25L29.26 147.72L25.32 152.00L26.76 157.81L32.13 159.34ZM26.76 157.81L25.32 152.00L19.95 150.48L16.01 154.76L17.45 160.57L22.82 162.10ZM40.37 172.49L38.94 166.68L33.56 165.15L29.62 169.43L31.06 175.24L36.43 176.77ZM42.88 162.40L41.44 156.59L36.07 155.06L32.13 159.34L33.56 165.15L38.94 166.68ZM73.36 144.06L71.93 138.24L66.55 136.71L62.60 140.99L64.03 146.81L69.41 148.35ZM64.03 146.81L62.60 140.99L57.22 139.46L53.28 143.74L54.71 149.56L60.08 151.09ZM75.88 133.96L74.45 128.14L69.07 126.60L65.12 130.89L66.55 136.71L71.93 138.24ZM66.55 136.71L65.12 130.89L59.74 129.36L55.79 133.64L57.22 139.46L62.60 140.99ZM82.69 141.32L81.27 135.50L75.88 133.96L71.93 138.24L73.36 144.06L78.74 145.60ZM145.62 235.13L144.21 229.32L138.83 227.77L134.87 232.03L136.29 237.84L141.66 239.39ZM117.64 243.27L116.22 237.46L110.85 235.91L106.90 240.17L108.32 245.98L113.69 247.53ZM120.17 233.19L118.76 227.38L113.38 225.83L109.43 230.10L110.85 235.91L116.22 237.46ZM110.85 235.91L109.43 230.10L104.06 228.55L100.11 232.82L101.54 238.63L106.90 240.17ZM148.16 225.05L146.75 219.24L141.37 217.68L137.41 221.95L138.83 227.77L144.21 229.32ZM160.05 212.26L158.64 206.44L153.26 204.89L149.29 209.15L150.71 214.97L156.09 216.53ZM150.71 214.97L149.29 209.15L143.92 207.60L139.95 211.87L141.37 217.68L146.75 219.24ZM132.04 220.40L130.62 214.58L125.24 213.03L121.29 217.30L122.71 223.11L128.08 224.66ZM122.71 223.11L121.29 217.30L115.92 215.75L111.96 220.02L113.38 225.83L118.76 227.38ZM134.58 210.32L133.16 204.50L127.78 202.95L123.83 207.22L125.24 213.03L130.62 214.58ZM125.24 213.03L123.83 207.22L118.45 205.67L114.49 209.94L115.92 215.75L121.29 217.30ZM138.83 227.77L137.41 221.95L132.04 220.40L128.08 224.66L129.50 230.48L134.87 232.03ZM129.50 230.48L128.08 224.66L122.71 223.11L118.76 227.38L120.17 233.19L125.55 234.74ZM141.37 217.68L139.95 211.87L134.58 210.32L130.62 214.58L132.04 220.40L137.41 221.95ZM80.40 254.13L78.97 248.33L73.61 246.79L69.67 251.05L71.09 256.85L76.46 258.39ZM71.09 256.85L69.67 251.05L64.31 249.51L60.37 253.77L61.80 259.58L67.16 261.11ZM52.50 262.30L51.08 256.50L45.72 254.96L41.79 259.23L43.22 265.02L48.57 266.56ZM55.01 252.24L53.58 246.44L48.22 244.90L44.29 249.16L45.72 254.96L51.08 256.50ZM45.72 254.96L44.29 249.16L38.93 247.63L35.00 251.90L36.43 257.69L41.79 259.23ZM61.80 259.58L60.37 253.77L55.01 252.24L51.08 256.50L52.50 262.30L57.86 263.84ZM92.22 241.34L90.80 235.54L85.43 233.99L81.49 238.26L82.91 244.07L88.28 245.61ZM82.91 244.07L81.49 238.26L76.12 236.72L72.18 240.98L73.61 246.79L78.97 248.33ZM94.75 231.27L93.32 225.46L87.95 223.92L84.01 228.19L85.43 233.99L90.80 235.54ZM85.43 233.99L84.01 228.19L78.64 226.65L74.70 230.91L76.12 236.72L81.49 238.26ZM101.54 238.63L100.11 232.82L94.75 231.27L90.80 235.54L92.22 241.34L97.59 242.89ZM66.82 239.44L65.39 233.64L60.03 232.10L56.09 236.37L57.52 242.17L62.88 243.71ZM57.52 242.17L56.09 236.37L50.73 234.83L46.79 239.10L48.22 244.90L53.58 246.44ZM69.33 229.37L67.91 223.57L62.54 222.03L58.60 226.30L60.03 232.10L65.39 233.64ZM60.03 232.10L58.60 226.30L53.24 224.76L49.30 229.03L50.73 234.83L56.09 236.37ZM73.61 246.79L72.18 240.98L66.82 239.44L62.88 243.71L64.31 249.51L69.67 251.05ZM64.31 249.51L62.88 243.71L57.52 242.17L53.58 246.44L55.01 252.24L60.37 253.77ZM76.12 236.72L74.70 230.91L69.33 229.37L65.39 233.64L66.82 239.44L72.18 240.98ZM160.91 174.61L159.49 168.78L154.11 167.23L150.14 171.50L151.56 177.33L156.94 178.88ZM151.56 177.33L150.14 171.50L144.75 169.95L140.79 174.22L142.21 180.05L147.59 181.60ZM163.46 164.51L162.05 158.68L156.66 157.13L152.69 161.40L154.11 167.23L159.49 168.78ZM154.11 167.23L152.69 161.40L147.30 159.85L143.33 164.13L144.75 169.95L150.14 171.50ZM167.71 181.99L166.29 176.16L160.91 174.61L156.94 178.88L158.36 184.70L163.74 186.26ZM158.36 184.70L156.94 178.88L151.56 177.33L147.59 181.60L149.01 187.42L154.39 188.97ZM170.26 171.89L168.85 166.06L163.46 164.51L159.49 168.78L160.91 174.61L166.29 176.16ZM135.40 172.68L133.98 166.85L128.60 165.30L124.64 169.58L126.06 175.40L131.44 176.95ZM126.06 175.40L124.64 169.58L119.26 168.03L115.30 172.31L116.72 178.13L122.10 179.67ZM137.95 162.58L136.53 156.75L131.14 155.20L127.18 159.48L128.60 165.30L133.98 166.85ZM128.60 165.30L127.18 159.48L121.80 157.93L117.84 162.21L119.26 168.03L124.64 169.58ZM142.21 180.05L140.79 174.22L135.40 172.68L131.44 176.95L132.86 182.77L138.24 184.32ZM132.86 182.77L131.44 176.95L126.06 175.40L122.10 179.67L123.52 185.49L128.90 187.04ZM144.75 169.95L143.33 164.13L137.95 162.58L133.98 166.85L135.40 172.68L140.79 174.22ZM175.38 151.68L173.97 145.85L168.57 144.30L164.60 148.57L166.02 154.40L171.41 155.96ZM166.02 154.40L164.60 148.57L159.21 147.02L155.24 151.30L156.66 157.13L162.05 158.68ZM177.94 141.58L176.53 135.74L171.13 134.19L167.16 138.47L168.57 144.30L173.97 145.85ZM168.57 144.30L167.16 138.47L161.77 136.91L157.79 141.19L159.21 147.02L164.60 148.57ZM182.19 159.07L180.77 153.24L175.38 151.68L171.41 155.96L172.82 161.79L178.21 163.35ZM172.82 161.79L171.41 155.96L166.02 154.40L162.05 158.68L163.46 164.51L168.85 166.06ZM184.75 148.97L183.34 143.13L177.94 141.58L173.97 145.85L175.38 151.68L180.77 153.24ZM149.85 149.75L148.43 143.92L143.04 142.37L139.08 146.65L140.50 152.47L145.88 154.02ZM140.50 152.47L139.08 146.65L133.69 145.10L129.72 149.38L131.14 155.20L136.53 156.75ZM152.40 139.64L150.98 133.81L145.59 132.26L141.62 136.54L143.04 142.37L148.43 143.92ZM143.04 142.37L141.62 136.54L136.23 134.99L132.27 139.27L133.69 145.10L139.08 146.65ZM156.66 157.13L155.24 151.30L149.85 149.75L145.88 154.02L147.30 159.85L152.69 161.40ZM147.30 159.85L145.88 154.02L140.50 152.47L136.53 156.75L137.95 162.58L143.33 164.13ZM159.21 147.02L157.79 141.19L152.40 139.64L148.43 143.92L149.85 149.75L155.24 151.30ZM171.95 199.46L170.54 193.64L165.16 192.08L161.19 196.35L162.60 202.17L167.98 203.73ZM162.60 202.17L161.19 196.35L155.81 194.80L151.84 199.07L153.26 204.89L158.64 206.44ZM174.51 189.37L173.09 183.54L167.71 181.99L163.74 186.26L165.16 192.08L170.54 193.64ZM165.16 192.08L163.74 186.26L158.36 184.70L154.39 188.97L155.81 194.80L161.19 196.35ZM146.46 197.51L145.04 191.69L139.66 190.14L135.70 194.41L137.12 200.23L142.50 201.78ZM137.12 200.23L135.70 194.41L130.32 192.86L126.36 197.13L127.78 202.95L133.16 204.50ZM149.01 187.42L147.59 181.60L142.21 180.05L138.24 184.32L139.66 190.14L145.04 191.69ZM139.66 190.14L138.24 184.32L132.86 182.77L128.90 187.04L130.32 192.86L135.70 194.41ZM153.26 204.89L151.84 199.07L146.46 197.51L142.50 201.78L143.92 207.60L149.29 209.15ZM143.92 207.60L142.50 201.78L137.12 200.23L133.16 204.50L134.58 210.32L139.95 211.87ZM155.81 194.80L154.39 188.97L149.01 187.42L145.04 191.69L146.46 197.51L151.84 199.07ZM188.99 166.46L187.58 160.63L182.19 159.07L178.21 163.35L179.63 169.17L185.01 170.73ZM179.63 169.17L178.21 163.35L172.82 161.79L168.85 166.06L170.26 171.89L175.65 173.45ZM195.79 173.85L194.38 168.02L188.99 166.46L185.01 170.73L186.43 176.56L191.82 178.12Z"/><path data-band="2" fill="#f97316" fill-opacity="0.35" d="M255.63 109.73L254.22 103.88L248.82 102.32L244.82 106.60L246.23 112.44L251.63 114.01ZM246.23 112.44L244.82 106.60L239.41 105.03L235.41 109.31L236.82 115.16L242.23 116.72ZM258.22 99.60L256.82 93.75L251.41 92.19L247.41 96.47L248.82 102.32L254.22 103.88ZM248.82 102.32L247.41 96.47L242.00 94.90L238.00 99.18L239.41 105.03L244.82 106.60ZM262.44 117.15L261.04 111.30L255.63 109.73L251.63 114.01L253.04 119.86L258.44 121.43ZM253.04 119.86L251.63 114.01L246.23 112.44L242.23 116.72L243.64 122.57L249.04 124.13ZM265.04 107.02L263.63 101.17L258.22 99.60L254.22 103.88L255.63 109.73L261.04 111.30ZM236.82 115.16L235.41 109.31L230.01 107.75L226.02 112.03L227.43 117.87L232.83 119.43ZM227.43 117.87L226.02 112.03L220.61 110.46L216.62 114.74L218.03 120.58L223.44 122.15ZM239.41 105.03L238.00 99.18L232.60 97.62L228.60 101.90L230.01 107.75L235.41 109.31ZM260.82 89.47L259.41 83.62L254.00 82.05L250.00 86.34L251.41 92.19L256.82 93.75ZM264.71 210.16L263.30 204.32L257.91 202.75L253.92 207.01L255.33 212.84L260.72 214.42ZM248.53 205.44L247.13 199.61L241.74 198.04L237.75 202.30L239.15 208.13L244.54 209.70ZM239.15 208.13L237.75 202.30L232.36 200.73L228.38 204.99L229.78 210.82L235.17 212.39ZM251.12 195.34L249.71 189.51L244.32 187.94L240.33 192.20L241.74 198.04L247.13 199.61ZM241.74 198.04L240.33 192.20L234.94 190.63L230.95 194.90L232.36 200.73L237.75 202.30ZM255.33 212.84L253.92 207.01L248.53 205.44L244.54 209.70L245.95 215.53L251.34 217.10ZM245.95 215.53L244.54 209.70L239.15 208.13L235.17 212.39L236.58 218.22L241.96 219.79ZM257.91 202.75L256.51 196.91L251.12 195.34L247.13 199.61L248.53 205.44L253.92 207.01ZM263.09 182.55L261.69 176.71L256.29 175.14L252.30 179.41L253.70 185.24L259.10 186.81ZM253.70 185.24L252.30 179.41L246.90 177.84L242.91 182.10L244.32 187.94L249.71 189.51ZM265.68 172.45L264.28 166.60L258.88 165.03L254.89 169.30L256.29 175.14L261.69 176.71ZM256.29 175.14L254.89 169.30L249.49 167.73L245.50 172.00L246.90 177.84L252.30 179.41ZM260.50 192.65L259.10 186.81L253.70 185.24L249.71 189.51L251.12 195.34L256.51 196.91ZM259.53 230.34L258.13 224.51L252.74 222.93L248.75 227.19L250.16 233.02L255.54 234.60ZM250.16 233.02L248.75 227.19L243.37 225.62L239.38 229.88L240.79 235.71L246.17 237.28ZM262.12 220.25L260.72 214.42L255.33 212.84L251.34 217.10L252.74 222.93L258.13 224.51ZM252.74 222.93L251.34 217.10L245.95 215.53L241.96 219.79L243.37 225.62L248.75 227.19ZM266.32 237.74L264.92 231.91L259.53 230.34L255.54 234.60L256.95 240.42L262.33 242.00ZM256.95 240.42L255.54 234.60L250.16 233.02L246.17 237.28L247.58 243.11L252.96 244.68ZM208.48 226.30L207.08 220.48L201.69 218.91L197.72 223.17L199.13 229.00L204.51 230.56ZM199.13 229.00L197.72 223.17L192.34 221.61L188.37 225.87L189.78 231.69L195.16 233.26ZM211.05 216.21L209.64 210.39L204.26 208.82L200.28 213.09L201.69 218.91L207.08 220.48ZM201.69 218.91L200.28 213.09L194.90 211.52L190.93 215.79L192.34 221.61L197.72 223.17ZM215.27 233.69L213.87 227.87L208.48 226.30L204.51 230.56L205.92 236.38L211.30 237.95ZM205.92 236.38L204.51 230.56L199.13 229.00L195.16 233.26L196.57 239.08L201.95 240.64ZM217.84 223.61L216.44 217.78L211.05 216.21L207.08 220.48L208.48 226.30L213.87 227.87ZM182.98 224.31L181.57 218.49L176.19 216.93L172.23 221.19L173.64 227.01L179.02 228.57ZM173.64 227.01L172.23 221.19L166.85 219.64L162.88 223.90L164.29 229.72L169.67 231.28ZM185.54 214.23L184.13 208.40L178.75 206.84L174.78 211.11L176.19 216.93L181.57 218.49ZM176.19 216.93L174.78 211.11L169.40 209.55L165.43 213.82L166.85 219.64L172.23 221.19ZM189.78 231.69L188.37 225.87L182.98 224.31L179.02 228.57L180.43 234.39L185.81 235.95ZM180.43 234.39L179.02 228.57L173.64 227.01L169.67 231.28L171.08 237.09L176.46 238.65ZM192.34 221.61L190.93 215.79L185.54 214.23L181.57 218.49L182.98 224.31L188.37 225.87ZM222.99 203.43L221.58 197.60L216.19 196.03L212.21 200.30L213.62 206.12L219.01 207.69ZM213.62 206.12L212.21 200.30L206.82 198.73L202.85 203.00L204.26 208.82L209.64 210.39ZM225.56 193.33L224.16 187.50L218.76 185.93L214.78 190.20L216.19 196.03L221.58 197.60ZM216.19 196.03L214.78 190.20L209.39 188.64L205.42 192.90L206.82 198.73L212.21 200.30ZM229.78 210.82L228.38 204.99L222.99 203.43L219.01 207.69L220.41 213.52L225.80 215.08ZM220.41 213.52L219.01 207.69L213.62 206.12L209.64 210.39L211.05 216.21L216.44 217.78ZM232.36 200.73L230.95 194.90L225.56 193.33L221.58 197.60L222.99 203.43L228.38 204.99ZM197.46 201.43L196.05 195.61L190.67 194.05L186.69 198.31L188.10 204.14L193.49 205.70ZM188.10 204.14L186.69 198.31L181.31 196.75L177.34 201.02L178.75 206.84L184.13 208.40ZM200.03 191.34L198.62 185.51L193.23 183.95L189.25 188.22L190.67 194.05L196.05 195.61ZM190.67 194.05L189.25 188.22L183.87 186.66L179.89 190.93L181.31 196.75L186.69 198.31ZM204.26 208.82L202.85 203.00L197.46 201.43L193.49 205.70L194.90 211.52L200.28 213.09ZM194.90 211.52L193.49 205.70L188.10 204.14L184.13 208.40L185.54 214.23L190.93 215.79ZM206.82 198.73L205.42 192.90L200.03 191.34L196.05 195.61L197.46 201.43L202.85 203.00ZM219.49 251.16L218.09 245.34L212.71 243.77L208.73 248.03L210.14 253.85L215.52 255.42ZM210.14 253.85L208.73 248.03L203.35 246.46L199.38 250.72L200.79 256.54L206.17 258.10ZM222.06 241.08L220.66 235.26L215.27 233.69L211.30 237.95L212.71 243.77L218.09 245.34ZM212.71 243.77L211.30 237.95L205.92 236.38L201.95 240.64L203.35 246.46L208.73 248.03ZM226.28 258.55L224.87 252.73L219.49 251.16L215.52 255.42L216.92 261.24L222.30 262.80ZM216.92 261.24L215.52 255.42L210.14 253.85L206.17 258.10L207.57 263.92L212.95 265.49ZM228.85 248.47L227.44 242.65L222.06 241.08L218.09 245.34L219.49 251.16L224.87 252.73ZM194.00 249.16L192.60 243.34L187.22 241.77L183.25 246.03L184.66 251.85L190.04 253.41ZM184.66 251.85L183.25 246.03L177.87 244.47L173.91 248.73L175.32 254.55L180.70 256.11ZM196.57 239.08L195.16 233.26L189.78 231.69L185.81 235.95L187.22 241.77L192.60 243.34ZM187.22 241.77L185.81 235.95L180.43 234.39L176.46 238.65L177.87 244.47L183.25 246.03ZM200.79 256.54L199.38 250.72L194.00 249.16L190.04 253.41L191.45 259.23L196.82 260.79ZM191.45 259.23L190.04 253.41L184.66 251.85L180.70 256.11L182.11 261.92L187.48 263.48ZM203.35 246.46L201.95 240.64L196.57 239.08L192.60 243.34L194.00 249.16L199.38 250.72ZM234.00 228.31L232.59 222.48L227.21 220.91L223.23 225.17L224.63 231.00L230.02 232.57ZM224.63 231.00L223.23 225.17L217.84 223.61L213.87 227.87L215.27 233.69L220.66 235.26ZM236.58 218.22L235.17 212.39L229.78 210.82L225.80 215.08L227.21 220.91L232.59 222.48ZM227.21 220.91L225.80 215.08L220.41 213.52L216.44 217.78L217.84 223.61L223.23 225.17ZM240.79 235.71L239.38 229.88L234.00 228.31L230.02 232.57L231.42 238.39L236.81 239.96ZM231.42 238.39L230.02 232.57L224.63 231.00L220.66 235.26L222.06 241.08L227.44 242.65ZM243.37 225.62L241.96 219.79L236.58 218.22L232.59 222.48L234.00 228.31L239.38 229.88ZM266.66 134.69L265.25 128.84L259.85 127.27L255.85 131.55L257.26 137.39L262.66 138.96ZM257.26 137.39L255.85 131.55L250.45 129.98L246.45 134.25L247.86 140.10L253.26 141.67ZM259.85 127.27L258.44 121.43L253.04 119.86L249.04 124.13L250.45 129.98L255.85 131.55ZM264.06 144.81L262.66 138.96L257.26 137.39L253.26 141.67L254.66 147.51L260.07 149.08ZM226.49 155.62L225.09 149.78L219.69 148.22L215.70 152.49L217.11 158.33L222.51 159.89ZM217.11 158.33L215.70 152.49L210.31 150.93L206.32 155.20L207.73 161.04L213.13 162.60ZM229.07 145.51L227.66 139.67L222.27 138.11L218.28 142.38L219.69 148.22L225.09 149.78ZM219.69 148.22L218.28 142.38L212.88 140.82L208.90 145.09L210.31 150.93L215.70 152.49ZM233.30 163.02L231.89 157.19L226.49 155.62L222.51 159.89L223.92 165.73L229.31 167.29ZM223.92 165.73L222.51 159.89L217.11 158.33L213.13 162.60L214.54 168.43L219.93 170.00ZM235.88 152.92L234.47 147.08L229.07 145.51L225.09 149.78L226.49 155.62L231.89 157.19ZM207.73 161.04L206.32 155.20L200.93 153.64L196.95 157.92L198.36 163.75L203.75 165.31ZM241.05 132.69L239.64 126.84L234.24 125.28L230.25 129.55L231.66 135.40L237.06 136.96ZM231.66 135.40L230.25 129.55L224.85 127.99L220.86 132.27L222.27 138.11L227.66 139.67ZM243.64 122.57L242.23 116.72L236.82 115.16L232.83 119.43L234.24 125.28L239.64 126.84ZM234.24 125.28L232.83 119.43L227.43 117.87L223.44 122.15L224.85 127.99L230.25 129.55ZM247.86 140.10L246.45 134.25L241.05 132.69L237.06 136.96L238.46 142.80L243.86 144.37ZM238.46 142.80L237.06 136.96L231.66 135.40L227.66 139.67L229.07 145.51L234.47 147.08ZM250.45 129.98L249.04 124.13L243.64 122.57L239.64 126.84L241.05 132.69L246.45 134.25ZM237.52 180.53L236.11 174.70L230.72 173.13L226.73 177.40L228.14 183.23L233.53 184.80ZM228.14 183.23L226.73 177.40L221.34 175.83L217.36 180.10L218.76 185.93L224.16 187.50ZM240.10 170.43L238.69 164.59L233.30 163.02L229.31 167.29L230.72 173.13L236.11 174.70ZM230.72 173.13L229.31 167.29L223.92 165.73L219.93 170.00L221.34 175.83L226.73 177.40ZM244.32 187.94L242.91 182.10L237.52 180.53L233.53 184.80L234.94 190.63L240.33 192.20ZM234.94 190.63L233.53 184.80L228.14 183.23L224.16 187.50L225.56 193.33L230.95 194.90ZM246.90 177.84L245.50 172.00L240.10 170.43L236.11 174.70L237.52 180.53L242.91 182.10ZM211.97 178.54L210.56 172.70L205.16 171.14L201.18 175.41L202.59 181.24L207.98 182.81ZM202.59 181.24L201.18 175.41L195.79 173.85L191.82 178.12L193.23 183.95L198.62 185.51ZM214.54 168.43L213.13 162.60L207.73 161.04L203.75 165.31L205.16 171.14L210.56 172.70ZM205.16 171.14L203.75 165.31L198.36 163.75L194.38 168.02L195.79 173.85L201.18 175.41ZM218.76 185.93L217.36 180.10L211.97 178.54L207.98 182.81L209.39 188.64L214.78 190.20ZM209.39 188.64L207.98 182.81L202.59 181.24L198.62 185.51L200.03 191.34L205.42 192.90ZM221.34 175.83L219.93 170.00L214.54 168.43L210.56 172.70L211.97 178.54L217.36 180.10ZM252.08 157.62L250.67 151.78L245.27 150.21L241.28 154.48L242.68 160.32L248.08 161.89ZM242.68 160.32L241.28 154.48L235.88 152.92L231.89 157.19L233.30 163.02L238.69 164.59ZM254.66 147.51L253.26 141.67L247.86 140.10L243.86 144.37L245.27 150.21L250.67 151.78ZM245.27 150.21L243.86 144.37L238.46 142.80L234.47 147.08L235.88 152.92L241.28 154.48ZM258.88 165.03L257.47 159.19L252.08 157.62L248.08 161.89L249.49 167.73L254.89 169.30ZM249.49 167.73L248.08 161.89L242.68 160.32L238.69 164.59L240.10 170.43L245.50 172.00ZM261.47 154.92L260.07 149.08L254.66 147.51L250.67 151.78L252.08 157.62L257.47 159.19ZM261.15 257.91L259.75 252.08L254.36 250.51L250.38 254.76L251.78 260.58L257.16 262.16ZM263.73 247.83L262.33 242.00L256.95 240.42L252.96 244.68L254.36 250.51L259.75 252.08ZM245.00 253.19L243.59 247.36L238.21 245.79L234.23 250.04L235.64 255.87L241.02 257.44ZM235.64 255.87L234.23 250.04L228.85 248.47L224.87 252.73L226.28 258.55L231.66 260.12ZM247.58 243.11L246.17 237.28L240.79 235.71L236.81 239.96L238.21 245.79L243.59 247.36ZM238.21 245.79L236.81 239.96L231.42 238.39L227.44 242.65L228.85 248.47L234.23 250.04ZM251.78 260.58L250.38 254.76L245.00 253.19L241.02 257.44L242.42 263.26L247.80 264.84ZM242.42 263.26L241.02 257.44L235.64 255.87L231.66 260.12L233.06 265.94L238.44 267.51ZM254.36 250.51L252.96 244.68L247.58 243.11L243.59 247.36L245.00 253.19L250.38 254.76ZM31.06 175.24L29.62 169.43L24.25 167.91L20.32 172.19L21.75 177.99L27.12 179.52ZM143.08 245.21L141.66 239.39L136.29 237.84L132.34 242.10L133.75 247.92L139.12 249.47ZM133.75 247.92L132.34 242.10L126.96 240.55L123.01 244.82L124.43 250.63L129.80 252.18ZM136.29 237.84L134.87 232.03L129.50 230.48L125.55 234.74L126.96 240.55L132.34 242.10ZM149.87 252.58L148.45 246.76L143.08 245.21L139.12 249.47L140.54 255.28L145.91 256.83ZM140.54 255.28L139.12 249.47L133.75 247.92L129.80 252.18L131.22 257.99L136.59 259.54ZM152.41 242.50L151.00 236.69L145.62 235.13L141.66 239.39L143.08 245.21L148.45 246.76ZM108.32 245.98L106.90 240.17L101.54 238.63L97.59 242.89L99.01 248.70L104.38 250.24ZM124.43 250.63L123.01 244.82L117.64 243.27L113.69 247.53L115.11 253.34L120.48 254.89ZM115.11 253.34L113.69 247.53L108.32 245.98L104.38 250.24L105.80 256.05L111.16 257.60ZM126.96 240.55L125.55 234.74L120.17 233.19L116.22 237.46L117.64 243.27L123.01 244.82ZM157.50 222.35L156.09 216.53L150.71 214.97L146.75 219.24L148.16 225.05L153.54 226.61ZM164.29 229.72L162.88 223.90L157.50 222.35L153.54 226.61L154.96 232.43L160.33 233.98ZM154.96 232.43L153.54 226.61L148.16 225.05L144.21 229.32L145.62 235.13L151.00 236.69ZM166.85 219.64L165.43 213.82L160.05 212.26L156.09 216.53L157.50 222.35L162.88 223.90ZM156.65 259.94L155.24 254.13L149.87 252.58L145.91 256.83L147.32 262.65L152.69 264.20ZM147.32 262.65L145.91 256.83L140.54 255.28L136.59 259.54L138.00 265.35L143.37 266.90ZM131.22 257.99L129.80 252.18L124.43 250.63L120.48 254.89L121.90 260.69L127.27 262.24ZM121.90 260.69L120.48 254.89L115.11 253.34L111.16 257.60L112.58 263.40L117.95 264.95ZM168.53 247.17L167.12 241.35L161.75 239.80L157.78 244.06L159.20 249.87L164.57 251.43ZM159.20 249.87L157.78 244.06L152.41 242.50L148.45 246.76L149.87 252.58L155.24 254.13ZM171.08 237.09L169.67 231.28L164.29 229.72L160.33 233.98L161.75 239.80L167.12 241.35ZM161.75 239.80L160.33 233.98L154.96 232.43L151.00 236.69L152.41 242.50L157.78 244.06ZM175.32 254.55L173.91 248.73L168.53 247.17L164.57 251.43L165.98 257.24L171.36 258.80ZM165.98 257.24L164.57 251.43L159.20 249.87L155.24 254.13L156.65 259.94L162.02 261.50ZM177.87 244.47L176.46 238.65L171.08 237.09L167.12 241.35L168.53 247.17L173.91 248.73ZM87.18 261.48L85.76 255.68L80.40 254.13L76.46 258.39L77.88 264.20L83.24 265.74ZM99.01 248.70L97.59 242.89L92.22 241.34L88.28 245.61L89.70 251.41L95.07 252.96ZM89.70 251.41L88.28 245.61L82.91 244.07L78.97 248.33L80.40 254.13L85.76 255.68ZM105.80 256.05L104.38 250.24L99.01 248.70L95.07 252.96L96.49 258.76L101.85 260.31ZM96.49 258.76L95.07 252.96L89.70 251.41L85.76 255.68L87.18 261.48L92.54 263.02ZM178.75 206.84L177.34 201.02L171.95 199.46L167.98 203.73L169.40 209.55L174.78 211.11ZM169.40 209.55L167.98 203.73L162.60 202.17L158.64 206.44L160.05 212.26L165.43 213.82ZM181.31 196.75L179.89 190.93L174.51 189.37L170.54 193.64L171.95 199.46L177.34 201.02ZM186.43 176.56L185.01 170.73L179.63 169.17L175.65 173.45L177.07 179.27L182.45 180.83ZM177.07 179.27L175.65 173.45L170.26 171.89L166.29 176.16L167.71 181.99L173.09 183.54ZM193.23 183.95L191.82 178.12L186.43 176.56L182.45 180.83L183.87 186.66L189.25 188.22ZM183.87 186.66L182.45 180.83L177.07 179.27L173.09 183.54L174.51 189.37L179.89 190.93ZM182.11 261.92L180.70 256.11L175.32 254.55L171.36 258.80L172.77 264.62L178.14 266.18Z"/></svg>
