<svg xmlns="http://www.w3.org/2000/svg" width="256" height="256" viewBox="0 0 256 256"><path data-band="1" fill="#fde68a" fill-opacity="0.35" d="M2.27 104.84L0.84 99.06L-4.50 97.53L-8.41 101.78L-6.98 107.55L-1.64 109.08ZM4.75 94.81L3.32 89.03L-2.02 87.50L-5.93 91.75L-4.50 97.53L0.84 99.06ZM9.71 74.75L8.28 68.97L2.94 67.44L-0.97 71.69L0.46 77.47L5.80 79.00ZM0.46 77.47L-0.97 71.69L-6.31 70.16L-10.22 74.41L-8.79 80.19L-3.45 81.72ZM12.20 64.71L10.77 58.93L5.42 57.40L1.51 61.65L2.94 67.44L8.28 68.97ZM2.94 67.44L1.51 61.65L-3.83 60.12L-7.75 64.38L-6.31 70.16L-0.97 71.69ZM16.48 82.07L15.06 76.28L9.71 74.75L5.80 79.00L7.23 84.78L12.57 86.32ZM7.23 84.78L5.80 79.00L0.46 77.47L-3.45 81.72L-2.02 87.50L3.32 89.03ZM18.97 72.03L17.54 66.25L12.20 64.71L8.28 68.97L9.71 74.75L15.06 76.28ZM6.55 122.17L5.12 116.39L-0.21 114.86L-4.12 119.10L-2.69 124.88L2.64 126.41ZM9.03 112.15L7.60 106.37L2.27 104.84L-1.64 109.08L-0.21 114.86L5.12 116.39ZM13.31 129.48L11.89 123.70L6.55 122.17L2.64 126.41L4.07 132.18L9.40 133.72ZM15.79 119.46L14.37 113.68L9.03 112.15L5.12 116.39L6.55 122.17L11.89 123.70ZM20.77 99.41L19.34 93.63L14.00 92.10L10.09 96.34L11.51 102.12L16.85 103.66ZM11.51 102.12L10.09 96.34L4.75 94.81L0.84 99.06L2.27 104.84L7.60 106.37ZM23.25 89.38L21.83 83.60L16.48 82.07L12.57 86.32L14.00 92.10L19.34 93.63ZM14.00 92.10L12.57 86.32L7.23 84.78L3.32 89.03L4.75 94.81L10.09 96.34ZM27.53 106.73L26.11 100.95L20.77 99.41L16.85 103.66L18.28 109.44L23.62 110.97ZM18.28 109.44L16.85 103.66L11.51 102.12L7.60 106.37L9.03 112.15L14.37 113.68ZM30.02 96.70L28.60 90.92L23.25 89.38L19.34 93.63L20.77 99.41L26.11 100.95ZM12.88 27.26L11.45 21.47L6.10 19.94L2.18 24.20L3.62 29.99L8.96 31.52ZM3.62 29.99L2.18 24.20L-3.17 22.68L-7.08 26.94L-5.65 32.72L-0.30 34.25ZM15.37 17.21L13.94 11.42L8.59 9.89L4.67 14.15L6.10 19.94L11.45 21.47ZM6.10 19.94L4.67 14.15L-0.68 12.62L-4.60 16.89L-3.17 22.68L2.18 24.20ZM19.66 34.58L18.23 28.79L12.88 27.26L8.96 31.52L10.40 37.31L15.74 38.84ZM10.40 37.31L8.96 31.52L3.62 29.99L-0.30 34.25L1.13 40.04L6.48 41.57ZM22.16 24.53L20.73 18.74L15.37 17.21L11.45 21.47L12.88 27.26L18.23 28.79ZM27.15 4.42L25.72 -1.37L20.36 -2.90L16.43 1.36L17.87 7.16L23.22 8.69ZM17.87 7.16L16.43 1.36L11.08 -0.17L7.16 4.10L8.59 9.89L13.94 11.42ZM20.36 -2.90L18.93 -8.70L13.57 -10.23L9.65 -5.96L11.08 -0.17L16.43 1.36ZM33.93 11.75L32.50 5.96L27.15 4.42L23.22 8.69L24.65 14.48L30.00 16.01ZM24.65 14.48L23.22 8.69L17.87 7.16L13.94 11.42L15.37 17.21L20.73 18.74ZM36.43 1.69L35.00 -4.10L29.64 -5.64L25.72 -1.37L27.15 4.42L32.50 5.96ZM1.80 2.57L0.37 -3.23L-4.98 -4.75L-8.90 -0.49L-7.47 5.31L-2.12 6.83ZM8.59 9.89L7.16 4.10L1.80 2.57L-2.12 6.83L-0.68 12.62L4.67 14.15ZM11.08 -0.17L9.65 -5.96L4.29 -7.49L0.37 -3.23L1.80 2.57L7.16 4.10ZM23.95 51.95L22.52 46.16L17.17 44.63L13.26 48.89L14.69 54.67L20.03 56.21ZM14.69 54.67L13.26 48.89L7.91 47.36L3.99 51.61L5.42 57.40L10.77 58.93ZM26.44 41.91L25.01 36.12L19.66 34.58L15.74 38.84L17.17 44.63L22.52 46.16ZM17.17 44.63L15.74 38.84L10.40 37.31L6.48 41.57L7.91 47.36L13.26 48.89ZM30.73 59.28L29.30 53.49L23.95 51.95L20.03 56.21L21.46 61.99L26.81 63.53ZM21.46 61.99L20.03 56.21L14.69 54.67L10.77 58.93L12.20 64.71L17.54 66.25ZM33.22 49.23L31.79 43.44L26.44 41.91L22.52 46.16L23.95 51.95L29.30 53.49ZM1.13 40.04L-0.30 34.25L-5.65 32.72L-9.56 36.98L-8.13 42.77L-2.78 44.30ZM5.42 57.40L3.99 51.61L-1.35 50.08L-5.27 54.34L-3.83 60.12L1.51 61.65ZM7.91 47.36L6.48 41.57L1.13 40.04L-2.78 44.30L-1.35 50.08L3.99 51.61ZM38.21 29.14L36.79 23.34L31.43 21.81L27.51 26.07L28.94 31.86L34.29 33.39ZM28.94 31.86L27.51 26.07L22.16 24.53L18.23 28.79L19.66 34.58L25.01 36.12ZM40.71 19.08L39.29 13.29L33.93 11.75L30.00 16.01L31.43 21.81L36.79 23.34ZM31.43 21.81L30.00 16.01L24.65 14.48L20.73 18.74L22.16 24.53L27.51 26.07ZM44.99 36.47L43.57 30.67L38.21 29.14L34.29 33.39L35.72 39.19L41.07 40.72ZM35.72 39.19L34.29 33.39L28.94 31.86L25.01 36.12L26.44 41.91L31.79 43.44ZM47.50 26.41L46.07 20.62L40.71 19.08L36.79 23.34L38.21 29.14L43.57 30.67ZM42.83 148.72L41.41 142.94L36.08 141.40L32.16 145.64L33.59 151.41L38.92 152.95ZM33.59 151.41L32.16 145.64L26.83 144.10L22.92 148.34L24.35 154.11L29.68 155.65ZM45.33 138.70L43.90 132.92L38.57 131.38L34.65 135.62L36.08 141.40L41.41 142.94ZM49.59 156.04L48.17 150.26L42.83 148.72L38.92 152.95L40.34 158.73L45.68 160.27ZM40.34 158.73L38.92 152.95L33.59 151.41L29.68 155.65L31.10 161.42L36.43 162.96ZM52.08 146.02L50.66 140.24L45.33 138.70L41.41 142.94L42.83 148.72L48.17 150.26ZM24.35 154.11L22.92 148.34L17.59 146.80L13.68 151.04L15.11 156.81L20.44 158.35ZM63.84 133.31L62.42 127.53L57.08 125.99L53.16 130.23L54.58 136.01L59.92 137.55ZM54.58 136.01L53.16 130.23L47.82 128.69L43.90 132.92L45.33 138.70L50.66 140.24ZM31.81 124.07L30.38 118.29L25.04 116.75L21.13 120.99L22.56 126.77L27.89 128.31ZM22.56 126.77L21.13 120.99L15.79 119.46L11.89 123.70L13.31 129.48L18.65 131.01ZM34.30 114.05L32.87 108.27L27.53 106.73L23.62 110.97L25.04 116.75L30.38 118.29ZM25.04 116.75L23.62 110.97L18.28 109.44L14.37 113.68L15.79 119.46L21.13 120.99ZM53.85 173.36L52.43 167.59L47.10 166.04L43.19 170.28L44.61 176.05L49.94 177.59ZM56.34 163.36L54.93 157.58L49.59 156.04L45.68 160.27L47.10 166.04L52.43 167.59ZM47.10 166.04L45.68 160.27L40.34 158.73L36.43 162.96L37.85 168.74L43.19 170.28ZM31.10 161.42L29.68 155.65L24.35 154.11L20.44 158.35L21.86 164.12L27.19 165.66ZM37.85 168.74L36.43 162.96L31.10 161.42L27.19 165.66L28.62 171.43L33.95 172.97ZM58.84 153.34L57.42 147.57L52.08 146.02L48.17 150.26L49.59 156.04L54.93 157.58ZM61.34 143.33L59.92 137.55L54.58 136.01L50.66 140.24L52.08 146.02L57.42 147.57ZM77.36 147.97L75.94 142.19L70.60 140.64L66.68 144.87L68.10 150.65L73.43 152.20ZM51.04 81.25L49.62 75.46L44.27 73.92L40.35 78.17L41.78 83.96L47.12 85.50ZM53.54 71.21L52.12 65.42L46.77 63.89L42.85 68.14L44.27 73.92L49.62 75.46ZM35.01 76.64L33.58 70.85L28.23 69.31L24.32 73.57L25.74 79.35L31.09 80.89ZM25.74 79.35L24.32 73.57L18.97 72.03L15.06 76.28L16.48 82.07L21.83 83.60ZM37.50 66.60L36.07 60.81L30.73 59.28L26.81 63.53L28.23 69.31L33.58 70.85ZM28.23 69.31L26.81 63.53L21.46 61.99L17.54 66.25L18.97 72.03L24.32 73.57ZM41.78 83.96L40.35 78.17L35.01 76.64L31.09 80.89L32.51 86.67L37.86 88.21ZM32.51 86.67L31.09 80.89L25.74 79.35L21.83 83.60L23.25 89.38L28.60 90.92ZM44.27 73.92L42.85 68.14L37.50 66.60L33.58 70.85L35.01 76.64L40.35 78.17ZM65.33 58.46L63.90 52.67L58.55 51.13L54.62 55.38L56.05 61.17L61.40 62.71ZM67.83 48.42L66.41 42.62L61.06 41.08L57.13 45.33L58.55 51.13L63.90 52.67ZM49.27 53.84L47.85 48.05L42.49 46.51L38.57 50.77L40.00 56.56L45.35 58.10ZM40.00 56.56L38.57 50.77L33.22 49.23L29.30 53.49L30.73 59.28L36.07 60.81ZM51.77 43.80L50.35 38.00L44.99 36.47L41.07 40.72L42.49 46.51L47.85 48.05ZM42.49 46.51L41.07 40.72L35.72 39.19L31.79 43.44L33.22 49.23L38.57 50.77ZM46.77 63.89L45.35 58.10L40.00 56.56L36.07 60.81L37.50 66.60L42.85 68.14ZM58.55 51.13L57.13 45.33L51.77 43.80L47.85 48.05L49.27 53.84L54.62 55.38ZM62.08 105.94L60.66 100.15L55.31 98.61L51.39 102.86L52.81 108.64L58.16 110.18ZM46.05 101.32L44.62 95.53L39.28 93.99L35.36 98.24L36.79 104.02L42.13 105.56ZM36.79 104.02L35.36 98.24L30.02 96.70L26.11 100.95L27.53 106.73L32.87 108.27ZM48.55 91.28L47.12 85.50L41.78 83.96L37.86 88.21L39.28 93.99L44.62 95.53ZM39.28 93.99L37.86 88.21L32.51 86.67L28.60 90.92L30.02 96.70L35.36 98.24ZM52.81 108.64L51.39 102.86L46.05 101.32L42.13 105.56L43.55 111.34L48.89 112.88ZM43.55 111.34L42.13 105.56L36.79 104.02L32.87 108.27L34.30 114.05L39.64 115.58ZM55.31 98.61L53.89 92.82L48.55 91.28L44.62 95.53L46.05 101.32L51.39 102.86ZM77.88 8.20L76.46 2.39L71.09 0.85L67.16 5.11L68.58 10.92L73.94 12.46ZM68.58 10.92L67.16 5.11L61.80 3.58L57.86 7.84L59.29 13.64L64.65 15.18ZM80.40 -1.87L78.97 -7.67L73.61 -9.21L69.67 -4.95L71.09 0.85L76.46 2.39ZM71.09 0.85L69.67 -4.95L64.31 -6.49L60.37 -2.23L61.80 3.58L67.16 5.11ZM75.37 18.26L73.94 12.46L68.58 10.92L64.65 15.18L66.07 20.97L71.43 22.51ZM52.50 6.30L51.08 0.50L45.72 -1.04L41.79 3.23L43.22 9.02L48.57 10.56ZM43.22 9.02L41.79 3.23L36.43 1.69L32.50 5.96L33.93 11.75L39.29 13.29ZM55.01 -3.76L53.58 -9.56L48.22 -11.10L44.29 -6.84L45.72 -1.04L51.08 0.50ZM45.72 -1.04L44.29 -6.84L38.93 -8.37L35.00 -4.10L36.43 1.69L41.79 3.23ZM59.29 13.64L57.86 7.84L52.50 6.30L48.57 10.56L50.00 16.36L55.36 17.90ZM50.00 16.36L48.57 10.56L43.22 9.02L39.29 13.29L40.71 19.08L46.07 20.62ZM61.80 3.58L60.37 -2.23L55.01 -3.76L51.08 0.50L52.50 6.30L57.86 7.84ZM63.56 31.03L62.14 25.23L56.78 23.69L52.85 27.95L54.28 33.75L59.63 35.29ZM54.28 33.75L52.85 27.95L47.50 26.41L43.57 30.67L44.99 36.47L50.35 38.00ZM66.07 20.97L64.65 15.18L59.29 13.64L55.36 17.90L56.78 23.69L62.14 25.23ZM56.78 23.69L55.36 17.90L50.00 16.36L46.07 20.62L47.50 26.41L52.85 27.95ZM70.34 38.37L68.92 32.57L63.56 31.03L59.63 35.29L61.06 41.08L66.41 42.62ZM61.06 41.08L59.63 35.29L54.28 33.75L50.35 38.00L51.77 43.80L57.13 45.33ZM72.85 28.31L71.43 22.51L66.07 20.97L62.14 25.23L63.56 31.03L68.92 32.57ZM86.82 247.26L85.41 241.49L80.09 239.94L76.18 244.16L77.59 249.92L82.91 251.48ZM96.06 244.60L94.65 238.83L89.33 237.28L85.41 241.49L86.82 247.26L92.15 248.81ZM64.85 198.00L63.44 192.23L58.11 190.68L54.19 194.91L55.61 200.68L60.94 202.23ZM55.61 200.68L54.19 194.91L48.87 193.37L44.96 197.59L46.38 203.36L51.70 204.91ZM58.11 190.68L56.69 184.91L51.36 183.37L47.45 187.59L48.87 193.37L54.19 194.91ZM66.61 225.31L65.19 219.54L59.86 217.99L55.96 222.21L57.37 227.98L62.70 229.53ZM39.63 196.05L38.21 190.28L32.88 188.74L28.98 192.97L30.40 198.74L35.72 200.28ZM48.87 193.37L47.45 187.59L42.12 186.05L38.21 190.28L39.63 196.05L44.96 197.59ZM84.11 155.30L82.69 149.51L77.36 147.97L73.43 152.20L74.85 157.98L80.19 159.53Z"/><path data-band="2" fill="#f97316" fill-opacity="0.35" d="M210.14 -2.15L208.73 -7.97L203.35 -9.54L199.38 -5.28L200.79 0.54L206.17 2.10ZM226.28 2.55L224.87 -3.27L219.49 -4.84L215.52 -0.58L216.92 5.24L222.30 6.80ZM216.92 5.24L215.52 -0.58L210.14 -2.15L206.17 2.10L207.57 7.92L212.95 9.49ZM184.66 -4.15L183.25 -9.97L177.87 -11.53L173.91 -7.27L175.32 -1.45L180.70 0.11ZM200.79 0.54L199.38 -5.28L194.00 -6.84L190.04 -2.59L191.45 3.23L196.82 4.79ZM191.45 3.23L190.04 -2.59L184.66 -4.15L180.70 0.11L182.11 5.92L187.48 7.48ZM255.98 22.06L254.58 16.23L249.20 14.66L245.22 18.91L246.62 24.73L252.00 26.31ZM246.62 24.73L245.22 18.91L239.84 17.34L235.87 21.59L237.27 27.41L242.65 28.98ZM258.56 11.98L257.16 6.16L251.78 4.58L247.80 8.84L249.20 14.66L254.58 16.23ZM249.20 14.66L247.80 8.84L242.42 7.26L238.44 11.51L239.84 17.34L245.22 18.91ZM262.76 29.46L261.36 23.63L255.98 22.06L252.00 26.31L253.40 32.13L258.78 33.70ZM253.40 32.13L252.00 26.31L246.62 24.73L242.65 28.98L244.05 34.80L249.42 36.37ZM265.35 19.39L263.95 13.56L258.56 11.98L254.58 16.23L255.98 22.06L261.36 23.63ZM230.49 20.01L229.09 14.19L223.71 12.62L219.73 16.88L221.14 22.69L226.52 24.26ZM221.14 22.69L219.73 16.88L214.36 15.31L210.39 19.56L211.79 25.38L217.17 26.94ZM233.06 9.94L231.66 4.12L226.28 2.55L222.30 6.80L223.71 12.62L229.09 14.19ZM223.71 12.62L222.30 6.80L216.92 5.24L212.95 9.49L214.36 15.31L219.73 16.88ZM237.27 27.41L235.87 21.59L230.49 20.01L226.52 24.26L227.92 30.08L233.29 31.65ZM227.92 30.08L226.52 24.26L221.14 22.69L217.17 26.94L218.57 32.76L223.95 34.33ZM239.84 17.34L238.44 11.51L233.06 9.94L229.09 14.19L230.49 20.01L235.87 21.59ZM261.15 1.91L259.75 -3.92L254.36 -5.49L250.38 -1.24L251.78 4.58L257.16 6.16ZM245.00 -2.81L243.59 -8.64L238.21 -10.21L234.23 -5.96L235.64 -0.13L241.02 1.44ZM235.64 -0.13L234.23 -5.96L228.85 -7.53L224.87 -3.27L226.28 2.55L231.66 4.12ZM251.78 4.58L250.38 -1.24L245.00 -2.81L241.02 1.44L242.42 7.26L247.80 8.84ZM242.42 7.26L241.02 1.44L235.64 -0.13L231.66 4.12L233.06 9.94L238.44 11.51ZM257.60 49.59L256.20 43.77L250.82 42.19L246.85 46.44L248.25 52.26L253.62 53.83ZM260.18 39.52L258.78 33.70L253.40 32.13L249.42 36.37L250.82 42.19L256.20 43.77ZM264.37 56.99L262.98 51.17L257.60 49.59L253.62 53.83L255.02 59.65L260.40 61.23ZM241.47 44.86L240.07 39.05L234.70 37.47L230.72 41.72L232.13 47.54L237.50 49.11ZM232.13 47.54L230.72 41.72L225.35 40.15L221.38 44.39L222.78 50.21L228.15 51.78ZM244.05 34.80L242.65 28.98L237.27 27.41L233.29 31.65L234.70 37.47L240.07 39.05ZM234.70 37.47L233.29 31.65L227.92 30.08L223.95 34.33L225.35 40.15L230.72 41.72ZM248.25 52.26L246.85 46.44L241.47 44.86L237.50 49.11L238.90 54.92L244.27 56.50ZM238.90 54.92L237.50 49.11L232.13 47.54L228.15 51.78L229.56 57.59L234.93 59.17ZM250.82 42.19L249.42 36.37L244.05 34.80L240.07 39.05L241.47 44.86L246.85 46.44ZM4.07 132.18L2.64 126.41L-2.69 124.88L-6.59 129.12L-5.16 134.89L0.17 136.43ZM36.08 141.40L34.65 135.62L29.32 134.09L25.41 138.32L26.83 144.10L32.16 145.64ZM17.59 146.80L16.16 141.03L10.83 139.49L6.93 143.73L8.35 149.50L13.68 151.04ZM8.35 149.50L6.93 143.73L1.59 142.20L-2.31 146.44L-0.88 152.21L4.45 153.74ZM20.07 136.79L18.65 131.01L13.31 129.48L9.40 133.72L10.83 139.49L16.16 141.03ZM10.83 139.49L9.40 133.72L4.07 132.18L0.17 136.43L1.59 142.20L6.93 143.73ZM15.11 156.81L13.68 151.04L8.35 149.50L4.45 153.74L5.87 159.51L11.20 161.05ZM26.83 144.10L25.41 138.32L20.07 136.79L16.16 141.03L17.59 146.80L22.92 148.34ZM57.08 125.99L55.66 120.21L50.32 118.66L46.40 122.91L47.82 128.69L53.16 130.23ZM47.82 128.69L46.40 122.91L41.06 121.37L37.14 125.61L38.57 131.38L43.90 132.92ZM59.58 115.96L58.16 110.18L52.81 108.64L48.89 112.88L50.32 118.66L55.66 120.21ZM50.32 118.66L48.89 112.88L43.55 111.34L39.64 115.58L41.06 121.37L46.40 122.91ZM66.34 123.29L64.92 117.51L59.58 115.96L55.66 120.21L57.08 125.99L62.42 127.53ZM38.57 131.38L37.14 125.61L31.81 124.07L27.89 128.31L29.32 134.09L34.65 135.62ZM29.32 134.09L27.89 128.31L22.56 126.77L18.65 131.01L20.07 136.79L25.41 138.32ZM41.06 121.37L39.64 115.58L34.30 114.05L30.38 118.29L31.81 124.07L37.14 125.61ZM44.61 176.05L43.19 170.28L37.85 168.74L33.95 172.97L35.37 178.74L40.70 180.28ZM60.60 180.68L59.18 174.91L53.85 173.36L49.94 177.59L51.36 183.37L56.69 184.91ZM51.36 183.37L49.94 177.59L44.61 176.05L40.70 180.28L42.12 186.05L47.45 187.59ZM63.10 170.68L61.68 164.90L56.34 163.36L52.43 167.59L53.85 173.36L59.18 174.91ZM28.62 171.43L27.19 165.66L21.86 164.12L17.96 168.35L19.38 174.12L24.71 175.66ZM19.38 174.12L17.96 168.35L12.63 166.82L8.73 171.05L10.15 176.82L15.48 178.35ZM21.86 164.12L20.44 158.35L15.11 156.81L11.20 161.05L12.63 166.82L17.96 168.35ZM35.37 178.74L33.95 172.97L28.62 171.43L24.71 175.66L26.13 181.43L31.46 182.97ZM26.13 181.43L24.71 175.66L19.38 174.12L15.48 178.35L16.90 184.12L22.23 185.66ZM68.10 150.65L66.68 144.87L61.34 143.33L57.42 147.57L58.84 153.34L64.18 154.89ZM70.60 140.64L69.18 134.86L63.84 133.31L59.92 137.55L61.34 143.33L66.68 144.87ZM74.85 157.98L73.43 152.20L68.10 150.65L64.18 154.89L65.60 160.67L70.93 162.21ZM65.60 160.67L64.18 154.89L58.84 153.34L54.93 157.58L56.34 163.36L61.68 164.90ZM1.59 142.20L0.17 136.43L-5.16 134.89L-9.07 139.13L-7.64 144.90L-2.31 146.44ZM3.40 169.52L1.97 163.75L-3.36 162.21L-7.26 166.45L-5.83 172.22L-0.50 173.75ZM5.87 159.51L4.45 153.74L-0.88 152.21L-4.78 156.44L-3.36 162.21L1.97 163.75ZM10.15 176.82L8.73 171.05L3.40 169.52L-0.50 173.75L0.92 179.52L6.25 181.05ZM0.92 179.52L-0.50 173.75L-5.83 172.22L-9.73 176.45L-8.30 182.21L-2.98 183.75ZM12.63 166.82L11.20 161.05L5.87 159.51L1.97 163.75L3.40 169.52L8.73 171.05ZM60.32 78.54L58.89 72.75L53.54 71.21L49.62 75.46L51.04 81.25L56.39 82.79ZM62.82 68.50L61.40 62.71L56.05 61.17L52.12 65.42L53.54 71.21L58.89 72.75ZM67.09 85.87L65.66 80.09L60.32 78.54L56.39 82.79L57.81 88.58L63.16 90.12ZM57.81 88.58L56.39 82.79L51.04 81.25L47.12 85.50L48.55 91.28L53.89 92.82ZM69.59 75.84L68.17 70.05L62.82 68.50L58.89 72.75L60.32 78.54L65.66 80.09ZM74.61 55.75L73.19 49.96L67.83 48.42L63.90 52.67L65.33 58.46L70.68 60.00ZM77.12 45.71L75.70 39.91L70.34 38.37L66.41 42.62L67.83 48.42L73.19 49.96ZM81.38 63.09L79.96 57.30L74.61 55.75L70.68 60.00L72.10 65.80L77.45 67.34ZM72.10 65.80L70.68 60.00L65.33 58.46L61.40 62.71L62.82 68.50L68.17 70.05ZM83.90 53.05L82.48 47.25L77.12 45.71L73.19 49.96L74.61 55.75L79.96 57.30ZM56.05 61.17L54.62 55.38L49.27 53.84L45.35 58.10L46.77 63.89L52.12 65.42ZM71.35 103.24L69.93 97.45L64.58 95.91L60.66 100.15L62.08 105.94L67.42 107.48ZM73.85 93.21L72.43 87.42L67.09 85.87L63.16 90.12L64.58 95.91L69.93 97.45ZM64.58 95.91L63.16 90.12L57.81 88.58L53.89 92.82L55.31 98.61L60.66 100.15ZM78.11 110.57L76.69 104.78L71.35 103.24L67.42 107.48L68.84 113.27L74.19 114.81ZM68.84 113.27L67.42 107.48L62.08 105.94L58.16 110.18L59.58 115.96L64.92 117.51ZM80.62 100.54L79.20 94.75L73.85 93.21L69.93 97.45L71.35 103.24L76.69 104.78ZM85.64 80.47L84.22 74.68L78.87 73.13L74.94 77.38L76.36 83.17L81.71 84.72ZM76.36 83.17L74.94 77.38L69.59 75.84L65.66 80.09L67.09 85.87L72.43 87.42ZM88.16 70.43L86.74 64.64L81.38 63.09L77.45 67.34L78.87 73.13L84.22 74.68ZM78.87 73.13L77.45 67.34L72.10 65.80L68.17 70.05L69.59 75.84L74.94 77.38ZM92.41 87.81L90.99 82.02L85.64 80.47L81.71 84.72L83.13 90.51L88.48 92.05ZM83.13 90.51L81.71 84.72L76.36 83.17L72.43 87.42L73.85 93.21L79.20 94.75ZM94.93 77.77L93.51 71.98L88.16 70.43L84.22 74.68L85.64 80.47L90.99 82.02ZM149.87 -3.42L148.45 -9.24L143.08 -10.79L139.12 -6.53L140.54 -0.72L145.91 0.83ZM140.54 -0.72L139.12 -6.53L133.75 -8.08L129.80 -3.82L131.22 1.99L136.59 3.54ZM115.11 -2.66L113.69 -8.47L108.32 -10.02L104.38 -5.76L105.80 0.05L111.16 1.60ZM154.11 14.01L152.69 8.20L147.32 6.65L143.37 10.90L144.78 16.71L150.15 18.27ZM144.78 16.71L143.37 10.90L138.00 9.35L134.05 13.60L135.46 19.41L140.83 20.97ZM156.65 3.94L155.24 -1.87L149.87 -3.42L145.91 0.83L147.32 6.65L152.69 8.20ZM147.32 6.65L145.91 0.83L140.54 -0.72L136.59 3.54L138.00 9.35L143.37 10.90ZM160.89 21.38L159.48 15.57L154.11 14.01L150.15 18.27L151.57 24.08L156.93 25.63ZM151.57 24.08L150.15 18.27L144.78 16.71L140.83 20.97L142.25 26.77L147.61 28.33ZM163.44 11.31L162.02 5.50L156.65 3.94L152.69 8.20L154.11 14.01L159.48 15.57ZM128.68 12.05L127.27 6.24L121.90 4.69L117.95 8.95L119.37 14.76L124.73 16.31ZM119.37 14.76L117.95 8.95L112.58 7.40L108.64 11.66L110.06 17.47L115.42 19.01ZM131.22 1.99L129.80 -3.82L124.43 -5.37L120.48 -1.11L121.90 4.69L127.27 6.24ZM121.90 4.69L120.48 -1.11L115.11 -2.66L111.16 1.60L112.58 7.40L117.95 8.95ZM135.46 19.41L134.05 13.60L128.68 12.05L124.73 16.31L126.15 22.12L131.51 23.67ZM126.15 22.12L124.73 16.31L119.37 14.76L115.42 19.01L116.84 24.82L122.20 26.37ZM138.00 9.35L136.59 3.54L131.22 1.99L127.27 6.24L128.68 12.05L134.05 13.60ZM175.32 -1.45L173.91 -7.27L168.53 -8.83L164.57 -4.57L165.98 1.24L171.36 2.80ZM165.98 1.24L164.57 -4.57L159.20 -6.13L155.24 -1.87L156.65 3.94L162.02 5.50ZM84.66 15.54L83.24 9.74L77.88 8.20L73.94 12.46L75.37 18.26L80.73 19.80ZM87.18 5.48L85.76 -0.32L80.40 -1.87L76.46 2.39L77.88 8.20L83.24 9.74ZM88.93 32.94L87.51 27.14L82.15 25.60L78.21 29.86L79.63 35.65L84.99 37.20ZM79.63 35.65L78.21 29.86L72.85 28.31L68.92 32.57L70.34 38.37L75.70 39.91ZM91.45 22.89L90.02 17.08L84.66 15.54L80.73 19.80L82.15 25.60L87.51 27.14ZM82.15 25.60L80.73 19.80L75.37 18.26L71.43 22.51L72.85 28.31L78.21 29.86ZM95.71 40.29L94.29 34.49L88.93 32.94L84.99 37.20L86.41 43.00L91.77 44.54ZM86.41 43.00L84.99 37.20L79.63 35.65L75.70 39.91L77.12 45.71L82.48 47.25ZM98.23 30.23L96.81 24.43L91.45 22.89L87.51 27.14L88.93 32.94L94.29 34.49ZM103.27 10.11L101.85 4.31L96.49 2.76L92.54 7.02L93.97 12.83L99.33 14.37ZM93.97 12.83L92.54 7.02L87.18 5.48L83.24 9.74L84.66 15.54L90.02 17.08ZM105.80 0.05L104.38 -5.76L99.01 -7.30L95.07 -3.04L96.49 2.76L101.85 4.31ZM96.49 2.76L95.07 -3.04L89.70 -4.59L85.76 -0.32L87.18 5.48L92.54 7.02ZM110.06 17.47L108.64 11.66L103.27 10.11L99.33 14.37L100.75 20.18L106.11 21.72ZM100.75 20.18L99.33 14.37L93.97 12.83L90.02 17.08L91.45 22.89L96.81 24.43ZM112.58 7.40L111.16 1.60L105.80 0.05L101.85 4.31L103.27 10.11L108.64 11.66ZM263.72 261.72L262.33 255.93L256.98 254.35L253.03 258.55L254.42 264.34L259.76 265.93ZM266.28 251.73L264.89 245.94L259.55 244.35L255.59 248.56L256.98 254.35L262.33 255.93ZM256.98 254.35L255.59 248.56L250.25 246.98L246.30 251.18L247.69 256.97L253.03 258.55ZM238.40 259.59L237.00 253.81L231.66 252.23L227.72 256.44L229.11 262.22L234.45 263.80ZM229.11 262.22L227.72 256.44L222.38 254.86L218.43 259.06L219.83 264.85L225.16 266.43ZM240.95 249.60L239.56 243.81L234.22 242.23L230.27 246.44L231.66 252.23L237.00 253.81ZM231.66 252.23L230.27 246.44L224.93 244.86L220.98 249.07L222.38 254.86L227.72 256.44ZM247.69 256.97L246.30 251.18L240.95 249.60L237.00 253.81L238.40 259.59L243.74 261.18ZM257.94 216.97L256.55 211.18L251.20 209.59L247.24 213.81L248.63 219.60L253.98 221.18ZM260.51 206.96L259.12 201.17L253.76 199.58L249.81 203.80L251.20 209.59L256.55 211.18ZM264.68 224.35L263.29 218.55L257.94 216.97L253.98 221.18L255.37 226.98L260.72 228.56ZM241.89 212.23L240.50 206.43L235.15 204.86L231.20 209.07L232.59 214.86L237.94 216.44ZM232.59 214.86L231.20 209.07L225.85 207.49L221.90 211.71L223.29 217.50L228.64 219.08ZM244.46 202.22L243.06 196.42L237.71 194.84L233.75 199.06L235.15 204.86L240.50 206.43ZM235.15 204.86L233.75 199.06L228.41 197.48L224.45 201.70L225.85 207.49L231.20 209.07ZM248.63 219.60L247.24 213.81L241.89 212.23L237.94 216.44L239.33 222.23L244.68 223.81ZM239.33 222.23L237.94 216.44L232.59 214.86L228.64 219.08L230.04 224.87L235.38 226.45ZM251.20 209.59L249.81 203.80L244.46 202.22L240.50 206.43L241.89 212.23L247.24 213.81ZM256.33 189.57L254.94 183.77L249.58 182.19L245.62 186.41L247.02 192.21L252.37 193.79ZM247.02 192.21L245.62 186.41L240.27 184.83L236.31 189.05L237.71 194.84L243.06 196.42ZM258.90 179.55L257.51 173.75L252.15 172.17L248.19 176.39L249.58 182.19L254.94 183.77ZM249.58 182.19L248.19 176.39L242.84 174.81L238.88 179.03L240.27 184.83L245.62 186.41ZM263.08 196.95L261.69 191.15L256.33 189.57L252.37 193.79L253.76 199.58L259.12 201.17ZM253.76 199.58L252.37 193.79L247.02 192.21L243.06 196.42L244.46 202.22L249.81 203.80ZM265.65 186.93L264.26 181.13L258.90 179.55L254.94 183.77L256.33 189.57L261.69 191.15ZM252.81 236.98L251.42 231.19L246.07 229.60L242.12 233.82L243.51 239.60L248.86 241.19ZM243.51 239.60L242.12 233.82L236.77 232.24L232.82 236.45L234.22 242.23L239.56 243.81ZM255.37 226.98L253.98 221.18L248.63 219.60L244.68 223.81L246.07 229.60L251.42 231.19ZM246.07 229.60L244.68 223.81L239.33 222.23L235.38 226.45L236.77 232.24L242.12 233.82ZM259.55 244.35L258.16 238.56L252.81 236.98L248.86 241.19L250.25 246.98L255.59 248.56ZM250.25 246.98L248.86 241.19L243.51 239.60L239.56 243.81L240.95 249.60L246.30 251.18ZM262.11 234.35L260.72 228.56L255.37 226.98L251.42 231.19L252.81 236.98L258.16 238.56ZM202.17 232.78L200.77 226.99L195.43 225.42L191.49 229.63L192.88 235.42L198.22 236.99ZM192.88 235.42L191.49 229.63L186.15 228.06L182.21 232.28L183.61 238.06L188.95 239.63ZM204.71 222.78L203.31 216.99L197.97 215.42L194.03 219.63L195.43 225.42L200.77 226.99ZM195.43 225.42L194.03 219.63L188.69 218.06L184.75 222.28L186.15 228.06L191.49 229.63ZM208.90 240.14L207.51 234.35L202.17 232.78L198.22 236.99L199.62 242.77L204.96 244.35ZM199.62 242.77L198.22 236.99L192.88 235.42L188.95 239.63L190.34 245.41L195.68 246.98ZM211.45 230.14L210.05 224.35L204.71 222.78L200.77 226.99L202.17 232.78L207.51 234.35ZM176.87 230.71L175.47 224.92L170.13 223.36L166.19 227.57L167.60 233.35L172.93 234.92ZM167.60 233.35L166.19 227.57L160.86 226.01L156.92 230.22L158.33 236.00L163.66 237.57ZM179.40 220.71L178.00 214.93L172.66 213.36L168.73 217.57L170.13 223.36L175.47 224.92ZM170.13 223.36L168.73 217.57L163.39 216.01L159.45 220.23L160.86 226.01L166.19 227.57ZM183.61 238.06L182.21 232.28L176.87 230.71L172.93 234.92L174.33 240.70L179.67 242.27ZM174.33 240.70L172.93 234.92L167.60 233.35L163.66 237.57L165.06 243.35L170.40 244.91ZM186.15 228.06L184.75 222.28L179.40 220.71L175.47 224.92L176.87 230.71L182.21 232.28ZM216.55 210.13L215.15 204.34L209.81 202.77L205.86 206.99L207.26 212.78L212.60 214.35ZM207.26 212.78L205.86 206.99L200.52 205.41L196.57 209.63L197.97 215.42L203.31 216.99ZM219.10 200.13L217.71 194.33L212.36 192.76L208.41 196.98L209.81 202.77L215.15 204.34ZM209.81 202.77L208.41 196.98L203.06 195.41L199.12 199.62L200.52 205.41L205.86 206.99ZM223.29 217.50L221.90 211.71L216.55 210.13L212.60 214.35L214.00 220.14L219.35 221.71ZM214.00 220.14L212.60 214.35L207.26 212.78L203.31 216.99L204.71 222.78L210.05 224.35ZM225.85 207.49L224.45 201.70L219.10 200.13L215.15 204.34L216.55 210.13L221.90 211.71ZM191.23 208.06L189.83 202.27L184.48 200.70L180.54 204.92L181.94 210.71L187.28 212.28ZM181.94 210.71L180.54 204.92L175.20 203.35L171.26 207.57L172.66 213.36L178.00 214.93ZM193.77 198.05L192.37 192.26L187.02 190.70L183.08 194.92L184.48 200.70L189.83 202.27ZM184.48 200.70L183.08 194.92L177.74 193.35L173.80 197.57L175.20 203.35L180.54 204.92ZM197.97 215.42L196.57 209.63L191.23 208.06L187.28 212.28L188.69 218.06L194.03 219.63ZM188.69 218.06L187.28 212.28L181.94 210.71L178.00 214.93L179.40 220.71L184.75 222.28ZM200.52 205.41L199.12 199.62L193.77 198.05L189.83 202.27L191.23 208.06L196.57 209.63ZM213.09 257.49L211.70 251.70L206.36 250.13L202.42 254.34L203.81 260.12L209.15 261.69ZM203.81 260.12L202.42 254.34L197.08 252.76L193.14 256.97L194.54 262.75L199.87 264.33ZM215.64 247.50L214.24 241.71L208.90 240.14L204.96 244.35L206.36 250.13L211.70 251.70ZM206.36 250.13L204.96 244.35L199.62 242.77L195.68 246.98L197.08 252.76L202.42 254.34ZM222.38 254.86L220.98 249.07L215.64 247.50L211.70 251.70L213.09 257.49L218.43 259.06ZM187.81 255.40L186.41 249.62L181.07 248.05L177.14 252.26L178.54 258.04L183.87 259.61ZM178.54 258.04L177.14 252.26L171.80 250.69L167.87 254.90L169.27 260.68L174.60 262.25ZM190.34 245.41L188.95 239.63L183.61 238.06L179.67 242.27L181.07 248.05L186.41 249.62ZM181.07 248.05L179.67 242.27L174.33 240.70L170.40 244.91L171.80 250.69L177.14 252.26ZM194.54 262.75L193.14 256.97L187.81 255.40L183.87 259.61L185.27 265.39L190.60 266.96ZM197.08 252.76L195.68 246.98L190.34 245.41L186.41 249.62L187.81 255.40L193.14 256.97ZM227.48 234.87L226.09 229.08L220.74 227.50L216.79 231.71L218.19 237.50L223.53 239.08ZM218.19 237.50L216.79 231.71L211.45 230.14L207.51 234.35L208.90 240.14L214.24 241.71ZM230.04 224.87L228.64 219.08L223.29 217.50L219.35 221.71L220.74 227.50L226.09 229.08ZM220.74 227.50L219.35 221.71L214.00 220.14L210.05 224.35L211.45 230.14L216.79 231.71ZM234.22 242.23L232.82 236.45L227.48 234.87L223.53 239.08L224.93 244.86L230.27 246.44ZM224.93 244.86L223.53 239.08L218.19 237.50L214.24 241.71L215.64 247.50L220.98 249.07ZM236.77 232.24L235.38 226.45L230.04 224.87L226.09 229.08L227.48 234.87L232.82 236.45ZM75.09 259.90L73.68 254.14L68.36 252.59L64.45 256.81L65.87 262.57L71.19 264.12ZM65.87 262.57L64.45 256.81L59.13 255.26L55.23 259.47L56.64 265.23L61.96 266.78ZM49.91 257.93L48.49 252.16L43.17 250.62L39.27 254.84L40.69 260.60L46.01 262.14ZM40.69 260.60L39.27 254.84L33.95 253.29L30.05 257.51L31.47 263.27L36.79 264.81ZM77.59 249.92L76.18 244.16L70.85 242.61L66.94 246.82L68.36 252.59L73.68 254.14ZM89.33 237.28L87.91 231.51L82.59 229.95L78.67 234.17L80.09 239.94L85.41 241.49ZM80.09 239.94L78.67 234.17L73.35 232.62L69.44 236.84L70.85 242.61L76.18 244.16ZM93.56 254.58L92.15 248.81L86.82 247.26L82.91 251.48L84.32 257.24L89.65 258.80ZM84.32 257.24L82.91 251.48L77.59 249.92L73.68 254.14L75.09 259.90L80.41 261.46ZM61.62 245.28L60.21 239.51L54.88 237.96L50.98 242.18L52.39 247.95L57.71 249.49ZM52.39 247.95L50.98 242.18L45.66 240.64L41.75 244.86L43.17 250.62L48.49 252.16ZM64.11 235.29L62.70 229.53L57.37 227.98L53.47 232.20L54.88 237.96L60.21 239.51ZM54.88 237.96L53.47 232.20L48.14 230.65L44.24 234.87L45.66 240.64L50.98 242.18ZM68.36 252.59L66.94 246.82L61.62 245.28L57.71 249.49L59.13 255.26L64.45 256.81ZM59.13 255.26L57.71 249.49L52.39 247.95L48.49 252.16L49.91 257.93L55.23 259.47ZM70.85 242.61L69.44 236.84L64.11 235.29L60.21 239.51L61.62 245.28L66.94 246.82ZM100.30 261.90L98.89 256.14L93.56 254.58L89.65 258.80L91.06 264.56L96.38 266.12ZM24.74 255.97L23.32 250.21L18.00 248.67L14.11 252.89L15.53 258.64L20.84 260.18ZM15.53 258.64L14.11 252.89L8.79 251.35L4.90 255.56L6.32 261.32L11.63 262.86ZM31.47 263.27L30.05 257.51L24.74 255.97L20.84 260.18L22.26 265.94L27.58 267.48ZM6.32 261.32L4.90 255.56L-0.41 254.03L-4.30 258.25L-2.88 264.00L2.43 265.54ZM90.09 199.97L88.68 194.20L83.35 192.65L79.43 196.87L80.85 202.65L86.18 204.20ZM80.85 202.65L79.43 196.87L74.10 195.32L70.18 199.55L71.60 205.32L76.93 206.87ZM92.60 189.97L91.19 184.19L85.85 182.64L81.93 186.87L83.35 192.65L88.68 194.20ZM83.35 192.65L81.93 186.87L76.60 185.32L72.68 189.55L74.10 195.32L79.43 196.87ZM96.84 207.30L95.43 201.52L90.09 199.97L86.18 204.20L87.59 209.97L92.92 211.52ZM87.59 209.97L86.18 204.20L80.85 202.65L76.93 206.87L78.34 212.64L83.67 214.19ZM99.35 197.30L97.94 191.52L92.60 189.97L88.68 194.20L90.09 199.97L95.43 201.52ZM67.35 188.00L65.93 182.23L60.60 180.68L56.69 184.91L58.11 190.68L63.44 192.23ZM71.60 205.32L70.18 199.55L64.85 198.00L60.94 202.23L62.36 208.00L67.69 209.54ZM62.36 208.00L60.94 202.23L55.61 200.68L51.70 204.91L53.12 210.68L58.45 212.22ZM74.10 195.32L72.68 189.55L67.35 188.00L63.44 192.23L64.85 198.00L70.18 199.55ZM104.37 177.29L102.96 171.51L97.62 169.96L93.69 174.19L95.11 179.97L100.45 181.52ZM95.11 179.97L93.69 174.19L88.36 172.64L84.44 176.87L85.85 182.64L91.19 184.19ZM106.88 167.28L105.47 161.50L100.13 159.95L96.20 164.18L97.62 169.96L102.96 171.51ZM97.62 169.96L96.20 164.18L90.87 162.63L86.94 166.86L88.36 172.64L93.69 174.19ZM111.12 184.63L109.71 178.84L104.37 177.29L100.45 181.52L101.86 187.30L107.19 188.85ZM101.86 187.30L100.45 181.52L95.11 179.97L91.19 184.19L92.60 189.97L97.94 191.52ZM113.64 174.62L112.22 168.83L106.88 167.28L102.96 171.51L104.37 177.29L109.71 178.84ZM79.10 175.32L77.69 169.54L72.35 167.99L68.43 172.22L69.85 178.00L75.18 179.55ZM69.85 178.00L68.43 172.22L63.10 170.68L59.18 174.91L60.60 180.68L65.93 182.23ZM81.61 165.31L80.19 159.53L74.85 157.98L70.93 162.21L72.35 167.99L77.69 169.54ZM72.35 167.99L70.93 162.21L65.60 160.67L61.68 164.90L63.10 170.68L68.43 172.22ZM85.85 182.64L84.44 176.87L79.10 175.32L75.18 179.55L76.60 185.32L81.93 186.87ZM76.60 185.32L75.18 179.55L69.85 178.00L65.93 182.23L67.35 188.00L72.68 189.55ZM88.36 172.64L86.94 166.86L81.61 165.31L77.69 169.54L79.10 175.32L84.44 176.87ZM101.08 224.62L99.66 218.85L94.33 217.29L90.42 221.52L91.83 227.29L97.16 228.84ZM91.83 227.29L90.42 221.52L85.09 219.96L81.17 224.18L82.59 229.95L87.91 231.51ZM103.58 214.63L102.17 208.85L96.84 207.30L92.92 211.52L94.33 217.29L99.66 218.85ZM94.33 217.29L92.92 211.52L87.59 209.97L83.67 214.19L85.09 219.96L90.42 221.52ZM107.82 231.95L106.41 226.18L101.08 224.62L97.16 228.84L98.57 234.61L103.90 236.17ZM98.57 234.61L97.16 228.84L91.83 227.29L87.91 231.51L89.33 237.28L94.65 238.83ZM110.33 221.96L108.92 216.18L103.58 214.63L99.66 218.85L101.08 224.62L106.41 226.18ZM75.85 222.63L74.43 216.86L69.10 215.31L65.19 219.54L66.61 225.31L71.93 226.85ZM78.34 212.64L76.93 206.87L71.60 205.32L67.69 209.54L69.10 215.31L74.43 216.86ZM69.10 215.31L67.69 209.54L62.36 208.00L58.45 212.22L59.86 217.99L65.19 219.54ZM82.59 229.95L81.17 224.18L75.85 222.63L71.93 226.85L73.35 232.62L78.67 234.17ZM73.35 232.62L71.93 226.85L66.61 225.31L62.70 229.53L64.11 235.29L69.44 236.84ZM85.09 219.96L83.67 214.19L78.34 212.64L74.43 216.86L75.85 222.63L81.17 224.18ZM115.35 201.96L113.94 196.18L108.61 194.63L104.68 198.85L106.09 204.63L111.43 206.19ZM106.09 204.63L104.68 198.85L99.35 197.30L95.43 201.52L96.84 207.30L102.17 208.85ZM117.87 191.96L116.46 186.18L111.12 184.63L107.19 188.85L108.61 194.63L113.94 196.18ZM108.61 194.63L107.19 188.85L101.86 187.30L97.94 191.52L99.35 197.30L104.68 198.85ZM122.10 209.30L120.69 203.52L115.35 201.96L111.43 206.19L112.84 211.96L118.17 213.52ZM112.84 211.96L111.43 206.19L106.09 204.63L102.17 208.85L103.58 214.63L108.92 216.18ZM124.62 199.30L123.21 193.52L117.87 191.96L113.94 196.18L115.35 201.96L120.69 203.52ZM25.43 218.72L24.01 212.95L18.69 211.42L14.79 215.64L16.21 221.40L21.53 222.94ZM16.21 221.40L14.79 215.64L9.47 214.10L5.57 218.33L7.00 224.09L12.32 225.63ZM27.92 208.73L26.49 202.96L21.17 201.42L17.27 205.65L18.69 211.42L24.01 212.95ZM18.69 211.42L17.27 205.65L11.95 204.11L8.05 208.34L9.47 214.10L14.79 215.64ZM32.18 226.02L30.76 220.26L25.43 218.72L21.53 222.94L22.96 228.71L28.28 230.25ZM22.96 228.71L21.53 222.94L16.21 221.40L12.32 225.63L13.74 231.39L19.06 232.93ZM34.66 216.04L33.24 210.27L27.92 208.73L24.01 212.95L25.43 218.72L30.76 220.26ZM0.25 216.79L-1.17 211.03L-6.49 209.50L-10.38 213.72L-8.96 219.48L-3.64 221.02ZM2.73 206.80L1.30 201.04L-4.02 199.51L-7.92 203.73L-6.49 209.50L-1.17 211.03ZM7.00 224.09L5.57 218.33L0.25 216.79L-3.64 221.02L-2.22 226.78L3.10 228.31ZM9.47 214.10L8.05 208.34L2.73 206.80L-1.17 211.03L0.25 216.79L5.57 218.33ZM30.40 198.74L28.98 192.97L23.65 191.43L19.75 195.66L21.17 201.42L26.49 202.96ZM42.12 186.05L40.70 180.28L35.37 178.74L31.46 182.97L32.88 188.74L38.21 190.28ZM32.88 188.74L31.46 182.97L26.13 181.43L22.23 185.66L23.65 191.43L28.98 192.97ZM46.38 203.36L44.96 197.59L39.63 196.05L35.72 200.28L37.14 206.04L42.47 207.59ZM37.14 206.04L35.72 200.28L30.40 198.74L26.49 202.96L27.92 208.73L33.24 210.27ZM14.42 194.12L13.00 188.35L7.67 186.82L3.77 191.05L5.20 196.81L10.52 198.35ZM5.20 196.81L3.77 191.05L-1.55 189.51L-5.45 193.74L-4.02 199.51L1.30 201.04ZM16.90 184.12L15.48 178.35L10.15 176.82L6.25 181.05L7.67 186.82L13.00 188.35ZM7.67 186.82L6.25 181.05L0.92 179.52L-2.98 183.75L-1.55 189.51L3.77 191.05ZM21.17 201.42L19.75 195.66L14.42 194.12L10.52 198.35L11.95 204.11L17.27 205.65ZM11.95 204.11L10.52 198.35L5.20 196.81L1.30 201.04L2.73 206.80L8.05 208.34ZM23.65 191.43L22.23 185.66L16.90 184.12L13.00 188.35L14.42 194.12L19.75 195.66ZM36.43 243.31L35.02 237.55L29.70 236.01L25.80 240.23L27.22 245.99L32.53 247.53ZM27.22 245.99L25.80 240.23L20.48 238.69L16.58 242.91L18.00 248.67L23.32 250.21ZM38.92 233.33L37.50 227.57L32.18 226.02L28.28 230.25L29.70 236.01L35.02 237.55ZM29.70 236.01L28.28 230.25L22.96 228.71L19.06 232.93L20.48 238.69L25.80 240.23ZM43.17 250.62L41.75 244.86L36.43 243.31L32.53 247.53L33.95 253.29L39.27 254.84ZM33.95 253.29L32.53 247.53L27.22 245.99L23.32 250.21L24.74 255.97L30.05 257.51ZM45.66 240.64L44.24 234.87L38.92 233.33L35.02 237.55L36.43 243.31L41.75 244.86ZM11.26 241.37L9.84 235.61L4.53 234.07L0.63 238.29L2.06 244.05L7.37 245.59ZM2.06 244.05L0.63 238.29L-4.68 236.76L-8.57 240.98L-7.15 246.74L-1.84 248.27ZM13.74 231.39L12.32 225.63L7.00 224.09L3.10 228.31L4.53 234.07L9.84 235.61ZM4.53 234.07L3.10 228.31L-2.22 226.78L-6.11 231.00L-4.68 236.76L0.63 238.29ZM18.00 248.67L16.58 242.91L11.26 241.37L7.37 245.59L8.79 251.35L14.11 252.89ZM8.79 251.35L7.37 245.59L2.06 244.05L-1.84 248.27L-0.41 254.03L4.90 255.56ZM20.48 238.69L19.06 232.93L13.74 231.39L9.84 235.61L11.26 241.37L16.58 242.91ZM50.63 220.67L49.21 214.90L43.89 213.35L39.98 217.58L41.40 223.34L46.73 224.89ZM41.40 223.34L39.98 217.58L34.66 216.04L30.76 220.26L32.18 226.02L37.50 227.57ZM53.12 210.68L51.70 204.91L46.38 203.36L42.47 207.59L43.89 213.35L49.21 214.90ZM43.89 213.35L42.47 207.59L37.14 206.04L33.24 210.27L34.66 216.04L39.98 217.58ZM57.37 227.98L55.96 222.21L50.63 220.67L46.73 224.89L48.14 230.65L53.47 232.20ZM48.14 230.65L46.73 224.89L41.40 223.34L37.50 227.57L38.92 233.33L44.24 234.87ZM59.86 217.99L58.45 212.22L53.12 210.68L49.21 214.90L50.63 220.67L55.96 222.21ZM137.28 251.29L135.88 245.52L130.55 243.96L126.62 248.17L128.03 253.94L133.36 255.50ZM128.03 253.94L126.62 248.17L121.29 246.61L117.37 250.82L118.78 256.59L124.11 258.15ZM139.80 241.30L138.40 235.53L133.06 233.97L129.14 238.18L130.55 243.96L135.88 245.52ZM130.55 243.96L129.14 238.18L123.81 236.62L119.89 240.84L121.29 246.61L126.62 248.17ZM144.02 258.63L142.61 252.85L137.28 251.29L133.36 255.50L134.76 261.27L140.09 262.84ZM134.76 261.27L133.36 255.50L128.03 253.94L124.11 258.15L125.51 263.92L130.84 265.48ZM146.54 248.64L145.13 242.86L139.80 241.30L135.88 245.52L137.28 251.29L142.61 252.85ZM112.04 249.27L110.64 243.49L105.31 241.94L101.39 246.15L102.80 251.92L108.13 253.48ZM102.80 251.92L101.39 246.15L96.06 244.60L92.15 248.81L93.56 254.58L98.89 256.14ZM114.56 239.28L113.15 233.51L107.82 231.95L103.90 236.17L105.31 241.94L110.64 243.49ZM105.31 241.94L103.90 236.17L98.57 234.61L94.65 238.83L96.06 244.60L101.39 246.15ZM118.78 256.59L117.37 250.82L112.04 249.27L108.13 253.48L109.54 259.25L114.86 260.81ZM109.54 259.25L108.13 253.48L102.80 251.92L98.89 256.14L100.30 261.90L105.62 263.46ZM121.29 246.61L119.89 240.84L114.56 239.28L110.64 243.49L112.04 249.27L117.37 250.82ZM151.59 228.66L150.18 222.88L144.85 221.32L140.92 225.53L142.32 231.31L147.66 232.87ZM142.32 231.31L140.92 225.53L135.58 223.97L131.66 228.19L133.06 233.97L138.40 235.53ZM154.11 218.66L152.71 212.88L147.37 211.32L143.44 215.54L144.85 221.32L150.18 222.88ZM144.85 221.32L143.44 215.54L138.10 213.98L134.18 218.19L135.58 223.97L140.92 225.53ZM158.33 236.00L156.92 230.22L151.59 228.66L147.66 232.87L149.06 238.65L154.40 240.22ZM149.06 238.65L147.66 232.87L142.32 231.31L138.40 235.53L139.80 241.30L145.13 242.86ZM160.86 226.01L159.45 220.23L154.11 218.66L150.18 222.88L151.59 228.66L156.92 230.22ZM126.32 226.63L124.92 220.85L119.58 219.30L115.66 223.51L117.07 229.29L122.40 230.85ZM117.07 229.29L115.66 223.51L110.33 221.96L106.41 226.18L107.82 231.95L113.15 233.51ZM128.84 216.63L127.43 210.86L122.10 209.30L118.17 213.52L119.58 219.30L124.92 220.85ZM119.58 219.30L118.17 213.52L112.84 211.96L108.92 216.18L110.33 221.96L115.66 223.51ZM133.06 233.97L131.66 228.19L126.32 226.63L122.40 230.85L123.81 236.62L129.14 238.18ZM123.81 236.62L122.40 230.85L117.07 229.29L113.15 233.51L114.56 239.28L119.89 240.84ZM135.58 223.97L134.18 218.19L128.84 216.63L124.92 220.85L126.32 226.63L131.66 228.19ZM162.54 253.34L161.13 247.56L155.80 245.99L151.87 250.20L153.27 255.98L158.61 257.55ZM153.27 255.98L151.87 250.20L146.54 248.64L142.61 252.85L144.02 258.63L149.35 260.19ZM165.06 243.35L163.66 237.57L158.33 236.00L154.40 240.22L155.80 245.99L161.13 247.56ZM155.80 245.99L154.40 240.22L149.06 238.65L145.13 242.86L146.54 248.64L151.87 250.20ZM169.27 260.68L167.87 254.90L162.54 253.34L158.61 257.55L160.01 263.32L165.34 264.89ZM160.01 263.32L158.61 257.55L153.27 255.98L149.35 260.19L150.75 265.96L156.08 267.53ZM171.80 250.69L170.40 244.91L165.06 243.35L161.13 247.56L162.54 253.34L167.87 254.90ZM259.86 142.09L258.47 136.28L253.11 134.71L249.14 138.93L250.54 144.74L255.90 146.32ZM250.54 144.74L249.14 138.93L243.78 137.35L239.82 141.58L241.21 147.39L246.57 148.96ZM262.44 132.06L261.04 126.25L255.68 124.67L251.71 128.90L253.11 134.71L258.47 136.28ZM253.11 134.71L251.71 128.90L246.35 127.32L242.38 131.55L243.78 137.35L249.14 138.93ZM266.62 149.48L265.22 143.67L259.86 142.09L255.90 146.32L257.29 152.12L262.65 153.70ZM257.29 152.12L255.90 146.32L250.54 144.74L246.57 148.96L247.97 154.77L253.33 156.35ZM265.01 122.02L263.62 116.21L258.25 114.63L254.28 118.86L255.68 124.67L261.04 126.25ZM261.47 169.53L260.08 163.73L254.72 162.15L250.76 166.37L252.15 172.17L257.51 173.75ZM264.04 159.51L262.65 153.70L257.29 152.12L253.33 156.35L254.72 162.15L260.08 163.73ZM172.72 111.14L171.31 105.34L165.95 103.78L162.00 108.02L163.41 113.81L168.77 115.38ZM163.41 113.81L162.00 108.02L156.65 106.46L152.70 110.69L154.11 116.49L159.47 118.05ZM175.26 101.10L173.85 95.30L168.49 93.74L164.54 97.98L165.95 103.78L171.31 105.34ZM165.95 103.78L164.54 97.98L159.19 96.42L155.24 100.66L156.65 106.46L162.00 108.02ZM179.48 118.50L178.07 112.70L172.72 111.14L168.77 115.38L170.17 121.17L175.53 122.74ZM170.17 121.17L168.77 115.38L163.41 113.81L159.47 118.05L160.87 123.85L166.23 125.41ZM182.02 108.47L180.62 102.67L175.26 101.10L171.31 105.34L172.72 111.14L178.07 112.70ZM147.35 109.13L145.94 103.34L140.58 101.78L136.64 106.02L138.05 111.81L143.41 113.37ZM138.05 111.81L136.64 106.02L131.29 104.46L127.35 108.70L128.76 114.50L134.11 116.05ZM149.88 99.10L148.47 93.30L143.12 91.74L139.17 95.98L140.58 101.78L145.94 103.34ZM140.58 101.78L139.17 95.98L133.82 94.43L129.88 98.67L131.29 104.46L136.64 106.02ZM154.11 116.49L152.70 110.69L147.35 109.13L143.41 113.37L144.82 119.17L150.17 120.73ZM144.82 119.17L143.41 113.37L138.05 111.81L134.11 116.05L135.52 121.84L140.87 123.40ZM156.65 106.46L155.24 100.66L149.88 99.10L145.94 103.34L147.35 109.13L152.70 110.69ZM187.12 88.39L185.71 82.58L180.35 81.02L176.40 85.26L177.80 91.06L183.17 92.63ZM177.80 91.06L176.40 85.26L171.04 83.70L167.09 87.94L168.49 93.74L173.85 95.30ZM189.67 78.34L188.26 72.53L182.90 70.97L178.94 75.21L180.35 81.02L185.71 82.58ZM180.35 81.02L178.94 75.21L173.58 73.65L169.63 77.89L171.04 83.70L176.40 85.26ZM193.89 95.76L192.48 89.95L187.12 88.39L183.17 92.63L184.57 98.43L189.93 99.99ZM184.57 98.43L183.17 92.63L177.80 91.06L173.85 95.30L175.26 101.10L180.62 102.67ZM196.44 85.71L195.04 79.91L189.67 78.34L185.71 82.58L187.12 88.39L192.48 89.95ZM161.73 86.38L160.32 80.58L154.96 79.02L151.01 83.26L152.42 89.06L157.78 90.62ZM152.42 89.06L151.01 83.26L145.65 81.70L141.70 85.94L143.12 91.74L148.47 93.30ZM164.27 76.33L162.86 70.53L157.50 68.97L153.55 73.21L154.96 79.02L160.32 80.58ZM154.96 79.02L153.55 73.21L148.19 71.66L144.24 75.90L145.65 81.70L151.01 83.26ZM168.49 93.74L167.09 87.94L161.73 86.38L157.78 90.62L159.19 96.42L164.54 97.98ZM159.19 96.42L157.78 90.62L152.42 89.06L148.47 93.30L149.88 99.10L155.24 100.66ZM171.04 83.70L169.63 77.89L164.27 76.33L160.32 80.58L161.73 86.38L167.09 87.94ZM183.69 135.90L182.29 130.10L176.93 128.54L172.99 132.77L174.39 138.56L179.74 140.13ZM174.39 138.56L172.99 132.77L167.63 131.20L163.69 135.44L165.09 141.23L170.45 142.79ZM186.24 125.87L184.83 120.07L179.48 118.50L175.53 122.74L176.93 128.54L182.29 130.10ZM176.93 128.54L175.53 122.74L170.17 121.17L166.23 125.41L167.63 131.20L172.99 132.77ZM190.45 143.26L189.05 137.46L183.69 135.90L179.74 140.13L181.15 145.92L186.50 147.49ZM181.15 145.92L179.74 140.13L174.39 138.56L170.45 142.79L171.85 148.59L177.20 150.15ZM193.00 133.23L191.60 127.43L186.24 125.87L182.29 130.10L183.69 135.90L189.05 137.46ZM158.34 133.87L156.93 128.08L151.58 126.52L147.63 130.75L149.04 136.55L154.39 138.11ZM149.04 136.55L147.63 130.75L142.28 129.20L138.35 133.43L139.76 139.22L145.10 140.78ZM160.87 123.85L159.47 118.05L154.11 116.49L150.17 120.73L151.58 126.52L156.93 128.08ZM151.58 126.52L150.17 120.73L144.82 119.17L140.87 123.40L142.28 129.20L147.63 130.75ZM165.09 141.23L163.69 135.44L158.34 133.87L154.39 138.11L155.80 143.90L161.15 145.46ZM155.80 143.90L154.39 138.11L149.04 136.55L145.10 140.78L146.51 146.57L151.86 148.13ZM167.63 131.20L166.23 125.41L160.87 123.85L156.93 128.08L158.34 133.87L163.69 135.44ZM198.10 113.17L196.70 107.36L191.34 105.80L187.38 110.03L188.79 115.83L194.14 117.40ZM188.79 115.83L187.38 110.03L182.02 108.47L178.07 112.70L179.48 118.50L184.83 120.07ZM200.65 103.13L199.25 97.32L193.89 95.76L189.93 99.99L191.34 105.80L196.70 107.36ZM191.34 105.80L189.93 99.99L184.57 98.43L180.62 102.67L182.02 108.47L187.38 110.03ZM204.86 120.54L203.46 114.74L198.10 113.17L194.14 117.40L195.55 123.20L200.91 124.77ZM195.55 123.20L194.14 117.40L188.79 115.83L184.83 120.07L186.24 125.87L191.60 127.43ZM207.42 110.50L206.01 104.70L200.65 103.13L196.70 107.36L198.10 113.17L203.46 114.74ZM107.67 129.89L106.26 124.10L100.91 122.55L96.98 126.79L98.40 132.57L103.74 134.13ZM98.40 132.57L96.98 126.79L91.64 125.24L87.71 129.48L89.13 135.26L94.47 136.81ZM110.19 119.86L108.78 114.07L103.43 112.52L99.50 116.76L100.91 122.55L106.26 124.10ZM100.91 122.55L99.50 116.76L94.15 115.21L90.22 119.45L91.64 125.24L96.98 126.79ZM114.43 137.23L113.02 131.44L107.67 129.89L103.74 134.13L105.16 139.91L110.50 141.46ZM105.16 139.91L103.74 134.13L98.40 132.57L94.47 136.81L95.89 142.60L101.23 144.15ZM116.95 127.21L115.54 121.42L110.19 119.86L106.26 124.10L107.67 129.89L113.02 131.44ZM82.37 127.93L80.95 122.14L75.61 120.60L71.68 124.84L73.10 130.62L78.44 132.17ZM73.10 130.62L71.68 124.84L66.34 123.29L62.42 127.53L63.84 133.31L69.18 134.86ZM84.88 117.90L83.46 112.12L78.11 110.57L74.19 114.81L75.61 120.60L80.95 122.14ZM75.61 120.60L74.19 114.81L68.84 113.27L64.92 117.51L66.34 123.29L71.68 124.84ZM89.13 135.26L87.71 129.48L82.37 127.93L78.44 132.17L79.86 137.95L85.20 139.50ZM79.86 137.95L78.44 132.17L73.10 130.62L69.18 134.86L70.60 140.64L75.94 142.19ZM91.64 125.24L90.22 119.45L84.88 117.90L80.95 122.14L82.37 127.93L87.71 129.48ZM122.00 107.15L120.58 101.35L115.23 99.80L111.30 104.04L112.71 109.83L118.06 111.39ZM112.71 109.83L111.30 104.04L105.95 102.49L102.01 106.73L103.43 112.52L108.78 114.07ZM124.52 97.11L123.11 91.32L117.76 89.77L113.82 94.01L115.23 99.80L120.58 101.35ZM115.23 99.80L113.82 94.01L108.47 92.46L104.53 96.70L105.95 102.49L111.30 104.04ZM128.76 114.50L127.35 108.70L122.00 107.15L118.06 111.39L119.47 117.18L124.82 118.73ZM119.47 117.18L118.06 111.39L112.71 109.83L108.78 114.07L110.19 119.86L115.54 121.42ZM131.29 104.46L129.88 98.67L124.52 97.11L120.58 101.35L122.00 107.15L127.35 108.70ZM96.66 105.18L95.25 99.39L89.90 97.84L85.97 102.09L87.39 107.88L92.73 109.42ZM87.39 107.88L85.97 102.09L80.62 100.54L76.69 104.78L78.11 110.57L83.46 112.12ZM99.18 95.15L97.76 89.36L92.41 87.81L88.48 92.05L89.90 97.84L95.25 99.39ZM89.90 97.84L88.48 92.05L83.13 90.51L79.20 94.75L80.62 100.54L85.97 102.09ZM103.43 112.52L102.01 106.73L96.66 105.18L92.73 109.42L94.15 115.21L99.50 116.76ZM94.15 115.21L92.73 109.42L87.39 107.88L83.46 112.12L84.88 117.90L90.22 119.45ZM105.95 102.49L104.53 96.70L99.18 95.15L95.25 99.39L96.66 105.18L102.01 106.73ZM118.67 154.59L117.26 148.80L111.91 147.25L107.99 151.48L109.40 157.27L114.74 158.82ZM109.40 157.27L107.99 151.48L102.64 149.93L98.72 154.16L100.13 159.95L105.47 161.50ZM121.19 144.57L119.78 138.78L114.43 137.23L110.50 141.46L111.91 147.25L117.26 148.80ZM111.91 147.25L110.50 141.46L105.16 139.91L101.23 144.15L102.64 149.93L107.99 151.48ZM125.42 161.93L124.01 156.15L118.67 154.59L114.74 158.82L116.15 164.61L121.49 166.16ZM116.15 164.61L114.74 158.82L109.40 157.27L105.47 161.50L106.88 167.28L112.22 168.83ZM127.95 151.92L126.54 146.13L121.19 144.57L117.26 148.80L118.67 154.59L124.01 156.15ZM93.37 152.61L91.96 146.83L86.62 145.28L82.69 149.51L84.11 155.30L89.45 156.84ZM95.89 142.60L94.47 136.81L89.13 135.26L85.20 139.50L86.62 145.28L91.96 146.83ZM86.62 145.28L85.20 139.50L79.86 137.95L75.94 142.19L77.36 147.97L82.69 149.51ZM100.13 159.95L98.72 154.16L93.37 152.61L89.45 156.84L90.87 162.63L96.20 164.18ZM90.87 162.63L89.45 156.84L84.11 155.30L80.19 159.53L81.61 165.31L86.94 166.86ZM102.64 149.93L101.23 144.15L95.89 142.60L91.96 146.83L93.37 152.61L98.72 154.16ZM133.00 131.87L131.59 126.08L126.24 124.52L122.30 128.76L123.71 134.55L129.06 136.11ZM123.71 134.55L122.30 128.76L116.95 127.21L113.02 131.44L114.43 137.23L119.78 138.78ZM135.52 121.84L134.11 116.05L128.76 114.50L124.82 118.73L126.24 124.52L131.59 126.08ZM126.24 124.52L124.82 118.73L119.47 117.18L115.54 121.42L116.95 127.21L122.30 128.76ZM139.76 139.22L138.35 133.43L133.00 131.87L129.06 136.11L130.47 141.90L135.82 143.45ZM130.47 141.90L129.06 136.11L123.71 134.55L119.78 138.78L121.19 144.57L126.54 146.13ZM142.28 129.20L140.87 123.40L135.52 121.84L131.59 126.08L133.00 131.87L138.35 133.43ZM190.56 40.81L189.15 34.99L183.78 33.43L179.82 37.68L181.23 43.49L186.60 45.05ZM181.23 43.49L179.82 37.68L174.45 36.12L170.49 40.37L171.90 46.18L177.27 47.74ZM193.11 30.74L191.71 24.93L186.33 23.37L182.37 27.62L183.78 33.43L189.15 34.99ZM183.78 33.43L182.37 27.62L177.00 26.06L173.04 30.31L174.45 36.12L179.82 37.68ZM197.33 48.18L195.93 42.37L190.56 40.81L186.60 45.05L188.00 50.86L193.37 52.43ZM188.00 50.86L186.60 45.05L181.23 43.49L177.27 47.74L178.68 53.55L184.04 55.11ZM199.89 38.12L198.49 32.31L193.11 30.74L189.15 34.99L190.56 40.81L195.93 42.37ZM165.12 38.81L163.71 33.00L158.35 31.44L154.39 35.69L155.80 41.50L161.17 43.06ZM155.80 41.50L154.39 35.69L149.03 34.14L145.07 38.39L146.49 44.19L151.85 45.75ZM167.67 28.75L166.26 22.94L160.89 21.38L156.93 25.63L158.35 31.44L163.71 33.00ZM158.35 31.44L156.93 25.63L151.57 24.08L147.61 28.33L149.03 34.14L154.39 35.69ZM171.90 46.18L170.49 40.37L165.12 38.81L161.17 43.06L162.58 48.87L167.95 50.43ZM162.58 48.87L161.17 43.06L155.80 41.50L151.85 45.75L153.26 51.56L158.63 53.11ZM174.45 36.12L173.04 30.31L167.67 28.75L163.71 33.00L165.12 38.81L170.49 40.37ZM205.01 17.99L203.61 12.18L198.23 10.61L194.26 14.86L195.67 20.68L201.04 22.24ZM195.67 20.68L194.26 14.86L188.89 13.30L184.92 17.55L186.33 23.37L191.71 24.93ZM207.57 7.92L206.17 2.10L200.79 0.54L196.82 4.79L198.23 10.61L203.61 12.18ZM198.23 10.61L196.82 4.79L191.45 3.23L187.48 7.48L188.89 13.30L194.26 14.86ZM211.79 25.38L210.39 19.56L205.01 17.99L201.04 22.24L202.45 28.06L207.82 29.63ZM202.45 28.06L201.04 22.24L195.67 20.68L191.71 24.93L193.11 30.74L198.49 32.31ZM214.36 15.31L212.95 9.49L207.57 7.92L203.61 12.18L205.01 17.99L210.39 19.56ZM179.55 15.99L178.14 10.18L172.77 8.62L168.81 12.87L170.22 18.68L175.59 20.24ZM170.22 18.68L168.81 12.87L163.44 11.31L159.48 15.57L160.89 21.38L166.26 22.94ZM182.11 5.92L180.70 0.11L175.32 -1.45L171.36 2.80L172.77 8.62L178.14 10.18ZM172.77 8.62L171.36 2.80L165.98 1.24L162.02 5.50L163.44 11.31L168.81 12.87ZM186.33 23.37L184.92 17.55L179.55 15.99L175.59 20.24L177.00 26.06L182.37 27.62ZM177.00 26.06L175.59 20.24L170.22 18.68L166.26 22.94L167.67 28.75L173.04 30.31ZM188.89 13.30L187.48 7.48L182.11 5.92L178.14 10.18L179.55 15.99L184.92 17.55ZM201.55 65.62L200.15 59.81L194.78 58.24L190.82 62.48L192.22 68.29L197.59 69.86ZM192.22 68.29L190.82 62.48L185.45 60.92L181.49 65.16L182.90 70.97L188.26 72.53ZM204.11 55.56L202.70 49.75L197.33 48.18L193.37 52.43L194.78 58.24L200.15 59.81ZM194.78 58.24L193.37 52.43L188.00 50.86L184.04 55.11L185.45 60.92L190.82 62.48ZM208.32 72.99L206.92 67.18L201.55 65.62L197.59 69.86L198.99 75.67L204.36 77.23ZM198.99 75.67L197.59 69.86L192.22 68.29L188.26 72.53L189.67 78.34L195.04 79.91ZM210.88 62.94L209.48 57.13L204.11 55.56L200.15 59.81L201.55 65.62L206.92 67.18ZM176.13 63.60L174.72 57.79L169.36 56.23L165.40 60.48L166.81 66.28L172.17 67.85ZM166.81 66.28L165.40 60.48L160.04 58.92L156.09 63.17L157.50 68.97L162.86 70.53ZM178.68 53.55L177.27 47.74L171.90 46.18L167.95 50.43L169.36 56.23L174.72 57.79ZM169.36 56.23L167.95 50.43L162.58 48.87L158.63 53.11L160.04 58.92L165.40 60.48ZM182.90 70.97L181.49 65.16L176.13 63.60L172.17 67.85L173.58 73.65L178.94 75.21ZM173.58 73.65L172.17 67.85L166.81 66.28L162.86 70.53L164.27 76.33L169.63 77.89ZM185.45 60.92L184.04 55.11L178.68 53.55L174.72 57.79L176.13 63.60L181.49 65.16ZM216.01 42.82L214.60 37.01L209.23 35.44L205.26 39.69L206.67 45.50L212.04 47.07ZM206.67 45.50L205.26 39.69L199.89 38.12L195.93 42.37L197.33 48.18L202.70 49.75ZM218.57 32.76L217.17 26.94L211.79 25.38L207.82 29.63L209.23 35.44L214.60 37.01ZM209.23 35.44L207.82 29.63L202.45 28.06L198.49 32.31L199.89 38.12L205.26 39.69ZM222.78 50.21L221.38 44.39L216.01 42.82L212.04 47.07L213.44 52.88L218.81 54.45ZM213.44 52.88L212.04 47.07L206.67 45.50L202.70 49.75L204.11 55.56L209.48 57.13ZM225.35 40.15L223.95 34.33L218.57 32.76L214.60 37.01L216.01 42.82L221.38 44.39ZM125.34 59.64L123.92 53.83L118.56 52.28L114.62 56.53L116.03 62.33L121.39 63.88ZM116.03 62.33L114.62 56.53L109.26 54.98L105.32 59.23L106.74 65.03L112.09 66.58ZM127.86 49.59L126.45 43.78L121.09 42.23L117.14 46.48L118.56 52.28L123.92 53.83ZM118.56 52.28L117.14 46.48L111.78 44.93L107.84 49.18L109.26 54.98L114.62 56.53ZM132.11 66.99L130.69 61.19L125.34 59.64L121.39 63.88L122.81 69.68L128.16 71.24ZM122.81 69.68L121.39 63.88L116.03 62.33L112.09 66.58L113.51 72.38L118.87 73.93ZM134.64 56.94L133.23 51.14L127.86 49.59L123.92 53.83L125.34 59.64L130.69 61.19ZM99.96 57.68L98.55 51.89L93.19 50.34L89.25 54.59L90.67 60.39L96.03 61.93ZM90.67 60.39L89.25 54.59L83.90 53.05L79.96 57.30L81.38 63.09L86.74 64.64ZM102.48 47.63L101.07 41.84L95.71 40.29L91.77 44.54L93.19 50.34L98.55 51.89ZM93.19 50.34L91.77 44.54L86.41 43.00L82.48 47.25L83.90 53.05L89.25 54.59ZM106.74 65.03L105.32 59.23L99.96 57.68L96.03 61.93L97.44 67.73L102.80 69.28ZM97.44 67.73L96.03 61.93L90.67 60.39L86.74 64.64L88.16 70.43L93.51 71.98ZM109.26 54.98L107.84 49.18L102.48 47.63L98.55 51.89L99.96 57.68L105.32 59.23ZM139.71 36.83L138.29 31.03L132.93 29.47L128.98 33.73L130.40 39.53L135.76 41.08ZM130.40 39.53L128.98 33.73L123.62 32.17L119.67 36.43L121.09 42.23L126.45 43.78ZM142.25 26.77L140.83 20.97L135.46 19.41L131.51 23.67L132.93 29.47L138.29 31.03ZM132.93 29.47L131.51 23.67L126.15 22.12L122.20 26.37L123.62 32.17L128.98 33.73ZM146.49 44.19L145.07 38.39L139.71 36.83L135.76 41.08L137.17 46.89L142.54 48.44ZM137.17 46.89L135.76 41.08L130.40 39.53L126.45 43.78L127.86 49.59L133.23 51.14ZM149.03 34.14L147.61 28.33L142.25 26.77L138.29 31.03L139.71 36.83L145.07 38.39ZM114.31 34.88L112.89 29.07L107.53 27.53L103.59 31.78L105.01 37.58L110.37 39.13ZM105.01 37.58L103.59 31.78L98.23 30.23L94.29 34.49L95.71 40.29L101.07 41.84ZM116.84 24.82L115.42 19.01L110.06 17.47L106.11 21.72L107.53 27.53L112.89 29.07ZM107.53 27.53L106.11 21.72L100.75 20.18L96.81 24.43L98.23 30.23L103.59 31.78ZM121.09 42.23L119.67 36.43L114.31 34.88L110.37 39.13L111.78 44.93L117.14 46.48ZM111.78 44.93L110.37 39.13L105.01 37.58L101.07 41.84L102.48 47.63L107.84 49.18ZM123.62 32.17L122.20 26.37L116.84 24.82L112.89 29.07L114.31 34.88L119.67 36.43ZM136.35 84.39L134.94 78.59L129.58 77.03L125.64 81.28L127.05 87.08L132.40 88.63ZM127.05 87.08L125.64 81.28L120.28 79.73L116.34 83.97L117.76 89.77L123.11 91.32ZM138.88 74.34L137.47 68.54L132.11 66.99L128.16 71.24L129.58 77.03L134.94 78.59ZM129.58 77.03L128.16 71.24L122.81 69.68L118.87 73.93L120.28 79.73L125.64 81.28ZM143.12 91.74L141.70 85.94L136.35 84.39L132.40 88.63L133.82 94.43L139.17 95.98ZM133.82 94.43L132.40 88.63L127.05 87.08L123.11 91.32L124.52 97.11L129.88 98.67ZM145.65 81.70L144.24 75.90L138.88 74.34L134.94 78.59L136.35 84.39L141.70 85.94ZM110.99 82.42L109.57 76.62L104.22 75.07L100.28 79.32L101.70 85.11L107.05 86.66ZM101.70 85.11L100.28 79.32L94.93 77.77L90.99 82.02L92.41 87.81L97.76 89.36ZM113.51 72.38L112.09 66.58L106.74 65.03L102.80 69.28L104.22 75.07L109.57 76.62ZM104.22 75.07L102.80 69.28L97.44 67.73L93.51 71.98L94.93 77.77L100.28 79.32ZM117.76 89.77L116.34 83.97L110.99 82.42L107.05 86.66L108.47 92.46L113.82 94.01ZM108.47 92.46L107.05 86.66L101.70 85.11L97.76 89.36L99.18 95.15L104.53 96.70ZM120.28 79.73L118.87 73.93L113.51 72.38L109.57 76.62L110.99 82.42L116.34 83.97ZM150.72 61.61L149.31 55.80L143.95 54.25L140.00 58.50L141.41 64.30L146.77 65.85ZM141.41 64.30L140.00 58.50L134.64 56.94L130.69 61.19L132.11 66.99L137.47 68.54ZM153.26 51.56L151.85 45.75L146.49 44.19L142.54 48.44L143.95 54.25L149.31 55.80ZM143.95 54.25L142.54 48.44L137.17 46.89L133.23 51.14L134.64 56.94L140.00 58.50ZM157.50 68.97L156.09 63.17L150.72 61.61L146.77 65.85L148.19 71.66L153.55 73.21ZM148.19 71.66L146.77 65.85L141.41 64.30L137.47 68.54L138.88 74.34L144.24 75.90ZM160.04 58.92L158.63 53.11L153.26 51.56L149.31 55.80L150.72 61.61L156.09 63.17ZM220.02 162.71L218.62 156.91L213.27 155.34L209.31 159.56L210.71 165.36L216.07 166.93ZM210.71 165.36L209.31 159.56L203.96 157.99L200.01 162.22L201.41 168.01L206.76 169.58ZM222.58 152.69L221.18 146.89L215.82 145.31L211.87 149.54L213.27 155.34L218.62 156.91ZM213.27 155.34L211.87 149.54L206.51 147.97L202.56 152.20L203.96 157.99L209.31 159.56ZM226.77 170.08L225.38 164.28L220.02 162.71L216.07 166.93L217.47 172.73L222.82 174.30ZM217.47 172.73L216.07 166.93L210.71 165.36L206.76 169.58L208.16 175.38L213.51 176.95ZM229.33 160.06L227.93 154.26L222.58 152.69L218.62 156.91L220.02 162.71L225.38 164.28ZM194.66 160.65L193.26 154.85L187.90 153.29L183.96 157.51L185.36 163.31L190.71 164.87ZM185.36 163.31L183.96 157.51L178.61 155.95L174.66 160.17L176.07 165.97L181.41 167.53ZM197.21 150.63L195.80 144.83L190.45 143.26L186.50 147.49L187.90 153.29L193.26 154.85ZM187.90 153.29L186.50 147.49L181.15 145.92L177.20 150.15L178.61 155.95L183.96 157.51ZM201.41 168.01L200.01 162.22L194.66 160.65L190.71 164.87L192.11 170.67L197.46 172.24ZM192.11 170.67L190.71 164.87L185.36 163.31L181.41 167.53L182.82 173.32L188.17 174.89ZM203.96 157.99L202.56 152.20L197.21 150.63L193.26 154.85L194.66 160.65L200.01 162.22ZM234.46 140.01L233.06 134.20L227.70 132.63L223.74 136.86L225.14 142.66L230.50 144.23ZM225.14 142.66L223.74 136.86L218.38 135.28L214.42 139.51L215.82 145.31L221.18 146.89ZM237.02 129.97L235.62 124.17L230.26 122.59L226.30 126.82L227.70 132.63L233.06 134.20ZM227.70 132.63L226.30 126.82L220.94 125.25L216.98 129.48L218.38 135.28L223.74 136.86ZM241.21 147.39L239.82 141.58L234.46 140.01L230.50 144.23L231.89 150.03L237.25 151.61ZM231.89 150.03L230.50 144.23L225.14 142.66L221.18 146.89L222.58 152.69L227.93 154.26ZM243.78 137.35L242.38 131.55L237.02 129.97L233.06 134.20L234.46 140.01L239.82 141.58ZM209.07 137.94L207.67 132.14L202.31 130.57L198.35 134.80L199.76 140.60L205.11 142.17ZM199.76 140.60L198.35 134.80L193.00 133.23L189.05 137.46L190.45 143.26L195.80 144.83ZM211.62 127.91L210.22 122.11L204.86 120.54L200.91 124.77L202.31 130.57L207.67 132.14ZM202.31 130.57L200.91 124.77L195.55 123.20L191.60 127.43L193.00 133.23L198.35 134.80ZM215.82 145.31L214.42 139.51L209.07 137.94L205.11 142.17L206.51 147.97L211.87 149.54ZM206.51 147.97L205.11 142.17L199.76 140.60L195.80 144.83L197.21 150.63L202.56 152.20ZM218.38 135.28L216.98 129.48L211.62 127.91L207.67 132.14L209.07 137.94L214.42 139.51ZM230.96 187.47L229.57 181.68L224.21 180.10L220.26 184.32L221.66 190.11L227.01 191.69ZM221.66 190.11L220.26 184.32L214.91 182.75L210.96 186.97L212.36 192.76L217.71 194.33ZM233.52 177.46L232.13 171.66L226.77 170.08L222.82 174.30L224.21 180.10L229.57 181.68ZM224.21 180.10L222.82 174.30L217.47 172.73L213.51 176.95L214.91 182.75L220.26 184.32ZM237.71 194.84L236.31 189.05L230.96 187.47L227.01 191.69L228.41 197.48L233.75 199.06ZM228.41 197.48L227.01 191.69L221.66 190.11L217.71 194.33L219.10 200.13L224.45 201.70ZM240.27 184.83L238.88 179.03L233.52 177.46L229.57 181.68L230.96 187.47L236.31 189.05ZM205.61 185.39L204.21 179.60L198.86 178.03L194.91 182.25L196.32 188.04L201.66 189.61ZM196.32 188.04L194.91 182.25L189.57 180.68L185.62 184.91L187.02 190.70L192.37 192.26ZM208.16 175.38L206.76 169.58L201.41 168.01L197.46 172.24L198.86 178.03L204.21 179.60ZM198.86 178.03L197.46 172.24L192.11 170.67L188.17 174.89L189.57 180.68L194.91 182.25ZM212.36 192.76L210.96 186.97L205.61 185.39L201.66 189.61L203.06 195.41L208.41 196.98ZM203.06 195.41L201.66 189.61L196.32 188.04L192.37 192.26L193.77 198.05L199.12 199.62ZM214.91 182.75L213.51 176.95L208.16 175.38L204.21 179.60L205.61 185.39L210.96 186.97ZM245.40 164.79L244.00 158.99L238.65 157.41L234.69 161.64L236.08 167.44L241.44 169.01ZM236.08 167.44L234.69 161.64L229.33 160.06L225.38 164.28L226.77 170.08L232.13 171.66ZM247.97 154.77L246.57 148.96L241.21 147.39L237.25 151.61L238.65 157.41L244.00 158.99ZM238.65 157.41L237.25 151.61L231.89 150.03L227.93 154.26L229.33 160.06L234.69 161.64ZM252.15 172.17L250.76 166.37L245.40 164.79L241.44 169.01L242.84 174.81L248.19 176.39ZM242.84 174.81L241.44 169.01L236.08 167.44L232.13 171.66L233.52 177.46L238.88 179.03ZM254.72 162.15L253.33 156.35L247.97 154.77L244.00 158.99L245.40 164.79L250.76 166.37ZM154.96 181.30L153.55 175.51L148.21 173.95L144.27 178.18L145.68 183.96L151.02 185.53ZM145.68 183.96L144.27 178.18L138.93 176.62L135.00 180.84L136.40 186.63L141.75 188.19ZM157.49 171.29L156.08 165.50L150.74 163.94L146.80 168.17L148.21 173.95L153.55 175.51ZM148.21 173.95L146.80 168.17L141.46 166.61L137.52 170.83L138.93 176.62L144.27 178.18ZM161.71 188.65L160.30 182.86L154.96 181.30L151.02 185.53L152.43 191.31L157.77 192.87ZM152.43 191.31L151.02 185.53L145.68 183.96L141.75 188.19L143.15 193.97L148.49 195.53ZM164.24 178.64L162.83 172.85L157.49 171.29L153.55 175.51L154.96 181.30L160.30 182.86ZM129.66 179.29L128.25 173.50L122.90 171.95L118.97 176.17L120.39 181.95L125.72 183.51ZM120.39 181.95L118.97 176.17L113.64 174.62L109.71 178.84L111.12 184.63L116.46 186.18ZM132.18 169.27L130.77 163.49L125.42 161.93L121.49 166.16L122.90 171.95L128.25 173.50ZM122.90 171.95L121.49 166.16L116.15 164.61L112.22 168.83L113.64 174.62L118.97 176.17ZM136.40 186.63L135.00 180.84L129.66 179.29L125.72 183.51L127.13 189.29L132.47 190.85ZM127.13 189.29L125.72 183.51L120.39 181.95L116.46 186.18L117.87 191.96L123.21 193.52ZM138.93 176.62L137.52 170.83L132.18 169.27L128.25 173.50L129.66 179.29L135.00 180.84ZM169.31 158.61L167.91 152.82L162.56 151.25L158.62 155.48L160.02 161.27L165.37 162.84ZM160.02 161.27L158.62 155.48L153.27 153.92L149.33 158.15L150.74 163.94L156.08 165.50ZM171.85 148.59L170.45 142.79L165.09 141.23L161.15 145.46L162.56 151.25L167.91 152.82ZM162.56 151.25L161.15 145.46L155.80 143.90L151.86 148.13L153.27 153.92L158.62 155.48ZM176.07 165.97L174.66 160.17L169.31 158.61L165.37 162.84L166.78 168.63L172.12 170.19ZM166.78 168.63L165.37 162.84L160.02 161.27L156.08 165.50L157.49 171.29L162.83 172.85ZM178.61 155.95L177.20 150.15L171.85 148.59L167.91 152.82L169.31 158.61L174.66 160.17ZM143.98 156.59L142.57 150.80L137.23 149.24L133.29 153.47L134.70 159.26L140.05 160.82ZM134.70 159.26L133.29 153.47L127.95 151.92L124.01 156.15L125.42 161.93L130.77 163.49ZM146.51 146.57L145.10 140.78L139.76 139.22L135.82 143.45L137.23 149.24L142.57 150.80ZM137.23 149.24L135.82 143.45L130.47 141.90L126.54 146.13L127.95 151.92L133.29 153.47ZM150.74 163.94L149.33 158.15L143.98 156.59L140.05 160.82L141.46 166.61L146.80 168.17ZM141.46 166.61L140.05 160.82L134.70 159.26L130.77 163.49L132.18 169.27L137.52 170.83ZM153.27 153.92L151.86 148.13L146.51 146.57L142.57 150.80L143.98 156.59L149.33 158.15ZM165.92 206.01L164.52 200.22L159.17 198.66L155.24 202.88L156.64 208.66L161.98 210.23ZM156.64 208.66L155.24 202.88L149.90 201.32L145.97 205.54L147.37 211.32L152.71 212.88ZM168.45 196.00L167.05 190.22L161.71 188.65L157.77 192.87L159.17 198.66L164.52 200.22ZM159.17 198.66L157.77 192.87L152.43 191.31L148.49 195.53L149.90 201.32L155.24 202.88ZM172.66 213.36L171.26 207.57L165.92 206.01L161.98 210.23L163.39 216.01L168.73 217.57ZM163.39 216.01L161.98 210.23L156.64 208.66L152.71 212.88L154.11 218.66L159.45 220.23ZM175.20 203.35L173.80 197.57L168.45 196.00L164.52 200.22L165.92 206.01L171.26 207.57ZM140.63 203.98L139.22 198.19L133.88 196.63L129.95 200.86L131.36 206.64L136.70 208.20ZM131.36 206.64L129.95 200.86L124.62 199.30L120.69 203.52L122.10 209.30L127.43 210.86ZM143.15 193.97L141.75 188.19L136.40 186.63L132.47 190.85L133.88 196.63L139.22 198.19ZM133.88 196.63L132.47 190.85L127.13 189.29L123.21 193.52L124.62 199.30L129.95 200.86ZM147.37 211.32L145.97 205.54L140.63 203.98L136.70 208.20L138.10 213.98L143.44 215.54ZM138.10 213.98L136.70 208.20L131.36 206.64L127.43 210.86L128.84 216.63L134.18 218.19ZM149.90 201.32L148.49 195.53L143.15 193.97L139.22 198.19L140.63 203.98L145.97 205.54ZM180.28 183.34L178.87 177.55L173.53 175.98L169.58 180.21L170.99 185.99L176.33 187.56ZM170.99 185.99L169.58 180.21L164.24 178.64L160.30 182.86L161.71 188.65L167.05 190.22ZM182.82 173.32L181.41 167.53L176.07 165.97L172.12 170.19L173.53 175.98L178.87 177.55ZM173.53 175.98L172.12 170.19L166.78 168.63L162.83 172.85L164.24 178.64L169.58 180.21ZM187.02 190.70L185.62 184.91L180.28 183.34L176.33 187.56L177.74 193.35L183.08 194.92ZM177.74 193.35L176.33 187.56L170.99 185.99L167.05 190.22L168.45 196.00L173.80 197.57ZM189.57 180.68L188.17 174.89L182.82 173.32L178.87 177.55L180.28 183.34L185.62 184.91ZM237.96 92.47L236.56 86.66L231.19 85.09L227.23 89.32L228.63 95.13L233.99 96.71ZM228.63 95.13L227.23 89.32L221.86 87.75L217.90 91.99L219.30 97.80L224.66 99.37ZM240.53 82.42L239.13 76.61L233.76 75.04L229.79 79.27L231.19 85.09L236.56 86.66ZM231.19 85.09L229.79 79.27L224.42 77.70L220.46 81.94L221.86 87.75L227.23 89.32ZM244.73 99.86L243.33 94.04L237.96 92.47L233.99 96.71L235.39 102.51L240.76 104.09ZM235.39 102.51L233.99 96.71L228.63 95.13L224.66 99.37L226.06 105.18L231.43 106.75ZM247.30 89.81L245.90 84.00L240.53 82.42L236.56 86.66L237.96 92.47L243.33 94.04ZM212.53 90.42L211.13 84.61L205.76 83.04L201.80 87.28L203.21 93.09L208.57 94.66ZM203.21 93.09L201.80 87.28L196.44 85.71L192.48 89.95L193.89 95.76L199.25 97.32ZM215.09 80.37L213.69 74.56L208.32 72.99L204.36 77.23L205.76 83.04L211.13 84.61ZM205.76 83.04L204.36 77.23L198.99 75.67L195.04 79.91L196.44 85.71L201.80 87.28ZM219.30 97.80L217.90 91.99L212.53 90.42L208.57 94.66L209.97 100.46L215.34 102.03ZM209.97 100.46L208.57 94.66L203.21 93.09L199.25 97.32L200.65 103.13L206.01 104.70ZM221.86 87.75L220.46 81.94L215.09 80.37L211.13 84.61L212.53 90.42L217.90 91.99ZM252.44 69.71L251.05 63.89L245.67 62.31L241.70 66.56L243.10 72.37L248.47 73.94ZM243.10 72.37L241.70 66.56L236.33 64.98L232.36 69.22L233.76 75.04L239.13 76.61ZM255.02 59.65L253.62 53.83L248.25 52.26L244.27 56.50L245.67 62.31L251.05 63.89ZM245.67 62.31L244.27 56.50L238.90 54.92L234.93 59.17L236.33 64.98L241.70 66.56ZM259.21 77.10L257.82 71.28L252.44 69.71L248.47 73.94L249.87 79.76L255.24 81.34ZM249.87 79.76L248.47 73.94L243.10 72.37L239.13 76.61L240.53 82.42L245.90 84.00ZM261.79 67.04L260.40 61.23L255.02 59.65L251.05 63.89L252.44 69.71L257.82 71.28ZM226.99 67.65L225.59 61.84L220.22 60.27L216.25 64.51L217.65 70.32L223.02 71.89ZM217.65 70.32L216.25 64.51L210.88 62.94L206.92 67.18L208.32 72.99L213.69 74.56ZM229.56 57.59L228.15 51.78L222.78 50.21L218.81 54.45L220.22 60.27L225.59 61.84ZM220.22 60.27L218.81 54.45L213.44 52.88L209.48 57.13L210.88 62.94L216.25 64.51ZM233.76 75.04L232.36 69.22L226.99 67.65L223.02 71.89L224.42 77.70L229.79 79.27ZM224.42 77.70L223.02 71.89L217.65 70.32L213.69 74.56L215.09 80.37L220.46 81.94ZM236.33 64.98L234.93 59.17L229.56 57.59L225.59 61.84L226.99 67.65L232.36 69.22ZM248.92 117.28L247.52 111.47L242.16 109.90L238.19 114.13L239.59 119.94L244.95 121.51ZM239.59 119.94L238.19 114.13L232.83 112.56L228.86 116.79L230.26 122.59L235.62 124.17ZM251.49 107.24L250.09 101.43L244.73 99.86L240.76 104.09L242.16 109.90L247.52 111.47ZM242.16 109.90L240.76 104.09L235.39 102.51L231.43 106.75L232.83 112.56L238.19 114.13ZM255.68 124.67L254.28 118.86L248.92 117.28L244.95 121.51L246.35 127.32L251.71 128.90ZM246.35 127.32L244.95 121.51L239.59 119.94L235.62 124.17L237.02 129.97L242.38 131.55ZM258.25 114.63L256.86 108.82L251.49 107.24L247.52 111.47L248.92 117.28L254.28 118.86ZM223.50 115.22L222.10 109.41L216.74 107.84L212.78 112.07L214.18 117.88L219.54 119.45ZM214.18 117.88L212.78 112.07L207.42 110.50L203.46 114.74L204.86 120.54L210.22 122.11ZM226.06 105.18L224.66 99.37L219.30 97.80L215.34 102.03L216.74 107.84L222.10 109.41ZM216.74 107.84L215.34 102.03L209.97 100.46L206.01 104.70L207.42 110.50L212.78 112.07ZM230.26 122.59L228.86 116.79L223.50 115.22L219.54 119.45L220.94 125.25L226.30 126.82ZM220.94 125.25L219.54 119.45L214.18 117.88L210.22 122.11L211.62 127.91L216.98 129.48ZM232.83 112.56L231.43 106.75L226.06 105.18L222.10 109.41L223.50 115.22L228.86 116.79ZM263.40 94.54L262.01 88.73L256.64 87.15L252.67 91.39L254.06 97.20L259.43 98.78ZM254.06 97.20L252.67 91.39L247.30 89.81L243.33 94.04L244.73 99.86L250.09 101.43ZM265.98 84.49L264.59 78.68L259.21 77.10L255.24 81.34L256.64 87.15L262.01 88.73ZM256.64 87.15L255.24 81.34L249.87 79.76L245.90 84.00L247.30 89.81L252.67 91.39ZM260.83 104.59L259.43 98.78L254.06 97.20L250.09 101.43L251.49 107.24L256.86 108.82Z"/></svg>
