<svg xmlns="http://www.w3.org/2000/svg" width="256" height="256" viewBox="0 0 256 256"><path data-band="2" fill="#f97316" fill-opacity="0.35" d="M125.95 257.33L124.57 251.63L119.32 250.05L115.46 254.17L116.84 259.87L122.09 261.44ZM116.84 259.87L115.46 254.17L110.21 252.60L106.35 256.72L107.74 262.41L112.99 263.98ZM128.43 247.51L127.04 241.82L121.79 240.24L117.93 244.36L119.32 250.05L124.57 251.63ZM119.32 250.05L117.93 244.36L112.68 242.78L108.82 246.90L110.21 252.60L115.46 254.17ZM135.07 254.79L133.68 249.09L128.43 247.51L124.57 251.63L125.95 257.33L131.20 258.91ZM101.11 255.14L99.72 249.45L94.47 247.87L90.62 251.99L92.01 257.69L97.25 259.26ZM92.01 257.69L90.62 251.99L85.37 250.42L81.52 254.54L82.91 260.23L88.15 261.80ZM103.58 245.33L102.19 239.63L96.94 238.06L93.08 242.18L94.47 247.87L99.72 249.45ZM94.47 247.87L93.08 242.18L87.84 240.61L83.98 244.73L85.37 250.42L90.62 251.99ZM107.74 262.41L106.35 256.72L101.11 255.14L97.25 259.26L98.64 264.95L103.88 266.52ZM110.21 252.60L108.82 246.90L103.58 245.33L99.72 249.45L101.11 255.14L106.35 256.72ZM140.03 235.15L138.64 229.45L133.39 227.87L129.52 232.00L130.91 237.69L136.16 239.27ZM130.91 237.69L129.52 232.00L124.27 230.42L120.41 234.54L121.79 240.24L127.04 241.82ZM142.51 225.33L141.13 219.63L135.87 218.05L132.00 222.17L133.39 227.87L138.64 229.45ZM133.39 227.87L132.00 222.17L126.75 220.59L122.88 224.72L124.27 230.42L129.52 232.00ZM146.67 242.43L145.28 236.73L140.03 235.15L136.16 239.27L137.55 244.97L142.80 246.55ZM137.55 244.97L136.16 239.27L130.91 237.69L127.04 241.82L128.43 247.51L133.68 249.09ZM149.15 232.61L147.77 226.91L142.51 225.33L138.64 229.45L140.03 235.15L145.28 236.73ZM115.16 232.96L113.77 227.27L108.52 225.69L104.66 229.81L106.05 235.51L111.30 237.09ZM106.05 235.51L104.66 229.81L99.41 228.24L95.55 232.36L96.94 238.06L102.19 239.63ZM117.63 223.14L116.24 217.44L110.99 215.87L107.13 219.99L108.52 225.69L113.77 227.27ZM108.52 225.69L107.13 219.99L101.88 218.42L98.02 222.54L99.41 228.24L104.66 229.81ZM121.79 240.24L120.41 234.54L115.16 232.96L111.30 237.09L112.68 242.78L117.93 244.36ZM112.68 242.78L111.30 237.09L106.05 235.51L102.19 239.63L103.58 245.33L108.82 246.90ZM124.27 230.42L122.88 224.72L117.63 223.14L113.77 227.27L115.16 232.96L120.41 234.54ZM150.82 259.53L149.43 253.83L144.18 252.25L140.32 256.37L141.70 262.07L146.95 263.65ZM141.70 262.07L140.32 256.37L135.07 254.79L131.20 258.91L132.59 264.60L137.83 266.18ZM153.30 249.72L151.92 244.02L146.67 242.43L142.80 246.55L144.18 252.25L149.43 253.83ZM144.18 252.25L142.80 246.55L137.55 244.97L133.68 249.09L135.07 254.79L140.32 256.37ZM159.94 257.00L158.55 251.30L153.30 249.72L149.43 253.83L150.82 259.53L156.07 261.12ZM39.94 263.19L38.54 257.51L33.30 255.94L29.46 260.06L30.86 265.75L36.09 267.31ZM76.28 252.97L74.89 247.28L69.64 245.72L65.79 249.84L67.19 255.53L72.43 257.09ZM67.19 255.53L65.79 249.84L60.55 248.27L56.70 252.39L58.10 258.08L63.34 259.65ZM78.74 243.16L77.34 237.47L72.10 235.90L68.25 240.02L69.64 245.72L74.89 247.28ZM69.64 245.72L68.25 240.02L63.00 238.46L59.16 242.58L60.55 248.27L65.79 249.84ZM82.91 260.23L81.52 254.54L76.28 252.97L72.43 257.09L73.82 262.78L79.06 264.35ZM73.82 262.78L72.43 257.09L67.19 255.53L63.34 259.65L64.73 265.33L69.97 266.90ZM85.37 250.42L83.98 244.73L78.74 243.16L74.89 247.28L76.28 252.97L81.52 254.54ZM51.46 250.83L50.07 245.14L44.83 243.57L40.98 247.70L42.38 253.38L47.62 254.95ZM42.38 253.38L40.98 247.70L35.75 246.14L31.90 250.26L33.30 255.94L38.54 257.51ZM53.91 241.02L52.52 235.33L47.28 233.76L43.43 237.89L44.83 243.57L50.07 245.14ZM44.83 243.57L43.43 237.89L38.19 236.32L34.35 240.45L35.75 246.14L40.98 247.70ZM58.10 258.08L56.70 252.39L51.46 250.83L47.62 254.95L49.01 260.63L54.25 262.20ZM49.01 260.63L47.62 254.95L42.38 253.38L38.54 257.51L39.94 263.19L45.17 264.75ZM60.55 248.27L59.16 242.58L53.91 241.02L50.07 245.14L51.46 250.83L56.70 252.39ZM143.33 188.55L141.94 182.84L136.68 181.27L132.81 185.40L134.20 191.10L139.46 192.68ZM134.20 191.10L132.81 185.40L127.55 183.82L123.68 187.95L125.07 193.66L130.33 195.23ZM145.82 178.71L144.43 173.00L139.17 171.43L135.30 175.56L136.68 181.27L141.94 182.84ZM136.68 181.27L135.30 175.56L130.03 173.98L126.16 178.11L127.55 183.82L132.81 185.40ZM149.98 195.84L148.59 190.13L143.33 188.55L139.46 192.68L140.84 198.39L146.10 199.97ZM140.84 198.39L139.46 192.68L134.20 191.10L130.33 195.23L131.71 200.94L136.97 202.52ZM152.47 186.00L151.08 180.29L145.82 178.71L141.94 182.84L143.33 188.55L148.59 190.13ZM118.42 186.38L117.03 180.67L111.77 179.10L107.91 183.23L109.30 188.93L114.55 190.51ZM109.30 188.93L107.91 183.23L102.65 181.66L98.78 185.79L100.18 191.49L105.43 193.06ZM120.90 176.54L119.51 170.83L114.25 169.26L110.38 173.39L111.77 179.10L117.03 180.67ZM111.77 179.10L110.38 173.39L105.12 171.82L101.26 175.95L102.65 181.66L107.91 183.23ZM125.07 193.66L123.68 187.95L118.42 186.38L114.55 190.51L115.94 196.21L121.20 197.78ZM115.94 196.21L114.55 190.51L109.30 188.93L105.43 193.06L106.82 198.77L112.08 200.34ZM127.55 183.82L126.16 178.11L120.90 176.54L117.03 180.67L118.42 186.38L123.68 187.95ZM157.45 166.32L156.07 160.61L150.80 159.03L146.92 163.16L148.31 168.87L153.57 170.45ZM148.31 168.87L146.92 163.16L141.66 161.58L137.78 165.72L139.17 171.43L144.43 173.00ZM159.95 156.47L158.56 150.76L153.30 149.18L149.42 153.31L150.80 159.03L156.07 160.61ZM150.80 159.03L149.42 153.31L144.15 151.73L140.27 155.87L141.66 161.58L146.92 163.16ZM164.10 173.61L162.72 167.90L157.45 166.32L153.57 170.45L154.96 176.16L160.22 177.74ZM154.96 176.16L153.57 170.45L148.31 168.87L144.43 173.00L145.82 178.71L151.08 180.29ZM166.60 163.77L165.22 158.05L159.95 156.47L156.07 160.61L157.45 166.32L162.72 167.90ZM132.52 164.14L131.13 158.43L125.87 156.85L121.99 160.99L123.38 166.70L128.65 168.27ZM123.38 166.70L121.99 160.99L116.73 159.41L112.86 163.55L114.25 169.26L119.51 170.83ZM135.01 154.29L133.62 148.58L128.35 147.01L124.48 151.14L125.87 156.85L131.13 158.43ZM125.87 156.85L124.48 151.14L119.21 149.57L115.34 153.71L116.73 159.41L121.99 160.99ZM139.17 171.43L137.78 165.72L132.52 164.14L128.65 168.27L130.03 173.98L135.30 175.56ZM130.03 173.98L128.65 168.27L123.38 166.70L119.51 170.83L120.90 176.54L126.16 178.11ZM141.66 161.58L140.27 155.87L135.01 154.29L131.13 158.43L132.52 164.14L137.78 165.72ZM154.13 212.96L152.75 207.26L147.49 205.67L143.61 209.80L145.00 215.50L150.26 217.08ZM145.00 215.50L143.61 209.80L138.36 208.22L134.49 212.35L135.87 218.05L141.13 219.63ZM156.62 203.13L155.24 197.42L149.98 195.84L146.10 199.97L147.49 205.67L152.75 207.26ZM147.49 205.67L146.10 199.97L140.84 198.39L136.97 202.52L138.36 208.22L143.61 209.80ZM160.77 220.25L159.39 214.54L154.13 212.96L150.26 217.08L151.64 222.79L156.90 224.37ZM151.64 222.79L150.26 217.08L145.00 215.50L141.13 219.63L142.51 225.33L147.77 226.91ZM163.26 210.42L161.88 204.71L156.62 203.13L152.75 207.26L154.13 212.96L159.39 214.54ZM129.23 210.77L127.84 205.06L122.59 203.49L118.72 207.62L120.11 213.32L125.36 214.89ZM120.11 213.32L118.72 207.62L113.47 206.04L109.60 210.17L110.99 215.87L116.24 217.44ZM131.71 200.94L130.33 195.23L125.07 193.66L121.20 197.78L122.59 203.49L127.84 205.06ZM122.59 203.49L121.20 197.78L115.94 196.21L112.08 200.34L113.47 206.04L118.72 207.62ZM135.87 218.05L134.49 212.35L129.23 210.77L125.36 214.89L126.75 220.59L132.00 222.17ZM126.75 220.59L125.36 214.89L120.11 213.32L116.24 217.44L117.63 223.14L122.88 224.72ZM138.36 208.22L136.97 202.52L131.71 200.94L127.84 205.06L129.23 210.77L134.49 212.35ZM168.26 190.75L166.87 185.04L161.61 183.46L157.73 187.58L159.11 193.29L164.38 194.88ZM159.11 193.29L157.73 187.58L152.47 186.00L148.59 190.13L149.98 195.84L155.24 197.42ZM170.75 180.91L169.37 175.20L164.10 173.61L160.22 177.74L161.61 183.46L166.87 185.04ZM161.61 183.46L160.22 177.74L154.96 176.16L151.08 180.29L152.47 186.00L157.73 187.58ZM174.90 198.05L173.52 192.33L168.26 190.75L164.38 194.88L165.76 200.59L171.02 202.17ZM165.76 200.59L164.38 194.88L159.11 193.29L155.24 197.42L156.62 203.13L161.88 204.71ZM177.40 188.21L176.02 182.49L170.75 180.91L166.87 185.04L168.26 190.75L173.52 192.33ZM79.48 206.44L78.09 200.74L72.84 199.18L68.98 203.31L70.38 209.00L75.63 210.57ZM70.38 209.00L68.98 203.31L63.73 201.74L59.88 205.87L61.28 211.56L66.52 213.13ZM81.95 196.61L80.55 190.91L75.30 189.35L71.44 193.48L72.84 199.18L78.09 200.74ZM72.84 199.18L71.44 193.48L66.19 191.91L62.34 196.04L63.73 201.74L68.98 203.31ZM86.13 213.71L84.73 208.01L79.48 206.44L75.63 210.57L77.02 216.26L82.27 217.83ZM77.02 216.26L75.63 210.57L70.38 209.00L66.52 213.13L67.92 218.82L73.17 220.39ZM88.59 203.88L87.20 198.18L81.95 196.61L78.09 200.74L79.48 206.44L84.73 208.01ZM54.63 204.31L53.24 198.61L47.99 197.05L44.14 201.18L45.54 206.87L50.78 208.44ZM45.54 206.87L44.14 201.18L38.89 199.62L35.04 203.75L36.44 209.44L41.69 211.00ZM57.09 194.48L55.69 188.78L50.44 187.22L46.59 191.35L47.99 197.05L53.24 198.61ZM47.99 197.05L46.59 191.35L41.34 189.79L37.49 193.92L38.89 199.62L44.14 201.18ZM61.28 211.56L59.88 205.87L54.63 204.31L50.78 208.44L52.18 214.13L57.42 215.69ZM52.18 214.13L50.78 208.44L45.54 206.87L41.69 211.00L43.09 216.69L48.33 218.26ZM63.73 201.74L62.34 196.04L57.09 194.48L53.24 198.61L54.63 204.31L59.88 205.87ZM93.53 184.22L92.14 178.52L86.88 176.95L83.02 181.08L84.41 186.78L89.67 188.35ZM84.41 186.78L83.02 181.08L77.76 179.51L73.91 183.65L75.30 189.35L80.55 190.91ZM96.00 174.38L94.61 168.68L89.35 167.11L85.49 171.24L86.88 176.95L92.14 178.52ZM86.88 176.95L85.49 171.24L80.23 169.68L76.37 173.81L77.76 179.51L83.02 181.08ZM100.18 191.49L98.78 185.79L93.53 184.22L89.67 188.35L91.06 194.05L96.31 195.62ZM91.06 194.05L89.67 188.35L84.41 186.78L80.55 190.91L81.95 196.61L87.20 198.18ZM102.65 181.66L101.26 175.95L96.00 174.38L92.14 178.52L93.53 184.22L98.78 185.79ZM68.65 182.08L67.26 176.38L62.00 174.82L58.15 178.95L59.54 184.65L64.80 186.21ZM59.54 184.65L58.15 178.95L52.90 177.39L49.04 181.52L50.44 187.22L55.69 188.78ZM71.11 172.25L69.72 166.54L64.46 164.98L60.61 169.12L62.00 174.82L67.26 176.38ZM62.00 174.82L60.61 169.12L55.35 167.55L51.50 171.69L52.90 177.39L58.15 178.95ZM75.30 189.35L73.91 183.65L68.65 182.08L64.80 186.21L66.19 191.91L71.44 193.48ZM66.19 191.91L64.80 186.21L59.54 184.65L55.69 188.78L57.09 194.48L62.34 196.04ZM77.76 179.51L76.37 173.81L71.11 172.25L67.26 176.38L68.65 182.08L73.91 183.65ZM90.30 230.79L88.91 225.10L83.66 223.53L79.81 227.65L81.20 233.35L86.44 234.92ZM81.20 233.35L79.81 227.65L74.56 226.08L70.71 230.21L72.10 235.90L77.34 237.47ZM92.77 220.97L91.38 215.28L86.13 213.71L82.27 217.83L83.66 223.53L88.91 225.10ZM83.66 223.53L82.27 217.83L77.02 216.26L73.17 220.39L74.56 226.08L79.81 227.65ZM96.94 238.06L95.55 232.36L90.30 230.79L86.44 234.92L87.84 240.61L93.08 242.18ZM87.84 240.61L86.44 234.92L81.20 233.35L77.34 237.47L78.74 243.16L83.98 244.73ZM99.41 228.24L98.02 222.54L92.77 220.97L88.91 225.10L90.30 230.79L95.55 232.36ZM65.46 228.64L64.07 222.95L58.82 221.38L54.97 225.51L56.37 231.20L61.61 232.77ZM56.37 231.20L54.97 225.51L49.73 223.95L45.88 228.07L47.28 233.76L52.52 235.33ZM67.92 218.82L66.52 213.13L61.28 211.56L57.42 215.69L58.82 221.38L64.07 222.95ZM58.82 221.38L57.42 215.69L52.18 214.13L48.33 218.26L49.73 223.95L54.97 225.51ZM72.10 235.90L70.71 230.21L65.46 228.64L61.61 232.77L63.00 238.46L68.25 240.02ZM63.00 238.46L61.61 232.77L56.37 231.20L52.52 235.33L53.91 241.02L59.16 242.58ZM74.56 226.08L73.17 220.39L67.92 218.82L64.07 222.95L65.46 228.64L70.71 230.21ZM104.35 208.59L102.96 202.89L97.70 201.32L93.84 205.45L95.24 211.15L100.49 212.72ZM95.24 211.15L93.84 205.45L88.59 203.88L84.73 208.01L86.13 213.71L91.38 215.28ZM106.82 198.77L105.43 193.06L100.18 191.49L96.31 195.62L97.70 201.32L102.96 202.89ZM97.70 201.32L96.31 195.62L91.06 194.05L87.20 198.18L88.59 203.88L93.84 205.45ZM110.99 215.87L109.60 210.17L104.35 208.59L100.49 212.72L101.88 218.42L107.13 219.99ZM101.88 218.42L100.49 212.72L95.24 211.15L91.38 215.28L92.77 220.97L98.02 222.54ZM113.47 206.04L112.08 200.34L106.82 198.77L102.96 202.89L104.35 208.59L109.60 210.17ZM189.82 239.59L188.44 233.89L183.19 232.30L179.31 236.42L180.69 242.12L185.94 243.71ZM180.69 242.12L179.31 236.42L174.05 234.83L170.17 238.95L171.55 244.65L176.81 246.24ZM192.33 229.77L190.95 224.06L185.69 222.47L181.81 226.59L183.19 232.30L188.44 233.89ZM183.19 232.30L181.81 226.59L176.55 225.00L172.67 229.12L174.05 234.83L179.31 236.42ZM196.46 246.89L195.08 241.18L189.82 239.59L185.94 243.71L187.32 249.41L192.58 251.00ZM187.32 249.41L185.94 243.71L180.69 242.12L176.81 246.24L178.19 251.94L183.44 253.53ZM198.96 237.06L197.59 231.36L192.33 229.77L188.44 233.89L189.82 239.59L195.08 241.18ZM164.92 237.36L163.54 231.66L158.28 230.08L154.41 234.20L155.79 239.90L161.04 241.48ZM155.79 239.90L154.41 234.20L149.15 232.61L145.28 236.73L146.67 242.43L151.92 244.02ZM167.41 227.54L166.03 221.83L160.77 220.25L156.90 224.37L158.28 230.08L163.54 231.66ZM158.28 230.08L156.90 224.37L151.64 222.79L147.77 226.91L149.15 232.61L154.41 234.20ZM171.55 244.65L170.17 238.95L164.92 237.36L161.04 241.48L162.43 247.18L167.68 248.77ZM162.43 247.18L161.04 241.48L155.79 239.90L151.92 244.02L153.30 249.72L158.55 251.30ZM174.05 234.83L172.67 229.12L167.41 227.54L163.54 231.66L164.92 237.36L170.17 238.95ZM203.98 217.41L202.60 211.69L197.33 210.10L193.45 214.23L194.83 219.94L200.09 221.53ZM194.83 219.94L193.45 214.23L188.19 212.64L184.31 216.76L185.69 222.47L190.95 224.06ZM206.49 207.57L205.11 201.86L199.84 200.27L195.96 204.39L197.33 210.10L202.60 211.69ZM197.33 210.10L195.96 204.39L190.69 202.80L186.81 206.93L188.19 212.64L193.45 214.23ZM210.62 224.71L209.24 219.00L203.98 217.41L200.09 221.53L201.47 227.24L206.73 228.83ZM201.47 227.24L200.09 221.53L194.83 219.94L190.95 224.06L192.33 229.77L197.59 231.36ZM213.13 214.88L211.75 209.16L206.49 207.57L202.60 211.69L203.98 217.41L209.24 219.00ZM179.05 215.17L177.66 209.47L172.40 207.88L168.52 212.00L169.91 217.71L175.17 219.30ZM169.91 217.71L168.52 212.00L163.26 210.42L159.39 214.54L160.77 220.25L166.03 221.83ZM181.55 205.34L180.16 199.63L174.90 198.05L171.02 202.17L172.40 207.88L177.66 209.47ZM172.40 207.88L171.02 202.17L165.76 200.59L161.88 204.71L163.26 210.42L168.52 212.00ZM185.69 222.47L184.31 216.76L179.05 215.17L175.17 219.30L176.55 225.00L181.81 226.59ZM176.55 225.00L175.17 219.30L169.91 217.71L166.03 221.83L167.41 227.54L172.67 229.12ZM188.19 212.64L186.81 206.93L181.55 205.34L177.66 209.47L179.05 215.17L184.31 216.76ZM203.09 254.19L201.72 248.48L196.46 246.89L192.58 251.00L193.96 256.71L199.21 258.30ZM193.96 256.71L192.58 251.00L187.32 249.41L183.44 253.53L184.82 259.23L190.08 260.82ZM209.73 261.48L208.35 255.78L203.09 254.19L199.21 258.30L200.59 264.00L205.84 265.60ZM175.69 261.76L174.31 256.06L169.06 254.47L165.19 258.59L166.57 264.29L171.82 265.87ZM178.19 251.94L176.81 246.24L171.55 244.65L167.68 248.77L169.06 254.47L174.31 256.06ZM169.06 254.47L167.68 248.77L162.43 247.18L158.55 251.30L159.94 257.00L165.19 258.59ZM184.82 259.23L183.44 253.53L178.19 251.94L174.31 256.06L175.69 261.76L180.95 263.35ZM214.74 241.84L213.37 236.13L208.11 234.54L204.22 238.66L205.60 244.36L210.86 245.96ZM205.60 244.36L204.22 238.66L198.96 237.06L195.08 241.18L196.46 246.89L201.72 248.48ZM217.25 232.01L215.88 226.30L210.62 224.71L206.73 228.83L208.11 234.54L213.37 236.13ZM208.11 234.54L206.73 228.83L201.47 227.24L197.59 231.36L198.96 237.06L204.22 238.66ZM221.38 249.14L220.00 243.43L214.74 241.84L210.86 245.96L212.23 251.66L217.49 253.26ZM212.23 251.66L210.86 245.96L205.60 244.36L201.72 248.48L203.09 254.19L208.35 255.78ZM223.89 239.32L222.52 233.61L217.25 232.01L213.37 236.13L214.74 241.84L220.00 243.43ZM0.77 183.03L-0.63 177.34L-5.88 175.78L-9.72 179.92L-8.31 185.61L-3.07 187.16ZM3.21 173.20L1.80 167.50L-3.44 165.95L-7.28 170.09L-5.88 175.78L-0.63 177.34ZM15.16 261.07L13.76 255.38L8.52 253.83L4.69 257.95L6.09 263.63L11.32 265.19ZM15.83 224.40L14.43 218.71L9.19 217.16L5.35 221.29L6.75 226.97L11.99 228.53ZM6.75 226.97L5.35 221.29L0.11 219.73L-3.72 223.86L-2.32 229.54L2.92 231.10ZM18.27 214.58L16.87 208.89L11.63 207.34L7.79 211.47L9.19 217.16L14.43 218.71ZM9.19 217.16L7.79 211.47L2.55 209.91L-1.29 214.05L0.11 219.73L5.35 221.29ZM22.47 231.64L21.07 225.96L15.83 224.40L11.99 228.53L13.39 234.21L18.63 235.77ZM13.39 234.21L11.99 228.53L6.75 226.97L2.92 231.10L4.32 236.78L9.56 238.34ZM24.91 221.83L23.51 216.14L18.27 214.58L14.43 218.71L15.83 224.40L21.07 225.96ZM0.11 219.73L-1.29 214.05L-6.53 212.49L-10.36 216.62L-8.96 222.31L-3.72 223.86ZM29.80 202.19L28.40 196.50L23.15 194.94L19.31 199.07L20.71 204.76L25.95 206.32ZM20.71 204.76L19.31 199.07L14.07 197.52L10.22 201.65L11.63 207.34L16.87 208.89ZM32.25 192.36L30.84 186.67L25.60 185.11L21.75 189.25L23.15 194.94L28.40 196.50ZM23.15 194.94L21.75 189.25L16.51 187.69L12.66 191.83L14.07 197.52L19.31 199.07ZM36.44 209.44L35.04 203.75L29.80 202.19L25.95 206.32L27.35 212.01L32.60 213.57ZM27.35 212.01L25.95 206.32L20.71 204.76L16.87 208.89L18.27 214.58L23.51 216.14ZM38.89 199.62L37.49 193.92L32.25 192.36L28.40 196.50L29.80 202.19L35.04 203.75ZM4.98 200.09L3.58 194.41L-1.66 192.85L-5.50 196.99L-4.10 202.67L1.14 204.23ZM7.42 190.27L6.02 184.58L0.77 183.03L-3.07 187.16L-1.66 192.85L3.58 194.41ZM11.63 207.34L10.22 201.65L4.98 200.09L1.14 204.23L2.55 209.91L7.79 211.47ZM2.55 209.91L1.14 204.23L-4.10 202.67L-7.93 206.81L-6.53 212.49L-1.29 214.05ZM14.07 197.52L12.66 191.83L7.42 190.27L3.58 194.41L4.98 200.09L10.22 201.65ZM26.67 248.70L25.27 243.01L20.03 241.45L16.19 245.58L17.59 251.26L22.83 252.82ZM17.59 251.26L16.19 245.58L10.96 244.02L7.12 248.15L8.52 253.83L13.76 255.38ZM29.11 238.89L27.71 233.20L22.47 231.64L18.63 235.77L20.03 241.45L25.27 243.01ZM20.03 241.45L18.63 235.77L13.39 234.21L9.56 238.34L10.96 244.02L16.19 245.58ZM33.30 255.94L31.90 250.26L26.67 248.70L22.83 252.82L24.23 258.50L29.46 260.06ZM24.23 258.50L22.83 252.82L17.59 251.26L13.76 255.38L15.16 261.07L20.39 262.62ZM35.75 246.14L34.35 240.45L29.11 238.89L25.27 243.01L26.67 248.70L31.90 250.26ZM1.89 246.59L0.48 240.91L-4.75 239.35L-8.58 243.48L-7.18 249.16L-1.95 250.71ZM4.32 236.78L2.92 231.10L-2.32 229.54L-6.15 233.67L-4.75 239.35L0.48 240.91ZM8.52 253.83L7.12 248.15L1.89 246.59L-1.95 250.71L-0.55 256.39L4.69 257.95ZM10.96 244.02L9.56 238.34L4.32 236.78L0.48 240.91L1.89 246.59L7.12 248.15ZM40.64 226.51L39.24 220.82L34.00 219.26L30.15 223.39L31.55 229.08L36.79 230.64ZM31.55 229.08L30.15 223.39L24.91 221.83L21.07 225.96L22.47 231.64L27.71 233.20ZM43.09 216.69L41.69 211.00L36.44 209.44L32.60 213.57L34.00 219.26L39.24 220.82ZM34.00 219.26L32.60 213.57L27.35 212.01L23.51 216.14L24.91 221.83L30.15 223.39ZM47.28 233.76L45.88 228.07L40.64 226.51L36.79 230.64L38.19 236.32L43.43 237.89ZM38.19 236.32L36.79 230.64L31.55 229.08L27.71 233.20L29.11 238.89L34.35 240.45ZM49.73 223.95L48.33 218.26L43.09 216.69L39.24 220.82L40.64 226.51L45.88 228.07ZM225.01 101.72L223.63 95.99L218.34 94.40L214.44 98.54L215.82 104.27L221.10 105.86ZM215.82 104.27L214.44 98.54L209.16 96.95L205.26 101.09L206.64 106.82L211.92 108.41ZM227.53 91.84L226.15 86.11L220.87 84.52L216.96 88.66L218.34 94.40L223.63 95.99ZM218.34 94.40L216.96 88.66L211.68 87.08L207.77 91.22L209.16 96.95L214.44 98.54ZM231.67 109.04L230.29 103.31L225.01 101.72L221.10 105.86L222.48 111.59L227.76 113.18ZM222.48 111.59L221.10 105.86L215.82 104.27L211.92 108.41L213.30 114.14L218.58 115.73ZM234.20 99.17L232.82 93.43L227.53 91.84L223.63 95.99L225.01 101.72L230.29 103.31ZM199.98 99.51L198.59 93.78L193.31 92.19L189.41 96.34L190.80 102.06L196.08 103.65ZM190.80 102.06L189.41 96.34L184.13 94.75L180.24 98.90L181.62 104.62L186.90 106.21ZM202.49 89.63L201.11 83.90L195.83 82.32L191.93 86.46L193.31 92.19L198.59 93.78ZM193.31 92.19L191.93 86.46L186.64 84.88L182.75 89.03L184.13 94.75L189.41 96.34ZM206.64 106.82L205.26 101.09L199.98 99.51L196.08 103.65L197.46 109.38L202.74 110.96ZM197.46 109.38L196.08 103.65L190.80 102.06L186.90 106.21L188.29 111.93L193.56 113.52ZM209.16 96.95L207.77 91.22L202.49 89.63L198.59 93.78L199.98 99.51L205.26 101.09ZM239.26 79.41L237.88 73.68L232.59 72.08L228.68 76.23L230.06 81.97L235.35 83.56ZM230.06 81.97L228.68 76.23L223.39 74.64L219.49 78.79L220.87 84.52L226.15 86.11ZM241.79 69.53L240.41 63.79L235.12 62.20L231.21 66.35L232.59 72.08L237.88 73.68ZM232.59 72.08L231.21 66.35L225.92 64.76L222.01 68.90L223.39 74.64L228.68 76.23ZM245.92 86.74L244.55 81.01L239.26 79.41L235.35 83.56L236.73 89.29L242.01 90.88ZM236.73 89.29L235.35 83.56L230.06 81.97L226.15 86.11L227.53 91.84L232.82 93.43ZM248.46 76.86L247.08 71.12L241.79 69.53L237.88 73.68L239.26 79.41L244.55 81.01ZM214.20 77.20L212.82 71.46L207.53 69.88L203.63 74.02L205.01 79.76L210.29 81.34ZM205.01 79.76L203.63 74.02L198.34 72.44L194.44 76.59L195.83 82.32L201.11 83.90ZM216.72 67.32L215.34 61.58L210.05 59.99L206.15 64.14L207.53 69.88L212.82 71.46ZM207.53 69.88L206.15 64.14L200.86 62.56L196.96 66.71L198.34 72.44L203.63 74.02ZM220.87 84.52L219.49 78.79L214.20 77.20L210.29 81.34L211.68 87.08L216.96 88.66ZM211.68 87.08L210.29 81.34L205.01 79.76L201.11 83.90L202.49 89.63L207.77 91.22ZM223.39 74.64L222.01 68.90L216.72 67.32L212.82 71.46L214.20 77.20L219.49 78.79ZM235.80 126.23L234.43 120.50L229.14 118.91L225.24 123.05L226.62 128.77L231.90 130.37ZM226.62 128.77L225.24 123.05L219.96 121.46L216.06 125.59L217.44 131.32L222.72 132.91ZM238.33 116.36L236.95 110.63L231.67 109.04L227.76 113.18L229.14 118.91L234.43 120.50ZM229.14 118.91L227.76 113.18L222.48 111.59L218.58 115.73L219.96 121.46L225.24 123.05ZM242.46 133.55L241.08 127.82L235.80 126.23L231.90 130.37L233.28 136.09L238.56 137.69ZM233.28 136.09L231.90 130.37L226.62 128.77L222.72 132.91L224.10 138.64L229.37 140.23ZM244.99 123.69L243.61 117.96L238.33 116.36L234.43 120.50L235.80 126.23L241.08 127.82ZM210.78 124.00L209.40 118.28L204.12 116.69L200.22 120.83L201.61 126.55L206.88 128.14ZM201.61 126.55L200.22 120.83L194.95 119.24L191.05 123.38L192.44 129.10L197.71 130.69ZM213.30 114.14L211.92 108.41L206.64 106.82L202.74 110.96L204.12 116.69L209.40 118.28ZM204.12 116.69L202.74 110.96L197.46 109.38L193.56 113.52L194.95 119.24L200.22 120.83ZM217.44 131.32L216.06 125.59L210.78 124.00L206.88 128.14L208.26 133.87L213.54 135.46ZM208.26 133.87L206.88 128.14L201.61 126.55L197.71 130.69L199.09 136.41L204.37 138.00ZM219.96 121.46L218.58 115.73L213.30 114.14L209.40 118.28L210.78 124.00L216.06 125.59ZM250.05 103.95L248.68 98.21L243.39 96.62L239.48 100.76L240.86 106.49L246.14 108.09ZM240.86 106.49L239.48 100.76L234.20 99.17L230.29 103.31L231.67 109.04L236.95 110.63ZM252.59 94.07L251.21 88.34L245.92 86.74L242.01 90.88L243.39 96.62L248.68 98.21ZM243.39 96.62L242.01 90.88L236.73 89.29L232.82 93.43L234.20 99.17L239.48 100.76ZM256.72 111.28L255.34 105.54L250.05 103.95L246.14 108.09L247.52 113.82L252.81 115.42ZM247.52 113.82L246.14 108.09L240.86 106.49L236.95 110.63L238.33 116.36L243.61 117.96ZM259.25 101.41L257.88 95.67L252.59 94.07L248.68 98.21L250.05 103.95L255.34 105.54ZM160.79 119.61L159.40 113.89L154.13 112.31L150.24 116.45L151.63 122.17L156.90 123.75ZM151.63 122.17L150.24 116.45L144.97 114.87L141.09 119.02L142.48 124.73L147.75 126.31ZM163.29 109.75L161.90 104.02L156.63 102.44L152.74 106.59L154.13 112.31L159.40 113.89ZM154.13 112.31L152.74 106.59L147.46 105.01L143.58 109.15L144.97 114.87L150.24 116.45ZM167.45 126.91L166.06 121.19L160.79 119.61L156.90 123.75L158.29 129.47L163.56 131.05ZM158.29 129.47L156.90 123.75L151.63 122.17L147.75 126.31L149.13 132.03L154.41 133.61ZM169.95 117.05L168.56 111.33L163.29 109.75L159.40 113.89L160.79 119.61L166.06 121.19ZM135.82 117.44L134.43 111.72L129.15 110.15L125.27 114.29L126.67 120.01L131.94 121.58ZM126.67 120.01L125.27 114.29L120.01 112.72L116.13 116.86L117.52 122.58L122.79 124.15ZM138.31 107.58L136.92 101.86L131.64 100.28L127.76 104.43L129.15 110.15L134.43 111.72ZM129.15 110.15L127.76 104.43L122.49 102.86L118.61 107.00L120.01 112.72L125.27 114.29ZM142.48 124.73L141.09 119.02L135.82 117.44L131.94 121.58L133.33 127.30L138.60 128.87ZM133.33 127.30L131.94 121.58L126.67 120.01L122.79 124.15L124.18 129.87L129.45 131.44ZM144.97 114.87L143.58 109.15L138.31 107.58L134.43 111.72L135.82 117.44L141.09 119.02ZM174.96 97.31L173.57 91.59L168.29 90.01L164.40 94.15L165.79 99.88L171.07 101.46ZM165.79 99.88L164.40 94.15L159.13 92.58L155.24 96.72L156.63 102.44L161.90 104.02ZM177.47 87.44L176.08 81.72L170.80 80.13L166.91 84.28L168.29 90.01L173.57 91.59ZM168.29 90.01L166.91 84.28L161.63 82.70L157.74 86.85L159.13 92.58L164.40 94.15ZM181.62 104.62L180.24 98.90L174.96 97.31L171.07 101.46L172.45 107.18L177.73 108.76ZM172.45 107.18L171.07 101.46L165.79 99.88L161.90 104.02L163.29 109.75L168.56 111.33ZM184.13 94.75L182.75 89.03L177.47 87.44L173.57 91.59L174.96 97.31L180.24 98.90ZM149.96 95.14L148.57 89.42L143.30 87.84L139.41 91.99L140.80 97.71L146.08 99.29ZM140.80 97.71L139.41 91.99L134.14 90.42L130.25 94.56L131.64 100.28L136.92 101.86ZM152.46 85.27L151.07 79.55L145.79 77.97L141.90 82.12L143.30 87.84L148.57 89.42ZM143.30 87.84L141.90 82.12L136.63 80.55L132.74 84.70L134.14 90.42L139.41 91.99ZM156.63 102.44L155.24 96.72L149.96 95.14L146.08 99.29L147.46 105.01L152.74 106.59ZM147.46 105.01L146.08 99.29L140.80 97.71L136.92 101.86L138.31 107.58L143.58 109.15ZM159.13 92.58L157.74 86.85L152.46 85.27L148.57 89.42L149.96 95.14L155.24 96.72ZM171.60 144.07L170.22 138.35L164.95 136.77L161.06 140.90L162.45 146.62L167.72 148.20ZM162.45 146.62L161.06 140.90L155.79 139.32L151.91 143.46L153.30 149.18L158.56 150.76ZM174.11 134.21L172.72 128.49L167.45 126.91L163.56 131.05L164.95 136.77L170.22 138.35ZM164.95 136.77L163.56 131.05L158.29 129.47L154.41 133.61L155.79 139.32L161.06 140.90ZM178.26 151.37L176.87 145.65L171.60 144.07L167.72 148.20L169.10 153.92L174.37 155.50ZM169.10 153.92L167.72 148.20L162.45 146.62L158.56 150.76L159.95 156.47L165.22 158.05ZM180.76 141.51L179.38 135.79L174.11 134.21L170.22 138.35L171.60 144.07L176.87 145.65ZM146.64 141.88L145.25 136.17L139.98 134.59L136.11 138.73L137.49 144.44L142.76 146.02ZM137.49 144.44L136.11 138.73L130.84 137.15L126.96 141.29L128.35 147.01L133.62 148.58ZM149.13 132.03L147.75 126.31L142.48 124.73L138.60 128.87L139.98 134.59L145.25 136.17ZM139.98 134.59L138.60 128.87L133.33 127.30L129.45 131.44L130.84 137.15L136.11 138.73ZM153.30 149.18L151.91 143.46L146.64 141.88L142.76 146.02L144.15 151.73L149.42 153.31ZM144.15 151.73L142.76 146.02L137.49 144.44L133.62 148.58L135.01 154.29L140.27 155.87ZM155.79 139.32L154.41 133.61L149.13 132.03L145.25 136.17L146.64 141.88L151.91 143.46ZM185.78 121.80L184.39 116.07L179.12 114.49L175.23 118.63L176.61 124.35L181.89 125.94ZM176.61 124.35L175.23 118.63L169.95 117.05L166.06 121.19L167.45 126.91L172.72 128.49ZM188.29 111.93L186.90 106.21L181.62 104.62L177.73 108.76L179.12 114.49L184.39 116.07ZM179.12 114.49L177.73 108.76L172.45 107.18L168.56 111.33L169.95 117.05L175.23 118.63ZM192.44 129.10L191.05 123.38L185.78 121.80L181.89 125.94L183.27 131.66L188.54 133.24ZM183.27 131.66L181.89 125.94L176.61 124.35L172.72 128.49L174.11 134.21L179.38 135.79ZM194.95 119.24L193.56 113.52L188.29 111.93L184.39 116.07L185.78 121.80L191.05 123.38ZM242.72 32.52L241.34 26.78L236.04 25.19L232.13 29.34L233.51 35.09L238.80 36.68ZM233.51 35.09L232.13 29.34L226.83 27.75L222.92 31.91L224.30 37.65L229.60 39.24ZM245.26 22.63L243.88 16.88L238.58 15.29L234.66 19.44L236.04 25.19L241.34 26.78ZM236.04 25.19L234.66 19.44L229.36 17.86L225.45 22.01L226.83 27.75L232.13 29.34ZM249.40 39.86L248.02 34.12L242.72 32.52L238.80 36.68L240.19 42.42L245.48 44.01ZM240.19 42.42L238.80 36.68L233.51 35.09L229.60 39.24L230.98 44.98L236.27 46.57ZM251.94 29.96L250.56 24.22L245.26 22.63L241.34 26.78L242.72 32.52L248.02 34.12ZM217.63 30.32L216.24 24.58L210.95 22.99L207.04 27.15L208.42 32.89L213.72 34.48ZM208.42 32.89L207.04 27.15L201.75 25.57L197.84 29.72L199.22 35.46L204.52 37.04ZM220.15 20.42L218.77 14.68L213.47 13.09L209.56 17.25L210.95 22.99L216.24 24.58ZM210.95 22.99L209.56 17.25L204.27 15.67L200.36 19.83L201.75 25.57L207.04 27.15ZM224.30 37.65L222.92 31.91L217.63 30.32L213.72 34.48L215.10 40.22L220.39 41.80ZM215.10 40.22L213.72 34.48L208.42 32.89L204.52 37.04L205.90 42.78L211.19 44.37ZM226.83 27.75L225.45 22.01L220.15 20.42L216.24 24.58L217.63 30.32L222.92 31.91ZM257.02 10.16L255.64 4.41L250.34 2.82L246.42 6.97L247.80 12.72L253.10 14.32ZM247.80 12.72L246.42 6.97L241.12 5.38L237.20 9.54L238.58 15.29L243.88 16.88ZM259.56 0.25L258.18 -5.50L252.88 -7.09L248.96 -2.93L250.34 2.82L255.64 4.41ZM250.34 2.82L248.96 -2.93L243.65 -4.52L239.73 -0.36L241.12 5.38L246.42 6.97ZM263.70 17.50L262.32 11.75L257.02 10.16L253.10 14.32L254.48 20.06L259.78 21.66ZM254.48 20.06L253.10 14.32L247.80 12.72L243.88 16.88L245.26 22.63L250.56 24.22ZM266.25 7.60L264.87 1.85L259.56 0.25L255.64 4.41L257.02 10.16L262.32 11.75ZM231.90 7.95L230.51 2.21L225.22 0.62L221.30 4.78L222.68 10.52L227.98 12.11ZM222.68 10.52L221.30 4.78L216.00 3.19L212.09 7.35L213.47 13.09L218.77 14.68ZM234.43 -1.95L233.05 -7.70L227.75 -9.29L223.83 -5.13L225.22 0.62L230.51 2.21ZM225.22 0.62L223.83 -5.13L218.53 -6.71L214.62 -2.55L216.00 3.19L221.30 4.78ZM238.58 15.29L237.20 9.54L231.90 7.95L227.98 12.11L229.36 17.86L234.66 19.44ZM229.36 17.86L227.98 12.11L222.68 10.52L218.77 14.68L220.15 20.42L225.45 22.01ZM241.12 5.38L239.73 -0.36L234.43 -1.95L230.51 2.21L231.90 7.95L237.20 9.54ZM253.53 57.09L252.15 51.35L246.86 49.75L242.94 53.90L244.32 59.64L249.62 61.24ZM244.32 59.64L242.94 53.90L237.65 52.31L233.74 56.46L235.12 62.20L240.41 63.79ZM256.07 47.20L254.69 41.45L249.40 39.86L245.48 44.01L246.86 49.75L252.15 51.35ZM246.86 49.75L245.48 44.01L240.19 42.42L236.27 46.57L237.65 52.31L242.94 53.90ZM260.20 64.43L258.83 58.68L253.53 57.09L249.62 61.24L250.99 66.98L256.29 68.57ZM250.99 66.98L249.62 61.24L244.32 59.64L240.41 63.79L241.79 69.53L247.08 71.12ZM262.74 54.54L261.37 48.79L256.07 47.20L252.15 51.35L253.53 57.09L258.83 58.68ZM228.45 54.87L227.07 49.13L221.77 47.54L217.86 51.69L219.25 57.43L224.54 59.02ZM219.25 57.43L217.86 51.69L212.57 50.11L208.67 54.26L210.05 59.99L215.34 61.58ZM230.98 44.98L229.60 39.24L224.30 37.65L220.39 41.80L221.77 47.54L227.07 49.13ZM221.77 47.54L220.39 41.80L215.10 40.22L211.19 44.37L212.57 50.11L217.86 51.69ZM235.12 62.20L233.74 56.46L228.45 54.87L224.54 59.02L225.92 64.76L231.21 66.35ZM225.92 64.76L224.54 59.02L219.25 57.43L215.34 61.58L216.72 67.32L222.01 68.90ZM237.65 52.31L236.27 46.57L230.98 44.98L227.07 49.13L228.45 54.87L233.74 56.46ZM258.61 37.30L257.23 31.56L251.94 29.96L248.02 34.12L249.40 39.86L254.69 41.45ZM261.16 27.40L259.78 21.66L254.48 20.06L250.56 24.22L251.94 29.96L257.23 31.56ZM265.29 44.64L263.91 38.90L258.61 37.30L254.69 41.45L256.07 47.20L261.37 48.79ZM178.33 50.49L176.94 44.76L171.65 43.18L167.75 47.33L169.14 53.07L174.43 54.65ZM169.14 53.07L167.75 47.33L162.47 45.76L158.57 49.91L159.96 55.64L165.25 57.22ZM180.84 40.60L179.45 34.87L174.16 33.29L170.26 37.45L171.65 43.18L176.94 44.76ZM171.65 43.18L170.26 37.45L164.98 35.87L161.08 40.02L162.47 45.76L167.75 47.33ZM185.00 57.81L183.61 52.07L178.33 50.49L174.43 54.65L175.82 60.38L181.10 61.96ZM175.82 60.38L174.43 54.65L169.14 53.07L165.25 57.22L166.64 62.95L171.92 64.53ZM187.51 47.92L186.13 42.19L180.84 40.60L176.94 44.76L178.33 50.49L183.61 52.07ZM153.29 48.33L151.90 42.60L146.62 41.03L142.72 45.18L144.12 50.91L149.40 52.49ZM144.12 50.91L142.72 45.18L137.44 43.61L133.55 47.77L134.95 53.49L140.23 55.07ZM155.79 38.45L154.40 32.71L149.12 31.14L145.22 35.30L146.62 41.03L151.90 42.60ZM146.62 41.03L145.22 35.30L139.94 33.72L136.05 37.88L137.44 43.61L142.72 45.18ZM159.96 55.64L158.57 49.91L153.29 48.33L149.40 52.49L150.79 58.22L156.07 59.79ZM150.79 58.22L149.40 52.49L144.12 50.91L140.23 55.07L141.62 60.79L146.90 62.37ZM162.47 45.76L161.08 40.02L155.79 38.45L151.90 42.60L153.29 48.33L158.57 49.91ZM192.55 28.14L191.16 22.40L185.87 20.82L181.96 24.98L183.35 30.71L188.64 32.29ZM183.35 30.71L181.96 24.98L176.67 23.40L172.77 27.55L174.16 33.29L179.45 34.87ZM195.07 18.24L193.68 12.50L188.39 10.92L184.48 15.08L185.87 20.82L191.16 22.40ZM185.87 20.82L184.48 15.08L179.19 13.50L175.29 17.66L176.67 23.40L181.96 24.98ZM199.22 35.46L197.84 29.72L192.55 28.14L188.64 32.29L190.03 38.03L195.32 39.61ZM190.03 38.03L188.64 32.29L183.35 30.71L179.45 34.87L180.84 40.60L186.13 42.19ZM201.75 25.57L200.36 19.83L195.07 18.24L191.16 22.40L192.55 28.14L197.84 29.72ZM167.48 25.98L166.09 20.24L160.81 18.66L156.91 22.82L158.30 28.56L163.59 30.13ZM158.30 28.56L156.91 22.82L151.62 21.25L147.72 25.41L149.12 31.14L154.40 32.71ZM169.99 16.08L168.60 10.34L163.31 8.77L159.41 12.93L160.81 18.66L166.09 20.24ZM160.81 18.66L159.41 12.93L154.12 11.35L150.23 15.51L151.62 21.25L156.91 22.82ZM174.16 33.29L172.77 27.55L167.48 25.98L163.59 30.13L164.98 35.87L170.26 37.45ZM164.98 35.87L163.59 30.13L158.30 28.56L154.40 32.71L155.79 38.45L161.08 40.02ZM176.67 23.40L175.29 17.66L169.99 16.08L166.09 20.24L167.48 25.98L172.77 27.55ZM189.16 75.00L187.77 69.27L182.49 67.69L178.59 71.84L179.98 77.57L185.26 79.15ZM179.98 77.57L178.59 71.84L173.31 70.26L169.41 74.41L170.80 80.13L176.08 81.72ZM191.67 65.12L190.29 59.39L185.00 57.81L181.10 61.96L182.49 67.69L187.77 69.27ZM182.49 67.69L181.10 61.96L175.82 60.38L171.92 64.53L173.31 70.26L178.59 71.84ZM195.83 82.32L194.44 76.59L189.16 75.00L185.26 79.15L186.64 84.88L191.93 86.46ZM186.64 84.88L185.26 79.15L179.98 77.57L176.08 81.72L177.47 87.44L182.75 89.03ZM198.34 72.44L196.96 66.71L191.67 65.12L187.77 69.27L189.16 75.00L194.44 76.59ZM164.13 72.83L162.74 67.10L157.46 65.52L153.57 69.67L154.96 75.40L160.24 76.98ZM154.96 75.40L153.57 69.67L148.29 68.10L144.40 72.25L145.79 77.97L151.07 79.55ZM166.64 62.95L165.25 57.22L159.96 55.64L156.07 59.79L157.46 65.52L162.74 67.10ZM157.46 65.52L156.07 59.79L150.79 58.22L146.90 62.37L148.29 68.10L153.57 69.67ZM170.80 80.13L169.41 74.41L164.13 72.83L160.24 76.98L161.63 82.70L166.91 84.28ZM161.63 82.70L160.24 76.98L154.96 75.40L151.07 79.55L152.46 85.27L157.74 86.85ZM173.31 70.26L171.92 64.53L166.64 62.95L162.74 67.10L164.13 72.83L169.41 74.41ZM203.38 52.67L201.99 46.93L196.70 45.35L192.80 49.50L194.19 55.24L199.47 56.82ZM194.19 55.24L192.80 49.50L187.51 47.92L183.61 52.07L185.00 57.81L190.29 59.39ZM205.90 42.78L204.52 37.04L199.22 35.46L195.32 39.61L196.70 45.35L201.99 46.93ZM196.70 45.35L195.32 39.61L190.03 38.03L186.13 42.19L187.51 47.92L192.80 49.50ZM210.05 59.99L208.67 54.26L203.38 52.67L199.47 56.82L200.86 62.56L206.15 64.14ZM200.86 62.56L199.47 56.82L194.19 55.24L190.29 59.39L191.67 65.12L196.96 66.71ZM212.57 50.11L211.19 44.37L205.90 42.78L201.99 46.93L203.38 52.67L208.67 54.26ZM262.42 155.53L261.05 149.80L255.77 148.20L251.87 152.33L253.24 158.06L258.52 159.66ZM264.96 145.67L263.59 139.94L258.30 138.34L254.40 142.48L255.77 148.20L261.05 149.80ZM246.59 150.74L245.21 145.01L239.93 143.42L236.03 147.55L237.41 153.27L242.68 154.87ZM237.41 153.27L236.03 147.55L230.75 145.95L226.85 150.09L228.23 155.81L233.51 157.40ZM249.12 140.88L247.74 135.15L242.46 133.55L238.56 137.69L239.93 143.42L245.21 145.01ZM239.93 143.42L238.56 137.69L233.28 136.09L229.37 140.23L230.75 145.95L236.03 147.55ZM253.24 158.06L251.87 152.33L246.59 150.74L242.68 154.87L244.06 160.59L249.34 162.19ZM244.06 160.59L242.68 154.87L237.41 153.27L233.51 157.40L234.88 163.13L240.16 164.72ZM255.77 148.20L254.40 142.48L249.12 140.88L245.21 145.01L246.59 150.74L251.87 152.33ZM260.84 128.48L259.47 122.75L254.18 121.15L250.27 125.28L251.65 131.02L256.93 132.61ZM251.65 131.02L250.27 125.28L244.99 123.69L241.08 127.82L242.46 133.55L247.74 135.15ZM263.38 118.61L262.00 112.88L256.72 111.28L252.81 115.42L254.18 121.15L259.47 122.75ZM254.18 121.15L252.81 115.42L247.52 113.82L243.61 117.96L244.99 123.69L250.27 125.28ZM258.30 138.34L256.93 132.61L251.65 131.02L247.74 135.15L249.12 140.88L254.40 142.48ZM257.36 175.24L255.99 169.51L250.71 167.92L246.81 172.04L248.18 177.77L253.46 179.36ZM248.18 177.77L246.81 172.04L241.53 170.45L237.63 174.57L239.01 180.30L244.28 181.89ZM259.89 165.39L258.52 159.66L253.24 158.06L249.34 162.19L250.71 167.92L255.99 169.51ZM250.71 167.92L249.34 162.19L244.06 160.59L240.16 164.72L241.53 170.45L246.81 172.04ZM264.01 182.56L262.63 176.84L257.36 175.24L253.46 179.36L254.83 185.09L260.10 186.69ZM254.83 185.09L253.46 179.36L248.18 177.77L244.28 181.89L245.65 187.61L250.93 189.21ZM266.54 172.71L265.17 166.99L259.89 165.39L255.99 169.51L257.36 175.24L262.63 176.84ZM207.37 170.74L205.99 165.02L200.72 163.43L196.83 167.56L198.21 173.28L203.48 174.87ZM198.21 173.28L196.83 167.56L191.56 165.98L187.67 170.11L189.06 175.82L194.32 177.41ZM209.89 160.89L208.51 155.17L203.24 153.58L199.34 157.71L200.72 163.43L205.99 165.02ZM200.72 163.43L199.34 157.71L194.07 156.12L190.18 160.26L191.56 165.98L196.83 167.56ZM214.02 178.05L212.65 172.33L207.37 170.74L203.48 174.87L204.86 180.59L210.13 182.18ZM204.86 180.59L203.48 174.87L198.21 173.28L194.32 177.41L195.70 183.13L200.97 184.71ZM216.54 168.20L215.16 162.48L209.89 160.89L205.99 165.02L207.37 170.74L212.65 172.33ZM182.41 168.52L181.02 162.80L175.75 161.22L171.87 165.35L173.25 171.07L178.52 172.65ZM173.25 171.07L171.87 165.35L166.60 163.77L162.72 167.90L164.10 173.61L169.37 175.20ZM184.91 158.67L183.53 152.95L178.26 151.37L174.37 155.50L175.75 161.22L181.02 162.80ZM175.75 161.22L174.37 155.50L169.10 153.92L165.22 158.05L166.60 163.77L171.87 165.35ZM189.06 175.82L187.67 170.11L182.41 168.52L178.52 172.65L179.90 178.37L185.17 179.95ZM179.90 178.37L178.52 172.65L173.25 171.07L169.37 175.20L170.75 180.91L176.02 182.49ZM191.56 165.98L190.18 160.26L184.91 158.67L181.02 162.80L182.41 168.52L187.67 170.11ZM221.58 148.49L220.20 142.77L214.92 141.18L211.02 145.31L212.40 151.04L217.68 152.63ZM212.40 151.04L211.02 145.31L205.75 143.72L201.86 147.86L203.24 153.58L208.51 155.17ZM224.10 138.64L222.72 132.91L217.44 131.32L213.54 135.46L214.92 141.18L220.20 142.77ZM214.92 141.18L213.54 135.46L208.26 133.87L204.37 138.00L205.75 143.72L211.02 145.31ZM228.23 155.81L226.85 150.09L221.58 148.49L217.68 152.63L219.06 158.35L224.33 159.94ZM219.06 158.35L217.68 152.63L212.40 151.04L208.51 155.17L209.89 160.89L215.16 162.48ZM230.75 145.95L229.37 140.23L224.10 138.64L220.20 142.77L221.58 148.49L226.85 150.09ZM196.58 146.27L195.20 140.55L189.93 138.96L186.04 143.10L187.42 148.82L192.69 150.41ZM187.42 148.82L186.04 143.10L180.76 141.51L176.87 145.65L178.26 151.37L183.53 152.95ZM199.09 136.41L197.71 130.69L192.44 129.10L188.54 133.24L189.93 138.96L195.20 140.55ZM189.93 138.96L188.54 133.24L183.27 131.66L179.38 135.79L180.76 141.51L186.04 143.10ZM203.24 153.58L201.86 147.86L196.58 146.27L192.69 150.41L194.07 156.12L199.34 157.71ZM194.07 156.12L192.69 150.41L187.42 148.82L183.53 152.95L184.91 158.67L190.18 160.26ZM205.75 143.72L204.37 138.00L199.09 136.41L195.20 140.55L196.58 146.27L201.86 147.86ZM218.15 195.20L216.78 189.49L211.51 187.89L207.62 192.02L209.00 197.73L214.26 199.33ZM209.00 197.73L207.62 192.02L202.35 190.43L198.46 194.55L199.84 200.27L205.11 201.86ZM220.67 185.36L219.29 179.64L214.02 178.05L210.13 182.18L211.51 187.89L216.78 189.49ZM211.51 187.89L210.13 182.18L204.86 180.59L200.97 184.71L202.35 190.43L207.62 192.02ZM224.80 202.51L223.42 196.80L218.15 195.20L214.26 199.33L215.64 205.04L220.91 206.63ZM215.64 205.04L214.26 199.33L209.00 197.73L205.11 201.86L206.49 207.57L211.75 209.16ZM227.32 192.67L225.94 186.95L220.67 185.36L216.78 189.49L218.15 195.20L223.42 196.80ZM193.20 192.97L191.82 187.25L186.55 185.67L182.67 189.79L184.05 195.51L189.31 197.09ZM184.05 195.51L182.67 189.79L177.40 188.21L173.52 192.33L174.90 198.05L180.16 199.63ZM195.70 183.13L194.32 177.41L189.06 175.82L185.17 179.95L186.55 185.67L191.82 187.25ZM186.55 185.67L185.17 179.95L179.90 178.37L176.02 182.49L177.40 188.21L182.67 189.79ZM199.84 200.27L198.46 194.55L193.20 192.97L189.31 197.09L190.69 202.80L195.96 204.39ZM190.69 202.80L189.31 197.09L184.05 195.51L180.16 199.63L181.55 205.34L186.81 206.93ZM202.35 190.43L200.97 184.71L195.70 183.13L191.82 187.25L193.20 192.97L198.46 194.55ZM232.36 172.98L230.98 167.26L225.71 165.66L221.81 169.79L223.19 175.51L228.46 177.11ZM223.19 175.51L221.81 169.79L216.54 168.20L212.65 172.33L214.02 178.05L219.29 179.64ZM234.88 163.13L233.51 157.40L228.23 155.81L224.33 159.94L225.71 165.66L230.98 167.26ZM225.71 165.66L224.33 159.94L219.06 158.35L215.16 162.48L216.54 168.20L221.81 169.79ZM239.01 180.30L237.63 174.57L232.36 172.98L228.46 177.11L229.84 182.83L235.11 184.42ZM229.84 182.83L228.46 177.11L223.19 175.51L219.29 179.64L220.67 185.36L225.94 186.95ZM241.53 170.45L240.16 164.72L234.88 163.13L230.98 167.26L232.36 172.98L237.63 174.57ZM264.33 81.65L262.95 75.91L257.66 74.31L253.75 78.46L255.12 84.19L260.42 85.79ZM255.12 84.19L253.75 78.46L248.46 76.86L244.55 81.01L245.92 86.74L251.21 88.34ZM257.66 74.31L256.29 68.57L250.99 66.98L247.08 71.12L248.46 76.86L253.75 78.46ZM261.79 91.53L260.42 85.79L255.12 84.19L251.21 88.34L252.59 94.07L257.88 95.67ZM265.91 108.74L264.54 103.00L259.25 101.41L255.34 105.54L256.72 111.28L262.00 112.88ZM50.13 86.65L48.73 80.94L43.46 79.39L39.60 83.54L41.00 89.25L46.27 90.81ZM41.00 89.25L39.60 83.54L34.33 81.98L30.48 86.14L31.88 91.84L37.14 93.40ZM52.59 76.79L51.19 71.08L45.92 69.52L42.06 73.67L43.46 79.39L48.73 80.94ZM43.46 79.39L42.06 73.67L36.79 72.12L32.93 76.27L34.33 81.98L39.60 83.54ZM56.80 93.92L55.40 88.21L50.13 86.65L46.27 90.81L47.67 96.52L52.93 98.08ZM47.67 96.52L46.27 90.81L41.00 89.25L37.14 93.40L38.55 99.11L43.81 100.67ZM59.26 84.06L57.86 78.35L52.59 76.79L48.73 80.94L50.13 86.65L55.40 88.21ZM25.21 84.58L23.81 78.87L18.54 77.32L14.69 81.47L16.09 87.18L21.36 88.73ZM16.09 87.18L14.69 81.47L9.43 79.92L5.57 84.08L6.98 89.78L12.24 91.34ZM27.67 74.72L26.26 69.01L21.00 67.45L17.14 71.61L18.54 77.32L23.81 78.87ZM18.54 77.32L17.14 71.61L11.87 70.06L8.02 74.22L9.43 79.92L14.69 81.47ZM31.88 91.84L30.48 86.14L25.21 84.58L21.36 88.73L22.76 94.44L28.02 96.00ZM22.76 94.44L21.36 88.73L16.09 87.18L12.24 91.34L13.65 97.04L18.91 98.59ZM34.33 81.98L32.93 76.27L27.67 74.72L23.81 78.87L25.21 84.58L30.48 86.14ZM64.19 64.32L62.79 58.61L57.52 57.05L53.65 61.21L55.06 66.92L60.32 68.48ZM55.06 66.92L53.65 61.21L48.38 59.65L44.52 63.80L45.92 69.52L51.19 71.08ZM66.66 54.45L65.26 48.73L59.99 47.17L56.12 51.33L57.52 57.05L62.79 58.61ZM57.52 57.05L56.12 51.33L50.85 49.77L46.98 53.93L48.38 59.65L53.65 61.21ZM70.86 71.60L69.46 65.89L64.19 64.32L60.32 68.48L61.73 74.19L66.99 75.76ZM61.73 74.19L60.32 68.48L55.06 66.92L51.19 71.08L52.59 76.79L57.86 78.35ZM73.34 61.73L71.93 56.01L66.66 54.45L62.79 58.61L64.19 64.32L69.46 65.89ZM39.25 62.25L37.85 56.53L32.58 54.98L28.71 59.14L30.12 64.85L35.39 66.41ZM30.12 64.85L28.71 59.14L23.45 57.58L19.59 61.74L21.00 67.45L26.26 69.01ZM41.71 52.38L40.30 46.66L35.03 45.11L31.17 49.27L32.58 54.98L37.85 56.53ZM32.58 54.98L31.17 49.27L25.90 47.71L22.04 51.87L23.45 57.58L28.71 59.14ZM45.92 69.52L44.52 63.80L39.25 62.25L35.39 66.41L36.79 72.12L42.06 73.67ZM36.79 72.12L35.39 66.41L30.12 64.85L26.26 69.01L27.67 74.72L32.93 76.27ZM48.38 59.65L46.98 53.93L41.71 52.38L37.85 56.53L39.25 62.25L44.52 63.80ZM61.00 111.05L59.60 105.35L54.33 103.78L50.47 107.93L51.87 113.64L57.13 115.20ZM51.87 113.64L50.47 107.93L45.21 106.37L41.35 110.52L42.75 116.23L48.01 117.79ZM63.46 101.20L62.06 95.49L56.80 93.92L52.93 98.08L54.33 103.78L59.60 105.35ZM54.33 103.78L52.93 98.08L47.67 96.52L43.81 100.67L45.21 106.37L50.47 107.93ZM67.66 118.33L66.26 112.62L61.00 111.05L57.13 115.20L58.53 120.91L63.80 122.47ZM58.53 120.91L57.13 115.20L51.87 113.64L48.01 117.79L49.41 123.49L54.67 125.05ZM70.13 108.47L68.73 102.76L63.46 101.20L59.60 105.35L61.00 111.05L66.26 112.62ZM36.09 108.97L34.69 103.26L29.43 101.70L25.57 105.85L26.97 111.56L32.23 113.11ZM26.97 111.56L25.57 105.85L20.31 104.30L16.46 108.45L17.86 114.15L23.12 115.71ZM38.55 99.11L37.14 93.40L31.88 91.84L28.02 96.00L29.43 101.70L34.69 103.26ZM29.43 101.70L28.02 96.00L22.76 94.44L18.91 98.59L20.31 104.30L25.57 105.85ZM42.75 116.23L41.35 110.52L36.09 108.97L32.23 113.11L33.64 118.82L38.90 120.38ZM33.64 118.82L32.23 113.11L26.97 111.56L23.12 115.71L24.52 121.41L29.78 122.96ZM45.21 106.37L43.81 100.67L38.55 99.11L34.69 103.26L36.09 108.97L41.35 110.52ZM75.06 88.75L73.66 83.03L68.40 81.47L64.53 85.62L65.93 91.34L71.19 92.90ZM65.93 91.34L64.53 85.62L59.26 84.06L55.40 88.21L56.80 93.92L62.06 95.49ZM77.53 78.88L76.13 73.16L70.86 71.60L66.99 75.76L68.40 81.47L73.66 83.03ZM68.40 81.47L66.99 75.76L61.73 74.19L57.86 78.35L59.26 84.06L64.53 85.62ZM81.73 96.02L80.33 90.31L75.06 88.75L71.19 92.90L72.59 98.61L77.86 100.17ZM72.59 98.61L71.19 92.90L65.93 91.34L62.06 95.49L63.46 101.20L68.73 102.76ZM84.20 86.16L82.80 80.44L77.53 78.88L73.66 83.03L75.06 88.75L80.33 90.31ZM0.31 82.53L-1.10 76.82L-6.36 75.27L-10.21 79.43L-8.80 85.13L-3.54 86.68ZM2.76 72.67L1.35 66.96L-3.91 65.41L-7.77 69.57L-6.36 75.27L-1.10 76.82ZM6.98 89.78L5.57 84.08L0.31 82.53L-3.54 86.68L-2.13 92.39L3.13 93.94ZM9.43 79.92L8.02 74.22L2.76 72.67L-1.10 76.82L0.31 82.53L5.57 84.08ZM3.87 136.44L2.47 130.74L-2.79 129.19L-6.63 133.34L-5.23 139.03L0.03 140.58ZM6.31 126.59L4.91 120.90L-0.35 119.34L-4.19 123.49L-2.79 129.19L2.47 130.74ZM11.20 106.90L9.79 101.19L4.54 99.64L0.69 103.79L2.09 109.49L7.35 111.05ZM2.09 109.49L0.69 103.79L-4.57 102.24L-8.42 106.39L-7.01 112.09L-1.76 113.64ZM13.65 97.04L12.24 91.34L6.98 89.78L3.13 93.94L4.54 99.64L9.79 101.19ZM4.54 99.64L3.13 93.94L-2.13 92.39L-5.98 96.54L-4.57 102.24L0.69 103.79ZM17.86 114.15L16.46 108.45L11.20 106.90L7.35 111.05L8.76 116.75L14.01 118.30ZM8.76 116.75L7.35 111.05L2.09 109.49L-1.76 113.64L-0.35 119.34L4.91 120.90ZM20.31 104.30L18.91 98.59L13.65 97.04L9.79 101.19L11.20 106.90L16.46 108.45ZM67.40 17.53L66.00 11.80L60.72 10.24L56.84 14.41L58.25 20.13L63.52 21.69ZM58.25 20.13L56.84 14.41L51.57 12.85L47.69 17.02L49.10 22.74L54.37 24.29ZM69.87 7.64L68.47 1.91L63.19 0.35L59.31 4.52L60.72 10.24L66.00 11.80ZM60.72 10.24L59.31 4.52L54.03 2.96L50.16 7.13L51.57 12.85L56.84 14.41ZM74.08 24.81L72.68 19.08L67.40 17.53L63.52 21.69L64.93 27.41L70.20 28.97ZM64.93 27.41L63.52 21.69L58.25 20.13L54.37 24.29L55.78 30.02L61.05 31.57ZM76.55 14.92L75.15 9.20L69.87 7.64L66.00 11.80L67.40 17.53L72.68 19.08ZM42.42 15.46L41.01 9.74L35.74 8.19L31.87 12.35L33.27 18.07L38.55 19.63ZM33.27 18.07L31.87 12.35L26.59 10.80L22.73 14.97L24.14 20.69L29.41 22.24ZM44.88 5.57L43.48 -0.15L38.20 -1.70L34.33 2.47L35.74 8.19L41.01 9.74ZM35.74 8.19L34.33 2.47L29.05 0.91L25.18 5.08L26.59 10.80L31.87 12.35ZM49.10 22.74L47.69 17.02L42.42 15.46L38.55 19.63L39.96 25.35L45.23 26.90ZM39.96 25.35L38.55 19.63L33.27 18.07L29.41 22.24L30.82 27.96L36.09 29.51ZM51.57 12.85L50.16 7.13L44.88 5.57L41.01 9.74L42.42 15.46L47.69 17.02ZM72.35 -2.26L70.94 -7.99L65.66 -9.54L61.78 -5.37L63.19 0.35L68.47 1.91ZM88.19 2.43L86.79 -3.30L81.51 -4.87L77.63 -0.70L79.03 5.03L84.31 6.59ZM79.03 5.03L77.63 -0.70L72.35 -2.26L68.47 1.91L69.87 7.64L75.15 9.20ZM63.19 0.35L61.78 -5.37L56.50 -6.93L52.63 -2.76L54.03 2.96L59.31 4.52ZM54.03 2.96L52.63 -2.76L47.35 -4.32L43.48 -0.15L44.88 5.57L50.16 7.13ZM78.28 41.98L76.88 36.25L71.60 34.69L67.73 38.85L69.13 44.57L74.41 46.13ZM69.13 44.57L67.73 38.85L62.46 37.29L58.58 41.45L59.99 47.17L65.26 48.73ZM80.76 32.09L79.36 26.37L74.08 24.81L70.20 28.97L71.60 34.69L76.88 36.25ZM71.60 34.69L70.20 28.97L64.93 27.41L61.05 31.57L62.46 37.29L67.73 38.85ZM84.96 49.26L83.56 43.54L78.28 41.98L74.41 46.13L75.81 51.85L81.08 53.42ZM75.81 51.85L74.41 46.13L69.13 44.57L65.26 48.73L66.66 54.45L71.93 56.01ZM87.43 39.38L86.04 33.66L80.76 32.09L76.88 36.25L78.28 41.98L83.56 43.54ZM53.31 39.90L51.91 34.18L46.63 32.62L42.77 36.78L44.17 42.50L49.44 44.06ZM44.17 42.50L42.77 36.78L37.49 35.23L33.63 39.39L35.03 45.11L40.30 46.66ZM55.78 30.02L54.37 24.29L49.10 22.74L45.23 26.90L46.63 32.62L51.91 34.18ZM46.63 32.62L45.23 26.90L39.96 25.35L36.09 29.51L37.49 35.23L42.77 36.78ZM59.99 47.17L58.58 41.45L53.31 39.90L49.44 44.06L50.85 49.77L56.12 51.33ZM50.85 49.77L49.44 44.06L44.17 42.50L40.30 46.66L41.71 52.38L46.98 53.93ZM62.46 37.29L61.05 31.57L55.78 30.02L51.91 34.18L53.31 39.90L58.58 41.45ZM92.40 19.61L91.00 13.88L85.71 12.32L81.83 16.48L83.23 22.21L88.51 23.77ZM83.23 22.21L81.83 16.48L76.55 14.92L72.68 19.08L74.08 24.81L79.36 26.37ZM94.88 9.72L93.48 3.99L88.19 2.43L84.31 6.59L85.71 12.32L91.00 13.88ZM85.71 12.32L84.31 6.59L79.03 5.03L75.15 9.20L76.55 14.92L81.83 16.48ZM99.07 26.90L97.68 21.17L92.40 19.61L88.51 23.77L89.91 29.50L95.19 31.06ZM89.91 29.50L88.51 23.77L83.23 22.21L79.36 26.37L80.76 32.09L86.04 33.66ZM101.56 17.01L100.16 11.28L94.88 9.72L91.00 13.88L92.40 19.61L97.68 21.17ZM3.42 35.80L2.01 30.08L-3.26 28.54L-7.11 32.70L-5.70 38.41L-0.44 39.96ZM5.87 25.92L4.46 20.20L-0.81 18.66L-4.67 22.82L-3.26 28.54L2.01 30.08ZM10.10 43.06L8.69 37.35L3.42 35.80L-0.44 39.96L0.97 45.67L6.24 47.22ZM0.97 45.67L-0.44 39.96L-5.70 38.41L-9.56 42.58L-8.15 48.29L-2.88 49.83ZM12.55 33.18L11.14 27.47L5.87 25.92L2.01 30.08L3.42 35.80L8.69 37.35ZM17.45 13.42L16.05 7.70L10.77 6.15L6.91 10.32L8.32 16.04L13.59 17.59ZM8.32 16.04L6.91 10.32L1.64 8.77L-2.22 12.94L-0.81 18.66L4.46 20.20ZM19.91 3.53L18.50 -2.19L13.23 -3.74L9.36 0.43L10.77 6.15L16.05 7.70ZM10.77 6.15L9.36 0.43L4.09 -1.11L0.23 3.06L1.64 8.77L6.91 10.32ZM24.14 20.69L22.73 14.97L17.45 13.42L13.59 17.59L15.00 23.30L20.27 24.85ZM15.00 23.30L13.59 17.59L8.32 16.04L4.46 20.20L5.87 25.92L11.14 27.47ZM26.59 10.80L25.18 5.08L19.91 3.53L16.05 7.70L17.45 13.42L22.73 14.97ZM1.64 8.77L0.23 3.06L-5.05 1.51L-8.91 5.68L-7.49 11.39L-2.22 12.94ZM14.32 60.19L12.92 54.48L7.65 52.93L3.79 57.09L5.20 62.80L10.47 64.35ZM5.20 62.80L3.79 57.09L-1.47 55.54L-5.32 59.70L-3.91 65.41L1.35 66.96ZM16.77 50.32L15.37 44.61L10.10 43.06L6.24 47.22L7.65 52.93L12.92 54.48ZM7.65 52.93L6.24 47.22L0.97 45.67L-2.88 49.83L-1.47 55.54L3.79 57.09ZM21.00 67.45L19.59 61.74L14.32 60.19L10.47 64.35L11.87 70.06L17.14 71.61ZM11.87 70.06L10.47 64.35L5.20 62.80L1.35 66.96L2.76 72.67L8.02 74.22ZM23.45 57.58L22.04 51.87L16.77 50.32L12.92 54.48L14.32 60.19L19.59 61.74ZM28.36 37.84L26.95 32.12L21.68 30.57L17.82 34.73L19.23 40.45L24.50 42.00ZM19.23 40.45L17.82 34.73L12.55 33.18L8.69 37.35L10.10 43.06L15.37 44.61ZM30.82 27.96L29.41 22.24L24.14 20.69L20.27 24.85L21.68 30.57L26.95 32.12ZM21.68 30.57L20.27 24.85L15.00 23.30L11.14 27.47L12.55 33.18L17.82 34.73ZM35.03 45.11L33.63 39.39L28.36 37.84L24.50 42.00L25.90 47.71L31.17 49.27ZM25.90 47.71L24.50 42.00L19.23 40.45L15.37 44.61L16.77 50.32L22.04 51.87ZM37.49 35.23L36.09 29.51L30.82 27.96L26.95 32.12L28.36 37.84L33.63 39.39ZM96.77 137.57L95.37 131.86L90.11 130.30L86.24 134.44L87.64 140.15L92.90 141.71ZM87.64 140.15L86.24 134.44L80.98 132.87L77.11 137.01L78.51 142.72L83.77 144.29ZM99.24 127.72L97.85 122.01L92.58 120.44L88.71 124.59L90.11 130.30L95.37 131.86ZM90.11 130.30L88.71 124.59L83.45 123.02L79.58 127.16L80.98 132.87L86.24 134.44ZM103.42 144.85L102.03 139.14L96.77 137.57L92.90 141.71L94.29 147.42L99.55 148.99ZM94.29 147.42L92.90 141.71L87.64 140.15L83.77 144.29L85.17 149.99L90.43 151.56ZM105.90 135.00L104.51 129.29L99.24 127.72L95.37 131.86L96.77 137.57L102.03 139.14ZM71.85 135.45L70.46 129.74L65.19 128.18L61.33 132.32L62.73 138.03L67.99 139.59ZM62.73 138.03L61.33 132.32L56.07 130.76L52.21 134.90L53.61 140.61L58.87 142.17ZM74.32 125.60L72.92 119.89L67.66 118.33L63.80 122.47L65.19 128.18L70.46 129.74ZM65.19 128.18L63.80 122.47L58.53 120.91L54.67 125.05L56.07 130.76L61.33 132.32ZM78.51 142.72L77.11 137.01L71.85 135.45L67.99 139.59L69.39 145.30L74.65 146.86ZM69.39 145.30L67.99 139.59L62.73 138.03L58.87 142.17L60.27 147.87L65.53 149.44ZM80.98 132.87L79.58 127.16L74.32 125.60L70.46 129.74L71.85 135.45L77.11 137.01ZM110.86 115.29L109.47 109.58L104.20 108.01L100.32 112.15L101.72 117.87L106.99 119.44ZM101.72 117.87L100.32 112.15L95.06 110.58L91.19 114.73L92.58 120.44L97.85 122.01ZM113.34 105.43L111.95 99.71L106.68 98.14L102.80 102.29L104.20 108.01L109.47 109.58ZM104.20 108.01L102.80 102.29L97.53 100.72L93.66 104.87L95.06 110.58L100.32 112.15ZM117.52 122.58L116.13 116.86L110.86 115.29L106.99 119.44L108.38 125.15L113.65 126.72ZM108.38 125.15L106.99 119.44L101.72 117.87L97.85 122.01L99.24 127.72L104.51 129.29ZM120.01 112.72L118.61 107.00L113.34 105.43L109.47 109.58L110.86 115.29L116.13 116.86ZM85.92 113.16L84.52 107.45L79.26 105.89L75.39 110.03L76.79 115.74L82.05 117.31ZM76.79 115.74L75.39 110.03L70.13 108.47L66.26 112.62L67.66 118.33L72.92 119.89ZM88.39 103.30L87.00 97.59L81.73 96.02L77.86 100.17L79.26 105.89L84.52 107.45ZM79.26 105.89L77.86 100.17L72.59 98.61L68.73 102.76L70.13 108.47L75.39 110.03ZM92.58 120.44L91.19 114.73L85.92 113.16L82.05 117.31L83.45 123.02L88.71 124.59ZM83.45 123.02L82.05 117.31L76.79 115.74L72.92 119.89L74.32 125.60L79.58 127.16ZM95.06 110.58L93.66 104.87L88.39 103.30L84.52 107.45L85.92 113.16L91.19 114.73ZM107.60 161.98L106.21 156.27L100.95 154.70L97.08 158.84L98.47 164.54L103.73 166.11ZM98.47 164.54L97.08 158.84L91.82 157.27L87.95 161.40L89.35 167.11L94.61 168.68ZM110.08 152.13L108.69 146.42L103.42 144.85L99.55 148.99L100.95 154.70L106.21 156.27ZM100.95 154.70L99.55 148.99L94.29 147.42L90.43 151.56L91.82 157.27L97.08 158.84ZM114.25 169.26L112.86 163.55L107.60 161.98L103.73 166.11L105.12 171.82L110.38 173.39ZM105.12 171.82L103.73 166.11L98.47 164.54L94.61 168.68L96.00 174.38L101.26 175.95ZM116.73 159.41L115.34 153.71L110.08 152.13L106.21 156.27L107.60 161.98L112.86 163.55ZM82.70 159.84L81.30 154.13L76.04 152.57L72.18 156.70L73.58 162.41L78.83 163.97ZM73.58 162.41L72.18 156.70L66.92 155.14L63.07 159.28L64.46 164.98L69.72 166.54ZM85.17 149.99L83.77 144.29L78.51 142.72L74.65 146.86L76.04 152.57L81.30 154.13ZM76.04 152.57L74.65 146.86L69.39 145.30L65.53 149.44L66.92 155.14L72.18 156.70ZM89.35 167.11L87.95 161.40L82.70 159.84L78.83 163.97L80.23 169.68L85.49 171.24ZM80.23 169.68L78.83 163.97L73.58 162.41L69.72 166.54L71.11 172.25L76.37 173.81ZM91.82 157.27L90.43 151.56L85.17 149.99L81.30 154.13L82.70 159.84L87.95 161.40ZM121.70 139.72L120.30 134.01L115.04 132.43L111.16 136.57L112.56 142.28L117.82 143.86ZM112.56 142.28L111.16 136.57L105.90 135.00L102.03 139.14L103.42 144.85L108.69 146.42ZM124.18 129.87L122.79 124.15L117.52 122.58L113.65 126.72L115.04 132.43L120.30 134.01ZM115.04 132.43L113.65 126.72L108.38 125.15L104.51 129.29L105.90 135.00L111.16 136.57ZM128.35 147.01L126.96 141.29L121.70 139.72L117.82 143.86L119.21 149.57L124.48 151.14ZM119.21 149.57L117.82 143.86L112.56 142.28L108.69 146.42L110.08 152.13L115.34 153.71ZM130.84 137.15L129.45 131.44L124.18 129.87L120.30 134.01L121.70 139.72L126.96 141.29ZM32.94 155.61L31.54 149.91L26.29 148.36L22.44 152.50L23.84 158.20L29.09 159.75ZM23.84 158.20L22.44 152.50L17.18 150.94L13.34 155.08L14.74 160.78L19.99 162.34ZM35.39 145.77L33.99 140.07L28.73 138.51L24.88 142.66L26.29 148.36L31.54 149.91ZM26.29 148.36L24.88 142.66L19.63 141.10L15.78 145.24L17.18 150.94L22.44 152.50ZM39.59 162.87L38.19 157.17L32.94 155.61L29.09 159.75L30.49 165.45L35.74 167.01ZM30.49 165.45L29.09 159.75L23.84 158.20L19.99 162.34L21.39 168.03L26.64 169.59ZM42.05 153.03L40.65 147.33L35.39 145.77L31.54 149.91L32.94 155.61L38.19 157.17ZM8.09 153.53L6.68 147.83L1.43 146.28L-2.41 150.42L-1.01 156.12L4.24 157.67ZM10.53 143.69L9.12 137.99L3.87 136.44L0.03 140.58L1.43 146.28L6.68 147.83ZM1.43 146.28L0.03 140.58L-5.23 139.03L-9.07 143.18L-7.66 148.87L-2.41 150.42ZM14.74 160.78L13.34 155.08L8.09 153.53L4.24 157.67L5.65 163.37L10.89 164.92ZM5.65 163.37L4.24 157.67L-1.01 156.12L-4.85 160.26L-3.44 165.95L1.80 167.50ZM17.18 150.94L15.78 145.24L10.53 143.69L6.68 147.83L8.09 153.53L13.34 155.08ZM46.96 133.34L45.56 127.64L40.30 126.08L36.44 130.22L37.84 135.93L43.10 137.49ZM37.84 135.93L36.44 130.22L31.18 128.67L27.33 132.81L28.73 138.51L33.99 140.07ZM49.41 123.49L48.01 117.79L42.75 116.23L38.90 120.38L40.30 126.08L45.56 127.64ZM40.30 126.08L38.90 120.38L33.64 118.82L29.78 122.96L31.18 128.67L36.44 130.22ZM53.61 140.61L52.21 134.90L46.96 133.34L43.10 137.49L44.50 143.19L49.76 144.75ZM44.50 143.19L43.10 137.49L37.84 135.93L33.99 140.07L35.39 145.77L40.65 147.33ZM56.07 130.76L54.67 125.05L49.41 123.49L45.56 127.64L46.96 133.34L52.21 134.90ZM22.08 131.26L20.67 125.56L15.42 124.00L11.57 128.15L12.97 133.85L18.23 135.40ZM12.97 133.85L11.57 128.15L6.31 126.59L2.47 130.74L3.87 136.44L9.12 137.99ZM24.52 121.41L23.12 115.71L17.86 114.15L14.01 118.30L15.42 124.00L20.67 125.56ZM15.42 124.00L14.01 118.30L8.76 116.75L4.91 120.90L6.31 126.59L11.57 128.15ZM28.73 138.51L27.33 132.81L22.08 131.26L18.23 135.40L19.63 141.10L24.88 142.66ZM19.63 141.10L18.23 135.40L12.97 133.85L9.12 137.99L10.53 143.69L15.78 145.24ZM31.18 128.67L29.78 122.96L24.52 121.41L20.67 125.56L22.08 131.26L27.33 132.81ZM43.79 179.96L42.39 174.26L37.14 172.70L33.29 176.84L34.69 182.54L39.94 184.10ZM34.69 182.54L33.29 176.84L28.04 175.28L24.20 179.42L25.60 185.11L30.84 186.67ZM46.25 170.13L44.85 164.43L39.59 162.87L35.74 167.01L37.14 172.70L42.39 174.26ZM37.14 172.70L35.74 167.01L30.49 165.45L26.64 169.59L28.04 175.28L33.29 176.84ZM50.44 187.22L49.04 181.52L43.79 179.96L39.94 184.10L41.34 189.79L46.59 191.35ZM41.34 189.79L39.94 184.10L34.69 182.54L30.84 186.67L32.25 192.36L37.49 193.92ZM52.90 177.39L51.50 171.69L46.25 170.13L42.39 174.26L43.79 179.96L49.04 181.52ZM18.95 177.86L17.55 172.17L12.30 170.61L8.45 174.75L9.86 180.44L15.10 182.00ZM9.86 180.44L8.45 174.75L3.21 173.20L-0.63 177.34L0.77 183.03L6.02 184.58ZM21.39 168.03L19.99 162.34L14.74 160.78L10.89 164.92L12.30 170.61L17.55 172.17ZM12.30 170.61L10.89 164.92L5.65 163.37L1.80 167.50L3.21 173.20L8.45 174.75ZM25.60 185.11L24.20 179.42L18.95 177.86L15.10 182.00L16.51 187.69L21.75 189.25ZM16.51 187.69L15.10 182.00L9.86 180.44L6.02 184.58L7.42 190.27L12.66 191.83ZM28.04 175.28L26.64 169.59L21.39 168.03L17.55 172.17L18.95 177.86L24.20 179.42ZM57.81 157.71L56.41 152.01L51.16 150.45L47.30 154.59L48.70 160.29L53.95 161.85ZM48.70 160.29L47.30 154.59L42.05 153.03L38.19 157.17L39.59 162.87L44.85 164.43ZM60.27 147.87L58.87 142.17L53.61 140.61L49.76 144.75L51.16 150.45L56.41 152.01ZM51.16 150.45L49.76 144.75L44.50 143.19L40.65 147.33L42.05 153.03L47.30 154.59ZM64.46 164.98L63.07 159.28L57.81 157.71L53.95 161.85L55.35 167.55L60.61 169.12ZM55.35 167.55L53.95 161.85L48.70 160.29L44.85 164.43L46.25 170.13L51.50 171.69ZM66.92 155.14L65.53 149.44L60.27 147.87L56.41 152.01L57.81 157.71L63.07 159.28ZM114.13 68.54L112.73 62.81L107.46 61.25L103.58 65.40L104.97 71.12L110.25 72.69ZM104.97 71.12L103.58 65.40L98.30 63.83L94.43 67.99L95.82 73.71L101.10 75.27ZM116.62 58.66L115.22 52.94L109.94 51.37L106.06 55.52L107.46 61.25L112.73 62.81ZM107.46 61.25L106.06 55.52L100.79 53.96L96.91 58.11L98.30 63.83L103.58 65.40ZM120.80 75.83L119.41 70.11L114.13 68.54L110.25 72.69L111.64 78.41L116.92 79.98ZM111.64 78.41L110.25 72.69L104.97 71.12L101.10 75.27L102.49 80.99L107.77 82.56ZM123.29 65.95L121.89 60.23L116.62 58.66L112.73 62.81L114.13 68.54L119.41 70.11ZM89.15 66.42L87.75 60.70L82.48 59.14L78.61 63.29L80.01 69.01L85.28 70.57ZM80.01 69.01L78.61 63.29L73.34 61.73L69.46 65.89L70.86 71.60L76.13 73.16ZM91.63 56.55L90.23 50.82L84.96 49.26L81.08 53.42L82.48 59.14L87.75 60.70ZM82.48 59.14L81.08 53.42L75.81 51.85L71.93 56.01L73.34 61.73L78.61 63.29ZM95.82 73.71L94.43 67.99L89.15 66.42L85.28 70.57L86.68 76.29L91.95 77.86ZM86.68 76.29L85.28 70.57L80.01 69.01L76.13 73.16L77.53 78.88L82.80 80.44ZM98.30 63.83L96.91 58.11L91.63 56.55L87.75 60.70L89.15 66.42L94.43 67.99ZM128.27 46.19L126.88 40.47L121.60 38.90L117.71 43.05L119.11 48.78L124.39 50.35ZM119.11 48.78L117.71 43.05L112.43 41.49L108.55 45.64L109.94 51.37L115.22 52.94ZM130.77 36.31L129.37 30.58L124.09 29.01L120.20 33.17L121.60 38.90L126.88 40.47ZM121.60 38.90L120.20 33.17L114.92 31.60L111.03 35.76L112.43 41.49L117.71 43.05ZM134.95 53.49L133.55 47.77L128.27 46.19L124.39 50.35L125.78 56.08L131.06 57.65ZM125.78 56.08L124.39 50.35L119.11 48.78L115.22 52.94L116.62 58.66L121.89 60.23ZM137.44 43.61L136.05 37.88L130.77 36.31L126.88 40.47L128.27 46.19L133.55 47.77ZM103.27 44.08L101.87 38.35L96.59 36.78L92.71 40.94L94.11 46.67L99.39 48.23ZM94.11 46.67L92.71 40.94L87.43 39.38L83.56 43.54L84.96 49.26L90.23 50.82ZM105.75 34.19L104.36 28.47L99.07 26.90L95.19 31.06L96.59 36.78L101.87 38.35ZM96.59 36.78L95.19 31.06L89.91 29.50L86.04 33.66L87.43 39.38L92.71 40.94ZM109.94 51.37L108.55 45.64L103.27 44.08L99.39 48.23L100.79 53.96L106.06 55.52ZM100.79 53.96L99.39 48.23L94.11 46.67L90.23 50.82L91.63 56.55L96.91 58.11ZM112.43 41.49L111.03 35.76L105.75 34.19L101.87 38.35L103.27 44.08L108.55 45.64ZM124.98 92.99L123.59 87.27L118.31 85.70L114.43 89.85L115.83 95.57L121.10 97.14ZM115.83 95.57L114.43 89.85L109.16 88.28L105.28 92.43L106.68 98.14L111.95 99.71ZM127.47 83.12L126.08 77.40L120.80 75.83L116.92 79.98L118.31 85.70L123.59 87.27ZM118.31 85.70L116.92 79.98L111.64 78.41L107.77 82.56L109.16 88.28L114.43 89.85ZM131.64 100.28L130.25 94.56L124.98 92.99L121.10 97.14L122.49 102.86L127.76 104.43ZM122.49 102.86L121.10 97.14L115.83 95.57L111.95 99.71L113.34 105.43L118.61 107.00ZM134.14 90.42L132.74 84.70L127.47 83.12L123.59 87.27L124.98 92.99L130.25 94.56ZM100.01 90.86L98.62 85.14L93.35 83.58L89.47 87.73L90.87 93.44L96.14 95.01ZM90.87 93.44L89.47 87.73L84.20 86.16L80.33 90.31L81.73 96.02L87.00 97.59ZM102.49 80.99L101.10 75.27L95.82 73.71L91.95 77.86L93.35 83.58L98.62 85.14ZM93.35 83.58L91.95 77.86L86.68 76.29L82.80 80.44L84.20 86.16L89.47 87.73ZM106.68 98.14L105.28 92.43L100.01 90.86L96.14 95.01L97.53 100.72L102.80 102.29ZM97.53 100.72L96.14 95.01L90.87 93.44L87.00 97.59L88.39 103.30L93.66 104.87ZM109.16 88.28L107.77 82.56L102.49 80.99L98.62 85.14L100.01 90.86L105.28 92.43ZM139.12 70.67L137.73 64.95L132.45 63.37L128.57 67.53L129.96 73.25L135.24 74.82ZM129.96 73.25L128.57 67.53L123.29 65.95L119.41 70.11L120.80 75.83L126.08 77.40ZM141.62 60.79L140.23 55.07L134.95 53.49L131.06 57.65L132.45 63.37L137.73 64.95ZM132.45 63.37L131.06 57.65L125.78 56.08L121.89 60.23L123.29 65.95L128.57 67.53ZM145.79 77.97L144.40 72.25L139.12 70.67L135.24 74.82L136.63 80.55L141.90 82.12ZM136.63 80.55L135.24 74.82L129.96 73.25L126.08 77.40L127.47 83.12L132.74 84.70ZM148.29 68.10L146.90 62.37L141.62 60.79L137.73 64.95L139.12 70.67L144.40 72.25ZM252.95 258.73L251.58 253.02L246.31 251.42L242.42 255.53L243.79 261.24L249.06 262.84ZM243.79 261.24L242.42 255.53L237.16 253.93L233.27 258.05L234.64 263.75L239.90 265.35ZM228.01 256.45L226.64 250.74L221.38 249.14L217.49 253.26L218.87 258.97L224.13 260.56ZM218.87 258.97L217.49 253.26L212.23 251.66L208.35 255.78L209.73 261.48L214.98 263.08ZM253.89 221.93L252.52 216.21L247.25 214.61L243.35 218.73L244.72 224.45L249.99 226.05ZM244.72 224.45L243.35 218.73L238.08 217.14L234.19 221.25L235.56 226.97L240.83 228.57ZM256.41 212.09L255.04 206.37L249.77 204.78L245.87 208.90L247.25 214.61L252.52 216.21ZM247.25 214.61L245.87 208.90L240.60 207.30L236.71 211.42L238.08 217.14L243.35 218.73ZM260.53 229.25L259.16 223.53L253.89 221.93L249.99 226.05L251.36 231.76L256.63 233.36ZM251.36 231.76L249.99 226.05L244.72 224.45L240.83 228.57L242.20 234.28L247.47 235.88ZM263.05 219.41L261.68 213.69L256.41 212.09L252.52 216.21L253.89 221.93L259.16 223.53ZM228.92 219.66L227.55 213.94L222.28 212.35L218.39 216.47L219.77 222.18L225.03 223.78ZM219.77 222.18L218.39 216.47L213.13 214.88L209.24 219.00L210.62 224.71L215.88 226.30ZM231.44 209.82L230.07 204.11L224.80 202.51L220.91 206.63L222.28 212.35L227.55 213.94ZM222.28 212.35L220.91 206.63L215.64 205.04L211.75 209.16L213.13 214.88L218.39 216.47ZM235.56 226.97L234.19 221.25L228.92 219.66L225.03 223.78L226.41 229.49L231.67 231.09ZM226.41 229.49L225.03 223.78L219.77 222.18L215.88 226.30L217.25 232.01L222.52 233.61ZM238.08 217.14L236.71 211.42L231.44 209.82L227.55 213.94L228.92 219.66L234.19 221.25ZM258.94 202.25L257.57 196.53L252.30 194.93L248.40 199.06L249.77 204.78L255.04 206.37ZM261.47 192.41L260.10 186.69L254.83 185.09L250.93 189.21L252.30 194.93L257.57 196.53ZM265.59 209.58L264.22 203.85L258.94 202.25L255.04 206.37L256.41 212.09L261.68 213.69ZM243.13 197.46L241.75 191.74L236.48 190.14L232.59 194.27L233.96 199.98L239.23 201.58ZM233.96 199.98L232.59 194.27L227.32 192.67L223.42 196.80L224.80 202.51L230.07 204.11ZM245.65 187.61L244.28 181.89L239.01 180.30L235.11 184.42L236.48 190.14L241.75 191.74ZM236.48 190.14L235.11 184.42L229.84 182.83L225.94 186.95L227.32 192.67L232.59 194.27ZM249.77 204.78L248.40 199.06L243.13 197.46L239.23 201.58L240.60 207.30L245.87 208.90ZM240.60 207.30L239.23 201.58L233.96 199.98L230.07 204.11L231.44 209.82L236.71 211.42ZM252.30 194.93L250.93 189.21L245.65 187.61L241.75 191.74L243.13 197.46L248.40 199.06ZM264.63 246.40L263.26 240.68L258.00 239.08L254.10 243.19L255.47 248.91L260.74 250.51ZM255.47 248.91L254.10 243.19L248.84 241.59L244.94 245.71L246.31 251.42L251.58 253.02ZM258.00 239.08L256.63 233.36L251.36 231.76L247.47 235.88L248.84 241.59L254.10 243.19ZM262.11 256.22L260.74 250.51L255.47 248.91L251.58 253.02L252.95 258.73L258.21 260.33ZM239.68 244.11L238.31 238.40L233.04 236.80L229.15 240.91L230.53 246.63L235.79 248.22ZM230.53 246.63L229.15 240.91L223.89 239.32L220.00 243.43L221.38 249.14L226.64 250.74ZM242.20 234.28L240.83 228.57L235.56 226.97L231.67 231.09L233.04 236.80L238.31 238.40ZM233.04 236.80L231.67 231.09L226.41 229.49L222.52 233.61L223.89 239.32L229.15 240.91ZM246.31 251.42L244.94 245.71L239.68 244.11L235.79 248.22L237.16 253.93L242.42 255.53ZM237.16 253.93L235.79 248.22L230.53 246.63L226.64 250.74L228.01 256.45L233.27 258.05ZM248.84 241.59L247.47 235.88L242.20 234.28L238.31 238.40L239.68 244.11L244.94 245.71ZM206.79 5.77L205.41 0.02L200.11 -1.56L196.20 2.60L197.59 8.34L202.88 9.93ZM197.59 8.34L196.20 2.60L190.90 1.02L187.00 5.18L188.39 10.92L193.68 12.50ZM209.32 -4.14L207.93 -9.88L202.63 -11.47L198.72 -7.30L200.11 -1.56L205.41 0.02ZM200.11 -1.56L198.72 -7.30L193.42 -8.89L189.52 -4.72L190.90 1.02L196.20 2.60ZM213.47 13.09L212.09 7.35L206.79 5.77L202.88 9.93L204.27 15.67L209.56 17.25ZM204.27 15.67L202.88 9.93L197.59 8.34L193.68 12.50L195.07 18.24L200.36 19.83ZM216.00 3.19L214.62 -2.55L209.32 -4.14L205.41 0.02L206.79 5.77L212.09 7.35ZM181.70 3.60L180.31 -2.14L175.02 -3.72L171.12 0.44L172.51 6.18L177.80 7.76ZM172.51 6.18L171.12 0.44L165.82 -1.13L161.92 3.03L163.31 8.77L168.60 10.34ZM175.02 -3.72L173.63 -9.46L168.33 -11.04L164.43 -6.87L165.82 -1.13L171.12 0.44ZM188.39 10.92L187.00 5.18L181.70 3.60L177.80 7.76L179.19 13.50L184.48 15.08ZM179.19 13.50L177.80 7.76L172.51 6.18L168.60 10.34L169.99 16.08L175.29 17.66ZM190.90 1.02L189.52 -4.72L184.22 -6.30L180.31 -2.14L181.70 3.60L187.00 5.18ZM131.57 -0.67L130.18 -6.41L124.89 -7.98L121.00 -3.81L122.39 1.92L127.68 3.49ZM122.39 1.92L121.00 -3.81L115.71 -5.38L111.82 -1.21L113.22 4.52L118.50 6.09ZM138.26 6.63L136.86 0.90L131.57 -0.67L127.68 3.49L129.08 9.23L134.36 10.80ZM129.08 9.23L127.68 3.49L122.39 1.92L118.50 6.09L119.90 11.82L125.19 13.39ZM140.76 -3.27L139.36 -9.00L134.07 -10.57L130.18 -6.41L131.57 -0.67L136.86 0.90ZM106.53 -2.78L105.13 -8.51L99.85 -10.08L95.96 -5.91L97.36 -0.18L102.65 1.39ZM97.36 -0.18L95.96 -5.91L90.68 -7.47L86.79 -3.30L88.19 2.43L93.48 3.99ZM113.22 4.52L111.82 -1.21L106.53 -2.78L102.65 1.39L104.05 7.12L109.33 8.68ZM104.05 7.12L102.65 1.39L97.36 -0.18L93.48 3.99L94.88 9.72L100.16 11.28ZM142.44 23.83L141.04 18.10L135.76 16.53L131.87 20.69L133.26 26.42L138.55 27.99ZM133.26 26.42L131.87 20.69L126.58 19.12L122.69 23.28L124.09 29.01L129.37 30.58ZM144.94 13.94L143.55 8.21L138.26 6.63L134.36 10.80L135.76 16.53L141.04 18.10ZM135.76 16.53L134.36 10.80L129.08 9.23L125.19 13.39L126.58 19.12L131.87 20.69ZM149.12 31.14L147.72 25.41L142.44 23.83L138.55 27.99L139.94 33.72L145.22 35.30ZM139.94 33.72L138.55 27.99L133.26 26.42L129.37 30.58L130.77 36.31L136.05 37.88ZM151.62 21.25L150.23 15.51L144.94 13.94L141.04 18.10L142.44 23.83L147.72 25.41ZM117.41 21.71L116.01 15.98L110.73 14.41L106.84 18.58L108.24 24.30L113.52 25.87ZM108.24 24.30L106.84 18.58L101.56 17.01L97.68 21.17L99.07 26.90L104.36 28.47ZM119.90 11.82L118.50 6.09L113.22 4.52L109.33 8.68L110.73 14.41L116.01 15.98ZM110.73 14.41L109.33 8.68L104.05 7.12L100.16 11.28L101.56 17.01L106.84 18.58ZM124.09 29.01L122.69 23.28L117.41 21.71L113.52 25.87L114.92 31.60L120.20 33.17ZM114.92 31.60L113.52 25.87L108.24 24.30L104.36 28.47L105.75 34.19L111.03 35.76ZM126.58 19.12L125.19 13.39L119.90 11.82L116.01 15.98L117.41 21.71L122.69 23.28ZM156.63 1.45L155.24 -4.28L149.95 -5.86L146.05 -1.69L147.44 4.04L152.73 5.62ZM147.44 4.04L146.05 -1.69L140.76 -3.27L136.86 0.90L138.26 6.63L143.55 8.21ZM163.31 8.77L161.92 3.03L156.63 1.45L152.73 5.62L154.12 11.35L159.41 12.93ZM154.12 11.35L152.73 5.62L147.44 4.04L143.55 8.21L144.94 13.94L150.23 15.51ZM165.82 -1.13L164.43 -6.87L159.14 -8.45L155.24 -4.28L156.63 1.45L161.92 3.03ZM38.20 -1.70L36.79 -7.43L31.51 -8.98L27.64 -4.81L29.05 0.91L34.33 2.47ZM29.05 0.91L27.64 -4.81L22.37 -6.36L18.50 -2.19L19.91 3.53L25.18 5.08ZM13.23 -3.74L11.81 -9.46L6.54 -11.01L2.68 -6.83L4.09 -1.11L9.36 0.43ZM4.09 -1.11L2.68 -6.83L-2.60 -8.38L-6.46 -4.21L-5.05 1.51L0.23 3.06Z"/></svg>
