<svg xmlns="http://www.w3.org/2000/svg" width="256" height="256" viewBox="0 0 256 256"><path data-band="1" fill="#fde68a" fill-opacity="0.35" d="M60.50 49.91L59.13 44.30L53.98 42.72L50.19 46.73L51.57 52.34L56.72 53.92ZM29.58 40.40L28.21 34.80L23.06 33.22L19.28 37.25L20.66 42.84L25.81 44.42ZM36.11 47.59L34.74 41.99L29.58 40.40L25.81 44.42L27.18 50.02L32.33 51.60ZM0.42 57.34L-0.95 51.75L-6.10 50.17L-9.87 54.19L-8.49 59.78L-3.34 61.36ZM2.82 47.73L1.44 42.13L-3.71 40.56L-7.48 44.58L-6.10 50.17L-0.95 51.75ZM6.95 64.51L5.57 58.92L0.42 57.34L-3.34 61.36L-1.96 66.95L3.18 68.53ZM9.34 54.90L7.96 49.30L2.82 47.73L-0.95 51.75L0.42 57.34L5.57 58.92ZM14.13 35.67L12.75 30.07L7.60 28.49L3.83 32.51L5.21 38.11L10.36 39.69ZM5.21 38.11L3.83 32.51L-1.32 30.94L-5.09 34.96L-3.71 40.56L1.44 42.13ZM20.66 42.84L19.28 37.25L14.13 35.67L10.36 39.69L11.73 45.28L16.88 46.86ZM11.73 45.28L10.36 39.69L5.21 38.11L1.44 42.13L2.82 47.73L7.96 49.30ZM23.06 33.22L21.68 27.62L16.53 26.05L12.75 30.07L14.13 35.67L19.28 37.25ZM81.02 133.87L79.65 128.28L74.51 126.68L70.73 130.68L72.10 136.28L77.24 137.87ZM72.10 136.28L70.73 130.68L65.59 129.09L61.82 133.10L63.18 138.69L68.32 140.28ZM83.43 124.27L82.07 118.68L76.92 117.09L73.14 121.09L74.51 126.68L79.65 128.28ZM74.51 126.68L73.14 121.09L68.00 119.50L64.22 123.50L65.59 129.09L70.73 130.68ZM87.53 141.05L86.16 135.46L81.02 133.87L77.24 137.87L78.61 143.46L83.75 145.05ZM78.61 143.46L77.24 137.87L72.10 136.28L68.32 140.28L69.69 145.87L74.83 147.46ZM89.94 131.46L88.58 125.87L83.43 124.27L79.65 128.28L81.02 133.87L86.16 135.46ZM56.67 131.51L55.31 125.92L50.16 124.33L46.39 128.33L47.76 133.92L52.90 135.51ZM47.76 133.92L46.39 128.33L41.25 126.75L37.48 130.75L38.85 136.34L43.99 137.92ZM59.08 121.91L57.71 116.32L52.57 114.73L48.80 118.74L50.16 124.33L55.31 125.92ZM50.16 124.33L48.80 118.74L43.65 117.15L39.88 121.16L41.25 126.75L46.39 128.33ZM63.18 138.69L61.82 133.10L56.67 131.51L52.90 135.51L54.27 141.10L59.41 142.68ZM54.27 141.10L52.90 135.51L47.76 133.92L43.99 137.92L45.36 143.51L50.50 145.10ZM65.59 129.09L64.22 123.50L59.08 121.91L55.31 125.92L56.67 131.51L61.82 133.10ZM94.78 112.27L93.42 106.67L88.27 105.08L84.49 109.08L85.85 114.68L91.00 116.27ZM85.85 114.68L84.49 109.08L79.34 107.49L75.56 111.49L76.92 117.09L82.07 118.68ZM97.20 102.66L95.84 97.06L90.69 95.47L86.90 99.48L88.27 105.08L93.42 106.67ZM88.27 105.08L86.90 99.48L81.75 97.89L77.97 101.89L79.34 107.49L84.49 109.08ZM101.29 119.46L99.93 113.86L94.78 112.27L91.00 116.27L92.36 121.87L97.51 123.46ZM92.36 121.87L91.00 116.27L85.85 114.68L82.07 118.68L83.43 124.27L88.58 125.87ZM103.72 109.86L102.35 104.26L97.20 102.66L93.42 106.67L94.78 112.27L99.93 113.86ZM70.41 109.90L69.04 104.31L63.90 102.72L60.12 106.72L61.49 112.32L66.63 113.91ZM61.49 112.32L60.12 106.72L54.97 105.14L51.20 109.14L52.57 114.73L57.71 116.32ZM72.82 100.30L71.46 94.70L66.31 93.12L62.53 97.12L63.90 102.72L69.04 104.31ZM63.90 102.72L62.53 97.12L57.38 95.54L53.60 99.54L54.97 105.14L60.12 106.72ZM76.92 117.09L75.56 111.49L70.41 109.90L66.63 113.91L68.00 119.50L73.14 121.09ZM68.00 119.50L66.63 113.91L61.49 112.32L57.71 116.32L59.08 121.91L64.22 123.50ZM79.34 107.49L77.97 101.89L72.82 100.30L69.04 104.31L70.41 109.90L75.56 111.49ZM91.62 157.83L90.25 152.24L85.11 150.64L81.34 154.64L82.70 160.23L87.84 161.82ZM82.70 160.23L81.34 154.64L76.20 153.05L72.42 157.04L73.79 162.63L78.92 164.22ZM94.03 148.24L92.67 142.65L87.53 141.05L83.75 145.05L85.11 150.64L90.25 152.24ZM85.11 150.64L83.75 145.05L78.61 143.46L74.83 147.46L76.20 153.05L81.34 154.64ZM98.12 165.01L96.76 159.42L91.62 157.83L87.84 161.82L89.20 167.41L94.34 169.01ZM89.20 167.41L87.84 161.82L82.70 160.23L78.92 164.22L80.29 169.81L85.43 171.40ZM100.54 155.43L99.18 149.84L94.03 148.24L90.25 152.24L91.62 157.83L96.76 159.42ZM67.28 155.45L65.92 149.86L60.78 148.27L57.00 152.27L58.37 157.86L63.51 159.45ZM58.37 157.86L57.00 152.27L51.87 150.68L48.10 154.68L49.47 160.26L54.60 161.85ZM69.69 145.87L68.32 140.28L63.18 138.69L59.41 142.68L60.78 148.27L65.92 149.86ZM60.78 148.27L59.41 142.68L54.27 141.10L50.50 145.10L51.87 150.68L57.00 152.27ZM73.79 162.63L72.42 157.04L67.28 155.45L63.51 159.45L64.88 165.03L70.01 166.62ZM64.88 165.03L63.51 159.45L58.37 157.86L54.60 161.85L55.97 167.44L61.10 169.03ZM76.20 153.05L74.83 147.46L69.69 145.87L65.92 149.86L67.28 155.45L72.42 157.04ZM105.38 136.25L104.02 130.65L98.87 129.06L95.09 133.06L96.45 138.65L101.60 140.25ZM96.45 138.65L95.09 133.06L89.94 131.46L86.16 135.46L87.53 141.05L92.67 142.65ZM107.80 126.65L106.44 121.05L101.29 119.46L97.51 123.46L98.87 129.06L104.02 130.65ZM98.87 129.06L97.51 123.46L92.36 121.87L88.58 125.87L89.94 131.46L95.09 133.06ZM111.89 143.44L110.53 137.84L105.38 136.25L101.60 140.25L102.96 145.84L108.10 147.44ZM102.96 145.84L101.60 140.25L96.45 138.65L92.67 142.65L94.03 148.24L99.18 149.84ZM114.31 133.85L112.95 128.25L107.80 126.65L104.02 130.65L105.38 136.25L110.53 137.84ZM18.66 150.75L17.28 145.17L12.15 143.59L8.39 147.59L9.76 153.17L14.90 154.75ZM9.76 153.17L8.39 147.59L3.26 146.01L-0.50 150.01L0.87 155.59L6.00 157.17ZM21.05 141.17L19.68 135.59L14.54 134.00L10.78 138.01L12.15 143.59L17.28 145.17ZM12.15 143.59L10.78 138.01L5.64 136.43L1.88 140.43L3.26 146.01L8.39 147.59ZM25.16 157.92L23.79 152.34L18.66 150.75L14.90 154.75L16.27 160.33L21.40 161.91ZM16.27 160.33L14.90 154.75L9.76 153.17L6.00 157.17L7.38 162.75L12.51 164.33ZM27.55 148.34L26.18 142.75L21.05 141.17L17.28 145.17L18.66 150.75L23.79 152.34ZM0.87 155.59L-0.50 150.01L-5.63 148.43L-9.39 152.43L-8.01 158.01L-2.88 159.59ZM3.26 146.01L1.88 140.43L-3.25 138.85L-7.01 142.85L-5.63 148.43L-0.50 150.01ZM32.34 129.16L30.97 123.58L25.83 121.99L22.07 126.00L23.44 131.58L28.58 133.17ZM23.44 131.58L22.07 126.00L16.93 124.42L13.17 128.42L14.54 134.00L19.68 135.59ZM34.74 119.57L33.37 113.98L28.23 112.40L24.46 116.41L25.83 121.99L30.97 123.58ZM25.83 121.99L24.46 116.41L19.32 114.82L15.56 118.83L16.93 124.42L22.07 126.00ZM38.85 136.34L37.48 130.75L32.34 129.16L28.58 133.17L29.95 138.75L35.09 140.34ZM29.95 138.75L28.58 133.17L23.44 131.58L19.68 135.59L21.05 141.17L26.18 142.75ZM41.25 126.75L39.88 121.16L34.74 119.57L30.97 123.58L32.34 129.16L37.48 130.75ZM8.03 126.84L6.66 121.25L1.52 119.68L-2.24 123.68L-0.87 129.26L4.27 130.84ZM10.42 117.25L9.04 111.66L3.91 110.08L0.14 114.09L1.52 119.68L6.66 121.25ZM1.52 119.68L0.14 114.09L-4.99 112.51L-8.75 116.52L-7.38 122.10L-2.24 123.68ZM14.54 134.00L13.17 128.42L8.03 126.84L4.27 130.84L5.64 136.43L10.78 138.01ZM5.64 136.43L4.27 130.84L-0.87 129.26L-4.62 133.27L-3.25 138.85L1.88 140.43ZM16.93 124.42L15.56 118.83L10.42 117.25L6.66 121.25L8.03 126.84L13.17 128.42ZM29.27 174.66L27.90 169.08L22.77 167.50L19.01 171.49L20.38 177.07L25.51 178.65ZM20.38 177.07L19.01 171.49L13.88 169.91L10.12 173.90L11.49 179.48L16.62 181.06ZM31.66 165.08L30.30 159.50L25.16 157.92L21.40 161.91L22.77 167.50L27.90 169.08ZM22.77 167.50L21.40 161.91L16.27 160.33L12.51 164.33L13.88 169.91L19.01 171.49ZM35.77 181.82L34.40 176.24L29.27 174.66L25.51 178.65L26.88 184.23L32.01 185.82ZM38.17 172.25L36.80 166.67L31.66 165.08L27.90 169.08L29.27 174.66L34.40 176.24ZM4.99 172.32L3.62 166.75L-1.51 165.17L-5.26 169.16L-3.89 174.74L1.24 176.32ZM7.38 162.75L6.00 157.17L0.87 155.59L-2.88 159.59L-1.51 165.17L3.62 166.75ZM11.49 179.48L10.12 173.90L4.99 172.32L1.24 176.32L2.61 181.89L7.74 183.47ZM13.88 169.91L12.51 164.33L7.38 162.75L3.62 166.75L4.99 172.32L10.12 173.90ZM42.96 153.09L41.59 147.51L36.46 145.92L32.69 149.92L34.06 155.50L39.19 157.09ZM34.06 155.50L32.69 149.92L27.55 148.34L23.79 152.34L25.16 157.92L30.30 159.50ZM45.36 143.51L43.99 137.92L38.85 136.34L35.09 140.34L36.46 145.92L41.59 147.51ZM36.46 145.92L35.09 140.34L29.95 138.75L26.18 142.75L27.55 148.34L32.69 149.92ZM49.47 160.26L48.10 154.68L42.96 153.09L39.19 157.09L40.56 162.67L45.70 164.26ZM40.56 162.67L39.19 157.09L34.06 155.50L30.30 159.50L31.66 165.08L36.80 166.67ZM51.87 150.68L50.50 145.10L45.36 143.51L41.59 147.51L42.96 153.09L48.10 154.68ZM89.01 69.06L87.64 63.45L82.49 61.86L78.70 65.87L80.07 71.48L85.22 73.07ZM73.55 64.29L72.18 58.68L67.03 57.09L63.24 61.11L64.61 66.71L69.76 68.30ZM64.61 66.71L63.24 61.11L58.09 59.52L54.31 63.54L55.68 69.14L60.83 70.72ZM80.07 71.48L78.70 65.87L73.55 64.29L69.76 68.30L71.13 73.90L76.29 75.49ZM71.13 73.90L69.76 68.30L64.61 66.71L60.83 70.72L62.20 76.32L67.35 77.91ZM82.49 61.86L81.12 56.26L75.97 54.67L72.18 58.68L73.55 64.29L78.70 65.87ZM108.57 90.65L107.20 85.04L102.05 83.45L98.26 87.46L99.63 93.06L104.78 94.65ZM99.63 93.06L98.26 87.46L93.11 85.86L89.32 89.87L90.69 95.47L95.84 97.06ZM111.00 81.04L109.63 75.43L104.48 73.84L100.69 77.85L102.05 83.45L107.20 85.04ZM102.05 83.45L100.69 77.85L95.53 76.25L91.74 80.26L93.11 85.86L98.26 87.46ZM115.08 97.85L113.72 92.24L108.57 90.65L104.78 94.65L106.14 100.25L111.29 101.85ZM106.14 100.25L104.78 94.65L99.63 93.06L95.84 97.06L97.20 102.66L102.35 104.26ZM117.51 88.24L116.15 82.63L111.00 81.04L107.20 85.04L108.57 90.65L113.72 92.24ZM84.17 88.28L82.80 82.68L77.65 81.09L73.87 85.10L75.24 90.70L80.39 92.29ZM75.24 90.70L73.87 85.10L68.72 83.51L64.94 87.52L66.31 93.12L71.46 94.70ZM86.59 78.67L85.22 73.07L80.07 71.48L76.29 75.49L77.65 81.09L82.80 82.68ZM77.65 81.09L76.29 75.49L71.13 73.90L67.35 77.91L68.72 83.51L73.87 85.10ZM90.69 95.47L89.32 89.87L84.17 88.28L80.39 92.29L81.75 97.89L86.90 99.48ZM81.75 97.89L80.39 92.29L75.24 90.70L71.46 94.70L72.82 100.30L77.97 101.89ZM93.11 85.86L91.74 80.26L86.59 78.67L82.80 82.68L84.17 88.28L89.32 89.87ZM119.94 78.62L118.58 73.02L113.42 71.42L109.63 75.43L111.00 81.04L116.15 82.63ZM35.43 83.60L34.05 78.01L28.91 76.42L25.13 80.44L26.51 86.03L31.65 87.61ZM26.51 86.03L25.13 80.44L19.99 78.85L16.22 82.87L17.59 88.46L22.74 90.04ZM37.83 73.99L36.45 68.40L31.31 66.81L27.53 70.83L28.91 76.42L34.05 78.01ZM28.91 76.42L27.53 70.83L22.39 69.25L18.61 73.26L19.99 78.85L25.13 80.44ZM41.94 90.78L40.57 85.18L35.43 83.60L31.65 87.61L33.03 93.20L38.17 94.79ZM33.03 93.20L31.65 87.61L26.51 86.03L22.74 90.04L24.11 95.63L29.25 97.21ZM44.35 81.17L42.97 75.58L37.83 73.99L34.05 78.01L35.43 83.60L40.57 85.18ZM11.08 81.29L9.70 75.70L4.56 74.12L0.79 78.13L2.17 83.72L7.31 85.30ZM2.17 83.72L0.79 78.13L-4.35 76.56L-8.12 80.57L-6.74 86.16L-1.60 87.73ZM13.47 71.68L12.09 66.09L6.95 64.51L3.18 68.53L4.56 74.12L9.70 75.70ZM4.56 74.12L3.18 68.53L-1.96 66.95L-5.73 70.96L-4.35 76.56L0.79 78.13ZM17.59 88.46L16.22 82.87L11.08 81.29L7.31 85.30L8.68 90.89L13.83 92.47ZM8.68 90.89L7.31 85.30L2.17 83.72L-1.60 87.73L-0.22 93.32L4.92 94.90ZM19.99 78.85L18.61 73.26L13.47 71.68L9.70 75.70L11.08 81.29L16.22 82.87ZM49.16 61.95L47.79 56.35L42.64 54.77L38.86 58.78L40.23 64.38L45.38 65.97ZM40.23 64.38L38.86 58.78L33.71 57.20L29.93 61.22L31.31 66.81L36.45 68.40ZM51.57 52.34L50.19 46.73L45.04 45.15L41.26 49.17L42.64 54.77L47.79 56.35ZM42.64 54.77L41.26 49.17L36.11 47.59L32.33 51.60L33.71 57.20L38.86 58.78ZM55.68 69.14L54.31 63.54L49.16 61.95L45.38 65.97L46.75 71.56L51.90 73.15ZM46.75 71.56L45.38 65.97L40.23 64.38L36.45 68.40L37.83 73.99L42.97 75.58ZM58.09 59.52L56.72 53.92L51.57 52.34L47.79 56.35L49.16 61.95L54.31 63.54ZM24.78 59.64L23.41 54.04L18.26 52.46L14.49 56.48L15.86 62.07L21.01 63.65ZM15.86 62.07L14.49 56.48L9.34 54.90L5.57 58.92L6.95 64.51L12.09 66.09ZM27.18 50.02L25.81 44.42L20.66 42.84L16.88 46.86L18.26 52.46L23.41 54.04ZM18.26 52.46L16.88 46.86L11.73 45.28L7.96 49.30L9.34 54.90L14.49 56.48ZM31.31 66.81L29.93 61.22L24.78 59.64L21.01 63.65L22.39 69.25L27.53 70.83ZM22.39 69.25L21.01 63.65L15.86 62.07L12.09 66.09L13.47 71.68L18.61 73.26ZM33.71 57.20L32.33 51.60L27.18 50.02L23.41 54.04L24.78 59.64L29.93 61.22ZM46.06 107.56L44.69 101.96L39.54 100.38L35.77 104.39L37.14 109.98L42.28 111.56ZM37.14 109.98L35.77 104.39L30.63 102.80L26.86 106.81L28.23 112.40L33.37 113.98ZM48.46 97.96L47.09 92.36L41.94 90.78L38.17 94.79L39.54 100.38L44.69 101.96ZM39.54 100.38L38.17 94.79L33.03 93.20L29.25 97.21L30.63 102.80L35.77 104.39ZM52.57 114.73L51.20 109.14L46.06 107.56L42.28 111.56L43.65 117.15L48.80 118.74ZM43.65 117.15L42.28 111.56L37.14 109.98L33.37 113.98L34.74 119.57L39.88 121.16ZM54.97 105.14L53.60 99.54L48.46 97.96L44.69 101.96L46.06 107.56L51.20 109.14ZM21.72 105.23L20.34 99.64L15.20 98.06L11.43 102.07L12.81 107.66L17.95 109.24ZM12.81 107.66L11.43 102.07L6.29 100.49L2.53 104.50L3.91 110.08L9.04 111.66ZM24.11 95.63L22.74 90.04L17.59 88.46L13.83 92.47L15.20 98.06L20.34 99.64ZM15.20 98.06L13.83 92.47L8.68 90.89L4.92 94.90L6.29 100.49L11.43 102.07ZM28.23 112.40L26.86 106.81L21.72 105.23L17.95 109.24L19.32 114.82L24.46 116.41ZM19.32 114.82L17.95 109.24L12.81 107.66L9.04 111.66L10.42 117.25L15.56 118.83ZM30.63 102.80L29.25 97.21L24.11 95.63L20.34 99.64L21.72 105.23L26.86 106.81ZM59.79 85.93L58.42 80.33L53.27 78.75L49.49 82.76L50.86 88.35L56.01 89.94ZM50.86 88.35L49.49 82.76L44.35 81.17L40.57 85.18L41.94 90.78L47.09 92.36ZM62.20 76.32L60.83 70.72L55.68 69.14L51.90 73.15L53.27 78.75L58.42 80.33ZM53.27 78.75L51.90 73.15L46.75 71.56L42.97 75.58L44.35 81.17L49.49 82.76ZM66.31 93.12L64.94 87.52L59.79 85.93L56.01 89.94L57.38 95.54L62.53 97.12ZM57.38 95.54L56.01 89.94L50.86 88.35L47.09 92.36L48.46 97.96L53.60 99.54ZM68.72 83.51L67.35 77.91L62.20 76.32L58.42 80.33L59.79 85.93L64.94 87.52ZM126.55 184.19L125.19 178.60L120.05 177.00L116.26 180.99L117.62 186.58L122.76 188.18ZM117.62 186.58L116.26 180.99L111.12 179.39L107.34 183.38L108.70 188.97L113.84 190.57ZM128.97 174.61L127.62 169.02L122.47 167.41L118.69 171.41L120.05 177.00L125.19 178.60ZM120.05 177.00L118.69 171.41L113.55 169.81L109.76 173.80L111.12 179.39L116.26 180.99ZM133.04 191.38L131.69 185.79L126.55 184.19L122.76 188.18L124.12 193.77L129.26 195.37ZM124.12 193.77L122.76 188.18L117.62 186.58L113.84 190.57L115.20 196.15L120.34 197.75ZM135.47 181.80L134.12 176.21L128.97 174.61L125.19 178.60L126.55 184.19L131.69 185.79ZM102.20 181.78L100.84 176.19L95.70 174.59L91.93 178.59L93.29 184.17L98.43 185.77ZM93.29 184.17L91.93 178.59L86.79 176.99L83.01 180.98L84.38 186.57L89.51 188.16ZM104.62 172.20L103.26 166.61L98.12 165.01L94.34 169.01L95.70 174.59L100.84 176.19ZM95.70 174.59L94.34 169.01L89.20 167.41L85.43 171.40L86.79 176.99L91.93 178.59ZM108.70 188.97L107.34 183.38L102.20 181.78L98.43 185.77L99.79 191.36L104.92 192.95ZM99.79 191.36L98.43 185.77L93.29 184.17L89.51 188.16L90.87 193.75L96.01 195.34ZM111.12 179.39L109.76 173.80L104.62 172.20L100.84 176.19L102.20 181.78L107.34 183.38ZM140.34 162.63L138.98 157.04L133.83 155.44L130.04 159.43L131.40 165.02L136.55 166.63ZM131.40 165.02L130.04 159.43L124.90 157.83L121.11 161.82L122.47 167.41L127.62 169.02ZM142.77 153.05L141.41 147.45L136.27 145.84L132.48 149.84L133.83 155.44L138.98 157.04ZM133.83 155.44L132.48 149.84L127.33 148.24L123.54 152.23L124.90 157.83L130.04 159.43ZM146.84 169.83L145.48 164.24L140.34 162.63L136.55 166.63L137.90 172.22L143.05 173.82ZM137.90 172.22L136.55 166.63L131.40 165.02L127.62 169.02L128.97 174.61L134.12 176.21ZM149.27 160.25L147.92 154.65L142.77 153.05L138.98 157.04L140.34 162.63L145.48 164.24ZM115.97 160.22L114.61 154.63L109.47 153.03L105.68 157.02L107.04 162.62L112.19 164.22ZM107.04 162.62L105.68 157.02L100.54 155.43L96.76 159.42L98.12 165.01L103.26 166.61ZM118.39 150.63L117.03 145.04L111.89 143.44L108.10 147.44L109.47 153.03L114.61 154.63ZM109.47 153.03L108.10 147.44L102.96 145.84L99.18 149.84L100.54 155.43L105.68 157.02ZM122.47 167.41L121.11 161.82L115.97 160.22L112.19 164.22L113.55 169.81L118.69 171.41ZM113.55 169.81L112.19 164.22L107.04 162.62L103.26 166.61L104.62 172.20L109.76 173.80ZM124.90 157.83L123.54 152.23L118.39 150.63L114.61 154.63L115.97 160.22L121.11 161.82ZM137.11 208.15L135.76 202.56L130.62 200.96L126.83 204.94L128.19 210.53L133.33 212.13ZM128.19 210.53L126.83 204.94L121.70 203.34L117.92 207.33L119.27 212.91L124.41 214.51ZM139.54 198.58L138.19 192.99L133.04 191.38L129.26 195.37L130.62 200.96L135.76 202.56ZM130.62 200.96L129.26 195.37L124.12 193.77L120.34 197.75L121.70 203.34L126.83 204.94ZM143.60 215.34L142.25 209.76L137.11 208.15L133.33 212.13L134.68 217.72L139.82 219.33ZM134.68 217.72L133.33 212.13L128.19 210.53L124.41 214.51L125.77 220.10L130.90 221.70ZM146.04 205.77L144.68 200.18L139.54 198.58L135.76 202.56L137.11 208.15L142.25 209.76ZM112.78 205.73L111.42 200.14L106.28 198.54L102.51 202.53L103.87 208.11L109.00 209.71ZM103.87 208.11L102.51 202.53L97.37 200.93L93.60 204.92L94.96 210.50L100.09 212.10ZM115.20 196.15L113.84 190.57L108.70 188.97L104.92 192.95L106.28 198.54L111.42 200.14ZM106.28 198.54L104.92 192.95L99.79 191.36L96.01 195.34L97.37 200.93L102.51 202.53ZM119.27 212.91L117.92 207.33L112.78 205.73L109.00 209.71L110.36 215.29L115.49 216.90ZM110.36 215.29L109.00 209.71L103.87 208.11L100.09 212.10L101.45 217.68L106.58 219.28ZM121.70 203.34L120.34 197.75L115.20 196.15L111.42 200.14L112.78 205.73L117.92 207.33ZM150.90 186.62L149.55 181.02L144.40 179.42L140.62 183.41L141.97 189.00L147.11 190.60ZM141.97 189.00L140.62 183.41L135.47 181.80L131.69 185.79L133.04 191.38L138.19 192.99ZM153.34 177.04L151.99 171.44L146.84 169.83L143.05 173.82L144.40 179.42L149.55 181.02ZM144.40 179.42L143.05 173.82L137.90 172.22L134.12 176.21L135.47 181.80L140.62 183.41ZM157.40 193.82L156.05 188.22L150.90 186.62L147.11 190.60L148.47 196.20L153.61 197.80ZM148.47 196.20L147.11 190.60L141.97 189.00L138.19 192.99L139.54 198.58L144.68 200.18ZM159.84 184.24L158.49 178.64L153.34 177.04L149.55 181.02L150.90 186.62L156.05 188.22ZM66.57 191.36L65.20 185.78L60.07 184.19L56.30 188.18L57.66 193.76L62.80 195.35ZM57.66 193.76L56.30 188.18L51.17 186.59L47.40 190.58L48.77 196.16L53.90 197.75ZM70.66 208.10L69.29 202.52L64.16 200.93L60.39 204.92L61.76 210.50L66.89 212.09ZM73.06 198.53L71.70 192.95L66.57 191.36L62.80 195.35L64.16 200.93L69.29 202.52ZM42.27 188.99L40.90 183.41L35.77 181.82L32.01 185.82L33.38 191.40L38.51 192.98ZM33.38 191.40L32.01 185.82L26.88 184.23L23.12 188.22L24.49 193.80L29.62 195.39ZM77.88 179.39L76.51 173.80L71.38 172.21L67.61 176.20L68.97 181.79L74.11 183.38ZM68.97 181.79L67.61 176.20L62.47 174.61L58.70 178.60L60.07 184.19L65.20 185.78ZM80.29 169.81L78.92 164.22L73.79 162.63L70.01 166.62L71.38 172.21L76.51 173.80ZM71.38 172.21L70.01 166.62L64.88 165.03L61.10 169.03L62.47 174.61L67.61 176.20ZM84.38 186.57L83.01 180.98L77.88 179.39L74.11 183.38L75.47 188.96L80.60 190.56ZM75.47 188.96L74.11 183.38L68.97 181.79L65.20 185.78L66.57 191.36L71.70 192.95ZM86.79 176.99L85.43 171.40L80.29 169.81L76.51 173.80L77.88 179.39L83.01 180.98ZM53.57 177.01L52.20 171.43L47.07 169.84L43.30 173.84L44.67 179.42L49.80 181.01ZM44.67 179.42L43.30 173.84L38.17 172.25L34.40 176.24L35.77 181.82L40.90 183.41ZM55.97 167.44L54.60 161.85L49.47 160.26L45.70 164.26L47.07 169.84L52.20 171.43ZM47.07 169.84L45.70 164.26L40.56 162.67L36.80 166.67L38.17 172.25L43.30 173.84ZM60.07 184.19L58.70 178.60L53.57 177.01L49.80 181.01L51.17 186.59L56.30 188.18ZM51.17 186.59L49.80 181.01L44.67 179.42L40.90 183.41L42.27 188.99L47.40 190.58ZM62.47 174.61L61.10 169.03L55.97 167.44L52.20 171.43L53.57 177.01L58.70 178.60ZM88.46 203.32L87.10 197.74L81.97 196.14L78.20 200.13L79.56 205.71L84.69 207.31ZM79.56 205.71L78.20 200.13L73.06 198.53L69.29 202.52L70.66 208.10L75.79 209.70ZM90.87 193.75L89.51 188.16L84.38 186.57L80.60 190.56L81.97 196.14L87.10 197.74ZM81.97 196.14L80.60 190.56L75.47 188.96L71.70 192.95L73.06 198.53L78.20 200.13ZM94.96 210.50L93.60 204.92L88.46 203.32L84.69 207.31L86.05 212.89L91.18 214.48ZM97.37 200.93L96.01 195.34L90.87 193.75L87.10 197.74L88.46 203.32L93.60 204.92ZM143.57 117.05L142.21 111.45L137.06 109.84L133.26 113.85L134.62 119.45L139.78 121.05ZM134.62 119.45L133.26 113.85L128.11 112.25L124.32 116.25L125.68 121.85L130.83 123.45ZM146.01 107.44L144.65 101.84L139.50 100.24L135.70 104.24L137.06 109.84L142.21 111.45ZM137.06 109.84L135.70 104.24L130.55 102.64L126.75 106.64L128.11 112.25L133.26 113.85ZM150.08 124.26L148.73 118.65L143.57 117.05L139.78 121.05L141.13 126.65L146.29 128.25ZM141.13 126.65L139.78 121.05L134.62 119.45L130.83 123.45L132.19 129.05L137.34 130.65ZM152.52 114.65L151.17 109.05L146.01 107.44L142.21 111.45L143.57 117.05L148.73 118.65ZM119.17 114.65L117.81 109.05L112.66 107.45L108.87 111.45L110.23 117.05L115.38 118.65ZM110.23 117.05L108.87 111.45L103.72 109.86L99.93 113.86L101.29 119.46L106.44 121.05ZM121.60 105.05L120.24 99.44L115.08 97.85L111.29 101.85L112.66 107.45L117.81 109.05ZM112.66 107.45L111.29 101.85L106.14 100.25L102.35 104.26L103.72 109.86L108.87 111.45ZM125.68 121.85L124.32 116.25L119.17 114.65L115.38 118.65L116.74 124.25L121.89 125.85ZM116.74 124.25L115.38 118.65L110.23 117.05L106.44 121.05L107.80 126.65L112.95 128.25ZM128.11 112.25L126.75 106.64L121.60 105.05L117.81 109.05L119.17 114.65L124.32 116.25ZM157.41 95.44L156.05 89.83L150.89 88.22L147.09 92.23L148.45 97.84L153.61 99.44ZM148.45 97.84L147.09 92.23L141.93 90.63L138.14 94.63L139.50 100.24L144.65 101.84ZM163.92 102.65L162.57 97.04L157.41 95.44L153.61 99.44L154.96 105.05L160.12 106.65ZM154.96 105.05L153.61 99.44L148.45 97.84L144.65 101.84L146.01 107.44L151.17 109.05ZM132.98 93.03L131.62 87.43L126.46 85.83L122.67 89.83L124.03 95.44L129.18 97.04ZM124.03 95.44L122.67 89.83L117.51 88.24L113.72 92.24L115.08 97.85L120.24 99.44ZM126.46 85.83L125.10 80.22L119.94 78.62L116.15 82.63L117.51 88.24L122.67 89.83ZM139.50 100.24L138.14 94.63L132.98 93.03L129.18 97.04L130.55 102.64L135.70 104.24ZM130.55 102.64L129.18 97.04L124.03 95.44L120.24 99.44L121.60 105.05L126.75 106.64ZM154.15 141.06L152.80 135.46L147.64 133.86L143.85 137.85L145.21 143.45L150.36 145.06ZM145.21 143.45L143.85 137.85L138.70 136.25L134.91 140.25L136.27 145.84L141.41 147.45ZM156.59 131.46L155.24 125.86L150.08 124.26L146.29 128.25L147.64 133.86L152.80 135.46ZM147.64 133.86L146.29 128.25L141.13 126.65L137.34 130.65L138.70 136.25L143.85 137.85ZM160.66 148.27L159.30 142.67L154.15 141.06L150.36 145.06L151.71 150.66L156.86 152.26ZM151.71 150.66L150.36 145.06L145.21 143.45L141.41 147.45L142.77 153.05L147.92 154.65ZM163.10 138.67L161.74 133.07L156.59 131.46L152.80 135.46L154.15 141.06L159.30 142.67ZM129.76 138.65L128.40 133.05L123.25 131.45L119.46 135.45L120.82 141.04L125.97 142.64ZM120.82 141.04L119.46 135.45L114.31 133.85L110.53 137.84L111.89 143.44L117.03 145.04ZM132.19 129.05L130.83 123.45L125.68 121.85L121.89 125.85L123.25 131.45L128.40 133.05ZM123.25 131.45L121.89 125.85L116.74 124.25L112.95 128.25L114.31 133.85L119.46 135.45ZM136.27 145.84L134.91 140.25L129.76 138.65L125.97 142.64L127.33 148.24L132.48 149.84ZM127.33 148.24L125.97 142.64L120.82 141.04L117.03 145.04L118.39 150.63L123.54 152.23ZM138.70 136.25L137.34 130.65L132.19 129.05L128.40 133.05L129.76 138.65L134.91 140.25ZM167.99 119.47L166.63 113.86L161.48 112.26L157.68 116.26L159.03 121.86L164.19 123.47ZM159.03 121.86L157.68 116.26L152.52 114.65L148.73 118.65L150.08 124.26L155.24 125.86ZM170.44 109.86L169.08 104.25L163.92 102.65L160.12 106.65L161.48 112.26L166.63 113.86ZM161.48 112.26L160.12 106.65L154.96 105.05L151.17 109.05L152.52 114.65L157.68 116.26ZM174.50 126.68L173.15 121.08L167.99 119.47L164.19 123.47L165.54 129.07L170.70 130.68ZM165.54 129.07L164.19 123.47L159.03 121.86L155.24 125.86L156.59 131.46L161.74 133.07ZM176.95 117.08L175.59 111.47L170.44 109.86L166.63 113.86L167.99 119.47L173.15 121.08ZM3.91 110.08L2.53 104.50L-2.61 102.92L-6.37 106.93L-4.99 112.51L0.14 114.09ZM6.29 100.49L4.92 94.90L-0.22 93.32L-3.98 97.33L-2.61 102.92L2.53 104.50ZM258.08 256.49L256.74 250.89L251.60 249.27L247.79 253.24L249.13 258.83L254.27 260.46ZM249.13 258.83L247.79 253.24L242.64 251.62L238.84 255.59L240.18 261.18L245.33 262.80ZM260.55 246.92L259.21 241.32L254.06 239.70L250.26 243.67L251.60 249.27L256.74 250.89ZM263.02 237.35L261.68 231.75L256.53 230.13L252.72 234.10L254.06 239.70L259.21 241.32ZM172.00 234.56L170.65 228.97L165.51 227.36L161.73 231.34L163.08 236.93L168.21 238.54ZM163.08 236.93L161.73 231.34L156.59 229.73L152.80 233.71L154.15 239.30L159.29 240.91ZM174.44 225.00L173.09 219.40L167.95 217.79L164.16 221.77L165.51 227.36L170.65 228.97ZM165.51 227.36L164.16 221.77L159.02 220.17L155.24 224.15L156.59 229.73L161.73 231.34ZM178.49 241.76L177.14 236.17L172.00 234.56L168.21 238.54L169.56 244.13L174.70 245.74ZM180.93 232.20L179.58 226.61L174.44 225.00L170.65 228.97L172.00 234.56L177.14 236.17ZM147.67 232.10L146.31 226.52L141.17 224.91L137.39 228.89L138.75 234.48L143.88 236.08ZM150.10 222.54L148.74 216.95L143.60 215.34L139.82 219.33L141.17 224.91L146.31 226.52ZM141.17 224.91L139.82 219.33L134.68 217.72L130.90 221.70L132.26 227.29L137.39 228.89ZM154.15 239.30L152.80 233.71L147.67 232.10L143.88 236.08L145.24 241.67L150.37 243.28ZM156.59 229.73L155.24 224.15L150.10 222.54L146.31 226.52L147.67 232.10L152.80 233.71ZM185.82 213.06L184.47 207.46L179.33 205.85L175.54 209.83L176.89 215.42L182.03 217.04ZM176.89 215.42L175.54 209.83L170.39 208.22L166.60 212.20L167.95 217.79L173.09 219.40ZM188.27 203.48L186.92 197.88L181.77 196.27L177.98 200.25L179.33 205.85L184.47 207.46ZM179.33 205.85L177.98 200.25L172.83 198.64L169.04 202.63L170.39 208.22L175.54 209.83ZM192.31 220.26L190.97 214.67L185.82 213.06L182.03 217.04L183.38 222.63L188.52 224.24ZM183.38 222.63L182.03 217.04L176.89 215.42L173.09 219.40L174.44 225.00L179.58 226.61ZM194.76 210.69L193.41 205.09L188.27 203.48L184.47 207.46L185.82 213.06L190.97 214.67ZM161.46 210.59L160.11 205.00L154.96 203.39L151.18 207.38L152.53 212.97L157.67 214.58ZM152.53 212.97L151.18 207.38L146.04 205.77L142.25 209.76L143.60 215.34L148.74 216.95ZM163.90 201.02L162.54 195.43L157.40 193.82L153.61 197.80L154.96 203.39L160.11 205.00ZM154.96 203.39L153.61 197.80L148.47 196.20L144.68 200.18L146.04 205.77L151.18 207.38ZM167.95 217.79L166.60 212.20L161.46 210.59L157.67 214.58L159.02 220.17L164.16 221.77ZM159.02 220.17L157.67 214.58L152.53 212.97L148.74 216.95L150.10 222.54L155.24 224.15ZM170.39 208.22L169.04 202.63L163.90 201.02L160.11 205.00L161.46 210.59L166.60 212.20ZM184.98 248.97L183.63 243.38L178.49 241.76L174.70 245.74L176.05 251.33L181.19 252.94ZM196.36 237.04L195.01 231.45L189.87 229.83L186.07 233.81L187.42 239.40L192.56 241.02ZM187.42 239.40L186.07 233.81L180.93 232.20L177.14 236.17L178.49 241.76L183.63 243.38ZM198.81 227.47L197.46 221.88L192.31 220.26L188.52 224.24L189.87 229.83L195.01 231.45ZM189.87 229.83L188.52 224.24L183.38 222.63L179.58 226.61L180.93 232.20L186.07 233.81ZM202.84 244.25L201.50 238.66L196.36 237.04L192.56 241.02L193.91 246.61L199.05 248.22ZM193.91 246.61L192.56 241.02L187.42 239.40L183.63 243.38L184.98 248.97L190.12 250.58ZM205.29 234.68L203.95 229.09L198.81 227.47L195.01 231.45L196.36 237.04L201.50 238.66ZM125.77 220.10L124.41 214.51L119.27 212.91L115.49 216.90L116.85 222.48L121.99 224.08ZM116.85 222.48L115.49 216.90L110.36 215.29L106.58 219.28L107.94 224.86L113.08 226.46ZM107.94 224.86L106.58 219.28L101.45 217.68L97.68 221.66L99.04 227.24L104.17 228.84ZM233.70 253.96L232.36 248.37L227.21 246.75L223.41 250.72L224.75 256.31L229.90 257.93ZM224.75 256.31L223.41 250.72L218.27 249.10L214.47 253.07L215.82 258.66L220.96 260.28ZM240.18 261.18L238.84 255.59L233.70 253.96L229.90 257.93L231.24 263.53L236.38 265.15ZM209.33 251.46L207.99 245.86L202.84 244.25L199.05 248.22L200.40 253.81L205.53 255.43ZM200.40 253.81L199.05 248.22L193.91 246.61L190.12 250.58L191.46 256.17L196.60 257.78ZM215.82 258.66L214.47 253.07L209.33 251.46L205.53 255.43L206.88 261.02L212.02 262.64ZM251.88 150.91L250.53 145.30L245.37 143.68L241.55 147.67L242.90 153.28L248.06 154.90ZM242.90 153.28L241.55 147.67L236.39 146.05L232.58 150.04L233.93 155.65L239.08 157.27ZM254.35 141.31L253.01 135.69L247.84 134.07L244.03 138.06L245.37 143.68L250.53 145.30ZM245.37 143.68L244.03 138.06L238.86 136.44L235.05 140.44L236.39 146.05L241.55 147.67ZM258.38 158.14L257.04 152.53L251.88 150.91L248.06 154.90L249.40 160.51L254.56 162.13ZM249.40 160.51L248.06 154.90L242.90 153.28L239.08 157.27L240.43 162.88L245.59 164.50ZM260.86 148.54L259.51 142.93L254.35 141.31L250.53 145.30L251.88 150.91L257.04 152.53ZM227.42 148.42L226.08 142.81L220.92 141.19L217.11 145.19L218.45 150.79L223.61 152.41ZM218.45 150.79L217.11 145.19L211.95 143.57L208.14 147.56L209.49 153.17L214.64 154.78ZM229.89 138.82L228.54 133.21L223.38 131.59L219.57 135.58L220.92 141.19L226.08 142.81ZM220.92 141.19L219.57 135.58L214.41 133.97L210.60 137.96L211.95 143.57L217.11 145.19ZM233.93 155.65L232.58 150.04L227.42 148.42L223.61 152.41L224.96 158.02L230.11 159.64ZM224.96 158.02L223.61 152.41L218.45 150.79L214.64 154.78L215.99 160.39L221.15 162.01ZM236.39 146.05L235.05 140.44L229.89 138.82L226.08 142.81L227.42 148.42L232.58 150.04ZM238.86 136.44L237.52 130.83L232.36 129.21L228.54 133.21L229.89 138.82L235.05 140.44ZM262.41 174.97L261.06 169.37L255.90 167.74L252.09 171.73L253.43 177.34L258.59 178.96ZM253.43 177.34L252.09 171.73L246.93 170.10L243.12 174.09L244.46 179.70L249.62 181.32ZM264.88 165.38L263.54 159.77L258.38 158.14L254.56 162.13L255.90 167.74L261.06 169.37ZM255.90 167.74L254.56 162.13L249.40 160.51L245.59 164.50L246.93 170.10L252.09 171.73ZM259.93 184.57L258.59 178.96L253.43 177.34L249.62 181.32L250.96 186.93L256.11 188.55ZM237.96 172.47L236.62 166.86L231.46 165.24L227.65 169.23L228.99 174.84L234.15 176.46ZM228.99 174.84L227.65 169.23L222.49 167.61L218.69 171.60L220.03 177.20L225.19 178.82ZM240.43 162.88L239.08 157.27L233.93 155.65L230.11 159.64L231.46 165.24L236.62 166.86ZM231.46 165.24L230.11 159.64L224.96 158.02L221.15 162.01L222.49 167.61L227.65 169.23ZM244.46 179.70L243.12 174.09L237.96 172.47L234.15 176.46L235.49 182.06L240.65 183.68ZM235.49 182.06L234.15 176.46L228.99 174.84L225.19 178.82L226.53 184.43L231.68 186.05ZM246.93 170.10L245.59 164.50L240.43 162.88L236.62 166.86L237.96 172.47L243.12 174.09ZM189.12 167.52L187.77 161.91L182.62 160.30L178.82 164.29L180.17 169.89L185.32 171.50ZM180.17 169.89L178.82 164.29L173.67 162.68L169.87 166.67L171.22 172.27L176.37 173.88ZM191.57 157.92L190.22 152.32L185.06 150.71L181.26 154.70L182.62 160.30L187.77 161.91ZM182.62 160.30L181.26 154.70L176.11 153.09L172.31 157.08L173.67 162.68L178.82 164.29ZM195.62 174.73L194.27 169.13L189.12 167.52L185.32 171.50L186.67 177.10L191.82 178.72ZM186.67 177.10L185.32 171.50L180.17 169.89L176.37 173.88L177.72 179.48L182.87 181.09ZM198.07 165.14L196.72 159.54L191.57 157.92L187.77 161.91L189.12 167.52L194.27 169.13ZM164.72 165.07L163.37 159.47L158.22 157.86L154.42 161.85L155.78 167.45L160.92 169.06ZM155.78 167.45L154.42 161.85L149.27 160.25L145.48 164.24L146.84 169.83L151.99 171.44ZM167.16 155.48L165.81 149.87L160.66 148.27L156.86 152.26L158.22 157.86L163.37 159.47ZM158.22 157.86L156.86 152.26L151.71 150.66L147.92 154.65L149.27 160.25L154.42 161.85ZM171.22 172.27L169.87 166.67L164.72 165.07L160.92 169.06L162.28 174.65L167.43 176.26ZM162.28 174.65L160.92 169.06L155.78 167.45L151.99 171.44L153.34 177.04L158.49 178.64ZM173.67 162.68L172.31 157.08L167.16 155.48L163.37 159.47L164.72 165.07L169.87 166.67ZM202.98 145.95L201.63 140.34L196.48 138.73L192.67 142.72L194.02 148.33L199.18 149.94ZM194.02 148.33L192.67 142.72L187.52 141.11L183.71 145.11L185.06 150.71L190.22 152.32ZM205.44 136.35L204.09 130.74L198.93 129.13L195.13 133.12L196.48 138.73L201.63 140.34ZM196.48 138.73L195.13 133.12L189.97 131.51L186.16 135.51L187.52 141.11L192.67 142.72ZM209.49 153.17L208.14 147.56L202.98 145.95L199.18 149.94L200.53 155.55L205.68 157.16ZM200.53 155.55L199.18 149.94L194.02 148.33L190.22 152.32L191.57 157.92L196.72 159.54ZM211.95 143.57L210.60 137.96L205.44 136.35L201.63 140.34L202.98 145.95L208.14 147.56ZM178.56 143.50L177.21 137.89L172.05 136.28L168.25 140.28L169.61 145.88L174.76 147.49ZM169.61 145.88L168.25 140.28L163.10 138.67L159.30 142.67L160.66 148.27L165.81 149.87ZM181.01 133.90L179.66 128.29L174.50 126.68L170.70 130.68L172.05 136.28L177.21 137.89ZM172.05 136.28L170.70 130.68L165.54 129.07L161.74 133.07L163.10 138.67L168.25 140.28ZM185.06 150.71L183.71 145.11L178.56 143.50L174.76 147.49L176.11 153.09L181.26 154.70ZM176.11 153.09L174.76 147.49L169.61 145.88L165.81 149.87L167.16 155.48L172.31 157.08ZM187.52 141.11L186.16 135.51L181.01 133.90L177.21 137.89L178.56 143.50L183.71 145.11ZM199.67 191.53L198.32 185.93L193.17 184.32L189.37 188.30L190.72 193.90L195.87 195.51ZM190.72 193.90L189.37 188.30L184.22 186.69L180.42 190.67L181.77 196.27L186.92 197.88ZM202.12 181.94L200.77 176.34L195.62 174.73L191.82 178.72L193.17 184.32L198.32 185.93ZM193.17 184.32L191.82 178.72L186.67 177.10L182.87 181.09L184.22 186.69L189.37 188.30ZM206.16 198.74L204.81 193.14L199.67 191.53L195.87 195.51L197.21 201.11L202.36 202.72ZM197.21 201.11L195.87 195.51L190.72 193.90L186.92 197.88L188.27 203.48L193.41 205.09ZM208.62 189.16L207.27 183.56L202.12 181.94L198.32 185.93L199.67 191.53L204.81 193.14ZM175.28 189.06L173.93 183.47L168.78 181.86L164.98 185.85L166.34 191.44L171.48 193.05ZM166.34 191.44L164.98 185.85L159.84 184.24L156.05 188.22L157.40 193.82L162.54 195.43ZM177.72 179.48L176.37 173.88L171.22 172.27L167.43 176.26L168.78 181.86L173.93 183.47ZM168.78 181.86L167.43 176.26L162.28 174.65L158.49 178.64L159.84 184.24L164.98 185.85ZM181.77 196.27L180.42 190.67L175.28 189.06L171.48 193.05L172.83 198.64L177.98 200.25ZM172.83 198.64L171.48 193.05L166.34 191.44L162.54 195.43L163.90 201.02L169.04 202.63ZM184.22 186.69L182.87 181.09L177.72 179.48L173.93 183.47L175.28 189.06L180.42 190.67ZM213.53 169.98L212.18 164.38L207.03 162.76L203.22 166.75L204.57 172.36L209.73 173.97ZM204.57 172.36L203.22 166.75L198.07 165.14L194.27 169.13L195.62 174.73L200.77 176.34ZM215.99 160.39L214.64 154.78L209.49 153.17L205.68 157.16L207.03 162.76L212.18 164.38ZM207.03 162.76L205.68 157.16L200.53 155.55L196.72 159.54L198.07 165.14L203.22 166.75ZM220.03 177.20L218.69 171.60L213.53 169.98L209.73 173.97L211.07 179.57L216.23 181.19ZM211.07 179.57L209.73 173.97L204.57 172.36L200.77 176.34L202.12 181.94L207.27 183.56ZM222.49 167.61L221.15 162.01L215.99 160.39L212.18 164.38L213.53 169.98L218.69 171.60ZM179.40 107.47L178.04 101.86L172.88 100.25L169.08 104.25L170.44 109.86L175.59 111.47ZM216.87 124.36L215.52 118.75L210.36 117.14L206.55 121.13L207.90 126.74L213.06 128.36ZM207.90 126.74L206.55 121.13L201.39 119.52L197.58 123.52L198.93 129.13L204.09 130.74ZM223.38 131.59L222.03 125.98L216.87 124.36L213.06 128.36L214.41 133.97L219.57 135.58ZM214.41 133.97L213.06 128.36L207.90 126.74L204.09 130.74L205.44 136.35L210.60 137.96ZM192.42 121.91L191.07 116.30L185.91 114.69L182.11 118.69L183.46 124.29L188.62 125.90ZM183.46 124.29L182.11 118.69L176.95 117.08L173.15 121.08L174.50 126.68L179.66 128.29ZM185.91 114.69L184.56 109.08L179.40 107.47L175.59 111.47L176.95 117.08L182.11 118.69ZM198.93 129.13L197.58 123.52L192.42 121.91L188.62 125.90L189.97 131.51L195.13 133.12ZM189.97 131.51L188.62 125.90L183.46 124.29L179.66 128.29L181.01 133.90L186.16 135.51ZM263.95 201.39L262.61 195.78L257.46 194.16L253.64 198.14L254.98 203.74L260.14 205.37ZM234.59 218.03L233.25 212.43L228.10 210.81L224.30 214.79L225.64 220.39L230.79 222.01ZM225.64 220.39L224.30 214.79L219.15 213.17L215.35 217.15L216.69 222.75L221.84 224.37ZM237.06 208.45L235.72 202.85L230.56 201.23L226.76 205.21L228.10 210.81L233.25 212.43ZM228.10 210.81L226.76 205.21L221.61 203.59L217.80 207.58L219.15 213.17L224.30 214.79ZM241.09 225.25L239.74 219.65L234.59 218.03L230.79 222.01L232.13 227.61L237.28 229.23ZM232.13 227.61L230.79 222.01L225.64 220.39L221.84 224.37L223.18 229.96L228.33 231.58ZM243.55 215.68L242.21 210.08L237.06 208.45L233.25 212.43L234.59 218.03L239.74 219.65ZM210.20 215.53L208.85 209.94L203.71 208.32L199.91 212.30L201.26 217.90L206.40 219.51ZM201.26 217.90L199.91 212.30L194.76 210.69L190.97 214.67L192.31 220.26L197.46 221.88ZM212.66 205.96L211.31 200.36L206.16 198.74L202.36 202.72L203.71 208.32L208.85 209.94ZM203.71 208.32L202.36 202.72L197.21 201.11L193.41 205.09L194.76 210.69L199.91 212.30ZM216.69 222.75L215.35 217.15L210.20 215.53L206.40 219.51L207.75 225.11L212.89 226.73ZM207.75 225.11L206.40 219.51L201.26 217.90L197.46 221.88L198.81 227.47L203.95 229.09ZM219.15 213.17L217.80 207.58L212.66 205.96L208.85 209.94L210.20 215.53L215.35 217.15ZM248.49 196.51L247.15 190.91L241.99 189.29L238.18 193.27L239.52 198.87L244.68 200.49ZM239.52 198.87L238.18 193.27L233.03 191.65L229.22 195.63L230.56 201.23L235.72 202.85ZM250.96 186.93L249.62 181.32L244.46 179.70L240.65 183.68L241.99 189.29L247.15 190.91ZM241.99 189.29L240.65 183.68L235.49 182.06L231.68 186.05L233.03 191.65L238.18 193.27ZM254.98 203.74L253.64 198.14L248.49 196.51L244.68 200.49L246.02 206.10L251.17 207.72ZM246.02 206.10L244.68 200.49L239.52 198.87L235.72 202.85L237.06 208.45L242.21 210.08ZM257.46 194.16L256.11 188.55L250.96 186.93L247.15 190.91L248.49 196.51L253.64 198.14ZM224.07 194.01L222.72 188.41L217.57 186.79L213.77 190.78L215.11 196.38L220.26 197.99ZM215.11 196.38L213.77 190.78L208.62 189.16L204.81 193.14L206.16 198.74L211.31 200.36ZM226.53 184.43L225.19 178.82L220.03 177.20L216.23 181.19L217.57 186.79L222.72 188.41ZM217.57 186.79L216.23 181.19L211.07 179.57L207.27 183.56L208.62 189.16L213.77 190.78ZM230.56 201.23L229.22 195.63L224.07 194.01L220.26 197.99L221.61 203.59L226.76 205.21ZM221.61 203.59L220.26 197.99L215.11 196.38L211.31 200.36L212.66 205.96L217.80 207.58ZM233.03 191.65L231.68 186.05L226.53 184.43L222.72 188.41L224.07 194.01L229.22 195.63ZM245.11 242.05L243.77 236.45L238.62 234.83L234.82 238.80L236.16 244.40L241.30 246.02ZM236.16 244.40L234.82 238.80L229.67 237.18L225.87 241.15L227.21 246.75L232.36 248.37ZM247.58 232.48L246.23 226.88L241.09 225.25L237.28 229.23L238.62 234.83L243.77 236.45ZM238.62 234.83L237.28 229.23L232.13 227.61L228.33 231.58L229.67 237.18L234.82 238.80ZM251.60 249.27L250.26 243.67L245.11 242.05L241.30 246.02L242.64 251.62L247.79 253.24ZM242.64 251.62L241.30 246.02L236.16 244.40L232.36 248.37L233.70 253.96L238.84 255.59ZM254.06 239.70L252.72 234.10L247.58 232.48L243.77 236.45L245.11 242.05L250.26 243.67ZM220.73 239.53L219.38 233.94L214.24 232.32L210.44 236.30L211.78 241.89L216.93 243.51ZM211.78 241.89L210.44 236.30L205.29 234.68L201.50 238.66L202.84 244.25L207.99 245.86ZM223.18 229.96L221.84 224.37L216.69 222.75L212.89 226.73L214.24 232.32L219.38 233.94ZM214.24 232.32L212.89 226.73L207.75 225.11L203.95 229.09L205.29 234.68L210.44 236.30ZM227.21 246.75L225.87 241.15L220.73 239.53L216.93 243.51L218.27 249.10L223.41 250.72ZM218.27 249.10L216.93 243.51L211.78 241.89L207.99 245.86L209.33 251.46L214.47 253.07ZM229.67 237.18L228.33 231.58L223.18 229.96L219.38 233.94L220.73 239.53L225.87 241.15ZM259.00 220.55L257.66 214.95L252.51 213.32L248.70 217.30L250.04 222.90L255.19 224.53ZM250.04 222.90L248.70 217.30L243.55 215.68L239.74 219.65L241.09 225.25L246.23 226.88ZM261.48 210.97L260.14 205.37L254.98 203.74L251.17 207.72L252.51 213.32L257.66 214.95ZM252.51 213.32L251.17 207.72L246.02 206.10L242.21 210.08L243.55 215.68L248.70 217.30ZM265.49 227.78L264.16 222.18L259.00 220.55L255.19 224.53L256.53 230.13L261.68 231.75ZM256.53 230.13L255.19 224.53L250.04 222.90L246.23 226.88L247.58 232.48L252.72 234.10Z"/><path data-band="2" fill="#f97316" fill-opacity="0.35" d="M262.10 13.68L260.75 8.05L255.57 6.43L251.73 10.45L253.08 16.08L258.26 17.70ZM253.08 16.08L251.73 10.45L246.55 8.83L242.72 12.85L244.07 18.48L249.25 20.09ZM264.59 4.03L263.24 -1.60L258.05 -3.22L254.22 0.80L255.57 6.43L260.75 8.05ZM255.57 6.43L254.22 0.80L249.03 -0.82L245.20 3.20L246.55 8.83L251.73 10.45ZM259.61 23.33L258.26 17.70L253.08 16.08L249.25 20.09L250.60 25.72L255.78 27.34ZM263.65 40.22L262.30 34.59L257.12 32.97L253.29 36.98L254.64 42.61L259.82 44.23ZM266.14 30.58L264.79 24.95L259.61 23.33L255.78 27.34L257.12 32.97L262.30 34.59ZM23.73 -2.84L22.35 -8.45L17.19 -10.02L13.41 -5.99L14.79 -0.39L19.95 1.19ZM14.79 -0.39L13.41 -5.99L8.26 -7.57L4.48 -3.54L5.86 2.06L11.02 3.64ZM52.27 16.28L50.90 10.67L45.74 9.09L41.95 13.11L43.33 18.72L48.49 20.30ZM43.33 18.72L41.95 13.11L36.80 11.53L33.02 15.56L34.39 21.16L39.55 22.74ZM54.68 6.65L53.31 1.04L48.15 -0.55L44.36 3.48L45.74 9.09L50.90 10.67ZM45.74 9.09L44.36 3.48L39.20 1.90L35.42 5.93L36.80 11.53L41.95 13.11ZM58.80 23.47L57.43 17.86L52.27 16.28L48.49 20.30L49.86 25.91L55.02 27.49ZM49.86 25.91L48.49 20.30L43.33 18.72L39.55 22.74L40.92 28.34L46.08 29.93ZM61.22 13.84L59.84 8.23L54.68 6.65L50.90 10.67L52.27 16.28L57.43 17.86ZM27.86 13.98L26.48 8.37L21.33 6.79L17.55 10.82L18.93 16.42L24.08 18.00ZM18.93 16.42L17.55 10.82L12.39 9.24L8.62 13.27L10.00 18.87L15.15 20.44ZM30.26 4.35L28.89 -1.26L23.73 -2.84L19.95 1.19L21.33 6.79L26.48 8.37ZM21.33 6.79L19.95 1.19L14.79 -0.39L11.02 3.64L12.39 9.24L17.55 10.82ZM34.39 21.16L33.02 15.56L27.86 13.98L24.08 18.00L25.46 23.60L30.61 25.18ZM25.46 23.60L24.08 18.00L18.93 16.42L15.15 20.44L16.53 26.05L21.68 27.62ZM36.80 11.53L35.42 5.93L30.26 4.35L26.48 8.37L27.86 13.98L33.02 15.56ZM57.10 -2.99L55.72 -8.60L50.56 -10.18L46.77 -6.15L48.15 -0.55L53.31 1.04ZM72.58 1.77L71.21 -3.84L66.05 -5.43L62.26 -1.40L63.63 4.21L68.79 5.79ZM63.63 4.21L62.26 -1.40L57.10 -2.99L53.31 1.04L54.68 6.65L59.84 8.23ZM48.15 -0.55L46.77 -6.15L41.61 -7.74L37.83 -3.71L39.20 1.90L44.36 3.48ZM39.20 1.90L37.83 -3.71L32.67 -5.29L28.89 -1.26L30.26 4.35L35.42 5.93ZM62.92 40.28L61.54 34.68L56.39 33.09L52.60 37.11L53.98 42.72L59.13 44.30ZM53.98 42.72L52.60 37.11L47.45 35.53L43.67 39.55L45.04 45.15L50.19 46.73ZM65.33 30.66L63.96 25.05L58.80 23.47L55.02 27.49L56.39 33.09L61.54 34.68ZM56.39 33.09L55.02 27.49L49.86 25.91L46.08 29.93L47.45 35.53L52.60 37.11ZM69.44 47.48L68.07 41.87L62.92 40.28L59.13 44.30L60.50 49.91L65.66 51.49ZM71.86 37.85L70.49 32.25L65.33 30.66L61.54 34.68L62.92 40.28L68.07 41.87ZM38.51 37.97L37.14 32.36L31.99 30.78L28.21 34.80L29.58 40.40L34.74 41.99ZM40.92 28.34L39.55 22.74L34.39 21.16L30.61 25.18L31.99 30.78L37.14 32.36ZM31.99 30.78L30.61 25.18L25.46 23.60L21.68 27.62L23.06 33.22L28.21 34.80ZM45.04 45.15L43.67 39.55L38.51 37.97L34.74 41.99L36.11 47.59L41.26 49.17ZM47.45 35.53L46.08 29.93L40.92 28.34L37.14 32.36L38.51 37.97L43.67 39.55ZM76.70 18.60L75.33 12.99L70.16 11.40L66.37 15.42L67.75 21.03L72.91 22.62ZM67.75 21.03L66.37 15.42L61.22 13.84L57.43 17.86L58.80 23.47L63.96 25.05ZM79.12 8.97L77.75 3.35L72.58 1.77L68.79 5.79L70.16 11.40L75.33 12.99ZM70.16 11.40L68.79 5.79L63.63 4.21L59.84 8.23L61.22 13.84L66.37 15.42ZM83.23 25.80L81.86 20.19L76.70 18.60L72.91 22.62L74.28 28.23L79.44 29.82ZM74.28 28.23L72.91 22.62L67.75 21.03L63.96 25.05L65.33 30.66L70.49 32.25ZM85.65 16.17L84.28 10.55L79.12 8.97L75.33 12.99L76.70 18.60L81.86 20.19ZM3.47 11.69L2.09 6.09L-3.07 4.52L-6.84 8.54L-5.46 14.14L-0.31 15.72ZM5.86 2.06L4.48 -3.54L-0.67 -5.12L-4.45 -1.09L-3.07 4.52L2.09 6.09ZM10.00 18.87L8.62 13.27L3.47 11.69L-0.31 15.72L1.07 21.32L6.22 22.89ZM1.07 21.32L-0.31 15.72L-5.46 14.14L-9.23 18.17L-7.85 23.77L-2.70 25.34ZM12.39 9.24L11.02 3.64L5.86 2.06L2.09 6.09L3.47 11.69L8.62 13.27ZM16.53 26.05L15.15 20.44L10.00 18.87L6.22 22.89L7.60 28.49L12.75 30.07ZM7.60 28.49L6.22 22.89L1.07 21.32L-2.70 25.34L-1.32 30.94L3.83 32.51ZM97.96 66.64L96.59 61.03L91.43 59.44L87.64 63.45L89.01 69.06L94.17 70.65ZM100.38 57.02L99.01 51.41L93.86 49.82L90.07 53.83L91.43 59.44L96.59 61.03ZM91.43 59.44L90.07 53.83L84.91 52.24L81.12 56.26L82.49 61.86L87.64 63.45ZM104.48 73.84L103.11 68.23L97.96 66.64L94.17 70.65L95.53 76.25L100.69 77.85ZM95.53 76.25L94.17 70.65L89.01 69.06L85.22 73.07L86.59 78.67L91.74 80.26ZM106.90 64.22L105.54 58.61L100.38 57.02L96.59 61.03L97.96 66.64L103.11 68.23ZM75.97 54.67L74.60 49.06L69.44 47.48L65.66 51.49L67.03 57.09L72.18 58.68ZM67.03 57.09L65.66 51.49L60.50 49.91L56.72 53.92L58.09 59.52L63.24 61.11ZM111.76 44.98L110.40 39.37L105.24 37.77L101.44 41.79L102.81 47.40L107.97 48.99ZM102.81 47.40L101.44 41.79L96.28 40.20L92.49 44.21L93.86 49.82L99.01 51.41ZM114.19 35.35L112.83 29.74L107.67 28.14L103.87 32.16L105.24 37.77L110.40 39.37ZM105.24 37.77L103.87 32.16L98.71 30.57L94.91 34.59L96.28 40.20L101.44 41.79ZM118.29 52.18L116.92 46.57L111.76 44.98L107.97 48.99L109.33 54.60L114.49 56.19ZM109.33 54.60L107.97 48.99L102.81 47.40L99.01 51.41L100.38 57.02L105.54 58.61ZM120.72 42.56L119.36 36.94L114.19 35.35L110.40 39.37L111.76 44.98L116.92 46.57ZM87.33 42.62L85.96 37.01L80.80 35.42L77.02 39.44L78.38 45.05L83.54 46.64ZM78.38 45.05L77.02 39.44L71.86 37.85L68.07 41.87L69.44 47.48L74.60 49.06ZM89.75 33.00L88.39 27.39L83.23 25.80L79.44 29.82L80.80 35.42L85.96 37.01ZM80.80 35.42L79.44 29.82L74.28 28.23L70.49 32.25L71.86 37.85L77.02 39.44ZM93.86 49.82L92.49 44.21L87.33 42.62L83.54 46.64L84.91 52.24L90.07 53.83ZM84.91 52.24L83.54 46.64L78.38 45.05L74.60 49.06L75.97 54.67L81.12 56.26ZM96.28 40.20L94.91 34.59L89.75 33.00L85.96 37.01L87.33 42.62L92.49 44.21ZM122.38 69.01L121.01 63.40L115.86 61.80L112.06 65.81L113.42 71.42L118.58 73.02ZM113.42 71.42L112.06 65.81L106.90 64.22L103.11 68.23L104.48 73.84L109.63 75.43ZM124.81 59.39L123.45 53.78L118.29 52.18L114.49 56.19L115.86 61.80L121.01 63.40ZM115.86 61.80L114.49 56.19L109.33 54.60L105.54 58.61L106.90 64.22L112.06 65.81ZM128.90 76.21L127.54 70.61L122.38 69.01L118.58 73.02L119.94 78.62L125.10 80.22ZM131.33 66.60L129.97 60.99L124.81 59.39L121.01 63.40L122.38 69.01L127.54 70.61ZM159.85 85.82L158.50 80.21L153.33 78.61L149.53 82.62L150.89 88.22L156.05 89.83ZM150.89 88.22L149.53 82.62L144.37 81.01L140.57 85.02L141.93 90.63L147.09 92.23ZM166.37 93.04L165.01 87.43L159.85 85.82L156.05 89.83L157.41 95.44L162.57 97.04ZM135.42 83.42L134.06 77.81L128.90 76.21L125.10 80.22L126.46 85.83L131.62 87.43ZM141.93 90.63L140.57 85.02L135.42 83.42L131.62 87.43L132.98 93.03L138.14 94.63ZM188.46 6.38L187.11 0.75L181.93 -0.86L178.11 3.17L179.47 8.79L184.64 10.40ZM179.47 8.79L178.11 3.17L172.94 1.56L169.12 5.58L170.48 11.20L175.65 12.81ZM190.93 -3.27L189.57 -8.90L184.39 -10.50L180.57 -6.48L181.93 -0.86L187.11 0.75ZM181.93 -0.86L180.57 -6.48L175.39 -8.09L171.58 -4.06L172.94 1.56L178.11 3.17ZM194.99 13.61L193.64 7.98L188.46 6.38L184.64 10.40L186.00 16.02L191.18 17.63ZM186.00 16.02L184.64 10.40L179.47 8.79L175.65 12.81L177.01 18.43L182.18 20.04ZM197.46 3.97L196.10 -1.66L190.93 -3.27L187.11 0.75L188.46 6.38L193.64 7.98ZM163.95 3.98L162.59 -1.64L157.41 -3.25L153.60 0.78L154.96 6.40L160.14 8.00ZM154.96 6.40L153.60 0.78L148.43 -0.82L144.62 3.20L145.98 8.82L151.15 10.42ZM157.41 -3.25L156.05 -8.87L150.88 -10.47L147.07 -6.45L148.43 -0.82L153.60 0.78ZM170.48 11.20L169.12 5.58L163.95 3.98L160.14 8.00L161.50 13.62L166.67 15.22ZM161.50 13.62L160.14 8.00L154.96 6.40L151.15 10.42L152.51 16.04L157.68 17.64ZM172.94 1.56L171.58 -4.06L166.40 -5.67L162.59 -1.64L163.95 3.98L169.12 5.58ZM114.97 -0.76L113.60 -6.38L108.43 -7.97L104.63 -3.95L106.00 1.67L111.17 3.26ZM106.00 1.67L104.63 -3.95L99.46 -5.54L95.67 -1.52L97.03 4.10L102.20 5.69ZM121.50 6.45L120.14 0.83L114.97 -0.76L111.17 3.26L112.53 8.88L117.70 10.47ZM112.53 8.88L111.17 3.26L106.00 1.67L102.20 5.69L103.57 11.30L108.73 12.90ZM123.94 -3.19L122.57 -8.81L117.40 -10.41L113.60 -6.38L114.97 -0.76L120.14 0.83ZM90.50 -3.11L89.13 -8.72L83.96 -10.31L80.17 -6.28L81.54 -0.67L86.70 0.92ZM81.54 -0.67L80.17 -6.28L75.00 -7.87L71.21 -3.84L72.58 1.77L77.75 3.35ZM97.03 4.10L95.67 -1.52L90.50 -3.11L86.70 0.92L88.07 6.53L93.24 8.12ZM88.07 6.53L86.70 0.92L81.54 -0.67L77.75 3.35L79.12 8.97L84.28 10.55ZM125.59 23.30L124.23 17.68L119.06 16.09L115.26 20.11L116.63 25.72L121.79 27.31ZM116.63 25.72L115.26 20.11L110.10 18.51L106.30 22.53L107.67 28.14L112.83 29.74ZM128.03 13.66L126.67 8.04L121.50 6.45L117.70 10.47L119.06 16.09L124.23 17.68ZM119.06 16.09L117.70 10.47L112.53 8.88L108.73 12.90L110.10 18.51L115.26 20.11ZM132.12 30.51L130.76 24.89L125.59 23.30L121.79 27.31L123.16 32.93L128.32 34.53ZM123.16 32.93L121.79 27.31L116.63 25.72L112.83 29.74L114.19 35.35L119.36 36.94ZM134.56 20.88L133.20 15.26L128.03 13.66L124.23 17.68L125.59 23.30L130.76 24.89ZM101.14 20.94L99.77 15.33L94.61 13.73L90.81 17.76L92.18 23.37L97.34 24.96ZM92.18 23.37L90.81 17.76L85.65 16.17L81.86 20.19L83.23 25.80L88.39 27.39ZM103.57 11.30L102.20 5.69L97.03 4.10L93.24 8.12L94.61 13.73L99.77 15.33ZM94.61 13.73L93.24 8.12L88.07 6.53L84.28 10.55L85.65 16.17L90.81 17.76ZM107.67 28.14L106.30 22.53L101.14 20.94L97.34 24.96L98.71 30.57L103.87 32.16ZM98.71 30.57L97.34 24.96L92.18 23.37L88.39 27.39L89.75 33.00L94.91 34.59ZM110.10 18.51L108.73 12.90L103.57 11.30L99.77 15.33L101.14 20.94L106.30 22.53ZM139.45 1.60L138.09 -4.02L132.92 -5.62L129.11 -1.60L130.47 4.02L135.64 5.62ZM130.47 4.02L129.11 -1.60L123.94 -3.19L120.14 0.83L121.50 6.45L126.67 8.04ZM145.98 8.82L144.62 3.20L139.45 1.60L135.64 5.62L137.01 11.24L142.18 12.84ZM137.01 11.24L135.64 5.62L130.47 4.02L126.67 8.04L128.03 13.66L133.20 15.26ZM148.43 -0.82L147.07 -6.45L141.90 -8.05L138.09 -4.02L139.45 1.60L144.62 3.20ZM223.58 32.91L222.23 27.29L217.05 25.68L213.23 29.69L214.58 35.31L219.76 36.93ZM214.58 35.31L213.23 29.69L208.05 28.08L204.23 32.09L205.59 37.72L210.76 39.33ZM226.05 23.27L224.70 17.65L219.52 16.03L215.70 20.05L217.05 25.68L222.23 27.29ZM217.05 25.68L215.70 20.05L210.52 18.44L206.70 22.45L208.05 28.08L213.23 29.69ZM230.11 40.15L228.76 34.53L223.58 32.91L219.76 36.93L221.11 42.55L226.28 44.17ZM221.11 42.55L219.76 36.93L214.58 35.31L210.76 39.33L212.11 44.95L217.29 46.56ZM232.58 30.52L231.23 24.89L226.05 23.27L222.23 27.29L223.58 32.91L228.76 34.53ZM199.06 30.48L197.71 24.86L192.53 23.25L188.71 27.27L190.07 32.89L195.24 34.50ZM190.07 32.89L188.71 27.27L183.54 25.66L179.73 29.67L181.08 35.29L186.25 36.90ZM201.52 20.84L200.17 15.22L194.99 13.61L191.18 17.63L192.53 23.25L197.71 24.86ZM192.53 23.25L191.18 17.63L186.00 16.02L182.18 20.04L183.54 25.66L188.71 27.27ZM205.59 37.72L204.23 32.09L199.06 30.48L195.24 34.50L196.60 40.12L201.77 41.73ZM196.60 40.12L195.24 34.50L190.07 32.89L186.25 36.90L187.61 42.52L192.78 44.13ZM208.05 28.08L206.70 22.45L201.52 20.84L197.71 24.86L199.06 30.48L204.23 32.09ZM237.54 11.23L236.19 5.60L231.01 3.98L227.18 8.00L228.53 13.63L233.71 15.25ZM228.53 13.63L227.18 8.00L222.00 6.39L218.17 10.41L219.52 16.03L224.70 17.65ZM240.02 1.58L238.67 -4.05L233.48 -5.67L229.65 -1.65L231.01 3.98L236.19 5.60ZM231.01 3.98L229.65 -1.65L224.47 -3.26L220.64 0.76L222.00 6.39L227.18 8.00ZM244.07 18.48L242.72 12.85L237.54 11.23L233.71 15.25L235.06 20.87L240.24 22.49ZM235.06 20.87L233.71 15.25L228.53 13.63L224.70 17.65L226.05 23.27L231.23 24.89ZM246.55 8.83L245.20 3.20L240.02 1.58L236.19 5.60L237.54 11.23L242.72 12.85ZM212.99 8.79L211.64 3.17L206.46 1.56L202.64 5.57L203.99 11.20L209.17 12.81ZM203.99 11.20L202.64 5.57L197.46 3.97L193.64 7.98L194.99 13.61L200.17 15.22ZM215.46 -0.85L214.11 -6.48L208.93 -8.09L205.10 -4.07L206.46 1.56L211.64 3.17ZM206.46 1.56L205.10 -4.07L199.93 -5.68L196.10 -1.66L197.46 3.97L202.64 5.57ZM219.52 16.03L218.17 10.41L212.99 8.79L209.17 12.81L210.52 18.44L215.70 20.05ZM210.52 18.44L209.17 12.81L203.99 11.20L200.17 15.22L201.52 20.84L206.70 22.45ZM222.00 6.39L220.64 0.76L215.46 -0.85L211.64 3.17L212.99 8.79L218.17 10.41ZM234.16 57.03L232.81 51.40L227.63 49.79L223.81 53.80L225.16 59.42L230.33 61.04ZM225.16 59.42L223.81 53.80L218.64 52.18L214.82 56.19L216.17 61.81L221.34 63.43ZM236.63 47.40L235.28 41.77L230.11 40.15L226.28 44.17L227.63 49.79L232.81 51.40ZM227.63 49.79L226.28 44.17L221.11 42.55L217.29 46.56L218.64 52.18L223.81 53.80ZM240.68 64.27L239.33 58.65L234.16 57.03L230.33 61.04L231.68 66.66L236.85 68.27ZM231.68 66.66L230.33 61.04L225.16 59.42L221.34 63.43L222.69 69.05L227.86 70.66ZM243.16 54.64L241.81 49.01L236.63 47.40L232.81 51.40L234.16 57.03L239.33 58.65ZM209.65 54.58L208.29 48.96L203.12 47.35L199.31 51.36L200.66 56.98L205.83 58.59ZM200.66 56.98L199.31 51.36L194.14 49.75L190.32 53.76L191.68 59.38L196.84 60.99ZM212.11 44.95L210.76 39.33L205.59 37.72L201.77 41.73L203.12 47.35L208.29 48.96ZM203.12 47.35L201.77 41.73L196.60 40.12L192.78 44.13L194.14 49.75L199.31 51.36ZM216.17 61.81L214.82 56.19L209.65 54.58L205.83 58.59L207.18 64.21L212.35 65.82ZM207.18 64.21L205.83 58.59L200.66 56.98L196.84 60.99L198.20 66.61L203.36 68.22ZM218.64 52.18L217.29 46.56L212.11 44.95L208.29 48.96L209.65 54.58L214.82 56.19ZM248.11 35.37L246.77 29.74L241.59 28.12L237.76 32.13L239.11 37.76L244.29 39.38ZM239.11 37.76L237.76 32.13L232.58 30.52L228.76 34.53L230.11 40.15L235.28 41.77ZM250.60 25.72L249.25 20.09L244.07 18.48L240.24 22.49L241.59 28.12L246.77 29.74ZM241.59 28.12L240.24 22.49L235.06 20.87L231.23 24.89L232.58 30.52L237.76 32.13ZM254.64 42.61L253.29 36.98L248.11 35.37L244.29 39.38L245.63 45.00L250.81 46.62ZM245.63 45.00L244.29 39.38L239.11 37.76L235.28 41.77L236.63 47.40L241.81 49.01ZM257.12 32.97L255.78 27.34L250.60 25.72L246.77 29.74L248.11 35.37L253.29 36.98ZM160.67 49.74L159.31 44.13L154.15 42.52L150.34 46.54L151.70 52.15L156.87 53.75ZM151.70 52.15L150.34 46.54L145.18 44.94L141.37 48.95L142.73 54.56L147.90 56.16ZM163.12 40.11L161.76 34.49L156.60 32.89L152.79 36.91L154.15 42.52L159.31 44.13ZM154.15 42.52L152.79 36.91L147.62 35.31L143.82 39.32L145.18 44.94L150.34 46.54ZM167.20 56.96L165.84 51.35L160.67 49.74L156.87 53.75L158.23 59.37L163.39 60.97ZM158.23 59.37L156.87 53.75L151.70 52.15L147.90 56.16L149.26 61.78L154.42 63.38ZM169.65 47.33L168.29 41.72L163.12 40.11L159.31 44.13L160.67 49.74L165.84 51.35ZM136.21 47.35L134.85 41.74L129.68 40.14L125.88 44.15L127.25 49.76L132.41 51.36ZM127.25 49.76L125.88 44.15L120.72 42.56L116.92 46.57L118.29 52.18L123.45 53.78ZM138.65 37.72L137.29 32.11L132.12 30.51L128.32 34.53L129.68 40.14L134.85 41.74ZM129.68 40.14L128.32 34.53L123.16 32.93L119.36 36.94L120.72 42.56L125.88 44.15ZM142.73 54.56L141.37 48.95L136.21 47.35L132.41 51.36L133.77 56.97L138.93 58.57ZM133.77 56.97L132.41 51.36L127.25 49.76L123.45 53.78L124.81 59.39L129.97 60.99ZM145.18 44.94L143.82 39.32L138.65 37.72L134.85 41.74L136.21 47.35L141.37 48.95ZM174.56 28.07L173.20 22.45L168.03 20.84L164.21 24.86L165.57 30.48L170.74 32.08ZM165.57 30.48L164.21 24.86L159.05 23.26L155.24 27.27L156.60 32.89L161.76 34.49ZM177.01 18.43L175.65 12.81L170.48 11.20L166.67 15.22L168.03 20.84L173.20 22.45ZM168.03 20.84L166.67 15.22L161.50 13.62L157.68 17.64L159.05 23.26L164.21 24.86ZM181.08 35.29L179.73 29.67L174.56 28.07L170.74 32.08L172.10 37.70L177.27 39.31ZM172.10 37.70L170.74 32.08L165.57 30.48L161.76 34.49L163.12 40.11L168.29 41.72ZM183.54 25.66L182.18 20.04L177.01 18.43L173.20 22.45L174.56 28.07L179.73 29.67ZM150.07 25.67L148.71 20.06L143.54 18.46L139.73 22.47L141.09 28.09L146.26 29.69ZM141.09 28.09L139.73 22.47L134.56 20.88L130.76 24.89L132.12 30.51L137.29 32.11ZM152.51 16.04L151.15 10.42L145.98 8.82L142.18 12.84L143.54 18.46L148.71 20.06ZM143.54 18.46L142.18 12.84L137.01 11.24L133.20 15.26L134.56 20.88L139.73 22.47ZM156.60 32.89L155.24 27.27L150.07 25.67L146.26 29.69L147.62 35.31L152.79 36.91ZM147.62 35.31L146.26 29.69L141.09 28.09L137.29 32.11L138.65 37.72L143.82 39.32ZM159.05 23.26L157.68 17.64L152.51 16.04L148.71 20.06L150.07 25.67L155.24 27.27ZM171.27 73.80L169.91 68.19L164.75 66.58L160.94 70.59L162.30 76.21L167.46 77.81ZM162.30 76.21L160.94 70.59L155.78 68.99L151.98 73.00L153.33 78.61L158.50 80.21ZM173.72 64.18L172.36 58.57L167.20 56.96L163.39 60.97L164.75 66.58L169.91 68.19ZM164.75 66.58L163.39 60.97L158.23 59.37L154.42 63.38L155.78 68.99L160.94 70.59ZM177.79 81.02L176.43 75.41L171.27 73.80L167.46 77.81L168.82 83.42L173.98 85.03ZM168.82 83.42L167.46 77.81L162.30 76.21L158.50 80.21L159.85 85.82L165.01 87.43ZM180.24 71.40L178.88 65.79L173.72 64.18L169.91 68.19L171.27 73.80L176.43 75.41ZM146.81 71.40L145.46 65.79L140.29 64.18L136.49 68.19L137.85 73.80L143.01 75.40ZM137.85 73.80L136.49 68.19L131.33 66.60L127.54 70.61L128.90 76.21L134.06 77.81ZM149.26 61.78L147.90 56.16L142.73 54.56L138.93 58.57L140.29 64.18L145.46 65.79ZM140.29 64.18L138.93 58.57L133.77 56.97L129.97 60.99L131.33 66.60L136.49 68.19ZM153.33 78.61L151.98 73.00L146.81 71.40L143.01 75.40L144.37 81.01L149.53 82.62ZM144.37 81.01L143.01 75.40L137.85 73.80L134.06 77.81L135.42 83.42L140.57 85.02ZM155.78 68.99L154.42 63.38L149.26 61.78L145.46 65.79L146.81 71.40L151.98 73.00ZM185.15 52.15L183.80 46.53L178.63 44.93L174.82 48.94L176.17 54.56L181.34 56.16ZM176.17 54.56L174.82 48.94L169.65 47.33L165.84 51.35L167.20 56.96L172.36 58.57ZM187.61 42.52L186.25 36.90L181.08 35.29L177.27 39.31L178.63 44.93L183.80 46.53ZM178.63 44.93L177.27 39.31L172.10 37.70L168.29 41.72L169.65 47.33L174.82 48.94ZM191.68 59.38L190.32 53.76L185.15 52.15L181.34 56.16L182.70 61.78L187.86 63.39ZM182.70 61.78L181.34 56.16L176.17 54.56L172.36 58.57L173.72 64.18L178.88 65.79ZM194.14 49.75L192.78 44.13L187.61 42.52L183.80 46.53L185.15 52.15L190.32 53.76ZM258.05 -3.22L256.70 -8.86L251.52 -10.47L247.68 -6.46L249.03 -0.82L254.22 0.80ZM249.03 -0.82L247.68 -6.46L242.50 -8.07L238.67 -4.05L240.02 1.58L245.20 3.20ZM224.47 -3.26L223.12 -8.89L217.94 -10.50L214.11 -6.48L215.46 -0.85L220.64 0.76ZM265.82 129.33L264.47 123.71L259.31 122.09L255.48 126.09L256.83 131.70L261.99 133.32ZM256.83 131.70L255.48 126.09L250.32 124.46L246.50 128.46L247.84 134.07L253.01 135.69ZM259.31 122.09L257.96 116.47L252.80 114.85L248.97 118.85L250.32 124.46L255.48 126.09ZM263.34 138.94L261.99 133.32L256.83 131.70L253.01 135.69L254.35 141.31L259.51 142.93ZM241.34 126.84L239.99 121.22L234.83 119.60L231.01 123.60L232.36 129.21L237.52 130.83ZM232.36 129.21L231.01 123.60L225.85 121.98L222.03 125.98L223.38 131.59L228.54 133.21ZM243.81 117.23L242.46 111.61L237.30 109.99L233.48 113.99L234.83 119.60L239.99 121.22ZM234.83 119.60L233.48 113.99L228.31 112.37L224.50 116.37L225.85 121.98L231.01 123.60ZM247.84 134.07L246.50 128.46L241.34 126.84L237.52 130.83L238.86 136.44L244.03 138.06ZM250.32 124.46L248.97 118.85L243.81 117.23L239.99 121.22L241.34 126.84L246.50 128.46ZM260.23 86.00L258.89 80.37L253.72 78.75L249.89 82.76L251.24 88.38L256.41 90.00ZM262.72 76.37L261.37 70.75L256.20 69.13L252.37 73.13L253.72 78.75L258.89 80.37ZM244.72 81.14L243.37 75.51L238.20 73.90L234.38 77.90L235.73 83.52L240.90 85.14ZM235.73 83.52L234.38 77.90L229.21 76.28L225.39 80.29L226.74 85.91L231.91 87.52ZM247.20 71.51L245.85 65.89L240.68 64.27L236.85 68.27L238.20 73.90L243.37 75.51ZM238.20 73.90L236.85 68.27L231.68 66.66L227.86 70.66L229.21 76.28L234.38 77.90ZM251.24 88.38L249.89 82.76L244.72 81.14L240.90 85.14L242.24 90.76L247.41 92.38ZM242.24 90.76L240.90 85.14L235.73 83.52L231.91 87.52L233.26 93.14L238.42 94.76ZM253.72 78.75L252.37 73.13L247.20 71.51L243.37 75.51L244.72 81.14L249.89 82.76ZM258.68 59.50L257.33 53.87L252.16 52.25L248.33 56.26L249.68 61.88L254.85 63.50ZM249.68 61.88L248.33 56.26L243.16 54.64L239.33 58.65L240.68 64.27L245.85 65.89ZM261.17 49.86L259.82 44.23L254.64 42.61L250.81 46.62L252.16 52.25L257.33 53.87ZM252.16 52.25L250.81 46.62L245.63 45.00L241.81 49.01L243.16 54.64L248.33 56.26ZM265.20 66.74L263.86 61.12L258.68 59.50L254.85 63.50L256.20 69.13L261.37 70.75ZM256.20 69.13L254.85 63.50L249.68 61.88L245.85 65.89L247.20 71.51L252.37 73.13ZM255.27 105.24L253.93 99.62L248.76 98.00L244.94 102.00L246.28 107.61L251.45 109.23ZM246.28 107.61L244.94 102.00L239.77 100.38L235.95 104.38L237.30 109.99L242.46 111.61ZM257.75 95.62L256.41 90.00L251.24 88.38L247.41 92.38L248.76 98.00L253.93 99.62ZM248.76 98.00L247.41 92.38L242.24 90.76L238.42 94.76L239.77 100.38L244.94 102.00ZM261.79 112.48L260.44 106.86L255.27 105.24L251.45 109.23L252.80 114.85L257.96 116.47ZM252.80 114.85L251.45 109.23L246.28 107.61L242.46 111.61L243.81 117.23L248.97 118.85ZM264.27 102.86L262.92 97.24L257.75 95.62L253.93 99.62L255.27 105.24L260.44 106.86ZM206.31 100.30L204.96 94.69L199.79 93.07L195.98 97.08L197.34 102.69L202.50 104.30ZM197.34 102.69L195.98 97.08L190.82 95.47L187.01 99.47L188.37 105.08L193.53 106.69ZM208.77 90.68L207.42 85.07L202.26 83.46L198.44 87.46L199.79 93.07L204.96 94.69ZM199.79 93.07L198.44 87.46L193.28 85.85L189.47 89.85L190.82 95.47L195.98 97.08ZM212.82 107.53L211.47 101.91L206.31 100.30L202.50 104.30L203.85 109.91L209.01 111.53ZM203.85 109.91L202.50 104.30L197.34 102.69L193.53 106.69L194.88 112.30L200.04 113.91ZM215.29 97.91L213.94 92.30L208.77 90.68L204.96 94.69L206.31 100.30L211.47 101.91ZM181.85 97.86L180.50 92.25L175.34 90.64L171.53 94.64L172.88 100.25L178.04 101.86ZM172.88 100.25L171.53 94.64L166.37 93.04L162.57 97.04L163.92 102.65L169.08 104.25ZM184.30 88.24L182.95 82.63L177.79 81.02L173.98 85.03L175.34 90.64L180.50 92.25ZM175.34 90.64L173.98 85.03L168.82 83.42L165.01 87.43L166.37 93.04L171.53 94.64ZM188.37 105.08L187.01 99.47L181.85 97.86L178.04 101.86L179.40 107.47L184.56 109.08ZM190.82 95.47L189.47 89.85L184.30 88.24L180.50 92.25L181.85 97.86L187.01 99.47ZM220.22 78.67L218.87 73.05L213.70 71.44L209.88 75.45L211.24 81.06L216.40 82.68ZM211.24 81.06L209.88 75.45L204.72 73.83L200.90 77.84L202.26 83.46L207.42 85.07ZM222.69 69.05L221.34 63.43L216.17 61.81L212.35 65.82L213.70 71.44L218.87 73.05ZM213.70 71.44L212.35 65.82L207.18 64.21L203.36 68.22L204.72 73.83L209.88 75.45ZM226.74 85.91L225.39 80.29L220.22 78.67L216.40 82.68L217.75 88.29L222.92 89.91ZM217.75 88.29L216.40 82.68L211.24 81.06L207.42 85.07L208.77 90.68L213.94 92.30ZM229.21 76.28L227.86 70.66L222.69 69.05L218.87 73.05L220.22 78.67L225.39 80.29ZM195.74 76.23L194.38 70.61L189.22 69.00L185.41 73.01L186.76 78.63L191.92 80.23ZM186.76 78.63L185.41 73.01L180.24 71.40L176.43 75.41L177.79 81.02L182.95 82.63ZM198.20 66.61L196.84 60.99L191.68 59.38L187.86 63.39L189.22 69.00L194.38 70.61ZM189.22 69.00L187.86 63.39L182.70 61.78L178.88 65.79L180.24 71.40L185.41 73.01ZM202.26 83.46L200.90 77.84L195.74 76.23L191.92 80.23L193.28 85.85L198.44 87.46ZM193.28 85.85L191.92 80.23L186.76 78.63L182.95 82.63L184.30 88.24L189.47 89.85ZM204.72 73.83L203.36 68.22L198.20 66.61L194.38 70.61L195.74 76.23L200.90 77.84ZM219.34 114.75L217.99 109.14L212.82 107.53L209.01 111.53L210.36 117.14L215.52 118.75ZM210.36 117.14L209.01 111.53L203.85 109.91L200.04 113.91L201.39 119.52L206.55 121.13ZM225.85 121.98L224.50 116.37L219.34 114.75L215.52 118.75L216.87 124.36L222.03 125.98ZM194.88 112.30L193.53 106.69L188.37 105.08L184.56 109.08L185.91 114.69L191.07 116.30ZM201.39 119.52L200.04 113.91L194.88 112.30L191.07 116.30L192.42 121.91L197.58 123.52ZM230.78 102.76L229.44 97.14L224.27 95.53L220.45 99.53L221.80 105.14L226.97 106.76ZM221.80 105.14L220.45 99.53L215.29 97.91L211.47 101.91L212.82 107.53L217.99 109.14ZM233.26 93.14L231.91 87.52L226.74 85.91L222.92 89.91L224.27 95.53L229.44 97.14ZM224.27 95.53L222.92 89.91L217.75 88.29L213.94 92.30L215.29 97.91L220.45 99.53ZM237.30 109.99L235.95 104.38L230.78 102.76L226.97 106.76L228.31 112.37L233.48 113.99ZM228.31 112.37L226.97 106.76L221.80 105.14L217.99 109.14L219.34 114.75L224.50 116.37ZM239.77 100.38L238.42 94.76L233.26 93.14L229.44 97.14L230.78 102.76L235.95 104.38Z"/></svg>
